<?xml version="1.0" encoding="iso-8859-1"?>
<!-- Generator: Adobe Illustrator 19.0.0, SVG Export Plug-In . SVG Version: 6.00 Build 0)  -->
<svg version="1.1" id="Layer_1" xmlns="http://www.w3.org/2000/svg" xmlns:xlink="http://www.w3.org/1999/xlink" x="0px" y="0px"
	 viewBox="0 0 512.002 512.002" style="enable-background:new 0 0 512.002 512.002;" xml:space="preserve">
<g>
	<g>
		<path d="M293.247,274.623l-18.622-18.619l-62.071-62.071l-18.622-18.622l-18.626-18.622l-74.487,74.485l-49.655,49.655
			c-10.285,10.283-10.285,26.958,0,37.243c5.142,5.144,11.882,7.716,18.622,7.716c6.74,0,13.48-2.572,18.62-7.716l31.035-31.033
			l62.069,62.069L63.576,467.043c-10.283,10.283-10.283,26.958,0,37.243c5.144,5.144,11.882,7.716,18.62,7.716
			c6.74,0,13.48-2.572,18.622-7.716l136.53-136.527c0.011-0.011,0.021-0.018,0.03-0.025l46.557-46.557l27.931-27.932
			L293.247,274.623z"/>
	</g>
</g>
<g>
	<g>
		<path d="M460.839,7.716C455.9,2.774,449.199,0,442.217,0L268.414,0.004c-10.652,0-20.253,6.415-24.33,16.257
			c-4.075,9.839-1.822,21.168,5.709,28.698l18.62,18.622l-55.865,55.865l18.62,18.62l18.622,18.622l62.071,62.071l18.622,18.622
			l18.619,18.619h0.002c0.005-0.004,0.007-0.007,0.012-0.014l30.055-30.052l25.796-25.796l18.62,18.619
			c5.037,5.037,11.773,7.711,18.626,7.711c3.394,0,6.814-0.655,10.072-2.003c9.839-4.077,16.257-13.678,16.257-24.332l0.007-173.799
			C468.552,19.349,465.778,12.653,460.839,7.716z"/>
	</g>
</g>
<g>
</g>
<g>
</g>
<g>
</g>
<g>
</g>
<g>
</g>
<g>
</g>
<g>
</g>
<g>
</g>
<g>
</g>
<g>
</g>
<g>
</g>
<g>
</g>
<g>
</g>
<g>
</g>
<g>
</g>
</svg>
