<?xml version="1.0" encoding="iso-8859-1"?>
<!-- Generator: Adobe Illustrator 19.0.0, SVG Export Plug-In . SVG Version: 6.00 Build 0)  -->
<svg version="1.1" id="Layer_1" xmlns="http://www.w3.org/2000/svg" xmlns:xlink="http://www.w3.org/1999/xlink" x="0px" y="0px"
	 viewBox="0 0 512 512" style="enable-background:new 0 0 512 512;" xml:space="preserve">
<g>
	<path style="fill:#57565C;" d="M402.286,234.057c-1.175,0-2.335,0.053-3.501,0.089c-0.272,0.009-0.546,0.01-0.818,0.02
		c-7.3,0.284-14.415,1.289-21.283,2.937c-4.699,1.128-9.277,2.556-13.72,4.267c-2.374,0.914-4.709,1.905-7,2.977
		c-10.373,4.852-19.863,11.273-28.169,18.966c-0.762,0.707-1.514,1.425-2.257,2.152c-8.303,8.139-15.309,17.585-20.705,27.999
		c-4.07,7.851-7.215,16.248-9.296,25.057c-1.919,8.113-2.965,16.56-2.965,25.249c0,9.631,6.214,17.794,14.845,20.748
		c3.169,49.586,44.496,88.967,94.869,88.967s91.701-39.38,94.869-88.967c8.631-2.954,14.845-11.116,14.845-20.748
		C512,283.275,462.782,234.057,402.286,234.057z M402.286,409.6c-28.232,0-51.2-22.968-51.2-51.2s22.968-51.2,51.2-51.2
		c28.232,0,51.2,22.968,51.2,51.2C453.486,386.632,430.517,409.6,402.286,409.6z"/>
	<path style="fill:#57565C;" d="M219.285,338.182c-0.377-7.488-1.508-14.781-3.321-21.804c-1.859-7.209-4.446-14.127-7.657-20.686
		c-5.996-12.244-14.209-23.205-24.106-32.377c-10.141-9.393-22.05-16.887-35.169-21.943c-12.216-4.707-25.465-7.314-39.32-7.314
		s-27.104,2.607-39.32,7.314c-3.269,1.26-6.464,2.67-9.576,4.225c-7.358,3.681-14.256,8.145-20.562,13.316
		C15.699,279.05,0,309.609,0,343.771c0,9.631,6.214,17.794,14.845,20.748c3.169,49.586,44.496,88.967,94.869,88.967
		s91.701-39.38,94.869-88.967c8.631-2.954,14.845-11.116,14.845-20.748C219.429,341.897,219.38,340.034,219.285,338.182z
		 M109.714,409.6c-28.232,0-51.2-22.968-51.2-51.2s22.968-51.2,51.2-51.2s51.2,22.968,51.2,51.2
		C160.914,386.632,137.946,409.6,109.714,409.6z"/>
</g>
<g>
	<path style="fill:#FF3F62;" d="M402.286,234.057c-1.175,0-2.335,0.053-3.501,0.089L384.3,189.187l-6.823-21.181l-4.449-13.806
		l-16.688-51.8h16.688c10.225,0,18.792-7.004,21.226-16.469c0.451-1.753,0.717-3.581,0.717-5.474
		c0-12.118-9.825-21.943-21.943-21.943h-46.811h-0.085h-0.214h-43.587c-12.118,0-21.943,9.825-21.943,21.943
		s9.825,21.943,21.943,21.943h27.901l37.704,117.029H53.4c-12.118,0-21.943,9.825-21.943,21.943c0,7.183,3.466,13.539,8.801,17.541
		C15.699,279.05,0,309.609,0,343.771c0,9.631,6.214,17.794,14.845,20.748c2.229,0.762,4.611,1.195,7.098,1.195
		c5.648,0,10.781-2.153,14.671-5.658c4.454-4.017,7.272-9.814,7.272-16.285c0-9.795,2.165-19.089,6.02-27.452
		c10.427-22.625,33.306-38.377,59.809-38.377c3.06,0,6.065,0.227,9.017,0.633c17.082,2.351,32.086,11.274,42.382,24.136
		c3.327,4.156,6.157,8.72,8.41,13.609c3.855,8.362,6.02,17.655,6.02,27.451c0,6.47,2.817,12.268,7.272,16.285
		c3.89,3.505,9.023,5.658,14.671,5.658c2.487,0,4.868-0.433,7.098-1.195c8.631-2.954,14.845-11.116,14.845-20.748
		c0-1.874-0.048-3.738-0.143-5.59l76.251-19.658c-1.919,8.112-2.965,16.558-2.965,25.247c0,9.631,6.214,17.794,14.845,20.748
		c2.229,0.762,4.611,1.195,7.098,1.195c5.648,0,10.781-2.153,14.671-5.658c4.454-4.017,7.272-9.814,7.272-16.285
		c0-9.795,2.165-19.089,6.02-27.452c1.909-4.141,4.223-8.056,6.912-11.681c5.717-7.708,13.072-14.131,21.551-18.742
		c9.324-5.07,20.006-7.954,31.346-7.954c2.257,0,4.485,0.116,6.685,0.338c23.625,2.395,43.584,17.341,53.122,38.039
		c3.856,8.363,6.021,17.657,6.021,27.452c0,6.47,2.817,12.268,7.272,16.285c3.89,3.505,9.023,5.658,14.671,5.658
		c2.487,0,4.868-0.433,7.098-1.195c8.631-2.954,14.845-11.116,14.845-20.748C512,283.275,462.782,234.057,402.286,234.057z"/>
	<path style="fill:#FF3F62;" d="M325.54,265.466c0.743-0.728,1.497-1.445,2.257-2.152c8.306-7.693,17.796-14.114,28.169-18.966
		c2.291-1.071,4.626-2.063,7-2.977c4.443-1.712,9.021-3.139,13.72-4.267c6.868-1.649,13.983-2.654,21.283-2.937
		c0.272-0.01,0.546-0.012,0.818-0.02l-14.485-44.959l-6.823-21.181l-4.45-13.806l-16.688-51.8h16.688
		c10.225,0,18.792-7.004,21.226-16.469c0.451-1.753,0.717-3.581,0.717-5.474c0-12.118-9.825-21.943-21.943-21.943h-46.811
		c0.098,0,0.195,0.013,0.291,0.015c0.62,0.007,1.239,0.032,1.852,0.094c0.24,0.023,0.471,0.066,0.708,0.098
		c0.465,0.061,0.932,0.12,1.388,0.211c0.348,0.069,0.686,0.161,1.028,0.246c0.336,0.083,0.677,0.159,1.009,0.259
		c0.395,0.118,0.781,0.262,1.169,0.401c0.272,0.098,0.549,0.189,0.818,0.298c0.394,0.159,0.769,0.341,1.151,0.522
		c0.259,0.123,0.522,0.24,0.775,0.373c0.348,0.184,0.686,0.388,1.025,0.59c0.275,0.164,0.553,0.323,0.821,0.499
		c0.29,0.19,0.568,0.396,0.846,0.6c0.303,0.218,0.604,0.433,0.894,0.669c0.228,0.184,0.446,0.383,0.667,0.578
		c0.316,0.276,0.633,0.551,0.933,0.848c0.186,0.183,0.36,0.376,0.538,0.566c0.307,0.325,0.614,0.648,0.903,0.993
		c0.17,0.203,0.326,0.417,0.489,0.626c0.268,0.344,0.535,0.686,0.783,1.046c0.184,0.269,0.348,0.549,0.522,0.825
		c0.197,0.317,0.399,0.628,0.579,0.957c0.219,0.392,0.41,0.802,0.604,1.208c0.11,0.231,0.23,0.453,0.334,0.69
		c0.24,0.553,0.449,1.123,0.642,1.7c0.044,0.13,0.099,0.256,0.143,0.389c0.02,0.066,0.042,0.129,0.063,0.193
		c0.628,2.042,0.967,4.206,0.967,6.45c0,9.77-6.39,18.04-15.214,20.882c-2.124,0.683-4.381,1.061-6.729,1.061h-15.985
		l37.705,117.029H53.4c-12.118,0-21.943,9.825-21.943,21.943c0,7.183,3.466,13.539,8.801,17.541
		c6.306-5.171,13.202-9.636,20.562-13.316c3.111-1.555,6.306-2.965,9.576-4.225c12.216-4.707,25.465-7.314,39.32-7.314
		s27.104,2.607,39.32,7.314c13.119,5.056,25.028,12.55,35.169,21.943c9.898,9.172,18.11,20.133,24.106,32.377
		c3.211,6.559,5.797,13.476,7.657,20.686c1.811,7.023,2.943,14.316,3.321,21.804l76.251-19.658
		c2.083-8.808,5.227-17.206,9.296-25.057C310.231,283.051,317.237,273.605,325.54,265.466z"/>
</g>
<path id="SVGCleanerId_0" style="fill:#FF0C38;" d="M208.308,295.692c-5.996-12.244-14.209-23.205-24.106-32.377
	c-10.141-9.393-22.05-16.887-35.169-21.943c-12.216-4.707-25.465-7.314-39.32-7.314s-27.104,2.607-39.32,7.314
	c-3.269,1.26-6.464,2.67-9.576,4.225c-7.358,3.681-14.256,8.145-20.562,13.316C15.699,279.05,0,309.609,0,343.771
	c0,9.631,6.214,17.794,14.845,20.748c2.229,0.762,4.611,1.195,7.098,1.195c5.648,0,10.781-2.153,14.671-5.658
	c4.454-4.017,7.272-9.814,7.272-16.285c0-9.795,2.165-19.089,6.02-27.452c10.427-22.625,33.306-38.377,59.809-38.377
	c3.06,0,6.065,0.227,9.017,0.633c17.082,2.351,32.086,11.274,42.382,24.136c3.328,4.156,6.157,8.722,8.41,13.609
	c3.855,8.362,6.02,17.655,6.02,27.451c0,6.47,2.817,12.268,7.272,16.285c3.89,3.505,9.023,5.658,14.671,5.658
	c2.487,0,4.868-0.433,7.098-1.195c8.631-2.954,14.845-11.116,14.845-20.748c0-1.874-0.048-3.738-0.143-5.59
	c-0.377-7.488-1.508-14.781-3.321-21.804C214.105,309.168,211.52,302.251,208.308,295.692z"/>
<path id="SVGCleanerId_1" style="fill:#FF0C38;" d="M402.286,234.057c-1.175,0-2.335,0.053-3.501,0.089
	c-0.271,0.009-0.546,0.01-0.818,0.02c-7.3,0.284-14.414,1.289-21.283,2.937c-4.699,1.128-9.277,2.556-13.72,4.267
	c-2.374,0.914-4.709,1.905-7,2.977c-10.373,4.852-19.863,11.273-28.169,18.966c-0.761,0.707-1.514,1.425-2.257,2.152
	c-8.303,8.139-15.309,17.585-20.705,27.999c-4.07,7.851-7.215,16.248-9.296,25.057c-1.919,8.113-2.965,16.56-2.965,25.249
	c0,9.631,6.214,17.794,14.845,20.748c2.229,0.762,4.611,1.195,7.098,1.195c5.648,0,10.781-2.153,14.671-5.658
	c4.454-4.017,7.272-9.814,7.272-16.285c0-9.795,2.165-19.089,6.02-27.452c1.909-4.141,4.223-8.056,6.912-11.681
	c5.717-7.706,13.072-14.131,21.551-18.742c9.324-5.07,20.006-7.954,31.346-7.954c2.257,0,4.485,0.116,6.685,0.338
	c23.625,2.395,43.584,17.341,53.122,38.039c3.856,8.363,6.021,17.657,6.021,27.452c0,6.47,2.817,12.268,7.272,16.285
	c3.89,3.505,9.023,5.658,14.671,5.658c2.487,0,4.868-0.433,7.098-1.195c8.631-2.954,14.845-11.116,14.845-20.748
	C512,283.275,462.782,234.057,402.286,234.057z"/>
<g>
	<path id="SVGCleanerId_0_1_" style="fill:#FF0C38;" d="M208.308,295.692c-5.996-12.244-14.209-23.205-24.106-32.377
		c-10.141-9.393-22.05-16.887-35.169-21.943c-12.216-4.707-25.465-7.314-39.32-7.314s-27.104,2.607-39.32,7.314
		c-3.269,1.26-6.464,2.67-9.576,4.225c-7.358,3.681-14.256,8.145-20.562,13.316C15.699,279.05,0,309.609,0,343.771
		c0,9.631,6.214,17.794,14.845,20.748c2.229,0.762,4.611,1.195,7.098,1.195c5.648,0,10.781-2.153,14.671-5.658
		c4.454-4.017,7.272-9.814,7.272-16.285c0-9.795,2.165-19.089,6.02-27.452c10.427-22.625,33.306-38.377,59.809-38.377
		c3.06,0,6.065,0.227,9.017,0.633c17.082,2.351,32.086,11.274,42.382,24.136c3.328,4.156,6.157,8.722,8.41,13.609
		c3.855,8.362,6.02,17.655,6.02,27.451c0,6.47,2.817,12.268,7.272,16.285c3.89,3.505,9.023,5.658,14.671,5.658
		c2.487,0,4.868-0.433,7.098-1.195c8.631-2.954,14.845-11.116,14.845-20.748c0-1.874-0.048-3.738-0.143-5.59
		c-0.377-7.488-1.508-14.781-3.321-21.804C214.105,309.168,211.52,302.251,208.308,295.692z"/>
</g>
<g>
	<path id="SVGCleanerId_1_1_" style="fill:#FF0C38;" d="M402.286,234.057c-1.175,0-2.335,0.053-3.501,0.089
		c-0.271,0.009-0.546,0.01-0.818,0.02c-7.3,0.284-14.414,1.289-21.283,2.937c-4.699,1.128-9.277,2.556-13.72,4.267
		c-2.374,0.914-4.709,1.905-7,2.977c-10.373,4.852-19.863,11.273-28.169,18.966c-0.761,0.707-1.514,1.425-2.257,2.152
		c-8.303,8.139-15.309,17.585-20.705,27.999c-4.07,7.851-7.215,16.248-9.296,25.057c-1.919,8.113-2.965,16.56-2.965,25.249
		c0,9.631,6.214,17.794,14.845,20.748c2.229,0.762,4.611,1.195,7.098,1.195c5.648,0,10.781-2.153,14.671-5.658
		c4.454-4.017,7.272-9.814,7.272-16.285c0-9.795,2.165-19.089,6.02-27.452c1.909-4.141,4.223-8.056,6.912-11.681
		c5.717-7.706,13.072-14.131,21.551-18.742c9.324-5.07,20.006-7.954,31.346-7.954c2.257,0,4.485,0.116,6.685,0.338
		c23.625,2.395,43.584,17.341,53.122,38.039c3.856,8.363,6.021,17.657,6.021,27.452c0,6.47,2.817,12.268,7.272,16.285
		c3.89,3.505,9.023,5.658,14.671,5.658c2.487,0,4.868-0.433,7.098-1.195c8.631-2.954,14.845-11.116,14.845-20.748
		C512,283.275,462.782,234.057,402.286,234.057z"/>
</g>
<g>
	<path style="fill:#FFFFFF;" d="M109.714,307.2c-28.232,0-51.2,22.968-51.2,51.2c0,28.232,22.968,51.2,51.2,51.2
		s51.2-22.968,51.2-51.2S137.946,307.2,109.714,307.2z"/>
	<path style="fill:#FFFFFF;" d="M402.286,307.2c-28.232,0-51.2,22.968-51.2,51.2c0,28.232,22.968,51.2,51.2,51.2
		c28.232,0,51.2-22.968,51.2-51.2S430.517,307.2,402.286,307.2z"/>
</g>
<g>
	<path style="fill:#57565C;" d="M182.815,360.056c-4.454-4.017-7.272-9.814-7.272-16.285c0-9.795-2.165-19.089-6.02-27.452
		c-2.253-4.887-5.083-9.453-8.41-13.609c-10.296-12.861-25.3-21.785-42.382-24.136c-2.952-0.405-5.957-0.632-9.017-0.632
		c-26.503,0-49.382,15.752-59.809,38.377c-3.855,8.363-6.02,17.657-6.02,27.452c0,6.47-2.817,12.268-7.272,16.285
		c-3.89,3.505-9.023,5.658-14.671,5.658c-2.487,0-4.868-0.433-7.098-1.195c3.169,49.586,44.496,88.967,94.869,88.967
		s91.701-39.38,94.869-88.967c-2.229,0.762-4.611,1.195-7.098,1.195C191.838,365.714,186.704,363.561,182.815,360.056z
		 M109.714,409.6c-28.232,0-51.2-22.968-51.2-51.2s22.968-51.2,51.2-51.2s51.2,22.968,51.2,51.2
		C160.914,386.632,137.946,409.6,109.714,409.6z"/>
	<path style="fill:#57565C;" d="M475.386,360.056c-4.454-4.017-7.272-9.814-7.272-16.285c0-9.795-2.165-19.089-6.02-27.452
		c-9.539-20.699-29.497-35.645-53.122-38.039c-2.2-0.222-4.428-0.338-6.685-0.338c-11.34,0-22.022,2.883-31.346,7.954
		c-8.48,4.611-15.834,11.036-21.551,18.742c-2.689,3.626-5.003,7.541-6.912,11.681c-3.856,8.363-6.021,17.657-6.021,27.452
		c0,6.47-2.817,12.268-7.272,16.285c-3.89,3.505-9.023,5.658-14.671,5.658c-2.487,0-4.868-0.433-7.098-1.195
		c3.169,49.586,44.496,88.967,94.869,88.967s91.699-39.38,94.869-88.967c-2.229,0.762-4.611,1.195-7.098,1.195
		C484.409,365.714,479.276,363.561,475.386,360.056z M402.286,409.6c-28.232,0-51.2-22.968-51.2-51.2s22.968-51.2,51.2-51.2
		c28.232,0,51.2,22.968,51.2,51.2C453.486,386.632,430.517,409.6,402.286,409.6z"/>
	<path style="fill:#57565C;" d="M53.4,117.029c-12.118,0-21.943,9.825-21.943,21.943c0,12.118,9.825,21.943,21.943,21.943h87.771
		c12.118,0,21.943-9.825,21.943-21.943c0-12.118-9.825-21.943-21.943-21.943H53.4z"/>
	<path style="fill:#57565C;" d="M332.946,101.339c8.824-2.842,15.214-11.112,15.214-20.882c0-2.244-0.339-4.408-0.965-6.447
		c-0.021-0.064-0.042-0.129-0.063-0.193c-0.042-0.132-0.098-0.257-0.143-0.389c-0.195-0.576-0.402-1.145-0.642-1.7
		c-0.102-0.237-0.222-0.459-0.334-0.69c-0.195-0.407-0.386-0.816-0.604-1.208c-0.18-0.329-0.383-0.641-0.579-0.957
		c-0.173-0.276-0.336-0.557-0.522-0.825c-0.247-0.361-0.515-0.704-0.783-1.046c-0.162-0.209-0.319-0.424-0.489-0.626
		c-0.288-0.344-0.595-0.669-0.903-0.993c-0.178-0.189-0.353-0.383-0.538-0.566c-0.3-0.295-0.617-0.572-0.933-0.848
		c-0.221-0.195-0.439-0.394-0.667-0.578c-0.29-0.234-0.591-0.451-0.894-0.669c-0.278-0.203-0.556-0.41-0.846-0.6
		c-0.268-0.177-0.546-0.335-0.821-0.499c-0.339-0.202-0.677-0.405-1.025-0.59c-0.255-0.133-0.518-0.25-0.775-0.373
		c-0.382-0.181-0.758-0.363-1.151-0.522c-0.269-0.11-0.544-0.2-0.818-0.298c-0.388-0.14-0.772-0.282-1.169-0.401
		c-0.334-0.099-0.673-0.176-1.009-0.259c-0.342-0.085-0.68-0.177-1.028-0.246c-0.458-0.091-0.923-0.149-1.388-0.211
		c-0.237-0.032-0.468-0.075-0.708-0.098c-0.613-0.061-1.232-0.086-1.852-0.094c-0.098-0.004-0.195-0.018-0.293-0.018h-0.085h-0.214
		h-43.587c-12.118,0-21.943,9.825-21.943,21.943s9.825,21.943,21.943,21.943h27.901h15.985
		C328.565,102.4,330.822,102.023,332.946,101.339z"/>
</g>
<path style="fill:#EE8700;" d="M394.971,80.457c0,1.893-0.266,3.722-0.717,5.474c-2.434,9.465-11.001,16.469-21.226,16.469H356.34
	l16.688,51.8l4.449,13.805l6.823,21.181c30.944-5.364,54.557-32.389,54.557-64.843c0-36.298-29.529-65.829-65.829-65.829
	C385.147,58.514,394.971,68.339,394.971,80.457z"/>
<g>
</g>
<g>
</g>
<g>
</g>
<g>
</g>
<g>
</g>
<g>
</g>
<g>
</g>
<g>
</g>
<g>
</g>
<g>
</g>
<g>
</g>
<g>
</g>
<g>
</g>
<g>
</g>
<g>
</g>
</svg>
