<?xml version="1.0" encoding="iso-8859-1"?>
<!-- Generator: Adobe Illustrator 19.0.0, SVG Export Plug-In . SVG Version: 6.00 Build 0)  -->
<svg version="1.1" id="Layer_1" xmlns="http://www.w3.org/2000/svg" xmlns:xlink="http://www.w3.org/1999/xlink" x="0px" y="0px"
	 viewBox="0 0 512 512" style="enable-background:new 0 0 512 512;" xml:space="preserve">
<g>
	<g>
		<path d="M105.392,290.133l0.112,5.689c0,21.388,17.4,38.788,38.788,38.788c21.388,0,38.788-17.4,38.788-38.788v-5.689H105.392z"/>
	</g>
</g>
<g>
	<g>
		<path d="M328.921,290.133v5.689c0,21.388,17.4,38.788,38.788,38.788c21.388,0,38.788-17.4,38.788-38.788v-5.689H328.921z"/>
	</g>
</g>
<g>
	<g>
		<path d="M460.8,119.467H329.956V96.711c0-25.095-20.416-45.511-45.511-45.511h-56.889c-25.095,0-45.511,20.416-45.511,45.511
			v22.756H51.2c-28.232,0-51.2,22.968-51.2,51.2V256h512v-85.333C512,142.435,489.032,119.467,460.8,119.467z M216.178,96.711
			c0-6.274,5.104-11.378,11.378-11.378h56.889c6.274,0,11.378,5.104,11.378,11.378v22.756h-79.644V96.711z M329.956,221.867H182.044
			v-34.133h147.911V221.867z"/>
	</g>
</g>
<g>
	<g>
		<path d="M440.63,290.133v5.689c0,2.654-0.152,5.274-0.43,7.855l28.232,14.116l-15.264,30.529l-24.645-12.323
			c-1.933,2.916-4.069,5.684-6.39,8.286l18.809,25.078l-27.307,20.48l-19.546-26.06c-3.013,1.174-6.122,2.154-9.314,2.922v31.516
			H350.64v-31.515c-3.193-0.769-6.3-1.748-9.314-2.922l-19.545,26.06l-27.307-20.48l18.807-25.078
			c-2.321-2.602-4.457-5.371-6.39-8.286l-24.645,12.323l-15.264-30.529l28.232-14.116c-0.279-2.583-0.43-5.201-0.43-7.855v-5.689
			h-77.576v5.689c0,2.654-0.152,5.274-0.43,7.855l28.232,14.116l-15.264,30.529L205.1,336.001c-1.933,2.916-4.07,5.684-6.39,8.286
			l18.807,25.078l-27.307,20.48l-19.545-26.06c-3.013,1.174-6.122,2.154-9.314,2.922v31.515h-34.133v-31.515
			c-3.191-0.769-6.3-1.749-9.314-2.922l-19.546,26.06l-27.307-20.48l18.81-25.08c-2.32-2.602-4.456-5.37-6.389-8.285l-24.648,12.324
			l-15.264-30.529l28.229-14.114c-0.272-2.525-0.42-5.085-0.427-7.678l-0.11-5.87H0V460.8h512V290.133H440.63z"/>
	</g>
</g>
<g>
</g>
<g>
</g>
<g>
</g>
<g>
</g>
<g>
</g>
<g>
</g>
<g>
</g>
<g>
</g>
<g>
</g>
<g>
</g>
<g>
</g>
<g>
</g>
<g>
</g>
<g>
</g>
<g>
</g>
</svg>
