<?xml version="1.0" encoding="iso-8859-1"?>
<!-- Generator: Adobe Illustrator 16.0.0, SVG Export Plug-In . SVG Version: 6.00 Build 0)  -->
<!DOCTYPE svg PUBLIC "-//W3C//DTD SVG 1.1//EN" "http://www.w3.org/Graphics/SVG/1.1/DTD/svg11.dtd">
<svg version="1.1" id="Capa_1" xmlns="http://www.w3.org/2000/svg" xmlns:xlink="http://www.w3.org/1999/xlink" x="0px" y="0px"
	 width="958.109px" height="958.109px" viewBox="0 0 958.109 958.109" style="enable-background:new 0 0 958.109 958.109;"
	 xml:space="preserve">
<g>
	<path d="M297.604,574.681v-361.9c0-15.8,8.6-30.9,23.6-41.5c12-8.4,27.101-13.2,41.4-13.2c9.5,0,19.6,3,28.9,8.3v-0.4
		c0-15.8,8.6-30.9,23.6-41.5c12-8.4,27.1-13.2,41.4-13.2c14.199,0,28,4.8,39.699,13.9l0.101,0.1l0.1,0.1c6.9,5.5,15,14.7,17.8,29.3
		c10.9-6.3,23.601-9.8,35.801-9.8c12.8,0,26.5,4.9,37.6,13.5c13.7,10.6,21.5,25.6,21.5,41.2v36.5c8.6-4.5,18.5-6.9,28.6-6.9
		c14.7,0,28.8,5.3,39.8,14.9c11.9,10.4,18.7,24.9,18.7,39.9v286.9c100-41.101,187.8-111.5,254.101-202.101
		c9.5-12.899,10.399-30.2,2.3-44c-97-167.3-263.8-281.6-458.3-291.8c-194.601-10.3-372.4,85.8-486.5,241.9
		c-9.5,12.9-10.4,30.2-2.3,44C73.504,435.881,175.705,526.981,297.604,574.681z"/>
	<path d="M373.505,925.881h253.1c13.3,0,24-10.7,24-24v-102.5h0.2c15.6-13.4,20.399-38.5,20.399-60.601v-158.5v-296.4
		c0-16.4-15.8-29.7-33.5-29.7c-18.8,0-33.5,13.3-33.5,29.7v156.2c0,5.5-4.3,10.301-9.8,10.4c-0.1,0-0.1,0-0.2,0
		c-6.199,0-10.1-5-10.1-11.1v-239.8c0-17.6-20.1-29.7-34.1-29.7c-18.801,0-39.601,13.3-39.601,29.7v240.5c0,5.5-4.3,10.301-9.8,10.4
		c-0.1,0-0.1,0-0.2,0c-6.2,0-10.1-5-10.1-11.1v-273.3c0-8.2-2.4-15.6-9.3-21c-6.9-5.3-15.101-8.7-24.4-8.7c-18.8,0-40,13.3-40,29.7
		v274c0,5.5-4.3,10.301-9.8,10.4c-0.1,0-0.1,0-0.2,0c-6.2,0-10.1-5-10.1-11.1V212.781c0-16.1-20.101-29.7-33.8-29.7
		c-18.801,0-40,13.3-40,29.7v370.9v18.5c0,13.399-5.7,24.5-19.601,24.5c-11.399,0-19-7.9-20.4-19.2c-0.2-1.5-0.9-9.9-0.9-9.9
		s-28.9-5.1-66.4-31.1v76.2c0,11.8,2.7,32.2,22.8,52.3l109.4,100.1c0.601,0.601,1.2,3.5,2,4.101v102.7
		C349.505,915.181,360.305,925.881,373.505,925.881z"/>
</g>
<g>
</g>
<g>
</g>
<g>
</g>
<g>
</g>
<g>
</g>
<g>
</g>
<g>
</g>
<g>
</g>
<g>
</g>
<g>
</g>
<g>
</g>
<g>
</g>
<g>
</g>
<g>
</g>
<g>
</g>
</svg>
