<?xml version="1.0" encoding="iso-8859-1"?>
<!-- Generator: Adobe Illustrator 16.0.0, SVG Export Plug-In . SVG Version: 6.00 Build 0)  -->
<!DOCTYPE svg PUBLIC "-//W3C//DTD SVG 1.1//EN" "http://www.w3.org/Graphics/SVG/1.1/DTD/svg11.dtd">
<svg version="1.1" id="Capa_1" xmlns="http://www.w3.org/2000/svg" xmlns:xlink="http://www.w3.org/1999/xlink" x="0px" y="0px"
	 width="931.7px" height="931.7px" viewBox="0 0 931.7 931.7" style="enable-background:new 0 0 931.7 931.7;" xml:space="preserve"
	>
<g>
	<g>
		<path d="M296,239.5c17.7-0.2,22.3-45.4,23.7-58.2c2.899-27.5-2.7-55-15-79.7c-22.9-46.2-71-81.9-123.6-84.6
			c-18.7-1-24.3,40.6-26,54c-3.4,28,2,56.6,14.2,81.9C191.6,198.7,242.7,240,296,239.5z"/>
		<path d="M524.8,683.2c0.2,0,0.3,0,0.5,0v-81.5h-119v81.5c0.2,0,0.3,0,0.5,0H524.8z"/>
		<path d="M238.7,894.2c0,20.7,16.8,37.5,37.5,37.5h379.3c20.7,0,37.5-16.8,37.5-37.5s-16.8-37.5-37.5-37.5h-90.7
			c0.101-0.8,0.101-1.7,0.101-2.5v-106c0-21.9-17.601-39.7-39.5-40c-0.2,0-0.301,0-0.5,0h-118c-0.2,0-0.301,0-0.5,0
			c-21.9,0.3-39.5,18.1-39.5,40v106c0,0.8,0,1.7,0.1,2.5h-90.7C255.5,856.7,238.7,873.4,238.7,894.2z"/>
		<path d="M103.2,576.7h303.2h118.8h303.3c42.7,0,77.5-34.8,77.5-77.5V37.5C906,16.8,889.2,0,868.5,0S831,16.8,831,37.5v461.7
			c0,1.4-1.1,2.5-2.5,2.5H103.2c-1.4,0-2.5-1.1-2.5-2.5V37.5C100.7,16.8,83.9,0,63.2,0C42.5,0,25.7,16.8,25.7,37.5v461.7
			C25.7,542,60.4,576.7,103.2,576.7z"/>
	</g>
</g>
<g>
</g>
<g>
</g>
<g>
</g>
<g>
</g>
<g>
</g>
<g>
</g>
<g>
</g>
<g>
</g>
<g>
</g>
<g>
</g>
<g>
</g>
<g>
</g>
<g>
</g>
<g>
</g>
<g>
</g>
</svg>
