<?xml version="1.0" encoding="iso-8859-1"?>
<!-- Generator: Adobe Illustrator 19.1.0, SVG Export Plug-In . SVG Version: 6.00 Build 0)  -->
<svg version="1.1" id="Capa_1" xmlns="http://www.w3.org/2000/svg" xmlns:xlink="http://www.w3.org/1999/xlink" x="0px" y="0px"
	 viewBox="0 0 461.564 461.564" style="enable-background:new 0 0 461.564 461.564;" xml:space="preserve">
<g>
	<polygon style="fill:#F48438;" points="387.017,314.036 387.016,278.547 353.615,320.845 347.902,295.277 349.893,306.436 
		346.127,285.326 324.928,288.835 316.44,269.118 296.375,276.806 284.468,258.931 265.958,269.844 251.407,254.039 
		234.722,267.583 218.04,254.039 203.49,269.844 184.978,258.931 173.071,276.805 153.005,269.118 144.516,288.835 123.317,285.326 
		119.551,306.437 98.195,308.719 105.456,292.211 82.428,278.548 82.429,375.547 101.299,385.712 98.197,406.886 119.552,409.167 
		123.318,430.277 144.517,426.768 153.005,446.485 173.07,438.797 184.977,456.672 203.487,445.759 218.038,461.564 234.722,448.02 
		251.405,461.564 265.955,445.759 284.466,456.672 296.374,438.798 316.44,446.485 324.929,426.768 346.128,430.276 
		349.894,409.166 371.25,406.884 368.147,385.71 387.017,375.545 	"/>
	<polygon style="fill:#46B9CC;" points="375.078,296.292 387.016,278.547 368.146,268.382 371.248,247.208 349.893,244.926 
		346.127,223.816 324.928,227.325 316.44,207.608 296.375,215.296 284.468,197.422 265.958,208.335 251.407,192.53 234.722,206.073 
		218.04,192.529 203.49,208.334 184.978,197.421 173.071,215.296 153.005,207.608 144.516,227.325 123.317,223.817 119.551,244.928 
		98.195,247.21 101.298,268.384 82.428,278.548 94.367,296.292 82.429,314.037 101.299,324.202 98.197,345.376 119.552,347.658 
		123.318,368.768 144.517,365.259 153.005,384.976 173.07,377.288 184.977,395.162 203.487,384.249 218.038,400.054 
		234.722,386.511 251.405,400.055 265.955,384.25 284.466,395.162 296.374,377.288 316.44,384.976 324.929,365.258 346.128,368.767 
		349.894,347.656 371.25,345.374 368.147,324.2 387.017,314.036 	"/>
	<path style="fill:#46B9CC;" d="M212.525,0c-14.118,0-28.229,0.977-42.172,3.196C68.341,19.427,45.678,83.199,49.732,124.95
		c3.09,31.827,36.974,86.698,87.972,54.827c51.382-32.11,134.775-32.11,186.157,0c50.998,31.871,84.882-23,87.972-54.827
		c4.053-41.751-18.609-105.523-120.622-121.754C277.268,0.977,263.157,0,249.039,0L212.525,0z"/>
	<path style="fill:#FFFFFF;" d="M246.364,330.257L246.364,330.257c-7.167,4.293-16.116,4.293-23.283,0l0,0
		c-45.447-27.22-75.764-73.915-82.135-126.505l-5.808-47.942C127.9,96.063,174.538,43.435,234.722,43.435h0
		c60.185,0,106.822,52.628,99.584,112.376l-5.808,47.942C322.128,256.343,291.811,303.037,246.364,330.257z"/>
	<path style="fill:#F2D24C;" d="M234.722,43.435L234.722,43.435c-47.235,0-86.118,32.418-97.169,75.252h0
		c8.291,4.146,18.166,3.542,25.891-1.582l0,0c43.199-28.654,99.357-28.654,142.555,0l0,0c7.725,5.124,17.6,5.727,25.891,1.582l0,0
		C320.841,75.853,281.957,43.435,234.722,43.435z"/>
	<path style="fill:#F48438;" d="M284.875,147.55h-10.801c-5.426,0-23.183,0-40.632,0c-16.596,0-32.912,0-38.072,0H184.57
		c-25.483,0-46.14,20.658-46.14,46.14v0c0,25.483,20.658,46.14,46.14,46.14h9.163c7.909,0,15.372-3.661,20.212-9.916l0.566-0.732
		c4.84-6.254,12.303-9.916,20.212-9.916h0c7.909,0,15.372,3.661,20.212,9.916l0.566,0.732c4.84,6.254,12.303,9.916,20.212,9.916
		h9.163c25.483,0,46.14-20.658,46.14-46.14v0C331.015,168.207,310.358,147.55,284.875,147.55z"/>
	<g>
		<g>
			<path style="fill:#FFFFFF;" d="M203.925,204.651c2.491-0.341,4.221-2.661,3.896-5.154v0c-1.159-8.904-8.966-15.402-17.934-14.965
				c-7.579,0.37-18.102,1.842-19.212-2.15C174.771,197.121,186.742,207.006,203.925,204.651z"/>
		</g>
		<g>
			<path style="fill:#FFFFFF;" d="M265.52,204.651c-2.491-0.341-4.221-2.661-3.896-5.154v0c1.159-8.904,8.966-15.402,17.934-14.965
				c7.579,0.37,18.102,1.842,19.212-2.15C294.674,197.121,282.703,207.006,265.52,204.651z"/>
		</g>
	</g>
	<path style="fill:#DD7F3E;" d="M243.313,266.12c-4.745,0-8.591,3.846-8.591,8.591c0-4.745-3.846-8.591-8.591-8.591
		s-8.591,3.846-8.591,8.591v2.868c0,9.489,7.692,17.182,17.182,17.182s17.182-7.693,17.182-17.182v-2.868
		C251.904,269.966,248.058,266.12,243.313,266.12z"/>
</g>
<g>
</g>
<g>
</g>
<g>
</g>
<g>
</g>
<g>
</g>
<g>
</g>
<g>
</g>
<g>
</g>
<g>
</g>
<g>
</g>
<g>
</g>
<g>
</g>
<g>
</g>
<g>
</g>
<g>
</g>
</svg>
