<?xml version="1.0" encoding="iso-8859-1"?>
<!-- Generator: Adobe Illustrator 19.0.0, SVG Export Plug-In . SVG Version: 6.00 Build 0)  -->
<svg version="1.1" id="Layer_1" xmlns="http://www.w3.org/2000/svg" xmlns:xlink="http://www.w3.org/1999/xlink" x="0px" y="0px"
	 viewBox="0 0 512 512" style="enable-background:new 0 0 512 512;" xml:space="preserve">
<g>
	<g>
		<g>
			<path d="M330.667,213.333c-5.888,0-10.667,4.779-10.667,10.667s4.779,10.667,10.667,10.667s10.667,4.779,10.667,10.667
				S336.555,256,330.667,256S320,260.779,320,266.667s4.779,10.667,10.667,10.667c17.643,0,32-14.357,32-32
				C362.667,227.691,348.309,213.333,330.667,213.333z"/>
			<path d="M256,0C114.837,0,0,114.837,0,256s114.837,256,256,256s256-114.837,256-256S397.163,0,256,0z M256,490.667
				c-129.387,0-234.667-105.28-234.667-234.667c0-60.864,23.488-116.203,61.611-157.952l72.619,72.619h-16.896
				C97.493,170.667,64,204.16,64,245.333c0,29.973,17.856,55.68,43.371,67.563c0.512,1.451,1.28,2.816,2.432,3.968l18.219,18.219
				v51.477c0,13.099,6.507,25.28,16.171,31.573l29.995,27.115c2.027,1.835,4.587,2.752,7.147,2.752c2.731,0,5.461-1.045,7.552-3.115
				l10.667-10.667c6.656-6.677,13.781-17.771,13.781-28.885v-4.907c0-10.432-4.075-20.267-10.88-26.901
				c-0.491-1.088-0.747-5.056,0-8.789L211.392,320h9.899l90.496,49.365C320.576,378.816,330.56,384,341.333,384
				c7.104,0,14.08-2.475,20.629-6.933l51.989,51.989C372.203,467.179,316.864,490.667,256,490.667z M146.219,323.115L143.104,320
				h46.549l-8.107,40.555c-0.875,4.309-3.051,19.008,5.248,27.328c3.349,3.371,5.205,7.829,5.205,12.565v4.885
				c0,3.563-3.243,9.493-7.552,13.781l-3.52,3.52l-23.68-21.291c-4.949-3.285-7.915-8.832-7.915-14.784v-55.893
				C149.333,327.829,148.203,325.12,146.219,323.115z M138.667,298.667c-29.397,0-53.333-23.936-53.333-53.333
				S109.269,192,138.667,192h38.229l104.96,104.96c2.432,13.803,5.739,26.219,9.771,37.099l-62.528-34.112
				c-1.557-0.832-3.328-1.28-5.099-1.28H138.667z M311.424,326.528l35.051,35.051c-1.003,0.427-2.048,0.576-3.072,0.747
				L324.8,352.171C320.064,346.155,315.499,337.664,311.424,326.528z M429.035,413.973l-58.731-58.731
				c-0.043-0.043-0.043-0.085-0.085-0.128l-70.997-70.997c-0.021-0.021-0.064-0.021-0.085-0.043L188.928,173.845
				c-0.043-0.021-0.085-0.064-0.107-0.107L98.027,82.965C139.776,44.821,195.136,21.333,256,21.333
				c129.387,0,234.667,105.28,234.667,234.667C490.667,316.864,467.179,372.224,429.035,413.973z"/>
			<path d="M346.389,107.179c-3.115-1.707-6.912-1.984-10.219-0.149l-1.643,0.917c-7.104,1.515-13.781,5.205-19.925,11.029
				l-84.373,46.72c-5.141,2.859-7.019,9.344-4.16,14.507c1.941,3.52,5.589,5.504,9.344,5.504c1.749,0,3.52-0.427,5.163-1.344
				l51.243-28.373c-7.381,19.563-12.373,43.883-13.909,71.616c-0.341,5.888,4.16,10.923,10.048,11.243
				c5.675,0.405,10.923-4.181,11.243-10.048c2.453-44.032,14.421-77.291,27.541-92.139l15.275-8.448
				C361.963,129.28,384,178.901,384,245.333c0,27.243-3.669,53.056-10.581,74.667c-1.792,5.589,1.301,11.605,6.912,13.397
				c1.067,0.341,2.176,0.512,3.243,0.512c4.523,0,8.725-2.88,10.176-7.403c7.573-23.68,11.584-51.755,11.584-81.173
				C405.333,169.984,380.331,112.448,346.389,107.179z"/>
		</g>
	</g>
</g>
<g>
</g>
<g>
</g>
<g>
</g>
<g>
</g>
<g>
</g>
<g>
</g>
<g>
</g>
<g>
</g>
<g>
</g>
<g>
</g>
<g>
</g>
<g>
</g>
<g>
</g>
<g>
</g>
<g>
</g>
</svg>
