<?xml version="1.0" encoding="iso-8859-1"?>
<!-- Generator: Adobe Illustrator 19.0.0, SVG Export Plug-In . SVG Version: 6.00 Build 0)  -->
<svg version="1.1" id="Layer_1" xmlns="http://www.w3.org/2000/svg" xmlns:xlink="http://www.w3.org/1999/xlink" x="0px" y="0px"
	 viewBox="0 0 512 512" style="enable-background:new 0 0 512 512;" xml:space="preserve">
<g transform="translate(0 1)">
	<polygon style="fill:#F9373E;" points="34.133,498.2 477.867,498.2 477.867,11.8 34.133,11.8 	"/>
	<polygon style="fill:#D9283E;" points="477.867,498.2 503.467,498.2 503.467,11.8 477.867,11.8 	"/>
	<polygon style="fill:#FFFFFF;" points="8.533,498.2 34.133,498.2 34.133,11.8 8.533,11.8 	"/>
	<path id="SVGCleanerId_0" d="M512,506.733H0v-384c0-5.12,3.413-8.533,8.533-8.533s8.533,3.413,8.533,8.533v366.933h477.867v-76.8
		c0-5.12,3.413-8.533,8.533-8.533c5.12,0,8.533,3.413,8.533,8.533V506.733z"/>
	<path id="SVGCleanerId_1" d="M503.467,344.6c-5.12,0-8.533-3.413-8.533-8.533V20.333H17.067v34.133c0,5.12-3.413,8.533-8.533,8.533
		S0,59.587,0,54.467v-51.2h512v332.8C512,341.187,508.587,344.6,503.467,344.6z"/>
	<path id="SVGCleanerId_2" d="M17.067,88.6c0-5.12-3.413-8.533-8.533-8.533S0,83.48,0,88.6s3.413,8.533,8.533,8.533
		S17.067,93.72,17.067,88.6"/>
	<path id="SVGCleanerId_3" d="M503.467,387.267c-5.12,0-8.533-3.413-8.533-8.533V370.2c0-5.12,3.413-8.533,8.533-8.533
		c5.12,0,8.533,3.413,8.533,8.533v8.533C512,383.853,508.587,387.267,503.467,387.267z"/>
	<path id="SVGCleanerId_4" style="fill:#FFE100;" d="M401.067,88.6L401.067,88.6H110.933h-0.853
		c-8.533,0-16.213,6.827-16.213,16.213v26.453c0,9.387,7.68,17.067,17.067,17.067S128,140.653,128,131.267v-8.533h110.933V395.8
		h-25.6c-9.387,0-17.067,7.68-17.067,17.067s7.68,17.067,17.067,17.067h85.333c9.387,0,17.067-7.68,17.067-17.067
		s-7.68-17.067-17.067-17.067h-25.6V122.733H384v8.533c0,9.387,7.68,17.067,17.067,17.067s17.067-7.68,17.067-17.067v-26.453
		c0-8.533-6.827-16.213-16.213-16.213H401.067z"/>
	<path id="SVGCleanerId_5" d="M298.667,438.467h-85.333c-14.507,0-25.6-11.093-25.6-25.6c0-14.507,11.093-25.6,25.6-25.6H230.4v-256
		h-93.867c0,14.507-11.093,25.6-25.6,25.6s-25.6-11.093-25.6-25.6v-26.453c0-13.653,11.093-24.747,24.747-24.747h292.693
		c13.653,0,24.747,11.093,24.747,24.747v26.453c0,14.507-11.093,25.6-25.6,25.6s-25.6-11.093-25.6-25.6H281.6v256h17.067
		c14.507,0,25.6,11.093,25.6,25.6C324.267,427.373,313.173,438.467,298.667,438.467z M213.333,404.333
		c-5.12,0-8.533,3.413-8.533,8.533c0,5.12,3.413,8.533,8.533,8.533h85.333c5.12,0,8.533-3.413,8.533-8.533
		c0-5.12-3.413-8.533-8.533-8.533h-34.133V114.2h128v17.067c0,5.12,3.413,8.533,8.533,8.533s8.533-3.413,8.533-8.533v-26.453
		c0-4.267-3.413-7.68-7.68-7.68H110.08c-4.267,0-7.68,3.413-7.68,7.68v26.453c0,5.12,3.413,8.533,8.533,8.533
		s8.533-3.413,8.533-8.533V114.2h128v290.133H213.333z"/>
	<polygon style="fill:#F9373E;" points="34.133,498.2 477.867,498.2 477.867,11.8 34.133,11.8 	"/>
	<polygon style="fill:#D9283E;" points="477.867,498.2 503.467,498.2 503.467,11.8 477.867,11.8 	"/>
	<polygon style="fill:#FFFFFF;" points="8.533,498.2 34.133,498.2 34.133,11.8 8.533,11.8 	"/>
	<g>
		<path id="SVGCleanerId_0_1_" d="M512,506.733H0v-384c0-5.12,3.413-8.533,8.533-8.533s8.533,3.413,8.533,8.533v366.933h477.867
			v-76.8c0-5.12,3.413-8.533,8.533-8.533c5.12,0,8.533,3.413,8.533,8.533V506.733z"/>
	</g>
	<g>
		<path id="SVGCleanerId_1_1_" d="M503.467,344.6c-5.12,0-8.533-3.413-8.533-8.533V20.333H17.067v34.133
			c0,5.12-3.413,8.533-8.533,8.533S0,59.587,0,54.467v-51.2h512v332.8C512,341.187,508.587,344.6,503.467,344.6z"/>
	</g>
	<g>
		<path id="SVGCleanerId_2_1_" d="M17.067,88.6c0-5.12-3.413-8.533-8.533-8.533S0,83.48,0,88.6s3.413,8.533,8.533,8.533
			S17.067,93.72,17.067,88.6"/>
	</g>
	<g>
		<path id="SVGCleanerId_3_1_" d="M503.467,387.267c-5.12,0-8.533-3.413-8.533-8.533V370.2c0-5.12,3.413-8.533,8.533-8.533
			c5.12,0,8.533,3.413,8.533,8.533v8.533C512,383.853,508.587,387.267,503.467,387.267z"/>
	</g>
	<g>
		<path id="SVGCleanerId_4_1_" style="fill:#FFE100;" d="M401.067,88.6L401.067,88.6H110.933h-0.853
			c-8.533,0-16.213,6.827-16.213,16.213v26.453c0,9.387,7.68,17.067,17.067,17.067S128,140.653,128,131.267v-8.533h110.933V395.8
			h-25.6c-9.387,0-17.067,7.68-17.067,17.067s7.68,17.067,17.067,17.067h85.333c9.387,0,17.067-7.68,17.067-17.067
			s-7.68-17.067-17.067-17.067h-25.6V122.733H384v8.533c0,9.387,7.68,17.067,17.067,17.067s17.067-7.68,17.067-17.067v-26.453
			c0-8.533-6.827-16.213-16.213-16.213H401.067z"/>
	</g>
	<g>
		<path id="SVGCleanerId_5_1_" d="M298.667,438.467h-85.333c-14.507,0-25.6-11.093-25.6-25.6c0-14.507,11.093-25.6,25.6-25.6H230.4
			v-256h-93.867c0,14.507-11.093,25.6-25.6,25.6s-25.6-11.093-25.6-25.6v-26.453c0-13.653,11.093-24.747,24.747-24.747h292.693
			c13.653,0,24.747,11.093,24.747,24.747v26.453c0,14.507-11.093,25.6-25.6,25.6s-25.6-11.093-25.6-25.6H281.6v256h17.067
			c14.507,0,25.6,11.093,25.6,25.6C324.267,427.373,313.173,438.467,298.667,438.467z M213.333,404.333
			c-5.12,0-8.533,3.413-8.533,8.533c0,5.12,3.413,8.533,8.533,8.533h85.333c5.12,0,8.533-3.413,8.533-8.533
			c0-5.12-3.413-8.533-8.533-8.533h-34.133V114.2h128v17.067c0,5.12,3.413,8.533,8.533,8.533s8.533-3.413,8.533-8.533v-26.453
			c0-4.267-3.413-7.68-7.68-7.68H110.08c-4.267,0-7.68,3.413-7.68,7.68v26.453c0,5.12,3.413,8.533,8.533,8.533
			s8.533-3.413,8.533-8.533V114.2h128v290.133H213.333z"/>
	</g>
</g>
<g>
</g>
<g>
</g>
<g>
</g>
<g>
</g>
<g>
</g>
<g>
</g>
<g>
</g>
<g>
</g>
<g>
</g>
<g>
</g>
<g>
</g>
<g>
</g>
<g>
</g>
<g>
</g>
<g>
</g>
</svg>
