<?xml version="1.0" encoding="iso-8859-1"?>
<!-- Generator: Adobe Illustrator 19.0.0, SVG Export Plug-In . SVG Version: 6.00 Build 0)  -->
<svg version="1.1" id="Layer_1" xmlns="http://www.w3.org/2000/svg" xmlns:xlink="http://www.w3.org/1999/xlink" x="0px" y="0px"
	 viewBox="0 0 512 512" style="enable-background:new 0 0 512 512;" xml:space="preserve">
<g transform="translate(1 1)">
	<g>
		<path style="fill:#FFE100;" d="M493.933,502.467H485.4c-5.12,0-8.533-3.413-8.533-8.533c0-5.12,3.413-8.533,8.533-8.533
			c0-5.12,3.413-8.533,8.533-8.533c5.12,0,8.533,3.413,8.533,8.533v8.533C502.467,499.053,499.053,502.467,493.933,502.467z"/>
		<path style="fill:#FFE100;" d="M449.56,502.467h-17.92c-5.12,0-8.533-3.413-8.533-8.533c0-5.12,3.413-8.533,8.533-8.533h17.92
			c5.12,0,8.533,3.413,8.533,8.533C458.093,499.053,454.68,502.467,449.56,502.467z M396.653,502.467h-17.92
			c-5.12,0-8.533-3.413-8.533-8.533c0-5.12,3.413-8.533,8.533-8.533h17.92c5.12,0,8.533,3.413,8.533,8.533
			C405.187,499.053,401.773,502.467,396.653,502.467z"/>
		<path style="fill:#FFE100;" d="M343.747,502.467h-17.92c-5.12,0-8.533-3.413-8.533-8.533c0-5.12,3.413-8.533,8.533-8.533h17.92
			c5.12,0,8.533,3.413,8.533,8.533C352.28,499.053,348.013,502.467,343.747,502.467z M290.84,502.467h-17.92
			c-5.12,0-8.533-3.413-8.533-8.533c0-5.12,3.413-8.533,8.533-8.533h17.92c5.12,0,8.533,3.413,8.533,8.533
			C299.373,499.053,295.107,502.467,290.84,502.467z M237.08,502.467h-17.92c-5.12,0-8.533-3.413-8.533-8.533
			c0-5.12,3.413-8.533,8.533-8.533h17.92c5.12,0,8.533,3.413,8.533,8.533C245.613,499.053,242.2,502.467,237.08,502.467z
			 M184.173,502.467h-17.92c-5.12,0-8.533-3.413-8.533-8.533c0-5.12,3.413-8.533,8.533-8.533h17.92c5.12,0,8.533,3.413,8.533,8.533
			C192.707,499.053,188.44,502.467,184.173,502.467z M131.267,502.467h-17.92c-5.12,0-8.533-3.413-8.533-8.533
			c0-5.12,3.413-8.533,8.533-8.533h17.92c5.12,0,8.533,3.413,8.533,8.533C139.8,499.053,135.533,502.467,131.267,502.467z
			 M77.507,502.467H60.44c-5.12,0-8.533-3.413-8.533-8.533c0-5.12,3.413-8.533,8.533-8.533h17.92c5.12,0,8.533,3.413,8.533,8.533
			C86.893,499.053,82.627,502.467,77.507,502.467z"/>
		<path style="fill:#FFE100;" d="M24.6,502.467h-8.533c-5.12,0-8.533-3.413-8.533-8.533V485.4c0-5.12,3.413-8.533,8.533-8.533
			S24.6,480.28,24.6,485.4c5.12,0,8.533,3.413,8.533,8.533C33.133,499.053,29.72,502.467,24.6,502.467z"/>
		<path style="fill:#FFE100;" d="M16.067,458.093c-5.12,0-8.533-3.413-8.533-8.533v-17.92c0-5.12,3.413-8.533,8.533-8.533
			s8.533,3.413,8.533,8.533v17.92C24.6,454.68,21.187,458.093,16.067,458.093z M16.067,405.187c-5.12,0-8.533-3.413-8.533-8.533
			v-17.92c0-5.12,3.413-8.533,8.533-8.533s8.533,3.413,8.533,8.533v17.92C24.6,401.773,21.187,405.187,16.067,405.187z"/>
		<path style="fill:#FFE100;" d="M16.067,352.28c-5.12,0-8.533-3.413-8.533-8.533v-17.92c0-5.12,3.413-8.533,8.533-8.533
			s8.533,3.413,8.533,8.533v17.92C24.6,348.013,21.187,352.28,16.067,352.28z M16.067,299.373c-5.12,0-8.533-3.413-8.533-8.533
			v-17.92c0-5.12,3.413-8.533,8.533-8.533S24.6,267.8,24.6,272.92v17.92C24.6,295.107,21.187,299.373,16.067,299.373z
			 M16.067,245.613c-5.12,0-8.533-3.413-8.533-8.533v-17.92c0-5.12,3.413-8.533,8.533-8.533s8.533,3.413,8.533,8.533v17.92
			C24.6,242.2,21.187,245.613,16.067,245.613z M16.067,192.707c-5.12,0-8.533-3.413-8.533-8.533v-17.92
			c0-5.12,3.413-8.533,8.533-8.533s8.533,3.413,8.533,8.533v17.92C24.6,188.44,21.187,192.707,16.067,192.707z M16.067,139.8
			c-5.12,0-8.533-3.413-8.533-8.533v-17.92c0-5.12,3.413-8.533,8.533-8.533s8.533,3.413,8.533,8.533v17.92
			C24.6,135.533,21.187,139.8,16.067,139.8z M16.067,86.04c-5.12,0-8.533-3.413-8.533-8.533V60.44c0-5.12,3.413-8.533,8.533-8.533
			S24.6,55.32,24.6,60.44v17.92C24.6,82.627,21.187,86.04,16.067,86.04z"/>
		<path style="fill:#FFE100;" d="M16.067,33.133c-5.12,0-8.533-3.413-8.533-8.533v-8.533c0-5.12,3.413-8.533,8.533-8.533H24.6
			c5.12,0,8.533,3.413,8.533,8.533S29.72,24.6,24.6,24.6C24.6,29.72,21.187,33.133,16.067,33.133z"/>
		<path style="fill:#FFE100;" d="M131.267,24.6h-17.92c-5.12,0-8.533-3.413-8.533-8.533s3.413-8.533,8.533-8.533h17.92
			c5.12,0,8.533,3.413,8.533,8.533S135.533,24.6,131.267,24.6z M77.507,24.6H60.44c-5.12,0-8.533-3.413-8.533-8.533
			s3.413-8.533,8.533-8.533h17.92c5.12,0,8.533,3.413,8.533,8.533S82.627,24.6,77.507,24.6z"/>
		<path style="fill:#FFE100;" d="M449.56,24.6h-17.92c-5.12,0-8.533-3.413-8.533-8.533s3.413-8.533,8.533-8.533h17.92
			c5.12,0,8.533,3.413,8.533,8.533S454.68,24.6,449.56,24.6z M396.653,24.6h-17.92c-5.12,0-8.533-3.413-8.533-8.533
			s3.413-8.533,8.533-8.533h17.92c5.12,0,8.533,3.413,8.533,8.533S401.773,24.6,396.653,24.6z M343.747,24.6h-17.92
			c-5.12,0-8.533-3.413-8.533-8.533s3.413-8.533,8.533-8.533h17.92c5.12,0,8.533,3.413,8.533,8.533S348.013,24.6,343.747,24.6z
			 M290.84,24.6h-17.92c-5.12,0-8.533-3.413-8.533-8.533s3.413-8.533,8.533-8.533h17.92c5.12,0,8.533,3.413,8.533,8.533
			S295.107,24.6,290.84,24.6z M237.08,24.6h-17.92c-5.12,0-8.533-3.413-8.533-8.533s3.413-8.533,8.533-8.533h17.92
			c5.12,0,8.533,3.413,8.533,8.533S242.2,24.6,237.08,24.6z M184.173,24.6h-17.92c-5.12,0-8.533-3.413-8.533-8.533
			s3.413-8.533,8.533-8.533h17.92c5.12,0,8.533,3.413,8.533,8.533S188.44,24.6,184.173,24.6z"/>
		<path style="fill:#FFE100;" d="M493.933,33.133c-5.12,0-8.533-3.413-8.533-8.533c-5.12,0-8.533-3.413-8.533-8.533
			s3.413-8.533,8.533-8.533h8.533c5.12,0,8.533,3.413,8.533,8.533V24.6C502.467,29.72,499.053,33.133,493.933,33.133z"/>
		<path style="fill:#FFE100;" d="M493.933,139.8c-5.12,0-8.533-3.413-8.533-8.533v-17.92c0-5.12,3.413-8.533,8.533-8.533
			c5.12,0,8.533,3.413,8.533,8.533v17.92C502.467,135.533,499.053,139.8,493.933,139.8z M493.933,86.04
			c-5.12,0-8.533-3.413-8.533-8.533V60.44c0-5.12,3.413-8.533,8.533-8.533c5.12,0,8.533,3.413,8.533,8.533v17.92
			C502.467,82.627,499.053,86.04,493.933,86.04z"/>
		<path style="fill:#FFE100;" d="M493.933,458.093c-5.12,0-8.533-3.413-8.533-8.533v-17.92c0-5.12,3.413-8.533,8.533-8.533
			c5.12,0,8.533,3.413,8.533,8.533v17.92C502.467,454.68,499.053,458.093,493.933,458.093z M493.933,405.187
			c-5.12,0-8.533-3.413-8.533-8.533v-17.92c0-5.12,3.413-8.533,8.533-8.533c5.12,0,8.533,3.413,8.533,8.533v17.92
			C502.467,401.773,499.053,405.187,493.933,405.187z M493.933,352.28c-5.12,0-8.533-3.413-8.533-8.533v-17.92
			c0-5.12,3.413-8.533,8.533-8.533c5.12,0,8.533,3.413,8.533,8.533v17.92C502.467,348.013,499.053,352.28,493.933,352.28z
			 M493.933,299.373c-5.12,0-8.533-3.413-8.533-8.533v-17.92c0-5.12,3.413-8.533,8.533-8.533c5.12,0,8.533,3.413,8.533,8.533v17.92
			C502.467,295.107,499.053,299.373,493.933,299.373z M493.933,245.613c-5.12,0-8.533-3.413-8.533-8.533v-17.92
			c0-5.12,3.413-8.533,8.533-8.533c5.12,0,8.533,3.413,8.533,8.533v17.92C502.467,242.2,499.053,245.613,493.933,245.613z
			 M493.933,192.707c-5.12,0-8.533-3.413-8.533-8.533v-17.92c0-5.12,3.413-8.533,8.533-8.533c5.12,0,8.533,3.413,8.533,8.533v17.92
			C502.467,188.44,499.053,192.707,493.933,192.707z"/>
	</g>
	<polygon style="fill:#FF8800;" points="365.933,109.933 391.533,109.933 391.533,7.533 365.933,7.533 	"/>
	<polygon style="fill:#FFE100;" points="33.133,109.933 365.933,109.933 365.933,7.533 33.133,7.533 	"/>
	<path style="fill:#00DA6C;" d="M58.733,58.733c0,14.507-5.973,25.6-12.8,25.6s-12.8-11.093-12.8-25.6s5.973-25.6,12.8-25.6
		C52.76,33.133,58.733,44.227,58.733,58.733"/>
	<path style="fill:#00AD55;" d="M58.733,33.133c-3.413,0-5.973,0.853-8.533,1.707c5.12,3.413,8.533,12.8,8.533,23.893
		S55.32,79.213,50.2,82.627c2.56,0.853,5.12,1.707,8.533,1.707c14.507,0,25.6-11.093,25.6-25.6S73.24,33.133,58.733,33.133"/>
	<path style="fill:#00DA6C;" d="M135.533,58.733c0,14.507-5.973,25.6-12.8,25.6c-6.827,0-12.8-11.093-12.8-25.6
		s5.973-25.6,12.8-25.6C129.56,33.133,135.533,44.227,135.533,58.733"/>
	<path style="fill:#00AD55;" d="M135.533,33.133c-3.413,0-5.973,0.853-8.533,1.707c5.12,3.413,8.533,12.8,8.533,23.893
		S132.12,79.213,127,82.627c2.56,0.853,5.12,1.707,8.533,1.707c14.507,0,25.6-11.093,25.6-25.6S150.04,33.133,135.533,33.133"/>
	<path style="fill:#00DA6C;" d="M212.333,58.733c0,14.507-5.973,25.6-12.8,25.6s-12.8-11.093-12.8-25.6s5.973-25.6,12.8-25.6
		S212.333,44.227,212.333,58.733"/>
	<path style="fill:#00AD55;" d="M212.333,33.133c-3.413,0-5.973,0.853-8.533,1.707c5.12,3.413,8.533,12.8,8.533,23.893
		s-3.413,20.48-8.533,23.893c2.56,0.853,5.12,1.707,8.533,1.707c14.507,0,25.6-11.093,25.6-25.6S226.84,33.133,212.333,33.133"/>
	<polygon style="fill:#FFFFFF;" points="7.533,391.533 33.133,391.533 33.133,7.533 7.533,7.533 	"/>
	<polygon style="fill:#315ED8;" points="365.933,391.533 391.533,391.533 391.533,109.933 365.933,109.933 	"/>
	<polygon style="fill:#3D83F3;" points="33.133,391.533 365.933,391.533 365.933,109.933 33.133,109.933 	"/>
	<path d="M511,511h-17.067c-5.12,0-8.533-3.413-8.533-8.533c0-5.12,3.413-8.533,8.533-8.533c0-5.12,3.413-8.533,8.533-8.533
		c5.12,0,8.533,3.413,8.533,8.533V511z"/>
	<path d="M457.24,511h-18.773c-5.12,0-8.533-3.413-8.533-8.533c0-5.12,3.413-8.533,8.533-8.533h18.773
		c5.12,0,8.533,3.413,8.533,8.533C465.773,507.587,461.507,511,457.24,511z M401.773,511H383c-5.12,0-8.533-3.413-8.533-8.533
		c0-5.12,3.413-8.533,8.533-8.533h18.773c5.12,0,8.533,3.413,8.533,8.533C410.307,507.587,406.893,511,401.773,511z"/>
	<path d="M347.16,511h-18.773c-5.12,0-8.533-3.413-8.533-8.533c0-5.12,3.413-8.533,8.533-8.533h18.773
		c5.12,0,8.533,3.413,8.533,8.533C355.693,507.587,351.427,511,347.16,511z M291.693,511H272.92c-5.12,0-8.533-3.413-8.533-8.533
		c0-5.12,3.413-8.533,8.533-8.533h18.773c5.12,0,8.533,3.413,8.533,8.533C300.227,507.587,296.813,511,291.693,511z M236.227,511
		h-18.773c-5.12,0-8.533-3.413-8.533-8.533c0-5.12,3.413-8.533,8.533-8.533h18.773c5.12,0,8.533,3.413,8.533,8.533
		C244.76,507.587,241.347,511,236.227,511z M181.613,511H162.84c-5.12,0-8.533-3.413-8.533-8.533c0-5.12,3.413-8.533,8.533-8.533
		h18.773c5.12,0,8.533,3.413,8.533,8.533C190.147,507.587,185.88,511,181.613,511z M126.147,511h-18.773
		c-5.12,0-8.533-3.413-8.533-8.533c0-5.12,3.413-8.533,8.533-8.533h18.773c5.12,0,8.533,3.413,8.533,8.533
		C134.68,507.587,131.267,511,126.147,511z M71.533,511H52.76c-5.12,0-8.533-3.413-8.533-8.533c0-5.12,3.413-8.533,8.533-8.533
		h18.773c5.12,0,8.533,3.413,8.533,8.533C80.067,507.587,75.8,511,71.533,511z"/>
	<path d="M16.067,511H-1v-17.067c0-5.12,3.413-8.533,8.533-8.533s8.533,3.413,8.533,8.533c5.12,0,8.533,3.413,8.533,8.533
		C24.6,507.587,21.187,511,16.067,511z"/>
	<path d="M7.533,465.773c-5.12,0-8.533-3.413-8.533-8.533v-18.773c0-5.12,3.413-8.533,8.533-8.533s8.533,3.413,8.533,8.533v18.773
		C16.067,461.507,12.653,465.773,7.533,465.773z M7.533,410.307c-5.12,0-8.533-3.413-8.533-8.533V383
		c0-5.12,3.413-8.533,8.533-8.533s8.533,3.413,8.533,8.533v18.773C16.067,406.893,12.653,410.307,7.533,410.307z"/>
	<path d="M7.533,355.693c-5.12,0-8.533-3.413-8.533-8.533v-18.773c0-5.12,3.413-8.533,8.533-8.533s8.533,3.413,8.533,8.533v18.773
		C16.067,351.427,12.653,355.693,7.533,355.693z M7.533,300.227c-5.12,0-8.533-3.413-8.533-8.533V272.92
		c0-5.12,3.413-8.533,8.533-8.533s8.533,3.413,8.533,8.533v18.773C16.067,296.813,12.653,300.227,7.533,300.227z M7.533,244.76
		c-5.12,0-8.533-3.413-8.533-8.533v-18.773c0-5.12,3.413-8.533,8.533-8.533s8.533,3.413,8.533,8.533v18.773
		C16.067,241.347,12.653,244.76,7.533,244.76z M7.533,190.147c-5.12,0-8.533-3.413-8.533-8.533V162.84
		c0-5.12,3.413-8.533,8.533-8.533s8.533,3.413,8.533,8.533v18.773C16.067,185.88,12.653,190.147,7.533,190.147z M7.533,134.68
		c-5.12,0-8.533-3.413-8.533-8.533v-18.773c0-5.12,3.413-8.533,8.533-8.533s8.533,3.413,8.533,8.533v18.773
		C16.067,131.267,12.653,134.68,7.533,134.68z M7.533,80.067C2.413,80.067-1,76.653-1,71.533V52.76c0-5.12,3.413-8.533,8.533-8.533
		s8.533,3.413,8.533,8.533v18.773C16.067,75.8,12.653,80.067,7.533,80.067z"/>
	<path d="M7.533,24.6C2.413,24.6-1,21.187-1,16.067V-1h17.067c5.12,0,8.533,3.413,8.533,8.533s-3.413,8.533-8.533,8.533
		C16.067,21.187,12.653,24.6,7.533,24.6z"/>
	<path d="M126.147,16.067h-18.773c-5.12,0-8.533-3.413-8.533-8.533S102.253-1,107.373-1h18.773c5.12,0,8.533,3.413,8.533,8.533
		S131.267,16.067,126.147,16.067z M71.533,16.067H52.76c-5.12,0-8.533-3.413-8.533-8.533S47.64-1,52.76-1h18.773
		c5.12,0,8.533,3.413,8.533,8.533S75.8,16.067,71.533,16.067z"/>
	<path d="M457.24,16.067h-18.773c-5.12,0-8.533-3.413-8.533-8.533S433.347-1,438.467-1h18.773c5.12,0,8.533,3.413,8.533,8.533
		S461.507,16.067,457.24,16.067z M401.773,16.067H383c-5.12,0-8.533-3.413-8.533-8.533S377.88-1,383-1h18.773
		c5.12,0,8.533,3.413,8.533,8.533S406.893,16.067,401.773,16.067z M347.16,16.067h-18.773c-5.12,0-8.533-3.413-8.533-8.533
		S323.267-1,328.387-1h18.773c5.12,0,8.533,3.413,8.533,8.533S351.427,16.067,347.16,16.067z M291.693,16.067H272.92
		c-5.12,0-8.533-3.413-8.533-8.533S267.8-1,272.92-1h18.773c5.12,0,8.533,3.413,8.533,8.533S296.813,16.067,291.693,16.067z
		 M236.227,16.067h-18.773c-5.12,0-8.533-3.413-8.533-8.533S212.333-1,217.453-1h18.773c5.12,0,8.533,3.413,8.533,8.533
		S241.347,16.067,236.227,16.067z M181.613,16.067H162.84c-5.12,0-8.533-3.413-8.533-8.533S157.72-1,162.84-1h18.773
		c5.12,0,8.533,3.413,8.533,8.533S185.88,16.067,181.613,16.067z"/>
	<path d="M502.467,24.6c-5.12,0-8.533-3.413-8.533-8.533c-5.12,0-8.533-3.413-8.533-8.533S488.813-1,493.933-1H511v17.067
		C511,21.187,507.587,24.6,502.467,24.6z"/>
	<path d="M502.467,134.68c-5.12,0-8.533-3.413-8.533-8.533v-18.773c0-5.12,3.413-8.533,8.533-8.533c5.12,0,8.533,3.413,8.533,8.533
		v18.773C511,131.267,507.587,134.68,502.467,134.68z M502.467,80.067c-5.12,0-8.533-3.413-8.533-8.533V52.76
		c0-5.12,3.413-8.533,8.533-8.533c5.12,0,8.533,3.413,8.533,8.533v18.773C511,75.8,507.587,80.067,502.467,80.067z"/>
	<path d="M502.467,465.773c-5.12,0-8.533-3.413-8.533-8.533v-18.773c0-5.12,3.413-8.533,8.533-8.533c5.12,0,8.533,3.413,8.533,8.533
		v18.773C511,461.507,507.587,465.773,502.467,465.773z M502.467,410.307c-5.12,0-8.533-3.413-8.533-8.533V383
		c0-5.12,3.413-8.533,8.533-8.533c5.12,0,8.533,3.413,8.533,8.533v18.773C511,406.893,507.587,410.307,502.467,410.307z
		 M502.467,355.693c-5.12,0-8.533-3.413-8.533-8.533v-18.773c0-5.12,3.413-8.533,8.533-8.533c5.12,0,8.533,3.413,8.533,8.533v18.773
		C511,351.427,507.587,355.693,502.467,355.693z M502.467,300.227c-5.12,0-8.533-3.413-8.533-8.533V272.92
		c0-5.12,3.413-8.533,8.533-8.533c5.12,0,8.533,3.413,8.533,8.533v18.773C511,296.813,507.587,300.227,502.467,300.227z
		 M502.467,244.76c-5.12,0-8.533-3.413-8.533-8.533v-18.773c0-5.12,3.413-8.533,8.533-8.533c5.12,0,8.533,3.413,8.533,8.533v18.773
		C511,241.347,507.587,244.76,502.467,244.76z M502.467,190.147c-5.12,0-8.533-3.413-8.533-8.533V162.84
		c0-5.12,3.413-8.533,8.533-8.533c5.12,0,8.533,3.413,8.533,8.533v18.773C511,185.88,507.587,190.147,502.467,190.147z"/>
	<path d="M58.733,92.867c-18.773,0-34.133-15.36-34.133-34.133S39.96,24.6,58.733,24.6s34.133,15.36,34.133,34.133
		S77.507,92.867,58.733,92.867z M58.733,41.667c-9.387,0-17.067,7.68-17.067,17.067S49.347,75.8,58.733,75.8S75.8,68.12,75.8,58.733
		S68.12,41.667,58.733,41.667z"/>
	<path d="M135.533,92.867c-18.773,0-34.133-15.36-34.133-34.133S116.76,24.6,135.533,24.6s34.133,15.36,34.133,34.133
		S154.307,92.867,135.533,92.867z M135.533,41.667c-9.387,0-17.067,7.68-17.067,17.067s7.68,17.067,17.067,17.067
		S152.6,68.12,152.6,58.733S144.92,41.667,135.533,41.667z"/>
	<path d="M212.333,92.867c-18.773,0-34.133-15.36-34.133-34.133S193.56,24.6,212.333,24.6s34.133,15.36,34.133,34.133
		S231.107,92.867,212.333,92.867z M212.333,41.667c-9.387,0-17.067,7.68-17.067,17.067s7.68,17.067,17.067,17.067
		S229.4,68.12,229.4,58.733S221.72,41.667,212.333,41.667z"/>
	<path d="M400.067,118.467H-1V-1h401.067V118.467z M16.067,101.4H383V16.067H16.067V101.4z"/>
	<path d="M400.067,400.067H-1V-1h401.067V400.067z M16.067,383H383V16.067H16.067V383z"/>
</g>
<g>
</g>
<g>
</g>
<g>
</g>
<g>
</g>
<g>
</g>
<g>
</g>
<g>
</g>
<g>
</g>
<g>
</g>
<g>
</g>
<g>
</g>
<g>
</g>
<g>
</g>
<g>
</g>
<g>
</g>
</svg>
