<?xml version="1.0" encoding="iso-8859-1"?>
<!-- Generator: Adobe Illustrator 19.0.0, SVG Export Plug-In . SVG Version: 6.00 Build 0)  -->
<svg version="1.1" id="Layer_1" xmlns="http://www.w3.org/2000/svg" xmlns:xlink="http://www.w3.org/1999/xlink" x="0px" y="0px"
	 viewBox="0 0 512 512" style="enable-background:new 0 0 512 512;" xml:space="preserve">
<g transform="translate(0 1)">
	<polygon style="fill:#FF8800;" points="477.867,109.933 503.467,109.933 503.467,7.533 477.867,7.533 	"/>
	<polygon style="fill:#FFE100;" points="34.133,109.933 477.867,109.933 477.867,7.533 34.133,7.533 	"/>
	<polygon style="fill:#F9373E;" points="34.133,314.733 477.867,314.733 477.867,109.933 34.133,109.933 	"/>
	<polygon style="fill:#FFFFFF;" points="8.533,502.467 34.133,502.467 34.133,7.533 8.533,7.533 	"/>
	<polygon style="fill:#315ED8;" points="477.867,502.467 503.467,502.467 503.467,314.733 477.867,314.733 	"/>
	<polygon style="fill:#D9283E;" points="477.867,314.733 503.467,314.733 503.467,109.933 477.867,109.933 	"/>
	<polygon style="fill:#3D83F3;" points="34.133,502.467 477.867,502.467 477.867,314.733 34.133,314.733 	"/>
	<path style="fill:#00DA6C;" d="M68.267,58.733c0,14.507-7.68,25.6-17.067,25.6s-17.067-11.093-17.067-25.6s7.68-25.6,17.067-25.6
		S68.267,44.227,68.267,58.733"/>
	<path style="fill:#00AD55;" d="M59.733,33.133c-1.707,0-3.413,0-5.12,0.853c7.68,1.707,13.653,11.947,13.653,24.747
		s-5.973,23.04-13.653,24.747c1.707,0.853,3.413,0.853,5.12,0.853c14.507,0,25.6-11.093,25.6-25.6S74.24,33.133,59.733,33.133"/>
	<path style="fill:#00DA6C;" d="M145.067,58.733c0,14.507-7.68,25.6-17.067,25.6s-17.067-11.093-17.067-25.6s7.68-25.6,17.067-25.6
		S145.067,44.227,145.067,58.733"/>
	<path style="fill:#00AD55;" d="M136.533,33.133c-1.707,0-3.413,0-5.12,0.853c7.68,1.707,13.653,11.947,13.653,24.747
		s-5.973,23.04-13.653,24.747c1.707,0.853,3.413,0.853,5.12,0.853c14.507,0,25.6-11.093,25.6-25.6S151.04,33.133,136.533,33.133"/>
	<path style="fill:#00DA6C;" d="M221.867,58.733c0,14.507-7.68,25.6-17.067,25.6c-9.387,0-17.067-11.093-17.067-25.6
		s7.68-25.6,17.067-25.6C214.187,33.133,221.867,44.227,221.867,58.733"/>
	<path style="fill:#00AD55;" d="M213.333,33.133c-1.707,0-3.413,0-5.12,0.853c7.68,1.707,13.653,11.947,13.653,24.747
		s-5.973,23.04-13.653,24.747c1.707,0.853,3.413,0.853,5.12,0.853c14.507,0,25.6-11.093,25.6-25.6S227.84,33.133,213.333,33.133"/>
	<path d="M512,511H0V229.4c0-5.12,3.413-8.533,8.533-8.533s8.533,3.413,8.533,8.533v264.533h477.867v-42.667
		c0-5.12,3.413-8.533,8.533-8.533c5.12,0,8.533,3.413,8.533,8.533V511z"/>
	<path d="M503.467,383c-5.12,0-8.533-3.413-8.533-8.533v-256H17.067v42.667c0,5.12-3.413,8.533-8.533,8.533S0,166.253,0,161.133
		V101.4h512v273.067C512,379.587,508.587,383,503.467,383z"/>
	<path d="M503.467,425.667c-5.12,0-8.533-3.413-8.533-8.533V408.6c0-5.12,3.413-8.533,8.533-8.533c5.12,0,8.533,3.413,8.533,8.533
		v8.533C512,422.253,508.587,425.667,503.467,425.667z"/>
	<path d="M17.067,195.267c0-5.12-3.413-8.533-8.533-8.533S0,190.147,0,195.267c0,5.12,3.413,8.533,8.533,8.533
		S17.067,200.387,17.067,195.267"/>
	<path style="fill:#F9373E;" d="M128,408.6c0,28.16-17.067,51.2-38.4,51.2s-38.4-23.04-38.4-51.2c0-28.16,17.067-51.2,38.4-51.2
		S128,380.44,128,408.6"/>
	<path style="fill:#D9283E;" d="M102.4,357.4c-2.56,0-5.12,0-7.68,0.853C113.493,361.667,128,383,128,408.6
		c0,25.6-14.507,46.933-33.28,50.347c2.56,0,5.12,0.853,7.68,0.853c28.16,0,51.2-23.04,51.2-51.2
		C153.6,380.44,130.56,357.4,102.4,357.4"/>
	<path style="fill:#F9373E;" d="M281.6,408.6c0,28.16-17.067,51.2-38.4,51.2s-38.4-23.04-38.4-51.2c0-28.16,17.067-51.2,38.4-51.2
		S281.6,380.44,281.6,408.6"/>
	<path style="fill:#D9283E;" d="M256,357.4c-2.56,0-5.12,0-7.68,0.853C267.093,361.667,281.6,383,281.6,408.6
		c0,25.6-14.507,46.933-33.28,50.347c2.56,0,5.12,0.853,7.68,0.853c28.16,0,51.2-23.04,51.2-51.2
		C307.2,380.44,284.16,357.4,256,357.4"/>
	<path style="fill:#F9373E;" d="M435.2,408.6c0,28.16-17.067,51.2-38.4,51.2s-38.4-23.04-38.4-51.2c0-28.16,17.067-51.2,38.4-51.2
		S435.2,380.44,435.2,408.6"/>
	<path style="fill:#D9283E;" d="M409.6,357.4c-2.56,0-5.12,0-7.68,0.853C420.693,361.667,435.2,383,435.2,408.6
		c0,25.6-14.507,46.933-33.28,50.347c2.56,0,5.12,0.853,7.68,0.853c28.16,0,51.2-23.04,51.2-51.2
		C460.8,380.44,437.76,357.4,409.6,357.4"/>
	<path d="M59.733,92.867c-18.773,0-34.133-15.36-34.133-34.133S40.96,24.6,59.733,24.6s34.133,15.36,34.133,34.133
		S78.507,92.867,59.733,92.867z M59.733,41.667c-9.387,0-17.067,7.68-17.067,17.067S50.347,75.8,59.733,75.8S76.8,68.12,76.8,58.733
		S69.12,41.667,59.733,41.667z"/>
	<path d="M136.533,92.867c-18.773,0-34.133-15.36-34.133-34.133S117.76,24.6,136.533,24.6s34.133,15.36,34.133,34.133
		S155.307,92.867,136.533,92.867z M136.533,41.667c-9.387,0-17.067,7.68-17.067,17.067s7.68,17.067,17.067,17.067
		S153.6,68.12,153.6,58.733S145.92,41.667,136.533,41.667z"/>
	<path d="M213.333,92.867c-18.773,0-34.133-15.36-34.133-34.133S194.56,24.6,213.333,24.6s34.133,15.36,34.133,34.133
		S232.107,92.867,213.333,92.867z M213.333,41.667c-9.387,0-17.067,7.68-17.067,17.067s7.68,17.067,17.067,17.067
		S230.4,68.12,230.4,58.733S222.72,41.667,213.333,41.667z"/>
	<path d="M512,118.467H0V-1h512V118.467z M17.067,101.4h477.867V16.067H17.067V101.4z"/>
	<path d="M426.667,255c-2.56,0-4.267-0.853-5.973-2.56c-3.413-3.413-3.413-8.533,0-11.947l28.16-28.16l-28.16-28.16
		c-3.413-3.413-3.413-8.533,0-11.947c3.413-3.413,8.533-3.413,11.947,0l31.573,31.573c5.12,5.12,5.12,11.947,0,17.067L432.64,252.44
		C430.933,254.147,429.227,255,426.667,255z M452.267,215.747L452.267,215.747L452.267,215.747z"/>
	<path d="M83.627,255c-2.56,0-4.267-0.853-5.973-2.56L46.08,220.867c-5.12-5.12-5.12-11.947,0-17.067l31.573-31.573
		c3.413-3.413,8.533-3.413,11.947,0s3.413,8.533,0,11.947l-28.16,28.16l28.16,28.16c3.413,3.413,3.413,8.533,0,11.947
		C87.893,254.147,86.187,255,83.627,255z"/>
	<path d="M512,323.267H0V229.4c0-5.12,3.413-8.533,8.533-8.533s8.533,3.413,8.533,8.533v76.8h477.867V118.467H17.067v42.667
		c0,5.12-3.413,8.533-8.533,8.533S0,166.253,0,161.133V101.4h512V323.267z"/>
	<path d="M102.4,468.333c-33.28,0-59.733-26.453-59.733-59.733s26.453-59.733,59.733-59.733s59.733,26.453,59.733,59.733
		S135.68,468.333,102.4,468.333z M102.4,365.933c-23.893,0-42.667,18.773-42.667,42.667c0,23.893,18.773,42.667,42.667,42.667
		s42.667-18.773,42.667-42.667C145.067,384.707,126.293,365.933,102.4,365.933z"/>
	<path d="M256,468.333c-33.28,0-59.733-26.453-59.733-59.733S222.72,348.867,256,348.867c33.28,0,59.733,26.453,59.733,59.733
		S289.28,468.333,256,468.333z M256,365.933c-23.893,0-42.667,18.773-42.667,42.667c0,23.893,18.773,42.667,42.667,42.667
		c23.893,0,42.667-18.773,42.667-42.667C298.667,384.707,279.893,365.933,256,365.933z"/>
	<path d="M409.6,468.333c-33.28,0-59.733-26.453-59.733-59.733s26.453-59.733,59.733-59.733s59.733,26.453,59.733,59.733
		S442.88,468.333,409.6,468.333z M409.6,365.933c-23.893,0-42.667,18.773-42.667,42.667c0,23.893,18.773,42.667,42.667,42.667
		c23.893,0,42.667-18.773,42.667-42.667C452.267,384.707,433.493,365.933,409.6,365.933z"/>
</g>
<g>
</g>
<g>
</g>
<g>
</g>
<g>
</g>
<g>
</g>
<g>
</g>
<g>
</g>
<g>
</g>
<g>
</g>
<g>
</g>
<g>
</g>
<g>
</g>
<g>
</g>
<g>
</g>
<g>
</g>
</svg>
