<?xml version="1.0" encoding="iso-8859-1"?>
<!-- Generator: Adobe Illustrator 19.0.0, SVG Export Plug-In . SVG Version: 6.00 Build 0)  -->
<svg version="1.1" id="Layer_1" xmlns="http://www.w3.org/2000/svg" xmlns:xlink="http://www.w3.org/1999/xlink" x="0px" y="0px"
	 viewBox="0 0 294.451 294.451" style="enable-background:new 0 0 294.451 294.451;" xml:space="preserve">
<g>
	<g>
		<path d="M254.974,130.615c-23.419-22.863-49.274-48.559-58.534-58.433c5.71-19.123,1.038-40.714-14.038-55.784
			c-21.851-21.861-57.427-21.867-79.304,0L72.645,46.845c-1.865,1.865-2.913,4.391-2.913,7.029s1.049,5.165,2.913,7.029
			l26.571,26.571l-5.641,5.636c-3.883,3.883-3.883,10.176,0,14.059c1.939,1.944,4.487,2.913,7.029,2.913
			c2.543,0,5.085-0.969,7.029-2.908l5.641-5.641l24.621,24.621c1.865,1.865,4.397,2.913,7.029,2.913s5.165-1.049,7.029-2.913
			l30.448-30.448c1.552-1.552,2.961-3.184,4.291-4.863c8.703,9.143,23.758,24.07,50.037,49.756l-29.156,94.327H115.25h-5.737H46.424
			c-5.488,0-9.943,4.45-9.943,9.943c0,5.488,4.45,9.943,9.943,9.943h63.089h5.737h122.184v19.753H56.526v-2.082
			c0-5.488-4.45-9.943-9.943-9.943s-9.943,4.45-9.943,9.943v12.025c0,5.493,4.45,9.943,9.943,9.943h200.8
			c5.488,0,9.943-4.45,9.943-9.943v-39.633c0-5.493-4.45-9.943-9.943-9.943h-19.001l29.145-94.263
			C258.629,137.104,257.638,133.221,254.974,130.615z M168.349,81.648l-23.419,23.419L93.733,53.875l23.424-23.419
			c14.101-14.106,37.075-14.112,51.192,0C182.456,44.567,182.456,67.531,168.349,81.648z"/>
	</g>
</g>
<g>
</g>
<g>
</g>
<g>
</g>
<g>
</g>
<g>
</g>
<g>
</g>
<g>
</g>
<g>
</g>
<g>
</g>
<g>
</g>
<g>
</g>
<g>
</g>
<g>
</g>
<g>
</g>
<g>
</g>
</svg>
