<?xml version="1.0" encoding="iso-8859-1"?>
<!-- Generator: Adobe Illustrator 19.0.0, SVG Export Plug-In . SVG Version: 6.00 Build 0)  -->
<svg version="1.1" id="Capa_1" xmlns="http://www.w3.org/2000/svg" xmlns:xlink="http://www.w3.org/1999/xlink" x="0px" y="0px"
	 viewBox="0 0 295.5 295.5" style="enable-background:new 0 0 295.5 295.5;" xml:space="preserve">
<g>
	<path d="M176.582,69.315c-0.617-0.426-1.069-0.701-1.396-0.869l-2.645-28.196c0,0-5.124-6.086-17.124-8.196V0h-16v32.034
		c-11,2.091-16.834,8.216-16.834,8.216l-2.455,28.406c-0.281,0.11-0.64,0.307-1.253,0.659c-30,17.261-51.313,60.625-51.313,111.268
		c0,50.644,21.345,94.008,51.345,111.269c0.614,0.158,1.239,0.307,1.859,0.455c-3.013-6.264-5.428-13.067-7.325-19.473
		c-7.326-24.751-11.36-57.513-11.36-92.251c0-34.737,4.036-67.499,11.362-92.25c1.896-6.405,4.315-13.209,7.328-19.473
		c6.596-1.587,13.413-2.606,20.398-3.001c-10.236,12.762-23.086,52.243-23.086,114.724s12.85,101.963,23.086,114.726
		c2.179,0.123,4.372,0.191,6.582,0.191c2.209,0,4.401-0.068,6.58-0.191c10.235-12.763,23.086-52.245,23.086-114.726
		s-12.85-101.962-23.086-114.725c6.984,0.395,13.801,1.414,20.397,3.002c3.013,6.264,5.431,13.067,7.327,19.473
		c7.326,24.751,11.361,57.513,11.361,92.25c0,34.738-4.035,67.5-11.361,92.251c-1.896,6.405-4.314,13.209-7.327,19.473
		c0.619-0.148,1.238-0.296,1.853-0.455c30.001-17.26,51.336-60.625,51.336-111.269C227.917,129.939,206.582,86.575,176.582,69.315z"
		/>
	<path d="M220.13,91.33c15.372,24.651,23.787,56.066,23.787,89.253s-8.415,64.602-23.787,89.254
		c25.949-21.07,42.537-53.223,42.537-89.254C262.667,144.553,246.079,112.4,220.13,91.33z"/>
	<path d="M75.37,91.331c-25.95,21.069-42.537,53.222-42.537,89.252c0,36.031,16.587,68.184,42.537,89.253
		c-15.372-24.651-23.787-56.067-23.787-89.253C51.583,147.398,59.998,115.981,75.37,91.331z"/>
</g>
<g>
</g>
<g>
</g>
<g>
</g>
<g>
</g>
<g>
</g>
<g>
</g>
<g>
</g>
<g>
</g>
<g>
</g>
<g>
</g>
<g>
</g>
<g>
</g>
<g>
</g>
<g>
</g>
<g>
</g>
</svg>
