<?xml version="1.0" encoding="iso-8859-1"?>
<!-- Generator: Adobe Illustrator 19.0.0, SVG Export Plug-In . SVG Version: 6.00 Build 0)  -->
<svg version="1.1" id="Layer_1" xmlns="http://www.w3.org/2000/svg" xmlns:xlink="http://www.w3.org/1999/xlink" x="0px" y="0px"
	 viewBox="0 0 365 365" style="enable-background:new 0 0 365 365;" xml:space="preserve">
<g id="XMLID_531_">
	<g>
		<g>
			<path d="M52.5,0v365h260V0H52.5z M292.5,345h-220v-40h220V345z M292.5,285h-220V20h220V285z"/>
			<path d="M175.33,246.971l7.169,7.375l7.17-7.374c1.801-1.852,44.27-45.57,58.961-64.097
				c11.885-14.985,18.166-33.046,18.166-52.228c0-46.482-37.815-84.297-84.297-84.297s-84.297,37.815-84.297,84.297
				c0,19.181,6.287,37.247,18.181,52.244C131.074,201.412,173.53,245.119,175.33,246.971z M182.5,66.349
				c35.453,0,64.297,28.844,64.297,64.297c0,14.624-4.784,28.387-13.836,39.801c-10.562,13.318-37.504,41.661-50.461,55.15
				c-12.954-13.487-39.887-41.822-50.446-55.135c-9.062-11.425-13.851-25.194-13.851-39.816
				C118.203,95.193,147.046,66.349,182.5,66.349z"/>
			<path d="M182.5,181.564c28.563,0,51.802-23.238,51.802-51.802c0-28.564-23.239-51.802-51.802-51.802
				c-28.564,0-51.802,23.238-51.802,51.802C130.698,158.326,153.936,181.564,182.5,181.564z M182.5,97.96
				c17.535,0,31.802,14.267,31.802,31.802c0,17.535-14.267,31.802-31.802,31.802c-17.536,0-31.802-14.267-31.802-31.802
				C150.698,112.227,164.964,97.96,182.5,97.96z"/>
			<rect x="162.5" y="315" width="40" height="20"/>
		</g>
	</g>
</g>
<g>
</g>
<g>
</g>
<g>
</g>
<g>
</g>
<g>
</g>
<g>
</g>
<g>
</g>
<g>
</g>
<g>
</g>
<g>
</g>
<g>
</g>
<g>
</g>
<g>
</g>
<g>
</g>
<g>
</g>
</svg>
