<?xml version="1.0" encoding="iso-8859-1"?>
<!-- Generator: Adobe Illustrator 19.0.0, SVG Export Plug-In . SVG Version: 6.00 Build 0)  -->
<svg version="1.1" id="Layer_1" xmlns="http://www.w3.org/2000/svg" xmlns:xlink="http://www.w3.org/1999/xlink" x="0px" y="0px"
	 viewBox="0 0 512.168 512.168" style="enable-background:new 0 0 512.168 512.168;" xml:space="preserve">
<g transform="translate(-1 -1)">
	<path style="fill:#FF608A;" d="M124.671,1L89.36,9.828c0,0-38.903,210.441-61.793,273.655
		c-24.629,68.017,0.556,187.242,97.103,185.379c0,0,25.935,0,53.142-10.434c53.875-20.648,69.791-88.761,32.282-132.599
		c-15.051-17.593-36.449-26.024-58.942-33.518c-52.966-17.655-70.621-52.966-61.793-88.276C96.131,176.951,124.671,1,124.671,1"/>
	<path style="fill:#D14569;" d="M154.434,293.436c19.906,6.771,38.682,14.68,52.745,29.352L124.667,1.004
		c0,0-6.903,42.567-14.724,89.044L154.434,293.436z"/>
	<path style="fill:#FF608A;" d="M389.498,1l35.31,8.828c0,0,38.903,210.441,61.793,273.655
		c24.629,68.017-0.556,187.242-97.103,185.379c0,0-25.935,0-53.142-10.434c-53.875-20.648-69.791-88.761-32.282-132.599
		c15.051-17.593,36.449-26.024,58.942-33.518c52.966-17.655,70.621-52.966,61.793-88.276C418.038,176.951,389.498,1,389.498,1"/>
	<g>
		<path style="fill:#D14569;" d="M359.735,293.436c-19.906,6.771-38.682,14.68-52.745,29.361L389.502,1.004
			c0,0,6.903,42.567,14.724,89.044L359.735,293.436z"/>
		<path style="fill:#D14569;" d="M389.498,468.862c0,0-25.935,0-53.142-10.434c-37.076-14.212-56.161-50.891-52.25-86.669h-54.042
			c3.911,35.778-15.175,72.457-52.25,86.669c-27.207,10.434-53.142,10.434-53.142,10.434c-53.257,1.024-84.754-34.807-98.207-78.539
			c3.496,19.527,7.089,39.044,10.673,58.553c2.895,15.784,12.05,30.596,24.055,41.137c28.345,24.885,73.137,28.645,109.056,16.366
			c18.582-6.356,34.481-17.311,52.092-25.582c10.955-5.146,22.228-11.935,34.745-11.935c12.518,0,23.79,6.788,34.745,11.935
			c17.611,8.271,33.509,19.226,52.092,25.582c35.919,12.279,80.711,8.519,109.056-16.366c12.005-10.54,21.16-25.353,24.055-41.137
			c3.584-19.509,7.177-39.027,10.673-58.553C474.252,434.055,442.755,469.886,389.498,468.862"/>
	</g>
	<g>
		<path style="fill:#FDEB88;" d="M107.045,336.427c-52.966-17.655-76.209-58.2-67.381-93.511h-0.009
			c-4.29,16.34-8.404,30.385-12.085,40.563c-24.638,68.025,0.547,187.242,97.103,185.379c0,0,25.927,0,53.142-10.425
			c0.786-0.3,1.483-0.715,2.251-1.033c11.511-27.886,7.848-61.82-14.08-87.455C150.936,352.352,129.538,343.922,107.045,336.427"/>
		<path style="fill:#FDEB88;" d="M407.112,336.427c52.966-17.655,76.209-58.2,67.381-93.511h0.009
			c4.29,16.34,8.404,30.385,12.085,40.563c24.638,68.025-0.547,187.242-97.103,185.379c0,0-25.927,0-53.142-10.425
			c-0.786-0.309-1.483-0.715-2.251-1.033c-11.511-27.886-7.848-61.82,14.08-87.455C363.221,352.352,384.619,343.922,407.112,336.427
			"/>
	</g>
</g>
<g>
</g>
<g>
</g>
<g>
</g>
<g>
</g>
<g>
</g>
<g>
</g>
<g>
</g>
<g>
</g>
<g>
</g>
<g>
</g>
<g>
</g>
<g>
</g>
<g>
</g>
<g>
</g>
<g>
</g>
</svg>
