<?xml version="1.0" encoding="iso-8859-1"?>
<!-- Generator: Adobe Illustrator 19.0.0, SVG Export Plug-In . SVG Version: 6.00 Build 0)  -->
<svg version="1.1" id="Layer_1" xmlns="http://www.w3.org/2000/svg" xmlns:xlink="http://www.w3.org/1999/xlink" x="0px" y="0px"
	 viewBox="0 0 512 512" style="enable-background:new 0 0 512 512;" xml:space="preserve">
<path style="fill:#CEE8FA;" d="M320.41,222.75l-64.411-73.286l-64.411,73.288c-9.962,13.369-15.85,29.942-15.85,47.896
	c0,44.326,35.935,80.26,80.261,80.26s80.261-35.933,80.261-80.26C336.26,252.694,330.371,236.121,320.41,222.75z"/>
<path style="fill:#2D527C;" d="M255.999,365.723c-52.425,0-95.076-42.651-95.076-95.074c0-20.631,6.496-40.253,18.787-56.748
	c0.237-0.32,0.489-0.63,0.751-0.929l64.411-73.288c2.813-3.2,6.868-5.034,11.129-5.034c4.261,0,8.314,1.834,11.129,5.034
	l64.411,73.286c0.262,0.299,0.514,0.609,0.751,0.929c12.29,16.495,18.787,36.119,18.787,56.748
	C351.075,323.072,308.425,365.723,255.999,365.723z M203.132,232.06c-8.231,11.246-12.578,24.575-12.578,38.588
	c0,36.086,29.359,65.445,65.446,65.445s65.446-29.359,65.446-65.445c0-14.012-4.348-27.344-12.578-38.588l-52.868-60.154
	L203.132,232.06z"/>
<g>
	<circle style="fill:#CEE8FA;" cx="156.356" cy="447.409" r="49.769"/>
	<circle style="fill:#CEE8FA;" cx="355.645" cy="447.409" r="49.769"/>
</g>
<path style="fill:#2D527C;" d="M392.174,394.192c30.59-33.693,47.79-77.614,47.79-123.544c0-8.182-6.634-14.815-14.815-14.815
	s-14.815,6.633-14.815,14.815c0,42.67-17.705,83.28-48.784,112.464c-1.947-0.178-3.914-0.281-5.905-0.281
	c-20.034,0-37.968,9.169-49.822,23.532c-11.855-14.363-29.788-23.532-49.822-23.532s-37.968,9.169-49.822,23.532
	c-11.855-14.363-29.788-23.532-49.822-23.532c-1.991,0-3.959,0.104-5.905,0.281c-31.079-29.184-48.784-69.794-48.784-112.464
	c0-33.485,10.556-65.351,30.525-92.153l1.787-2.399l122.023-138.84l122.024,138.84l1.787,2.399
	c4.889,6.561,14.167,7.917,20.73,3.028c6.561-4.889,7.917-14.17,3.028-20.732l-2.144-2.877c-0.237-0.32-0.489-0.63-0.751-0.929
	L267.128,5.034C264.315,1.834,260.26,0,255.999,0s-8.314,1.834-11.129,5.034L111.326,156.986c-0.262,0.299-0.513,0.609-0.751,0.927
	l-2.144,2.879c-23.81,31.957-36.396,69.945-36.396,109.857c0,45.931,17.2,89.851,47.79,123.544
	c-16.929,11.656-28.055,31.16-28.055,53.222c0,35.612,28.972,64.584,64.584,64.584c20.034,0,37.968-9.169,49.822-23.532
	c11.855,14.363,29.788,23.532,49.822,23.532c8.181,0,14.815-6.633,14.815-14.815s-6.634-14.815-14.815-14.815
	c-19.274,0-34.956-15.68-34.956-34.954c0-19.274,15.682-34.954,34.956-34.954s34.956,15.68,34.956,34.954
	c0,0.696,0.065,1.375,0.157,2.046C292.198,484.127,320.719,512,355.645,512c35.612,0,64.584-28.972,64.584-64.584
	C420.229,425.354,409.103,405.849,392.174,394.192z M156.355,482.37c-19.274,0-34.954-15.68-34.954-34.954
	s15.68-34.954,34.954-34.954s34.956,15.68,34.956,34.954S175.627,482.37,156.355,482.37z M355.645,482.37
	c-19.274,0-34.956-15.68-34.956-34.954s15.682-34.954,34.956-34.954c19.274,0,34.954,15.68,34.954,34.954
	S374.92,482.37,355.645,482.37z"/>
<g>
</g>
<g>
</g>
<g>
</g>
<g>
</g>
<g>
</g>
<g>
</g>
<g>
</g>
<g>
</g>
<g>
</g>
<g>
</g>
<g>
</g>
<g>
</g>
<g>
</g>
<g>
</g>
<g>
</g>
</svg>
