<?xml version="1.0" encoding="iso-8859-1"?>
<!-- Generator: Adobe Illustrator 19.0.0, SVG Export Plug-In . SVG Version: 6.00 Build 0)  -->
<svg version="1.1" id="Layer_1" xmlns="http://www.w3.org/2000/svg" xmlns:xlink="http://www.w3.org/1999/xlink" x="0px" y="0px"
	 viewBox="0 0 512 512" style="enable-background:new 0 0 512 512;" xml:space="preserve">
<g>
	<g>
		<path d="M301.639,272.836c-5.632,0-10.199,4.566-10.199,10.199v5.953c0,5.633,4.567,10.199,10.199,10.199
			c5.632,0,10.199-4.566,10.199-10.199v-5.953C311.838,277.402,307.272,272.836,301.639,272.836z"/>
	</g>
</g>
<g>
	<g>
		<path d="M301.639,309.546c-5.632,0-10.199,4.566-10.199,10.199v70.441c0,5.633,4.567,10.199,10.199,10.199
			c5.632,0,10.199-4.566,10.199-10.199v-70.441C311.838,314.112,307.272,309.546,301.639,309.546z"/>
	</g>
</g>
<g>
	<g>
		<path d="M431.608,408.759H340.61V148.106c0-5.633-4.567-10.199-10.199-10.199H266.2v-11.474
			c21.251-4.679,37.206-23.65,37.206-46.287c0-22.803-32.702-67.378-39.258-76.081C262.221,1.504,259.204,0,256,0
			c-3.204,0-6.22,1.504-8.147,4.063c-6.556,8.704-39.258,53.278-39.258,76.081c0,22.637,15.954,41.608,37.206,46.287v11.474H181.59
			c-5.633,0-10.199,4.566-10.199,10.199v260.653H80.393c-5.633,0-10.199,4.566-10.199,10.199v40.181
			c0,5.633,4.566,10.199,10.199,10.199h49.328v32.464c0,5.633,4.566,10.199,10.199,10.199H372.08
			c5.632,0,10.199-4.566,10.199-10.199v-32.463h49.328c5.632,0,10.199-4.566,10.199-10.199v-40.181
			C441.808,413.325,437.24,408.759,431.608,408.759z M228.994,80.144c0-9.717,13.935-33.544,27.006-52.483
			c13.07,18.939,27.006,42.766,27.006,52.483c0,11.283-6.958,20.967-16.807,25V95.027c0-5.633-4.567-10.199-10.199-10.199
			c-5.633,0-10.199,4.566-10.199,10.199v10.118C235.953,101.112,228.994,91.428,228.994,80.144z M191.789,158.305h128.422v250.454
			H191.789V158.305z M150.12,491.602v-22.264H361.88v22.264H150.12z M421.409,448.939H90.592v-19.782h330.817V448.939z"/>
	</g>
</g>
<g>
</g>
<g>
</g>
<g>
</g>
<g>
</g>
<g>
</g>
<g>
</g>
<g>
</g>
<g>
</g>
<g>
</g>
<g>
</g>
<g>
</g>
<g>
</g>
<g>
</g>
<g>
</g>
<g>
</g>
</svg>
