<?xml version="1.0" encoding="iso-8859-1"?>
<!-- Generator: Adobe Illustrator 19.0.0, SVG Export Plug-In . SVG Version: 6.00 Build 0)  -->
<svg version="1.1" id="Layer_1" xmlns="http://www.w3.org/2000/svg" xmlns:xlink="http://www.w3.org/1999/xlink" x="0px" y="0px"
	 viewBox="0 0 330 330" style="enable-background:new 0 0 330 330;" xml:space="preserve">
<path id="XMLID_845_" d="M315,25c-46.869,0-85,38.131-85,85.001V175H72.501c0,0,0-0.001,0-0.001c0-1.139,0-1.285,3.105-4.391
	c4.448-4.448,11.894-11.893,11.894-25.606v-0.001c0,0,0,0,0,0c0-13.714-7.445-21.16-11.894-25.608
	c-3.105-3.105-3.105-3.252-3.105-4.394c0-1.14,0-1.286,3.105-4.392c4.448-4.448,11.893-11.893,11.894-25.604c0,0,0-0.001,0-0.002v0
	c0-0.001,0-0.001,0-0.001c0-0.001,0-0.002,0-0.002c-0.001-13.712-7.445-21.156-11.894-25.604c-3.105-3.105-3.105-3.252-3.105-4.395
	c0-1.139,0-1.286,3.106-4.391c5.858-5.857,5.859-15.354,0.003-21.213c-5.857-5.859-15.354-5.86-21.214-0.003
	c-4.449,4.449-11.897,11.894-11.896,25.607c-0.002,13.714,7.443,21.159,11.893,25.608C57.5,83.713,57.5,83.86,57.5,85.001
	c0,1.14,0,1.287-3.106,4.393c-4.449,4.449-11.895,11.895-11.893,25.605c-0.002,13.713,7.443,21.158,11.892,25.607
	c3.107,3.107,3.107,3.254,3.107,4.395c0,0,0,0,0,0v0.001c0,1.14,0,1.286-3.106,4.393c-4.449,4.449-11.895,11.895-11.893,25.604
	c0,1.378,0.093,2.677,0.232,3.932C17.826,188.04,0,211.977,0,240c0,35.841,29.159,65,65,65h200c35.841,0,65-29.159,65-65V40
	C330,31.716,323.284,25,315,25z M260,110.001c0-25.13,16.94-46.377,40-52.922v128.192C289.889,178.782,277.881,175,265,175h-5
	V110.001z M265,275H65c-19.299,0-35-15.701-35-35s15.701-35,35-35h200c19.299,0,35,15.701,35,35S284.299,275,265,275z"/>
<g>
</g>
<g>
</g>
<g>
</g>
<g>
</g>
<g>
</g>
<g>
</g>
<g>
</g>
<g>
</g>
<g>
</g>
<g>
</g>
<g>
</g>
<g>
</g>
<g>
</g>
<g>
</g>
<g>
</g>
</svg>
