<?xml version="1.0" encoding="iso-8859-1"?>
<!-- Generator: Adobe Illustrator 19.0.0, SVG Export Plug-In . SVG Version: 6.00 Build 0)  -->
<svg version="1.1" id="Layer_1" xmlns="http://www.w3.org/2000/svg" xmlns:xlink="http://www.w3.org/1999/xlink" x="0px" y="0px"
	 viewBox="0 0 512 512" style="enable-background:new 0 0 512 512;" xml:space="preserve">
<g>
	<g>
		<path d="M373.106,32.749H111.66c-13.515,0-24.511,10.995-24.511,24.511S98.145,81.77,111.66,81.77h143.251
			c4.506,0,8.17,3.665,8.17,8.17s-3.665,8.17-8.17,8.17H8.17c-4.513,0-8.17,3.658-8.17,8.17c0,4.512,3.657,8.17,8.17,8.17h246.74
			c13.515,0,24.511-10.995,24.511-24.511S268.425,65.43,254.911,65.43H111.66c-4.506,0-8.17-3.665-8.17-8.17s3.665-8.17,8.17-8.17
			h261.447c4.513,0,8.17-3.658,8.17-8.17C381.277,36.407,377.62,32.749,373.106,32.749z"/>
	</g>
</g>
<g>
	<g>
		<path d="M503.83,32.749h-98.043c-4.513,0-8.17,3.658-8.17,8.17c0,4.512,3.657,8.17,8.17,8.17h98.043c4.513,0,8.17-3.658,8.17-8.17
			C512,36.407,508.343,32.749,503.83,32.749z"/>
	</g>
</g>
<g>
	<g>
		<path d="M503.83,98.111H322.451c-4.506,0-8.17-3.665-8.17-8.17s3.665-8.17,8.17-8.17H503.83c4.513,0,8.17-3.658,8.17-8.17
			c0-4.512-3.657-8.17-8.17-8.17H322.451c-13.515,0-24.511,10.995-24.511,24.511s10.996,24.511,24.511,24.511H503.83
			c4.513,0,8.17-3.658,8.17-8.17C512,101.769,508.343,98.111,503.83,98.111z"/>
	</g>
</g>
<g>
	<g>
		<path d="M65.449,32.749H8.17c-4.513,0-8.17,3.658-8.17,8.17c0,4.512,3.657,8.17,8.17,8.17h57.279c4.513,0,8.17-3.658,8.17-8.17
			C73.619,36.407,69.962,32.749,65.449,32.749z"/>
	</g>
</g>
<g>
	<g>
		<path d="M503.83,354.111h-74.077v-21.787h25.055c13.515,0,24.511-10.995,24.511-24.511c0-1.729-0.192-3.488-0.57-5.232
			L445.524,150.07c-2.435-11.17-12.504-19.278-23.941-19.278c-11.437,0-21.505,8.107-23.941,19.278l-28.067,128.836
			c-0.01,0.042-5.159,23.681-5.159,23.681c-0.378,1.739-0.569,3.497-0.569,5.227c0,13.516,10.996,24.511,24.511,24.511h25.055
			v21.787H297.94v-21.787h25.055c13.515,0,24.511-10.995,24.511-24.511c0-1.729-0.192-3.488-0.57-5.232L313.711,150.07
			c-2.435-11.17-12.504-19.278-23.941-19.278s-21.505,8.107-23.941,19.278l-28.07,128.845c-0.005,0.027-5.156,23.664-5.156,23.664
			c-0.379,1.735-0.57,3.497-0.57,5.233c0,13.516,10.996,24.511,24.511,24.511H281.6v21.787h-84.975v-58.713l1.852,1.852
			c1.596,1.595,3.688,2.393,5.778,2.393c2.091,0,4.182-0.797,5.778-2.393c3.191-3.191,3.191-8.364,0-11.554l-81.702-81.702
			c-3.192-3.191-8.364-3.191-11.555,0L86.88,233.89v-24.12c0-4.512-3.657-8.17-8.17-8.17s-8.17,3.658-8.17,8.17v40.46
			l-35.465,35.465c-3.191,3.191-3.191,8.364,0,11.554c3.192,3.191,8.364,3.191,11.555,0l1.852-1.852v58.713H8.17
			c-4.513,0-8.17,3.658-8.17,8.17s3.657,8.17,8.17,8.17h495.66c4.513,0,8.17-3.658,8.17-8.17S508.343,354.111,503.83,354.111z
			 M130.723,354.111h-16.34v-54.468h16.34V354.111z M180.285,354.11h-33.221v-62.638c0-4.512-3.657-8.17-8.17-8.17h-32.681
			c-4.513,0-8.17,3.658-8.17,8.17v62.638H64.821v-75.054l57.732-57.732l57.732,57.732V354.11z M256.544,315.983
			c-4.505,0-8.169-3.666-8.169-8.17c0-0.568,0.066-1.158,0.196-1.753l3.771-17.311H301.1c4.513,0,8.17-3.658,8.17-8.17
			c0-4.512-3.657-8.17-8.17-8.17h-45.199l25.894-118.858c0.81-3.719,4.164-6.419,7.974-6.419s7.164,2.699,7.974,6.417
			l33.224,152.505c0.131,0.601,0.197,1.193,0.197,1.758c0,4.506-3.665,8.17-8.17,8.17H256.544z M388.356,315.983
			c-4.504,0-8.169-3.666-8.169-8.17c0-0.565,0.066-1.157,0.196-1.753l3.771-17.311h48.758c4.513,0,8.17-3.658,8.17-8.17
			c0-4.512-3.657-8.17-8.17-8.17h-45.199l25.894-118.858c0.81-3.719,4.164-6.419,7.974-6.419s7.164,2.699,7.974,6.417
			l33.224,152.505c0.131,0.601,0.197,1.193,0.197,1.758c0,4.506-3.665,8.17-8.17,8.17H388.356z"/>
	</g>
</g>
<g>
	<g>
		<path d="M264.17,430.23h-16.34c-4.513,0-8.17,3.658-8.17,8.17c0,4.512,3.657,8.17,8.17,8.17h16.34c4.513,0,8.17-3.658,8.17-8.17
			C272.34,433.888,268.683,430.23,264.17,430.23z"/>
	</g>
</g>
<g>
	<g>
		<path d="M471.149,462.911h-16.34c-4.513,0-8.17,3.658-8.17,8.17c0,4.512,3.657,8.17,8.17,8.17h16.34c4.513,0,8.17-3.658,8.17-8.17
			C479.319,466.569,475.662,462.911,471.149,462.911z"/>
	</g>
</g>
<g>
	<g>
		<path d="M24.511,462.911H8.17c-4.513,0-8.17,3.658-8.17,8.17c0,4.512,3.657,8.17,8.17,8.17h16.34c4.513,0,8.17-3.658,8.17-8.17
			C32.681,466.569,29.024,462.911,24.511,462.911z"/>
	</g>
</g>
<g>
	<g>
		<path d="M503.83,430.23h-16.34c-4.513,0-8.17,3.658-8.17,8.17c0,4.512,3.657,8.17,8.17,8.17h16.34c4.513,0,8.17-3.658,8.17-8.17
			C512,433.888,508.343,430.23,503.83,430.23z"/>
	</g>
</g>
<g>
	<g>
		<path d="M198.809,386.655h-16.34c-4.513,0-8.17,3.658-8.17,8.17s3.657,8.17,8.17,8.17h16.34c4.513,0,8.17-3.658,8.17-8.17
			S203.322,386.655,198.809,386.655z"/>
	</g>
</g>
<g>
</g>
<g>
</g>
<g>
</g>
<g>
</g>
<g>
</g>
<g>
</g>
<g>
</g>
<g>
</g>
<g>
</g>
<g>
</g>
<g>
</g>
<g>
</g>
<g>
</g>
<g>
</g>
<g>
</g>
</svg>
