<?xml version="1.0" encoding="iso-8859-1"?>
<!-- Generator: Adobe Illustrator 19.0.0, SVG Export Plug-In . SVG Version: 6.00 Build 0)  -->
<svg version="1.1" id="Layer_1" xmlns="http://www.w3.org/2000/svg" xmlns:xlink="http://www.w3.org/1999/xlink" x="0px" y="0px"
	 viewBox="0 0 511.6 511.6" style="enable-background:new 0 0 511.6 511.6;" xml:space="preserve">
<g>
	<g>
		<path d="M421.309,250.2c1.382-3.507,33.476-86.144,8.704-142.455c-2.202-8.508-19.243-63.676-89.95-65.434
			c-16.495-15.258-105.788-88.405-214.195,2.338c-1.152,1.102-112.408,110.459-11.058,222.907c-0.052,1.993-0.097,3.999-0.097,6.073
			c0,58.291,5.717,117.658,47.249,157.073c6.69,6.351,13.889,12.032,21.247,17.367v54.997c0,4.71,3.814,8.533,8.533,8.533
			s8.533-3.823,8.533-8.533v-43.205c0.882,0.591,1.767,1.186,2.646,1.774l8.183,5.495c3.234,2.193,6.383,4.523,9.532,6.844
			c13.662,10.112,27.793,20.557,47.676,20.557c19.874,0,34.005-10.445,47.667-20.557c3.149-2.321,6.298-4.651,9.532-6.844
			l8.183-5.495c1.034-0.692,2.075-1.391,3.114-2.087v43.518c0,4.71,3.814,8.533,8.533,8.533c4.719,0,8.533-3.823,8.533-8.533
			v-55.333c7.196-5.237,14.231-10.815,20.78-17.031c41.532-39.415,47.258-98.782,47.258-157.073c0-7.516-0.235-15.059-0.721-23.475
			L421.309,250.2z M97.588,120.289c13.713-37.521,39.697-62.95,39.663-62.95v0.009c106.692-89.293,189.653-4.335,193.135-0.674
			l2.534,2.662h3.652c65.041,0,76.518,50.765,76.971,52.89l0.58,1.809c18.879,41.93-0.027,104.932-6.613,124.143
			c-10.141-1.015-18.284-4.732-24.237-11.097c-13.722-14.669-12.587-39.023-12.578-39.27c0.008-0.162,0.017-0.316,0.017-0.478
			c0-28.032-6.997-48.981-20.787-62.268c-14.857-14.31-32.785-14.788-38.008-14.609c-5.257,0.188-9.429,4.48-9.481,9.788
			c-0.213,17.98-5.137,31.343-14.66,39.723c-14.413,12.672-35.277,10.394-35.473,10.368c-0.35-0.043-0.708-0.068-1.058-0.068
			c-83.514,0-118.556,52.167-130.706,77.698C88.743,208.51,81.004,165.619,97.588,120.289z M362.905,418.329
			c-11.563,10.982-25.361,20.198-38.699,29.116L315.929,453c-3.422,2.321-6.758,4.796-10.095,7.262
			c-11.964,8.849-23.279,17.203-37.521,17.203c-14.251,0-25.566-8.354-37.53-17.203c-3.336-2.466-6.673-4.941-10.095-7.262
			l-8.277-5.555c-13.338-8.917-27.136-18.133-38.699-29.116c-38.699-36.736-41.933-93.952-41.933-144.7
			c0-2.466,0.06-4.813,0.128-7.177l0.051-1.545c4.045-11.887,30.362-77.355,118.835-77.577c4.326,0.418,29.252,2.022,48.094-14.421
			c11.921-10.402,18.722-25.498,20.267-44.937c5.308,0.87,12.535,3.226,18.935,9.387c10.283,9.907,15.522,26.658,15.556,49.766
			c-0.154,3.422-0.87,32.239,17.067,51.516c8.61,9.25,19.908,14.737,33.655,16.375c0.324,6.554,0.478,12.595,0.478,18.611
			C404.846,324.377,401.604,381.593,362.905,418.329z"/>
	</g>
</g>
<g>
</g>
<g>
</g>
<g>
</g>
<g>
</g>
<g>
</g>
<g>
</g>
<g>
</g>
<g>
</g>
<g>
</g>
<g>
</g>
<g>
</g>
<g>
</g>
<g>
</g>
<g>
</g>
<g>
</g>
</svg>
