<?xml version="1.0" encoding="iso-8859-1"?>
<!-- Generator: Adobe Illustrator 18.0.0, SVG Export Plug-In . SVG Version: 6.00 Build 0)  -->
<!DOCTYPE svg PUBLIC "-//W3C//DTD SVG 1.1//EN" "http://www.w3.org/Graphics/SVG/1.1/DTD/svg11.dtd">
<svg version="1.1" id="Capa_1" xmlns="http://www.w3.org/2000/svg" xmlns:xlink="http://www.w3.org/1999/xlink" x="0px" y="0px"
	 viewBox="0 0 114.4 114.4" style="enable-background:new 0 0 114.4 114.4;" xml:space="preserve">
<g>
	<path style="fill:#FFC847;" d="M57.2,16.919c0.663,0,1.2-0.537,1.2-1.2v-4.788c0-0.663-0.538-1.2-1.2-1.2
		c-0.663,0-1.2,0.537-1.2,1.2v4.788C56,16.382,56.538,16.919,57.2,16.919z"/>
	<path style="fill:#FFC847;" d="M57.2,7.188c0.663,0,1.2-0.537,1.2-1.2V1.2c0-0.663-0.538-1.2-1.2-1.2C56.538,0,56,0.537,56,1.2
		v4.788C56,6.651,56.538,7.188,57.2,7.188z"/>
	<path style="fill:#FFC847;" d="M57.2,97.482c-0.663,0-1.2,0.537-1.2,1.2v4.788c0,0.663,0.538,1.2,1.2,1.2
		c0.663,0,1.2-0.537,1.2-1.2v-4.788C58.4,98.02,57.863,97.482,57.2,97.482z"/>
	<path style="fill:#FFC847;" d="M57.2,107.213c-0.663,0-1.2,0.537-1.2,1.2v4.787c0,0.663,0.538,1.2,1.2,1.2
		c0.663,0,1.2-0.537,1.2-1.2v-4.787C58.4,107.75,57.863,107.213,57.2,107.213z"/>
	<path style="fill:#FFC847;" d="M40.217,19.335c0.192,0.462,0.639,0.741,1.109,0.741c0.153,0,0.309-0.029,0.458-0.092
		c0.612-0.253,0.903-0.955,0.65-1.567l-1.832-4.423c-0.254-0.612-0.957-0.905-1.568-0.649c-0.612,0.253-0.903,0.955-0.65,1.567
		L40.217,19.335z"/>
	<path style="fill:#FFC847;" d="M74.183,95.066c-0.254-0.613-0.956-0.906-1.568-0.649c-0.612,0.254-0.903,0.955-0.649,1.567
		l1.833,4.423c0.191,0.463,0.638,0.741,1.109,0.741c0.153,0,0.309-0.029,0.459-0.092c0.612-0.254,0.903-0.955,0.649-1.567
		L74.183,95.066z"/>
	<path style="fill:#FFC847;" d="M27.02,28.717c0.234,0.234,0.542,0.352,0.849,0.352c0.307,0,0.614-0.117,0.849-0.352
		c0.469-0.469,0.468-1.229,0-1.697l-3.386-3.385c-0.469-0.469-1.229-0.469-1.697,0c-0.469,0.469-0.468,1.229,0,1.697L27.02,28.717z"
		/>
	<path style="fill:#FFC847;" d="M18.451,16.754c-0.469-0.469-1.229-0.469-1.697,0c-0.468,0.469-0.469,1.229,0,1.697l3.385,3.386
		c0.234,0.234,0.542,0.352,0.849,0.352c0.307,0,0.614-0.117,0.849-0.352c0.468-0.469,0.469-1.229,0-1.697L18.451,16.754z"/>
	<path style="fill:#FFC847;" d="M87.381,85.685c-0.469-0.469-1.229-0.469-1.697,0c-0.469,0.469-0.469,1.229,0,1.697l3.386,3.386
		c0.234,0.234,0.542,0.352,0.849,0.352c0.307,0,0.614-0.117,0.849-0.352c0.469-0.469,0.469-1.229,0-1.697L87.381,85.685z"/>
	<path style="fill:#FFC847;" d="M94.261,92.564c-0.469-0.469-1.229-0.469-1.697,0c-0.469,0.469-0.469,1.229,0,1.697l3.386,3.386
		c0.234,0.234,0.541,0.352,0.849,0.352c0.307,0,0.614-0.117,0.849-0.352c0.469-0.469,0.469-1.229,0-1.697L94.261,92.564z"/>
	<path style="fill:#FFC847;" d="M13.994,40.603l4.423,1.832c0.15,0.063,0.306,0.092,0.458,0.092c0.471,0,0.918-0.279,1.109-0.741
		c0.253-0.612-0.038-1.314-0.65-1.567l-4.423-1.832c-0.611-0.256-1.314,0.037-1.568,0.649C13.09,39.647,13.381,40.35,13.994,40.603z
		"/>
	<path style="fill:#FFC847;" d="M10.995,38.062c0.253-0.612-0.038-1.314-0.65-1.567l-4.423-1.832
		c-0.612-0.256-1.314,0.037-1.568,0.649c-0.253,0.612,0.038,1.314,0.65,1.567l4.423,1.832c0.15,0.063,0.306,0.092,0.458,0.092
		C10.356,38.803,10.804,38.523,10.995,38.062z"/>
	<path style="fill:#FFC847;" d="M100.407,73.799l-4.424-1.832c-0.611-0.256-1.314,0.037-1.568,0.649
		c-0.253,0.612,0.038,1.314,0.65,1.567l4.424,1.832c0.15,0.063,0.306,0.092,0.459,0.092c0.471,0,0.918-0.279,1.109-0.741
		C101.311,74.754,101.02,74.052,100.407,73.799z"/>
	<path style="fill:#FFC847;" d="M16.918,57.201c0-0.663-0.538-1.2-1.2-1.2h-4.788c-0.663,0-1.2,0.537-1.2,1.2
		c0,0.663,0.538,1.2,1.2,1.2h4.788C16.381,58.401,16.918,57.864,16.918,57.201z"/>
	<path style="fill:#FFC847;" d="M5.988,56.001H1.2c-0.663,0-1.2,0.537-1.2,1.2c0,0.663,0.538,1.2,1.2,1.2h4.788
		c0.663,0,1.2-0.537,1.2-1.2C7.189,56.538,6.651,56.001,5.988,56.001z"/>
	<path style="fill:#FFC847;" d="M103.47,56.001h-4.788c-0.663,0-1.2,0.537-1.2,1.2c0,0.663,0.538,1.2,1.2,1.2h4.788
		c0.663,0,1.2-0.537,1.2-1.2C104.67,56.538,104.133,56.001,103.47,56.001z"/>
	<path style="fill:#FFC847;" d="M113.2,56.001h-4.788c-0.663,0-1.2,0.537-1.2,1.2c0,0.663,0.538,1.2,1.2,1.2h4.788
		c0.663,0,1.2-0.537,1.2-1.2C114.4,56.538,113.863,56.001,113.2,56.001z"/>
	<path style="fill:#FFC847;" d="M19.985,72.616c-0.253-0.612-0.955-0.904-1.568-0.649l-4.423,1.832
		c-0.612,0.253-0.903,0.955-0.65,1.567c0.191,0.462,0.638,0.741,1.109,0.741c0.153,0,0.309-0.029,0.458-0.092l4.423-1.832
		C19.947,73.931,20.238,73.229,19.985,72.616z"/>
	<path style="fill:#FFC847;" d="M94.415,41.785c0.191,0.462,0.638,0.741,1.109,0.741c0.153,0,0.309-0.029,0.458-0.092l4.424-1.832
		c0.612-0.253,0.903-0.955,0.65-1.567c-0.253-0.612-0.956-0.904-1.568-0.649l-4.424,1.832
		C94.453,40.471,94.162,41.173,94.415,41.785z"/>
	<path style="fill:#FFC847;" d="M27.02,85.685l-3.386,3.386c-0.469,0.469-0.469,1.229,0,1.697c0.234,0.234,0.541,0.352,0.849,0.352
		s0.614-0.117,0.849-0.352l3.386-3.386c0.469-0.469,0.469-1.229,0-1.697C28.248,85.216,27.488,85.216,27.02,85.685z"/>
	<path style="fill:#FFC847;" d="M20.139,92.564l-3.385,3.386c-0.469,0.469-0.468,1.229,0,1.697c0.234,0.234,0.542,0.352,0.849,0.352
		s0.614-0.117,0.849-0.352l3.385-3.386c0.469-0.469,0.468-1.229,0-1.697C21.368,92.096,20.608,92.096,20.139,92.564z"/>
	<path style="fill:#FFC847;" d="M86.532,29.068c0.307,0,0.614-0.117,0.849-0.352l3.386-3.385c0.468-0.469,0.469-1.229,0-1.697
		c-0.469-0.469-1.229-0.469-1.697,0l-3.386,3.385c-0.468,0.469-0.469,1.228,0,1.697C85.918,28.951,86.225,29.068,86.532,29.068z"/>
	<path style="fill:#FFC847;" d="M93.413,22.188c0.307,0,0.614-0.117,0.849-0.352l3.386-3.386c0.469-0.469,0.469-1.229,0-1.697
		c-0.469-0.469-1.229-0.469-1.697,0l-3.386,3.386c-0.469,0.469-0.469,1.229,0,1.697C92.798,22.071,93.105,22.188,93.413,22.188z"/>
	<path style="fill:#FFC847;" d="M41.785,94.417c-0.612-0.257-1.314,0.038-1.568,0.649l-1.832,4.423
		c-0.253,0.612,0.038,1.314,0.65,1.567c0.15,0.063,0.306,0.092,0.458,0.092c0.471,0,0.918-0.279,1.109-0.741l1.832-4.423
		C42.688,95.372,42.397,94.67,41.785,94.417z"/>
	<path style="fill:#FFC847;" d="M72.615,19.984c0.15,0.063,0.306,0.092,0.459,0.092c0.471,0,0.918-0.279,1.109-0.741l1.833-4.423
		c0.254-0.612-0.037-1.313-0.649-1.567c-0.613-0.256-1.314,0.037-1.568,0.649l-1.833,4.423
		C71.712,19.029,72.003,19.73,72.615,19.984z"/>
	<path style="fill:#FFC847;" d="M57.2,26.309c-17.034,0-30.892,13.858-30.892,30.892c0,17.034,13.858,30.893,30.892,30.893
		c17.034,0,30.893-13.858,30.893-30.893C88.093,40.167,74.234,26.309,57.2,26.309z M28.708,57.2c0-13.014,8.774-24.01,20.715-27.403
		c-1.686,1.867-2.722,4.331-2.722,7.038c0,3.981,2.224,7.453,5.494,9.241c-4.241,1.915-7.205,6.176-7.205,11.124
		c0,6.732,5.477,12.21,12.209,12.21c0.275,0,0.545-0.023,0.816-0.041c0.069,0.012,0.132,0.041,0.205,0.041
		c4.48,0,8.125,3.645,8.125,8.125c0,4.48-3.645,8.125-8.125,8.125c-0.013,0-0.023,0.007-0.036,0.007
		c-0.328,0.012-0.655,0.025-0.986,0.025C41.49,85.692,28.708,72.911,28.708,57.2z M57.2,67.01c-5.409,0-9.809-4.4-9.809-9.81
		c0-5.408,4.4-9.809,9.809-9.809c5.409,0,9.809,4.4,9.809,9.809C67.01,62.609,62.609,67.01,57.2,67.01z M66.387,84.164
		c1.473-1.812,2.36-4.118,2.36-6.629c0-4.176-2.45-7.78-5.983-9.479c3.94-2.028,6.646-6.128,6.646-10.856
		c0-6.648-5.345-12.063-11.962-12.196c-0.074-0.015-0.143-0.045-0.222-0.045c-4.48,0-8.125-3.645-8.125-8.124
		c0-4.48,3.645-8.125,8.125-8.125h0.001c15.698,0.015,28.464,12.789,28.464,28.49C85.692,69.697,77.603,80.332,66.387,84.164z"/>
</g>
<g>
</g>
<g>
</g>
<g>
</g>
<g>
</g>
<g>
</g>
<g>
</g>
<g>
</g>
<g>
</g>
<g>
</g>
<g>
</g>
<g>
</g>
<g>
</g>
<g>
</g>
<g>
</g>
<g>
</g>
</svg>
