<?xml version="1.0" encoding="iso-8859-1"?>
<!-- Generator: Adobe Illustrator 16.0.0, SVG Export Plug-In . SVG Version: 6.00 Build 0)  -->
<!DOCTYPE svg PUBLIC "-//W3C//DTD SVG 1.1//EN" "http://www.w3.org/Graphics/SVG/1.1/DTD/svg11.dtd">
<svg version="1.1" id="Capa_1" xmlns="http://www.w3.org/2000/svg" xmlns:xlink="http://www.w3.org/1999/xlink" x="0px" y="0px"
	 width="532.523px" height="532.523px" viewBox="0 0 532.523 532.523" style="enable-background:new 0 0 532.523 532.523;"
	 xml:space="preserve">
<g>
	<path d="M51.107,113.462c-1.071-0.772-1.3-2.271-0.525-3.335c0.779-1.071,2.275-1.295,3.334-0.527l137.915,100.214
		c1.071,0.775,1.302,2.271,0.527,3.334c-0.469,0.646-1.195,0.985-1.932,0.985c-0.493,0-0.98-0.147-1.405-0.457L51.107,113.462z
		 M234.691,178.32c0.324,1.008,1.267,1.652,2.275,1.652c0.243,0,0.497-0.038,0.735-0.114c1.258-0.406,1.942-1.759,1.536-3.01
		L186.555,14.706c-0.406-1.255-1.748-1.939-3.01-1.533c-1.255,0.406-1.939,1.759-1.533,3.01L234.691,178.32z M293.942,179.571
		c0.242,0.082,0.494,0.114,0.737,0.114c1.008,0,1.941-0.639,2.272-1.652l52.687-162.137c0.401-1.251-0.279-2.6-1.535-3.01
		c-1.256-0.401-2.604,0.282-3.01,1.533l-52.683,162.141C292,177.818,292.682,179.165,293.942,179.571z M339.614,212.395
		c0.467,0.644,1.194,0.984,1.932,0.984c0.495,0,0.98-0.149,1.405-0.459l137.917-100.193c1.073-0.775,1.307-2.271,0.532-3.337
		c-0.775-1.064-2.278-1.3-3.342-0.525L340.142,209.053C339.072,209.828,338.84,211.323,339.614,212.395z M530.134,263.415H359.65
		c-1.321,0-2.391,1.071-2.391,2.39c0,1.323,1.069,2.392,2.391,2.392h170.483c1.32,0,2.39-1.069,2.39-2.392
		C532.523,264.486,531.454,263.415,530.134,263.415z M343.488,318.853c-1.064-0.774-2.559-0.546-3.338,0.527
		c-0.774,1.069-0.536,2.562,0.527,3.337L478.6,422.929c0.42,0.304,0.91,0.457,1.4,0.457c0.737,0,1.465-0.336,1.932-0.984
		c0.775-1.069,0.542-2.562-0.522-3.332L343.488,318.853z M297.825,354.211c-0.401-1.251-1.745-1.941-3.006-1.536
		c-1.26,0.406-1.941,1.76-1.54,3.011l52.682,162.134c0.327,1.013,1.27,1.657,2.278,1.657c0.242,0,0.494-0.037,0.737-0.117
		c1.25-0.405,1.937-1.759,1.53-3.01L297.825,354.211z M238.577,352.96c-1.253-0.411-2.604,0.28-3.01,1.53l-52.68,162.135
		c-0.406,1.256,0.28,2.604,1.533,3.015c0.242,0.079,0.497,0.112,0.735,0.112c1.01,0,1.946-0.64,2.275-1.652l52.68-162.13
		C240.516,354.71,239.834,353.366,238.577,352.96z M192.902,320.132c-0.775-1.073-2.275-1.298-3.335-0.527L51.653,419.802
		c-1.071,0.774-1.302,2.272-0.527,3.337c0.469,0.645,1.195,0.984,1.932,0.984c0.493,0,0.978-0.148,1.405-0.457l137.915-100.202
		C193.448,322.693,193.682,321.195,192.902,320.132z M175.253,266.726c0-1.323-1.071-2.392-2.389-2.392H2.39
		c-1.321,0-2.39,1.069-2.39,2.392c0,1.316,1.069,2.389,2.39,2.389h170.475C174.183,269.115,175.253,268.042,175.253,266.726z
		 M75.399,326.6c0.483,1.531,1.664,2.656,3.083,3.118c0.474,0.154,0.971,0.233,1.482,0.233c0.474,0,0.95-0.07,1.428-0.22
		l31.972-10.02c2.521-0.789,3.92-3.473,3.132-5.988c-0.789-2.521-3.465-3.935-5.988-3.132h-0.009c-0.007,0-0.012,0-0.017,0
		l-31.953,10.016c-0.63,0.196-1.188,0.514-1.662,0.915c-0.947,0.803-1.549,1.95-1.668,3.188
		C75.145,325.326,75.203,325.97,75.399,326.6z M79.39,208.943l31.743,10.678c0.009,0,0.019,0,0.028,0.005l0,0
		c0.501,0.17,1.017,0.252,1.519,0.252c2,0,3.862-1.26,4.532-3.26c0.84-2.499-0.506-5.213-3.01-6.053l-16.097-5.417l-15.661-5.271
		c-0.235-0.077-0.469-0.047-0.702-0.091c-0.397-0.065-0.793-0.177-1.181-0.147c-1.864,0.138-3.537,1.368-4.172,3.239
		C75.548,205.394,76.89,208.103,79.39,208.943z M168.171,137.348c0.931,1.309,2.408,2.012,3.899,2.012
		c0.957,0,1.921-0.287,2.763-0.885c2.149-1.528,2.656-4.511,1.127-6.66l-19.398-27.293c-1.529-2.152-4.511-2.653-6.667-1.129
		c-2.149,1.531-2.656,4.513-1.127,6.662L168.171,137.348z M267.402,109.151c0.021,0,0.04,0,0.054,0c2.618,0,4.751-2.107,4.779-4.732
		l0.351-33.486c0.027-2.637-2.096-4.798-4.729-4.826c-0.019,0-0.037,0-0.051,0c-2.621,0-4.751,2.107-4.779,4.73l-0.35,33.488
		C262.649,106.963,264.771,109.124,267.402,109.151z M358.544,133.147c-1.568,2.116-1.13,5.108,0.989,6.686
		c0.858,0.635,1.857,0.943,2.847,0.943c1.461,0,2.903-0.67,3.841-1.932l19.98-26.887c1.568-2.117,1.129-5.108-0.99-6.686
		c-2.118-1.578-5.114-1.127-6.683,0.989L358.544,133.147z M451.139,202.804l-31.97,10.02c-2.521,0.789-3.92,3.47-3.132,5.988
		c0.64,2.042,2.525,3.351,4.561,3.351c0.476,0,0.951-0.072,1.428-0.219l31.97-10.022c2.52-0.789,3.92-3.47,3.127-5.988
		C456.328,203.415,453.659,202.01,451.139,202.804z M453.127,323.59l-31.755-10.678c-2.492-0.841-5.209,0.508-6.058,3.01
		c-0.841,2.497,0.508,5.213,3.015,6.053l31.755,10.679c0.504,0.168,1.018,0.252,1.521,0.252c1.997,0,3.859-1.26,4.527-3.258
		C456.973,327.142,455.628,324.426,453.127,323.59z M383.746,422.48l-6.898-9.703l-12.508-17.6c-0.765-1.078-1.89-1.74-3.099-1.941
		c-1.204-0.205-2.492,0.047-3.565,0.812c-2.146,1.531-2.66,4.513-1.13,6.664l19.415,27.312c0.934,1.307,2.408,2.007,3.902,2.007
		c0.952,0,1.918-0.29,2.763-0.887c1.078-0.766,1.736-1.891,1.941-3.095C384.764,424.842,384.507,423.554,383.746,422.48z
		 M265.104,423.367c-0.014,0-0.033,0-0.046,0c-1.965,0-3.657,1.19-4.387,2.889c-0.25,0.57-0.392,1.195-0.397,1.849l-0.336,33.486
		c-0.028,2.637,2.096,4.803,4.732,4.825c0.014,0,0.033,0,0.047,0c2.621,0,4.751-2.104,4.779-4.728l0.341-33.5
		C269.864,425.557,267.75,423.396,265.104,423.367z M173.973,399.374c1.573-2.119,1.127-5.115-0.99-6.688
		c-1.586-1.181-3.67-1.223-5.276-0.271c-0.301,0.183-0.539,0.472-0.808,0.724c-0.196,0.187-0.429,0.312-0.597,0.537l0,0
		c-0.005,0-0.009,0.004-0.009,0.004l-19.964,26.893c-0.786,1.059-1.068,2.338-0.894,3.547c0.182,1.208,0.824,2.352,1.883,3.141
		c0.856,0.635,1.855,0.938,2.844,0.938c1.463,0,2.901-0.667,3.844-1.927L173.973,399.374z M54.586,156.23l36.054,19.317
		c0.359,0.191,0.747,0.282,1.127,0.282c0.852,0,1.678-0.459,2.104-1.262c0.472-0.88,0.334-1.916-0.259-2.644
		c-0.196-0.243-0.446-0.458-0.735-0.611l-36.035-19.303c-0.292-0.152-0.598-0.243-0.903-0.271c-0.924-0.086-1.864,0.378-2.329,1.25
		c-0.156,0.292-0.248,0.598-0.278,0.908C53.254,154.831,53.711,155.762,54.586,156.23z M300.196,73.953
		c0.145,0.025,0.294,0.04,0.429,0.04c1.139,0,2.138-0.812,2.353-1.97l7.225-40.235c0.238-1.3-0.625-2.541-1.923-2.777
		c-1.316-0.224-2.539,0.63-2.777,1.93l-7.229,40.237C298.03,72.482,298.898,73.719,300.196,73.953z M408.477,131.369
		c0.598,0,1.19-0.219,1.657-0.665l29.496-28.311c0.952-0.912,0.979-2.427,0.069-3.379c-0.91-0.955-2.422-0.98-3.379-0.07
		l-29.496,28.31c-0.951,0.913-0.979,2.427-0.069,3.379C407.222,131.126,407.847,131.369,408.477,131.369z M459.633,239.109
		c0.163,1.195,1.186,2.065,2.361,2.065c0.112,0,0.22-0.005,0.327-0.019l40.52-5.559c1.307-0.182,2.222-1.386,2.044-2.69
		c-0.187-1.309-1.414-2.222-2.693-2.047l-40.515,5.559C460.365,236.596,459.451,237.804,459.633,239.109z M438.663,357.963
		c-0.63,1.167-0.187,2.609,0.976,3.234l36.039,19.321c0.364,0.191,0.747,0.28,1.13,0.28c0.85,0,1.68-0.457,2.104-1.26
		c0.626-1.167,0.188-2.609-0.975-3.234l-36.045-19.322C440.74,356.367,439.284,356.796,438.663,357.963z M355.016,442.895
		c-0.579-1.19-1.998-1.671-3.192-1.106c-1.194,0.579-1.689,2.003-1.11,3.192l17.818,36.814c0.42,0.849,1.27,1.344,2.156,1.344
		c0.346,0,0.7-0.074,1.036-0.238c1.194-0.578,1.689-2.002,1.11-3.192L355.016,442.895z M232.325,458.553
		c-1.305-0.233-2.542,0.63-2.777,1.932l-7.246,40.264c-0.233,1.292,0.632,2.543,1.928,2.776c0.142,0.023,0.287,0.037,0.429,0.037
		c1.134,0,2.138-0.808,2.348-1.97l7.243-40.253v-0.005l0,0C234.49,460.027,233.625,458.786,232.325,458.553z M123.204,401.302
		c-0.301,0.111-0.579,0.279-0.821,0.509l-29.487,28.314c-0.952,0.915-0.98,2.427-0.068,3.379c0.469,0.495,1.095,0.738,1.72,0.738
		c0.598,0,1.19-0.22,1.659-0.668l29.505-28.32c0.952-0.909,0.98-2.427,0.068-3.379C125.101,401.161,124.079,400.975,123.204,401.302
		z M72.9,293.412c-0.133-0.994-0.875-1.759-1.778-1.992c-0.152-0.047-0.315-0.023-0.483-0.028c-0.143-0.005-0.287-0.047-0.434-0.023
		H70.2c0,0-0.005,0-0.01,0l-40.513,5.568c-1.304,0.177-2.224,1.386-2.042,2.692c0.164,1.195,1.19,2.062,2.361,2.062
		c0.11,0,0.219-0.004,0.329-0.022l40.522-5.568C72.169,295.924,73.082,294.715,72.9,293.412z M159.693,52.815l17.805,36.809
		l0.007,0.005l0.009,0.014c0.416,0.852,1.265,1.349,2.149,1.349c0.35,0,0.702-0.077,1.043-0.241c1.19-0.579,1.687-2.002,1.108-3.192
		l-17.821-36.833c-0.429-0.894-1.339-1.391-2.275-1.342c-0.306,0.014-0.621,0.091-0.917,0.233c-0.894,0.43-1.396,1.344-1.344,2.275
		C159.472,52.208,159.549,52.519,159.693,52.815z M294.633,460.172c-0.07-0.047-0.149-0.065-0.225-0.107
		c-0.187-0.111-0.382-0.233-0.597-0.294c-0.299-0.084-0.616-0.112-0.934-0.07c-1.307,0.178-2.23,1.382-2.054,2.684l5.451,40.543
		c0.159,1.2,1.186,2.072,2.361,2.072c0.104,0,0.215-0.005,0.317-0.019c1.308-0.178,2.231-1.381,2.054-2.684l-5.441-40.538
		C295.473,461.101,295.123,460.545,294.633,460.172z M239.307,72.825c0.105,0,0.215-0.004,0.32-0.019
		c1.307-0.177,2.229-1.381,2.051-2.686l-5.449-40.521c-0.17-1.314-1.4-2.222-2.686-2.051c-1.305,0.177-2.226,1.381-2.049,2.686
		l5.449,40.522C237.104,71.955,238.131,72.825,239.307,72.825z M358.427,94.112c0.359,0.196,0.752,0.287,1.135,0.287
		c0.849,0,1.671-0.455,2.1-1.258l19.406-35.985c0.625-1.162,0.187-2.609-0.971-3.237c-1.158-0.635-2.614-0.196-3.239,0.971
		l-19.406,35.986C356.831,92.038,357.265,93.486,358.427,94.112z M479.981,160.268l-36.86,17.712
		c-1.19,0.574-1.69,1.997-1.121,3.188c0.421,0.856,1.274,1.358,2.156,1.358c0.351,0,0.7-0.077,1.036-0.233l36.861-17.712
		c1.194-0.574,1.693-1.998,1.12-3.188C482.604,160.198,481.176,159.705,479.981,160.268z M501.473,306.145l-40.234-7.342
		c-1.288-0.266-2.539,0.621-2.781,1.918c-0.233,1.298,0.625,2.544,1.922,2.782l40.235,7.346c0.145,0.028,0.294,0.037,0.435,0.037
		c1.129,0,2.137-0.808,2.347-1.96C503.629,307.629,502.766,306.383,501.473,306.145z M404.864,407.2
		c-0.9-0.956-2.417-0.989-3.379-0.079c-0.947,0.91-0.989,2.422-0.079,3.379l28.245,29.58c0.472,0.495,1.097,0.742,1.727,0.742
		c0.593,0,1.186-0.22,1.652-0.658c0.952-0.915,0.989-2.427,0.079-3.379L404.864,407.2z M174.096,438.4
		c-0.864-0.472-1.902-0.341-2.637,0.247c-0.25,0.196-0.459,0.438-0.616,0.737l-19.399,35.988c-0.625,1.162-0.191,2.608,0.971,3.238
		c0.357,0.196,0.749,0.285,1.132,0.285c0.85,0,1.673-0.453,2.103-1.256l19.413-36.006
		C175.692,440.473,175.258,439.025,174.096,438.4z M52.526,372.263l36.872-17.721c1.19-0.574,1.692-2.002,1.113-3.188
		c-0.579-1.19-1.993-1.685-3.188-1.12h-0.004c0,0-0.005,0-0.009,0L50.451,367.95c-1.188,0.574-1.692,1.998-1.113,3.188
		c0.411,0.854,1.268,1.354,2.152,1.354C51.842,372.501,52.192,372.422,52.526,372.263z M31.045,226.384l40.24,7.344
		c0.142,0.03,0.292,0.04,0.434,0.04c1.127,0,2.137-0.807,2.347-1.96c0.17-0.976-0.268-1.916-1.048-2.427
		c-0.268-0.177-0.564-0.308-0.898-0.369l-40.221-7.328c-1.286-0.252-2.541,0.616-2.781,1.923
		C28.889,224.907,29.75,226.148,31.045,226.384z M99.409,95.736l28.231,29.583c0,0,0.004,0,0.009,0.005l0.009,0.009
		c0.469,0.495,1.094,0.742,1.725,0.742c0.592,0,1.185-0.219,1.65-0.66c0.954-0.913,0.994-2.422,0.082-3.379l-28.25-29.596
		c-0.455-0.479-1.062-0.726-1.673-0.74c-0.301-0.005-0.611,0.042-0.898,0.156c-0.296,0.109-0.569,0.278-0.807,0.501
		c-0.711,0.684-0.913,1.706-0.583,2.576C99.012,95.225,99.18,95.503,99.409,95.736z M189.532,231.697
		c-0.138,0.301-0.009,0.653,0.297,0.793l4.604,2.107c0.08,0.037,0.161,0.051,0.248,0.051c0.224,0,0.446-0.128,0.539-0.348
		c0.14-0.301,0.012-0.656-0.294-0.793l-4.604-2.107C190.034,231.266,189.672,231.401,189.532,231.697z M207.02,206.502
		c-0.233,0.229-0.238,0.607-0.009,0.845l3.535,3.62c0.122,0.119,0.278,0.18,0.432,0.18c0.147,0,0.301-0.056,0.42-0.17
		c0.233-0.231,0.238-0.606,0.01-0.847l-3.536-3.617C207.627,206.278,207.258,206.273,207.02,206.502z M234.619,195.03
		c0.082,0,0.159-0.014,0.241-0.046c0.301-0.128,0.443-0.483,0.31-0.784l-2.007-4.648c-0.13-0.308-0.478-0.441-0.789-0.312
		c-0.301,0.13-0.446,0.483-0.311,0.784l2.007,4.651C234.166,194.893,234.39,195.03,234.619,195.03z M262.463,188.455
		c0.009,0,0.014,0,0.023,0c0.329-0.014,0.588-0.29,0.574-0.621l-0.206-5.05c-0.019-0.332-0.259-0.602-0.621-0.574
		c-0.332,0.014-0.588,0.292-0.574,0.621l0.205,5.052C261.879,188.203,262.147,188.455,262.463,188.455z M290.629,192.274
		c0.064,0.019,0.121,0.028,0.187,0.028c0.252,0,0.485-0.156,0.564-0.406l1.619-4.793c0.107-0.311-0.061-0.651-0.373-0.761
		c-0.299-0.096-0.648,0.063-0.756,0.378l-1.615,4.793C290.143,191.829,290.311,192.169,290.629,192.274z M318.668,201.177
		l-3.225,3.895c-0.21,0.254-0.173,0.632,0.079,0.842c0.112,0.096,0.252,0.138,0.383,0.138c0.173,0,0.341-0.077,0.467-0.215
		l3.225-3.895c0.21-0.254,0.173-0.63-0.079-0.84C319.256,200.885,318.883,200.925,318.668,201.177z M338.513,224.279l-4.405,2.485
		c-0.29,0.164-0.388,0.525-0.234,0.814c0.112,0.194,0.313,0.299,0.523,0.299c0.103,0,0.2-0.023,0.299-0.075l4.405-2.485
		c0.285-0.163,0.383-0.525,0.229-0.812C339.166,224.228,338.812,224.123,338.513,224.279z M348.762,252.963l-5.003,0.733
		c-0.317,0.046-0.551,0.348-0.505,0.679c0.052,0.296,0.304,0.511,0.598,0.511c0.028,0,0.057,0,0.089-0.005l5.003-0.732
		c0.322-0.047,0.551-0.348,0.5-0.677C349.396,253.145,349.135,252.907,348.762,252.963z M347.917,284.597
		c0.275,0,0.518-0.191,0.583-0.467c0.075-0.322-0.131-0.64-0.457-0.714l-4.934-1.106c-0.303-0.07-0.639,0.131-0.714,0.452
		c-0.069,0.322,0.131,0.64,0.458,0.715l4.938,1.105C347.828,284.592,347.875,284.597,347.917,284.597z M336.146,312.678
		c0.191,0,0.383-0.093,0.499-0.266c0.178-0.271,0.103-0.644-0.168-0.826l-4.219-2.795c-0.284-0.188-0.653-0.112-0.835,0.168
		c-0.183,0.271-0.107,0.644,0.168,0.826l4.224,2.795C335.918,312.646,336.039,312.678,336.146,312.678z M315.084,334.674
		c0.121,0,0.242-0.032,0.346-0.111c0.271-0.191,0.326-0.565,0.14-0.831l-2.927-4.116c-0.195-0.275-0.573-0.327-0.835-0.141
		c-0.271,0.191-0.327,0.561-0.136,0.831l2.927,4.112C314.72,334.586,314.897,334.674,315.084,334.674z M286.134,341.596
		c-0.317,0.079-0.513,0.406-0.434,0.723l1.26,4.9c0.075,0.267,0.308,0.448,0.579,0.448c0.047,0,0.103-0.005,0.149-0.019
		c0.312-0.079,0.509-0.406,0.429-0.728l-1.26-4.896C286.778,341.703,286.475,341.507,286.134,341.596z M257.816,343.715
		c-0.319-0.033-0.625,0.195-0.663,0.527l-0.579,5.017c-0.04,0.327,0.196,0.621,0.521,0.658c0.023,0,0.046,0.005,0.072,0.005
		c0.301,0,0.558-0.225,0.593-0.527l0.576-5.022C258.381,344.051,258.146,343.752,257.816,343.715z M228.005,341.147
		c0.215,0,0.425-0.112,0.525-0.317l2.347-4.485c0.152-0.289,0.042-0.653-0.254-0.808c-0.287-0.153-0.656-0.037-0.803,0.252
		l-2.348,4.485c-0.152,0.29-0.042,0.653,0.254,0.808C227.819,341.129,227.915,341.147,228.005,341.147z M203.928,322.507
		c0.138,0,0.282-0.051,0.396-0.149l3.79-3.337c0.248-0.214,0.273-0.597,0.054-0.84c-0.222-0.252-0.597-0.271-0.847-0.052
		l-3.79,3.333c-0.25,0.215-0.273,0.597-0.054,0.845C203.599,322.433,203.765,322.507,203.928,322.507z M188.333,296.437l4.742-1.759
		c0.306-0.117,0.469-0.458,0.348-0.771c-0.114-0.308-0.458-0.472-0.768-0.354l-4.742,1.76c-0.306,0.116-0.469,0.457-0.348,0.77
		c0.088,0.238,0.315,0.393,0.558,0.393C188.195,296.47,188.268,296.46,188.333,296.437z M182.709,266.502l5.052,0.061h0.005
		c0.324,0,0.593-0.266,0.597-0.595c0.005-0.329-0.264-0.598-0.593-0.602l-5.052-0.058h-0.005c-0.324,0-0.593,0.264-0.598,0.593
		C182.112,266.231,182.373,266.498,182.709,266.502z M187.831,235.765c-0.119,0.306,0.031,0.653,0.336,0.775l4.702,1.862
		c0.073,0.028,0.143,0.045,0.22,0.045c0.238,0,0.464-0.145,0.555-0.378c0.119-0.306-0.03-0.656-0.336-0.775l-4.702-1.864
		C188.314,235.31,187.958,235.459,187.831,235.765z M203.975,209.69c-0.224,0.243-0.21,0.621,0.035,0.845l3.722,3.423
		c0.114,0.105,0.264,0.156,0.406,0.156c0.164,0,0.32-0.065,0.441-0.196c0.224-0.242,0.21-0.621-0.035-0.845l-3.722-3.423
		C204.572,209.431,204.201,209.445,203.975,209.69z M230.906,196.776c0.091,0,0.182-0.019,0.268-0.061
		c0.296-0.149,0.416-0.504,0.271-0.798l-2.25-4.522c-0.149-0.296-0.506-0.406-0.803-0.269c-0.296,0.149-0.418,0.501-0.273,0.798
		l2.251,4.522C230.477,196.657,230.687,196.776,230.906,196.776z M258.367,188.763c0.019,0,0.037,0,0.056,0
		c0.327-0.03,0.569-0.322,0.537-0.651l-0.479-5.038c-0.033-0.329-0.315-0.597-0.651-0.539c-0.325,0.028-0.567,0.32-0.535,0.651
		l0.479,5.036C257.798,188.532,258.062,188.763,258.367,188.763z M286.718,191.099c0.056,0.014,0.111,0.019,0.158,0.019
		c0.267,0,0.499-0.17,0.579-0.434l1.354-4.866c0.093-0.314-0.094-0.648-0.416-0.735c-0.312-0.091-0.644,0.101-0.732,0.416
		l-1.354,4.865C286.218,190.679,286.4,191.007,286.718,191.099z M315.187,198.531l-3.015,4.056
		c-0.196,0.269-0.141,0.642,0.121,0.838c0.103,0.082,0.233,0.119,0.354,0.119c0.183,0,0.364-0.086,0.485-0.238l3.016-4.058
		c0.195-0.268,0.135-0.642-0.127-0.838C315.756,198.209,315.383,198.263,315.187,198.531z M336.217,220.566l-4.271,2.705
		c-0.275,0.177-0.359,0.546-0.183,0.821c0.112,0.182,0.309,0.278,0.504,0.278c0.107,0,0.215-0.028,0.318-0.096l4.274-2.705
		c0.275-0.177,0.354-0.543,0.178-0.821C336.87,220.466,336.496,220.394,336.217,220.566z M347.949,248.667l-4.956,0.994
		c-0.317,0.067-0.532,0.383-0.467,0.702c0.056,0.287,0.299,0.483,0.583,0.483c0.038,0,0.08-0.005,0.117-0.01l4.956-0.994
		c0.317-0.067,0.527-0.382,0.467-0.702C348.584,248.821,348.248,248.611,347.949,248.667z M348.733,280.298
		c0.29,0,0.542-0.205,0.588-0.499c0.057-0.322-0.158-0.635-0.494-0.687l-4.984-0.854c-0.313-0.065-0.635,0.163-0.687,0.489
		c-0.056,0.327,0.163,0.635,0.49,0.687l4.984,0.854C348.668,280.293,348.701,280.298,348.733,280.298z M338.447,308.954
		c0.205,0,0.401-0.107,0.509-0.299c0.168-0.285,0.079-0.648-0.21-0.816l-4.35-2.562c-0.289-0.168-0.653-0.07-0.816,0.21
		c-0.169,0.289-0.08,0.648,0.209,0.816l4.351,2.562C338.232,308.921,338.34,308.954,338.447,308.954z M318.557,332.023
		c0.13,0,0.266-0.042,0.373-0.126c0.262-0.206,0.299-0.584,0.098-0.841l-3.136-3.957c-0.201-0.266-0.574-0.304-0.836-0.103
		c-0.261,0.205-0.299,0.583-0.103,0.84l3.137,3.958C318.211,331.948,318.379,332.023,318.557,332.023z M291.739,346.439
		c0.065,0,0.121-0.009,0.177-0.027c0.318-0.103,0.495-0.435,0.393-0.752l-1.512-4.82c-0.104-0.318-0.458-0.486-0.747-0.393
		c-0.312,0.098-0.49,0.434-0.392,0.752l1.512,4.82C291.254,346.276,291.487,346.439,291.739,346.439z M261.249,344.61l-0.31,5.045
		c-0.021,0.331,0.233,0.611,0.558,0.635c0.014,0,0.023,0,0.04,0c0.311,0,0.576-0.242,0.598-0.56l0.31-5.045
		c0.019-0.332-0.236-0.611-0.56-0.635C261.56,344.055,261.272,344.274,261.249,344.61z M233.51,337.601l-2.103,4.611
		c-0.138,0.298-0.004,0.653,0.296,0.793c0.082,0.037,0.164,0.052,0.248,0.052c0.226,0,0.446-0.131,0.542-0.351l2.103-4.606
		c0.138-0.303,0.004-0.653-0.297-0.793C234.012,337.166,233.648,337.297,233.51,337.601z M206.924,325.694
		c0.149,0,0.301-0.061,0.42-0.173l3.615-3.542c0.233-0.229,0.238-0.606,0.005-0.845c-0.231-0.233-0.609-0.238-0.847-0.009
		l-3.612,3.537c-0.236,0.233-0.241,0.611-0.005,0.85C206.619,325.629,206.771,325.694,206.924,325.694z M189.787,300.521
		c0.082,0,0.156-0.014,0.238-0.047l4.641-2.007c0.301-0.131,0.443-0.48,0.306-0.789c-0.124-0.303-0.474-0.434-0.784-0.312
		l-4.639,2.007c-0.303,0.131-0.446,0.485-0.308,0.789C189.332,300.39,189.558,300.521,189.787,300.521z M182.805,270.88
		c0.01,0,0.019,0,0.028,0l5.052-0.22c0.325-0.014,0.583-0.294,0.569-0.62c-0.016-0.327-0.34-0.546-0.627-0.574l-5.052,0.22
		c-0.324,0.014-0.581,0.298-0.567,0.625C182.222,270.633,182.49,270.88,182.805,270.88z M186.345,239.921
		c-0.105,0.311,0.063,0.651,0.374,0.756l4.793,1.605c0.068,0.019,0.131,0.028,0.191,0.028c0.254,0,0.483-0.156,0.565-0.406
		c0.105-0.311-0.063-0.648-0.374-0.754l-4.793-1.605C186.767,239.433,186.455,239.61,186.345,239.921z M201.093,213.029
		c-0.21,0.254-0.17,0.632,0.082,0.842l3.895,3.22c0.109,0.096,0.25,0.14,0.383,0.14c0.172,0,0.34-0.077,0.464-0.217
		c0.21-0.252,0.173-0.63-0.082-0.84l-3.895-3.223C201.686,212.737,201.31,212.777,201.093,213.029z M226.757,198.431
		c0.11,0.196,0.311,0.301,0.521,0.301c0.101,0,0.201-0.023,0.296-0.077c0.287-0.163,0.387-0.525,0.231-0.812l-2.485-4.408
		c-0.163-0.285-0.516-0.385-0.816-0.224c-0.287,0.163-0.388,0.527-0.231,0.812L226.757,198.431z M254.286,189.288
		c0.028,0,0.056,0,0.091-0.004c0.324-0.049,0.548-0.35,0.501-0.679l-0.737-5.003c-0.051-0.326-0.324-0.574-0.684-0.501
		c-0.325,0.046-0.548,0.348-0.502,0.679l0.738,5.003C253.74,189.073,253.994,189.288,254.286,189.288z M282.755,190.128
		c0.042,0.009,0.089,0.016,0.126,0.016c0.28,0,0.523-0.191,0.588-0.469l1.098-4.928c0.069-0.32-0.127-0.639-0.453-0.711
		c-0.309-0.073-0.645,0.135-0.714,0.455l-1.097,4.926C282.232,189.736,282.433,190.058,282.755,190.128z M311.574,196.064
		l-2.8,4.205c-0.188,0.277-0.107,0.646,0.168,0.828c0.098,0.065,0.214,0.098,0.326,0.098c0.191,0,0.383-0.093,0.495-0.266l2.8-4.205
		c0.187-0.278,0.107-0.646-0.168-0.828C312.125,195.709,311.761,195.787,311.574,196.064z M333.725,216.959l-4.121,2.928
		c-0.275,0.191-0.332,0.565-0.136,0.831c0.112,0.168,0.299,0.254,0.485,0.254c0.121,0,0.243-0.033,0.346-0.11l4.116-2.929
		c0.271-0.191,0.331-0.564,0.14-0.833C334.359,216.826,333.98,216.768,333.725,216.959z M346.913,244.408l-4.891,1.263
		c-0.317,0.082-0.514,0.406-0.43,0.726c0.065,0.268,0.309,0.45,0.574,0.45c0.052,0,0.098-0.005,0.149-0.019l4.896-1.263
		c0.312-0.082,0.509-0.406,0.43-0.726C347.558,244.525,347.259,244.324,346.913,244.408z M349.914,275.431
		c0.042-0.327-0.195-0.626-0.518-0.663l-5.026-0.583c-0.313-0.028-0.626,0.195-0.663,0.522c-0.042,0.326,0.196,0.625,0.518,0.662
		l5.027,0.584c0.023,0,0.046,0.005,0.069,0.005C349.62,275.958,349.882,275.733,349.914,275.431z M340.543,305.117
		c0.215,0,0.425-0.111,0.527-0.317c0.149-0.298,0.042-0.657-0.252-0.807l-4.485-2.343c-0.294-0.149-0.658-0.038-0.803,0.252
		c-0.154,0.299-0.042,0.653,0.252,0.807l4.485,2.344C340.356,305.094,340.445,305.117,340.543,305.117z M321.907,329.195
		c0.136,0,0.28-0.047,0.392-0.145c0.252-0.225,0.275-0.598,0.057-0.846l-3.342-3.789c-0.22-0.252-0.593-0.271-0.85-0.052
		c-0.242,0.22-0.271,0.598-0.047,0.841l3.337,3.789C321.571,329.13,321.739,329.195,321.907,329.195z M293.896,339.099
		c-0.309,0.116-0.467,0.457-0.351,0.771l1.765,4.741c0.089,0.238,0.312,0.392,0.556,0.392c0.074,0,0.14-0.009,0.215-0.041
		c0.308-0.112,0.466-0.458,0.345-0.766l-1.764-4.742C294.549,339.141,294.213,338.978,293.896,339.099z M265.956,344.167
		c-0.324,0-0.593,0.266-0.598,0.593l-0.049,5.055c-0.005,0.326,0.264,0.598,0.593,0.602h0.005c0.326,0,0.593-0.266,0.597-0.593
		l0.05-5.054C266.558,344.442,266.289,344.167,265.956,344.167L265.956,344.167z M235.767,344.699
		c0.07,0.027,0.143,0.042,0.22,0.042c0.238,0,0.464-0.14,0.553-0.378l1.865-4.695c0.119-0.309-0.028-0.653-0.333-0.774
		c-0.292-0.117-0.651,0.027-0.775,0.336l-1.865,4.694C235.307,344.232,235.461,344.582,235.767,344.699z M210.093,328.719
		c0.161,0,0.32-0.065,0.439-0.195l3.418-3.729c0.224-0.243,0.21-0.621-0.04-0.845c-0.238-0.22-0.616-0.201-0.84,0.037l-3.418,3.729
		c-0.224,0.242-0.21,0.62,0.04,0.845C209.806,328.672,209.949,328.719,210.093,328.719z M191.661,304.479
		c0.091,0,0.182-0.02,0.266-0.061l4.522-2.25c0.296-0.149,0.415-0.504,0.273-0.803c-0.149-0.289-0.509-0.411-0.805-0.266
		l-4.52,2.249c-0.296,0.149-0.416,0.504-0.273,0.798C191.229,304.361,191.441,304.479,191.661,304.479z M183.134,275.243
		c0.019,0,0.038,0,0.059,0l5.026-0.485c0.329-0.032,0.569-0.326,0.537-0.653c-0.035-0.326-0.35-0.578-0.651-0.536l-5.029,0.485
		c-0.329,0.037-0.567,0.326-0.535,0.658C182.569,275.015,182.833,275.243,183.134,275.243z M185.08,244.142
		c-0.091,0.32,0.101,0.649,0.416,0.735l4.875,1.354c0.051,0.014,0.105,0.019,0.156,0.019c0.264,0,0.502-0.173,0.574-0.434
		c0.091-0.322-0.101-0.651-0.415-0.737l-4.875-1.352C185.496,243.641,185.159,243.827,185.08,244.142z M198.402,216.518
		c-0.196,0.264-0.138,0.637,0.126,0.838l4.056,3.006c0.107,0.082,0.231,0.114,0.354,0.114c0.182,0,0.364-0.086,0.483-0.243
		c0.196-0.264,0.138-0.637-0.124-0.838l-4.058-3.005C198.981,216.198,198.603,216.256,198.402,216.518z M220.741,195.495
		c-0.278,0.177-0.359,0.546-0.182,0.823l2.709,4.261c0.109,0.182,0.306,0.278,0.501,0.278c0.11,0,0.219-0.028,0.32-0.096
		c0.278-0.177,0.359-0.544,0.182-0.821l-2.709-4.264C221.39,195.399,221.023,195.329,220.741,195.495z M250.242,190.018
		c0.038,0,0.082-0.004,0.115-0.009c0.326-0.065,0.532-0.383,0.469-0.703l-1.003-4.952c-0.068-0.319-0.387-0.521-0.698-0.467
		c-0.324,0.065-0.53,0.38-0.469,0.703l1.003,4.949C249.717,189.822,249.964,190.018,250.242,190.018z M278.746,189.369
		c0.037,0.005,0.07,0.01,0.103,0.01c0.289,0,0.542-0.206,0.588-0.497l0.841-4.98c0.056-0.324-0.159-0.637-0.49-0.688
		c-0.322-0.072-0.64,0.164-0.687,0.488l-0.845,4.979C278.205,189.005,278.424,189.315,278.746,189.369z M307.836,193.784
		l-2.571,4.354c-0.168,0.287-0.075,0.649,0.21,0.817c0.098,0.056,0.2,0.086,0.303,0.086c0.206,0,0.401-0.105,0.509-0.296
		l2.572-4.354c0.168-0.287,0.074-0.649-0.21-0.817C308.373,193.397,307.999,193.502,307.836,193.784z M331.045,213.498l-3.948,3.146
		c-0.261,0.206-0.303,0.583-0.098,0.835c0.116,0.149,0.294,0.224,0.472,0.224c0.126,0,0.261-0.042,0.368-0.128l3.953-3.146
		c0.262-0.206,0.299-0.581,0.094-0.835C331.68,213.335,331.307,213.288,331.045,213.498z M345.653,240.222l-4.816,1.512
		c-0.317,0.101-0.495,0.434-0.392,0.749c0.079,0.254,0.312,0.416,0.568,0.416c0.057,0,0.117-0.009,0.178-0.028l4.816-1.51
		c0.317-0.1,0.495-0.434,0.393-0.751C346.302,240.294,345.952,240.133,345.653,240.222z M350.278,271.034
		c0.019-0.327-0.238-0.611-0.56-0.635l-5.041-0.313c-0.303-0.027-0.621,0.229-0.64,0.561s0.238,0.611,0.561,0.635l5.04,0.312
		c0.019,0,0.028,0,0.042,0C349.994,271.594,350.26,271.352,350.278,271.034z M342.442,301.179c0.233,0,0.448-0.131,0.541-0.351
		c0.141-0.303,0.01-0.658-0.294-0.793l-4.592-2.096c-0.295-0.135-0.658-0.005-0.789,0.299c-0.14,0.299-0.005,0.653,0.299,0.793
		l4.592,2.092C342.274,301.155,342.363,301.179,342.442,301.179z M325.09,326.199c0.145,0,0.299-0.057,0.42-0.173
		c0.233-0.229,0.233-0.607,0-0.845l-3.528-3.607c-0.233-0.229-0.606-0.238-0.849-0.01c-0.233,0.229-0.233,0.606,0,0.845l3.528,3.607
		C324.777,326.138,324.932,326.199,325.09,326.199z M299.375,342.977c0.098,0.229,0.316,0.359,0.546,0.359
		c0.079,0,0.158-0.014,0.237-0.047c0.304-0.13,0.448-0.48,0.309-0.788l-2.007-4.635c-0.126-0.303-0.477-0.434-0.784-0.312
		c-0.304,0.131-0.448,0.485-0.309,0.789L299.375,342.977z M270.061,344.083c-0.01,0-0.019,0-0.028,0
		c-0.321,0.014-0.583,0.294-0.569,0.621l0.22,5.035c0.019,0.322,0.28,0.574,0.598,0.574c0.009,0,0.019,0,0.027,0
		c0.327-0.014,0.589-0.294,0.569-0.62l-0.219-5.036C270.644,344.33,270.373,344.083,270.061,344.083z M241.902,340.266
		c-0.329-0.107-0.653,0.069-0.754,0.378l-1.605,4.783c-0.105,0.309,0.061,0.649,0.371,0.757c0.068,0.019,0.131,0.027,0.191,0.027
		c0.254,0,0.483-0.158,0.565-0.406l1.605-4.783C242.385,340.709,242.219,340.368,241.902,340.266z M213.404,331.57
		c0.173,0,0.341-0.074,0.465-0.215l3.215-3.887c0.21-0.257,0.173-0.635-0.082-0.846c-0.257-0.21-0.625-0.177-0.845,0.084
		l-3.218,3.888c-0.21,0.257-0.17,0.631,0.082,0.845C213.136,331.528,213.271,331.57,213.404,331.57z M193.73,308.328
		c0.101,0,0.201-0.023,0.294-0.074l4.399-2.482c0.287-0.164,0.387-0.528,0.224-0.812c-0.154-0.289-0.516-0.388-0.812-0.229
		l-4.396,2.487c-0.287,0.163-0.387,0.527-0.227,0.812C193.317,308.221,193.518,308.328,193.73,308.328z M183.694,279.584
		c0.028,0,0.061,0,0.091-0.005l4.989-0.747c0.325-0.046,0.548-0.35,0.502-0.676c-0.054-0.322-0.35-0.542-0.684-0.504l-4.989,0.746
		c-0.325,0.047-0.551,0.354-0.502,0.682C183.143,279.374,183.402,279.584,183.694,279.584z M184.032,248.419
		c-0.072,0.32,0.128,0.64,0.455,0.712l4.926,1.094c0.049,0.009,0.091,0.014,0.128,0.014c0.277,0,0.522-0.191,0.583-0.469
		c0.072-0.319-0.128-0.639-0.453-0.711l-4.928-1.095C184.406,247.895,184.104,248.1,184.032,248.419z M195.889,220.137
		c-0.182,0.278-0.105,0.644,0.168,0.826l4.205,2.791c0.1,0.068,0.219,0.101,0.329,0.101c0.191,0,0.383-0.096,0.497-0.269
		c0.182-0.275,0.105-0.644-0.166-0.826l-4.205-2.791C196.439,219.782,196.076,219.859,195.889,220.137z M217.099,197.98
		c-0.273,0.191-0.329,0.565-0.138,0.831l2.929,4.112c0.114,0.164,0.301,0.248,0.487,0.248c0.119,0,0.245-0.033,0.346-0.11
		c0.271-0.191,0.329-0.562,0.138-0.831l-2.929-4.109C217.735,197.847,217.357,197.784,217.099,197.98z M246.251,190.961
		c0.054,0,0.1-0.005,0.149-0.019c0.315-0.086,0.511-0.409,0.429-0.729l-1.267-4.889c-0.086-0.319-0.416-0.501-0.726-0.429
		c-0.315,0.086-0.511,0.406-0.432,0.726l1.267,4.889C245.74,190.783,245.983,190.961,246.251,190.961z M274.723,188.823
		c0.02,0,0.038,0.005,0.065,0.005c0.299,0,0.561-0.224,0.593-0.53l0.564-5.02c0.043-0.329-0.195-0.621-0.522-0.658
		c-0.28-0.019-0.62,0.196-0.662,0.525l-0.565,5.02C274.153,188.494,274.387,188.786,274.723,188.823z M302.711,196.739l2.329-4.478
		c0.149-0.292,0.042-0.656-0.252-0.803c-0.294-0.149-0.658-0.04-0.812,0.252l-2.324,4.478c-0.154,0.292-0.047,0.656,0.252,0.803
		c0.093,0.049,0.182,0.068,0.279,0.068C302.398,197.063,302.604,196.944,302.711,196.739z M328.198,210.182l-3.79,3.344
		c-0.247,0.219-0.271,0.597-0.056,0.842c0.122,0.133,0.29,0.201,0.453,0.201c0.135,0,0.284-0.049,0.396-0.149l3.79-3.344
		c0.252-0.22,0.271-0.598,0.056-0.843C328.824,209.981,328.45,209.96,328.198,210.182z M344.188,236.099l-4.732,1.769
		c-0.308,0.114-0.471,0.458-0.35,0.768c0.089,0.241,0.312,0.388,0.556,0.388c0.074,0,0.14-0.009,0.214-0.037l4.732-1.769
		c0.304-0.114,0.467-0.458,0.346-0.77C344.841,236.143,344.491,235.989,344.188,236.099z M349.816,266.026l-5.055-0.044h-0.005
		c-0.326,0-0.593,0.264-0.597,0.595c-0.005,0.327,0.261,0.598,0.593,0.602l5.054,0.042l0,0c0.327,0,0.598-0.261,0.598-0.593
		C350.414,266.297,350.152,266.031,349.816,266.026z M344.137,297.137c0.238,0,0.462-0.14,0.555-0.378
		c0.122-0.304-0.027-0.653-0.336-0.774l-4.694-1.854c-0.294-0.107-0.653,0.028-0.775,0.336c-0.121,0.304,0.028,0.654,0.336,0.775
		l4.695,1.853C343.992,297.123,344.057,297.137,344.137,297.137z M328.114,323.034c0.168,0,0.322-0.065,0.443-0.195
		c0.224-0.243,0.21-0.621-0.032-0.845l-3.725-3.417c-0.252-0.219-0.625-0.2-0.85,0.038c-0.224,0.242-0.205,0.62,0.037,0.844
		l3.725,3.422C327.83,322.983,327.975,323.034,328.114,323.034z M301.362,335.812c-0.294,0.149-0.415,0.505-0.271,0.799l2.25,4.522
		c0.107,0.21,0.317,0.331,0.536,0.331c0.089,0,0.183-0.019,0.267-0.061c0.299-0.149,0.42-0.504,0.271-0.798l-2.25-4.522
		C302.016,335.789,301.661,335.673,301.362,335.812z M274.107,343.771c-0.337,0.037-0.57,0.326-0.542,0.658l0.49,5.03
		c0.032,0.309,0.294,0.542,0.593,0.542c0.019,0,0.037,0,0.056,0c0.331-0.033,0.569-0.327,0.537-0.658l-0.49-5.031
		C274.723,343.985,274.424,343.729,274.107,343.771z M245.808,341.437c-0.308-0.084-0.651,0.099-0.733,0.416l-1.351,4.872
		c-0.091,0.322,0.101,0.653,0.416,0.737c0.051,0.014,0.105,0.019,0.156,0.019c0.264,0,0.502-0.173,0.574-0.434l1.354-4.877
		C246.31,341.853,246.123,341.525,245.808,341.437z M216.865,334.25c0.182,0,0.364-0.089,0.483-0.248l3.006-4.056
		c0.196-0.261,0.138-0.635-0.124-0.835c-0.264-0.191-0.637-0.145-0.838,0.121l-3.006,4.061c-0.196,0.261-0.138,0.635,0.124,0.835
		C216.615,334.207,216.742,334.25,216.865,334.25z M195.999,312.071c0.11,0,0.222-0.028,0.322-0.093l4.261-2.712
		c0.277-0.178,0.359-0.546,0.182-0.821c-0.173-0.28-0.534-0.354-0.826-0.187l-4.263,2.711c-0.278,0.178-0.359,0.542-0.182,0.821
		C195.606,311.974,195.803,312.071,195.999,312.071z M184.466,283.887c0.04,0,0.082-0.004,0.117-0.009l4.949-0.999
		c0.327-0.07,0.532-0.383,0.469-0.705c-0.068-0.321-0.387-0.531-0.698-0.467l-4.952,0.999c-0.324,0.065-0.53,0.383-0.467,0.7
		C183.937,283.691,184.187,283.887,184.466,283.887z M183.211,252.748c-0.059,0.327,0.161,0.633,0.492,0.688l4.98,0.838
		c0.033,0.005,0.065,0.009,0.1,0.009c0.292,0,0.539-0.206,0.588-0.497c0.056-0.327-0.164-0.632-0.493-0.688l-4.979-0.837
		C183.575,252.179,183.262,252.424,183.211,252.748z M193.572,223.882c-0.168,0.287-0.077,0.651,0.21,0.817l4.354,2.567
		c0.096,0.058,0.201,0.082,0.301,0.082c0.205,0,0.401-0.105,0.511-0.296c0.168-0.287,0.077-0.649-0.21-0.817l-4.354-2.566
		C194.106,223.5,193.735,223.598,193.572,223.882z M213.591,200.643c-0.259,0.206-0.301,0.583-0.096,0.84l3.141,3.958
		c0.114,0.149,0.289,0.224,0.467,0.224c0.13,0,0.264-0.042,0.373-0.128c0.259-0.206,0.301-0.583,0.096-0.84l-3.141-3.958
		C214.226,200.479,213.855,200.442,213.591,200.643z M240.606,186.128c-0.315,0.101-0.492,0.437-0.392,0.751l1.517,4.812
		c0.079,0.254,0.315,0.415,0.567,0.415c0.063,0,0.122-0.009,0.177-0.028c0.315-0.1,0.493-0.437,0.392-0.751l-1.514-4.812
		C241.258,186.205,240.898,186.032,240.606,186.128z M270.682,188.494c0.312,0,0.578-0.245,0.597-0.56l0.309-5.045
		c0.019-0.332-0.233-0.614-0.561-0.637c-0.014,0-0.027,0-0.037,0c-0.312,0-0.579,0.245-0.598,0.56l-0.308,5.045
		c-0.019,0.331,0.233,0.613,0.56,0.637C270.658,188.494,270.672,188.494,270.682,188.494z M299.02,194.928l2.096-4.595
		c0.136-0.301,0.01-0.653-0.294-0.793c-0.294-0.133-0.653-0.004-0.793,0.296l-2.096,4.593c-0.136,0.303-0.01,0.655,0.294,0.793
		c0.084,0.04,0.168,0.054,0.252,0.054C298.697,195.275,298.917,195.152,299.02,194.928z M325.174,207.013l-3.612,3.536
		c-0.233,0.23-0.233,0.606,0,0.847c0.112,0.119,0.271,0.182,0.425,0.182c0.145,0,0.304-0.058,0.42-0.173l3.607-3.535
		c0.234-0.231,0.243-0.609,0.005-0.847C325.79,206.794,325.412,206.785,325.174,207.013z M342.498,232.055l-4.639,2.019
		c-0.299,0.133-0.438,0.483-0.304,0.789c0.099,0.224,0.312,0.357,0.546,0.357c0.08,0,0.159-0.014,0.238-0.047l4.635-2.016
		c0.303-0.135,0.447-0.483,0.308-0.789C343.147,232.059,342.807,231.931,342.498,232.055z M344.636,261.868
		c-0.322,0.014-0.579,0.296-0.569,0.621c0.019,0.32,0.285,0.574,0.598,0.574c0.014,0,0.023,0,0.032,0l5.05-0.219
		c0.327-0.014,0.584-0.296,0.569-0.623c-0.014-0.329-0.321-0.567-0.625-0.572L344.636,261.868z M345.616,293.025
		c0.252,0,0.48-0.159,0.56-0.406c0.107-0.312-0.061-0.653-0.373-0.756l-4.789-1.605c-0.336-0.103-0.657,0.065-0.756,0.378
		c-0.107,0.308,0.061,0.648,0.374,0.751l4.788,1.605C345.49,293.016,345.556,293.025,345.616,293.025z M330.971,319.726
		c0.173,0,0.336-0.079,0.467-0.215c0.205-0.257,0.168-0.635-0.084-0.845l-3.893-3.221c-0.257-0.209-0.635-0.177-0.85,0.084
		c-0.21,0.253-0.172,0.631,0.084,0.841l3.893,3.22C330.7,319.674,330.84,319.726,330.971,319.726z M307.215,339.099
		c0.104,0.196,0.304,0.299,0.514,0.299c0.103,0,0.205-0.023,0.299-0.075c0.289-0.163,0.383-0.527,0.224-0.812l-2.492-4.401
		c-0.158-0.289-0.509-0.392-0.812-0.224c-0.29,0.163-0.383,0.522-0.225,0.812L307.215,339.099z M278.148,343.257
		c-0.322,0.047-0.546,0.354-0.499,0.677l0.742,5.003c0.046,0.299,0.299,0.509,0.593,0.509c0.027,0,0.056,0,0.088-0.005
		c0.327-0.046,0.551-0.354,0.505-0.677l-0.742-5.008C278.783,343.435,278.531,343.178,278.148,343.257z M249.773,342.412
		c-0.338-0.065-0.644,0.131-0.712,0.453l-1.094,4.928c-0.07,0.317,0.13,0.64,0.455,0.71c0.046,0.009,0.091,0.014,0.128,0.014
		c0.278,0,0.521-0.191,0.583-0.467l1.094-4.929C250.295,342.805,250.095,342.482,249.773,342.412z M220.459,336.742
		c0.191,0,0.383-0.094,0.497-0.267l2.791-4.21c0.182-0.275,0.104-0.648-0.168-0.826c-0.283-0.191-0.649-0.116-0.831,0.164
		l-2.791,4.209c-0.182,0.275-0.105,0.649,0.168,0.831C220.23,336.709,220.349,336.742,220.459,336.742z M198.46,315.688
		c0.119,0,0.243-0.032,0.343-0.107l4.116-2.931c0.273-0.191,0.329-0.564,0.138-0.831c-0.196-0.275-0.569-0.331-0.831-0.145
		l-4.114,2.931c-0.273,0.191-0.332,0.564-0.14,0.831C198.087,315.604,198.27,315.688,198.46,315.688z M185.614,288.129l4.894-1.265
		c0.315-0.088,0.511-0.405,0.43-0.728c-0.08-0.322-0.42-0.514-0.726-0.43l-4.893,1.265c-0.315,0.089-0.511,0.406-0.43,0.729
		c0.07,0.266,0.311,0.448,0.579,0.448C185.514,288.148,185.561,288.144,185.614,288.129z M182.613,257.112
		c-0.04,0.325,0.196,0.621,0.521,0.661l5.024,0.572c0.023,0,0.046,0.004,0.07,0.004c0.301,0,0.56-0.224,0.593-0.529
		c0.04-0.325-0.196-0.621-0.521-0.661l-5.022-0.572C182.947,256.538,182.646,256.788,182.613,257.112z M191.455,227.74
		c-0.154,0.292-0.044,0.656,0.252,0.803l4.482,2.338c0.091,0.046,0.182,0.065,0.278,0.065c0.215,0,0.425-0.115,0.525-0.32
		c0.154-0.292,0.044-0.654-0.252-0.803l-4.483-2.338C191.971,227.338,191.603,227.448,191.455,227.74z M210.222,203.492
		c-0.248,0.219-0.273,0.597-0.051,0.84l3.344,3.79c0.115,0.133,0.287,0.201,0.451,0.201c0.138,0,0.282-0.047,0.396-0.149
		c0.247-0.219,0.271-0.597,0.051-0.84l-3.344-3.79C210.847,203.291,210.476,203.271,210.222,203.492z M238.635,193.43
		c0.306-0.114,0.467-0.458,0.348-0.768l-1.769-4.732c-0.114-0.311-0.458-0.469-0.768-0.348c-0.308,0.114-0.469,0.457-0.35,0.77
		l1.769,4.73c0.091,0.238,0.315,0.387,0.558,0.387C238.49,193.469,238.562,193.455,238.635,193.43z M266.572,188.366
		c0.324,0,0.593-0.264,0.597-0.593l0.05-5.057c0.004-0.329-0.264-0.597-0.593-0.602h-0.005c-0.327,0-0.593,0.264-0.598,0.593
		l-0.049,5.057C265.97,188.093,266.238,188.366,266.572,188.366L266.572,188.366z M296.761,187.834
		c-0.299-0.11-0.653,0.023-0.774,0.336l-1.857,4.702c-0.121,0.306,0.027,0.656,0.336,0.774c0.07,0.028,0.14,0.042,0.215,0.042
		c0.242,0,0.467-0.142,0.56-0.378l1.857-4.702C297.219,188.303,297.069,187.955,296.761,187.834z M321.996,204.012l-3.421,3.722
		c-0.225,0.245-0.206,0.621,0.037,0.847c0.112,0.105,0.261,0.156,0.406,0.156c0.163,0,0.321-0.065,0.438-0.196l3.421-3.722
		c0.224-0.245,0.205-0.621-0.037-0.847C322.598,203.753,322.215,203.772,321.996,204.012z M340.604,228.118l-4.518,2.256
		c-0.299,0.147-0.42,0.507-0.271,0.798c0.103,0.21,0.312,0.329,0.532,0.329c0.093,0,0.182-0.019,0.271-0.063l4.518-2.254
		c0.299-0.149,0.415-0.509,0.271-0.798C341.257,228.095,340.902,227.973,340.604,228.118z M349.34,257.294l-5.03,0.483
		c-0.327,0.032-0.569,0.324-0.532,0.648c0.027,0.311,0.289,0.542,0.588,0.542c0.019,0,0.037,0,0.056,0l5.036-0.483
		c0.331-0.033,0.564-0.325,0.537-0.651C349.966,257.504,349.657,257.222,349.34,257.294z M346.876,288.834
		c0.262,0,0.504-0.173,0.569-0.443c0.094-0.312-0.098-0.644-0.41-0.732l-4.873-1.349c-0.308-0.089-0.648,0.098-0.728,0.415
		c-0.094,0.317,0.098,0.645,0.41,0.737l4.873,1.345C346.773,288.82,346.82,288.834,346.876,288.834z M333.649,316.258
		c0.187,0,0.364-0.084,0.485-0.242c0.196-0.262,0.141-0.64-0.126-0.836l-4.065-3.006c-0.261-0.195-0.634-0.14-0.84,0.122
		c-0.195,0.266-0.135,0.644,0.126,0.84l4.065,3.006C333.402,316.221,333.523,316.258,333.649,316.258z M311.472,337.129
		c0.112,0,0.22-0.027,0.317-0.093c0.28-0.178,0.364-0.547,0.187-0.826l-2.712-4.262c-0.172-0.279-0.541-0.354-0.826-0.187
		c-0.279,0.178-0.359,0.546-0.182,0.821l2.712,4.266C311.08,337.036,311.275,337.129,311.472,337.129z M282.167,342.529
		c-0.327,0.069-0.532,0.383-0.472,0.704l1.009,4.957c0.056,0.279,0.298,0.476,0.578,0.476c0.038,0,0.084-0.005,0.117-0.01
		c0.321-0.064,0.527-0.382,0.471-0.704L282.862,343C282.807,342.674,282.479,342.473,282.167,342.529z M253.779,343.164
		c-0.322-0.075-0.637,0.163-0.688,0.494l-0.837,4.984c-0.056,0.327,0.164,0.63,0.492,0.687c0.035,0.005,0.068,0.009,0.101,0.009
		c0.292,0,0.542-0.205,0.588-0.494l0.838-4.984C254.323,343.527,254.104,343.22,253.779,343.164z M224.181,339.047
		c0.206,0,0.401-0.107,0.511-0.299l2.567-4.354c0.168-0.285,0.077-0.649-0.21-0.817c-0.282-0.173-0.653-0.069-0.817,0.21
		l-2.567,4.354c-0.168,0.29-0.077,0.649,0.21,0.817C223.971,339.023,224.081,339.047,224.181,339.047z M201.109,319.175
		c0.128,0,0.261-0.042,0.371-0.131l3.958-3.146c0.259-0.205,0.301-0.578,0.096-0.835c-0.206-0.262-0.574-0.304-0.84-0.094
		l-3.958,3.146c-0.259,0.205-0.301,0.584-0.096,0.836C200.759,319.1,200.932,319.175,201.109,319.175z M186.872,292.32l4.821-1.517
		c0.315-0.099,0.492-0.435,0.392-0.747c-0.101-0.317-0.46-0.485-0.745-0.392l-4.823,1.512c-0.315,0.103-0.492,0.438-0.392,0.752
		c0.082,0.252,0.315,0.415,0.569,0.415C186.751,292.349,186.814,292.339,186.872,292.32z M182.245,261.504
		c-0.019,0.331,0.235,0.611,0.56,0.637l5.052,0.306c0.014,0,0.028,0,0.038,0c0.31,0,0.579-0.245,0.597-0.56
		c0.019-0.329-0.233-0.611-0.56-0.634l-5.05-0.306c-0.016,0-0.03,0-0.04,0C182.527,260.946,182.264,261.188,182.245,261.504z
		 M201.553,246.756c0.273,0.1,0.551,0.149,0.826,0.149c0.971,0,1.888-0.598,2.242-1.563c0.46-1.239-0.177-2.609-1.414-3.069
		l-6.524-2.403c-1.228-0.455-2.609,0.177-3.069,1.414c-0.458,1.239,0.177,2.609,1.417,3.068L201.553,246.756z M213.668,226.368
		c0.679,0,1.346-0.287,1.825-0.845c0.852-1.008,0.726-2.513-0.282-3.37l-5.304-4.492c-1.003-0.852-2.504-0.728-3.37,0.278
		c-0.85,1.008-0.726,2.513,0.282,3.367l5.304,4.495C212.574,226.181,213.122,226.368,213.668,226.368z M231.308,210.931
		c0.401,0,0.812-0.1,1.186-0.315c1.141-0.656,1.542-2.112,0.894-3.26l-3.447-6.04c-0.658-1.153-2.121-1.549-3.265-0.894
		c-1.141,0.653-1.542,2.112-0.894,3.26l3.447,6.04C229.674,210.502,230.481,210.931,231.308,210.931z M249.626,193.616l1.176,6.854
		c0.201,1.167,1.214,1.988,2.35,1.988c0.135,0,0.273-0.009,0.411-0.032c1.295-0.22,2.17-1.459,1.951-2.759l-1.176-6.854
		c-0.224-1.3-1.456-2.184-2.763-1.948C250.274,191.084,249.406,192.316,249.626,193.616z M274.232,199.151
		c-0.232,1.3,0.626,2.544,1.928,2.782c0.141,0.023,0.285,0.038,0.43,0.038c1.129,0,2.138-0.808,2.343-1.965l1.246-6.837
		c0.233-1.3-0.63-2.543-1.928-2.782c-1.231-0.229-2.538,0.621-2.771,1.925L274.232,199.151z M297.568,209.193
		c0.378,0.219,0.793,0.324,1.209,0.324c0.821,0,1.614-0.425,2.062-1.186l3.496-5.997c0.667-1.139,0.284-2.6-0.859-3.269
		c-1.143-0.67-2.604-0.287-3.271,0.861l-3.495,5.997C296.042,207.06,296.435,208.523,297.568,209.193z M318.565,223.654l5.339-4.45
		c1.018-0.845,1.148-2.35,0.304-3.363c-0.845-1.024-2.353-1.148-3.365-0.308l-5.339,4.45c-1.013,0.847-1.148,2.352-0.299,3.365
		c0.472,0.569,1.148,0.861,1.834,0.861C317.576,224.209,318.127,224.027,318.565,223.654z M329.99,244.119l6.534-2.353
		c1.241-0.443,1.895-1.815,1.442-3.059c-0.448-1.242-1.83-1.893-3.057-1.438l-6.534,2.35c-1.241,0.446-1.896,1.818-1.447,3.06
		c0.354,0.975,1.274,1.582,2.255,1.582C329.459,244.261,329.72,244.212,329.99,244.119z M340.678,267.277
		c1.316,0,2.39-1.064,2.39-2.38c0.01-1.318-1.055-2.394-2.375-2.398l-6.954-0.028c-0.005,0-0.005,0-0.005,0
		c-1.32,0-2.39,1.066-2.394,2.38c-0.005,1.321,1.059,2.394,2.38,2.399l6.949,0.028C340.678,267.277,340.678,267.277,340.678,267.277
		z M329.318,290.267l6.516,2.399c0.271,0.098,0.546,0.149,0.821,0.149c0.971,0,1.89-0.598,2.245-1.563
		c0.457-1.242-0.178-2.614-1.414-3.071l-6.516-2.398c-1.223-0.448-2.609,0.182-3.071,1.414
		C327.451,288.438,328.086,289.81,329.318,290.267z M322.607,314.867c0.448,0.383,0.998,0.569,1.54,0.569
		c0.682,0,1.354-0.285,1.829-0.845c0.85-1.004,0.729-2.516-0.279-3.37l-5.303-4.494c-1.003-0.85-2.501-0.724-3.369,0.28
		c-0.85,1.003-0.729,2.511,0.28,3.369L322.607,314.867z M305.848,332.098c1.144-0.653,1.545-2.114,0.892-3.262l-3.444-6.03
		c-0.663-1.152-2.138-1.545-3.267-0.887c-1.14,0.653-1.54,2.109-0.892,3.258l3.449,6.03c0.438,0.774,1.25,1.203,2.076,1.203
		C305.068,332.41,305.475,332.312,305.848,332.098z M282.899,338.912l-1.176-6.847c-0.224-1.302-1.446-2.185-2.763-1.951
		c-1.298,0.225-2.17,1.456-1.951,2.759l1.176,6.846c0.201,1.167,1.214,1.988,2.353,1.988c0.131,0,0.271-0.009,0.411-0.032
		C282.246,341.446,283.114,340.214,282.899,338.912z M258.281,333.381c0.233-1.297-0.63-2.538-1.927-2.776
		c-1.284-0.224-2.537,0.625-2.774,1.928l-1.235,6.837c-0.233,1.303,0.632,2.544,1.928,2.777c0.142,0.023,0.285,0.037,0.429,0.037
		c1.132,0,2.135-0.808,2.345-1.96L258.281,333.381z M234.95,323.343c-1.134-0.663-2.606-0.285-3.27,0.858l-3.493,5.997
		c-0.67,1.144-0.282,2.604,0.859,3.271c0.378,0.22,0.793,0.322,1.204,0.322c0.824,0,1.622-0.425,2.065-1.186l3.494-5.997
		C236.479,325.471,236.091,324.005,234.95,323.343z M210.145,317.546c0.542,0,1.085-0.182,1.526-0.556l5.341-4.442
		c1.015-0.85,1.148-2.353,0.306-3.365c-0.849-1.013-2.35-1.148-3.363-0.308l-5.344,4.447c-1.013,0.845-1.148,2.348-0.306,3.36
		C208.784,317.252,209.456,317.546,210.145,317.546z M196.806,295.405c0.268,0,0.542-0.047,0.81-0.14l6.537-2.348
		c1.244-0.443,1.888-1.815,1.444-3.057c-0.446-1.242-1.813-1.891-3.06-1.447l-6.539,2.348c-1.241,0.443-1.888,1.815-1.442,3.062
		C194.904,294.794,195.828,295.405,196.806,295.405z M191.852,265.256c-1.316,0-2.385,1.069-2.39,2.381
		c-0.004,1.32,1.06,2.394,2.38,2.398l6.942,0.028c0,0,0.004,0,0.009,0c1.316,0,2.385-1.064,2.389-2.381
		c0.005-1.316-1.059-2.394-2.38-2.398l-6.942-0.028C191.861,265.256,191.856,265.256,191.852,265.256z M286.12,284.573
		c-3.809,11.649-11.191,19.392-19.858,19.392c-8.669,0-16.053-7.742-19.861-19.392c-10.765-3.738-17.833-10.454-17.833-18.309
		c0-7.853,7.068-14.566,17.833-18.309c3.808-11.646,11.192-19.389,19.861-19.389c8.667,0,16.05,7.743,19.858,19.389
		c10.767,3.738,17.838,10.457,17.838,18.309C303.958,274.119,296.887,280.83,286.12,284.573z M252.207,246.312
		c4.329-0.966,9.061-1.508,14.055-1.508s9.727,0.546,14.053,1.508c-3.291-7.815-8.41-12.963-14.053-12.963
		C260.622,233.35,255.499,238.493,252.207,246.312z M282.19,251.75c-4.756-1.372-10.193-2.17-15.929-2.17
		c-5.736,0-11.173,0.798-15.929,2.17c-1.214,4.411-1.916,9.339-1.916,14.515c0,5.175,0.702,10.104,1.916,14.514
		c4.756,1.372,10.193,2.171,15.929,2.171c5.735,0,11.173-0.799,15.929-2.171c1.214-4.41,1.913-9.339,1.913-14.514
		C284.104,261.088,283.404,256.16,282.19,251.75z M244.898,278.823c-0.807-3.916-1.265-8.13-1.265-12.559s0.458-8.641,1.265-12.559
		c-7.019,3.087-11.556,7.607-11.556,12.559S237.883,275.738,244.898,278.823z M280.314,286.216
		c-4.326,0.966-9.059,1.508-14.053,1.508s-9.727-0.546-14.055-1.508c3.292,7.817,8.415,12.965,14.055,12.965
		C271.904,299.181,277.023,294.038,280.314,286.216z M299.179,266.264c0-4.952-4.536-9.472-11.556-12.559
		c0.812,3.918,1.27,8.13,1.27,12.559s-0.458,8.643-1.27,12.559C294.643,275.738,299.179,271.216,299.179,266.264z"/>
</g>
<g>
</g>
<g>
</g>
<g>
</g>
<g>
</g>
<g>
</g>
<g>
</g>
<g>
</g>
<g>
</g>
<g>
</g>
<g>
</g>
<g>
</g>
<g>
</g>
<g>
</g>
<g>
</g>
<g>
</g>
</svg>
