<?xml version="1.0" encoding="iso-8859-1"?>
<!-- Generator: Adobe Illustrator 19.0.0, SVG Export Plug-In . SVG Version: 6.00 Build 0)  -->
<svg version="1.1" id="Layer_1" xmlns="http://www.w3.org/2000/svg" xmlns:xlink="http://www.w3.org/1999/xlink" x="0px" y="0px"
	 viewBox="0 0 512 512" style="enable-background:new 0 0 512 512;" xml:space="preserve">
<rect x="70.52" style="fill:#FFFFFF;" width="370.72" height="494.344"/>
<rect x="70.528" y="494.344" width="370.72" height="17.656"/>
<rect x="105.92" y="293.272" style="fill:#CCCCCC;" width="300.136" height="165.64"/>
<rect x="124.544" y="310.136" width="262.896" height="5.888"/>
<g>
	<rect x="124.544" y="330" style="fill:#FFFFFF;" width="262.896" height="5.888"/>
	<rect x="124.544" y="345.2" style="fill:#FFFFFF;" width="262.896" height="5.888"/>
	<rect x="124.544" y="360.4" style="fill:#FFFFFF;" width="262.896" height="5.888"/>
	<rect x="124.544" y="375.608" style="fill:#FFFFFF;" width="262.896" height="5.888"/>
	<rect x="124.544" y="390.808" style="fill:#FFFFFF;" width="262.896" height="5.888"/>
	<rect x="124.544" y="390.56" style="fill:#FFFFFF;" width="262.896" height="5.888"/>
	<rect x="124.544" y="405.76" style="fill:#FFFFFF;" width="262.896" height="5.888"/>
	<rect x="124.544" y="420.968" style="fill:#FFFFFF;" width="262.896" height="5.888"/>
	<rect x="124.544" y="436.16" style="fill:#FFFFFF;" width="262.896" height="5.888"/>
</g>
<rect x="105.92" y="94.8" style="fill:#32BEA6;" width="300.136" height="174.928"/>
<g>
	<rect x="120.008" y="108.92" style="fill:#FFFFFF;" width="84.304" height="21.088"/>
	<rect x="120.008" y="140.32" style="fill:#FFFFFF;" width="84.304" height="21.088"/>
	<rect x="120.008" y="171.728" style="fill:#FFFFFF;" width="84.304" height="21.088"/>
	<rect x="120.008" y="203.152" style="fill:#FFFFFF;" width="84.304" height="21.088"/>
	<rect x="120.008" y="234.512" style="fill:#FFFFFF;" width="84.304" height="21.088"/>
</g>
<rect x="70.76" width="370.72" height="59.488"/>
<g>
	<rect x="106.032" y="21.616" style="fill:#FFFFFF;" width="110.072" height="5.888"/>
	<rect x="106.032" y="31.992" style="fill:#FFFFFF;" width="84.296" height="5.888"/>
	<rect x="268.608" y="31.992" style="fill:#FFFFFF;" width="21.6" height="5.888"/>
	<rect x="297.6" y="31.992" style="fill:#FFFFFF;" width="21.6" height="5.888"/>
	<rect x="326.592" y="31.992" style="fill:#FFFFFF;" width="21.6" height="5.888"/>
	<rect x="355.6" y="31.992" style="fill:#FFFFFF;" width="21.6" height="5.888"/>
	<rect x="384.56" y="31.992" style="fill:#FFFFFF;" width="21.6" height="5.888"/>
</g>
<g>
</g>
<g>
</g>
<g>
</g>
<g>
</g>
<g>
</g>
<g>
</g>
<g>
</g>
<g>
</g>
<g>
</g>
<g>
</g>
<g>
</g>
<g>
</g>
<g>
</g>
<g>
</g>
<g>
</g>
</svg>
