<?xml version="1.0" encoding="iso-8859-1"?>
<!-- Generator: Adobe Illustrator 19.0.0, SVG Export Plug-In . SVG Version: 6.00 Build 0)  -->
<svg version="1.1" id="Layer_1" xmlns="http://www.w3.org/2000/svg" xmlns:xlink="http://www.w3.org/1999/xlink" x="0px" y="0px"
	 viewBox="0 0 512.008 512.008" style="enable-background:new 0 0 512.008 512.008;" xml:space="preserve">
<rect x="70.636" style="fill:#EFEFEF;" width="370.72" height="494.344"/>
<rect x="70.66" y="494.352" width="370.72" height="17.656"/>
<rect x="244.204" y="222" style="fill:#FFFFFF;" width="161.84" height="109.544"/>
<rect x="262.82" y="241.12" width="124.504" height="5.888"/>
<g>
	<rect x="262.82" y="260.96" style="fill:#E5E5E5;" width="124.504" height="5.888"/>
	<rect x="262.82" y="276.16" style="fill:#E5E5E5;" width="124.504" height="5.888"/>
	<rect x="262.82" y="291.368" style="fill:#E5E5E5;" width="124.504" height="5.888"/>
	<rect x="262.82" y="306.56" style="fill:#E5E5E5;" width="124.504" height="5.888"/>
</g>
<rect x="244.204" y="349.416" style="fill:#FFFFFF;" width="161.84" height="109.544"/>
<rect x="262.82" y="368.48" width="124.504" height="5.888"/>
<g>
	<rect x="262.82" y="388.376" style="fill:#E5E5E5;" width="124.504" height="5.888"/>
	<rect x="262.82" y="403.6" style="fill:#E5E5E5;" width="124.504" height="5.888"/>
	<rect x="262.82" y="418.8" style="fill:#E5E5E5;" width="124.504" height="5.888"/>
	<rect x="262.82" y="434" style="fill:#E5E5E5;" width="124.504" height="5.888"/>
</g>
<g>
	<rect x="105.812" y="349.344" style="fill:#0BA4E0;" width="120.72" height="109.688"/>
	<rect x="105.812" y="222" style="fill:#0BA4E0;" width="120.72" height="109.688"/>
</g>
<rect x="105.812" y="94.8" width="300.136" height="109.544"/>
<rect x="70.628" style="fill:#0BA4E0;" width="370.72" height="59.488"/>
<g>
	<rect x="105.9" y="21.616" style="fill:#FFFFFF;" width="110.072" height="5.888"/>
	<rect x="105.9" y="31.992" style="fill:#FFFFFF;" width="84.296" height="5.888"/>
</g>
<rect x="268.476" y="31.992" width="21.6" height="5.888"/>
<rect x="297.492" y="31.992" style="fill:#FFFFFF;" width="21.6" height="5.888"/>
<rect x="326.46" y="31.992" width="21.6" height="5.888"/>
<rect x="355.492" y="31.992" style="fill:#FFFFFF;" width="21.6" height="5.888"/>
<rect x="384.452" y="31.992" width="21.6" height="5.888"/>
<g>
</g>
<g>
</g>
<g>
</g>
<g>
</g>
<g>
</g>
<g>
</g>
<g>
</g>
<g>
</g>
<g>
</g>
<g>
</g>
<g>
</g>
<g>
</g>
<g>
</g>
<g>
</g>
<g>
</g>
</svg>
