<?xml version="1.0" encoding="iso-8859-1"?>
<!-- Generator: Adobe Illustrator 19.0.0, SVG Export Plug-In . SVG Version: 6.00 Build 0)  -->
<svg version="1.1" id="Capa_1" xmlns="http://www.w3.org/2000/svg" xmlns:xlink="http://www.w3.org/1999/xlink" x="0px" y="0px"
	 viewBox="0 0 420.012 420.012" style="enable-background:new 0 0 420.012 420.012;" xml:space="preserve">
<g id="XMLID_10_">
	<path id="XMLID_450_" d="M0,40v340.012h420.012V40H0z M390,350H30.012V70.012H390V350z"/>
	<rect id="XMLID_453_" x="320.006" y="105.006" width="40" height="30"/>
	<rect id="XMLID_454_" x="320.006" y="165.006" width="40" height="30"/>
	<rect id="XMLID_455_" x="320.006" y="225.006" width="40" height="30"/>
	<rect id="XMLID_458_" x="320.006" y="285.006" width="40" height="30"/>
	<rect id="XMLID_459_" x="60.006" y="105.006" width="40" height="30"/>
	<rect id="XMLID_460_" x="60.006" y="165.006" width="40" height="30"/>
	<rect id="XMLID_461_" x="60.006" y="225.006" width="40" height="30"/>
	<rect id="XMLID_462_" x="60.006" y="285.006" width="40" height="30"/>
	<path id="XMLID_463_" d="M186.477,273.871l103.529-64.538l-103.529-64.538v33.613l-56.471-32.268v129.075l56.471-32.269V273.871z
		 M160.018,197.857l22.438,12.822L160.018,223.5V197.857z M216.488,198.871l16.785,10.463l-16.785,10.463V198.871z"/>
</g>
<g>
</g>
<g>
</g>
<g>
</g>
<g>
</g>
<g>
</g>
<g>
</g>
<g>
</g>
<g>
</g>
<g>
</g>
<g>
</g>
<g>
</g>
<g>
</g>
<g>
</g>
<g>
</g>
<g>
</g>
</svg>
