<?xml version="1.0" encoding="iso-8859-1"?>
<!-- Generator: Adobe Illustrator 19.0.0, SVG Export Plug-In . SVG Version: 6.00 Build 0)  -->
<svg version="1.1" id="Layer_1" xmlns="http://www.w3.org/2000/svg" xmlns:xlink="http://www.w3.org/1999/xlink" x="0px" y="0px"
	 viewBox="0 0 512 512" style="enable-background:new 0 0 512 512;" xml:space="preserve">
<g>
	<g>
		<path d="M207.127,226.909c-4.655-5.818-13.964-5.818-18.618,0c-4.655,6.982-48.873,64-48.873,98.909
			c0,24.436,10.473,38.4,19.782,45.382c8.145,6.982,17.455,10.473,26.764,12.8v11.636c0,6.982,4.655,11.636,11.636,11.636
			s11.636-4.655,11.636-11.636v-69.818c0-6.982-4.655-11.636-11.636-11.636s-11.636,4.655-11.636,11.636V358.4
			c-4.655-1.164-9.309-3.491-11.636-5.818c-6.982-5.818-11.636-15.127-11.636-27.927c0-17.455,18.618-50.036,34.909-72.145
			c16.291,23.273,34.909,55.855,34.909,72.146c0,11.636-2.327,20.945-8.146,26.764c-4.655,4.655-4.655,11.636,0,16.291
			s11.636,4.655,16.291,0C250.182,357.236,256,343.273,256,325.818C256,290.909,211.782,232.727,207.127,226.909z"/>
	</g>
</g>
<g>
	<g>
		<circle cx="197.818" cy="116.364" r="11.636"/>
	</g>
</g>
<g>
	<g>
		<circle cx="151.273" cy="116.364" r="11.636"/>
	</g>
</g>
<g>
	<g>
		<circle cx="244.364" cy="116.364" r="11.636"/>
	</g>
</g>
<g>
	<g>
		<path d="M290.909,46.545H104.727c-6.982,0-11.636,4.655-11.636,11.636v116.364c0,6.982,4.655,11.636,11.636,11.636h186.182
			c6.982,0,11.636-4.655,11.636-11.636V58.182C302.545,51.2,297.891,46.545,290.909,46.545z M279.273,162.909H116.364V69.818
			h162.909V162.909z"/>
	</g>
</g>
<g>
	<g>
		<path d="M496.873,143.127l-58.182-58.182c-4.655-4.655-11.636-4.655-16.291,0c-4.655,4.655-4.655,11.636,0,16.291l29.091,29.091
			c-11.636,5.818-20.945,18.618-20.945,32.582c0,19.782,15.127,34.909,34.909,34.909c4.655,0,8.145-1.164,11.636-2.327v223.418
			c0,12.8-10.473,23.273-23.273,23.273s-23.273-10.473-23.273-23.273V221.091c0-32.582-25.6-58.182-58.182-58.182h-23.273V58.182
			C349.091,25.6,323.491,0,290.909,0H104.727C72.145,0,46.545,25.6,46.545,58.182v384c-19.782,0-34.909,15.127-34.909,34.909
			c0,19.782,15.127,34.909,34.909,34.909h302.545C368.873,512,384,496.873,384,477.091c0-19.782-15.127-34.909-34.909-34.909
			H104.727c-6.982,0-11.636,4.655-11.636,11.636s4.655,11.636,11.636,11.636h244.364c6.982,0,11.636,4.655,11.636,11.636
			s-4.655,11.636-11.636,11.636H46.545c-6.982,0-11.636-4.655-11.636-11.636s4.655-11.636,11.636-11.636h11.636
			c6.982,0,11.636-4.655,11.636-11.636V58.182c0-19.782,15.127-34.909,34.909-34.909h186.182c19.782,0,34.909,15.127,34.909,34.909
			v349.091c0,6.982,4.655,11.636,11.636,11.636c6.982,0,11.636-4.655,11.636-11.636V186.182h23.273
			c19.782,0,34.909,15.127,34.909,34.909v197.818c0,25.6,20.945,46.545,46.545,46.545c25.6,0,46.545-20.945,46.545-46.545V151.273
			C500.364,147.782,499.2,145.455,496.873,143.127z M465.455,174.545c-6.982,0-11.636-4.655-11.636-11.636
			c0-6.982,4.655-11.636,11.636-11.636c6.982,0,11.636,4.655,11.636,11.636C477.091,169.891,472.436,174.545,465.455,174.545z"/>
	</g>
</g>
<g>
</g>
<g>
</g>
<g>
</g>
<g>
</g>
<g>
</g>
<g>
</g>
<g>
</g>
<g>
</g>
<g>
</g>
<g>
</g>
<g>
</g>
<g>
</g>
<g>
</g>
<g>
</g>
<g>
</g>
</svg>
