<?xml version="1.0" encoding="iso-8859-1"?>
<!-- Generator: Adobe Illustrator 19.0.0, SVG Export Plug-In . SVG Version: 6.00 Build 0)  -->
<svg version="1.1" id="Layer_1" xmlns="http://www.w3.org/2000/svg" xmlns:xlink="http://www.w3.org/1999/xlink" x="0px" y="0px"
	 viewBox="0 0 512 512" style="enable-background:new 0 0 512 512;" xml:space="preserve">
<g transform="translate(1 1)">
	<g>
		<path style="fill:#FFE100;" d="M132.12,417.133c10.24,17.067,23.04,34.133,37.547,51.2h170.667
			c14.507-17.067,26.453-34.133,37.547-51.2H132.12z"/>
		<path style="fill:#FFE100;" d="M402.627,144.067H107.373c-5.973,15.36-11.947,32.427-15.36,51.2h327.68
			C414.573,176.493,409.453,159.427,402.627,144.067"/>
		<path style="fill:#FFE100;" d="M377.88,92.867c-19.627-32.427-37.547-51.2-37.547-51.2H169.667c0,0-17.92,18.773-37.547,51.2
			H377.88z"/>
		<path style="fill:#FFE100;" d="M196.12,331.8H94.573c4.267,17.067,11.093,34.133,18.773,51.2H255
			C225.133,383,200.387,360.813,196.12,331.8"/>
		<path style="fill:#FFE100;" d="M313.88,331.8C309.613,360.813,284.867,383,255,383h140.8c8.533-17.067,14.507-34.133,18.773-51.2
			H313.88z"/>
		<path style="fill:#FFE100;" d="M423.96,229.4H86.04c-1.707,16.213-1.707,33.28,0,51.2h127.147
			c11.093-10.24,25.6-17.067,41.813-17.067s30.72,6.827,41.813,17.067H423.96C425.667,262.68,425.667,245.613,423.96,229.4"/>
	</g>
	<g>
		<path style="fill:#FFA800;" d="M352.28,417.133c-10.24,17.067-23.04,34.133-37.547,51.2h25.6
			c14.507-17.067,26.453-34.133,37.547-51.2H352.28z"/>
		<path style="fill:#FFA800;" d="M402.627,144.067h-25.6c5.973,15.36,11.947,32.427,15.36,51.2h25.6
			C414.573,176.493,408.6,159.427,402.627,144.067"/>
		<path style="fill:#FFA800;" d="M340.333,41.667h-25.6c0,0,17.92,18.773,37.547,51.2h25.6
			C358.253,60.44,340.333,41.667,340.333,41.667"/>
		<path style="fill:#FFA800;" d="M389.827,331.8c-4.267,17.067-11.093,34.133-18.773,51.2h25.6
			c8.533-17.067,14.507-34.133,18.773-51.2H389.827z"/>
		<path style="fill:#FFA800;" d="M423.96,229.4h-25.6c1.707,16.213,1.707,33.28,0,51.2h25.6
			C425.667,262.68,424.813,245.613,423.96,229.4"/>
	</g>
	<g>
		<path style="fill:#FFFFFF;" d="M157.72,417.133c10.24,17.067,23.04,34.133,37.547,51.2h-25.6
			c-14.507-17.067-26.453-34.133-37.547-51.2H157.72z"/>
		<path style="fill:#FFFFFF;" d="M106.52,144.067h25.6c-5.973,15.36-11.947,32.427-15.36,51.2h-25.6
			C94.573,176.493,100.547,159.427,106.52,144.067"/>
		<path style="fill:#FFFFFF;" d="M169.667,41.667h25.6c0,0-17.92,18.773-37.547,51.2h-25.6
			C151.747,60.44,169.667,41.667,169.667,41.667"/>
		<path style="fill:#FFFFFF;" d="M120.173,331.8c4.267,17.067,11.093,34.133,18.773,51.2h-25.6
			c-8.533-17.067-14.507-34.133-18.773-51.2H120.173z"/>
		<path style="fill:#FFFFFF;" d="M86.04,229.4h25.6c-1.707,16.213-1.707,33.28,0,51.2h-25.6
			C83.48,262.68,84.333,245.613,86.04,229.4"/>
	</g>
	<path style="fill:#FDCC00;" d="M340.333,41.667H169.667c-9.387,0-17.067-7.68-17.067-17.067l0,0c0-9.387,7.68-17.067,17.067-17.067
		h170.667c9.387,0,17.067,7.68,17.067,17.067l0,0C357.4,33.987,349.72,41.667,340.333,41.667"/>
	<path style="fill:#FFA800;" d="M340.333,7.533h-25.6c9.387,0,17.067,7.68,17.067,17.067s-7.68,17.067-17.067,17.067h25.6
		c9.387,0,17.067-7.68,17.067-17.067S349.72,7.533,340.333,7.533"/>
	<path style="fill:#FFFFFF;" d="M169.667,7.533h25.6c-9.387,0-17.067,7.68-17.067,17.067s7.68,17.067,17.067,17.067h-25.6
		c-9.387,0-17.067-7.68-17.067-17.067S160.28,7.533,169.667,7.533"/>
	<path style="fill:#FDCC00;" d="M340.333,502.467H169.667c-9.387,0-17.067-7.68-17.067-17.067l0,0
		c0-9.387,7.68-17.067,17.067-17.067h170.667c9.387,0,17.067,7.68,17.067,17.067l0,0C357.4,494.787,349.72,502.467,340.333,502.467"
		/>
	<path style="fill:#FFA800;" d="M340.333,468.333h-25.6c9.387,0,17.067,7.68,17.067,17.067s-7.68,17.067-17.067,17.067h25.6
		c9.387,0,17.067-7.68,17.067-17.067S349.72,468.333,340.333,468.333"/>
	<path style="fill:#FFFFFF;" d="M169.667,468.333h25.6c-9.387,0-17.067,7.68-17.067,17.067s7.68,17.067,17.067,17.067h-25.6
		c-9.387,0-17.067-7.68-17.067-17.067S160.28,468.333,169.667,468.333"/>
	<g>
		<path style="fill:#FDCC00;" d="M434.2,229.4H75.8c-9.387,0-17.067-7.68-17.067-17.067l0,0c0-9.387,7.68-17.067,17.067-17.067
			h358.4c9.387,0,17.067,7.68,17.067,17.067l0,0C451.267,221.72,443.587,229.4,434.2,229.4"/>
		<path style="fill:#FDCC00;" d="M400.067,417.133H109.933c-9.387,0-17.067-7.68-17.067-17.067l0,0
			c0-9.387,7.68-17.067,17.067-17.067h290.133c9.387,0,17.067,7.68,17.067,17.067l0,0
			C417.133,409.453,409.453,417.133,400.067,417.133"/>
	</g>
	<g>
		<path style="fill:#FFA800;" d="M434.2,195.267h-25.6c9.387,0,17.067,7.68,17.067,17.067S417.987,229.4,408.6,229.4h25.6
			c9.387,0,17.067-7.68,17.067-17.067S443.587,195.267,434.2,195.267"/>
		<path style="fill:#FFA800;" d="M400.067,383h-25.6c9.387,0,17.067,7.68,17.067,17.067s-7.68,17.067-17.067,17.067h25.6
			c9.387,0,17.067-7.68,17.067-17.067S409.453,383,400.067,383"/>
	</g>
	<g>
		<path style="fill:#FFFFFF;" d="M109.933,383h25.6c-9.387,0-17.067,7.68-17.067,17.067s7.68,17.067,17.067,17.067h-25.6
			c-9.387,0-17.067-7.68-17.067-17.067S100.547,383,109.933,383"/>
		<path style="fill:#FFFFFF;" d="M75.8,195.267h25.6c-9.387,0-17.067,7.68-17.067,17.067S92.013,229.4,101.4,229.4H75.8
			c-9.387,0-17.067-7.68-17.067-17.067S66.413,195.267,75.8,195.267"/>
	</g>
	<path style="fill:#FDCC00;" d="M408.6,144.067H101.4c-14.507,0-25.6-11.093-25.6-25.6l0,0c0-14.507,11.093-25.6,25.6-25.6h307.2
		c14.507,0,25.6,11.093,25.6,25.6l0,0C434.2,132.973,423.107,144.067,408.6,144.067"/>
	<path style="fill:#FFA800;" d="M408.6,92.867H383c14.507,0,25.6,11.093,25.6,25.6s-11.093,25.6-25.6,25.6h25.6
		c14.507,0,25.6-11.093,25.6-25.6S423.107,92.867,408.6,92.867"/>
	<path style="fill:#FFFFFF;" d="M101.4,92.867H127c-14.507,0-25.6,11.093-25.6,25.6s11.093,25.6,25.6,25.6h-25.6
		c-14.507,0-25.6-11.093-25.6-25.6S86.893,92.867,101.4,92.867"/>
	<path style="fill:#FDCC00;" d="M442.733,331.8H67.267c-14.507,0-25.6-11.093-25.6-25.6l0,0c0-14.507,11.093-25.6,25.6-25.6h375.467
		c14.507,0,25.6,11.093,25.6,25.6l0,0C468.333,320.707,457.24,331.8,442.733,331.8"/>
	<path style="fill:#FFA800;" d="M442.733,280.6h-25.6c14.507,0,25.6,11.093,25.6,25.6s-11.093,25.6-25.6,25.6h25.6
		c14.507,0,25.6-11.093,25.6-25.6S457.24,280.6,442.733,280.6"/>
	<path style="fill:#FFFFFF;" d="M67.267,280.6h25.6c-14.507,0-25.6,11.093-25.6,25.6s11.093,25.6,25.6,25.6h-25.6
		c-14.507,0-25.6-11.093-25.6-25.6S52.76,280.6,67.267,280.6"/>
	<path style="fill:#63D3FD;" d="M314.733,323.267C314.733,356.547,288.28,383,255,383s-59.733-26.453-59.733-59.733
		S221.72,263.533,255,263.533S314.733,289.987,314.733,323.267"/>
	<path style="fill:#3DB9F9;" d="M255,263.533c-4.267,0-8.533,0.853-12.8,1.707c26.453,5.973,46.933,29.867,46.933,58.027
		c0,28.16-20.48,52.053-46.933,58.027c4.267,0.853,8.533,1.707,12.8,1.707c33.28,0,59.733-26.453,59.733-59.733
		S288.28,263.533,255,263.533"/>
	<path d="M340.333,50.2H169.667c-14.507,0-25.6-11.093-25.6-25.6S155.16-1,169.667-1h170.667c14.507,0,25.6,11.093,25.6,25.6
		S354.84,50.2,340.333,50.2z M169.667,16.067c-5.12,0-8.533,3.413-8.533,8.533s3.413,8.533,8.533,8.533h170.667
		c5.12,0,8.533-3.413,8.533-8.533s-3.413-8.533-8.533-8.533H169.667z"/>
	<path d="M340.333,511H169.667c-14.507,0-25.6-11.093-25.6-25.6s11.093-25.6,25.6-25.6h170.667c14.507,0,25.6,11.093,25.6,25.6
		S354.84,511,340.333,511z M169.667,476.867c-5.12,0-8.533,3.413-8.533,8.533s3.413,8.533,8.533,8.533h170.667
		c5.12,0,8.533-3.413,8.533-8.533s-3.413-8.533-8.533-8.533H169.667z"/>
	<path d="M400.067,425.667H109.933c-14.507,0-25.6-11.093-25.6-25.6c0-14.507,11.093-25.6,25.6-25.6h290.133
		c14.507,0,25.6,11.093,25.6,25.6C425.667,414.573,414.573,425.667,400.067,425.667z M109.933,391.533
		c-5.12,0-8.533,3.413-8.533,8.533s3.413,8.533,8.533,8.533h290.133c5.12,0,8.533-3.413,8.533-8.533s-3.413-8.533-8.533-8.533
		H109.933z"/>
	<path d="M434.2,237.933H75.8c-14.507,0-25.6-11.093-25.6-25.6s11.093-25.6,25.6-25.6h358.4c14.507,0,25.6,11.093,25.6,25.6
		S448.707,237.933,434.2,237.933z M75.8,203.8c-5.12,0-8.533,3.413-8.533,8.533c0,5.12,3.413,8.533,8.533,8.533h358.4
		c5.12,0,8.533-3.413,8.533-8.533c0-5.12-3.413-8.533-8.533-8.533H75.8z"/>
	<path d="M408.6,152.6H101.4c-18.773,0-34.133-15.36-34.133-34.133s15.36-34.133,34.133-34.133h307.2
		c18.773,0,34.133,15.36,34.133,34.133S427.373,152.6,408.6,152.6z M101.4,101.4c-9.387,0-17.067,7.68-17.067,17.067
		s7.68,17.067,17.067,17.067h307.2c9.387,0,17.067-7.68,17.067-17.067S417.987,101.4,408.6,101.4H101.4z"/>
	<path d="M344.6,476.867H165.4l-2.56-3.413c-14.507-17.067-27.307-34.133-37.547-52.053l-7.68-12.8H393.24l-7.68,12.8
		c-11.093,17.92-23.893,34.987-37.547,52.053L344.6,476.867z M173.933,459.8H336.92c9.387-11.093,17.92-22.187,25.6-34.133H149.187
		C156.013,437.613,164.547,448.707,173.933,459.8z"/>
	<path d="M429.08,203.8H80.92l2.56-10.24c3.413-17.92,9.387-34.987,16.213-52.907l1.707-5.12h307.2l2.56,5.12
		c6.827,17.067,11.947,34.987,16.213,52.907L429.08,203.8z M102.253,186.733h305.493c-2.56-11.093-6.827-23.04-11.093-34.133
		h-284.16C108.227,163.693,104.813,175.64,102.253,186.733z"/>
	<path d="M392.387,101.4H117.613l7.68-12.8c19.627-33.28,37.547-52.053,38.4-52.907l2.56-2.56H344.6l2.56,2.56
		c0.853,0.853,18.773,19.627,38.4,52.907L392.387,101.4z M147.48,84.333h214.187c-11.093-17.067-21.333-29.013-25.6-34.133H173.08
		C168.813,55.32,159.427,67.267,147.48,84.333z"/>
	<path d="M255,391.533H108.227l-2.56-5.12c-8.533-17.067-14.507-34.987-19.627-52.907l-2.56-10.24h119.467l0.853,7.68
		c3.413,24.747,25.6,43.52,50.347,43.52v17.067H255z M119.32,374.467h90.453c-10.24-8.533-17.92-20.48-21.333-34.133h-81.92
		C109.933,351.427,114.2,363.373,119.32,374.467z"/>
	<path d="M401.773,391.533H255v-17.067c25.6,0,46.933-18.773,50.347-43.52l0.853-7.68h119.467l-2.56,11.093
		c-5.12,17.92-11.093,34.987-19.627,52.907L401.773,391.533z M300.227,374.467h90.453c5.12-11.093,9.387-23.04,12.8-34.133h-82.773
		C317.293,353.987,310.467,365.933,300.227,374.467z"/>
	<path d="M432.493,289.133H293.4l-2.56-2.56c-9.387-9.387-22.187-14.507-35.84-14.507s-26.453,5.12-35.84,14.507l-2.56,2.56H77.507
		l-0.853-7.68c-0.853-17.92-0.853-34.987,0.853-52.907l0.853-7.68h353.28l0.853,7.68c1.707,17.92,1.707,34.987,0,52.907V289.133z
		 M300.227,272.067H416.28c0.853-11.093,0.853-23.04,0-34.133H93.72c-0.853,11.093-0.853,23.04,0,34.133h116.053
		C222.573,260.973,237.933,255,255,255S287.427,260.973,300.227,272.067z"/>
	<path d="M255,391.533c-37.547,0-68.267-30.72-68.267-68.267S217.453,255,255,255s68.267,30.72,68.267,68.267
		S292.547,391.533,255,391.533z M255,272.067c-28.16,0-51.2,23.04-51.2,51.2c0,28.16,23.04,51.2,51.2,51.2s51.2-23.04,51.2-51.2
		C306.2,295.107,283.16,272.067,255,272.067z"/>
	<path d="M205.507,340.333H67.267c-18.773,0-34.133-15.36-34.133-34.133s15.36-34.133,34.133-34.133H234.52l-15.36,14.507
		c-10.24,10.24-15.36,23.04-15.36,36.693c0,2.56,0,4.267,0.853,7.68L205.507,340.333z M67.267,289.133
		c-9.387,0-17.067,7.68-17.067,17.067s7.68,17.067,17.067,17.067h119.467c0-11.947,3.413-23.893,9.387-34.133H67.267z"/>
	<path d="M442.733,340.333h-138.24l1.707-9.387c0-2.56,0.853-5.12,0.853-7.68c0-13.653-5.12-26.453-15.36-36.693l-16.213-14.507
		h167.253c18.773,0,34.133,15.36,34.133,34.133S461.507,340.333,442.733,340.333z M323.267,323.267h119.467
		c9.387,0,17.067-7.68,17.067-17.067s-7.68-17.067-17.067-17.067H313.88C319.853,299.373,323.267,311.32,323.267,323.267z"/>
</g>
<g>
</g>
<g>
</g>
<g>
</g>
<g>
</g>
<g>
</g>
<g>
</g>
<g>
</g>
<g>
</g>
<g>
</g>
<g>
</g>
<g>
</g>
<g>
</g>
<g>
</g>
<g>
</g>
<g>
</g>
</svg>
