<?xml version="1.0" encoding="iso-8859-1"?>
<!-- Generator: Adobe Illustrator 19.0.0, SVG Export Plug-In . SVG Version: 6.00 Build 0)  -->
<svg version="1.1" id="Layer_1" xmlns="http://www.w3.org/2000/svg" xmlns:xlink="http://www.w3.org/1999/xlink" x="0px" y="0px"
	 viewBox="0 0 511.984 511.984" style="enable-background:new 0 0 511.984 511.984;" xml:space="preserve">
<g>
	<path style="fill:#ED5564;" d="M490.64,277.335H21.327c-5.89,0-10.671,4.75-10.671,10.656v170.651
		c0,5.906,4.781,10.688,10.671,10.688H490.64c5.891,0,10.672-4.781,10.672-10.688V287.991
		C501.312,282.085,496.531,277.335,490.64,277.335z"/>
	<path style="fill:#ED5564;" d="M426.346,139.042c-0.25-1.031-6.342-25.327-30.92-49.248c-14.203-13.812-31.734-24.796-52.107-32.64
		c-25.016-9.609-54.391-14.5-87.326-14.5c-32.952,0-62.326,4.891-87.341,14.5c-20.374,7.843-37.905,18.827-52.107,32.64
		c-24.579,23.921-30.673,48.217-30.923,49.248c-0.781,3.234-0.016,6.641,2.094,9.234c0.75,0.938,19.046,23.296,48.67,45.874
		c17.5,13.327,35.358,23.968,53.092,31.624c22.515,9.734,44.89,14.655,66.514,14.655c21.609,0,43.982-4.921,66.498-14.655
		c17.734-7.656,35.592-18.297,53.092-31.624c29.625-22.578,47.92-44.937,48.67-45.874
		C426.361,145.682,427.127,142.276,426.346,139.042z"/>
</g>
<path style="fill:#F6BB42;" d="M437.314,106.652H74.654c-5.891,0-10.656,4.781-10.656,10.672v74.67
	c0,5.89,4.765,10.656,10.656,10.656h362.661c5.891,0,10.672-4.766,10.672-10.656v-74.67
	C447.986,111.433,443.205,106.652,437.314,106.652z"/>
<path style="fill:#434A54;" d="M501.312,298.646H10.656C4.765,298.646,0,293.897,0,287.991s4.765-10.656,10.656-10.656h490.656
	c5.891,0,10.672,4.75,10.672,10.656S507.203,298.646,501.312,298.646z"/>
<g>
	<path style="fill:#FFCE54;" d="M458.642,213.321H53.326c-5.89,0-10.671,4.781-10.671,10.672v234.649
		c0,5.906,4.781,10.688,10.671,10.688h405.316c5.891,0,10.672-4.781,10.672-10.688V223.993
		C469.314,218.102,464.533,213.321,458.642,213.321z"/>
	<path style="fill:#FFCE54;" d="M482.455,160.276l-223.994-53.327c-1.625-0.391-3.328-0.391-4.953,0L29.514,160.276
		c-4.797,1.156-8.188,5.437-8.188,10.375v21.343h469.313v-21.343C490.64,165.713,487.252,161.432,482.455,160.276z"/>
</g>
<path style="fill:#434A54;" d="M282.648,469.33h-53.327c-5.891,0-10.671-23.875-10.671-53.343s4.781-53.343,10.671-53.343h53.327
	c5.889,0,10.67,23.875,10.67,53.343S288.537,469.33,282.648,469.33z"/>
<g>
	<path style="fill:#E6E9ED;" d="M242.649,216.93c-2.031-2.297-4.938-3.609-8-3.609h-42.655c-3.062,0-5.984,1.312-8,3.609
		c-2.031,2.297-2.969,5.344-2.594,8.375l5.25,42.015v202.01h53.342V267.32l5.25-42.015
		C245.617,222.274,244.68,219.227,242.649,216.93z"/>
	<path style="fill:#E6E9ED;" d="M327.974,216.93c-2.016-2.297-4.938-3.609-7.984-3.609h-42.67c-3.062,0-5.969,1.312-8,3.609
		s-2.969,5.344-2.594,8.375l5.266,42.015v202.01h53.326V267.32l5.25-42.015C330.943,222.274,330.006,219.227,327.974,216.93z"/>
	<path style="fill:#E6E9ED;" d="M413.316,216.93c-2.031-2.297-4.938-3.609-8-3.609h-42.672c-3.062,0-5.969,1.312-8,3.609
		c-2.014,2.297-2.967,5.344-2.576,8.375l5.248,42.015v202.01h53.328V267.32l5.25-42.015
		C416.269,222.274,415.332,219.227,413.316,216.93z"/>
	<path style="fill:#E6E9ED;" d="M157.323,216.93c-2.031-2.297-4.938-3.609-8-3.609h-42.671c-3.062,0-5.968,1.312-8,3.609
		c-2.016,2.297-2.969,5.344-2.578,8.375l5.25,42.015v202.01h53.327V267.32l5.25-42.015
		C160.276,222.274,159.339,219.227,157.323,216.93z"/>
</g>
<g>
	<path style="fill:#F5F7FA;" d="M149.324,213.321h-42.671c-3.062,0-5.968,1.312-8,3.609c-2.016,2.297-2.969,5.344-2.578,8.375
		l5.171,41.343h53.499l5.156-41.343c0.375-3.031-0.562-6.078-2.578-8.375C155.292,214.634,152.386,213.321,149.324,213.321z"/>
	<path style="fill:#F5F7FA;" d="M234.649,213.321h-42.655c-3.062,0-5.984,1.312-8,3.609c-2.031,2.297-2.969,5.344-2.594,8.375
		l5.171,41.343h53.499l5.172-41.343c0.375-3.031-0.562-6.078-2.594-8.375S237.711,213.321,234.649,213.321z"/>
	<path style="fill:#F5F7FA;" d="M319.99,213.321h-42.67c-3.062,0-5.969,1.312-8,3.609s-2.969,5.344-2.594,8.375l5.172,41.343h53.498
		l5.172-41.343c0.375-3.031-0.562-6.078-2.594-8.375C325.959,214.634,323.037,213.321,319.99,213.321z"/>
	<path style="fill:#F5F7FA;" d="M405.316,213.321h-42.672c-3.062,0-5.969,1.312-8,3.609c-2.014,2.297-2.967,5.344-2.576,8.375
		l5.17,41.343h53.5l5.156-41.343c0.375-3.031-0.562-6.078-2.578-8.375C411.285,214.634,408.379,213.321,405.316,213.321z"/>
</g>
<path style="fill:#ED5564;" d="M458.642,181.322H53.326c-5.89,0-10.671,4.781-10.671,10.672v31.999
	c0,5.89,4.781,10.656,10.671,10.656h405.316c5.891,0,10.672-4.766,10.672-10.656v-31.999
	C469.314,186.103,464.533,181.322,458.642,181.322z"/>
<g>
	<path style="fill:#DA4453;" d="M405.316,213.321c-5.891,0-10.672,4.781-10.672,10.672v10.656h21.344v-10.656
		C415.988,218.102,411.207,213.321,405.316,213.321z"/>
	<path style="fill:#DA4453;" d="M362.644,213.321c-5.891,0-10.654,4.781-10.654,10.672v10.656h21.326v-10.656
		C373.316,218.102,368.535,213.321,362.644,213.321z"/>
	<path style="fill:#DA4453;" d="M319.99,213.321c-5.906,0-10.672,4.781-10.672,10.672v10.656h21.328v-10.656
		C330.646,218.102,325.865,213.321,319.99,213.321z"/>
	<path style="fill:#DA4453;" d="M277.32,213.321c-5.891,0-10.672,4.781-10.672,10.672v10.656h21.342v-10.656
		C287.99,218.102,283.211,213.321,277.32,213.321z"/>
	<path style="fill:#DA4453;" d="M234.649,213.321c-5.891,0-10.656,4.781-10.656,10.672v10.656h21.328v-10.656
		C245.321,218.102,240.539,213.321,234.649,213.321z"/>
	<path style="fill:#DA4453;" d="M191.994,213.321c-5.906,0-10.671,4.781-10.671,10.672v10.656h21.327v-10.656
		C202.65,218.102,197.869,213.321,191.994,213.321z"/>
	<path style="fill:#DA4453;" d="M149.324,213.321c-5.891,0-10.672,4.781-10.672,10.672v10.656h21.343v-10.656
		C159.995,218.102,155.214,213.321,149.324,213.321z"/>
	<path style="fill:#DA4453;" d="M106.653,213.321c-5.89,0-10.656,4.781-10.656,10.672v10.656h21.328v-10.656
		C117.325,218.102,112.543,213.321,106.653,213.321z"/>
</g>
<g>
</g>
<g>
</g>
<g>
</g>
<g>
</g>
<g>
</g>
<g>
</g>
<g>
</g>
<g>
</g>
<g>
</g>
<g>
</g>
<g>
</g>
<g>
</g>
<g>
</g>
<g>
</g>
<g>
</g>
</svg>
