<?xml version="1.0" encoding="iso-8859-1"?>
<!-- Generator: Adobe Illustrator 19.0.0, SVG Export Plug-In . SVG Version: 6.00 Build 0)  -->
<svg version="1.1" id="Layer_1" xmlns="http://www.w3.org/2000/svg" xmlns:xlink="http://www.w3.org/1999/xlink" x="0px" y="0px"
	 viewBox="0 0 512 512" style="enable-background:new 0 0 512 512;" xml:space="preserve">
<g transform="translate(1 1)">
	<g>
		<path style="fill:#FFE100;" d="M451.267,220.867h-34.133c-5.12,0-8.533-3.413-8.533-8.533c0-5.12,3.413-8.533,8.533-8.533h34.133
			c5.12,0,8.533,3.413,8.533,8.533C459.8,217.453,456.387,220.867,451.267,220.867z"/>
		<path style="fill:#FFE100;" d="M451.267,186.733h-34.133c-5.12,0-8.533-3.413-8.533-8.533c0-5.12,3.413-8.533,8.533-8.533h34.133
			c5.12,0,8.533,3.413,8.533,8.533C459.8,183.32,456.387,186.733,451.267,186.733z"/>
		<path style="fill:#FFE100;" d="M451.267,255h-34.133c-5.12,0-8.533-3.413-8.533-8.533c0-5.12,3.413-8.533,8.533-8.533h34.133
			c5.12,0,8.533,3.413,8.533,8.533C459.8,251.587,456.387,255,451.267,255z"/>
		<path style="fill:#FFE100;" d="M451.267,289.133h-34.133c-5.12,0-8.533-3.413-8.533-8.533c0-5.12,3.413-8.533,8.533-8.533h34.133
			c5.12,0,8.533,3.413,8.533,8.533S456.387,289.133,451.267,289.133z"/>
		<path style="fill:#FFE100;" d="M451.267,323.267h-34.133c-5.12,0-8.533-3.413-8.533-8.533c0-5.12,3.413-8.533,8.533-8.533h34.133
			c5.12,0,8.533,3.413,8.533,8.533C459.8,319.853,456.387,323.267,451.267,323.267z"/>
		<path style="fill:#FFE100;" d="M451.267,357.4h-34.133c-5.12,0-8.533-3.413-8.533-8.533c0-5.12,3.413-8.533,8.533-8.533h34.133
			c5.12,0,8.533,3.413,8.533,8.533C459.8,353.987,456.387,357.4,451.267,357.4z"/>
		<path style="fill:#FFE100;" d="M202.947,502.467h-99.84c-5.973,0-10.24-4.267-10.24-9.387V434.2h119.467v58.88
			C212.333,498.2,208.067,502.467,202.947,502.467"/>
		<path style="fill:#FFE100;" d="M212.333,75.8H92.867V16.92c0-5.12,4.267-9.387,10.24-9.387h99.84c5.12,0,9.387,4.267,9.387,9.387
			V75.8z"/>
		<path style="fill:#FFE100;" d="M237.08,127H68.973c-5.973,0-10.24-4.267-10.24-9.387V85.187c0-5.12,4.267-9.387,10.24-9.387
			H237.08c5.12,0,9.387,4.267,9.387,9.387v31.573C246.467,122.733,242.2,127,237.08,127"/>
		<path style="fill:#FFE100;" d="M237.08,434.2H68.973c-5.973,0-10.24-4.267-10.24-9.387V393.24c0-5.973,4.267-10.24,10.24-10.24
			H237.08c5.12,0,9.387,4.267,9.387,9.387v31.573C246.467,429.933,242.2,434.2,237.08,434.2"/>
	</g>
	<g>
		<path style="fill:#FFA800;" d="M186.733,434.2v58.88c0,5.12-4.267,9.387-9.387,9.387h25.6c5.12,0,9.387-4.267,9.387-9.387V434.2
			H186.733z"/>
		<path style="fill:#FFA800;" d="M202.947,7.533h-25.6c5.12,0,9.387,4.267,9.387,9.387V75.8h25.6V16.92
			C212.333,11.8,208.067,7.533,202.947,7.533"/>
		<path style="fill:#FFA800;" d="M237.08,75.8h-25.6c5.12,0,9.387,4.267,9.387,9.387v31.573c0,5.12-4.267,9.387-9.387,9.387h25.6
			c5.12,0,9.387-4.267,9.387-9.387V85.187C246.467,80.067,242.2,75.8,237.08,75.8"/>
		<path style="fill:#FFA800;" d="M237.08,383h-25.6c5.12,0,9.387,4.267,9.387,9.387v31.573c0,5.12-4.267,9.387-9.387,9.387h25.6
			c5.12,0,9.387-4.267,9.387-9.387v-31.573C246.467,387.267,242.2,383,237.08,383"/>
	</g>
	<g>
		<path style="fill:#FFE100;" d="M417.133,170.52v168.107c0,5.12-4.267,9.387-9.387,9.387h-31.573c-5.12,0-9.387-4.267-9.387-9.387
			V170.52c0-5.12,4.267-9.387,9.387-9.387h31.573C412.867,161.133,417.133,165.4,417.133,170.52"/>
		<path style="fill:#FFE100;" d="M212.333,182.467V127H92.867v256h119.467v-55.467c0-11.947,9.387-21.333,21.333-21.333h132.267
			V203.8H233.667C222.573,203.8,212.333,194.413,212.333,182.467"/>
	</g>
	<g>
		<path style="fill:#FFFFFF;" d="M118.467,493.08V434.2h-25.6v58.88c0,5.12,4.267,9.387,10.24,9.387h25.6
			C122.733,502.467,118.467,498.2,118.467,493.08"/>
		<path style="fill:#FFFFFF;" d="M128.707,7.533h-25.6c-5.973,0-10.24,4.267-10.24,9.387V75.8h25.6V16.92
			C118.467,11.8,122.733,7.533,128.707,7.533"/>
		<path style="fill:#FFFFFF;" d="M84.333,117.613V85.187c0-5.12,4.267-9.387,10.24-9.387h-25.6c-5.973,0-10.24,4.267-10.24,9.387
			v31.573c0,5.973,4.267,10.24,10.24,10.24h25.6C88.6,127,84.333,122.733,84.333,117.613"/>
		<path style="fill:#FFFFFF;" d="M84.333,424.813V393.24c0-5.973,4.267-10.24,10.24-10.24h-25.6c-5.973,0-10.24,4.267-10.24,9.387
			v31.573c0,5.973,4.267,10.24,10.24,10.24h25.6C88.6,434.2,84.333,429.933,84.333,424.813"/>
		<polygon style="fill:#FFFFFF;" points="92.867,383 118.467,383 118.467,127 92.867,127 		"/>
	</g>
	<path d="M202.947,511h-99.84c-10.24,0-18.773-8.533-18.773-17.92V434.2c0-5.12,3.413-8.533,8.533-8.533h119.467
		c5.12,0,8.533,3.413,8.533,8.533v58.88C220.867,502.467,213.187,511,202.947,511z M101.4,442.733v50.347
		c0,0,0.853,0.853,1.707,0.853h99.84c0.853,0,0.853-0.853,0.853-0.853v-50.347H101.4z"/>
	<path d="M212.333,84.333H92.867c-4.267,0-8.533-3.413-8.533-8.533V16.92C84.333,7.533,92.867-1,103.107-1h99.84
		c10.24,0,17.92,8.533,17.92,17.92V75.8C220.867,80.92,217.453,84.333,212.333,84.333z M101.4,67.267h102.4V16.92
		c0,0,0-0.853-0.853-0.853h-99.84c-0.853,0-1.707,0.853-1.707,0.853V67.267z"/>
	<path d="M237.08,135.533H68.973c-10.24,0-18.773-8.533-18.773-17.92V85.187c0-9.387,8.533-17.92,18.773-17.92H237.08
		c10.24,0,17.92,8.533,17.92,17.92v31.573C255,127,247.32,135.533,237.08,135.533z M68.973,84.333c-0.853,0-1.707,0.853-1.707,0.853
		v31.573c0,0.853,0.853,1.707,1.707,1.707H237.08c0.853,0,0.853-0.853,0.853-0.853V85.187c0,0,0-0.853-0.853-0.853H68.973z"/>
	<path d="M237.08,442.733H68.973c-10.24,0-18.773-8.533-18.773-17.92V393.24c0-10.24,8.533-18.773,18.773-18.773H237.08
		c10.24,0,17.92,8.533,17.92,17.92v31.573C255,434.2,247.32,442.733,237.08,442.733z M68.973,391.533
		c-0.853,0-1.707,0.853-1.707,0.853v31.573c0,0.853,0.853,1.707,1.707,1.707H237.08c0.853,0,0.853-0.853,0.853-0.853V393.24
		c0-0.853-0.853-0.853-0.853-0.853H68.973V391.533z"/>
	<path d="M407.747,357.4h-31.573c-10.24,0-18.773-8.533-18.773-17.92V170.52c0-10.24,8.533-17.92,17.92-17.92h31.573
		c10.24,0,17.92,8.533,17.92,17.92v168.107C425.667,348.867,417.987,357.4,407.747,357.4z M376.173,169.667
		c-0.853,0-0.853,0.853-0.853,0.853v168.107c0,0.853,0.853,0.853,0.853,0.853h31.573c0.853,0,0.853-0.853,0.853-0.853V170.52
		c0-0.853-0.853-0.853-0.853-0.853H376.173z"/>
	<path d="M220.867,391.533H84.333V118.467h136.533v64c0,6.827,5.973,12.8,12.8,12.8h140.8v119.467h-140.8
		c-6.827,0-12.8,5.973-12.8,12.8V391.533z M101.4,374.467h102.4v-46.933c0-16.213,13.653-29.867,29.867-29.867H357.4v-85.333
		H233.667c-16.213,0-29.867-13.653-29.867-29.867v-46.933H101.4V374.467z"/>
	<path d="M451.267,212.333h-34.133c-5.12,0-8.533-3.413-8.533-8.533c0-5.12,3.413-8.533,8.533-8.533h34.133
		c5.12,0,8.533,3.413,8.533,8.533C459.8,208.92,456.387,212.333,451.267,212.333z"/>
	<path d="M451.267,178.2h-34.133c-5.12,0-8.533-3.413-8.533-8.533c0-5.12,3.413-8.533,8.533-8.533h34.133
		c5.12,0,8.533,3.413,8.533,8.533C459.8,174.787,456.387,178.2,451.267,178.2z"/>
	<path d="M451.267,246.467h-34.133c-5.12,0-8.533-3.413-8.533-8.533c0-5.12,3.413-8.533,8.533-8.533h34.133
		c5.12,0,8.533,3.413,8.533,8.533C459.8,243.053,456.387,246.467,451.267,246.467z"/>
	<path d="M451.267,280.6h-34.133c-5.12,0-8.533-3.413-8.533-8.533s3.413-8.533,8.533-8.533h34.133c5.12,0,8.533,3.413,8.533,8.533
		S456.387,280.6,451.267,280.6z"/>
	<path d="M451.267,314.733h-34.133c-5.12,0-8.533-3.413-8.533-8.533s3.413-8.533,8.533-8.533h34.133c5.12,0,8.533,3.413,8.533,8.533
		S456.387,314.733,451.267,314.733z"/>
	<path d="M451.267,348.867h-34.133c-5.12,0-8.533-3.413-8.533-8.533c0-5.12,3.413-8.533,8.533-8.533h34.133
		c5.12,0,8.533,3.413,8.533,8.533C459.8,345.453,456.387,348.867,451.267,348.867z"/>
</g>
<g>
</g>
<g>
</g>
<g>
</g>
<g>
</g>
<g>
</g>
<g>
</g>
<g>
</g>
<g>
</g>
<g>
</g>
<g>
</g>
<g>
</g>
<g>
</g>
<g>
</g>
<g>
</g>
<g>
</g>
</svg>
