<?xml version="1.0" encoding="iso-8859-1"?>
<!-- Generator: Adobe Illustrator 19.0.0, SVG Export Plug-In . SVG Version: 6.00 Build 0)  -->
<svg version="1.1" id="Layer_1" xmlns="http://www.w3.org/2000/svg" xmlns:xlink="http://www.w3.org/1999/xlink" x="0px" y="0px"
	 viewBox="0 0 512 512" style="enable-background:new 0 0 512 512;" xml:space="preserve">
<g>
	<g>
		<path d="M501.551,169.23h-32.133c-4.981-32.416-33.061-57.32-66.848-57.32h-90.549c-5.77,0-10.449,4.678-10.449,10.449
			c0,5.771,4.679,10.449,10.449,10.449h90.549c22.226,0,40.865,15.6,45.575,36.422h-30.186c-5.77,0-10.449,4.678-10.449,10.449
			v78.488l-129.537-54.635c-3.227-1.362-6.919-1.015-9.838,0.921c-2.917,1.936-4.672,5.205-4.672,8.707v44.429l-116.907-53.917
			c-3.237-1.492-7.009-1.231-10.009,0.688c-3.001,1.921-4.816,5.238-4.816,8.8v44.429L14.825,203.671
			c-3.237-1.492-7.009-1.231-10.009,0.688C1.815,206.28,0,209.596,0,213.159v288.392C0,507.322,4.679,512,10.449,512h491.102
			c5.77,0,10.449-4.678,10.449-10.449V179.679C512,173.909,507.321,169.23,501.551,169.23z M407.51,491.102H20.898V229.485
			l116.906,53.917c3.238,1.493,7.01,1.233,10.009-0.688c3.001-1.921,4.816-5.238,4.816-8.8v-44.429l116.908,53.917
			c3.235,1.493,7.008,1.233,10.008-0.688c3.001-1.921,4.816-5.238,4.816-8.8v-45.007l123.148,51.94V491.102z M491.102,233.605
			h-31.347c-5.77,0-10.449,4.678-10.449,10.449c0,5.771,4.679,10.449,10.449,10.449h31.347v43.476h-31.347
			c-5.77,0-10.449,4.678-10.449,10.449c0,5.771,4.679,10.449,10.449,10.449h31.347v43.476h-31.347
			c-5.77,0-10.449,4.678-10.449,10.449c0,5.771,4.679,10.449,10.449,10.449h31.347v43.476h-31.347
			c-5.77,0-10.449,4.678-10.449,10.449c0,5.771,4.679,10.449,10.449,10.449h31.347v43.477h-62.694V273.914v-83.785h62.694V233.605z"
			/>
	</g>
</g>
<g>
	<g>
		<path d="M103.848,350.215H48.707c-5.77,0-10.449,4.678-10.449,10.449v57.469c0,5.771,4.679,10.449,10.449,10.449h27.571
			c5.77,0,10.449-4.678,10.449-10.449s-4.679-10.449-10.449-10.449H59.156v-36.571h34.242v11.609
			c0,5.771,4.679,10.449,10.449,10.449c5.77,0,10.449-4.678,10.449-10.449v-22.058C114.297,354.893,109.618,350.215,103.848,350.215
			z"/>
	</g>
</g>
<g>
	<g>
		<path d="M103.848,407.393c-5.77,0-10.449,4.678-10.449,10.449v0.29c0,5.771,4.679,10.449,10.449,10.449
			c5.77,0,10.449-4.678,10.449-10.449v-0.29C114.297,412.071,109.618,407.393,103.848,407.393z"/>
	</g>
</g>
<g>
	<g>
		<path d="M235.505,350.215h-55.14c-5.77,0-10.449,4.678-10.449,10.449v57.469c0,5.771,4.679,10.449,10.449,10.449h27.57
			c5.77,0,10.449-4.678,10.449-10.449s-4.679-10.449-10.449-10.449h-17.122v-36.571h34.242v11.609
			c0,5.771,4.679,10.449,10.449,10.449c5.77,0,10.449-4.678,10.449-10.449v-22.058C245.954,354.893,241.275,350.215,235.505,350.215
			z"/>
	</g>
</g>
<g>
	<g>
		<path d="M235.505,407.393c-5.77,0-10.449,4.678-10.449,10.449v0.29c0,5.771,4.679,10.449,10.449,10.449
			c5.77,0,10.449-4.678,10.449-10.449v-0.29C245.954,412.071,241.275,407.393,235.505,407.393z"/>
	</g>
</g>
<g>
	<g>
		<path d="M367.162,350.215h-55.14c-5.77,0-10.449,4.678-10.449,10.449v57.469c0,5.771,4.679,10.449,10.449,10.449h27.57
			c5.77,0,10.449-4.678,10.449-10.449s-4.679-10.449-10.449-10.449H322.47v-36.571h34.242v11.609
			c0,5.771,4.679,10.449,10.449,10.449c5.77,0,10.449-4.678,10.449-10.449v-22.058C377.611,354.893,372.932,350.215,367.162,350.215
			z"/>
	</g>
</g>
<g>
	<g>
		<path d="M367.162,407.393c-5.77,0-10.449,4.678-10.449,10.449v0.29c0,5.771,4.679,10.449,10.449,10.449
			c5.77,0,10.449-4.678,10.449-10.449v-0.29C377.611,412.071,372.932,407.393,367.162,407.393z"/>
	</g>
</g>
<g>
	<g>
		<path d="M424.814,67.055h-9.505c1.379-5.029,2.017-10.274,1.86-15.62C416.327,22.872,392.644,0,364.157,0
			c-0.327,0-0.657,0.003-0.985,0.008c-23.404,0.434-43.248,16.344-49.763,37.774c-4.698-1.784-9.804-2.575-14.995-2.216
			c-16.614,1.148-30.275,13.967-32.482,30.477c-0.045,0.338-0.074,0.675-0.11,1.011h-4.343c-5.77,0-10.449,4.678-10.449,10.449
			s4.679,10.45,10.449,10.45h163.334c5.77,0,10.449-4.678,10.449-10.449S430.584,67.055,424.814,67.055z M286.999,67.056
			c1.564-5.776,6.81-10.223,12.854-10.641c5.273-0.357,10.319,2.169,13.167,6.613c1.19,1.859,2.892,3.234,4.823,4.028H286.999z
			 M393.068,67.055h-67.275c4.258-1.749,6.893-6.103,6.42-10.726c-0.112-1.091-0.168-2.204-0.168-3.307
			c0-17.388,14.136-31.797,31.513-32.119c0.2-0.003,0.399-0.005,0.598-0.005c17.262,0,31.614,13.853,32.122,31.152
			C396.432,57.316,395.332,62.42,393.068,67.055z"/>
	</g>
</g>
<g>
	<g>
		<path d="M454.147,67.055h-0.517c-5.77,0-10.449,4.678-10.449,10.449s4.678,10.449,10.449,10.449h0.517
			c5.77,0,10.449-4.678,10.449-10.449S459.917,67.055,454.147,67.055z"/>
	</g>
</g>
<g>
	<g>
		<path d="M213.427,145.331h-66.691c-5.77,0-10.449,4.678-10.449,10.449c0,5.771,4.679,10.449,10.449,10.449h66.691
			c5.77,0,10.449-4.678,10.449-10.449C223.876,150.009,219.197,145.331,213.427,145.331z"/>
	</g>
</g>
<g>
	<g>
		<path d="M114.161,145.331h-10.384c-5.77,0-10.449,4.678-10.449,10.449c0,5.771,4.679,10.449,10.449,10.449h10.384
			c5.77,0,10.449-4.678,10.449-10.449C124.61,150.009,119.931,145.331,114.161,145.331z"/>
	</g>
</g>
<g>
	<g>
		<path d="M283.448,114.866c-1.942-1.944-4.638-3.062-7.386-3.062c-2.749,0-5.444,1.118-7.387,3.062
			c-1.943,1.943-3.062,4.639-3.062,7.387c0,2.748,1.117,5.444,3.062,7.387c1.945,1.943,4.638,3.062,7.387,3.062
			c2.748,0,5.444-1.118,7.386-3.062c1.954-1.944,3.063-4.639,3.063-7.387C286.511,119.505,285.402,116.809,283.448,114.866z"/>
	</g>
</g>
<g>
	<g>
		<path d="M238.797,111.804H70.642c-5.77,0-10.449,4.678-10.449,10.449c0,5.771,4.679,10.449,10.449,10.449h168.154
			c5.77,0,10.449-4.678,10.449-10.449C249.246,116.482,244.567,111.804,238.797,111.804z"/>
	</g>
</g>
<g>
</g>
<g>
</g>
<g>
</g>
<g>
</g>
<g>
</g>
<g>
</g>
<g>
</g>
<g>
</g>
<g>
</g>
<g>
</g>
<g>
</g>
<g>
</g>
<g>
</g>
<g>
</g>
<g>
</g>
</svg>
