<?xml version="1.0" encoding="iso-8859-1"?>
<!-- Generator: Adobe Illustrator 19.0.0, SVG Export Plug-In . SVG Version: 6.00 Build 0)  -->
<svg version="1.1" id="Layer_1" xmlns="http://www.w3.org/2000/svg" xmlns:xlink="http://www.w3.org/1999/xlink" x="0px" y="0px"
	 viewBox="0 0 512 512" style="enable-background:new 0 0 512 512;" xml:space="preserve">
<g>
	<g>
		<path d="M273.067,137.317V102.4h51.2c28.232,0,51.2-22.968,51.2-51.2V17.067C375.467,7.641,367.825,0,358.4,0H153.6
			c-9.425,0-17.067,7.641-17.067,17.067V51.2c0,28.232,22.968,51.2,51.2,51.2h51.2v34.917
			c-95.547,8.652-170.667,89.186-170.667,186.949C68.267,427.783,152.484,512,256,512s187.733-84.217,187.733-187.733
			C443.733,226.503,368.614,145.969,273.067,137.317z M136.533,409.6h-8.185c-13.385-19.958-22.212-43.213-24.995-68.267h33.18
			V409.6z M136.533,307.2h-33.18c2.783-25.054,11.61-48.309,24.995-68.267h8.185V307.2z M238.933,476.913
			c-25.054-2.783-48.309-11.61-68.267-24.995v-8.185h68.267V476.913z M238.933,409.6h-68.267v-68.267h68.267V409.6z M238.933,307.2
			h-68.267v-68.267h68.267V307.2z M238.933,204.8h-68.267v-8.185c19.958-13.385,43.213-22.212,68.267-24.995V204.8z
			 M375.467,238.933h8.185c13.385,19.958,22.212,43.213,24.995,68.267h-33.18V238.933z M187.733,68.267
			c-9.411,0-17.067-7.656-17.067-17.067V34.133h170.667V51.2c0,9.411-7.656,17.067-17.067,17.067H187.733z M341.333,451.919
			c-19.958,13.385-43.213,22.212-68.267,24.995v-33.18h68.267V451.919z M341.333,409.6h-68.267v-68.267h68.267V409.6z
			 M341.333,307.2h-68.267v-68.267h68.267V307.2z M341.333,204.8h-68.267v-33.18c25.054,2.782,48.309,11.609,68.267,24.995V204.8z
			 M383.652,409.6h-8.185v-68.267h33.18C405.864,366.387,397.037,389.642,383.652,409.6z"/>
	</g>
</g>
<g>
</g>
<g>
</g>
<g>
</g>
<g>
</g>
<g>
</g>
<g>
</g>
<g>
</g>
<g>
</g>
<g>
</g>
<g>
</g>
<g>
</g>
<g>
</g>
<g>
</g>
<g>
</g>
<g>
</g>
</svg>
