<?xml version="1.0" encoding="iso-8859-1"?>
<!-- Generator: Adobe Illustrator 19.0.0, SVG Export Plug-In . SVG Version: 6.00 Build 0)  -->
<svg version="1.1" id="Layer_1" xmlns="http://www.w3.org/2000/svg" xmlns:xlink="http://www.w3.org/1999/xlink" x="0px" y="0px"
	 viewBox="0 0 512 512" style="enable-background:new 0 0 512 512;" xml:space="preserve">
<g>
	<g>
		<path d="M283.604,228.349c-22.688-22.688-52.853-35.183-84.939-35.183s-62.251,12.496-84.939,35.183
			c-22.687,22.688-35.183,52.853-35.183,84.939c0,32.085,12.496,62.251,35.183,84.939c23.418,23.417,54.18,35.125,84.939,35.125
			s61.521-11.709,84.939-35.125c22.687-22.688,35.183-52.854,35.183-84.939C318.786,281.203,306.291,251.038,283.604,228.349z
			 M266.328,380.951c-18.656,18.657-43.156,27.984-67.664,27.982c-24.501-0.001-49.011-9.329-67.664-27.982
			c-18.073-18.073-28.027-42.103-28.027-67.662c0-25.56,9.953-49.59,28.027-67.664c18.073-18.073,42.103-28.027,67.664-28.027
			s49.59,9.953,67.664,28.027c18.073,18.073,28.027,42.103,28.027,67.664C294.355,338.848,284.401,362.878,266.328,380.951z"/>
	</g>
</g>
<g>
	<g>
		<path d="M499.737,0h-92.216c-6.746,0-12.216,5.469-12.216,12.216c0,6.747,5.47,12.216,12.216,12.216h62.924L331.156,165.196
			c-36.48-32.718-83.107-50.62-132.491-50.62c-53.078,0-102.979,20.669-140.51,58.201c-77.478,77.478-77.478,203.544,0,281.022
			C95.687,491.331,145.588,512,198.666,512s102.98-20.669,140.51-58.201c74.292-74.292,77.334-193.252,9.15-271.219L487.521,41.909
			v62.522c0,6.747,5.47,12.216,12.216,12.216s12.216-5.469,12.216-12.216V12.216C511.953,5.469,506.484,0,499.737,0z
			 M321.899,436.523c-32.917,32.917-76.681,51.045-123.235,51.045S108.347,469.44,75.43,436.523
			c-67.952-67.951-67.952-178.517,0-246.469c33.98-33.98,78.6-50.964,123.235-50.964c44.623,0,89.262,16.992,123.235,50.963
			C389.851,258.006,389.851,368.571,321.899,436.523z"/>
	</g>
</g>
<g>
	<g>
		<path d="M102.775,200.122c-4.771-4.77-12.504-4.77-17.277,0c-45.185,45.186-59.171,112.775-35.631,172.193
			c1.901,4.796,6.496,7.719,11.361,7.719c1.498,0,3.02-0.277,4.497-0.862c6.272-2.485,9.341-9.585,6.857-15.856
			c-19.948-50.351-8.097-107.628,30.194-145.918C107.545,212.628,107.545,204.893,102.775,200.122z"/>
	</g>
</g>
<g>
	<g>
		<path d="M102.772,409.177c-2.697-2.697-5.31-5.536-7.762-8.437c-4.357-5.151-12.062-5.795-17.217-1.439
			c-5.151,4.356-5.795,12.064-1.439,17.216c2.89,3.418,5.969,6.761,9.145,9.939c2.385,2.385,5.512,3.577,8.637,3.577
			c3.127,0,6.253-1.193,8.638-3.579C107.544,421.681,107.543,413.947,102.772,409.177z"/>
	</g>
</g>
<g>
</g>
<g>
</g>
<g>
</g>
<g>
</g>
<g>
</g>
<g>
</g>
<g>
</g>
<g>
</g>
<g>
</g>
<g>
</g>
<g>
</g>
<g>
</g>
<g>
</g>
<g>
</g>
<g>
</g>
</svg>
