<?xml version="1.0" encoding="iso-8859-1"?>
<!-- Generator: Adobe Illustrator 19.0.0, SVG Export Plug-In . SVG Version: 6.00 Build 0)  -->
<svg version="1.1" id="Layer_1" xmlns="http://www.w3.org/2000/svg" xmlns:xlink="http://www.w3.org/1999/xlink" x="0px" y="0px"
	 viewBox="0 0 503.609 503.609" style="enable-background:new 0 0 503.609 503.609;" xml:space="preserve">
<g>
	<g>
		<g>
			<path d="M317.91,181.399c-4.05-23.15-19.874-42.062-40.925-50.593V0h-50.361v130.806c-21.051,8.531-36.875,27.442-40.925,50.593
				C125.858,207.064,83.936,266.505,83.936,335.74c0,92.708,75.161,167.869,167.869,167.869s167.869-75.161,167.869-167.869
				C419.673,266.505,377.751,207.064,317.91,181.399z M243.411,16.787h16.787v109.115h-16.787V16.787z M251.805,142.691
				c21.143,0,39.408,13.097,46.819,31.806c-12.848-3.724-26.33-5.95-40.247-6.486c-0.358-0.014-0.716-0.029-1.074-0.041
				c-1.826-0.059-3.657-0.099-5.498-0.099s-3.671,0.04-5.498,0.099c-0.358,0.012-0.716,0.027-1.074,0.041
				c-13.917,0.536-27.399,2.761-40.247,6.486C212.397,155.788,230.662,142.691,251.805,142.691z M251.805,486.822
				c-83.437,0-151.082-67.645-151.082-151.082c0-61.681,36.973-114.724,89.96-138.196l5.725-2.258
				c15.469-6.102,31.66-9.654,48.206-10.454c0.263-0.012,0.528-0.019,0.792-0.03c0.908-0.039,1.816-0.075,2.726-0.098
				c1.221-0.029,2.445-0.047,3.673-0.047s2.452,0.017,3.673,0.047c0.91,0.022,1.818,0.059,2.726,0.098
				c0.264,0.011,0.529,0.018,0.792,0.03c16.545,0.8,32.737,4.352,48.206,10.454l5.725,2.258
				c52.987,23.472,89.96,76.514,89.96,138.196C402.886,419.177,335.241,486.822,251.805,486.822z"/>
			<path d="M251.805,444.855c-60.263,0-109.115-48.852-109.115-109.115c0-4.636-3.758-8.393-8.393-8.393s-8.393,3.758-8.393,8.393
				c0,69.534,56.368,125.902,125.902,125.902c4.636,0,8.393-3.758,8.393-8.393S256.44,444.855,251.805,444.855z"/>
		</g>
	</g>
</g>
<g>
</g>
<g>
</g>
<g>
</g>
<g>
</g>
<g>
</g>
<g>
</g>
<g>
</g>
<g>
</g>
<g>
</g>
<g>
</g>
<g>
</g>
<g>
</g>
<g>
</g>
<g>
</g>
<g>
</g>
</svg>
