<?xml version="1.0" encoding="iso-8859-1"?>
<!-- Generator: Adobe Illustrator 19.0.0, SVG Export Plug-In . SVG Version: 6.00 Build 0)  -->
<svg version="1.1" id="Layer_1" xmlns="http://www.w3.org/2000/svg" xmlns:xlink="http://www.w3.org/1999/xlink" x="0px" y="0px"
	 viewBox="0 0 512 512" style="enable-background:new 0 0 512 512;" xml:space="preserve">
<g transform="translate(0 -1)">
	<g>
		<g>
			<path d="M503.467,184.465c4.713,0,8.533-3.82,8.533-8.533v-34.133c0-4.713-3.82-8.533-8.533-8.533h-10.404l-14.108-56.431
				c9.597-6.041,15.979-16.722,15.979-28.901c0-18.853-15.281-34.133-34.133-34.133c-18.853,0-34.133,15.281-34.133,34.133
				c0,12.179,6.382,22.86,15.979,28.901l-14.108,56.431h-10.404c-4.713,0-8.533,3.82-8.533,8.533v8.535H102.4v-8.535
				c0-4.713-3.821-8.533-8.533-8.533H83.462L69.354,76.834c9.597-6.041,15.979-16.722,15.979-28.901
				C85.333,29.081,70.053,13.8,51.2,13.8c-18.853,0-34.133,15.281-34.133,34.133c0,12.179,6.382,22.86,15.979,28.901l-14.108,56.431
				H8.533c-4.713,0-8.533,3.82-8.533,8.533v34.133c0,4.713,3.82,8.533,8.533,8.533h8.533v51.2H8.533
				c-4.713,0-8.533,3.82-8.533,8.533v34.133c0,4.713,3.82,8.533,8.533,8.533h8.532v204.802c0,4.713,3.82,8.533,8.533,8.533h85.333
				c4.713,0,8.533-3.82,8.533-8.533c0-75.466,61.067-136.533,136.533-136.533c75.472,0,136.533,61.064,136.533,136.533
				c0,4.713,3.82,8.533,8.533,8.533h85.333c4.713,0,8.533-3.82,8.533-8.533v-93.85c0-0.006,0.001-0.011,0.001-0.017
				s-0.001-0.011-0.001-0.017v-51.166c0-0.006,0.001-0.011,0.001-0.017s-0.001-0.011-0.001-0.017v-59.718h8.534
				c4.713,0,8.533-3.82,8.533-8.533v-34.133c0-4.713-3.82-8.533-8.533-8.533h-8.533v-51.2H503.467z M409.367,483.133
				c-4.421-80.918-71.333-145.067-153.368-145.067c-82.029,0-148.946,64.151-153.367,145.067H34.133v-76.8h59.734
				c4.713,0,8.533-3.82,8.533-8.533s-3.821-8.533-8.533-8.533H34.133v-34.133h34.134c4.713,0,8.533-3.82,8.533-8.533
				s-3.82-8.533-8.533-8.533H34.133v-51.2h443.733v51.2h-34.133c-4.713,0-8.533,3.82-8.533,8.533s3.82,8.533,8.533,8.533h34.133
				v34.133h-59.732c-4.713,0-8.533,3.821-8.533,8.533s3.82,8.533,8.533,8.533h59.732v76.8H409.367z M494.933,167.398H486.4h-51.2
				h-8.533v-17.067h8.504c0.01,0,0.019,0.002,0.029,0.002h51.2c0.01,0,0.019-0.002,0.029-0.002h8.504V167.398z M460.8,30.867
				c9.427,0,17.067,7.64,17.067,17.067S470.227,65,460.8,65c-9.427,0-17.067-7.64-17.067-17.067S451.373,30.867,460.8,30.867z
				 M458.929,82.067h3.741l12.8,51.198H446.13L458.929,82.067z M418.133,184.465h8.533v51.2h-34.133V167.4H409.6v8.532
				C409.6,180.644,413.421,184.465,418.133,184.465z M349.867,235.665V167.4h25.6v68.265H349.867z M307.2,235.665V167.4h25.6v68.265
				H307.2z M264.533,235.665V167.4h25.6v68.265H264.533z M221.867,235.665V167.4h25.6v68.265H221.867z M179.2,235.665V167.4h25.6
				v68.265H179.2z M136.533,235.665V167.4h25.6v68.265H136.533z M119.467,167.4v68.265H85.333v-51.2h8.533
				c4.713,0,8.533-3.82,8.533-8.533V167.4H119.467z M17.067,167.398v-17.067h8.504c0.01,0,0.019,0.002,0.029,0.002h51.2
				c0.01,0,0.019-0.002,0.029-0.002h8.504v17.067H76.8H25.6H17.067z M51.2,30.867c9.427,0,17.067,7.64,17.067,17.067
				S60.627,65,51.2,65c-9.427,0-17.067-7.64-17.067-17.067S41.773,30.867,51.2,30.867z M49.329,82.067h3.741l12.8,51.198H36.53
				L49.329,82.067z M34.133,184.465h34.133v51.2H34.133V184.465z M494.933,269.798H17.067v-17.067H25.6h51.2h51.166
				c0.011,0,0.022,0.002,0.034,0.002s0.022-0.002,0.034-0.002h42.599c0.011,0,0.022,0.002,0.034,0.002s0.022-0.002,0.034-0.002
				H213.3c0.011,0,0.022,0.002,0.034,0.002s0.022-0.002,0.034-0.002h42.599c0.011,0,0.022,0.002,0.034,0.002
				s0.022-0.002,0.034-0.002h42.599c0.011,0,0.022,0.002,0.034,0.002s0.022-0.002,0.034-0.002H341.3
				c0.011,0,0.022,0.002,0.034,0.002s0.022-0.002,0.034-0.002h42.599c0.011,0,0.022,0.002,0.034,0.002s0.022-0.002,0.034-0.002
				H435.2h51.2h8.533V269.798z M477.867,235.665h-34.133v-51.2h34.133V235.665z"/>
			<path d="M196.267,449c-4.713,0-8.533,3.821-8.533,8.533c0,4.716-3.817,8.533-8.533,8.533s-8.533-3.817-8.533-8.533
				c0-4.713-3.82-8.533-8.533-8.533s-8.533,3.821-8.533,8.533c0,14.142,11.458,25.6,25.6,25.6s25.6-11.458,25.6-25.6
				C204.8,452.821,200.979,449,196.267,449z"/>
			<path d="M349.867,449c-4.713,0-8.533,3.821-8.533,8.533c0,4.716-3.817,8.533-8.533,8.533c-4.716,0-8.533-3.817-8.533-8.533
				c0-4.713-3.82-8.533-8.533-8.533s-8.533,3.821-8.533,8.533c0,14.142,11.458,25.6,25.6,25.6c14.142,0,25.6-11.458,25.6-25.6
				C358.4,452.821,354.58,449,349.867,449z"/>
			<path d="M273.067,406.333c-4.713,0-8.533,3.82-8.533,8.533c0,4.716-3.817,8.533-8.533,8.533s-8.533-3.817-8.533-8.533
				c0-4.713-3.82-8.533-8.533-8.533s-8.533,3.82-8.533,8.533c0,14.142,11.458,25.6,25.6,25.6s25.6-11.458,25.6-25.6
				C281.6,410.154,277.779,406.333,273.067,406.333z"/>
		</g>
	</g>
</g>
<g>
</g>
<g>
</g>
<g>
</g>
<g>
</g>
<g>
</g>
<g>
</g>
<g>
</g>
<g>
</g>
<g>
</g>
<g>
</g>
<g>
</g>
<g>
</g>
<g>
</g>
<g>
</g>
<g>
</g>
</svg>
