<?xml version="1.0" encoding="iso-8859-1"?>
<!-- Generator: Adobe Illustrator 19.0.0, SVG Export Plug-In . SVG Version: 6.00 Build 0)  -->
<svg version="1.1" id="Layer_1" xmlns="http://www.w3.org/2000/svg" xmlns:xlink="http://www.w3.org/1999/xlink" x="0px" y="0px"
	 viewBox="0 0 512 512" style="enable-background:new 0 0 512 512;" xml:space="preserve">
<g transform="translate(0 -1)">
	<g>
		<path d="M503.467,495.933H332.8c-23.114,0-39.497-40.212-46.985-107.609c-4.048-36.429-5.063-74.795-4.387-107.631
			c0.023-1.143,0.047-2.158,0.069-3.039c18.079-7.297,32.403-22.125,38.917-40.767c11.069,7.451,24.201,11.579,37.987,11.579
			c37.703,0,68.267-30.564,68.267-68.267s-30.564-68.267-68.267-68.267c-4.874,0-9.692,0.534-14.418,1.574
			c-5.935-16.024-16.148-30.122-29.465-40.766c0.806-3.927,1.217-7.945,1.217-12.008C315.733,27.741,288.992,1,256,1
			s-59.733,26.741-59.733,59.733c0,4.063,0.411,8.082,1.217,12.008c-13.318,10.643-23.53,24.742-29.465,40.766
			c-4.727-1.04-9.544-1.574-14.418-1.574c-37.703,0-68.267,30.564-68.267,68.267s30.564,68.267,68.267,68.267
			c13.786,0,26.918-4.128,37.987-11.579c6.513,18.642,20.838,33.469,38.917,40.766c0.022,0.881,0.046,1.895,0.069,3.039
			c0.676,32.836-0.339,71.202-4.387,107.631c-7.489,67.397-23.871,107.609-46.986,107.609H8.533c-4.713,0-8.533,3.821-8.533,8.533
			S3.82,513,8.533,513H179.2h153.6h170.667c4.713,0,8.533-3.821,8.533-8.533S508.18,495.933,503.467,495.933z M205.201,220.448
			c-0.854-7.161-9.655-10.099-14.64-4.888c-9.621,10.06-22.818,15.84-36.961,15.84c-28.277,0-51.2-22.923-51.2-51.2
			s22.923-51.2,51.2-51.2c5.834,0,11.58,1.03,17.162,3.02c4.694,1.673,9.817-1.015,11.107-5.828
			c4.689-17.485,15.435-32.73,30.194-43.056c3.054-2.136,4.368-6.008,3.245-9.562c-1.304-4.128-1.976-8.444-1.976-12.842
			c0-23.567,19.1-42.667,42.667-42.667s42.667,19.1,42.667,42.667c0,4.397-0.672,8.713-1.976,12.842
			c-1.122,3.554,0.192,7.425,3.245,9.562c14.76,10.326,25.506,25.571,30.194,43.056c1.291,4.813,6.414,7.501,11.107,5.828
			c5.582-1.99,11.329-3.02,17.163-3.02c28.277,0,51.2,22.923,51.2,51.2s-22.923,51.2-51.2,51.2c-14.142,0-27.339-5.78-36.961-15.84
			c-4.985-5.212-13.786-2.273-14.64,4.888c-3.053,25.6-24.818,45.085-50.799,45.085
			C230.019,265.533,208.254,246.048,205.201,220.448z M212.053,495.933c15.928-19.941,25.633-56.571,31.095-105.724
			c4.052-36.465,5.13-74.602,4.531-107.609h16.642c-0.598,33.007,0.48,71.144,4.531,107.609
			c5.461,49.153,15.166,85.784,31.095,105.724H212.053z"/>
	</g>
</g>
<g>
</g>
<g>
</g>
<g>
</g>
<g>
</g>
<g>
</g>
<g>
</g>
<g>
</g>
<g>
</g>
<g>
</g>
<g>
</g>
<g>
</g>
<g>
</g>
<g>
</g>
<g>
</g>
<g>
</g>
</svg>
