<?xml version="1.0" encoding="iso-8859-1"?>
<!-- Generator: Adobe Illustrator 17.1.0, SVG Export Plug-In . SVG Version: 6.00 Build 0)  -->
<!DOCTYPE svg PUBLIC "-//W3C//DTD SVG 1.1//EN" "http://www.w3.org/Graphics/SVG/1.1/DTD/svg11.dtd">
<svg version="1.1" id="Capa_1" xmlns="http://www.w3.org/2000/svg" xmlns:xlink="http://www.w3.org/1999/xlink" x="0px" y="0px"
	 viewBox="0 0 355.984 355.984" style="enable-background:new 0 0 355.984 355.984;" xml:space="preserve">
<g>
	<g>
		<path d="M189.074,306.6h-22.163c-1.626,0-3.001,1.374-3.001,3v15c0,1.626,1.375,3,3.001,3h22.163c1.626,0,3-1.374,3-3v-15
			C192.074,307.974,190.7,306.6,189.074,306.6z"/>
		<path d="M281.736,0H74.248c-11.028,0-20,8.972-20,20v315.984c0,11.028,8.972,20,20,20h207.488c11.028,0,20-8.972,20-20V20
			C301.736,8.972,292.765,0,281.736,0z M202.074,324.6c0,7.168-5.832,13-13,13h-22.163c-7.169,0-13.001-5.832-13.001-13v-15
			c0-7.168,5.832-13,13.001-13h22.163c7.168,0,13,5.832,13,13V324.6z M286.737,269.281c0,5.5-4.5,10-10,10H79.248
			c-5.5,0-10-4.5-10-10v-237c0-5.5,4.5-10,10-10h197.489c5.5,0,10,4.5,10,10V269.281z"/>
	</g>
	<path d="M241.776,143.025c-1.03-19.231-16.541-34.296-35.313-34.296c-13.663,0-23.201,10.365-28.344,15.976
		c-4.848-5.506-14.462-15.976-28.597-15.976c-18.771,0-34.284,15.064-35.314,34.297c-0.483,9.051,1.81,16.895,7.434,25.431
		c4.977,7.553,17.845,19.419,27.353,27.285c14.343,11.866,24.117,17.884,29.052,17.884c11.212,0,48.553-33.396,56.298-45.172
		C238.129,162.699,242.395,154.608,241.776,143.025z"/>
</g>
<g>
</g>
<g>
</g>
<g>
</g>
<g>
</g>
<g>
</g>
<g>
</g>
<g>
</g>
<g>
</g>
<g>
</g>
<g>
</g>
<g>
</g>
<g>
</g>
<g>
</g>
<g>
</g>
<g>
</g>
</svg>
