<?xml version="1.0" encoding="iso-8859-1"?>
<!-- Generator: Adobe Illustrator 19.0.0, SVG Export Plug-In . SVG Version: 6.00 Build 0)  -->
<svg version="1.1" id="Layer_1" xmlns="http://www.w3.org/2000/svg" xmlns:xlink="http://www.w3.org/1999/xlink" x="0px" y="0px"
	 viewBox="0 0 512 512" style="enable-background:new 0 0 512 512;" xml:space="preserve">
<path style="fill:#8F5543;" d="M401.125,17.415C401.125,7.797,393.327,0,383.71,0H128.29c-9.618,0-17.415,7.797-17.415,17.415
	v477.17c0,9.618,7.797,17.415,17.415,17.415H383.71c9.618,0,17.415-7.797,17.415-17.415V17.415z"/>
<path style="fill:#C97E67;" d="M256,0H128.29c-9.618,0-17.415,7.797-17.415,17.415v477.17c0,9.618,7.797,17.415,17.415,17.415H256V0
	z"/>
<path style="fill:#784738;" d="M344.236,66.177c0-9.618-7.797-17.415-17.415-17.415H184.018c-9.618,0-17.415,7.797-17.415,17.415
	v90.558c0,9.618,7.797,17.415,17.415,17.415h142.803c9.618,0,17.415-7.797,17.415-17.415V66.177z"/>
<path style="fill:#8F5543;" d="M256,48.762h-71.982c-9.618,0-17.415,7.797-17.415,17.415v90.558c0,9.618,7.797,17.415,17.415,17.415
	H256V48.762z"/>
<circle style="fill:#ABA8AB;" cx="256" cy="111.456" r="20.154"/>
<path style="fill:#E1E1E1;" d="M256,131.61c-11.13,0-20.154-9.023-20.154-20.154S244.87,91.302,256,91.302V131.61z"/>
<path style="fill:#784738;" d="M344.236,211.302c0-9.618-7.797-17.415-17.415-17.415H184.018c-9.618,0-17.415,7.797-17.415,17.415
	v90.558c0,9.618,7.797,17.415,17.415,17.415h142.803c9.618,0,17.415-7.797,17.415-17.415V211.302z"/>
<path style="fill:#8F5543;" d="M256,193.887h-71.982c-9.618,0-17.415,7.797-17.415,17.415v90.558
	c0,9.618,7.797,17.415,17.415,17.415H256V193.887z"/>
<circle style="fill:#ABA8AB;" cx="256" cy="256.581" r="20.154"/>
<path style="fill:#E1E1E1;" d="M256,276.734c-11.13,0-20.154-9.023-20.154-20.154c0-11.13,9.023-20.154,20.154-20.154V276.734z"/>
<path style="fill:#784738;" d="M344.236,356.426c0-9.618-7.797-17.415-17.415-17.415H184.018c-9.618,0-17.415,7.797-17.415,17.415
	v90.558c0,9.618,7.797,17.415,17.415,17.415h142.803c9.618,0,17.415-7.797,17.415-17.415V356.426z"/>
<path style="fill:#8F5543;" d="M256,339.011h-71.982c-9.618,0-17.415,7.797-17.415,17.415v90.558
	c0,9.618,7.797,17.415,17.415,17.415H256V339.011z"/>
<circle style="fill:#ABA8AB;" cx="256" cy="401.705" r="20.154"/>
<path style="fill:#E1E1E1;" d="M256,421.859c-11.13,0-20.154-9.023-20.154-20.154s9.023-20.154,20.154-20.154V421.859z"/>
<g>
</g>
<g>
</g>
<g>
</g>
<g>
</g>
<g>
</g>
<g>
</g>
<g>
</g>
<g>
</g>
<g>
</g>
<g>
</g>
<g>
</g>
<g>
</g>
<g>
</g>
<g>
</g>
<g>
</g>
</svg>
