<?xml version="1.0" encoding="iso-8859-1"?>
<!-- Generator: Adobe Illustrator 19.0.0, SVG Export Plug-In . SVG Version: 6.00 Build 0)  -->
<svg version="1.1" id="Layer_1" xmlns="http://www.w3.org/2000/svg" xmlns:xlink="http://www.w3.org/1999/xlink" x="0px" y="0px"
	 viewBox="0 0 512.016 512.016" style="enable-background:new 0 0 512.016 512.016;" xml:space="preserve">
<polyline style="fill:#939393;" points="220.184,134.984 250.768,49.872 448.08,141.544 "/>
<circle cx="377.128" cy="450.56" r="61.456"/>
<circle cx="191.744" cy="450.56" r="61.456"/>
<polygon points="145.552,151.36 105.168,31.92 0.68,31.92 0.68,0 128.08,0 175.784,141.136 "/>
<polygon style="fill:#FFFFFF;" points="147.824,353.584 78.992,132.552 499.992,132.552 421.208,353.584 "/>
<path style="fill:#E21B1B;" d="M488.648,140.56l-73.08,205.032H153.704L89.864,140.56L488.648,140.56 M511.336,124.56H68.12
	l73.808,237.032h284.92L511.336,124.56L511.336,124.56z"/>
<rect x="166.776" y="185.28" width="255.328" height="16"/>
<rect x="166.776" y="237.976" width="166.168" height="16"/>
<g>
</g>
<g>
</g>
<g>
</g>
<g>
</g>
<g>
</g>
<g>
</g>
<g>
</g>
<g>
</g>
<g>
</g>
<g>
</g>
<g>
</g>
<g>
</g>
<g>
</g>
<g>
</g>
<g>
</g>
</svg>
