<?xml version="1.0" encoding="iso-8859-1"?>
<!-- Generator: Adobe Illustrator 19.0.0, SVG Export Plug-In . SVG Version: 6.00 Build 0)  -->
<svg version="1.1" id="Layer_1" xmlns="http://www.w3.org/2000/svg" xmlns:xlink="http://www.w3.org/1999/xlink" x="0px" y="0px"
	 viewBox="0 0 512 512" style="enable-background:new 0 0 512 512;" xml:space="preserve">
<rect x="244" y="361.156" width="24" height="84.792"/>
<rect x="131.472" y="433.916" width="249.04" height="24"/>
<rect y="54.084" width="512" height="315.04"/>
<g>
	<path style="fill:#E21B1B;" d="M108.256,122.572c9.136-1.56,21.992-2.728,40.088-2.728c18.312,0,31.344,3.504,40.104,10.52
		c8.384,6.608,14.024,17.52,14.024,30.36c0,12.856-4.288,23.752-12.064,31.152c-10.128,9.552-25.112,13.824-42.64,13.824
		c-3.896,0-7.4-0.2-10.128-0.576v46.912h-29.392V122.572H108.256z M137.64,182.14c2.528,0.592,5.656,0.776,9.928,0.776
		c15.76,0,25.512-7.976,25.512-21.4c0-12.08-8.384-19.28-23.176-19.28c-6.032,0-10.128,0.592-12.264,1.168L137.64,182.14
		L137.64,182.14z"/>
	<path style="fill:#E21B1B;" d="M270.936,252.028l-1.76-9.536H268.6c-6.232,7.592-15.96,11.672-27.256,11.672
		c-19.28,0-30.768-14.008-30.768-29.192c0-24.72,22.208-36.608,55.888-36.408v-1.368c0-5.064-2.728-12.264-17.328-12.264
		c-9.744,0-20.056,3.304-26.28,7.2l-5.456-19.08c6.624-3.696,19.656-8.368,36.984-8.368c31.736,0,41.864,18.688,41.864,41.08v33.104
		c0,9.136,0.376,17.904,1.368,23.16H270.936L270.936,252.028z M267.44,207.06c-15.584-0.2-27.648,3.504-27.648,14.992
		c0,7.592,5.064,11.296,11.688,11.296c7.4,0,13.432-4.864,15.368-10.896c0.392-1.56,0.592-3.32,0.592-5.064L267.44,207.06
		L267.44,207.06z"/>
	<path style="fill:#E21B1B;" d="M339.416,156.828l14.2,46.728c1.56,5.64,3.504,12.656,4.68,17.72h0.576
		c1.368-5.064,2.928-12.264,4.288-17.72l11.672-46.728h31.736l-22.192,62.688c-13.624,37.776-22.784,52.96-33.496,62.496
		c-10.304,8.96-21.224,12.064-28.616,13.032l-6.232-25.104c3.696-0.592,8.384-2.352,12.856-5.064
		c4.488-2.336,9.352-7.016,12.264-11.88c0.968-1.368,1.56-2.912,1.56-4.272c0-0.984-0.2-2.528-1.368-4.864l-34.848-87.032H339.416z"
		/>
</g>
<g>
</g>
<g>
</g>
<g>
</g>
<g>
</g>
<g>
</g>
<g>
</g>
<g>
</g>
<g>
</g>
<g>
</g>
<g>
</g>
<g>
</g>
<g>
</g>
<g>
</g>
<g>
</g>
<g>
</g>
</svg>
