<?xml version="1.0" encoding="iso-8859-1"?>
<!-- Generator: Adobe Illustrator 19.0.0, SVG Export Plug-In . SVG Version: 6.00 Build 0)  -->
<svg version="1.1" id="Layer_1" xmlns="http://www.w3.org/2000/svg" xmlns:xlink="http://www.w3.org/1999/xlink" x="0px" y="0px"
	 viewBox="0 0 512 512" style="enable-background:new 0 0 512 512;" xml:space="preserve">
<path style="fill:#FFE477;" d="M131.062,190.171v101.724c0,71.981,55.089,131.086,125.404,137.477
	c4.169,0.379,8.388,0.583,12.656,0.583l0,0c76.248,0,138.06-61.812,138.06-138.06V190.171H131.062z"/>
<path style="fill:#FFD442;" d="M269.122,190.171v239.784l0,0c76.248,0,138.06-61.812,138.06-138.06V190.171H269.122z"/>
<polygon style="fill:#B3D8F4;" points="98.848,459.293 136.814,504.163 401.429,504.163 439.397,459.293 "/>
<polygon style="fill:#5AAAE7;" points="439.397,459.293 269.122,459.293 269.122,504.163 401.429,504.163 "/>
<ellipse style="fill:#A5001E;" cx="269.123" cy="66.456" rx="95.096" ry="58.619"/>
<path style="fill:#830018;" d="M269.122,125.072c52.518,0,95.092-26.245,95.092-58.618H174.03
	C174.03,98.829,216.605,125.072,269.122,125.072z"/>
<path d="M105.75,284.059c-23.593,0-42.785-19.194-42.785-42.785v-24.16c0-23.592,19.194-42.785,42.785-42.785h323.441v-15.673
	H105.75c-32.235,0-58.459,26.225-58.459,58.459v24.16c0,32.234,26.225,58.459,58.459,58.459V284.059z"/>
<path d="M429.191,198.008v-15.673H108.408v15.673h14.818v93.887c0,80.448,65.449,145.897,145.897,145.897
	s145.897-65.449,145.897-145.897v-79.781h-15.673v79.781c0,71.805-58.418,130.224-130.224,130.224s-130.224-58.418-130.224-130.224
	v-93.887H429.191z"/>
<path d="M464.707,451.458H73.536v15.673h21.676L133.18,512h271.885l37.967-44.869h21.676v-15.673H464.707z M397.795,496.327H140.449
	l-24.705-29.195H422.5L397.795,496.327z"/>
<path d="M197.769,114.575c19.18,11.823,44.52,18.334,71.353,18.334c26.833,0,52.173-6.511,71.352-18.334
	c20.362-12.552,31.576-29.642,31.576-48.121c0-18.478-11.214-35.567-31.576-48.12C321.294,6.511,295.954,0,269.122,0
	c-26.833,0-52.173,6.511-71.353,18.335c-20.362,12.552-31.576,29.642-31.576,48.12C166.194,84.933,177.407,102.023,197.769,114.575z
	 M332.25,101.233c-16.741,10.32-39.161,16.003-63.128,16.003c-23.967,0-46.387-5.683-63.128-16.003
	c-12.358-7.618-20.287-16.981-23.034-26.942h172.322C352.537,84.252,344.608,93.614,332.25,101.233z M205.994,31.676
	c16.741-10.319,39.161-16.003,63.129-16.003c23.968,0,46.386,5.683,63.128,16.003c12.358,7.618,20.287,16.981,23.034,26.942H182.96
	C185.707,48.657,193.636,39.294,205.994,31.676z"/>
<g>
</g>
<g>
</g>
<g>
</g>
<g>
</g>
<g>
</g>
<g>
</g>
<g>
</g>
<g>
</g>
<g>
</g>
<g>
</g>
<g>
</g>
<g>
</g>
<g>
</g>
<g>
</g>
<g>
</g>
</svg>
