<?xml version="1.0" encoding="iso-8859-1"?>
<!-- Generator: Adobe Illustrator 19.0.0, SVG Export Plug-In . SVG Version: 6.00 Build 0)  -->
<svg version="1.1" id="Layer_1" xmlns="http://www.w3.org/2000/svg" xmlns:xlink="http://www.w3.org/1999/xlink" x="0px" y="0px"
	 viewBox="0 0 512 512" style="enable-background:new 0 0 512 512;" xml:space="preserve">
<g>
	<g>
		<path d="M478.67,194.4c4.031-5.805,7.152-12.836,8.932-20.327c2.704-11.373,0.815-23.116-5.315-33.069
			c-6.13-9.953-15.768-16.922-27.141-19.624c-2.4-0.569-4.813-0.925-7.221-1.091c0.572-1.575,1.065-3.184,1.458-4.834
			c5.578-23.476-8.982-47.114-32.458-52.693c-9.639-2.291-19.474-1.182-28.069,2.682c-0.829-5.902-2.866-11.625-6.086-16.853
			c-6.13-9.954-15.769-16.923-27.141-19.625c-11.373-2.704-23.116-0.815-33.068,5.316c-5.332,3.284-9.797,7.583-13.219,12.607
			c-6.459-7.604-15.62-13.406-26.179-15.914c-23.483-5.577-47.114,8.982-52.693,32.458c-0.392,1.649-0.674,3.309-0.873,4.973
			c-2.225-0.934-4.539-1.703-6.939-2.273c-11.373-2.704-23.116-0.815-33.068,5.315c-9.953,6.13-16.922,15.769-19.624,27.141
			c-2.133,8.973-1.319,18.164,1.96,26.367c-18.13,1.737-34,14.757-38.438,33.436c-3,12.62-0.055,25.3,7.017,35.173H39.93
			C17.539,193.564,0,213.969,0,240.02v53.486c0,0.006,0,0.012,0,0.018v151.845l0.005,0.748c0.199,15.005,8.822,28.227,22.505,34.51
			c5.276,2.421,10.84,3.61,16.353,3.61c8.792-0.001,17.452-3.023,24.574-8.882l246.606-177.014
			c9.061-0.269,17.515-2.982,24.726-7.509l113.345,118.646c6.881,9.199,17.207,14.27,28.138,14.268c3.637,0,7.344-0.561,11.011-1.72
			c14.812-4.676,24.52-17.71,24.731-33.186c0.005-0.257,0.006-0.516,0.006-0.775V281.408c0.001-0.02,0.002-0.041,0.001-0.062v-40.33
			C512,217.867,497.619,198.547,478.67,194.4z M150.552,162.445c1.62-6.816,5.796-12.592,11.761-16.266
			c5.966-3.675,13.005-4.806,19.816-3.187c2.451,0.582,4.787,1.501,6.944,2.732c0.302,0.172,0.611,0.319,0.924,0.451l35.306,20.369
			c1.381,0.797,2.887,1.175,4.373,1.175c3.031,0,5.978-1.573,7.602-4.387c2.42-4.194,0.982-9.556-3.212-11.975l-35.906-20.715
			c-9.207-6.038-13.68-17.277-11.132-28.002c3.343-14.069,17.51-22.798,31.577-19.452c6.986,1.66,12.848,5.978,16.508,12.159
			c0.005,0.008,0.012,0.016,0.016,0.025c0.003,0.006,0.006,0.01,0.008,0.016l22.832,38.071c1.644,2.741,4.548,4.26,7.526,4.26
			c1.535,0,3.09-0.403,4.502-1.25c4.153-2.49,5.5-7.874,3.009-12.028l-22.809-38.032c-3.249-5.764-4.199-12.479-2.666-18.926
			c3.343-14.069,17.504-22.8,31.58-19.452c12.58,2.99,22.313,13.322,22.639,24.033c0,0.003,0,0.007,0.001,0.01l0.41,37.779
			c0.053,4.809,3.968,8.673,8.765,8.673c0.032,0,0.065,0,0.097,0c4.843-0.054,8.725-4.02,8.673-8.862l-0.413-37.961
			c0-0.011-0.001-0.02-0.001-0.03c-0.008-2.073,0.23-4.158,0.717-6.198c1.62-6.816,5.796-12.592,11.761-16.266
			c5.965-3.676,13.005-4.803,19.816-3.187c6.816,1.62,12.592,5.796,16.266,11.761c3.675,5.965,4.806,13.002,3.187,19.819
			c-0.413,1.732-0.998,3.425-1.743,5.029c-0.089,0.19-0.16,0.385-0.234,0.579c-0.208,0.355-0.414,0.713-0.614,1.075
			c-0.006,0.009-0.012,0.019-0.018,0.028l-16.844,29.825c-2.381,4.216-0.894,9.565,3.322,11.946
			c1.363,0.769,2.843,1.135,4.304,1.135c3.059,0,6.03-1.604,7.642-4.457l16.844-29.825c0.012-0.021,0.02-0.042,0.032-0.063
			c0.013-0.023,0.028-0.044,0.041-0.068c5.631-10.382,17.609-15.72,29.112-12.986c14.069,3.343,22.795,17.51,19.452,31.58
			c-1.531,6.443-5.398,12.009-10.889,15.697l-38.65,24.446c-4.093,2.589-5.312,8.005-2.724,12.096
			c1.669,2.638,4.511,4.082,7.418,4.082c1.603,0,3.225-0.44,4.678-1.358l38.68-24.465c0.003-0.002,0.007-0.005,0.01-0.007
			c0.011-0.007,0.022-0.012,0.033-0.019c0.021-0.014,0.043-0.026,0.064-0.039c0.019-0.012,0.039-0.02,0.056-0.032
			c0.009-0.006,0.019-0.013,0.028-0.02c6.018-3.799,13.139-4.988,20.062-3.342c6.816,1.62,12.592,5.796,16.266,11.761
			c3.674,5.965,4.804,13.002,3.185,19.819c-2.08,8.754-8.806,23.399-20.921,23.547h-0.948h-82.013h-34.114
			c-7.495-10.904-14.427-19.69-17.163-23.084c-1.665-2.066-4.173-3.265-6.826-3.265c-2.652,0-5.161,1.199-6.826,3.265
			c-2.735,3.393-9.667,12.181-17.163,23.084h-26.859h-81.948h-6.311C155.757,189.814,147.316,176.057,150.552,162.445z
			 M52.966,461.289c-0.177,0.126-0.348,0.259-0.513,0.399c-6.473,5.415-14.929,6.539-22.625,3.003
			c-7.584-3.482-12.18-10.513-12.288-18.785l-0.001-49.518l196.472-97.884c4.333-2.159,6.097-7.423,3.937-11.758
			c-2.158-4.332-7.422-6.097-11.758-3.937L17.537,376.796l-0.001-76.435l184.863-41.709c4.724-1.066,7.688-5.76,6.623-10.482
			c-1.065-4.724-5.76-7.687-10.482-6.623L17.535,282.386V240.02c0-15.948,10.047-28.922,22.395-28.922h233.434
			c-7.885,13.461-14.26,27.522-14.26,37.827c0,19.504,11.352,36.402,27.793,44.448L52.966,461.289z M308.558,280.845
			c-17.601,0-31.92-14.319-31.92-31.92c0-12.093,17.49-39.387,31.92-58.64c14.43,19.253,31.92,46.547,31.92,58.64
			C340.478,266.526,326.159,280.845,308.558,280.845z M494.464,268.49l-82.242-33.312c-4.484-1.819-9.598,0.346-11.417,4.835
			c-1.819,4.488,0.346,9.6,4.835,11.417l88.824,35.979v51.33l-86.423-59.793c-3.985-2.753-9.444-1.758-12.199,2.221
			c-2.754,3.982-1.76,9.443,2.221,12.199l96.282,66.614c0.037,0.026,0.079,0.043,0.118,0.069v28.021l-0.001,0.51
			c-0.13,9.47-6.531,14.849-12.478,16.728c-6.01,1.895-14.429,1.157-20.034-6.608c-0.235-0.325-0.492-0.635-0.769-0.925
			L347.749,279.037c6.428-8.346,10.262-18.786,10.262-30.11c0-10.306-6.376-24.366-14.26-37.827h127.307
			c12.688,0,23.406,13.702,23.406,29.919V268.49z"/>
	</g>
</g>
<g>
</g>
<g>
</g>
<g>
</g>
<g>
</g>
<g>
</g>
<g>
</g>
<g>
</g>
<g>
</g>
<g>
</g>
<g>
</g>
<g>
</g>
<g>
</g>
<g>
</g>
<g>
</g>
<g>
</g>
</svg>
