<?xml version="1.0" encoding="iso-8859-1"?>
<!-- Generator: Adobe Illustrator 19.0.0, SVG Export Plug-In . SVG Version: 6.00 Build 0)  -->
<svg version="1.1" id="Layer_1" xmlns="http://www.w3.org/2000/svg" xmlns:xlink="http://www.w3.org/1999/xlink" x="0px" y="0px"
	 viewBox="0 0 512 512" style="enable-background:new 0 0 512 512;" xml:space="preserve">
<g>
	<g>
		<path d="M494.644,173.559C494.644,77.859,416.785,0,321.085,0S147.525,77.859,147.525,173.559
			c0,74.44,47.199,137.893,113.169,162.504c-0.59,2.057-0.425,4.296,0.564,6.257l17.356,34.712c1.475,2.942,4.469,4.799,7.758,4.799
			h8.235c-4.365,43.789-41.42,78.102-86.337,78.102c-47.85,0-86.78-38.929-86.78-86.78v-34.712
			c0-30.546-22.684-55.817-52.068-60.052v-18.05c0-4.79-3.879-8.678-8.678-8.678H26.034c-4.799,0-8.678,3.888-8.678,8.678v225.627
			c0,4.79,3.879,8.678,8.678,8.678h34.712c4.799,0,8.678-3.888,8.678-8.678v-18.05c10.362-1.493,19.873-5.597,27.865-11.637
			C123.522,491.329,164.291,512,208.271,512c73.633,0,133.892-57.656,138.414-130.169h9.112c3.289,0,6.292-1.857,7.767-4.799
			l17.356-34.712c0.981-1.961,1.154-4.2,0.564-6.257C447.453,311.452,494.644,247.999,494.644,173.559z M216.949,173.559
			c0,4.79-3.879,8.678-8.678,8.678c-4.799,0-8.678-3.888-8.678-8.678c0-66.994,54.498-121.492,121.492-121.492
			c4.799,0,8.678,3.888,8.678,8.678s-3.879,8.678-8.678,8.678C263.663,69.424,216.949,116.137,216.949,173.559z M350.434,364.475
			h-11.993h-34.712h-11.993l-8.678-17.356h76.054L350.434,364.475z"/>
	</g>
</g>
<g>
</g>
<g>
</g>
<g>
</g>
<g>
</g>
<g>
</g>
<g>
</g>
<g>
</g>
<g>
</g>
<g>
</g>
<g>
</g>
<g>
</g>
<g>
</g>
<g>
</g>
<g>
</g>
<g>
</g>
</svg>
