<?xml version="1.0" encoding="iso-8859-1"?>
<!-- Generator: Adobe Illustrator 19.0.0, SVG Export Plug-In . SVG Version: 6.00 Build 0)  -->
<svg version="1.1" id="Layer_1" xmlns="http://www.w3.org/2000/svg" xmlns:xlink="http://www.w3.org/1999/xlink" x="0px" y="0px"
	 viewBox="0 0 512 512" style="enable-background:new 0 0 512 512;" xml:space="preserve">
<g>
	<g>
		<path d="M503.467,422.4h-34.133V309.76c10.24-3.413,17.067-12.8,17.067-23.893c0-11.093-6.827-20.48-17.067-23.893V106.667
			c0-5.12-3.413-8.533-8.533-8.533c-5.12,0-8.533,3.413-8.533,8.533V166.4h-51.2V81.067c0-5.12-3.413-8.533-8.533-8.533
			c-5.12,0-8.533,3.413-8.533,8.533V166.4h-51.2v-59.733c0-5.12-3.413-8.533-8.533-8.533s-8.533,3.413-8.533,8.533V166.4h-51.2
			V81.067c0-5.12-3.413-8.533-8.533-8.533s-8.533,3.413-8.533,8.533V166.4h-51.2v-59.733c0-5.12-3.413-8.533-8.533-8.533
			s-8.533,3.413-8.533,8.533V166.4H128V81.067c0-5.12-3.413-8.533-8.533-8.533s-8.533,3.413-8.533,8.533V166.4h-51.2v-59.733
			c0-5.12-3.413-8.533-8.533-8.533s-8.533,3.413-8.533,8.533v155.307c-10.24,3.413-17.067,12.8-17.067,23.893
			c0,11.093,6.827,20.48,17.067,23.893V422.4H8.533c-5.12,0-8.533,3.413-8.533,8.533s3.413,8.533,8.533,8.533h494.933
			c5.12,0,8.533-3.413,8.533-8.533S508.587,422.4,503.467,422.4z M110.933,422.4h-51.2v-42.667h51.2V422.4z M110.933,362.667h-51.2
			V309.76c6.827-2.56,12.8-8.533,15.36-15.36h20.48c2.56,6.827,8.533,12.8,15.36,15.36V362.667z M110.933,261.973
			c-6.827,2.56-12.8,8.533-15.36,15.36h-20.48c-2.56-6.827-8.533-12.8-15.36-15.36v-78.507h51.2V261.973z M179.2,422.4H128v-42.667
			h51.2V422.4z M179.2,362.667H128V309.76c6.827-2.56,12.8-8.533,15.36-15.36h20.48c2.56,6.827,8.533,12.8,15.36,15.36V362.667z
			 M179.2,261.973c-6.827,2.56-12.8,8.533-15.36,15.36h-20.48c-2.56-6.827-8.533-12.8-15.36-15.36v-78.507h51.2V261.973z
			 M247.467,422.4h-51.2v-42.667h51.2V422.4z M247.467,362.667h-51.2V309.76c6.827-2.56,12.8-8.533,15.36-15.36h20.48
			c2.56,6.827,8.533,12.8,15.36,15.36V362.667z M247.467,261.973c-6.827,2.56-12.8,8.533-15.36,15.36h-20.48
			c-2.56-6.827-8.533-12.8-15.36-15.36v-78.507h51.2V261.973z M315.733,422.4h-51.2v-42.667h51.2V422.4z M315.733,362.667h-51.2
			V309.76c6.827-2.56,12.8-8.533,15.36-15.36h20.48c2.56,6.827,8.533,12.8,15.36,15.36V362.667z M315.733,261.973
			c-6.827,2.56-12.8,8.533-15.36,15.36h-20.48c-2.56-6.827-8.533-12.8-15.36-15.36v-78.507h51.2V261.973z M384,422.4h-51.2v-42.667
			H384V422.4z M384,362.667h-51.2V309.76c6.827-2.56,12.8-8.533,15.36-15.36h20.48c2.56,6.827,8.533,12.8,15.36,15.36V362.667z
			 M384,261.973c-6.827,2.56-12.8,8.533-15.36,15.36h-20.48c-2.56-6.827-8.533-12.8-15.36-15.36v-78.507H384V261.973z
			 M452.267,422.4h-51.2v-42.667h51.2V422.4z M452.267,362.667h-51.2V309.76c6.827-2.56,12.8-8.533,15.36-15.36h20.48
			c2.56,6.827,8.533,12.8,15.36,15.36V362.667z M452.267,261.973c-6.827,2.56-12.8,8.533-15.36,15.36h-20.48
			c-2.56-6.827-8.533-12.8-15.36-15.36v-78.507h51.2V261.973z"/>
	</g>
</g>
<g>
</g>
<g>
</g>
<g>
</g>
<g>
</g>
<g>
</g>
<g>
</g>
<g>
</g>
<g>
</g>
<g>
</g>
<g>
</g>
<g>
</g>
<g>
</g>
<g>
</g>
<g>
</g>
<g>
</g>
</svg>
