<?xml version="1.0" encoding="iso-8859-1"?>
<!-- Generator: Adobe Illustrator 19.0.0, SVG Export Plug-In . SVG Version: 6.00 Build 0)  -->
<svg version="1.1" id="Layer_1" xmlns="http://www.w3.org/2000/svg" xmlns:xlink="http://www.w3.org/1999/xlink" x="0px" y="0px"
	 viewBox="0 0 511.852 511.852" style="enable-background:new 0 0 511.852 511.852;" xml:space="preserve">
<g>
	<g>
		<g>
			<path d="M400.992,204.652h-25.6h-68.267h-24.653l5.606-53.274c1.237-3.49,2.304-7.228,3.132-11.375l14.379-71.885h-99.328
				l13.85,69.231c0.828,4.139,2.014,8.124,3.447,11.981l5.82,55.322h-24.653h-68.267h-25.6c-4.71,0-8.533,3.814-8.533,8.533
				c0,4.71,3.823,8.533,8.533,8.533h17.067v110.933c0,4.71,3.823,8.533,8.533,8.533h30.302l63.565,71.509v47.957
				c-23.526,0-42.667,19.14-42.667,42.667c0,4.71,3.823,8.533,8.533,8.533h119.467c4.71,0,8.533-3.823,8.533-8.533
				c0-23.526-19.14-42.667-42.667-42.667v-47.957l63.565-71.509h30.302c4.71,0,8.533-3.823,8.533-8.533V221.718h17.067
				c4.719,0,8.533-3.823,8.533-8.533C409.526,208.466,405.711,204.652,400.992,204.652z M230.326,387l-40.73-45.815h15.13
				c4.71,0,8.533-3.823,8.533-8.533V221.718h17.067V387z M265.312,204.652h-18.773l-2.995-28.459
				c0.307,0.145,0.64,0.282,0.947,0.427c0.137,0.06,0.265,0.128,0.401,0.188c5.376,2.415,12.407,3.729,20.847,0.512
				c0.41-0.145,0.811-0.324,1.22-0.495c0.452-0.196,0.879-0.324,1.331-0.546L265.312,204.652z M281.526,387V221.718h17.067v110.933
				c0,4.71,3.823,8.533,8.533,8.533h15.13L281.526,387z"/>
			<path d="M262.48,2.918c-3.243-3.891-9.865-3.891-13.107,0l-40.107,48.128h93.321L262.48,2.918z"/>
		</g>
	</g>
</g>
<g>
</g>
<g>
</g>
<g>
</g>
<g>
</g>
<g>
</g>
<g>
</g>
<g>
</g>
<g>
</g>
<g>
</g>
<g>
</g>
<g>
</g>
<g>
</g>
<g>
</g>
<g>
</g>
<g>
</g>
</svg>
