<?xml version="1.0" encoding="iso-8859-1"?>
<!-- Generator: Adobe Illustrator 19.0.0, SVG Export Plug-In . SVG Version: 6.00 Build 0)  -->
<svg version="1.1" id="Layer_1" xmlns="http://www.w3.org/2000/svg" xmlns:xlink="http://www.w3.org/1999/xlink" x="0px" y="0px"
	 viewBox="0 0 503.607 503.607" style="enable-background:new 0 0 503.607 503.607;" xml:space="preserve">
<g transform="translate(1 1)">
	<path style="fill:#FFE100;" d="M385.098,57.754h-268.59V15.787c0-5.036,3.357-8.393,8.393-8.393h251.803
		c5.036,0,8.393,3.357,8.393,8.393V57.754z"/>
	<path style="fill:#FFA800;" d="M376.705,7.393h-25.18c5.036,0,8.393,3.357,8.393,8.393v41.967h25.18V15.787
		C385.098,10.751,381.741,7.393,376.705,7.393"/>
	<path style="fill:#FFE100;" d="M401.885,259.197H99.721c-5.036,0-8.393-3.357-8.393-8.393V66.148c0-5.036,3.357-8.393,8.393-8.393
		h302.164c5.036,0,8.393,3.357,8.393,8.393v184.656C410.279,255.839,406.921,259.197,401.885,259.197"/>
	<path style="fill:#FFA800;" d="M401.885,57.754h-25.18c5.036,0,8.393,3.357,8.393,8.393v184.656c0,5.036-3.357,8.393-8.393,8.393
		h25.18c5.036,0,8.393-3.357,8.393-8.393V66.148C410.279,61.951,406.921,57.754,401.885,57.754"/>
	<g>
		<path style="fill:#FFFFFF;" d="M124.902,7.393h25.18c-5.036,0-8.393,3.357-8.393,8.393v41.967h-25.18V15.787
			C116.508,10.751,119.866,7.393,124.902,7.393"/>
		<path style="fill:#FFFFFF;" d="M99.721,57.754h25.18c-5.036,0-8.393,4.197-8.393,8.393v184.656c0,5.036,3.357,8.393,8.393,8.393
			h-25.18c-5.036,0-8.393-3.357-8.393-8.393V66.148C91.328,61.951,94.685,57.754,99.721,57.754"/>
	</g>
	<path style="fill:#FFE100;" d="M275.984,309.557h-50.361c-5.036,0-8.393-3.357-8.393-8.393v-41.967h67.148v41.967
		C284.377,306.2,281.02,309.557,275.984,309.557"/>
	<path style="fill:#FFA800;" d="M267.59,259.197v41.967c0,5.036-3.357,8.393-8.393,8.393h16.787c5.036,0,8.393-3.357,8.393-8.393
		v-41.967H267.59z"/>
	<path style="fill:#FFFFFF;" d="M234.016,259.197v41.967c0,5.036,3.357,8.393,8.393,8.393h-16.787c-5.036,0-8.393-3.357-8.393-8.393
		v-41.967H234.016z"/>
	<polygon style="fill:#FFE100;" points="234.016,494.213 267.59,494.213 267.59,309.557 234.016,309.557 	"/>
	<path style="fill:#63D3FD;" d="M250.803,183.656L250.803,183.656c-14.269,0-25.18-10.911-25.18-25.18s10.911-25.18,25.18-25.18
		c14.269,0,25.18,10.911,25.18,25.18S265.072,183.656,250.803,183.656"/>
	<path d="M385.098,66.148h-268.59c-5.036,0-8.393-3.357-8.393-8.393V15.787C108.115,6.554,115.669-1,124.902-1h251.803
		c9.233,0,16.787,7.554,16.787,16.787v41.967C393.492,62.79,390.134,66.148,385.098,66.148z M124.902,49.361h251.803V15.787H124.902
		V49.361z"/>
	<path d="M401.885,267.59H99.721c-9.233,0-16.787-7.554-16.787-16.787V66.148c0-9.233,7.554-16.787,16.787-16.787h302.164
		c9.233,0,16.787,7.554,16.787,16.787v184.656C418.672,260.036,411.118,267.59,401.885,267.59z M401.885,250.803v8.393V250.803
		L401.885,250.803z M99.721,66.148v184.656h302.164V66.148H99.721z"/>
	<path d="M275.984,317.951h-50.361c-9.233,0-16.787-7.554-16.787-16.787v-41.967c0-5.036,3.357-8.393,8.393-8.393h67.148
		c5.036,0,8.393,3.357,8.393,8.393v41.967C292.77,310.397,285.216,317.951,275.984,317.951z M275.984,301.164v8.393V301.164
		L275.984,301.164z M225.623,267.59v33.574h50.361V267.59H225.623z"/>
	<path d="M267.59,502.607h-33.574c-5.036,0-8.393-3.357-8.393-8.393V309.557c0-5.036,3.357-8.393,8.393-8.393h33.574
		c5.036,0,8.393,3.357,8.393,8.393v184.656C275.984,499.249,272.626,502.607,267.59,502.607z M242.41,485.82h16.787V317.951H242.41
		V485.82z"/>
	<path d="M250.803,192.049c-18.466,0-33.574-15.108-33.574-33.574s15.108-33.574,33.574-33.574s33.574,15.108,33.574,33.574
		S269.269,192.049,250.803,192.049z M250.803,141.689c-9.233,0-16.787,7.554-16.787,16.787s7.554,16.787,16.787,16.787
		c9.233,0,16.787-7.554,16.787-16.787S260.036,141.689,250.803,141.689z"/>
	<path d="M385.098,502.607h-268.59c-5.036,0-8.393-3.357-8.393-8.393c0-5.036,3.357-8.393,8.393-8.393h268.59
		c5.036,0,8.393,3.357,8.393,8.393C393.492,499.249,390.134,502.607,385.098,502.607z"/>
</g>
<g>
</g>
<g>
</g>
<g>
</g>
<g>
</g>
<g>
</g>
<g>
</g>
<g>
</g>
<g>
</g>
<g>
</g>
<g>
</g>
<g>
</g>
<g>
</g>
<g>
</g>
<g>
</g>
<g>
</g>
</svg>
