<?xml version="1.0" encoding="iso-8859-1"?>
<!-- Generator: Adobe Illustrator 19.0.0, SVG Export Plug-In . SVG Version: 6.00 Build 0)  -->
<svg version="1.1" id="Layer_1" xmlns="http://www.w3.org/2000/svg" xmlns:xlink="http://www.w3.org/1999/xlink" x="0px" y="0px"
	 viewBox="0 0 503.607 503.607" style="enable-background:new 0 0 503.607 503.607;" xml:space="preserve">
<g transform="translate(1 1)">
	<g>
		<path style="fill:#FFE100;" d="M368.311,401.885c0,32.734-26.02,58.754-58.754,58.754H192.049
			c-32.734,0-58.754-26.02-58.754-58.754l0,0H99.721l0,0c0,51.2,41.128,92.328,92.328,92.328h117.508
			c51.2,0,92.328-41.128,92.328-92.328H368.311z"/>
		<polygon style="fill:#FFE100;" points="343.131,351.525 427.066,351.525 427.066,234.016 343.131,234.016 		"/>
		<polygon style="fill:#FFE100;" points="351.525,234.016 418.672,234.016 418.672,200.443 351.525,200.443 		"/>
	</g>
	<polygon style="fill:#FFA800;" points="401.885,234.016 418.672,234.016 418.672,200.443 401.885,200.443 	"/>
	<polygon style="fill:#FFFFFF;" points="351.525,234.016 368.311,234.016 368.311,200.443 351.525,200.443 	"/>
	<polygon style="fill:#FFA800;" points="410.279,351.525 427.066,351.525 427.066,234.016 410.279,234.016 	"/>
	<polygon style="fill:#FFFFFF;" points="343.131,351.525 359.918,351.525 359.918,234.016 343.131,234.016 	"/>
	<g>
		<polygon style="fill:#FFE100;" points="359.918,200.443 410.279,200.443 410.279,82.934 359.918,82.934 		"/>
		<path style="fill:#FFE100;" d="M410.279,32.574h-50.361c10.072,15.108,10.072,35.252,0,50.361h50.361
			C400.207,67.826,400.207,47.682,410.279,32.574"/>
		<polygon style="fill:#FFE100;" points="393.492,7.393 410.279,32.574 359.918,32.574 376.705,7.393 		"/>
		<path style="fill:#FFE100;" d="M401.885,401.885h-33.574c-5.036,0-8.393-3.357-8.393-8.393v-41.967h50.361v41.967
			C410.279,398.528,406.921,401.885,401.885,401.885"/>
	</g>
	<path style="fill:#FFA800;" d="M393.492,351.525v41.967c0,5.036-3.357,8.393-8.393,8.393h16.787c5.036,0,8.393-3.357,8.393-8.393
		v-41.967H393.492z"/>
	<path style="fill:#FFFFFF;" d="M376.705,351.525v41.967c0,5.036,3.357,8.393,8.393,8.393h-16.787c-5.036,0-8.393-3.357-8.393-8.393
		v-41.967H376.705z"/>
	<g>
		<polygon style="fill:#FFE100;" points="74.541,351.525 158.475,351.525 158.475,234.016 74.541,234.016 		"/>
		<polygon style="fill:#FFE100;" points="82.934,234.016 150.082,234.016 150.082,200.443 82.934,200.443 		"/>
	</g>
	<polygon style="fill:#FFA800;" points="133.295,234.016 150.082,234.016 150.082,200.443 133.295,200.443 	"/>
	<polygon style="fill:#FFFFFF;" points="82.934,234.016 99.721,234.016 99.721,200.443 82.934,200.443 	"/>
	<polygon style="fill:#FFA800;" points="141.689,351.525 158.475,351.525 158.475,234.016 141.689,234.016 	"/>
	<polygon style="fill:#FFFFFF;" points="74.541,351.525 91.328,351.525 91.328,234.016 74.541,234.016 	"/>
	<g>
		<polygon style="fill:#FFE100;" points="91.328,200.443 141.689,200.443 141.689,82.934 91.328,82.934 		"/>
		<path style="fill:#FFE100;" d="M141.689,32.574H91.328c10.072,15.108,10.072,35.252,0,50.361h50.361
			C131.616,67.826,131.616,47.682,141.689,32.574"/>
		<polygon style="fill:#FFE100;" points="124.902,7.393 141.689,32.574 91.328,32.574 108.115,7.393 		"/>
		<path style="fill:#FFE100;" d="M133.295,401.885H99.721c-5.036,0-8.393-3.357-8.393-8.393v-41.967h50.361v41.967
			C141.689,398.528,138.331,401.885,133.295,401.885"/>
	</g>
	<path style="fill:#FFA800;" d="M124.902,351.525v41.967c0,5.036-3.357,8.393-8.393,8.393h16.787c5.036,0,8.393-3.357,8.393-8.393
		v-41.967H124.902z"/>
	<path style="fill:#FFFFFF;" d="M108.115,351.525v41.967c0,5.036,3.357,8.393,8.393,8.393H99.721c-5.036,0-8.393-3.357-8.393-8.393
		v-41.967H108.115z"/>
	<path d="M410.279,410.279h-50.361c-5.036,0-8.393-3.357-8.393-8.393v-50.361c0-5.036,3.357-8.393,8.393-8.393h50.361
		c5.036,0,8.393,3.357,8.393,8.393v50.361C418.672,406.921,415.315,410.279,410.279,410.279z M368.311,393.492h33.574v-33.574
		h-33.574V393.492z"/>
	<path d="M427.066,359.918h-83.934c-5.036,0-8.393-3.357-8.393-8.393V234.016c0-5.036,3.357-8.393,8.393-8.393h83.934
		c5.036,0,8.393,3.357,8.393,8.393v117.508C435.459,356.561,432.102,359.918,427.066,359.918z M351.525,343.131h67.148V242.41
		h-67.148V343.131z"/>
	<path d="M418.672,242.41h-67.148c-5.036,0-8.393-3.357-8.393-8.393v-33.574c0-5.036,3.357-8.393,8.393-8.393h67.148
		c5.036,0,8.393,3.357,8.393,8.393v33.574C427.066,239.052,423.708,242.41,418.672,242.41z M359.918,225.623h50.361v-16.787h-50.361
		V225.623z"/>
	<path d="M410.279,208.836h-50.361c-5.036,0-8.393-3.357-8.393-8.393V82.934c0-5.036,3.357-8.393,8.393-8.393h50.361
		c5.036,0,8.393,3.357,8.393,8.393v117.508C418.672,205.479,415.315,208.836,410.279,208.836z M368.311,192.049h33.574V91.328
		h-33.574V192.049z"/>
	<path d="M410.279,124.902h-50.361c-5.036,0-8.393-3.357-8.393-8.393c0-5.036,3.357-8.393,8.393-8.393h50.361
		c5.036,0,8.393,3.357,8.393,8.393C418.672,121.544,415.315,124.902,410.279,124.902z"/>
	<path d="M410.279,91.328h-50.361c-3.357,0-5.875-1.679-7.554-4.197c-1.679-2.518-1.679-5.875,0-8.393
		c8.393-12.59,8.393-28.538,0-41.128c-1.679-2.518-1.679-5.875,0-8.393c1.679-3.357,4.197-5.036,7.554-5.036h50.361
		c3.357,0,5.875,1.679,7.554,4.197c1.679,2.518,1.679,5.875,0,8.393c-8.393,12.59-8.393,28.538,0,41.128
		c1.679,2.518,1.679,5.875,0,8.393C416.154,89.649,413.636,91.328,410.279,91.328z M373.348,74.541h23.502
		c-3.357-10.911-3.357-22.662,0-33.574h-23.502C376.705,51.879,376.705,63.63,373.348,74.541z"/>
	<path d="M410.279,40.967L410.279,40.967h-50.361c-3.357,0-5.875-1.679-7.554-4.197c-1.679-2.518-1.679-5.875,0-8.393l16.787-25.18
		C371.669,0.679,374.187-1,376.705-1h16.787c2.518,0,5.036,1.679,6.715,3.357l15.948,24.341c1.679,1.679,2.518,3.357,2.518,5.875
		C418.672,37.61,415.315,40.967,410.279,40.967z M375.866,24.18h19.305l-5.875-8.393h-7.554L375.866,24.18z"/>
	<path d="M141.689,410.279H91.328c-5.036,0-8.393-3.357-8.393-8.393v-50.361c0-5.036,3.357-8.393,8.393-8.393h50.361
		c5.036,0,8.393,3.357,8.393,8.393v50.361C150.082,406.921,146.725,410.279,141.689,410.279z M99.721,393.492h33.574v-33.574H99.721
		V393.492z"/>
	<path d="M158.475,359.918H74.541c-5.036,0-8.393-3.357-8.393-8.393V234.016c0-5.036,3.357-8.393,8.393-8.393h83.934
		c5.036,0,8.393,3.357,8.393,8.393v117.508C166.869,356.561,163.511,359.918,158.475,359.918z M82.934,343.131h67.148V242.41H82.934
		V343.131z"/>
	<path d="M150.082,242.41H82.934c-5.036,0-8.393-3.357-8.393-8.393v-33.574c0-5.036,3.357-8.393,8.393-8.393h67.148
		c5.036,0,8.393,3.357,8.393,8.393v33.574C158.475,239.052,155.118,242.41,150.082,242.41z M91.328,225.623h50.361v-16.787H91.328
		V225.623z"/>
	<path d="M141.689,208.836H91.328c-5.036,0-8.393-3.357-8.393-8.393V82.934c0-5.036,3.357-8.393,8.393-8.393h50.361
		c5.036,0,8.393,3.357,8.393,8.393v117.508C150.082,205.479,146.725,208.836,141.689,208.836z M99.721,192.049h33.574V91.328H99.721
		V192.049z"/>
	<path d="M141.689,124.902H91.328c-5.036,0-8.393-3.357-8.393-8.393c0-5.036,3.357-8.393,8.393-8.393h50.361
		c5.036,0,8.393,3.357,8.393,8.393C150.082,121.544,146.725,124.902,141.689,124.902z"/>
	<path d="M141.689,91.328H91.328c-3.357,0-5.875-1.679-7.554-4.197s-1.679-5.875,0-8.393c8.393-12.59,8.393-28.538,0-41.128
		c-1.679-2.518-1.679-5.875,0-8.393c1.679-3.357,4.197-5.036,7.554-5.036h50.361c3.357,0,5.875,1.679,7.554,4.197
		c1.679,2.518,1.679,5.875,0,8.393c-8.393,12.59-8.393,28.538,0,41.128c1.679,2.518,1.679,5.875,0,8.393
		C147.564,89.649,145.046,91.328,141.689,91.328z M104.757,74.541h23.502c-3.357-10.911-3.357-22.662,0-33.574h-23.502
		C108.115,51.879,108.115,63.63,104.757,74.541z"/>
	<path d="M141.689,40.967L141.689,40.967H91.328c-3.357,0-5.875-1.679-7.554-4.197s-1.679-5.875,0-8.393l16.787-25.18
		C103.079,0.679,105.597-1,108.115-1h16.787c2.518,0,5.036,1.679,6.715,3.357l15.948,24.341c1.679,1.679,2.518,3.357,2.518,5.875
		C150.082,37.61,146.725,40.967,141.689,40.967z M107.275,24.18h19.305l-5.875-8.393h-8.393L107.275,24.18z"/>
	<path d="M192.049,502.607L192.049,502.607c-55.397,0-100.721-45.325-100.721-100.721c0-5.036,3.357-8.393,8.393-8.393h33.574
		c5.036,0,8.393,3.357,8.393,8.393c0,27.698,22.662,50.361,50.361,50.361h117.508c27.698,0,50.361-22.662,50.361-50.361
		c0-5.036,3.357-8.393,8.393-8.393h33.574c5.036,0,8.393,3.357,8.393,8.393c0,55.397-45.325,100.721-100.721,100.721H192.049z
		 M108.115,410.279c4.197,42.807,40.289,75.541,83.934,75.541h117.508c43.646,0,78.898-33.574,83.934-75.541h-16.787
		c-4.197,32.734-32.734,58.754-66.308,58.754H192.889c-34.413,0-62.951-26.02-66.308-58.754H108.115z"/>
</g>
<g>
</g>
<g>
</g>
<g>
</g>
<g>
</g>
<g>
</g>
<g>
</g>
<g>
</g>
<g>
</g>
<g>
</g>
<g>
</g>
<g>
</g>
<g>
</g>
<g>
</g>
<g>
</g>
<g>
</g>
</svg>
