<?xml version="1.0" encoding="iso-8859-1"?>
<!-- Generator: Adobe Illustrator 19.0.0, SVG Export Plug-In . SVG Version: 6.00 Build 0)  -->
<svg version="1.1" id="Layer_1" xmlns="http://www.w3.org/2000/svg" xmlns:xlink="http://www.w3.org/1999/xlink" x="0px" y="0px"
	 viewBox="0 0 512 512" style="enable-background:new 0 0 512 512;" xml:space="preserve">
<g transform="translate(1 1)">
	<path style="fill:#FFE100;" d="M7.533,135.533v238.933c0,9.387,7.68,17.067,17.067,17.067h460.8c9.387,0,17.067-7.68,17.067-17.067
		V135.533c0-9.387-7.68-17.067-17.067-17.067H24.6C15.213,118.467,7.533,126.147,7.533,135.533"/>
	<path style="fill:#FFA800;" d="M485.4,118.467h-25.6c9.387,0,17.067,7.68,17.067,17.067v238.933c0,9.387-7.68,17.067-17.067,17.067
		h25.6c9.387,0,17.067-7.68,17.067-17.067V135.533C502.467,126.147,494.787,118.467,485.4,118.467"/>
	<path style="fill:#FFFFFF;" d="M24.6,118.467h25.6c-9.387,0-17.067,7.68-17.067,17.067v238.933c0,9.387,7.68,17.067,17.067,17.067
		H24.6c-9.387,0-17.067-7.68-17.067-17.067V135.533C7.533,126.147,15.213,118.467,24.6,118.467"/>
	<path style="fill:#63D3FD;" d="M67.267,203.8v102.4c0,9.387,7.68,17.067,17.067,17.067h341.333c9.387,0,17.067-7.68,17.067-17.067
		V203.8c0-9.387-7.68-17.067-17.067-17.067H84.333C74.947,186.733,67.267,194.413,67.267,203.8"/>
	<path style="fill:#3DB9F9;" d="M425.667,186.733h-25.6c9.387,0,17.067,7.68,17.067,17.067v102.4c0,9.387-7.68,17.067-17.067,17.067
		h25.6c9.387,0,17.067-7.68,17.067-17.067V203.8C442.733,194.413,435.053,186.733,425.667,186.733"/>
	<path style="fill:#FFE100;" d="M331.8,280.6H178.2c-14.507,0-25.6-11.093-25.6-25.6s11.093-25.6,25.6-25.6h153.6
		c14.507,0,25.6,11.093,25.6,25.6S346.307,280.6,331.8,280.6"/>
	<path d="M485.4,400.067H24.6c-14.507,0-25.6-11.093-25.6-25.6V135.533c0-14.507,11.093-25.6,25.6-25.6h460.8
		c14.507,0,25.6,11.093,25.6,25.6v238.933C511,388.973,499.907,400.067,485.4,400.067z M24.6,127c-5.12,0-8.533,4.267-8.533,8.533
		v238.933c0,5.12,3.413,8.533,8.533,8.533h460.8c5.12,0,8.533-3.413,8.533-8.533V135.533c0-5.12-3.413-8.533-8.533-8.533H24.6z"/>
	<path d="M425.667,331.8H84.333c-14.507,0-25.6-11.093-25.6-25.6V203.8c0-14.507,11.093-25.6,25.6-25.6h341.333
		c14.507,0,25.6,11.093,25.6,25.6v102.4C451.267,320.707,440.173,331.8,425.667,331.8z M84.333,195.267
		c-5.12,0-8.533,3.413-8.533,8.533v102.4c0,5.12,3.413,8.533,8.533,8.533h341.333c5.12,0,8.533-3.413,8.533-8.533V203.8
		c0-5.12-3.413-8.533-8.533-8.533H84.333z"/>
	<path d="M331.8,289.133H178.2c-18.773,0-34.133-15.36-34.133-34.133s15.36-34.133,34.133-34.133h153.6
		c18.773,0,34.133,15.36,34.133,34.133S350.573,289.133,331.8,289.133z M178.2,237.933c-9.387,0-17.067,7.68-17.067,17.067
		s7.68,17.067,17.067,17.067h153.6c9.387,0,17.067-7.68,17.067-17.067s-7.68-17.067-17.067-17.067H178.2z"/>
	<path d="M263.533,255c0-5.12-3.413-8.533-8.533-8.533s-8.533,3.413-8.533,8.533s3.413,8.533,8.533,8.533
		S263.533,260.12,263.533,255"/>
	<path d="M297.667,255c0-5.12-3.413-8.533-8.533-8.533c-5.12,0-8.533,3.413-8.533,8.533s3.413,8.533,8.533,8.533
		C294.253,263.533,297.667,260.12,297.667,255"/>
	<path d="M331.8,255c0-5.12-3.413-8.533-8.533-8.533c-5.12,0-8.533,3.413-8.533,8.533s3.413,8.533,8.533,8.533
		C328.387,263.533,331.8,260.12,331.8,255"/>
	<path d="M229.4,255c0-5.12-3.413-8.533-8.533-8.533c-5.12,0-8.533,3.413-8.533,8.533s3.413,8.533,8.533,8.533
		C225.987,263.533,229.4,260.12,229.4,255"/>
	<path d="M195.267,255c0-5.12-3.413-8.533-8.533-8.533c-5.12,0-8.533,3.413-8.533,8.533s3.413,8.533,8.533,8.533
		C191.853,263.533,195.267,260.12,195.267,255"/>
</g>
<g>
</g>
<g>
</g>
<g>
</g>
<g>
</g>
<g>
</g>
<g>
</g>
<g>
</g>
<g>
</g>
<g>
</g>
<g>
</g>
<g>
</g>
<g>
</g>
<g>
</g>
<g>
</g>
<g>
</g>
</svg>
