<?xml version="1.0" encoding="iso-8859-1"?>
<!-- Generator: Adobe Illustrator 19.0.0, SVG Export Plug-In . SVG Version: 6.00 Build 0)  -->
<svg version="1.1" id="Layer_1" xmlns="http://www.w3.org/2000/svg" xmlns:xlink="http://www.w3.org/1999/xlink" x="0px" y="0px"
	 viewBox="0 0 512 512" style="enable-background:new 0 0 512 512;" xml:space="preserve">
<g transform="translate(1 1)">
	<path style="fill:#FFE100;" d="M400.067,195.267v-34.133c0-5.12-3.413-8.533-8.533-8.533H118.467c-5.12,0-8.533,3.413-8.533,8.533
		v34.133H24.6c-9.387,0-17.067,7.68-17.067,17.067v85.333c0,9.387,7.68,17.067,17.067,17.067h85.333v34.133
		c0,5.12,3.413,8.533,8.533,8.533h273.067c5.12,0,8.533-3.413,8.533-8.533v-34.133H485.4c9.387,0,17.067-7.68,17.067-17.067v-85.333
		c0-9.387-7.68-17.067-17.067-17.067H400.067z"/>
	<path style="fill:#FFA800;" d="M485.4,195.267h-17.067c9.387,0,17.067,7.68,17.067,17.067v85.333
		c0,9.387-7.68,17.067-17.067,17.067H485.4c9.387,0,17.067-7.68,17.067-17.067v-85.333
		C502.467,202.947,494.787,195.267,485.4,195.267"/>
	<path style="fill:#FFFFFF;" d="M24.6,195.267h17.067c-9.387,0-17.067,7.68-17.067,17.067v85.333c0,9.387,7.68,17.067,17.067,17.067
		H24.6c-9.387,0-17.067-7.68-17.067-17.067v-85.333C7.533,202.947,15.213,195.267,24.6,195.267"/>
	<g>
		<path style="fill:#63D3FD;" d="M84.333,255c0-14.507-11.093-25.6-25.6-25.6s-25.6,11.093-25.6,25.6s11.093,25.6,25.6,25.6
			S84.333,269.507,84.333,255"/>
		<path style="fill:#63D3FD;" d="M476.867,255c0-14.507-11.093-25.6-25.6-25.6s-25.6,11.093-25.6,25.6s11.093,25.6,25.6,25.6
			S476.867,269.507,476.867,255"/>
	</g>
	<g>
		<path style="fill:#3DB9F9;" d="M451.267,229.4c-3.413,0-5.973,0.853-8.533,1.707c10.24,3.413,17.067,12.8,17.067,23.893
			s-6.827,20.48-17.067,23.893c2.56,0.853,5.12,1.707,8.533,1.707c14.507,0,25.6-11.093,25.6-25.6S465.773,229.4,451.267,229.4"/>
		<path style="fill:#3DB9F9;" d="M58.733,229.4c-3.413,0-5.973,0.853-8.533,1.707c10.24,3.413,17.067,12.8,17.067,23.893
			S60.44,275.48,50.2,278.893c2.56,0.853,5.12,1.707,8.533,1.707c14.507,0,25.6-11.093,25.6-25.6S73.24,229.4,58.733,229.4"/>
	</g>
	<path style="fill:#63D3FD;" d="M357.4,306.2H152.6l-8.533-25.6v-68.267c0-5.12,3.413-8.533,8.533-8.533h204.8
		c5.12,0,8.533,3.413,8.533,8.533V280.6L357.4,306.2z"/>
	<path d="M58.733,289.133C39.96,289.133,24.6,273.773,24.6,255s15.36-34.133,34.133-34.133S92.867,236.227,92.867,255
		S77.507,289.133,58.733,289.133z M58.733,237.933c-9.387,0-17.067,7.68-17.067,17.067s7.68,17.067,17.067,17.067
		S75.8,264.387,75.8,255S68.12,237.933,58.733,237.933z"/>
	<path d="M391.533,365.933H118.467c-9.387,0-17.067-7.68-17.067-17.067v-25.6H24.6c-14.507,0-25.6-11.093-25.6-25.6v-85.333
		c0-14.507,11.093-25.6,25.6-25.6h76.8v-25.6c0-9.387,7.68-17.067,17.067-17.067h273.067c9.387,0,17.067,7.68,17.067,17.067v25.6
		h76.8c14.507,0,25.6,11.093,25.6,25.6v85.333c0,14.507-11.093,25.6-25.6,25.6h-76.8v25.6
		C408.6,358.253,400.92,365.933,391.533,365.933z M391.533,348.867v8.533V348.867L391.533,348.867z M24.6,203.8
		c-5.12,0-8.533,4.267-8.533,8.533v85.333c0,5.12,3.413,8.533,8.533,8.533h85.333c5.12,0,8.533,3.413,8.533,8.533v34.133h273.067
		v-34.133c0-5.12,3.413-8.533,8.533-8.533H485.4c5.12,0,8.533-3.413,8.533-8.533v-85.333c0-5.12-3.413-8.533-8.533-8.533h-85.333
		c-5.12,0-8.533-3.413-8.533-8.533v-34.133H118.467v34.133c0,5.12-3.413,8.533-8.533,8.533H24.6z"/>
	<path d="M451.267,289.133c-18.773,0-34.133-15.36-34.133-34.133s15.36-34.133,34.133-34.133S485.4,236.227,485.4,255
		S470.04,289.133,451.267,289.133z M451.267,237.933c-9.387,0-17.067,7.68-17.067,17.067s7.68,17.067,17.067,17.067
		s17.067-7.68,17.067-17.067S460.653,237.933,451.267,237.933z"/>
	<path d="M357.4,314.733H152.6c-3.413,0-6.827-2.56-7.68-5.973l-8.533-25.6c0-0.853-0.853-1.707-0.853-2.56v-68.267
		c0-9.387,7.68-17.067,17.067-17.067h204.8c9.387,0,17.067,7.68,17.067,17.067V280.6c0,0.853,0,1.707-0.853,2.56l-8.533,25.6
		C364.227,312.173,360.813,314.733,357.4,314.733z M158.573,297.667h192.853l5.973-18.773v-66.56H152.6v66.56L158.573,297.667z"/>
	<polygon points="169.667,237.933 186.733,237.933 186.733,220.867 169.667,220.867 	"/>
	<polygon points="195.267,237.933 212.333,237.933 212.333,220.867 195.267,220.867 	"/>
	<polygon points="220.867,237.933 237.933,237.933 237.933,220.867 220.867,220.867 	"/>
	<polygon points="246.467,237.933 263.533,237.933 263.533,220.867 246.467,220.867 	"/>
	<polygon points="297.667,237.933 314.733,237.933 314.733,220.867 297.667,220.867 	"/>
	<polygon points="323.267,237.933 340.333,237.933 340.333,220.867 323.267,220.867 	"/>
	<polygon points="297.667,289.133 314.733,289.133 314.733,272.067 297.667,272.067 	"/>
	<polygon points="323.267,289.133 340.333,289.133 340.333,272.067 323.267,272.067 	"/>
	<polygon points="169.667,263.533 186.733,263.533 186.733,246.467 169.667,246.467 	"/>
	<polygon points="195.267,263.533 212.333,263.533 212.333,246.467 195.267,246.467 	"/>
	<polygon points="220.867,263.533 237.933,263.533 237.933,246.467 220.867,246.467 	"/>
	<polygon points="246.467,263.533 263.533,263.533 263.533,246.467 246.467,246.467 	"/>
	<polygon points="169.667,289.133 186.733,289.133 186.733,272.067 169.667,272.067 	"/>
	<polygon points="195.267,289.133 212.333,289.133 212.333,272.067 195.267,272.067 	"/>
	<polygon points="220.867,289.133 237.933,289.133 237.933,272.067 220.867,272.067 	"/>
	<polygon points="246.467,289.133 263.533,289.133 263.533,272.067 246.467,272.067 	"/>
	<rect x="297.667" y="246.467" width="42.667" height="17.067"/>
</g>
<g>
</g>
<g>
</g>
<g>
</g>
<g>
</g>
<g>
</g>
<g>
</g>
<g>
</g>
<g>
</g>
<g>
</g>
<g>
</g>
<g>
</g>
<g>
</g>
<g>
</g>
<g>
</g>
<g>
</g>
</svg>
