<?xml version="1.0" encoding="iso-8859-1"?>
<!-- Generator: Adobe Illustrator 18.0.0, SVG Export Plug-In . SVG Version: 6.00 Build 0)  -->
<!DOCTYPE svg PUBLIC "-//W3C//DTD SVG 1.1//EN" "http://www.w3.org/Graphics/SVG/1.1/DTD/svg11.dtd">
<svg version="1.1" id="Capa_1" xmlns="http://www.w3.org/2000/svg" xmlns:xlink="http://www.w3.org/1999/xlink" x="0px" y="0px"
	 viewBox="0 0 455 455" style="enable-background:new 0 0 455 455;" xml:space="preserve">
<g>
	<path d="M89.321,329.982c-17.546,0-31.822,14.275-31.822,31.822s14.275,31.821,31.822,31.821s31.821-14.275,31.821-31.821
		S106.868,329.982,89.321,329.982z M89.321,378.626c-9.275,0-16.822-7.546-16.822-16.821s7.546-16.822,16.822-16.822
		s16.821,7.546,16.821,16.822S98.597,378.626,89.321,378.626z"/>
	<path d="M373.595,329.982c-17.546,0-31.822,14.275-31.822,31.822s14.275,31.821,31.822,31.821s31.821-14.275,31.821-31.821
		S391.142,329.982,373.595,329.982z M373.595,378.626c-9.275,0-16.822-7.546-16.822-16.821s7.546-16.822,16.822-16.822
		s16.821,7.546,16.821,16.822S382.871,378.626,373.595,378.626z"/>
	<path d="M404.813,252.334c-0.047-0.006-0.094-0.012-0.141-0.017l-66.782-7.18l-22.179-69.895c-0.989-3.116-3.881-5.231-7.149-5.231
		c-0.003,0-0.007,0-0.01,0l-32.236,0.042l-3.604-22.186c-2.622-16.137-16.39-27.849-32.739-27.849
		c-16.348,0-30.117,11.712-32.738,27.849l-3.62,22.281l-101.844,0.135c-3.185,0.004-6.02,2.02-7.071,5.026l-24.288,69.518
		l-14.81,0.015c-20.165,0-37.377,14.407-40.927,34.256L0.117,360.483c-0.391,2.186,0.207,4.432,1.631,6.135
		c1.425,1.702,3.531,2.686,5.751,2.686h25.151c3.686,27.994,27.686,49.677,56.67,49.677s52.983-21.683,56.67-49.677h170.935
		c3.686,27.994,27.685,49.677,56.67,49.677s52.983-21.683,56.67-49.677H447.5c4.142,0,7.5-3.358,7.5-7.5v-52.52
		C455,280.442,433.424,255.959,404.813,252.334z M321.975,244.578l-87.251,0.087v-59.556l68.352-0.09L321.975,244.578z
		 M129.651,244.77l8.384-59.533l81.688-0.108v59.551L129.651,244.77z M222.041,150.273c1.436-8.839,8.978-15.254,17.933-15.254
		c8.955,0,16.497,6.416,17.933,15.254l3.217,19.8l-42.308,0.056L222.041,150.273z M107.108,185.277l15.776-0.021l-8.383,59.528
		l-28.194,0.028L107.108,185.277z M89.321,403.982c-23.257,0-42.178-18.92-42.178-42.177s18.921-42.177,42.178-42.177
		s42.177,18.92,42.177,42.177S112.578,403.982,89.321,403.982z M373.595,403.982c-23.257,0-42.177-18.92-42.177-42.177
		s18.92-42.177,42.177-42.177s42.177,18.92,42.177,42.177S396.852,403.982,373.595,403.982z M430.265,354.304
		c-3.686-27.994-27.685-49.677-56.67-49.677s-52.983,21.683-56.67,49.677H145.991c-3.686-27.994-27.685-49.677-56.67-49.677
		s-52.984,21.683-56.67,49.677H16.461l12.98-72.563c2.27-12.688,13.272-21.897,26.169-21.897l276.177-0.276l71.208,7.655
		c17.004,2.183,30.627,14.344,35.279,30.121c-0.71-0.223-1.465-0.344-2.249-0.344c-4.142,0-7.5,3.358-7.5,7.5v24.814
		c0,4.142,3.358,7.5,7.5,7.5c1.462,0,2.822-0.425,3.976-1.149v18.64H430.265z"/>
	<path d="M239.973,81.122c4.142,0,7.5-3.358,7.5-7.5V43.519c0-4.142-3.358-7.5-7.5-7.5s-7.5,3.358-7.5,7.5v30.104
		C232.473,77.764,235.831,81.122,239.973,81.122z"/>
	<path d="M188.072,98.224c1.464,1.465,3.384,2.197,5.303,2.197c1.919,0,3.839-0.732,5.303-2.197c2.929-2.929,2.929-7.678,0-10.606
		l-21.284-21.284c-2.928-2.929-7.677-2.929-10.606,0c-2.929,2.929-2.929,7.678,0,10.606L188.072,98.224z"/>
	<path d="M143.973,147.019h30.098c4.142,0,7.5-3.358,7.5-7.5s-3.358-7.5-7.5-7.5h-30.098c-4.142,0-7.5,3.358-7.5,7.5
		S139.831,147.019,143.973,147.019z"/>
	<path d="M286.571,100.421c1.919,0,3.839-0.732,5.303-2.197l21.284-21.284c2.929-2.929,2.929-7.678,0-10.606
		c-2.929-2.929-7.678-2.929-10.606,0l-21.284,21.284c-2.929,2.929-2.929,7.678,0,10.606
		C282.733,99.689,284.652,100.421,286.571,100.421z"/>
	<path d="M298.37,139.519c0,4.142,3.358,7.5,7.5,7.5h30.104c4.142,0,7.5-3.358,7.5-7.5s-3.358-7.5-7.5-7.5H305.87
		C301.728,132.019,298.37,135.377,298.37,139.519z"/>
</g>
<g>
</g>
<g>
</g>
<g>
</g>
<g>
</g>
<g>
</g>
<g>
</g>
<g>
</g>
<g>
</g>
<g>
</g>
<g>
</g>
<g>
</g>
<g>
</g>
<g>
</g>
<g>
</g>
<g>
</g>
</svg>
