<?xml version="1.0" encoding="iso-8859-1"?>
<!-- Generator: Adobe Illustrator 19.0.0, SVG Export Plug-In . SVG Version: 6.00 Build 0)  -->
<svg version="1.1" id="Layer_1" xmlns="http://www.w3.org/2000/svg" xmlns:xlink="http://www.w3.org/1999/xlink" x="0px" y="0px"
	 viewBox="0 0 503.763 503.763" style="enable-background:new 0 0 503.763 503.763;" xml:space="preserve">
<g>
	<path style="fill:#BDC3C7;" d="M251.661,126.051c-4.799,0-8.678-3.879-8.678-8.678V82.661c0-4.799,3.879-8.678,8.678-8.678
		c4.799,0,8.678,3.879,8.678,8.678v34.712C260.339,122.172,256.46,126.051,251.661,126.051"/>
	<g>
		<path style="fill:#35495E;" d="M0,264.915v86.78c0,4.53,4.148,8.678,8.678,8.678h34.929V256.237H8.678
			C4.148,256.237,0,260.385,0,264.915"/>
		<path style="fill:#35495E;" d="M503.763,264.915v86.78c0,4.53-4.157,8.678-8.678,8.678h-34.929V256.237h34.929
			C499.606,256.237,503.763,260.385,503.763,264.915"/>
		<path style="fill:#35495E;" d="M357.034,235.111c-2.265-5.554-4.634-11.108-8.279-15.872
			c-11.481-15.03-27.978-26.607-43.746-35.988c-30.972-18.423-71.402-18.406-106.696,0c-16.271,8.487-32.265,20.957-43.746,35.988
			c-3.645,4.764-6.014,10.318-8.279,15.872c-3.072,7.541-13.746,21.131-50.836,21.131V360.36c37.09,0,47.746,13.572,50.818,21.113
			c2.256,5.554,4.634,11.108,8.279,15.872c11.472,15.03,27.769,26.945,43.746,35.996c21.383,12.106,45.88,16.271,69.476,12.713
			c0.156-9.138,3.627-19.265,10.474-30.269l25.479-38.07l25.487,38.07c0.182,0.26,0.304,0.521,0.486,0.781
			c7.047-5.745,13.607-12.106,19.039-19.222c3.636-4.764,6.014-10.318,8.279-15.872c3.072-7.541,13.763-21.113,50.844-21.113
			V256.241C370.78,256.241,360.106,242.652,357.034,235.111"/>
	</g>
	<path style="fill:#F0C419;" d="M364.475,21.916l-69.424,26.034h-86.78v34.712h86.78l69.424-26.034h69.424
		c9.58,0,17.356-7.775,17.356-17.356s-7.775-17.356-17.356-17.356H364.475z"/>
	<g>
		<path style="fill:#21313F;" d="M43.61,238.881v139.785c0,4.278,3.454,7.741,7.732,7.741h36.135c4.521,0,8.201-3.679,8.201-8.201
			V238.404c0-4.53-3.679-8.201-8.201-8.201H52.288C47.515,230.203,43.61,234.108,43.61,238.881"/>
		<path style="fill:#21313F;" d="M460.153,238.881v139.785c0,4.278-3.462,7.741-7.741,7.741h-36.126
			c-4.53,0-8.201-3.679-8.201-8.201V238.404c0-4.53,3.671-8.201,8.201-8.201h35.189
			C456.248,230.203,460.153,234.108,460.153,238.881"/>
		<path style="fill:#21313F;" d="M294.797,178.119h0.252l-34.712-60.746H242.98l-34.712,60.746h1.475
			C238.268,166.707,268.945,166.699,294.797,178.119"/>
		<path style="fill:#21313F;" d="M303.729,386.39c-4.799,0-8.678-3.879-8.678-8.678v-17.356h-8.678
			c-4.799,0-8.678-3.879-8.678-8.678v-17.356h-8.678c-4.799,0-8.678-3.879-8.678-8.678s3.879-8.678,8.678-8.678h17.356
			c4.799,0,8.678,3.879,8.678,8.678V343h8.678c4.799,0,8.678,3.879,8.678,8.678v26.034
			C312.407,382.511,308.528,386.39,303.729,386.39"/>
	</g>
	<path style="fill:#4482C3;" d="M278.246,471.297L278.246,471.297c14.076,14.067,36.89,14.067,50.966,0
		c14.067-14.076,14.024-36.083,0-55.504l-25.479-38.079l-25.487,38.079C264.222,438.303,264.179,457.221,278.246,471.297"/>
</g>
<g>
</g>
<g>
</g>
<g>
</g>
<g>
</g>
<g>
</g>
<g>
</g>
<g>
</g>
<g>
</g>
<g>
</g>
<g>
</g>
<g>
</g>
<g>
</g>
<g>
</g>
<g>
</g>
<g>
</g>
</svg>
