<?xml version="1.0" encoding="iso-8859-1"?>
<!-- Generator: Adobe Illustrator 19.0.0, SVG Export Plug-In . SVG Version: 6.00 Build 0)  -->
<svg version="1.1" id="Layer_1" xmlns="http://www.w3.org/2000/svg" xmlns:xlink="http://www.w3.org/1999/xlink" x="0px" y="0px"
	 viewBox="0 0 512 512" style="enable-background:new 0 0 512 512;" xml:space="preserve">
<g>
	<g>
		<g>
			<path d="M433.95,18.884c-0.019-0.031-0.039-0.061-0.06-0.091C422.452,1.728,401.892-0.216,385.385,0.017
				c-68.477,0.307-138.141,0.228-205.512,0.15c-17.445-0.02-34.889-0.04-52.335-0.054c-0.128,0.006-0.216,0.002-0.322,0.005
				c-4.818,0.148-10.438,0.401-16.224,1.52C91.128,5.005,74.791,21.343,71.237,41.421c-0.102,0.576-0.154,1.161-0.156,1.745
				l-1.363,425.471c-0.001,0.166,0.003,0.333,0.01,0.498l0.023,0.52c0.383,8.465,0.861,18.999,7.401,27.887
				C83.965,506.849,95.443,512,107.14,512c5.819,0,11.694-1.276,17.07-3.948c0.114-0.057,0.227-0.115,0.339-0.176
				c7.78-4.239,13.388-10.554,18.337-16.127l1.248-1.403c0.059-0.065,0.117-0.134,0.175-0.201
				c17.926-21.162,36.533-42.415,54.529-62.967c19.003-21.703,38.653-44.147,57.606-66.6c2.528-2.866,5.348-5.866,7.296-5.775
				c0.365,0.021,0.731,0.022,1.096,0.003c12.934-0.665,26.278-0.442,39.183-0.225c13.278,0.222,27.008,0.452,40.69-0.253
				c13.178-0.69,24.125-5.039,31.662-12.581c10.628-10.469,13.974-24.407,16.925-36.704l0.341-1.419l44.802-224.281
				C442.059,60.986,446.563,38.142,433.95,18.884z M418.427,75.395L373.461,300.28c-2.54,10.583-4.938,20.579-11.424,26.953
				c-0.024,0.024-0.05,0.05-0.074,0.074c-4.944,4.961-12.69,6.353-18.31,6.648c-12.976,0.668-26.353,0.445-39.29,0.228
				c-13.095-0.219-26.625-0.443-40.095,0.224c-11.634-0.353-19.14,8.155-23.198,12.762c-0.048,0.054-0.096,0.109-0.143,0.164
				L127.633,478.206c-4.16,4.684-8.093,9.114-12.67,11.663c-7.287,3.517-17.023,1.537-21.365-4.395
				c-2.887-3.925-3.17-10.15-3.469-16.742l-0.012-0.275l1.36-424.275c2.345-11.228,11.897-20.6,23.005-22.447
				c0.096-0.015,0.192-0.033,0.287-0.051c4.276-0.836,8.9-1.047,12.918-1.173c17.389,0.014,34.777,0.034,52.165,0.054
				c67.398,0.08,137.092,0.159,205.718-0.151c17.226-0.233,26.609,2.667,31.347,9.69C424.933,42.398,421.625,59.172,418.427,75.395z
				"/>
			<path d="M352.575,54.172c-0.093,0-0.188,0-0.279,0l-195.475,0.122c-8.65,0.413-23.127,1.102-29.474,14.462
				c-0.109,0.229-0.21,0.463-0.301,0.7c-3.03,7.838-3.16,15.809-3.274,22.842l0.525,312.964c0.045,4.247,2.716,8.022,6.706,9.476
				c1.14,0.415,2.321,0.616,3.49,0.616c2.918,0,5.764-1.253,7.739-3.554c29.045-33.823,57.208-68.189,80.942-97.364
				c0.888-1.015,1.778-2.072,2.679-3.145c5.242-6.235,9.003-10.326,13.344-10.388c0.194-0.003,0.387-0.01,0.579-0.024
				c12.309-0.876,24.533-0.628,37.477-0.361c13.586,0.276,27.631,0.566,41.668-0.586c10.931-0.254,19.776-6.902,22.199-16.69
				c4.164-14.022,6.789-28.382,9.326-42.273c0.809-4.428,1.645-9.007,2.513-13.464c1.032-4.876,2.649-16.869-3.921-25.251
				c-3.428-4.372-8.522-6.917-14.379-7.193c-15.707-1.498-31.461-1.147-46.7-0.812c-16.203,0.358-31.516,0.697-46.824-0.982
				c-10.03-2.099-7.134-22.48-6.768-24.815c0.051-0.331,0.087-0.664,0.106-0.999c0.265-4.649,6.185-6.875,10.351-6.739
				c0.229,0.009,0.46,0.012,0.691,0.004c16.808-0.485,34.014-0.315,50.652-0.149c14.767,0.146,30.039,0.298,45.132-0.003
				c0.206-0.004,0.412-0.014,0.618-0.031c0.728-0.059,1.501-0.103,2.3-0.149c6.707-0.385,20.666-1.185,24.643-14.355h0.001
				c1.809-5.993,17.533-59.062,12.365-76.72C376.841,54.32,361.769,54.172,352.575,54.172z M349.598,139.265l-104.355,1.053
				c-14.432-0.402-29.837,8.931-31.097,25.429c-3.964,26.152,5.102,44.397,23.721,47.66c0.208,0.037,0.417,0.067,0.627,0.091
				c16.79,1.876,33.631,1.504,49.918,1.144c15.417-0.341,29.978-0.663,44.576,0.749c0.066,0.007,0.134,0.013,0.2,0.018
				c0.365,1.344,0.583,4.293-0.195,7.921c-0.013,0.062-0.026,0.124-0.038,0.187l-11.46,54.164c-0.062,0.21-0.118,0.422-0.167,0.635
				c-0.166,0.72-1.682,1.216-2.992,1.226c-0.257,0.002-0.513,0.014-0.769,0.036c-13.094,1.094-26.112,0.828-39.894,0.548
				c-12.746-0.26-25.926-0.528-39.081,0.391c-13.8,0.347-22.203,10.34-28.35,17.652l-65.784,79.55l-0.292-285.084
				c0.091-5.639,0.178-10.977,1.727-15.339c1.373-2.118,7.191-2.395,11.897-2.619l194.508-0.103c2.911,0,7.664-0.002,9.398,0.631
				C363.432,81.927,357.731,112.102,349.598,139.265z"/>
		</g>
	</g>
</g>
<g>
	<g>
		<path d="M107.028,321.275c-5.633,0-10.199,4.567-10.199,10.199v7.141c0,5.632,4.566,10.199,10.199,10.199
			s10.199-4.566,10.199-10.199v-7.141C117.227,325.842,112.661,321.275,107.028,321.275z"/>
	</g>
</g>
<g>
	<g>
		<path d="M107.028,364.107c-5.633,0-10.199,4.567-10.199,10.199v95.876c0,5.632,4.566,10.199,10.199,10.199
			s10.199-4.566,10.199-10.199v-95.876C117.227,368.674,112.661,364.107,107.028,364.107z"/>
	</g>
</g>
<g>
</g>
<g>
</g>
<g>
</g>
<g>
</g>
<g>
</g>
<g>
</g>
<g>
</g>
<g>
</g>
<g>
</g>
<g>
</g>
<g>
</g>
<g>
</g>
<g>
</g>
<g>
</g>
<g>
</g>
</svg>
