<?xml version="1.0" encoding="iso-8859-1"?>
<!-- Generator: Adobe Illustrator 19.0.0, SVG Export Plug-In . SVG Version: 6.00 Build 0)  -->
<svg version="1.1" id="Layer_1" xmlns="http://www.w3.org/2000/svg" xmlns:xlink="http://www.w3.org/1999/xlink" x="0px" y="0px"
	 viewBox="0 0 512 512" style="enable-background:new 0 0 512 512;" xml:space="preserve">
<path style="fill:#BF3000;" d="M512,486.4c0,14.136-11.464,25.6-25.6,25.6H25.6C11.464,512,0,500.536,0,486.4V40.96
	c0-14.136,11.464-25.6,25.6-25.6h460.8c14.136,0,25.6,11.464,25.6,25.6V486.4z"/>
<path style="fill:#F15B00;" d="M512,471.04c0,14.136-11.464,25.6-25.6,25.6H25.6c-14.136,0-25.6-11.464-25.6-25.6V25.6
	C0,11.464,11.464,0,25.6,0h460.8C500.536,0,512,11.464,512,25.6V471.04z"/>
<path style="fill:#DD3800;" d="M512,471.04V281.667c-0.609-0.62-214.492-214.574-215.567-215.567
	C286.367,55.204,272.005,48.343,256,48.343c-30.428,0-55.096,24.668-55.096,55.096c0,15.995,6.825,30.377,17.72,40.428
	c0.993,1.07,14.182,14.254,15.13,15.145l-1.623,4.05l-20.198,50.447l0,0l-21.448,53.565l-17.725,44.278l-35.098,87.654
	l-9.021,22.533l-4.562,11.397l65.582,63.703H486.4C500.536,496.64,512,485.176,512,471.04z"/>
<polygon style="fill:#FFFFFF;" points="387.927,432.937 124.073,432.937 256,103.434 "/>
<polygon style="fill:#D8EDEE;" points="256,103.434 256,432.937 387.927,432.937 "/>
<g>
	<polygon style="fill:#FBD800;" points="387.927,432.937 379.377,411.576 339.359,432.937 	"/>
	<polygon style="fill:#FBD800;" points="148.833,371.092 128.635,421.54 338.504,309.499 325.417,276.818 	"/>
	<polygon style="fill:#FBD800;" points="186.173,432.937 260.47,432.937 365.481,376.878 352.399,344.197 	"/>
	<polygon style="fill:#FBD800;" points="190.479,267.075 170.281,317.527 311.526,242.12 298.44,209.439 	"/>
	<polygon style="fill:#FBD800;" points="232.125,163.062 211.927,213.509 284.549,174.74 271.462,142.06 	"/>
</g>
<path style="fill:#EFB300;" d="M325.417,276.818L256,313.882v39.665l82.504-44.047L325.417,276.818z M298.44,209.439L256,232.095
	v39.665l55.526-29.645L298.44,209.439z M379.377,411.576l-40.013,21.361h48.568L379.377,411.576z M352.399,344.197L256,395.663
	v37.279h4.47l105.011-56.064L352.399,344.197z M271.462,142.06L256,150.313v39.665l28.549-15.242L271.462,142.06z"/>
<circle style="fill:#BD221F;" cx="256" cy="103.424" r="55.096"/>
<path style="fill:#7F2221;" d="M256,48.343v110.193c30.428,0,55.096-24.668,55.096-55.096S286.428,48.343,256,48.343z"/>
<g>
</g>
<g>
</g>
<g>
</g>
<g>
</g>
<g>
</g>
<g>
</g>
<g>
</g>
<g>
</g>
<g>
</g>
<g>
</g>
<g>
</g>
<g>
</g>
<g>
</g>
<g>
</g>
<g>
</g>
</svg>
