<?xml version="1.0" encoding="iso-8859-1"?>
<!-- Generator: Adobe Illustrator 19.0.0, SVG Export Plug-In . SVG Version: 6.00 Build 0)  -->
<svg version="1.1" id="Layer_1" xmlns="http://www.w3.org/2000/svg" xmlns:xlink="http://www.w3.org/1999/xlink" x="0px" y="0px"
	 viewBox="0 0 512 512" style="enable-background:new 0 0 512 512;" xml:space="preserve">
<g>
	<g>
		<g>
			<path d="M141.324,294.519h225.599v-82.815H223.47C171.57,211.704,145.675,251.432,141.324,294.519z"/>
			<path d="M256,0C114.623,0,0,114.614,0,256c0,141.372,114.623,256,256,256c141.386,0,256-114.628,256-256
				C512,114.614,397.386,0,256,0z M180.445,413.613l-22.995-13.279l28.011-48.501h30.662L180.445,413.613z M267.066,417.858h-26.559
				v-66.03h26.559V417.858z M329.125,413.613l-35.682-61.78h30.667l28.006,48.501L329.125,413.613z M114.096,321.078v-13.279
				c0-72.213,44.977-122.653,109.373-122.653h140.633l-12.607-27.586H216.99v-26.559h149.849l26.329,54.144h0.301v135.932H114.096z"
				/>
		</g>
	</g>
</g>
<g>
</g>
<g>
</g>
<g>
</g>
<g>
</g>
<g>
</g>
<g>
</g>
<g>
</g>
<g>
</g>
<g>
</g>
<g>
</g>
<g>
</g>
<g>
</g>
<g>
</g>
<g>
</g>
<g>
</g>
</svg>
