<?xml version="1.0" encoding="iso-8859-1"?>
<!-- Generator: Adobe Illustrator 19.0.0, SVG Export Plug-In . SVG Version: 6.00 Build 0)  -->
<svg version="1.1" id="Layer_1" xmlns="http://www.w3.org/2000/svg" xmlns:xlink="http://www.w3.org/1999/xlink" x="0px" y="0px"
	 viewBox="0 0 512 512" style="enable-background:new 0 0 512 512;" xml:space="preserve">
<polygon style="fill:#7A7674;" points="197.037,11.524 197.037,246.946 453.251,408.283 453.251,172.861 "/>
<polygon style="fill:#CCC4C1;" points="127.893,57.62 127.893,293.042 384.107,454.379 384.107,218.957 "/>
<polygon style="fill:#EBEDEC;" points="58.748,103.716 58.748,339.138 314.962,500.475 314.962,265.053 "/>
<path d="M453.251,419.807c-2.137,0-4.269-0.594-6.14-1.772l-34.572-21.77c-5.386-3.392-7.003-10.507-3.612-15.893
	c3.39-5.384,10.509-7.003,15.892-3.61l16.908,10.646V179.223L208.561,32.398v27.907c0,6.365-5.16,11.524-11.524,11.524
	s-11.524-5.159-11.524-11.524V11.524c0-4.196,2.281-8.061,5.954-10.088c3.673-2.028,8.16-1.899,11.71,0.337L459.39,163.109
	c3.351,2.11,5.384,5.792,5.384,9.752v235.422c0,4.196-2.281,8.061-5.954,10.088C457.084,419.331,455.166,419.807,453.251,419.807z"
	/>
<path d="M384.107,465.903c-2.137,0-4.269-0.594-6.14-1.772l-34.572-21.77c-5.386-3.392-7.003-10.507-3.612-15.893
	c3.39-5.385,10.509-7.003,15.892-3.611l16.908,10.646V225.32L139.417,78.495v27.907c0,6.365-5.16,11.524-11.524,11.524
	s-11.524-5.159-11.524-11.524V57.62c0-4.196,2.281-8.061,5.954-10.088s8.16-1.9,11.71,0.337l256.213,161.337
	c3.351,2.11,5.384,5.792,5.384,9.752v235.422c0,4.196-2.281,8.061-5.954,10.088C387.94,465.427,386.022,465.903,384.107,465.903z"/>
<path d="M314.962,512c-2.137,0-4.269-0.594-6.14-1.772L52.61,348.89c-3.351-2.11-5.384-5.792-5.384-9.752V103.716
	c0-4.196,2.281-8.061,5.954-10.088c3.674-2.028,8.16-1.9,11.71,0.337l256.213,161.337c3.351,2.11,5.384,5.792,5.384,9.752v235.422
	c0,4.196-2.281,8.061-5.954,10.088C318.795,511.524,316.877,512,314.962,512z M70.272,332.777l233.164,146.824V271.416
	L70.272,124.591V332.777z"/>
<path d="M245.806,321.94c-2.099,0-4.222-0.573-6.128-1.775l-41.676-26.243c-5.386-3.39-7.003-10.507-3.612-15.893
	c3.39-5.385,10.509-7.003,15.892-3.61l41.676,26.243c5.386,3.392,7.003,10.507,3.612,15.893
	C253.379,320.033,249.634,321.94,245.806,321.94z"/>
<path d="M245.806,379.56c-2.099,0-4.222-0.573-6.128-1.775L121.752,303.53c-5.386-3.392-7.003-10.507-3.612-15.893
	c3.39-5.385,10.509-7.002,15.892-3.61l117.925,74.257c5.386,3.392,7.003,10.507,3.612,15.893
	C253.379,377.653,249.634,379.56,245.806,379.56z"/>
<path d="M169.558,273.927c-2.099,0-4.222-0.573-6.128-1.775l-41.677-26.243c-5.386-3.39-7.003-10.507-3.612-15.893
	c3.39-5.385,10.509-7.002,15.892-3.61l41.677,26.243c5.386,3.39,7.003,10.507,3.612,15.893
	C177.131,272.02,173.387,273.927,169.558,273.927z"/>
<g>
</g>
<g>
</g>
<g>
</g>
<g>
</g>
<g>
</g>
<g>
</g>
<g>
</g>
<g>
</g>
<g>
</g>
<g>
</g>
<g>
</g>
<g>
</g>
<g>
</g>
<g>
</g>
<g>
</g>
</svg>
