<?xml version="1.0" encoding="iso-8859-1"?>
<!-- Generator: Adobe Illustrator 19.0.0, SVG Export Plug-In . SVG Version: 6.00 Build 0)  -->
<svg version="1.1" id="Layer_1" xmlns="http://www.w3.org/2000/svg" xmlns:xlink="http://www.w3.org/1999/xlink" x="0px" y="0px"
	 viewBox="0 0 512.001 512.001" style="enable-background:new 0 0 512.001 512.001;" xml:space="preserve">
<g>
	<g>
		<path d="M191.443,0v280.601c-9.788-13.271-16.618-21.509-17.031-22.005l-6.476-7.786l-6.483,7.779
			c-1.188,1.427-29.387,35.414-54.199,78.248c-34.297,59.203-44.491,104.583-30.3,134.881c4.435,9.469,11.151,17.275,20.088,23.42
			H0.223v16.863h511.556V0H191.443z M167.93,495.137c-40.729,0-66.199-10.284-75.703-30.567
			c-11.535-24.619-1.331-65.801,29.509-119.094c17.131-29.605,36.393-55.414,46.192-67.977c5.821,7.468,14.972,19.6,24.984,34.362
			c12.206,17.894,22.694,35.349,31.177,51.905c16.998,32.932,33.824,77.83,17.452,104.708
			C230.761,486.166,205.996,495.137,167.93,495.137z M462.97,495.137H238.789c7.143-4.905,12.873-10.867,17.151-17.89
			c16.178-26.557,10.883-66.562-15.69-118.893V48.807h222.72V495.137z M479.834,495.137V31.944H223.387v296.114
			c-4.685-7.736-9.721-15.588-15.081-23.517V16.863h286.609v478.274H479.834z"/>
	</g>
</g>
<g>
	<g>
		<path d="M204.264,380.721c-13.405-23.127-28.658-41.502-29.3-42.272l-6.479-7.77l-6.476,7.773
			c-0.642,0.771-15.886,19.149-29.282,42.281c-18.971,32.758-24.459,58.186-16.311,75.579c7.38,15.757,24.9,23.745,52.07,23.745
			c27.196,0,44.729-7.993,52.11-23.758C228.744,438.901,223.247,413.473,204.264,380.721z M205.328,449.147
			c-4.364,9.321-16.758,14.047-36.84,14.047c-20.053,0-32.434-4.72-36.798-14.031c-9.486-20.236,15.455-63.856,36.804-91.79
			C189.859,385.283,214.818,428.878,205.328,449.147z"/>
	</g>
</g>
<g>
	<g>
		<polygon points="167.93,415.277 167.93,431.249 151.957,431.249 151.957,448.111 167.93,448.111 167.93,432.14 183.902,432.14 
			183.902,415.277 		"/>
	</g>
</g>
<g>
	<g>
		<rect x="255.775" y="63.889" width="15.971" height="16.863"/>
	</g>
</g>
<g>
	<g>
		<rect x="279.731" y="63.889" width="15.972" height="16.863"/>
	</g>
</g>
<g>
	<g>
		<rect x="255.775" y="87.844" width="15.971" height="16.863"/>
	</g>
</g>
<g>
	<g>
		<rect x="431.473" y="463.198" width="15.972" height="16.863"/>
	</g>
</g>
<g>
	<g>
		<rect x="431.473" y="439.23" width="15.972" height="16.863"/>
	</g>
</g>
<g>
	<g>
		<rect x="407.517" y="463.198" width="15.972" height="16.863"/>
	</g>
</g>
<g>
	<g>
		<polygon points="389.518,170.177 377.592,182.101 395.144,199.653 279.735,199.653 279.735,216.516 395.144,216.516 
			377.594,234.065 389.517,245.99 427.424,208.084 		"/>
	</g>
</g>
<g>
	<g>
		<polygon points="389.517,258.024 377.594,269.949 395.144,287.499 279.735,287.499 279.735,304.362 395.144,304.362 
			377.592,321.914 389.518,333.838 427.424,295.93 		"/>
	</g>
</g>
<g>
</g>
<g>
</g>
<g>
</g>
<g>
</g>
<g>
</g>
<g>
</g>
<g>
</g>
<g>
</g>
<g>
</g>
<g>
</g>
<g>
</g>
<g>
</g>
<g>
</g>
<g>
</g>
<g>
</g>
</svg>
