<?xml version="1.0" encoding="iso-8859-1"?>
<!-- Generator: Adobe Illustrator 19.0.0, SVG Export Plug-In . SVG Version: 6.00 Build 0)  -->
<svg version="1.1" id="Layer_1" xmlns="http://www.w3.org/2000/svg" xmlns:xlink="http://www.w3.org/1999/xlink" x="0px" y="0px"
	 viewBox="0 0 512 512" style="enable-background:new 0 0 512 512;" xml:space="preserve">
<g>
	<g>
		<rect x="248.028" y="41.12" width="31.906" height="16.206"/>
	</g>
</g>
<g>
	<g>
		<path d="M423.637,82.499V0l-123.57,17.653C291.265,7.604,278.354,1.24,263.977,1.24c-17.697,0-33.175,9.636-41.494,23.93h-95.068
			l-0.932,0.224c-0.377,0.091-9.349,2.283-18.332,7.852C95.205,41.271,88.363,52.313,88.363,65.18v165.072l48.113-48.714V73.283
			h86.007c1.607,2.76,3.478,5.347,5.583,7.724H192.06v31.906h-15.827c-17.664,0-32.033,14.37-32.033,32.033v335.021
			c0,17.664,14.37,32.033,32.033,32.033h175.488c17.664,0,32.033-14.369,32.033-32.033v-335.02c0-17.664-14.37-32.033-32.033-32.033
			h-15.827V81.006h-36.007c3.846-4.341,6.919-9.378,9.002-14.9L423.637,82.499z M311.963,32.323l95.468-13.639v45.128
			l-95.468-13.639V32.323z M184.083,57.077h-63.813v117.806l-15.7,15.897V65.18c0-15.714,20.518-22.531,24.885-23.803h54.628V57.077
			z M216.644,57.077h-16.353V41.375h16.353c-0.422,2.556-0.653,5.176-0.653,7.85S216.22,54.52,216.644,57.077z M263.977,17.445
			c17.524,0,31.78,14.256,31.78,31.78s-14.256,31.781-31.78,31.781c-17.524,0-31.781-14.257-31.781-31.781
			S246.453,17.445,263.977,17.445z M367.549,479.968h-0.001c0,8.727-7.099,15.827-15.827,15.827H176.233
			c-8.728,0-15.827-7.099-15.827-15.827v-7.85h207.143V479.968z M367.549,455.911h-0.001H160.406v-71.538h207.143V455.911z
			 M367.549,368.168h-0.001H160.406V216.863h207.143V368.168z M351.721,129.12v-0.001c8.727,0,15.827,7.1,15.827,15.827v55.71
			H160.406v-55.709c0-8.728,7.1-15.827,15.827-15.827H351.721z M319.687,97.213v15.7H208.266v-15.7H319.687z"/>
	</g>
</g>
<g>
	<g>
		<path d="M176.107,240.54v48.114h175.741V240.54H176.107z M335.641,272.448H192.313v-15.701h143.328V272.448z"/>
	</g>
</g>
<g>
	<g>
		<rect x="176.235" y="320.307" width="15.953" height="16.206"/>
	</g>
</g>
<g>
	<g>
		<rect x="208.14" y="320.307" width="15.953" height="16.206"/>
	</g>
</g>
<g>
	<g>
		<rect x="263.975" y="320.307" width="87.74" height="16.206"/>
	</g>
</g>
<g>
</g>
<g>
</g>
<g>
</g>
<g>
</g>
<g>
</g>
<g>
</g>
<g>
</g>
<g>
</g>
<g>
</g>
<g>
</g>
<g>
</g>
<g>
</g>
<g>
</g>
<g>
</g>
<g>
</g>
</svg>
