<?xml version="1.0" encoding="iso-8859-1"?>
<!-- Generator: Adobe Illustrator 19.0.0, SVG Export Plug-In . SVG Version: 6.00 Build 0)  -->
<svg version="1.1" id="Layer_1" xmlns="http://www.w3.org/2000/svg" xmlns:xlink="http://www.w3.org/1999/xlink" x="0px" y="0px"
	 viewBox="0 0 512 512" style="enable-background:new 0 0 512 512;" xml:space="preserve">
<g>
	<g>
		<path d="M319.97,63.971H120.177V0H55.974v487.895c0,13.291,10.813,24.105,24.105,24.105H319.97
			c13.292,0,24.105-10.813,24.105-24.105V88.076C344.076,74.784,333.263,63.971,319.97,63.971z M72.199,16.225h31.753v15.76H72.199
			V16.225z M319.971,495.775H80.079c-4.345,0-7.88-3.536-7.88-7.88V48.21h31.753v31.985H319.97c4.345,0,7.88,3.536,7.88,7.88
			v399.821h0.001C327.851,492.24,324.315,495.775,319.971,495.775z"/>
	</g>
</g>
<g>
	<g>
		<path d="M95.957,103.952V248.12h208.138V103.952H95.957z M287.87,231.893H112.181V120.177H287.87V231.893z"/>
	</g>
</g>
<g>
	<g>
		<path d="M103.953,263.88v48.21h48.21v-48.21H103.953z M135.938,295.865h-15.76v-15.76h15.76V295.865z"/>
	</g>
</g>
<g>
	<g>
		<path d="M247.887,263.88v48.21h48.211v-48.21H247.887z M279.873,295.865h-15.761v-15.76h15.761V295.865z"/>
	</g>
</g>
<g>
	<g>
		<path d="M175.921,263.88v48.21h48.21v-48.21H175.921z M207.905,295.865h-15.76v-15.76h15.76V295.865z"/>
	</g>
</g>
<g>
	<g>
		<path d="M103.952,327.851v48.211h48.21v-48.211H103.952z M135.937,359.837h-15.76v-15.761h15.76V359.837z"/>
	</g>
</g>
<g>
	<g>
		<path d="M247.887,327.851v48.211h48.211v-48.211H247.887z M279.873,359.837h-15.761v-15.761h15.761V359.837z"/>
	</g>
</g>
<g>
	<g>
		<path d="M175.921,327.851v48.211h48.21v-48.211H175.921z M207.905,359.837h-15.76v-15.761h15.76V359.837z"/>
	</g>
</g>
<g>
	<g>
		<path d="M103.952,391.822v48.212h48.21v-48.212H103.952z M135.937,423.808h-15.76v-15.761h15.76V423.808z"/>
	</g>
</g>
<g>
	<g>
		<path d="M247.887,391.822v48.212h48.211v-48.212H247.887z M279.873,423.808h-15.761v-15.761h15.761V423.808z"/>
	</g>
</g>
<g>
	<g>
		<path d="M175.921,391.822v48.212h48.21v-48.212H175.921z M207.905,423.808h-15.76v-15.761h15.76V423.808z"/>
	</g>
</g>
<g>
	<g>
		<rect x="144.056" y="455.791" width="111.952" height="16.225"/>
	</g>
</g>
<g>
	<g>
		<rect x="271.995" y="455.791" width="15.992" height="16.225"/>
	</g>
</g>
<g>
	<g>
		<rect x="112.06" y="455.791" width="15.992" height="16.225"/>
	</g>
</g>
<g>
	<g>
		<polygon points="127.941,135.938 127.941,184.033 144.166,184.033 144.166,152.163 160.043,152.163 160.043,135.938 		"/>
	</g>
</g>
<g>
	<g>
		<rect x="128.058" y="199.913" width="15.992" height="16.225"/>
	</g>
</g>
<g>
	<g>
		<rect x="255.997" y="199.913" width="15.993" height="16.225"/>
	</g>
</g>
<g>
	<g>
		<rect x="255.997" y="175.922" width="15.993" height="16.225"/>
	</g>
</g>
<g>
	<g>
		<rect x="232.006" y="199.913" width="15.992" height="16.225"/>
	</g>
</g>
<g>
	<g>
		<path d="M367.949,63.971v16.225c39.619,0,71.852,32.232,71.852,71.852c0,39.619-32.232,71.852-71.852,71.852v16.225
			c48.565,0,88.077-39.511,88.077-88.077S416.514,63.971,367.949,63.971z"/>
	</g>
</g>
<g>
	<g>
		<path d="M367.949,95.957v16.225c21.982,0,39.865,17.883,39.865,39.865s-17.883,39.866-39.865,39.866v16.225
			c30.928,0.001,56.09-25.162,56.09-56.091C424.039,121.118,398.876,95.957,367.949,95.957z"/>
	</g>
</g>
<g>
	<g>
		<path d="M367.949,119.945v16.225c8.755,0,15.877,7.122,15.877,15.877c0,8.755-7.122,15.878-15.877,15.878v16.225
			c17.7,0,32.102-14.4,32.102-32.103C400.051,134.346,385.651,119.945,367.949,119.945z"/>
	</g>
</g>
<g>
</g>
<g>
</g>
<g>
</g>
<g>
</g>
<g>
</g>
<g>
</g>
<g>
</g>
<g>
</g>
<g>
</g>
<g>
</g>
<g>
</g>
<g>
</g>
<g>
</g>
<g>
</g>
<g>
</g>
</svg>
