<?xml version="1.0" encoding="iso-8859-1"?>
<!-- Generator: Adobe Illustrator 19.0.0, SVG Export Plug-In . SVG Version: 6.00 Build 0)  -->
<svg version="1.1" id="Layer_1" xmlns="http://www.w3.org/2000/svg" xmlns:xlink="http://www.w3.org/1999/xlink" x="0px" y="0px"
	 viewBox="0 0 510.67 510.67" style="enable-background:new 0 0 510.67 510.67;" xml:space="preserve">
<g>
	<path style="fill:#FFD46A;" d="M349.794,197.781c-35.316,0-64.048,28.732-64.048,64.048c0,35.316,28.731,64.048,64.048,64.048
		c35.315,0,64.047-28.732,64.047-64.048C413.841,226.512,385.109,197.781,349.794,197.781z"/>
	<path style="fill:#4CC7BB;" d="M413.359,171.305c-18.626-13.047-40.505-19.943-63.272-19.943s-44.647,6.896-63.273,19.943
		c-2.043,1.431-4.477,2.198-6.971,2.198H35.266v59.486l17.396-17.396c4.746-4.745,12.438-4.745,17.184,0
		c4.744,4.745,4.744,12.438,0,17.183l-34.579,34.579v64.437l32.974-32.973c4.746-4.744,12.438-4.745,17.184,0
		c4.744,4.745,4.744,12.438-0.001,17.183l-34.15,34.15h62.746l35.945-35.945c4.746-4.745,12.438-4.745,17.184,0
		c4.744,4.745,4.744,12.438,0,17.183l-18.763,18.763h131.459c2.494,0,4.928,0.768,6.971,2.198
		c18.626,13.047,40.506,19.943,63.273,19.943s44.646-6.896,63.272-19.943c2.043-1.431,4.477-2.198,6.971-2.198h77.005v-176.65
		H420.33C417.836,173.504,415.402,172.736,413.359,171.305z M221.716,278.841H120.227c-6.71,0-12.15-5.439-12.15-12.15
		s5.44-12.15,12.15-12.15h101.489c6.71,0,12.15,5.439,12.15,12.15S228.426,278.841,221.716,278.841z M221.716,227.37H120.227
		c-6.71,0-12.15-5.439-12.15-12.15s5.44-12.15,12.15-12.15h101.489c6.71,0,12.15,5.439,12.15,12.15S228.426,227.37,221.716,227.37z
		 M349.794,350.177c-48.716,0-88.349-39.633-88.349-88.348s39.633-88.348,88.349-88.348c48.715,0,88.348,39.632,88.348,88.348
		S398.509,350.177,349.794,350.177z"/>
	<g>
		<path d="M442.588,393.643c-6.71,0-12.15-5.439-12.15-12.15v-17.077H413.1c-22.013,14.499-47.504,22.142-73.979,22.142
			c-26.474,0-51.965-7.643-73.978-22.142H80.232v17.077c0,6.71-5.44,12.15-12.15,12.15s-12.15-5.439-12.15-12.15v-17.077H12.15
			c-6.71,0-12.15-5.439-12.15-12.15v-1.154c0-0.015,0-0.029,0-0.044v-98.748c0-0.021,0-0.043,0-0.064V151.318
			c0-6.71,5.44-12.15,12.15-12.15h252.993c22.013-14.499,47.504-22.142,73.978-22.142c26.475,0,51.966,7.643,73.979,22.142h85.42
			c6.71,0,12.15,5.439,12.15,12.15v200.948c0,6.71-5.44,12.15-12.15,12.15h-43.781v17.077
			C454.738,388.205,449.298,393.643,442.588,393.643z M137.418,340.117h131.46c2.494,0,4.928,0.768,6.971,2.198
			c18.626,13.047,40.505,19.943,63.272,19.943s44.647-6.896,63.273-19.943c2.043-1.431,4.477-2.198,6.971-2.198h77.004V163.469
			h-77.004c-2.494,0-4.928-0.768-6.971-2.198c-18.626-13.047-40.506-19.943-63.273-19.943s-44.646,6.896-63.272,19.943
			c-2.043,1.431-4.477,2.198-6.971,2.198H24.301v59.487l17.396-17.396c4.744-4.745,12.437-4.745,17.183,0
			c4.744,4.745,4.744,12.438,0,17.183l-34.579,34.579v64.437l32.973-32.974c4.746-4.745,12.438-4.745,17.183,0
			s4.745,12.438,0.001,17.183l-34.15,34.15h62.746L139,304.172c4.744-4.744,12.437-4.745,17.183,0
			c4.744,4.745,4.744,12.438-0.001,17.183L137.418,340.117z M338.828,340.141c-48.715,0-88.348-39.633-88.348-88.348
			s39.633-88.348,88.348-88.348c48.716,0,88.349,39.632,88.349,88.348S387.544,340.141,338.828,340.141z M338.828,187.745
			c-35.315,0-64.047,28.732-64.047,64.048s28.731,64.048,64.047,64.048s64.048-28.732,64.048-64.048
			S374.145,187.745,338.828,187.745z M210.751,268.807h-101.49c-6.71,0-12.15-5.439-12.15-12.15c0-6.711,5.44-12.15,12.15-12.15
			h101.49c6.71,0,12.15,5.439,12.15,12.15C222.901,263.367,217.461,268.807,210.751,268.807z M210.751,217.335h-101.49
			c-6.71,0-12.15-5.439-12.15-12.15s5.44-12.15,12.15-12.15h101.49c6.71,0,12.15,5.439,12.15,12.15S217.461,217.335,210.751,217.335
			z"/>
	</g>
</g>
<g>
</g>
<g>
</g>
<g>
</g>
<g>
</g>
<g>
</g>
<g>
</g>
<g>
</g>
<g>
</g>
<g>
</g>
<g>
</g>
<g>
</g>
<g>
</g>
<g>
</g>
<g>
</g>
<g>
</g>
</svg>
