<?xml version="1.0" encoding="iso-8859-1"?>
<!-- Generator: Adobe Illustrator 19.0.0, SVG Export Plug-In . SVG Version: 6.00 Build 0)  -->
<svg version="1.1" id="Layer_1" xmlns="http://www.w3.org/2000/svg" xmlns:xlink="http://www.w3.org/1999/xlink" x="0px" y="0px"
	 viewBox="0 0 512 512" style="enable-background:new 0 0 512 512;" xml:space="preserve">
<g>
	<g>
		<path d="M166.669,292.562c-54.159,0-98.22,44.061-98.22,98.22c0,54.159,44.061,98.22,98.22,98.22
			c54.158,0,98.22-44.061,98.22-98.22C264.889,336.623,220.828,292.562,166.669,292.562z M166.669,468.105
			c-42.636,0-77.322-34.686-77.322-77.322c0-42.636,34.686-77.322,77.322-77.322c42.636,0,77.322,34.686,77.322,77.322
			C243.991,433.418,209.305,468.105,166.669,468.105z"/>
	</g>
</g>
<g>
	<g>
		<path d="M166.667,323.91c-36.874,0-66.873,29.999-66.873,66.873c0,20.43,9.16,39.473,25.13,52.247
			c1.927,1.541,4.231,2.289,6.52,2.289c3.066,0,6.103-1.344,8.166-3.923c3.605-4.507,2.873-11.081-1.633-14.686
			c-10.985-8.787-17.285-21.882-17.285-35.928c0-25.351,20.624-45.976,45.975-45.976c5.771,0,10.449-4.678,10.449-10.449
			S172.438,323.91,166.667,323.91z"/>
	</g>
</g>
<g>
	<g>
		<path d="M174.516,439.817l-0.097-0.097c-4.081-4.08-10.698-4.08-14.778,0c-4.08,4.081-4.08,10.698,0,14.778l0.097,0.097
			c2.04,2.041,4.715,3.06,7.388,3.06s5.348-1.02,7.39-3.06C178.596,450.514,178.596,443.898,174.516,439.817z"/>
	</g>
</g>
<g>
	<g>
		<path d="M98.22,22.997C44.061,22.997,0,67.058,0,121.218c0,54.159,44.061,98.22,98.22,98.22c54.159,0,98.22-44.061,98.22-98.22
			C196.441,67.058,152.38,22.997,98.22,22.997z M98.22,198.54c-42.636,0-77.322-34.686-77.322-77.322
			c0-42.636,34.686-77.322,77.322-77.322c42.636,0,77.322,34.686,77.322,77.322C175.543,163.854,140.856,198.54,98.22,198.54z"/>
	</g>
</g>
<g>
	<g>
		<path d="M98.22,54.344c-36.874,0-66.873,29.999-66.873,66.873c0,20.431,9.16,39.474,25.13,52.247
			c1.927,1.541,4.232,2.289,6.52,2.289c3.065,0,6.102-1.343,8.166-3.923c3.605-4.507,2.873-11.082-1.633-14.687
			c-10.985-8.785-17.285-21.88-17.285-35.927c0-25.351,20.624-45.976,45.975-45.976c5.771,0,10.449-4.678,10.449-10.449
			S103.991,54.344,98.22,54.344z"/>
	</g>
</g>
<g>
	<g>
		<path d="M106.068,170.253l-0.097-0.097c-4.081-4.08-10.698-4.08-14.778,0c-4.08,4.081-4.08,10.698,0,14.778l0.097,0.097
			c2.04,2.041,4.715,3.061,7.388,3.061s5.348-1.02,7.39-3.061C110.148,180.949,110.148,174.333,106.068,170.253z"/>
	</g>
</g>
<g>
	<g>
		<path d="M413.78,168.201c-54.159,0-98.22,44.061-98.22,98.22s44.061,98.22,98.22,98.22c54.159,0,98.22-44.061,98.22-98.22
			S467.939,168.201,413.78,168.201z M413.78,343.744c-42.636,0-77.322-34.686-77.322-77.322c0-42.636,34.686-77.322,77.322-77.322
			c42.636,0,77.322,34.686,77.322,77.322S456.416,343.744,413.78,343.744z"/>
	</g>
</g>
<g>
	<g>
		<path d="M413.78,199.548c-36.874,0-66.873,29.999-66.873,66.873c0,20.43,9.16,39.473,25.13,52.247
			c1.927,1.541,4.231,2.289,6.52,2.289c3.065,0,6.102-1.343,8.166-3.923c3.605-4.507,2.873-11.081-1.633-14.686
			c-10.985-8.787-17.285-21.882-17.285-35.928c0-25.351,20.624-45.976,45.975-45.976c5.771,0,10.449-4.678,10.449-10.449
			C424.229,204.226,419.551,199.548,413.78,199.548z"/>
	</g>
</g>
<g>
	<g>
		<path d="M421.627,315.457l-0.097-0.097c-4.081-4.08-10.698-4.08-14.778,0c-4.08,4.081-4.08,10.698,0,14.778l0.097,0.097
			c2.04,2.041,4.715,3.06,7.388,3.06s5.348-1.02,7.39-3.06C425.707,326.153,425.707,319.537,421.627,315.457z"/>
	</g>
</g>
<g>
</g>
<g>
</g>
<g>
</g>
<g>
</g>
<g>
</g>
<g>
</g>
<g>
</g>
<g>
</g>
<g>
</g>
<g>
</g>
<g>
</g>
<g>
</g>
<g>
</g>
<g>
</g>
<g>
</g>
</svg>
