<?xml version="1.0" encoding="iso-8859-1"?>
<!-- Generator: Adobe Illustrator 19.0.0, SVG Export Plug-In . SVG Version: 6.00 Build 0)  -->
<svg version="1.1" id="Layer_1" xmlns="http://www.w3.org/2000/svg" xmlns:xlink="http://www.w3.org/1999/xlink" x="0px" y="0px"
	 viewBox="0 0 504.026 504.026" style="enable-background:new 0 0 504.026 504.026;" xml:space="preserve">
<g>
	<g>
		<path d="M487.239,251.925h-25.39v-8.393c0-9.258-7.529-16.787-16.787-16.787h-34.035c-8.998,0-16.325,7.327-16.325,16.325v7.563
			c-10.802-2.166-29.578-7.798-45.325-22.209l-7.974-5.976c-13.925-10.45-22.243-27.077-22.243-44.494v-18.356h0.462
			c8.998,0,16.325-7.328,16.325-16.325v-34.035c0-9.258-7.529-16.787-16.787-16.787h-8.393v-25.18
			c0-8.939-7.848-16.787-16.787-16.787h-83.934c-8.939,0-16.787,7.848-16.787,16.787v25.18h-9.308
			c-8.754,0-15.872,7.126-15.872,15.88v34.942c0,8.998,7.328,16.325,16.325,16.325h0.462v18.356
			c0,17.416-8.318,34.044-22.243,44.494l-8.612,6.513c-15.31,14.051-33.935,19.557-44.687,21.68v-7.571
			c0-8.998-7.327-16.325-16.325-16.325H58.964c-9.258,0-16.787,7.529-16.787,16.787v8.393h-25.39C7.839,251.925,0,259.773,0,268.712
			v83.934c0,8.939,7.839,16.787,16.787,16.787h25.39v9.308c0,8.754,7.118,15.872,15.872,15.872h34.95
			c8.998,0,16.325-7.327,16.325-16.325v-8.553c24.735,1.695,31.308,10.76,32.995,14.907c2.459,6.035,5.003,11.902,9.115,17.282
			c10.374,13.581,25.466,26.045,44.838,37.007c17.198,9.736,36.469,14.613,55.741,14.613s38.551-4.877,55.732-14.613
			c19.38-10.962,34.472-23.426,44.846-37.007c4.113-5.38,6.656-11.247,9.115-17.282c1.687-4.146,8.259-13.211,32.995-14.907v8.553
			c0,8.998,7.328,16.325,16.325,16.325h34.95c8.754,0,15.872-7.118,15.872-15.872v-9.308h25.39c8.947,0,16.787-7.848,16.787-16.787
			v-83.934C504.026,259.773,496.187,251.925,487.239,251.925z M58.964,377.827v-8.393V251.925v-8.393l33.574-0.462l0.034,9.283
			h-0.034v117.08h0.428l0.034,8.393H58.964z M184.866,142.81v-33.574h8.393v0.21h117.508v-0.21h8.393l0.462,33.574h-0.462H184.866z
			 M445.062,251.925v117.508v8.402l-33.574,0.453l-0.025-8.855h0.025l-0.017-117.038l-0.411-0.025l-0.034-8.838l34.035,0.025
			V251.925z"/>
	</g>
</g>
<g>
</g>
<g>
</g>
<g>
</g>
<g>
</g>
<g>
</g>
<g>
</g>
<g>
</g>
<g>
</g>
<g>
</g>
<g>
</g>
<g>
</g>
<g>
</g>
<g>
</g>
<g>
</g>
<g>
</g>
</svg>
