<?xml version="1.0" encoding="iso-8859-1"?>
<!-- Generator: Adobe Illustrator 19.0.0, SVG Export Plug-In . SVG Version: 6.00 Build 0)  -->
<svg version="1.1" id="Layer_1" xmlns="http://www.w3.org/2000/svg" xmlns:xlink="http://www.w3.org/1999/xlink" x="0px" y="0px"
	 viewBox="0 0 504.026 504.026" style="enable-background:new 0 0 504.026 504.026;" xml:space="preserve">
<g>
	<g>
		<path d="M487.239,281.403h-25.39v-8.393c0-9.258-7.529-16.787-16.787-16.787h-34.035c-8.998,0-16.325,7.327-16.325,16.325v7.571
			c-10.76-2.124-29.377-7.63-44.687-21.68l-8.612-6.513c-13.925-10.45-22.243-27.077-22.243-44.485v-18.365h0.453
			c9.006,0,16.334-7.327,16.334-16.325v-34.035c0-9.258-7.529-16.787-16.787-16.787h-20.9L267.18,75.302
			c-1.561-2.333-4.18-3.735-6.983-3.735V54.78h100.721c13.883,0,25.18-11.298,25.18-25.18c0-13.883-11.298-25.18-25.18-25.18
			H142.689c-13.891,0-25.18,11.298-25.18,25.18c0,13.883,11.289,25.18,25.18,25.18H243.41v16.787c-2.812,0-5.431,1.402-6.983,3.735
			l-31.089,46.626h-21.386c-8.754,0-15.872,7.126-15.872,15.88v34.942c0,8.998,7.328,16.325,16.325,16.325h0.462v18.365
			c0,17.408-8.318,34.035-22.251,44.485l-8.603,6.513c-15.31,14.051-33.935,19.557-44.687,21.68v-7.571
			c0-8.998-7.327-16.325-16.334-16.325H58.964c-9.258,0-16.787,7.529-16.787,16.787v8.393h-25.39C7.839,281.403,0,289.251,0,298.19
			v83.934c0,8.939,7.839,16.787,16.787,16.787h25.39v9.308c0,8.754,7.118,15.872,15.872,15.872h34.942
			c9.006,0,16.334-7.328,16.334-16.325v-8.553c24.735,1.695,31.308,10.76,32.995,14.907c2.459,6.043,5.011,11.91,9.115,17.282
			c10.383,13.589,25.474,26.045,44.838,37.007c8.637,4.893,18.222,8.561,28.479,11.071c1.855,2.829,3.953,5.313,6.127,7.487
			c8.427,8.427,19.506,12.641,30.577,12.641c11.071,0,22.15-4.214,30.586-12.641c4.583-4.583,7.789-9.938,9.871-15.696
			c1.964-0.907,3.936-1.788,5.833-2.862c19.38-10.97,34.472-23.426,44.846-37.007c4.096-5.355,6.648-11.23,9.115-17.282
			c1.687-4.146,8.251-13.211,32.995-14.907v8.553c0,8.998,7.328,16.325,16.325,16.325h34.95c8.754,0,15.872-7.118,15.872-15.872
			v-9.308h25.39c8.939,0,16.787-7.848,16.787-16.787V298.19C504.026,289.251,496.178,281.403,487.239,281.403z M58.964,407.304
			v-8.393V281.403v-8.393l33.574-0.462l0.034,9.283h-0.034v117.08h0.428l0.025,8.393H58.964z M247.9,88.354h7.797l22.385,33.574
			h-52.568L247.9,88.354z M226.623,348.55c-4.642,0-8.393-3.752-8.393-8.393c0-4.642,3.752-8.393,8.393-8.393h16.787
			c4.633,0,8.393,3.752,8.393,8.393v16.787h8.393c4.633,0,8.393,3.752,8.393,8.393v20.74l-0.159-0.235
			c-3.122-4.65-10.836-4.642-13.95,0.008l-2.677,4.012v-16.132h-8.393c-4.642,0-8.393-3.752-8.393-8.393V348.55H226.623z
			 M286.879,463.163l-0.008,0.017c-1.15,4.44-3.299,8.519-6.706,11.919c-10.316,10.307-27.102,10.307-37.418,0
			c-0.865-0.856-2.098-2.132-3.341-3.827l-1.553-2.938c-3.785-7.185-3.601-15.847,0.453-25.768c0.034-0.084,0.059-0.151,0.092-0.227
			c0.613-1.486,1.335-2.996,2.115-4.524c0.109-0.21,0.185-0.394,0.294-0.596c0.89-1.712,1.88-3.45,2.98-5.212l17.668-26.397
			l17.844,26.649c1.225,1.695,2.266,3.416,3.231,5.137c0.269,0.478,0.529,0.957,0.772,1.435c0.764,1.477,1.427,2.954,1.998,4.432
			c0.21,0.537,0.394,1.066,0.571,1.595c0.428,1.267,0.772,2.526,1.066,3.785c0.193,0.848,0.353,1.704,0.478,2.56
			c0.092,0.604,0.134,1.192,0.193,1.788C287.929,456.473,287.727,459.906,286.879,463.163z M184.866,172.288v-33.574h24.97h83.934
			h25.39l0.453,33.574h-0.453H184.866z M445.062,281.403v117.508v8.402l-33.574,0.453l-0.025-8.855h0.025l-0.017-117.038
			l-0.411-0.025l-0.034-8.838l34.035,0.025V281.403z"/>
	</g>
</g>
<g>
</g>
<g>
</g>
<g>
</g>
<g>
</g>
<g>
</g>
<g>
</g>
<g>
</g>
<g>
</g>
<g>
</g>
<g>
</g>
<g>
</g>
<g>
</g>
<g>
</g>
<g>
</g>
<g>
</g>
</svg>
