<?xml version="1.0" encoding="iso-8859-1"?>
<!-- Generator: Adobe Illustrator 19.0.0, SVG Export Plug-In . SVG Version: 6.00 Build 0)  -->
<svg version="1.1" id="Layer_1" xmlns="http://www.w3.org/2000/svg" xmlns:xlink="http://www.w3.org/1999/xlink" x="0px" y="0px"
	 viewBox="0 0 512 512" style="enable-background:new 0 0 512 512;" xml:space="preserve">
<g>
	<g>
		<path d="M493.798,51.2h-15.932V18.202C477.867,8.166,469.7,0,459.665,0h-100.13c-10.035,0-18.202,8.166-18.202,18.202V51.2
			h-15.932c-10.035,0-18.202,8.166-18.202,18.202v31.863c0,10.035,8.166,18.202,18.202,18.202h15.497
			c-4.292,43.059-40.721,76.8-84.898,76.8s-80.606-33.741-84.898-76.8h15.497c10.035,0,18.202-8.166,18.202-18.202V69.402
			c0-10.035-8.166-18.202-18.202-18.202h-15.932V18.202C170.667,8.166,162.5,0,152.465,0H52.335C42.3,0,34.133,8.166,34.133,18.202
			V51.2H18.202C8.166,51.2,0,59.366,0,69.402v31.863c0,10.035,8.166,18.202,18.202,18.202h16.282
			c3.618,92.279,65.212,173.978,153.25,202.522v70.545h-15.932c-10.035,0-18.202,8.166-18.202,18.202v31.863
			c0,10.035,8.166,18.202,18.202,18.202h15.932v32.998c0,10.035,8.166,18.202,18.202,18.202h100.13
			c10.035,0,18.202-8.166,18.202-18.202V460.8h15.932c10.035,0,18.202-8.166,18.202-18.202v-31.863
			c0-10.035-8.166-18.202-18.202-18.202h-15.932v-70.545c88.038-28.544,149.632-110.242,153.25-202.522h16.282
			c10.035,0,18.202-8.166,18.202-18.202V69.402C512,59.366,503.834,51.2,493.798,51.2z M42.667,102.4H18.202
			c-0.623,0-1.135-0.512-1.135-1.135V69.402c0-0.631,0.512-1.135,1.135-1.135h24.465h119.467h24.465
			c0.623,0,1.135,0.503,1.135,1.135v31.863c0,0.623-0.512,1.135-1.135,1.135h-24.465H42.667z M340.198,409.6
			c0.623,0,1.135,0.504,1.135,1.135v31.863c0,0.623-0.512,1.135-1.135,1.135h-24.465H196.267h-24.465
			c-0.623,0-1.135-0.512-1.135-1.135v-31.863c0-0.631,0.512-1.135,1.135-1.135h24.465h119.467H340.198z M494.933,101.265
			c0,0.623-0.512,1.135-1.135,1.135h-24.465H349.867h-24.465c-0.623,0-1.135-0.512-1.135-1.135V69.402
			c0-0.631,0.512-1.135,1.135-1.135h24.465h119.467h24.465c0.623,0,1.135,0.503,1.135,1.135V101.265z"/>
	</g>
</g>
<g>
</g>
<g>
</g>
<g>
</g>
<g>
</g>
<g>
</g>
<g>
</g>
<g>
</g>
<g>
</g>
<g>
</g>
<g>
</g>
<g>
</g>
<g>
</g>
<g>
</g>
<g>
</g>
<g>
</g>
</svg>
