<?xml version="1.0" encoding="iso-8859-1"?>
<!-- Generator: Adobe Illustrator 19.0.0, SVG Export Plug-In . SVG Version: 6.00 Build 0)  -->
<svg version="1.1" id="Layer_1" xmlns="http://www.w3.org/2000/svg" xmlns:xlink="http://www.w3.org/1999/xlink" x="0px" y="0px"
	 viewBox="0 0 504.026 504.026" style="enable-background:new 0 0 504.026 504.026;" xml:space="preserve">
<g>
	<g>
		<path d="M487.239,264.532h-25.39v-8.393c0-9.258-7.529-16.787-16.787-16.787h-34.035c-8.998,0-16.325,7.328-16.325,16.325v8.57
			c-24.92-1.662-31.526-10.769-33.204-14.915l-0.008-0.008c-2.468-6.06-5.028-11.935-9.115-17.282
			c-12.993-16.988-31.719-29.218-44.687-36.923c-2.493-1.477-5.145-2.636-7.764-3.886l-32.441-56.782
			c-1.494-2.619-4.281-4.23-7.286-4.23v-16.787h33.574c1.007,0,2.006-0.176,2.946-0.529l65.721-24.651h65.628
			c13.883,0,25.18-11.298,25.18-25.18s-11.298-25.18-25.18-25.18h-67.148c-1.016,0-2.014,0.185-2.955,0.537l-65.721,24.643h-82.407
			c-4.642,0-8.393,3.752-8.393,8.393v33.574c0,4.642,3.752,8.393,8.393,8.393h33.574v16.787c-3.013,0-5.8,1.612-7.294,4.23
			l-32.726,57.277c-2.359,1.058-4.751,1.964-7.067,3.164c-17.903,9.333-33.918,22.528-45.098,37.149
			c-4.088,5.347-6.648,11.222-9.124,17.291c-1.67,4.121-8.2,13.153-32.776,14.882v-8.536c0-8.998-7.327-16.325-16.325-16.325H58.964
			c-9.258,0-16.787,7.529-16.787,16.787v8.393h-25.39C7.839,264.532,0,272.38,0,281.319v83.934c0,8.939,7.839,16.787,16.787,16.787
			h25.39v9.3c0,8.754,7.118,15.88,15.872,15.88h34.95c8.998,0,16.325-7.327,16.325-16.325v-8.553
			c24.559,1.729,31.089,10.752,32.768,14.89c2.468,6.052,5.028,11.927,9.107,17.265c10.383,13.581,25.457,26.045,44.846,37.023
			c17.19,9.745,36.461,14.613,55.741,14.613c19.271,0,38.534-4.868,55.732-14.613c19.38-10.979,34.472-23.443,44.846-37.023
			c4.096-5.355,6.648-11.23,9.115-17.274c1.679-4.155,8.284-13.253,33.221-14.915v8.586c0,8.998,7.328,16.325,16.325,16.325h34.942
			c8.754,0,15.88-7.126,15.88-15.88v-9.3h25.39c8.947,0,16.787-7.848,16.787-16.787v-83.934
			C504.026,272.38,496.187,264.532,487.239,264.532z M58.964,390.434v-8.393V264.532v-8.393l33.574-0.462l0.034,8.855h-0.243
			v117.491h0.638l0.034,8.41H58.964z M272.418,182.494c-2.317-0.403-4.616-0.789-6.967-1.041c-2.107-0.227-4.239-0.311-6.362-0.411
			c-2.283-0.117-4.541-0.294-6.841-0.269c-2.401,0.008-4.818,0.252-7.235,0.42c-4.138,0.294-8.259,0.814-12.406,1.544
			c-1.754,0.311-3.5,0.504-5.254,0.89l20.925-36.621h7.051l20.564,35.999C274.751,182.771,273.567,182.687,272.418,182.494z
			 M445.062,264.532V382.04v8.402l-33.574,0.453l-0.21-62.565v-63.799h-0.218l-0.034-8.393l34.035,0.025V264.532z"/>
	</g>
</g>
<g>
</g>
<g>
</g>
<g>
</g>
<g>
</g>
<g>
</g>
<g>
</g>
<g>
</g>
<g>
</g>
<g>
</g>
<g>
</g>
<g>
</g>
<g>
</g>
<g>
</g>
<g>
</g>
<g>
</g>
</svg>
