<?xml version="1.0" encoding="iso-8859-1"?>
<!-- Generator: Adobe Illustrator 19.0.0, SVG Export Plug-In . SVG Version: 6.00 Build 0)  -->
<svg version="1.1" id="Layer_1" xmlns="http://www.w3.org/2000/svg" xmlns:xlink="http://www.w3.org/1999/xlink" x="0px" y="0px"
	 viewBox="0 0 512 512" style="enable-background:new 0 0 512 512;" xml:space="preserve">
<g>
	<g>
		<path d="M315.733,85.333h-17.067v-25.6c0-4.719-3.814-8.533-8.533-8.533H281.6V8.533c0-4.719-3.814-8.533-8.533-8.533h-34.133
			c-4.719,0-8.533,3.814-8.533,8.533V51.2h-8.533c-4.719,0-8.533,3.814-8.533,8.533v25.6h-17.067c-4.719,0-8.533,3.814-8.533,8.533
			c0,4.719,3.814,8.533,8.533,8.533h25.6h8.533v324.267h-8.533c-4.719,0-8.533,3.814-8.533,8.533v25.6H204.8
			c-4.719,0-8.533,3.814-8.533,8.533v34.133c0,4.719,3.814,8.533,8.533,8.533h102.4c4.719,0,8.533-3.814,8.533-8.533v-34.133
			c0-4.719-3.814-8.533-8.533-8.533h-8.533v-25.6c0-4.719-3.814-8.533-8.533-8.533H281.6V102.4h8.533h25.6
			c4.719,0,8.533-3.814,8.533-8.533C324.267,89.148,320.452,85.333,315.733,85.333z M281.6,460.8h-51.2v-17.067h8.533h34.133h8.533
			V460.8z M281.6,85.333h-8.533h-34.133H230.4V68.267h8.533h34.133h8.533V85.333z"/>
	</g>
</g>
<g>
</g>
<g>
</g>
<g>
</g>
<g>
</g>
<g>
</g>
<g>
</g>
<g>
</g>
<g>
</g>
<g>
</g>
<g>
</g>
<g>
</g>
<g>
</g>
<g>
</g>
<g>
</g>
<g>
</g>
</svg>
