<?xml version="1.0" encoding="iso-8859-1"?>
<!-- Generator: Adobe Illustrator 19.0.0, SVG Export Plug-In . SVG Version: 6.00 Build 0)  -->
<svg version="1.1" id="Layer_1" xmlns="http://www.w3.org/2000/svg" xmlns:xlink="http://www.w3.org/1999/xlink" x="0px" y="0px"
	 viewBox="0 0 511.984 511.984" style="enable-background:new 0 0 511.984 511.984;" xml:space="preserve">
<g>
	<g>
		<path d="M476.844,493.829L320.961,337.264c-0.533-1.301-1.344-2.539-2.411-3.584c-0.064-0.064-6.336-6.464-6.379-14.187
			c-0.043-4.523,2.091-8.853,6.507-13.269l32-32c4.16-4.16,4.16-10.923,0-15.083c-4.16-4.16-10.923-4.16-15.083,0l-32,32
			c-6.123,6.123-9.259,12.181-10.965,17.664l-20.224-20.309l46.272-46.272c4.16-4.16,4.16-10.923,0-15.083
			c-4.16-4.16-10.923-4.16-15.083,0l-46.229,46.229l-16.875-16.96l46.187-46.187c4.16-4.16,4.16-10.923,0-15.083
			c-4.16-4.16-10.923-4.16-15.083,0l-46.165,46.165l-16.875-16.96l46.123-46.123c4.16-4.16,4.16-10.923,0-15.083
			c-4.16-4.16-10.923-4.16-15.083,0l-46.101,46.101l-16.875-16.96l46.059-46.059c4.16-4.16,4.16-10.923,0-15.083
			c-4.16-4.16-10.923-4.16-15.083,0l-46.016,46.016l-16.875-16.96l45.995-45.995c4.16-4.16,4.16-10.923,0-15.083
			c-4.16-4.16-10.923-4.16-15.083,0l-45.952,45.952l-16.875-16.96L158.7,82.203c4.16-4.16,4.16-10.923,0-15.083
			c-4.16-4.16-10.923-4.16-15.083,0l-45.888,45.888l-16.875-16.96L126.7,50.203c4.16-4.16,4.16-10.923,0-15.083
			c-4.16-4.16-10.923-4.16-15.083,0L65.815,80.923l-9.344-9.387c-4.16-4.16-4.16-10.923,0-15.083l38.251-38.251
			c4.16-4.16,4.16-10.923,0-15.083c-4.16-4.16-10.923-4.16-15.083,0L41.388,41.371c-12.48,12.48-12.48,32.768-0.021,45.227
			l420.416,422.251c2.091,2.112,4.821,3.136,7.552,3.136c2.709,0,5.44-1.045,7.531-3.115
			C480.983,504.752,481.004,498.011,476.844,493.829z"/>
	</g>
</g>
<g>
</g>
<g>
</g>
<g>
</g>
<g>
</g>
<g>
</g>
<g>
</g>
<g>
</g>
<g>
</g>
<g>
</g>
<g>
</g>
<g>
</g>
<g>
</g>
<g>
</g>
<g>
</g>
<g>
</g>
</svg>
