<?xml version="1.0" encoding="iso-8859-1"?>
<!-- Generator: Adobe Illustrator 19.0.0, SVG Export Plug-In . SVG Version: 6.00 Build 0)  -->
<svg version="1.1" id="Layer_1" xmlns="http://www.w3.org/2000/svg" xmlns:xlink="http://www.w3.org/1999/xlink" x="0px" y="0px"
	 viewBox="0 0 512.005 512.005" style="enable-background:new 0 0 512.005 512.005;" xml:space="preserve">
<g>
	<g>
		<path d="M490.117,112.379L380.869,3.131c-4.16-4.16-10.923-4.16-15.083,0L323.12,45.797c-4.16,4.16-4.16,10.923,0,15.083
			c4.16,4.16,10.923,4.16,15.083,0l35.115-35.115l48.917,48.917L3.12,493.797c-4.16,4.16-4.16,10.923,0,15.083
			c2.069,2.069,4.8,3.115,7.531,3.115s5.461-1.045,7.552-3.115L437.317,89.744l37.717,37.717
			c10.091,10.069,15.616,23.467,15.616,37.717c0,14.229-5.547,27.627-15.616,37.717c-4.16,4.16-4.16,10.923,0,15.083
			c2.091,2.091,4.821,3.115,7.552,3.115s5.461-1.045,7.552-3.115c14.101-14.101,21.867-32.853,21.867-52.8
			C512.005,145.232,504.219,126.48,490.117,112.379z"/>
	</g>
</g>
<g>
</g>
<g>
</g>
<g>
</g>
<g>
</g>
<g>
</g>
<g>
</g>
<g>
</g>
<g>
</g>
<g>
</g>
<g>
</g>
<g>
</g>
<g>
</g>
<g>
</g>
<g>
</g>
<g>
</g>
</svg>
