<?xml version="1.0" encoding="iso-8859-1"?>
<!-- Generator: Adobe Illustrator 19.0.0, SVG Export Plug-In . SVG Version: 6.00 Build 0)  -->
<svg version="1.1" id="Layer_1" xmlns="http://www.w3.org/2000/svg" xmlns:xlink="http://www.w3.org/1999/xlink" x="0px" y="0px"
	 viewBox="0 0 496 496" style="enable-background:new 0 0 496 496;" xml:space="preserve">
<g>
	<g>
		<g>
			<path d="M496,16V0H256v16h16v88h-16v16h16v40h-48v-40h16v-16h-16V16h16V0H0v16h16v88H0v16h16v96H0v16h16v88H0v16h144v40h-16v16
				h16v88h-16v16h240v-16h-16v-88h16v-16h-16v-40h144v-16h-16v-88h16v-16h-16v-96h16v-16h-16V16H496z M144,264h-16v16h16v40H32v-88
				h32v-16H32v-96h32v-16H32V16h176v88h-32v16h32v40h-80v16h16V264z M336,264h-32v16h32v96h-32v16h32v88H160v-88h32v-16h-32v-96h32
				v-16h-32v-88h176V264z M464,104h-32v16h32v96h-32v16h32v88H352v-40h16v-16h-16v-88h16v-16h-80v-40h32v-16h-32V16h176V104z"/>
			<polygon points="244.944,280 259.056,280 267.056,296 256,296 256,312 283.312,312 301.656,293.656 290.344,282.344 
				282.192,290.496 268.944,264 235.056,264 216.84,300.424 231.16,307.576 			"/>
			<polygon points="208.944,352 214.52,340.856 216.416,346.528 231.584,341.472 221.248,310.448 182.064,320.24 185.936,335.76 
				201.064,331.976 191.056,352 203.056,376 240,376 240,360 212.944,360 			"/>
			<polygon points="280.84,323.576 295.056,352 291.056,360 268.944,360 279.16,339.576 264.84,332.424 246.768,368.576 
				265.344,396.44 278.656,387.56 270.952,376 300.944,376 312.944,352 295.16,316.424 			"/>
			<polygon points="364.944,120 379.056,120 387.056,136 376,136 376,152 403.312,152 421.656,133.656 410.344,122.344 
				402.192,130.496 388.944,104 355.056,104 336.84,140.424 351.16,147.576 			"/>
			<polygon points="400.84,163.576 415.056,192 411.056,200 388.944,200 399.16,179.576 384.84,172.424 366.768,208.576 
				385.344,236.44 398.656,227.56 390.952,216 420.944,216 432.944,192 415.16,156.424 			"/>
			<polygon points="116.944,120 131.056,120 139.056,136 128,136 128,152 155.312,152 173.656,133.656 162.344,122.344 
				154.192,130.496 140.944,104 107.056,104 88.84,140.424 103.16,147.576 			"/>
			<polygon points="80.944,192 86.52,180.856 88.416,186.528 103.584,181.472 93.248,150.44 54.064,160.24 57.936,175.76 
				73.064,171.976 63.056,192 75.056,216 128,216 128,200 84.944,200 			"/>
		</g>
	</g>
</g>
<g>
</g>
<g>
</g>
<g>
</g>
<g>
</g>
<g>
</g>
<g>
</g>
<g>
</g>
<g>
</g>
<g>
</g>
<g>
</g>
<g>
</g>
<g>
</g>
<g>
</g>
<g>
</g>
<g>
</g>
</svg>
