<?xml version="1.0" encoding="iso-8859-1"?>
<!-- Generator: Adobe Illustrator 19.0.0, SVG Export Plug-In . SVG Version: 6.00 Build 0)  -->
<svg version="1.1" id="Layer_1" xmlns="http://www.w3.org/2000/svg" xmlns:xlink="http://www.w3.org/1999/xlink" x="0px" y="0px"
	 viewBox="0 0 512 512" style="enable-background:new 0 0 512 512;" xml:space="preserve">
<g>
	<g>
		<path d="M238.685,158.058l-73.73-73.73c1.556-3.254,2.404-6.829,2.404-10.542c0-6.542-2.548-12.693-7.173-17.319
			c-4.626-4.626-10.777-7.173-17.319-7.173c-4.373,0-8.558,1.163-12.243,3.298L35.127,1.17c-3.171-1.707-7.093-1.134-9.643,1.415
			L2.391,25.677c-2.549,2.549-3.124,6.469-1.415,9.643l51.42,95.494c-2.137,3.685-3.298,7.87-3.298,12.243
			c0,6.542,2.548,12.693,7.173,17.319c4.626,4.626,10.777,7.173,17.319,7.173c3.713,0,7.289-0.848,10.542-2.403l73.73,73.73
			c1.595,1.594,3.685,2.391,5.774,2.391c2.089,0,4.179-0.797,5.774-2.391c3.188-3.188,3.188-8.358,0-11.545l-72.727-72.728
			l57.727-57.727l72.727,72.726c1.595,1.594,3.684,2.392,5.774,2.392c2.089,0,4.179-0.797,5.774-2.392
			C241.873,166.414,241.873,161.245,238.685,158.058z M18.232,32.927l14.503-14.5l85.053,45.798l-53.756,53.756L18.232,32.927z
			 M148.636,79.556L79.362,148.83c-1.541,1.542-3.592,2.392-5.773,2.392c-2.18,0-4.231-0.849-5.774-2.392
			c-1.541-1.542-2.39-3.591-2.39-5.773c0-2.18,0.849-4.23,2.391-5.773c0.048-0.048,0.063-0.063,0.078-0.078l69.115-69.115
			c0.017-0.017,0.035-0.035,0.052-0.052c1.57-1.571,3.62-2.42,5.801-2.42c2.18,0,4.232,0.849,5.775,2.392
			c1.541,1.542,2.39,3.592,2.39,5.773S150.179,78.014,148.636,79.556z"/>
	</g>
</g>
<g>
	<g>
		<path d="M498.065,432.83l-30.787-30.785c-8.739-8.739-20.357-13.551-32.716-13.551c-3.558,0-7.052,0.411-10.436,1.189
			l-48.82-48.82l25.016-25.016c3.188-3.188,3.188-8.358,0-11.545c-3.189-3.188-8.358-3.188-11.546,0l-1.923,1.923l-32.711-32.712
			c-3.189-3.188-8.358-3.189-11.546,0c-3.188,3.188-3.188,8.358,0,11.545l32.712,32.712l-40.409,40.409
			c-0.004,0.004-17.32,17.32-17.32,17.32l-32.039-32.038c-3.189-3.188-8.358-3.188-11.546,0c-3.188,3.188-3.188,8.358,0,11.545
			l32.039,32.039l-1.925,1.925c-3.188,3.188-3.188,8.358,0,11.545c1.595,1.595,3.684,2.391,5.774,2.391
			c2.089,0,4.179-0.797,5.774-2.391L340.67,375.5l48.843,48.842c-3.447,15.025,0.66,31.448,12.34,43.128l30.786,30.786
			c8.739,8.738,20.357,13.551,32.715,13.551s23.975-4.812,32.714-13.55C516.104,480.218,516.103,450.868,498.065,432.83z
			 M401.849,402.045c-1.97,1.97-3.712,4.082-5.252,6.293l-44.383-44.384l11.546-11.545l44.377,44.378
			C405.915,398.34,403.806,400.088,401.849,402.045z M486.519,486.712c-5.653,5.654-13.171,8.767-21.167,8.767
			s-15.514-3.114-21.168-8.768l-30.786-30.786c-11.672-11.672-11.673-30.663-0.001-42.335c3.155-3.156,6.892-5.517,10.966-6.991
			c0.09-0.031,0.18-0.061,0.269-0.095c3.149-1.104,6.494-1.683,9.931-1.683c7.997,0,15.515,3.114,21.169,8.768l30.785,30.786
			C498.189,456.048,498.19,475.04,486.519,486.712z"/>
	</g>
</g>
<g>
	<g>
		<path d="M509.609,25.677L486.518,2.585c-2.549-2.549-6.469-3.124-9.643-1.415L381.38,52.59c-3.685-2.137-7.87-3.298-12.243-3.298
			c-6.542,0-12.692,2.548-17.318,7.173c-4.626,4.626-7.175,10.777-7.175,17.32c0,3.713,0.848,7.289,2.404,10.542l-221.9,221.897
			l-1.923-1.923c-3.188-3.187-8.357-3.188-11.546,0c-3.188,3.188-3.188,8.358,0,11.545l25.016,25.016l-48.82,48.82
			c-3.384-0.777-6.877-1.189-10.436-1.189c-12.359,0-23.976,4.812-32.716,13.551L13.938,432.83
			c-18.038,18.038-18.039,47.388-0.001,65.427c8.737,8.737,20.354,13.549,32.712,13.55c12.359,0,23.976-4.812,32.716-13.551
			l30.786-30.786c11.68-11.681,15.787-28.104,12.34-43.128l48.842-48.843l25.016,25.016c1.595,1.594,3.685,2.392,5.774,2.392
			s4.179-0.797,5.774-2.392c3.188-3.188,3.188-8.358,0-11.545l-1.926-1.924l221.899-221.899c3.254,1.556,6.829,2.404,10.543,2.404
			c6.542,0,12.692-2.548,17.318-7.173c4.626-4.626,7.175-10.777,7.175-17.319c0-4.373-1.163-8.558-3.298-12.243l51.419-95.494
			C512.733,32.146,512.159,28.226,509.609,25.677z M98.603,455.924L67.817,486.71c-5.654,5.655-13.171,8.768-21.166,8.768
			c-7.999,0-15.516-3.114-21.169-8.767c-11.672-11.671-11.671-30.663,0.002-42.335l30.785-30.786
			c5.654-5.654,13.172-8.768,21.169-8.768c3.435,0,6.782,0.578,9.931,1.683c0.089,0.034,0.18,0.064,0.269,0.095
			c4.076,1.473,7.811,3.835,10.966,6.991C110.276,425.261,110.275,444.253,98.603,455.924z M115.402,408.337
			c-1.54-2.211-3.282-4.323-5.252-6.293c-1.957-1.957-4.066-3.705-6.287-5.259l44.377-44.376l11.545,11.545L115.402,408.337z
			 M194.424,375.499l-57.729-57.727L357.59,96.875l57.729,57.727L194.424,375.499z M444.184,148.83
			c-1.541,1.542-3.592,2.392-5.773,2.392c-2.18,0-4.231-0.849-5.773-2.392l-69.269-69.268c-1.548-1.55-2.397-3.599-2.397-5.778
			c0-2.18,0.849-4.231,2.391-5.774c1.541-1.542,3.592-2.392,5.773-2.392s4.231,0.849,5.773,2.392
			c0.049,0.049,0.063,0.063,0.077,0.077l69.119,69.119c0.015,0.015,0.03,0.03,0.046,0.046c1.575,1.574,2.424,3.625,2.424,5.805
			S445.726,147.288,444.184,148.83z M447.97,117.981l-53.756-53.756l85.053-45.798l14.5,14.502L447.97,117.981z"/>
	</g>
</g>
<g>
</g>
<g>
</g>
<g>
</g>
<g>
</g>
<g>
</g>
<g>
</g>
<g>
</g>
<g>
</g>
<g>
</g>
<g>
</g>
<g>
</g>
<g>
</g>
<g>
</g>
<g>
</g>
<g>
</g>
</svg>
