<?xml version="1.0" encoding="utf-8"?>
<!-- Generator: Adobe Illustrator 16.0.0, SVG Export Plug-In . SVG Version: 6.00 Build 0)  -->
<!DOCTYPE svg PUBLIC "-//W3C//DTD SVG 1.1//EN" "http://www.w3.org/Graphics/SVG/1.1/DTD/svg11.dtd">
<svg version="1.1" id="Layer_1" xmlns="http://www.w3.org/2000/svg" xmlns:xlink="http://www.w3.org/1999/xlink" x="0px" y="0px"
	 width="512px" height="512px" viewBox="0 0 512 512" enable-background="new 0 0 512 512" xml:space="preserve">
<path d="M472.121,142.684L363.76,34.323c-18.479-18.48-44.082-28.017-70.149-26.124c-26.068,1.893-50.022,15.026-65.643,35.978
	L189.4,95.934c-16.802,22.543-14.519,53.999,5.361,73.881c10.441,10.439,12.176,26.741,4.184,39.146l-50.164,77.816
	c-24.825,38.528-59.26,69.92-99.901,91.11c-18.044,9.401-30.529,26.835-33.618,46.948c-3.097,20.111,3.58,40.484,17.965,54.869
	c14.4,14.409,34.775,21.078,54.877,17.989c20.105-3.088,37.539-15.565,46.934-33.602l0.024-0.039
	c21.18-40.644,52.58-75.069,91.101-99.901l85.531-55.132c7.907-5.092,18.291-3.984,24.943,2.67
	c19.874,19.875,51.33,22.163,73.875,5.363l51.756-38.569c20.951-15.621,34.084-39.573,35.979-65.643
	C500.139,186.773,490.609,161.172,472.121,142.684z M414.227,244.233l-25.57,15.747c-7.952,4.895-17.759,5.688-26.395,2.138
	c-8.625-3.556-15.033-11.026-17.228-20.103c-9.647-39.844-40.746-70.951-80.582-80.598l-0.039-0.008
	c-9.07-2.193-16.539-8.602-20.097-17.236c-3.547-8.634-2.756-18.44,2.141-26.393l15.755-25.569
	c8.99-14.591,25.449-22.853,42.519-21.348c17.063,1.505,31.82,12.523,38.125,28.469c11.613,29.395,34.87,52.651,64.257,64.264
	c15.937,6.298,26.956,21.045,28.461,38.117C437.078,218.782,428.816,235.243,414.227,244.233z"/>
</svg>
