<?xml version="1.0" encoding="iso-8859-1"?>
<!-- Generator: Adobe Illustrator 19.0.0, SVG Export Plug-In . SVG Version: 6.00 Build 0)  -->
<svg version="1.1" id="Layer_1" xmlns="http://www.w3.org/2000/svg" xmlns:xlink="http://www.w3.org/1999/xlink" x="0px" y="0px"
	 viewBox="0 0 405.5 405.5" style="enable-background:new 0 0 405.5 405.5;" xml:space="preserve">
<g>
	<path style="fill:#EFEFEF;" d="M295.645,302.389l-4.502,1.255c-3.229,0.9-6.558,1.356-9.892,1.356h-161
		c-2.433,0-4.874-0.241-7.256-0.716l-4.196-0.837L14.748,397.5h375.994L295.645,302.389z"/>
	<path style="fill:#3E81C8;" d="M281.251,8h-161c-20.402,0-37,16.598-37,37v223c0,20.402,16.598,37,37,37h161
		c20.402,0,37-16.598,37-37V45C318.251,24.598,301.653,8,281.251,8z"/>
	<path style="fill:#F8A805;" d="M264.751,227c-11.028,0-20,8.972-20,20c0,11.028,8.972,20,20,20s20-8.972,20-20
		S275.779,227,264.751,227z"/>
	<path style="fill:#F8A805;" d="M136.751,227c-11.028,0-20,8.972-20,20c0,11.028,8.972,20,20,20s20-8.972,20-20
		S147.779,227,136.751,227z"/>
	<rect x="123.251" y="48" style="fill:#FFFFFF;" width="155" height="138"/>
	<g>
		<path d="M136.751,219c-15.44,0-28,12.56-28,28s12.56,28,28,28s28-12.56,28-28S152.191,219,136.751,219z M136.751,259
			c-6.62,0-12-5.38-12-12s5.38-12,12-12c6.61,0,12,5.38,12,12S143.361,259,136.751,259z"/>
		<path d="M264.751,219c-15.44,0-28,12.56-28,28s12.56,28,28,28s28-12.56,28-28S280.191,219,264.751,219z M264.751,259
			c-6.62,0-12-5.38-12-12s5.38-12,12-12c6.61,0,12,5.38,12,12S271.361,259,264.751,259z"/>
		<path d="M396.401,391.84l-87.99-87.99c10.83-8.23,17.84-21.23,17.84-35.85V45c0-24.81-20.19-45-45-45h-161
			c-24.82,0-45,20.19-45,45v223c0,15.64,8.03,29.44,20.18,37.51l-86.34,86.33c-3.12,3.13-3.12,8.19,0,11.32
			c0.79,0.78,1.7,1.37,2.67,1.76v0.58h380v-0.07c1.7-0.22,3.34-0.97,4.64-2.27C399.531,400.03,399.531,394.97,396.401,391.84z
			 M91.251,268V45c0-15.99,13.01-29,29-29h161c15.99,0,29,13.01,29,29v223c0,15.99-13.01,29-29,29h-161
			C104.261,297,91.251,283.99,91.251,268z M140.561,328l15-15h94.37l15,15H140.561z M280.251,344c0.22,0,0.44-0.02,0.65-0.03
			l21.03,21.03h-198.37l21.15-21.15c0.5,0.1,1.01,0.15,1.54,0.15H280.251z M78.591,367.35l-22.16,22.15h-22.37l77.37-77.37
			c2.86,0.57,5.8,0.87,8.82,0.87h12.68l-54.34,54.34C78.591,367.34,78.591,367.34,78.591,367.35z M79.061,389.5l8.5-8.5h229.69
			c0.22,0,0.44-0.02,0.65-0.03l8.53,8.53H79.061z M349.061,389.5l-76.5-76.5h8.69c4.17,0,8.2-0.58,12.04-1.65l78.14,78.15H349.061z"
			/>
		<path d="M278.251,40h-155c-4.42,0-8,3.58-8,8v138c0,4.42,3.58,8,8,8h155c4.42,0,8-3.58,8-8V48
			C286.251,43.58,282.671,40,278.251,40z M131.251,56h57.18l-57.18,57.19V56z M131.251,135.81l79.65-79.65
			c0.05-0.05,0.1-0.11,0.15-0.16h19.38l-99.18,99.19V135.81z M270.251,178h-139v-0.19L253.061,56h17.19V178z"/>
	</g>
</g>
<g>
</g>
<g>
</g>
<g>
</g>
<g>
</g>
<g>
</g>
<g>
</g>
<g>
</g>
<g>
</g>
<g>
</g>
<g>
</g>
<g>
</g>
<g>
</g>
<g>
</g>
<g>
</g>
<g>
</g>
</svg>
