<?xml version="1.0" encoding="iso-8859-1"?>
<!-- Generator: Adobe Illustrator 19.0.0, SVG Export Plug-In . SVG Version: 6.00 Build 0)  -->
<svg version="1.1" id="Layer_1" xmlns="http://www.w3.org/2000/svg" xmlns:xlink="http://www.w3.org/1999/xlink" x="0px" y="0px"
	 viewBox="0 0 512 512" style="enable-background:new 0 0 512 512;" xml:space="preserve">
<g>
	<g>
		<path d="M510.279,246.76c-3.486-4.458-35.223-37.778-218.991-62.837c-2.482-0.338-4.98,0.503-6.751,2.275
			c-1.07,1.07-25.869,26.344-51.164,91.715H16.568C7.432,277.912,0,285.344,0,294.48v17.102c0,9.136,7.432,16.568,16.568,16.568
			h316.395c42.59,0,78.399-5.603,100.939-10.304c25.865-5.395,47.898-12.509,57.501-18.569c13.86-8.744,20.598-18.846,20.598-30.885
			v-16.668c0-0.008,0-0.016,0-0.022v-0.01v-0.014c0-0.004,0-0.009,0-0.009c0-0.005,0-0.009,0-0.011
			C511.985,249.81,511.345,248.11,510.279,246.76z M293.28,200.382c5.705,0.792,11.235,1.593,16.633,2.4
			c-10.155,14.596-24.425,38.763-38.784,75.131h-20.517C267.243,236.572,284.311,210.867,293.28,200.382z M482.847,285.718
			c-12.313,7.768-72.929,26.398-149.885,26.398H16.568c-0.295,0-0.534-0.241-0.534-0.534V294.48c0-0.294,0.239-0.534,0.534-0.534
			h333.495c62.251,0,115.716-5.318,139.53-13.877c0.345-0.124,0.687-0.249,1.024-0.375
			C488.74,281.574,486.221,283.589,482.847,285.718z M484.169,264.981c-21.856,7.855-74.495,12.932-134.107,12.932h-61.652
			c15.44-37.7,30.289-60.518,39.3-72.364c123.953,20.077,160.21,43.206,168.153,49.54
			C495.466,259.019,493.538,261.613,484.169,264.981z"/>
	</g>
</g>
<g>
</g>
<g>
</g>
<g>
</g>
<g>
</g>
<g>
</g>
<g>
</g>
<g>
</g>
<g>
</g>
<g>
</g>
<g>
</g>
<g>
</g>
<g>
</g>
<g>
</g>
<g>
</g>
<g>
</g>
</svg>
