<?xml version="1.0" encoding="iso-8859-1"?>
<!-- Generator: Adobe Illustrator 19.0.0, SVG Export Plug-In . SVG Version: 6.00 Build 0)  -->
<svg version="1.1" id="Layer_1" xmlns="http://www.w3.org/2000/svg" xmlns:xlink="http://www.w3.org/1999/xlink" x="0px" y="0px"
	 viewBox="0 0 512 512" style="enable-background:new 0 0 512 512;" xml:space="preserve">
<g>
	<g>
		<path d="M427.358,277.368c-22.596-83.507-92.604-146.074-188.425-169.327V89.601h25.6c2.27,0,4.437-0.896,6.033-2.5l8.533-8.533
			c3.337-3.337,3.337-8.73,0-12.066c-3.336-3.337-8.73-3.337-12.066,0l-6.033,6.033h-47.667c-4.719,0-8.533,3.823-8.533,8.533
			s3.814,8.533,8.533,8.533h8.533v14.814c-19.055-3.584-39.014-5.666-59.733-6.11V72.534c0-4.71-3.814-8.533-8.533-8.533h-42.667
			c-4.719,0-8.533,3.823-8.533,8.533s3.814,8.533,8.533,8.533h34.133v60.169C64.35,145.699,0,212.583,0,294.401
			c0,84.693,68.907,153.6,153.6,153.6s153.6-68.907,153.6-153.6c0-81.818-64.35-148.702-145.067-153.165v-25.882
			c127.104,2.765,221.466,66.961,248.269,163.576c-39.287,7.62-69.069,42.249-69.069,83.738c0,47.053,38.281,85.333,85.333,85.333
			S512,409.721,512,362.668C512,315.845,474.086,277.744,427.358,277.368z M153.6,277.334c9.412,0,17.067,7.654,17.067,17.067
			c0,9.412-7.654,17.067-17.067,17.067c-9.412,0-17.067-7.654-17.067-17.067C136.533,284.989,144.188,277.334,153.6,277.334z
			 M290.133,294.401c0,75.281-61.252,136.533-136.533,136.533S17.067,369.682,17.067,294.401c0-72.405,56.695-131.661,128-136.098
			v103.177c-14.677,3.814-25.6,17.067-25.6,32.922c0,18.825,15.309,34.133,34.133,34.133c18.825,0,34.133-15.309,34.133-34.133
			c0-15.855-10.923-29.107-25.6-32.922V158.303C233.438,162.74,290.133,221.996,290.133,294.401z M443.733,362.668
			c0,9.412-7.654,17.067-17.067,17.067S409.6,372.08,409.6,362.668c0-9.412,7.654-17.067,17.067-17.067
			S443.733,353.255,443.733,362.668z M426.667,430.934c-37.641,0-68.267-30.626-68.267-68.267c0-33.382,24.107-61.193,55.817-67.072
			c2.108,11.042,3.362,22.46,3.729,34.21c-14.583,3.883-25.412,17.075-25.412,32.862c0,18.825,15.309,34.133,34.133,34.133
			s34.133-15.309,34.133-34.133c0-15.932-11.017-29.235-25.796-32.981c-0.367-11.998-1.63-23.697-3.746-35.046
			c35.499,2.372,63.676,31.94,63.676,68.028C494.933,400.308,464.307,430.934,426.667,430.934z"/>
	</g>
</g>
<g>
</g>
<g>
</g>
<g>
</g>
<g>
</g>
<g>
</g>
<g>
</g>
<g>
</g>
<g>
</g>
<g>
</g>
<g>
</g>
<g>
</g>
<g>
</g>
<g>
</g>
<g>
</g>
<g>
</g>
</svg>
