<?xml version="1.0" encoding="iso-8859-1"?>
<!-- Generator: Adobe Illustrator 19.0.0, SVG Export Plug-In . SVG Version: 6.00 Build 0)  -->
<svg version="1.1" id="Layer_1" xmlns="http://www.w3.org/2000/svg" xmlns:xlink="http://www.w3.org/1999/xlink" x="0px" y="0px"
	 viewBox="0 0 480 480" style="enable-background:new 0 0 480 480;" xml:space="preserve">
<path style="fill:#42210B;" d="M480,407.704v16h-24H240H128H26.4H0v-16h19.2l57.6-93.6l-14.4-10.4l-7.2,12l-13.6-8l24-40l13.6,8
	l-8.8,14.4l15.2,10.4l50.4-83.2l94.4-152.8l3.2-4.8l0,0c0.8-1.6,2.4-3.2,4.8-3.2c3.2-0.8,7.2,0.8,8.8,3.2l149.6,244l20.8-13.6
	l-8.8-14.4l13.6-8l24,40l-13.6,8l-6.4-12l-20.8,13.6l55.2,90.4H480z M441.6,407.704l-193.6-316v212v104h160H441.6z M232,407.704v-44
	c-10.4,18.4-25.6,33.6-44,44H232z M232,303.704v-212l-193.6,316H72h56c2.4,0,4.8,0,8,0v-96c0-4,4-8,8-8H232z M230.4,319.704H152
	v85.6C192.8,395.704,224,361.304,230.4,319.704z"/>
<polygon style="fill:#E4C6A1;" points="248,91.704 441.6,407.704 408,407.704 "/>
<path style="fill:#CC9966;" d="M248,91.704l160,316H248v-104V91.704z M280,391.704v-24h-16v24H280z M280,343.704v-24h-16v24H280z
	 M280,295.704v-24h-16v24H280z M280,247.704v-24h-16v24H280z M280,199.704v-24h-16v24H280z"/>
<g>
	<rect x="264" y="367.704" style="fill:#42210B;" width="16" height="24"/>
	<rect x="264" y="319.704" style="fill:#42210B;" width="16" height="24"/>
	<rect x="264" y="271.704" style="fill:#42210B;" width="16" height="24"/>
	<rect x="264" y="223.704" style="fill:#42210B;" width="16" height="24"/>
	<rect x="264" y="175.704" style="fill:#42210B;" width="16" height="24"/>
</g>
<path style="fill:#7A5235;" d="M232,363.704v44h-44C206.4,397.304,221.6,382.104,232,363.704z"/>
<path style="fill:#CC9966;" d="M232,91.704v212h-88c-4,0-8,4-8,8v96c-2.4,0-4.8,0-8,0H72L232,91.704z"/>
<g>
	<polygon style="fill:#B37D4D;" points="232,91.704 72,407.704 38.4,407.704 	"/>
	<path style="fill:#B37D4D;" d="M152,319.704h78.4c-6.4,41.6-37.6,76-78.4,85.6V319.704z"/>
</g>
<g>
</g>
<g>
</g>
<g>
</g>
<g>
</g>
<g>
</g>
<g>
</g>
<g>
</g>
<g>
</g>
<g>
</g>
<g>
</g>
<g>
</g>
<g>
</g>
<g>
</g>
<g>
</g>
<g>
</g>
</svg>
