<?xml version="1.0" encoding="iso-8859-1"?>
<!-- Generator: Adobe Illustrator 19.0.0, SVG Export Plug-In . SVG Version: 6.00 Build 0)  -->
<svg version="1.1" id="Layer_1" xmlns="http://www.w3.org/2000/svg" xmlns:xlink="http://www.w3.org/1999/xlink" x="0px" y="0px"
	 viewBox="0 0 512 512" style="enable-background:new 0 0 512 512;" xml:space="preserve">
<g transform="translate(1 1)">
	<path style="fill:#FFDD09;" d="M451.267,442.733H58.733c-28.16,0-51.2-23.04-51.2-51.2v-153.6c0-28.16,23.04-51.2,51.2-51.2
		h392.533c28.16,0,51.2,23.04,51.2,51.2v153.6C502.467,419.693,479.427,442.733,451.267,442.733"/>
	<path style="fill:#FD9808;" d="M451.267,186.733h-25.6c28.16,0,51.2,23.04,51.2,51.2v153.6c0,28.16-23.04,51.2-51.2,51.2h25.6
		c28.16,0,51.2-23.04,51.2-51.2v-153.6C502.467,209.773,479.427,186.733,451.267,186.733"/>
	<path style="fill:#FFFFFF;" d="M58.733,186.733h25.6c-28.16,0-51.2,23.04-51.2,51.2v153.6c0,28.16,23.04,51.2,51.2,51.2h-25.6
		c-28.16,0-51.2-23.04-51.2-51.2v-153.6C7.533,209.773,30.573,186.733,58.733,186.733"/>
	<polygon style="fill:#FFDD09;" points="357.4,186.733 152.6,186.733 195.267,152.6 314.733,152.6 	"/>
	<path style="fill:#54C9FD;" d="M314.733,152.6H195.267V84.333c0-9.387,7.68-17.067,17.067-17.067h85.333
		c9.387,0,17.067,7.68,17.067,17.067V152.6z"/>
	<path style="fill:#33A9F8;" d="M297.667,67.267h-25.6c9.387,0,17.067,7.68,17.067,17.067V152.6h25.6V84.333
		C314.733,74.947,307.053,67.267,297.667,67.267"/>
	<g>
		<path style="fill:#1CD759;" d="M118.467,186.733h-51.2v-25.6c0-5.12,3.413-8.533,8.533-8.533h34.133
			c5.12,0,8.533,3.413,8.533,8.533V186.733z"/>
		<path style="fill:#1CD759;" d="M92.867,255H58.733c-9.387,0-17.067-7.68-17.067-17.067s7.68-17.067,17.067-17.067h34.133
			c9.387,0,17.067,7.68,17.067,17.067S102.253,255,92.867,255"/>
		<path style="fill:#1CD759;" d="M451.267,263.533H434.2c-5.12,0-8.533-3.413-8.533-8.533v-17.067c0-5.12,3.413-8.533,8.533-8.533
			h17.067c5.12,0,8.533,3.413,8.533,8.533V255C459.8,260.12,456.387,263.533,451.267,263.533"/>
	</g>
	<path style="fill:#FFDD09;" d="M383,314.733c0,70.827-57.173,128-128,128s-128-57.173-128-128s57.173-128,128-128
		S383,243.907,383,314.733"/>
	<path style="fill:#FD9808;" d="M255,186.733c-4.267,0-8.533,0-12.8,0.853c64.853,5.973,115.2,60.587,115.2,127.147
		S307.053,435.907,242.2,441.88c4.267,0,8.533,0.853,12.8,0.853c70.827,0,128-57.173,128-128S325.827,186.733,255,186.733"/>
	<path style="fill:#1CD759;" d="M331.8,314.733c0,42.667-34.133,76.8-76.8,76.8s-76.8-34.133-76.8-76.8s34.133-76.8,76.8-76.8
		S331.8,272.067,331.8,314.733"/>
	<path style="fill:#15A143;" d="M255,237.933c-4.267,0-8.533,0.853-12.8,0.853c36.693,5.973,64,37.547,64,75.947
		s-27.307,69.973-64,75.947c4.267,0.853,8.533,0.853,12.8,0.853c42.667,0,76.8-34.133,76.8-76.8S297.667,237.933,255,237.933"/>
	<path d="M229.4,331.8c0,5.12-3.413,8.533-8.533,8.533c-5.12,0-8.533-3.413-8.533-8.533s3.413-8.533,8.533-8.533
		C225.987,323.267,229.4,326.68,229.4,331.8"/>
	<path d="M263.533,109.933c0,5.12-3.413,8.533-8.533,8.533s-8.533-3.413-8.533-8.533c0-5.12,3.413-8.533,8.533-8.533
		S263.533,104.813,263.533,109.933"/>
	<path d="M220.867,314.733c-5.12,0-8.533-3.413-8.533-8.533c0-18.773,15.36-34.133,34.133-34.133c5.12,0,8.533,3.413,8.533,8.533
		c0,5.12-3.413,8.533-8.533,8.533c-9.387,0-17.067,7.68-17.067,17.067C229.4,311.32,225.987,314.733,220.867,314.733z"/>
	<path d="M255,451.267c-75.093,0-136.533-61.44-136.533-136.533S179.907,178.2,255,178.2s136.533,61.44,136.533,136.533
		S330.093,451.267,255,451.267z M255,195.267c-65.707,0-119.467,53.76-119.467,119.467S189.293,434.2,255,434.2
		s119.467-53.76,119.467-119.467S320.707,195.267,255,195.267z"/>
	<path d="M255,400.067c-46.933,0-85.333-38.4-85.333-85.333S208.067,229.4,255,229.4s85.333,38.4,85.333,85.333
		S301.933,400.067,255,400.067z M255,246.467c-37.547,0-68.267,30.72-68.267,68.267S217.453,383,255,383s68.267-30.72,68.267-68.267
		S292.547,246.467,255,246.467z"/>
	<path d="M451.267,451.267H58.733C25.453,451.267-1,424.813-1,391.533v-153.6c0-33.28,26.453-59.733,59.733-59.733h392.533
		c33.28,0,59.733,26.453,59.733,59.733v153.6C511,424.813,484.547,451.267,451.267,451.267z M58.733,195.267
		c-23.893,0-42.667,18.773-42.667,42.667v153.6c0,23.893,18.773,42.667,42.667,42.667h392.533c23.893,0,42.667-18.773,42.667-42.667
		v-153.6c0-23.893-18.773-42.667-42.667-42.667H58.733z"/>
	<path d="M357.4,195.267H152.6c-3.413,0-6.827-2.56-7.68-5.973s0-6.827,2.56-9.387l42.667-34.133
		c1.707-0.853,3.413-1.707,5.12-1.707h119.467c1.707,0,3.413,0.853,5.12,1.707l42.667,34.133c2.56,2.56,4.267,5.973,2.56,9.387
		C363.373,192.707,360.813,195.267,357.4,195.267z M177.347,178.2h156.16l-21.333-17.067H198.68L177.347,178.2z"/>
	<path d="M314.733,161.133H195.267c-5.12,0-8.533-3.413-8.533-8.533V84.333c0-14.507,11.093-25.6,25.6-25.6h85.333
		c14.507,0,25.6,11.093,25.6,25.6V152.6C323.267,157.72,319.853,161.133,314.733,161.133z M203.8,144.067h102.4V84.333
		c0-5.12-3.413-8.533-8.533-8.533h-85.333c-5.12,0-8.533,3.413-8.533,8.533V144.067z"/>
	<path d="M237.933,92.867c-5.12,0-8.533-3.413-8.533-8.533V67.267c0-5.12,3.413-8.533,8.533-8.533c5.12,0,8.533,3.413,8.533,8.533
		v17.067C246.467,89.453,243.053,92.867,237.933,92.867z"/>
	<path d="M237.933,161.133c-5.12,0-8.533-3.413-8.533-8.533v-17.067c0-5.12,3.413-8.533,8.533-8.533c5.12,0,8.533,3.413,8.533,8.533
		V152.6C246.467,157.72,243.053,161.133,237.933,161.133z"/>
	<path d="M272.067,161.133c-5.12,0-8.533-3.413-8.533-8.533v-17.067c0-5.12,3.413-8.533,8.533-8.533s8.533,3.413,8.533,8.533V152.6
		C280.6,157.72,277.187,161.133,272.067,161.133z"/>
	<path d="M272.067,92.867c-5.12,0-8.533-3.413-8.533-8.533V67.267c0-5.12,3.413-8.533,8.533-8.533s8.533,3.413,8.533,8.533v17.067
		C280.6,89.453,277.187,92.867,272.067,92.867z"/>
	<path d="M229.4,118.467h-8.533c-5.12,0-8.533-3.413-8.533-8.533c0-5.12,3.413-8.533,8.533-8.533h8.533
		c5.12,0,8.533,3.413,8.533,8.533C237.933,115.053,234.52,118.467,229.4,118.467z"/>
	<path d="M289.133,118.467H280.6c-5.12,0-8.533-3.413-8.533-8.533c0-5.12,3.413-8.533,8.533-8.533h8.533
		c5.12,0,8.533,3.413,8.533,8.533C297.667,115.053,294.253,118.467,289.133,118.467z"/>
	<path d="M118.467,195.267h-51.2c-5.12,0-8.533-3.413-8.533-8.533v-25.6c0-9.387,7.68-17.067,17.067-17.067h34.133
		c9.387,0,17.067,7.68,17.067,17.067v25.6C127,191.853,123.587,195.267,118.467,195.267z M75.8,178.2h34.133v-17.067H75.8V178.2z"/>
	<path d="M92.867,263.533H58.733c-14.507,0-25.6-11.093-25.6-25.6c0-14.507,11.093-25.6,25.6-25.6h34.133
		c14.507,0,25.6,11.093,25.6,25.6C118.467,252.44,107.373,263.533,92.867,263.533z M58.733,229.4c-5.12,0-8.533,3.413-8.533,8.533
		c0,5.12,3.413,8.533,8.533,8.533h34.133c5.12,0,8.533-3.413,8.533-8.533c0-5.12-3.413-8.533-8.533-8.533H58.733z"/>
	<path d="M451.267,272.067H434.2c-9.387,0-17.067-7.68-17.067-17.067v-17.067c0-9.387,7.68-17.067,17.067-17.067h17.067
		c9.387,0,17.067,7.68,17.067,17.067V255C468.333,264.387,460.653,272.067,451.267,272.067z M451.267,255v8.533V255L451.267,255z
		 M434.2,237.933V255h17.067v-17.067H434.2z"/>
	<path d="M255,451.267c-5.12,0-8.533-3.413-8.533-8.533v-17.067c0-5.12,3.413-8.533,8.533-8.533s8.533,3.413,8.533,8.533v17.067
		C263.533,447.853,260.12,451.267,255,451.267z"/>
	<path d="M255,212.333c-5.12,0-8.533-3.413-8.533-8.533v-17.067c0-5.12,3.413-8.533,8.533-8.533s8.533,3.413,8.533,8.533V203.8
		C263.533,208.92,260.12,212.333,255,212.333z"/>
	<path d="M383,323.267h-17.067c-5.12,0-8.533-3.413-8.533-8.533c0-5.12,3.413-8.533,8.533-8.533H383c5.12,0,8.533,3.413,8.533,8.533
		C391.533,319.853,388.12,323.267,383,323.267z"/>
	<path d="M144.067,323.267H127c-5.12,0-8.533-3.413-8.533-8.533c0-5.12,3.413-8.533,8.533-8.533h17.067
		c5.12,0,8.533,3.413,8.533,8.533C152.6,319.853,149.187,323.267,144.067,323.267z"/>
	<path d="M345.453,413.72c-2.56,0-4.267-0.853-5.973-2.56l-11.947-11.947c-3.413-3.413-3.413-8.533,0-11.947
		c3.413-3.413,8.533-3.413,11.947,0l11.947,11.947c3.413,3.413,3.413,8.533,0,11.947C349.72,412.867,348.013,413.72,345.453,413.72z
		"/>
	<path d="M176.493,244.76c-2.56,0-4.267-0.853-5.973-2.56l-11.947-11.947c-3.413-3.413-3.413-8.533,0-11.947s8.533-3.413,11.947,0
		l11.947,11.947c3.413,3.413,3.413,8.533,0,11.947C180.76,243.907,179.053,244.76,176.493,244.76z"/>
	<path d="M333.507,244.76c-2.56,0-4.267-0.853-5.973-2.56c-3.413-3.413-3.413-8.533,0-11.947l11.947-11.947
		c3.413-3.413,8.533-3.413,11.947,0c3.413,3.413,3.413,8.533,0,11.947L339.48,242.2C337.773,243.907,335.213,244.76,333.507,244.76z
		"/>
	<path d="M164.547,413.72c-2.56,0-4.267-0.853-5.973-2.56c-3.413-3.413-3.413-8.533,0-11.947l11.947-11.947
		c3.413-3.413,8.533-3.413,11.947,0c3.413,3.413,3.413,8.533,0,11.947L170.52,411.16C168.813,412.867,166.253,413.72,164.547,413.72
		z"/>
	<path d="M459.8,374.467h-51.2c-5.12,0-8.533-3.413-8.533-8.533s3.413-8.533,8.533-8.533h51.2c5.12,0,8.533,3.413,8.533,8.533
		S464.92,374.467,459.8,374.467z"/>
	<path d="M442.733,408.6h-51.2c-5.12,0-8.533-3.413-8.533-8.533s3.413-8.533,8.533-8.533h51.2c5.12,0,8.533,3.413,8.533,8.533
		S447.853,408.6,442.733,408.6z"/>
</g>
<g>
</g>
<g>
</g>
<g>
</g>
<g>
</g>
<g>
</g>
<g>
</g>
<g>
</g>
<g>
</g>
<g>
</g>
<g>
</g>
<g>
</g>
<g>
</g>
<g>
</g>
<g>
</g>
<g>
</g>
</svg>
