<?xml version="1.0" encoding="iso-8859-1"?>
<!-- Generator: Adobe Illustrator 19.0.0, SVG Export Plug-In . SVG Version: 6.00 Build 0)  -->
<svg version="1.1" id="Layer_1" xmlns="http://www.w3.org/2000/svg" xmlns:xlink="http://www.w3.org/1999/xlink" x="0px" y="0px"
	 viewBox="0 0 512 512" style="enable-background:new 0 0 512 512;" xml:space="preserve">
<g transform="translate(1 1)">
	<g>
		<polygon style="fill:#1CD759;" points="263.533,365.933 331.8,365.933 331.8,144.067 263.533,144.067 		"/>
		<path style="fill:#1CD759;" d="M263.533,323.267H331.8"/>
		<path style="fill:#1CD759;" d="M263.533,289.133H331.8"/>
		<path style="fill:#1CD759;" d="M263.533,255H331.8"/>
		<path style="fill:#1CD759;" d="M263.533,220.867H331.8"/>
		<path style="fill:#1CD759;" d="M263.533,186.733H331.8"/>
	</g>
	<path style="fill:#FCC309;" d="M92.867,289.133v-68.267c0-16.213,5.973-30.72,15.36-42.667H7.533v153.6h100.693
		C98.84,319.853,92.867,305.347,92.867,289.133"/>
	<polygon style="fill:#FFFFFF;" points="7.533,331.8 33.133,331.8 33.133,178.2 7.533,178.2 	"/>
	<path style="fill:#FFDD09;" d="M499.053,365.933H383V144.067h116.053c3.413,0,5.12,4.267,1.707,5.973L447,184.173
		c-2.56,1.707-4.267,4.267-4.267,7.68v22.187c0,4.267,3.413,7.68,7.68,8.533l45.227,6.827c4.267,0.853,7.68,4.267,7.68,8.533v36.693
		c0,4.267-3.413,7.68-7.68,8.533l-45.227,6.827c-4.267,0.853-7.68,4.267-7.68,8.533v22.187c0,2.56,1.707,5.973,4.267,6.827
		l53.76,34.133C504.173,361.667,502.467,365.933,499.053,365.933"/>
	<path style="fill:#FD9808;" d="M450.413,288.28l45.227-6.827c4.267-0.853,7.68-4.267,7.68-8.533v-36.693
		c0-4.267-3.413-7.68-7.68-8.533l-45.227-6.827c-4.267-0.853-7.68-4.267-7.68-8.533v-20.48c0-2.56,1.707-5.973,4.267-6.827
		l53.76-34.133c3.413-2.56,1.707-6.827-1.707-6.827h-25.6c3.413,0,5.12,4.267,1.707,5.973l-53.76,34.133
		c-2.56,1.707-4.267,4.267-4.267,7.68v22.187c0,4.267,3.413,7.68,7.68,8.533l45.227,6.827c4.267,0.853,7.68,4.267,7.68,8.533v36.693
		c0,4.267-3.413,7.68-7.68,8.533l-45.227,6.827c-4.267,0.853-7.68,4.267-7.68,8.533v22.187c0,2.56,1.707,5.973,4.267,6.827
		l53.76,34.133c2.56,1.707,1.707,5.973-1.707,5.973h25.6c3.413,0,5.12-4.267,1.707-5.973L447,327.533
		c-2.56-1.707-4.267-4.267-4.267-6.827V298.52C442.733,292.547,446.147,288.28,450.413,288.28"/>
	<path style="fill:#FFDD09;" d="M263.533,152.6h-102.4c-37.547,0-68.267,30.72-68.267,68.267v68.267
		c0,37.547,30.72,68.267,68.267,68.267h102.4V152.6z"/>
	<polygon style="fill:#FCC309;" points="331.8,357.4 383,357.4 383,152.6 331.8,152.6 	"/>
	<path d="M220.867,203.8c0-5.12,3.413-8.533,8.533-8.533c5.12,0,8.533,3.413,8.533,8.533c0,5.12-3.413,8.533-8.533,8.533
		C224.28,212.333,220.867,208.92,220.867,203.8"/>
	<path d="M220.867,237.933c0-5.12,3.413-8.533,8.533-8.533c5.12,0,8.533,3.413,8.533,8.533c0,5.12-3.413,8.533-8.533,8.533
		C224.28,246.467,220.867,243.053,220.867,237.933"/>
	<path d="M220.867,272.067c0-5.12,3.413-8.533,8.533-8.533c5.12,0,8.533,3.413,8.533,8.533s-3.413,8.533-8.533,8.533
		C224.28,280.6,220.867,277.187,220.867,272.067"/>
	<path d="M220.867,306.2c0-5.12,3.413-8.533,8.533-8.533c5.12,0,8.533,3.413,8.533,8.533s-3.413,8.533-8.533,8.533
		C224.28,314.733,220.867,311.32,220.867,306.2"/>
	<path d="M499.053,374.467H383c-5.12,0-8.533-3.413-8.533-8.533V144.067c0-5.12,3.413-8.533,8.533-8.533h116.053
		c5.12,0,10.24,3.413,11.093,8.533c1.707,5.12-0.853,10.24-5.12,13.653l-53.76,34.133v22.187l45.227,6.827
		C505.027,221.72,511,229.4,511,237.933v36.693c0,8.533-5.973,15.36-14.507,17.067l-45.227,5.12V319l53.76,34.133
		c4.267,2.56,6.827,8.533,5.12,13.653C509.293,371.053,504.173,374.467,499.053,374.467z M496.493,366.787L496.493,366.787
		L496.493,366.787z M391.533,357.4h89.6l-39.253-24.747c-5.12-3.413-7.68-8.533-7.68-14.507V295.96
		c0-8.533,5.973-15.36,14.507-17.067l45.227-6.827v-36.693l-45.227-6.827c-8.533-0.853-14.507-8.533-14.507-17.067v-19.627
		c0-5.973,3.413-11.093,7.68-14.507l39.253-24.747h-89.6V357.4z"/>
	<path d="M108.227,340.333H7.533C2.413,340.333-1,336.92-1,331.8V178.2c0-5.12,3.413-8.533,8.533-8.533h100.693
		c3.413,0,5.973,1.707,7.68,5.12c1.707,2.56,0.853,6.827-0.853,9.387c-9.387,10.24-13.653,23.04-13.653,36.693v68.267
		c0,13.653,4.267,26.453,12.8,37.547c1.707,2.56,2.56,5.973,0.853,9.387C114.2,338.627,110.787,340.333,108.227,340.333z
		 M16.067,323.267h75.947c-5.12-10.24-7.68-22.187-7.68-34.133v-68.267c0-11.947,2.56-23.893,7.68-34.133H16.067V323.267z"/>
	<path d="M331.8,374.467h-68.267c-5.12,0-8.533-3.413-8.533-8.533V144.067c0-5.12,3.413-8.533,8.533-8.533H331.8
		c5.12,0,8.533,3.413,8.533,8.533v221.867C340.333,371.053,336.92,374.467,331.8,374.467z M272.067,357.4h51.2V152.6h-51.2V357.4z"
		/>
	<path d="M263.533,365.933h-102.4c-42.667,0-76.8-34.133-76.8-76.8v-68.267c0-42.667,34.133-76.8,76.8-76.8h102.4
		c5.12,0,8.533,3.413,8.533,8.533v204.8C272.067,362.52,268.653,365.933,263.533,365.933z M161.133,161.133
		c-33.28,0-59.733,26.453-59.733,59.733v68.267c0,33.28,26.453,59.733,59.733,59.733H255V161.133H161.133z"/>
	<path d="M383,365.933h-51.2c-5.12,0-8.533-3.413-8.533-8.533V152.6c0-5.12,3.413-8.533,8.533-8.533H383
		c5.12,0,8.533,3.413,8.533,8.533v204.8C391.533,362.52,388.12,365.933,383,365.933z M340.333,348.867h34.133V161.133h-34.133
		V348.867z"/>
	<path d="M331.8,331.8h-68.267c-5.12,0-8.533-3.413-8.533-8.533c0-5.12,3.413-8.533,8.533-8.533H331.8
		c5.12,0,8.533,3.413,8.533,8.533C340.333,328.387,336.92,331.8,331.8,331.8z"/>
	<path d="M331.8,297.667h-68.267c-5.12,0-8.533-3.413-8.533-8.533c0-5.12,3.413-8.533,8.533-8.533H331.8
		c5.12,0,8.533,3.413,8.533,8.533C340.333,294.253,336.92,297.667,331.8,297.667z"/>
	<path d="M331.8,263.533h-68.267c-5.12,0-8.533-3.413-8.533-8.533s3.413-8.533,8.533-8.533H331.8c5.12,0,8.533,3.413,8.533,8.533
		S336.92,263.533,331.8,263.533z"/>
	<path d="M331.8,229.4h-68.267c-5.12,0-8.533-3.413-8.533-8.533c0-5.12,3.413-8.533,8.533-8.533H331.8
		c5.12,0,8.533,3.413,8.533,8.533C340.333,225.987,336.92,229.4,331.8,229.4z"/>
	<path d="M331.8,195.267h-68.267c-5.12,0-8.533-3.413-8.533-8.533c0-5.12,3.413-8.533,8.533-8.533H331.8
		c5.12,0,8.533,3.413,8.533,8.533C340.333,191.853,336.92,195.267,331.8,195.267z"/>
	<path d="M161.133,331.8c-14.507,0-25.6-11.093-25.6-25.6v-17.067c0-14.507,11.093-25.6,25.6-25.6c14.507,0,25.6,11.093,25.6,25.6
		V306.2C186.733,320.707,175.64,331.8,161.133,331.8z M161.133,280.6c-5.12,0-8.533,3.413-8.533,8.533V306.2
		c0,5.12,3.413,8.533,8.533,8.533c5.12,0,8.533-3.413,8.533-8.533v-17.067C169.667,284.013,166.253,280.6,161.133,280.6z"/>
	<path d="M161.133,246.467c-14.507,0-25.6-11.093-25.6-25.6V203.8c0-14.507,11.093-25.6,25.6-25.6c14.507,0,25.6,11.093,25.6,25.6
		v17.067C186.733,235.373,175.64,246.467,161.133,246.467z M161.133,195.267c-5.12,0-8.533,3.413-8.533,8.533v17.067
		c0,5.12,3.413,8.533,8.533,8.533c5.12,0,8.533-3.413,8.533-8.533V203.8C169.667,198.68,166.253,195.267,161.133,195.267z"/>
</g>
<g>
</g>
<g>
</g>
<g>
</g>
<g>
</g>
<g>
</g>
<g>
</g>
<g>
</g>
<g>
</g>
<g>
</g>
<g>
</g>
<g>
</g>
<g>
</g>
<g>
</g>
<g>
</g>
<g>
</g>
</svg>
