<?xml version="1.0" encoding="iso-8859-1"?>
<!-- Generator: Adobe Illustrator 19.0.0, SVG Export Plug-In . SVG Version: 6.00 Build 0)  -->
<svg version="1.1" id="Capa_1" xmlns="http://www.w3.org/2000/svg" xmlns:xlink="http://www.w3.org/1999/xlink" x="0px" y="0px"
	 viewBox="0 0 490 490" style="enable-background:new 0 0 490 490;" xml:space="preserve">
<g>
	<path d="M0,444.063h490V45.938H0V444.063z M15.312,61.25h459.375v367.5H15.312V61.25z"/>
	<path d="M342.049,91.875c-35.432,0-64.278,26.844-68.134,61.245H140.299v107.963c-34.406,3.852-61.255,32.7-61.255,68.135
		c0,38.056,30.85,68.906,68.906,68.906c35.435,0,64.284-26.848,68.135-61.255H349.71V228.915
		c34.401-3.856,61.245-32.703,61.245-68.134C410.955,122.725,380.104,91.875,342.049,91.875z M176.771,347.203l-10.826,10.826
		l-17.989-17.989l-17.989,17.989l-10.826-10.826l17.989-17.989l-17.989-17.989l10.826-10.826l10.333,10.333l7.656,7.656l7.656-7.656
		l10.333-10.333l10.826,10.826l-10.333,10.333l-7.656,7.656l7.656,7.656L176.771,347.203z M216.085,321.558
		c-3.57-31.854-28.619-56.903-60.473-60.473v-92.652h118.302c3.566,31.861,28.622,56.917,60.484,60.484v92.641H216.085z
		 M370.869,178.766l-10.826,10.826l-10.333-10.333l-7.656-7.656l-7.656,7.656l-10.333,10.333l-10.826-10.826l10.333-10.333
		l7.656-7.656l-7.656-7.656l-10.333-10.333l10.826-10.826l17.989,17.989l17.989-17.989l10.826,10.826l-17.989,17.989
		L370.869,178.766z"/>
</g>
<g>
</g>
<g>
</g>
<g>
</g>
<g>
</g>
<g>
</g>
<g>
</g>
<g>
</g>
<g>
</g>
<g>
</g>
<g>
</g>
<g>
</g>
<g>
</g>
<g>
</g>
<g>
</g>
<g>
</g>
</svg>
