<?xml version="1.0" encoding="iso-8859-1"?>
<!-- Generator: Adobe Illustrator 19.0.0, SVG Export Plug-In . SVG Version: 6.00 Build 0)  -->
<svg version="1.1" id="Capa_1" xmlns="http://www.w3.org/2000/svg" xmlns:xlink="http://www.w3.org/1999/xlink" x="0px" y="0px"
	 viewBox="0 0 470.01 470.01" style="enable-background:new 0 0 470.01 470.01;" xml:space="preserve">
<g>
	<g>
		<path d="M124.874,449.054C124.662,449.265,125.103,448.873,124.874,449.054L124.874,449.054z"/>
		<path d="M396.47,0.005c-19.64,0-38.105,7.647-51.996,21.534C344.228,21.785,22.202,343.88,20.96,345.122
			C8.005,358.386,0,376.504,0,396.465c0,40.55,32.99,73.54,73.54,73.54c19.956,0,38.071-8.002,51.334-20.951L448.465,125.55
			c9.832-9.83,16.52-21.958,19.6-35.169c0.021-0.087,0.041-0.174,0.059-0.261c1.233-5.376,1.886-10.924,1.886-16.575
			C470.01,32.995,437.02,0.005,396.47,0.005z M73.54,455.005c-32.279,0-58.54-26.261-58.54-58.54s26.261-58.54,58.54-58.54
			s58.54,26.261,58.54,58.54S105.819,455.005,73.54,455.005z M213.496,339.3c-11.933-10.739-25.461-19.245-40.313-25.324
			c-3.831-1.569-8.212,0.267-9.782,4.1c-0.028,0.068-0.046,0.137-0.072,0.205c-1.423,3.784,0.406,8.036,4.173,9.577
			c13,5.322,24.864,12.734,35.368,22.068l-56.48,56.479c0.442-3.253,0.69-6.567,0.69-9.94c0-36.721-27.054-67.24-62.276-72.677
			c17.762-5.272,36.716-6.626,55.459-3.592c4.013,0.647,7.801-2.026,8.558-6.001c0.013-0.069,0.032-0.135,0.044-0.204
			c0.662-4.089-2.116-7.94-6.205-8.603c-22.401-3.627-45.07-1.658-66.1,5.27c15-15,29.189-29.188,42.619-42.617
			c46.8-46.713,121.798-48.394,170.637-5.058L213.496,339.3z M454.984,74.612c-6.171-4.352-12.686-8.196-19.476-11.486
			c-3.73-1.809-8.214-0.248-10.021,3.479c-0.032,0.066-0.055,0.134-0.085,0.2c-1.657,3.687-0.097,8.045,3.564,9.82
			c8.276,4.009,16.089,8.949,23.293,14.701c-2.798,8.813-7.674,16.892-14.401,23.617l-50.479,50.478
			c-20.892-18.814-46.489-30.703-74.501-34.478c-4.106-0.552-7.882,2.326-8.435,6.431c-0.01,0.073-0.01,0.145-0.018,0.218
			c-0.425,4.02,2.417,7.673,6.449,8.217c24.727,3.333,47.345,13.756,65.88,30.237l-76.311,76.309
			c-38.107-34.254-90.675-43.823-136.866-28.712c15.421-15.421,29.596-29.595,42.637-42.636
			c20.545-20.466,47.722-33.18,76.555-35.804c4.051-0.369,7.048-3.896,6.798-7.929c-0.004-0.074-0.002-0.146-0.009-0.22
			c-0.376-4.125-4.04-7.164-8.148-6.79c-10.553,0.961-20.905,3.135-30.867,6.415c13.767-13.767,25.725-25.725,36.114-36.114
			c30.422-30.344,73.625-42.788,115.607-33.284c3.972,0.896,7.912-1.536,8.914-5.456c0.018-0.069,0.041-0.134,0.057-0.203
			c0.915-4.04-1.619-8.056-5.658-8.971c-25.21-5.706-50.813-4.34-74.396,3.386c17.991-17.996,22.643-22.654,23.884-23.906
			c11.072-11.039,25.772-17.126,41.406-17.126c32.279,0,58.54,26.261,58.54,58.54C455.01,73.902,454.99,74.256,454.984,74.612z"/>
		<path d="M20.96,345.122C21.14,344.895,20.75,345.332,20.96,345.122L20.96,345.122z"/>
	</g>
</g>
<g>
</g>
<g>
</g>
<g>
</g>
<g>
</g>
<g>
</g>
<g>
</g>
<g>
</g>
<g>
</g>
<g>
</g>
<g>
</g>
<g>
</g>
<g>
</g>
<g>
</g>
<g>
</g>
<g>
</g>
</svg>
