<?xml version="1.0" encoding="iso-8859-1"?>
<!-- Generator: Adobe Illustrator 19.0.0, SVG Export Plug-In . SVG Version: 6.00 Build 0)  -->
<svg version="1.1" id="Capa_1" xmlns="http://www.w3.org/2000/svg" xmlns:xlink="http://www.w3.org/1999/xlink" x="0px" y="0px"
	 viewBox="0 0 470 470" style="enable-background:new 0 0 470 470;" xml:space="preserve">
<g>
	<path d="M401.171,68.83C356.784,24.444,297.771,0,235,0S113.216,24.444,68.829,68.83C24.444,113.216,0,172.229,0,235
		s24.444,121.784,68.829,166.17C113.216,445.556,172.229,470,235,470s121.784-24.444,166.171-68.83
		C445.556,356.784,470,297.771,470,235S445.556,113.216,401.171,68.83z M235,455c-58.765,0-114.011-22.884-155.563-64.437
		c-85.778-85.778-85.778-225.349,0-311.127C120.989,37.884,176.235,15,235,15s114.011,22.884,155.563,64.437
		c85.778,85.778,85.778,225.349,0,311.127C349.011,432.116,293.765,455,235,455z"/>
	<path d="M132.147,139.084l32.748-2.375c2.641-0.192,4.985-1.762,6.168-4.131l11.76-23.563l24.988,8.297
		c2.509,0.833,5.271,0.284,7.271-1.446L235,98.629l19.918,17.235c1.998,1.729,4.759,2.28,7.271,1.446l24.989-8.297l11.76,23.564
		c1.183,2.37,3.527,3.939,6.168,4.131l32.748,2.375c0.186,0.013,0.368,0.02,0.551,0.02c3.896,0,7.187-3.012,7.473-6.958
		c0.3-4.131-2.807-7.723-6.938-8.023l-28.488-2.066l-12.755-25.56c-1.666-3.338-5.534-4.945-9.074-3.769l-27.113,9.002
		L239.907,83.04c-2.816-2.438-6.998-2.438-9.814,0l-21.602,18.692l-27.112-9.002c-3.539-1.177-7.408,0.431-9.074,3.769
		l-12.755,25.559l-28.488,2.066c-4.131,0.3-7.237,3.892-6.938,8.023C124.424,136.278,128.031,139.382,132.147,139.084z"/>
	<path d="M366.804,284.274l-29.382,14.663c-2.37,1.183-3.94,3.527-4.132,6.168l-1.905,26.279l-26.28,1.906
		c-2.641,0.192-4.985,1.762-6.168,4.132l-11.759,23.563l-24.989-8.297c-2.51-0.832-5.271-0.284-7.271,1.447L235,371.37
		l-19.918-17.235c-1.999-1.729-4.76-2.28-7.271-1.447l-24.989,8.297l-11.759-23.563c-1.183-2.37-3.527-3.94-6.169-4.132
		l-26.279-1.906l-1.905-26.279c-0.191-2.641-1.762-4.986-4.132-6.168l-29.382-14.663c-3.706-1.85-8.21-0.344-10.06,3.362
		c-1.85,3.707-0.345,8.21,3.362,10.06l25.559,12.755l2.065,28.487c0.27,3.714,3.224,6.668,6.938,6.938l28.487,2.066l12.755,25.559
		c1.666,3.339,5.533,4.946,9.074,3.769l27.113-9.002l21.602,18.691c1.408,1.219,3.158,1.829,4.907,1.829s3.499-0.609,4.907-1.829
		l21.602-18.691l27.113,9.002c3.546,1.177,7.408-0.431,9.074-3.769l12.755-25.559l28.487-2.066c3.714-0.27,6.668-3.224,6.938-6.938
		l2.065-28.487l25.56-12.755c3.707-1.85,5.212-6.354,3.362-10.06C375.014,283.93,370.511,282.425,366.804,284.274z"/>
	<path d="M421.888,242.524c-0.053-0.004-0.105-0.002-0.158-0.005c-4.075-0.253-7.589,2.809-7.915,6.885
		c-7.383,92.518-85.928,164.99-178.814,164.99c-98.918,0-179.394-80.476-179.394-179.394c0-98.918,80.476-179.395,179.394-179.395
		c92.887,0,171.432,72.473,178.814,164.991c0.326,4.075,3.84,7.129,7.915,6.884c0.053-0.003,0.105,0,0.158-0.005
		c4.129-0.33,7.209-3.944,6.88-8.073c-3.872-48.515-25.764-93.573-61.643-126.873C331.047,59.046,284.124,40.605,235,40.605
		C127.811,40.605,40.606,127.811,40.606,235c0,107.189,87.204,194.394,194.394,194.394c49.124,0,96.047-18.44,132.125-51.925
		c35.879-33.3,57.771-78.357,61.643-126.872C429.097,246.468,426.017,242.853,421.888,242.524z"/>
</g>
<g>
</g>
<g>
</g>
<g>
</g>
<g>
</g>
<g>
</g>
<g>
</g>
<g>
</g>
<g>
</g>
<g>
</g>
<g>
</g>
<g>
</g>
<g>
</g>
<g>
</g>
<g>
</g>
<g>
</g>
</svg>
