<?xml version="1.0" encoding="iso-8859-1"?>
<!-- Generator: Adobe Illustrator 19.0.0, SVG Export Plug-In . SVG Version: 6.00 Build 0)  -->
<svg version="1.1" id="Layer_1" xmlns="http://www.w3.org/2000/svg" xmlns:xlink="http://www.w3.org/1999/xlink" x="0px" y="0px"
	 viewBox="0 0 512 512" style="enable-background:new 0 0 512 512;" xml:space="preserve">
<g>
	<g>
		<g>
			<path d="M458.667,234.667c0-87.032-65.146-158.843-149.333-169.342V21.333C309.333,9.551,299.782,0,288,0
				C158.394,0,53.333,105.061,53.333,234.667c0,122.413,93.728,222.911,213.333,233.691v22.309c0,11.782,9.551,21.333,21.333,21.333
				s21.333-9.551,21.333-21.333v-86.658C393.521,393.51,458.667,321.698,458.667,234.667z M334.637,220.086
				c0.855,1.464,1.665,3.491,3.137,7.432c3.388,9.071,7.095,15.436,13.696,20.481c-0.234,1.052-0.547,2.273-0.948,3.633
				c-0.649,2.203-1.473,4.629-2.551,7.554c-0.099,0.269-1.157,3.051-2.223,5.892c-5.457,4.763-9.342,9.722-12.636,15.669
				c-0.516,0.931-0.887,1.635-1.6,3.011c-2.89,5.595-3.859,6.966-8.066,10.586c-0.625,0.538-0.894,0.668-1.526,0.807
				c-0.665,0.146-1.449,0.241-2.967,0.331c-0.015-10.534-5.621-19.223-17.052-24.917c-1.009-0.503-5.015-2.35-5.883-2.791
				c-1.396-0.71-2.413-1.342-3.291-2.049c-11.197-9.272-14.823-21.111-10.854-30.847c5.099-12.432,1.215-25.351-7.783-33.656
				c-0.367-2.696-0.535-3.72-0.931-5.646c-1.183-5.741-3.089-10.847-6.395-15.687c-1.162-1.701-2.564-3.225-4.163-4.524
				c-0.723-0.591-0.723-0.591-1.664-1.368c-1.002-0.83-1.002-0.83-1.835-1.522c-1.297-1.076-2.717-1.995-4.23-2.737
				c-5.613-2.752-9.288-4.443-13.078-6.012c-0.808-0.333-0.808-0.333-1.611-0.657c-1.896-0.763-10.234-3.956-11.876-4.581
				c-1.576-0.655-3.46-4.437-7.02-18.771c-2.157-8.684-1.876-7.564-2.642-10.406c-0.173-0.643-0.347-1.275-0.521-1.897
				c0.072-0.047,0.143-0.095,0.215-0.142c1.175-0.765,2.361-1.511,3.559-2.236c0.155-0.094,0.312-0.183,0.467-0.276
				c1.02-0.611,2.049-1.205,3.085-1.786c0.31-0.174,0.619-0.349,0.931-0.52c1.151-0.634,2.309-1.253,3.478-1.85
				c0.25-0.128,0.504-0.249,0.755-0.375c0.959-0.482,1.925-0.951,2.896-1.409c0.387-0.182,0.773-0.364,1.162-0.543
				c1.171-0.537,2.347-1.063,3.534-1.564c0.224-0.095,0.452-0.183,0.677-0.277c1.031-0.429,2.068-0.843,3.111-1.245
				c0.386-0.149,0.772-0.296,1.16-0.441c1.189-0.445,2.384-0.878,3.587-1.287c0.068-0.023,0.135-0.049,0.204-0.072
				c1.29-0.436,2.589-0.845,3.894-1.24c0.318-0.096,0.637-0.19,0.956-0.284c1.249-0.367,2.504-0.721,3.766-1.05
				c0.068-0.018,0.134-0.037,0.202-0.055c1.389-0.36,2.787-0.693,4.19-1.007c0.203-0.045,0.407-0.089,0.611-0.133
				c1.346-0.294,2.697-0.57,4.055-0.82c0.053-0.01,0.106-0.021,0.16-0.031c1.485-0.272,2.978-0.518,4.477-0.737
				c0.055-0.008,0.109-0.015,0.164-0.023c1.462-0.212,2.929-0.4,4.403-0.562c0.055-0.006,0.11-0.013,0.166-0.019
				c3.035-0.33,6.094-0.552,9.173-0.667c0.069-0.003,0.139-0.005,0.208-0.008c1.538-0.055,3.081-0.084,4.628-0.084
				c4.982,0,9.927,0.292,14.819,0.869c-5.538,5.234-10.846,11.236-16.243,18.255c-5.82,7.566-7.836,17.608-5.127,26.907
				c1.205,4.136,3.634,7.81,6.966,10.539c10.288,8.424,18.99,18.617,25.681,30.085c1.821,3.121,4.4,5.72,7.486,7.564
				C321.789,209.069,326.738,216.792,334.637,220.086z M339.364,221.424c0.326,0.055,0.644,0.125,0.977,0.166
				C340.02,221.55,339.694,221.495,339.364,221.424z M344.236,269.149c-0.257,0.704-0.472,1.302-0.609,1.701
				C343.802,270.258,344.01,269.696,344.236,269.149z M96,234.667c0-98.83,74.667-180.201,170.667-190.814v21.473
				c-5.258,0.656-10.439,1.558-15.537,2.681c-0.034,0.007-0.067,0.015-0.101,0.022c-1.154,0.255-2.303,0.522-3.448,0.8
				c-0.07,0.017-0.139,0.034-0.209,0.051c-1.152,0.281-2.3,0.573-3.443,0.878c-0.01,0.003-0.019,0.005-0.029,0.008
				c-5.876,1.567-11.626,3.439-17.235,5.6c-0.071,0.027-0.143,0.054-0.214,0.081c-0.993,0.384-1.981,0.78-2.965,1.182
				c-0.207,0.085-0.414,0.168-0.621,0.254c-0.928,0.384-1.851,0.775-2.771,1.175c-0.249,0.108-0.497,0.217-0.745,0.326
				c-0.903,0.397-1.803,0.8-2.698,1.213c-0.24,0.111-0.479,0.224-0.719,0.336c-0.915,0.427-1.827,0.858-2.733,1.3
				c-0.149,0.073-0.297,0.148-0.445,0.221c-4.193,2.063-8.289,4.292-12.279,6.68c-0.089,0.053-0.179,0.105-0.268,0.158
				c-0.886,0.533-1.765,1.077-2.64,1.625c-0.205,0.128-0.411,0.255-0.615,0.384c-0.842,0.532-1.677,1.073-2.509,1.62
				c-0.222,0.146-0.445,0.292-0.667,0.439c-0.833,0.553-1.661,1.113-2.484,1.68c-0.201,0.138-0.401,0.277-0.601,0.417
				c-0.85,0.591-1.696,1.189-2.535,1.795c-0.138,0.1-0.276,0.201-0.414,0.302c-0.899,0.654-1.794,1.314-2.68,1.985
				c-0.013,0.01-0.026,0.02-0.039,0.03c-41.122,31.162-67.691,80.525-67.691,136.1c0,87.031,65.146,158.843,149.333,169.342v21.473
				C170.667,414.868,96,333.496,96,234.667z M288,362.667c-70.693,0-128-57.307-128-128c0-27.218,8.502-52.447,22.986-73.19
				c6.044,20.117,13.243,30.395,29.984,36.829c1.133,0.43,9.646,3.688,11.289,4.349c0.615,0.249,0.615,0.249,1.213,0.495
				c1.864,0.772,3.749,1.609,6.192,2.764c0.082,0.568,0.186,1.331,0.337,2.462c0.585,4.365,1.02,6.74,2.102,9.92
				c1.196,3.514,2.928,6.759,5.321,9.561c-6.178,25.407,3.836,52.305,25.94,70.61c0.298,0.246,0.298,0.246,0.602,0.492
				c2.067,1.665,4.157,3.114,6.344,4.434c-5.928,21.891,15.461,43.84,38.758,35.569c1.066-0.375,2.443-0.541,6.877-0.718
				c5.941-0.237,8.89-0.488,13.12-1.416c7.37-1.617,14.08-4.868,20.207-10.138c9.067-7.803,12.967-13.32,18.147-23.348
				c0.569-1.097,0.747-1.434,1.016-1.919c1.292-2.332,2.394-3.612,5.644-6.004c3.909-3.038,6.58-6.243,8.169-11.54
				c0.269-0.74,3.346-8.821,3.757-9.935c1.38-3.743,2.492-7.017,3.446-10.257c6.367-21.622,5.391-39.094-13.206-49.142
				c0.146-0.023,0.061-0.447-0.501-1.953c-2.734-7.321-4.723-12.013-7.531-16.31c2.433-9.455-1.891-19.847-11.246-24.454
				l-11.494-5.66c-5.529-8.6-11.897-16.624-19.006-23.954c7.402-7.881,14.806-13.04,24.951-17.576
				C390.892,146.962,416,187.879,416,234.667C416,305.359,358.693,362.667,288,362.667z"/>
			<path d="M213.067,198.345c-0.033-0.013-0.064-0.026-0.097-0.039C212.784,198.235,212.79,198.238,213.067,198.345z"/>
		</g>
	</g>
</g>
<g>
</g>
<g>
</g>
<g>
</g>
<g>
</g>
<g>
</g>
<g>
</g>
<g>
</g>
<g>
</g>
<g>
</g>
<g>
</g>
<g>
</g>
<g>
</g>
<g>
</g>
<g>
</g>
<g>
</g>
</svg>
