<?xml version="1.0" encoding="iso-8859-1"?>
<!-- Generator: Adobe Illustrator 19.0.0, SVG Export Plug-In . SVG Version: 6.00 Build 0)  -->
<svg version="1.1" id="Layer_1" xmlns="http://www.w3.org/2000/svg" xmlns:xlink="http://www.w3.org/1999/xlink" x="0px" y="0px"
	 viewBox="0 0 512 512" style="enable-background:new 0 0 512 512;" xml:space="preserve">
<rect style="fill:#F2B851;" width="512" height="512"/>
<g>
	<path style="fill:#FFFFFF;" d="M74.952,237.48L49.128,132h20.504l10.016,47.88c2.656,12.832,5.168,26.296,6.88,36.784h0.312
		c1.72-11.112,4.696-23.632,7.672-36.936L105.936,132h20.184l10.488,48.512c2.656,12.512,4.848,24.248,6.416,35.68h0.312
		c1.88-11.584,4.384-23.632,7.2-36.472l10.952-47.728h19.56l-28.328,105.48h-20.656l-10.952-49.608
		c-2.664-12.048-4.536-22.064-5.792-33.496h-0.312c-1.88,11.272-3.912,21.448-7.048,33.496l-12.2,49.608H74.952V237.48z"/>
	<path style="fill:#FFFFFF;" d="M212.504,237.48L186.68,132h20.504l10.016,47.88c2.656,12.832,5.168,26.296,6.88,36.784h0.312
		c1.72-11.112,4.696-23.632,7.672-36.936L243.488,132h20.184l10.488,48.512c2.656,12.512,4.848,24.248,6.416,35.68h0.312
		c1.88-11.584,4.384-23.632,7.2-36.472l10.952-47.728h19.56l-28.328,105.48h-20.656l-10.952-49.608
		c-2.664-12.048-4.536-22.064-5.792-33.496h-0.312c-1.88,11.272-3.912,21.448-7.048,33.496l-12.2,49.608h-20.808V237.48z"/>
	<path style="fill:#FFFFFF;" d="M350.064,237.48L324.232,132h20.504l10.016,47.88c2.656,12.832,5.168,26.296,6.88,36.784h0.312
		c1.72-11.112,4.696-23.632,7.672-36.936L381.04,132h20.184l10.488,48.512c2.656,12.512,4.848,24.248,6.416,35.68h0.312
		c1.88-11.584,4.384-23.632,7.2-36.472l10.952-47.728h19.56l-28.328,105.48h-20.656l-10.952-49.608
		c-2.664-12.048-4.536-22.064-5.792-33.496h-0.312c-1.88,11.272-3.912,21.448-7.048,33.496l-12.2,49.608h-20.8V237.48z"/>
</g>
<rect x="355.695" y="345.221" transform="matrix(-0.7071 -0.7071 0.7071 -0.7071 428.257 907.5027)" width="92.767" height="39.672"/>
<polygon points="342.176,392.12 427.736,306.568 324.16,288.552 "/>
<g>
</g>
<g>
</g>
<g>
</g>
<g>
</g>
<g>
</g>
<g>
</g>
<g>
</g>
<g>
</g>
<g>
</g>
<g>
</g>
<g>
</g>
<g>
</g>
<g>
</g>
<g>
</g>
<g>
</g>
</svg>
