<?xml version="1.0" encoding="iso-8859-1"?>
<!-- Generator: Adobe Illustrator 19.0.0, SVG Export Plug-In . SVG Version: 6.00 Build 0)  -->
<svg version="1.1" id="Layer_1" xmlns="http://www.w3.org/2000/svg" xmlns:xlink="http://www.w3.org/1999/xlink" x="0px" y="0px"
	 viewBox="0 0 511.999 511.999" style="enable-background:new 0 0 511.999 511.999;" xml:space="preserve">
<polygon style="fill:#00B4D7;" points="499.107,344.125 432.252,410.98 255.999,234.727 79.747,410.98 12.892,344.125 
	255.999,101.018 "/>
<polygon style="fill:#0093C4;" points="255.999,234.727 432.252,410.98 468.718,374.514 255.999,161.795 43.28,374.514 
	79.747,410.98 "/>
<path d="M432.252,423.873L255.999,247.62L79.747,423.873L0,344.125L255.999,88.126l255.999,255.999L432.252,423.873z
	 M255.999,221.835l176.253,176.253l53.963-53.963L255.999,113.911L25.785,344.125l53.961,53.963L255.999,221.835z"/>
<rect x="284.268" y="271.192" transform="matrix(-0.7071 -0.7071 0.7071 -0.7071 441.1291 743.3391)" style="fill:#FFFFFF;" width="180.493" height="18.233"/>
<g>
</g>
<g>
</g>
<g>
</g>
<g>
</g>
<g>
</g>
<g>
</g>
<g>
</g>
<g>
</g>
<g>
</g>
<g>
</g>
<g>
</g>
<g>
</g>
<g>
</g>
<g>
</g>
<g>
</g>
</svg>
