<?xml version="1.0" encoding="iso-8859-1"?>
<!-- Generator: Adobe Illustrator 19.0.0, SVG Export Plug-In . SVG Version: 6.00 Build 0)  -->
<svg version="1.1" id="Layer_1" xmlns="http://www.w3.org/2000/svg" xmlns:xlink="http://www.w3.org/1999/xlink" x="0px" y="0px"
	 viewBox="0 0 512 512" style="enable-background:new 0 0 512 512;" xml:space="preserve">
<polygon style="fill:#00B4D7;" points="258.812,379.715 258.812,458.443 84.486,458.443 84.486,194.143 17.005,194.143 
	123.85,53.557 230.695,194.143 163.214,194.143 163.214,379.715 "/>
<polygon style="fill:#0093C4;" points="123.85,419.079 123.85,53.557 17.005,194.143 84.486,194.143 84.486,458.443 
	258.812,458.443 258.812,419.079 "/>
<path d="M267.247,466.878H76.051v-264.3H0L123.85,39.617L247.7,202.578h-76.051V371.28h95.598V466.878z M92.921,450.008h157.455
	V388.15h-95.598V185.707h58.911l-89.84-118.21l-89.84,118.21h58.911V450.008z"/>
<rect x="95.734" y="103.033" transform="matrix(-0.7894 -0.6139 0.6139 -0.7894 103.4564 305.6768)" style="fill:#FFFFFF;" width="16.869" height="64.114"/>
<polygon style="fill:#00B4D7;" points="253.188,132.285 253.188,53.557 427.514,53.557 427.514,317.857 494.995,317.857 
	388.15,458.443 281.305,317.857 348.786,317.857 348.786,132.285 "/>
<polygon style="fill:#0093C4;" points="388.15,92.921 388.15,458.443 494.995,317.857 427.514,317.857 427.514,53.557 
	253.188,53.557 253.188,92.921 "/>
<path d="M388.15,472.383L264.3,309.422h76.051V140.72h-95.598V45.122h191.196v264.3H512L388.15,472.383z M298.311,326.293
	l89.84,118.21l89.84-118.21h-58.911v-264.3H261.623v61.857h95.598v202.443H298.311z"/>
<rect x="399.389" y="344.809" transform="matrix(-0.7894 -0.6139 0.6139 -0.7894 498.3673 924.725)" style="fill:#FFFFFF;" width="16.869" height="64.114"/>
<g>
</g>
<g>
</g>
<g>
</g>
<g>
</g>
<g>
</g>
<g>
</g>
<g>
</g>
<g>
</g>
<g>
</g>
<g>
</g>
<g>
</g>
<g>
</g>
<g>
</g>
<g>
</g>
<g>
</g>
</svg>
