<?xml version="1.0" encoding="iso-8859-1"?>
<!-- Generator: Adobe Illustrator 19.0.0, SVG Export Plug-In . SVG Version: 6.00 Build 0)  -->
<svg version="1.1" id="Layer_1" xmlns="http://www.w3.org/2000/svg" xmlns:xlink="http://www.w3.org/1999/xlink" x="0px" y="0px"
	 viewBox="0 0 512 512" style="enable-background:new 0 0 512 512;" xml:space="preserve">
<g>
	<g>
		<path d="M459.908,192.568h-81.451v0v136.349H81.016v47.399h32.632c11.315-18.068,31.388-30.117,54.233-30.117
			c22.845,0,42.92,12.048,54.233,30.117h157.365c11.314-18.068,31.388-30.117,54.233-30.117s42.92,12.048,54.233,30.117H512v-99.018
			L459.908,192.568z M408.903,270.147v-47.133h33.982l28.978,47.133H408.903z"/>
	</g>
</g>
<g>
	<g>
		<path d="M128.207,129.541c-0.014-0.32-0.037-0.638-0.056-0.958c-0.041-0.672-0.091-1.34-0.153-2.005
			c-0.034-0.36-0.066-0.72-0.106-1.079c-0.074-0.675-0.161-1.344-0.256-2.012c-0.044-0.306-0.078-0.614-0.126-0.918
			c-0.141-0.902-0.303-1.798-0.482-2.688c-0.078-0.388-0.169-0.773-0.253-1.159c-0.122-0.553-0.247-1.105-0.382-1.653
			c-0.103-0.413-0.21-0.826-0.321-1.237c-0.147-0.549-0.304-1.093-0.465-1.636c-0.109-0.366-0.215-0.731-0.331-1.095
			c-8.243-25.911-32.527-44.737-61.133-44.737C28.774,68.365,0,97.138,0,132.505c0,28.613,18.835,52.903,44.755,61.139
			c0.346,0.11,0.695,0.211,1.043,0.315c0.559,0.167,1.121,0.328,1.685,0.479c0.403,0.109,0.807,0.214,1.211,0.315
			c0.555,0.138,1.114,0.264,1.675,0.387c0.381,0.083,0.761,0.173,1.143,0.25c0.891,0.179,1.788,0.341,2.692,0.482
			c0.305,0.048,0.612,0.083,0.917,0.126c0.668,0.094,1.338,0.183,2.012,0.257c0.36,0.04,0.72,0.072,1.081,0.106
			c0.665,0.061,1.333,0.112,2.003,0.152c0.319,0.019,0.639,0.042,0.959,0.056c0.982,0.045,1.969,0.075,2.963,0.075
			c35.368,0,64.141-28.774,64.141-64.14C128.282,131.511,128.252,130.524,128.207,129.541z M109.814,147.743H48.902V86.832h30.476
			v30.436h30.436V147.743z"/>
	</g>
</g>
<g>
	<g>
		<path d="M158.311,123.299c0.298,3.053,0.447,6.125,0.447,9.207c0,52.171-42.445,94.616-94.617,94.616
			c-3.082,0-6.153-0.149-9.206-0.446v71.766h293.047v-136.35v-38.793H158.311z"/>
	</g>
</g>
<g>
	<g>
		<circle cx="167.883" cy="410.158" r="33.479"/>
	</g>
</g>
<g>
	<g>
		<circle cx="433.717" cy="410.158" r="33.479"/>
	</g>
</g>
<g>
</g>
<g>
</g>
<g>
</g>
<g>
</g>
<g>
</g>
<g>
</g>
<g>
</g>
<g>
</g>
<g>
</g>
<g>
</g>
<g>
</g>
<g>
</g>
<g>
</g>
<g>
</g>
<g>
</g>
</svg>
