<?xml version="1.0" encoding="iso-8859-1"?>
<!-- Generator: Adobe Illustrator 19.0.0, SVG Export Plug-In . SVG Version: 6.00 Build 0)  -->
<svg version="1.1" id="Layer_1" xmlns="http://www.w3.org/2000/svg" xmlns:xlink="http://www.w3.org/1999/xlink" x="0px" y="0px"
	 viewBox="0 0 512 512" style="enable-background:new 0 0 512 512;" xml:space="preserve">
<g>
	<g>
		<path d="M482.837,97.887l-66.074-14.054c0-0.881,0.003-66.254-0.006-67.204C416.667,7.51,409.25,0,399.971,0H112.028
			c-9.23,0-16.793,7.511-16.793,16.793V83.94L29.189,97.881c-7.766,1.639-13.324,8.493-13.324,16.431v380.895
			c0,9.274,7.519,16.793,16.793,16.793h446.686c9.274,0,16.793-7.519,16.793-16.793V114.313
			C496.135,106.384,490.591,99.536,482.837,97.887z M238.948,265.941c5.178,5.177,8.88,10.097,17.052,10.097
			c8.073,0,11.697-4.74,17.052-10.097l24.975,115.524c-0.072,0.075-0.157,0.157-0.253,0.246l-40.849,37.77
			c-0.435,0.092-1.416,0.092-1.852,0l-40.849-37.77c-0.096-0.09-0.18-0.171-0.253-0.246L238.948,265.941z M230.944,210.44
			L256,185.384l25.056,25.056c-8.911,8.911-16.333,16.333-25.056,25.056L230.944,210.44z M279.699,161.341L383.178,57.448
			c0,18.367,0,28.229,0,44.045l-45.77,117.811L279.699,161.341z M359.373,33.585L256,136.754L152.626,33.585H359.373z
			 M128.821,57.448l103.48,103.892l-57.709,57.964l-45.771-117.811C128.821,83.843,128.821,75.009,128.821,57.448z M49.448,478.415
			V127.93l49.549-10.458c1.974,5.08,46.836,120.55,53.635,138.051c4.416,11.365,19.063,14.294,27.553,5.767l26.996-27.115
			l3.513,3.513l-30.023,138.876c-0.092,0.421-0.166,0.846-0.225,1.274c-1.418,10.372,2.583,20.773,10.977,28.534l41.498,38.369
			c12.14,11.224,34.031,11.21,46.156,0l41.496-38.369c8.395-7.762,12.396-18.162,10.978-28.535
			c-0.058-0.428-0.132-0.852-0.224-1.274l-30.023-138.876l3.513-3.513l26.996,27.115c8.541,8.58,23.16,5.542,27.552-5.767
			l53.669-138.145l49.513,10.531v350.507H49.448z"/>
	</g>
</g>
<g>
</g>
<g>
</g>
<g>
</g>
<g>
</g>
<g>
</g>
<g>
</g>
<g>
</g>
<g>
</g>
<g>
</g>
<g>
</g>
<g>
</g>
<g>
</g>
<g>
</g>
<g>
</g>
<g>
</g>
</svg>
