<?xml version="1.0" encoding="iso-8859-1"?>
<!-- Generator: Adobe Illustrator 19.0.0, SVG Export Plug-In . SVG Version: 6.00 Build 0)  -->
<svg version="1.1" id="Layer_1" xmlns="http://www.w3.org/2000/svg" xmlns:xlink="http://www.w3.org/1999/xlink" x="0px" y="0px"
	 viewBox="0 0 512.001 512.001" style="enable-background:new 0 0 512.001 512.001;" xml:space="preserve">
<g>
	<g>
		<path d="M505.668,250.904l-61.143-61.143l-61.145-61.143l-61.141-61.144L261.096,6.332C257.044,2.277,251.544,0,245.811,0
			s-11.232,2.277-15.285,6.332l-81.525,81.523L87.856,149l-71.334,71.334c-4.054,4.054-6.332,9.552-6.332,15.285
			s2.277,11.232,6.332,15.285l76.43,76.429L6.333,413.954c-8.442,8.441-8.442,22.128,0,30.571l61.143,61.144
			c4.054,4.055,9.552,6.332,15.285,6.332c5.733,0,11.232-2.277,15.286-6.332l86.619-86.619l76.43,76.429
			c4.054,4.055,9.552,6.332,15.286,6.332c5.734,0,11.232-2.277,15.285-6.332l71.332-71.333l61.145-61.144l81.523-81.525
			C514.111,273.033,514.111,259.345,505.668,250.904z M398.669,205.048L347.715,256l-30.571-30.573l50.952-50.951L398.669,205.048z
			 M337.524,143.905l-50.951,50.951L256,164.283l50.952-50.951L337.524,143.905z M245.811,52.189l30.571,30.573l-50.952,50.952
			l-28.386-28.386l-2.185-2.185L245.811,52.189z M276.383,449.621l-76.43-76.429c-8.441-8.441-22.129-8.441-30.571,0L82.76,459.811
			l-30.571-30.573l86.619-86.618c4.055-4.054,6.332-9.552,6.332-15.286c0-5.734-2.277-11.232-6.332-15.285l-76.43-76.429
			l40.763-40.763l107,107.002l107,107L276.383,449.621z M347.713,378.288l-107-107l-107-107.002l30.574-30.573l45.856,45.858
			l61.143,61.144l61.143,61.143l45.859,45.858L347.713,378.288z M408.858,317.144l-30.573-30.573l50.955-50.952l30.571,30.571
			L408.858,317.144z"/>
	</g>
</g>
<g>
</g>
<g>
</g>
<g>
</g>
<g>
</g>
<g>
</g>
<g>
</g>
<g>
</g>
<g>
</g>
<g>
</g>
<g>
</g>
<g>
</g>
<g>
</g>
<g>
</g>
<g>
</g>
<g>
</g>
</svg>
