<?xml version="1.0" encoding="iso-8859-1"?>
<!-- Generator: Adobe Illustrator 19.0.0, SVG Export Plug-In . SVG Version: 6.00 Build 0)  -->
<svg version="1.1" id="Layer_1" xmlns="http://www.w3.org/2000/svg" xmlns:xlink="http://www.w3.org/1999/xlink" x="0px" y="0px"
	 viewBox="0 0 512 512" style="enable-background:new 0 0 512 512;" xml:space="preserve">
<g>
	<g>
		<path d="M473.213,372.363h-7.758V46.546h7.758c12.853,0,23.273-10.42,23.273-23.273C496.486,10.42,486.066,0,473.213,0h-31.03
			H69.818h-31.03C25.934,0,15.514,10.42,15.514,23.273c0,12.853,10.42,23.273,23.273,23.273h7.758v325.818h-7.758
			c-12.853,0-23.273,10.42-23.273,23.273v93.091c0,12.853,10.42,23.273,23.273,23.273h434.426c12.853,0,23.273-10.42,23.273-23.273
			v-93.091C496.486,382.783,486.066,372.363,473.213,372.363z M279.273,46.546H418.91v139.635H279.273V46.546z M279.273,232.726
			H418.91v139.637H279.273V232.726z M93.09,46.546h139.635v139.635H93.09V46.546z M93.09,232.726h139.637v139.637H93.09V232.726z
			 M449.94,465.454H62.06v-46.546h7.758h372.365h7.758V465.454z"/>
	</g>
</g>
<g>
</g>
<g>
</g>
<g>
</g>
<g>
</g>
<g>
</g>
<g>
</g>
<g>
</g>
<g>
</g>
<g>
</g>
<g>
</g>
<g>
</g>
<g>
</g>
<g>
</g>
<g>
</g>
<g>
</g>
</svg>
