<?xml version="1.0" encoding="iso-8859-1"?>
<!-- Generator: Adobe Illustrator 19.0.0, SVG Export Plug-In . SVG Version: 6.00 Build 0)  -->
<svg version="1.1" id="Layer_1" xmlns="http://www.w3.org/2000/svg" xmlns:xlink="http://www.w3.org/1999/xlink" x="0px" y="0px"
	 viewBox="0 0 511.998 511.998" style="enable-background:new 0 0 511.998 511.998;" xml:space="preserve">
<g>
	<g>
		<path d="M504.949,97.336l-90.32-90.32C410.137,2.524,404.046,0,397.692,0c-6.352,0-12.443,2.524-16.934,7.016l-67.742,67.74
			c-9.353,9.353-9.353,24.517,0,33.87l28.226,28.226L228.34,249.754l-67.742-67.742c-4.491-4.491-10.583-7.016-16.934-7.016
			c-6.353,0-12.443,2.523-16.934,7.016l-84.676,84.676c-56.029,56.027-56.029,147.192,0,203.222
			c27.142,27.142,63.228,42.088,101.612,42.088s74.469-14.946,101.61-42.088l84.676-84.676c9.353-9.353,9.353-24.517,0-33.87
			l-67.742-67.742L375.112,170.72l28.226,28.226c4.677,4.677,10.805,7.016,16.934,7.016c6.128,0,12.259-2.339,16.936-7.016
			l67.742-67.74c4.491-4.491,7.016-10.583,7.016-16.934C511.964,107.92,509.442,101.827,504.949,97.336z M279.146,368.3
			l-67.74,67.74c-18.095,18.093-42.152,28.06-67.74,28.06c-25.59,0-49.647-9.965-67.74-28.058
			c-37.352-37.354-37.352-98.131,0-135.484l67.74-67.74l50.806,50.806l-45.16,45.16c-9.353,9.353-9.353,24.517,0,33.87
			c4.677,4.677,10.806,7.016,16.934,7.016c6.13,0,12.259-2.338,16.934-7.016l45.16-45.16L279.146,368.3z M420.272,148.142
			l-56.45-56.45l33.87-33.87l56.45,56.45L420.272,148.142z"/>
	</g>
</g>
<g>
</g>
<g>
</g>
<g>
</g>
<g>
</g>
<g>
</g>
<g>
</g>
<g>
</g>
<g>
</g>
<g>
</g>
<g>
</g>
<g>
</g>
<g>
</g>
<g>
</g>
<g>
</g>
<g>
</g>
</svg>
