<?xml version="1.0" encoding="iso-8859-1"?>
<!-- Generator: Adobe Illustrator 19.0.0, SVG Export Plug-In . SVG Version: 6.00 Build 0)  -->
<svg version="1.1" id="Layer_1" xmlns="http://www.w3.org/2000/svg" xmlns:xlink="http://www.w3.org/1999/xlink" x="0px" y="0px"
	 viewBox="0 0 512 512" style="enable-background:new 0 0 512 512;" xml:space="preserve">
<circle style="fill:#C1321F;" cx="256" cy="256" r="256"/>
<path style="fill:#A82116;" d="M249.249,460.462l48.183,48.183c111.98-18.225,199.558-109.087,212.811-222.658L339.125,114.869
	l-47.402,53.51l-53.51-53.51l-9.221,38.846l27.87,54.015v66.582L249.249,460.462z"/>
<path style="fill:#F9B54C;" d="M256,463.731c-4.761,0-8.62-3.858-8.62-8.62V227.556c0-4.761,3.858-8.62,8.62-8.62
	c4.761,0,8.62,3.858,8.62,8.62v227.556C264.62,459.873,260.76,463.731,256,463.731z"/>
<path style="fill:#F4A200;" d="M256,218.936c4.761,0,8.62,3.858,8.62,8.62v227.556c0,4.761-3.858,8.62-8.62,8.62V218.936z"/>
<path style="fill:#F4E3C3;" d="M155.088,153.302c0-27.863,22.59-50.452,50.455-50.452S256,125.438,256,153.302
	c0-27.863,22.59-50.452,50.455-50.452c27.865,0,50.455,22.588,50.455,50.452c0,48.244-100.911,105.95-100.911,105.95
	S155.088,204.264,155.088,153.302z"/>
<path style="fill:#FED8B2;" d="M256,153.302c0-27.863,22.59-50.452,50.455-50.452c27.865,0,50.455,22.588,50.455,50.452
	c0,48.244-100.911,105.95-100.911,105.95L256,153.302L256,153.302z"/>
<path style="fill:#FF9B8A;" d="M178.424,159.718c0-21.42,17.367-38.784,38.788-38.784S256,138.299,256,159.718
	c0-21.42,17.367-38.784,38.788-38.784s38.788,17.365,38.788,38.784c0,37.088-77.576,81.449-77.576,81.449
	S178.424,198.896,178.424,159.718z"/>
<path style="fill:#FC6F58;" d="M256,159.718c0-21.42,17.367-38.784,38.788-38.784s38.788,17.365,38.788,38.784
	c0,37.088-77.576,81.449-77.576,81.449V159.718z"/>
<path style="fill:#FF6472;" d="M207.731,167.777c0-13.328,10.805-24.133,24.135-24.133S256,154.45,256,167.777
	c0-13.328,10.805-24.133,24.135-24.133s24.135,10.805,24.135,24.133c0,23.076-48.269,50.679-48.269,50.679
	S207.731,192.153,207.731,167.777z"/>
<path style="fill:#C75163;" d="M256,167.777c0-13.328,10.805-24.133,24.135-24.133s24.135,10.805,24.135,24.133
	c0,23.076-48.269,50.679-48.269,50.679V167.777z"/>
<g>
</g>
<g>
</g>
<g>
</g>
<g>
</g>
<g>
</g>
<g>
</g>
<g>
</g>
<g>
</g>
<g>
</g>
<g>
</g>
<g>
</g>
<g>
</g>
<g>
</g>
<g>
</g>
<g>
</g>
</svg>
