<?xml version="1.0" encoding="iso-8859-1"?>
<!-- Generator: Adobe Illustrator 19.0.0, SVG Export Plug-In . SVG Version: 6.00 Build 0)  -->
<svg version="1.1" id="Layer_1" xmlns="http://www.w3.org/2000/svg" xmlns:xlink="http://www.w3.org/1999/xlink" x="0px" y="0px"
	 viewBox="0 0 159.795 159.795" style="enable-background:new 0 0 159.795 159.795;" xml:space="preserve">
<g>
	<g>
		<polygon style="fill:#00D933;" points="96.951,26.776 80.045,26.776 80.045,31.153 80.045,35.528 96.951,35.528 94.156,31.153 		
			"/>
		<path style="fill:#0060FA;" d="M80.884,47.475c0,0.306-0.442,0.553-0.987,0.553l0,0c-0.545,0-0.986-0.247-0.986-0.553V24.022
			c0-0.306,0.442-0.553,0.986-0.553l0,0c0.545,0,0.987,0.247,0.987,0.553V47.475z"/>
		<g>
			<rect x="43.544" y="92.421" style="fill:#0C8228;" width="72.708" height="28.612"/>
			<polygon style="fill:#FFFF00;" points="110.023,68.086 110.023,68.024 79.897,42.114 49.772,68.024 49.772,68.086 			"/>
			<polygon style="fill:#00D933;" points="59.821,68.086 79.897,50.819 99.974,68.086 			"/>
			<rect x="54.562" y="68.007" style="fill:#00D933;" width="50.671" height="53.026"/>
			<rect x="54.562" y="112.575" style="fill:#0060FA;" width="50.671" height="8.458"/>
			<rect x="49.56" y="68.007" style="fill:#0060FA;" width="60.676" height="7.132"/>
			<rect x="72.657" y="103.412" style="fill:#FFFF00;" width="14.482" height="17.621"/>
			<rect x="78.998" y="103.412" style="fill:#0C8228;" width="1.799" height="17.621"/>
			<g>
				<rect x="59.812" y="80.695" style="fill:#FFFFFF;" width="8.664" height="17.914"/>
				<rect x="59.812" y="88.54" style="fill:#0060FA;" width="8.664" height="2.225"/>
			</g>
			<g>
				<rect x="75.566" y="80.695" style="fill:#FFFFFF;" width="8.664" height="17.914"/>
				<rect x="75.566" y="88.54" style="fill:#0060FA;" width="8.664" height="2.225"/>
			</g>
			<g>
				<rect x="91.32" y="80.695" style="fill:#FFFFFF;" width="8.664" height="17.914"/>
				<rect x="91.32" y="88.54" style="fill:#0060FA;" width="8.664" height="2.225"/>
			</g>
			<rect y="121.033" style="fill:#0060FA;" width="159.795" height="10.205"/>
			<g>
				<g>
					<rect x="53.412" y="122.431" style="fill:#00D933;" width="52.972" height="3.728"/>
					<rect x="53.412" y="121.033" style="fill:#FFFF00;" width="52.972" height="1.398"/>
				</g>
				<g>
					<rect x="40.213" y="127.516" style="fill:#00D933;" width="79.37" height="3.728"/>
					<rect x="40.213" y="126.118" style="fill:#FFFF00;" width="79.37" height="1.397"/>
				</g>
				<g>
					<rect x="27.726" y="132.598" style="fill:#00D933;" width="104.344" height="3.728"/>
					<rect x="27.726" y="131.2" style="fill:#FFFF00;" width="104.344" height="1.398"/>
				</g>
			</g>
			<g>
				<rect x="6.946" y="56.63" style="fill:#00D933;" width="40.623" height="64.403"/>
				<g>
					<rect x="12.188" y="62.639" style="fill:#FFFFFF;" width="30.139" height="9.346"/>
					<rect x="25.386" y="62.639" style="fill:#0060FA;" width="3.743" height="9.346"/>
				</g>
				<g>
					<rect x="12.188" y="77.763" style="fill:#FFFFFF;" width="30.139" height="9.347"/>
					<rect x="25.386" y="77.763" style="fill:#0060FA;" width="3.743" height="9.347"/>
				</g>
				<g>
					<g>
						<g>
							<rect x="12.191" y="93.005" style="fill:#FFFF00;" width="6.86" height="7.049"/>
						</g>
					</g>
					<g>
						<g>
							<rect x="23.829" y="93.005" style="fill:#FFFF00;" width="6.86" height="7.049"/>
						</g>
					</g>
					<g>
						<g>
							<rect x="35.466" y="93.005" style="fill:#FFFF00;" width="6.86" height="7.049"/>
						</g>
					</g>
				</g>
				<g>
					<g>
						<g>
							<rect x="12.191" y="105.26" style="fill:#FFFF00;" width="6.86" height="7.049"/>
						</g>
					</g>
					<g>
						<g>
							<rect x="23.829" y="105.26" style="fill:#FFFF00;" width="6.86" height="7.049"/>
						</g>
					</g>
					<g>
						<g>
							<rect x="35.466" y="105.26" style="fill:#FFFF00;" width="6.86" height="7.049"/>
						</g>
					</g>
				</g>
			</g>
			<g>
				<rect x="112.227" y="56.63" style="fill:#00D933;" width="40.623" height="64.403"/>
				<g>
					<rect x="117.469" y="62.639" style="fill:#FFFFFF;" width="30.139" height="9.346"/>
					<rect x="130.666" y="62.639" style="fill:#0060FA;" width="3.743" height="9.346"/>
				</g>
				<g>
					<rect x="117.469" y="77.763" style="fill:#FFFFFF;" width="30.139" height="9.347"/>
					<rect x="130.666" y="77.763" style="fill:#0060FA;" width="3.743" height="9.347"/>
				</g>
				<g>
					<g>
						<g>
							<rect x="117.472" y="93.005" style="fill:#FFFF00;" width="6.86" height="7.049"/>
						</g>
					</g>
					<g>
						<g>
							<rect x="129.109" y="93.005" style="fill:#FFFF00;" width="6.861" height="7.049"/>
						</g>
					</g>
					<g>
						<g>
							<rect x="140.747" y="93.005" style="fill:#FFFF00;" width="6.86" height="7.049"/>
						</g>
					</g>
				</g>
				<g>
					<g>
						<g>
							<rect x="117.472" y="105.26" style="fill:#FFFF00;" width="6.86" height="7.049"/>
						</g>
					</g>
					<g>
						<g>
							<rect x="129.109" y="105.26" style="fill:#FFFF00;" width="6.861" height="7.049"/>
						</g>
					</g>
					<g>
						<g>
							<rect x="140.747" y="105.26" style="fill:#FFFF00;" width="6.86" height="7.049"/>
						</g>
					</g>
				</g>
			</g>
		</g>
	</g>
	<polygon style="opacity:0.2;fill:#FFFFFF;enable-background:new    ;" points="27.726,136.326 79.897,136.326 79.897,42.114 
		49.792,68.007 49.56,68.007 49.56,75.139 54.562,75.139 54.562,92.421 47.569,92.421 47.569,56.63 6.946,56.63 6.946,121.033 
		0,121.033 0,131.238 27.726,131.238 27.726,132.598 	"/>
</g>
<g>
</g>
<g>
</g>
<g>
</g>
<g>
</g>
<g>
</g>
<g>
</g>
<g>
</g>
<g>
</g>
<g>
</g>
<g>
</g>
<g>
</g>
<g>
</g>
<g>
</g>
<g>
</g>
<g>
</g>
</svg>
