<?xml version="1.0" encoding="iso-8859-1"?>
<!-- Generator: Adobe Illustrator 17.1.0, SVG Export Plug-In . SVG Version: 6.00 Build 0)  -->
<!DOCTYPE svg PUBLIC "-//W3C//DTD SVG 1.1//EN" "http://www.w3.org/Graphics/SVG/1.1/DTD/svg11.dtd">
<svg version="1.1" id="Capa_1" xmlns="http://www.w3.org/2000/svg" xmlns:xlink="http://www.w3.org/1999/xlink" x="0px" y="0px"
	 viewBox="0 0 294.417 294.417" style="enable-background:new 0 0 294.417 294.417;" xml:space="preserve">
<path d="M294.167,164.378c0-0.156,0.156-0.31,0.155-0.466c0.001-0.152,0.095-0.302,0.095-0.454c0-31.017-25.192-56.25-56.208-56.25
	c-11.552,0-22.257,3.504-31.2,9.5h-2.841v-12.583c0-16.221-12.863-29.417-29.083-29.417h-55.167
	c-16.221,0-29.75,13.196-29.75,29.417v12.583h-2.675c-8.943-5.996-19.69-9.5-31.242-9.5c-31.017,0-56.25,25.233-56.25,56.25
	s25.233,56.25,56.25,56.25c9.836,0,19.087-2.545,27.139-7h127.721c8.053,4.455,17.303,7,27.139,7
	c24.354,0,44.968-15.56,52.776-37.257c2.126-5.398,3.141-11.268,3.141-17.412V164.378z M82.5,163.458
	c0,14.475-11.775,26.25-26.25,26.25S30,177.933,30,163.458s11.775-26.25,26.25-26.25S82.5,148.984,82.5,163.458z M173.167,154.708
	v18h-51v-18H173.167z M264.5,163.458c0,14.475-11.775,26.25-26.25,26.25S212,177.933,212,163.458s11.775-26.25,26.25-26.25
	S264.5,148.984,264.5,163.458z M105.167,104.125c0-7.949,6.801-14.417,14.75-14.417h55.167c7.949,0,14.083,6.468,14.083,14.417
	v12.583h-84V104.125z"/>
<g>
</g>
<g>
</g>
<g>
</g>
<g>
</g>
<g>
</g>
<g>
</g>
<g>
</g>
<g>
</g>
<g>
</g>
<g>
</g>
<g>
</g>
<g>
</g>
<g>
</g>
<g>
</g>
<g>
</g>
</svg>
