<?xml version="1.0" encoding="iso-8859-1"?>
<!-- Generator: Adobe Illustrator 19.0.0, SVG Export Plug-In . SVG Version: 6.00 Build 0)  -->
<svg version="1.1" id="Layer_1" xmlns="http://www.w3.org/2000/svg" xmlns:xlink="http://www.w3.org/1999/xlink" x="0px" y="0px"
	 viewBox="0 0 512 512" style="enable-background:new 0 0 512 512;" xml:space="preserve">
<g>
	<g>
		<path d="M469.199,278.033C465.79,138.056,390.164,53.333,256,53.333C114.831,53.333,21.333,146.831,21.333,288
			c0,2.249,0.353,4.415,0.998,6.45C8.463,309.624,0,329.821,0,352c0,47.131,38.202,85.333,85.333,85.333
			c1.264,0,2.495-0.131,3.698-0.342c14.249,13.429,33.438,21.675,54.568,21.675H156.1c19.825,0,35.904-16.079,35.904-35.904V281.237
			c0-19.825-16.079-35.904-35.904-35.904h-12.501c-21.13,0-40.319,8.246-54.568,21.675c-1.203-0.211-2.434-0.342-3.698-0.342
			c-7.128,0-14.046,0.887-20.664,2.533C72.237,162.528,144.794,96,256,96c105.549,0,163.571,60.491,170.05,170.698
			c-1.048,0.03-2.076,0.134-3.081,0.31c-14.249-13.429-33.438-21.675-54.568-21.675H355.9c-19.825,0-35.904,16.079-35.904,35.904
			v141.525c0,19.825,16.079,35.904,35.904,35.904h12.501c21.13,0,40.319-8.246,54.568-21.675c1.203,0.211,2.434,0.342,3.698,0.342
			C473.798,437.333,512,399.131,512,352C512,320.362,494.773,292.769,469.199,278.033z M64,388.96
			c-12.754-7.376-21.333-21.165-21.333-36.96S51.246,322.416,64,315.04V388.96z M106.671,324.928
			c0-20.397,16.527-36.928,36.928-36.928h5.739v128h-5.739c-20.401,0-36.928-16.531-36.928-36.928V324.928z M405.329,379.072
			c0,20.397-16.527,36.928-36.928,36.928h-5.739V288h5.739c20.401,0,36.928,16.531,36.928,36.928V379.072z M448,388.96v-73.92
			c12.754,7.376,21.333,21.165,21.333,36.96S460.754,381.584,448,388.96z"/>
	</g>
</g>
<g>
</g>
<g>
</g>
<g>
</g>
<g>
</g>
<g>
</g>
<g>
</g>
<g>
</g>
<g>
</g>
<g>
</g>
<g>
</g>
<g>
</g>
<g>
</g>
<g>
</g>
<g>
</g>
<g>
</g>
</svg>
