<?xml version="1.0" encoding="iso-8859-1"?>
<!-- Generator: Adobe Illustrator 19.0.0, SVG Export Plug-In . SVG Version: 6.00 Build 0)  -->
<svg version="1.1" id="Layer_1" xmlns="http://www.w3.org/2000/svg" xmlns:xlink="http://www.w3.org/1999/xlink" x="0px" y="0px"
	 viewBox="0 0 512 512" style="enable-background:new 0 0 512 512;" xml:space="preserve">
<g>
	<g>
		<path d="M466.836,316.636c-16.064-2.682-20.073-4.409-20.073-14.091c0-6.782,2.463-9.318,4.282-10.636
			c8.418-6.082,28.636-2.7,39.382,0.855c4.882,1.6,10.164-1.027,11.773-5.909c1.618-4.873-1.586-10.136-6.459-11.755
			c-1.827-0.616-10.505-3.432-22.141-4.609v-13.327h-18.618v13.514c-4.655,0.907-10.718,2.771-15.355,6.114
			c-5.473,3.945-11.7,11.609-11.7,25.754c0,26.5,21.636,30.082,35.855,32.454c16.063,2.682,20.218,4.409,20.218,14.091
			c0,9.991-4.109,16.754-12.627,20.664c-11.191,5.155-24.646,2.945-27.282,0.682c-3.636-3.636-9.518-3.636-13.154,0
			c-3.636,3.636-3.632,9.873,0.004,13.509c5.127,5.136,14.814,8.2,25.195,8.2c0.002,0-1.155,0-1.155,0v13.964h18.618v0v-17.745
			c2.327-0.318,2.448-0.596,3.336-0.964c16.236-6.718,25.464-20.327,25.464-38.309C502.399,322.591,481.054,319.009,466.836,316.636
			z"/>
	</g>
</g>
<g>
	<g>
		<path d="M508.208,80.946c-4.109-3.055-9.973-2.173-13.009,1.973L366.013,258.241c-3.861-1.357-7.948-2.241-12.268-2.241
			c-9.045,0-17.236,3.368-23.695,8.75l-50.957-67.941c5.832-6.577,9.488-15.127,9.488-24.591c0-20.536-16.7-37.236-37.236-37.236
			c-20.536,0-37.236,16.7-37.236,37.236c0,9.493,3.677,18.073,9.546,24.657l-62.496,89.277c-3.845-1.348-7.913-1.643-12.214-1.643
			c-17.302,0-31.752,12.218-35.913,28.509h-67.65V13.964c0-5.145-4.164-9.309-9.309-9.309c-5.145,0-9.309,4.164-9.309,9.309v420.072
			H9.309C4.164,434.036,0,438.2,0,443.345c0,5.145,4.164,9.309,9.309,9.309h17.455v45.382c0,5.145,4.164,9.309,9.309,9.309
			c5.145,0,9.309-4.164,9.309-9.309v-45.382h448.09c5.145,0,9.309-4.164,9.309-9.309c0-5.145-4.164-9.309-9.309-9.309H45.382v-102.4
			h67.65c4.161,13.964,18.611,27.345,35.914,27.345c20.536,0,37.236-16.991,37.236-37.527c0-9.493-3.677-18.218-9.546-24.802
			l62.496-89.35c3.845,1.348,7.913,2.189,12.214,2.189c4.327,0,8.418-0.902,12.284-2.264l54.743,72.981
			c0.134,0.18,0.345,0.236,0.491,0.402c-1.441,3.961-2.354,8.175-2.354,12.627c0,20.536,16.7,37.234,37.236,37.234
			c20.536,0,37.236-16.7,37.236-37.236c0-9.473-3.664-18.032-9.507-24.609L510.181,93.955
			C513.236,89.819,512.354,83.991,508.208,80.946z M148.945,339.782c-10.264,0-18.618-8.354-18.618-18.618
			s8.354-18.618,18.618-18.618s18.618,8.354,18.618,18.618S159.209,339.782,148.945,339.782z M251.345,190.836
			c-10.264,0-18.618-8.354-18.618-18.618s8.354-18.618,18.618-18.618c10.264,0,18.618,8.354,18.618,18.618
			S261.609,190.836,251.345,190.836z M353.745,311.854c-10.264,0-18.618-8.354-18.618-18.618c0-10.264,8.354-18.618,18.618-18.618
			s18.618,8.354,18.618,18.618C372.363,303.5,364.009,311.854,353.745,311.854z"/>
	</g>
</g>
<g>
</g>
<g>
</g>
<g>
</g>
<g>
</g>
<g>
</g>
<g>
</g>
<g>
</g>
<g>
</g>
<g>
</g>
<g>
</g>
<g>
</g>
<g>
</g>
<g>
</g>
<g>
</g>
<g>
</g>
</svg>
