<?xml version="1.0" encoding="iso-8859-1"?>
<!-- Generator: Adobe Illustrator 19.0.0, SVG Export Plug-In . SVG Version: 6.00 Build 0)  -->
<svg version="1.1" id="Layer_1" xmlns="http://www.w3.org/2000/svg" xmlns:xlink="http://www.w3.org/1999/xlink" x="0px" y="0px"
	 viewBox="0 0 512 512" style="enable-background:new 0 0 512 512;" xml:space="preserve">
<g>
	<g>
		<circle cx="209.455" cy="174.545" r="11.636"/>
	</g>
</g>
<g>
	<g>
		<path d="M325.818,337.455H151.273c-6.423,0-11.636,5.201-11.636,11.636c0,6.435,5.213,11.636,11.636,11.636h174.545
			c6.423,0,11.636-5.201,11.636-11.636C337.455,342.656,332.241,337.455,325.818,337.455z"/>
	</g>
</g>
<g>
	<g>
		<path d="M453.818,384H302.545c-6.423,0-11.636,5.201-11.636,11.636c0,6.435,5.213,11.636,11.636,11.636h151.273
			c6.423,0,11.636-5.201,11.636-11.636C465.455,389.201,460.241,384,453.818,384z"/>
	</g>
</g>
<g>
	<g>
		<path d="M453.818,337.455h-81.455c-6.423,0-11.636,5.201-11.636,11.636c0,6.435,5.213,11.636,11.636,11.636h81.455
			c6.423,0,11.636-5.201,11.636-11.636C465.455,342.656,460.241,337.455,453.818,337.455z"/>
	</g>
</g>
<g>
	<g>
		<path d="M314.182,430.545H151.273c-6.423,0-11.636,5.201-11.636,11.636s5.213,11.636,11.636,11.636h162.909
			c6.423,0,11.636-5.201,11.636-11.636S320.605,430.545,314.182,430.545z"/>
	</g>
</g>
<g>
	<g>
		<path d="M256,384H151.273c-6.423,0-11.636,5.201-11.636,11.636c0,6.435,5.213,11.636,11.636,11.636H256
			c6.423,0,11.636-5.201,11.636-11.636C267.636,389.201,262.423,384,256,384z"/>
	</g>
</g>
<g>
	<g>
		<path d="M453.818,430.545h-93.091c-6.423,0-11.636,5.201-11.636,11.636s5.213,11.636,11.636,11.636h93.091
			c6.423,0,11.636-5.201,11.636-11.636S460.241,430.545,453.818,430.545z"/>
	</g>
</g>
<g>
	<g>
		<path d="M453.818,174.545h-93.091c-6.423,0-11.636,5.201-11.636,11.636s5.213,11.636,11.636,11.636h93.091
			c6.423,0,11.636-5.201,11.636-11.636S460.241,174.545,453.818,174.545z"/>
	</g>
</g>
<g>
	<g>
		<path d="M453.818,267.636h-93.091c-6.423,0-11.636,5.201-11.636,11.636c0,6.435,5.213,11.636,11.636,11.636h93.091
			c6.423,0,11.636-5.201,11.636-11.636C465.455,272.838,460.241,267.636,453.818,267.636z"/>
	</g>
</g>
<g>
	<g>
		<path d="M453.818,128h-93.091c-6.423,0-11.636,5.201-11.636,11.636c0,6.435,5.213,11.636,11.636,11.636h93.091
			c6.423,0,11.636-5.201,11.636-11.636C465.455,133.201,460.241,128,453.818,128z"/>
	</g>
</g>
<g>
	<g>
		<path d="M430.545,221.091h-69.818c-6.423,0-11.636,5.201-11.636,11.636c0,6.435,5.213,11.636,11.636,11.636h69.818
			c6.423,0,11.636-5.201,11.636-11.636C442.182,226.292,436.969,221.091,430.545,221.091z"/>
	</g>
</g>
<g>
	<g>
		<path d="M477.091,0H128c-19.247,0-34.909,15.663-34.909,34.909v418.909c0,19.247-15.663,34.909-34.909,34.909
			c-19.247,0-34.909-15.663-34.909-34.909V104.727c0-6.423,5.225-11.636,11.636-11.636c6.412,0,11.636,5.213,11.636,11.636v349.091
			c0,6.435,5.213,11.636,11.636,11.636s11.636-5.201,11.636-11.636V104.727c0-19.247-15.663-34.909-34.909-34.909
			C15.663,69.818,0,85.481,0,104.727v349.091C0,485.9,26.1,512,58.182,512c32.081,0,58.182-26.1,58.182-58.182V34.909
			c0-6.423,5.225-11.636,11.636-11.636h349.091c6.412,0,11.636,5.213,11.636,11.636v418.909c0,19.247-15.663,34.909-34.909,34.909
			H128c-6.423,0-11.636,5.201-11.636,11.636S121.577,512,128,512h325.818C485.9,512,512,485.9,512,453.818V34.909
			C512,15.663,496.337,0,477.091,0z"/>
	</g>
</g>
<g>
	<g>
		<path d="M349.091,58.182H256c-6.423,0-11.636,5.201-11.636,11.636c0,6.435,5.213,11.636,11.636,11.636h93.091
			c6.423,0,11.636-5.201,11.636-11.636C360.727,63.383,355.514,58.182,349.091,58.182z"/>
	</g>
</g>
<g>
	<g>
		<path d="M314.182,116.364H151.273c-6.423,0-11.636,5.201-11.636,11.636v81.455c0,6.435,5.213,11.636,11.636,11.636
			c6.423,0,11.636-5.201,11.636-11.636v-69.818h139.636v48.221c-6.423-5.271-14.557-8.18-23.121-7.924
			c-11.311,0.303-21.807,6.109-28.079,15.523l-21.841,32.768l-11.52-7.68c-12.311-8.192-28.497-7.75-40.32,1.117l-33.373,25.03
			c-2.932,2.199-4.655,5.655-4.655,9.309v34.909c0,6.435,5.213,11.636,11.636,11.636h162.909c6.423,0,11.636-5.201,11.636-11.636
			V128C325.818,121.565,320.605,116.364,314.182,116.364z M302.545,279.273H162.909v-17.455l28.719-21.551
			c3.945-2.956,9.344-3.095,13.44-0.361l21.213,14.138c5.329,3.561,12.567,2.118,16.14-3.223l28.3-42.449
			c2.118-3.177,5.539-5.073,9.356-5.167c3.875-0.035,7.331,1.594,9.635,4.643l12.835,17.117V279.273z"/>
	</g>
</g>
<g>
</g>
<g>
</g>
<g>
</g>
<g>
</g>
<g>
</g>
<g>
</g>
<g>
</g>
<g>
</g>
<g>
</g>
<g>
</g>
<g>
</g>
<g>
</g>
<g>
</g>
<g>
</g>
<g>
</g>
</svg>
