<?xml version="1.0" encoding="iso-8859-1"?>
<!-- Generator: Adobe Illustrator 19.0.0, SVG Export Plug-In . SVG Version: 6.00 Build 0)  -->
<svg version="1.1" id="Layer_1" xmlns="http://www.w3.org/2000/svg" xmlns:xlink="http://www.w3.org/1999/xlink" x="0px" y="0px"
	 viewBox="0 0 496 496" style="enable-background:new 0 0 496 496;" xml:space="preserve">
<g>
	<g>
		<g>
			<path d="M448,144v16h-16v-16h-56v-16h64c17.648,0,32-14.352,32-32V24h-49.016C419.432,10.208,406.88,0,392,0H152
				c-17.648,0-32,14.352-32,32v112H64v16H48v-16H0v192h48V176h16v320h368V224h16v16h48v-96H448z M424,40h32v56
				c0,8.824-7.176,16-16,16c-8.824,0-16-7.176-16-16V40z M376,32c0-8.824,7.176-16,16-16c8.824,0,16,7.176,16,16v64
				c0,5.856,1.696,11.272,4.448,16H376V32z M32,320H16V160h16V320z M136,32c0-8.824,7.176-16,16-16h212.448
				C361.696,20.728,360,26.144,360,32v144H136V32z M416,320h-40v16h40v144H80V336h280v-16H80v-96h80v24c0,22.056,17.944,40,40,40h96
				c22.056,0,40-17.944,40-40v-24h80V320z M416,208h-96v40c0,10.416-6.712,19.216-16,22.528V224h-16v48h-16v-48h-16v48h-16v-48h-16
				v48h-16v-48h-16v46.528c-9.288-3.312-16-12.112-16-22.528v-40H80v-48h40v16H96v16h304v-16h-24v-16h40V208z M448,208h-16v-32h16
				V208z M480,224h-16v-64h16V224z"/>
			<rect x="96" y="448" width="24" height="16"/>
			<rect x="136" y="448" width="24" height="16"/>
			<rect x="176" y="448" width="24" height="16"/>
			<rect x="216" y="448" width="24" height="16"/>
			<rect x="256" y="448" width="24" height="16"/>
			<rect x="296" y="448" width="24" height="16"/>
			<rect x="336" y="448" width="24" height="16"/>
			<rect x="376" y="448" width="24" height="16"/>
			<rect x="96" y="416" width="24" height="16"/>
			<rect x="136" y="416" width="24" height="16"/>
			<rect x="176" y="416" width="24" height="16"/>
			<rect x="216" y="416" width="24" height="16"/>
			<rect x="256" y="416" width="24" height="16"/>
			<rect x="296" y="416" width="24" height="16"/>
			<rect x="336" y="416" width="24" height="16"/>
			<rect x="376" y="416" width="24" height="16"/>
			<rect x="96" y="384" width="24" height="16"/>
			<rect x="136" y="384" width="24" height="16"/>
			<rect x="176" y="384" width="24" height="16"/>
			<rect x="216" y="384" width="24" height="16"/>
			<rect x="256" y="384" width="24" height="16"/>
			<rect x="296" y="384" width="24" height="16"/>
			<rect x="336" y="384" width="24" height="16"/>
			<rect x="376" y="384" width="24" height="16"/>
			<rect x="96" y="352" width="24" height="16"/>
			<rect x="136" y="352" width="24" height="16"/>
			<rect x="176" y="352" width="24" height="16"/>
			<rect x="216" y="352" width="24" height="16"/>
			<rect x="256" y="352" width="24" height="16"/>
			<rect x="296" y="352" width="24" height="16"/>
			<rect x="336" y="352" width="24" height="16"/>
			<rect x="376" y="352" width="24" height="16"/>
			<path d="M152,128h192V40H152V128z M168,56h160v56H168V56z"/>
			<rect x="152" y="144" width="192" height="16"/>
		</g>
	</g>
</g>
<g>
</g>
<g>
</g>
<g>
</g>
<g>
</g>
<g>
</g>
<g>
</g>
<g>
</g>
<g>
</g>
<g>
</g>
<g>
</g>
<g>
</g>
<g>
</g>
<g>
</g>
<g>
</g>
<g>
</g>
</svg>
