<?xml version="1.0" encoding="iso-8859-1"?>
<!-- Generator: Adobe Illustrator 19.0.0, SVG Export Plug-In . SVG Version: 6.00 Build 0)  -->
<svg version="1.1" id="Layer_1" xmlns="http://www.w3.org/2000/svg" xmlns:xlink="http://www.w3.org/1999/xlink" x="0px" y="0px"
	 viewBox="0 0 512 512" style="enable-background:new 0 0 512 512;" xml:space="preserve">
<g>
	<g>
		<path d="M501.504,259.196h-3c-0.436,0-2.508-3.224-2.508-3.172V150.08c0-6.004-3.64-10.884-9.648-10.884H347.48
			c-5.32,0-9.736,3.828-10.676,8.88c-0.94-5.052-5.348-8.88-10.672-8.88H187.256c-6.004,0-10.872,4.868-10.872,10.872
			c0-6.004-4.868-10.872-10.872-10.872H26.636c-6.008,0-10.636,4.876-10.636,10.884v106.024c0-0.132-1.608,3.092-2.32,3.092h-3
			c-5.872,0-10.68,1.46-10.68,7.332v28v13.128v51.54h20v9.608c0,2.208,1.788,4,4,4s4-1.792,4-4v-9.608h224v9.608
			c0,2.208,1.788,4,4,4c2.212,0,4-1.792,4-4v-9.608h224v9.608c0,2.208,1.788,4,4,4c2.212,0,4-1.792,4-4v-9.608h20v-50.952v-13.72
			v-28C512,260.656,507.376,259.196,501.504,259.196z M424.012,195.864l7.208-5.8c1.724-1.388,4.236-1.108,5.624,0.608
			c1.384,1.72,1.112,4.24-0.608,5.624l-7.208,5.8c-0.74,0.596-1.624,0.884-2.504,0.884c-1.168,0-2.328-0.508-3.12-1.492
			C422.02,199.768,422.292,197.248,424.012,195.864z M423.404,218.82c1.38-1.716,3.904-2,5.624-0.608l7.208,5.8
			c1.72,1.384,1.992,3.9,0.608,5.624c-0.788,0.98-1.948,1.492-3.12,1.492c-0.88,0-1.768-0.288-2.504-0.884l-7.208-5.796
			C422.292,223.06,422.02,220.544,423.404,218.82z M396.732,190.68c1.38-1.724,3.892-2,5.624-0.612l7.216,5.796
			c1.72,1.388,1.992,3.904,0.608,5.624c-0.792,0.984-1.948,1.496-3.12,1.496c-0.88,0-1.76-0.284-2.504-0.88l-7.216-5.796
			C395.62,194.916,395.348,192.4,396.732,190.68z M397.34,224.012l7.216-5.8c1.732-1.388,4.248-1.112,5.624,0.612
			c1.384,1.724,1.108,4.244-0.608,5.624l-7.216,5.796c-0.744,0.596-1.624,0.884-2.504,0.884c-1.168,0-2.332-0.512-3.12-1.492
			C395.348,227.912,395.62,225.392,397.34,224.012z M266.18,195.864l7.208-5.8c1.72-1.388,4.24-1.108,5.624,0.608
			c1.384,1.72,1.112,4.24-0.608,5.624l-7.208,5.8c-0.74,0.596-1.624,0.884-2.504,0.884c-1.168,0-2.328-0.508-3.12-1.492
			C264.188,199.768,264.46,197.248,266.18,195.864z M265.572,218.82c1.376-1.716,3.9-2,5.624-0.608l7.208,5.8
			c1.724,1.384,1.992,3.9,0.608,5.624c-0.792,0.98-1.948,1.492-3.12,1.492c-0.88,0-1.764-0.288-2.504-0.884l-7.208-5.796
			C264.46,223.06,264.188,220.544,265.572,218.82z M238.9,190.68c1.384-1.724,3.888-2,5.624-0.612l7.216,5.796
			c1.72,1.388,1.992,3.904,0.608,5.624c-0.788,0.984-1.948,1.496-3.12,1.496c-0.88,0-1.76-0.284-2.504-0.88l-7.216-5.796
			C237.792,194.916,237.516,192.4,238.9,190.68z M251.74,224.448l-7.216,5.796c-0.744,0.596-1.624,0.884-2.5,0.884
			c-1.172,0-2.332-0.512-3.12-1.492c-1.388-1.724-1.112-4.244,0.604-5.624l7.216-5.8c1.728-1.388,4.244-1.112,5.624,0.612
			C253.732,220.548,253.46,223.068,251.74,224.448z M103.3,195.864l7.208-5.8c1.724-1.388,4.236-1.108,5.624,0.608
			c1.384,1.72,1.112,4.24-0.608,5.624l-7.208,5.8c-0.736,0.596-1.624,0.884-2.5,0.884c-1.172,0-2.332-0.508-3.12-1.492
			C101.308,199.768,101.576,197.248,103.3,195.864z M102.688,218.82c1.38-1.716,3.904-2,5.624-0.608l7.208,5.8
			c1.724,1.384,1.992,3.9,0.608,5.624c-0.792,0.98-1.948,1.492-3.12,1.492c-0.88,0-1.764-0.288-2.504-0.884l-7.208-5.796
			C101.576,223.06,101.308,220.544,102.688,218.82z M76.016,190.68c1.38-1.724,3.892-2,5.624-0.612l7.216,5.796
			c1.72,1.388,1.992,3.904,0.608,5.624c-0.788,0.984-1.952,1.496-3.12,1.496c-0.88,0-1.76-0.284-2.504-0.88l-7.216-5.796
			C74.908,194.916,74.636,192.4,76.016,190.68z M88.86,224.448l-7.216,5.796c-0.74,0.596-1.624,0.884-2.5,0.884
			c-1.172,0-2.332-0.512-3.12-1.492c-1.388-1.724-1.116-4.244,0.604-5.624l7.216-5.8c1.732-1.388,4.248-1.112,5.624,0.612
			C90.852,220.548,90.576,223.068,88.86,224.448z M486.668,287.196H24.32c-2.212,0-4-1.788-4-4c0-2.208,1.788-4,4-4H172V170.604
			c0-2.208,1.788-4,4-4c2.212,0,4,1.792,4,4v108.592h152V170.604c0-2.208,1.788-4,4-4c2.212,0,4,1.792,4,4v108.592h146.668
			c2.212,0,4,1.792,4,4C490.668,285.408,488.876,287.196,486.668,287.196z"/>
	</g>
</g>
<g>
</g>
<g>
</g>
<g>
</g>
<g>
</g>
<g>
</g>
<g>
</g>
<g>
</g>
<g>
</g>
<g>
</g>
<g>
</g>
<g>
</g>
<g>
</g>
<g>
</g>
<g>
</g>
<g>
</g>
</svg>
