<?xml version="1.0" encoding="iso-8859-1"?>
<!-- Generator: Adobe Illustrator 19.0.0, SVG Export Plug-In . SVG Version: 6.00 Build 0)  -->
<svg version="1.1" id="Layer_1" xmlns="http://www.w3.org/2000/svg" xmlns:xlink="http://www.w3.org/1999/xlink" x="0px" y="0px"
	 viewBox="0 0 500 500" style="enable-background:new 0 0 500 500;" xml:space="preserve">
<g>
	<g>
		<path d="M226.6,0l1.064,21.116c0.064,0,0.116-1.116,0.188-1.116h32.14c0.032,0,0.056,1.092,0.084,1.092L261.132,0H226.6z"/>
	</g>
</g>
<g>
	<g>
		<path d="M420.352,96H282V72h-24.336l2.032-44H228.04l2.032,44H206v24h-17.556c-0.352-6.916-2.936-15.468-7.064-20.756l14.42-14.42
			c1.564-1.564,1.564-4.092,0-5.656c-1.564-1.564-4.092-1.564-5.656,0L179.872,65.44c-7.876-8.752-21.468-16.86-33.204-16.86
			c-21.804,0-39.484,17.672-39.484,39.476c0,1.14,0.108,2.264,0.204,3.384l-23.5-23.508c-1.564-1.564-4.092-1.564-5.656,0
			c-1.564,1.564-1.564,4.092,0,5.656L100.64,96H78.896C48.584,96,26,110.4,26,150.056V464h32v36h40v-36h144V100h8v364h152v36h40v-36
			h32V150.056C474,110.4,450.664,96,420.352,96z M157.828,87.492c-0.032-0.048-0.08-0.072-0.1-0.116
			c-3.248-6.092-9.564-9.884-16.468-9.884c-10.248,0-18.58,8.288-18.672,18.508h-8.008c0.084-14.624,12.012-26.508,26.676-26.508
			c9.108,0,17.452,4.656,22.344,12.22L157.828,87.492z M210,318.984c0,2.212-1.788,4-4,4c-2.212,0-4-1.788-4-4v-75.952
			c0-2.212,1.788-4,4-4c2.212,0,4,1.788,4,4V318.984z M282,318.984c0,2.212-1.788,4-4,4c-2.212,0-4-1.788-4-4v-75.952
			c0-2.212,1.788-4,4-4c2.212,0,4,1.788,4,4V318.984z"/>
	</g>
</g>
<g>
</g>
<g>
</g>
<g>
</g>
<g>
</g>
<g>
</g>
<g>
</g>
<g>
</g>
<g>
</g>
<g>
</g>
<g>
</g>
<g>
</g>
<g>
</g>
<g>
</g>
<g>
</g>
<g>
</g>
</svg>
