<?xml version="1.0" encoding="iso-8859-1"?>
<!-- Generator: Adobe Illustrator 19.0.0, SVG Export Plug-In . SVG Version: 6.00 Build 0)  -->
<svg version="1.1" id="Layer_1" xmlns="http://www.w3.org/2000/svg" xmlns:xlink="http://www.w3.org/1999/xlink" x="0px" y="0px"
	 viewBox="0 0 512 512" style="enable-background:new 0 0 512 512;" xml:space="preserve">
<rect x="10.199" y="51.087" style="fill:#D35B38;" width="289.953" height="39.27"/>
<rect x="10.199" y="90.354" style="fill:#FFE6B8;" width="289.953" height="167.389"/>
<rect x="44.426" y="186.064" style="fill:#D35B38;" width="65.846" height="40.684"/>
<rect x="110.274" y="152.671" style="fill:#FFAD61;" width="289.953" height="39.27"/>
<rect x="110.274" y="191.949" style="fill:#FFE6B8;" width="289.953" height="167.389"/>
<rect x="144.492" y="287.648" style="fill:#FFAD61;" width="67.345" height="40.684"/>
<rect x="211.848" y="254.255" style="fill:#BCC987;" width="289.953" height="39.27"/>
<rect x="211.848" y="293.522" style="fill:#FFE6B8;" width="289.953" height="167.389"/>
<rect x="246.076" y="389.232" style="fill:#BCC987;" width="223.444" height="40.684"/>
<g>
	<path style="fill:#4D3D36;" d="M262.053,132.392h3.876c5.632,0,10.199-4.566,10.199-10.199s-4.567-10.199-10.199-10.199h-3.876
		c-5.632,0-10.199,4.566-10.199,10.199S256.42,132.392,262.053,132.392z"/>
	<path style="fill:#4D3D36;" d="M44.426,132.392h195.026c5.632,0,10.199-4.566,10.199-10.199s-4.567-10.199-10.199-10.199H44.426
		c-5.632,0-10.199,4.566-10.199,10.199S38.793,132.392,44.426,132.392z"/>
	<path style="fill:#4D3D36;" d="M44.426,165.03h38.006c5.632,0,10.199-4.566,10.199-10.199s-4.567-10.199-10.199-10.199H44.426
		c-5.632,0-10.199,4.566-10.199,10.199S38.793,165.03,44.426,165.03z"/>
	<path style="fill:#4D3D36;" d="M362.125,233.977h3.875c5.632,0,10.199-4.566,10.199-10.199s-4.567-10.199-10.199-10.199h-3.875
		c-5.632,0-10.199,4.566-10.199,10.199S356.492,233.977,362.125,233.977z"/>
	<path style="fill:#4D3D36;" d="M144.496,233.977h195.026c5.632,0,10.199-4.566,10.199-10.199s-4.567-10.199-10.199-10.199H144.496
		c-5.632,0-10.199,4.566-10.199,10.199S138.863,233.977,144.496,233.977z"/>
	<path style="fill:#4D3D36;" d="M144.496,266.615h40.263c5.632,0,10.199-4.566,10.199-10.199s-4.567-10.199-10.199-10.199h-40.263
		c-5.632,0-10.199,4.566-10.199,10.199C134.297,262.049,138.863,266.615,144.496,266.615z"/>
	<path style="fill:#4D3D36;" d="M512,254.251c0-5.633-4.567-10.199-10.199-10.199h-91.377v-91.377
		c0-5.633-4.567-10.199-10.199-10.199h-89.871V51.09c0-5.633-4.567-10.199-10.199-10.199H10.199C4.567,40.891,0,45.457,0,51.09
		v206.658c0,5.633,4.567,10.199,10.199,10.199h89.871v91.386c0,5.633,4.567,10.199,10.199,10.199h91.377v91.377
		c0,5.633,4.567,10.199,10.199,10.199h289.955c5.632,0,10.199-4.566,10.199-10.199V254.251z M491.602,283.322H222.045v-18.872
		h269.557V283.322z M201.646,318.136h-46.951V297.85h46.951V318.136z M390.026,181.746H120.469v-18.872h269.557V181.746z
		 M100.071,216.551H54.625v-20.286h45.447v20.286H100.071z M20.398,61.29h269.557v18.872H20.398V61.29z M20.398,247.548V100.56
		h269.557v41.917H110.27c-5.632,0-10.199,4.566-10.199,10.199v23.192H44.426c-5.632,0-10.199,4.566-10.199,10.199v40.685
		c0,5.633,4.567,10.199,10.199,10.199h55.646v10.599H20.398V247.548z M120.469,202.145h269.557v41.908h-178.18
		c-5.632,0-10.199,4.566-10.199,10.199v23.201h-57.15c-5.632,0-10.199,4.566-10.199,10.199v40.685
		c0,5.633,4.567,10.199,10.199,10.199h57.15v10.599h-81.178C120.469,349.135,120.469,202.145,120.469,202.145z M222.045,303.721
		h269.557v146.99H222.045V303.721z"/>
	<path style="fill:#4D3D36;" d="M463.701,335.553h3.875c5.632,0,10.199-4.566,10.199-10.199s-4.567-10.199-10.199-10.199h-3.875
		c-5.632,0-10.199,4.566-10.199,10.199S458.068,335.553,463.701,335.553z"/>
	<path style="fill:#4D3D36;" d="M246.072,335.553h195.026c5.632,0,10.199-4.566,10.199-10.199s-4.567-10.199-10.199-10.199H246.072
		c-5.632,0-10.199,4.566-10.199,10.199S240.439,335.553,246.072,335.553z"/>
	<path style="fill:#4D3D36;" d="M246.072,368.191h120.761c5.632,0,10.199-4.566,10.199-10.199s-4.567-10.199-10.199-10.199H246.072
		c-5.632,0-10.199,4.566-10.199,10.199S240.439,368.191,246.072,368.191z"/>
	<path style="fill:#4D3D36;" d="M246.072,440.11h223.44c5.632,0,10.199-4.566,10.199-10.199v-40.685
		c0-5.633-4.567-10.199-10.199-10.199h-223.44c-5.632,0-10.199,4.566-10.199,10.199v40.685
		C235.873,435.544,240.439,440.11,246.072,440.11z M256.271,399.426h203.042v20.286H256.271V399.426z"/>
</g>
<g>
</g>
<g>
</g>
<g>
</g>
<g>
</g>
<g>
</g>
<g>
</g>
<g>
</g>
<g>
</g>
<g>
</g>
<g>
</g>
<g>
</g>
<g>
</g>
<g>
</g>
<g>
</g>
<g>
</g>
</svg>
