<?xml version="1.0" encoding="iso-8859-1"?>
<!-- Generator: Adobe Illustrator 19.0.0, SVG Export Plug-In . SVG Version: 6.00 Build 0)  -->
<svg version="1.1" id="Layer_1" xmlns="http://www.w3.org/2000/svg" xmlns:xlink="http://www.w3.org/1999/xlink" x="0px" y="0px"
	 viewBox="0 0 512 512" style="enable-background:new 0 0 512 512;" xml:space="preserve">
<polygon style="fill:#FFE6B8;" points="501.801,120.332 142.319,120.332 142.319,88.922 64.716,88.922 64.716,120.332 
	10.199,120.332 10.199,380.892 501.801,380.892 "/>
<rect x="200.241" y="380.889" style="fill:#CCCCCC;" width="111.508" height="72.792"/>
<polygon style="fill:#D35B38;" points="64.716,120.332 64.716,88.922 142.319,88.922 142.319,120.332 501.801,120.332 
	501.801,58.311 10.199,58.311 10.199,120.332 "/>
<g>
	<path style="fill:#FFAD61;" d="M461.004,453.689H359.962v-68.927c0-27.92,22.566-50.555,50.487-50.555l0,0
		c27.92,0,50.555,22.634,50.555,50.555V453.689z"/>
	<circle style="fill:#FFAD61;" cx="410.447" cy="272.084" r="31.524"/>
</g>
<g>
	<path style="fill:#4D3D36;" d="M0,380.892c0,5.632,4.567,10.199,10.199,10.199h179.845v52.397h-36.179
		c-5.632,0-10.199,4.567-10.199,10.199c0,5.632,4.567,10.199,10.199,10.199h338.756c5.632,0,10.199-4.567,10.199-10.199
		c0-5.632-4.567-10.199-10.199-10.199h-21.418v-52.397h30.598c5.632,0,10.199-4.567,10.199-10.199V58.312
		c0-5.632-4.567-10.199-10.199-10.199H10.199C4.567,48.113,0,52.68,0,58.312V380.892z M301.558,443.489h-91.116v-52.397h91.116
		V443.489z M349.763,443.489h-27.807v-52.397h27.807V443.489z M370.162,443.489v-58.728c0-22.252,18.073-40.355,40.288-40.355
		c22.252,0,40.355,18.104,40.355,40.355v58.728L370.162,443.489L370.162,443.489z M20.398,370.693V130.531h44.318
		c5.632,0,10.199-4.567,10.199-10.199V99.121h57.204v21.212c0,5.632,4.567,10.199,10.199,10.199h349.283v240.162h-22.061
		c-6.365-26.736-30.435-46.686-59.092-46.686c-28.624,0-52.668,19.95-59.026,46.686H20.398V370.693z M491.602,110.133H152.518
		V88.922c0-5.632-4.567-10.199-10.199-10.199H64.716c-5.632,0-10.199,4.567-10.199,10.199v21.212H20.398V68.511h471.203V110.133z"/>
	<path style="fill:#4D3D36;" d="M467.124,99.625h2.04c5.632,0,10.199-4.567,10.199-10.199s-4.567-10.199-10.199-10.199h-2.04
		c-5.632,0-10.199,4.567-10.199,10.199S461.492,99.625,467.124,99.625z"/>
	<path style="fill:#4D3D36;" d="M430.406,99.625h2.04c5.632,0,10.199-4.567,10.199-10.199s-4.567-10.199-10.199-10.199h-2.04
		c-5.632,0-10.199,4.567-10.199,10.199S424.774,99.625,430.406,99.625z"/>
	<path style="fill:#4D3D36;" d="M393.689,99.625h2.04c5.632,0,10.199-4.567,10.199-10.199s-4.567-10.199-10.199-10.199h-2.04
		c-5.632,0-10.199,4.567-10.199,10.199S388.057,99.625,393.689,99.625z"/>
	<path style="fill:#4D3D36;" d="M441.626,191.934h6.12c5.632,0,10.199-4.567,10.199-10.199s-4.567-10.199-10.199-10.199h-6.12
		c-5.632,0-10.199,4.567-10.199,10.199S435.993,191.934,441.626,191.934z"/>
	<path style="fill:#4D3D36;" d="M54.056,181.735c0,5.632,4.567,10.199,10.199,10.199h341.673c5.632,0,10.199-4.567,10.199-10.199
		s-4.567-10.199-10.199-10.199H64.255C58.623,171.535,54.056,176.101,54.056,181.735z"/>
	<path style="fill:#4D3D36;" d="M288.637,211.312H64.255c-5.632,0-10.199,4.567-10.199,10.199s4.567,10.199,10.199,10.199h224.382
		c5.632,0,10.199-4.567,10.199-10.199S294.269,211.312,288.637,211.312z"/>
	<path style="fill:#4D3D36;" d="M410.45,230.361c-23.006,0-41.723,18.718-41.723,41.723c0,23.005,18.718,41.723,41.723,41.723
		c23.005,0,41.723-18.718,41.723-41.723S433.455,230.361,410.45,230.361z M410.45,293.41c-11.759,0-21.324-9.566-21.324-21.324
		c0-11.759,9.566-21.325,21.324-21.325c11.759,0,21.324,9.566,21.324,21.325C431.774,283.844,422.208,293.41,410.45,293.41z"/>
</g>
<g>
</g>
<g>
</g>
<g>
</g>
<g>
</g>
<g>
</g>
<g>
</g>
<g>
</g>
<g>
</g>
<g>
</g>
<g>
</g>
<g>
</g>
<g>
</g>
<g>
</g>
<g>
</g>
<g>
</g>
</svg>
