<?xml version="1.0" encoding="iso-8859-1"?>
<!-- Generator: Adobe Illustrator 19.0.0, SVG Export Plug-In . SVG Version: 6.00 Build 0)  -->
<svg version="1.1" id="Layer_1" xmlns="http://www.w3.org/2000/svg" xmlns:xlink="http://www.w3.org/1999/xlink" x="0px" y="0px"
	 viewBox="0 0 496 496" style="enable-background:new 0 0 496 496;" xml:space="preserve">
<g>
	<g>
		<g>
			<path d="M472,32h-72V0H100.688L0,100.688V496h400V192h72c13.232,0,24-10.768,24-24V56C496,42.768,485.232,32,472,32z M96,27.312
				V96H27.312L96,27.312z M384,480H16V112h96V16h272v16H184c-13.232,0-24,10.768-24,24v112c0,13.232,10.768,24,24,24h200V480z
				 M480,168c0,4.416-3.584,8-8,8H184c-4.416,0-8-3.584-8-8V56c0-4.416,3.584-8,8-8h288c4.416,0,8,3.584,8,8V168z"/>
			<rect x="32" y="128" width="16" height="16"/>
			<rect x="64" y="128" width="16" height="16"/>
			<rect x="32" y="160" width="16" height="16"/>
			<polygon points="448,94.36 426.728,144 421.272,144 400,94.36 400,64 384,64 384,97.64 410.728,160 437.272,160 464,97.64 
				464,64 448,64 			"/>
			<polygon points="192,112 192,120 192,160 208,160 208,120 256,120 256,104 208,104 208,80 272,80 272,64 192,64 			"/>
			<polygon points="304,64 288,64 288,160 368,160 368,144 304,144 			"/>
			<path d="M32,256v8v32v8v160h336V304v-8v-32v-8v-48H32V256z M352,288h-28.688l24-24H352V288z M187.312,264h57.376l-24,24h-57.376
				L187.312,264z M140.688,288H83.312l24-24h57.376L140.688,288z M267.312,264h57.376l-24,24h-57.376L267.312,264z M352,224v24
				h-4.688l-24-24H352z M300.688,224l24,24h-57.376l-24-24H300.688z M220.688,224l24,24h-57.376l-24-24H220.688z M140.688,224l24,24
				h-57.376l-24-24H140.688z M48,224h12.688l24,24H48V224z M48,264h36.688l-24,24H48V264z M48,304h304v144H48V304z"/>
			<path d="M144,436.944L265.888,376L144,315.056V436.944z M160,340.944L230.112,376L160,411.056V340.944z"/>
		</g>
	</g>
</g>
<g>
</g>
<g>
</g>
<g>
</g>
<g>
</g>
<g>
</g>
<g>
</g>
<g>
</g>
<g>
</g>
<g>
</g>
<g>
</g>
<g>
</g>
<g>
</g>
<g>
</g>
<g>
</g>
<g>
</g>
</svg>
