<?xml version="1.0" encoding="iso-8859-1"?>
<!-- Generator: Adobe Illustrator 19.0.0, SVG Export Plug-In . SVG Version: 6.00 Build 0)  -->
<svg version="1.1" id="Layer_1" xmlns="http://www.w3.org/2000/svg" xmlns:xlink="http://www.w3.org/1999/xlink" x="0px" y="0px"
	 viewBox="0 0 512.001 512.001" style="enable-background:new 0 0 512.001 512.001;" xml:space="preserve">
<g>
	<g>
		<path d="M508.653,461.169L362.302,187.98c-0.033-0.064-0.067-0.127-0.101-0.189L276.499,27.81
			c-4.051-7.562-11.935-12.281-20.515-12.281c-8.579,0-16.462,4.719-20.513,12.281L2.757,462.21
			c-3.863,7.213-3.655,15.924,0.548,22.944s11.783,11.318,19.965,11.318h465.428c0.011,0,0.023,0,0.031,0
			c12.854,0,23.271-10.419,23.271-23.271C511.999,468.797,510.777,464.678,508.653,461.169z M255.984,88.08l56.303,105.098
			l-26.169,21.86l-16.301-12.017c-8.207-6.051-19.394-6.054-27.606-0.009l-16.343,12.031l-26.177-21.881L255.984,88.08z
			 M62.139,449.927l115.107-214.866l32.785,27.406c4.308,3.601,9.611,5.416,14.928,5.416c4.836,0,9.681-1.503,13.794-4.53
			l17.246-12.695l17.205,12.684c8.632,6.364,20.494,6.006,28.729-0.87l32.8-27.397l115.1,214.852H62.139z"/>
	</g>
</g>
<g>
</g>
<g>
</g>
<g>
</g>
<g>
</g>
<g>
</g>
<g>
</g>
<g>
</g>
<g>
</g>
<g>
</g>
<g>
</g>
<g>
</g>
<g>
</g>
<g>
</g>
<g>
</g>
<g>
</g>
</svg>
