<?xml version="1.0" encoding="iso-8859-1"?>
<!-- Generator: Adobe Illustrator 19.0.0, SVG Export Plug-In . SVG Version: 6.00 Build 0)  -->
<svg version="1.1" id="Layer_1" xmlns="http://www.w3.org/2000/svg" xmlns:xlink="http://www.w3.org/1999/xlink" x="0px" y="0px"
	 viewBox="0 0 512 512" style="enable-background:new 0 0 512 512;" xml:space="preserve">
<g>
	<path style="fill:#A72328;" d="M377.069,380.884H132.101c-26.02,0-47.189-21.169-47.189-47.189V115.054
		C84.912,51.613,136.525,0,199.967,0h109.235c63.441,0,115.056,51.613,115.056,115.054v75.389c0,8.089-6.559,14.65-14.65,14.65
		c-8.091,0-14.649-6.56-14.649-14.65v-75.389c0-47.286-38.47-85.755-85.757-85.755H199.967c-47.286,0-85.757,38.47-85.757,85.755
		v218.641c0,9.864,8.025,17.89,17.89,17.89h244.967c9.865,0,17.89-8.026,17.89-17.89c0-8.089,6.559-14.649,14.65-14.649
		s14.65,6.56,14.65,14.649C424.258,359.716,403.089,380.884,377.069,380.884z"/>
	<path style="fill:#A72328;" d="M172.809,307.637c-8.091,0-14.65-6.56-14.65-14.65V145.631c0-39.913,32.472-72.383,72.383-72.383
		h48.083c39.913,0,72.385,32.471,72.385,72.383v41.883c0,8.089-6.559,14.65-14.649,14.65s-14.65-6.56-14.65-14.65v-41.883
		c0-23.757-19.327-43.084-43.086-43.084h-48.083c-23.757,0-43.084,19.327-43.084,43.084v147.356
		C187.459,301.078,180.9,307.637,172.809,307.637z"/>
</g>
<path style="fill:#F4DABB;" d="M99.562,263.69v70.006c0,17.971,14.569,32.539,32.539,32.539h244.967
	c17.971,0,32.539-14.569,32.539-32.539v-40.708V263.69H99.562z"/>
<g>
	<path style="fill:#A72328;" d="M377.069,380.884H132.101c-26.02,0-47.189-21.169-47.189-47.189v-70.006
		c0-8.089,6.559-14.649,14.649-14.649h310.046c8.091,0,14.65,6.56,14.65,14.649v70.006
		C424.258,359.716,403.089,380.884,377.069,380.884z M114.211,278.339v55.356c0,9.863,8.025,17.89,17.89,17.89h244.967
		c9.865,0,17.89-8.026,17.89-17.89v-55.356H114.211z"/>
	<path style="fill:#A72328;" d="M346.876,322.289h-36.624c-8.091,0-14.65-6.56-14.65-14.65s6.559-14.65,14.65-14.65h36.624
		c8.091,0,14.65,6.56,14.65,14.65S354.967,322.289,346.876,322.289z"/>
	<path style="fill:#A72328;" d="M198.919,322.289h-36.624c-8.091,0-14.649-6.56-14.649-14.65s6.559-14.65,14.649-14.65h36.624
		c8.091,0,14.65,6.56,14.65,14.65S207.01,322.289,198.919,322.289z"/>
	<path style="fill:#A72328;" d="M62.068,508.135c-3.454,0-6.923-1.214-9.711-3.687c-6.055-5.368-6.611-14.626-1.245-20.681
		l112.801-127.251c5.368-6.053,14.625-6.611,20.681-1.245c6.055,5.368,6.611,14.626,1.245,20.681L73.037,503.203
		C70.141,506.47,66.114,508.135,62.068,508.135z"/>
	<path style="fill:#A72328;" d="M301.951,445.15H122.157c-8.091,0-14.649-6.56-14.649-14.65s6.559-14.65,14.649-14.65h179.792
		c8.091,0,14.649,6.56,14.649,14.65S310.041,445.15,301.951,445.15z"/>
	<path style="fill:#A72328;" d="M449.925,512H180.761c-8.091,0-14.649-6.56-14.649-14.649c0-8.089,6.559-14.65,14.649-14.65h237.197
		l-94.627-106.748c-5.366-6.055-4.809-15.313,1.245-20.681c6.053-5.369,15.313-4.809,20.681,1.245l112.801,127.251
		c0.303,0.341,0.589,0.697,0.858,1.065l2.829,3.865c3.26,4.452,3.741,10.359,1.245,15.281S455.444,512,449.925,512z"/>
</g>
<g>
</g>
<g>
</g>
<g>
</g>
<g>
</g>
<g>
</g>
<g>
</g>
<g>
</g>
<g>
</g>
<g>
</g>
<g>
</g>
<g>
</g>
<g>
</g>
<g>
</g>
<g>
</g>
<g>
</g>
</svg>
