<?xml version="1.0" encoding="iso-8859-1"?>
<!-- Generator: Adobe Illustrator 19.0.0, SVG Export Plug-In . SVG Version: 6.00 Build 0)  -->
<svg version="1.1" id="Layer_1" xmlns="http://www.w3.org/2000/svg" xmlns:xlink="http://www.w3.org/1999/xlink" x="0px" y="0px"
	 viewBox="0 0 512 512" style="enable-background:new 0 0 512 512;" xml:space="preserve">
<circle style="fill:#366695;" cx="256" cy="256" r="256"/>
<path style="fill:#273B7A;" d="M297.156,508.69c103.226-16.684,185.768-95.08,208.56-196.127l-83.285-83.285l-13.921,12.478
	l-79.479-79.479l-33.813,50.195l53.667,53.667L85.333,296.867L297.156,508.69z"/>
<path style="fill:#FEE187;" d="M312.263,300.103H95.208c-9.263,0-16.77-7.508-16.77-16.77V174.804h250.596v108.528
	C329.032,292.595,321.524,300.103,312.263,300.103z"/>
<g>
	<path style="fill:#FFC61B;" d="M204.283,174.806v125.297h107.979c9.263,0,16.77-7.508,16.77-16.77V174.804H204.283V174.806z"/>
	<path style="fill:#FFC61B;" d="M310.301,212.396H97.168c-10.345,0-18.73-8.387-18.73-18.73v-31.389h250.596v31.387
		C329.032,204.009,320.646,212.396,310.301,212.396z"/>
</g>
<path style="fill:#EAA22F;" d="M204.283,162.276v50.119h106.018c10.345,0,18.73-8.387,18.73-18.73v-31.389H204.283z"/>
<path style="fill:#FFFFFF;" d="M416.897,341.333H180.436c-5.396,0-9.769-4.374-9.769-9.769v-94.239c0-5.396,4.374-9.769,9.769-9.769
	h236.461c5.396,0,9.769,4.374,9.769,9.769v94.239C426.667,336.96,422.293,341.333,416.897,341.333z"/>
<path style="fill:#D0D1D3;" d="M416.897,227.556H297.948v113.778h118.949c5.396,0,9.769-4.374,9.769-9.769v-94.239
	C426.667,231.929,422.293,227.556,416.897,227.556z"/>
<path style="fill:#A6A8AA;" d="M320.895,312.889h69.323c4.422,0,8.006-3.584,8.006-8.006v-12.435c0-4.422-3.584-8.006-8.006-8.006
	h-69.323c-4.422,0-8.006,3.584-8.006,8.006v12.435C312.889,309.305,316.473,312.889,320.895,312.889z"/>
<g>
</g>
<g>
</g>
<g>
</g>
<g>
</g>
<g>
</g>
<g>
</g>
<g>
</g>
<g>
</g>
<g>
</g>
<g>
</g>
<g>
</g>
<g>
</g>
<g>
</g>
<g>
</g>
<g>
</g>
</svg>
