<?xml version="1.0" encoding="iso-8859-1"?>
<!-- Generator: Adobe Illustrator 19.0.0, SVG Export Plug-In . SVG Version: 6.00 Build 0)  -->
<svg xmlns="http://www.w3.org/2000/svg" xmlns:xlink="http://www.w3.org/1999/xlink" version="1.1" id="Capa_1" x="0px" y="0px" viewBox="0 0 505 505" style="enable-background:new 0 0 505 505;" xml:space="preserve" width="512" height="512">
<g>
	<ellipse style="fill:#E95B2D;" cx="252.5" cy="252.5" rx="245" ry="76"/>
	<path style="fill:#FABA45;" d="M270.694,210.5h23.671c23.196,0,42,18.805,42,42l0,0c0,23.197-18.804,42-42,42h-83.731   c-23.196,0-42-18.803-42-42l0,0c0-23.195,18.804-42,42-42h40.058"/>
	<path style="fill:#FABA45;" d="M101.833,136.288c9.515,9.515,24.938,9.515,34.453,0.001c9.514-9.515,9.515-24.94,0.001-34.455   L88.129,53.677L53.676,88.131L101.833,136.288z"/>
	<path style="fill:#FABA45;" d="M403.167,368.712c-9.515-9.514-24.938-9.515-34.453,0c-9.515,9.514-9.515,24.939-0.001,34.454   l48.158,48.157l34.453-34.453L403.167,368.712z"/>
	<path style="fill:#0F2639;" d="M427.963,313.403C478.361,297.771,505,276.71,505,252.5c0-24.209-26.639-45.27-77.037-60.903   C380.988,177.025,318.675,169,252.5,169c-23.958,0-47.404,1.057-69.805,3.091l-36.439-36.439c7.48-12.264,5.93-28.525-4.666-39.122   L88.129,43.07l-45.06,45.061l53.46,53.461c6.018,6.018,14.02,9.332,22.53,9.332c0.001,0,0,0,0.001,0   c5.95,0,11.648-1.625,16.597-4.656l27.833,27.833c-32.017,3.823-61.415,9.729-86.454,17.496C26.639,207.231,0,228.291,0,252.5   c0,24.21,26.639,45.27,77.037,60.903C124.011,327.976,186.325,336,252.5,336c23.956,0,47.4-1.057,69.8-3.09l36.442,36.441   c-7.478,12.263-5.927,28.521,4.668,39.118l53.462,53.46l45.06-45.06l-53.461-53.462c-6.019-6.017-14.02-9.332-22.529-9.332   c-5.952,0-11.651,1.626-16.601,4.659L341.505,330.9C373.524,327.077,402.924,321.171,427.963,313.403z M119.06,135.924   c-4.504,0-8.739-1.754-11.924-4.939L64.282,88.131l23.847-23.848l42.854,42.854c6.574,6.575,6.574,17.273,0,23.849   C127.798,134.17,123.563,135.924,119.06,135.924z M385.941,369.076c4.503,0,8.738,1.754,11.923,4.94l42.854,42.854l-23.847,23.847   l-42.854-42.853c-6.575-6.575-6.574-17.273,0.001-23.848C377.202,370.83,381.437,369.076,385.941,369.076z M252.5,184   c64.709,0,125.444,7.786,171.019,21.924C465.148,218.837,490,236.249,490,252.5c0,16.252-24.853,33.664-66.481,46.577   c-27.244,8.451-59.91,14.63-95.602,18.235l-17.873-17.873c19.63-6.574,33.821-25.125,33.821-46.939c0-27.294-22.206-49.5-49.5-49.5   h-23.671v15h23.671c19.023,0,34.5,15.477,34.5,34.5c0,17.98-13.828,32.784-31.406,34.355L228.604,218h22.088v-15h-37.088   l-17.001-17.002C214.7,184.682,233.425,184,252.5,184z M276.39,287h-65.755c-19.023,0-34.5-15.477-34.5-34.5   c0-17.979,13.825-32.781,31.401-34.354L276.39,287z M252.5,321c-64.709,0-125.445-7.786-171.019-21.923   C39.853,286.164,15,268.752,15,252.5c0-16.251,24.853-33.663,66.481-46.576c27.244-8.451,59.908-14.631,95.597-18.236   l17.873,17.874c-19.628,6.576-33.816,25.126-33.816,46.938c0,27.294,22.206,49.5,49.5,49.5h80.755l17.002,17.002   C290.296,320.318,271.573,321,252.5,321z"/>
	<rect x="131.132" y="210.5" style="fill:#0F2639;" width="15" height="84"/>
	<rect x="358.868" y="210.5" style="fill:#0F2639;" width="15" height="84"/>
</g>















</svg>
