<?xml version="1.0" encoding="iso-8859-1"?>
<!-- Generator: Adobe Illustrator 19.0.0, SVG Export Plug-In . SVG Version: 6.00 Build 0)  -->
<svg version="1.1" id="Layer_1" xmlns="http://www.w3.org/2000/svg" xmlns:xlink="http://www.w3.org/1999/xlink" x="0px" y="0px"
	 viewBox="0 0 512 512" style="enable-background:new 0 0 512 512;" xml:space="preserve">
<path style="fill:#5D9BEB;" d="M512,256.006C512,397.402,397.394,512.004,256.004,512C114.606,512.004,0,397.402,0,256.006
	C-0.007,114.61,114.606,0,256.004,0C397.394,0,512,114.614,512,256.006z"/>
<path style="fill:#4988DB;" d="M510.219,285.803c-0.011-0.007-157.852-158.049-158.511-158.511
	c-1.253-1.785-3.226-3.025-5.574-3.025H210.586c-0.338-0.477-0.81-0.801-1.247-1.172c0,0-29.499-29.582-30.029-30.029l-0.158-0.25
	c-1.266-2.004-3.481-3.216-5.851-3.216H96.533c-3.833,0-6.933,3.102-6.933,6.933v228.597c0,0.569,0.067,1.131,0.21,1.679
	c1.582,6.334,4.884,11.731,9.285,15.997c0.494,0.553,167.839,167.824,168.401,168.374c0.162,0.183,0.345,0.343,0.516,0.516
	C393.852,505.887,495.903,409.243,510.219,285.803z"/>
<g>
	<path style="fill:#F4F6F9;" d="M420.369,292.671l-34.667-34.667c-2.708-2.708-7.095-2.708-9.804,0L271.872,362.031
		c-0.586,0.586-1.012,1.292-1.356,2.041c-0.078,0.171-0.154,0.332-0.218,0.506c-0.057,0.155-0.149,0.293-0.194,0.452l-13.867,48.533
		c-0.69,2.417-0.014,5.024,1.767,6.804c1.321,1.321,3.088,2.031,4.902,2.031c0.637,0,1.28-0.089,1.903-0.265l48.533-13.867
		c0.16-0.046,0.298-0.138,0.452-0.194c0.175-0.064,0.336-0.139,0.506-0.218c0.749-0.343,1.455-0.77,2.041-1.356l104.027-104.027
		C423.077,299.766,423.077,295.379,420.369,292.671z M280.203,380.168l18.002,18.002l-25.203,7.202L280.203,380.168z
		 M311.44,391.796l-24.863-24.863L380.8,272.71l24.863,24.863L311.44,391.796z"/>
	<path style="fill:#F4F6F9;" d="M221.333,339.2h-68.67c2.755-3.602,4.896-7.73,6.06-12.39c0.142-0.548,0.21-1.11,0.21-1.679V172.8
		h208v48.533c0,3.833,3.101,6.933,6.933,6.933s6.933-3.101,6.933-6.933v-55.467c0-3.833-3.101-6.933-6.933-6.933h-20.8V131.2
		c0-3.833-3.101-6.933-6.933-6.933H199.125l-19.974-31.451c-1.266-2.004-3.481-3.216-5.85-3.216H96.533
		c-3.833,0-6.933,3.101-6.933,6.933v228.597c0,0.569,0.067,1.131,0.21,1.679c3.762,15.061,16.849,25.25,32.809,25.924
		c0.543,0.135,1.063,0.333,1.648,0.333h97.067c3.833,0,6.933-3.101,6.933-6.933S225.166,339.2,221.333,339.2z M103.467,324.223
		V103.467h66.022l19.974,31.451c1.266,2.004,3.481,3.216,5.85,3.216H339.2v20.8H152c-3.833,0-6.933,3.101-6.933,6.933v158.356
		c-3.129,10.887-13.082,14.774-20.8,14.774S106.595,335.11,103.467,324.223z"/>
</g>
<g>
</g>
<g>
</g>
<g>
</g>
<g>
</g>
<g>
</g>
<g>
</g>
<g>
</g>
<g>
</g>
<g>
</g>
<g>
</g>
<g>
</g>
<g>
</g>
<g>
</g>
<g>
</g>
<g>
</g>
</svg>
