<?xml version="1.0" encoding="iso-8859-1"?>
<!-- Generator: Adobe Illustrator 19.0.0, SVG Export Plug-In . SVG Version: 6.00 Build 0)  -->
<svg version="1.1" id="Layer_1" xmlns="http://www.w3.org/2000/svg" xmlns:xlink="http://www.w3.org/1999/xlink" x="0px" y="0px"
	 viewBox="0 0 392.533 392.533" style="enable-background:new 0 0 392.533 392.533;" xml:space="preserve">
<g>
	<path style="fill:#FFFFFF;" d="M85.398,174.998c0-20.04,17.067-36.331,38.012-36.331c10.99,0,24.372,6.271,40.404,19.071
		c6.012-5.883,13.317-10.15,21.463-12.218V21.786H32.453c-5.883,0-10.667,4.784-10.667,10.667v152.824h64.905
		C85.915,181.527,85.398,177.972,85.398,174.998z"/>
	<path style="fill:#FFFFFF;" d="M307.135,217.535c0,20.04-17.067,36.331-38.012,36.331c-10.796,0-24.048-6.335-40.339-19.135
		c-6.012,5.947-13.382,10.279-21.657,12.283v123.798h152.954c5.883,0,10.667-4.784,10.667-10.667V207.192h-65.228
		C306.618,210.489,307.135,214.044,307.135,217.535z"/>
	<path style="fill:#FFFFFF;" d="M123.475,253.867c-20.945,0-38.012-16.291-38.012-36.331c0-2.909,0.453-6.4,1.293-10.343H21.851
		v152.954c0,5.883,4.784,10.667,10.667,10.667h152.824V246.949c-8.21-2.069-15.58-6.4-21.657-12.347
		C147.523,247.402,134.206,253.867,123.475,253.867z"/>
	<path style="fill:#FFFFFF;" d="M360.081,21.786H207.192v123.798c8.145,2.004,15.451,6.335,21.463,12.218
		c16.162-12.735,29.414-19.071,40.404-19.071c20.945,0,38.012,16.291,38.012,36.331c0,3.491-0.517,7.046-1.551,10.343h65.164V32.453
		C370.747,26.57,365.964,21.786,360.081,21.786z"/>
</g>
<g>
	<path style="fill:#FFC10D;" d="M149.01,185.665c-0.646,3.362-0.97,6.853-0.97,10.473c0,7.24,1.293,14.093,3.685,20.234
		c-17.842,14.416-26.053,15.58-28.315,15.58c-8.986,0-16.226-6.465-16.226-14.545c3.168-14.739,3.038-28.897,0-42.473
		c0-7.952,7.24-14.545,16.226-14.545c2.327,0,10.731,1.228,28.38,15.451C150.626,179.006,149.657,182.238,149.01,185.665z"/>
	<path style="fill:#FFC10D;" d="M86.691,185.406H43.572V43.572h141.705v102.012c-8.145,2.004-15.451,6.335-21.463,12.218
		c-16.162-12.735-29.414-19.071-40.404-19.071c-20.945,0-38.012,16.291-38.012,36.331C85.398,177.972,85.851,181.527,86.691,185.406
		z"/>
	<path style="fill:#FFC10D;" d="M163.685,234.602c6.012,5.947,13.446,10.279,21.657,12.347v101.947H43.572v-141.77h43.119
		c-0.84,3.943-1.293,7.434-1.293,10.343c0,20.04,17.067,36.331,38.012,36.331C134.206,253.802,147.459,247.531,163.685,234.602z"/>
	<path style="fill:#FFC10D;" d="M196.267,226.586c-14.61,0-26.44-13.576-26.44-30.319s11.83-30.19,26.44-30.19
		c14.61,0,26.44,13.576,26.44,30.19C222.707,212.945,210.877,226.586,196.267,226.586z"/>
	<path style="fill:#FFC10D;" d="M285.285,175.127c-3.168,13.317-2.844,27.604,0,42.408c0,7.952-7.24,14.545-16.226,14.545
		c-2.263,0-10.408-1.228-28.315-15.709c1.228-3.103,2.133-6.335,2.78-9.697c0.646-3.362,0.97-6.853,0.97-10.408
		c0-7.176-1.422-13.964-3.814-20.234c17.713-14.287,26.053-15.451,28.38-15.451C278.044,160.582,285.285,167.046,285.285,175.127z"
		/>
	<path style="fill:#FFC10D;" d="M348.897,43.572v141.77h-43.248c0.97-3.297,1.552-6.788,1.552-10.343
		c0-20.04-17.067-36.331-38.012-36.331c-10.99,0-24.307,6.271-40.404,19.071c-6.012-5.883-13.382-10.15-21.463-12.218V43.572
		H348.897z"/>
	<path style="fill:#FFC10D;" d="M305.584,207.127h43.248v141.705H207.127V246.949c8.21-2.069,15.644-6.335,21.657-12.283
		c16.226,12.8,29.543,19.135,40.339,19.135c20.945,0,38.012-16.291,38.012-36.331C307.135,214.044,306.618,210.489,305.584,207.127z
		"/>
</g>
<g>
	<path style="fill:#56ACE0;" d="M151.855,176.032c-17.648-14.287-26.053-15.451-28.38-15.451c-8.986,0-16.226,6.465-16.226,14.545
		c3.038,13.576,3.168,27.733,0,42.473c0,7.952,7.24,14.545,16.226,14.545c2.263,0,10.408-1.228,28.251-15.709l0,0
		c-2.392-6.206-3.685-12.994-3.685-20.105C148.04,189.091,149.333,182.303,151.855,176.032L151.855,176.032z"/>
	<path style="fill:#56ACE0;" d="M222.707,196.267c0-16.679-11.83-30.19-26.44-30.19c-14.61,0-26.44,13.576-26.44,30.19
		c0,16.679,11.83,30.319,26.44,30.319C210.877,226.586,222.707,212.945,222.707,196.267z"/>
	<path style="fill:#56ACE0;" d="M269.059,160.582c-2.327,0-10.731,1.228-28.38,15.451c2.457,6.271,3.814,13.059,3.814,20.234
		c0,7.111-1.293,13.899-3.685,20.105l0,0c17.842,14.481,26.053,15.709,28.251,15.709c8.986,0,16.226-6.465,16.226-14.545
		c-2.909-14.869-3.168-29.026,0-42.473C285.285,167.046,278.044,160.582,269.059,160.582z"/>
</g>
<path style="fill:#194F82;" d="M360.081,0H32.453C14.545,0,0,14.545,0,32.453v327.628c0,17.907,14.545,32.453,32.453,32.453h327.628
	c17.907,0,32.453-14.545,32.453-32.453V32.453C392.533,14.545,377.988,0,360.081,0z M21.786,32.453
	c0-5.883,4.784-10.667,10.667-10.667h152.824v123.798c-8.145,2.004-15.451,6.335-21.463,12.218
	c-16.162-12.735-29.414-19.071-40.404-19.071c-20.945,0-38.012,16.291-38.012,36.331c0,2.909,0.453,6.465,1.293,10.343H21.786
	C21.786,185.341,21.786,32.453,21.786,32.453z M151.725,216.372L151.725,216.372c-17.842,14.481-26.053,15.58-28.251,15.58
	c-8.986,0-16.226-6.465-16.226-14.545c3.168-14.739,3.038-28.897,0-42.473c0-7.952,7.24-14.545,16.226-14.545
	c2.327,0,10.731,1.228,28.38,15.451l0,0c-2.457,6.271-3.814,13.059-3.814,20.234C148.04,203.378,149.333,210.166,151.725,216.372z
	 M185.341,370.747H32.453c-5.883,0-10.667-4.784-10.667-10.667V207.192h64.905c-0.84,3.943-1.293,7.434-1.293,10.343
	c0,20.04,17.067,36.331,38.012,36.331c10.796,0,24.048-6.335,40.275-19.265c6.012,5.947,13.446,10.279,21.657,12.347V370.747
	L185.341,370.747z M169.826,196.267c0-16.679,11.83-30.19,26.44-30.19c14.61,0,26.44,13.576,26.44,30.19
	c0,16.679-11.83,30.319-26.44,30.319C181.657,226.586,169.826,212.945,169.826,196.267z M370.747,360.081
	c0,5.883-4.784,10.667-10.667,10.667H207.192V246.949c8.21-2.069,15.58-6.335,21.657-12.283
	c16.226,12.8,29.543,19.135,40.339,19.135c20.945,0,38.012-16.291,38.012-36.331c0-3.491-0.517-7.046-1.552-10.343h65.164v152.954
	H370.747z M285.285,217.535c0,7.952-7.24,14.545-16.226,14.545c-2.263,0-10.408-1.228-28.251-15.709l0,0
	c2.392-6.206,3.685-12.994,3.685-20.105c0-7.176-1.422-13.964-3.814-20.234c17.713-14.287,26.053-15.451,28.38-15.451
	c8.986,0,16.226,6.465,16.226,14.545C282.117,188.38,282.44,202.667,285.285,217.535z M370.747,185.341h-65.164
	c1.034-3.297,1.552-6.788,1.552-10.343c0-20.04-17.067-36.331-38.012-36.331c-10.99,0-24.372,6.271-40.404,19.071
	c-6.012-5.883-13.382-10.15-21.463-12.218V21.786h152.824c5.883,0,10.667,4.784,10.667,10.667V185.341z"/>
<g>
</g>
<g>
</g>
<g>
</g>
<g>
</g>
<g>
</g>
<g>
</g>
<g>
</g>
<g>
</g>
<g>
</g>
<g>
</g>
<g>
</g>
<g>
</g>
<g>
</g>
<g>
</g>
<g>
</g>
</svg>
