<?xml version="1.0" encoding="iso-8859-1"?>
<!-- Generator: Adobe Illustrator 19.0.0, SVG Export Plug-In . SVG Version: 6.00 Build 0)  -->
<svg version="1.1" id="Layer_1" xmlns="http://www.w3.org/2000/svg" xmlns:xlink="http://www.w3.org/1999/xlink" x="0px" y="0px"
	 viewBox="0 0 392.598 392.598" style="enable-background:new 0 0 392.598 392.598;" xml:space="preserve">
<path style="fill:#56ACE0;" d="M107.248,65.293c0,4.267,1.099,9.051,2.844,14.093h172.024c2.004-5.107,3.168-9.891,3.168-14.093
	c0-24.048-19.523-43.507-43.507-43.507c-14.675,0-28.251,7.37-36.396,19.717c-4.331,6.594-13.899,6.594-18.23,0
	c-8.145-12.347-21.721-19.717-36.396-19.717C126.707,21.786,107.248,41.309,107.248,65.293z"/>
<path style="fill:#FFC10D;" d="M196.267,181.915c24.76-21.657,55.855-53.463,74.085-80.743H121.6
	C140.929,130.65,175.386,163.879,196.267,181.915z"/>
<path style="fill:#56ACE0;" d="M196.331,210.554c-37.107,32.517-89.083,87.984-89.083,116.622c0,5.172,0.905,10.15,2.651,14.739
	l78.61-78.675c5.172-4.267,10.279-4.267,15.451,0l78.739,78.739c1.681-4.655,2.651-9.568,2.651-14.739
	C285.285,297.697,233.374,242.618,196.331,210.554z"/>
<path style="fill:#FFC10D;" d="M122.44,360.21c7.628,6.594,17.455,10.537,28.251,10.537c14.675,0,28.251-7.37,36.396-19.717
	c4.331-6.594,13.899-6.594,18.23,0c8.145,12.347,21.721,19.717,36.396,19.717c10.796,0,20.687-3.943,28.251-10.537l-73.697-73.826
	L122.44,360.21z"/>
<path style="fill:#194F82;" d="M336.485,370.747h-46.158c10.343-11.572,16.743-26.828,16.743-43.507
	c0-44.024-67.491-107.572-94.19-130.974c26.634-23.725,94.19-87.919,94.19-130.909c0-16.679-6.335-32-16.743-43.507h46.158
	c6.012,0,10.925-4.848,10.925-10.925S342.562,0,336.485,0H56.048c-6.012,0-10.925,4.848-10.925,10.925s4.848,10.925,10.925,10.925
	h46.158C91.863,33.422,85.463,48.679,85.463,65.358c0,44.024,67.491,107.572,94.19,130.974
	c-26.634,23.725-94.19,87.919-94.19,130.909c0,16.679,6.335,32,16.743,43.507H56.048c-6.012,0-10.925,4.848-10.925,10.925
	s4.848,10.925,10.925,10.925h280.501c6.012,0,10.925-4.849,10.925-10.925C347.41,375.596,342.562,370.747,336.485,370.747z
	 M241.778,370.747c-14.675,0-28.251-7.37-36.396-19.717c-4.331-6.594-13.899-6.594-18.23,0
	c-8.145,12.347-21.721,19.717-36.396,19.717c-10.796,0-20.687-4.008-28.25-10.537l73.762-73.762l73.826,73.826
	C262.465,366.739,252.574,370.747,241.778,370.747z M204.024,263.24c-5.107-4.267-10.279-4.267-15.451,0l-78.675,78.739
	c-1.681-4.655-2.651-9.568-2.651-14.739c0-28.574,51.976-84.04,89.083-116.622c37.107,32.065,89.018,87.143,89.018,116.622
	c0,5.172-0.905,10.15-2.651,14.739L204.024,263.24z M187.152,41.503c4.331,6.594,13.899,6.594,18.23,0
	c8.145-12.347,21.721-19.717,36.396-19.717c24.048,0,43.507,19.523,43.507,43.507c0,4.202-1.228,8.857-3.168,14.093H110.093
	c-1.875-5.042-2.844-9.762-2.844-14.093c0-24.048,19.523-43.507,43.507-43.507C165.43,21.786,179.006,29.22,187.152,41.503z
	 M270.287,101.172c-18.166,27.281-49.39,59.087-74.085,80.743c-20.816-18.101-55.273-51.2-74.667-80.743H270.287z"/>
<g>
</g>
<g>
</g>
<g>
</g>
<g>
</g>
<g>
</g>
<g>
</g>
<g>
</g>
<g>
</g>
<g>
</g>
<g>
</g>
<g>
</g>
<g>
</g>
<g>
</g>
<g>
</g>
<g>
</g>
</svg>
