<?xml version="1.0" encoding="iso-8859-1"?>
<!-- Generator: Adobe Illustrator 19.0.0, SVG Export Plug-In . SVG Version: 6.00 Build 0)  -->
<svg version="1.1" id="Layer_1" xmlns="http://www.w3.org/2000/svg" xmlns:xlink="http://www.w3.org/1999/xlink" x="0px" y="0px"
	 viewBox="0 0 392.533 392.533" style="enable-background:new 0 0 392.533 392.533;" xml:space="preserve">
<path style="fill:#FFFFFF;" d="M370.747,196.267c0-96.194-78.287-174.481-174.481-174.481c-96.194,0-174.481,78.287-174.481,174.481
	s78.287,174.481,174.481,174.481S370.747,292.461,370.747,196.267z"/>
<path style="fill:#FFC10D;" d="M196.267,348.962c-84.17,0-152.695-68.461-152.695-152.695c0-84.17,68.461-152.695,152.695-152.695
	c84.17,0,152.695,68.461,152.695,152.695C348.962,280.436,280.436,348.962,196.267,348.962z"/>
<path style="fill:#56ACE0;" d="M264.598,177.648c0-18.877-16.226-33.939-35.491-32.065c-10.02,1.034-18.877,7.046-24.436,15.451l0,0
	c-4.008,6.077-12.929,6.077-16.937,0c-5.56-8.404-14.352-14.481-24.436-15.451c-19.265-1.875-35.491,13.188-35.491,32.065
	c0,22.238,39.305,64.129,68.331,89.406C225.164,241.39,264.598,199.111,264.598,177.648z"/>
<g>
	<path style="fill:#194F82;" d="M232.339,123.539c-13.511,0-26.246,5.042-36.073,13.834c-9.826-8.792-22.562-13.834-36.073-13.834
		c-29.802,0-54.044,24.242-54.044,54.044c0,42.085,74.667,105.18,83.2,112.226c4.073,3.297,9.956,3.297,13.964-0.065
		c8.469-7.176,83.135-71.111,83.135-112.097C286.448,147.846,262.206,123.539,232.339,123.539z M196.267,267.055
		c-28.962-25.277-68.331-67.232-68.331-89.406c0-18.877,16.226-33.939,35.491-32.065c10.02,1.034,18.877,7.046,24.436,15.451
		c4.008,6.077,12.929,6.077,16.937,0c5.56-8.404,14.352-14.481,24.436-15.451c19.265-1.875,35.491,13.188,35.491,32.065
		C264.663,199.176,225.228,241.39,196.267,267.055z"/>
	<path style="fill:#194F82;" d="M196.267,0C87.984,0,0,87.984,0,196.267s87.984,196.267,196.267,196.267
		s196.267-87.984,196.267-196.267S304.549,0,196.267,0z M196.267,370.747c-96.194,0-174.481-78.287-174.481-174.481
		S100.073,21.786,196.267,21.786s174.481,78.287,174.481,174.481S292.461,370.747,196.267,370.747z"/>
	<path style="fill:#194F82;" d="M187.798,80.873H204.8c6.012,0,10.925-4.848,10.925-10.925s-4.848-10.925-10.925-10.925h-17.002
		c-6.012,0-10.925,4.848-10.925,10.925S181.721,80.873,187.798,80.873z"/>
	<path style="fill:#194F82;" d="M81.002,184.372c0-6.012-4.848-10.925-10.925-10.925H53.01c-6.012,0-10.925,4.848-10.925,10.925
		c0,6.012,4.848,10.925,10.925,10.925h17.067C76.024,195.232,81.002,190.384,81.002,184.372z"/>
	<path style="fill:#194F82;" d="M95.677,249.729H78.61c-6.012,0-10.925,4.848-10.925,10.925c0,6.012,4.848,10.925,10.925,10.925
		h17.067c6.012,0,10.925-4.848,10.925-10.925C106.537,254.578,101.624,249.729,95.677,249.729z"/>
	<path style="fill:#194F82;" d="M247.143,305.907h-17.067c-6.012,0-10.925,4.849-10.925,10.925c0,6.012,4.848,10.925,10.925,10.925
		h17.067c6.012,0,10.925-4.848,10.925-10.925S253.156,305.907,247.143,305.907z"/>
	<path style="fill:#194F82;" d="M146.812,305.907h-17.067c-6.012,0-10.925,4.849-10.925,10.925c0,6.012,4.848,10.925,10.925,10.925
		h17.067c6.012,0,10.925-4.848,10.925-10.925S152.824,305.907,146.812,305.907z"/>
	<path style="fill:#194F82;" d="M100.008,107.96h17.067c6.012,0,10.925-4.848,10.925-10.925c0-6.077-4.848-10.925-10.925-10.925
		h-17.067c-6.012,0-10.925,4.848-10.925,10.925C89.083,103.111,93.931,107.96,100.008,107.96z"/>
	<path style="fill:#194F82;" d="M282.053,115.006h17.067c6.012,0,10.925-4.848,10.925-10.925c0-6.012-4.848-10.925-10.925-10.925
		h-17.067c-6.012,0-10.925,4.848-10.925,10.925C271.127,110.093,276.04,115.006,282.053,115.006z"/>
	<path style="fill:#194F82;" d="M316.186,249.729h-17.067c-6.012,0-10.925,4.848-10.925,10.925c0,6.012,4.848,10.925,10.925,10.925
		h17.067c6.012,0,10.925-4.848,10.925-10.925C327.111,254.578,322.198,249.729,316.186,249.729z"/>
	<path style="fill:#194F82;" d="M335.257,179.523H318.19c-6.012,0-10.925,4.848-10.925,10.925s4.848,10.925,10.925,10.925h17.067
		c6.012,0,10.925-4.848,10.925-10.925S341.204,179.523,335.257,179.523z"/>
</g>
<g>
</g>
<g>
</g>
<g>
</g>
<g>
</g>
<g>
</g>
<g>
</g>
<g>
</g>
<g>
</g>
<g>
</g>
<g>
</g>
<g>
</g>
<g>
</g>
<g>
</g>
<g>
</g>
<g>
</g>
</svg>
