<?xml version="1.0" encoding="iso-8859-1"?>
<!-- Generator: Adobe Illustrator 19.0.0, SVG Export Plug-In . SVG Version: 6.00 Build 0)  -->
<svg version="1.1" id="Layer_1" xmlns="http://www.w3.org/2000/svg" xmlns:xlink="http://www.w3.org/1999/xlink" x="0px" y="0px"
	 viewBox="0 0 392.533 392.533" style="enable-background:new 0 0 392.533 392.533;" xml:space="preserve">
<rect x="143.644" y="89.845" style="fill:#56ACE0;" width="105.244" height="89.535"/>
<g>
	<polygon style="fill:#FFC10D;" points="270.675,183.906 370.747,239.89 370.747,29.401 270.675,85.385 	"/>
	<path style="fill:#FFC10D;" d="M121.794,85.385L21.786,29.401v64.646H64.84c6.012,0,10.925,4.848,10.925,10.925
		c0,6.012-4.848,10.925-10.925,10.925H21.786v21.786h21.269c6.012,0,10.925,4.848,10.925,10.925c0,6.012-4.848,10.925-10.925,10.925
		H21.786v80.356l100.008-55.919C121.794,183.971,121.794,85.385,121.794,85.385z"/>
</g>
<rect x="182.368" y="201.167" style="fill:#56ACE0;" width="27.798" height="169.374"/>
<path style="fill:#194F82;" d="M375.919,1.538L257.034,68.06H135.499L16.614,1.538C9.18-2.664,0,2.702,0,11.3v246.756
	c0,8.469,9.18,13.899,16.614,9.762l118.95-66.521h24.954V370.67h-20.105c-5.43,0-10.408,3.685-11.378,9.051
	c-1.099,6.788,4.073,12.735,10.731,12.735h112.226c5.43,0,10.408-3.685,11.378-9.051c1.099-6.788-4.073-12.735-10.731-12.735
	h-20.622V201.296h24.954l118.949,66.521c7.434,4.202,16.614-1.228,16.614-9.762V11.235C392.533,2.702,383.354-2.664,375.919,1.538z
	 M370.747,239.89l-100.073-56.048V85.385l100.008-55.919v210.489h0.065V239.89z M248.889,179.381H143.644V89.845h105.244
	L248.889,179.381L248.889,179.381z M210.166,370.67h-27.798V201.167h27.798V370.67z M21.786,159.534h21.269
	c6.012,0,10.925-4.848,10.925-10.925c0-6.012-4.848-10.925-10.925-10.925H21.786v-21.851H64.84c6.012,0,10.925-4.848,10.925-10.925
	c0-6.012-4.848-10.925-10.925-10.925H21.786V29.336l100.008,55.919v98.521L21.786,239.89V159.534z"/>
<g>
</g>
<g>
</g>
<g>
</g>
<g>
</g>
<g>
</g>
<g>
</g>
<g>
</g>
<g>
</g>
<g>
</g>
<g>
</g>
<g>
</g>
<g>
</g>
<g>
</g>
<g>
</g>
<g>
</g>
</svg>
