<?xml version="1.0" encoding="iso-8859-1"?>
<!-- Generator: Adobe Illustrator 19.0.0, SVG Export Plug-In . SVG Version: 6.00 Build 0)  -->
<svg version="1.1" id="Layer_1" xmlns="http://www.w3.org/2000/svg" xmlns:xlink="http://www.w3.org/1999/xlink" x="0px" y="0px"
	 viewBox="0 0 512 512" style="enable-background:new 0 0 512 512;" xml:space="preserve">
<circle style="fill:#A8A2A2;" cx="256" cy="256" r="250.495"/>
<polygon style="fill:#BCB6B8;" points="73.049,109.42 27.863,307.391 154.469,466.15 357.53,466.15 484.137,307.391 438.951,109.42 
	256,21.316 "/>
<path style="fill:#EBEAEA;" d="M367.069,345.021l-91.513-31.459H236.44l-87.483,30.214c25.367,29.116,65.394,38.747,107.043,38.747
	C297.648,382.522,341.703,374.137,367.069,345.021z"/>
<path style="fill:#D2CFCE;" d="M178.875,210.586c-2.59,7.52-3.997,15.591-3.997,23.991v0.943l-13.871,24.382
	c-2.256,3.964-0.87,9.006,3.094,11.262c1.289,0.733,2.692,1.081,4.076,1.081c2.595,0,5.116-1.237,6.701-3.446v27.088
	c0,11.529,9.346,20.874,20.874,20.874l32.646-0.116c0,0,4.389,11.031,9.68,25.103l59.056-18.277V210.586H178.875z"/>
<path style="fill:#EBEAEA;" d="M326.198,260.65c0.01-0.003-25.084-67.268-25.084-67.268l-105.56-22.286
	c-12.856,0-23.236,10.444-23.236,23.301s10.423,23.278,23.279,23.278c7.011,0,13.293-3.103,17.561-8.006
	c8.002,28.369,27.792,50.895,52.995,63.077c0.662,16.544,14.275,29.755,30.982,29.755c17.129,0,31.015-13.886,31.015-31.014
	C328.149,267.676,327.456,264.025,326.198,260.65z"/>
<path style="fill:#8C8484;" d="M331.886,204.877l-15.503,29.443l-24.565-12.85v-22.968l-80.786-56.871
	c21.713-7.409,48.524-5.461,73.1,7.399C308.708,161.891,325.599,182.812,331.886,204.877z"/>
<polygon style="fill:#A8A2A2;" points="211.032,144.516 195.551,171.096 291.818,221.47 291.818,198.502 "/>
<path d="M437.019,74.981C388.666,26.628,324.38,0,256,0S123.334,26.628,74.981,74.981C26.63,123.333,0,187.62,0,256
	c0,68.381,26.63,132.667,74.981,181.019C123.334,485.372,187.62,512,256,512s132.666-26.628,181.019-74.981
	C485.371,388.667,512,324.381,512,256C512,187.62,485.371,123.333,437.019,74.981z M491.191,301.182L448.353,113.5
	c29.596,39.848,47.13,89.163,47.13,142.5C495.484,271.444,493.996,286.544,491.191,301.182z M436.953,99.293L265.492,16.722
	C333.849,19.4,394.944,50.85,436.953,99.293z M246.508,16.722l-46.622,22.452c-4.109,1.979-5.837,6.914-3.857,11.023
	c1.98,4.11,6.916,5.836,11.023,3.857L256,30.481l175.786,84.655l43.417,190.215L353.554,457.892H158.446L36.798,305.351
	l43.416-190.215l97.072-46.748c4.109-1.979,5.837-6.914,3.857-11.023c-1.979-4.109-6.911-5.837-11.023-3.857L75.047,99.293
	C117.056,50.85,178.151,19.4,246.508,16.722z M63.648,113.5L20.809,301.182c-2.806-14.638-4.293-29.738-4.293-45.182
	C16.516,202.663,34.051,153.348,63.648,113.5z M24.109,315.929L145.87,468.613C86.282,437.621,41.277,382.319,24.109,315.929z
	 M157.792,474.408h196.418c-29.983,13.536-63.231,21.076-98.209,21.076S187.774,487.944,157.792,474.408z M366.13,468.613
	l121.761-152.684C470.723,382.319,425.718,437.621,366.13,468.613z M369.501,337.128l-64.109-19.753v-7.496
	c17.702-3.804,31.014-19.569,31.014-38.391c0-4.712-0.831-9.329-2.472-13.725l-0.041,0.015c-0.106-0.369-0.231-0.75-0.378-1.143
	l-8.106-21.737l13.788-26.176c0.99-1.881,1.218-4.07,0.635-6.113c-7.191-25.216-26.098-47.413-51.872-60.9
	c-24.37-12.753-51.635-16.015-75.511-9.175l-13.934-9.808c-3.729-2.626-8.882-1.729-11.506,2c-2.626,3.729-1.73,8.881,1.998,11.506
	l11.332,7.977l-10.011,19.073c-14.887,2.502-26.27,15.499-26.27,31.116c0,6.668,2.087,12.855,5.631,17.954
	c-2.029,7.205-3.071,14.659-3.071,22.226v12.387l-11.119,19.544c-2.256,3.965-0.87,9.006,3.095,11.262
	c1.288,0.733,2.691,1.081,4.075,1.081c1.38,0,2.737-0.355,3.948-1.012v18.046c0,16.064,13.069,29.132,29.161,29.132l26.814-0.095
	c1.532,4.24,3.845,10.584,6.536,17.777l-2.714,8.694c-1.359,4.354,1.068,8.985,5.422,10.344c0.819,0.255,1.648,0.378,2.463,0.378
	c3.517,0,6.777-2.265,7.88-5.799l2.486-7.962l52.471-16.24l51.265,15.796c-27.658,17.29-59.289,26.354-92.404,26.354
	c-33.119,0-64.747-9.064-92.403-26.356l8.292-2.555c4.359-1.342,6.804-5.965,5.461-10.323c-1.343-4.358-5.968-6.804-10.324-5.46
	c-12.71,3.915-23.391,7.204-24.409,7.516c-1.654,0.481-3.171,1.481-4.286,2.961c-2.73,3.626-2.023,8.776,1.583,11.53
	c33.579,25.647,73.72,39.204,116.084,39.204c42.359,0,82.5-13.554,116.082-39.196c2.458-1.876,3.661-4.97,3.118-8.015
	C374.656,340.525,372.457,338.039,369.501,337.128z M287.068,205.255c1.446,1.017,3.104,1.506,4.747,1.506
	c2.596,0,5.153-1.221,6.761-3.506c2.626-3.729,1.73-8.881-1.998-11.505l-65.243-45.925c16.054-1.328,33.169,2.249,48.971,10.517
	c20.703,10.833,36.1,28.094,42.689,47.708l-10.079,19.136l-106.203-55.573l7.253-13.817L287.068,205.255z M193.753,179.474
	l115.996,60.697c2.498,6.695,8.39,22.493,8.686,23.294c0.009,0.023,0.018,0.047,0.026,0.072c0.948,2.542,1.429,5.217,1.429,7.951
	c0,12.546-10.207,22.754-22.75,22.756c-0.002,0-0.003,0-0.005,0c-0.002,0-0.003,0-0.006,0c-12.255-0.003-22.235-9.59-22.725-21.828
	c-0.121-3.047-1.913-5.778-4.658-7.105c-23.779-11.494-41.507-32.592-48.64-57.884c-0.824-2.92-3.182-5.153-6.141-5.816
	c-2.96-0.663-6.045,0.348-8.037,2.636c-2.861,3.286-6.991,5.171-11.332,5.171c-8.282,0-15.021-6.739-15.021-15.021
	C180.576,186.716,186.342,180.372,193.753,179.474z M228.37,308.386l-32.617,0.116c-6.957,0-12.616-5.66-12.616-12.616v-3.268h4.43
	c4.562,0,8.258-3.697,8.258-8.258s-3.696-8.258-8.258-8.258h-4.43v-41.524c0-3.659,0.299-7.284,0.895-10.85
	c3.584,1.419,7.483,2.207,11.566,2.207c4.68,0,9.24-1.041,13.382-2.984c9.458,23.473,26.936,43.033,49.435,55.118
	c2.668,15.966,14.84,28.506,30.461,31.821v7.494l-46.221,14.304c-3.795-10.253-6.441-17.71-6.473-17.801
	c-1.169-3.298-4.288-5.5-7.784-5.5C228.389,308.386,228.38,308.386,228.37,308.386z M256,71.57
	c101.694,0,184.43,82.735,184.43,184.43c0,39.641-12.387,77.419-35.823,109.247c-1.619,2.199-4.12,3.363-6.656,3.363
	c-1.701,0-3.417-0.523-4.89-1.609c-3.672-2.704-4.457-7.874-1.753-11.546c21.331-28.973,32.606-63.363,32.606-99.455
	c0-92.588-75.326-167.914-167.914-167.914S88.086,163.412,88.086,256c0,36.092,11.275,70.482,32.605,99.452
	c2.704,3.672,1.919,8.842-1.753,11.546c-3.673,2.704-8.844,1.918-11.546-1.754C83.957,333.418,71.57,295.641,71.57,256
	C71.57,154.305,154.306,71.57,256,71.57z M339.343,411.471c1.967,4.115,0.226,9.045-3.889,11.012
	c-24.91,11.909-51.642,17.948-79.454,17.948c-27.814,0-54.547-6.038-79.458-17.949c-4.114-1.968-5.854-6.898-3.888-11.013
	c1.969-4.115,6.899-5.856,11.013-3.888c22.668,10.838,47.004,16.333,72.333,16.333c25.327,0,49.663-5.494,72.331-16.332
	C332.442,405.616,337.375,407.356,339.343,411.471z"/>
<g>
</g>
<g>
</g>
<g>
</g>
<g>
</g>
<g>
</g>
<g>
</g>
<g>
</g>
<g>
</g>
<g>
</g>
<g>
</g>
<g>
</g>
<g>
</g>
<g>
</g>
<g>
</g>
<g>
</g>
</svg>
