<?xml version="1.0" encoding="iso-8859-1"?>
<!-- Generator: Adobe Illustrator 19.0.0, SVG Export Plug-In . SVG Version: 6.00 Build 0)  -->
<svg version="1.1" id="Layer_1" xmlns="http://www.w3.org/2000/svg" xmlns:xlink="http://www.w3.org/1999/xlink" x="0px" y="0px"
	 viewBox="0 0 512 512" style="enable-background:new 0 0 512 512;" xml:space="preserve">
<circle style="fill:#EBEAEA;" cx="256" cy="256" r="247.83"/>
<circle style="fill:#FFC066;" cx="256" cy="256" r="189.004"/>
<circle style="fill:#FFAD38;" cx="256" cy="256" r="57.191"/>
<path d="M256,453.174c108.723,0,197.174-88.452,197.174-197.174S364.723,58.826,256,58.826S58.826,147.277,58.826,256
	S147.277,453.174,256,453.174z M256,75.166c99.711,0,180.834,81.122,180.834,180.834S355.711,436.834,256,436.834
	S75.166,355.713,75.166,256S156.289,75.166,256,75.166z M156.194,450.503c-1.5,2.666-4.274,4.166-7.129,4.166
	c-1.356,0-2.732-0.339-3.998-1.051C73.729,413.49,29.413,337.767,29.413,256c0-60.585,23.611-117.527,66.48-160.337
	c3.194-3.187,8.365-3.186,11.554,0.009c3.19,3.193,3.185,8.366-0.008,11.554C67.66,146.949,45.753,199.785,45.753,256
	c0,75.872,41.124,146.138,107.325,183.377C157.011,441.589,158.405,446.571,156.194,450.503z M337.929,458.698
	c1.533,4.244-0.663,8.926-4.908,10.461c-24.658,8.911-50.571,13.429-77.021,13.429c-26.448,0-52.359-4.516-77.012-13.425
	c-4.244-1.534-6.44-6.217-4.908-10.461c1.534-4.244,6.22-6.44,10.461-4.908c22.868,8.264,46.91,12.454,71.459,12.454
	c24.551,0,48.596-4.191,71.468-12.457C331.71,452.258,336.395,454.453,337.929,458.698z M482.587,256
	c0,81.769-44.317,157.492-115.656,197.62c-1.266,0.712-2.642,1.051-3.998,1.051c-2.856,0-5.629-1.499-7.129-4.167
	c-2.211-3.933-0.817-8.914,3.116-11.126C425.121,402.14,466.247,331.873,466.247,256c0-56.215-21.907-109.052-61.688-148.775
	c-3.193-3.189-3.197-8.362-0.009-11.554c3.189-3.194,8.361-3.196,11.555-0.009C458.976,138.472,482.587,195.415,482.587,256z
	 M123.164,70.651c-0.333-4.5,3.046-8.419,7.546-8.751l20.397-1.508l12.515-16.175c1.766-2.283,4.601-3.466,7.472-3.108l20.297,2.528
	l15.459-13.394c2.182-1.889,5.2-2.489,7.936-1.575l19.398,6.473l17.776-10.108c2.502-1.425,5.571-1.425,8.078,0l17.774,10.108
	l19.399-6.473c2.739-0.914,5.754-0.315,7.936,1.575l15.459,13.394l20.297-2.528c2.874-0.358,5.706,0.825,7.472,3.108l12.516,16.175
	l20.397,1.508c4.5,0.332,7.878,4.251,7.546,8.751c-0.317,4.294-3.901,7.568-8.14,7.568c-0.203,0-0.405-0.008-0.611-0.023
	l-24.028-1.777c-2.312-0.171-4.441-1.315-5.86-3.148L338.301,57.9l-19.285,2.403c-2.302,0.288-4.61-0.416-6.361-1.933l-14.69-12.728
	l-18.44,6.153c-2.199,0.734-4.607,0.499-6.625-0.648L256,41.535l-16.906,9.614c-2.016,1.147-4.424,1.383-6.624,0.648l-18.439-6.153
	l-14.69,12.728c-1.751,1.516-4.064,2.219-6.361,1.933l-19.285-2.403l-11.895,15.371c-1.418,1.833-3.548,2.977-5.86,3.148
	l-24.028,1.777C127.429,78.533,123.495,75.151,123.164,70.651z M437.019,74.981C388.667,26.628,324.38,0,256,0
	S123.333,26.628,74.981,74.981C26.628,123.332,0,187.62,0,256s26.628,132.668,74.981,181.019C123.333,485.372,187.62,512,256,512
	s132.667-26.628,181.019-74.981C485.372,388.668,512,324.38,512,256S485.372,123.332,437.019,74.981z M256,495.66
	c-132.149,0-239.66-107.51-239.66-239.66S123.851,16.34,256,16.34S495.66,123.851,495.66,256S388.149,495.66,256,495.66z
	 M120.182,232.307c20.845,3.001,30.736,6.112,41.208,9.407c9.223,2.901,18.722,5.887,35.536,8.709
	c-0.172,1.838-0.27,3.695-0.27,5.576c0,1.551,0.078,3.084,0.197,4.606c-15.879,4.674-25.03,6.007-34.638,7.401
	c-11.031,1.599-22.436,3.254-43.781,9.993c-4.303,1.358-6.691,5.947-5.332,10.251c1.1,3.485,4.319,5.713,7.789,5.713
	c0.815,0,1.644-0.123,2.462-0.381c20.083-6.339,30.344-7.828,41.208-9.404c9.565-1.387,19.423-2.821,35.79-7.571
	c1.192,3.207,2.661,6.279,4.366,9.199c-12.283,11.106-19.951,16.278-28.005,21.704c-9.243,6.228-18.801,12.667-35.109,28
	c-3.288,3.091-3.447,8.262-0.355,11.549c1.608,1.71,3.778,2.574,5.953,2.574c2.008,0,4.018-0.734,5.596-2.218
	c15.343-14.425,23.943-20.22,33.047-26.353c8.022-5.405,16.288-10.979,28.991-22.378c2.442,2.357,5.076,4.515,7.894,6.428
	c-6.249,15.336-10.912,23.315-15.814,31.698c-5.627,9.621-11.444,19.571-19.484,40.461c-1.621,4.21,0.478,8.939,4.69,10.559
	c0.966,0.371,1.958,0.547,2.933,0.547c3.282,0,6.377-1.991,7.627-5.238c7.565-19.654,12.799-28.606,18.34-38.082
	c4.88-8.346,9.907-16.944,16.4-32.71c3.195,1.057,6.505,1.855,9.912,2.356c1.023,16.516,0.284,25.723-0.495,35.4
	c-0.893,11.11-1.818,22.599,0.001,44.909c0.349,4.271,3.924,7.507,8.135,7.507c0.222,0,0.447-0.009,0.672-0.027
	c4.498-0.366,7.846-4.311,7.48-8.807c-1.712-20.991-0.881-31.327,0-42.269c0.776-9.638,1.573-19.564,0.584-36.588
	c3.415-0.446,6.745-1.165,9.956-2.168c8.083,14.429,11.415,23.049,14.911,32.103c4.014,10.397,8.166,21.149,19.484,40.459
	c1.521,2.595,4.252,4.039,7.057,4.039c1.403,0,2.826-0.362,4.124-1.123c3.892-2.281,5.198-7.287,2.917-11.18
	c-10.65-18.168-14.385-27.842-18.339-38.083c-3.483-9.022-7.078-18.319-15.359-33.233c2.845-1.867,5.521-3.971,7.999-6.286
	c13.568,9.508,20.319,15.834,27.403,22.481c8.129,7.627,16.533,15.511,35.11,27.999c1.398,0.94,2.982,1.39,4.55,1.39
	c2.629,0,5.21-1.268,6.788-3.613c2.518-3.745,1.522-8.822-2.223-11.339c-17.478-11.749-25.039-18.843-33.045-26.354
	c-7.051-6.615-14.321-13.431-28.247-23.27c1.752-2.893,3.251-5.953,4.496-9.14c16.337,2.678,25.153,5.449,34.416,8.362
	c10.632,3.344,21.626,6.802,43.78,9.992c0.395,0.057,0.788,0.085,1.175,0.085c3.996,0,7.49-2.936,8.077-7.007
	c0.643-4.466-2.457-8.608-6.922-9.251c-20.845-3.001-30.736-6.112-41.208-9.407c-9.223-2.901-18.722-5.887-35.536-8.709
	c0.172-1.838,0.27-3.695,0.27-5.576c0-1.551-0.078-3.084-0.197-4.606c15.879-4.674,25.03-6.008,34.638-7.401
	c11.031-1.6,22.436-3.255,43.781-9.994c4.303-1.358,6.691-5.947,5.332-10.251c-1.358-4.304-5.95-6.69-10.251-5.331
	c-20.083,6.339-30.344,7.828-41.208,9.404c-9.566,1.387-19.424,2.821-35.79,7.571c-1.193-3.208-2.662-6.28-4.366-9.2
	c4.93-4.455,9.514-8.311,13.904-11.696c3.572-2.756,4.235-7.887,1.478-11.46c-2.757-3.574-7.888-4.234-11.46-1.478
	c-4.47,3.448-9.106,7.335-14.038,11.759c-2.443-2.357-5.079-4.516-7.896-6.43c6.249-15.336,10.911-23.315,15.814-31.698
	c5.627-9.621,11.444-19.57,19.484-40.461c1.621-4.21-0.478-8.939-4.69-10.559c-4.218-1.621-8.94,0.479-10.559,4.691
	c-7.565,19.654-12.799,28.606-18.34,38.082c-4.88,8.346-9.907,16.944-16.4,32.71c-3.196-1.057-6.505-1.855-9.913-2.356
	c-1.022-16.516-0.283-25.723,0.496-35.4c0.893-11.11,1.818-22.599-0.001-44.909c-0.367-4.497-4.31-7.853-8.807-7.478
	c-4.498,0.366-7.846,4.311-7.48,8.807c1.712,20.991,0.881,31.327,0,42.269c-0.776,9.638-1.573,19.564-0.584,36.588
	c-3.415,0.446-6.745,1.165-9.956,2.168c-8.083-14.429-11.415-23.049-14.911-32.103c-4.014-10.397-8.166-21.149-19.484-40.46
	c-2.282-3.893-7.287-5.2-11.181-2.917c-3.892,2.281-5.198,7.287-2.917,11.18c10.65,18.168,14.385,27.842,18.339,38.083
	c3.483,9.022,7.078,18.319,15.359,33.233c-2.845,1.867-5.521,3.971-8,6.286c-13.567-9.508-20.318-15.834-27.402-22.481
	c-8.129-7.626-16.533-15.511-35.11-27.999c-3.743-2.516-8.821-1.522-11.338,2.223c-2.518,3.745-1.522,8.822,2.223,11.339
	c17.478,11.749,25.039,18.843,33.045,26.354c7.051,6.615,14.321,13.431,28.247,23.27c-1.752,2.893-3.251,5.953-4.496,9.14
	c-16.337-2.678-25.152-5.449-34.416-8.362c-10.632-3.344-21.626-6.802-43.78-9.992c-4.46-0.642-8.608,2.455-9.252,6.922
	C112.617,227.522,115.716,231.665,120.182,232.307z M256,212.996c23.712,0,43.004,19.29,43.004,43.004S279.712,299.004,256,299.004
	S212.996,279.712,212.996,256S232.288,212.996,256,212.996z M337.038,193.608c-2.717-3.603-1.999-8.726,1.604-11.443
	c6.434-4.853,12.968-10.439,20.564-17.58c3.289-3.089,8.459-2.931,11.549,0.356c3.092,3.288,2.931,8.458-0.355,11.549
	c-8.036,7.556-15.002,13.504-21.917,18.721c-1.474,1.111-3.201,1.648-4.914,1.648C341.09,196.859,338.643,195.738,337.038,193.608z
	 M231.937,247.141c0-4.512,3.657-8.17,8.17-8.17h31.785c4.513,0,8.17,3.658,8.17,8.17s-3.657,8.17-8.17,8.17h-7.722v7.184
	c0,4.512-3.657,8.17-8.17,8.17s-8.17-3.658-8.17-8.17v-7.184h-7.722C235.595,255.312,231.937,251.653,231.937,247.141z"/>
<g>
</g>
<g>
</g>
<g>
</g>
<g>
</g>
<g>
</g>
<g>
</g>
<g>
</g>
<g>
</g>
<g>
</g>
<g>
</g>
<g>
</g>
<g>
</g>
<g>
</g>
<g>
</g>
<g>
</g>
</svg>
