<?xml version="1.0" encoding="iso-8859-1"?>
<!-- Generator: Adobe Illustrator 19.0.0, SVG Export Plug-In . SVG Version: 6.00 Build 0)  -->
<svg version="1.1" id="Layer_1" xmlns="http://www.w3.org/2000/svg" xmlns:xlink="http://www.w3.org/1999/xlink" x="0px" y="0px"
	 viewBox="0 0 512.001 512.001" style="enable-background:new 0 0 512.001 512.001;" xml:space="preserve">
<g>
	<g>
		<path d="M463.681,85.654l-74.453-39.573c-0.107-1.92-0.853-3.733-1.92-5.333L361.601,4.374c-1.387-1.707-3.2-2.987-5.333-3.627
			c-0.213-0.107-0.427-0.107-0.533-0.107c-0.747-0.32-1.493-0.533-2.24-0.64c-0.213,0-0.64,0-0.64,0l-0.854,1.068h-192
			c-0.213-1.067-0.427-0.96-0.533-0.96c-0.106,0-0.427-0.107-0.64-0.107c-3.413,0.107-6.507,1.707-8.427,4.48l-25.707,36.267
			c-1.387,2.027-2.027,4.48-1.813,6.933L48.534,85.654c-3.627,1.813-5.867,5.547-5.867,9.493v406.187
			c0,5.867,4.8,10.667,10.667,10.667h405.333c5.867,0,10.667-4.8,10.667-10.667V95.041
			C469.334,91.094,467.201,87.468,463.681,85.654z M366.081,47.894l-58.133,111.893l-37.867-50.986
			c31.147-30.933,65.173-64.96,81.493-81.493L366.081,47.894z M282.134,160.854l-26.133,34.774l-26.133-34.773l26.133-35.2
			L282.134,160.854z M327.468,21.334c-18.24,18.347-47.574,47.574-71.467,71.36c-23.893-23.787-53.227-53.013-71.467-71.36H327.468z
			 M146.134,47.894l14.507-20.587c16.32,16.533,50.347,50.453,81.493,81.493l-37.973,50.987L146.134,48.001V47.894z M64.001,490.667
			V102.294l67.733-34.56l61.013,117.44c1.707,3.307,4.907,5.44,8.64,5.76h0.853c3.307,0,6.507-1.6,8.533-4.267l5.547-7.573
			l27.947,37.12l-61.013,274.453H64.001z M205.228,490.668l50.773-228.16l50.667,228.16H205.228z M448.001,490.668H328.748
			l-61.013-274.453l27.84-37.12l5.653,7.573c2.027,2.667,5.12,4.267,8.533,4.267h0.853c3.627-0.32,6.933-2.453,8.64-5.76
			l61.653-118.72l67.094,35.733V490.668z"/>
	</g>
</g>
<g>
</g>
<g>
</g>
<g>
</g>
<g>
</g>
<g>
</g>
<g>
</g>
<g>
</g>
<g>
</g>
<g>
</g>
<g>
</g>
<g>
</g>
<g>
</g>
<g>
</g>
<g>
</g>
<g>
</g>
</svg>
