<?xml version="1.0" encoding="iso-8859-1"?>
<!-- Generator: Adobe Illustrator 19.0.0, SVG Export Plug-In . SVG Version: 6.00 Build 0)  -->
<svg version="1.1" id="Layer_1" xmlns="http://www.w3.org/2000/svg" xmlns:xlink="http://www.w3.org/1999/xlink" x="0px" y="0px"
	 viewBox="0 0 512 512" style="enable-background:new 0 0 512 512;" xml:space="preserve">
<g>
	<g>
		<path d="M489.101,457.266h-17.879V179.294c12.196-0.508,21.934-10.529,21.934-22.85c0-12.646-10.253-22.899-22.899-22.899h-12.355
			l-67.362-68.322C354.753,28.926,306.973,8.935,256,8.935s-98.753,19.991-134.542,56.288l-67.362,68.322H41.741
			c-12.646,0-22.899,10.253-22.899,22.899c0,12.321,9.738,22.341,21.934,22.85v277.974H22.899C10.253,457.268,0,467.52,0,480.166
			s10.253,22.899,22.899,22.899h466.203c12.646,0,22.899-10.253,22.899-22.899S501.747,457.266,489.101,457.266z M154.069,97.376
			C181.184,69.878,217.382,54.732,256,54.732s74.816,15.144,101.93,42.644l35.661,36.168H118.409L154.069,97.376z M263.943,438.341
			h-15.886v-75.445h15.886V438.341z M330.706,438.341H309.74v-98.344c0-12.646-10.253-22.899-22.899-22.899h-61.683
			c-12.646,0-22.899,10.253-22.899,22.899v98.344h-20.966V269.023h149.413V438.341z M425.425,457.268h-29.313
			c-1.717-9.804-9.656-17.447-19.606-18.719V268.816c11.262-1.44,19.974-11.039,19.974-22.691c0-12.646-10.253-22.899-22.899-22.899
			H138.42c-12.646,0-22.899,10.253-22.899,22.899c0,11.654,8.712,21.252,19.974,22.691v169.733
			c-9.95,1.272-17.888,8.915-19.606,18.719H86.575V179.343h338.849V457.268z"/>
	</g>
</g>
<g>
</g>
<g>
</g>
<g>
</g>
<g>
</g>
<g>
</g>
<g>
</g>
<g>
</g>
<g>
</g>
<g>
</g>
<g>
</g>
<g>
</g>
<g>
</g>
<g>
</g>
<g>
</g>
<g>
</g>
</svg>
