<?xml version="1.0" encoding="iso-8859-1"?>
<!-- Generator: Adobe Illustrator 19.0.0, SVG Export Plug-In . SVG Version: 6.00 Build 0)  -->
<svg version="1.1" id="Layer_1" xmlns="http://www.w3.org/2000/svg" xmlns:xlink="http://www.w3.org/1999/xlink" x="0px" y="0px"
	 viewBox="0 0 512.001 512.001" style="enable-background:new 0 0 512.001 512.001;" xml:space="preserve">
<g>
	<g>
		<path d="M143.071,45.427c-21.586,3.347-36.373,23.56-33.026,45.147s23.56,36.373,45.147,33.026
			c7.92-1.228,14.918-4.732,20.448-9.735c-2.015-7.225-1.943-15.111,0.679-22.741c2.274-6.616,6.184-12.2,11.115-16.477
			C182.438,55.16,163.364,42.281,143.071,45.427z"/>
	</g>
</g>
<g>
	<g>
		<circle cx="382.143" cy="42.32" r="42.32"/>
	</g>
</g>
<g>
	<g>
		<path d="M271.914,253.68l-61.591-42.187l-50.758-51.221l54.009,32.048l-4.562-29.419c-2.435-15.701-16.309-26.584-30.989-24.308
			l-34.98,4.739c-14.282,1.934-25.975,15.099-23.468,31.403c0.85,5.527,21.671,140.921,22.517,146.418v168.15
			c0,12.382,10.038,22.42,22.42,22.42c12.382,0,22.42-10.038,22.42-22.42V315.028l17.436-2.445v176.718
			c0,7.433-2.041,14.387-5.584,20.343c2.856,1.319,6.026,2.076,9.378,2.076c12.382,0,22.42-10.038,22.42-22.42l-0.826-197.459
			l-55.881-41.866l-39.395-64.843l51.939,52.412c0.785,0.793,1.644,1.509,2.564,2.139l62.974,43.135
			c8.052,5.515,19.039,3.452,24.55-4.589C282.015,270.182,279.961,259.191,271.914,253.68z"/>
	</g>
</g>
<g>
	<g>
		<path d="M96.863,46.808L52.995,22.271c-4.03-2.254-9.13-0.813-11.384,3.218c-2.254,4.032-0.814,9.129,3.218,11.384l43.868,24.536
			c4.033,2.255,9.129,0.813,11.384-3.218C102.335,54.16,100.895,49.064,96.863,46.808z"/>
	</g>
</g>
<g>
	<g>
		<path d="M95.184,80.406c-0.26-4.613-4.241-8.143-8.821-7.882l-64.687,3.638c-4.613,0.259-8.142,4.208-7.882,8.821
			c0.251,4.453,3.939,7.895,8.344,7.895c0.158,0,0.318-0.004,0.477-0.013l64.687-3.638C91.915,88.968,95.443,85.019,95.184,80.406z"
			/>
	</g>
</g>
<g>
	<g>
		<path d="M498.076,167.376c-0.68-5.507-3.713-10.451-8.316-13.553c-74.175-49.987-68.757-46.433-70.566-47.339
			c-4.296-3.848-9.792-6.122-15.719-6.122c-16.832,0-27.499,0-42.663,0c-5.055,0-9.8,1.673-13.758,4.56l23.734,3.374l-60.169,8.717
			l-91.796-31.556c-10.019-3.446-20.928,1.886-24.37,11.901c-3.444,10.015,1.885,20.927,11.901,24.37l96.185,33.065
			c2.816,0.968,5.883,1.292,8.985,0.844l64.764-9.383l-48.159,22.025l-29.224,159.714c-1.288,7.04,3.699,13.559,10.286,13.559
			c3.106,0,27.199,0,30.63,0v145.944c0,13.533,10.97,24.504,24.503,24.504s24.503-10.971,24.503-24.504V341.553
			c4.979,0,9.926,0,14.776,0v145.944c0,8.434-2.68,16.248-7.221,22.655c2.88,1.189,6.034,1.849,9.343,1.849
			c13.533,0,24.504-10.971,24.504-24.504V341.553c9.806,0,18.377,0,24.863,0c6.576,0,11.572-6.533,10.286-13.559l-17.386-95.023
			l45.312-50.428C497.016,178.415,498.756,172.883,498.076,167.376z M439.272,185.294l-4.016-21.951l14.787,9.965L439.272,185.294z"
			/>
	</g>
</g>
<g>
</g>
<g>
</g>
<g>
</g>
<g>
</g>
<g>
</g>
<g>
</g>
<g>
</g>
<g>
</g>
<g>
</g>
<g>
</g>
<g>
</g>
<g>
</g>
<g>
</g>
<g>
</g>
<g>
</g>
</svg>
