<?xml version="1.0" encoding="iso-8859-1"?>
<!-- Generator: Adobe Illustrator 19.0.0, SVG Export Plug-In . SVG Version: 6.00 Build 0)  -->
<svg version="1.1" id="Layer_1" xmlns="http://www.w3.org/2000/svg" xmlns:xlink="http://www.w3.org/1999/xlink" x="0px" y="0px"
	 viewBox="0 0 512.001 512.001" style="enable-background:new 0 0 512.001 512.001;" xml:space="preserve">
<g>
	<g>
		<path d="M205.837,147.879c-12.969-7.723-35.785-18.681-54.841-18.428c-3.855,8.107-9.604,23.454-9.604,42.858
			c0,19.385,5.737,34.718,9.61,42.858c0.206,0.002,0.414,0.003,0.621,0.003c18.929,0,41.378-10.789,54.216-18.433v-48.858H205.837z"
			/>
	</g>
</g>
<g>
	<g>
		<rect x="239.277" y="155.593" width="33.442" height="33.442"/>
	</g>
</g>
<g>
	<g>
		<path d="M457.844,94.911l-55.605,55.605c1.116,6.713,1.811,14.004,1.811,21.795c0,39.787-17.998,66.817-18.765,67.949
			l-3.884,5.735l-6.803,1.308c-4.703,0.904-9.467,1.308-14.229,1.308c-32.399,0-64.644-18.706-76.176-26.137h-11.473v289.528H509.6
			V111.473L457.844,94.911z M323.558,471.591c-9.234,0-16.721-7.487-16.721-16.721s7.486-16.721,16.721-16.721
			c9.234,0,16.721,7.487,16.721,16.721S332.792,471.591,323.558,471.591z M323.558,397.741c-9.234,0-16.721-7.487-16.721-16.721
			s7.486-16.721,16.721-16.721c9.234,0,16.721,7.487,16.721,16.721S332.792,397.741,323.558,397.741z M323.558,323.89
			c-9.234,0-16.721-7.486-16.721-16.721s7.486-16.721,16.721-16.721c9.234,0,16.721,7.487,16.721,16.721
			S332.792,323.89,323.558,323.89z"/>
	</g>
</g>
<g>
	<g>
		<path d="M361,129.452c-0.206-0.003-0.414-0.004-0.621-0.004c-18.929,0-41.379,10.791-54.217,18.434v48.855
			c12.837,7.644,35.287,18.434,54.217,18.434c0.208,0,0.418-0.001,0.626-0.003c3.855-8.107,9.604-23.454,9.604-42.858
			C370.61,152.925,364.873,137.592,361,129.452z"/>
	</g>
</g>
<g>
	<g>
		<path d="M227.807,222.472c-11.533,7.431-43.781,26.137-76.176,26.137c-4.764,0-9.524-0.404-14.229-1.308l-6.803-1.308
			l-3.884-5.735c-0.767-1.131-18.765-28.162-18.765-67.949c0-7.79,0.697-15.081,1.811-21.795L54.158,94.911L2.401,111.473V512
			H239.28V222.472H227.807z"/>
	</g>
</g>
<g>
	<g>
		<path d="M164.063,0H72.071v65.531l49.003,49.004c2.984-6.191,5.372-9.778,5.641-10.174l3.884-5.735l6.803-1.308
			c19.825-3.809,40.757,1.261,57.901,8.071L164.063,0z"/>
	</g>
</g>
<g>
	<g>
		<polygon points="198.944,0 235.151,122.147 276.849,122.147 313.057,0 		"/>
	</g>
</g>
<g>
	<g>
		<path d="M347.938,0l-31.241,105.392c17.148-6.811,38.081-11.883,57.902-8.074l6.804,1.308l3.884,5.735
			c0.269,0.397,2.655,3.983,5.641,10.174l49.003-49.003V0H347.938z"/>
	</g>
</g>
<g>
</g>
<g>
</g>
<g>
</g>
<g>
</g>
<g>
</g>
<g>
</g>
<g>
</g>
<g>
</g>
<g>
</g>
<g>
</g>
<g>
</g>
<g>
</g>
<g>
</g>
<g>
</g>
<g>
</g>
</svg>
