<?xml version="1.0" encoding="iso-8859-1"?>
<!-- Generator: Adobe Illustrator 19.0.0, SVG Export Plug-In . SVG Version: 6.00 Build 0)  -->
<svg version="1.1" id="Layer_1" xmlns="http://www.w3.org/2000/svg" xmlns:xlink="http://www.w3.org/1999/xlink" x="0px" y="0px"
	 viewBox="0 0 511.999 511.999" style="enable-background:new 0 0 511.999 511.999;" xml:space="preserve">
<g>
	<g>
		<path d="M498.866,65.656c-7.761-0.277-14.146,5.942-14.146,13.631V170.9c0,5.022-4.071,9.093-9.093,9.093h-37.513
			c-5.022,0-9.093-4.071-9.093-9.093V79.831c0-7.559-5.892-13.918-13.134-14.175c-7.776-0.277-14.146,5.942-14.146,13.631V170.9
			c0,5.022-4.071,9.093-9.093,9.093h-31.207c-5.022,0-9.093-4.071-9.093-9.093v-22.328c0-17.901-13.991-32.67-31.851-33.62
			c-4.827-0.257-8.61-4.247-8.61-9.081V30.573c0-7.559-5.892-13.918-13.134-14.175c-7.752-0.282-14.146,5.942-14.146,13.631v78.486
			c0,17.901,13.991,32.67,31.851,33.62c4.827,0.257,8.61,4.247,8.61,9.081v22.39c0,18.565,15.104,33.669,33.669,33.669h9.979
			c5.022,0,9.093,4.071,9.093,9.093v87.553c0,5.022-4.071,9.093-9.093,9.093h-55.624c-5.022,0-9.093-4.071-9.093-9.093v-25.101
			c0-7.559-5.892-13.918-13.134-14.175c-7.755-0.282-14.146,5.942-14.146,13.631v25.645c0,5.022-4.071,9.093-9.093,9.093h-34.211
			c-5.022,0-9.093-4.071-9.093-9.093V30.573c0-7.559-5.892-13.918-13.134-14.175c-7.763-0.282-14.146,5.942-14.146,13.631v273.89
			c0,5.022-4.071,9.093-9.093,9.093H81.896c-5.022,0-9.093-4.071-9.093-9.093v-90.192c0-5.022,4.071-9.093,9.093-9.093h35.523
			c18.565,0,33.669-15.104,33.669-33.669v-39.239c0-7.559-5.892-13.918-13.134-14.175c-7.768-0.288-14.146,5.942-14.146,13.631
			v37.08c0,5.022-4.071,9.093-9.093,9.093H81.896c-5.022,0-9.093-4.072-9.093-9.093V90.386c0-7.559-5.892-13.918-13.134-14.175
			c-7.76-0.283-14.146,5.941-14.146,13.631v214.078c0,5.022-4.071,9.093-9.093,9.093H13.412C6.016,313.012,0,319.028,0,326.425
			v0.455c0,7.395,6.016,13.412,13.412,13.412h219.909c5.022,0,9.093,4.071,9.093,9.093v42.494c0,5.022-4.072,9.093-9.093,9.093
			H54.591c-7.559,0-13.918,5.892-14.175,13.134c-0.133,3.746,1.222,7.289,3.813,9.976c2.595,2.688,6.081,4.169,9.816,4.169h179.276
			c5.022,0,9.093,4.071,9.093,9.093v58.266h27.28V349.385c0-5.022,4.071-9.093,9.093-9.093h92.632
			c18.565,0,33.668-15.104,33.668-33.668v-90.258c0-5.022,4.071-9.093,9.093-9.093h64.15c18.565,0,33.669-15.104,33.669-33.669
			V79.831C512,72.271,506.108,65.913,498.866,65.656z"/>
	</g>
</g>
<g>
</g>
<g>
</g>
<g>
</g>
<g>
</g>
<g>
</g>
<g>
</g>
<g>
</g>
<g>
</g>
<g>
</g>
<g>
</g>
<g>
</g>
<g>
</g>
<g>
</g>
<g>
</g>
<g>
</g>
</svg>
