<?xml version="1.0" encoding="iso-8859-1"?>
<!-- Generator: Adobe Illustrator 19.0.0, SVG Export Plug-In . SVG Version: 6.00 Build 0)  -->
<svg version="1.1" id="Layer_1" xmlns="http://www.w3.org/2000/svg" xmlns:xlink="http://www.w3.org/1999/xlink" x="0px" y="0px"
	 viewBox="0 0 511.883 511.883" style="enable-background:new 0 0 511.883 511.883;" xml:space="preserve">
<path style="fill:#5D9CEC;" d="M255.941,0.001C114.583,0.001,0,114.599,0,255.941c0,141.357,114.583,255.941,255.941,255.941
	c141.359,0,255.941-114.584,255.941-255.941C511.882,114.599,397.3,0.001,255.941,0.001z M254.597,361.432
	c-58.893,0-106.647-47.739-106.647-106.647c0-58.893,47.755-106.632,106.647-106.632c58.894,0,106.648,47.739,106.648,106.632
	C361.246,313.694,313.491,361.432,254.597,361.432z"/>
<path style="fill:#48CFAD;" d="M255.941,0.001c-0.453,0-0.891,0.016-1.344,0.016v148.138c58.894,0,106.648,47.739,106.648,106.632
	c0,19.589-5.296,37.944-14.513,53.722l130.829,75.529c21.824-37.679,34.32-81.418,34.32-128.095
	C511.882,114.599,397.3,0.001,255.941,0.001z"/>
<g>
	<path style="fill:#37BC9B;" d="M254.597,96.634v24.635L394.316,40.6c-6.889-4.437-13.997-8.545-21.323-12.325L254.597,96.634z"/>
	<path style="fill:#37BC9B;" d="M254.597,47.38v24.636l94.479-54.534c-8.857-3.453-17.948-6.437-27.243-8.904L254.597,47.38z"/>
	<path style="fill:#37BC9B;" d="M394.457,336.047l117.129-67.609c0.188-4.141,0.297-8.311,0.297-12.497
		c0-4.062-0.094-8.123-0.281-12.139l-138.468,79.935L394.457,336.047z"/>
	<path style="fill:#37BC9B;" d="M437.119,360.682l66-38.101c2.453-9.154,4.422-18.496,5.874-28.024l-93.213,53.815L437.119,360.682z
		"/>
	<path style="fill:#37BC9B;" d="M505.337,198.158l-148.045,85.465c-2.468,8.811-6.045,17.152-10.56,24.885l5.062,2.922
		l157.636-91.011C508.383,212.889,507.025,205.467,505.337,198.158z"/>
	<path style="fill:#37BC9B;" d="M361.246,254.785c0,0.656-0.016,1.297-0.031,1.952l138.234-79.81
		c-2.234-6.889-4.75-13.653-7.546-20.276l-132.829,76.686C360.496,240.272,361.246,247.443,361.246,254.785z"/>
	<path style="fill:#37BC9B;" d="M352.513,212.499l130.267-75.202c-3.312-6.311-6.873-12.466-10.685-18.464l-129.971,75.045
		C346.186,199.688,349.67,205.921,352.513,212.499z"/>
	<path style="fill:#37BC9B;" d="M327.972,177.412l131.891-76.139c-4.357-5.749-8.967-11.31-13.793-16.668l-136.484,78.794
		C316.224,167.398,322.379,172.117,327.972,177.412z"/>
	<path style="fill:#37BC9B;" d="M430.636,68.89c-5.516-5.139-11.248-10.044-17.199-14.699l-158.84,91.697v2.266
		c10.732,0,21.105,1.594,30.885,4.546L430.636,68.89z"/>
</g>
<g>
</g>
<g>
</g>
<g>
</g>
<g>
</g>
<g>
</g>
<g>
</g>
<g>
</g>
<g>
</g>
<g>
</g>
<g>
</g>
<g>
</g>
<g>
</g>
<g>
</g>
<g>
</g>
<g>
</g>
</svg>
