<?xml version="1.0" encoding="iso-8859-1"?>
<!-- Generator: Adobe Illustrator 19.0.0, SVG Export Plug-In . SVG Version: 6.00 Build 0)  -->
<svg version="1.1" id="Layer_1" xmlns="http://www.w3.org/2000/svg" xmlns:xlink="http://www.w3.org/1999/xlink" x="0px" y="0px"
	 viewBox="0 0 512 512" style="enable-background:new 0 0 512 512;" xml:space="preserve">
<g>
	<g>
		<path d="M490.667,0H21.333C9.552,0,0,9.551,0,21.333v128v341.333C0,502.449,9.552,512,21.333,512h469.333
			c11.782,0,21.333-9.551,21.333-21.333V149.333v-128C512,9.551,502.45,0,490.667,0z M469.334,469.334H42.667v-0.001V170.667
			h426.667V469.334z M469.334,128H42.667V42.667h426.667V128z"/>
	</g>
</g>
<g>
	<g>
		<path d="M85.333,64C73.557,64,64,73.557,64,85.333s9.557,21.333,21.333,21.333s21.333-9.557,21.333-21.333S97.109,64,85.333,64z"
			/>
	</g>
</g>
<g>
	<g>
		<path d="M149.333,64C137.557,64,128,73.557,128,85.333s9.557,21.333,21.333,21.333s21.333-9.557,21.333-21.333
			S161.109,64,149.333,64z"/>
	</g>
</g>
<g>
	<g>
		<path d="M213.333,64C201.557,64,192,73.557,192,85.333s9.557,21.333,21.333,21.333s21.333-9.557,21.333-21.333
			S225.109,64,213.333,64z"/>
	</g>
</g>
<g>
	<g>
		<path d="M447.895,211.228c-0.031-0.316-0.09-0.622-0.135-0.933c-0.054-0.377-0.098-0.755-0.172-1.13
			c-0.071-0.358-0.169-0.705-0.258-1.056c-0.081-0.323-0.152-0.648-0.249-0.968c-0.104-0.345-0.234-0.678-0.355-1.015
			c-0.115-0.319-0.22-0.641-0.35-0.956s-0.284-0.616-0.428-0.923c-0.153-0.324-0.297-0.651-0.467-0.969
			c-0.158-0.294-0.337-0.574-0.508-0.86c-0.186-0.311-0.362-0.626-0.565-0.93c-0.211-0.316-0.447-0.613-0.674-0.917
			c-0.19-0.253-0.366-0.513-0.568-0.76c-0.443-0.539-0.909-1.058-1.402-1.551c-0.004-0.004-0.007-0.008-0.011-0.012
			c-0.004-0.004-0.008-0.006-0.011-0.01c-0.494-0.493-1.012-0.96-1.552-1.403c-0.247-0.203-0.507-0.379-0.761-0.569
			c-0.303-0.227-0.6-0.462-0.916-0.673c-0.304-0.203-0.619-0.379-0.931-0.565c-0.286-0.171-0.565-0.35-0.859-0.508
			c-0.318-0.17-0.644-0.314-0.969-0.467c-0.307-0.145-0.609-0.298-0.923-0.429c-0.315-0.13-0.637-0.236-0.957-0.35
			c-0.337-0.121-0.669-0.25-1.013-0.354c-0.32-0.097-0.646-0.168-0.969-0.249c-0.351-0.089-0.698-0.187-1.055-0.258
			c-0.375-0.074-0.753-0.119-1.13-0.173c-0.311-0.044-0.617-0.104-0.933-0.135c-0.7-0.069-1.403-0.106-2.105-0.106h-85.333
			C329.552,192,320,201.551,320,213.333c0,11.782,9.551,21.333,21.333,21.333h33.83l-91.582,91.582
			c-8.331,8.331-8.331,21.839,0,30.17s21.839,8.331,30.17,0l91.582-91.582v33.83c0,11.782,9.551,21.333,21.333,21.333
			c11.782,0,21.334-9.55,21.334-21.332v-85.332C448,212.631,447.964,211.928,447.895,211.228z"/>
	</g>
</g>
<g>
	<g>
		<path d="M228.419,283.581c-8.331-8.331-21.839-8.33-30.171,0.001l-91.582,91.582v-33.83c0-11.782-9.551-21.333-21.333-21.333
			C73.552,320,64,329.551,64,341.333v85.333c0,0.007,0.001,0.015,0.001,0.022c0.001,0.695,0.037,1.39,0.105,2.083
			c0.031,0.318,0.091,0.627,0.136,0.941c0.054,0.375,0.097,0.75,0.171,1.122c0.071,0.359,0.17,0.708,0.259,1.061
			c0.081,0.322,0.152,0.645,0.248,0.964c0.105,0.346,0.234,0.68,0.356,1.018c0.114,0.318,0.219,0.639,0.349,0.953
			c0.131,0.315,0.284,0.618,0.43,0.925c0.153,0.324,0.296,0.65,0.466,0.967c0.158,0.295,0.338,0.575,0.509,0.861
			c0.185,0.311,0.361,0.625,0.564,0.928c0.212,0.316,0.447,0.614,0.675,0.918c0.19,0.253,0.365,0.513,0.567,0.759
			c0.443,0.54,0.91,1.059,1.403,1.552c0.004,0.004,0.006,0.008,0.01,0.011c0.004,0.004,0.008,0.007,0.012,0.011
			c0.493,0.492,1.012,0.959,1.551,1.402c0.247,0.203,0.507,0.379,0.76,0.568c0.304,0.227,0.601,0.463,0.917,0.674
			c0.303,0.203,0.618,0.379,0.93,0.565c0.286,0.171,0.565,0.35,0.86,0.508c0.318,0.17,0.645,0.314,0.969,0.467
			c0.307,0.145,0.609,0.298,0.923,0.428c0.315,0.13,0.636,0.235,0.956,0.35c0.337,0.121,0.67,0.25,1.015,0.355
			c0.32,0.097,0.645,0.168,0.968,0.249c0.351,0.089,0.698,0.187,1.056,0.258c0.375,0.074,0.753,0.118,1.13,0.172
			c0.311,0.044,0.618,0.104,0.933,0.135c0.7,0.069,1.402,0.106,2.104,0.106h0.001h85.333c11.782,0,21.333-9.551,21.333-21.333
			c0-11.782-9.551-21.333-21.333-21.333h-33.83l91.582-91.582C236.75,305.42,236.75,291.912,228.419,283.581z"/>
	</g>
</g>
<g>
</g>
<g>
</g>
<g>
</g>
<g>
</g>
<g>
</g>
<g>
</g>
<g>
</g>
<g>
</g>
<g>
</g>
<g>
</g>
<g>
</g>
<g>
</g>
<g>
</g>
<g>
</g>
<g>
</g>
</svg>
