<?xml version="1.0" encoding="iso-8859-1"?>
<!-- Generator: Adobe Illustrator 19.0.0, SVG Export Plug-In . SVG Version: 6.00 Build 0)  -->
<svg version="1.1" id="Layer_1" xmlns="http://www.w3.org/2000/svg" xmlns:xlink="http://www.w3.org/1999/xlink" x="0px" y="0px"
	 viewBox="0 0 512 512" style="enable-background:new 0 0 512 512;" xml:space="preserve">
<g>
	<g>
		<path d="M490.667,0H21.333C9.552,0,0,9.551,0,21.333v128v341.333C0,502.449,9.552,512,21.333,512h469.333
			c11.782,0,21.333-9.551,21.333-21.333V149.333v-128C512,9.551,502.45,0,490.667,0z M469.334,469.333L469.334,469.333H42.667
			V170.667h426.667V469.333z M469.334,128H42.667V42.667h426.667V128z"/>
	</g>
</g>
<g>
	<g>
		<path d="M85.333,64C73.557,64,64,73.557,64,85.333s9.557,21.333,21.333,21.333s21.333-9.557,21.333-21.333S97.109,64,85.333,64z"
			/>
	</g>
</g>
<g>
	<g>
		<path d="M149.333,64C137.557,64,128,73.557,128,85.333s9.557,21.333,21.333,21.333s21.333-9.557,21.333-21.333
			S161.109,64,149.333,64z"/>
	</g>
</g>
<g>
	<g>
		<path d="M213.333,64C201.557,64,192,73.557,192,85.333s9.557,21.333,21.333,21.333s21.333-9.557,21.333-21.333
			S225.109,64,213.333,64z"/>
	</g>
</g>
<g>
	<g>
		<path d="M170.667,256.001H85.333C73.552,256,64,265.551,64,277.333v85.333C64,374.449,73.552,384,85.333,384h85.333
			c11.782,0,21.333-9.551,21.333-21.333v-85.333C192,265.552,182.448,256.001,170.667,256.001z M149.334,341.334h-42.667v-42.667
			h42.667V341.334z"/>
	</g>
</g>
<g>
	<g>
		<path d="M362.667,256.001h-128c-11.782,0-21.333,9.551-21.333,21.333c-0.001,11.781,9.551,21.333,21.333,21.333h128
			c11.782,0,21.333-9.551,21.333-21.333C384,265.552,374.45,256.001,362.667,256.001z"/>
	</g>
</g>
<g>
	<g>
		<path d="M426.667,320.001h-192c-11.782,0-21.333,9.551-21.333,21.333c-0.001,11.781,9.551,21.333,21.333,21.333h192
			c11.782,0,21.333-9.551,21.333-21.333C448,329.552,438.45,320.001,426.667,320.001z"/>
	</g>
</g>
<g>
</g>
<g>
</g>
<g>
</g>
<g>
</g>
<g>
</g>
<g>
</g>
<g>
</g>
<g>
</g>
<g>
</g>
<g>
</g>
<g>
</g>
<g>
</g>
<g>
</g>
<g>
</g>
<g>
</g>
</svg>
