<?xml version="1.0" encoding="iso-8859-1"?>
<!-- Generator: Adobe Illustrator 19.0.0, SVG Export Plug-In . SVG Version: 6.00 Build 0)  -->
<svg version="1.1" id="Layer_1" xmlns="http://www.w3.org/2000/svg" xmlns:xlink="http://www.w3.org/1999/xlink" x="0px" y="0px"
	 viewBox="0 0 512 512" style="enable-background:new 0 0 512 512;" xml:space="preserve">
<g>
	<g>
		<g>
			<circle cx="326.409" cy="132.604" r="9.968"/>
			<path d="M156.22,310.06c0-19.511-15.874-35.386-35.385-35.386c-19.511,0-35.386,15.874-35.386,35.386
				c0,19.512,15.874,35.385,35.386,35.385C140.346,345.446,156.22,329.572,156.22,310.06z M101.953,310.06
				c0-10.411,8.471-18.882,18.882-18.882s18.881,8.471,18.881,18.882c0,10.411-8.47,18.881-18.881,18.881
				C110.424,328.941,101.953,320.472,101.953,310.06z"/>
			<circle cx="185.592" cy="132.604" r="9.968"/>
			<path d="M391.165,274.675c-19.51,0-35.385,15.874-35.385,35.386c0,19.512,15.874,35.385,35.385,35.385
				c19.511,0,35.386-15.873,35.386-35.385C426.551,290.549,410.678,274.675,391.165,274.675z M391.165,328.943
				c-10.411,0-18.881-8.47-18.881-18.881s8.47-18.882,18.881-18.882s18.882,8.471,18.882,18.882
				C410.047,320.472,401.576,328.943,391.165,328.943z"/>
			<path d="M454.209,310.06c0-34.763-28.281-63.044-63.044-63.044c-9.947,0-19.359,2.324-27.734,6.445
				c-0.843-0.953-1.693-1.895-2.56-2.824c23.898-25.63,38.545-59.992,38.545-97.717c0-17.853-3.289-34.951-9.277-50.732
				c12.797-10.979,20.276-27.014,20.276-44.088c0-32.036-26.062-58.1-58.099-58.1c-16.713,0-32.526,7.221-43.489,19.586
				c-16.356-6.503-34.181-10.084-52.828-10.084s-36.469,3.58-52.826,10.084C192.21,7.221,176.399,0,159.685,0
				c-32.036,0-58.101,26.063-58.101,58.1c0,17.076,7.479,33.11,20.276,44.088c-5.987,15.781-9.277,32.878-9.277,50.732
				c0,37.725,14.647,72.087,38.545,97.717c-0.867,0.93-1.717,1.873-2.56,2.824c-8.375-4.121-17.786-6.445-27.734-6.445
				c-34.763,0-63.044,28.281-63.044,63.044c0,32.677,24.994,59.622,56.868,62.735c1.033,6.034,2.441,11.998,4.237,17.84
				c-22.942,9.438-39.14,32.019-39.14,58.322C79.756,483.72,108.037,512,142.8,512c23.651,0,44.291-13.099,55.075-32.416
				c18.188,8.049,38.112,12.275,58.125,12.275c20.012,0,39.937-4.225,58.125-12.275C324.91,498.902,345.551,512,369.201,512
				c34.763,0,63.044-28.28,63.044-63.042c0-26.303-16.199-48.885-39.139-58.322c1.796-5.843,3.202-11.808,4.236-17.84
				C429.215,369.682,454.209,342.738,454.209,310.06z M352.317,16.503c22.936,0,41.596,18.66,41.596,41.596
				c0,10.549-3.994,20.541-10.975,28.137c-1.427-2.707-2.932-5.365-4.524-7.965C382.846,72.554,385.3,65.5,385.3,58.1
				c0-18.186-14.796-32.98-32.983-32.98c-7.204,0-14.108,2.345-19.761,6.579c-2.577-1.633-5.206-3.188-7.891-4.658
				C332.208,20.333,342.022,16.503,352.317,16.503z M368.795,58.1c0,1.817-0.301,3.589-0.866,5.264
				c-6.144-7.663-13.05-14.69-20.615-20.952c1.601-0.51,3.282-0.79,5.003-0.79C361.403,41.622,368.795,49.013,368.795,58.1z
				 M118.088,58.1c0-22.936,18.66-41.596,41.597-41.596c10.293,0,20.108,3.83,27.651,10.536c-2.683,1.47-5.314,3.026-7.891,4.658
				c-5.653-4.235-12.557-6.579-19.76-6.579c-18.187,0-32.983,14.795-32.983,32.98c0,7.4,2.452,14.454,6.885,20.173
				c-1.592,2.6-3.097,5.258-4.524,7.965C122.082,78.641,118.088,68.649,118.088,58.1z M164.687,42.412
				c-7.565,6.261-14.471,13.289-20.615,20.952c-0.564-1.675-0.866-3.447-0.866-5.264c0-9.086,7.394-16.477,16.48-16.477
				C161.404,41.622,163.087,41.901,164.687,42.412z M129.087,152.92c0-69.98,56.933-126.914,126.914-126.914
				S382.913,82.94,382.913,152.92c0,60.882-43.094,111.881-100.378,124.116c23.588-10.277,40.127-33.807,40.127-61.135
				c0-26.706-15.971-50.717-40.199-61.194c-4.18-12.474-19.387-12.487-26.462-12.487c-7.074,0-22.283,0.012-26.462,12.488
				c-24.229,10.475-40.199,34.484-40.199,61.192c0,27.33,16.538,50.859,40.127,61.135
				C172.181,264.802,129.087,213.802,129.087,152.92z M256.001,189.522c11.413,0,21.227-6.975,25.403-16.887
				c15.114,8.884,24.754,25.262,24.754,43.264c0,27.656-22.5,50.156-50.157,50.156s-50.157-22.5-50.157-50.156
				c0-18.003,9.641-34.38,24.754-43.263C234.775,182.547,244.588,189.522,256.001,189.522z M244.951,161.969
				c0-1.455,0.271-1.932,0.267-1.932c0.493-0.491,2.55-1.314,10.782-1.314c8.233,0,10.29,0.824,10.768,1.297
				c0.003,0.004,0.282,0.474,0.282,1.948c0,6.093-4.957,11.05-11.05,11.05C249.907,173.019,244.951,168.061,244.951,161.969z
				 M74.294,310.06c0-25.663,20.879-46.541,46.541-46.541c25.661,0,46.538,20.878,46.538,46.541
				c0,25.661-20.877,46.538-46.538,46.538C95.173,356.598,74.294,335.722,74.294,310.06z M142.8,495.497
				c-25.663,0-46.541-20.877-46.541-46.539c0-25.662,20.878-46.54,46.541-46.54c25.661,0,46.538,20.878,46.538,46.54
				S168.461,495.497,142.8,495.497z M308.04,464.229c-16.352,7.381-33.823,11.127-52.04,11.127c-18.218,0-35.687-3.745-52.04-11.128
				c1.221-4.892,1.88-10.004,1.88-15.269c0-34.762-28.28-63.043-63.041-63.043c-2.685,0-5.326,0.188-7.923,0.516
				c-1.46-4.661-2.646-9.411-3.557-14.218c29.785-5.009,52.557-30.965,52.557-62.152c0-18.844-8.322-35.772-21.469-47.334
				c0.21-0.231,0.431-0.452,0.644-0.681c25.052,21.37,57.518,34.292,92.949,34.292s67.897-12.922,92.949-34.292
				c0.212,0.229,0.433,0.45,0.644,0.681c-13.147,11.562-21.469,28.49-21.469,47.334c0,31.188,22.77,57.144,52.557,62.152
				c-0.911,4.807-2.097,9.557-3.557,14.218c-2.597-0.328-5.238-0.516-7.923-0.516c-34.761,0-63.041,28.281-63.041,63.043
				C306.159,454.224,306.818,459.336,308.04,464.229z M415.741,448.959c0,25.662-20.878,46.539-46.541,46.539
				c-25.661,0-46.538-20.877-46.538-46.539s20.877-46.54,46.538-46.54C394.864,402.419,415.741,423.296,415.741,448.959z
				 M391.165,356.598c-25.661,0-46.538-20.877-46.538-46.538c0-25.663,20.877-46.541,46.538-46.541
				c25.663,0,46.541,20.878,46.541,46.541C437.706,335.722,416.828,356.598,391.165,356.598z"/>
			<path d="M333.815,448.959c0,19.511,15.874,35.385,35.385,35.385c19.511,0,35.386-15.873,35.386-35.385
				c0-19.512-15.874-35.385-35.386-35.385C349.69,413.573,333.815,429.448,333.815,448.959z M388.082,448.959
				c0,10.411-8.471,18.881-18.882,18.881c-10.411,0-18.881-8.47-18.881-18.881s8.47-18.881,18.881-18.881
				C379.611,430.077,388.082,438.547,388.082,448.959z"/>
			<path d="M142.8,413.573c-19.512,0-35.386,15.873-35.386,35.385c0,19.512,15.874,35.385,35.386,35.385
				c19.51,0,35.384-15.873,35.384-35.385C178.184,429.448,162.31,413.573,142.8,413.573z M142.8,467.84
				c-10.411,0-18.882-8.47-18.882-18.881s8.471-18.881,18.882-18.881c10.411,0,18.881,8.47,18.881,18.881
				S153.211,467.84,142.8,467.84z"/>
		</g>
	</g>
</g>
<g>
</g>
<g>
</g>
<g>
</g>
<g>
</g>
<g>
</g>
<g>
</g>
<g>
</g>
<g>
</g>
<g>
</g>
<g>
</g>
<g>
</g>
<g>
</g>
<g>
</g>
<g>
</g>
<g>
</g>
</svg>
