<?xml version="1.0" encoding="iso-8859-1"?>
<!-- Generator: Adobe Illustrator 19.0.0, SVG Export Plug-In . SVG Version: 6.00 Build 0)  -->
<svg version="1.1" id="Layer_1" xmlns="http://www.w3.org/2000/svg" xmlns:xlink="http://www.w3.org/1999/xlink" x="0px" y="0px"
	 viewBox="0 0 511.999 511.999" style="enable-background:new 0 0 511.999 511.999;" xml:space="preserve">
<path style="fill:#E0E0E3;" d="M396.377,127.759c-19.737,0.001-35.734,16.107-35.735,35.977l-208.203,1.09
	c0.002-20.473-16.483-37.066-36.814-37.066c-20.332-0.001-36.816,16.595-36.814,37.065c-0.001,10.212,4.104,19.455,10.74,26.157
	c0,0-9.749,7.533-9.658,22.45c0.12,19.87,15.998,35.977,35.733,35.98c19.737-0.001,35.735-16.107,35.735-35.977l208.203-1.09
	c-0.001,20.474,16.482,37.066,36.816,37.067c20.332,0.001,36.816-16.595,36.814-37.065c0.002-10.179-4.083-19.386-10.678-26.085
	c0,0,10.044-9.145,9.596-22.522C431.442,143.879,416.11,127.76,396.377,127.759z"/>
<g>
	<path style="fill:#C7C5CC;" d="M396.377,127.759c-19.737,0.001-35.734,16.107-35.735,35.979l-208.203,1.09
		c0.002-20.473-16.483-37.066-36.814-37.066c-20.332,0-36.816,16.595-36.814,37.065c0,3.656,0.533,7.183,1.513,10.518
		c4.504-15.345,18.6-26.545,35.302-26.545c12.324,0,23.234,6.096,29.916,15.458c9.573,13.41,24.905,21.514,41.382,21.428
		l139.752-0.731c16.291-0.085,31.272-8.255,40.861-21.426c6.502-8.93,16.998-14.729,28.839-14.73
		c16.105,0.001,29.275,10.74,33.937,25.483c1.154-3.069,1.927-6.622,1.795-10.542C431.442,143.88,416.11,127.76,396.377,127.759z"/>
	<polygon style="fill:#C7C5CC;" points="297.326,212.663 296.954,164.049 278.147,164.171 279.031,212.799 	"/>
</g>
<path style="fill:#E0E0E3;" d="M316.827,466.451c-0.001-19.737-16.107-35.734-35.977-35.735l-1.09-347.515
	c20.473,0.002,37.066-16.482,37.066-36.814c0.001-20.332-16.595-36.816-37.065-36.814c-10.212-0.001-19.455,4.104-26.157,10.74
	c0,0-8.034-9.658-22.45-9.658c-19.87,0-35.977,15.998-35.98,35.733c0.001,19.737,16.107,35.735,35.977,35.735l1.09,347.515
	c-20.474-0.001-37.066,16.482-37.067,36.816c-0.001,20.332,16.595,36.816,37.065,36.814c10.179,0.002,19.386-4.083,26.085-10.678
	c0,0,8.192,9.596,22.522,9.596C300.717,502.182,316.826,486.184,316.827,466.451z"/>
<g>
	<path style="fill:#C7C5CC;" d="M232.241,455.751l-0.137-26.114c-20.409,0.072-36.929,16.525-36.931,36.812
		c0,4.6,0.856,8.999,2.407,13.059C202.888,465.623,216.399,455.75,232.241,455.751z"/>
	<path style="fill:#C7C5CC;" d="M280.849,456.833c15.228,0,28.236,9.402,33.487,22.675c1.601-4.046,2.49-8.447,2.49-13.057
		c-0.001-19.737-16.107-35.734-35.978-35.735V456.833z"/>
	<path style="fill:#C7C5CC;" d="M279.761,9.572c-10.212-0.001-19.455,4.104-26.157,10.74c0,0-8.034-9.658-22.45-9.658
		c-19.87,0-35.977,15.998-35.98,35.733c0,4.611,0.889,9.013,2.49,13.059c5.251-13.274,18.261-22.675,33.489-22.675
		c14.416,0,22.45,9.658,22.45,9.658c6.702-6.636,15.945-10.741,26.157-10.74c15.84-0.001,29.351,9.872,34.658,23.756
		c1.551-4.059,2.407-8.459,2.407-13.059C316.826,26.054,300.231,9.571,279.761,9.572z"/>
</g>
<g>
	<path style="fill:#1C2042;" d="M434.162,186.514c4.458-6.729,6.569-14.259,6.569-23.268c0-24.593-19.898-44.6-44.356-44.6
		c-21.539,0-39.542,15.518-43.533,36.018l-64.714,0.338l-0.182-64.943c21.075-4.028,37.044-22.504,37.044-44.62
		C324.992,20.383,304.496,0,279.303,0c-9.402,0-18.148,2.841-25.42,7.702c-6.748-4.492-14.252-6.621-23.188-6.621
		c-24.593,0-44.6,19.899-44.6,44.356c0,21.532,15.51,39.533,36.002,43.528l0.207,66.38l-62.062,0.325
		c-4.037-21.065-22.51-37.026-44.618-37.026c-25.054,0-45.438,20.496-45.438,45.688c0,9.402,2.841,18.148,7.702,25.42
		c-4.493,6.749-6.621,14.253-6.621,23.188c0,24.593,19.898,44.6,44.356,44.6c21.539,0,39.542-15.518,43.533-36.018l63.353-0.332
		l0.627,200.749c-21.073,4.031-37.042,22.506-37.042,44.62c0,25.055,20.495,45.438,45.688,45.438c9.367,0,18.084-2.822,25.34-7.652
		c6.729,4.457,14.259,6.569,23.268,6.569c24.592,0,44.599-19.899,44.599-44.356c0-21.535-15.51-39.536-36.004-43.529l-0.258-73.89
		c-0.017-4.751-3.874-8.592-8.622-8.592c-0.01,0-0.021,0-0.031,0c-4.762,0.017-8.608,3.89-8.592,8.652l0.287,81.657
		c0.017,4.75,3.872,8.592,8.622,8.592c15.083,0,27.354,12.162,27.354,27.112s-12.271,27.112-27.354,27.112
		c-4.146,0-7.516-0.62-10.573-1.973c4.831-7.205,7.653-15.849,7.653-25.139c0-4.763-3.86-8.622-8.622-8.622
		c-4.762,0-8.622,3.859-8.622,8.622c0,15.545-12.76,28.193-28.444,28.193s-28.444-12.648-28.444-28.193
		c0-15.545,12.76-28.192,28.444-28.192c2.291,0,4.488-0.912,6.107-2.535c1.618-1.622,2.523-3.823,2.515-6.114l-1.089-348.575
		c-0.015-4.751-3.871-8.596-8.622-8.596c-15.084,0-27.355-12.162-27.355-27.112s12.271-27.112,27.355-27.112
		c4.113,0,7.473,0.633,10.541,2.022c-4.81,7.194-7.622,15.82-7.622,25.089c0,4.763,3.86,8.622,8.622,8.622
		c4.762,0,8.622-3.859,8.622-8.622c0.001-15.545,12.761-28.193,28.445-28.193c15.684,0,28.444,12.648,28.444,28.193
		s-12.76,28.192-28.444,28.192c-2.291,0-4.488,0.912-6.106,2.534s-2.523,3.821-2.517,6.111l0.497,177.535
		c0.014,4.755,3.871,8.598,8.622,8.598c0.008,0,0.017,0,0.024,0c4.762-0.014,8.612-3.885,8.598-8.646l-0.109-38.915l63.444-0.332
		c4.037,21.065,22.51,37.026,44.618,37.026c25.054,0,45.438-20.496,45.438-45.688C441.813,202.487,438.991,193.771,434.162,186.514z
		 M151.315,204.322c-4.744,0.024-8.577,3.878-8.577,8.622c0,15.083-12.163,27.355-27.112,27.355s-27.112-12.272-27.112-27.355
		c0-4.113,0.633-7.473,2.022-10.541c7.194,4.81,15.82,7.621,25.089,7.621c4.762,0,8.622-3.859,8.622-8.622s-3.86-8.622-8.622-8.622
		c-15.545,0-28.193-12.761-28.193-28.444s12.647-28.444,28.193-28.444s28.193,12.761,28.193,28.444c0,2.295,0.914,4.494,2.541,6.113
		c1.616,1.607,3.803,2.51,6.082,2.51c0.015,0,0.03,0,0.045,0l69.873-0.366l0.098,31.357L151.315,204.322z M396.375,240.298
		c-15.545,0-28.193-12.761-28.193-28.444c0-2.295-0.914-4.494-2.541-6.113c-1.616-1.607-3.803-2.51-6.082-2.51
		c-0.015,0-0.03,0-0.045,0l-71.25,0.372l-0.087-31.358l72.508-0.379c4.745-0.024,8.577-3.878,8.577-8.622
		c0-15.083,12.163-27.355,27.112-27.355c14.949,0,27.112,12.272,27.112,27.355c0,4.146-0.62,7.517-1.973,10.574
		c-7.205-4.831-15.849-7.653-25.139-7.653c-4.762,0-8.622,3.859-8.622,8.622c0,4.763,3.86,8.622,8.622,8.622
		c15.545,0,28.193,12.761,28.193,28.444S411.922,240.298,396.375,240.298z"/>
	<path style="fill:#1C2042;" d="M280.023,303.669c-0.009,0-0.018,0-0.028,0c-4.762,0.015-8.611,3.888-8.596,8.649l0.017,5.553
		c0.015,4.754,3.872,8.596,8.622,8.596c0.009,0,0.018,0,0.028,0c4.762-0.015,8.61-3.888,8.596-8.649l-0.017-5.553
		C288.629,307.509,284.772,303.669,280.023,303.669z"/>
</g>
<g>
</g>
<g>
</g>
<g>
</g>
<g>
</g>
<g>
</g>
<g>
</g>
<g>
</g>
<g>
</g>
<g>
</g>
<g>
</g>
<g>
</g>
<g>
</g>
<g>
</g>
<g>
</g>
<g>
</g>
</svg>
