<?xml version="1.0" encoding="iso-8859-1"?>
<!-- Generator: Adobe Illustrator 19.0.0, SVG Export Plug-In . SVG Version: 6.00 Build 0)  -->
<svg version="1.1" id="Layer_1" xmlns="http://www.w3.org/2000/svg" xmlns:xlink="http://www.w3.org/1999/xlink" x="0px" y="0px"
	 viewBox="0 0 512.002 512.002" style="enable-background:new 0 0 512.002 512.002;" xml:space="preserve">
<circle style="fill:#D8DBBA;" cx="256.001" cy="256.001" r="256.001"/>
<path style="fill:#C6C9A3;" d="M369.903,188.911l-87.639-87.639l-13.815,8.463L107.46,353.559L265.701,511.8
	c128.701-4.787,233.085-104.584,245.134-231.283l-116.251-116.25l-24.663,24.663L369.903,188.911z"/>
<path style="fill:#1E9E24;" d="M268.34,94.228c-5.352,1.766-28.758,23.443-31.433,62.193l32.725-4.914
	c-7.116-24.754,11.539-44.356,12.631-50.217C278.643,96.303,271.525,94.137,268.34,94.228z"/>
<path style="fill:#31C739;" d="M268.523,96.375c0,0,9.264,1.875,10.321,4.295c1.074,2.42-9.483,12.595-11.94,25.081
	c-2.457,12.486-2.675,16.363-2.675,16.363l-20.13-3.786c-3.859-0.728,13.287-36.73,24.426-41.972v0.018H268.523z"/>
<path style="fill:#FF6600;" d="M153.418,380.151c-104.457-15.962-90.442-231.192,4.623-232.448
	c30.123-18.128,58.025-9.246,64.087-5.424c15.854-9.647,49.526-9.647,65.397,0c6.061-3.823,33.981-12.705,64.087,5.424
	c95.101-6.771,115.014,230.755,4.623,232.448c-3.149,2.858-36.239,17.564-57.68,3.349c-19.967,8.736-67.49,8.736-87.457,0
	C189.657,397.715,156.567,382.99,153.418,380.151z"/>
<path style="fill:#EC5006;" d="M351.611,147.721c54.822,71.713,36.785,174.495,4.623,232.448
	C397.642,346.569,421.777,204.2,351.611,147.721z M158.042,147.721c-60.664,68.091-40.935,170.982-4.623,232.448
	C109.062,343.876,82.961,201.178,158.042,147.721z M222.127,142.297c-41.553,67.49-31.761,179.282-11.03,241.22
	C179.719,346.606,164.139,194.917,222.127,142.297z M287.525,142.297c40.989,68.837,31.252,180.428,11.03,241.22
	C329.933,346.606,345.514,194.917,287.525,142.297z"/>
<path style="fill:#FFF000;" d="M256,285.104l-12.34,28.503l-18.784-27.83l-18.037,24.863l-11.849-28.158l-16.799,18.529
	l-17.182-25.191l-9.665,16.582l-25.755-29.831l24.681,70.256l12.886-13.924l12.886,24.535l13.414-24.535l19.312,33.144l19.857-26.52
	l16.108,25.846l11.266-17.237l11.266,17.237l16.108-25.846l19.857,26.52l19.311-33.144l13.414,24.535l12.886-24.535l12.886,13.924
	l24.681-70.256l-25.755,29.831l-9.665-16.582l-17.182,25.191l-16.796-18.529l-11.849,28.157l-18.037-24.863l-18.784,27.83
	L256,285.104z"/>
<g>
	<path style="fill:#E84B08;" d="M256,285.104l-12.34,28.503l-18.784-27.83l-18.037,24.863l-11.849-28.158l-16.799,18.529
		l-17.182-25.191l-9.665,16.582l-25.755-29.831l6.917,19.675l18.838,18.693l9.665-14.197l17.182,21.587l16.799-15.872l11.849,24.116
		l18.037-21.296l18.784,23.843L256,294.695l12.34,24.426l18.784-23.843l18.037,21.296l11.849-24.116l16.799,15.872l17.182-21.587
		l9.665,14.197l18.838-18.693l6.917-19.675l-25.755,29.831l-9.665-16.582l-17.182,25.191l-16.799-18.529l-11.849,28.157
		l-18.037-24.863l-18.784,27.83L256,285.104z"/>
	<path style="fill:#E84B08;" d="M247.136,225.531l-108.352-44.465l43.1,88.949L247.136,225.531z"/>
</g>
<path style="fill:#FFF000;" d="M237.508,229.226l-91.753-38.714l37.694,76.718L237.508,229.226z"/>
<path style="fill:#E84B08;" d="M264.846,225.531l108.352-44.465l-43.1,88.949L264.846,225.531z"/>
<path style="fill:#FFF000;" d="M274.475,229.226l91.753-38.714l-37.694,76.718L274.475,229.226z"/>
<g>
</g>
<g>
</g>
<g>
</g>
<g>
</g>
<g>
</g>
<g>
</g>
<g>
</g>
<g>
</g>
<g>
</g>
<g>
</g>
<g>
</g>
<g>
</g>
<g>
</g>
<g>
</g>
<g>
</g>
</svg>
