<?xml version="1.0" encoding="iso-8859-1"?>
<!-- Generator: Adobe Illustrator 19.0.0, SVG Export Plug-In . SVG Version: 6.00 Build 0)  -->
<svg version="1.1" id="Layer_1" xmlns="http://www.w3.org/2000/svg" xmlns:xlink="http://www.w3.org/1999/xlink" x="0px" y="0px"
	 viewBox="0 0 512 512" style="enable-background:new 0 0 512 512;" xml:space="preserve">
<g>
	<g>
		<path d="M335.448,0H176.552c-4.875,0-8.828,3.948-8.828,8.828v70.621V247.25c0,43.767,35.642,79.371,79.448,79.371v141.466
			c-36.393,1.67-70.621,13.636-70.621,35.086c0,4.879,3.953,8.828,8.828,8.828h141.241c4.875,0,8.828-3.948,8.828-8.828
			c0-21.45-34.227-33.416-70.621-35.086V326.621c43.806,0,79.448-35.603,79.448-79.371V79.448V8.828
			C344.276,3.948,340.323,0,335.448,0z M306.728,494.345H205.272c10.207-4.569,27.328-8.828,50.728-8.828
			S296.521,489.776,306.728,494.345z M326.621,247.25c0,34.026-27.72,61.715-61.793,61.715h-17.655
			c-34.073,0-61.793-27.69-61.793-61.715V88.276h141.241V247.25z M326.621,70.621H185.379V17.655h141.241V70.621z"/>
	</g>
</g>
<g>
	<g>
		<path d="M262.267,170.285c-3.358-3.267-9.181-3.267-12.534,0c-1.591,1.672-2.56,3.974-2.56,6.267c0,1.146,0.263,2.293,0.703,3.353
			c0.444,1.06,1.06,2.026,1.858,2.914c1.677,1.673,3.883,2.56,6.267,2.56c2.384,0,4.591-0.888,6.267-2.56
			c0.793-0.888,1.41-1.853,1.854-2.914c0.44-1.06,0.707-2.207,0.707-3.353C264.828,174.259,263.853,171.957,262.267,170.285z"/>
	</g>
</g>
<g>
	<g>
		<path d="M299.431,190.854c-0.444-1.06-1.06-2.035-1.854-2.914c-3.358-3.267-9.181-3.267-12.534,0
			c-0.798,0.879-1.414,1.853-1.858,2.914c-0.44,1.06-0.703,2.207-0.703,3.353s0.263,2.293,0.703,3.353
			c0.444,1.06,1.06,2.026,1.858,2.914c1.677,1.673,3.883,2.56,6.267,2.56c1.146,0,2.293-0.267,3.353-0.707
			c1.06-0.44,2.03-1.06,2.914-1.854c0.793-0.888,1.41-1.853,1.854-2.914c0.44-1.06,0.707-2.207,0.707-3.353
			S299.871,191.914,299.431,190.854z"/>
	</g>
</g>
<g>
	<g>
		<path d="M299.431,217.336c-0.444-1.06-1.06-2.035-1.854-2.914c-2.474-2.474-6.358-3.267-9.625-1.854
			c-1.056,0.44-2.03,1.06-2.909,1.854c-0.798,0.879-1.414,1.767-1.858,2.914c-0.44,1.06-0.703,2.207-0.703,3.353
			c0,2.379,0.879,4.586,2.56,6.267c1.677,1.673,3.883,2.56,6.267,2.56s4.591-0.888,6.267-2.56c0.793-0.888,1.41-1.853,1.854-2.914
			c0.44-1.06,0.707-2.207,0.707-3.353S299.871,218.396,299.431,217.336z"/>
	</g>
</g>
<g>
	<g>
		<path d="M264.121,199.681c-0.444-1.06-1.06-2.035-1.854-2.914c-3.358-3.267-9.271-3.267-12.534,0
			c-0.798,0.879-1.414,1.853-1.858,2.914c-0.44,1.06-0.703,2.207-0.703,3.353s0.263,2.293,0.703,3.353
			c0.444,1.06,1.06,2.026,1.858,2.914c1.677,1.673,3.883,2.56,6.267,2.56c2.384,0,4.591-0.888,6.267-2.56
			c0.793-0.888,1.41-1.853,1.854-2.914c0.44-1.06,0.707-2.207,0.707-3.353S264.56,200.741,264.121,199.681z"/>
	</g>
</g>
<g>
</g>
<g>
</g>
<g>
</g>
<g>
</g>
<g>
</g>
<g>
</g>
<g>
</g>
<g>
</g>
<g>
</g>
<g>
</g>
<g>
</g>
<g>
</g>
<g>
</g>
<g>
</g>
<g>
</g>
</svg>
