<?xml version="1.0" encoding="iso-8859-1"?>
<!-- Generator: Adobe Illustrator 19.0.0, SVG Export Plug-In . SVG Version: 6.00 Build 0)  -->
<svg version="1.1" id="Layer_1" xmlns="http://www.w3.org/2000/svg" xmlns:xlink="http://www.w3.org/1999/xlink" x="0px" y="0px"
	 viewBox="0 0 512 512" style="enable-background:new 0 0 512 512;" xml:space="preserve">
<g>
	<g>
		<path d="M180.966,220.69c-9.733,0-17.655,7.922-17.655,17.655c0,9.733,7.922,17.655,17.655,17.655s17.655-7.922,17.655-17.655
			C198.621,228.612,190.699,220.69,180.966,220.69z"/>
	</g>
</g>
<g>
	<g>
		<path d="M251.587,247.172c-9.733,0-17.655,7.922-17.655,17.655s7.922,17.655,17.655,17.655c9.733,0,17.655-7.922,17.655-17.655
			S261.32,247.172,251.587,247.172z"/>
	</g>
</g>
<g>
	<g>
		<path d="M286.897,273.655c-9.733,0-17.655,7.922-17.655,17.655s7.922,17.655,17.655,17.655s17.655-7.922,17.655-17.655
			S296.63,273.655,286.897,273.655z"/>
	</g>
</g>
<g>
	<g>
		<path d="M189.794,273.655c-9.733,0-17.655,7.922-17.655,17.655s7.922,17.655,17.655,17.655s17.655-7.922,17.655-17.655
			S199.527,273.655,189.794,273.655z"/>
	</g>
</g>
<g>
	<g>
		<path d="M352.873,89.554l4.576-35.459c0.319-2.517-0.457-5.052-2.129-6.957c-1.672-1.905-4.095-3-6.629-3h-8.828V26.526
			C339.863,11.896,327.975,0,313.371,0H145.664c-14.603,0-26.491,11.896-26.491,26.526v17.612h-8.828c-2.534,0-4.957,1.095-6.629,3
			c-1.672,1.905-2.448,4.44-2.129,6.957l35.31,273.655c0.569,4.405,4.319,7.698,8.758,7.698H313.38c4.44,0,8.19-3.293,8.759-7.698
			l12.72-98.575c1.67,0.119,3.315,0.343,5.004,0.343c38.94,0,70.621-31.681,70.621-70.621
			C410.483,124.963,385.912,95.733,352.873,89.554z M136.828,26.526c0-4.888,3.966-8.871,8.836-8.871h167.707
			c4.871,0,8.836,3.983,8.836,8.871v17.612H136.828V26.526z M305.621,317.793H153.414l-16.351-126.744
			c9.125-2.957,33.231-6.933,75.739,11.269c31.681,13.578,43.56,18.371,56.112,18.371c6.302,0,12.776-1.207,22.008-3.121
			c7.138-1.474,16.047-3.282,28.291-5.142L305.621,317.793z M321.548,194.328c-0.203,0.015-0.388-0.062-0.591-0.034
			c-15.172,2.172-25.828,4.379-33.612,5.991c-23.267,4.828-23.267,4.802-67.595-14.19c-43.431-18.616-70.797-16.705-84.987-12.866
			L120.389,61.793h218.258L321.548,194.328z M339.863,211.862c-0.929,0-1.828-0.138-2.748-0.185l13.478-104.45
			c24.259,5.032,42.235,26.562,42.235,51.67C392.828,188.104,369.07,211.862,339.863,211.862z"/>
	</g>
</g>
<g>
	<g>
		<path d="M339.863,379.586h-8.828v-17.655c0-4.879-3.948-8.828-8.828-8.828H136.828c-4.879,0-8.828,3.948-8.828,8.828v17.655
			h-8.828c-4.879,0-8.828,3.948-8.828,8.828v114.759c0,4.879,3.948,8.828,8.828,8.828h220.69c4.879,0,8.828-3.948,8.828-8.828
			V388.414C348.69,383.535,344.742,379.586,339.863,379.586z M331.035,494.345H128.001v-97.103h8.828
			c4.879,0,8.828-3.948,8.828-8.828v-17.655H313.38v17.655c0,4.879,3.948,8.828,8.828,8.828h8.828V494.345z"/>
	</g>
</g>
<g>
	<g>
		<path d="M233.932,406.069c-19.474,0-35.31,15.836-35.31,35.31c0,19.474,15.836,35.31,35.31,35.31s35.31-15.836,35.31-35.31
			C269.242,421.905,253.406,406.069,233.932,406.069z M233.932,459.034c-9.733,0-17.655-7.922-17.655-17.655
			c0-9.733,7.922-17.655,17.655-17.655s17.655,7.922,17.655,17.655C251.587,451.112,243.665,459.034,233.932,459.034z"/>
	</g>
</g>
<g>
	<g>
		<rect x="163.31" y="379.586" width="132.414" height="17.655"/>
	</g>
</g>
<g>
</g>
<g>
</g>
<g>
</g>
<g>
</g>
<g>
</g>
<g>
</g>
<g>
</g>
<g>
</g>
<g>
</g>
<g>
</g>
<g>
</g>
<g>
</g>
<g>
</g>
<g>
</g>
<g>
</g>
</svg>
