<?xml version="1.0" encoding="iso-8859-1"?>
<!-- Generator: Adobe Illustrator 19.0.0, SVG Export Plug-In . SVG Version: 6.00 Build 0)  -->
<svg version="1.1" id="Layer_1" xmlns="http://www.w3.org/2000/svg" xmlns:xlink="http://www.w3.org/1999/xlink" x="0px" y="0px"
	 viewBox="0 0 512 512" style="enable-background:new 0 0 512 512;" xml:space="preserve">
<g>
	<g>
		<path d="M251.661,43.39c-19.14,0-34.712,15.572-34.712,34.712s15.572,34.712,34.712,34.712s34.712-15.572,34.712-34.712
			S270.801,43.39,251.661,43.39z M251.661,95.458c-9.572,0-17.356-7.784-17.356-17.356s7.784-17.356,17.356-17.356
			c9.572,0,17.356,7.784,17.356,17.356S261.233,95.458,251.661,95.458z"/>
	</g>
</g>
<g>
	<g>
		<path d="M247.822,12.301C241.941,4.14,231.555,0,216.949,0c-4.792,0-8.678,3.886-8.678,8.678s3.886,8.678,8.678,8.678
			c8.407,0,14.356,1.784,16.75,5.03c2.703,3.665,1.093,9.428,1.026,9.661c-1.462,4.525,0.996,9.39,5.513,10.898
			c0.911,0.305,1.839,0.449,2.746,0.449c3.636,0,7.021-2.301,8.233-5.937C251.691,36.026,255.653,23.161,247.822,12.301z"/>
	</g>
</g>
<g>
	<g>
		<path d="M431.818,332.805c-1.648-1.932-4.059-3.042-6.597-3.042H86.78c-2.538,0-4.949,1.11-6.597,3.042
			c-1.648,1.928-2.369,4.483-1.975,6.987l26.034,164.881c0.665,4.221,4.301,7.326,8.572,7.326h286.373
			c4.271,0,7.907-3.106,8.572-7.326l26.034-164.881C434.187,337.288,433.466,334.733,431.818,332.805z M120.229,494.644
			L96.937,347.119h51.453l15.53,147.525H120.229z M181.373,494.644l-15.53-147.525h51.551l7.765,147.525H181.373z M278.14,494.644
			h-35.602l-7.765-147.525h51.131L278.14,494.644z M330.627,494.644h-35.108l7.765-147.525h42.873L330.627,494.644z
			 M391.771,494.644h-43.691l15.53-147.525h51.453L391.771,494.644z"/>
	</g>
</g>
<g>
	<g>
		<path d="M251.661,121.492c-96.14,0-173.559,88.081-173.559,161.004c0,16.746,4.258,28.326,13.013,35.402
			c15.932,12.881,42.229,7.237,75.504,0.102c25.352-5.432,54.085-11.593,85.042-11.593c30.953,0,59.686,6.161,85.038,11.593
			c18.826,4.034,35.411,7.589,49.152,7.589c10.559,0,19.436-2.097,26.356-7.691c8.754-7.08,13.013-18.657,13.013-35.402
			C425.221,209.572,347.801,121.492,251.661,121.492z M401.297,304.402c-9.487,7.661-33.339,2.542-60.958-3.373
			c-24.898-5.339-55.886-11.979-88.678-11.979c-32.797,0-63.784,6.644-88.682,11.979c-27.619,5.924-51.474,11.038-60.953,3.373
			c-4.419-3.572-6.568-10.741-6.568-21.907c0-64.661,72.081-143.648,156.203-143.648s156.203,78.987,156.203,143.648
			C407.865,293.661,405.716,300.826,401.297,304.402z"/>
	</g>
</g>
<g>
	<g>
		<path d="M207.034,169.093c-2.466-4.11-7.797-5.445-11.907-2.975c-45.038,27.021-63.288,62.797-64.042,64.305
			c-2.144,4.288-0.407,9.5,3.881,11.644c1.246,0.623,2.572,0.915,3.873,0.915c3.186,0,6.25-1.754,7.771-4.797
			c0.161-0.326,16.695-32.733,57.449-57.186C208.17,178.534,209.5,173.203,207.034,169.093z"/>
	</g>
</g>
<g>
</g>
<g>
</g>
<g>
</g>
<g>
</g>
<g>
</g>
<g>
</g>
<g>
</g>
<g>
</g>
<g>
</g>
<g>
</g>
<g>
</g>
<g>
</g>
<g>
</g>
<g>
</g>
<g>
</g>
</svg>
