<?xml version="1.0" encoding="iso-8859-1"?>
<!-- Generator: Adobe Illustrator 19.0.0, SVG Export Plug-In . SVG Version: 6.00 Build 0)  -->
<svg version="1.1" id="Layer_1" xmlns="http://www.w3.org/2000/svg" xmlns:xlink="http://www.w3.org/1999/xlink" x="0px" y="0px"
	 viewBox="0 0 512 512" style="enable-background:new 0 0 512 512;" xml:space="preserve">
<g>
	<g>
		<path d="M113.895,53.067c-10.979-8.783-16.542-16.992-15.667-23.1c1-6.942,10.112-12.117,13.508-13.508
			c4.375-1.75,6.504-6.717,4.754-11.092c-1.754-4.375-6.704-6.5-11.096-4.758c-2.183,0.875-21.408,9.05-24.042,26.808
			c-1.888,12.742,5.475,25.858,21.883,38.983c10.979,8.783,16.542,16.992,15.667,23.1c-0.996,6.933-10.087,12.1-13.529,13.517
			c-4.358,1.758-6.479,6.717-4.733,11.083c1.338,3.342,4.542,5.367,7.929,5.367c1.054,0,2.125-0.192,3.167-0.608
			c2.183-0.875,21.408-9.05,24.042-26.808C137.665,79.308,130.303,66.191,113.895,53.067z"/>
	</g>
</g>
<g>
	<g>
		<path d="M216.295,53.067c-10.979-8.783-16.542-16.992-15.667-23.1c1-6.942,10.112-12.117,13.508-13.508
			c4.375-1.75,6.504-6.717,4.754-11.092c-1.754-4.375-6.7-6.5-11.096-4.758c-2.183,0.875-21.408,9.05-24.042,26.808
			c-1.888,12.742,5.475,25.858,21.883,38.983c10.979,8.783,16.542,16.992,15.667,23.1c-0.996,6.933-10.087,12.1-13.529,13.517
			c-4.358,1.758-6.479,6.717-4.733,11.083c1.338,3.342,4.542,5.367,7.929,5.367c1.054,0,2.125-0.192,3.167-0.608
			c2.183-0.875,21.408-9.05,24.042-26.808C240.065,79.308,232.703,66.191,216.295,53.067z"/>
	</g>
</g>
<g>
	<g>
		<path d="M318.695,53.067c-10.979-8.783-16.542-16.992-15.667-23.1c1-6.942,10.112-12.117,13.508-13.508
			c4.375-1.75,6.504-6.717,4.754-11.092c-1.75-4.375-6.696-6.5-11.096-4.758c-2.183,0.875-21.408,9.05-24.042,26.808
			c-1.888,12.742,5.475,25.858,21.883,38.983c10.979,8.783,16.542,16.992,15.667,23.1c-0.996,6.933-10.087,12.1-13.529,13.517
			c-4.358,1.758-6.479,6.717-4.733,11.083c1.338,3.342,4.542,5.367,7.929,5.367c1.054,0,2.125-0.192,3.167-0.608
			c2.183-0.875,21.408-9.05,24.042-26.808C342.466,79.308,335.103,66.191,318.695,53.067z"/>
	</g>
</g>
<g>
	<g>
		<path d="M384.003,170.667h-31.885l1.956-16.033c0.296-2.425-0.463-4.858-2.083-6.692c-1.617-1.825-3.946-2.875-6.387-2.875h-256
			c-2.442,0-4.771,1.05-6.387,2.875c-1.621,1.833-2.379,4.267-2.083,6.692L123.799,504.5c0.521,4.283,4.158,7.5,8.471,7.5h170.667
			c4.313,0,7.95-3.217,8.471-7.5l15.735-129.033h56.86c25.879,0,46.933-21.075,46.933-46.975v-110.85
			C430.936,191.742,409.882,170.667,384.003,170.667z M295.382,494.933H139.824l-40.583-332.8h236.725L295.382,494.933z
			 M413.87,328.492c0,16.492-13.4,29.908-29.867,29.908h-54.779l20.813-170.667h33.966c16.467,0,29.867,13.417,29.867,29.908
			V328.492z"/>
	</g>
</g>
<g>
</g>
<g>
</g>
<g>
</g>
<g>
</g>
<g>
</g>
<g>
</g>
<g>
</g>
<g>
</g>
<g>
</g>
<g>
</g>
<g>
</g>
<g>
</g>
<g>
</g>
<g>
</g>
<g>
</g>
</svg>
