<?xml version="1.0" encoding="iso-8859-1"?>
<!-- Generator: Adobe Illustrator 19.0.0, SVG Export Plug-In . SVG Version: 6.00 Build 0)  -->
<svg version="1.1" id="Layer_1" xmlns="http://www.w3.org/2000/svg" xmlns:xlink="http://www.w3.org/1999/xlink" x="0px" y="0px"
	 viewBox="0 0 512.001 512.001" style="enable-background:new 0 0 512.001 512.001;" xml:space="preserve">
<path style="fill:#FA341E;" d="M233.44,378.121v-70.006c-0.18-81.941-0.18-165.205-0.18-247.225c-60.895,0-123.031,0-183.925,0
	c-14.914,52.195-18.642,106.876-18.452,161.143c-2.792,73.313,7.83,157.102,7.83,157.102c3.164,23.507,3.164,48.363,10.621,70.732
	c60.895,1.243,121.788-1.243,182.683,1.243c1.243,0,2.485-1.243,2.485-2.485C232.016,425.013,233.258,401.401,233.44,378.121z"/>
<path style="fill:#86858B;" d="M34.387,165.436h125.519c18.793,0,34.168-15.376,34.168-34.168l0,0
	c0-18.793-15.376-34.168-34.168-34.168H44.329l-3.17-1.908c-4.548,23.229-7.267,46.809-8.749,70.506
	C33.065,165.601,33.72,165.509,34.387,165.436z"/>
<path style="fill:#F5F5F5;" d="M125.411,377.126H30.999C13.95,377.126,0,363.177,0,346.127v-94.414
	c0-17.048,13.949-30.998,30.998-30.998h94.415c17.048,0,30.998,13.949,30.998,30.998v94.414
	C156.41,363.177,142.461,377.126,125.411,377.126z"/>
<path style="fill:#FA341E;" d="M278.561,378.121v-70.006c0.179-81.941,0.179-165.205,0.179-247.225c60.895,0,123.031,0,183.925,0
	c14.913,52.195,18.641,106.876,18.451,161.143c2.793,73.313-7.83,157.102-7.83,157.102c-3.164,23.507-3.164,48.363-10.621,70.732
	c-60.895,1.243-121.788-1.243-182.683,1.243c-1.243,0-2.485-1.243-2.485-2.485C279.984,425.013,278.742,401.401,278.561,378.121z"/>
<path style="fill:#75747A;" d="M477.614,165.436H352.095c-18.793,0-34.169-15.376-34.169-34.168l0,0
	c0-18.793,15.377-34.168,34.169-34.168h115.577l3.169-1.908c4.548,23.229,7.267,46.809,8.749,70.506
	C478.936,165.601,478.281,165.509,477.614,165.436z"/>
<path style="fill:#DBDBDB;" d="M386.589,377.126h94.413c17.05,0,30.999-13.95,30.999-30.999v-94.414
	c0-17.048-13.949-30.998-30.998-30.998h-94.414c-17.05,0-30.999,13.95-30.999,30.999v94.413
	C355.59,363.177,369.539,377.126,386.589,377.126z"/>
<g>
	<path style="fill:#75747A;" d="M78.205,288.273h-0.721c-5.148,0-9.321-4.173-9.321-9.321s4.173-9.321,9.321-9.321h0.721
		c5.148,0,9.321,4.173,9.321,9.321S83.354,288.273,78.205,288.273z"/>
	<path style="fill:#75747A;" d="M78.205,331.769h-0.721c-5.148,0-9.321-4.173-9.321-9.321s4.173-9.321,9.321-9.321h0.721
		c5.148,0,9.321,4.173,9.321,9.321S83.354,331.769,78.205,331.769z"/>
	<path style="fill:#75747A;" d="M42.165,288.273h-0.721c-5.148,0-9.321-4.173-9.321-9.321s4.173-9.321,9.321-9.321h0.721
		c5.148,0,9.321,4.173,9.321,9.321S47.314,288.273,42.165,288.273z"/>
	<path style="fill:#75747A;" d="M42.165,331.769h-0.721c-5.148,0-9.321-4.173-9.321-9.321s4.173-9.321,9.321-9.321h0.721
		c5.148,0,9.321,4.173,9.321,9.321S47.314,331.769,42.165,331.769z"/>
	<path style="fill:#75747A;" d="M434.517,288.273h-0.722c-5.148,0-9.321-4.173-9.321-9.321s4.173-9.321,9.321-9.321h0.722
		c5.147,0,9.321,4.173,9.321,9.321C443.837,284.1,439.664,288.273,434.517,288.273z"/>
	<path style="fill:#75747A;" d="M434.517,331.769h-0.722c-5.148,0-9.321-4.173-9.321-9.321s4.173-9.321,9.321-9.321h0.722
		c5.147,0,9.321,4.173,9.321,9.321C443.837,327.596,439.664,331.769,434.517,331.769z"/>
	<path style="fill:#75747A;" d="M470.557,288.273h-0.722c-5.148,0-9.321-4.173-9.321-9.321s4.173-9.321,9.321-9.321h0.722
		c5.147,0,9.321,4.173,9.321,9.321C479.876,284.1,475.704,288.273,470.557,288.273z"/>
	<path style="fill:#75747A;" d="M470.557,331.769h-0.722c-5.148,0-9.321-4.173-9.321-9.321s4.173-9.321,9.321-9.321h0.722
		c5.147,0,9.321,4.173,9.321,9.321C479.876,327.596,475.704,331.769,470.557,331.769z"/>
</g>
<g>
</g>
<g>
</g>
<g>
</g>
<g>
</g>
<g>
</g>
<g>
</g>
<g>
</g>
<g>
</g>
<g>
</g>
<g>
</g>
<g>
</g>
<g>
</g>
<g>
</g>
<g>
</g>
<g>
</g>
</svg>
