<?xml version="1.0" encoding="iso-8859-1"?>
<!-- Generator: Adobe Illustrator 19.0.0, SVG Export Plug-In . SVG Version: 6.00 Build 0)  -->
<svg version="1.1" id="Layer_1" xmlns="http://www.w3.org/2000/svg" xmlns:xlink="http://www.w3.org/1999/xlink" x="0px" y="0px"
	 viewBox="0 0 512 512" style="enable-background:new 0 0 512 512;" xml:space="preserve">
<path style="fill:#FF877F;" d="M384,418.876c-42.351,0-76.8-34.458-76.8-76.8c0-50.423,59.375-140.945,66.15-151.1L384,175.002
	l10.65,15.974c6.775,10.155,66.15,100.685,66.15,151.1C460.8,384.427,426.351,418.876,384,418.876z"/>
<path style="fill:#FEDEA1;" d="M384,499.2c-56.465,0-102.4-45.935-102.4-102.4c0-9.335,1.493-19.874,4.548-32.205l11.238-45.252
	l13.44,44.646c9.882,32.828,39.287,54.886,73.165,54.886s63.283-22.059,73.165-54.886l13.44-44.646l11.238,45.252
	c3.072,12.331,4.565,22.869,4.565,32.205C486.4,453.265,440.465,499.2,384,499.2z"/>
<circle style="fill:#FF877F;" cx="128" cy="38.4" r="25.6"/>
<path style="fill:#FEDEA1;" d="M128,499.2c-56.465,0-102.4-45.935-102.4-102.4c0-9.335,1.493-19.874,4.548-32.205l11.238-45.252
	l13.44,44.646c9.882,32.828,39.287,54.886,73.165,54.886s63.283-22.059,73.165-54.886l13.44-44.646l11.238,45.252
	c3.072,12.331,4.565,22.869,4.565,32.205C230.4,453.265,184.465,499.2,128,499.2z"/>
<g>
	<circle style="fill:#FF877F;" cx="384" cy="38.4" r="25.6"/>
	<path style="fill:#FF877F;" d="M128,418.876c-42.351,0-76.8-34.458-76.8-76.8c0-50.423,59.375-140.945,66.15-151.1L128,175.002
		l10.65,15.974c6.775,10.155,66.15,100.685,66.15,151.1C204.8,384.427,170.351,418.876,128,418.876z"/>
</g>
<g>
	<path style="fill:#573A32;" d="M106.701,181.001C97.084,195.413,12.8,323.951,12.8,396.8C12.8,460.322,64.478,512,128,512
		s115.2-51.678,115.2-115.2c0-72.849-84.284-201.387-93.901-215.799c-2.21-3.311-5.163-5.931-8.499-7.868V74.445
		c14.865-5.299,25.6-19.379,25.6-36.045C166.4,17.229,149.171,0,128,0S89.6,17.229,89.6,38.4c0,16.666,10.735,30.737,25.6,36.045
		v98.697C111.863,175.07,108.902,177.69,106.701,181.001z M213.419,367.684c2.62,10.53,4.181,20.403,4.181,29.116
		c0,49.485-40.115,89.6-89.6,89.6s-89.6-40.115-89.6-89.6c0-8.713,1.553-18.586,4.181-29.116
		c11.093,36.881,44.971,63.991,85.419,63.991S202.325,404.565,213.419,367.684z M128,25.6c7.066,0,12.8,5.726,12.8,12.8
		c0,7.066-5.734,12.8-12.8,12.8c-7.066,0-12.8-5.734-12.8-12.8C115.2,31.326,120.934,25.6,128,25.6z M128,198.076c0,0,64,96,64,144
		c0,35.345-28.655,64-64,64s-64-28.655-64-64C64,294.076,128,198.076,128,198.076z"/>
	<path style="fill:#573A32;" d="M362.701,181.001C353.084,195.413,268.8,323.951,268.8,396.8c0,63.522,51.678,115.2,115.2,115.2
		s115.2-51.678,115.2-115.2c0-72.849-84.284-201.387-93.901-215.799c-2.21-3.311-5.163-5.931-8.499-7.868V74.445
		c14.865-5.299,25.6-19.379,25.6-36.045C422.4,17.229,405.171,0,384,0c-21.171,0-38.4,17.229-38.4,38.4
		c0,16.666,10.735,30.737,25.6,36.045v98.697C367.863,175.07,364.902,177.69,362.701,181.001z M469.419,367.684
		c2.62,10.53,4.181,20.403,4.181,29.116c0,49.485-40.115,89.6-89.6,89.6s-89.6-40.115-89.6-89.6c0-8.713,1.553-18.586,4.181-29.116
		c11.093,36.881,44.971,63.991,85.419,63.991S458.325,404.565,469.419,367.684z M384,25.6c7.066,0,12.8,5.726,12.8,12.8
		c0,7.066-5.734,12.8-12.8,12.8c-7.066,0-12.8-5.734-12.8-12.8C371.2,31.326,376.934,25.6,384,25.6z M384,198.076c0,0,64,96,64,144
		c0,35.345-28.655,64-64,64s-64-28.655-64-64C320,294.076,384,198.076,384,198.076z"/>
</g>
<g>
</g>
<g>
</g>
<g>
</g>
<g>
</g>
<g>
</g>
<g>
</g>
<g>
</g>
<g>
</g>
<g>
</g>
<g>
</g>
<g>
</g>
<g>
</g>
<g>
</g>
<g>
</g>
<g>
</g>
</svg>
