<?xml version="1.0" encoding="iso-8859-1"?>
<!-- Generator: Adobe Illustrator 16.0.0, SVG Export Plug-In . SVG Version: 6.00 Build 0)  -->
<!DOCTYPE svg PUBLIC "-//W3C//DTD SVG 1.1//EN" "http://www.w3.org/Graphics/SVG/1.1/DTD/svg11.dtd">
<svg version="1.1" id="Capa_1" xmlns="http://www.w3.org/2000/svg" xmlns:xlink="http://www.w3.org/1999/xlink" x="0px" y="0px"
	 width="565.344px" height="565.344px" viewBox="0 0 565.344 565.344" style="enable-background:new 0 0 565.344 565.344;"
	 xml:space="preserve">
<g>
	<path d="M103.409,416.322h357.408c21.898,0,39.713-17.806,39.713-39.694V224.202c0-20.368-13.98-44.055-31.861-53.933l-9.152-5.011
		c-16.533-9.104-44.244-16.237-63.092-16.237H311.02c-4.514,0-8.176,3.663-8.176,8.167c0,0.067,0.039,0.125,0.039,0.182v15.826
		h-40.498v-16.007h-0.048c0-4.514-3.672-8.167-8.166-8.167h-89.018c-19.125,0-46.368,8.597-62.032,19.584l-10.174,7.134
		c-16.4,11.561-29.252,36.309-29.252,56.342v144.546C63.696,398.517,81.521,416.322,103.409,416.322z M114.625,246.53
		c0-21.343,17.347-38.699,38.681-38.699h59.173c13.11,0,35.075,1.635,38.317,12.326c2.802,1.3,11.274,3.423,24.738,3.423h15.769
		c13.502,0,22.012-2.142,24.814-3.433c3.262-10.681,25.188-12.316,38.279-12.316h56.514c21.324,0,38.68,17.356,38.68,38.699v69.663
		c0,21.344-17.346,38.699-38.68,38.699h-56.514c-22.07,0-34.465-3.165-37.781-9.677c-3.309-1.195-12.184-2.812-25.303-2.812h-15.769
		c-13.082,0-21.937,1.606-25.235,2.802c-3.328,6.512-15.73,9.687-37.82,9.687h-59.173c-21.334,0-38.68-17.355-38.68-38.699V246.53
		H114.625z"/>
	<path d="M153.306,340.549h59.173c13.11,0,21.975-1.606,25.264-2.802c3.318-6.512,15.702-9.678,37.791-9.678h15.769
		c22.127,0,34.549,3.175,37.867,9.678c3.279,1.195,12.125,2.802,25.227,2.802h56.514c13.416,0,24.336-10.93,24.336-24.355V246.53
		c0-13.426-10.92-24.355-24.336-24.355h-56.514c-13.475,0-21.947,2.132-24.738,3.423c-3.242,10.691-25.236,12.326-38.355,12.326
		h-15.769c-13.091,0-35.037-1.635-38.278-12.326c-2.802-1.301-11.284-3.433-24.776-3.433h-59.173
		c-13.417,0-24.337,10.93-24.337,24.356v69.663C128.969,329.619,139.89,340.549,153.306,340.549z M247.678,273.908
		c2.62,0,4.915,1.357,6.225,3.395h23.629l-2.965-8.444c-0.306-0.909-1.654-1.865-2.62-1.865h-6.33
		c-1.329,2.037-3.605,3.395-6.225,3.395c-4.112,0-7.44-3.328-7.44-7.43c0-4.112,3.337-7.43,7.44-7.43
		c2.62,0,4.905,1.348,6.225,3.385h6.33c4.399,0,8.798,3.136,10.241,7.286l3.893,11.103h14.391c1.664-4.705,6.139-8.071,11.408-8.071
		c6.684,0,12.105,5.421,12.105,12.116c0,6.693-5.412,12.115-12.105,12.115c-5.277,0-9.754-3.375-11.408-8.07h-3.078l-3.883,11.121
		c-1.443,4.159-5.861,7.277-10.262,7.277h-6.32c-1.319,2.036-3.605,3.403-6.216,3.403c-4.121,0-7.439-3.337-7.439-7.439
		c0-4.102,3.328-7.43,7.439-7.43c2.611,0,4.905,1.349,6.216,3.385h6.32c0.977,0,2.314-0.966,2.641-1.864l2.955-8.463h-34.933
		c-1.319,2.037-3.605,3.395-6.225,3.395c-4.103,0-7.43-3.327-7.43-7.439C240.249,277.235,243.576,273.908,247.678,273.908z"/>
	<path d="M22.692,375.271l18.427,9.858c1.167,0.641,2.505,0.976,3.854,0.976c3.012,0,5.775-1.645,7.22-4.312
		c0.43-0.804,0.631-1.683,0.774-2.554c0.057,0.02,0.182,0.077,0.182,0.077V250.623c-0.019,0-0.029,0.01-0.048,0.01
		c0.029-1.128-0.153-2.267-0.612-3.366c-1.693-4.026-6.685-6.024-10.729-4.312l-18.437,7.898C10.012,256.581,0,276.748,0,297.775
		v28.898C0,347.434,9.754,368.328,22.692,375.271z"/>
	<path d="M542.012,250.853l-18.436-7.898c-4.045-1.712-9.037,0.277-10.73,4.312c-0.469,1.1-0.641,2.238-0.611,3.366
		c-0.02,0-0.029-0.01-0.029-0.01l-0.018,128.692c0,0,0.133-0.058,0.191-0.077c0.143,0.871,0.344,1.75,0.773,2.554
		c1.443,2.668,4.197,4.312,7.221,4.312c1.357,0,2.686-0.335,3.854-0.976l18.426-9.858c12.939-6.942,22.691-27.837,22.691-48.597
		v-28.898C565.344,276.758,555.322,256.581,542.012,250.853z"/>
</g>
<g>
</g>
<g>
</g>
<g>
</g>
<g>
</g>
<g>
</g>
<g>
</g>
<g>
</g>
<g>
</g>
<g>
</g>
<g>
</g>
<g>
</g>
<g>
</g>
<g>
</g>
<g>
</g>
<g>
</g>
</svg>
