<?xml version="1.0" encoding="iso-8859-1"?>
<!-- Generator: Adobe Illustrator 16.0.0, SVG Export Plug-In . SVG Version: 6.00 Build 0)  -->
<!DOCTYPE svg PUBLIC "-//W3C//DTD SVG 1.1//EN" "http://www.w3.org/Graphics/SVG/1.1/DTD/svg11.dtd">
<svg version="1.1" id="Capa_1" xmlns="http://www.w3.org/2000/svg" xmlns:xlink="http://www.w3.org/1999/xlink" x="0px" y="0px"
	 width="558.842px" height="558.842px" viewBox="0 0 558.842 558.842" style="enable-background:new 0 0 558.842 558.842;"
	 xml:space="preserve">
<g>
	<path d="M347.07,275.768v25.781l1.396-0.756c0.871-0.459,2.994-3.901,2.994-8.186v-8.663c0-3.949-1.846-6.99-2.641-7.431
		L347.07,275.768z"/>
	<path d="M258.437,263.93h-17.72c-2.572,0-4.667,2.094-4.667,4.666v20.875c0,2.572,2.094,4.667,4.667,4.667h17.72
		c2.773,0,4.791-0.259,5.881-0.479c2.496-2.859,8.348-3.261,13.014-3.261h4.723c4.678,0,10.529,0.401,13.016,3.261
		c1.09,0.22,3.107,0.479,5.881,0.479h16.926c2.572,0,4.666-2.095,4.666-4.667v-20.875c0-2.572-2.094-4.666-4.666-4.666h-16.926
		c-2.572,0-4.447,0.277-5.488,0.535c-1.77,2.754-6.312,4.188-13.408,4.188h-4.723c-7.095,0-11.637-1.435-13.397-4.188
		C262.883,264.217,260.999,263.93,258.437,263.93z"/>
	<path d="M207.851,283.953v8.664c0,4.274,2.123,7.727,2.983,8.186l0.688,0.363v-25.092l-1.061,0.459
		C209.706,276.954,207.851,280.004,207.851,283.953z"/>
	<path d="M450.682,253.583c-11.877,0-22.588,9.448-23.381,20.626c-2.104,30.122,0.852,44.083,3.709,50.49
		c0.68,1.53,0.709,3.117,0.469,4.657c40.346-7.297,67.779-14.392,67.779-14.392h21.037c11.629,0,24.213-12.527,28.133-27.98
		l8.492-33.526c-0.211,0.01-0.393,0.125-0.602,0.125H450.682z"/>
	<path d="M536.562,218.479c-44.523-2.046-137.768-5.374-259.489-4.533c-120.622,0.851-210.633,3.442-254.028,4.935
		C11.035,219.292,2.238,226.904,0,237.308c0.746-0.22,1.482-0.459,2.295-0.459h105.627c20.34,0,38.681,16.572,40.067,36.185
		c1.779,25.427,0.306,44.284-4.284,56.304c39.062,8.301,86.885,15.692,133.377,15.692c48.224,0,98.476-6.216,138.981-12.986
		c-0.105-0.191-0.248-0.344-0.344-0.545c-5.27-11.857-6.98-31.527-5.098-58.465c1.387-19.613,19.729-36.194,40.066-36.194h105.629
		c0.898,0,1.711,0.249,2.523,0.507C557.15,226.856,548.668,219.034,536.562,218.479z M277.322,259.091h4.725
		c2.572,0,4.455-0.287,5.508-0.535c1.76-2.754,6.311-4.188,13.396-4.188h16.926c7.842,0,14.229,6.388,14.229,14.229v20.875
		c0,7.842-6.377,14.229-14.229,14.229h-16.926c-4.666,0-10.52-0.401-13.006-3.261c-1.09-0.22-3.107-0.479-5.891-0.479h-4.723
		c-2.782,0-4.791,0.259-5.881,0.479c-2.496,2.859-8.338,3.261-13.005,3.261h-17.719c-7.841,0-14.229-6.378-14.229-14.229v-20.875
		c0-7.841,6.378-14.229,14.229-14.229h17.719c7.095,0,11.638,1.434,13.397,4.188C272.875,258.813,274.759,259.091,277.322,259.091z
		 M361.023,292.607c0,6.12-2.764,13.789-8.033,16.62l-5.508,2.954c-0.43,0.229-0.889,0.249-1.348,0.335
		c-2.018,5.402-7.191,9.285-13.293,9.285H225.761c-6.177,0-11.389-3.978-13.359-9.477c-0.182-0.076-0.382-0.048-0.574-0.144
		l-5.518-2.954c-5.269-2.831-8.032-10.5-8.032-16.62v-8.663c0-6.254,2.888-13.828,8.396-16.199l4.839-2.065v-1.406
		c0-6.798,4.188-14.879,9.763-18.79l3.041-2.132c5.116-3.586,13.684-6.292,19.928-6.292h26.67c2.639,0,4.781,2.142,4.781,4.781
		s-2.142,4.781-4.781,4.781h-26.67c-4.227,0-10.968,2.132-14.439,4.552l-3.041,2.132c-2.974,2.094-5.689,7.325-5.689,10.968v43.309
		c0,2.572,2.094,4.667,4.667,4.667h107.08c2.572,0,4.668-2.095,4.668-4.667v-45.67c0-3.471-2.764-8.157-5.805-9.821l-2.727-1.501
		c-3.844-2.123-11.043-3.968-15.424-3.968h-25.59c-2.639,0-4.781-2.142-4.781-4.781s2.143-4.781,4.781-4.781h25.59
		c5.986,0,14.793,2.266,20.033,5.154l2.727,1.501c6.139,3.385,10.758,11.208,10.758,18.207v3.471c0.01,0,0.018,0,0.027,0
		l5.518,2.362c5.527,2.371,8.406,9.944,8.406,16.198v8.654H361.023z"/>
	<path d="M57.939,306.54c0,0,28.104,9.562,69.433,19.163c0.096-0.325,0.077-0.669,0.22-0.994c2.85-6.417,5.804-20.378,3.701-50.5
		c-0.794-11.178-11.494-20.626-23.371-20.626H2.295c-0.44,0-0.813-0.191-1.234-0.249l5.374,26.154
		c3.213,15.605,16.037,27.999,28.659,27.664C47.708,306.817,57.939,306.54,57.939,306.54z"/>
</g>
<g>
</g>
<g>
</g>
<g>
</g>
<g>
</g>
<g>
</g>
<g>
</g>
<g>
</g>
<g>
</g>
<g>
</g>
<g>
</g>
<g>
</g>
<g>
</g>
<g>
</g>
<g>
</g>
<g>
</g>
</svg>
