<?xml version="1.0" encoding="iso-8859-1"?>
<!-- Generator: Adobe Illustrator 16.0.0, SVG Export Plug-In . SVG Version: 6.00 Build 0)  -->
<!DOCTYPE svg PUBLIC "-//W3C//DTD SVG 1.1//EN" "http://www.w3.org/Graphics/SVG/1.1/DTD/svg11.dtd">
<svg version="1.1" id="Capa_1" xmlns="http://www.w3.org/2000/svg" xmlns:xlink="http://www.w3.org/1999/xlink" x="0px" y="0px"
	 width="523.977px" height="523.977px" viewBox="0 0 523.977 523.977" style="enable-background:new 0 0 523.977 523.977;"
	 xml:space="preserve">
<g>
	<path d="M132.742,400.276l13.378,37.935c5.049,11.733,10.557,22.376,16.524,31.527c18.054,32.379,52.651,54.296,92.335,54.238
		c17.595-0.028,34.167-4.389,48.731-12.039c7.296-2.926,12.479-10.088,12.46-18.465l-0.211-150.007
		c-0.019-7.87-4.6-14.545-11.179-17.777l-0.009-0.104c-14.89-7.966-31.958-12.518-50.099-12.489c-12.192,0-23.935,2.085-34.826,5.9
		c-1.846-18.293-2.859-37.351-3.003-56.944c0.086-19.632,1.033-38.69,2.821-57.012c10.92,3.815,22.654,5.89,34.865,5.862
		c18.14-0.019,35.19-4.609,50.05-12.689l0.009-0.039c6.57-3.251,11.122-10.041,11.112-17.862l-0.229-149.979
		c-0.01-8.405-5.202-15.549-12.518-18.446C288.371,4.293,271.78-0.02,254.195,0c-39.694,0.057-74.233,22.099-92.192,54.525
		c-28.487,44.121-47.268,120.019-47.545,206.464c0.019,0.42,0.01,0.803,0.019,1.233c0,0.393,0.01,0.813,0,1.205
		C114.783,314.118,121.496,361.146,132.742,400.276z"/>
	<path d="M337.819,310.446c4.724,5.862,14.783,5.585,22.49-0.612l40.259-32.416c1.463-1.177,2.687-2.458,3.758-3.815
		c3.127-2.42,5.192-6.149,5.192-10.404c0.01-3.232-1.205-6.168-3.155-8.463c-1.301-2.524-3.232-4.925-5.757-6.971l-40.22-32.474
		c-7.679-6.206-17.729-6.502-22.491-0.641c-4.724,5.862-2.324,15.644,5.354,21.85l16.754,13.531l-87.697-0.057
		c-7.249-0.01-13.13,5.862-13.148,13.111c0,7.258,5.881,13.157,13.129,13.139l86.206,0.076l-15.281,12.316
		C335.515,294.812,333.114,304.575,337.819,310.446z"/>
</g>
<g>
</g>
<g>
</g>
<g>
</g>
<g>
</g>
<g>
</g>
<g>
</g>
<g>
</g>
<g>
</g>
<g>
</g>
<g>
</g>
<g>
</g>
<g>
</g>
<g>
</g>
<g>
</g>
<g>
</g>
</svg>
