<?xml version="1.0" encoding="iso-8859-1"?>
<!-- Generator: Adobe Illustrator 19.0.0, SVG Export Plug-In . SVG Version: 6.00 Build 0)  -->
<svg version="1.1" id="Layer_1" xmlns="http://www.w3.org/2000/svg" xmlns:xlink="http://www.w3.org/1999/xlink" x="0px" y="0px"
	 viewBox="0 0 512 512" style="enable-background:new 0 0 512 512;" xml:space="preserve">
<g>
	<g>
		<path d="M448,186.667C448,83.744,361.867,0,256,0S64,83.744,64,186.667c0,99.456,80.491,180.768,181.44,186.144
			c0,0.181-0.107,0.331-0.107,0.523v128c0,5.891,4.776,10.667,10.667,10.667c5.891,0,10.667-4.776,10.667-10.667v-48l38.4-28.8
			c4.713-3.535,5.668-10.22,2.133-14.933c-3.535-4.713-10.221-5.668-14.933-2.133l-25.6,19.2v-53.333
			c0-0.181-0.096-0.341-0.107-0.523C367.509,367.435,448,286.123,448,186.667z M256,352c-94.101,0-170.667-74.165-170.667-165.333
			S161.899,21.333,256,21.333s170.667,74.165,170.667,165.333S350.101,352,256,352z"/>
	</g>
</g>
<g>
</g>
<g>
</g>
<g>
</g>
<g>
</g>
<g>
</g>
<g>
</g>
<g>
</g>
<g>
</g>
<g>
</g>
<g>
</g>
<g>
</g>
<g>
</g>
<g>
</g>
<g>
</g>
<g>
</g>
</svg>
