<?xml version="1.0" encoding="iso-8859-1"?>
<!-- Generator: Adobe Illustrator 19.0.0, SVG Export Plug-In . SVG Version: 6.00 Build 0)  -->
<svg version="1.1" id="Layer_1" xmlns="http://www.w3.org/2000/svg" xmlns:xlink="http://www.w3.org/1999/xlink" x="0px" y="0px"
	 viewBox="0 0 503.467 503.467" style="enable-background:new 0 0 503.467 503.467;" xml:space="preserve">
<g transform="translate(1 9)">
	<path style="fill:#AAB1BA;" d="M498.2,353.667V387.8c0,18.773-15.36,34.133-34.133,34.133H37.4
		c-18.773,0-34.133-15.36-34.133-34.133v-34.133H498.2z M498.2,97.667V131.8H3.267V97.667c0-18.773,15.36-34.133,34.133-34.133
		h426.667C482.84,63.533,498.2,78.893,498.2,97.667z"/>
	<polygon style="fill:#80D6FA;" points="3.267,353.667 498.2,353.667 498.2,131.8 3.267,131.8 	"/>
	<path style="fill:#ECF4F7;" d="M173.933,200.067V285.4H139.8c-23.893,0-42.667-18.773-42.667-42.667s18.773-42.667,42.667-42.667
		H173.933z M361.667,200.067c23.893,0,42.667,18.773,42.667,42.667S385.56,285.4,361.667,285.4h-34.133v-85.333H361.667z"/>
	<path style="fill:#AAB1BA;" d="M173.933,285.4v34.133h-76.8c0,0-42.667-8.533-42.667-76.8s42.667-76.8,42.667-76.8h76.8v34.133
		H139.8c-23.893,0-42.667,18.773-42.667,42.667S115.907,285.4,139.8,285.4H173.933z M404.333,165.933c0,0,42.667,8.533,42.667,76.8
		s-42.667,76.8-42.667,76.8h-76.8V285.4h34.133c23.893,0,42.667-18.773,42.667-42.667s-18.773-42.667-42.667-42.667h-34.133v-34.133
		H404.333z"/>
</g>
<path style="fill:#51565F;" d="M465.067,435.2H38.4C17.067,435.2,0,418.133,0,396.8V106.667c0-21.333,17.067-38.4,38.4-38.4h426.667
	c21.333,0,38.4,17.067,38.4,38.4V396.8C503.467,418.133,486.4,435.2,465.067,435.2z M38.4,76.8
	c-16.213,0-29.867,13.653-29.867,29.867V396.8c0,16.213,13.653,29.867,29.867,29.867h426.667c16.213,0,29.867-13.653,29.867-29.867
	V106.667c0-16.213-13.653-29.867-29.867-29.867H38.4z M465.067,366.933H38.4c-2.56,0-4.267-1.707-4.267-4.267
	S35.84,358.4,38.4,358.4h426.667c2.56,0,4.267,1.707,4.267,4.267S467.627,366.933,465.067,366.933z M328.533,332.8
	c-2.56,0-4.267-1.707-4.267-4.267v-153.6c0-2.56,1.707-4.267,4.267-4.267h76.8c2.56,0.853,46.933,10.24,46.933,81.067
	s-44.373,80.213-46.08,81.067H328.533z M332.8,324.267h71.68c4.267-0.853,39.253-11.947,39.253-72.533s-34.987-71.68-39.253-72.533
	H332.8V324.267z M174.933,332.8h-76.8c-2.56-0.853-46.933-10.24-46.933-81.067s44.373-80.213,46.08-81.067h77.653
	c2.56,0,4.267,1.707,4.267,4.267v153.6C179.2,331.093,177.493,332.8,174.933,332.8z M98.987,324.267h71.68V179.2h-71.68
	c-4.267,0.853-39.253,11.947-39.253,72.533S94.72,323.413,98.987,324.267z M362.667,298.667c-2.56,0-4.267-1.707-4.267-4.267
	c0-2.56,1.707-4.267,4.267-4.267c21.333,0,38.4-17.067,38.4-38.4s-17.067-38.4-38.4-38.4c-2.56,0-4.267-1.707-4.267-4.267
	c0-2.56,1.707-4.267,4.267-4.267c25.6,0,46.933,21.333,46.933,46.933S388.267,298.667,362.667,298.667z M140.8,298.667
	c-25.6,0-46.933-21.333-46.933-46.933S115.2,204.8,140.8,204.8c2.56,0,4.267,1.707,4.267,4.267c0,2.56-1.707,4.267-4.267,4.267
	c-21.333,0-38.4,17.067-38.4,38.4s17.067,38.4,38.4,38.4c2.56,0,4.267,1.707,4.267,4.267
	C145.067,296.96,143.36,298.667,140.8,298.667z M465.067,145.067H38.4c-2.56,0-4.267-1.707-4.267-4.267
	c0-2.56,1.707-4.267,4.267-4.267h426.667c2.56,0,4.267,1.707,4.267,4.267C469.333,143.36,467.627,145.067,465.067,145.067z"/>
<g>
</g>
<g>
</g>
<g>
</g>
<g>
</g>
<g>
</g>
<g>
</g>
<g>
</g>
<g>
</g>
<g>
</g>
<g>
</g>
<g>
</g>
<g>
</g>
<g>
</g>
<g>
</g>
<g>
</g>
</svg>
