<?xml version="1.0" encoding="iso-8859-1"?>
<!-- Generator: Adobe Illustrator 19.0.0, SVG Export Plug-In . SVG Version: 6.00 Build 0)  -->
<svg version="1.1" id="Layer_1" xmlns="http://www.w3.org/2000/svg" xmlns:xlink="http://www.w3.org/1999/xlink" x="0px" y="0px"
	 viewBox="0 0 512 512" style="enable-background:new 0 0 512 512;" xml:space="preserve">
<g>
	<g>
		<g>
			<path d="M405.333,0H106.667C94.885,0,85.333,9.551,85.333,21.333v469.333c0,11.782,9.551,21.333,21.333,21.333h298.667
				c11.782,0,21.333-9.551,21.333-21.333V21.333C426.667,9.551,417.115,0,405.333,0z M128,106.667h256v234.667H128V106.667z
				 M128,42.667h256V64H128V42.667z M384,469.333H128V384h256V469.333z"/>
			<path d="M185.752,185.752l21.333-21.333c8.331-8.331,8.331-21.839,0-30.17s-21.839-8.331-30.17,0l-21.333,21.333
				c-8.331,8.331-8.331,21.839,0,30.17C163.913,194.083,177.42,194.083,185.752,185.752z"/>
			<path d="M240.915,155.582l-64,64c-8.331,8.331-8.331,21.839,0,30.17c8.331,8.331,21.839,8.331,30.17,0l64-64
				c8.331-8.331,8.331-21.839,0-30.17S249.246,147.251,240.915,155.582z"/>
			<path d="M213.333,448h85.333c11.782,0,21.333-9.551,21.333-21.333s-9.551-21.333-21.333-21.333h-85.333
				c-11.782,0-21.333,9.551-21.333,21.333S201.551,448,213.333,448z"/>
		</g>
	</g>
</g>
<g>
</g>
<g>
</g>
<g>
</g>
<g>
</g>
<g>
</g>
<g>
</g>
<g>
</g>
<g>
</g>
<g>
</g>
<g>
</g>
<g>
</g>
<g>
</g>
<g>
</g>
<g>
</g>
<g>
</g>
</svg>
