<?xml version="1.0" encoding="iso-8859-1"?>
<!-- Generator: Adobe Illustrator 19.0.0, SVG Export Plug-In . SVG Version: 6.00 Build 0)  -->
<svg version="1.1" id="Layer_1" xmlns="http://www.w3.org/2000/svg" xmlns:xlink="http://www.w3.org/1999/xlink" x="0px" y="0px"
	 viewBox="0 0 512.006 512.006" style="enable-background:new 0 0 512.006 512.006;" xml:space="preserve">
<g>
	<g>
		<path d="M505.755,240.921l-10.391-10.391l10.389-10.389c8.331-8.331,8.331-21.838,0.001-30.169L322.052,6.249
			c-8.33-8.331-21.836-8.333-30.168-0.004L281.48,16.646L271.088,6.255c-8.331-8.331-21.839-8.331-30.17,0
			c-8.331,8.331-8.331,21.839,0,30.17l7.962,7.962c-17.347-7.574-38.295-4.275-52.471,9.931l-63.918,63.896
			c-18.486,18.525-18.486,48.511-0.003,66.994l61.329,61.329l-85.669,85.651c-8.333,8.331-8.333,21.84-0.002,30.172l5.711,5.711
			c-0.316,0.28-0.639,0.548-0.941,0.851L6.252,475.588c-8.331,8.331-8.331,21.839,0,30.17c8.331,8.331,21.839,8.331,30.17,0
			l106.667-106.667c0.302-0.302,0.57-0.626,0.851-0.941l5.703,5.703c8.331,8.331,21.839,8.331,30.17,0l85.662-85.662l61.32,61.32
			c18.51,18.51,48.52,18.51,67.007-0.016l63.899-63.899c14.194-14.194,17.49-35.146,9.908-52.483l7.977,7.977
			c8.331,8.331,21.839,8.331,30.17,0C514.086,262.76,514.086,249.253,505.755,240.921z M164.726,358.598l-11.322-11.322
			l70.58-70.565l11.311,11.317L164.726,358.598z M460.499,205.055l-23.164,23.164L283.785,74.67l23.178-23.169L460.499,205.055z
			 M427.529,285.427l-63.915,63.915c-1.838,1.842-4.809,1.842-6.651,0L239.151,231.529l-0.072-0.072c0,0,0,0,0,0l-76.42-76.419
			c-1.826-1.826-1.826-4.821,0.016-6.667l63.918-63.896c1.841-1.845,4.812-1.845,6.654-0.003l194.282,194.303
			C429.372,280.614,429.372,283.585,427.529,285.427z"/>
	</g>
</g>
<g>
</g>
<g>
</g>
<g>
</g>
<g>
</g>
<g>
</g>
<g>
</g>
<g>
</g>
<g>
</g>
<g>
</g>
<g>
</g>
<g>
</g>
<g>
</g>
<g>
</g>
<g>
</g>
<g>
</g>
</svg>
