<?xml version="1.0" encoding="iso-8859-1"?>
<!-- Generator: Adobe Illustrator 16.0.0, SVG Export Plug-In . SVG Version: 6.00 Build 0)  -->
<!DOCTYPE svg PUBLIC "-//W3C//DTD SVG 1.1//EN" "http://www.w3.org/Graphics/SVG/1.1/DTD/svg11.dtd">
<svg version="1.1" id="Capa_1" xmlns="http://www.w3.org/2000/svg" xmlns:xlink="http://www.w3.org/1999/xlink" x="0px" y="0px"
	 width="795.089px" height="795.089px" viewBox="0 0 795.089 795.089" style="enable-background:new 0 0 795.089 795.089;"
	 xml:space="preserve">
<g>
	<g>
		<g>
			<path d="M704.237,456.139c0-14.579-11.819-26.399-26.399-26.399s-26.398,11.82-26.398,26.399h-98.604v-37.453h-20.188v-54.352
				H262.442v54.352h-20.188v37.453h-98.618c0-14.579-11.819-26.399-26.399-26.399s-26.399,11.82-26.399,26.399H0v214.901h242.254
				v-13.207h65.532h16.382H389.7h16.383h65.532h16.383h64.837v13.207h242.254V456.139H704.237z M307.786,636.277h-65.532v-89.92
				c0-18.097,14.669-32.766,32.766-32.766s32.767,14.669,32.767,32.766L307.786,636.277L307.786,636.277z M389.701,636.277h-65.532
				v-89.92c0-18.097,14.67-32.766,32.767-32.766c18.098,0,32.767,14.669,32.767,32.766L389.701,636.277L389.701,636.277z
				 M471.616,636.277h-65.532v-89.92c0-18.097,14.67-32.766,32.767-32.766c18.098,0,32.767,14.669,32.767,32.766L471.616,636.277
				L471.616,636.277z M552.836,636.277h-64.837v-89.92c0-18.097,14.669-32.766,32.766-32.766c15.793,0,28.973,11.174,32.071,26.048
				V636.277z"/>
			<rect x="242.254" y="671.994" width="310.582" height="22.259"/>
			<rect x="242.254" y="711.154" width="310.582" height="34.658"/>
		</g>
		<polygon points="496.154,206.121 496.154,305.507 443.355,305.507 443.355,206.121 423.944,206.121 423.944,305.507 
			371.146,305.507 371.146,206.121 351.734,206.121 351.734,305.507 298.935,305.507 298.935,206.121 281.077,206.121 
			281.077,356.754 514.014,356.754 514.014,206.121 		"/>
		<path d="M409.191,82.47V60.924c0-6.433-5.214-11.647-11.646-11.647c-6.432,0-11.647,5.214-11.647,11.647V82.47
			c-58.854,5.844-104.82,55.495-104.82,115.887h232.937C514.014,137.965,468.046,88.314,409.191,82.47z"/>
	</g>
</g>
<g>
</g>
<g>
</g>
<g>
</g>
<g>
</g>
<g>
</g>
<g>
</g>
<g>
</g>
<g>
</g>
<g>
</g>
<g>
</g>
<g>
</g>
<g>
</g>
<g>
</g>
<g>
</g>
<g>
</g>
</svg>
