<?xml version="1.0" encoding="iso-8859-1"?>
<!-- Generator: Adobe Illustrator 16.0.0, SVG Export Plug-In . SVG Version: 6.00 Build 0)  -->
<!DOCTYPE svg PUBLIC "-//W3C//DTD SVG 1.1//EN" "http://www.w3.org/Graphics/SVG/1.1/DTD/svg11.dtd">
<svg version="1.1" id="Capa_1" xmlns="http://www.w3.org/2000/svg" xmlns:xlink="http://www.w3.org/1999/xlink" x="0px" y="0px"
	 width="460.494px" height="460.494px" viewBox="0 0 460.494 460.494" style="enable-background:new 0 0 460.494 460.494;"
	 xml:space="preserve">
<g>
	<g>
		<path d="M355.961,406.652V53.847C355.961,28.678,328.434,0,304.303,0H156.198c-24.141,0-51.666,28.686-51.666,53.847v352.8
			c0,25.167,27.525,53.848,51.666,53.848h148.095C328.434,460.499,355.961,431.813,355.961,406.652z M116.385,406.652V53.847
			c0-19.245,21.581-41.997,39.813-41.997h148.095c18.234,0,39.806,22.759,39.806,41.997v352.8c0,19.241-21.581,41.995-39.806,41.995
			H156.198C137.966,448.646,116.385,425.888,116.385,406.652z"/>
		<path d="M301.921,384.218c10.349,0,18.764-8.42,18.764-18.764V86.346c0-10.356-8.415-18.76-18.764-18.76H149.13
			c-10.349,0-18.763,8.404-18.763,18.76v279.108c0,10.344,8.415,18.764,18.763,18.764H301.921z M136.29,365.454V86.346
			c0-7.076,5.761-12.837,12.84-12.837h152.791c7.079,0,12.837,5.761,12.837,12.837v279.108c0,7.079-5.758,12.837-12.837,12.837
			H149.13C142.051,378.291,136.29,372.533,136.29,365.454z"/>
		<path d="M315.24,405.926v-1.818c0-5.229-4.255-9.485-9.495-9.485H149.303c-5.238,0-9.496,4.256-9.496,9.485v1.818
			c0,5.094,3.872,9.795,8.826,10.734c14.244,2.656,43.046,7.109,75.896,7.109h3.151h2.836c32.854,0,61.662-4.453,75.905-7.109
			C311.371,415.721,315.24,411.014,315.24,405.926z M230.522,417.854h-3.199h-2.795c-32.367,0-60.761-4.397-74.799-7.007
			c-2.133-0.401-3.997-2.702-3.997-4.921v-1.818c0-1.96,1.603-3.56,3.57-3.56h156.442c1.97,0,3.574,1.6,3.574,3.56v1.818
			c0,2.219-1.863,4.52-3.985,4.921C291.288,413.456,262.896,417.854,230.522,417.854z"/>
		<path d="M207.384,32.573h38.384c1.636,0,2.966-1.328,2.966-2.963c0-1.635-1.33-2.963-2.966-2.963h-38.384
			c-1.635,0-2.963,1.328-2.963,2.963C204.421,31.245,205.739,32.573,207.384,32.573z"/>
		<path d="M160.561,32.342h8.16c1.201,0,2.173-0.97,2.173-2.171v-3.832c0-1.186-0.972-2.158-2.173-2.158h-8.16
			c-1.209,0-2.181,0.972-2.181,2.158v3.824C158.372,31.372,159.352,32.342,160.561,32.342z"/>
		<circle cx="181.789" cy="28.258" r="4.084"/>
		<path d="M202.746,83.794h-50.259c-4.362,0-7.898,3.54-7.898,7.901v51.704c0,4.362,3.537,7.901,7.898,7.901h50.259
			c4.362,0,7.901-3.539,7.901-7.901V91.695C210.647,87.333,207.107,83.794,202.746,83.794z"/>
		<path d="M274.611,83.794h-50.259c-4.359,0-7.899,3.54-7.899,7.901v51.704c0,4.362,3.54,7.901,7.899,7.901h50.259
			c4.362,0,7.901-3.539,7.901-7.901V91.695C282.513,87.333,278.979,83.794,274.611,83.794z"/>
		<path d="M202.746,156.026h-50.259c-4.362,0-7.898,3.54-7.898,7.899v51.706c0,4.36,3.537,7.899,7.898,7.899h50.259
			c4.362,0,7.901-3.54,7.901-7.899v-51.706C210.647,159.565,207.107,156.026,202.746,156.026z"/>
		<path d="M274.611,156.026h-50.259c-4.359,0-7.899,3.54-7.899,7.899v51.706c0,4.36,3.54,7.899,7.899,7.899h50.259
			c4.362,0,7.901-3.54,7.901-7.899v-51.706C282.513,159.565,278.979,156.026,274.611,156.026z"/>
		<path d="M202.746,228.255h-50.259c-4.362,0-7.898,3.537-7.898,7.899v51.724c0,4.357,3.537,7.896,7.898,7.896h50.259
			c4.362,0,7.901-3.539,7.901-7.896v-51.724C210.647,231.787,207.107,228.255,202.746,228.255z"/>
		<path d="M274.611,228.255h-50.259c-4.359,0-7.899,3.537-7.899,7.899v51.724c0,4.357,3.54,7.896,7.899,7.896h50.259
			c4.362,0,7.901-3.539,7.901-7.896v-51.724C282.513,231.787,278.979,228.255,274.611,228.255z"/>
		<path d="M202.746,300.492h-50.259c-4.362,0-7.898,3.539-7.898,7.9v51.704c0,4.362,3.537,7.901,7.898,7.901h50.259
			c4.362,0,7.901-3.539,7.901-7.901v-51.704C210.647,304.031,207.107,300.492,202.746,300.492z"/>
		<path d="M274.611,300.492h-50.259c-4.359,0-7.899,3.539-7.899,7.9v51.704c0,4.362,3.54,7.901,7.899,7.901h50.259
			c4.362,0,7.901-3.539,7.901-7.901v-51.704C282.513,304.031,278.979,300.492,274.611,300.492z"/>
		<path d="M300.479,127.973c5.846,0,10.604-4.773,10.604-10.618c0-5.847-4.758-10.603-10.604-10.603
			c-5.854,0-10.612,4.755-10.612,10.603C289.866,123.199,294.624,127.973,300.479,127.973z M300.479,108.734
			c4.754,0,8.628,3.872,8.628,8.628c0,4.771-3.874,8.643-8.628,8.643c-4.763,0-8.637-3.872-8.637-8.643
			C291.836,112.606,295.716,108.734,300.479,108.734z"/>
		<path d="M300.479,121.216c0.417,0.348,1.61-0.386,2.651-1.643c1.051-1.254,0.903-3.263-0.33-4.471
			c-1.234-1.216-2.534-1.889-2.925-1.493c-0.387,0.389-0.219,1.16,0.36,1.739c0.573,0.569-0.193,1.033-1.727,1.033
			c-1.534,0-2.772,0.442-2.772,0.988s1.305,0.987,2.914,0.987c1.615,0,2.499,0.498,1.986,1.122
			C300.139,120.079,300.058,120.869,300.479,121.216z"/>
	</g>
</g>
<g>
</g>
<g>
</g>
<g>
</g>
<g>
</g>
<g>
</g>
<g>
</g>
<g>
</g>
<g>
</g>
<g>
</g>
<g>
</g>
<g>
</g>
<g>
</g>
<g>
</g>
<g>
</g>
<g>
</g>
</svg>
