<?xml version="1.0" encoding="iso-8859-1"?>
<!-- Generator: Adobe Illustrator 19.0.0, SVG Export Plug-In . SVG Version: 6.00 Build 0)  -->
<svg version="1.1" id="Layer_1" xmlns="http://www.w3.org/2000/svg" xmlns:xlink="http://www.w3.org/1999/xlink" x="0px" y="0px"
	 viewBox="0 0 512 512" style="enable-background:new 0 0 512 512;" xml:space="preserve">
<g transform="translate(1 1)">
	<path style="fill:#FCC309;" d="M316.44,387.267v17.067H193.56v-17.067H33.133v25.6c0,9.387,6.827,17.067,15.36,17.067h413.013
		c8.533,0,15.36-7.68,15.36-17.067v-25.6H316.44z"/>
	<path style="fill:#FFFFFF;" d="M33.133,412.867v-25.6h-25.6v25.6c0,9.387,7.68,17.067,17.067,17.067h23.893
		C39.96,429.933,33.133,422.253,33.133,412.867"/>
	<path style="fill:#FD9808;" d="M476.867,387.267v25.6c0,9.387-6.827,17.067-15.36,17.067H485.4c9.387,0,17.067-7.68,17.067-17.067
		v-25.6H476.867z"/>
	<path style="fill:#FFDD09;" d="M194.413,387.267v17.067h121.173v-17.067H459.8V97.133c0-9.387-6.827-17.067-15.36-17.067H65.56
		c-8.533,0-15.36,7.68-15.36,17.067v290.133H194.413z"/>
	<path style="fill:#FFFFFF;" d="M65.56,80.067H41.667c-9.387,0-17.067,7.68-17.067,17.067v290.133h25.6V97.133
		C50.2,87.747,57.027,80.067,65.56,80.067"/>
	<path style="fill:#FD9808;" d="M468.333,80.067H444.44c8.533,0,15.36,7.68,15.36,17.067v290.133h25.6V97.133
		C485.4,87.747,477.72,80.067,468.333,80.067"/>
	<path style="fill:#1CD759;" d="M280.6,199.533c0,46.933,38.4,85.333,85.333,85.333s85.333-38.4,85.333-85.333
		s-38.4-85.333-85.333-85.333S280.6,152.6,280.6,199.533"/>
	<g>
		<path style="fill:#54C9FD;" d="M400.067,276.333h2.56c28.16-13.653,48.64-42.667,48.64-76.8c0-46.933-38.4-85.333-85.333-85.333
			v93.867L400.067,276.333z"/>
		<path style="fill:#54C9FD;" d="M229.4,199.533c0,46.933-38.4,85.333-85.333,85.333s-85.333-38.4-85.333-85.333
			s38.4-85.333,85.333-85.333S229.4,152.6,229.4,199.533"/>
	</g>
	<path style="fill:#1CD759;" d="M58.733,199.533c0,2.56,0,5.973,0.853,8.533h84.48V114.2C97.133,114.2,58.733,152.6,58.733,199.533"
		/>
	<path d="M485.4,438.467H24.6c-14.507,0-25.6-11.093-25.6-25.6v-25.6c0-5.12,3.413-8.533,8.533-8.533h179.2
		c5.12,0,8.533,3.413,8.533,8.533v8.533h119.467v-8.533c0-5.12,3.413-8.533,8.533-8.533h179.2c5.12,0,8.533,3.413,8.533,8.533v25.6
		C511,427.373,499.907,438.467,485.4,438.467z M16.067,395.8v17.067c0,5.12,3.413,8.533,8.533,8.533h460.8
		c5.12,0,8.533-3.413,8.533-8.533V395.8H331.8v8.533c0,5.12-3.413,8.533-8.533,8.533H186.733c-5.12,0-8.533-3.413-8.533-8.533V395.8
		H16.067z"/>
	<path d="M323.267,412.867H186.733c-5.12,0-8.533-3.413-8.533-8.533V395.8H24.6c-5.12,0-8.533-3.413-8.533-8.533V97.133
		c0-14.507,11.093-25.6,25.6-25.6h426.667c14.507,0,25.6,11.093,25.6,25.6v290.133c0,5.12-3.413,8.533-8.533,8.533H331.8v8.533
		C331.8,409.453,328.387,412.867,323.267,412.867z M195.267,395.8h119.467v-8.533c0-5.12,3.413-8.533,8.533-8.533h153.6v-281.6
		c0-5.12-3.413-8.533-8.533-8.533H41.667c-5.12,0-8.533,3.413-8.533,8.533v281.6h153.6c5.12,0,8.533,3.413,8.533,8.533V395.8z"/>
	<path d="M144.067,293.4c-52.053,0-93.867-41.813-93.867-93.867s41.813-93.867,93.867-93.867s93.867,41.813,93.867,93.867
		S196.12,293.4,144.067,293.4z M144.067,122.733c-42.667,0-76.8,34.133-76.8,76.8s34.133,76.8,76.8,76.8s76.8-34.133,76.8-76.8
		S186.733,122.733,144.067,122.733z"/>
	<path d="M365.933,293.4c-52.053,0-93.867-41.813-93.867-93.867s41.813-93.867,93.867-93.867S459.8,147.48,459.8,199.533
		S417.987,293.4,365.933,293.4z M365.933,122.733c-42.667,0-76.8,34.133-76.8,76.8s34.133,76.8,76.8,76.8s76.8-34.133,76.8-76.8
		S408.6,122.733,365.933,122.733z"/>
	<path d="M152.6,216.6H51.053l-0.853-7.68c0-3.413,0-5.973,0-9.387c0-52.053,41.813-93.867,93.867-93.867h8.533V216.6z
		 M67.267,199.533h68.267v-75.947C97.133,127.853,67.267,160.28,67.267,199.533z"/>
	<path d="M178.2,327.533h-42.667c-5.12,0-8.533-3.413-8.533-8.533c0-5.12,3.413-8.533,8.533-8.533H178.2
		c5.12,0,8.533,3.413,8.533,8.533C186.733,324.12,183.32,327.533,178.2,327.533z"/>
	<path d="M101.4,327.533h-8.533c-5.12,0-8.533-3.413-8.533-8.533c0-5.12,3.413-8.533,8.533-8.533h8.533
		c5.12,0,8.533,3.413,8.533,8.533C109.933,324.12,106.52,327.533,101.4,327.533z"/>
	<path d="M127,361.667H92.867c-5.12,0-8.533-3.413-8.533-8.533c0-5.12,3.413-8.533,8.533-8.533H127c5.12,0,8.533,3.413,8.533,8.533
		C135.533,358.253,132.12,361.667,127,361.667z"/>
	<path d="M178.2,361.667h-17.067c-5.12,0-8.533-3.413-8.533-8.533c0-5.12,3.413-8.533,8.533-8.533H178.2
		c5.12,0,8.533,3.413,8.533,8.533C186.733,358.253,183.32,361.667,178.2,361.667z"/>
	<path d="M417.133,327.533h-42.667c-5.12,0-8.533-3.413-8.533-8.533c0-5.12,3.413-8.533,8.533-8.533h42.667
		c5.12,0,8.533,3.413,8.533,8.533C425.667,324.12,422.253,327.533,417.133,327.533z"/>
	<path d="M340.333,327.533H331.8c-5.12,0-8.533-3.413-8.533-8.533c0-5.12,3.413-8.533,8.533-8.533h8.533
		c5.12,0,8.533,3.413,8.533,8.533C348.867,324.12,345.453,327.533,340.333,327.533z"/>
	<path d="M365.933,361.667H331.8c-5.12,0-8.533-3.413-8.533-8.533c0-5.12,3.413-8.533,8.533-8.533h34.133
		c5.12,0,8.533,3.413,8.533,8.533C374.467,358.253,371.053,361.667,365.933,361.667z"/>
	<path d="M417.133,361.667h-17.067c-5.12,0-8.533-3.413-8.533-8.533c0-5.12,3.413-8.533,8.533-8.533h17.067
		c5.12,0,8.533,3.413,8.533,8.533C425.667,358.253,422.253,361.667,417.133,361.667z"/>
	<path d="M405.187,284.867h-10.24L357.4,209.773V105.667h8.533c52.053,0,93.867,41.813,93.867,93.867
		c0,36.693-20.48,68.267-52.907,84.48L405.187,284.867z M374.467,206.36l29.867,59.733c23.893-13.653,38.4-38.4,38.4-66.56
		c0-39.253-29.867-71.68-68.267-75.947V206.36z"/>
</g>
<g>
</g>
<g>
</g>
<g>
</g>
<g>
</g>
<g>
</g>
<g>
</g>
<g>
</g>
<g>
</g>
<g>
</g>
<g>
</g>
<g>
</g>
<g>
</g>
<g>
</g>
<g>
</g>
<g>
</g>
</svg>
