<?xml version="1.0" encoding="iso-8859-1"?>
<!-- Generator: Adobe Illustrator 19.0.0, SVG Export Plug-In . SVG Version: 6.00 Build 0)  -->
<svg version="1.1" id="Layer_1" xmlns="http://www.w3.org/2000/svg" xmlns:xlink="http://www.w3.org/1999/xlink" x="0px" y="0px"
	 viewBox="0 0 512.001 512.001" style="enable-background:new 0 0 512.001 512.001;" xml:space="preserve">
<path style="fill:#00BCD4;" d="M250.728,501.268H67.321c-11.594,0-20.993-9.399-20.993-20.993V151.974
	c0-11.594,9.399-20.993,20.993-20.993h183.407c11.594,0,20.993,9.399,20.993,20.993v328.301
	C271.721,491.869,262.322,501.268,250.728,501.268z"/>
<rect x="46.323" y="185.111" style="fill:#ECF0F1;" width="225.392" height="262.023"/>
<path style="fill:#FFC107;" d="M465.671,147.341c0-75.447-81.549-136.609-182.144-136.609S101.382,71.895,101.382,147.341
	c0,69.639,69.477,127.104,159.278,135.54c3.338,28.149,4.213,75.797-23.498,96.281c0,0,83.042-14.275,116.031-105.569
	C419.22,253.074,465.671,204.28,465.671,147.341z"/>
<g>
	<path style="fill:#231F20;" d="M418.762,42.158C382.515,14.971,334.487,0,283.527,0s-98.988,14.971-135.235,42.158
		c-28.613,21.461-47.317,48.538-54.42,78.09H67.322c-17.494,0-31.727,14.233-31.727,31.727v328.301
		c0,17.494,14.233,31.726,31.727,31.726h183.407c17.494,0,31.726-14.232,31.726-31.726V373.193c1.935-1.066,3.898-2.188,5.889-3.386
		c23.381-14.075,54.651-40.588,73.072-87.593c70.041-23.52,114.99-76.006,114.99-134.872
		C476.404,107.392,455.933,70.036,418.762,42.158z M67.322,141.713h23.478c-0.09,1.871-0.151,3.745-0.151,5.627
		c0,9.144,1.098,18.19,3.241,27.038H57.062v-22.406C57.062,146.316,61.664,141.713,67.322,141.713z M250.728,490.534H67.322
		c-5.657,0-10.261-4.602-10.261-10.26v-22.406h203.926v22.406C260.988,485.932,256.385,490.534,250.728,490.534z M260.988,436.404
		H57.062V195.846h44.266c8.4,18.498,21.6,35.657,39.097,50.419c29.048,24.509,67.98,40.792,110.413,46.314
		c1.747,21.889,1.436,58.843-17.509,75.85h-56.756c-5.927,0-10.733,4.806-10.733,10.733c0,5.927,4.806,10.733,10.733,10.733h60.569
		c0.004,0,0.01,0.001,0.014,0.001c0.336,0,0.673-0.02,1.011-0.052c0.13-0.012,0.258-0.033,0.385-0.049
		c0.143-0.019,0.284-0.03,0.427-0.055c0.574-0.099,9.253-1.643,22.007-6.547v53.211H260.988z M350.008,263.341
		c-3.209,0.998-5.767,3.441-6.91,6.602c-12.71,35.175-34.602,62.431-65.066,81.011c-4.354,2.655-8.584,4.936-12.583,6.888
		c9.046-23.419,8.696-52.391,5.87-76.228c-0.596-5.023-4.618-8.949-9.654-9.421c-85.258-8.009-149.55-61.684-149.55-124.853
		c0.001-69.408,76.896-125.875,171.413-125.875s171.412,56.467,171.412,125.875C454.938,198.001,413.751,243.534,350.008,263.341z"
		/>
	<path style="fill:#231F20;" d="M178.95,106.117h29.446c5.927,0,10.733-4.806,10.733-10.733s-4.806-10.733-10.733-10.733H178.95
		c-16.313,0-29.585,13.272-29.585,29.585v10.592c0,16.313,13.272,29.585,29.585,29.585c0.443,0,0.877-0.035,1.306-0.087
		c0.429,0.053,0.863,0.087,1.306,0.087h7.98c4.478,0,8.119,3.643,8.119,8.119v10.592c0,4.478-3.643,8.119-8.119,8.119h-29.446
		c-5.927,0-10.733,4.806-10.733,10.733c0,5.927,4.806,10.733,10.733,10.733h29.447c16.313,0,29.585-13.272,29.585-29.585v-10.592
		c0-16.313-13.272-29.585-29.585-29.585h-7.98c-0.443,0-0.877,0.035-1.306,0.087c-0.429-0.053-0.863-0.087-1.306-0.087
		c-4.478,0-8.119-3.643-8.119-8.119v-10.592C170.831,109.759,174.474,106.117,178.95,106.117z"/>
	<path style="fill:#231F20;" d="M377.51,106.117h29.446c5.927,0,10.733-4.806,10.733-10.733s-4.806-10.733-10.733-10.733H377.51
		c-16.313,0-29.585,13.272-29.585,29.585v10.592c0,16.313,13.272,29.585,29.585,29.585c0.443,0,0.877-0.035,1.306-0.087
		c0.429,0.053,0.863,0.087,1.306,0.087h7.98c4.478,0,8.119,3.643,8.119,8.119v10.592c0,4.478-3.643,8.119-8.119,8.119h-29.446
		c-5.927,0-10.733,4.806-10.733,10.733c0,5.927,4.806,10.733,10.733,10.733h29.447c16.313,0,29.585-13.272,29.585-29.585v-10.592
		c0-16.313-13.272-29.585-29.585-29.585h-7.98c-0.443,0-0.877,0.035-1.306,0.087c-0.429-0.053-0.863-0.087-1.306-0.087
		c-4.478,0-8.119-3.643-8.119-8.119v-10.592C369.39,109.759,373.033,106.117,377.51,106.117z"/>
	<path style="fill:#231F20;" d="M319.752,85.435c-4.052-1.641-8.698-0.657-11.739,2.485l-24.486,25.303L259.041,87.92
		c-3.041-3.144-7.688-4.127-11.739-2.485c-4.054,1.64-6.707,5.576-6.707,9.949v96.596c0,5.927,4.806,10.733,10.733,10.733
		s10.733-4.806,10.733-10.733v-70.072l13.753,14.211c4.082,4.219,10.783,4.364,15.05,0.358c0.001-0.001,0.002-0.002,0.003-0.003
		c0.04-0.038,0.084-0.069,0.122-0.107c0.032-0.031,0.06-0.067,0.092-0.099c0.053-0.05,0.102-0.093,0.157-0.15l13.753-14.211v70.072
		c0,5.927,4.806,10.733,10.733,10.733s10.733-4.806,10.733-10.733V95.384C326.459,91.011,323.805,87.075,319.752,85.435z"/>
	<path style="fill:#231F20;" d="M133.642,368.429h-5.725c-5.927,0-10.733,4.806-10.733,10.733c0,5.927,4.806,10.733,10.733,10.733
		h5.725c5.927,0,10.733-4.806,10.733-10.733C144.375,373.235,139.569,368.429,133.642,368.429z"/>
</g>
<g>
</g>
<g>
</g>
<g>
</g>
<g>
</g>
<g>
</g>
<g>
</g>
<g>
</g>
<g>
</g>
<g>
</g>
<g>
</g>
<g>
</g>
<g>
</g>
<g>
</g>
<g>
</g>
<g>
</g>
</svg>
