<?xml version="1.0" encoding="iso-8859-1"?>
<!-- Generator: Adobe Illustrator 19.0.0, SVG Export Plug-In . SVG Version: 6.00 Build 0)  -->
<svg version="1.1" id="Layer_1" xmlns="http://www.w3.org/2000/svg" xmlns:xlink="http://www.w3.org/1999/xlink" x="0px" y="0px"
	 viewBox="0 0 512 512" style="enable-background:new 0 0 512 512;" xml:space="preserve">
<path style="fill:#2196F3;" d="M294.4,378.553H49.294c-21.21,0-38.4-17.19-38.4-38.4V171.847c0-21.199,17.19-38.4,38.4-38.4H217.6
	c21.21,0,38.4,17.201,38.4,38.4v168.306C256,361.363,273.19,378.553,294.4,378.553z"/>
<path style="fill:#ECF0F1;" d="M501.106,171.847v168.306c0,21.21-17.19,38.4-38.4,38.4H294.4c-21.21,0-38.4-17.19-38.4-38.4V171.847
	c0-21.199-17.19-38.4-38.4-38.4h245.106C483.916,133.447,501.106,150.648,501.106,171.847z"/>
<g>
	<path style="fill:#231F20;" d="M462.706,122.553H49.294C22.113,122.553,0,144.666,0,171.847v168.306
		c0,27.181,22.113,49.294,49.294,49.294h413.413c27.181,0,49.294-22.113,49.294-49.294V171.847
		C512,144.666,489.887,122.553,462.706,122.553z M49.294,367.66c-15.167,0-27.506-12.339-27.506-27.506V171.847
		c0-15.167,12.339-27.506,27.506-27.506H217.6c15.167,0,27.506,12.339,27.506,27.506v168.306c0,10.178,3.1,19.644,8.407,27.506
		H49.294z M490.213,340.153c0,15.167-12.339,27.506-27.506,27.506H294.4c-15.167,0-27.506-12.339-27.506-27.506V171.847
		c0-10.178-3.101-19.646-8.408-27.507l0.001,0.001h204.219c15.167,0,27.506,12.339,27.506,27.506V340.153z"/>
	<path style="fill:#231F20;" d="M154.326,190.642c-6.015,0-10.894,4.877-10.894,10.894v81.995l-19.098-30.415
		c-0.037-0.059-0.081-0.111-0.119-0.169c-0.124-0.19-0.255-0.376-0.391-0.558c-0.087-0.117-0.174-0.23-0.265-0.342
		c-0.129-0.158-0.261-0.312-0.4-0.463c-0.115-0.127-0.232-0.252-0.353-0.373c-0.121-0.121-0.246-0.239-0.375-0.355
		c-0.15-0.137-0.304-0.27-0.461-0.399c-0.112-0.09-0.227-0.179-0.342-0.265c-0.183-0.137-0.369-0.267-0.559-0.392
		c-0.058-0.038-0.11-0.082-0.169-0.118c-0.058-0.036-0.118-0.063-0.176-0.099c-0.188-0.113-0.38-0.22-0.574-0.321
		c-0.139-0.073-0.279-0.144-0.42-0.21c-0.166-0.077-0.334-0.149-0.503-0.219c-0.173-0.071-0.348-0.141-0.523-0.202
		c-0.142-0.049-0.284-0.094-0.428-0.137c-0.202-0.061-0.403-0.12-0.606-0.169c-0.131-0.032-0.261-0.057-0.393-0.084
		c-0.212-0.044-0.425-0.084-0.637-0.114c-0.139-0.02-0.279-0.033-0.419-0.047c-0.202-0.021-0.403-0.04-0.605-0.049
		c-0.164-0.008-0.33-0.007-0.495-0.008c-0.176,0-0.352-0.001-0.527,0.008c-0.191,0.009-0.381,0.027-0.572,0.047
		c-0.151,0.015-0.303,0.029-0.453,0.051c-0.203,0.028-0.404,0.068-0.607,0.109c-0.142,0.028-0.283,0.056-0.423,0.09
		c-0.195,0.047-0.388,0.103-0.581,0.162c-0.151,0.046-0.303,0.093-0.453,0.145c-0.169,0.06-0.336,0.125-0.502,0.194
		c-0.176,0.072-0.351,0.146-0.524,0.228c-0.135,0.063-0.268,0.132-0.401,0.2c-0.202,0.105-0.399,0.215-0.594,0.332
		c-0.054,0.033-0.112,0.059-0.167,0.094c-0.056,0.035-0.105,0.076-0.16,0.112c-0.196,0.127-0.388,0.263-0.576,0.403
		c-0.111,0.084-0.221,0.168-0.329,0.255c-0.161,0.131-0.318,0.267-0.473,0.407c-0.125,0.113-0.247,0.229-0.366,0.348
		c-0.122,0.122-0.241,0.249-0.358,0.378c-0.136,0.15-0.269,0.302-0.395,0.459c-0.092,0.112-0.18,0.228-0.267,0.345
		c-0.136,0.182-0.266,0.367-0.39,0.557c-0.038,0.058-0.082,0.11-0.119,0.17l-19.098,30.415v-81.995
		c0-6.017-4.878-10.894-10.894-10.894S65,195.521,65,201.537v119.83c0,4.855,3.214,9.124,7.879,10.468
		c0.999,0.288,2.012,0.427,3.014,0.427c3.679,0,7.196-1.869,9.226-5.102l29.991-47.764l29.991,47.764
		c2.029,3.232,5.547,5.102,9.226,5.102c1.002,0,2.016-0.138,3.014-0.427c4.666-1.343,7.879-5.612,7.879-10.468v-119.83
		C165.219,195.519,160.341,190.642,154.326,190.642z"/>
	<path style="fill:#231F20;" d="M197.9,238.573c-6.015,0-10.894,4.877-10.894,10.894v71.898c0,6.017,4.878,10.894,10.894,10.894
		s10.894-4.877,10.894-10.894v-71.898C208.794,243.451,203.915,238.573,197.9,238.573z"/>
	<path style="fill:#231F20;" d="M197.9,199.356c-6.015,0-10.894,4.877-10.894,10.894v3.631c0,6.017,4.878,10.894,10.894,10.894
		s10.894-4.877,10.894-10.894v-3.631C208.794,204.234,203.915,199.356,197.9,199.356z"/>
	<path style="fill:#231F20;" d="M424.851,238.573c-6.015,0-10.894,4.877-10.894,10.894v71.898c0,6.017,4.878,10.894,10.894,10.894
		c6.015,0,10.894-4.877,10.894-10.894v-71.898C435.745,243.451,430.867,238.573,424.851,238.573z"/>
	<path style="fill:#231F20;" d="M424.851,199.356c-6.015,0-10.894,4.877-10.894,10.894v3.631c0,6.017,4.878,10.894,10.894,10.894
		c6.015,0,10.894-4.877,10.894-10.894v-3.631C435.745,204.234,430.867,199.356,424.851,199.356z"/>
	<path style="fill:#231F20;" d="M381.277,190.642h-49.385c-6.015,0-10.894,4.877-10.894,10.894v119.83
		c0,6.017,4.878,10.894,10.894,10.894s10.894-4.877,10.894-10.894v-51.563h24.693c6.015,0,10.894-4.877,10.894-10.894
		c0-6.017-4.878-10.894-10.894-10.894h-24.693v-35.586h38.491c6.015,0,10.894-4.877,10.894-10.894S387.292,190.642,381.277,190.642z
		"/>
</g>
<g>
</g>
<g>
</g>
<g>
</g>
<g>
</g>
<g>
</g>
<g>
</g>
<g>
</g>
<g>
</g>
<g>
</g>
<g>
</g>
<g>
</g>
<g>
</g>
<g>
</g>
<g>
</g>
<g>
</g>
</svg>
