<?xml version="1.0" encoding="iso-8859-1"?>
<!-- Generator: Adobe Illustrator 19.0.0, SVG Export Plug-In . SVG Version: 6.00 Build 0)  -->
<svg version="1.1" id="Layer_1" xmlns="http://www.w3.org/2000/svg" xmlns:xlink="http://www.w3.org/1999/xlink" x="0px" y="0px"
	 viewBox="0 0 512 512" style="enable-background:new 0 0 512 512;" xml:space="preserve">
<g transform="translate(1 1)">
	<path style="fill:#FFDD09;" d="M485.4,502.467H24.6c-9.387,0-17.067-7.68-17.067-17.067V24.6c0-9.387,7.68-17.067,17.067-17.067
		h460.8c9.387,0,17.067,7.68,17.067,17.067v460.8C502.467,494.787,494.787,502.467,485.4,502.467"/>
	<polygon style="fill:#FCC309;" points="297.667,459.8 468.333,459.8 468.333,357.4 297.667,357.4 	"/>
	<path style="fill:#FD9808;" d="M485.4,7.533h-17.067c9.387,0,17.067,7.68,17.067,17.067v460.8c0,9.387-7.68,17.067-17.067,17.067
		H485.4c9.387,0,17.067-7.68,17.067-17.067V24.6C502.467,15.213,494.787,7.533,485.4,7.533"/>
	<path style="fill:#FFFFFF;" d="M24.6,7.533h17.067C32.28,7.533,24.6,15.213,24.6,24.6v460.8c0,9.387,7.68,17.067,17.067,17.067
		H24.6c-9.387,0-17.067-7.68-17.067-17.067V24.6C7.533,15.213,15.213,7.533,24.6,7.533"/>
	<polygon style="fill:#1CD759;" points="212.333,84.333 297.667,84.333 297.667,50.2 212.333,50.2 	"/>
	<polygon style="fill:#FCC309;" points="41.667,263.533 468.333,263.533 468.333,127 41.667,127 	"/>
	<g>
		<polygon style="fill:#FD9808;" points="442.733,459.8 468.333,459.8 468.333,357.4 442.733,357.4 		"/>
		<polygon style="fill:#FD9808;" points="442.733,263.533 468.333,263.533 468.333,127 442.733,127 		"/>
	</g>
	<path d="M485.4,511H24.6C10.093,511-1,499.907-1,485.4V24.6C-1,10.093,10.093-1,24.6-1h460.8C499.907-1,511,10.093,511,24.6v460.8
		C511,499.907,499.907,511,485.4,511z M24.6,16.067c-5.12,0-8.533,3.413-8.533,8.533v460.8c0,5.12,3.413,8.533,8.533,8.533h460.8
		c5.12,0,8.533-3.413,8.533-8.533V24.6c0-5.12-3.413-8.533-8.533-8.533H24.6z"/>
	<path d="M297.667,92.867h-85.333c-5.12,0-8.533-3.413-8.533-8.533V50.2c0-5.12,3.413-8.533,8.533-8.533h85.333
		c5.12,0,8.533,3.413,8.533,8.533v34.133C306.2,89.453,302.787,92.867,297.667,92.867z M220.867,75.8h68.267V58.733h-68.267V75.8z"
		/>
	<path d="M92.867,75.8h-51.2c-5.12,0-8.533-3.413-8.533-8.533s3.413-8.533,8.533-8.533h51.2c5.12,0,8.533,3.413,8.533,8.533
		S97.133,75.8,92.867,75.8z"/>
	<path d="M178.2,75.8H127c-5.12,0-8.533-3.413-8.533-8.533s3.413-8.533,8.533-8.533h51.2c5.12,0,8.533,3.413,8.533,8.533
		S183.32,75.8,178.2,75.8z"/>
	<path d="M383,75.8h-51.2c-5.12,0-8.533-3.413-8.533-8.533s3.413-8.533,8.533-8.533H383c5.12,0,8.533,3.413,8.533,8.533
		S387.267,75.8,383,75.8z"/>
	<path d="M468.333,75.8h-51.2c-5.12,0-8.533-3.413-8.533-8.533s3.413-8.533,8.533-8.533h51.2c5.12,0,8.533,3.413,8.533,8.533
		S473.453,75.8,468.333,75.8z"/>
	<path d="M468.333,272.067H41.667c-5.12,0-8.533-3.413-8.533-8.533V127c0-5.12,3.413-8.533,8.533-8.533h426.667
		c5.12,0,8.533,3.413,8.533,8.533v136.533C476.867,268.653,473.453,272.067,468.333,272.067z M50.2,255h409.6V135.533H50.2V255z"/>
	<path d="M109.933,314.733H50.2c-5.12,0-8.533-3.413-8.533-8.533s3.413-8.533,8.533-8.533h59.733c5.12,0,8.533,3.413,8.533,8.533
		S115.053,314.733,109.933,314.733z"/>
	<path d="M272.067,314.733H161.133c-5.12,0-8.533-3.413-8.533-8.533s3.413-8.533,8.533-8.533h110.933
		c5.12,0,8.533,3.413,8.533,8.533S277.187,314.733,272.067,314.733z"/>
	<path d="M468.333,314.733H323.267c-5.12,0-8.533-3.413-8.533-8.533s3.413-8.533,8.533-8.533h145.067
		c5.12,0,8.533,3.413,8.533,8.533S473.453,314.733,468.333,314.733z"/>
	<path d="M161.133,365.933H50.2c-5.12,0-8.533-3.413-8.533-8.533s3.413-8.533,8.533-8.533h110.933c5.12,0,8.533,3.413,8.533,8.533
		S166.253,365.933,161.133,365.933z"/>
	<path d="M246.467,365.933h-34.133c-5.12,0-8.533-3.413-8.533-8.533s3.413-8.533,8.533-8.533h34.133c5.12,0,8.533,3.413,8.533,8.533
		S251.587,365.933,246.467,365.933z"/>
	<path d="M109.933,417.133H50.2c-5.12,0-8.533-3.413-8.533-8.533c0-5.12,3.413-8.533,8.533-8.533h59.733
		c5.12,0,8.533,3.413,8.533,8.533C118.467,413.72,115.053,417.133,109.933,417.133z"/>
	<path d="M246.467,417.133h-85.333c-5.12,0-8.533-3.413-8.533-8.533c0-5.12,3.413-8.533,8.533-8.533h85.333
		c5.12,0,8.533,3.413,8.533,8.533C255,413.72,251.587,417.133,246.467,417.133z"/>
	<path d="M161.133,468.333H50.2c-5.12,0-8.533-3.413-8.533-8.533s3.413-8.533,8.533-8.533h110.933c5.12,0,8.533,3.413,8.533,8.533
		S166.253,468.333,161.133,468.333z"/>
	<path d="M246.467,468.333h-34.133c-5.12,0-8.533-3.413-8.533-8.533s3.413-8.533,8.533-8.533h34.133c5.12,0,8.533,3.413,8.533,8.533
		S251.587,468.333,246.467,468.333z"/>
	<path d="M468.333,468.333H297.667c-5.12,0-8.533-3.413-8.533-8.533V357.4c0-5.12,3.413-8.533,8.533-8.533h170.667
		c5.12,0,8.533,3.413,8.533,8.533v102.4C476.867,464.92,473.453,468.333,468.333,468.333z M306.2,451.267h153.6v-85.333H306.2
		V451.267z"/>
</g>
<g>
</g>
<g>
</g>
<g>
</g>
<g>
</g>
<g>
</g>
<g>
</g>
<g>
</g>
<g>
</g>
<g>
</g>
<g>
</g>
<g>
</g>
<g>
</g>
<g>
</g>
<g>
</g>
<g>
</g>
</svg>
