<?xml version="1.0" encoding="iso-8859-1"?>
<!-- Generator: Adobe Illustrator 19.0.0, SVG Export Plug-In . SVG Version: 6.00 Build 0)  -->
<svg version="1.1" id="Capa_1" xmlns="http://www.w3.org/2000/svg" xmlns:xlink="http://www.w3.org/1999/xlink" x="0px" y="0px"
	 viewBox="0 0 384.941 384.941" style="enable-background:new 0 0 384.941 384.941;" xml:space="preserve">
<g>
	<path d="M299.803,95c-54.617,0-98.833-39.752-98.833-88V0h-16v7c0,48.248-44.216,88-98.833,88H26.97v77.627
		c0,45.87,15.597,90.113,44.632,127.947c28.914,37.676,69.521,66.363,117.198,82.959l4.107,1.407l4.077-1.408
		c47.676-16.596,87.924-45.283,116.838-82.959c29.035-37.834,44.147-82.077,44.147-127.947V95H299.803z M342.97,172.627
		c0,42.538-14.024,83.624-41.031,118.814c-26.948,35.115-64.576,61.939-109.094,77.615c-44.518-15.676-82.458-42.5-109.406-77.615
		C56.432,256.251,41.97,215.166,41.97,172.627V110h44.167c30.363,0,58.915-10.808,80.396-29.979
		c11.827-10.555,20.758-23.157,26.438-36.787c5.68,13.629,14.61,26.294,26.438,36.849C240.888,99.254,269.44,110,299.803,110h43.167
		V172.627z"/>
	<path d="M203.465,149.5c11.093,0,22.002,2.958,31.548,8.554l7.586-12.94c-11.845-6.943-25.377-10.614-39.134-10.614
		c-34.729,0-64.195,22.961-74.016,54.5H112.97v15h13.406c-0.271,2.631-0.412,5.299-0.412,8c0,3.046,0.196,6.045,0.54,9H112.97v15
		h16.816c10.129,31.019,39.32,53.5,73.678,53.5c13.757,0,27.289-3.67,39.134-10.614l-7.586-12.94
		c-9.546,5.596-20.455,8.554-31.548,8.554c-25.963,0-48.272-15.916-57.701-38.5h42.207v-15h-46.349c-0.426-2.94-0.657-5.943-0.657-9
		c0-2.712,0.193-5.378,0.53-8h46.476v-15h-42.602C154.551,165.89,177.122,149.5,203.465,149.5z"/>
</g>
<g>
</g>
<g>
</g>
<g>
</g>
<g>
</g>
<g>
</g>
<g>
</g>
<g>
</g>
<g>
</g>
<g>
</g>
<g>
</g>
<g>
</g>
<g>
</g>
<g>
</g>
<g>
</g>
<g>
</g>
</svg>
