<?xml version="1.0" encoding="iso-8859-1"?>
<!-- Generator: Adobe Illustrator 19.0.0, SVG Export Plug-In . SVG Version: 6.00 Build 0)  -->
<svg version="1.1" id="Layer_1" xmlns="http://www.w3.org/2000/svg" xmlns:xlink="http://www.w3.org/1999/xlink" x="0px" y="0px"
	 viewBox="0 0 511.787 511.787" style="enable-background:new 0 0 511.787 511.787;" xml:space="preserve">
<g transform="translate(1)">
	<path style="fill:#FFE100;" d="M357.72,136.32c0-15.36-2.56-39.253-5.12-56.32c-2.56-17.92-15.36-31.573-31.573-35.84
		c-6.827,21.333-25.6,66.56-65.707,66.56l0,0l0,0l0,0l0,0c-39.253,0-58.88-45.227-64.853-66.56C173.4,48.427,160.6,62.933,158.04,80
		s-5.12,40.96-5.12,56.32c0,0,17.92,23.04,34.133,17.067c0,0,17.067,30.72,17.067,59.733s-34.133,35.84-34.133,102.4
		s17.067,151.893,25.6,179.2c0,0,22.187,8.533,59.733,8.533s59.733-8.533,59.733-8.533c8.533-28.16,25.6-113.493,25.6-179.2
		s-34.133-73.387-34.133-102.4s17.067-59.733,17.067-59.733C339.8,159.36,357.72,136.32,357.72,136.32"/>
	<g>
		<path style="fill:#FDCC00;" d="M255.32,110.72c-51.2,0-68.267-76.8-68.267-76.8c8.533-8.533,25.6-17.067,42.667-25.6
			C229.72,8.32,248.493,90.24,255.32,110.72"/>
		<path style="fill:#FDCC00;" d="M255.32,110.72c51.2,0,68.267-76.8,68.267-76.8c-8.533-8.533-25.6-17.067-42.667-25.6
			C280.92,8.32,262.147,90.24,255.32,110.72"/>
	</g>
	<g>
		<path style="fill:#E4667F;" d="M263.853,238.72h-17.067c-5.12,0-8.533-3.413-8.533-8.533v-34.133c0-5.12,3.413-8.533,8.533-8.533
			h17.067c5.12,0,8.533,3.413,8.533,8.533v34.133C272.387,234.453,268.973,238.72,263.853,238.72"/>
		<path style="fill:#E4667F;" d="M202.413,196.053c0.853,5.973,1.707,11.093,1.707,17.067c0,6.827-1.707,11.947-4.267,17.067h38.4
			v-34.133H202.413z"/>
		<path style="fill:#E4667F;" d="M306.52,213.12c0-5.973,0.853-11.093,1.707-17.067h-35.84v34.133h38.4
			C308.227,225.067,306.52,219.947,306.52,213.12"/>
	</g>
	<path style="fill:#FFA800;" d="M357.72,136.32c0-15.36-2.56-39.253-5.12-56.32c-2.56-17.92-15.36-31.573-31.573-35.84
		c-0.853,2.56-1.707,4.267-2.56,6.827c9.387,6.827,15.36,17.067,17.067,29.013c2.56,17.067,5.12,40.96,5.12,56.32
		c0,0-17.92,23.04-34.133,17.067c0,0-17.067,30.72-17.067,59.733s34.133,35.84,34.133,102.4s-17.067,151.893-25.6,179.2
		c0,0-18.773,7.68-51.2,8.533c2.56,0,5.973,0,8.533,0c37.547,0,59.733-8.533,59.733-8.533c8.533-28.16,25.6-113.493,25.6-179.2
		s-34.133-73.387-34.133-102.4s17.067-59.733,17.067-59.733C339.8,159.36,357.72,136.32,357.72,136.32"/>
	<path style="fill:#FFFFFF;" d="M152.92,136.32c0-15.36,2.56-39.253,5.12-56.32c2.56-17.92,15.36-31.573,31.573-35.84
		c0.853,2.56,1.707,4.267,2.56,6.827c-9.387,6.827-15.36,17.067-17.067,29.013c-2.56,17.067-5.12,40.96-5.12,56.32
		c0,0,17.92,23.04,34.133,17.067c0,0,17.067,30.72,17.067,59.733s-34.133,35.84-34.133,102.4s17.067,151.893,25.6,179.2
		c0,0,18.773,7.68,51.2,8.533c-2.56,0-5.973,0-8.533,0c-37.547,0-59.733-8.533-59.733-8.533c-8.533-28.16-25.6-113.493-25.6-179.2
		s34.133-73.387,34.133-102.4s-17.067-59.733-17.067-59.733C170.84,159.36,152.92,136.32,152.92,136.32"/>
	<path style="fill:#DD3859;" d="M306.52,213.12c0-5.973,0.853-11.093,1.707-17.067H291.16c-0.853,5.973-1.707,11.093-1.707,17.067
		c0,6.827,1.707,11.947,4.267,17.067h17.067C308.227,225.067,306.52,219.947,306.52,213.12"/>
	<path d="M255.32,119.253L255.32,119.253c-57.173,0-75.947-80.213-76.8-83.627c-0.853-2.56,0-5.973,2.56-7.68
		c9.387-9.387,26.453-17.92,45.227-27.307c1.707-0.853,4.267-0.853,6.827,0s4.267,3.413,5.12,5.973
		c0,0.853,17.92,78.507,24.747,99.84c0.853,0.853,0.853,2.56,0.853,4.267C263.853,114.987,260.44,119.253,255.32,119.253z
		 M196.44,36.48c4.267,13.653,17.92,54.613,46.933,63.147C237.4,77.44,228.013,39.04,223.747,21.12
		C213.507,26.24,203.267,31.36,196.44,36.48z"/>
	<path d="M255.32,119.253c-2.56,0-5.12-1.707-6.827-3.413c-1.707-2.56-1.707-5.12-0.853-7.68
		c6.827-19.627,25.6-100.693,25.6-101.547c0.853-2.56,2.56-4.267,4.267-5.973c2.56-0.853,5.12-0.853,7.68,0
		c17.92,9.387,34.987,17.92,45.227,27.307c1.707,1.707,2.56,5.12,2.56,7.68C331.267,39.04,312.493,119.253,255.32,119.253z
		 M286.893,21.12c-4.267,18.773-13.653,57.173-19.627,79.36c29.013-9.387,42.667-49.493,46.933-63.147
		C307.373,31.36,297.133,26.24,286.893,21.12z"/>
	<path d="M255.32,511.787c-39.253,0-62.293-9.387-63.147-9.387c-2.56-0.853-4.267-2.56-5.12-5.12
		c-8.533-30.72-25.6-117.76-25.6-181.76c0-42.667,13.653-63.147,23.893-77.653c5.973-9.387,10.24-16.213,10.24-24.747
		c0-19.627-8.533-40.107-13.653-50.347c-18.773,0.853-34.133-19.627-35.84-21.333c-0.853-1.707-1.707-3.413-1.707-5.12
		c0-16.213,2.56-40.107,5.12-57.173c2.56-20.48,17.92-37.547,38.4-42.667c4.267-0.853,8.533,0.853,10.24,5.973
		c5.973,17.067,23.04,58.88,56.32,59.733c0.853,0,1.707,0,1.707,0c33.28-0.853,50.347-42.667,55.467-60.587
		c1.707-4.267,5.973-6.827,10.24-5.973c20.48,5.12,34.987,22.187,38.4,42.667c2.56,17.067,5.12,40.96,5.12,57.173
		c0,1.707-0.853,3.413-1.707,5.12c-1.707,2.56-17.067,21.333-34.987,21.333l0,0h-0.853c-4.267,11.093-12.8,31.573-12.8,51.2
		c0,8.533,4.267,15.36,10.24,24.747c10.24,14.507,23.893,34.987,23.893,77.653c0,64.853-17.067,151.04-25.6,181.76
		c-0.853,2.56-2.56,4.267-5.12,5.12C317.613,502.4,294.573,511.787,255.32,511.787z M202.413,487.893
		c7.68,1.707,26.453,6.827,52.907,6.827s45.227-4.267,52.907-6.827c9.387-32.427,23.893-112.64,23.893-172.373
		c0-37.547-11.093-53.76-20.48-68.267c-6.827-10.24-13.653-19.627-13.653-34.133c0-30.72,17.067-62.293,17.92-64
		c1.707-3.413,6.827-5.12,10.24-3.413c6.827,2.56,17.92-6.827,22.187-11.947c0-14.507-2.56-35.84-5.12-52.053
		c-1.707-11.093-8.533-20.48-17.92-26.453c-8.533,24.747-29.867,64-69.973,64c-0.853,0-0.853,0-1.707,0
		c-39.253-0.853-59.733-40.107-69.12-63.147c-9.387,4.267-16.213,14.507-17.92,25.6c-1.707,15.36-5.12,36.693-5.12,51.2
		c5.12,5.12,15.36,15.36,22.187,11.947c4.267-1.707,8.533,0,10.24,3.413c1.707,2.56,18.773,34.133,18.773,64.853
		c0,13.653-6.827,23.893-13.653,34.133c-9.387,14.507-20.48,30.72-20.48,68.267C178.52,375.253,193.027,455.467,202.413,487.893z"/>
	<path d="M263.853,247.253h-17.067c-9.387,0-17.067-7.68-17.067-17.067v-34.133c0-9.387,7.68-17.067,17.067-17.067h17.067
		c9.387,0,17.067,7.68,17.067,17.067v34.133C280.92,239.573,273.24,247.253,263.853,247.253z M246.787,196.053v34.133h17.067
		v-34.133H246.787z"/>
	<path d="M238.253,238.72h-38.4c-2.56,0-5.973-1.707-7.68-4.267c-1.707-2.56-1.707-5.973,0-8.533c2.56-4.267,3.413-8.533,3.413-12.8
		s-0.853-10.24-1.707-15.36c-0.853-2.56,0-5.12,1.707-6.827c1.707-1.707,4.267-3.413,6.827-3.413h35.84
		c5.12,0,8.533,3.413,8.533,8.533v34.133C246.787,234.453,243.373,238.72,238.253,238.72z M211.8,221.653h17.92v-17.067H211.8
		c0.853,2.56,0.853,5.973,0.853,8.533S212.653,219.093,211.8,221.653z"/>
	<path d="M310.787,238.72h-38.4c-5.12,0-8.533-3.413-8.533-8.533v-34.133c0-5.12,3.413-8.533,8.533-8.533h35.84
		c2.56,0,5.12,0.853,6.827,3.413c1.707,1.707,2.56,4.267,1.707,6.827c-0.853,5.12-1.707,10.24-1.707,15.36
		c0,4.267,0.853,8.533,3.413,12.8c1.707,2.56,0.853,5.973,0,8.533C316.76,237.013,314.2,238.72,310.787,238.72z M280.92,221.653
		h17.92c-0.853-2.56-0.853-5.973-0.853-8.533s0-5.973,0.853-8.533h-17.92V221.653z"/>
</g>
<g>
</g>
<g>
</g>
<g>
</g>
<g>
</g>
<g>
</g>
<g>
</g>
<g>
</g>
<g>
</g>
<g>
</g>
<g>
</g>
<g>
</g>
<g>
</g>
<g>
</g>
<g>
</g>
<g>
</g>
</svg>
