<?xml version="1.0" encoding="iso-8859-1"?>
<!-- Generator: Adobe Illustrator 19.0.0, SVG Export Plug-In . SVG Version: 6.00 Build 0)  -->
<svg version="1.1" id="Layer_1" xmlns="http://www.w3.org/2000/svg" xmlns:xlink="http://www.w3.org/1999/xlink" x="0px" y="0px"
	 viewBox="0 0 512 512" style="enable-background:new 0 0 512 512;" xml:space="preserve">
<path style="fill:#FDCC00;" d="M290.223,42.667c-9.387,0-17.067-7.68-17.067-17.067V8.533H256.09h-17.067V25.6
	c0,9.387-7.68,17.067-17.067,17.067c-59.733,0-76.8,14.507-76.8,34.133c0,8.533,16.213,25.6,25.6,34.133
	c21.333-15.36,62.293-11.947,85.333,25.6c23.04-37.547,64-40.96,85.333-25.6c9.387-8.533,25.6-25.6,25.6-34.133
	C367.023,57.173,349.956,42.667,290.223,42.667"/>
<g>
	<path style="fill:#FFE100;" d="M170.756,110.933c0,22.187,2.56,40.96,5.12,54.613c5.12,3.413,11.947,7.68,20.48,10.24
		c28.16,11.093,59.733-9.387,59.733-39.253C233.05,98.987,192.09,95.573,170.756,110.933"/>
	<path style="fill:#FFE100;" d="M341.423,110.933c0,22.187-2.56,40.96-5.12,54.613c-5.12,3.413-11.947,6.827-19.627,10.24
		c-28.16,11.093-59.733-9.387-59.733-39.253C279.13,98.987,320.09,95.573,341.423,110.933"/>
	<path style="fill:#FFE100;" d="M349.956,486.4c18.773-74.24,34.133-159.573-22.187-226.133c-7.68-9.387-11.947-20.48-11.947-31.573
		l0,0c0-8.533,2.56-16.213,5.973-23.893c7.68-13.653,19.627-41.813,19.627-93.867c-21.333-15.36-62.293-11.947-85.333,25.6
		c-23.04-37.547-64-40.96-85.333-25.6c0,52.053,11.947,80.213,19.627,93.013c3.413,7.68,5.973,15.36,5.973,23.893l0,0
		c0,11.947-4.267,23.04-11.947,31.573c-56.32,67.413-40.96,152.747-22.187,226.987c0,0,51.2,17.067,93.867,17.067
		S349.956,486.4,349.956,486.4"/>
</g>
<g>
	<path style="fill:#FFA800;" d="M273.156,42.667c59.733,0,76.8,14.507,76.8,34.133c0,6.827-11.093,19.627-19.627,28.16
		c4.267,1.707,7.68,3.413,11.093,5.973c9.387-8.533,25.6-25.6,25.6-34.133c0-19.627-17.067-34.133-76.8-34.133H273.156z"/>
	<path style="fill:#FFA800;" d="M349.956,486.4c18.773-74.24,34.133-159.573-22.187-226.133c-7.68-9.387-11.947-20.48-11.947-31.573
		l0,0c0-8.533,2.56-16.213,5.973-23.893c7.68-13.653,19.627-41.813,19.627-93.867c-9.387-6.827-23.04-10.24-37.547-7.68
		c7.68,0.853,14.507,4.267,20.48,7.68c0,52.053-11.947,80.213-19.627,93.013c-4.267,6.827-5.973,15.36-5.973,23.893l0,0
		c0,11.947,4.267,23.04,11.947,31.573c56.32,67.413,40.96,152.747,22.187,226.987H349.956z"/>
</g>
<g>
	<path style="fill:#FFFFFF;" d="M239.023,42.667c-59.733,0-76.8,14.507-76.8,34.133c0,6.827,11.093,19.627,19.627,28.16
		c-4.267,1.707-7.68,3.413-11.093,5.973c-9.387-8.533-25.6-25.6-25.6-34.133c0-19.627,17.067-34.133,76.8-34.133H239.023z"/>
	<path style="fill:#FFFFFF;" d="M162.223,486.4c-18.773-74.24-34.133-159.573,22.187-226.133c7.68-9.387,11.947-20.48,11.947-31.573
		l0,0c0-8.533-2.56-16.213-5.973-23.893c-7.68-13.653-19.627-41.813-19.627-93.867c9.387-6.827,23.04-10.24,37.547-7.68
		c-7.68,0.853-14.507,3.413-20.48,7.68c0,52.053,11.947,80.213,19.627,93.013c3.413,7.68,5.973,15.36,5.973,23.893l0,0
		c0,11.947-4.267,23.04-11.947,31.573c-56.32,67.413-40.96,152.747-22.187,226.987H162.223z"/>
</g>
<path style="fill:#E4667F;" d="M288.516,259.413c-4.267-8.533-6.827-18.773-6.827-29.013l0,0c0-10.24,2.56-20.48,6.827-29.867
	c2.56-5.12,5.973-12.8,9.387-22.187c-22.187-0.853-41.813-18.773-42.667-42.667c0,23.893-20.48,41.813-42.667,42.667
	c3.413,9.387,6.827,17.067,9.387,22.187c5.12,9.387,6.827,19.627,6.827,29.867l0,0c0,10.24-2.56,19.627-6.827,29.013
	c-30.72,67.413-29.867,167.253-17.067,238.08c16.213,3.413,34.133,5.973,51.2,5.973c17.067,0,34.987-2.56,51.2-5.973
	C320.09,426.667,320.943,326.827,288.516,259.413"/>
<path d="M192.09,110.933c-4.267,0-8.533-3.413-8.533-7.68l-3.413-58.027c0-5.12,3.413-8.533,7.68-9.387
	c5.12,0,8.533,3.413,9.387,7.68l3.413,58.88C200.623,106.667,197.21,110.933,192.09,110.933L192.09,110.933z"/>
<path d="M256.09,145.067c-3.413,0-5.973-1.707-7.68-4.267c-11.093-18.773-29.013-29.867-48.64-29.867
	c-9.387,0-17.92,2.56-23.893,6.827c-3.413,2.56-7.68,1.707-11.093-0.853c-8.533-7.68-28.16-27.307-28.16-40.107
	c0-38.4,48.64-42.667,85.333-42.667c5.12,0,8.533-3.413,8.533-8.533V8.533c0-5.12,3.413-8.533,8.533-8.533h34.133
	c5.12,0,8.533,3.413,8.533,8.533V25.6c0,5.12,3.413,8.533,8.533,8.533c36.693,0,85.333,4.267,85.333,42.667
	c0,12.8-19.627,32.427-28.16,40.107c-2.56,2.56-7.68,3.413-11.093,0.853c-5.973-4.267-14.507-6.827-23.893-6.827
	c-19.627,0-37.547,11.093-49.493,29.867C262.063,143.36,259.503,145.067,256.09,145.067z M199.77,93.867
	c21.333,0,41.813,10.24,56.32,28.16c14.507-17.92,34.987-28.16,56.32-28.16c10.24,0,19.627,2.56,28.16,6.827
	c10.24-10.24,17.92-20.48,17.92-23.893c0-5.973,0-25.6-68.267-25.6c-14.507,0-25.6-11.093-25.6-25.6v-8.533h-17.067V25.6
	c0,14.507-11.093,25.6-25.6,25.6c-68.267,0-68.267,19.627-68.267,25.6c0.853,3.413,7.68,13.653,17.92,23.04
	C180.143,96.427,189.53,93.867,199.77,93.867z"/>
<path d="M320.09,110.933L320.09,110.933c-5.12,0-8.533-4.267-8.533-9.387l3.413-58.027c0-5.12,4.267-8.533,9.387-7.68
	c5.12,0,8.533,4.267,7.68,9.387l-3.413,58.027C328.623,107.52,324.356,110.933,320.09,110.933z"/>
<path d="M211.716,187.733L211.716,187.733c-6.827,0-12.8-1.707-19.627-3.413c-5.973-2.56-15.36-6.827-21.333-11.093
	c-1.707-0.853-2.56-3.413-3.413-5.12c-3.413-17.067-5.12-36.693-5.12-57.173c0-2.56,1.707-5.12,3.413-6.827
	c9.387-6.827,21.333-10.24,34.133-10.24c25.6,0,49.493,14.507,64,38.4c0.853,0.853,0.853,2.56,0.853,4.267
	C264.623,164.693,240.73,187.733,211.716,187.733z M183.556,160.427c4.267,2.56,9.387,5.12,15.36,7.68
	c4.267,1.707,8.533,2.56,12.8,2.56c18.773,0,34.133-14.507,34.987-32.427c-11.093-17.067-28.16-27.307-46.933-27.307
	c-7.68,0-14.507,1.707-20.48,5.12C179.29,132.267,180.996,146.773,183.556,160.427z"/>
<path d="M300.463,187.733c-29.013,0-52.053-23.04-52.907-51.2c0-1.707,0-3.413,0.853-4.267c14.507-23.893,38.4-38.4,64-38.4
	c12.8,0,24.747,3.413,34.133,10.24c2.56,1.707,3.413,4.267,3.413,6.827c0,20.48-1.707,40.107-5.12,57.173
	c-0.853,1.707-1.707,4.267-3.413,5.12c-5.973,4.267-15.36,8.533-21.333,11.093C313.263,186.88,306.436,187.733,300.463,187.733z
	 M264.623,139.093c1.707,17.92,17.067,32.427,34.987,32.427c4.267,0,8.533-0.853,12.8-2.56c5.973-2.56,11.947-5.12,15.36-7.68
	c2.56-13.653,4.267-29.013,4.267-45.227c-5.973-3.413-12.8-5.12-20.48-5.12C293.636,110.933,276.57,121.173,264.623,139.093z"/>
<path d="M256.09,512c-43.52,0-94.72-17.067-96.427-17.92c-2.56-0.853-5.12-3.413-5.973-5.973
	c-18.773-76.8-34.987-164.693,23.893-233.813c6.827-7.68,10.24-17.067,10.24-26.453c0-6.827-1.707-13.653-5.12-19.627
	c-7.68-12.8-20.48-42.667-20.48-97.28c0-2.56,1.707-5.12,3.413-6.827c9.387-6.827,21.333-10.24,34.133-10.24
	c21.333,0,41.813,10.24,56.32,28.16c14.507-17.92,34.987-28.16,56.32-28.16c12.8,0,24.747,3.413,34.133,10.24
	c2.56,1.707,3.413,4.267,3.413,6.827c0,51.2-11.093,81.92-20.48,97.28c-3.413,5.973-5.12,12.8-5.12,19.627
	c0,9.387,3.413,18.773,10.24,26.453c58.027,68.267,42.667,157.013,23.893,233.813c-0.853,2.56-2.56,5.12-5.973,5.973
	C350.81,494.933,299.61,512,256.09,512z M169.05,479.573c13.653,4.267,53.76,15.36,87.04,15.36s73.387-11.093,87.04-15.36
	c18.773-75.093,30.72-152.747-21.333-214.187c-9.387-11.093-14.507-23.893-14.507-37.547c0-10.24,2.56-19.627,7.68-28.16
	c6.827-11.093,17.067-36.693,17.92-84.48c-5.973-3.413-12.8-5.12-20.48-5.12c-19.627,0-37.547,11.093-49.493,29.867
	c-3.413,5.12-11.947,5.12-14.507,0c-11.093-17.92-29.013-29.013-48.64-29.013c-7.68,0-14.507,1.707-20.48,5.12
	c0.853,46.933,11.093,73.387,17.92,84.48c5.12,8.533,7.68,17.92,7.68,28.16c0,13.653-5.12,26.453-14.507,37.547
	C138.33,326.827,151.13,404.48,169.05,479.573z"/>
<path d="M256.09,512c-15.36,0-33.28-1.707-52.907-5.973c-3.413-0.853-5.973-3.413-6.827-6.827
	c-12.8-68.267-14.507-173.227,19.627-243.2c3.413-7.68,5.973-16.213,5.973-24.747c0-9.387-1.707-17.92-5.973-25.6
	c-3.413-6.827-6.827-14.507-10.24-23.04c-0.853-3.413-0.853-5.973,0.853-8.533s4.267-3.413,6.827-3.413
	c18.773-0.853,34.133-16.213,34.133-34.133c0-4.267,4.267-8.533,8.533-8.533c4.267,0,8.533,3.413,8.533,8.533
	c0,17.92,15.36,33.28,34.133,34.133c2.56,0,5.12,1.707,6.827,3.413c1.707,2.56,1.707,5.12,0.853,7.68
	c-3.413,8.533-6.827,16.213-10.24,23.04c-4.267,7.68-5.973,17.067-5.973,25.6c0,8.533,1.707,17.067,5.973,24.747
	c34.987,69.973,32.427,174.933,19.627,243.2c-0.853,3.413-3.413,5.973-6.827,6.827C289.37,510.293,271.45,512,256.09,512z
	 M211.716,489.813c16.213,3.413,31.573,5.12,44.373,5.12c12.8,0,27.307-1.707,44.373-5.12
	c11.093-65.707,12.8-162.133-19.627-226.987c-5.12-10.24-7.68-21.333-7.68-32.427c0-11.947,2.56-23.04,7.68-33.28
	c1.707-3.413,3.413-7.68,5.12-11.093c-12.8-3.413-23.893-11.093-30.72-21.333c-6.827,10.24-17.92,18.773-30.72,21.333
	c1.707,4.267,3.413,7.68,5.12,11.093c5.12,10.24,7.68,22.187,7.68,33.28c0,11.093-2.56,22.187-7.68,32.427
	C199.77,327.68,200.623,424.107,211.716,489.813z"/>
<g>
</g>
<g>
</g>
<g>
</g>
<g>
</g>
<g>
</g>
<g>
</g>
<g>
</g>
<g>
</g>
<g>
</g>
<g>
</g>
<g>
</g>
<g>
</g>
<g>
</g>
<g>
</g>
<g>
</g>
</svg>
