<?xml version="1.0" encoding="iso-8859-1"?>
<!-- Generator: Adobe Illustrator 19.0.0, SVG Export Plug-In . SVG Version: 6.00 Build 0)  -->
<svg version="1.1" id="Layer_1" xmlns="http://www.w3.org/2000/svg" xmlns:xlink="http://www.w3.org/1999/xlink" x="0px" y="0px"
	 viewBox="0 0 512 512" style="enable-background:new 0 0 512 512;" xml:space="preserve">
<g transform="translate(1)">
	<path style="fill:#FFE100;" d="M348.867,486.4c17.92-71.68,33.28-152.747-16.213-219.307c-11.093-14.507-17.92-32.427-17.92-50.347
		v-3.413c0-8.533-4.267-30.72,25.6-59.733L306.2,110.933c-8.533,8.533-28.16,30.72-51.2,68.267
		c-23.04-37.547-42.667-59.733-51.2-68.267L169.667,153.6c29.867,29.013,25.6,51.2,25.6,59.733v3.413
		c0,17.92-6.827,35.84-17.92,50.347c-49.493,66.56-34.133,147.627-16.213,219.307c0,0,51.2,17.067,93.867,17.067
		S348.867,486.4,348.867,486.4"/>
	<path style="fill:#00DA6C;" d="M195.267,213.333v3.413c0,11.093-2.56,21.333-6.827,30.72h132.267
		c-4.267-9.387-6.827-20.48-6.827-30.72v-3.413H195.267z"/>
	<path style="fill:#FDCC00;" d="M289.133,42.667c-9.387,0-17.067-7.68-17.067-17.067V8.533H255h-17.067V25.6
		c0,9.387-7.68,17.067-17.067,17.067C161.133,42.667,127,51.2,127,76.8c0,8.533,25.6,59.733,42.667,76.8l34.133-42.667
		c8.533,8.533,28.16,30.72,51.2,68.267c23.04-37.547,42.667-59.733,51.2-68.267l34.133,42.667C357.4,136.533,383,85.333,383,76.8
		C383,51.2,348.867,42.667,289.133,42.667"/>
	<g>
		<path style="fill:#FFA800;" d="M263.533,42.667c59.733,0,93.867,8.533,93.867,34.133c0,6.827-15.36,38.4-29.867,60.587
			l12.8,16.213C357.4,136.533,383,85.333,383,76.8c0-25.6-34.133-34.133-93.867-34.133"/>
		<path style="fill:#FFA800;" d="M348.867,486.4c17.92-71.68,33.28-152.747-16.213-219.307
			c-11.093-14.507-17.92-32.427-17.92-50.347v-3.413c0-8.533-4.267-30.72,25.6-59.733l-14.507-12.8
			c-29.867,29.013-36.693,64-36.693,72.533v3.413c0,17.92,6.827,35.84,17.92,50.347c49.493,66.56,34.133,147.627,16.213,219.307
			H348.867z"/>
	</g>
	<g>
		<path style="fill:#FFFFFF;" d="M246.467,42.667c-59.733,0-93.867,8.533-93.867,34.133c0,6.827,15.36,38.4,29.867,60.587
			l-12.8,16.213C152.6,136.533,127,85.333,127,76.8c0-25.6,34.133-34.133,93.867-34.133"/>
		<path style="fill:#FFFFFF;" d="M161.133,486.4c-17.92-71.68-33.28-152.747,16.213-219.307
			c11.093-14.507,17.92-32.427,17.92-50.347v-3.413c0-8.533,4.267-30.72-25.6-59.733l14.507-12.8
			c29.867,29.013,36.693,64,36.693,72.533v3.413c0,17.92-6.827,35.84-17.92,50.347c-49.493,66.56-34.133,147.627-16.213,219.307
			H161.133z"/>
	</g>
	<path style="fill:#00AD55;" d="M314.733,216.747v-3.413h-25.6v3.413c0,11.093,2.56,21.333,6.827,30.72h25.6
		C317.293,238.08,314.733,226.987,314.733,216.747"/>
	<path d="M203.8,119.467c-3.413,0-6.827-2.56-8.533-5.973l-17.92-67.413c-0.853-4.267,1.707-9.387,5.973-10.24
		c4.267-1.707,9.387,1.707,10.24,5.973l17.92,66.56c0.853,4.267-1.707,9.387-5.973,10.24
		C205.507,119.467,204.653,119.467,203.8,119.467z"/>
	<path d="M306.2,119.467c-0.853,0-1.707,0-1.707,0c-4.267-0.853-7.68-5.973-5.973-10.24l16.213-66.56
		c0.853-4.267,5.973-7.68,10.24-5.973c4.267,0.853,7.68,5.973,5.973,10.24l-16.213,65.707
		C313.88,116.907,309.613,119.467,306.2,119.467z"/>
	<path d="M255,512c-43.52,0-94.72-17.067-96.427-17.92c-2.56-0.853-5.12-3.413-5.973-5.973
		c-18.773-76.8-33.28-157.867,17.92-226.987c11.093-12.8,16.213-29.013,16.213-44.373v-3.413c0-0.853,0-1.707,0-3.413
		c0-9.387,0.853-27.307-23.04-50.347c-3.413-3.413-3.413-7.68-0.853-11.093l34.133-42.667c1.707-2.56,4.267-3.413,5.973-3.413
		c2.56,0,5.12,0.853,6.827,2.56c6.827,6.827,24.747,25.6,45.227,58.027c20.48-32.427,38.4-51.2,45.227-58.027
		c1.707-1.707,4.267-2.56,6.827-2.56s4.267,1.707,5.973,3.413l34.133,42.667c2.56,3.413,2.56,8.533-0.853,11.093
		c-23.893,23.04-23.893,40.96-23.04,50.347c0,0.853,0,2.56,0,3.413v3.413c0,15.36,5.12,31.573,16.213,45.227
		c51.2,68.267,37.547,149.333,17.92,226.987c-0.853,2.56-2.56,5.12-5.973,5.973C349.72,494.933,298.52,512,255,512z M167.96,479.573
		c13.653,4.267,53.76,15.36,87.04,15.36s73.387-11.093,87.04-15.36c17.92-71.68,29.867-146.773-16.213-207.36
		c-12.8-17.067-19.627-35.84-19.627-55.467v-3.413c0-0.853,0-1.707,0-2.56c0-9.387-1.707-31.573,23.04-58.027l-23.04-29.013
		c-9.387,10.24-25.6,29.867-43.52,59.733c-3.413,5.12-11.947,5.12-14.507,0c-17.92-29.867-34.133-49.493-43.52-59.733l-23.04,29.013
		c23.893,26.453,23.04,48.64,22.187,58.027c0,0.853,0,1.707,0,2.56v3.413c0,19.627-6.827,38.4-19.627,55.467
		C138.093,333.653,150.893,407.893,167.96,479.573z"/>
	<path d="M255,187.733c-3.413,0-5.973-1.707-7.68-4.267c-17.92-29.867-34.133-49.493-43.52-59.733l-28.16,34.987
		c-0.853,1.707-3.413,3.413-5.12,3.413c-2.56,0-5.12-0.853-6.827-2.56c-17.067-17.067-45.227-70.827-45.227-82.773
		c0-37.547,52.053-42.667,102.4-42.667c5.12,0,8.533-3.413,8.533-8.533V8.533c0-5.12,3.413-8.533,8.533-8.533h34.133
		c5.12,0,8.533,3.413,8.533,8.533V25.6c0,5.12,3.413,8.533,8.533,8.533c50.347,0,102.4,5.12,102.4,42.667
		c0,11.947-28.16,65.707-45.227,82.773c-1.707,1.707-4.267,2.56-6.827,2.56s-4.267-1.707-5.973-3.413l-28.16-34.987
		c-9.387,10.24-25.6,29.867-43.52,59.733C260.973,186.027,258.413,187.733,255,187.733z M203.8,102.4c2.56,0,4.267,0.853,5.973,2.56
		c6.827,6.827,24.747,25.6,45.227,58.027c20.48-32.427,38.4-51.2,45.227-58.027c1.707-1.707,4.267-2.56,6.827-2.56
		s4.267,1.707,5.973,3.413l27.307,34.987c15.36-19.627,33.28-57.173,34.133-64c0-17.067-28.16-25.6-85.333-25.6
		c-14.507,0-25.6-11.093-25.6-25.6v-8.533h-17.067V25.6c0,14.507-11.093,25.6-25.6,25.6c-57.173,0-85.333,8.533-85.333,25.6
		c0.853,6.827,18.773,43.52,34.133,63.147l27.307-34.987C198.68,103.253,201.24,102.4,203.8,102.4L203.8,102.4z"/>
	<path d="M255,221.867c-5.12,0-8.533-3.413-8.533-8.533V179.2c0-5.12,3.413-8.533,8.533-8.533s8.533,3.413,8.533,8.533v34.133
		C263.533,217.6,260.12,221.867,255,221.867z"/>
	<path d="M321.56,256H188.44c-2.56,0-5.12-1.707-6.827-3.413c-1.707-2.56-1.707-5.12-0.853-7.68
		c4.267-10.24,5.973-18.773,5.973-28.16v-3.413c0-5.12,3.413-8.533,8.533-8.533h119.467c5.12,0,8.533,3.413,8.533,8.533v3.413
		c0,9.387,1.707,18.773,5.973,27.307c0.853,2.56,0.853,5.973-0.853,7.68C326.68,254.293,324.12,256,321.56,256z M200.387,238.933
		H308.76c-1.707-5.973-2.56-11.093-2.56-17.067H203.8C202.947,227.84,202.093,232.96,200.387,238.933z"/>
</g>
<g>
</g>
<g>
</g>
<g>
</g>
<g>
</g>
<g>
</g>
<g>
</g>
<g>
</g>
<g>
</g>
<g>
</g>
<g>
</g>
<g>
</g>
<g>
</g>
<g>
</g>
<g>
</g>
<g>
</g>
</svg>
