<?xml version="1.0" encoding="iso-8859-1"?>
<!-- Generator: Adobe Illustrator 19.0.0, SVG Export Plug-In . SVG Version: 6.00 Build 0)  -->
<svg version="1.1" id="Layer_1" xmlns="http://www.w3.org/2000/svg" xmlns:xlink="http://www.w3.org/1999/xlink" x="0px" y="0px"
	 viewBox="0 0 512.164 512.164" style="enable-background:new 0 0 512.164 512.164;" xml:space="preserve">
<g transform="translate(1)">
	<g>
		<path style="fill:#FFE100;" d="M143.658,94.03c-0.853,0-0.853,0-1.707,0c-4.267-0.853-7.68-5.12-6.827-10.24
			c4.267-23.893,10.24-46.933,13.653-63.147c1.707-5.12,2.56-10.24,3.413-13.653c1.707-5.12,5.973-7.68,10.24-6.827
			c5.12,0.853,7.68,5.973,6.827,10.24s-2.56,8.533-3.413,14.507c-4.267,16.213-9.387,38.4-13.653,62.293
			C151.338,91.47,147.924,94.03,143.658,94.03z"/>
		<path style="fill:#FFE100;" d="M382.591,94.03c-4.267,0-7.68-2.56-8.533-6.827c-4.267-23.893-9.387-46.08-13.653-62.293
			c-1.707-5.12-2.56-10.24-3.413-14.507s1.707-9.387,5.973-10.24s9.387,1.707,10.24,5.973c0.853,4.267,1.707,8.533,3.413,13.653
			c4.267,17.067,10.24,40.107,14.507,64c0.853,4.267-2.56,9.387-6.827,10.24C383.444,94.03,383.444,94.03,382.591,94.03z"/>
		<path style="fill:#FFE100;" d="M186.324,401.23c-0.853,0-2.56,0-3.413-0.853c-26.453-11.947-37.547-23.04-46.08-37.547
			c-2.56-4.267-0.853-9.387,2.56-11.947c4.267-2.56,9.387-0.853,11.947,2.56c7.68,11.947,16.213,20.48,39.253,30.72
			c4.267,1.707,5.973,6.827,4.267,11.093C192.298,399.524,189.738,401.23,186.324,401.23z"/>
		<path style="fill:#FFE100;" d="M339.924,401.23c-3.413,0-5.973-1.707-7.68-5.12c-1.707-4.267,0-9.387,4.267-11.093
			c23.04-10.24,31.573-18.773,39.253-30.72c2.56-4.267,7.68-5.12,11.947-2.56c4.267,2.56,5.12,7.68,2.56,11.947
			c-8.533,14.507-19.627,25.6-46.08,37.547C342.484,401.23,340.778,401.23,339.924,401.23z"/>
		<path style="fill:#FFE100;" d="M254.591,239.097c-80.213,38.4-110.933,0-110.933,0c-23.893-17.92-17.92-92.16-8.533-153.6
			C145.364,100.004,198.271,207.524,254.591,239.097"/>
		<path style="fill:#FFE100;" d="M254.591,239.097c80.213,38.4,110.933,0,110.933,0c23.893-17.92,17.92-92.16,8.533-153.6
			C363.818,100.004,310.911,207.524,254.591,239.097"/>
	</g>
	<path style="fill:#FFFFFF;" d="M135.124,85.497c2.56,3.413,7.68,11.947,13.653,23.893c-6.827,55.467-9.387,113.493,11.947,129.707
		c0,0,11.093,14.507,38.4,17.067c-39.253,3.413-55.467-17.067-55.467-17.067C118.911,221.177,125.738,146.937,135.124,85.497"/>
	<path style="fill:#FFE100;" d="M254.591,409.764c-18.773,0-52.053-3.413-76.8-17.067c53.76,30.72,59.733,110.933,59.733,110.933
		h17.067h17.067c0,0,5.973-80.213,59.733-110.933C306.644,406.35,273.364,409.764,254.591,409.764"/>
	<path d="M135.124,94.03c-0.853,0-0.853,0-1.707,0c-4.267-0.853-7.68-5.12-6.827-10.24c4.267-23.893,10.24-46.933,13.653-63.147
		c1.707-5.12,2.56-10.24,3.413-13.653c1.707-5.12,5.973-7.68,10.24-6.827c5.12,0.853,7.68,5.973,6.827,10.24
		s-2.56,8.533-3.413,14.507c-4.267,16.213-9.387,38.4-13.653,62.293C142.804,91.47,139.391,94.03,135.124,94.03z"/>
	<path d="M374.058,94.03c-4.267,0-7.68-2.56-8.533-6.827c-4.267-23.893-9.387-46.08-13.653-62.293
		c-1.707-5.12-2.56-10.24-3.413-14.507s1.707-9.387,5.973-10.24s9.387,1.707,10.24,5.973s1.707,8.533,3.413,13.653
		c4.267,17.067,10.24,40.107,14.507,64c0.853,4.267-2.56,9.387-6.827,10.24C374.911,94.03,374.911,94.03,374.058,94.03z"/>
	<path d="M189.738,264.697c-32.427,0-48.64-15.36-52.053-19.627c-21.333-17.067-24.747-65.707-11.093-160.427
		c0.853-4.267,3.413-6.827,6.827-7.68c3.413-0.853,6.827,0.853,9.387,3.413c1.707,2.56,5.12,8.533,9.387,16.213
		c18.773,33.28,63.147,110.08,106.667,134.827c2.56,1.707,4.267,4.267,4.267,7.68s-1.707,5.973-5.12,7.68
		C233.258,258.724,210.218,264.697,189.738,264.697z M140.244,111.097c-8.533,69.973-5.973,110.08,8.533,121.173
		c0.853,0.853,0.853,0.853,1.707,1.707c0,0.853,11.947,13.653,40.107,13.653c13.653,0,29.867-3.413,46.933-10.24
		C196.564,206.67,159.871,146.084,140.244,111.097z"/>
	<path d="M319.444,264.697L319.444,264.697c-20.48,0-43.52-5.973-68.267-17.92c-2.56-1.707-5.12-4.267-5.12-7.68
		s1.707-5.973,4.267-7.68C294.698,206.67,338.218,129.87,356.991,96.59c4.267-7.68,7.68-13.653,9.387-16.213
		c1.707-2.56,5.12-4.267,9.387-3.413c4.267,0.853,6.827,3.413,6.827,7.68c13.653,95.573,11.093,143.36-11.093,161.28
		C368.084,249.337,351.871,264.697,319.444,264.697z M272.511,237.39c17.067,6.827,32.427,10.24,46.933,10.24
		c28.16,0,39.253-13.653,40.107-13.653c0-0.853,0.853-0.853,1.707-1.707c14.507-11.093,17.067-51.2,8.533-121.173
		C349.311,146.084,313.471,206.67,272.511,237.39z"/>
	<path d="M271.658,512.164h-34.133c-4.267,0-8.533-3.413-8.533-7.68c0-0.853-6.827-75.947-55.467-104.107
		c-4.267-2.56-5.12-7.68-3.413-11.947c1.707-4.267,7.68-5.12,11.947-3.413c26.453,15.36,62.293,16.213,72.533,16.213
		s46.08-0.853,72.533-16.213c4.267-2.56,9.387-0.853,11.947,3.413c2.56,4.267,0.853,9.387-3.413,11.947
		c-48.64,27.307-55.467,103.253-55.467,104.107C280.191,508.75,275.924,512.164,271.658,512.164z M245.204,495.097h18.773
		c2.56-15.36,9.387-52.053,30.72-81.067c-17.92,3.413-34.133,4.267-40.107,4.267c-5.973,0-22.187-0.853-40.107-4.267
		C235.818,443.044,242.644,479.737,245.204,495.097z"/>
	<path d="M177.791,401.23c-0.853,0-2.56,0-3.413-0.853c-26.453-11.947-37.547-23.04-46.08-37.547
		c-2.56-4.267-0.853-9.387,2.56-11.947c4.267-2.56,9.387-0.853,11.947,2.56c7.68,11.947,16.213,20.48,39.253,30.72
		c4.267,1.707,5.973,6.827,4.267,11.093C183.764,399.524,181.204,401.23,177.791,401.23z"/>
	<path d="M331.391,401.23c-3.413,0-5.973-1.707-7.68-5.12c-1.707-4.267,0-9.387,4.267-11.093
		c23.04-10.24,31.573-18.773,39.253-30.72c2.56-4.267,7.68-5.12,11.947-2.56c4.267,2.56,5.12,7.68,2.56,11.947
		c-8.533,14.507-19.627,25.6-46.08,37.547C333.951,401.23,332.244,401.23,331.391,401.23z"/>
</g>
<g>
</g>
<g>
</g>
<g>
</g>
<g>
</g>
<g>
</g>
<g>
</g>
<g>
</g>
<g>
</g>
<g>
</g>
<g>
</g>
<g>
</g>
<g>
</g>
<g>
</g>
<g>
</g>
<g>
</g>
</svg>
