<?xml version="1.0" encoding="iso-8859-1"?>
<!-- Generator: Adobe Illustrator 19.0.0, SVG Export Plug-In . SVG Version: 6.00 Build 0)  -->
<svg version="1.1" id="Layer_1" xmlns="http://www.w3.org/2000/svg" xmlns:xlink="http://www.w3.org/1999/xlink" x="0px" y="0px"
	 viewBox="0 0 512 512" style="enable-background:new 0 0 512 512;" xml:space="preserve">
<g transform="translate(1)">
	<g>
		<path style="fill:#FFE100;" d="M264.109,161.684c-2.695,0-6.288-1.796-8.084-4.491c-1.797-2.695-4.491-6.288-6.288-10.779
			c-19.761-32.337-57.488-92.519-57.488-137.432c0-5.389,3.593-8.982,8.982-8.982c5.389,0,8.982,3.593,8.982,8.982
			c0,40.421,35.93,97.011,54.793,128.449c2.695,4.491,4.491,8.084,7.186,10.779c2.695,4.491,0.898,9.881-2.695,12.575
			C267.702,161.684,265.905,161.684,264.109,161.684z"/>
		<path style="fill:#FFE100;" d="M264.109,161.684c-1.797,0-3.593,0-4.491-0.898c-4.491-2.695-5.389-8.084-2.695-12.575
			c1.796-3.593,4.491-7.186,7.186-10.779c17.965-31.439,53.895-88.028,53.895-128.449c0-5.389,3.593-8.982,8.982-8.982
			c5.389,0,8.982,3.593,8.982,8.982c0,44.912-37.726,105.095-57.488,137.432c-2.695,4.491-4.491,8.084-6.288,10.779
			C270.396,159.888,266.803,161.684,264.109,161.684z"/>
		<path style="fill:#FFE100;" d="M150.031,206.596c16.168,5.389,80.842,17.965,105.095,0c-15.27,0-26.947-11.677-26.947-26.947
			s11.677-26.947,26.947-26.947c0,0-18.863-35.93-69.165-35.93c-0.898,0-0.898,0-1.796,0c-31.439,0.898-53.895,32.337-43.116,62.877
			L150.031,206.596z"/>
		<path style="fill:#FFE100;" d="M360.221,206.596c-16.168,5.389-80.842,17.965-105.095,0c15.27,0,26.947-11.677,26.947-26.947
			s-11.677-26.947-26.947-26.947c0,0,18.863-35.93,69.165-35.93c0.898,0,0.898,0,1.796,0c31.439,0.898,53.895,32.337,43.116,62.877
			L360.221,206.596z"/>
		<path style="fill:#FFE100;" d="M255.126,440.14c-52.996,0-116.772-26.947-116.772-26.947v42.218l8.982,2.695
			c25.151,7.186,62.877,23.354,107.789,44.912c44.912-21.558,82.639-37.726,107.789-44.912l8.982-2.695v-42.218
			C371.898,413.193,308.123,440.14,255.126,440.14"/>
	</g>
	<g>
		<path style="fill:#FFA800;" d="M326.088,116.772c-0.898,0-0.898,0-1.797,0c-3.593,0-7.186,0-9.881,0.898
			c27.846,4.491,46.709,34.133,36.828,61.979l-8.982,26.947c-8.982,2.695-31.439,8.084-54.793,8.982
			c27.846,1.796,61.081-5.389,72.758-8.982l8.982-26.947C379.084,149.109,357.526,116.772,326.088,116.772"/>
		<path style="fill:#FFA800;" d="M371.898,458.105v-44.912c0,0-7.186,2.695-17.965,7.186v37.726H371.898z"/>
	</g>
	<g>
		<path style="fill:#FFFFFF;" d="M184.165,116.772c0.898,0,0.898,0,1.796,0c3.593,0,7.186,0,9.881,0.898
			c-27.846,4.491-46.709,34.133-36.828,61.979l8.982,26.947c8.982,2.695,31.439,8.084,54.793,8.982
			c-27.846,1.796-61.081-5.389-72.758-8.982l-8.982-26.947C131.168,149.109,152.726,116.772,184.165,116.772"/>
		<path style="fill:#FFFFFF;" d="M138.354,458.105v-44.912c0,0,7.186,2.695,17.965,7.186v37.726H138.354z"/>
	</g>
	<path style="fill:#E4667F;" d="M282.074,179.649c0,15.27-11.677,26.947-26.947,26.947s-26.947-11.677-26.947-26.947
		s11.677-26.947,26.947-26.947S282.074,164.379,282.074,179.649"/>
	<path d="M255.126,161.684c-2.695,0-6.288-1.796-8.084-4.491c-1.796-2.695-4.491-6.288-6.288-10.779
		c-19.761-32.337-57.488-92.519-57.488-137.432c0-5.389,3.593-8.982,8.982-8.982c5.389,0,8.982,3.593,8.982,8.982
		c0,40.421,35.93,97.011,54.793,128.449c2.695,4.491,4.491,8.084,7.186,10.779c2.695,4.491,0.898,9.881-2.695,12.575
		C258.719,161.684,256.923,161.684,255.126,161.684z"/>
	<path d="M255.126,161.684c-1.796,0-3.593,0-4.491-0.898c-4.491-2.695-5.389-8.084-2.695-12.575
		c1.796-3.593,4.491-7.186,7.186-10.779c17.965-31.439,53.895-88.028,53.895-128.449c0-5.389,3.593-8.982,8.982-8.982
		c5.389,0,8.982,3.593,8.982,8.982c0,44.912-37.726,105.095-57.488,137.432c-2.695,4.491-4.491,8.084-6.288,10.779
		C261.414,159.888,257.821,161.684,255.126,161.684z"/>
	<path d="M255.126,215.579c-19.761,0-35.93-16.168-35.93-35.93s16.168-35.93,35.93-35.93s35.93,16.168,35.93,35.93
		S274.888,215.579,255.126,215.579z M255.126,161.684c-9.881,0-17.965,8.084-17.965,17.965s8.084,17.965,17.965,17.965
		c9.881,0,17.965-8.084,17.965-17.965S265.007,161.684,255.126,161.684z"/>
	<path d="M213.807,224.561L213.807,224.561c-26.049,0-54.793-5.389-66.47-9.881c-2.695-0.898-4.491-2.695-5.389-5.389l-8.982-26.947
		c-5.389-17.067-2.695-35.93,7.186-51.2c9.881-14.372,26.049-23.354,44.014-23.354h1.796c55.691,0,76.351,39.523,77.249,40.421
		c1.796,2.695,0.898,6.288,0,8.982c-1.796,2.695-4.491,4.491-8.084,4.491c-9.881,0-17.965,8.084-17.965,17.965
		s8.084,17.965,17.965,17.965c3.593,0,7.186,2.695,8.982,6.288c0.898,3.593,0,8.084-3.593,9.881
		C250.635,220.968,234.467,224.561,213.807,224.561z M157.217,199.411c11.677,2.695,35.032,7.186,56.589,7.186l0,0
		c6.288,0,11.677,0,17.067-0.898c-7.186-6.288-11.677-16.168-11.677-26.049c0-14.372,8.084-26.947,20.66-32.337
		c-8.982-8.982-26.049-21.558-53.895-21.558h-0.898c-11.677,0-23.354,6.288-29.642,16.168c-7.186,9.881-8.982,22.456-5.389,35.032
		L157.217,199.411z"/>
	<path d="M296.445,224.561c-20.66,0-36.828-3.593-46.709-10.779c-3.593-2.695-4.491-6.288-3.593-9.881
		c0.898-3.593,4.491-6.288,8.982-6.288c9.881,0,17.965-8.084,17.965-17.965s-8.084-17.965-17.965-17.965
		c-2.695,0-6.288-1.796-8.084-4.491c-1.796-2.695-1.796-6.288,0-8.982c0.898-1.796,21.558-40.421,77.249-40.421h1.796
		c17.965,0,34.133,8.982,44.014,23.354c10.779,14.372,13.474,34.133,7.186,51.2l-8.982,26.947c-0.898,2.695-2.695,4.491-5.389,5.389
		C352.137,219.172,322.495,224.561,296.445,224.561z M279.379,205.698c5.389,0.898,10.779,0.898,17.067,0.898
		c21.558,0,44.912-4.491,56.589-7.186l8.084-23.354c3.593-11.677,1.797-24.253-5.389-35.032
		c-7.186-9.881-17.965-15.27-29.642-16.168h-1.796c-27.846,0-44.912,12.575-53.895,21.558c12.575,5.389,20.66,17.965,20.66,32.337
		C291.056,189.53,286.565,199.411,279.379,205.698z"/>
	<path d="M255.126,512c-0.898,0-2.695,0-3.593-0.898c-44.014-21.558-81.74-36.828-106.891-44.014l-8.982-2.695
		c-3.593-0.898-6.288-4.491-6.288-8.982v-42.218c0-2.695,1.796-5.389,3.593-7.186c2.695-1.796,5.389-1.796,8.084-0.898
		c0.898,0,62.877,26.049,113.179,26.049s112.281-26.049,113.179-26.049c2.695-0.898,6.288-0.898,8.084,0.898
		c2.695,1.797,3.593,4.491,3.593,7.186v42.218c0,3.593-2.695,7.186-6.288,8.982l-8.982,2.695
		c-24.253,7.186-62.877,23.354-106.891,44.014C257.821,512,256.024,512,255.126,512z M147.337,449.123h2.695
		c24.253,8.084,61.979,23.354,105.095,44.014c43.116-20.66,80.842-35.93,105.095-43.116l2.695-0.898v-22.456
		c-21.558,8.084-67.368,22.456-107.789,22.456s-86.232-15.27-107.789-22.456V449.123z"/>
</g>
<g>
</g>
<g>
</g>
<g>
</g>
<g>
</g>
<g>
</g>
<g>
</g>
<g>
</g>
<g>
</g>
<g>
</g>
<g>
</g>
<g>
</g>
<g>
</g>
<g>
</g>
<g>
</g>
<g>
</g>
</svg>
