<?xml version="1.0" encoding="iso-8859-1"?>
<!-- Generator: Adobe Illustrator 19.0.0, SVG Export Plug-In . SVG Version: 6.00 Build 0)  -->
<svg version="1.1" id="Layer_1" xmlns="http://www.w3.org/2000/svg" xmlns:xlink="http://www.w3.org/1999/xlink" x="0px" y="0px"
	 viewBox="0 0 512 512" style="enable-background:new 0 0 512 512;" xml:space="preserve">
<g transform="translate(1)">
	<g>
		<path style="fill:#FDCC00;" d="M229.133,42.667V25.6c0-3.413,0.853-5.973,2.56-8.533h-96.427V51.2h96.427
			C229.987,48.64,229.133,46.08,229.133,42.667"/>
		<path style="fill:#FDCC00;" d="M277.773,17.067c1.707,2.56,2.56,5.12,2.56,8.533v17.067c0,3.413-0.853,5.973-2.56,8.533H374.2
			V17.067H277.773z"/>
	</g>
	<g>
		<path style="fill:#FFE100;" d="M476.6,460.8c0,0-56.32,18.773-122.027,31.573c-61.44-220.16-22.187-373.76,19.627-441.173
			c25.6,25.6,17.067,196.267,42.667,273.067C416.867,324.267,459.533,443.733,476.6,460.8"/>
		<path style="fill:#FFE100;" d="M416.867,324.267C391.267,247.467,399.8,76.8,374.2,51.2h-96.427
			c-2.56,5.12-8.533,8.533-14.507,8.533H246.2c-5.973,0-11.947-3.413-14.507-8.533h-96.427C109.667,76.8,118.2,247.467,92.6,324.267
			c0,0-42.667,119.467-59.733,136.533c0,0,128,42.667,221.867,42.667l0,0C348.6,503.467,476.6,460.8,476.6,460.8
			C459.533,443.733,416.867,324.267,416.867,324.267"/>
	</g>
	<g>
		<path style="fill:#FFA800;" d="M416.867,324.267C391.267,247.467,399.8,76.8,374.2,51.2h-25.6
			c25.6,25.6,17.067,196.267,42.667,273.067c0,0,42.667,119.467,59.733,136.533c0,0-117.76,39.253-209.92,42.667
			c5.12,0,9.387,0,13.653,0l0,0C348.6,503.467,476.6,460.8,476.6,460.8C459.533,443.733,416.867,324.267,416.867,324.267"/>
		<polygon style="fill:#FFA800;" points="348.6,51.2 374.2,51.2 374.2,17.067 348.6,17.067 		"/>
	</g>
	<path style="fill:#FFE100;" d="M32.867,460.8c0,0,56.32,18.773,122.027,31.573c61.44-220.16,22.187-373.76-19.627-441.173
		C109.667,76.8,118.2,247.467,92.6,324.267C92.6,324.267,49.933,443.733,32.867,460.8"/>
	<path style="fill:#00DA6C;" d="M263.267,59.733H246.2c-9.387,0-17.067-7.68-17.067-17.067V25.6c0-9.387,7.68-17.067,17.067-17.067
		h17.067c9.387,0,17.067,7.68,17.067,17.067v17.067C280.333,52.053,272.653,59.733,263.267,59.733"/>
	<g>
		<path style="fill:#FFFFFF;" d="M92.6,324.267c25.6-76.8,17.067-247.467,42.667-273.067h25.6
			c-25.6,25.6-17.067,196.267-42.667,273.067c0,0-42.667,119.467-59.733,136.533c0,0,117.76,39.253,209.92,42.667
			c-5.12,0-9.387,0-13.653,0l0,0c-93.867,0-221.867-42.667-221.867-42.667C49.933,443.733,92.6,324.267,92.6,324.267"/>
		<polygon style="fill:#FFFFFF;" points="135.267,51.2 160.867,51.2 160.867,17.067 135.267,17.067 		"/>
	</g>
	<path d="M263.267,68.267H246.2c-14.507,0-25.6-11.093-25.6-25.6V25.6c0-14.507,11.093-25.6,25.6-25.6h17.067
		c14.507,0,25.6,11.093,25.6,25.6v17.067C288.867,57.173,277.773,68.267,263.267,68.267z M246.2,17.067
		c-4.267,0-8.533,3.413-8.533,8.533v17.067c0,4.267,3.413,8.533,8.533,8.533h17.067c4.267,0,8.533-3.413,8.533-8.533V25.6
		c0-4.267-3.413-8.533-8.533-8.533H246.2z"/>
	<path d="M231.693,59.733h-96.427c-5.12,0-8.533-3.413-8.533-8.533V17.067c0-5.12,3.413-8.533,8.533-8.533h96.427
		c3.413,0,5.973,1.707,7.68,4.267c1.707,2.56,1.707,5.973,0,8.533c-1.707,1.707-1.707,2.56-1.707,4.267v17.067
		c0,1.707,0,2.56,0.853,4.267c1.707,2.56,1.707,5.973,0,8.533C237.667,58.027,234.253,59.733,231.693,59.733z M143.8,42.667h76.8
		V25.6h-76.8V42.667z"/>
	<path d="M374.2,59.733h-96.427c-3.413,0-5.973-1.707-7.68-4.267s-1.707-5.973,0-8.533c1.707-1.707,1.707-2.56,1.707-4.267V25.6
		c0-1.707,0-2.56-0.853-4.267c-1.707-2.56-1.707-5.973,0-8.533c0.853-2.56,4.267-4.267,6.827-4.267H374.2
		c5.12,0,8.533,3.413,8.533,8.533V51.2C382.733,55.467,379.32,59.733,374.2,59.733z M288.867,42.667h76.8V25.6h-76.8V42.667z"/>
	<path d="M154.893,500.907c-0.853,0-0.853,0-1.707,0c-64.853-12.8-122.027-31.573-122.88-32.427c-2.56-0.853-5.12-3.413-5.973-5.973
		c-0.853-2.56,0-5.973,2.56-7.68c11.093-11.947,41.813-87.893,58.027-133.12c11.947-35.84,16.213-93.867,20.48-145.92
		c5.12-71.68,9.387-116.053,23.893-130.56c1.707-1.707,4.267-2.56,6.827-2.56c2.56,0,5.12,1.707,5.973,4.267
		c48.64,78.507,79.36,237.227,20.48,448C162.573,498.347,159.16,500.907,154.893,500.907z M46.52,456.533
		c18.773,5.973,58.027,17.067,102.4,26.453c51.2-190.293,28.16-335.36-13.653-413.867c-6.827,22.187-10.24,67.413-13.653,108.373
		c-4.267,55.467-8.533,112.64-21.333,150.187C96.867,337.92,66.147,423.253,46.52,456.533z"/>
	<path d="M354.573,500.907c-3.413,0-6.827-2.56-8.533-5.973c-58.88-210.773-28.16-369.493,20.48-448
		c1.707-2.56,4.267-4.267,6.827-4.267c2.56,0,5.12,0.853,6.827,2.56c14.507,14.507,18.773,58.88,24.747,130.56
		c4.267,52.053,8.533,110.08,20.48,145.92c16.213,45.227,46.08,122.027,58.027,133.12c1.707,1.707,2.56,5.12,2.56,7.68
		c-0.853,2.56-2.56,5.12-5.973,5.973c-0.853,0-58.027,18.773-123.733,31.573C355.427,500.907,354.573,500.907,354.573,500.907z
		 M374.2,68.267c-41.813,77.653-64.853,222.72-13.653,413.867c44.373-8.533,84.48-20.48,102.4-26.453
		c-19.627-33.28-50.347-117.76-53.76-128.853c-12.8-37.547-17.067-94.72-21.333-150.187C384.44,135.68,381.027,90.453,374.2,68.267z
		"/>
	<path d="M254.733,512c-93.867,0-219.307-40.96-224.427-42.667c-2.56-0.853-5.12-3.413-5.973-5.973c-0.853-2.56,0-5.973,2.56-7.68
		c11.093-11.947,41.813-88.747,58.027-133.973c11.947-35.84,16.213-93.867,20.48-145.92c5.12-71.68,9.387-116.053,23.893-130.56
		c1.707-1.707,3.413-2.56,5.973-2.56h96.427c3.413,0,5.973,1.707,7.68,4.267c0.853,2.56,3.413,4.267,6.827,4.267h17.067
		c3.413,0,5.973-1.707,7.68-4.267c0.853-2.56,4.267-4.267,6.827-4.267H374.2c2.56,0,4.267,0.853,5.973,2.56
		c14.507,14.507,18.773,58.88,24.747,130.56c4.267,52.053,8.533,110.08,20.48,145.92c16.213,45.227,46.08,122.027,58.027,133.12
		c1.707,1.707,2.56,5.12,2.56,7.68c-0.853,2.56-2.56,5.12-5.973,5.973c-5.12,1.707-128.853,42.667-223.573,42.667
		C255.587,512,255.587,512,254.733,512z M46.52,456.533c32.427,9.387,131.413,38.4,206.507,38.4c0.853,0,0.853,0,1.707,0
		c75.947,0,175.787-28.16,208.213-38.4c-19.627-33.28-50.347-117.76-53.76-128.853c-12.8-37.547-17.067-94.72-21.333-150.187
		c-4.267-48.64-7.68-102.4-17.92-117.76H282.04c-5.12,5.12-11.947,8.533-18.773,8.533H246.2c-6.827,0-14.507-3.413-18.773-8.533
		h-87.893c-9.387,15.36-13.653,69.12-17.92,116.907c-4.267,55.467-8.533,112.64-21.333,150.187
		C96.867,337.92,66.147,423.253,46.52,456.533z"/>
</g>
<g>
</g>
<g>
</g>
<g>
</g>
<g>
</g>
<g>
</g>
<g>
</g>
<g>
</g>
<g>
</g>
<g>
</g>
<g>
</g>
<g>
</g>
<g>
</g>
<g>
</g>
<g>
</g>
<g>
</g>
</svg>
