<?xml version="1.0" encoding="iso-8859-1"?>
<!-- Generator: Adobe Illustrator 19.0.0, SVG Export Plug-In . SVG Version: 6.00 Build 0)  -->
<svg version="1.1" id="Layer_1" xmlns="http://www.w3.org/2000/svg" xmlns:xlink="http://www.w3.org/1999/xlink" x="0px" y="0px"
	 viewBox="0 0 512 512" style="enable-background:new 0 0 512 512;" xml:space="preserve">
<g transform="translate(1)">
	<path style="fill:#E4667F;" d="M144.088,59.733h221.867V17.067c0-5.12-3.413-8.533-8.533-8.533h-204.8
		c-5.12,0-8.533,3.413-8.533,8.533V59.733z"/>
	<path style="fill:#FFE100;" d="M383.022,477.867c8.533-55.467,32.427-187.733,25.6-247.467
		c-8.533-76.8-34.133-153.6-42.667-170.667H144.088C135.555,76.8,109.955,153.6,101.422,230.4
		c-6.827,59.733,17.067,192,25.6,247.467c0,0,46.933,25.6,128,25.6S383.022,477.867,383.022,477.867"/>
	<path style="fill:#DD3859;" d="M357.422,8.533h-25.6c5.12,0,8.533,3.413,8.533,8.533v42.667h25.6V17.067
		C365.955,11.947,362.542,8.533,357.422,8.533"/>
	<path style="fill:#FFA800;" d="M408.622,230.4c-8.533-76.8-34.133-153.6-42.667-170.667h-25.6
		C348.888,76.8,374.488,153.6,383.022,230.4c6.827,59.733-17.067,192-25.6,247.467c0,0-41.813,23.04-115.2,25.6
		c4.267,0,8.533,0,12.8,0c81.067,0,128-25.6,128-25.6C391.555,422.4,415.448,290.133,408.622,230.4"/>
	<g>
		<path style="fill:#FFFFFF;" d="M153.475,8.533h25.6c-5.12,0-8.533,3.413-8.533,8.533v42.667h-25.6V17.067
			C144.942,11.947,149.208,8.533,153.475,8.533"/>
		<path style="fill:#FFFFFF;" d="M102.275,230.4c8.533-76.8,34.133-153.6,42.667-170.667h25.6
			C162.008,76.8,136.408,153.6,127.875,230.4c-6.827,59.733,17.067,192,25.6,247.467c0,0,41.813,23.04,115.2,25.6
			c-4.267,0-8.533,0-12.8,0c-81.067,0-128-25.6-128-25.6C119.342,422.4,96.302,290.133,102.275,230.4"/>
	</g>
	<path style="fill:#FDCC00;" d="M354.862,488.96l-31.573-173.227l-25.6,185.173C321.582,498.347,340.355,493.227,354.862,488.96"/>
	<path d="M365.955,68.267H144.088c-5.12,0-8.533-4.267-8.533-8.533V17.067C135.555,7.68,143.235,0,152.622,0h204.8
		c9.387,0,17.067,7.68,17.067,17.067v42.667C374.488,64,371.075,68.267,365.955,68.267z M152.622,51.2h204.8V17.067h-204.8V51.2z"/>
	<path d="M255.022,42.667h-17.067c-5.12,0-8.533-3.413-8.533-8.533s3.413-8.533,8.533-8.533h17.067c5.12,0,8.533,3.413,8.533,8.533
		S260.142,42.667,255.022,42.667z"/>
	<path d="M255.022,68.267H144.088c-5.12,0-8.533-4.267-8.533-8.533V17.067C135.555,7.68,143.235,0,152.622,0h100.693
		c18.773,0,34.987,14.507,35.84,32.427c0.853,9.387-2.56,18.773-9.387,25.6C272.942,64,264.408,68.267,255.022,68.267z
		 M152.622,51.2h102.4c5.12,0,9.387-1.707,12.8-5.12c2.56-3.413,4.267-8.533,4.267-12.8c-0.853-8.533-8.533-16.213-18.773-16.213
		H152.622V51.2z"/>
	<path d="M255.022,512c-82.773,0-130.56-25.6-132.267-26.453c-2.56-0.853-4.267-3.413-4.267-5.973l-3.413-19.627
		c-11.093-65.707-28.16-175.787-22.187-230.4c8.533-78.507,34.987-156.16,43.52-174.08c1.707-2.56,4.267-4.267,7.68-4.267h221.867
		c3.413,0,5.973,1.707,7.68,5.12c8.533,17.92,34.987,95.573,43.52,173.227c5.973,54.613-11.947,164.693-22.187,230.4l-3.413,19.627
		c0,2.56-1.707,5.12-4.267,5.973C385.582,486.4,337.795,512,255.022,512z M134.702,471.893c11.947,5.973,54.613,23.04,120.32,23.04
		s108.373-17.067,120.32-23.04l2.56-15.36c10.24-60.587,28.16-173.227,22.187-225.28c-7.68-69.12-29.867-139.947-39.253-162.987
		H149.208c-9.387,23.04-31.573,93.867-39.253,162.987c-5.973,52.053,12.8,164.693,22.187,225.28L134.702,471.893z"/>
	<path d="M297.688,509.44c-2.56,0-4.267-0.853-5.973-2.56c-1.707-1.707-2.56-4.267-2.56-6.827l25.6-185.173
		c0.853-4.267,4.267-7.68,8.533-7.68l0,0c4.267,0,7.68,2.56,8.533,6.827l31.573,173.227c0.853,4.267-1.707,8.533-5.973,9.387
		c-17.92,5.973-37.547,10.24-58.027,11.947C298.542,509.44,298.542,509.44,297.688,509.44z M324.142,370.347L307.928,491.52
		c12.8-1.707,25.6-4.267,36.693-7.68L324.142,370.347z"/>
</g>
<g>
</g>
<g>
</g>
<g>
</g>
<g>
</g>
<g>
</g>
<g>
</g>
<g>
</g>
<g>
</g>
<g>
</g>
<g>
</g>
<g>
</g>
<g>
</g>
<g>
</g>
<g>
</g>
<g>
</g>
</svg>
