<?xml version="1.0" encoding="iso-8859-1"?>
<!-- Generator: Adobe Illustrator 19.0.0, SVG Export Plug-In . SVG Version: 6.00 Build 0)  -->
<svg version="1.1" id="Layer_1" xmlns="http://www.w3.org/2000/svg" xmlns:xlink="http://www.w3.org/1999/xlink" x="0px" y="0px"
	 viewBox="0 0 512 512" style="enable-background:new 0 0 512 512;" xml:space="preserve">
<g transform="translate(1)">
	<g>
		<path style="fill:#FFE100;" d="M78.087,238.08c6.827-75.947,34.987-113.493,48.64-134.827c0.853,0,1.707-0.853,2.56-0.853H232.54
			c0.853,0,0.853,0,1.707,0.853c5.973,4.267,12.8,7.68,21.333,7.68s15.36-3.413,21.333-7.68c0.853,0,0.853-0.853,1.707-0.853
			h103.253c0.853,0,1.707,0.853,2.56,0.853c13.653,20.48,41.813,58.027,48.64,134.827c3.413,34.133,0.853,69.12-5.12,103.253
			c-4.267,22.187-10.24,53.76-18.773,93.867l-8.533,49.493c0,0.853-0.853,2.56-2.56,2.56c-14.507,2.56-104.107,17.067-143.36,17.067
			s-128-15.36-142.507-17.92c-0.853,0-1.707-0.853-1.707-1.707L101.98,435.2c-8.533-39.253-14.507-70.827-18.773-93.867
			C77.234,307.2,74.674,273.067,78.087,238.08"/>
		<path style="fill:#FFE100;" d="M221.447,76.8V42.667c0-10.24,4.267-19.627,11.947-25.6H127.58V102.4h105.813
			C225.714,96.427,221.447,87.04,221.447,76.8"/>
		<path style="fill:#FFE100;" d="M277.767,17.067c7.68,5.973,11.947,15.36,11.947,25.6V76.8c0,10.24-4.267,19.627-11.947,25.6
			H383.58V17.067H277.767z"/>
	</g>
	<polygon style="fill:#FFA800;" points="357.98,102.4 383.58,102.4 383.58,17.067 357.98,17.067 	"/>
	<path style="fill:#00DA6C;" d="M255.58,110.933L255.58,110.933c-18.773,0-34.133-15.36-34.133-34.133V42.667
		c0-18.773,15.36-34.133,34.133-34.133s34.133,15.36,34.133,34.133V76.8C289.714,95.573,274.354,110.933,255.58,110.933"/>
	<g>
		<path style="fill:#FDCC00;" d="M161.714,102.4H127.58c-11.093,17.067-32.427,45.227-44.373,98.133
			C140.38,186.88,161.714,179.2,161.714,102.4"/>
		<path style="fill:#FDCC00;" d="M349.447,102.4h34.133c11.093,17.067,32.427,45.227,44.373,98.133
			C370.78,186.88,349.447,179.2,349.447,102.4"/>
	</g>
	<path style="fill:#FFA800;" d="M433.074,238.08c-6.827-76.8-34.987-114.347-48.64-134.827c-0.853,0-1.707-0.853-2.56-0.853h-25.6
		c0.853,0,1.707,0.853,2.56,0.853c13.653,20.48,41.813,58.027,48.64,134.827c3.413,34.133,0.853,69.12-5.12,103.253
		c-4.267,22.187-10.24,53.76-18.773,93.867l-8.533,49.493c0,0.853-0.853,2.56-2.56,2.56c-12.8,2.56-87.04,13.653-130.56,16.213
		c4.267,0,9.387,0,12.8,0c39.253,0,128.853-14.507,143.36-17.067c0.853,0,2.56-0.853,2.56-2.56l8.533-49.493
		c8.533-39.253,14.507-70.827,18.773-93.867C433.927,307.2,436.487,273.067,433.074,238.08"/>
	<g>
		<polygon style="fill:#FFFFFF;" points="127.58,102.4 153.18,102.4 153.18,17.067 127.58,17.067 		"/>
		<path style="fill:#FFFFFF;" d="M78.087,238.08c6.827-75.947,34.987-113.493,48.64-134.827c0.853,0,1.707-0.853,2.56-0.853h25.6
			c-0.853,0-1.707,0.853-2.56,0.853c-13.653,21.333-41.813,58.88-48.64,134.827c-3.413,34.987-0.853,69.12,5.12,103.253
			c4.267,23.04,10.24,54.613,18.773,93.867l8.533,49.493c0,0.853,0.853,1.707,1.707,1.707c12.8,2.56,87.04,13.653,130.56,16.213
			c-4.267,0-9.387,0-12.8,0c-39.253,0-128.853-14.507-143.36-17.067c-0.853,0.853-1.707,0-1.707-0.853L101.98,435.2
			c-8.533-39.253-14.507-70.827-18.773-93.867C77.234,307.2,74.674,273.067,78.087,238.08"/>
	</g>
	<path d="M83.207,209.067c-2.56,0-4.267-0.853-5.973-2.56c-1.707-1.707-3.413-5.12-2.56-7.68
		c11.093-50.347,30.72-79.36,42.667-97.28l2.56-4.267c2.56-1.707,5.12-3.413,7.68-3.413h34.133c5.12,0,8.533,3.413,8.533,8.533
		c0,81.92-25.6,92.16-84.48,106.667C84.914,209.067,84.06,209.067,83.207,209.067z M131.847,110.933L131.847,110.933
		c-11.093,16.213-26.453,39.253-36.693,78.507c40.96-11.093,56.32-20.48,58.027-78.507H131.847z"/>
	<path d="M427.954,209.067c-0.853,0-1.707,0-1.707,0c-59.733-14.507-85.333-24.747-85.333-106.667c0-5.12,3.413-8.533,8.533-8.533
		h34.133c2.56,0,5.12,1.707,6.827,3.413l2.56,4.267c11.947,17.067,31.573,46.08,41.813,95.573c0.853,0.853,0.853,2.56,0.853,3.413
		C436.487,205.653,432.22,209.067,427.954,209.067L427.954,209.067z M357.98,110.933c1.707,58.027,17.067,67.413,58.027,78.507
		c-10.24-39.253-25.6-61.44-36.693-77.653v-0.853H357.98z"/>
	<path d="M255.58,119.467c-23.893,0-42.667-18.773-42.667-42.667V42.667C212.914,18.773,231.687,0,255.58,0
		s42.667,18.773,42.667,42.667V76.8C298.247,100.693,279.474,119.467,255.58,119.467z M255.58,17.067
		c-14.507,0-25.6,11.093-25.6,25.6V76.8c0,14.507,11.093,25.6,25.6,25.6s25.6-11.093,25.6-25.6V42.667
		C281.18,28.16,270.087,17.067,255.58,17.067z"/>
	<path d="M233.394,110.933H127.58c-5.12,0-8.533-3.413-8.533-8.533V17.067c0-5.12,3.413-8.533,8.533-8.533h105.813
		c3.413,0,6.827,2.56,7.68,5.12c0.853,2.56,0,6.827-2.56,9.387c-5.973,5.12-8.533,11.947-8.533,18.773v34.133
		c0,7.68,3.413,14.507,8.533,18.773c2.56,2.56,3.413,5.973,2.56,9.387C240.22,108.373,236.807,110.933,233.394,110.933z
		 M136.114,93.867h80.213c-2.56-5.12-3.413-11.093-3.413-17.067V42.667c0-5.973,0.853-11.947,3.413-17.067h-80.213V93.867z"/>
	<path d="M383.58,110.933H277.767c-3.413,0-6.827-2.56-7.68-5.12c-0.853-2.56,0-6.827,2.56-9.387
		c5.973-5.12,8.533-11.947,8.533-18.773V42.667c0-7.68-3.413-14.507-8.533-18.773c-2.56-2.56-3.413-5.973-2.56-9.387
		s4.267-5.973,7.68-5.973H383.58c5.12,0,8.533,3.413,8.533,8.533V102.4C392.114,106.667,388.7,110.933,383.58,110.933z
		 M294.834,93.867h80.213V25.6h-80.213c2.56,5.12,3.413,11.093,3.413,17.067V76.8C298.247,82.773,297.394,88.747,294.834,93.867z"/>
	<path d="M255.58,512c-39.253,0-127.147-13.653-144.213-17.067c-5.12-0.853-8.533-4.267-9.387-9.387l-8.533-49.493
		c-6.827-32.427-11.947-58.88-16.213-81.067l-2.56-12.8c-6.827-36.693-8.533-71.68-5.973-105.813
		c7.68-74.24,34.133-113.493,48.64-133.973l1.707-3.413c2.56-3.413,5.973-5.12,10.24-5.12H232.54c2.56,0,5.12,0.853,6.827,2.56
		c9.387,7.68,23.04,7.68,32.427,0c1.707-1.707,4.267-2.56,6.827-2.56h103.253c3.413,0,7.68,1.707,9.387,5.12l1.707,3.413
		c14.507,21.333,40.96,60.587,47.787,135.68c3.413,34.133,1.707,69.12-5.973,105.813l-2.56,12.8
		c-4.267,21.333-9.387,48.64-16.213,81.067l-6.827,47.787c-0.853,5.12-4.267,8.533-9.387,9.387
		C382.727,498.347,294.834,512,255.58,512z M118.194,478.72c20.48,3.413,101.547,16.213,137.387,16.213s116.907-12.8,137.387-16.213
		l7.68-45.227c7.68-32.427,11.947-59.733,16.213-81.067l2.56-12.8c6.827-34.987,8.533-69.12,5.12-100.693
		c-6.827-70.827-30.72-106.667-45.227-128l0,0H281.18c-15.36,11.093-35.84,11.093-50.347,0h-98.987l-0.853,0.853
		c-13.653,21.333-37.547,56.32-44.373,127.147c-3.413,32.427-1.707,66.56,5.12,101.547l2.56,12.8
		c3.413,20.48,8.533,47.787,16.213,80.213L118.194,478.72z"/>
	<path d="M255.58,85.333c-5.12,0-8.533-3.413-8.533-8.533V42.667c0-5.12,3.413-8.533,8.533-8.533s8.533,3.413,8.533,8.533V76.8
		C264.114,81.067,260.7,85.333,255.58,85.333z"/>
</g>
<g>
</g>
<g>
</g>
<g>
</g>
<g>
</g>
<g>
</g>
<g>
</g>
<g>
</g>
<g>
</g>
<g>
</g>
<g>
</g>
<g>
</g>
<g>
</g>
<g>
</g>
<g>
</g>
<g>
</g>
</svg>
