<?xml version="1.0" encoding="iso-8859-1"?>
<!-- Generator: Adobe Illustrator 18.0.0, SVG Export Plug-In . SVG Version: 6.00 Build 0)  -->
<!DOCTYPE svg PUBLIC "-//W3C//DTD SVG 1.1//EN" "http://www.w3.org/Graphics/SVG/1.1/DTD/svg11.dtd">
<svg version="1.1" id="Capa_1" xmlns="http://www.w3.org/2000/svg" xmlns:xlink="http://www.w3.org/1999/xlink" x="0px" y="0px"
	 viewBox="0 0 226.471 226.471" style="enable-background:new 0 0 226.471 226.471;" xml:space="preserve">
<g>
	<polygon points="93.63,8.709 93.713,8.709 102.418,24.562 107.864,24.562 107.864,0 102.665,0 102.665,14.56 102.583,14.56 
		94.662,0 88.432,0 88.432,24.562 93.63,24.562 	"/>
	<path d="M216.688,77.425l-47.214-24.016c-1.81-0.922-4.001-0.655-5.538,0.675s-2.116,3.458-1.465,5.384l5.916,17.482
		c-0.313-0.061-0.634-0.097-0.965-0.097h-49.898V53.433c0-10.636-8.652-19.288-19.288-19.288s-19.288,8.652-19.288,19.288v23.419
		H40.227C37.854,63.447,26.127,53.23,12.05,53.23c-2.762,0-5,2.239-5,5s2.238,5,5,5c8.535,0,15.729,5.778,17.921,13.623h-7.098
		c-2.762,0-5,2.239-5,5s2.238,5,5,5h7.098c-2.192,7.845-9.387,13.623-17.921,13.623c-2.762,0-5,2.239-5,5s2.238,5,5,5
		c14.077,0,25.804-10.217,28.177-23.623h38.721v6.514H60.292c-2.762,0-5,2.239-5,5s2.238,5,5,5h18.655v108.104H63.986
		c-4.143,0-7.5,3.358-7.5,7.5s3.357,7.5,7.5,7.5h68.5c4.143,0,7.5-3.358,7.5-7.5s-3.357-7.5-7.5-7.5h-14.962V103.367h18.655
		c2.762,0,5-2.239,5-5s-2.238-5-5-5h-18.655v-6.514h49.898c0.331,0,0.652-0.036,0.965-0.097l-5.916,17.482
		c-0.651,1.924-0.073,4.052,1.463,5.382c0.929,0.804,2.096,1.22,3.274,1.22c0.771,0,1.546-0.178,2.262-0.541l47.214-23.959
		c1.679-0.852,2.736-2.574,2.737-4.457S218.366,78.279,216.688,77.425z M93.948,53.433c0-2.364,1.924-4.288,4.288-4.288
		s4.288,1.924,4.288,4.288v23.419h-8.576V53.433z M102.524,211.471h-8.576V103.367h8.576V211.471z M102.524,93.367h-8.576v-6.514
		h8.576V93.367z M175.87,95.837l4.19-12.382c0.352-1.04,0.352-2.166,0-3.205l-4.185-12.365l27.506,13.991L175.87,95.837z"/>
</g>
<g>
</g>
<g>
</g>
<g>
</g>
<g>
</g>
<g>
</g>
<g>
</g>
<g>
</g>
<g>
</g>
<g>
</g>
<g>
</g>
<g>
</g>
<g>
</g>
<g>
</g>
<g>
</g>
<g>
</g>
</svg>
