<?xml version="1.0" encoding="iso-8859-1"?>
<!-- Generator: Adobe Illustrator 19.0.0, SVG Export Plug-In . SVG Version: 6.00 Build 0)  -->
<svg version="1.1" id="Layer_1" xmlns="http://www.w3.org/2000/svg" xmlns:xlink="http://www.w3.org/1999/xlink" x="0px" y="0px"
	 viewBox="0 0 510.72 510.72" style="enable-background:new 0 0 510.72 510.72;" xml:space="preserve">
<g transform="translate(1 1)">
	<g>
		<polygon style="fill:#FFDD09;" points="463.427,287.853 369.56,228.12 369.56,185.453 463.427,245.187 		"/>
		<polygon style="fill:#FFDD09;" points="463.427,415.853 369.56,356.12 369.56,313.453 463.427,373.187 		"/>
		<polygon style="fill:#FFDD09;" points="36.76,279.32 130.627,219.587 130.627,176.92 36.76,236.653 		"/>
		<polygon style="fill:#FFDD09;" points="36.76,415.853 130.627,356.12 130.627,313.453 36.76,373.187 		"/>
		<path style="fill:#FFDD09;" d="M139.16,25.027L139.16,25.027c-5.973,22.187-8.533,41.813-8.533,65.707V484.12
			c0,9.387,7.68,17.067,17.067,17.067h204.8c9.387,0,17.067-7.68,17.067-17.067V90.733c0-23.04-2.56-42.667-8.533-65.707
			l-53.76-11.947c-37.547-8.533-76.8-8.533-114.347,0L139.16,25.027z"/>
	</g>
	<path style="fill:#FD9808;" d="M361.027,25.027l-53.76-11.947c-21.333-5.12-43.52-7.68-65.707-6.827
		c16.213,0.853,32.427,2.56,48.64,5.973l53.76,12.8c5.973,23.04,8.533,41.813,8.533,65.707V484.12
		c0,9.387-7.68,17.067-17.067,17.067h17.067c9.387,0,17.067-7.68,17.067-17.067V90.733C369.56,66.84,367,48.067,361.027,25.027"/>
	<path style="fill:#1CD759;" d="M326.893,185.453L326.893,185.453c-46.08-11.093-108.373-11.093-153.6,0l-8.533-93.867
		c33.28-11.093,131.413-11.947,170.667,0L326.893,185.453z"/>
	<path style="fill:#15A143;" d="M235.587,83.053c29.013,0.853,57.173,3.413,74.24,8.533l-7.68,88.747
		c8.533,1.707,17.067,2.56,24.747,5.12l8.533-93.867C313.24,84.76,273.133,82.2,235.587,83.053"/>
	<path style="fill:#1CD759;" d="M335.427,449.987L335.427,449.987c-56.32,11.093-114.347,11.093-170.667,0v-59.733
		c0-9.387,7.68-17.067,17.067-17.067H318.36c9.387,0,17.067,7.68,17.067,17.067V449.987z"/>
	<path style="fill:#15A143;" d="M335.427,449.987v-59.733c0-9.387-7.68-17.067-17.067-17.067h-25.6
		c9.387,0,17.067,7.68,17.067,17.067v59.733"/>
	<g>
		<polygon style="fill:#1CD759;" points="335.427,330.52 301.293,330.52 301.293,253.72 335.427,228.12 		"/>
		<polygon style="fill:#1CD759;" points="164.76,330.52 198.893,330.52 198.893,253.72 164.76,228.12 		"/>
	</g>
	<path d="M352.493,509.72h-204.8c-14.507,0-25.6-11.093-25.6-25.6V90.733c0-23.04,2.56-42.667,8.533-67.413
		c0.853-3.413,3.413-5.12,5.973-5.973L190.36,5.4c38.4-8.533,79.36-8.533,118.613,0l53.76,11.947c3.413,0,5.973,2.56,6.827,5.973
		c5.973,24.747,8.533,44.373,8.533,67.413V484.12C378.093,498.627,367,509.72,352.493,509.72z M145.987,32.707
		c-5.12,20.48-6.827,37.547-6.827,58.027V484.12c0,5.12,3.413,8.533,8.533,8.533h204.8c5.12,0,8.533-3.413,8.533-8.533V90.733
		c0-19.627-1.707-37.547-6.827-58.027l-48.64-11.093c-35.84-8.533-74.24-8.533-110.933,0L145.987,32.707z"/>
	<path d="M326.893,193.987c-0.853,0-1.707,0-1.707,0c-44.373-11.093-105.813-11.093-149.333,0c-2.56,0.853-5.12,0-6.827-1.707
		c-1.707-1.707-3.413-3.413-3.413-5.973L157.08,92.44c0-4.267,1.707-7.68,5.973-8.533c35.84-11.947,135.68-11.947,175.787,0
		c4.267,0.853,6.827,5.12,5.973,8.533l-8.533,93.867c0,2.56-1.707,5.12-3.413,5.973C330.307,193.133,328.6,193.987,326.893,193.987z
		 M250.093,168.387c23.893,0,47.787,2.56,69.12,6.827l6.827-76.8c-38.4-8.533-116.907-8.533-152.747,0l6.827,76.8
		C201.453,170.947,226.2,168.387,250.093,168.387z"/>
	<path d="M250.093,467.053c-29.013,0-58.027-2.56-87.04-8.533c-4.267-0.853-6.827-4.267-6.827-8.533v-59.733
		c0-14.507,11.093-25.6,25.6-25.6H318.36c14.507,0,25.6,11.093,25.6,25.6v59.733c0,4.267-2.56,7.68-6.827,8.533
		C308.12,464.493,279.107,467.053,250.093,467.053z M173.293,443.16c51.2,9.387,102.4,9.387,153.6,0v-52.907
		c0-5.12-3.413-8.533-8.533-8.533H181.827c-5.12,0-8.533,3.413-8.533,8.533V443.16z M335.427,449.987L335.427,449.987
		L335.427,449.987z"/>
	<path d="M471.96,296.387c-1.707,0-3.413-0.853-4.267-1.707l-93.867-59.733c-2.56-0.853-4.267-4.267-4.267-6.827v-42.667
		c0-3.413,1.707-5.973,4.267-7.68s5.973-1.707,8.533,0l93.867,59.733c2.56,1.707,4.267,4.267,4.267,6.827V287
		c0,3.413-1.707,5.973-4.267,7.68C474.52,296.387,473.667,296.387,471.96,296.387z M386.627,223.853l76.8,48.64v-22.187l-76.8-48.64
		V223.853z"/>
	<path d="M463.427,424.387c-1.707,0-3.413-0.853-4.267-1.707l-93.867-59.733c-2.56-0.853-4.267-4.267-4.267-6.827v-42.667
		c0-3.413,1.707-5.973,4.267-7.68s5.973-1.707,8.533,0l93.867,59.733c2.56,1.707,4.267,4.267,4.267,6.827V415
		c0,3.413-1.707,5.973-4.267,7.68C465.987,424.387,465.133,424.387,463.427,424.387z M378.093,351.853l76.8,48.64v-22.187
		l-76.8-48.64V351.853z"/>
	<path d="M36.76,287.853c-1.707,0-2.56,0-4.267-0.853c-2.56-1.707-4.267-4.267-4.267-7.68v-42.667c0-2.56,1.707-5.973,4.267-6.827
		l93.867-59.733c2.56-1.707,5.973-1.707,8.533,0s4.267,4.267,4.267,7.68v42.667c0,2.56-1.707,5.973-4.267,6.827L41.027,287
		C40.173,287,38.467,287.853,36.76,287.853z M45.293,240.92v22.187l76.8-48.64V192.28L45.293,240.92z"/>
	<path d="M36.76,424.387c-1.707,0-2.56,0-4.267-0.853c-2.56-1.707-4.267-4.267-4.267-7.68v-42.667c0-2.56,1.707-5.973,4.267-6.827
		l93.867-59.733c2.56-1.707,5.973-1.707,8.533,0c2.56,1.707,4.267,4.267,4.267,7.68v42.667c0,2.56-1.707,5.973-4.267,6.827
		l-93.867,59.733C40.173,423.533,38.467,424.387,36.76,424.387z M45.293,377.453v22.187l76.8-48.64v-22.187L45.293,377.453z"/>
	<path d="M335.427,339.053h-34.133c-5.12,0-8.533-3.413-8.533-8.533v-76.8c0-2.56,0.853-5.12,3.413-6.827l34.133-25.6
		c2.56-1.707,5.973-2.56,8.533-0.853c2.56,1.707,5.12,4.267,5.12,7.68v102.4C343.96,335.64,340.547,339.053,335.427,339.053z
		 M309.827,321.987h17.067v-76.8l-17.067,12.8V321.987z"/>
	<path d="M198.893,339.053H164.76c-5.12,0-8.533-3.413-8.533-8.533v-102.4c0-3.413,1.707-5.973,5.12-7.68
		c2.56-1.707,5.973-0.853,8.533,0.853l34.133,25.6c2.56,1.707,3.413,4.267,3.413,6.827v76.8
		C207.427,335.64,204.013,339.053,198.893,339.053z M173.293,321.987h17.067v-64l-17.067-12.8V321.987z"/>
</g>
<g>
</g>
<g>
</g>
<g>
</g>
<g>
</g>
<g>
</g>
<g>
</g>
<g>
</g>
<g>
</g>
<g>
</g>
<g>
</g>
<g>
</g>
<g>
</g>
<g>
</g>
<g>
</g>
<g>
</g>
</svg>
