<?xml version="1.0" encoding="iso-8859-1"?>
<!-- Generator: Adobe Illustrator 19.0.0, SVG Export Plug-In . SVG Version: 6.00 Build 0)  -->
<svg version="1.1" id="Layer_1" xmlns="http://www.w3.org/2000/svg" xmlns:xlink="http://www.w3.org/1999/xlink" x="0px" y="0px"
	 viewBox="0 0 512 512" style="enable-background:new 0 0 512 512;" xml:space="preserve">
<g transform="translate(1 1)">
	<polygon style="fill:#FFDD09;" points="417.133,306.2 485.4,502.467 348.867,502.467 	"/>
	<polygon style="fill:#FD9808;" points="417.133,306.2 404.333,342.893 459.8,502.467 485.4,502.467 	"/>
	<g>
		<path style="fill:#FFDD09;" d="M203.8,391.533c-5.12,0-8.533-3.413-8.533-8.533c0-5.12,3.413-8.533,8.533-8.533
			c89.6,0,162.133-72.533,162.133-162.133c0-5.12,3.413-8.533,8.533-8.533c5.12,0,8.533,3.413,8.533,8.533
			C383,311.32,302.787,391.533,203.8,391.533z"/>
		<path style="fill:#FFDD09;" d="M203.8,348.867c-5.12,0-8.533-3.413-8.533-8.533c0-5.12,3.413-8.533,8.533-8.533
			c65.707,0,119.467-53.76,119.467-119.467c0-5.12,3.413-8.533,8.533-8.533s8.533,3.413,8.533,8.533
			C340.333,287.427,278.893,348.867,203.8,348.867z"/>
		<path style="fill:#FFDD09;" d="M203.8,306.2c-5.12,0-8.533-3.413-8.533-8.533s3.413-8.533,8.533-8.533
			c42.667,0,76.8-34.133,76.8-76.8c0-5.12,3.413-8.533,8.533-8.533c5.12,0,8.533,3.413,8.533,8.533
			C297.667,264.387,255.853,306.2,203.8,306.2z"/>
		<path style="fill:#FFDD09;" d="M135.533,212.333h-76.8v-153.6h76.8c42.667,0,76.8,34.133,76.8,76.8S178.2,212.333,135.533,212.333
			 M135.533,7.533H41.667H7.533v256v238.933h51.2V263.533h76.8c70.827,0,128-57.173,128-128S206.36,7.533,135.533,7.533"/>
	</g>
	<polygon style="fill:#FFFFFF;" points="33.133,7.533 7.533,7.533 7.533,263.533 7.533,502.467 33.133,502.467 33.133,263.533 	"/>
	<path d="M203.8,383c-5.12,0-8.533-3.413-8.533-8.533c0-5.12,3.413-8.533,8.533-8.533c89.6,0,162.133-72.533,162.133-162.133
		c0-5.12,3.413-8.533,8.533-8.533c5.12,0,8.533,3.413,8.533,8.533C383,302.787,302.787,383,203.8,383z"/>
	<path d="M203.8,340.333c-5.12,0-8.533-3.413-8.533-8.533s3.413-8.533,8.533-8.533c65.707,0,119.467-53.76,119.467-119.467
		c0-5.12,3.413-8.533,8.533-8.533s8.533,3.413,8.533,8.533C340.333,278.893,278.893,340.333,203.8,340.333z"/>
	<path d="M203.8,297.667c-5.12,0-8.533-3.413-8.533-8.533c0-5.12,3.413-8.533,8.533-8.533c42.667,0,76.8-34.133,76.8-76.8
		c0-5.12,3.413-8.533,8.533-8.533c5.12,0,8.533,3.413,8.533,8.533C297.667,255.853,255.853,297.667,203.8,297.667z"/>
	<path d="M502.467,511H331.8c-5.12,0-8.533-3.413-8.533-8.533c0-5.12,3.413-8.533,8.533-8.533h170.667
		c5.12,0,8.533,3.413,8.533,8.533C511,507.587,507.587,511,502.467,511z"/>
	<path d="M485.4,511H348.867c-2.56,0-5.12-1.707-6.827-3.413c-1.707-2.56-1.707-5.12-0.853-7.68l68.267-196.267
		c0.853-3.413,4.267-5.973,7.68-5.973c3.413,0,6.827,2.56,7.68,5.973l68.267,196.267c0.853,2.56,0.853,5.12-0.853,7.68
		C490.52,509.293,487.96,511,485.4,511z M360.813,493.933h112.64L417.133,331.8L360.813,493.933z"/>
	<path d="M58.733,511h-51.2C2.413,511-1,507.587-1,502.467V7.533C-1,2.413,2.413-1,7.533-1h128
		c75.093,0,136.533,61.44,136.533,136.533s-61.44,136.533-136.533,136.533H67.267v230.4C67.267,507.587,63.853,511,58.733,511z
		 M16.067,493.933H50.2v-230.4c0-5.12,3.413-8.533,8.533-8.533h76.8C201.24,255,255,201.24,255,135.533
		S201.24,16.067,135.533,16.067H16.067V493.933z"/>
	<path d="M135.533,220.867h-76.8c-5.12,0-8.533-3.413-8.533-8.533v-153.6c0-5.12,3.413-8.533,8.533-8.533h76.8
		c46.933,0,85.333,38.4,85.333,85.333S182.467,220.867,135.533,220.867z M67.267,203.8h68.267c37.547,0,68.267-30.72,68.267-68.267
		s-30.72-68.267-68.267-68.267H67.267V203.8z"/>
</g>
<g>
</g>
<g>
</g>
<g>
</g>
<g>
</g>
<g>
</g>
<g>
</g>
<g>
</g>
<g>
</g>
<g>
</g>
<g>
</g>
<g>
</g>
<g>
</g>
<g>
</g>
<g>
</g>
<g>
</g>
</svg>
