<?xml version="1.0" encoding="iso-8859-1"?>
<!-- Generator: Adobe Illustrator 18.0.0, SVG Export Plug-In . SVG Version: 6.00 Build 0)  -->
<!DOCTYPE svg PUBLIC "-//W3C//DTD SVG 1.1//EN" "http://www.w3.org/Graphics/SVG/1.1/DTD/svg11.dtd">
<svg version="1.1" id="Capa_1" xmlns="http://www.w3.org/2000/svg" xmlns:xlink="http://www.w3.org/1999/xlink" x="0px" y="0px"
	 viewBox="0 0 421.566 421.566" style="enable-background:new 0 0 421.566 421.566;" xml:space="preserve">
<path d="M164.051,314.991l0.002-152.814c0.246-0.587,0.528-1.271,0.844-2.045c1.094-2.686,2.627-6.564,4.434-11.217
	c3.91-10.066,8.81-22.996,13.442-35.473c7.416-19.973,20.502-55.884,24.815-71.982c0.904-3.372,0.413-6.965-1.36-9.972
	c-1.773-3.006-4.682-5.173-8.07-6.012c-31.326-7.761-62.996-11.696-94.13-11.696c-31.133,0-62.81,3.935-94.152,11.695
	c-3.388,0.839-6.297,3.006-8.071,6.012c-1.773,3.006-2.265,6.6-1.36,9.972c4.314,16.103,17.398,52.01,24.814,71.98
	c4.635,12.483,9.534,25.413,13.442,35.474c1.808,4.654,3.341,8.533,4.435,11.218c0.316,0.776,0.599,1.46,0.846,2.047v152.812H27.5
	v43.04h26v34.756c0,8.284,6.716,15,15,15s15-6.716,15-15v-34.756h282.066v34.756c0,8.284,6.716,15,15,15c8.283,0,15-6.716,15-15
	v-34.756h26v-43.04H164.051z M43.459,87.581c-5.314-14.607-10.386-28.974-13.962-39.926c24.901-5.229,49.913-7.875,74.53-7.875
	c24.615,0,49.619,2.646,74.507,7.873c-3.576,10.952-8.648,25.319-13.963,39.928h-54.657c-0.117-0.093-0.224-0.193-0.345-0.283
	L67.016,55.891l14.854,31.69H43.459z M139.745,152.902c-1.071,2.441-1.694,4.148-1.694,6.418v155.67h-68.07l-0.002-155.67
	c0-2.343-0.66-4.098-1.704-6.439c-1.671-3.757-7.926-19.855-15.212-39.301h101.904C147.668,133.063,141.403,149.183,139.745,152.902
	z"/>
<g>
</g>
<g>
</g>
<g>
</g>
<g>
</g>
<g>
</g>
<g>
</g>
<g>
</g>
<g>
</g>
<g>
</g>
<g>
</g>
<g>
</g>
<g>
</g>
<g>
</g>
<g>
</g>
<g>
</g>
</svg>
