<?xml version="1.0" encoding="iso-8859-1"?>
<!-- Generator: Adobe Illustrator 16.0.0, SVG Export Plug-In . SVG Version: 6.00 Build 0)  -->
<!DOCTYPE svg PUBLIC "-//W3C//DTD SVG 1.1//EN" "http://www.w3.org/Graphics/SVG/1.1/DTD/svg11.dtd">
<svg version="1.1" id="Capa_1" xmlns="http://www.w3.org/2000/svg" xmlns:xlink="http://www.w3.org/1999/xlink" x="0px" y="0px"
	 width="32px" height="32px" viewBox="0 0 32 32" style="enable-background:new 0 0 32 32;" xml:space="preserve">
<g>
	<path d="M30.469,4.747c-4.808,1.113-8.593,3.871-10.921,5.988c-1.604,1.459-2.741,2.799-3.371,3.604
		c0.202-2.762,0.556-5.377,0.903-5.703c0.107,0.074,0.24,0.117,0.381,0.117c0.375,0,0.68-0.305,0.68-0.68s-0.304-0.68-0.68-0.68
		s-0.68,0.305-0.68,0.68c0,0.105,0.023,0.205,0.066,0.293c-0.512,0.518-0.824,3.297-0.988,5.373c-0.06-0.521-0.13-1.093-0.21-1.666
		c-0.323-2.332-0.601-3.293-0.821-3.691c0.01-0.047,0.016-0.098,0.016-0.146c0-0.377-0.304-0.682-0.68-0.682s-0.68,0.305-0.68,0.682
		c0,0.375,0.304,0.68,0.68,0.68c0.171,0,0.327-0.064,0.447-0.168c0.331,0.84,0.715,3.303,0.98,5.826l-0.014-0.004
		c-0.611-0.82-1.714-2.186-3.281-3.678C10.019,8.72,6.301,5.872,1.521,4.644L0,4.253l1.2,1.014c3.494,2.955,3.768,4.518,4.009,5.898
		c0.019,0.105,0.037,0.211,0.057,0.314c0.27,1.443,0.117,4.1-0.193,5.031l-0.36,1.08l0.916-0.676
		c1.421-1.051,3.293-0.453,4.521,0.162c-1.869-0.082-4.938,0.038-6.461,1.52l-0.312,0.304l0.356,0.25
		c2.551,1.789,3.198,2.521,3.147,3.559c-0.051,1.059,0.619,3.367,1.746,4.439c0.419,0.397,0.868,0.6,1.335,0.6
		c0.055,0,0.11-0.004,0.165-0.01l0.21-0.021l0.084-0.194c1.559-3.601,3.859-4.283,4.724-4.408l0.728,3.572l0.671-3.769
		c0.943,0.207,3.094,1.053,4.484,4.487l0.08,0.195l0.209,0.027c0.068,0.008,0.137,0.012,0.203,0.012
		c0.455,0,0.895-0.188,1.312-0.568c1.153-1.043,1.877-3.336,1.851-4.395c-0.025-1.039,0.639-1.756,3.231-3.482l0.362-0.241
		l-0.305-0.312c-1.488-1.516-4.554-1.709-6.424-1.672c1.243-0.586,3.128-1.139,4.523-0.057l0.9,0.697l-0.334-1.088
		c-0.289-0.938-0.378-3.599-0.074-5.034c0.022-0.104,0.043-0.209,0.064-0.314c0.273-1.373,0.585-2.93,4.148-5.799L32,4.392
		L30.469,4.747z M9.857,27.019c-0.245-0.029-0.491-0.162-0.734-0.395C8.161,25.712,7.56,23.562,7.6,22.743
		c0.067-1.373-0.753-2.26-3.07-3.912c2.191-1.566,7.021-0.916,7.071-0.91l1.357,0.189l-1.088-0.832
		c-0.146-0.111-3.301-2.484-5.928-1.367c0.206-1.295,0.264-3.32,0.032-4.564c-0.019-0.102-0.037-0.203-0.055-0.307
		C5.688,9.724,5.431,8.253,2.875,5.802c5.999,2.07,10.134,6.652,11.816,8.799c0.091,0.393,0.471,2.093,0.407,2.828
		c-0.072,0.826-0.656,1.994-0.662,2.006l-0.028,0.055l0.595,2.923C13.96,22.577,11.521,23.358,9.857,27.019z M25.921,11.036
		c-0.021,0.104-0.041,0.205-0.062,0.307c-0.262,1.236-0.252,3.264-0.077,4.563c-2.599-1.178-5.81,1.119-5.958,1.227l-1.108,0.808
		l1.362-0.158c0.051-0.006,4.895-0.543,7.048,1.078c-2.354,1.596-3.196,2.463-3.162,3.838c0.021,0.818-0.632,2.953-1.614,3.844
		c-0.25,0.227-0.5,0.352-0.744,0.377c-1.529-3.586-3.849-4.484-4.935-4.709l0.497-2.789l-0.037-0.061
		c-0.007-0.01-0.654-1.045-0.66-1.734c-0.008-0.719,0.227-1.678,0.229-1.688l0.199-1.342c1.613-2.004,5.938-6.73,12.19-8.723
		C26.477,8.261,26.184,9.726,25.921,11.036z"/>
</g>
<g>
</g>
<g>
</g>
<g>
</g>
<g>
</g>
<g>
</g>
<g>
</g>
<g>
</g>
<g>
</g>
<g>
</g>
<g>
</g>
<g>
</g>
<g>
</g>
<g>
</g>
<g>
</g>
<g>
</g>
</svg>
