<?xml version="1.0" encoding="iso-8859-1"?>
<!-- Generator: Adobe Illustrator 19.0.0, SVG Export Plug-In . SVG Version: 6.00 Build 0)  -->
<svg version="1.1" id="Layer_1" xmlns="http://www.w3.org/2000/svg" xmlns:xlink="http://www.w3.org/1999/xlink" x="0px" y="0px"
	 viewBox="0 0 512.003 512.003" style="enable-background:new 0 0 512.003 512.003;" xml:space="preserve">
<path style="fill:#FEDEA1;" d="M177.596,373.062c-5.999-7.296-10.965-15.181-14.754-23.45l-4.881-10.641l175.232-100.139l25.207,7.1
	v36.079l-173.943,99.396L177.596,373.062z"/>
<polygon style="fill:#919CB0;" points="102.4,38.402 153.6,38.402 153.6,109.902 102.4,161.102 "/>
<g>
	<path style="fill:#A0BF7C;" d="M154.573,320.522c-0.674-5.282-0.973-9.506-0.973-13.696v-60.894L256,217.098l77.184,21.734
		L157.005,339.5L154.573,320.522z"/>
	<path style="fill:#A0BF7C;" d="M252.433,421.514c-1.143-0.333-28.092-8.303-53.513-27.998l-15.13-11.733l174.609-99.78v24.823
		c0,85.478-94.848,113.553-98.884,114.705l-3.541,1.007L252.433,421.514z"/>
</g>
<path style="fill:#79615B;" d="M64,499.202v-230.4H8.533L256,7.502l247.467,261.299H448v230.4H64z M256,217.602
	c-1.178,0-2.33,0.162-3.447,0.478l-89.617,25.233c-5.504,1.536-9.335,6.605-9.335,12.314v51.2
	c0,85.538,94.831,113.553,98.876,114.697c1.152,0.324,2.33,0.495,3.524,0.495c1.195,0,2.372-0.171,3.507-0.495
	c4.062-1.143,98.893-29.158,98.893-114.697v-51.2c0-5.709-3.831-10.778-9.327-12.314l-89.609-25.225
	C258.33,217.764,257.178,217.602,256,217.602z"/>
<g>
	<path style="fill:#573A32;" d="M248.969,433.836c2.295,0.657,4.668,0.99,7.031,0.99c2.364,0,4.736-0.324,7.031-0.99
		c4.42-1.263,108.169-32,108.169-127.01v-51.2c0-11.469-7.629-21.538-18.662-24.644l-89.6-25.225
		c-2.27-0.64-4.608-0.956-6.938-0.956c-2.33,0-4.668,0.316-6.938,0.956l-89.6,25.225c-11.042,3.106-18.662,13.175-18.662,24.644
		v51.2C140.8,401.836,244.548,432.573,248.969,433.836z M345.6,306.826c0,76.8-89.6,102.4-89.6,102.4s-25.455-7.39-49.229-25.822
		L345.6,304.061C345.6,304.983,345.6,305.896,345.6,306.826z M166.4,306.826c0-25.6,0-51.2,0-51.2l89.6-25.225l44.305,12.476
		l-133.026,76.015C166.775,314.993,166.4,311.016,166.4,306.826z M334.874,252.605l10.726,3.021c0,0,0,7.808,0,18.961
		l-158.123,90.351c-5.043-6.135-9.498-13.013-13.013-20.668L334.874,252.605z"/>
	<path style="fill:#573A32;" d="M12.8,486.402c-7.074,0-12.8,5.726-12.8,12.8c0,7.074,5.726,12.8,12.8,12.8h486.4
		c7.074,0,12.8-5.726,12.8-12.8c0-7.074-5.726-12.8-12.8-12.8h-38.4v-204.8h25.6c10.359,0,19.686-6.238,23.654-15.804
		c3.96-9.566,1.775-20.574-5.547-27.904l-230.4-230.4C269.107,2.502,262.554,0.002,256,0.002c-6.554,0-13.107,2.5-18.099,7.501
		L166.4,78.995V51.202c0-14.14-11.46-25.6-25.6-25.6h-25.6c-14.14,0-25.6,11.46-25.6,25.6v104.593L7.501,237.894
		c-7.322,7.322-9.515,18.33-5.547,27.904c3.959,9.566,13.295,15.804,23.646,15.804h25.6v204.8H12.8z M115.2,51.202h25.6v53.393
		l-25.6,25.6V51.202z M25.6,256.002L256,25.602l230.4,230.4h-51.2v230.4H76.8v-230.4H25.6z"/>
</g>
<g>
</g>
<g>
</g>
<g>
</g>
<g>
</g>
<g>
</g>
<g>
</g>
<g>
</g>
<g>
</g>
<g>
</g>
<g>
</g>
<g>
</g>
<g>
</g>
<g>
</g>
<g>
</g>
<g>
</g>
</svg>
