<?xml version="1.0" encoding="iso-8859-1"?>
<!-- Generator: Adobe Illustrator 19.0.0, SVG Export Plug-In . SVG Version: 6.00 Build 0)  -->
<svg version="1.1" id="Layer_1" xmlns="http://www.w3.org/2000/svg" xmlns:xlink="http://www.w3.org/1999/xlink" x="0px" y="0px"
	 viewBox="0 0 512 512" style="enable-background:new 0 0 512 512;" xml:space="preserve">
<g>
	<g>
		<path d="M359.049,35.399c-46.654,0-85.688,33.244-94.665,77.287h-92.112V57.26L86.383,0L64.947,32.154l68.682,45.789v34.743
			H56.343V512h322.028V226.672c44.043-8.976,77.287-48.01,77.287-94.665C455.657,78.737,412.319,35.399,359.049,35.399z
			 M94.986,151.329h38.643v38.643H94.986V151.329z M339.727,473.357H94.986V228.615h244.741V473.357z M339.727,189.972H172.273
			v-38.643h167.455V189.972z M378.371,186.662v-73.976h-73.976c7.975-22.492,29.464-38.643,54.655-38.643
			c31.962,0,57.965,26.003,57.965,57.965C417.014,157.197,400.862,178.687,378.371,186.662z"/>
	</g>
</g>
<g>
	<g>
		<path d="M301.084,406.828v-23.639h0c0-63.924-52.006-115.93-115.93-115.93h-51.524v51.524c0,63.924,52.006,115.93,115.93,115.93
			h24.748l15.787,14.314l25.955-28.628L301.084,406.828z M262.441,396.07H249.56c-42.616,0-77.287-34.671-77.287-77.287v-12.881
			h12.881c42.616,0,77.287,34.671,77.287,77.287V396.07z"/>
	</g>
</g>
<g>
</g>
<g>
</g>
<g>
</g>
<g>
</g>
<g>
</g>
<g>
</g>
<g>
</g>
<g>
</g>
<g>
</g>
<g>
</g>
<g>
</g>
<g>
</g>
<g>
</g>
<g>
</g>
<g>
</g>
</svg>
