<?xml version="1.0" encoding="iso-8859-1"?>
<!-- Generator: Adobe Illustrator 19.0.0, SVG Export Plug-In . SVG Version: 6.00 Build 0)  -->
<svg version="1.1" id="Capa_1" xmlns="http://www.w3.org/2000/svg" xmlns:xlink="http://www.w3.org/1999/xlink" x="0px" y="0px"
	 viewBox="0 0 490 490" style="enable-background:new 0 0 490 490;" xml:space="preserve">
<g>
	<path d="M487.004,397.4l-66.6-216.4c-3.1-8.3-10.4-14.6-19.8-14.6h-66.9c-15.7-78.2-44.1-166.4-90.2-166.4s-74.5,88.2-90.2,166.5
		h-63.8c-9.4,0-16.6,6.2-19.8,14.6l-66.5,216.3c-6.2,20.8-3.1,43.7,10.4,61.4c15.6,19.8,39.6,31.2,65.6,31.2h330.8
		c26,0,51-11.4,66.6-31.2C489.104,440.1,493.204,418.2,487.004,397.4z M244.604,41.6c15.3,6.7,35.3,64,49.2,124.8h-98.3
		C209.304,105.9,229.304,49,244.604,41.6z M409.004,449.4h-330.9c-14.3,1.4-43.7-13-36.4-40.6l62.4-200.8v-1h42
		c-6.1,38.4-8.7,68.8-8.7,75.9c0,11.4,9.4,20.8,20.8,20.8s20.8-9.3,20.8-20.7c0-20.4,3.1-47.4,8.2-75.9h114.8
		c5,28.6,8.1,55.6,8.1,75.9c0,11.4,9.4,20.8,20.8,20.8s19.8-9.4,18.7-20.8c0-7.2-2.6-37.6-8.7-75.9h43l61.4,201.8
		C452.304,434.1,428.104,450.3,409.004,449.4z"/>
</g>
<g>
</g>
<g>
</g>
<g>
</g>
<g>
</g>
<g>
</g>
<g>
</g>
<g>
</g>
<g>
</g>
<g>
</g>
<g>
</g>
<g>
</g>
<g>
</g>
<g>
</g>
<g>
</g>
<g>
</g>
</svg>
