<?xml version="1.0" encoding="iso-8859-1"?>
<!-- Generator: Adobe Illustrator 19.0.0, SVG Export Plug-In . SVG Version: 6.00 Build 0)  -->
<svg version="1.1" id="Capa_1" xmlns="http://www.w3.org/2000/svg" xmlns:xlink="http://www.w3.org/1999/xlink" x="0px" y="0px"
	 viewBox="0 0 489.952 489.952" style="enable-background:new 0 0 489.952 489.952;" xml:space="preserve">
<g>
	<g>
		<path d="M483.7,402.426c-14.6-13.6-64.6-56.3-97-56.3c-26.6,0-49.7,15.4-61.5,37.9v-2.4c0-14.6-13.6-27.1-30.2-25l-272.1,37.5
			c-13.6,1-22.9,12.5-22.9,25s9.4,22.9,22.9,25c0,0,274.2,37.5,275.2,37.5c15.6,0,27.1-11.5,27.1-26.1v-3.5
			c11.8,22.5,34.9,37.9,61.5,37.9c32.3,0,82.4-42.7,97-58.4C493.1,422.326,490.9,409.526,483.7,402.426z M284.6,437.926l-146-19.8
			l146-19.8V437.926z M386.8,448.326c-15.6,0-28.1-13.6-28.1-30.2c0-16.7,12.5-30.2,28.1-30.2c7.3,0,29.2,13.6,51.1,30.2
			C417,434.726,395.1,448.326,386.8,448.326z"/>
		<path d="M51.1,289.826h385.7c24,0,42.7-18.8,42.7-42.7v-204.4c0-24-18.8-42.7-42.7-42.7H51.1c-24,0-42.7,18.8-42.7,42.7v204.3
			C8.3,271.126,27.1,289.826,51.1,289.826z M50,40.726L50,40.726h389.9l0,0v208.5H50V40.726z"/>
		<path d="M143.9,214.826c38.6,0,69.9-31.3,69.9-69.9s-31.3-69.9-69.9-69.9s-69.9,31.3-69.9,69.9S105.3,214.826,143.9,214.826z
			 M143.9,115.726c15.6,0,29.2,12.5,29.2,29.2s-12.5,29.2-29.2,29.2s-29.2-12.5-29.2-29.2S128.2,115.726,143.9,115.726z"/>
		<path d="M345.1,214.826c38.6,0,69.9-31.3,69.9-69.9s-31.3-69.9-69.9-69.9s-69.9,31.3-69.9,69.9S306.5,214.826,345.1,214.826z
			 M345.1,115.726c15.6,0,29.2,12.5,29.2,29.2s-13.6,29.2-29.2,29.2c-16.7,0-29.2-12.5-29.2-29.2S329.4,115.726,345.1,115.726z"/>
	</g>
</g>
<g>
</g>
<g>
</g>
<g>
</g>
<g>
</g>
<g>
</g>
<g>
</g>
<g>
</g>
<g>
</g>
<g>
</g>
<g>
</g>
<g>
</g>
<g>
</g>
<g>
</g>
<g>
</g>
<g>
</g>
</svg>
