<?xml version="1.0" encoding="iso-8859-1"?>
<!-- Generator: Adobe Illustrator 19.0.0, SVG Export Plug-In . SVG Version: 6.00 Build 0)  -->
<svg version="1.1" id="Capa_1" xmlns="http://www.w3.org/2000/svg" xmlns:xlink="http://www.w3.org/1999/xlink" x="0px" y="0px"
	 viewBox="0 0 490 490" style="enable-background:new 0 0 490 490;" xml:space="preserve">
<g>
	<g>
		<circle cx="193" cy="378.2" r="20.8"/>
		<circle cx="399" cy="378.2" r="20.8"/>
		<circle cx="296" cy="378.2" r="20.8"/>
		<circle cx="90" cy="378.2" r="20.8"/>
		<path d="M468.2,222.1c11.4,0,20.8-9.4,21.8-19.8v-181c0-11.4-9.4-20.8-20.8-20.8H20.8C9.4,0.5,0,9.9,0,21.3v180
			c0,11.4,9.4,20.8,20.8,20.8h79.1v45.8H20.8C9.4,267.9,0,277.3,0,288.7v180c0,11.4,9.4,20.8,20.8,20.8h447.3
			c11.4,0,20.8-9.4,21.8-19.8v-181c0-11.4-9.4-20.8-20.8-20.8H388v-45.8L468.2,222.1L468.2,222.1z M448.4,308.5v140.4H40.6V308.5
			H448.4z M141.5,267.9v-45.8h204.9v45.8H141.5z M40.6,181.5V41.1h407.8v140.4H40.6z"/>
	</g>
</g>
<g>
</g>
<g>
</g>
<g>
</g>
<g>
</g>
<g>
</g>
<g>
</g>
<g>
</g>
<g>
</g>
<g>
</g>
<g>
</g>
<g>
</g>
<g>
</g>
<g>
</g>
<g>
</g>
<g>
</g>
</svg>
