<?xml version="1.0" encoding="iso-8859-1"?>
<!-- Generator: Adobe Illustrator 19.0.0, SVG Export Plug-In . SVG Version: 6.00 Build 0)  -->
<svg version="1.1" id="Capa_1" xmlns="http://www.w3.org/2000/svg" xmlns:xlink="http://www.w3.org/1999/xlink" x="0px" y="0px"
	 viewBox="0 0 490.192 490.192" style="enable-background:new 0 0 490.192 490.192;" xml:space="preserve">
<g>
	<path d="M433.496,282.818c0.5,0,1,0,1.4,0c16.7,0,29.2-5.2,37.5-13.6c21.9-21.9,8.3-57.5-3.1-88.8c-5.2-14.6-11.5-31.4-11.5-40.8
		c0-8.4,4.2-23,8.3-37.6c9.4-33.4,22.7-73.7-4.2-92c-48.1-32.6-158.7,24.6-164.2,26.9c-15.4-9.2-33-14.4-51.6-14.4
		c-19.4,0-37.7,5.6-53.6,15.4c-5.3-2.2-126-60.4-163.1-26.8c-23.6,21.4-13.6,58.6-4.2,91c4.2,13.6,8.3,28.2,8.3,37.6
		s-6.3,26.1-11.5,40.8c-12.5,31.4-25,66.9-3.1,88.8c8.3,9.4,20.7,13.5,38.4,13.6c-32.9,44.1-53.4,99.6-57.1,156.7
		c1.3,24.8,23.4,23.8,30.2,19.9l60.5-30.3c9.4,17.8,19.8,34.5,30.2,51.2c15.8,21.2,35.7,2.8,35.4-7.3c12.3-71.8,34.1-160.6,89-215.3
		c0.4,0,0,0,0,0c55.9,55.6,77,143.5,89.2,215.3c7,24.6,29.8,17.8,36.5,7.3c10.2-15.8,20.9-33.4,28.1-52.3l60.5,30.3
		c23.5,8.2,30.2-11.2,30.2-19.9C486.496,381.718,466.196,327.018,433.496,282.818z M434.896,41.418c6.8,3.2-4.2,38.7-7.3,50.2
		c-4.2,17.8-9.4,34.5-9.4,49.1c0,15.7,7.3,34.5,14.6,54.3c5.2,13.6,14.6,38.7,12.5,44.9c-5.7,6.4-54.1-2.3-113.9-27.1
		c14.5-19.9,23.2-44.9,23.2-72.2c0-27.6-8.9-53.1-23.7-73.3C330.996,67.418,413.296,31.118,434.896,41.418z M313.996,139.718
		c0,41.8-30.2,76.3-67.8,76.3c-37.5,0-67.8-34.5-67.8-76.3s30.2-76.3,67.8-76.3C293.396,63.418,313.996,109.418,313.996,139.718z
		 M48.196,241.018c-2.1-7.3,7.3-32.4,11.5-47c7.3-18.8,14.6-37.6,14.6-54.3c0-14.6-4.2-31.4-9.4-49.1c-3.1-10.5-12.5-44.9-8.3-49.1
		c25.6-9.3,103.5,27.3,103.6,27.3c-13.9,19.7-22.3,44.2-22.3,70.9c0,27.5,8.8,52.9,23.5,73
		C64.296,251.618,48.196,241.018,48.196,241.018z M127.396,412.418c-3.1-6.3-6.3-13.6-9.4-19.9c-2.1-5.2-11.7-16.3-27.1-9.4
		l-43.8,21.9c11.5-54.3,40.7-103.5,80.3-135.9c0.3-0.3,59.1-22,67.6-25.7c1.7,1,3.3,1.9,5.1,2.8
		C161.296,294.118,140.896,354.818,127.396,412.418z M400.496,383.218c-15.5-6.7-25,4.2-27.1,9.4c-3.1,7.3-6.3,13.6-9.4,19.9
		c-12.5-57.3-33.5-118.4-72-165.7c1.7-0.9,3.5-1.8,5.2-2.8c8.7,3.9,54,20.4,65.7,24.2c0,0,0,0,0.1,0.1
		c40.7,33.4,69.9,82.6,81.3,136.9L400.496,383.218z"/>
</g>
<g>
</g>
<g>
</g>
<g>
</g>
<g>
</g>
<g>
</g>
<g>
</g>
<g>
</g>
<g>
</g>
<g>
</g>
<g>
</g>
<g>
</g>
<g>
</g>
<g>
</g>
<g>
</g>
<g>
</g>
</svg>
