<?xml version='1.0' encoding='iso-8859-1'?>
<!DOCTYPE svg PUBLIC '-//W3C//DTD SVG 1.1//EN' 'http://www.w3.org/Graphics/SVG/1.1/DTD/svg11.dtd'>
<svg version="1.1" xmlns="http://www.w3.org/2000/svg" viewBox="0 0 297 297" xmlns:xlink="http://www.w3.org/1999/xlink" enable-background="new 0 0 297 297">
  <path d="m281.553,262.71l-16.418-229.839c-0.372-5.206-4.705-9.24-9.924-9.24h-6.467v-13.681c0-5.495-4.455-9.95-9.95-9.95h-65.668c-5.495,0-9.95,4.455-9.95,9.95v13.681h-6.467c-5.22,0-9.552,4.034-9.924,9.24l-1.771,24.793c-1.41-0.762-3.016-1.2-4.722-1.2h-6.467v-13.68c0-5.495-4.455-9.95-9.95-9.95h-65.669c-5.495,0-9.95,4.455-9.95,9.95v13.681h-6.467c-5.175,0-9.485,3.966-9.916,9.124l-16.417,197.005c-0.23,2.772 0.71,5.515 2.594,7.563 1.884,2.047 4.538,3.212 7.321,3.212h6.467v13.681c0,5.495 4.455,9.95 9.95,9.95h98.503c3.409,0 6.416-1.717 8.208-4.331 1.793,2.614 4.799,4.331 8.209,4.331h98.503c5.495,0 9.95-4.455 9.95-9.95v-13.681h6.467c2.762,0 5.4-1.148 7.282-3.169 1.882-2.021 2.84-4.734 2.643-7.49zm-98.478-242.811h45.769v3.731h-45.769v-3.731zm-17.102,23.631h79.973l14.995,209.94h-109.963l14.995-209.94zm-97.817,9.204h45.769v3.731h-45.769v-3.731zm-17.212,23.63h80.193l6.753,81.035-6.862,96.071h-94.842l14.758-177.106zm.795,200.736v-3.731h78.603v3.731h-78.603zm193.522,0h-78.603v-3.731h78.603v3.731z"/>
</svg>
