<?xml version="1.0" encoding="iso-8859-1"?>
<!-- Generator: Adobe Illustrator 19.0.0, SVG Export Plug-In . SVG Version: 6.00 Build 0)  -->
<svg version="1.1" id="Capa_1" xmlns="http://www.w3.org/2000/svg" xmlns:xlink="http://www.w3.org/1999/xlink" x="0px" y="0px"
	 viewBox="0 0 221 221" style="enable-background:new 0 0 221 221;" xml:space="preserve">
<path d="M186.5,189v-81.863c0-33.075-20.935-61.307-50.379-71.96L152.934,0H67.476l17.589,34.888
	C55.178,45.302,33.5,73.746,33.5,107.137V189h-10v32h174v-32H186.5z M130.025,154.81c-3.246,2.882-7.261,4.884-11.93,5.946
	l0.078,10.615l-15.283,0.039l-0.069-10.619c-4.323-1.043-7.482-3.125-11.231-6.228c-5.107-4.401-7.767-9.543-7.938-15.311
	l-0.003-0.116l0.382-4.872l14.708-0.052l0.115,3.101c0.057,3.663,1.111,6.311,3.222,8.141c2.138,1.918,3.981,2.881,8.196,2.881
	c4.174-0.034,7.408-1.036,9.595-2.98c2.086-1.838,3.097-4.417,3.097-7.887c0-2.727-0.918-4.722-2.888-6.279
	c-2.307-1.809-6.488-3.434-12.421-4.825c-7.31-1.701-12.923-4.348-16.682-7.868c-4.034-3.828-6.09-8.64-6.122-14.311
	c-0.042-6.497,2.492-11.903,7.53-16.066c2.879-2.393,6.249-4.092,10.033-5.061l-0.071-9.301l15.279-0.106l0.039,8.974
	c4.204,0.87,6.996,2.602,10.163,5.182c4.841,4.049,7.47,9.579,7.835,16.462l0.118,3.311l-14.771,0.073l-0.435-2.727
	c-0.468-3.488-1.562-6.057-3.259-7.546c-1.796-1.575-3.052-2.38-6.181-2.38h-0.207c-3.646,0-6.548,0.989-8.415,2.581
	c-1.811,1.515-2.601,3.593-2.578,6.422c0,2.327,0.774,4.087,2.366,5.396c1.33,1.12,4.193,2.733,10.392,4.156
	c8.186,1.924,14.456,4.802,18.645,8.556c4.436,4.014,6.682,9.092,6.682,15.1C138.059,144.318,135.37,150.243,130.025,154.81z"/>
<g>
</g>
<g>
</g>
<g>
</g>
<g>
</g>
<g>
</g>
<g>
</g>
<g>
</g>
<g>
</g>
<g>
</g>
<g>
</g>
<g>
</g>
<g>
</g>
<g>
</g>
<g>
</g>
<g>
</g>
</svg>
