<?xml version='1.0' encoding='utf-8'?>
<!DOCTYPE svg PUBLIC '-//W3C//DTD SVG 1.1//EN' 'http://www.w3.org/Graphics/SVG/1.1/DTD/svg11.dtd'>
<svg version="1.1" xmlns="http://www.w3.org/2000/svg" viewBox="0 0 512 512" xmlns:xlink="http://www.w3.org/1999/xlink" enable-background="new 0 0 512 512">
  <g>
    <g>
      <path d="m148.8,149c8.4-8.4 9.4-19.7 1.6-28.8l-38-42.5c-7.5-8.4-20.4-9.1-28.8-1.6-8.4,7.5-9.1,20.4-1.6,28.8l38,42.5c10.6,11.4 24.4,6 28.8,1.6z"/>
      <path d="m428.5,76c-8.4-7.5-21.3-6.8-28.8,1.6l-38,42.5c-7.8,9.1-6.7,20.5 1.6,28.8 4.4,4.4 18.2,9.8 28.8-1.6l38-42.5c7.5-8.4 6.8-21.3-1.6-28.8z"/>
      <path d="m85.1,248.5h-53.7c-11.3,0-20.4,9.1-20.4,20.4 0,11.3 9.1,20.4 20.4,20.4h53.7c11.3,0 20.4-9.1 20.4-20.4 0-11.2-9.1-20.4-20.4-20.4z"/>
      <path d="m480.6,248.5h-53.7c-11.3,0-20.4,9.1-20.4,20.4 0,11.3 9.1,20.4 20.4,20.4h53.7c11.3,0 20.4-9.1 20.4-20.4 0-11.2-9.1-20.4-20.4-20.4z"/>
      <path d="M256,126c11.3,0,20.4-9.1,20.4-20.4V45.5c0-11.3-9.1-20.4-20.4-20.4c-11.3,0-20.4,9.1-20.4,20.4v60.1    C235.6,116.8,244.7,126,256,126z"/>
      <path d="m256,152c-72.9,0-132.2,59.3-132.2,132.2v182.4c0,11.3 9.1,20.4 20.4,20.4h223.5c11.3,0 20.4-9.1 20.4-20.4v-182.4c0.1-72.9-59.2-132.2-132.1-132.2zm91.3,294.1h-70.9v-106.2h7c11.3,0 20.4-9.1 20.4-20.4 0-11.3-9.1-20.4-20.4-20.4h-54.9c-11.3,0-20.4,9.1-20.4,20.4 0,11.3 9.1,20.4 20.4,20.4h7v106.2h-70.9v-162c0-50.4 41-91.3 91.3-91.3s91.3,41 91.3,91.3v162z"/>
    </g>
  </g>
</svg>
