<?xml version='1.0' encoding='utf-8'?>
<!DOCTYPE svg PUBLIC '-//W3C//DTD SVG 1.1//EN' 'http://www.w3.org/Graphics/SVG/1.1/DTD/svg11.dtd'>
<svg version="1.1" xmlns="http://www.w3.org/2000/svg" viewBox="0 0 512 512" xmlns:xlink="http://www.w3.org/1999/xlink" enable-background="new 0 0 512 512">
  <g>
    <g>
      <path d="M480.6,11H344c-11.3,0-20.4,9.1-20.4,20.4v33.4H31.4C20.1,64.8,11,73.9,11,85.2v395.4c0,11.3,9.1,20.4,20.4,20.4h449.2    c11.3,0,20.4-9.1,20.4-20.4V355.6V31.4C501,20.1,491.9,11,480.6,11z M364.4,51.8h95.7v283.4h-95.7V51.8z M51.8,460.2V105.6h271.8    v250c0,11.3,9.1,20.4,20.4,20.4h116.1v84.1H51.8z"/>
      <path d="m232.6,155.9h-109.6c-11.3,0-20.4,9.1-20.4,20.4 0,11.3 9.1,20.4 20.4,20.4h109.6c11.3,0 20.4-9.1 20.4-20.4 0.1-11.3-9.1-20.4-20.4-20.4z"/>
      <circle cx="122.8" cy="274.4" r="20.2"/>
      <circle cx="232.6" cy="274.4" r="20.2"/>
      <circle cx="122.8" cy="381.7" r="20.2"/>
      <circle cx="232.6" cy="381.7" r="20.2"/>
    </g>
  </g>
</svg>
