<?xml version="1.0" encoding="iso-8859-1"?>
<!-- Generator: Adobe Illustrator 19.0.0, SVG Export Plug-In . SVG Version: 6.00 Build 0)  -->
<svg version="1.1" id="Capa_1" xmlns="http://www.w3.org/2000/svg" xmlns:xlink="http://www.w3.org/1999/xlink" x="0px" y="0px"
	 viewBox="0 0 512 512" style="enable-background:new 0 0 512 512;" xml:space="preserve">
<g>
	<g>
		<path d="M311.351,0H200.649c-49.596,0-89.946,40.35-89.946,89.946v138.378c0,80.118,65.18,145.297,145.297,145.297
			c80.118,0,145.297-65.179,145.297-145.297V89.946C401.297,40.35,360.948,0,311.351,0z M359.784,228.324
			c0,57.226-46.557,103.784-103.784,103.784s-103.784-46.557-103.784-103.784v-20.757h207.568V228.324z M359.785,166.054h-0.001
			H152.216V89.946c0-24.357,18.076-44.562,41.513-47.93v34.092c0,11.463,9.294,20.757,20.757,20.757s20.757-9.294,20.757-20.757
			V41.513h41.514v34.595c0,11.463,9.293,20.757,20.757,20.757c11.463,0,20.757-9.294,20.757-20.757V42.016
			c23.439,3.368,41.514,23.573,41.514,47.93V166.054z"/>
	</g>
</g>
<g>
	<g>
		<path d="M463.568,166.054c-11.463,0-20.757,9.293-20.757,20.757v41.514c0,103.007-83.802,186.811-186.811,186.811
			S69.189,331.332,69.189,228.324V186.81c0-11.463-9.294-20.757-20.757-20.757s-20.757,9.293-20.757,20.757v41.514
			c0,118.902,91.36,216.849,207.568,227.37v35.549c0,11.463,9.294,20.757,20.757,20.757s20.757-9.293,20.757-20.757v-35.549
			c116.207-10.521,207.568-108.469,207.568-227.37V186.81C484.324,175.348,475.031,166.054,463.568,166.054z"/>
	</g>
</g>
<g>
</g>
<g>
</g>
<g>
</g>
<g>
</g>
<g>
</g>
<g>
</g>
<g>
</g>
<g>
</g>
<g>
</g>
<g>
</g>
<g>
</g>
<g>
</g>
<g>
</g>
<g>
</g>
<g>
</g>
</svg>
