<?xml version="1.0" encoding="iso-8859-1"?>
<!-- Generator: Adobe Illustrator 19.0.0, SVG Export Plug-In . SVG Version: 6.00 Build 0)  -->
<svg version="1.1" id="Layer_1" xmlns="http://www.w3.org/2000/svg" xmlns:xlink="http://www.w3.org/1999/xlink" x="0px" y="0px"
	 viewBox="0 0 511.999 511.999" style="enable-background:new 0 0 511.999 511.999;" xml:space="preserve">
<path style="fill:#FFD7AB;" d="M499.921,327.391l-22.407,22.963C456.398,372,427.432,384.2,397.197,384.2H114.804
	c-30.235,0-59.201-12.2-80.316-33.847l-22.407-22.963h109.403h269.033H499.921z"/>
<path style="fill:#FB7B76;" d="M390.517,264.01v63.381H121.484V264.01h109.367c0,13.891,11.258,25.149,25.149,25.149
	c13.891,0,25.149-11.258,25.149-25.149H390.517z"/>
<path style="fill:#FFF3E6;" d="M390.517,262.319v1.691H281.15c0-13.891-11.258-25.149-25.149-25.149
	c-13.891,0-25.149,11.258-25.149,25.149H121.484v-1.691c0-74.288,60.228-134.517,134.517-134.517
	c37.144,0,70.773,15.063,95.113,39.403C375.466,191.545,390.517,225.175,390.517,262.319z"/>
<circle style="fill:#F0C419;" cx="255.999" cy="264.009" r="25.149"/>
<g>
	<path style="fill:#2E1C10;" d="M499.921,315.31h-97.324v-52.991c0-39.166-15.25-75.978-42.94-103.656
		c-27.691-27.691-64.503-42.941-103.656-42.941c-80.833,0-146.596,65.763-146.596,146.596v52.991H12.079
		c-4.858,0-9.244,2.911-11.131,7.388c-1.887,4.478-0.907,9.65,2.486,13.127l22.406,22.963
		c23.241,23.827,55.666,37.491,88.963,37.491h282.393c33.296,0,65.722-13.665,88.961-37.49l22.407-22.964
		c3.393-3.476,4.373-8.649,2.486-13.127C509.165,318.221,504.779,315.31,499.921,315.31z M256.001,139.882
		c32.699,0,63.444,12.738,86.574,35.867c20.659,20.649,33.019,47.39,35.422,76.18h-86.791
		c-5.029-14.615-18.906-25.149-35.206-25.149s-30.177,10.534-35.206,25.149h-86.786C139.3,189.262,191.988,139.882,256.001,139.882z
		 M269.069,264.009c0,7.208-5.863,13.07-13.07,13.07c-7.207,0-13.07-5.863-13.07-13.07s5.863-13.07,13.07-13.07
		C263.206,250.939,269.069,256.802,269.069,264.009z M468.866,341.919c-18.723,19.193-44.845,30.201-71.67,30.201H114.803
		c-26.825,0-52.947-11.008-71.671-30.202l-2.389-2.449h80.74c6.671,0,12.079-5.409,12.079-12.079v-51.301h87.232
		c5.029,14.615,18.906,25.149,35.206,25.149s30.177-10.534,35.206-25.149h87.232v39.222H210.501
		c-6.671,0-12.079,5.409-12.079,12.079c0,6.67,5.408,12.079,12.079,12.079h180.015h80.739L468.866,341.919z"/>
	<path style="fill:#2E1C10;" d="M162.307,315.311c-6.668,0-12.079,5.4-12.079,12.079c0,6.668,5.412,12.079,12.079,12.079
		c6.68,0,12.079-5.412,12.079-12.079C174.386,320.711,168.986,315.311,162.307,315.311z"/>
</g>
<g>
</g>
<g>
</g>
<g>
</g>
<g>
</g>
<g>
</g>
<g>
</g>
<g>
</g>
<g>
</g>
<g>
</g>
<g>
</g>
<g>
</g>
<g>
</g>
<g>
</g>
<g>
</g>
<g>
</g>
</svg>
