<?xml version="1.0" encoding="iso-8859-1"?>
<!-- Generator: Adobe Illustrator 19.0.0, SVG Export Plug-In . SVG Version: 6.00 Build 0)  -->
<svg version="1.1" id="Layer_1" xmlns="http://www.w3.org/2000/svg" xmlns:xlink="http://www.w3.org/1999/xlink" x="0px" y="0px"
	 viewBox="0 0 512 512" style="enable-background:new 0 0 512 512;" xml:space="preserve">
<g>
	<g>
		<g>
			<path d="M486.4,409.6h-42.667c0-37.703-30.564-68.267-68.267-68.267H264.533v-68.54c71.427-4.407,128-63.724,128-136.26
				C392.533,61.13,331.403,0,256,0S119.467,61.13,119.467,136.533c0,72.536,56.573,131.854,128,136.26v68.54H136.533
				c-37.703,0-68.267,30.564-68.267,68.267H25.6c-4.713,0-8.533,3.82-8.533,8.533v85.333c0,4.713,3.82,8.533,8.533,8.533H128
				c4.713,0,8.533-3.82,8.533-8.533v-85.333c0-4.713-3.82-8.533-8.533-8.533H85.333c0-28.277,22.923-51.2,51.2-51.2h110.933v51.2
				H204.8c-4.713,0-8.533,3.82-8.533,8.533v85.333c0,4.713,3.82,8.533,8.533,8.533h102.4c4.713,0,8.533-3.82,8.533-8.533v-85.333
				c0-4.713-3.82-8.533-8.533-8.533h-42.667v-51.2h110.933c28.277,0,51.2,22.923,51.2,51.2H384c-4.713,0-8.533,3.82-8.533,8.533
				v85.333c0,4.713,3.82,8.533,8.533,8.533h102.4c4.713,0,8.533-3.82,8.533-8.533v-85.333
				C494.933,413.421,491.113,409.6,486.4,409.6z M136.84,145.067h25.293c4.713,0,8.533-3.82,8.533-8.533S166.846,128,162.133,128
				H136.84c4.178-59.175,51.452-106.449,110.627-110.627v25.293c0,4.713,3.82,8.533,8.533,8.533c4.713,0,8.533-3.82,8.533-8.533
				V17.373C323.708,21.551,370.983,68.825,375.16,128h-25.293c-4.713,0-8.533,3.82-8.533,8.533s3.821,8.533,8.533,8.533h25.293
				c-4.178,59.175-51.452,106.449-110.627,110.627V230.4c0-4.713-3.82-8.533-8.533-8.533c-4.713,0-8.533,3.82-8.533,8.533v25.293
				C188.292,251.516,141.018,204.242,136.84,145.067z M119.467,426.667v68.267H34.133v-68.267H119.467z M298.667,494.933h-85.333
				v-68.267h85.333V494.933z M477.867,494.933h-85.333v-68.267h85.333V494.933z"/>
			<path d="M51.2,460.8c0,4.713,3.82,8.533,8.533,8.533h34.133c4.713,0,8.533-3.82,8.533-8.533s-3.82-8.533-8.533-8.533H59.733
				C55.021,452.267,51.2,456.087,51.2,460.8z"/>
			<path d="M230.4,460.8c0,4.713,3.82,8.533,8.533,8.533h34.133c4.713,0,8.533-3.82,8.533-8.533s-3.82-8.533-8.533-8.533h-34.133
				C234.221,452.267,230.4,456.087,230.4,460.8z"/>
			<path d="M409.6,460.8c0,4.713,3.821,8.533,8.533,8.533h34.133c4.713,0,8.533-3.82,8.533-8.533s-3.82-8.533-8.533-8.533h-34.133
				C413.421,452.267,409.6,456.087,409.6,460.8z"/>
			<path d="M247.509,137.375c0.012,0.127,0.036,0.25,0.054,0.376c0.021,0.15,0.039,0.3,0.069,0.449
				c0.028,0.143,0.068,0.282,0.103,0.422c0.033,0.13,0.061,0.26,0.1,0.389c0.042,0.137,0.093,0.269,0.141,0.403
				c0.046,0.129,0.088,0.258,0.141,0.385c0.052,0.125,0.113,0.245,0.171,0.368c0.061,0.13,0.119,0.262,0.188,0.389
				c0.063,0.117,0.134,0.228,0.202,0.342c0.075,0.125,0.145,0.252,0.227,0.374c0.084,0.126,0.178,0.244,0.268,0.365
				c0.076,0.102,0.147,0.207,0.229,0.306c0.175,0.213,0.359,0.417,0.553,0.612c0.004,0.004,0.008,0.009,0.012,0.013L284.09,176.7
				c3.332,3.333,8.735,3.334,12.068,0.002c3.333-3.332,3.334-8.735,0.002-12.068l-31.626-31.634V85.333
				c0-4.713-3.82-8.533-8.533-8.533c-4.713,0-8.533,3.82-8.533,8.533v51.2c0,0.006,0.001,0.011,0.001,0.017
				C247.468,136.826,247.482,137.101,247.509,137.375z"/>
		</g>
	</g>
</g>
<g>
</g>
<g>
</g>
<g>
</g>
<g>
</g>
<g>
</g>
<g>
</g>
<g>
</g>
<g>
</g>
<g>
</g>
<g>
</g>
<g>
</g>
<g>
</g>
<g>
</g>
<g>
</g>
<g>
</g>
</svg>
