<?xml version="1.0" encoding="iso-8859-1"?>
<!-- Generator: Adobe Illustrator 19.0.0, SVG Export Plug-In . SVG Version: 6.00 Build 0)  -->
<svg version="1.1" id="Layer_1" xmlns="http://www.w3.org/2000/svg" xmlns:xlink="http://www.w3.org/1999/xlink" x="0px" y="0px"
	 viewBox="0 0 512 512" style="enable-background:new 0 0 512 512;" xml:space="preserve">
<g>
	<g>
		<g>
			<path d="M445.824,17.067h-91.691h-51.2V8.533c0-4.713-3.82-8.533-8.533-8.533h-76.8c-4.713,0-8.533,3.82-8.533,8.533v8.533h-51.2
				H66.176c-10.626,0-19.243,8.616-19.243,19.243v456.448c0,10.626,8.616,19.243,19.243,19.243h379.648
				c10.626,0,19.243-8.616,19.243-19.243V36.309C465.067,25.683,456.45,17.067,445.824,17.067z M285.867,17.067V25.6v17.067h-59.733
				V25.6v-8.533H285.867z M209.067,34.133V51.2v8.533h8.533h76.8h8.533V51.2V34.133H345.6v25.6v8.533H166.4v-8.533v-25.6H209.067z
				 M157.867,85.333h196.267h8.533V76.8h42.667v375.467H106.667V76.8h42.667v8.533H157.867z M448,492.757
				c0,1.201-0.975,2.176-2.176,2.176H66.176c-1.201,0-2.176-0.975-2.176-2.176V36.309c0-1.201,0.975-2.176,2.176-2.176h83.157v25.6
				H89.6v409.6h332.8v-409.6h-59.733v-25.6h83.157c1.201,0,2.176,0.975,2.176,2.176V492.757z"/>
			<path d="M212.02,253.039l24.166,24.166c33.32,33.32,66.751,41.052,94.789,13.023l8.341-8.35
				c6.656-6.642,8.198-16.873,3.793-25.201c-0.936-1.769-2.11-3.525-3.504-5.287c-3.16-3.994-7.44-8.02-12.597-12.097
				c-3.587-2.836-7.397-5.536-11.204-8.027c-2.29-1.498-4.091-2.607-5.168-3.237c-9.305-5.309-20.133-4.604-25.75,4.395
				c-1.027,1.223-2.44,2.878-3.889,4.518c-0.208,0.235-0.208,0.235-0.415,0.468c-1.56,1.754-3.022,3.266-2.901,3.184
				c-5.603,3.792-9.055,3.51-14.006-1.446l-18.879-18.879l-18.876-18.876c-4.955-4.955-5.238-8.411-1.433-14.032
				c-0.097,0.143,1.414-1.319,3.167-2.88c0.233-0.207,0.233-0.207,0.467-0.414c1.638-1.447,3.29-2.86,4.511-3.886
				c9.007-5.617,9.708-16.44,4.445-25.664c-0.681-1.162-1.789-2.963-3.287-5.254c-2.49-3.807-5.19-7.617-8.025-11.203
				c-4.068-5.147-8.085-9.42-12.069-12.578c-1.768-1.402-3.53-2.582-5.306-3.522c-8.325-4.403-18.548-2.867-25.209,3.78
				l-8.341,8.358c-28.04,28.031-20.311,61.465,13.021,94.785L212.02,253.039z M186.916,146.16l8.336-8.353
				c1.353-1.35,3.453-1.665,5.159-0.763c0.785,0.415,1.691,1.023,2.686,1.811c2.786,2.209,5.962,5.587,9.281,9.787
				c2.488,3.148,4.902,6.554,7.132,9.963c1.334,2.039,2.298,3.606,2.795,4.454c1.211,2.123,1.163,2.719,1.197,2.7l-1.29,0.889
				c-0.345,0.288-0.935,0.784-1.69,1.426c-1.258,1.07-2.517,2.158-3.701,3.204c-0.257,0.227-0.257,0.227-0.514,0.456
				c-3.121,2.779-4.866,4.467-5.937,6.038c-8.353,12.341-7.325,24.881,3.483,35.689l37.751,37.751
				c10.803,10.814,23.344,11.839,35.666,3.499c1.596-1.088,3.284-2.834,6.064-5.959c0.229-0.258,0.229-0.258,0.457-0.515
				c1.046-1.184,2.133-2.445,3.203-3.704c0.642-0.755,1.138-1.346,1.426-1.691l0.883-1.282c-0.018,0.032,0.583-0.016,2.789,1.242
				c0.762,0.447,2.328,1.411,4.367,2.745c3.409,2.23,6.815,4.644,9.963,7.133c4.207,3.326,7.589,6.508,9.797,9.298
				c0.783,0.99,1.387,1.893,1.802,2.677c0.901,1.704,0.586,3.796-0.771,5.151l-8.347,8.355
				c-19.867,19.86-43.151,14.475-70.651-13.025l-48.324-48.324C172.421,189.313,167.038,166.031,186.916,146.16z"/>
			<path d="M157.867,366.933h42.667c4.713,0,8.533-3.82,8.533-8.533s-3.82-8.533-8.533-8.533h-42.667
				c-4.713,0-8.533,3.82-8.533,8.533S153.154,366.933,157.867,366.933z"/>
			<path d="M337.067,358.4c0-4.713-3.82-8.533-8.533-8.533H268.8c-4.713,0-8.533,3.82-8.533,8.533s3.82,8.533,8.533,8.533h59.733
				C333.246,366.933,337.067,363.113,337.067,358.4z"/>
			<path d="M237.909,366.251c1.024-0.427,1.963-1.024,2.816-1.792c1.621-1.621,2.475-3.755,2.475-6.059
				c0-2.219-0.939-4.446-2.475-6.059c-0.853-0.768-1.707-1.365-2.816-1.792c-3.072-1.28-6.827-0.597-9.301,1.792
				c-1.536,1.613-2.475,3.84-2.475,6.059c0,2.304,0.853,4.437,2.475,6.059c1.621,1.613,3.755,2.475,6.059,2.475
				C235.776,366.933,236.885,366.677,237.909,366.251z"/>
			<path d="M359.424,366.251c1.024,0.427,2.133,0.683,3.243,0.683c2.304,0,4.437-0.862,6.059-2.475
				c1.621-1.621,2.475-3.755,2.475-6.059c0-2.219-0.939-4.446-2.475-6.059c-3.157-3.157-8.875-3.157-12.117,0
				c-1.536,1.613-2.475,3.84-2.475,6.059c0,2.304,0.853,4.437,2.475,6.059C357.461,365.227,358.4,365.824,359.424,366.251z"/>
			<path d="M362.667,392.533H320c-4.713,0-8.533,3.821-8.533,8.533s3.82,8.533,8.533,8.533h42.667c4.713,0,8.533-3.82,8.533-8.533
				S367.38,392.533,362.667,392.533z"/>
			<path d="M251.733,392.533H192c-4.713,0-8.533,3.821-8.533,8.533s3.82,8.533,8.533,8.533h59.733c4.713,0,8.533-3.82,8.533-8.533
				S256.446,392.533,251.733,392.533z"/>
			<path d="M279.808,395.008c-0.768,0.853-1.365,1.707-1.792,2.816c-0.427,1.024-0.683,2.133-0.683,3.243
				c0,2.304,0.853,4.437,2.475,6.059c1.621,1.613,3.755,2.475,6.059,2.475c2.304,0,4.437-0.862,6.059-2.475
				c1.621-1.621,2.475-3.755,2.475-6.059c0-2.219-0.939-4.446-2.475-6.059C288.768,391.851,282.965,391.851,279.808,395.008z"/>
			<path d="M161.109,393.216c-3.157-1.365-6.912-0.597-9.301,1.792c-0.768,0.853-1.365,1.707-1.792,2.816
				c-0.427,1.024-0.683,2.133-0.683,3.243c0,2.304,0.853,4.437,2.475,6.059c1.621,1.613,3.755,2.475,6.059,2.475
				c2.304,0,4.437-0.862,6.059-2.475c0.768-0.862,1.365-1.792,1.792-2.816c0.512-1.024,0.683-2.133,0.683-3.243
				c0-2.219-0.939-4.446-2.475-6.059C163.072,394.24,162.133,393.643,161.109,393.216z"/>
		</g>
	</g>
</g>
<g>
</g>
<g>
</g>
<g>
</g>
<g>
</g>
<g>
</g>
<g>
</g>
<g>
</g>
<g>
</g>
<g>
</g>
<g>
</g>
<g>
</g>
<g>
</g>
<g>
</g>
<g>
</g>
<g>
</g>
</svg>
