<?xml version="1.0" encoding="iso-8859-1"?>
<!-- Generator: Adobe Illustrator 19.0.0, SVG Export Plug-In . SVG Version: 6.00 Build 0)  -->
<svg version="1.1" id="Layer_1" xmlns="http://www.w3.org/2000/svg" xmlns:xlink="http://www.w3.org/1999/xlink" x="0px" y="0px"
	 viewBox="0 0 512 512" style="enable-background:new 0 0 512 512;" xml:space="preserve">
<g>
	<g>
		<g>
			<path d="M93.909,0v256H8.576v204.8c0,28.179,23.021,51.2,51.2,51.2h392.533c28.231,0,51.115-22.884,51.115-51.115V0H93.909z
				 M25.643,460.8V273.067h68.267V460.8c0,18.754-15.379,34.133-34.133,34.133S25.643,479.554,25.643,460.8z M486.357,460.885
				c0,18.805-15.243,34.048-34.048,34.048H97.87c0.317-0.353,0.62-0.718,0.927-1.08c0.168-0.197,0.341-0.389,0.506-0.589
				c0.504-0.612,0.995-1.234,1.47-1.868c0.026-0.034,0.049-0.07,0.075-0.105c0.448-0.601,0.884-1.212,1.306-1.834
				c0.152-0.224,0.294-0.455,0.443-0.682c0.288-0.438,0.576-0.876,0.851-1.324c0.166-0.27,0.321-0.547,0.482-0.82
				c0.243-0.414,0.487-0.826,0.719-1.247c0.163-0.296,0.317-0.597,0.474-0.896c0.214-0.408,0.428-0.816,0.632-1.23
				c0.154-0.313,0.3-0.631,0.448-0.948c0.191-0.41,0.38-0.821,0.561-1.236c0.142-0.326,0.277-0.655,0.412-0.985
				c0.17-0.416,0.337-0.833,0.497-1.255c0.127-0.336,0.25-0.674,0.371-1.014c0.15-0.423,0.295-0.849,0.434-1.277
				c0.112-0.344,0.221-0.689,0.326-1.036c0.131-0.434,0.254-0.87,0.373-1.308c0.095-0.348,0.189-0.697,0.277-1.048
				c0.112-0.447,0.213-0.897,0.313-1.349c0.077-0.349,0.156-0.697,0.226-1.048c0.093-0.466,0.173-0.935,0.252-1.406
				c0.058-0.343,0.12-0.685,0.172-1.031c0.073-0.493,0.131-0.991,0.19-1.489c0.039-0.329,0.084-0.655,0.117-0.986
				c0.055-0.553,0.091-1.111,0.128-1.669c0.018-0.279,0.046-0.556,0.059-0.836c0.041-0.841,0.065-1.686,0.065-2.537V256V17.067
				h375.381V460.885z"/>
			<path d="M443.776,153.6H307.243c-4.713,0-8.533,3.82-8.533,8.533s3.82,8.533,8.533,8.533h136.533c4.713,0,8.533-3.82,8.533-8.533
				S448.489,153.6,443.776,153.6z"/>
			<path d="M443.776,204.8H307.243c-4.713,0-8.533,3.821-8.533,8.533c0,4.713,3.82,8.533,8.533,8.533h136.533
				c4.713,0,8.533-3.821,8.533-8.533C452.309,208.621,448.489,204.8,443.776,204.8z"/>
			<path d="M298.621,384H162.088c-4.713,0-8.533,3.821-8.533,8.533c0,4.713,3.821,8.533,8.533,8.533h136.533
				c4.713,0,8.533-3.821,8.533-8.533C307.155,387.821,303.334,384,298.621,384z"/>
			<path d="M443.688,264.533h-281.6c-4.713,0-8.533,3.821-8.533,8.533c0,4.713,3.821,8.533,8.533,8.533h281.6
				c4.713,0,8.533-3.821,8.533-8.533C452.221,268.354,448.401,264.533,443.688,264.533z"/>
			<path d="M443.688,315.733h-281.6c-4.713,0-8.533,3.82-8.533,8.533s3.821,8.533,8.533,8.533h281.6c4.713,0,8.533-3.82,8.533-8.533
				S448.401,315.733,443.688,315.733z"/>
			<path d="M298.621,435.2H162.088c-4.713,0-8.533,3.82-8.533,8.533s3.821,8.533,8.533,8.533h136.533
				c4.713,0,8.533-3.82,8.533-8.533S303.334,435.2,298.621,435.2z"/>
			<path d="M181.654,219.367c3.333,3.333,8.735,3.333,12.068,0l51.2-51.2c3.332-3.332,3.332-8.735,0-12.068
				c-3.333-3.332-8.736-3.332-12.068,0l-45.166,45.166l-19.566-19.566c-3.332-3.332-8.735-3.332-12.068,0
				c-3.332,3.333-3.332,8.735,0,12.068L181.654,219.367z"/>
			<path d="M441.189,386.499c-3.333-3.332-8.735-3.332-12.068,0l-19.566,19.566l-19.566-19.566c-3.332-3.332-8.735-3.332-12.068,0
				c-3.332,3.332-3.332,8.735,0,12.068l19.566,19.566l-19.566,19.566c-3.332,3.332-3.332,8.735,0,12.068
				c3.333,3.332,8.736,3.332,12.068,0l19.566-19.566l19.566,19.566c3.333,3.332,8.735,3.332,12.068,0
				c3.332-3.332,3.332-8.735,0-12.068l-19.566-19.566l19.566-19.566C444.521,395.235,444.521,389.832,441.189,386.499z"/>
			<path d="M452.221,51.2h-307.2v68.267h307.2V51.2z M435.155,102.4H162.088V68.267h273.067V102.4z"/>
		</g>
	</g>
</g>
<g>
</g>
<g>
</g>
<g>
</g>
<g>
</g>
<g>
</g>
<g>
</g>
<g>
</g>
<g>
</g>
<g>
</g>
<g>
</g>
<g>
</g>
<g>
</g>
<g>
</g>
<g>
</g>
<g>
</g>
</svg>
