<?xml version="1.0" encoding="iso-8859-1"?>
<!-- Generator: Adobe Illustrator 19.0.0, SVG Export Plug-In . SVG Version: 6.00 Build 0)  -->
<svg version="1.1" id="Layer_1" xmlns="http://www.w3.org/2000/svg" xmlns:xlink="http://www.w3.org/1999/xlink" x="0px" y="0px"
	 viewBox="0 0 512.853 512.853" style="enable-background:new 0 0 512.853 512.853;" xml:space="preserve">
<g transform="translate(1 1)">
	<path style="fill:#FFA800;" d="M503.32,228.973c0,18.773-8.533,30.72-12.8,35.84c-3.413,4.267-5.12,10.24-6.827,15.36
		c-5.12,20.48-19.627,34.987-40.107,34.987H390.68c-26.453,0-57.173-16.213-57.173-42.667V253.72
		c-16.213-17.067-29.013-42.667-29.013-42.667c-17.067-31.573-47.787-62.293-47.787-64c0-1.707-1.707-5.973,5.12-10.24
		c1.707-0.853,4.267-2.56,5.973-3.413c17.067-6.827,42.667,2.56,52.907,21.333l11.947,15.36V33.56c0-11.947,9.387-25.6,21.333-25.6
		c13.653,0,21.333,13.653,21.333,25.6v85.333v-25.6c0-11.947,5.12-25.6,21.333-25.6c17.92,0,21.333,13.653,21.333,25.6v25.6l0,0
		c0-8.533,8.533-25.6,21.333-25.6c12.8,0,21.333,14.507,21.333,25.6v17.067c0-11.947,9.387-17.067,17.067-17.067
		C500.76,118.893,503.32,148.76,503.32,228.973"/>
	<path style="fill:#FFE100;" d="M477.72,228.973c0,18.773-8.533,30.72-12.8,35.84c-3.413,4.267-5.12,10.24-6.827,15.36
		c-5.12,20.48,5.973,34.987-14.507,34.987H390.68c-26.453,0-57.173-16.213-57.173-42.667V253.72
		c-16.213-17.067-29.013-42.667-29.013-42.667c-17.067-31.573-47.787-62.293-47.787-64c0-1.707-1.707-5.973,5.12-10.24
		c1.707-0.853,4.267-2.56,5.973-3.413c17.067-6.827,42.667,2.56,52.907,21.333l11.947,15.36V33.56c0-11.947,9.387-25.6,21.333-25.6
		c13.653,0,21.333,13.653,21.333,25.6v85.333v-25.6c0-11.947,5.12-25.6,21.333-25.6c17.92,0,21.333,13.653,21.333,25.6v25.6l0,0
		c0-8.533,8.533-25.6,21.333-25.6c12.8,0,21.333,14.507,21.333,25.6v17.067c0-11.947-16.213-17.067-8.533-17.067
		C475.16,118.893,477.72,148.76,477.72,228.973"/>
	<path style="fill:#FFA800;" d="M255.853,416.707c0,18.773-8.533,30.72-12.8,35.84c-3.413,4.267-5.12,10.24-6.827,15.36
		c-5.12,20.48-19.627,34.987-40.107,34.987h-52.907c-27.307,0-58.027-16.213-58.027-42.667v-18.773
		c-16.213-17.067-29.013-42.667-29.013-42.667c-17.067-31.573-47.787-62.293-47.787-64s-1.707-5.973,5.12-10.24
		c1.707-0.853,4.267-2.56,5.973-3.413c17.067-6.827,42.667,2.56,52.907,21.333l12.8,15.36V221.293c0-11.947,9.387-25.6,21.333-25.6
		c13.653,0,21.333,13.653,21.333,25.6v85.333v-25.6c0-11.947,5.12-25.6,21.333-25.6c17.92,0,21.333,13.653,21.333,25.6v25.6l0,0
		c0-8.533,8.533-25.6,21.333-25.6s21.333,14.507,21.333,25.6v17.067c0-11.947,9.387-17.067,17.067-17.067
		C253.293,306.627,255.853,336.493,255.853,416.707"/>
	<path style="fill:#FFE100;" d="M230.253,416.707c0,18.773-8.533,30.72-12.8,35.84c-3.413,4.267-5.12,10.24-6.827,15.36
		c-5.12,20.48,5.973,34.987-14.507,34.987h-52.907c-27.307,0-58.027-16.213-58.027-42.667v-18.773
		c-16.213-17.067-29.013-42.667-29.013-42.667c-17.067-31.573-47.787-62.293-47.787-64s-1.707-5.973,5.12-10.24
		c1.707-0.853,4.267-2.56,5.973-3.413c17.067-6.827,42.667,2.56,52.907,21.333l12.8,15.36V221.293c0-11.947,9.387-25.6,21.333-25.6
		c13.653,0,21.333,13.653,21.333,25.6v85.333v-25.6c0-11.947,5.12-25.6,21.333-25.6c17.92,0,21.333,13.653,21.333,25.6v25.6l0,0
		c0-8.533,8.533-25.6,21.333-25.6s21.333,14.507,21.333,25.6v17.067c0-11.947-16.213-17.067-8.533-17.067
		C227.693,306.627,230.253,336.493,230.253,416.707"/>
	<path d="M110.787,468.76c-1.707,0-2.56,0-4.267-0.853l-1.707-0.853c-11.947-6.827-17.067-9.387-25.6-17.92
		c-3.413-3.413-3.413-8.533,0-11.947c3.413-3.413,8.533-3.413,11.947,0c6.827,6.827,10.24,8.533,22.187,15.36l1.707,0.853
		c4.267,2.56,5.973,7.68,3.413,11.947C116.76,467.053,113.347,468.76,110.787,468.76z"/>
	<path d="M93.72,374.893c-2.56,0-4.267-0.853-5.973-2.56l-8.533-8.533c-3.413-3.413-3.413-8.533,0-11.947
		c3.413-3.413,8.533-3.413,11.947,0l8.533,8.533c3.413,3.413,3.413,8.533,0,11.947C97.987,374.04,95.427,374.893,93.72,374.893z"/>
	<path d="M196.12,511.427h-52.907c-32.427,0-66.56-19.627-66.56-51.2v-15.36c-16.213-17.92-27.307-40.96-28.16-41.813
		c-11.947-21.333-31.573-43.52-40.96-54.613C0.707,339.907-1,338.2-1,334.787c0-3.413,0-11.093,9.387-17.067
		c2.56-1.707,5.12-3.413,7.68-4.267c19.627-7.68,45.227,0.853,59.733,18.773V221.293c0-16.213,12.8-34.133,29.867-34.133
		c18.773,0,29.867,17.92,29.867,34.133v28.16c3.413-1.707,7.68-2.56,11.947-2.56c8.533,0,28.16,3.413,29.867,29.867
		c3.413-2.56,7.68-4.267,12.8-4.267c15.36,0,26.453,13.653,29.013,27.307c2.56-0.853,5.973-1.707,9.387-1.707
		c32.427,0,34.133,38.4,34.133,118.613c0,20.48-9.387,34.987-15.36,41.813c-0.853,0.853-2.56,3.413-4.267,11.947
		C238.787,495.213,220.013,511.427,196.12,511.427z M16.92,333.08c0.853,0.853,2.56,2.56,4.267,4.267
		c9.387,11.093,29.867,34.133,42.667,58.027c0,0.853,12.8,24.747,27.307,40.96c1.707,1.707,2.56,3.413,2.56,5.973v17.92
		c0,20.48,25.6,34.133,48.64,34.133h53.76c15.36,0,28.16-11.093,31.573-28.16c1.707-8.533,5.12-15.36,8.533-19.627
		c5.12-5.973,11.093-15.36,11.093-29.867c0-71.68-2.56-101.547-17.067-101.547c-1.707,0-8.533,0-8.533,8.533
		c0,5.12-3.413,8.533-8.533,8.533c-5.12,0-8.533-3.413-8.533-8.533v-17.067c0-6.827-5.12-17.067-12.8-17.067
		c-6.827,0-12.8,11.947-12.8,17.067l0,0c0,5.12-3.413,8.533-8.533,8.533c-5.12,0-8.533-3.413-8.533-8.533l0,0v-25.6
		c0-15.36-6.827-17.067-12.8-17.067c-8.533,0-11.947,6.827-11.947,12.8v29.867c0,4.267-3.413,8.533-8.533,8.533
		c-4.267,0-8.533-3.413-8.533-8.533v-25.6c0-1.707,0-3.413,0-5.12v-54.613c0-6.827-4.267-17.067-12.8-17.067
		c-6.827,0-12.8,9.387-12.8,17.067v136.533c0,3.413-2.56,6.827-5.973,7.68c-3.413,0.853-7.68,0-9.387-2.56l-11.947-15.36
		c0,0,0-0.853-0.853-0.853c-9.387-15.36-29.867-22.187-42.667-17.067c-0.853,0.853-2.56,0.853-4.267,2.56
		C17.773,332.227,17.773,332.227,16.92,333.08z"/>
	<path d="M127.853,374.893c-5.12,0-8.533-3.413-8.533-8.533v-59.733c0-5.12,3.413-8.533,8.533-8.533s8.533,3.413,8.533,8.533v59.733
		C136.387,371.48,132.973,374.893,127.853,374.893z"/>
	<path d="M170.52,366.36c-5.12,0-8.533-3.413-8.533-8.533v-51.2c0-5.12,3.413-8.533,8.533-8.533c5.12,0,8.533,3.413,8.533,8.533
		v51.2C179.053,362.947,174.787,366.36,170.52,366.36z"/>
	<path d="M213.187,374.893c-5.12,0-8.533-3.413-8.533-8.533v-42.667c0-5.12,3.413-8.533,8.533-8.533c5.12,0,8.533,3.413,8.533,8.533
		v42.667C221.72,371.48,217.453,374.893,213.187,374.893z"/>
	<path d="M221.72,468.76c-3.413,0-7.68-2.56-8.533-5.973c-0.853-4.267,1.707-9.387,5.973-10.24
		c11.093-2.56,19.627-9.387,23.04-14.507c2.56-4.267,7.68-5.973,11.947-3.413c4.267,2.56,5.973,7.68,3.413,11.947
		c-5.973,10.24-18.773,19.627-33.28,23.04C222.573,468.76,221.72,468.76,221.72,468.76z"/>
	<path d="M358.253,281.027c-1.707,0-2.56,0-4.267-0.853l-1.707-0.853c-11.947-6.827-17.067-9.387-25.6-17.92
		c-3.413-3.413-3.413-8.533,0-11.947c3.413-3.413,8.533-3.413,11.947,0c6.827,6.827,10.24,8.533,22.187,15.36l1.707,0.853
		c4.267,2.56,5.973,7.68,3.413,11.947C364.227,279.32,360.813,281.027,358.253,281.027z"/>
	<path d="M341.187,187.16c-2.56,0-4.267-0.853-5.973-2.56l-8.533-8.533c-3.413-3.413-3.413-8.533,0-11.947
		c3.413-3.413,8.533-3.413,11.947,0l8.533,8.533c3.413,3.413,3.413,8.533,0,11.947C345.453,186.307,342.893,187.16,341.187,187.16z"
		/>
	<path d="M443.587,323.693H390.68c-32.427,0-66.56-19.627-66.56-51.2v-15.36c-16.213-17.92-27.307-40.96-28.16-41.813
		c-11.947-21.333-31.573-43.52-40.107-54.613c-6.827-8.533-8.533-10.24-8.533-13.653c0-3.413,0-11.093,9.387-17.067
		c1.707-0.853,4.267-2.56,7.68-4.267c19.627-7.68,45.227,0.853,59.733,18.773v-25.6c0-5.12,3.413-8.533,8.533-8.533l0,0
		c5.12,0,8.533,4.267,8.533,8.533v51.2c0,3.413-2.56,6.827-5.973,7.68c-3.413,0.853-7.68,0-9.387-2.56l-11.947-15.36
		c0,0,0-0.853-0.853-0.853c-9.387-15.36-29.867-22.187-42.667-17.067c-1.707,0.853-2.56,0.853-4.267,2.56
		c-0.853,0-1.707,0-1.707,0.853c0.853,0.853,2.56,2.56,4.267,4.267c9.387,11.093,29.867,34.133,42.667,58.027
		c0,0.853,12.8,24.747,27.307,40.96c1.707,1.707,2.56,3.413,2.56,5.973v17.92c0,20.48,25.6,34.133,48.64,34.133h53.76
		c15.36,0,28.16-11.093,31.573-28.16c1.707-8.533,5.12-15.36,8.533-19.627c5.12-5.973,11.093-15.36,11.093-29.867
		c0-71.68-2.56-101.547-17.067-101.547c-1.707,0-8.533,0-8.533,8.533c0,5.12-3.413,8.533-8.533,8.533
		c-5.12,0-8.533-3.413-8.533-8.533v-17.067c0-6.827-5.12-17.067-12.8-17.067c-6.827,0-12.8,11.947-12.8,17.067l0,0
		c0,5.12-3.413,8.533-8.533,8.533s-8.533-3.413-8.533-8.533l0,0v-25.6c0-15.36-6.827-17.067-12.8-17.067
		c-8.533,0-11.947,6.827-11.947,12.8v29.867c0,4.267-3.413,8.533-8.533,8.533c-4.267,0-8.533-3.413-8.533-8.533v-25.6
		c0-1.707,0-3.413,0-5.12V33.56c0-6.827-4.267-17.067-12.8-17.067c-7.68,0-13.653,9.387-13.653,17.067v17.067
		c0,5.12-3.413,8.533-8.533,8.533l0,0c-5.12,0-8.533-4.267-8.533-8.533V33.56c0-16.213,12.8-34.133,29.867-34.133
		c17.92,0,29.867,17.92,29.867,34.133v28.16c3.413-1.707,7.68-2.56,11.947-2.56c8.533,0,28.16,3.413,29.867,29.867
		c4.267-2.56,8.533-4.267,13.653-4.267c15.36,0,26.453,13.653,29.013,27.307c2.56-0.853,5.973-1.707,9.387-1.707
		c32.427,0,34.133,38.4,34.133,118.613c0,20.48-9.387,34.987-15.36,41.813c-0.853,0.853-2.56,3.413-4.267,11.947
		C486.253,307.48,467.48,323.693,443.587,323.693z"/>
	<path d="M341.187,84.76c0-5.12-3.413-8.533-8.533-8.533s-8.533,3.413-8.533,8.533c0,5.12,3.413,8.533,8.533,8.533
		S341.187,89.88,341.187,84.76"/>
	<path d="M375.32,187.16c-5.12,0-8.533-3.413-8.533-8.533v-59.733c0-5.12,3.413-8.533,8.533-8.533c5.12,0,8.533,3.413,8.533,8.533
		v59.733C383.853,183.747,380.44,187.16,375.32,187.16z"/>
	<path d="M417.987,178.627c-5.12,0-8.533-3.413-8.533-8.533v-51.2c0-5.12,3.413-8.533,8.533-8.533s8.533,3.413,8.533,8.533v51.2
		C426.52,175.213,422.253,178.627,417.987,178.627z"/>
	<path d="M460.653,187.16c-5.12,0-8.533-3.413-8.533-8.533V135.96c0-5.12,3.413-8.533,8.533-8.533c5.12,0,8.533,3.413,8.533,8.533
		v42.667C469.187,183.747,464.92,187.16,460.653,187.16z"/>
	<path d="M469.187,281.027c-3.413,0-6.827-2.56-8.533-5.973c-0.853-4.267,1.707-9.387,5.973-10.24
		c11.093-2.56,19.627-9.387,23.04-14.507c2.56-4.267,7.68-5.973,11.947-3.413c4.267,2.56,5.973,7.68,3.413,11.947
		c-5.973,10.24-18.773,19.627-33.28,23.04C470.04,281.027,469.187,281.027,469.187,281.027z"/>
</g>
<g>
</g>
<g>
</g>
<g>
</g>
<g>
</g>
<g>
</g>
<g>
</g>
<g>
</g>
<g>
</g>
<g>
</g>
<g>
</g>
<g>
</g>
<g>
</g>
<g>
</g>
<g>
</g>
<g>
</g>
</svg>
