<?xml version="1.0" encoding="iso-8859-1"?>
<!-- Generator: Adobe Illustrator 19.0.0, SVG Export Plug-In . SVG Version: 6.00 Build 0)  -->
<svg version="1.1" id="Layer_1" xmlns="http://www.w3.org/2000/svg" xmlns:xlink="http://www.w3.org/1999/xlink" x="0px" y="0px"
	 viewBox="0 0 506.496 506.496" style="enable-background:new 0 0 506.496 506.496;" xml:space="preserve">
<g transform="translate(0 1)">
	<g>
		<path style="fill:#FFE100;" d="M466.176,401.338c6.827-12.8,5.973-31.573,5.973-42.667"/>
		<path style="fill:#FFE100;" d="M423.509,322.831l-5.973-17.92"/>
	</g>
	<path style="fill:#FFA800;" d="M333.056,461.071c12.8,12.8,29.867,17.92,36.693,17.92c5.12,0,11.093,3.413,15.36,6.827
		c17.067,11.093,41.813,14.507,56.32-0.853l40.96-40.96c19.627-19.627,19.627-51.2,0-69.973l-11.093-11.093
		c-0.853-23.893-7.68-52.907-7.68-52.907c-9.387-34.133-10.24-78.507-11.093-79.36c-0.853-0.853-3.413-5.12-11.093-3.413
		c-2.56,0.853-4.267,0.853-6.827,1.707c-14.507,5.973-21.333,25.6-22.187,43.52c-0.853,5.12,0,11.093,1.707,16.213l4.267,15.36
		l-81.067-81.067c-8.533-8.533-22.187-9.387-29.867-1.707c-9.387,9.387-8.533,23.04,0,31.573l44.373,44.373l-11.947-11.947
		c-8.533-8.533-21.333-9.387-30.72,0c-8.533,8.533-7.68,22.187,0,29.867l11.947,11.947l5.973,5.973
		c-5.973-5.973-21.333-9.387-30.72,0c-8.533,8.533-7.68,21.333,0.853,29.867l11.947,11.947c-8.533-8.533-21.333-9.387-27.307-3.413
		C265.643,390.244,276.736,404.751,333.056,461.071"/>
	<g>
		<path style="fill:#FFE100;" d="M351.829,298.938l35.84,35.84"/>
		<path style="fill:#FFE100;" d="M327.083,334.778l23.893,23.893"/>
		<path style="fill:#FFE100;" d="M309.163,376.591l17.92,17.92"/>
		<path style="fill:#FFE100;" d="M370.603,479.844c7.68,0.853,9.387,0.853,20.48-5.12"/>
		<path style="fill:#FFE100;" d="M440.576,401.338c6.827-12.8,5.973,0,5.973-42.667"/>
		<path style="fill:#FFE100;" d="M397.909,322.831l11.093-17.92"/>
		<path style="fill:#FFE100;" d="M427.776,238.351c11.093-5.12-25.6,51.2-23.893,34.987c-0.853,5.12,0,11.093,1.707,16.213
			l-5.973-2.56l-52.907-55.467c-46.08-27.307-23.04-14.507-31.573-5.973c-9.387,9.387-25.6,5.12-8.533,25.6l45.227,59.733
			l-21.333-24.747c-8.533-8.533-15.36-15.36-23.893-5.973c-8.533,8.533-8.533,22.187,0,29.867l5.973,17.92l5.973,5.973
			c-5.973-5.973-11.093-16.213-20.48-6.827c-8.533,8.533-8.533,20.48-0.853,28.16l3.413,20.48
			c-8.533-8.533-13.653-11.947-19.627-5.973c-16.213,16.213-12.8,34.133,43.52,90.453c12.8,12.8,29.867,17.92,36.693,17.92
			c5.12,0,11.093,3.413,15.36,6.827c17.067,11.093,34.133,18.773,48.64,4.267l42.667-42.667
			c19.627-19.627,8.533-41.813-11.093-61.44l-11.093-23.04c-0.853-23.893-7.68-52.907-7.68-52.907"/>
		<path style="fill:#FFE100;" d="M343.296,298.938l35.84,35.84"/>
		<path style="fill:#FFE100;" d="M318.549,334.778l23.893,23.893"/>
		<path style="fill:#FFE100;" d="M300.629,376.591l17.92,17.92"/>
		<path style="fill:#FFE100;" d="M362.069,479.844c7.68,0.853,9.387,0.853,20.48-5.12"/>
		<path style="fill:#FFE100;" d="M189.696,88.164h11.947"/>
	</g>
	<path style="fill:#FFA800;" d="M40.363,167.524c-12.8-12.8-15.36-27.307-16.213-34.133c0-5.12-3.413-11.093-6.827-15.36
		c-11.093-17.067-11.093-38.4,3.413-52.907l38.4-38.4c18.773-18.773,52.053-24.747,70.827-6.827l11.093,11.093
		c23.893,0.853,52.907,7.68,52.907,7.68c34.133,10.24,78.507,10.24,79.36,11.093c0.853,0.853,5.12,3.413,3.413,11.093
		c-0.853,2.56-0.853,4.267-1.707,6.827c-7.68,16.213-31.573,28.16-52.053,23.04l-19.627-2.56l81.92,81.92
		c8.533,8.533,8.533,21.333,0,29.867c-8.533,8.533-22.187,8.533-29.867,0l-51.2-51.2l17.92,17.92
		c8.533,8.533,8.533,22.187,0.853,30.72c-8.533,8.533-22.187,7.68-30.72,0l-17.92-17.92l0,0c5.973,5.973,9.387,21.333,0,30.72
		c-9.387,9.387-22.187,7.68-30.72,0l-11.947-11.947c8.533,8.533,5.973,18.773,0,23.893
		C113.749,237.498,96.683,223.844,40.363,167.524"/>
	<g>
		<path style="fill:#FFE100;" d="M202.496,148.751l-35.84-35.84"/>
		<path style="fill:#FFE100;" d="M171.776,178.618l-29.867-29.867"/>
		<path style="fill:#FFE100;" d="M129.963,197.391l-23.893-23.893"/>
		<path style="fill:#FFE100;" d="M26.709,146.191c-2.56-8.533,0-22.187,6.827-33.28"/>
		<path style="fill:#FFE100;" d="M164.096,88.164h11.947"/>
		<path style="fill:#FFE100;" d="M30.976,167.524c-12.8-12.8-15.36-27.307-16.213-34.133c0-5.12-3.413-11.093-6.827-15.36
			c-11.093-17.067-11.093-38.4,3.413-52.907l37.547-37.547c18.773-18.773,52.053-24.747,70.827-6.827l11.093,11.093
			c23.893,0.853,35.84,7.68,35.84,7.68c34.133,10.24,78.507,10.24,79.36,11.093c0.853,0.853,5.12,3.413,3.413,11.093
			c-0.853,2.56-0.853,4.267-1.707,6.827c-7.68,16.213-31.573,28.16-52.053,23.04l-19.627-2.56l81.92,81.92
			c8.533,8.533,8.533,21.333,0,29.867c-6.827,6.827-15.36-4.267-11.093,0l-51.2-51.2l17.067,17.067c8.533,8.533,7.68,23.04,0,31.573
			c-8.533,8.533-25.6,7.68-34.133,0l-15.36-17.92l0,0c5.973,5.973,9.387,21.333,0,30.72s-22.187,7.68-30.72,0l-11.947-11.947
			c8.533,8.533,5.973,18.773,0,23.893C104.363,237.498,87.296,223.844,30.976,167.524"/>
		<path style="fill:#FFE100;" d="M176.896,148.751l-18.773-35.84"/>
		<path style="fill:#FFE100;" d="M163.243,178.618l-29.867-29.867"/>
		<path style="fill:#FFE100;" d="M121.429,197.391l-23.893-23.893"/>
		<path style="fill:#FFE100;" d="M18.176,146.191c-2.56-8.533,0-22.187,6.827-33.28"/>
	</g>
	<path d="M202.496,96.698h-11.947c-5.12,0-8.533-3.413-8.533-8.533c0-5.12,3.413-8.533,8.533-8.533h11.947
		c5.12,0,8.533,3.413,8.533,8.533C211.029,93.284,206.763,96.698,202.496,96.698z"/>
	<path d="M116.309,236.644c-19.627,0-44.373-23.893-82.773-62.293l0,0c-14.507-14.507-17.92-31.573-18.773-40.107
		c0-0.853-0.853-4.267-5.12-11.947c-13.653-22.187-11.947-46.933,5.12-64l37.547-37.547c10.24-10.24,25.6-17.92,40.107-19.627
		c17.067-1.707,31.573,2.56,42.667,12.8l9.387,9.387c23.893,0.853,49.493,7.68,51.2,7.68c23.893,6.827,53.76,9.387,68.267,10.24
		c11.093,0.853,13.653,0.853,15.36,4.267c1.707,1.707,6.827,6.827,5.12,17.92c-0.853,3.413-1.707,5.973-2.56,8.533
		c-8.533,19.627-33.28,31.573-55.467,29.013l63.147,63.147c11.947,11.947,11.947,30.72,0,41.813
		c-11.093,11.093-30.72,11.093-42.667,0l-13.653-13.653c-1.707,4.267-3.413,7.68-6.827,11.093c-5.973,5.973-12.8,8.533-21.333,8.533
		c-7.68,0-14.507-3.413-20.48-7.68c-1.707,4.267-3.413,8.533-6.827,11.093c-10.24,10.24-25.6,11.947-37.547,4.267
		c-1.707,2.56-3.413,5.12-5.12,7.68C129.963,233.231,123.136,236.644,116.309,236.644z M46.336,161.551
		c57.173,57.173,68.267,63.147,77.653,53.76c0.853-0.853,5.973-5.973,0-11.947c-1.707-1.707-2.56-4.267-2.56-5.973
		c0-1.707,0.853-4.267,2.56-5.973c3.413-3.413,8.533-3.413,11.947,0l11.947,11.947c4.267,4.267,12.8,5.973,18.773,0
		c3.413-3.413,3.413-7.68,2.56-9.387c0-4.267-2.56-7.68-3.413-8.533l0,0l11.947-11.947l0,0l17.92,17.92
		c2.56,2.56,5.973,4.267,9.387,4.267s6.827-0.853,9.387-3.413c2.56-2.56,3.413-5.12,3.413-9.387c0-3.413-1.707-6.827-4.267-9.387
		l-17.92-18.773c-3.413-3.413-3.413-8.533,0-11.947s8.533-3.413,11.947,0l51.2,51.2c5.12,5.12,13.653,5.12,17.92,0
		c5.12-5.12,5.12-12.8,0-17.92l-81.067-81.92c-2.56-2.56-3.413-6.827-1.707-10.24s5.12-5.12,8.533-4.267l19.627,2.56h0.853
		c17.92,4.267,36.693-5.973,42.667-17.92c0.853-0.853,0.853-2.56,1.707-5.12c0-0.853,0-1.707,0-1.707c-1.707,0-3.413,0-5.973-0.853
		c-14.507,0-45.227-1.707-70.827-9.387l0,0c0,0-28.16-6.827-50.347-6.827c-2.56,0-4.267-0.853-5.973-2.56l-11.093-11.093
		c-15.36-15.36-42.667-8.533-58.027,6.827l-38.4,36.693c-11.093,11.093-11.947,27.307-1.707,42.667
		c5.12,7.68,7.68,13.653,7.68,19.627S35.243,150.458,46.336,161.551L46.336,161.551z"/>
	<path d="M202.496,157.284c-2.56,0-4.267-0.853-5.973-2.56l-35.84-35.84c-3.413-3.413-3.413-8.533,0-11.947s8.533-3.413,11.947,0
		l35.84,35.84c3.413,3.413,3.413,8.533,0,11.947C206.763,156.431,204.203,157.284,202.496,157.284z"/>
	<path d="M171.776,187.151c-2.56,0-4.267-0.853-5.973-2.56l-29.867-29.867c-3.413-3.413-3.413-8.533,0-11.947s8.533-3.413,11.947,0
		l29.867,29.867c3.413,3.413,3.413,8.533,0,11.947C176.043,186.298,174.336,187.151,171.776,187.151z"/>
	<path d="M129.963,205.924c-2.56,0-4.267-0.853-5.973-2.56l-23.893-23.893c-3.413-3.413-3.413-8.533,0-11.947s8.533-3.413,11.947,0
		l23.893,23.893c3.413,3.413,3.413,8.533,0,11.947C134.229,205.071,131.669,205.924,129.963,205.924z"/>
	<path d="M26.709,154.724c-3.413,0-6.827-2.56-8.533-5.973c-3.413-11.093,0-26.453,6.827-40.107c2.56-4.267,7.68-5.12,11.947-3.413
		c4.267,2.56,5.12,7.68,3.413,11.947c-5.973,10.24-6.827,20.48-5.973,26.453c1.707,4.267-1.707,9.387-5.973,10.24
		C28.416,153.871,27.563,154.724,26.709,154.724z"/>
	<path d="M466.176,409.871c-1.707,0-2.56,0-4.267-0.853c-4.267-2.56-5.973-7.68-3.413-11.947c5.12-9.387,5.12-24.747,5.12-34.987
		v-3.413c0-5.12,3.413-8.533,8.533-8.533l0,0c5.12,0,8.533,3.413,8.533,8.533v3.413c0,11.947,0,29.867-6.827,42.667
		C472.15,408.164,468.736,409.871,466.176,409.871z"/>
	<path d="M423.509,331.364c-3.413,0-6.827-2.56-7.68-5.973l-5.973-17.92c-1.707-4.267,0.853-9.387,5.12-11.093
		c4.267-1.707,9.387,0.853,11.093,5.12l5.973,17.92c1.707,4.267-0.853,9.387-5.12,11.093
		C426.069,331.364,424.363,331.364,423.509,331.364z"/>
	<path d="M416.683,503.738c-12.8,0-25.6-4.267-35.84-11.093c-6.827-4.267-10.24-5.12-11.947-5.12
		c-8.533-0.853-27.307-5.973-42.667-20.48c-29.013-29.013-46.08-46.933-54.613-60.587c-9.387-15.36-8.533-27.307,3.413-39.253
		c2.56-2.56,5.973-4.267,9.387-5.12c-1.707-4.267-3.413-8.533-3.413-13.653c0-7.68,2.56-14.507,8.533-20.48
		c3.413-3.413,7.68-5.973,11.947-6.827c-11.093-11.947-11.093-29.867,0-41.813c3.413-3.413,6.827-5.973,11.093-7.68l-11.947-11.947
		c-5.973-5.973-9.387-12.8-9.387-21.333c0-8.533,2.56-16.213,9.387-22.187c5.973-5.973,13.653-8.533,21.333-7.68
		s15.36,4.267,20.48,9.387l18.773,18.773c3.413,3.413,3.413,8.533,0,11.947c-3.413,3.413-8.533,3.413-11.947,0l-18.773-18.773
		c-2.56-2.56-5.973-4.267-9.387-4.267c-2.56,0-5.973,0-8.533,3.413c-2.56,2.56-4.267,5.973-4.267,10.24
		c0,3.413,1.707,6.827,4.267,9.387l32.427,32.427l0,0l11.947,11.947c1.707,1.707,2.56,4.267,2.56,5.973s-0.853,4.267-2.56,5.973
		c-3.413,3.413-8.533,3.413-11.947,0l-11.947-11.947c-4.267-4.267-12.8-5.973-18.773,0c-2.56,2.56-4.267,5.973-3.413,9.387
		c0,3.413,1.707,6.827,4.267,9.387l17.92,17.92c1.707,1.707,2.56,4.267,2.56,5.973s-0.853,4.267-2.56,5.973
		c-3.413,3.413-8.533,3.413-11.947,0c-2.56-2.56-12.8-5.12-18.773,0c-2.56,2.56-3.413,5.973-3.413,7.68
		c0,3.413,1.707,6.827,4.267,9.387l11.947,11.947c3.413,3.413,3.413,8.533,0,11.947c-3.413,3.413-8.533,3.413-11.947,0
		c-5.973-5.973-13.653-5.12-15.36-3.413c-5.12,5.12-6.827,8.533-0.853,17.92c7.68,11.947,24.747,29.867,52.053,57.173
		c11.947,11.947,26.453,15.36,31.573,15.36c5.12,0,11.947,2.56,19.627,7.68c13.653,8.533,34.133,12.8,46.08,0.853l40.96-40.96
		c16.213-16.213,16.213-41.813,0-58.027l-11.093-11.093c-1.707-1.707-2.56-3.413-2.56-5.973c-0.853-22.187-6.827-50.347-7.68-51.2
		c-6.827-24.747-9.387-55.467-10.24-70.827c0-2.56,0-4.267-0.853-5.973c0,0-0.853,0-1.707,0c-1.707,0-3.413,0.853-5.12,1.707
		c-11.093,5.12-16.213,22.187-17.92,35.84c0,4.267,0,8.533,0.853,13.653l5.12,17.067c0.853,3.413-0.853,7.68-4.267,9.387
		c-3.413,1.707-7.68,0.853-10.24-1.707l-25.6-28.16c-3.413-3.413-3.413-8.533,0-11.947c3.413-3.413,8.533-3.413,11.947,0
		l5.973,5.973c0-1.707,0-3.413,0-5.12c1.707-24.747,11.947-43.52,27.307-50.347c2.56-0.853,5.12-1.707,8.533-2.56
		c11.093-2.56,16.213,3.413,18.773,5.973c3.413,2.56,3.413,5.12,4.267,15.36c0.853,14.507,3.413,43.52,10.24,67.413
		c0,1.707,6.827,28.16,7.68,51.2l8.533,8.533c23.04,23.04,23.04,59.733,0,81.92l-40.96,40.96
		C439.723,500.324,427.776,503.738,416.683,503.738z"/>
	<path d="M387.669,343.311c-2.56,0-4.267-0.853-5.973-2.56l-35.84-35.84c-3.413-3.413-3.413-8.533,0-11.947
		c3.413-3.413,8.533-3.413,11.947,0l35.84,35.84c3.413,3.413,3.413,8.533,0,11.947C391.936,342.458,390.229,343.311,387.669,343.311
		z"/>
	<path d="M351.829,367.204c-2.56,0-4.267-0.853-5.973-2.56l-23.893-23.893c-3.413-3.413-3.413-8.533,0-11.947
		c3.413-3.413,8.533-3.413,11.947,0l23.893,23.893c3.413,3.413,3.413,8.533,0,11.947
		C356.096,366.351,353.536,367.204,351.829,367.204z"/>
	<path d="M327.083,403.898c-2.56,0-4.267-0.853-5.973-2.56l-17.92-17.92c-3.413-3.413-3.413-8.533,0-11.947
		c3.413-3.413,8.533-3.413,11.947,0l17.92,17.92c3.413,3.413,3.413,8.533,0,11.947C331.349,403.044,329.643,403.898,327.083,403.898
		z"/>
	<path d="M375.723,488.378c-1.707,0-4.267,0-6.827-0.853c-4.267-0.853-7.68-5.12-6.827-9.387c0.853-4.267,5.12-7.68,9.387-6.827
		c5.973,0.853,5.973,0.853,15.36-4.267c4.267-2.56,9.387-0.853,11.947,3.413c2.56,4.267,0.853,9.387-3.413,11.947
		C385.963,486.671,381.696,488.378,375.723,488.378z"/>
	<path d="M383.403,259.684c0-5.12-3.413-8.533-8.533-8.533s-8.533,3.413-8.533,8.533s3.413,8.533,8.533,8.533
		S383.403,264.804,383.403,259.684"/>
</g>
<g>
</g>
<g>
</g>
<g>
</g>
<g>
</g>
<g>
</g>
<g>
</g>
<g>
</g>
<g>
</g>
<g>
</g>
<g>
</g>
<g>
</g>
<g>
</g>
<g>
</g>
<g>
</g>
<g>
</g>
</svg>
