<?xml version="1.0" encoding="iso-8859-1"?>
<!-- Generator: Adobe Illustrator 19.0.0, SVG Export Plug-In . SVG Version: 6.00 Build 0)  -->
<svg version="1.1" id="Layer_1" xmlns="http://www.w3.org/2000/svg" xmlns:xlink="http://www.w3.org/1999/xlink" x="0px" y="0px"
	 viewBox="0 0 512 512" style="enable-background:new 0 0 512 512;" xml:space="preserve">
<g transform="translate(1 1)">
	<g>
		<path style="fill:#FFE100;" d="M391.533,58.733H118.467c-5.12,0-8.533-3.413-8.533-8.533s3.413-8.533,8.533-8.533h273.067
			c5.12,0,8.533,3.413,8.533,8.533S396.653,58.733,391.533,58.733z"/>
		<path style="fill:#FFE100;" d="M357.4,92.867c-2.56,0-4.267-0.853-5.973-2.56c-3.413-3.413-3.413-8.533,0-11.947l28.16-28.16
			l-28.16-28.16c-3.413-3.413-3.413-8.533,0-11.947s8.533-3.413,11.947,0l34.133,34.133c3.413,3.413,3.413,8.533,0,11.947
			l-34.133,34.133C361.667,92.013,359.96,92.867,357.4,92.867z"/>
		<path style="fill:#FFE100;" d="M276.333,76.653c-4.267,0.853-8.533,0.853-12.8,1.707c53.76,11.947,93.867,59.733,93.867,116.907
			V383c0,57.173-40.107,104.96-93.867,116.907c4.267,0.853,8.533,1.707,12.8,1.707C336.067,495.64,383,444.44,383,383V195.267
			C383,133.827,336.067,82.627,276.333,76.653"/>
		<path style="fill:#FFE100;" d="M263.533,502.467L263.533,502.467c-65.707,0-119.467-53.76-119.467-119.467V195.267
			c0-65.707,53.76-119.467,119.467-119.467l0,0c5.973,0-40.107,0-34.133,0.853c58.027,8.533,102.4,58.027,102.4,118.613V383
			c0,60.587-44.373,110.08-102.4,118.613C223.427,502.467,269.507,502.467,263.533,502.467"/>
	</g>
	<path style="fill:#FFA800;" d="M250.733,76.653c-4.267,0.853-8.533,0.853-12.8,1.707c53.76,11.947,93.867,59.733,93.867,116.907
		V383c0,57.173-40.107,104.96-93.867,116.907c4.267,0.853,8.533,1.707,12.8,1.707C310.467,495.64,357.4,444.44,357.4,383V195.267
		C357.4,133.827,310.467,82.627,250.733,76.653"/>
	<path style="fill:#FFFFFF;" d="M144.067,383V195.267c0-57.173,40.107-104.96,93.867-116.907c-2.56-0.853-5.973-0.853-8.533-1.707
		c-2.56,0,5.973-0.853,15.36-0.853c-2.56,0-4.267,0-6.827,0c-65.707,0-119.467,53.76-119.467,119.467V383
		c0,65.707,53.76,119.467,119.467,119.467c2.56,0,4.267,0,6.827,0c-9.387,0-17.92-0.853-15.36-0.853s5.973-0.853,8.533-1.707
		C184.173,487.96,144.067,440.173,144.067,383"/>
	<path d="M237.933,511c-70.827,0-128-57.173-128-128V195.267c0-70.827,57.173-128,128-128s128,57.173,128,128v17.067
		c0,5.12-3.413,8.533-8.533,8.533c-5.12,0-8.533-3.413-8.533-8.533v-17.067c0-61.44-49.493-110.933-110.933-110.933
		S127,133.827,127,195.267V383c0,61.44,49.493,110.933,110.933,110.933S348.867,444.44,348.867,383V280.6
		c0-5.12,3.413-8.533,8.533-8.533c5.12,0,8.533,3.413,8.533,8.533V383C365.933,453.827,308.76,511,237.933,511z"/>
	<path d="M365.933,246.467c0-5.12-3.413-8.533-8.533-8.533c-5.12,0-8.533,3.413-8.533,8.533c0,5.12,3.413,8.533,8.533,8.533
		C362.52,255,365.933,251.587,365.933,246.467"/>
	<path style="fill:#FF8800;" d="M152.6,280.6v-85.333c0-46.933,38.4-85.333,85.333-85.333s85.333,38.4,85.333,85.333V280.6H152.6z"
		/>
	<path style="fill:#FFA800;" d="M152.6,280.6v-85.333c0-46.933,38.4-85.333,85.333-85.333s59.733,38.4,59.733,85.333V280.6H152.6z"
		/>
	<path d="M391.533,50.2H118.467c-5.12,0-8.533-3.413-8.533-8.533s3.413-8.533,8.533-8.533h273.067c5.12,0,8.533,3.413,8.533,8.533
		S396.653,50.2,391.533,50.2z"/>
	<path d="M357.4,84.333c-2.56,0-4.267-0.853-5.973-2.56c-3.413-3.413-3.413-8.533,0-11.947l28.16-28.16l-28.16-28.16
		c-3.413-3.413-3.413-8.533,0-11.947s8.533-3.413,11.947,0l34.133,34.133c3.413,3.413,3.413,8.533,0,11.947l-34.133,34.133
		C361.667,83.48,359.96,84.333,357.4,84.333z"/>
	<path d="M331.8,289.133H144.067v-93.867c0-52.053,41.813-93.867,93.867-93.867s93.867,41.813,93.867,93.867V289.133z
		 M161.133,272.067h153.6v-76.8c0-42.667-34.133-76.8-76.8-76.8s-76.8,34.133-76.8,76.8V272.067z"/>
	<path d="M323.267,365.933H152.6c-5.12,0-8.533-3.413-8.533-8.533s3.413-8.533,8.533-8.533h170.667c5.12,0,8.533,3.413,8.533,8.533
		S328.387,365.933,323.267,365.933z"/>
	<path d="M323.267,400.067H152.6c-5.12,0-8.533-3.413-8.533-8.533S147.48,383,152.6,383h170.667c5.12,0,8.533,3.413,8.533,8.533
		S328.387,400.067,323.267,400.067z"/>
</g>
<g>
</g>
<g>
</g>
<g>
</g>
<g>
</g>
<g>
</g>
<g>
</g>
<g>
</g>
<g>
</g>
<g>
</g>
<g>
</g>
<g>
</g>
<g>
</g>
<g>
</g>
<g>
</g>
<g>
</g>
</svg>
