<?xml version="1.0" encoding="iso-8859-1"?>
<!-- Generator: Adobe Illustrator 19.0.0, SVG Export Plug-In . SVG Version: 6.00 Build 0)  -->
<svg version="1.1" id="Layer_1" xmlns="http://www.w3.org/2000/svg" xmlns:xlink="http://www.w3.org/1999/xlink" x="0px" y="0px"
	 viewBox="0 0 512 512" style="enable-background:new 0 0 512 512;" xml:space="preserve">
<g transform="translate(1)">
	<path style="fill:#FFA800;" d="M61.293,140.8l-47.787,12.8l12.8-47.787l93.867-93.867c5.12-5.12,12.8-5.12,17.067,0l17.92,17.92
		c5.12,5.12,5.12,12.8,0,17.067L61.293,140.8z"/>
	<path style="fill:#FFE100;" d="M44.227,123.733l-30.72,12.8L30.573,102.4l85.333-93.867c5.12-5.12,12.8-5.12,17.067,0l5.12,4.267
		c5.12,5.12,5.12,12.8,0,17.067L44.227,123.733z"/>
	<path d="M1.56,165.547l17.92-64.853l94.72-94.72c7.68-7.68,21.333-7.68,29.013,0l17.92,17.92c3.413,3.413,5.973,8.533,5.973,14.507
		s-2.56,11.093-5.973,14.507L65.56,148.48L1.56,165.547z M33.987,110.08l-8.533,31.573l31.573-8.533l92.16-92.16
		c0.853-0.853,0.853-1.707,0.853-2.56s0-1.707-0.853-2.56l-17.92-17.92c-1.707-1.707-3.413-1.707-5.12,0L33.987,110.08z"/>
	
		<rect x="107.202" y="26.388" transform="matrix(-0.7071 0.7071 -0.7071 -0.7071 233.7297 5.4546)" width="17.067" height="49.493"/>
	<path style="fill:#FFE100;" d="M474.307,324.267v-102.4c0-16.213-13.653-34.133-29.867-34.133c-1.707,0-3.413,0-4.267,0.853V179.2
		c0-16.213-13.653-34.133-29.867-34.133s-29.867,17.92-29.867,34.133v59.733v-93.867c0-16.213-13.653-34.133-29.867-34.133
		s-29.867,17.92-29.867,34.133v-102.4c0-16.213-0.853-34.133-17.067-34.133s-17.067,17.92-17.067,34.133V281.6
		c0-17.067-11.093-47.787-25.6-71.68c-5.12-8.533-2.56,34.987-8.533,29.013l0,0c-7.68-7.68-30.72-61.44-42.667-58.027
		c-15.36,4.267-24.747,17.92-8.533,40.96c20.48,28.16,34.133,87.893,34.133,119.467c0,75.947,59.733,102.4,59.733,102.4V512h153.6
		v-68.267l0,0C476.013,407.04,474.307,408.747,474.307,324.267"/>
	<path style="fill:#FFA800;" d="M499.907,324.267v-102.4c0-16.213-13.653-34.133-29.867-34.133c-4.267,0-8.533,1.707-12.8,3.413
		c10.24,5.973,17.067,18.773,17.067,30.72v102.4c0,84.48,1.707,82.773-25.6,119.467l0,0V512h25.6v-68.267l0,0
		C502.467,407.04,499.907,408.747,499.907,324.267"/>
	<g>
		<path style="fill:#FFFFFF;" d="M286.573,281.6V42.667c0-14.507,0.853-29.013,11.093-33.28c-2.56,0-4.267-0.853-6.827-0.853
			c-16.213,0-29.867,17.92-29.867,34.133V209.92C275.48,233.813,286.573,264.533,286.573,281.6"/>
		<path style="fill:#FFFFFF;" d="M235.373,341.333c0-31.573-13.653-91.307-34.133-119.467c-15.36-22.187-7.68-34.987,6.827-40.107
			c-23.04-7.68-57.173,5.973-32.427,40.107c20.48,28.16,34.133,87.893,34.133,119.467c0,75.947,59.733,102.4,59.733,102.4V512h25.6
			v-68.267C295.107,443.733,235.373,417.28,235.373,341.333"/>
	</g>
	<path d="M269.507,512c-5.12,0-8.533-3.413-8.533-8.533v-54.613c-15.36-8.533-59.733-39.253-59.733-107.52
		c0-32.427-14.507-88.747-32.427-114.347c-19.627-27.307-5.12-42.667-0.853-46.933c15.36-12.8,42.667-11.947,56.32,1.707
		c10.24,10.24,20.48,25.6,28.16,41.813v-78.507c0-5.12,3.413-8.533,8.533-8.533c5.12,0,8.533,3.413,8.533,8.533V281.6
		c0,5.12-3.413,8.533-8.533,8.533c-5.12,0-8.533-3.413-8.533-8.533c0-21.333-18.773-66.56-40.107-87.893
		c-7.68-7.68-24.747-7.68-33.28-0.853c-7.68,5.973-2.56,16.213,3.413,23.893c22.187,30.72,35.84,93.013,35.84,124.587
		c0,69.12,52.053,93.867,54.613,94.72c3.413,1.707,5.12,4.267,5.12,7.68v59.733C278.04,508.587,274.627,512,269.507,512z"/>
	<path d="M474.307,512L474.307,512c-5.12,0-8.533-3.413-8.533-8.533v-58.88c0-1.707,0-4.267,1.707-5.973
		c23.893-32.427,23.893-32.427,23.893-97.28V221.867c0-11.947-9.387-25.6-21.333-25.6c-11.093,0-20.48,12.8-21.333,23.893V256
		c0,5.12-3.413,8.533-8.533,8.533l0,0c-5.12,0-8.533-3.413-8.533-8.533v-34.133c0-0.853,0-0.853,0-1.707V179.2
		c0-11.947-9.387-25.6-21.333-25.6c-11.947,0-21.333,13.653-21.333,25.6v59.733c0,5.12-3.413,8.533-8.533,8.533l0,0
		c-5.12,0-8.533-3.413-8.533-8.533v-93.867c0-11.947-9.387-25.6-21.333-25.6c-11.947,0-21.333,13.653-21.333,25.6V230.4
		c0,5.12-3.413,8.533-8.533,8.533c-5.12,0-8.533-3.413-8.533-8.533V42.667c0-11.947-9.387-25.6-21.333-25.6
		c-11.947,0-21.333,13.653-21.333,25.6V76.8c0,5.12-3.413,8.533-8.533,8.533c-5.12,0-8.533-3.413-8.533-8.533V42.667
		C252.44,22.187,268.653,0,290.84,0c22.187,0,38.4,22.187,38.4,42.667v67.413c5.973-5.12,13.653-7.68,21.333-7.68
		c21.333,0,38.4,22.187,38.4,41.813c5.973-5.12,13.653-7.68,21.333-7.68c22.187,0,38.4,22.187,38.4,42.667v7.68
		c5.973-5.12,13.653-7.68,21.333-7.68c22.187,0,38.4,22.187,38.4,42.667v119.467c0,66.56,0,70.827-25.6,104.96v57.173
		C482.84,508.587,479.427,512,474.307,512z"/>
	<path d="M269.507,110.933c0-5.12-3.413-8.533-8.533-8.533c-5.12,0-8.533,3.413-8.533,8.533s3.413,8.533,8.533,8.533
		C266.093,119.467,269.507,116.053,269.507,110.933"/>
	<path d="M380.44,435.2h-25.6c-5.12,0-8.533-3.413-8.533-8.533s3.413-8.533,8.533-8.533h25.6c5.12,0,8.533,3.413,8.533,8.533
		S385.56,435.2,380.44,435.2z"/>
	<path d="M388.973,469.333h-42.667c-5.12,0-8.533-3.413-8.533-8.533s3.413-8.533,8.533-8.533h42.667c5.12,0,8.533,3.413,8.533,8.533
		S394.093,469.333,388.973,469.333z"/>
</g>
<g>
</g>
<g>
</g>
<g>
</g>
<g>
</g>
<g>
</g>
<g>
</g>
<g>
</g>
<g>
</g>
<g>
</g>
<g>
</g>
<g>
</g>
<g>
</g>
<g>
</g>
<g>
</g>
<g>
</g>
</svg>
