<?xml version="1.0" encoding="iso-8859-1"?>
<!-- Generator: Adobe Illustrator 19.0.0, SVG Export Plug-In . SVG Version: 6.00 Build 0)  -->
<svg version="1.1" id="Layer_1" xmlns="http://www.w3.org/2000/svg" xmlns:xlink="http://www.w3.org/1999/xlink" x="0px" y="0px"
	 viewBox="0 0 512 512" style="enable-background:new 0 0 512 512;" xml:space="preserve">
<g>
	<path style="fill:#FFE100;" d="M331.401,102.4c-0.853,0-2.56,0-3.413-0.853c-4.267-1.707-5.973-6.827-4.267-11.093
		c3.413-6.827,5.12-14.507,5.12-22.187c0-28.16-23.04-51.2-51.2-51.2c-14.507,0-28.16,5.973-37.547,16.213
		c-0.853,2.56-3.413,5.12-6.827,5.12c-1.707,0-3.413,0-5.12-0.853c-5.973-2.56-12.8-3.413-18.773-3.413
		c-28.16,0-51.2,23.04-51.2,51.2c0,2.56,0,5.12,0.853,6.827c0.853,4.267-2.56,9.387-7.68,9.387c-5.12,0.853-9.387-2.56-9.387-7.68
		c-0.853-2.56-0.853-5.12-0.853-8.533c0-37.547,30.72-68.267,68.267-68.267c6.827,0,13.653,0.853,19.627,2.56
		C241.801,6.827,259.721,0,277.641,0c37.547,0,68.267,30.72,68.267,68.267c0,10.24-2.56,20.48-6.827,29.867
		C337.374,100.693,334.814,102.4,331.401,102.4z"/>
	<path style="fill:#FFE100;" d="M439.774,341.333v-102.4c0-16.213-13.653-34.133-29.867-34.133c-4.267,0-8.533,1.707-12.8,3.413
		c10.24,5.973,17.067,18.773,17.067,30.72v102.4c0,84.48,1.707,65.707-25.6,102.4l0,0V512h25.6v-68.267l0,0
		C441.481,407.04,439.774,425.813,439.774,341.333"/>
	<path style="fill:#FFE100;" d="M362.974,512v-68.267l0,0c27.307-36.693,25.6-17.92,25.6-102.4v-102.4
		c0-16.213-13.653-34.133-29.867-34.133l0,0c-16.213,0-4.267,17.92-4.267,34.133v34.133v-76.8c0-16.213-13.653-34.133-29.867-34.133
		c-16.213,0-29.867,17.92-29.867,34.133V256V68.267c0-16.213-13.653-25.6-29.867-25.6l0,0c-16.213,0-29.867,26.453-29.867,42.667
		v162.133v-153.6c0-16.213-0.853-34.133-17.067-34.133l0,0c-16.213,0-17.067,17.92-17.067,34.133l8.533,204.8
		c0-23.893-20.48-29.013-42.667-51.2c15.36,15.36-1.707-6.827-17.067-23.893c-17.92-19.627-51.2-19.627-25.6,15.36
		c20.48,28.16,29.013,88.747,34.133,119.467c12.8,75.093,59.733,85.333,59.733,85.333V512"/>
</g>
<g>
	<path style="fill:#FFFFFF;" d="M209.374,298.667l-8.533-204.8c0-14.507,0.853-29.013,11.093-33.28c-2.56,0-4.267-0.853-6.827-0.853
		c-16.213,0-29.867,17.92-29.867,34.133v161.28C194.014,271.36,209.374,278.187,209.374,298.667"/>
	<path style="fill:#FFFFFF;" d="M158.174,358.4c-5.12-30.72-13.653-91.307-34.133-119.467c-23.04-31.573,1.707-34.133,19.627-20.48
		c-3.413-5.12-6.827-9.387-11.093-13.653l0,0c-18.773-18.773-71.68-5.973-42.667,34.133c20.48,28.16,29.013,88.747,34.133,119.467
		c12.8,75.093,59.733,85.333,59.733,85.333V512h34.133v-68.267C217.908,443.733,170.974,433.493,158.174,358.4"/>
</g>
<path style="fill:#FFA800;" d="M414.174,341.333v-102.4c0-16.213-13.653-34.133-29.867-34.133c-4.267,0-8.533,1.707-12.8,3.413
	c10.24,5.973,17.067,18.773,17.067,30.72v102.4c0,84.48,1.707,65.707-25.6,102.4l0,0V512h25.6v-68.267l0,0
	C415.881,407.04,414.174,425.813,414.174,341.333"/>
<path d="M183.774,512c-5.12,0-8.533-3.413-8.533-8.533v-53.76c-14.507-5.973-48.64-26.453-59.733-90.453l-1.707-8.533
	c-5.12-30.72-13.653-82.773-31.573-107.52c-19.627-27.307-5.12-42.667-0.853-46.933c15.36-12.8,42.667-11.947,56.32,1.707
	c10.24,10.24,20.48,25.6,28.16,41.813v-43.52c0-5.12,3.413-8.533,8.533-8.533c5.12,0,8.533,3.413,8.533,8.533v102.4
	c0,5.12-3.413,8.533-8.533,8.533c-5.12,0-8.533-3.413-8.533-8.533c0-21.333-18.773-66.56-40.107-87.893
	c-7.68-7.68-24.747-7.68-33.28-0.853c-7.68,5.973-2.56,16.213,3.413,23.893c19.627,27.307,28.16,79.36,34.133,114.347l1.707,8.533
	c11.947,69.12,52.907,78.507,52.907,78.507c4.267,0.853,6.827,4.267,6.827,8.533v59.733C192.308,508.587,188.894,512,183.774,512z"
	/>
<path d="M388.574,512L388.574,512c-5.12,0-8.533-3.413-8.533-8.533v-58.88c0-1.707,0-4.267,1.707-5.973
	c5.12-5.973,8.533-11.093,11.947-14.507c11.947-15.36,11.947-15.36,11.947-65.707V238.933c0-11.947-9.387-25.6-21.333-25.6
	c-11.093,0-20.48,12.8-21.333,23.893v35.84c0,5.12-3.413,8.533-8.533,8.533l0,0c-5.12,0-8.533-3.413-8.533-8.533v-34.133
	c0-0.853,0-0.853,0-1.707v-40.96c0-11.947-9.387-25.6-21.333-25.6c-11.947,0-21.333,13.653-21.333,25.6V256
	c0,5.12-3.413,8.533-8.533,8.533l0,0c-5.12,0-8.533-3.413-8.533-8.533V76.8c0-11.947-9.387-25.6-21.333-25.6
	c-11.947,0-21.333,13.653-21.333,25.6v170.667c0,5.12-3.413,8.533-8.533,8.533c-5.12,0-8.533-3.413-8.533-8.533v-153.6
	c0-11.947-9.387-25.6-21.333-25.6c-11.947,0-21.333,13.653-21.333,25.6V128c0,5.12-3.413,8.533-8.533,8.533
	c-5.12,0-8.533-3.413-8.533-8.533V93.867c0-20.48,16.213-42.667,38.4-42.667c9.387,0,17.92,4.267,23.893,10.24
	c5.973-14.507,19.627-27.307,35.84-27.307c22.187,0,38.4,22.187,38.4,42.667v84.48c5.973-5.12,13.653-7.68,21.333-7.68
	c22.187,0,38.4,22.187,38.4,42.667v7.68c5.973-5.12,13.653-7.68,21.333-7.68c22.187,0,38.4,22.187,38.4,42.667V358.4
	c0,54.613,0,57.173-16.213,76.8c-2.56,3.413-5.973,6.827-9.387,11.947v57.173C397.108,508.587,393.694,512,388.574,512z"/>
<path d="M183.774,162.133c0-5.12-3.413-8.533-8.533-8.533c-5.12,0-8.533,3.413-8.533,8.533c0,5.12,3.413,8.533,8.533,8.533
	C180.361,170.667,183.774,167.253,183.774,162.133"/>
<path d="M388.574,512L388.574,512c-5.12,0-8.533-3.413-8.533-8.533v-58.88c0-1.707,0-4.267,1.707-5.973
	c5.12-5.973,8.533-11.093,11.947-14.507c11.947-15.36,11.947-15.36,11.947-65.707V238.933c0-11.947-9.387-25.6-21.333-25.6
	c-11.093,0-20.48,12.8-21.333,23.893v35.84c0,5.12-3.413,8.533-8.533,8.533l0,0c-5.12,0-8.533-3.413-8.533-8.533v-34.133
	c0-0.853,0-0.853,0-1.707v-40.96c0-11.947-9.387-25.6-21.333-25.6c-11.947,0-21.333,13.653-21.333,25.6V256
	c0,5.12-3.413,8.533-8.533,8.533c-5.12,0-8.533-3.413-8.533-8.533V76.8c0-5.973-2.56-12.8-6.827-17.92
	c-2.56-2.56-7.68-7.68-14.507-7.68c-11.947,0-21.333,13.653-21.333,25.6v170.667c0,5.12-3.413,8.533-8.533,8.533
	c-5.12,0-8.533-3.413-8.533-8.533v-153.6c0-11.947-9.387-25.6-21.333-25.6c-11.947,0-21.333,13.653-21.333,25.6
	c0,5.12-3.413,8.533-8.533,8.533c-5.12,0-8.533-3.413-8.533-8.533c0-20.48,16.213-42.667,38.4-42.667
	c9.387,0,17.92,4.267,23.893,10.24c5.973-14.507,19.627-27.307,35.84-27.307c10.24,0,20.48,5.12,27.307,13.653
	S303.241,66.56,303.241,76.8v84.48c5.973-5.12,13.653-7.68,21.333-7.68c22.187,0,38.4,22.187,38.4,42.667v7.68
	c5.973-5.12,13.653-7.68,21.333-7.68c22.187,0,38.4,22.187,38.4,42.667V358.4c0,54.613,0,57.173-16.213,76.8
	c-2.56,3.413-5.973,6.827-9.387,11.947v57.173C397.108,508.587,393.694,512,388.574,512z"/>
<path d="M183.774,512c-5.12,0-8.533-3.413-8.533-8.533v-53.76c-14.507-5.973-48.64-26.453-59.733-90.453l-1.707-8.533
	c-5.12-30.72-13.653-82.773-31.573-107.52c-19.627-27.307-5.12-42.667-0.853-46.933c15.36-12.8,42.667-11.947,56.32,1.707
	c23.893,23.893,46.08,73.387,46.08,100.693c0,5.12-3.413,8.533-8.533,8.533c-5.12,0-8.533-3.413-8.533-8.533
	c0-21.333-18.773-66.56-40.107-87.893c-7.68-7.68-24.747-7.68-33.28-0.853c-7.68,5.973-2.56,16.213,3.413,23.893
	c19.627,27.307,28.16,79.36,34.133,114.347l1.707,8.533c11.947,68.267,51.2,77.653,52.907,78.507
	c4.267,0.853,6.827,4.267,6.827,8.533v59.733C192.308,508.587,188.894,512,183.774,512z"/>
<path d="M321.161,102.4c-0.853,0-2.56,0-3.413-0.853c-4.267-1.707-5.973-6.827-4.267-11.093c3.413-6.827,5.12-14.507,5.12-22.187
	c0-28.16-23.04-51.2-51.2-51.2c-14.507,0-28.16,5.973-37.547,16.213c-0.853,2.56-3.413,5.12-6.827,5.12c-1.707,0-3.413,0-5.12-0.853
	c-6.827-2.56-12.8-3.413-18.773-3.413c-28.16,0-51.2,23.04-51.2,51.2c0,2.56,0,5.12,0.853,6.827c0,5.12-3.413,9.387-7.68,10.24
	c-4.267,0.853-9.387-2.56-9.387-7.68c-0.853-3.413-0.853-5.973-0.853-9.387c0-37.547,30.72-68.267,68.267-68.267
	c6.827,0,13.653,0.853,19.627,2.56C231.561,6.827,248.628,0,267.401,0c37.547,0,68.267,30.72,68.267,68.267
	c0,10.24-2.56,20.48-6.827,29.867C327.134,100.693,323.721,102.4,321.161,102.4z"/>
<path d="M294.708,435.2h-25.6c-5.12,0-8.533-3.413-8.533-8.533s3.413-8.533,8.533-8.533h25.6c5.12,0,8.533,3.413,8.533,8.533
	S299.828,435.2,294.708,435.2z"/>
<path d="M303.241,469.333h-42.667c-5.12,0-8.533-3.413-8.533-8.533s3.413-8.533,8.533-8.533h42.667c5.12,0,8.533,3.413,8.533,8.533
	S308.361,469.333,303.241,469.333z"/>
<g>
</g>
<g>
</g>
<g>
</g>
<g>
</g>
<g>
</g>
<g>
</g>
<g>
</g>
<g>
</g>
<g>
</g>
<g>
</g>
<g>
</g>
<g>
</g>
<g>
</g>
<g>
</g>
<g>
</g>
</svg>
