<?xml version="1.0" encoding="iso-8859-1"?>
<!-- Generator: Adobe Illustrator 19.0.0, SVG Export Plug-In . SVG Version: 6.00 Build 0)  -->
<svg version="1.1" id="Layer_1" xmlns="http://www.w3.org/2000/svg" xmlns:xlink="http://www.w3.org/1999/xlink" x="0px" y="0px"
	 viewBox="0 0 503.713 503.713" style="enable-background:new 0 0 503.713 503.713;" xml:space="preserve">
<g>
	<g>
		<g>
			<path d="M187.655,302.87l-10.433-28.672c-9.545-26.259-32.492-44.139-59.662-47.21V58.754c0-4.636-3.758-8.393-8.393-8.393
				c-9.272,0-16.787-7.515-16.787-16.787c0-9.272,7.515-16.787,16.787-16.787s16.787,7.514,16.787,16.787
				c0,27.954,6.291,50.361,25.18,50.361c4.636,0,8.393-3.758,8.393-8.393c0-4.636-3.758-8.393-8.393-8.393
				c-3.938,0-8.393-15.869-8.393-33.574C142.739,15.03,127.709,0,109.166,0S75.592,15.03,75.592,33.574
				c0,15.645,10.699,28.79,25.18,32.516v160.898c-27.173,3.073-50.118,20.951-59.656,47.205l-10.414,28.599
				c-3.893,10.726-7.782,19.326-17.418,39.314l-2.52,5.232C1.411,366.829-1.907,388.573,1.162,410.2
				c6.858,48.253,46.89,87.162,95.356,92.689c4.17,0.477,8.424,0.717,12.652,0.717c29.132,0,56.564-11.363,77.155-31.963
				c20.594-20.594,31.96-48.028,31.96-77.152c0-17.159-4.109-34.271-11.896-49.527C198.253,329.024,192.305,315.652,187.655,302.87z
				 M174.453,459.775c-17.443,17.451-40.604,27.045-65.283,27.045c-3.593,0-7.21-0.204-10.746-0.609
				c-40.88-4.662-74.859-37.688-80.641-78.371c-2.604-18.352,0.203-36.747,8.112-53.228l2.513-5.219
				c9.883-20.502,13.922-29.432,18.071-40.865l10.413-28.596c8.097-22.29,28.565-36.63,52.277-36.63
				c23.706,0,44.173,14.343,52.276,36.634l10.434,28.675c4.903,13.476,11.126,27.467,19.557,43.987
				c6.58,12.891,10.061,27.388,10.061,41.895C201.498,419.163,191.901,442.327,174.453,459.775z"/>
			<path d="M156.098,314.343l-10.433-28.679c-12.387-34.099-60.604-34.099-73.003,0.001l-10.407,28.603
				c-4.287,11.789-8.623,21.425-18.276,41.47c-0.247,0.512-0.247,0.512-0.493,1.024c-1.232,2.558-1.775,3.686-2.465,5.125
				c-6.408,13.353-8.775,28.357-6.618,43.593c4.759,33.481,32.3,60.221,65.923,64.045c45.251,5.162,84.379-29.991,84.379-75.034
				c0-12.054-2.84-23.72-8.209-34.254C168.014,343.639,161.376,328.843,156.098,314.343z M102.226,452.847
				c-26.036-2.961-47.521-23.821-51.202-49.724c-1.689-11.931,0.15-23.592,5.133-33.973c0.686-1.43,1.224-2.549,2.454-5.103
				c0.247-0.512,0.247-0.512,0.494-1.025c9.892-20.54,14.389-30.534,18.927-43.015l10.407-28.603
				c7.042-19.367,34.416-19.367,41.45-0.004l10.434,28.684c5.539,15.217,12.451,30.623,21.221,47.786
				c4.17,8.181,6.375,17.238,6.375,26.624C167.919,429.536,137.494,456.87,102.226,452.847z"/>
			<path d="M491.765,345.072c-8.16-15.989-14.105-29.351-18.732-42.091l-10.435-28.677c-9.545-26.259-32.492-44.139-59.662-47.21
				V58.754c0-4.636-3.758-8.393-8.393-8.393c-9.272,0-16.787-7.515-16.787-16.787c0-9.272,7.515-16.787,16.787-16.787
				c9.272,0,16.787,7.514,16.787,16.787c0,27.954,6.29,50.361,25.18,50.361c4.636,0,8.393-3.758,8.393-8.393
				c0-4.636-3.758-8.393-8.393-8.393c-3.938,0-8.393-15.869-8.393-33.574C428.116,15.03,413.086,0,394.543,0
				s-33.574,15.03-33.574,33.574c0,15.645,10.699,28.79,25.18,32.516v161.004c-27.173,3.073-50.118,20.951-59.656,47.205
				l-10.414,28.599c-3.893,10.726-7.782,19.326-17.418,39.314l-2.52,5.232c-9.354,19.491-12.672,41.234-9.603,62.861
				c6.858,48.253,46.89,87.162,95.356,92.689c4.17,0.477,8.424,0.717,12.652,0.717c29.132,0,56.564-11.363,77.155-31.963
				c20.594-20.594,31.96-48.028,31.96-77.152C503.662,377.439,499.552,360.327,491.765,345.072z M459.83,459.882
				c-17.443,17.451-40.604,27.045-65.283,27.045c-3.593,0-7.21-0.204-10.746-0.609c-40.88-4.663-74.859-37.688-80.641-78.371
				c-2.604-18.352,0.203-36.747,8.112-53.228l2.513-5.219c9.883-20.502,13.922-29.432,18.071-40.865l10.413-28.596
				c8.097-22.29,28.565-36.63,52.277-36.63c23.706,0,44.173,14.342,52.276,36.634l10.434,28.675
				c4.879,13.435,11.101,27.417,19.557,43.987c6.58,12.891,10.061,27.388,10.061,41.895
				C486.875,419.27,477.278,442.434,459.83,459.882z"/>
			<path d="M441.475,314.449l-10.433-28.679c-12.387-34.099-60.604-34.099-73.003,0.001l-10.407,28.603
				c-4.287,11.789-8.623,21.425-18.276,41.47c-0.247,0.512-0.247,0.512-0.493,1.024c-1.232,2.558-1.775,3.686-2.465,5.125
				c-6.408,13.353-8.775,28.357-6.618,43.593c4.759,33.481,32.3,60.221,65.923,64.045c45.251,5.162,84.379-29.991,84.379-75.034
				c0-12.054-2.84-23.72-8.209-34.254C453.392,343.746,446.753,328.949,441.475,314.449z M387.603,452.953
				c-26.036-2.961-47.521-23.821-51.202-49.724c-1.689-11.931,0.15-23.592,5.133-33.973c0.686-1.43,1.224-2.549,2.454-5.103
				c0.247-0.512,0.247-0.512,0.494-1.025c9.892-20.54,14.389-30.534,18.927-43.015l10.407-28.603
				c7.042-19.367,34.416-19.367,41.45-0.004l10.434,28.684c5.539,15.217,12.451,30.623,21.221,47.786
				c4.17,8.181,6.375,17.238,6.375,26.624C453.296,429.643,422.871,456.976,387.603,452.953z"/>
		</g>
	</g>
</g>
<g>
</g>
<g>
</g>
<g>
</g>
<g>
</g>
<g>
</g>
<g>
</g>
<g>
</g>
<g>
</g>
<g>
</g>
<g>
</g>
<g>
</g>
<g>
</g>
<g>
</g>
<g>
</g>
<g>
</g>
</svg>
