<?xml version="1.0" encoding="iso-8859-1"?>
<!-- Generator: Adobe Illustrator 19.0.0, SVG Export Plug-In . SVG Version: 6.00 Build 0)  -->
<svg version="1.1" id="Layer_1" xmlns="http://www.w3.org/2000/svg" xmlns:xlink="http://www.w3.org/1999/xlink" x="0px" y="0px"
	 viewBox="0 0 503.726 503.726" style="enable-background:new 0 0 503.726 503.726;" xml:space="preserve">
<g>
	<g>
		<g>
			<path d="M486.795,259.069c-6.062-30.375-15.635-51.572-28.066-65.246c-13.068-14.375-27.269-18.833-39.056-17.57
				c-0.037,0.004-10.852,0.009-28.574,0.014C376.284,97.869,327.056,33.633,250.814,33.633
				c-76.258,0-125.491,64.263-140.295,142.685c-16.149,0.002-25.888,0.004-25.888,0.004c-12.365-1.332-26.566,3.127-39.634,17.501
				c-12.431,13.674-22.004,34.871-27.987,64.787L0.144,376.578L0,377.586l0.101,1.014c0.374,3.743,2.089,9.457,6.033,16.418
				c6.229,10.992,16.386,21.798,31.237,31.698c40.911,27.274,110.154,43.377,214.492,43.377s173.581-16.103,214.492-43.377
				c14.851-9.901,25.008-20.706,31.237-31.698c3.944-6.961,5.659-12.675,6.033-16.418l0.101-1.014L486.795,259.069z M250.814,50.42
				c65.209,0,108.989,55.896,123.182,125.851c-5.479,0.001-11.335,0.003-17.506,0.004c-3.785-15.858-9.319-32.061-17.039-47.314
				c-20.524-40.581-50.59-61.754-88.637-61.754c-38.047,0-68.113,21.173-88.638,61.756c-7.725,15.264-13.262,31.48-17.048,47.35
				c-6.195,0.001-12.052,0.002-17.506,0.003C141.806,106.34,185.591,50.42,250.814,50.42z M339.191,176.279
				c-53.619,0.011-123.705,0.023-176.762,0.031c3.46-13.437,8.285-27.041,14.726-39.769c17.831-35.255,42.386-52.548,73.659-52.548
				s55.828,17.292,73.658,52.546C330.909,149.259,335.731,162.852,339.191,176.279z M482.987,386.741
				c-4.919,8.68-13.253,17.547-25.944,26.007c-37.778,25.185-103.879,40.558-205.18,40.558S84.46,437.933,46.683,412.748
				c-12.69-8.46-21.025-17.327-25.944-26.007c-2.332-4.115-3.433-7.236-3.804-9.004l16.613-116.294
				c5.348-26.674,13.677-45.117,23.869-56.328c9.191-10.11,18.069-12.897,24.847-12.171c0.15,0.016,1.73,0.164,1.73,0.164h23.723
				h50.946h184.301h50.946h25.821l1.646-0.163c6.861-0.728,15.739,2.06,24.93,12.17c10.192,11.211,18.521,29.653,23.947,56.787
				l16.535,115.835C486.42,379.505,485.319,382.626,482.987,386.741z"/>
			<path d="M360.978,268.65H142.748c-4.636,0-8.393,3.758-8.393,8.393c0,4.636,3.758,8.393,8.393,8.393h20.071
				c-2.111,4.995-3.284,10.753-3.284,16.787c0,17.993,10.39,33.574,25.18,33.574c14.791,0,25.18-15.581,25.18-33.574
				c0-6.034-1.173-11.792-3.284-16.787h104.005v34.415c-19.155,3.889-33.574,20.824-33.574,41.126
				c0,23.177,18.791,41.967,41.967,41.967s41.967-18.791,41.967-41.967c0-20.302-14.419-37.237-33.574-41.126v-34.415h33.574
				c4.636,0,8.393-3.758,8.393-8.393C369.371,272.408,365.613,268.65,360.978,268.65z M344.191,360.978
				c0,13.906-11.275,25.18-25.18,25.18s-25.18-11.275-25.18-25.18c0-13.906,11.275-25.18,25.18-25.18
				S344.191,347.072,344.191,360.978z M193.109,302.224c0,9.817-4.648,16.787-8.393,16.787c-3.746,0-8.393-6.97-8.393-16.787
				s4.648-16.787,8.393-16.787C188.461,285.437,193.109,292.407,193.109,302.224z"/>
			<path d="M302.224,360.978c0,4.636,3.758,8.393,8.393,8.393h16.787c4.636,0,8.393-3.758,8.393-8.393s-3.758-8.393-8.393-8.393
				h-16.787C305.982,352.584,302.224,356.342,302.224,360.978z"/>
		</g>
	</g>
</g>
<g>
</g>
<g>
</g>
<g>
</g>
<g>
</g>
<g>
</g>
<g>
</g>
<g>
</g>
<g>
</g>
<g>
</g>
<g>
</g>
<g>
</g>
<g>
</g>
<g>
</g>
<g>
</g>
<g>
</g>
</svg>
