<?xml version="1.0" encoding="iso-8859-1"?>
<!-- Generator: Adobe Illustrator 19.0.0, SVG Export Plug-In . SVG Version: 6.00 Build 0)  -->
<svg version="1.1" id="Layer_1" xmlns="http://www.w3.org/2000/svg" xmlns:xlink="http://www.w3.org/1999/xlink" x="0px" y="0px"
	 viewBox="0 0 503.607 503.607" style="enable-background:new 0 0 503.607 503.607;" xml:space="preserve">
<g>
	<g>
		<g>
			<path d="M481.63,297.175c-7.535-10.146-11.597-22.266-11.597-34.712v-65.217c0-18.544-15.03-33.574-33.574-33.574H335.737
				v-50.361c0-46.183-37.751-83.934-83.934-83.934s-83.934,37.751-83.934,83.934v50.361H67.148
				c-18.544,0-33.574,15.03-33.574,33.574v65.217c0,12.446-4.062,24.566-11.598,34.713C8.343,315.524,0,343.207,0,381.902
				c0,0.714,0.013,2.003,0.051,3.786c0.063,2.946,0.177,6.222,0.353,9.748c0.505,10.092,1.414,20.193,2.836,29.678
				c4.587,30.579,12.928,49.116,30.333,49.116h436.459c17.405,0,25.746-18.536,30.333-49.116c1.423-9.485,2.332-19.586,2.836-29.678
				c0.176-3.526,0.29-6.802,0.353-9.748c0.038-1.783,0.051-3.073,0.051-3.786C503.607,343.207,495.264,315.524,481.63,297.175z
				 M184.655,113.311c0-36.912,30.236-67.148,67.148-67.148c36.912,0,67.148,30.236,67.148,67.148v50.361H184.655V113.311z
				 M486.772,385.328c-0.06,2.792-0.168,5.909-0.336,9.269c-0.479,9.58-1.34,19.151-2.672,28.026
				c-3.282,21.88-9.105,34.819-13.732,34.819H33.574c-4.628,0-10.45-12.939-13.732-34.819c-1.331-8.875-2.193-18.446-2.672-28.026
				c-0.168-3.36-0.276-6.477-0.336-9.269c-0.036-1.659-0.047-2.829-0.047-3.427c0-35.232,7.282-59.397,18.664-74.715
				c9.673-13.024,14.909-28.649,14.909-44.724v-65.217c0-9.272,7.515-16.787,16.787-16.787h100.72v26.247
				c-14.449,3.745-25.18,16.918-25.18,32.507v33.574c0,18.485,15.089,33.574,33.574,33.574s33.574-15.089,33.574-33.574v-33.574
				c0-15.589-10.731-28.761-25.18-32.507v-26.247H318.95v26.247c-14.449,3.745-25.18,16.918-25.18,32.507v33.574
				c0,18.485,15.089,33.574,33.574,33.574s33.574-15.089,33.574-33.574v-33.574c0-15.589-10.731-28.761-25.18-32.507v-26.247
				h100.722c9.272,0,16.787,7.514,16.787,16.787v65.217c0,16.074,5.236,31.699,14.908,44.722
				c11.383,15.32,18.665,39.485,18.665,74.716C486.82,382.499,486.808,383.669,486.772,385.328z M176.261,264.393
				c4.636,0,8.393-3.758,8.393-8.393v-31.282c4.998,2.92,8.393,8.334,8.393,14.495v33.574c0,9.214-7.573,16.787-16.787,16.787
				c-9.214,0-16.787-7.573-16.787-16.787v-33.574c0-6.161,3.395-11.574,8.393-14.495V256
				C167.868,260.636,171.626,264.393,176.261,264.393z M327.343,264.393c4.636,0,8.393-3.758,8.393-8.393v-31.282
				c4.998,2.92,8.393,8.334,8.393,14.495v33.574c0,9.214-7.573,16.787-16.787,16.787s-16.787-7.573-16.787-16.787v-33.574
				c0-6.161,3.395-11.574,8.393-14.495V256C318.95,260.636,322.708,264.393,327.343,264.393z"/>
			<path d="M335.737,356.721H167.868c-4.636,0-8.393,3.758-8.393,8.393s3.758,8.393,8.393,8.393h20.071
				c-2.111,4.995-3.284,10.753-3.284,16.787c0,17.993,10.39,33.574,25.18,33.574s25.18-15.581,25.18-33.574
				c0-6.034-1.173-11.792-3.284-16.787h104.005c4.636,0,8.393-3.758,8.393-8.393S340.372,356.721,335.737,356.721z M218.229,390.295
				c0,9.817-4.648,16.787-8.393,16.787c-3.746,0-8.393-6.97-8.393-16.787c0-9.817,4.648-16.787,8.393-16.787
				C213.581,373.508,218.229,380.478,218.229,390.295z"/>
		</g>
	</g>
</g>
<g>
</g>
<g>
</g>
<g>
</g>
<g>
</g>
<g>
</g>
<g>
</g>
<g>
</g>
<g>
</g>
<g>
</g>
<g>
</g>
<g>
</g>
<g>
</g>
<g>
</g>
<g>
</g>
<g>
</g>
</svg>
