<?xml version="1.0" encoding="iso-8859-1"?>
<!-- Generator: Adobe Illustrator 19.0.0, SVG Export Plug-In . SVG Version: 6.00 Build 0)  -->
<svg version="1.1" id="Layer_1" xmlns="http://www.w3.org/2000/svg" xmlns:xlink="http://www.w3.org/1999/xlink" x="0px" y="0px"
	 viewBox="0 0 512 512" style="enable-background:new 0 0 512 512;" xml:space="preserve">
<circle style="fill:#D4E4AC;" cx="256.003" cy="151.782" r="79.886"/>
<path style="fill:#FFFFFF;" d="M256.001,47.931c-57.355,0-103.852,46.496-103.852,103.852s46.496,103.852,103.852,103.852
	s103.852-46.496,103.852-103.852S313.356,47.931,256.001,47.931z M256.001,231.67c-44.119,0-79.886-35.767-79.886-79.886
	c0-44.12,35.767-79.886,79.886-79.886s79.886,35.766,79.886,79.886C335.887,195.903,300.12,231.67,256.001,231.67z"/>
<path style="fill:#E2804F;" d="M256.001,7.989c-79.416,0-143.795,64.379-143.795,143.795s143.795,343.51,143.795,343.51
	s143.795-264.094,143.795-343.51C399.796,72.367,335.416,7.989,256.001,7.989z M256.001,255.636
	c-57.355,0-103.852-46.496-103.852-103.852S198.645,47.931,256.001,47.931s103.852,46.496,103.852,103.852
	S313.356,255.636,256.001,255.636z"/>
<polygon style="fill:#F2BF7E;" points="208.069,399.456 303.932,399.456 256.001,495.319 "/>
<path d="M256.001,263.623c-61.67,0-111.84-50.171-111.84-111.84s50.17-111.841,111.84-111.841s111.84,50.171,111.84,111.84
	S317.67,263.623,256.001,263.623z M256.001,55.92c-52.86,0-95.863,43.005-95.863,95.863s43.005,95.863,95.863,95.863
	s95.863-43.005,95.863-95.863S308.86,55.92,256.001,55.92z"/>
<path d="M256.001,239.657c-48.454,0-87.874-39.42-87.874-87.874s39.42-87.874,87.874-87.874c48.455,0,87.875,39.42,87.875,87.874
	S304.456,239.657,256.001,239.657z M256.001,79.886c-39.644,0-71.897,32.253-71.897,71.897s32.253,71.897,71.897,71.897
	c39.645,0,71.898-32.253,71.898-71.897S295.646,79.886,256.001,79.886z"/>
<g>
	<rect x="224.309" y="279.579" style="fill:#FFFFFF;" width="15.773" height="15.773"/>
	<rect x="247.443" y="279.579" style="fill:#FFFFFF;" width="16.825" height="15.773"/>
	<rect x="271.629" y="279.579" style="fill:#FFFFFF;" width="15.773" height="15.773"/>
</g>
<path d="M256.001,0c-83.694,0-151.784,68.09-151.784,151.783c0,80.523,138.857,336.474,144.767,347.331L256,512l7.016-12.886
	c5.911-10.856,144.767-266.807,144.767-347.331C407.783,68.09,339.694,0,256.001,0z M256.001,15.976
	c74.884,0,135.806,60.923,135.806,135.806c0,45.569-50.189,156.483-91.066,239.26h-89.482
	c-40.877-82.776-91.065-193.685-91.065-239.26C120.194,76.9,181.117,15.976,256.001,15.976z M256.001,478.38
	c-7.782-14.643-21.311-40.433-36.897-71.563h73.793C277.311,437.947,263.782,463.736,256.001,478.38z"/>
<path d="M249.651,199.192V187.81c-8.028-0.359-15.821-2.512-20.37-5.148l3.596-14.019c5.032,2.754,12.1,5.266,19.886,5.266
	c6.834,0,11.507-2.629,11.507-7.427c0-4.556-3.838-7.427-12.701-10.423c-12.826-4.315-21.571-10.305-21.571-21.929
	c0-10.54,7.427-18.809,20.252-21.329v-11.382h11.741v10.547c8.028,0.359,13.418,2.036,17.374,3.948l-3.471,13.543
	c-3.121-1.319-8.628-4.073-17.256-4.073c-7.793,0-10.305,3.354-10.305,6.709c0,3.955,4.189,6.467,14.378,10.305
	c14.261,5.032,20.01,11.624,20.01,22.406c0,10.665-7.551,19.768-21.329,22.171v12.217h-11.742V199.192z"/>
<g>
</g>
<g>
</g>
<g>
</g>
<g>
</g>
<g>
</g>
<g>
</g>
<g>
</g>
<g>
</g>
<g>
</g>
<g>
</g>
<g>
</g>
<g>
</g>
<g>
</g>
<g>
</g>
<g>
</g>
</svg>
