<?xml version="1.0" encoding="iso-8859-1"?>
<!-- Generator: Adobe Illustrator 19.0.0, SVG Export Plug-In . SVG Version: 6.00 Build 0)  -->
<svg version="1.1" id="Layer_1" xmlns="http://www.w3.org/2000/svg" xmlns:xlink="http://www.w3.org/1999/xlink" x="0px" y="0px"
	 viewBox="0 0 512 512" style="enable-background:new 0 0 512 512;" xml:space="preserve">
<polygon style="fill:#E2804F;" points="503.896,231.698 255.999,231.698 255.999,143.732 232.009,119.744 255.999,87.758 
	255.999,7.792 503.896,7.792 "/>
<circle style="fill:#F2BF7E;" cx="383.948" cy="119.747" r="79.967"/>
<rect x="96.07" y="63.77" style="fill:#D4E4AC;" width="79.967" height="167.933"/>
<polygon points="271.788,511.581 256.204,511.581 256.204,271.478 15.896,271.478 15.896,511.581 0.312,511.581 0.312,255.894 
	271.788,255.894 "/>
<polygon points="71.298,512 55.714,512 55.714,352.004 40.13,352.004 40.13,336.42 71.298,336.42 "/>
<polygon points="215.71,512 200.126,512 200.126,336.42 231.294,336.42 231.294,352.004 215.71,352.004 "/>
<polyline style="fill:#F2BF7E;" points="8.103,511.581 8.103,263.684 263.996,263.684 263.996,511.581 "/>
<g>
	<rect x="40.089" y="343.648" style="fill:#E2804F;" width="23.989" height="167.933"/>
	<rect x="207.922" y="343.648" style="fill:#E2804F;" width="23.989" height="167.933"/>
</g>
<polygon points="271.788,511.581 256.204,511.581 256.204,271.478 15.896,271.478 15.896,511.581 0.312,511.581 0.312,255.894 
	271.788,255.894 "/>
<polygon points="71.298,512 55.714,512 55.714,352.004 40.13,352.004 40.13,336.42 71.298,336.42 "/>
<polygon points="215.71,512 200.126,512 200.126,336.42 231.294,336.42 231.294,352.004 215.71,352.004 "/>
<path d="M183.825,239.491H88.274V55.977h95.551V239.491z M103.859,223.907h64.383V71.561h-64.383
	C103.859,71.561,103.859,223.907,103.859,223.907z"/>
<path d="M511.688,239.491H248.207V146.96l-26.488-26.483l26.488-35.315V0h263.48v239.491H511.688z M263.791,223.907h232.312V15.584
	H263.791v74.772l-21.493,28.658l21.493,21.49V223.907z"/>
<path d="M383.946,207.504c-48.39,0-87.759-39.368-87.759-87.759s39.368-87.76,87.759-87.76s87.759,39.369,87.759,87.76
	S432.337,207.504,383.946,207.504z M383.946,47.57c-39.797,0-72.175,32.377-72.175,72.176c0,39.797,32.377,72.175,72.175,72.175
	s72.175-32.377,72.175-72.175C456.121,79.947,423.744,47.57,383.946,47.57z"/>
<circle style="fill:#FFFFFF;" cx="383.948" cy="119.747" r="55.977"/>
<path d="M383.946,183.514c-35.162,0-63.769-28.606-63.769-63.769s28.607-63.769,63.769-63.769s63.769,28.606,63.769,63.769
	S419.109,183.514,383.946,183.514z M383.946,71.561c-26.569,0-48.185,21.616-48.185,48.185s21.616,48.185,48.185,48.185
	c26.569,0,48.185-21.616,48.185-48.185S410.516,71.561,383.946,71.561z"/>
<path d="M379.708,152.352v-7.59c-5.354-0.242-10.546-1.679-13.584-3.436l2.398-9.347c3.358,1.835,8.07,3.514,13.268,3.514
	c4.553,0,7.673-1.757,7.673-4.959c0-3.03-2.558-4.952-8.473-6.95c-8.551-2.874-14.385-6.873-14.385-14.627
	c0-7.036,4.955-12.549,13.506-14.228v-7.59h7.833v7.036c5.354,0.235,8.949,1.359,11.589,2.64l-2.319,9.027
	c-2.077-0.882-5.756-2.718-11.507-2.718c-5.197,0-6.876,2.241-6.876,4.475c0,2.64,2.8,4.319,9.594,6.873
	c9.507,3.358,13.346,7.755,13.346,14.947c0,7.115-5.037,13.19-14.228,14.783v8.153L379.708,152.352L379.708,152.352z"/>
<g>
</g>
<g>
</g>
<g>
</g>
<g>
</g>
<g>
</g>
<g>
</g>
<g>
</g>
<g>
</g>
<g>
</g>
<g>
</g>
<g>
</g>
<g>
</g>
<g>
</g>
<g>
</g>
<g>
</g>
</svg>
