<?xml version="1.0" encoding="iso-8859-1"?>
<!-- Generator: Adobe Illustrator 19.0.0, SVG Export Plug-In . SVG Version: 6.00 Build 0)  -->
<svg version="1.1" id="Layer_1" xmlns="http://www.w3.org/2000/svg" xmlns:xlink="http://www.w3.org/1999/xlink" x="0px" y="0px"
	 viewBox="0 0 348.738 348.738" style="enable-background:new 0 0 348.738 348.738;" xml:space="preserve">
<g>
	<g>
		<g>
			<g id="XMLID_27_">
				<g>
					<polygon style="fill:#EAEEEF;" points="163.561,98.714 173.663,176.806 80.241,176.806 80.241,98.714 					"/>
					<path style="fill:#F2CE75;" d="M331.965,193.483v89.83c-5.997-15.041-20.718-25.721-37.94-25.721
						c-18.729,0-34.508,12.636-39.319,29.762h-80.658c0.032-0.545,0.096-1.058,0.096-1.604c0-30.179-24.662-54.713-54.937-54.713
						S64.27,255.572,64.27,285.751c0,0.545,0.064,1.058,0.096,1.604H51.955v-93.871h280.01V193.483z"/>
					<path style="fill:#2D213F;" d="M294.025,322.215c13.277,0,24.053-10.744,24.053-23.957s-10.776-23.957-24.053-23.957
						s-24.085,10.744-24.085,23.957C269.94,311.472,280.748,322.215,294.025,322.215z M179.276,89.285l11.289,87.521h13.534
						l-15.49-107.982H80.241v13.181h90.696C175.171,82.005,178.731,85.116,179.276,89.285z M257.753,176.806h8.916v-22.642h-8.916
						V176.806z M119.207,323.723c21.038,0,38.164-17.03,38.164-37.972c0-20.974-17.126-38.004-38.164-38.004
						s-38.164,17.03-38.164,38.004C81.043,306.693,98.169,323.723,119.207,323.723z M119.207,231.038
						c30.275,0,54.937,24.534,54.937,54.713c0,0.545-0.064,1.058-0.096,1.604h80.658c4.811-17.126,20.589-29.762,39.319-29.762
						c17.222,0,31.943,10.68,37.94,25.721v-89.83H51.955v93.871h12.411c-0.032-0.545-0.096-1.058-0.096-1.604
						C64.27,255.572,88.932,231.038,119.207,231.038z M43.68,35.631c4.618,0,8.403,3.72,8.403,8.338v132.837h11.385V25.015H16.773
						V35.63C16.773,35.631,43.68,35.631,43.68,35.631z M348.738,185.145v110.58c0,4.586-3.752,8.338-8.37,8.338h-5.965
						c-2.854,19.691-19.852,34.861-40.377,34.861c-20.557,0-37.555-15.169-40.377-34.861h-82.743
						c-7.601,21.167-27.87,36.368-51.698,36.368S75.11,325.23,67.509,304.063H43.584c-4.65,0-8.403-3.752-8.403-8.338v-110.58
						c0-0.353,0.064-0.673,0.096-0.994V52.307H8.403c-4.65,0-8.403-3.72-8.403-8.338V16.645c0-4.618,3.752-8.338,8.403-8.338h63.436
						c4.65,0,8.403,3.72,8.403,8.338v0.096c0,0.16,0,0.289,0,0.449v34.957h115.647c4.169,0,7.697,3.047,8.306,7.152l16.869,117.507
						h19.884v-31.012c0-4.618,3.784-8.338,8.403-8.338h25.689c4.65,0,8.403,3.72,8.403,8.338v31.012h4.554V99.003
						c0-4.586,3.752-8.338,8.403-8.338h25.689c4.618,0,8.37,3.752,8.37,8.338v77.804h9.91
						C344.986,176.806,348.738,180.527,348.738,185.145z M313.684,176.806v-69.433h-8.916v69.433
						C304.769,176.806,313.684,176.806,313.684,176.806z M173.663,176.806l-10.102-78.092h-83.32v78.092H173.663z"/>
					<rect x="304.769" y="107.373" style="fill:#505967;" width="8.916" height="69.433"/>
					<path style="fill:#505967;" d="M294.025,312.049c7.633,0,13.823-6.19,13.823-13.79c0-7.601-6.19-13.79-13.823-13.79
						c-7.665,0-13.855,6.19-13.855,13.79C280.171,305.859,286.36,312.049,294.025,312.049z M294.025,322.215
						c-13.277,0-24.085-10.744-24.085-23.957s10.808-23.957,24.085-23.957s24.053,10.744,24.053,23.957
						C318.078,311.472,307.302,322.215,294.025,322.215z"/>
					<path style="fill:#2D213F;" d="M294.025,284.468c7.633,0,13.823,6.19,13.823,13.79c0,7.601-6.19,13.79-13.823,13.79
						c-7.665,0-13.855-6.19-13.855-13.79C280.171,290.658,286.36,284.468,294.025,284.468z"/>
					<rect x="257.753" y="154.164" style="fill:#505967;" width="8.916" height="22.642"/>
					<path style="fill:#505967;" d="M188.608,68.824l15.49,107.982h-13.534l-11.289-87.521c-0.545-4.169-4.105-7.28-8.338-7.28
						H80.241V68.824H188.608z"/>
					<path style="fill:#2D213F;" d="M119.207,315.16c-16.292,0-29.537-13.213-29.537-29.409c0-16.228,13.245-29.441,29.537-29.441
						s29.537,13.213,29.537,29.441C148.744,301.947,135.499,315.16,119.207,315.16z M131.971,285.751
						c0-7.024-5.741-12.732-12.764-12.732c-7.056,0-12.764,5.709-12.764,12.732c0,6.991,5.709,12.7,12.764,12.7
						C126.231,298.451,131.971,292.742,131.971,285.751z"/>
					<path style="fill:#505967;" d="M89.67,285.751c0,16.196,13.245,29.409,29.537,29.409s29.537-13.213,29.537-29.409
						c0-16.228-13.245-29.441-29.537-29.441S89.67,269.523,89.67,285.751z M81.043,285.751c0-20.974,17.126-38.004,38.164-38.004
						s38.164,17.03,38.164,38.004c0,20.942-17.126,37.972-38.164,37.972S81.043,306.693,81.043,285.751z"/>
					<path style="fill:#505967;" d="M63.468,25.015v151.791H52.083V43.969c0-4.618-3.784-8.338-8.403-8.338H16.773V25.015H63.468z"
						/>
				</g>
			</g>
		</g>
		<g>
			<path style="fill:#FEDE94;" d="M51.955,245.047H82.63c9.727-8.678,22.527-14.009,36.577-14.009s26.85,5.33,36.577,14.009h176.181
				v-51.563H51.955V245.047z"/>
		</g>
		<path style="fill:#C5CBCF;" d="M80.241,98.714v4.153c5.818-0.09,34.515,2.54,54.309,4.432c11.51,1.1,21.061,9.345,23.851,20.567
			l12.161,48.937h3.104L163.56,98.714H80.241z"/>
	</g>
</g>
<g>
</g>
<g>
</g>
<g>
</g>
<g>
</g>
<g>
</g>
<g>
</g>
<g>
</g>
<g>
</g>
<g>
</g>
<g>
</g>
<g>
</g>
<g>
</g>
<g>
</g>
<g>
</g>
<g>
</g>
</svg>
