<?xml version="1.0" encoding="iso-8859-1"?>
<!-- Generator: Adobe Illustrator 19.0.0, SVG Export Plug-In . SVG Version: 6.00 Build 0)  -->
<svg version="1.1" id="Layer_1" xmlns="http://www.w3.org/2000/svg" xmlns:xlink="http://www.w3.org/1999/xlink" x="0px" y="0px"
	 viewBox="0 0 313.272 313.272" style="enable-background:new 0 0 313.272 313.272;" xml:space="preserve">
<g>
	<g>
		<g>
			<path d="M310.276,234.446h-12.224V72.774c0-15.696-10.66-28.464-23.764-28.464H38.984c-13.1,0-23.76,12.772-23.76,28.464v161.672
				H2.996c-1.656,0-2.996,1.344-2.996,3v10.696c0,11.48,11.684,20.82,26.044,20.82h261.184c14.364,0,26.044-9.344,26.044-20.82
				v-10.696C313.272,235.79,311.932,234.446,310.276,234.446z M21.216,72.774c0-12.388,7.972-22.468,17.768-22.468h235.304
				c9.796,0,17.768,10.08,17.768,22.468v161.672H21.216V72.774z M307.276,248.138c0,8.036-9.18,14.824-20.048,14.824H26.044
				c-10.868,0-20.052-6.788-20.052-14.824v-7.696h301.284V248.138z"/>
			<path d="M143.676,257.662h27.592c2.324,0,4.212-1.892,4.212-4.212v-3.108c0-2.32-1.888-4.212-4.212-4.212h-27.592
				c-2.324,0-4.212,1.892-4.212,4.212v3.108C139.464,255.77,141.352,257.662,143.676,257.662z M143.676,250.326l27.608,0.016v3.108
				c-0.004,0.008-0.008,0.016-0.016,0.016l-0.004,2.1v-2.1l-27.608-0.016L143.676,250.326z"/>
			<path d="M152.348,66.39h8.576c1.92,0,3.48-1.564,3.48-3.48c0-1.92-1.56-3.48-3.48-3.48h-8.576c-1.92,0-3.48,1.56-3.48,3.48
				C148.868,64.826,150.428,66.39,152.348,66.39z M152.348,62.43h8.576c0.26,0,0.484,0.22,0.484,0.484c0,0.26-0.224,0.48-0.484,0.48
				h-8.576c-0.26,0-0.484-0.22-0.484-0.48C151.864,62.646,152.088,62.43,152.348,62.43z"/>
			<path d="M93.54,217.882H38.756v-90.096c0-1.16-0.94-2.1-2.1-2.1c-1.16,0-2.1,0.936-2.1,2.1v92.196c0,1.16,0.94,2.1,2.1,2.1h56.88
				c1.16,0,2.1-0.936,2.1-2.1S94.696,217.882,93.54,217.882z"/>
			<path d="M276.612,137.37c-1.16,0-2.1,0.936-2.1,2.1v78.416H116.008c-1.16,0-2.1,0.936-2.1,2.1s0.936,2.1,2.1,2.1h160.604
				c1.16,0,2.1-0.936,2.1-2.1V139.47C278.708,138.306,277.772,137.37,276.612,137.37z"/>
			<path d="M53.868,76.838h220.644v26.368c0,1.16,0.936,2.1,2.1,2.1c1.16,0,2.1-0.936,2.1-2.1V74.738c-0.004-1.164-0.94-2.1-2.1-2.1
				H53.868c-1.16,0-2.1,0.936-2.1,2.1S52.708,76.838,53.868,76.838z"/>
			<path d="M46.304,104.378h4.68l-0.208,97.976c-0.004,0.628,0.288,1.176,0.728,1.564c0.084,1.088,0.96,1.948,2.068,1.948
				l191.912-0.084v4.22c0,0.748,0.4,1.44,1.048,1.816c0.328,0.184,0.684,0.28,1.048,0.28s0.72-0.096,1.048-0.28l12.552-7.248
				c0.648-0.376,1.048-1.068,1.048-1.816s-0.404-1.44-1.048-1.816l-12.552-7.248c-0.652-0.372-1.448-0.372-2.1,0
				c-0.648,0.376-1.048,1.072-1.048,1.816v6.08l-177.236,0.076l27.108-52.804L118.7,175.13c0.476,0.536,1.176,0.788,1.896,0.68
				c0.704-0.112,1.304-0.576,1.596-1.224L140,134.15l11.552,8.624c0.468,0.348,1.056,0.488,1.632,0.384
				c0.572-0.104,1.076-0.44,1.388-0.932l21.552-33.48l7.852,28.152c0.164,0.592,0.58,1.08,1.14,1.336
				c0.556,0.252,1.196,0.264,1.756,0.004l25.1-11.52l12.008,16.948c0.428,0.6,1.144,0.92,1.876,0.876
				c0.736-0.06,1.388-0.496,1.716-1.156l18.868-38.088c0.52-1.04,0.092-2.3-0.944-2.812c-1.044-0.512-2.3-0.088-2.812,0.944
				l-17.312,34.94l-10.984-15.496c-0.588-0.828-1.676-1.116-2.588-0.696l-24.444,11.22l-8.452-30.28
				c-0.224-0.792-0.892-1.384-1.704-1.508c-0.828-0.132-1.636,0.244-2.08,0.936l-22.86,35.516l-11.864-8.856
				c-0.512-0.376-1.172-0.512-1.788-0.348c-0.62,0.164-1.132,0.6-1.388,1.184l-17.556,39.856l-23.208-26.12
				c-0.456-0.52-1.132-0.784-1.832-0.688c-0.684,0.084-1.288,0.508-1.604,1.12l-28.632,55.772c-0.28,0.544-0.284,1.144-0.088,1.676
				l-9.332,0.004l0.204-97.292h5.62c0.752,0,1.44-0.4,1.816-1.048c0.372-0.648,0.372-1.448,0-2.1L55.36,88.67
				c-0.752-1.296-2.884-1.296-3.636,0l-7.244,12.552c-0.376,0.648-0.376,1.448,0,2.1C44.864,103.978,45.552,104.378,46.304,104.378z
				 M249.68,199.138l6.256,3.612l-6.256,3.616V199.138z M53.548,93.926l3.612,6.256h-7.224L53.548,93.926z"/>
		</g>
	</g>
</g>
<g>
</g>
<g>
</g>
<g>
</g>
<g>
</g>
<g>
</g>
<g>
</g>
<g>
</g>
<g>
</g>
<g>
</g>
<g>
</g>
<g>
</g>
<g>
</g>
<g>
</g>
<g>
</g>
<g>
</g>
</svg>
