<?xml version="1.0" encoding="iso-8859-1"?>
<!-- Generator: Adobe Illustrator 19.0.0, SVG Export Plug-In . SVG Version: 6.00 Build 0)  -->
<svg version="1.1" id="Layer_1" xmlns="http://www.w3.org/2000/svg" xmlns:xlink="http://www.w3.org/1999/xlink" x="0px" y="0px"
	 viewBox="0 0 305.404 305.404" style="enable-background:new 0 0 305.404 305.404;" xml:space="preserve">
<g>
	<g>
		<g>
			<path d="M278.258,125.64c-0.004-14.944-12.164-27.1-27.112-27.1h-0.828C248.574,43.924,203.71,0,148.678,0
				C93.302,0,48.198,44.468,46.99,99.56c-11.424,3.188-19.844,13.664-19.844,26.088v141.976c0,1.388-0.14,4.276-0.252,6.704
				c-0.092,1.884-0.164,3.512-0.164,4.076c0,19.808,75.332,27,125.972,27c50.64,0,125.972-7.192,125.972-27
				C278.678,277.112,278.258,125.64,278.258,125.64z M148.682,6.732c51.324,0,93.164,40.908,94.904,91.808h-13.344
				c-1.728-43.544-37.6-78.46-81.56-78.46c-43.964,0-79.828,34.916-81.56,78.46H54.266c-0.164,0-0.32,0.02-0.484,0.028
				C55.502,47.648,97.354,6.732,148.682,6.732z M223.51,98.54H73.854c1.724-39.832,34.576-71.732,74.824-71.732
				C188.934,26.812,221.786,58.708,223.51,98.54z M152.706,298.672c-78.288,0-119.236-13.192-119.236-20.268
				c0-0.524,0.072-2.024,0.152-3.756c0.12-2.552,0.264-5.572,0.264-7.024v-33.832c7.596,7.868,24.464,10.54,34.432,12.108
				c1.396,0.216,2.644,0.412,3.7,0.6c0.14,0.028,0.272,0.036,0.412,0.036c1.124,0,2.116-0.808,2.316-1.948
				c0.228-1.284-0.628-2.504-1.908-2.724c-1.08-0.192-2.36-0.396-3.784-0.616c-10.44-1.644-32.176-5.064-34.204-15.048
				c-0.124-0.608-0.484-1.104-0.956-1.44v-2.352c0.108-0.076,0.228-0.12,0.324-0.216l49.192-49.096c0.072-0.068,0.1-0.16,0.16-0.236
				c10.696,1.356,21.82,2.204,33.48,2.532l-36.672,36.676c-0.928,0.928-0.928,2.432,0,3.356c0.464,0.464,1.068,0.696,1.676,0.696
				c0.608,0,1.216-0.232,1.68-0.696l39.916-39.916c1.556,0.016,3.068,0.08,4.644,0.08c10.58,0,21.596-0.4,33.132-1.192
				c1.3-0.088,2.276-1.212,2.188-2.512c-0.092-1.3-1.288-2.232-2.512-2.188c-13.028,0.9-25.36,1.26-37.16,1.132
				c-0.652-0.332-1.404-0.352-2.064-0.036c-16.604-0.264-32.136-1.52-46.816-3.848c-1.256-0.196-2.492,0.672-2.7,1.956
				c-0.204,1.284,0.672,2.492,1.956,2.692c1.12,0.176,2.284,0.3,3.412,0.468L33.886,215.8v-60.544
				c6.264,6.404,18.692,8.912,26.872,10.552l2.676,0.548c0.168,0.032,0.328,0.048,0.496,0.048c1.084,0,2.064-0.756,2.3-1.864
				c0.268-1.272-0.544-2.524-1.816-2.796l-2.732-0.556c-8.788-1.76-25.14-5.032-26.84-13.468c-0.124-0.612-0.484-1.104-0.956-1.44
				v-20.628c0-11.236,9.14-20.38,20.376-20.38h196.884c11.236,0,20.376,9.144,20.376,20.38v0.008c0,0,0.028,10.068,0.068,24.988
				c-5.492,9.472-22.596,11.936-33.228,13.448l-1.176,0.168c-1.288,0.184-2.184,1.38-1.996,2.668c0.172,1.176,1.18,2.02,2.328,2.02
				c0.112,0,0.228-0.008,0.34-0.024l1.172-0.164c9.664-1.376,24.224-3.452,32.584-10.792c0.056,20.572,0.132,47.592,0.196,70.864
				c-5.564,10.34-25.612,12.732-36.804,14.056l-0.864,0.104l31.212-31.216c0.928-0.928,0.928-2.432,0-3.356
				c-0.928-0.928-2.432-0.928-3.356,0l-33.116,33.116c-7.48,6.732-0.552,6.508,4.328,6.296c0.096-0.004,0.196-0.004,0.288-0.02
				l2.064-0.248c10.216-1.208,27.184-3.24,36.272-11.36c0.068,23.624,0.112,41.756,0.112,42.2
				C271.942,285.48,230.994,298.672,152.706,298.672z"/>
			<path d="M56.638,115.58c-7.232,0-13.112,5.884-13.112,13.112c0,3.844,1.692,7.272,4.336,9.672
				c0.048,0.056,0.076,0.124,0.132,0.176c0.088,0.08,0.2,0.116,0.3,0.18c2.272,1.896,5.16,3.084,8.344,3.084
				c7.232,0,13.116-5.884,13.116-13.112C69.754,121.46,63.87,115.58,56.638,115.58z M48.238,128.688c0.004-4.628,3.768-8.4,8.4-8.4
				c1.316,0,2.544,0.332,3.656,0.872l-10.716,12.048C48.738,131.9,48.238,130.356,48.238,128.688z M56.638,137.096
				c-1.256,0-2.432-0.292-3.5-0.788l10.648-11.976c0.78,1.276,1.256,2.76,1.256,4.36C65.042,133.324,61.27,137.096,56.638,137.096z"
				/>
			<path d="M253.086,251.128c-7.232,0-13.116,5.884-13.116,13.116c0,3.848,1.7,7.28,4.348,9.676
				c0.048,0.056,0.072,0.124,0.132,0.172c0.088,0.08,0.196,0.116,0.292,0.176c2.276,1.896,5.164,3.084,8.348,3.084
				c7.232,0,13.112-5.88,13.112-13.108C266.198,257.012,260.318,251.128,253.086,251.128z M244.682,264.244
				c0.004-4.632,3.772-8.404,8.404-8.404c1.316,0,2.544,0.332,3.652,0.872l-10.712,12.052
				C245.182,267.456,244.682,265.908,244.682,264.244z M253.086,272.64c-1.256,0-2.432-0.292-3.5-0.788l10.644-11.976
				c0.784,1.276,1.256,2.76,1.256,4.364C261.486,268.876,257.718,272.64,253.086,272.64z"/>
			<path d="M210.354,243.412c-5.8,0.824-11.328,1.48-16.732,2.052l37.844-37.836c0.928-0.928,0.928-2.432,0-3.356
				c-0.928-0.928-2.432-0.928-3.356,0l-40.832,40.82c-0.304,0.304-0.472,0.68-0.576,1.068c-20.52,1.828-38.352,1.788-54.88-0.132
				c-1.3-0.132-2.464,0.78-2.608,2.072c-0.148,1.288,0.78,2.46,2.072,2.612c8.672,0.996,17.672,1.504,27.22,1.504
				c15.744,0,32.948-1.372,52.512-4.14c1.288-0.184,2.184-1.372,2.004-2.66C212.838,244.12,211.614,243.252,210.354,243.412z"/>
			<path d="M81.39,247.992c5.432,0.78,10.876,1.452,16.328,2.02c0.036,0.004,0.072,0.004,0.112,0.004
				c0.044,0.004,0.088,0.028,0.136,0.028c0.532,0,1.04-0.208,1.476-0.56c0.032-0.028,0.072-0.04,0.1-0.068
				c0.032-0.028,0.072-0.036,0.1-0.068l33.116-33.116c0.928-0.928,0.928-2.432,0-3.356c-0.928-0.928-2.432-0.928-3.356,0
				l-32.316,32.316c-5.02-0.536-10.028-1.144-15.028-1.86c-1.248-0.14-2.48,0.716-2.668,2
				C79.206,246.616,80.098,247.808,81.39,247.992z"/>
			<path d="M145.398,214.8l-2.684,21.856l2.336,2.644h23.776l2.336-2.644L168.47,214.8c3.872-3.352,6.072-8.108,6.072-13.24
				c0-9.708-7.9-17.608-17.608-17.608s-17.604,7.9-17.604,17.608C139.33,206.696,141.53,211.448,145.398,214.8z M156.934,188.656
				c7.108,0,12.896,5.784,12.896,12.9c0,4.092-1.916,7.856-5.256,10.332l-0.936,2.18l2.528,20.516h-18.452l2.528-20.516l-0.936-2.18
				c-3.348-2.476-5.264-6.24-5.264-10.332C144.042,194.444,149.826,188.656,156.934,188.656z"/>
			<path d="M236.782,118.612c12.176,0.768,20.36,11.764,17.688,23.64c-0.668,2.98,3.908,4.248,4.58,1.264
				c3.38-15.048-6.896-28.684-22.272-29.652C233.726,113.672,233.738,118.42,236.782,118.612z"/>
			<path d="M187.902,207.696c0.608,0,1.216-0.232,1.68-0.696l35.324-35.256c0.384-0.384,0.572-0.872,0.636-1.372
				c1.092-0.112,2.184-0.196,3.276-0.312c1.296-0.136,2.232-1.296,2.096-2.592c-0.136-1.288-1.312-2.232-2.588-2.096
				c-6.376,0.676-12.76,1.284-19.148,1.824c-1.296,0.108-2.256,1.248-2.148,2.544c0.1,1.228,1.132,2.156,2.344,2.156
				c0.068,0,0.132-0.004,0.204-0.008c3.12-0.264,6.232-0.592,9.352-0.888l-32.704,32.64c-0.928,0.924-0.928,2.432,0,3.356
				C186.686,207.464,187.294,207.696,187.902,207.696z"/>
			<path d="M123.19,284.556c-15.428-1.276-30.672-3.552-45.8-6.816c-2.98-0.644-4.252,3.932-1.264,4.58
				c15.552,3.356,31.212,5.676,47.064,6.988C126.234,289.556,126.218,284.808,123.19,284.556z"/>
			<path d="M65.21,274.804c-6.06-1.596-12.072-3.348-18.04-5.26c-2.916-0.932-4.168,3.652-1.26,4.58
				c5.968,1.908,11.98,3.66,18.036,5.256C66.902,280.164,68.166,275.584,65.21,274.804z"/>
		</g>
	</g>
</g>
<g>
</g>
<g>
</g>
<g>
</g>
<g>
</g>
<g>
</g>
<g>
</g>
<g>
</g>
<g>
</g>
<g>
</g>
<g>
</g>
<g>
</g>
<g>
</g>
<g>
</g>
<g>
</g>
<g>
</g>
</svg>
