<?xml version="1.0" encoding="iso-8859-1"?>
<!-- Generator: Adobe Illustrator 19.0.0, SVG Export Plug-In . SVG Version: 6.00 Build 0)  -->
<svg version="1.1" id="Layer_1" xmlns="http://www.w3.org/2000/svg" xmlns:xlink="http://www.w3.org/1999/xlink" x="0px" y="0px"
	 viewBox="0 0 309.46 309.46" style="enable-background:new 0 0 309.46 309.46;" xml:space="preserve">
<g>
	<g>
		<g>
			<path d="M301.652,241.34h-4.312h-12.508V18.944c0-1.844-1.492-3.34-3.34-3.34H27.356c-1.844,0-3.34,1.496-3.34,3.34V241.34h-12.5
				H7.808c-4.304,0-7.808,4.012-7.808,8.936c0,4.928,3.5,8.94,7.808,8.94h3.6c2.724,9.7,8.956,14.848,18.092,14.848h10.936v17.452
				c0,1.296,1.048,2.34,2.34,2.34h12.072c1.288,0,2.34-1.044,2.34-2.34v-17.452h196.296v16.624c0,1.296,1.044,2.34,2.34,2.34h12.068
				c1.292,0,2.34-1.044,2.34-2.34v-16.624h9.128c7.708,0,14.712-5.808,18.184-14.848h4.112c4.304,0,7.804-4.012,7.804-8.94
				C309.456,245.348,305.952,241.34,301.652,241.34z M30.688,22.288h0.008h247.456V241.34h-52.756
				c2.196-13.532,6.016-26.864,11.056-39.596c5.456-13.78,12.852-29.896,25.688-38.416V191.4c0,1.296,1.048,2.34,2.34,2.34
				c1.288,0,2.34-1.044,2.34-2.34V35.488c0-1.296-1.048-2.34-2.34-2.34H59.572c-1.292,0-2.34,1.044-2.34,2.34
				c0,1.292,1.048,2.34,2.34,2.34h78.748c-0.02,21.084-9.22,43.788-19.12,61.848c-15.692,28.62-40.132,50.988-72.668,57.516V69.168
				c0-1.296-1.044-2.34-2.34-2.34c-1.292,0-2.34,1.044-2.34,2.34V241.34H30.688V22.288z M187.928,174.112
				c2.94,0,5.336,2.392,5.336,5.332s-2.396,5.332-5.336,5.332s-5.332-2.392-5.332-5.332S184.988,174.112,187.928,174.112z
				 M185.5,167.656c0-1.34,1.088-2.432,2.428-2.432c1.34,0,2.428,1.092,2.428,2.432c0,1.34-1.088,2.428-2.428,2.428
				C186.588,170.084,185.5,168.996,185.5,167.656z M188.056,189.444c1.34,0,2.428,1.088,2.428,2.424c0,1.34-1.088,2.432-2.428,2.432
				c-1.34,0-2.428-1.092-2.428-2.432C185.628,190.532,186.716,189.444,188.056,189.444z M207.348,213.92
				c0.676,0,1.232,0.552,1.232,1.228c0,0.668-0.564,1.232-1.232,1.232h-38.44c-0.664,0-1.228-0.564-1.228-1.232
				c0-0.676,0.552-1.228,1.228-1.228H207.348z M203.384,221.096c-4.204,7.932-11.408,18.348-15.428,18.348
				c-4.012,0-11.216-10.412-15.424-18.348H203.384z M208.432,221.584c0.12-0.24,0.168-0.496,0.2-0.748
				c2.644-0.604,4.66-2.86,4.66-5.684c0-3.276-2.668-5.944-5.944-5.944h-17.804v-11.864c1.896-0.52,3.364-1.92,3.944-3.792
				c0.928,0.568,1.94,0.92,2.976,0.92c1.688,0,3.364-0.736,4.504-2.152c1.536-1.908,1.62-4.488,0.46-6.492
				c2.588-0.568,4.568-2.768,4.568-5.524s-1.984-4.96-4.572-5.532c0.796-1.012,1.312-2.208,1.312-3.52
				c-0.004-1.536-0.604-2.988-1.688-4.068c-2-2-5.312-2.072-7.532-0.416c-0.444-2.744-2.724-4.888-5.592-4.888
				c-2.852,0-5.12,2.12-5.584,4.844c-2.208-1.34-5.22-1.176-7.096,0.696c-1.992,1.992-2.112,5.048-0.572,7.296
				c-2.712,0.468-4.82,2.736-4.82,5.58c0,2.828,2.088,5.08,4.78,5.568c-1.236,2.196-1.008,4.996,0.856,6.868
				c1.088,1.088,2.54,1.688,4.08,1.688c1.112,0,2.116-0.408,3.028-0.988c0.52,1.804,1.832,3.22,3.596,3.828v11.936H168.9
				c-3.276,0-5.944,2.668-5.944,5.944c0,2.696,1.832,4.884,4.296,5.612c0.028,0.276,0.088,0.56,0.224,0.824
				c1.428,2.86,7.432,14.364,14.076,19.752H88.384c-2.5-16.24-7.368-32.244-13.944-47.276C69.192,182.048,62.432,169,51.748,160.856
				c15.364-3.74,28.972-11.008,40.708-20.744l124.216,0.244h0.004c0.088,0,0.164-0.04,0.248-0.048
				c11.544,9.572,25.028,16.72,40.444,20.488c-10.736,8.136-17.524,21.224-22.788,33.256c-6.572,15.032-11.444,31.04-13.94,47.276
				h-26.28C201,235.952,207.004,224.444,208.432,221.584z M198.684,172.976v0.004c-0.92,0.912-2.516,0.916-3.436-0.004
				c-0.46-0.456-0.712-1.068-0.712-1.72c0-0.648,0.252-1.256,0.712-1.716c0.46-0.456,1.068-0.712,1.716-0.712
				c0.652,0,1.26,0.252,1.72,0.716c0.456,0.456,0.708,1.064,0.708,1.712C199.4,171.908,199.144,172.52,198.684,172.976z
				 M200.228,177.868c1.34,0,2.428,1.092,2.428,2.432c0,1.34-1.088,2.428-2.428,2.428c-1.34,0-2.428-1.088-2.428-2.428
				C197.8,178.96,198.888,177.868,200.228,177.868z M194.576,187.18c0.48-0.592,1.184-0.904,1.896-0.904
				c0.532,0,1.072,0.176,1.52,0.532c1.044,0.836,1.208,2.372,0.372,3.416c-0.84,1.044-2.372,1.208-3.416,0.368
				C193.904,189.756,193.74,188.224,194.576,187.18z M181.048,173.22c-0.948,0.948-2.488,0.944-3.436,0.004
				c-0.948-0.952-0.948-2.496-0.004-3.44c0.46-0.46,1.072-0.716,1.72-0.716s1.256,0.252,1.72,0.712v0.004
				C181.996,170.728,181.996,172.276,181.048,173.22z M178.056,180.3c0,1.34-1.088,2.428-2.428,2.428
				c-1.34,0-2.428-1.088-2.428-2.428c-0.004-1.34,1.088-2.432,2.428-2.432C176.968,177.868,178.056,178.96,178.056,180.3z
				 M177.852,186.94c0.46-0.46,1.072-0.712,1.72-0.712s1.256,0.252,1.72,0.712c0.944,0.944,0.944,2.488,0,3.428v0.004
				c-0.92,0.912-2.52,0.912-3.436,0C176.908,189.428,176.908,187.884,177.852,186.94z M83.624,241.34H46.536V163.1
				c13.052,8.452,20.528,24.74,26.032,38.644C77.608,214.476,81.432,227.808,83.624,241.34z M152.336,135.564l-54.596-0.108
				c9.524-8.944,17.676-19.552,24.316-31.232c10.988-19.32,20.976-43.676,20.976-66.4h9.352c-0.284,0.392-0.484,0.848-0.484,1.368
				L152.336,135.564z M171.192,66.94c7.808,25.808,21.244,50.652,40.52,68.74l-54.696-0.104L156.58,39.18
				c-0.004-0.516-0.204-0.964-0.484-1.348h106.048v119.256h-0.004c-45.42-9.384-73.588-49.044-86.4-91.404
				C174.864,62.788,170.312,64.024,171.192,66.94z M52.504,289.176h-7.392v-13.608h7.392V289.176z M265.548,288.348h-7.392v-13.604
				h7.392V288.348z M279.356,269.384H29.5c-6.7,0-10.908-3.276-13.188-10.168h276.204
				C289.596,265.472,284.64,269.384,279.356,269.384z M301.652,254.536H7.808c-1.696,0-3.132-1.952-3.132-4.26
				c0-2.304,1.432-4.256,3.132-4.256h3.708h285.82h4.312c1.696,0,3.124,1.952,3.124,4.256
				C304.776,252.584,303.344,254.536,301.652,254.536z"/>
			<path d="M73.612,129.492c6.692-4.088,12.736-9.044,18.032-14.828c2.048-2.232-1.276-5.576-3.332-3.332
				c-5.04,5.5-10.708,10.2-17.08,14.088C68.644,127,71.012,131.08,73.612,129.492z"/>
			<path d="M98.576,105.684c8.116-15.856,11.472-32.996,13.068-50.608c0.272-3.02-4.44-3-4.716,0
				c-1.524,16.816-4.676,33.092-12.424,48.228C93.128,106,97.192,108.388,98.576,105.684z"/>
		</g>
	</g>
</g>
<g>
</g>
<g>
</g>
<g>
</g>
<g>
</g>
<g>
</g>
<g>
</g>
<g>
</g>
<g>
</g>
<g>
</g>
<g>
</g>
<g>
</g>
<g>
</g>
<g>
</g>
<g>
</g>
<g>
</g>
</svg>
