<?xml version="1.0" encoding="iso-8859-1"?>
<!-- Generator: Adobe Illustrator 19.0.0, SVG Export Plug-In . SVG Version: 6.00 Build 0)  -->
<svg version="1.1" id="Layer_1" xmlns="http://www.w3.org/2000/svg" xmlns:xlink="http://www.w3.org/1999/xlink" x="0px" y="0px"
	 viewBox="0 0 512 512" style="enable-background:new 0 0 512 512;" xml:space="preserve">
<g>
	<g>
		<g>
			<path d="M438.227,78.187H78.818c-5.571,0-10.089,4.517-10.089,10.089V348.69c0,5.571,4.517,10.089,10.089,10.089h359.409
				c5.571,0,10.089-4.517,10.089-10.089V88.276C448.315,82.704,443.798,78.187,438.227,78.187z M428.138,338.601H88.906v-23.33
				h339.232V338.601z M428.138,295.094H88.906V98.365h339.232V295.094z"/>
			<path d="M222.581,256.965c1.56,0.902,3.303,1.352,5.044,1.352s3.484-0.45,5.044-1.352l87.015-50.238
				c3.122-1.802,5.044-5.131,5.044-8.737c0-3.605-1.922-6.935-5.044-8.737l-87.015-50.238c-3.121-1.803-6.967-1.803-10.089,0
				c-3.122,1.802-5.044,5.131-5.044,8.737v100.476C217.537,251.832,219.459,255.163,222.581,256.965z M237.714,165.227
				l56.749,32.763l-56.749,32.763V165.227z"/>
			<path d="M447.054,10.089H64.946C29.135,10.089,0,39.224,0,75.034v281.222c0,35.811,29.135,64.946,64.946,64.946h289.708
				l105.275,78.7c1.786,1.336,3.911,2.009,6.042,2.009c1.885,0,3.776-0.528,5.438-1.591c3.54-2.266,5.304-6.49,4.429-10.598
				l-14.906-70.003C490.357,413.414,512,387.496,512,356.256V75.034C512,39.224,482.865,10.089,447.054,10.089z M491.823,356.256
				c0,24.333-19.046,43.98-43.36,44.729c-2.989,0.092-5.783,1.504-7.628,3.858c-1.845,2.353-2.551,5.404-1.928,8.328l11.606,54.5
				l-86.464-64.637c-1.744-1.304-3.863-2.009-6.041-2.009H64.946c-24.686-0.001-44.768-20.084-44.768-44.77V75.034
				c0-24.686,20.083-44.768,44.768-44.768h382.108c24.686,0,44.768,20.083,44.768,44.768V356.256z"/>
		</g>
	</g>
</g>
<g>
</g>
<g>
</g>
<g>
</g>
<g>
</g>
<g>
</g>
<g>
</g>
<g>
</g>
<g>
</g>
<g>
</g>
<g>
</g>
<g>
</g>
<g>
</g>
<g>
</g>
<g>
</g>
<g>
</g>
</svg>
