<?xml version="1.0" encoding="iso-8859-1"?>
<!-- Generator: Adobe Illustrator 19.0.0, SVG Export Plug-In . SVG Version: 6.00 Build 0)  -->
<svg version="1.1" id="Layer_1" xmlns="http://www.w3.org/2000/svg" xmlns:xlink="http://www.w3.org/1999/xlink" x="0px" y="0px"
	 viewBox="0 0 512 512" style="enable-background:new 0 0 512 512;" xml:space="preserve">
<g>
	<g>
		<g>
			<path d="M219.663,88.345l-33.796-3.263l-13.546-31.134c-1.607-3.693-5.25-6.081-9.278-6.081c-4.028,0-7.671,2.388-9.278,6.081
				l-13.546,31.134l-33.796,3.263c-4.009,0.387-7.405,3.114-8.651,6.945c-1.246,3.831-0.099,8.034,2.916,10.703l25.426,22.503
				l-7.342,33.15c-0.87,3.932,0.673,8.007,3.931,10.373c3.258,2.366,7.611,2.578,11.08,0.534l29.259-17.227l29.259,17.227
				c1.59,0.936,3.363,1.399,5.132,1.399c2.094,0,4.182-0.649,5.948-1.932c3.258-2.368,4.802-6.441,3.931-10.373l-7.342-33.15
				l25.426-22.503c3.015-2.67,4.161-6.874,2.916-10.703S223.672,88.732,219.663,88.345z M182.101,117.291
				c-2.753,2.437-3.969,6.174-3.173,9.765l3.602,16.261l-14.353-8.45c-1.583-0.932-3.358-1.399-5.134-1.399s-3.55,0.467-5.133,1.399
				l-14.353,8.45l3.602-16.261c0.796-3.589-0.42-7.328-3.173-9.765l-12.47-11.039l16.577-1.6c3.66-0.353,6.838-2.664,8.305-6.034
				l6.645-15.273l6.645,15.273c1.467,3.37,4.647,5.681,8.305,6.034l16.577,1.6L182.101,117.291z"/>
			<path d="M294.097,0H31.988C16.035,0,3.055,12.979,3.055,28.932v163.954c0,15.953,12.98,28.932,28.933,28.932h70.721v32.177
				H80.432c-5.588,0-10.118,4.53-10.118,10.118c0,5.588,4.53,10.118,10.118,10.118h165.222c5.588,0,10.118-4.53,10.118-10.118
				c0-5.588-4.53-10.118-10.118-10.118h-22.278v-32.177h70.721c15.953,0,28.933-12.979,28.933-28.932V28.932
				C323.03,12.979,310.052,0,294.097,0z M203.141,253.996h-80.196v-32.177h80.196V253.996z M302.795,192.886
				c0,4.796-3.902,8.696-8.698,8.696H31.988c-4.796,0-8.698-3.902-8.698-8.696V28.932c0-4.796,3.902-8.696,8.698-8.696h262.109
				c4.796,0,8.698,3.902,8.698,8.696V192.886z"/>
			<path d="M480.489,242.614H372.987c-15.69,0-28.456,12.765-28.456,28.456v212.474c0,15.691,12.766,28.456,28.456,28.456h107.502
				c15.69,0,28.456-12.765,28.456-28.456V271.07C508.945,255.378,496.18,242.614,480.489,242.614z M488.709,483.544
				c0,4.533-3.688,8.221-8.221,8.221H372.987c-4.533,0-8.221-3.688-8.221-8.221v-33.515h123.943V483.544z M488.709,429.793H364.766
				V305.85h123.943V429.793z M488.709,285.614H364.766V271.07c0-4.533,3.688-8.221,8.221-8.221h107.502
				c4.533,0,8.221,3.688,8.221,8.221V285.614z"/>
			<path d="M421.679,481.014h7.588c5.588,0,10.118-4.53,10.118-10.118c0-5.588-4.53-10.118-10.118-10.118h-7.588
				c-5.588,0-10.118,4.53-10.118,10.118C411.561,476.484,416.091,481.014,421.679,481.014z"/>
			<path d="M364.29,104.779c46.763,21.758,83.235,62.138,100.063,110.789c1.448,4.186,5.367,6.813,9.563,6.813
				c1.096,0,2.213-0.18,3.307-0.558c5.281-1.826,8.082-7.588,6.254-12.87c-18.612-53.804-58.941-98.461-110.65-122.52
				c-5.063-2.355-11.085-0.162-13.441,4.905C357.028,96.402,359.223,102.42,364.29,104.779z"/>
			<path d="M283.824,468.999c-93.961,0-173.209-67.177-188.433-159.732c-0.907-5.514-6.115-9.245-11.625-8.342
				c-5.513,0.907-9.249,6.112-8.341,11.625c8.032,48.832,33.264,93.554,71.046,125.927c38.201,32.731,86.98,50.757,137.354,50.757
				c5.588,0,10.118-4.53,10.118-10.118C293.943,473.53,289.411,468.999,283.824,468.999z"/>
		</g>
	</g>
</g>
<g>
</g>
<g>
</g>
<g>
</g>
<g>
</g>
<g>
</g>
<g>
</g>
<g>
</g>
<g>
</g>
<g>
</g>
<g>
</g>
<g>
</g>
<g>
</g>
<g>
</g>
<g>
</g>
<g>
</g>
</svg>
