<?xml version="1.0" encoding="iso-8859-1"?>
<!-- Generator: Adobe Illustrator 19.0.0, SVG Export Plug-In . SVG Version: 6.00 Build 0)  -->
<svg version="1.1" id="Layer_1" xmlns="http://www.w3.org/2000/svg" xmlns:xlink="http://www.w3.org/1999/xlink" x="0px" y="0px"
	 viewBox="0 0 512.001 512.001" style="enable-background:new 0 0 512.001 512.001;" xml:space="preserve">
<path style="fill:#FFDB56;" d="M407.738,103.974c-45.112-45.112-105.092-69.957-168.89-69.957s-123.778,24.845-168.89,69.957
	C24.845,149.087,0,209.067,0,272.866s24.845,123.778,69.957,168.89s105.092,69.957,168.89,69.957s123.778-24.845,168.89-69.957
	s69.957-105.092,69.957-168.89S452.851,149.087,407.738,103.974z"/>
<path style="fill:#FBA806;" d="M471.642,326.635c-0.689-18.59-2.031-37.097-2.031-53.77c0-53.275-18.063-108.263-48.385-154.231
	c-4.275-5.038-8.764-9.935-13.488-14.66c-45.112-45.112-105.092-69.957-168.89-69.957c-4.991,0-9.955,0.17-14.893,0.472v240.848
	l212.19,132.237C453.006,382.988,465.008,355.611,471.642,326.635z"/>
<path style="fill:#F77935;" d="M437.789,85.703C390.147,35.09,325.823,4.762,256.663,0.307c-2.235-0.152-4.42,0.642-6.049,2.17
	c-1.63,1.528-2.554,3.662-2.554,5.897v254.774c0,2.821,1.47,5.438,3.88,6.905l217.648,132.527c1.278,0.779,2.734,1.179,4.205,1.179
	c0.723,0,1.451-0.097,2.161-0.294c2.152-0.597,3.962-2.06,4.999-4.039c20.313-38.778,31.049-82.541,31.049-126.559
	C512,203.011,485.645,136.543,437.789,85.703z"/>
<path style="fill:#D9510D;" d="M437.789,85.703C390.147,35.09,325.823,4.762,256.663,0.307c-2.235-0.152-4.42,0.642-6.049,2.17
	c-0.776,0.728-1.386,1.595-1.818,2.543c55.343,11.012,105.99,38.939,145.284,80.684c47.855,50.839,74.211,117.308,74.211,187.162
	c0,39.262-8.548,78.318-24.808,113.818l26.105,15.895c1.278,0.779,2.734,1.179,4.205,1.179c0.723,0,1.451-0.097,2.161-0.294
	c2.152-0.597,3.962-2.06,4.999-4.039c20.313-38.778,31.049-82.541,31.049-126.559C512,203.011,485.645,136.543,437.789,85.703z"/>
<g>
</g>
<g>
</g>
<g>
</g>
<g>
</g>
<g>
</g>
<g>
</g>
<g>
</g>
<g>
</g>
<g>
</g>
<g>
</g>
<g>
</g>
<g>
</g>
<g>
</g>
<g>
</g>
<g>
</g>
</svg>
