<?xml version="1.0" encoding="iso-8859-1"?>
<!-- Generator: Adobe Illustrator 19.0.0, SVG Export Plug-In . SVG Version: 6.00 Build 0)  -->
<svg version="1.1" id="Layer_1" xmlns="http://www.w3.org/2000/svg" xmlns:xlink="http://www.w3.org/1999/xlink" x="0px" y="0px"
	 viewBox="0 0 512 512" style="enable-background:new 0 0 512 512;" xml:space="preserve">
<rect x="141.222" y="301.011" style="fill:#FFE2C4;" width="229.556" height="16.879"/>
<polygon style="fill:#FBCFA3;" points="368.53,376.967 368.53,410.725 323.519,410.725 301.013,393.846 323.519,376.967 "/>
<rect x="143.473" y="376.967" style="fill:#FFE2C4;" width="180.044" height="33.758"/>
<path style="fill:#E0315B;" d="M346.022,0h-33.758v112.527l78.769-22.506V45.011C391.033,20.255,370.778,0,346.022,0z"/>
<path style="fill:#EA5A7D;" d="M357.275,45.011v56.264H143.473l-22.505-11.253V45.011C120.967,20.255,141.222,0,165.978,0h146.286
	C337.02,0,357.275,20.255,357.275,45.011z"/>
<polygon style="fill:#FBCFA3;" points="120.967,90.022 120.967,512 154.725,512 154.725,123.78 368.527,123.78 357.275,90.022 "/>
<rect x="357.275" y="90.022" style="fill:#F7A676;" width="33.758" height="421.978"/>
<g>
</g>
<g>
</g>
<g>
</g>
<g>
</g>
<g>
</g>
<g>
</g>
<g>
</g>
<g>
</g>
<g>
</g>
<g>
</g>
<g>
</g>
<g>
</g>
<g>
</g>
<g>
</g>
<g>
</g>
</svg>
