<?xml version="1.0" encoding="iso-8859-1"?>
<!-- Generator: Adobe Illustrator 19.0.0, SVG Export Plug-In . SVG Version: 6.00 Build 0)  -->
<svg version="1.1" id="Layer_1" xmlns="http://www.w3.org/2000/svg" xmlns:xlink="http://www.w3.org/1999/xlink" x="0px" y="0px"
	 viewBox="0 0 512 512" style="enable-background:new 0 0 512 512;" xml:space="preserve">
<polygon style="fill:#414D53;" points="357.275,421.978 413.538,512 447.297,512 447.297,421.978 "/>
<rect x="64.703" y="421.978" style="fill:#57676E;" width="348.835" height="90.022"/>
<polygon style="fill:#A2B1B7;" points="458.549,0 458.549,444.484 447.297,444.484 424.791,444.484 357.275,222.242 424.791,0 "/>
<polygon style="fill:#C4D3D9;" points="222.242,0 188.484,222.242 222.242,444.484 424.791,444.484 424.791,0 "/>
<polygon style="fill:#A2B1B7;" points="222.242,0 222.242,444.484 188.484,444.484 132.22,222.242 188.484,0 "/>
<path style="fill:#C4D3D9;" d="M53.451,0v444.484h135.033V0H53.451z"/>
<polygon style="fill:#A2B1B7;" points="154.725,163.165 154.725,236.308 87.209,236.308 87.209,163.165 120.967,151.912 "/>
<path style="fill:#57676E;" d="M256,306.637c-4.661,0-8.44-3.779-8.44-8.44V67.516c0-4.661,3.779-8.44,8.44-8.44
	c4.662,0,8.44,3.779,8.44,8.44v230.681C264.44,302.859,260.662,306.637,256,306.637z"/>
<path style="fill:#414D53;" d="M413.538,486.681H98.462c-4.661,0-8.44-3.779-8.44-8.44s3.779-8.44,8.44-8.44h315.077
	c4.662,0,8.44,3.779,8.44,8.44S418.201,486.681,413.538,486.681z"/>
<path style="fill:#FFFFFF;" d="M112.527,151.912v28.132c0,4.661,3.779,8.44,8.44,8.44c4.661,0,8.44-3.779,8.44-8.44v-28.132H112.527
	z"/>
<path style="fill:#57676E;" d="M188.484,306.637c-4.661,0-8.44-3.779-8.44-8.44V67.516c0-4.661,3.779-8.44,8.44-8.44
	s8.44,3.779,8.44,8.44v230.681C196.923,302.859,193.144,306.637,188.484,306.637z"/>
<path style="fill:#FFFFFF;" d="M424.791,42.198h-33.758c-4.662,0-8.44-3.779-8.44-8.44s3.778-8.44,8.44-8.44h33.758
	c4.662,0,8.44,3.779,8.44,8.44S429.453,42.198,424.791,42.198z"/>
<rect x="87.209" y="129.407" style="fill:#414D53;" width="67.516" height="33.758"/>
<g>
</g>
<g>
</g>
<g>
</g>
<g>
</g>
<g>
</g>
<g>
</g>
<g>
</g>
<g>
</g>
<g>
</g>
<g>
</g>
<g>
</g>
<g>
</g>
<g>
</g>
<g>
</g>
<g>
</g>
</svg>
