<?xml version="1.0" encoding="iso-8859-1"?>
<!-- Generator: Adobe Illustrator 19.0.0, SVG Export Plug-In . SVG Version: 6.00 Build 0)  -->
<svg version="1.1" id="Layer_1" xmlns="http://www.w3.org/2000/svg" xmlns:xlink="http://www.w3.org/1999/xlink" x="0px" y="0px"
	 viewBox="0 0 512 512" style="enable-background:new 0 0 512 512;" xml:space="preserve">
<g transform="translate(1 1)">
	<path style="fill:#FFA800;" d="M340.333,28.917h25.6c5.12,0,8.533,3.413,8.533,8.533v145.067h-25.6V37.451
		C348.867,32.331,345.453,28.917,340.333,28.917"/>
	<path style="fill:#FFE100;" d="M417.133,182.517h25.6c5.12,0,8.533,3.413,8.533,8.533v145.067h-25.6V191.051
		C425.667,185.931,422.253,182.517,417.133,182.517"/>
	<polygon style="fill:#FFA800;" points="476.867,447.051 502.467,447.051 502.467,336.117 476.867,336.117 	"/>
	<g>
		<polygon style="fill:#FFFFFF;" points="7.533,447.051 33.133,447.051 33.133,336.117 7.533,336.117 		"/>
		<path style="fill:#FFFFFF;" d="M76.653,447.051c0-21.333,10.24-38.4,24.747-41.813c-2.56-0.853-5.12-0.853-7.68-0.853
			c-23.893,0-42.667,18.773-42.667,42.667c0,23.893,18.773,42.667,42.667,42.667c2.56,0,5.12,0,7.68-0.853
			C87.747,485.451,76.653,468.384,76.653,447.051"/>
	</g>
	<path style="fill:#FFA800;" d="M433.347,447.051c0,21.333-10.24,38.4-24.747,41.813c2.56,0.853,5.12,0.853,7.68,0.853
		c23.893,0,42.667-18.773,42.667-42.667c0-23.893-18.773-42.667-42.667-42.667c-2.56,0-5.12,0-7.68,0.853
		C422.253,408.651,433.347,425.717,433.347,447.051"/>
	<g>
		<path style="fill:#FFE100;" d="M374.467,447.051c0,23.893,13.653,42.667,29.867,42.667s29.867-18.773,29.867-42.667
			c0-23.893-13.653-42.667-29.867-42.667S374.467,423.157,374.467,447.051"/>
		<path style="fill:#FFE100;" d="M135.533,447.051c0-23.893-13.653-42.667-29.867-42.667S75.8,423.157,75.8,447.051
			c0,23.893,13.653,42.667,29.867,42.667S135.533,470.944,135.533,447.051"/>
		<path style="fill:#FFE100;" d="M33.133,370.251v67.413c0,5.12,3.413,9.387,8.533,9.387h7.68c0-23.893,17.067-42.667,38.4-42.667
			s38.4,18.773,38.4,42.667h248.32c0-23.893,17.067-42.667,38.4-42.667c21.333,0,46.933,18.773,46.933,42.667h8.533
			c4.267,0,8.533-4.267,8.533-9.387v-67.413H33.133z"/>
	</g>
	<path style="fill:#FFA800;" d="M476.867,370.251H33.133v-24.747c0-5.12,4.267-9.387,9.387-9.387h424.96
		c5.12,0,9.387,4.267,9.387,9.387L476.867,370.251L476.867,370.251z"/>
	<path style="fill:#FDCC00;" d="M20.333,22.944L20.333,22.944c-6.827,5.12-9.387,14.507-5.12,21.333l23.04,37.547
		c7.68,11.947,11.093,25.6,11.093,39.253v215.04H83.48v-222.72c0-14.507-4.267-29.013-12.8-40.96L41.667,27.211
		C37.4,20.384,27.16,17.824,20.333,22.944"/>
	<path style="fill:#FFE100;" d="M400.067,336.117h-128v-153.6h119.467c5.12,0,8.533,3.413,8.533,8.533V336.117z"/>
	<path style="fill:#FFA800;" d="M323.267,182.517h-102.4V37.451c0-5.12,3.413-8.533,8.533-8.533h85.333
		c5.12,0,8.533,3.413,8.533,8.533V182.517z"/>
	<g>
		<path style="fill:#FF8800;" d="M272.067,336.117h-128V191.051c0-5.12,3.413-8.533,8.533-8.533h119.467V336.117z"/>
		<path style="fill:#FF8800;" d="M314.733,28.917h25.6c5.12,0,8.533,3.413,8.533,8.533v145.067h-25.6V37.451
			C323.267,32.331,319.853,28.917,314.733,28.917"/>
	</g>
	<g>
		<path style="fill:#FFA800;" d="M391.533,182.517h25.6c5.12,0,8.533,3.413,8.533,8.533v145.067h-25.6V191.051
			C400.067,185.931,396.653,182.517,391.533,182.517"/>
		<path style="fill:#FFA800;" d="M229.4,28.917h-25.6c-5.12,0-8.533,3.413-8.533,8.533v145.067h25.6V37.451
			C220.867,32.331,224.28,28.917,229.4,28.917"/>
	</g>
	<path style="fill:#FF8800;" d="M152.6,182.517H127c-5.12,0-8.533,3.413-8.533,8.533v145.067h25.6V191.051
		C144.067,185.931,147.48,182.517,152.6,182.517"/>
	<polygon style="fill:#FFA800;" points="203.8,233.717 220.867,233.717 220.867,182.517 203.8,182.517 	"/>
	<polygon style="fill:#FDCC00;" points="169.667,233.717 203.8,233.717 203.8,182.517 169.667,182.517 	"/>
	<polygon style="fill:#FFA800;" points="280.6,80.117 297.667,80.117 297.667,28.917 280.6,28.917 	"/>
	<polygon style="fill:#FDCC00;" points="246.467,80.117 280.6,80.117 280.6,28.917 246.467,28.917 	"/>
	<polygon style="fill:#FFA800;" points="357.4,233.717 374.467,233.717 374.467,182.517 357.4,182.517 	"/>
	<polygon style="fill:#FDCC00;" points="323.267,233.717 357.4,233.717 357.4,182.517 323.267,182.517 	"/>
	<path d="M92.867,498.251c-28.16,0-51.2-23.04-51.2-51.2c0-28.16,23.04-51.2,51.2-51.2s51.2,23.04,51.2,51.2
		C144.067,475.211,121.027,498.251,92.867,498.251z M92.867,412.917c-18.773,0-34.133,15.36-34.133,34.133
		s15.36,34.133,34.133,34.133S127,465.824,127,447.051S111.64,412.917,92.867,412.917z"/>
	<path d="M417.133,498.251c-28.16,0-51.2-23.04-51.2-51.2c0-28.16,23.04-51.2,51.2-51.2c28.16,0,51.2,23.04,51.2,51.2
		C468.333,475.211,445.293,498.251,417.133,498.251z M417.133,412.917c-18.773,0-34.133,15.36-34.133,34.133
		s15.36,34.133,34.133,34.133s34.133-15.36,34.133-34.133S435.907,412.917,417.133,412.917z"/>
	<path d="M493.08,455.584H459.8c-5.12,0-8.533-3.413-8.533-8.533c0-18.773-15.36-34.133-34.133-34.133S383,428.277,383,447.051
		c0,5.12-3.413,8.533-8.533,8.533H135.533c-5.12,0-8.533-3.413-8.533-8.533c0-18.773-15.36-34.133-34.133-34.133
		s-34.133,15.36-34.133,34.133c0,5.12-3.413,8.533-8.533,8.533H16.92c-10.24,0-17.92-7.68-17.92-17.92v-67.413
		c0-5.12,3.413-8.533,8.533-8.533h494.933c5.12,0,8.533,3.413,8.533,8.533v67.413C511,447.904,503.32,455.584,493.08,455.584z
		 M467.48,438.517h25.6c0,0,0.853,0,0.853-0.853v-58.88H16.067v58.88c0,0.853,0,0.853,0.853,0.853h25.6
		c4.267-23.893,24.747-42.667,50.347-42.667s46.08,18.773,50.347,42.667h223.573c4.267-23.893,24.747-42.667,50.347-42.667
		S463.213,414.624,467.48,438.517z"/>
	<path d="M502.467,378.784H7.533c-5.12,0-8.533-3.413-8.533-8.533v-24.747c0-9.387,7.68-17.92,17.92-17.92h476.16
		c9.387,0,17.92,7.68,17.92,17.92v24.747C511,375.371,507.587,378.784,502.467,378.784z M16.067,361.717h477.867v-16.213
		c0,0,0-0.853-0.853-0.853H16.92c-0.853,0-0.853,0-0.853,0.853V361.717z"/>
	<path d="M84.333,344.651H50.2c-5.12,0-8.533-3.413-8.533-8.533v-215.04c0-11.947-3.413-23.893-10.24-34.987L8.387,48.544
		c-6.827-11.093-4.267-25.6,6.827-33.28l0,0c11.093-6.827,26.453-3.413,33.28,7.68L78.36,68.171
		c9.387,12.8,14.507,29.013,14.507,45.227v222.72C92.867,341.237,89.453,344.651,84.333,344.651z M58.733,327.584H75.8V113.397
		c0-12.8-3.413-25.6-11.093-35.84L34.84,32.331c-2.56-3.413-6.827-4.267-10.24-2.56c-2.56,2.56-4.267,6.827-1.707,10.24
		l23.04,37.547c8.533,12.8,12.8,28.16,12.8,43.52V327.584z"/>
	<path d="M272.067,344.651h-153.6c-5.12,0-8.533-3.413-8.533-8.533V191.051c0-9.387,7.68-17.067,17.067-17.067h145.067
		c5.12,0,8.533,3.413,8.533,8.533v153.6C280.6,341.237,277.187,344.651,272.067,344.651z M127,327.584h136.533V191.051H127V327.584z
		"/>
	<path d="M220.867,242.251h-51.2c-5.12,0-8.533-3.413-8.533-8.533v-51.2c0-5.12,3.413-8.533,8.533-8.533h51.2
		c5.12,0,8.533,3.413,8.533,8.533v51.2C229.4,238.837,225.987,242.251,220.867,242.251z M178.2,225.184h34.133v-34.133H178.2
		V225.184z"/>
	<path d="M425.667,344.651h-153.6c-5.12,0-8.533-3.413-8.533-8.533v-153.6c0-5.12,3.413-8.533,8.533-8.533h145.067
		c9.387,0,17.067,7.68,17.067,17.067v145.067C434.2,341.237,430.787,344.651,425.667,344.651z M280.6,327.584h136.533V191.051H280.6
		V327.584z"/>
	<path d="M374.467,242.251h-51.2c-5.12,0-8.533-3.413-8.533-8.533v-51.2c0-5.12,3.413-8.533,8.533-8.533h51.2
		c5.12,0,8.533,3.413,8.533,8.533v51.2C383,238.837,379.587,242.251,374.467,242.251z M331.8,225.184h34.133v-34.133H331.8V225.184z
		"/>
	<path d="M348.867,191.051h-153.6c-5.12,0-8.533-3.413-8.533-8.533v-59.733c0-5.12,3.413-8.533,8.533-8.533
		c5.12,0,8.533,3.413,8.533,8.533v51.2h136.533V37.451H203.8v17.067c0,5.12-3.413,8.533-8.533,8.533
		c-5.12,0-8.533-3.413-8.533-8.533V37.451c0-9.387,7.68-17.067,17.067-17.067h136.533c9.387,0,17.067,7.68,17.067,17.067v145.067
		C357.4,187.637,353.987,191.051,348.867,191.051z"/>
	<path d="M203.8,88.651c0-5.12-3.413-8.533-8.533-8.533c-5.12,0-8.533,3.413-8.533,8.533s3.413,8.533,8.533,8.533
		C200.387,97.184,203.8,93.771,203.8,88.651"/>
	<path d="M297.667,88.651h-51.2c-5.12,0-8.533-3.413-8.533-8.533v-51.2c0-5.12,3.413-8.533,8.533-8.533h51.2
		c5.12,0,8.533,3.413,8.533,8.533v51.2C306.2,85.237,302.787,88.651,297.667,88.651z M255,71.584h34.133V37.451H255V71.584z"/>
</g>
<g>
</g>
<g>
</g>
<g>
</g>
<g>
</g>
<g>
</g>
<g>
</g>
<g>
</g>
<g>
</g>
<g>
</g>
<g>
</g>
<g>
</g>
<g>
</g>
<g>
</g>
<g>
</g>
<g>
</g>
</svg>
