<?xml version="1.0" encoding="iso-8859-1"?>
<!-- Generator: Adobe Illustrator 19.0.0, SVG Export Plug-In . SVG Version: 6.00 Build 0)  -->
<svg version="1.1" id="Capa_1" xmlns="http://www.w3.org/2000/svg" xmlns:xlink="http://www.w3.org/1999/xlink" x="0px" y="0px"
	 viewBox="0 0 512 512" style="enable-background:new 0 0 512 512;" xml:space="preserve">
<path style="fill:#E9D535;" d="M117.237,460.726c-11.892,0-21.533-9.641-21.533-21.533V292.914c0-11.892,9.641-21.533,21.533-21.533
	c11.89,0,21.533,9.641,21.533,21.533v146.278C138.77,451.085,129.127,460.726,117.237,460.726z"/>
<path style="fill:#DD9520;" d="M394.768,460.726c-11.892,0-21.533-9.641-21.533-21.533V292.914c0-11.892,9.641-21.533,21.533-21.533
	s21.533,9.641,21.533,21.533v146.278C416.3,451.085,406.659,460.726,394.768,460.726z"/>
<path style="fill:#F4C514;" d="M117.234,51.274C52.591,51.274,0,103.865,0,168.505c0,30.822,11.955,66.132,31.979,94.456
	c23.474,33.202,53.751,51.487,85.255,51.485c31.503,0,61.781-18.284,85.255-51.487c20.024-28.324,31.978-63.636,31.976-94.455
	c0.001-31.313-12.192-60.75-34.334-82.893S148.55,51.276,117.234,51.274z"/>
<path style="fill:#E9D535;" d="M394.765,51.274c-64.642,0-117.234,52.591-117.234,117.232c0.001,30.821,11.958,66.131,31.982,94.455
	c23.475,33.202,53.75,51.487,85.255,51.485c31.503,0,61.779-18.284,85.252-51.487c20.025-28.323,31.98-63.633,31.98-94.455
	C512,103.865,459.409,51.276,394.765,51.274z"/>
<path style="fill:#DD9520;" d="M441.539,216.33c-5.511,0-11.021-2.102-15.224-6.306l-31.498-31.493l-31.507,31.493
	c-8.405,8.404-22.04,8.404-30.446-0.003l-46.721-46.711c-8.409-8.408-8.411-22.041-0.003-30.452
	c8.408-8.411,22.043-8.411,30.452-0.003l31.498,31.493l31.508-31.493c8.409-8.404,22.04-8.404,30.446,0.003l31.495,31.493
	l31.506-31.493c8.408-8.408,22.044-8.405,30.452,0.006s8.405,22.044-0.006,30.452l-46.731,46.711
	C452.558,214.228,447.047,216.33,441.539,216.33z"/>
<path style="fill:#E9D535;" d="M164.005,216.33c-5.511,0-11.021-2.102-15.225-6.306l-31.493-31.493l-31.508,31.493
	c-8.406,8.404-22.04,8.404-30.446-0.003L8.609,163.31c-8.409-8.406-8.411-22.041-0.003-30.452
	c8.408-8.409,22.043-8.411,30.452-0.003l31.498,31.493l31.51-31.493c8.406-8.405,22.037-8.404,30.448,0.003l31.491,31.493
	l31.508-31.493c8.411-8.405,22.045-8.404,30.453,0.007c8.406,8.411,8.404,22.045-0.007,30.453l-46.734,46.711
	C175.024,214.228,169.513,216.33,164.005,216.33z"/>
<g>
</g>
<g>
</g>
<g>
</g>
<g>
</g>
<g>
</g>
<g>
</g>
<g>
</g>
<g>
</g>
<g>
</g>
<g>
</g>
<g>
</g>
<g>
</g>
<g>
</g>
<g>
</g>
<g>
</g>
</svg>
