<?xml version="1.0" encoding="iso-8859-1"?>
<!-- Generator: Adobe Illustrator 19.0.0, SVG Export Plug-In . SVG Version: 6.00 Build 0)  -->
<svg version="1.1" id="Capa_1" xmlns="http://www.w3.org/2000/svg" xmlns:xlink="http://www.w3.org/1999/xlink" x="0px" y="0px"
	 viewBox="0 0 512 512" style="enable-background:new 0 0 512 512;" xml:space="preserve">
<path style="fill:#D4CBF6;" d="M492.308,78.769H19.692C8.817,78.769,0,87.586,0,98.462v315.077c0,10.877,8.817,19.692,19.692,19.692
	h472.615c10.875,0,19.692-8.816,19.692-19.692V98.462C512,87.586,503.183,78.769,492.308,78.769z"/>
<path style="fill:#AB99EC;" d="M492.308,78.769H256v354.462h236.308c10.875,0,19.692-8.816,19.692-19.692V98.462
	C512,87.586,503.183,78.769,492.308,78.769z"/>
<path style="fill:#2D4175;" d="M413.538,157.538c-54.293,0-98.462,44.17-98.462,98.462s44.169,98.462,98.462,98.462
	S512,310.292,512,256S467.83,157.538,413.538,157.538z"/>
<path style="fill:#DA50A1;" d="M413.54,275.69c-5.186,0-10.253-2.101-13.928-5.765c-3.663-3.676-5.765-8.741-5.765-13.928
	c0-5.184,2.102-10.254,5.765-13.916c3.663-3.677,8.742-5.776,13.928-5.776s10.253,2.101,13.917,5.776
	c3.675,3.661,5.775,8.73,5.775,13.916c0,5.187-2.102,10.266-5.775,13.928C423.793,273.589,418.712,275.69,413.54,275.69z"/>
<path style="fill:#5B699C;" d="M98.462,157.538C44.169,157.538,0,201.707,0,256s44.169,98.462,98.462,98.462
	s98.462-44.17,98.462-98.462S152.753,157.538,98.462,157.538z"/>
<path style="fill:#DC73AE;" d="M98.463,275.69c-5.186,0-10.265-2.101-13.928-5.765c-3.663-3.661-5.765-8.741-5.765-13.928
	c0-5.173,2.102-10.254,5.765-13.929c3.663-3.663,8.742-5.763,13.928-5.763c5.186,0,10.253,2.101,13.929,5.763
	c3.661,3.676,5.763,8.757,5.763,13.929c0,5.187-2.102,10.266-5.763,13.928C108.716,273.589,103.648,275.69,98.463,275.69z"/>
<path style="fill:#9E8CEC;" d="M334.769,78.769c-10.875,0-19.692,8.817-19.692,19.692v59.077h-39.385V98.462
	c0-10.875-8.817-19.692-19.692-19.692s-19.692,8.817-19.692,19.692v59.077h-39.385V98.462c0-10.875-8.817-19.692-19.692-19.692
	s-19.692,8.817-19.692,19.692v315.077c0,10.877,8.817,19.692,19.692,19.692s19.692-8.816,19.692-19.692v-59.077h39.385v59.077
	c0,10.877,8.817,19.692,19.692,19.692s19.692-8.816,19.692-19.692v-59.077h39.385v59.077c0,10.877,8.817,19.692,19.692,19.692
	s19.692-8.816,19.692-19.692V98.462C354.462,87.586,345.645,78.769,334.769,78.769z M236.308,315.077h-39.385v-39.385h39.385
	V315.077z M236.308,236.307h-39.385v-39.385h39.385V236.307z M275.692,196.923h39.385v39.385h-39.385V196.923z M275.692,315.077
	v-39.385h39.385v39.385H275.692z"/>
<path style="fill:#6A56CF;" d="M334.769,78.769c-10.875,0-19.692,8.817-19.692,19.692v59.077h-39.385V98.462
	c0-10.875-8.817-19.692-19.692-19.692v354.462c10.875,0,19.692-8.816,19.692-19.692v-59.077h39.385v59.077
	c0,10.877,8.817,19.692,19.692,19.692s19.692-8.816,19.692-19.692V98.462C354.462,87.586,345.645,78.769,334.769,78.769z
	 M315.077,315.077h-39.385v-39.385h39.385V315.077z M315.077,236.307h-39.385v-39.385h39.385V236.307z"/>
<g>
</g>
<g>
</g>
<g>
</g>
<g>
</g>
<g>
</g>
<g>
</g>
<g>
</g>
<g>
</g>
<g>
</g>
<g>
</g>
<g>
</g>
<g>
</g>
<g>
</g>
<g>
</g>
<g>
</g>
</svg>
