<?xml version="1.0" encoding="iso-8859-1"?>
<!-- Generator: Adobe Illustrator 19.0.0, SVG Export Plug-In . SVG Version: 6.00 Build 0)  -->
<svg version="1.1" id="Layer_1" xmlns="http://www.w3.org/2000/svg" xmlns:xlink="http://www.w3.org/1999/xlink" x="0px" y="0px"
	 viewBox="0 0 512 512" style="enable-background:new 0 0 512 512;" xml:space="preserve">
<path style="fill:#FFFFFF;" d="M256,507.632C236.64,498.72,50.664,409.84,50.664,288V68.512c5.416,0.544,15.36,1.312,28.44,1.312
	C121.672,69.833,200.6,61.417,256,5.76c55.4,55.656,134.328,64.072,176.896,64.072c13.08,0,23.025-0.8,28.44-1.312V288
	C461.336,409.888,275.359,498.729,256,507.632z"/>
<path style="fill:#939393;" d="M256,11.368c56.24,54.168,134.401,62.464,176.896,62.464c10.24,0,18.616-0.471,24.44-0.936v215.104
	c0,116.496-175.2,202.976-201.336,215.2C229.904,491.008,54.664,404.609,54.664,288V72.888c5.824,0.471,14.192,0.936,24.44,0.936
	C121.599,73.832,199.76,65.544,256,11.368 M256,0C201.808,56.968,122.936,65.832,79.104,65.832
	C68.263,65.917,57.427,65.304,46.663,64v224C46.663,420,256,512,256,512s209.337-92,209.337-224V64
	c-10.764,1.295-21.6,1.9-32.44,1.808C389.064,65.832,310.192,56.976,256,0z"/>
<circle style="fill:#E21B1B;" cx="256.002" cy="239.981" r="120.001"/>
<path style="fill:#FFFFFF;" d="M296.088,294.8c-8.863,5.03-18.889,7.652-29.08,7.608c-16.574,0.463-32.43-6.763-42.952-19.576
	c-6.637-8.092-10.803-17.924-12-28.321h-12.144v-11.6h10.648v-3.04c0-2.28,0.184-4.76,0.376-6.84h-11.024v-11.792h12.736
	c1.95-10.719,6.893-20.667,14.256-28.696c10.416-11.693,25.441-18.224,41.096-17.864c9.391-0.074,18.681,1.938,27.2,5.888
	l-4.76,17.68c-6.586-3.375-13.88-5.136-21.28-5.136c-9.194-0.235-18.026,3.589-24.144,10.456c-4.34,5.022-7.231,11.131-8.36,17.672
	H286.4v11.792h-52.08c-0.325,2.2-0.452,4.425-0.384,6.648v3.2H286.4v11.592H236c0.831,6.876,3.673,13.354,8.168,18.624
	c6.647,6.884,15.909,10.617,25.472,10.264c7.814-0.095,15.492-2.05,22.4-5.704L296.088,294.8z"/>
<g>
</g>
<g>
</g>
<g>
</g>
<g>
</g>
<g>
</g>
<g>
</g>
<g>
</g>
<g>
</g>
<g>
</g>
<g>
</g>
<g>
</g>
<g>
</g>
<g>
</g>
<g>
</g>
<g>
</g>
</svg>
