<?xml version="1.0" encoding="iso-8859-1"?>
<!-- Generator: Adobe Illustrator 19.0.0, SVG Export Plug-In . SVG Version: 6.00 Build 0)  -->
<svg version="1.1" id="Layer_1" xmlns="http://www.w3.org/2000/svg" xmlns:xlink="http://www.w3.org/1999/xlink" x="0px" y="0px"
	 viewBox="0 0 512.001 512.001" style="enable-background:new 0 0 512.001 512.001;" xml:space="preserve">
<path style="fill:#FFFFFF;" d="M276.735,508l-59.76-59.736h-95.528c-28.8,0-29.864-2.129-38.016-75.72l-0.672-6.064
	c-1.6-14.152-3.312-31.792-5.096-51.128l-0.336-3.632H35.184c-9.42-0.007-17.05-7.649-17.043-17.069
	c0.002-2.639,0.616-5.241,1.795-7.603l48.456-80l-0.104-1.288c-4.248-52.536-7.425-95.144-7.425-95.144
	c-0.088-0.704-5.944-45.76,21.056-76.752C99.192,14.048,126.167,4,162.112,4h239.768L399.079,508H276.735z"/>
<path style="fill:#999999;" d="M397.864,8l-2.728,496H278.336l-57.36-57.392l-2.344-2.344h-97.184c-25.6,0-26.056,0-34.048-72.16
	l-0.672-6.064c-1.464-13.152-3.2-30.328-5.088-51.056l-0.672-7.264H35.184c-7.206,0.004-13.052-5.835-13.055-13.041
	c-0.001-1.933,0.427-3.844,1.255-5.591l47.752-78.872L72.481,208l-0.208-2.576c-4.2-51.92-7.392-94.689-7.425-95.112v-0.256V109.8
	c-0.064-0.432-5.744-43.552,20.104-73.264C101.369,17.6,127.352,8,162.113,8L397.864,8 M405.912,0h-243.8
	C41.36,0,56.864,110.912,56.864,110.912s3.2,42.616,7.432,95.2l-47.944,79.2c-5.2,10.397-0.988,23.04,9.409,28.24
	c2.926,1.463,6.152,2.225,9.423,2.223h38.488c1.792,19.368,3.528,37.032,5.104,51.201c8.536,76.8,8.536,85.336,42.672,85.336h93.872
	l59.736,59.688h128L405.904,0H405.912z"/>
<rect x="429.981" y="291.43" transform="matrix(0.7071 -0.7071 0.7071 0.7071 -116.0319 417.5241)" width="31.999" height="114.789"/>
<path style="fill:#FFFFFF;" d="M335.216,333.968c-64.79-0.004-117.308-52.531-117.304-117.32
	c0.004-64.79,52.531-117.308,117.32-117.304c64.787,0.004,117.304,52.525,117.304,117.312
	C452.465,281.419,399.98,333.902,335.216,333.968z"/>
<path style="fill:#E21B1B;" d="M335.216,111.344c58.162-0.004,105.315,47.142,105.32,105.304
	c0.004,58.162-47.142,105.315-105.304,105.32s-105.315-47.142-105.32-105.304c0-0.003,0-0.005,0-0.008
	C229.978,158.524,277.085,111.415,335.216,111.344 M335.216,87.344c-71.417,0-129.312,57.895-129.312,129.312
	s57.895,129.311,129.312,129.311s129.312-57.895,129.312-129.312l0,0C464.528,145.239,406.633,87.344,335.216,87.344z"/>
<path d="M328.664,281.329v-15.424c-9.037-0.099-17.898-2.505-25.744-6.992L307.216,244c7.516,4.452,16.065,6.862,24.8,6.992
	c10.008,0,16.84-4.928,16.84-12.552c0-7.152-5.6-11.76-17.328-16.056c-16.688-6.04-27.496-13.665-27.496-28.448
	c0.302-14.256,11.381-25.952,25.6-27.024v-15.592h13.04v14.784c7.61,0.079,15.104,1.87,21.928,5.24l-4.288,14.624
	c-6.666-3.498-14.072-5.352-21.6-5.408c-11.128,0-15.104,5.72-15.104,11.128c0,6.512,5.728,10.168,19.2,15.576
	c17.8,6.672,25.752,15.256,25.752,29.4c-0.315,14.948-11.953,27.201-26.864,28.288v16.376H328.664z"/>
<g>
</g>
<g>
</g>
<g>
</g>
<g>
</g>
<g>
</g>
<g>
</g>
<g>
</g>
<g>
</g>
<g>
</g>
<g>
</g>
<g>
</g>
<g>
</g>
<g>
</g>
<g>
</g>
<g>
</g>
</svg>
