<?xml version="1.0" encoding="iso-8859-1"?>
<!-- Generator: Adobe Illustrator 16.0.0, SVG Export Plug-In . SVG Version: 6.00 Build 0)  -->
<!DOCTYPE svg PUBLIC "-//W3C//DTD SVG 1.1//EN" "http://www.w3.org/Graphics/SVG/1.1/DTD/svg11.dtd">
<svg version="1.1" id="Capa_1" xmlns="http://www.w3.org/2000/svg" xmlns:xlink="http://www.w3.org/1999/xlink" x="0px" y="0px"
	 width="483.358px" height="483.357px" viewBox="0 0 483.358 483.357" style="enable-background:new 0 0 483.358 483.357;"
	 xml:space="preserve">
<g>
	<g>
		<path d="M215.487,244.507c3.829,3.835,8.854,5.751,13.875,5.751c5.025,0,10.051-1.916,13.878-5.751
			c7.67-7.658,7.67-20.085,0-27.748l-20.494-20.498l13.236-13.234l20.494,20.496c3.835,3.833,8.856,5.749,13.878,5.749
			c5.029,0,10.051-1.916,13.882-5.749c7.666-7.658,7.666-20.085,0-27.75l-20.498-20.496l16.438-16.44
			c7.67-7.662,7.67-20.089,0-27.751c-7.662-7.67-20.098-7.67-27.756,0l-16.432,16.44l-20.488-20.492
			c-7.663-7.667-20.098-7.667-27.752,0c-7.67,7.662-7.67,20.089,0,27.751l20.488,20.492l-13.236,13.232l-20.496-20.496
			c-7.662-7.67-20.098-7.67-27.751,0c-7.67,7.663-7.67,20.089,0,27.754l20.5,20.494l-13.237,13.237l-20.5-20.496
			c-7.658-7.67-20.093-7.67-27.747,0c-7.67,7.66-7.67,20.087,0,27.75l20.494,20.5l-17.717,17.71c-7.67,7.666-7.67,20.094,0,27.756
			c3.831,3.831,8.856,5.746,13.882,5.746c5.021,0,10.046-1.915,13.875-5.746l17.721-17.717l20.496,20.498
			c3.833,3.827,8.854,5.742,13.88,5.742s10.047-1.915,13.88-5.742c7.67-7.658,7.67-20.094,0-27.752l-20.5-20.496l13.236-13.237
			L215.487,244.507z"/>
		<path d="M368.268,212.868c25.003-62.532,27.01-132.115,5.919-195.799C344.985,7.397,314.537,2.557,284.1,2.557
			c-72.739,0-145.423,27.649-200.932,83.164C4.426,164.471-18.27,277.78,14.517,376.744c29.192,9.666,59.643,14.511,90.083,14.511
			c37.922,0,75.809-7.586,111.278-22.646c10.794,63.586,66.115,112.192,132.714,112.192c74.317,0,134.766-60.456,134.766-134.77
			C483.349,278.413,433.256,222.444,368.268,212.868z M348.583,441.54c-51.636,0-93.602-41.008-95.349-92.227
			c-0.036-1.095-0.168-2.168-0.168-3.287c0-52.745,42.764-95.517,95.517-95.517c0.405,0,0.798,0.052,1.194,0.061
			c52.193,0.653,94.311,43.107,94.311,95.456C444.097,398.776,401.341,441.54,348.583,441.54z M46.209,345.029
			c-20.366-83.227,3.561-170.394,64.714-231.549c46.218-46.216,107.726-71.673,173.185-71.673c19.757,0,39.321,2.338,58.396,6.977
			c13.737,56.164,7.233,114.091-17.188,164.631c-56.581,9.911-101,55.148-109.754,112.109
			c-33.955,17.272-71.73,26.481-110.955,26.481C84.839,352.006,65.275,349.666,46.209,345.029z"/>
		<polygon points="383.481,290.612 348.583,325.501 317.895,294.812 313.699,290.612 293.169,311.134 297.637,315.599 
			328.066,346.026 293.169,380.924 313.699,401.438 348.583,366.557 383.481,401.438 404.002,380.924 369.114,346.026 
			404.002,311.134 		"/>
	</g>
</g>
<g>
</g>
<g>
</g>
<g>
</g>
<g>
</g>
<g>
</g>
<g>
</g>
<g>
</g>
<g>
</g>
<g>
</g>
<g>
</g>
<g>
</g>
<g>
</g>
<g>
</g>
<g>
</g>
<g>
</g>
</svg>
