<?xml version="1.0" encoding="iso-8859-1"?>
<!-- Generator: Adobe Illustrator 19.0.0, SVG Export Plug-In . SVG Version: 6.00 Build 0)  -->
<svg version="1.1" id="Layer_1" xmlns="http://www.w3.org/2000/svg" xmlns:xlink="http://www.w3.org/1999/xlink" x="0px" y="0px"
	 viewBox="0 0 511.999 511.999" style="enable-background:new 0 0 511.999 511.999;" xml:space="preserve">
<g>
	<g>
		<rect x="247.674" y="471.834" width="16.257" height="40.164"/>
	</g>
</g>
<g>
	<g>
		<rect x="247.847" y="0" width="16.257" height="75.289"/>
	</g>
</g>
<g>
	<g>
		<path d="M343.244,0v36.79l-79.202,79.202l0.015-20.612l-16.257-0.012l-0.015,20.452L168.756,36.79V0H152.5v354.736l103.5,103.5
			l103.5-103.5V0H343.244z M247.691,426.936l-78.934-78.934v-77.401l79.011,79.011L247.691,426.936z M247.771,326.626
			l-79.014-79.014V170.21l79.014,79.014V326.626z M247.771,226.235l-79.014-79.014v-87.44l79.014,79.014V226.235z M343.244,348.002
			l-79.296,79.297l0.077-77.479l79.219-79.219V348.002z M343.244,247.612l-79.216,79.216v-77.402l79.216-79.216V247.612z
			 M343.244,147.22l-79.216,79.216v-87.441l79.216-79.216V147.22z"/>
	</g>
</g>
<g>
	<g>
		
			<rect x="200.198" y="116.133" transform="matrix(0.7071 -0.7071 0.7071 0.7071 -43.689 190.6795)" width="16.256" height="63.889"/>
	</g>
</g>
<g>
	<g>
		
			<rect x="271.74" y="139.955" transform="matrix(0.7071 -0.7071 0.7071 0.7071 -15.7634 258.1098)" width="63.889" height="16.256"/>
	</g>
</g>
<g>
	<g>
		
			<rect x="200.178" y="216.528" transform="matrix(0.7071 -0.7071 0.7071 0.7071 -114.6847 220.0698)" width="16.256" height="63.889"/>
	</g>
</g>
<g>
	<g>
		
			<rect x="271.742" y="240.346" transform="matrix(0.7071 -0.7071 0.7071 0.7071 -86.7499 287.515)" width="63.889" height="16.256"/>
	</g>
</g>
<g>
	<g>
		
			<rect x="200.184" y="316.923" transform="matrix(0.7071 -0.7071 0.7071 0.7071 -185.6736 249.4813)" width="16.256" height="63.889"/>
	</g>
</g>
<g>
	<g>
		
			<rect x="271.753" y="340.736" transform="matrix(0.7071 -0.7071 0.7071 0.7071 -157.7332 316.9264)" width="63.889" height="16.256"/>
	</g>
</g>
<g>
</g>
<g>
</g>
<g>
</g>
<g>
</g>
<g>
</g>
<g>
</g>
<g>
</g>
<g>
</g>
<g>
</g>
<g>
</g>
<g>
</g>
<g>
</g>
<g>
</g>
<g>
</g>
<g>
</g>
</svg>
