<?xml version='1.0' encoding='iso-8859-1'?>
<svg version="1.1" xmlns="http://www.w3.org/2000/svg" viewBox="0 0 295.75 295.75" xmlns:xlink="http://www.w3.org/1999/xlink" enable-background="new 0 0 295.75 295.75">
  <g>
    <g>
      <path d="m104.028,90.75l-18.919-48.203c5.354-4.401 8.768-11.074 8.768-18.547 0-13.256-10.744-24-24-24s-24,10.744-24,24 10.744,24 24,24c0.061,0 0.121-0.004 0.182-0.005l16.78,42.755h-50.213v205h197v-144.465l25.497-60.535h-155.095zm-10.909,16l16.093,41h-56.586v-41h40.493zm-6.62,99.25c0-4.419 3.58-8 8-8 4.418,0 8,3.581 8,8s-3.582,8-8,8c-4.419,0-8-3.581-8-8zm49,33c4.418,0 8,3.581 8,8s-3.582,8-8,8c-4.42,0-8-3.581-8-8s3.581-8 8-8zm17-50c0-4.419 3.58-8 8-8 4.418,0 8,3.581 8,8s-3.582,8-8,8c-4.419,0-8-3.581-8-8zm65.623-41.25h-91.721l-16.093-41h124.651 0.258l-17.095,41z"/>
    </g>
  </g>
</svg>
