<?xml version="1.0" encoding="iso-8859-1"?>
<!-- Generator: Adobe Illustrator 19.0.0, SVG Export Plug-In . SVG Version: 6.00 Build 0)  -->
<svg version="1.1" id="Layer_1" xmlns="http://www.w3.org/2000/svg" xmlns:xlink="http://www.w3.org/1999/xlink" x="0px" y="0px"
	 viewBox="0 0 512.001 512.001" style="enable-background:new 0 0 512.001 512.001;" xml:space="preserve">
<rect x="315.431" y="29.764" transform="matrix(-0.7071 -0.7071 0.7071 -0.7071 439.5589 542.6102)" style="fill:#828186;" width="33.453" height="301.012"/>
<rect x="228.906" y="238.668" transform="matrix(-0.7071 -0.7071 0.7071 -0.7071 230.6597 629.1583)" style="fill:#555558;" width="33.453" height="56.279"/>
<path style="fill:#F20013;" d="M200.198,353.088c17.462-17.462,43.399-20.385,60.692-7.785l20.926-20.926
	c3.91-3.91,3.91-10.249,0-14.159l-79.591-79.591c-3.91-3.91-10.249-3.91-14.159,0l-20.926,20.926
	c12.601,17.293,9.677,43.231-7.785,60.692c-17.462,17.462-43.399,20.385-60.692,7.785l-87.013,87.013
	c-14.945,14.945-14.945,39.174,0,54.118l39.632,39.632c14.945,14.945,39.174,14.945,54.118,0l87.013-87.013
	C179.812,396.487,182.735,370.549,200.198,353.088z"/>
<path style="fill:#BFBDC3;" d="M475.838,2.375c3.974-3.369,9.869-3.127,13.553,0.558l19.236,19.236
	c3.684,3.684,3.927,9.579,0.558,13.553l-55.4,65.36c-1.81,2.134-4.429,3.414-7.226,3.529c-2.796,0.115-5.512-0.946-7.491-2.924
	l-29.195-29.195c-1.978-1.978-3.039-4.696-2.924-7.491c0.115-2.796,1.395-5.416,3.529-7.226L475.838,2.375z"/>
<path style="fill:#FF4B00;" d="M202.225,230.627c-3.91-3.91-10.249-3.91-14.159,0l-20.926,20.926
	c12.601,17.293,9.677,43.231-7.785,60.692c-17.462,17.462-43.399,20.385-60.692,7.785l-87.013,87.012
	c-14.945,14.945-14.945,39.174,0,54.118l21.031,21.031l210.554-210.554L202.225,230.627z"/>
<g>
</g>
<g>
</g>
<g>
</g>
<g>
</g>
<g>
</g>
<g>
</g>
<g>
</g>
<g>
</g>
<g>
</g>
<g>
</g>
<g>
</g>
<g>
</g>
<g>
</g>
<g>
</g>
<g>
</g>
</svg>
