<?xml version="1.0" encoding="iso-8859-1"?>
<!-- Generator: Adobe Illustrator 19.0.0, SVG Export Plug-In . SVG Version: 6.00 Build 0)  -->
<svg version="1.1" id="Layer_1" xmlns="http://www.w3.org/2000/svg" xmlns:xlink="http://www.w3.org/1999/xlink" x="0px" y="0px"
	 viewBox="0 0 512 512" style="enable-background:new 0 0 512 512;" xml:space="preserve">
<path style="fill:#8FADB3;" d="M420.875,8.451H91.126c-19.086,0-34.557,15.472-34.557,34.557v425.983
	c0,19.086,15.472,34.557,34.557,34.557h329.749c19.086,0,34.557-15.472,34.557-34.557V43.007
	C455.431,23.923,439.96,8.451,420.875,8.451z"/>
<rect x="112.905" y="64.79" style="fill:#293133;" width="286.182" height="382.421"/>
<polygon style="fill:#1C2223;" points="399.093,64.79 146.693,64.79 112.908,64.79 112.908,102.413 112.908,447.21 146.693,447.21 
	146.693,102.413 399.093,102.413 "/>
<g>
	<path style="fill:#26150C;" d="M420.875,512H91.126c-23.714,0-43.008-19.293-43.008-43.008V43.008C48.118,19.293,67.412,0,91.126,0
		h329.749c23.714,0,43.007,19.293,43.007,43.008v425.983C463.883,492.707,444.589,512,420.875,512z M91.126,16.902
		c-14.395,0-26.107,11.712-26.107,26.107v425.983c0,14.395,11.712,26.107,26.107,26.107h329.749
		c14.395,0,26.105-11.712,26.105-26.107V43.008c0-14.395-11.711-26.107-26.105-26.107C420.875,16.902,91.126,16.902,91.126,16.902z"
		/>
	<path style="fill:#26150C;" d="M399.093,455.661H112.908c-4.667,0-8.451-3.783-8.451-8.451V64.79c0-4.668,3.784-8.451,8.451-8.451
		h286.184c4.667,0,8.451,3.783,8.451,8.451V447.21C407.544,451.877,403.76,455.661,399.093,455.661z M121.359,438.759h269.282
		V73.241H121.359V438.759z"/>
	<circle style="fill:#26150C;" cx="255.995" cy="37.105" r="8.461"/>
	<circle style="fill:#26150C;" cx="255.995" cy="475.55" r="14.584"/>
</g>
<g>
</g>
<g>
</g>
<g>
</g>
<g>
</g>
<g>
</g>
<g>
</g>
<g>
</g>
<g>
</g>
<g>
</g>
<g>
</g>
<g>
</g>
<g>
</g>
<g>
</g>
<g>
</g>
<g>
</g>
</svg>
