<?xml version="1.0" encoding="iso-8859-1"?>
<!-- Generator: Adobe Illustrator 19.0.0, SVG Export Plug-In . SVG Version: 6.00 Build 0)  -->
<svg version="1.1" id="Layer_1" xmlns="http://www.w3.org/2000/svg" xmlns:xlink="http://www.w3.org/1999/xlink" x="0px" y="0px"
	 viewBox="0 0 496 496" style="enable-background:new 0 0 496 496;" xml:space="preserve">
<path style="fill:#0EE0B8;" d="M404,0H92C78.4,0,64,12.8,64,25.6v320L222.4,496H404c13.6,0,28-12.8,28-26.4v-444
	C432,12.8,417.6,0,404,0z"/>
<path style="fill:#5D7DA3;" d="M404,0H92C78.4,0,64,12.8,64,25.6v320L222.4,496H404c13.6,0,28-12.8,28-26.4v-444
	C432,12.8,417.6,0,404,0z"/>
<path style="fill:#4C6D8E;" d="M432,384V25.6C432,12.8,417.6,0,404,0H92C78.4,0,66.4,11.2,66.4,24"/>
<path style="fill:#385975;" d="M432,384V25.6C432,12.8,417.6,0,404,0H208"/>
<path style="fill:#4C6D8E;" d="M200,352v119.2c0,1.6,1.6,3.2,1.6,4.8l19.2,18.4c1.6,0,3.2,1.6,4.8,1.6h125.6l-148-144H200z"/>
<path style="fill:#385975;" d="M200,351.2v120c0,1.6,1.6,3.2,1.6,4.8l19.2,18.4c1.6,0,3.2,1.6,4.8,1.6h64l-72.8-120.8L200,351.2z"/>
<path style="fill:#FFFFFF;" d="M222.4,496h1.6V370.4c0-13.6-12-26.4-25.6-26.4L64,345.6L222.4,496z"/>
<polyline style="fill:#DFEDF7;" points="64,345.6 222.4,496 224,496 224,368 "/>
<path style="fill:#B6D7F2;" d="M80,345.6L80,345.6v-320C80,12.8,89.6,0,102.4,0H92C78.4,0,64,12.8,64,25.6v320H80L80,345.6z"/>
<g>
	<path style="fill:#FFFFFF;" d="M314.4,195.2c0,49.6-30.4,76.8-67.2,76.8c-38.4,0-65.6-29.6-65.6-73.6c0-46.4,28.8-76,67.2-76
		C288.8,122.4,314.4,152.8,314.4,195.2z M201.6,197.6c0,31.2,16.8,58.4,46.4,58.4s46.4-27.2,46.4-60c0-28.8-15.2-59.2-46.4-59.2
		C216.8,137.6,201.6,165.6,201.6,197.6z"/>
	<path style="fill:#FFFFFF;" d="M247.2,276c-40.8,0-69.6-32-69.6-77.6c0-47.2,29.6-80,71.2-80s69.6,31.2,69.6,77.6
		C318.4,251.2,282.4,276,247.2,276z M248.8,126.4c-37.6,0-63.2,29.6-63.2,72c0,41.6,24.8,69.6,61.6,69.6c38.4,0,63.2-28.8,63.2-72.8
		C310.4,153.6,285.6,126.4,248.8,126.4z M248,260.8c-32.8,0-50.4-31.2-50.4-62.4c0-32,16-64.8,50.4-64.8s50.4,32.8,50.4,63.2
		C298.4,234.4,277.6,260.8,248,260.8z M248,141.6c-29.6,0-42.4,28-42.4,56.8c0,26.4,13.6,54.4,42.4,54.4c29.6,0,42.4-28,42.4-56
		C290.4,169.6,276.8,141.6,248,141.6z"/>
</g>
<path style="opacity:0.1;enable-background:new    ;" d="M256,132.8c-42.4,0-71.2,32.8-71.2,80c0,45.6,28.8,77.6,69.6,77.6
	c35.2,0,71.2-24.8,71.2-80.8C324.8,164,297.6,132.8,256,132.8z M254.4,267.2c-28.8,0-42.4-28-42.4-54.4c0-28,12.8-56.8,42.4-56.8
	c28.8,0,42.4,28.8,42.4,55.2C297.6,239.2,284,267.2,254.4,267.2z"/>
<g>
</g>
<g>
</g>
<g>
</g>
<g>
</g>
<g>
</g>
<g>
</g>
<g>
</g>
<g>
</g>
<g>
</g>
<g>
</g>
<g>
</g>
<g>
</g>
<g>
</g>
<g>
</g>
<g>
</g>
</svg>
