<?xml version="1.0" encoding="iso-8859-1"?>
<!-- Generator: Adobe Illustrator 19.0.0, SVG Export Plug-In . SVG Version: 6.00 Build 0)  -->
<svg version="1.1" id="Layer_1" xmlns="http://www.w3.org/2000/svg" xmlns:xlink="http://www.w3.org/1999/xlink" x="0px" y="0px"
	 viewBox="0 0 512 512" style="enable-background:new 0 0 512 512;" xml:space="preserve">
<g>
	<g>
		<path d="M445.217,139.133V89.109c0-27.619-22.469-50.153-50.087-50.153h-33.391c-0.229,0-0.452,0.058-0.678,0.067
			c-0.242,0.01-0.482,0.032-0.723,0.052c-0.45,0.038-0.89,0.108-1.329,0.18c-0.154,0.026-0.308,0.045-0.461,0.075
			c-0.638,0.124-1.262,0.282-1.872,0.475l-208.985,65.933H50.087C22.469,105.739,0,128.209,0,155.828v100.174
			c0,27.618,22.469,50.085,50.087,50.085h16.696v116.87c0,27.618,22.469,50.087,50.087,50.087c27.618,0,50.087-22.469,50.087-50.087
			V312.174l189.725,59.913c0.175,0.056,0.355,0.097,0.532,0.147c0.31,0.087,0.621,0.171,0.934,0.24
			c0.196,0.043,0.394,0.078,0.592,0.115c0.323,0.059,0.646,0.108,0.969,0.148c0.171,0.021,0.343,0.043,0.516,0.059
			c0.504,0.047,1.008,0.077,1.514,0.077v-0.001v-0.001h33.391c27.618,0,50.087-22.467,50.087-50.085v-50.087
			c36.824,0,66.783-29.959,66.783-66.783S482.041,139.133,445.217,139.133z M133.565,422.957c0,9.206-7.49,16.696-16.696,16.696
			s-16.696-7.49-16.696-16.696v-116.87h33.391V422.957z M133.565,272.696H83.478c-0.014,0-0.029,0-0.043,0H50.087
			c-9.206,0-16.696-7.487-16.696-16.693V155.828c0-9.207,7.49-16.698,16.696-16.698h83.478V272.696z M345.043,333.397
			l-178.087-56.238V134.676l178.087-56.184V333.397z M411.826,155.828v100.174v66.783c0,9.206-7.49,16.693-16.696,16.693h-16.696
			V72.348h16.696c9.206,0,16.696,7.554,16.696,16.761V155.828z M445.217,239.307v-66.783c18.412,0,33.391,14.979,33.391,33.391
			S463.629,239.307,445.217,239.307z"/>
	</g>
</g>
<g>
</g>
<g>
</g>
<g>
</g>
<g>
</g>
<g>
</g>
<g>
</g>
<g>
</g>
<g>
</g>
<g>
</g>
<g>
</g>
<g>
</g>
<g>
</g>
<g>
</g>
<g>
</g>
<g>
</g>
</svg>
