<?xml version="1.0" encoding="iso-8859-1"?>
<!-- Generator: Adobe Illustrator 18.0.0, SVG Export Plug-In . SVG Version: 6.00 Build 0)  -->
<!DOCTYPE svg PUBLIC "-//W3C//DTD SVG 1.1//EN" "http://www.w3.org/Graphics/SVG/1.1/DTD/svg11.dtd">
<svg version="1.1" id="Capa_1" xmlns="http://www.w3.org/2000/svg" xmlns:xlink="http://www.w3.org/1999/xlink" x="0px" y="0px"
	 viewBox="0 0 241.834 241.834" style="enable-background:new 0 0 241.834 241.834;" xml:space="preserve">
<g>
	<path d="M202.904,223.834h-58.167c-15.539,0-28.657-10.534-32.609-24.834h13.417c4.971,0,9-4.029,9-9v-20.628l36.192-31.04
		c1.994-1.71,3.141-4.206,3.141-6.832V70.782c0-0.902-0.136-1.8-0.402-2.661l-7.429-23.997c-1.167-3.77-4.652-6.339-8.598-6.339
		h-15.047V9c0-4.971-4.029-9-9-9s-9,4.029-9,9v28.785h-45V9c0-4.971-4.029-9-9-9s-9,4.029-9,9v28.785H46.317
		c-3.951,0-7.439,2.576-8.602,6.353l-7.387,23.997c-0.264,0.857-0.398,1.75-0.398,2.647V131.5c0,2.626,1.147,5.122,3.141,6.832
		l36.192,31.04V190c0,4.971,4.029,9,9,9h15.44c4.275,24.304,25.525,42.834,51.035,42.834h58.167c4.971,0,9-4.029,9-9
		S207.875,223.834,202.904,223.834z M150.816,55.785l4.364,14.098c-0.418-0.059-0.841-0.101-1.276-0.101h-104
		c-0.436,0-0.862,0.042-1.281,0.102l4.34-14.099H150.816z M47.93,127.362V87.558c0.636,0.143,1.295,0.224,1.975,0.224h104
		c0.68,0,1.339-0.082,1.976-0.224v39.804L123.072,155.5H80.738L47.93,127.362z M87.263,173.5h29.284v7.5H87.263V173.5z"/>
</g>
<g>
</g>
<g>
</g>
<g>
</g>
<g>
</g>
<g>
</g>
<g>
</g>
<g>
</g>
<g>
</g>
<g>
</g>
<g>
</g>
<g>
</g>
<g>
</g>
<g>
</g>
<g>
</g>
<g>
</g>
</svg>
