<?xml version="1.0" encoding="iso-8859-1"?>
<!-- Generator: Adobe Illustrator 19.0.0, SVG Export Plug-In . SVG Version: 6.00 Build 0)  -->
<svg version="1.1" id="Layer_1" xmlns="http://www.w3.org/2000/svg" xmlns:xlink="http://www.w3.org/1999/xlink" x="0px" y="0px"
	 viewBox="0 0 512 512" style="enable-background:new 0 0 512 512;" xml:space="preserve">
<g>
	<g>
		<path d="M272.056,0h-32.111c-47.7,0-86.505,38.806-86.505,86.505v273.277h-0.001c0,5.633,4.567,10.199,10.199,10.199h57.334
			v106.991C220.972,496.287,236.686,512,256,512c19.314,0,35.028-15.713,35.028-35.027V369.981h57.334
			c5.632,0,10.199-4.566,10.199-10.199V86.505C358.561,38.806,319.755,0,272.056,0z M173.837,86.505
			c0-36.451,29.655-66.106,66.106-66.106h32.111c36.451,0,66.106,29.655,66.106,66.106v13.802H173.837V86.505z M270.63,476.973
			c0,8.067-6.563,14.629-14.63,14.629c-8.067,0-14.63-6.563-14.63-14.629V369.981h29.259V476.973z M338.162,349.583H173.837v-58.059
			h164.324V349.583z M338.162,271.125H173.837V170.361h164.324V271.125z M173.837,149.963v-29.258h164.324v29.258H173.837z"/>
	</g>
</g>
<g>
	<g>
		<path d="M192.44,187.702c-5.632,0-10.199,4.566-10.199,10.199v2.979c0,5.633,4.567,10.199,10.199,10.199
			c5.632,0,10.199-4.566,10.199-10.199v-2.979C202.639,192.268,198.072,187.702,192.44,187.702z"/>
	</g>
</g>
<g>
	<g>
		<path d="M192.44,220.476c-5.632,0-10.199,4.566-10.199,10.199v23.836c0,5.633,4.567,10.199,10.199,10.199
			c5.632,0,10.199-4.566,10.199-10.199v-23.836C202.639,225.042,198.072,220.476,192.44,220.476z"/>
	</g>
</g>
<g>
</g>
<g>
</g>
<g>
</g>
<g>
</g>
<g>
</g>
<g>
</g>
<g>
</g>
<g>
</g>
<g>
</g>
<g>
</g>
<g>
</g>
<g>
</g>
<g>
</g>
<g>
</g>
<g>
</g>
</svg>
