<?xml version="1.0" encoding="iso-8859-1"?>
<!-- Generator: Adobe Illustrator 19.0.0, SVG Export Plug-In . SVG Version: 6.00 Build 0)  -->
<svg version="1.1" id="Layer_1" xmlns="http://www.w3.org/2000/svg" xmlns:xlink="http://www.w3.org/1999/xlink" x="0px" y="0px"
	 viewBox="0 0 512 512" style="enable-background:new 0 0 512 512;" xml:space="preserve">
<circle style="fill:#394CE2;" cx="255.996" cy="255.996" r="255.996"/>
<path style="fill:#1B2DDD;" d="M512,255.999c0-4.39-0.112-8.754-0.33-13.09L329.367,60.606H182.633
	c0,0-37.405,106.768-37.405,165.046c0,22.519,9.455,39.918,23.791,52.797l71.889,72.013v72.981l-61.101,17.241v10.709l60.088,60.088
	c5.328,0.331,10.694,0.519,16.105,0.519C397.385,512,512,397.385,512,255.999z"/>
<path style="fill:#FFFFFF;" d="M366.772,225.653c0-58.277-37.405-165.046-37.405-165.046h-73.366h-73.366
	c0,0-37.405,106.768-37.405,165.046c0,52.274,50.921,76.983,95.68,81.52v116.271l-61.101,17.241v10.709h152.386v-10.709
	l-61.101-17.241V307.173C315.85,302.635,366.772,277.926,366.772,225.653z"/>
<path style="fill:#E1E1E3;" d="M366.772,225.653c0-58.277-37.405-165.046-37.405-165.046h-73.366h-0.004v390.786h76.196v-10.709
	l-61.101-17.241V307.173C315.85,302.635,366.772,277.926,366.772,225.653z"/>
<path style="fill:#FFA91F;" d="M255.999,307.953c47.481,0,110.772-24.023,110.772-82.3c0-22.138-5.399-51.271-12.093-78.894H157.322
	c-6.695,27.621-12.093,56.756-12.093,78.894C145.228,283.93,208.52,307.953,255.999,307.953z"/>
<path style="fill:#FF8800;" d="M354.678,146.759h-98.682v161.194c0.001,0,0.002,0,0.003,0c47.481,0,110.772-24.023,110.772-82.3
	C366.772,203.514,361.373,174.381,354.678,146.759z"/>
<g>
</g>
<g>
</g>
<g>
</g>
<g>
</g>
<g>
</g>
<g>
</g>
<g>
</g>
<g>
</g>
<g>
</g>
<g>
</g>
<g>
</g>
<g>
</g>
<g>
</g>
<g>
</g>
<g>
</g>
</svg>
