<?xml version="1.0" encoding="iso-8859-1"?>
<!-- Generator: Adobe Illustrator 19.0.0, SVG Export Plug-In . SVG Version: 6.00 Build 0)  -->
<svg version="1.1" id="Layer_1" xmlns="http://www.w3.org/2000/svg" xmlns:xlink="http://www.w3.org/1999/xlink" x="0px" y="0px"
	 viewBox="0 0 512 512" style="enable-background:new 0 0 512 512;" xml:space="preserve">
<circle style="fill:#FFA91F;" cx="255.996" cy="256" r="255.996"/>
<path style="fill:#FF8800;" d="M512,256.003c0-17.282-1.724-34.161-4.988-50.482l-47.458-47.458H52.446L35.988,258.542l0,0
	c0.006,0.008,24.965,33.62,67.007,75.272L280.051,510.87C410.155,498.744,512,389.276,512,256.003z"/>
<path style="fill:#283EE1;" d="M476.011,258.542L476.011,258.542L476.011,258.542l-16.458-100.479H52.446L35.988,258.542l0,0l0,0
	l0,0l0,0c0.004,0.006,63.282,85.234,158.082,152.453l0,0h123.858l0,0C412.729,343.776,476.007,258.548,476.011,258.542
	L476.011,258.542L476.011,258.542z"/>
<path style="fill:#1B2DDD;" d="M459.554,158.063H255.996v252.932h61.933c94.799-67.218,158.077-152.446,158.081-152.453l0,0
	L459.554,158.063z"/>
<path style="fill:#4B5BE5;" d="M459.554,158.063H52.446L35.988,258.542c0,0,158.082,25.986,158.082,152.453h123.858
	c0-126.466,158.082-152.453,158.082-152.453L459.554,158.063z"/>
<path style="fill:#283EE1;" d="M459.554,158.063H255.996v252.932h61.933c0-126.466,158.082-152.453,158.082-152.453L459.554,158.063
	z"/>
<path style="fill:#EFEFEF;" d="M39.626,236.332l-3.638,22.21c0,0,158.082,25.986,158.082,152.453h22.353
	C214.34,276.971,82.915,243.669,39.626,236.332z"/>
<path style="fill:#C8C6CC;" d="M476.011,258.542l-3.638-22.21c-43.288,7.337-174.714,40.639-176.798,174.663h22.354
	C317.93,284.528,476.011,258.542,476.011,258.542z"/>
<polygon style="fill:#EFEFEF;" points="52.446,158.063 48.042,184.951 463.958,184.951 459.554,158.063 "/>
<polygon style="fill:#C8C6CC;" points="463.958,184.951 459.554,158.063 255.996,158.063 255.996,184.951 "/>
<g>
</g>
<g>
</g>
<g>
</g>
<g>
</g>
<g>
</g>
<g>
</g>
<g>
</g>
<g>
</g>
<g>
</g>
<g>
</g>
<g>
</g>
<g>
</g>
<g>
</g>
<g>
</g>
<g>
</g>
</svg>
