<?xml version="1.0" encoding="iso-8859-1"?>
<!-- Generator: Adobe Illustrator 19.0.0, SVG Export Plug-In . SVG Version: 6.00 Build 0)  -->
<svg version="1.1" id="Layer_1" xmlns="http://www.w3.org/2000/svg" xmlns:xlink="http://www.w3.org/1999/xlink" x="0px" y="0px"
	 viewBox="0 0 480 480" style="enable-background:new 0 0 480 480;" xml:space="preserve">
<g>
	<g>
		<g>
			<path d="M132.39,306.349c2.63,0,5.21-1.06,7.07-2.92c1.86-1.87,2.93-4.439,2.93-7.08c0-2.63-1.07-5.21-2.93-7.07
				c-1.86-1.859-4.44-2.92-7.07-2.92c-2.64,0-5.21,1.06-7.07,2.92s-2.93,4.44-2.93,7.07c0,2.641,1.07,5.21,2.93,7.08
				C127.179,305.289,129.76,306.349,132.39,306.349z"/>
			<path d="M194.919,342.56c2.63,0,5.21-1.069,7.07-2.93c1.86-1.87,2.93-4.44,2.93-7.08c0-2.63-1.07-5.21-2.93-7.07
				s-4.44-2.93-7.07-2.93s-5.21,1.07-7.07,2.93c-1.86,1.86-2.93,4.44-2.93,7.07s1.07,5.21,2.93,7.08
				C189.71,341.49,192.289,342.56,194.919,342.56z"/>
			<path d="M155.299,352.18c2.63,0,5.21-1.07,7.07-2.93c1.86-1.87,2.93-4.44,2.93-7.07c0-2.64-1.07-5.21-2.93-7.08
				c-1.86-1.86-4.44-2.92-7.07-2.92s-5.21,1.061-7.07,2.92c-1.86,1.87-2.93,4.44-2.93,7.08c0,2.63,1.07,5.2,2.93,7.07
				C150.09,351.109,152.669,352.18,155.299,352.18z"/>
			<path d="M308.031,392.67c2.63,0,5.21-1.07,7.069-2.94c1.87-1.85,2.931-4.43,2.931-7.06c0-2.641-1.061-5.21-2.931-7.08
				c-1.86-1.861-4.43-2.93-7.069-2.93c-2.631,0-5.211,1.069-7.07,2.93c-1.86,1.86-2.93,4.439-2.93,7.08c0,2.63,1.069,5.21,2.93,7.06
				C302.82,391.6,305.4,392.67,308.031,392.67z"/>
			<path d="M330.94,369.76c2.63,0,5.21-1.07,7.08-2.93c1.86-1.86,2.92-4.441,2.92-7.08c0-2.63-1.06-5.2-2.92-7.07
				c-1.87-1.861-4.45-2.93-7.08-2.93s-5.21,1.069-7.069,2.93c-1.86,1.87-2.931,4.44-2.931,7.07c0,2.64,1.07,5.22,2.931,7.08
				C325.73,368.689,328.31,369.76,330.94,369.76z"/>
			<path d="M330.94,418.479c-2.63,0-5.21,1.07-7.069,2.931c-1.86,1.869-2.92,4.439-2.92,7.08c0,2.63,1.06,5.199,2.92,7.06
				c1.859,1.87,4.439,2.94,7.069,2.94s5.21-1.07,7.08-2.94c1.86-1.86,2.92-4.43,2.92-7.06c0-2.631-1.06-5.211-2.92-7.08
				C336.15,419.55,333.58,418.479,330.94,418.479z"/>
			<path d="M224.03,375.089c2.63,0,5.21-1.07,7.07-2.94c1.86-1.859,2.93-4.43,2.93-7.069c0-2.63-1.07-5.2-2.93-7.07
				c-1.86-1.861-4.44-2.92-7.07-2.92s-5.21,1.06-7.07,2.92c-1.86,1.86-2.93,4.44-2.93,7.07c0,2.64,1.07,5.21,2.93,7.069
				C218.82,374.019,221.4,375.089,224.03,375.089z"/>
			<path d="M225.7,308.91c2.63,0,5.21-1.07,7.07-2.931c1.86-1.859,2.93-4.439,2.93-7.069c0-2.641-1.07-5.21-2.93-7.07
				c-1.86-1.861-4.44-2.93-7.07-2.93s-5.21,1.069-7.07,2.93c-1.86,1.86-2.93,4.43-2.93,7.07c0,2.63,1.07,5.21,2.93,7.069
				C220.489,307.839,223.07,308.91,225.7,308.91z"/>
			<path d="M201.119,103.089c-5.523,0-10,4.478-10,10v68.73c0,5.523,4.477,10,10,10s10-4.478,10-10v-68.73
				C211.119,107.567,206.643,103.089,201.119,103.089z"/>
			<path d="M388.212,116.378h-85.466V88.73h1.462h11.448c5.522,0,10-4.478,10-10V10c0-5.523-4.478-10-10-10H132.39
				c-5.523,0-10,4.477-10,10v68.73c0,5.522,4.477,10,10,10h11.463h1.448v78.836c-41.585,23.28-63.512,63.894-63.512,117.865
				c0,37.37,14.698,74.671,40.325,102.338c26.63,28.751,61.846,44.584,99.162,44.584h6.753c8.917,0,17.773-0.889,26.366-2.621
				c7.55,28.887,33.866,50.268,65.087,50.268c37.1,0,67.283-30.176,67.283-67.268V136.378h1.447c5.522,0,10-4.477,10-10
				C398.212,120.855,393.734,116.378,388.212,116.378z M143.851,68.73h-1.463V20h163.267v48.73h-1.448h-11.462H155.299H143.851z
				 M252.215,409.767c-0.017,0.003-0.032,0.005-0.049,0.008c-7.827,1.711-15.947,2.578-24.137,2.578h-6.753
				c-64.769,0-119.487-58.123-119.487-126.922c0-4.605,0.173-9.084,0.519-13.435h149.907V409.767z M250.765,116.377
				c-5.522,0-10,4.478-10,10c0,5.523,4.478,10,10,10h1.448v115.619H105.315c7.206-31.573,25.438-54.877,54.478-69.486
				c3.376-1.698,5.506-5.154,5.506-8.934V88.73h117.446v27.647H250.765z M366.765,412.732c0,26.064-21.211,47.268-47.283,47.268
				c-26.063,0-47.268-21.204-47.268-47.268v-93.088h94.551V412.732z M366.765,299.645h-94.551V136.378h94.551V299.645z"/>
		</g>
	</g>
</g>
<g>
</g>
<g>
</g>
<g>
</g>
<g>
</g>
<g>
</g>
<g>
</g>
<g>
</g>
<g>
</g>
<g>
</g>
<g>
</g>
<g>
</g>
<g>
</g>
<g>
</g>
<g>
</g>
<g>
</g>
</svg>
