<?xml version="1.0" encoding="iso-8859-1"?>
<!-- Generator: Adobe Illustrator 19.0.0, SVG Export Plug-In . SVG Version: 6.00 Build 0)  -->
<svg version="1.1" id="Layer_1" xmlns="http://www.w3.org/2000/svg" xmlns:xlink="http://www.w3.org/1999/xlink" x="0px" y="0px"
	 viewBox="0 0 479.998 479.998" style="enable-background:new 0 0 479.998 479.998;" xml:space="preserve">
<g>
	<g>
		<path d="M471.139,264.839c-32.135-3.679-52.693-7.022-66.661-10.843c-17.218-4.709-20.124-9.155-20.604-10.406
			c-0.501-1.306-1.064-6.783,12.765-22.445c2.754-3.118,3.289-7.617,1.343-11.295c-1.945-3.677-5.961-5.772-10.093-5.244
			c-22.984,2.905-28.118-0.609-29.26-2.255c-1.031-1.489-2.809-6.779,2.958-23.688c4.873-14.287,14.008-33.881,29.621-63.531
			c2.358-4.48,0.997-10.017-3.171-12.892c-4.169-2.873-9.827-2.181-13.177,1.617c-13.595,15.411-28.729,28.424-42.615,36.642
			c-12.229,7.236-19.468,8.491-21.958,8.373v-6.882c0.005-0.129,0.02-0.256,0.02-0.387c0-0.673-0.088-1.323-0.214-1.96
			c-0.008-0.036-0.015-0.071-0.022-0.107c-0.223-1.054-0.59-2.054-1.115-2.957L250.173,19.061c-1.694-3.387-5.156-5.526-8.943-5.526
			c-3.788,0-7.25,2.14-8.944,5.527l-59.043,118.069c-0.026,0.054-0.044,0.11-0.069,0.165c-0.135,0.279-0.255,0.566-0.363,0.86
			c-0.032,0.088-0.066,0.176-0.097,0.265c-0.12,0.356-0.225,0.721-0.305,1.094c-0.002,0.012-0.006,0.023-0.009,0.035
			c-0.078,0.378-0.133,0.764-0.168,1.156c-0.01,0.115-0.011,0.229-0.018,0.345c-0.01,0.185-0.027,0.366-0.027,0.553v9.315
			c-3.586-0.121-11.225-1.724-23.178-8.783c-15.47-9.136-31.061-23.364-43.901-40.065c-3.097-4.025-8.715-5.091-13.067-2.482
			c-4.355,2.609-6.064,8.066-3.975,12.693c13.978,30.956,22.027,51.278,26.1,65.891c4.851,17.402,2.787,22.706,1.675,24.179
			c-1.115,1.478-5.876,4.589-25.896,1.625c-4.041-0.602-8.039,1.319-10.1,4.846c-2.061,3.525-1.771,7.95,0.733,11.177
			c11.8,15.205,11.995,21.229,11.061,23.466c-0.871,2.087-4.625,6.244-19.978,10.637c-13.23,3.785-32.617,7.1-62.858,10.745
			c-5.005,0.603-8.778,4.838-8.803,9.879c-0.024,5.042,3.708,9.313,8.707,9.965c30.371,3.961,49.823,7.472,63.071,11.385
			c15.922,4.703,19.204,9.083,19.876,10.748c0.876,2.169,0.604,7.989-11.06,22.605c-2.539,3.183-2.896,7.587-0.901,11.137
			c1.994,3.55,5.944,5.534,9.981,5.02c19.448-2.478,24.71,0.356,26.114,2.268c1.118,1.52,3.19,6.922-1.695,24.217
			c-4.097,14.498-12.163,34.604-26.158,65.188c-2.109,4.612-0.433,10.074,3.901,12.708c1.616,0.981,3.409,1.454,5.187,1.454
			c2.989-0.001,5.932-1.34,7.889-3.848c30.51-39.089,58.329-53.242,65.03-52.622c0.631,0.9,1.395,1.661,2.243,2.287v59.224
			c0,5.522,4.478,10,10,10h118.1c5.522,0,10-4.478,10-10V394.96c13.832,6.263,41.332,24.591,64.842,50.828
			c1.962,2.19,4.693,3.327,7.452,3.327c1.988,0,3.992-0.592,5.728-1.807c4.146-2.901,5.471-8.441,3.088-12.904
			c-15.648-29.298-24.812-48.683-29.717-62.853c-5.813-16.794-4.039-22.16-3.008-23.688c1.15-1.702,6.326-5.389,29.48-2.876
			c4.12,0.442,8.105-1.703,9.991-5.404c1.884-3.702,1.284-8.184-1.508-11.259c-13.694-15.084-13.228-20.38-12.76-21.644
			c0.458-1.235,3.291-5.645,20.499-10.5c13.98-3.944,34.6-7.485,66.855-11.48c5.026-0.622,8.794-4.905,8.771-9.97
			C479.978,269.664,476.171,265.416,471.139,264.839z M172.187,375.112c-0.183-0.017-0.363-0.041-0.548-0.055
			c-11.33-0.831-27.286,6.935-44.277,20.659c10.969-29.504,13.204-47.933,4.539-59.713c-5.638-7.664-14.477-10.597-24.262-11.263
			c4.059-8.212,5.967-16.973,2.562-25.406c-4.649-11.512-17.237-18.718-39.449-24.334c21.794-5.407,34.63-12.536,39.345-23.831
			c3.569-8.551,1.675-17.538-2.417-25.998c9.69-0.497,18.458-3.268,24.12-10.765c6.683-8.847,7.186-21.678,1.632-41.603
			c-1.747-6.266-4.139-13.429-7.306-21.817c17.594,13.049,34.318,19.765,46.061,19.908V375.112z M241.231,45.891l13.348,26.685
			h-26.692L241.231,45.891z M217.885,92.577h46.697l19.521,39.027h-85.735L217.885,92.577z M290.286,151.604v216.154h-39.061
			V151.604H290.286z M192.187,151.604h39.039v216.154h-39.039V151.604z M290.287,446.462h-98.1V427.11h98.1V446.462z
			 M290.287,407.11h-98.1v-19.352h98.1V407.11z M365.124,299.723c-3.064,8.262-0.867,16.685,3.522,24.559
			c-11.026,0.745-20.842,3.941-26.545,12.384c-8.184,12.112-4.73,30.822,7.83,59.384c-3.21-2.375-6.444-4.651-9.68-6.812
			c-12.185-8.135-22.199-13.289-29.965-15.452V168.872c9.32,0.086,20-4.423,28.542-9.106c3.812-2.089,7.694-4.489,11.612-7.169
			c-3.276,7.434-5.83,13.884-7.784,19.611c-4.491,13.169-8.604,29.791-0.468,41.534c5.742,8.287,15.487,11.32,26.417,11.896
			c-4.427,8.105-6.621,16.745-3.402,25.124c4.475,11.65,17.517,18.836,40.789,24.29C382.536,280.73,369.461,288.033,365.124,299.723
			z"/>
	</g>
</g>
<g>
</g>
<g>
</g>
<g>
</g>
<g>
</g>
<g>
</g>
<g>
</g>
<g>
</g>
<g>
</g>
<g>
</g>
<g>
</g>
<g>
</g>
<g>
</g>
<g>
</g>
<g>
</g>
<g>
</g>
</svg>
