<?xml version="1.0" encoding="iso-8859-1"?>
<!-- Generator: Adobe Illustrator 19.0.0, SVG Export Plug-In . SVG Version: 6.00 Build 0)  -->
<svg version="1.1" id="Layer_1" xmlns="http://www.w3.org/2000/svg" xmlns:xlink="http://www.w3.org/1999/xlink" x="0px" y="0px"
	 viewBox="0 0 512.1 512.1" style="enable-background:new 0 0 512.1 512.1;" xml:space="preserve">
<g>
	<g>
		<g>
			<path d="M0,320.05v80.1c0,26.4,21.5,47.9,47.9,47.9h416.3c26.4,0,47.9-21.5,47.9-47.9v-80.1H0z M149.3,384.05h-42.7
				c-11.8,0-21.3-9.6-21.3-21.3c0-11.7,9.5-21.3,21.3-21.3h42.7c11.8,0,21.3,9.6,21.3,21.3C170.6,374.45,161.1,384.05,149.3,384.05z
				 M277.3,384.05h-42.7c-11.8,0-21.3-9.6-21.3-21.3c0-11.7,9.5-21.3,21.3-21.3h42.7c11.8,0,21.3,9.6,21.3,21.3
				C298.6,374.45,289.1,384.05,277.3,384.05z M405.3,384.05h-42.7c-11.8,0-21.3-9.6-21.3-21.3c0-11.7,9.5-21.3,21.3-21.3h42.7
				c11.8,0,21.3,9.6,21.3,21.3C426.6,374.45,417.1,384.05,405.3,384.05z"/>
			<path d="M512,133.25c0-26.4-21.4-47.9-47.9-47.9h-37.5c0-11.8-9.5-21.3-21.3-21.3H106.7c-11.8,0-21.3,9.6-21.3,21.3H47.9
				c-26.4,0-47.9,21.5-47.9,47.9v144.1h512V133.25z M384,192.05H128v-85.3h256V192.05z"/>
		</g>
	</g>
</g>
<g>
</g>
<g>
</g>
<g>
</g>
<g>
</g>
<g>
</g>
<g>
</g>
<g>
</g>
<g>
</g>
<g>
</g>
<g>
</g>
<g>
</g>
<g>
</g>
<g>
</g>
<g>
</g>
<g>
</g>
</svg>
