<?xml version="1.0" encoding="iso-8859-1"?>
<!-- Generator: Adobe Illustrator 19.0.0, SVG Export Plug-In . SVG Version: 6.00 Build 0)  -->
<svg version="1.1" id="Layer_1" xmlns="http://www.w3.org/2000/svg" xmlns:xlink="http://www.w3.org/1999/xlink" x="0px" y="0px"
	 viewBox="0 0 512 512" style="enable-background:new 0 0 512 512;" xml:space="preserve">
<g>
	<g>
		<g>
			<path d="M256,192c-35.285,0-64,28.715-64,64s28.715,64,64,64s64-28.715,64-64S291.285,192,256,192z"/>
			<path d="M490.667,128c11.797,0,21.333-9.557,21.333-21.333V65.088C512,29.205,482.795,0,446.912,0h-41.579
				C393.557,0,384,9.557,384,21.333v21.333H128V21.333C128,9.557,118.443,0,106.667,0H65.088C29.205,0,0,29.205,0,65.088v41.579
				C0,118.443,9.557,128,21.333,128h21.333v256H21.333C9.557,384,0,393.557,0,405.333v41.579C0,482.795,29.205,512,65.088,512
				h41.579c11.776,0,21.333-9.557,21.333-21.333v-21.333h256v21.333c0,11.776,9.557,21.333,21.333,21.333h41.579
				C482.795,512,512,482.795,512,446.912v-41.579c0-11.776-9.536-21.333-21.333-21.333h-21.333V128H490.667z M85.333,469.333H65.088
				c-12.373,0-22.421-10.048-22.421-22.421v-20.245h42.667V469.333z M85.333,85.333H42.667V65.088
				c0-12.373,10.048-22.421,22.421-22.421h20.245V85.333z M149.333,128c11.776,0,21.333,9.557,21.333,21.333
				s-9.557,21.333-21.333,21.333S128,161.109,128,149.333S137.557,128,149.333,128z M149.333,384
				C137.557,384,128,374.443,128,362.667s9.557-21.333,21.333-21.333s21.333,9.557,21.333,21.333S161.109,384,149.333,384z
				 M256,362.667c-58.816,0-106.667-47.851-106.667-106.667S197.184,149.333,256,149.333S362.667,197.184,362.667,256
				S314.816,362.667,256,362.667z M362.667,384c-11.776,0-21.333-9.557-21.333-21.333s9.557-21.333,21.333-21.333
				S384,350.891,384,362.667S374.443,384,362.667,384z M362.667,170.667c-11.776,0-21.333-9.557-21.333-21.333
				S350.891,128,362.667,128S384,137.557,384,149.333S374.443,170.667,362.667,170.667z M469.333,446.912
				c0,12.373-10.048,22.421-22.421,22.421h-20.245v-42.667h42.667V446.912z M426.667,85.333V42.667h20.245
				c12.373,0,22.421,10.048,22.421,22.421v20.245H426.667z"/>
		</g>
	</g>
</g>
<g>
</g>
<g>
</g>
<g>
</g>
<g>
</g>
<g>
</g>
<g>
</g>
<g>
</g>
<g>
</g>
<g>
</g>
<g>
</g>
<g>
</g>
<g>
</g>
<g>
</g>
<g>
</g>
<g>
</g>
</svg>
