<?xml version="1.0" encoding="iso-8859-1"?>
<!-- Generator: Adobe Illustrator 19.0.0, SVG Export Plug-In . SVG Version: 6.00 Build 0)  -->
<svg version="1.1" id="Layer_1" xmlns="http://www.w3.org/2000/svg" xmlns:xlink="http://www.w3.org/1999/xlink" x="0px" y="0px"
	 viewBox="0 0 511.989 511.989" style="enable-background:new 0 0 511.989 511.989;" xml:space="preserve">
<g>
	<g>
		<g>
			<path d="M478.867,253.749c-2.304,1.216-4.629,2.432-74.581,23.339c-50.709,15.147-102.891,22.677-154.859,22.677
				c-72.363,0-144.277-14.613-210.944-43.584c-1.579-0.683-2.539-1.109-17.152-10.624v202.432c0,59.392,179.627,64,234.667,64
				c55.04,0,234.667-4.608,234.667-64V247.861L478.867,253.749z"/>
			<path d="M392.077,236.203c56.448-16.875,66.944-20.395,68.821-21.12l29.76-14.891v-93.525C490.658,37.376,369.762,0,255.991,0
				S21.325,37.376,21.325,106.667v87.872c15.595,10.261,33.152,21.76,35.989,23.424
				C160.802,262.784,280.333,269.568,392.077,236.203z M255.991,42.667c117.205,0,192,37.909,192,64c0,26.091-74.795,64-192,64
				s-192-37.909-192-64C63.991,80.576,138.786,42.667,255.991,42.667z"/>
		</g>
	</g>
</g>
<g>
</g>
<g>
</g>
<g>
</g>
<g>
</g>
<g>
</g>
<g>
</g>
<g>
</g>
<g>
</g>
<g>
</g>
<g>
</g>
<g>
</g>
<g>
</g>
<g>
</g>
<g>
</g>
<g>
</g>
</svg>
