<?xml version="1.0" encoding="iso-8859-1"?>
<!-- Generator: Adobe Illustrator 19.0.0, SVG Export Plug-In . SVG Version: 6.00 Build 0)  -->
<svg version="1.1" id="Layer_1" xmlns="http://www.w3.org/2000/svg" xmlns:xlink="http://www.w3.org/1999/xlink" x="0px" y="0px"
	 viewBox="0 0 512.006 512.006" style="enable-background:new 0 0 512.006 512.006;" xml:space="preserve">
<g>
	<g>
		<g>
			<path d="M456.579,42.673H362.67V21.34c0-11.797-9.536-21.333-21.333-21.333H298.67v512h42.667
				c11.797,0,21.333-9.557,21.333-21.333V469.34h93.909c30.571,0,55.424-24.875,55.424-55.424V98.076
				C512.003,67.526,487.15,42.673,456.579,42.673z M469.337,413.916c0,7.04-5.739,12.757-12.757,12.757H362.67V85.34h93.909
				c7.019,0,12.757,5.717,12.757,12.736V413.916z"/>
			<path d="M128.003,21.333v21.333H21.337C9.539,42.667,0.003,52.224,0.003,64v384c0,11.776,9.536,21.333,21.333,21.333h106.667
				v21.333c0,11.776,9.536,21.333,21.333,21.333h42.667V0h-42.667C137.539,0,128.003,9.557,128.003,21.333z M128.003,106.667H85.337
				c-11.797,0-21.333,9.557-21.333,21.333s9.536,21.333,21.333,21.333h42.667v21.333H85.337c-11.797,0-21.333,9.557-21.333,21.333
				s9.536,21.333,21.333,21.333h42.667v21.333H85.337c-11.797,0-21.333,9.557-21.333,21.333s9.536,21.333,21.333,21.333h42.667
				v21.333H85.337c-11.797,0-21.333,9.557-21.333,21.333s9.536,21.333,21.333,21.333h42.667v21.333H85.337
				c-11.797,0-21.333,9.557-21.333,21.333s9.536,21.333,21.333,21.333h42.667v21.333H42.67V85.333h85.333V106.667z"/>
			<rect x="234.661" width="21.333" height="512"/>
		</g>
	</g>
</g>
<g>
</g>
<g>
</g>
<g>
</g>
<g>
</g>
<g>
</g>
<g>
</g>
<g>
</g>
<g>
</g>
<g>
</g>
<g>
</g>
<g>
</g>
<g>
</g>
<g>
</g>
<g>
</g>
<g>
</g>
</svg>
