<?xml version="1.0" encoding="iso-8859-1"?>
<!-- Generator: Adobe Illustrator 19.0.0, SVG Export Plug-In . SVG Version: 6.00 Build 0)  -->
<svg version="1.1" id="Layer_1" xmlns="http://www.w3.org/2000/svg" xmlns:xlink="http://www.w3.org/1999/xlink" x="0px" y="0px"
	 viewBox="0 0 512 512" style="enable-background:new 0 0 512 512;" xml:space="preserve">
<g transform="translate(1)">
	<path style="fill:#FDCC00;" d="M255.044,221.867c20.48-14.507,45.227-174.933,50.347-207.36
		c-10.24,11.947-29.013,19.627-50.347,19.627s-40.107-7.68-50.347-19.627C209.817,46.933,235.417,207.36,255.044,221.867"/>
	<g>
		<path style="fill:#FFE100;" d="M112.537,34.133l91.307-25.6c0,0,29.013,197.12,51.2,213.333V460.8l17.067,17.067l-40.107,25.6
			L84.377,460.8c0,0,2.56-197.12-7.68-243.2c-1.707-7.68,0.853-16.213,6.827-21.333C100.59,181.76,127.044,141.653,112.537,34.133"
			/>
		<path style="fill:#FFE100;" d="M397.55,34.133l-91.307-25.6c0,0-29.013,197.12-51.2,213.333V460.8l42.667,42.667l128-42.667
			c0,0-0.853-197.973,7.68-243.2c1.707-7.68-0.853-16.213-6.827-21.333C410.35,181.76,383.897,141.653,397.55,34.133"/>
	</g>
	<path style="fill:#FFA800;" d="M427.417,197.12c-17.067-14.507-43.52-55.467-29.867-162.987l-91.307-25.6c0,0,0,1.707-0.853,5.12
		l75.093,20.48C365.977,141.653,392.43,181.76,410.35,197.12c5.973,5.12,7.68,12.8,6.827,21.333
		c-9.387,44.373-8.533,242.347-8.533,242.347l-114.347,38.4l3.413,4.267l128-42.667c0,0-0.853-197.973,7.68-243.2
		C435.097,209.92,433.39,202.24,427.417,197.12"/>
	<path style="fill:#FFFFFF;" d="M82.67,197.12c17.067-14.507,43.52-55.467,29.867-162.987l91.307-25.6c0,0,0,1.707,0.853,5.12
		l-75.093,20.48c14.507,107.52-11.947,147.627-29.013,162.987c-5.973,5.12-7.68,12.8-6.827,21.333
		c8.533,44.373,7.68,242.347,7.68,242.347l114.347,38.4l-3.413,4.267l-128-42.667c0,0,0-197.973-7.68-243.2
		C74.99,209.92,76.697,202.24,82.67,197.12"/>
	<g>
		<polygon style="fill:#63D3FD;" points="323.31,401.067 391.577,401.067 391.577,366.933 323.31,366.933 		"/>
		<polygon style="fill:#63D3FD;" points="118.51,401.067 186.777,401.067 186.777,366.933 118.51,366.933 		"/>
	</g>
	<path d="M297.71,281.6c0,5.12-3.413,8.533-8.533,8.533s-8.533-3.413-8.533-8.533s3.413-8.533,8.533-8.533
		C294.297,273.067,297.71,276.48,297.71,281.6"/>
	<path d="M297.71,341.333c0,5.12-3.413,8.533-8.533,8.533s-8.533-3.413-8.533-8.533s3.413-8.533,8.533-8.533
		C294.297,332.8,297.71,336.213,297.71,341.333"/>
	<path d="M297.71,401.067c0,5.12-3.413,8.533-8.533,8.533s-8.533-3.413-8.533-8.533s3.413-8.533,8.533-8.533
		C294.297,392.533,297.71,395.947,297.71,401.067"/>
	<path d="M391.577,409.6H323.31c-5.12,0-8.533-3.413-8.533-8.533v-34.133c0-5.12,3.413-8.533,8.533-8.533h68.267
		c5.12,0,8.533,3.413,8.533,8.533v34.133C400.11,406.187,396.697,409.6,391.577,409.6z M331.844,392.533h51.2v-17.067h-51.2V392.533
		z"/>
	<path d="M186.777,409.6H118.51c-5.12,0-8.533-3.413-8.533-8.533v-34.133c0-5.12,3.413-8.533,8.533-8.533h68.267
		c5.12,0,8.533,3.413,8.533,8.533v34.133C195.31,406.187,191.897,409.6,186.777,409.6z M127.044,392.533h51.2v-17.067h-51.2
		C127.044,375.466,127.044,392.533,127.044,392.533z"/>
	<path d="M232.004,512c-0.853,0-1.707,0-2.56,0L82.67,469.333c-4.267-1.707-6.827-5.12-6.827-8.533c0-1.707,2.56-197.12-7.68-240.64
		c-2.56-11.093,0.853-22.187,9.387-29.013c16.213-14.507,40.96-52.907,27.307-156.16c-0.853-4.267,1.707-7.68,5.973-9.387L202.137,0
		c1.707,0,4.267,0,6.827,1.707s3.413,3.413,3.413,5.973c13.653,93.013,35.84,198.827,47.787,207.36
		c1.707,1.707,3.413,4.267,3.413,6.827v235.52l14.507,14.507c1.707,1.707,2.56,4.267,2.56,6.827s-1.707,5.12-4.267,5.973
		l-40.107,25.6C235.417,511.147,233.71,512,232.004,512z M93.764,454.827l137.387,40.107l28.16-17.92l-9.387-9.387
		c-2.56-2.56-3.413-4.267-3.413-6.827V225.28c-21.333-26.453-41.813-153.6-49.493-205.653l-75.093,20.48
		c12.8,105.813-14.507,147.627-33.28,162.987c-3.413,3.413-5.12,7.68-3.413,12.8C94.617,257.707,93.764,418.987,93.764,454.827z"/>
	<path d="M297.71,512c-2.56,0-4.267-0.853-5.973-2.56l-42.667-42.667c-1.707-1.707-2.56-3.413-2.56-5.973V221.867
		c0-2.56,1.707-5.12,3.413-6.827c11.947-9.387,34.133-115.2,47.787-207.36c0-2.56,1.707-4.267,3.413-5.973
		C303.684,0,306.244,0,308.804,0l91.307,25.6c4.267,0.853,6.827,5.12,5.973,9.387C392.43,138.24,417.177,176.64,432.537,190.293
		c7.68,6.827,11.947,17.92,9.387,29.013c-7.68,44.373-7.68,239.787-7.68,241.493c0,3.413-2.56,6.827-5.973,8.533L300.27,512
		C300.27,512,298.564,512,297.71,512z M263.577,457.387l36.693,36.693l116.907-39.253c0-34.133,0-197.12,7.68-238.08
		c0.853-2.56,0.853-8.533-3.413-12.8c-17.92-15.36-46.08-57.173-33.28-162.987L313.07,19.627
		c-7.68,52.907-29.013,179.2-49.493,205.653V457.387z"/>
	<path d="M255.044,230.4c-1.707,0-3.413-0.853-5.12-1.707c-19.627-14.507-40.107-123.733-53.76-213.333
		c-0.853-3.413,1.707-7.68,5.12-9.387s7.68-0.853,10.24,1.707c9.387,10.24,25.6,17.067,44.373,17.067
		c17.92,0,34.133-5.973,44.373-17.067c2.56-2.56,6.827-3.413,10.24-1.707c2.56,2.56,4.267,5.973,3.413,9.387
		c-11.093,73.387-32.427,197.973-53.76,213.333C259.31,229.547,256.75,230.4,255.044,230.4z M216.644,34.133
		c14.507,92.16,29.013,152.747,38.4,173.227c10.24-23.04,25.6-89.6,38.4-173.227c-10.24,5.12-23.893,8.533-38.4,8.533
		C241.39,42.667,227.737,39.253,216.644,34.133z"/>
</g>
<g>
</g>
<g>
</g>
<g>
</g>
<g>
</g>
<g>
</g>
<g>
</g>
<g>
</g>
<g>
</g>
<g>
</g>
<g>
</g>
<g>
</g>
<g>
</g>
<g>
</g>
<g>
</g>
<g>
</g>
</svg>
