<?xml version="1.0" encoding="iso-8859-1"?>
<!-- Generator: Adobe Illustrator 19.0.0, SVG Export Plug-In . SVG Version: 6.00 Build 0)  -->
<svg version="1.1" id="Layer_1" xmlns="http://www.w3.org/2000/svg" xmlns:xlink="http://www.w3.org/1999/xlink" x="0px" y="0px"
	 viewBox="0 0 512 512" style="enable-background:new 0 0 512 512;" xml:space="preserve">
<g transform="translate(1 1)">
	<g>
		<path style="fill:#FFE100;" d="M348.866,50.2l-93.867,102.4L161.132,50.2c0-23.893,41.813-42.667,93.867-42.667
			S348.866,26.307,348.866,50.2"/>
		<path style="fill:#FFE100;" d="M343.746,55.32l-88.747,97.28l-88.747-97.28c-3.413-3.413-7.68-5.12-12.8-5.12H67.266
			c-9.387,0-17.067,7.68-17.067,17.067V485.4c0,9.387,7.68,17.067,17.067,17.067h375.467c9.387,0,17.067-7.68,17.067-17.067V67.267
			c0-9.387-7.68-17.067-17.067-17.067h-86.187C351.426,50.2,347.159,51.907,343.746,55.32"/>
		<polygon style="fill:#FFE100;" points="295.959,108.227 323.266,169.667 382.999,50.2 348.866,50.2 		"/>
		<polygon style="fill:#FFE100;" points="214.039,108.227 186.732,169.667 126.999,50.2 161.132,50.2 		"/>
		<path style="fill:#FFE100;" d="M459.799,485.4V67.267c0-9.387-7.68-17.067-17.067-17.067h-86.187c-5.12,0-9.387,1.707-12.8,5.12
			l-88.746,97.28L144.066,502.467h298.667C452.119,502.467,459.799,494.787,459.799,485.4"/>
	</g>
	<path style="fill:#FFA800;" d="M442.732,50.2h-25.6c9.387,0,17.067,7.68,17.067,17.067V485.4c0,9.387-7.68,17.067-17.067,17.067
		h25.6c9.387,0,17.067-7.68,17.067-17.067V67.267C459.799,57.88,452.119,50.2,442.732,50.2"/>
	<path style="fill:#FFFFFF;" d="M67.266,50.2h25.6c-9.387,0-17.067,7.68-17.067,17.067V485.4c0,9.387,7.68,17.067,17.067,17.067
		h-25.6c-9.387,0-17.067-7.68-17.067-17.067V67.267C50.199,57.88,57.879,50.2,67.266,50.2"/>
	<path d="M254.999,161.133c-2.56,0-4.267-0.853-5.973-2.56l-93.867-102.4c-1.707-1.707-2.56-4.267-2.56-5.973
		c0-29.013,44.373-51.2,102.4-51.2s102.4,22.187,102.4,51.2c0,2.56-0.853,4.267-2.56,5.973l-93.867,102.4
		C259.266,160.28,257.559,161.133,254.999,161.133z M169.667,47.64l85.333,93.013l85.333-93.013
		c-4.266-15.36-39.253-31.573-85.333-31.573S173.932,32.28,169.667,47.64z"/>
	<path d="M442.732,511H67.266c-14.507,0-25.6-11.093-25.6-25.6V67.267c0-14.507,11.093-25.6,25.6-25.6h86.187
		c6.827,0,13.653,3.413,18.773,8.533l82.773,89.6l82.773-89.6c5.12-5.12,11.947-8.533,18.773-8.533h86.187
		c14.507,0,25.6,11.093,25.6,25.6V485.4C468.332,499.907,457.239,511,442.732,511z M67.266,58.733c-5.12,0-8.533,3.413-8.533,8.533
		V485.4c0,5.12,3.413,8.533,8.533,8.533h375.467c5.12,0,8.533-3.413,8.533-8.533V67.267c0-5.12-3.413-8.533-8.533-8.533h-86.187
		c-2.56,0-4.267,0.853-5.973,2.56l-89.6,97.28c-3.413,3.413-9.387,3.413-12.8,0l-87.893-97.28c-1.707-1.707-4.267-2.56-6.827-2.56
		H67.266V58.733z"/>
	<path d="M323.266,178.2L323.266,178.2c-3.413,0-6.827-1.707-7.68-5.12l-27.307-61.44c-1.707-3.413-0.853-6.827,1.707-9.387
		l52.907-58.027c1.707-1.707,3.413-2.56,5.973-2.56h34.133c2.56,0,5.973,1.707,7.68,4.267s1.707,5.973,0,8.533l-59.733,119.467
		C329.239,176.493,326.679,178.2,323.266,178.2z M306.199,109.933l17.92,40.107l45.227-91.307h-16.213L306.199,109.933z"/>
	<path d="M186.732,178.2c-3.413,0-5.973-1.707-7.68-5.12L119.319,53.613c-0.853-2.56-0.853-5.12,0-7.68
		c1.707-2.56,5.12-4.267,7.68-4.267h34.133c2.56,0,4.267,0.853,5.973,2.56l52.907,58.027c2.56,2.56,2.56,5.973,1.707,9.387
		l-27.307,61.44C193.559,176.493,190.146,178.2,186.732,178.2L186.732,178.2z M140.652,58.733l45.227,91.307l17.92-40.107
		l-46.933-51.2L140.652,58.733L140.652,58.733z"/>
	<path d="M280.599,203.8c0,5.12-3.413,8.533-8.533,8.533s-8.533-3.413-8.533-8.533c0-5.12,3.413-8.533,8.533-8.533
		S280.599,198.68,280.599,203.8"/>
	<path d="M263.532,263.533c0,5.12-3.413,8.533-8.533,8.533c-5.12,0-8.533-3.413-8.533-8.533s3.413-8.533,8.533-8.533
		C260.119,255,263.532,258.413,263.532,263.533"/>
	<path d="M246.466,323.267c0,5.12-3.413,8.533-8.533,8.533c-5.12,0-8.533-3.413-8.533-8.533s3.413-8.533,8.533-8.533
		C243.052,314.733,246.466,318.147,246.466,323.267"/>
	<path d="M229.399,383c0,5.12-3.413,8.533-8.533,8.533c-5.12,0-8.533-3.413-8.533-8.533s3.413-8.533,8.533-8.533
		S229.399,377.88,229.399,383"/>
	<path d="M212.332,442.733c0,5.12-3.413,8.533-8.533,8.533c-5.12,0-8.533-3.413-8.533-8.533s3.413-8.533,8.533-8.533
		S212.332,437.613,212.332,442.733"/>
	<path d="M442.732,511H144.066c-2.56,0-5.12-1.707-6.827-3.413c-1.707-2.56-1.707-5.12-1.707-7.68L246.466,150.04
		c0-0.853,0.853-2.56,1.707-3.413l89.6-96.427c5.12-5.12,11.947-8.533,18.773-8.533h86.187c14.507,0,25.6,11.093,25.6,25.6V485.4
		C468.332,499.907,457.239,511,442.732,511z M156.012,493.933h286.72c5.12,0,8.533-3.413,8.533-8.533V67.267
		c0-5.12-3.413-8.533-8.533-8.533h-86.187c-2.56,0-4.267,0.853-5.973,2.56l-87.893,95.573L156.012,493.933z"/>
	<path d="M365.932,297.667c-5.12,0-8.533-3.413-8.533-8.533c0-18.773-15.36-34.133-34.133-34.133c-5.12,0-8.533-3.413-8.533-8.533
		c0-5.12,3.413-8.533,8.533-8.533c17.92,0,33.28,9.387,42.667,23.04c9.387-13.653,24.747-23.04,42.667-23.04
		c5.12,0,8.533,3.413,8.533,8.533c0,5.12-3.413,8.533-8.533,8.533c-18.773,0-34.133,15.36-34.133,34.133
		C374.466,294.253,371.052,297.667,365.932,297.667z"/>
</g>
<g>
</g>
<g>
</g>
<g>
</g>
<g>
</g>
<g>
</g>
<g>
</g>
<g>
</g>
<g>
</g>
<g>
</g>
<g>
</g>
<g>
</g>
<g>
</g>
<g>
</g>
<g>
</g>
<g>
</g>
</svg>
