<?xml version="1.0" encoding="iso-8859-1"?>
<!-- Generator: Adobe Illustrator 19.0.0, SVG Export Plug-In . SVG Version: 6.00 Build 0)  -->
<svg version="1.1" id="Layer_1" xmlns="http://www.w3.org/2000/svg" xmlns:xlink="http://www.w3.org/1999/xlink" x="0px" y="0px"
	 viewBox="0 0 512 512" style="enable-background:new 0 0 512 512;" xml:space="preserve">
<g>
	<g>
		<path d="M340.544,252.843c35.191-26.529,56.005-68.02,56.005-112.294C396.549,63.049,333.5,0,256,0
			S115.451,63.049,115.451,140.549c0,44.274,20.814,85.765,56.005,112.284l-45.799,247.304c-0.544,2.931,0.245,5.951,2.157,8.245
			c1.907,2.294,4.735,3.618,7.716,3.618h240.941c2.98,0,5.809-1.323,7.716-3.618c1.912-2.294,2.701-5.314,2.157-8.245
			L340.544,252.843z M147.598,491.922l44.76-241.696c0.721-3.902-0.927-7.872-4.211-10.117
			c-32.946-22.5-52.618-59.716-52.618-99.559c0-66.431,54.044-120.471,120.471-120.471s120.471,54.039,120.471,120.471
			c0,39.843-19.672,77.059-52.618,99.559c-3.284,2.245-4.931,6.216-4.211,10.118l44.76,241.696H147.598z"/>
	</g>
</g>
<g>
	<g>
		<path d="M344.348,124.481C323.26,96.412,291.059,80.314,256,80.314c-35.064,0-67.265,16.098-88.348,44.167
			c-2.681,3.568-2.681,8.49,0,12.059c21.083,28.069,53.284,44.167,88.348,44.167c35.059,0,67.26-16.098,88.348-44.167
			C347.034,132.971,347.034,128.049,344.348,124.481z M208.935,147.395c-7.457-4.566-14.322-10.184-20.293-16.885
			c5.971-6.701,12.836-12.319,20.293-16.885c-1.909,5.301-3.131,10.934-3.131,16.885S207.024,142.093,208.935,147.395z M256,160.627
			c-16.608,0-30.118-13.51-30.118-30.118c0-16.608,13.51-30.118,30.118-30.118s30.118,13.51,30.118,30.118
			C286.118,147.118,272.608,160.627,256,160.627z M303.064,147.397c1.91-5.304,3.132-10.936,3.132-16.887
			s-1.222-11.583-3.132-16.885c7.459,4.566,14.326,10.181,20.299,16.885C317.39,137.213,310.523,142.828,303.064,147.397z"/>
	</g>
</g>
<g>
</g>
<g>
</g>
<g>
</g>
<g>
</g>
<g>
</g>
<g>
</g>
<g>
</g>
<g>
</g>
<g>
</g>
<g>
</g>
<g>
</g>
<g>
</g>
<g>
</g>
<g>
</g>
<g>
</g>
</svg>
