<?xml version="1.0" encoding="iso-8859-1"?>
<!-- Generator: Adobe Illustrator 19.0.0, SVG Export Plug-In . SVG Version: 6.00 Build 0)  -->
<svg version="1.1" id="Capa_1" xmlns="http://www.w3.org/2000/svg" xmlns:xlink="http://www.w3.org/1999/xlink" x="0px" y="0px"
	 viewBox="0 0 60 60" style="enable-background:new 0 0 60 60;" xml:space="preserve">
<g>
	<g>
		<path d="M46,16c0,0.6,0.4,1,1,1h9v-2h-8v-5c0-5.5-4.5-10-10-10H10C4.5,0,0,4.5,0,10v50h2V10c0-4.4,3.6-8,8-8h28c4.4,0,8,3.6,8,8
			V16z"/>
		<path d="M46,33c0,0.6,0.4,1,1,1h7v-2h-6v-2h-2V33z"/>
		<path d="M46,23v3h2v-2h3v-2h-4C46.4,22,46,22.4,46,23z"/>
		<path d="M48,53h4v-2h-5c-0.6,0-1,0.4-1,1v7c0,0.6,0.4,1,1,1h7v-2h-6V53z"/>
		<path d="M48,41h6v-2h-7c-0.6,0-1,0.4-1,1v6c0,0.6,0.4,1,1,1h13v-2H48V41z"/>
		<rect x="23" y="51" width="2" height="9"/>
		<rect x="14" y="51" width="2" height="9"/>
		<rect x="6" y="51" width="2" height="9"/>
		<rect x="32" y="51" width="2" height="9"/>
		<rect x="40" y="51" width="2" height="9"/>
		<path d="M13,12c-3.3,0-6,2.7-6,6s2.7,6,6,6s6-2.7,6-6S16.3,12,13,12z M13,22c-2.2,0-4-1.8-4-4s1.8-4,4-4s4,1.8,4,4S15.2,22,13,22z
			"/>
		<path d="M35,12c-3.3,0-6,2.7-6,6s2.7,6,6,6s6-2.7,6-6S38.3,12,35,12z M35,22c-2.2,0-4-1.8-4-4s1.8-4,4-4s4,1.8,4,4S37.2,22,35,22z
			"/>
		<path d="M29,41H18v2h12c0.6,0,1-0.4,1-1v-3h-2V41z"/>
		<rect x="56" y="39" width="2" height="2"/>
		<rect x="56" y="32" width="4" height="2"/>
		<rect x="58" y="15" width="2" height="2"/>
		<rect x="58" y="22" width="2" height="2"/>
		<rect x="54" y="22" width="2" height="2"/>
		<rect x="56" y="58" width="4" height="2"/>
		<rect x="51" y="27" width="2" height="2"/>
		<rect x="56" y="27" width="2" height="2"/>
		<rect x="51" y="10" width="2" height="2"/>
		<rect x="56" y="10" width="2" height="2"/>
		<rect x="54" y="51" width="2" height="2"/>
		<rect x="58" y="51" width="2" height="2"/>
	</g>
</g>
<g>
</g>
<g>
</g>
<g>
</g>
<g>
</g>
<g>
</g>
<g>
</g>
<g>
</g>
<g>
</g>
<g>
</g>
<g>
</g>
<g>
</g>
<g>
</g>
<g>
</g>
<g>
</g>
<g>
</g>
</svg>
