<?xml version="1.0" encoding="iso-8859-1"?>
<!-- Generator: Adobe Illustrator 19.0.0, SVG Export Plug-In . SVG Version: 6.00 Build 0)  -->
<svg version="1.1" id="Layer_1" xmlns="http://www.w3.org/2000/svg" xmlns:xlink="http://www.w3.org/1999/xlink" x="0px" y="0px"
	 viewBox="0 0 512 512" style="enable-background:new 0 0 512 512;" xml:space="preserve">
<path style="fill:#85878D;" d="M322.783,300.522H189.217c-9.217,0-16.696-7.473-16.696-16.696V183.652
	c0-9.223,7.479-16.696,16.696-16.696h133.565c9.217,0,16.696,7.473,16.696,16.696v100.174
	C339.478,293.049,332,300.522,322.783,300.522z"/>
<path style="fill:#7E7F85;" d="M322.783,166.957H256v133.565h66.783c9.217,0,16.696-7.473,16.696-16.696V183.652
	C339.478,174.429,332,166.957,322.783,166.957z"/>
<path style="fill:#85878D;" d="M155.826,166.957H89.043c-9.217,0-16.696-7.473-16.696-16.696V83.478
	c0-9.223,7.479-16.696,16.696-16.696h66.783c9.217,0,16.696,7.473,16.696,16.696v66.783
	C172.522,159.484,165.043,166.957,155.826,166.957z"/>
<path style="fill:#7E7F85;" d="M155.826,66.783h-33.391v100.174h33.391c9.217,0,16.696-7.473,16.696-16.696V83.478
	C172.522,74.256,165.043,66.783,155.826,66.783z"/>
<path style="fill:#85878D;" d="M239.304,422.957c0,0-33.294-111.032-33.391-111.304H38.957
	C38.86,311.925,5.565,422.957,5.565,422.957H239.304z"/>
<path style="fill:#7E7F85;" d="M122.435,422.957h116.87c0,0-33.294-111.032-33.391-111.304h-83.478V422.957z"/>
<path style="fill:#696B6F;" d="M189.217,100.174H55.652c-9.217,0-16.696-7.473-16.696-16.696V16.696C38.957,7.473,46.435,0,55.652,0
	h133.565c9.217,0,16.696,7.473,16.696,16.696v66.783C205.913,92.701,198.435,100.174,189.217,100.174z"/>
<path style="fill:#616267;" d="M189.217,0h-66.783v100.174h66.783c9.217,0,16.696-7.473,16.696-16.696V16.696
	C205.913,7.473,198.435,0,189.217,0z"/>
<path style="fill:#696B6F;" d="M205.913,311.652V150.261c0-9.223-7.479-16.696-16.696-16.696H55.652
	c-9.217,0-16.696,7.473-16.696,16.696v161.391H205.913z"/>
<path style="fill:#616267;" d="M189.217,133.565h-66.783v178.087h83.478V150.261C205.913,141.038,198.435,133.565,189.217,133.565z"
	/>
<path style="fill:#696B6F;" d="M5.565,422.957v72.348c0,9.22,7.475,16.696,16.696,16.696h200.348c9.22,0,16.696-7.475,16.696-16.696
	v-72.348H5.565z"/>
<path style="fill:#616267;" d="M122.435,512h100.174c9.22,0,16.696-7.475,16.696-16.696v-72.348h-116.87V512z"/>
<path style="fill:#85878D;" d="M422.957,166.957h-66.783c-9.217,0-16.696-7.473-16.696-16.696V83.478
	c0-9.223,7.479-16.696,16.696-16.696h66.783c9.217,0,16.696,7.473,16.696,16.696v66.783
	C439.652,159.484,432.174,166.957,422.957,166.957z"/>
<path style="fill:#7E7F85;" d="M422.957,66.783h-33.391v100.174h33.391c9.217,0,16.696-7.473,16.696-16.696V83.478
	C439.652,74.256,432.174,66.783,422.957,66.783z"/>
<path style="fill:#85878D;" d="M506.435,422.957c0,0-33.294-111.032-33.391-111.304H306.087
	c-0.097,0.273-33.391,111.304-33.391,111.304H506.435z"/>
<path style="fill:#7E7F85;" d="M389.565,422.957h116.87c0,0-33.294-111.032-33.391-111.304h-83.478V422.957z"/>
<path style="fill:#696B6F;" d="M456.348,100.174H322.783c-9.217,0-16.696-7.473-16.696-16.696V16.696
	C306.087,7.473,313.565,0,322.783,0h133.565c9.217,0,16.696,7.473,16.696,16.696v66.783
	C473.043,92.701,465.565,100.174,456.348,100.174z"/>
<path style="fill:#616267;" d="M456.348,0h-66.783v100.174h66.783c9.217,0,16.696-7.473,16.696-16.696V16.696
	C473.043,7.473,465.565,0,456.348,0z"/>
<path style="fill:#696B6F;" d="M473.043,311.652V150.261c0-9.223-7.479-16.696-16.696-16.696H322.783
	c-9.217,0-16.696,7.473-16.696,16.696v161.391H473.043z"/>
<path style="fill:#616267;" d="M456.348,133.565h-66.783v178.087h83.478V150.261C473.043,141.038,465.565,133.565,456.348,133.565z"
	/>
<path style="fill:#696B6F;" d="M272.696,422.957v72.348c0,9.22,7.475,16.696,16.696,16.696h200.348
	c9.22,0,16.696-7.475,16.696-16.696v-72.348H272.696z"/>
<path style="fill:#616267;" d="M389.565,512h100.174c9.22,0,16.696-7.475,16.696-16.696v-72.348h-116.87V512z"/>
<g>
</g>
<g>
</g>
<g>
</g>
<g>
</g>
<g>
</g>
<g>
</g>
<g>
</g>
<g>
</g>
<g>
</g>
<g>
</g>
<g>
</g>
<g>
</g>
<g>
</g>
<g>
</g>
<g>
</g>
</svg>
