<?xml version="1.0" encoding="iso-8859-1"?>
<!-- Generator: Adobe Illustrator 19.0.0, SVG Export Plug-In . SVG Version: 6.00 Build 0)  -->
<svg version="1.1" id="Layer_1" xmlns="http://www.w3.org/2000/svg" xmlns:xlink="http://www.w3.org/1999/xlink" x="0px" y="0px"
	 viewBox="0 0 512 512" style="enable-background:new 0 0 512 512;" xml:space="preserve">
<g>
	<path style="fill:#FFA733;" d="M222.609,166.957H66.783c-4.424,0-8.674-1.761-11.804-4.892L4.892,111.978
		c-6.521-6.516-6.521-17.092,0-23.609l50.087-50.087c3.13-3.13,7.379-4.891,11.804-4.891h155.826
		c9.217,0,16.696,7.473,16.696,16.696v100.174C239.304,159.484,231.826,166.957,222.609,166.957z"/>
	<path style="fill:#FFA733;" d="M222.609,400.696H66.783c-4.424,0-8.674-1.761-11.804-4.892L4.892,345.717
		c-6.521-6.516-6.521-17.092,0-23.609l50.087-50.087c3.13-3.13,7.379-4.891,11.804-4.891h155.826
		c9.217,0,16.696,7.473,16.696,16.696V384C239.304,393.223,231.826,400.696,222.609,400.696z"/>
</g>
<path style="fill:#E58613;" d="M445.217,300.522H289.391c-9.217,0-16.696-7.473-16.696-16.696V183.652
	c0-9.223,7.479-16.696,16.696-16.696h155.826c4.424,0,8.674,1.761,11.804,4.892l50.087,50.087c6.521,6.516,6.521,17.092,0,23.609
	l-50.087,50.087C453.891,298.761,449.642,300.522,445.217,300.522z"/>
<path style="fill:#946346;" d="M289.391,512h-66.783c-9.217,0-16.696-7.473-16.696-16.696V50.087C205.913,22.468,228.381,0,256,0
	c27.619,0,50.087,22.468,50.087,50.087v445.217C306.087,504.527,298.608,512,289.391,512z"/>
<path style="fill:#895B41;" d="M289.391,512c9.217,0,16.696-7.473,16.696-16.696V50.087C306.087,22.468,283.619,0,256,0v512H289.391
	z"/>
<path style="fill:#696B6F;" d="M356.174,512H155.826c-9.217,0-16.696-7.473-16.696-16.696s7.479-16.696,16.696-16.696h200.348
	c9.217,0,16.696,7.473,16.696,16.696S365.391,512,356.174,512z"/>
<path style="fill:#616267;" d="M356.174,478.609H256V512h100.174c9.217,0,16.696-7.473,16.696-16.696
	S365.391,478.609,356.174,478.609z"/>
<g>
</g>
<g>
</g>
<g>
</g>
<g>
</g>
<g>
</g>
<g>
</g>
<g>
</g>
<g>
</g>
<g>
</g>
<g>
</g>
<g>
</g>
<g>
</g>
<g>
</g>
<g>
</g>
<g>
</g>
</svg>
