<?xml version="1.0" encoding="iso-8859-1"?>
<!-- Generator: Adobe Illustrator 19.0.0, SVG Export Plug-In . SVG Version: 6.00 Build 0)  -->
<svg version="1.1" id="Layer_1" xmlns="http://www.w3.org/2000/svg" xmlns:xlink="http://www.w3.org/1999/xlink" x="0px" y="0px"
	 viewBox="0 0 512 512" style="enable-background:new 0 0 512 512;" xml:space="preserve">
<g transform="translate(1 1)">
	<path style="fill:#FCC309;" d="M92.867,255c0,42.667-15.36,76.8-34.133,76.8S24.6,297.667,24.6,255s15.36-76.8,34.133-76.8
		S92.867,212.333,92.867,255"/>
	<path style="fill:#FFFFFF;" d="M24.6,255c0-39.253,13.653-71.68,30.72-75.947c-1.707-0.853-3.413-0.853-5.12-0.853
		c-23.04,0-42.667,34.133-42.667,76.8s18.773,76.8,42.667,76.8c1.707,0,3.413,0,5.12-0.853C38.253,326.68,24.6,294.253,24.6,255"/>
	<path style="fill:#FFDD09;" d="M434.2,178.2h-384c23.893,0,42.667,34.133,42.667,76.8S74.093,331.8,50.2,331.8h384
		c23.893,0,42.667-34.133,42.667-76.8S458.093,178.2,434.2,178.2"/>
	<path style="fill:#FD9808;" d="M459.8,178.2h-25.6c23.893,0,42.667,34.133,42.667,76.8s-18.773,76.8-42.667,76.8h25.6
		c23.893,0,42.667-34.133,42.667-76.8S483.693,178.2,459.8,178.2"/>
	<path d="M50.2,340.333C21.187,340.333-1,302.787-1,255s23.04-85.333,51.2-85.333s51.2,37.547,51.2,85.333
		S79.213,340.333,50.2,340.333z M50.2,186.733c-16.213,0-34.133,28.16-34.133,68.267s17.92,68.267,34.133,68.267
		S84.333,295.107,84.333,255S66.413,186.733,50.2,186.733z"/>
	<path d="M50.2,301.933c-2.56,0-5.973-1.707-7.68-4.267c-2.56-5.12-9.387-19.627-9.387-42.667s6.827-37.547,9.387-42.667
		c2.56-4.267,7.68-5.12,11.947-3.413c4.267,2.56,5.973,7.68,3.413,11.947c-2.56,4.267-7.68,15.36-7.68,34.133
		s5.12,29.867,7.68,34.133c2.56,4.267,0.853,9.387-3.413,11.947C53.613,301.933,51.907,301.933,50.2,301.933z"/>
	<path d="M459.8,340.333H50.2c-5.12,0-8.533-3.413-8.533-8.533s3.413-8.533,8.533-8.533c16.213,0,34.133-28.16,34.133-68.267
		s-17.92-68.267-34.133-68.267c-4.267,0-8.533-3.413-8.533-8.533c0-5.12,3.413-8.533,8.533-8.533h409.6
		c29.013,0,51.2,37.547,51.2,85.333S488.813,340.333,459.8,340.333z M81.773,323.267H459.8c16.213,0,34.133-28.16,34.133-68.267
		s-17.92-68.267-34.133-68.267H81.773C93.72,202.093,101.4,226.84,101.4,255S93.72,307.907,81.773,323.267z"/>
	<path d="M161.133,220.867H86.04c-5.12,0-8.533-3.413-8.533-8.533s3.413-8.533,8.533-8.533h75.093c5.12,0,8.533,3.413,8.533,8.533
		S166.253,220.867,161.133,220.867z"/>
	<path d="M331.8,220.867H195.267c-5.12,0-8.533-3.413-8.533-8.533s3.413-8.533,8.533-8.533H331.8c5.12,0,8.533,3.413,8.533,8.533
		S336.92,220.867,331.8,220.867z"/>
	<path d="M495.64,220.867H365.933c-5.12,0-8.533-3.413-8.533-8.533s3.413-8.533,8.533-8.533H495.64c5.12,0,8.533,3.413,8.533,8.533
		S499.907,220.867,495.64,220.867z"/>
	<path d="M289.133,263.533h-25.6c-5.12,0-8.533-3.413-8.533-8.533s3.413-8.533,8.533-8.533h25.6c5.12,0,8.533,3.413,8.533,8.533
		S294.253,263.533,289.133,263.533z"/>
	<path d="M212.333,263.533H127c-5.12,0-8.533-3.413-8.533-8.533s3.413-8.533,8.533-8.533h85.333c5.12,0,8.533,3.413,8.533,8.533
		S217.453,263.533,212.333,263.533z"/>
	<path d="M374.467,263.533h-51.2c-5.12,0-8.533-3.413-8.533-8.533s3.413-8.533,8.533-8.533h51.2c5.12,0,8.533,3.413,8.533,8.533
		S379.587,263.533,374.467,263.533z"/>
	<path d="M502.467,263.533h-85.333c-5.12,0-8.533-3.413-8.533-8.533s3.413-8.533,8.533-8.533h85.333c5.12,0,8.533,3.413,8.533,8.533
		S507.587,263.533,502.467,263.533z"/>
	<path d="M169.667,306.2H86.04c-5.12,0-8.533-3.413-8.533-8.533s3.413-8.533,8.533-8.533h83.627c5.12,0,8.533,3.413,8.533,8.533
		S174.787,306.2,169.667,306.2z"/>
	<path d="M451.267,306.2H383c-5.12,0-8.533-3.413-8.533-8.533s3.413-8.533,8.533-8.533h68.267c5.12,0,8.533,3.413,8.533,8.533
		S456.387,306.2,451.267,306.2z"/>
	<path d="M323.267,306.2h-102.4c-5.12,0-8.533-3.413-8.533-8.533s3.413-8.533,8.533-8.533h102.4c5.12,0,8.533,3.413,8.533,8.533
		S328.387,306.2,323.267,306.2z"/>
</g>
<g>
</g>
<g>
</g>
<g>
</g>
<g>
</g>
<g>
</g>
<g>
</g>
<g>
</g>
<g>
</g>
<g>
</g>
<g>
</g>
<g>
</g>
<g>
</g>
<g>
</g>
<g>
</g>
<g>
</g>
</svg>
