<?xml version="1.0" encoding="iso-8859-1"?>
<!-- Generator: Adobe Illustrator 19.0.0, SVG Export Plug-In . SVG Version: 6.00 Build 0)  -->
<svg version="1.1" id="Layer_1" xmlns="http://www.w3.org/2000/svg" xmlns:xlink="http://www.w3.org/1999/xlink" x="0px" y="0px"
	 viewBox="0 0 512 512" style="enable-background:new 0 0 512 512;" xml:space="preserve">
<g transform="translate(1 1)">
	<path style="fill:#FFDD09;" d="M347.16,502.467H162.84c-7.68,0-13.653-6.827-13.653-16.213l-13.653-273.92h238.933l-13.653,273.92
		C360.813,495.64,354.84,502.467,347.16,502.467"/>
	<path style="fill:#FD9808;" d="M374.467,212.333l-13.653,273.92c-0.853,9.387-6.827,16.213-13.653,16.213h19.627
		c9.387,0,16.213-6.827,17.067-16.213l16.213-273.92H374.467z"/>
	<path style="fill:#FFFFFF;" d="M149.187,486.253l-13.653-273.92h-25.6l16.213,273.92c0.853,9.387,7.68,16.213,17.067,16.213h19.627
		C155.16,502.467,149.187,495.64,149.187,486.253"/>
	<path style="fill:#54C9FD;" d="M186.733,314.733h136.533v-68.267H186.733V314.733z"/>
	<path style="fill:#FCC309;" d="M408.6,212.333H101.4c-5.12,0-8.533-3.413-8.533-8.533v-34.133c0-5.12,3.413-8.533,8.533-8.533
		h307.2c5.12,0,8.533,3.413,8.533,8.533V203.8C417.133,208.92,413.72,212.333,408.6,212.333"/>
	<path style="fill:#FFDD09;" d="M451.267,203.8h-34.133c-5.12,0-8.533-3.413-8.533-8.533c0-5.12,3.413-8.533,8.533-8.533h25.6
		C438.467,97.987,365.933,24.6,280.6,24.6h-51.2c-85.333,0-157.013,73.387-162.133,162.133h25.6c5.12,0,8.533,3.413,8.533,8.533
		c0,5.12-3.413,8.533-8.533,8.533H58.733c-5.12,0-8.533-3.413-8.533-8.533C50.2,93.72,132.12,7.533,229.4,7.533h51.2
		c97.28,0,179.2,86.187,179.2,187.733C459.8,200.387,456.387,203.8,451.267,203.8z"/>
	<path d="M144.067,408.6h-23.04c-5.12,0-8.533-3.413-8.533-8.533s3.413-8.533,8.533-8.533h23.04c5.12,0,8.533,3.413,8.533,8.533
		S149.187,408.6,144.067,408.6z"/>
	<path d="M366.787,511H143.213c-13.653,0-24.747-10.24-25.6-23.893L101.4,213.187c0-2.56,0.853-4.267,2.56-5.973
		c1.707-1.707,3.413-3.413,5.973-3.413h290.133c2.56,0,4.267,0.853,5.973,2.56c1.707,1.707,2.56,4.267,2.56,5.973l-16.213,273.92
		C391.533,500.76,380.44,511,366.787,511z M119.32,220.867l15.36,265.387c0,4.267,4.267,7.68,8.533,7.68h223.573
		c4.267,0,8.533-3.413,8.533-7.68l16.213-265.387H119.32z"/>
	<path d="M408.6,220.867H101.4c-9.387,0-17.067-7.68-17.067-17.067v-34.133c0-9.387,7.68-17.067,17.067-17.067h307.2
		c9.387,0,17.067,7.68,17.067,17.067V203.8C425.667,213.187,417.987,220.867,408.6,220.867z M101.4,169.667V203.8h307.2v-34.133
		H101.4z"/>
	<path d="M451.267,195.267h-34.133c-5.12,0-8.533-3.413-8.533-8.533c0-5.12,3.413-8.533,8.533-8.533h25.6
		c-4.267-88.747-76.8-162.133-162.133-162.133h-51.2c-85.333,0-157.013,73.387-162.133,162.133h25.6c5.12,0,8.533,3.413,8.533,8.533
		c0,5.12-3.413,8.533-8.533,8.533H58.733c-5.12,0-8.533-3.413-8.533-8.533C50.2,85.187,132.12-1,229.4-1h51.2
		c97.28,0,179.2,86.187,179.2,187.733C459.8,191.853,456.387,195.267,451.267,195.267z"/>
	<path d="M178.2,476.867h-52.907c-5.12,0-8.533-3.413-8.533-8.533c0-5.12,3.413-8.533,8.533-8.533H178.2
		c5.12,0,8.533,3.413,8.533,8.533C186.733,473.453,183.32,476.867,178.2,476.867z"/>
	<path d="M161.133,442.733h-38.4c-5.12,0-8.533-3.413-8.533-8.533c0-5.12,3.413-8.533,8.533-8.533h38.4
		c5.12,0,8.533,3.413,8.533,8.533C169.667,439.32,166.253,442.733,161.133,442.733z"/>
	<path d="M388.973,408.6H331.8c-5.12,0-8.533-3.413-8.533-8.533s3.413-8.533,8.533-8.533h57.173c5.12,0,8.533,3.413,8.533,8.533
		S394.093,408.6,388.973,408.6z"/>
	<path d="M385.56,476.867h-19.627c-5.12,0-8.533-3.413-8.533-8.533c0-5.12,3.413-8.533,8.533-8.533h18.773
		c5.12,0,8.533,3.413,8.533,8.533C393.24,473.453,389.827,476.867,385.56,476.867z"/>
	<path d="M387.267,442.733h-38.4c-5.12,0-8.533-3.413-8.533-8.533c0-5.12,3.413-8.533,8.533-8.533h38.4
		c5.12,0,8.533,3.413,8.533,8.533C395.8,439.32,391.533,442.733,387.267,442.733z"/>
	<path d="M323.267,323.267H186.733c-5.12,0-8.533-3.413-8.533-8.533v-68.267c0-5.12,3.413-8.533,8.533-8.533h136.533
		c5.12,0,8.533,3.413,8.533,8.533v68.267C331.8,319.853,328.387,323.267,323.267,323.267z M195.267,306.2h119.467V255H195.267V306.2
		z"/>
	<path d="M289.133,289.133h-68.267c-5.12,0-8.533-3.413-8.533-8.533c0-5.12,3.413-8.533,8.533-8.533h68.267
		c5.12,0,8.533,3.413,8.533,8.533S294.253,289.133,289.133,289.133z"/>
</g>
<g>
</g>
<g>
</g>
<g>
</g>
<g>
</g>
<g>
</g>
<g>
</g>
<g>
</g>
<g>
</g>
<g>
</g>
<g>
</g>
<g>
</g>
<g>
</g>
<g>
</g>
<g>
</g>
<g>
</g>
</svg>
