<?xml version="1.0" encoding="iso-8859-1"?>
<!-- Generator: Adobe Illustrator 19.0.0, SVG Export Plug-In . SVG Version: 6.00 Build 0)  -->
<svg version="1.1" id="Layer_1" xmlns="http://www.w3.org/2000/svg" xmlns:xlink="http://www.w3.org/1999/xlink" x="0px" y="0px"
	 viewBox="0 0 512 512" style="enable-background:new 0 0 512 512;" xml:space="preserve">
<g transform="translate(1 1)">
	<path style="fill:#FFDD09;" d="M75.8,468.333h358.4V41.667H75.8V468.333z"/>
	<path style="fill:#FFFFFF;" d="M58.733,468.333H75.8V41.667H58.733V468.333z"/>
	<path style="fill:#FD9808;" d="M434.2,468.333h17.067V41.667H434.2V468.333z"/>
	<path style="fill:#FFDD09;" d="M442.733,468.333H67.267V485.4c0,9.387,7.68,17.067,17.067,17.067h341.333
		c9.387,0,17.067-7.68,17.067-17.067V468.333z"/>
	<path style="fill:#FFFFFF;" d="M67.267,485.4v-17.067h-25.6V485.4c0,9.387,7.68,17.067,17.067,17.067h25.6
		C74.947,502.467,67.267,494.787,67.267,485.4"/>
	<path style="fill:#FD9808;" d="M442.733,468.333V485.4c0,9.387-7.68,17.067-17.067,17.067h25.6c9.387,0,17.067-7.68,17.067-17.067
		v-17.067H442.733z"/>
	<path style="fill:#FFDD09;" d="M425.667,7.533H84.333c-9.387,0-17.067,7.68-17.067,17.067s7.68,17.067,17.067,17.067h341.333
		c9.387,0,17.067-7.68,17.067-17.067S435.053,7.533,425.667,7.533"/>
	<path style="fill:#FD9808;" d="M451.267,41.667c9.387,0,17.067-7.68,17.067-17.067s-7.68-17.067-17.067-17.067h-25.6
		c9.387,0,17.067,7.68,17.067,17.067s-7.68,17.067-17.067,17.067"/>
	<path style="fill:#FFFFFF;" d="M84.333,41.667c-9.387,0-17.067-7.68-17.067-17.067s7.68-17.067,17.067-17.067h-25.6
		c-9.387,0-17.067,7.68-17.067,17.067s7.68,17.067,17.067,17.067"/>
	<path style="fill:#54C9FD;" d="M92.867,468.333h324.267V75.8H92.867V468.333z"/>
	<path style="fill:#33A9F8;" d="M391.533,468.333h25.6v-256h-25.6V468.333z"/>
	<g>
		<path style="fill:#FD9808;" d="M280.6,272.067c0-14.507-11.093-25.6-25.6-25.6c-14.507,0-25.6,11.093-25.6,25.6
			s11.093,25.6,25.6,25.6C269.507,297.667,280.6,286.573,280.6,272.067"/>
		<path style="fill:#FD9808;" d="M92.867,212.333h324.267V75.8H92.867V212.333z"/>
	</g>
	<path d="M41.667,476.867H24.6c-5.12,0-8.533-3.413-8.533-8.533c0-5.12,3.413-8.533,8.533-8.533h17.067
		c5.12,0,8.533,3.413,8.533,8.533C50.2,473.453,46.787,476.867,41.667,476.867z"/>
	<path d="M451.267,476.867H58.733c-5.12,0-8.533-3.413-8.533-8.533V41.667c0-5.12,3.413-8.533,8.533-8.533h392.533
		c5.12,0,8.533,3.413,8.533,8.533v426.667C459.8,473.453,456.387,476.867,451.267,476.867z M67.267,459.8h375.467V50.2H67.267V459.8
		z"/>
	<path d="M417.133,476.867H92.867c-5.12,0-8.533-3.413-8.533-8.533V75.8c0-5.12,3.413-8.533,8.533-8.533h324.267
		c5.12,0,8.533,3.413,8.533,8.533v392.533C425.667,473.453,422.253,476.867,417.133,476.867z M101.4,459.8h307.2V84.333H101.4V459.8
		z"/>
	<path d="M451.267,511H58.733c-14.507,0-25.6-11.093-25.6-25.6v-17.067c0-5.12,3.413-8.533,8.533-8.533h426.667
		c5.12,0,8.533,3.413,8.533,8.533V485.4C476.867,499.907,465.773,511,451.267,511z M50.2,476.867v8.533
		c0,5.12,3.413,8.533,8.533,8.533h392.533c5.12,0,8.533-3.413,8.533-8.533v-8.533H50.2z"/>
	<path d="M451.267,50.2H58.733c-13.653,0-25.6-11.093-25.6-25.6S44.227-1,58.733-1h392.533c14.507,0,25.6,11.093,25.6,25.6
		S465.773,50.2,451.267,50.2z M58.733,16.067c-4.267,0-8.533,4.267-8.533,8.533s3.413,8.533,8.533,8.533h392.533
		c5.12,0,8.533-3.413,8.533-8.533s-3.413-8.533-8.533-8.533H58.733z"/>
	<path d="M485.4,476.867h-17.067c-5.12,0-8.533-3.413-8.533-8.533c0-5.12,3.413-8.533,8.533-8.533H485.4
		c5.12,0,8.533,3.413,8.533,8.533C493.933,473.453,490.52,476.867,485.4,476.867z"/>
	<path d="M417.133,220.867H92.867c-5.12,0-8.533-3.413-8.533-8.533V75.8c0-5.12,3.413-8.533,8.533-8.533h324.267
		c5.12,0,8.533,3.413,8.533,8.533v136.533C425.667,217.453,422.253,220.867,417.133,220.867z M101.4,203.8h307.2V84.333H101.4V203.8
		z"/>
	<path d="M255,255c-5.12,0-8.533-3.413-8.533-8.533v-34.133c0-5.12,3.413-8.533,8.533-8.533s8.533,3.413,8.533,8.533v34.133
		C263.533,250.733,260.12,255,255,255z"/>
	<path d="M255,306.2c-18.773,0-34.133-15.36-34.133-34.133s15.36-34.133,34.133-34.133s34.133,15.36,34.133,34.133
		S273.773,306.2,255,306.2z M255,255c-9.387,0-17.067,7.68-17.067,17.067s7.68,17.067,17.067,17.067s17.067-7.68,17.067-17.067
		S264.387,255,255,255z"/>
	<path d="M118.467,118.467h-25.6c-5.12,0-8.533-3.413-8.533-8.533s3.413-8.533,8.533-8.533h25.6c5.12,0,8.533,3.413,8.533,8.533
		S123.587,118.467,118.467,118.467z"/>
	<path d="M135.533,152.6H92.867c-5.12,0-8.533-3.413-8.533-8.533c0-5.12,3.413-8.533,8.533-8.533h42.667
		c5.12,0,8.533,3.413,8.533,8.533C144.067,149.187,140.653,152.6,135.533,152.6z"/>
	<path d="M152.6,186.733H92.867c-5.12,0-8.533-3.413-8.533-8.533c0-5.12,3.413-8.533,8.533-8.533H152.6
		c5.12,0,8.533,3.413,8.533,8.533C161.133,183.32,157.72,186.733,152.6,186.733z"/>
	<path d="M417.133,186.733h-25.6c-5.12,0-8.533-3.413-8.533-8.533c0-5.12,3.413-8.533,8.533-8.533h25.6
		c5.12,0,8.533,3.413,8.533,8.533C425.667,183.32,422.253,186.733,417.133,186.733z"/>
	<path d="M417.133,152.6h-42.667c-5.12,0-8.533-3.413-8.533-8.533c0-5.12,3.413-8.533,8.533-8.533h42.667
		c5.12,0,8.533,3.413,8.533,8.533C425.667,149.187,422.253,152.6,417.133,152.6z"/>
	<path d="M417.133,118.467H357.4c-5.12,0-8.533-3.413-8.533-8.533s3.413-8.533,8.533-8.533h59.733c5.12,0,8.533,3.413,8.533,8.533
		S422.253,118.467,417.133,118.467z"/>
</g>
<g>
</g>
<g>
</g>
<g>
</g>
<g>
</g>
<g>
</g>
<g>
</g>
<g>
</g>
<g>
</g>
<g>
</g>
<g>
</g>
<g>
</g>
<g>
</g>
<g>
</g>
<g>
</g>
<g>
</g>
</svg>
