<?xml version="1.0" encoding="iso-8859-1"?>
<!-- Generator: Adobe Illustrator 19.0.0, SVG Export Plug-In . SVG Version: 6.00 Build 0)  -->
<svg version="1.1" id="Layer_1" xmlns="http://www.w3.org/2000/svg" xmlns:xlink="http://www.w3.org/1999/xlink" x="0px" y="0px"
	 viewBox="0 0 512 512" style="enable-background:new 0 0 512 512;" xml:space="preserve">
<polygon style="fill:#4BAF78;" points="207.148,256.054 207.148,136.744 319.133,136.744 319.133,192.213 263.664,192.213 
	263.664,256.054 "/>
<polyline style="fill:#75C0C7;" points="263.664,256.054 263.664,192.213 368.322,192.213 368.322,256.054 "/>
<rect x="207.151" y="223.613" style="fill:#FFFFFF;" width="25.118" height="15.699"/>
<polyline style="fill:#589095;" points="263.664,256.054 263.664,192.213 296.108,192.213 296.108,256.054 "/>
<rect x="296.027" y="191.965" style="fill:#FFFFFF;" width="40.021" height="24.015"/>
<path style="fill:#FCBB3B;" d="M199.822,256.054V364.25c28.258,9.9,48.101,36.601,48.101,67.956c0,11.518-2.699,22.699-7.505,32.119
	h151.976v-208.27H199.822L199.822,256.054z"/>
<polygon style="fill:#BD8C2C;" points="231.986,392.082 199.966,368.068 199.966,256 231.986,256 "/>
<rect x="312.03" y="392.082" style="fill:#FFFFFF;" width="80.043" height="48.029"/>
<rect x="247.999" y="255.995" style="fill:#E0DCCD;" width="96.056" height="48.029"/>
<rect x="247.999" y="255.995" style="fill:#A8A59A;" width="32.019" height="48.029"/>
<path style="fill:#75C0C7;" d="M239.991,464.126h156.095c6.631,0,12.007,5.376,12.007,12.007l0,0
	c0,6.631-5.376,12.007-12.007,12.007H223.981"/>
<circle style="fill:#E0DCCD;" cx="175.952" cy="432.104" r="72.044"/>
<circle style="fill:#75C0C7;" cx="175.952" cy="432.104" r="32.019"/>
<path style="fill:#A8A59A;" d="M127.923,432.107c0-35.689,25.976-65.237,60.036-70.964c-3.913-0.658-7.907-1.08-12.007-1.08
	c-39.789,0-72.044,32.255-72.044,72.044c0,39.788,32.255,72.044,72.044,72.044c4.101,0,8.094-0.422,12.007-1.08
	C153.899,497.344,127.923,467.795,127.923,432.107z"/>
<rect x="247.968" y="424.558" style="fill:#FFFFFF;" width="24.071" height="15.699"/>
<path d="M175.952,471.975c-21.984,0-39.869-17.885-39.869-39.869c0-21.985,17.885-39.87,39.869-39.87
	c21.984,0,39.869,17.885,39.869,39.87C215.82,454.09,197.936,471.975,175.952,471.975z M175.952,407.936
	c-13.327,0-24.17,10.843-24.17,24.171s10.843,24.17,24.17,24.17s24.17-10.842,24.17-24.17S189.28,407.936,175.952,407.936z"/>
<rect x="167.381" y="424.558" width="16.745" height="15.699"/>
<rect x="104.586" y="80.231" style="fill:#75C0C7;" width="15.699" height="39.77"/>
<g>
	<rect x="279.366" y="424.558" style="fill:#FFFFFF;" width="16.745" height="15.699"/>
	<rect x="207.151" y="200.589" style="fill:#FFFFFF;" width="32.444" height="15.699"/>
</g>
<path d="M400.766,456.856V248.728h-25.118V183.84H256.338v64.888h-40.817V144.07h40.817v15.699h15.699V144.07h40.817v32.444h15.699
	v-48.143h-128.73v120.357h-7.326v95.239h15.699v-79.54h31.951v47.451h48.636v16.391h15.699v-16.391h47.423v-47.451h33.164v120.357
	h-81.634v62.795h81.634v8.697H252.099c2.427-7.629,3.747-15.747,3.747-24.17c0-41.405-31.661-75.547-72.044-79.503V39.869
	C183.802,17.885,165.917,0,143.932,0s-39.869,17.885-39.869,39.869v32.02h15.699v-32.02c0-13.327,10.843-24.17,24.17-24.17
	s24.17,10.842,24.17,24.17v312.735c-40.382,3.957-72.044,38.099-72.044,79.503c0,44.054,35.84,79.893,79.893,79.893
	c18.014,0,34.65-5.998,48.029-16.095v0.086h172.105c10.948,0,19.857-8.909,19.857-19.858
	C415.942,466.799,409.46,458.97,400.766,456.856z M304.48,199.539h24.071v8.373H304.48V199.539z M272.036,199.539h16.745v24.071
	h55.469v-24.071h15.699v49.19h-87.913V199.539z M336.205,296.179h-80.359v-31.752h80.359V296.179z M319.133,431.881v-31.398h65.935
	v8.373h-40.817v15.699h40.817v7.326H319.133z M175.952,496.301c-35.397,0-64.194-28.798-64.194-64.194s28.798-64.194,64.194-64.194
	s64.194,28.798,64.194,64.194S211.349,496.301,175.952,496.301z M396.086,480.292H239.628c2.007-2.647,3.843-5.428,5.514-8.316
	h150.944c2.292,0,4.158,1.865,4.158,4.159C400.243,478.427,398.378,480.292,396.086,480.292z"/>
<g>
</g>
<g>
</g>
<g>
</g>
<g>
</g>
<g>
</g>
<g>
</g>
<g>
</g>
<g>
</g>
<g>
</g>
<g>
</g>
<g>
</g>
<g>
</g>
<g>
</g>
<g>
</g>
<g>
</g>
</svg>
