<?xml version="1.0" encoding="iso-8859-1"?>
<!-- Generator: Adobe Illustrator 19.0.0, SVG Export Plug-In . SVG Version: 6.00 Build 0)  -->
<svg version="1.1" id="Layer_1" xmlns="http://www.w3.org/2000/svg" xmlns:xlink="http://www.w3.org/1999/xlink" x="0px" y="0px"
	 viewBox="0 0 501.351 501.351" style="enable-background:new 0 0 501.351 501.351;" xml:space="preserve">
<g>
	<g>
		<path d="M495.751,269.528L232.284,6.061c-5.333-5.333-12.8-6.4-19.2-5.333L52.017,36.995c-7.467,2.133-12.8,7.467-14.933,14.933
			L0.818,212.995c-2.133,7.467,0,13.867,5.333,19.2l262.4,262.4c4.267,4.267,9.6,6.4,14.933,6.4c5.333,0,10.667-2.133,13.867-6.4
			l198.4-196.267C503.218,290.861,503.218,276.995,495.751,269.528z M283.484,451.928L42.417,210.861l32-136.533l136.533-32
			l241.067,241.067L283.484,451.928z"/>
	</g>
</g>
<g>
	<g>
		<path d="M278.151,266.328c14.933-2.133,30.933-5.333,46.933-10.667l-8.533-26.667c-17.067,5.333-32,11.733-44.8,18.133
			c2.133-19.2,4.267-34.133,4.267-46.933h-27.733c1.067,8.533,2.133,24.533,4.267,46.933c-9.6-5.333-23.467-10.667-43.733-18.133
			l-8.533,26.667c14.933,4.267,29.867,7.467,45.867,10.667c-6.4,5.333-16,17.067-30.933,35.2l22.4,16
			c7.467-9.6,14.933-22.4,24.533-40.533c9.6,17.067,18.133,30.933,25.6,40.533l22.4-16
			C296.284,284.461,285.618,272.728,278.151,266.328z"/>
	</g>
</g>
<g>
	<g>
		<path d="M150.151,121.261l-3.2-3.2c-7.467-8.533-21.333-7.467-28.8,0c-8.533,7.467-7.467,21.333,0,28.8l3.2,3.2
			c4.267,4.267,9.6,6.4,14.933,6.4c4.267,0,9.6-2.133,13.867-6.4C158.684,142.595,157.618,128.728,150.151,121.261z"/>
	</g>
</g>
<g>
</g>
<g>
</g>
<g>
</g>
<g>
</g>
<g>
</g>
<g>
</g>
<g>
</g>
<g>
</g>
<g>
</g>
<g>
</g>
<g>
</g>
<g>
</g>
<g>
</g>
<g>
</g>
<g>
</g>
</svg>
