<?xml version="1.0" encoding="iso-8859-1"?>
<!-- Generator: Adobe Illustrator 19.0.0, SVG Export Plug-In . SVG Version: 6.00 Build 0)  -->
<svg version="1.1" id="Layer_1" xmlns="http://www.w3.org/2000/svg" xmlns:xlink="http://www.w3.org/1999/xlink" x="0px" y="0px"
	 viewBox="0 0 501.334 501.334" style="enable-background:new 0 0 501.334 501.334;" xml:space="preserve">
<g>
	<g>
		<path d="M494.934,277.333L262.4,44.8C233.6,16,194.134,0,153.6,0c-40.533,0-80,16-108.8,44.8
			c-59.733,59.733-59.733,157.867,0,217.6l38.4,38.4c-32,1.067-57.6,27.733-57.6,59.733c0,34.133,26.667,60.8,59.733,60.8h118.4
			l73.6,73.6c4.267,4.267,9.6,6.4,14.933,6.4s10.667-2.133,14.933-6.4L494.934,307.2
			C503.467,298.667,503.467,285.867,494.934,277.333z M48,190.933C34.134,151.466,42.667,105.6,74.667,74.667
			C96,53.333,123.734,41.6,153.6,41.6c10.667,0,21.333,1.067,30.933,4.267c-9.6,8.533-17.067,19.2-18.133,32
			c-1.067,2.133-1.067,5.333-1.067,7.467c0,1.067,0,2.133,0,3.2c0,2.133-1.067,3.2-3.2,4.267c-1.067,1.067-3.2,1.067-6.4,2.133
			c-1.067,0-3.2,1.067-4.267,1.067c-20.267,6.4-36.267,18.133-43.733,34.133c-2.133,6.4-4.267,11.733-5.333,17.067
			c-1.067,3.2-2.133,7.467-3.2,9.6c-2.133,2.133-7.467,4.267-12.8,6.4c-4.267,2.133-9.6,4.267-13.867,6.4
			C62.934,174.933,54.4,182.4,48,190.933z M75.734,233.6c0-10.667,6.4-21.333,16-26.667c3.2-2.133,6.4-3.2,9.6-4.267
			c9.6-3.2,22.4-8.533,30.933-20.267c6.4-8.533,8.533-18.133,10.667-25.6c1.067-4.267,2.133-7.467,3.2-9.6
			c2.133-5.333,8.533-9.6,17.067-11.733l3.2-1.067c4.267-1.067,10.667-2.133,16-5.333c12.8-7.467,22.4-20.267,24.533-34.133
			C208,92.8,208,89.6,208,87.466c0-1.067,0-2.133,0-3.2c0-2.133,2.133-5.333,5.333-7.467s8.533-4.267,14.933-5.333c0,0,0,0,1.067,0
			c1.067,1.067,2.133,2.133,3.2,3.2l29.867,29.867c-3.2,1.067-6.4,3.2-8.533,5.333c-11.733,8.533-20.267,21.333-22.4,35.2
			c-1.067,2.133-1.067,5.333-1.067,7.467c0,1.067,0,2.133,0,3.2c0,1.067-1.067,2.133-2.133,3.2c-1.067,1.067-3.2,1.067-6.4,2.133
			c-1.067,0-3.2,1.067-4.267,1.067c-20.267,6.4-36.267,18.133-43.733,34.133c-2.133,6.4-4.267,11.733-5.333,17.067
			c-1.067,3.2-2.133,7.467-3.2,9.6c-2.133,2.133-7.467,4.267-12.8,6.4c-4.267,2.133-9.6,4.267-13.867,6.4
			c-12.8,6.4-23.467,18.133-29.867,30.933L75.734,233.6z M227.2,385.066c-4.267-4.267-9.6-6.4-14.933-6.4H85.334v0.001
			c-9.6,0-18.133-7.467-18.133-18.133c0-9.6,7.467-18.133,18.133-18.133l48-1.067c7.467,0,16-5.333,19.2-12.8s2.133-16-4.267-22.4
			l-6.4-6.4c0-9.6,6.4-20.267,16-25.6c3.2-2.133,6.4-3.2,9.6-4.267c9.6-3.2,22.4-8.533,30.933-20.267
			c6.4-8.533,8.533-18.133,10.667-25.6c1.067-4.267,2.133-7.467,3.2-9.6c2.133-5.333,8.533-9.6,17.067-11.733l2.133-2.133
			c4.267-1.067,10.667-2.133,16-5.333c12.8-6.4,22.4-19.2,24.533-33.067c1.067-2.133,1.067-5.333,1.067-7.467c0-1.067,0-2.133,0-3.2
			c0-2.133,2.133-5.333,5.333-7.467c3.2-2.133,8.533-4.267,14.933-5.333c1.067,0,2.133,0,2.133-1.067l94.933,94.933L232.533,390.399
			L227.2,385.066z M293.334,451.2L262.4,420.267L420.267,262.4l30.933,30.933L293.334,451.2z"/>
	</g>
</g>
<g>
</g>
<g>
</g>
<g>
</g>
<g>
</g>
<g>
</g>
<g>
</g>
<g>
</g>
<g>
</g>
<g>
</g>
<g>
</g>
<g>
</g>
<g>
</g>
<g>
</g>
<g>
</g>
<g>
</g>
</svg>
