<?xml version="1.0" encoding="iso-8859-1"?>
<!-- Generator: Adobe Illustrator 19.0.0, SVG Export Plug-In . SVG Version: 6.00 Build 0)  -->
<svg version="1.1" id="Layer_1" xmlns="http://www.w3.org/2000/svg" xmlns:xlink="http://www.w3.org/1999/xlink" x="0px" y="0px"
	 viewBox="0 0 502.134 502.134" style="enable-background:new 0 0 502.134 502.134;" xml:space="preserve">
<g>
	<g>
		<path d="M471.096,401.867h-6.4c-9.6-32-39.467-55.467-74.667-55.467c-35.2,0-65.067,23.467-74.667,55.467h-68.267V220.534
			c0-11.733-9.6-21.333-21.333-21.333H121.23c-7.467,0-12.8,3.2-17.067,8.533l-99.2,131.2c-3.2,4.267-4.267,8.533-4.267,12.8v73.6
			c0,11.733,9.6,21.333,21.333,21.333h26.667c9.6,32,39.467,55.467,74.667,55.467s66.133-24.533,74.667-57.6h116.267
			c8.533,33.067,39.467,57.6,74.667,57.6c35.2,0,66.133-24.533,74.667-57.6h6.4c11.733,0,21.333-9.6,21.333-21.333
			C492.43,411.467,482.83,401.867,471.096,401.867z M123.363,460.534c-19.2,0-35.2-16-35.2-36.267s16-36.267,35.2-36.267
			c19.2,0,35.2,16,35.2,36.267S142.563,460.534,123.363,460.534z M203.363,401.867h-5.333c-9.6-32-39.467-55.467-74.667-55.467
			c-35.2,0-66.133,24.533-74.667,57.6h-6.4v-45.867L129.763,240.8h73.6V401.867z M390.029,460.534c-19.2,0-35.2-16-35.2-36.267
			s16-36.267,35.2-36.267c20.267,0,35.2,16,35.2,36.267S409.229,460.534,390.029,460.534z"/>
	</g>
</g>
<g>
	<g>
		<path d="M466.83,155.467l16-2.133c7.467-1.067,13.867-5.333,17.067-12.8c3.2-7.467,1.067-14.933-3.2-21.333L406.03,7.2
			c-7.467-9.6-24.533-9.6-32,0l-90.667,112c-5.333,6.4-6.4,13.867-3.2,21.333c3.2,7.467,9.6,11.733,17.067,12.8l16,2.133
			l-29.867,41.6c-5.333,6.4-5.333,13.867-2.133,21.333c3.2,7.467,10.667,11.733,18.133,11.733h69.333v72.533
			c0,11.733,9.6,21.333,21.333,21.333s21.333-8.533,21.333-21.333v-72.533h69.333c8.533,0,16-4.267,18.133-11.733
			c3.2-6.4,2.133-14.933-2.133-21.333L466.83,155.467z M413.496,152.267l26.667,36.267h-99.2l26.667-35.2
			c4.267-5.333,5.333-13.867,2.133-20.267c-3.2-7.467-9.6-11.733-17.067-12.8l-13.867-2.133l51.2-62.933l52.267,61.867L428.43,119.2
			c-7.467,1.067-13.867,6.4-17.067,12.8C408.163,138.4,409.229,145.867,413.496,152.267z"/>
	</g>
</g>
<g>
</g>
<g>
</g>
<g>
</g>
<g>
</g>
<g>
</g>
<g>
</g>
<g>
</g>
<g>
</g>
<g>
</g>
<g>
</g>
<g>
</g>
<g>
</g>
<g>
</g>
<g>
</g>
<g>
</g>
</svg>
