<?xml version="1.0" encoding="iso-8859-1"?>
<!-- Generator: Adobe Illustrator 19.0.0, SVG Export Plug-In . SVG Version: 6.00 Build 0)  -->
<svg version="1.1" id="Layer_1" xmlns="http://www.w3.org/2000/svg" xmlns:xlink="http://www.w3.org/1999/xlink" x="0px" y="0px"
	 viewBox="0 0 502.161 502.161" style="enable-background:new 0 0 502.161 502.161;" xml:space="preserve">
<g>
	<g>
		<path d="M496.671,6.162c-8.533-7.467-20.267-8.533-28.8-1.067c-14.933,12.8-37.333,20.267-59.733,20.267
			c-10.667,0-20.267-1.067-28.8-4.267c-8.533-2.133-17.067,0-22.4,5.333l-52.267,50.133c-16,16-24.533,37.333-24.533,59.733
			s8.533,43.733,24.533,59.733s37.333,24.533,59.733,24.533s43.733-8.533,58.667-23.467l51.2-51.2c6.4-6.4,8.533-14.933,5.333-22.4
			c-8.533-24.533-6.4-62.933,16-88.533C503.071,27.495,503.071,14.695,496.671,6.162z M436.938,124.562l-42.667,42.667
			c-8.533,8.533-18.133,12.8-29.867,12.8c-11.733,0-22.4-5.333-29.867-12.8c-16-17.067-16-43.733,0-59.733l42.667-42.667
			c19.2,4.267,40.533,4.267,59.733,0C432.671,86.162,432.671,107.495,436.938,124.562z"/>
	</g>
</g>
<g>
	<g>
		<path d="M252.405,144.828c-11.733-20.267-29.867-34.133-51.2-39.467l-69.333-19.2c-7.467-2.133-16,0-21.333,6.4
			c-11.733,16-39.467,32-69.333,32c-5.333,0-10.667,0-14.933-1.067c-10.667-2.133-21.333,4.267-24.533,14.933
			c-3.2,10.667,2.133,22.4,12.8,25.6c30.933,10.667,53.333,43.733,57.6,68.267c1.067,7.467,7.467,13.867,14.933,16l69.333,19.2
			c6.4,2.133,13.867,3.2,21.333,3.2c38.399,0,71.466-25.6,83.2-61.866C266.271,186.428,263.071,164.028,252.405,144.828z
			 M218.271,198.162c-5.333,18.133-21.333,30.933-40.533,30.933c-3.2,0-7.467,0-10.667-1.067l-57.6-16
			c-5.333-17.067-14.933-35.2-29.867-51.2c21.333-6.4,38.4-18.133,51.2-29.867l57.6,16c10.667,2.133,20.267,9.6,25.6,19.2
			C219.338,175.762,221.471,187.495,218.271,198.162z"/>
	</g>
</g>
<g>
	<g>
		<path d="M415.604,372.028l-19.2-69.333c-9.6-36.267-43.733-61.867-81.067-61.867c-6.4,0-13.867,1.067-21.333,3.2
			c-44.8,11.733-71.467,57.6-59.733,102.4l19.2,69.333c1.067,7.467,8.533,13.867,16,14.933c24.533,4.267,57.6,25.6,68.267,57.6
			c2.133,8.533,10.667,13.867,19.2,13.867c2.133,0,3.2,0,7.467,0c10.667-3.2,17.067-13.867,14.933-24.533
			c-6.4-33.067,10.667-68.267,29.867-84.267C415.604,388.028,417.737,379.495,415.604,372.028z M340.938,422.162
			c-16-14.933-34.133-24.533-51.2-29.867l-16-57.6c-5.333-22.4,7.467-44.8,29.867-51.2c3.2-1.067,7.467-1.067,10.667-1.067
			c19.2,0,35.2,12.8,40.533,30.933l16,57.6C358.005,383.762,347.338,401.895,340.938,422.162z"/>
	</g>
</g>
<g>
</g>
<g>
</g>
<g>
</g>
<g>
</g>
<g>
</g>
<g>
</g>
<g>
</g>
<g>
</g>
<g>
</g>
<g>
</g>
<g>
</g>
<g>
</g>
<g>
</g>
<g>
</g>
<g>
</g>
</svg>
