<?xml version="1.0" encoding="iso-8859-1"?>
<!-- Generator: Adobe Illustrator 19.0.0, SVG Export Plug-In . SVG Version: 6.00 Build 0)  -->
<svg version="1.1" id="Layer_1" xmlns="http://www.w3.org/2000/svg" xmlns:xlink="http://www.w3.org/1999/xlink" x="0px" y="0px"
	 viewBox="0 0 501.333 501.333" style="enable-background:new 0 0 501.333 501.333;" xml:space="preserve">
<g>
	<g>
		<path d="M437.333,182.4L272,139.733V80h23.467C307.2,80,316.8,70.4,316.8,58.667s-9.6-21.333-21.333-21.333H272v-16
			C272,9.6,262.4,0,250.667,0c-11.733,0-21.333,9.6-21.333,21.333v16h-23.467c-11.733,0-21.333,9.6-21.333,21.333
			S194.133,80,205.867,80h23.467v59.733L64,182.4C26.667,192,0,226.133,0,265.6V480c0,11.733,9.6,21.333,21.333,21.333h152.533
			c11.733,0,21.333-9.6,21.333-21.333V361.6l55.467-29.867l55.467,29.867V480c0,11.733,9.6,21.333,21.333,21.333H480
			c11.733,0,21.333-9.6,21.333-20.267V265.6C501.333,226.133,474.667,192,437.333,182.4z M458.667,459.733H347.733V349.867
			c0-7.467-4.267-14.933-10.667-18.133l-76.8-41.6c-6.4-3.2-13.867-3.2-20.267,0l-76.8,41.6c-6.4,3.2-10.667,10.667-10.667,18.133
			v109.867H41.6V265.6c0-20.267,13.867-37.333,33.067-42.667l176-45.867L425.6,222.933c19.2,5.333,33.067,22.4,33.067,42.667
			V459.733z"/>
	</g>
</g>
<g>
</g>
<g>
</g>
<g>
</g>
<g>
</g>
<g>
</g>
<g>
</g>
<g>
</g>
<g>
</g>
<g>
</g>
<g>
</g>
<g>
</g>
<g>
</g>
<g>
</g>
<g>
</g>
<g>
</g>
</svg>
