<?xml version="1.0" encoding="iso-8859-1"?>
<!-- Generator: Adobe Illustrator 19.0.0, SVG Export Plug-In . SVG Version: 6.00 Build 0)  -->
<svg version="1.1" id="Layer_1" xmlns="http://www.w3.org/2000/svg" xmlns:xlink="http://www.w3.org/1999/xlink" x="0px" y="0px"
	 viewBox="0 0 501.735 501.735" style="enable-background:new 0 0 501.735 501.735;" xml:space="preserve">
<g>
	<g>
		<path d="M477.001,298.002c-22.4-22.4-55.467-30.933-85.333-21.333l-164.267-166.4c9.6-28.8,2.133-62.933-20.267-85.333
			c-33.067-33.067-86.4-33.067-119.467-1.067c-10.667,10.667-19.2,24.533-22.4,39.467c-14.933,3.2-28.8,10.667-39.467,21.333
			c-16,14.933-25.6,36.267-25.6,58.667c0,22.4,8.533,43.733,25.6,59.733c22.4,22.4,55.467,30.933,85.333,21.333l163.2,166.4
			c-9.6,28.8-2.133,62.933,20.267,85.333c17.067,17.067,38.4,25.6,60.8,25.6c21.333,0,42.667-7.467,58.667-25.6
			c10.667-10.667,18.133-23.467,22.4-38.4c14.933-3.2,28.8-10.667,39.467-21.333c16-14.933,25.6-36.267,25.6-58.667
			C501.534,335.335,493.001,314.002,477.001,298.002z M447.134,388.668c-7.467,7.467-18.133,11.733-28.8,11.733
			c-10.667,1.067-20.267,9.6-20.267,20.267c-1.067,10.667-5.333,20.267-12.8,27.733c-17.067,16-43.733,16-60.8-1.067
			c-12.8-12.8-16-34.133-6.4-50.133c4.267-8.533,3.2-19.2-3.2-25.6l-185.6-186.667c-6.4-6.4-16-7.467-24.533-3.2
			c-17.067,9.6-37.333,6.4-51.2-7.467c-7.467-7.467-11.733-18.133-11.733-29.867s4.267-22.4,12.8-29.867
			c7.467-7.467,18.133-11.733,28.8-11.733c10.667-1.067,20.267-9.6,20.267-20.267c1.067-10.667,5.333-20.267,12.8-27.733
			c17.067-17.067,44.8-17.067,60.8,0c12.8,12.8,16,34.133,6.4,50.133c-4.267,8.533-3.2,19.2,3.2,25.6l185.6,187.733
			c6.4,6.4,16,7.467,24.533,3.2c17.067-9.6,37.333-6.4,51.2,7.467c7.467,7.467,11.733,18.133,11.733,29.867
			C459.934,370.535,455.668,381.202,447.134,388.668z"/>
	</g>
</g>
<g>
</g>
<g>
</g>
<g>
</g>
<g>
</g>
<g>
</g>
<g>
</g>
<g>
</g>
<g>
</g>
<g>
</g>
<g>
</g>
<g>
</g>
<g>
</g>
<g>
</g>
<g>
</g>
<g>
</g>
</svg>
