<?xml version="1.0" encoding="iso-8859-1"?>
<!-- Generator: Adobe Illustrator 18.0.0, SVG Export Plug-In . SVG Version: 6.00 Build 0)  -->
<!DOCTYPE svg PUBLIC "-//W3C//DTD SVG 1.1//EN" "http://www.w3.org/Graphics/SVG/1.1/DTD/svg11.dtd">
<svg version="1.1" id="Capa_1" xmlns="http://www.w3.org/2000/svg" xmlns:xlink="http://www.w3.org/1999/xlink" x="0px" y="0px"
	 viewBox="0 0 439.801 439.801" style="enable-background:new 0 0 439.801 439.801;" xml:space="preserve">
<g>
	<path d="M307.664,70.22c-1.381,0-2.5,1.119-2.5,2.5c0,3.14,3.8,5.333,9.24,5.333s9.24-2.193,9.24-5.333c0-1.381-1.119-2.5-2.5-2.5
		c-1.189,0-2.185,0.831-2.438,1.943c-0.493,0.32-1.96,0.89-4.303,0.89c-2.343,0-3.81-0.57-4.303-0.89
		C309.849,71.05,308.854,70.22,307.664,70.22z"/>
	<path d="M306.459,60.7c0-0.66-0.27-1.31-0.729-1.77c-0.941-0.93-2.62-0.93-3.54,0c-0.46,0.47-0.73,1.11-0.73,1.77
		c0,0.66,0.271,1.3,0.73,1.76c0.47,0.47,1.109,0.74,1.77,0.74c0.66,0,1.3-0.27,1.771-0.74C306.189,62,306.459,61.36,306.459,60.7z"
		/>
	<path d="M324.85,63.2c0.659,0,1.3-0.27,1.77-0.73c0.46-0.47,0.73-1.11,0.73-1.77c0-0.66-0.271-1.3-0.73-1.77
		c-0.93-0.93-2.61-0.93-3.54,0c-0.46,0.46-0.729,1.11-0.729,1.77c0,0.66,0.27,1.3,0.729,1.77
		C323.549,62.93,324.189,63.2,324.85,63.2z"/>
	<path d="M392.499,236.462l-24.283-109.632c-0.148-0.651-2.976-12.531-13.157-20.175c15.704-17.518-2.842-55.854-5.518-61.139
		c-0.125-8.82-2.955-15.947-8.417-21.191c-10-9.602-25.232-9.385-26.723-9.339c-1.529-0.043-16.734-0.247-26.717,9.339
		c-5.462,5.244-8.292,12.372-8.417,21.191c-2.676,5.285-21.224,43.623-5.517,61.141c-10.184,7.645-13.011,19.524-13.16,20.185
		l-17.456,78.813l-10.74-3.727v-0.102c8.084-5.442,13.578-15.993,13.578-28.092c0-31.389-18.573-33.659-26.063-33.659
		c-4.626,0-12.872,1.148-18.852,8.336l-7.197-36.701c-0.218-1.974-2.822-20.049-25.426-25.961l-20.226-6.971v-8.502
		c5.668-6.486,9.275-16.138,9.275-26.907l-0.001-9.491c0-0.003,0.001-0.005,0.001-0.008c0-0.002-0.001-0.005-0.001-0.007
		l-0.001-15.528c0.01-0.248,0.181-6.121-4.698-11.192C148.227,2.403,140.968,0,131.21,0c-9.758,0-17.017,2.403-21.574,7.142
		c-4.879,5.072-4.708,10.945-4.7,11.095v25.132c0,10.769,3.606,20.421,9.274,26.907v8.502l-20.226,6.971
		c-22.604,5.912-25.208,23.987-25.426,25.961c0,0-21.395,109.509-21.393,109.532l0.976,13.347l-1.011,7.659
		c-0.406,3.125,0.429,6.222,2.352,8.719c1.923,2.498,4.702,4.097,7.827,4.503c0.518,0.067,1.033,0.101,1.547,0.101
		c2.587,0,5.089-0.847,7.173-2.451c2.469-1.9,4.06-4.638,4.489-7.719l2.129-9.856l7.231-13.289
		c0.024-0.044,11.366-56.87,11.366-56.87v71.961c0,0.004,0.002,0.009,0.002,0.014c0,0.004-0.002,0.009-0.002,0.014v181.949
		c-1.306,0.706-2.486,1.607-3.529,2.711c-5.49,5.816-5.026,15.021-5.004,15.41c0.076,1.323,1.171,2.356,2.496,2.356h37.5
		c1.381,0,2.5-1.119,2.5-2.5v-17.256l6.002-115.549l6.002,115.549v17.256c0,1.381,1.119,2.5,2.5,2.5h37.5
		c1.325,0,2.42-1.033,2.496-2.356c0.023-0.389,0.486-9.594-5.004-15.41c-1.043-1.105-2.224-2.006-3.529-2.711V316.183
		c0.039-0.024,0.08-0.04,0.119-0.064c1.811-1.149,3.074-2.924,3.566-5.007l16.339-53.959c0.243-0.017,1.012-0.272,1.146-0.356
		l0.91,48.698l-6.048,56.855c-0.074,0.705,0.153,1.409,0.627,1.937c0.475,0.527,1.15,0.828,1.859,0.828h3.333l3.022,58.281
		c-2.262,0.441-4.167,1.476-5.688,3.094c-3.916,4.166-3.573,10.686-3.557,10.962c0.079,1.32,1.173,2.351,2.495,2.351h25.167
		c0.663,0,1.299-0.264,1.769-0.732c0.469-0.469,0.731-1.105,0.731-1.769l-0.004-11.65c0,0,0,0,0,0v-0.001l-0.02-60.581
		c1.076-0.207,1.916-1.107,2.015-2.237l0.963-11.014l0.971,11.016c0.099,1.12,0.926,2.011,1.989,2.228l-0.021,60.588v0.001
		c0,0,0,0,0,0l-0.004,11.65c0,0.663,0.263,1.299,0.731,1.769c0.47,0.469,1.106,0.732,1.769,0.732h25.167
		c1.322,0,2.416-1.03,2.495-2.351c0.017-0.275,0.36-6.795-3.557-10.962c-1.521-1.618-3.427-2.653-5.688-3.094l3.022-58.281h3.333
		c0.709,0,1.385-0.301,1.859-0.828c0.474-0.527,0.701-1.231,0.627-1.937l-6.048-56.855l0.91-48.698
		c0.135,0.084,0.904,0.34,1.146,0.356l16.34,53.959c0.491,2.083,1.754,3.858,3.565,5.007c1.323,0.839,2.824,1.272,4.352,1.272
		c0.598,0,1.198-0.066,1.795-0.199c2.126-0.475,3.938-1.749,5.105-3.588c0.059-0.092,0.106-0.189,0.161-0.283h4.62
		c0.217,10.015,1.703,49.388,11.823,104.377c-0.32,1.921-2.383,11.839-11.571,17.473c-0.954,0.586-1.403,1.733-1.1,2.811
		c0.304,1.077,1.287,1.821,2.406,1.821h56.57c1.119,0,2.103-0.744,2.406-1.821c0.304-1.078-0.145-2.225-1.1-2.811
		c-9.191-5.637-11.252-15.56-11.57-17.475c10.119-54.988,11.605-94.36,11.822-104.375h17.541c1.381,0,2.5-1.119,2.5-2.5
		c0-4.378-0.246-106.844-21.459-139.422l0.691-11.74c0.849-0.276,1.662-0.685,2.436-1.197l25.25,82.898
		c1.181,5.017,5.673,8.424,10.634,8.424c0.793,0,1.6-0.087,2.406-0.27c2.846-0.643,5.271-2.355,6.829-4.822
		C392.636,242.224,393.141,239.298,392.499,236.462z M344.545,46.129c0,0.403,0.098,0.801,0.284,1.158
		c0.22,0.421,21.266,41.25,5.908,56.656c-2.175-1.125-4.596-2.058-7.309-2.696l-16.327-3.918V84.748
		c6.033-5.448,10.006-14.661,10.006-25.088v-6.889h-0.003c0.001-1.178-0.831-2.228-2.03-2.456
		c-0.182-0.035-18.17-3.589-18.17-15.185V20.042c4.468,0.261,14.199,1.575,20.778,7.91
		C342.236,32.336,344.545,38.452,344.545,46.129z M314.404,115.876c-11.624,0-19.729-4.514-20.999-11.412l11.385-2.732
		c1.124-0.27,1.917-1.275,1.917-2.431V88.144c2.405,1.159,4.996,1.794,7.697,1.794c2.701,0,5.292-0.635,7.697-1.794v11.157
		c0,1.156,0.793,2.161,1.917,2.431l11.385,2.731C334.133,111.362,326.028,115.876,314.404,115.876z M314.404,43.655
		c4.436,6.885,13.604,10.003,17.703,11.094v4.912c0,9.308-3.544,17.452-8.805,21.839c-0.194,0.119-3.515,3.439-8.898,3.439
		c-5.384,0-8.704-3.321-8.898-3.439c-5.261-4.387-8.805-12.531-8.805-21.839v-4.912C300.8,53.658,309.968,50.54,314.404,43.655z
		 M283.98,47.287c0.186-0.357,0.284-0.755,0.284-1.158c0-7.677,2.309-13.792,6.862-18.177c6.581-6.337,16.311-7.651,20.778-7.911
		V35.13c0,11.554-17.991,15.151-18.173,15.186c-1.197,0.229-2.028,1.278-2.027,2.456h-0.003v6.889
		c0,10.427,3.973,19.64,10.006,25.088V97.33l-16.316,3.916c-2.716,0.638-5.14,1.573-7.318,2.7
		C262.712,88.54,283.76,47.708,283.98,47.287z M250.217,250.924l-2.36-7.357l8.01-23.46c1.113,1.923,1.715,3.644,1.993,4.588
		c0.011,0.04,4.954,18.777,4.954,18.777L250.217,250.924z M198.212,303.103c0,0-1.152-59.887-1.152-59.956
		c0-0.197-0.082-0.373-0.096-0.413l-9.311-27.273c1.999-1.831,4.628-3.413,8.072-4.197c0.09-0.02,0.178-0.046,0.265-0.076
		l10.641-3.692c1.902,3.909,7.113,6.724,13.243,6.724c0.011,0,0.021,0,0.031,0c0.003,0,0.007,0,0.01,0c0.011,0,0.021,0,0.031,0
		c6.13,0,11.341-2.815,13.243-6.724l10.641,3.692c0.087,0.03,0.175,0.056,0.265,0.076c3.445,0.784,6.074,2.366,8.072,4.197
		l-9.311,27.273c-0.014,0.039-0.134,0.278-0.134,0.761l-1.114,59.607H198.212z M189.605,250.924l-12.598-7.452
		c0,0,4.746-17.986,4.754-18.02c0.047-0.212,0.592-2.573,2.195-5.344l8.008,23.46L189.605,250.924z M171.173,237.361
		c0-0.004,0.002-0.009,0.002-0.014v-71.962l9.892,49.999c-3.023,4.193-4.034,8.301-4.181,8.952l-5.195,19.686
		c-0.236,0.896,0.05,1.826,0.699,2.444l-1.215,5.523v-14.615C171.175,237.371,171.173,237.366,171.173,237.361z M219.91,205.746
		c2.635,0,5.179-0.487,7.578-1.384c0.153,0.563,0.497,1.053,0.974,1.388c-1.2,1.842-4.448,3.471-8.516,3.471
		c-0.012,0-0.024,0-0.036,0c-0.013,0.001-0.023,0-0.036,0c-4.066,0-7.314-1.629-8.516-3.471c0.477-0.335,0.82-0.825,0.974-1.388
		C214.731,205.259,217.275,205.746,219.91,205.746z M267.431,246.467c0.185-0.177,0.342-0.377,0.464-0.597
		c-0.063,0.624-0.124,1.246-0.185,1.868L267.431,246.467z M268.097,243.898l-5.162-19.561c-0.014-0.061-0.037-0.16-0.066-0.278
		l19.974-65.604c0.777,0.514,1.593,0.925,2.445,1.202l0.691,11.741C276.28,186.304,270.987,216.105,268.097,243.898z
		 M276.946,150.191c0.525,1.514,1.189,2.865,1.946,4.07l-19.09,62.699c-2.239-3.639-5.936-7.674-11.885-9.783l14.122-63.757
		L276.946,150.191z M219.91,200.746c-11.613,0-21.061-12.117-21.061-27.012c0-0.396,0.008-0.781,0.015-1.169h7.346
		c0.86,0,1.66-0.442,2.117-1.171l3.77-6.004l3.77,6.004c0.457,0.729,1.257,1.171,2.117,1.171h22.976
		c0.007,0.388,0.015,0.773,0.015,1.169C240.973,188.629,231.524,200.746,219.91,200.746z M219.91,145.075
		c12.179,0,19.278,7.747,20.765,22.49h-21.31l-5.152-8.206l-0.007,0.004c-0.193-0.31-0.451-0.585-0.781-0.792
		c-1.169-0.733-2.712-0.382-3.446,0.788l-5.152,8.206h-5.68C199.147,153.723,210.261,145.075,219.91,145.075z M188.933,112.56
		l8.275,42.201c-1.71,3.916-3.359,8.527-3.359,18.974c0,12.099,5.494,22.649,13.577,28.091v0.103l-12.947,4.493
		c-3.809,0.889-6.821,2.533-9.203,4.477l-14.017-70.849l13.317-38.23C188.312,107.037,188.916,112.474,188.933,112.56z
		 M167.084,90.564c6.104,1.584,10.501,4.167,13.677,7.007l-14.447,41.473c-0.018,0.049-0.139,0.273-0.139,0.822v94.98h-32.463
		V109.539l5.172-10.122l16.46,7.498c0.33,0.15,0.684,0.225,1.036,0.225c0.454,0,0.907-0.124,1.307-0.369
		c0.709-0.435,1.155-1.193,1.191-2.023l0.727-16.754C159.605,87.995,167.022,90.548,167.084,90.564z M131.21,103.446l-12-23.487
		v-5.175c3.6,2.497,7.678,3.917,12,3.917c4.322,0,8.4-1.419,12-3.917v5.175L131.21,103.446z M115.472,83.633l5.787,11.328
		l-12.882,5.868l-0.629-14.534L115.472,83.633z M146.948,83.633l7.724,2.662l-0.629,14.534l-12.882-5.868L146.948,83.633z
		 M113.316,10.528C116.906,6.86,122.927,5,131.21,5c8.283,0,14.304,1.86,17.894,5.528c3.431,3.506,3.386,7.466,3.381,7.709v12.777
		c-3.563-1.096-5.369-4.762-5.369-10.953c0-1.381-1.119-2.5-2.5-2.5h-0.001h-0.001c-1.381,0-2.5,1.119-2.5,2.5
		c0,1.96-4.247,4.807-10.903,4.807c-6.656,0-10.903-2.847-10.903-4.807c0-1.381-1.119-2.5-2.5-2.5h-0.001h-0.001
		c-1.381,0-2.5,1.119-2.5,2.5c0,6.191-1.807,9.857-5.37,10.953V18.161C109.931,17.994,109.886,14.034,113.316,10.528z
		 M109.936,36.153c4.819-0.817,8.115-4.066,9.55-9.346c2.863,1.9,6.982,3.061,11.725,3.061c4.742,0,8.861-1.161,11.725-3.061
		c1.434,5.28,4.73,8.529,9.55,9.346v7.216c0,9.879-3.331,18.667-8.474,24.208c-0.063,0.059-4.729,6.123-12.801,6.123
		c-8.071,0-12.737-6.064-12.801-6.123c-5.143-5.542-8.474-14.33-8.474-24.208V36.153z M95.336,90.564
		c0.063-0.016,7.479-2.57,7.479-2.57l0.727,16.754c0.036,0.83,0.482,1.588,1.191,2.023c0.399,0.245,0.852,0.369,1.307,0.369
		c0.353,0,0.706-0.075,1.036-0.225l16.46-7.498l5.172,10.122v125.309H96.245v-94.98c0-0.558-0.122-0.774-0.139-0.822L81.659,97.572
		C84.835,94.73,89.231,92.148,95.336,90.564z M73.487,112.56c0.016-0.08,0.62-5.521,4.356-10.741l13.317,38.23l-15.532,78.512
		H52.696L73.487,112.56z M68.795,232.164H52.978l-0.629-8.603h21.128L68.795,232.164z M65.61,244.442
		c-0.015,0.068-0.026,0.137-0.036,0.206c-0.233,1.801-1.155,3.403-2.595,4.511c-1.44,1.108-3.228,1.588-5.025,1.355
		c-1.801-0.234-3.401-1.155-4.51-2.594c-1.107-1.439-1.589-3.224-1.355-5.021l0.756-5.734h14.338L65.61,244.442z M87.786,434.801
		c0.227-2.55,1.001-6.617,3.565-9.334c1.903-2.017,4.474-2.997,7.856-2.997h21v12.33H87.786z M142.212,434.801v-12.33h21
		c3.374,0,5.939,0.975,7.841,2.98c2.594,2.735,3.366,6.801,3.588,9.35H142.212z M142.085,417.471L133.709,256.2l-0.017,0.001
		c-0.066-1.263-1.063-2.3-2.354-2.368c-1.377-0.078-2.556,0.988-2.627,2.367l-8.376,161.271h-24.09V239.848h69.93v34.863
		l-7.206,32.745c-0.476,2.125-0.095,4.309,1.072,6.148c1.167,1.839,2.98,3.113,5.104,3.588c0.343,0.076,0.686,0.125,1.029,0.157
		v100.123H142.085z M170.05,309.743c-0.018,0.06-0.034,0.119-0.047,0.179c-0.184,0.822-0.677,1.523-1.388,1.974
		c-0.712,0.451-1.557,0.598-2.379,0.414c-0.821-0.183-1.522-0.676-1.974-1.387c-0.451-0.711-0.599-1.556-0.413-2.386l7.273-33.049
		c0-0.003,0.001-0.005,0.001-0.008l5.779-26.261l9.729,5.756L170.05,309.743z M211.941,365.113l0.019,58.036h-10.918l-3.009-58.036
		H211.941z M191.939,434.801c0.224-1.542,0.769-3.519,2.078-4.903c1.109-1.172,2.633-1.744,4.656-1.749h13.289l0.002,6.651H191.939z
		 M245.804,429.898c1.31,1.384,1.855,3.361,2.077,4.902h-20.025l0.002-6.651h13.289C243.17,428.154,244.693,428.726,245.804,429.898
		z M238.777,423.149h-10.918l0.02-58.036h13.907L238.777,423.149z M225.669,360.113l-3.268-37.105
		c-0.001-0.012-0.099-2.268-2.487-2.268c-2.389,0-2.492,2.259-2.493,2.27l-3.245,37.104h-21.701l5.533-52.011h43.807l5.533,52.011
		H225.669z M273.583,312.311c-0.818,0.183-1.665,0.037-2.377-0.415c-0.711-0.451-1.204-1.152-1.387-1.973
		c-0.014-0.061-0.029-0.121-0.048-0.18l-16.584-54.767l9.73-5.757l13.056,59.328c0.184,0.822,0.036,1.666-0.415,2.377
		C275.106,311.635,274.405,312.128,273.583,312.311z M311.904,415.152H301c-9.764-53.662-11.222-91.97-11.438-101.833h22.343
		V415.152z M300.99,420.152h10.914v14.648h-18.729C298.259,429.493,300.249,423.368,300.99,420.152z M316.904,434.801v-14.648
		h10.914c0.741,3.215,2.731,9.34,7.814,14.648H316.904z M327.809,415.152h-10.904V313.319h22.343
		C339.03,323.182,337.572,361.491,327.809,415.152z M340.96,155.102c-1.252,0.09-2.243,1.094-2.317,2.347l-0.854,14.491
		c-0.032,0.552,0.119,1.1,0.432,1.557c19.026,27.855,20.873,118.561,21.05,134.822h-78.275c-0.032-0.286-9.647-44.05-9.647-44.05
		c3.229-45.682,9.879-77.068,19.239-90.772c0.313-0.457,0.464-1.005,0.432-1.557l-0.853-14.491
		c-0.074-1.253-1.065-2.257-2.317-2.347c-2.478-0.177-4.852-2.7-6.192-6.583c-1.719-4.978-1.433-11.854,2.439-15.364
		c1.023-0.927,1.101-2.508,0.174-3.531c-0.929-1.022-2.508-1.102-3.531-0.173c-4.085,3.703-5.382,9.424-5.004,14.698l-12.588-5.719
		l2.324-10.495c0.04-0.178,4.232-17.867,21.076-21.825l1.963-0.471c1.807,9.233,11.756,15.237,25.896,15.237
		c14.14,0,24.09-6.004,25.895-15.237l1.974,0.474c16.756,3.938,20.898,21.099,21.064,21.811l2.327,10.506l-12.589,5.72
		c0.378-5.274-0.919-10.996-5.004-14.698c-1.023-0.929-2.604-0.849-3.531,0.173c-0.927,1.023-0.85,2.604,0.174,3.531
		c3.871,3.51,4.157,10.386,2.438,15.364C345.812,152.402,343.439,154.925,340.96,155.102z M386.851,242.02
		c-0.846,1.338-2.161,2.267-3.704,2.615c-3.188,0.717-6.363-1.289-7.083-4.475c-0.014-0.06-0.029-0.119-0.047-0.178l-26.107-85.712
		c0.76-1.207,1.426-2.561,1.953-4.08l14.906-6.772l20.852,94.135C387.969,239.097,387.695,240.683,386.851,242.02z"/>
	<path d="M131.21,65.815c5.286,0,8.978-2.147,8.978-5.223c0-1.381-1.119-2.5-2.5-2.5c-1.175,0-2.161,0.811-2.429,1.903
		c-0.486,0.299-1.872,0.819-4.049,0.819c-2.177,0-3.563-0.52-4.049-0.819c-0.268-1.092-1.254-1.903-2.429-1.903
		c-1.381,0-2.5,1.119-2.5,2.5C122.232,63.668,125.924,65.815,131.21,65.815z"/>
	<path d="M120.439,48.46c0.66,0,1.31-0.26,1.77-0.73c0.471-0.46,0.73-1.11,0.73-1.77c0-0.65-0.26-1.3-0.73-1.77
		c-0.93-0.93-2.609-0.92-3.529,0c-0.471,0.47-0.74,1.12-0.74,1.77c0,0.66,0.27,1.31,0.74,1.77
		C119.14,48.2,119.789,48.46,120.439,48.46z"/>
	<path d="M141.98,48.46c0.649,0,1.3-0.26,1.76-0.73c0.47-0.46,0.74-1.11,0.74-1.77c0-0.66-0.27-1.3-0.74-1.76
		c-0.93-0.93-2.6-0.93-3.53,0c-0.47,0.46-0.74,1.1-0.74,1.76c0,0.66,0.27,1.31,0.74,1.77C140.669,48.2,141.319,48.46,141.98,48.46z"
		/>
	<path d="M225.797,188.091c-0.002,0-0.004,0-0.006,0c-1.089,0.003-2.014,0.701-2.355,1.674c-0.51,0.254-1.733,0.616-3.526,0.62
		c-0.01,0-0.02,0-0.028,0c-1.778,0-2.993-0.355-3.501-0.605c-0.345-0.97-1.27-1.665-2.357-1.665c-0.002,0-0.004,0-0.006,0
		c-1.381,0.004-2.497,1.125-2.494,2.506c0.007,2.852,3.362,4.764,8.356,4.764c0.014,0,0.028,0,0.041,0
		c1.874-0.004,3.673-0.305,5.065-0.849c2.888-1.126,3.314-2.959,3.313-3.951C228.294,189.206,227.175,188.091,225.797,188.091z"/>
	<path d="M212.629,178.37c0-0.66-0.27-1.3-0.73-1.77c-0.94-0.93-2.61-0.93-3.54,0c-0.47,0.46-0.73,1.11-0.73,1.77
		c0,0.66,0.261,1.3,0.73,1.76c0.46,0.47,1.109,0.74,1.77,0.74c0.66,0,1.301-0.27,1.77-0.74
		C212.359,179.67,212.629,179.02,212.629,178.37z"/>
	<path d="M227.93,176.56c-0.471,0.46-0.74,1.11-0.74,1.77c0,0.65,0.27,1.3,0.74,1.76c0.46,0.47,1.109,0.73,1.76,0.73
		c0.66,0,1.31-0.26,1.77-0.73c0.471-0.46,0.73-1.11,0.73-1.76c0-0.66-0.26-1.31-0.73-1.77
		C230.529,175.63,228.85,175.63,227.93,176.56z"/>
</g>
<g>
</g>
<g>
</g>
<g>
</g>
<g>
</g>
<g>
</g>
<g>
</g>
<g>
</g>
<g>
</g>
<g>
</g>
<g>
</g>
<g>
</g>
<g>
</g>
<g>
</g>
<g>
</g>
<g>
</g>
</svg>
