<?xml version="1.0" encoding="iso-8859-1"?>
<!-- Generator: Adobe Illustrator 19.0.0, SVG Export Plug-In . SVG Version: 6.00 Build 0)  -->
<svg version="1.1" id="Layer_1" xmlns="http://www.w3.org/2000/svg" xmlns:xlink="http://www.w3.org/1999/xlink" x="0px" y="0px"
	 viewBox="0 0 503.551 503.551" style="enable-background:new 0 0 503.551 503.551;" xml:space="preserve">
<g transform="translate(1)">
	<g>
		<g>
			<path d="M499.895,280.71l-8.234-19.221c-0.126-0.285-0.336-0.504-0.478-0.772c-0.722-1.763-1.595-3.559-2.871-5.405
				c-12.061-17.509-45.207-26.104-98.556-25.625l-11.675,61.381c-5.598,0.352-11.348,0.671-17.265,0.948l12.405-65.242
				l-31.878-14.999l-16.149,27.489c-1.57,2.661-4.373,4.138-7.252,4.138c-1.435,0-2.904-0.369-4.239-1.15
				c-3.995-2.35-5.33-7.495-2.988-11.491l15.377-26.162l-18.776-8.838l-15.696,26.716c-1.57,2.661-4.373,4.138-7.252,4.138
				c-1.435,0-2.904-0.369-4.239-1.15c-3.995-2.35-5.33-7.495-2.988-11.491l14.924-25.39l-18.776-8.838l-15.242,25.944
				c-1.57,2.661-4.373,4.138-7.252,4.138c-1.435,0-2.904-0.369-4.239-1.15c-3.995-2.35-5.33-7.495-2.988-11.491l14.462-24.618
				l-18.768-8.83l-14.789,25.164c-1.57,2.661-4.373,4.138-7.252,4.138c-1.435,0-2.904-0.369-4.239-1.15
				c-3.995-2.35-5.33-7.495-2.988-11.491l14.009-23.846l-22.419-10.551c-3.827-1.796-8.393-0.453-10.66,3.106
				c-2.3,3.609-57.336,87.72-158.124,29.008c-0.99-0.579-2.082-0.89-3.198-1.024c-7.009-1.427-13.816-11.39-13.816-20.413
				c0-4.633-3.752-8.393-8.393-8.393c-4.633,0-8.393,3.76-8.393,8.393c0,12.918,7.814,27.766,20.01,34.145
				c-7.034,37.376-17.584,91.824-19.574,97.792c-0.117,0.344-0.034,0.705-0.101,1.058C-0.773,290.212-1,290.715-1,291.269v50.067
				c0,4.566,3.651,8.293,8.217,8.393c2.023,0.042,203.91,4.474,333.505,8.393c4.893,0.151,9.661,0.218,14.277,0.218
				c71.923,0,111.54-17.248,132.381-32.248C500.987,316.307,506.199,297.808,499.895,280.71z M158.954,226.22
				c1.024-2.904,3.559-5.011,6.597-5.498l18.684-2.963l9.015-15.033c3.03-5.061,11.365-5.061,14.395,0l9.015,15.033l18.684,2.963
				c3.038,0.487,5.573,2.594,6.597,5.498s0.378,6.136-1.687,8.427l-12.943,14.319l3.458,18.583c0.588,3.164-0.688,6.396-3.29,8.301
				c-1.469,1.083-3.215,1.628-4.969,1.628c-1.343,0-2.694-0.327-3.92-0.974l-18.147-9.602l-18.138,9.602
				c-2.829,1.511-6.295,1.259-8.889-0.655c-2.602-1.905-3.878-5.137-3.29-8.301l3.458-18.583l-12.943-14.319
				C158.576,232.356,157.93,229.124,158.954,226.22z M477.577,312.471c-20.077,14.445-59.912,31.156-136.343,28.873
				C226.471,337.878,55.077,334,15.787,333.127v-32.818c37.611,2.728,149.613,10.148,255.807,10.383h0.42
				c1.553,0,3.106,0.008,4.65,0.008c3.139,0,6.245-0.025,9.359-0.042c1.989-0.008,3.979-0.008,5.959-0.025
				c4.104-0.025,8.167-0.076,12.238-0.134c2.124-0.025,4.247-0.05,6.354-0.084c3.869-0.067,7.68-0.151,11.499-0.243
				c2.258-0.05,4.524-0.101,6.757-0.159c3.651-0.101,7.244-0.227,10.836-0.353c2.317-0.084,4.65-0.159,6.95-0.252
				c3.466-0.134,6.866-0.302,10.265-0.462c2.317-0.117,4.658-0.218,6.95-0.344c3.265-0.176,6.463-0.386,9.661-0.588
				c2.333-0.151,4.675-0.294,6.967-0.453c3.038-0.218,5.993-0.462,8.947-0.705c2.325-0.185,4.658-0.378,6.933-0.579
				c2.803-0.26,5.523-0.537,8.251-0.823c2.283-0.235,4.574-0.462,6.799-0.722c2.577-0.294,5.053-0.613,7.546-0.932
				c2.207-0.285,4.423-0.571,6.555-0.873c2.35-0.336,4.6-0.705,6.857-1.066c2.09-0.336,4.197-0.672,6.203-1.032
				c2.124-0.378,4.146-0.789,6.169-1.192c1.947-0.395,3.903-0.781,5.758-1.2c1.888-0.428,3.668-0.881,5.456-1.335
				c1.779-0.453,3.567-0.898,5.238-1.377c1.654-0.47,3.19-0.974,4.742-1.477c1.578-0.512,3.156-1.016,4.616-1.561
				c1.41-0.52,2.703-1.074,4.004-1.628c1.351-0.571,2.703-1.142,3.92-1.746c1.175-0.579,2.207-1.183,3.248-1.796
				c0.747-0.428,1.637-0.831,2.325-1.276l0.285,0.68C487.91,296.708,485.207,306.982,477.577,312.471z"/>
			<path d="M190.847,247.951l-1.041,5.59l6.715-3.55c1.225-0.655,2.568-0.982,3.928-0.982c1.351,0,2.694,0.327,3.92,0.982
				l6.715,3.55l-1.041-5.59c-0.478-2.568,0.269-5.221,2.023-7.16l5.347-5.917l-7.252-1.15c-2.451-0.386-4.6-1.847-5.875-3.97
				l-3.836-6.396l-3.836,6.396c-1.284,2.124-3.433,3.584-5.884,3.97l-7.252,1.15l5.347,5.917
				C190.579,242.73,191.326,245.382,190.847,247.951z"/>
		</g>
	</g>
</g>
<g>
</g>
<g>
</g>
<g>
</g>
<g>
</g>
<g>
</g>
<g>
</g>
<g>
</g>
<g>
</g>
<g>
</g>
<g>
</g>
<g>
</g>
<g>
</g>
<g>
</g>
<g>
</g>
<g>
</g>
</svg>
