<?xml version="1.0" encoding="iso-8859-1"?>
<!-- Generator: Adobe Illustrator 19.0.0, SVG Export Plug-In . SVG Version: 6.00 Build 0)  -->
<svg version="1.1" id="Layer_1" xmlns="http://www.w3.org/2000/svg" xmlns:xlink="http://www.w3.org/1999/xlink" x="0px" y="0px"
	 viewBox="0 0 511.758 511.758" style="enable-background:new 0 0 511.758 511.758;" xml:space="preserve">
<g transform="translate(0 -1)">
	<g>
		<g>
			<path d="M511.653,309.506c0.034-0.674-0.026-1.365-0.102-2.074c-0.009-0.06,0.017-0.111,0.008-0.171
				c-0.008-0.068-0.026-0.145-0.034-0.213v-0.026c0-0.008-0.009-0.008-0.009-0.017c-1.169-9.19-7.893-29.551-45.756-28.681
				c-23.134,0.7-49.434-13.431-49.707-13.577c-0.282-0.145-0.572-0.29-0.87-0.401l-23.159-9.267l-28.433,32.461
				c-9.967,13.244-25.071,22.084-42.129,24.405c-2.927,0.401-5.854,0.589-8.764,0.589c-14.003,0-27.546-4.565-38.852-13.235
				c-0.247-0.188-0.486-0.401-0.717-0.614l-41.293-39.654c-2.287,2.611-4.531,5.188-6.707,7.731
				c-0.017,0.017-0.026,0.043-0.043,0.06c-9.626,11.221-18.867,22.545-26.837,32.862c-11.947,15.488-19.644,26.923-21.077,30.857
				c-0.956,2.62-2.193,5.111-3.575,7.518h-21.598c4.301-3.917,7.296-8.303,9.139-13.355c1.587-4.343,6.204-11.742,12.655-20.779
				H90.934c-4.403,11.076-8.038,22.468-10.854,34.133H62.663c3.618-15.804,8.636-31.147,14.925-45.952
				c0.009-0.017,0.009-0.034,0.017-0.051c0.068-0.154,0.128-0.282,0.188-0.435c1.869-4.361,3.772-8.695,5.862-12.954
				c2.671-5.572,5.342-10.701,8.115-15.522l3.593-6.187c0.009-0.008,0.026-0.026,0.034-0.043
				c14.362-24.627,33.579-55.689,51.729-79.232l-38.409-36.89c-18.961,5.436-42.692,9.532-74.897,9.532
				c-4.71,0-8.533,3.823-8.533,8.533v81.724c-10.743,11.034-44.51,52.463-10.445,105.847c-11.29,18.176-5.53,31.343-0.725,37.828
				c6.255,8.474,16.819,13.534,28.271,13.534h337.493c39.108,0,78.421-8.926,113.673-25.813l4.198-2.005
				C510.313,364,512.292,334.133,511.653,309.506z M489.773,354.869l-3.584,1.707c-32.981,15.804-69.743,24.149-106.308,24.149
				H42.387c-6.05,0-11.486-2.466-14.549-6.605c-1.451-1.963-5.606-7.586,1.655-18.995h40.559h85.077h262.63
				c1.707,0,3.379-0.196,5.043-0.495c0.529-0.094,1.05-0.222,1.579-0.35c1.135-0.273,2.253-0.606,3.354-1.015
				c0.538-0.205,1.067-0.384,1.596-0.614c1.408-0.623,2.773-1.34,4.079-2.185c1.673-1.084,3.251-2.33,4.702-3.772
				c1.152-1.161,2.492-2.039,4.002-2.62c3.157-1.22,8.747-2.91,15.215-4.881c13.79-4.19,25.318-7.868,34.27-11.639
				c0.009-0.009,0.017-0.017,0.034-0.017c0.905-0.384,1.929-0.768,2.782-1.152C493.784,340.115,492.017,351.669,489.773,354.869z"/>
			<path d="M319.177,295.035c12.501-1.698,23.586-8.192,31.198-18.27l24.866-28.39l-18.534-7.415
				c2.236-4.548,3.081-9.643,2.364-14.771c-0.947-6.775-4.471-12.766-9.924-16.896c-5.453-4.122-12.16-5.871-18.97-4.924
				c-6.767,0.939-12.766,4.471-16.887,9.924l-3.43,4.54c-3.891-2.364-7.885-4.966-12.134-7.91
				c8.448-11.255,6.204-27.29-5.043-35.797c-10.556-7.945-25.225-6.374-34.039,3.055c-3.9-3.977-7.569-7.868-10.82-11.674
				c-41.591-48.734-60.1-51.968-70.477-50.185c-10.317,1.809-20.13,5.956-31.505,10.769c-5.828,2.466-12.023,5.077-18.816,7.62
				L284.6,286.024C294.55,293.508,306.761,296.699,319.177,295.035z M311.472,245.013l7.441-9.856h0.008l7.987-10.581
				c1.374-1.818,3.371-2.987,5.632-3.302c0.401-0.06,0.802-0.085,1.203-0.085c1.826,0,3.61,0.589,5.111,1.724
				c1.818,1.374,2.995,3.371,3.311,5.632c0.316,2.253-0.265,4.497-1.647,6.315l-15.428,20.437c-1.365,1.818-3.371,2.987-5.615,3.311
				c-2.253,0.324-4.506-0.265-6.332-1.655c-1.818-1.365-2.995-3.362-3.302-5.623C309.526,249.066,310.106,246.83,311.472,245.013z
				 M268.643,221.137c-2.492,3.285-6.886,4.105-10.462,2.389c-0.503-0.239-1.033-0.367-1.493-0.717
				c-1.869-1.408-2.987-3.447-3.294-5.598c0-0.017-0.008-0.026-0.017-0.034c-0.299-2.167,0.222-4.446,1.638-6.323l11.153-14.763
				c0,0,0-0.009,0.009-0.017l4.267-5.649c2.833-3.772,8.201-4.506,11.947-1.673c3.755,2.842,4.506,8.201,1.673,11.955
				L268.643,221.137z"/>
			<path d="M106.556,271.661c-2.176,3.772-4.13,7.654-6.101,11.529c-0.606,1.229-1.212,2.389-1.826,3.669h87.962
				c1.903-2.441,3.891-4.941,5.914-7.467c0.469-0.589,0.939-1.169,1.417-1.766c1.988-2.466,4.011-4.958,6.067-7.467
				c0.102-0.12,0.196-0.239,0.299-0.367h-92.638L106.556,271.661z"/>
			<path d="M219.265,247.477l-60.279-57.31c-14.097,18.586-28.885,41.847-41.301,62.558h97.015
				C216.218,250.967,217.746,249.21,219.265,247.477z"/>
		</g>
	</g>
</g>
<g>
</g>
<g>
</g>
<g>
</g>
<g>
</g>
<g>
</g>
<g>
</g>
<g>
</g>
<g>
</g>
<g>
</g>
<g>
</g>
<g>
</g>
<g>
</g>
<g>
</g>
<g>
</g>
<g>
</g>
</svg>
