<?xml version="1.0" encoding="iso-8859-1"?>
<!-- Generator: Adobe Illustrator 19.0.0, SVG Export Plug-In . SVG Version: 6.00 Build 0)  -->
<svg version="1.1" id="Layer_1" xmlns="http://www.w3.org/2000/svg" xmlns:xlink="http://www.w3.org/1999/xlink" x="0px" y="0px"
	 viewBox="0 0 501.333 501.333" style="enable-background:new 0 0 501.333 501.333;" xml:space="preserve">
<g>
	<g>
		<path d="M291.2,136.533l51.2-60.8c6.4-6.4,6.4-17.067,1.067-25.6l-28.8-41.6C310.4,3.2,304,0,297.6,0h-93.867
			c-6.4,0-12.8,3.2-17.067,8.533l-28.8,42.667c-5.333,7.467-5.333,18.133,1.067,25.6l51.2,59.733c-82.133,19.2-144,92.8-144,180.267
			c0,101.333,82.133,184.533,184.533,184.533S435.2,418.133,435.2,316.8C435.2,229.333,373.334,154.667,291.2,136.533z
			 M200.533,61.867l13.867-19.2h72.533l13.867,19.2l-50.133,58.667L200.533,61.867z M250.667,459.733
			c-78.933,0-142.933-64-142.933-142.933s64-142.933,142.933-142.933S393.6,237.867,393.6,316.8S329.6,459.733,250.667,459.733z"/>
	</g>
</g>
<g>
</g>
<g>
</g>
<g>
</g>
<g>
</g>
<g>
</g>
<g>
</g>
<g>
</g>
<g>
</g>
<g>
</g>
<g>
</g>
<g>
</g>
<g>
</g>
<g>
</g>
<g>
</g>
<g>
</g>
</svg>
