<?xml version="1.0" encoding="iso-8859-1"?>
<!-- Generator: Adobe Illustrator 19.0.0, SVG Export Plug-In . SVG Version: 6.00 Build 0)  -->
<svg version="1.1" id="Layer_1" xmlns="http://www.w3.org/2000/svg" xmlns:xlink="http://www.w3.org/1999/xlink" x="0px" y="0px"
	 viewBox="0 0 501.333 501.333" style="enable-background:new 0 0 501.333 501.333;" xml:space="preserve">
<g>
	<g>
		<path d="M360,168.533c-8.533-27.733-30.933-44.8-49.067-51.2c-19.2-6.4-39.467-1.067-59.733,11.733
			c-20.267-14.933-40.533-19.2-59.733-11.733c-18.133,6.4-40.533,23.467-49.067,51.2c-5.333,18.133-5.333,46.933,22.4,82.133
			C229.867,331.733,240.533,336,250.133,336h2.133c8.533,0,20.267-5.333,85.333-85.333C365.333,216.533,365.333,186.667,360,168.533
			z M303.466,225.067c-17.067,20.267-40.533,46.933-54.4,61.867c-13.867-14.933-38.4-42.667-53.333-61.867
			c-8.533-11.733-17.066-28.8-13.867-44.8c3.2-11.733,13.867-20.267,22.4-23.467c6.4-2.133,19.2,3.2,29.867,13.867
			c5.333,5.333,12.8,7.467,19.2,5.333c4.267,0,8.533-2.133,12.8-5.333c10.667-10.667,22.4-16,29.867-13.867
			c8.533,3.2,19.2,11.733,22.4,23.467C322.666,196.267,313.066,213.333,303.466,225.067z"/>
	</g>
</g>
<g>
	<g>
		<path d="M422.933,0H78.4C66.667,0,57.067,9.6,57.067,21.333V480c0,11.733,9.6,21.333,21.333,21.333H424
			c10.667,0,20.267-9.6,20.267-20.267V21.333C444.267,9.6,434.667,0,422.933,0z M402.667,459.733H99.733V41.6h302.933V459.733z"/>
	</g>
</g>
<g>
	<g>
		<path d="M253.333,381.867H248c-11.733,0-21.333,9.6-21.333,21.333s9.6,21.333,21.333,21.333h5.333
			c11.733,0,21.333-9.6,21.333-21.333C274.667,391.467,265.066,381.867,253.333,381.867z"/>
	</g>
</g>
<g>
</g>
<g>
</g>
<g>
</g>
<g>
</g>
<g>
</g>
<g>
</g>
<g>
</g>
<g>
</g>
<g>
</g>
<g>
</g>
<g>
</g>
<g>
</g>
<g>
</g>
<g>
</g>
<g>
</g>
</svg>
