<?xml version="1.0" encoding="iso-8859-1"?>
<!-- Generator: Adobe Illustrator 19.0.0, SVG Export Plug-In . SVG Version: 6.00 Build 0)  -->
<svg version="1.1" id="Layer_1" xmlns="http://www.w3.org/2000/svg" xmlns:xlink="http://www.w3.org/1999/xlink" x="0px" y="0px"
	 viewBox="0 0 496 496" style="enable-background:new 0 0 496 496;" xml:space="preserve">
<g>
	<g>
		<g>
			<path d="M320,206.112L300.944,168H272v-16h16v-31.312L376,128h88c17.648,0,32-14.352,32-32s-14.352-32-32-32l-88.664,0.032
				L288,71.312v-9.976c0-15.488-5.12-30.832-14.408-43.208l-6.4-8.52C262.688,3.584,255.512,0,248,0
				c-7.512,0-14.688,3.584-19.192,9.6l-6.4,8.52C213.12,30.504,208,45.848,208,61.336v9.976L120,64H32C14.352,64,0,78.352,0,96
				s14.352,32,32,32l88.664-0.032l87.336-7.28V152h16v16h-28.944L176,206.112V392h-32v56h48v32h48v-32h16v32h48v-32h11.056
				l8.52,17.048C333.136,484.144,352.32,496,373.664,496H496v-16H373.664c-15.24,0-28.952-8.472-35.776-22.112L324.944,432H160v-24
				h336v-16H320V206.112z M288,87.352L376,80h88c8.824,0,16,7.176,16,16s-7.176,16-16,16l-87.336,0.032L288,104.64V87.352z
				 M208,104.648L120,112H32c-8.824,0-16-7.176-16-16s7.176-16,16-16l87.336-0.032L208,87.36V104.648z M272,448h16v16h-16V448z
				 M208,448h16v16h-16V448z M235.2,27.728l6.4-8.528c3-4,9.8-4,12.8,0l6.4,8.528v0.008c6.152,8.192,9.776,18.08,10.768,28.264
				H224.44C225.432,45.816,229.048,35.928,235.2,27.728z M224,72h48v64h-16v-16h-16v16h-16V72z M256,152v16h-16v-16H256z
				 M204.944,184h86.112l8,16H196.944L204.944,184z M304,392H192v-16h112V392z M304,360H192v-32h16v16h16v-16h16v16h16v-16h16v16h16
				v-16h16V360z M304,312H192v-96h112V312z"/>
			<rect x="240" y="88" width="16" height="16"/>
			<polygon points="352,448 368,448 368,464 384,464 384,448 400,448 400,464 416,464 416,448 432,448 432,464 448,464 448,448 
				464,448 464,464 480,464 480,448 496,448 496,432 352,432 			"/>
		</g>
	</g>
</g>
<g>
</g>
<g>
</g>
<g>
</g>
<g>
</g>
<g>
</g>
<g>
</g>
<g>
</g>
<g>
</g>
<g>
</g>
<g>
</g>
<g>
</g>
<g>
</g>
<g>
</g>
<g>
</g>
<g>
</g>
</svg>
