<?xml version="1.0" encoding="iso-8859-1"?>
<!-- Generator: Adobe Illustrator 18.0.0, SVG Export Plug-In . SVG Version: 6.00 Build 0)  -->
<!DOCTYPE svg PUBLIC "-//W3C//DTD SVG 1.1//EN" "http://www.w3.org/Graphics/SVG/1.1/DTD/svg11.dtd">
<svg version="1.1" id="Capa_1" xmlns="http://www.w3.org/2000/svg" xmlns:xlink="http://www.w3.org/1999/xlink" x="0px" y="0px"
	 viewBox="0 0 438.075 438.075" style="enable-background:new 0 0 438.075 438.075;" xml:space="preserve">
<g>
	<path d="M151.033,51.939l33.551,21.78c1.682,1.092,3.569,1.613,5.436,1.613c3.273,0,6.481-1.605,8.397-4.556
		c3.007-4.632,1.689-10.825-2.943-13.833l-13.562-8.804c28.368-4.948,70.994-2.552,115.14,6.563
		c23.193,4.788,45.817,11.248,65.427,18.681c1.167,0.442,2.365,0.652,3.543,0.652c4.036,0,7.837-2.461,9.353-6.458
		c1.958-5.165-0.642-10.938-5.806-12.895c-20.582-7.802-44.26-14.568-68.472-19.566c-46.581-9.618-92.092-12.034-122.918-6.624
		l8.47-13.046c3.007-4.632,1.69-10.826-2.942-13.833c-4.633-3.006-10.826-1.69-13.833,2.942L148.09,38.106
		c-1.444,2.225-1.945,4.932-1.394,7.526C147.248,48.227,148.808,50.495,151.033,51.939z"/>
	<path d="M399.935,275.278c-2.958-25.291-16.076-50.213-37.935-72.072l-30.611-30.505c-8.192-8.192-19.117-12.718-30.738-12.718
		c-11.62,0-22.544,4.525-30.76,12.741c-2.484,2.485-4.663,5.246-6.501,8.213l-76.253-76.204
		c-8.223-8.223-19.153-12.755-30.773-12.756c-11.598-0.001-22.504,4.518-30.711,12.724c-2.647,2.647-4.903,5.529-6.768,8.567
		l-0.895-0.895c-8.215-8.214-19.14-12.739-30.76-12.74c-11.622,0-22.547,4.525-30.765,12.743
		c-8.129,8.129-12.654,18.937-12.739,30.432c-0.085,11.476,4.263,22.336,12.242,30.58l0.113,0.117l0.115,0.115l2.65,2.65
		c-3.14,1.864-6.052,4.111-8.646,6.705c-8.217,8.217-12.742,19.143-12.742,30.763s4.525,22.545,12.741,30.761l91.672,91.672
		c-7.266,15.058-6.658,35.21,7.671,50.368c22.68,23.994,54.147,51.536,96.517,51.536c34.78,0,70.131-18.444,108.073-56.386
		C388.737,347.087,404.147,311.285,399.935,275.278z M339.993,367.547c-36.65,36.651-67.332,50.528-93.931,50.528
		c-32.206,0-58.426-20.354-81.982-45.274c-10.373-10.974-7.501-26.454,0.001-33.956l19.575,19.575
		c1.064,1.064,2.041,1.403,2.848,1.403c1.06,0,1.827-0.583,2.117-0.873c0.508-0.509,1.879-2.438-0.584-4.901
		c-2.376-2.376-123.691-123.691-123.691-123.691c-9.178-9.178-9.179-24.06,0.001-33.239c4.663-4.663,11.238-7.179,17.498-7.179
		c5.047,0,9.889,1.636,13.355,5.103c0.039,0.024,79.203,79.321,79.203,79.321c0.748,0.747,1.727,1.121,2.706,1.121
		c0.979,0,1.958-0.374,2.706-1.121c1.494-1.494,1.494-3.917,0-5.411L70.341,159.479c-8.904-9.199-8.82-23.871,0.269-32.96
		c4.59-4.59,10.604-6.885,16.621-6.885c6.015,0,12.031,2.295,16.62,6.884l120.707,120.686c0.736,0.736,1.701,1.104,2.666,1.104
		c0.965,0,1.93-0.369,2.667-1.105c1.471-1.471,1.472-3.856-0.001-5.33l-92.376-92.367c-8.355-8.355-6.069-22.308,2.283-30.661
		c4.581-4.581,10.571-6.867,16.567-6.866c6.017,0.001,12.039,2.304,16.637,6.902l103.898,103.831
		c0.715,0.716,1.653,1.074,2.592,1.074c0.939,0,1.879-0.358,2.596-1.076c1.431-1.431,1.431-3.753-0.001-5.186l-0.936-0.92
		c-7.599-7.599-5.203-21.65,2.885-29.737c4.589-4.589,10.604-6.883,16.619-6.883c6.015,0,12.031,2.295,16.62,6.884l30.587,30.48
		C376.257,245.746,407.982,299.559,339.993,367.547z"/>
</g>
<g>
</g>
<g>
</g>
<g>
</g>
<g>
</g>
<g>
</g>
<g>
</g>
<g>
</g>
<g>
</g>
<g>
</g>
<g>
</g>
<g>
</g>
<g>
</g>
<g>
</g>
<g>
</g>
<g>
</g>
</svg>
