<?xml version="1.0" encoding="iso-8859-1"?>
<!-- Generator: Adobe Illustrator 19.0.0, SVG Export Plug-In . SVG Version: 6.00 Build 0)  -->
<svg version="1.1" id="Layer_1" xmlns="http://www.w3.org/2000/svg" xmlns:xlink="http://www.w3.org/1999/xlink" x="0px" y="0px"
	 viewBox="0 0 512.003 512.003" style="enable-background:new 0 0 512.003 512.003;" xml:space="preserve">
<g>
	<g>
		<path d="M275.542,472.921v-0.003V346.508l95.918-95.918c4.699,0.479,10.349,0.869,16.392,0.869c23.708,0,41.528-5.8,52.965-17.237
			c24.574-24.573,16.436-72.727,14.555-82.13l-2.555-12.776l-12.774-2.555c-0.547-0.109-13.59-2.682-29.161-2.682
			c-1.828,0-3.609,0.047-5.367,0.116c1.746-18.403-1.209-35.517-2.251-40.727l-2.555-12.776l-12.774-2.555
			c-0.547-0.109-13.59-2.682-29.161-2.682c-19.051,0-34.291,3.753-45.483,11.158c0.842-3.585,1.33-7.263,1.33-11.021
			c0-34.754-39.802-63.048-47.781-68.367L256.003,0l-10.839,7.227c-7.979,5.319-47.782,33.615-47.785,68.366
			c0,3.758,0.49,7.436,1.329,11.022c-11.192-7.405-26.431-11.158-45.483-11.158c-15.571,0-28.613,2.573-29.161,2.682l-12.774,2.555
			l-2.555,12.776c-0.111,0.547-2.682,13.591-2.682,29.164c0,4.032,0.181,7.879,0.516,11.567c-1.786-0.072-3.594-0.12-5.452-0.12
			c-15.571,0-28.613,2.573-29.161,2.682l-12.774,2.555l-2.555,12.776c-0.109,0.547-2.682,13.591-2.682,29.164
			c0,23.708,5.8,41.529,17.237,52.967c11.438,11.438,29.257,17.237,52.967,17.237c6.301,0,12.169-0.422,16.982-0.931l95.329,95.329
			v127.062H21.514v39.081h468.974v-39.081H275.542z M385.55,178.953c2.799-2.799,10.926-5.792,25.334-5.792
			c2.802,0,5.507,0.113,7.996,0.284c1.122,16.688-2.118,29.565-5.697,33.142c-2.799,2.799-10.923,5.791-25.331,5.791
			c-2.803,0-5.508-0.112-7.999-0.283C378.732,195.407,381.972,182.53,385.55,178.953z M131.993,212.105
			c-2.448,0.164-5.098,0.272-7.842,0.272c-14.408,0-22.532-2.991-25.332-5.791c-5.117-5.118-6.356-19.858-5.539-33.153
			c2.447-0.165,5.098-0.274,7.84-0.274c14.409,0,22.534,2.992,25.335,5.792C131.571,184.071,132.81,198.81,131.993,212.105z
			 M333.442,120.331c2.799-2.799,10.926-5.792,25.334-5.792c2.802,0,5.507,0.113,7.996,0.284
			c1.122,16.688-2.118,29.565-5.697,33.142c-2.799,2.799-10.923,5.791-25.331,5.791c-2.803,0-5.508-0.112-7.999-0.283
			C326.624,136.784,329.863,123.908,333.442,120.331z M318.469,191.876c4.866,0.521,10.846,0.961,17.276,0.961
			c1.828,0,3.607-0.046,5.365-0.116c-1.172,12.363-0.229,24.131,0.839,32.113l-66.405,66.405v-56.438h-0.001L318.469,191.876z
			 M290.391,124.345c-2.969,15.26-1.959,30.895-0.664,41.004l-14.185,14.185V137.62C279.877,134.219,285.14,129.72,290.391,124.345z
			 M236.461,137.62v41.913l-14.255-14.256c0.63-5.213,1.228-12.111,1.228-19.615c0-7.765-0.634-14.887-1.873-21.372
			C226.828,129.69,232.112,134.207,236.461,137.62z M145.387,114.813c2.446-0.165,5.097-0.274,7.84-0.274
			c14.409,0,22.534,2.992,25.335,5.792c5.117,5.118,6.356,19.857,5.539,33.153c-2.448,0.164-5.097,0.272-7.842,0.272
			c-14.408,0-22.532-2.991-25.331-5.791C145.809,142.847,144.572,128.107,145.387,114.813z M236.462,290.589l-66.4-66.4
			c0.645-5.243,1.264-12.265,1.264-19.904c0-4.032-0.181-7.877-0.516-11.567c1.785,0.072,3.592,0.12,5.449,0.12
			c6.43,0,12.41-0.44,17.276-0.961l42.927,42.925V290.589z M255.883,103.069c-12.601-11.01-19.422-22.413-19.422-27.474
			c0.001-7.269,9.634-18.638,19.659-27.478c12.601,11.013,19.422,22.417,19.422,27.478
			C275.542,82.86,265.916,94.222,255.883,103.069z"/>
	</g>
</g>
<g>
	<g>
		<path d="M410.14,293.823l-10.84-7.227l-10.839,7.227c-7.979,5.319-47.782,33.615-47.785,68.366
			c0,34.752,39.804,63.048,47.783,68.366l10.839,7.226l10.839-7.226c7.979-5.319,47.783-33.615,47.783-68.365
			C457.921,327.438,418.119,299.142,410.14,293.823z M399.18,389.664c-12.601-11.01-19.422-22.413-19.422-27.474
			c0-7.269,9.633-18.638,19.659-27.478c12.601,11.012,19.422,22.416,19.422,27.478C418.84,369.455,409.214,380.818,399.18,389.664z"
			/>
	</g>
</g>
<g>
	<g>
		<path d="M168.644,334.472l-2.555-12.774l-12.773-2.556c-0.547-0.109-13.591-2.682-29.166-2.682
			c-23.707,0-41.526,5.798-52.965,17.235c-24.574,24.573-16.436,72.727-14.555,82.13l2.555,12.774l12.772,2.556
			c0.547,0.109,13.591,2.682,29.166,2.682c23.707,0,41.526-5.798,52.964-17.236C178.661,392.029,170.524,343.875,168.644,334.472z
			 M126.454,388.966c-2.799,2.798-10.923,5.789-25.33,5.789c-2.803,0-5.509-0.112-8-0.283c-1.123-16.688,2.116-29.565,5.694-33.141
			c2.799-2.799,10.924-5.791,25.331-5.791c2.745,0,5.395,0.107,7.842,0.272C132.808,369.118,131.568,383.85,126.454,388.966z"/>
	</g>
</g>
<g>
</g>
<g>
</g>
<g>
</g>
<g>
</g>
<g>
</g>
<g>
</g>
<g>
</g>
<g>
</g>
<g>
</g>
<g>
</g>
<g>
</g>
<g>
</g>
<g>
</g>
<g>
</g>
<g>
</g>
</svg>
