<?xml version="1.0" encoding="iso-8859-1"?>
<!-- Generator: Adobe Illustrator 19.0.0, SVG Export Plug-In . SVG Version: 6.00 Build 0)  -->
<svg version="1.1" id="Layer_1" xmlns="http://www.w3.org/2000/svg" xmlns:xlink="http://www.w3.org/1999/xlink" x="0px" y="0px"
	 viewBox="0 0 512 512" style="enable-background:new 0 0 512 512;" xml:space="preserve">
<path style="fill:#FFA850;" d="M438.468,8.17v130.723c36.098,0,65.362-29.264,65.362-65.362S474.566,8.17,438.468,8.17z"/>
<path style="fill:#FCDA49;" d="M471.149,73.532c0-36.098-14.631-65.362-32.681-65.362c-36.098,0-65.362,29.264-65.362,65.362
	s29.264,65.362,65.362,65.362C456.518,138.894,471.149,109.63,471.149,73.532z"/>
<g>
	<path style="fill:#8CE6FE;" d="M324.085,236.936h-32.681l27.234,27.234h32.681C351.319,249.126,339.129,236.936,324.085,236.936z"
		/>
	<path style="fill:#8CE6FE;" d="M476.596,264.17h-32.681v54.468h32.681c15.044,0,27.234-12.19,27.234-27.234
		C503.83,276.36,491.64,264.17,476.596,264.17z"/>
</g>
<path style="fill:#D9F7FF;" d="M443.915,264.17H318.638c0-15.044-12.19-27.234-27.234-27.234H84.426v81.702h359.489
	c15.044,0,27.234-12.19,27.234-27.234C471.149,276.36,458.959,264.17,443.915,264.17z"/>
<path style="fill:#7F9058;" d="M84.426,95.319H73.532c-3.813,0-7.484,0.665-10.894,1.885l21.787,74.371l32.681-32.681V128
	C117.106,110.026,102.4,95.319,84.426,95.319z"/>
<path style="fill:#AAC36D;" d="M84.426,128v43.574l-43.574-32.681V128c0-14.162,9.129-26.286,21.787-30.796
	C75.297,101.714,84.426,113.838,84.426,128z"/>
<path style="fill:#7F9058;" d="M226.043,160.681h-32.681v76.255l65.362-32.681v-10.894
	C258.723,175.387,244.017,160.681,226.043,160.681z"/>
<path style="fill:#AAC36D;" d="M226.043,193.362v43.574l-65.362-32.681v-10.894c0-17.974,14.706-32.681,32.681-32.681
	S226.043,175.387,226.043,193.362z"/>
<polygon style="fill:#FE9528;" points="324.085,418.304 324.085,503.83 280.511,503.83 247.83,449.525 280.511,395.22 "/>
<g>
	<polygon style="fill:#FEC14D;" points="84.426,138.894 117.106,138.894 117.106,503.83 84.426,503.83 62.638,379.098 	"/>
	<polygon style="fill:#FEC14D;" points="280.511,395.22 280.511,503.83 247.83,503.83 193.362,354.043 226.043,204.255 
		258.723,204.255 258.723,277.951 	"/>
</g>
<g>
	<polygon style="fill:#FFD686;" points="247.83,395.22 247.83,503.83 160.681,503.83 160.681,204.255 226.043,204.255 
		226.043,277.951 	"/>
	<polygon style="fill:#FFD686;" points="84.426,138.894 84.426,503.83 40.851,503.83 19.064,427.574 40.851,351.319 40.851,138.894 
			"/>
</g>
<polygon style="fill:#FFEDC6;" points="40.851,351.319 40.851,503.83 8.17,503.83 8.17,373.106 "/>
<path style="fill:#D9F7FF;" d="M476.596,351.319h-32.681v54.468h32.681c15.044,0,27.234-12.19,27.234-27.234
	C503.83,363.509,491.64,351.319,476.596,351.319z"/>
<path style="fill:#FFFFFF;" d="M443.915,351.319c15.044,0,27.234,12.19,27.234,27.234c0,15.044-12.19,27.234-27.234,27.234h-62.638
	c-15.044,0-27.234-12.19-27.234-27.234c0-15.044,12.19-27.234,27.234-27.234H443.915z"/>
<path style="fill:#D9F7FF;" d="M313.191,46.298h-32.681v54.468h32.681c15.044,0,27.234-12.19,27.234-27.234
	S328.236,46.298,313.191,46.298z"/>
<path style="fill:#FFFFFF;" d="M280.511,46.298c15.044,0,27.234,12.19,27.234,27.234s-12.19,27.234-27.234,27.234h-92.596
	c-15.044,0-27.234-12.19-27.234-27.234s12.19-27.234,27.234-27.234H280.511z"/>
<path d="M438.468,147.064c40.546,0,73.532-32.986,73.532-73.532S479.014,0,438.468,0s-73.532,32.986-73.532,73.532
	S397.922,147.064,438.468,147.064z M438.468,16.34c31.535,0,57.191,25.656,57.191,57.191s-25.657,57.191-57.191,57.191
	s-57.191-25.656-57.191-57.191S406.933,16.34,438.468,16.34z"/>
<path d="M430.298,318.638c0-4.512-3.657-8.17-8.17-8.17H299.574c-4.513,0-8.17,3.658-8.17,8.17c0,4.512,3.657,8.17,8.17,8.17
	h122.553C426.641,326.809,430.298,323.15,430.298,318.638z"/>
<path d="M476.596,256H358.538c-3.698-15.596-17.742-27.234-34.453-27.234h-57.191v-35.404c0-22.526-18.325-40.851-40.851-40.851
	h-32.681c-22.526,0-40.851,18.325-40.851,40.851v35.404h-27.234V128c0-22.526-18.325-40.851-40.851-40.851H73.532
	c-22.526,0-40.851,18.325-40.851,40.851v218.946L3.638,366.309C1.365,367.823,0,370.374,0,373.106V503.83
	c0,4.512,3.657,8.17,8.17,8.17s8.17-3.658,8.17-8.17V377.479l16.34-10.894v39.527c0,4.512,3.657,8.17,8.17,8.17
	s8.17-3.658,8.17-8.17v-54.739c0-0.026,0-204.31,0-204.31h27.234v57.191c0,4.512,3.657,8.17,8.17,8.17s8.17-3.658,8.17-8.17v-57.191
	h16.34V503.83c0,4.512,3.657,8.17,8.17,8.17s8.17-3.658,8.17-8.17V326.809h27.234V503.83c0,4.512,3.657,8.17,8.17,8.17
	s8.17-3.658,8.17-8.17V212.426h81.702v65.524c0,0.5,0.046,1,0.137,1.492l21.65,116.53V503.83c0,4.512,3.657,8.17,8.17,8.17
	c4.513,0,8.17-3.658,8.17-8.17v-95.036l27.234,14.43v80.606c0,4.512,3.657,8.17,8.17,8.17c4.513,0,8.17-3.658,8.17-8.17v-85.524
	c0-3.025-1.671-5.803-4.344-7.219l-40.089-21.24l-20.929-112.65v-32.09h57.191c10.511,0,19.064,8.553,19.064,19.064
	c0,4.512,3.657,8.17,8.17,8.17h125.277c10.511,0,19.064,8.553,19.064,19.064c0,10.511-8.553,19.064-19.064,19.064h-21.787
	c-4.513,0-8.17,3.658-8.17,8.17c0,4.512,3.657,8.17,8.17,8.17h21.787c19.522,0,35.404-15.883,35.404-35.404
	C512,271.883,496.118,256,476.596,256z M49.021,130.723V128c0-13.516,10.996-24.511,24.511-24.511h10.894
	c13.515,0,24.511,10.995,24.511,24.511v2.723H49.021z M125.277,310.468v-65.362h27.234v65.362H125.277z M168.851,196.085v-2.723
	c0-13.516,10.996-24.511,24.511-24.511h32.681c13.515,0,24.511,10.995,24.511,24.511v2.723H168.851z"/>
<path d="M193.362,228.766c-4.513,0-8.17,3.658-8.17,8.17v206.979c0,4.512,3.657,8.17,8.17,8.17s8.17-3.658,8.17-8.17V236.936
	C201.532,232.424,197.875,228.766,193.362,228.766z"/>
<path d="M476.596,343.149h-95.319c-19.522,0-35.404,15.883-35.404,35.404c0,19.521,15.882,35.404,35.404,35.404h95.319
	c19.522,0,35.404-15.883,35.404-35.404C512,359.032,496.118,343.149,476.596,343.149z M476.596,397.617h-95.319
	c-10.511,0-19.064-8.553-19.064-19.064c0-10.511,8.553-19.064,19.064-19.064h95.319c10.511,0,19.064,8.553,19.064,19.064
	C495.66,389.064,487.107,397.617,476.596,397.617z"/>
<path d="M187.915,108.936h125.277c19.522,0,35.404-15.883,35.404-35.404s-15.882-35.404-35.404-35.404H187.915
	c-19.522,0-35.404,15.883-35.404,35.404S168.392,108.936,187.915,108.936z M187.915,54.468h125.277
	c10.511,0,19.064,8.553,19.064,19.064s-8.553,19.064-19.064,19.064H187.915c-10.511,0-19.064-8.553-19.064-19.064
	S177.404,54.468,187.915,54.468z"/>
<path d="M84.426,228.766c-4.513,0-8.17,3.658-8.17,8.17v239.66c0,4.512,3.657,8.17,8.17,8.17s8.17-3.658,8.17-8.17v-239.66
	C92.596,232.424,88.939,228.766,84.426,228.766z"/>
<g>
</g>
<g>
</g>
<g>
</g>
<g>
</g>
<g>
</g>
<g>
</g>
<g>
</g>
<g>
</g>
<g>
</g>
<g>
</g>
<g>
</g>
<g>
</g>
<g>
</g>
<g>
</g>
<g>
</g>
</svg>
