<?xml version="1.0" encoding="iso-8859-1"?>
<!-- Generator: Adobe Illustrator 19.0.0, SVG Export Plug-In . SVG Version: 6.00 Build 0)  -->
<svg version="1.1" id="Layer_1" xmlns="http://www.w3.org/2000/svg" xmlns:xlink="http://www.w3.org/1999/xlink" x="0px" y="0px"
	 viewBox="0 0 512 512" style="enable-background:new 0 0 512 512;" xml:space="preserve">
<g>
	<g>
		<g>
			<path d="M256,0C114.837,0,0,114.837,0,256s114.837,256,256,256s256-114.837,256-256S397.163,0,256,0z M256,85.333
				c11.776,0,21.333,9.557,21.333,21.333S267.776,128,256,128s-21.333-9.557-21.333-21.333S244.224,85.333,256,85.333z
				 M135.317,135.317c8.341-8.32,21.845-8.32,30.165,0c8.341,8.341,8.341,21.845,0,30.165c-8.32,8.341-21.824,8.341-30.165,0
				C126.997,157.163,126.997,143.659,135.317,135.317z M106.667,277.333c-11.776,0-21.333-9.557-21.333-21.333
				s9.557-21.333,21.333-21.333S128,244.224,128,256S118.443,277.333,106.667,277.333z M165.483,376.683
				c-8.32,8.32-21.824,8.32-30.165,0c-8.32-8.341-8.32-21.845,0-30.165c8.341-8.341,21.845-8.341,30.165,0
				C173.824,354.837,173.824,368.341,165.483,376.683z M256,426.667c-11.776,0-21.333-9.557-21.333-21.333S244.224,384,256,384
				s21.333,9.557,21.333,21.333S267.776,426.667,256,426.667z M256,341.333c-47.061,0-85.333-38.272-85.333-85.333
				s38.272-85.333,85.333-85.333s85.333,38.272,85.333,85.333S303.061,341.333,256,341.333z M376.683,376.683
				c-8.341,8.32-21.845,8.32-30.165,0c-8.341-8.341-8.341-21.845,0-30.165c8.32-8.341,21.824-8.341,30.165,0
				C385.003,354.837,385.003,368.341,376.683,376.683z M376.683,165.483c-8.341,8.341-21.845,8.341-30.165,0
				c-8.341-8.32-8.341-21.824,0-30.165c8.32-8.32,21.824-8.32,30.165,0C385.003,143.659,385.003,157.163,376.683,165.483z
				 M405.333,277.333C393.557,277.333,384,267.776,384,256s9.557-21.333,21.333-21.333s21.333,9.557,21.333,21.333
				S417.109,277.333,405.333,277.333z"/>
			<path d="M256,213.333c-23.531,0-42.667,19.136-42.667,42.667s19.136,42.667,42.667,42.667s42.667-19.136,42.667-42.667
				S279.531,213.333,256,213.333z"/>
		</g>
	</g>
</g>
<g>
</g>
<g>
</g>
<g>
</g>
<g>
</g>
<g>
</g>
<g>
</g>
<g>
</g>
<g>
</g>
<g>
</g>
<g>
</g>
<g>
</g>
<g>
</g>
<g>
</g>
<g>
</g>
<g>
</g>
</svg>
