<?xml version="1.0" encoding="iso-8859-1"?>
<!-- Generator: Adobe Illustrator 19.0.0, SVG Export Plug-In . SVG Version: 6.00 Build 0)  -->
<svg version="1.1" id="Layer_1" xmlns="http://www.w3.org/2000/svg" xmlns:xlink="http://www.w3.org/1999/xlink" x="0px" y="0px"
	 viewBox="0 0 511.629 511.629" style="enable-background:new 0 0 511.629 511.629;" xml:space="preserve">
<g>
	<g>
		<g>
			<path d="M199.358,345.986c-1.6-1.003-3.136-2.091-4.693-3.2c-5.056-3.499-9.899-7.275-14.229-11.605
				c-4.331-4.331-8.107-9.173-11.605-14.229c-1.109-1.557-2.197-3.115-3.221-4.715c-0.299-0.491-0.661-0.939-0.96-1.451
				l-98.517,78.805l-18.56,14.528c8.128,11.413,17.045,22.421,27.264,32.661c9.472,9.472,19.648,17.749,30.144,25.408l17.792-17.664
				l78.037-97.557C200.297,346.669,199.849,346.285,199.358,345.986z"/>
			<path d="M311.767,225.201c-0.363-0.64-0.64-1.301-1.024-1.941c-2.667-4.651-5.824-8.96-9.621-12.757
				c-3.797-3.797-8.107-6.955-12.757-9.621c-0.64-0.384-1.301-0.661-1.941-1.024c-4.651-2.453-9.6-4.501-15.019-5.867
				c-0.235-0.043-0.427-0.171-0.64-0.235c-4.907-1.173-9.877-1.963-14.912-1.963c-5.013,0-9.984,0.789-14.869,1.941
				c-0.235,0.064-0.427,0.213-0.661,0.256c-5.419,1.365-10.368,3.413-15.019,5.867c-0.64,0.363-1.301,0.64-1.941,1.024
				c-4.651,2.667-8.96,5.824-12.757,9.621c-3.797,3.797-6.955,8.107-9.643,12.779c-0.363,0.619-0.64,1.259-0.981,1.899
				c-2.475,4.651-4.523,9.621-5.888,15.04c-0.043,0.235-0.192,0.427-0.256,0.661c-2.325,9.792-2.325,19.947,0,29.739
				c0.064,0.235,0.213,0.448,0.256,0.683c1.365,5.419,3.413,10.368,5.888,15.04c0.341,0.619,0.619,1.28,0.981,1.899
				c2.688,4.651,5.845,8.96,9.643,12.779c3.797,3.797,8.107,6.933,12.736,9.6c0.661,0.384,1.344,0.704,2.027,1.067
				c4.629,2.432,9.557,4.48,14.933,5.824c0.192,0.043,0.341,0.149,0.533,0.213c9.899,2.368,20.16,2.368,30.08-0.021
				c0.171-0.043,0.32-0.149,0.491-0.192c5.397-1.344,10.325-3.392,14.955-5.845c0.683-0.363,1.365-0.661,2.027-1.045
				c4.629-2.688,8.939-5.824,12.736-9.6c3.797-3.819,6.955-8.128,9.621-12.779c0.384-0.619,0.661-1.28,1.003-1.899
				c2.475-4.672,4.523-9.621,5.867-15.04c0.064-0.235,0.213-0.448,0.277-0.683c2.325-9.813,2.325-19.968-0.021-29.781
				c-0.064-0.213-0.192-0.405-0.256-0.64C316.269,234.801,314.221,229.852,311.767,225.201z"/>
			<path d="M347.074,310.801c-0.299,0.491-0.661,0.939-0.96,1.429c-1.024,1.621-2.112,3.157-3.221,4.736
				c-3.499,5.056-7.275,9.899-11.605,14.208c-4.331,4.331-9.173,8.107-14.208,11.605c-1.579,1.109-3.136,2.219-4.736,3.221
				c-0.512,0.299-0.939,0.683-1.451,0.981l78.805,98.496c0.747,0.917,1.387,1.899,1.963,2.923l9.856,17.621
				c12.416-8.597,24.32-18.197,35.371-29.248c9.472-9.472,17.749-19.648,25.408-30.144l-17.664-17.792L347.074,310.801z"/>
			<path d="M485.912,144.004l-13.44,11.051L361.346,243.93c0.875,7.893,0.875,15.765,0,23.659l110.891,88.704
				c0.64,0.491,1.237,1.045,1.813,1.621l11.115,11.179C520.045,298.372,520.258,214.916,485.912,144.004z"/>
			<path d="M267.695,361.229c-3.947,0.448-7.872,1.131-11.84,1.131c-3.947,0-7.872-0.683-11.819-1.131L155.332,472.12
				c-0.491,0.64-1.045,1.259-1.621,1.813l-11.2,11.115c35.627,17.579,74.453,26.581,113.344,26.581
				c37.205,0,74.304-8.32,108.651-24.405l-9.216-16.469L267.695,361.229z"/>
			<path d="M267.693,150.272l88.704-110.891c0.491-0.64,1.045-1.237,1.621-1.813l11.179-11.115
				C296.13-9.578,209.367-8.874,136.984,29.014l106.368,121.323C251.458,149.376,259.565,149.376,267.693,150.272z"/>
			<path d="M165.615,199.277c1.003-1.621,2.112-3.157,3.2-4.715c3.52-5.056,7.296-9.899,11.627-14.229
				c4.309-4.331,9.152-8.107,14.208-11.605c1.579-1.109,3.136-2.219,4.757-3.221c0.491-0.299,0.917-0.683,1.408-0.981l-100.203-112
				c-8.917,6.805-17.621,14.059-25.771,22.208c-8.149,8.149-15.381,16.853-22.208,25.771l112,100.203
				C164.932,200.216,165.316,199.768,165.615,199.277z"/>
			<path d="M312.346,165.502c1.6,1.024,3.157,2.112,4.736,3.221c5.035,3.499,9.877,7.275,14.208,11.605
				c4.331,4.331,8.128,9.195,11.627,14.251c1.088,1.536,2.176,3.072,3.179,4.651c0.299,0.512,0.683,0.96,0.981,1.472l98.517-78.784
				l18.219-14.997c-8.043-11.221-16.832-22.101-26.923-32.192c-9.472-9.472-19.669-17.749-30.165-25.429l-17.771,17.685
				l-78.059,97.557C311.407,164.841,311.855,165.203,312.346,165.502z"/>
			<path d="M150.441,243.239L29.118,136.892C-8.429,208.615-9.41,294.439,25.641,367.121l14.016-10.987l110.72-88.555
				C149.481,259.473,149.481,251.345,150.441,243.239z"/>
		</g>
	</g>
</g>
<g>
</g>
<g>
</g>
<g>
</g>
<g>
</g>
<g>
</g>
<g>
</g>
<g>
</g>
<g>
</g>
<g>
</g>
<g>
</g>
<g>
</g>
<g>
</g>
<g>
</g>
<g>
</g>
<g>
</g>
</svg>
