<?xml version="1.0" encoding="iso-8859-1"?>
<!-- Generator: Adobe Illustrator 16.0.0, SVG Export Plug-In . SVG Version: 6.00 Build 0)  -->
<!DOCTYPE svg PUBLIC "-//W3C//DTD SVG 1.1//EN" "http://www.w3.org/Graphics/SVG/1.1/DTD/svg11.dtd">
<svg version="1.1" id="Capa_1" xmlns="http://www.w3.org/2000/svg" xmlns:xlink="http://www.w3.org/1999/xlink" x="0px" y="0px"
	 width="46.639px" height="46.639px" viewBox="0 0 46.639 46.639" style="enable-background:new 0 0 46.639 46.639;"
	 xml:space="preserve">
<g>
	<g>
		<path d="M39.744,41.749c-0.365-0.683-1.077-1.11-1.854-1.11H8.749c-0.775,0-1.488,0.428-1.854,1.11
			c-0.366,0.685-0.326,1.515,0.104,2.159l1.197,1.794c0.39,0.585,1.046,0.937,1.749,0.937h26.749c0.703,0,1.36-0.352,1.75-0.937
			l1.197-1.794C40.07,43.264,40.11,42.434,39.744,41.749z"/>
		<path d="M23.319,13.972c-2.485,0-4.5,2.015-4.5,4.5v19.375c0,0.483,0.392,0.791,0.875,0.791h7.25c0.483,0,0.875-0.308,0.875-0.791
			V18.472C27.819,15.987,25.805,13.972,23.319,13.972z"/>
		<path d="M23.319,12.768c2.937,0,5.325-2.389,5.325-5.325c0-1.537-1.195-3.76-3.552-6.608C24.654,0.306,24.009,0.002,23.319,0
			c-0.687,0-1.333,0.303-1.773,0.834c-2.357,2.85-3.552,5.073-3.552,6.609C17.994,10.379,20.383,12.768,23.319,12.768z
			 M23.319,3.415c1.823,2.32,2.325,3.637,2.325,4.028c0,1.282-1.043,2.325-2.325,2.325s-2.325-1.043-2.325-2.325
			C20.994,7.052,21.496,5.736,23.319,3.415z"/>
	</g>
</g>
<g>
</g>
<g>
</g>
<g>
</g>
<g>
</g>
<g>
</g>
<g>
</g>
<g>
</g>
<g>
</g>
<g>
</g>
<g>
</g>
<g>
</g>
<g>
</g>
<g>
</g>
<g>
</g>
<g>
</g>
</svg>
