<?xml version="1.0" encoding="iso-8859-1"?>
<!-- Generator: Adobe Illustrator 16.0.0, SVG Export Plug-In . SVG Version: 6.00 Build 0)  -->
<!DOCTYPE svg PUBLIC "-//W3C//DTD SVG 1.1//EN" "http://www.w3.org/Graphics/SVG/1.1/DTD/svg11.dtd">
<svg version="1.1" id="Capa_1" xmlns="http://www.w3.org/2000/svg" xmlns:xlink="http://www.w3.org/1999/xlink" x="0px" y="0px"
	 width="45.688px" height="45.688px" viewBox="0 0 45.688 45.688" style="enable-background:new 0 0 45.688 45.688;"
	 xml:space="preserve">
<g>
	<path d="M44.207,27.381V15.366c0-4.462-3.641-8.08-8.105-8.08c-4.461,0-8.104,3.618-8.104,8.08v1.151
		c-1.229-0.783-2.883-0.781-4.155,0.137c-0.809,0.581-1.34,1.458-1.5,2.439c-0.16,0.982,0.083,1.989,0.664,2.795l4.539,6.333
		c-0.442,0.646-0.705,1.426-0.705,2.262c0,1.81,1.218,3.354,2.875,3.834v1.115c0,3.828-3.108,6.942-6.938,6.942
		c-3.828,0-6.938-3.114-6.938-6.942v-8.074c1.725-0.422,3.006-1.957,3.006-3.812c0-0.844-0.266-1.621-0.717-2.259l4.545-6.341
		c0.581-0.807,0.817-1.813,0.657-2.793c-0.16-0.981-0.703-1.86-1.51-2.442h0.02c-1.273-0.917-2.931-0.919-4.159-0.135V8.423
		c0-4.463-3.662-8.087-8.124-8.087l0,0c-4.462,0-8.084,3.624-8.084,8.087v12.062C0.576,21.203,0,22.301,0,23.545
		c0,2.188,1.78,3.93,3.968,3.93h8.925v7.957c0,5.469,4.477,9.92,9.947,9.92c5.469,0,9.946-4.451,9.946-9.92v-0.957h8.933
		c2.188,0,3.969-1.804,3.969-3.99C45.688,29.236,45.109,28.115,44.207,27.381z M2.977,23.544c0-0.546,0.445-0.982,0.992-0.982h10.91
		c0.547,0,0.992,0.437,0.992,0.982c0,0.548-0.445,0.981-0.992,0.981H3.969C3.422,24.527,2.977,24.092,2.977,23.544z M41.72,31.405
		H30.811c-0.547,0-0.992-0.438-0.992-0.983c0-0.548,0.445-0.982,0.992-0.982H41.72c0.548,0,0.992,0.436,0.992,0.982
		C42.712,30.967,42.268,31.405,41.72,31.405z"/>
</g>
<g>
</g>
<g>
</g>
<g>
</g>
<g>
</g>
<g>
</g>
<g>
</g>
<g>
</g>
<g>
</g>
<g>
</g>
<g>
</g>
<g>
</g>
<g>
</g>
<g>
</g>
<g>
</g>
<g>
</g>
</svg>
