<?xml version="1.0" encoding="iso-8859-1"?>
<!-- Generator: Adobe Illustrator 19.0.0, SVG Export Plug-In . SVG Version: 6.00 Build 0)  -->
<svg xmlns="http://www.w3.org/2000/svg" xmlns:xlink="http://www.w3.org/1999/xlink" version="1.1" id="Capa_1" x="0px" y="0px" viewBox="0 0 489.5 489.5" style="enable-background:new 0 0 489.5 489.5;" xml:space="preserve" width="512" height="512">
<g id="XMLID_884_">
	<g id="XMLID_765_">
		<polygon style="fill:#FFFFFF;" points="194.605,279.932 94.911,295.989 95.086,259.423 194.862,259.423   "/>
	</g>
	<g id="XMLID_832_">
		<polygon style="fill:#F2F2F2;" points="118.111,292.253 94.911,295.989 95.086,259.423 118.111,259.423   "/>
	</g>
	<g id="XMLID_768_">
		<rect x="95.086" y="151.972" style="fill:#FFFFFF;" width="115.126" height="53.725"/>
	</g>
	<g id="XMLID_829_">
		<rect x="95.086" y="44.521" style="fill:#FFFFFF;" width="115.126" height="53.725"/>
	</g>
	<g id="XMLID_830_">
		<rect x="95.086" y="151.972" style="fill:#F2F2F2;" width="23.025" height="53.725"/>
	</g>
	<g id="XMLID_828_">
		<rect x="95.086" y="44.521" style="fill:#F2F2F2;" width="23.025" height="53.725"/>
	</g>
	<g id="XMLID_766_">
		<rect x="95.086" y="205.697" style="fill:#8CC63F;" width="115.126" height="53.726"/>
	</g>
	<g id="XMLID_767_">
		<rect x="95.086" y="205.697" style="fill:#006837;" width="23.025" height="53.726"/>
	</g>
	<g id="XMLID_770_">
		<rect x="95.086" y="98.246" style="fill:#8CC63F;" width="115.126" height="53.726"/>
	</g>
	<g id="XMLID_769_">
		<rect x="95.086" y="98.246" style="fill:#006837;" width="23.025" height="53.726"/>
	</g>
	<g id="XMLID_827_">
		<rect x="95.086" y="6.145" style="fill:#8CC63F;" width="115.126" height="38.375"/>
	</g>
	<g id="XMLID_813_">
		<rect x="95.086" y="6.145" style="fill:#006837;" width="23.025" height="38.375"/>
	</g>
	<g id="XMLID_408_">
		<path style="fill:#009245;" d="M294.638,482l18.262-79.135c2.437-10.559-5.583-20.641-16.42-20.641h0    c-39.167,0-70.918-31.751-70.918-70.918v-36.533L87.411,297.798V482h222.577h43.498c26.843,0,48.603-21.76,48.603-48.603v-28.148    c0-38.149-30.926-69.076-69.076-69.076c16.955,0,30.7,13.745,30.7,30.7c0,16.955-13.745,30.7-30.7,30.7h-23.025"/>
	</g>
	<g id="XMLID_407_">
		<path style="fill:#8CC63F;" d="M340.689,396.607c13.241-3.408,23.025-15.428,23.025-29.733c0-16.955-13.745-30.7-30.7-30.7    c38.149,0,69.076,30.926,69.076,69.076v28.148c0,26.843-21.76,48.603-48.603,48.603h-12.797L340.689,396.607z"/>
	</g>
	<g id="XMLID_764_">
		<path style="fill:#FBB03B;" d="M194.862,274.773v-15.35c0-12.716,10.309-23.025,23.025-23.025l0,0v38.375"/>
	</g>
	<g id="XMLID_735_">
		<polyline style="fill:#006837;" points="118.605,459 118.111,292.253 87.605,297.798 87.605,439.51 87.605,459 133.605,459   "/>
	</g>
	<g id="XMLID_788_">
		<polygon style="fill:#AE7418;" points="363.714,482 87.411,482 87.411,458.975 394.414,458.975   "/>
	</g>
	<g id="XMLID_763_">
		<polygon style="fill:#FBB03B;" points="363.714,482 118.111,482 118.111,458.975 394.414,458.975   "/>
	</g>
	<g id="XMLID_678_">
		<circle style="fill:#FBB03B;" cx="110.436" cy="336.174" r="23.025"/>
	</g>
	<g id="XMLID_798_">
		<rect x="186.605" y="306" style="fill:#FFFFFF;" width="16" height="15"/>
	</g>
	<g id="XMLID_477_">
		<rect x="332.605" y="421" width="15" height="15"/>
	</g>
	<g id="XMLID_489_">
		<rect x="163.605" y="330" style="fill:#FFFFFF;" width="16" height="15"/>
	</g>
	<g id="XMLID_490_">
		<rect x="179.605" y="352" style="fill:#FFFFFF;" width="15" height="15"/>
	</g>
	<g id="XMLID_491_">
		<rect x="194.605" y="375" style="fill:#FFFFFF;" width="16" height="15"/>
	</g>
	<path d="M333.014,328.673v15c12.793,0,23.2,10.408,23.2,23.201c0,12.793-10.407,23.2-23.2,23.2h-13.895   c-0.873-2.186-2.072-4.261-3.582-6.159c-4.646-5.841-11.593-9.191-19.057-9.191c-34.969,0-63.418-28.449-63.418-63.418v-45.387   l-7.675,1.279v-38.301h-7.5c-0.43,0-0.856,0.015-1.282,0.032V0h-129v290.162l-7.694,1.282V489.5h273.575   c30.934,0,56.102-25.168,56.102-56.103v-28.148C409.589,363.025,375.237,328.673,333.014,328.673z M202.362,259.423   c0-5.843,3.244-10.942,8.025-13.591v23.867l-8.025,1.338V259.423z M102.605,267h23v-15h-23v-39h70v-15h-70v-39h61v-15h-61v-37h31   V92h-31V53h70V38h-70V15h99v23h-15v15h15v39h-53v15h53v37h-22v15h22v39h-15v15h15v20.622c-6.533,4.137-11.395,10.68-13.326,18.378   h-46.674v15h45.757v6.536l-84.757,14.126V267z M290.403,467l-1.731,7.5H94.911V467h15.694v-15H94.911v-89.559   c4.552,2.701,9.859,4.258,15.525,4.258c13.763,0,25.424-9.158,29.219-21.699h8.95v-15h-8.272   c-2.862-13.882-15.18-24.352-29.897-24.352c-5.666,0-10.973,1.557-15.525,4.258v-5.754l123.151-20.525V306h-7.457v15h8.078   c0.379,3.057,0.927,6.061,1.649,9h-33.726v15h39.078c1.148,2.402,2.41,4.74,3.788,7h-26.866v15h38.763   c2.936,2.904,6.091,5.584,9.452,8h-33.216v15h81.114c1.987,0.487,3.771,1.61,5.079,3.253c1.784,2.243,2.438,5.132,1.794,7.925   L293.864,452H125.605v15H290.403z M94.911,336.173c0-8.56,6.965-15.525,15.525-15.525c8.561,0,15.525,6.964,15.525,15.525   c0,8.561-6.965,15.525-15.525,15.525C101.876,351.699,94.911,344.734,94.911,336.173z M353.486,474.5h-49.42l1.731-7.5h71.315   C370.423,471.718,362.276,474.5,353.486,474.5z M394.589,433.397c0,6.694-1.619,13.013-4.469,18.603h-42.514v-8h-15v8h-23.347   l10.829-46.926h12.518V413h15v-10.829c13.844-5.745,23.608-19.4,23.608-35.297c0-3.881-0.581-7.628-1.662-11.161   c15.177,11.226,25.037,29.252,25.037,49.536V433.397z"/>
</g>















</svg>
