<?xml version="1.0" encoding="iso-8859-1"?>
<!-- Generator: Adobe Illustrator 19.0.0, SVG Export Plug-In . SVG Version: 6.00 Build 0)  -->
<svg version="1.1" id="Layer_1" xmlns="http://www.w3.org/2000/svg" xmlns:xlink="http://www.w3.org/1999/xlink" x="0px" y="0px"
	 viewBox="0 0 512 512" style="enable-background:new 0 0 512 512;" xml:space="preserve">
<path style="fill:#BDFDFF;" d="M500.694,173.984l-77.568-46.545c-7.37-4.423-16.579-4.423-23.949,0l-42.328,25.4V85.36
	c0-12.851-10.417-23.271-23.268-23.273l-54.308-0.009V23.273C279.273,10.42,268.853,0,256,0s-23.273,10.42-23.273,23.273V62.07
	l-54.298-0.009c-0.002,0-0.003,0-0.005,0c-6.172,0-12.091,2.451-16.454,6.816c-4.366,4.364-6.819,10.283-6.819,16.457v67.505
	l-42.328-25.4c-7.37-4.423-16.579-4.423-23.949,0l-77.568,46.545c-7.008,4.206-11.298,11.781-11.298,19.956v294.788
	C0.008,501.58,10.428,512,23.28,512h155.136c0,0,0.002,0,0.005,0h0.003H256h77.576c0.002,0,0.003,0,0.003,0c0.003,0,0.003,0,0.005,0
	h155.136c12.853,0,23.273-10.42,23.273-23.273V193.939C511.992,185.764,507.702,178.19,500.694,173.984z"/>
<path id="SVGCleanerId_0" style="fill:#B3D8F4;" d="M356.848,488.727c0,12.851-10.418,23.271-23.27,23.273c0.003,0,0.003,0,0.005,0
	h155.136c12.853,0,23.273-10.42,23.273-23.273V193.939c0-8.175-4.29-15.749-11.298-19.956l-77.568-46.545
	c-7.37-4.423-16.579-4.423-23.949,0l-42.328,25.4v27.141V488.727z"/>
<path id="SVGCleanerId_1" style="fill:#8CB7E8;" d="M23.28,512h155.136c0,0,0.002,0,0.005,0
	c-12.851-0.002-23.27-10.422-23.27-23.273V179.979v-27.141l-42.328-25.4c-7.37-4.423-16.579-4.423-23.949,0l-77.568,46.545
	c-7.008,4.206-11.298,11.781-11.298,19.956v294.788C0.008,501.58,10.428,512,23.28,512z"/>
<path id="SVGCleanerId_2" style="fill:#898890;" d="M279.273,62.078V23.273C279.273,10.42,268.853,0,256,0
	s-23.273,10.42-23.273,23.273V62.07L256,62.073L279.273,62.078z"/>
<path id="SVGCleanerId_3" style="fill:#81E5EE;" d="M232.727,62.07l-54.298-0.009c-0.002,0-0.003,0-0.005,0
	c-6.172,0-12.091,2.451-16.454,6.816c-4.366,4.364-6.819,10.283-6.819,16.457v67.505v27.141v308.748
	c0,12.851,10.418,23.271,23.27,23.273h0.003H256V62.073L232.727,62.07z"/>
<path style="fill:#BDFDFF;" d="M333.58,62.087l-54.308-0.009L256,62.075V512h77.576c0.002,0,0.003,0,0.003,0
	c12.851-0.002,23.27-10.422,23.27-23.273V179.979v-27.141V85.36C356.848,72.507,346.432,62.089,333.58,62.087z"/>
<g>
	<path id="SVGCleanerId_0_1_" style="fill:#B3D8F4;" d="M356.848,488.727c0,12.851-10.418,23.271-23.27,23.273
		c0.003,0,0.003,0,0.005,0h155.136c12.853,0,23.273-10.42,23.273-23.273V193.939c0-8.175-4.29-15.749-11.298-19.956l-77.568-46.545
		c-7.37-4.423-16.579-4.423-23.949,0l-42.328,25.4v27.141V488.727z"/>
</g>
<g>
	<path id="SVGCleanerId_1_1_" style="fill:#8CB7E8;" d="M23.28,512h155.136c0,0,0.002,0,0.005,0
		c-12.851-0.002-23.27-10.422-23.27-23.273V179.979v-27.141l-42.328-25.4c-7.37-4.423-16.579-4.423-23.949,0l-77.568,46.545
		c-7.008,4.206-11.298,11.781-11.298,19.956v294.788C0.008,501.58,10.428,512,23.28,512z"/>
</g>
<g>
	<path id="SVGCleanerId_2_1_" style="fill:#898890;" d="M279.273,62.078V23.273C279.273,10.42,268.853,0,256,0
		s-23.273,10.42-23.273,23.273V62.07L256,62.073L279.273,62.078z"/>
</g>
<g>
	<path id="SVGCleanerId_3_1_" style="fill:#81E5EE;" d="M232.727,62.07l-54.298-0.009c-0.002,0-0.003,0-0.005,0
		c-6.172,0-12.091,2.451-16.454,6.816c-4.366,4.364-6.819,10.283-6.819,16.457v67.505v27.141v308.748
		c0,12.851,10.418,23.271,23.27,23.273h0.003H256V62.073L232.727,62.07z"/>
</g>
<g>
</g>
<g>
</g>
<g>
</g>
<g>
</g>
<g>
</g>
<g>
</g>
<g>
</g>
<g>
</g>
<g>
</g>
<g>
</g>
<g>
</g>
<g>
</g>
<g>
</g>
<g>
</g>
<g>
</g>
</svg>
