<?xml version="1.0" encoding="iso-8859-1"?>
<!-- Generator: Adobe Illustrator 19.0.0, SVG Export Plug-In . SVG Version: 6.00 Build 0)  -->
<svg version="1.1" id="Layer_1" xmlns="http://www.w3.org/2000/svg" xmlns:xlink="http://www.w3.org/1999/xlink" x="0px" y="0px"
	 viewBox="0 0 496 496" style="enable-background:new 0 0 496 496;" xml:space="preserve">
<g>
	<g>
		<g>
			<path d="M289.384,225.256C292.784,206.968,296,189.688,296,168V48c0-26.472-21.528-48-48-48s-48,21.528-48,48v120
				c0,21.688,3.216,38.968,6.616,57.256c4.4,23.624,9.384,50.4,9.384,94.744v129.368c-3.952,1.392-7.504,3.816-10.288,7.088
				c-4.568,5.368-6.536,12.488-5.392,19.52C202.184,487.392,212.728,496,224.856,496h46.288c12.128,0,22.672-8.608,24.536-20.032
				c1.144-7.032-0.824-14.144-5.392-19.512c-2.784-3.272-6.336-5.688-10.288-7.088V320C280,275.656,284.984,248.88,289.384,225.256z
				 M279.888,473.408c-0.608,3.696-4.448,6.592-8.744,6.592h-46.288c-4.296,0-8.136-2.896-8.744-6.592
				c-0.392-2.432,0.24-4.768,1.792-6.584c1.52-1.8,3.744-2.824,6.096-2.824h8h32h8c2.352,0,4.576,1.024,6.096,2.824
				C279.64,468.648,280.272,470.984,279.888,473.408z M264,368v16h-32v-16H264z M232,352v-16h32v16H232z M264,400v16h-32v-16H264z
				 M264,432v16h-32v-16H264z M280,168c0,20.216-2.944,36.024-6.344,54.328C269.128,246.632,264,274.176,264,320h-32
				c0-45.824-5.128-73.368-9.656-97.672C218.944,204.024,216,188.216,216,168V48c0-17.648,14.352-32,32-32s32,14.352,32,32V168z"/>
			<rect x="240" y="184" width="16" height="16"/>
			<rect x="240" y="216" width="16" height="16"/>
			<rect x="240" y="248" width="16" height="16"/>
		</g>
	</g>
</g>
<g>
</g>
<g>
</g>
<g>
</g>
<g>
</g>
<g>
</g>
<g>
</g>
<g>
</g>
<g>
</g>
<g>
</g>
<g>
</g>
<g>
</g>
<g>
</g>
<g>
</g>
<g>
</g>
<g>
</g>
</svg>
