<?xml version="1.0" encoding="iso-8859-1"?>
<!-- Generator: Adobe Illustrator 19.0.0, SVG Export Plug-In . SVG Version: 6.00 Build 0)  -->
<svg version="1.1" id="Layer_1" xmlns="http://www.w3.org/2000/svg" xmlns:xlink="http://www.w3.org/1999/xlink" x="0px" y="0px"
	 viewBox="0 0 504.246 504.246" style="enable-background:new 0 0 504.246 504.246;" xml:space="preserve">
<g>
	<g>
		<path d="M275.434,46.854c-45.528,0-89.5,13.344-127.168,38.596c-5.512,3.68-6.98,11.136-3.292,16.644
			c3.696,5.508,11.152,6.988,16.656,3.284c33.7-22.588,73.052-34.528,113.804-34.528c112.86,0,204.688,91.832,204.688,204.696
			c0,112.872-91.828,204.696-204.684,204.7c-112.872,0-204.696-91.824-204.696-204.696c0-40.88,12-80.324,34.712-114.084
			c3.704-5.5,2.244-12.952-3.256-16.652c-5.496-3.696-12.956-2.236-16.656,3.248c-25.388,37.736-38.804,81.816-38.804,127.484
			c0,126.104,102.592,228.7,228.696,228.7c126.092,0,228.688-102.596,228.688-228.696S401.522,46.854,275.434,46.854z"/>
	</g>
</g>
<g>
	<g>
		<path d="M284.026,267.186L155.766,138.93l12.644-34.54c0.536-1.44,0.172-3.06-0.908-4.136L68.406,1.15
			c-0.948-0.944-2.332-1.34-3.64-1.064c-1.304,0.288-2.388,1.24-2.844,2.496L46.05,45.922L2.706,61.798
			c-1.26,0.464-2.204,1.54-2.492,2.852c-0.284,1.308,0.108,2.676,1.064,3.632l99.096,99.096c0.752,0.752,1.752,1.148,2.78,1.148
			c0.46,0,0.92-0.072,1.364-0.244l34.532-12.644L267.306,283.89c2.296,2.324,5.328,3.468,8.356,3.468
			c3.028,0,6.056-1.144,8.36-3.468C288.646,279.29,288.646,271.806,284.026,267.186z"/>
	</g>
</g>
<g>
	<g>
		<path d="M275.666,191.722c-46.296,0-83.816,37.52-83.816,83.816c0,46.292,37.52,83.828,83.816,83.828
			c46.3,0,83.828-37.536,83.828-83.828C359.494,229.242,321.966,191.722,275.666,191.722z M275.666,309.458
			c-18.728,0-33.908-15.188-33.908-33.916s15.18-33.904,33.908-33.904c18.732,0,33.908,15.172,33.908,33.904
			S294.394,309.458,275.666,309.458z"/>
	</g>
</g>
<g>
	<g>
		<path d="M275.666,98.19c-97.956,0-177.36,79.4-177.36,177.36c0,97.944,79.408,177.36,177.36,177.36
			c97.96,0,177.368-79.416,177.368-177.36C453.034,177.586,373.626,98.19,275.666,98.19z M275.434,405.062
			c-71.532,0-129.524-57.988-129.524-129.524c0-71.524,57.992-129.508,129.524-129.508c71.524,0,129.508,57.984,129.508,129.508
			C404.942,347.074,346.958,405.062,275.434,405.062z"/>
	</g>
</g>
<g>
</g>
<g>
</g>
<g>
</g>
<g>
</g>
<g>
</g>
<g>
</g>
<g>
</g>
<g>
</g>
<g>
</g>
<g>
</g>
<g>
</g>
<g>
</g>
<g>
</g>
<g>
</g>
<g>
</g>
</svg>
