<?xml version='1.0' encoding='iso-8859-1'?>
<svg version="1.1" xmlns="http://www.w3.org/2000/svg" viewBox="0 0 368.555 368.555" xmlns:xlink="http://www.w3.org/1999/xlink" enable-background="new 0 0 368.555 368.555">
  <path d="m362.235,20.095c-4.084-0.656-7.936,2.135-8.587,6.225l-8.101,50.803c-41.426,0.49-62.732,13.489-83.336,26.077-20.118,12.291-39.121,23.9-77.933,23.9s-57.814-11.609-77.933-23.9c-20.604-12.587-41.911-25.587-83.337-26.076l-8.101-50.804c-0.652-4.09-4.498-6.879-8.587-6.225-4.09,0.652-6.877,4.497-6.225,8.587l50,313.554c0.58,3.64 3.72,6.319 7.406,6.319h253.553c3.687,0 6.826-2.679 7.406-6.319l50-313.554c0.653-4.09-2.134-7.934-6.225-8.587zm-57.579,313.46h-240.756l-38.492-241.386c35.596,0.924 53.851,12.061 73.117,23.831 21.003,12.832 42.722,26.1 85.753,26.1s64.749-13.269 85.753-26.1c19.266-11.77 37.521-22.907 73.117-23.831l-38.492,241.386z"/>
</svg>
