<?xml version="1.0" encoding="iso-8859-1"?>
<!-- Generator: Adobe Illustrator 19.0.0, SVG Export Plug-In . SVG Version: 6.00 Build 0)  -->
<svg version="1.1" id="Layer_1" xmlns="http://www.w3.org/2000/svg" xmlns:xlink="http://www.w3.org/1999/xlink" x="0px" y="0px"
	 viewBox="0 0 512 512" style="enable-background:new 0 0 512 512;" xml:space="preserve">
<g>
	<g>
		<g>
			<path d="M314.752,348.629l-58.773-14.677l-2.347-9.451c40.235-7.189,61.12-19.328,62.059-19.904
				c3.008-1.771,4.885-4.971,5.141-8.448c0.256-3.499-1.301-6.933-4.011-9.131c-0.277-0.213-27.413-23.104-27.413-101.952
				c0-69.845-16.853-105.28-50.091-105.28h-3.541C224.512,69.056,215.147,64,192,64c-30.507,0-97.387,30.485-97.387,121.045
				c0,78.869-27.136,101.739-27.264,101.845c-2.837,2.133-4.437,5.525-4.267,9.067c0.192,3.563,2.112,6.763,5.163,8.597
				c0.939,0.555,21.632,12.779,62.123,19.989l-2.347,9.387l-58.773,14.699C28.459,358.805,0,395.285,0,437.333
				C0,443.221,4.779,448,10.667,448h362.667c5.888,0,10.667-4.821,10.667-10.709C384,395.285,355.541,358.805,314.752,348.629z"/>
			<path d="M464.341,290.944l-35.84-8.96l-0.021-0.043c24.149-4.843,36.864-12.224,37.461-12.587c2.965-1.749,4.8-4.928,5.077-8.384
				c0.299-3.435-1.237-6.912-3.861-9.131c-0.149-0.149-16.384-14.421-16.384-63.083c0-47.701-12.16-71.872-36.181-71.872h-0.811
				c-7.872-7.168-14.827-10.219-29.781-10.219c-20.907,0-66.773,20.672-66.773,82.091c0,12.309-1.067,23.552-3.179,33.429
				c-0.277,1.323-0.299,2.667-0.085,4.011c4.331,25.429,11.797,37.952,14.805,42.176c0.896,1.237,2.027,2.261,3.328,3.029
				c8.597,4.971,12.736,12.928,13.035,25.045c0.235,8.832-5.269,15.829-9.92,20.117c-2.645,2.453-3.883,6.059-3.285,9.6
				c0.597,3.563,2.944,6.549,6.229,8c13.099,5.781,25.088,14.251,35.605,25.237c2.027,2.069,4.821,3.264,7.723,3.264h119.851
				c5.888,0,10.667-4.8,10.667-10.688C512,323.051,492.416,297.963,464.341,290.944z"/>
		</g>
	</g>
</g>
<g>
</g>
<g>
</g>
<g>
</g>
<g>
</g>
<g>
</g>
<g>
</g>
<g>
</g>
<g>
</g>
<g>
</g>
<g>
</g>
<g>
</g>
<g>
</g>
<g>
</g>
<g>
</g>
<g>
</g>
</svg>
