<?xml version="1.0" encoding="iso-8859-1"?>
<!-- Generator: Adobe Illustrator 19.0.0, SVG Export Plug-In . SVG Version: 6.00 Build 0)  -->
<svg version="1.1" id="Layer_1" xmlns="http://www.w3.org/2000/svg" xmlns:xlink="http://www.w3.org/1999/xlink" x="0px" y="0px"
	 viewBox="0 0 512 512" style="enable-background:new 0 0 512 512;" xml:space="preserve">
<g>
	<g>
		<path d="M256,0C114.618,0,0,114.618,0,256s114.618,256,256,256s256-114.618,256-256S397.382,0,256,0z M341.333,60.436v24.897H320
			c-11.782,0-21.333,9.551-21.333,21.333v42.667c0,11.782,9.551,21.333,21.333,21.333c11.782,0,21.333-9.551,21.333-21.333V128
			h21.333c11.782,0,21.333-9.551,21.333-21.333c0-0.001,0-0.003,0-0.004s0-0.003,0-0.004V85.326
			c16.065,12.067,30.367,26.351,42.461,42.396c-3.057,51.346-41.107,95.88-88.32,105.167c-8.302-29.567-32.118-52.623-62.124-59.837
			c-7.301-52.314-44.279-96.671-93.014-117.563c22.774-8.293,47.356-12.821,72.997-12.821
			C286.343,42.667,315.199,49.016,341.333,60.436z M256,298.667c-23.567,0-42.667-19.099-42.667-42.667s19.099-42.667,42.667-42.667
			s42.667,19.099,42.667,42.667S279.567,298.667,256,298.667z M127.721,85.539c51.346,3.057,95.88,41.108,105.167,88.321
			c-29.567,8.302-52.623,32.118-59.837,62.124c-52.314,7.301-96.671,44.279-117.563,93.014
			C47.194,306.224,42.667,281.641,42.667,256C42.667,186.335,76.067,124.474,127.721,85.539z M85.539,384.279
			c3.057-51.346,41.107-95.88,88.32-105.167c8.302,29.567,32.118,52.623,62.124,59.837c7.301,52.314,44.279,96.671,93.014,117.563
			c-22.774,8.293-47.356,12.821-72.997,12.821C186.335,469.333,124.474,435.933,85.539,384.279z M384.279,426.461
			c-51.346-3.057-95.88-41.108-105.167-88.32c29.567-8.302,52.623-32.118,59.837-62.124c52.314-7.301,96.671-44.279,117.563-93.014
			c8.293,22.774,12.821,47.356,12.821,72.997C469.333,325.665,435.933,387.526,384.279,426.461z"/>
	</g>
</g>
<g>
</g>
<g>
</g>
<g>
</g>
<g>
</g>
<g>
</g>
<g>
</g>
<g>
</g>
<g>
</g>
<g>
</g>
<g>
</g>
<g>
</g>
<g>
</g>
<g>
</g>
<g>
</g>
<g>
</g>
</svg>
