<?xml version='1.0' encoding='iso-8859-1'?>
<!DOCTYPE svg PUBLIC '-//W3C//DTD SVG 1.1//EN' 'http://www.w3.org/Graphics/SVG/1.1/DTD/svg11.dtd'>
<svg version="1.1" xmlns="http://www.w3.org/2000/svg" viewBox="0 0 297 297" xmlns:xlink="http://www.w3.org/1999/xlink" enable-background="new 0 0 297 297">
  <g>
    <path d="M114.968,41.786c-0.276-6.139-1.82-11.952-4.38-17.183h10.701c5.369,0,9.722-4.353,9.722-9.722s-4.353-9.722-9.722-9.722   H91.837C85.696,1.871,78.687,0,71.247,0C47.778,0,28.568,18.569,27.526,41.786C17.468,46.344,10.451,56.47,10.451,68.212v219.066   c0,5.369,4.353,9.722,9.722,9.722h102.149c5.369,0,9.722-4.353,9.722-9.722V68.212C132.043,56.47,125.026,46.344,114.968,41.786z    M71.247,19.444c11.855,0,21.751,8.525,23.893,19.765H47.354C49.497,27.969,59.392,19.444,71.247,19.444z M112.6,277.556H29.894   V68.212c0-5.271,4.288-9.559,9.559-9.559h63.586c5.271,0,9.559,4.288,9.559,9.559V277.556z"/>
    <path d="m270.5,218.876c-0.253-12.619-6.232-24.394-16.041-32.082-0.447-22.666-19.025-40.967-41.795-40.967-2.95,0-5.74,1.34-7.585,3.64-1.846,2.301-2.546,5.317-1.904,8.195 1.454,6.529 0.797,11.515-2.012,15.242-5.121,6.797-16.785,8.92-20.808,9.163-1.505,0.078-2.972,0.504-4.284,1.247-12.865,7.276-20.948,20.845-21.244,35.563-10.026,7.857-16.049,19.985-16.049,32.918 0,23.05 18.753,41.804 41.804,41.804h64.164c23.05,0 41.804-18.753 41.804-41.804-0.001-12.935-6.025-25.062-16.05-32.919zm-25.755,55.278h-64.164c-12.33,0-22.36-10.03-22.36-22.36 0-7.711 4.015-14.879 10.532-18.957h27.869c5.369,0 9.722-4.353 9.722-9.722s-4.353-9.722-9.722-9.722h-21.434c1.45-4.895 4.546-9.214 8.835-12.147 6.61-0.778 23.014-3.942 32.583-16.529 2.842-3.74 5.74-9.277 6.531-16.838 7.065,3.762 11.886,11.205 11.886,19.752 0,0.929-0.064,1.879-0.196,2.903-0.505,3.921 1.416,7.757 4.856,9.703 7.02,3.97 11.38,11.433 11.38,19.476 0,0.929-0.064,1.879-0.196,2.903-0.505,3.921 1.416,7.757 4.856,9.703 7.02,3.97 11.38,11.433 11.38,19.476 0.003,12.329-10.028,22.359-22.358,22.359z"/>
  </g>
</svg>
