<?xml version="1.0" encoding="iso-8859-1"?>
<!-- Generator: Adobe Illustrator 19.0.0, SVG Export Plug-In . SVG Version: 6.00 Build 0)  -->
<svg version="1.1" id="Layer_1" xmlns="http://www.w3.org/2000/svg" xmlns:xlink="http://www.w3.org/1999/xlink" x="0px" y="0px"
	 viewBox="0 0 512 512" style="enable-background:new 0 0 512 512;" xml:space="preserve">
<g>
	<g>
		<path d="M505.438,187.733C509.602,176.742,512,165.35,512,153.6C512,68.77,397.38,0,256,0S0,68.77,0,153.6
			c0,11.749,2.397,23.139,6.561,34.129C2.397,198.727,0,210.118,0,221.867c0,11.776,2.415,23.185,6.596,34.202
			C2.381,267.025,0,278.4,0,290.133c0,11.793,2.423,23.236,6.622,34.27c0-0.009-0.009-0.009-0.009-0.009
			C2.449,335.343,0,346.684,0,358.4C0,443.23,114.62,512,256,512s256-68.77,256-153.6c0-11.716-2.449-23.057-6.613-34.005
			l-0.008,0.009c4.198-11.034,6.622-22.477,6.622-34.27c0-11.733-2.381-23.108-6.596-34.065c4.181-11.017,6.596-22.426,6.596-34.202
			C512,210.116,509.602,198.724,505.438,187.733z M256,486.4c-124.885,0-230.4-58.615-230.4-128c0-0.495,0.128-0.981,0.137-1.485
			C67.174,408.252,154.564,443.733,256,443.733s188.826-35.482,230.263-86.818c0.009,0.503,0.137,0.99,0.137,1.485
			C486.4,427.785,380.885,486.4,256,486.4z M256,418.133c-124.885,0-230.4-58.615-230.4-128c0-0.495,0.128-0.981,0.145-1.476
			c41.438,51.328,128.828,86.81,230.255,86.81s188.817-35.482,230.255-86.81c0.017,0.495,0.145,0.981,0.145,1.476
			C486.4,359.518,380.885,418.133,256,418.133z M256,349.867c-124.885,0-230.4-58.615-230.4-128c0-0.494,0.128-0.98,0.136-1.475
			C67.186,271.715,154.571,307.2,256,307.2s188.814-35.486,230.255-86.808c0.017,0.494,0.145,0.98,0.145,1.475
			C486.4,291.251,380.885,349.867,256,349.867z M256,281.6c-124.885,0-230.4-58.615-230.4-128s105.515-128,230.4-128
			s230.4,58.615,230.4,128S380.885,281.6,256,281.6z"/>
	</g>
</g>
<g>
</g>
<g>
</g>
<g>
</g>
<g>
</g>
<g>
</g>
<g>
</g>
<g>
</g>
<g>
</g>
<g>
</g>
<g>
</g>
<g>
</g>
<g>
</g>
<g>
</g>
<g>
</g>
<g>
</g>
</svg>
