<?xml version="1.0" encoding="iso-8859-1"?>
<!-- Generator: Adobe Illustrator 19.0.0, SVG Export Plug-In . SVG Version: 6.00 Build 0)  -->
<svg version="1.1" id="Layer_1" xmlns="http://www.w3.org/2000/svg" xmlns:xlink="http://www.w3.org/1999/xlink" x="0px" y="0px"
	 viewBox="0 0 512 512" style="enable-background:new 0 0 512 512;" xml:space="preserve">
<g>
	<rect x="166.268" y="414.351" style="fill:#A26234;" width="179.464" height="63.34"/>
	<rect x="166.268" y="319.34" style="fill:#A26234;" width="179.464" height="63.34"/>
	<rect x="166.268" y="224.33" style="fill:#A26234;" width="179.464" height="63.34"/>
	<rect x="166.268" y="129.32" style="fill:#A26234;" width="179.464" height="63.34"/>
	<rect x="166.268" y="34.309" style="fill:#A26234;" width="179.464" height="63.34"/>
</g>
<g>
	<polygon style="fill:#A58763;" points="398.515,7.918 398.515,504.082 345.732,504.082 345.732,477.691 345.732,414.351 
		345.732,382.68 345.732,319.34 345.732,287.67 345.732,224.33 345.732,192.66 345.732,129.32 345.732,97.649 345.732,34.309 
		345.732,7.918 	"/>
	<polygon style="fill:#A58763;" points="166.268,477.691 166.268,504.082 113.485,504.082 113.485,7.918 166.268,7.918 
		166.268,34.309 166.268,97.649 166.268,129.32 166.268,192.66 166.268,224.33 166.268,287.67 166.268,319.34 166.268,382.68 
		166.268,414.351 	"/>
</g>
<g>
	<rect x="166.268" y="34.309" style="fill:#8E562B;" width="89.732" height="63.34"/>
	<rect x="166.268" y="129.32" style="fill:#8E562B;" width="89.732" height="63.34"/>
	<rect x="166.268" y="224.33" style="fill:#8E562B;" width="89.732" height="63.34"/>
	<rect x="166.268" y="319.34" style="fill:#8E562B;" width="89.732" height="63.34"/>
	<rect x="166.268" y="414.351" style="fill:#8E562B;" width="89.732" height="63.34"/>
</g>
<path d="M406.433,446.017V0h-68.619v26.392H174.186V0h-68.619v65.98h15.835V15.835h36.948v480.33h-36.948V87.093h-15.835V512h68.619
	v-26.392h163.629V512h68.619v-44.868h-15.835v29.033H353.65V15.835h36.948v430.182H406.433z M337.814,42.227v47.505H174.186V42.227
	H337.814z M337.814,137.237v47.505H174.186v-47.505H337.814z M337.814,232.247v47.505H174.186v-47.505H337.814z M337.814,327.258
	v47.505H174.186v-47.505H337.814z M174.186,422.268h163.629v47.505H174.186V422.268z M337.814,406.433H174.186v-15.835h163.629
	V406.433z M337.814,311.423H174.186v-15.835h163.629V311.423z M337.814,216.412H174.186v-15.835h163.629V216.412z M337.814,121.402
	H174.186v-15.835h163.629V121.402z"/>
<rect x="197.938" y="58.062" width="58.062" height="15.835"/>
<g>
	<rect x="271.835" y="58.062" style="fill:#FFFFFF;" width="36.948" height="15.835"/>
	<rect x="197.938" y="153.072" style="fill:#FFFFFF;" width="58.062" height="15.835"/>
</g>
<rect x="271.835" y="153.072" width="36.948" height="15.835"/>
<rect x="197.938" y="248.082" width="58.062" height="15.835"/>
<g>
	<rect x="271.835" y="248.082" style="fill:#FFFFFF;" width="36.948" height="15.835"/>
	<rect x="197.938" y="343.093" style="fill:#FFFFFF;" width="58.062" height="15.835"/>
</g>
<rect x="271.835" y="343.093" width="36.948" height="15.835"/>
<rect x="197.938" y="438.103" width="58.062" height="15.835"/>
<rect x="271.835" y="438.103" style="fill:#FFFFFF;" width="36.948" height="15.835"/>
<g>
</g>
<g>
</g>
<g>
</g>
<g>
</g>
<g>
</g>
<g>
</g>
<g>
</g>
<g>
</g>
<g>
</g>
<g>
</g>
<g>
</g>
<g>
</g>
<g>
</g>
<g>
</g>
<g>
</g>
</svg>
