<?xml version="1.0" encoding="iso-8859-1"?>
<!-- Generator: Adobe Illustrator 19.0.0, SVG Export Plug-In . SVG Version: 6.00 Build 0)  -->
<svg version="1.1" id="Layer_1" xmlns="http://www.w3.org/2000/svg" xmlns:xlink="http://www.w3.org/1999/xlink" x="0px" y="0px"
	 viewBox="0 0 512 512" style="enable-background:new 0 0 512 512;" xml:space="preserve">
<g transform="translate(1 3)">
	<path style="fill:#FFE100;" d="M461.507,494.067H48.493c-8.533,0-15.36-7.68-15.36-17.067V306.333
		c0-9.387,6.827-17.067,15.36-17.067h413.013c8.533,0,15.36,7.68,15.36,17.067V477C476.867,486.387,470.04,494.067,461.507,494.067"
		/>
	<path style="fill:#FFFFFF;" d="M33.133,477V306.333c0-9.387,6.827-17.067,15.36-17.067H24.6c-9.387,0-17.067,7.68-17.067,17.067
		V477c0,9.387,7.68,17.067,17.067,17.067h23.893C39.96,494.067,33.133,486.387,33.133,477"/>
	<path style="fill:#FFA800;" d="M485.4,289.267h-23.893c8.533,0,15.36,7.68,15.36,17.067V477c0,9.387-6.827,17.067-15.36,17.067
		H485.4c9.387,0,17.067-7.68,17.067-17.067V306.333C502.467,296.947,494.787,289.267,485.4,289.267"/>
	<path style="fill:#3DB9F9;" d="M169.667,331.933C103.96,331.933,50.2,385.693,50.2,451.4h238.933
		C289.133,385.693,235.373,331.933,169.667,331.933"/>
	<path style="fill:#63D3FD;" d="M156.867,331.933c-58.88,0-106.667,53.76-106.667,119.467h213.333
		C263.533,385.693,215.747,331.933,156.867,331.933"/>
	<g>
		<path style="fill:#FDCC00;" d="M383,357.533c0-14.507-11.093-25.6-25.6-25.6s-25.6,11.093-25.6,25.6s11.093,25.6,25.6,25.6
			S383,372.04,383,357.533"/>
		<path style="fill:#FDCC00;" d="M468.333,357.533c0-14.507-11.093-25.6-25.6-25.6c-14.507,0-25.6,11.093-25.6,25.6
			s11.093,25.6,25.6,25.6C457.24,383.133,468.333,372.04,468.333,357.533"/>
	</g>
	<polygon style="fill:#FFFFFF;" points="58.733,289.267 109.933,289.267 109.933,195.4 58.733,195.4 	"/>
	<polygon style="fill:#FDCC00;" points="75.8,289.267 109.933,289.267 109.933,195.4 75.8,195.4 	"/>
	<polygon style="fill:#FFA800;" points="400.067,289.267 451.267,289.267 451.267,195.4 400.067,195.4 	"/>
	<polygon style="fill:#FDCC00;" points="400.067,289.267 434.2,289.267 434.2,195.4 400.067,195.4 	"/>
	<g>
		<path style="fill:#FFE100;" d="M92.867,203.933c-5.12,0-8.533-3.413-8.533-8.533v-76.8c0-5.12,3.413-8.533,8.533-8.533
			s8.533,3.413,8.533,8.533v76.8C101.4,200.52,97.987,203.933,92.867,203.933z"/>
		<path style="fill:#FFE100;" d="M434.2,203.933c-5.12,0-8.533-3.413-8.533-8.533v-76.8c0-5.12,3.413-8.533,8.533-8.533
			c5.12,0,8.533,3.413,8.533,8.533v76.8C442.733,200.52,439.32,203.933,434.2,203.933z"/>
	</g>
	<path style="fill:#FFFFFF;" d="M109.933,93c0-14.507-11.093-25.6-25.6-25.6s-25.6,11.093-25.6,25.6s11.093,25.6,25.6,25.6
		S109.933,107.507,109.933,93"/>
	<path style="fill:#FDCC00;" d="M109.933,93c0-14.507-7.68-25.6-17.067-25.6S75.8,78.493,75.8,93s7.68,25.6,17.067,25.6
		S109.933,107.507,109.933,93"/>
	<path style="fill:#FFA800;" d="M400.067,93c0,14.507,11.093,25.6,25.6,25.6s25.6-11.093,25.6-25.6s-11.093-25.6-25.6-25.6
		S400.067,78.493,400.067,93"/>
	<path style="fill:#FDCC00;" d="M400.067,93c0,14.507,7.68,25.6,17.067,25.6S434.2,107.507,434.2,93s-7.68-25.6-17.067-25.6
		S400.067,78.493,400.067,93"/>
	<polygon style="fill:#FFE100;" points="280.6,193.693 228.547,54.6 200.387,110.067 101.4,110.067 101.4,93 190.147,93 
		230.253,11.933 280.6,145.907 300.227,93 408.6,93 408.6,110.067 312.173,110.067 	"/>
	<path d="M485.4,502.6H24.6C10.093,502.6-1,491.507-1,477V306.333c0-14.507,11.093-25.6,25.6-25.6h460.8
		c14.507,0,25.6,11.093,25.6,25.6V477C511,491.507,499.907,502.6,485.4,502.6z M24.6,297.8c-5.12,0-8.533,3.413-8.533,8.533V477
		c0,5.12,3.413,8.533,8.533,8.533h460.8c5.12,0,8.533-3.413,8.533-8.533V306.333c0-5.12-3.413-8.533-8.533-8.533H24.6z"/>
	<path d="M109.933,297.8h-51.2c-5.12,0-8.533-3.413-8.533-8.533V195.4c0-5.12,3.413-8.533,8.533-8.533h51.2
		c5.12,0,8.533,3.413,8.533,8.533v93.867C118.467,294.387,115.053,297.8,109.933,297.8z M67.267,280.733H101.4v-76.8H67.267V280.733
		z"/>
	<path d="M451.267,297.8h-51.2c-5.12,0-8.533-3.413-8.533-8.533V195.4c0-5.12,3.413-8.533,8.533-8.533h51.2
		c5.12,0,8.533,3.413,8.533,8.533v93.867C459.8,294.387,456.387,297.8,451.267,297.8z M408.6,280.733h34.133v-76.8H408.6V280.733z"
		/>
	<path d="M84.333,203.933c-5.12,0-8.533-3.413-8.533-8.533v-76.8c0-5.12,3.413-8.533,8.533-8.533s8.533,3.413,8.533,8.533v76.8
		C92.867,200.52,89.453,203.933,84.333,203.933z"/>
	<path d="M84.333,127.133C65.56,127.133,50.2,111.773,50.2,93s15.36-34.133,34.133-34.133S118.467,74.227,118.467,93
		S103.107,127.133,84.333,127.133z M84.333,75.933c-9.387,0-17.067,7.68-17.067,17.067s7.68,17.067,17.067,17.067
		S101.4,102.387,101.4,93S93.72,75.933,84.333,75.933z"/>
	<path d="M425.667,203.933c-5.12,0-8.533-3.413-8.533-8.533v-76.8c0-5.12,3.413-8.533,8.533-8.533s8.533,3.413,8.533,8.533v76.8
		C434.2,200.52,430.787,203.933,425.667,203.933z"/>
	<path d="M425.667,127.133c-18.773,0-34.133-15.36-34.133-34.133s15.36-34.133,34.133-34.133S459.8,74.227,459.8,93
		S444.44,127.133,425.667,127.133z M425.667,75.933c-9.387,0-17.067,7.68-17.067,17.067s7.68,17.067,17.067,17.067
		s17.067-7.68,17.067-17.067S435.053,75.933,425.667,75.933z"/>
	<path d="M468.333,459.933H331.8c-5.12,0-8.533-3.413-8.533-8.533s3.413-8.533,8.533-8.533h136.533c5.12,0,8.533,3.413,8.533,8.533
		S473.453,459.933,468.333,459.933z"/>
	<path d="M468.333,425.8H331.8c-5.12,0-8.533-3.413-8.533-8.533s3.413-8.533,8.533-8.533h136.533c5.12,0,8.533,3.413,8.533,8.533
		S473.453,425.8,468.333,425.8z"/>
	<path d="M357.4,391.667c-18.773,0-34.133-15.36-34.133-34.133S338.627,323.4,357.4,323.4s34.133,15.36,34.133,34.133
		S376.173,391.667,357.4,391.667z M357.4,340.467c-9.387,0-17.067,7.68-17.067,17.067s7.68,17.067,17.067,17.067
		s17.067-7.68,17.067-17.067S366.787,340.467,357.4,340.467z"/>
	<path d="M442.733,391.667c-18.773,0-34.133-15.36-34.133-34.133s15.36-34.133,34.133-34.133c18.773,0,34.133,15.36,34.133,34.133
		S461.507,391.667,442.733,391.667z M442.733,340.467c-9.387,0-17.067,7.68-17.067,17.067s7.68,17.067,17.067,17.067
		s17.067-7.68,17.067-17.067S452.12,340.467,442.733,340.467z"/>
	<path d="M357.4,391.667c-5.12,0-8.533-3.413-8.533-8.533v-17.067c0-5.12,3.413-8.533,8.533-8.533s8.533,3.413,8.533,8.533v17.067
		C365.933,388.253,362.52,391.667,357.4,391.667z"/>
	<path d="M468.333,366.067h-17.067c-5.12,0-8.533-3.413-8.533-8.533s3.413-8.533,8.533-8.533h17.067c5.12,0,8.533,3.413,8.533,8.533
		S473.453,366.067,468.333,366.067z"/>
	<path d="M272.067,185.16L220.013,46.067l-28.16,55.467h-81.92c-5.12,0-8.533-3.413-8.533-8.533s3.413-8.533,8.533-8.533h71.68
		L221.72,3.4l50.347,133.973l19.627-52.907h108.373c5.12,0,8.533,3.413,8.533,8.533s-3.413,8.533-8.533,8.533H303.64L272.067,185.16
		z"/>
	<path d="M289.133,459.933H50.2c-5.12,0-8.533-3.413-8.533-8.533c0-70.827,57.173-128,128-128s128,57.173,128,128
		C297.667,456.52,294.253,459.933,289.133,459.933z M58.733,442.867H280.6c-4.267-57.173-52.053-102.4-110.933-102.4
		S63.853,385.693,58.733,442.867z"/>
	<path d="M169.667,459.933c-1.707,0-4.267-0.853-5.973-1.707c-3.413-3.413-4.267-8.533-0.853-11.947l51.2-59.733
		c3.413-3.413,8.533-4.267,11.947-0.853c3.413,3.413,4.267,8.533,0.853,11.947l-51.2,59.733
		C174.787,459.08,172.227,459.933,169.667,459.933z"/>
</g>
<g>
</g>
<g>
</g>
<g>
</g>
<g>
</g>
<g>
</g>
<g>
</g>
<g>
</g>
<g>
</g>
<g>
</g>
<g>
</g>
<g>
</g>
<g>
</g>
<g>
</g>
<g>
</g>
<g>
</g>
</svg>
