<?xml version="1.0" encoding="iso-8859-1"?>
<!-- Generator: Adobe Illustrator 19.0.0, SVG Export Plug-In . SVG Version: 6.00 Build 0)  -->
<svg version="1.1" id="Layer_1" xmlns="http://www.w3.org/2000/svg" xmlns:xlink="http://www.w3.org/1999/xlink" x="0px" y="0px"
	 viewBox="0 0 512 512" style="enable-background:new 0 0 512 512;" xml:space="preserve">
<g>
	<g>
		<g>
			<path d="M256,0C114.842,0,0,114.842,0,256s114.842,256,256,256s256-114.842,256-256S397.158,0,256,0z M110.933,145.067
				c0-23.526,19.14-42.667,42.667-42.667c23.526,0,42.667,19.14,42.667,42.667c0,23.526-19.14,42.667-42.667,42.667
				C130.074,187.733,110.933,168.593,110.933,145.067z M365.781,311.475c-18.637,32.171-48.785,53.905-83.507,61.235l-56.465,56.047
				c-9.651,9.651-22.511,14.976-36.181,14.976c-13.679,0-26.539-5.325-36.198-15.002c-9.677-9.668-15.002-22.528-15.002-36.198
				c0-13.679,5.325-26.539,15.002-36.198l15.71-15.718c-8.789-8.405-16.546-18.142-22.921-29.141
				c-2.372-4.079-0.973-9.301,3.106-11.657c4.07-2.364,9.293-0.981,11.656,3.106C181.111,337.655,216.627,358.4,256,358.4
				s74.889-20.745,95.019-55.475c2.355-4.096,7.578-5.487,11.657-3.106C366.763,302.174,368.154,307.396,365.781,311.475z
				 M398.942,184.841c-3.123,3.541-8.516,3.866-12.049,0.768c-17.365-15.292-48.717-18.884-64.657-0.768
				c-1.656,1.869-4.002,2.893-6.409,2.893c-0.93,0-1.86-0.154-2.765-0.461c-3.26-1.118-5.538-4.087-5.751-7.535
				c-2.108-33.297,26.419-66.731,58.726-68.787c4.574-0.273,8.755,3.277,9.054,7.97c0.299,4.702-3.268,8.764-7.97,9.062
				c-17.289,1.101-33.493,15.42-39.936,32.64c7.825-3.447,16.777-5.231,26.232-4.932c16.521,0.367,32.828,6.596,44.757,17.101
				C401.707,175.906,402.048,181.299,398.942,184.841z"/>
			<path d="M179.2,145.066c0-14.114-11.486-25.6-25.6-25.6c-14.114,0-25.6,11.486-25.6,25.6s11.486,25.6,25.6,25.6
				C167.714,170.666,179.2,159.18,179.2,145.066z"/>
			<path d="M165.495,368.395c-6.451,6.451-10.001,15.019-10.001,24.141c0,9.114,3.55,17.681,10.001,24.132
				c12.894,12.894,35.371,12.894,48.273,0l41.523-41.225c-26.846-0.145-52.079-8.653-73.003-23.842L165.495,368.395z"/>
		</g>
	</g>
</g>
<g>
</g>
<g>
</g>
<g>
</g>
<g>
</g>
<g>
</g>
<g>
</g>
<g>
</g>
<g>
</g>
<g>
</g>
<g>
</g>
<g>
</g>
<g>
</g>
<g>
</g>
<g>
</g>
<g>
</g>
</svg>
