<?xml version="1.0" encoding="iso-8859-1"?>
<!-- Generator: Adobe Illustrator 19.0.0, SVG Export Plug-In . SVG Version: 6.00 Build 0)  -->
<svg version="1.1" id="Layer_1" xmlns="http://www.w3.org/2000/svg" xmlns:xlink="http://www.w3.org/1999/xlink" x="0px" y="0px"
	 viewBox="0 0 347.294 347.294" style="enable-background:new 0 0 347.294 347.294;" xml:space="preserve">
<g id="XMLID_1125_">
	<g>
		<path d="M327.294,23.146v81.5h-18.137v-8.222L268.978,62.62V43.146h-20v182h20v-19.475l40.179-33.804v-8.222h18.137v75.5h-93.647
			v-95.689h-120v95.689H20v-75.5h18.137v8.222l40.178,33.804v19.475h20v-182h-20v19.475L38.137,96.426v8.222H20v-81.5H0v81.5v59
			v75.5v51.583v33.417h347.294v-33.418v-51.583v-75.5v-59v-81.5H327.294z M20,124.647h38.137v0v-18.911l19.976-16.807v90.436
			l-19.976-16.807v-18.911H20V124.647z M133.647,163.457h30.5v37.845h20v-37.845h29.5v75.689h-80V163.457z M327.294,290.729v13.417
			H20v-13.417v-31.583h307.294V290.729z M327.295,143.646h-38.137v18.911l-19.977,16.808V88.927l19.977,16.808v18.911h38.137
			V143.646z"/>
	</g>
</g>
<g>
</g>
<g>
</g>
<g>
</g>
<g>
</g>
<g>
</g>
<g>
</g>
<g>
</g>
<g>
</g>
<g>
</g>
<g>
</g>
<g>
</g>
<g>
</g>
<g>
</g>
<g>
</g>
<g>
</g>
</svg>
