<?xml version="1.0" encoding="iso-8859-1"?>
<!-- Generator: Adobe Illustrator 19.0.0, SVG Export Plug-In . SVG Version: 6.00 Build 0)  -->
<svg version="1.1" id="Layer_1" xmlns="http://www.w3.org/2000/svg" xmlns:xlink="http://www.w3.org/1999/xlink" x="0px" y="0px"
	 viewBox="0 0 334 334" style="enable-background:new 0 0 334 334;" xml:space="preserve">
<g id="XMLID_903_">
	<g>
		<path d="M239.666,270.827V100.578h27.486v-20H203.21v-32.64h13.873v-20h-40.083V0h-20v27.938h-40.083v20h13.874v32.64H66.846v20
			h27.487v170.249H35.802V334h262.395v-63.173H239.666z M219.666,103.372v77.048l-38.524-38.524L219.666,103.372z M192.1,270.828
			h-50.203l25.102-25.102L192.1,270.828z M136.298,186.739l30.701-30.7L197.7,186.74l-30.701,30.7L136.298,186.739z
			 M181.142,231.584l38.524-38.525v77.049L181.142,231.584z M150.789,47.938h32.42v32.64h-32.42V47.938z M194.176,100.578
			l-27.176,27.175l-27.176-27.175H194.176z M114.333,103.372l38.524,38.524l-38.524,38.524V103.372z M114.333,193.058l38.524,38.525
			l-38.524,38.524V193.058z M278.197,314L278.197,314H55.802v-23.173h222.395V314z"/>
	</g>
</g>
<g>
</g>
<g>
</g>
<g>
</g>
<g>
</g>
<g>
</g>
<g>
</g>
<g>
</g>
<g>
</g>
<g>
</g>
<g>
</g>
<g>
</g>
<g>
</g>
<g>
</g>
<g>
</g>
<g>
</g>
</svg>
