<?xml version="1.0" encoding="iso-8859-1"?>
<!-- Generator: Adobe Illustrator 19.0.0, SVG Export Plug-In . SVG Version: 6.00 Build 0)  -->
<svg version="1.1" id="Layer_1" xmlns="http://www.w3.org/2000/svg" xmlns:xlink="http://www.w3.org/1999/xlink" x="0px" y="0px"
	 viewBox="0 0 512.002 512.002" style="enable-background:new 0 0 512.002 512.002;" xml:space="preserve">
<g>
	<g>
		<g>
			<path d="M195.447,415.032c-6.422,9.878-3.62,23.092,6.258,29.514c9.878,6.422,23.092,3.62,29.514-6.258
				c21.874-33.645,53.546-42.071,72.348-19.358c7.513,9.076,20.961,10.343,30.037,2.83c9.076-7.513,10.343-20.961,2.83-30.037
				C296.013,342.897,231.121,360.16,195.447,415.032z"/>
			<path d="M506.332,210.961l-2.528-5.505c-1.427-3.119-2.011-6.525-1.703-9.942l0.532-5.878c1.62-17.816-4.519-35.433-16.85-48.568
				l-4.884-5.204c-2.405-2.553-4.084-5.593-4.913-8.837l-1.724-6.657c-4.281-16.769-15.44-31.088-30.792-39.595l-7.66-4.256
				c-3.049-1.703-5.592-4.049-7.439-6.852l-4.653-7.001c-9.234-13.963-23.734-23.779-40.3-27.333l-10.039-2.169
				c-3.393-0.729-6.521-2.201-9.128-4.273l-7.877-6.194c-12.77-10.108-29.074-15.045-45.482-13.78l-11.049,0.829
				c-3.464,0.27-6.868-0.226-10.039-1.448l-10.241-3.934c-15.143-5.817-31.986-5.817-47.129,0l-10.226,3.92
				c-3.197,1.237-6.593,1.732-9.992,1.467l-11.155-0.837c-16.356-1.261-32.652,3.671-45.493,13.81l-7.754,6.113
				c-2.675,2.127-5.799,3.595-9.181,4.319L128.53,35.34c-16.511,3.549-30.998,13.356-40.277,27.339l-4.604,6.959
				c-1.855,2.815-4.418,5.178-7.526,6.919l-7.613,4.229c-15.319,8.489-26.474,22.792-30.802,39.617l-1.693,6.622
				c-0.83,3.247-2.509,6.287-4.887,8.812l-4.901,5.199C13.87,154.2,7.748,171.816,9.369,189.643l0.533,5.881
				c0.305,3.38-0.286,6.809-1.74,10.01l-2.481,5.404c-7.562,16.519-7.562,35.417-0.01,51.914l2.528,5.505
				c1.415,3.115,2.008,6.563,1.703,9.936l-0.534,5.912c-1.621,17.804,4.511,35.45,16.847,48.559l4.919,5.218
				c2.373,2.519,4.052,5.559,4.881,8.803l6.173,24.01c1.205,4.687,3.976,8.776,7.787,11.666v73.2
				c0,31.168,25.903,56.341,57.365,56.341h306.325c31.462,0,57.365-25.174,57.365-56.341v-89.574l4.951-19.276
				c0.836-3.27,2.515-6.309,4.893-8.835l4.912-5.233c12.32-13.092,18.47-30.739,16.847-48.555l-0.532-5.892
				c-0.307-3.401,0.279-6.826,1.715-9.964l2.505-5.457C513.884,246.356,513.884,227.458,506.332,210.961z M391.785,335.721
				c-1.216,0.078-2.421,0.145-3.613,0.202c-0.19,0.009-0.378,0.016-0.568,0.025c-1.06,0.048-2.113,0.089-3.154,0.121
				c-0.251,0.008-0.5,0.013-0.75,0.02c-0.976,0.026-1.946,0.047-2.906,0.059c-0.279,0.004-0.555,0.006-0.832,0.008
				c-0.926,0.008-1.844,0.01-2.754,0.005c-0.289-0.002-0.577-0.004-0.864-0.007c-0.896-0.009-1.783-0.025-2.664-0.047
				c-0.284-0.007-0.568-0.014-0.85-0.022c-0.885-0.026-1.762-0.06-2.632-0.099c-0.262-0.012-0.525-0.022-0.785-0.035
				c-0.901-0.044-1.791-0.097-2.676-0.155c-0.219-0.014-0.44-0.027-0.658-0.042c-0.951-0.066-1.892-0.142-2.825-0.224
				c-0.143-0.013-0.288-0.023-0.431-0.036c-3.273-0.298-6.432-0.692-9.477-1.181c-0.05-0.008-0.099-0.017-0.149-0.025
				c-0.936-0.151-1.862-0.312-2.777-0.481c-0.221-0.041-0.438-0.086-0.658-0.127c-0.739-0.141-1.474-0.285-2.2-0.437
				c-0.287-0.06-0.569-0.124-0.853-0.186c-0.651-0.142-1.298-0.286-1.937-0.437c-0.315-0.074-0.626-0.152-0.938-0.229
				c-0.6-0.147-1.197-0.297-1.787-0.453c-0.326-0.086-0.649-0.174-0.972-0.263c-0.566-0.155-1.128-0.313-1.684-0.476
				c-0.331-0.097-0.66-0.194-0.987-0.293c-0.541-0.164-1.076-0.332-1.608-0.503c-0.327-0.105-0.653-0.21-0.977-0.318
				c-0.525-0.175-1.044-0.355-1.561-0.538c-0.316-0.112-0.634-0.222-0.947-0.336c-0.52-0.19-1.032-0.385-1.544-0.583
				c-0.297-0.115-0.596-0.227-0.89-0.344c-0.529-0.21-1.049-0.428-1.567-0.646c-0.266-0.112-0.535-0.22-0.798-0.334
				c-0.58-0.251-1.15-0.509-1.718-0.77c-0.191-0.088-0.386-0.172-0.576-0.26c-1.512-0.707-2.98-1.45-4.405-2.227
				c-0.222-0.121-0.438-0.247-0.658-0.37c-0.482-0.269-0.963-0.538-1.435-0.815c-0.264-0.155-0.522-0.315-0.783-0.472
				c-0.419-0.253-0.838-0.505-1.249-0.764c-0.274-0.172-0.543-0.349-0.813-0.524c-0.389-0.252-0.777-0.505-1.159-0.763
				c-0.273-0.184-0.542-0.372-0.811-0.559c-0.37-0.257-0.738-0.516-1.102-0.779c-0.267-0.193-0.531-0.388-0.794-0.584
				c-0.357-0.266-0.711-0.534-1.06-0.805c-0.257-0.199-0.512-0.399-0.765-0.601c-0.349-0.278-0.694-0.559-1.036-0.843
				c-0.243-0.202-0.486-0.403-0.726-0.608c-0.344-0.293-0.683-0.591-1.02-0.889c-0.227-0.201-0.455-0.402-0.679-0.606
				c-0.347-0.316-0.688-0.637-1.028-0.959c-0.203-0.192-0.408-0.383-0.608-0.578c-0.367-0.357-0.726-0.719-1.084-1.083
				c-0.164-0.166-0.33-0.33-0.492-0.498c-0.434-0.451-0.86-0.908-1.281-1.369c-0.078-0.086-0.159-0.169-0.237-0.255
				c-1.015-1.123-1.989-2.277-2.923-3.46c-0.064-0.081-0.125-0.164-0.189-0.246c-0.395-0.505-0.785-1.013-1.166-1.528
				c-0.102-0.138-0.2-0.278-0.301-0.416c-0.338-0.464-0.673-0.931-1-1.404c-0.112-0.162-0.221-0.326-0.331-0.489
				c-0.31-0.457-0.617-0.916-0.917-1.38c-0.111-0.171-0.219-0.344-0.328-0.516c-0.294-0.464-0.584-0.93-0.868-1.401
				c-0.104-0.173-0.207-0.346-0.31-0.52c-0.285-0.481-0.565-0.966-0.839-1.454c-0.092-0.164-0.184-0.329-0.276-0.495
				c-0.282-0.511-0.559-1.027-0.83-1.546c-0.075-0.144-0.151-0.287-0.225-0.432c-0.288-0.559-0.568-1.123-0.844-1.691
				c-0.052-0.108-0.106-0.215-0.158-0.324c-0.303-0.632-0.598-1.27-0.886-1.913c-0.021-0.046-0.042-0.091-0.062-0.137
				c-4.463-10.033-7.078-21.354-8.138-33.607c1.462-0.624,2.933-1.228,4.409-1.815c0.5-0.199,1.005-0.386,1.507-0.581
				c0.918-0.356,1.837-0.711,2.76-1.053c0.851-0.314,1.705-0.616,2.56-0.918c0.559-0.198,1.116-0.397,1.677-0.59
				c1.057-0.362,2.118-0.714,3.181-1.058c0.332-0.108,0.664-0.216,0.997-0.322c1.243-0.395,2.49-0.779,3.741-1.148
				c0.106-0.031,0.212-0.063,0.319-0.094c34.254-10.052,71.394-10.681,106.475-1.49c0.006,0.002,0.012,0.004,0.018,0.006
				c9.381,2.456,18.426,5.529,27.084,9.216c-0.052,1.337-0.114,2.659-0.182,3.97c-0.017,0.323-0.036,0.643-0.055,0.965
				c-0.046,0.83-0.096,1.653-0.149,2.472c-0.05,0.766-0.102,1.531-0.159,2.289c-0.01,0.143-0.022,0.284-0.032,0.426
				c-1.066,13.879-3.249,26.501-7.025,37.858c-0.018,0.054-0.042,0.102-0.06,0.155c-3.135,9.368-6.934,16.456-11.565,21.448
				c-3.86,4.046-8.331,6.83-13.465,8.171c-0.19,0.048-0.384,0.086-0.576,0.13c-0.499,0.119-0.999,0.235-1.51,0.327
				c-0.767,0.135-1.545,0.247-2.342,0.325c-2.736,0.266-5.417,0.483-8.042,0.653C391.905,335.714,391.846,335.717,391.785,335.721z
				 M230.656,289.565c-0.248,0.565-0.504,1.125-0.764,1.682c-0.057,0.122-0.112,0.245-0.17,0.367
				c-0.24,0.508-0.487,1.011-0.736,1.513c-0.083,0.167-0.165,0.334-0.25,0.5c-0.239,0.471-0.483,0.937-0.731,1.402
				c-0.102,0.191-0.204,0.381-0.307,0.571c-0.241,0.443-0.487,0.883-0.736,1.32c-0.118,0.207-0.237,0.413-0.357,0.619
				c-0.245,0.419-0.492,0.836-0.745,1.25c-0.133,0.217-0.267,0.433-0.402,0.649c-0.251,0.401-0.503,0.801-0.761,1.197
				c-0.143,0.22-0.29,0.437-0.435,0.655c-0.259,0.388-0.519,0.775-0.785,1.158c-0.153,0.22-0.311,0.437-0.467,0.655
				c-0.268,0.375-0.535,0.751-0.81,1.121c-0.162,0.217-0.329,0.431-0.493,0.646c-0.278,0.366-0.555,0.732-0.841,1.093
				c-0.158,0.199-0.322,0.393-0.482,0.59c-0.535,0.66-1.084,1.31-1.645,1.951c-0.221,0.253-0.438,0.509-0.664,0.759
				c-0.235,0.26-0.478,0.515-0.717,0.772c-0.269,0.289-0.535,0.58-0.809,0.865c-0.236,0.245-0.478,0.484-0.718,0.726
				c-0.288,0.29-0.575,0.582-0.869,0.868c-0.239,0.232-0.483,0.46-0.725,0.689c-0.306,0.289-0.613,0.579-0.925,0.863
				c-0.24,0.219-0.485,0.434-0.729,0.65c-0.326,0.289-0.653,0.576-0.986,0.859c-0.241,0.206-0.486,0.409-0.731,0.611
				c-0.347,0.287-0.697,0.573-1.051,0.855c-0.241,0.192-0.484,0.382-0.728,0.572c-0.371,0.288-0.747,0.572-1.126,0.854
				c-0.237,0.176-0.475,0.352-0.715,0.526c-0.401,0.29-0.807,0.576-1.216,0.86c-0.228,0.158-0.455,0.317-0.686,0.473
				c-0.443,0.299-0.893,0.594-1.346,0.885c-0.206,0.133-0.409,0.267-0.617,0.398c-0.512,0.323-1.032,0.639-1.556,0.952
				c-0.157,0.094-0.31,0.189-0.468,0.282c-0.65,0.382-1.31,0.757-1.98,1.124c-0.037,0.02-0.073,0.042-0.111,0.062
				c-2.189,1.195-4.479,2.31-6.873,3.34c-0.076,0.033-0.155,0.064-0.232,0.097c-0.708,0.302-1.424,0.598-2.151,0.886
				c-0.141,0.056-0.284,0.109-0.425,0.164c-0.671,0.262-1.347,0.518-2.034,0.767c-0.171,0.062-0.345,0.122-0.517,0.184
				c-0.666,0.237-1.338,0.47-2.018,0.695c-0.187,0.062-0.375,0.122-0.562,0.183c-0.678,0.22-1.362,0.434-2.054,0.642
				c-0.192,0.058-0.384,0.115-0.577,0.171c-0.704,0.207-1.416,0.408-2.135,0.603c-0.182,0.049-0.363,0.099-0.546,0.147
				c-0.749,0.199-1.507,0.39-2.272,0.576c-0.158,0.038-0.316,0.078-0.475,0.116c-0.822,0.195-1.654,0.383-2.494,0.563
				c-0.104,0.022-0.207,0.046-0.312,0.068c-0.947,0.2-1.905,0.392-2.876,0.572c-0.001,0-0.001,0-0.002,0
				c-4.98,0.926-10.274,1.59-15.893,1.979c-0.09,0.006-0.182,0.011-0.273,0.017c-1.011,0.068-2.032,0.128-3.064,0.178
				c-0.158,0.008-0.318,0.014-0.476,0.021c-0.973,0.045-1.954,0.082-2.945,0.11c-0.197,0.006-0.396,0.01-0.594,0.015
				c-0.963,0.025-1.934,0.042-2.915,0.051c-0.219,0.002-0.439,0.004-0.659,0.005c-0.976,0.006-1.961,0.004-2.954-0.005
				c-0.222-0.002-0.443-0.004-0.666-0.006c-1.014-0.013-2.039-0.034-3.072-0.063c-0.202-0.006-0.402-0.01-0.604-0.016
				c-1.081-0.033-2.174-0.076-3.276-0.126c-0.158-0.007-0.315-0.013-0.474-0.02c-1.214-0.058-2.44-0.126-3.678-0.206
				c-0.044-0.003-0.087-0.005-0.131-0.008c-2.629-0.17-5.313-0.387-8.053-0.653c-0.79-0.077-1.562-0.189-2.323-0.323
				c-0.54-0.097-1.069-0.218-1.596-0.345c-0.162-0.038-0.327-0.07-0.488-0.111c-5.119-1.335-9.58-4.104-13.432-8.129
				c-4.653-4.996-8.469-12.101-11.611-21.493c-0.018-0.054-0.041-0.102-0.06-0.155c-3.721-11.189-5.892-23.609-6.975-37.247
				c-0.043-0.562-0.088-1.121-0.128-1.689c-0.028-0.384-0.054-0.771-0.08-1.157c-0.171-2.577-0.31-5.205-0.415-7.89
				c8.648-3.683,17.682-6.752,27.051-9.207c0.017-0.004,0.034-0.007,0.051-0.011c36.542-9.576,75.307-8.497,110.725,2.791
				c0.148,0.047,0.296,0.096,0.444,0.143c1.247,0.401,2.491,0.814,3.729,1.24c0.299,0.103,0.596,0.21,0.895,0.315
				c1.115,0.39,2.228,0.786,3.336,1.196c0.472,0.175,0.941,0.359,1.412,0.538c0.95,0.361,1.901,0.72,2.846,1.096
				c1.199,0.478,2.392,0.972,3.581,1.474c0.222,0.094,0.446,0.181,0.667,0.275c-1.042,12.042-3.59,23.185-7.917,33.09
				C230.685,289.496,230.671,289.53,230.656,289.565z M291.699,207.803c-1.249,0.367-2.493,0.748-3.736,1.135
				c-0.866,0.269-1.73,0.544-2.593,0.823c-1.056,0.342-2.111,0.686-3.162,1.044c-1.236,0.419-2.466,0.856-3.695,1.296
				c-0.721,0.259-1.445,0.506-2.164,0.772c-1.998,0.737-3.986,1.505-5.964,2.297c-0.38,0.153-0.758,0.314-1.137,0.469
				c-1.698,0.691-3.388,1.401-5.07,2.132c-0.452,0.197-0.902,0.397-1.352,0.596c-0.775,0.343-1.555,0.674-2.326,1.026
				c-0.655-0.298-1.317-0.578-1.974-0.871c-0.652-0.29-1.303-0.579-1.958-0.863c-1.397-0.605-2.801-1.193-4.209-1.77
				c-0.638-0.262-1.273-0.532-1.913-0.789c-1.871-0.748-3.751-1.474-5.641-2.172c-0.986-0.365-1.98-0.708-2.971-1.06
				c-0.953-0.338-1.904-0.678-2.861-1.004c-1.198-0.408-2.399-0.8-3.603-1.189c-0.7-0.226-1.401-0.448-2.103-0.667
				c-1.367-0.427-2.737-0.846-4.111-1.249c-0.319-0.093-0.639-0.181-0.958-0.273c-17.757-5.118-36.053-8.149-54.455-9.084
				l0.345-0.076c8.531-1.892,16.485-5.707,23.248-11.166l2.033-1.644l4.225-3.406c1.464-1.185,3.142-2.03,4.919-2.526
				c1.529-0.425,3.134-0.599,4.747-0.471l8.939,0.704c8.547,0.655,17.078-0.619,25.017-3.733l8.265-3.246
				c3.232-1.273,6.826-1.273,10.066,0l8.217,3.236c7.967,3.125,16.496,4.397,25.013,3.747l8.973-0.708
				c2.614-0.206,5.215,0.346,7.501,1.561c0.761,0.405,1.487,0.883,2.167,1.432l0.479,0.386l5.755,4.655
				c6.781,5.473,14.735,9.288,23.24,11.174l0.372,0.082c-18.271,0.928-36.437,3.924-54.075,8.976
				C292.692,207.521,292.194,207.658,291.699,207.803z M52.395,191.686l-0.534-5.898c-0.513-5.648,1.431-11.242,5.444-15.517
				l4.876-5.173c7.319-7.771,12.548-17.235,15.172-27.506l1.685-6.589c1.383-5.378,5.035-10.06,10.173-12.907l7.7-4.278
				c9.07-5.081,16.716-12.133,22.342-20.668l4.567-6.904c3.077-4.637,8.003-7.972,13.699-9.196l10.092-2.181
				c9.75-2.089,18.908-6.392,26.69-12.58l7.697-6.069c4.414-3.486,10.094-5.204,15.829-4.762l11.137,0.835
				c9.689,0.755,19.477-0.673,28.576-4.193l10.181-3.902c5.308-2.039,11.249-2.039,16.544-0.005l10.219,3.925
				c9.091,3.504,18.87,4.93,28.614,4.17l11.032-0.827c5.776-0.445,11.446,1.271,15.82,4.734l7.841,6.166
				c7.685,6.11,16.837,10.414,26.601,12.513l10.047,2.171c5.737,1.231,10.65,4.557,13.72,9.198l4.635,6.974
				c5.594,8.487,13.235,15.541,22.258,20.579l7.719,4.288c5.155,2.857,8.796,7.528,10.17,12.911l1.725,6.662
				c2.608,10.206,7.836,19.67,15.15,27.435l4.859,5.177c4.027,4.29,5.978,9.889,5.467,15.512l-0.534,5.895
				c-0.939,10.428,0.752,20.876,4.927,30.475c-0.528-0.258-1.064-0.504-1.595-0.758c-0.573-0.276-1.147-0.548-1.722-0.819
				c-1.206-0.566-2.42-1.118-3.638-1.663c-9.625-4.328-19.507-7.989-29.574-10.968c-0.168-0.191-0.344-0.375-0.514-0.564
				c-0.16-0.177-0.32-0.354-0.482-0.528c-0.691-0.746-1.396-1.479-2.126-2.186c-0.06-0.058-0.123-0.113-0.183-0.171
				c-0.662-0.635-1.343-1.249-2.035-1.851c-0.233-0.203-0.468-0.404-0.705-0.603c-0.656-0.551-1.324-1.089-2.006-1.609
				c-0.244-0.187-0.492-0.369-0.739-0.551c-0.62-0.456-1.25-0.9-1.89-1.33c-0.345-0.232-0.693-0.46-1.043-0.685
				c-0.525-0.336-1.058-0.66-1.595-0.978c-0.268-0.159-0.525-0.333-0.795-0.488l-6.086-3.451l-0.135-0.077
				c-0.272-0.154-0.522-0.334-0.78-0.504c-0.199-0.131-0.407-0.248-0.598-0.389c-0.015-0.011-0.027-0.024-0.042-0.035
				c-0.841-0.627-1.608-1.348-2.275-2.146c-0.338-0.407-0.652-0.833-0.941-1.28l-0.504-0.776l-3.192-4.945
				c-8.037-12.418-20.651-21.151-35.103-24.344l-8.137-1.794c-2.057-0.456-3.979-1.38-5.616-2.701l-5.788-4.666l-0.462-0.374
				c-0.703-0.567-1.417-1.115-2.143-1.646c-10.847-7.935-24.22-11.758-37.682-10.696l-8.935,0.704
				c-2.068,0.158-4.162-0.154-6.108-0.918l-8.208-3.232c-13.289-5.22-28.042-5.22-41.297,0l-8.239,3.236
				c-1.925,0.758-4.026,1.072-6.123,0.911l-8.893-0.7c-10.45-0.823-20.833,1.302-30.026,5.996c-0.29,0.148-0.584,0.285-0.871,0.438
				c-0.04,0.021-0.079,0.045-0.119,0.067c-3.087,1.652-6.035,3.596-8.796,5.824l-4.229,3.421l-2.019,1.628
				c-1.634,1.319-3.574,2.249-5.673,2.715l-5.335,1.179l-2.763,0.609c-1.398,0.31-2.773,0.687-4.135,1.098
				c-12.704,3.837-23.7,12.029-30.946,23.224l-3.695,5.692c-1.189,1.842-2.76,3.323-4.623,4.378l-6.231,3.545
				c-0.111,0.063-0.215,0.135-0.325,0.198c-0.744,0.429-1.474,0.878-2.194,1.341c-0.283,0.182-0.563,0.366-0.842,0.553
				c-0.717,0.48-1.424,0.974-2.117,1.487c-0.125,0.092-0.252,0.18-0.376,0.274c-0.778,0.586-1.534,1.2-2.279,1.826
				c-0.202,0.17-0.401,0.341-0.601,0.514c-1.58,1.368-3.082,2.824-4.5,4.362c-0.087,0.094-0.172,0.189-0.258,0.283
				c-0.218,0.239-0.44,0.474-0.654,0.717c-8.561,2.533-16.987,5.564-25.237,9.073c-0.263,0.111-0.527,0.22-0.79,0.332
				c-1.124,0.483-2.244,0.977-3.361,1.478c-1.126,0.503-2.246,1.017-3.363,1.537c-0.641,0.3-1.283,0.595-1.922,0.901
				c-1.941,0.927-3.872,1.872-5.781,2.854c-0.047,0.024-0.09,0.054-0.137,0.078l-7.678,3.95l2.244-4.888
				C51.502,213.287,53.366,202.462,52.395,191.686z M413.665,469.336H107.34c-8.166,0-14.699-6.348-14.699-13.675V370.93
				c7.246,3.473,15.307,5.73,24.231,6.598c2.171,0.211,4.311,0.388,6.434,0.548c0.394,0.03,0.783,0.053,1.176,0.081
				c1.72,0.122,3.425,0.228,5.114,0.317c0.478,0.025,0.955,0.049,1.43,0.071c1.703,0.08,3.389,0.143,5.06,0.19
				c0.341,0.009,0.686,0.022,1.025,0.03c4.094,0.097,8.091,0.093,11.992-0.011c0.236-0.006,0.468-0.016,0.703-0.023
				c1.683-0.05,3.347-0.119,4.994-0.205c0.361-0.019,0.721-0.039,1.081-0.06c1.61-0.093,3.203-0.203,4.778-0.33
				c0.258-0.021,0.519-0.039,0.776-0.061c3.728-0.316,7.361-0.727,10.897-1.234c0.149-0.021,0.296-0.045,0.445-0.067
				c1.571-0.229,3.123-0.478,4.657-0.744c0.302-0.052,0.603-0.106,0.903-0.16c1.455-0.26,2.893-0.537,4.315-0.83
				c0.23-0.047,0.462-0.092,0.691-0.141c3.338-0.703,6.584-1.494,9.736-2.375c0.123-0.034,0.244-0.071,0.367-0.106
				c1.402-0.396,2.785-0.81,4.151-1.239c0.283-0.089,0.564-0.18,0.845-0.27c1.261-0.406,2.507-0.826,3.736-1.26
				c0.237-0.084,0.477-0.166,0.713-0.25c2.938-1.056,5.788-2.192,8.547-3.41c0.13-0.057,0.256-0.118,0.386-0.175
				c1.205-0.537,2.392-1.089,3.563-1.656c0.283-0.137,0.563-0.276,0.844-0.414c1.054-0.52,2.094-1.052,3.12-1.596
				c0.258-0.137,0.519-0.272,0.776-0.411c1.239-0.669,2.463-1.351,3.661-2.055c0.002-0.001,0.004-0.002,0.006-0.004
				c1.254-0.736,2.484-1.492,3.693-2.265c0.161-0.103,0.318-0.21,0.478-0.313c0.989-0.639,1.964-1.291,2.923-1.955
				c0.292-0.202,0.581-0.407,0.871-0.611c0.846-0.597,1.679-1.204,2.502-1.82c0.282-0.211,0.566-0.421,0.845-0.634
				c0.941-0.719,1.866-1.449,2.776-2.193c0.121-0.098,0.245-0.194,0.365-0.293c1.041-0.858,2.061-1.732,3.062-2.622
				c0.199-0.177,0.391-0.359,0.589-0.537c0.773-0.698,1.537-1.404,2.286-2.12c0.301-0.287,0.597-0.578,0.893-0.868
				c0.65-0.636,1.29-1.279,1.922-1.929c0.296-0.305,0.593-0.609,0.886-0.917c0.685-0.722,1.356-1.454,2.019-2.193
				c0.202-0.225,0.41-0.446,0.61-0.673c0.84-0.953,1.662-1.919,2.466-2.898c0.231-0.281,0.452-0.568,0.68-0.851
				c0.572-0.711,1.138-1.426,1.692-2.15c0.298-0.39,0.591-0.784,0.884-1.179c0.476-0.64,0.945-1.285,1.407-1.935
				c0.294-0.414,0.589-0.828,0.877-1.247c0.476-0.69,0.941-1.388,1.401-2.089c0.193-0.293,0.396-0.579,0.587-0.874
				c0.073,0.113,0.152,0.223,0.225,0.336c0.61,0.939,1.233,1.868,1.87,2.788c0.201,0.29,0.406,0.578,0.609,0.866
				c0.557,0.789,1.125,1.57,1.703,2.344c0.218,0.293,0.436,0.586,0.657,0.876c0.651,0.854,1.316,1.698,1.992,2.533
				c0.14,0.172,0.274,0.348,0.415,0.519c0.832,1.014,1.682,2.015,2.553,3c0.143,0.162,0.293,0.32,0.437,0.482
				c0.716,0.801,1.443,1.592,2.184,2.373c0.271,0.286,0.548,0.568,0.823,0.852c0.647,0.666,1.303,1.325,1.968,1.977
				c0.292,0.285,0.583,0.571,0.878,0.854c0.739,0.706,1.491,1.402,2.253,2.091c0.213,0.192,0.421,0.389,0.636,0.58
				c0.988,0.878,1.995,1.742,3.022,2.589c0.173,0.143,0.352,0.28,0.526,0.422c0.85,0.692,1.711,1.374,2.588,2.044
				c0.33,0.252,0.665,0.5,0.998,0.749c0.756,0.565,1.522,1.123,2.298,1.672c0.351,0.249,0.702,0.497,1.058,0.742
				c0.855,0.59,1.723,1.169,2.601,1.739c0.265,0.172,0.525,0.349,0.792,0.519c1.16,0.74,2.338,1.465,3.538,2.171
				c0.163,0.096,0.331,0.187,0.495,0.282c1.03,0.599,2.075,1.186,3.135,1.76c0.365,0.198,0.737,0.391,1.106,0.585
				c0.896,0.473,1.801,0.937,2.718,1.391c0.393,0.195,0.787,0.39,1.184,0.581c1,0.482,2.013,0.952,3.037,1.412
				c0.294,0.132,0.583,0.269,0.88,0.399c1.35,0.594,2.718,1.171,4.11,1.727c0.098,0.039,0.2,0.076,0.298,0.114
				c1.271,0.504,2.562,0.99,3.868,1.461c0.378,0.136,0.761,0.267,1.142,0.401c1.068,0.375,2.146,0.739,3.237,1.092
				c0.415,0.134,0.83,0.268,1.249,0.399c1.175,0.368,2.364,0.722,3.566,1.065c0.302,0.086,0.6,0.177,0.904,0.261
				c3.062,0.852,6.214,1.62,9.451,2.306c0.373,0.079,0.751,0.153,1.126,0.229c1.262,0.258,2.536,0.503,3.824,0.735
				c0.426,0.077,0.852,0.153,1.281,0.227c1.365,0.235,2.746,0.455,4.141,0.661c0.304,0.045,0.604,0.094,0.909,0.137
				c3.464,0.494,7.02,0.896,10.666,1.207c0.365,0.031,0.736,0.057,1.103,0.086c1.459,0.117,2.932,0.219,4.42,0.305
				c0.446,0.026,0.892,0.051,1.34,0.075c1.543,0.08,3.103,0.144,4.677,0.192c0.324,0.01,0.645,0.024,0.97,0.032
				c3.865,0.102,7.825,0.105,11.879,0.01c0.378-0.009,0.762-0.023,1.142-0.034c1.635-0.046,3.285-0.107,4.951-0.185
				c0.494-0.023,0.989-0.048,1.485-0.074c1.678-0.088,3.372-0.193,5.081-0.315c0.395-0.028,0.787-0.052,1.184-0.082
				c2.127-0.16,4.271-0.337,6.447-0.549c8.922-0.867,16.981-3.123,24.226-6.595v84.728
				C428.364,462.987,421.831,469.336,413.665,469.336z"/>
		</g>
	</g>
</g>
<g>
</g>
<g>
</g>
<g>
</g>
<g>
</g>
<g>
</g>
<g>
</g>
<g>
</g>
<g>
</g>
<g>
</g>
<g>
</g>
<g>
</g>
<g>
</g>
<g>
</g>
<g>
</g>
<g>
</g>
</svg>
