<?xml version="1.0" encoding="iso-8859-1"?>
<!-- Generator: Adobe Illustrator 19.0.0, SVG Export Plug-In . SVG Version: 6.00 Build 0)  -->
<svg version="1.1" id="Layer_1" xmlns="http://www.w3.org/2000/svg" xmlns:xlink="http://www.w3.org/1999/xlink" x="0px" y="0px"
	 viewBox="0 0 512 512" style="enable-background:new 0 0 512 512;" xml:space="preserve">
<g>
	<g>
		<path d="M377.141,170.492V121.14C377.141,54.343,322.796,0,256,0S134.86,54.343,134.86,121.14v49.352
			c-36.292,6.614-63.9,38.439-63.9,76.611v221.357c0,24.007,19.531,43.539,43.538,43.539h283.003
			c24.007,0,43.539-19.532,43.539-43.539V247.103C441.04,208.931,413.433,177.106,377.141,170.492z M203.709,121.14
			c0-28.833,23.457-52.292,52.291-52.292c28.833,0,52.292,23.457,52.292,52.292v48.068H203.709V121.14z M287.554,350.925v41.999
			c0,17.426-14.127,31.554-31.553,31.554c-17.426,0-31.554-14.127-31.554-31.554v-41.999c-12.938-9.638-21.32-25.053-21.32-42.427
			c0-29.202,23.672-52.874,52.874-52.874c29.2,0,52.874,23.672,52.874,52.874C308.874,325.872,300.492,341.287,287.554,350.925z"/>
	</g>
</g>
<g>
</g>
<g>
</g>
<g>
</g>
<g>
</g>
<g>
</g>
<g>
</g>
<g>
</g>
<g>
</g>
<g>
</g>
<g>
</g>
<g>
</g>
<g>
</g>
<g>
</g>
<g>
</g>
<g>
</g>
</svg>
