<?xml version="1.0" encoding="iso-8859-1"?>
<!-- Generator: Adobe Illustrator 19.0.0, SVG Export Plug-In . SVG Version: 6.00 Build 0)  -->
<svg version="1.1" id="Layer_1" xmlns="http://www.w3.org/2000/svg" xmlns:xlink="http://www.w3.org/1999/xlink" x="0px" y="0px"
	 viewBox="0 0 511.103 511.103" style="enable-background:new 0 0 511.103 511.103;" xml:space="preserve">
<g transform="translate(1 1)">
	<g>
		<path style="fill:#FFE100;" d="M246.445,122.34c-4.267,0-8.533-3.413-8.533-7.68c0-0.853-4.267-52.053-34.133-52.053
			c-13.653,0-24.747-4.267-32.427-12.8c-11.947-11.947-10.24-29.867-10.24-30.72c0-4.267,4.267-8.533,9.387-7.68
			c4.267,0,8.533,4.267,7.68,9.387c0,0-0.853,11.093,5.973,17.92c4.267,4.267,10.24,6.827,19.627,6.827
			c45.227,0,51.2,64.853,51.2,67.413C254.978,118.073,251.565,122.34,246.445,122.34L246.445,122.34z"/>
		<path style="fill:#FFE100;" d="M280.578,122.34C280.578,122.34,279.725,122.34,280.578,122.34c-5.12,0-8.533-4.267-8.533-9.387
			c0-2.56,5.973-67.413,51.2-67.413c9.387,0,16.213-2.56,20.48-6.827c5.973-6.827,5.12-17.92,5.12-17.92
			c0-4.267,3.413-8.533,7.68-9.387c5.12,0,8.533,3.413,9.387,7.68c0,0.853,1.707,17.92-10.24,30.72
			c-7.68,8.533-18.773,12.8-32.427,12.8c-29.867,0-34.133,51.2-34.133,52.053C288.258,118.926,284.845,122.34,280.578,122.34z"/>
		<path style="fill:#FFE100;" d="M161.111,497.806c-1.707,0-2.56,0-4.267-0.853c-4.267-2.56-5.12-7.68-3.413-11.947l32.427-57.173
			l-8.533-74.24c0-2.56,0.853-5.973,3.413-7.68l51.2-42.667c3.413-3.413,9.387-2.56,11.947,0.853
			c3.413,3.413,2.56,9.387-0.853,11.947l-47.787,40.107l7.68,72.533c0,1.707,0,3.413-0.853,5.12l-34.133,59.733
			C167.085,496.1,163.671,497.806,161.111,497.806z"/>
		<path style="fill:#FFE100;" d="M135.511,318.606c-2.56,0-5.12-0.853-6.827-3.413c-3.413-3.413-2.56-9.387,0.853-11.947
			l51.2-42.667c1.707-0.853,3.413-1.707,5.12-1.707h51.2c5.12,0,8.533,3.413,8.533,8.533c0,5.12-3.413,8.533-8.533,8.533h-47.787
			l-48.64,40.96C139.778,317.753,137.218,318.606,135.511,318.606z"/>
		<path style="fill:#FFE100;" d="M365.911,497.806c-2.56,0-5.973-1.707-7.68-4.267l-34.133-59.733
			c-0.853-1.707-0.853-3.413-0.853-5.12l7.68-72.533l-47.787-40.107c-3.413-3.413-4.267-8.533-0.853-11.947
			c3.413-3.413,8.533-4.267,11.947-0.853l51.2,42.667c2.56,1.707,3.413,4.267,3.413,7.68l-8.533,74.24l32.427,57.173
			c2.56,4.267,0.853,9.387-3.413,11.947C368.471,497.806,367.618,497.806,365.911,497.806z"/>
		<path style="fill:#FFE100;" d="M391.511,318.606c-1.707,0-4.267-0.853-5.12-1.707l-49.493-40.96h-47.787
			c-5.12,0-8.533-3.413-8.533-8.533s3.413-8.533,8.533-8.533h51.2c1.707,0,4.267,0.853,5.12,1.707l51.2,42.667
			c3.413,3.413,4.267,8.533,0.853,11.947C396.631,317.753,394.071,318.606,391.511,318.606z"/>
		<path style="fill:#FFE100;" d="M254.978,403.94L254.978,403.94c-13.653,0-24.747-11.947-24.747-25.6l7.68-196.267h34.133
			l7.68,196.267C279.725,391.993,268.631,403.94,254.978,403.94"/>
		<path style="fill:#FFE100;" d="M269.485,182.073h-29.867c-10.24,0-18.773-8.533-18.773-19.627V132.58
			c0-11.093,8.533-19.627,19.627-19.627h29.867c11.093,0,19.627,8.533,19.627,19.627v29.867
			C289.111,173.54,280.578,182.073,269.485,182.073"/>
		<path style="fill:#FFE100;" d="M41.645,113.806c-15.36,0-29.867,9.387-33.28,23.893c-1.707,7.68,0,17.067,7.68,27.307
			c0,0,34.987,27.307,85.333,34.133l119.467-34.133l-34.133-17.067C186.711,147.94,101.378,114.66,41.645,113.806"/>
	</g>
	<path style="fill:#FDCC00;" d="M220.845,165.006L220.845,165.006l-170.667,51.2c0,0-40.96,9.387-34.133,34.133
		c0,0,8.533,25.6,59.733,25.6s162.133-93.867,162.133-93.867l0,0C229.378,180.366,222.551,173.54,220.845,165.006"/>
	<path style="fill:#FFE100;" d="M468.311,113.806c15.36,0,29.867,9.387,33.28,23.893c1.707,7.68,0,17.067-7.68,27.307
		c0,0-34.987,27.307-85.333,34.133l-119.467-34.133l34.133-17.067C323.245,147.94,408.578,114.66,468.311,113.806"/>
	<path style="fill:#FFA800;" d="M501.591,137.7c-2.56-14.507-17.067-23.893-33.28-23.893c-5.973,0-11.093,0-17.067,0.853
		c11.947,2.56,22.187,11.093,24.747,23.04c1.707,7.68,0,17.067-7.68,27.307c0,0-28.16,21.333-69.973,31.573l10.24,2.56
		c50.347-6.827,85.333-34.133,85.333-34.133C502.445,154.766,503.298,146.233,501.591,137.7"/>
	<path style="fill:#FDCC00;" d="M289.111,165.006L289.111,165.006l170.667,51.2c0,0,40.96,9.387,34.133,34.133
		c0,0-8.533,25.6-59.733,25.6s-162.133-93.867-162.133-93.867l0,0C281.431,180.366,288.258,173.54,289.111,165.006"/>
	<path style="fill:#FFA800;" d="M462.338,216.206l-170.667-51.2l0,0c0,2.56-0.853,4.267-2.56,6.827l147.627,44.373
		c0,0,40.96,9.387,34.133,34.133c0,0-6.827,19.627-43.52,24.747c3.413,0.853,6.827,0.853,9.387,0.853
		c51.2,0,59.733-25.6,59.733-25.6C502.445,225.593,462.338,216.206,462.338,216.206"/>
	<g>
		<path style="fill:#FFFFFF;" d="M8.365,137.7c2.56-14.507,17.067-23.893,33.28-23.893c5.973,0,11.093,0,17.067,0.853
			c-11.947,2.56-22.187,11.093-24.747,23.04c-1.707,7.68,0,17.067,7.68,27.307c0,0,28.16,21.333,69.973,31.573l-10.24,2.56
			c-51.2-6.827-85.333-34.133-85.333-34.133C7.511,154.766,6.658,146.233,8.365,137.7"/>
		<path style="fill:#FFFFFF;" d="M47.618,216.206l170.667-51.2l0,0c0,2.56,0.853,4.267,2.56,6.827L73.218,216.206
			c0,0-40.96,9.387-34.133,34.133c0,0,6.827,19.627,43.52,24.747c-3.413,0.853-5.973,0.853-9.387,0.853
			c-51.2,0-59.733-25.6-59.733-25.6C7.511,225.593,47.618,216.206,47.618,216.206"/>
	</g>
	<path d="M254.978,412.473c-9.387,0-17.92-3.413-23.893-10.24c-5.973-6.827-9.387-15.36-9.387-23.893l7.68-196.267
		c0-4.267,4.267-8.533,8.533-8.533h34.133c4.267,0,8.533,3.413,8.533,8.533l7.68,196.267c0,9.387-2.56,17.92-9.387,23.893
		C272.898,409.06,264.365,412.473,254.978,412.473z M246.445,190.606l-6.827,187.733c0,4.267,1.707,8.533,4.267,11.947
		c5.973,5.973,17.067,5.973,23.04,0c3.413-3.413,4.267-7.68,4.267-11.947l-7.68-187.733H246.445z"/>
	<path d="M269.485,190.606h-29.867c-15.36,0-28.16-12.8-28.16-28.16V132.58c0-15.36,12.8-28.16,28.16-28.16h29.867
		c15.36,0,28.16,12.8,28.16,28.16v29.867C297.645,177.806,284.845,190.606,269.485,190.606z M240.471,122.34
		c-5.973,0-11.093,5.12-11.093,11.093V163.3c0,5.973,5.12,11.093,11.093,11.093h29.867c5.973,0,11.093-5.12,11.093-11.093v-29.867
		c0-5.973-5.12-11.093-11.093-11.093C270.338,122.34,240.471,122.34,240.471,122.34z"/>
	<path d="M101.378,207.673h-0.853c-52.053-6.827-87.893-34.987-89.6-35.84c-0.853,0-0.853-0.853-1.707-1.707
		c-8.533-10.24-11.947-22.187-9.387-34.133c4.267-17.92,21.333-30.72,41.813-30.72c61.44,0.853,145.067,33.28,148.48,34.987
		l34.987,17.067c3.413,1.707,5.12,5.12,4.267,8.533c0,3.413-2.56,6.827-5.973,7.68l-119.467,34.133
		C103.085,207.673,102.231,207.673,101.378,207.673z M22.018,159.033c5.12,3.413,35.84,25.6,78.507,31.573l96.427-27.307
		l-14.507-7.68c0,0-83.627-32.427-141.653-33.28l0,0c-10.24,0-22.187,5.973-24.747,17.92
		C15.191,146.233,16.898,152.206,22.018,159.033z"/>
	<path d="M75.778,284.473c-56.32,0-67.413-29.867-67.413-31.573c-2.56-8.533-0.853-15.36,2.56-22.187
		c10.24-16.213,34.987-22.187,37.547-23.04l169.813-51.2c2.56-0.853,5.973,0,8.533,2.56c1.707,1.707,2.56,3.413,2.56,5.12
		c0.853,5.12,4.267,8.533,9.387,9.387c1.707,0,3.413,0.853,5.12,2.56c1.707,1.707,2.56,4.267,2.56,6.827s-0.853,5.12-2.56,5.973
		C238.765,192.313,129.538,284.473,75.778,284.473z M24.578,247.78c0.853,2.56,10.24,19.627,51.2,19.627
		c34.987,0,110.08-54.613,146.773-83.627c-2.56-2.56-5.12-5.12-6.827-8.533L52.738,224.74c-5.973,1.707-22.187,6.827-27.307,15.36
		C23.725,241.806,23.725,244.366,24.578,247.78z"/>
	<path d="M237.911,122.34c-4.267,0-8.533-3.413-8.533-7.68c0-0.853-4.267-52.053-34.133-52.053c-13.653,0-24.747-4.267-32.427-12.8
		c-11.947-11.947-10.24-29.867-10.24-30.72c0-4.267,4.267-8.533,9.387-7.68c4.267,0,8.533,4.267,7.68,9.387
		c0,0-0.853,11.093,5.973,17.92c4.267,4.267,10.24,6.827,19.627,6.827c45.227,0,51.2,64.853,51.2,67.413
		C246.445,118.073,243.031,122.34,237.911,122.34L237.911,122.34z"/>
	<path d="M272.045,122.34C272.045,122.34,271.191,122.34,272.045,122.34c-5.12,0-8.533-4.267-8.533-9.387
		c0-2.56,5.973-67.413,51.2-67.413c9.387,0,16.213-2.56,20.48-6.827c5.973-6.827,5.12-17.92,5.12-17.92
		c0-4.267,3.413-8.533,7.68-9.387c5.12,0,8.533,3.413,9.387,7.68c0,0.853,1.707,17.92-10.24,30.72
		c-7.68,8.533-18.773,12.8-32.427,12.8c-29.867,0-34.133,51.2-34.133,52.053C279.725,118.926,276.311,122.34,272.045,122.34z"/>
	<path d="M152.578,497.806c-1.707,0-2.56,0-4.267-0.853c-4.267-2.56-5.12-7.68-3.413-11.947l32.427-57.173l-8.533-74.24
		c0-2.56,0.853-5.973,3.413-7.68l51.2-42.667c3.413-3.413,9.387-2.56,11.947,0.853c3.413,3.413,2.56,9.387-0.853,11.947
		l-47.787,40.107l7.68,72.533c0,1.707,0,3.413-0.853,5.12l-34.133,59.733C158.551,496.1,155.138,497.806,152.578,497.806z"/>
	<path d="M126.978,318.606c-2.56,0-5.12-0.853-6.827-3.413c-3.413-3.413-2.56-9.387,0.853-11.947l51.2-42.667
		c1.707-0.853,3.413-1.707,5.12-1.707h51.2c5.12,0,8.533,3.413,8.533,8.533c0,5.12-3.413,8.533-8.533,8.533h-47.787l-48.64,40.96
		C131.245,317.753,128.685,318.606,126.978,318.606z"/>
	<path d="M357.378,497.806c-2.56,0-5.973-1.707-7.68-4.267l-34.133-59.733c-0.853-1.707-0.853-3.413-0.853-5.12l7.68-72.533
		l-47.787-40.107c-3.413-3.413-4.267-8.533-0.853-11.947c3.413-3.413,8.533-4.267,11.947-0.853l51.2,42.667
		c2.56,1.707,3.413,4.267,3.413,7.68l-8.533,74.24l32.427,57.173c2.56,4.267,0.853,9.387-3.413,11.947
		C359.938,497.806,359.085,497.806,357.378,497.806z"/>
	<path d="M382.978,318.606c-1.707,0-4.267-0.853-5.12-1.707l-49.493-40.96h-47.787c-5.12,0-8.533-3.413-8.533-8.533
		s3.413-8.533,8.533-8.533h51.2c1.707,0,4.267,0.853,5.12,1.707l51.2,42.667c3.413,3.413,4.267,8.533,0.853,11.947
		C388.098,317.753,385.538,318.606,382.978,318.606z"/>
	<path d="M408.578,207.673c-0.853,0-1.707,0-2.56,0L286.551,173.54c-3.413-0.853-5.973-4.267-5.973-7.68s1.707-6.827,4.267-8.533
		l34.133-17.067c4.267-1.707,87.893-34.133,148.48-34.987l0,0c21.333,0,37.547,12.8,41.813,30.72
		c2.56,11.947-0.853,23.04-9.387,34.133c0,0.853-0.853,0.853-1.707,1.707C496.471,172.686,460.632,200.846,408.578,207.673
		C409.431,207.673,409.431,207.673,408.578,207.673z M313.005,162.446l96.427,28.16c42.667-5.973,73.387-28.16,78.507-31.573
		c5.12-5.973,6.827-12.8,5.12-18.773c-2.56-11.093-13.653-17.92-24.747-17.92c-58.027,0.853-141.653,33.28-142.507,33.28
		L313.005,162.446z"/>
	<path d="M434.178,284.473c-53.76,0-162.987-92.16-167.253-95.573c-1.707-1.707-3.413-4.267-3.413-6.827s0.853-4.267,2.56-5.973
		c1.707-1.707,3.413-2.56,5.12-2.56c5.12-0.853,8.533-4.267,9.387-9.387c0-1.707,0.853-3.413,2.56-5.12
		c2.56-2.56,5.973-3.413,8.533-2.56l170.667,51.2c2.56,0.853,27.307,6.827,36.693,23.04c4.267,6.827,5.12,13.653,3.413,21.333
		C501.591,254.606,490.498,284.473,434.178,284.473z M288.258,183.78c36.693,29.013,110.933,83.627,146.773,83.627
		c40.96,0,50.347-17.067,51.2-19.627c0.853-2.56,0-5.12-1.707-7.68c-5.12-8.533-21.333-13.653-26.453-15.36l-163.84-48.64
		C293.378,178.66,290.818,181.22,288.258,183.78z"/>
</g>
<g>
</g>
<g>
</g>
<g>
</g>
<g>
</g>
<g>
</g>
<g>
</g>
<g>
</g>
<g>
</g>
<g>
</g>
<g>
</g>
<g>
</g>
<g>
</g>
<g>
</g>
<g>
</g>
<g>
</g>
</svg>
