<?xml version="1.0" encoding="iso-8859-1"?>
<!-- Generator: Adobe Illustrator 19.0.0, SVG Export Plug-In . SVG Version: 6.00 Build 0)  -->
<svg version="1.1" id="Layer_1" xmlns="http://www.w3.org/2000/svg" xmlns:xlink="http://www.w3.org/1999/xlink" x="0px" y="0px"
	 viewBox="0 0 504.446 504.446" style="enable-background:new 0 0 504.446 504.446;" xml:space="preserve">
<g transform="translate(1 1)">
	<g>
		<path style="fill:#FFE100;" d="M212.613,159.315c-0.839,0-2.518,0-3.357-0.839l-67.148-33.574c-0.839,0-0.839-0.839-0.839-0.839
			c-15.108-10.911-26.859-42.807-34.413-94.007c-1.679-7.554-8.393-13.43-15.948-13.43h-4.197c-5.036,0-8.393-3.357-8.393-8.393
			s3.357-8.393,8.393-8.393h3.357c16.787,0,30.216,11.751,32.734,27.698c6.715,43.646,16.787,73.862,26.859,82.256l66.308,33.574
			c4.197,1.679,5.875,6.715,3.357,10.911C219.328,157.636,215.97,159.315,212.613,159.315z"/>
		<path style="fill:#FFE100;" d="M53.138,369.151c-5.036,0-8.393-3.357-8.393-8.393c0-37.771,57.075-63.79,63.79-66.308
			c27.698-12.59,78.898-98.203,96.525-130.938c2.518-4.197,7.554-5.875,11.751-3.357c4.197,2.518,5.875,7.554,3.357,11.751
			c-6.715,11.751-67.148,120.866-104.918,137.652c-15.108,6.715-53.718,28.538-53.718,51.2
			C61.531,365.793,58.174,369.151,53.138,369.151z"/>
		<path style="fill:#FFE100;" d="M120.285,503.446c-1.679,0-3.357-0.839-5.036-1.679c-4.197-2.518-5.036-7.554-2.518-11.751
			l0.839-0.839c26.859-39.449,44.485-85.613,52.039-132.616c4.197-28.538,15.108-73.862,38.61-125.062
			c1.679-4.197,6.715-5.875,10.911-4.197s5.875,6.715,4.197,10.911c-23.502,49.521-33.574,93.167-37.77,120.866
			c-7.554,50.361-26.859,98.203-54.557,140.171l-0.839,0.839C126.161,501.767,123.643,503.446,120.285,503.446z"/>
		<path style="fill:#FFE100;" d="M296.548,159.315c-3.357,0-5.875-1.679-7.554-5.036c-1.679-4.197,0-9.233,3.357-10.911
			l66.308-33.574c10.072-8.393,20.144-39.449,26.859-82.256c2.518-15.948,15.948-27.698,32.734-27.698h3.357
			c5.036,0,8.393,3.357,8.393,8.393s-3.357,8.393-8.393,8.393h-3.357c-8.393,0-15.108,5.875-15.948,13.43
			c-7.554,51.2-19.305,83.095-34.413,94.007l-0.839,0.839l-67.148,33.574C299.066,159.315,298.226,159.315,296.548,159.315z"/>
		<path style="fill:#FFE100;" d="M456.023,369.151c-5.036,0-8.393-3.357-8.393-8.393c0-22.662-38.61-44.485-53.718-51.2
			c-37.77-16.787-97.364-125.902-104.079-137.652c-2.518-4.197-0.839-9.233,3.357-11.751c4.197-2.518,9.233-0.839,11.751,3.357
			c17.626,31.895,68.826,118.348,96.525,130.938c6.715,2.518,63.79,28.538,63.79,66.308
			C464.416,365.793,461.059,369.151,456.023,369.151z"/>
		<path style="fill:#FFE100;" d="M388.875,503.446c-2.518,0-5.036-1.679-6.715-4.197h-0.839
			c-28.538-41.128-47.003-89.81-54.557-140.171c-4.197-27.698-14.269-71.344-37.771-120.866c-1.679-4.197,0-9.233,4.197-10.911
			c4.197-1.679,9.233,0,10.911,4.197c24.341,51.2,34.413,96.525,38.61,125.062c7.554,47.843,25.18,93.167,52.039,132.616
			l0.839,0.839c2.518,4.197,1.679,9.233-2.518,11.751C392.233,502.607,390.554,503.446,388.875,503.446z"/>
		<path style="fill:#FFE100;" d="M237.793,108.954c-4.197,0-8.393-3.357-8.393-7.554c0-0.839-4.197-51.2-33.574-51.2
			c-13.43,0-24.341-4.197-31.895-12.59c-10.911-11.751-10.072-29.377-9.233-30.216c0-4.197,4.197-7.554,9.233-7.554
			c4.197,0,8.393,4.197,7.554,9.233c0,0-0.839,10.911,5.875,17.626c4.197,4.197,10.911,6.715,19.305,6.715
			c44.485,0,50.361,63.79,50.361,66.308C247.026,104.757,243.669,108.954,237.793,108.954
			C238.633,108.954,238.633,108.954,237.793,108.954z"/>
		<path style="fill:#FFE100;" d="M271.367,108.954L271.367,108.954c-5.036,0-8.393-4.197-8.393-9.233
			c0-2.518,5.875-66.308,50.361-66.308c9.233,0,15.948-2.518,20.144-6.715c6.715-7.554,5.875-17.626,5.875-17.626
			c-0.839-4.197,2.518-8.393,7.554-9.233c4.197,0,8.393,3.357,9.233,7.554c0,0.839,1.679,17.626-10.072,30.216
			c-7.554,8.393-18.466,12.59-31.895,12.59c-29.377,0-33.574,50.361-33.574,51.2C279.761,105.597,276.403,108.954,271.367,108.954z"
			/>
	</g>
	<path style="fill:#FDCC00;" d="M297.387,309.557c0,60.433-22.662,109.115-50.361,109.115c-27.698,0-50.361-48.682-50.361-109.115
		s22.662-109.115,50.361-109.115C274.725,200.443,297.387,249.125,297.387,309.557"/>
	<path style="fill:#FFA800;" d="M247.026,200.443c-2.518,0-5.875,0.839-8.393,1.679c23.502,8.393,41.967,53.718,41.967,107.436
		s-18.466,99.043-41.967,107.436c2.518,0.839,5.875,1.679,8.393,1.679c27.698,0,50.361-48.682,50.361-109.115
		S274.725,200.443,247.026,200.443"/>
	<path style="fill:#FFE100;" d="M247.026,200.443c17.626,0,32.734,19.305,41.967,48.682V141.689
		c0-23.502-18.466-41.967-41.967-41.967s-41.967,18.466-41.967,41.967v107.436C214.292,219.748,229.4,200.443,247.026,200.443"/>
	<path style="fill:#FFA800;" d="M247.026,101.4c-2.518,0-5.875,0-8.393,0.839c19.305,4.197,33.574,20.984,33.574,41.128v73.862
		c6.715,8.393,12.59,20.144,16.787,34.413V143.367C288.993,119.866,270.528,101.4,247.026,101.4"/>
	<path d="M247.026,427.066c-32.734,0-58.754-51.2-58.754-117.508s26.02-117.508,58.754-117.508s58.754,51.2,58.754,117.508
		S279.761,427.066,247.026,427.066z M247.026,208.836c-20.144,0-41.967,41.128-41.967,100.721s21.823,100.721,41.967,100.721
		s41.967-41.128,41.967-100.721S267.17,208.836,247.026,208.836z"/>
	<path d="M288.993,257.518c-3.357,0-6.715-2.518-8.393-5.875c-8.393-26.859-20.984-42.807-33.574-42.807
		c-12.59,0-26.02,16.787-33.574,42.807c-0.839,4.197-5.036,6.715-9.233,5.875c-4.197-0.839-7.554-4.197-7.554-8.393V141.689
		c0-27.698,22.662-50.361,50.361-50.361c27.698,0,50.361,22.662,50.361,50.361v107.436c0,4.197-3.357,7.554-7.554,8.393H288.993z
		 M247.026,192.049c12.59,0,24.341,6.715,33.574,20.144v-70.505c0-18.466-15.108-33.574-33.574-33.574s-33.574,15.108-33.574,33.574
		v70.505C222.685,198.764,234.436,192.049,247.026,192.049z"/>
	<path d="M205.059,158.475c-0.839,0-2.518,0-3.357-0.839l-67.148-33.574c-0.839,0-0.839-0.839-0.839-0.839
		c-15.948-10.911-26.859-42.807-35.252-94.007c-0.839-7.554-7.554-13.43-15.948-13.43h-3.357c-5.036,0-8.393-3.357-8.393-8.393
		S74.121-1,79.157-1h3.357c16.787,0,30.216,11.751,32.734,27.698c6.715,43.646,16.787,73.862,26.859,82.256l66.308,33.574
		c4.197,1.679,5.875,6.715,3.357,10.911C210.934,156.797,208.416,158.475,205.059,158.475z"/>
	<path d="M45.584,368.311c-5.036,0-8.393-3.357-8.393-8.393c0-37.77,57.075-63.79,63.79-66.308
		c27.698-12.59,78.898-98.203,96.525-130.938c2.518-4.197,7.554-5.875,11.751-3.357s5.875,7.554,3.357,11.751
		c-6.715,12.59-67.148,120.866-104.918,137.652c-15.108,6.715-53.718,28.538-53.718,51.2
		C53.977,364.954,50.62,368.311,45.584,368.311z"/>
	<path d="M112.731,502.607c-1.679,0-3.357-0.839-5.036-1.679c-4.197-2.518-5.036-7.554-2.518-11.751l0.839-0.839
		c26.859-39.449,44.485-85.613,52.039-132.616c4.197-28.538,15.108-73.862,38.61-125.062c1.679-4.197,6.715-5.875,10.911-4.197
		s5.875,6.715,4.197,10.911c-23.502,49.521-33.574,93.167-37.77,120.866c-7.554,50.361-26.859,98.203-54.557,140.171l-0.839,0.839
		C117.767,500.928,115.249,502.607,112.731,502.607z"/>
	<path d="M288.993,158.475c-3.357,0-5.875-1.679-7.554-5.036c-1.679-4.197,0-9.233,3.357-10.911l66.308-33.574
		c10.072-8.393,20.144-39.449,26.859-82.256C381.321,10.751,394.751-1,411.538-1h3.357c5.036,0,8.393,3.357,8.393,8.393
		s-3.357,8.393-8.393,8.393h-3.357c-8.393,0-15.108,5.875-15.948,13.43c-7.554,51.2-19.305,83.095-34.413,94.007l-0.839,0.839
		l-67.148,33.574C291.511,158.475,290.672,158.475,288.993,158.475z"/>
	<path d="M448.469,368.311c-5.036,0-8.393-3.357-8.393-8.393c0-22.662-38.61-44.485-53.718-51.2
		c-37.77-16.787-98.203-125.902-104.918-137.652c-2.518-4.197-0.839-9.233,3.357-11.751c4.197-2.518,9.233-0.839,11.751,3.357
		c17.626,31.895,68.826,118.348,96.525,130.938c6.715,2.518,63.79,28.538,63.79,66.308
		C456.862,364.954,453.505,368.311,448.469,368.311z"/>
	<path d="M381.321,502.607c-2.518,0-5.036-1.679-6.715-3.357l-0.839-0.839c-28.538-41.967-47.003-89.81-54.557-140.171
		c-4.197-27.698-14.269-71.344-37.771-120.866c-1.679-4.197,0-9.233,4.197-10.911c4.197-1.679,9.233,0,10.911,4.197
		c24.341,51.2,34.413,96.525,38.61,125.062c7.554,47.843,25.18,93.167,52.039,132.616l0.839,0.839
		c2.518,4.197,1.679,9.233-2.518,11.751C384.679,501.767,383,502.607,381.321,502.607z"/>
	<path d="M230.239,108.115c-4.197,0-8.393-3.357-8.393-7.554c0-0.839-4.197-51.2-33.574-51.2c-13.43,0-24.341-4.197-31.895-12.59
		C144.626,25.02,146.305,7.393,146.305,6.554c0-4.197,4.197-7.554,9.233-7.554c4.197,0,8.393,4.197,7.554,9.233
		c0,0-0.839,10.911,5.875,17.626c4.197,4.197,10.911,6.715,19.305,6.715c44.485,0,50.361,63.79,50.361,66.308
		C238.633,103.918,235.275,108.115,230.239,108.115C231.079,108.115,230.239,108.115,230.239,108.115z"/>
	<path d="M263.813,108.115C263.813,108.115,262.974,108.115,263.813,108.115c-5.036,0-8.393-4.197-8.393-9.233
		c0-2.518,5.875-66.308,50.361-66.308c9.233,0,15.948-2.518,20.144-6.715c5.875-7.554,5.036-17.626,5.036-17.626
		c-0.839-4.197,2.518-8.393,7.554-9.233c5.036,0,9.233,3.357,9.233,7.554c0,0.839,1.679,17.626-10.072,30.216
		c-6.715,8.393-17.626,12.59-31.895,12.59c-29.377,0-33.574,50.361-33.574,51.2C272.207,104.757,268.01,108.115,263.813,108.115z"/>
</g>
<g>
</g>
<g>
</g>
<g>
</g>
<g>
</g>
<g>
</g>
<g>
</g>
<g>
</g>
<g>
</g>
<g>
</g>
<g>
</g>
<g>
</g>
<g>
</g>
<g>
</g>
<g>
</g>
<g>
</g>
</svg>
