<?xml version="1.0" encoding="iso-8859-1"?>
<!-- Generator: Adobe Illustrator 19.0.0, SVG Export Plug-In . SVG Version: 6.00 Build 0)  -->
<svg version="1.1" id="Layer_1" xmlns="http://www.w3.org/2000/svg" xmlns:xlink="http://www.w3.org/1999/xlink" x="0px" y="0px"
	 viewBox="0 0 512 512" style="enable-background:new 0 0 512 512;" xml:space="preserve">
<g transform="translate(1 1)">
	<g>
		<path style="fill:#FFE100;" d="M33.278,389.508c-0.868,0-2.603,0-3.471-0.868c-4.339-1.736-6.075-6.942-4.339-11.281
			l26.034-60.746c0.868-1.736,1.736-2.603,2.603-3.471l69.424-52.068c0.868-0.868,1.736-0.868,3.471-1.736l69.424-17.356
			c4.339-0.868,9.546,1.736,10.414,6.075c0.868,4.339-1.736,9.546-6.075,10.414l-67.688,17.356l-65.953,49.464l-25.166,59.01
			C40.22,387.773,36.749,389.508,33.278,389.508z"/>
		<path style="fill:#FFE100;" d="M206.837,511c-1.736,0-3.471-0.868-5.207-1.736l-52.068-34.712
			c-1.736-0.868-2.603-2.603-3.471-4.339l-17.356-43.39c0-0.868,0-1.736,0-3.471l8.678-104.136c0-1.736,0.868-4.339,2.603-5.207
			l52.068-52.068c3.471-3.471,8.678-3.471,12.149,0c3.471,3.471,3.471,8.678,0,12.149l-49.464,49.464l-8.678,98.929l15.62,39.051
			l49.464,32.976c4.339,2.603,5.207,7.81,2.603,12.149C212.044,509.264,209.441,511,206.837,511z"/>
		<path style="fill:#FFE100;" d="M206.837,233.305h-0.868l-60.746-8.678c-0.868,0-1.736,0-2.603-0.868l-69.424-34.712
			c-0.868,0-0.868-0.868-1.736-0.868l-43.39-34.712c-3.471-2.603-4.339-8.678-1.736-12.149c2.603-3.471,8.678-4.339,12.149-1.736
			l42.522,33.844l67.688,33.844l59.01,8.678c4.339,0.868,7.81,5.207,6.942,9.546C214.647,229.834,211.176,233.305,206.837,233.305z"
			/>
		<path style="fill:#FFE100;" d="M276.261,159.542c0,16.488-11.281,30.373-26.034,30.373c-14.753,0-26.034-13.885-26.034-30.373
			s11.281-30.373,26.034-30.373C264.98,129.169,276.261,143.054,276.261,159.542"/>
		<path style="fill:#FFE100;" d="M310.973,268.017c0,43.39-26.902,78.102-60.746,78.102s-60.746-34.712-60.746-78.102
			s26.902-78.102,60.746-78.102S310.973,224.627,310.973,268.017"/>
	</g>
	<path style="fill:#FFA800;" d="M250.227,189.915c-2.603,0-6.075,0-8.678,0.868c29.505,5.207,52.068,38.183,52.068,77.234
		s-22.563,72.027-52.068,77.234c2.603,0.868,6.075,0.868,8.678,0.868c33.844,0,60.746-34.712,60.746-78.102
		S284.071,189.915,250.227,189.915"/>
	<path style="fill:#FFFFFF;" d="M250.227,189.915c2.603,0,6.075,0,8.678,0.868c-29.505,5.207-52.068,38.183-52.068,77.234
		s22.563,72.027,52.068,77.234c-2.603,0.868-6.075,0.868-8.678,0.868c-33.844,0-60.746-34.712-60.746-78.102
		S216.383,189.915,250.227,189.915"/>
	<g>
		<path style="fill:#FFE100;" d="M232.871,189.915h-43.39c-1.736,0-2.603,0-3.471-0.868l-86.78-43.39
			c-3.471-1.736-5.207-4.339-5.207-6.942L85.346,17.224c0-5.207,3.471-9.546,7.81-9.546c5.207,0,9.546,3.471,9.546,7.81
			l8.678,116.285l80.705,39.919h40.786c5.207,0,8.678,3.471,8.678,8.678S238.078,189.915,232.871,189.915z"/>
		<path style="fill:#FFE100;" d="M328.329,189.915h-43.39c-5.207,0-8.678-3.471-8.678-8.678s3.471-8.678,8.678-8.678h41.654
			l80.705-39.919l8.678-116.285c0-5.207,4.339-8.678,9.546-7.81c5.207,0,8.678,4.339,7.81,9.546l-8.678,121.492
			c0,3.471-1.736,6.075-4.339,6.942l-86.78,43.39C330.932,189.915,330.064,189.915,328.329,189.915z"/>
		<path style="fill:#FFE100;" d="M310.973,233.305c-4.339,0-7.81-3.471-8.678-7.81c-0.868-4.339,2.603-9.546,6.942-9.546
			l59.01-8.678l67.688-33.844l42.522-33.844c3.471-2.603,9.546-2.603,12.149,1.736c2.603,3.471,2.603,9.546-1.736,12.149
			l-43.39,34.712c-0.868,0-0.868,0.868-1.736,0.868l-69.424,34.712c-0.868,0-1.736,0.868-2.603,0.868L310.973,233.305
			C311.841,233.305,310.973,233.305,310.973,233.305z"/>
		<path style="fill:#FFE100;" d="M484.532,389.508c-3.471,0-6.942-1.736-7.81-5.207l-25.166-59.01l-65.953-49.464l-67.688-17.356
			c-4.339-0.868-7.81-6.075-6.075-10.414c0.868-4.339,6.075-7.81,10.414-6.075l69.424,17.356c0.868,0,2.603,0.868,3.471,1.736
			l69.424,52.068c0.868,0.868,2.603,1.736,2.603,3.471l26.034,60.746c1.736,4.339,0,9.546-4.339,11.281
			C487.136,389.508,485.4,389.508,484.532,389.508z"/>
		<path style="fill:#FFE100;" d="M310.973,511c-2.603,0-5.207-1.736-6.942-3.471c-2.603-4.339-1.736-9.546,2.603-12.149
			l49.464-32.976l15.62-39.051l-8.678-99.797l-49.464-49.464c-3.471-3.471-3.471-8.678,0-12.149s8.678-3.471,12.149,0l52.068,52.068
			c1.736,1.736,2.603,3.471,2.603,5.207l8.678,104.136c0,1.736,0,2.603-0.868,4.339l-17.356,43.39
			c-0.868,1.736-1.736,2.603-3.471,4.339l-52.068,34.712C314.444,510.132,312.708,511,310.973,511z"/>
	</g>
	<path d="M250.227,354.797c-38.183,0-69.424-39.051-69.424-86.78s31.241-86.78,69.424-86.78s69.424,39.051,69.424,86.78
		S288.41,354.797,250.227,354.797z M250.227,198.593c-28.637,0-52.068,31.241-52.068,69.424c0,38.183,23.431,69.424,52.068,69.424
		s52.068-31.241,52.068-69.424S278.864,198.593,250.227,198.593z"/>
	<path d="M250.227,198.593c-19.092,0-34.712-17.356-34.712-39.051s15.62-39.051,34.712-39.051c19.092,0,34.712,17.356,34.712,39.051
		S269.319,198.593,250.227,198.593z M250.227,137.847c-9.546,0-17.356,9.546-17.356,21.695s7.81,21.695,17.356,21.695
		c9.546,0,17.356-9.546,17.356-21.695S259.773,137.847,250.227,137.847z"/>
	<path d="M224.193,155.203c-19.092,0-34.712-15.62-34.712-34.712s15.62-34.712,34.712-34.712c5.207,0,8.678,3.471,8.678,8.678
		c0,5.207-3.471,8.678-8.678,8.678c-9.546,0-17.356,7.81-17.356,17.356s7.81,17.356,17.356,17.356c5.207,0,8.678,3.471,8.678,8.678
		S229.4,155.203,224.193,155.203z"/>
	<path d="M276.261,155.203c-5.207,0-8.678-3.471-8.678-8.678s3.471-8.678,8.678-8.678c9.546,0,17.356-7.81,17.356-17.356
		s-7.81-17.356-17.356-17.356c-5.207,0-8.678-3.471-8.678-8.678c0-5.207,3.471-8.678,8.678-8.678
		c19.092,0,34.712,15.62,34.712,34.712S295.353,155.203,276.261,155.203z"/>
	<path d="M224.193,181.237h-43.39c-1.736,0-2.603,0-3.471-0.868l-86.78-43.39c-3.471-1.736-5.207-4.339-5.207-6.942L76.668,8.546
		c0-5.207,3.471-9.546,7.81-9.546c5.207,0,9.546,3.471,9.546,7.81l8.678,116.285l80.705,39.919h40.786
		c5.207,0,8.678,3.471,8.678,8.678C232.871,176.898,229.4,181.237,224.193,181.237z"/>
	<path d="M24.6,380.831c-0.868,0-2.603,0-3.471-0.868c-4.339-1.736-6.075-6.942-4.339-11.281l26.034-60.746
		c0.868-1.736,1.736-2.603,2.603-3.471l69.424-52.068c0.868-0.868,1.736-0.868,3.471-1.736l69.424-17.356
		c4.339-0.868,9.546,1.736,10.414,6.075s-1.736,9.546-6.075,10.414l-67.688,17.356l-65.953,49.464l-25.166,59.01
		C31.542,379.095,28.071,380.831,24.6,380.831z"/>
	<path d="M198.159,502.322c-1.736,0-3.471-0.868-5.207-1.736l-52.068-34.712c-1.736-0.868-2.603-2.603-3.471-4.339l-17.356-43.39
		c0-0.868,0-1.736,0-3.471l8.678-104.136c0-1.736,0.868-4.339,2.603-5.207l52.068-52.068c3.471-3.471,8.678-3.471,12.149,0
		c3.471,3.471,3.471,8.678,0,12.149l-49.464,49.464l-8.678,98.929l15.62,39.051l49.464,32.976c4.339,2.603,5.207,7.81,2.603,12.149
		C203.366,500.586,200.763,502.322,198.159,502.322z"/>
	<path d="M319.651,181.237h-43.39c-5.207,0-8.678-3.471-8.678-8.678c0-5.207,3.471-8.678,8.678-8.678h41.654l80.705-39.919
		l8.678-116.285c0-5.207,4.339-8.678,9.546-7.81c5.207,0,8.678,4.339,7.81,9.546l-8.678,121.492c0,3.471-1.736,6.075-4.339,6.942
		l-86.78,43.39C322.254,181.237,321.386,181.237,319.651,181.237z"/>
	<path d="M302.295,224.627c-4.339,0-7.81-3.471-8.678-7.81c-0.868-4.339,2.603-9.546,6.942-9.546l59.01-8.678l67.688-33.844
		l42.522-33.844c3.471-2.603,9.546-2.603,12.149,1.736c2.603,3.471,2.603,9.546-1.736,12.149l-43.39,34.712
		c-0.868,0-0.868,0.868-1.736,0.868l-69.424,34.712c-0.868,0-1.736,0.868-2.603,0.868L302.295,224.627
		C303.163,224.627,302.295,224.627,302.295,224.627z"/>
	<path d="M475.854,380.831c-3.471,0-6.942-1.736-7.81-5.207l-25.166-59.01l-65.953-49.464l-67.688-17.356
		c-4.339-0.868-7.81-6.075-6.075-10.414c0.868-4.339,6.075-7.81,10.414-6.075L383,250.661c0.868,0,2.603,0.868,3.471,1.736
		l69.424,52.068c0.868,0.868,2.603,1.736,2.603,3.471l26.034,60.746c1.736,4.339,0,9.546-4.339,11.281
		C478.458,380.831,476.722,380.831,475.854,380.831z"/>
	<path d="M267.583,241.983h-34.712c-5.207,0-8.678-3.471-8.678-8.678s3.471-8.678,8.678-8.678h34.712
		c5.207,0,8.678,3.471,8.678,8.678S272.79,241.983,267.583,241.983z"/>
	<path d="M267.583,311.407h-34.712c-5.207,0-8.678-3.471-8.678-8.678c0-5.207,3.471-8.678,8.678-8.678h34.712
		c5.207,0,8.678,3.471,8.678,8.678C276.261,307.936,272.79,311.407,267.583,311.407z"/>
	<path d="M250.227,311.407c-5.207,0-8.678-3.471-8.678-8.678v-69.424c0-5.207,3.471-8.678,8.678-8.678
		c5.207,0,8.678,3.471,8.678,8.678v69.424C258.905,307.936,255.434,311.407,250.227,311.407z"/>
	<path d="M198.159,224.627h-0.868l-60.746-8.678c-0.868,0-1.736,0-2.603-0.868l-69.424-34.712c-0.868,0-0.868-0.868-1.736-0.868
		l-43.39-34.712c-3.471-2.603-4.339-8.678-1.736-12.149c2.603-3.471,8.678-4.339,12.149-1.736l42.522,33.844l67.688,33.844
		l59.01,8.678c4.339,0.868,7.81,5.207,6.942,9.546C205.969,221.156,202.498,224.627,198.159,224.627z"/>
	<path d="M302.295,502.322c-2.603,0-5.207-1.736-6.942-3.471c-2.603-4.339-1.736-9.546,2.603-12.149l49.464-32.976l15.62-39.051
		l-8.678-99.797l-49.464-49.464c-3.471-3.471-3.471-8.678,0-12.149c3.471-3.471,8.678-3.471,12.149,0l52.068,52.068
		c1.736,1.736,2.603,3.471,2.603,5.207l8.678,104.136c0,1.736,0,2.603-0.868,4.339l-17.356,43.39
		c-0.868,1.736-1.736,2.603-3.471,4.339l-52.068,34.712C305.766,501.454,304.031,502.322,302.295,502.322z"/>
</g>
<g>
</g>
<g>
</g>
<g>
</g>
<g>
</g>
<g>
</g>
<g>
</g>
<g>
</g>
<g>
</g>
<g>
</g>
<g>
</g>
<g>
</g>
<g>
</g>
<g>
</g>
<g>
</g>
<g>
</g>
</svg>
