<?xml version="1.0" encoding="iso-8859-1"?>
<!-- Generator: Adobe Illustrator 19.0.0, SVG Export Plug-In . SVG Version: 6.00 Build 0)  -->
<svg version="1.1" id="Layer_1" xmlns="http://www.w3.org/2000/svg" xmlns:xlink="http://www.w3.org/1999/xlink" x="0px" y="0px"
	 viewBox="0 0 512 512" style="enable-background:new 0 0 512 512;" xml:space="preserve">
<g>
	<g>
		<path d="M64.273,451.334v15.706h21.721L124.038,512H396.48l38.044-44.961h21.721v-15.706H64.273z M389.195,496.294H131.322
			l-24.754-29.255H413.95L389.195,496.294z"/>
	</g>
</g>
<g>
	<g>
		<path d="M428.832,184.802H55.756l24.339,111.373c3.854,17.629,13.717,33.571,27.773,44.886
			c11.759,9.466,26.055,15.358,40.979,17.036l4.159,31.384l0.258,1.949l38.048,53.035h137.894l38.047-53.04l22.39-168.931h16.155
			v-15.706H114.722v15.706h16.155l15.831,119.451c-10.557-1.851-20.582-6.349-28.989-13.118
			c-11.276-9.077-19.187-21.864-22.278-36.006l-20.175-92.314h353.567V184.802z M373.8,222.495l-21.599,162.971l-31.056,43.295
			H199.373l-31.056-43.292l-21.6-162.974H373.8z"/>
	</g>
</g>
<g>
	<g>
		<rect x="221.804" width="15.706" height="143.444"/>
	</g>
</g>
<g>
	<g>
		<rect x="279.391" y="34.552" width="15.706" height="108.892"/>
	</g>
</g>
<g>
</g>
<g>
</g>
<g>
</g>
<g>
</g>
<g>
</g>
<g>
</g>
<g>
</g>
<g>
</g>
<g>
</g>
<g>
</g>
<g>
</g>
<g>
</g>
<g>
</g>
<g>
</g>
<g>
</g>
</svg>
