<?xml version="1.0" encoding="iso-8859-1"?>
<!-- Generator: Adobe Illustrator 19.0.0, SVG Export Plug-In . SVG Version: 6.00 Build 0)  -->
<svg version="1.1" id="Layer_1" xmlns="http://www.w3.org/2000/svg" xmlns:xlink="http://www.w3.org/1999/xlink" x="0px" y="0px"
	 viewBox="0 0 512 512" style="enable-background:new 0 0 512 512;" xml:space="preserve">
<g>
	<g>
		<path d="M222.563,90.691v15.674h154.309l-34.876,389.962H170.003l-34.875-389.962h57.133v76.74l-30.824,22.989v61.923h77.322
			v-61.924l-30.825-22.988V90.691H90.283v15.674h29.109L155.668,512h200.663l36.276-405.636h29.11V90.691H222.563z M223.086,213.956
			v38.386H177.11v-38.386l22.988-17.144L223.086,213.956z"/>
	</g>
</g>
<g>
	<g>
		<polygon points="357.001,54.414 357.001,0 154.999,0 154.999,37.517 170.673,37.517 170.673,15.673 341.327,15.673 
			341.327,54.414 124.343,54.414 124.343,70.088 387.657,70.088 387.657,54.414 		"/>
	</g>
</g>
<g>
</g>
<g>
</g>
<g>
</g>
<g>
</g>
<g>
</g>
<g>
</g>
<g>
</g>
<g>
</g>
<g>
</g>
<g>
</g>
<g>
</g>
<g>
</g>
<g>
</g>
<g>
</g>
<g>
</g>
</svg>
