<?xml version="1.0" encoding="iso-8859-1"?>
<!-- Generator: Adobe Illustrator 19.0.0, SVG Export Plug-In . SVG Version: 6.00 Build 0)  -->
<svg version="1.1" id="Layer_1" xmlns="http://www.w3.org/2000/svg" xmlns:xlink="http://www.w3.org/1999/xlink" x="0px" y="0px"
	 viewBox="0 0 512 512" style="enable-background:new 0 0 512 512;" xml:space="preserve">
<g>
	<rect x="200.855" y="163.097" style="fill:#666666;" width="108.448" height="10.06"/>
	<path style="fill:#666666;" d="M106.33,173.16H89.169c-2.778,0-5.03-2.252-5.03-5.03s2.252-5.03,5.03-5.03h17.163
		c2.778,0,5.03,2.252,5.03,5.03S109.109,173.16,106.33,173.16z"/>
	<path style="fill:#666666;" d="M421.401,173.16h-17.163c-2.778,0-5.03-2.252-5.03-5.03s2.252-5.03,5.03-5.03h17.163
		c2.778,0,5.03,2.252,5.03,5.03S424.18,173.16,421.401,173.16z"/>
	<rect x="202.7" y="309.449" style="fill:#666666;" width="108.448" height="10.06"/>
	<path style="fill:#666666;" d="M107.76,319.506H90.598c-2.778,0-5.03-2.252-5.03-5.03c0-2.778,2.252-5.03,5.03-5.03h17.163
		c2.778,0,5.03,2.252,5.03,5.03C112.79,317.254,110.538,319.506,107.76,319.506z"/>
	<path style="fill:#666666;" d="M422.831,319.506h-17.163c-2.778,0-5.03-2.252-5.03-5.03c0-2.778,2.252-5.03,5.03-5.03h17.163
		c2.778,0,5.03,2.252,5.03,5.03C427.861,317.254,425.609,319.506,422.831,319.506z"/>
	<rect x="202.7" y="236.268" style="fill:#666666;" width="108.448" height="10.06"/>
	<path style="fill:#666666;" d="M107.76,246.333H90.598c-2.778,0-5.03-2.252-5.03-5.03s2.252-5.03,5.03-5.03h17.163
		c2.778,0,5.03,2.252,5.03,5.03S110.538,246.333,107.76,246.333z"/>
	<path style="fill:#666666;" d="M422.831,246.333h-17.163c-2.778,0-5.03-2.252-5.03-5.03s2.252-5.03,5.03-5.03h17.163
		c2.778,0,5.03,2.252,5.03,5.03S425.609,246.333,422.831,246.333z"/>
	<rect x="202.7" y="382.62" style="fill:#666666;" width="108.448" height="10.06"/>
	<path style="fill:#666666;" d="M107.76,392.679H90.598c-2.778,0-5.03-2.252-5.03-5.03c0-2.778,2.252-5.03,5.03-5.03h17.163
		c2.778,0,5.03,2.252,5.03,5.03C112.79,390.427,110.538,392.679,107.76,392.679z"/>
	<path style="fill:#666666;" d="M422.831,392.679h-17.163c-2.778,0-5.03-2.252-5.03-5.03c0-2.778,2.252-5.03,5.03-5.03h17.163
		c2.778,0,5.03,2.252,5.03,5.03C427.861,390.427,425.609,392.679,422.831,392.679z"/>
	<rect x="202.7" y="455.791" style="fill:#666666;" width="108.448" height="10.06"/>
	<path style="fill:#666666;" d="M107.76,465.853H90.598c-2.778,0-5.03-2.252-5.03-5.03c0-2.778,2.252-5.03,5.03-5.03h17.163
		c2.778,0,5.03,2.252,5.03,5.03C112.79,463.601,110.538,465.853,107.76,465.853z"/>
	<path style="fill:#666666;" d="M422.831,465.853h-17.163c-2.778,0-5.03-2.252-5.03-5.03c0-2.778,2.252-5.03,5.03-5.03h17.163
		c2.778,0,5.03,2.252,5.03,5.03C427.861,463.601,425.609,465.853,422.831,465.853z"/>
</g>
<g>
	<rect x="104.658" y="148.823" style="fill:#F95428;" width="108.694" height="38.615"/>
	<rect x="297.22" y="148.823" style="fill:#F95428;" width="108.694" height="38.615"/>
	<rect x="106.089" y="295.164" style="fill:#F95428;" width="108.694" height="38.615"/>
	<rect x="298.651" y="295.164" style="fill:#F95428;" width="108.694" height="38.615"/>
	<rect x="106.089" y="221.993" style="fill:#F95428;" width="108.694" height="38.615"/>
	<rect x="298.651" y="221.993" style="fill:#F95428;" width="108.694" height="38.615"/>
	<rect x="106.089" y="368.346" style="fill:#F95428;" width="108.694" height="38.615"/>
	<rect x="298.651" y="368.346" style="fill:#F95428;" width="108.694" height="38.615"/>
	<rect x="106.089" y="441.517" style="fill:#F95428;" width="108.694" height="38.615"/>
	<rect x="298.651" y="441.517" style="fill:#F95428;" width="108.694" height="38.615"/>
</g>
<g>
	<rect x="127.674" y="148.823" style="fill:#CE321D;" width="11.178" height="38.615"/>
	<rect x="371.721" y="148.823" style="fill:#CE321D;" width="11.178" height="38.615"/>
	<rect x="129.093" y="295.164" style="fill:#CE321D;" width="11.178" height="38.614"/>
	<rect x="373.152" y="295.164" style="fill:#CE321D;" width="11.178" height="38.614"/>
	<rect x="129.093" y="221.993" style="fill:#CE321D;" width="11.178" height="38.614"/>
	<rect x="373.152" y="221.993" style="fill:#CE321D;" width="11.178" height="38.614"/>
	<rect x="129.093" y="368.346" style="fill:#CE321D;" width="11.178" height="38.614"/>
	<rect x="373.152" y="368.346" style="fill:#CE321D;" width="11.178" height="38.614"/>
	<rect x="129.093" y="441.517" style="fill:#CE321D;" width="11.178" height="38.614"/>
	<rect x="373.152" y="441.517" style="fill:#CE321D;" width="11.178" height="38.614"/>
</g>
<path style="fill:#666666;" d="M256.714,512c-4.013,0-7.266-3.253-7.266-7.266V59.917c0-4.013,3.253-7.266,7.266-7.266
	c4.013,0,7.266,3.253,7.266,7.266v444.818C263.979,508.747,260.727,512,256.714,512z"/>
<g>
	<path style="fill:#F7B239;" d="M229.508,37.951c-1.43,0-2.862-0.545-3.952-1.638L215.09,25.848
		c-2.182-2.183-2.182-5.721,0.001-7.904c2.181-2.182,5.721-2.183,7.904,0L233.46,28.41c2.182,2.183,2.182,5.721-0.001,7.904
		C232.369,37.406,230.939,37.951,229.508,37.951z"/>
	<path style="fill:#F7B239;" d="M287.314,37.951c-1.43,0-2.862-0.545-3.951-1.636c-2.183-2.183-2.183-5.722,0-7.904l10.466-10.466
		c2.181-2.182,5.722-2.182,7.903,0c2.183,2.183,2.183,5.722,0,7.904l-10.466,10.466C290.176,37.406,288.745,37.951,287.314,37.951z"
		/>
	<path style="fill:#F7B239;" d="M314.088,66.855h-14.801c-3.087,0-5.589-2.503-5.589-5.589s2.502-5.589,5.589-5.589h14.801
		c3.087,0,5.589,2.503,5.589,5.589S317.175,66.855,314.088,66.855z"/>
	<path style="fill:#F7B239;" d="M217.537,66.855h-14.801c-3.087,0-5.589-2.503-5.589-5.589s2.502-5.589,5.589-5.589h14.801
		c3.087,0,5.589,2.503,5.589,5.589S220.624,66.855,217.537,66.855z"/>
	<path style="fill:#F7B239;" d="M258.412,25.98c-3.087,0-5.589-2.503-5.589-5.589V5.589c0-3.086,2.502-5.589,5.589-5.589
		s5.589,2.503,5.589,5.589v14.802C264.001,23.477,261.499,25.98,258.412,25.98z"/>
	<path style="fill:#F7B239;" d="M219.043,106.224c-1.43,0-2.862-0.545-3.951-1.636c-2.183-2.183-2.183-5.722,0-7.904l10.465-10.466
		c2.181-2.182,5.722-2.182,7.903,0c2.183,2.183,2.183,5.722,0,7.904l-10.465,10.466
		C221.905,105.678,220.473,106.224,219.043,106.224z"/>
	<path style="fill:#F7B239;" d="M297.781,106.224c-1.43,0-2.862-0.545-3.951-1.636l-10.466-10.466c-2.183-2.183-2.183-5.722,0-7.904
		c2.181-2.182,5.722-2.182,7.903,0l10.466,10.466c2.183,2.183,2.183,5.722,0,7.904C300.642,105.678,299.211,106.224,297.781,106.224
		z"/>
</g>
<g>
</g>
<g>
</g>
<g>
</g>
<g>
</g>
<g>
</g>
<g>
</g>
<g>
</g>
<g>
</g>
<g>
</g>
<g>
</g>
<g>
</g>
<g>
</g>
<g>
</g>
<g>
</g>
<g>
</g>
</svg>
