<?xml version="1.0" encoding="iso-8859-1"?>
<!-- Generator: Adobe Illustrator 19.0.0, SVG Export Plug-In . SVG Version: 6.00 Build 0)  -->
<svg version="1.1" id="Layer_1" xmlns="http://www.w3.org/2000/svg" xmlns:xlink="http://www.w3.org/1999/xlink" x="0px" y="0px"
	 viewBox="0 0 512 512" style="enable-background:new 0 0 512 512;" xml:space="preserve">
<path style="fill:#31AF0E;" d="M363.991,381.265c7.826,0,13.994,6.805,13.069,14.577c-0.828,6.966-2.246,13.749-4.205,20.302
	c-8.52,28.58-27.24,52.776-51.942,68.347h-0.012c-18.791-11.857-41.036-1.375-64.903-1.375s-46.113-10.482-64.903,1.375h-0.012
	c-24.702-15.571-43.422-39.767-51.942-68.347c-1.959-6.553-3.376-13.336-4.205-20.302c-0.925-7.771,5.243-14.577,13.069-14.577
	H363.991z"/>
<g>
	<path style="fill:#F7B239;" d="M256,465.781c23.867,0,46.113,6.851,64.903,18.708c-18.791,11.845-41.048,18.697-64.903,18.697
		s-46.113-6.851-64.903-18.697C209.887,472.633,232.133,465.781,256,465.781z"/>
	<path style="fill:#F7B239;" d="M365.242,168.516c26.429,40.754,19.566,94.635-16.241,127.456l-25.078,22.998
		c26.112-23.961-161.959-23.938-135.824,0.023l-25.113-23.021c-35.795-32.822-42.658-86.702-16.241-127.456L256,0L365.242,168.516z"
		/>
</g>
<path style="fill:#E54728;" d="M335.757,225.946c19.284,29.743,14.278,69.063-11.834,93.025l-19.249,17.651
	c18.65-17.157-115.999-17.145-97.337,0.012L188.1,318.994c-26.135-23.961-31.153-63.293-11.857-93.048L256,102.919L335.757,225.946z
	"/>
<path style="fill:#F7B239;" d="M313.089,270.084c13.796,21.27,10.236,49.38-8.414,66.537l-14.678,13.455
	c13.091-11.998-81.109-12.057-68.065-0.059l-14.595-13.385c-18.661-17.157-22.234-45.278-8.438-66.549l57.1-88.077L313.089,270.084z
	"/>
<path style="fill:#F95428;" d="M295.943,303.47c9.66,14.901,7.145,34.608-5.946,46.606L256,381.265l-34.068-31.247
	c-13.044-11.998-15.535-31.67-5.876-46.548L256,241.857L295.943,303.47z"/>
<path style="fill:#999999;" d="M435.21,512H76.79c-4.867,0-8.814-3.946-8.814-8.814s3.946-8.814,8.814-8.814h358.42
	c4.867,0,8.814,3.946,8.814,8.814S440.077,512,435.21,512z"/>
<path style="fill:#2F9B0B;" d="M377.061,395.841c-0.828,6.966-2.246,13.749-4.205,20.302H139.143
	c-1.959-6.553-3.376-13.336-4.205-20.302c-0.925-7.771,5.244-14.577,13.069-14.577h215.984
	C371.818,381.265,377.986,388.07,377.061,395.841z"/>
<g>
</g>
<g>
</g>
<g>
</g>
<g>
</g>
<g>
</g>
<g>
</g>
<g>
</g>
<g>
</g>
<g>
</g>
<g>
</g>
<g>
</g>
<g>
</g>
<g>
</g>
<g>
</g>
<g>
</g>
</svg>
