<?xml version="1.0" encoding="iso-8859-1"?>
<!-- Generator: Adobe Illustrator 18.0.0, SVG Export Plug-In . SVG Version: 6.00 Build 0)  -->
<!DOCTYPE svg PUBLIC "-//W3C//DTD SVG 1.1//EN" "http://www.w3.org/Graphics/SVG/1.1/DTD/svg11.dtd">
<svg version="1.1" id="Capa_1" xmlns="http://www.w3.org/2000/svg" xmlns:xlink="http://www.w3.org/1999/xlink" x="0px" y="0px"
	 viewBox="0 0 237.568 237.568" style="enable-background:new 0 0 237.568 237.568;" xml:space="preserve">
<g>
	<path d="M234.361,24.817c-2.01-1.403-4.578-1.735-6.879-0.89l-38.813,14.259c-8.335-9.042-20.268-14.719-33.504-14.719
		c-13.045,0-24.819,5.517-33.136,14.331L84.272,23.926c-1.67-0.613-3.503-0.613-5.173,0L4.914,51.183
		C1.962,52.268,0,55.079,0,58.223v148.379c0,2.451,1.198,4.748,3.208,6.15c1.276,0.891,2.778,1.35,4.293,1.35
		c0.871,0,1.747-0.152,2.586-0.46l71.599-26.307l71.603,26.307c1.669,0.613,3.502,0.613,5.173,0l74.193-27.257
		c2.952-1.084,4.914-3.895,4.914-7.04V30.966C237.568,28.515,236.371,26.219,234.361,24.817z M155.164,38.466
		c16.863,0,30.582,13.722,30.582,30.588c0,26.402-21.39,46.298-30.582,53.628c-9.192-7.33-30.582-27.227-30.582-53.628
		C124.582,52.188,138.301,38.466,155.164,38.466z M222.568,174.11l-66.693,24.501l-71.603-26.307c-1.67-0.613-3.503-0.613-5.173,0
		L15,195.857V63.458l66.686-24.501l31.796,11.682c-2.5,5.636-3.9,11.863-3.9,18.416c0,35.892,29.538,60.518,38.793,67.354v37.737
		c0,4.142,3.358,7.5,7.5,7.5c4.142,0,7.5-3.358,7.5-7.5v-38.809c10.523-8.084,37.371-32.062,37.371-66.282
		c0-6.377-1.321-12.451-3.696-17.968l25.519-9.375V174.11z"/>
	<path d="M81.686,55.924c-4.142,0-7.5,3.358-7.5,7.5v83.463c0,4.142,3.358,7.5,7.5,7.5c4.142,0,7.5-3.358,7.5-7.5V63.424
		C89.186,59.282,85.828,55.924,81.686,55.924z"/>
</g>
<g>
</g>
<g>
</g>
<g>
</g>
<g>
</g>
<g>
</g>
<g>
</g>
<g>
</g>
<g>
</g>
<g>
</g>
<g>
</g>
<g>
</g>
<g>
</g>
<g>
</g>
<g>
</g>
<g>
</g>
</svg>
