<?xml version="1.0" encoding="iso-8859-1"?>
<!-- Generator: Adobe Illustrator 19.0.0, SVG Export Plug-In . SVG Version: 6.00 Build 0)  -->
<svg version="1.1" id="Layer_1" xmlns="http://www.w3.org/2000/svg" xmlns:xlink="http://www.w3.org/1999/xlink" x="0px" y="0px"
	 viewBox="0 0 512 512" style="enable-background:new 0 0 512 512;" xml:space="preserve">
<circle style="fill:#E6E5E5;" cx="256" cy="256" r="256"/>
<path style="fill:#FFFFFF;" d="M456,156v200c0,6.6-5.4,12-12,12H68c-6.6,0-12-5.4-12-12V156c0-6.6,5.4-12,12-12h376
	C450.6,144,456,149.4,456,156z"/>
<rect x="88" y="156" style="fill:#232323;" width="320" height="200"/>
<g>
	<path style="fill:#CCCBCA;" d="M76,232.208v48c0,2.2-1.8,4-4,4l0,0c-2.2,0-4-1.8-4-4v-48c0-2.2,1.8-4,4-4l0,0
		C74.2,228.208,76,230.008,76,232.208z"/>
	<path style="fill:#CCCBCA;" d="M432,232v48c0,2.2-1.8,4-4,4l0,0c-2.2,0-4-1.8-4-4v-48c0-2.2,1.8-4,4-4l0,0
		C430.2,228,432,229.8,432,232z"/>
</g>
<g>
	<path style="fill:#DB2B42;" d="M156.136,275.736l-15.272-11.544l-15.28,11.544l5.832-18.672L116.2,245.576h18.808l5.848-18.712
		l5.848,18.712h18.808l-15.216,11.488L156.136,275.736z"/>
	<path style="fill:#DB2B42;" d="M208.744,275.736l-15.272-11.544l-15.28,11.544l5.832-18.672l-15.216-11.488h18.808l5.848-18.712
		l5.848,18.712h18.808l-15.216,11.488L208.744,275.736z"/>
	<path style="fill:#DB2B42;" d="M261.352,275.736l-15.272-11.544l-15.28,11.544l5.832-18.672l-15.216-11.488h18.808l5.848-18.712
		l5.848,18.712h18.808l-15.216,11.488L261.352,275.736z"/>
	<path style="fill:#DB2B42;" d="M313.96,275.736l-15.272-11.544l-15.28,11.544l5.832-18.672l-15.216-11.488h18.808l5.848-18.712
		l5.848,18.712h18.808l-15.216,11.488L313.96,275.736z"/>
	<path style="fill:#DB2B42;" d="M366.568,275.736l-15.272-11.544l-15.28,11.544l5.832-18.672l-15.216-11.488h18.808l5.848-18.712
		l5.848,18.712h18.808l-15.216,11.488L366.568,275.736z"/>
</g>
<g>
</g>
<g>
</g>
<g>
</g>
<g>
</g>
<g>
</g>
<g>
</g>
<g>
</g>
<g>
</g>
<g>
</g>
<g>
</g>
<g>
</g>
<g>
</g>
<g>
</g>
<g>
</g>
<g>
</g>
</svg>
