<?xml version="1.0" encoding="iso-8859-1"?>
<!-- Generator: Adobe Illustrator 19.0.0, SVG Export Plug-In . SVG Version: 6.00 Build 0)  -->
<svg version="1.1" id="Layer_1" xmlns="http://www.w3.org/2000/svg" xmlns:xlink="http://www.w3.org/1999/xlink" x="0px" y="0px"
	 viewBox="0 0 490 490" style="enable-background:new 0 0 490 490;" xml:space="preserve">
<g>
	<g>
		<path d="M470,60H10C4.477,60,0,64.477,0,70v330c0,16.542,13.458,30,30,30h310c16.542,0,30-13.458,30-30v-80h100
			c11.028,0,20-8.972,20-20V80C490,68.972,481.028,60,470,60z M20,80h65v40H20V80z M75,215v-15h40v90H75v-55h25v-20H75z M350,400
			c0,5.514-4.486,10-10,10H30c-5.514,0-10-4.486-10-10V140h65v40H65c-5.523,0-10,4.477-10,10v110c0,5.523,4.477,10,10,10h60
			c5.523,0,10-4.477,10-10V190c0-5.523-4.477-10-10-10h-20v-40h245V400z M350,120H105V80h245V120z M370,120h60v140h-60V120z
			 M470,300H370v-20h70c5.522,0,10-4.477,10-10V110c0-5.523-4.478-10-10-10h-70V80h100V300z"/>
	</g>
</g>
<g>
</g>
<g>
</g>
<g>
</g>
<g>
</g>
<g>
</g>
<g>
</g>
<g>
</g>
<g>
</g>
<g>
</g>
<g>
</g>
<g>
</g>
<g>
</g>
<g>
</g>
<g>
</g>
<g>
</g>
</svg>
