<?xml version="1.0" encoding="iso-8859-1"?>
<!-- Generator: Adobe Illustrator 19.0.0, SVG Export Plug-In . SVG Version: 6.00 Build 0)  -->
<svg version="1.1" id="Layer_1" xmlns="http://www.w3.org/2000/svg" xmlns:xlink="http://www.w3.org/1999/xlink" x="0px" y="0px"
	 viewBox="0 0 512 512" style="enable-background:new 0 0 512 512;" xml:space="preserve">
<path style="fill:#FF5050;" d="M452.676,8.017H331.745c-13.607,0-26.657,5.405-36.279,15.028l-282.44,282.44
	c-6.68,6.678-6.68,17.507,0,24.186L182.33,498.974c6.68,6.68,17.507,6.68,24.186,0l282.439-282.439
	c9.622-9.622,15.028-22.672,15.028-36.279V59.324C503.983,30.987,481.013,8.017,452.676,8.017z M464.769,71.417
	c-6.678,6.68-17.507,6.68-24.186,0c-6.68-6.678-6.68-17.507,0-24.186c6.678-6.678,17.507-6.678,24.186,0
	C471.448,53.91,471.448,64.739,464.769,71.417z"/>
<path d="M452.676,0H331.745c-15.846,0-30.743,6.17-41.948,17.375L7.357,299.815C2.612,304.56,0,310.867,0,317.577
	c0,6.709,2.613,13.018,7.357,17.762L176.66,504.642c4.745,4.745,11.052,7.358,17.762,7.358s13.018-2.612,17.762-7.357
	l282.439-282.439C505.829,210.997,512,196.1,512,180.255V59.324C512,26.612,485.388,0,452.676,0z M495.967,180.255
	c0,11.563-4.503,22.434-12.679,30.611l-282.44,282.44c-1.716,1.716-3.998,2.66-6.424,2.66c-2.426,0-4.707-0.945-6.424-2.66v-0.001
	L18.695,324.001c-1.716-1.716-2.662-3.997-2.662-6.424c0-2.427,0.945-4.708,2.662-6.425l282.439-282.44
	c8.176-8.175,19.047-12.678,30.611-12.678h120.931c23.871,0,43.29,19.42,43.29,43.29V180.255z"/>
<path d="M470.438,41.562c-4.745-4.745-11.052-7.357-17.762-7.357c-6.709,0-13.018,2.612-17.762,7.357
	c-4.744,4.744-7.357,11.052-7.357,17.762s2.613,13.018,7.357,17.761c4.744,4.746,11.052,7.358,17.762,7.358
	c6.709,0,13.018-2.612,17.762-7.357c4.744-4.744,7.357-11.052,7.357-17.762C477.795,52.615,475.183,46.307,470.438,41.562
	C470.438,41.563,470.438,41.563,470.438,41.562z M459.1,65.749c-1.716,1.716-3.998,2.66-6.424,2.66
	c-2.426,0-4.708-0.945-6.424-2.662c-1.716-1.716-2.662-3.997-2.662-6.424c0-2.427,0.945-4.707,2.662-6.425
	c1.716-1.716,3.998-2.66,6.424-2.66c2.426,0,4.708,0.945,6.424,2.66V52.9c1.716,1.716,2.662,3.997,2.662,6.424
	C461.762,61.751,460.817,64.031,459.1,65.749z"/>
<path d="M273.102,119.716c-4.427,0-8.017,3.588-8.017,8.017v222.33c0,4.428,3.589,8.017,8.017,8.017
	c4.427,0,8.017-3.588,8.017-8.017v-222.33C281.119,123.304,277.53,119.716,273.102,119.716z"/>
<path d="M196.142,196.676c-23.281,0-42.221,18.941-42.221,42.221s18.941,42.221,42.221,42.221s42.221-18.941,42.221-42.221
	S219.422,196.676,196.142,196.676z M196.142,265.086c-14.44,0-26.188-11.747-26.188-26.188c0-14.441,11.748-26.188,26.188-26.188
	s26.188,11.747,26.188,26.188C222.33,253.338,210.582,265.086,196.142,265.086z"/>
<path d="M350.063,196.676c-23.28,0-42.221,18.941-42.221,42.221s18.941,42.221,42.221,42.221s42.221-18.941,42.221-42.221
	S373.343,196.676,350.063,196.676z M350.063,265.086c-14.44,0-26.188-11.747-26.188-26.188c0-14.441,11.748-26.188,26.188-26.188
	s26.188,11.747,26.188,26.188C376.251,253.338,364.502,265.086,350.063,265.086z"/>
<g>
</g>
<g>
</g>
<g>
</g>
<g>
</g>
<g>
</g>
<g>
</g>
<g>
</g>
<g>
</g>
<g>
</g>
<g>
</g>
<g>
</g>
<g>
</g>
<g>
</g>
<g>
</g>
<g>
</g>
</svg>
