<?xml version="1.0" encoding="iso-8859-1"?>
<!-- Generator: Adobe Illustrator 19.0.0, SVG Export Plug-In . SVG Version: 6.00 Build 0)  -->
<svg version="1.1" id="Layer_1" xmlns="http://www.w3.org/2000/svg" xmlns:xlink="http://www.w3.org/1999/xlink" x="0px" y="0px"
	 viewBox="0 0 512 512" style="enable-background:new 0 0 512 512;" xml:space="preserve">
<g>
	<g>
		<path d="M451.351,314.576c-7.524-10.542-20.192-16.242-33.051-14.874c-8.602,0.915-17.381,1.26-26.084,1.029
			c-104.746-2.794-188.127-87.064-189.821-191.85c-0.23-14.211,1.077-28.417,3.88-42.223c2.593-12.761-1.901-25.993-11.729-34.534
			c-9.787-8.507-23.456-11.106-35.678-6.779C62.535,59.46-1.301,151.09,0.02,253.356c0.811,62.745,25.989,121.771,70.897,166.204
			c44.901,44.429,104.191,68.988,166.945,69.154c0.215,0.001,0.425,0.001,0.64,0.001c46.152-0.001,90.92-13.2,129.499-38.193
			c37.725-24.436,67.698-58.833,86.683-99.472C460.224,339.195,458.946,325.219,451.351,314.576z M238.489,445.351
			c-0.166,0-0.347,0-0.512-0.001C132.044,445.071,44.75,358.691,43.382,252.795c-1.026-79.434,45.974-151.022,118.159-181.96
			c-1.873,12.784-2.715,25.769-2.505,38.746c0.995,61.546,25.526,119.681,69.073,163.697
			c43.551,44.018,101.423,69.163,162.953,70.803c6.213,0.163,12.457,0.088,18.677-0.227
			C375.693,405.94,309.826,445.351,238.489,445.351z"/>
	</g>
</g>
<g>
	<g>
		<path d="M492.632,59.806c-25.549-25.549-67.12-25.551-92.671,0l-6.814,6.814l-6.814-6.814c-25.552-25.551-67.122-25.549-92.671,0
			c-26.187,26.187-25.462,67.208,0,92.671l99.485,99.486l99.485-99.486C518.094,127.014,518.817,85.991,492.632,59.806z
			 M461.968,121.813l-68.821,68.821l-68.821-68.821c-8.643-8.643-8.643-22.703,0-31.346c8.341-8.34,22.174-9.172,31.346,0
			l37.477,37.479l37.477-37.479c9.17-9.172,23.005-8.34,31.344,0C470.61,99.11,470.61,113.172,461.968,121.813z"/>
	</g>
</g>
<g>
</g>
<g>
</g>
<g>
</g>
<g>
</g>
<g>
</g>
<g>
</g>
<g>
</g>
<g>
</g>
<g>
</g>
<g>
</g>
<g>
</g>
<g>
</g>
<g>
</g>
<g>
</g>
<g>
</g>
</svg>
