<?xml version="1.0" encoding="iso-8859-1"?>
<!-- Generator: Adobe Illustrator 19.0.0, SVG Export Plug-In . SVG Version: 6.00 Build 0)  -->
<svg version="1.1" id="Layer_1" xmlns="http://www.w3.org/2000/svg" xmlns:xlink="http://www.w3.org/1999/xlink" x="0px" y="0px"
	 viewBox="0 0 512 512" style="enable-background:new 0 0 512 512;" xml:space="preserve">
<g>
	<g>
		<path d="M209.246,110.703l-38.792-38.792c-19.601-19.603-45.665-30.398-73.386-30.398H0v428.973h512V110.703H209.246z
			 M470.487,428.973H41.513V83.027H97.07c16.633,0,32.27,6.477,44.032,18.238l50.95,50.951h278.435V428.973z"/>
	</g>
</g>
<g>
	<g>
		<path d="M351.07,212.104c-24.458-24.458-64.255-24.46-88.714,0l-6.523,6.523l-6.523-6.523c-24.461-24.46-64.256-24.458-88.714,0
			c-25.069,25.069-24.375,64.339,0,88.714l95.238,95.239l95.238-95.239C375.445,276.443,376.139,237.171,351.07,212.104z
			 M321.716,271.464l-65.883,65.883l-65.883-65.883c-8.274-8.274-8.274-21.734,0-30.007c7.984-7.984,21.227-8.78,30.007,0
			l35.877,35.879l35.877-35.879c8.779-8.78,22.023-7.984,30.007,0C329.988,249.73,329.988,263.191,321.716,271.464z"/>
	</g>
</g>
<g>
</g>
<g>
</g>
<g>
</g>
<g>
</g>
<g>
</g>
<g>
</g>
<g>
</g>
<g>
</g>
<g>
</g>
<g>
</g>
<g>
</g>
<g>
</g>
<g>
</g>
<g>
</g>
<g>
</g>
</svg>
