<?xml version="1.0" encoding="iso-8859-1"?>
<!-- Generator: Adobe Illustrator 19.0.0, SVG Export Plug-In . SVG Version: 6.00 Build 0)  -->
<svg version="1.1" id="Layer_1" xmlns="http://www.w3.org/2000/svg" xmlns:xlink="http://www.w3.org/1999/xlink" x="0px" y="0px"
	 viewBox="0 0 512 512" style="enable-background:new 0 0 512 512;" xml:space="preserve">
<g>
	<g>
		<path d="M178.526,343.579V134.737H57.263v208.842c0,26.348,16.897,48.812,40.421,57.155v70.845H57.263V512h121.263v-40.421
			h-40.421v-70.845C161.629,392.391,178.526,369.927,178.526,343.579z M97.684,175.158h40.421v40.421H97.684V175.158z
			 M117.895,363.789c-11.144,0-20.211-9.065-20.211-20.211V256h40.421v87.579C138.105,354.724,129.039,363.789,117.895,363.789z"/>
	</g>
</g>
<g>
	<g>
		<path d="M432.593,241.442l-27.322-34.154c-2.856-3.569-4.429-8.053-4.429-12.625V0H279.579v194.664
			c0,4.573-1.572,9.056-4.429,12.626l-27.322,34.153c-14.279,17.849-22.144,40.269-22.144,63.127V512h229.053V304.569
			C454.737,281.711,446.872,259.29,432.593,241.442z M306.712,232.54C315.282,221.832,320,208.379,320,194.664V40.421h40.421
			v154.243c0,13.716,4.719,27.168,13.286,37.876l3.796,4.744l-37.292,37.292l-37.292-37.292L306.712,232.54z M414.316,471.579
			H266.105v-167.01c0-12.708,4.057-25.185,11.466-35.468l62.639,62.639L402.85,269.1c7.409,10.283,11.466,22.76,11.466,35.468
			V471.579z"/>
	</g>
</g>
<g>
	<g>
		<rect x="306.526" y="377.263" width="67.368" height="40.421"/>
	</g>
</g>
<g>
</g>
<g>
</g>
<g>
</g>
<g>
</g>
<g>
</g>
<g>
</g>
<g>
</g>
<g>
</g>
<g>
</g>
<g>
</g>
<g>
</g>
<g>
</g>
<g>
</g>
<g>
</g>
<g>
</g>
</svg>
