<?xml version="1.0" encoding="iso-8859-1"?>
<!-- Generator: Adobe Illustrator 19.0.0, SVG Export Plug-In . SVG Version: 6.00 Build 0)  -->
<svg version="1.1" id="Layer_1" xmlns="http://www.w3.org/2000/svg" xmlns:xlink="http://www.w3.org/1999/xlink" x="0px" y="0px"
	 viewBox="0 0 491.52 491.52" style="enable-background:new 0 0 491.52 491.52;" xml:space="preserve">
<g>
	<g>
		<path d="M0,0v491.52h491.52V0H0z M471.04,471.04H20.48V102.4h450.56V471.04z M471.04,81.92H20.48V20.48h450.56V81.92z"/>
	</g>
</g>
<g>
	<g>
		<rect x="430.08" y="40.96" width="20.48" height="20.48"/>
	</g>
</g>
<g>
	<g>
		<rect x="389.12" y="40.96" width="20.48" height="20.48"/>
	</g>
</g>
<g>
	<g>
		<rect x="348.16" y="40.96" width="20.48" height="20.48"/>
	</g>
</g>
<g>
	<g>
		<rect x="51.2" y="40.96" width="245.76" height="20.48"/>
	</g>
</g>
<g>
	<g>
		<polygon points="306.63,229.62 223.06,313.2 184.89,275.03 170.41,289.51 223.06,342.16 321.11,244.1 		"/>
	</g>
</g>
<g>
	<g>
		<path d="M245.76,143.36c-79.05,0-143.36,64.31-143.36,143.36s64.31,143.36,143.36,143.36s143.36-64.31,143.36-143.36
			S324.81,143.36,245.76,143.36z M245.76,409.6c-67.76,0-122.88-55.12-122.88-122.88c0-67.76,55.12-122.88,122.88-122.88
			s122.88,55.12,122.88,122.88C368.64,354.48,313.52,409.6,245.76,409.6z"/>
	</g>
</g>
<g>
</g>
<g>
</g>
<g>
</g>
<g>
</g>
<g>
</g>
<g>
</g>
<g>
</g>
<g>
</g>
<g>
</g>
<g>
</g>
<g>
</g>
<g>
</g>
<g>
</g>
<g>
</g>
<g>
</g>
</svg>
