<?xml version='1.0' encoding='iso-8859-1'?>
<!DOCTYPE svg PUBLIC '-//W3C//DTD SVG 1.1//EN' 'http://www.w3.org/Graphics/SVG/1.1/DTD/svg11.dtd'>
<svg version="1.1" xmlns="http://www.w3.org/2000/svg" viewBox="0 0 315 315" xmlns:xlink="http://www.w3.org/1999/xlink" enable-background="new 0 0 315 315">
  <path d="m301.948,243.582h-24.065c-2.014-5.318-6.237-9.543-11.556-11.556v-172.418c0-22.021-17.915-39.937-39.937-39.937h-59.792c-22.021,0-39.938,17.915-39.938,39.937v97.888c-9.545,2.687-16.868,10.717-18.522,20.646-3.631,0.446-7.328,1.001-11.064,1.664-0.557,0.038-1.098,0.135-1.61,0.296-44.713,8.273-94.123,31.364-95.455,58.099-0.006,0.116-0.009,0.233-0.009,0.349v14.058c0,26.062 12.447,37.476 41.62,38.166 0.056,0.001 0.11,0.002 0.166,0.002h67.063c0.637,0 1.251-0.093 1.838-0.252 5.432,3.054 11.691,4.805 18.353,4.805 6.493,0 12.606-1.656 17.94-4.568 30.201-0.316 43.701-11.989 43.701-37.745l-.002-25.692c0-0.044 0-0.088-0.001-0.133-0.422-22.061-11.445-37.631-31.146-45.174-0.175-11.672-8.112-21.492-18.871-24.52v-97.889c0-14.302 11.636-25.936 25.938-25.936h59.792c14.302,0 25.937,11.635 25.937,25.936v172.418c-5.317,2.013-9.542,6.237-11.556,11.556h-24.065c-7.197,0-13.053,5.855-13.053,13.052v21.09c0,7.196 5.855,13.052 13.053,13.052h85.242c7.196,0 13.052-5.855 13.052-13.052v-21.09c-0.001-7.196-5.857-13.052-13.053-13.052zm-250.131-35.825c11.411-4.96 24.042-9.026 36.614-11.935-4.676,12.836-16.866,32.263-34.466,32.263h-34.184c6.368-6.808 17.627-14.065 32.036-20.328zm53.647,49.996c0-12.999 10.576-23.574 23.575-23.574 12.999,0 23.575,10.575 23.575,23.574 0,12.999-10.576,23.575-23.575,23.575-12.999,0-23.575-10.576-23.575-23.575zm71.215-30.36l.002,25.623c0,11.566-2.593,18.948-14.314,22.06 2.708-5.188 4.248-11.077 4.248-17.322 0-20.719-16.857-37.574-37.575-37.574-20.719,0-37.575,16.855-37.575,37.574 0,6.939 1.897,13.439 5.19,19.022h-54.785c-19.272-0.466-27.87-4.083-27.87-24.169v-10.522h39.966c29.273,0 46.257-31.946 49.864-49.244 8.026-1.237 15.804-1.929 22.976-1.989l1.039-.003c21.943-2.84217e-14 48.218,6.344 48.834,36.544zm-31.947-49.263c-5.237-0.846-10.877-1.281-16.907-1.281l-1.098,.003c-1.183,0.01-2.386,0.041-3.6,0.082 1.983-3.802 5.957-6.407 10.533-6.407 5.043-0.001 9.35,3.162 11.072,7.603zm114.595,66.597c3.228,0 5.854,2.626 5.854,5.855 0,3.228-2.626,5.853-5.854,5.853-3.228,0-5.854-2.626-5.854-5.853 0.001-3.228 2.627-5.855 5.854-5.855zm41.673,32.048h-83.347v-19.193h23.119c2.839,7.498 10.074,12.853 18.555,12.853 8.48,0 15.716-5.355 18.555-12.853h23.118v19.193z"/>
</svg>
