<?xml version="1.0" encoding="iso-8859-1"?>
<!-- Generator: Adobe Illustrator 19.0.0, SVG Export Plug-In . SVG Version: 6.00 Build 0)  -->
<svg version="1.1" id="Layer_1" xmlns="http://www.w3.org/2000/svg" xmlns:xlink="http://www.w3.org/1999/xlink" x="0px" y="0px"
	 viewBox="0 0 511.671 511.671" style="enable-background:new 0 0 511.671 511.671;" xml:space="preserve">
<path style="fill:#656D78;" d="M511.671,122.542c0-5.887-4.777-10.649-10.664-10.649c-2.077,0-4.029,0.609-5.669,1.64
	c-8.026,4.263-100.467,51.67-239.526,51.67c-75.444,0-136.678-14.116-174.763-25.968c-36.25-11.273-58.985-22.688-64.185-25.405
	c-1.749-1.249-3.888-1.999-6.199-1.999C4.778,111.831,0,116.609,0,122.496c0,3.982,2.186,7.449,5.418,9.275l-0.047,0.094
	c1.015,0.562,25.444,14.022,68.644,27.514c39.631,12.383,103.332,27.154,181.797,27.154c78.473,0,142.183-14.771,181.813-27.154
	c43.19-13.491,67.612-26.951,68.644-27.514l-0.031-0.031C509.485,130.006,511.671,126.54,511.671,122.542z"/>
<g>
	<rect x="85.195" y="197.196" style="fill:#A0D468;" width="127.97" height="213.26"/>
	<rect x="298.465" y="197.196" style="fill:#A0D468;" width="127.98" height="213.26"/>
</g>
<g>
	<path style="fill:#8CC153;" d="M383.784,303.84c0,11.774-9.557,21.33-21.33,21.33s-21.33-9.556-21.33-21.33
		c0-11.773,9.557-21.33,21.33-21.33S383.784,292.066,383.784,303.84z"/>
	<path style="fill:#8CC153;" d="M298.464,197.197V410.46h127.98V197.197H298.464z M405.114,389.13h-85.32V218.527h85.32V389.13z"/>
	<path style="fill:#8CC153;" d="M85.194,410.46h127.965V197.197H85.194V410.46z M106.517,218.527h85.312V389.13h-85.312
		C106.517,389.13,106.517,218.527,106.517,218.527z"/>
</g>
<path style="fill:#FC6E51;" d="M330.459,101.212v138.63c0,5.902,4.778,10.665,10.665,10.665c5.902,0,10.665-4.763,10.665-10.665
	c0,5.902,4.778,10.665,10.665,10.665s10.665-4.763,10.665-10.665c0,5.902,4.763,10.665,10.665,10.665
	c5.887,0,10.666-4.763,10.666-10.665v-138.63C394.45,101.212,330.459,101.212,330.459,101.212z"/>
<rect x="330.475" y="154.536" style="fill:#E9573F;" width="63.976" height="21.33"/>
<path style="fill:#8CC153;" d="M170.507,303.84c0,11.774-9.548,21.33-21.33,21.33c-11.781,0-21.33-9.556-21.33-21.33
	c0-11.773,9.549-21.33,21.33-21.33C160.959,282.51,170.507,292.066,170.507,303.84z"/>
<path style="fill:#FC6E51;" d="M117.182,101.212v138.63c0,5.902,4.778,10.665,10.665,10.665c5.895,0,10.665-4.763,10.665-10.665
	c0,5.902,4.778,10.665,10.665,10.665s10.665-4.763,10.665-10.665c0,5.902,4.778,10.665,10.665,10.665s10.665-4.763,10.665-10.665
	v-138.63C181.172,101.212,117.182,101.212,117.182,101.212z"/>
<rect x="117.185" y="154.536" style="fill:#E9573F;" width="63.99" height="21.33"/>
<g>
</g>
<g>
</g>
<g>
</g>
<g>
</g>
<g>
</g>
<g>
</g>
<g>
</g>
<g>
</g>
<g>
</g>
<g>
</g>
<g>
</g>
<g>
</g>
<g>
</g>
<g>
</g>
<g>
</g>
</svg>
