<?xml version="1.0" encoding="iso-8859-1"?>
<!-- Generator: Adobe Illustrator 19.0.0, SVG Export Plug-In . SVG Version: 6.00 Build 0)  -->
<svg version="1.1" id="Layer_1" xmlns="http://www.w3.org/2000/svg" xmlns:xlink="http://www.w3.org/1999/xlink" x="0px" y="0px"
	 viewBox="0 0 512 512" style="enable-background:new 0 0 512 512;" xml:space="preserve">
<g>
	<g>
		<path d="M256,0c-56.144,0-100,45.676-100,101.82v80.352c0,7.984,6.016,14.48,14,14.48s14-6.496,14-14.48V101.82
			c0-40.172,31.828-72.856,72-72.856s72,32.684,72,72.856v80.352c0,7.984,6.016,14.48,14,14.48s14-6.496,14-14.48V101.82
			C356,45.676,312.14,0,256,0z"/>
	</g>
</g>
<g>
	<g>
		<path d="M424.184,119.724c-0.156-2.084-1.896-3.724-3.988-3.724H91.808c-2.092,0-3.836,1.64-3.992,3.724l-24.452,348.16
			c-0.084,1.108,0.296,2.108,1.056,2.928c0.756,0.816,1.82,1.188,2.936,1.188h84.032c0.096,0,0.184,0.064,0.28,0.056
			c-7.908-15.676-12.388-33.328-12.388-52.084c0-64.064,51.928-115.968,115.992-115.968c64.068,0,115.996,51.94,115.996,116
			c0,18.736-4.468,36.328-12.36,51.992c0.188,0.028,0.368,0,0.564,0h85.176c1.112,0,2.176-0.368,2.932-1.184
			c0.756-0.82,1.14-1.876,1.056-2.984L424.184,119.724z M168.66,217.616c-19.54,0-35.436-15.9-35.436-35.444
			c0-14.996,9.492-28.424,23.624-33.424c2.08-0.732,4.368,0.356,5.104,2.44c0.16,0.46,0.204,0.928,0.2,1.388l13.844,0.192
			c0.004-0.46,0.06-0.924,0.236-1.384c0.796-2.064,3.104-3.092,5.172-2.296c13.584,5.236,22.708,18.532,22.708,33.084
			C204.108,201.716,188.208,217.616,168.66,217.616z M343.34,217.616c-19.548,0-35.444-15.9-35.444-35.444
			c0-14.996,9.492-28.424,23.624-33.424c2.08-0.732,4.368,0.356,5.108,2.44c0.16,0.46,0.204,0.928,0.196,1.388l13.848,0.192
			c0.004-0.46,0.06-0.928,0.24-1.384c0.796-2.064,3.12-3.084,5.172-2.296c13.58,5.244,22.7,18.536,22.7,33.084
			C378.78,201.716,362.884,217.616,343.34,217.616z"/>
	</g>
</g>
<g>
	<g>
		<path d="M255.272,328.04c-50.8,0-91.98,41.18-91.98,91.98c0,50.8,41.18,91.98,91.98,91.98c50.804,0,91.984-41.18,91.984-91.98
			C347.256,369.224,306.08,328.04,255.272,328.04z M307.088,432H203.292c-6.584,0-11.936-5.416-11.936-12
			c0-6.584,5.352-12,11.936-12h103.796c6.584,0,11.936,5.416,11.936,12C319.024,426.584,313.672,432,307.088,432z"/>
	</g>
</g>
<g>
</g>
<g>
</g>
<g>
</g>
<g>
</g>
<g>
</g>
<g>
</g>
<g>
</g>
<g>
</g>
<g>
</g>
<g>
</g>
<g>
</g>
<g>
</g>
<g>
</g>
<g>
</g>
<g>
</g>
</svg>
