<?xml version="1.0" encoding="iso-8859-1"?>
<!-- Generator: Adobe Illustrator 19.0.0, SVG Export Plug-In . SVG Version: 6.00 Build 0)  -->
<svg version="1.1" id="Layer_1" xmlns="http://www.w3.org/2000/svg" xmlns:xlink="http://www.w3.org/1999/xlink" x="0px" y="0px"
	 viewBox="0 0 512.076 512.076" style="enable-background:new 0 0 512.076 512.076;" xml:space="preserve">
<g>
	<g>
		<path d="M254.994,0c-24.132,0-43.76,19.632-43.76,43.76c0,24.132,19.628,43.76,43.76,43.76c24.132,0,43.76-19.628,43.76-43.76
			C298.758,19.636,279.126,0,254.994,0z"/>
	</g>
</g>
<g>
	<g>
		<path d="M450.77,236.08h-14.7c-10.328-32-31.716-63.328-55.716-86.704v-72.94c0-2.208-2.28-3.996-4.492-3.996
			c-27.148,0-50.76,16.548-60.768,40.084c-19.136-6.352-39.26-9.572-59.64-9.572c-67.568,0-127,35.664-160.42,89.132
			c-0.236,0.288-0.528,0.536-0.74,0.844c-3.532,5.224-9.4,8.34-15.688,8.34c-10.416,0-18.892-8.472-18.892-18.888
			c0-8.1,5.144-15.288,12.804-17.892c6.276-2.132,9.636-8.94,7.504-15.212c-2.124-6.272-8.936-9.632-15.216-7.504
			c-17.396,5.908-29.088,22.224-29.088,40.604c0,23.616,19.192,42.828,42.792,42.868C70.646,246,65.65,268.48,65.65,291.964
			c0,59.1,26.704,115.4,74.704,151.012v44.244c0,13.544,12.344,24.856,25.884,24.856h17.14c13.536,0,24.976-11.312,24.976-24.856
			v-12.292c32,8.032,64,8.032,92,0v12.292c0,13.544,13.388,24.856,26.924,24.856h17.128c13.54,0,23.944-11.312,23.944-24.856
			v-44.244c32.004-23.98,56.132-58.896,67.724-94.896h14.7c13.54,0,25.584-11.88,25.584-25.42v-61.384
			C476.354,247.736,464.31,236.08,450.77,236.08z M333.446,259.86c-14.296,0-25.884-11.592-25.884-25.892
			c0-14.292,11.584-25.884,25.884-25.884c14.3,0,25.892,11.588,25.892,25.884C359.338,248.268,347.746,259.86,333.446,259.86z"/>
	</g>
</g>
<g>
</g>
<g>
</g>
<g>
</g>
<g>
</g>
<g>
</g>
<g>
</g>
<g>
</g>
<g>
</g>
<g>
</g>
<g>
</g>
<g>
</g>
<g>
</g>
<g>
</g>
<g>
</g>
<g>
</g>
</svg>
