<?xml version="1.0" encoding="iso-8859-1"?>
<!-- Generator: Adobe Illustrator 17.1.0, SVG Export Plug-In . SVG Version: 6.00 Build 0)  -->
<!DOCTYPE svg PUBLIC "-//W3C//DTD SVG 1.1//EN" "http://www.w3.org/Graphics/SVG/1.1/DTD/svg11.dtd">
<svg version="1.1" id="Capa_1" xmlns="http://www.w3.org/2000/svg" xmlns:xlink="http://www.w3.org/1999/xlink" x="0px" y="0px"
	 viewBox="0 0 458.002 458.002" style="enable-background:new 0 0 458.002 458.002;" xml:space="preserve">
<path d="M69.537,358.904c-5.522,0-10-4.478-10-10v-21.538H20v21.538c0,5.522-4.478,10-10,10s-10-4.478-10-10V109.098
	c0-5.522,4.478-10,10-10s10,4.478,10,10v21.537l39.537,0.001v-21.538c0-5.522,4.478-10,10-10c0.067,0,0.135,0.001,0.201,0.002h22.05
	c38.88,0,54.359,60.793,70.748,125.154c12.488,49.048,28.031,110.09,51.366,110.09h22.247c5.522,0,10,4.478,10,10s-4.478,10-10,10
	h-22.247c-38.88,0-54.359-60.793-70.748-125.154c-12.488-49.048-28.031-110.09-51.366-110.09H79.537v229.805
	C79.537,354.427,75.06,358.904,69.537,358.904z M20,307.366h39.537v-24.18L20,283.186V307.366z M20,263.186l39.537,0.001v-24.183H20
	V263.186z M20,219.004h39.537V194.82H20V219.004z M20,174.82h39.537v-24.185L20,150.635V174.82z M360.403,354.811h-89.358
	c-5.522,0-10-4.478-10-10s4.478-10,10-10h89.358c42.788,0,77.599-34.812,77.599-77.602c0-42.789-34.811-77.601-77.599-77.601H177.75
	c-5.522,0-10-4.478-10-10s4.478-10,10-10h182.653c53.816,0,97.599,43.783,97.599,97.601S414.22,354.811,360.403,354.811z
	 M151.58,354.811H97.601c-5.522,0-10-4.478-10-10s4.478-10,10-10h53.979c5.522,0,10,4.478,10,10S157.103,354.811,151.58,354.811z
	 M264.578,302.549c-0.897,0-1.793-0.031-2.688-0.096c-9.726-0.701-18.218-5.124-23.913-12.455c-0.006-0.007-0.011-0.014-0.017-0.021
	c-2.8-3.61-6.667-4.604-9.419-4.804c-5.482-0.394-11.562,1.918-15.84,6.041c-3.977,3.832-10.306,3.716-14.14-0.261
	c-3.833-3.977-3.716-10.307,0.261-14.14c8.363-8.062,20.018-12.388,31.159-11.589c9.61,0.694,18.044,5.118,23.754,12.458
	c0.01,0.012,0.019,0.024,0.028,0.036c2.781,3.586,6.736,4.581,9.563,4.785c5.416,0.392,11.306-1.789,15.352-5.689
	c8.361-8.061,20.005-12.39,31.158-11.59c9.629,0.694,18.077,5.132,23.788,12.495c0.005,0.006,0.009,0.011,0.014,0.017
	c2.78,3.571,6.726,4.563,9.548,4.768c5.426,0.391,11.306-1.789,15.352-5.689c8.361-8.061,20.017-12.389,31.154-11.59
	c9.629,0.694,18.077,5.132,23.788,12.495c3.385,4.363,2.592,10.646-1.772,14.03s-10.646,2.592-14.03-1.772
	c-2.802-3.611-6.671-4.606-9.423-4.805c-5.498-0.399-11.562,1.918-15.836,6.04c-8.129,7.837-19.604,12.037-30.67,11.239
	c-9.734-0.702-18.231-5.132-23.927-12.475c-0.002-0.003-0.005-0.006-0.007-0.009c-2.801-3.604-6.666-4.598-9.417-4.796
	c-5.484-0.396-11.563,1.919-15.839,6.04C285.088,298.417,274.796,302.549,264.578,302.549z M121.834,296.501h-17.5
	c-5.522,0-10-4.478-10-10s4.478-10,10-10h17.5c5.522,0,10,4.478,10,10S127.356,296.501,121.834,296.501z M252.365,253.383
	c-0.896,0-1.792-0.031-2.686-0.096c-9.723-0.7-18.212-5.12-23.908-12.446c-0.007-0.009-0.015-0.019-0.021-0.028
	c-2.804-3.613-6.675-4.607-9.429-4.806c-5.482-0.393-11.558,1.92-15.831,6.04c-3.976,3.833-10.307,3.719-14.14-0.257
	c-3.834-3.976-3.719-10.306,0.257-14.14c8.358-8.061,20.01-12.395,31.149-11.592c9.618,0.691,18.061,5.119,23.773,12.468
	c0.007,0.009,0.015,0.018,0.021,0.026c2.782,3.587,6.737,4.582,9.564,4.786c5.428,0.395,11.304-1.789,15.347-5.688
	c8.361-8.062,20.003-12.399,31.155-11.592c9.63,0.693,18.079,5.131,23.792,12.494c0.003,0.003,0.005,0.006,0.008,0.009
	c2.778,3.578,6.729,4.573,9.554,4.777c5.416,0.381,11.307-1.789,15.354-5.689c8.361-8.061,20.002-12.389,31.155-11.591
	c9.628,0.694,18.077,5.132,23.789,12.494c3.385,4.364,2.592,10.646-1.771,14.031c-4.364,3.384-10.645,2.592-14.031-1.771
	c-2.802-3.612-6.672-4.607-9.424-4.806c-5.486-0.392-11.56,1.918-15.837,6.041c-8.13,7.837-19.608,12.048-30.674,11.238
	c-9.724-0.701-18.212-5.123-23.906-12.451c-0.006-0.008-0.011-0.015-0.017-0.022c-2.804-3.612-6.674-4.607-9.428-4.806
	c-5.5-0.396-11.561,1.919-15.837,6.041C272.875,249.251,262.583,253.383,252.365,253.383z M121.834,244.674h-17.5
	c-5.522,0-10-4.478-10-10s4.478-10,10-10h17.5c5.522,0,10,4.478,10,10S127.356,244.674,121.834,244.674z"/>
<g>
</g>
<g>
</g>
<g>
</g>
<g>
</g>
<g>
</g>
<g>
</g>
<g>
</g>
<g>
</g>
<g>
</g>
<g>
</g>
<g>
</g>
<g>
</g>
<g>
</g>
<g>
</g>
<g>
</g>
</svg>
