<?xml version="1.0" encoding="iso-8859-1"?>
<!-- Generator: Adobe Illustrator 19.0.0, SVG Export Plug-In . SVG Version: 6.00 Build 0)  -->
<svg version="1.1" id="Layer_1" xmlns="http://www.w3.org/2000/svg" xmlns:xlink="http://www.w3.org/1999/xlink" x="0px" y="0px"
	 viewBox="0 0 512 512" style="enable-background:new 0 0 512 512;" xml:space="preserve">
<g>
	<g>
		<path d="M397.631,428.72l-47.483-64.391h23.12c3.181,0,6.099-1.678,7.626-4.469c1.518-2.787,1.4-6.212-0.323-8.884
			l-69.577-108.258h36.214c3.274,0,6.269-1.784,7.745-4.703c1.484-2.922,1.699-6.397-0.235-9.036L261.351,101V74.796l7.189,4.046
			c1.273,0.666,2.414,0.997,3.796,0.997c1.798,0,3.47-0.56,4.98-1.658c2.672-1.943,3.949-5.238,3.391-8.496l-3.162-18.243
			l13.242-12.915c2.367-2.307,3.207-5.76,2.191-8.907c-1.02-3.143-3.745-5.433-7.02-5.913l-18.317-2.664l-8.197-16.597
			c-2.918-5.93-12.657-5.93-15.575,0l-8.194,16.597l-18.315,2.664c-3.274,0.479-5.998,2.77-7.016,5.913
			c-1.018,3.147-0.17,6.6,2.197,8.907l13.259,12.915l-3.13,18.243c-0.56,3.257,0.78,6.553,3.452,8.496
			c2.689,1.947,6.729,2.193,9.656,0.662l8.199-4.046V101L149.6,229.008c-1.934,2.638-2.473,6.084-0.988,9.007
			c1.476,2.919,4.218,4.703,7.493,4.703h44.898l-69.575,108.286c-1.722,2.673-1.841,6.042-0.323,8.829
			c1.527,2.791,4.445,4.497,7.626,4.497h23.12l-47.483,64.391c-1.943,2.639-2.24,6.118-0.764,9.045
			c1.476,2.927,4.479,4.743,7.753,4.743h105.246v60.919c0,4.797,2.878,8.573,7.679,8.573h43.433c4.801,0,9.694-3.776,9.694-8.573
			v-60.919h103.231c3.274,0,6.278-1.816,7.753-4.743C399.871,434.838,399.574,431.359,397.631,428.72z M242.767,55.273l0.925-5.395
			c0.483-2.816-0.45-5.692-2.494-7.69l-3.919-3.822l5.412-0.785c2.833-0.412,5.276-2.189,6.54-4.75l2.426-4.912l2.426,4.912
			c1.264,2.562,3.707,4.339,6.54,4.75l5.412,0.785l-3.919,3.822c-2.044,1.998-2.978,4.873-2.494,7.69l0.925,5.395l-4.844-2.549
			c-0.159-0.084-0.327-0.146-0.49-0.219c-0.097-0.044-0.193-0.091-0.292-0.132c-0.458-0.185-0.925-0.33-1.398-0.434
			c-0.097-0.021-0.197-0.036-0.297-0.054c-0.52-0.095-1.043-0.158-1.569-0.158c-0.528,0-1.052,0.063-1.569,0.158
			c-0.1,0.018-0.199,0.033-0.297,0.054c-0.475,0.104-0.942,0.249-1.398,0.434c-0.102,0.04-0.195,0.088-0.295,0.132
			c-0.163,0.073-0.329,0.136-0.488,0.219L242.767,55.273z M173.249,225.344l78.408-106.923l78.408,106.923h-34.975h-78.179H173.249z
			 M154.646,346.956l67.007-104.238h68.695l67.007,104.238H332.94H179.06H154.646z M270.037,494.627h-26.06v-52.119h26.06V494.627z
			 M277.716,425.135h-43.433h-95.721l44.883-60.806h145.109l44.883,60.806H277.716z"/>
	</g>
</g>
<g>
</g>
<g>
</g>
<g>
</g>
<g>
</g>
<g>
</g>
<g>
</g>
<g>
</g>
<g>
</g>
<g>
</g>
<g>
</g>
<g>
</g>
<g>
</g>
<g>
</g>
<g>
</g>
<g>
</g>
</svg>
