<?xml version="1.0" encoding="iso-8859-1"?>
<!-- Generator: Adobe Illustrator 19.0.0, SVG Export Plug-In . SVG Version: 6.00 Build 0)  -->
<svg version="1.1" id="Layer_1" xmlns="http://www.w3.org/2000/svg" xmlns:xlink="http://www.w3.org/1999/xlink" x="0px" y="0px"
	 viewBox="0 0 512 512" style="enable-background:new 0 0 512 512;" xml:space="preserve">
<g>
	<g>
		<path d="M482.605,164.261c-0.999-3.063-3.641-5.292-6.828-5.755l-146.625-21.31L263.579,4.335c-2.84-5.78-12.318-5.78-15.159,0
			l-65.572,132.862l-146.625,21.31c-3.187,0.462-5.829,2.692-6.828,5.755c-0.991,3.055-0.165,6.415,2.139,8.661l106.103,103.42
			l-25.05,146.039c-0.545,3.17,0.76,6.374,3.36,8.265c1.478,1.073,3.22,1.618,4.97,1.618c1.346,0,2.7-0.322,3.93-0.974
			l70.301-36.956l-30.571,107.003c-0.727,2.551-0.215,5.237,1.379,7.358c1.602,2.114,4.103,3.305,6.754,3.305h169.091
			c2.65,0,5.152-1.191,6.754-3.305c1.594-2.122,2.105-4.836,1.379-7.387l-30.128-105.43l67.331,35.403
			c2.848,1.503,6.299,1.259,8.909-0.64c2.601-1.891,3.905-5.092,3.36-8.263l-25.042-146.031L480.467,172.92
			C482.77,170.674,483.596,167.316,482.605,164.261z M330.588,495.091H183.922l30.739-107.534c0.349-1.224,0.386-2.429,0.196-3.61
			L256,362.334l43.563,22.881c-0.004,0.782,0.062,1.552,0.287,2.343L330.588,495.091z M359.378,267.342
			c-1.99,1.94-2.898,4.739-2.427,7.48l22.895,133.531l-119.908-63.038c-2.477-1.305-5.408-1.305-7.868,0l-119.924,63.038
			l22.903-133.531c0.47-2.741-0.438-5.54-2.428-7.48l-97.013-94.569l134.067-19.485c2.758-0.396,5.135-2.13,6.366-4.624L256,27.18
			l59.958,121.485c1.23,2.493,3.608,4.227,6.366,4.624l134.067,19.485L359.378,267.342z"/>
	</g>
</g>
<g>
</g>
<g>
</g>
<g>
</g>
<g>
</g>
<g>
</g>
<g>
</g>
<g>
</g>
<g>
</g>
<g>
</g>
<g>
</g>
<g>
</g>
<g>
</g>
<g>
</g>
<g>
</g>
<g>
</g>
</svg>
