<?xml version="1.0" encoding="iso-8859-1"?>
<!-- Generator: Adobe Illustrator 19.0.0, SVG Export Plug-In . SVG Version: 6.00 Build 0)  -->
<svg version="1.1" id="Capa_1" xmlns="http://www.w3.org/2000/svg" xmlns:xlink="http://www.w3.org/1999/xlink" x="0px" y="0px"
	 viewBox="0 0 489.9 489.9" style="enable-background:new 0 0 489.9 489.9;" xml:space="preserve">
<g>
	<g>
		<path d="M390.5,292.3H99.3c-54.1,0-98.8,44.7-98.8,98.8s44.7,98.8,98.8,98.8h291.3c54.1,0,98.8-44.7,98.8-98.8
			C489.4,337.1,444.6,292.3,390.5,292.3z M390.5,449.4H99.3c-32.3,0-58.3-26-58.3-58.3s26-58.3,58.3-58.3h291.3
			c32.3,0,58.3,26,58.3,58.3C448.8,423.4,422.8,449.4,390.5,449.4z"/>
		<path d="M108.6,249.7h272.6c11.4,0,19.8-9.4,20.8-20.8V20.8C402,9.4,392.6,0,381.2,0H108.6C97.2,0,87.8,9.4,87.8,20.8v208.1
			C87.8,240.3,97.2,249.7,108.6,249.7z M129.4,41.6h232v167.5h-232V41.6z"/>
		<path d="M258.4,69.7c-8.3-8.3-20.8-8.3-29.1,0s-8.3,20.8,0,29.1l5.2,5.2h-29.1c-11.4,0-20.8,9.4-20.8,20.8s9.4,20.8,20.8,20.8
			h29.1l-5.2,5.2c-8.3,8.3-8.3,20.8,0,29.1c4.2,4.2,16.1,11.6,29.1,0l40.6-40.6c4.4-3.7,11.7-16.3,0-29.1L258.4,69.7z"/>
		<circle cx="373.9" cy="391.6" r="20.8"/>
		<circle cx="115.9" cy="391.6" r="20.8"/>
	</g>
</g>
<g>
</g>
<g>
</g>
<g>
</g>
<g>
</g>
<g>
</g>
<g>
</g>
<g>
</g>
<g>
</g>
<g>
</g>
<g>
</g>
<g>
</g>
<g>
</g>
<g>
</g>
<g>
</g>
<g>
</g>
</svg>
