<?xml version="1.0" encoding="iso-8859-1"?>
<!-- Generator: Adobe Illustrator 19.0.0, SVG Export Plug-In . SVG Version: 6.00 Build 0)  -->
<svg version="1.1" id="Capa_1" xmlns="http://www.w3.org/2000/svg" xmlns:xlink="http://www.w3.org/1999/xlink" x="0px" y="0px"
	 viewBox="0 0 490.419 490.419" style="enable-background:new 0 0 490.419 490.419;" xml:space="preserve">
<g>
	<path d="M484.8,262.91l-154-165v-74.3c0-11.4-9.4-20.8-20.8-20.8H20.8C9.4,2.81,0,12.21,0,23.61v368.3c0,11.4,9.4,20.8,20.8,20.8
		h29.1c0,41.6,33.3,74.9,74.9,74.9c40.6,0,74.9-33.3,74.9-74.9h94.7c0,41.6,33.3,74.9,74.9,74.9s74.9-33.3,74.9-74.9h26
		c10.4,0,19.8-9.4,19.8-19.8v-111.5C491.4,275.01,489.2,268.21,484.8,262.91z M423.4,256.61h-92.6v-99.8L423.4,256.61z M41.6,44.41
		h248.6l-1,212.2H41.6V44.41z M124.8,447.01c-18.7,0-34.3-15.6-34.3-34.3c0-18.7,15.6-29.1,34.3-29.1s34.3,10.4,34.3,29.1
		C159.2,431.41,143.6,447.01,124.8,447.01z M369.3,447.01c-18.7,0-34.3-15.6-34.3-34.3c0-18.7,15.6-29.1,34.3-29.1
		c18.7,0,34.3,10.4,34.3,29.1C403.6,431.41,388,447.01,369.3,447.01z M427.9,371.11c-13.7-17.2-34.8-28.1-58.6-28.1
		c-23.8,0-44.9,10.9-58.6,28.1H183.4c-13.7-17.2-34.8-28.1-58.6-28.1s-44.9,10.9-58.6,28.1H41.6v-73.9h408.9v73.9H427.9z"/>
</g>
<g>
</g>
<g>
</g>
<g>
</g>
<g>
</g>
<g>
</g>
<g>
</g>
<g>
</g>
<g>
</g>
<g>
</g>
<g>
</g>
<g>
</g>
<g>
</g>
<g>
</g>
<g>
</g>
<g>
</g>
</svg>
