<?xml version="1.0" encoding="iso-8859-1"?>
<!-- Generator: Adobe Illustrator 19.0.0, SVG Export Plug-In . SVG Version: 6.00 Build 0)  -->
<svg version="1.1" id="Capa_1" xmlns="http://www.w3.org/2000/svg" xmlns:xlink="http://www.w3.org/1999/xlink" x="0px" y="0px"
	 viewBox="0 0 490 490" style="enable-background:new 0 0 490 490;" xml:space="preserve">
<g>
	<path d="M469.2,406.8h-89.5V198.7c0-11.4-9.4-20.8-20.8-20.8h-92.6v-38.5h35.4c10.4,0,19.8-9.4,19.8-20.8V20.8
		c0-11.4-9.4-20.8-20.8-20.8H189.3c-11.4,0-20.8,9.4-20.8,20.8v97.8c0,11.4,9.4,20.8,20.8,20.8h35.4v38.5h-92.6
		c-11.4,0-20.8,9.4-20.8,20.8v208.1H20.8C9.4,406.8,0,416.2,0,427.6c0,11.4,9.4,20.8,20.8,20.8h51v20.8c0,11.4,9.4,20.8,20.8,20.8
		s20.8-9.4,20.8-20.8v-20.8h264.2v20.8c0,11.4,9.4,20.8,20.8,20.8s20.8-9.4,20.8-20.8v-20.8h51c10.4,0,19.8-8.3,19.8-20.8
		C490,416.1,480.6,406.8,469.2,406.8z M210.1,41.6h70.7v57.2h-70.7L210.1,41.6L210.1,41.6z M152.9,220.6h186.2v186.2H152.9V220.6z"
		/>
</g>
<g>
</g>
<g>
</g>
<g>
</g>
<g>
</g>
<g>
</g>
<g>
</g>
<g>
</g>
<g>
</g>
<g>
</g>
<g>
</g>
<g>
</g>
<g>
</g>
<g>
</g>
<g>
</g>
<g>
</g>
</svg>
