<?xml version="1.0" encoding="iso-8859-1"?>
<!-- Generator: Adobe Illustrator 19.0.0, SVG Export Plug-In . SVG Version: 6.00 Build 0)  -->
<svg version="1.1" id="Layer_1" xmlns="http://www.w3.org/2000/svg" xmlns:xlink="http://www.w3.org/1999/xlink" x="0px" y="0px"
	 viewBox="0 0 512 512" style="enable-background:new 0 0 512 512;" xml:space="preserve">
<rect x="404.09" y="223.977" style="fill:#ED1E79;" width="64.04" height="24.015"/>
<polyline style="fill:#9E005D;" points="420.104,199.787 428.108,167.588 444.119,167.588 452.124,199.698 "/>
<rect x="412.039" y="200.016" style="fill:#FBB03B;" width="48.111" height="24.055"/>
<path style="fill:#29ABE2;" d="M420.104,247.995v240.151c0,8.842,7.167,16.01,16.01,16.01l0,0c8.842,0,16.01-7.167,16.01-16.01
	V247.995"/>
<path style="fill:#C7B299;" d="M476.138,111.909c0,22.105-17.92,40.025-40.025,40.025c-22.105,0-40.025-17.92-40.025-40.025
	s40.025-88.056,40.025-88.056S476.138,89.804,476.138,111.909z"/>
<circle style="fill:#998675;" cx="436.115" cy="127.923" r="24.015"/>
<ellipse style="fill:#9E005D;" cx="195.958" cy="256.003" rx="160.105" ry="248.158"/>
<rect x="35.864" y="231.989" style="fill:#ED1E79;" width="320.199" height="48.03"/>
<polygon style="fill:#FFFFFF;" points="147.933,127.844 243.993,127.844 195.962,199.89 "/>
<rect x="35.864" y="207.965" style="fill:#29ABE2;" width="320.199" height="24.015"/>
<g>
	<polygon style="fill:#FFFFFF;" points="243.993,127.844 340.053,127.844 292.023,199.89 	"/>
	<polygon style="fill:#FFFFFF;" points="51.872,127.844 147.933,127.844 99.902,199.89 	"/>
</g>
<g>
	<polygon style="fill:#C7B299;" points="195.962,207.332 99.902,207.332 147.933,119.278 	"/>
	<polygon style="fill:#C7B299;" points="99.902,207.332 35.861,207.332 59.877,135.287 	"/>
	<polygon style="fill:#C7B299;" points="356.063,207.332 292.023,207.332 340.053,127.282 	"/>
	<polygon style="fill:#C7B299;" points="292.023,207.332 195.962,207.332 243.993,127.282 	"/>
</g>
<rect x="67.882" y="95.898" style="fill:#FBB03B;" width="256.159" height="24.015"/>
<g>
	<polygon style="fill:#FFFFFF;" points="316.038,95.9 75.887,95.9 107.908,47.869 284.018,47.869 	"/>
	<polygon style="fill:#FFFFFF;" points="147.933,384.088 243.993,384.088 195.962,312.042 	"/>
</g>
<rect x="35.864" y="280.016" style="fill:#29ABE2;" width="320.199" height="24.015"/>
<g>
	<polygon style="fill:#FFFFFF;" points="243.993,384.088 340.053,384.088 292.023,312.042 	"/>
	<polygon style="fill:#FFFFFF;" points="51.872,384.088 147.933,384.088 99.902,312.042 	"/>
</g>
<g>
	<polygon style="fill:#C7B299;" points="195.962,304.6 99.902,304.6 147.933,392.656 	"/>
	<polygon style="fill:#C7B299;" points="99.902,304.6 35.861,304.6 59.877,376.645 	"/>
	<polygon style="fill:#C7B299;" points="356.063,304.6 292.023,304.6 340.053,384.65 	"/>
	<polygon style="fill:#C7B299;" points="292.023,304.6 195.962,304.6 243.993,384.65 	"/>
</g>
<rect x="67.882" y="392.083" style="fill:#FBB03B;" width="256.159" height="24.015"/>
<polygon style="fill:#FFFFFF;" points="316.038,416.1 75.887,416.1 107.908,464.131 284.018,464.131 "/>
<rect x="115.006" y="432.204" width="17.78" height="15.688"/>
<rect x="140.107" y="432.204" width="15.688" height="15.688"/>
<rect x="164.163" y="432.204" width="15.688" height="15.688"/>
<rect x="188.218" y="432.204" width="15.688" height="15.688"/>
<rect x="212.274" y="432.204" width="15.688" height="15.688"/>
<rect x="235.284" y="432.204" width="16.734" height="15.688"/>
<rect x="259.339" y="432.204" width="16.734" height="15.688"/>
<rect x="115.006" y="64.04" width="17.78" height="15.688"/>
<rect x="140.107" y="64.04" width="15.688" height="15.688"/>
<rect x="164.163" y="64.04" width="15.688" height="15.688"/>
<rect x="188.218" y="64.04" width="15.688" height="15.688"/>
<rect x="212.274" y="64.04" width="15.688" height="15.688"/>
<rect x="235.284" y="64.04" width="16.734" height="15.688"/>
<rect x="259.339" y="64.04" width="16.734" height="15.688"/>
<rect x="83.634" y="249.173" width="31.377" height="15.688"/>
<rect x="132.786" y="249.173" width="31.377" height="15.688"/>
<rect x="179.851" y="249.173" width="32.423" height="15.688"/>
<rect x="227.962" y="249.173" width="31.377" height="15.688"/>
<rect x="276.073" y="249.173" width="32.423" height="15.688"/>
<path d="M315.762,76.275C284.029,27.088,241.484,0,195.963,0s-88.067,27.088-119.8,76.275
	c-31.047,48.122-48.145,111.951-48.145,179.726s17.098,131.602,48.145,179.725C107.896,484.911,150.442,512,195.963,512
	c45.52,0,88.066-27.089,119.799-76.275c31.047-48.122,48.145-111.95,48.145-179.725C363.907,188.225,346.809,124.397,315.762,76.275
	z M344.033,200.011h-42.614l31.857-47.785C337.882,167.348,341.503,183.349,344.033,200.011z M326.902,133.505l-34.879,52.319
	l-38.652-57.979h71.334C325.454,129.713,326.185,131.601,326.902,133.505z M157.31,127.844h77.304l-38.652,57.979L157.31,127.844z
	 M186.566,200.011h-77.267l38.633-57.951L186.566,200.011z M243.993,142.061l38.633,57.951h-77.267L243.993,142.061z M262.636,39.99
	H129.29c20.146-15.559,42.774-24.301,66.673-24.301C219.862,15.688,242.49,24.431,262.636,39.99z M92.596,79.733h15.093V64.045
	h-3.204c2.44-2.904,4.938-5.694,7.489-8.367h167.977c2.551,2.673,5.049,5.463,7.489,8.367h-4.041v15.688h15.931
	c1.86,2.718,3.677,5.507,5.449,8.367H87.147C88.918,85.241,90.736,82.453,92.596,79.733z M78.231,103.789h235.463
	c1.424,2.74,2.815,5.528,4.163,8.367H74.068C75.416,109.318,76.806,106.53,78.231,103.789z M67.22,127.844h71.334l-38.652,57.979
	l-34.879-52.319C65.739,131.601,66.472,129.713,67.22,127.844z M58.648,152.226l31.857,47.786H47.892
	C50.421,183.349,54.043,167.348,58.648,152.226z M45.853,215.699h300.22c0.298,2.772,0.557,5.564,0.794,8.367H45.059
	C45.295,221.263,45.555,218.472,45.853,215.699z M47.878,311.921H90.55l-31.902,47.853C54.036,344.631,50.408,328.61,47.878,311.921
	z M65.022,378.496l34.879-52.319l38.608,57.911H67.194C66.454,382.242,65.731,380.376,65.022,378.496z M234.57,384.088h-77.215
	l38.608-57.911L234.57,384.088z M205.315,311.921h77.357l-38.679,58.018L205.315,311.921z M147.933,369.94l-38.678-58.018h77.357
	L147.933,369.94z M195.963,496.312c-23.933,0-46.59-8.772-66.76-24.369h133.519C242.553,487.54,219.896,496.312,195.963,496.312z
	 M299.379,432.199h-15.98v15.688h4.117c-2.438,2.906-4.934,5.693-7.483,8.367H111.895c-2.549-2.674-5.045-5.462-7.483-8.367h3.279
	v-15.688H92.547c-1.857-2.718-3.672-5.508-5.442-8.367h217.716C303.05,426.691,301.236,429.481,299.379,432.199z M313.728,408.143
	H78.196c-1.423-2.74-2.813-5.528-4.162-8.367H317.89C316.543,402.616,315.153,405.403,313.728,408.143z M324.731,384.088h-71.316
	l38.608-57.912l34.879,52.32C326.194,380.376,325.471,382.242,324.731,384.088z M333.276,359.774l-31.902-47.853h42.673
	C341.518,328.61,337.888,344.631,333.276,359.774z M346.074,296.233H45.852c-0.297-2.774-0.568-5.562-0.804-8.367h301.83
	C346.642,290.671,346.371,293.459,346.074,296.233z M347.866,272.177H44.059c-0.102-2.431-0.178-4.873-0.237-7.321h24.123v-15.688
	h-24.16c0.06-3.151,0.147-6.291,0.28-9.413h303.796c0.133,3.122,0.22,6.262,0.28,9.413h-23.953v15.688h23.915
	C348.044,267.305,347.969,269.747,347.866,272.177z"/>
<path d="M483.983,111.909c0-23.617-36.95-85.183-41.163-92.125l-6.706-11.049l-6.706,11.049
	c-4.213,6.943-41.163,68.507-41.163,92.125c0,21.359,14.063,39.49,33.414,45.633l-7.697,34.101h-10.285v39.744h64.845v-39.744
	h-10.262l-7.688-34.101C469.921,151.398,483.983,133.267,483.983,111.909z M403.932,111.909c0-12.477,17.671-47.341,32.182-72.61
	c14.51,25.265,32.18,60.125,32.18,72.61c0,15.231-10.64,28.015-24.874,31.335v-15.399h-15.688v15.131
	C414.039,139.278,403.932,126.755,403.932,111.909z M452.833,215.699h-33.468v-8.367h33.468V215.699z M429.938,191.644l4.29-19.872
	h3.767l4.286,19.872H429.938z"/>
<path d="M468.521,239.755h-64.845v15.688h8.584v232.702c0,13.153,10.701,23.855,23.855,23.855c13.153,0,23.855-10.701,23.855-23.855
	V255.443h8.553v-15.688H468.521z M444.28,488.146c0,4.503-3.664,8.166-8.166,8.166s-8.166-3.663-8.166-8.166V255.443h16.332v232.703
	H444.28z"/>
<g>
</g>
<g>
</g>
<g>
</g>
<g>
</g>
<g>
</g>
<g>
</g>
<g>
</g>
<g>
</g>
<g>
</g>
<g>
</g>
<g>
</g>
<g>
</g>
<g>
</g>
<g>
</g>
<g>
</g>
</svg>
