<?xml version="1.0" encoding="iso-8859-1"?>
<!-- Generator: Adobe Illustrator 19.0.0, SVG Export Plug-In . SVG Version: 6.00 Build 0)  -->
<svg version="1.1" id="Layer_1" xmlns="http://www.w3.org/2000/svg" xmlns:xlink="http://www.w3.org/1999/xlink" x="0px" y="0px"
	 viewBox="0 0 492.308 492.308" style="enable-background:new 0 0 492.308 492.308;" xml:space="preserve">
<g>
	<g>
		<path d="M86.096,86.103L72.173,72.18C25.63,118.719,0,180.507,0,246.151c0,65.654,25.63,127.442,72.173,173.976l13.923-13.923
			c-42.822-42.817-66.404-99.659-66.404-160.053C19.692,185.767,43.274,128.926,86.096,86.103z"/>
	</g>
</g>
<g>
	<g>
		<path d="M420.135,72.18l-13.923,13.923c42.822,42.822,66.404,99.663,66.404,160.048c0,60.394-23.582,117.236-66.404,160.053
			l13.923,13.923c46.543-46.534,72.173-108.322,72.173-173.976C492.308,180.507,466.678,118.719,420.135,72.18z"/>
	</g>
</g>
<g>
	<g>
		<path d="M127.346,127.353l-13.923-13.923c-35.51,35.505-55.063,82.639-55.063,132.721c0,50.087,19.553,97.226,55.063,132.731
			l13.923-13.923c-31.788-31.788-49.293-73.981-49.293-118.808C78.053,201.329,95.558,159.142,127.346,127.353z"/>
	</g>
</g>
<g>
	<g>
		<path d="M378.885,113.43l-13.923,13.923c31.789,31.788,49.293,73.976,49.293,118.798c0,44.827-17.505,87.019-49.293,118.808
			l13.923,13.923c35.51-35.505,55.063-82.644,55.063-132.731C433.947,196.07,414.394,148.935,378.885,113.43z"/>
	</g>
</g>
<g>
	<g>
		<path d="M168.596,168.599l-13.923-13.923c-24.471,24.461-37.952,56.947-37.952,91.476c0,34.524,13.476,67.014,37.952,91.486
			l13.923-13.923c-20.755-20.755-32.183-48.298-32.183-77.563C136.414,216.887,147.841,189.344,168.596,168.599z"/>
	</g>
</g>
<g>
	<g>
		<path d="M337.635,154.676l-13.923,13.923c20.755,20.745,32.183,48.288,32.183,77.553c0,29.264-11.428,56.808-32.183,77.563
			l13.923,13.923c24.476-24.471,37.952-56.962,37.952-91.486C375.587,211.623,362.106,179.137,337.635,154.676z"/>
	</g>
</g>
<g>
	<g>
		<path d="M246.154,175.084c-39.188,0-71.072,31.885-71.072,71.072s31.885,71.072,71.072,71.072s71.072-31.885,71.072-71.072
			S285.341,175.084,246.154,175.084z M246.154,297.536c-28.332,0-51.38-23.048-51.38-51.38c0-28.332,23.048-51.38,51.38-51.38
			s51.38,23.048,51.38,51.38C297.534,274.488,274.486,297.536,246.154,297.536z"/>
	</g>
</g>
<g>
</g>
<g>
</g>
<g>
</g>
<g>
</g>
<g>
</g>
<g>
</g>
<g>
</g>
<g>
</g>
<g>
</g>
<g>
</g>
<g>
</g>
<g>
</g>
<g>
</g>
<g>
</g>
<g>
</g>
</svg>
