<?xml version="1.0" encoding="iso-8859-1"?>
<!-- Generator: Adobe Illustrator 19.0.0, SVG Export Plug-In . SVG Version: 6.00 Build 0)  -->
<svg version="1.1" id="Layer_1" xmlns="http://www.w3.org/2000/svg" xmlns:xlink="http://www.w3.org/1999/xlink" x="0px" y="0px"
	 viewBox="0 0 512 512" style="enable-background:new 0 0 512 512;" xml:space="preserve">
<g>
	<g>
		<path d="M345.805,283.182H23.805v52.447h-6.032C7.957,335.629,0,343.586,0,353.402v27.878c0,9.816,7.957,17.773,17.773,17.773
			c2.472,0,4.978,0,10.387,0c0-50.562,41.207-91.871,91.87-91.871c50.658,0,91.871,41.213,91.871,91.871h96.356
			c0-50.658,41.213-91.871,91.87-91.871c10.722,0,21.013,1.864,30.589,5.256C407.314,294.111,377.837,283.182,345.805,283.182z"/>
	</g>
</g>
<g>
	<g>
		<path d="M388.532,222.305c-7.49,0-13.562-6.072-13.562-13.562c0-19.795,0-33.818,0-53.375c0-7.525,6.161-13.562,13.562-13.562
			c10.356,0,66.883,0,73.302,0c-12.309-14.612-29.039-25.372-48.139-30.204v-10.547c0-25.726-20.929-46.655-46.654-46.655H145.274
			c-25.726,0-46.655,20.929-46.655,46.655v9.461c-42.639,8.358-74.815,45.917-74.815,91.004v48.339h322.001
			c45.998,0,89.133,18.241,121.022,50.129c6.123,6.123,11.726,12.644,16.805,19.526v-97.208H388.532z M195.711,208.743
			c0,7.49-6.072,13.562-13.562,13.562H99.501c-7.49,0-13.562-6.072-13.562-13.562v-53.375c0-7.541,6.155-13.562,13.562-13.562
			c9.147,0,74.384,0,82.648,0c7.49,0,13.562,6.072,13.562,13.562C195.711,175.358,195.711,190.778,195.711,208.743z
			 M336.216,208.743c0,7.49-6.072,13.562-13.562,13.562h-82.648c-7.49,0-13.562-6.072-13.562-13.562c0-17.664,0-32.224,0-53.375
			c0-7.49,6.072-13.562,13.562-13.562h82.648c7.49,0,13.562,6.072,13.562,13.562C336.216,175.358,336.216,190.778,336.216,208.743z
			 M131.945,108.765v-7.711c0-7.35,5.98-13.33,13.33-13.33h221.767c7.35,0,13.33,5.98,13.33,13.33v7.711H131.945z"/>
	</g>
</g>
<g>
	<g>
		<path d="M500.413,352.095h-21.364c8.116,13.588,12.822,29.43,12.933,46.349h8.431c6.399,0,11.587-5.188,11.587-11.587
			c0-14.043,0-10.99,0-23.174C512,357.247,506.761,352.095,500.413,352.095z"/>
	</g>
</g>
<g>
	<g>
		<path d="M400.127,340.508c-32.334,0-58.546,26.212-58.546,58.546c0,32.334,26.212,58.546,58.546,58.546
			c32.334,0,58.546-26.212,58.546-58.546C458.673,366.72,432.461,340.508,400.127,340.508z M400.127,417.42
			c-10.144,0-18.367-8.223-18.367-18.367s8.223-18.367,18.367-18.367c10.144,0,18.367,8.223,18.367,18.367
			C418.494,409.197,410.271,417.42,400.127,417.42z"/>
	</g>
</g>
<g>
	<g>
		<path d="M120.031,340.508c-32.334,0-58.546,26.212-58.546,58.546c0,32.334,26.212,58.546,58.546,58.546
			s58.546-26.212,58.546-58.546C178.576,366.72,152.365,340.508,120.031,340.508z M120.031,417.42
			c-10.144,0-18.367-8.223-18.367-18.367s8.223-18.367,18.367-18.367c10.144,0,18.367,8.223,18.367,18.367
			C138.397,409.197,130.175,417.42,120.031,417.42z"/>
	</g>
</g>
<g>
</g>
<g>
</g>
<g>
</g>
<g>
</g>
<g>
</g>
<g>
</g>
<g>
</g>
<g>
</g>
<g>
</g>
<g>
</g>
<g>
</g>
<g>
</g>
<g>
</g>
<g>
</g>
<g>
</g>
</svg>
