<?xml version='1.0' encoding='iso-8859-1'?>
<svg version="1.1" xmlns="http://www.w3.org/2000/svg" viewBox="0 0 490 490" xmlns:xlink="http://www.w3.org/1999/xlink" enable-background="new 0 0 490 490">
  <path d="m249.605,280c0-8.284 6.716-15 15-15h90.186c8.284,0 15,6.716 15,15s-6.716,15-15,15h-90.186c-8.285,0-15-6.716-15-15zm15-45h90.186c8.284,0 15-6.716 15-15s-6.716-15-15-15h-90.186c-8.284,0-15,6.716-15,15s6.715,15 15,15zm210.395-110v249.881c0.002,0.271-0.003,0.54-0.016,0.81-0.157,3.457-1.483,6.609-3.595,9.07 0,0-0.001,0.001-0.001,0.001-0.006,0.007-0.013,0.014-0.019,0.021-0.004,0.004-0.007,0.008-0.011,0.013-0.002,0.002-0.004,0.004-0.005,0.006-0.241,0.279-0.494,0.551-0.759,0.814l-100.177,99.976c-2.563,2.569-6.052,4.214-9.923,4.391-0.233,0.011-0.467,0.017-0.7,0.017-0.039,0-0.079,0-0.118,0h-200.282c-8.284,0-15-6.716-15-15v-95h-114.394c-8.284,0-15-6.716-15-15v-350c0-8.284 6.716-15 15-15h300.608c8.284,0 15,6.716 15,15v95h114.392c8.284,0 15,6.716 15,15zm-315.606-15h156.215v-80h-270.609v320h99.394v-225c0-8.284 6.715-15 15-15zm264.341,280h-48.937v48.838l48.937-48.838zm21.265-250h-270.606v320h170.405v-85c0-8.284 6.716-15 15-15h85.201v-220z"/>
</svg>
