<?xml version="1.0" encoding="iso-8859-1"?>
<!-- Generator: Adobe Illustrator 18.0.0, SVG Export Plug-In . SVG Version: 6.00 Build 0)  -->
<!DOCTYPE svg PUBLIC "-//W3C//DTD SVG 1.1//EN" "http://www.w3.org/Graphics/SVG/1.1/DTD/svg11.dtd">
<svg version="1.1" id="Capa_1" xmlns="http://www.w3.org/2000/svg" xmlns:xlink="http://www.w3.org/1999/xlink" x="0px" y="0px"
	 viewBox="0 0 414.016 414.016" style="enable-background:new 0 0 414.016 414.016;" xml:space="preserve">
<g>
	<g>
		<path d="M371.439,78.959c-8.166-40.02-38.785-71.263-76.19-77.746c-17.03-2.953-34.282-0.491-49.892,7.116
			c-14.717,7.174-27.582,18.566-38.349,33.905c-10.768-15.34-23.632-26.731-38.35-33.904c-15.608-7.607-32.857-10.068-49.891-7.117
			C81.362,7.697,50.744,38.94,42.578,78.958c-6.063,29.71,0.162,62.145,18.003,93.798c20.472,36.32,55.412,70.784,103.855,102.468
			l11.084,58.885h-1.119c-3.314,0-6,2.687-6,6v0.022c-0.457-0.165-0.92-0.316-1.394-0.439c-1.322-0.345-2.688-0.519-4.058-0.519
			c-8.948,0-17.067,7.188-19.744,17.48c-3.108,11.957,2.512,23.803,12.526,26.405c1.322,0.345,2.688,0.518,4.058,0.518
			c3.027,0,5.953-0.839,8.611-2.326v11.299c0,11.837,9.63,21.467,21.467,21.467h34.234c11.837,0,21.467-9.63,21.467-21.467v-11.3
			c2.659,1.487,5.585,2.327,8.613,2.327h0.001c1.369,0,2.734-0.174,4.056-0.518c5.057-1.315,9.259-5.09,11.528-10.353
			c2.081-4.826,2.435-10.527,0.997-16.053c-2.675-10.292-10.794-17.48-19.744-17.48c-1.37,0-2.735,0.174-4.056,0.518
			c-0.474,0.123-0.938,0.275-1.395,0.44v-0.022c0-3.313-2.687-6-6-6h-1.119l11.078-58.852
			c48.47-31.691,83.428-66.168,103.907-102.501C371.275,141.104,377.501,108.668,371.439,78.959z M167.919,363.077
			c-1.383,5.32-5.22,8.5-8.129,8.5c-0.351,0-0.699-0.045-1.037-0.133c-3.49-0.906-5.327-6.408-3.934-11.77
			c1.385-5.321,5.222-8.501,8.131-8.501c0.351,0,0.699,0.045,1.038,0.133c1.983,0.516,3.063,2.406,3.528,3.488
			C168.53,357.145,168.677,360.163,167.919,363.077z M246.455,354.793c0.467-1.082,1.545-2.974,3.529-3.489
			c0.337-0.087,0.685-0.132,1.036-0.132c2.911,0,6.748,3.18,8.131,8.501c0.758,2.911,0.61,5.931-0.402,8.281
			c-0.467,1.082-1.546,2.974-3.53,3.49c-0.337,0.087-0.685,0.132-1.035,0.132c-2.911,0-6.749-3.18-8.132-8.5
			C245.295,360.165,245.442,357.145,246.455,354.793z M256.233,16.621c30.095,19.542,47.681,45.066,52.272,75.909
			c11.073,74.398-55.524,158.939-67.191,173.073h-12.887c8.86-28.173,15.243-55.06,19.008-80.068
			c33.239-29.251,34.114-55.952,32.293-67.889c-2.882-18.887-16.518-33.935-33.979-37.552
			c-5.565-23.214-13.795-37.132-18.491-43.659C235.995,27.356,245.773,20.679,256.233,16.621z M204.005,211.264
			c0.912,0.498,1.896,0.733,2.868,0.733l0.005-0.02l0.005,0.02c0.972,0,1.956-0.235,2.868-0.733
			c8.961-4.889,16.808-9.803,23.683-14.69c-3.968,21.788-9.862,44.924-17.596,69.029h-17.705
			c-7.713-24.046-13.593-47.12-17.559-68.849C187.388,201.582,195.154,206.436,204.005,211.264z M145.891,119.457
			c2.14-14.021,12.089-25.137,24.758-27.659c12.005-2.389,23.337,3.588,31.098,16.4c1.717,2.835,5.405,3.742,8.24,2.025
			c0.858-0.52,1.537-1.223,2.023-2.026l0.001,0.001c7.76-12.813,19.099-18.789,31.097-16.4
			c12.669,2.522,22.618,13.638,24.758,27.659c1.937,12.692-0.25,45.583-60.986,79.683
			C146.141,165.041,143.954,132.149,145.891,119.457z M236.876,277.603l-10.636,56.506h-38.509l-10.636-56.506H236.876z
			 M194.813,45.873c2.465,3.254,4.821,6.728,7.057,10.419c1.392,2.299,4.079,3.329,6.557,2.723c1.499-0.363,2.857-1.3,3.72-2.723
			c2.229-3.68,4.576-7.144,7.033-10.389c3.861,5.958,9.658,16.869,14.068,33.681c-9.892,1.268-19.067,6.542-26.363,15.22
			c-7.245-8.624-16.349-13.884-26.167-15.197C185.136,62.75,190.948,51.826,194.813,45.873z M186.73,36.408
			c-4.691,6.516-12.926,20.429-18.498,43.637c-17.568,3.533-31.309,18.633-34.204,37.603c-1.825,11.967-0.943,38.77,32.542,68.107
			c3.768,24.938,10.141,51.75,18.976,79.849h-12.89c-11.667-14.12-78.26-98.575-67.195-173.044
			c4.585-30.861,22.178-56.4,52.292-75.949C168.212,20.664,177.991,27.335,186.73,36.408z M54.335,81.358
			c7.188-35.219,33.904-62.674,66.482-68.32c7.357-1.274,14.602-1.38,21.643-0.398C114.667,33.297,98.235,59.529,93.59,90.795
			c-5.426,36.52,5.05,78.768,31.136,125.575c5.92,10.622,11.955,20.207,17.504,28.426C48.377,172.493,48.993,107.536,54.335,81.358z
			 M233.569,392.549c0,5.221-4.247,9.467-9.467,9.467h-34.234c-5.22,0-9.467-4.246-9.467-9.467v-28.534h53.168V392.549z
			 M233.569,352.015h-53.168v-5.906h53.168V352.015z M271.692,244.869c5.563-8.236,11.616-17.848,17.552-28.498
			c26.085-46.807,36.561-89.056,31.135-125.575c-4.645-31.264-21.067-57.496-48.855-78.152c7.053-0.987,14.308-0.883,21.676,0.395
			c32.578,5.646,59.295,33.102,66.482,68.32C365.023,107.544,365.639,172.537,271.692,244.869z"/>
	</g>
</g>
<g>
</g>
<g>
</g>
<g>
</g>
<g>
</g>
<g>
</g>
<g>
</g>
<g>
</g>
<g>
</g>
<g>
</g>
<g>
</g>
<g>
</g>
<g>
</g>
<g>
</g>
<g>
</g>
<g>
</g>
</svg>
