<?xml version="1.0" encoding="iso-8859-1"?>
<!-- Generator: Adobe Illustrator 19.0.0, SVG Export Plug-In . SVG Version: 6.00 Build 0)  -->
<svg version="1.1" id="Layer_1" xmlns="http://www.w3.org/2000/svg" xmlns:xlink="http://www.w3.org/1999/xlink" x="0px" y="0px"
	 viewBox="0 0 472.615 472.615" style="enable-background:new 0 0 472.615 472.615;" xml:space="preserve">
<g>
	<g>
		<polygon points="472.615,403.692 472.615,354.428 0,354.428 0,403.692 147.692,403.692 147.692,452.923 108.308,452.923 
			108.308,472.615 364.308,472.615 364.308,452.923 324.923,452.923 324.923,403.692 		"/>
	</g>
</g>
<g>
	<g>
		<polygon points="78.31,49.197 132.923,90.962 187.536,49.197 		"/>
	</g>
</g>
<g>
	<g>
		<polygon points="59.077,59.272 59.077,147.43 116.72,103.351 		"/>
	</g>
</g>
<g>
	<g>
		<polygon points="149.126,103.351 206.769,147.43 206.769,59.272 		"/>
	</g>
</g>
<g>
	<g>
		<polygon points="132.923,115.741 78.31,157.505 187.536,157.505 		"/>
	</g>
</g>
<g>
	<g>
		<polygon points="339.692,115.741 285.08,157.505 394.305,157.505 		"/>
	</g>
</g>
<g>
	<g>
		<path d="M0,0v334.736h472.615V0H0z M39.385,29.505h187.077v147.692H39.385V29.505z M433.231,305.197H39.385V196.89h393.846
			V305.197z M433.231,177.197H246.154V29.505h187.077V177.197z"/>
	</g>
</g>
<g>
	<g>
		<polygon points="265.846,59.272 265.846,147.43 323.489,103.351 		"/>
	</g>
</g>
<g>
	<g>
		<polygon points="285.08,49.197 339.692,90.962 394.305,49.197 		"/>
	</g>
</g>
<g>
	<g>
		<polygon points="355.895,103.351 413.538,147.43 413.538,59.272 		"/>
	</g>
</g>
<g>
</g>
<g>
</g>
<g>
</g>
<g>
</g>
<g>
</g>
<g>
</g>
<g>
</g>
<g>
</g>
<g>
</g>
<g>
</g>
<g>
</g>
<g>
</g>
<g>
</g>
<g>
</g>
<g>
</g>
</svg>
