<?xml version="1.0" encoding="iso-8859-1"?>
<!-- Generator: Adobe Illustrator 19.0.0, SVG Export Plug-In . SVG Version: 6.00 Build 0)  -->
<svg version="1.1" id="Layer_1" xmlns="http://www.w3.org/2000/svg" xmlns:xlink="http://www.w3.org/1999/xlink" x="0px" y="0px"
	 viewBox="0 0 472.615 472.615" style="enable-background:new 0 0 472.615 472.615;" xml:space="preserve">
<g>
	<g>
		<polygon points="277.713,334.792 277.713,216.63 198.938,216.63 198.938,334.792 144.88,334.792 238.326,428.139 331.773,334.792 
					"/>
	</g>
</g>
<g>
	<g>
		<path d="M336.794,364.3v68.928c0,10.856-8.837,19.693-19.693,19.693H159.552c-10.857,0-19.694-8.837-19.694-19.693V364.3h-19.693
			v68.928c0,21.723,17.665,39.388,39.388,39.388h157.549c21.723,0,39.387-17.665,39.387-39.388V364.3H336.794z"/>
	</g>
</g>
<g>
	<g>
		<path d="M407.298,143.862c2.954-10.143,6.4-25.406,5.416-39.584C408.381,46.279,358.556,0.393,299.179,0h-0.885
			c-47.659,0-90.198,29.047-106.937,71.291c-17.527-13.885-40.077-20.58-63.118-18.513c-32.692,3.053-61.15,24.913-72.671,55.634
			c-4.628,12.604-3.938,30.625-3.052,41.161c-30.525,12.604-50.514,42.243-50.514,75.92c0,45.491,36.925,82.416,82.417,82.416
			h94.825V196.933h118.162v110.976h89.902c45.984,0,83.304-37.319,83.304-83.205C470.613,185.612,444.125,152.723,407.298,143.862z"
			/>
	</g>
</g>
<g>
</g>
<g>
</g>
<g>
</g>
<g>
</g>
<g>
</g>
<g>
</g>
<g>
</g>
<g>
</g>
<g>
</g>
<g>
</g>
<g>
</g>
<g>
</g>
<g>
</g>
<g>
</g>
<g>
</g>
</svg>
