<?xml version="1.0" encoding="iso-8859-1"?>
<!-- Generator: Adobe Illustrator 19.0.0, SVG Export Plug-In . SVG Version: 6.00 Build 0)  -->
<svg version="1.1" id="Layer_1" xmlns="http://www.w3.org/2000/svg" xmlns:xlink="http://www.w3.org/1999/xlink" x="0px" y="0px"
	 viewBox="0 0 472.615 472.615" style="enable-background:new 0 0 472.615 472.615;" xml:space="preserve">
<g>
	<g>
		<path d="M0,0v78.737h472.615V0H0z M285.538,49.198H49.231V29.506h236.308V49.198z M354.462,49.198h-19.692V29.506h19.692V49.198z
			 M393.846,49.198h-19.692V29.506h19.692V49.198z M433.231,49.198h-19.692V29.506h19.692V49.198z"/>
	</g>
</g>
<g>
	<g>
		<rect x="157.538" y="315.047" width="19.692" height="19.692"/>
	</g>
</g>
<g>
	<g>
		<rect x="196.923" y="315.047" width="19.692" height="19.692"/>
	</g>
</g>
<g>
	<g>
		<rect x="118.154" y="315.047" width="19.692" height="19.692"/>
	</g>
</g>
<g>
	<g>
		<rect x="118.154" y="354.432" width="137.846" height="19.692"/>
	</g>
</g>
<g>
	<g>
		<path d="M0,98.429v374.186h472.615V98.429H0z M374.154,393.814H98.462V177.198H183l39.385,39.385h151.77V393.814z"/>
	</g>
</g>
<g>
</g>
<g>
</g>
<g>
</g>
<g>
</g>
<g>
</g>
<g>
</g>
<g>
</g>
<g>
</g>
<g>
</g>
<g>
</g>
<g>
</g>
<g>
</g>
<g>
</g>
<g>
</g>
<g>
</g>
</svg>
