<?xml version="1.0" encoding="iso-8859-1"?>
<!-- Generator: Adobe Illustrator 19.0.0, SVG Export Plug-In . SVG Version: 6.00 Build 0)  -->
<svg version="1.1" id="Layer_1" xmlns="http://www.w3.org/2000/svg" xmlns:xlink="http://www.w3.org/1999/xlink" x="0px" y="0px"
	 viewBox="0 0 472.615 472.615" style="enable-background:new 0 0 472.615 472.615;" xml:space="preserve">
<g>
	<g>
		<path d="M0,0v78.737h472.615V0H0z M285.538,49.198H49.231V29.506h236.308V49.198z M354.462,49.198h-19.692V29.506h19.692V49.198z
			 M393.846,49.198h-19.692V29.506h19.692V49.198z M433.231,49.198h-19.692V29.506h19.692V49.198z"/>
	</g>
</g>
<g>
	<g>
		<path d="M0,305.198v167.417h472.615V305.198H0z M147.692,443.044H39.385v-19.692h108.308V443.044z M206.769,403.66H39.385v-19.692
			h167.385V403.66z M206.769,364.275H39.385v-19.692h167.385V364.275z M374.154,443.044H265.846v-19.692h108.308V443.044z
			 M433.231,403.66H265.846v-19.692h167.385V403.66z M433.231,364.275H265.846v-19.692h167.385V364.275z"/>
	</g>
</g>
<g>
	<g>
		<polygon points="0,98.429 0,285.506 78.769,285.506 78.769,206.737 98.462,206.737 98.462,285.506 137.846,285.506 
			137.846,246.121 157.538,246.121 157.538,285.506 196.923,285.506 196.923,226.429 216.615,226.429 216.615,285.506 256,285.506 
			256,157.506 275.692,157.506 275.692,285.506 315.077,285.506 315.077,187.044 334.769,187.044 334.769,285.506 374.154,285.506 
			374.154,137.814 393.846,137.814 393.846,285.506 472.615,285.506 472.615,98.429 		"/>
	</g>
</g>
<g>
</g>
<g>
</g>
<g>
</g>
<g>
</g>
<g>
</g>
<g>
</g>
<g>
</g>
<g>
</g>
<g>
</g>
<g>
</g>
<g>
</g>
<g>
</g>
<g>
</g>
<g>
</g>
<g>
</g>
</svg>
