<?xml version="1.0" encoding="iso-8859-1"?>
<!-- Generator: Adobe Illustrator 19.0.0, SVG Export Plug-In . SVG Version: 6.00 Build 0)  -->
<svg version="1.1" id="Layer_1" xmlns="http://www.w3.org/2000/svg" xmlns:xlink="http://www.w3.org/1999/xlink" x="0px" y="0px"
	 viewBox="0 0 472.627 472.627" style="enable-background:new 0 0 472.627 472.627;" xml:space="preserve">
<g>
	<g>
		<path d="M382.43,226.079c-2.757-3.249-7.385-4.431-11.323-2.757L94.726,336.651c-3.446,1.378-5.711,4.529-6.105,8.271
			c-0.295,3.643,1.477,7.188,4.628,9.157l44.603,27.766v80.935c0,4.135,2.56,7.778,6.498,9.255c1.083,0.394,2.265,0.591,3.348,0.591
			c2.855,0,5.612-1.28,7.582-3.545l44.603-53.268l41.354,23.631c1.477,0.886,3.151,1.28,4.825,1.28c3.249,0,6.4-1.575,8.271-4.431
			L383.12,237.796C385.483,234.153,385.187,229.427,382.43,226.079z M157.544,435.605V382.83l68.726-29.341L157.544,435.605z"/>
	</g>
</g>
<g>
	<g>
		<path d="M405.569,151.926c4.234-13.588,5.908-27.668,5.12-42.043C407.144,49.723,356.24,0.492,297.163,0h-0.886
			c-47.754,0-90.289,30.621-107.028,75.126c-17.526-14.474-39.975-21.662-63.015-19.299c-32.788,3.249-61.243,26.191-72.665,58.486
			c-5.12,14.375-6.4,29.145-3.742,44.013c-30.129,14.867-49.822,46.276-49.822,80.737c0,46.256,32.312,80.712,78.114,85.299
			c2.608-2.48,5.653-4.544,9.117-5.968L363.621,205.05c3.625-1.467,7.365-2.198,11.202-2.198c8.836,0,17.134,3.894,22.759,10.688
			c8.279,9.98,9.106,24.029,2.02,34.927l-49.584,76.455h33.988c51.298,0,88.615-36.134,88.615-85.858
			C472.621,196.923,444.56,161.477,405.569,151.926z"/>
	</g>
</g>
<g>
</g>
<g>
</g>
<g>
</g>
<g>
</g>
<g>
</g>
<g>
</g>
<g>
</g>
<g>
</g>
<g>
</g>
<g>
</g>
<g>
</g>
<g>
</g>
<g>
</g>
<g>
</g>
<g>
</g>
</svg>
