<?xml version="1.0" encoding="iso-8859-1"?>
<!-- Generator: Adobe Illustrator 19.0.0, SVG Export Plug-In . SVG Version: 6.00 Build 0)  -->
<svg version="1.1" id="Layer_1" xmlns="http://www.w3.org/2000/svg" xmlns:xlink="http://www.w3.org/1999/xlink" x="0px" y="0px"
	 viewBox="0 0 472.651 472.651" style="enable-background:new 0 0 472.651 472.651;" xml:space="preserve">
<g>
	<g>
		<path d="M354.48,188.393c0-65.183-52.972-118.154-118.154-118.154S118.172,123.21,118.172,188.393
			c0,54.882,37.722,101.086,88.615,114.265v22.302h-29.538v88.615c0,32.591,26.486,59.077,59.077,59.077
			s59.077-26.486,59.077-59.077v-88.615h-29.539v-22.302C316.758,289.478,354.48,243.275,354.48,188.393z M207.921,212.35
			l-13.922,13.923l-37.909-37.904l37.909-37.914l13.922,13.923l-23.985,23.99L207.921,212.35z M246.172,423.388H226.48v-19.692
			h19.692V423.388z M246.172,384.003H226.48v-19.692h19.692V384.003z M246.172,324.959H226.48v-18.913
			c3.255,0.272,6.522,0.5,9.846,0.5c3.324,0,6.591-0.228,9.846-0.5V324.959z M227.494,240.965l-18.51-6.731l35.77-98.462
			l18.509,6.731L227.494,240.965z M264.73,212.35l23.985-23.98l-23.985-23.99l13.922-13.923l37.909,37.914l-37.909,37.904
			L264.73,212.35z"/>
	</g>
</g>
<g>
	<g>
		<rect x="168.089" y="31.304" transform="matrix(0.9238 -0.3828 0.3828 0.9238 -4.0836 71.625)" width="19.692" height="29.539"/>
	</g>
</g>
<g>
	<g>
		
			<rect x="85.486" y="113.909" transform="matrix(0.3828 -0.9238 0.9238 0.3828 -60.0371 167.4946)" width="19.692" height="29.538"/>
	</g>
</g>
<g>
	<g>
		
			<rect x="80.554" y="235.641" transform="matrix(0.9238 -0.3828 0.3828 0.9238 -86.7059 55.1826)" width="29.538" height="19.692"/>
	</g>
</g>
<g>
	<g>
		<rect x="367.474" y="230.713" transform="matrix(0.3828 -0.9239 0.9239 0.3828 6.1112 500.112)" width="19.692" height="29.538"/>
	</g>
</g>
<g>
	<g>
		
			<rect x="362.562" y="118.858" transform="matrix(0.9239 -0.3827 0.3827 0.9239 -20.5287 154.2191)" width="29.539" height="19.692"/>
	</g>
</g>
<g>
	<g>
		<rect x="279.96" y="36.229" transform="matrix(0.3828 -0.9238 0.9238 0.3828 139.3432 300.719)" width="29.538" height="19.692"/>
	</g>
</g>
<g>
	<g>
		<rect x="226.48" width="19.692" height="49.231"/>
	</g>
</g>
<g>
	<g>
		
			<rect x="111.603" y="47.587" transform="matrix(0.7071 -0.7071 0.7071 0.7071 -15.4814 107.033)" width="19.692" height="49.231"/>
	</g>
</g>
<g>
	<g>
		<rect x="49.249" y="177.231" width="49.231" height="19.692"/>
	</g>
</g>
<g>
	<g>
		
			<rect x="96.837" y="292.112" transform="matrix(0.7071 -0.7071 0.7071 0.7071 -177.9431 174.3188)" width="49.231" height="19.692"/>
	</g>
</g>
<g>
	<g>
		
			<rect x="341.347" y="277.387" transform="matrix(0.7072 -0.7071 0.7071 0.7072 -110.6881 336.7531)" width="19.692" height="49.231"/>
	</g>
</g>
<g>
	<g>
		<rect x="374.172" y="177.231" width="49.231" height="19.692"/>
	</g>
</g>
<g>
	<g>
		
			<rect x="326.604" y="62.338" transform="matrix(0.7071 -0.7071 0.7071 0.7071 51.8277 269.4918)" width="49.231" height="19.692"/>
	</g>
</g>
<g>
</g>
<g>
</g>
<g>
</g>
<g>
</g>
<g>
</g>
<g>
</g>
<g>
</g>
<g>
</g>
<g>
</g>
<g>
</g>
<g>
</g>
<g>
</g>
<g>
</g>
<g>
</g>
<g>
</g>
</svg>
