<?xml version="1.0" encoding="iso-8859-1"?>
<!-- Generator: Adobe Illustrator 19.0.0, SVG Export Plug-In . SVG Version: 6.00 Build 0)  -->
<svg version="1.1" id="Layer_1" xmlns="http://www.w3.org/2000/svg" xmlns:xlink="http://www.w3.org/1999/xlink" x="0px" y="0px"
	 viewBox="0 0 472.615 472.615" style="enable-background:new 0 0 472.615 472.615;" xml:space="preserve">
<g>
	<g>
		<path d="M357.139,31.758C253.287-28.26,121.155,0.106,51.251,93.596L36.537,20.302L17.24,24.184l21.278,106.021l107.55-20.931
			L142.3,89.958l-74.502,14.494c64.207-84.852,184.675-110.446,279.5-55.645c89.338,51.626,128.193,158.398,92.385,253.867
			l18.433,6.919C497.315,205.071,454.847,88.228,357.139,31.758z"/>
	</g>
</g>
<g>
	<g>
		<path d="M434.098,342.412l-107.549,20.932l3.767,19.317l74.498-14.492c-64.208,84.833-184.673,110.427-279.496,55.644
			C35.98,372.186-2.875,265.414,32.933,169.945L14.5,163.026C-24.7,267.548,17.768,384.39,115.477,440.861
			c37,21.383,77.585,31.541,117.669,31.541c72.457,0,143.188-33.31,188.187-93.535l14.746,73.45l19.297-3.882L434.098,342.412z"/>
	</g>
</g>
<g>
	<g>
		<path d="M341.017,208.288c2.164-8.168,3.05-16.632,2.46-25.193c-2.361-40.84-37.002-74.398-77.35-74.693h-0.591
			c-30.999,0-58.75,18.895-71.249,46.843c-11.416-8.07-25.586-11.908-39.955-10.529c-22.634,2.263-42.316,18.107-50.189,40.348
			c-3.247,9.054-4.231,18.402-3.05,27.85c-19.486,10.628-32.082,31.492-32.082,54.421c0,32.771,23.421,56.98,56.389,59.145
			c9.054,13.187,25.783,18.108,35.92,18.108c16.336,0,26.275-3.347,38.576-13.778c7.086,6.298,19.289,13.679,37.593,13.679
			c20.765,0,34.247-9.054,41.333-15.549c32.869,13.58,56.486,6.199,70.855-2.854c23.519-14.761,34.247-40.84,34.247-58.751
			C383.923,239.582,366.209,216.062,341.017,208.288z"/>
	</g>
</g>
<g>
</g>
<g>
</g>
<g>
</g>
<g>
</g>
<g>
</g>
<g>
</g>
<g>
</g>
<g>
</g>
<g>
</g>
<g>
</g>
<g>
</g>
<g>
</g>
<g>
</g>
<g>
</g>
<g>
</g>
</svg>
