<?xml version="1.0" encoding="iso-8859-1"?>
<!-- Generator: Adobe Illustrator 19.0.0, SVG Export Plug-In . SVG Version: 6.00 Build 0)  -->
<svg version="1.1" id="Layer_1" xmlns="http://www.w3.org/2000/svg" xmlns:xlink="http://www.w3.org/1999/xlink" x="0px" y="0px"
	 viewBox="0 0 512.853 512.853" style="enable-background:new 0 0 512.853 512.853;" xml:space="preserve">
<g transform="translate(1 1)">
	<polygon style="fill:#FDCC00;" points="237.933,268.227 425.667,268.227 425.667,217.027 237.933,217.027 	"/>
	<g>
		<polygon style="fill:#FFE100;" points="425.667,490.093 476.867,490.093 476.867,421.827 425.667,421.827 		"/>
		<polygon style="fill:#FFE100;" points="33.133,490.093 84.333,490.093 84.333,421.827 33.133,421.827 		"/>
		<path style="fill:#FFE100;" d="M19.48,421.827h471.893c6.827,0,11.947-5.12,11.947-11.947v-79.36
			c0-6.827-5.12-11.947-11.947-11.947H19.48c-6.827,0.853-11.947,5.973-11.947,12.8v79.36
			C7.533,416.707,12.653,421.827,19.48,421.827"/>
		<path style="fill:#FFE100;" d="M24.6,319.427h460.8v-38.4c0-6.827-5.973-12.8-12.8-12.8H37.4c-6.827,0-12.8,5.973-12.8,12.8
			V319.427z"/>
	</g>
	<g>
		<polygon style="fill:#FFA800;" points="408.6,268.227 425.667,268.227 425.667,217.027 408.6,217.027 		"/>
		<polygon style="fill:#FFA800;" points="459.8,490.093 476.867,490.093 476.867,421.827 459.8,421.827 		"/>
		<path style="fill:#FFA800;" d="M490.52,319.427h-17.067c6.827,0,11.947,5.12,11.947,11.947v79.36
			c0,6.827-5.12,11.947-11.947,11.947h17.067c6.827,0,11.947-5.12,11.947-11.947v-79.36
			C502.467,324.547,497.347,319.427,490.52,319.427"/>
		<path style="fill:#FFA800;" d="M472.6,268.227h-17.067c6.827,0,12.8,5.973,12.8,12.8v38.4H485.4v-38.4
			C485.4,274.2,479.427,268.227,472.6,268.227"/>
	</g>
	<g>
		<polygon style="fill:#FFFFFF;" points="33.133,490.093 50.2,490.093 50.2,421.827 33.133,421.827 		"/>
		<path style="fill:#FFFFFF;" d="M19.48,319.427h17.067c-6.827,0-11.947,5.12-11.947,11.947v79.36
			c0,5.973,5.12,11.093,11.947,11.093H19.48c-6.827,0-11.947-5.12-11.947-11.947v-79.36C7.533,324.547,12.653,319.427,19.48,319.427
			"/>
		<path style="fill:#FFFFFF;" d="M37.4,268.227h17.067c-6.827,0-12.8,5.973-12.8,12.8v38.4H24.6v-38.4
			C24.6,274.2,30.573,268.227,37.4,268.227"/>
	</g>
	<g>
		<path style="fill:#00DA6C;" d="M408.6,370.627c0,9.387,7.68,17.067,17.067,17.067s17.067-7.68,17.067-17.067
			c0-9.387-7.68-17.067-17.067-17.067S408.6,361.24,408.6,370.627"/>
		<path style="fill:#00DA6C;" d="M340.333,370.627c0,9.387,7.68,17.067,17.067,17.067s17.067-7.68,17.067-17.067
			c0-9.387-7.68-17.067-17.067-17.067S340.333,361.24,340.333,370.627"/>
		<path style="fill:#00DA6C;" d="M272.067,370.627c0,9.387,7.68,17.067,17.067,17.067c9.387,0,17.067-7.68,17.067-17.067
			c0-9.387-7.68-17.067-17.067-17.067C279.747,353.56,272.067,361.24,272.067,370.627"/>
		<path style="fill:#00DA6C;" d="M203.8,370.627c0,9.387,7.68,17.067,17.067,17.067c9.387,0,17.067-7.68,17.067-17.067
			c0-9.387-7.68-17.067-17.067-17.067C211.48,353.56,203.8,361.24,203.8,370.627"/>
		<path style="fill:#00DA6C;" d="M135.533,370.627c0,9.387,7.68,17.067,17.067,17.067s17.067-7.68,17.067-17.067
			c0-9.387-7.68-17.067-17.067-17.067S135.533,361.24,135.533,370.627"/>
		<path style="fill:#00DA6C;" d="M67.267,370.627c0,9.387,7.68,17.067,17.067,17.067s17.067-7.68,17.067-17.067
			c0-9.387-7.68-17.067-17.067-17.067S67.267,361.24,67.267,370.627"/>
		<polygon style="fill:#00DA6C;" points="127,174.36 161.133,174.36 161.133,106.093 127,106.093 		"/>
		<path style="fill:#00DA6C;" d="M203.8,140.227L203.8,140.227c0,9.387-7.68,17.067-17.067,17.067h-25.6V123.16h25.6
			C196.12,123.16,203.8,130.84,203.8,140.227"/>
		<polygon style="fill:#00DA6C;" points="7.533,191.427 127,191.427 127,89.027 7.533,89.027 		"/>
	</g>
	<g>
		<path style="fill:#FDCC00;" d="M92.867,89.027V31.853c0-5.973-5.12-11.093-11.093-11.093H52.76
			c-5.973,0-11.093,5.12-11.093,11.093v57.173H92.867z"/>
		<polygon style="fill:#FDCC00;" points="41.667,268.227 92.867,268.227 92.867,191.427 41.667,191.427 		"/>
	</g>
	<g>
		<polygon style="fill:#FFFFFF;" points="7.533,191.427 24.6,191.427 24.6,89.027 7.533,89.027 		"/>
		<path style="fill:#FFFFFF;" d="M69.827,20.76H52.76c-5.973,0-11.093,5.12-11.093,11.093v57.173h17.067V31.853
			C58.733,25.88,63.853,20.76,69.827,20.76"/>
		<polygon style="fill:#FFFFFF;" points="41.667,268.227 58.733,268.227 58.733,191.427 41.667,191.427 		"/>
	</g>
	<path d="M476.867,498.627h-51.2c-5.12,0-8.533-3.413-8.533-8.533v-68.267c0-5.12,3.413-8.533,8.533-8.533h51.2
		c5.12,0,8.533,3.413,8.533,8.533v68.267C485.4,495.213,481.987,498.627,476.867,498.627z M434.2,481.56h34.133v-51.2H434.2V481.56z
		"/>
	<path d="M84.333,498.627h-51.2c-5.12,0-8.533-3.413-8.533-8.533v-68.267c0-5.12,3.413-8.533,8.533-8.533h51.2
		c5.12,0,8.533,3.413,8.533,8.533v68.267C92.867,495.213,89.453,498.627,84.333,498.627z M41.667,481.56H75.8v-51.2H41.667V481.56z"
		/>
	<path d="M490.52,430.36H19.48C8.387,430.36-1,420.973-1,409.88v-79.36c0-11.093,9.387-20.48,20.48-20.48h471.893
		c11.093,0,20.48,9.387,20.48,20.48v79.36C511,420.973,501.613,430.36,490.52,430.36z M19.48,327.96
		c-1.707,0-3.413,1.707-3.413,3.413v79.36c0,0.853,1.707,2.56,3.413,2.56h471.893c1.707,0,3.413-1.707,3.413-3.413v-79.36
		c0-1.707-1.707-3.413-3.413-3.413H19.48V327.96z"/>
	<path d="M425.667,396.227c-14.507,0-25.6-11.093-25.6-25.6c0-14.507,11.093-25.6,25.6-25.6s25.6,11.093,25.6,25.6
		C451.267,385.133,440.173,396.227,425.667,396.227z M425.667,362.093c-5.12,0-8.533,3.413-8.533,8.533
		c0,5.12,3.413,8.533,8.533,8.533s8.533-3.413,8.533-8.533C434.2,365.507,430.787,362.093,425.667,362.093z"/>
	<path d="M357.4,396.227c-14.507,0-25.6-11.093-25.6-25.6c0-14.507,11.093-25.6,25.6-25.6s25.6,11.093,25.6,25.6
		C383,385.133,371.907,396.227,357.4,396.227z M357.4,362.093c-5.12,0-8.533,3.413-8.533,8.533c0,5.12,3.413,8.533,8.533,8.533
		s8.533-3.413,8.533-8.533C365.933,365.507,362.52,362.093,357.4,362.093z"/>
	<path d="M289.133,396.227c-14.507,0-25.6-11.093-25.6-25.6c0-14.507,11.093-25.6,25.6-25.6c14.507,0,25.6,11.093,25.6,25.6
		C314.733,385.133,303.64,396.227,289.133,396.227z M289.133,362.093c-5.12,0-8.533,3.413-8.533,8.533
		c0,5.12,3.413,8.533,8.533,8.533c5.12,0,8.533-3.413,8.533-8.533C297.667,365.507,294.253,362.093,289.133,362.093z"/>
	<path d="M220.867,396.227c-14.507,0-25.6-11.093-25.6-25.6c0-14.507,11.093-25.6,25.6-25.6c14.507,0,25.6,11.093,25.6,25.6
		C246.467,385.133,235.373,396.227,220.867,396.227z M220.867,362.093c-5.12,0-8.533,3.413-8.533,8.533
		c0,5.12,3.413,8.533,8.533,8.533c5.12,0,8.533-3.413,8.533-8.533C229.4,365.507,225.987,362.093,220.867,362.093z"/>
	<path d="M152.6,396.227c-14.507,0-25.6-11.093-25.6-25.6c0-14.507,11.093-25.6,25.6-25.6c14.507,0,25.6,11.093,25.6,25.6
		C178.2,385.133,167.107,396.227,152.6,396.227z M152.6,362.093c-5.12,0-8.533,3.413-8.533,8.533c0,5.12,3.413,8.533,8.533,8.533
		c5.12,0,8.533-3.413,8.533-8.533C161.133,365.507,157.72,362.093,152.6,362.093z"/>
	<path d="M84.333,396.227c-14.507,0-25.6-11.093-25.6-25.6c0-14.507,11.093-25.6,25.6-25.6s25.6,11.093,25.6,25.6
		C109.933,385.133,98.84,396.227,84.333,396.227z M84.333,362.093c-5.12,0-8.533,3.413-8.533,8.533c0,5.12,3.413,8.533,8.533,8.533
		s8.533-3.413,8.533-8.533C92.867,365.507,89.453,362.093,84.333,362.093z"/>
	<path d="M485.4,327.96H24.6c-5.12,0-8.533-3.413-8.533-8.533v-38.4c0-11.947,9.387-21.333,21.333-21.333h435.2
		c11.947,0,21.333,9.387,21.333,21.333v38.4C493.933,324.547,490.52,327.96,485.4,327.96z M33.133,310.893h443.733v-29.867
		c0-2.56-1.707-4.267-4.267-4.267H37.4c-2.56,0-4.267,1.707-4.267,4.267V310.893z"/>
	<path d="M502.467,498.627H7.533c-5.12,0-8.533-3.413-8.533-8.533c0-5.12,3.413-8.533,8.533-8.533h494.933
		c5.12,0,8.533,3.413,8.533,8.533C511,495.213,507.587,498.627,502.467,498.627z"/>
	<path d="M161.133,182.893H127c-5.12,0-8.533-3.413-8.533-8.533v-68.267c0-5.12,3.413-8.533,8.533-8.533h34.133
		c5.12,0,8.533,3.413,8.533,8.533v68.267C169.667,179.48,166.253,182.893,161.133,182.893z M135.533,165.827H152.6v-51.2h-17.067
		V165.827z"/>
	<path d="M186.733,165.827h-25.6c-5.12,0-8.533-3.413-8.533-8.533V123.16c0-5.12,3.413-8.533,8.533-8.533h25.6
		c14.507,0,25.6,11.093,25.6,25.6S201.24,165.827,186.733,165.827z M169.667,148.76h17.067c5.12,0,8.533-3.413,8.533-8.533
		s-3.413-8.533-8.533-8.533h-17.067V148.76z"/>
	<path d="M237.933,148.76H203.8c-5.12,0-8.533-3.413-8.533-8.533s3.413-8.533,8.533-8.533h34.133c5.12,0,8.533,3.413,8.533,8.533
		S243.053,148.76,237.933,148.76z"/>
	<path d="M425.667,276.76H237.933c-5.12,0-8.533-3.413-8.533-8.533v-51.2c0-5.12,3.413-8.533,8.533-8.533h187.733
		c5.12,0,8.533,3.413,8.533,8.533v51.2C434.2,273.347,430.787,276.76,425.667,276.76z M246.467,259.693h170.667V225.56H246.467
		V259.693z"/>
	<path d="M127,199.96H7.533c-5.12,0-8.533-3.413-8.533-8.533v-102.4c0-5.12,3.413-8.533,8.533-8.533H127
		c5.12,0,8.533,3.413,8.533,8.533v102.4C135.533,196.547,132.12,199.96,127,199.96z M16.067,182.893h102.4V97.56h-102.4V182.893z"/>
	<path d="M101.4,97.56H33.133V31.853c0-11.093,8.533-19.627,19.627-19.627h28.16c11.947,0,20.48,8.533,20.48,19.627V97.56z
		 M50.2,80.493h34.133v-48.64c0-1.707-0.853-2.56-2.56-2.56H52.76c-1.707,0-2.56,0.853-2.56,2.56V80.493z"/>
	<path d="M101.4,276.76H33.133v-93.867H101.4V276.76z M50.2,259.693h34.133V199.96H50.2V259.693z"/>
</g>
<g>
</g>
<g>
</g>
<g>
</g>
<g>
</g>
<g>
</g>
<g>
</g>
<g>
</g>
<g>
</g>
<g>
</g>
<g>
</g>
<g>
</g>
<g>
</g>
<g>
</g>
<g>
</g>
<g>
</g>
</svg>
