<?xml version="1.0" encoding="iso-8859-1"?>
<!-- Generator: Adobe Illustrator 19.0.0, SVG Export Plug-In . SVG Version: 6.00 Build 0)  -->
<svg version="1.1" id="Layer_1" xmlns="http://www.w3.org/2000/svg" xmlns:xlink="http://www.w3.org/1999/xlink" x="0px" y="0px"
	 viewBox="0 0 512.116 512.116" style="enable-background:new 0 0 512.116 512.116;" xml:space="preserve">
<g transform="translate(1 1)">
	<g>
		<path style="fill:#FFE100;" d="M108.231,217.346h-25.18c-5.036,0-8.393-3.357-8.393-8.393s3.357-8.393,8.393-8.393h25.18
			c5.036,0,8.393,3.357,8.393,8.393S113.267,217.346,108.231,217.346z"/>
		<path style="fill:#FFE100;" d="M108.231,318.067h-25.18c-5.036,0-8.393-3.357-8.393-8.393c0-5.036,3.357-8.393,8.393-8.393h25.18
			c5.036,0,8.393,3.357,8.393,8.393C116.624,314.71,113.267,318.067,108.231,318.067z"/>
		<path style="fill:#FFE100;" d="M108.231,284.493h-25.18c-5.036,0-8.393-3.357-8.393-8.393s3.357-8.393,8.393-8.393h25.18
			c5.036,0,8.393,3.357,8.393,8.393C116.624,281.136,113.267,284.493,108.231,284.493z"/>
		<path style="fill:#FFE100;" d="M108.231,250.919h-25.18c-5.036,0-8.393-3.357-8.393-8.393c0-5.036,3.357-8.393,8.393-8.393h25.18
			c5.036,0,8.393,3.357,8.393,8.393C116.624,247.562,113.267,250.919,108.231,250.919z"/>
		<path style="fill:#FFE100;" d="M435.575,217.346h-25.18c-5.036,0-8.393-3.357-8.393-8.393s3.357-8.393,8.393-8.393h25.18
			c5.036,0,8.393,3.357,8.393,8.393S440.611,217.346,435.575,217.346z"/>
		<path style="fill:#FFE100;" d="M435.575,318.067h-25.18c-5.036,0-8.393-3.357-8.393-8.393c0-5.036,3.357-8.393,8.393-8.393h25.18
			c5.036,0,8.393,3.357,8.393,8.393C443.969,314.71,440.611,318.067,435.575,318.067z"/>
		<path style="fill:#FFE100;" d="M435.575,284.493h-25.18c-5.036,0-8.393-3.357-8.393-8.393s3.357-8.393,8.393-8.393h25.18
			c5.036,0,8.393,3.357,8.393,8.393C443.969,281.136,440.611,284.493,435.575,284.493z"/>
		<path style="fill:#FFE100;" d="M435.575,250.919h-25.18c-5.036,0-8.393-3.357-8.393-8.393c0-5.036,3.357-8.393,8.393-8.393h25.18
			c5.036,0,8.393,3.357,8.393,8.393C443.969,247.562,440.611,250.919,435.575,250.919z"/>
		<path style="fill:#FFE100;" d="M309.674,116.624c-5.036,0-8.393-3.357-8.393-8.393v-25.18c0-5.036,3.357-8.393,8.393-8.393
			s8.393,3.357,8.393,8.393v25.18C318.067,113.267,314.71,116.624,309.674,116.624z"/>
		<path style="fill:#FFE100;" d="M208.952,116.624c-5.036,0-8.393-3.357-8.393-8.393v-25.18c0-5.036,3.357-8.393,8.393-8.393
			s8.393,3.357,8.393,8.393v25.18C217.346,113.267,213.988,116.624,208.952,116.624z"/>
		<path style="fill:#FFE100;" d="M242.526,116.624c-5.036,0-8.393-3.357-8.393-8.393v-25.18c0-5.036,3.357-8.393,8.393-8.393
			s8.393,3.357,8.393,8.393v25.18C250.919,113.267,247.562,116.624,242.526,116.624z"/>
		<path style="fill:#FFE100;" d="M276.1,116.624c-5.036,0-8.393-3.357-8.393-8.393v-25.18c0-5.036,3.357-8.393,8.393-8.393
			c5.036,0,8.393,3.357,8.393,8.393v25.18C284.493,113.267,281.136,116.624,276.1,116.624z"/>
		<path style="fill:#FFE100;" d="M309.674,443.969c-5.036,0-8.393-3.357-8.393-8.393v-25.18c0-5.036,3.357-8.393,8.393-8.393
			s8.393,3.357,8.393,8.393v25.18C318.067,440.611,314.71,443.969,309.674,443.969z"/>
		<path style="fill:#FFE100;" d="M208.952,443.969c-5.036,0-8.393-3.357-8.393-8.393v-25.18c0-5.036,3.357-8.393,8.393-8.393
			s8.393,3.357,8.393,8.393v25.18C217.346,440.611,213.988,443.969,208.952,443.969z"/>
		<path style="fill:#FFE100;" d="M242.526,443.969c-5.036,0-8.393-3.357-8.393-8.393v-25.18c0-5.036,3.357-8.393,8.393-8.393
			s8.393,3.357,8.393,8.393v25.18C250.919,440.611,247.562,443.969,242.526,443.969z"/>
		<path style="fill:#FFE100;" d="M276.1,443.969c-5.036,0-8.393-3.357-8.393-8.393v-25.18c0-5.036,3.357-8.393,8.393-8.393
			c5.036,0,8.393,3.357,8.393,8.393v25.18C284.493,440.611,281.136,443.969,276.1,443.969z"/>
		<path style="fill:#FFE100;" d="M49.477,217.346H15.903c-5.036,0-8.393-3.357-8.393-8.393s3.357-8.393,8.393-8.393h33.574
			c5.036,0,8.393,3.357,8.393,8.393S54.513,217.346,49.477,217.346z"/>
		<path style="fill:#FFE100;" d="M49.477,250.919H15.903c-5.036,0-8.393-3.357-8.393-8.393c0-5.036,3.357-8.393,8.393-8.393h33.574
			c5.036,0,8.393,3.357,8.393,8.393C57.87,247.562,54.513,250.919,49.477,250.919z"/>
		<path style="fill:#FFE100;" d="M49.477,284.493H15.903c-5.036,0-8.393-3.357-8.393-8.393s3.357-8.393,8.393-8.393h33.574
			c5.036,0,8.393,3.357,8.393,8.393C57.87,281.136,54.513,284.493,49.477,284.493z"/>
		<path style="fill:#FFE100;" d="M49.477,318.067H15.903c-5.036,0-8.393-3.357-8.393-8.393c0-5.036,3.357-8.393,8.393-8.393h33.574
			c5.036,0,8.393,3.357,8.393,8.393C57.87,314.71,54.513,318.067,49.477,318.067z"/>
		<path style="fill:#FFE100;" d="M502.723,217.346h-33.574c-5.036,0-8.393-3.357-8.393-8.393s3.357-8.393,8.393-8.393h33.574
			c5.036,0,8.393,3.357,8.393,8.393S507.759,217.346,502.723,217.346z"/>
		<path style="fill:#FFE100;" d="M502.723,250.919h-33.574c-5.036,0-8.393-3.357-8.393-8.393c0-5.036,3.357-8.393,8.393-8.393
			h33.574c5.036,0,8.393,3.357,8.393,8.393C511.116,247.562,507.759,250.919,502.723,250.919z"/>
		<path style="fill:#FFE100;" d="M502.723,284.493h-33.574c-5.036,0-8.393-3.357-8.393-8.393s3.357-8.393,8.393-8.393h33.574
			c5.036,0,8.393,3.357,8.393,8.393C511.116,281.136,507.759,284.493,502.723,284.493z"/>
		<path style="fill:#FFE100;" d="M502.723,318.067h-33.574c-5.036,0-8.393-3.357-8.393-8.393c0-5.036,3.357-8.393,8.393-8.393
			h33.574c5.036,0,8.393,3.357,8.393,8.393C511.116,314.71,507.759,318.067,502.723,318.067z"/>
		<path style="fill:#FFE100;" d="M208.952,511.116c-5.036,0-8.393-3.357-8.393-8.393v-33.574c0-5.036,3.357-8.393,8.393-8.393
			s8.393,3.357,8.393,8.393v33.574C217.346,507.759,213.988,511.116,208.952,511.116z"/>
		<path style="fill:#FFE100;" d="M242.526,511.116c-5.036,0-8.393-3.357-8.393-8.393v-33.574c0-5.036,3.357-8.393,8.393-8.393
			s8.393,3.357,8.393,8.393v33.574C250.919,507.759,247.562,511.116,242.526,511.116z"/>
		<path style="fill:#FFE100;" d="M276.1,511.116c-5.036,0-8.393-3.357-8.393-8.393v-33.574c0-5.036,3.357-8.393,8.393-8.393
			c5.036,0,8.393,3.357,8.393,8.393v33.574C284.493,507.759,281.136,511.116,276.1,511.116z"/>
		<path style="fill:#FFE100;" d="M309.674,511.116c-5.036,0-8.393-3.357-8.393-8.393v-33.574c0-5.036,3.357-8.393,8.393-8.393
			s8.393,3.357,8.393,8.393v33.574C318.067,507.759,314.71,511.116,309.674,511.116z"/>
		<path style="fill:#FFE100;" d="M208.952,57.87c-5.036,0-8.393-3.357-8.393-8.393V15.903c0-5.036,3.357-8.393,8.393-8.393
			s8.393,3.357,8.393,8.393v33.574C217.346,54.513,213.988,57.87,208.952,57.87z"/>
		<path style="fill:#FFE100;" d="M242.526,57.87c-5.036,0-8.393-3.357-8.393-8.393V15.903c0-5.036,3.357-8.393,8.393-8.393
			s8.393,3.357,8.393,8.393v33.574C250.919,54.513,247.562,57.87,242.526,57.87z"/>
		<path style="fill:#FFE100;" d="M276.1,57.87c-5.036,0-8.393-3.357-8.393-8.393V15.903c0-5.036,3.357-8.393,8.393-8.393
			c5.036,0,8.393,3.357,8.393,8.393v33.574C284.493,54.513,281.136,57.87,276.1,57.87z"/>
		<path style="fill:#FFE100;" d="M309.674,57.87c-5.036,0-8.393-3.357-8.393-8.393V15.903c0-5.036,3.357-8.393,8.393-8.393
			s8.393,3.357,8.393,8.393v33.574C318.067,54.513,314.71,57.87,309.674,57.87z"/>
		<path style="fill:#FFE100;" d="M141.805,133.411c-1.679,0-4.197-0.839-5.875-2.518L10.028,13.385
			c-3.357-3.357-3.357-8.393,0-11.751s8.393-3.357,11.751,0L147.68,119.142c3.357,3.357,3.357,8.393,0,11.751
			C146.001,132.572,144.323,133.411,141.805,133.411z"/>
		<path style="fill:#FFE100;" d="M385.215,133.411c-2.518,0-4.197-0.839-5.875-2.518c-3.357-3.357-2.518-8.393,0.839-11.751
			L489.293,18.421c3.357-3.357,8.393-2.518,11.751,0.839s2.518,8.393-0.839,11.751L391.09,131.733
			C389.411,132.572,386.893,133.411,385.215,133.411z"/>
		<path style="fill:#FFE100;" d="M494.329,494.329c-1.679,0-4.197-0.839-5.875-2.518L370.946,382.697
			c-3.357-3.357-3.357-8.393-0.839-11.751c3.357-3.357,8.393-3.357,11.751-0.839l117.508,109.115
			c3.357,3.357,3.357,8.393,0.839,11.751C498.526,493.49,496.847,494.329,494.329,494.329z"/>
		<path style="fill:#FFE100;" d="M24.297,502.723c-2.518,0-4.197-0.839-5.875-2.518c-3.357-3.357-2.518-8.393,0.839-11.751
			l109.115-100.721c3.357-3.357,8.393-2.518,11.751,0.839c3.357,3.357,2.518,8.393-0.839,11.751L30.172,501.044
			C28.493,501.883,25.975,502.723,24.297,502.723z"/>
	</g>
	<g>
		<polygon style="fill:#FDCC00;" points="183.772,133.411 318.067,133.411 318.067,99.838 183.772,99.838 		"/>
		<polygon style="fill:#FDCC00;" points="183.772,402.001 318.067,402.001 318.067,368.428 183.772,368.428 		"/>
		<polygon style="fill:#FDCC00;" points="368.428,318.067 402.001,318.067 402.001,183.772 368.428,183.772 		"/>
		<polygon style="fill:#FDCC00;" points="99.838,318.067 133.411,318.067 133.411,183.772 99.838,183.772 		"/>
	</g>
	<path style="fill:#FFE100;" d="M133.411,339.89V161.949c0-15.948,12.59-28.538,28.538-28.538h178.78
		c15.948,0,28.538,12.59,28.538,28.538v178.78c0,15.948-12.59,28.538-28.538,28.538h-178.78
		C146.001,368.428,133.411,355.837,133.411,339.89"/>
	<path style="fill:#63D3FD;" d="M334.854,242.526l-10.072-1.679c-15.108-2.518-21.823-20.144-12.59-32.734l6.715-8.393l-13.43-13.43
		l-8.393,5.875c-12.59,8.393-30.216,0.839-31.895-14.269l-3.357-10.911h-19.305l-2.518,13.43
		c-2.518,14.269-19.305,21.823-31.895,13.43l-10.911-7.554l-13.43,13.43l6.715,8.393c9.233,12.59,2.518,30.216-12.59,32.734
		l-10.911,1.679v19.305l10.911,1.679c15.108,2.518,22.662,19.305,14.269,31.895l-5.875,8.393l13.43,13.429l8.393-6.715
		c12.59-9.233,30.216-2.518,32.734,12.59l1.679,11.751h19.305l0.839-7.554c2.518-15.108,20.144-22.662,32.734-13.43l5.875,4.197
		l13.429-13.429l-5.875-8.393c-8.393-12.59-0.839-30.216,14.269-31.895l10.911-1.679v-20.144H334.854z"/>
	<path style="fill:#FFE100;" d="M276.1,250.919c0,14.269-10.911,25.18-25.18,25.18s-25.18-10.911-25.18-25.18
		s10.911-25.18,25.18-25.18S276.1,236.651,276.1,250.919"/>
	<path d="M339.89,376.821H161.949c-20.144,0-36.931-16.787-36.931-36.931V161.949c0-20.144,16.787-36.931,36.931-36.931h178.78
		c20.144,0,36.931,16.787,36.931,36.931v178.78C376.821,360.034,360.034,376.821,339.89,376.821z M161.949,141.805
		c-10.911,0-20.144,9.233-20.144,20.144v178.78c0,10.911,9.233,20.144,20.144,20.144h178.78c10.911,0,20.144-9.233,20.144-20.144
		v-178.78c0-10.911-9.233-20.144-20.144-20.144H161.949z"/>
	<path d="M326.46,141.805H175.378V91.444H326.46V141.805z M192.165,125.018h117.508v-16.787H192.165V125.018z"/>
	<path d="M326.46,410.395H175.378v-50.361H326.46V410.395z M192.165,393.608h117.508v-16.787H192.165V393.608z"/>
	<path d="M410.395,326.46h-50.361V175.378h50.361V326.46z M376.821,309.674h16.787V192.165h-16.787V309.674z"/>
	<path d="M141.805,326.46H91.444V175.378h50.361V326.46z M108.231,309.674h16.787V192.165h-16.787V309.674z"/>
	<path d="M99.838,208.952h-25.18c-5.036,0-8.393-3.357-8.393-8.393s3.357-8.393,8.393-8.393h25.18c5.036,0,8.393,3.357,8.393,8.393
		S104.874,208.952,99.838,208.952z"/>
	<path d="M99.838,309.674h-25.18c-5.036,0-8.393-3.357-8.393-8.393c0-5.036,3.357-8.393,8.393-8.393h25.18
		c5.036,0,8.393,3.357,8.393,8.393C108.231,306.316,104.874,309.674,99.838,309.674z"/>
	<path d="M99.838,276.1h-25.18c-5.036,0-8.393-3.357-8.393-8.393s3.357-8.393,8.393-8.393h25.18c5.036,0,8.393,3.357,8.393,8.393
		S104.874,276.1,99.838,276.1z"/>
	<path d="M99.838,242.526h-25.18c-5.036,0-8.393-3.357-8.393-8.393s3.357-8.393,8.393-8.393h25.18c5.036,0,8.393,3.357,8.393,8.393
		S104.874,242.526,99.838,242.526z"/>
	<path d="M427.182,208.952h-25.18c-5.036,0-8.393-3.357-8.393-8.393s3.357-8.393,8.393-8.393h25.18c5.036,0,8.393,3.357,8.393,8.393
		S432.218,208.952,427.182,208.952z"/>
	<path d="M427.182,309.674h-25.18c-5.036,0-8.393-3.357-8.393-8.393c0-5.036,3.357-8.393,8.393-8.393h25.18
		c5.036,0,8.393,3.357,8.393,8.393C435.575,306.316,432.218,309.674,427.182,309.674z"/>
	<path d="M427.182,276.1h-25.18c-5.036,0-8.393-3.357-8.393-8.393s3.357-8.393,8.393-8.393h25.18c5.036,0,8.393,3.357,8.393,8.393
		S432.218,276.1,427.182,276.1z"/>
	<path d="M427.182,242.526h-25.18c-5.036,0-8.393-3.357-8.393-8.393s3.357-8.393,8.393-8.393h25.18c5.036,0,8.393,3.357,8.393,8.393
		S432.218,242.526,427.182,242.526z"/>
	<path d="M301.28,108.231c-5.036,0-8.393-3.357-8.393-8.393v-25.18c0-5.036,3.357-8.393,8.393-8.393
		c5.036,0,8.393,3.357,8.393,8.393v25.18C309.674,104.874,306.316,108.231,301.28,108.231z"/>
	<path d="M200.559,108.231c-5.036,0-8.393-3.357-8.393-8.393v-25.18c0-5.036,3.357-8.393,8.393-8.393s8.393,3.357,8.393,8.393v25.18
		C208.952,104.874,205.595,108.231,200.559,108.231z"/>
	<path d="M234.133,108.231c-5.036,0-8.393-3.357-8.393-8.393v-25.18c0-5.036,3.357-8.393,8.393-8.393
		c5.036,0,8.393,3.357,8.393,8.393v25.18C242.526,104.874,239.169,108.231,234.133,108.231z"/>
	<path d="M267.706,108.231c-5.036,0-8.393-3.357-8.393-8.393v-25.18c0-5.036,3.357-8.393,8.393-8.393
		c5.036,0,8.393,3.357,8.393,8.393v25.18C276.1,104.874,272.742,108.231,267.706,108.231z"/>
	<path d="M301.28,435.575c-5.036,0-8.393-3.357-8.393-8.393v-25.18c0-5.036,3.357-8.393,8.393-8.393
		c5.036,0,8.393,3.357,8.393,8.393v25.18C309.674,432.218,306.316,435.575,301.28,435.575z"/>
	<path d="M200.559,435.575c-5.036,0-8.393-3.357-8.393-8.393v-25.18c0-5.036,3.357-8.393,8.393-8.393s8.393,3.357,8.393,8.393v25.18
		C208.952,432.218,205.595,435.575,200.559,435.575z"/>
	<path d="M234.133,435.575c-5.036,0-8.393-3.357-8.393-8.393v-25.18c0-5.036,3.357-8.393,8.393-8.393
		c5.036,0,8.393,3.357,8.393,8.393v25.18C242.526,432.218,239.169,435.575,234.133,435.575z"/>
	<path d="M267.706,435.575c-5.036,0-8.393-3.357-8.393-8.393v-25.18c0-5.036,3.357-8.393,8.393-8.393
		c5.036,0,8.393,3.357,8.393,8.393v25.18C276.1,432.218,272.742,435.575,267.706,435.575z"/>
	<path d="M41.083,208.952H7.51c-5.036,0-8.393-3.357-8.393-8.393s3.357-8.393,8.393-8.393h33.574c5.036,0,8.393,3.357,8.393,8.393
		S46.119,208.952,41.083,208.952z"/>
	<path d="M41.083,242.526H7.51c-5.036,0-8.393-3.357-8.393-8.393s3.357-8.393,8.393-8.393h33.574c5.036,0,8.393,3.357,8.393,8.393
		S46.119,242.526,41.083,242.526z"/>
	<path d="M41.083,276.1H7.51c-5.036,0-8.393-3.357-8.393-8.393s3.357-8.393,8.393-8.393h33.574c5.036,0,8.393,3.357,8.393,8.393
		S46.119,276.1,41.083,276.1z"/>
	<path d="M41.083,309.674H7.51c-5.036,0-8.393-3.357-8.393-8.393c0-5.036,3.357-8.393,8.393-8.393h33.574
		c5.036,0,8.393,3.357,8.393,8.393C49.477,306.316,46.119,309.674,41.083,309.674z"/>
	<path d="M494.329,208.952h-33.574c-5.036,0-8.393-3.357-8.393-8.393s3.357-8.393,8.393-8.393h33.574
		c5.036,0,8.393,3.357,8.393,8.393S499.365,208.952,494.329,208.952z"/>
	<path d="M494.329,242.526h-33.574c-5.036,0-8.393-3.357-8.393-8.393s3.357-8.393,8.393-8.393h33.574
		c5.036,0,8.393,3.357,8.393,8.393S499.365,242.526,494.329,242.526z"/>
	<path d="M494.329,276.1h-33.574c-5.036,0-8.393-3.357-8.393-8.393s3.357-8.393,8.393-8.393h33.574c5.036,0,8.393,3.357,8.393,8.393
		S499.365,276.1,494.329,276.1z"/>
	<path d="M494.329,309.674h-33.574c-5.036,0-8.393-3.357-8.393-8.393c0-5.036,3.357-8.393,8.393-8.393h33.574
		c5.036,0,8.393,3.357,8.393,8.393C502.723,306.316,499.365,309.674,494.329,309.674z"/>
	<path d="M200.559,502.723c-5.036,0-8.393-3.357-8.393-8.393v-33.574c0-5.036,3.357-8.393,8.393-8.393s8.393,3.357,8.393,8.393
		v33.574C208.952,499.365,205.595,502.723,200.559,502.723z"/>
	<path d="M234.133,502.723c-5.036,0-8.393-3.357-8.393-8.393v-33.574c0-5.036,3.357-8.393,8.393-8.393
		c5.036,0,8.393,3.357,8.393,8.393v33.574C242.526,499.365,239.169,502.723,234.133,502.723z"/>
	<path d="M267.706,502.723c-5.036,0-8.393-3.357-8.393-8.393v-33.574c0-5.036,3.357-8.393,8.393-8.393
		c5.036,0,8.393,3.357,8.393,8.393v33.574C276.1,499.365,272.742,502.723,267.706,502.723z"/>
	<path d="M301.28,502.723c-5.036,0-8.393-3.357-8.393-8.393v-33.574c0-5.036,3.357-8.393,8.393-8.393
		c5.036,0,8.393,3.357,8.393,8.393v33.574C309.674,499.365,306.316,502.723,301.28,502.723z"/>
	<path d="M200.559,49.477c-5.036,0-8.393-3.357-8.393-8.393V7.51c0-5.036,3.357-8.393,8.393-8.393s8.393,3.357,8.393,8.393v33.574
		C208.952,46.119,205.595,49.477,200.559,49.477z"/>
	<path d="M234.133,49.477c-5.036,0-8.393-3.357-8.393-8.393V7.51c0-5.036,3.357-8.393,8.393-8.393c5.036,0,8.393,3.357,8.393,8.393
		v33.574C242.526,46.119,239.169,49.477,234.133,49.477z"/>
	<path d="M267.706,49.477c-5.036,0-8.393-3.357-8.393-8.393V7.51c0-5.036,3.357-8.393,8.393-8.393c5.036,0,8.393,3.357,8.393,8.393
		v33.574C276.1,46.119,272.742,49.477,267.706,49.477z"/>
	<path d="M301.28,49.477c-5.036,0-8.393-3.357-8.393-8.393V7.51c0-5.036,3.357-8.393,8.393-8.393c5.036,0,8.393,3.357,8.393,8.393
		v33.574C309.674,46.119,306.316,49.477,301.28,49.477z"/>
	<path d="M125.018,125.018c-1.679,0-4.197-0.839-5.875-2.518L1.634,13.385c-3.357-3.357-3.357-8.393-0.839-11.751
		c3.357-3.357,8.393-3.357,11.751-0.839L130.054,109.91c3.357,3.357,3.357,8.393,0.839,11.751
		C129.215,124.178,127.536,125.018,125.018,125.018z"/>
	<path d="M376.821,125.018c-2.518,0-4.197-0.839-5.875-2.518c-3.357-3.357-3.357-8.393,0.839-11.751L489.293,1.634
		c3.357-3.357,8.393-3.357,11.751,0.839c3.357,3.357,3.357,8.393-0.839,11.751L382.697,123.339
		C381.018,124.178,378.5,125.018,376.821,125.018z"/>
	<path d="M494.329,502.723c-1.679,0-4.197-0.839-5.875-2.518L370.946,391.09c-3.357-3.357-3.357-8.393-0.839-11.751
		c3.357-3.357,8.393-3.357,11.751-0.839l117.508,109.115c3.357,3.357,3.357,8.393,0.839,11.751
		C498.526,501.883,496.847,502.723,494.329,502.723z"/>
	<path d="M7.51,502.723c-2.518,0-4.197-0.839-5.875-2.518c-3.357-3.357-3.357-8.393,0.839-11.751l117.508-109.115
		c3.357-3.357,8.393-3.357,11.751,0.839c3.357,3.357,3.357,8.393-0.839,11.751L13.385,501.044
		C11.706,501.883,9.188,502.723,7.51,502.723z"/>
	<path d="M261.831,343.247h-19.305c-4.197,0-7.554-2.518-8.393-6.715l-1.679-10.072c-1.679-6.715-6.715-10.072-12.59-10.072
		c-2.518,0-5.036,0.839-7.554,2.518l-8.393,6.715c-3.357,2.518-7.554,2.518-10.911-0.839l-13.43-13.429
		c-2.518-2.518-3.357-7.554-0.839-10.911l5.875-8.393c2.518-3.357,2.518-7.554,0.839-11.751c-1.679-4.197-5.036-6.715-9.233-7.554
		l-10.911-1.679c-4.197-0.839-6.715-4.197-6.715-8.393v-20.144c0-4.197,2.518-7.554,6.715-8.393l10.072-1.679
		c4.197-0.839,7.554-3.357,9.233-7.554c1.679-4.197,0.839-8.393-1.679-11.751l-6.715-8.393c-2.518-3.357-1.679-7.554,0.839-10.911
		l13.43-13.43c2.518-2.518,7.554-3.357,10.911-0.839l10.911,7.554c2.518,1.679,4.197,2.518,6.715,2.518
		c5.036,0,10.911-3.357,12.59-10.072l2.518-13.43c0.839-4.197,4.197-6.715,8.393-6.715h19.305c4.197,0,7.554,3.357,8.393,6.715
		l1.679,10.911c0.839,6.715,6.715,10.911,12.59,10.911c2.518,0,5.036-0.839,6.715-2.518l8.393-5.875
		c3.357-2.518,7.554-1.679,10.911,0.839l13.43,13.43c2.518,2.518,3.357,7.554,0.839,10.911l-6.715,8.393
		c-2.518,3.357-3.357,7.554-1.679,11.751c1.679,4.197,5.036,6.715,9.233,7.554l10.072,1.679c4.197,0.839,6.715,4.197,6.715,8.393
		v19.305c0,4.197-3.357,7.554-6.715,8.393l-10.911,1.679c-4.197,0.839-7.554,3.357-9.233,7.554
		c-1.679,4.197-1.679,8.393,0.839,11.751l5.875,8.393c2.518,3.357,1.679,7.554-0.839,10.911l-13.429,13.43
		c-2.518,3.357-7.554,3.357-10.911,0.839l-5.875-4.197c-2.518-1.679-5.036-2.518-7.554-2.518c-5.036,0-10.911,3.357-12.59,10.911
		l-0.839,7.554C270.224,339.89,266.028,343.247,261.831,343.247z M250.08,326.46h5.036c2.518-14.269,14.269-24.341,28.538-24.341
		c5.875,0,11.751,1.679,16.787,5.875l0,0l3.357-3.357l-1.679-2.518c-5.875-8.393-6.715-18.466-2.518-27.698
		c4.197-9.233,12.59-15.948,22.662-16.787l3.357-0.839v-5.036l-3.357-0.839c-10.072-1.679-17.626-8.393-21.823-17.626
		c-4.197-9.233-2.518-20.144,3.357-27.698l1.679-2.518l-3.357-3.357l-2.518,1.679c-5.036,3.357-10.911,5.036-15.948,5.036
		c-14.269,0-26.859-10.072-28.538-25.18l0-5.875h-5.036l-0.839,5.875c-2.518,13.43-15.108,23.502-28.538,23.502
		c-5.875,0-11.751-1.679-15.948-5.036l-5.036-3.357l-5.036,4.197l1.679,2.518c5.875,8.393,7.554,18.466,3.357,27.698
		c-3.357,9.233-11.751,15.948-21.823,17.626l-2.518,1.679v5.036l3.357,0.839c10.072,1.679,18.466,7.554,22.662,16.787
		c4.197,9.233,3.357,19.305-2.518,27.698l-1.679,2.518l3.357,3.357l2.518-1.679c5.036-3.357,10.911-5.875,16.787-5.875
		c14.269,0,26.02,10.072,28.538,23.502L250.08,326.46z"/>
	<path d="M250.919,284.493c-18.466,0-33.574-15.108-33.574-33.574s15.108-33.574,33.574-33.574s33.574,15.108,33.574,33.574
		S269.385,284.493,250.919,284.493z M250.919,234.133c-9.233,0-16.787,7.554-16.787,16.787s7.554,16.787,16.787,16.787
		s16.787-7.554,16.787-16.787S260.152,234.133,250.919,234.133z"/>
</g>
<g>
</g>
<g>
</g>
<g>
</g>
<g>
</g>
<g>
</g>
<g>
</g>
<g>
</g>
<g>
</g>
<g>
</g>
<g>
</g>
<g>
</g>
<g>
</g>
<g>
</g>
<g>
</g>
<g>
</g>
</svg>
