<?xml version="1.0" encoding="iso-8859-1"?>
<!-- Generator: Adobe Illustrator 19.0.0, SVG Export Plug-In . SVG Version: 6.00 Build 0)  -->
<svg version="1.1" id="Layer_1" xmlns="http://www.w3.org/2000/svg" xmlns:xlink="http://www.w3.org/1999/xlink" x="0px" y="0px"
	 viewBox="0 0 512 512" style="enable-background:new 0 0 512 512;" xml:space="preserve">
<g transform="translate(1 1)">
	<path style="fill:#FFE100;" d="M400.067,75.8c-5.12,0-8.533-3.413-8.533-8.533c0-23.893-18.773-42.667-42.667-42.667H178.2
		c-23.893,0-42.667,18.773-42.667,42.667c0,5.12-3.413,8.533-8.533,8.533s-8.533-3.413-8.533-8.533
		c0-33.28,26.453-59.733,59.733-59.733h170.667c33.28,0,59.733,26.453,59.733,59.733C408.6,72.387,405.187,75.8,400.067,75.8z"/>
	<g>
		<path style="fill:#FDCC00;" d="M203.8,169.667H33.133c-9.387,0-17.067-7.68-17.067-17.067l0,0c0-9.387,7.68-17.067,17.067-17.067
			H203.8c9.387,0,17.067,7.68,17.067,17.067l0,0C220.867,161.987,213.187,169.667,203.8,169.667"/>
		<path style="fill:#FDCC00;" d="M203.8,280.6H33.133c-9.387,0-17.067-7.68-17.067-17.067l0,0c0-9.387,7.68-17.067,17.067-17.067
			H203.8c9.387,0,17.067,7.68,17.067,17.067l0,0C220.867,272.92,213.187,280.6,203.8,280.6"/>
		<path style="fill:#FDCC00;" d="M476.867,169.667H306.2c-9.387,0-17.067-7.68-17.067-17.067l0,0c0-9.387,7.68-17.067,17.067-17.067
			h170.667c9.387,0,17.067,7.68,17.067,17.067l0,0C493.933,161.987,486.253,169.667,476.867,169.667"/>
		<path style="fill:#FDCC00;" d="M476.867,280.6H306.2c-9.387,0-17.067-7.68-17.067-17.067l0,0c0-9.387,7.68-17.067,17.067-17.067
			h170.667c9.387,0,17.067,7.68,17.067,17.067l0,0C493.933,272.92,486.253,280.6,476.867,280.6"/>
	</g>
	<g>
		<path style="fill:#FFE100;" d="M195.267,135.533V116.76c0-31.573-26.453-58.027-58.027-58.027h-36.693
			c-32.427,0-58.88,26.453-58.88,58.027v18.773H195.267z"/>
		<polygon style="fill:#FFE100;" points="41.667,246.467 195.267,246.467 195.267,169.667 41.667,169.667 		"/>
		<polygon style="fill:#FFE100;" points="41.667,348.867 195.267,348.867 195.267,280.6 41.667,280.6 		"/>
		<path style="fill:#FFE100;" d="M468.333,135.533V116.76c0-31.573-26.453-58.027-58.027-58.027h-36.693
			c-32.427,0-58.88,26.453-58.88,58.027v18.773H468.333z"/>
		<polygon style="fill:#FFE100;" points="314.733,246.467 468.333,246.467 468.333,169.667 314.733,169.667 		"/>
		<polygon style="fill:#FFE100;" points="314.733,348.867 468.333,348.867 468.333,280.6 314.733,280.6 		"/>
		<polygon style="fill:#FFE100;" points="7.533,502.467 502.467,502.467 502.467,348.867 7.533,348.867 		"/>
	</g>
	<g>
		<path style="fill:#FFFFFF;" d="M33.133,135.533H50.2c-9.387,0-17.067,7.68-17.067,17.067s7.68,17.067,17.067,17.067H33.133
			c-9.387,0-17.067-7.68-17.067-17.067S23.747,135.533,33.133,135.533"/>
		<path style="fill:#FFFFFF;" d="M33.133,246.467H50.2c-9.387,0-17.067,7.68-17.067,17.067c0,9.387,7.68,17.067,17.067,17.067
			H33.133c-9.387,0-17.067-7.68-17.067-17.067C16.067,254.147,23.747,246.467,33.133,246.467"/>
		<path style="fill:#FFFFFF;" d="M99.693,58.733h17.067c-31.573,0-58.027,26.453-58.027,58.027v18.773H41.667V116.76
			C41.667,85.187,68.12,58.733,99.693,58.733"/>
		<polygon style="fill:#FFFFFF;" points="41.667,246.467 58.733,246.467 58.733,169.667 41.667,169.667 		"/>
		<polygon style="fill:#FFFFFF;" points="41.667,348.867 58.733,348.867 58.733,280.6 41.667,280.6 		"/>
		<polygon style="fill:#FFFFFF;" points="7.533,502.467 24.6,502.467 24.6,348.867 7.533,348.867 		"/>
	</g>
	<g>
		<polygon style="fill:#63D3FD;" points="50.2,425.667 84.333,425.667 84.333,391.533 50.2,391.533 		"/>
		<polygon style="fill:#63D3FD;" points="127,425.667 161.133,425.667 161.133,391.533 127,391.533 		"/>
		<polygon style="fill:#63D3FD;" points="280.6,425.667 314.733,425.667 314.733,391.533 280.6,391.533 		"/>
		<polygon style="fill:#63D3FD;" points="357.4,425.667 391.533,425.667 391.533,391.533 357.4,391.533 		"/>
		<polygon style="fill:#63D3FD;" points="434.2,425.667 468.333,425.667 468.333,391.533 434.2,391.533 		"/>
		<polygon style="fill:#63D3FD;" points="203.8,425.667 237.933,425.667 237.933,391.533 203.8,391.533 		"/>
	</g>
	<path d="M502.467,511H7.533C2.413,511-1,507.587-1,502.467v-153.6c0-5.12,3.413-8.533,8.533-8.533h494.933
		c5.12,0,8.533,3.413,8.533,8.533v153.6C511,507.587,507.587,511,502.467,511z M16.067,493.933h477.867V357.4H16.067V493.933z"/>
	<path d="M84.333,434.2H50.2c-5.12,0-8.533-3.413-8.533-8.533v-34.133c0-5.12,3.413-8.533,8.533-8.533h34.133
		c5.12,0,8.533,3.413,8.533,8.533v34.133C92.867,430.787,89.453,434.2,84.333,434.2z M58.733,417.133H75.8v-17.067H58.733V417.133z"
		/>
	<path d="M84.333,468.333H50.2c-5.12,0-8.533-3.413-8.533-8.533s3.413-8.533,8.533-8.533h34.133c5.12,0,8.533,3.413,8.533,8.533
		S89.453,468.333,84.333,468.333z"/>
	<path d="M161.133,434.2H127c-5.12,0-8.533-3.413-8.533-8.533v-34.133c0-5.12,3.413-8.533,8.533-8.533h34.133
		c5.12,0,8.533,3.413,8.533,8.533v34.133C169.667,430.787,166.253,434.2,161.133,434.2z M135.533,417.133H152.6v-17.067h-17.067
		V417.133z"/>
	<path d="M161.133,468.333H127c-5.12,0-8.533-3.413-8.533-8.533s3.413-8.533,8.533-8.533h34.133c5.12,0,8.533,3.413,8.533,8.533
		S166.253,468.333,161.133,468.333z"/>
	<path d="M314.733,434.2H280.6c-5.12,0-8.533-3.413-8.533-8.533v-34.133c0-5.12,3.413-8.533,8.533-8.533h34.133
		c5.12,0,8.533,3.413,8.533,8.533v34.133C323.267,430.787,319.853,434.2,314.733,434.2z M289.133,417.133H306.2v-17.067h-17.067
		V417.133z"/>
	<path d="M314.733,468.333H280.6c-5.12,0-8.533-3.413-8.533-8.533s3.413-8.533,8.533-8.533h34.133c5.12,0,8.533,3.413,8.533,8.533
		S319.853,468.333,314.733,468.333z"/>
	<path d="M391.533,434.2H357.4c-5.12,0-8.533-3.413-8.533-8.533v-34.133c0-5.12,3.413-8.533,8.533-8.533h34.133
		c5.12,0,8.533,3.413,8.533,8.533v34.133C400.067,430.787,396.653,434.2,391.533,434.2z M365.933,417.133H383v-17.067h-17.067
		V417.133z"/>
	<path d="M391.533,468.333H357.4c-5.12,0-8.533-3.413-8.533-8.533s3.413-8.533,8.533-8.533h34.133c5.12,0,8.533,3.413,8.533,8.533
		S396.653,468.333,391.533,468.333z"/>
	<path d="M468.333,434.2H434.2c-5.12,0-8.533-3.413-8.533-8.533v-34.133c0-5.12,3.413-8.533,8.533-8.533h34.133
		c5.12,0,8.533,3.413,8.533,8.533v34.133C476.867,430.787,473.453,434.2,468.333,434.2z M442.733,417.133H459.8v-17.067h-17.067
		V417.133z"/>
	<path d="M468.333,468.333H434.2c-5.12,0-8.533-3.413-8.533-8.533s3.413-8.533,8.533-8.533h34.133c5.12,0,8.533,3.413,8.533,8.533
		S473.453,468.333,468.333,468.333z"/>
	<path d="M237.933,434.2H203.8c-5.12,0-8.533-3.413-8.533-8.533v-34.133c0-5.12,3.413-8.533,8.533-8.533h34.133
		c5.12,0,8.533,3.413,8.533,8.533v34.133C246.467,430.787,243.053,434.2,237.933,434.2z M212.333,417.133H229.4v-17.067h-17.067
		V417.133z"/>
	<path d="M237.933,468.333H203.8c-5.12,0-8.533-3.413-8.533-8.533s3.413-8.533,8.533-8.533h34.133c5.12,0,8.533,3.413,8.533,8.533
		S243.053,468.333,237.933,468.333z"/>
	<path d="M203.8,178.2H33.133c-14.507,0-25.6-11.093-25.6-25.6c0-14.507,11.093-25.6,25.6-25.6H203.8
		c14.507,0,25.6,11.093,25.6,25.6C229.4,167.107,218.307,178.2,203.8,178.2z M33.133,144.067c-5.12,0-8.533,3.413-8.533,8.533
		c0,5.12,3.413,8.533,8.533,8.533H203.8c5.12,0,8.533-3.413,8.533-8.533c0-5.12-3.413-8.533-8.533-8.533H33.133z"/>
	<path d="M203.8,289.133H33.133c-14.507,0-25.6-11.093-25.6-25.6c0-14.507,11.093-25.6,25.6-25.6H203.8
		c14.507,0,25.6,11.093,25.6,25.6C229.4,278.04,218.307,289.133,203.8,289.133z M33.133,255c-5.12,0-8.533,3.413-8.533,8.533
		c0,5.12,3.413,8.533,8.533,8.533H203.8c5.12,0,8.533-3.413,8.533-8.533c0-5.12-3.413-8.533-8.533-8.533H33.133z"/>
	<path d="M476.867,178.2H306.2c-14.507,0-25.6-11.093-25.6-25.6c0-14.507,11.093-25.6,25.6-25.6h170.667
		c14.507,0,25.6,11.093,25.6,25.6C502.467,167.107,491.373,178.2,476.867,178.2z M306.2,144.067c-5.12,0-8.533,3.413-8.533,8.533
		c0,5.12,3.413,8.533,8.533,8.533h170.667c5.12,0,8.533-3.413,8.533-8.533c0-5.12-3.413-8.533-8.533-8.533H306.2z"/>
	<path d="M476.867,289.133H306.2c-14.507,0-25.6-11.093-25.6-25.6c0-14.507,11.093-25.6,25.6-25.6h170.667
		c14.507,0,25.6,11.093,25.6,25.6C502.467,278.04,491.373,289.133,476.867,289.133z M306.2,255c-5.12,0-8.533,3.413-8.533,8.533
		c0,5.12,3.413,8.533,8.533,8.533h170.667c5.12,0,8.533-3.413,8.533-8.533c0-5.12-3.413-8.533-8.533-8.533H306.2z"/>
	<path d="M400.067,58.733H383c0-23.893-18.773-42.667-42.667-42.667H169.667C145.773,16.067,127,34.84,127,58.733h-17.067
		C109.933,25.453,136.387-1,169.667-1h170.667C373.613-1,400.067,25.453,400.067,58.733z"/>
	<path d="M203.8,144.067H33.133V116.76c0-36.693,29.867-66.56,66.56-66.56h36.693c36.693,0,66.56,29.867,66.56,66.56v27.307H203.8z
		 M50.2,127h136.533v-10.24c0-27.307-22.187-49.493-49.493-49.493h-36.693c-28.16,0-50.347,22.187-50.347,49.493V127z"/>
	<path d="M203.8,255H33.133v-93.867H203.8V255z M50.2,237.933h136.533V178.2H50.2V237.933z"/>
	<path d="M203.8,357.4H33.133v-85.333H203.8V357.4z M50.2,340.333h136.533v-51.2H50.2V340.333z"/>
	<path d="M476.867,144.067H306.2V116.76c0-36.693,29.867-66.56,66.56-66.56h36.693c36.693,0,66.56,29.867,66.56,66.56v27.307
		H476.867z M323.267,127H459.8v-10.24c0-27.307-22.187-49.493-49.493-49.493h-36.693c-28.16,0-50.347,22.187-50.347,49.493V127z"/>
	<path d="M476.867,255H306.2v-93.867h170.667V255z M323.267,237.933H459.8V178.2H323.267V237.933z"/>
	<path d="M476.867,357.4H306.2v-85.333h170.667V357.4z M323.267,340.333H459.8v-51.2H323.267V340.333z"/>
</g>
<g>
</g>
<g>
</g>
<g>
</g>
<g>
</g>
<g>
</g>
<g>
</g>
<g>
</g>
<g>
</g>
<g>
</g>
<g>
</g>
<g>
</g>
<g>
</g>
<g>
</g>
<g>
</g>
<g>
</g>
</svg>
