<?xml version="1.0" encoding="iso-8859-1"?>
<!-- Generator: Adobe Illustrator 19.0.0, SVG Export Plug-In . SVG Version: 6.00 Build 0)  -->
<svg version="1.1" id="Layer_1" xmlns="http://www.w3.org/2000/svg" xmlns:xlink="http://www.w3.org/1999/xlink" x="0px" y="0px"
	 viewBox="0 0 512 512" style="enable-background:new 0 0 512 512;" xml:space="preserve">
<g>
	<g>
		<path d="M510.456,324.053L462.439,192l48.017-132.053c2.85-7.851,1.698-16.597-3.089-23.433
			C502.58,29.67,494.755,25.6,486.401,25.6h-460.8V0h-25.6v512h25.6V358.4h460.8c8.354,0,16.179-4.07,20.966-10.914
			C512.154,340.651,513.315,331.904,510.456,324.053z M230.401,51.2h256l-9.31,25.6h-246.69V51.2z M230.401,102.4h237.38l-9.31,25.6
			h-228.07V102.4z M230.401,153.6h218.761l-9.31,25.6H230.401V153.6z M230.401,204.8h209.451l9.31,25.6h-218.76V204.8z M25.601,51.2
			h179.2v179.2h-179.2V51.2z M25.601,256h179.2h25.6h228.07l9.31,25.6H25.601V256z M25.601,332.8v-25.6h451.49l9.31,25.6H25.601z"/>
	</g>
</g>
<g>
	<g>
		<circle cx="64.001" cy="89.6" r="12.8"/>
	</g>
</g>
<g>
	<g>
		<circle cx="115.201" cy="89.6" r="12.8"/>
	</g>
</g>
<g>
	<g>
		<circle cx="166.401" cy="89.6" r="12.8"/>
	</g>
</g>
<g>
	<g>
		<circle cx="64.001" cy="140.8" r="12.8"/>
	</g>
</g>
<g>
	<g>
		<circle cx="166.401" cy="140.8" r="12.8"/>
	</g>
</g>
<g>
	<g>
		<circle cx="115.201" cy="140.8" r="12.8"/>
	</g>
</g>
<g>
	<g>
		<circle cx="64.001" cy="192" r="12.8"/>
	</g>
</g>
<g>
	<g>
		<circle cx="115.201" cy="192" r="12.8"/>
	</g>
</g>
<g>
	<g>
		<circle cx="166.401" cy="192" r="12.8"/>
	</g>
</g>
<g>
</g>
<g>
</g>
<g>
</g>
<g>
</g>
<g>
</g>
<g>
</g>
<g>
</g>
<g>
</g>
<g>
</g>
<g>
</g>
<g>
</g>
<g>
</g>
<g>
</g>
<g>
</g>
<g>
</g>
</svg>
