<?xml version="1.0" encoding="iso-8859-1"?>
<!-- Generator: Adobe Illustrator 19.0.0, SVG Export Plug-In . SVG Version: 6.00 Build 0)  -->
<svg version="1.1" id="Layer_1" xmlns="http://www.w3.org/2000/svg" xmlns:xlink="http://www.w3.org/1999/xlink" x="0px" y="0px"
	 viewBox="0 0 512.008 512.008" style="enable-background:new 0 0 512.008 512.008;" xml:space="preserve">
<g>
	<g>
		<path d="M307.204,161.117v-33.118c0-14.14-11.46-25.6-25.6-25.6h-8.738l69.666-81.28c4.599-5.359,3.977-13.44-1.399-18.039
			c-5.299-4.591-13.397-3.985-18.048,1.391l-67.081,78.268L188.932,4.471c-4.625-5.376-12.723-5.973-18.048-1.391
			c-5.376,4.599-5.999,12.672-1.399,18.039l69.666,81.28h-8.747c-14.14,0-25.6,11.46-25.6,25.6v33.118
			c-74.01,22.042-128,90.522-128,171.691c0,98.97,80.23,179.2,179.2,179.2s179.2-80.23,179.2-179.2
			C435.204,251.639,381.213,183.159,307.204,161.117z M230.404,127.999h51.2v27.639c-8.38-1.203-16.888-2.039-25.6-2.039
			c-8.713,0-17.22,0.836-25.6,2.039V127.999z M256.004,486.408c-84.693,0-153.6-68.907-153.6-153.6s68.907-153.6,153.6-153.6
			s153.6,68.907,153.6,153.6S340.697,486.408,256.004,486.408z"/>
	</g>
</g>
<g>
</g>
<g>
</g>
<g>
</g>
<g>
</g>
<g>
</g>
<g>
</g>
<g>
</g>
<g>
</g>
<g>
</g>
<g>
</g>
<g>
</g>
<g>
</g>
<g>
</g>
<g>
</g>
<g>
</g>
</svg>
