<?xml version="1.0" encoding="iso-8859-1"?>
<!-- Generator: Adobe Illustrator 19.0.0, SVG Export Plug-In . SVG Version: 6.00 Build 0)  -->
<svg version="1.1" id="Layer_1" xmlns="http://www.w3.org/2000/svg" xmlns:xlink="http://www.w3.org/1999/xlink" x="0px" y="0px"
	 viewBox="0 0 512 512" style="enable-background:new 0 0 512 512;" xml:space="preserve">
<rect x="149.333" y="96" style="fill:#D8CCBC;" width="32" height="53.333"/>
<rect x="330.667" y="96" style="fill:#BFA993;" width="32" height="53.333"/>
<rect x="170.667" y="298.667" style="fill:#D8CCBC;" width="170.667" height="213.333"/>
<rect x="256" y="298.667" style="fill:#BFA993;" width="85.333" height="213.333"/>
<rect x="149.333" y="138.667" style="fill:#EBE4DD;" width="213.333" height="170.667"/>
<rect x="256" y="138.667" style="fill:#D8CCBC;" width="106.667" height="170.667"/>
<path style="fill:#F8F8F9;" d="M256,272c-26.467,0-48-21.533-48-48s21.533-48,48-48s48,21.533,48,48S282.467,272,256,272z"/>
<rect x="240" style="fill:#EBE4DD;" width="32" height="64"/>
<rect x="282.667" y="352" style="fill:#A58868;" width="32" height="117.333"/>
<rect x="200.885" y="352" style="fill:#BFA993;" width="32" height="117.333"/>
<polygon style="fill:#88888F;" points="288,53.333 224,53.333 181.333,138.667 330.667,138.667 "/>
<polygon style="fill:#797781;" points="288,53.333 256,53.333 256,138.667 330.667,138.667 "/>
<path style="fill:#EDEDED;" d="M256,176v96c26.467,0,48-21.533,48-48S282.467,176,256,176z"/>
<g>
</g>
<g>
</g>
<g>
</g>
<g>
</g>
<g>
</g>
<g>
</g>
<g>
</g>
<g>
</g>
<g>
</g>
<g>
</g>
<g>
</g>
<g>
</g>
<g>
</g>
<g>
</g>
<g>
</g>
</svg>
