<?xml version="1.0" encoding="iso-8859-1"?>
<!-- Generator: Adobe Illustrator 19.0.0, SVG Export Plug-In . SVG Version: 6.00 Build 0)  -->
<svg version="1.1" id="Layer_1" xmlns="http://www.w3.org/2000/svg" xmlns:xlink="http://www.w3.org/1999/xlink" x="0px" y="0px"
	 viewBox="0 0 512 512" style="enable-background:new 0 0 512 512;" xml:space="preserve">
<g>
	<g>
		<path d="M403.944,140.27V93.079C403.944,41.755,362.475,0,311.503,0C290.691,0,271.467,6.963,256,18.693
			C240.532,6.963,221.308,0,200.496,0c-50.971,0-92.44,41.755-92.44,93.079v47.191H42.68V512H469.32V140.27H403.944z
			 M311.503,30.417c34.2,0,62.024,28.111,62.024,62.661v47.191h-80.589V93.079c0-19.284-5.854-37.214-15.867-52.088
			C286.929,34.318,298.772,30.417,311.503,30.417z M256,65.16c4.163,8.413,6.521,17.891,6.521,27.919v47.191h-13.04V93.079h-0.001
			C249.48,83.05,251.836,73.573,256,65.16z M138.472,93.079h0.001c0-34.551,27.824-62.661,62.023-62.661
			c12.731,0,24.575,3.901,34.432,10.573c-10.012,14.874-15.867,32.805-15.867,52.088v47.191h-80.589V93.079z M327.896,481.583
			H73.098V170.687h254.798V481.583z M358.313,170.687h25.086v260.507l-25.086,26.153V170.687z M377.213,481.583l21.241-22.145
			l20.663,22.145H377.213z M438.902,458.2l-25.086-26.885V170.687h25.086V458.2z"/>
	</g>
</g>
<g>
</g>
<g>
</g>
<g>
</g>
<g>
</g>
<g>
</g>
<g>
</g>
<g>
</g>
<g>
</g>
<g>
</g>
<g>
</g>
<g>
</g>
<g>
</g>
<g>
</g>
<g>
</g>
<g>
</g>
</svg>
