<?xml version="1.0" encoding="iso-8859-1"?>
<!-- Generator: Adobe Illustrator 19.0.0, SVG Export Plug-In . SVG Version: 6.00 Build 0)  -->
<svg version="1.1" id="Layer_1" xmlns="http://www.w3.org/2000/svg" xmlns:xlink="http://www.w3.org/1999/xlink" x="0px" y="0px"
	 viewBox="0 0 512 512" style="enable-background:new 0 0 512 512;" xml:space="preserve">
<g>
	<g>
		<g>
			<path d="M489.594,104.079l-60.331-60.331c-8.331-8.331-21.839-8.331-30.17,0s-8.331,21.839,0,30.17l15.076,15.076l-35.275,35.275
				c-29.274-20.666-63.981-34.147-101.561-37.878V42.667h21.333c11.782,0,21.333-9.551,21.333-21.333C320,9.551,310.449,0,298.667,0
				h-85.333C201.551,0,192,9.551,192,21.333c0,11.782,9.551,21.333,21.333,21.333h21.333v43.725
				c-37.58,3.731-72.286,17.212-101.561,37.878L97.831,88.994l15.076-15.076c8.331-8.331,8.331-21.839,0-30.17
				s-21.839-8.331-30.17,0l-60.331,60.331c-8.331,8.331-8.331,21.839,0,30.17c8.331,8.331,21.839,8.331,30.17,0l15.085-15.085
				l33.14,33.14C64.763,190.504,42.667,242,42.667,298.667C42.667,416.497,138.17,512,256,512s213.333-95.503,213.333-213.333
				c0-56.667-22.096-108.163-58.134-146.363l33.14-33.14l15.085,15.085c8.331,8.331,21.839,8.331,30.17,0
				C497.925,125.917,497.925,112.41,489.594,104.079z M256,469.333c-94.266,0-170.667-76.401-170.667-170.667S161.734,128,256,128
				s170.667,76.401,170.667,170.667S350.266,469.333,256,469.333z"/>
			<path d="M277.333,238.321V192c0-11.782-9.551-21.333-21.333-21.333s-21.333,9.551-21.333,21.333v46.321
				C209.808,247.105,192,270.794,192,298.667c0,35.355,28.645,64,64,64s64-28.645,64-64
				C320,270.794,302.192,247.105,277.333,238.321z M256,320c-11.791,0-21.333-9.542-21.333-21.333s9.542-21.333,21.333-21.333
				s21.333,9.542,21.333,21.333S267.791,320,256,320z"/>
		</g>
	</g>
</g>
<g>
</g>
<g>
</g>
<g>
</g>
<g>
</g>
<g>
</g>
<g>
</g>
<g>
</g>
<g>
</g>
<g>
</g>
<g>
</g>
<g>
</g>
<g>
</g>
<g>
</g>
<g>
</g>
<g>
</g>
</svg>
