<?xml version="1.0" encoding="iso-8859-1"?>
<!-- Generator: Adobe Illustrator 19.0.0, SVG Export Plug-In . SVG Version: 6.00 Build 0)  -->
<svg version="1.1" id="Layer_1" xmlns="http://www.w3.org/2000/svg" xmlns:xlink="http://www.w3.org/1999/xlink" x="0px" y="0px"
	 viewBox="0 0 512 512" style="enable-background:new 0 0 512 512;" xml:space="preserve">
<g>
	<g>
		<path d="M256,0C114.842,0,0,114.842,0,256s114.842,256,256,256c141.16,0,256-114.842,256-256S397.16,0,256,0z M65.962,175.344
			c8.21,2.53,15.533,5.275,22.563,7.911c21.375,8.017,39.834,14.939,79.383,14.939c39.551,0,58.013-6.922,79.39-14.939
			c22.615-8.481,48.25-18.093,96.786-18.093s74.169,9.612,96.786,18.093c3.254,1.219,6.44,2.41,9.644,3.558
			c6.203,17.388,10.136,35.842,11.442,55.007c-15.203-3.457-27.227-7.951-38.483-12.172c-21.375-8.017-39.837-14.939-79.388-14.939
			c-39.551,0-58.013,6.922-79.388,14.939c-22.619,8.483-48.254,18.095-96.79,18.095c-48.534,0-74.167-9.612-96.783-18.093
			c-6.35-2.382-12.455-4.659-18.921-6.694C54.888,206.343,59.552,190.386,65.962,175.344z M446.039,336.653
			c-8.212-2.53-15.54-5.272-22.568-7.908c-21.375-8.017-39.837-14.939-79.388-14.939c-39.551,0-58.013,6.922-79.388,14.939
			c-22.617,8.481-48.252,18.093-96.788,18.093c-48.534,0-74.167-9.612-96.783-18.093c-3.25-1.219-6.436-2.408-9.637-3.554
			c-6.205-17.39-10.138-35.847-11.444-55.015c15.208,3.457,27.222,7.954,38.479,12.177c21.377,8.015,39.835,14.937,79.385,14.937
			c39.551,0,58.013-6.922,79.39-14.939c22.615-8.481,48.25-18.093,96.786-18.093s74.169,9.612,96.786,18.093
			c6.354,2.382,12.453,4.666,18.924,6.701C457.11,305.659,452.446,321.614,446.039,336.653z"/>
	</g>
</g>
<g>
</g>
<g>
</g>
<g>
</g>
<g>
</g>
<g>
</g>
<g>
</g>
<g>
</g>
<g>
</g>
<g>
</g>
<g>
</g>
<g>
</g>
<g>
</g>
<g>
</g>
<g>
</g>
<g>
</g>
</svg>
