<?xml version="1.0" encoding="iso-8859-1"?>
<!-- Generator: Adobe Illustrator 19.0.0, SVG Export Plug-In . SVG Version: 6.00 Build 0)  -->
<svg version="1.1" id="Layer_1" xmlns="http://www.w3.org/2000/svg" xmlns:xlink="http://www.w3.org/1999/xlink" x="0px" y="0px"
	 viewBox="0 0 512 512" style="enable-background:new 0 0 512 512;" xml:space="preserve">
<g>
	<g>
		<path d="M365.562,189.88C343.114,152.82,302.402,128,256,128c-46.402,0-87.114,24.82-109.563,61.88C59.87,201.611,0,226.806,0,256
			c0,29.195,59.87,54.39,146.437,66.12C168.886,359.18,209.598,384,256,384c46.402,0,87.113-24.82,109.562-61.88
			C452.131,310.39,512,285.195,512,256C512,226.806,452.131,201.61,365.562,189.88z M130.816,282.74
			c-10.194-1.742-19.948-3.701-29.157-5.87c-30.703-7.23-48.751-15.181-58.267-20.87c9.517-5.688,27.564-13.639,58.267-20.87
			c9.209-2.169,18.964-4.128,29.157-5.867c-1.841,8.626-2.818,17.57-2.818,26.739C127.998,265.17,128.975,274.113,130.816,282.74z
			 M188.952,280.381c-10.099,0-18.286-8.188-18.286-18.286c0-10.097,8.187-18.286,18.286-18.286s18.286,8.188,18.286,18.286
			C207.238,272.193,199.051,280.381,188.952,280.381z M237.714,231.619c-16.831,0-30.476-13.645-30.476-30.476
			c0-16.831,13.645-30.476,30.476-30.476s30.476,13.645,30.476,30.476C268.19,217.974,254.546,231.619,237.714,231.619z
			 M292.571,329.143c-13.466,0-24.381-10.917-24.381-24.381c0-13.463,10.915-24.381,24.381-24.381
			c13.466,0,24.381,10.918,24.381,24.381C316.952,318.226,306.037,329.143,292.571,329.143z M410.341,276.87
			c-9.21,2.169-18.965,4.128-29.16,5.868C383.022,274.111,384,265.168,384,256s-0.978-18.111-2.818-26.74
			c10.195,1.742,19.95,3.7,29.16,5.868c30.703,7.231,48.75,15.182,58.267,20.87C459.092,261.689,441.044,269.64,410.341,276.87z"/>
	</g>
</g>
<g>
</g>
<g>
</g>
<g>
</g>
<g>
</g>
<g>
</g>
<g>
</g>
<g>
</g>
<g>
</g>
<g>
</g>
<g>
</g>
<g>
</g>
<g>
</g>
<g>
</g>
<g>
</g>
<g>
</g>
</svg>
