<?xml version="1.0" encoding="iso-8859-1"?>
<!-- Generator: Adobe Illustrator 19.0.0, SVG Export Plug-In . SVG Version: 6.00 Build 0)  -->
<svg version="1.1" id="Layer_1" xmlns="http://www.w3.org/2000/svg" xmlns:xlink="http://www.w3.org/1999/xlink" x="0px" y="0px"
	 viewBox="0 0 512 512" style="enable-background:new 0 0 512 512;" xml:space="preserve">
<g>
	<g>
		<path d="M481.516,195.765C460.058,115.498,396.789,52.15,316.571,30.575C302.857,12.029,280.837,0,256,0
			c-24.836,0-46.857,12.029-60.571,30.575C115.211,52.15,51.942,115.498,30.484,195.765H0v120.471h30.484
			c8.665,32.414,24.144,62.071,44.811,87.331V512h361.412V403.566c20.667-25.26,36.144-54.917,44.811-87.331H512V195.765H481.516z
			 M386.491,391.529H125.509C89.934,357.265,67.765,309.176,67.765,256s22.17-101.265,57.745-135.529h260.981
			c35.575,34.265,57.745,82.354,57.745,135.529S422.066,357.265,386.491,391.529z"/>
	</g>
</g>
<g>
	<g>
		<path d="M175.062,201.014l-37.251-25.559c-16.27,23.715-24.87,51.568-24.87,80.545c0,28.982,8.6,56.833,24.871,80.545
			l37.25-25.561c-11.085-16.154-16.944-35.167-16.944-54.984C158.118,236.186,163.977,217.172,175.062,201.014z"/>
	</g>
</g>
<g>
</g>
<g>
</g>
<g>
</g>
<g>
</g>
<g>
</g>
<g>
</g>
<g>
</g>
<g>
</g>
<g>
</g>
<g>
</g>
<g>
</g>
<g>
</g>
<g>
</g>
<g>
</g>
<g>
</g>
</svg>
