<?xml version="1.0" encoding="iso-8859-1"?>
<!-- Generator: Adobe Illustrator 17.1.0, SVG Export Plug-In . SVG Version: 6.00 Build 0)  -->
<!DOCTYPE svg PUBLIC "-//W3C//DTD SVG 1.1//EN" "http://www.w3.org/Graphics/SVG/1.1/DTD/svg11.dtd">
<svg version="1.1" id="Capa_1" xmlns="http://www.w3.org/2000/svg" xmlns:xlink="http://www.w3.org/1999/xlink" x="0px" y="0px"
	 viewBox="0 0 231.46 231.46" style="enable-background:new 0 0 231.46 231.46;" xml:space="preserve">
<path d="M229.617,147.119l-4.872-8.359c-0.206-0.455-0.456-0.887-0.745-1.288l-8.823-14.252c-8.109-13.1-20.476-22.409-34.75-26.618
	c3.497-4.881,5.564-10.853,5.564-17.302c0-16.422-13.36-29.782-29.782-29.782c-10.32,0-19.427,5.278-24.773,13.274
	c-4.39-3.426-9.904-5.475-15.892-5.475c-14.271,0-25.882,11.611-25.882,25.883c0,4.323,1.071,8.398,2.952,11.984
	c-4.269,1.312-8.156,3.757-11.192,7.143l-16.394,18.279H45.249c-18.446,0-35.479,10.768-43.389,27.43l-0.645,1.357
	c-1.848,3.893-1.576,8.391,0.727,12.033s6.25,5.816,10.559,5.816h12.434c3.083,8.561,11.283,14.699,20.892,14.699
	c9.61,0,17.811-6.138,20.893-14.699h97.86c3.083,8.561,11.283,14.699,20.892,14.699s17.81-6.138,20.892-14.699h11.69
	c4.85,0,9.188-2.511,11.604-6.716C232.075,156.321,232.059,151.309,229.617,147.119z M45.827,166.941
	c-3.97,0-7.199-3.229-7.199-7.199s3.229-7.2,7.199-7.2s7.2,3.23,7.2,7.2S49.797,166.941,45.827,166.941z M115.544,94.083
	c-6,0-10.882-4.882-10.882-10.883s4.882-10.883,10.882-10.883c6.001,0,10.883,4.882,10.883,10.883S121.545,94.083,115.544,94.083z
	 M141.427,79.3c0-8.151,6.631-14.782,14.782-14.782s14.782,6.631,14.782,14.782s-6.631,14.782-14.782,14.782
	S141.427,87.451,141.427,79.3z M185.472,166.941c-3.97,0-7.199-3.229-7.199-7.199s3.229-7.2,7.199-7.2s7.199,3.23,7.199,7.2
	S189.442,166.941,185.472,166.941z"/>
<g>
</g>
<g>
</g>
<g>
</g>
<g>
</g>
<g>
</g>
<g>
</g>
<g>
</g>
<g>
</g>
<g>
</g>
<g>
</g>
<g>
</g>
<g>
</g>
<g>
</g>
<g>
</g>
<g>
</g>
</svg>
