<?xml version="1.0" encoding="iso-8859-1"?>
<!-- Generator: Adobe Illustrator 19.0.0, SVG Export Plug-In . SVG Version: 6.00 Build 0)  -->
<svg version="1.1" id="Layer_1" xmlns="http://www.w3.org/2000/svg" xmlns:xlink="http://www.w3.org/1999/xlink" x="0px" y="0px"
	 viewBox="0 0 512 512" style="enable-background:new 0 0 512 512;" xml:space="preserve">
<g>
	<g>
		<path d="M63.679,148.655v300.607h299.677L63.679,148.655z M79.338,186.542l246.297,247.061H79.338V186.542z"/>
	</g>
</g>
<g>
	<g>
		<path d="M0,0.104v511.792h512L0,0.104z M414.435,472.228v24.01h-14.615V480.58h-15.659v15.659h-15.659v-24.01h-15.659v24.01
			h-16.703V480.58h-15.659v15.659h-15.659v-24.01h-15.659v24.01h-15.659V480.58h-15.659v15.659h-14.615v-24.01h-15.659v24.01
			h-15.659V480.58h-15.659v15.659h-15.659v-24.01h-15.659v24.01h-16.703V480.58h-15.659v15.659h-14.615v-24.01h-15.659v24.01H86.645
			V480.58H70.986v15.659H55.328v-24.01H39.669v24.01h-24.01V37.898l458.527,458.341h-44.092v-24.01H414.435z"/>
	</g>
</g>
<g>
</g>
<g>
</g>
<g>
</g>
<g>
</g>
<g>
</g>
<g>
</g>
<g>
</g>
<g>
</g>
<g>
</g>
<g>
</g>
<g>
</g>
<g>
</g>
<g>
</g>
<g>
</g>
<g>
</g>
</svg>
