<?xml version="1.0" encoding="iso-8859-1"?>
<!-- Generator: Adobe Illustrator 19.0.0, SVG Export Plug-In . SVG Version: 6.00 Build 0)  -->
<svg version="1.1" id="Layer_1" xmlns="http://www.w3.org/2000/svg" xmlns:xlink="http://www.w3.org/1999/xlink" x="0px" y="0px"
	 viewBox="0 0 512.001 512.001" style="enable-background:new 0 0 512.001 512.001;" xml:space="preserve">
<g>
	<g>
		<path d="M168.145,217.304v22.684c0,48.457,39.526,87.878,88.111,87.878c48.585,0.001,88.111-39.422,88.111-87.878v-22.684H168.145
			z M199.427,284.734c-9.78-12.314-15.641-27.856-15.641-44.746v-7.043h15.641V284.734z M231.751,307.966
			c-5.962-2.143-11.56-5.048-16.684-8.589v-66.431h16.684V307.966z M264.076,311.8c-2.57,0.276-5.178,0.428-7.82,0.428
			c-3.002-0.001-5.956-0.205-8.863-0.561v-78.72h16.684V311.8z M295.358,300.759c-4.851,3.112-10.094,5.661-15.641,7.559v-75.373
			h15.641V300.759z M328.725,239.988c0,18.058-6.698,34.576-17.726,47.255v-54.297h17.726V239.988z"/>
	</g>
</g>
<g>
	<g>
		<rect x="193.166" y="47.34" width="25.026" height="15.641"/>
	</g>
</g>
<g>
	<g>
		<rect x="296.396" y="47.34" width="25.026" height="15.641"/>
	</g>
</g>
<g>
	<g>
		<rect x="261.986" y="47.34" width="25.026" height="15.641"/>
	</g>
</g>
<g>
	<g>
		<rect x="227.576" y="47.34" width="25.026" height="15.641"/>
	</g>
</g>
<g>
	<g>
		<rect x="158.756" y="47.34" width="25.026" height="15.641"/>
	</g>
</g>
<g>
	<g>
		<rect x="330.807" y="47.34" width="25.026" height="15.641"/>
	</g>
</g>
<g>
	<g>
		<path d="M402.58,138.389l-18.59,18.59V55.855c0-16.247-14.204-30.887-39.997-41.224C320.453,5.196,289.294,0,256.255,0
			c-33.039,0-64.198,5.196-87.738,14.631c-25.793,10.338-39.997,24.978-39.997,41.224v101.634l-19.1-19.1l-11.06,11.06
			l29.734,29.733v332.818h255.814V179.183l29.731-29.733L402.58,138.389z M368.267,464.432H224.452v-96.974h143.815V464.432z
			 M368.267,351.817H208.811v128.256h159.456v16.286H143.734V183.763h224.532V351.817z M183.786,168.122v-56.133h15.641v56.133
			H183.786z M368.349,168.122h-23.983v-31.108h-25.026v15.641h9.385v15.467h-17.726v-48.834h-23.983v15.641h8.342v33.193h-15.641
			V89.765l-47.966-11.88v34.104h15.641V97.872l16.684,4.132v66.118h-16.684v-48.834h-22.94v15.641h7.299v33.193h-16.684V96.347
			h-46.923v71.774h-23.983V62.98h4.171V47.339h-1.119c4.546-6.501,13.993-12.928,27.122-18.19
			c21.734-8.71,50.827-13.508,81.919-13.508s60.185,4.798,81.918,13.508c13.129,5.263,22.577,11.689,27.124,18.19h-1.119V62.98
			h4.171V168.122z"/>
	</g>
</g>
<g>
	<g>
		<rect x="240.089" y="385.185" width="95.931" height="15.641"/>
	</g>
</g>
<g>
	<g>
		<rect x="240.089" y="407.082" width="46.923" height="15.641"/>
	</g>
</g>
<g>
	<g>
		<rect x="240.089" y="432.108" width="15.641" height="15.641"/>
	</g>
</g>
<g>
	<g>
		<rect x="264.072" y="432.108" width="16.684" height="15.641"/>
	</g>
</g>
<g>
	<g>
		<rect x="287.012" y="432.108" width="16.684" height="15.641"/>
	</g>
</g>
<g>
	<g>
		<rect x="313.08" y="432.108" width="15.641" height="15.641"/>
	</g>
</g>
<g>
	<g>
		<rect x="336.02" y="432.108" width="15.641" height="15.641"/>
	</g>
</g>
<g>
</g>
<g>
</g>
<g>
</g>
<g>
</g>
<g>
</g>
<g>
</g>
<g>
</g>
<g>
</g>
<g>
</g>
<g>
</g>
<g>
</g>
<g>
</g>
<g>
</g>
<g>
</g>
<g>
</g>
</svg>
