<?xml version="1.0" encoding="iso-8859-1"?>
<!-- Generator: Adobe Illustrator 19.0.0, SVG Export Plug-In . SVG Version: 6.00 Build 0)  -->
<svg version="1.1" id="Layer_1" xmlns="http://www.w3.org/2000/svg" xmlns:xlink="http://www.w3.org/1999/xlink" x="0px" y="0px"
	 viewBox="0 0 512 512" style="enable-background:new 0 0 512 512;" xml:space="preserve">
<g>
	<g>
		<rect x="174.024" y="214.581" width="15.631" height="15.631"/>
	</g>
</g>
<g>
	<g>
		<rect x="102.122" y="214.581" width="16.673" height="15.631"/>
	</g>
</g>
<g>
	<g>
		<rect x="126.089" y="214.581" width="15.631" height="15.631"/>
	</g>
</g>
<g>
	<g>
		<rect x="78.155" y="214.581" width="16.673" height="15.631"/>
	</g>
</g>
<g>
	<g>
		<rect x="221.959" y="214.581" width="15.631" height="15.631"/>
	</g>
</g>
<g>
	<g>
		<path d="M260.955,214.373c-1.354,0.136-2.734,0.205-4.103,0.205h-10.926v15.631h10.926c1.887,0,3.792-0.095,5.66-0.282
			L260.955,214.373z"/>
	</g>
</g>
<g>
	<g>
		<path d="M279.549,207.601c-3.686,2.52-7.737,4.39-12.042,5.562l4.104,15.084c5.992-1.63,11.631-4.235,16.76-7.741L279.549,207.601
			z"/>
	</g>
</g>
<g>
	<g>
		<rect x="150.057" y="214.581" width="15.631" height="15.631"/>
	</g>
</g>
<g>
	<g>
		<path d="M36.153,208.483l-8.278,13.257c5.255,3.281,10.992,5.65,17.052,7.04l3.495-15.234
			C44.058,212.545,39.931,210.84,36.153,208.483z"/>
	</g>
</g>
<g>
	<g>
		<rect x="197.992" y="214.581" width="15.631" height="15.631"/>
	</g>
</g>
<g>
	<g>
		<path d="M57.627,214.579c-0.868-0.001-1.739-0.027-2.592-0.08L54.067,230.1c1.172,0.073,2.37,0.11,3.559,0.11H70.86v-15.631
			H57.627z"/>
	</g>
</g>
<g>
	<g>
		<rect x="220.917" y="295.862" width="16.673" height="15.631"/>
	</g>
</g>
<g>
	<g>
		<rect x="174.024" y="295.862" width="15.631" height="15.631"/>
	</g>
</g>
<g>
	<g>
		<rect x="196.95" y="295.862" width="16.673" height="15.631"/>
	</g>
</g>
<g>
	<g>
		<path d="M260.509,295.693c-1.211,0.109-2.442,0.166-3.657,0.166h-11.968v15.631h11.968c1.685,0,3.39-0.077,5.068-0.229
			L260.509,295.693z"/>
	</g>
</g>
<g>
	<g>
		<rect x="102.122" y="295.862" width="15.631" height="15.631"/>
	</g>
</g>
<g>
	<g>
		<path d="M57.62,295.859c-1.013-0.007-2.002-0.038-2.999-0.112l-1.177,15.586c1.376,0.104,2.769,0.156,4.136,0.156
			c0.016,0,0.031,0,0.047,0h12.191v-15.631H57.62z"/>
	</g>
</g>
<g>
	<g>
		<path d="M35.927,289.383l-8.563,13.077c5.216,3.415,10.909,5.905,16.924,7.402l3.774-15.168
			C43.755,293.623,39.671,291.835,35.927,289.383z"/>
	</g>
</g>
<g>
	<g>
		<rect x="126.089" y="295.862" width="15.631" height="15.631"/>
	</g>
</g>
<g>
	<g>
		<rect x="150.057" y="295.862" width="15.631" height="15.631"/>
	</g>
</g>
<g>
	<g>
		<rect x="78.155" y="295.862" width="15.631" height="15.631"/>
	</g>
</g>
<g>
	<g>
		<path d="M279.115,289.051c-3.708,2.504-7.766,4.351-12.065,5.489l3.999,15.11c5.994-1.585,11.651-4.158,16.814-7.643
			L279.115,289.051z"/>
	</g>
</g>
<g>
	<g>
		<path d="M260.939,373.81c-1.345,0.135-2.72,0.203-4.087,0.203h-10.926v15.631h10.926c1.884,0,3.782-0.095,5.641-0.28
			L260.939,373.81z"/>
	</g>
</g>
<g>
	<g>
		<path d="M279.536,367.044c-3.688,2.519-7.74,4.388-12.045,5.559l4.102,15.084c5.991-1.629,11.63-4.232,16.762-7.737
			L279.536,367.044z"/>
	</g>
</g>
<g>
	<g>
		<rect x="102.122" y="374.017" width="16.673" height="15.631"/>
	</g>
</g>
<g>
	<g>
		<rect x="78.155" y="374.017" width="16.673" height="15.631"/>
	</g>
</g>
<g>
	<g>
		<path d="M57.619,374.013c-0.862-0.034-1.732-0.026-2.596-0.08l-0.978,15.601c1.175,0.073,2.364,0.11,3.529,0.11
			c0.018,0,0.035,0,0.053,0H70.86v-15.631H57.619z"/>
	</g>
</g>
<g>
	<g>
		<rect x="221.959" y="374.017" width="15.631" height="15.631"/>
	</g>
</g>
<g>
	<g>
		<rect x="126.089" y="374.017" width="15.631" height="15.631"/>
	</g>
</g>
<g>
	<g>
		<rect x="197.992" y="374.017" width="15.631" height="15.631"/>
	</g>
</g>
<g>
	<g>
		<rect x="174.024" y="374.017" width="15.631" height="15.631"/>
	</g>
</g>
<g>
	<g>
		<rect x="150.057" y="374.017" width="15.631" height="15.631"/>
	</g>
</g>
<g>
	<g>
		<path d="M36.144,367.904l-8.285,13.253c5.255,3.286,10.992,5.658,17.049,7.052l3.501-15.234
			C44.049,371.972,39.922,370.266,36.144,367.904z"/>
	</g>
</g>
<g>
	<g>
		<rect x="78.155" y="454.255" width="15.631" height="15.631"/>
	</g>
</g>
<g>
	<g>
		<rect x="174.024" y="454.255" width="15.631" height="15.631"/>
	</g>
</g>
<g>
	<g>
		<rect x="221.959" y="454.255" width="15.631" height="15.631"/>
	</g>
</g>
<g>
	<g>
		<path d="M279.384,447.341c-3.693,2.512-7.749,4.375-12.051,5.533l4.064,15.093c5.992-1.614,11.638-4.205,16.779-7.703
			L279.384,447.341z"/>
	</g>
</g>
<g>
	<g>
		<path d="M57.634,454.252c-0.925-0.001-1.854-0.031-2.759-0.093l-1.042,15.596c1.247,0.083,2.521,0.126,3.794,0.127h12.191v-15.631
			H57.634z"/>
	</g>
</g>
<g>
	<g>
		<rect x="197.992" y="454.255" width="15.631" height="15.631"/>
	</g>
</g>
<g>
	<g>
		<rect x="126.089" y="454.255" width="15.631" height="15.631"/>
	</g>
</g>
<g>
	<g>
		<rect x="150.057" y="454.255" width="15.631" height="15.631"/>
	</g>
</g>
<g>
	<g>
		<path d="M260.78,454.062c-1.294,0.125-2.616,0.19-3.927,0.19h-10.926v15.631h10.926c1.814,0,3.644-0.089,5.437-0.263
			L260.78,454.062z"/>
	</g>
</g>
<g>
	<g>
		<rect x="102.122" y="454.255" width="15.631" height="15.631"/>
	</g>
</g>
<g>
	<g>
		<path d="M36.066,448.012l-8.387,13.19c5.241,3.333,10.963,5.748,17.006,7.178l3.598-15.212
			C43.942,452.142,39.832,450.407,36.066,448.012z"/>
	</g>
</g>
<g>
	<g>
		<rect x="352.477" y="151.849" width="15.937" height="15.631"/>
	</g>
</g>
<g>
	<g>
		<rect x="328.572" y="151.849" width="15.938" height="15.631"/>
	</g>
</g>
<g>
	<g>
		<path d="M485.251,150.966c-1.686,0.584-3.458,0.88-5.267,0.88h-7.969v15.631h7.969c3.552,0,7.045-0.586,10.38-1.74
			L485.251,150.966z"/>
	</g>
</g>
<g>
	<g>
		<rect x="448.107" y="151.849" width="15.938" height="15.631"/>
	</g>
</g>
<g>
	<g>
		<rect x="400.297" y="151.849" width="15.938" height="15.631"/>
	</g>
</g>
<g>
	<g>
		<rect x="376.382" y="151.849" width="15.938" height="15.631"/>
	</g>
</g>
<g>
	<g>
		<rect x="424.202" y="151.849" width="15.937" height="15.631"/>
	</g>
</g>
<g>
	<g>
		<rect x="400.297" y="239.507" width="15.938" height="15.631"/>
	</g>
</g>
<g>
	<g>
		<path d="M485.25,238.626c-1.686,0.584-3.458,0.879-5.267,0.879h-7.969v15.631h7.969c3.553,0,7.045-0.586,10.38-1.74
			L485.25,238.626z"/>
	</g>
</g>
<g>
	<g>
		<rect x="448.107" y="239.507" width="15.938" height="15.631"/>
	</g>
</g>
<g>
	<g>
		<rect x="424.202" y="239.507" width="15.937" height="15.631"/>
	</g>
</g>
<g>
	<g>
		<rect x="328.572" y="239.507" width="15.938" height="15.631"/>
	</g>
</g>
<g>
	<g>
		<rect x="352.477" y="239.507" width="15.937" height="15.631"/>
	</g>
</g>
<g>
	<g>
		<rect x="376.382" y="239.507" width="15.938" height="15.631"/>
	</g>
</g>
<g>
	<g>
		<rect x="424.202" y="327.165" width="15.937" height="15.631"/>
	</g>
</g>
<g>
	<g>
		<rect x="352.477" y="327.165" width="15.937" height="15.631"/>
	</g>
</g>
<g>
	<g>
		<rect x="328.572" y="327.165" width="15.938" height="15.631"/>
	</g>
</g>
<g>
	<g>
		<rect x="376.382" y="327.165" width="15.938" height="15.631"/>
	</g>
</g>
<g>
	<g>
		<rect x="400.297" y="327.165" width="15.938" height="15.631"/>
	</g>
</g>
<g>
	<g>
		<rect x="448.107" y="327.165" width="15.938" height="15.631"/>
	</g>
</g>
<g>
	<g>
		<path d="M485.25,326.285c-1.686,0.584-3.458,0.88-5.267,0.88h-7.969v15.631h7.969c3.553,0,7.045-0.586,10.38-1.74L485.25,326.285z
			"/>
	</g>
</g>
<g>
	<g>
		<rect x="376.382" y="414.824" width="15.938" height="15.631"/>
	</g>
</g>
<g>
	<g>
		<rect x="448.107" y="414.824" width="15.938" height="15.631"/>
	</g>
</g>
<g>
	<g>
		<path d="M485.25,413.944c-1.686,0.584-3.458,0.88-5.267,0.88h-7.969v15.631h7.969c3.553,0,7.045-0.586,10.38-1.74L485.25,413.944z
			"/>
	</g>
</g>
<g>
	<g>
		<rect x="352.477" y="414.824" width="15.937" height="15.631"/>
	</g>
</g>
<g>
	<g>
		<rect x="328.572" y="414.824" width="15.938" height="15.631"/>
	</g>
</g>
<g>
	<g>
		<rect x="424.202" y="414.824" width="15.937" height="15.631"/>
	</g>
</g>
<g>
	<g>
		<rect x="400.297" y="414.824" width="15.938" height="15.631"/>
	</g>
</g>
<g>
	<g>
		<path d="M232.944,111.414H81.533c-13.097,0-23.753,10.751-23.753,23.967c0,13.216,10.656,23.967,23.753,23.967h151.411
			c13.098,0,23.754-10.751,23.754-23.967C256.698,122.165,246.042,111.414,232.944,111.414z M232.944,143.718H81.533
			c-4.403,0-8.122-3.817-8.122-8.336c0-4.519,3.719-8.336,8.122-8.336h151.411c4.404,0,8.123,3.817,8.123,8.336
			C241.067,139.901,237.347,143.718,232.944,143.718z"/>
	</g>
</g>
<g>
	<g>
		<path d="M511.707,64.026c-0.003-17.489-14.232-31.716-31.722-31.716h-87.812V0.434h-47.661c-13.098,0-23.753,10.656-23.753,23.754
			c0,0.008,0.001,0.017,0.001,0.024h-0.001l0.172,55.346L57.627,79.11c-14.839,0-28.841,6.025-39.426,16.967
			C7.762,106.865,2.011,120.99,1.999,135.853H1.997L0,454.515c0,30.392,26.928,57.051,57.627,57.051h199.225
			c30.583,0,56.42-25.819,56.42-56.401l-0.061-24.71h7.392v-15.631h-7.431l-0.178-72.028h7.609v-15.631h-7.649l-0.178-72.028h7.827
			v-15.631h-7.865l-0.178-72.028h8.044v-15.631h-8.082l-0.041-16.483h-0.013c-0.138-14.683-5.868-28.616-16.19-39.285
			c-0.325-0.336-0.663-0.652-0.993-0.979l184.699,0.658c5.879,0,11.387-1.613,16.113-4.412l0.036,48.332l-0.507-0.123
			c-0.84,3.476-2.864,6.621-5.698,8.853l6.218,7.894l0.054,71.051l-0.574-0.139c-0.84,3.476-2.864,6.621-5.698,8.853l6.286,7.979
			l0.054,70.982l-0.642-0.155c-0.84,3.476-2.864,6.62-5.698,8.853l6.353,8.065l0.054,70.912l-0.71-0.172
			c-0.84,3.476-2.864,6.62-5.698,8.853l6.42,8.15l0.02,25.593c0,8.623-7.196,15.377-16.384,15.377H319.913v15.631h160.072
			c17.953,0,32.015-13.62,32.015-31.014L511.707,64.026z M17.385,174.843c0.042,0.046,0.083,0.092,0.125,0.136h-0.126
			L17.385,174.843z M296.997,194.982l-4.402-2.231c-2.01,3.966-4.662,7.548-7.883,10.649l10.84,11.262
			c0.507-0.489,1.002-0.989,1.49-1.495l0.105,42.547h-0.298c0,4.243-0.66,8.422-1.958,12.419l2.288,0.744l0.02,7.937l-4.884-2.549
			c-2.064,3.957-4.757,7.526-8.004,10.608l10.762,11.337c0.747-0.709,1.464-1.443,2.169-2.189l0.1,40.392h-0.493
			c0,4.168-0.596,7.957-1.771,11.751l2.295,0.704l0.019,7.765l-4.805-2.438c-2.012,3.965-4.666,7.547-7.887,10.646l10.836,11.265
			c0.651-0.627,1.282-1.272,1.9-1.928l0.105,42.472h-0.691c0,4.168-0.618,8.074-1.836,11.94l2.558,0.794l0.019,7.745l-5.101-2.616
			c-2.032,3.962-4.7,7.539-7.93,10.633l10.809,11.29c0.782-0.748,1.53-1.523,2.263-2.312l0.007,3.056
			c0.003,22.093-18.676,40.754-40.786,40.754H57.627c-22.372,0-41.996-19.355-41.996-41.371l0.023-3.688
			c1.453,1.66,3.003,3.241,4.655,4.728l10.456-11.619c-3.322-2.99-6.096-6.483-8.244-10.382l-6.783,3.736l0.052-8.272l4.029-1.387
			c-1.454-4.185-2.191-8.857-2.191-13.026h-1.747l0.271-43.31c1.349,1.491,2.775,2.92,4.291,4.265l10.377-11.691
			c-3.342-2.966-6.128-6.437-8.283-10.315l-6.295,3.496l0.052-8.368l3.529-1.239c-1.457-4.168-2.196-8.91-2.196-13.078h-1.244
			l0.257-41.099c1.092,1.197,2.235,2.352,3.434,3.458l10.597-11.491c-3.293-3.036-6.043-6.569-8.176-10.499l-5.757,3.124
			l0.053-8.438l3.02-1.058c-1.448-4.21-2.183-7.984-2.183-13.195H16.88l0.265-42.213c1.056,1.106,2.16,2.171,3.312,3.192
			l10.37-11.697c-3.343-2.964-6.13-6.433-8.289-10.312l-5.294,2.943l0.051-8.181l2.529-0.89c-1.442-4.123-2.179-8.815-2.194-12.952
			c0.192,0.204,0.374,0.415,0.569,0.617c10.586,10.942,24.587,16.967,39.426,16.967h199.225c14.839,0,28.841-6.025,39.426-16.967
			c0.193-0.199,0.372-0.407,0.562-0.609c-0.028,3.926-0.612,7.788-1.755,11.485l1.893,0.586L296.997,194.982z M296.851,135.902
			c0,22.312-18.317,41.161-39.998,41.161H57.627c-21.682,0-39.998-18.85-39.998-41.161s18.317-41.161,39.998-41.161h137.135
			l66.249,0.235C280.826,97.197,296.851,115.033,296.851,135.902z M336.389,24.187c0.001-4.479,3.644-8.122,8.122-8.122h32.03
			v16.246h-32.03c-4.478,0-8.121-3.643-8.122-8.121V24.187z M480.013,80.125l-143.451-0.511l-0.103-33.08
			c2.516,0.91,5.227,1.408,8.053,1.408h135.473c8.873,0,16.091,7.218,16.091,16.09C496.076,72.906,488.858,80.125,480.013,80.125z"
			/>
	</g>
</g>
<g>
	<g>
		<path d="M57.313,119.663v-15.631c-16.673,0-31.722,14.23-31.722,31.721c0,17.492,15.049,31.722,31.722,31.722v-15.631
			c-8.336,0-16.091-7.219-16.091-16.091C41.222,126.88,48.977,119.663,57.313,119.663z"/>
	</g>
</g>
<g>
	<g>
		<path d="M256.347,104.032v15.631c9.379,0,16.091,7.218,16.091,16.091c0,8.873-6.713,16.091-16.091,16.091v15.631
			c17.715,0,31.722-14.23,31.722-31.722C288.069,118.262,274.062,104.032,256.347,104.032z"/>
	</g>
</g>
<g>
</g>
<g>
</g>
<g>
</g>
<g>
</g>
<g>
</g>
<g>
</g>
<g>
</g>
<g>
</g>
<g>
</g>
<g>
</g>
<g>
</g>
<g>
</g>
<g>
</g>
<g>
</g>
<g>
</g>
</svg>
