<?xml version="1.0" encoding="iso-8859-1"?>
<!-- Generator: Adobe Illustrator 19.0.0, SVG Export Plug-In . SVG Version: 6.00 Build 0)  -->
<svg version="1.1" id="Layer_1" xmlns="http://www.w3.org/2000/svg" xmlns:xlink="http://www.w3.org/1999/xlink" x="0px" y="0px"
	 viewBox="0 0 512 512" style="enable-background:new 0 0 512 512;" xml:space="preserve">
<g>
	<g>
		<path d="M478.609,200.348h-44.522c-9.223,0-16.696,7.473-16.696,16.696c0,9.223,7.473,16.696,16.696,16.696h5.565v83.478
			c0,9.206-7.49,16.696-16.696,16.696h-19.772c-6.915-19.391-25.275-33.391-47.01-33.391h-50.087V267.13h16.696
			c33.755,0,61.217-27.462,61.217-61.217V61.217C384,27.462,356.538,0,322.783,0H189.217C155.462,0,128,27.462,128,61.217v144.696
			c0,33.755,27.462,61.217,61.217,61.217h16.696v33.391h-50.087c-21.737,0-40.095,14-47.01,33.391H89.044
			c-9.206,0-16.696-7.49-16.696-16.696v-83.478h5.565c9.223,0,16.696-7.473,16.696-16.696c0-9.223-7.473-16.696-16.696-16.696
			H33.391c-9.223,0-16.696,7.473-16.696,16.696c0,9.223,7.473,16.696,16.696,16.696h5.565v83.478
			c0,27.619,22.468,50.087,50.087,50.087h19.772c6.915,19.391,25.275,33.391,47.01,33.391h83.478v44.522h-116.87
			c-9.223,0-16.696,7.473-16.696,16.696v33.391c0,9.223,7.473,16.696,16.696,16.696c9.223,0,16.696-7.473,16.696-16.696v-16.696
			h100.174v16.696c0,9.223,7.473,16.696,16.696,16.696s16.696-7.473,16.696-16.696v-16.696H372.87v16.696
			c0,9.223,7.473,16.696,16.696,16.696c9.223,0,16.696-7.473,16.696-16.696v-33.391c0-9.223-7.473-16.696-16.696-16.696h-116.87
			v-44.522h83.478c21.737,0,40.095-14,47.01-33.391h19.772c27.619,0,50.087-22.468,50.087-50.087v-83.478h5.565
			c9.223,0,16.696-7.473,16.696-16.696C495.304,207.821,487.831,200.348,478.609,200.348z"/>
	</g>
</g>
<g>
</g>
<g>
</g>
<g>
</g>
<g>
</g>
<g>
</g>
<g>
</g>
<g>
</g>
<g>
</g>
<g>
</g>
<g>
</g>
<g>
</g>
<g>
</g>
<g>
</g>
<g>
</g>
<g>
</g>
</svg>
