<?xml version="1.0" encoding="iso-8859-1"?>
<!-- Generator: Adobe Illustrator 19.0.0, SVG Export Plug-In . SVG Version: 6.00 Build 0)  -->
<svg version="1.1" id="Layer_1" xmlns="http://www.w3.org/2000/svg" xmlns:xlink="http://www.w3.org/1999/xlink" x="0px" y="0px"
	 viewBox="0 0 512 512" style="enable-background:new 0 0 512 512;" xml:space="preserve">
<g>
	<g>
		<path d="M510.405,273.484c-1.508-2.147-3.888-3.517-6.5-3.733c-42.317-3.554-77.845-0.121-107.67,7.683
			c27.522-67.759,10.526-137.19,9.188-142.368c-0.077-0.323-0.172-0.647-0.293-0.966c-0.345-0.97-0.853-1.841-1.483-2.599
			c-0.862-1.052-1.948-1.866-3.146-2.414c-1.129-0.517-2.379-0.797-3.655-0.797c-0.69,0.004-2.026,0.168-3.017,0.53
			c-0.319,0.112-0.621,0.241-0.914,0.388c-33.28,15.706-59.272,34.113-79.595,53.052c-19.75-56.979-57.647-102.884-59.362-104.948
			c-3.362-4.026-10.207-4.026-13.569,0c-31.992,38.393-46.005,76.517-51.595,96.292c-18.931-16.085-42.05-31.172-70.267-44.473
			c-3.845-1.806-8.259-0.634-10.733,2.556c-0.552,0.711-1,1.513-1.328,2.392c-0.112,0.328-0.216,0.659-0.293,0.991
			c-1.339,5.182-18.291,74.509,9.133,142.216c-29.489-7.603-64.886-11.078-107.211-7.534c-2.612,0.215-4.991,1.586-6.5,3.733
			c-1.5,2.146-1.974,4.853-1.285,7.379c0.56,2.069,14.233,51.06,52.698,94.052c27.638,30.888,72.388,62.793,139.319,62.793
			c19.326,0,40.534-2.696,63.672-8.81c23.147,6.114,44.347,8.81,63.673,8.81c66.922,0,111.681-31.905,139.319-62.793
			c38.466-42.991,52.138-91.983,52.698-94.052C512.38,278.338,511.905,275.631,510.405,273.484z M66.56,363.587
			c-25.733-28.603-39.81-60.888-45.759-77.026c166.983-9.25,214.035,95.965,224.224,126.922
			C172.129,430.941,112.112,414.191,66.56,363.587z M250.892,382.609c-7.108-13.797-17.545-30.123-32.599-46.116
			c-17.597-18.696-43.489-38.729-80.422-52.201c-26.754-52.249-20.776-110.651-16.742-134.222
			C262.578,222.19,257.875,340.126,250.892,382.609z M254.731,264.305c-10.131-25.735-26.213-52.308-51.168-77.126
			c2.474-11.069,12.795-49.622,43.506-89.932c12.42,16.698,38.983,55.609,52.265,99.059
			C277.039,220.442,263.22,244.566,254.731,264.305z M264.405,288.691c10.759-33.612,41.319-95.181,126.078-138.617
			c4.067,23.579,10.097,82.025-16.884,134.47c-53.496,19.851-85.326,54.414-103.636,83.386c1.476-20.188,0.929-47.354-6.648-77.052
			C263.759,290.208,264.149,289.492,264.405,288.691z M445.44,363.587c-45.526,50.569-105.5,67.353-178.354,49.922
			c10.543-30.595,58.819-135.819,224.112-126.948C485.25,302.708,471.173,334.993,445.44,363.587z"/>
	</g>
</g>
<g>
</g>
<g>
</g>
<g>
</g>
<g>
</g>
<g>
</g>
<g>
</g>
<g>
</g>
<g>
</g>
<g>
</g>
<g>
</g>
<g>
</g>
<g>
</g>
<g>
</g>
<g>
</g>
<g>
</g>
</svg>
