<?xml version="1.0" encoding="iso-8859-1"?>
<!-- Generator: Adobe Illustrator 19.0.0, SVG Export Plug-In . SVG Version: 6.00 Build 0)  -->
<svg version="1.1" id="Layer_1" xmlns="http://www.w3.org/2000/svg" xmlns:xlink="http://www.w3.org/1999/xlink" x="0px" y="0px"
	 viewBox="0 0 512 512" style="enable-background:new 0 0 512 512;" xml:space="preserve">
<g>
	<g>
		<path d="M440.772,394.075c11.529-8.143,21.825-17.878,30.556-29.226c44.266-57.555,52.974-131.683,23.297-198.294
			C476.42,125.7,415.364,29.231,241.988,15.892C7.266-2.154,4.14,4.592,0.842,11.755c-1.622,3.53-0.852,7.924,1.894,10.67
			c0.534,0.539,1.133,1.006,1.785,1.396c0.888,0.53,88.695,54.904,97.584,206.006c5.437,92.496,86.991,158.238,165.401,182.364
			c25.073,7.716,49.667,11.477,72.946,11.477c31.111,0,59.856-6.753,84.309-19.735c11.678,29.442,21.933,61.542,30.175,96.568
			c1.006,4.273,4.821,7.154,9.025,7.154c0.707,0,1.423-0.077,2.139-0.245c4.984-1.178,8.074-6.171,6.905-11.159
			C464.264,459.111,453.295,425.153,440.772,394.075z M395.147,302.705c14.512-14.903,20.928-36.882,18.078-62.683
			c-2.981-26.922-15.785-55.061-36.074-79.228c-3.28-3.91-9.116-4.444-13.067-1.145c-3.924,3.294-4.44,9.148-1.142,13.071
			c17.951,21.399,29.26,46.025,31.833,69.345c2.003,18.083-1.518,33.456-9.941,44.288c-23.173-35.475-47.983-65.148-72.357-89.77
			c20.692-37.304-0.55-94.809-50.509-132.456c-4.087-3.09-9.913-2.256-12.994,1.826c-3.081,4.096-2.265,9.913,1.831,12.999
			c40.415,30.454,59.856,74.61,47.7,104.001c-71.962-67.743-136.368-91.863-137.6-92.307c-4.857-1.74-10.14,0.766-11.871,5.586
			c-1.74,4.825,0.761,10.14,5.582,11.875c1.189,0.427,63.612,23.815,133.199,90.001c-10.38,9.324-25.742,13.837-44.277,12.758
			c-23.424-1.354-48.606-11.354-70.916-28.168c-4.096-3.095-9.914-2.261-12.994,1.826c-3.081,4.096-2.266,9.913,1.831,12.999
			c25.2,18.988,53.971,30.311,81.01,31.874c2.166,0.122,4.295,0.186,6.397,0.186c21.317,0,39.361-6.418,52.195-18.426
			c23.383,23.847,47.17,52.57,69.394,86.907c-11.991,5.909-27.328,6.515-44.266,1.56c-22.527-6.592-44.809-22.002-62.77-43.396
			c-3.28-3.919-9.125-4.445-13.067-1.146c-3.924,3.294-4.44,9.148-1.142,13.071c20.28,24.172,45.761,41.674,71.759,49.281
			c9.406,2.75,18.495,4.109,27.112,4.109c11.834,0,22.722-2.613,32.227-7.687c13.325,22.12,25.939,46.392,37.393,72.993
			c-44.037,24.128-100.037,21.353-144.74,7.603c-72.284-22.237-147.414-82.259-152.334-165.87
			c-6.905-117.488-58.502-180.59-87.335-206.108c0.308,0,0.625,0,0.951,0c25.844,0,82.478,2.236,206.314,11.764
			c115.073,8.853,201.502,59.853,237.114,139.789c26.867,60.287,18.993,127.405-21.059,179.463
			c-6.941,9.024-14.723,16.689-23.139,23.105C421.716,349.697,408.785,325.142,395.147,302.705z"/>
	</g>
</g>
<g>
</g>
<g>
</g>
<g>
</g>
<g>
</g>
<g>
</g>
<g>
</g>
<g>
</g>
<g>
</g>
<g>
</g>
<g>
</g>
<g>
</g>
<g>
</g>
<g>
</g>
<g>
</g>
<g>
</g>
</svg>
