<?xml version="1.0" encoding="iso-8859-1"?>
<!-- Generator: Adobe Illustrator 19.0.0, SVG Export Plug-In . SVG Version: 6.00 Build 0)  -->
<svg version="1.1" id="Layer_1" xmlns="http://www.w3.org/2000/svg" xmlns:xlink="http://www.w3.org/1999/xlink" x="0px" y="0px"
	 viewBox="0 0 511.872 511.872" style="enable-background:new 0 0 511.872 511.872;" xml:space="preserve">
<g>
	<g>
		<path d="M208.32,118.032v139.696l118.752-69.856L208.32,118.032z M224.32,146L224.32,146l71.2,41.872l-71.2,41.872V146z"/>
	</g>
</g>
<g>
	<g>
		<rect x="0.112" y="393.104" width="511.76" height="16"/>
	</g>
</g>
<g>
	<g>
		<rect y="440.496" width="511.744" height="16"/>
	</g>
</g>
<g>
	<g>
		<path d="M466.64,55.376H45.488c-18.624,0-33.808,15.408-33.808,34.416v195.936c0.016,18.976,15.2,34.416,33.808,34.416H466.64
			c18.656,0,33.776-15.408,33.776-34.416V89.792C500.416,70.784,485.296,55.376,466.64,55.376z M484.432,285.728
			c0,10.16-7.984,18.416-17.776,18.416H45.488c-9.824,0-17.808-8.256-17.808-18.416V89.792h0.016
			c0-10.16,7.984-18.416,17.808-18.416h421.152c9.808,0,17.776,8.256,17.776,18.416V285.728z"/>
	</g>
</g>
<g>
</g>
<g>
</g>
<g>
</g>
<g>
</g>
<g>
</g>
<g>
</g>
<g>
</g>
<g>
</g>
<g>
</g>
<g>
</g>
<g>
</g>
<g>
</g>
<g>
</g>
<g>
</g>
<g>
</g>
</svg>
