<?xml version="1.0" encoding="iso-8859-1"?>
<!-- Generator: Adobe Illustrator 19.0.0, SVG Export Plug-In . SVG Version: 6.00 Build 0)  -->
<svg version="1.1" id="Layer_1" xmlns="http://www.w3.org/2000/svg" xmlns:xlink="http://www.w3.org/1999/xlink" x="0px" y="0px"
	 viewBox="0 0 512 512" style="enable-background:new 0 0 512 512;" xml:space="preserve">
<g>
	<g>
		<g>
			
				<rect x="22.536" y="230.808" transform="matrix(0.7071 0.7071 -0.7071 0.7071 187.3689 44.3922)" width="35.124" height="35.124"/>
			
				<rect x="117.743" y="335.715" transform="matrix(0.7071 0.7071 -0.7071 0.7071 305.9924 14.6554)" width="35.126" height="81.957"/>
			<rect x="3.35" y="369.926" transform="matrix(0.9659 0.2588 -0.2588 0.9659 101.596 3.2449)" width="70.247" height="35.124"/>
			
				<rect x="70.587" y="302.688" transform="matrix(-0.9659 0.2588 -0.2588 -0.9659 260.7208 641.3054)" width="35.125" height="70.251"/>
			<polygon points="338.142,57.953 257.451,138.644 418.833,138.644 			"/>
			<polygon points="503.72,8.28 329.862,0 511.999,182.139 			"/>
			<polygon points="247.074,380.834 348.763,279.143 145.382,279.143 			"/>
			
				<rect x="246.067" y="454.342" transform="matrix(-0.7071 -0.7071 0.7071 -0.7071 116.3572 992.0036)" width="35.124" height="35.124"/>
			<polygon points="222.328,173.769 152.077,244.018 383.887,244.018 454.048,173.858 453.958,173.769 			"/>
			
				<rect x="39.094" y="420.22" transform="matrix(-0.7071 -0.7071 0.7071 -0.7071 -225.2679 817.3779)" width="35.125" height="70.25"/>
			
				<rect x="89.387" y="455.963" transform="matrix(-0.2588 -0.9659 0.9659 -0.2588 -300.6538 716.3502)" width="70.25" height="35.125"/>
			
				<rect x="139.06" y="406.291" transform="matrix(-0.9659 -0.2588 0.2588 -0.9659 232.7434 878.3455)" width="70.25" height="35.125"/>
		</g>
	</g>
</g>
<g>
</g>
<g>
</g>
<g>
</g>
<g>
</g>
<g>
</g>
<g>
</g>
<g>
</g>
<g>
</g>
<g>
</g>
<g>
</g>
<g>
</g>
<g>
</g>
<g>
</g>
<g>
</g>
<g>
</g>
</svg>
