<?xml version="1.0" encoding="iso-8859-1"?>
<!-- Generator: Adobe Illustrator 18.0.0, SVG Export Plug-In . SVG Version: 6.00 Build 0)  -->
<!DOCTYPE svg PUBLIC "-//W3C//DTD SVG 1.1//EN" "http://www.w3.org/Graphics/SVG/1.1/DTD/svg11.dtd">
<svg version="1.1" id="Capa_1" xmlns="http://www.w3.org/2000/svg" xmlns:xlink="http://www.w3.org/1999/xlink" x="0px" y="0px"
	 viewBox="0 0 269.778 269.778" style="enable-background:new 0 0 269.778 269.778;" xml:space="preserve">
<path d="M201.937,269.778l22.908-10.008l-59.857-136.797c-1.988-4.554-6.486-7.496-11.454-7.496h-6.215L147.337,73h15.346
	c0,0-0.054-13.659-0.133-14.224h3.655l34.135,55.702l20.721-13.986l-40.739-66.479v-0.237h-14V0h-62.97v33.776h-14v25h17.771
	C107.044,59.341,106.989,73,106.989,73h15.348l-0.019,42.478h-6.215c-4.969,0-9.466,2.942-11.454,7.495L44.933,259.198l22.908,10.01
	l10.098-23.028h44.379v22.7h25v-22.7h44.291L201.937,269.778z M180.668,221.18h-33.35v-76.206L180.668,221.18z M122.318,144.975
	v76.206H88.902L122.318,144.975z"/>
<g>
</g>
<g>
</g>
<g>
</g>
<g>
</g>
<g>
</g>
<g>
</g>
<g>
</g>
<g>
</g>
<g>
</g>
<g>
</g>
<g>
</g>
<g>
</g>
<g>
</g>
<g>
</g>
<g>
</g>
</svg>
