<?xml version="1.0" encoding="iso-8859-1"?>
<!-- Generator: Adobe Illustrator 19.0.0, SVG Export Plug-In . SVG Version: 6.00 Build 0)  -->
<svg version="1.1" id="Layer_1" xmlns="http://www.w3.org/2000/svg" xmlns:xlink="http://www.w3.org/1999/xlink" x="0px" y="0px"
	 viewBox="0 0 512 512" style="enable-background:new 0 0 512 512;" xml:space="preserve">
<g>
	<g>
		<path d="M453.01,356.91h-8.842c19.726-30.538,15.891-79.627,15.359-85.4c-0.372-4.025-2.377-7.718-5.551-10.222
			c-3.174-2.504-7.231-3.599-11.232-3.02c-3.967,0.569-28.432,4.413-51.455,15.409c16.549-27.045,21.363-58.003,13.473-87.504
			c-0.478-1.786-1.006-3.565-1.58-5.334c13.31-6.069,24.653-15.564,33.039-27.224h13.353c8.144,0,14.748-6.604,14.748-14.748
			c0-8.104-6.539-14.677-14.629-14.742c1.431-6.066,2.196-12.353,2.196-18.773c0-45.702-37.18-82.882-82.881-82.882
			c-35.638,0-85.581,29.831-152.684,91.196c-54.068,49.444-107.997,108.793-147.373,152.127c-6.197,6.82-11.995,13.2-17.326,19.025
			c-4.205,4.593-5.15,11.15-2.411,16.701c4.703,9.538,14.197,8.924,24.253,8.272c6.252-0.403,14.731-1.142,24.548-1.997
			c24.64-2.144,81.587-7.106,94.318-3.367c21.145,19.232,49.106,30.185,78.412,31.61v20.873H112.448H58.99
			c-8.146,0-14.748,6.604-14.748,14.748s6.603,14.748,14.748,14.748h45.488c-3.003,14.725-7.774,55.478,24.034,80.578
			c24.463,19.303,63.226,22.549,86.541,22.549c9.819,0,16.901-0.577,19.018-0.77c4.025-0.372,7.719-2.377,10.222-5.551
			c2.503-3.171,3.596-7.232,3.02-11.232c-0.889-6.197-8.583-55.011-33.63-85.572h185.871h53.458c8.144,0,14.748-6.604,14.748-14.748
			S461.155,356.91,453.01,356.91z M214.858,460.004c-20.972-0.1-51.638-3.206-68.075-16.176
			c-17.143-13.527-15.73-37.412-13.94-48.553c10.449-4.345,33.335-11.259,50.467,2.261
			C199.685,410.458,209.859,439.608,214.858,460.004z M300.245,356.908v-22.667c4.104-0.702,8.2-1.584,12.271-2.674
			c13.393-3.582,25.92-9.075,37.264-16.17c-4.917,15.157-2.836,30.297,0.406,41.51H300.245z M304.895,303.074
			c-34.027,9.103-69.92,0.92-93.666-21.351c-5.812-5.449-15.82-8.061-37.812-8.061c-16.974,0-41.093,1.557-75.914,4.57
			c38.282-42.099,88.655-97.01,138.726-142.8c75.436-68.985,113.842-83.466,132.778-83.466c29.436,0,53.384,23.948,53.384,53.386
			c0,24.916-17.643,46.845-41.951,52.144c-4.46,0.972-8.218,3.956-10.178,8.079c-1.96,4.122-1.901,8.92,0.161,12.993
			c2.49,4.917,4.455,10.041,5.843,15.229c5.944,22.226,1.96,45.764-11.219,66.277C351.586,281.029,330.224,296.3,304.895,303.074z
			 M417.608,343.446c-10.095,12.793-27.842,12.324-37.148,11.016c-3.435-8.75-8.016-25.911,2.071-38.694
			c9.834-12.462,31.558-20.537,48.044-24.855C430.175,307.856,427.375,331.068,417.608,343.446z"/>
	</g>
</g>
<g>
	<g>
		<path d="M511.72,368.782c-0.192-0.945-0.487-1.875-0.855-2.773c-0.369-0.886-0.811-1.742-1.342-2.538
			c-0.544-0.811-1.165-1.563-1.844-2.242c-0.678-0.678-1.431-1.298-2.242-1.829c-0.796-0.546-1.652-0.988-2.537-1.357
			c-0.9-0.369-1.829-0.664-2.773-0.841c-1.888-0.383-3.849-0.383-5.752,0c-0.944,0.177-1.875,0.472-2.758,0.841
			c-0.9,0.369-1.755,0.811-2.55,1.357c-0.813,0.531-1.565,1.15-2.243,1.829c-0.678,0.678-1.298,1.431-1.829,2.242
			c-0.529,0.796-0.988,1.652-1.357,2.538c-0.369,0.898-0.647,1.827-0.839,2.773c-0.193,0.944-0.295,1.917-0.295,2.876
			c0,0.957,0.102,1.932,0.295,2.874c0.192,0.945,0.47,1.875,0.839,2.758c0.369,0.9,0.827,1.755,1.357,2.551
			c0.531,0.811,1.15,1.563,1.829,2.242s1.431,1.298,2.243,1.829c0.795,0.531,1.65,0.988,2.55,1.357
			c0.885,0.369,1.814,0.664,2.758,0.841c0.944,0.192,1.917,0.295,2.876,0.295c0.957,0,1.932-0.103,2.876-0.295
			c0.944-0.177,1.873-0.472,2.773-0.841c0.885-0.369,1.74-0.826,2.537-1.357c0.811-0.531,1.563-1.15,2.242-1.829
			s1.299-1.431,1.844-2.242c0.531-0.796,0.973-1.652,1.342-2.551c0.369-0.885,0.664-1.813,0.855-2.758
			c0.192-0.944,0.28-1.917,0.28-2.874C512,370.699,511.911,369.724,511.72,368.782z"/>
	</g>
</g>
<g>
	<g>
		<path d="M29.202,368.782c-0.192-0.945-0.472-1.875-0.841-2.773c-0.369-0.886-0.826-1.742-1.357-2.538
			c-0.531-0.811-1.15-1.563-1.829-2.242c-0.678-0.678-1.431-1.298-2.242-1.829c-0.796-0.546-1.652-0.988-2.551-1.357
			c-0.885-0.369-1.814-0.664-2.758-0.841c-1.903-0.398-3.864-0.383-5.767,0c-0.929,0.177-1.858,0.472-2.758,0.841
			c-0.885,0.369-1.74,0.811-2.537,1.357c-0.811,0.531-1.563,1.15-2.242,1.829c-0.678,0.678-1.298,1.431-1.844,2.242
			c-0.531,0.796-0.988,1.652-1.357,2.538c-0.354,0.898-0.649,1.827-0.841,2.773C0.103,369.726,0,370.699,0,371.658
			c0,0.957,0.103,1.932,0.295,2.874c0.177,0.945,0.472,1.874,0.841,2.758c0.369,0.9,0.811,1.755,1.342,2.551
			c0.546,0.811,1.165,1.563,1.844,2.242s1.431,1.298,2.242,1.829c0.796,0.531,1.652,0.988,2.537,1.357
			c0.9,0.369,1.829,0.664,2.758,0.841c0.959,0.192,1.932,0.295,2.891,0.295s1.932-0.103,2.876-0.295
			c0.944-0.177,1.873-0.472,2.758-0.841c0.9-0.369,1.755-0.826,2.551-1.357c0.811-0.531,1.563-1.15,2.242-1.829
			c0.678-0.678,1.298-1.431,1.829-2.242c0.531-0.796,0.988-1.652,1.357-2.551c0.369-0.885,0.649-1.813,0.841-2.758
			c0.192-0.944,0.295-1.917,0.295-2.874C29.496,370.699,29.393,369.725,29.202,368.782z"/>
	</g>
</g>
<g>
	<g>
		<path d="M349.188,187.508c-0.109-0.407-0.283-0.996-0.541-1.755c-4.327-12.681-13.852-23.075-26.129-28.52
			c-12.343-5.473-26.531-5.547-38.927-0.198h-0.001c-40.659,17.543-131.307,76.409-135.146,78.906
			c-1.044,0.68-1.997,1.488-2.838,2.407c-4.104,4.485-5.07,11.15-2.382,16.601c4.545,9.215,14.006,8.603,19.659,8.237
			c3.475-0.224,8.123-0.63,13.503-1.099c11.951-1.04,38.963-3.391,47.696-2.242c13.433,11.529,31.073,17.72,49.283,17.72
			c6.942,0,13.967-0.898,20.872-2.746c19.27-5.153,35.607-16.903,46.003-33.085C350.918,225.112,354.095,205.846,349.188,187.508z
			 M315.424,225.793c-6.417,9.988-16.646,17.281-28.805,20.533c-16.282,4.354-33.383,0.515-44.621-10.026
			c-4.547-4.265-10.663-6.219-25.041-6.219c-1.251,0-2.566,0.015-3.947,0.043c28.376-17.421,62.422-37.443,82.267-46.004h-0.001
			c4.938-2.13,10.365-2.102,15.287,0.08c4.827,2.141,8.427,6.047,10.178,11.114C323.401,205.492,321.515,216.309,315.424,225.793z"
			/>
	</g>
</g>
<g>
	<g>
		<path d="M381.065,98.889c-0.177-0.945-0.472-1.875-0.841-2.758c-0.369-0.9-0.826-1.755-1.357-2.551
			c-0.529-0.811-1.149-1.563-1.829-2.242c-0.678-0.678-1.431-1.298-2.242-1.829c-0.796-0.546-1.652-0.988-2.551-1.357
			c-0.885-0.369-1.813-0.664-2.756-0.841c-1.902-0.383-3.864-0.383-5.752,0c-0.944,0.177-1.873,0.472-2.773,0.841
			c-0.886,0.369-1.74,0.811-2.537,1.357c-0.813,0.531-1.565,1.15-2.243,1.829s-1.298,1.431-1.829,2.242
			c-0.529,0.796-0.988,1.652-1.357,2.551c-0.369,0.885-0.664,1.813-0.855,2.758c-0.192,0.944-0.279,1.917-0.279,2.876
			c0,0.957,0.089,1.932,0.279,2.874c0.19,0.945,0.487,1.875,0.855,2.758c0.369,0.9,0.827,1.755,1.357,2.551
			c0.531,0.811,1.15,1.563,1.829,2.242c0.678,0.678,1.431,1.298,2.243,1.829c0.796,0.531,1.65,0.988,2.537,1.357
			c0.9,0.369,1.829,0.664,2.773,0.841c0.944,0.192,1.917,0.295,2.876,0.295c0.957,0,1.932-0.103,2.876-0.295
			c0.944-0.177,1.873-0.472,2.756-0.841c0.9-0.369,1.755-0.826,2.551-1.357c0.811-0.531,1.563-1.15,2.242-1.829
			c0.68-0.678,1.299-1.431,1.829-2.242c0.531-0.796,0.988-1.652,1.357-2.551c0.369-0.885,0.664-1.813,0.841-2.758
			c0.192-0.944,0.295-1.917,0.295-2.874C381.36,100.806,381.257,99.832,381.065,98.889z"/>
	</g>
</g>
<g>
</g>
<g>
</g>
<g>
</g>
<g>
</g>
<g>
</g>
<g>
</g>
<g>
</g>
<g>
</g>
<g>
</g>
<g>
</g>
<g>
</g>
<g>
</g>
<g>
</g>
<g>
</g>
<g>
</g>
</svg>
