<?xml version="1.0" encoding="iso-8859-1"?>
<!-- Generator: Adobe Illustrator 19.0.0, SVG Export Plug-In . SVG Version: 6.00 Build 0)  -->
<svg version="1.1" id="Layer_1" xmlns="http://www.w3.org/2000/svg" xmlns:xlink="http://www.w3.org/1999/xlink" x="0px" y="0px"
	 viewBox="0 0 512.001 512.001" style="enable-background:new 0 0 512.001 512.001;" xml:space="preserve">
<g>
	<g>
		<path d="M26.887,163.284c-1.781-7.01-3.448-14.15-4.96-21.222c-1.28-5.987-7.174-9.812-13.156-8.524
			c-5.987,1.278-9.803,7.17-8.525,13.156c1.57,7.346,3.303,14.762,5.152,22.046c1.274,5.019,5.785,8.359,10.736,8.359
			c0.903,0,1.821-0.111,2.736-0.343C24.805,175.248,28.394,169.216,26.887,163.284z"/>
	</g>
</g>
<g>
	<g>
		<path d="M36.378,196.417c-0.406-1.273-0.808-2.548-1.206-3.824c-1.825-5.844-8.042-9.099-13.886-7.278
			c-5.844,1.824-9.101,8.04-7.278,13.886c0.412,1.323,0.831,2.646,1.252,3.965c1.506,4.71,5.863,7.714,10.556,7.714
			c1.119,0,2.255-0.17,3.377-0.531C35.024,208.486,38.241,202.249,36.378,196.417z"/>
	</g>
</g>
<g>
	<g>
		<g>
			<path d="M456.575,399.333h-39.137c-85.375-97.362-136.222-222.764-141.557-352.89c-0.251-6.116-5.436-10.825-11.53-10.622
				c-6.117,0.251-10.872,5.414-10.622,11.531c3.243,79.093,21.951,155.545,55.603,227.233
				c21.157,45.068,47.544,86.793,78.83,124.747H190.538c-11.379,0-21.966,3.451-30.776,9.356
				C109.738,354.336,71.246,291.696,45.34,222.303c-2.142-5.736-8.528-8.645-14.261-6.508c-5.735,2.14-8.649,8.526-6.508,14.261
				c27.037,72.421,67.271,137.762,119.588,194.406c-5.711,8.714-9.045,19.119-9.045,30.293c0,30.562,24.863,55.424,55.424,55.424
				h266.038c30.562,0,55.424-24.863,55.424-55.424S487.137,399.333,456.575,399.333z M367.779,488.012
				c-13.995,0-26.549-8.909-31.237-22.17c-2.041-5.772-8.376-8.793-14.146-6.756c-5.772,2.041-8.797,8.374-6.756,14.146
				c1.908,5.398,4.605,10.358,7.924,14.78h-44.347c-14.066,0-26.667-8.909-31.356-22.17c-2.04-5.772-8.374-8.793-14.146-6.756
				c-5.772,2.041-8.797,8.374-6.756,14.146c1.908,5.398,4.607,10.358,7.932,14.78h-44.354c-18.337,0-33.255-14.919-33.255-33.255
				c0-18.336,14.917-33.255,33.255-33.255h44.354c-3.325,4.422-6.024,9.382-7.932,14.78c-2.041,5.772,0.984,12.105,6.756,14.146
				c1.222,0.432,2.468,0.637,3.695,0.637c4.565,0,8.841-2.844,10.451-7.393c4.688-13.26,17.29-22.17,31.355-22.17h44.347
				c-3.32,4.422-6.015,9.382-7.924,14.78c-2.041,5.772,0.984,12.105,6.756,14.146c1.222,0.432,2.468,0.637,3.695,0.637
				c4.565,0,8.841-2.844,10.451-7.393c4.688-13.26,17.242-22.17,31.237-22.17h39.609c0.918,1.007,1.867,1.989,2.792,2.99
				c-5.701,8.708-9.028,19.103-9.028,30.265c0,12.468,4.14,23.985,11.115,33.255H367.779z M456.575,488.012
				c-18.337,0-33.255-14.919-33.255-33.255c0-4.827,1.042-9.412,2.9-13.555c7.437,7.439,15.074,14.715,22.94,21.793
				c2.118,1.908,4.769,2.847,7.412,2.847c3.033,0,6.054-1.237,8.243-3.668c4.096-4.551,3.726-11.559-0.825-15.656
				c-7.702-6.932-15.188-14.072-22.471-21.397c4.524-2.307,9.638-3.618,15.056-3.618c18.337,0,33.255,14.919,33.255,33.255
				C489.83,473.093,474.913,488.012,456.575,488.012z"/>
			<circle cx="264.249" cy="13.058" r="11.236"/>
		</g>
	</g>
</g>
<g>
</g>
<g>
</g>
<g>
</g>
<g>
</g>
<g>
</g>
<g>
</g>
<g>
</g>
<g>
</g>
<g>
</g>
<g>
</g>
<g>
</g>
<g>
</g>
<g>
</g>
<g>
</g>
<g>
</g>
</svg>
