<?xml version="1.0" encoding="iso-8859-1"?>
<!-- Generator: Adobe Illustrator 19.0.0, SVG Export Plug-In . SVG Version: 6.00 Build 0)  -->
<svg version="1.1" id="Layer_1" xmlns="http://www.w3.org/2000/svg" xmlns:xlink="http://www.w3.org/1999/xlink" x="0px" y="0px"
	 viewBox="0 0 512 512" style="enable-background:new 0 0 512 512;" xml:space="preserve">
<g>
	<g>
		<path d="M289.05,260.481c-9.266,0-16.805-7.539-16.805-16.805c0-4.641-3.761-8.403-8.403-8.403c-3.584,0-6.635,2.247-7.842,5.406
			c-1.208-3.158-4.258-5.406-7.842-5.406c-4.642,0-8.403,3.762-8.403,8.403c0,9.266-7.539,16.805-16.805,16.805
			c-4.642,0-8.403,3.762-8.403,8.403s3.761,8.403,8.403,8.403c16.458,0,30.182-11.895,33.05-27.537
			c2.868,15.642,16.592,27.537,33.05,27.537c4.642,0,8.403-3.762,8.403-8.403S293.692,260.481,289.05,260.481z"/>
	</g>
</g>
<g>
	<g>
		<path d="M247.56,182.226c-7.326-10.098-17.493-17.484-29.403-21.362c-4.41-1.436-9.155,0.974-10.592,5.389
			c-1.436,4.412,0.976,9.154,5.389,10.591c8.391,2.731,15.85,8.148,21.004,15.251c1.644,2.265,4.208,3.469,6.807,3.469
			c1.711,0,3.437-0.521,4.927-1.602C249.45,191.236,250.286,185.981,247.56,182.226z"/>
	</g>
</g>
<g>
	<g>
		<path d="M304.434,166.26c-1.434-4.414-6.18-6.829-10.587-5.394c-11.901,3.867-22.07,11.254-29.406,21.362
			c-2.725,3.757-1.89,9.011,1.867,11.736c1.491,1.082,3.218,1.603,4.928,1.603c2.599,0,5.163-1.203,6.807-3.468
			c5.235-7.214,12.495-12.487,20.996-15.25C303.452,175.414,305.869,170.674,304.434,166.26z"/>
	</g>
</g>
<g>
	<g>
		<circle cx="199.982" cy="216.788" r="16.805"/>
	</g>
</g>
<g>
	<g>
		<circle cx="312.018" cy="216.788" r="16.805"/>
	</g>
</g>
<g>
	<g>
		<circle cx="256" cy="62.74" r="8.403"/>
	</g>
</g>
<g>
	<g>
		<circle cx="230.792" cy="90.748" r="8.403"/>
	</g>
</g>
<g>
	<g>
		<circle cx="208.385" cy="73.943" r="8.403"/>
	</g>
</g>
<g>
	<g>
		<circle cx="174.775" cy="96.35" r="8.403"/>
	</g>
</g>
<g>
	<g>
		<circle cx="258.801" cy="113.155" r="8.403"/>
	</g>
</g>
<g>
	<g>
		<circle cx="298.013" cy="101.952" r="8.403"/>
	</g>
</g>
<g>
	<g>
		<circle cx="309.217" cy="68.341" r="8.403"/>
	</g>
</g>
<g>
	<g>
		<circle cx="342.827" cy="101.952" r="8.403"/>
	</g>
</g>
<g>
	<g>
		<path d="M512,308.656c0-24.987-19.352-45.525-43.853-47.452c12.437-10.792,20.325-26.696,20.325-44.416
			c0-32.433-26.386-58.818-58.818-58.818c-5.963,0-11.767,0.873-17.348,2.603c-9.105-28.8-24.906-56.31-45.094-78.297
			C335.748,48.004,296.251,29.129,256,29.129c-30.931,0-61.573,11.145-88.616,32.232c-25.019,19.508-45.521,46.156-59.292,77.064
			c-1.889,4.239,0.017,9.206,4.255,11.095c4.239,1.889,9.206-0.017,11.095-4.255C150.326,84.924,202.358,45.934,256,45.934
			c35.489,0,70.589,16.943,98.834,47.707c20.497,22.326,36.078,50.859,43.872,80.345c0.649,2.455,2.373,4.485,4.691,5.522
			c2.319,1.036,4.979,0.971,7.244-0.18c5.939-3.022,12.336-4.553,19.015-4.553c23.167,0,42.013,18.847,42.013,42.013
			c0,23.167-18.848,42.013-42.014,42.013c-3.818,0-7.559-0.514-11.182-1.518c1.757-14.761,2.78-29.508,2.78-40.495
			c0-4.634,3.769-8.403,8.403-8.403c4.634,0,8.403,3.769,8.403,8.403c0,4.641,3.761,8.403,8.403,8.403s8.403-3.762,8.403-8.403
			c0-13.9-11.309-25.208-25.208-25.208c-13.899,0-25.208,11.308-25.208,25.208c0,11.959-1.302,28.781-3.482,44.999v0.001
			c-4.694,34.902-12.661,61.468-20.79,69.331c-14.347,13.878-43.735,25.068-80.628,30.699c-4.588,0.7-7.738,4.987-7.038,9.575
			c0.634,4.158,4.216,7.135,8.295,7.135c0.422,0,0.849-0.031,1.279-0.097c2.079-0.317,4.317-0.682,6.669-1.094
			c-9.694,19.771-29.82,32.712-52.752,32.712c-22.968,0-43.112-12.973-52.79-32.789c2.365,0.415,4.612,0.782,6.703,1.102
			c0.431,0.066,0.86,0.098,1.284,0.098c4.078,0,7.658-2.975,8.295-7.131c0.703-4.587-2.446-8.875-7.032-9.579
			c-36.977-5.668-66.367-16.833-80.634-30.633c-2.905-2.81-8.633-11.005-14.353-34.319c-2.501-10.194-4.727-22.301-6.436-35.012
			c-2.181-16.213-3.483-33.035-3.483-44.998c0-13.9-11.308-25.208-25.208-25.208c-13.9,0-25.208,11.308-25.208,25.208
			c0,4.641,3.762,8.403,8.403,8.403s8.403-3.762,8.403-8.403c0-4.634,3.769-8.403,8.403-8.403c4.634,0,8.403,3.769,8.403,8.403
			c0,10.99,1.024,25.738,2.78,40.495c-3.623,1.004-7.364,1.518-11.182,1.518c-23.167,0-42.013-18.847-42.013-42.013
			c0-23.167,18.847-42.013,42.013-42.013c6.678,0,13.076,1.533,19.013,4.553c0.007,0.003,0.012,0.006,0.019,0.009
			c0.003,0.001,0.007,0.004,0.01,0.006l8.863,4.496c2.502,1.269,5.195,1.887,7.865,1.887c4.497,0,8.928-1.752,12.27-5.094
			l44.298-44.297l0.653-0.648c6.958-6.852,17.938-8.153,26.698-3.165c16.366,9.32,35.028,14.245,53.965,14.245
			c18.936,0,37.599-4.925,53.967-14.245c8.76-4.987,19.737-3.684,26.698,3.167l44.948,44.943c3.283,3.282,8.602,3.282,11.884,0
			c3.281-3.281,3.281-8.602,0-11.882l-44.305-44.304l-0.741-0.734c-12.292-12.101-31.539-14.482-46.799-5.792
			c-13.839,7.878-29.625,12.043-45.652,12.043c-16.028,0-31.813-4.164-45.652-12.044c-15.264-8.688-34.509-6.308-46.799,5.79
			l-45.047,45.04c-0.171,0.171-0.434,0.212-0.65,0.103l-8.862-4.496c-0.001,0-0.002-0.001-0.003-0.001
			c-0.002-0.001-0.004-0.002-0.007-0.003c-8.321-4.234-17.281-6.38-26.634-6.38c-32.433,0-58.818,26.385-58.818,58.818
			c0,17.721,7.888,33.624,20.324,44.416C19.351,263.131,0,283.669,0,308.656c0,26.255,21.359,47.615,47.615,47.615
			c0.559,0,1.111-0.024,1.666-0.043c-6.864,15.433-3.987,34.184,8.651,46.823l6.61,6.61c6.368,6.368,14.733,9.552,23.097,9.552
			c1.246,0,2.492-0.08,3.731-0.221c-1.851,5.077-2.863,10.554-2.863,16.263c0,26.255,21.359,47.615,47.615,47.615
			c11.661,0,22.349-4.22,30.636-11.203h178.483c8.287,6.983,18.975,11.203,30.636,11.203c26.255,0,47.615-21.359,47.615-47.615
			c0-5.709-1.012-11.186-2.862-16.262c1.239,0.141,2.484,0.221,3.73,0.221c8.363,0,16.73-3.184,23.096-9.551l6.612-6.611
			c12.638-12.639,15.513-31.39,8.65-46.823c0.555,0.019,1.108,0.043,1.666,0.043C490.641,356.271,512,334.912,512,308.656z
			 M416.157,274.045c4.396,1.037,8.908,1.561,13.497,1.561c0.172,0,0.343-0.011,0.515-0.013
			c-8.286,8.572-13.399,20.229-13.399,33.064c0,6.391,1.274,12.486,3.567,18.059c-3.582-2.102-7.743-3.099-11.975-2.75
			c-1.815,0.15-3.568,0.566-5.243,1.171C409.258,310.61,413.404,291.513,416.157,274.045z M394.841,359.415l12.299-17.218
			c0.836-1.171,1.993-1.431,2.609-1.482c0.62-0.05,1.8,0.016,2.819,1.033c1.238,1.237,1.398,3.171,0.381,4.597
			c-0.06,0.085-0.111,0.175-0.168,0.262c-0.12,0.16-0.244,0.314-0.361,0.477l-11.769,16.479c-0.837,1.171-1.994,1.431-2.61,1.482
			c-0.614,0.048-1.8-0.015-2.819-1.033C393.982,362.774,393.822,360.84,394.841,359.415z M379.202,353.055
			c-3.484,7.615-1.989,16.713,4.137,22.839c2.48,2.48,5.518,4.233,8.805,5.172c-0.534,3.106-0.592,6.257-0.222,9.364
			c-5.016-1.802-10.417-2.79-16.046-2.79c-2.083,0.001-4.131,0.15-6.145,0.411c-5.885-7.745-12.53-14.808-19.829-21.177
			C360.2,363.256,370.357,358.718,379.202,353.055z M303.488,410.084c3.419-2.763,6.573-5.818,9.443-9.107
			c6.808,5.297,12.931,11.543,18.038,18.479c-0.21,0.594-0.415,1.191-0.601,1.795h-45.847
			C291.321,418.486,297.729,414.738,303.488,410.084z M199.062,400.97c2.864,3.283,6.01,6.332,9.42,9.091
			c5.768,4.664,12.184,8.419,18.997,11.191h-43.181v-5.998C188.673,409.948,193.618,405.187,199.062,400.97z M128.661,375.894
			c6.132-6.131,7.625-15.242,4.128-22.863c8.85,5.651,19.03,10.182,29.358,13.798c-7.318,6.38-13.982,13.455-19.883,21.221
			c-2.012-0.261-4.059-0.409-6.141-0.409c-5.629,0-11.029,0.988-16.046,2.79c0.37-3.107,0.313-6.258-0.222-9.365
			C123.143,380.126,126.181,378.374,128.661,375.894z M117.158,359.413c1.018,1.426,0.858,3.36-0.381,4.599
			c-1.017,1.018-2.201,1.085-2.818,1.033c-0.615-0.05-1.771-0.311-2.608-1.48l-11.773-16.481c-0.114-0.16-0.238-0.311-0.354-0.468
			c-0.059-0.09-0.11-0.183-0.173-0.27c-1.018-1.425-0.858-3.36,0.38-4.598c1.018-1.018,2.203-1.083,2.819-1.033
			c0.615,0.05,1.774,0.311,2.609,1.482L117.158,359.413z M82.346,275.606c4.59,0,9.103-0.523,13.5-1.562
			c1.527,9.636,3.305,18.602,5.305,26.758c2.353,9.59,4.916,17.665,7.716,24.327c-1.67-0.603-3.419-1.016-5.229-1.166
			c-4.23-0.348-8.393,0.649-11.975,2.75c2.293-5.571,3.567-11.667,3.567-18.058c0-12.835-5.113-24.492-13.399-33.064
			C82.003,275.595,82.173,275.606,82.346,275.606z M47.615,339.466c-16.989,0-30.81-13.821-30.81-30.81
			c0-16.989,13.821-30.81,30.81-30.81c16.989,0,30.81,13.821,30.81,30.81C78.424,325.645,64.604,339.466,47.615,339.466z
			 M98.856,397.779c-6.187,6.184-16.247,6.183-22.431,0l-6.61-6.61c-4.761-4.761-7.383-11.091-7.383-17.825
			c0-6.733,2.623-13.063,7.383-17.825c1.995-1.995,4.68-3.099,7.475-3.099c0.291,0,0.585,0.012,0.878,0.036
			c3.106,0.257,5.926,1.859,7.736,4.394l11.768,16.475c0.001,0.001,0.001,0.002,0.002,0.005c0.001,0.001,0.002,0.002,0.003,0.003
			l2.868,4.014C105.072,383.682,104.361,392.275,98.856,397.779z M159.207,455.627c-5.649,6.395-13.901,10.438-23.085,10.438
			c-16.989,0-30.81-13.821-30.81-30.81c0-16.989,13.821-30.81,30.81-30.81c14.706,0,27.032,10.36,30.079,24.163
			c-4.169,8.148-7.277,16.928-9.107,26.174C157.793,455.074,158.505,455.343,159.207,455.627z M171.906,403.895
			c-3.586-4.087-7.857-7.558-12.635-10.229c6.589-7.89,14.113-14.902,22.446-20.99c0.64,0.162,1.278,0.324,1.912,0.479
			c1.473,4.856,3.438,9.542,5.848,13.991C183,392.08,177.123,397.672,171.906,403.895z M184.298,454.862v-16.805h144.055
			c0.347,5.961,1.802,11.627,4.152,16.805H184.298z M340.092,403.896c-5.215-6.225-11.093-11.816-17.57-16.749
			c2.396-4.425,4.354-9.086,5.825-13.913c0.665-0.162,1.335-0.333,2.007-0.503c8.306,6.077,15.805,13.073,22.372,20.937
			C347.947,396.34,343.679,399.809,340.092,403.896z M375.877,466.066c-16.988,0-30.81-13.821-30.81-30.81
			c0-16.989,13.822-30.81,30.81-30.81c16.988,0,30.81,13.821,30.81,30.81C406.687,452.245,392.865,466.066,375.877,466.066z
			 M442.187,391.168l-6.612,6.611c-6.182,6.183-16.245,6.183-22.427,0c-5.504-5.504-6.216-14.097-1.691-20.432l14.638-20.497
			c1.812-2.535,4.632-4.137,7.737-4.394c0.294-0.023,0.585-0.036,0.877-0.036c2.795,0,5.481,1.104,7.475,3.099
			C452.013,365.348,452.013,381.34,442.187,391.168z M433.576,308.656c0-16.989,13.822-30.81,30.81-30.81s30.81,13.821,30.81,30.81
			c0,16.989-13.822,30.81-30.81,30.81S433.576,325.645,433.576,308.656z"/>
	</g>
</g>
<g>
</g>
<g>
</g>
<g>
</g>
<g>
</g>
<g>
</g>
<g>
</g>
<g>
</g>
<g>
</g>
<g>
</g>
<g>
</g>
<g>
</g>
<g>
</g>
<g>
</g>
<g>
</g>
<g>
</g>
</svg>
