<?xml version="1.0" encoding="iso-8859-1"?>
<!-- Generator: Adobe Illustrator 19.0.0, SVG Export Plug-In . SVG Version: 6.00 Build 0)  -->
<svg version="1.1" id="Layer_1" xmlns="http://www.w3.org/2000/svg" xmlns:xlink="http://www.w3.org/1999/xlink" x="0px" y="0px"
	 viewBox="0 0 512.002 512.002" style="enable-background:new 0 0 512.002 512.002;" xml:space="preserve">
<g>
	<g>
		<path d="M293.821,309.03c-3.157-3.154-8.27-3.154-11.423,0c-7.608,7.609-17.747,11.799-28.55,11.799s-20.942-4.19-28.55-11.799
			c-3.154-3.153-8.266-3.154-11.421,0c-3.154,3.154-3.154,8.267,0,11.421c10.659,10.659,24.853,16.53,39.971,16.53
			s29.312-5.871,39.971-16.53C296.975,317.297,296.974,312.184,293.821,309.03z"/>
	</g>
</g>
<g>
	<g>
		<path d="M428.811,208.389v-52.476c0-33.531-16.414-64.579-43.908-83.054c-9.046-6.079-18.824-11.507-29.133-16.231
			c10.57-24.474,34.551-40.476,61.736-40.476c37.105,0,67.293,30.188,67.293,67.293c0,25.321-13.999,48.258-36.534,59.858
			c-1.47,0.756-2.988,1.468-4.512,2.114c-4.105,1.741-6.023,6.481-4.282,10.587c1.304,3.077,4.294,4.925,7.438,4.925
			c1.051,0,2.12-0.207,3.148-0.643c1.892-0.802,3.776-1.685,5.6-2.624c27.938-14.381,45.293-42.82,45.293-74.218
			C500.949,37.432,463.516,0,417.505,0c-33.794,0-63.594,19.947-76.649,50.43c-11.615-4.349-23.754-7.838-36.201-10.355
			c-4.31-0.872-8.732-1.314-13.144-1.314c-13.476,0-26.628,4.062-37.664,11.542c-11.036-7.48-24.188-11.542-37.665-11.542
			c-4.411,0-8.833,0.443-13.144,1.314c-11.136,2.253-22.029,5.277-32.519,9.003C157.137,19.417,127.56,0.001,94.497,0.001
			c-46.012,0-83.444,37.432-83.444,83.444c0,33.178,19.65,63.203,50.06,76.491c1.053,0.46,2.149,0.677,3.229,0.677
			c3.113,0,6.078-1.81,7.403-4.844c1.786-4.086-0.08-8.847-4.167-10.632c-24.527-10.717-40.376-34.932-40.376-61.691
			c0-37.105,30.188-67.293,67.293-67.293c26.4,0,50.047,15.347,60.987,38.868c-11.627,5.083-22.608,11.063-32.693,17.84
			c-27.493,18.474-43.908,49.523-43.908,83.054v35.201c0,4.46,3.616,8.075,8.075,8.075s8.075-3.616,8.075-8.075v-35.201
			c0-28.143,13.744-54.179,36.765-69.649c21.316-14.323,47.057-24.821,74.44-30.359c3.259-0.659,6.604-0.993,9.943-0.993
			c10.65,0,21.018,3.342,29.59,9.459v58.911c0,4.46,3.616,8.075,8.075,8.075s8.075-3.616,8.075-8.075V64.371
			c8.574-6.117,18.942-9.459,29.592-9.459c3.339,0,6.684,0.335,9.943,0.993c27.383,5.537,53.124,16.035,74.441,30.359
			c23.021,15.469,36.765,41.506,36.765,69.649v52.509c-6.034,0.878-11.853,2.707-17.37,5.514
			c-6.458,3.286-12.12,7.707-16.876,13.127c-2.367,1.978-3.492,5.225-2.601,8.386l0.032,0.115c0.002,0.006,0.005,0.012,0.006,0.018
			c0.111,0.393,0.259,0.775,0.43,1.15c0.027,0.06,0.053,0.121,0.082,0.18c0.167,0.343,0.36,0.676,0.577,0.997
			c0.043,0.064,0.089,0.125,0.135,0.187c0.209,0.289,0.434,0.567,0.684,0.83c0.025,0.027,0.047,0.056,0.073,0.083
			c0.195,0.2,0.402,0.392,0.621,0.575c0.049,0.041,0.104,0.068,0.154,0.107c0.223,0.177,0.46,0.332,0.7,0.483
			c0.151,0.096,0.297,0.2,0.452,0.285c0.24,0.13,0.492,0.234,0.743,0.339c0.163,0.068,0.321,0.151,0.488,0.208
			c0.305,0.106,0.621,0.177,0.938,0.244c0.116,0.025,0.228,0.067,0.345,0.086c0.439,0.074,0.886,0.115,1.338,0.115
			c0.046,0,0.094-0.009,0.14-0.01c0.282-0.005,0.563-0.024,0.844-0.058c0.11-0.014,0.22-0.036,0.329-0.054
			c0.239-0.039,0.475-0.088,0.71-0.149c0.057-0.015,0.115-0.019,0.172-0.036c0.061-0.017,0.117-0.042,0.178-0.06
			c0.135-0.041,0.267-0.086,0.401-0.135c0.137-0.05,0.27-0.102,0.403-0.158c0.124-0.053,0.245-0.108,0.366-0.167
			c0.139-0.068,0.275-0.14,0.409-0.215c0.108-0.06,0.215-0.121,0.322-0.187c0.146-0.092,0.287-0.19,0.427-0.29
			c0.087-0.062,0.175-0.122,0.261-0.188c0.174-0.136,0.339-0.28,0.501-0.429c0.046-0.042,0.095-0.08,0.14-0.124
			c0.21-0.202,0.408-0.415,0.594-0.637c0.005-0.006,0.013-0.013,0.018-0.019c3.54-4.257,7.843-7.692,12.788-10.208
			c5.661-2.88,11.766-4.352,18.147-4.371c0.017,0,0.034-0.002,0.053-0.003c22.228,0.041,40.301,18.136,40.301,40.374
			c0,22.264-18.112,40.376-40.376,40.376c-4.293,0-8.46-0.674-12.46-1.979c2.903-12.902,4.384-25.788,4.384-38.397
			c0-4.453,3.622-8.075,8.075-8.075s8.075,3.622,8.075,8.075c0,4.46,3.616,8.075,8.075,8.075s8.075-3.616,8.075-8.075
			c0-13.359-10.867-24.226-24.226-24.226s-24.226,10.867-24.226,24.226c0,13.414-1.844,27.21-5.481,41.01
			c-0.004,0.015-0.005,0.03-0.01,0.045c-0.008,0.027-0.018,0.053-0.026,0.08C375.226,365.122,321.8,428.526,253.85,428.526
			c-17.089,0-34.036-4.029-50.372-11.976c-40.625-19.763-73.87-62.331-86.762-111.092c-0.02-0.078-0.052-0.151-0.074-0.227
			c-3.618-13.762-5.455-27.523-5.455-40.9c0-13.359-10.867-24.226-24.226-24.226c-13.359,0-24.226,10.867-24.226,24.226
			c0,4.46,3.616,8.075,8.075,8.075s8.075-3.616,8.075-8.075c0-4.453,3.622-8.075,8.075-8.075c4.453,0,8.075,3.622,8.075,8.075
			c0,12.609,1.483,25.495,4.384,38.397c-3.998,1.305-8.166,1.979-12.458,1.979c-22.264,0-40.376-18.112-40.376-40.376
			s18.112-40.376,40.376-40.376h0.15c6.418,0,12.566,1.473,18.273,4.376c4.945,2.516,9.248,5.951,12.788,10.207
			c1.929,2.319,4.993,3.371,7.938,2.724c2.948-0.646,5.289-2.882,6.07-5.797c0.206-0.767,0.737-1.152,1.146-1.341
			c0.368-0.17,1.115-0.393,1.97,0.016c0.002,0.001,0.003,0.001,0.005,0.002c17.049,8.155,34.819,14.497,53.103,18.977
			c-2.806,2.905-4.539,6.853-4.539,11.211c0,8.919,7.231,16.15,16.15,16.15c8.919,0,16.15-7.231,16.15-16.15
			c0-2.146-0.427-4.189-1.188-6.063c1.879,0.269,3.762,0.52,5.649,0.75c3.438,0.419,6.807,0.061,9.949-0.901
			c-5.585,5.809-9.028,13.69-9.028,22.365c0,17.811,14.49,32.301,32.301,32.301c17.811,0,32.301-14.49,32.301-32.301
			c0-6.733-2.06-13.19-5.955-18.675c-2.583-3.635-7.625-4.489-11.26-1.907c-3.635,2.582-4.489,7.624-1.907,11.26
			c1.945,2.736,2.972,5.959,2.972,9.321c0,8.905-7.245,16.15-16.15,16.15s-16.15-7.245-16.15-16.15c0-8.905,7.245-16.15,16.15-16.15
			c4.46,0,8.075-3.616,8.075-8.075c0-4.46-3.616-8.075-8.075-8.075c-4.093,0-8.006,0.773-11.612,2.167
			c2.498-3.011,4.311-6.645,5.111-10.71l6.502-33.057l6.536,33.228c2.244,11.411,12.402,19.558,23.787,19.558
			c0.919,0,1.847-0.053,2.778-0.161c1.902-0.222,3.802-0.472,5.698-0.732c-0.708,1.818-1.112,3.789-1.112,5.858
			c0,8.919,7.231,16.15,16.15,16.15c8.919,0,16.15-7.231,16.15-16.15c0-4.225-1.635-8.059-4.292-10.937
			c13.128-3.162,26.012-7.281,38.537-12.339c4.136-1.67,6.134-6.376,4.464-10.512c-1.67-4.136-6.377-6.135-10.512-4.464
			c-21.418,8.649-43.944,14.398-66.958,17.085c-4.148,0.479-8.035-2.358-8.845-6.472l-14.459-73.515
			c-0.744-3.787-4.065-6.517-7.923-6.517c-3.859,0-7.178,2.73-7.923,6.517l-14.424,73.343c-0.814,4.137-4.728,6.977-8.914,6.464
			c-27.959-3.416-54.98-11.293-80.316-23.412c-0.001,0-0.002-0.001-0.003-0.002c-0.014-0.006-0.028-0.011-0.041-0.017
			c-0.25-0.117-0.503-0.222-0.757-0.312c-4.779-2.02-10.155-1.97-14.894,0.211c-1.05,0.483-2.04,1.057-2.963,1.714
			c-3.323-2.81-6.967-5.228-10.902-7.231c-8.002-4.069-16.613-6.132-25.602-6.132h-0.15c-31.169,0-56.526,25.357-56.526,56.527
			s25.357,56.526,56.526,56.526c5.733,0,11.314-0.84,16.679-2.503c11.904,37.79,35.094,71.596,64.203,94.625
			c-18.452,20.426-28.928,46.454-29.692,74.219c-0.123,4.459,3.392,8.172,7.85,8.295c0.076,0.002,0.152,0.003,0.226,0.003
			c4.356,0,7.947-3.471,8.068-7.852c0.511-18.57,6.089-36.229,15.999-51.433c7.041,15.427,10.794,32.28,10.925,49.391
			c0.002,0.269,0.017,0.535,0.045,0.796l0.095,17.573c0.024,4.445,3.635,8.031,8.074,8.031c0.015,0,0.03,0,0.045,0
			c4.46-0.024,8.056-3.659,8.031-8.119l-0.099-18.387c-0.001-0.29-0.018-0.575-0.051-0.857c-0.296-21.59-5.693-42.796-15.647-61.796
			c4.785,3.034,9.688,5.793,14.699,8.23c18.555,9.027,37.879,13.604,57.436,13.604c25.084,0,49.559-7.429,72.062-21.7
			c-9.909,18.963-15.28,40.119-15.577,61.657c-0.031,0.283-0.048,0.571-0.051,0.862l-0.099,18.387
			c-0.024,4.46,3.571,8.095,8.031,8.119c0.015,0,0.029,0,0.045,0c4.439,0,8.05-3.586,8.074-8.031l0.095-17.568
			c0.028-0.263,0.044-0.53,0.045-0.8c0.13-17.115,3.886-33.972,10.93-49.402c9.912,15.201,15.486,32.86,15.998,51.443
			c0.121,4.382,3.711,7.852,8.068,7.852c0.075,0,0.151-0.001,0.226-0.003c4.458-0.123,7.973-3.836,7.85-8.295
			c-0.764-27.762-11.222-53.755-29.651-74.17c3.742-2.967,7.415-6.136,11.013-9.503c24.279-22.719,42.94-52.691,53.163-85.167
			c5.361,1.661,10.937,2.499,16.666,2.499c31.169,0,56.527-25.357,56.527-56.526C477.264,235.903,456.169,212.32,428.811,208.389z"
			/>
	</g>
</g>
<g>
	<g>
		<path d="M176.328,277.789h-10.767c-4.461,0-8.075,3.616-8.075,8.075c0,4.46,3.615,8.075,8.075,8.075h10.767
			c4.461,0,8.075-3.616,8.075-8.075C184.403,281.404,180.789,277.789,176.328,277.789z"/>
	</g>
</g>
<g>
	<g>
		<path d="M342.139,277.789h-10.767c-4.461,0-8.075,3.616-8.075,8.075c0,4.46,3.614,8.075,8.075,8.075h10.767
			c4.461,0,8.075-3.616,8.075-8.075C350.214,281.404,346.6,277.789,342.139,277.789z"/>
	</g>
</g>
<g>
</g>
<g>
</g>
<g>
</g>
<g>
</g>
<g>
</g>
<g>
</g>
<g>
</g>
<g>
</g>
<g>
</g>
<g>
</g>
<g>
</g>
<g>
</g>
<g>
</g>
<g>
</g>
<g>
</g>
</svg>
