<?xml version="1.0" encoding="iso-8859-1"?>
<!-- Generator: Adobe Illustrator 19.0.0, SVG Export Plug-In . SVG Version: 6.00 Build 0)  -->
<svg version="1.1" id="Layer_1" xmlns="http://www.w3.org/2000/svg" xmlns:xlink="http://www.w3.org/1999/xlink" x="0px" y="0px"
	 viewBox="0 0 512.001 512.001" style="enable-background:new 0 0 512.001 512.001;" xml:space="preserve">
<path style="fill:#A27B5A;" d="M83.786,243.905l-51.503,29.502c-6.252,3.581-14.125,2.548-19.242-2.525l-2.986-2.961
	c-3.578-3.547-2.471-9.582,2.132-11.629l64.087-28.495L83.786,243.905z"/>
<path style="opacity:0.2;enable-background:new    ;" d="M76.275,227.798l-51.611,22.949c0.253,8.769,1.262,16.909,3.009,24.417
	c1.588-0.34,3.145-0.916,4.611-1.756l51.503-29.502L76.275,227.798z"/>
<path style="fill:#A27B5A;" d="M428.217,243.905l51.503,29.502c6.252,3.581,14.125,2.548,19.242-2.525l2.986-2.961
	c3.578-3.547,2.471-9.582-2.132-11.629l-64.088-28.495L428.217,243.905z"/>
<path style="opacity:0.2;enable-background:new    ;" d="M435.728,227.798l51.611,22.949c-0.253,8.769-1.263,16.909-3.009,24.417
	c-1.588-0.34-3.145-0.916-4.611-1.756l-51.503-29.502L435.728,227.798z"/>
<path style="fill:#A27B5A;" d="M384.2,175.74c-2.462,0-4.861,0.054-7.231,0.133l0.016-0.013c-62.219,0-86.875,23.948-120.988,23.948
	s-58.769-23.948-120.988-23.948l0.017,0.013c-2.37-0.078-4.769-0.133-7.231-0.133c-58.744,0-90.064,9.953-106.528,18.251
	c-2.198,1.107-3.567,3.373-3.567,5.834v11.836c0,3.436,1.568,6.742,4.368,8.732c7.417,5.268,12.279,16.523,12.279,23.657
	c0,31.129,9.028,54.806,26.831,70.371c16.81,14.696,40.786,21.84,73.299,21.84c39.181,0,73.206-20.885,91.02-55.869
	c4.065-7.983,6.963-16.27,8.605-24.403l0.014,0.011c6.896-20.83,14.289-26.231,21.885-26.231c7.596,0,14.989,5.4,21.885,26.231
	l0.007-0.006c1.642,8.131,4.54,16.416,8.604,24.398c17.813,34.984,51.84,55.869,91.02,55.869c32.513,0,56.49-7.144,73.299-21.84
	c17.804-15.565,26.831-39.241,26.831-70.371c0-7.134,4.862-18.389,12.279-23.657c2.801-1.99,4.368-5.295,4.368-8.732v-11.836
	c0-2.461-1.37-4.727-3.567-5.834C474.265,185.694,442.944,175.74,384.2,175.74z"/>
<path style="fill:#394049;" d="M134.478,200.008c-35.49,0-77.952-5.71-77.952,44.043s25.35,70.033,77.952,70.033
	c64.009,0,89.992-67.812,74.783-88.725C194.05,204.444,158.598,200.008,134.478,200.008z"/>
<path style="opacity:0.2;enable-background:new    ;" d="M209.26,225.357c-15.21-20.914-50.664-25.35-74.783-25.35
	c-35.49,0-77.952-5.71-77.952,44.043c0,0.741,0.024,1.454,0.036,2.183c1.356-47.165,43.008-41.642,77.916-41.642
	c24.12,0,59.573,4.436,74.783,25.35c2.491,3.426,3.87,8.115,4.165,13.553C213.802,236.106,212.428,229.713,209.26,225.357z"/>
<path style="fill:#394049;" d="M377.517,200.008c35.49,0,77.952-5.71,77.952,44.043s-25.35,70.033-77.952,70.033
	c-64.009,0-89.993-67.812-74.783-88.725C317.945,204.444,353.398,200.008,377.517,200.008z"/>
<path style="opacity:0.2;enable-background:new    ;" d="M302.743,225.357c15.21-20.914,50.664-25.35,74.783-25.35
	c35.49,0,77.951-5.71,77.951,44.043c0,0.741-0.024,1.454-0.036,2.183c-1.356-47.165-43.008-41.642-77.916-41.642
	c-24.12,0-59.573,4.436-74.783,25.35c-2.491,3.426-3.87,8.115-4.165,13.553C298.2,236.106,299.575,229.713,302.743,225.357z"/>
<g>
	<path style="fill:#C3C4C7;" d="M43.642,216.018h-4.99c-4.381,0-7.933-3.552-7.933-7.933s3.552-7.933,7.933-7.933h4.99
		c4.381,0,7.933,3.552,7.933,7.933S48.023,216.018,43.642,216.018z"/>
	<path style="fill:#C3C4C7;" d="M473.352,216.018h-4.99c-4.381,0-7.933-3.552-7.933-7.933s3.552-7.933,7.933-7.933h4.99
		c4.381,0,7.933,3.552,7.933,7.933S477.733,216.018,473.352,216.018z"/>
</g>
<g>
	<path style="opacity:0.1;fill:#FFFFFF;enable-background:new    ;" d="M450.715,220.265l-91.771,91.77
		c5.787,1.316,11.975,2.047,18.573,2.047c52.601,0,77.952-20.28,77.952-70.033C455.47,234.042,453.749,226.283,450.715,220.265z"/>
	<path style="opacity:0.1;fill:#FFFFFF;enable-background:new    ;" d="M134.478,200.008c-35.49,0-77.952-5.71-77.952,44.043
		c0,12.408,1.578,22.981,4.761,31.866l75.888-75.888C136.263,200.015,135.361,200.008,134.478,200.008z"/>
</g>
<path d="M134.477,192.075c-3.235,0-6.624-0.05-9.901-0.097c-23.404-0.343-47.609-0.698-62.857,14.329
	c-8.832,8.703-13.125,21.049-13.125,37.744c0,27.216,7.184,46.727,21.962,59.647c14.1,12.327,35.009,18.32,63.922,18.32
	c33.712,0,62.992-17.976,78.325-48.087c10.405-20.433,11.533-41.33,2.873-53.237C197.568,195.793,157.03,192.075,134.477,192.075z
	 M198.665,266.73c-4.709,9.248-23.255,39.421-64.188,39.421c-49.733,0-70.018-17.992-70.018-62.1
	c0-12.226,2.746-20.877,8.395-26.442c8.761-8.633,24.67-9.864,41.379-9.864c3.354,0,6.742,0.05,10.11,0.098
	c3.335,0.049,6.783,0.099,10.134,0.099c15.727,0,53.873,2.151,68.367,22.082C206.982,235.713,206.923,250.511,198.665,266.73z
	 M387.42,191.977c-3.278,0.048-6.668,0.097-9.901,0.097c-22.552,0-63.09,3.718-81.198,28.617
	c-8.66,11.907-7.532,32.804,2.873,53.237c15.333,30.111,44.613,48.087,78.326,48.087c28.913,0,49.823-5.992,63.922-18.32
	c14.779-12.92,21.962-32.43,21.962-59.647c0-16.694-4.293-29.041-13.125-37.744C435.028,191.279,410.825,191.632,387.42,191.977z
	 M377.517,306.151c-40.932,0-59.478-30.173-64.188-39.421c-8.259-16.218-8.317-31.016-4.18-36.706
	c14.495-19.931,52.64-22.082,68.367-22.082c3.351,0,6.799-0.051,10.134-0.099c3.369-0.049,6.755-0.098,10.11-0.098
	c16.708,0,32.619,1.232,41.379,9.864c5.649,5.567,8.395,14.216,8.395,26.442C447.537,288.158,427.25,306.151,377.517,306.151z
	 M511.753,260.116c-0.899-4.906-4.157-9.045-8.714-11.071l-17.163-7.632c0.986-4.991,4.411-11.545,8.645-14.552
	c4.826-3.428,7.707-9.11,7.707-15.199v-11.836c0-5.503-3.039-10.454-7.93-12.918c-25.147-12.674-62.189-19.101-110.098-19.101
	c-2.162,0-4.408,0.039-7.029,0.122c-0.062-0.001-0.124-0.002-0.186-0.002c-37.056,0-61.703,8.346-81.508,15.052
	c-14.099,4.774-26.274,8.897-39.48,8.897c-13.207,0-25.383-4.123-39.481-8.897c-19.805-6.706-44.452-15.052-81.508-15.052
	c-0.062,0-0.124,0-0.186,0.002c-2.622-0.084-4.867-0.122-7.029-0.122c-47.909,0-84.951,6.426-110.098,19.1
	c-4.892,2.465-7.93,7.415-7.93,12.918v11.836c0,6.088,2.881,11.771,7.708,15.2c4.235,3.007,7.66,9.563,8.645,14.554l-17.157,7.628
	c-4.557,2.027-7.815,6.166-8.714,11.071c-0.899,4.905,0.679,9.929,4.219,13.44l2.986,2.961c4.594,4.555,10.714,6.928,16.893,6.928
	c2.486,0,4.981-0.389,7.389-1.171c4.822,15.46,12.898,28.225,24.218,38.121c18.318,16.016,44.003,23.801,78.52,23.801
	c42.225,0,78.895-22.505,98.09-60.202c4.27-8.386,7.359-17.067,9.184-25.811c4.537-13.589,9.33-20.478,14.25-20.478
	c4.912,0,9.699,6.87,14.231,20.42c1.825,8.765,4.917,17.466,9.196,25.87c19.196,37.697,55.864,60.201,98.089,60.201
	c34.517,0,60.202-7.785,78.521-23.801c11.32-9.897,19.397-22.662,24.219-38.123c2.411,0.783,4.908,1.173,7.397,1.173
	c6.178,0,12.299-2.374,16.894-6.928l2.985-2.96C511.075,270.045,512.653,265.02,511.753,260.116z M18.626,265.249l-2.184-2.166
	l10.648-4.734c0.264,2.822,0.602,5.586,1.028,8.278C25.007,268.284,21.141,267.742,18.626,265.249z M469.715,244.05
	c0,28.74-8.115,50.406-24.12,64.398c-15.3,13.377-37.569,19.88-68.078,19.88c-36.135,0-67.519-19.266-83.952-51.535
	c-3.717-7.299-6.374-14.825-7.897-22.368c-0.089-0.44-0.214-0.867-0.372-1.279c-4.522-13.553-12.477-31.31-29.296-31.31
	c-8.078,0-19.876,3.246-29.247,31.165c-0.184,0.454-0.328,0.928-0.426,1.417c-1.523,7.544-4.18,15.072-7.898,22.373
	c-16.433,32.269-47.816,51.535-83.952,51.535c-30.508,0-52.777-6.503-68.077-19.88c-16.005-13.992-24.12-35.658-24.12-64.398
	c0-9.355-5.842-23.18-15.619-30.123c-0.635-0.452-1.029-1.319-1.029-2.265v-10.982c15.979-7.854,46.544-17.006,102.162-17.006
	c2.11,0,4.324,0.041,6.968,0.129c0.237,0.007,0.473,0.004,0.708-0.008c34.181,0.067,56.368,7.581,75.957,14.214
	c14.785,5.006,28.749,9.734,44.57,9.734c15.82,0,29.785-4.728,44.569-9.734c19.587-6.632,41.78-14.146,75.956-14.214
	c0.236,0.014,0.472,0.016,0.71,0.008c2.644-0.088,4.858-0.129,6.967-0.129c55.618,0,86.182,9.153,102.162,17.006v10.981
	c0,0.945-0.395,1.813-1.029,2.264C475.557,220.869,469.715,234.695,469.715,244.05z M493.377,265.249
	c-2.517,2.497-6.388,3.036-9.498,1.375c0.426-2.692,0.764-5.456,1.028-8.278l10.655,4.738L493.377,265.249z"/>
<g>
</g>
<g>
</g>
<g>
</g>
<g>
</g>
<g>
</g>
<g>
</g>
<g>
</g>
<g>
</g>
<g>
</g>
<g>
</g>
<g>
</g>
<g>
</g>
<g>
</g>
<g>
</g>
<g>
</g>
</svg>
