<?xml version="1.0" encoding="iso-8859-1"?>
<!-- Generator: Adobe Illustrator 19.0.0, SVG Export Plug-In . SVG Version: 6.00 Build 0)  -->
<svg xmlns="http://www.w3.org/2000/svg" xmlns:xlink="http://www.w3.org/1999/xlink" version="1.1" id="Layer_1" x="0px" y="0px" viewBox="0 0 364.049 364.049" style="enable-background:new 0 0 364.049 364.049;" xml:space="preserve" width="512" height="512">
<g>
	<g>
		<path style="fill:#1C7287;" d="M303.624,287.049h-101.6v-13h3c33.084,0,60-26.515,60-59.599v-32.212c0-8.284-6.716-15-15-15    s-15,6.716-15,15v32.212c0,16.542-13.458,29.599-30,29.599h-18h-18c-16.542,0-30-13.057-30-29.599v-32.212c0-8.284-6.716-15-15-15    s-15,6.716-15,15v32.212c0,33.084,26.916,59.599,60,59.599h3v13h-135c-8.284,0-15,6.716-15,15s6.716,15,15,15h135v11.234    c0,12.04,5.914,22.579,14.99,29.041c5.956,4.241,13.275,6.725,21.177,6.725h95.968c20.879,0,37.865-16.585,37.865-37.465v-0.733    C342.024,304.677,324.798,287.049,303.624,287.049z M312.024,326.584c0,4.338-3.528,7.465-7.865,7.465h-95.968    c-3.4,0-6.167-2.365-6.167-5.766v-11.234h101.6c4.554,0,8.4,4.248,8.4,8.802V326.584z"/>
	</g>
	<g>
		<path style="fill:#165C6C;" d="M187.024,244.049h-18c-16.542,0-30-13.057-30-29.599v-32.212c0-8.284-6.716-15-15-15    s-15,6.716-15,15v32.212c0,33.084,26.916,59.599,60,59.599h3v13h-135c-8.284,0-15,6.716-15,15s6.716,15,15,15h135v11.234    c0,12.04,5.914,22.579,14.99,29.041L187.024,244.049z"/>
	</g>
	<g>
		<path style="fill:#32A5B9;" d="M321.141,0.049c0,0-29.68-0.074-32.116,0.162c-38.364,3.721-68,36.05-68,75.39v42.224v67.108    c0,16.14,12.86,29.224,29,29.224s29-13.084,29-29.224v-66.885h42.116c9.073,0,16.884-7.578,16.884-16.651V16.274    C338.024,7.201,330.214,0.049,321.141,0.049z"/>
		<path style="fill:#C4C8C4;" d="M321.141,0.049h-24.714c-2.498,0-4.966-0.074-7.402,0.162v117.838h32.116    c9.073,0,16.884-7.578,16.884-16.651V16.274C338.024,7.201,330.214,0.049,321.141,0.049z"/>
		<path style="fill:#2B8A9A;" d="M83.024,0.059c-1.786-0.126-30.116-0.01-30.116-0.01c-9.073,0-16.884,7.152-16.884,16.225v85.124    c0,9.073,7.811,16.651,16.884,16.651h42.116v66.885c0,16.14,12.86,29.224,29,29.224s29-13.084,29-29.224v-67.108V75.601    C153.024,35.581,122.339,2.832,83.024,0.059z"/>
	</g>
	<path style="fill:#A5A9A6;" d="M77.622,0.049H52.908c-9.073,0-16.884,7.152-16.884,16.225v85.124   c0,9.073,7.811,16.651,16.884,16.651h30.116V0.059C81.238-0.067,79.441,0.049,77.622,0.049z"/>
</g>















</svg>
