<?xml version="1.0" encoding="iso-8859-1"?>
<!-- Generator: Adobe Illustrator 19.0.0, SVG Export Plug-In . SVG Version: 6.00 Build 0)  -->
<svg version="1.1" id="Layer_1" xmlns="http://www.w3.org/2000/svg" xmlns:xlink="http://www.w3.org/1999/xlink" x="0px" y="0px"
	 viewBox="0 0 496 496" style="enable-background:new 0 0 496 496;" xml:space="preserve">
<g>
	<g>
		<g>
			<path d="M496,432v-16H352v-16h-56v-32h-16v-32h176V48H152V0H40v336h176v32h-16v32h-56v16H0v16h144v32H0v16h144v16h208v-16h144
				v-16H352v-32H496z M152,320v-32h-16v32h-16v-32h-16v32H88v-32H72v32H56V16h80v48h304v256h-16v-32h-16v32h-16v-32h-16v32h-16v-32
				h-16v32H152z M264,336v32h-32v-32H264z M336,480H160v-64h56v-32h64v32h56V480z"/>
			<path d="M344.56,232H360v-80h-15.44l10.912-10.912l-56.56-56.56L288,95.44V80h-80v15.44l-10.912-10.912l-56.56,56.56L151.44,152
				H136v80h15.44l-10.92,10.912l56.56,56.56L208,288.56V304h80v-15.44l10.912,10.912l56.56-56.56L344.56,232z M344,216h-14.096
				l-5.544,0.168l-1.976,5.112c-0.368,0.952-0.744,1.904-1.152,2.84l-2.168,5l13.792,13.792l-33.936,33.936l-13.792-13.792l-5,2.168
				c-0.936,0.408-1.888,0.784-3.016,1.208L272,268.424V288h-48v-14.096l-0.168-5.544l-5.112-1.976
				c-0.952-0.368-1.904-0.744-2.84-1.152l-5-2.168l-13.792,13.792l-33.936-33.936l13.792-13.792l-2.168-5
				c-0.408-0.936-0.784-1.888-1.208-3.016L171.576,216H152v-48h14.096l5.544-0.168l1.976-5.112c0.368-0.952,0.744-1.904,1.152-2.84
				l2.168-5l-13.792-13.792l33.936-33.936l13.792,13.792l5-2.168c0.936-0.408,1.888-0.784,3.016-1.208l5.112-1.992V96h48v14.096
				l0.168,5.544l5.112,1.976c0.952,0.368,1.904,0.744,2.84,1.152l5,2.168l13.792-13.792l33.936,33.936l-13.792,13.792l2.168,5
				c0.408,0.936,0.784,1.888,1.208,3.016l1.992,5.112H344V216z"/>
			<path d="M248,144c-26.472,0-48,21.528-48,48s21.528,48,48,48s48-21.528,48-48S274.472,144,248,144z M248,224
				c-17.648,0-32-14.352-32-32s14.352-32,32-32s32,14.352,32,32S265.648,224,248,224z"/>
		</g>
	</g>
</g>
<g>
</g>
<g>
</g>
<g>
</g>
<g>
</g>
<g>
</g>
<g>
</g>
<g>
</g>
<g>
</g>
<g>
</g>
<g>
</g>
<g>
</g>
<g>
</g>
<g>
</g>
<g>
</g>
<g>
</g>
</svg>
