<?xml version="1.0" encoding="iso-8859-1"?>
<!-- Generator: Adobe Illustrator 19.0.0, SVG Export Plug-In . SVG Version: 6.00 Build 0)  -->
<svg version="1.1" id="Layer_1" xmlns="http://www.w3.org/2000/svg" xmlns:xlink="http://www.w3.org/1999/xlink" x="0px" y="0px"
	 viewBox="0 0 512 512" style="enable-background:new 0 0 512 512;" xml:space="preserve">
<g>
	<g>
		<path d="M404.565,299.418c-27.505-12.358-78.566-96.889-97.365-130.93v-9.61l63.548-31.774c0.444-0.23,0.879-0.495,1.28-0.785
			c15.095-11.221,26.769-43.307,34.705-95.386c1.229-8.03,8.055-13.867,16.23-13.867h3.703c4.719,0,8.533-3.823,8.533-8.533
			S431.386,0,426.667,0h-3.703c-16.674,0-30.592,11.93-33.092,28.365c-6.724,44.058-16.964,75.255-27.503,83.84l-55.427,27.713
			c-1.67-16.658-11.36-30.974-25.136-39.048c1.185-9.836,7.607-49.671,33.928-49.671c14.165,0,25.199-4.241,32.794-12.595
			c11.571-12.732,10.052-30.148,9.976-30.891c-0.444-4.659-4.403-8.038-9.25-7.654c-4.668,0.418-8.124,4.557-7.74,9.233
			c0.009,0.111,0.802,10.863-5.692,17.929c-4.233,4.591-10.991,6.912-20.087,6.912c-37.172,0-47.622,43.252-50.316,60.616
			c-3.055-0.57-6.199-0.883-9.417-0.883c-3.218,0-6.362,0.312-9.417,0.883c-2.695-17.368-13.145-60.62-50.316-60.62
			c-8.858,0-15.471-2.278-19.644-6.784c-6.502-7.014-5.862-17.749-5.837-18.108c0.384-4.676-3.089-8.789-7.765-9.207
			c-4.77-0.367-8.832,3.063-9.25,7.757c-0.06,0.742-1.459,18.278,10.189,30.993c7.543,8.243,18.415,12.416,32.307,12.416
			c26.205,0,32.715,39.839,33.923,49.678c-13.773,8.074-23.461,22.389-25.131,39.045l-55.427-27.713
			c-10.539-8.585-20.779-39.782-27.503-83.84C119.629,11.93,105.711,0,89.037,0h-3.703C80.614,0,76.8,3.823,76.8,8.533
			s3.814,8.533,8.533,8.533h3.703c8.175,0,15.002,5.837,16.23,13.867c7.936,52.079,19.61,84.164,34.705,95.386
			c0.401,0.29,0.836,0.555,1.28,0.785l63.548,31.774v9.596c-18.777,34.032-69.839,118.575-97.28,130.91
			c-6.648,2.901-64.853,29.466-64.853,67.55c0,4.71,3.814,8.533,8.533,8.533s8.533-3.823,8.533-8.533
			c0-22.921,39.432-45.244,54.699-51.951c27.924-12.547,68.023-74.645,90.368-112.248v34.315
			c-24.019,51.4-34.372,96.585-38.81,125.566c-7.415,48.341-25.737,95.104-53.001,135.202l-0.529,0.777
			c-2.688,3.866-1.732,9.182,2.133,11.878c1.485,1.033,3.183,1.527,4.864,1.527c2.697,0,5.359-1.28,7.014-3.661l0.631-0.913
			c28.681-42.206,47.966-91.383,55.757-142.234c2.366-15.412,6.474-35.608,13.585-58.96c-0.118,3.131-0.179,6.299-0.179,9.501
			c0,66.995,26.24,119.467,59.733,119.467s59.733-52.471,59.733-119.467c0-3.202-0.061-6.37-0.179-9.501
			c7.111,23.352,11.219,43.548,13.585,58.96c7.791,50.85,27.076,100.028,55.765,142.242l0.623,0.905
			c1.655,2.381,4.318,3.661,7.014,3.661c1.681,0,3.379-0.495,4.864-1.527c3.866-2.696,4.821-8.013,2.133-11.878l-0.521-0.759
			c-27.273-40.115-45.594-86.878-53.009-135.219c-4.438-28.981-14.791-74.166-38.81-125.566v-34.317
			c22.349,37.604,62.466,99.712,90.453,112.284c15.189,6.647,54.613,28.937,54.613,51.917c0,4.71,3.814,8.533,8.533,8.533
			c4.719,0,8.533-3.823,8.533-8.533C469.333,328.849,411.128,302.285,404.565,299.418z M256,110.933
			c18.825,0,34.133,15.309,34.133,34.133v8.246c0,0.01,0,0.02,0,0.03v17.248c-0.001,0.067-0.001,0.134,0,0.201v45.869
			c-8.735-11.937-19.119-18.911-30.418-20.169c-0.299-0.035-0.598-0.069-0.899-0.096c-0.271-0.023-0.543-0.044-0.815-0.06
			c-0.665-0.042-1.331-0.07-2.002-0.07c-0.671,0-1.337,0.029-2.002,0.07c-0.272,0.016-0.544,0.037-0.815,0.06
			c-0.3,0.027-0.6,0.06-0.899,0.096c-11.299,1.257-21.683,8.232-30.418,20.169v-45.869c0.001-0.067,0.001-0.134,0-0.201v-17.244
			c0-0.012,0-0.023,0-0.035v-8.245C221.867,126.242,237.175,110.933,256,110.933z M256,418.133
			c-20.181,0-42.667-42.052-42.667-102.4c0-22.353,3.087-42.191,7.997-58.316c0.055-0.15,0.114-0.298,0.161-0.453
			c1.023-3.342,2.124-6.525,3.291-9.54c0.012-0.031,0.024-0.062,0.036-0.093c0.111-0.286,0.225-0.563,0.337-0.846
			c7.818-19.538,18.488-31.572,28.784-33.004c0.153-0.02,0.306-0.039,0.459-0.055c0.177-0.019,0.353-0.038,0.529-0.051
			c0.358-0.025,0.715-0.043,1.073-0.043c0.357,0,0.715,0.018,1.073,0.043c0.176,0.013,0.353,0.032,0.529,0.051
			c0.153,0.016,0.306,0.034,0.459,0.055c10.296,1.432,20.966,13.466,28.784,33.004c0.112,0.283,0.227,0.56,0.337,0.846
			c0.012,0.031,0.024,0.062,0.036,0.093c1.167,3.015,2.268,6.198,3.291,9.54c0.027,0.089,0.072,0.168,0.102,0.255
			c4.945,16.16,8.056,36.07,8.056,58.514C298.667,376.081,276.181,418.133,256,418.133z"/>
	</g>
</g>
<g>
</g>
<g>
</g>
<g>
</g>
<g>
</g>
<g>
</g>
<g>
</g>
<g>
</g>
<g>
</g>
<g>
</g>
<g>
</g>
<g>
</g>
<g>
</g>
<g>
</g>
<g>
</g>
<g>
</g>
</svg>
