<?xml version="1.0" encoding="iso-8859-1"?>
<!-- Generator: Adobe Illustrator 19.0.0, SVG Export Plug-In . SVG Version: 6.00 Build 0)  -->
<svg version="1.1" id="Layer_1" xmlns="http://www.w3.org/2000/svg" xmlns:xlink="http://www.w3.org/1999/xlink" x="0px" y="0px"
	 viewBox="0 0 512.004 512.004" style="enable-background:new 0 0 512.004 512.004;" xml:space="preserve">
<g>
	<g>
		<g>
			<path d="M305.941,89.783c0.086-0.14,0.174-0.278,0.252-0.424c0.053-0.099,0.097-0.201,0.146-0.302
				c0.075-0.154,0.151-0.307,0.217-0.466c0.044-0.107,0.079-0.215,0.118-0.323c0.057-0.156,0.116-0.311,0.164-0.47
				c0.035-0.116,0.06-0.234,0.09-0.351c0.039-0.154,0.081-0.306,0.112-0.463c0.026-0.13,0.041-0.261,0.06-0.392
				c0.022-0.146,0.047-0.291,0.061-0.44c0.014-0.149,0.016-0.298,0.023-0.447c0.005-0.123,0.019-0.245,0.019-0.369
				c0-0.011-0.002-0.022-0.002-0.034c0-0.105-0.011-0.209-0.016-0.314c-0.029-0.707-0.138-1.391-0.329-2.044
				c-0.008-0.028-0.013-0.056-0.022-0.084c-0.057-0.188-0.126-0.37-0.196-0.553c-0.03-0.08-0.055-0.161-0.088-0.24
				c-0.055-0.133-0.12-0.26-0.182-0.39c-0.06-0.126-0.116-0.254-0.182-0.378c-0.042-0.077-0.09-0.15-0.134-0.226
				c-0.097-0.169-0.195-0.338-0.304-0.5c-0.016-0.024-0.034-0.045-0.05-0.069c-0.558-0.813-1.266-1.539-2.116-2.137
				c-0.051-0.036-0.098-0.076-0.15-0.111c-0.01-0.007-0.018-0.014-0.028-0.021c-0.136-0.091-0.277-0.167-0.417-0.25
				c-0.091-0.054-0.179-0.113-0.272-0.163c-0.199-0.108-0.403-0.202-0.607-0.293c-0.045-0.02-0.089-0.044-0.135-0.063
				c-0.252-0.107-0.506-0.199-0.764-0.28c-0.002-0.001-0.004-0.001-0.005-0.002c-0.897-0.281-1.821-0.406-2.739-0.384h-84.934
				c-1.185-0.029-2.382,0.188-3.514,0.67c-0.011,0.005-0.021,0.01-0.032,0.015c-0.238,0.102-0.473,0.214-0.704,0.339
				c-0.071,0.038-0.137,0.084-0.207,0.124c-0.159,0.093-0.32,0.181-0.476,0.285c-0.01,0.006-0.018,0.014-0.028,0.021
				c-0.052,0.035-0.099,0.075-0.15,0.111c-0.848,0.598-1.556,1.322-2.113,2.133c-0.017,0.025-0.037,0.048-0.054,0.073
				c-0.108,0.161-0.205,0.329-0.302,0.496c-0.045,0.077-0.094,0.152-0.136,0.23c-0.066,0.123-0.121,0.25-0.181,0.375
				c-0.062,0.13-0.127,0.258-0.183,0.392c-0.032,0.079-0.057,0.16-0.088,0.239c-0.07,0.183-0.139,0.366-0.196,0.555
				c-0.008,0.025-0.012,0.051-0.02,0.076c-0.193,0.658-0.303,1.349-0.331,2.062c-0.004,0.101-0.015,0.201-0.015,0.302
				c0,0.012-0.002,0.023-0.002,0.034c0,0.127,0.014,0.251,0.019,0.377c0.006,0.146,0.008,0.293,0.022,0.439
				c0.014,0.15,0.04,0.297,0.062,0.445c0.019,0.129,0.034,0.258,0.059,0.387c0.031,0.158,0.073,0.312,0.113,0.467
				c0.03,0.116,0.055,0.232,0.089,0.347c0.048,0.161,0.107,0.316,0.165,0.472c0.039,0.107,0.074,0.215,0.118,0.321
				c0.066,0.159,0.142,0.312,0.217,0.466c0.049,0.101,0.092,0.203,0.146,0.302c0.078,0.145,0.166,0.284,0.252,0.424
				c0.059,0.096,0.109,0.195,0.172,0.289l39.509,59.264l-39.509,59.264c-0.063,0.095-0.114,0.193-0.172,0.289
				c-0.086,0.14-0.174,0.278-0.252,0.424c-0.053,0.099-0.097,0.201-0.146,0.302c-0.075,0.154-0.151,0.307-0.217,0.466
				c-0.044,0.106-0.078,0.214-0.118,0.321c-0.057,0.156-0.117,0.312-0.165,0.472c-0.035,0.115-0.06,0.231-0.089,0.347
				c-0.04,0.155-0.082,0.309-0.113,0.467c-0.025,0.128-0.04,0.258-0.059,0.387c-0.022,0.148-0.048,0.295-0.062,0.445
				c-0.014,0.146-0.016,0.293-0.022,0.439c-0.005,0.126-0.019,0.249-0.019,0.377c0,0.012,0.002,0.023,0.002,0.034
				c0,0.101,0.011,0.201,0.015,0.302c0.028,0.713,0.139,1.404,0.331,2.062c0.007,0.025,0.012,0.051,0.02,0.076
				c0.057,0.189,0.127,0.372,0.196,0.555c0.03,0.079,0.055,0.16,0.088,0.239c0.055,0.134,0.121,0.262,0.183,0.392
				c0.059,0.125,0.115,0.252,0.181,0.375c0.042,0.079,0.091,0.153,0.136,0.23c0.096,0.168,0.193,0.335,0.302,0.496
				c0.017,0.025,0.036,0.048,0.054,0.073c0.557,0.811,1.265,1.536,2.113,2.133c0.051,0.036,0.098,0.076,0.15,0.111
				c0.01,0.007,0.018,0.014,0.028,0.021c0.027,0.018,0.057,0.03,0.084,0.047c0.29,0.189,0.593,0.357,0.905,0.51
				c0.082,0.04,0.163,0.081,0.246,0.118c0.332,0.15,0.672,0.283,1.025,0.39c0.06,0.018,0.12,0.029,0.18,0.046
				c0.296,0.083,0.598,0.148,0.906,0.199c0.1,0.016,0.199,0.033,0.299,0.046c0.349,0.045,0.702,0.075,1.062,0.076
				c0.007,0,0.014,0.001,0.02,0.001c0.001,0,0.003,0,0.004,0c0.002,0,0.003,0,0.005,0h85.333c0.002,0,0.003,0,0.005,0
				c0.001,0,0.003,0,0.004,0c0.007,0,0.014-0.001,0.02-0.001c0.361-0.001,0.714-0.031,1.062-0.076
				c0.1-0.013,0.199-0.029,0.299-0.046c0.308-0.051,0.61-0.116,0.906-0.199c0.06-0.017,0.12-0.028,0.18-0.046
				c0.353-0.107,0.693-0.24,1.025-0.39c0.083-0.037,0.164-0.078,0.246-0.119c0.312-0.153,0.616-0.321,0.905-0.51
				c0.027-0.018,0.057-0.029,0.084-0.048c0.01-0.006,0.018-0.014,0.028-0.021c0.052-0.035,0.099-0.075,0.15-0.111
				c0.85-0.599,1.559-1.324,2.116-2.137c0.016-0.023,0.034-0.045,0.05-0.069c0.109-0.163,0.207-0.331,0.304-0.5
				c0.044-0.076,0.092-0.149,0.134-0.226c0.066-0.124,0.122-0.251,0.182-0.378c0.062-0.129,0.126-0.257,0.182-0.39
				c0.033-0.079,0.058-0.16,0.088-0.24c0.069-0.182,0.139-0.365,0.196-0.553c0.008-0.028,0.013-0.056,0.022-0.084
				c0.19-0.652,0.3-1.337,0.329-2.044c0.004-0.105,0.015-0.209,0.016-0.314c0-0.011,0.002-0.022,0.002-0.034
				c0-0.125-0.013-0.246-0.019-0.369c-0.006-0.149-0.008-0.298-0.023-0.447c-0.014-0.149-0.04-0.293-0.061-0.44
				c-0.019-0.131-0.034-0.262-0.06-0.392c-0.031-0.157-0.072-0.309-0.112-0.463c-0.03-0.117-0.055-0.235-0.09-0.351
				c-0.048-0.16-0.107-0.315-0.164-0.47c-0.039-0.108-0.074-0.216-0.118-0.323c-0.066-0.159-0.142-0.312-0.217-0.466
				c-0.049-0.101-0.092-0.203-0.146-0.302c-0.078-0.145-0.166-0.284-0.252-0.424c-0.059-0.096-0.109-0.195-0.172-0.289
				l-39.509-59.264l39.509-59.264C305.831,89.978,305.882,89.879,305.941,89.783z M282.723,204.803h-53.441l26.721-40.081
				L282.723,204.803z M229.281,93.87h53.441l-26.721,40.081L229.281,93.87z"/>
			<path d="M509.502,360.903l-25.6-25.6c-1.374-1.374-3.166-2.236-5.094-2.449l-74.402-8.269l-70.387-54.749
				c5.964-6.627,11.412-14,16.261-22.002l65.783,16.446c0.691,0.171,1.382,0.256,2.074,0.256c2.236,0,4.412-0.879,6.033-2.5
				l48.7-48.7h30.601c4.71,0,8.533-3.823,8.533-8.533c0-4.71-3.823-8.533-8.533-8.533h-34.133c-2.261,0-4.437,0.896-6.033,2.5
				l-47.787,47.787l-56.963-14.244c4.06-8.712,7.465-17.981,10.134-27.695c0.488-0.104,0.974-0.247,1.453-0.441
				c40.286-16.333,62.686-56.166,64.794-115.2c1.536-43.102-8.124-80.981-8.533-82.577c-1.186-4.565-5.854-7.313-10.394-6.118
				c-4.565,1.169-7.305,5.828-6.135,10.394c0.36,1.375,33.309,132.945-36.721,173.09c1.517-9.756,2.318-19.84,2.318-30.161
				c0-84.693-53.589-153.6-119.467-153.6s-119.467,68.907-119.467,153.6c0,10.321,0.802,20.405,2.318,30.161
				C68.825,143.62,101.773,12.05,102.133,10.674c1.169-4.565-1.57-9.225-6.135-10.394c-4.54-1.186-9.207,1.553-10.394,6.118
				c-0.41,1.596-10.069,39.475-8.533,82.577c2.108,59.034,24.508,98.867,64.794,115.2c0.479,0.195,0.965,0.337,1.453,0.441
				c2.668,9.714,6.074,18.983,10.134,27.695l-56.963,14.244L48.702,198.77c-1.596-1.604-3.772-2.5-6.033-2.5H8.535
				c-4.71,0-8.533,3.823-8.533,8.533c0,4.71,3.823,8.533,8.533,8.533h30.601l48.7,48.7c1.621,1.621,3.797,2.5,6.033,2.5
				c0.691,0,1.382-0.085,2.074-0.256l65.783-16.446c4.849,8.002,10.297,15.375,16.261,22.002l-70.387,54.749l-74.402,8.269
				c-1.929,0.213-3.721,1.075-5.094,2.449l-25.6,25.6c-3.336,3.337-3.336,8.73,0,12.066c1.664,1.664,3.849,2.5,6.033,2.5
				c2.185,0,4.369-0.836,6.033-2.5l23.484-23.484l73.822-8.201c1.57-0.171,3.055-0.777,4.301-1.741l74.168-57.686
				c8.828,7.496,18.47,13.525,28.718,17.819c-10.649,6.021-19.273,14.554-24.753,24.645c-29.38,1.112-49.896,27.223-56.433,72.053
				c-1.161,7.987-3.473,15.479-6.869,22.263l-32.572,65.152c-2.253,4.514-2.953,9.139-3.567,13.218
				c-0.23,1.545-0.461,3.098-0.794,4.608c-1.024,4.599,1.877,9.156,6.477,10.18c0.623,0.145,1.246,0.205,1.86,0.205
				c3.908,0,7.441-2.705,8.32-6.682c0.418-1.894,0.725-3.831,1.016-5.769c0.461-3.106,0.905-6.033,1.954-8.124l32.572-65.152
				c4.207-8.422,7.066-17.647,8.491-27.443c2.823-19.351,10.872-50.517,33.533-56.482c-0.356,2.465-0.56,4.97-0.56,7.518
				c0,22.61,14.432,42.323,35.657,52.464c-11.349,7.832-18.59,19.659-18.59,32.869c0,0.359,0.022,0.714,0.033,1.071
				c-14.724,3.786-25.633,17.171-25.633,33.062c0,18.825,15.309,34.133,34.133,34.133c4.71,0,8.533-3.823,8.533-8.533
				s-3.823-8.533-8.533-8.533c-9.412,0-17.067-7.654-17.067-17.067c0-8.039,5.591-14.779,13.086-16.579
				c8.047,14.792,25.92,25.112,46.648,25.112s38.601-10.32,46.648-25.112c7.494,1.8,13.086,8.539,13.086,16.579
				c0,9.412-7.654,17.067-17.067,17.067c-4.71,0-8.533,3.823-8.533,8.533s3.823,8.533,8.533,8.533
				c18.825,0,34.133-15.309,34.133-34.133c0-15.891-10.909-29.276-25.633-33.062c0.011-0.357,0.033-0.712,0.033-1.071
				c0-13.21-7.241-25.037-18.59-32.869c21.224-10.141,35.656-29.854,35.656-52.464c0-2.548-0.204-5.053-0.56-7.518
				c22.66,5.965,30.71,37.131,33.533,56.482c1.425,9.796,4.284,19.021,8.491,27.443l32.572,65.152
				c1.05,2.091,1.493,5.018,1.954,8.124c0.29,1.937,0.597,3.874,1.016,5.769c0.879,3.977,4.412,6.682,8.32,6.682
				c0.614,0,1.237-0.068,1.86-0.205c4.599-1.024,7.501-5.581,6.477-10.18c-0.333-1.51-0.563-3.063-0.794-4.608
				c-0.614-4.079-1.314-8.704-3.567-13.218l-32.572-65.152c-3.396-6.784-5.709-14.276-6.869-22.272
				c-6.537-44.822-27.054-70.933-56.433-72.045c-5.48-10.091-14.104-18.624-24.753-24.645c10.248-4.294,19.89-10.324,28.718-17.819
				l74.168,57.686c1.246,0.964,2.731,1.57,4.301,1.741l73.822,8.201l23.484,23.484c1.664,1.664,3.849,2.5,6.033,2.5
				c2.185,0,4.369-0.836,6.033-2.5C512.838,369.633,512.838,364.24,509.502,360.903z M290.135,435.203
				c0,14.114-15.309,25.6-34.133,25.6c-18.825,0-34.133-11.486-34.133-25.6s15.309-25.6,34.133-25.6
				C274.827,409.603,290.135,421.089,290.135,435.203z M307.202,349.87c0,23.526-22.963,42.667-51.2,42.667s-51.2-19.14-51.2-42.667
				c0-23.526,22.963-42.667,51.2-42.667S307.202,326.343,307.202,349.87z M153.602,153.603c0-75.281,45.935-136.533,102.4-136.533
				s102.4,61.252,102.4,136.533s-45.935,136.533-102.4,136.533S153.602,228.884,153.602,153.603z"/>
		</g>
	</g>
</g>
<g>
</g>
<g>
</g>
<g>
</g>
<g>
</g>
<g>
</g>
<g>
</g>
<g>
</g>
<g>
</g>
<g>
</g>
<g>
</g>
<g>
</g>
<g>
</g>
<g>
</g>
<g>
</g>
<g>
</g>
</svg>
