<?xml version="1.0" encoding="iso-8859-1"?>
<!-- Generator: Adobe Illustrator 19.0.0, SVG Export Plug-In . SVG Version: 6.00 Build 0)  -->
<svg version="1.1" id="Layer_1" xmlns="http://www.w3.org/2000/svg" xmlns:xlink="http://www.w3.org/1999/xlink" x="0px" y="0px"
	 viewBox="0 0 481.882 481.882" style="enable-background:new 0 0 481.882 481.882;" xml:space="preserve">
<g>
	<g>
		<path d="M479.671,196.14L285.751,2.22c-1.531-1.535-3.656-2.393-5.832-2.19c-2.168,0.143-4.171,1.218-5.492,2.945L145.588,171.659
			c-2.29,3-2.01,7.238,0.663,9.906l154.074,154.074c1.461,1.461,3.391,2.208,5.335,2.208c1.602,0,3.214-0.512,4.572-1.546
			l168.685-128.839c1.727-1.321,2.801-3.324,2.945-5.493C482.008,199.803,481.21,197.675,479.671,196.14z M311.616,292.155
			c-1.359,1.035-2.971,1.546-4.573,1.546c-1.943,0-3.872-0.747-5.334-2.208L191.847,181.628l10.661-10.662l105.197,105.201
			l112.773-86.131l9.152,11.986L311.616,292.155z"/>
	</g>
</g>
<g>
	<g>
		<path d="M151.705,208.342l-102.56,51.569c-2.032,1.023-3.494,2.905-3.979,5.125L0.004,471.221L107.015,364.21
			c-3.191-5.111-5.116-11.093-5.116-17.549c0-18.377,14.95-33.327,33.327-33.327c18.377,0,33.33,14.95,33.33,33.327
			s-14.953,33.33-33.33,33.33c-6.457,0-12.439-1.927-17.551-5.119l-107.01,107.01l206.19-45.158c2.22-0.486,4.101-1.951,5.125-3.979
			l51.567-102.563L151.705,208.342z"/>
	</g>
</g>
<g>
	<g>
		<circle cx="135.228" cy="346.654" r="18.251"/>
	</g>
</g>
<g>
</g>
<g>
</g>
<g>
</g>
<g>
</g>
<g>
</g>
<g>
</g>
<g>
</g>
<g>
</g>
<g>
</g>
<g>
</g>
<g>
</g>
<g>
</g>
<g>
</g>
<g>
</g>
<g>
</g>
</svg>
