<?xml version="1.0" encoding="iso-8859-1"?>
<!-- Generator: Adobe Illustrator 19.0.0, SVG Export Plug-In . SVG Version: 6.00 Build 0)  -->
<svg version="1.1" id="Layer_1" xmlns="http://www.w3.org/2000/svg" xmlns:xlink="http://www.w3.org/1999/xlink" x="0px" y="0px"
	 viewBox="0 0 481.918 481.918" style="enable-background:new 0 0 481.918 481.918;" xml:space="preserve">
<g>
	<g>
		<path d="M304.545,113.201l-28.988-47.66c-1.355-2.26-3.84-3.689-6.4-3.689h-56.546c-2.635,0-5.045,1.43-6.4,3.689l-29.064,47.66
			c-1.431,2.41-1.431,5.423,0,7.831l21.986,36.067c1.355,2.259,3.765,3.614,6.4,3.614h70.701c2.56,0,5.045-1.355,6.4-3.614
			l21.911-36.067C306.051,118.624,306.051,115.611,304.545,113.201z"/>
	</g>
</g>
<g>
	<g>
		<path d="M325.853,408.205l-38.914-235.206c-3.248,1.756-6.913,2.772-10.706,2.772h-70.702c-3.868,0-7.612-1.033-10.909-2.86
			l-38.859,235.294c-0.452,2.634,0.527,5.345,2.56,7.077l77.628,64.828c1.431,1.206,3.162,1.809,4.819,1.809
			c1.732,0,3.464-0.603,4.894-1.809l77.628-64.828C325.326,413.55,326.305,410.839,325.853,408.205z"/>
	</g>
</g>
<g>
	<g>
		<path d="M378.333,51.46L348.667,3.572c-1.205-1.882-3.087-3.086-5.195-3.463c-2.184-0.375-4.367,0.226-6.099,1.658l-57.081,48.029
			c3.313,1.903,6.162,4.636,8.184,8.011l28.938,47.573c0.806,1.289,1.416,2.655,1.932,4.048l57.406-48.255
			C379.613,58.763,380.291,54.624,378.333,51.46z"/>
	</g>
</g>
<g>
	<g>
		<path d="M144.469,1.767c-1.656-1.432-3.84-2.033-6.023-1.658c-2.184,0.376-4.066,1.58-5.195,3.463L103.585,51.46
			c-1.958,3.163-1.28,7.303,1.581,9.713l57.367,48.272c0.483-1.336,0.928-2.69,1.672-3.939l29.151-47.801
			c1.998-3.344,4.85-6.073,8.185-7.965L144.469,1.767z"/>
	</g>
</g>
<g>
</g>
<g>
</g>
<g>
</g>
<g>
</g>
<g>
</g>
<g>
</g>
<g>
</g>
<g>
</g>
<g>
</g>
<g>
</g>
<g>
</g>
<g>
</g>
<g>
</g>
<g>
</g>
<g>
</g>
</svg>
