<?xml version="1.0" encoding="iso-8859-1"?>
<!-- Generator: Adobe Illustrator 19.0.0, SVG Export Plug-In . SVG Version: 6.00 Build 0)  -->
<svg version="1.1" id="Layer_1" xmlns="http://www.w3.org/2000/svg" xmlns:xlink="http://www.w3.org/1999/xlink" x="0px" y="0px"
	 viewBox="0 0 512 512" style="enable-background:new 0 0 512 512;" xml:space="preserve">
<circle style="fill:none;stroke:#26150C;stroke-width:15;stroke-linecap:round;stroke-linejoin:round;stroke-miterlimit:10;" cx="256.006" cy="186.301" r="38.889"/>
<path id="SVGCleanerId_0" style="fill:#66E6FF;" d="M389.629,187.672v-2.738c0-36.295,15.905-68.871,41.119-91.153V0H81.252v93.781
	c25.214,22.282,41.119,54.858,41.119,91.153v2.738c0,36.295-15.905,68.871-41.119,91.153v117.644h349.495V278.825
	C405.534,256.543,389.629,223.967,389.629,187.672z"/>
<path id="SVGCleanerId_1" style="fill:#4DA3FF;" d="M181.038,0v257.048c0,41.401,33.561,74.962,74.962,74.962l0,0
	c41.401,0,74.962-33.561,74.962-74.962V0H181.038z"/>
<path style="opacity:0.3;fill:#333333;enable-background:new    ;" d="M216.833,257.048V0h-35.795v257.048
	c0,41.401,33.561,74.962,74.962,74.962l0,0c6.17,0,12.161-0.761,17.897-2.167C241.142,321.816,216.833,292.277,216.833,257.048z"/>
<path id="SVGCleanerId_2" style="fill:#293133;" d="M266.739,178.802h-1.79v-1.79c0-4.942-4.005-8.949-8.949-8.949
	s-8.949,4.007-8.949,8.949v1.79h-1.79c-4.943,0-8.949,4.007-8.949,8.949s4.005,8.949,8.949,8.949h1.79v1.79
	c0,4.942,4.005,8.949,8.949,8.949s8.949-4.007,8.949-8.949v-1.79h1.79c4.943,0,8.949-4.007,8.949-8.949
	S271.682,178.802,266.739,178.802z"/>
<g>
	<path id="SVGCleanerId_0_1_" style="fill:#66E6FF;" d="M389.629,187.672v-2.738c0-36.295,15.905-68.871,41.119-91.153V0H81.252
		v93.781c25.214,22.282,41.119,54.858,41.119,91.153v2.738c0,36.295-15.905,68.871-41.119,91.153v117.644h349.495V278.825
		C405.534,256.543,389.629,223.967,389.629,187.672z"/>
</g>
<g>
	<path id="SVGCleanerId_1_1_" style="fill:#4DA3FF;" d="M181.038,0v257.048c0,41.401,33.561,74.962,74.962,74.962l0,0
		c41.401,0,74.962-33.561,74.962-74.962V0H181.038z"/>
</g>
<path style="opacity:0.15;fill:#333333;enable-background:new    ;" d="M216.833,257.048V0h-35.795v257.048
	c0,41.401,33.561,74.962,74.962,74.962l0,0c6.17,0,12.161-0.761,17.897-2.167C241.142,321.816,216.833,292.277,216.833,257.048z"/>
<circle style="fill:#66E6FF;" cx="256.006" cy="186.301" r="38.889"/>
<g>
	<path id="SVGCleanerId_2_1_" style="fill:#293133;" d="M266.739,178.802h-1.79v-1.79c0-4.942-4.005-8.949-8.949-8.949
		s-8.949,4.007-8.949,8.949v1.79h-1.79c-4.943,0-8.949,4.007-8.949,8.949s4.005,8.949,8.949,8.949h1.79v1.79
		c0,4.942,4.005,8.949,8.949,8.949s8.949-4.007,8.949-8.949v-1.79h1.79c4.943,0,8.949-4.007,8.949-8.949
		S271.682,178.802,266.739,178.802z"/>
</g>
<g>
	<rect x="81.255" y="372.602" style="fill:#4DA3FF;" width="349.491" height="139.398"/>
	<rect x="81.255" y="372.602" style="fill:#4DA3FF;" width="31.682" height="139.398"/>
</g>
<circle style="fill:#293133;" cx="256.006" cy="454.239" r="45.376"/>
<g>
</g>
<g>
</g>
<g>
</g>
<g>
</g>
<g>
</g>
<g>
</g>
<g>
</g>
<g>
</g>
<g>
</g>
<g>
</g>
<g>
</g>
<g>
</g>
<g>
</g>
<g>
</g>
<g>
</g>
</svg>
