<?xml version="1.0" encoding="iso-8859-1"?>
<!-- Generator: Adobe Illustrator 19.0.0, SVG Export Plug-In . SVG Version: 6.00 Build 0)  -->
<svg version="1.1" id="Layer_1" xmlns="http://www.w3.org/2000/svg" xmlns:xlink="http://www.w3.org/1999/xlink" x="0px" y="0px"
	 viewBox="0 0 512 512" style="enable-background:new 0 0 512 512;" xml:space="preserve">
<circle style="fill:#B5F1F4;" cx="256" cy="256" r="256"/>
<path style="fill:#84DBFF;" d="M510.581,283.026l-98.137-98.137l-11.221,66.801h-74.112l-42.667-42.667l-8.144,19.727
	l-19.727-19.727l-7.22,20.649l-20.649-20.649l-9.019,18.851l-18.851-18.851l-11.205,13.648v29.019h-49.131l-17.239-17.239
	l-8.468,17.239h-0.152l-22.411,25.859l226.657,226.657C421.398,478.313,499.293,390.592,510.581,283.026z"/>
<g>
	<rect x="265.481" y="216.35" style="fill:#F9B54C;" width="15.515" height="31.03"/>
	<rect x="237.606" y="216.35" style="fill:#F9B54C;" width="15.515" height="31.03"/>
	<rect x="209.748" y="216.35" style="fill:#F9B54C;" width="15.515" height="31.03"/>
	<rect x="181.872" y="216.35" style="fill:#F9B54C;" width="15.515" height="31.03"/>
</g>
<g>
	<rect x="178.424" y="209.024" style="fill:#FD8469;" width="22.411" height="8.62"/>
	<rect x="206.3" y="209.024" style="fill:#FD8469;" width="22.411" height="8.62"/>
	<rect x="234.158" y="209.024" style="fill:#FD8469;" width="22.411" height="8.62"/>
	<rect x="262.034" y="209.024" style="fill:#FD8469;" width="22.411" height="8.62"/>
</g>
<path style="fill:#F4A200;" d="M271.084,256h-87.057c-7.378,0-13.36,5.982-13.36,13.36v30.168c0,7.378,5.982,13.36,13.36,13.36
	h87.057c7.378,0,13.36-5.982,13.36-13.36V269.36C284.444,261.982,278.462,256,271.084,256z M268.067,292.214
	c0,3.803-3.263,6.884-7.289,6.884h-66.446c-4.025,0-7.289-3.082-7.289-6.884v-17.261c0-3.803,3.263-6.884,7.289-6.884h66.446
	c4.025,0,7.289,3.082,7.289,6.884V292.214z"/>
<path style="fill:#FFD15D;" d="M412.444,327.111c0,0-22.695-56.506-113.778-56.506c-74.271,0-158.665-0.266-188.264-0.076
	c-5.984,0.038-10.847-4.803-10.847-10.786v-7.489c0-5.984,4.863-10.824,10.847-10.786c29.601,0.19,124.768-0.076,188.264-0.076
	c91.083,0,113.778-56.506,113.778-56.506V327.111z"/>
<g>
	<path style="fill:#F9B54C;" d="M99.556,256v3.744c0,5.984,4.863,10.824,10.847,10.785c29.601-0.19,113.993,0.076,188.264,0.076
		c91.083,0,113.778,56.506,113.778,56.506V256H99.556z"/>
	<rect x="92.229" y="234.451" style="fill:#F9B54C;" width="31.03" height="43.098"/>
</g>
<rect x="92.229" y="256" style="fill:#F4A200;" width="31.03" height="21.549"/>
<g>
</g>
<g>
</g>
<g>
</g>
<g>
</g>
<g>
</g>
<g>
</g>
<g>
</g>
<g>
</g>
<g>
</g>
<g>
</g>
<g>
</g>
<g>
</g>
<g>
</g>
<g>
</g>
<g>
</g>
</svg>
