<?xml version="1.0" encoding="iso-8859-1"?>
<!-- Generator: Adobe Illustrator 19.0.0, SVG Export Plug-In . SVG Version: 6.00 Build 0)  -->
<svg version="1.1" id="Layer_1" xmlns="http://www.w3.org/2000/svg" xmlns:xlink="http://www.w3.org/1999/xlink" x="0px" y="0px"
	 viewBox="0 0 512.001 512.001" style="enable-background:new 0 0 512.001 512.001;" xml:space="preserve">
<path style="fill:#698F92;" d="M449.988,86.485H62.012c-13.087,0-23.695,10.609-23.695,23.694v266.623h435.364V110.181
	C473.682,97.094,463.071,86.485,449.988,86.485z"/>
<polyline style="fill:#53CAF9;" points="401.48,120.242 441.179,120.242 441.179,376.802 70.819,376.802 70.819,120.242 
	375.611,120.242 "/>
<g>
	<rect x="103.985" y="186.487" style="fill:#A8E2EF;" width="301.811" height="44.948"/>
	<rect x="256" y="267.415" style="fill:#A8E2EF;" width="149.795" height="69.911"/>
</g>
<rect x="70.818" y="120.24" style="fill:#F2304D;" width="45.019" height="32.412"/>
<rect x="110.129" y="120.24" style="fill:#F5F5F5;" width="331.043" height="32.412"/>
<g style="opacity:0.2;">
	<path style="fill:#231F20;" d="M87.332,86.485h-25.32c-13.087,0-23.695,10.609-23.695,23.694v266.623h25.319V110.181
		C63.637,97.094,74.246,86.485,87.332,86.485z"/>
</g>
<path style="fill:#DBDDDD;" d="M133.802,425.516h51.242h141.911h151.383c14.125,0,25.577-11.452,25.577-25.577v-23.135h-5.308
	H305.548H256H13.392H8.084v23.135c0,14.126,11.453,25.577,25.576,25.577h74.991"/>
<path style="fill:#EAE9E8;" d="M184.783,376.802v11.422c0,7.143,5.792,12.935,12.935,12.935h116.564
	c7.143,0,12.935-5.792,12.935-12.935v-11.422L184.783,376.802L184.783,376.802z"/>
<g>
	<path style="fill:#231F20;" d="M503.916,368.718h-22.15V110.181c0-17.523-14.256-31.778-31.778-31.778H62.012
		c-17.523,0-31.78,14.256-31.78,31.778v258.537H8.084c-4.466,0-8.084,3.62-8.084,8.084v23.135c0,18.561,15.1,33.662,33.662,33.662
		h74.991c4.466,0,8.084-3.62,8.084-8.084s-3.618-8.084-8.084-8.084H33.662c-9.645,0-17.493-7.847-17.493-17.493v-15.051h22.15
		h32.501h105.881v3.338c0,11.59,9.429,21.019,21.019,21.019h116.564c11.59,0,21.019-9.429,21.019-21.019v-3.338h105.878h32.503
		h22.15v15.051c0,9.646-7.847,17.493-17.493,17.493H133.802c-4.465,0-8.084,3.62-8.084,8.084s3.62,8.084,8.084,8.084h344.537
		c18.561,0,33.662-15.1,33.662-33.662v-23.135C512,372.338,508.382,368.718,503.916,368.718z M107.754,144.568H78.903v-16.242
		h28.851C107.754,128.326,107.754,144.568,107.754,144.568z M319.132,388.225c0,2.674-2.175,4.851-4.851,4.851H197.718
		c-2.674,0-4.851-2.176-4.851-4.851v-3.338h126.265V388.225z M327.216,368.718H184.783H78.903V160.736h36.935h317.257v207.982
		H327.216z M449.263,368.718V120.242c0-4.465-3.618-8.084-8.084-8.084H401.48c-4.466,0-8.084,3.62-8.084,8.084
		s3.618,8.084,8.084,8.084h31.615v16.242H123.922v-16.242h251.688c4.466,0,8.084-3.62,8.084-8.084s-3.618-8.084-8.084-8.084H115.838
		H70.819c-4.466,0-8.084,3.62-8.084,8.084v32.41v216.066H46.402V110.181c0-8.608,7.003-15.61,15.611-15.61h387.974
		c8.607,0,15.61,7.003,15.61,15.61v258.537L449.263,368.718L449.263,368.718z"/>
	<path style="fill:#231F20;" d="M405.792,178.4h-301.81c-4.466,0-8.084,3.62-8.084,8.084v44.948c0,4.465,3.618,8.084,8.084,8.084
		h301.81c4.466,0,8.084-3.62,8.084-8.084v-44.948C413.876,182.019,410.256,178.4,405.792,178.4z M397.708,223.348H112.065v-28.78
		h285.642V223.348z"/>
	<path style="fill:#231F20;" d="M405.792,259.336H256c-4.466,0-8.084,3.62-8.084,8.084v69.911c0,4.465,3.618,8.084,8.084,8.084
		h149.792c4.466,0,8.084-3.62,8.084-8.084V267.42C413.876,262.955,410.256,259.336,405.792,259.336z M397.708,329.247H264.084
		v-53.743h133.623V329.247z"/>
	<path style="fill:#231F20;" d="M222.55,259.336H103.981c-4.466,0-8.084,3.62-8.084,8.084c0,4.465,3.618,8.084,8.084,8.084H222.55
		c4.466,0,8.084-3.62,8.084-8.084C230.634,262.955,227.014,259.336,222.55,259.336z"/>
	<path style="fill:#231F20;" d="M222.55,294.291H103.981c-4.466,0-8.084,3.62-8.084,8.084s3.618,8.084,8.084,8.084H222.55
		c4.466,0,8.084-3.62,8.084-8.084S227.014,294.291,222.55,294.291z"/>
	<path style="fill:#231F20;" d="M222.55,329.247H103.981c-4.466,0-8.084,3.62-8.084,8.084s3.618,8.084,8.084,8.084H222.55
		c4.466,0,8.084-3.62,8.084-8.084S227.014,329.247,222.55,329.247z"/>
</g>
<g style="opacity:0.2;">
	<rect x="70.818" y="120.24" style="fill:#231F20;" width="25.331" height="256.56"/>
</g>
<g>
</g>
<g>
</g>
<g>
</g>
<g>
</g>
<g>
</g>
<g>
</g>
<g>
</g>
<g>
</g>
<g>
</g>
<g>
</g>
<g>
</g>
<g>
</g>
<g>
</g>
<g>
</g>
<g>
</g>
</svg>
