<?xml version="1.0" encoding="iso-8859-1"?>
<!-- Generator: Adobe Illustrator 19.0.0, SVG Export Plug-In . SVG Version: 6.00 Build 0)  -->
<svg version="1.1" id="Layer_1" xmlns="http://www.w3.org/2000/svg" xmlns:xlink="http://www.w3.org/1999/xlink" x="0px" y="0px"
	 viewBox="0 0 512 512" style="enable-background:new 0 0 512 512;" xml:space="preserve">
<path style="fill:#E8DBB8;" d="M412.852,437.429v53.552c0,7.143-5.792,12.935-12.935,12.935H112.083
	c-7.143,0-12.935-5.792-12.935-12.935V21.019c0-7.143,5.792-12.935,12.935-12.935h287.833c7.143,0,12.935,5.792,12.935,12.935
	v391.613"/>
<g style="opacity:0.2;">
	<path style="fill:#231F20;" d="M124.273,490.981V21.019c0-7.143,5.792-12.935,12.935-12.935h-25.125
		c-7.143,0-12.935,5.792-12.935,12.935v469.962c0,7.143,5.792,12.935,12.935,12.935h25.125
		C130.064,503.916,124.273,498.124,124.273,490.981z"/>
</g>
<g>
	<rect x="144.707" y="206.525" style="fill:#AA9468;" width="222.596" height="42.881"/>
	<rect x="144.707" y="292.282" style="fill:#AA9468;" width="222.596" height="42.881"/>
</g>
<g>
	<rect x="144.707" y="163.635" style="fill:#CCB88B;" width="222.596" height="42.881"/>
	<rect x="144.707" y="249.403" style="fill:#CCB88B;" width="222.596" height="42.881"/>
	<rect x="144.707" y="335.161" style="fill:#CCB88B;" width="222.596" height="42.881"/>
	<polyline style="fill:#CCB88B;" points="303.307,50.965 150.091,50.965 150.091,8.084 361.906,8.084 361.906,50.965 
		329.176,50.965 	"/>
</g>
<circle style="fill:#DBDDDD;" cx="256" cy="107.046" r="25.331"/>
<g>
	<path style="fill:#231F20;" d="M412.852,420.716c4.466,0,8.084-3.618,8.084-8.084V21.019C420.936,9.429,411.507,0,399.917,0
		h-38.011H150.091h-38.009c-11.59,0-21.019,9.429-21.019,21.019v469.962c0,11.59,9.429,21.019,21.019,21.019h287.833
		c11.59,0,21.019-9.429,21.019-21.019v-53.552c0-4.466-3.618-8.084-8.084-8.084c-4.466,0-8.084,3.618-8.084,8.084v53.552
		c0,2.674-2.175,4.851-4.851,4.851H112.083c-2.674,0-4.851-2.176-4.851-4.851V21.019c0-2.674,2.176-4.851,4.851-4.851h29.925v34.797
		c0,4.466,3.618,8.084,8.084,8.084h153.215c4.466,0,8.084-3.618,8.084-8.084s-3.618-8.084-8.084-8.084H158.176V16.168h195.647
		v26.712h-24.646c-4.466,0-8.084,3.618-8.084,8.084s3.618,8.084,8.084,8.084h32.73c4.466,0,8.084-3.618,8.084-8.084V16.168h29.927
		c2.675,0,4.851,2.176,4.851,4.851v391.613C404.768,417.098,408.386,420.716,412.852,420.716z"/>
	<path style="fill:#231F20;" d="M375.38,335.163v-42.881v-42.881V206.52V163.64c0-4.466-3.618-8.084-8.084-8.084H144.702
		c-4.466,0-8.084,3.618-8.084,8.084v42.881v42.881v42.881v42.881v42.881c0,4.466,3.618,8.084,8.084,8.084h222.594
		c4.466,0,8.084-3.618,8.084-8.084V335.163z M152.786,257.485h206.425v26.712H152.786V257.485z M359.212,241.317H152.786v-26.712
		h206.425V241.317z M152.786,300.366h206.425v26.712H152.786V300.366z M152.786,171.723h206.425v26.712H152.786V171.723z
		 M359.212,369.96H152.786v-26.712h206.425V369.96z"/>
	<path style="fill:#231F20;" d="M289.414,107.05c0-18.426-14.989-33.415-33.415-33.415s-33.415,14.989-33.415,33.415
		s14.989,33.415,33.415,33.415S289.414,125.476,289.414,107.05z M238.753,107.05c0-9.509,7.737-17.246,17.246-17.246
		s17.246,7.737,17.246,17.246s-7.737,17.246-17.246,17.246C246.49,124.296,238.753,116.56,238.753,107.05z"/>
	<path style="fill:#231F20;" d="M375.38,416.945c0-4.466-3.618-8.084-8.084-8.084H144.702c-4.466,0-8.084,3.618-8.084,8.084
		c0,4.466,3.618,8.084,8.084,8.084h222.594C371.762,425.029,375.38,421.41,375.38,416.945z"/>
	<path style="fill:#231F20;" d="M217.961,458.983v0.023c0,4.466,3.618,8.072,8.084,8.072c4.466,0,8.084-3.63,8.084-8.096
		s-3.618-8.084-8.084-8.084C221.58,450.897,217.961,454.518,217.961,458.983z"/>
	<path style="fill:#231F20;" d="M188.562,458.983v0.023c0,4.466,3.618,8.072,8.084,8.072c4.466,0,8.084-3.63,8.084-8.096
		s-3.618-8.084-8.084-8.084C192.18,450.897,188.562,454.518,188.562,458.983z"/>
	<path style="fill:#231F20;" d="M159.161,458.983v0.023c0,4.466,3.618,8.072,8.084,8.072c4.466,0,8.084-3.63,8.084-8.096
		s-3.618-8.084-8.084-8.084C162.78,450.898,159.161,454.518,159.161,458.983z"/>
	<path style="fill:#231F20;" d="M248.473,459.006c0,4.466,3.618,8.084,8.084,8.084c4.466,0,8.084-3.618,8.084-8.084v-0.023
		c0-4.466-3.618-8.072-8.084-8.072C252.092,450.91,248.473,454.541,248.473,459.006z"/>
	<path style="fill:#231F20;" d="M336.671,459.006c0,4.466,3.618,8.084,8.084,8.084s8.084-3.618,8.084-8.084v-0.023
		c0-4.466-3.618-8.072-8.084-8.072C340.289,450.91,336.671,454.541,336.671,459.006z"/>
	<path style="fill:#231F20;" d="M307.27,459.006c0,4.466,3.618,8.084,8.084,8.084c4.466,0,8.084-3.618,8.084-8.084v-0.023
		c0-4.466-3.618-8.072-8.084-8.072C310.89,450.91,307.27,454.541,307.27,459.006z"/>
	<path style="fill:#231F20;" d="M277.87,459.006c0,4.466,3.618,8.084,8.084,8.084c4.466,0,8.084-3.618,8.084-8.084v-0.023
		c0-4.466-3.618-8.072-8.084-8.072C281.49,450.91,277.87,454.541,277.87,459.006z"/>
	<path style="fill:#231F20;" d="M339.955,176.995c-4.466,0-8.084,3.63-8.084,8.096s3.618,8.084,8.084,8.084s8.084-3.618,8.084-8.084
		v-0.023C348.039,180.602,344.42,176.995,339.955,176.995z"/>
	<path style="fill:#231F20;" d="M339.955,236.068c4.466,0,8.084-3.618,8.084-8.084v-0.023c0-4.466-3.618-8.072-8.084-8.072
		s-8.084,3.63-8.084,8.096C331.871,232.45,335.489,236.068,339.955,236.068z"/>
	<path style="fill:#231F20;" d="M339.955,262.757c-4.466,0-8.084,3.63-8.084,8.096c0,4.466,3.618,8.084,8.084,8.084
		s8.084-3.618,8.084-8.084v-0.023C348.039,266.364,344.42,262.757,339.955,262.757z"/>
	<path style="fill:#231F20;" d="M339.955,305.639c-4.466,0-8.084,3.63-8.084,8.096c0,4.466,3.618,8.084,8.084,8.084
		s8.084-3.618,8.084-8.084v-0.023C348.039,309.246,344.42,305.639,339.955,305.639z"/>
	<path style="fill:#231F20;" d="M339.955,364.699c4.466,0,8.084-3.618,8.084-8.084v-0.023c0-4.466-3.618-8.072-8.084-8.072
		s-8.084,3.63-8.084,8.096C331.871,361.082,335.489,364.699,339.955,364.699z"/>
	<circle style="fill:#231F20;" cx="256" cy="107.046" r="7.646"/>
	<path style="fill:#231F20;" d="M325.942,115.134c4.466,0,8.084-3.618,8.084-8.084c0-4.466-3.618-8.084-8.084-8.084h-15.977
		c-4.466,0-8.084,3.618-8.084,8.084c0,4.466,3.618,8.084,8.084,8.084H325.942z"/>
</g>
<g style="opacity:0.2;">
	<rect x="152.457" y="166.89" style="fill:#231F20;" width="17.246" height="208.422"/>
</g>
<g style="opacity:0.2;">
	<rect x="157.847" y="9.52" style="fill:#231F20;" width="17.246" height="44.549"/>
</g>
<g>
</g>
<g>
</g>
<g>
</g>
<g>
</g>
<g>
</g>
<g>
</g>
<g>
</g>
<g>
</g>
<g>
</g>
<g>
</g>
<g>
</g>
<g>
</g>
<g>
</g>
<g>
</g>
<g>
</g>
</svg>
