<?xml version="1.0" encoding="iso-8859-1"?>
<!-- Generator: Adobe Illustrator 19.0.0, SVG Export Plug-In . SVG Version: 6.00 Build 0)  -->
<svg version="1.1" id="Layer_1" xmlns="http://www.w3.org/2000/svg" xmlns:xlink="http://www.w3.org/1999/xlink" x="0px" y="0px"
	 viewBox="0 0 512 512" style="enable-background:new 0 0 512 512;" xml:space="preserve">
<g>
	<path style="fill:#FBA026;" d="M67.462,348.497H41.999c-10.895,0-19.726-8.831-19.726-19.726v-14.344
		c0-10.895,8.831-19.726,19.726-19.726h25.463V348.497z"/>
	<path style="fill:#FBA026;" d="M293.407,205.107h71.582c18.898,0,34.217,15.319,34.217,34.218v164.55
		c0,18.898-15.319,34.217-34.217,34.217h-71.582V205.107z"/>
</g>
<g>
	<path style="fill:#FAC51C;" d="M372.13,348.497l86.074,40.347c23.768,0,43.037-30.107,43.037-67.245s-19.269-67.245-43.037-67.245
		l-86.074,40.347V348.497z"/>
	<path style="fill:#FAC51C;" d="M372.13,321.599c0,74.278-76.994,134.491-158.699,134.491s-147.94-60.213-147.94-134.491
		s66.235-134.491,147.94-134.491S372.13,247.322,372.13,321.599z"/>
</g>
<g>
	<circle style="fill:#27AAE1;" cx="34.968" cy="192.914" r="24.208"/>
	<circle style="fill:#27AAE1;" cx="86.989" cy="89.366" r="33.451"/>
</g>
<g>
	<path style="fill:#231F20;" d="M458.204,243.594c-1.578,0-3.137,0.346-4.566,1.017l-43.672,20.471v-25.758
		c0-24.8-20.176-44.977-44.976-44.977h-71.582c-0.27,0-0.538,0.013-0.804,0.033c-24.656-11.664-52.023-18.031-79.173-18.031
		c-73.281,0-135.109,45.699-153.28,107.593H41.999c-16.809,0-30.485,13.676-30.485,30.485v14.344
		c0,16.809,13.676,30.485,30.485,30.485h18.152c18.169,61.894,79.998,107.593,153.28,107.593c27.15,0,54.517-6.367,79.173-18.031
		c0.266,0.019,0.534,0.033,0.804,0.033h71.582c24.8,0,44.976-20.177,44.976-44.977v-25.758l43.672,20.471
		c1.429,0.67,2.988,1.017,4.566,1.017c30.166,0,53.796-34.264,53.796-78.005S488.369,243.594,458.204,243.594z M364.99,215.866
		c12.934,0,23.457,10.523,23.457,23.458v35.844l-12.621,5.917c-8.312-23.344-23.792-44.902-45.556-62.88
		c-0.957-0.79-1.924-1.569-2.899-2.339L364.99,215.866L364.99,215.866z M41.999,337.738c-4.945,0-8.967-4.022-8.967-8.967v-14.344
		c0-4.945,4.022-8.967,8.967-8.967h13.717c-0.643,5.301-0.984,10.684-0.984,16.139s0.341,10.838,0.984,16.139H41.999z
		 M76.25,321.599c0-68.226,61.539-123.732,137.181-123.732c78.809,0,147.94,57.818,147.94,123.732S292.24,445.33,213.43,445.33
		C137.789,445.33,76.25,389.824,76.25,321.599z M388.447,403.874c0,12.935-10.523,23.458-23.457,23.458h-37.617
		c0.975-0.77,1.942-1.548,2.899-2.339c21.764-17.979,37.243-39.536,45.556-62.88l12.621,5.917v35.845H388.447z M460.329,377.958
		l-79.024-37.043c0.465-2.836,0.839-5.688,1.099-8.557h16.804c5.941,0,10.759-4.818,10.759-10.759
		c0-5.941-4.818-10.759-10.759-10.759h-16.804c-0.259-2.868-0.634-5.721-1.099-8.557l79.024-37.043
		c16.552,1.99,30.153,26.989,30.153,56.359S476.881,375.968,460.329,377.958z"/>
	<circle style="fill:#231F20;" cx="150.307" cy="294.696" r="10.759"/>
	<path style="fill:#231F20;" d="M284.401,283.427c-2.385-1.772-5.399-2.481-8.32-1.951l-58.584,10.546
		c-5.849,1.053-9.736,6.648-8.683,12.495c1.053,5.85,6.647,9.735,12.495,8.683l53.536-9.637c4.733,4.864,7.401,11.309,7.438,18.226
		c0.035,6.748-2.451,13.047-6.938,17.829l-54.627-9.833c-5.85-1.048-11.444,2.836-12.495,8.683
		c-1.053,5.849,2.835,11.442,8.683,12.495l59.768,10.758c0.634,0.114,1.272,0.17,1.905,0.17c2.332,0,4.621-0.759,6.506-2.19
		c11.974-9.091,18.795-22.951,18.716-38.029C303.719,306.464,296.649,292.522,284.401,283.427z"/>
	<path style="fill:#231F20;" d="M69.935,192.918c0-19.282-15.686-34.968-34.968-34.968S0,173.636,0,192.918
		s15.686,34.968,34.968,34.968S69.935,212.2,69.935,192.918z M21.519,192.918c0-7.416,6.033-13.449,13.449-13.449
		s13.449,6.033,13.449,13.449s-6.033,13.449-13.449,13.449S21.519,200.333,21.519,192.918z"/>
	<path style="fill:#231F20;" d="M86.991,133.575c24.378,0,44.212-19.834,44.212-44.212s-19.834-44.212-44.212-44.212
		S42.779,64.985,42.779,89.364S62.611,133.575,86.991,133.575z M86.991,66.67c12.513,0,22.693,10.18,22.693,22.695
		c0,12.513-10.18,22.693-22.693,22.693s-22.693-10.18-22.693-22.693C64.297,76.85,74.478,66.67,86.991,66.67z"/>
	<path style="fill:#231F20;" d="M441.979,310.839h-1.076c-5.941,0-10.759,4.818-10.759,10.759c0,5.941,4.818,10.759,10.759,10.759
		h1.076c5.941,0,10.759-4.818,10.759-10.759C452.738,315.657,447.921,310.839,441.979,310.839z"/>
</g>
<g>
</g>
<g>
</g>
<g>
</g>
<g>
</g>
<g>
</g>
<g>
</g>
<g>
</g>
<g>
</g>
<g>
</g>
<g>
</g>
<g>
</g>
<g>
</g>
<g>
</g>
<g>
</g>
<g>
</g>
</svg>
