<?xml version="1.0" encoding="iso-8859-1"?>
<!-- Generator: Adobe Illustrator 19.0.0, SVG Export Plug-In . SVG Version: 6.00 Build 0)  -->
<svg version="1.1" id="Layer_1" xmlns="http://www.w3.org/2000/svg" xmlns:xlink="http://www.w3.org/1999/xlink" x="0px" y="0px"
	 viewBox="0 0 508 508" style="enable-background:new 0 0 508 508;" xml:space="preserve">
<g>
	<g>
		<path d="M493.9,0H14.1C6.3,0,0,6.3,0,14.1v479.8c0,7.8,6.3,14.1,14.1,14.1h479.8c7.8,0,14.1-6.3,14.1-14.1V14.1
			C508,6.3,501.7,0,493.9,0z M479.8,479.8L479.8,479.8H28.2V133h451.6V479.8z M479.8,104.8L479.8,104.8H28.2V28.2h451.6V104.8z"/>
	</g>
</g>
<g>
	<g>
		<path d="M88.8,52.4h-9c-7.8,0-14.1,6.3-14.1,14.1S72,80.6,79.8,80.6h9c7.8,0,14.1-6.3,14.1-14.1S96.6,52.4,88.8,52.4z"/>
	</g>
</g>
<g>
	<g>
		<path d="M160.7,52.4h-9c-7.8,0-14.1,6.3-14.1,14.1s6.3,14.1,14.1,14.1h9c7.8,0,14.1-6.3,14.1-14.1S168.5,52.4,160.7,52.4z"/>
	</g>
</g>
<g>
	<g>
		<path d="M428.2,52.4H223.7c-7.8,0-14.1,6.3-14.1,14.1s6.3,14.1,14.1,14.1h204.5c7.8,0,14.1-6.3,14.1-14.1S436,52.4,428.2,52.4z"/>
	</g>
</g>
<g>
	<g>
		<path d="M416.3,184.1H91.7c-7.8,0-14.1,6.3-14.1,14.1v115.4c0,7.7,6.3,14.1,14.1,14.1h324.6c7.8,0,14.1-6.3,14.1-14.1V198.2
			C430.4,190.4,424.1,184.1,416.3,184.1z M402.1,299.5H105.8v-87.2h296.3V299.5z"/>
	</g>
</g>
<g>
	<g>
		<circle cx="158.8" cy="255.9" r="14.1"/>
	</g>
</g>
<g>
	<g>
		<circle cx="222.3" cy="255.9" r="14.1"/>
	</g>
</g>
<g>
	<g>
		<circle cx="285.8" cy="255.9" r="14.1"/>
	</g>
</g>
<g>
	<g>
		<circle cx="349.3" cy="255.9" r="14.1"/>
	</g>
</g>
<g>
	<g>
		<polygon points="135.7,414.5 135.7,367 122.5,367 122.5,426.2 161,426.2 161,414.5 		"/>
	</g>
</g>
<g>
	<g>
		<rect x="302.6" y="367" width="13.2" height="59.3"/>
	</g>
</g>
<g>
	<g>
		<polygon points="371.9,367 371.9,405.1 342.8,367 330.5,367 330.5,426.2 343.7,426.2 343.7,389.1 371.9,426.2 385.1,426.2 
			385.1,367 		"/>
	</g>
</g>
<g>
	<g>
		<path d="M196.7,365.6c-17.2,0-31.1,13.7-31.1,30.6c0,16.9,13.9,30.6,31.1,30.6s31.2-13.7,31.2-30.6
			C227.9,379.3,213.9,365.6,196.7,365.6z M196.7,415.3c-9.8,0-17.6-8.6-17.6-19.1s7.8-19.1,17.6-19.1s17.7,8.6,17.7,19.1
			C214.4,406.8,206.5,415.3,196.7,415.3z"/>
	</g>
</g>
<g>
	<g>
		<path d="M277.6,396v15.2h0c-3,2.5-6.7,4.1-10.8,4.1c-9.8,0-17.6-8.6-17.6-19.1s7.8-19.1,17.6-19.1c5.9,0,11,3.1,14.3,7.9l7.4-10.7
			c-5.6-5.4-13.3-8.7-21.7-8.7c-17.2,0-31.1,13.7-31.1,30.6c0,16.9,13.9,30.6,31.1,30.6c9.6,0,18.2-4.4,23.9-11.2V396H277.6z"/>
	</g>
</g>
<g>
</g>
<g>
</g>
<g>
</g>
<g>
</g>
<g>
</g>
<g>
</g>
<g>
</g>
<g>
</g>
<g>
</g>
<g>
</g>
<g>
</g>
<g>
</g>
<g>
</g>
<g>
</g>
<g>
</g>
</svg>
