<?xml version="1.0" encoding="iso-8859-1"?>
<!-- Generator: Adobe Illustrator 19.0.0, SVG Export Plug-In . SVG Version: 6.00 Build 0)  -->
<svg version="1.1" id="Layer_1" xmlns="http://www.w3.org/2000/svg" xmlns:xlink="http://www.w3.org/1999/xlink" x="0px" y="0px"
	 viewBox="0 0 508.163 508.163" style="enable-background:new 0 0 508.163 508.163;" xml:space="preserve">
<g>
	<g>
		<path d="M472.734,489.619l-20.1-63.4c-1.9-5.9-7.3-9.8-13.4-9.8h-29v-238.3c0-4.1-1.8-8.1-5-10.7c-87.5-74.7-214.6-74.7-302.1,0
			c-3.1,2.7-5,6.6-5,10.7v238.2h-29c-6.1,0-11.6,4-13.4,9.8l-20.2,63.5c-2.6,7.9,2.7,18.1,13.4,18.4h410.4
			C468.135,508.019,475.835,499.519,472.734,489.619z M126.335,184.819c75-60.2,180.6-60.2,255.6,0v231.6h-255.6V184.819z
			 M68.234,479.919l11.2-35.3h349.5l11.2,35.3H68.234z"/>
	</g>
</g>
<g>
	<g>
		<path d="M52.335,187.619l-34.7-8.9c-7.5-1.9-15.2,2.6-17.2,10.2c-1.9,7.5,2.6,15.2,10.2,17.2l34.7,8.9c7.6,1.9,15.3-2.6,17.2-10.2
			C64.434,197.219,59.934,189.619,52.335,187.619z"/>
	</g>
</g>
<g>
	<g>
		<path d="M116.135,89.819l-25-26c-5.4-5.6-14.3-5.8-19.9-0.4c-5.6,5.4-5.8,14.3-0.4,20l25,26c5.4,5.6,14.3,5.8,19.9,0.4
			C121.335,104.419,121.535,95.519,116.135,89.819z"/>
	</g>
</g>
<g>
	<g>
		<path d="M214.235,45.319l-9-34.6c-2-7.5-9.7-12.1-17.2-10.1s-12.1,9.7-10.1,17.2l9,34.6c2,7.5,9.7,12.1,17.2,10.1
			S216.235,52.819,214.235,45.319z"/>
	</g>
</g>
<g>
	<g>
		<path d="M320.235,0.619c-7.5-2-15.3,2.5-17.2,10.1l-9,34.6c-2,7.5,2.5,15.2,10.1,17.2c7.5,2,15.2-2.5,17.2-10.1l9-34.6
			C332.335,10.319,327.835,2.619,320.235,0.619z"/>
	</g>
</g>
<g>
	<g>
		<path d="M436.935,63.419c-5.6-5.4-14.6-5.2-19.9,0.4l-25,26c-5.4,5.7-5.2,14.6,0.4,20c5.6,5.4,14.6,5.2,19.9-0.4l25-26
			C442.734,77.819,442.535,68.819,436.935,63.419z"/>
	</g>
</g>
<g>
	<g>
		<path d="M507.735,188.919c-1.9-7.6-9.6-12.1-17.2-10.2l-34.7,8.9c-7.5,1.9-12.1,9.6-10.2,17.2c1.9,7.5,9.6,12.1,17.2,10.2
			l34.7-8.9C505.035,204.219,509.635,196.519,507.735,188.919z"/>
	</g>
</g>
<g>
</g>
<g>
</g>
<g>
</g>
<g>
</g>
<g>
</g>
<g>
</g>
<g>
</g>
<g>
</g>
<g>
</g>
<g>
</g>
<g>
</g>
<g>
</g>
<g>
</g>
<g>
</g>
<g>
</g>
</svg>
