<?xml version="1.0" encoding="iso-8859-1"?>
<!-- Generator: Adobe Illustrator 19.0.0, SVG Export Plug-In . SVG Version: 6.00 Build 0)  -->
<svg version="1.1" id="Layer_1" xmlns="http://www.w3.org/2000/svg" xmlns:xlink="http://www.w3.org/1999/xlink" x="0px" y="0px"
	 viewBox="0 0 512 512" style="enable-background:new 0 0 512 512;" xml:space="preserve">
<g>
	<g>
		<path d="M496.756,1.909c-2.674-1.915-6.107-2.424-9.22-1.367L163.685,110.541H62.037c-28.151,0-51.052,22.901-51.052,51.051
			v186.754c0,28.15,22.901,51.051,51.052,51.051h101.619l323.826,112.042c1.086,0.376,2.213,0.561,3.334,0.561
			c2.095,0,4.167-0.645,5.918-1.891c2.688-1.913,4.283-5.009,4.283-8.308V10.198C501.016,6.91,499.43,3.823,496.756,1.909z
			 M155.171,379H62.037c-16.902,0-30.653-13.751-30.653-30.653v-15.549h37.862c5.632,0,10.199-4.566,10.199-10.199
			c0-5.633-4.567-10.199-10.199-10.199H31.384v-46.201h37.862c5.632,0,10.199-4.566,10.199-10.199
			c0-5.633-4.567-10.199-10.199-10.199H31.384v-48.261h37.862c5.632,0,10.199-4.566,10.199-10.199
			c0-5.633-4.567-10.199-10.199-10.199H31.384v-15.549c0-16.902,13.751-30.653,30.654-30.653h93.133V379z M480.617,487.479
			L175.569,381.936V128.048L480.617,24.435V487.479z"/>
	</g>
</g>
<g>
	<g>
		<path d="M415.342,74.724c-1.81-5.333-7.606-8.187-12.938-6.377l-154.697,52.545c-5.333,1.811-8.189,7.605-6.378,12.938
			c1.442,4.246,5.408,6.921,9.657,6.921c1.087,0,2.194-0.175,3.281-0.545l154.697-52.545
			C414.298,85.85,417.154,80.057,415.342,74.724z"/>
	</g>
</g>
<g>
	<g>
		<path d="M462.502,58.706c-1.81-5.333-7.604-8.188-12.938-6.378l-12.358,4.197c-5.333,1.811-8.189,7.604-6.378,12.938
			c1.442,4.247,5.408,6.922,9.657,6.922c1.087,0,2.194-0.175,3.281-0.545l12.358-4.197C461.458,69.832,464.314,64.04,462.502,58.706
			z"/>
	</g>
</g>
<g>
</g>
<g>
</g>
<g>
</g>
<g>
</g>
<g>
</g>
<g>
</g>
<g>
</g>
<g>
</g>
<g>
</g>
<g>
</g>
<g>
</g>
<g>
</g>
<g>
</g>
<g>
</g>
<g>
</g>
</svg>
