<?xml version="1.0" encoding="iso-8859-1"?>
<!-- Generator: Adobe Illustrator 19.0.0, SVG Export Plug-In . SVG Version: 6.00 Build 0)  -->
<svg version="1.1" id="Layer_1" xmlns="http://www.w3.org/2000/svg" xmlns:xlink="http://www.w3.org/1999/xlink" x="0px" y="0px"
	 viewBox="0 0 512 512" style="enable-background:new 0 0 512 512;" xml:space="preserve">
<g>
	<g>
		<path d="M409.338,187.236l-24.129-7.366c-2.715-0.83-5.664-0.212-7.82,1.634l-12.358,10.585l-8.025-5.673
			c0.012-0.65,0.024-1.301,0.024-1.954c0-2.193-0.079-4.366-0.219-6.523l6.28,1.256c0.545,0.109,1.09,0.161,1.629,0.161
			c3.149,0,6.092-1.801,7.488-4.729l9.778-20.523c1.97-4.136,0.215-9.087-3.921-11.058c-4.136-1.97-9.087-0.215-11.059,3.921
			l-6.998,14.688l-5.894-1.179c-10.771-43.56-50.183-75.955-97.023-75.955c-45.699,0-84.331,30.832-96.19,72.787l-9.171-7.891
			c-2.153-1.852-5.101-2.473-7.816-1.65l-15.573,4.718l-6.25-10.394c-2.361-3.926-7.459-5.196-11.385-2.834
			c-3.927,2.362-5.196,7.458-2.834,11.385l9.581,15.93c1.958,3.256,5.877,4.767,9.516,3.665l17.396-5.27l13.126,11.293
			c-0.22,2.705-0.339,5.438-0.339,8.199c0,1.983,0.065,3.952,0.179,5.907l-17.814,10.579c-2.44,1.449-3.97,4.044-4.056,6.881
			l-0.496,16.266L123.12,226.7c-4.475,0.986-7.303,5.413-6.316,9.887c0.853,3.874,4.285,6.514,8.094,6.514
			c0.592,0,1.193-0.064,1.793-0.197l18.154-3.999c3.71-0.818,6.392-4.051,6.508-7.85l0.553-18.17l8.075-4.795
			c10.645,43.739,50.142,76.309,97.11,76.309c39.621,0,73.93-23.176,90.084-56.682l2.301,3.317c1.617,2.332,4.321,3.683,7.15,3.562
			l16.259-0.655l3.439,11.628c1.067,3.609,4.371,5.946,7.952,5.946c0.779,0,1.571-0.111,2.356-0.343
			c4.394-1.3,6.903-5.916,5.603-10.309l-5.272-17.825c-1.077-3.643-4.478-6.086-8.29-5.937l-18.163,0.731l-6.429-9.267
			c0.277-1.111,0.534-2.227,0.773-3.352l5.874,4.152c1.44,1.018,3.116,1.521,4.788,1.521c1.929,0,3.852-0.67,5.398-1.996
			l13.805-11.824l19.773,6.036c4.387,1.341,9.02-1.129,10.357-5.512C416.188,193.21,413.72,188.573,409.338,187.236z
			 M257.091,267.81c-45.958,0-83.347-37.389-83.347-83.347c0-45.957,37.389-83.346,83.347-83.346
			c39.584,0,72.789,27.748,81.242,64.807c0.684,2.325,0.775,3.892,1.149,5.919c0.628,4.116,0.955,8.331,0.955,12.62
			C340.437,230.42,303.047,267.81,257.091,267.81z"/>
	</g>
</g>
<g>
	<g>
		<path d="M432.449,201.444c-4.54-0.659-8.74,2.5-9.388,7.035c-5.669,39.585-25.466,75.961-55.743,102.426
			c-30.564,26.715-69.78,41.427-110.423,41.427c-92.564,0-167.871-75.305-167.871-167.869s75.306-167.87,167.871-167.87
			c54.773,0,106.239,26.837,137.673,71.789c2.626,3.755,7.798,4.674,11.553,2.045c3.756-2.626,4.671-7.799,2.045-11.553
			C373.63,29.486,317.081,0,256.895,0C155.181,0,72.431,82.75,72.431,184.464c0,73.658,43.404,137.362,105.973,166.905
			c7.541,5.053,12.042,13.473,12.042,22.539v104.878c0,18.315,14.9,33.215,33.215,33.215c18.316,0,33.216-14.9,33.216-33.215V417.34
			c0-4.652,3.784-8.437,8.436-8.437c4.614,0,8.375,3.722,8.436,8.322l-0.174,5.22c-0.003,0.092-0.004,0.185-0.004,0.277
			c0,18.315,14.902,33.216,33.217,33.216c18.315,0,33.215-14.902,33.215-33.216v-58.249c0-7.743,3.362-15.125,9.093-20.241
			c10.301-5.946,20.07-12.903,29.141-20.832c33.265-29.076,55.017-69.053,61.248-112.566
			C440.136,206.296,436.984,202.093,432.449,201.444z M323.41,364.471v58.249c0,9.166-7.457,16.623-16.622,16.623
			c-9.125,0-16.557-7.391-16.624-16.5l0.175-5.229c0.003-0.092,0.004-0.185,0.004-0.277c0-13.802-11.228-25.03-25.03-25.03
			c-13.801,0-25.029,11.228-25.029,25.03v61.446c0,9.165-7.457,16.622-16.623,16.622c-9.165,0-16.622-7.457-16.622-16.622V373.905
			c0-4.242-0.629-8.392-1.793-12.351c16.396,4.79,33.726,7.369,51.649,7.369c23.269,0,46.11-4.398,67.405-12.755
			C323.725,358.862,323.41,361.634,323.41,364.471z"/>
	</g>
</g>
<g>
	<g>
		<path d="M437.461,146.575c-0.6-2.868-1.272-5.746-2.001-8.552c-1.152-4.436-5.675-7.101-10.115-5.947
			c-4.436,1.152-7.097,5.68-5.947,10.115c0.663,2.551,1.276,5.167,1.82,7.775c0.817,3.914,4.267,6.603,8.113,6.603
			c0.562,0,1.133-0.059,1.705-0.177C435.521,155.455,438.397,151.061,437.461,146.575z"/>
	</g>
</g>
<g>
	<g>
		<path d="M256.895,134.931c-27.311,0-49.531,22.22-49.531,49.532c0,27.311,22.22,49.531,49.531,49.531s49.53-22.22,49.53-49.531
			C306.425,157.15,284.207,134.931,256.895,134.931z M256.895,217.402c-18.163,0-32.938-14.775-32.938-32.938
			s14.775-32.939,32.938-32.939c18.161,0,32.937,14.777,32.937,32.939S275.056,217.402,256.895,217.402z"/>
	</g>
</g>
<g>
</g>
<g>
</g>
<g>
</g>
<g>
</g>
<g>
</g>
<g>
</g>
<g>
</g>
<g>
</g>
<g>
</g>
<g>
</g>
<g>
</g>
<g>
</g>
<g>
</g>
<g>
</g>
<g>
</g>
</svg>
