<?xml version="1.0" encoding="iso-8859-1"?>
<!-- Generator: Adobe Illustrator 19.0.0, SVG Export Plug-In . SVG Version: 6.00 Build 0)  -->
<svg version="1.1" id="Layer_1" xmlns="http://www.w3.org/2000/svg" xmlns:xlink="http://www.w3.org/1999/xlink" x="0px" y="0px"
	 viewBox="0 0 512 512" style="enable-background:new 0 0 512 512;" xml:space="preserve">
<path style="fill:#7E8488;" d="M297.343,64.788v50.955c-13.333-2.894-27.183-4.444-41.344-4.444c-14.161,0-28.01,1.551-41.344,4.444
	V64.788h20.671h41.344H297.343z"/>
<rect x="235.329" y="7.94" style="fill:#AFB6BB;" width="41.341" height="56.847"/>
<g>
	<path style="fill:#0089BE;" d="M256,504.06v-87.855h103.359v58.398C329.384,493.311,293.933,504.06,256,504.06z"/>
	<path style="fill:#0089BE;" d="M359.359,307.679h93.022c0,40.103-12.093,77.415-32.764,108.526h-60.258L359.359,307.679
		L359.359,307.679z"/>
	<path style="fill:#0089BE;" d="M422.51,203.598l-1.137,0.723h-62.015v-63.565C384.888,156.569,406.593,178.068,422.51,203.598z"/>
	<rect x="256.004" y="204.321" style="fill:#0089BE;" width="103.357" height="103.357"/>
	<path style="fill:#0089BE;" d="M214.656,115.743c13.333-2.894,27.183-4.444,41.344-4.444v93.022H152.641v-63.565
		C171.453,129.076,192.331,120.497,214.656,115.743z"/>
	<path style="fill:#0089BE;" d="M152.641,416.205v58.398c-24.082-14.884-44.651-34.832-60.258-58.398H152.641z"/>
	<rect x="152.637" y="307.677" style="fill:#0089BE;" width="103.357" height="108.523"/>
	<path style="fill:#0089BE;" d="M152.641,204.321v103.359H59.619c0-38.243,10.956-73.902,29.87-104.082l1.137,0.723H152.641z"/>
</g>
<g>
	<path style="fill:#00B4D7;" d="M422.51,203.598c18.915,30.18,29.871,65.839,29.871,104.082h-93.022V204.321h62.015L422.51,203.598z
		"/>
	<path style="fill:#00B4D7;" d="M359.359,416.205h60.258c-15.607,23.566-36.175,43.514-60.258,58.398V416.205z"/>
	<rect x="256.004" y="307.677" style="fill:#00B4D7;" width="103.357" height="108.523"/>
	<path style="fill:#00B4D7;" d="M297.343,115.743c22.326,4.754,43.204,13.333,62.015,25.013v63.565H255.999v-93.022
		C270.16,111.299,284.01,112.849,297.343,115.743z"/>
	<rect x="152.637" y="204.321" style="fill:#00B4D7;" width="103.357" height="103.357"/>
	<path style="fill:#00B4D7;" d="M256,416.205v87.855c-37.933,0-73.384-10.75-103.359-29.457v-58.398H256z"/>
	<path style="fill:#00B4D7;" d="M152.641,307.679v108.526H92.384c-20.671-31.111-32.764-68.423-32.764-108.526H152.641z"/>
	<path style="fill:#00B4D7;" d="M152.641,140.756v63.565H90.626l-1.137-0.723C105.407,178.068,127.112,156.569,152.641,140.756z"/>
</g>
<path style="fill:#686E71;" d="M235.329,64.788h-20.671v50.955c13.333-2.894,27.183-4.444,41.344-4.444V64.788H235.329z"/>
<rect x="235.329" y="7.94" style="fill:#9CA2A7;" width="20.671" height="56.847"/>
<path d="M429.247,199.397c-16.406-26.315-39.128-48.927-65.701-65.387c-18.151-11.269-37.732-19.517-58.263-24.578V56.848h-98.566
	v52.586c-20.546,5.067-40.119,13.312-58.256,24.572c-26.58,16.464-49.302,39.076-65.699,65.375
	c-20.335,32.447-31.082,69.896-31.082,108.298c0,40.307,11.788,79.355,34.084,112.91c16.148,24.382,37.83,45.395,62.674,60.749
	C180.576,501.398,217.771,512,256,512s75.424-10.602,107.533-30.643c24.873-15.373,46.555-36.385,62.697-60.757
	c22.302-33.566,34.091-72.613,34.091-112.921C460.321,269.275,449.573,231.826,429.247,199.397z M444.256,299.739h-76.958v-87.479
	h51.163C434.122,238.856,442.961,268.848,444.256,299.739z M351.419,470.109c-26.49,15.68-56.494,24.534-87.479,25.827v-71.791
	h87.479V470.109z M248.06,495.936c-30.974-1.293-60.971-10.144-87.479-25.828v-45.963h87.479V495.936z M160.581,408.265v-92.646
	h87.479v92.646H160.581z M160.581,299.739v-87.479h28.238v-15.88h-28.238v-51.146c17.378-10.243,36.105-17.547,55.759-21.733
	c10.438-2.266,21.075-3.621,31.719-4.077v76.956h-38.571v15.88h38.571v87.479L160.581,299.739L160.581,299.739z M295.689,123.509
	c19.624,4.179,38.348,11.482,55.73,21.727v51.145H263.94v-76.956C274.585,119.881,285.226,121.237,295.689,123.509z M263.94,212.261
	h87.479v87.479H263.94V212.261z M408.017,196.381h-40.718v-40.676C382.869,167.118,396.665,180.899,408.017,196.381z
	 M289.404,72.728v33.424c-22.091-3.68-44.754-3.676-66.806-0.001V72.728H289.404z M144.701,155.705v40.676h-40.719
	C115.33,180.904,129.125,167.122,144.701,155.705z M93.539,212.261h51.163v87.479H67.743
	C69.039,268.853,77.875,238.866,93.539,212.261z M67.732,315.619h76.971v92.646H96.704
	C79.041,380.359,69.108,348.561,67.732,315.619z M107.919,424.145h36.782v35.526C130.933,449.577,118.488,437.564,107.919,424.145z
	 M367.299,459.671v-35.525h36.783C393.517,437.557,381.076,449.57,367.299,459.671z M415.296,408.265h-47.997v-48.907h-15.88v48.907
	H263.94v-92.646h87.479v23.069h15.88v-23.069h76.971C442.892,348.558,432.961,380.353,415.296,408.265z"/>
<polygon points="243.269,15.88 268.731,15.88 268.731,44.115 284.611,44.115 284.611,0 227.389,0 227.389,44.115 243.269,44.115 "/>
<g>
	<polygon style="fill:#FFFFFF;" points="175.709,266.336 191.589,266.336 191.589,243.269 204.321,243.269 204.321,227.389 
		175.709,227.389 	"/>
	<polygon style="fill:#FFFFFF;" points="279.067,369.694 294.947,369.694 294.947,346.626 307.678,346.626 307.678,330.746 
		279.067,330.746 	"/>
	<rect x="90.632" y="356.587" style="fill:#FFFFFF;" width="20.671" height="15.88"/>
	<rect x="111.297" y="335.912" style="fill:#FFFFFF;" width="20.671" height="15.88"/>
</g>
<rect x="276.669" y="160.206" width="20.671" height="15.88"/>
<rect x="297.345" y="139.531" width="20.671" height="15.88"/>
<rect x="400.701" y="263.563" style="fill:#FFFFFF;" width="20.671" height="15.88"/>
<rect x="183.645" y="366.92" width="20.671" height="15.88"/>
<rect x="287.012" y="449.611" width="20.671" height="15.88"/>
<g>
</g>
<g>
</g>
<g>
</g>
<g>
</g>
<g>
</g>
<g>
</g>
<g>
</g>
<g>
</g>
<g>
</g>
<g>
</g>
<g>
</g>
<g>
</g>
<g>
</g>
<g>
</g>
<g>
</g>
</svg>
