<?xml version="1.0" encoding="iso-8859-1"?>
<!-- Generator: Adobe Illustrator 16.0.0, SVG Export Plug-In . SVG Version: 6.00 Build 0)  -->
<!DOCTYPE svg PUBLIC "-//W3C//DTD SVG 1.1//EN" "http://www.w3.org/Graphics/SVG/1.1/DTD/svg11.dtd">
<svg version="1.1" id="Capa_1" xmlns="http://www.w3.org/2000/svg" xmlns:xlink="http://www.w3.org/1999/xlink" x="0px" y="0px"
	 width="496.764px" height="496.764px" viewBox="0 0 496.764 496.764" style="enable-background:new 0 0 496.764 496.764;"
	 xml:space="preserve">
<g>
	<g>
		<path d="M216.288,220.958V96.599H92.123c-9.465,0-17.166,7.7-17.166,17.165v269.237c0,9.464,7.701,17.165,17.166,17.165h124.165
			v-25.992v-8.337h-107v-55.274h107v-0.449v-33.879h-107v-55.275L216.288,220.958L216.288,220.958z"/>
		<path d="M421.807,113.764c0-9.465-7.699-17.165-17.164-17.165H280.476v124.359h107.002v55.274H280.476v33.879v0.451h107.002
			v55.273H280.476v8.337v25.992h124.167c9.465,0,17.164-7.701,17.164-17.165V203.793c0-0.069,0-0.138-0.004-0.207L421.807,113.764z"
			/>
		<path d="M495.639,290.898l-49.383-41.765c-0.584-0.494-1.314-0.751-2.051-0.751c-0.451,0-0.908,0.098-1.336,0.295
			c-1.121,0.521-1.838,1.645-1.838,2.88v83.528c0,1.234,0.717,2.359,1.838,2.879c1.123,0.521,2.442,0.342,3.387-0.456l49.383-41.763
			c0.713-0.604,1.125-1.489,1.125-2.426C496.764,292.388,496.352,291.501,495.639,290.898z"/>
		<path d="M53.893,248.678c-0.426-0.197-0.883-0.295-1.334-0.295c-0.736,0-1.467,0.257-2.051,0.751L1.125,290.898
			C0.412,291.502,0,292.388,0,293.322c0,0.936,0.412,1.822,1.125,2.425l49.383,41.763c0.941,0.798,2.264,0.979,3.385,0.456
			c1.123-0.521,1.84-1.644,1.84-2.879v-83.528C55.733,250.322,55.016,249.197,53.893,248.678z"/>
	</g>
	<g>
		<rect x="231.288" y="384.174" width="34.188" height="68.377"/>
		<rect x="231.288" y="196.652" width="34.188" height="103.461"/>
		<rect x="231.288" y="44.213" width="34.188" height="68.377"/>
	</g>
</g>
<g>
</g>
<g>
</g>
<g>
</g>
<g>
</g>
<g>
</g>
<g>
</g>
<g>
</g>
<g>
</g>
<g>
</g>
<g>
</g>
<g>
</g>
<g>
</g>
<g>
</g>
<g>
</g>
<g>
</g>
</svg>
