<?xml version="1.0" encoding="iso-8859-1"?>
<!-- Generator: Adobe Illustrator 19.0.0, SVG Export Plug-In . SVG Version: 6.00 Build 0)  -->
<svg version="1.1" id="Layer_1" xmlns="http://www.w3.org/2000/svg" xmlns:xlink="http://www.w3.org/1999/xlink" x="0px" y="0px"
	 viewBox="0 0 512 512" style="enable-background:new 0 0 512 512;" xml:space="preserve">
<path style="fill:#F5DEB2;" d="M350.609,122.435H183.652c-9.223,0-16.696-7.473-16.696-16.696V72.348
	c0-27.619,22.468-50.087,50.087-50.087h100.174c27.619,0,50.087,22.468,50.087,50.087v33.391
	C367.304,114.962,359.831,122.435,350.609,122.435z"/>
<path style="fill:#EFCB99;" d="M317.217,22.261H217.043c-12.875,0-24.509,5.018-33.391,13.027v87.147h166.957
	c9.223,0,16.696-7.473,16.696-16.696V72.348C367.304,44.729,344.836,22.261,317.217,22.261z"/>
<path style="fill:#615349;" d="M495.304,456.348c-9.217,0-16.696-7.473-16.696-16.696c0-9.206-7.49-16.696-16.696-16.696H384
	c-9.223,0-16.696-7.473-16.696-16.696c0-9.223,7.473-16.696,16.696-16.696h77.913c27.619,0,50.087,22.468,50.087,50.087
	C512,448.875,504.521,456.348,495.304,456.348z"/>
<path style="fill:#FF5023;" d="M434.087,422.957h-384C22.424,422.957,0,400.532,0,372.87V272.696
	C0,171.267,82.224,89.043,183.652,89.043h166.957c46.103,0,83.478,37.375,83.478,83.478V422.957z"/>
<path style="fill:#CD2A00;" d="M183.652,422.957h250.435V172.522c0-46.103-37.375-83.478-83.478-83.478H183.652V422.957z"/>
<path style="fill:#6E6057;" d="M250.435,389.565H116.87c-9.223,0-16.696,7.473-16.696,16.696c0,46.032,37.446,83.478,83.478,83.478
	s83.478-37.446,83.478-83.478C267.13,397.038,259.657,389.565,250.435,389.565z"/>
<g>
	<path style="fill:#615349;" d="M250.435,389.565h-66.783v100.174c46.032,0,83.478-37.446,83.478-83.478
		C267.13,397.038,259.657,389.565,250.435,389.565z"/>
	<path style="fill:#615349;" d="M434.087,322.783h-116.87c-9.22,0-16.696-7.475-16.696-16.696l0,0
		c0-9.22,7.475-16.696,16.696-16.696h116.87V322.783z"/>
</g>
<path style="fill:#6E6057;" d="M50.087,322.783H0v-33.391h50.087c9.22,0,16.696,7.475,16.696,16.696l0,0
	C66.783,315.307,59.307,322.783,50.087,322.783z"/>
<path style="fill:#C9D0D7;" d="M300.522,422.957H66.783v-16.696c0-64.545,52.324-116.87,116.87-116.87l0,0
	c64.545,0,116.87,52.324,116.87,116.87V422.957z"/>
<path style="fill:#B8C2C9;" d="M300.522,422.957v-16.696c0-64.545-52.323-116.87-116.87-116.87v133.565H300.522z"/>
<path style="fill:#C5F0FD;" d="M233.739,155.826h-83.478c-27.619,0-50.087,22.468-50.087,50.087S122.642,256,150.261,256h83.478
	V155.826z"/>
<path style="fill:#A4E5FD;" d="M317.217,155.826H183.652V256h133.565c9.223,0,16.696-7.473,16.696-16.696v-66.783
	C333.913,163.299,326.44,155.826,317.217,155.826z"/>
<g>
</g>
<g>
</g>
<g>
</g>
<g>
</g>
<g>
</g>
<g>
</g>
<g>
</g>
<g>
</g>
<g>
</g>
<g>
</g>
<g>
</g>
<g>
</g>
<g>
</g>
<g>
</g>
<g>
</g>
</svg>
