<?xml version="1.0" encoding="iso-8859-1"?>
<!-- Generator: Adobe Illustrator 19.0.0, SVG Export Plug-In . SVG Version: 6.00 Build 0)  -->
<svg version="1.1" id="Layer_1" xmlns="http://www.w3.org/2000/svg" xmlns:xlink="http://www.w3.org/1999/xlink" x="0px" y="0px"
	 viewBox="0 0 512 512" style="enable-background:new 0 0 512 512;" xml:space="preserve">
<path style="fill:#6E6057;" d="M83.478,322.783H50.087C22.468,322.783,0,300.315,0,272.696V139.13
	c0-46.032,37.446-83.478,83.478-83.478h33.391c9.217,0,16.696,7.473,16.696,16.696s-7.479,16.696-16.696,16.696H83.478
	c-27.619,0-50.087,22.468-50.087,50.087v133.565c0,9.206,7.49,16.696,16.696,16.696h33.391c9.217,0,16.696,7.473,16.696,16.696
	S92.695,322.783,83.478,322.783z"/>
<path style="fill:#615349;" d="M461.913,322.783h-33.391c-9.217,0-16.696-7.473-16.696-16.696s7.479-16.696,16.696-16.696h33.391
	c9.206,0,16.696-7.49,16.696-16.696V139.13c0-27.619-22.468-50.087-50.087-50.087H395.13c-9.217,0-16.696-7.473-16.696-16.696
	s7.479-16.696,16.696-16.696h33.391c46.032,0,83.478,37.446,83.478,83.478v133.565C512,300.315,489.532,322.783,461.913,322.783z"/>
<path style="fill:#E6EBF0;" d="M445.217,289.391H66.783v-83.478c0-27.662,22.424-50.087,50.087-50.087H395.13
	c27.662,0,50.087,22.424,50.087,50.087V289.391z"/>
<path style="fill:#D1DAE4;" d="M395.13,155.826H256v133.565h189.217v-83.478C445.217,178.251,422.794,155.826,395.13,155.826z"/>
<path style="fill:#57A4FF;" d="M395.13,489.739H116.87c-27.662,0-50.087-22.424-50.087-50.087V256h378.435v183.652
	C445.217,467.315,422.793,489.739,395.13,489.739z"/>
<path style="fill:#2488FF;" d="M256,489.739h139.13c27.664,0,50.087-22.424,50.087-50.087V256H256V489.739z"/>
<path style="fill:#C9D0D7;" d="M294.957,356.174h-77.913c-27.662,0-50.087-22.424-50.087-50.087V256h178.087v50.087
	C345.043,333.749,322.619,356.174,294.957,356.174z"/>
<path style="fill:#57A4FF;" d="M361.739,122.435H150.261c-27.619,0-50.087-22.468-50.087-50.087s22.468-50.087,50.087-50.087
	h211.478c27.619,0,50.087,22.468,50.087,50.087S389.358,122.435,361.739,122.435z"/>
<path style="fill:#B8C2C9;" d="M256,356.174h38.957c27.664,0,50.087-22.424,50.087-50.087V256H256V356.174z"/>
<path style="fill:#2488FF;" d="M361.739,22.261H256v100.174h105.739c27.619,0,50.087-22.468,50.087-50.087
	S389.358,22.261,361.739,22.261z"/>
<g>
</g>
<g>
</g>
<g>
</g>
<g>
</g>
<g>
</g>
<g>
</g>
<g>
</g>
<g>
</g>
<g>
</g>
<g>
</g>
<g>
</g>
<g>
</g>
<g>
</g>
<g>
</g>
<g>
</g>
</svg>
