<?xml version="1.0" encoding="iso-8859-1"?>
<!-- Generator: Adobe Illustrator 19.0.0, SVG Export Plug-In . SVG Version: 6.00 Build 0)  -->
<svg version="1.1" id="Layer_1" xmlns="http://www.w3.org/2000/svg" xmlns:xlink="http://www.w3.org/1999/xlink" x="0px" y="0px"
	 viewBox="0 0 512 512" style="enable-background:new 0 0 512 512;" xml:space="preserve">
<rect x="133.565" y="66.783" style="fill:#57A4FF;" width="244.87" height="311.652"/>
<rect x="256" y="66.783" style="fill:#2488FF;" width="122.435" height="311.652"/>
<path style="fill:#875334;" d="M166.957,378.435H66.783V33.391h83.478c9.22,0,16.696,7.475,16.696,16.696V378.435z"/>
<path style="fill:#72462C;" d="M445.217,378.435H345.043V50.087c0-9.22,7.475-16.696,16.696-16.696h83.478V378.435z"/>
<path style="fill:#BDDBFF;" d="M83.478,445.217H16.696C7.479,445.217,0,437.744,0,428.522s7.479-16.696,16.696-16.696h66.783
	c9.217,0,16.696,7.473,16.696,16.696S92.695,445.217,83.478,445.217z"/>
<g>
	<path style="fill:#9BC9FF;" d="M495.304,445.217h-66.783c-9.217,0-16.696-7.473-16.696-16.696s7.479-16.696,16.696-16.696h66.783
		c9.217,0,16.696,7.473,16.696,16.696S504.521,445.217,495.304,445.217z"/>
	<path style="fill:#9BC9FF;" d="M450.783,512H317.217c-9.217,0-16.696-7.473-16.696-16.696s7.479-16.696,16.696-16.696h133.565
		c9.217,0,16.696,7.473,16.696,16.696S460,512,450.783,512z"/>
</g>
<g>
	<path style="fill:#BDDBFF;" d="M183.652,512H83.478c-9.217,0-16.696-7.473-16.696-16.696s7.479-16.696,16.696-16.696h100.174
		c9.217,0,16.696,7.473,16.696,16.696S192.869,512,183.652,512z"/>
	<path style="fill:#BDDBFF;" d="M361.739,445.217H161.391c-9.217,0-16.696-7.473-16.696-16.696s7.479-16.696,16.696-16.696h200.348
		c9.217,0,16.696,7.473,16.696,16.696S370.956,445.217,361.739,445.217z"/>
</g>
<path style="fill:#9BC9FF;" d="M294.957,233.739c-9.217,0-16.696-7.473-16.696-16.696v-33.391c0-9.223,7.479-16.696,16.696-16.696
	c9.217,0,16.696,7.473,16.696,16.696v33.391C311.652,226.266,304.174,233.739,294.957,233.739z"/>
<g>
	<path style="fill:#BDDBFF;" d="M217.043,233.739c-9.217,0-16.696-7.473-16.696-16.696v-33.391c0-9.223,7.479-16.696,16.696-16.696
		s16.696,7.473,16.696,16.696v33.391C233.739,226.266,226.261,233.739,217.043,233.739z"/>
	<path style="fill:#BDDBFF;" d="M389.546,378.435l-0.008-22.261c-0.081-41.351-36.641-71.484-75.571-66.185
		C302.337,269.385,280.337,256,256,256s-46.337,13.385-57.967,33.989c-39.327-5.297-75.489,25.17-75.571,66.185h-0.027v22.261
		H389.546z"/>
</g>
<g>
	<path style="fill:#9BC9FF;" d="M389.546,378.435l-0.008-22.261c-0.081-41.351-36.641-71.484-75.571-66.185
		C302.337,269.385,280.337,256,256,256v122.435H389.546z"/>
	<path style="fill:#9BC9FF;" d="M294.957,133.565L294.957,133.565c-9.22,0-16.696-7.475-16.696-16.696V66.783h33.391v50.087
		C311.652,126.09,304.177,133.565,294.957,133.565z"/>
</g>
<path style="fill:#BDDBFF;" d="M217.043,144.696L217.043,144.696c-9.22,0-16.696-7.475-16.696-16.696V66.783h33.391V128
	C233.739,137.22,226.264,144.696,217.043,144.696z"/>
<path style="fill:#95673F;" d="M100.174,378.435H16.696C7.475,378.435,0,370.96,0,361.739V16.696C0,7.475,7.475,0,16.696,0h66.783
	c9.22,0,16.696,7.475,16.696,16.696V378.435z"/>
<path style="fill:#875334;" d="M495.304,378.435h-83.478V16.696c0-9.22,7.475-16.696,16.696-16.696h66.783
	C504.525,0,512,7.475,512,16.696v345.043C512,370.96,504.525,378.435,495.304,378.435z"/>
<path style="fill:#9BC9FF;" d="M361.739,411.826H256v33.391h105.739c9.217,0,16.696-7.473,16.696-16.696
	S370.956,411.826,361.739,411.826z"/>
<g>
</g>
<g>
</g>
<g>
</g>
<g>
</g>
<g>
</g>
<g>
</g>
<g>
</g>
<g>
</g>
<g>
</g>
<g>
</g>
<g>
</g>
<g>
</g>
<g>
</g>
<g>
</g>
<g>
</g>
</svg>
