<?xml version="1.0" encoding="iso-8859-1"?>
<!-- Generator: Adobe Illustrator 19.0.0, SVG Export Plug-In . SVG Version: 6.00 Build 0)  -->
<svg version="1.1" id="Layer_1" xmlns="http://www.w3.org/2000/svg" xmlns:xlink="http://www.w3.org/1999/xlink" x="0px" y="0px"
	 viewBox="0 0 512 512" style="enable-background:new 0 0 512 512;" xml:space="preserve">
<path style="fill:#95673F;" d="M56.005,491.836l-39.602-39.602c-21.871-21.871-21.871-57.332,0-79.204l118.806-118.806
	l118.806,118.806L135.209,491.836C113.337,513.708,77.876,513.708,56.005,491.836z"/>
<path style="fill:#875334;" d="M36.204,472.035l19.801,19.801c21.872,21.872,57.333,21.871,79.204,0l118.806-118.806l-59.403-59.403
	L36.204,472.035z"/>
<path style="fill:#E6EBF0;" d="M503.586,15.265c-0.871-2.613-2.296-4.831-4.039-6.573c-6.257-6.257-16.87-6.891-23.761,0
	c-33.82,33.82-49.502,49.502-81.977,33.186c-18.296-9.108-40.868-4.909-56.631,10.377L170.85,218.583l118.806,118.806
	c0,0,171.002-171.002,173.061-173.061l13.068-13.068C511.19,115.855,521.012,67.541,503.586,15.265z"/>
<path style="fill:#D1DAE4;" d="M475.786,151.259l-13.068,13.068c-2.06,2.06-173.061,173.061-173.061,173.061l-59.403-59.403
	L499.547,8.693c1.742,1.742,3.168,3.96,4.039,6.573C521.012,67.541,511.19,115.855,475.786,151.259z"/>
<path style="fill:#C9D0D7;" d="M234.214,297.787l-23.761-23.761L356.98,127.499c6.562-6.562,17.199-6.562,23.761,0l0,0
	c6.562,6.562,6.562,17.199,0,23.761L234.214,297.787z"/>
<g>
	<path style="fill:#6E6057;" d="M143.13,483.916l-67.323-67.323c-6.562-6.562-6.562-17.199,0-23.761l0,0
		c6.562-6.562,17.199-6.562,23.761,0l67.323,67.323L143.13,483.916z"/>
	<path style="fill:#6E6057;" d="M190.652,436.393l-67.323-67.323c-6.562-6.562-6.562-17.199,0-23.761l0,0
		c6.562-6.562,17.199-6.562,23.761,0l67.323,67.323L190.652,436.393z"/>
</g>
<path style="fill:#B8C2C9;" d="M234.214,297.787l146.528-146.528c6.562-6.562,6.56-17.2,0-23.761L222.333,285.906L234.214,297.787z"
	/>
<g>
	
		<rect x="83.303" y="425.534" transform="matrix(0.7071 0.7071 -0.7071 0.7071 349.4798 40.9516)" style="fill:#615349;" width="84.008" height="33.603"/>
	
		<rect x="130.828" y="378.011" transform="matrix(0.7071 0.7071 -0.7071 0.7071 329.7956 -6.5727)" style="fill:#615349;" width="84.008" height="33.603"/>
</g>
<path style="fill:#6E6057;" d="M226.294,376.99L123.328,274.025c-19.685-19.685-19.685-51.599,0-71.284l0,0
	c19.685-19.685,51.599-19.685,71.284,0l102.965,102.965c19.685,19.685,19.685,51.599,0,71.284l0,0
	C277.893,396.675,245.978,396.675,226.294,376.99z"/>
<path style="fill:#615349;" d="M297.577,305.707l-47.522-47.522l-71.284,71.284l47.522,47.522c19.685,19.685,51.599,19.685,71.284,0
	C317.262,357.306,317.262,325.392,297.577,305.707z"/>
<g>
</g>
<g>
</g>
<g>
</g>
<g>
</g>
<g>
</g>
<g>
</g>
<g>
</g>
<g>
</g>
<g>
</g>
<g>
</g>
<g>
</g>
<g>
</g>
<g>
</g>
<g>
</g>
<g>
</g>
</svg>
