<?xml version="1.0" encoding="iso-8859-1"?>
<!-- Generator: Adobe Illustrator 19.0.0, SVG Export Plug-In . SVG Version: 6.00 Build 0)  -->
<svg version="1.1" id="Layer_1" xmlns="http://www.w3.org/2000/svg" xmlns:xlink="http://www.w3.org/1999/xlink" x="0px" y="0px"
	 viewBox="0 0 453.262 453.262" style="enable-background:new 0 0 453.262 453.262;" xml:space="preserve">
<g transform="translate(0 -1004.36)" shape-rendering="auto" image-rendering="auto" color-rendering="auto" color-interpolation="sRGB">
	<path style="fill:#3B322E;" d="M39.964,1142.955c-4.418,0-8,3.582-8,8v202.667c0.003,1.58,0.474,3.125,1.354,4.438l64,96
		c1.482,2.222,3.975,3.559,6.646,3.563h170.667c2.678,0.003,5.181-1.334,6.667-3.563l64-96c0.872-1.315,1.336-2.859,1.333-4.438v-56
		h34.667c22.021,0,40-17.979,40-40v-74.667c0-22.021-17.979-40-40-40C267.52,1142.955,153.742,1142.955,39.964,1142.955z
		 M346.631,1158.955h34.667c13.434,0,24,10.565,24,24v74.667c0,13.435-10.566,24-24,24h-34.667V1158.955z"/>
	<path style="fill:#9677A7;" d="M47.964,1158.973h282.667v192.249l-60.271,90.417H108.255l-60.291-90.417V1158.973z"/>
	<g>
		<path style="fill:#3B322E;" d="M189.193,1206.997c-4.418,0.057-7.954,3.686-7.896,8.104c0,0.007,0,0.014,0,0.021v8.229
			l-9.604-4.813c-1.189-0.617-2.515-0.925-3.854-0.896c-4.418,0.087-7.929,3.739-7.842,8.157c0.059,3.016,1.811,5.743,4.529,7.052
			l16.771,8.375v45.271l-37.333-21.333v-18.042c0.069-4.418-3.457-8.056-7.875-8.125c-0.076-0.001-0.153-0.001-0.229,0
			c-4.418,0.057-7.954,3.686-7.896,8.104c0,0.007,0,0.014,0,0.021v8.896l-9.229-5.271c-1.152-0.679-2.455-1.059-3.792-1.104
			c-4.416-0.154-8.121,3.301-8.274,7.717c-0.105,3.011,1.491,5.826,4.129,7.283l6.792,3.896l-6.396,3.188
			c-3.944,1.996-5.523,6.811-3.527,10.755c1.984,3.92,6.757,5.507,10.693,3.557l15.938-7.958l38.875,22.208l-38.875,22.229
			l-15.938-7.979c-1.189-0.617-2.515-0.925-3.854-0.896c-4.418,0.087-7.929,3.739-7.842,8.157c0.059,3.016,1.811,5.743,4.529,7.052
			l6.396,3.208l-6.792,3.875c-3.837,2.192-5.171,7.079-2.979,10.917c2.192,3.837,7.079,5.171,10.917,2.979l9.229-5.271v8.917
			c-0.062,4.418,3.469,8.051,7.887,8.113c4.418,0.063,8.051-3.469,8.113-7.887c0.001-0.075,0.001-0.151,0-0.226v-18.063
			l37.333-21.333v45.271l-16.771,8.396c-4.028,1.816-5.822,6.553-4.007,10.582c1.816,4.029,6.553,5.822,10.582,4.007
			c0.201-0.091,0.399-0.19,0.592-0.297l9.604-4.792v8.229c-0.062,4.418,3.469,8.051,7.887,8.113
			c4.418,0.063,8.051-3.469,8.113-7.887c0.001-0.075,0.001-0.151,0-0.226v-8.229l9.625,4.792c3.865,2.142,8.734,0.746,10.877-3.118
			c2.142-3.865,0.746-8.734-3.118-10.877c-0.193-0.107-0.391-0.206-0.592-0.297l-16.792-8.396v-45.292l37.354,21.354v18.063
			c-0.062,4.418,3.469,8.051,7.887,8.113c4.418,0.063,8.051-3.469,8.113-7.887c0.001-0.075,0.001-0.151,0-0.226v-8.917l9.229,5.271
			c3.837,2.192,8.725,0.858,10.917-2.979c2.192-3.837,0.858-8.725-2.979-10.917l-6.792-3.875l6.396-3.208
			c3.981-1.918,5.653-6.7,3.735-10.681c-1.345-2.791-4.179-4.554-7.277-4.528c-1.262,0.009-2.504,0.316-3.625,0.896l-15.938,7.979
			l-38.896-22.229l38.896-22.208l15.938,7.958c3.961,1.962,8.762,0.342,10.724-3.619c1.95-3.937,0.362-8.709-3.557-10.693
			l-6.417-3.188l6.813-3.896c3.868-2.136,5.273-7.003,3.137-10.871c-1.359-2.462-3.91-4.029-6.721-4.129
			c-1.527-0.055-3.038,0.328-4.354,1.104l-9.25,5.292v-8.917c0.069-4.418-3.457-8.056-7.875-8.125c-0.076-0.001-0.153-0.001-0.229,0
			c-4.418,0.057-7.954,3.686-7.896,8.104c0,0.007,0,0.014,0,0.021v18.063l-37.333,21.333v-45.271l16.792-8.396
			c3.944-1.996,5.523-6.811,3.527-10.755c-1.984-3.92-6.757-5.508-10.693-3.557l-9.625,4.813v-8.229
			c0.069-4.418-3.457-8.056-7.875-8.125C189.346,1206.996,189.27,1206.996,189.193,1206.997z"/>
		<path style="fill:#3B322E;" d="M231.63,1004.369c-2.918,0.137-5.529,1.855-6.812,4.479l-10.667,21.208
			c-1.13,2.255-1.13,4.911,0,7.166l19.541,39.084l-8.875,17.604c-2.004,3.939-0.434,8.758,3.505,10.762
			c3.94,2.004,8.758,0.434,10.762-3.505c0.008-0.016,0.016-0.032,0.024-0.048l10.667-21.188c1.137-2.261,1.137-4.927,0-7.188
			l-19.541-39.083l8.854-17.604c2.041-3.919,0.519-8.751-3.4-10.792c-1.257-0.655-2.664-0.964-4.079-0.896H231.63z"/>
		<path style="fill:#3B322E;" d="M146.297,1004.369c-2.918,0.137-5.529,1.855-6.812,4.479l-10.667,21.208
			c-1.13,2.255-1.13,4.911,0,7.166l19.541,39.084l-8.875,17.604c-2.003,3.94-0.433,8.758,3.507,10.761s8.758,0.433,10.761-3.507
			c0.008-0.015,0.015-0.031,0.023-0.046l10.667-21.188c1.137-2.261,1.137-4.927,0-7.188l-19.541-39.083l8.854-17.604
			c2.041-3.919,0.519-8.751-3.4-10.792c-1.257-0.655-2.664-0.964-4.079-0.896H146.297z"/>
	</g>
	<path style="fill:#785F86;" d="M317.298,1158.982v192.25l-60.271,90.417h13.333l60.271-90.417v-192.249L317.298,1158.982
		L317.298,1158.982z"/>
</g>
<g>
</g>
<g>
</g>
<g>
</g>
<g>
</g>
<g>
</g>
<g>
</g>
<g>
</g>
<g>
</g>
<g>
</g>
<g>
</g>
<g>
</g>
<g>
</g>
<g>
</g>
<g>
</g>
<g>
</g>
</svg>
