<?xml version="1.0" encoding="iso-8859-1"?>
<!-- Generator: Adobe Illustrator 19.0.0, SVG Export Plug-In . SVG Version: 6.00 Build 0)  -->
<svg version="1.1" id="Layer_1" xmlns="http://www.w3.org/2000/svg" xmlns:xlink="http://www.w3.org/1999/xlink" x="0px" y="0px"
	 viewBox="0 0 442.667 442.667" style="enable-background:new 0 0 442.667 442.667;" xml:space="preserve">
<g transform="translate(0 -1004.36)" shape-rendering="auto" image-rendering="auto" color-rendering="auto" color-interpolation="sRGB">
	<path style="fill:#3B322E;" d="M50.667,1004.36C22.735,1004.36,0,1027.096,0,1055.027v341.333
		c0,27.931,22.735,50.667,50.667,50.667H392c27.931,0,50.667-22.736,50.667-50.667v-341.333c0-27.931-22.736-50.667-50.667-50.667
		H50.667z"/>
	<path style="fill:#36D7B7;" d="M50.667,1020.36H392c19.343,0,34.667,15.323,34.667,34.667v66.667H16v-66.667
		C16,1035.683,31.323,1020.36,50.667,1020.36z"/>
	<path style="fill:#FCD116;" d="M16,1137.693h410.667v258.667c0,19.344-15.324,34.667-34.667,34.667H50.667
		c-19.344,0-34.667-15.323-34.667-34.667V1137.693z"/>
	<g>
		<path style="fill:#3B322E;" d="M152,1196.351c-16.858,0-31.182,11.296-40.791,27.313C101.598,1239.679,96,1260.962,96,1284.351
			c0,23.389,5.598,44.651,15.209,60.667c9.61,16.017,23.934,27.333,40.791,27.333s31.202-11.316,40.812-27.333
			c9.611-16.016,15.188-37.277,15.188-60.667c0-23.389-5.578-44.671-15.188-60.688C183.202,1207.646,168.858,1196.351,152,1196.351z
			 M152,1212.351c9.651,0,19.321,6.604,27.083,19.542c7.763,12.939,12.917,31.664,12.917,52.458c0,20.794-5.154,39.5-12.917,52.438
			c-7.762,12.938-17.431,19.563-27.083,19.563c-9.652,0-19.3-6.625-27.062-19.563c-7.763-12.938-12.938-31.643-12.938-52.438
			c0-20.794,5.174-39.52,12.938-52.458C132.7,1218.955,142.348,1212.351,152,1212.351z"/>
		<g>
			<path style="fill:#3B322E;" d="M253.5,1356.351c-4.418-0.063-8.051,3.469-8.113,7.887c-0.062,4.418,3.469,8.051,7.887,8.113
				c0.075,0.001,0.151,0.001,0.226,0h85.021c4.418,0.063,8.051-3.469,8.113-7.887c0.063-4.418-3.469-8.051-7.887-8.113
				c-0.075-0.001-0.151-0.001-0.226,0H253.5L253.5,1356.351z"/>
			<path style="fill:#3B322E;" d="M295.771,1196.351c-2.037,0.06-3.974,0.895-5.417,2.333l-42.563,42.625
				c-3.183,3.065-3.28,8.129-0.215,11.313c3.064,3.184,8.129,3.28,11.313,0.216c0.073-0.072,0.145-0.143,0.216-0.216L288,1223.684
				v140.5c-0.062,4.418,3.469,8.051,7.887,8.113s8.051-3.469,8.113-7.887c0.001-0.076,0.001-0.151,0-0.227v-159.833
				c0.001-4.419-3.58-8.001-7.998-8.004C295.925,1196.347,295.848,1196.348,295.771,1196.351L295.771,1196.351z"/>
		</g>
	</g>
	<path style="fill:#37B89E;" d="M368.667,1020.36c19.343,0,34.667,15.323,34.667,34.667v66.667h23.333v-66.667
		c0-19.344-15.324-34.667-34.667-34.667H368.667z"/>
	<path style="fill:#D6B31E;" d="M403.333,1137.693v258.667c0,19.344-15.324,34.667-34.667,34.667H392
		c19.343,0,34.667-15.323,34.667-34.667v-258.667H403.333z"/>
</g>
<g>
</g>
<g>
</g>
<g>
</g>
<g>
</g>
<g>
</g>
<g>
</g>
<g>
</g>
<g>
</g>
<g>
</g>
<g>
</g>
<g>
</g>
<g>
</g>
<g>
</g>
<g>
</g>
<g>
</g>
</svg>
