<?xml version="1.0" encoding="iso-8859-1"?>
<!-- Generator: Adobe Illustrator 19.0.0, SVG Export Plug-In . SVG Version: 6.00 Build 0)  -->
<svg version="1.1" id="Layer_1" xmlns="http://www.w3.org/2000/svg" xmlns:xlink="http://www.w3.org/1999/xlink" x="0px" y="0px"
	 viewBox="0 0 464 464" style="enable-background:new 0 0 464 464;" xml:space="preserve">
<g>
	<g>
		<path style="fill:#B5AFAF;" d="M331.034,416.414C326.5,411.867,324,405.836,324,399.43V132c0-72.781-59.215-132-132-132
			s-132,59.219-132,132v48.868h32V132c0-55.141,44.859-100,100-100s100,44.859,100,100v267.43c0,14.953,5.824,29.016,16.402,39.602
			l20.285,20.281l22.625-22.625L331.034,416.414z"/>
		<path style="fill:#B5AFAF;" d="M191.999,64c-37.496,0-68,30.508-68,68v48.868h32V132c0-19.852,16.148-36,36-36s36,16.148,36,36
			v14.734c0,12.5-6.637,24.289-17.316,30.773l-8.723,5.296c0.013,0.023,0.03,0.043,0.043,0.066l15.965,27.653l9.324-5.663
			C247.468,192.609,260,170.336,260,146.734V132C260,94.508,229.495,64,191.999,64z"/>
	</g>
	<g>
		<g>
			<path style="fill:#D0CBCC;" d="M201.464,231.32l-24-41.569l23.075-13.322c3.826-2.209,8.719-0.898,10.928,2.928l16,27.713
				c2.209,3.826,0.898,8.719-2.928,10.928L201.464,231.32z"/>
		</g>
	</g>
	<path style="fill:#B5AFAF;" d="M214.365,238.567c-8.222-22.924-18.806-44.955-30.971-60.86c-1.414-1.848-2.949-3.571-4.582-5.178
		c-2.9-2.853-7.524-3.012-10.678-0.443l41.374,76.641C213.634,247.242,215.846,242.695,214.365,238.567z"/>
	<g>
		<g>
			<path style="fill:#C8C3C4;" d="M123.999,456h72c17.673,0,32-14.327,32-32v-96c0-36.697-20.209-109.475-49.231-147.418
				C168.814,167.567,153.339,160,136.953,160h-54.87c-12.482,0-22.881,9.568-23.917,22.007L43.999,352L123.999,456z"/>
		</g>
	</g>
	<g>
		<g>
			<path style="fill:#B5AFAF;" d="M123.999,416v40h72c17.673,0,32-14.327,32-32v-8H123.999z"/>
		</g>
	</g>
	<g>
		<g>
			<path style="fill:#5F6473;" d="M75.999,335.333l7.5-111.868c0.282-4.201,3.772-7.465,7.982-7.465h31.287
				c5.972,0,11.4,3.314,14.188,8.595c10.708,20.288,35.043,73.072,35.043,167.405L75.999,335.333z"/>
		</g>
	</g>
	<g>
		<g>
			<circle style="fill:#D0CBCC;" cx="99.999" cy="391.868" r="60"/>
		</g>
	</g>
	<g>
		<g>
			<g>
				<path style="fill:#4D5263;" d="M99.999,464c-39.702,0-72-32.302-72-72s32.298-72,72-72s72,32.302,72,72S139.701,464,99.999,464z
					 M99.999,344c-26.467,0-48,21.533-48,48s21.533,48,48,48s48-21.533,48-48S126.466,344,99.999,344z"/>
			</g>
		</g>
	</g>
	<g>
		<g>
			<path style="fill:#64AFF0;" d="M136.953,160h-12.954v11.046c0,7.154,5.8,12.954,12.954,12.954l0,0
				c8.901,0,17.406,4.173,22.753,11.163c24.535,32.077,44.293,98.899,44.293,132.837v35.046c0,7.154,5.8,12.954,12.954,12.954
				h11.046v-48c0-36.697-20.208-109.475-49.23-147.418C168.814,167.567,153.339,160,136.953,160z"/>
		</g>
	</g>
	<g>
		<g>
			<circle style="fill:#4D5263;" cx="115.999" cy="264" r="16"/>
		</g>
	</g>
	<g>
		<g>
			<path style="fill:#5F6473;" d="M324,399.43V376h-32v23.43c0,14.953,5.824,29.016,16.402,39.602l20.285,20.281l22.625-22.625
				l-20.277-20.273C326.5,411.867,324,405.836,324,399.43z"/>
		</g>
	</g>
	<g>
		<g>
			<path style="fill:#D0CBCC;" d="M428,464H326.138c-4.177,0-6.561-4.768-4.055-8.11l13.625-18.167
				c2.671-3.561,6.985-5.498,11.421-5.129l81.536,6.795c4.146,0.346,7.336,3.812,7.336,7.972V456C436,460.418,432.417,464,428,464z"
				/>
		</g>
	</g>
	<g>
		<g>
			<path style="fill:#4D5263;" d="M324,384h-32c-4.418,0-8-3.582-8-8l0,0c0-4.418,3.582-8,8-8h32c4.418,0,8,3.582,8,8l0,0
				C332,380.418,328.417,384,324,384z"/>
		</g>
	</g>
	<g>
		<g>
			<path style="fill:#D0CBCC;" d="M324,152h-32c-4.418,0-8-3.582-8-8v-8c0-4.418,3.582-8,8-8h32c4.418,0,8,3.582,8,8v8
				C332,148.418,328.417,152,324,152z"/>
		</g>
	</g>
</g>
<g>
</g>
<g>
</g>
<g>
</g>
<g>
</g>
<g>
</g>
<g>
</g>
<g>
</g>
<g>
</g>
<g>
</g>
<g>
</g>
<g>
</g>
<g>
</g>
<g>
</g>
<g>
</g>
<g>
</g>
</svg>
