<?xml version="1.0" encoding="iso-8859-1"?>
<!-- Generator: Adobe Illustrator 19.0.0, SVG Export Plug-In . SVG Version: 6.00 Build 0)  -->
<svg version="1.1" id="Layer_1" xmlns="http://www.w3.org/2000/svg" xmlns:xlink="http://www.w3.org/1999/xlink" x="0px" y="0px"
	 viewBox="0 0 503.467 503.467" style="enable-background:new 0 0 503.467 503.467;" xml:space="preserve">
<g transform="translate(11 1)">
	<path style="fill:#F2EDDA;" d="M402.867,88.6v375.467c0,18.773-15.36,34.133-34.133,34.133h-256
		c-18.773,0-34.133-15.36-34.133-34.133V88.6c0-18.773,15.36-34.133,34.133-34.133h34.133H334.6h34.133
		C387.507,54.467,402.867,69.827,402.867,88.6L402.867,88.6z"/>
	<path style="fill:#FFD0A1;" d="M334.6,20.333v34.133H146.867V20.333c0-9.387,7.68-17.067,17.067-17.067h153.6
		C326.92,3.267,334.6,10.947,334.6,20.333"/>
	<polygon style="fill:#AAB1BA;" points="300.467,191 215.133,293.4 232.2,225.133 181,225.133 266.333,105.667 249.267,191 	"/>
</g>
<path style="fill:#51565F;" d="M379.733,503.467h-256c-21.333,0-38.4-17.067-38.4-38.4V89.6c0-21.333,17.067-38.4,38.4-38.4H153.6
	V21.333C153.6,9.387,162.987,0,174.933,0h153.6c11.947,0,21.333,9.387,21.333,21.333c0,2.56-1.707,4.267-4.267,4.267
	s-4.267-1.707-4.267-4.267c0-6.827-5.973-12.8-12.8-12.8h-153.6c-6.827,0-12.8,5.973-12.8,12.8v34.133
	c0,2.56-1.707,4.267-4.267,4.267h-34.133c-16.213,0-29.867,13.653-29.867,29.867v375.467c0,16.213,13.653,29.867,29.867,29.867h256
	c16.213,0,29.867-13.653,29.867-29.867V89.6c0-16.213-13.653-29.867-29.867-29.867H192c-2.56,0-4.267-1.707-4.267-4.267
	c0-2.56,1.707-4.267,4.267-4.267h187.733c21.333,0,38.4,17.067,38.4,38.4v375.467C418.133,486.4,401.067,503.467,379.733,503.467z
	 M362.667,452.267H140.8c-2.56,0-4.267-1.707-4.267-4.267c0-2.56,1.707-4.267,4.267-4.267h221.867c2.56,0,4.267,1.707,4.267,4.267
	C366.933,450.56,365.227,452.267,362.667,452.267z M362.667,401.067H140.8c-2.56,0-4.267-1.707-4.267-4.267s1.707-4.267,4.267-4.267
	h221.867c2.56,0,4.267,1.707,4.267,4.267S365.227,401.067,362.667,401.067z M362.667,349.867H140.8c-2.56,0-4.267-1.707-4.267-4.267
	c0-2.56,1.707-4.267,4.267-4.267h221.867c2.56,0,4.267,1.707,4.267,4.267C366.933,348.16,365.227,349.867,362.667,349.867z
	 M226.133,298.667c-0.853,0-1.707,0-1.707-0.853c-1.707-0.853-2.56-2.56-2.56-5.12l15.36-63.147h-46.08
	c-1.707,0-3.413-0.853-3.413-2.56c-0.853-1.707-0.853-3.413,0-4.267l85.333-119.467c0.853-1.707,3.413-2.56,5.12-1.707
	c1.707,0.853,2.56,2.56,2.56,5.12l-16.213,80.213h46.08c1.707,0,3.413,0.853,4.267,2.56c0.853,1.707,0.853,3.413-0.853,4.267
	l-85.333,102.4C228.693,297.813,226.987,298.667,226.133,298.667z M200.533,221.867H243.2c1.707,0,2.56,0.853,3.413,1.707
	c0.853,0.853,0.853,2.56,0.853,3.413l-12.8,50.347l67.413-81.067h-41.813c-0.853,0-2.56-0.853-3.413-1.707
	C256,193.707,256,192,256,191.147l12.8-65.707L200.533,221.867z"/>
<g>
</g>
<g>
</g>
<g>
</g>
<g>
</g>
<g>
</g>
<g>
</g>
<g>
</g>
<g>
</g>
<g>
</g>
<g>
</g>
<g>
</g>
<g>
</g>
<g>
</g>
<g>
</g>
<g>
</g>
</svg>
