<?xml version="1.0" encoding="iso-8859-1"?>
<!-- Generator: Adobe Illustrator 19.0.0, SVG Export Plug-In . SVG Version: 6.00 Build 0)  -->
<svg version="1.1" id="Layer_1" xmlns="http://www.w3.org/2000/svg" xmlns:xlink="http://www.w3.org/1999/xlink" x="0px" y="0px"
	 viewBox="0 0 512 512" style="enable-background:new 0 0 512 512;" xml:space="preserve">
<g transform="translate(0 -1)">
	<g>
		<g>
			<path d="M366.903,43.669c4.71,0,8.533-3.823,8.533-8.533c0-9.412,7.654-17.067,17.067-17.067c4.71,0,8.533-3.823,8.533-8.533
				c0-4.71-3.823-8.533-8.533-8.533c-18.825,0-34.133,15.309-34.133,34.133C358.37,39.846,362.193,43.669,366.903,43.669z"/>
			<path d="M495.859,259.714c4.48-5.837,7.023-12.689,7.509-19.78H409.57c-4.71,0-8.533-3.814-8.533-8.533
				c0-4.71,3.823-8.533,8.533-8.533h91.324l-4.557-17.067H366.903c-4.71,0-8.533-3.814-8.533-8.533c0-4.71,3.823-8.533,8.533-8.533
				h124.885l-9.173-34.389C478.639,139.428,465.079,129,449.634,129h-48.597V99.278c0-4.727,2.628-8.977,7.322-11.324
				c6.008-3.012,9.745-9.054,9.745-15.77V69.83c0-8.764-6.451-16-14.848-17.348c2.918-5.231,8.448-8.815,14.848-8.815
				c18.825,0,34.133-15.309,34.133-34.133c0-4.71-3.823-8.533-8.533-8.533s-8.533,3.823-8.533,8.533
				c0,9.412-7.654,17.067-17.067,17.067c-15.855,0-29.107,10.923-32.922,25.6h-33.937c-10.189,0-18.475,8.294-18.475,18.475v0.99
				c0,7.04,3.908,13.372,10.214,16.521c4.224,2.116,6.852,6.366,6.852,11.093V129H62.306c-15.445,0-29.005,10.428-32.981,25.344
				l-2.347,8.789h66.859c4.71,0,8.533,3.823,8.533,8.533c0,4.719-3.823,8.533-8.533,8.533H22.43l-4.557,17.067H127.97
				c4.71,0,8.533,3.823,8.533,8.533c0,4.719-3.823,8.533-8.533,8.533H13.325l-3.413,12.8c-3.012,11.298-0.648,23.083,6.468,32.35
				c2.586,3.362,5.658,6.187,9.079,8.448c-5.18,5.768-8.422,13.303-8.422,21.649v11.648c0,9.557,4.207,18.074,10.786,24.038
				c-6.579,5.965-10.786,14.49-10.786,24.047v11.648c0,9.557,4.207,18.074,10.786,24.038c-6.579,5.965-10.786,14.49-10.786,24.047
				v11.648c0,9.557,4.207,18.074,10.786,24.038c-6.579,5.965-10.786,14.49-10.786,24.047v11.648
				c0,17.963,14.609,32.572,32.572,32.572H281.57h102.4h78.362c17.963,0,32.572-14.609,32.572-32.572V468.78
				c0-9.557-4.207-18.082-10.786-24.047c6.579-5.965,10.786-14.481,10.786-24.038v-11.648c0-9.557-4.207-18.082-10.786-24.047
				c6.579-5.965,10.786-14.481,10.786-24.038v-11.648c0-9.557-4.207-18.082-10.786-24.047c6.579-5.965,10.786-14.481,10.786-24.038
				V289.58c0-8.226-3.157-15.659-8.201-21.393C490.159,265.943,493.257,263.101,495.859,259.714z M349.837,70.675
				c0-0.768,0.631-1.408,1.408-1.408l49.792,0.563v2.355l-0.777,0.734c-10.052,5.026-16.29,15.13-16.29,26.359V129h-17.067V99.278
				c0-11.23-6.238-21.333-16.29-26.359c-0.478-0.239-0.776-0.717-0.776-1.254V70.675z M34.103,349.314
				c0-8.55,6.955-15.514,15.505-15.514h1.562v42.667h-1.562c-8.55,0-15.505-6.955-15.505-15.505V349.314z M273.037,495.933H49.608
				c-8.55,0-15.505-6.955-15.505-15.505V468.78c0-8.55,6.955-15.514,15.505-15.514h223.428V495.933z M273.037,436.2H49.608
				c-8.55,0-15.505-6.955-15.505-15.505v-11.648c0-8.55,6.955-15.514,15.505-15.514h1.562v25.6c0,4.719,3.823,8.533,8.533,8.533
				h59.733h68.267h59.733c4.71,0,8.533-3.814,8.533-8.533v-25.6h17.067V436.2z M214.413,359.4
				c-18.637,10.342-31.889,29.167-34.654,51.2h-52.378c-2.765-22.033-16.017-40.858-34.654-51.2
				c18.637-10.334,31.889-29.158,34.654-51.2h52.378C182.524,330.242,195.776,349.066,214.413,359.4z M196.945,308.2h41.958v17.067
				v24.892C217.493,346.557,200.555,329.61,196.945,308.2z M238.903,368.65V385v25.6h-41.958
				C200.555,389.198,217.493,372.251,238.903,368.65z M68.237,350.158v-24.892V308.2h41.958
				C106.586,329.61,89.647,346.557,68.237,350.158z M110.195,410.6H68.237V385v-16.35C89.647,372.251,106.586,389.198,110.195,410.6
				z M358.37,419.133h-8.533c-4.71,0-8.533-3.814-8.533-8.533c0-4.71,3.823-8.533,8.533-8.533h8.533c4.71,0,8.533,3.823,8.533,8.533
				C366.903,415.319,363.081,419.133,358.37,419.133z M332.77,385c-18.825,0-34.133-15.309-34.133-34.133
				c0-18.816,15.309-34.133,34.133-34.133s34.133,15.317,34.133,34.133C366.903,369.691,351.595,385,332.77,385z M477.837,480.428
				c0,8.55-6.955,15.505-15.505,15.505h-69.828v-42.667h69.828c8.55,0,15.505,6.963,15.505,15.514V480.428z M477.837,420.695
				c0,8.55-6.955,15.505-15.505,15.505h-69.828v-42.667h69.828c8.55,0,15.505,6.963,15.505,15.514V420.695z M477.837,360.962
				c0,8.55-6.955,15.505-15.505,15.505h-69.828V333.8h69.828c8.55,0,15.505,6.963,15.505,15.514V360.962z M477.837,301.228
				c0,8.55-6.955,15.505-15.505,15.505h-69.828v-17.067c0-4.71-3.823-8.533-8.533-8.533h-102.4c-4.71,0-8.533,3.823-8.533,8.533
				v17.067H255.97v-17.067c0-4.71-3.823-8.533-8.533-8.533h-59.733h-68.267H59.703c-4.71,0-8.533,3.823-8.533,8.533v17.067h-1.562
				c-8.55,0-15.505-6.955-15.505-15.505V289.58c0-8.55,6.955-15.514,15.505-15.514h412.723c8.55,0,15.505,6.963,15.505,15.514
				V301.228z"/>
			<path d="M332.77,333.803c-9.412,0-17.067,7.654-17.067,17.067c0,9.412,7.654,17.067,17.067,17.067s17.067-7.654,17.067-17.067
				C349.837,341.457,342.182,333.803,332.77,333.803z"/>
		</g>
	</g>
</g>
<g>
</g>
<g>
</g>
<g>
</g>
<g>
</g>
<g>
</g>
<g>
</g>
<g>
</g>
<g>
</g>
<g>
</g>
<g>
</g>
<g>
</g>
<g>
</g>
<g>
</g>
<g>
</g>
<g>
</g>
</svg>
