<?xml version="1.0" encoding="iso-8859-1"?>
<!-- Generator: Adobe Illustrator 19.0.0, SVG Export Plug-In . SVG Version: 6.00 Build 0)  -->
<svg version="1.1" id="Layer_1" xmlns="http://www.w3.org/2000/svg" xmlns:xlink="http://www.w3.org/1999/xlink" x="0px" y="0px"
	 viewBox="0 0 512 512" style="enable-background:new 0 0 512 512;" xml:space="preserve">
<g>
	<g>
		<path d="M498.586,72.38c-0.026-0.026-0.034-0.06-0.06-0.077c-0.469-0.461-1.024-0.776-1.51-1.212
			c-1.596-1.425-3.2-2.825-4.992-4.002c-1.007-0.674-2.108-1.143-3.166-1.724c-1.417-0.777-2.782-1.63-4.292-2.253
			c-1.519-0.631-3.123-1.007-4.71-1.468c-1.161-0.333-2.27-0.794-3.465-1.033c-2.85-0.572-5.76-0.879-8.713-0.879H44.331
			c-2.953,0-5.862,0.307-8.704,0.879c-1.246,0.247-2.389,0.725-3.593,1.075c-1.536,0.444-3.098,0.811-4.582,1.425
			c-1.562,0.64-2.987,1.519-4.463,2.338c-0.99,0.555-2.031,0.99-2.987,1.621c-1.818,1.203-3.448,2.62-5.06,4.062
			c-0.469,0.41-1.007,0.717-1.451,1.161c-0.026,0.017-0.034,0.051-0.06,0.077C5.171,80.427,0,91.639,0,104.055v303.889
			c0,12.663,5.41,24.03,13.952,32.111c0.034,0.034,0.043,0.077,0.077,0.111c0.316,0.29,0.683,0.495,0.998,0.777
			c1.724,1.527,3.499,2.987,5.436,4.232c0.623,0.401,1.297,0.683,1.929,1.05c1.758,1.007,3.507,2.005,5.402,2.773
			c1.152,0.469,2.364,0.734,3.55,1.101c1.476,0.452,2.901,0.998,4.437,1.306c2.799,0.555,5.658,0.862,8.55,0.862h423.347
			c2.893,0,5.751-0.307,8.55-0.862c1.519-0.299,2.935-0.845,4.386-1.289c1.212-0.375,2.44-0.648,3.61-1.126
			c1.86-0.751,3.584-1.732,5.308-2.722c0.666-0.384,1.374-0.683,2.022-1.101c1.929-1.237,3.678-2.68,5.385-4.19
			c0.333-0.299,0.717-0.503,1.041-0.811c0.034-0.034,0.043-0.077,0.077-0.111c8.542-8.09,13.943-19.447,13.943-32.111V104.055
			C512,91.639,506.837,80.435,498.586,72.38z M33.203,79.232c1.34-0.614,2.756-1.041,4.181-1.425
			c0.418-0.111,0.811-0.29,1.237-0.384c1.86-0.401,3.772-0.623,5.709-0.623h423.347c1.937,0,3.84,0.222,5.7,0.623
			c0.486,0.102,0.93,0.307,1.408,0.435c1.357,0.367,2.697,0.777,3.977,1.348c0.094,0.043,0.179,0.111,0.273,0.154l-93.175,86.75
			c-2.193-2.057-4.796-4.011-7.757-5.76c-0.111-0.068-0.222-0.136-0.341-0.205c-3.226-1.869-6.929-3.456-11.17-4.599
			c-0.282-0.077-0.563-0.145-0.845-0.222c-1.647-0.418-3.362-0.759-5.163-1.024c-0.427-0.068-0.836-0.145-1.271-0.196
			c-2.057-0.265-4.181-0.452-6.451-0.495c-0.239,0-0.469-0.008-0.7-0.008h-0.009c-27.827,0-51.499,31.497-65.698,50.381
			c-0.418,0.572-0.759,1.007-1.152,1.536c-0.068-0.043-0.128-0.068-0.196-0.111c-1.86-1.297-3.823-2.449-5.854-3.49
			c-0.503-0.256-1.024-0.495-1.536-0.742c-1.835-0.862-3.721-1.638-5.666-2.287c-0.265-0.085-0.512-0.196-0.777-0.282
			c-2.116-0.666-4.309-1.143-6.536-1.527c-0.589-0.102-1.178-0.188-1.775-0.273c-2.287-0.316-4.591-0.529-6.963-0.529
			c-2.364,0-4.676,0.213-6.955,0.529c-0.597,0.085-1.186,0.171-1.775,0.273c-2.227,0.384-4.42,0.862-6.545,1.527
			c-0.256,0.085-0.503,0.196-0.768,0.282c-1.946,0.649-3.84,1.425-5.683,2.295c-0.503,0.239-1.015,0.469-1.519,0.734
			c-2.039,1.041-4.011,2.202-5.879,3.507c-0.06,0.034-0.119,0.06-0.171,0.094c-0.401-0.529-0.734-0.964-1.161-1.536
			c-14.199-18.884-37.862-50.381-65.698-50.381c-0.23,0-0.469,0.008-0.7,0.008c-2.27,0.043-4.395,0.23-6.451,0.486
			c-0.435,0.06-0.862,0.145-1.289,0.205c-1.792,0.273-3.499,0.606-5.129,1.024c-0.299,0.068-0.589,0.145-0.887,0.222
			c-4.215,1.143-7.91,2.722-11.127,4.591c-0.137,0.077-0.265,0.154-0.393,0.23c-2.944,1.749-5.538,3.695-7.731,5.743L32.964,79.36
			C33.05,79.326,33.118,79.266,33.203,79.232z M337.92,266.249c3.772,2.825,4.531,8.175,1.707,11.947
			c-1.672,2.236-4.241,3.413-6.835,3.413c-1.775,0-3.575-0.555-5.111-1.707l-22.818-17.118c1.519-4.838,2.338-9.975,2.338-15.309
			s-0.819-10.47-2.338-15.309l22.818-17.118c3.78-2.825,9.122-2.074,11.947,1.707c2.825,3.772,2.065,9.122-1.707,11.947
			l-25.028,18.773L337.92,266.249z M174.08,228.702c-3.772-2.825-4.531-8.175-1.707-11.947c2.833-3.78,8.175-4.531,11.947-1.707
			l22.827,17.118c-1.519,4.838-2.347,9.975-2.347,15.309s0.828,10.47,2.347,15.309l-22.827,17.118
			c-1.536,1.152-3.328,1.707-5.111,1.707c-2.594,0-5.154-1.178-6.835-3.413c-2.825-3.772-2.065-9.122,1.707-11.947l25.037-18.773
			L174.08,228.702z M194.654,322.893c0.034-0.026,0.068-0.043,0.102-0.068c1.519-0.939,3.021-1.929,4.506-2.987
			c0.265-0.188,0.546-0.341,0.811-0.538c0.077-0.06,0.137-0.119,0.213-0.179c1.297-0.964,2.577-1.971,3.823-3.029
			c0.734-0.623,1.434-1.271,2.133-1.911c0.435-0.401,0.887-0.768,1.314-1.178c0.401-0.375,0.794-0.751,1.178-1.135
			c0.486-0.486,0.922-0.981,1.391-1.476c0.606-0.64,1.186-1.289,1.775-1.946c0.555-0.631,1.109-1.263,1.638-1.911
			c0.239-0.29,0.495-0.58,0.725-0.879c0.589-0.734,1.126-1.493,1.681-2.253c0.017-0.026,0.043-0.06,0.068-0.094
			c0.205-0.282,0.427-0.555,0.631-0.845c1.186-1.681,2.295-3.422,3.319-5.222c0.35-0.623,0.674-1.254,0.998-1.886
			c1.237-2.347,2.347-4.77,3.268-7.296c0.043-0.128,0.119-0.247,0.171-0.384c5.444,4.292,11.776,7.475,18.671,9.284
			c0.137,0.034,0.265,0.085,0.401,0.119l-27.435,60.365l-7.526-12.561c-1.562-2.603-4.361-4.147-7.322-4.147
			c-0.444,0-0.896,0.034-1.348,0.102l-14.643,2.347L194.654,322.893z M242.91,278.98c-0.333-0.145-0.64-0.333-0.973-0.486
			c-1.34-0.614-2.611-1.323-3.857-2.099c-0.742-0.469-1.476-0.947-2.185-1.476c-0.597-0.435-1.135-0.93-1.707-1.408
			c-2.961-2.534-5.564-5.555-7.62-9.114c-1.289-2.236-2.253-4.54-3.012-6.861c-0.205-0.666-0.452-1.306-0.623-1.988
			c-0.205-0.785-0.35-1.587-0.486-2.381c-0.316-1.86-0.58-3.746-0.58-5.692c0-2.295,0.247-4.523,0.674-6.69
			c0.23-1.109,0.64-2.159,0.973-3.234c0.307-1.016,0.546-2.065,0.947-3.038c0.597-1.442,1.391-2.807,2.185-4.164
			c0.299-0.512,0.529-1.067,0.853-1.57c1.075-1.63,2.338-3.157,3.703-4.617c0.154-0.162,0.265-0.35,0.418-0.503
			c4.864-4.966,10.931-8.277,17.536-9.626c2.219-0.452,4.506-0.691,6.844-0.691c2.347,0,4.634,0.239,6.844,0.691
			c6.605,1.348,12.672,4.659,17.536,9.626c0.154,0.154,0.265,0.341,0.418,0.503c1.365,1.459,2.628,2.987,3.703,4.617
			c0.333,0.503,0.555,1.058,0.853,1.57c0.802,1.357,1.596,2.722,2.193,4.164c0.401,0.973,0.631,2.022,0.947,3.038
			c0.324,1.075,0.742,2.125,0.964,3.234c0.435,2.167,0.674,4.395,0.674,6.69c0,1.946-0.256,3.831-0.572,5.692
			c-0.145,0.794-0.29,1.596-0.495,2.381c-0.171,0.683-0.41,1.323-0.614,1.988c-0.768,2.321-1.732,4.625-3.021,6.861
			c-2.048,3.558-4.659,6.579-7.62,9.114c-0.563,0.478-1.109,0.973-1.707,1.408c-0.708,0.529-1.442,1.007-2.185,1.476
			c-1.237,0.776-2.517,1.485-3.857,2.099c-0.324,0.154-0.64,0.341-0.973,0.486c-1.766,0.734-3.627,1.289-5.53,1.715
			c-0.478,0.111-0.964,0.205-1.451,0.299c-1.988,0.358-4.019,0.614-6.11,0.614c-2.091,0-4.122-0.256-6.11-0.614
			c-0.486-0.094-0.964-0.188-1.451-0.299C246.545,280.269,244.685,279.714,242.91,278.98z M268.425,297.088
			c7.091-1.783,13.602-5.018,19.183-9.412c0.043,0.12,0.111,0.23,0.154,0.35c0.922,2.526,2.022,4.949,3.26,7.296
			c0.119,0.23,0.196,0.478,0.316,0.708c0.222,0.41,0.478,0.811,0.708,1.22c1.178,2.065,2.483,4.053,3.874,5.973
			c0.205,0.273,0.367,0.563,0.572,0.845c0.41,0.546,0.836,1.084,1.271,1.621c1.408,1.775,2.918,3.447,4.48,5.069
			c0.239,0.247,0.461,0.503,0.7,0.751c0.538,0.538,1.075,1.084,1.63,1.604c1.784,1.698,3.661,3.268,5.572,4.77
			c0.026,0.017,0.043,0.043,0.068,0.06l11.767,25.242l-14.643-2.347c-3.439-0.572-6.878,1.05-8.67,4.045l-7.014,11.716
			l-23.654-59.383C268.143,297.182,268.279,297.122,268.425,297.088z M20.958,421.751c-2.415-4.062-3.891-8.747-3.891-13.807
			V104.055c0-4.719,1.314-9.105,3.439-12.979l95.505,88.909c-4.873,11.554-5.427,37.521-4.873,44.373
			c0.179,2.304,0.247,5.973,0.341,10.564c0.666,33.476,2.739,70.571,19.021,86.852c1.007,1.007,2.193,1.775,3.302,2.645
			L20.958,421.751z M473.011,434.662c-1.724,0.341-3.507,0.538-5.333,0.538H44.331c-1.826,0-3.601-0.196-5.325-0.538
			c-1.741-0.358-3.439-0.879-5.069-1.57l116.898-100.83c0.017,0.009,0.034,0.009,0.051,0.009c1.229,0.247,2.5,0.35,3.763,0.495
			c1.118,0.128,2.227,0.239,3.371,0.29c0.785,0.034,1.527,0.196,2.321,0.196c3.635,0,7.39-0.41,11.196-1.16l-8.602,18.449
			c-1.331,2.867-0.981,6.229,0.922,8.747c1.903,2.526,5.001,3.831,8.158,3.285l24.823-3.968l12.911,21.564
			c1.63,2.714,4.54,4.301,7.808,4.13c3.166-0.171,5.973-2.099,7.279-4.983l30.643-67.405l26.701,67.029
			c1.195,3.021,4.002,5.086,7.245,5.35c0.23,0.017,0.452,0.026,0.683,0.026c2.978,0,5.769-1.562,7.322-4.147l12.911-21.564
			l24.815,3.968c3.166,0.546,6.255-0.759,8.166-3.285c1.894-2.509,2.253-5.879,0.913-8.747l-9.225-19.806
			c5.675,1.647,11.29,2.517,16.649,2.517c0.811,0,1.562-0.162,2.355-0.205c1.126-0.051,2.236-0.162,3.345-0.282
			c1.254-0.145,2.526-0.247,3.746-0.486c0.026-0.008,0.043-0.008,0.068-0.017l116.907,100.83
			C476.442,433.783,474.743,434.304,473.011,434.662z M494.933,407.945c0,5.052-1.476,9.737-3.883,13.798L378.206,324.42
			c1.109-0.87,2.287-1.638,3.294-2.645c16.282-16.282,18.364-53.376,19.029-86.852c0.085-4.591,0.154-8.26,0.341-10.564
			c0.546-6.852-0.009-32.811-4.881-44.365l95.505-88.917c2.125,3.883,3.439,8.26,3.439,12.979V407.945z"/>
	</g>
</g>
<g>
</g>
<g>
</g>
<g>
</g>
<g>
</g>
<g>
</g>
<g>
</g>
<g>
</g>
<g>
</g>
<g>
</g>
<g>
</g>
<g>
</g>
<g>
</g>
<g>
</g>
<g>
</g>
<g>
</g>
</svg>
