<?xml version="1.0" encoding="iso-8859-1"?>
<!-- Generator: Adobe Illustrator 19.0.0, SVG Export Plug-In . SVG Version: 6.00 Build 0)  -->
<svg version="1.1" id="Layer_1" xmlns="http://www.w3.org/2000/svg" xmlns:xlink="http://www.w3.org/1999/xlink" x="0px" y="0px"
	 viewBox="0 0 512.007 512.007" style="enable-background:new 0 0 512.007 512.007;" xml:space="preserve">
<g transform="translate(0 -1)">
	<g>
		<g>
			<path d="M268.804,197.27c4.719,0,8.533-3.814,8.533-8.533c0-4.719-3.814-8.533-8.533-8.533c-11.802,0-17.067-5.299-17.067-17.186
				c0-4.71-3.814-8.533-8.533-8.533c-4.719,0-8.533,3.823-8.533,8.533C234.671,184.47,247.428,197.27,268.804,197.27z"/>
			<path d="M495.08,292.36c-9.463-5.7-15.505-18.739-15.761-34.022c-0.282-16.119,5.854-30.234,16.009-36.847
				c3.166-2.065,4.599-5.965,3.524-9.583c-1.075-3.618-4.403-6.101-8.183-6.101c-34.048,0-59.733-25.685-59.733-59.733
				c0-3.456-2.074-6.571-5.265-7.885c-3.2-1.331-6.861-0.597-9.301,1.852c-11.597,11.597-26.121,17.988-40.9,17.988
				c-14.771,0-29.295-6.391-40.9-17.988c-2.125-2.133-5.214-2.97-8.124-2.244c-2.91,0.734-5.222,2.953-6.084,5.837
				c-0.751,2.517-2.475,7.458-4.727,12.749c-9.694-25.907-34.645-44.442-63.898-44.442c-5.214,0-10.274,0.64-15.155,1.749
				c4.002-17.843,13.321-30.711,13.431-30.848c1.954-2.586,2.278-6.05,0.836-8.943c-1.442-2.901-4.403-4.736-7.646-4.736
				c-34.048,0-59.733-25.634-59.733-59.622c0-3.456-2.074-6.571-5.265-7.885c-3.183-1.323-6.852-0.589-9.301,1.852
				c-11.597,11.597-26.121,17.988-40.9,17.988c-14.771,0-29.295-6.391-40.9-17.988c-2.705-2.714-6.886-3.294-10.232-1.399
				c-3.336,1.877-5.009,5.76-4.079,9.481c3.089,12.493-4.267,22.451-8.934,27.281C53.241,49.86,36.823,55.313,23.101,52.386
				c-3.738-0.811-7.475,0.956-9.267,4.284c-1.801,3.319-1.203,7.432,1.468,10.103C26.737,78.208,33.299,94.66,33.299,111.94
				c0,17.271-6.562,33.732-17.997,45.167c-2.44,2.441-3.174,6.101-1.852,9.293c1.323,3.191,4.437,5.274,7.885,5.274
				c35.2,0,59.733,35.968,59.733,68.267c0,4.71,3.823,8.533,8.533,8.533h9.131c-0.35,2.799-0.597,5.632-0.597,8.533
				c0,14.925,4.873,28.698,13.03,39.945c-14.345,33.519-54.477,36.753-56.235,36.872c-3.345,0.205-6.263,2.364-7.441,5.495
				c-1.186,3.14-0.427,6.682,1.946,9.054c11.605,11.597,17.988,26.121,17.988,40.9c0,14.771-6.383,29.295-17.988,40.9
				c-2.441,2.44-3.174,6.101-1.852,9.293s4.437,5.274,7.885,5.274c34.057,0,59.733,25.677,59.733,59.733
				c0,3.831,2.56,7.185,6.255,8.226c0.759,0.205,1.519,0.307,2.278,0.307c2.935,0,5.734-1.519,7.313-4.13
				c5.811-9.651,16.998-15.539,29.918-15.761c13.38,0.051,25.583,5.743,32.265,16.017c2.048,3.157,5.948,4.565,9.574,3.524
				c3.627-1.075,6.11-4.412,6.11-8.183c0-34.057,25.745-59.733,59.887-59.733c3.456,0,6.571-2.082,7.885-5.274
				c1.323-3.191,0.589-6.852-1.852-9.293c-11.529-11.537-17.792-26.505-17.621-42.163c0.162-15.625,6.682-30.66,18.347-42.334
				c0.008,0,0.008-0.009,0.017-0.017c7.279-5.478,13.432-12.348,18.039-20.258c12.535,10.436,17.152,33.792,17.877,43.187
				c0.256,3.319,2.423,6.187,5.555,7.347c3.098,1.152,6.63,0.393,8.986-1.963c11.435-11.435,27.895-17.997,45.167-17.997
				c17.28,0,33.732,6.562,45.167,17.997c1.638,1.63,3.823,2.5,6.033,2.5c1.101,0,2.21-0.213,3.268-0.657
				c3.191-1.314,5.265-4.429,5.265-7.876c0-34.057,25.685-59.733,59.733-59.733c3.831,0,7.194-2.56,8.226-6.255
				C499.919,298.266,498.366,294.349,495.08,292.36z M201.021,173.534c0.06-0.452,0.137-0.896,0.205-1.348
				c1.886-11.648,7.757-22.332,16.503-30.157c0.034-0.026,0.06-0.051,0.094-0.077c3.524-3.14,7.518-5.803,11.878-7.893
				c6.69-3.209,14.14-5.052,22.033-5.052c28.237,0,51.2,22.963,51.2,51.2c0,2.807-0.282,5.564-0.725,8.269
				c-0.06,0.358-0.102,0.725-0.171,1.084c-0.486,2.594-1.178,5.129-2.039,7.578c-0.128,0.358-0.256,0.717-0.393,1.067
				c-0.93,2.466-2.022,4.847-3.302,7.125c-0.128,0.222-0.273,0.435-0.401,0.657c-2.714,4.625-6.135,8.781-10.121,12.356
				c-0.299,0.265-0.58,0.546-0.879,0.802c-1.903,1.621-3.942,3.089-6.076,4.429c-0.41,0.256-0.819,0.503-1.237,0.751
				c-2.193,1.289-4.48,2.44-6.878,3.396c-0.333,0.128-0.674,0.239-1.007,0.367c-2.577,0.964-5.231,1.775-8.004,2.321v0.009
				c-0.026,0-0.043,0-0.068,0.009c-2.756,0.538-5.547,0.811-8.32,0.896c-0.265,0.009-0.529,0.043-0.794,0.043
				c-2.714,0.043-5.41-0.162-8.081-0.546c-0.367-0.051-0.734-0.102-1.092-0.162c-2.628-0.435-5.222-1.067-7.748-1.903
				c-0.316-0.102-0.623-0.23-0.939-0.341c-2.56-0.905-5.06-1.971-7.441-3.277c-0.964-0.529-1.886-1.126-2.816-1.715
				c-3.891-2.475-7.407-5.444-10.479-8.815c-0.119-0.128-0.23-0.256-0.35-0.384c-3.055-3.43-5.658-7.27-7.714-11.426
				c-1.365-2.756-2.492-5.641-3.345-8.644c0.068,0.145,0.145,0.324,0.205,0.469c-0.683-2.287-1.203-4.608-1.579-6.955
				c-0.017-0.111-0.034-0.222-0.051-0.333c-0.35-2.347-0.555-4.727-0.555-7.125C200.535,177.954,200.731,175.727,201.021,173.534z
				 M94.756,102.707c-4.326-1.877-6.315-6.895-4.454-11.221c1.869-4.318,6.886-6.323,11.221-4.446
				c41.267,17.843,68.147,49.536,84.361,75.435c-1.519,5.666-2.415,11.588-2.415,17.732c0,3.763,0.393,7.433,0.981,11.034
				c-0.802-0.222-1.621-0.333-2.423-0.521C169.772,166.161,142.628,123.409,94.756,102.707z M168.501,424.644
				c2.381,4.07,1.015,9.293-3.063,11.665c-1.348,0.794-2.833,1.169-4.292,1.169c-2.935,0-5.794-1.519-7.373-4.232
				c-23.714-40.593-4.301-85.265,9.25-108.143c1.126,0.051,2.244,0.171,3.379,0.171c3.055,0,6.033-0.273,8.977-0.666
				c1.263,2.236,2.645,4.361,4.13,6.409C167.955,349.798,148.431,390.255,168.501,424.644z M178.135,306.799
				c-0.051,0.009-0.094,0.017-0.137,0.034c-2.381,0.546-4.745,0.922-7.091,1.143c-0.265,0.026-0.529,0.017-0.794,0.043
				c-1.741,0.137-3.456,0.145-5.171,0.111c-0.939-0.026-1.886-0.068-2.816-0.145c-0.939-0.068-1.86-0.205-2.782-0.324
				c-4.173-0.58-8.183-1.638-11.981-3.166c-0.521-0.213-1.041-0.427-1.562-0.657c-1.169-0.512-2.313-1.058-3.43-1.647
				c-0.802-0.435-1.579-0.922-2.364-1.399c-1.178-0.708-2.33-1.459-3.448-2.27c-1.22-0.887-2.423-1.809-3.575-2.816
				c-0.444-0.384-0.879-0.785-1.314-1.186c-1.34-1.254-2.637-2.569-3.849-3.968c-7.834-8.994-12.621-20.71-12.621-33.545
				c0-5.111,0.776-10.035,2.176-14.694c0.742-2.483,1.707-4.872,2.799-7.168c0.154-0.324,0.299-0.649,0.461-0.964
				c1.143-2.27,2.423-4.463,3.874-6.519c0.06-0.085,0.128-0.162,0.188-0.247c7.765-10.871,19.635-18.449,32.939-20.804
				c0.375-0.06,0.751-0.111,1.126-0.171c2.509-0.384,5.052-0.631,7.637-0.631c2.287,0,4.548,0.162,6.801,0.469
				c0.734,0.094,1.451,0.299,2.185,0.427c1.493,0.273,2.987,0.538,4.446,0.939c0.888,0.239,1.732,0.58,2.603,0.87
				c1.271,0.427,2.551,0.836,3.789,1.357c0.939,0.401,1.835,0.888,2.748,1.34c0.905,0.452,1.818,0.905,2.705,1.417
				c1.254,2.321,2.679,4.531,4.19,6.682c0.145,0.205,0.307,0.401,0.452,0.606c1.323,1.843,2.739,3.618,4.241,5.316
				c0.367,0.418,0.742,0.828,1.118,1.237c1.425,1.536,2.918,3.012,4.48,4.412c0.35,0.316,0.691,0.648,1.05,0.956
				c1.911,1.647,3.883,3.217,5.973,4.651c0.008,0.026,0,0.06,0.017,0.085c2.918,6.647,4.403,13.534,4.403,20.437
				c0,2.662-0.273,5.265-0.666,7.834c-0.077,0.521-0.137,1.041-0.23,1.553c-0.435,2.33-1.041,4.599-1.775,6.818
				c-0.23,0.7-0.495,1.391-0.759,2.074c-0.734,1.92-1.562,3.789-2.509,5.589c-0.452,0.853-0.947,1.664-1.451,2.492
				c-0.802,1.331-1.664,2.62-2.577,3.874c-0.572,0.768-1.109,1.553-1.715,2.287c-1.271,1.544-2.654,2.987-4.105,4.369
				c-0.674,0.648-1.374,1.28-2.082,1.894c-1.638,1.399-3.328,2.722-5.146,3.917c-0.486,0.324-0.998,0.606-1.502,0.913
				C188.546,303.377,183.554,305.527,178.135,306.799z M284.955,300.612c-0.026,0.119-0.034,0.247-0.051,0.367
				c-0.623,3.123-1.536,6.187-2.739,9.19c-3.678,9.139-9.907,16.956-17.809,22.605c-2.082,1.493-4.258,2.799-6.494,3.951
				c-0.205,0.102-0.427,0.205-0.64,0.307c-2.185,1.084-4.42,2.022-6.724,2.773c-0.085,0.026-0.171,0.068-0.256,0.094
				c-2.253,0.725-4.557,1.246-6.895,1.647c-0.512,0.085-1.033,0.162-1.553,0.239c-2.347,0.324-4.719,0.555-7.125,0.555
				c-2.355,0-4.685-0.205-6.98-0.521c-0.734-0.094-1.442-0.273-2.167-0.401c-1.553-0.282-3.089-0.606-4.599-1.032
				c-0.819-0.23-1.613-0.495-2.415-0.76c-1.391-0.469-2.765-0.99-4.105-1.57c-0.776-0.341-1.544-0.683-2.304-1.05
				c-1.365-0.674-2.68-1.425-3.977-2.219c-0.648-0.393-1.314-0.759-1.937-1.178c-1.57-1.058-3.072-2.21-4.514-3.43
				c-0.29-0.247-0.614-0.461-0.896-0.708c-1.698-1.502-3.277-3.123-4.77-4.847c-0.452-0.521-0.845-1.092-1.271-1.63
				c-0.759-0.956-1.476-1.946-2.167-2.953c2.705-1.126,5.299-2.458,7.808-3.908c0.87-0.495,1.715-1.024,2.56-1.553
				c1.63-1.041,3.2-2.15,4.727-3.319c1.545-1.161,3.004-2.389,4.429-3.678c1.084-0.981,2.167-1.971,3.2-3.029
				c1.084-1.109,2.125-2.261,3.132-3.448c0.819-0.964,1.587-1.98,2.347-2.987c1.408-1.86,2.714-3.772,3.925-5.76
				c0.794-1.306,1.562-2.62,2.27-3.968c0.606-1.178,1.178-2.355,1.715-3.567c0.887-1.98,1.681-4.002,2.381-6.076
				c0.299-0.905,0.597-1.809,0.862-2.731c0.7-2.398,1.246-4.855,1.681-7.356c0.145-0.845,0.273-1.69,0.384-2.543
				c0.41-2.987,0.683-6.016,0.683-9.114c0-3.405-0.341-6.75-0.836-10.069c-0.051-0.29-0.026-0.589-0.077-0.887
				c0.555,0.154,1.126,0.239,1.69,0.375c1.348,0.333,2.705,0.64,4.096,0.887c0.939,0.179,1.894,0.307,2.842,0.435
				c1.306,0.179,2.603,0.341,3.934,0.444c1.075,0.094,2.159,0.137,3.243,0.171c0.725,0.017,1.442,0.111,2.176,0.111
				c0.521,0,1.033-0.068,1.544-0.077c1.084-0.026,2.167-0.094,3.251-0.171c1.323-0.094,2.628-0.213,3.925-0.375
				c0.393-0.051,0.785-0.06,1.178-0.111c0.759,0.469,1.502,0.956,2.236,1.468c0.819,0.572,1.655,1.135,2.441,1.758
				c0.956,0.751,1.86,1.57,2.756,2.389c0.734,0.674,1.485,1.323,2.176,2.031c0.853,0.87,1.621,1.801,2.406,2.722
				c0.631,0.751,1.289,1.476,1.877,2.253c0.742,0.981,1.391,2.022,2.057,3.046c0.521,0.802,1.075,1.587,1.544,2.423
				c0.623,1.084,1.143,2.236,1.681,3.362c0.401,0.845,0.845,1.655,1.203,2.517c0.495,1.212,0.879,2.483,1.289,3.738
				c0.265,0.828,0.597,1.638,0.819,2.483c0.384,1.434,0.631,2.901,0.888,4.369c0.128,0.717,0.316,1.408,0.418,2.133
				c0.29,2.202,0.444,4.446,0.444,6.707C285.868,294.332,285.544,297.497,284.955,300.612z M411.479,245.862
				c-16.981,17.604-39.672,23.45-62.336,23.45c-19.063,0-38.084-4.139-53.683-8.9c-3.541-7.006-8.209-13.414-13.969-18.859
				c1.562-0.759,3.089-1.57,4.582-2.44c28.86,10.76,83.746,25.344,113.126-5.103c3.268-3.379,8.67-3.49,12.066-0.213
				C414.654,237.073,414.756,242.475,411.479,245.862z"/>
		</g>
	</g>
</g>
<g>
</g>
<g>
</g>
<g>
</g>
<g>
</g>
<g>
</g>
<g>
</g>
<g>
</g>
<g>
</g>
<g>
</g>
<g>
</g>
<g>
</g>
<g>
</g>
<g>
</g>
<g>
</g>
<g>
</g>
</svg>
