<?xml version="1.0" encoding="iso-8859-1"?>
<!-- Generator: Adobe Illustrator 19.0.0, SVG Export Plug-In . SVG Version: 6.00 Build 0)  -->
<svg version="1.1" id="Layer_1" xmlns="http://www.w3.org/2000/svg" xmlns:xlink="http://www.w3.org/1999/xlink" x="0px" y="0px"
	 viewBox="0 0 512 512" style="enable-background:new 0 0 512 512;" xml:space="preserve">
<g>
	<g>
		<path d="M490.667,373.333h-42.67c-0.035-23.549-19.114-42.629-42.663-42.665v-63.959l42.718,0.021
			c23.547,0,42.613-19.066,42.613-42.603V96c0-23.537-19.066-42.603-42.603-42.603l-128.117-0.064
			c-23.547,0-42.613,19.066-42.613,42.603v128.128c0,23.537,19.066,42.603,42.603,42.603l42.733,0.021v63.98
			c-23.551,0.034-42.633,19.115-42.667,42.665H191.996c-0.035-23.549-19.114-42.629-42.663-42.665V266.69l42.739-0.021
			c23.526,0,42.592-19.066,42.592-42.603V95.938c0-23.537-19.066-42.603-42.603-42.603L63.928,53.399
			c-23.534,0.003-42.596,19.068-42.596,42.603V224.13c0,23.537,19.066,42.603,42.603,42.603l42.733-0.021v63.957
			C83.116,330.702,64.034,349.783,64,373.333H21.333C9.551,373.333,0,382.885,0,394.667C0,406.449,9.551,416,21.333,416H64
			c0.035,23.571,19.15,42.667,42.729,42.667h42.539c23.579,0,42.694-19.096,42.729-42.667H320
			c0.035,23.571,19.15,42.667,42.729,42.667h42.539c23.579,0,42.694-19.096,42.729-42.667h42.67
			c11.782,0,21.333-9.551,21.333-21.333C512,382.885,502.449,373.333,490.667,373.333z M319.998,96l128,0.064v128l-63.358-0.032
			c-0.214-0.006-0.424-0.032-0.64-0.032c-0.212,0-0.417,0.026-0.627,0.032L319.998,224V96z M63.998,96.066l128-0.064v128
			l-63.329,0.032C128.445,224.027,128.226,224,128,224c-0.23,0-0.454,0.027-0.682,0.034l-63.32,0.032V96.066z M106.729,416
			c-0.037,0-0.064-42.603-0.064-42.603c0-0.037,42.603-0.064,42.603-0.064c0.037,0,0.064,42.603,0.064,42.603
			C149.331,415.973,106.729,416,106.729,416z M362.729,416c-0.037,0-0.064-42.603-0.064-42.603c0-0.037,42.603-0.064,42.603-0.064
			c0.037,0,0.064,42.603,0.064,42.603C405.331,415.973,362.729,416,362.729,416z"/>
	</g>
</g>
<g>
</g>
<g>
</g>
<g>
</g>
<g>
</g>
<g>
</g>
<g>
</g>
<g>
</g>
<g>
</g>
<g>
</g>
<g>
</g>
<g>
</g>
<g>
</g>
<g>
</g>
<g>
</g>
<g>
</g>
</svg>
