<?xml version="1.0" encoding="iso-8859-1"?>
<!-- Generator: Adobe Illustrator 19.0.0, SVG Export Plug-In . SVG Version: 6.00 Build 0)  -->
<svg version="1.1" id="Layer_1" xmlns="http://www.w3.org/2000/svg" xmlns:xlink="http://www.w3.org/1999/xlink" x="0px" y="0px"
	 viewBox="0 0 512 512" style="enable-background:new 0 0 512 512;" xml:space="preserve">
<g>
	<g>
		<g>
			<path d="M490.667,341.333c0-47.131-38.202-85.333-85.333-85.333C358.202,256,320,294.202,320,341.333
				c-11.782,0-21.333,9.551-21.333,21.333v128c0,11.782,9.551,21.333,21.333,21.333h170.667c11.782,0,21.333-9.551,21.333-21.333
				v-128C512,350.885,502.449,341.333,490.667,341.333z M405.333,298.667c23.567,0,42.667,19.099,42.667,42.667h-85.333
				C362.667,317.766,381.766,298.667,405.333,298.667z M469.333,469.333h-128V384H384v21.333c0,11.782,9.551,21.333,21.333,21.333
				c11.782,0,21.333-9.551,21.333-21.333V384h42.667V469.333z"/>
			<path d="M490.667,0H21.333C9.551,0,0,9.551,0,21.333v128v341.333C0,502.449,9.551,512,21.333,512h213.333
				c11.782,0,21.333-9.551,21.333-21.333s-9.551-21.333-21.333-21.333h-192V170.667h426.667v64c0,11.782,9.551,21.333,21.333,21.333
				S512,246.449,512,234.667v-85.333v-128C512,9.551,502.449,0,490.667,0z M42.667,128V42.667h426.667V128H42.667z"/>
			<path d="M85.333,64C73.557,64,64,73.557,64,85.333s9.557,21.333,21.333,21.333s21.333-9.557,21.333-21.333S97.109,64,85.333,64z"
				/>
			<path d="M149.333,64C137.557,64,128,73.557,128,85.333s9.557,21.333,21.333,21.333s21.333-9.557,21.333-21.333
				S161.109,64,149.333,64z"/>
			<path d="M213.333,64C201.557,64,192,73.557,192,85.333s9.557,21.333,21.333,21.333s21.333-9.557,21.333-21.333
				S225.109,64,213.333,64z"/>
			<path d="M106.667,256h64c11.782,0,21.333-9.551,21.333-21.333c0-11.782-9.551-21.333-21.333-21.333h-64
				c-11.782,0-21.333,9.551-21.333,21.333C85.333,246.449,94.885,256,106.667,256z"/>
			<path d="M341.333,234.667c0-11.782-9.551-21.333-21.333-21.333h-64c-11.782,0-21.333,9.551-21.333,21.333
				c0,11.782,9.551,21.333,21.333,21.333h64C331.782,256,341.333,246.449,341.333,234.667z"/>
			<path d="M234.667,320c0-11.782-9.551-21.333-21.333-21.333H106.667c-11.782,0-21.333,9.551-21.333,21.333
				s9.551,21.333,21.333,21.333h106.667C225.115,341.333,234.667,331.782,234.667,320z"/>
			<path d="M106.667,384c-11.782,0-21.333,9.551-21.333,21.333c0,11.782,9.551,21.333,21.333,21.333h64
				c11.782,0,21.333-9.551,21.333-21.333c0-11.782-9.551-21.333-21.333-21.333H106.667z"/>
		</g>
	</g>
</g>
<g>
</g>
<g>
</g>
<g>
</g>
<g>
</g>
<g>
</g>
<g>
</g>
<g>
</g>
<g>
</g>
<g>
</g>
<g>
</g>
<g>
</g>
<g>
</g>
<g>
</g>
<g>
</g>
<g>
</g>
</svg>
