<?xml version="1.0" encoding="iso-8859-1"?>
<!-- Generator: Adobe Illustrator 19.0.0, SVG Export Plug-In . SVG Version: 6.00 Build 0)  -->
<svg version="1.1" id="Layer_1" xmlns="http://www.w3.org/2000/svg" xmlns:xlink="http://www.w3.org/1999/xlink" x="0px" y="0px"
	 viewBox="0 0 330.282 330.282" style="enable-background:new 0 0 330.282 330.282;" xml:space="preserve">
<g id="XMLID_500_">
	<g id="XMLID_515_">
		<rect id="XMLID_196_" y="0.291" style="fill:#45B7EF;" width="154.547" height="154.547"/>
		<rect id="XMLID_193_" x="20.606" y="20.897" style="fill:#DAE4F4;" width="113.335" height="113.335"/>
		<path id="XMLID_516_" style="fill:#2FA1DB;" d="M53.076,77.041c0-3.191,0.599-6.37,1.796-9.537
			c1.196-3.166,2.941-5.996,5.236-8.49c2.294-2.493,5.087-4.512,8.377-6.059c3.291-1.544,7.031-2.319,11.22-2.319
			c4.986,0,9.312,1.072,12.977,3.216c3.665,2.145,6.396,4.936,8.19,8.377l-9.425,6.582c-0.599-1.396-1.359-2.555-2.282-3.478
			s-1.932-1.67-3.029-2.245c-1.097-0.573-2.22-0.972-3.366-1.196c-1.148-0.224-2.27-0.337-3.366-0.337
			c-2.344,0-4.389,0.475-6.133,1.422c-1.746,0.948-3.191,2.169-4.339,3.665c-1.147,1.495-1.994,3.191-2.543,5.086
			c-0.55,1.895-0.823,3.815-0.823,5.759c0,2.095,0.324,4.114,0.973,6.059c0.648,1.945,1.582,3.665,2.805,5.162
			c1.221,1.495,2.693,2.681,4.413,3.553c1.721,0.873,3.652,1.309,5.797,1.309c1.096,0,2.231-0.137,3.403-0.411
			c1.171-0.273,2.294-0.697,3.366-1.272c1.072-0.573,2.057-1.32,2.955-2.244c0.898-0.922,1.62-2.057,2.169-3.403l10.023,5.909
			c-0.798,1.944-1.982,3.69-3.553,5.236s-3.379,2.842-5.423,3.89c-2.045,1.047-4.215,1.846-6.508,2.393
			c-2.294,0.549-4.538,0.823-6.732,0.823c-3.841,0-7.367-0.785-10.584-2.356c-3.216-1.57-5.984-3.652-8.302-6.245
			c-2.319-2.593-4.114-5.536-5.386-8.827C53.713,83.772,53.076,80.432,53.076,77.041z"/>
	</g>
	<g id="XMLID_519_">
		<rect id="XMLID_189_" x="175.735" y="0.291" style="fill:#45B7EF;" width="154.547" height="154.547"/>
		<rect id="XMLID_186_" x="196.341" y="20.897" style="fill:#DAE4F4;" width="113.335" height="113.335"/>
		<path id="XMLID_520_" style="fill:#CF599B;" d="M267.819,104.118v-31.79L256.3,95.441h-6.582l-11.519-23.113v31.789h-12.268
			V51.011h13.314l13.763,27.75l13.837-27.75h13.239v53.107H267.819z"/>
	</g>
	<g id="XMLID_523_">
		<rect id="XMLID_182_" y="175.444" style="fill:#45B7EF;" width="154.547" height="154.547"/>
		<rect id="XMLID_179_" x="20.606" y="196.051" style="fill:#DAE4F4;" width="113.335" height="113.335"/>
		<path id="XMLID_524_" style="fill:#FAE16E;" d="M65.718,226.165l11.444,24.384l11.593-24.384h13.389L83.22,261.17v18.101H71.028
			V261.02l-18.625-34.856L65.718,226.165L65.718,226.165z"/>
	</g>
	<g id="XMLID_527_">
		<rect id="XMLID_175_" x="175.735" y="175.444" style="fill:#45B7EF;" width="154.547" height="154.547"/>
		<rect id="XMLID_172_" x="196.341" y="196.051" style="fill:#DAE4F4;" width="113.335" height="113.335"/>
		<path id="XMLID_530_" style="fill:#333233;" d="M229.596,279.271v-53.107h12.268v22.889l19.447-22.889h13.763l-19.897,23.711
			l21.243,29.396h-13.988l-15.034-21.392l-5.535,5.759v15.633H229.596z"/>
	</g>
</g>
<g>
</g>
<g>
</g>
<g>
</g>
<g>
</g>
<g>
</g>
<g>
</g>
<g>
</g>
<g>
</g>
<g>
</g>
<g>
</g>
<g>
</g>
<g>
</g>
<g>
</g>
<g>
</g>
<g>
</g>
</svg>
