<?xml version="1.0" encoding="iso-8859-1"?>
<!-- Generator: Adobe Illustrator 19.0.0, SVG Export Plug-In . SVG Version: 6.00 Build 0)  -->
<svg version="1.1" id="Layer_1" xmlns="http://www.w3.org/2000/svg" xmlns:xlink="http://www.w3.org/1999/xlink" x="0px" y="0px"
	 viewBox="0 0 392.469 392.469" style="enable-background:new 0 0 392.469 392.469;" xml:space="preserve">
<path style="fill:#FFFFFF;" d="M312.468,370.747c12.024,0,21.786-9.826,21.786-21.786V43.572c0-12.024-9.826-21.786-21.786-21.786
	H80.129c-12.024,0-21.786,9.826-21.786,21.786v305.325c0,12.024,9.826,21.786,21.786,21.786h232.275v0.065H312.468z"/>
<path style="fill:#FFC10D;" d="M80.129,347.41V45.123c0-0.84,0.711-1.552,1.552-1.552h229.236c0.84,0,1.552,0.711,1.552,1.552
	v302.222c0,0.84-0.711,1.552-1.552,1.552H81.68C80.84,348.962,80.129,348.25,80.129,347.41z"/>
<g>
	<path style="fill:#194F82;" d="M312.468,0H80.129C56.016,0,36.493,19.523,36.493,43.572v305.325
		c0,24.048,19.523,43.572,43.572,43.572h232.339c24.048,0,43.572-19.523,43.572-43.572V43.572C356.105,19.523,336.517,0,312.468,0z
		 M334.319,348.962c0,12.024-9.826,21.786-21.786,21.786H80.129c-12.024,0-21.786-9.826-21.786-21.786V43.572
		c0-12.024,9.826-21.786,21.786-21.786h232.339c12.024,0,21.786,9.826,21.786,21.786v305.39H334.319z"/>
	<path style="fill:#194F82;" d="M133.462,54.303c-23.402,0-42.473,19.071-42.473,42.473v35.232
		c0,23.402,19.071,42.473,42.473,42.473s42.473-19.071,42.473-42.473V96.776C176,73.374,156.994,54.303,133.462,54.303z
		 M133.462,76.089c11.378,0,20.622,9.244,20.622,20.622v6.723H112.84v-6.723C112.84,85.398,122.149,76.089,133.462,76.089z
		 M133.462,152.695c-11.378,0-20.622-9.244-20.622-20.622v-6.723h41.309v6.723C154.214,143.386,144.905,152.695,133.462,152.695z"/>
</g>
<path style="fill:#56ACE0;" d="M154.214,96.84c0-11.378-9.244-20.622-20.622-20.622s-20.687,9.244-20.687,20.622v6.723h41.374V96.84
	H154.214z"/>
<path style="fill:#FFFFFF;" d="M112.84,132.073c0,11.378,9.244,20.622,20.622,20.622s20.622-9.244,20.622-20.622v-6.723H112.84
	C112.84,125.35,112.84,132.073,112.84,132.073z"/>
<path style="fill:#194F82;" d="M259.07,54.303c-23.402,0-42.473,19.071-42.473,42.473v35.232c0,23.402,19.071,42.473,42.473,42.473
	s42.473-19.071,42.473-42.473V96.776C301.543,73.374,282.537,54.303,259.07,54.303z M259.07,76.089
	c11.378,0,20.622,9.244,20.622,20.622v6.723h-41.374v-6.723C238.384,85.398,247.693,76.089,259.07,76.089z M259.07,152.695
	c-11.378,0-20.622-9.244-20.622-20.622v-6.723h41.309v6.723C279.757,143.386,270.513,152.695,259.07,152.695z"/>
<path style="fill:#FFFFFF;" d="M238.384,96.84v6.723h41.309V96.84c0-11.378-9.244-20.622-20.622-20.622
	C247.693,76.089,238.384,85.398,238.384,96.84z"/>
<g>
	<path style="fill:#56ACE0;" d="M238.384,132.073c0,11.378,9.244,20.622,20.622,20.622s20.622-9.244,20.622-20.622v-6.723h-41.309
		v6.723H238.384z"/>
	<path style="fill:#56ACE0;" d="M154.214,254.125c0-11.378-9.244-20.622-20.622-20.622s-20.687,9.309-20.687,20.622v6.723h41.374
		v-6.723H154.214z"/>
</g>
<path style="fill:#FFFFFF;" d="M112.84,289.358c0,11.378,9.244,20.622,20.622,20.622s20.622-9.244,20.622-20.622v-6.723H112.84
	C112.84,282.634,112.84,289.358,112.84,289.358z"/>
<path style="fill:#194F82;" d="M133.462,211.653c-23.402,0-42.473,19.071-42.473,42.473v35.232
	c0,23.402,19.071,42.473,42.473,42.473s42.473-19.071,42.473-42.473v-35.232C176,230.723,156.994,211.653,133.462,211.653z
	 M154.214,289.358c0,11.378-9.244,20.622-20.622,20.622s-20.687-9.244-20.687-20.622v-6.723h41.374v6.723H154.214z M112.84,254.125
	c0-11.378,9.244-20.622,20.622-20.622s20.622,9.244,20.622,20.622v6.723H112.84C112.84,260.848,112.84,254.125,112.84,254.125z"/>
<path style="fill:#56ACE0;" d="M238.384,289.358c0,11.378,9.244,20.622,20.622,20.622s20.687-9.244,20.687-20.622v-6.723h-41.374
	v6.723H238.384z"/>
<path style="fill:#FFFFFF;" d="M279.757,254.125c0-11.378-9.244-20.622-20.622-20.622s-20.622,9.244-20.622,20.622v6.723h41.244
	V254.125z"/>
<path style="fill:#194F82;" d="M259.07,211.653c-23.402,0-42.473,19.071-42.473,42.473v35.232c0,23.402,19.071,42.473,42.473,42.473
	s42.473-19.071,42.473-42.473v-35.232C301.543,230.723,282.537,211.653,259.07,211.653z M279.757,289.358
	c0,11.378-9.244,20.622-20.622,20.622s-20.622-9.244-20.622-20.622v-6.723h41.244V289.358z M238.384,254.125
	c0-11.378,9.244-20.622,20.622-20.622s20.687,9.309,20.687,20.622v6.723h-41.374v-6.723H238.384z"/>
<g>
</g>
<g>
</g>
<g>
</g>
<g>
</g>
<g>
</g>
<g>
</g>
<g>
</g>
<g>
</g>
<g>
</g>
<g>
</g>
<g>
</g>
<g>
</g>
<g>
</g>
<g>
</g>
<g>
</g>
</svg>
