<?xml version="1.0" encoding="iso-8859-1"?>
<!-- Generator: Adobe Illustrator 19.0.0, SVG Export Plug-In . SVG Version: 6.00 Build 0)  -->
<svg version="1.1" id="Layer_1" xmlns="http://www.w3.org/2000/svg" xmlns:xlink="http://www.w3.org/1999/xlink" x="0px" y="0px"
	 viewBox="0 0 512 512" style="enable-background:new 0 0 512 512;" xml:space="preserve">
<g>
	<path style="fill:#48BDD2;" d="M258.251,466.989c-85.022,0-161.342-50.61-194.436-128.935c-1.814-4.293,0.196-9.244,4.49-11.059
		c4.292-1.813,9.244,0.196,11.059,4.49C109.81,403.547,180.027,450.11,258.251,450.11s148.441-46.563,178.888-118.625
		c1.813-4.294,6.765-6.305,11.058-4.49c4.293,1.814,6.304,6.765,4.489,11.059C419.594,416.379,343.273,466.989,258.251,466.989z"/>
	<path style="fill:#48BDD2;" d="M444.916,185.673c-3.29,0-6.416-1.935-7.777-5.157C406.691,108.453,336.474,61.89,258.251,61.89
		S109.81,108.453,79.363,180.515c-1.814,4.293-6.765,6.304-11.059,4.49c-4.294-1.814-6.304-6.765-4.49-11.059
		C96.909,95.621,173.228,45.011,258.251,45.011s161.343,50.61,194.435,128.935c1.814,4.293-0.196,9.244-4.489,11.059
		C447.125,185.458,446.011,185.673,444.916,185.673z"/>
	<path style="fill:#48BDD2;" d="M503.56,245.31c-4.662,0-8.44-3.779-8.44-8.44v-17.442h-73.143v17.442c0,4.661-3.778,8.44-8.44,8.44
		s-8.44-3.779-8.44-8.44v-25.881c0-4.661,3.778-8.44,8.44-8.44h90.022c4.662,0,8.44,3.779,8.44,8.44v25.881
		C512,241.531,508.222,245.31,503.56,245.31z"/>
	<path style="fill:#48BDD2;" d="M503.56,309.451h-90.022c-4.662,0-8.44-3.779-8.44-8.44V275.13c0-4.661,3.778-8.44,8.44-8.44
		s8.44,3.779,8.44,8.44v17.442h73.143V275.13c0-4.661,3.778-8.44,8.44-8.44s8.44,3.779,8.44,8.44v25.881
		C512,305.672,508.222,309.451,503.56,309.451z"/>
	<path style="fill:#48BDD2;" d="M301.011,354.462h-90.022c-4.661,0-8.44-3.779-8.44-8.44v-36.571h-36.571
		c-4.661,0-8.44-3.779-8.44-8.44v-90.022c0-4.661,3.779-8.44,8.44-8.44h36.571v-36.571c0-4.661,3.779-8.44,8.44-8.44h90.022
		c4.662,0,8.44,3.779,8.44,8.44v36.571h36.571c4.662,0,8.44,3.779,8.44,8.44v90.022c0,4.661-3.778,8.44-8.44,8.44h-36.571v36.571
		C309.451,350.683,305.673,354.462,301.011,354.462z M219.429,337.582h73.143v-36.571c0-4.661,3.778-8.44,8.44-8.44h36.571v-73.143
		h-36.571c-4.662,0-8.44-3.779-8.44-8.44v-36.571h-73.143v36.571c0,4.661-3.779,8.44-8.44,8.44h-36.571v73.143h36.571
		c4.661,0,8.44,3.779,8.44,8.44V337.582z"/>
	<path style="fill:#48BDD2;" d="M98.462,245.31c-4.661,0-8.44-3.779-8.44-8.44v-17.442H16.879v17.442c0,4.661-3.779,8.44-8.44,8.44
		S0,241.531,0,236.87v-25.881c0-4.661,3.779-8.44,8.44-8.44h90.022c4.661,0,8.44,3.779,8.44,8.44v25.881
		C106.901,241.531,103.122,245.31,98.462,245.31z"/>
	<path style="fill:#48BDD2;" d="M98.462,309.451H8.44c-4.661,0-8.44-3.779-8.44-8.44V275.13c0-4.661,3.779-8.44,8.44-8.44
		s8.44,3.779,8.44,8.44v17.442h73.143V275.13c0-4.661,3.779-8.44,8.44-8.44c4.661,0,8.44,3.779,8.44,8.44v25.881
		C106.901,305.672,103.122,309.451,98.462,309.451z"/>
</g>
<g>
</g>
<g>
</g>
<g>
</g>
<g>
</g>
<g>
</g>
<g>
</g>
<g>
</g>
<g>
</g>
<g>
</g>
<g>
</g>
<g>
</g>
<g>
</g>
<g>
</g>
<g>
</g>
<g>
</g>
</svg>
