<?xml version="1.0" encoding="iso-8859-1"?>
<!-- Generator: Adobe Illustrator 19.0.0, SVG Export Plug-In . SVG Version: 6.00 Build 0)  -->
<svg version="1.1" id="Layer_1" xmlns="http://www.w3.org/2000/svg" xmlns:xlink="http://www.w3.org/1999/xlink" x="0px" y="0px"
	 viewBox="0 0 512 512" style="enable-background:new 0 0 512 512;" xml:space="preserve">
<g>
	<g>
		<path d="M469.334,56.235v-9.301c0-4.71-3.823-8.533-8.533-8.533h-68.267c-4.71,0-8.533,3.823-8.533,8.533v25.6h-34.133V55.467
			c0-4.71-3.823-8.533-8.533-8.533H307.2c-4.71,0-8.533,3.823-8.533,8.533V64h-34.133v-8.533c0-4.71-3.823-8.533-8.533-8.533
			h-34.133c-4.71,0-8.533,3.823-8.533,8.533V64h-51.2c-4.71,0-8.533,3.823-8.533,8.533v8.533h-51.2v-8.533
			c0-4.71-3.823-8.533-8.533-8.533H76.8V38.4c0-4.71-3.823-8.533-8.533-8.533H34.134c-4.71,0-8.533,3.823-8.533,8.533V64H8.534
			c-3.277,0-6.272,1.877-7.689,4.838c-1.425,2.953-1.024,6.468,1.024,9.028l34.133,42.667c0.196,0.239,0.41,0.478,0.631,0.7
			l25.6,25.6c1.596,1.604,3.772,2.5,6.033,2.5h25.6c4.71,0,8.533-3.823,8.533-8.533v-8.533h26.812
			c-0.717,2.748-1.212,5.572-1.212,8.533c0,18.825,15.309,34.133,34.133,34.133c15.855,0,29.107-10.923,32.922-25.6h18.278v8.533
			c0,4.71,3.823,8.533,8.533,8.533h25.6v59.998c-5.291,7.108-8.533,15.812-8.533,25.335v25.6H179.2c-4.71,0-8.533,3.823-8.533,8.533
			v8.533h-59.733c-2.688,0-5.214,1.263-6.827,3.413l-21.495,28.663c-10.138-2.987-21.504,0.427-28.024,9.481l-19.951,27.699
			c-3.994,5.547-5.589,12.322-4.489,19.072c1.101,6.75,4.753,12.663,10.308,16.657c4.403,3.174,9.583,4.838,14.899,4.838
			c1.382,0,2.773-0.119,4.173-0.341c6.75-1.101,12.663-4.762,16.657-10.308l19.951-27.699c3.994-5.547,5.589-12.322,4.489-19.072
			c-0.614-3.772-2.099-7.236-4.198-10.3l18.773-25.037h55.467V320c0,4.71,3.823,8.533,8.533,8.533h13.756l-47.454,142.37
			c-0.862,2.603-0.427,5.461,1.178,7.68c1.604,2.236,4.181,3.55,6.921,3.55h34.133c3.678,0,6.938-2.347,8.098-5.837l49.254-147.763
			H256V473.6c0,4.71,3.823,8.533,8.533,8.533h34.133c4.71,0,8.533-3.823,8.533-8.533V328.533h10.914l49.254,147.763
			c1.161,3.49,4.42,5.837,8.098,5.837H409.6c2.739,0,5.316-1.314,6.921-3.55c1.604-2.219,2.039-5.077,1.178-7.68l-47.454-142.37H384
			c4.71,0,8.533-3.823,8.533-8.533v-34.133c0-4.71-3.823-8.533-8.533-8.533h-59.733v-25.6c0-9.523-3.243-18.227-8.533-25.335V166.4
			h25.6c4.71,0,8.533-3.823,8.533-8.533V140.8H384v25.6c0,4.71,3.823,8.533,8.533,8.533H460.8c4.71,0,8.533-3.823,8.533-8.533
			v-9.301C493.509,153.011,512,131.985,512,106.667C512,81.348,493.509,60.322,469.334,56.235z M139.691,115.2H102.4V98.133h51.2
			v9.643c-0.444,0.111-0.836,0.367-1.271,0.495c-1.852,0.563-3.635,1.246-5.342,2.099c-0.512,0.256-0.998,0.538-1.502,0.819
			c-1.826,1.033-3.541,2.219-5.146,3.558C140.143,114.919,139.896,115.021,139.691,115.2z M162.134,157.867
			c-9.412,0-17.067-7.654-17.067-17.067c0-4.352,1.69-8.286,4.378-11.307c0.017-0.017,0.051-0.026,0.068-0.051
			c2.432-2.697,5.495-4.48,8.858-5.257c0.085-0.026,0.162-0.06,0.247-0.077c1.143-0.247,2.321-0.375,3.516-0.375
			c9.412,0,17.067,7.654,17.067,17.067C179.2,150.212,171.546,157.867,162.134,157.867z M247.467,72.533V140.8v8.533H230.4V140.8
			V72.533V64h17.067V72.533z M298.667,157.867v54.818c-5.239-2.304-10.991-3.618-17.067-3.618s-11.827,1.314-17.067,3.618v-54.818
			v-8.533h34.133V157.867z M332.8,81.067v51.2v17.067h-17.067V140.8V72.533V64H332.8V81.067z M452.267,64v85.333v8.533h-51.2v-25.6
			v-51.2v-25.6h51.2V64z"/>
	</g>
</g>
<g>
</g>
<g>
</g>
<g>
</g>
<g>
</g>
<g>
</g>
<g>
</g>
<g>
</g>
<g>
</g>
<g>
</g>
<g>
</g>
<g>
</g>
<g>
</g>
<g>
</g>
<g>
</g>
<g>
</g>
</svg>
