<?xml version="1.0" encoding="iso-8859-1"?>
<!-- Generator: Adobe Illustrator 19.0.0, SVG Export Plug-In . SVG Version: 6.00 Build 0)  -->
<svg version="1.1" id="Layer_1" xmlns="http://www.w3.org/2000/svg" xmlns:xlink="http://www.w3.org/1999/xlink" x="0px" y="0px"
	 viewBox="0 0 511.994 511.994" style="enable-background:new 0 0 511.994 511.994;" xml:space="preserve">
<g>
	<g>
		<g>
			<path d="M349.804,96.53V76.792c0-3.951-2.722-7.398-6.579-8.303L53.091,0.223c-3.046-0.708-6.246,0.299-8.337,2.637
				c-2.082,2.347-2.705,5.641-1.638,8.585l33.621,92.459v53.948c-43.546,32.196-70.434,81.195-75.75,137.19l13.756,14.899
				l37.035,37.026c4.352,4.352,11.435,4.352,15.787,0l8.141-8.141c19.396-19.388,50.935-19.388,70.332,0l8.141,8.141
				c4.352,4.352,11.435,4.352,15.787,0l8.141-8.141c19.396-19.388,50.935-19.388,70.332,0l8.141,8.141
				c4.352,4.352,11.435,4.352,15.787,0l8.141-8.141c19.396-19.388,50.935-19.388,70.332,0l7.765,7.774
				c4.557,4.557,11.981,4.557,16.538,0l36.898-36.907l13.508-14.788c-5.35-55.945-32.239-104.892-75.742-137.054v-5.897
				c68.736,32.777,110.933,97.698,110.933,172.305c0,4.719,3.814,8.533,8.533,8.533h34.133c4.719,0,8.533-3.814,8.533-8.533
				C511.937,221.33,448.458,132.677,349.804,96.53z"/>
			<path d="M387.206,358.667c-11.213,11.213-29.457,11.213-40.67,0l-7.765-7.774c-12.74-12.732-33.459-12.732-46.199,0l-8.141,8.141
				c-11.008,11.008-28.911,11.008-39.919,0l-8.141-8.141c-12.74-12.732-33.459-12.732-46.2,0l-8.141,8.141
				c-11.008,11.008-28.911,11.008-39.919,0l-8.141-8.141c-12.74-12.732-33.459-12.732-46.199,0l-8.141,8.141
				c-5.325,5.333-12.416,8.269-19.959,8.269s-14.635-2.935-19.959-8.269L2.438,321.761l-2.381-2.577
				c1.271,73.634,42.709,139.469,108.578,172.186c24.115,13.491,51.447,20.625,79.036,20.625h51.2
				c26.564,0,54.306-6.989,75.614-18.927c67.063-31.881,110.669-99.874,111.991-173.892l-2.108,2.313L387.206,358.667z
				 M162.071,415.405c0,10.914-8.883,19.789-19.789,19.789H130.66c-10.906,0-19.789-8.875-19.789-19.789v-11.614
				c0-10.914,8.883-19.797,19.789-19.797h11.622c10.906,0,19.789,8.883,19.789,19.797V415.405z M298.604,449.539
				c0,10.914-8.883,19.789-19.789,19.789h-11.622c-10.906,0-19.789-8.875-19.789-19.789v-11.614
				c0-10.914,8.883-19.797,19.789-19.797h11.622c10.906,0,19.789,8.883,19.789,19.797V449.539z"/>
		</g>
	</g>
</g>
<g>
</g>
<g>
</g>
<g>
</g>
<g>
</g>
<g>
</g>
<g>
</g>
<g>
</g>
<g>
</g>
<g>
</g>
<g>
</g>
<g>
</g>
<g>
</g>
<g>
</g>
<g>
</g>
<g>
</g>
</svg>
