<?xml version="1.0" encoding="iso-8859-1"?>
<!-- Generator: Adobe Illustrator 19.0.0, SVG Export Plug-In . SVG Version: 6.00 Build 0)  -->
<svg version="1.1" id="Layer_1" xmlns="http://www.w3.org/2000/svg" xmlns:xlink="http://www.w3.org/1999/xlink" x="0px" y="0px"
	 viewBox="0 0 512 512" style="enable-background:new 0 0 512 512;" xml:space="preserve">
<g>
	<g>
		<g>
			<path d="M465.067,153.6H422.4v-17.067h17.067c4.719,0,8.533-3.814,8.533-8.533C448,57.421,390.579,0,320,0H149.333
				c-70.579,0-128,57.421-128,128c0,4.719,3.823,8.533,8.533,8.533h17.067v290.133H29.867c-4.71,0-8.533,3.814-8.533,8.533
				c0,42.351,34.458,76.8,76.8,76.8H371.2c42.351,0,76.8-34.449,76.8-76.8c0-4.719-3.814-8.533-8.533-8.533H422.4V204.8h42.667
				c14.114,0,25.6-11.486,25.6-25.6S479.181,153.6,465.067,153.6z M149.333,42.667c0-4.719,3.823-8.533,8.533-8.533h153.6
				c4.71,0,8.533,3.814,8.533,8.533v51.2c0,4.719-3.823,8.533-8.533,8.533h-153.6c-4.71,0-8.533-3.814-8.533-8.533V42.667z
				 M302.933,136.533v43.179c0,13.833-11.255,25.088-25.088,25.088h-26.112H217.6h-26.112c-13.833,0-25.088-11.255-25.088-25.088
				v-43.179H302.933z M354.133,477.867H115.2c-4.71,0-8.533-3.814-8.533-8.533s3.823-8.533,8.533-8.533h238.933
				c4.71,0,8.533,3.814,8.533,8.533S358.844,477.867,354.133,477.867z M336.128,307.644c-0.307,3.115-0.691,6.212-1.152,9.284
				c-0.111,0.691-0.222,1.382-0.333,2.074c-0.529,3.251-1.126,6.494-1.835,9.685c-0.051,0.23-0.111,0.469-0.171,0.7
				c-4.019,17.741-10.743,34.321-19.729,48.572c-0.12,0.179-0.222,0.375-0.333,0.555c-1.519,2.381-3.132,4.651-4.779,6.895
				c-18.603,25.378-44.476,41.259-73.131,41.259c-54.315,0-98.884-56.678-102.204-128H336.87
				C336.734,301.696,336.41,304.666,336.128,307.644z M339.294,364.126c0.887-2.057,1.638-4.19,2.449-6.298
				c0.998-2.62,2.082-5.197,2.961-7.893c1.621-4.915,3.021-9.967,4.241-15.13c0.23-0.981,0.384-1.988,0.597-2.978
				c1.007-4.582,1.869-9.242,2.543-13.986c0.043-0.333,0.137-0.649,0.179-0.981c18.935,2.978,18.935,11.563,18.935,15.94
				c0,17.826-22.246,41.097-40.439,48.691c0.717-1.237,1.28-2.594,1.963-3.857c0.888-1.647,1.724-3.337,2.56-5.026
				C336.674,369.809,338.057,367.019,339.294,364.126z M405.333,426.667h-116.19c10.359-6.861,19.823-15.573,28.143-25.856
				c0.896,0.06,1.818,0.256,2.714,0.256c26.957,0,68.267-36.617,68.267-68.267c0-13.03-6.306-28.68-34.517-32.904
				c0.162-3.243,0.384-6.468,0.384-9.762c0-4.719-3.823-8.533-8.533-8.533H123.733c-4.71,0-8.533,3.814-8.533,8.533
				c0,59.452,26.462,111.01,64.99,136.533H64V136.533h85.333v43.179c0,17.365,10.564,32.299,25.6,38.75v16.154
				c0,11.793,9.6,21.385,21.385,21.385h8.431c11.785,0,21.385-9.591,21.385-21.385v-12.749H243.2v12.749
				c0,11.793,9.6,21.385,21.385,21.385h8.431c11.785,0,21.385-9.591,21.385-21.385v-16.154c12.655-5.427,22.11-16.879,24.789-30.729
				h10.914c3.533,9.907,12.919,17.067,24.03,17.067h51.2V426.667z M405.333,153.6h-51.2c-11.11,0-20.497,7.159-24.03,17.067H320
				v-34.133h85.333V153.6z"/>
			<rect x="166.4" y="51.2" width="136.533" height="34.133"/>
		</g>
	</g>
</g>
<g>
</g>
<g>
</g>
<g>
</g>
<g>
</g>
<g>
</g>
<g>
</g>
<g>
</g>
<g>
</g>
<g>
</g>
<g>
</g>
<g>
</g>
<g>
</g>
<g>
</g>
<g>
</g>
<g>
</g>
</svg>
