<?xml version="1.0" encoding="iso-8859-1"?>
<!-- Generator: Adobe Illustrator 19.0.0, SVG Export Plug-In . SVG Version: 6.00 Build 0)  -->
<svg version="1.1" id="Capa_1" xmlns="http://www.w3.org/2000/svg" xmlns:xlink="http://www.w3.org/1999/xlink" x="0px" y="0px"
	 viewBox="0 0 490 490" style="enable-background:new 0 0 490 490;" xml:space="preserve">
<g>
	<g>
		<path d="M469.25,84.3h-104V20.8c0-11.4-9.4-20.8-20.8-20.8h-199.8c-11.4,0-20.8,9.4-20.8,20.8v63.5h-103
			c-11.4,0-20.8,9.4-20.8,20.8v364.1c0,11.4,9.4,20.8,20.8,20.8h447.3c11.4,0,20.8-9.4,21.8-19.8V105.1
			C490.05,93.6,480.65,84.3,469.25,84.3z M165.45,41.6h159.2v42.7h-159.2V41.6z M448.45,449.4H40.65V124.8h407.8V449.4z"/>
		<path d="M176.95,307.9h46.8v46.8c0,11.4,9.4,20.8,20.8,20.8c11.4,0,20.8-9.4,20.8-19.8v-47.9h46.8c11.4,0,21.8-9.4,21.8-20.8
			s-9.4-20.8-20.8-20.8h-47.9v-46.8c0-11.4-9.4-20.8-20.8-20.8s-20.8,9.4-20.8,20.8v46.8h-46.8c-11.4,0-20.8,9.4-20.8,20.8
			S165.45,307.9,176.95,307.9z"/>
	</g>
</g>
<g>
</g>
<g>
</g>
<g>
</g>
<g>
</g>
<g>
</g>
<g>
</g>
<g>
</g>
<g>
</g>
<g>
</g>
<g>
</g>
<g>
</g>
<g>
</g>
<g>
</g>
<g>
</g>
<g>
</g>
</svg>
