<?xml version="1.0" encoding="iso-8859-1"?>
<!-- Generator: Adobe Illustrator 19.0.0, SVG Export Plug-In . SVG Version: 6.00 Build 0)  -->
<svg version="1.1" id="Capa_1" xmlns="http://www.w3.org/2000/svg" xmlns:xlink="http://www.w3.org/1999/xlink" x="0px" y="0px"
	 viewBox="0 0 490.142 490.142" style="enable-background:new 0 0 490.142 490.142;" xml:space="preserve">
<g>
	<g>
		<path d="M477.741,174.471l-173.1-132.8h163.7c11.4,0,21.8-9.4,21.8-20.8s-9.3-20.8-20.7-20.8h-448.4c-11.4,0-20.8,9.4-20.8,20.8
			s9.4,20.8,20.8,20.8h163.7c0,0-176.8,135.7-177.1,135.9c-5.8,4.3-8.5,11.1-7.4,17.9v273.8c0,11.4,9.4,20.8,20.8,20.8h447.3
			c11.4,0,20.8-9.4,21.8-19.8v-276.7C490.241,185.071,485.041,177.771,477.741,174.471z M408.541,172.771h-328.4l164.6-125.9
			L408.541,172.771z M448.641,449.471h-407.8v-236.1h407.8V449.471z"/>
		<path d="M139.641,399.571c11.4,0,20.8-9.4,20.8-20.8v-95.7c0-11.4-9.4-20.8-20.8-20.8s-20.8,9.4-20.8,20.8v95.7
			C118.841,390.171,128.241,399.571,139.641,399.571z"/>
		<path d="M244.741,399.571c11.4,0,20.8-9.4,20.8-20.8v-95.7c0-11.4-9.4-20.8-20.8-20.8s-20.8,9.4-20.8,20.8v95.7
			C223.941,390.171,233.241,399.571,244.741,399.571z"/>
		<path d="M349.841,399.571c11.4,0,20.8-9.4,20.8-20.8v-95.7c0-11.4-9.4-20.8-20.8-20.8s-20.8,9.4-20.8,20.8v95.7
			C329.041,390.171,338.341,399.571,349.841,399.571z"/>
	</g>
</g>
<g>
</g>
<g>
</g>
<g>
</g>
<g>
</g>
<g>
</g>
<g>
</g>
<g>
</g>
<g>
</g>
<g>
</g>
<g>
</g>
<g>
</g>
<g>
</g>
<g>
</g>
<g>
</g>
<g>
</g>
</svg>
