<?xml version="1.0" encoding="iso-8859-1"?>
<!-- Generator: Adobe Illustrator 19.0.0, SVG Export Plug-In . SVG Version: 6.00 Build 0)  -->
<svg version="1.1" id="Layer_1" xmlns="http://www.w3.org/2000/svg" xmlns:xlink="http://www.w3.org/1999/xlink" x="0px" y="0px"
	 viewBox="0 0 512 512" style="enable-background:new 0 0 512 512;" xml:space="preserve">
<g>
	<g>
		<g>
			<path d="M437.019,74.982C388.667,26.628,324.379,0,256,0S123.333,26.628,74.981,74.982C26.628,123.333,0,187.621,0,256
				s26.628,132.667,74.981,181.019C123.333,485.372,187.621,512,256,512s132.667-26.628,181.019-74.982
				C485.372,388.667,512,324.379,512,256S485.372,123.333,437.019,74.982z M464.173,363.742l-20.754-11.982
				c-5.154-2.976-11.747-1.209-14.724,3.945c-2.977,5.156-1.21,11.747,3.945,14.724l20.731,11.969
				c-18.278,28.442-42.531,52.695-70.972,70.973L370.43,432.64c-2.976-5.156-9.57-6.922-14.724-3.945
				c-5.156,2.977-6.922,9.568-3.945,14.724l11.982,20.754c-29.275,15.213-62.14,24.428-96.963,26.012v-23.995
				c0-5.952-4.826-10.779-10.779-10.779c-5.953,0-10.779,4.827-10.779,10.779v23.995c-34.824-1.584-67.69-10.799-96.963-26.012
				l11.982-20.754c2.977-5.156,1.211-11.747-3.945-14.724c-5.156-2.978-11.748-1.212-14.724,3.945l-11.969,20.731
				c-28.441-18.278-52.695-42.532-70.973-70.973l20.731-11.969c5.156-2.977,6.922-9.568,3.945-14.724
				c-2.976-5.156-9.57-6.922-14.724-3.945l-20.754,11.982c-15.213-29.275-24.428-62.138-26.012-96.963h23.994
				c5.953,0,10.779-4.827,10.779-10.779c0-5.952-4.826-10.779-10.779-10.779H21.816c1.584-34.825,10.799-67.689,26.012-96.963
				l20.754,11.982c1.698,0.98,3.551,1.447,5.38,1.447c3.725,0,7.348-1.934,9.344-5.392c2.977-5.156,1.21-11.747-3.945-14.724
				l-20.731-11.969c18.278-28.441,42.531-52.695,70.973-70.973l11.969,20.731c1.996,3.458,5.619,5.392,9.344,5.392
				c1.828,0,3.682-0.467,5.38-1.447c5.156-2.977,6.922-9.568,3.945-14.724l-11.982-20.754c29.275-15.213,62.14-24.428,96.963-26.012
				v23.995c0,5.952,4.826,10.779,10.779,10.779c5.953,0,10.779-4.827,10.779-10.779V21.816c34.824,1.584,67.69,10.799,96.963,26.012
				L351.76,68.581c-2.977,5.156-1.211,11.747,3.945,14.724c1.698,0.98,3.551,1.447,5.38,1.447c3.725,0,7.348-1.934,9.344-5.392
				l11.969-20.731c28.441,18.278,52.695,42.532,70.973,70.973l-20.731,11.969c-5.156,2.977-6.922,9.568-3.945,14.724
				c1.996,3.458,5.619,5.392,9.344,5.392c1.828,0,3.682-0.467,5.38-1.447l20.754-11.982c15.213,29.275,24.427,62.138,26.012,96.963
				h-23.995c-5.953,0-10.779,4.827-10.779,10.779c0,5.952,4.826,10.779,10.779,10.779h23.995
				C488.6,301.604,479.385,334.468,464.173,363.742z"/>
			<path d="M374.978,338.512c11.946-20.631,18.317-44.125,18.317-68.618c0-9.868-1.047-19.676-3.11-29.151
				c0-0.002-0.001-0.005-0.001-0.008c-0.001-0.004-0.002-0.01-0.003-0.014c0-0.001-0.001-0.003-0.001-0.004
				c-3.76-17.394-10.797-33.688-20.92-48.434c-2.203-3.208-4.314-6.579-6.331-10.096c10.06-8.424,16.587-21.864,16.587-36.986
				c0-25.458-18.486-46.169-41.208-46.169c-13.27,0-25.085,7.071-32.625,18.019c-14.835-6.469-31.825-10.082-49.68-10.082
				c-17.887,0-34.873,3.606-49.699,10.064c-7.54-10.94-19.35-18.003-32.613-18.003c-22.722,0-41.208,20.712-41.208,46.169
				c0,15.098,6.505,28.519,16.538,36.946c-2.156,3.704-4.534,7.504-7.167,11.439c-9.647,14.409-16.386,30.271-20.031,47.141
				c-2.043,9.414-3.089,19.093-3.112,28.759c-0.074,25.069,6.642,48.627,18.404,68.934l-11.085,11.085
				c-7.125,7.126-11.049,16.6-11.049,26.677c0,10.078,3.925,19.552,11.049,26.677c7.126,7.125,16.6,11.049,26.677,11.049
				c10.078,0,19.552-3.925,26.677-11.049l11.929-11.928c19.018,10.22,40.698,16.096,63.71,16.257
				c0.327,0.002,0.651,0.003,0.977,0.003c22.972,0,45.079-5.605,64.774-16.173l11.842,11.842c7.126,7.125,16.6,11.049,26.677,11.049
				c10.076,0,19.55-3.925,26.677-11.049c7.126-7.125,11.049-16.599,11.049-26.677c0-10.077-3.925-19.551-11.049-26.677
				L374.978,338.512z M338.308,120.591c10.835,0,19.65,11.041,19.65,24.612c0,6.315-1.915,12.073-5.049,16.435
				c-5.765-13.389-15.656-24.967-28.355-33.978C328.1,123.293,332.954,120.591,338.308,120.591z M173.692,120.591
				c5.346,0,10.194,2.695,13.739,7.049c-12.689,9.01-22.569,20.592-28.341,33.996c-3.132-4.36-5.048-10.119-5.048-16.434
				C154.042,131.631,162.857,120.591,173.692,120.591z M159.769,205.58c8.164-12.194,14.266-23.432,18.654-34.35
				c10.125-25.142,42.027-42.701,77.58-42.701c35.256,0,67.077,17.374,77.386,42.257c5.12,12.332,11.21,23.673,18.1,33.701
				c5.945,8.66,10.626,17.951,13.989,27.746H146.528C149.749,222.853,154.179,213.93,159.769,205.58z M164.141,387.614
				c-3.054,3.053-7.114,4.735-11.432,4.735c-4.318,0-8.378-1.683-11.433-4.736c-3.054-3.054-4.735-7.114-4.735-11.432
				c0-4.318,1.682-8.378,4.736-11.432l8.292-8.292c6.828,8.378,14.627,15.939,23.217,22.514L164.141,387.614z M255.173,385.628
				c-63.546-0.443-115.091-52.516-114.904-116.085c0.013-5.271,0.385-10.541,1.112-15.751h229.246
				c0.737,5.299,1.109,10.687,1.109,16.104c0,31.061-12.14,60.224-34.183,82.116C315.508,373.904,286.277,385.891,255.173,385.628z
				 M370.726,387.613c-3.054,3.054-7.115,4.736-11.433,4.736c-4.319,0-8.378-1.683-11.432-4.736l-8.564-8.564
				c4.69-3.595,9.185-7.508,13.448-11.742c3.466-3.443,6.721-7.042,9.768-10.772l8.212,8.212c3.054,3.054,4.736,7.114,4.736,11.432
				C375.461,380.498,373.779,384.559,370.726,387.613z"/>
			<circle cx="232.416" cy="292.056" r="10.779"/>
			<circle cx="280.382" cy="292.056" r="10.779"/>
			<path d="M239.479,187.109c-11.477-6.556-27.51-6.556-38.989,0c-5.17,2.951-6.968,9.535-4.016,14.706
				c2.952,5.17,9.536,6.969,14.706,4.015c4.937-2.819,12.673-2.819,17.61,0c1.686,0.964,3.523,1.421,5.334,1.421
				c3.744,0,7.381-1.953,9.37-5.436C246.447,196.644,244.649,190.06,239.479,187.109z"/>
			<path d="M311.51,187.109c-11.477-6.556-27.51-6.556-38.989,0c-5.17,2.951-6.968,9.535-4.016,14.706
				c2.952,5.17,9.536,6.969,14.706,4.015c4.937-2.819,12.673-2.819,17.61,0c1.686,0.964,3.523,1.421,5.334,1.421
				c3.744,0,7.381-1.953,9.37-5.436C318.477,196.644,316.679,190.06,311.51,187.109z"/>
		</g>
	</g>
</g>
<g>
</g>
<g>
</g>
<g>
</g>
<g>
</g>
<g>
</g>
<g>
</g>
<g>
</g>
<g>
</g>
<g>
</g>
<g>
</g>
<g>
</g>
<g>
</g>
<g>
</g>
<g>
</g>
<g>
</g>
</svg>
