<?xml version="1.0" encoding="iso-8859-1"?>
<!-- Generator: Adobe Illustrator 19.0.0, SVG Export Plug-In . SVG Version: 6.00 Build 0)  -->
<svg version="1.1" id="Layer_1" xmlns="http://www.w3.org/2000/svg" xmlns:xlink="http://www.w3.org/1999/xlink" x="0px" y="0px"
	 viewBox="0 0 512 512" style="enable-background:new 0 0 512 512;" xml:space="preserve">
<g transform="translate(1 1)">
	<g>
		<path style="fill:#FFE100;" d="M67.267,408.6v68.591c0,13.96,11.315,25.276,25.276,25.276h222.515
			c13.961,0,25.276-11.315,25.276-25.276V408.6H67.267z"/>
		<path style="fill:#FFE100;" d="M237.933,211.847V127c71.373,0,102.4-42.667,102.4-42.667v-46.31
			c0-16.836-13.653-30.49-30.498-30.49H97.765c-16.845,0-30.498,13.653-30.498,30.49v439.168c0,13.96,11.315,25.276,25.276,25.276
			h222.515c13.961,0,25.276-11.315,25.276-25.276V357.4c-17.647-5.299-32.87-14.131-45.781-24.388
			C258.081,304.015,237.933,258.772,237.933,211.847"/>
	</g>
	<path style="fill:#00DA6C;" d="M340.333,84.333c0,0-31.027,42.667-102.4,42.667v84.847c0,46.925,20.147,92.168,56.619,121.165
		c12.911,10.266,28.134,19.089,45.781,24.388c17.647-5.299,32.87-14.123,45.781-24.388c36.471-28.996,56.619-74.24,56.619-121.165
		V127C371.361,127,340.333,84.333,340.333,84.333"/>
	<path style="fill:#00AD55;" d="M417.133,127v84.847c0,46.925-20.147,92.168-56.619,121.165
		c-9.677,7.697-20.659,14.584-32.981,19.78c4.113,1.732,8.38,3.285,12.8,4.608c17.647-5.299,32.87-14.123,45.781-24.388
		c36.471-28.996,56.619-74.24,56.619-121.165V127H417.133z"/>
	<path style="fill:#63D3FD;" d="M211.634,468.333h-15.667c-5.103,0-9.233-4.13-9.233-9.233v-15.667c0-5.103,4.13-9.233,9.233-9.233
		h15.667c5.103,0,9.233,4.13,9.233,9.233V459.1C220.867,464.203,216.737,468.333,211.634,468.333"/>
	<path style="fill:#FFFFFF;" d="M93.191,477.191V32.801c0-13.952,11.315-25.267,25.276-25.267h-25.6
		c-13.96,0-25.276,11.315-25.276,25.267v444.39c0,13.96,11.315,25.276,25.276,25.276h25.6
		C104.506,502.467,93.191,491.152,93.191,477.191"/>
	<path d="M211.634,476.867h-15.667c-9.796,0-17.766-7.97-17.766-17.766v-15.667c0-9.796,7.97-17.766,17.766-17.766h15.667
		c9.796,0,17.766,7.97,17.766,17.766V459.1C229.4,468.897,221.43,476.867,211.634,476.867z M195.966,442.733
		c-0.392,0-0.7,0.307-0.7,0.7V459.1c0,0.392,0.307,0.7,0.7,0.7h15.667c0.392,0,0.7-0.307,0.7-0.7v-15.667c0-0.392-0.307-0.7-0.7-0.7
		H195.966z"/>
	<path d="M135.533,67.267H67.267c-4.71,0-8.533-3.823-8.533-8.533s3.823-8.533,8.533-8.533h68.267c4.71,0,8.533,3.823,8.533,8.533
		S140.244,67.267,135.533,67.267z"/>
	<path d="M315.058,511H92.543c-18.645,0-33.809-15.164-33.809-33.809v-77.124h290.133v77.124
		C348.867,495.836,333.703,511,315.058,511z M75.8,417.133v60.058c0,9.233,7.509,16.742,16.742,16.742h222.515
		c9.233,0,16.742-7.509,16.742-16.742v-60.058H75.8z"/>
	<path d="M340.333,365.933c-0.828,0-1.647-0.12-2.458-0.358c-17.135-5.154-33.502-13.858-48.632-25.882
		c-37.47-29.79-59.844-77.577-59.844-127.846V127c0-4.71,3.823-8.533,8.533-8.533c65.766,0,94.336-37.581,95.514-39.177
		c1.604-2.176,4.164-3.473,6.878-3.473c0.009,0,0.026,0,0.034,0c2.705,0.009,5.257,1.289,6.861,3.482
		c1.271,1.707,29.85,39.168,95.514,39.168c4.719,0,8.533,3.823,8.533,8.533v84.847c0,50.261-22.366,98.057-59.844,127.846
		c-15.13,12.023-31.496,20.736-48.632,25.882C341.98,365.814,341.161,365.933,340.333,365.933z M246.467,135.337v76.51
		c0,45.107,19.959,87.902,53.393,114.483c12.698,10.095,26.3,17.536,40.474,22.135c14.174-4.599,27.776-12.041,40.474-22.135
		c33.434-26.573,53.393-69.376,53.393-114.483v-76.51c-51.251-2.364-81.297-25.685-93.867-38.204
		C327.764,109.652,297.718,132.973,246.467,135.337z"/>
	<path d="M315.058,511H92.543c-18.645,0-33.809-15.164-33.809-33.809V38.023C58.733,16.51,76.244-1,97.765-1h212.07
		c21.521,0,39.032,17.502,39.032,39.023v46.31c0,1.801-0.572,3.558-1.63,5.018c-1.314,1.809-31.915,42.812-100.77,45.986v76.51
		c0,45.107,19.959,87.902,53.393,114.483c13.449,10.684,27.895,18.381,42.923,22.895c3.61,1.084,6.084,4.412,6.084,8.175v119.791
		C348.867,495.836,333.703,511,315.058,511z M97.765,16.067c-12.109,0-21.965,9.847-21.965,21.956v439.168
		c0,9.233,7.509,16.742,16.742,16.742h222.515c9.233,0,16.742-7.509,16.742-16.742V363.587
		c-14.916-5.265-29.21-13.295-42.556-23.893C251.775,309.895,229.4,262.1,229.4,211.847V127c0-4.71,3.823-8.533,8.533-8.533
		c57.805,0,86.878-29.03,93.867-37.146V38.023c0-12.1-9.856-21.956-21.965-21.956H97.765z"/>
</g>
<g>
</g>
<g>
</g>
<g>
</g>
<g>
</g>
<g>
</g>
<g>
</g>
<g>
</g>
<g>
</g>
<g>
</g>
<g>
</g>
<g>
</g>
<g>
</g>
<g>
</g>
<g>
</g>
<g>
</g>
</svg>
