<?xml version="1.0" encoding="iso-8859-1"?>
<!-- Generator: Adobe Illustrator 19.0.0, SVG Export Plug-In . SVG Version: 6.00 Build 0)  -->
<svg version="1.1" id="Layer_1" xmlns="http://www.w3.org/2000/svg" xmlns:xlink="http://www.w3.org/1999/xlink" x="0px" y="0px"
	 viewBox="0 0 512 512" style="enable-background:new 0 0 512 512;" xml:space="preserve">
<g transform="translate(1 1)">
	<path style="fill:#FDCC00;" d="M366.258,502.467H143.734c-13.96,0-25.267-11.315-25.267-25.276V32.809
		c0-13.96,11.307-25.276,25.267-25.276h222.524c13.961,0,25.276,11.315,25.276,25.276v444.382
		C391.542,491.152,380.218,502.467,366.258,502.467"/>
	<polygon style="fill:#FFE100;" points="118.467,434.2 391.533,434.2 391.533,58.733 118.467,58.733 	"/>
	<g>
		<path style="fill:#00DA6C;" d="M341.741,295.721l-28.433-20.685c-4.361-2.176-7.108-6.63-7.108-11.503v-13.235
			c0.947-1.075,2.031-2.466,3.191-4.104c4.591-6.494,7.484-8.047,9.89-15.539c4.326-1.34,7.518-5.333,7.518-10.086v-14.123
			c0-3.106-1.382-5.888-3.533-7.825V178.2c0,0,0.367-34.133-42.667-34.133s-39.723,32.367-39.723,32.367v20.42
			c-2.15,1.946-3.533,4.719-3.533,7.825v14.123c0,3.729,1.954,6.997,4.881,8.892C245.75,243.062,255,254.113,255,254.113v12.911
			c0,4.71-2.577,9.037-6.707,11.29l-31.496,17.186c-9.105,4.966-14.763,14.498-14.763,24.866V331.8H357.4v-10.743
			C357.4,310.33,351.333,300.517,341.741,295.721"/>
		<path style="fill:#00DA6C;" d="M216.796,295.499l20.992-11.452c-0.12-0.12-0.017-0.154,0.23-0.128l10.283-5.607
			c4.13-2.253,6.699-6.579,6.699-11.29v-12.911c0,0-3.746-4.497-7.39-11.725v-0.009c-0.478-0.947-0.947-1.946-1.408-2.987
			c-0.068-0.145-0.128-0.282-0.196-0.427c-0.469-1.067-0.922-2.176-1.357-3.328c-0.034-0.077-0.06-0.154-0.085-0.23
			c-0.384-1.024-0.742-2.082-1.084-3.166c-0.085-0.29-0.179-0.589-0.273-0.888c-0.35-1.195-0.691-2.407-0.981-3.661
			c-2.918-1.894-4.881-5.163-4.881-8.892v-14.123c0-3.106,1.382-5.879,3.533-7.825v-19.942c-4.992-3.874-16.546-7.245-28.544-7.245
			c-33.766,0-34.133,25.028-34.133,25.028v17.638c-1.852,1.673-3.533,4.07-3.533,6.758v12.194c0,3.217,1.69,6.05,4.215,7.68
			c3.055,13.269,15.932,25.745,15.932,25.745v11.145c0,4.062-2.219,7.808-5.794,9.754l-23.671,14.84
			c-7.859,4.284-12.749,12.518-12.749,21.47v9.882h49.434v-11.435C202.034,309.997,207.7,300.466,216.796,295.499"/>
	</g>
	<g>
		<path style="fill:#FFE100;" d="M468.333,178.2c-4.719,0-8.533-3.823-8.533-8.533v-34.133c0-4.71,3.814-8.533,8.533-8.533
			c4.719,0,8.533,3.823,8.533,8.533v34.133C476.867,174.377,473.052,178.2,468.333,178.2z"/>
		<path style="fill:#FFE100;" d="M485.4,161.133h-34.133c-4.719,0-8.533-3.823-8.533-8.533s3.814-8.533,8.533-8.533H485.4
			c4.719,0,8.533,3.823,8.533,8.533S490.119,161.133,485.4,161.133z"/>
		<path style="fill:#FFE100;" d="M41.667,7.533c0,18.867-15.266,34.133-34.133,34.133c18.867,0,34.133,15.266,34.133,34.133
			c0-18.867,15.266-34.133,34.133-34.133C56.933,41.667,41.667,26.401,41.667,7.533"/>
		<path style="fill:#FFE100;" d="M75.8,383c0,4.71-3.823,8.533-8.533,8.533s-8.533-3.823-8.533-8.533s3.823-8.533,8.533-8.533
			S75.8,378.29,75.8,383"/>
		<path style="fill:#FFE100;" d="M33.133,229.4c0,4.71-3.823,8.533-8.533,8.533s-8.533-3.823-8.533-8.533s3.823-8.533,8.533-8.533
			S33.133,224.69,33.133,229.4"/>
		<path style="fill:#FFE100;" d="M451.267,314.733c0,4.71-3.823,8.533-8.533,8.533s-8.533-3.823-8.533-8.533
			s3.823-8.533,8.533-8.533S451.267,310.023,451.267,314.733"/>
		<path style="fill:#FFE100;" d="M511,493.933c0,4.71-3.823,8.533-8.533,8.533s-8.533-3.823-8.533-8.533s3.823-8.533,8.533-8.533
			S511,489.223,511,493.933"/>
		<path style="fill:#FFE100;" d="M280.6,468.333c0,14.14-11.46,25.6-25.6,25.6c-14.14,0-25.6-11.46-25.6-25.6
			c0-14.14,11.46-25.6,25.6-25.6C269.14,442.733,280.6,454.194,280.6,468.333"/>
	</g>
	<path style="fill:#FFA800;" d="M366.258,7.533h-25.6c13.961,0,25.276,11.315,25.276,25.276v444.382
		c0,13.96-11.315,25.276-25.276,25.276h25.6c13.961,0,25.276-11.315,25.276-25.276V32.809
		C391.542,18.848,380.218,7.533,366.258,7.533"/>
	<path style="fill:#FFFFFF;" d="M143.742,7.533h25.6c-13.96,0-25.276,11.315-25.276,25.276v444.382
		c0,13.96,11.315,25.276,25.276,25.276h-25.6c-13.96,0-25.276-11.315-25.276-25.276V32.809
		C118.467,18.848,129.782,7.533,143.742,7.533"/>
	<path d="M366.258,511H143.734c-18.637,0-33.801-15.164-33.801-33.809V32.809C109.933,14.164,125.097-1,143.734-1h222.524
		c18.654,0,33.818,15.164,33.818,33.809v444.382C400.075,495.836,384.911,511,366.258,511z M143.734,16.067
		c-9.224,0-16.734,7.509-16.734,16.742v444.382c0,9.233,7.509,16.742,16.734,16.742h222.524c9.233,0,16.751-7.509,16.751-16.742
		V32.809c0-9.233-7.518-16.742-16.751-16.742H143.734z"/>
	<path d="M400.067,442.733H109.933V50.2h290.133V442.733z M127,425.667h256v-358.4H127V425.667z"/>
	<path d="M289.133,41.667h-42.667c-4.71,0-8.533-3.823-8.533-8.533s3.823-8.533,8.533-8.533h42.667c4.719,0,8.533,3.823,8.533,8.533
		S293.852,41.667,289.133,41.667z"/>
	<path d="M220.867,41.667h-8.533c-4.71,0-8.533-3.823-8.533-8.533s3.823-8.533,8.533-8.533h8.533c4.71,0,8.533,3.823,8.533,8.533
		S225.577,41.667,220.867,41.667z"/>
	<path d="M109.933,101.4c-4.71,0-8.533-3.823-8.533-8.533v-8.533c0-4.71,3.823-8.533,8.533-8.533c4.71,0,8.533,3.823,8.533,8.533
		v8.533C118.467,97.577,114.644,101.4,109.933,101.4z"/>
	<path d="M109.933,135.533c-4.71,0-8.533-3.823-8.533-8.533v-8.533c0-4.71,3.823-8.533,8.533-8.533c4.71,0,8.533,3.823,8.533,8.533
		V127C118.467,131.71,114.644,135.533,109.933,135.533z"/>
	<path d="M109.933,169.667c-4.71,0-8.533-3.823-8.533-8.533V152.6c0-4.71,3.823-8.533,8.533-8.533c4.71,0,8.533,3.823,8.533,8.533
		v8.533C118.467,165.844,114.644,169.667,109.933,169.667z"/>
	<path d="M255,502.467c-18.824,0-34.133-15.309-34.133-34.133c0-18.824,15.309-34.133,34.133-34.133s34.133,15.309,34.133,34.133
		C289.133,487.158,273.824,502.467,255,502.467z M255,451.267c-9.412,0-17.067,7.654-17.067,17.067
		c0,9.412,7.654,17.067,17.067,17.067s17.067-7.654,17.067-17.067C272.067,458.921,264.412,451.267,255,451.267z"/>
	<path d="M357.4,340.333H202.034c-4.71,0-8.533-3.814-8.533-8.533v-11.435c0-13.491,7.364-25.89,19.209-32.358l31.496-17.186
		c1.391-0.759,2.261-2.219,2.261-3.797V256.98c-3.004-4.19-8.661-13.082-11.819-24.448c-3.712-3.567-5.845-8.491-5.845-13.722
		v-14.123c0-3.942,1.254-7.782,3.533-10.991v-16.904c-0.213-3.072-0.478-16.154,9.429-27.127
		c8.457-9.37,21.521-14.114,38.818-14.114c16.794,0,29.926,4.676,39.049,13.892c12.186,12.322,12.16,28.194,12.151,28.868v17.16
		c2.278,3.2,3.533,7.048,3.533,10.999v14.123c0,6.827-3.593,12.954-9.284,16.35c-1.886,4.403-4.036,7.048-6.289,9.805
		c-1.007,1.237-2.133,2.611-3.396,4.395c-0.555,0.785-1.101,1.527-1.621,2.21v10.18c0,1.647,0.913,3.14,2.398,3.874
		c0.418,0.213,0.819,0.461,1.195,0.734l27.904,20.292c12.177,6.391,19.712,18.824,19.712,32.623V331.8
		C365.933,336.519,362.119,340.333,357.4,340.333z M210.567,323.267h138.3v-2.21c0-7.552-4.19-14.327-10.94-17.698
		c-0.418-0.205-0.828-0.461-1.203-0.734l-27.938-20.318c-6.878-3.763-11.119-10.88-11.119-18.773v-13.235
		c0-2.082,0.759-4.087,2.142-5.649c0.777-0.887,1.664-2.031,2.62-3.379c1.536-2.167,2.893-3.832,4.113-5.333
		c2.355-2.893,3.43-4.215,4.617-7.885c0.853-2.654,2.944-4.719,5.598-5.547c0.725-0.222,1.51-0.922,1.51-1.929v-14.123
		c0-0.734-0.452-1.246-0.717-1.485c-1.792-1.613-2.816-3.917-2.816-6.34V178.2c-0.017-2.637-1.152-25.6-34.133-25.6
		c-12.16,0-20.915,2.808-26.018,8.337c-5.803,6.298-5.205,14.635-5.205,14.72l0.034,21.197c0,2.415-1.024,4.71-2.807,6.323
		c-0.333,0.299-0.725,0.802-0.725,1.502v14.123c0,0.981,0.691,1.536,0.99,1.732c1.86,1.203,3.183,3.089,3.678,5.257
		c2.995,13.047,10.94,22.767,11.025,22.869c1.263,1.527,1.963,3.473,1.963,5.461v12.911c0,7.825-4.267,15.019-11.145,18.773
		L220.884,303c-6.366,3.465-10.317,10.129-10.317,17.374L210.567,323.267L210.567,323.267z"/>
	<path d="M202.034,340.333H152.6c-4.71,0-8.533-3.814-8.533-8.533v-9.882c0-12.083,6.588-23.177,17.195-28.962l23.219-14.584
		c1.289-0.717,1.792-1.579,1.792-2.517v-7.714c-4.07-4.454-11.588-13.713-14.916-24.32c-3.319-3.285-5.231-7.765-5.231-12.535
		v-12.194c0-3.507,1.237-6.963,3.533-10.027v-14.37c0.171-11.691,9.301-33.562,42.667-33.562c13.235,0,26.812,3.635,33.775,9.037
		c2.082,1.613,3.302,4.104,3.302,6.741v19.942c0,2.415-1.024,4.71-2.807,6.323c-0.333,0.299-0.725,0.802-0.725,1.502v14.123
		c0,1.007,0.76,1.587,0.998,1.732c1.86,1.212,3.174,3.089,3.669,5.248c0.248,1.084,0.546,2.133,0.853,3.166l0.248,0.811
		c0.273,0.853,0.58,1.775,0.913,2.663c0.452,1.203,0.845,2.167,1.254,3.098c0.58,1.306,0.99,2.176,1.408,3.004
		c3.115,6.187,6.323,10.112,6.349,10.146c1.254,1.527,1.963,3.465,1.963,5.444v12.911c0,7.825-4.267,15.019-11.136,18.773
		l-10.291,5.615c-0.043,0.017-0.077,0.043-0.12,0.06c-0.034,0.026-0.077,0.043-0.111,0.068l-20.992,11.452
		c-6.366,3.473-10.317,10.138-10.317,17.374V331.8C210.567,336.519,206.744,340.333,202.034,340.333z M161.133,323.267H193.5v-2.901
		c0-13.491,7.356-25.882,19.2-32.358l0,0l20.105-10.965c0.546-0.384,1.143-0.708,1.766-0.964l9.626-5.248
		c1.391-0.759,2.253-2.219,2.253-3.797V256.98c-1.647-2.304-4.096-6.024-6.477-10.743c-0.538-1.075-1.067-2.202-1.587-3.362
		c-0.734-1.655-1.246-2.91-1.741-4.207c-0.538-1.425-0.939-2.628-1.323-3.857c-0.017-0.051-0.307-0.998-0.324-1.049
		c-0.12-0.401-0.239-0.811-0.35-1.22c-3.721-3.576-5.862-8.499-5.862-13.739v-14.123c0-3.942,1.254-7.782,3.533-10.991v-11.827
		c-4.352-1.835-11.691-3.661-20.011-3.661c-23.646,0-25.472,13.952-25.6,16.742v17.391c0,2.415-1.024,4.71-2.816,6.332
		c-0.521,0.469-0.76,0.853-0.802,0.947l0.077,11.674c1.869,1.203,3.499,3.601,3.994,5.76c2.022,8.789,10.479,18.534,13.568,21.547
		c1.647,1.604,2.586,3.814,2.586,6.118v11.145c0,7.211-3.934,13.815-10.257,17.246l-23.211,14.575
		c-5.564,3.046-8.747,8.397-8.747,14.234v1.357H161.133z"/>
	<path d="M41.667,84.333c-4.71,0-8.533-3.823-8.533-8.533c0-14.114-11.486-25.6-25.6-25.6C2.823,50.2-1,46.377-1,41.667
		s3.823-8.533,8.533-8.533c14.114,0,25.6-11.486,25.6-25.6c0-4.71,3.823-8.533,8.533-8.533S50.2,2.823,50.2,7.533
		c0,14.114,11.486,25.6,25.6,25.6c4.71,0,8.533,3.823,8.533,8.533S80.51,50.2,75.8,50.2c-14.114,0-25.6,11.486-25.6,25.6
		C50.2,80.51,46.377,84.333,41.667,84.333z M33.108,41.667c3.234,2.432,6.127,5.325,8.559,8.559
		c2.432-3.234,5.325-6.127,8.559-8.559c-3.234-2.432-6.127-5.325-8.559-8.559C39.235,36.342,36.342,39.235,33.108,41.667z"/>
	<path d="M459.8,169.667c-4.719,0-8.533-3.823-8.533-8.533V127c0-4.71,3.814-8.533,8.533-8.533s8.533,3.823,8.533,8.533v34.133
		C468.333,165.844,464.519,169.667,459.8,169.667z"/>
	<path d="M476.867,152.6h-34.133c-4.719,0-8.533-3.823-8.533-8.533c0-4.71,3.814-8.533,8.533-8.533h34.133
		c4.719,0,8.533,3.823,8.533,8.533C485.4,148.777,481.586,152.6,476.867,152.6z"/>
	<path d="M67.267,374.467c0,4.71-3.823,8.533-8.533,8.533s-8.533-3.823-8.533-8.533s3.823-8.533,8.533-8.533
		S67.267,369.756,67.267,374.467"/>
	<path d="M24.6,220.867c0,4.71-3.823,8.533-8.533,8.533s-8.533-3.823-8.533-8.533s3.823-8.533,8.533-8.533
		S24.6,216.156,24.6,220.867"/>
	<path d="M442.733,306.2c0,4.71-3.823,8.533-8.533,8.533s-8.533-3.823-8.533-8.533s3.823-8.533,8.533-8.533
		S442.733,301.49,442.733,306.2"/>
	<path d="M502.467,485.4c0,4.71-3.823,8.533-8.533,8.533s-8.533-3.823-8.533-8.533s3.823-8.533,8.533-8.533
		S502.467,480.69,502.467,485.4"/>
</g>
<g>
</g>
<g>
</g>
<g>
</g>
<g>
</g>
<g>
</g>
<g>
</g>
<g>
</g>
<g>
</g>
<g>
</g>
<g>
</g>
<g>
</g>
<g>
</g>
<g>
</g>
<g>
</g>
<g>
</g>
</svg>
