<?xml version="1.0" encoding="iso-8859-1"?>
<!-- Generator: Adobe Illustrator 19.0.0, SVG Export Plug-In . SVG Version: 6.00 Build 0)  -->
<svg version="1.1" id="Layer_1" xmlns="http://www.w3.org/2000/svg" xmlns:xlink="http://www.w3.org/1999/xlink" x="0px" y="0px"
	 viewBox="0 0 512 512" style="enable-background:new 0 0 512 512;" xml:space="preserve">
<path style="fill:#CE8BD4;" d="M426.667,310.303H85.333c-12.853,0-23.273,10.42-23.273,23.273v155.152
	c0,12.853,10.42,23.273,23.273,23.273h341.333c12.853,0,23.273-10.42,23.273-23.273V333.576
	C449.939,320.723,439.519,310.303,426.667,310.303z"/>
<path style="fill:#BF6AC8;" d="M426.667,310.303H256V512h170.667c12.853,0,23.273-10.42,23.273-23.273V333.576
	C449.939,320.723,439.519,310.303,426.667,310.303z"/>
<path style="fill:#DBDDF6;" d="M364.606,124.121h-0.285L274.339,8.944C269.928,3.299,263.163,0,256,0s-13.928,3.299-18.339,8.944
	l-89.982,115.177h-0.285c-38.498,0-69.818,31.32-69.818,69.818s31.32,69.818,69.818,69.818c12.853,0,23.273-10.42,23.273-23.273
	h170.667c0,12.853,10.42,23.273,23.273,23.273c38.499,0,69.818-31.32,69.818-69.818S403.105,124.121,364.606,124.121z"/>
<path style="fill:#B4B6FC;" d="M457.697,217.212H54.303c-12.853,0-23.273,10.42-23.273,23.273v93.091
	c0,12.853,10.42,23.273,23.273,23.273h403.394c12.853,0,23.273-10.42,23.273-23.273v-93.091
	C480.97,227.632,470.55,217.212,457.697,217.212z"/>
<path style="fill:#C4C8F2;" d="M364.606,124.121h-0.285L274.339,8.944C269.928,3.299,263.163,0,256,0v240.485h85.333
	c0,12.853,10.42,23.273,23.273,23.273c38.499,0,69.818-31.32,69.818-69.818S403.105,124.121,364.606,124.121z"/>
<path style="fill:#6C6CFA;" d="M457.697,217.212H256v139.636h201.697c12.853,0,23.273-10.42,23.273-23.273v-93.091
	C480.97,227.632,470.55,217.212,457.697,217.212z"/>
<g>
</g>
<g>
</g>
<g>
</g>
<g>
</g>
<g>
</g>
<g>
</g>
<g>
</g>
<g>
</g>
<g>
</g>
<g>
</g>
<g>
</g>
<g>
</g>
<g>
</g>
<g>
</g>
<g>
</g>
</svg>
