<?xml version="1.0" encoding="iso-8859-1"?>
<!-- Generator: Adobe Illustrator 19.0.0, SVG Export Plug-In . SVG Version: 6.00 Build 0)  -->
<svg version="1.1" id="Layer_1" xmlns="http://www.w3.org/2000/svg" xmlns:xlink="http://www.w3.org/1999/xlink" x="0px" y="0px"
	 viewBox="0 0 512 512" style="enable-background:new 0 0 512 512;" xml:space="preserve">
<path style="fill:#DBDDF6;" d="M256,0C114.842,0,0,114.842,0,256c0,36.288,7.405,71.246,22.022,104.031L0.344,484.743
	c-1.297,7.461,1.119,15.087,6.473,20.441c4.402,4.4,10.336,6.816,16.454,6.816c1.325,0,2.659-0.112,3.987-0.344l124.709-21.681
	C184.754,504.595,219.713,512,256,512c141.158,0,256-114.842,256-256S397.16,0,256,0z"/>
<path style="fill:#C4C8F2;" d="M256,0v512c141.158,0,256-114.842,256-256S397.16,0,256,0z"/>
<path style="fill:#BF6AC8;" d="M395.636,325.818h-93.091c-9.413,0-17.898-5.669-21.501-14.367
	c-3.601-8.696-1.61-18.707,5.046-25.363l53.361-53.361h-36.906c-12.853,0-23.273-10.42-23.273-23.273
	c0-12.853,10.42-23.273,23.273-23.273h93.091c9.413,0,17.898,5.669,21.501,14.367c3.601,8.696,1.61,18.707-5.046,25.363
	l-53.361,53.361h36.906c12.853,0,23.273,10.42,23.273,23.273S408.489,325.818,395.636,325.818z"/>
<path style="fill:#CE8BD4;" d="M209.455,325.818h-93.091c-9.413,0-17.898-5.669-21.501-14.367
	c-3.601-8.696-1.61-18.707,5.046-25.363l53.361-53.361h-36.906c-12.853,0-23.273-10.42-23.273-23.273
	c0-12.853,10.42-23.273,23.273-23.273h93.091c9.413,0,17.898,5.669,21.501,14.367c3.601,8.696,1.61,18.707-5.046,25.363
	l-53.361,53.361h36.906c12.853,0,23.273,10.42,23.273,23.273S222.307,325.818,209.455,325.818z"/>
<g>
</g>
<g>
</g>
<g>
</g>
<g>
</g>
<g>
</g>
<g>
</g>
<g>
</g>
<g>
</g>
<g>
</g>
<g>
</g>
<g>
</g>
<g>
</g>
<g>
</g>
<g>
</g>
<g>
</g>
</svg>
