<?xml version="1.0" encoding="iso-8859-1"?>
<!-- Generator: Adobe Illustrator 19.0.0, SVG Export Plug-In . SVG Version: 6.00 Build 0)  -->
<svg version="1.1" id="Layer_1" xmlns="http://www.w3.org/2000/svg" xmlns:xlink="http://www.w3.org/1999/xlink" x="0px" y="0px"
	 viewBox="0 0 512 512" style="enable-background:new 0 0 512 512;" xml:space="preserve">
<g>
	<g>
		<path d="M427.479,252.827l-95.37-95.37v-46.754C332.108,41.513,256,0,256,0s-76.108,41.513-76.108,110.703v46.754l-95.37,95.37
			L65.075,359.784h114.817v41.513C179.892,470.487,256,512,256,512s76.108-41.513,76.108-110.703v-41.513h114.817L427.479,252.827z
			 M179.892,318.27h-65.075l8.229-45.259l56.846-56.846V318.27z M266.012,451.909c-3.363,3.457-6.765,6.578-10.012,9.335
			c-3.246-2.756-6.649-5.878-10.012-9.335c-16.312-16.772-24.583-33.8-24.583-50.612h69.189
			C290.595,418.109,282.324,435.138,266.012,451.909z M290.595,359.784h-69.189V110.703c0-16.812,8.271-33.84,24.583-50.612
			c3.347-3.441,6.735-6.549,9.967-9.298c15.573,13.21,34.639,34.561,34.639,59.91V359.784z M332.108,318.27V216.165l56.846,56.846
			l8.229,45.259H332.108z"/>
	</g>
</g>
<g>
</g>
<g>
</g>
<g>
</g>
<g>
</g>
<g>
</g>
<g>
</g>
<g>
</g>
<g>
</g>
<g>
</g>
<g>
</g>
<g>
</g>
<g>
</g>
<g>
</g>
<g>
</g>
<g>
</g>
</svg>
