<?xml version="1.0" encoding="iso-8859-1"?>
<!-- Generator: Adobe Illustrator 19.0.0, SVG Export Plug-In . SVG Version: 6.00 Build 0)  -->
<svg version="1.1" id="Layer_1" xmlns="http://www.w3.org/2000/svg" xmlns:xlink="http://www.w3.org/1999/xlink" x="0px" y="0px"
	 viewBox="0 0 512 512" style="enable-background:new 0 0 512 512;" xml:space="preserve">
<g>
	<g>
		<path d="M435.155,116.364h-41.461C382.613,50.323,325.188,0,256,0c-69.19,0-126.615,50.323-137.695,116.364h-1.941H76.845
			L34.237,512h46.814l37.46-347.844c10.252,57.879,56.16,103.433,114.216,113.174V512h46.545V277.332
			c58.053-9.74,103.961-55.293,114.215-113.171L430.947,512h46.815L435.155,116.364z M232.727,229.783
			c-32.664-8.439-58.435-34.208-66.872-66.873h66.872V229.783z M279.273,229.783v-66.873h66.872
			C337.706,195.573,311.937,221.344,279.273,229.783z M165.854,116.364C176.215,76.259,212.702,46.545,256,46.545
			c43.297,0,79.785,29.713,90.145,69.818H165.854z"/>
	</g>
</g>
<g>
</g>
<g>
</g>
<g>
</g>
<g>
</g>
<g>
</g>
<g>
</g>
<g>
</g>
<g>
</g>
<g>
</g>
<g>
</g>
<g>
</g>
<g>
</g>
<g>
</g>
<g>
</g>
<g>
</g>
</svg>
