<?xml version="1.0" encoding="iso-8859-1"?>
<!-- Generator: Adobe Illustrator 19.0.0, SVG Export Plug-In . SVG Version: 6.00 Build 0)  -->
<svg version="1.1" id="Layer_1" xmlns="http://www.w3.org/2000/svg" xmlns:xlink="http://www.w3.org/1999/xlink" x="0px" y="0px"
	 viewBox="0 0 512.001 512.001" style="enable-background:new 0 0 512.001 512.001;" xml:space="preserve">
<path style="fill:#47CEAC;" d="M0.001,256.006c0,141.395,114.606,255.998,255.996,255.994
	c141.398,0.004,256.004-114.598,256.004-255.994C512.009,114.61,397.395,0,255.996,0C114.606,0,0.001,114.614,0.001,256.006z"/>
<path style="fill:#36BB9A;" d="M512.001,256.005c0-5.612-0.243-11.162-0.6-16.683c-0.182-0.181-0.341-0.385-0.549-0.549
	c-0.34-0.43-0.709-0.798-1.139-1.138c-0.34-0.429-147.438-147.526-147.867-147.867c-0.34-0.429-0.708-0.798-1.137-1.137
	c-1.298-1.638-3.217-2.755-5.471-2.755H156.762c-3.918,0-7.089,3.173-7.089,7.089v42.53c0,2.253,1.117,4.173,2.754,5.471
	c0.34,0.429,0.708,0.798,1.137,1.137c0.34,0.429,94.99,95.108,95.346,95.411v103.547h-28.353c-3.918,0-7.089,3.173-7.089,7.089
	c0,2.253,1.117,4.173,2.754,5.471c0.34,0.429,0.708,0.798,1.137,1.137c0.34,0.429,0.708,0.798,1.137,1.137
	c0.34,0.429,20.53,20.567,20.565,20.609h-51.14c-0.102-0.117-0.141-0.268-0.253-0.38c-0.202-0.202-0.465-0.282-0.684-0.453
	c-0.173-0.219-0.252-0.482-0.453-0.684s-30.038-29.855-30.257-30.028c-0.173-0.219-0.252-0.482-0.453-0.684
	c-0.202-0.202-0.465-0.282-0.684-0.453c-0.173-0.219-0.252-0.482-0.453-0.684c-2.769-2.769-7.254-2.769-10.023,0l-35.443,35.442
	c-2.769,2.769-2.769,7.255,0,10.025l1.137,1.137l9.099,9.099l0.001,0.001l1.137,1.137l9.099,9.099l0.001,0.001l1.137,1.137
	l9.099,9.099l0.001,0.001l1.137,1.137l4.641,4.641l83.602,83.601l2.106,2.106c8.093,0.771,16.286,1.2,24.58,1.2
	C397.395,512.004,512.001,397.401,512.001,256.005z"/>
<g>
	<path style="fill:#F4F6F9;" d="M156.762,142.585c3.918,0,7.088-3.174,7.088-7.088v-35.443h85.061v241.008h-28.354
		c-3.918,0-7.088,3.173-7.088,7.088c0,3.915,3.17,7.088,7.088,7.088h70.884c3.918,0,7.088-3.174,7.088-7.088
		s-3.17-7.088-7.088-7.088h-28.354V100.053h85.061v35.442c0,3.915,3.17,7.088,7.088,7.088s7.088-3.174,7.088-7.088v-42.53
		c0-3.915-3.17-7.088-7.088-7.088H156.762c-3.918,0-7.088,3.174-7.088,7.088v42.531
		C149.673,139.411,152.844,142.585,156.762,142.585z"/>
	<path style="fill:#F4F6F9;" d="M402.781,378.58l-35.442-35.442c-2.769-2.769-7.254-2.769-10.023,0
		c-2.769,2.769-2.769,7.254,0,10.023l23.342,23.342H131.344l23.342-23.342c2.769-2.769,2.769-7.254,0-10.023
		c-2.769-2.769-7.254-2.769-10.023,0L109.22,378.58c-2.769,2.769-2.769,7.254,0,10.023l35.442,35.442
		c1.385,1.385,3.198,2.077,5.012,2.077c1.813,0,3.628-0.692,5.012-2.077c2.769-2.769,2.769-7.254,0-10.023l-23.342-23.342h249.314
		l-23.342,23.342c-2.769,2.769-2.769,7.254,0,10.023c1.385,1.385,3.198,2.077,5.012,2.077c1.813,0,3.628-0.692,5.012-2.077
		l35.442-35.442C405.551,385.835,405.551,381.349,402.781,378.58z"/>
</g>
<g>
</g>
<g>
</g>
<g>
</g>
<g>
</g>
<g>
</g>
<g>
</g>
<g>
</g>
<g>
</g>
<g>
</g>
<g>
</g>
<g>
</g>
<g>
</g>
<g>
</g>
<g>
</g>
<g>
</g>
</svg>
