<?xml version="1.0" encoding="iso-8859-1"?>
<!-- Generator: Adobe Illustrator 19.0.0, SVG Export Plug-In . SVG Version: 6.00 Build 0)  -->
<svg version="1.1" id="Layer_1" xmlns="http://www.w3.org/2000/svg" xmlns:xlink="http://www.w3.org/1999/xlink" x="0px" y="0px"
	 viewBox="0 0 512 512" style="enable-background:new 0 0 512 512;" xml:space="preserve">
<path d="M382.68,0H129.32c-16.007,0-29.031,13.023-29.031,29.031v453.938c0,16.008,13.024,29.031,29.031,29.031H382.68
	c16.007,0,29.031-13.023,29.031-29.031V29.031C411.711,13.023,398.688,0,382.68,0z M129.32,15.835H382.68
	c7.277,0,13.196,5.919,13.196,13.196V63.34H116.124V29.031C116.124,21.754,122.043,15.835,129.32,15.835z M395.876,79.175v353.65
	H116.124V79.175H395.876z M382.68,496.165H129.32c-7.277,0-13.196-5.919-13.196-13.196V448.66h279.753v34.309
	C395.876,490.246,389.957,496.165,382.68,496.165z"/>
<rect x="203.217" y="31.67" width="105.567" height="15.835"/>
<rect x="324.619" y="31.67" width="21.113" height="15.835"/>
<rect x="166.268" y="31.67" width="21.113" height="15.835"/>
<rect x="240.165" y="464.495" width="31.67" height="15.835"/>
<polygon points="147.794,110.845 182.103,110.845 182.103,95.01 131.959,95.01 131.959,182.103 147.794,182.103 "/>
<rect x="131.959" y="197.938" width="15.835" height="21.113"/>
<rect x="356.289" y="95.01" width="21.113" height="15.835"/>
<rect x="356.289" y="126.68" width="21.113" height="15.835"/>
<rect x="324.619" y="95.01" width="21.113" height="15.835"/>
<path d="M256,401.155c39.292,0,71.258-31.966,71.258-71.258c0-25.958-14.343-49.916-36.948-62.396V110.845h-68.619V267.5
	c-22.605,12.48-36.948,36.439-36.948,62.396C184.742,369.189,216.708,401.155,256,401.155z M232.924,279.553l4.602-2.123V126.68
	h36.948v150.75l4.602,2.122c19.65,9.063,32.347,28.824,32.347,50.345c0,30.561-24.863,55.423-55.423,55.423
	s-55.423-24.862-55.423-55.423C200.577,308.376,213.274,288.615,232.924,279.553z"/>
<path d="M256,358.928c16.007,0,29.031-13.023,29.031-29.031c0-13.262-8.944-24.468-21.113-27.925V192.66h-15.835v109.313
	c-12.17,3.456-21.113,14.662-21.113,27.925C226.969,345.905,239.993,358.928,256,358.928z M256,316.701
	c7.277,0,13.196,5.919,13.196,13.196s-5.919,13.196-13.196,13.196c-7.277,0-13.196-5.919-13.196-13.196S248.723,316.701,256,316.701
	z"/>
<rect x="245.443" y="163.629" width="21.113" height="15.835"/>
<g>
</g>
<g>
</g>
<g>
</g>
<g>
</g>
<g>
</g>
<g>
</g>
<g>
</g>
<g>
</g>
<g>
</g>
<g>
</g>
<g>
</g>
<g>
</g>
<g>
</g>
<g>
</g>
<g>
</g>
</svg>
