<?xml version="1.0" encoding="iso-8859-1"?>
<!-- Generator: Adobe Illustrator 19.0.0, SVG Export Plug-In . SVG Version: 6.00 Build 0)  -->
<svg version="1.1" id="Layer_1" xmlns="http://www.w3.org/2000/svg" xmlns:xlink="http://www.w3.org/1999/xlink" x="0px" y="0px"
	 viewBox="0 0 511.999 511.999" style="enable-background:new 0 0 511.999 511.999;" xml:space="preserve">
<path style="fill:#6D6459;" d="M425.308,181.053c-10.91,0-19.756-8.845-19.756-19.756v-37.661c0-10.91,8.845-19.756,19.756-19.756
	s19.756,8.845,19.756,19.756v37.661C445.064,172.208,436.219,181.053,425.308,181.053z"/>
<path style="fill:#897D70;" d="M151.252,181.053c-10.91,0-19.756-8.845-19.756-19.756v-37.661c0-10.91,8.845-19.756,19.756-19.756
	s19.756,8.845,19.756,19.756v37.661C171.007,172.208,162.162,181.053,151.252,181.053z"/>
<path style="fill:#C36F47;" d="M492.574,186.676c-8.715,0-15.64-7-15.64-15.715c0-10.91-8.681-19.666-19.591-19.666H119.219
	c-10.91,0-19.756,8.756-19.756,19.666c0,8.715-6.938,15.76-15.653,15.76c-10.91,0-19.604,8.8-19.604,19.711v98.725
	c0,10.91,8.694,19.756,19.604,19.756c8.715,0,15.728,7.206,15.728,15.92c0,10.91,8.769,19.872,19.679,19.872h338.124
	c10.91,0,19.756-8.961,19.756-19.872c0-8.715,6.76-15.862,15.475-15.862c10.91,0,19.426-8.903,19.426-19.814v-98.725
	C512,195.521,503.484,186.676,492.574,186.676z"/>
<path style="fill:#E5E3DC;" d="M425.487,306.028H150.718c-10.812,0-19.577-8.765-19.577-19.577v-60.907
	c0-10.812,8.765-19.577,19.577-19.577h274.77c10.812,0,19.577,8.765,19.577,19.577v60.907
	C445.064,297.264,436.299,306.028,425.487,306.028z"/>
<path style="fill:#8496B7;" d="M19.756,422.934C8.845,422.934,0,414.089,0,403.179V222.086C0,148.738,59.674,89.064,133.021,89.064
	h344.406c10.91,0,19.756,8.845,19.756,19.756s-8.845,19.756-19.756,19.756H133.021c-51.561,0-93.51,41.949-93.51,93.51v181.093
	C39.511,414.089,30.666,422.934,19.756,422.934z"/>
<path style="fill:#E27F52;" d="M288.103,151.295H119.219c-10.91,0-19.756,8.756-19.756,19.666c0,8.715-6.938,15.76-15.653,15.76
	c-10.91,0-19.604,8.8-19.604,19.711v98.725c0,10.91,8.694,19.756,19.604,19.756c8.715,0,15.728,7.206,15.728,15.92
	c0,10.91,8.769,19.872,19.679,19.872h168.884L288.103,151.295z"/>
<path style="fill:#D8D6CE;" d="M425.487,306.028H288.103H150.718c-10.812,0-19.577-8.765-19.577-19.577v-60.907
	c0-10.812,8.765-19.577,19.577-19.577h137.385h137.385c10.812,0,19.577,8.765,19.577,19.577v60.907
	C445.064,297.264,436.299,306.028,425.487,306.028z"/>
<path style="fill:#E5E3DC;" d="M288.103,306.028H150.718c-10.812,0-19.577-8.765-19.577-19.577v-60.907
	c0-10.812,8.765-19.577,19.577-19.577h137.385V306.028z"/>
<path style="fill:#98ADD4;" d="M19.756,422.934C8.845,422.934,0,414.089,0,403.179V222.086C0,148.738,59.674,89.064,133.021,89.064
	h155.082v39.511H133.021c-51.561,0-93.51,41.949-93.51,93.51v181.093C39.511,414.089,30.666,422.934,19.756,422.934z"/>
<g>
</g>
<g>
</g>
<g>
</g>
<g>
</g>
<g>
</g>
<g>
</g>
<g>
</g>
<g>
</g>
<g>
</g>
<g>
</g>
<g>
</g>
<g>
</g>
<g>
</g>
<g>
</g>
<g>
</g>
</svg>
