<?xml version="1.0" encoding="iso-8859-1"?>
<!-- Generator: Adobe Illustrator 19.0.0, SVG Export Plug-In . SVG Version: 6.00 Build 0)  -->
<svg version="1.1" id="Layer_1" xmlns="http://www.w3.org/2000/svg" xmlns:xlink="http://www.w3.org/1999/xlink" x="0px" y="0px"
	 viewBox="0 0 360 360" style="enable-background:new 0 0 360 360;" xml:space="preserve">
<g id="XMLID_888_">
	<g>
		<g>
			<path d="M270.855,174.584V90.855C270.855,40.758,230.098,0,180,0S89.145,40.758,89.145,90.855v83.729
				C74.02,194.055,65,218.493,65,245c0,63.411,51.589,115,115,115s115-51.589,115-115C295,218.493,285.98,194.055,270.855,174.584z
				 M109.145,90.855C109.145,51.785,140.93,20,180,20s70.855,31.785,70.855,70.855v63.626C231.314,139.151,206.706,130,180,130
				s-51.314,9.151-70.855,24.482V90.855z M180,340c-52.383,0-95-42.617-95-95s42.617-95,95-95s95,42.617,95,95S232.383,340,180,340z
				"/>
			<path d="M180,196.818c-16.041,0-29.091,13.05-29.091,29.091c0,12.529,7.961,23.233,19.091,27.319v29.953h20v-29.953
				c11.129-4.086,19.091-14.791,19.091-27.319C209.091,209.868,196.041,196.818,180,196.818z M180,235
				c-5.013,0-9.091-4.078-9.091-9.091s4.078-9.091,9.091-9.091s9.091,4.078,9.091,9.091S185.013,235,180,235z"/>
		</g>
	</g>
</g>
<g>
</g>
<g>
</g>
<g>
</g>
<g>
</g>
<g>
</g>
<g>
</g>
<g>
</g>
<g>
</g>
<g>
</g>
<g>
</g>
<g>
</g>
<g>
</g>
<g>
</g>
<g>
</g>
<g>
</g>
</svg>
