<?xml version="1.0" encoding="iso-8859-1"?>
<!-- Generator: Adobe Illustrator 18.0.0, SVG Export Plug-In . SVG Version: 6.00 Build 0)  -->
<!DOCTYPE svg PUBLIC "-//W3C//DTD SVG 1.1//EN" "http://www.w3.org/Graphics/SVG/1.1/DTD/svg11.dtd">
<svg version="1.1" id="Capa_1" xmlns="http://www.w3.org/2000/svg" xmlns:xlink="http://www.w3.org/1999/xlink" x="0px" y="0px"
	 viewBox="0 0 241.01 241.01" style="enable-background:new 0 0 241.01 241.01;" xml:space="preserve">
<path d="M177.428,181.566v-35.539c0-58.572-37.128-88.574-49.423-96.902V7.5c0-4.142-3.358-7.5-7.5-7.5c-4.142,0-7.5,3.358-7.5,7.5
	v41.624c-12.294,8.328-49.423,38.33-49.423,96.902v35.539c-9.515,6.877-15.447,25.342-15.447,33.811
	c0,14.374,8.762,25.633,19.947,25.633c11.186,0,19.947-11.259,19.947-25.633c0-4.958-0.543-26.011-9.447-33.668v-35.683
	c0-24.985,7.61-47.043,22.618-65.56c7.447-9.188,14.985-15.203,19.311-18.267c10.835,7.673,41.917,34.031,41.917,83.826v35.683
	c-8.904,7.657-9.447,28.71-9.447,33.668c0,14.374,8.762,25.633,19.947,25.633c11.186,0,19.947-11.259,19.947-25.633
	C192.875,206.907,186.943,188.442,177.428,181.566z M68.082,226.01c-1.699,0-4.947-4.141-4.947-10.633
	c0-5.954,3.947-15.2,7.078-19.527c1.478,4.182,2.816,12.008,2.816,19.527C73.029,221.869,69.781,226.01,68.082,226.01z
	 M172.928,226.01c-1.699,0-4.947-4.141-4.947-10.633c0-7.52,1.338-15.346,2.816-19.527c3.131,4.327,7.078,13.573,7.078,19.527
	C177.875,221.869,174.626,226.01,172.928,226.01z"/>
<g>
</g>
<g>
</g>
<g>
</g>
<g>
</g>
<g>
</g>
<g>
</g>
<g>
</g>
<g>
</g>
<g>
</g>
<g>
</g>
<g>
</g>
<g>
</g>
<g>
</g>
<g>
</g>
<g>
</g>
</svg>
