<?xml version="1.0" encoding="iso-8859-1"?>
<!-- Generator: Adobe Illustrator 19.0.0, SVG Export Plug-In . SVG Version: 6.00 Build 0)  -->
<svg version="1.1" id="Layer_1" xmlns="http://www.w3.org/2000/svg" xmlns:xlink="http://www.w3.org/1999/xlink" x="0px" y="0px"
	 viewBox="0 0 512 512" style="enable-background:new 0 0 512 512;" xml:space="preserve">
<g>
	<path style="fill:#231F20;" d="M508.402,449.374l-39.104-33.89c-4.353-3.771-10.937-3.302-14.709,1.051
		c-3.772,4.352-3.301,10.938,1.05,14.709l17.979,15.582h-69.197v-2.086c0-5.759-4.67-10.428-10.428-10.428
		s-10.428,4.668-10.428,10.428v2.086h-52.139v-2.086c0-5.759-4.669-10.428-10.428-10.428s-10.428,4.668-10.428,10.428v2.086h-52.139
		v-2.086c0-5.759-4.67-10.428-10.428-10.428s-10.428,4.668-10.428,10.428v2.086H185.44v-2.086c0-5.759-4.67-10.428-10.428-10.428
		s-10.428,4.668-10.428,10.428v2.086h-52.138v-2.086c0-5.759-4.67-10.428-10.428-10.428s-10.428,4.668-10.428,10.428v2.086H59.959
		V179.273l39.883-62.467l64.903,163.491c-0.099,0.577-0.162,1.167-0.162,1.772v12.513c0,5.759,4.67,10.428,10.428,10.428
		s10.428-4.668,10.428-10.428v-12.513c0-0.328-0.02-0.652-0.049-0.972l59.514-90.406l65.892,197.675
		c-0.146,0.694-0.224,1.414-0.224,2.151v12.513c0,5.759,4.67,10.428,10.428,10.428s10.428-4.668,10.428-10.428v-12.513
		c0-0.064-0.008-0.126-0.009-0.19l52.148-52.149v10.629c0,5.759,4.67,10.428,10.428,10.428s10.428-4.668,10.428-10.428v-12.513
		c0-0.991-0.147-1.946-0.406-2.854l56.754,42.159c4.624,3.433,11.155,2.471,14.588-2.152c3.435-4.624,2.47-11.154-2.152-14.589
		l-72.994-54.224c-4.149-3.085-9.932-2.66-13.591,0.997l-61.064,61.064l-67.658-202.975c-1.264-3.788-4.58-6.524-8.538-7.042
		c-3.966-0.517-7.869,1.27-10.064,4.606l-61.981,94.154L111.71,90.176c-1.445-3.638-4.804-6.162-8.702-6.533
		c-3.898-0.38-7.674,1.47-9.78,4.769l-33.269,52.107V46.723l15.582,17.979c2.063,2.38,4.965,3.599,7.884,3.599
		c2.42,0,4.852-0.838,6.825-2.547c4.353-3.772,4.823-10.358,1.051-14.709l-33.89-39.104c-0.484-0.558-0.845-0.911-1.118-1.1
		C55.386,10.066,54.34,9.434,53.177,9c-4.078-1.52-8.673-0.349-11.525,2.941L7.762,51.045C3.99,55.396,4.46,61.982,8.811,65.754
		c4.353,3.771,10.937,3.302,14.709-1.051l15.583-17.979v400.104H10.428C4.67,446.827,0,451.495,0,457.255s4.67,10.428,10.428,10.428
		h28.676v25.548c0,5.759,4.67,10.428,10.428,10.428s10.428-4.668,10.428-10.428v-25.548h413.66l-17.979,15.582
		c-4.353,3.772-4.823,10.358-1.051,14.709c2.063,2.38,4.965,3.599,7.884,3.599c2.42,0,4.852-0.838,6.825-2.547l39.104-33.89
		c0.034-0.03,0.056-0.057,0.09-0.088c1.247-1.107,2.242-2.514,2.851-4.148C512.863,456.82,511.691,452.225,508.402,449.374z"/>
	<path style="fill:#231F20;" d="M393.993,380.09c-5.758,0-10.428,4.668-10.428,10.428v12.513c0,5.759,4.67,10.428,10.428,10.428
		s10.428-4.668,10.428-10.428v-12.513C404.421,384.758,399.751,380.09,393.993,380.09z"/>
	<path style="fill:#231F20;" d="M248.005,380.09c-5.758,0-10.428,4.668-10.428,10.428v12.513c0,5.759,4.67,10.428,10.428,10.428
		s10.428-4.668,10.428-10.428v-12.513C258.433,384.758,253.763,380.09,248.005,380.09z"/>
	<path style="fill:#231F20;" d="M258.433,282.069c0-5.759-4.67-10.428-10.428-10.428s-10.428,4.668-10.428,10.428v12.513
		c0,5.759,4.67,10.428,10.428,10.428s10.428-4.668,10.428-10.428V282.069z"/>
	<path style="fill:#231F20;" d="M258.433,336.293c0-5.759-4.67-10.428-10.428-10.428s-10.428,4.668-10.428,10.428v12.513
		c0,5.759,4.67,10.428,10.428,10.428s10.428-4.668,10.428-10.428V336.293z"/>
	<path style="fill:#231F20;" d="M185.439,336.293c0-5.759-4.67-10.428-10.428-10.428s-10.428,4.668-10.428,10.428v12.513
		c0,5.759,4.67,10.428,10.428,10.428s10.428-4.668,10.428-10.428V336.293z"/>
	<path style="fill:#231F20;" d="M175.011,380.09c-5.758,0-10.428,4.668-10.428,10.428v12.513c0,5.759,4.67,10.428,10.428,10.428
		s10.428-4.668,10.428-10.428v-12.513C185.439,384.758,180.769,380.09,175.011,380.09z"/>
	<path style="fill:#231F20;" d="M102.017,380.09c-5.758,0-10.428,4.668-10.428,10.428v12.513c0,5.759,4.67,10.428,10.428,10.428
		s10.428-4.668,10.428-10.428v-12.513C112.445,384.758,107.775,380.09,102.017,380.09z"/>
	<path style="fill:#231F20;" d="M112.445,227.845c0-5.759-4.67-10.428-10.428-10.428s-10.428,4.668-10.428,10.428v12.513
		c0,5.759,4.67,10.428,10.428,10.428s10.428-4.668,10.428-10.428V227.845z"/>
	<path style="fill:#231F20;" d="M112.445,336.293c0-5.759-4.67-10.428-10.428-10.428s-10.428,4.668-10.428,10.428v12.513
		c0,5.759,4.67,10.428,10.428,10.428s10.428-4.668,10.428-10.428V336.293z"/>
	<path style="fill:#231F20;" d="M112.445,173.621c0-5.759-4.67-10.428-10.428-10.428s-10.428,4.668-10.428,10.428v12.513
		c0,5.759,4.67,10.428,10.428,10.428s10.428-4.668,10.428-10.428V173.621z"/>
	<path style="fill:#231F20;" d="M112.445,282.069c0-5.759-4.67-10.428-10.428-10.428S91.59,276.31,91.59,282.069v12.513
		c0,5.759,4.67,10.428,10.428,10.428s10.428-4.668,10.428-10.428V282.069z"/>
</g>
<g>
</g>
<g>
</g>
<g>
</g>
<g>
</g>
<g>
</g>
<g>
</g>
<g>
</g>
<g>
</g>
<g>
</g>
<g>
</g>
<g>
</g>
<g>
</g>
<g>
</g>
<g>
</g>
<g>
</g>
</svg>
