<?xml version="1.0" encoding="iso-8859-1"?>
<!-- Generator: Adobe Illustrator 19.0.0, SVG Export Plug-In . SVG Version: 6.00 Build 0)  -->
<svg version="1.1" id="Layer_1" xmlns="http://www.w3.org/2000/svg" xmlns:xlink="http://www.w3.org/1999/xlink" x="0px" y="0px"
	 viewBox="0 0 512 512" style="enable-background:new 0 0 512 512;" xml:space="preserve">
<g>
	<g>
		<path d="M365.378,135.315v-29.092c0-30.267-24.625-54.892-54.893-54.892H201.518c-30.268,0-54.893,24.625-54.893,54.892v29.093H0
			v155.618h28.755v169.735h454.489V290.933H512V135.315H365.378z M180.014,106.223c0-11.855,9.646-21.501,21.502-21.501h108.967
			c11.856,0,21.502,9.646,21.502,21.501v29.093h-151.97V106.223z M449.853,427.276H62.147V290.933h133.508v83.985h120.69v-83.985
			h133.508V427.276z M229.047,341.526v-50.593h53.907v50.593H229.047z M478.609,257.542H316.345h-120.69H33.391v-88.835h445.217
			V257.542z"/>
	</g>
</g>
<g>
</g>
<g>
</g>
<g>
</g>
<g>
</g>
<g>
</g>
<g>
</g>
<g>
</g>
<g>
</g>
<g>
</g>
<g>
</g>
<g>
</g>
<g>
</g>
<g>
</g>
<g>
</g>
<g>
</g>
</svg>
