<?xml version="1.0" encoding="iso-8859-1"?>
<!-- Generator: Adobe Illustrator 19.0.0, SVG Export Plug-In . SVG Version: 6.00 Build 0)  -->
<svg version="1.1" id="Layer_1" xmlns="http://www.w3.org/2000/svg" xmlns:xlink="http://www.w3.org/1999/xlink" x="0px" y="0px"
	 viewBox="0 0 512 512" style="enable-background:new 0 0 512 512;" xml:space="preserve">
<g>
	<g>
		<polygon points="276.919,435.645 276.919,496.311 235.081,496.311 235.081,435.645 219.391,435.645 219.391,512 292.609,512 
			292.609,435.645 		"/>
	</g>
</g>
<g>
	<g>
		<path d="M344.442,236.911h76.704L279.854,67.361c8.571-6.958,14.062-17.57,14.062-29.445C293.916,17.009,276.907,0,256,0
			c-20.907,0-37.916,17.009-37.916,37.916c0,11.875,5.491,22.487,14.062,29.445L90.855,236.911h76.704l-76.704,92.045h76.704
			l-76.704,92.045h330.291l-76.704-92.045h76.704L344.442,236.911z M256,15.689c12.256,0,22.227,9.971,22.227,22.227
			c0,12.257-9.971,22.228-22.227,22.228c-12.256,0-22.227-9.971-22.227-22.228C233.773,25.661,243.744,15.689,256,15.689z
			 M246.511,74.63c3.034,0.786,6.213,1.204,9.489,1.204c3.275,0,6.455-0.418,9.489-1.203l72.837,87.404
			c-22.664,20.34-51.638,31.469-82.326,31.469s-59.662-11.129-82.325-31.47L246.511,74.63z M124.352,221.222l39.275-47.13
			c25.483,22.69,57.973,35.102,92.373,35.102s66.891-12.41,92.373-35.102l39.275,47.13H124.352z M338.325,254.08
			c-22.663,20.34-51.637,31.469-82.325,31.469s-59.662-11.129-82.325-31.47l14.307-17.167h136.036L338.325,254.08z M348.373,358.181
			l39.275,47.13H124.352l39.275-47.13c25.483,22.69,57.972,35.102,92.373,35.102C290.401,393.283,322.89,380.873,348.373,358.181z
			 M173.674,346.124l14.307-17.167h136.037l14.307,17.168c-22.663,20.34-51.637,31.469-82.325,31.469
			S196.338,366.464,173.674,346.124z M124.352,313.267l39.275-47.13c25.483,22.69,57.973,35.102,92.373,35.102
			s66.891-12.41,92.373-35.102l39.275,47.13H124.352z"/>
	</g>
</g>
<g>
</g>
<g>
</g>
<g>
</g>
<g>
</g>
<g>
</g>
<g>
</g>
<g>
</g>
<g>
</g>
<g>
</g>
<g>
</g>
<g>
</g>
<g>
</g>
<g>
</g>
<g>
</g>
<g>
</g>
</svg>
