<?xml version="1.0" encoding="iso-8859-1"?>
<!-- Generator: Adobe Illustrator 19.0.0, SVG Export Plug-In . SVG Version: 6.00 Build 0)  -->
<svg version="1.1" id="Layer_1" xmlns="http://www.w3.org/2000/svg" xmlns:xlink="http://www.w3.org/1999/xlink" x="0px" y="0px"
	 viewBox="0 0 512 512" style="enable-background:new 0 0 512 512;" xml:space="preserve">
<g>
	<g>
		
			<rect x="189.969" y="197.568" transform="matrix(0.9063 -0.4226 0.4226 0.9063 -67.5074 101.6356)" width="11.014" height="11.013"/>
	</g>
</g>
<g>
	<g>
		
			<rect x="104.89" y="246.183" transform="matrix(0.9063 -0.4226 0.4226 0.9063 -96.0232 70.2345)" width="11.013" height="11.013"/>
	</g>
</g>
<g>
	<g>
		
			<rect x="145.599" y="231.152" transform="matrix(0.342 -0.9397 0.9397 0.342 -122.9612 297.7151)" width="11.014" height="11.014"/>
	</g>
</g>
<g>
	<g>
		
			<rect x="126.793" y="277.353" transform="matrix(0.342 -0.9397 0.9397 0.342 -178.7492 310.4449)" width="11.015" height="11.014"/>
	</g>
</g>
<g>
	<g>
		
			<rect x="211.465" y="249.048" transform="matrix(0.342 -0.9397 0.9397 0.342 -96.4383 371.3852)" width="11.015" height="11.015"/>
	</g>
</g>
<g>
	<g>
		
			<rect x="186.333" y="234.94" transform="matrix(0.9063 -0.4226 0.4226 0.9063 -83.6419 103.6002)" width="11.013" height="11.013"/>
	</g>
</g>
<g>
	<g>
		
			<rect x="157.35" y="273.566" transform="matrix(0.9063 -0.4226 0.4226 0.9063 -102.6807 94.9705)" width="11.013" height="11.013"/>
	</g>
</g>
<g>
	<g>
		
			<rect x="173.785" y="164.619" transform="matrix(0.9063 -0.4226 0.4226 0.9063 -55.0995 91.7093)" width="11.013" height="11.014"/>
	</g>
</g>
<g>
	<g>
		
			<rect x="145.671" y="194.832" transform="matrix(0.342 -0.9397 0.9397 0.342 -88.7839 273.8844)" width="11.015" height="11.015"/>
	</g>
</g>
<g>
	<g>
		
			<rect x="91.189" y="206.374" transform="matrix(0.9063 -0.4226 0.4226 0.9063 -80.4834 60.7149)" width="11.013" height="11.013"/>
	</g>
</g>
<g>
	<g>
		
			<rect x="112.27" y="180.346" transform="matrix(0.9063 -0.4226 0.4226 0.9063 -67.5081 67.1845)" width="11.013" height="11.013"/>
	</g>
</g>
<g>
	<g>
		
			<rect x="311.006" y="279.789" transform="matrix(0.4226 -0.9063 0.9063 0.4226 -75.8143 451.5892)" width="11.013" height="11.013"/>
	</g>
</g>
<g>
	<g>
		
			<rect x="396.094" y="328.392" transform="matrix(0.4226 -0.9063 0.9063 0.4226 -70.7359 556.7657)" width="11.013" height="11.014"/>
	</g>
</g>
<g>
	<g>
		
			<rect x="355.397" y="313.368" transform="matrix(0.9397 -0.342 0.342 0.9397 -87.2934 142.6583)" width="11.014" height="11.015"/>
	</g>
</g>
<g>
	<g>
		
			<rect x="374.166" y="359.571" transform="matrix(0.9397 -0.342 0.342 0.9397 -101.9618 151.8618)" width="11.015" height="11.014"/>
	</g>
</g>
<g>
	<g>
		
			<rect x="289.516" y="331.261" transform="matrix(0.9397 -0.342 0.342 0.9397 -97.3843 121.2038)" width="11.014" height="11.015"/>
	</g>
</g>
<g>
	<g>
		
			<rect x="314.641" y="317.16" transform="matrix(0.4226 -0.9063 0.9063 0.4226 -107.5857 476.4607)" width="11.013" height="11.013"/>
	</g>
</g>
<g>
	<g>
		
			<rect x="343.639" y="355.773" transform="matrix(0.4226 -0.9063 0.9063 0.4226 -125.839 525.0345)" width="11.013" height="11.013"/>
	</g>
</g>
<g>
	<g>
		
			<rect x="355.294" y="277.055" transform="matrix(0.9397 -0.342 0.342 0.9397 -74.8796 140.4313)" width="11.014" height="11.014"/>
	</g>
</g>
<g>
	<g>
		
			<rect x="409.794" y="288.585" transform="matrix(0.4226 -0.9063 0.9063 0.4226 -26.7461 546.2016)" width="11.013" height="11.014"/>
	</g>
</g>
<g>
	<g>
		
			<rect x="388.716" y="262.551" transform="matrix(0.4226 -0.9063 0.9063 0.4226 -15.3226 512.0651)" width="11.013" height="11.013"/>
	</g>
</g>
<g>
	<g>
		<path d="M166.383,72.728L25.824,138.271l102.019,218.779l140.56-65.543L166.383,72.728z M46.527,145.806l112.321-52.376
			l16.858,36.151L63.385,181.958L46.527,145.806z M123.754,311.42L69.969,196.078l112.321-52.376l53.785,115.341L123.754,311.42z
			 M130.338,325.539l112.321-52.376l5.04,10.809l-112.321,52.376L130.338,325.539z"/>
	</g>
</g>
<g>
	<g>
		<polygon points="85.975,290.663 73.231,296.606 20.704,183.96 33.448,178.017 26.864,163.897 0,176.424 65.695,317.309 
			92.559,304.783 		"/>
	</g>
</g>
<g>
	<g>
		<path d="M345.609,154.948L243.59,373.728l140.56,65.544l102.02-218.779L345.609,154.948z M376.613,418.569l-112.319-52.377
			l5.039-10.808l112.32,52.376L376.613,418.569z M388.238,393.64l-112.32-52.376l53.785-115.342l112.32,52.376L388.238,393.64z
			 M336.287,211.803l16.858-36.151l112.321,52.376l-16.858,36.151L336.287,211.803z"/>
	</g>
</g>
<g>
	<g>
		<polygon points="485.304,246.156 478.719,260.276 491.296,266.141 438.402,379.575 425.825,373.71 419.24,387.83 445.938,400.279 
			512,258.606 		"/>
	</g>
</g>
<g>
	<g>
		<rect x="269.709" y="88.781" width="15.579" height="35.313"/>
	</g>
</g>
<g>
	<g>
		
			<rect x="215.075" y="111.402" transform="matrix(0.7071 -0.7071 0.7071 0.7071 -26.0673 195.4242)" width="15.579" height="35.552"/>
	</g>
</g>
<g>
	<g>
		<rect x="314.347" y="121.399" transform="matrix(0.7071 -0.7071 0.7071 0.7071 5.9245 272.681)" width="35.541" height="15.579"/>
	</g>
</g>
<g>
</g>
<g>
</g>
<g>
</g>
<g>
</g>
<g>
</g>
<g>
</g>
<g>
</g>
<g>
</g>
<g>
</g>
<g>
</g>
<g>
</g>
<g>
</g>
<g>
</g>
<g>
</g>
<g>
</g>
</svg>
