<?xml version="1.0" encoding="iso-8859-1"?>
<!-- Generator: Adobe Illustrator 19.0.0, SVG Export Plug-In . SVG Version: 6.00 Build 0)  -->
<svg version="1.1" id="Layer_1" xmlns="http://www.w3.org/2000/svg" xmlns:xlink="http://www.w3.org/1999/xlink" x="0px" y="0px"
	 viewBox="0 0 503.665 503.665" style="enable-background:new 0 0 503.665 503.665;" xml:space="preserve">
<g>
	<g>
		<g>
			<path d="M18.871,83.968h6.303c36.914-1.049,67.148-31.165,67.148-67.148c0-1.721-0.008-8.083-0.034-16.795L41.986,0.034
				c-6.891,0-13.564,2.862-18.306,7.856c-4.784,5.053-7.21,11.667-6.841,18.625C17.729,42.991,18.443,62.749,18.871,83.968z"/>
			<path d="M201.437,306.394c0,34.715,28.236,62.951,62.951,62.951c19.943,0,34.573-9.14,47.448-29.646l7.831-11.742
				c-8.158-8.335-15.435-17.5-21.596-27.489c-7.714-12.498-13.438-32.441-17.685-57c-8.821-0.017-15.024-0.025-15.998-0.025
				C229.672,243.443,201.437,271.679,201.437,306.394z"/>
			<path d="M209.83,96.558c0,25.457,20.715,46.164,46.164,46.164c0.881,0,6.572-0.008,14.739-0.034
				c-1.41-30.242-2.006-61.793-2.224-92.278c-6.841-0.008-11.558-0.017-12.515-0.017C230.545,50.394,209.83,71.101,209.83,96.558z"
				/>
			<path d="M426.56,379.149c-20.556-2.526-39.97-8.116-57.621-16.392l-9.971,11.961c-16.468,20.807-23.233,38.753-23.233,61.776
				c0,17.374,6.505,29.327,14.739,44.46l1.032,1.897l7.999,15.99c51.25-6.706,108.762-22.108,141.757-56.538
				c1.502-1.561,2.342-3.643,2.342-5.808C503.603,434.537,502.722,388.507,426.56,379.149z"/>
			<path d="M130.092,117.542c-20.824,0-37.77,16.946-37.77,37.77c0,20.824,16.946,37.771,37.77,37.771
				c20.824,0,37.771-16.946,37.771-37.771C167.863,134.488,150.916,117.542,130.092,117.542z"/>
			<path d="M318.945,436.493c0-26.809,8.074-48.447,26.993-72.36l7.865-9.434c-7.655-4.541-14.873-9.644-21.63-15.242l-6.245,9.367
				c-15.721,25.046-35.89,37.309-61.541,37.309c-43.965,0-79.738-35.773-79.738-79.738s35.773-79.738,79.738-79.738
				c0.218,0,5.481,0.008,13.404,0.017c-2.795-20.413-4.793-43.218-6.186-67.19c-9.166,0.017-15.377,0.025-15.612,0.025
				c-34.715,0-62.951-28.236-62.951-62.951s28.236-62.951,62.951-62.951c0.21,0,5.044,0.008,12.431,0.017
				c0-2.082-0.008-4.172-0.017-6.236C268.391,11.776,257.639,0,243.42,0L109.075,0.025c0.025,9.837,0.034,16.543,0.034,16.795
				c0,44.98-37.552,82.633-83.699,83.934h-6.27c0.512,42.185-0.201,88.156-3.013,125.314c9.124-4.39,20.388-7.806,34.228-7.806
				c50.906,0,92.328,41.422,92.328,92.328c0,26.683-10.811,50.965-29.847,68.037c-4.398-3.668-8.754-7.311-13.085-10.928
				c16.837-14.042,26.146-34.077,26.146-57.109c0-41.648-33.884-75.541-75.541-75.541c-15.696,0-27.329,5.632-36.092,11.415
				c-2.728,24.887-6.732,43.495-12.38,50.428c-0.134,0.159-0.159,0.352-0.277,0.52c-0.42,0.596-0.755,1.217-1.007,1.897
				c-0.109,0.311-0.227,0.604-0.302,0.923c-0.176,0.705-0.227,1.427-0.21,2.165c0.008,0.252-0.042,0.487-0.017,0.73
				c0.008,0.05-0.008,0.101,0,0.151l25.18,193.049c0.537,4.18,4.104,7.311,8.318,7.311h83.934c4.214,0,7.781-3.131,8.318-7.311
				l10.005-76.682c40.708,33.859,75.39,62.481,78.814,64.554c20.564,12.439,48.128,19.464,76.061,19.464
				c1.074,0,2.157-0.008,3.232-0.025c13.698-0.269,30.116-1.041,47.767-2.761l-5.976-11.902
				C326.725,472.433,318.945,458.139,318.945,436.493z M110.133,486.853H40.937L19.492,322.459
				c23.988,20.102,63.656,53.307,101.065,84.472L110.133,486.853z M130.092,209.87c-30.082,0-54.557-24.475-54.557-54.557
				s24.475-54.557,54.557-54.557s54.557,24.475,54.557,54.557S160.174,209.87,130.092,209.87z"/>
		</g>
	</g>
</g>
<g>
</g>
<g>
</g>
<g>
</g>
<g>
</g>
<g>
</g>
<g>
</g>
<g>
</g>
<g>
</g>
<g>
</g>
<g>
</g>
<g>
</g>
<g>
</g>
<g>
</g>
<g>
</g>
<g>
</g>
</svg>
