<?xml version="1.0" encoding="iso-8859-1"?>
<!-- Generator: Adobe Illustrator 19.0.0, SVG Export Plug-In . SVG Version: 6.00 Build 0)  -->
<svg version="1.1" id="Layer_1" xmlns="http://www.w3.org/2000/svg" xmlns:xlink="http://www.w3.org/1999/xlink" x="0px" y="0px"
	 viewBox="0 0 293.744 293.744" style="enable-background:new 0 0 293.744 293.744;" xml:space="preserve">
<g>
	<g>
		<g>
			<path d="M205.672,109.128c-0.024-0.32-0.564-7.868-1.188-11.624l-0.22-1.344l0.004-0.036c-0.892-2.088-2.84-3.604-4.988-4.128
				c0,0-3.48-10.076-3.48-10.172c0-4.376-19.856-5.764-34.7-6.192l-0.008-0.876c-0.096-8.592,3.432-15.596,10.8-21.416
				c1.48-1.168,2.792-2.516,4.22-3.984c3.296-3.388,5.1-7.688,5.36-12.78c0.78-15.412-8.5-28.264-24.836-34.384L150.78,0l5.616,5.8
				c0.804,0.804,1.536,1.532,2.188,2.324c8.424,10.172,9.392,25.736,2.248,36.2c-5.864,8.584-6.928,18.46-3.16,29.34
				c0.14,0.404,0.312,0.792,0.492,1.18l0.304,0.712c-4.108-0.092-7.696-0.116-10.084-0.116c-2.72,0-7.004,0.036-11.84,0.168
				c0.076-2.56,0.624-5.076,2.124-7.4c1.704-2.644,4.056-5.332,7.396-8.46c6.884-6.448,9.316-14.184,7.228-22.996
				c-2.104-8.912-12.22-17.616-23.028-19.824l-6.96-1.42l5.88,3.984c7.82,5.296,8.084,11.664,7.208,17.752
				c-0.792,5.488-3.272,10.712-7.584,15.976c-2.044,2.496-4.416,5.908-4.624,10.204c-0.236,4.788,1.4,8.96,3.684,12.508
				c-13.128,0.672-26.82,2.232-26.896,5.852L95.68,94.12c-2.296-0.136-4.608,0.84-5.992,2.576c0,0-1.608,12.112-1.636,12.5
				c0,0.352,0,0.376,1.032,2.084l0.204,0.248c1.12,1.032,3.24,1.988,6.116,2.856l8.116,153.932c0,1.36,0.612,2.604,1.636,3.76
				l-0.048,0.352c-0.416,2.968-1.032,10.696-1.032,10.696c3.68,3.876,21.988,10.62,42.952,10.62c20.964,0,37.888-5.604,41.664-9.588
				c0.612-0.748,0.952-1.452,1.004-1.912l0.084-0.224l-0.028-0.452c-0.016-0.256-0.384-6.148-0.824-9.272
				c1.116-1.184,1.772-2.468,1.772-3.876l8.124-154.2c2.64-0.84,4.604-1.756,5.676-2.74c0.448-0.48,0.968-1.156,1.088-1.812
				l0.104-0.24L205.672,109.128z M202.116,96.9c-0.316,0.104-0.612,0.208-0.948,0.308l-0.936-2.58
				C201.036,95.148,201.688,95.956,202.116,96.9z M163.164,45.928c7.484-10.96,6.872-26.992-1.22-38.088
				c7.496,4.316,17.48,13.028,16.688,28.592c-0.228,4.448-1.72,8.028-4.72,11.112c-1.204,1.236-2.448,2.516-3.784,3.572
				c-6.024,4.756-9.716,10.256-11.168,16.684C157.268,59.72,158.66,52.524,163.164,45.928z M148.376,78.284
				c4.02,0,7.78,0.056,11.32,0.152l1.476,3.428l-0.04-3.392c17.032,0.524,28.052,2.04,31.192,3.352
				c-3.864,1.612-19.672,3.54-43.944,3.54c-3.808,0-7.384-0.052-10.764-0.14l-0.564-3.412c-0.184-1.108-0.34-2.232-0.44-3.356
				C140.288,78.352,144.168,78.284,148.376,78.284z M127.008,63.572c0.132-2.708,1.36-5.34,3.984-8.548
				c4.652-5.676,7.332-11.356,8.196-17.368c0.692-4.812,0.772-10.632-3.356-15.892c7.196,3.34,13.252,9.54,14.692,15.644
				c1.86,7.86-0.236,14.492-6.408,20.272c-3.516,3.292-6.008,6.152-7.84,8.996c-2.54,3.94-2.864,8.16-2.468,12.296
				C128.872,73.632,126.752,68.776,127.008,63.572z M129.86,78.708c1.628,2.032,3.384,3.82,4.98,5.304l1.268,1.18
				c-17.308-0.512-28.516-2.04-31.68-3.364C107.196,80.668,116.14,79.364,129.86,78.708z M102.776,84.632l0.26-0.612
				c7.78,3.832,35.796,4.184,45.34,4.184c9.432,0,36.88-0.344,45.04-4.052l0.18,0.48l4.816,13.3
				c-10.968,2.604-30.492,4.224-52.148,4.224c-19.712,0-38.028-1.384-49.412-3.628L102.776,84.632z M94.68,96.464l-0.62,1.46
				c-0.68-0.16-1.332-0.324-1.944-0.492C92.836,96.884,93.732,96.564,94.68,96.464z M108.288,281.58
				c0.072-1.092,0.256-4,0.476-6.252c-0.004-0.376-0.004-0.476,0.204-0.376c1.308,0.7,2.824,1.34,4.508,1.928l-3.196,6.008
				C109.496,282.464,108.36,281.716,108.288,281.58z M112.332,283.844l3.336-6.268c1.58,0.468,3.256,0.904,5.052,1.284
				c-0.528,0.896-1.096,1.84-1.668,2.796c-0.808,1.348-1.572,2.636-2.256,3.816C115.068,284.932,113.592,284.38,112.332,283.844z
				 M119.028,286.136c0.612-1.048,1.272-2.156,1.968-3.312c0.732-1.224,1.432-2.4,2.076-3.504c1.648,0.304,3.36,0.572,5.128,0.808
				l-3.636,7.352C122.572,287.06,120.716,286.608,119.028,286.136z M132.148,288.776c-1.836-0.248-3.608-0.524-5.284-0.836
				l3.716-7.512c1.58,0.18,3.192,0.332,4.828,0.46c-0.504,1.116-1.032,2.452-1.548,3.772
				C133.276,286.148,132.684,287.652,132.148,288.776z M185.712,281.536c-2.66,2.8-18.728,8.248-38.692,8.248
				c-4.396,0-8.592-0.276-12.508-0.716c0.476-1.08,0.976-2.336,1.46-3.58c0.644-1.64,1.3-3.296,1.872-4.444
				c3.052,0.184,6.156,0.284,9.26,0.284c15.156,0,30.416-2.196,38.232-6.396c-0.028,0.072-0.052,0.148-0.076,0.22
				c0.244,2.472,0.44,5.344,0.504,6.256C185.744,281.448,185.728,281.492,185.712,281.536z M193.688,136.248
				c-1.392,1.04-5.296,2.196-11.42,3.172c-0.068,0.916-0.132,1.832-0.192,2.752c1.34-0.208,2.608-0.44,3.836-0.688l-3.836,49.376
				l2.26,0.176l3.888-50.064c2.104-0.516,3.896-1.112,5.308-1.796l-2.76,52.396c-3.076,2.34-19.748,5.396-46.132,5.396
				c-4.112,0-7.896-0.096-11.52-0.232c0.048,0.892,0.084,1.788,0.12,2.68c6.176,0.24,10.804,0.252,11.4,0.252
				c1.688,0,35.388-0.072,45.98-5.192l-3.892,73.848c0,3.152-13.608,9.032-39.624,9.032c-26.012,0-39.624-5.88-39.624-9.136
				l-6.832-129.564c1.564,0.952,3.876,1.744,6.66,2.404l3.852,49.62l2.26-0.176l-3.8-48.944c3.74,0.736,8.076,1.28,12.456,1.68
				l2.796,48.488l2.264-0.128l-2.776-48.16c4.936,0.4,9.788,0.628,13.788,0.76v47.904h2.268v-47.836
				c3.976,0.104,6.728,0.112,7.18,0.112c0.404,0,2.688-0.008,6.024-0.084v46.74h2.268v-46.8c0.984-0.028,2.012-0.064,3.108-0.104
				c0.036-0.892,0.072-1.788,0.12-2.68c-3.628,0.136-7.408,0.232-11.52,0.232c-28.444,0-45.632-3.556-46.628-5.932h-0.48
				l-1.072-20.304c10.588,2.372,27.788,3.844,47.432,3.844c19.936,0,37.368-1.512,47.932-3.968L193.688,136.248z M203.376,109.212
				c-0.048,0.128-0.308,0.48-0.468,0.66c-3.772,3.468-24.696,7.152-56.048,7.152c-31.052,0-51.872-3.616-55.932-7.052
				c-0.144-0.24-0.424-0.708-0.596-1.004c0.096-1.288,0.468-6.144,0.896-9.416c10.648,2.976,31.94,4.876,55.036,4.876
				c24.248,0,45.956-2.04,56.18-5.232c0.48,3.556,0.884,8.928,0.956,9.872C203.388,109.108,203.38,109.156,203.376,109.212z"/>
			<path d="M168.16,191.604l2.264,0.128l2.8-48.528c1.464-0.136,2.936-0.256,4.372-0.424c0.06-0.908,0.124-1.812,0.188-2.72
				c-4.052,0.504-8.836,0.916-14.216,1.204c-0.048,0.888-0.084,1.776-0.12,2.664c2.408-0.128,4.936-0.296,7.488-0.504
				L168.16,191.604z"/>
			<path d="M172.14,83.536c2.092,0,6.96-0.168,6.96-1.712s-4.868-1.712-6.96-1.712s-6.96,0.168-6.96,1.712
				S170.048,83.536,172.14,83.536z M172.14,81.244c2.836,0,4.688,0.316,5.484,0.58c-0.796,0.264-2.644,0.58-5.484,0.58
				c-2.84,0-4.688-0.316-5.484-0.58C167.452,81.56,169.304,81.244,172.14,81.244z"/>
		</g>
	</g>
</g>
<g>
</g>
<g>
</g>
<g>
</g>
<g>
</g>
<g>
</g>
<g>
</g>
<g>
</g>
<g>
</g>
<g>
</g>
<g>
</g>
<g>
</g>
<g>
</g>
<g>
</g>
<g>
</g>
<g>
</g>
</svg>
