<?xml version="1.0" encoding="iso-8859-1"?>
<!-- Generator: Adobe Illustrator 19.0.0, SVG Export Plug-In . SVG Version: 6.00 Build 0)  -->
<svg version="1.1" id="Layer_1" xmlns="http://www.w3.org/2000/svg" xmlns:xlink="http://www.w3.org/1999/xlink" x="0px" y="0px"
	 viewBox="0 0 270.532 270.532" style="enable-background:new 0 0 270.532 270.532;" xml:space="preserve">
<g>
	<g>
		<g>
			<path d="M114.62,45.98c-1.704,0.044-1.708,2.696,0,2.652c0.116-0.004,0.236-0.008,0.352-0.008c1.704-0.044,1.708-2.696,0-2.652
				C114.856,45.976,114.736,45.98,114.62,45.98z"/>
			<path d="M111.148,38.844c-0.004-0.12-0.004-0.236-0.008-0.356c-0.044-1.704-2.696-1.708-2.652,0
				c0.004,0.12,0.008,0.236,0.008,0.356C108.54,40.548,111.192,40.556,111.148,38.844z"/>
			<path d="M114.232,32.568c0.12-0.004,0.236-0.008,0.352-0.008c1.704-0.044,1.712-2.696,0-2.652
				c-0.116,0.004-0.236,0.008-0.352,0.008C112.532,29.96,112.524,32.612,114.232,32.568z"/>
			<path d="M219.296,257.716c-0.312-0.696-7.796-17.188-22.008-21.276c-0.048-0.012-0.096-0.02-0.144-0.032
				c12.02-8.736,14.9-25.792,15.016-26.54l0.188-1.16l-1.128-0.324c-0.752-0.216-18.488-5.16-31.608,3.256
				c-5.408,3.468-9.068,8.604-11.552,13.508c-3.872-0.864-8.556-0.264-14,1.796c-0.016-0.156-0.048-0.32-0.132-0.484
				c-1.568-3.104-1.608-6.628-0.088-9.76c0.74-1.528-1.544-2.876-2.292-1.34c-1.96,4.036-1.936,8.432,0.088,12.436
				c0.032,0.064,0.08,0.096,0.12,0.148c-4.128,1.848-7.264,4.08-9.368,6.644c-0.356-18.284-0.324-50.632,1.628-64.692
				c40.532-5.776,71.912-44.916,71.912-81.572c0-1.924-0.844-5.808-0.844-5.844c0-6.3-9.248-11.236-23.14-14.72
				c-0.248-0.832-0.552-1.648-0.984-2.428c-3.388-6.172-12.232-10.128-19.556-12.888c-1.54-0.58-3.104-1.148-4.676-1.712
				c-6.24-2.26-12.692-4.588-17.368-7.86c-4.524-3.16-2.28-14.86-1-18.536c0.308-0.88-0.08-1.852-0.908-2.28
				c-0.828-0.436-1.844-0.188-2.384,0.58c-2.404,3.388-10.084,4.272-17.12,4.972c-2.1-2.468-5.188-4.62-9.188-6.412
				c0.036-0.056,0.084-0.084,0.116-0.148c2.02-4.004,2.044-8.4,0.088-12.436c-0.744-1.536-3.032-0.192-2.288,1.34
				c1.52,3.132,1.48,6.652-0.088,9.76c-0.084,0.164-0.116,0.324-0.132,0.484c-5.444-2.064-10.14-2.66-14.02-1.792
				C99.952,13.5,96.316,8.36,90.904,4.892C77.792-3.52,60.044,1.42,59.292,1.636l-1.128,0.324l0.188,1.16
				c0.116,0.748,3,17.804,15.02,26.536c-0.048,0.012-0.096,0.02-0.144,0.032c-14.216,4.088-21.7,20.58-22.008,21.28l-0.452,1.016
				l0.916,0.62c0.528,0.36,10.988,7.344,22.676,7.344c1.244,0,2.504-0.092,3.764-0.268c-0.776,2.408-1.34,4.936-1.692,7.592
				c-13.688,3.316-22.332,7.832-24,14.048c-0.788,1.872-0.788,5.036-0.788,7.004c0,36.772,31.572,76.044,72.292,81.628
				c3.216,18.784,1.38,74.128,0.8,77.5c-0.956,2.98-10.72,5.264-12.096,5.776c-9.416,2.36-14.088,4.28-14.088,7.784
				c0,7.484,22.148,9.48,35.236,9.48c7.024,0,16.604-0.596,24.02-2.288c0.476,0.244,0.944,0.536,1.424,0.744
				c2.396,1.052,4.656,1.584,6.748,1.584c1.444,0,2.812-0.252,4.096-0.752c4.036-1.576,6.692-5.4,8.272-10.084
				c2.98,2.588,6.508,4.836,10.636,6.024c2.396,0.692,4.82,0.976,7.192,0.976c11.684,0,22.144-6.988,22.672-7.344l0.916-0.62
				L219.296,257.716z M181.04,213.872c9.032-5.792,20.9-4.592,26.404-3.596l-31.44,20.164c-1.076-1.504-2.336-2.748-3.816-3.656
				c-0.492-0.3-1.008-0.552-1.536-0.788C172.956,221.528,176.268,216.928,181.04,213.872z M192.436,71.732
				c11.932,3.14,18.896,7.036,18.896,10.752c0,1.232-0.836,2.48-2.276,3.72c-1.356-4.1-7.856-7.528-17.372-10.192
				C192.152,74.532,192.392,73.108,192.436,71.732z M147.204,45.944c5.084,3.552,11.772,5.972,18.244,8.308
				c1.552,0.56,3.104,1.12,4.632,1.696c6.196,2.336,14.764,6.032,17.592,11.184c1.672,3.052,1.36,6.672-0.964,11.076
				c-1.628,3.084-3.532,5.08-6.184,6.472c-4.596,2.424-11.084,2.924-18.468,3.288c-1.112,0.056-2.168,0.092-3.26,0.14
				c5.584-6.968,8.268-14.7,7.732-22.52c-0.128-1.872-0.456-4.06-1.924-6.084c-1.832-2.516-6.112-3.536-10.648-4.616
				c-2.94-0.7-5.984-1.424-7.836-2.532c-8.068-4.832-5.836-13.4-3.064-20.272C142.596,37.18,143.112,43.081,147.204,45.944z
				 M145.032,54.176c2.132,1.276,5.336,2.04,8.436,2.776c3.96,0.944,8.052,1.916,9.42,3.796c1.152,1.588,1.416,3.408,1.52,4.984
				c0.54,7.816-2.404,15.58-8.468,22.496c-9.96,0.392-19.036,0.508-27.2,0.356c4.68-3.94,7.252-9.204,7.04-14.952
				c-0.096-2.596-0.708-5.16-1.3-7.64c-0.356-1.48-0.708-2.96-0.956-4.448c-1.64-10.028,1.324-21.488,7.724-30.652
				C138.224,38.28,135.38,48.396,145.032,54.176z M139.552,29.628c-6.732,9.62-9.852,21.684-8.116,32.264
				c0.248,1.536,0.612,3.064,0.98,4.596c0.596,2.488,1.16,4.84,1.248,7.228c0.212,5.852-2.888,11.168-8.396,14.804
				c-12.704-0.364-22.956-1.424-30.528-3.144c-4.024-7.28-3.064-15.336,2.74-22.2c0.324-0.38,0.696-0.748,1.048-1.12
				c0.6,0.384,1.232,0.716,1.908,0.98c1.284,0.504,2.652,0.752,4.1,0.752c2.096,0,4.352-0.528,6.752-1.584
				c8.472-3.728,16.248-12.996,18.876-19.804c1.036-2.676,1.324-5.2,1.036-7.584c2.444-1.676,4.836-3.332,7.044-4.896
				C138.68,29.828,139.124,29.736,139.552,29.628z M92.044,84.688c-5.096-1.396-8.752-3.14-10.748-5.248
				c-1.332-1.408-1.608-2.984-1.616-5.076c-0.016-5.844,0.936-11.044,2.796-15.74c3.72-1.248,6.928-3.328,9.668-5.72
				c1.052,3.14,2.588,5.892,4.7,7.844c-0.332,0.352-0.68,0.696-0.988,1.056C89.988,68.74,88.672,77.128,92.044,84.688z
				 M82.712,55.68L86.5,43.088l3.824-1.1c0.08,2.72,0.404,5.468,1,8.056C88.888,52.348,86.016,54.364,82.712,55.68z M134.464,30.596
				c-1.172,0.816-2.36,1.636-3.58,2.476c-0.176-0.664-0.444-1.304-0.728-1.94C131.616,30.976,133.048,30.796,134.464,30.596z
				 M106.06,20.672c3.44,0,7.016,1.036,9.9,2.164c10.9,4.268,14.848,10.528,11.728,18.608c-2.384,6.168-9.74,14.932-17.472,18.332
				c-3.38,1.488-6.344,1.756-8.816,0.784c-8.752-3.424-10.276-22.356-6.556-31.98c1.112-2.88,2.744-4.996,4.856-6.292
				C101.6,21.12,103.8,20.672,106.06,20.672z M89.46,7.12c4.772,3.056,8.076,7.656,10.384,12.124
				c-0.528,0.232-1.044,0.484-1.536,0.784c-1.48,0.908-2.74,2.156-3.812,3.656L63.048,3.52C68.548,2.521,80.42,1.328,89.46,7.12z
				 M61.644,5.768l31.5,20.196c-0.268,0.54-0.54,1.068-0.768,1.656c-0.344,0.892-0.636,1.904-0.904,2.96
				c-4.228-1.356-9.212-2.244-14.284-1.652c-0.38-0.196-0.768-0.36-1.136-0.596C67.012,22.544,63.072,11.208,61.644,5.768z
				 M73.944,32.24c5.844-1.68,11.968-0.652,16.972,0.996c-0.32,1.884-0.532,3.9-0.592,5.992L55.016,49.38
				C57.692,44.656,64.18,35.048,73.944,32.24z M55.736,51.932l13.076-3.76l-2.484,8C61.9,55.024,58.1,53.22,55.736,51.932z
				 M73.508,57.248c-1.852-0.064-3.672-0.3-5.42-0.664l2.8-9.008l5.58-1.604L73.508,57.248z M75.376,57.248l3.112-11.856
				l5.956-1.712l-3.848,12.792C78.868,56.948,77.116,57.184,75.376,57.248z M78.58,82.016c6.284,6.628,23.856,9.368,43.964,10.136
				c0,0,31.296-0.032,39.692-0.448c7.84-0.388,14.756-0.932,20.028-3.712c4.348-2.288,6.504-5.684,7.752-8.036
				c0.36-0.68,0.676-1.352,0.956-2.012c10.088,2.82,15.948,6.26,16.216,9.628c-10.044,6.34-37.808,11.968-74.428,11.968
				c-36.072,0-62.744-5.476-72.472-11.824C60.404,84.32,66.24,80.849,76.356,78C76.72,79.365,77.368,80.736,78.58,82.016z
				 M76.048,71.216c-0.056,1.04-0.112,2.08-0.108,3.16c0,0.512,0.032,1.048,0.076,1.588c-9.696,2.692-16.288,6.18-17.58,10.348
				c-1.412-1.264-2.228-2.548-2.228-3.824C56.212,78.508,63.464,74.404,76.048,71.216z M55.368,88.701
				c0-0.076-0.016-0.152-0.024-0.228c9.896,9.748,43.832,14.808,77.42,14.808c33.56,0,68.884-5.156,79.268-14.832
				c0.044,0.548,0.092,1.24,0.128,1.22c-0.14,6.132-1.26,12.408-3.204,18.612c-6.36,6.82-34.98,13.24-75.216,13.24
				c-40.032,0-68.572-6.352-75.124-13.136C56.552,101.824,55.408,95.172,55.368,88.701z M59.804,111.872
				c11.688,7.472,43.22,11.768,73.94,11.768c30.78,0,62.38-4.312,74.012-11.812c-10.596,28.884-39.204,55.088-73.98,55.088
				C99.016,166.916,70.412,140.74,59.804,111.872z M133.772,266.756c-19.584,0-31.08-3.8-31.496-5.724
				c1.512-2.668,14.264-5.04,15.732-5.36c4.236-0.936,8.608-1.9,10.272-7.072c0.16-0.504,2.928-55.764-0.636-78.232
				c2.024,0.172,4.064,0.292,6.132,0.292c2.16,0,4.292-0.128,6.408-0.316c-3.072,22.812-1.056,77.796-0.908,78.256
				c0.624,1.94,9.276,13.196,13.832,16.672C148.052,266.128,141.612,266.756,133.772,266.756z M169.096,267.312
				c-2.464,0.964-5.432,0.704-8.816-0.788c-7.732-3.404-15.088-12.164-17.476-18.332c-3.116-8.08,0.824-14.34,11.728-18.604
				c4.776-1.876,11.48-3.488,16.26-0.548c2.116,1.296,3.748,3.412,4.86,6.292C179.376,244.956,177.848,263.888,169.096,267.312z
				 M178.132,234.376c-0.228-0.592-0.504-1.124-0.772-1.66l31.496-20.196c-1.428,5.444-5.368,16.776-14.404,22.576
				c-0.348,0.224-0.708,0.412-1.068,0.596c-5.092-0.612-10.096,0.296-14.344,1.66C178.772,236.284,178.476,235.272,178.132,234.376z
				 M179.172,256.792c0.6-2.584,0.92-5.332,1.004-8.052l3.82,1.1l3.796,12.608C184.488,261.136,181.62,259.1,179.172,256.792z
				 M189.904,263.22l-3.852-12.792l5.956,1.712L195.12,264C193.384,263.936,191.636,263.7,189.904,263.22z M196.992,264.008
				l-2.96-11.284l5.58,1.604l2.804,9.02C200.668,263.712,198.844,263.948,196.992,264.008z M204.18,262.936l-2.492-8.012
				l13.076,3.76C212.404,259.972,208.604,261.784,204.18,262.936z M180.176,245.98c-0.06-2.092-0.272-4.112-0.592-6
				c5-1.644,11.124-2.672,16.972-0.984c9.744,2.8,16.244,12.412,18.924,17.136L180.176,245.98z"/>
			<path d="M157.336,250.244c-0.12-0.004-0.236-0.008-0.356-0.008c-1.708-0.044-1.708,2.608,0,2.652
				c0.116,0.004,0.236,0.008,0.356,0.008C159.044,252.94,159.04,250.288,157.336,250.244z"/>
			<path d="M167,244.484c-0.004,0.12-0.004,0.236-0.008,0.356c-0.044,1.708,2.608,1.708,2.652,0c0.004-0.12,0.004-0.236,0.008-0.356
				C169.696,242.776,167.044,242.776,167,244.484z"/>
			<path d="M156.264,239.32c1.708,0.044,1.708-2.608,0-2.652c-0.116-0.004-0.236-0.004-0.356-0.008
				c-1.708-0.044-1.704,2.608,0,2.652C156.028,239.316,156.148,239.316,156.264,239.32z"/>
			<path d="M167.104,235.784c0.104,0.06,0.208,0.116,0.312,0.176c1.484,0.848,2.736-1.492,1.252-2.336
				c-0.104-0.06-0.208-0.116-0.308-0.176C166.876,232.6,165.624,234.94,167.104,235.784z"/>
			<path d="M167.656,257.684c-0.104-0.06-0.208-0.116-0.312-0.176c-1.484-0.848-2.736,1.492-1.256,2.336
				c0.104,0.06,0.208,0.116,0.308,0.176C167.884,260.864,169.14,258.528,167.656,257.684z"/>
			<path d="M149.432,242.532c-0.104-0.06-0.208-0.116-0.308-0.176c-1.484-0.844-2.736,1.492-1.256,2.336
				c0.104,0.06,0.208,0.116,0.308,0.176C149.66,245.716,150.912,243.376,149.432,242.532z"/>
			<path d="M87.8,136.632h-2.704c3.46,4.268,7.44,8.176,11.832,11.58h3.516C95.748,144.888,91.492,140.968,87.8,136.632z"/>
			<path d="M134.772,160.256c0-0.584-0.476-1.06-1.06-1.06c-9.896,0-19.136-2.72-27.312-7.244h-4.124
				c9.208,5.796,19.892,9.364,31.436,9.364C134.3,161.316,134.772,160.84,134.772,160.256z"/>
			<path d="M103.008,51.28c0.12-0.004,0.236-0.008,0.352-0.008c1.704-0.044,1.708-2.696,0-2.652
				c-0.116,0.004-0.236,0.008-0.352,0.008C101.304,48.672,101.296,51.324,103.008,51.28z"/>
			<path d="M101.552,31.912c0.12-0.004,0.236-0.008,0.352-0.008c1.704-0.044,1.708-2.696,0-2.652
				c-0.12,0.004-0.236,0.008-0.352,0.008C99.848,29.305,99.84,31.956,101.552,31.912z"/>
		</g>
	</g>
</g>
<g>
</g>
<g>
</g>
<g>
</g>
<g>
</g>
<g>
</g>
<g>
</g>
<g>
</g>
<g>
</g>
<g>
</g>
<g>
</g>
<g>
</g>
<g>
</g>
<g>
</g>
<g>
</g>
<g>
</g>
</svg>
