<?xml version="1.0" encoding="iso-8859-1"?>
<!-- Generator: Adobe Illustrator 19.0.0, SVG Export Plug-In . SVG Version: 6.00 Build 0)  -->
<svg version="1.1" id="Layer_1" xmlns="http://www.w3.org/2000/svg" xmlns:xlink="http://www.w3.org/1999/xlink" x="0px" y="0px"
	 viewBox="0 0 512 512" style="enable-background:new 0 0 512 512;" xml:space="preserve">
<rect x="112.185" y="99.723" style="fill:#AF4120;" width="332.007" height="312.567"/>
<g>
	<path style="fill:#808080;" d="M512,383.349v0.546c0,20.506-16.633,37.139-37.152,37.139h-43.416v-37.685l30.538-14.593
		L512,383.349z"/>
	<polygon style="fill:#808080;" points="512,295.633 512,346.313 434.68,346.313 431.431,346.313 431.431,295.633 434.68,295.633 	
		"/>
</g>
<polygon style="fill:#F2F2F2;" points="512,341.765 512,383.349 434.68,383.349 431.431,383.349 431.431,341.765 434.68,341.765 "/>
<polygon style="fill:#808080;" points="512,211.816 512,263.796 434.68,263.796 431.431,263.796 431.431,211.816 434.68,211.816 "/>
<polygon style="fill:#F2F2F2;" points="512,258.598 512,300.181 434.68,300.181 431.431,300.181 431.431,258.598 434.68,258.598 "/>
<polygon style="fill:#808080;" points="512,127.349 512,181.928 434.68,181.928 431.431,181.928 431.431,127.349 434.68,127.349 "/>
<g>
	<polygon style="fill:#F2F2F2;" points="512,175.43 512,217.014 434.68,217.014 431.431,217.014 431.431,175.43 434.68,175.43 	"/>
	<path style="fill:#F2F2F2;" d="M512,128.116v5.731h-77.32h-3.249V90.963h43.416C495.367,90.963,512,107.597,512,128.116z"/>
</g>
<rect x="68.873" y="90.963" style="fill:#808080;" width="48.081" height="330.071"/>
<path style="fill:#F7B239;" d="M71.472,90.963v330.071H37.139C16.634,421.034,0,404.401,0,383.895V128.116
	c0-20.519,16.634-37.152,37.139-37.152C37.139,90.963,71.472,90.963,71.472,90.963z"/>
<g>
	<path style="fill:#4D4D4D;" d="M26.731,137.576c0.498,1.179,1.214,2.253,2.105,3.171c3.858,3.745,10.175,3.761,13.928-0.147
		c3.583-3.73,3.611-9.994-0.14-13.642c-3.206-3.298-8.518-3.72-12.306-1.209C26.512,128.273,24.952,133.36,26.731,137.576
		C26.977,138.161,26.484,136.991,26.731,137.576z"/>
	<path style="fill:#4D4D4D;" d="M44.729,379.619c-0.467-1.167-1.203-2.281-2.105-3.158c-5.949-6.121-16.653-1.527-16.634,6.887
		c0.021,8.401,10.664,13.037,16.634,6.887C45.417,387.523,46.201,383.185,44.729,379.619
		C44.495,379.035,44.975,380.217,44.729,379.619z"/>
	<path style="fill:#4D4D4D;" d="M44.729,338.036c-0.467-1.167-1.203-2.281-2.105-3.158c-3.649-3.753-9.915-3.718-13.649-0.134
		c-3.911,3.756-3.88,10.072-0.139,13.921c3.492,3.389,9.024,3.785,12.891,0.781C45.156,346.783,46.384,342.045,44.729,338.036
		C44.495,337.451,44.975,338.633,44.729,338.036z"/>
	<path style="fill:#4D4D4D;" d="M44.729,296.452c-0.467-1.167-1.203-2.281-2.105-3.158c-3.649-3.753-9.915-3.718-13.649-0.134
		c-3.911,3.756-3.88,10.072-0.139,13.921c3.492,3.389,9.024,3.785,12.891,0.781C45.137,305.213,46.413,300.444,44.729,296.452
		C44.495,295.867,44.975,297.037,44.729,296.452z"/>
	<path style="fill:#4D4D4D;" d="M41.142,250.502c-6.934-4.743-16.398,1.522-15.016,9.706c1.276,7.557,11.043,10.895,16.497,5.277
		C46.96,261.275,46.138,253.791,41.142,250.502C40.609,250.138,41.675,250.853,41.142,250.502z"/>
	<path style="fill:#4D4D4D;" d="M41.142,208.905c-6.842-4.511-16.037,1.173-15.077,9.303c0.925,7.828,11.005,11.413,16.558,5.693
		C47.016,219.636,46.072,212.275,41.142,208.905C40.609,208.554,41.675,209.269,41.142,208.905z"/>
	<path style="fill:#4D4D4D;" d="M41.142,167.334c-6.547-4.316-15.537,0.715-15.139,8.573c0.413,8.174,10.81,12.396,16.622,6.409
		C46.962,178.106,46.138,170.623,41.142,167.334C40.609,166.983,41.675,167.685,41.142,167.334z"/>
</g>
<g>
	<path style="fill:#CC582F;" d="M150.737,430.782c-5.382,0-9.746-4.364-9.746-9.746V90.964c0-5.382,4.364-9.746,9.746-9.746
		s9.746,4.364,9.746,9.746v330.071C160.483,426.418,156.12,430.782,150.737,430.782z"/>
	<path style="fill:#CC582F;" d="M191.671,430.782c-5.382,0-9.746-4.364-9.746-9.746V90.964c0-5.382,4.364-9.746,9.746-9.746
		s9.746,4.364,9.746,9.746v330.071C201.417,426.418,197.054,430.782,191.671,430.782z"/>
	<path style="fill:#CC582F;" d="M232.605,430.782c-5.382,0-9.746-4.364-9.746-9.746V90.964c0-5.382,4.364-9.746,9.746-9.746
		s9.746,4.364,9.746,9.746v330.071C242.351,426.418,237.988,430.782,232.605,430.782z"/>
	<path style="fill:#CC582F;" d="M273.539,430.782c-5.384,0-9.746-4.364-9.746-9.746V90.964c0-5.382,4.362-9.746,9.746-9.746
		c5.384,0,9.746,4.364,9.746,9.746v330.071C283.285,426.418,278.923,430.782,273.539,430.782z"/>
	<path style="fill:#CC582F;" d="M314.473,430.782c-5.384,0-9.746-4.364-9.746-9.746V90.964c0-5.382,4.362-9.746,9.746-9.746
		c5.384,0,9.746,4.364,9.746,9.746v330.071C324.219,426.418,319.857,430.782,314.473,430.782z"/>
	<path style="fill:#CC582F;" d="M355.407,430.782c-5.384,0-9.746-4.364-9.746-9.746V90.964c0-5.382,4.362-9.746,9.746-9.746
		c5.384,0,9.746,4.364,9.746,9.746v330.071C365.153,426.418,360.791,430.782,355.407,430.782z"/>
	<path style="fill:#CC582F;" d="M396.341,430.782c-5.384,0-9.746-4.364-9.746-9.746V90.964c0-5.382,4.362-9.746,9.746-9.746
		c5.384,0,9.746,4.364,9.746,9.746v330.071C406.087,426.418,401.725,430.782,396.341,430.782z"/>
</g>
<g>
</g>
<g>
</g>
<g>
</g>
<g>
</g>
<g>
</g>
<g>
</g>
<g>
</g>
<g>
</g>
<g>
</g>
<g>
</g>
<g>
</g>
<g>
</g>
<g>
</g>
<g>
</g>
<g>
</g>
</svg>
