<?xml version='1.0' encoding='iso-8859-1'?>
<svg version="1.1" xmlns="http://www.w3.org/2000/svg" viewBox="0 0 463 463" xmlns:xlink="http://www.w3.org/1999/xlink" enable-background="new 0 0 463 463">
  <g>
    <path d="m359.5,0h-256c-12.958,0-23.5,10.542-23.5,23.5v424c0,8.547 6.953,15.5 15.5,15.5h16c8.547,0 15.5-6.953 15.5-15.5v-40.5h81v24.5c0,8.547 6.953,15.5 15.5,15.5h16c8.547,0 15.5-6.953 15.5-15.5v-24.5h81v40.5c0,8.547 6.953,15.5 15.5,15.5h16c8.547,0 15.5-6.953 15.5-15.5v-424c0-12.958-10.542-23.5-23.5-23.5zm-232.5,392v-17h81v17h-81zm113-17v17h-17v-17h17zm0,56.5c0,0.276-0.224,0.5-0.5,0.5h-16c-0.276,0-0.5-0.224-0.5-0.5v-24.5h17v24.5zm15-39.5v-17h81v17h-81zm113,55.5c0,0.276-0.224,0.5-0.5,0.5h-16c-0.276,0-0.5-0.224-0.5-0.5v-80c0-4.142-3.358-7.5-7.5-7.5h-224c-4.142,0-7.5,3.358-7.5,7.5v80c0,0.276-0.224,0.5-0.5,0.5h-16c-0.276,0-0.5-0.224-0.5-0.5v-424c0-4.687 3.813-8.5 8.5-8.5h256c4.687,0 8.5,3.813 8.5,8.5v424z"/>
    <path d="m343.5,32h-224c-4.142,0-7.5,3.358-7.5,7.5v296c0,4.142 3.358,7.5 7.5,7.5h224c4.142,0 7.5-3.358 7.5-7.5v-296c0-4.142-3.358-7.5-7.5-7.5zm-7.5,296h-209v-281h209v281z"/>
    <path d="m192.179,153.181l-3.445,20.087c-1.104,6.44 1.493,12.827 6.78,16.667 2.987,2.17 6.481,3.273 10,3.273 2.708,0 5.431-0.653 7.947-1.976l18.04-9.484 18.039,9.484c5.784,3.04 12.661,2.544 17.947-1.297 5.287-3.84 7.885-10.227 6.78-16.668l-3.445-20.087 14.594-14.226c4.679-4.561 6.332-11.254 4.313-17.469-2.019-6.214-7.291-10.659-13.757-11.598l-20.169-2.931-9.02-18.276c-2.892-5.859-8.748-9.5-15.282-9.5-6.534,0-12.39,3.64-15.282,9.5l-9.02,18.276-20.169,2.931c-6.466,0.939-11.738,5.384-13.757,11.598-2.019,6.215-0.367,12.908 4.313,17.469l14.593,14.227zm-4.641-27.06c0.179-0.551 0.61-1.239 1.648-1.39l24.071-3.498c2.443-0.355 4.555-1.889 5.647-4.103l10.765-21.812c0.464-0.941 1.252-1.138 1.831-1.138 0.579,0 1.367,0.197 1.831,1.138l10.765,21.812c1.092,2.213 3.204,3.748 5.647,4.103l24.071,3.498c1.038,0.151 1.469,0.839 1.648,1.39 0.179,0.551 0.234,1.361-0.517,2.093l-17.417,16.978c-1.768,1.723-2.574,4.206-2.157,6.639l4.112,23.973c0.177,1.034-0.344,1.657-0.813,1.997s-1.221,0.645-2.15,0.155l-21.529-11.319c-2.186-1.148-4.796-1.148-6.98,0l-21.53,11.319c-0.927,0.49-1.681,0.185-2.15-0.155-0.468-0.34-0.989-0.963-0.812-1.997l4.112-23.974c0.417-2.433-0.389-4.916-2.157-6.639l-17.418-16.978c-0.752-0.731-0.697-1.541-0.518-2.092z"/>
    <path d="m279.5,216h-96c-4.142,0-7.5,3.358-7.5,7.5s3.358,7.5 7.5,7.5h96c4.142,0 7.5-3.358 7.5-7.5s-3.358-7.5-7.5-7.5z"/>
    <path d="m279.5,280h-96c-4.142,0-7.5,3.358-7.5,7.5s3.358,7.5 7.5,7.5h96c4.142,0 7.5-3.358 7.5-7.5s-3.358-7.5-7.5-7.5z"/>
    <path d="m159.5,263h144c4.142,0 7.5-3.358 7.5-7.5s-3.358-7.5-7.5-7.5h-144c-4.142,0-7.5,3.358-7.5,7.5s3.358,7.5 7.5,7.5z"/>
  </g>
</svg>
