<?xml version="1.0" encoding="iso-8859-1"?>
<!-- Generator: Adobe Illustrator 19.0.0, SVG Export Plug-In . SVG Version: 6.00 Build 0)  -->
<svg version="1.1" id="Layer_1" xmlns="http://www.w3.org/2000/svg" xmlns:xlink="http://www.w3.org/1999/xlink" x="0px" y="0px"
	 viewBox="0 0 512 512" style="enable-background:new 0 0 512 512;" xml:space="preserve">
<g>
	<g>
		<polygon points="182.254,204.8 157.804,291.275 138.004,204.8 122.854,204.8 101.929,292.475 79.204,204.8 64.054,204.8 
			92.629,315.733 108.229,315.733 128.704,230.158 148.279,315.733 163.954,315.733 195.079,204.8 		"/>
	</g>
</g>
<g>
	<g>
		<rect x="258.133" y="204.8" width="14.933" height="110.933"/>
	</g>
</g>
<g>
	<g>
		<polygon points="422.4,204.8 422.4,290.458 366.529,204.8 352,204.8 352,315.733 364.8,315.733 364.8,230.008 420.529,315.733 
			435.2,315.733 435.2,204.8 		"/>
	</g>
</g>
<g>
	<g>
		<path d="M487.496,153.6H26.637C12.538,153.6,0,165.05,0,179.125v153.75C0,346.95,12.538,358.4,26.637,358.4h460.858
			c14.1,0,24.504-11.45,24.504-25.525v-153.75C512,165.05,501.596,153.6,487.496,153.6z M494.933,332.875
			c0,4.664-2.748,8.458-7.437,8.458H26.637c-4.69,0-9.571-3.794-9.571-8.458v-153.75c0-4.664,4.881-8.458,9.571-8.458h460.858
			c4.69,0,7.437,3.794,7.437,8.458V332.875z"/>
	</g>
</g>
<g>
</g>
<g>
</g>
<g>
</g>
<g>
</g>
<g>
</g>
<g>
</g>
<g>
</g>
<g>
</g>
<g>
</g>
<g>
</g>
<g>
</g>
<g>
</g>
<g>
</g>
<g>
</g>
<g>
</g>
</svg>
