<?xml version="1.0" encoding="iso-8859-1"?>
<!-- Generator: Adobe Illustrator 19.0.0, SVG Export Plug-In . SVG Version: 6.00 Build 0)  -->
<svg version="1.1" id="Layer_1" xmlns="http://www.w3.org/2000/svg" xmlns:xlink="http://www.w3.org/1999/xlink" x="0px" y="0px"
	 viewBox="0 0 511.696 511.696" style="enable-background:new 0 0 511.696 511.696;" xml:space="preserve">
<g>
	<g>
		<path d="M159.85,115.848H91.726c-2.092,0-3.832,1.612-3.992,3.7l-24.444,324c-0.084,1.108,0.3,2.204,1.056,3.02
			c0.756,0.816,1.82,1.28,2.932,1.28h84.572c2.208,0,4-1.792,4-4s-1.792-4-4-4H71.594l23.84-316h64.416c2.208,0,4-1.792,4-4
			S162.058,115.848,159.85,115.848z"/>
	</g>
</g>
<g>
	<g>
		<path d="M423.962,119.548c-0.156-2.088-1.896-3.7-3.988-3.7H355.85c-2.208,0-4,1.792-4,4s1.792,4,4,4h60.416l23.84,316H359.85
			c-2.208,0-4,1.792-4,4s1.792,4,4,4h84.572c1.112,0,2.176-0.464,2.928-1.28c0.756-0.816,1.14-1.912,1.056-3.02L423.962,119.548z"/>
	</g>
</g>
<g>
	<g>
		<path d="M331.85,115.848h-152c-2.208,0-4,1.792-4,4s1.792,4,4,4h152c2.208,0,4-1.792,4-4S334.058,115.848,331.85,115.848z"/>
	</g>
</g>
<g>
	<g>
		<path d="M257.85,0c-56.244,0-102,45.656-102,101.776v80.32c0,8.116,6.152,14.476,14,14.476s14-6.36,14-14.476v-80.32
			c0-40.156,32.3-72.824,72-72.824s72,32.668,72,72.824v80.32c0,8.12,6.22,14.476,14.164,14.476c7.888,0,13.836-6.224,13.836-14.476
			v-80.32C355.85,44.704,312.802,0,257.85,0z M347.85,182.096c0,3.22-2.004,6.476-5.836,6.476c-3.512,0-6.164-2.784-6.164-6.476
			v-80.32c0-44.568-35.888-80.824-80-80.824s-80,36.26-80,80.824v80.32c0,3.692-2.58,6.476-6,6.476s-6-2.784-6-6.476v-80.32
			c0-51.708,42.168-93.776,94-93.776c50.468,0,90,41.192,90,93.776V182.096z"/>
	</g>
</g>
<g>
	<g>
		<path d="M181.282,149.024c-2.068-0.792-4.376,0.232-5.172,2.292c-0.796,2.064,0.232,4.376,2.292,5.172
			c10.512,4.052,17.576,14.34,17.576,25.604c0,15.124-12.304,27.432-27.432,27.432c-15.12,0-27.424-12.308-27.424-27.432
			c0-11.604,7.348-22,18.284-25.868c2.08-0.736,3.172-3.02,2.436-5.104s-3.024-3.176-5.104-2.436
			c-14.124,4.996-23.616,18.424-23.616,33.412c0,19.536,15.892,35.432,35.424,35.432c19.54,0,35.432-15.896,35.432-35.432
			C203.978,167.548,194.858,154.256,181.282,149.024z"/>
	</g>
</g>
<g>
	<g>
		<path d="M354.17,149.024c-2.056-0.788-4.376,0.228-5.172,2.292c-0.796,2.06,0.232,4.376,2.292,5.172
			c10.508,4.052,17.568,14.344,17.568,25.604c0,15.124-12.3,27.432-27.424,27.432c-15.124,0-27.432-12.308-27.432-27.432
			c0-11.604,7.348-22,18.284-25.868c2.08-0.736,3.172-3.02,2.436-5.104c-0.736-2.084-3.024-3.176-5.104-2.436
			c-14.124,4.996-23.616,18.424-23.616,33.412c0,19.536,15.892,35.432,35.432,35.432c19.536,0,35.428-15.896,35.424-35.432
			C376.858,167.548,367.742,154.26,354.17,149.024z"/>
	</g>
</g>
<g>
	<g>
		<path d="M143.85,419.848h-72c-2.208,0-4,1.792-4,4s1.792,4,4,4h72c2.208,0,4-1.792,4-4S146.058,419.848,143.85,419.848z"/>
	</g>
</g>
<g>
	<g>
		<path d="M407.85,419.848h-40c-2.208,0-4,1.792-4,4s1.792,4,4,4h40c2.208,0,4-1.792,4-4S410.058,419.848,407.85,419.848z"/>
	</g>
</g>
<g>
	<g>
		<path d="M272.762,399.088l28.248-28.248c2.256-2.256,3.5-5.252,3.5-8.436c0-3.188-1.24-6.184-3.496-8.44
			c-4.508-4.504-12.372-4.5-16.868,0.004l-28.248,28.248l-28.248-28.248c-4.504-4.508-12.36-4.508-16.872,0
			c-4.652,4.652-4.652,12.22,0,16.872l28.248,28.248l-28.248,28.244c-4.652,4.652-4.656,12.224,0,16.876
			c4.5,4.5,12.364,4.5,16.872-0.004l28.248-28.248l28.248,28.248c2.252,2.252,5.244,3.492,8.432,3.492s6.18-1.24,8.432-3.488
			c4.652-4.652,4.652-12.22,0-16.872L272.762,399.088z M295.358,438.548c-1.48,1.48-4.076,1.48-5.556,0l-31.08-31.08
			c-0.748-0.752-1.768-1.172-2.828-1.172s-2.08,0.424-2.824,1.164l-31.076,31.076c-1.488,1.484-4.084,1.484-5.564,0.004
			c-1.532-1.536-1.532-4.028,0.004-5.564l31.076-31.072c0.752-0.748,1.172-1.768,1.172-2.828s-0.42-2.076-1.172-2.828l-31.08-31.08
			c-0.74-0.74-1.148-1.732-1.148-2.78c0-1.048,0.408-2.036,1.148-2.776c1.488-1.48,4.076-1.484,5.56,0l31.08,31.076
			c1.564,1.564,4.092,1.564,5.656,0l31.08-31.076c1.48-1.484,4.076-1.48,5.556,0c0.744,0.744,1.152,1.728,1.152,2.78
			c-0.004,1.052-0.412,2.04-1.156,2.784l-31.076,31.08c-1.564,1.564-1.564,4.092,0,5.656l31.076,31.076
			C296.89,434.524,296.89,437.016,295.358,438.548z"/>
	</g>
</g>
<g>
	<g>
		<path d="M255.894,280c-63.876,0-115.844,51.968-115.844,115.844c0,63.88,51.968,115.852,115.844,115.852
			s115.844-51.972,115.844-115.852C371.738,331.968,319.77,280,255.894,280z M255.894,503.696
			c-59.464,0-107.844-48.384-107.844-107.852C148.05,336.38,196.43,288,255.894,288s107.844,48.38,107.844,107.844
			C363.738,455.312,315.358,503.696,255.894,503.696z"/>
	</g>
</g>
<g>
	<g>
		<path d="M333.862,333c-1.396-1.72-3.916-1.984-5.628-0.592c-1.716,1.392-1.98,3.912-0.592,5.628
			c13.184,16.284,20.444,36.816,20.444,57.812c0,50.696-41.248,91.94-91.944,91.94s-91.944-41.244-91.944-91.94
			c0-50.696,41.244-91.94,91.944-91.94c18.04,0,35.504,5.22,50.504,15.096c1.848,1.212,4.324,0.7,5.54-1.144
			c1.212-1.844,0.7-4.324-1.144-5.54c-16.312-10.736-35.296-16.412-54.904-16.412c-55.108,0-99.944,44.832-99.944,99.94
			c0,55.108,44.836,99.94,99.944,99.94c55.112,0,99.948-44.832,99.952-99.944C356.09,373.02,348.194,350.704,333.862,333z"/>
	</g>
</g>
<g>
</g>
<g>
</g>
<g>
</g>
<g>
</g>
<g>
</g>
<g>
</g>
<g>
</g>
<g>
</g>
<g>
</g>
<g>
</g>
<g>
</g>
<g>
</g>
<g>
</g>
<g>
</g>
<g>
</g>
</svg>
