<?xml version="1.0" encoding="iso-8859-1"?>
<!-- Generator: Adobe Illustrator 19.0.0, SVG Export Plug-In . SVG Version: 6.00 Build 0)  -->
<svg version="1.1" id="Layer_1" xmlns="http://www.w3.org/2000/svg" xmlns:xlink="http://www.w3.org/1999/xlink" x="0px" y="0px"
	 viewBox="0 0 512 512" style="enable-background:new 0 0 512 512;" xml:space="preserve">
<g>
	<g>
		<path d="M394,141.19c-7.72,0-14,6.244-14,13.92v39.952c0,2.208,1.792,4,4,4s4-1.792,4-4V155.11c0-3.264,2.692-5.92,6-5.92
			c3.308,0,6,2.656,6,5.92v59.952c0,2.208,1.792,4,4,4s4-1.792,4-4V155.11C408,147.438,401.72,141.19,394,141.19z"/>
	</g>
</g>
<g>
	<g>
		<path d="M450,141.19c-7.72,0-14,6.244-14,13.92v136.156c0,7.672,6.28,13.92,14,13.92c7.72,0,14-6.244,14-13.92V155.11
			C464,147.438,457.72,141.19,450,141.19z M456,291.262c0,3.264-2.692,5.92-6,5.92c-3.308,0-6-2.656-6-5.92V155.106
			c0-3.264,2.692-5.92,6-5.92c3.308,0,6,2.656,6,5.924V291.262z"/>
	</g>
</g>
<g>
	<g>
		<path d="M338,141.19c-7.72,0-14,6.244-14,13.92v19.952c0,2.208,1.792,4,4,4s4-1.792,4-4V155.11c0-3.264,2.692-5.92,6-5.92
			c3.308,0,6,2.656,6,5.92v23.952c0,2.208,1.792,4,4,4s4-1.792,4-4V155.11C352,147.438,345.72,141.19,338,141.19z"/>
	</g>
</g>
<g>
	<g>
		<path d="M282,141.19c-7.72,0-14,6.244-14,13.92v31.952c0,2.208,1.792,4,4,4s4-1.792,4-4V155.11c0-3.264,2.692-5.92,6-5.92
			c3.308,0,6,2.656,6,5.92v23.952c0,2.208,1.792,4,4,4s4-1.792,4-4V155.11C296,147.438,289.72,141.19,282,141.19z"/>
	</g>
</g>
<g>
	<g>
		<path d="M226,141.19c-7.72,0-14,6.244-14,13.92v87.952c0,2.208,1.792,4,4,4s4-1.792,4-4V155.11c0-3.264,2.692-5.92,6-5.92
			s6,2.656,6,5.92v55.952c0,2.208,1.792,4,4,4s4-1.792,4-4V155.11C240,147.438,233.72,141.19,226,141.19z"/>
	</g>
</g>
<g>
	<g>
		<path d="M170,141.19c-7.72,0-14,6.244-14,13.92v44.156c0,7.672,6.28,13.92,14,13.92c7.72,0,14-6.244,14-13.92V155.11
			C184,147.438,177.72,141.19,170,141.19z M176,199.262c0,3.264-2.692,5.92-6,5.92s-6-2.656-6-5.92v-44.156
			c0-3.264,2.692-5.92,6-5.92s6,2.656,6,5.924V199.262z"/>
	</g>
</g>
<g>
	<g>
		<path d="M112.032,95.562L91.396,49.098c-9.104-20.212-24.336-30.036-46.56-30.036H4c-2.208,0-4,1.792-4,4v20c0,2.208,1.792,4,4,4
			h40.248c12.944,0,14.952,4.172,18.9,12.356l17.488,39.844c0.66,1.5,2.124,2.396,3.664,2.396c0.536,0,1.08-0.108,1.604-0.344
			c2.024-0.884,2.944-3.244,2.056-5.268L70.412,56.074c-4.216-8.748-8.192-17.012-26.164-17.012H8v-12h36.836
			c19.004,0,31.484,8.048,39.26,25.304L104.72,98.81c0.896,2.016,3.264,2.924,5.28,2.032
			C112.02,99.946,112.928,97.582,112.032,95.562z"/>
	</g>
</g>
<g>
	<g>
		<path d="M500,115.062c-2.208,0-4,1.792-4,4v194.124c0,6.416-5.244,13.876-12,13.876h-60c-2.208,0-4,1.792-4,4s1.792,4,4,4h60
			c11.448,0,20-11.548,20-21.876V119.062C504,116.854,502.208,115.062,500,115.062z"/>
	</g>
</g>
<g>
	<g>
		<path d="M212,327.062h-11.032c-7.02,0-15.764-5.952-18.712-12.732L98.408,120.734c-0.876-2.028-3.236-2.96-5.26-2.08
			c-2.028,0.876-2.96,3.232-2.08,5.26l83.848,193.6c4.208,9.676,15.892,17.548,26.052,17.548H212c2.208,0,4-1.792,4-4
			S214.208,327.062,212,327.062z"/>
	</g>
</g>
<g>
	<g>
		<path d="M172,397.438c-26.332,0-47.752,21.416-47.752,47.748s21.42,47.752,47.752,47.752c26.332,0,47.752-21.416,47.752-47.748
			S198.332,397.438,172,397.438z M172,484.942c-21.92,0-39.752-17.832-39.752-39.752s17.836-39.752,39.752-39.752
			s39.752,17.832,39.752,39.752C211.752,467.11,193.92,484.942,172,484.942z"/>
	</g>
</g>
<g>
	<g>
		<path d="M108,95.062H88c-2.208,0-4,1.792-4,4s1.792,4,4,4h20c2.208,0,4-1.792,4-4S110.208,95.062,108,95.062z"/>
	</g>
</g>
<g>
	<g>
		<path d="M195.696,441.186c-2.208,0-4,1.792-4,4c0,10.86-8.836,19.696-19.696,19.696s-19.696-8.836-19.696-19.696
			S161.14,425.49,172,425.49c2.208,0,4-1.792,4-4s-1.792-4-4-4c-15.272,0-27.696,12.424-27.696,27.696s12.424,27.696,27.696,27.696
			c15.272,0,27.696-12.424,27.696-27.696C199.696,442.978,197.904,441.186,195.696,441.186z"/>
	</g>
</g>
<g>
	<g>
		<path d="M464.248,397.434c-26.332,0-47.752,21.42-47.752,47.752s21.42,47.752,47.752,47.752c26.332,0,47.752-21.424,47.752-47.752
			S490.58,397.434,464.248,397.434z M464.248,484.942c-21.92,0-39.752-17.832-39.752-39.752s17.836-39.752,39.752-39.752
			c21.92,0,39.752,17.832,39.752,39.752C504,467.11,486.168,484.942,464.248,484.942z"/>
	</g>
</g>
<g>
	<g>
		<path d="M487.944,441.186c-2.208,0-4,1.792-4,4c0,10.86-8.836,19.696-19.696,19.696s-19.696-8.836-19.696-19.696
			s8.836-19.696,19.696-19.696c2.208,0,4-1.792,4-4s-1.792-4-4-4c-15.272,0-27.696,12.424-27.696,27.696
			s12.424,27.696,27.696,27.696c15.272,0,27.696-12.424,27.696-27.696C491.944,442.978,490.152,441.186,487.944,441.186z"/>
	</g>
</g>
<g>
	<g>
		<path d="M420,451.062H216c-2.208,0-4,1.792-4,4s1.792,4,4,4h204c2.208,0,4-1.792,4-4S422.208,451.062,420,451.062z"/>
	</g>
</g>
<g>
	<g>
		<path d="M420,431.062H216c-2.208,0-4,1.792-4,4s1.792,4,4,4h204c2.208,0,4-1.792,4-4S422.208,431.062,420,431.062z"/>
	</g>
</g>
<g>
	<g>
		<path d="M213.132,325.51c-2.036-0.884-4.384,0.06-5.256,2.092l-30.728,71.392c-0.872,2.028,0.064,4.384,2.092,5.256
			c0.516,0.224,1.052,0.328,1.58,0.328c1.548,0,3.024-0.904,3.676-2.42l30.728-71.392
			C216.096,328.738,215.16,326.382,213.132,325.51z"/>
	</g>
</g>
<g>
	<g>
		<path d="M225.88,346.49c-2.036-0.884-4.384,0.06-5.256,2.092l-25.296,58.772c-0.872,2.028,0.064,4.384,2.092,5.256
			c0.516,0.224,1.052,0.328,1.58,0.328c1.548,0,3.024-0.904,3.676-2.42l25.296-58.772
			C228.844,349.718,227.908,347.362,225.88,346.49z"/>
	</g>
</g>
<g>
	<g>
		<path d="M500,95.062H84c-6.616,0-12,5.384-12,12v4c0,6.616,5.384,12,12,12h416c6.616,0,12-5.384,12-12v-4
			C512,100.446,506.616,95.062,500,95.062z M504,111.062c0,2.204-1.796,4-4,4H84c-2.204,0-4-1.796-4-4v-4c0-2.204,1.796-4,4-4h416
			c2.204,0,4,1.796,4,4V111.062z"/>
	</g>
</g>
<g>
	<g>
		<path d="M374.804,260.566c-4.536-4.536-12.432-4.536-16.968,0l-47.712,47.708L285.64,283.79c-4.536-4.536-12.432-4.536-16.968,0
			c-4.68,4.676-4.68,12.292,0,16.968l32.968,32.968c2.264,2.268,5.28,3.516,8.484,3.516c3.208,0,6.22-1.248,8.484-3.516
			l56.196-56.188c2.268-2.268,3.516-5.28,3.516-8.488S377.068,262.83,374.804,260.566z M369.148,271.878l-56.196,56.192
			c-1.512,1.512-4.144,1.512-5.656,0l-32.968-32.968c-1.56-1.56-1.56-4.096,0-5.656c0.756-0.756,1.76-1.172,2.828-1.172
			s2.072,0.416,2.828,1.172l27.312,27.312c1.564,1.564,4.092,1.564,5.656,0l50.54-50.536c1.512-1.512,4.144-1.516,5.66,0
			c0.752,0.756,1.168,1.76,1.168,2.828S369.904,271.122,369.148,271.878z"/>
	</g>
</g>
<g>
	<g>
		<path d="M318.164,173.242c-63.876,0-115.844,51.968-115.844,115.844c0,63.88,51.968,115.852,115.844,115.852
			s115.844-51.972,115.844-115.852C434.008,225.21,382.04,173.242,318.164,173.242z M318.164,396.938
			c-59.464,0-107.844-48.384-107.844-107.852c0-59.464,48.38-107.844,107.844-107.844s107.844,48.38,107.844,107.844
			C426.008,348.554,377.628,396.938,318.164,396.938z"/>
	</g>
</g>
<g>
	<g>
		<path d="M396.14,226.242c-1.392-1.72-3.916-1.984-5.628-0.592c-1.716,1.392-1.98,3.912-0.592,5.628
			c13.184,16.284,20.444,36.816,20.444,57.812c0,50.696-41.248,91.94-91.944,91.94s-91.944-41.244-91.944-91.94
			c0-50.696,41.244-91.94,91.944-91.94c18.032,0,35.496,5.22,50.496,15.096c1.848,1.216,4.328,0.7,5.54-1.144s0.7-4.324-1.144-5.54
			C357,194.826,338.016,189.15,318.416,189.15c-55.108,0-99.944,44.832-99.944,99.94c0,55.108,44.836,99.94,99.944,99.94
			c55.108,0,99.944-44.832,99.952-99.944C418.368,266.262,410.472,243.946,396.14,226.242z"/>
	</g>
</g>
<g>
</g>
<g>
</g>
<g>
</g>
<g>
</g>
<g>
</g>
<g>
</g>
<g>
</g>
<g>
</g>
<g>
</g>
<g>
</g>
<g>
</g>
<g>
</g>
<g>
</g>
<g>
</g>
<g>
</g>
</svg>
