<?xml version="1.0" encoding="iso-8859-1"?>
<!-- Generator: Adobe Illustrator 19.0.0, SVG Export Plug-In . SVG Version: 6.00 Build 0)  -->
<svg version="1.1" id="Layer_1" xmlns="http://www.w3.org/2000/svg" xmlns:xlink="http://www.w3.org/1999/xlink" x="0px" y="0px"
	 viewBox="0 0 390.403 390.403" style="enable-background:new 0 0 390.403 390.403;" xml:space="preserve">
<path style="fill:#FFC10D;" d="M346.002,199.635l-183.208,154.44c-16.808,14.61-39.046,17.907-57.988,11.378
	c42.279-0.517,76.412-32.517,80.226-74.796l5.43-61.802c0.517-0.517,1.616-1.099,2.198-1.616l70.982-76.412
	c3.814-4.331,3.814-11.378-0.517-15.192c-4.331-3.814-11.378-3.814-15.192,0.517l-55.273,58.505l5.43-65.034l35.749-42.279
	c2.198,5.43,5.43,10.279,9.762,14.61c8.663,8.663,20.622,12.994,32,11.96c-0.517,11.378,3.232,23.273,11.895,32
	c8.663,8.663,20.622,12.994,32,11.895c-0.517,11.378,3.232,23.273,11.96,32C335.659,194.204,340.572,197.437,346.002,199.635z"/>
<path style="fill:#56ACE0;" d="M181.736,50.043l-20.04,238.998c-2.715,31.418-28.186,54.756-59.087,54.756
	s-55.273-23.337-57.988-54.756L24.58,50.043c5.43,2.133,10.861,3.814,16.808,3.814c12.477,0,23.337-5.43,30.901-14.093
	c7.564,8.663,18.941,14.093,30.901,14.093c12.477,0,23.337-5.43,30.901-14.093c7.564,8.663,18.941,14.093,30.901,14.093
	C170.94,53.857,176.887,52.758,181.736,50.043z"/>
<path style="fill:#194F82;" d="M373.089,176.362c-8.145,5.947-19.523,4.848-26.57-2.198c-8.145-8.145-7.564-20.622,0-28.703
	c9.244-9.762-3.232-25.471-15.192-15.192c-8.145,8.145-21.139,8.145-28.703,0c-8.145-8.145-7.564-21.139,0-28.703
	c9.244-9.762-3.814-25.471-15.192-15.192c-8.145,8.145-21.139,8.145-28.703,0c-7.046-7.046-8.145-17.907-2.198-26.57
	c7.564-11.895-8.145-23.273-16.808-13.576L201.259,91.74l6.529-75.313c0.517-14.093-18.424-15.709-21.657-2.715
	c-1.616,10.861-9.762,17.907-20.04,17.907c-11.378,0-20.04-9.244-20.04-20.622c0-13.576-20.622-15.709-21.657,0
	c0,11.378-9.244,20.622-20.04,20.622c-11.378,0-20.04-9.244-20.04-20.622c0-13.576-20.622-15.709-21.657,0
	c0,11.378-9.244,20.622-20.04,20.622s-19.135-7.046-20.752-17.325C18.633,0.2-0.373,3.433,0.209,17.008l23.273,273.713
	c2.198,22.756,12.994,42.279,28.703,55.855c3.814,7.046,8.663,13.576,14.61,20.04c29.802,29.802,76.929,32,109.446,4.331
	l209.713-177.196C396.944,183.926,384.467,169.316,373.089,176.362z M104.807,365.453c42.279-0.517,76.412-32.517,80.226-74.796
	l5.43-61.802c0.517-0.517,1.616-1.099,2.198-1.616l70.982-76.412c3.814-4.331,3.814-11.378-0.517-15.192
	c-4.331-3.814-11.378-3.814-15.192,0.517l-55.273,58.505l5.43-65.034l35.749-42.279c2.198,5.43,5.43,10.279,9.762,14.61
	c8.663,8.663,20.622,12.994,32,11.895c-0.517,11.378,3.232,23.273,11.895,32c8.663,8.663,20.622,12.994,32,11.895
	c-0.517,11.378,3.232,23.273,11.895,32c4.331,4.331,9.244,7.564,14.61,9.762l-183.208,154.57
	C145.986,368.75,123.748,371.982,104.807,365.453z M44.621,289.041L24.58,50.043c5.43,2.198,10.861,3.814,16.808,3.814
	c12.477,0,23.273-5.43,30.901-14.093c7.564,8.663,18.941,14.093,30.901,14.093c12.477,0,23.273-5.43,30.901-14.093
	c7.564,8.663,18.941,14.093,30.901,14.093c5.947,0,11.895-1.099,16.808-3.814l-20.105,238.998
	c-2.715,31.418-28.186,54.756-59.087,54.756S47.336,320.524,44.621,289.041z"/>
<path style="fill:#FFFFFF;" d="M132.475,267.901c0-22.238-12.994-40.663-28.703-40.663s-28.703,18.424-28.703,40.663
	s12.994,40.663,28.703,40.663S132.475,290.14,132.475,267.901z"/>
<g>
	<path style="fill:#194F82;" d="M104.289,205.582c-27.669,0-50.424,28.186-50.424,62.319s22.756,62.319,50.424,62.319
		s50.424-28.186,50.424-62.319S131.893,205.582,104.289,205.582z M75.522,267.901c0-22.238,12.994-40.663,28.703-40.663
		s28.703,18.424,28.703,40.663s-12.994,40.663-28.703,40.663S75.522,290.14,75.522,267.901z"/>
	<path style="fill:#194F82;" d="M126.463,189.873c5.947,0,10.861-4.331,10.861-10.279l4.331-104.081
		c0-5.947-4.331-10.861-10.279-11.378c-5.947,0-10.861,4.331-11.378,10.279l-4.331,104.081
		C116.184,189.873,126.463,189.873,126.463,189.873z"/>
	<path style="fill:#194F82;" d="M83.667,189.873c5.947,0,10.861-5.43,10.279-11.378L89.615,74.415
		c0-5.947-5.43-10.861-11.378-10.279c-5.947,0-10.861,5.43-10.279,11.378l4.331,104.081
		C73.388,190.455,83.667,189.873,83.667,189.873z"/>
	<path style="fill:#194F82;" d="M283.683,172.031l-76.412,70.465c-7.564,8.145-0.517,15.709-0.517,15.709
		c4.331,4.331,10.861,4.331,15.192,0.517l76.412-70.982c4.331-3.814,4.848-10.861,0.517-15.192
		C295.061,168.217,288.015,167.635,283.683,172.031z"/>
</g>
<g>
</g>
<g>
</g>
<g>
</g>
<g>
</g>
<g>
</g>
<g>
</g>
<g>
</g>
<g>
</g>
<g>
</g>
<g>
</g>
<g>
</g>
<g>
</g>
<g>
</g>
<g>
</g>
<g>
</g>
</svg>
