<?xml version="1.0" encoding="iso-8859-1"?>
<!-- Generator: Adobe Illustrator 19.0.0, SVG Export Plug-In . SVG Version: 6.00 Build 0)  -->
<svg version="1.1" id="Layer_1" xmlns="http://www.w3.org/2000/svg" xmlns:xlink="http://www.w3.org/1999/xlink" x="0px" y="0px"
	 viewBox="0 0 504.986 504.986" style="enable-background:new 0 0 504.986 504.986;" xml:space="preserve">
<path style="fill:#FFFFFF;" d="M476.932,252.493c0-123.441-100.997-224.438-224.438-224.438S28.055,129.052,28.055,252.493
	s100.997,224.438,224.438,224.438S476.932,375.934,476.932,252.493z"/>
<path style="fill:#194F82;" d="M252.493,0C112.921,0,0,112.921,0,252.493s112.921,252.493,252.493,252.493
	s252.493-112.921,252.493-252.493S392.066,0,252.493,0z M28.055,252.493c0-123.441,100.997-224.438,224.438-224.438
	s224.438,100.997,224.438,224.438S375.934,476.932,252.493,476.932S28.055,375.934,28.055,252.493z"/>
<path style="fill:#FFC10D;" d="M252.493,448.877c-108.011,0-196.384-88.373-196.384-196.384S144.482,56.11,252.493,56.11
	s196.384,88.373,196.384,196.384S360.504,448.877,252.493,448.877z"/>
<polygon style="fill:#56ACE0;" points="236.362,236.362 185.162,319.825 268.625,268.625 319.825,185.162 "/>
<g>
	<path style="fill:#194F82;" d="M354.893,130.455l-138.871,85.567l-85.567,138.871c-7.715,12.625,7.014,26.652,18.937,18.937
		l138.871-85.567l85.567-138.871C382.247,137.468,367.518,122.74,354.893,130.455z M185.162,319.825l51.2-83.463l83.463-51.2
		l-51.2,83.463L185.162,319.825z"/>
	<polygon style="fill:#194F82;" points="122.74,223.036 110.816,256.701 100.296,223.036 86.97,223.036 76.449,256.701 
		64.526,223.036 50.499,223.036 70.838,281.951 80.658,281.951 93.282,241.271 106.608,281.951 116.427,281.951 136.767,223.036 	
		"/>
	<polygon style="fill:#194F82;" points="424.329,270.027 424.329,258.104 450.981,258.104 450.981,246.882 424.329,246.882 
		424.329,234.959 453.786,234.959 453.786,223.036 411.003,223.036 411.003,281.951 454.488,281.951 454.488,270.027 	"/>
	<polygon style="fill:#194F82;" points="238.466,68.734 266.521,105.907 279.847,105.907 279.847,46.992 266.521,46.992 
		266.521,84.866 237.764,46.992 225.14,46.992 225.14,105.907 238.466,105.907 	"/>
	<path style="fill:#194F82;" d="M258.104,422.225c-5.611-1.403-12.625-2.806-13.326-7.715c0-1.403,1.403-5.611,7.014-5.611
		s10.521,2.104,16.132,5.611l6.312-9.819c-2.805-3.507-16.132-8.416-21.742-7.715c-17.534,0.701-21.041,11.923-21.041,17.534
		c-0.701,14.027,12.625,16.833,19.638,18.937c4.208,1.403,10.521,2.104,10.521,7.715c0,4.91-5.611,5.611-7.715,5.611
		c-5.611,0-11.222-2.806-17.534-8.416l-7.715,9.819c7.715,7.014,16.132,10.521,25.249,10.521c6.312,0,21.742-2.805,21.742-17.534
		C275.638,427.836,263.715,423.627,258.104,422.225z"/>
</g>
<g>
</g>
<g>
</g>
<g>
</g>
<g>
</g>
<g>
</g>
<g>
</g>
<g>
</g>
<g>
</g>
<g>
</g>
<g>
</g>
<g>
</g>
<g>
</g>
<g>
</g>
<g>
</g>
<g>
</g>
</svg>
