<?xml version="1.0" encoding="iso-8859-1"?>
<!-- Generator: Adobe Illustrator 19.0.0, SVG Export Plug-In . SVG Version: 6.00 Build 0)  -->
<svg version="1.1" id="Layer_1" xmlns="http://www.w3.org/2000/svg" xmlns:xlink="http://www.w3.org/1999/xlink" x="0px" y="0px"
	 viewBox="0 0 390.206 390.206" style="enable-background:new 0 0 390.206 390.206;" xml:space="preserve">
<path style="fill:#FFC10D;" d="M213.527,333.576l20.622-233.05c2.198-18.941-17.907-36.331-39.046-35.749
	c-20.622,0-40.081,14.61-39.046,35.749l20.622,233.05c0.517,4.331-1.616,8.145-5.43,10.279l-32,17.907v7.564h111.644v-7.564
	l-32-17.907C215.143,341.721,213.01,337.325,213.527,333.576z"/>
<g>
	<polygon style="fill:#56ACE0;" points="140.929,171.507 21.657,171.507 21.657,234.925 146.295,234.925 	"/>
	<polygon style="fill:#56ACE0;" points="243.911,234.925 368.549,234.925 368.549,171.507 249.277,171.507 	"/>
</g>
<path style="fill:#194F82;" d="M379.345,149.851H251.475l4.331-47.709c2.198-31.418-23.273-54.756-49.842-58.505V32.776h41.18
	c5.947,0,10.861-4.848,10.861-10.861s-4.848-10.861-10.861-10.861h-41.18c0-5.947-4.848-10.861-10.861-10.861
	c-5.947,0-10.861,4.848-10.861,10.861h-41.18c-5.947,0-10.861,4.848-10.861,10.861s4.848,10.861,10.861,10.861h41.18v10.861
	c-27.669,5.43-51.459,24.954-49.842,58.505l4.331,47.709H10.861C4.913,149.851,0,154.699,0,160.711v85.075
	c0,5.947,4.848,10.861,10.861,10.861h137.115l6.529,71.564l-31.418,17.325c-3.232,2.198-5.43,5.43-5.43,9.244v24.372
	c0,5.947,4.848,10.861,10.861,10.861h133.301c5.948,0,10.861-4.848,10.861-10.861v-23.855c0-3.814-2.198-7.564-5.43-9.244
	l-31.418-17.907l6.529-71.564h136.986c5.947,0,10.861-4.848,10.861-10.861v-85.075C390.206,154.699,385.358,149.851,379.345,149.851
	z M250.958,368.808H139.248v-7.564l32-17.907c3.814-2.198,5.947-5.947,5.43-10.279l-20.622-233.051
	c-1.099-21.139,18.424-35.749,39.046-35.749c21.139-0.517,41.18,16.808,39.046,35.749l-20.622,233.051
	c-0.517,4.331,1.616,8.145,5.43,10.279l32,17.907V368.808L250.958,368.808z M21.657,171.507h119.208l5.43,63.418H21.657V171.507z
	 M368.549,234.925H243.911l5.43-63.418h119.208V234.925z"/>
<g>
</g>
<g>
</g>
<g>
</g>
<g>
</g>
<g>
</g>
<g>
</g>
<g>
</g>
<g>
</g>
<g>
</g>
<g>
</g>
<g>
</g>
<g>
</g>
<g>
</g>
<g>
</g>
<g>
</g>
</svg>
