<?xml version="1.0" encoding="iso-8859-1"?>
<!-- Generator: Adobe Illustrator 16.0.0, SVG Export Plug-In . SVG Version: 6.00 Build 0)  -->
<!DOCTYPE svg PUBLIC "-//W3C//DTD SVG 1.1//EN" "http://www.w3.org/Graphics/SVG/1.1/DTD/svg11.dtd">
<svg version="1.1" id="Capa_1" xmlns="http://www.w3.org/2000/svg" xmlns:xlink="http://www.w3.org/1999/xlink" x="0px" y="0px"
	 width="28.436px" height="28.436px" viewBox="0 0 28.436 28.436" style="enable-background:new 0 0 28.436 28.436;"
	 xml:space="preserve">
<g>
	<path d="M18.314,5.548l-0.257-0.26C9.764-3.105,3.577,0.96,3.301,1.149L3.064,1.317l0.102,0.271
		C3.32,1.997,3.454,2.435,3.519,2.716C2.924,2.802,2.172,3.258,1.702,3.58C1.089,3.999,0.81,4.272,0.979,4.602
		c0.115,0.223,0.344,0.273,0.682,0.15c0.476-0.173,1.142,0.012,1.631,0.214C3.034,5.218,2.747,5.608,2.598,6.174
		C2.3,7.301,2.898,8.902,2.909,8.923c0.28,1.194,0.222,2.051,0.17,2.808c-0.054,0.781-0.1,1.456,0.269,2.183
		c0.17,0.335,0.441,0.558,0.782,0.645c0.45,0.115,0.993-0.014,1.49-0.354c0.443-0.303,0.744-0.711,0.804-1.092
		c0.038-0.245-0.018-0.474-0.164-0.662c-0.28-0.362,0.224-1.133,0.541-1.49c1.305-0.762,1.77-1.846,1.877-2.76
		c0.743,1.013,1.875,2.766,2.512,4.768l0.128,0.4l0.383-0.171c0.966-0.432,1.869-0.936,2.731-1.474l11.407,16.321
		c0.285,0.41,0.855,0.514,1.268,0.231l0.008-0.006c0.413-0.29,0.516-0.862,0.227-1.276L15.943,10.683
		c0.797-0.602,1.578-1.251,2.316-1.984l0.316-0.315l-0.365-0.258c-0.602-0.423-0.979-0.951-1.14-1.203
		c0.106-0.147,0.364-0.465,0.988-1.111L18.314,5.548z M26.686,27.654l0.21,0.312l-0.212-0.31c-0.075,0.051-0.178,0.031-0.23-0.043
		L15.094,11.358c0.093-0.056,0.187-0.114,0.283-0.176l11.351,16.242C26.779,27.498,26.761,27.602,26.686,27.654z M16.282,7.035
		l0.061,0.213L16.4,7.265c0.146,0.241,0.482,0.735,1.025,1.2c-1.068,1.022-2.197,1.882-3.408,2.637l-0.014,0.008l0.001,0.001
		c-0.713,0.444-1.447,0.861-2.233,1.23c-1.095-3.1-3.167-5.457-3.258-5.559L7.401,5.526l0.473,1.608
		C7.88,7.154,8.457,9.16,6.38,10.338l-0.05,0.028l-0.039,0.042c-0.144,0.153-1.38,1.522-0.607,2.588
		c-0.022,0.139-0.183,0.382-0.487,0.59c-0.31,0.212-0.647,0.306-0.881,0.247c-0.131-0.034-0.226-0.116-0.299-0.258
		c-0.276-0.542-0.24-1.067-0.19-1.792c0.052-0.769,0.118-1.727-0.203-3.077c-0.15-0.4-0.497-1.596-0.301-2.34
		c0.21-0.796,0.809-1.105,0.839-1.12l0.663-0.292L4.204,4.581C4.157,4.553,3.372,4.089,2.473,3.974
		c0.625-0.38,1.118-0.555,1.231-0.536l0.22,0.127l0.2-0.156c0.154-0.12,0.382-0.298-0.148-1.795
		c1.164-0.649,6.358-2.89,13.291,3.943C16.191,6.694,16.231,6.846,16.282,7.035z"/>
</g>
<g>
</g>
<g>
</g>
<g>
</g>
<g>
</g>
<g>
</g>
<g>
</g>
<g>
</g>
<g>
</g>
<g>
</g>
<g>
</g>
<g>
</g>
<g>
</g>
<g>
</g>
<g>
</g>
<g>
</g>
</svg>
