<?xml version="1.0" encoding="iso-8859-1"?>
<!-- Generator: Adobe Illustrator 19.0.0, SVG Export Plug-In . SVG Version: 6.00 Build 0)  -->
<svg version="1.1" id="Layer_1" xmlns="http://www.w3.org/2000/svg" xmlns:xlink="http://www.w3.org/1999/xlink" x="0px" y="0px"
	 viewBox="0 0 512 512" style="enable-background:new 0 0 512 512;" xml:space="preserve">
<circle style="fill:#FFAD38;" cx="256" cy="256" r="247.83"/>
<circle style="fill:#FFC066;" cx="256" cy="256" r="220.596"/>
<g>
	<path style="fill:#FFAD38;" d="M184.587,209.921c-12.097-2.914-19.543-15.083-16.63-27.182
		c2.913-12.098,15.083-19.544,27.181-16.63l59.525,14.335l62.831-25.868l25.173,6.062l-15.858,5.584l-44.043,41.973L184.587,209.921
		z"/>
	<path style="fill:#FFAD38;" d="M238.119,298.348c-12.098-2.914-19.544-15.083-16.631-27.182
		c2.913-12.098,15.083-19.543,27.182-16.631l58.465,14.08l63.89-25.612l25.172,6.061L381.998,256l-47.64,40.804L238.119,298.348z"/>
</g>
<path d="M437.019,74.981C388.667,26.628,324.38,0,256,0S123.333,26.628,74.981,74.981C26.628,123.332,0,187.62,0,256
	s26.628,132.668,74.981,181.019C123.333,485.372,187.62,512,256,512s132.667-26.628,181.019-74.981
	C485.372,388.668,512,324.38,512,256S485.372,123.332,437.019,74.981z M256,495.66c-132.149,0-239.66-107.51-239.66-239.66
	S123.851,16.34,256,16.34S495.66,123.851,495.66,256S388.149,495.66,256,495.66z M256,27.234
	C129.858,27.234,27.234,129.858,27.234,256S129.858,484.766,256,484.766S484.766,382.142,484.766,256S382.142,27.234,256,27.234z
	 M256,468.426c-117.131,0-212.426-95.294-212.426-212.426S138.869,43.574,256,43.574S468.426,138.869,468.426,256
	S373.131,468.426,256,468.426z M193.362,385.089v45.753c0,4.512-3.657,8.17-8.17,8.17s-8.17-3.658-8.17-8.17v-45.753
	c0-4.512,3.657-8.17,8.17-8.17S193.362,380.577,193.362,385.089z M233.123,376.919c-17.119,0-31.047,13.927-31.047,31.047
	s13.928,31.047,31.047,31.047s31.047-13.927,31.047-31.047S250.243,376.919,233.123,376.919z M233.123,422.672
	c-8.109,0-14.706-6.597-14.706-14.706c0-8.109,6.597-14.706,14.706-14.706s14.706,6.597,14.706,14.706
	C247.83,416.075,241.233,422.672,233.123,422.672z M303.932,376.919c-17.119,0-31.047,13.927-31.047,31.047
	s13.927,31.047,31.047,31.047c17.119,0,31.047-13.927,31.047-31.047S321.051,376.919,303.932,376.919z M303.932,422.672
	c-8.109,0-14.706-6.597-14.706-14.706c0-8.109,6.597-14.706,14.706-14.706c8.109,0,14.706,6.597,14.706,14.706
	C318.638,416.075,312.041,422.672,303.932,422.672z M184.593,218.093c0.009,0,0.017-0.002,0.024-0.002h105.634l-7.165,13.445
	c-2.121,3.983-0.613,8.931,3.368,11.053c3.986,2.124,8.931,0.613,11.053-3.368l13.566-25.457c1.349-2.533,1.271-5.587-0.205-8.047
	c-1.476-2.46-4.136-3.965-7.006-3.965h-1.549l37.555-33.382l0.886,0.212c4.385,1.058,8.799-1.644,9.857-6.031
	c1.057-4.387-1.644-8.8-6.031-9.855l-18.97-4.568c-1.271-8.836-7.151-18.829-21.36-22.251c-4.389-1.059-8.799,1.644-9.857,6.031
	c-1.057,4.387,1.644,8.8,6.031,9.855c5.911,1.424,8.103,4.571,8.817,7.376l-55.239,22.742l-56.95-13.715
	c-16.455-3.966-33.073,6.202-37.038,22.662c-1.762,7.321-0.723,14.668,2.414,20.923h-21.074c-2.998,0-5.755,1.642-7.183,4.278
	l-25.552,47.152c-2.15,3.967-0.676,8.926,3.291,11.076c1.238,0.67,2.57,0.988,3.885,0.988c2.901,0,5.712-1.549,7.191-4.279
	l23.234-42.874h38.339C184.571,218.091,184.581,218.093,184.593,218.093z M175.899,184.653c1.855-7.699,9.627-12.451,17.326-10.601
	l59.525,14.335c1.672,0.403,3.43,0.268,5.023-0.388l60.382-24.859l2.362,0.569l-42.797,38.043h-91.99
	C178.493,199.577,174.108,192.088,175.899,184.653z M398.112,241.123l-4.912-1.183c-0.007-0.001-0.013-0.003-0.02-0.004
	l-14.04-3.381c-1.271-8.836-7.152-18.829-21.361-22.25c-4.387-1.059-8.8,1.644-9.857,6.031c-1.057,4.387,1.644,8.8,6.031,9.855
	c5.874,1.414,8.078,4.534,8.806,7.325l-56.247,22.549l-55.931-13.47c-16.457-3.966-33.073,6.202-37.037,22.66
	c-1.716,7.121-0.855,14.455,2.394,20.924h-21.055c-2.998,0-5.755,1.642-7.183,4.278l-25.552,47.152
	c-2.15,3.967-0.676,8.926,3.291,11.076c1.238,0.67,2.57,0.988,3.885,0.988c2.901,0,5.712-1.549,7.191-4.279l23.234-42.875h38.339
	c0.013,0,0.024,0.002,0.036,0.002c0.009,0,0.016-0.002,0.025-0.002h105.633l-7.165,13.446c-2.121,3.982-0.613,8.931,3.368,11.053
	c3.986,2.123,8.932,0.613,11.053-3.368l13.566-25.458c1.349-2.532,1.271-5.586-0.205-8.047c-1.476-2.46-4.136-3.965-7.006-3.965
	h-1.549l37.555-33.382l0.886,0.214c4.386,1.058,8.8-1.644,9.857-6.03C405.199,246.591,402.498,242.179,398.112,241.123z
	 M331.251,290.178h-91.994c-3.388-1.016-6.252-3.199-8.112-6.24c-2.002-3.272-2.61-7.129-1.712-10.858
	c1.855-7.699,9.628-12.453,17.326-10.601l58.465,14.08c1.648,0.397,3.379,0.271,4.953-0.359l61.472-24.644l2.402,0.578
	L331.251,290.178z M434.236,211.185c-0.78,0.233-1.568,0.344-2.342,0.344c-3.518,0-6.766-2.29-7.825-5.832
	c-7.888-26.394-22.19-50.931-41.363-70.958c-3.12-3.259-3.008-8.432,0.252-11.552c3.259-3.12,8.431-3.008,11.552,0.252
	c20.953,21.889,36.588,48.714,45.214,77.579C441.017,205.34,438.56,209.893,434.236,211.185z M87.931,205.695
	c-1.059,3.543-4.307,5.832-7.825,5.832c-0.775,0-1.562-0.111-2.342-0.344c-4.324-1.292-6.781-5.844-5.488-10.167
	c11.688-39.106,36.234-74.167,69.117-98.724c3.617-2.701,8.736-1.958,11.434,1.657c2.701,3.616,1.959,8.736-1.657,11.435
	C121.079,137.857,98.621,169.93,87.931,205.695z M166.791,95.341c-2.016-4.036-0.378-8.944,3.659-10.96
	c26.717-13.344,55.5-20.109,85.55-20.109c1.645,0,3.373,0.027,5.437,0.085c4.51,0.126,8.063,3.885,7.938,8.396
	c-0.125,4.511-3.844,8.075-8.396,7.939c-1.909-0.054-3.49-0.08-4.979-0.08c-27.492,0-53.819,6.186-78.249,18.386
	c-1.171,0.585-2.417,0.863-3.644,0.863C171.108,99.862,168.223,98.205,166.791,95.341z M285.67,74.645
	c0.921-4.418,5.247-7.255,9.666-6.33c26.667,5.561,51.391,16.548,73.486,32.655c3.647,2.658,4.448,7.768,1.79,11.415
	c-1.599,2.194-4.087,3.359-6.608,3.359c-1.67,0-3.354-0.51-4.806-1.569C338.989,99.445,316.38,89.396,292,84.311
	C287.583,83.39,284.749,79.063,285.67,74.645z"/>
<g>
</g>
<g>
</g>
<g>
</g>
<g>
</g>
<g>
</g>
<g>
</g>
<g>
</g>
<g>
</g>
<g>
</g>
<g>
</g>
<g>
</g>
<g>
</g>
<g>
</g>
<g>
</g>
<g>
</g>
</svg>
