<?xml version="1.0" encoding="iso-8859-1"?>
<!-- Generator: Adobe Illustrator 19.0.0, SVG Export Plug-In . SVG Version: 6.00 Build 0)  -->
<svg version="1.1" id="Layer_1" xmlns="http://www.w3.org/2000/svg" xmlns:xlink="http://www.w3.org/1999/xlink" x="0px" y="0px"
	 viewBox="0 0 512 512" style="enable-background:new 0 0 512 512;" xml:space="preserve">
<path style="fill:#575771;" d="M256,512c-9.217,0-16.696-7.473-16.696-16.696V217.043c0-9.223,7.479-16.696,16.696-16.696
	s16.696,7.473,16.696,16.696v278.261C272.696,504.527,265.217,512,256,512z"/>
<path style="fill:#494965;" d="M272.696,495.304V217.043c0-9.223-7.479-16.696-16.696-16.696V512
	C265.217,512,272.696,504.527,272.696,495.304z"/>
<path style="fill:#575771;" d="M272.696,233.739V16.696C272.696,7.473,265.217,0,256,0s-16.696,7.473-16.696,16.696v217.043H272.696
	z"/>
<path style="fill:#494965;" d="M272.696,233.739V16.696C272.696,7.473,265.217,0,256,0v233.739H272.696z"/>
<path style="fill:#BA4931;" d="M489.739,233.739H22.261c-7.022,0-13.293-4.397-15.696-10.995c-2.391-6.598-0.402-13.994,4.979-18.5
	L245.283,37.288c6.195-5.196,15.239-5.196,21.435,0l233.739,166.957c5.38,4.506,7.369,11.902,4.979,18.5
	C503.032,229.343,496.761,233.739,489.739,233.739z"/>
<path style="fill:#AD3D25;" d="M489.739,233.739c7.022,0,13.293-4.397,15.696-10.995c2.391-6.598,0.402-13.994-4.979-18.5
	L266.717,37.288c-3.098-2.598-6.908-3.897-10.717-3.897v200.348H489.739z"/>
<path style="fill:#C8563E;" d="M400.696,233.739H111.304L241.53,41.628c3.005-5.12,8.57-8.237,14.47-8.237s11.464,3.117,14.47,8.237
	L400.696,233.739z"/>
<path style="fill:#BA4931;" d="M400.696,233.739L270.47,41.628c-3.005-5.12-8.57-8.237-14.47-8.237v200.348H400.696z"/>
<g>
</g>
<g>
</g>
<g>
</g>
<g>
</g>
<g>
</g>
<g>
</g>
<g>
</g>
<g>
</g>
<g>
</g>
<g>
</g>
<g>
</g>
<g>
</g>
<g>
</g>
<g>
</g>
<g>
</g>
</svg>
