<?xml version="1.0" encoding="iso-8859-1"?>
<!-- Generator: Adobe Illustrator 19.0.0, SVG Export Plug-In . SVG Version: 6.00 Build 0)  -->
<svg version="1.1" id="Layer_1" xmlns="http://www.w3.org/2000/svg" xmlns:xlink="http://www.w3.org/1999/xlink" x="0px" y="0px"
	 viewBox="0 0 512 512" style="enable-background:new 0 0 512 512;" xml:space="preserve">
<g transform="translate(1 1)">
	<g>
		<path d="M459.8,97.133c-0.853-3.413-2.56-5.973-5.973-6.827C416.28,78.36,323.267,124.44,263.533,225.133v-5.973
			c-1.684-46.304,1.618-169.843,26.29-198.553c2.308,21.791,10.595,38.896,24.91,51.779c20.48,18.773,47.787,20.48,57.173,20.48
			c1.707,0,10.24-4.267,10.24-8.533c0-0.853,2.56-35.84-20.48-60.587C347.16,7.533,325.827-1,297.667-1
			c-6.827,0-13.653,2.56-18.773,8.533c-34.987,35.84-32.427,193.707-32.427,211.627v5.973C186.733,124.44,93.72,78.36,56.173,90.307
			c-3.413,0.853-5.12,3.413-5.973,6.827s0.853,6.827,3.413,8.533c29.867,19.627,50.347,59.733,72.533,101.547
			c19.621,37.732,39.249,76.126,68.312,107.52H97.987c-11.947,0-22.187,10.24-22.187,21.333v7.68
			c0,11.947,10.24,22.187,22.187,22.187h5.483l45.609,128H92.867c-5.12,0-8.533,3.413-8.533,8.533S87.747,511,92.867,511h62.293
			h199.68h53.76c5.12,0,8.533-3.413,8.533-8.533s-3.413-8.533-8.533-8.533h-47.742l45.137-128h6.018
			c11.947,0,22.187-10.24,23.04-21.333v-7.68c0-11.947-10.24-22.187-22.187-22.187h-97.584
			c28.642-31.544,48.944-70.531,68.571-107.52c22.187-41.813,42.667-81.067,72.533-101.547
			C458.947,103.96,460.653,100.547,459.8,97.133z M349.72,35.693c11.947,12.8,15.36,29.867,16.213,40.107
			c-10.24-0.853-27.307-4.267-40.107-16.213c-10.24-9.387-17.067-23.893-18.773-42.667C324.973,18.627,339.48,24.6,349.72,35.693z
			 M350.14,148.362c-10.309,16.967-19.308,35.919-28.58,55.438c-16.582,33.886-33.166,68.989-57.983,97.591
			c0.327-36.394,2.748-47.492,14.463-68.578C299.329,196.937,324.988,168.911,350.14,148.362z M231.96,233.667
			c11.431,19.814,14.013,30.802,14.435,65.136c-24.802-28.579-41.379-63.557-57.955-96.709
			c-9.322-18.645-18.142-36.513-27.836-52.796C185.498,169.924,210.798,198.005,231.96,233.667z M81.773,107.373
			c10.895,1.937,23.99,6.697,38.209,14.286c0.427,0.996,1.058,1.94,1.898,2.781c20.48,22.187,34.987,52.053,51.2,85.333
			c16.879,35.225,35.028,71.706,62.029,102.4h-19.363c-31.573-30.72-52.907-72.533-74.24-111.787
			C123.587,164.547,105.667,131.267,81.773,107.373z M167.107,493.933l-25.6-75.947l6.827,5.973
			c3.413,2.56,13.653,10.24,30.72,10.24c8.533,0,15.36-4.267,21.333-8.533c2.56-2.56,5.12-4.267,7.68-5.12
			c13.653-5.12,17.067-4.267,23.893,2.56l33.28,34.987c5.973,6.827,16.213,11.093,28.16,10.24c10.24,0,20.48-4.267,29.867-11.947
			l12.8-11.093c3.413-2.56,7.68-3.413,11.947-0.853l10.24,5.973l-15.36,43.52H167.107z M363.756,434.887l-8.916-4.954
			c-9.387-5.973-22.187-5.12-31.573,2.56l-12.8,11.093c-4.267,3.413-11.093,8.533-19.627,8.533c-5.973,0-11.947-1.707-14.507-5.12
			l-33.28-35.84c-14.507-13.653-26.453-12.8-42.667-5.973c-4.267,1.707-7.68,4.267-11.093,6.827
			c-4.267,3.413-8.533,5.973-11.947,5.973c-11.093,0-17.067-5.12-19.627-6.827l-28.776-25.234l-7.064-19.992h266.24L363.756,434.887
			z M417.987,336.067v7.68c0,2.56-2.56,5.12-5.12,5.12h-0.853H97.987c-2.56,0-5.12-2.56-5.12-4.267v-7.68
			c0-2.56,2.56-5.12,5.12-5.12l314.88-0.853C415.427,330.947,417.987,333.507,417.987,336.067z M368.493,199.533
			c-20.48,40.107-42.667,81.92-74.24,112.64h-16.163c25.252-29.644,42.626-65.32,58.829-99.84c15.36-33.28,30.72-64.853,51.2-86.187
			c1.473-1.473,2.307-3.265,2.509-5.099c14.101-7.542,27.005-12.36,37.598-14.527C405.187,130.413,387.267,163.693,368.493,199.533z
			"/>
	</g>
</g>
<g>
</g>
<g>
</g>
<g>
</g>
<g>
</g>
<g>
</g>
<g>
</g>
<g>
</g>
<g>
</g>
<g>
</g>
<g>
</g>
<g>
</g>
<g>
</g>
<g>
</g>
<g>
</g>
<g>
</g>
</svg>
