<?xml version="1.0" encoding="iso-8859-1"?>
<!-- Generator: Adobe Illustrator 19.0.0, SVG Export Plug-In . SVG Version: 6.00 Build 0)  -->
<svg version="1.1" id="Layer_1" xmlns="http://www.w3.org/2000/svg" xmlns:xlink="http://www.w3.org/1999/xlink" x="0px" y="0px"
	 viewBox="0 0 512 512" style="enable-background:new 0 0 512 512;" xml:space="preserve">
<path style="fill:#FEF0D9;" d="M512,341.333H0v-307.2C0,15.283,15.283,0,34.133,0h443.733C496.717,0,512,15.283,512,34.133V341.333z
	"/>
<path style="fill:#E66032;" d="M477.867,409.6H34.133C15.283,409.6,0,394.317,0,375.467v-34.133h512v34.133
	C512,394.317,496.717,409.6,477.867,409.6z"/>
<path style="fill:#FADDA6;" d="M469.333,290.133H230.4V68.267h238.933V290.133z M247.467,273.067h204.8V85.333h-204.8V273.067z"/>
<g>
	<path style="fill:#F5B945;" d="M221.867,76.8L221.867,76.8c0-9.429,7.637-17.067,17.067-17.067l0,0
		c9.429,0,17.067,7.637,17.067,17.067l0,0c0,9.429-7.637,17.067-17.067,17.067l0,0C229.504,93.867,221.867,86.229,221.867,76.8z"/>
	<path style="fill:#F5B945;" d="M443.733,76.8L443.733,76.8c0-9.429,7.637-17.067,17.067-17.067l0,0
		c9.429,0,17.067,7.637,17.067,17.067l0,0c0,9.429-7.637,17.067-17.067,17.067l0,0C451.371,93.867,443.733,86.229,443.733,76.8z"/>
	<path style="fill:#F5B945;" d="M221.867,281.6L221.867,281.6c0-9.429,7.637-17.067,17.067-17.067l0,0
		c9.429,0,17.067,7.637,17.067,17.067l0,0c0,9.429-7.637,17.067-17.067,17.067l0,0C229.504,298.667,221.867,291.029,221.867,281.6z"
		/>
	<path style="fill:#F5B945;" d="M443.733,281.6L443.733,281.6c0-9.429,7.637-17.067,17.067-17.067l0,0
		c9.429,0,17.067,7.637,17.067,17.067l0,0c0,9.429-7.637,17.067-17.067,17.067l0,0C451.371,298.667,443.733,291.029,443.733,281.6z"
		/>
</g>
<g>
	<path style="fill:#F7C76A;" d="M332.8,281.6L332.8,281.6c0-9.429,7.637-17.067,17.067-17.067l0,0
		c9.429,0,17.067,7.637,17.067,17.067l0,0c0,9.429-7.637,17.067-17.067,17.067l0,0C340.437,298.667,332.8,291.029,332.8,281.6z"/>
	<path style="fill:#F7C76A;" d="M332.8,76.8L332.8,76.8c0-9.429,7.637-17.067,17.067-17.067l0,0c9.429,0,17.067,7.637,17.067,17.067
		l0,0c0,9.429-7.637,17.067-17.067,17.067l0,0C340.437,93.867,332.8,86.229,332.8,76.8z"/>
</g>
<path style="fill:#F5B945;" d="M401.126,221.867h-31.71l-3.968-8.533H332.8l-3.968,8.533H298.18L332.271,128h34.825L401.126,221.867
	z M348.894,162.133l-9.865,25.6h20.19l-9.737-25.6H348.894z"/>
<rect x="187.733" y="409.6" style="fill:#E66032;" width="136.533" height="93.867"/>
<rect x="187.733" y="409.6" style="fill:#AD4826;" width="136.533" height="8.533"/>
<g>
	<rect x="34.133" y="59.733" style="fill:#F5B945;" width="51.2" height="34.133"/>
	<rect x="119.467" y="59.733" style="fill:#F5B945;" width="59.733" height="34.133"/>
</g>
<rect x="119.467" y="93.867" style="fill:#FADDA6;" width="59.733" height="59.733"/>
<rect x="119.467" y="170.667" style="fill:#F5B945;" width="59.733" height="34.133"/>
<g>
	<rect x="119.467" y="204.8" style="fill:#FADDA6;" width="59.733" height="76.8"/>
	<rect x="34.133" y="93.867" style="fill:#FADDA6;" width="51.2" height="204.8"/>
</g>
<g>
	<circle style="fill:#EB805B;" cx="255.582" cy="375.808" r="11.913"/>
	<path style="fill:#EB805B;" d="M256.529,476.621c-18.133,0-32.887-15.821-32.887-32.887h17.067c0,8.533,7.1,15.821,15.821,15.821
		s15.829-7.287,15.829-15.821h17.067C289.425,460.8,274.671,476.621,256.529,476.621z"/>
</g>
<rect x="162.133" y="494.933" style="fill:#AD4826;" width="187.733" height="17.067"/>
<g>
	<rect x="76.8" y="341.333" style="fill:#EB805B;" width="17.067" height="68.267"/>
	<rect x="110.933" y="341.333" style="fill:#EB805B;" width="8.533" height="68.267"/>
</g>
<g>
</g>
<g>
</g>
<g>
</g>
<g>
</g>
<g>
</g>
<g>
</g>
<g>
</g>
<g>
</g>
<g>
</g>
<g>
</g>
<g>
</g>
<g>
</g>
<g>
</g>
<g>
</g>
<g>
</g>
</svg>
