<?xml version="1.0" encoding="iso-8859-1"?>
<!-- Generator: Adobe Illustrator 19.0.0, SVG Export Plug-In . SVG Version: 6.00 Build 0)  -->
<svg version="1.1" id="Layer_1" xmlns="http://www.w3.org/2000/svg" xmlns:xlink="http://www.w3.org/1999/xlink" x="0px" y="0px"
	 viewBox="0 0 512 512" style="enable-background:new 0 0 512 512;" xml:space="preserve">
<circle style="fill:#A8A2A2;" cx="256" cy="256" r="256"/>
<circle style="fill:#D2CFCE;" cx="256" cy="256" r="227.868"/>
<path style="fill:#BCB6B8;" d="M317.89,416.54H194.11c-4.662,0-8.44-3.779-8.44-8.44c0-4.661,3.778-8.44,8.44-8.44h123.78
	c4.662,0,8.44,3.779,8.44,8.44C326.33,412.761,322.552,416.54,317.89,416.54z"/>
<path style="fill:#8C8484;" d="M170.005,148.692c0,0,0,127.371,0,160.869c0,11.085,8.449,23.455,18.774,27.488
	c16.805,6.565,67.222,26.258,67.222,26.258s50.416-19.693,67.222-26.258c10.326-4.033,18.774-16.403,18.774-27.488
	c0-33.499,0-160.869,0-160.869L170.005,148.692L170.005,148.692z"/>
<path style="fill:#A8A2A2;" d="M308.238,180.044c-24.512,0-34.698,47.002-38.518,73.949h-5.28V182.45c0-4.661-3.778-8.44-8.44-8.44
	c-4.662,0-8.44,3.779-8.44,8.44v71.543h-5.279c-3.821-26.947-14.006-73.949-38.519-73.949c-4.662,0-8.44,3.779-8.44,8.44v121.078
	c0,4.661,3.778,8.44,8.44,8.44h43.798v2.813c0,4.661,3.778,8.44,8.44,8.44c4.662,0,8.44-3.779,8.44-8.44v-2.813h43.798
	c4.662,0,8.44-3.779,8.44-8.44V188.484C316.677,183.823,312.898,180.044,308.238,180.044z M297.164,212.381
	c0.904-2.189,1.786-4.081,2.634-5.718v47.329H286.77C289.252,237.212,292.802,222.951,297.164,212.381z M214.836,212.381
	c4.362,10.569,7.912,24.83,10.394,41.612h-13.028v-47.329C213.051,208.3,213.933,210.192,214.836,212.381z M212.202,301.122v-30.25
	h35.358v30.25H212.202z M264.44,301.122v-30.25h35.358v30.25H264.44z"/>
<path style="fill:#BCB6B8;" d="M194.113,125.061c-1.805,0-3.61-0.577-5.123-1.733l-30.941-23.631
	c-3.703-2.829-4.413-8.126-1.584-11.83c2.831-3.703,8.126-4.414,11.831-1.584l25.817,19.718l25.817-19.718
	c3.026-2.31,7.221-2.31,10.245,0l25.819,19.718l25.817-19.718c3.026-2.31,7.221-2.309,10.245,0l25.824,19.719l25.823-19.719
	c3.703-2.83,9-2.118,11.83,1.586c2.829,3.704,2.119,9.001-1.586,11.83l-30.945,23.631c-3.025,2.309-7.22,2.309-10.245,0
	l-25.824-19.719l-25.817,19.718c-3.026,2.31-7.221,2.31-10.245,0l-25.819-19.718l-25.817,19.718
	C197.723,124.484,195.918,125.061,194.113,125.061z"/>
<g>
	<path style="fill:#A8A2A2;" d="M154.362,357.283c-13.105-12.813-20.929-30.652-20.929-47.721V188.484c0-4.661-3.778-8.44-8.44-8.44
		c-4.662,0-8.44,3.779-8.44,8.44v13.476c-2.453-1.407-5.288-2.224-8.318-2.224s-5.866,0.817-8.318,2.224v-13.476
		c0-4.661-3.778-8.44-8.44-8.44s-8.44,3.779-8.44,8.44v87.562c0,20.389,14.622,37.42,33.929,41.176
		c1.989,19.054,11.235,38.091,25.594,52.129c1.642,1.606,3.772,2.405,5.899,2.405c2.192,0,4.383-0.848,6.035-2.54
		C157.755,365.884,157.695,360.541,154.362,357.283z"/>
	<path style="fill:#A8A2A2;" d="M357.638,357.283c13.105-12.813,20.929-30.652,20.929-47.721V188.484c0-4.661,3.778-8.44,8.44-8.44
		s8.44,3.779,8.44,8.44v13.476c2.453-1.407,5.288-2.224,8.318-2.224s5.866,0.817,8.318,2.224v-13.476c0-4.661,3.778-8.44,8.44-8.44
		s8.44,3.779,8.44,8.44v87.562c0,20.389-14.622,37.42-33.929,41.176c-1.99,19.054-11.235,38.091-25.594,52.129
		c-1.642,1.606-3.772,2.405-5.899,2.405c-2.192,0-4.383-0.848-6.035-2.54C354.246,365.884,354.305,360.541,357.638,357.283z"/>
</g>
<g>
</g>
<g>
</g>
<g>
</g>
<g>
</g>
<g>
</g>
<g>
</g>
<g>
</g>
<g>
</g>
<g>
</g>
<g>
</g>
<g>
</g>
<g>
</g>
<g>
</g>
<g>
</g>
<g>
</g>
</svg>
