<?xml version="1.0" encoding="iso-8859-1"?>
<!-- Generator: Adobe Illustrator 16.0.0, SVG Export Plug-In . SVG Version: 6.00 Build 0)  -->
<!DOCTYPE svg PUBLIC "-//W3C//DTD SVG 1.1//EN" "http://www.w3.org/Graphics/SVG/1.1/DTD/svg11.dtd">
<svg version="1.1" id="Capa_1" xmlns="http://www.w3.org/2000/svg" xmlns:xlink="http://www.w3.org/1999/xlink" x="0px" y="0px"
	 width="378px" height="378px" viewBox="0 0 378 378" style="enable-background:new 0 0 378 378;" xml:space="preserve">
<g>
	<g id="Artwork_34_">
		<g id="Layer_5_34_">
			<g>
				<g>
					<path d="M172.658,120.807c-22.926,0-37.475,25.563-40.912,25.563c-3.014,0-16.967-25.563-40.923-25.563
						c-23.301,0-42.329,19.219-43.574,42.488c-0.701,13.145,3.536,23.15,9.507,32.212c11.931,18.103,64.094,61.687,75.066,61.687
						c11.2,0,62.897-43.425,74.907-61.687c5.983-9.103,10.211-19.066,9.506-32.212C214.99,140.025,195.962,120.807,172.658,120.807"
						/>
				</g>
				<g>
					<path d="M11,263.143c-6.075,0-11-4.925-11-11V125.857c0-6.075,4.925-11,11-11s11,4.925,11,11v126.285
						C22,258.218,17.075,263.143,11,263.143z"/>
				</g>
				<g>
					<path d="M314,263.143h-8c-35.29,0-64-28.71-64-64v-73.285c0-6.075,4.925-11,11-11s11,4.925,11,11v73.285
						c0,23.159,18.841,42,42,42h8c23.159,0,42-18.841,42-42v-73.285c0-6.075,4.925-11,11-11s11,4.925,11,11v73.285
						C378,234.433,349.29,263.143,314,263.143z"/>
				</g>
			</g>
		</g>
	</g>
</g>
<g>
</g>
<g>
</g>
<g>
</g>
<g>
</g>
<g>
</g>
<g>
</g>
<g>
</g>
<g>
</g>
<g>
</g>
<g>
</g>
<g>
</g>
<g>
</g>
<g>
</g>
<g>
</g>
<g>
</g>
</svg>
