<?xml version="1.0" encoding="iso-8859-1"?>
<!-- Generator: Adobe Illustrator 16.0.0, SVG Export Plug-In . SVG Version: 6.00 Build 0)  -->
<!DOCTYPE svg PUBLIC "-//W3C//DTD SVG 1.1//EN" "http://www.w3.org/Graphics/SVG/1.1/DTD/svg11.dtd">
<svg version="1.1" id="Capa_1" xmlns="http://www.w3.org/2000/svg" xmlns:xlink="http://www.w3.org/1999/xlink" x="0px" y="0px"
	 width="559.416px" height="559.415px" viewBox="0 0 559.416 559.415" style="enable-background:new 0 0 559.416 559.415;"
	 xml:space="preserve">
<g>
	<path d="M480.29,268.171c-6.7-30.6-36.1-49-66.1-40.4c-11.601,3.1-21.4,11.6-27.5,21.4c-3.7-37.9-9.2-72.8-14.101-99.8
		c-0.6-3.7-3.1-5.5-6.1-6.1c-0.6-2.4-1.8-4.9-4.3-6.1c-75.9-32.4-178.7-43.5-253.4-1.2l0,0c-4.9-3.7-11,1.8-6.7,6.7l0,0
		c-0.6,1.8-0.6,3.7,0,5.5c-30.6,118.1-63,375.8,101,407c132.199,25.7,176.3-69.2,185.399-179.9c19,12.9,50.2-6.699,63.6-19.6
		C475.99,334.271,486.99,299.371,480.29,268.171z M338.89,148.871c-55.101,41.6-150.6,34.3-210.5,0
		C193.29,120.671,272.79,124.371,338.89,148.871z M201.79,532.571c-74.7-14.7-93-104.7-97.9-167.7c-5.5-69.2,3.1-139.5,14.7-208.1
		c63,49,174.999,55.1,236.8,3.7C371.99,287.771,412.39,574.171,201.79,532.571z M426.39,286.57c2.399,11.001,3.699,22.601-3.7,31.2
		c-7.3,8.601-20.8,11-32.4,12.9c0-4.9,0-9.8,0-14.7C397.089,300.071,408.089,288.971,426.39,286.57z M461.89,300.071
		c-3.101,17.699-14.101,33.699-27.5,45.899c-14.7,13.5-28.2,9.8-44.7,12.9c0-3.101,0-6.101,0.6-8.601c0.601,0,0.601,0,1.2,0
		c16.5-2.399,34.3-7.3,45.3-20.8c12.2-15.3,9.2-36.1,4.3-53.2c-1.199-3.7-4.3-6.1-8-6.1c-19.6,0.6-33.699,8.6-42.8,20.8
		c0-4.9-0.6-9.8-0.6-14.1c1.2,1.2,2.399,2.4,3.1,4.3c3.101,3.7,8-1.2,6.101-4.9c-8-18.4,20.8-31.8,33.699-31.8
		C459.49,244.371,465.589,279.871,461.89,300.071z"/>
	<path d="M187.19,91.971c-9.8-16.5-23.3-30-37.3-42.8c-9.2-8.6-25.1-25.1-37.9-23.9c-4.3,0.6-8,4.3-6.7,8.6
		c3.7,12.9,20.8,20.8,30.6,28.8c14.1,11.6,26.9,23.9,39.8,37.3C181.59,106.671,191.39,98.671,187.19,91.971z"/>
	<path d="M240.39,1.371c-28.8,21.4-20.8,63-8,91.2c3.1,6.7,14.1,1.8,11.6-4.9c-4.3-12.9-6.7-25.7-6.7-39.2
		c0-14.7,9.2-25.7,13.5-39.2C252.59,3.771,245.89-2.929,240.39,1.371z"/>
	<path d="M370.089,6.871c-17.1,0-33.699,23.3-43.5,34.9c-14.1,17.1-22.6,37.9-25.699,60c-0.601,6.7,9.8,8,11.6,1.8
		c5.5-20.2,16.5-36.7,30.6-52.6c9.801-11,29.4-21.4,33-35.5C378.089,11.171,374.39,6.871,370.089,6.871z"/>
</g>
<g>
</g>
<g>
</g>
<g>
</g>
<g>
</g>
<g>
</g>
<g>
</g>
<g>
</g>
<g>
</g>
<g>
</g>
<g>
</g>
<g>
</g>
<g>
</g>
<g>
</g>
<g>
</g>
<g>
</g>
</svg>
