<?xml version="1.0" encoding="iso-8859-1"?>
<!-- Generator: Adobe Illustrator 18.0.0, SVG Export Plug-In . SVG Version: 6.00 Build 0)  -->
<!DOCTYPE svg PUBLIC "-//W3C//DTD SVG 1.1//EN" "http://www.w3.org/Graphics/SVG/1.1/DTD/svg11.dtd">
<svg version="1.1" id="Capa_1" xmlns="http://www.w3.org/2000/svg" xmlns:xlink="http://www.w3.org/1999/xlink" x="0px" y="0px"
	 viewBox="0 0 462.575 462.575" style="enable-background:new 0 0 462.575 462.575;" xml:space="preserve">
<g>
	<path d="M113.885,288.286c29.046,18.802,61.335,31.521,86.374,34.025c4.255,0.425,8.357,0.641,12.191,0.641
		c47.441,0,57.036-32.795,62.306-63.534c0.107-0.621,0.177-1.24,0.262-1.859c8.945,4.764,25.167,12.346,42.441,15.225
		c5.998,1,12.189,1.481,18.397,1.48c22.272,0,44.699-6.198,58.659-16.873c19.087-14.597,25.958-36.034,20.422-63.716
		c-3.885-19.426-27.551-43.483-46.114-52.016c-6.068-2.789-14.194-6.584-23.603-10.979c-23.31-10.887-55.234-25.797-77.528-35.458
		c-31.058-13.458-64.233-9.048-84.518,11.237c-14.249,14.249-17.061,34.718-17.295,47.25c-6.767-5.295-11.211-9.118-11.339-9.229
		c-0.042-0.036-0.084-0.071-0.127-0.105c-9.579-7.746-23.114-12.188-37.134-12.188c-12.939,0-25.6,3.614-37.63,10.743
		c-27.729,16.432-34.863,44.632-21.809,86.212C63.567,247.381,83.995,268.937,113.885,288.286z M190.247,113.53
		c17.363-17.362,46.203-20.947,73.47-9.132c22.166,9.605,54.017,24.48,77.273,35.343c9.423,4.401,17.562,8.202,23.658,11.004
		c19.54,8.98,37.807,31.506,40.484,44.891c4.791,23.957-0.669,41.559-16.691,53.812c-15.572,11.907-44.735,17.568-69.337,13.473
		c-19.148-3.192-37.527-13.037-43.713-16.598c-0.991-12.935-6.84-25.254-17.284-36.179c-10.644-11.133-25.732-20.393-41.395-25.404
		c-12.414-3.973-28.111-14.173-40.63-23.313C175.547,154.095,174.95,128.827,190.247,113.53z M84.748,151.535
		c10.466-6.202,21.412-9.347,32.533-9.347c11.742,0,22.958,3.612,30.786,9.914c2.357,2.034,39.449,33.793,65.598,42.16
		c13.916,4.453,27.828,12.974,37.214,22.791c11.813,12.356,16.53,26.041,14.021,40.675c-5.996,34.976-16.5,55.224-52.45,55.224
		c-3.503,0-7.271-0.199-11.196-0.592c-49.465-4.945-123.282-52.483-133.872-86.213C55.766,189.147,61.284,165.439,84.748,151.535z"
		/>
	<path d="M238.894,288.316c0.207,0,0.416-0.014,0.626-0.04c2.74-0.342,4.684-2.841,4.341-5.581
		c-0.762-6.098,3.161-11.835,3.245-11.956c1.589-2.246,1.065-5.355-1.176-6.956c-2.248-1.608-5.371-1.086-6.975,1.162
		c-0.257,0.359-6.275,8.922-5.017,18.99C234.255,286.465,236.409,288.316,238.894,288.316z"/>
	<path d="M383.23,235.738c2.761,0,5-2.238,5-5c0-7.056,2.666-13.441,2.693-13.505c1.08-2.536-0.097-5.469-2.631-6.555
		c-2.539-1.085-5.477,0.089-6.565,2.626c-0.143,0.333-3.497,8.266-3.497,17.434C378.23,233.5,380.469,235.738,383.23,235.738z"/>
	<path d="M157.986,183.804c13.876,10.525,33.911,24.462,50.55,31.088c0.607,0.241,1.232,0.355,1.848,0.355
		c1.987,0,3.867-1.192,4.646-3.151c1.022-2.565-0.229-5.474-2.795-6.495c-15.596-6.211-34.823-19.614-48.207-29.764
		c-2.201-1.67-5.337-1.238-7.005,0.962S155.786,182.136,157.986,183.804z"/>
	<path d="M142.557,171.607c0.931,0.767,2.057,1.141,3.176,1.141c1.442,0,2.874-0.621,3.862-1.821
		c1.756-2.131,1.451-5.282-0.681-7.038c-3.766-3.103-6.03-5.07-6.052-5.09c-2.083-1.812-5.241-1.594-7.054,0.489
		c-1.813,2.082-1.594,5.24,0.488,7.054C136.392,166.425,138.674,168.409,142.557,171.607z"/>
	<path d="M285.197,136.715c15.19,8.521,36.948,19.577,54.337,23.857c0.401,0.099,0.803,0.146,1.199,0.146
		c2.248,0,4.29-1.526,4.851-3.806c0.66-2.682-0.979-5.391-3.66-6.051c-16.3-4.012-37.185-14.649-51.834-22.867
		c-2.408-1.352-5.456-0.495-6.807,1.914C281.932,132.316,282.789,135.364,285.197,136.715z"/>
	<path d="M261.316,122.393c0.106,0.068,2.639,1.722,6.923,4.356c0.817,0.503,1.721,0.742,2.615,0.742
		c1.679,0,3.319-0.847,4.264-2.382c1.447-2.352,0.713-5.432-1.639-6.878c-4.157-2.557-6.669-4.195-6.694-4.212
		c-2.312-1.509-5.41-0.86-6.92,1.453C258.355,117.785,259.005,120.883,261.316,122.393z"/>
	<path d="M462.573,214.514c-0.395-39.681-24.721-76.784-68.599-104.57c-43.53-27.565-101.306-42.747-162.685-42.747
		S112.134,82.379,68.604,109.944C24.364,137.959,0,175.445,0,215.496l0.004,31.582c0,40.05,24.363,77.536,68.601,105.552
		c43.529,27.566,101.303,42.748,162.679,42.748c61.38,0,119.157-15.182,162.688-42.748c44.239-28.016,68.603-65.501,68.603-105.552
		C462.574,247.078,462.576,214.841,462.573,214.514z M231.289,77.197c122.019,0,221.289,62.041,221.289,138.299l0,0
		c0,76.258-99.27,138.299-221.289,138.299S10,291.754,10,215.496l0,0C10,139.238,109.27,77.197,231.289,77.197z M231.284,385.378
		c-114.265,0-208.576-54.412-220.094-123.956c11.229,22.316,30.686,42.701,57.414,59.626
		c43.53,27.565,101.307,42.747,162.686,42.747s119.155-15.182,162.685-42.747c26.728-16.926,46.187-37.312,57.415-59.629
		C439.872,330.965,345.556,385.378,231.284,385.378z"/>
</g>
<g>
</g>
<g>
</g>
<g>
</g>
<g>
</g>
<g>
</g>
<g>
</g>
<g>
</g>
<g>
</g>
<g>
</g>
<g>
</g>
<g>
</g>
<g>
</g>
<g>
</g>
<g>
</g>
<g>
</g>
</svg>
