<?xml version="1.0" encoding="iso-8859-1"?>
<!-- Generator: Adobe Illustrator 19.0.0, SVG Export Plug-In . SVG Version: 6.00 Build 0)  -->
<svg version="1.1" id="Layer_1" xmlns="http://www.w3.org/2000/svg" xmlns:xlink="http://www.w3.org/1999/xlink" x="0px" y="0px"
	 viewBox="0 0 512 512" style="enable-background:new 0 0 512 512;" xml:space="preserve">
<g>
	<g>
		<path d="M460.8,12.8H51.2C22.972,12.8,0,35.772,0,64v307.2c0,28.228,22.972,51.2,51.2,51.2h128v51.2h-38.4
			c-7.066,0-12.8,5.726-12.8,12.8s5.734,12.8,12.8,12.8h230.4c7.066,0,12.8-5.726,12.8-12.8s-5.734-12.8-12.8-12.8h-38.4v-51.2h128
			c28.228,0,51.2-22.972,51.2-51.2V64C512,35.772,489.028,12.8,460.8,12.8z M307.2,473.6H204.8v-51.2h102.4V473.6z M486.4,371.2
			c0,14.14-11.46,25.6-25.6,25.6H51.2c-14.14,0-25.6-11.46-25.6-25.6V320h460.8V371.2z M486.4,294.4H25.6V64
			c0-14.14,11.46-25.6,25.6-25.6h409.6c14.14,0,25.6,11.46,25.6,25.6V294.4z"/>
	</g>
</g>
<g>
	<g>
		<path d="M260.267,345.6h-8.533c-7.066,0-12.8,5.726-12.8,12.8s5.734,12.8,12.8,12.8h8.533c7.066,0,12.8-5.726,12.8-12.8
			S267.332,345.6,260.267,345.6z"/>
	</g>
</g>
<g>
</g>
<g>
</g>
<g>
</g>
<g>
</g>
<g>
</g>
<g>
</g>
<g>
</g>
<g>
</g>
<g>
</g>
<g>
</g>
<g>
</g>
<g>
</g>
<g>
</g>
<g>
</g>
<g>
</g>
</svg>
