<?xml version="1.0" encoding="iso-8859-1"?>
<!-- Generator: Adobe Illustrator 19.0.0, SVG Export Plug-In . SVG Version: 6.00 Build 0)  -->
<svg version="1.1" id="Layer_1" xmlns="http://www.w3.org/2000/svg" xmlns:xlink="http://www.w3.org/1999/xlink" x="0px" y="0px"
	 viewBox="0 0 512.009 512.009" style="enable-background:new 0 0 512.009 512.009;" xml:space="preserve">
<g>
	<g>
		<path d="M81.067,290.138c-21.171,0-38.4,17.229-38.4,38.4c0,21.171,17.229,38.4,38.4,38.4s38.4-17.229,38.4-38.4
			C119.467,307.366,102.238,290.138,81.067,290.138z M81.067,341.338c-7.066,0-12.8-5.734-12.8-12.8c0-7.066,5.734-12.8,12.8-12.8
			c7.066,0,12.8,5.734,12.8,12.8C93.867,335.603,88.132,341.338,81.067,341.338z"/>
	</g>
</g>
<g>
	<g>
		<path d="M486.4,145.071h-57.66l75.767-75.767c10.001-10.001,10.001-26.206,0-36.207l-25.6-25.6
			c-5.001-4.992-11.554-7.492-18.108-7.492c-6.554,0-13.107,2.5-18.099,7.501L305.126,145.071H25.6c-14.14,0-25.6,11.46-25.6,25.6
			v315.733c0,14.14,11.46,25.6,25.6,25.6h460.8c14.14,0,25.6-11.46,25.6-25.6V170.671C512,156.531,500.54,145.071,486.4,145.071z
			 M460.8,25.604l25.6,25.6l-50.679,50.679l-25.6-25.6L460.8,25.604z M392.021,94.383l25.6,25.6l-88.568,88.567l-25.6-25.6
			L392.021,94.383z M281.6,204.804l3.746-3.746l25.6,25.6l-3.746,3.746h-25.6V204.804z M136.533,486.404H25.6V170.671h110.933
			V486.404z M486.4,486.404H162.133V170.671h117.393l-16.034,16.034c-4.796,4.796-7.492,11.307-7.492,18.099v25.6
			c0,14.14,11.46,25.6,25.6,25.6h25.6c6.793,0,13.303-2.697,18.099-7.501l77.841-77.833h83.26V486.404z"/>
	</g>
</g>
<g>
	<g>
		<rect x="51.2" y="196.271" width="59.733" height="25.6"/>
	</g>
</g>
<g>
	<g>
		<rect x="51.2" y="247.471" width="59.733" height="25.6"/>
	</g>
</g>
<g>
	<g>
		<rect x="51.2" y="384.004" width="59.733" height="25.6"/>
	</g>
</g>
<g>
	<g>
		<rect x="51.2" y="435.204" width="59.733" height="25.6"/>
	</g>
</g>
<g>
</g>
<g>
</g>
<g>
</g>
<g>
</g>
<g>
</g>
<g>
</g>
<g>
</g>
<g>
</g>
<g>
</g>
<g>
</g>
<g>
</g>
<g>
</g>
<g>
</g>
<g>
</g>
<g>
</g>
</svg>
