<?xml version="1.0" encoding="iso-8859-1"?>
<!-- Generator: Adobe Illustrator 19.0.0, SVG Export Plug-In . SVG Version: 6.00 Build 0)  -->
<svg version="1.1" id="Layer_1" xmlns="http://www.w3.org/2000/svg" xmlns:xlink="http://www.w3.org/1999/xlink" x="0px" y="0px"
	 viewBox="0 0 512 512" style="enable-background:new 0 0 512 512;" xml:space="preserve">
<g>
	<g>
		<path d="M471.579,431.158h-27.096L299.52,15.598C296.265,6.268,287.439,0,277.558,0c-9.881,0-18.707,6.268-21.962,15.599
			l-28.787,82.521c-1.47,4.216,0.755,8.826,4.97,10.296c4.217,1.47,8.826-0.755,10.296-4.97l28.786-82.521
			c0.993-2.846,3.684-4.757,6.697-4.757c3.013,0,5.704,1.911,6.696,4.756l154.385,442.571H337.101L215.624,131.78
			c-2.895-7.902-10.493-13.212-18.908-13.212c-8.415,0-16.013,5.31-18.908,13.212L68.173,431.158H40.421
			C18.132,431.158,0,449.29,0,471.579C0,493.868,18.132,512,40.421,512h431.158C493.868,512,512,493.868,512,471.579
			C512,449.29,493.868,431.158,471.579,431.158z M192.989,137.34c0.57-1.556,2.067-2.603,3.726-2.603
			c1.659,0,3.155,1.047,3.726,2.603l119.44,326.155H73.549L192.989,137.34z M471.579,495.832H40.421
			c-13.373,0-24.253-10.879-24.253-24.253c0-13.373,10.879-24.253,24.253-24.253h21.83l-5.921,16.168H51.2
			c-4.465,0-8.084,3.62-8.084,8.084c0,4.465,3.62,8.084,8.084,8.084h398.633c0.124,0.003,0.25,0.003,0.376,0h10.591
			c4.465,0,8.084-3.62,8.084-8.084c0-4.465-3.62-8.084-8.084-8.084h-5.037l-5.641-16.168h21.456
			c13.373,0,24.253,10.879,24.253,24.253C495.832,484.952,484.952,495.832,471.579,495.832z"/>
	</g>
</g>
<g>
</g>
<g>
</g>
<g>
</g>
<g>
</g>
<g>
</g>
<g>
</g>
<g>
</g>
<g>
</g>
<g>
</g>
<g>
</g>
<g>
</g>
<g>
</g>
<g>
</g>
<g>
</g>
<g>
</g>
</svg>
