<?xml version="1.0" encoding="iso-8859-1"?>
<!-- Generator: Adobe Illustrator 18.0.0, SVG Export Plug-In . SVG Version: 6.00 Build 0)  -->
<!DOCTYPE svg PUBLIC "-//W3C//DTD SVG 1.1//EN" "http://www.w3.org/Graphics/SVG/1.1/DTD/svg11.dtd">
<svg version="1.1" id="Capa_1" xmlns="http://www.w3.org/2000/svg" xmlns:xlink="http://www.w3.org/1999/xlink" x="0px" y="0px"
	 viewBox="0 0 297 297" style="enable-background:new 0 0 297 297;" xml:space="preserve">
<path d="M102.529,164.016c-15.769,13.18-25.822,32.981-25.822,55.092c0,39.587,32.206,71.793,71.793,71.793
	s71.793-32.206,71.793-71.793c0-22.111-10.053-41.912-25.822-55.092L295.15,21.953c2.172-3.065,2.453-7.085,0.727-10.423
	c-1.725-3.337-5.167-5.432-8.924-5.432H10.046c-3.78,0-7.24,2.122-8.954,5.491s-1.392,7.415,0.834,10.47L102.529,164.016z
	 M29.792,26.19h181.127l-19.796,27.933H50.138L29.792,26.19z M141.468,167.899v44.177h-5.601
	c-1.379-13.424-6.679-26.11-15.187-36.511C126.845,171.613,133.896,168.934,141.468,167.899z M141.468,226.14v44.178
	c-7.572-1.035-14.623-3.714-20.789-7.667c8.509-10.4,13.808-23.087,15.187-36.512H141.468z M155.532,226.14h5.601
	c1.379,13.425,6.679,26.111,15.187,36.512c-6.165,3.953-13.216,6.632-20.789,7.667V226.14z M155.532,212.076v-44.177
	c7.572,1.035,14.623,3.714,20.789,7.667c-8.509,10.4-13.808,23.086-15.187,36.511H155.532z M120.116,74.216h56.767l-28.384,40.05
	L120.116,74.216z M120.447,153.047L63.514,74.216H95.49l40.697,57.425L120.447,153.047z M109.966,184.687
	c6.364,7.859,10.43,17.337,11.733,27.389H97.29C98.716,201.638,103.263,192.183,109.966,184.687z M97.29,226.14h24.41
	c-1.303,10.054-5.369,19.531-11.733,27.39C103.263,246.034,98.716,236.579,97.29,226.14z M187.034,253.531
	c-6.364-7.859-10.43-17.337-11.733-27.39h24.41C198.284,236.579,193.737,246.034,187.034,253.531z M199.71,212.076h-24.41
	c1.303-10.053,5.369-19.53,11.733-27.389C193.737,192.183,198.284,201.638,199.71,212.076z M177.37,153.397
	c-8.499-3.749-17.854-5.891-27.687-6.052L235.546,26.19h31.975L177.37,153.397z"/>
<g>
</g>
<g>
</g>
<g>
</g>
<g>
</g>
<g>
</g>
<g>
</g>
<g>
</g>
<g>
</g>
<g>
</g>
<g>
</g>
<g>
</g>
<g>
</g>
<g>
</g>
<g>
</g>
<g>
</g>
</svg>
