<?xml version="1.0" encoding="iso-8859-1"?>
<!-- Generator: Adobe Illustrator 19.0.0, SVG Export Plug-In . SVG Version: 6.00 Build 0)  -->
<svg version="1.1" id="Layer_1" xmlns="http://www.w3.org/2000/svg" xmlns:xlink="http://www.w3.org/1999/xlink" x="0px" y="0px"
	 viewBox="0 0 506.984 506.984" style="enable-background:new 0 0 506.984 506.984;" xml:space="preserve">
<g>
	<g>
		<path d="M443.222,170.316h-9.608C428.354,75.256,349.582,0,253.49,0S78.63,75.256,73.366,170.316h-9.608
			c-6.552,0-12.264,5.5-12.264,12.052v15.512c0,6.52,5.472,11.82,11.984,11.876c13.392,65.28,60.328,119.828,123.044,142.884
			c0.276,0.184,0.636,0.34,0.968,0.448c1.372,0.46,2.64,1.128,3.792,1.912l5.564,6.62c0.42,0.952,0.756,1.948,0.988,2.984
			c-6.456,0.108-11.676,5.38-11.676,11.86v19.868c0,5.16,3.96,9.524,7.92,11.156v37.852c0,23.136,15.844,42.6,35.648,48.284v1.496
			c0,6.552,5.86,11.864,12.412,11.864h23.176c6.552,0,11.944-5.312,11.944-11.864v-1.616c19.804-5.844,35.644-25.196,35.644-48.164
			v-37.684c3.96-1.476,7.92-5.964,7.92-11.324v-19.868c0-6.552-4.78-12.068-11.332-12.068h-0.272c0.228,0,0.552-1.928,0.976-2.88
			l5.532-6.56c1.16-0.78,2.412-1.432,3.784-1.896c0.332-0.108,0.64-0.256,0.924-0.456c62.676-23.072,109.684-77.608,123.072-142.86
			c6.512-0.056,11.984-5.348,11.984-11.868v-15.512C455.49,175.816,449.77,170.316,443.222,170.316z M97.194,170.316
			C102.426,87.14,170.506,23.76,253.49,23.76s151.068,63.38,156.296,146.556H97.194z"/>
	</g>
</g>
<g>
</g>
<g>
</g>
<g>
</g>
<g>
</g>
<g>
</g>
<g>
</g>
<g>
</g>
<g>
</g>
<g>
</g>
<g>
</g>
<g>
</g>
<g>
</g>
<g>
</g>
<g>
</g>
<g>
</g>
</svg>
