<?xml version="1.0" encoding="iso-8859-1"?>
<!-- Generator: Adobe Illustrator 19.0.0, SVG Export Plug-In . SVG Version: 6.00 Build 0)  -->
<svg version="1.1" id="Layer_1" xmlns="http://www.w3.org/2000/svg" xmlns:xlink="http://www.w3.org/1999/xlink" x="0px" y="0px"
	 viewBox="0 0 512.001 512.001" style="enable-background:new 0 0 512.001 512.001;" xml:space="preserve">
<path style="fill:#CAD1D8;" d="M24,16h464c13.254,0,24,10.745,24,24v432c0,13.254-10.745,24-24,24H24C10.745,496,0,485.255,0,472V40
	C0,26.745,10.745,16,24,16z"/>
<g>
	<circle style="fill:#9BA7AF;" cx="24.002" cy="47.995" r="7.998"/>
	<circle style="fill:#9BA7AF;" cx="56.002" cy="47.995" r="7.998"/>
	<circle style="fill:#9BA7AF;" cx="88.002" cy="47.995" r="7.998"/>
</g>
<path style="fill:#FFFFFF;" d="M24,80h464c4.418,0,8,3.582,8,8v384c0,4.418-3.582,8-8,8H24c-4.418,0-8-3.582-8-8V88
	C16,83.582,19.582,80,24,80z"/>
<g>
	<path style="fill:#E2E5E7;" d="M120,40h368c4.418,0,8,3.582,8,8l0,0c0,4.418-3.582,8-8,8H120c-4.418,0-8-3.582-8-8l0,0
		C112,43.582,115.582,40,120,40z"/>
	<path style="fill:#E2E5E7;" d="M160,128h296c4.418,0,8,3.582,8,8.001v64c0,4.418-3.582,8-8,8H160l0,0V128L160,128z"/>
</g>
<path style="fill:#595A66;" d="M208,160h216c4.418,0,8,3.582,8,8.001l0,0c0,4.418-3.582,8-8,8H208c-4.418,0-8.001-3.582-8.001-8l0,0
	C200.001,163.582,203.582,160,208,160z"/>
<circle style="fill:#FFFFFF;stroke:#595A66;stroke-width:2;stroke-miterlimit:10;" cx="320" cy="167.998" r="15.995"/>
<path style="fill:#3689C9;" d="M56,204c-2.209,0-4-1.791-4-4v-64c0-2.209,1.791-4,4-4h100v72L56,204L56,204z"/>
<path style="fill:#1A70AC;" d="M152.001,136.001v64H56v-64H152.001 M160,128H56c-4.418,0-8,3.582-8,8.001v64c0,4.418,3.582,8,8,8
	h104V128L160,128z"/>
<path style="fill:#E2E5E7;" d="M160,240h296c4.418,0,8,3.582,8,8.001v64c0,4.418-3.582,8-8,8H160l0,0V240L160,240z"/>
<path style="fill:#595A66;" d="M208,272h216c4.418,0,8,3.582,8,8l0,0c0,4.418-3.582,8-8,8H208c-4.418,0-8.001-3.582-8.001-8l0,0
	C200.001,275.582,203.582,272,208,272z"/>
<path style="fill:#3689C9;" d="M56,316c-2.209,0-4-1.791-4-4v-64c0-2.209,1.791-4,4-4h100v72L56,316L56,316z"/>
<g>
	<path style="fill:#1A70AC;" d="M152.001,248.001v64H56v-64L152.001,248.001 M160,240H56c-4.418,0-8,3.582-8,8.001v64
		c0,4.418,3.582,8,8,8h104V240L160,240z"/>
	<path style="fill:#1A70AC;" d="M117.76,284.4l-24-12c-1.984-0.972-4.38-0.152-5.352,1.832c-0.27,0.551-0.409,1.155-0.408,1.768v24
		c-0.004,2.209,1.783,4.004,3.992,4.008c0.613,0.001,1.217-0.138,1.768-0.408l24.001-12c1.988-0.962,2.819-3.356,1.856-5.343
		C119.225,285.446,118.57,284.792,117.76,284.4z"/>
</g>
<path style="fill:#FFFFFF;" d="M117.76,276.4l-24-12c-1.984-0.972-4.38-0.152-5.352,1.832c-0.27,0.551-0.409,1.155-0.408,1.768v24
	c-0.004,2.209,1.783,4.004,3.992,4.008c0.613,0.001,1.217-0.138,1.768-0.408l24.001-12c1.988-0.962,2.819-3.356,1.856-5.343
	C119.225,277.446,118.57,276.793,117.76,276.4z"/>
<path style="fill:#E2E5E7;" d="M160,352h296c4.418,0,8,3.582,8,8v64c0,4.418-3.582,8-8,8H160l0,0V352L160,352z"/>
<path style="fill:#595A66;" d="M208,384h216c4.418,0,8,3.582,8,8l0,0c0,4.418-3.582,8-8,8H208c-4.418,0-8.001-3.582-8.001-8l0,0
	C200.001,387.582,203.582,384,208,384z"/>
<path style="fill:#3689C9;" d="M56,428c-2.209,0-4-1.791-4-4v-64c0-2.209,1.791-4,4-4h100v72L56,428L56,428z"/>
<g>
	<path style="fill:#1A70AC;" d="M152.001,360v64H56v-64H152.001 M160,352H56c-4.418,0-8,3.582-8,8v64c0,4.418,3.582,8,8,8h104V352
		L160,352z"/>
	<path style="fill:#1A70AC;" d="M117.76,396.4l-24-12c-1.984-0.972-4.38-0.152-5.352,1.832c-0.27,0.551-0.409,1.155-0.408,1.768v24
		c-0.004,2.209,1.783,4.004,3.992,4.008c0.613,0.001,1.217-0.138,1.768-0.408l24.001-12c1.988-0.962,2.819-3.356,1.856-5.343
		C119.225,397.446,118.57,396.792,117.76,396.4z"/>
</g>
<g>
	<path style="fill:#FFFFFF;" d="M117.76,388.4l-24-12c-1.984-0.972-4.38-0.152-5.352,1.832c-0.27,0.551-0.409,1.155-0.408,1.768v24
		c-0.004,2.209,1.783,4.004,3.992,4.008c0.613,0.001,1.217-0.138,1.768-0.408l24.001-12c1.988-0.962,2.819-3.356,1.856-5.343
		C119.225,389.446,118.57,388.793,117.76,388.4z"/>
	<path style="fill:#FFFFFF;" d="M92,152.001L92,152.001c2.209,0,4,1.791,4,4v24.001c0,2.209-1.791,4-4,4l0,0c-2.209,0-4-1.791-4-4
		V156C88,153.791,89.791,152.001,92,152.001z"/>
	<path style="fill:#FFFFFF;" d="M116,152.001L116,152.001c2.209,0,4,1.791,4,4v24.001c0,2.209-1.791,4-4,4l0,0c-2.209,0-4-1.791-4-4
		V156C112,153.791,113.791,152.001,116,152.001z"/>
</g>
<g>
</g>
<g>
</g>
<g>
</g>
<g>
</g>
<g>
</g>
<g>
</g>
<g>
</g>
<g>
</g>
<g>
</g>
<g>
</g>
<g>
</g>
<g>
</g>
<g>
</g>
<g>
</g>
<g>
</g>
</svg>
