<?xml version="1.0" encoding="iso-8859-1"?>
<!-- Generator: Adobe Illustrator 19.0.0, SVG Export Plug-In . SVG Version: 6.00 Build 0)  -->
<svg version="1.1" id="Layer_1" xmlns="http://www.w3.org/2000/svg" xmlns:xlink="http://www.w3.org/1999/xlink" x="0px" y="0px"
	 viewBox="0 0 512 512" style="enable-background:new 0 0 512 512;" xml:space="preserve">
<g>
	<polygon style="fill:#556080;" points="8.532,55.467 503.466,55.467 503.466,4.267 8.532,4.267 	"/>
	<g>
		<polygon style="fill:#3C4660;" points="42.666,277.333 93.866,277.333 93.866,55.467 42.666,55.467 		"/>
		<polygon style="fill:#3C4660;" points="418.133,277.333 469.333,277.333 469.333,55.467 418.133,55.467 		"/>
		<polygon style="fill:#3C4660;" points="238.932,89.6 273.066,89.6 273.066,55.467 238.932,55.467 		"/>
	</g>
	<path style="fill:#556080;" d="M298.667,149.333h-85.333c-4.71,0-8.533-3.823-8.533-8.533v-8.533c0-28.237,22.963-51.2,51.2-51.2
		s51.2,22.963,51.2,51.2v8.533C307.2,145.51,303.377,149.333,298.667,149.333"/>
	<polygon style="fill:#3C4660;" points="238.932,277.333 273.066,277.333 273.066,243.2 238.932,243.2 	"/>
	<path style="fill:#556080;" d="M256,251.733c-28.237,0-51.2-22.963-51.2-51.2V192c0-4.71,3.823-8.533,8.533-8.533h85.333
		c4.71,0,8.533,3.823,8.533,8.533v8.533C307.2,228.77,284.237,251.733,256,251.733"/>
	<g>
		<path style="fill:#3C4660;" d="M315.733,200.533H196.267c-4.71,0-8.533-3.823-8.533-8.533c0-4.71,3.823-8.533,8.533-8.533h119.467
			c4.71,0,8.533,3.823,8.533,8.533C324.267,196.71,320.444,200.533,315.733,200.533"/>
		<path style="fill:#3C4660;" d="M315.733,149.333H196.267c-4.71,0-8.533-3.823-8.533-8.533s3.823-8.533,8.533-8.533h119.467
			c4.71,0,8.533,3.823,8.533,8.533S320.444,149.333,315.733,149.333"/>
	</g>
	<g>
		<polygon style="fill:#556080;" points="34.132,499.2 85.332,499.2 85.332,430.933 34.132,430.933 		"/>
		<polygon style="fill:#556080;" points="426.666,499.2 477.866,499.2 477.866,430.933 426.666,430.933 		"/>
	</g>
	<path style="fill:#3C4660;" d="M491.79,430.933H20.212c-6.451,0-11.682-5.231-11.682-11.674v-79.053
		c0-6.443,5.231-11.674,11.682-11.674H491.79c6.451,0,11.674,5.231,11.674,11.674v79.053
		C503.463,425.702,498.241,430.933,491.79,430.933"/>
	<g>
		<path style="fill:#556080;" d="M102.4,379.733c0,9.429-7.637,17.067-17.067,17.067s-17.067-7.637-17.067-17.067
			c0-9.429,7.637-17.067,17.067-17.067S102.4,370.304,102.4,379.733"/>
		<path style="fill:#556080;" d="M170.667,379.733c0,9.429-7.637,17.067-17.067,17.067s-17.067-7.637-17.067-17.067
			c0-9.429,7.637-17.067,17.067-17.067S170.667,370.304,170.667,379.733"/>
		<path style="fill:#556080;" d="M238.933,379.733c0,9.429-7.637,17.067-17.067,17.067c-9.429,0-17.067-7.637-17.067-17.067
			c0-9.429,7.637-17.067,17.067-17.067C231.296,362.667,238.933,370.304,238.933,379.733"/>
		<path style="fill:#556080;" d="M307.2,379.733c0,9.429-7.637,17.067-17.067,17.067c-9.429,0-17.067-7.637-17.067-17.067
			c0-9.429,7.637-17.067,17.067-17.067C299.563,362.667,307.2,370.304,307.2,379.733"/>
		<path style="fill:#556080;" d="M375.467,379.733c0,9.429-7.637,17.067-17.067,17.067c-9.429,0-17.067-7.637-17.067-17.067
			c0-9.429,7.637-17.067,17.067-17.067C367.829,362.667,375.467,370.304,375.467,379.733"/>
		<path style="fill:#556080;" d="M443.733,379.733c0,9.429-7.637,17.067-17.067,17.067s-17.067-7.637-17.067-17.067
			c0-9.429,7.637-17.067,17.067-17.067S443.733,370.304,443.733,379.733"/>
		<path style="fill:#556080;" d="M486.4,328.533H25.6v-38.571c0-6.972,5.658-12.629,12.629-12.629h435.541
			c6.972,0,12.629,5.658,12.629,12.629V328.533z"/>
	</g>
	<path style="fill:#3C4660;" d="M503.467,507.733H8.533C3.823,507.733,0,503.91,0,499.2s3.823-8.533,8.533-8.533h494.933
		c4.71,0,8.533,3.823,8.533,8.533S508.177,507.733,503.467,507.733"/>
</g>
<g>
</g>
<g>
</g>
<g>
</g>
<g>
</g>
<g>
</g>
<g>
</g>
<g>
</g>
<g>
</g>
<g>
</g>
<g>
</g>
<g>
</g>
<g>
</g>
<g>
</g>
<g>
</g>
<g>
</g>
</svg>
