<?xml version="1.0" encoding="iso-8859-1"?>
<!-- Generator: Adobe Illustrator 19.0.0, SVG Export Plug-In . SVG Version: 6.00 Build 0)  -->
<svg version="1.1" id="Layer_1" xmlns="http://www.w3.org/2000/svg" xmlns:xlink="http://www.w3.org/1999/xlink" x="0px" y="0px"
	 viewBox="0 0 512 512" style="enable-background:new 0 0 512 512;" xml:space="preserve">
<g>
	<path style="fill:#2C3E50;" d="M472.949,512H39.051c-19.17,0-34.712-15.542-34.712-34.712c0-19.17,15.542-34.712,34.712-34.712
		h433.898c19.17,0,34.712,15.542,34.712,34.712C507.661,496.458,492.119,512,472.949,512"/>
	<path style="fill:#A0613F;" d="M455.593,442.576H247.322V234.305h190.915c9.589,0,17.356,7.767,17.356,17.356V442.576z"/>
	<path style="fill:#CB8252;" d="M229.966,199.593h-52.068h-69.424H56.407c-9.589,0-17.356,7.767-17.356,17.356v225.627h208.271
		V216.949C247.322,207.36,239.555,199.593,229.966,199.593"/>
	<polygon style="fill:#F9EBB0;" points="342.779,407.864 412.203,407.864 412.203,355.797 342.779,355.797 	"/>
	<g>
		<path style="fill:#BDC3C7;" d="M299.39,190.915c-2.196,0-4.382-0.824-6.075-2.482c-14.544-14.267-19.959-27.709-19.959-49.586
			c0-43.06,35.042-78.102,78.102-78.102c43.06,0,78.102,35.042,78.102,78.102c0,20.766-5.745,35.094-19.838,49.464
			c-3.358,3.428-8.852,3.48-12.271,0.121c-3.428-3.358-3.48-8.852-0.121-12.271c10.978-11.203,14.874-20.966,14.874-37.315
			c0-33.497-27.249-60.746-60.746-60.746s-60.746,27.249-60.746,60.746c0,17.2,3.584,26.242,14.753,37.194
			c3.419,3.358,3.48,8.852,0.121,12.271C303.885,190.047,301.637,190.915,299.39,190.915"/>
		<path style="fill:#BDC3C7;" d="M351.458,78.102c-4.79,0-8.678-3.888-8.678-8.678V8.678c0-4.79,3.888-8.678,8.678-8.678
			c4.79,0,8.678,3.888,8.678,8.678v60.746C360.136,74.214,356.248,78.102,351.458,78.102"/>
	</g>
	<polygon style="fill:#F9EBB0;" points="91.118,321.085 195.253,321.085 195.253,251.661 91.118,251.661 	"/>
	<g>
		<path style="fill:#5A6C7A;" d="M56.407,477.288c0-4.79-3.888-8.678-8.678-8.678s-8.678,3.888-8.678,8.678s3.888,8.678,8.678,8.678
			S56.407,482.078,56.407,477.288"/>
		<path style="fill:#5A6C7A;" d="M91.119,477.288c0-4.79-3.888-8.678-8.678-8.678s-8.678,3.888-8.678,8.678s3.888,8.678,8.678,8.678
			S91.119,482.078,91.119,477.288"/>
		<path style="fill:#5A6C7A;" d="M125.831,477.288c0-4.79-3.888-8.678-8.678-8.678s-8.678,3.888-8.678,8.678
			s3.888,8.678,8.678,8.678S125.831,482.078,125.831,477.288"/>
		<path style="fill:#5A6C7A;" d="M160.542,477.288c0-4.79-3.888-8.678-8.678-8.678s-8.678,3.888-8.678,8.678
			s3.888,8.678,8.678,8.678S160.542,482.078,160.542,477.288"/>
		<path style="fill:#5A6C7A;" d="M195.254,477.288c0-4.79-3.888-8.678-8.678-8.678s-8.678,3.888-8.678,8.678
			s3.888,8.678,8.678,8.678S195.254,482.078,195.254,477.288"/>
		<path style="fill:#5A6C7A;" d="M229.966,477.288c0-4.79-3.888-8.678-8.678-8.678s-8.678,3.888-8.678,8.678
			s3.888,8.678,8.678,8.678S229.966,482.078,229.966,477.288"/>
		<path style="fill:#5A6C7A;" d="M264.678,477.288c0-4.79-3.888-8.678-8.678-8.678c-4.79,0-8.678,3.888-8.678,8.678
			s3.888,8.678,8.678,8.678C260.79,485.966,264.678,482.078,264.678,477.288"/>
		<path style="fill:#5A6C7A;" d="M299.39,477.288c0-4.79-3.888-8.678-8.678-8.678c-4.79,0-8.678,3.888-8.678,8.678
			s3.888,8.678,8.678,8.678C295.502,485.966,299.39,482.078,299.39,477.288"/>
		<path style="fill:#5A6C7A;" d="M334.102,477.288c0-4.79-3.888-8.678-8.678-8.678c-4.79,0-8.678,3.888-8.678,8.678
			s3.888,8.678,8.678,8.678C330.214,485.966,334.102,482.078,334.102,477.288"/>
		<path style="fill:#5A6C7A;" d="M368.814,477.288c0-4.79-3.888-8.678-8.678-8.678c-4.79,0-8.678,3.888-8.678,8.678
			s3.888,8.678,8.678,8.678C364.926,485.966,368.814,482.078,368.814,477.288"/>
		<path style="fill:#5A6C7A;" d="M403.525,477.288c0-4.79-3.888-8.678-8.678-8.678c-4.79,0-8.678,3.888-8.678,8.678
			s3.888,8.678,8.678,8.678C399.638,485.966,403.525,482.078,403.525,477.288"/>
		<path style="fill:#5A6C7A;" d="M438.237,477.288c0-4.79-3.888-8.678-8.678-8.678c-4.79,0-8.678,3.888-8.678,8.678
			s3.888,8.678,8.678,8.678C434.35,485.966,438.237,482.078,438.237,477.288"/>
		<path style="fill:#5A6C7A;" d="M472.949,477.288c0-4.79-3.888-8.678-8.678-8.678c-4.79,0-8.678,3.888-8.678,8.678
			s3.888,8.678,8.678,8.678C469.061,485.966,472.949,482.078,472.949,477.288"/>
	</g>
</g>
<g>
</g>
<g>
</g>
<g>
</g>
<g>
</g>
<g>
</g>
<g>
</g>
<g>
</g>
<g>
</g>
<g>
</g>
<g>
</g>
<g>
</g>
<g>
</g>
<g>
</g>
<g>
</g>
<g>
</g>
</svg>
