<?xml version="1.0" encoding="iso-8859-1"?>
<!-- Generator: Adobe Illustrator 19.0.0, SVG Export Plug-In . SVG Version: 6.00 Build 0)  -->
<svg version="1.1" id="Layer_1" xmlns="http://www.w3.org/2000/svg" xmlns:xlink="http://www.w3.org/1999/xlink" x="0px" y="0px"
	 viewBox="0 0 512 512" style="enable-background:new 0 0 512 512;" xml:space="preserve">
<path style="fill:#272F37;" d="M118.585,248.977l-50.041-45.563c-17.854-16.257-22.54-42.491-11.416-63.924l13.149-25.336
	c16.482-31.757,53.617-46.807,87.558-35.483l22.683,7.567c8.099,2.702,12.474,11.458,9.772,19.557l0,0
	c-4.578,13.722-15.222,24.571-28.854,29.409l0,0c-8.1,2.875-16.919,3.019-25.109,0.41l0,0c-16.832-5.362-35.077,2.178-43.214,17.856
	l0,0c-4.054,7.81-1.386,17.425,6.112,22.03l0,0c12.759,7.836,22.73,19.488,28.498,33.306l0,0
	c4.005,9.594,11.476,17.326,20.927,21.659l0,0c6.59,3.021,8.335,11.581,3.454,16.941l0,0
	C143.281,257.097,128.274,257.8,118.585,248.977z"/>
<path style="fill:#6A7379;" d="M217.492,129.784h-46.75c-10.938,0-20.225-8.008-21.836-18.827l-5.411-36.356l73.997,1.209
	L217.492,129.784L217.492,129.784z"/>
<path style="fill:#B7B9BC;" d="M377.722,321.87H209.584c-4.204,0-7.751,3.125-8.282,7.296l-22.08,173.625
	c-0.622,4.886,3.187,9.21,8.113,9.21H399.97c4.926,0,8.735-4.323,8.113-9.21l-22.08-173.625
	C385.474,324.996,381.926,321.87,377.722,321.87z"/>
<polygon style="opacity:0.35;fill:#FFFFFF;enable-background:new    ;" points="324.128,321.87 263.178,321.87 255.119,512 
	332.187,512 "/>
<path style="fill:#B7B9BC;" d="M209.584,282.803h168.138c4.203,0,7.751-3.125,8.282-7.296l23.25-182.834H178.052l23.25,182.834
	C201.831,279.678,205.38,282.803,209.584,282.803z"/>
<polygon style="opacity:0.35;fill:#FFFFFF;enable-background:new    ;" points="263.178,282.803 324.128,282.803 332.187,92.674 
	255.119,92.674 "/>
<rect x="211.475" y="282.805" style="fill:#6A7379;" width="164.349" height="39.066"/>
<rect x="211.475" y="282.805" style="opacity:0.1;enable-background:new    ;" width="164.349" height="13.69"/>
<path style="fill:#B7B9BC;" d="M258.814,54.615h69.676c2.635,0,5.235,0.61,7.596,1.78l73.168,36.278H178.051l73.168-36.278
	C253.579,55.224,256.179,54.615,258.814,54.615z"/>
<path style="opacity:0.1;enable-background:new    ;" d="M258.814,54.615h69.676c2.635,0,5.235,0.61,7.596,1.78l73.168,36.278
	H178.051l73.168-36.278C253.579,55.224,256.179,54.615,258.814,54.615z"/>
<polygon style="fill:#6A7379;" points="280.704,54.615 306.6,54.615 332.186,92.673 255.119,92.673 "/>
<path style="fill:#272F37;" d="M317.633,0h-47.961c-3.87,0-6.842,3.429-6.293,7.26l6.789,47.355h46.97l6.789-47.355
	C324.475,3.429,321.503,0,317.633,0z"/>
<g>
	<path id="SVGCleanerId_0" style="fill:#B7B9BC;" d="M409.255,92.673h44.178c6.283,0,9.719,7.324,5.704,12.156l-60.718,73.066
		L409.255,92.673z"/>
</g>
<g>
	<path id="SVGCleanerId_0_1_" d="M409.255,92.673h44.178c6.283,0,9.719,7.324,5.704,12.156l-60.718,73.066L409.255,92.673z"/>
</g>
<g>
	<path id="SVGCleanerId_0_2_" d="M409.255,92.673h44.178c6.283,0,9.719,7.324,5.704,12.156l-60.718,73.066L409.255,92.673z"/>
</g>
<g>
	<path style="opacity:0.2;fill:#FFFFFF;enable-background:new    ;" d="M453.431,92.673H420.79
		c4.883,11.996,14.241,21.685,26.003,27.008l12.342-14.851C463.151,99.997,459.714,92.673,453.431,92.673z"/>
	<path style="opacity:0.2;fill:#FFFFFF;enable-background:new    ;" d="M386.004,329.165c-0.53-4.17-4.078-7.296-8.281-7.296
		h-19.068c-3.691,7.016-5.79,15.001-5.79,23.479c0,24.827,17.914,45.455,41.518,49.702L386.004,329.165z"/>
	<path style="opacity:0.2;fill:#FFFFFF;enable-background:new    ;" d="M336.087,56.395c-2.361-1.17-4.961-1.78-7.596-1.78h-0.557
		c7.251,19.015,25.646,32.527,47.208,32.527c5.973,0,11.699-1.044,17.017-2.946L336.087,56.395z"/>
</g>
<g>
</g>
<g>
</g>
<g>
</g>
<g>
</g>
<g>
</g>
<g>
</g>
<g>
</g>
<g>
</g>
<g>
</g>
<g>
</g>
<g>
</g>
<g>
</g>
<g>
</g>
<g>
</g>
<g>
</g>
</svg>
