<?xml version="1.0" encoding="iso-8859-1"?>
<!-- Generator: Adobe Illustrator 19.0.0, SVG Export Plug-In . SVG Version: 6.00 Build 0)  -->
<svg version="1.1" id="Layer_1" xmlns="http://www.w3.org/2000/svg" xmlns:xlink="http://www.w3.org/1999/xlink" x="0px" y="0px"
	 viewBox="0 0 512 512" style="enable-background:new 0 0 512 512;" xml:space="preserve">
<g>
	<g>
		<path d="M204.801,358.4c-42.419,0-76.8,34.381-76.8,76.8s34.381,76.8,76.8,76.8c42.419,0,76.8-34.381,76.8-76.8
			S247.211,358.4,204.801,358.4z M204.801,486.4c-28.228,0-51.2-22.972-51.2-51.2s22.972-51.2,51.2-51.2s51.2,22.972,51.2,51.2
			S233.029,486.4,204.801,486.4z"/>
	</g>
</g>
<g>
	<g>
		<circle cx="204.801" cy="435.2" r="25.6"/>
	</g>
</g>
<g>
	<g>
		<path d="M101.948,9.429C100.421,3.874,95.378,0,89.601,0h-76.8c-7.074,0-12.8,5.726-12.8,12.8c0,7.074,5.726,12.8,12.8,12.8
			h67.021l85.914,315.017c7.799-3.226,16.171-5.154,24.789-6.374L101.948,9.429z"/>
	</g>
</g>
<g>
	<g>
		<path d="M511.557,352.521c-1.835-6.852-8.9-10.846-15.684-9.028l-196.403,52.932c3.209,7.799,5.12,16.171,6.315,24.789
			l196.736-53.026C509.355,366.37,513.392,359.347,511.557,352.521z"/>
	</g>
</g>
<g>
	<g>
		<path d="M470.102,301.943l-54.733-197.35c-3.78-13.628-17.886-21.606-31.514-17.826L186.505,141.5
			c-13.619,3.78-21.606,17.886-17.826,31.514l44.553,160.64c9.882,0.819,19.405,2.799,28.297,6.246l-48.179-173.73l61.67-17.101
			l20.523,74.01l74.01-20.523l-20.523-74.01l61.67-17.101l54.733,197.35l-61.67,17.101l-13.679-49.34l-74.01,20.523l13.679,49.34
			l-39.27,10.889c7.364,6.221,14.097,13.133,19.465,21.171l162.321-45.03C465.895,329.677,473.874,315.563,470.102,301.943z
			 M293.368,191.556l-13.679-49.34l24.67-6.844l13.679,49.34L293.368,191.556z M334.422,339.567l-6.844-24.67l24.67-6.844
			l6.844,24.67L334.422,339.567z"/>
	</g>
</g>
<g>
</g>
<g>
</g>
<g>
</g>
<g>
</g>
<g>
</g>
<g>
</g>
<g>
</g>
<g>
</g>
<g>
</g>
<g>
</g>
<g>
</g>
<g>
</g>
<g>
</g>
<g>
</g>
<g>
</g>
</svg>
