<?xml version="1.0" encoding="iso-8859-1"?>
<!-- Generator: Adobe Illustrator 19.0.0, SVG Export Plug-In . SVG Version: 6.00 Build 0)  -->
<svg version="1.1" id="Layer_1" xmlns="http://www.w3.org/2000/svg" xmlns:xlink="http://www.w3.org/1999/xlink" x="0px" y="0px"
	 viewBox="0 0 511.999 511.999" style="enable-background:new 0 0 511.999 511.999;" xml:space="preserve">
<g>
	<g>
		
			<rect x="122.007" y="346.621" transform="matrix(0.7071 -0.7071 0.7071 0.7071 -233.4023 211.2576)" width="32.606" height="81.5"/>
	</g>
</g>
<g>
	<g>
		
			<rect x="166.173" y="323.445" transform="matrix(0.7071 -0.7071 0.7071 0.7071 -189.2362 229.5526)" width="32.606" height="39.519"/>
	</g>
</g>
<g>
	<g>
		<path d="M462.765,0l-26.503,22.877L413.84,0.454l-23.056,23.056l20.729,20.729l-6.341,5.474l-24.009-24.008l-23.056,23.056
			l22.315,22.315l-25.509,22.019l12.46,12.46L247.286,225.643l-1.56-1.003c-0.993-0.639-1.451-1.834-1.139-2.973l6.091-22.231
			c4.191-15.3-2.119-31.188-15.703-39.538c-13.383-8.225-30.15-6.707-41.742,3.793c-0.408,0.37-0.794,0.739-1.144,1.09
			c-19.051,19.052-27.03,34.494-34.069,48.118c-6.376,12.341-11.882,22.997-25.394,36.509c-9.68,9.68-22.365,14.49-37.053,20.06
			c-16.648,6.313-35.518,13.467-51.451,29.398c-27.513,27.514-36.428,57.786-26.5,89.976c8.686,28.165,30.549,52.526,48.626,70.603
			c18.076,18.076,42.437,39.94,70.602,48.626c8.495,2.62,16.853,3.928,25.066,3.927c22.906-0.001,44.657-10.178,64.91-30.43
			c15.932-15.933,23.087-34.803,29.398-51.451c5.569-14.688,10.379-27.372,20.057-37.052c9.501-9.5,17.072-13.054,25.838-17.167
			c10.044-4.714,21.429-10.057,34.875-23.504c3.039-3.038,6.239-7.397,9.784-13.324c6.632-11.09,6.738-24.406,0.281-35.622
			c-6.381-11.087-18.333-17.87-31.067-17.713l-23.574,0.298l127.714-127.714l13.088,13.088l65.083-83.348L462.765,0z
			 M316.407,318.34c1.103-0.022,1.861,0.449,2.393,1.374c0.766,1.331,0.186,2.302-0.005,2.622c-3.042,5.087-4.579,6.727-4.856,7.004
			c-9.41,9.41-16.947,12.947-25.673,17.042c-10.079,4.731-21.504,10.093-35.04,23.629c-14.63,14.63-21.168,31.873-27.49,48.548
			c-5.65,14.9-10.985,28.973-21.966,39.955c-24.715,24.713-44.544,22.336-57.31,18.4c-21.556-6.649-42.943-26.312-57.155-40.524
			c-49.147-49.148-55.351-81.242-22.127-114.466c10.982-10.982,25.055-16.318,39.954-21.966
			c16.676-6.322,33.921-12.861,48.55-27.492c17.097-17.096,24.32-31.078,31.306-44.598c6.526-12.632,12.691-24.562,28.152-40.024
			c0.306-0.277,0.711-0.645,1.351-0.645c0.378,0,0.839,0.128,1.41,0.479c1.874,1.152,1.478,2.598,1.329,3.142l-6.09,22.231
			c-4.096,14.951,1.912,30.63,14.952,39.015l17.328,11.141c0.571,0.367,0.979,0.931,1.15,1.588l7.101,27.445
			c4.045,15.634,18.053,26.455,34.161,26.455c0.152,0,0.304-0.001,0.456-0.002L316.407,318.34z M277.589,254.751
			c-1.021-3.206-2.482-6.22-4.329-8.97l117.169-117.169l6.65,6.65L277.589,254.751z M430.211,122.283L402.78,94.852l46.8-40.396
			l11.447,28.361L430.211,122.283z"/>
	</g>
</g>
<g>
</g>
<g>
</g>
<g>
</g>
<g>
</g>
<g>
</g>
<g>
</g>
<g>
</g>
<g>
</g>
<g>
</g>
<g>
</g>
<g>
</g>
<g>
</g>
<g>
</g>
<g>
</g>
<g>
</g>
</svg>
