<?xml version="1.0" encoding="iso-8859-1"?>
<!-- Generator: Adobe Illustrator 19.0.0, SVG Export Plug-In . SVG Version: 6.00 Build 0)  -->
<svg version="1.1" id="Layer_1" xmlns="http://www.w3.org/2000/svg" xmlns:xlink="http://www.w3.org/1999/xlink" x="0px" y="0px"
	 viewBox="0 0 485 485" style="enable-background:new 0 0 485 485;" xml:space="preserve">
<g>
	<g>
		<path d="M376.207,375.119c-10.932-5.575-22.972-10.473-35.796-14.563c-2.074-1.102-9.572-5.136-17.842-10.181
			c-10.291-6.195-18.153-11.749-22.568-15.917v-24.31c8.232-4.708,15.878-10.512,22.774-17.315
			c18.263-18.061,30.315-41.976,35.045-69.391C375.026,218.507,390,202.357,390,187.5c0-15.043-11.308-25.026-30-27.094V42.436
			c-0.008-0.943-0.222-4.374-2.636-8.921c-2.929-5.517-7.877-10.512-14.707-14.847C323.138,6.281,289.441,0,242.5,0
			c-46.941,0-80.638,6.281-100.156,18.667c-6.83,4.334-11.778,9.33-14.707,14.847c-2.415,4.547-2.628,7.979-2.637,8.986v117.906
			c-18.692,2.068-30,12.051-30,27.094c0,14.857,14.975,31.008,32.182,35.942c4.736,27.429,16.787,51.336,35.051,69.398
			c6.894,6.801,14.544,12.607,22.767,17.31v24.309c-4.416,4.168-12.283,9.724-22.606,15.939
			c-8.276,5.049-15.801,9.094-17.833,10.173c-13.411,4.402-25.367,9.342-35.491,14.66c-62.571,32.182-64.037,75.318-64.069,77.139
			L45,485h395v-32.537C439.991,450.631,439.055,407.229,376.207,375.119z M360,175.482c13.367,1.874,15,8.786,15,12.018
			c0,6.126-6.627,14.467-15.266,19.07C359.899,203.606,360,175.482,360,175.482z M110,187.5c0-3.232,1.633-10.144,15-12.018
			c0,0,0.101,28.126,0.266,31.088C116.627,201.966,110,193.626,110,187.5z M105,470H60v-17.37c0.093-2.065,2.189-31.708,45-57.922
			V470z M345,42.504v0.246C344.994,42.626,345,42.549,345,42.504z M140,42.565C140.002,42.289,146.244,15,242.5,15
			c51.951,0,77.354,8.042,89.515,14.789c11.257,6.245,12.818,12.222,12.985,13.063v60.444c-6.252-1.96-15.064-3.295-27.5-3.295
			c-30.107,0-64.333,14.381-75,19.222c-10.667-4.841-44.893-19.222-75-19.222c-12.436,0-21.248,1.335-27.5,3.295V42.565z
			 M141.227,216.156C140.413,210.366,140,204.09,140,197.5v-77.905c1.781-1.289,8.229-4.595,27.5-4.595
			c31.92,0,71.313,19.046,71.705,19.238l3.294,1.608l3.292-1.607C246.187,134.046,285.58,115,317.5,115
			c19.263,0,25.716,3.304,27.5,4.594V197.5c0,6.59-0.413,12.866-1.23,18.685c-3.309,24.203-12.815,45.432-27.567,61.79
			l-17.464-10.479L287.906,235H250v-32.5h-15V235h-37.906l-10.832,32.496l-17.464,10.478
			C154.044,261.612,144.539,240.383,141.227,216.156z M180.1,288.687l18.637-11.182L207.906,250H242.5h34.594l9.168,27.504
			l18.637,11.182c-4.959,3.994-10.26,7.47-15.862,10.361C275.075,306.315,259.417,310,242.5,310s-32.575-3.685-46.56-10.964
			C190.353,296.152,185.056,292.678,180.1,288.687z M285,317.299v17.486l-42.5,51l-42.5-51v-17.487
			c13.182,5.108,27.424,7.702,42.5,7.702C257.58,325,271.825,322.405,285,317.299z M235,470H120v-83.491
			c8.705-4.268,18.71-8.256,29.824-11.878c0,0,7.359-3.737,14.994-8.21L235,445.352V470z M177.814,358.461
			c5.632-3.639,10.311-6.997,14.011-10.056l50.675,60.81l50.675-60.81c3.702,3.061,8.381,6.42,14.011,10.057l-64.686,72.75
			L177.814,358.461z M365,470H250v-24.648l70.182-78.931c7.646,4.478,15.057,8.23,15.057,8.23
			c10.577,3.344,20.563,7.263,29.761,11.665V470z M425,470h-45v-75.613c43.443,26.324,44.951,56.438,45,58.184V470z"/>
	</g>
</g>
<g>
</g>
<g>
</g>
<g>
</g>
<g>
</g>
<g>
</g>
<g>
</g>
<g>
</g>
<g>
</g>
<g>
</g>
<g>
</g>
<g>
</g>
<g>
</g>
<g>
</g>
<g>
</g>
<g>
</g>
</svg>
