<?xml version="1.0" encoding="iso-8859-1"?>
<!-- Generator: Adobe Illustrator 19.0.0, SVG Export Plug-In . SVG Version: 6.00 Build 0)  -->
<svg version="1.1" id="Layer_1" xmlns="http://www.w3.org/2000/svg" xmlns:xlink="http://www.w3.org/1999/xlink" x="0px" y="0px"
	 viewBox="0 0 490 490" style="enable-background:new 0 0 490 490;" xml:space="preserve">
<g>
	<g>
		<path d="M334.729,317.687l-15.502-65.207l-13.399-56.197l-18.622-78.195C303.31,112.916,315,97.8,315,80V40
			c0-22.056-17.944-40-40-40h-60c-22.056,0-40,17.944-40,40v40c0,17.803,11.693,32.92,27.801,38.091l-10.728,45.186l-10.702,44.811
			l-20.195,84.98l-5.9,24.6c-0.549,2.289-0.273,4.699,0.78,6.804l80,160C237.749,487.86,241.212,490,245,490
			c3.788,0,7.25-2.14,8.944-5.528l42.904-85.809l19.99-40.081l17.1-34.1C334.993,322.381,335.273,319.975,334.729,317.687z
			 M287.64,206.234l7.774,32.603l-92.536-34.701l6.075-25.438L287.64,206.234z M213.612,159.138L222.904,120h44.198l15.031,63.117
			L213.612,159.138z M195,80v-5h80V55h-80V40c0-11.028,8.972-20,20-20h60c11.028,0,20,8.972,20,20v40c0,11.028-8.972,20-20,20h-60
			C203.972,100,195,91.028,195,80z M245,457.639l-44.145-88.289l73.28,30.018L245,457.639z M283.096,381.426l-95.831-39.256
			l-11.691-23.382l2.285-9.527l116.363,49.858L283.096,381.426z M303.182,341.199l-120.607-51.676l15.632-65.778l102.795,38.548
			l13.427,56.478L303.182,341.199z"/>
	</g>
</g>
<g>
</g>
<g>
</g>
<g>
</g>
<g>
</g>
<g>
</g>
<g>
</g>
<g>
</g>
<g>
</g>
<g>
</g>
<g>
</g>
<g>
</g>
<g>
</g>
<g>
</g>
<g>
</g>
<g>
</g>
</svg>
