<?xml version="1.0" encoding="iso-8859-1"?>
<!-- Generator: Adobe Illustrator 19.0.0, SVG Export Plug-In . SVG Version: 6.00 Build 0)  -->
<svg version="1.1" id="Layer_1" xmlns="http://www.w3.org/2000/svg" xmlns:xlink="http://www.w3.org/1999/xlink" x="0px" y="0px"
	 viewBox="0 0 512 512" style="enable-background:new 0 0 512 512;" xml:space="preserve">
<path style="fill:#3B97D3;" d="M353.92,167.344H158.08V0h195.84L353.92,167.344L353.92,167.344z M190.08,135.344h131.84V32H190.08
	L190.08,135.344L190.08,135.344z"/>
<g>
	<path style="fill:#333333;" d="M316.56,512H196.848V386.272h-36.64V338.56l-24.304-26.192V135.504h240.192v176.848l-24.304,26.192
		v47.712H316.56V512z M228.848,480h55.712V354.272h35.232v-28.288l24.304-26.192V167.504H167.904v132.288l24.304,26.192v28.288
		h36.64V480z"/>
	<rect x="211.824" y="73.712" style="fill:#333333;" width="28.016" height="24.336"/>
	<rect x="272.16" y="73.712" style="fill:#333333;" width="28.016" height="24.336"/>
</g>
<path style="fill:#3B97D3;" d="M315.824,206.864v76c0,3.712-3.04,6.768-6.768,6.768H202.944c-3.712,0-6.768-3.04-6.768-6.768v-76
	c0-3.712,3.04-6.768,6.768-6.768h106.112C312.784,200.112,315.824,203.152,315.824,206.864z"/>
<g>
	<path style="fill:#FFFFFF;" d="M215.2,232.976h4.72v8.816h8.176v-8.816h4.704v23.376h-4.704v-10.256h-8.176v10.256h-4.72V232.976z"
		/>
	<path style="fill:#FFFFFF;" d="M238.384,232.976h5.52c3.552,0,6.208,0.416,7.92,1.248c1.728,0.848,3.152,2.224,4.272,4.112
		c1.12,1.904,1.68,4.128,1.68,6.656c0,1.792-0.32,3.456-0.944,4.976c-0.624,1.504-1.504,2.752-2.592,3.744
		c-1.104,0.992-2.304,1.68-3.584,2.064c-1.296,0.384-3.52,0.576-6.688,0.576h-5.6v-23.376H238.384z M243.008,237.264v14.752h2.16
		c2.128,0,3.664-0.24,4.624-0.704c0.976-0.448,1.744-1.248,2.352-2.336c0.608-1.104,0.928-2.464,0.928-4.08
		c0-2.48-0.736-4.4-2.192-5.776c-1.312-1.216-3.408-1.84-6.304-1.84h-1.568V237.264z"/>
	<path style="fill:#FFFFFF;" d="M264.592,232.976h4.528l5.664,16.304l5.712-16.304h4.528l4.112,23.376h-4.496l-2.624-14.768
		l-5.2,14.768h-4.096l-5.152-14.768l-2.688,14.768h-4.528L264.592,232.976z"/>
	<path style="fill:#FFFFFF;" d="M292.528,232.976h4.608v23.376h-4.608V232.976z"/>
</g>
<g>
</g>
<g>
</g>
<g>
</g>
<g>
</g>
<g>
</g>
<g>
</g>
<g>
</g>
<g>
</g>
<g>
</g>
<g>
</g>
<g>
</g>
<g>
</g>
<g>
</g>
<g>
</g>
<g>
</g>
</svg>
