<?xml version="1.0" encoding="iso-8859-1"?>
<!-- Generator: Adobe Illustrator 19.0.0, SVG Export Plug-In . SVG Version: 6.00 Build 0)  -->
<svg version="1.1" id="Layer_1" xmlns="http://www.w3.org/2000/svg" xmlns:xlink="http://www.w3.org/1999/xlink" x="0px" y="0px"
	 viewBox="0 0 512 512" style="enable-background:new 0 0 512 512;" xml:space="preserve">
<g>
	<path style="fill:#333333;" d="M466.816,381.16H45.184C20.256,381.16,0,360.904,0,335.992V145.496
		c0-24.928,20.256-45.184,45.184-45.184h421.648c24.896,0,45.168,20.256,45.168,45.184v190.496
		C512,360.904,491.728,381.16,466.816,381.16z M45.184,132.312c-7.264,0-13.184,5.92-13.184,13.184v190.496
		c0,7.264,5.92,13.168,13.184,13.168h421.648c7.264,0,13.168-5.904,13.168-13.168V145.496c0-7.264-5.904-13.184-13.168-13.184
		H45.184z"/>
	<path style="fill:#333333;" d="M364.672,301.592H147.328c-14.192,0-25.712-11.536-25.712-25.712v-99.088
		c0-14.192,11.536-25.728,25.712-25.728h217.344c14.192,0,25.728,11.552,25.728,25.728v99.088
		C390.4,290.056,378.848,301.592,364.672,301.592z M153.6,269.592h204.8v-86.544H153.6V269.592z"/>
	<path style="fill:#333333;" d="M178.48,207.16h10.96v36.768h-7.264v-30.192h-7.936L178.48,207.16z"/>
	<path style="fill:#333333;" d="M208.992,219.016h-7.12c0.192-3.968,1.488-7.072,3.904-9.36c2.4-2.288,5.52-3.408,9.296-3.408
		c2.336,0,4.384,0.464,6.192,1.408c1.776,0.944,3.2,2.304,4.288,4.08c1.072,1.76,1.616,3.584,1.616,5.408
		c0,2.192-0.656,4.528-1.952,7.04s-3.664,5.504-7.12,8.928l-4.32,4.352h13.696v6.464h-26.64v-3.344l11.888-11.616
		c2.88-2.784,4.8-5.008,5.728-6.704c0.96-1.68,1.44-3.216,1.44-4.592c0-1.408-0.496-2.576-1.488-3.504
		c-0.992-0.944-2.256-1.392-3.792-1.392c-1.584,0-2.88,0.544-3.92,1.664C209.632,215.576,209.072,217.096,208.992,219.016z"/>
	<path style="fill:#333333;" d="M237.168,216.04c1.136,0,2.112,0.368,2.912,1.136s1.2,1.696,1.2,2.784c0,1.056-0.4,1.984-1.2,2.752
		s-1.76,1.136-2.912,1.136c-1.12,0-2.096-0.368-2.896-1.12c-0.816-0.768-1.2-1.68-1.2-2.768s0.384-2.016,1.2-2.784
		C235.072,216.424,236.048,216.04,237.168,216.04z M237.168,236.808c1.136,0,2.112,0.368,2.912,1.136c0.8,0.752,1.2,1.664,1.2,2.768
		c0,1.072-0.4,2-1.2,2.768s-1.76,1.152-2.912,1.152c-1.12,0-2.096-0.384-2.896-1.152c-0.816-0.768-1.2-1.68-1.2-2.768
		s0.384-2.016,1.2-2.768C235.072,237.176,236.048,236.808,237.168,236.808z"/>
	<path style="fill:#333333;" d="M259.52,206.248c2.816,0,5.232,0.656,7.264,1.968c2.032,1.312,3.6,3.328,4.704,6.032
		c1.104,2.72,1.664,6.48,1.664,11.312c0,4.896-0.56,8.688-1.68,11.408s-2.64,4.704-4.528,5.984
		c-1.904,1.264-4.304,1.904-7.184,1.904c-2.912,0-5.328-0.64-7.296-1.92s-3.52-3.232-4.64-5.84
		c-1.104-2.624-1.664-6.336-1.664-11.168c0-6.752,1.088-11.648,3.28-14.672C251.84,207.896,255.216,206.248,259.52,206.248z
		 M259.696,212.888c-1.232,0-2.336,0.368-3.28,1.136c-0.976,0.752-1.68,2.064-2.208,3.904c-0.496,1.856-0.752,4.56-0.752,8.128
		c0,4.656,0.576,7.856,1.728,9.648c1.152,1.76,2.656,2.656,4.496,2.656c1.776,0,3.184-0.848,4.24-2.512
		c1.264-2.032,1.904-5.44,1.904-10.208c0-4.832-0.576-8.176-1.712-10S261.504,212.888,259.696,212.888z"/>
	<path style="fill:#333333;" d="M289.52,206.248c2.816,0,5.232,0.656,7.264,1.968c2.032,1.312,3.6,3.328,4.704,6.032
		c1.104,2.72,1.664,6.48,1.664,11.312c0,4.896-0.56,8.688-1.68,11.408s-2.64,4.704-4.528,5.984
		c-1.904,1.264-4.304,1.904-7.184,1.904c-2.912,0-5.328-0.64-7.296-1.92s-3.52-3.232-4.64-5.84
		c-1.104-2.624-1.664-6.336-1.664-11.168c0-6.752,1.088-11.648,3.28-14.672C281.84,207.896,285.216,206.248,289.52,206.248z
		 M289.696,212.888c-1.232,0-2.336,0.368-3.28,1.136c-0.976,0.752-1.68,2.064-2.208,3.904c-0.496,1.856-0.752,4.56-0.752,8.128
		c0,4.656,0.576,7.856,1.728,9.648c1.152,1.76,2.656,2.656,4.496,2.656c1.776,0,3.184-0.848,4.24-2.512
		c1.264-2.032,1.904-5.44,1.904-10.208c0-4.832-0.576-8.176-1.712-10S291.504,212.888,289.696,212.888z"/>
	<path style="fill:#333333;" d="M312.032,229.784h2.56c1.392,0,2.4,0.128,3.008,0.368s1.088,0.64,1.456,1.184
		s0.528,1.216,0.528,1.984c0,0.848-0.24,1.552-0.688,2.112c-0.464,0.56-1.104,0.976-1.904,1.184
		c-0.464,0.128-1.312,0.192-2.544,0.192v5.152h-2.416L312.032,229.784L312.032,229.784z M314.448,234.536h0.768
		c0.608,0,1.024-0.048,1.264-0.128c0.24-0.08,0.416-0.224,0.56-0.4s0.208-0.416,0.208-0.704c0-0.464-0.192-0.816-0.576-1.024
		c-0.272-0.16-0.784-0.24-1.536-0.24h-0.688L314.448,234.536L314.448,234.536z"/>
	<path style="fill:#333333;" d="M323.2,229.784h2.368l2.96,8.496l2.976-8.496h2.368L336,241.96h-2.336l-1.36-7.68l-2.704,7.68
		h-2.144l-2.688-7.68l-1.408,7.68h-2.352L323.2,229.784z"/>
	<rect x="36.688" y="358.088" style="fill:#333333;" width="438.64" height="53.6"/>
</g>
<path style="fill:#3B97D3;" d="M364.672,301.592H147.328c-14.192,0-25.712-11.536-25.712-25.712v-99.088
	c0-14.192,11.536-25.728,25.712-25.728h217.344c14.192,0,25.728,11.552,25.728,25.728v99.088
	C390.4,290.056,378.848,301.592,364.672,301.592z M153.6,269.592h204.8v-86.544H153.6V269.592z"/>
<g>
</g>
<g>
</g>
<g>
</g>
<g>
</g>
<g>
</g>
<g>
</g>
<g>
</g>
<g>
</g>
<g>
</g>
<g>
</g>
<g>
</g>
<g>
</g>
<g>
</g>
<g>
</g>
<g>
</g>
</svg>
