<?xml version="1.0" encoding="iso-8859-1"?>
<!-- Generator: Adobe Illustrator 19.0.0, SVG Export Plug-In . SVG Version: 6.00 Build 0)  -->
<svg version="1.1" id="Layer_1" xmlns="http://www.w3.org/2000/svg" xmlns:xlink="http://www.w3.org/1999/xlink" x="0px" y="0px"
	 viewBox="0 0 512 512" style="enable-background:new 0 0 512 512;" xml:space="preserve">
<path style="fill:#A3DDE9;" d="M503.31,226.799c-3.02,17.138-12.54,32.075-26.797,42.06l-68.096,47.678
	c-15.089,10.571-35.963,6.886-46.534-8.203l-20.332-29.048l25.16-17.616l20.339,29.041c0.818,1.181,2.577,1.492,3.751,0.667
	l68.096-47.678c7.537-5.278,12.562-13.17,14.162-22.228c1.593-9.065-0.434-18.203-5.705-25.733
	c-10.897-15.56-32.408-19.346-47.961-8.457L250.75,305.357l3.329-26.832l48.187-46.738l99.505-69.675
	c29.432-20.599,70.137-13.431,90.752,16.001C502.492,192.371,506.33,209.661,503.31,226.799z"/>
<path style="fill:#82C8DB;" d="M302.266,231.787L193.197,308.16l-19.455,42.437c11.244-3.005,27.535-10.593,37.071-17.276
	l39.938-27.963L302.266,231.787z"/>
<path style="fill:#A3DDE9;" d="M79.77,375.683l93.971-25.087l19.455-42.437c-6.698,4.685-19.491,10.643-27.383,12.757
	l-93.971,25.087c-14.474,3.859-29.005,17.479-33.813,31.67L8.511,464.884c-1.81,5.357-0.594,11.512,3.678,15.784
	c4.142,4.142,10.064,5.416,15.299,3.845l10.267-10.267l29.374-86.718C68.656,383.002,75.151,376.914,79.77,375.683z"/>
<path style="fill:#419EBE;" d="M165.994,440.159l25.088-93.973c2.114-7.892,8.073-20.686,12.757-27.383l146.046-208.574
	c20.599-29.432,13.431-70.137-16.001-90.752C319.628,9.507,302.339,5.67,285.2,8.688c-17.138,3.02-32.075,12.54-42.06,26.797
	l-47.678,68.096c-10.571,15.089-6.885,35.963,8.204,46.534l29.048,20.33l17.616-25.16l-29.041-20.339
	c-1.181-0.818-1.492-2.577-0.667-3.751L268.301,53.1c5.278-7.537,13.17-12.562,22.228-14.162c9.065-1.593,18.203,0.434,25.733,5.705
	c15.56,10.897,19.346,32.408,8.457,47.961L178.68,301.187c-6.683,9.536-14.271,25.827-17.276,37.071l-25.088,93.973
	c-1.231,4.619-7.32,11.114-11.845,12.642l-86.718,29.374l-10.267,10.267c-1.571,5.234-0.297,11.158,3.845,15.299
	c4.272,4.272,10.426,5.488,15.784,3.678l87.211-29.519C148.516,469.164,162.135,454.633,165.994,440.159z"/>
<path d="M498.808,173.71c-11.143-15.914-27.842-26.541-47.021-29.923c-19.179-3.381-38.505,0.893-54.419,12.037l-137.4,96.208
	l96.208-137.4c23.035-32.899,15.011-78.405-17.887-101.44C322.354,2.034,303.025-2.254,283.866,1.127
	c-19.159,3.378-35.857,14.016-47.016,29.953l-47.682,68.096c-12.994,18.561-8.468,44.233,10.092,57.228l29.049,20.341
	c1.668,1.168,3.734,1.625,5.738,1.272c2.006-0.353,3.79-1.489,4.957-3.158l17.619-25.163c2.433-3.474,1.588-8.262-1.886-10.695
	l-24.964-17.482l44.82-64.011c4.1-5.855,10.233-9.762,17.273-11.004c7.04-1.238,14.14,0.334,19.994,4.433
	c12.086,8.463,15.034,25.181,6.571,37.268L172.384,296.781c-7.236,10.334-15.146,27.316-18.398,39.501l-25.089,93.97
	c-0.565,2.114-4.812,6.65-6.886,7.352l-71.998,24.384l24.384-72.001c0.702-2.072,5.236-6.319,7.352-6.884l42.912-11.458
	c4.098-1.094,6.533-5.303,5.439-9.401c-1.095-4.099-5.307-6.533-9.401-5.439l-42.912,11.457
	c-7.049,1.882-15.599,9.888-17.938,16.797l-28.795,85.025l-7.355,7.355c-2.231,0.189-4.459-0.586-6.08-2.208
	c-2.076-2.075-2.778-5.1-1.836-7.892l29.519-87.205c3.985-11.773,16.514-23.507,28.524-26.713l59.803-15.967
	c4.098-1.094,6.533-5.303,5.439-9.401c-1.095-4.1-5.306-6.532-9.401-5.439l-59.805,15.973
	c-17.016,4.542-33.464,19.944-39.111,36.628l-29.521,87.21c-2.825,8.368-0.708,17.437,5.526,23.672
	c3.508,3.507,7.967,5.694,12.688,6.443c0.744,4.729,2.948,9.194,6.461,12.705C30.313,509.65,36.138,512,42.131,512
	c2.484,0,4.998-0.404,7.451-1.233l87.206-29.518c16.681-5.648,32.084-22.096,36.628-39.111l24.779-92.805
	c6.533-3.149,12.492-6.542,17.025-9.717l208.579-146.048c5.843-4.092,12.942-5.657,19.991-4.418
	c7.049,1.243,13.184,5.145,17.276,10.988c4.099,5.855,5.673,12.955,4.433,19.994c-1.241,7.039-5.148,13.173-11.003,17.272
	l-64.012,44.821l-17.481-24.965c-2.432-3.475-7.222-4.319-10.695-1.886l-25.163,17.619c-1.668,1.168-2.805,2.951-3.159,4.957
	c-0.353,2.006,0.104,4.071,1.273,5.739l20.341,29.049c12.996,18.559,38.669,23.088,57.229,10.09l68.096-47.681
	c15.937-11.159,26.575-27.854,29.953-47.015C514.252,208.975,509.967,189.647,498.808,173.71z M158.575,438.176
	c-3.206,12.009-14.939,24.539-26.713,28.523l-87.199,29.518c-2.796,0.942-5.821,0.24-7.898-1.836
	c-1.616-1.616-2.407-3.836-2.225-6.062l7.374-7.373l85.022-28.794c6.911-2.339,14.918-10.889,16.8-17.939l25.089-93.97
	c2.761-10.34,10.001-25.884,16.141-34.653L331.013,97.013c13.32-19.024,8.68-45.338-10.343-58.658
	c-9.216-6.453-20.393-8.933-31.471-6.976c-11.079,1.954-20.735,8.106-27.187,17.32l-47.681,68.097
	c-3.28,4.684-2.137,11.164,2.548,14.445l22.759,15.937l-8.81,12.581l-22.759-15.937c-11.622-8.137-14.457-24.214-6.32-35.837
	l47.681-68.096c8.806-12.576,21.982-20.971,37.101-23.637c15.121-2.663,30.372,0.716,42.947,9.522
	c25.96,18.177,32.293,54.087,14.115,80.049L197.545,314.402c-5.191,7.414-11.549,21.063-13.882,29.804L158.575,438.176z
	 M495.747,225.467c-2.665,15.121-11.06,28.296-23.636,37.101l-68.096,47.681c-11.623,8.139-27.698,5.304-35.837-6.319
	l-15.937-22.759l12.581-8.809l15.937,22.759c3.279,4.684,9.758,5.827,14.446,2.547l68.096-47.681
	c9.216-6.452,15.366-16.107,17.32-27.187c1.953-11.079-0.525-22.256-6.977-31.47c-6.445-9.203-16.101-15.349-27.19-17.304
	c-11.086-1.955-22.265,0.518-31.468,6.962L208.663,325.456c0.5-0.81,0.991-1.57,1.464-2.245l24.083-34.394l171.967-120.411
	c12.554-8.791,27.804-12.162,42.942-9.492c15.139,2.669,28.316,11.053,37.107,23.606
	C495.033,195.096,498.414,210.348,495.747,225.467z"/>
<g>
</g>
<g>
</g>
<g>
</g>
<g>
</g>
<g>
</g>
<g>
</g>
<g>
</g>
<g>
</g>
<g>
</g>
<g>
</g>
<g>
</g>
<g>
</g>
<g>
</g>
<g>
</g>
<g>
</g>
</svg>
