<?xml version="1.0" encoding="iso-8859-1"?>
<!-- Generator: Adobe Illustrator 18.0.0, SVG Export Plug-In . SVG Version: 6.00 Build 0)  -->
<!DOCTYPE svg PUBLIC "-//W3C//DTD SVG 1.1//EN" "http://www.w3.org/Graphics/SVG/1.1/DTD/svg11.dtd">
<svg version="1.1" id="Capa_1" xmlns="http://www.w3.org/2000/svg" xmlns:xlink="http://www.w3.org/1999/xlink" x="0px" y="0px"
	 viewBox="0 0 280 280" style="enable-background:new 0 0 280 280;" xml:space="preserve">
<g>
	<polygon points="189.858,0 160.215,93.871 163.604,95.766 184.23,84.239 204.516,20 272.987,20 272.987,0 	"/>
	<path d="M148.41,197.67l19.632-62.17l-4.438-2.48l-19.127,10.689l-14.619,46.293L7.013,190.043l0.007,20l81.528-0.026
		c-5.065,7.224-8.049,16.007-8.049,25.479c0,24.539,19.964,44.504,44.504,44.504c24.539,0,44.503-19.965,44.503-44.504
		C169.506,219.541,161.061,205.526,148.41,197.67z M125.003,260c-13.512,0-24.504-10.992-24.504-24.504
		c0-13.511,10.992-24.502,24.504-24.502c13.511,0,24.503,10.991,24.503,24.502C149.506,249.008,138.513,260,125.003,260z"/>
	<polygon points="240.243,64.393 163.604,107.221 86.966,64.393 80.858,75.324 150.768,114.393 80.858,153.459 86.966,164.393 
		163.604,121.564 240.243,164.393 246.35,153.459 176.438,114.393 246.35,75.324 	"/>
</g>
<g>
</g>
<g>
</g>
<g>
</g>
<g>
</g>
<g>
</g>
<g>
</g>
<g>
</g>
<g>
</g>
<g>
</g>
<g>
</g>
<g>
</g>
<g>
</g>
<g>
</g>
<g>
</g>
<g>
</g>
</svg>
