<?xml version="1.0" encoding="iso-8859-1"?>
<!-- Generator: Adobe Illustrator 19.0.0, SVG Export Plug-In . SVG Version: 6.00 Build 0)  -->
<svg version="1.1" id="Layer_1" xmlns="http://www.w3.org/2000/svg" xmlns:xlink="http://www.w3.org/1999/xlink" x="0px" y="0px"
	 viewBox="0 0 504 504" style="enable-background:new 0 0 504 504;" xml:space="preserve">
<path style="fill:#E9B526;" d="M333.2,491.8V251.4c-35.6,46.8-77.6,72.8-78.4,73.2c-0.4,0,0,0.4,0,0.4c-0.4,0-0.4,0-0.4-0.4
	c-0.8-0.4-52-31.6-87.6-87.2l2.4,10.8c0-1.2,0,167.6,0,167.6L333.2,491.8z"/>
<g>
	<path style="fill:#FFC52F;" d="M133.6,128.2c0-11.2,1.6-22,4.4-32v-3.6L8,126.2v328l162.8-38.4v-168l-3.6-10.8
		C148,207.4,133.6,171,133.6,128.2z"/>
	<path style="fill:#FFC52F;" d="M333.2,245.8v247.6L500,455V127l-126,30C368.8,191.4,353.2,221.4,333.2,245.8z"/>
</g>
<path style="fill:#DF5C4E;" d="M255.6,9.8c-57.2,0-105.2,41.2-116,95.2c-1.6,7.6-2.4,15.2-2.4,22.8c0,37.6,11.6,70,27.2,97.6
	c32.4,56.4,82.4,90,90.4,94.8c6.8-4.4,46.4-30.8,78.4-75.6v-0.8c0-0.4,0.8-0.8,1.2-1.2c0.4-0.4,1.2-0.4,1.6-0.8
	c16-23.6,30-51.6,35.2-84c-0.8,0-1.2-0.8-1.2-1.6v-0.4c0-0.8,0.4-1.6,1.6-2h0.4c1.2-8.4,2-16.8,2-25.6C374,63,320.8,9.8,255.6,9.8z
	 M255.6,207.4c-43.6,0-79.2-35.6-79.2-79.2S212,49,255.6,49C270,49,284,53,296,60.2c1.2,0.8,22.8,16.8,29.6,31.2
	c6,13.2,9.2,25.2,9.2,37.2C335.2,171.8,299.6,207.4,255.6,207.4z"/>
<g>
	<path style="fill:#CCCCCC;" d="M370,155.8l1.6-0.4c0-0.4,0-1.2,0.4-1.6h-0.4C370.8,154.2,370,155,370,155.8z"/>
	<path style="fill:#CCCCCC;" d="M334.8,243.8l0.4-1.2C334.8,243,334.8,243.4,334.8,243.8z"/>
	<path style="fill:#CCCCCC;" d="M370,156.2c0,0.8,0.8,1.2,1.6,1.6c0-0.8,0.4-1.6,0.4-2.4l-1.6,0.4C370,156.2,370,156.2,370,156.2z"
		/>
	<path style="fill:#CCCCCC;" d="M335.2,242.6l-0.4,1.2v0.8c0.8-0.8,1.2-2,2-2.8C336,241.8,335.6,242.2,335.2,242.6z"/>
</g>
<path d="M4,460.2c-0.8,0-1.6-0.4-2.4-0.8c-0.8-0.8-1.6-2-1.6-3.2v-332c0-2,1.2-3.6,3.2-4l134-34.4c2-0.4,4.4,0.8,4.8,2.8
	c0.4,2-0.8,4.4-2.8,4.8L8.4,127v324l158.8-37.6V271.8c0-2.4,1.6-4,4-4s4,1.6,4,4V417c0,2-1.2,3.6-3.2,4L5.2,460.2
	C4.8,460.2,4.4,460.2,4,460.2z"/>
<path d="M333.2,499.8c-0.4,0-1.2,0-1.6-0.4l-160.4-78.8c-2-0.8-2.8-3.2-2-5.2s3.2-2.8,5.2-2l160.4,78.8c2,0.8,2.8,3.2,2,5.2
	C336.4,499,334.8,499.8,333.2,499.8z"/>
<path d="M333.2,499.8c-0.8,0-1.6-0.4-2.4-0.8c-0.8-0.8-1.6-2-1.6-3.2v-216c0-2.4,1.6-4,4-4s4,1.6,4,4V491L496,453.4v-324
	l-119.2,27.2c-2,0.4-4.4-0.8-4.8-3.2s0.8-4.4,3.2-4.8l124-28c1.2-0.4,2.4,0,3.2,0.8c0.8,0.8,1.6,2,1.6,3.2v332c0,2-1.2,3.6-3.2,4
	L334,499.8C334,499.8,333.6,499.8,333.2,499.8z"/>
<path d="M255.6,326.6c-0.8,0-1.6,0-2-0.4c-1.2-0.8-122-74.4-122-198c0-68.4,55.6-124,124-124s124,55.6,124,124
	c0,124-120.8,197.2-122,198C257.2,326.6,256.4,326.6,255.6,326.6z M255.6,11.8c-64,0-116,52-116,116c0,110.4,100.4,179.6,116,190
	c15.6-10,116-79.6,116-190C372,64.2,320,11.8,255.6,11.8z"/>
<path d="M255.6,209.4c-44.8,0-81.2-36.4-81.2-81.2S210.8,47,255.6,47c14.8,0,29.2,4,41.6,11.6c2,1.2,2.4,3.6,1.2,5.6
	s-3.6,2.4-5.6,1.2C281.6,58.6,268.4,55,255.2,55c-40.4,0-73.2,32.8-73.2,73.2s32.8,73.2,73.2,73.2s73.2-32.8,73.2-73.2
	c0-12-2.8-24-8.4-34.4c-1.2-2-0.4-4.4,1.6-5.6s4.4-0.4,5.6,1.6c6,11.6,9.6,24.8,9.6,38C337.2,173,300.8,209.4,255.6,209.4z"/>
<g>
</g>
<g>
</g>
<g>
</g>
<g>
</g>
<g>
</g>
<g>
</g>
<g>
</g>
<g>
</g>
<g>
</g>
<g>
</g>
<g>
</g>
<g>
</g>
<g>
</g>
<g>
</g>
<g>
</g>
</svg>
