<?xml version="1.0" encoding="iso-8859-1"?>
<!-- Generator: Adobe Illustrator 19.0.0, SVG Export Plug-In . SVG Version: 6.00 Build 0)  -->
<svg version="1.1" id="Layer_1" xmlns="http://www.w3.org/2000/svg" xmlns:xlink="http://www.w3.org/1999/xlink" x="0px" y="0px"
	 viewBox="0 0 512 512" style="enable-background:new 0 0 512 512;" xml:space="preserve">
<g transform="translate(1 1)">
	<g>
		<path d="M511,255c0-16.012-1.505-31.687-4.353-46.905l0.086-0.029l-0.696-3.133c-1.007-5.027-2.161-10.001-3.46-14.919
			c-9.396-36.33-27.147-70.868-51.31-99.708l-3.413-3.413l-0.172,0.029C409.578,43.327,357.012,12.665,297.667,2.6V2.413
			l-5.523-0.69c-4.646-0.683-9.332-1.235-14.054-1.662c-0.444-0.041-0.887-0.08-1.33-0.119c-1.046-0.089-2.092-0.179-3.141-0.255
			c-1.802-0.135-3.602-0.25-5.399-0.345c-0.118-0.006-0.236-0.01-0.354-0.016c-1.984-0.102-3.967-0.175-5.948-0.228
			c-0.198-0.005-0.396-0.011-0.594-0.016c-2.049-0.05-4.098-0.081-6.146-0.078C255.118-0.998,255.059-1,255-1
			c-0.352,0-0.7,0.012-1.052,0.013c-1.222,0.008-2.444,0.021-3.666,0.047c-11.735,0.215-23.285,1.218-34.595,2.98l-3.354,0.373V2.6
			C91.657,23.067-1,128.73-1,255c0,85.975,42.956,162.401,108.463,208.887l-0.09,0.18l5.973,4.267
			c18.966,12.773,39.516,22.727,61.005,29.802c0.756,0.417,1.575,0.688,2.505,0.818c20.974,6.664,42.816,10.588,64.941,11.706
			c0.1,0.005,0.201,0.009,0.301,0.014c1.845,0.091,3.692,0.16,5.541,0.212c0.465,0.013,0.93,0.027,1.396,0.038
			C251.023,510.969,253.01,511,255,511s3.977-0.031,5.964-0.076c0.466-0.011,0.931-0.024,1.396-0.038
			c1.849-0.052,3.696-0.121,5.541-0.212c0.1-0.005,0.201-0.008,0.301-0.014c21.197-1.071,42.132-4.724,62.295-10.888
			c0.619-0.118,1.278-0.318,1.936-0.599c22.656-7.125,44.31-17.431,64.221-30.84l5.973-4.267l-0.09-0.18
			C468.044,417.401,511,340.975,511,255z M441.344,105.907c9.435,11.756,17.785,24.412,24.897,37.817
			c8.545,16.382,15.317,33.701,20.012,51.543h-81.92c-7.68,0-13.653-3.413-17.92-9.387c-3.413-5.12-5.12-12.8-2.56-19.627
			c2.56-8.533,11.947-14.507,21.333-14.507v-0.853h3.413c10.24,0,20.48-5.973,20.48-16.213
			C429.079,115.637,435.506,108.645,441.344,105.907z M229.4,17.773c17.067-1.707,34.133-1.707,51.2,0v15.36h-51.2V17.773z
			 M297.667,50.2h17.067v17.067H306.2H203.8h-8.533V50.2h17.067H297.667z M299.226,384.854l31.705,29.735l-33.264,33.264
			l-30.72-30.72L299.226,384.854z M263.533,396.653v-45.274l23.363,21.912L263.533,396.653z M311.172,372.908l22.516-22.516
			c5.325,14.6,11.203,29.285,17.51,43.93l-8.321,8.321L311.172,372.908z M331.8,323.267h-17.067V306.2H331.8V323.267z
			 M319.854,340.333l-21.011,21.011l-22.402-21.011H319.854z M280.6,323.267V306.2h17.067v17.067H280.6z M301.08,289.133
			l10.097-10.097c0.878,3.361,1.774,6.725,2.703,10.097H301.08z M277.186,289.133h-13.653V224.28l39.253,39.253L277.186,289.133z
			 M212.333,386.413l30.584,30.584l-31.418,30.022l-29.886-29.886L212.333,386.413z M169.667,405.187l-10.749-10.749
			c6.279-14.679,12.08-29.358,17.404-44.036l24.065,24.065L169.667,405.187z M190.146,340.333h44.374l-22.187,22.187
			L190.146,340.333z M178.2,323.267V306.2h17.067v17.067H178.2z M196.12,289.133c0.928-3.372,1.825-6.736,2.703-10.097
			l10.097,10.097H196.12z M212.333,323.267V306.2H229.4v17.067H212.333z M232.813,289.133l-25.6-25.6l39.253-39.253v64.853H232.813z
			 M208.184,238.67c4.126-20.369,7.273-40.496,9.396-60.344l25.474,25.474L208.184,238.67z M223.256,160.109l23.211-21.425v44.636
			L223.256,160.109z M220.44,139.669c0.281-7.108,0.427-14.177,0.427-21.203V96.28l22.357,22.357L220.44,139.669z M232.813,84.333
			h44.373L255,106.52L232.813,84.333z M289.632,141.152l-22.685-22.685l22.187-22.187v22.187
			C289.134,125.979,289.311,133.545,289.632,141.152z M292.421,178.326c2.122,19.847,5.27,39.975,9.396,60.344l-34.87-34.87
			L292.421,178.326z M263.533,183.321v-44.374l22.187,22.187L263.533,183.321z M16.067,255c0-116.86,85.025-214.819,196.267-235.085
			v13.218H178.2v51.2h25.6v34.133c0,12.918-0.518,25.977-1.495,39.164c-0.189,0.823-0.25,1.663-0.177,2.496
			c-3.276,41.66-11.374,84.665-23.94,129.006H127v51.2h35.381c-6.147,17.264-12.971,34.628-20.427,51.929
			c-0.483,0.764-0.829,1.575-1.042,2.409c-7.864,18.101-16.41,36.121-25.576,53.869C55.306,405.028,16.067,334.379,16.067,255z
			 M161.133,306.2v17.067h-17.067V306.2H161.133z M157.72,417.134l-16.891,16.891c3.726-7.665,7.321-15.33,10.787-22.995
			L157.72,417.134z M176.414,480.546c-1.815-0.634-3.624-1.289-5.425-1.966c-0.861-0.325-1.721-0.648-2.576-0.984
			c-0.393-0.153-0.786-0.306-1.178-0.461c-10.64-4.237-20.911-9.216-30.746-14.878l33.178-33.178l29.615,29.615L176.414,480.546z
			 M232.34,492.845c-0.818-0.079-1.637-0.154-2.453-0.24c-1.045-0.11-2.085-0.236-3.126-0.36c-1.525-0.183-3.047-0.378-4.566-0.59
			c-0.353-0.049-0.706-0.099-1.058-0.149c-8.857-1.278-17.591-3.058-26.189-5.307l16.28-15.557l22.31,22.31
			C233.139,492.916,232.739,492.883,232.34,492.845z M246.467,481.987l-23.021-23.021l23.021-21.997V481.987z M246.467,396.653
			l-22.187-22.187l22.187-22.186V396.653z M246.467,323.267V306.2h17.067v17.067H246.467z M263.533,481.987v-44.374L285.72,459.8
			L263.533,481.987z M288.864,491.505c-0.354,0.051-0.706,0.101-1.059,0.15c-1.518,0.212-3.04,0.407-4.566,0.59
			c-1.041,0.124-2.081,0.25-3.126,0.36c-0.816,0.087-1.635,0.161-2.452,0.239c-0.399,0.038-0.799,0.071-1.198,0.107l21.205-21.205
			l15.057,15.057C304.88,488.772,296.922,490.342,288.864,491.505z M342.764,477.136c-0.391,0.154-0.782,0.307-1.174,0.459
			c-0.856,0.336-1.719,0.659-2.58,0.986c-2.594,0.974-5.203,1.904-7.826,2.789l-21.57-21.57l33.646-33.646l35.306,33.113
			C367.211,466.179,355.241,472.168,342.764,477.136z M355.206,414.207l3.315-3.315c1.708,3.771,3.436,7.538,5.192,11.294
			L355.206,414.207z M394.664,448.541c-9.166-17.748-17.712-35.768-25.576-53.869c-0.212-0.833-0.558-1.644-1.041-2.408
			c-7.456-17.302-14.28-34.666-20.428-51.93H383v-51.2h-51.188c-16.8-59.283-25.612-116.177-25.612-170.667V84.333h25.6v-51.2
			h-34.133V19.915c51.912,9.457,98.106,35.841,132.623,73.164c-9.006,6.016-17.702,17.77-18.276,40.747
			c-0.853,0.853-1.707,0.853-3.413,0.853h-2.56c-17.067,0-32.427,11.093-37.547,26.453c-4.267,11.947-2.56,24.747,5.12,34.987
			c7.68,10.24,19.627,16.213,31.573,16.213h82.773c0.698,0,1.399-0.043,2.104-0.107c2.537,13.888,3.869,28.182,3.869,42.774
			C493.933,334.379,454.694,405.028,394.664,448.541z M348.867,323.267V306.2h17.067v17.067H348.867z"/>
	</g>
</g>
<g>
</g>
<g>
</g>
<g>
</g>
<g>
</g>
<g>
</g>
<g>
</g>
<g>
</g>
<g>
</g>
<g>
</g>
<g>
</g>
<g>
</g>
<g>
</g>
<g>
</g>
<g>
</g>
<g>
</g>
</svg>
