<?xml version="1.0" encoding="iso-8859-1"?>
<!-- Generator: Adobe Illustrator 19.0.0, SVG Export Plug-In . SVG Version: 6.00 Build 0)  -->
<svg version="1.1" id="Layer_1" xmlns="http://www.w3.org/2000/svg" xmlns:xlink="http://www.w3.org/1999/xlink" x="0px" y="0px"
	 viewBox="0 0 512 512" style="enable-background:new 0 0 512 512;" xml:space="preserve">
<g transform="translate(1 1)">
	<g>
		<path d="M510.913,248.342c-0.052-2.066-0.136-4.128-0.237-6.188c-0.005-0.095-0.006-0.191-0.011-0.285
			c-1.607-32.101-9.081-63.384-21.851-92.681l-2.56-5.12h-0.698C444.034,58.42,356.12-1,255-1
			C170.973-1,96.073,40.035,49.325,103.048c-1.876,1.063-3.215,2.983-3.908,5.419c-7.901,11.246-14.932,23.142-20.971,35.6h-0.698
			l-1.703,5.11c-0.601,1.312-1.181,2.634-1.76,3.958C7.883,181.27,0.891,211.161-0.661,241.805
			c-0.029,0.561-0.041,1.126-0.067,1.689c-0.071,1.611-0.144,3.223-0.185,4.838C-0.97,250.548-1,252.771-1,255
			c0,1.988,0.031,3.973,0.076,5.955c0.011,0.474,0.025,0.946,0.038,1.419c0.051,1.806,0.119,3.609,0.207,5.41
			c0.008,0.154,0.013,0.307,0.021,0.461c0.802,15.747,3.032,31.287,6.668,46.488H5.827l0.947,3.076
			c2.201,8.716,4.864,17.316,7.987,25.776c6.72,18.931,15.81,36.75,26.906,53.067l0.569,0.759l1.138,1.801
			c20.48,29.867,47.787,56.32,79.36,75.093l12.8,7.68V481.2C171.252,500.201,211.923,511,255,511c46.545,0,90.287-12.597,128-34.539
			v0.405l6.308-4.205c15.936-9.893,30.717-21.484,44.091-34.517c0.722-0.699,1.443-1.399,2.157-2.107
			c0.227-0.226,0.451-0.455,0.677-0.681c6.901-6.894,13.405-14.185,19.471-21.915c3.442-4.346,6.738-8.81,9.899-13.375h0.171
			l2.56-3.413L481.987,383h-4.042c2.905-4.119,5.062-8.823,6.286-13.939c8.201-16.473,14.546-33.626,18.996-51.251l0.947-3.076
			h-0.184c3.636-15.201,5.866-30.741,6.668-46.488c0.008-0.153,0.013-0.307,0.021-0.461c0.088-1.801,0.156-3.604,0.207-5.41
			c0.014-0.473,0.027-0.946,0.038-1.419c0.045-1.983,0.076-3.967,0.076-5.955C511,252.775,510.97,250.555,510.913,248.342z
			 M33.133,342.286c-1.26-3.463-2.405-6.957-3.413-10.486h3.413V342.286z M33.133,314.733h-9.448
			c-0.064-0.246-0.131-0.491-0.194-0.737c-0.414-1.615-0.814-3.236-1.195-4.865c-0.111-0.477-0.215-0.955-0.323-1.433
			c-0.28-1.231-0.551-2.465-0.812-3.703c-0.132-0.628-0.263-1.256-0.39-1.885c-0.266-1.314-0.519-2.632-0.763-3.954
			c-0.095-0.516-0.193-1.031-0.284-1.547c-0.268-1.508-0.519-3.022-0.758-4.54c-0.102-0.648-0.198-1.296-0.295-1.945
			c-0.177-1.186-0.344-2.375-0.503-3.566c-0.077-0.576-0.158-1.152-0.231-1.729c-0.207-1.647-0.397-3.298-0.571-4.955
			c-0.059-0.562-0.11-1.125-0.165-1.687c-0.124-1.269-0.238-2.54-0.341-3.814c-0.046-0.568-0.094-1.136-0.136-1.705
			c-0.128-1.724-0.241-3.453-0.331-5.187c-0.018-0.337-0.029-0.675-0.045-1.012c-0.072-1.501-0.129-3.006-0.173-4.513
			c-0.015-0.504-0.029-1.008-0.04-1.512c-0.041-1.811-0.07-3.625-0.07-5.445c0.002-30.186,5.925-59.631,17.068-87.651V314.733z
			 M466.798,144.776c-2.019,0.191-4.027,0.415-6.025,0.662c-13.195,1.543-26.031,4.327-38.396,8.224l-5.244,1.498v0.23
			c-12.189,4.198-23.89,9.485-34.987,15.745v-0.615l-8.667,5.778c-9.816,6.165-19.102,13.109-27.774,20.741
			c-9.212,8.011-17.684,16.762-25.306,26.363c-18.47,22.811-32.362,49.434-40.244,78.37c-3.075-11.589-6.905-22.916-11.422-33.917
			c34.003-75.913,103.451-134.463,183.71-146.983C457.675,128.535,462.468,136.516,466.798,144.776z M382.147,314.733V191.028
			c10.991-6.92,22.705-12.783,34.987-17.459v141.164H382.147z M417.133,331.8V383h-34.987v-51.2H417.133z M331.8,314.734V237.08
			c10.24-12.8,21.333-23.893,34.133-34.133v111.787H331.8z M365.933,331.8V383H357.4h-25.6v-51.2H365.933z M289.007,371.807
			c0.079-0.515,0.127-1.049,0.127-1.607c0-1.425-0.028-2.845-0.051-4.267h0.051V357.4c0-8.661,0.596-17.205,1.724-25.6h23.876V383
			h-26.976c0.89-2.652,1.376-5.517,1.376-8.533C289.133,373.566,289.09,372.68,289.007,371.807z M293.93,314.733
			c4.301-18.885,11.392-36.808,20.803-53.31v53.31H293.93z M268.887,331.8c0.93,5.651,1.662,11.342,2.186,17.067h-7.539H255h-7.571
			c0.509-5.728,1.219-11.419,2.124-17.067H268.887z M252.9,314.733c1.737-7.466,3.809-14.834,6.202-22.083
			c2.446,7.254,4.568,14.622,6.347,22.083H252.9z M255,365.934h8.533c5.12,0,8.533,3.413,8.533,8.533S268.653,383,263.533,383H255
			c-5.12,0-8.533-3.413-8.533-8.533S249.88,365.934,255,365.934z M255,16.067c74.957,0,142.127,34.992,186.018,89.435
			c-77.482,15.299-144.546,70.654-181.403,142.44c-37.692-74.528-107.912-130.564-189.613-143.706
			C113.911,50.515,180.624,16.067,255,16.067z M58.227,119.907c82.901,10.027,156.332,70.684,191.625,149.159
			c-4.441,10.75-8.212,21.794-11.266,33.059c-18.374-68.731-70.418-123.954-137.187-146.749v-0.217l-5.218-1.491
			c-12.258-3.831-24.985-6.576-38.069-8.122c-4.864-0.635-9.728-1.096-14.592-1.375C47.952,135.779,52.865,127.679,58.227,119.907z
			 M227.647,331.8c1.148,8.399,1.753,16.944,1.753,25.6v8.533h0.052c-0.024,1.422-0.052,2.843-0.052,4.267
			c0,0.558,0.048,1.092,0.127,1.607c-0.084,0.872-0.127,1.759-0.127,2.659c0,3.016,0.486,5.881,1.376,8.533h-27.829V331.8H227.647z
			 M202.947,314.733v-54.285c9.763,16.78,17.124,35.046,21.57,54.285H202.947z M152.6,314.734V202.72
			c12.662,9.914,24.14,21.329,34.133,33.955v78.059H152.6z M186.733,331.8V383h-25.6H152.6v-51.2H186.733z M101.4,314.733V173.642
			c11.94,4.573,23.365,10.315,34.133,17.073v124.018H101.4z M135.533,331.8V383H101.4v-51.2H135.533z M84.333,168.016v146.717H50.2
			V161.987c11.568,0.826,22.336,3.254,33.079,5.731C83.631,167.814,83.981,167.918,84.333,168.016z M52.021,380.444
			c-0.509-0.826-1.012-1.655-1.512-2.485c-0.198-0.583-0.31-1.184-0.31-1.786V331.8h34.133V383H57.88
			C55.521,383,53.426,381.954,52.021,380.444z M118.466,417.134v33.637c-5.177-3.628-10.211-7.445-15.079-11.459
			c-13.772-11.691-26.498-24.769-37.827-39.245h35.84h34.133h8.533v17.067H118.466z M383,456.495
			c-37.061,23.68-81.001,37.438-128,37.438c-43.442,0-84.268-11.757-119.467-32.236V434.2h25.6v-34.133h41.813h0.853H255h8.533h51.2
			H357.4V434.2H383V456.495z M414.129,432.831c-0.849,0.762-1.697,1.523-2.556,2.272c-0.31,0.27-0.621,0.539-0.933,0.807
			c-0.971,0.837-1.952,1.664-2.937,2.485c-2.49,2.068-5.03,4.089-7.636,6.044v-27.307h-25.6v-17.067h7.68H383h34.133h27.307
			C435.31,411.63,425.305,422.754,414.129,432.831z M468.333,359.107c0,1.23-0.093,2.432-0.266,3.602
			c-2.53,4.945-5.242,9.814-8.135,14.596c-4.229,3.581-9.682,5.695-15.492,5.695H434.2v-51.2h34.133V359.107z M468.333,314.733
			H434.2V167.96c11.093-2.56,22.187-5.12,34.133-5.973V314.733z M493.863,260.445c-0.011,0.504-0.025,1.008-0.04,1.512
			c-0.044,1.508-0.101,3.013-0.173,4.513c-0.016,0.337-0.027,0.675-0.045,1.012c-0.09,1.734-0.204,3.462-0.331,5.187
			c-0.042,0.569-0.09,1.137-0.136,1.705c-0.104,1.274-0.218,2.546-0.341,3.814c-0.055,0.562-0.106,1.125-0.165,1.687
			c-0.173,1.656-0.363,3.308-0.571,4.955c-0.073,0.577-0.154,1.153-0.231,1.729c-0.159,1.191-0.326,2.38-0.503,3.566
			c-0.097,0.648-0.193,1.297-0.295,1.945c-0.239,1.518-0.49,3.032-0.758,4.54c-0.092,0.516-0.189,1.032-0.284,1.547
			c-0.244,1.322-0.497,2.64-0.763,3.954c-0.127,0.629-0.258,1.257-0.39,1.885c-0.261,1.238-0.532,2.472-0.812,3.703
			c-0.108,0.477-0.212,0.956-0.323,1.433c-0.381,1.628-0.78,3.249-1.195,4.865c-0.063,0.246-0.13,0.491-0.194,0.737H485.4V191.879
			c0.169,0.612,0.336,1.224,0.5,1.837c5.195,19.925,8.033,40.426,8.033,61.284C493.933,256.82,493.904,258.634,493.863,260.445z"/>
	</g>
</g>
<g>
</g>
<g>
</g>
<g>
</g>
<g>
</g>
<g>
</g>
<g>
</g>
<g>
</g>
<g>
</g>
<g>
</g>
<g>
</g>
<g>
</g>
<g>
</g>
<g>
</g>
<g>
</g>
<g>
</g>
</svg>
