<?xml version="1.0" encoding="iso-8859-1"?>
<!-- Generator: Adobe Illustrator 19.0.0, SVG Export Plug-In . SVG Version: 6.00 Build 0)  -->
<svg version="1.1" id="Layer_1" xmlns="http://www.w3.org/2000/svg" xmlns:xlink="http://www.w3.org/1999/xlink" x="0px" y="0px"
	 viewBox="0 0 502 502" style="enable-background:new 0 0 502 502;" xml:space="preserve">
<g>
	<circle style="fill:#D7E6D8;" cx="108.841" cy="116.47" r="49.621"/>
	<rect x="91.712" y="350.5" style="fill:#4FC497;" width="284.973" height="133.871"/>
	<path style="fill:#4FC497;" d="M434.765,292.802h0.104C434.835,292.802,434.8,292.802,434.765,292.802z"/>
	<path style="fill:#4FC497;" d="M390.968,312.738c11.539-13.374,27.684-20.01,43.797-19.936H150.032
		c-16.193-0.141-32.441,6.495-44.037,19.936l-0.32,0.371c-9.007,10.44-13.963,23.77-13.963,37.559l284.975-0.109
		c0.026-13.75,4.977-27.038,13.96-37.451L390.968,312.738z"/>
	<path style="fill:#4FC497;" d="M478.461,313.234L478.461,313.234c-11.392-13.511-27.47-20.33-43.591-20.433h-0.104
		c-16.113-0.074-32.259,6.562-43.797,19.936l-0.32,0.371c-8.984,10.413-13.934,23.7-13.96,37.451c0,0.036-0.002,0.072-0.002,0.109
		v133.703H492V350.515v-0.218C492,336.732,487.204,323.605,478.461,313.234z"/>
	<g>
		<rect x="409.253" y="403.693" style="fill:#4FC497;" width="51.717" height="80.678"/>
		<g>
			<path style="fill:#333333;" d="M168.461,116.47c0-32.875-26.746-59.621-59.621-59.621S49.22,83.595,49.22,116.47
				s26.746,59.62,59.621,59.62S168.461,149.345,168.461,116.47z M69.22,116.47c0-21.847,17.774-39.621,39.621-39.621
				s39.621,17.774,39.621,39.621s-17.774,39.62-39.621,39.62S69.22,138.317,69.22,116.47z"/>
			<path style="fill:#333333;" d="M109.708,41.501c5.523,0,10-4.477,10-10V17.629c0-5.523-4.477-10-10-10s-10,4.477-10,10v13.873
				C99.708,37.024,104.185,41.501,109.708,41.501z"/>
			<path style="fill:#333333;" d="M42.301,62.846c1.953,1.953,4.512,2.929,7.071,2.929s5.119-0.976,7.071-2.929
				c3.905-3.905,3.905-10.237,0-14.143l-9.809-9.809c-3.905-3.905-10.237-3.905-14.143,0s-3.905,10.237,0,14.143L42.301,62.846z"/>
			<path style="fill:#333333;" d="M33.873,115.603c0-5.523-4.477-10-10-10H10c-5.523,0-10,4.477-10,10s4.477,10,10,10h13.873
				C29.396,125.603,33.873,121.126,33.873,115.603z"/>
			<path style="fill:#333333;" d="M17.049,192.894l-1.533,1.533c-3.905,3.905-3.905,10.237,0,14.143
				c1.953,1.953,4.512,2.929,7.071,2.929s5.119-0.976,7.071-2.929l1.533-1.533c3.905-3.905,3.905-10.237,0-14.143
				C27.286,188.988,20.954,188.988,17.049,192.894z"/>
			<path style="fill:#333333;" d="M41.075,168.868l-4.615,4.615c-3.905,3.905-3.905,10.237,0,14.143
				c1.953,1.953,4.512,2.929,7.071,2.929s5.119-0.976,7.071-2.929l4.615-4.615c3.905-3.905,3.905-10.237,0-14.143
				S44.98,164.962,41.075,168.868z"/>
			<path style="fill:#333333;" d="M97.974,201.438v13.873c0,5.523,4.477,10,10,10s10-4.477,10-10v-13.873c0-5.523-4.477-10-10-10
				S97.974,195.916,97.974,201.438z"/>
			<path style="fill:#333333;" d="M175.38,170.094c-3.905-3.905-10.237-3.905-14.142,0s-3.905,10.237,0,14.142l9.81,9.809
				c1.953,1.953,4.512,2.929,7.071,2.929s5.119-0.977,7.071-2.929c3.905-3.905,3.905-10.237,0-14.142L175.38,170.094z"/>
			<path style="fill:#333333;" d="M183.81,117.337c0,5.523,4.477,10,10,10h13.872c5.523,0,10-4.477,10-10s-4.477-10-10-10H193.81
				C188.287,107.337,183.81,111.814,183.81,117.337z"/>
			<path style="fill:#333333;" d="M193.702,42.835c2.559,0,5.119-0.976,7.071-2.929l1.936-1.936c3.905-3.905,3.905-10.237,0-14.143
				c-3.905-3.905-10.237-3.905-14.143,0l-1.936,1.936c-3.905,3.905-3.905,10.237,0,14.143
				C188.583,41.859,191.143,42.835,193.702,42.835z"/>
			<path style="fill:#333333;" d="M169.536,67.001c2.559,0,5.119-0.976,7.071-2.929l4.615-4.615c3.905-3.905,3.905-10.237,0-14.143
				c-3.905-3.905-10.237-3.905-14.143,0l-4.615,4.615c-3.905,3.905-3.905,10.237,0,14.143
				C164.417,66.025,166.977,67.001,169.536,67.001z"/>
			<path style="fill:#333333;" d="M492,494.371c5.523,0,10-4.477,10-10V350.297c0-15.901-5.645-31.352-15.894-43.508
				c-12.746-15.118-31.397-23.86-51.236-23.987h-0.058h-0.046c-0.182-0.001-0.363-0.001-0.545,0H150.12
				c-19.854-0.186-38.715,8.356-51.695,23.402l-0.321,0.372c-10.504,12.176-16.312,27.716-16.384,43.79
				c-0.001,0.045-0.007,0.089-0.007,0.134v133.871c0,5.523,4.477,10,10,10L492,494.371L492,494.371z M113.567,319.27
				c9.043-10.482,22.129-16.47,36.044-16.47c0.14,0,0.281,0,0.421,0.002h236.509l0.032-0.006c-1.09,1.101-2.158,2.227-3.177,3.408
				l-0.321,0.372c-8.331,9.657-13.7,21.44-15.604,33.924H102.819c1.68-7.66,5.238-14.844,10.427-20.858L113.567,319.27z
				 M101.712,360.664l264.973-0.101v113.808H101.712V360.664z M419.253,474.371v-60.678h31.716v60.678H419.253z M482,474.371h-11.03
				v-70.678c0-5.523-4.477-10-10-10h-51.716c-5.523,0-10,4.477-10,10v70.678h-12.568V350.778c0-0.031,0.001-0.061,0.001-0.083
				c0-0.039,0.001-0.078,0.001-0.116c0.021-11.355,4.117-22.343,11.531-30.937l0.321-0.372c9.083-10.53,22.256-16.555,36.226-16.468
				h0.04c13.916,0.089,27.041,6.241,36.009,16.878l0,0c7.212,8.554,11.185,19.427,11.185,30.616L482,474.371L482,474.371z"/>
			<path style="fill:#333333;" d="M260.309,378.178H127.914c-5.523,0-10,4.477-10,10s4.477,10,10,10h132.395c5.523,0,10-4.477,10-10
				S265.832,378.178,260.309,378.178z"/>
			<path style="fill:#333333;" d="M325.472,378.178h-23.79c-5.523,0-10,4.477-10,10s4.477,10,10,10h23.79c5.523,0,10-4.477,10-10
				S330.995,378.178,325.472,378.178z"/>
		</g>
	</g>
</g>
<g>
</g>
<g>
</g>
<g>
</g>
<g>
</g>
<g>
</g>
<g>
</g>
<g>
</g>
<g>
</g>
<g>
</g>
<g>
</g>
<g>
</g>
<g>
</g>
<g>
</g>
<g>
</g>
<g>
</g>
</svg>
