<?xml version="1.0" encoding="iso-8859-1"?>
<!-- Generator: Adobe Illustrator 18.0.0, SVG Export Plug-In . SVG Version: 6.00 Build 0)  -->
<!DOCTYPE svg PUBLIC "-//W3C//DTD SVG 1.1//EN" "http://www.w3.org/Graphics/SVG/1.1/DTD/svg11.dtd">
<svg version="1.1" id="Capa_1" xmlns="http://www.w3.org/2000/svg" xmlns:xlink="http://www.w3.org/1999/xlink" x="0px" y="0px"
	 viewBox="0 0 186 186" style="enable-background:new 0 0 186 186;" xml:space="preserve">
<path d="M64.054,47.665c4.249,4.249,4.249,11.136,0,15.385c-4.248,4.249-11.136,4.249-15.385,0c-4.248-4.248-4.248-11.136,0-15.385
	C52.917,43.416,59.805,43.416,64.054,47.665z M186,161.667C186,175.106,175.106,186,161.667,186H24.333
	C10.894,186,0,175.106,0,161.667V24.333C0,10.894,10.894,0,24.333,0h137.333C175.106,0,186,10.894,186,24.333V161.667z
	 M148.582,107.168L79.505,38.091c-1.481-1.481-3.483-2.325-5.578-2.35l-30.426-0.368c-4.326-0.052-7.847,3.468-7.795,7.795
	l0.368,30.426c0.025,2.095,0.869,4.097,2.35,5.578l69.077,69.077c3.172,3.172,8.314,3.172,11.486,0l29.595-29.595
	C151.754,115.482,151.754,110.34,148.582,107.168z"/>
<g>
</g>
<g>
</g>
<g>
</g>
<g>
</g>
<g>
</g>
<g>
</g>
<g>
</g>
<g>
</g>
<g>
</g>
<g>
</g>
<g>
</g>
<g>
</g>
<g>
</g>
<g>
</g>
<g>
</g>
</svg>
