<?xml version="1.0" encoding="iso-8859-1"?>
<!-- Generator: Adobe Illustrator 18.0.0, SVG Export Plug-In . SVG Version: 6.00 Build 0)  -->
<!DOCTYPE svg PUBLIC "-//W3C//DTD SVG 1.1//EN" "http://www.w3.org/Graphics/SVG/1.1/DTD/svg11.dtd">
<svg version="1.1" id="Capa_1" xmlns="http://www.w3.org/2000/svg" xmlns:xlink="http://www.w3.org/1999/xlink" x="0px" y="0px"
	 viewBox="0 0 186 186" style="enable-background:new 0 0 186 186;" xml:space="preserve">
<path d="M186,24.333C186,10.894,175.106,0,161.667,0H24.333C10.894,0,0,10.894,0,24.333v137.333C0,175.106,10.894,186,24.333,186
	h137.333C175.106,186,186,175.106,186,161.667V24.333z M88.802,137.052c-0.091,0.747-0.227,1.329-0.409,1.802
	c-0.182,0.474-0.419,0.756-0.71,0.955C87.391,140.01,87.063,140,86.7,140H46.08c-0.801,0-1.493,0.036-2.075-0.109
	c-0.582-0.146-1.056-0.319-1.42-0.737c-0.364-0.418-0.627-1.029-0.792-1.829c-0.163-0.801-0.246-1.838-0.246-3.112
	c0-1.201,0.055-2.229,0.164-3.085c0.109-0.855,0.309-1.619,0.6-2.293c0.291-0.673,0.664-1.328,1.119-1.965
	c0.455-0.636,1.046-1.337,1.774-2.102l12.23-13.103c2.439-2.547,4.404-4.868,5.897-6.962c1.492-2.092,2.657-4.003,3.495-5.732
	c0.836-1.729,1.41-3.322,1.72-4.777c0.309-1.456,0.464-2.84,0.464-4.15c0-1.201-0.191-2.338-0.574-3.412
	c-0.382-1.073-0.947-2.01-1.693-2.812c-0.746-0.8-1.684-1.428-2.812-1.883c-1.128-0.455-2.456-0.683-3.985-0.683
	c-2.148,0-4.05,0.273-5.706,0.819c-1.657,0.546-3.112,1.156-4.367,1.829c-1.256,0.674-2.303,1.292-3.139,1.856
	c-0.838,0.564-1.493,0.846-1.966,0.846c-0.328,0-0.61-0.109-0.846-0.328c-0.238-0.218-0.429-0.582-0.573-1.092
	c-0.146-0.509-0.265-1.192-0.355-2.047c-0.091-0.854-0.137-1.902-0.137-3.139c0-0.836,0.028-1.537,0.083-2.102
	c0.055-0.564,0.136-1.055,0.245-1.475c0.109-0.417,0.255-0.782,0.437-1.091c0.182-0.309,0.5-0.683,0.956-1.119
	c0.454-0.437,1.292-0.992,2.511-1.666c1.219-0.673,2.72-1.328,4.504-1.965c1.782-0.636,3.748-1.174,5.896-1.611
	c2.147-0.436,4.386-0.655,6.716-0.655c3.675,0,6.887,0.466,9.636,1.394c2.747,0.928,5.031,2.222,6.851,3.878
	c1.82,1.657,3.175,3.625,4.068,5.9c0.891,2.275,1.337,4.729,1.337,7.35c0,2.293-0.218,4.563-0.655,6.783
	c-0.437,2.22-1.347,4.639-2.73,7.205c-1.383,2.567-3.33,5.457-5.842,8.568c-2.511,3.112-5.842,6.828-9.992,10.941L58.637,129h27.845
	c0.364,0,0.7-0.096,1.01,0.122c0.309,0.219,0.573,0.35,0.792,0.805c0.219,0.455,0.382,1.049,0.492,1.794
	c0.109,0.747,0.163,1.623,0.163,2.642C88.938,135.419,88.893,136.306,88.802,137.052z M142.963,127.524
	c-1.329,3.003-3.203,5.533-5.624,7.589c-2.421,2.057-5.333,3.63-8.735,4.723c-3.404,1.092-7.18,1.638-11.329,1.638
	c-2.184,0-4.259-0.137-6.225-0.409c-1.966-0.273-3.731-0.619-5.295-1.038c-1.566-0.418-2.849-0.836-3.849-1.256
	c-1.001-0.418-1.657-0.765-1.966-1.038c-0.31-0.273-0.537-0.573-0.683-0.901c-0.145-0.328-0.264-0.718-0.355-1.174
	c-0.091-0.454-0.155-1.028-0.191-1.72c-0.037-0.691-0.055-1.51-0.055-2.456c0-1.019,0.036-1.884,0.109-2.594
	c0.073-0.71,0.191-1.283,0.354-1.72c0.164-0.437,0.355-0.746,0.574-0.929c0.218-0.181,0.472-0.273,0.765-0.273
	c0.363,0,0.918,0.21,1.665,0.628c0.746,0.419,1.729,0.883,2.948,1.392c1.219,0.511,2.702,0.975,4.45,1.392
	c1.747,0.419,3.839,0.628,6.279,0.628c2.111,0,4.031-0.218,5.76-0.655c1.729-0.437,3.194-1.137,4.395-2.102
	c1.202-0.964,2.13-2.175,2.785-3.631c0.655-1.455,0.983-3.202,0.983-5.241c0-1.747-0.273-3.303-0.82-4.668
	c-0.546-1.365-1.403-2.52-2.567-3.467c-1.166-0.946-2.677-1.656-4.533-2.129c-1.857-0.473-4.117-0.71-6.774-0.71
	c-2.111,0-4.038,0.109-5.767,0.328c-1.729,0.218-3.371,0.328-4.9,0.328c-1.056,0-2.005-0.264-2.46-0.792
	c-0.456-0.528-0.903-1.501-0.903-2.921V73.664c0-1.455,0.502-2.287,1.067-2.924c0.564-0.636,1.686-0.74,2.923-0.74h33.468
	c0.328,0,0.636-0.102,0.928,0.117c0.291,0.218,0.537,0.354,0.738,0.826c0.199,0.474,0.346,1.111,0.436,1.893
	c0.091,0.783,0.136,1.739,0.136,2.83c0,2.184-0.191,3.804-0.573,4.787c-0.382,0.983-0.938,1.547-1.666,1.547H113v14.977
	c1-0.145,2.711-0.236,3.966-0.273c1.256-0.036,2.663-0.055,4.047-0.055c3.822,0,7.257,0.447,10.224,1.338
	c2.966,0.892,5.481,2.202,7.501,3.931c2.02,1.729,3.567,3.876,4.624,6.442c1.055,2.566,1.588,5.542,1.588,8.927
	C144.95,121.109,144.291,124.521,142.963,127.524z M148.333,55h-111c-4.143,0-7.5-3.357-7.5-7.5s3.357-7.5,7.5-7.5h111
	c4.143,0,7.5,3.357,7.5,7.5S152.476,55,148.333,55z"/>
<g>
</g>
<g>
</g>
<g>
</g>
<g>
</g>
<g>
</g>
<g>
</g>
<g>
</g>
<g>
</g>
<g>
</g>
<g>
</g>
<g>
</g>
<g>
</g>
<g>
</g>
<g>
</g>
<g>
</g>
</svg>
