<?xml version="1.0" encoding="iso-8859-1"?>
<!-- Generator: Adobe Illustrator 19.0.0, SVG Export Plug-In . SVG Version: 6.00 Build 0)  -->
<svg version="1.1" id="Layer_1" xmlns="http://www.w3.org/2000/svg" xmlns:xlink="http://www.w3.org/1999/xlink" x="0px" y="0px"
	 viewBox="0 0 512 512" style="enable-background:new 0 0 512 512;" xml:space="preserve">
<g>
	<g>
		<path d="M256,222.33c-13.851,0-25.119,11.268-25.119,25.119s11.268,25.119,25.119,25.119s25.119-11.268,25.119-25.119
			S269.851,222.33,256,222.33z M256,256.534c-5.01,0-9.086-4.076-9.086-9.086s4.076-9.086,9.086-9.086s9.086,4.076,9.086,9.086
			S261.01,256.534,256,256.534z"/>
	</g>
</g>
<g>
	<g>
		<path d="M315.591,144.249c-1.843-1.066-4.032-1.355-6.086-0.806c-2.055,0.55-3.808,1.894-4.872,3.737l-29.943,51.863
			c-2.213,3.832-0.902,8.731,2.928,10.948c13.368,7.733,21.673,22.088,21.673,37.458c0,4.427,3.589,8.017,8.017,8.017h59.858
			c4.427,0,8.017-3.589,8.017-8.017C375.182,205.062,352.348,165.518,315.591,144.249z M314.772,239.432
			c-2.115-15.321-10.213-29.324-22.464-38.837l22.042-38.177c25.62,17.63,42.047,46.07,44.484,77.014H314.772z"/>
	</g>
</g>
<g>
	<g>
		<path d="M237.309,199.043l-29.943-51.863c-1.064-1.843-2.817-3.186-4.872-3.737s-4.245-0.259-6.086,0.806
			c-36.756,21.269-59.59,60.813-59.59,103.2c0,4.427,3.589,8.017,8.017,8.017h59.858c4.427,0,8.017-3.589,8.017-8.017
			c0-15.37,8.304-29.724,21.672-37.459C238.211,207.774,239.522,202.874,237.309,199.043z M197.228,239.432h-44.062
			c2.436-30.943,18.864-59.383,44.484-77.014l22.042,38.177C207.441,210.109,199.342,224.111,197.228,239.432z"/>
	</g>
</g>
<g>
	<g>
		<path d="M318.519,339.7l-29.943-51.862c-1.064-1.843-2.817-3.186-4.872-3.737c-2.053-0.549-4.244-0.26-6.086,0.806
			c-6.592,3.814-14.068,5.831-21.618,5.831c-7.552,0-15.028-2.016-21.618-5.83c-1.842-1.066-4.033-1.355-6.086-0.806
			c-2.055,0.55-3.808,1.894-4.872,3.737l-29.942,51.863c-2.213,3.832-0.902,8.731,2.928,10.948
			C214.48,361.104,235.086,366.63,256,366.63c20.914,0,41.52-5.526,59.591-15.983C319.421,348.432,320.731,343.532,318.519,339.7z
			 M256,350.597c-15.416,0-30.637-3.47-44.471-10.088l22.04-38.174c7.112,2.917,14.74,4.437,22.432,4.437
			c7.691,0,15.319-1.52,22.432-4.438l22.041,38.175C286.637,347.127,271.416,350.597,256,350.597z"/>
	</g>
</g>
<g>
	<g>
		<path d="M452.676,495.967h-9.086V16.033h9.086c4.427,0,8.017-3.589,8.017-8.017c0-4.427-3.589-8.017-8.017-8.017H59.324
			c-4.427,0-8.017,3.589-8.017,8.017c0,4.427,3.589,8.017,8.017,8.017h9.086v479.933h-9.086c-4.427,0-8.017,3.589-8.017,8.017
			c0,4.427,3.589,8.017,8.017,8.017h393.353c4.427,0,8.017-3.589,8.017-8.017C460.693,499.556,457.104,495.967,452.676,495.967z
			 M427.557,495.967H84.443v-18.171h343.115V495.967z M427.557,461.762H84.443V50.238h343.115V461.762z M427.557,34.205H84.443
			V16.033h343.115V34.205z"/>
	</g>
</g>
<g>
</g>
<g>
</g>
<g>
</g>
<g>
</g>
<g>
</g>
<g>
</g>
<g>
</g>
<g>
</g>
<g>
</g>
<g>
</g>
<g>
</g>
<g>
</g>
<g>
</g>
<g>
</g>
<g>
</g>
</svg>
