<?xml version="1.0" encoding="iso-8859-1"?>
<!-- Generator: Adobe Illustrator 19.0.0, SVG Export Plug-In . SVG Version: 6.00 Build 0)  -->
<svg version="1.1" id="Layer_1" xmlns="http://www.w3.org/2000/svg" xmlns:xlink="http://www.w3.org/1999/xlink" x="0px" y="0px"
	 viewBox="0 0 512.001 512.001" style="enable-background:new 0 0 512.001 512.001;" xml:space="preserve">
<path style="fill:#F1EDE8;" d="M8.865,367.654c0-75.308,61.05-221.58,136.357-221.58s136.357,146.273,136.357,221.58
	s-61.05,136.357-136.357,136.357S8.865,442.962,8.865,367.654z"/>
<path style="fill:#F36280;" d="M145.222,504.011c73.403,0,133.25-58.003,136.23-130.673c-1.443-17.497-16.092-31.251-33.963-31.251
	c-18.827,0-34.089,15.262-34.089,34.089V282.43c0-18.827-15.262-34.089-34.089-34.089s-34.089,15.262-34.089,34.089v-34.089
	c0-18.827-15.262-34.089-34.089-34.089s-34.089,15.262-34.089,34.089v119.313c0-18.827-15.262-34.089-34.089-34.089
	S8.865,348.827,8.865,367.654C8.865,442.962,69.914,504.011,145.222,504.011z"/>
<path style="fill:#E05161;" d="M187.833,495.489c-75.308,0-136.357-61.05-136.357-136.357c0-8.152,2.865-15.632,7.638-21.498
	c-4.81-2.595-10.312-4.069-16.16-4.069c-18.827,0-34.089,15.262-34.089,34.089c0,75.308,61.05,136.357,136.357,136.357
	c16.827,0,32.939-3.056,47.819-8.631C191.313,495.446,189.578,495.489,187.833,495.489z"/>
<path style="fill:#90BF2C;" d="M498.161,53.806l-16.595-16.595c-5.728-5.728-14.695-6.643-21.451-2.171
	c-69.424,45.947-135.324,96.89-208.886,188.842c-22.935,28.668-42.886,57.012-60.262,84.367l36.157,36.157
	c27.355-17.376,55.699-37.327,84.367-60.262c91.952-73.563,142.895-139.464,188.842-208.886
	C504.804,68.502,503.89,59.535,498.161,53.806z"/>
<path style="fill:#72A938;" d="M498.162,53.806l-12.407-12.407c-0.426,2.082-1.235,4.112-2.466,5.972
	c-45.947,69.424-96.89,135.324-188.842,208.886c-28.668,22.935-57.012,42.886-84.367,60.262l-14.875-14.875
	c-1.427,2.206-2.843,4.409-4.238,6.604l36.157,36.157c27.355-17.376,55.699-37.327,84.367-60.262
	c91.952-73.563,142.895-139.464,188.842-208.886C504.804,68.501,503.89,59.535,498.162,53.806z"/>
<path style="fill:#F1EDE8;" d="M130.705,320.3c23.297-23.297,61.07-23.297,84.367,0c23.297,23.297,23.297,61.07,0,84.367
	c-23.297,23.297-132.576,48.21-132.576,48.21S107.408,343.598,130.705,320.3z"/>
<g>
	<path style="fill:#F9C900;" d="M148.77,434.812l29.54-29.541c6.656-6.656,6.656-17.448,0-24.104
		c-6.656-6.656-17.448-6.656-24.104,0l18.079-18.079c6.656-6.656,6.656-17.448,0-24.104c-6.656-6.656-17.448-6.656-24.104,0
		l-47.618,47.618c-10.59,33.485-18.065,66.275-18.065,66.275S115.285,445.402,148.77,434.812z"/>
	<path style="fill:#F9C900;" d="M206.108,29.07c7.197,17.397-2.177,83.907-2.177,83.907s-53.625-40.446-60.823-57.842
		c-7.197-17.397,1.071-37.334,18.468-44.532S198.911,11.673,206.108,29.07z"/>
</g>
<circle style="fill:#FFF2BA;" cx="179.31" cy="35.283" r="8.522"/>
<path style="fill:#F9AA0C;" d="M164.727,45.619c-5.506-13.311-1.953-28.101,7.81-37.543c-3.672,0.224-7.37,1.041-10.96,2.526
	c-17.397,7.197-25.665,27.135-18.467,44.532c7.197,17.397,60.823,57.842,60.823,57.842s1.491-10.587,2.828-24.415
	C190.557,75.219,169.095,56.177,164.727,45.619z"/>
<path style="fill:#F9C900;" d="M313.855,96.737c-14.335,12.205-80.5,23.769-80.5,23.769s21.965-63.474,36.3-75.679
	c14.335-12.205,35.85-10.479,48.055,3.856C329.917,63.018,328.191,84.532,313.855,96.737z"/>
<circle style="fill:#FFF2BA;" cx="290.1" cy="60.85" r="8.522"/>
<path style="fill:#F9AA0C;" d="M317.711,48.683c-0.843-0.99-1.733-1.912-2.659-2.781c2.226,11.654-1.695,24.141-11.374,32.383
	c-9.447,8.043-41.399,15.807-62.095,20.167c-4.905,12.452-8.227,22.056-8.227,22.056s66.164-11.564,80.5-23.769
	C328.192,84.533,329.917,63.018,317.711,48.683z"/>
<g>
	<circle style="fill:#F9C900;" cx="204.877" cy="452.877" r="17.045"/>
	<circle style="fill:#F9C900;" cx="238.966" cy="410.265" r="17.045"/>
	<circle style="fill:#F9C900;" cx="136.698" cy="452.877" r="17.045"/>
	<circle style="fill:#F9C900;" cx="68.52" cy="393.221" r="17.045"/>
</g>
<path d="M503.811,48.157l-16.595-16.595c-8.381-8.382-21.634-9.721-31.51-3.185c-74.291,49.17-138.528,100.349-210.476,190.217
	c-19.112-33.735-53.928-80.51-100.008-80.51c-29.185,0-58.449,19.438-84.63,56.214c-2.558,3.595-1.718,8.583,1.876,11.142
	c3.595,2.56,8.583,1.719,11.143-1.875c16.076-22.583,41.551-49.502,71.612-49.502c30.153,0,62.575,28.455,89.292,78.198
	c-6.834,8.863-13.541,17.863-20.083,26.989c-7.668-11.597-20.78-18.898-35.119-18.898c-9.851,0-18.922,3.403-26.1,9.094v-1.105
	c0-23.202-18.877-42.079-42.079-42.079s-42.079,18.877-42.079,42.079v86.328c-7.178-5.692-16.249-9.094-26.1-9.094
	c-8.229,0-15.907,2.383-22.399,6.483c5.687-30.549,17.559-65.447,33.008-95.33c2.026-3.92,0.492-8.741-3.428-10.766
	c-3.921-2.028-8.74-0.492-10.766,3.428C15.985,274.622,0.875,328.894,0.875,367.654c0,79.593,64.754,144.347,144.347,144.347
	c6.215,0,12.435-0.401,18.599-1.195c30.542-3.923,58.959-17.466,81.465-39.122c21.28-20.478,35.527-46.503,41.331-74.909
	c1.979-9.56,2.952-19.36,2.952-29.12c0-14.879-2.304-32.681-6.663-51.634c11.405-8.326,22.625-16.876,33.578-25.638
	c44.66-35.73,82.715-72.096,116.336-111.176c2.877-3.345,2.499-8.389-0.846-11.268c-3.345-2.877-8.389-2.499-11.268,0.846
	c-32.97,38.323-70.327,74.015-114.206,109.121c-23.544,18.835-48.295,36.726-73.639,53.279c-3.102-5.954-7.146-11.54-12.138-16.532
	c-4.938-4.938-10.509-9.006-16.523-12.155c16.549-25.339,34.438-50.086,53.269-73.624
	c70.745-88.429,133.938-138.778,207.057-187.171c3.569-2.362,8.36-1.874,11.39,1.158l16.595,16.595
	c3.033,3.033,3.521,7.823,1.159,11.391c-15.997,24.17-30.093,44.095-44.363,62.701c-2.686,3.502-2.023,8.517,1.478,11.202
	c3.504,2.688,8.518,2.023,11.203-1.478c14.501-18.908,28.802-39.12,45.007-63.606C513.532,69.79,512.192,56.539,503.811,48.157z
	 M271.52,341.729c-4.606-3.231-9.872-5.558-15.518-6.741c4.277-2.905,8.529-5.854,12.762-8.83
	C269.868,331.499,270.79,336.704,271.52,341.729z M209.423,399.018c-5.341,5.341-16.415,11.021-30.098,16.539l4.635-4.635
	c4.729-4.729,7.333-11.015,7.333-17.703c0-6.688-2.604-12.974-7.332-17.702c-2.225-2.225-4.796-3.98-7.591-5.215l1.566-1.565
	c9.76-9.761,9.76-25.643-0.001-35.404c-9.76-9.759-25.642-9.76-35.404,0l-22.712,22.712c5.516-13.681,11.196-24.754,16.538-30.096
	c9.758-9.759,22.733-15.134,36.534-15.134c13.8,0,26.775,5.374,36.533,15.134C229.567,346.095,229.567,378.873,209.423,399.018z
	 M148.557,386.817c3.119,3.121,8.178,3.12,11.298,0c3.494-3.494,9.311-3.483,12.806,0c3.495,3.485,3.486,9.32-0.001,12.806
	l-28.156,28.156c-19.665,6.155-39.032,11.232-51.173,14.263c3.025-12.126,8.095-31.463,14.247-51.121
	c0.005-0.018,0.011-0.035,0.016-0.053l46.234-46.234c3.529-3.529,9.277-3.531,12.806,0c3.53,3.53,3.53,9.275,0,12.806
	l-18.079,18.079C145.436,378.638,145.436,383.697,148.557,386.817z M172.889,294.838c-18.069,0-35.057,7.036-47.834,19.813
	c-24.226,24.226-47.746,125.035-50.35,136.45c-1.288,5.638,3.931,10.85,9.565,9.565c11.416-2.602,112.225-26.123,136.451-50.35
	c16.035-16.035,22.302-38.182,18.84-59.011c2.549-0.813,5.206-1.23,7.928-1.23c13.316,0,24.627,10.264,25.957,23.452
	c-0.206,4.576-0.65,9.15-1.344,13.678c-9.269,60.391-60.778,107.048-123.316,108.762c-0.092,0.002-0.182,0.007-0.274,0.01
	c-1.094,0.028-2.191,0.042-3.292,0.042c-70.782,0-128.368-57.585-128.368-128.368c0-14.391,11.708-26.1,26.1-26.1
	s26.1,11.709,26.1,26.1c0,4.412,3.576,7.99,7.99,7.99c4.413,0,7.99-3.577,7.99-7.99V248.339c0-14.391,11.708-26.1,26.1-26.1
	s26.1,11.709,26.1,26.1v34.089c0,4.412,3.576,7.99,7.99,7.99c4.413,0,7.99-3.577,7.99-7.99c0-14.391,11.708-26.1,26.1-26.1
	c11.081,0,20.985,7.022,24.643,17.474c0.029,0.081,0.066,0.157,0.096,0.235c-5.171,7.506-10.235,15.075-15.175,22.698
	C183.702,295.491,178.346,294.838,172.889,294.838z"/>
<path d="M199.12,119.356c4.78,3.604,11.89,0.643,12.723-5.264c1.617-11.467,9.293-69.603,1.649-88.077
	c-4.296-10.387-12.381-18.476-22.763-22.782c-10.382-4.306-21.819-4.31-32.206-0.013c-21.439,8.871-31.666,33.529-22.796,54.969
	C143.37,76.663,189.876,112.383,199.12,119.356z M164.631,17.985c13.166-5.447,28.664,1.009,34.095,14.139
	c3.861,9.329,1.843,41.18-0.963,65.941c-19.481-15.54-43.411-36.657-47.27-45.985C144.991,38.782,151.333,23.487,164.631,17.985z"/>
<path d="M233.354,128.496c0.458,0,0.917-0.039,1.376-0.119c11.407-1.994,69.082-12.595,84.305-25.556
	c17.666-15.042,19.801-41.652,4.76-59.319c-15.041-17.666-41.653-19.801-59.319-4.76c-15.223,12.961-34.885,68.207-38.672,79.15
	C224.04,122.997,227.954,128.496,233.354,128.496z M274.837,50.91c4.904-4.174,10.916-6.216,16.9-6.216
	c7.391,0,14.736,3.114,19.891,9.168c9.33,10.959,8.007,27.463-2.952,36.793c-7.687,6.545-38.611,14.436-63.033,19.39
	C254.429,86.725,267.149,57.455,274.837,50.91z"/>
<g>
</g>
<g>
</g>
<g>
</g>
<g>
</g>
<g>
</g>
<g>
</g>
<g>
</g>
<g>
</g>
<g>
</g>
<g>
</g>
<g>
</g>
<g>
</g>
<g>
</g>
<g>
</g>
<g>
</g>
</svg>
