<?xml version="1.0" encoding="iso-8859-1"?>
<!-- Generator: Adobe Illustrator 19.0.0, SVG Export Plug-In . SVG Version: 6.00 Build 0)  -->
<svg version="1.1" id="Layer_1" xmlns="http://www.w3.org/2000/svg" xmlns:xlink="http://www.w3.org/1999/xlink" x="0px" y="0px"
	 viewBox="0 0 512 512" style="enable-background:new 0 0 512 512;" xml:space="preserve">
<path style="fill:#F7603E;" d="M265.405,88.706c-136.191,0-246.596,72.237-246.596,161.345c0,20.394,5.799,39.899,16.35,57.861
	L1.172,398.465c-2.533,6.747-0.886,14.352,4.209,19.448c5.095,5.095,12.701,6.742,19.447,4.209l102.381-38.427
	c39.42,17.485,86.982,27.7,138.194,27.7c136.191,0,246.596-72.237,246.596-161.345C512,160.943,401.596,88.706,265.405,88.706z"/>
<path style="fill:#F53000;" d="M265.405,88.706L265.405,88.706v322.691l0,0C401.596,411.397,512,339.16,512,250.051
	S401.596,88.706,265.405,88.706z"/>
<g>
	<path style="fill:#FFFFFF;" d="M180.864,273.959c0-14.727-38.581-12.171-38.581-40.65c0-18.255,15.943-25.193,31.157-25.193
		c6.45,0,24.22,1.217,24.22,10.71c0,3.286-2.191,9.98-7.546,9.98c-4.381,0-6.694-4.625-16.673-4.625
		c-8.641,0-12.171,3.529-12.171,7.302c0,12.171,38.581,9.858,38.581,40.528c0,17.526-12.779,27.019-30.427,27.019
		c-15.943,0-29.331-7.79-29.331-15.822c0-4.138,3.651-10.223,8.276-10.223c5.72,0,9.371,9.006,20.691,9.006
		C174.657,281.992,180.864,279.801,180.864,273.959z"/>
	<path style="fill:#FFFFFF;" d="M203.139,290.024c0-0.365,0.122-0.852,0.243-1.338l22.637-74.241
		c1.338-4.259,6.815-6.329,12.414-6.329c5.599,0,11.075,2.069,12.414,6.329l22.759,74.241c0.122,0.487,0.243,0.973,0.243,1.338
		c0,4.504-6.937,7.79-12.171,7.79c-3.043,0-5.477-0.973-6.207-3.529l-4.139-15.213h-25.68l-4.139,15.213
		c-0.73,2.556-3.164,3.529-6.207,3.529C210.077,297.814,203.139,294.528,203.139,290.024z M247.319,264.466l-8.885-32.617
		l-8.885,32.617H247.319z"/>
	<path style="fill:#FFFFFF;" d="M289.19,297.814c-4.139,0-8.276-1.948-8.276-5.842v-77.406c0-4.016,4.746-5.72,9.493-5.72
		c4.746,0,9.493,1.703,9.493,5.72v66.696h27.749c3.651,0,5.477,4.138,5.477,8.276c0,4.138-1.826,8.276-5.477,8.276H289.19V297.814z"
		/>
	<path style="fill:#FFFFFF;" d="M359.783,245.966h18.255c3.651,0,5.72,3.529,5.72,7.424c0,3.286-1.703,7.18-5.72,7.18h-18.255
		v20.691H392.4c3.651,0,5.72,3.894,5.72,8.397c0,3.894-1.703,8.155-5.72,8.155h-43.327c-4.138,0-8.276-1.948-8.276-5.842v-77.284
		c0-3.894,4.139-5.842,8.276-5.842h43.328c4.017,0,5.72,4.259,5.72,8.154c0,4.504-2.069,8.398-5.72,8.398h-32.617v20.57H359.783z"/>
</g>
<g>
</g>
<g>
</g>
<g>
</g>
<g>
</g>
<g>
</g>
<g>
</g>
<g>
</g>
<g>
</g>
<g>
</g>
<g>
</g>
<g>
</g>
<g>
</g>
<g>
</g>
<g>
</g>
<g>
</g>
</svg>
