<?xml version="1.0" encoding="iso-8859-1"?>
<!-- Generator: Adobe Illustrator 19.0.0, SVG Export Plug-In . SVG Version: 6.00 Build 0)  -->
<svg version="1.1" id="Layer_1" xmlns="http://www.w3.org/2000/svg" xmlns:xlink="http://www.w3.org/1999/xlink" x="0px" y="0px"
	 viewBox="0 0 512 512" style="enable-background:new 0 0 512 512;" xml:space="preserve">
<g>
	<g>
		<path d="M116.173,390.347l-0.017-0.155c-0.609-5.738-5.748-9.849-11.49-9.241c-5.739,0.61-9.892,5.801-9.282,11.54l0.017,0.155
			c0.569,5.359,5.093,9.301,10.363,9.301c0.372,0,0.748-0.02,1.126-0.06C112.63,401.277,116.782,396.085,116.173,390.347z"/>
	</g>
</g>
<g>
	<g>
		<path d="M105.489,245.794c-5.771,0-10.449,4.678-10.449,10.449v101.249c0,5.771,4.678,10.449,10.449,10.449
			c5.771,0,10.449-4.678,10.449-10.449V256.243C115.938,250.472,111.26,245.794,105.489,245.794z"/>
	</g>
</g>
<g>
	<g>
		<path d="M255.999,0C139.591,0,44.885,94.705,44.885,211.114v217.884c0,45.768,37.235,83.001,83.004,83.001h256.223
			c45.768,0,83.004-37.235,83.004-83.001V211.114C467.114,94.705,372.408,0,255.999,0z M242.225,21.401
			c4.551-0.328,9.142-0.503,13.775-0.503c4.633,0,9.224,0.174,13.775,0.502c62.681,6.913,111.613,60.402,111.613,124.885
			c0,69.14-56.249,125.389-125.388,125.389s-125.388-56.249-125.388-125.389C130.612,81.802,179.543,28.313,242.225,21.401z
			 M446.216,428.999c0,34.244-27.86,62.104-62.106,62.104H127.889c-34.244,0-62.106-27.86-62.106-62.104V211.114
			c0-58.749,26.776-111.358,68.761-146.277c-15.672,23.295-24.83,51.321-24.83,81.448c0,80.663,65.624,146.287,146.286,146.287
			s146.286-65.624,146.286-146.287c0-30.126-9.157-58.153-24.83-81.448c41.984,34.919,68.761,87.529,68.761,146.277V428.999z"/>
	</g>
</g>
<g>
	<g>
		<path d="M339.685,389.748c0-12.031-6.491-22.451-16.244-27.939c3.012-10.778,0.236-22.734-8.267-31.239
			c-6.052-6.049-14.095-9.381-22.649-9.381c-2.928,0-5.804,0.394-8.567,1.155c-5.483-9.775-15.913-16.285-27.959-16.285
			c-12.047,0-22.477,6.509-27.959,16.285c-2.762-0.762-5.638-1.155-8.566-1.155c-8.555,0-16.598,3.332-22.652,9.383
			c-8.5,8.503-11.275,20.459-8.263,31.237c-9.753,5.488-16.247,15.908-16.247,27.938c0,12.032,6.492,22.451,16.247,27.938
			c-3.011,10.778-0.236,22.734,8.266,31.239c6.052,6.05,14.097,9.382,22.65,9.382c2.927,0,5.804-0.394,8.566-1.155
			c5.483,9.775,15.912,16.283,27.958,16.283c12.047,0,22.477-6.509,27.958-16.284c2.763,0.761,5.638,1.155,8.566,1.155
			c0.001,0,0.001,0,0.002,0c8.552,0,16.596-3.332,22.65-9.384c8.501-8.504,11.277-20.46,8.264-31.237
			C333.192,412.198,339.685,401.779,339.685,389.748z M307.881,400.911c-4.118,0.114-7.784,2.637-9.362,6.444
			c-1.578,3.807-0.772,8.184,2.057,11.178c4.205,4.45,4.126,11.309-0.176,15.613c-2.106,2.104-4.902,3.263-7.874,3.263h-0.001
			c-2.887,0-5.636-1.096-7.743-3.086c-2.995-2.829-7.372-3.635-11.177-2.056c-3.805,1.578-6.329,5.243-6.443,9.361
			c-0.17,6.117-5.073,10.909-11.164,10.909c-6.09,0-10.993-4.792-11.164-10.909c-0.114-4.118-2.637-7.784-6.443-9.362
			c-1.293-0.536-2.651-0.796-4-0.796c-2.621,0-5.201,0.985-7.178,2.854c-2.105,1.99-4.854,3.085-7.74,3.085
			c-2.974,0-5.771-1.159-7.873-3.261c-4.305-4.306-4.382-11.166-0.178-15.617c2.829-2.995,3.634-7.372,2.056-11.177
			c-1.578-3.806-5.244-6.329-9.362-6.443c-6.117-0.17-10.909-5.073-10.909-11.164c0-6.091,4.791-10.993,10.909-11.164
			c4.118-0.114,7.784-2.637,9.362-6.443c1.578-3.806,0.772-8.183-2.056-11.177c-4.205-4.451-4.127-11.311,0.174-15.614
			c2.104-2.104,4.902-3.263,7.875-3.263c2.887,0,5.636,1.096,7.742,3.086c2.995,2.829,7.371,3.634,11.177,2.056
			c3.805-1.578,6.329-5.243,6.443-9.361c0.17-6.117,5.073-10.909,11.164-10.909c6.09,0,10.993,4.792,11.164,10.909
			c0.114,4.117,2.637,7.783,6.443,9.361c3.807,1.579,8.183,0.773,11.177-2.055c2.107-1.989,4.857-3.086,7.744-3.086
			c2.974,0,5.77,1.159,7.872,3.26c4.305,4.307,4.383,11.166,0.179,15.616c-2.83,2.995-3.635,7.372-2.057,11.178
			c1.578,3.806,5.244,6.329,9.362,6.444c6.117,0.17,10.909,5.073,10.909,11.164C318.79,395.839,313.998,400.74,307.881,400.911z"/>
	</g>
</g>
<g>
	<g>
		<path d="M255.999,348.063c-23.046,0-41.796,18.748-41.796,41.793s18.75,41.794,41.796,41.794s41.796-18.749,41.796-41.794
			C297.795,366.811,279.046,348.063,255.999,348.063z M255.999,410.753c-11.523,0-20.898-9.374-20.898-20.896
			c0-11.521,9.375-20.895,20.898-20.895c11.523,0,20.898,9.374,20.898,20.895C276.897,401.378,267.523,410.753,255.999,410.753z"/>
	</g>
</g>
<g>
</g>
<g>
</g>
<g>
</g>
<g>
</g>
<g>
</g>
<g>
</g>
<g>
</g>
<g>
</g>
<g>
</g>
<g>
</g>
<g>
</g>
<g>
</g>
<g>
</g>
<g>
</g>
<g>
</g>
</svg>
