<?xml version="1.0" encoding="iso-8859-1"?>
<!-- Generator: Adobe Illustrator 19.0.0, SVG Export Plug-In . SVG Version: 6.00 Build 0)  -->
<svg version="1.1" id="Layer_1" xmlns="http://www.w3.org/2000/svg" xmlns:xlink="http://www.w3.org/1999/xlink" x="0px" y="0px"
	 viewBox="0 0 512.001 512.001" style="enable-background:new 0 0 512.001 512.001;" xml:space="preserve">
<g>
	<g>
		<path d="M256.379,184.188h-0.498c-5.768,0-10.445,4.676-10.445,10.445s4.677,10.445,10.445,10.445h0.498
			c5.768,0,10.445-4.676,10.445-10.445S262.148,184.188,256.379,184.188z"/>
	</g>
</g>
<g>
	<g>
		<path d="M172.699,368.289h-0.498c-5.769,0-10.445,4.677-10.445,10.445s4.676,10.445,10.445,10.445h0.498
			c5.768,0,10.445-4.677,10.445-10.445S178.467,368.289,172.699,368.289z"/>
	</g>
</g>
<g>
	<g>
		<path d="M339.799,368.289h-0.498c-5.768,0-10.445,4.677-10.445,10.445s4.677,10.445,10.445,10.445h0.498
			c5.768,0,10.445-4.677,10.445-10.445S345.567,368.289,339.799,368.289z"/>
	</g>
</g>
<g>
	<g>
		<path d="M511.805,376.739c-0.514-67.61-27.067-131.099-74.932-178.962c-48.335-48.336-112.601-74.956-180.959-74.956
			S123.291,149.44,74.956,197.776C26.619,246.111,0,310.378,0,378.735c0,5.768,4.676,10.445,10.445,10.445h0.001h0.001h127.961
			c5.769,0,10.445-4.677,10.445-10.445s-4.676-10.445-10.445-10.445h-19.201c0.351-13.746,1.394-27.275,3.102-40.476h75.125
			c-0.69,16.575-1.047,33.614-1.047,50.922c0,5.768,4.676,10.445,10.445,10.445c5.768,0,10.445-4.677,10.445-10.445
			c0-17.309,0.364-34.356,1.065-50.922h75.141c0.703,16.566,1.066,33.613,1.066,50.922c0,5.768,4.676,10.445,10.445,10.445
			c5.768,0,10.445-4.677,10.445-10.445c0-17.308-0.357-34.347-1.048-50.922h75.125c1.707,13.201,2.75,26.73,3.102,40.476h-19.031
			c-5.768,0-10.445,4.677-10.445,10.445s4.677,10.445,10.445,10.445h127.963c5.768,0,10.445-4.677,10.445-10.445
			C512,378.052,511.93,377.385,511.805,376.739z M387.635,184.188h-28.854c-7.132-9.956-14.738-18.776-22.74-26.403
			C354.411,164.467,371.718,173.377,387.635,184.188z M255.914,143.727c0.929,0.395,13.583,7.089,25.051,66.479
			c2.121,10.983,4.009,22.822,5.656,35.349h-61.416c1.647-12.526,3.536-24.365,5.657-35.349
			C242.331,150.818,254.987,144.122,255.914,143.727z M175.787,157.785c-8.002,7.627-15.608,16.447-22.74,26.403h-28.854
			C140.111,173.377,157.418,164.467,175.787,157.785z M98.313,368.289H21.135c0.608-13.834,2.419-27.358,5.328-40.476h74.798
			C99.636,341.051,98.647,354.576,98.313,368.289z M104.395,306.922H32.126c4.541-14.116,10.37-27.659,17.371-40.476h64.457
			C110.066,279.455,106.87,292.989,104.395,306.922z M120.965,245.555H62.379c10.219-14.803,22.08-28.39,35.335-40.476h42.013
			C132.601,217.642,126.333,231.201,120.965,245.555z M198.493,306.922h-72.876c2.633-14.005,6.033-27.549,10.179-40.476h65.95
			C200.424,279.435,199.335,292.969,198.493,306.922z M204.137,245.555h-60.769c5.051-12.445,10.843-24.175,17.351-35.018
			c1.117-1.86,2.252-3.671,3.397-5.458h46.466C208.134,217.587,205.979,231.144,204.137,245.555z M215.193,184.188h-35.654
			c14.458-16.887,30.519-28.773,47.429-35.117C222.664,158.305,218.745,169.985,215.193,184.188z M219.428,306.922
			c0.86-13.976,1.969-27.52,3.321-40.476h66.33c1.352,12.957,2.461,26.5,3.321,40.476H219.428z M296.636,184.188
			c-3.552-14.203-7.473-25.883-11.775-35.117c16.911,6.344,32.972,18.228,47.43,35.117H296.636z M301.246,205.079h46.466
			c1.145,1.787,2.281,3.597,3.397,5.458c6.506,10.844,12.298,22.574,17.351,35.018h-60.769
			C305.849,231.144,303.694,217.587,301.246,205.079z M313.334,306.922c-0.842-13.953-1.93-27.487-3.253-40.476h65.95
			c4.147,12.927,7.546,26.471,10.179,40.476H313.334z M390.863,245.555c-5.369-14.354-11.636-27.913-18.762-40.476h42.013
			c13.255,12.086,25.117,25.673,35.336,40.476H390.863z M397.875,266.446h64.456c7.002,12.818,12.831,26.36,17.372,40.476h-72.269
			C404.958,292.989,401.763,279.455,397.875,266.446z M413.516,368.289c-0.334-13.714-1.323-27.239-2.949-40.476h74.798
			c2.909,13.119,4.72,26.642,5.328,40.476H413.516z"/>
	</g>
</g>
<g>
</g>
<g>
</g>
<g>
</g>
<g>
</g>
<g>
</g>
<g>
</g>
<g>
</g>
<g>
</g>
<g>
</g>
<g>
</g>
<g>
</g>
<g>
</g>
<g>
</g>
<g>
</g>
<g>
</g>
</svg>
