<?xml version="1.0" encoding="iso-8859-1"?>
<!-- Generator: Adobe Illustrator 19.0.0, SVG Export Plug-In . SVG Version: 6.00 Build 0)  -->
<svg version="1.1" id="Layer_1" xmlns="http://www.w3.org/2000/svg" xmlns:xlink="http://www.w3.org/1999/xlink" x="0px" y="0px"
	 viewBox="0 0 97.166 97.166" style="enable-background:new 0 0 97.166 97.166;" xml:space="preserve">
<g>
	<path style="fill:#414042;" d="M58.476,15.301H38.652V0h19.824C58.476,0,58.476,15.301,58.476,15.301z M41.825,12.129h13.478V3.173
		H41.825V12.129z"/>
	<rect x="29.604" y="9.098" style="fill:#FFCC3B;" width="37.958" height="51.934"/>
	<rect x="32.585" y="34.362" style="fill:#E34326;" width="31.996" height="22.59"/>
	<rect x="31.776" y="58.931" style="fill:#FFCC3B;" width="5.978" height="5.512"/>
	<rect x="43.53" y="59.672" style="fill:#FFCC3B;" width="10.104" height="7.659"/>
	<rect x="44.909" y="56.022" style="fill:#E34326;" width="7.347" height="9.678"/>
	<rect x="32.591" y="56.306" style="fill:#E34326;" width="4.347" height="6.962"/>
	<rect x="47.637" y="66.574" style="fill:#FFCC3B;" width="1.891" height="30.592"/>
	<g>
		<g>
			<g>
				<g>
					<rect x="60.018" y="29.304" style="fill:#CED0D1;" width="3.712" height="0.865"/>
				</g>
				<g>
					<rect x="60.018" y="33.202" style="fill:#CED0D1;" width="3.712" height="0.864"/>
				</g>
				<g>
					<rect x="60.018" y="37.1" style="fill:#CED0D1;" width="3.712" height="0.865"/>
				</g>
				<g>
					<rect x="60.018" y="40.998" style="fill:#CED0D1;" width="3.712" height="0.863"/>
				</g>
				<g>
					<rect x="60.018" y="44.896" style="fill:#CED0D1;" width="3.712" height="0.864"/>
				</g>
				<g>
					<rect x="60.018" y="48.792" style="fill:#CED0D1;" width="3.712" height="0.863"/>
				</g>
				<g>
					<rect x="60.018" y="52.688" style="fill:#CED0D1;" width="3.712" height="0.866"/>
				</g>
			</g>
		</g>
		<g>
			<g>
				<g>
					<rect x="60.018" y="13.716" style="fill:#CED0D1;" width="3.712" height="0.863"/>
				</g>
				<g>
					<rect x="60.018" y="17.611" style="fill:#CED0D1;" width="3.712" height="0.865"/>
				</g>
				<g>
					<rect x="60.018" y="21.51" style="fill:#CED0D1;" width="3.712" height="0.864"/>
				</g>
				<g>
					<rect x="60.018" y="25.406" style="fill:#CED0D1;" width="3.712" height="0.865"/>
				</g>
				<g>
					<rect x="60.018" y="29.305" style="fill:#CED0D1;" width="3.712" height="0.865"/>
				</g>
				<g>
					<rect x="60.018" y="33.202" style="fill:#CED0D1;" width="3.712" height="0.866"/>
				</g>
				<g>
					<rect x="60.018" y="37.1" style="fill:#CED0D1;" width="3.712" height="0.865"/>
				</g>
			</g>
		</g>
	</g>
	<rect x="43.104" y="65.67" style="fill:#414042;" width="10.838" height="2.077"/>
</g>
<g>
</g>
<g>
</g>
<g>
</g>
<g>
</g>
<g>
</g>
<g>
</g>
<g>
</g>
<g>
</g>
<g>
</g>
<g>
</g>
<g>
</g>
<g>
</g>
<g>
</g>
<g>
</g>
<g>
</g>
</svg>
