<?xml version="1.0" encoding="iso-8859-1"?>
<!-- Generator: Adobe Illustrator 19.0.0, SVG Export Plug-In . SVG Version: 6.00 Build 0)  -->
<svg version="1.1" id="Layer_1" xmlns="http://www.w3.org/2000/svg" xmlns:xlink="http://www.w3.org/1999/xlink" x="0px" y="0px"
	 viewBox="0 0 512 512" style="enable-background:new 0 0 512 512;" xml:space="preserve">
<rect x="362.333" y="387.661" style="fill:#B4E1FA;" width="64.048" height="43.372"/>
<rect x="362.333" y="336.635" style="fill:#A0D2F0;" width="64.048" height="43.359"/>
<path style="fill:#E4EAF6;" d="M209.14,336.633v156.056h93.721V336.633H209.14z M238.908,416.404
	c-0.709,0.709-1.724,1.132-2.716,1.132c-0.992,0-2.006-0.423-2.716-1.131c-0.7-0.7-1.118-1.711-1.118-2.703
	c0-0.999,0.418-2.014,1.118-2.714c0.702-0.7,1.716-1.119,2.716-1.119c0.999,0,2.014,0.419,2.714,1.118
	c0.7,0.7,1.119,1.716,1.119,2.716C240.026,414.698,239.614,415.704,238.908,416.404z"/>
<rect x="86.526" y="387.661" style="fill:#B4E1FA;" width="64.048" height="43.372"/>
<rect x="86.526" y="336.635" style="fill:#A0D2F0;" width="64.048" height="43.359"/>
<rect x="86.526" y="234.212" style="fill:#B4E1FA;" width="64.048" height="43.372"/>
<rect x="86.526" y="183.173" style="fill:#A0D2F0;" width="64.048" height="43.372"/>
<rect x="209.14" y="234.212" style="fill:#B4E1FA;" width="93.721" height="43.372"/>
<rect x="209.14" y="183.173" style="fill:#82B1E1;" width="93.721" height="43.372"/>
<rect x="362.333" y="234.212" style="fill:#B4E1FA;" width="64.048" height="43.372"/>
<rect x="362.333" y="183.173" style="fill:#82B1E1;" width="64.048" height="43.372"/>
<polygon style="fill:#5B5D6E;" points="382.831,29.428 382.831,74.664 445.984,106.273 445.984,29.428 "/>
<path style="fill:#707487;" d="M256,19.766L14.479,140.632v32.487L254.303,53.113c0.528-0.266,1.099-0.4,1.697-0.4
	s1.169,0.134,1.716,0.41l239.805,119.995v-32.487L256,19.766z"/>
<path style="fill:#FFD782;" d="M256,60.836L34.925,171.466v321.222h166.548v-159.89c0-2.114,1.72-3.834,3.834-3.834h101.388
	c2.114,0,3.834,1.72,3.834,3.834v159.89h166.548V171.467L256,60.836z M158.241,434.865c0,2.114-1.72,3.834-3.834,3.834H82.692
	c-2.114,0-3.834-1.72-3.834-3.834V332.8c0-2.114,1.72-3.834,3.834-3.834h71.715c2.114,0,3.834,1.72,3.834,3.834V434.865z
	 M158.241,281.416c0,2.114-1.72,3.834-3.834,3.834H82.692c-2.114,0-3.834-1.72-3.834-3.834V179.338c0-2.114,1.72-3.834,3.834-3.834
	h71.715c2.114,0,3.834,1.72,3.834,3.834V281.416z M310.528,281.416c0,2.114-1.72,3.834-3.834,3.834H205.306
	c-2.114,0-3.834-1.72-3.834-3.834V179.338c0-2.114,1.72-3.834,3.834-3.834h101.388c2.114,0,3.834,1.72,3.834,3.834V281.416z
	 M434.049,434.865c0,2.114-1.72,3.834-3.834,3.834H358.5c-2.114,0-3.834-1.72-3.834-3.834V332.8c0-2.114,1.72-3.834,3.834-3.834
	h71.715c2.114,0,3.834,1.72,3.834,3.834V434.865z M434.049,281.416c0,2.114-1.72,3.834-3.834,3.834H358.5
	c-2.114,0-3.834-1.72-3.834-3.834V179.338c0-2.114,1.72-3.834,3.834-3.834h71.715c2.114,0,3.834,1.72,3.834,3.834V281.416z"/>
<path d="M511.578,138.266v41.059c0,3.553-1.84,6.837-4.843,8.702c-1.648,1.01-3.514,1.521-5.38,1.521
	c-1.559,0-3.131-0.358-4.575-1.073l-5.648-2.824V486.3h10.645c5.648,0,10.223,4.575,10.223,10.223
	c0,5.648-4.575,10.223-10.223,10.223H10.223C4.575,506.746,0,502.171,0,496.523c0-5.648,4.575-10.223,10.223-10.223h10.645V185.65
	l-5.648,2.824c-3.169,1.585-6.939,1.418-9.942-0.447c-3.016-1.866-4.856-5.15-4.856-8.702v-41.059c0-3.872,2.185-7.412,5.648-9.15
	L251.425,6.337c2.875-1.444,6.274-1.444,9.15,0l108.199,54.144V25.595c0-5.648,4.575-10.223,10.223-10.223h70.821
	c5.635,0,10.223,4.575,10.223,10.223v80.558l45.889,22.964C509.393,130.854,511.578,134.394,511.578,138.266z M491.132,162.776
	v-18.197L256,26.911L20.868,144.579v18.197L251.425,47.408c1.444-0.728,3.003-1.086,4.575-1.086s3.131,0.358,4.575,1.086
	L491.132,162.776z M470.686,486.3V175.415L256,67.982L41.314,175.415V486.3h153.769V332.8c0-5.648,4.588-10.223,10.223-10.223
	h101.388c5.635,0,10.223,4.575,10.223,10.223v153.5H470.686z M439.595,95.93V35.818H389.22v34.899L439.595,95.93z M296.471,486.3
	V343.023h-80.942V486.3H296.471z"/>
<path d="M440.438,332.8v102.065c0,5.648-4.575,10.223-10.223,10.223H358.5c-5.648,0-10.223-4.575-10.223-10.223V332.8
	c0-5.648,4.575-10.223,10.223-10.223h71.715C435.863,322.577,440.438,327.151,440.438,332.8z M419.992,424.642v-30.593h-51.269
	v30.593H419.992z M419.992,373.603v-30.58h-51.269v30.58H419.992z"/>
<path d="M440.438,179.338v102.078c0,5.635-4.575,10.223-10.223,10.223H358.5c-5.648,0-10.223-4.588-10.223-10.223V179.338
	c0-5.648,4.575-10.223,10.223-10.223h71.715C435.863,169.115,440.438,173.689,440.438,179.338z M419.992,271.193V240.6h-51.269
	v30.593H419.992z M419.992,220.154v-30.593h-51.269v30.593H419.992z"/>
<path d="M316.917,179.338v102.078c0,5.635-4.588,10.223-10.223,10.223H205.306c-5.636,0-10.223-4.588-10.223-10.223V179.338
	c0-5.648,4.588-10.223,10.223-10.223h101.388C312.329,169.115,316.917,173.689,316.917,179.338z M296.471,271.193V240.6h-80.942
	v30.593H296.471z M296.471,220.154v-30.593h-80.942v30.593H296.471z"/>
<path d="M243.426,406.47c1.904,1.904,2.99,4.536,2.99,7.233c0,2.684-1.086,5.329-2.99,7.22c-1.904,1.904-4.537,3.003-7.233,3.003
	s-5.329-1.099-7.233-3.003c-1.904-1.904-2.99-4.536-2.99-7.22c0-2.696,1.086-5.329,2.99-7.233c1.904-1.904,4.549-2.99,7.233-2.99
	C238.876,403.48,241.521,404.566,243.426,406.47z"/>
<path d="M164.631,332.8v102.065c0,5.648-4.575,10.223-10.223,10.223H82.692c-5.648,0-10.223-4.575-10.223-10.223V332.8
	c0-5.648,4.575-10.223,10.223-10.223h71.715C160.056,322.577,164.631,327.151,164.631,332.8z M144.185,424.642v-30.593H92.915
	v30.593H144.185z M144.185,373.603v-30.58H92.915v30.58H144.185z"/>
<path d="M164.631,179.338v102.078c0,5.635-4.575,10.223-10.223,10.223H82.692c-5.648,0-10.223-4.588-10.223-10.223V179.338
	c0-5.648,4.575-10.223,10.223-10.223h71.715C160.056,169.115,164.631,173.689,164.631,179.338z M144.185,271.193V240.6H92.915
	v30.593H144.185z M144.185,220.154v-30.593H92.915v30.593H144.185z"/>
<g>
</g>
<g>
</g>
<g>
</g>
<g>
</g>
<g>
</g>
<g>
</g>
<g>
</g>
<g>
</g>
<g>
</g>
<g>
</g>
<g>
</g>
<g>
</g>
<g>
</g>
<g>
</g>
<g>
</g>
</svg>
