<?xml version="1.0" encoding="iso-8859-1"?>
<!-- Generator: Adobe Illustrator 19.0.0, SVG Export Plug-In . SVG Version: 6.00 Build 0)  -->
<svg version="1.1" id="Capa_1" xmlns="http://www.w3.org/2000/svg" xmlns:xlink="http://www.w3.org/1999/xlink" x="0px" y="0px"
	 viewBox="0 0 59.397 59.397" style="enable-background:new 0 0 59.397 59.397;" xml:space="preserve">
<path d="M45.005,11.842c0.403-0.159,0.678-0.553,0.637-1.006c-0.041-0.448-0.375-0.779-0.793-0.871l0.744-0.744
	c0.682-0.682,0.682-1.792,0-2.473l-1.77-1.77c-0.682-0.682-1.792-0.681-2.473,0L40.61,5.72c-0.089-0.417-0.426-0.749-0.873-0.79
	c-0.552-0.042-1.036,0.356-1.086,0.906L38.564,6.79l-0.926-0.926l1.414-1.414L35.41,0.807c-1.076-1.076-2.953-1.077-4.028,0
	L28.338,3.85c-1.11,1.111-1.11,2.918,0,4.028l3.643,3.643l1.414-1.414l0.768,0.768l-0.607,0.055c-0.55,0.05-0.956,0.537-0.906,1.086
	c0.041,0.447,0.375,0.782,0.792,0.871l-1.71,1.71l-0.379-0.379c-0.391-0.391-1.023-0.391-1.414,0s-0.391,1.023,0,1.414l0.379,0.379
	l-0.586,0.586l-0.379-0.379c-0.391-0.391-1.023-0.391-1.414,0s-0.391,1.023,0,1.414l0.379,0.379l-0.586,0.586l-0.379-0.379
	c-0.391-0.391-1.023-0.391-1.414,0s-0.391,1.023,0,1.414l0.379,0.379L0.232,46.098l4.243,4.243l25.171-25.171v2.407l-6,7.5v0.351
	c0,16.237,6.011,22.904,6.267,23.18l0.733,0.791l0.733-0.791c0.256-0.276,6.267-6.943,6.267-23.18v-0.351l-6-7.5v-4.407l0.914-0.914
	l0.379,0.379c0.195,0.195,0.451,0.293,0.707,0.293s0.512-0.098,0.707-0.293c0.391-0.391,0.391-1.023,0-1.414l-0.379-0.379
	l0.586-0.586l0.379,0.379c0.195,0.195,0.451,0.293,0.707,0.293s0.512-0.098,0.707-0.293c0.391-0.391,0.391-1.023,0-1.414
	l-0.379-0.379l1.708-1.708c0.09,0.416,0.426,0.749,0.873,0.79c0.031,0.002,0.061,0.004,0.091,0.004c0.512,0,0.948-0.39,0.995-0.91
	l0.055-0.607l2.029,2.029c0.859,0.859,0.863,2.261,0.01,3.125c-1.039,1.051-1.464,2.524-1.137,3.94l2.126,9.213l16.438-16.438
	L45.005,11.842z M42.588,6.571l1.414,1.414l-2.121,2.121l-1.414-1.414L42.588,6.571z M31.981,8.692l-2.229-2.229
	c-0.331-0.331-0.331-0.869,0-1.2l3.043-3.042c0.321-0.322,0.878-0.321,1.199,0l2.229,2.229L34.81,5.864l3.518,3.519l-0.102,1.123
	l-1.469,0.134l-0.533-0.533l0,0l-2.828-2.828L31.981,8.692z M3.061,46.098l24.672-24.672l1.415,1.415L4.475,47.512L3.061,46.098z
	 M35.646,35.776c-0.066,11.773-3.473,18.195-5.003,20.488c-1.533-2.281-4.929-8.662-4.995-20.488l3.999-4.999v2.735l-1.707,1.707
	c-0.391,0.391-0.391,1.023,0,1.414c0.195,0.195,0.451,0.293,0.707,0.293s0.512-0.098,0.707-0.293l0.293-0.293v2.172l-1.707,1.707
	c-0.391,0.391-0.391,1.023,0,1.414c0.195,0.195,0.451,0.293,0.707,0.293s0.512-0.098,0.707-0.293l0.293-0.293v10.586
	c0,0.552,0.448,1,1,1s1-0.448,1-1V41.34l0.293,0.293c0.195,0.195,0.451,0.293,0.707,0.293s0.512-0.098,0.707-0.293
	c0.391-0.391,0.391-1.023,0-1.414l-1.707-1.707V36.34l0.293,0.293c0.195,0.195,0.451,0.293,0.707,0.293s0.512-0.098,0.707-0.293
	c0.391-0.391,0.391-1.023,0-1.414l-1.707-1.707v-2.735L35.646,35.776z M30.561,21.427l-1.415-1.415l0.586-0.586l1.415,1.415
	L30.561,21.427z M32.561,19.427l-1.415-1.415l0.586-0.586l1.415,1.415L32.561,19.427z M33.146,16.012l3.077-3.077l1.415,1.415
	l-3.077,3.077L33.146,16.012z M42.549,25.054c-0.172-0.745,0.057-1.524,0.611-2.085c1.624-1.644,1.616-4.311-0.019-5.945
	l-2.675-2.675l0,0l-0.533-0.533l0.134-1.469l1.123-0.102l0.111,0.111l14.408,6.549L43.864,30.751L42.549,25.054z"/>
<g>
</g>
<g>
</g>
<g>
</g>
<g>
</g>
<g>
</g>
<g>
</g>
<g>
</g>
<g>
</g>
<g>
</g>
<g>
</g>
<g>
</g>
<g>
</g>
<g>
</g>
<g>
</g>
<g>
</g>
</svg>
