<?xml version="1.0" encoding="iso-8859-1"?>
<!-- Generator: Adobe Illustrator 19.0.0, SVG Export Plug-In . SVG Version: 6.00 Build 0)  -->
<svg version="1.1" id="Layer_1" xmlns="http://www.w3.org/2000/svg" xmlns:xlink="http://www.w3.org/1999/xlink" x="0px" y="0px"
	 viewBox="0 0 488 488" style="enable-background:new 0 0 488 488;" xml:space="preserve">
<g transform="translate(0 -540.36)">
	<g>
		<g>
			<path d="M478,835.61H305.003c-4,0-7.6,2.3-9.2,6l-70.899,163c-2.2,5.1,0.1,11,5.2,13.2c1.3,0.5,2.7,0.8,4,0.8v0
				c3.8,0,7.5-2.3,9.1-6l68.299-157H468v153c0,5.5,4.5,10,10,10c5.5,0,10-4.5,10-10v-163C488,840.11,483.5,835.61,478,835.61z"/>
			<path d="M305.003,814.21h91.498c5.5,0,10-4.5,10-10v-24.8c16.5-9.8,31.199-24.2,41.899-41.1c12.5-20,19-43,19-66.5
				s-6.6-46.5-19.1-66.6c-10.7-16.8-25.4-31.2-41.899-41v-4.1c0-5.5-4.5-10-10-10c-5.5,0-10,4.5-10,10v234.1h-81.399
				c-5.5,0-10,4.5-10,10S299.503,814.21,305.003,814.21z M406.401,588.31c9.7,7.5,18.3,16.9,25,27.5c10.5,16.8,16,36.2,16,55.9
				c0,19.9-5.5,39.2-16,56c-6.7,10.6-15.3,20-25,27.6V588.31z"/>
			<path d="M162.406,835.51H49.108l-29.199-195.8c-0.8-5.5-5.9-9.2-11.4-8.4c-5.5,0.8-9.2,5.9-8.4,11.4l30.299,202.6l-30.2,161.4
				c-1,5.4,2.6,10.7,8,11.7c0.6,0.1,1.2,0.2,1.8,0.2c4.7,0,8.9-3.4,9.8-8.2l29-154.9h103.698v153c0,5.5,4.5,10,10,10
				c5.5,0,10-4.5,10-10v-163C172.406,840.01,168.006,835.51,162.406,835.51z"/>
		</g>
	</g>
</g>
<g>
</g>
<g>
</g>
<g>
</g>
<g>
</g>
<g>
</g>
<g>
</g>
<g>
</g>
<g>
</g>
<g>
</g>
<g>
</g>
<g>
</g>
<g>
</g>
<g>
</g>
<g>
</g>
<g>
</g>
</svg>
