<?xml version="1.0" encoding="iso-8859-1"?>
<!-- Generator: Adobe Illustrator 19.0.0, SVG Export Plug-In . SVG Version: 6.00 Build 0)  -->
<svg version="1.1" id="Layer_1" xmlns="http://www.w3.org/2000/svg" xmlns:xlink="http://www.w3.org/1999/xlink" x="0px" y="0px"
	 viewBox="0 0 512 512" style="enable-background:new 0 0 512 512;" xml:space="preserve">
<path style="fill:#FAB352;" d="M379.198,16.879h-85.464C284.457,6.528,270.995,0,256.033,0c-14.963,0-28.424,6.528-37.702,16.879
	h-85.529c-18.567,0-33.758,15.191-33.758,33.758v410.725c0,18.567,15.191,33.758,33.758,33.758h85.529
	C227.608,505.472,241.07,512,256.033,512c14.963,0,28.424-6.528,37.702-16.879h85.464c18.567,0,33.758-15.191,33.758-33.758V50.637
	C412.957,32.07,397.766,16.879,379.198,16.879z"/>
<g>
	<circle style="fill:#F16831;" cx="256.034" cy="50.637" r="16.879"/>
	<circle style="fill:#F16831;" cx="256.034" cy="461.363" r="16.879"/>
</g>
<path style="fill:#F1ECDE;" d="M256.033,405.554c-49.638,0-90.022-40.384-90.022-90.022s40.384-90.022,90.022-90.022
	s90.022,40.384,90.022,90.022S305.671,405.554,256.033,405.554z"/>
<circle style="fill:#F16831;" cx="256.034" cy="315.527" r="56.264"/>
<g>
	<path style="fill:#FCD197;" d="M132.815,92.835c-4.662,0-8.44-3.778-8.44-8.44V50.637c0-4.662,3.778-8.44,8.44-8.44
		c0.033,0,0.065,0,0.097,0c1.169,0.006,24.644,0.002,33.66,0c4.662,0,8.44,3.776,8.441,8.438c0.001,4.661-3.776,8.44-8.438,8.441
		l-25.32,0.002v25.316C141.255,89.058,137.477,92.835,132.815,92.835z"/>
	<path style="fill:#FCD197;" d="M166.56,469.802h-33.758c-4.662,0-8.44-3.778-8.44-8.44V118.154c0-4.662,3.778-8.44,8.44-8.44
		s8.44,3.778,8.44,8.44v334.769h25.319c4.662,0,8.44,3.778,8.44,8.44S171.221,469.802,166.56,469.802z"/>
	<path style="fill:#FCD197;" d="M379.195,469.802h-33.758c-4.662,0-8.44-3.778-8.44-8.44s3.778-8.44,8.44-8.44h25.313l-0.008-20.044
		l0.004-3.841c0.016-6.825,3.64-9.034,6.681-9.685c4.556-0.974,9.044,1.928,10.021,6.485c0.152,0.709,0.21,1.416,0.182,2.109
		c-0.018,2.12-0.007,20.935,0.004,33.409c0.002,2.239-0.886,4.387-2.469,5.973C383.584,468.912,381.436,469.802,379.195,469.802z"/>
</g>
<path style="fill:#F58E42;" d="M289.524,175.327l-5.591-44.301c-1.748-13.859-13.569-24.579-27.901-24.579
	c-14.333,0-26.154,10.72-27.901,24.579l-5.591,44.301h25.053v11.253c0,4.662,3.778,8.44,8.44,8.44c4.662,0,8.44-3.778,8.44-8.44
	v-11.253H289.524z"/>
<path style="fill:#F16831;" d="M289.524,182.641h-66.983c-4.662,0-8.44-3.778-8.44-8.44s3.778-8.44,8.44-8.44h66.983
	c4.662,0,8.44,3.778,8.44,8.44S294.186,182.641,289.524,182.641z"/>
<g>
</g>
<g>
</g>
<g>
</g>
<g>
</g>
<g>
</g>
<g>
</g>
<g>
</g>
<g>
</g>
<g>
</g>
<g>
</g>
<g>
</g>
<g>
</g>
<g>
</g>
<g>
</g>
<g>
</g>
</svg>
