<?xml version="1.0" encoding="iso-8859-1"?>
<!-- Generator: Adobe Illustrator 19.0.0, SVG Export Plug-In . SVG Version: 6.00 Build 0)  -->
<svg version="1.1" id="Layer_1" xmlns="http://www.w3.org/2000/svg" xmlns:xlink="http://www.w3.org/1999/xlink" x="0px" y="0px"
	 viewBox="0 0 512 512" style="enable-background:new 0 0 512 512;" xml:space="preserve">
<path style="fill:#2969B0;" d="M205.727,91.697H15.676c7.429-45.611,47.024-80.659,95.02-80.659
	c42.377,0,78.208,27.331,91.134,65.127C203.541,81.166,204.855,86.354,205.727,91.697z"/>
<path style="fill:#FFAC3D;" d="M206.985,107.272c0,1.016-0.011,2.042-0.044,3.069l-4.691,48.614l-19.803,205.317H38.946
	l-24.494-253.93c-0.199-6.358,0.221-12.595,1.225-18.644h190.05C206.555,96.764,206.985,101.974,206.985,107.272z"/>
<rect x="39.032" y="364.271" style="fill:#2969B0;" width="452.58" height="55.193"/>
<polygon style="fill:#FFAC3D;" points="114.008,419.464 76.289,500.961 50.072,500.961 39.034,419.464 "/>
<polygon style="fill:#EBEBEB;" points="135.533,275.963 85.859,275.963 80.34,182.136 141.052,182.136 "/>
<path style="fill:#BFDEFF;" d="M497.596,100.539v34.043c0,13.456-10.917,24.373-24.373,24.373h-36.35
	c-9.085,0-13.986-2.34-18.556-4.879c-5.354-2.947-10.255-6.16-20.885-6.16c-17.794,0-19.527,8.985-34.186,10.74
	c-1.579,0.188-3.323,0.298-5.243,0.298c-19.726,0-19.726-11.039-39.452-11.039c-19.715,0-19.715,11.039-39.441,11.039H202.25
	l4.691-48.614c0.033-1.027,0.044-2.053,0.044-3.069c0-10.873-1.81-21.337-5.155-31.107h271.393
	C486.679,76.166,497.596,87.083,497.596,100.539z"/>
<path style="fill:#A8A8A8;" d="M446.024,364.271h-55.678l-27.1-205.615c14.659-1.755,16.392-10.74,34.186-10.74
	c10.63,0,15.531,3.212,20.885,6.16L446.024,364.271z"/>
<path style="fill:#EBEBEB;" d="M474.978,419.464c-29.12,33.325-71.21,52.444-115.463,52.444H89.734l1.435-3.091l22.839-49.353
	L474.978,419.464L474.978,419.464z"/>
<g>
	<path style="fill:#231F20;" d="M141.052,171.097H80.34c-3.04,0-5.945,1.254-8.032,3.466c-2.085,2.212-3.167,5.186-2.988,8.221
		l5.519,93.827c0.343,5.835,5.175,10.391,11.02,10.391h49.673c5.845,0,10.676-4.556,11.02-10.391l5.519-93.827
		c0.179-3.036-0.903-6.009-2.988-8.221C146.997,172.351,144.092,171.097,141.052,171.097z M125.123,264.925H96.268l-4.221-71.75
		h37.298L125.123,264.925z"/>
	<path style="fill:#231F20;" d="M473.223,169.993c19.526,0,35.412-15.886,35.412-35.412v-34.043
		c0-19.526-15.886-35.412-35.412-35.412H209.397C192.622,25.864,153.917,0,110.695,0c-25.66,0-50.491,9.195-69.917,25.893
		C21.619,42.359,8.841,65.079,4.79,89.87c-0.001,0.006-0.002,0.012-0.003,0.018c-0.001,0.004-0.001,0.01-0.002,0.014
		c-0.001,0.007-0.002,0.013-0.003,0.02C4.78,89.926,4.78,89.931,4.78,89.936c-1.122,6.774-1.581,13.755-1.362,20.749
		c0.008,0.238,0.023,0.477,0.046,0.714c0,0,24.521,254.101,24.532,254.188v53.877c0,0.052,0.093,1.43,0.099,1.481l11.039,81.497
		C39.876,507.917,44.55,512,50.073,512H76.29c4.301,0,8.21-2.499,10.017-6.402l10.483-22.652h262.726
		c45.743,0,89.315-19.055,120.362-52.444h11.736c6.095,0,11.039-4.942,11.039-11.039V364.27c0-6.097-4.943-11.039-11.039-11.039
		h-35.912l-24.188-183.493c1.669,0.16,3.442,0.254,5.358,0.254h36.35V169.993z M473.223,87.204c7.353,0,13.335,5.982,13.335,13.335
		v34.043c0,7.353-5.982,13.335-13.335,13.335h-36.35c-6.431,0-9.402-1.382-13.232-3.51l-1.141-0.634
		c-5.507-3.072-12.361-6.895-25.067-6.895c-12.738,0-19.598,3.839-25.108,6.923c-3.497,1.957-9.352,4.115-14.321,4.115
		c-6.984,0-9.909-1.636-14.335-4.114c-5.514-3.085-12.375-6.924-25.117-6.924c-12.735,0-19.594,3.84-25.106,6.924
		c-4.426,2.478-7.349,4.114-14.334,4.114h-64.706c0,0,3.56-36.986,3.568-37.222c0.038-1.145,0.05-2.289,0.05-3.422
		c0-5.818-1.74-19.204-1.915-20.121l0.034,0.053H473.223z M29.023,146.44H83.1c6.097,0,11.039-4.942,11.039-11.039
		s-4.942-11.039-11.039-11.039H26.893c0,0-1.453-19.335-1.331-21.628h170.265c0.079,1.511,0.113,6.118,0.092,6.912l-23.497,243.585
		H48.971L29.023,146.44z M212.276,169.993h45.785v17.386c0,17.195-13.989,31.184-31.184,31.184h-19.285L212.276,169.993z
		 M205.461,240.64h21.415c29.368,0,53.261-23.893,53.261-53.261v-17.406c12.078-0.203,18.73-3.907,24.09-6.907
		c4.424-2.476,7.346-4.112,14.324-4.112c6.984,0,9.909,1.636,14.335,4.114c4.839,2.708,10.72,5.995,20.698,6.759l24.173,183.405
		H194.6L205.461,240.64z M110.696,22.077c36.468,0,68.895,23.172,80.691,57.662c0.105,0.306,0.208,0.613,0.308,0.92H29.673
		C40.921,46.044,73.163,22.077,110.696,22.077z M69.234,489.923h-9.517l-8.049-59.42h45.067L69.234,489.923z M359.515,460.87
		H107.009l14.052-30.367h326.315C422.513,450.022,391.631,460.87,359.515,460.87z M480.575,408.426H50.072V375.31h430.503V408.426z
		 M400.025,353.233l-24.563-186.366l0,0c2.997-1.2,5.455-2.575,7.645-3.802c4.423-2.476,7.345-4.111,14.326-4.111
		c4.93,0,7.835,0.819,10.68,2.171l25.324,192.107H400.025z"/>
	<path style="fill:#231F20;" d="M122.838,146.44h1.104c6.097,0,11.039-4.942,11.039-11.039s-4.942-11.039-11.039-11.039h-1.104
		c-6.097,0-11.039,4.942-11.039,11.039S116.742,146.44,122.838,146.44z"/>
</g>
<g>
</g>
<g>
</g>
<g>
</g>
<g>
</g>
<g>
</g>
<g>
</g>
<g>
</g>
<g>
</g>
<g>
</g>
<g>
</g>
<g>
</g>
<g>
</g>
<g>
</g>
<g>
</g>
<g>
</g>
</svg>
