<?xml version="1.0" encoding="iso-8859-1"?>
<!-- Generator: Adobe Illustrator 19.0.0, SVG Export Plug-In . SVG Version: 6.00 Build 0)  -->
<svg version="1.1" id="Layer_1" xmlns="http://www.w3.org/2000/svg" xmlns:xlink="http://www.w3.org/1999/xlink" x="0px" y="0px"
	 viewBox="0 0 512 512" style="enable-background:new 0 0 512 512;" xml:space="preserve">
<path style="fill:#2969B0;" d="M476.323,428.408H35.677c-13.933,0-25.228-11.294-25.228-25.228V108.821
	c0-13.934,11.295-25.229,25.228-25.229h440.646c13.933,0,25.228,11.295,25.228,25.229v294.36
	C501.551,417.114,490.256,428.408,476.323,428.408z"/>
<rect x="52.245" y="125.388" style="fill:#EBEBEB;" width="224.653" height="171.572"/>
<g>
	<path style="fill:#FFAC3D;" d="M115.94,338.758L115.94,338.758c12.984,0,23.51,10.526,23.51,23.51v0.834
		c0,12.984-10.526,23.51-23.51,23.51l0,0c-12.984,0-23.51-10.526-23.51-23.51v-0.834C92.43,349.283,102.956,338.758,115.94,338.758z
		"/>
	<path style="fill:#FFAC3D;" d="M213.203,338.758L213.203,338.758c12.984,0,23.51,10.526,23.51,23.51v0.834
		c0,12.984-10.526,23.51-23.51,23.51l0,0c-12.984,0-23.51-10.526-23.51-23.51v-0.834
		C189.693,349.283,200.218,338.758,213.203,338.758z"/>
</g>
<g>
	<path style="fill:#EBEBEB;" d="M327.512,226.395h31.996c4.87,0,8.818,3.948,8.818,8.818v31.125c0,4.87-3.948,8.818-8.818,8.818
		h-31.996c-4.87,0-8.818-3.948-8.818-8.818v-31.125C318.694,230.343,322.642,226.395,327.512,226.395z"/>
	<path style="fill:#EBEBEB;" d="M418.94,226.395h31.996c4.87,0,8.818,3.948,8.818,8.818v31.125c0,4.87-3.948,8.818-8.818,8.818
		H418.94c-4.87,0-8.818-3.948-8.818-8.818v-31.125C410.122,230.343,414.07,226.395,418.94,226.395z"/>
	<path style="fill:#EBEBEB;" d="M327.512,125.388h31.996c4.87,0,8.818,3.948,8.818,8.818v31.125c0,4.87-3.948,8.818-8.818,8.818
		h-31.996c-4.87,0-8.818-3.948-8.818-8.818v-31.125C318.694,129.335,322.642,125.388,327.512,125.388z"/>
	<path style="fill:#EBEBEB;" d="M418.94,125.388h31.996c4.87,0,8.818,3.948,8.818,8.818v31.125c0,4.87-3.948,8.818-8.818,8.818
		H418.94c-4.87,0-8.818-3.948-8.818-8.818v-31.125C410.122,129.335,414.07,125.388,418.94,125.388z"/>
</g>
<g>
	<path style="fill:#231F20;" d="M476.322,73.143H35.678C16.005,73.143,0,89.148,0,108.821v294.36
		c0,19.672,16.005,35.676,35.678,35.676h440.645c19.672,0,35.677-16.004,35.677-35.677V108.821
		C512,89.148,495.995,73.143,476.322,73.143z M476.322,417.959H35.678c-8.149,0-14.78-6.63-14.78-14.779V108.821
		c0-8.149,6.631-14.78,14.78-14.78h440.645c8.148,0,14.779,6.631,14.779,14.78v257.637H370.939v-31.347h50.155
		c5.77,0,10.449-4.679,10.449-10.449s-4.679-10.449-10.449-10.449H360.49c-5.77,0-10.449,4.679-10.449,10.449v52.245
		c0,5.77,4.679,10.449,10.449,10.449h130.612v15.825C491.102,411.329,484.471,417.959,476.322,417.959z"/>
	<path style="fill:#231F20;" d="M276.898,114.939H52.245c-5.77,0-10.449,4.679-10.449,10.449v171.574
		c0,5.77,4.679,10.449,10.449,10.449h224.653c5.77,0,10.449-4.679,10.449-10.449V125.388
		C287.347,119.618,282.668,114.939,276.898,114.939z M266.449,135.837v63.057l-18.6,29.807l-27.01-71.268
		c-1.521-4.017-5.346-6.692-9.641-6.745c-4.308-0.078-8.184,2.526-9.805,6.503l-28.049,68.799l-11.315-24.329
		c-1.695-3.645-5.331-5.994-9.35-6.042c-0.042-0.001-0.083-0.001-0.125-0.001c-3.971,0-7.603,2.252-9.365,5.818l-16.817,34.011
		l-27.499-61.345c-1.602-3.575-5.071-5.953-8.983-6.161c-3.931-0.196-7.611,1.794-9.583,5.179l-17.613,30.267v-67.551H266.449z
		 M62.694,286.513v-41.579l25.437-43.709l28.245,63.008c1.655,3.692,5.292,6.096,9.338,6.172c0.066,0.001,0.132,0.002,0.197,0.002
		c3.969,0,7.602-2.251,9.365-5.818l16.991-34.366l12.234,26.304c1.754,3.769,5.582,6.165,9.727,6.039
		c4.155-0.1,7.856-2.653,9.424-6.501l27.063-66.382l25.066,66.141c1.407,3.714,4.798,6.308,8.75,6.696
		c3.959,0.39,7.783-1.498,9.885-4.867l12.033-19.285v48.144H62.694z"/>
	<path style="fill:#231F20;" d="M115.94,328.309c-18.726,0-33.959,15.234-33.959,33.959v0.834c0,18.726,15.234,33.959,33.959,33.959
		s33.959-15.234,33.959-33.959v-0.834C149.899,343.543,134.665,328.309,115.94,328.309z M129.001,363.102
		c0,7.202-5.859,13.061-13.061,13.061c-7.202,0-13.061-5.859-13.061-13.061v-0.834c0-7.202,5.859-13.061,13.061-13.061
		c7.202,0,13.061,5.859,13.061,13.061V363.102z"/>
	<path style="fill:#231F20;" d="M213.203,328.309c-18.726,0-33.959,15.234-33.959,33.959v0.834
		c0,18.726,15.234,33.959,33.959,33.959s33.959-15.234,33.959-33.959v-0.834C247.162,343.543,231.929,328.309,213.203,328.309z
		 M226.264,363.102c0,7.202-5.859,13.061-13.061,13.061s-13.061-5.859-13.061-13.061v-0.834c0-7.202,5.859-13.061,13.061-13.061
		s13.061,5.859,13.061,13.061V363.102z"/>
	<path style="fill:#231F20;" d="M378.775,266.338v-31.124c0-10.625-8.642-19.267-19.267-19.267h-31.996
		c-10.625,0-19.267,8.642-19.267,19.267v31.124c0,10.625,8.642,19.267,19.267,19.267h31.996
		C370.133,285.605,378.775,276.963,378.775,266.338z M357.878,264.707h-28.735v-27.863h28.735V264.707z"/>
	<path style="fill:#231F20;" d="M418.94,285.605h31.996c10.625,0,19.267-8.642,19.267-19.267v-31.124
		c0-10.625-8.642-19.267-19.267-19.267H418.94c-10.625,0-19.267,8.642-19.267,19.267v31.124
		C399.673,276.963,408.316,285.605,418.94,285.605z M420.571,236.844h28.735v27.863h-28.735V236.844z"/>
	<path style="fill:#231F20;" d="M460.8,314.213c-5.77,0-10.449,4.679-10.449,10.449s4.679,10.449,10.449,10.449h4.18
		c5.77,0,10.449-4.679,10.449-10.449s-4.679-10.449-10.449-10.449H460.8z"/>
	<path style="fill:#231F20;" d="M327.512,184.599h31.996c10.625,0,19.267-8.642,19.267-19.267v-31.125
		c0-10.625-8.642-19.267-19.267-19.267h-31.996c-10.625-0.001-19.267,8.641-19.267,19.266v31.125
		C308.245,175.957,316.887,184.599,327.512,184.599z M329.143,135.837h28.735v27.864h-28.735V135.837z"/>
	<path style="fill:#231F20;" d="M418.94,184.599h31.996c10.625,0,19.267-8.642,19.267-19.267v-31.125
		c0-10.625-8.642-19.267-19.267-19.267H418.94c-10.625,0-19.267,8.642-19.267,19.267v31.125
		C399.673,175.957,408.316,184.599,418.94,184.599z M420.571,135.837h28.735v27.864h-28.735V135.837z"/>
</g>
<g>
</g>
<g>
</g>
<g>
</g>
<g>
</g>
<g>
</g>
<g>
</g>
<g>
</g>
<g>
</g>
<g>
</g>
<g>
</g>
<g>
</g>
<g>
</g>
<g>
</g>
<g>
</g>
<g>
</g>
</svg>
