<?xml version="1.0" encoding="iso-8859-1"?>
<!-- Generator: Adobe Illustrator 19.0.0, SVG Export Plug-In . SVG Version: 6.00 Build 0)  -->
<svg version="1.1" id="Layer_1" xmlns="http://www.w3.org/2000/svg" xmlns:xlink="http://www.w3.org/1999/xlink" x="0px" y="0px"
	 viewBox="0 0 512 512" style="enable-background:new 0 0 512 512;" xml:space="preserve">
<path style="fill:#5082F6;" d="M256,0C114.842,0,0,114.842,0,256s114.842,256,256,256s256-114.842,256-256S397.158,0,256,0z"/>
<g>
	<path style="fill:#2E36D0;" d="M210.618,128c-12.853,0-23.273,10.42-23.273,23.273v209.455c0,12.853,10.42,23.273,23.273,23.273
		c12.853,0,23.273-10.42,23.273-23.273V151.273C233.891,138.42,223.471,128,210.618,128z"/>
	<path style="fill:#2E36D0;" d="M301.382,128c-12.853,0-23.273,10.42-23.273,23.273v209.455c0,12.853,10.42,23.273,23.273,23.273
		s23.273-10.42,23.273-23.273V151.273C324.655,138.42,314.235,128,301.382,128z"/>
</g>
<path style="fill:#3D6DEB;" d="M0,256c0,141.158,114.842,256,256,256V0C114.842,0,0,114.842,0,256z M233.891,360.727
	c0,12.853-10.42,23.273-23.273,23.273c-12.853,0-23.273-10.42-23.273-23.273V151.273c0-12.853,10.42-23.273,23.273-23.273
	c12.853,0,23.273,10.42,23.273,23.273V360.727z"/>
<g>
</g>
<g>
</g>
<g>
</g>
<g>
</g>
<g>
</g>
<g>
</g>
<g>
</g>
<g>
</g>
<g>
</g>
<g>
</g>
<g>
</g>
<g>
</g>
<g>
</g>
<g>
</g>
<g>
</g>
</svg>
