<?xml version="1.0" encoding="iso-8859-1"?>
<!-- Generator: Adobe Illustrator 19.0.0, SVG Export Plug-In . SVG Version: 6.00 Build 0)  -->
<svg version="1.1" id="Layer_1" xmlns="http://www.w3.org/2000/svg" xmlns:xlink="http://www.w3.org/1999/xlink" x="0px" y="0px"
	 viewBox="0 0 470 470" style="enable-background:new 0 0 470 470;" xml:space="preserve">
<g>
	<g>
		<g>
			<path d="M462.5,18.364H7.5c-4.142,0-7.5,3.358-7.5,7.5v364c0,4.142,3.358,7.5,7.5,7.5H60v46.772c0,4.142,3.358,7.5,7.5,7.5h60
				c4.142,0,7.5-3.358,7.5-7.5v-46.772h72.5v28.682c0,4.142,3.358,7.5,7.5,7.5h40c4.142,0,7.5-3.358,7.5-7.5v-28.682H335v46.772
				c0,4.142,3.358,7.5,7.5,7.5h60c4.142,0,7.5-3.358,7.5-7.5v-46.772h52.5c4.142,0,7.5-3.358,7.5-7.5v-364
				C470,21.722,466.642,18.364,462.5,18.364z M120,436.636H75v-39.272h45V436.636z M247.5,418.545h-25v-21.182h25V418.545z
				 M395,436.636h-45v-39.272h45V436.636z M455,382.364H15v-349h440V382.364z"/>
			<path d="M189.5,367.364c87.949,0,159.5-71.551,159.5-159.5s-71.551-159.5-159.5-159.5S30,119.915,30,207.864
				S101.551,367.364,189.5,367.364z M189.5,63.364c79.678,0,144.5,64.822,144.5,144.5s-64.822,144.5-144.5,144.5
				S45,287.542,45,207.864S109.822,63.364,189.5,63.364z"/>
			<path d="M189.5,322.364c-4.142,0-7.5,3.358-7.5,7.5c0,4.142,3.358,7.5,7.5,7.5c71.407,0,129.5-58.093,129.5-129.5
				c0-4.142-3.358-7.5-7.5-7.5c-4.142,0-7.5,3.358-7.5,7.5C304,271,252.636,322.364,189.5,322.364z"/>
			<path d="M189.5,93.364c4.142,0,7.5-3.358,7.5-7.5c0-4.142-3.358-7.5-7.5-7.5c-71.407,0-129.5,58.093-129.5,129.5
				c0,4.142,3.358,7.5,7.5,7.5c4.142,0,7.5-3.358,7.5-7.5C75,144.728,126.364,93.364,189.5,93.364z"/>
			<path d="M189.5,292.364c-4.142,0-7.5,3.358-7.5,7.5c0,4.142,3.358,7.5,7.5,7.5c54.864,0,99.5-44.636,99.5-99.5
				c0-4.142-3.358-7.5-7.5-7.5c-4.142,0-7.5,3.358-7.5,7.5C274,254.457,236.093,292.364,189.5,292.364z"/>
			<path d="M189.5,123.364c4.142,0,7.5-3.358,7.5-7.5c0-4.142-3.358-7.5-7.5-7.5c-54.864,0-99.5,44.636-99.5,99.5
				c0,4.142,3.358,7.5,7.5,7.5c4.142,0,7.5-3.358,7.5-7.5C105,161.271,142.907,123.364,189.5,123.364z"/>
			<path d="M120,207.864c0,38.322,31.178,69.5,69.5,69.5s69.5-31.178,69.5-69.5s-31.178-69.5-69.5-69.5S120,169.542,120,207.864z
				 M244,207.864c0,30.051-24.449,54.5-54.5,54.5c-30.051,0-54.5-24.449-54.5-54.5c0-30.051,24.449-54.5,54.5-54.5
				C219.551,153.364,244,177.813,244,207.864z"/>
			<path d="M179.5,207.864c0,5.514,4.486,10,10,10c5.514,0,10-4.486,10-10c0-5.514-4.486-10-10-10
				C183.986,197.864,179.5,202.35,179.5,207.864z"/>
			<path d="M352.491,139.987c3.085,2.764,7.828,2.502,10.59-0.584c2.763-3.086,2.501-7.828-0.584-10.59
				C354.555,121.702,350,111.515,350,100.864c0-18.11,12.904-33.261,30-36.745v162.517c0,4.564-1.475,12.291-3.157,16.534
				l-18.203,45.933l-6.972-2.763c-1.85-0.732-3.914-0.701-5.74,0.088s-3.263,2.272-3.996,4.121L319.957,346
				c-1.526,3.851,0.358,8.209,4.209,9.736l27.89,11.053c0.888,0.352,1.825,0.527,2.762,0.527c1.015,0,2.03-0.206,2.98-0.617
				c1.826-0.79,3.264-2.274,3.996-4.125c0.137-0.345,21.974-55.447,21.974-55.447c0.733-1.849,0.701-3.914-0.088-5.74
				c-0.79-1.826-2.272-3.263-4.121-3.996l-6.972-2.763l18.204-45.933c2.361-5.959,4.211-15.649,4.211-22.06V64.118
				c17.096,3.484,30,18.635,30,36.745c0,10.652-4.555,20.839-12.498,27.95c-3.086,2.763-3.348,7.504-0.585,10.59
				c1.481,1.655,3.531,2.498,5.59,2.498c1.781,0,3.569-0.631,5-1.912C433.624,130.037,440,115.776,440,100.864
				c0-28.949-23.551-52.5-52.5-52.5c-28.949,0-52.5,23.551-52.5,52.5C335,115.775,341.375,130.035,352.491,139.987z M351.28,348.388
				c-0.238,0.599-0.461,1.163-0.67,1.692l-13.945-5.526l16.449-41.506l6.968,2.761c0.009,0.003,6.976,2.765,6.976,2.765
				L351.28,348.388z"/>
			<path d="M432.5,322.364H430v-52.5c0-4.142-3.358-7.5-7.5-7.5c-4.142,0-7.5,3.358-7.5,7.5v52.5h-2.5c-4.142,0-7.5,3.358-7.5,7.5
				c0,4.142,3.358,7.5,7.5,7.5h2.5v22.5c0,4.142,3.358,7.5,7.5,7.5c4.142,0,7.5-3.358,7.5-7.5v-22.5h2.5c4.142,0,7.5-3.358,7.5-7.5
				C440,325.722,436.642,322.364,432.5,322.364z"/>
		</g>
	</g>
</g>
<g>
</g>
<g>
</g>
<g>
</g>
<g>
</g>
<g>
</g>
<g>
</g>
<g>
</g>
<g>
</g>
<g>
</g>
<g>
</g>
<g>
</g>
<g>
</g>
<g>
</g>
<g>
</g>
<g>
</g>
</svg>
