<?xml version="1.0" encoding="iso-8859-1"?>
<!-- Generator: Adobe Illustrator 19.0.0, SVG Export Plug-In . SVG Version: 6.00 Build 0)  -->
<svg version="1.1" id="Layer_1" xmlns="http://www.w3.org/2000/svg" xmlns:xlink="http://www.w3.org/1999/xlink" x="0px" y="0px"
	 viewBox="0 0 470 470" style="enable-background:new 0 0 470 470;" xml:space="preserve">
<g>
	<g>
		<g>
			<path d="M462.49,32.499H7.51c-4.142,0-7.51,3.368-7.51,7.51v299.98c0,4.142,3.368,7.51,7.51,7.51H227.5v42.094l-80.128-26.709
				c-3.929-1.31-8.177,0.814-9.487,4.744s0.814,8.177,4.744,9.487l68.654,22.885l-68.654,22.885c-3.93,1.31-6.053,5.557-4.744,9.487
				c1.048,3.143,3.974,5.13,7.114,5.13c0.786,0,1.586-0.125,2.373-0.387L235,407.904l87.628,29.209
				c0.787,0.262,1.587,0.387,2.373,0.387c3.141,0,6.066-1.988,7.114-5.13c1.31-3.93-0.813-8.177-4.743-9.487l-68.655-22.885
				l68.655-22.885c3.93-1.31,6.053-5.557,4.743-9.487c-1.311-3.93-5.557-6.054-9.487-4.744l-80.128,26.71v-42.094H425v2.5
				c0,4.142,3.357,7.5,7.5,7.5s7.5-3.358,7.5-7.5v-2.5h22.49c4.143,0,7.51-3.368,7.51-7.51V40.008
				C470,35.866,466.633,32.499,462.49,32.499z M455,332.498H15v-285h440V332.498z"/>
			<path d="M37.51,317.498H362.5c4.143,0,7.5-3.358,7.5-7.5c0-4.142-3.357-7.5-7.5-7.5H45v-225h380v225h-32.5
				c-4.143,0-7.5,3.358-7.5,7.5c0,4.142,3.357,7.5,7.5,7.5h39.99c4.143,0,7.51-3.368,7.51-7.51V70.008c0-4.142-3.367-7.51-7.51-7.51
				H37.51c-4.142,0-7.51,3.368-7.51,7.51v239.98C30,314.13,33.368,317.498,37.51,317.498z"/>
		</g>
	</g>
</g>
<g>
</g>
<g>
</g>
<g>
</g>
<g>
</g>
<g>
</g>
<g>
</g>
<g>
</g>
<g>
</g>
<g>
</g>
<g>
</g>
<g>
</g>
<g>
</g>
<g>
</g>
<g>
</g>
<g>
</g>
</svg>
