<?xml version="1.0" encoding="iso-8859-1"?>
<!-- Generator: Adobe Illustrator 19.0.0, SVG Export Plug-In . SVG Version: 6.00 Build 0)  -->
<svg version="1.1" id="Layer_1" xmlns="http://www.w3.org/2000/svg" xmlns:xlink="http://www.w3.org/1999/xlink" x="0px" y="0px"
	 viewBox="0 0 473.677 473.677" style="enable-background:new 0 0 473.677 473.677;" xml:space="preserve">
<circle style="fill:#D7DABA;" cx="236.85" cy="236.837" r="236.827"/>
<path style="fill:#62A043;" d="M207.303,122.133c17.527-8.283,45.937-8.283,63.464,0l202.072,95.527
	c-1.238-15.448-3.953-30.459-8.01-44.927L270.764,80.997c-17.527-8.283-45.937-8.283-63.464,0L8.167,175.137
	c-3.874,14.397-6.402,29.333-7.49,44.669L207.303,122.133z"/>
<path style="fill:#48843E;" d="M270.764,180.096l199.88,94.492c1.971-12.299,3.033-24.906,3.033-37.762
	c0-6.458-0.333-12.842-0.841-19.165l-202.072-95.527c-17.527-8.283-45.937-8.283-63.464,0L0.677,219.807
	C0.277,225.438,0,231.1,0,236.825c0,13.526,1.193,26.768,3.369,39.673l203.93-96.402
	C224.827,171.813,253.24,171.813,270.764,180.096z"/>
<path style="fill:#62A043;" d="M236.835,473.668c117.95,0,215.725-86.238,233.809-199.08l-199.88-94.492
	c-17.527-8.283-45.937-8.283-63.464,0L3.369,276.499C22.254,388.401,119.562,473.668,236.835,473.668z"/>
<path style="fill:#AE722D;" d="M188.549,304.699c8.833,8.837,16.024,15.979,39.598-7.588L431.263,101.64
	c-5.392-7.741-11.226-15.149-17.486-22.183L188.549,304.699z"/>
<path style="fill:#B67736;" d="M188.549,304.699L413.78,79.457c-6.234-7.004-12.875-13.631-19.891-19.853L196.141,265.1
	C172.566,288.675,179.709,295.855,188.549,304.699z"/>
<path style="fill:#357180;" d="M186.171,276.42c-10.957,14.913-11.406,14.498,2.378,28.282c13.332,13.335,13.941,13.915,28.997,1.87
	C217.696,306.452,186.171,276.42,186.171,276.42z"/>
<path style="fill:#B1793A;" d="M281.889,94.808c0,1.043-22.183,13.702-22.183,13.702l-30.014-9.985
	c-2.053,0-20.852-44.606-20.852-44.606l20.852-11.305h48.484c2.053,0,3.713,1.657,3.713,3.71V94.808z"/>
<path style="fill:#BB813C;" d="M262.002,53.923c-2.053,0-53.162,0-53.162,0l20.852-11.305h48.484c0.875,0,1.675,0.299,2.311,0.804
	c0.853,0.681,1.402,1.731,1.402,2.906L262.002,53.923z"/>
<path style="fill:#2A6671;" d="M263.419,104.792c0,2.046-1.66,3.717-3.713,3.717h-48.484c-2.053,0-3.713-1.672-3.713-3.717v-48.48
	c0-2.053,1.66-3.71,3.713-3.71h48.484c2.053,0,3.713,1.657,3.713,3.71L263.419,104.792L263.419,104.792z"/>
<circle style="fill:#47989F;" cx="235.279" cy="79.382" r="17.468"/>
<path style="fill:#387E88;" d="M217.826,79.382c0-9.648,7.823-17.471,17.468-17.471v34.943
	C225.65,96.853,217.826,89.034,217.826,79.382z"/>
<g>
</g>
<g>
</g>
<g>
</g>
<g>
</g>
<g>
</g>
<g>
</g>
<g>
</g>
<g>
</g>
<g>
</g>
<g>
</g>
<g>
</g>
<g>
</g>
<g>
</g>
<g>
</g>
<g>
</g>
</svg>
