<?xml version="1.0" encoding="iso-8859-1"?>
<!-- Generator: Adobe Illustrator 19.0.0, SVG Export Plug-In . SVG Version: 6.00 Build 0)  -->
<svg version="1.1" id="Layer_1" xmlns="http://www.w3.org/2000/svg" xmlns:xlink="http://www.w3.org/1999/xlink" x="0px" y="0px"
	 viewBox="0 0 512 512" style="enable-background:new 0 0 512 512;" xml:space="preserve">
<path style="fill:#981700;" d="M464.317,467.423H47.802V42.337h416.515V467.423z"/>
<path style="fill:#391B10;" d="M333.913,467.423H133.565V42.337h200.348V467.423z"/>
<path style="fill:#967342;" d="M272.585,99.282c0,4.942-3.986,8.949-8.902,8.949h-81.146c-4.916,0-8.902-4.007-8.902-8.949
	s3.986-8.95,8.902-8.95h31.671V44.522h17.804v45.812h31.671C268.6,90.333,272.585,94.34,272.585,99.282z"/>
<path style="fill:#FF4328;" d="M512,469.66c0,4.943-3.986,8.949-8.902,8.949H9.022c-4.916,0-8.902-4.007-8.902-8.949
	c0-4.943,3.986-8.949,8.902-8.949h494.076C508.014,460.71,512,464.717,512,469.66z"/>
<path style="fill:#FF7B00;" d="M348.403,302.583h-3.762v-15.746h-225.73v90.293c0,49.66,39.79,90.291,88.424,90.291h48.879
	c37.096,0,69.021-23.648,82.095-56.898h10.093c24.508,0,44.446-20.295,44.446-45.242v-17.458
	C392.849,322.878,372.911,302.583,348.403,302.583z M375.044,365.283c0,15.076-11.952,27.343-26.642,27.343h-5.101
	c0.864-5.041,1.339-10.212,1.339-15.496v-56.649h3.762c14.69,0,26.642,12.266,26.642,27.343V365.283z"/>
<path style="fill:#F49919;" d="M268.333,286.838v90.293c0,44.899-32.529,82.411-74.712,89.191
	c-42.181-6.781-74.71-44.292-74.71-89.191v-90.293H268.333z"/>
<path style="fill:#DDC98B;" d="M263.683,225.701c0,22.613-17.893,41.43-40.574,41.43s-40.574-18.816-40.574-41.43
	c0-10.557,33.745-77.755,40.574-94.098C229.938,147.947,263.683,215.144,263.683,225.701z"/>
<path style="fill:#FF4328;" d="M511.88,42.34c0,4.943-3.964,8.949-8.854,8.949H8.854C3.964,51.289,0,47.282,0,42.34
	s3.965-8.949,8.854-8.949h494.171C507.916,33.391,511.88,37.398,511.88,42.34z"/>
<g>
</g>
<g>
</g>
<g>
</g>
<g>
</g>
<g>
</g>
<g>
</g>
<g>
</g>
<g>
</g>
<g>
</g>
<g>
</g>
<g>
</g>
<g>
</g>
<g>
</g>
<g>
</g>
<g>
</g>
</svg>
