<?xml version="1.0" encoding="iso-8859-1"?>
<!-- Generator: Adobe Illustrator 19.0.0, SVG Export Plug-In . SVG Version: 6.00 Build 0)  -->
<svg version="1.1" id="Layer_1" xmlns="http://www.w3.org/2000/svg" xmlns:xlink="http://www.w3.org/1999/xlink" x="0px" y="0px"
	 viewBox="0 0 512 512" style="enable-background:new 0 0 512 512;" xml:space="preserve">
<circle style="fill:#FFAD9E;" cx="256" cy="256" r="256"/>
<path style="fill:#FF6262;" d="M290.288,509.707c108.094-14.47,194.841-96.385,216.495-202.037L312.889,113.778L276.68,308.715
	l11.814,11.814l-87.526,99.857L290.288,509.707z"/>
<path style="fill:#FFFFFF;" d="M212.04,426.667h87.919c7.14,0,12.929-5.789,12.929-12.929v-299.96H199.111v299.96
	C199.111,420.878,204.9,426.667,212.04,426.667z"/>
<path style="fill:#D0D1D3;" d="M255.426,113.778v312.889h44.534c7.14,0,12.929-5.789,12.929-12.929v-299.96H255.426z"/>
<path style="fill:#FF314F;" d="M212.04,426.667h87.919c7.14,0,12.929-5.789,12.929-12.929V227.556H199.111v186.182
	C199.111,420.878,204.9,426.667,212.04,426.667z"/>
<path style="fill:#A30F44;" d="M255.426,227.556v199.111h44.534c7.14,0,12.929-5.789,12.929-12.929V227.556H255.426z"/>
<g>
	
		<rect x="222.829" y="257.846" transform="matrix(-0.9903 0.1392 -0.1392 -0.9903 509.6673 508.4925)" style="fill:#FFAD9E;" width="28.445" height="28.445"/>
	
		<rect x="271.1" y="238.33" transform="matrix(-0.9903 0.1392 -0.1392 -0.9903 603.0219 462.9315)" style="fill:#FFAD9E;" width="28.445" height="28.445"/>
	
		<rect x="254.156" y="314.711" transform="matrix(-0.766 0.6428 -0.6428 -0.766 685.404 408.3852)" style="fill:#FFAD9E;" width="28.444" height="28.444"/>
</g>
<g>
</g>
<g>
</g>
<g>
</g>
<g>
</g>
<g>
</g>
<g>
</g>
<g>
</g>
<g>
</g>
<g>
</g>
<g>
</g>
<g>
</g>
<g>
</g>
<g>
</g>
<g>
</g>
<g>
</g>
</svg>
