<?xml version="1.0" encoding="iso-8859-1"?>
<!-- Generator: Adobe Illustrator 19.0.0, SVG Export Plug-In . SVG Version: 6.00 Build 0)  -->
<svg version="1.1" id="Layer_1" xmlns="http://www.w3.org/2000/svg" xmlns:xlink="http://www.w3.org/1999/xlink" x="0px" y="0px"
	 viewBox="0 0 512 512" style="enable-background:new 0 0 512 512;" xml:space="preserve">
<g>
	<path style="fill:#FF9ECA;" d="M98.54,254.482H29.081c-10.428,0-18.882-8.454-18.882-18.882v-17.533h107.222v17.533
		C117.421,246.029,108.967,254.482,98.54,254.482z"/>
	<path style="fill:#FF9ECA;" d="M413.46,254.482h69.459c10.428,0,18.882-8.454,18.882-18.882v-17.533H394.579v17.533
		C394.579,246.029,403.033,254.482,413.46,254.482z"/>
</g>
<path style="fill:#FFE97C;" d="M254.988,252.46L254.988,252.46c-10.055,0-18.208-8.152-18.208-18.208v-16.184h36.415v16.184
	C273.196,244.308,265.045,252.46,254.988,252.46z"/>
<g>
	<path style="fill:#4D1E1E;" d="M127.621,207.869V183.76h3.962c5.632,0,10.199-4.566,10.199-10.199
		c0-5.633-4.567-10.199-10.199-10.199H103.26c-5.632,0-10.199,4.566-10.199,10.199c0,5.633,4.567,10.199,10.199,10.199h3.962v24.109
		H10.199C4.567,207.869,0,212.435,0,218.068v17.533c0,16.035,13.046,29.081,29.081,29.081H98.54
		c16.036,0,29.082-13.046,29.082-29.081v-7.334h98.961v5.985c0,7.444,2.882,14.226,7.584,19.296l-36.599,74.692h-30.076
		c-5.632,0-10.199,4.566-10.199,10.199s4.567,10.199,10.199,10.199h174.994c5.632,0,10.199-4.566,10.199-10.199
		s-4.567-10.199-10.199-10.199H220.281l32.192-65.698c0.829,0.073,1.667,0.117,2.514,0.117s1.686-0.045,2.515-0.117l8.49,17.326
		c1.771,3.614,5.395,5.714,9.166,5.714c1.506,0,3.036-0.336,4.48-1.042c5.058-2.478,7.15-8.589,4.67-13.647l-8.499-17.344
		c4.702-5.07,7.584-11.851,7.584-19.296v-5.985h100.984v7.333c0,16.035,13.046,29.081,29.082,29.081h69.459
		C498.954,264.682,512,251.637,512,235.602v-17.533c0-5.633-4.567-10.199-10.199-10.199h-97.023V183.76h3.962
		c5.632,0,10.199-4.566,10.199-10.199c0-5.633-4.567-10.199-10.199-10.199h-28.323c-5.632,0-10.199,4.566-10.199,10.199
		c0,5.633,4.567,10.199,10.199,10.199h3.962v24.109H127.621z M107.222,235.602c0,4.788-3.895,8.683-8.684,8.683H29.081
		c-4.788,0-8.683-3.895-8.683-8.683v-7.334h86.824V235.602z M262.997,234.252c0,4.416-3.592,8.008-8.009,8.008
		c-4.415,0-8.008-3.592-8.008-8.008v-5.985h16.017v5.985H262.997z M491.602,235.602c0,4.788-3.894,8.683-8.683,8.683H413.46
		c-4.788,0-8.684-3.895-8.684-8.683v-7.334h86.825V235.602z"/>
	<path style="fill:#4D1E1E;" d="M284.193,294.781c-5.058,2.479-7.15,8.589-4.67,13.647l1.997,4.076
		c1.771,3.615,5.395,5.714,9.166,5.714c1.506,0,3.036-0.336,4.481-1.042c5.058-2.479,7.15-8.589,4.67-13.647l-1.997-4.076
		C295.362,294.395,289.254,292.305,284.193,294.781z"/>
</g>
<g>
</g>
<g>
</g>
<g>
</g>
<g>
</g>
<g>
</g>
<g>
</g>
<g>
</g>
<g>
</g>
<g>
</g>
<g>
</g>
<g>
</g>
<g>
</g>
<g>
</g>
<g>
</g>
<g>
</g>
</svg>
