<?xml version="1.0" encoding="iso-8859-1"?>
<!-- Generator: Adobe Illustrator 19.0.0, SVG Export Plug-In . SVG Version: 6.00 Build 0)  -->
<svg version="1.1" id="Layer_1" xmlns="http://www.w3.org/2000/svg" xmlns:xlink="http://www.w3.org/1999/xlink" x="0px" y="0px"
	 viewBox="0 0 512 512" style="enable-background:new 0 0 512 512;" xml:space="preserve">
<g>
	<g>
		<path d="M456.348,33.391h-116.87V16.696c0-9.22-7.475-16.696-16.696-16.696H189.217c-9.22,0-16.696,7.475-16.696,16.696v16.696
			H55.652c-9.22,0-16.696,7.475-16.696,16.696v445.217c0,9.22,7.475,16.696,16.696,16.696h400.696
			c9.22,0,16.696-7.475,16.696-16.696V50.087C473.043,40.867,465.568,33.391,456.348,33.391z M205.913,33.391h100.174v33.391
			H205.913V33.391z M439.652,478.609H72.348V66.783h100.174v16.696c0,9.22,7.475,16.696,16.696,16.696h133.565
			c9.22,0,16.696-7.475,16.696-16.696V66.783h100.174V478.609z"/>
	</g>
</g>
<g>
	<g>
		<path d="M179.437,205.913l21.586-21.586c6.52-6.519,6.52-17.091,0-23.611c-6.519-6.519-17.091-6.519-23.611,0l-21.586,21.586
			l-21.586-21.586c-6.519-6.519-17.091-6.519-23.611,0c-6.52,6.519-6.52,17.091,0,23.611l21.586,21.586l-21.586,21.586
			c-6.519,6.519-6.519,17.091,0.001,23.61c3.259,3.26,7.532,4.891,11.805,4.891c4.273,0,8.546-1.631,11.805-4.891l21.586-21.585
			l21.586,21.586c3.259,3.259,7.532,4.89,11.805,4.89c4.273,0,8.546-1.631,11.805-4.891c6.52-6.519,6.52-17.091,0-23.611
			L179.437,205.913z"/>
	</g>
</g>
<g>
	<g>
		<path d="M389.565,189.217H256c-9.22,0-16.696,7.475-16.696,16.696c0,9.22,7.475,16.696,16.696,16.696h133.565
			c9.22,0,16.696-7.475,16.696-16.696C406.261,196.693,398.786,189.217,389.565,189.217z"/>
	</g>
</g>
<g>
	<g>
		<path d="M389.565,356.174H256c-9.22,0-16.696,7.475-16.696,16.696s7.475,16.696,16.696,16.696h133.565
			c9.22,0,16.696-7.475,16.696-16.696S398.786,356.174,389.565,356.174z"/>
	</g>
</g>
<g>
	<g>
		<path d="M155.826,322.783c-27.618,0-50.087,22.469-50.087,50.087s22.469,50.087,50.087,50.087
			c27.618,0,50.087-22.469,50.087-50.087S183.444,322.783,155.826,322.783z M155.826,389.565c-9.206,0-16.696-7.49-16.696-16.696
			s7.49-16.696,16.696-16.696c9.206,0,16.696,7.49,16.696,16.696S165.032,389.565,155.826,389.565z"/>
	</g>
</g>
<g>
</g>
<g>
</g>
<g>
</g>
<g>
</g>
<g>
</g>
<g>
</g>
<g>
</g>
<g>
</g>
<g>
</g>
<g>
</g>
<g>
</g>
<g>
</g>
<g>
</g>
<g>
</g>
<g>
</g>
</svg>
