<?xml version="1.0" encoding="iso-8859-1"?>
<!-- Generator: Adobe Illustrator 19.0.0, SVG Export Plug-In . SVG Version: 6.00 Build 0)  -->
<svg version="1.1" id="Layer_1" xmlns="http://www.w3.org/2000/svg" xmlns:xlink="http://www.w3.org/1999/xlink" x="0px" y="0px"
	 viewBox="0 0 512 512" style="enable-background:new 0 0 512 512;" xml:space="preserve">
<g>
	<g>
		<path d="M434.741,349.915c-0.006-0.006-0.01-0.011-0.014-0.017l-50.609-50.609c-6.519-6.52-17.091-6.52-23.611,0
			c-6.52,6.52-6.52,17.091,0,23.611l22.143,22.143H261.565V310.32c31.796-5.072,60.969-24.605,83.454-56.288
			C370.157,218.612,384,171.876,384,122.435c0-9.22-7.475-16.696-16.696-16.696c-9.22,0-16.696,7.475-16.696,16.696
			c0,42.577-11.656,82.45-32.82,112.273c-15.789,22.248-35.321,36.568-56.223,41.564V118.22l22.107,22.107
			c3.26,3.26,7.533,4.891,11.805,4.891s8.546-1.629,11.805-4.891c6.52-6.52,6.52-17.091,0-23.611l-50.609-50.609
			c-6.519-6.52-17.091-6.52-23.611,0l-50.087,50.087c-6.52,6.52-6.52,17.091,0,23.611c6.519,6.52,17.091,6.52,23.611,0
			l21.587-21.585v158.051c-20.902-4.996-40.433-19.317-56.223-41.564c-21.164-29.822-32.82-69.694-32.82-112.272
			c0-9.22-7.475-16.696-16.696-16.696c-9.22,0-16.696,7.475-16.696,16.696c0,49.441,13.844,96.177,38.981,131.597
			c22.485,31.683,51.656,51.216,83.454,56.288v34.724H89.044c-9.22,0-16.696,7.475-16.696,16.696s7.475,16.696,16.696,16.696h139.13
			v50.087c0,9.22,7.475,16.696,16.696,16.696s16.696-7.475,16.696-16.696v-50.087h121.016l-21.551,21.551
			c-6.52,6.52-6.52,17.091,0,23.611c3.26,3.26,7.533,4.891,11.805,4.891c4.272,0,8.546-1.629,11.805-4.891l49.356-49.356
			c3.462-3.059,5.656-7.52,5.656-12.502C439.652,357.119,437.774,352.938,434.741,349.915z"/>
	</g>
</g>
<g>
	<g>
		<path d="M489.739,0H22.261C13.04,0,5.565,7.475,5.565,16.696v478.609c0,9.22,7.475,16.696,16.696,16.696h467.478
			c9.22,0,16.696-7.475,16.696-16.696V16.696C506.435,7.475,498.96,0,489.739,0z M473.043,478.609H38.957V33.391h434.087V478.609z"
			/>
	</g>
</g>
<g>
</g>
<g>
</g>
<g>
</g>
<g>
</g>
<g>
</g>
<g>
</g>
<g>
</g>
<g>
</g>
<g>
</g>
<g>
</g>
<g>
</g>
<g>
</g>
<g>
</g>
<g>
</g>
<g>
</g>
</svg>
