<?xml version="1.0" encoding="iso-8859-1"?>
<!-- Generator: Adobe Illustrator 19.0.0, SVG Export Plug-In . SVG Version: 6.00 Build 0)  -->
<svg version="1.1" id="Layer_1" xmlns="http://www.w3.org/2000/svg" xmlns:xlink="http://www.w3.org/1999/xlink" x="0px" y="0px"
	 viewBox="0 0 504 504" style="enable-background:new 0 0 504 504;" xml:space="preserve">
<rect x="110" y="2" style="fill:#33A5D2;" width="288" height="392"/>
<g>
	<rect x="214" y="394" style="fill:#2884A9;" width="80" height="80"/>
	<rect x="186" y="474" style="fill:#2884A9;" width="136" height="24"/>
</g>
<rect x="142" y="34" style="fill:#CDEEF9;" width="224" height="324"/>
<path d="M396,400H108c-2.4,0-4-1.6-4-4V4c0-2.4,1.6-4,4-4h288c2.4,0,4,1.6,4,4v392C400,398.4,398.4,400,396,400z M112,392h280V8H112
	V392z"/>
<path d="M292,480h-80c-2.4,0-4-1.6-4-4v-80c0-2.4,1.6-4,4-4h80c2.4,0,4,1.6,4,4v80C296,478.4,294.4,480,292,480z M216,472h72v-72
	h-72V472z"/>
<path d="M320,504H184c-2.4,0-4-1.6-4-4v-24c0-2.4,1.6-4,4-4h136c2.4,0,4,1.6,4,4v24C324,502.4,322.4,504,320,504z M188,496h128v-16
	H188V496z"/>
<path d="M364,364H140c-2.4,0-4-1.6-4-4V36c0-2.4,1.6-4,4-4h170c2.4,0,4,1.6,4,4s-1.6,4-4,4H144v316h216V40h-14c-2.4,0-4-1.6-4-4
	s1.6-4,4-4h18c2.4,0,4,1.6,4,4v324C368,362.4,366.4,364,364,364z"/>
<g>
</g>
<g>
</g>
<g>
</g>
<g>
</g>
<g>
</g>
<g>
</g>
<g>
</g>
<g>
</g>
<g>
</g>
<g>
</g>
<g>
</g>
<g>
</g>
<g>
</g>
<g>
</g>
<g>
</g>
</svg>
