<?xml version="1.0" encoding="iso-8859-1"?>
<!-- Generator: Adobe Illustrator 16.0.0, SVG Export Plug-In . SVG Version: 6.00 Build 0)  -->
<!DOCTYPE svg PUBLIC "-//W3C//DTD SVG 1.1//EN" "http://www.w3.org/Graphics/SVG/1.1/DTD/svg11.dtd">
<svg version="1.1" id="Capa_1" xmlns="http://www.w3.org/2000/svg" xmlns:xlink="http://www.w3.org/1999/xlink" x="0px" y="0px"
	 width="613.281px" height="613.281px" viewBox="0 0 613.281 613.281" style="enable-background:new 0 0 613.281 613.281;"
	 xml:space="preserve">
<g>
	<g>
		<path d="M504.546,471.8c30.003-40.736,47.779-91.002,47.779-145.351c0-135.496-110.236-245.689-245.689-245.689
			c-135.472,0-245.689,110.194-245.689,245.689c0,54.354,17.776,104.623,47.779,145.359v72.699H60.736v68.133h76.687h51.025h236.39
			h51.025h82.353v-68.133h-53.665V471.8H504.546z M306.641,128.539c109.108,0,197.905,88.764,197.905,197.905
			c0,109.108-88.797,197.905-197.905,197.905c-109.127,0-197.905-88.797-197.905-197.905
			C108.735,217.303,197.514,128.539,306.641,128.539z"/>
		<path d="M338.47,443.504l37.466-21.649l-50.543-87.846V171.063h-43.304v168.74c0,3.806,0.995,7.525,2.897,10.824L338.47,443.504z"
			/>
		<path d="M250.858,40.392C224.212,15.73,188.582,0.641,149.414,0.641c-29.18,0-56.385,8.396-79.393,22.859
			C64.475,10.447,51.537,1.291,36.457,1.291C16.323,1.286,0,17.609,0,37.743c0,15.152,9.242,28.138,22.396,33.641
			C8.214,94.238,0,121.181,0,150.055c0,33,10.72,63.485,28.836,88.209C60.798,137.795,145.838,60.832,250.858,40.392z"/>
		<path d="M590.595,70.925C603.207,65.192,612,52.508,612,37.743c0-20.134-16.323-36.457-36.457-36.457
			c-14.831,0-27.568,8.869-33.264,21.583C519.482,8.788,492.631,0.641,463.867,0.641c-39.168,0-74.798,15.09-101.443,39.751
			c105.01,20.44,190.055,97.403,222.017,197.872c18.116-24.724,28.841-55.209,28.841-88.209
			C613.281,120.985,604.952,93.875,590.595,70.925z"/>
	</g>
</g>
<g>
</g>
<g>
</g>
<g>
</g>
<g>
</g>
<g>
</g>
<g>
</g>
<g>
</g>
<g>
</g>
<g>
</g>
<g>
</g>
<g>
</g>
<g>
</g>
<g>
</g>
<g>
</g>
<g>
</g>
</svg>
