<?xml version="1.0" encoding="iso-8859-1"?>
<!-- Generator: Adobe Illustrator 19.0.0, SVG Export Plug-In . SVG Version: 6.00 Build 0)  -->
<svg version="1.1" id="Layer_1" xmlns="http://www.w3.org/2000/svg" xmlns:xlink="http://www.w3.org/1999/xlink" x="0px" y="0px"
	 viewBox="0 0 512 512" style="enable-background:new 0 0 512 512;" xml:space="preserve">
<path style="fill:#22313F;" d="M394.18,204.914L304.978,96.395c-6.538-7.952-5.39-19.7,2.564-26.236
	c7.955-6.539,19.7-5.39,26.237,2.564l89.202,108.519c6.538,7.952,5.39,19.7-2.564,26.236
	C412.466,214.015,400.72,212.868,394.18,204.914z"/>
<path style="fill:#FFD155;" d="M389.822,249.517c-17.664-21.488-14.57-53.173,6.922-70.84c21.437-17.622,53.217-14.517,70.839,6.921
	c0.001,0,0.001,0.001,0.001,0.001c17.622,21.438,14.517,53.217-6.921,70.84C439.236,274.05,407.525,271.053,389.822,249.517z"/>
<path style="fill:#2C3E50;" d="M256,243.675c-10.295,0-18.641-8.346-18.641-18.641V84.557c0-10.295,8.346-18.641,18.641-18.641
	s18.641,8.346,18.641,18.641v140.477C274.641,235.329,266.295,243.675,256,243.675z"/>
<path style="fill:#22313F;" d="M256,65.916v177.758c10.295,0,18.641-8.346,18.641-18.641V84.557
	C274.641,74.262,266.295,65.916,256,65.916z"/>
<path style="fill:#FFDA79;" d="M256,307.053c-27.752,0-50.33-22.579-50.33-50.33c0-27.752,22.578-50.33,50.33-50.33
	s50.33,22.578,50.33,50.33S283.752,307.053,256,307.053z"/>
<path style="fill:#2C3E50;" d="M192.621,243.675c-10.295,0-18.641-8.346-18.641-18.641V84.557c0-10.295,8.346-18.641,18.641-18.641
	c10.295,0,18.641,8.346,18.641,18.641v140.477C211.262,235.329,202.916,243.675,192.621,243.675z"/>
<path style="fill:#FFDA79;" d="M192.621,307.053c-27.752,0-50.33-22.579-50.33-50.33c0-27.752,22.578-50.33,50.33-50.33
	s50.33,22.578,50.33,50.33S220.374,307.053,192.621,307.053z"/>
<path style="fill:#D1D3D4;" d="M461.344,384.15H50.656c-10.295,0-18.641-8.346-18.641-18.641V84.557
	c0-10.295,8.346-18.641,18.641-18.641h410.69c10.295,0,18.641,8.346,18.641,18.641V365.51
	C479.985,375.804,471.639,384.15,461.344,384.15z M69.296,346.869h373.408V103.198H69.296V346.869z"/>
<path style="fill:#BCBEC0;" d="M461.344,65.916H256v37.282h186.704v243.671H256v37.282h205.344c10.295,0,18.641-8.346,18.641-18.641
	V84.557C479.985,74.262,471.639,65.916,461.344,65.916z"/>
<path style="fill:#6A82A1;" d="M493.359,446.084H18.641C8.346,446.084,0,437.738,0,427.443V365.51
	c0-10.295,8.346-18.641,18.641-18.641h474.718c10.295,0,18.641,8.346,18.641,18.641v61.933
	C512,437.739,503.654,446.084,493.359,446.084z"/>
<path style="fill:#36495E;" d="M493.359,346.869H256v99.215h237.359c10.295,0,18.641-8.346,18.641-18.641V365.51
	C512,355.215,503.654,346.869,493.359,346.869z"/>
<path style="fill:#FFD155;" d="M256,206.393v100.66c27.752,0,50.33-22.579,50.33-50.33C306.33,228.971,283.752,206.393,256,206.393z
	"/>
<g>
</g>
<g>
</g>
<g>
</g>
<g>
</g>
<g>
</g>
<g>
</g>
<g>
</g>
<g>
</g>
<g>
</g>
<g>
</g>
<g>
</g>
<g>
</g>
<g>
</g>
<g>
</g>
<g>
</g>
</svg>
