<?xml version="1.0" encoding="iso-8859-1"?>
<!-- Generator: Adobe Illustrator 19.0.0, SVG Export Plug-In . SVG Version: 6.00 Build 0)  -->
<svg version="1.1" id="Layer_1" xmlns="http://www.w3.org/2000/svg" xmlns:xlink="http://www.w3.org/1999/xlink" x="0px" y="0px"
	 viewBox="0 0 512 512" style="enable-background:new 0 0 512 512;" xml:space="preserve">
<path style="fill:#6A82A1;" d="M429.658,265.092c-11.757,0-21.288-9.531-21.288-21.288V138.983c0-53.16-43.248-96.408-96.408-96.408
	h-35.309c-20.71,0-37.56,16.85-37.56,37.56v163.667c0,11.757-9.531,21.288-21.288,21.288s-21.288-9.531-21.288-21.288V80.136
	C196.516,35.948,232.466,0,276.652,0h35.309c76.636,0,138.983,62.348,138.983,138.983v104.819
	C450.946,255.561,441.415,265.092,429.658,265.092z"/>
<path style="fill:#36495E;" d="M311.961,0h-35.309c-23.242,0-44.196,9.956-58.848,25.815v239.277
	c11.757,0,21.288-9.531,21.288-21.288V80.136c0-20.71,16.85-37.56,37.56-37.56h35.309c53.16,0,96.408,43.248,96.408,96.408v104.819
	c0,11.757,9.531,21.288,21.288,21.288s21.288-9.531,21.288-21.288V138.983C450.946,62.348,388.597,0,311.961,0z"/>
<path style="fill:#F1F2F2;" d="M217.804,512c-86.43,0-156.744-70.316-156.744-156.746V152.219c0-44.186,35.949-80.136,80.136-80.136
	h153.219c44.188,0,80.136,35.949,80.136,80.136v203.037C374.55,441.685,304.235,512,217.804,512z"/>
<g>
	<path style="fill:#E6E7E8;" d="M294.414,72.083h-76.61V512c86.43,0,156.746-70.316,156.746-156.746V152.219
		C374.55,108.031,338.601,72.083,294.414,72.083z"/>
	<rect x="61.055" y="222.514" style="fill:#E6E7E8;" width="313.497" height="42.575"/>
</g>
<rect x="217.804" y="222.514" style="fill:#D1D3D4;" width="156.749" height="42.575"/>
<path style="fill:#E6E7E8;" d="M239.092,243.804c0-178.181-0.375-166.006,0.878-171.721h-43.049
	c-0.578,5.765-0.404-6.602-0.404,171.721c0,11.757,9.531,21.288,21.288,21.288C229.561,265.092,239.092,255.561,239.092,243.804z"/>
<path style="fill:#D1D3D4;" d="M217.804,72.083v193.009c11.757,0,21.288-9.531,21.288-21.288c0-178.181-0.375-166.006,0.878-171.721
	L217.804,72.083L217.804,72.083z"/>
<g>
</g>
<g>
</g>
<g>
</g>
<g>
</g>
<g>
</g>
<g>
</g>
<g>
</g>
<g>
</g>
<g>
</g>
<g>
</g>
<g>
</g>
<g>
</g>
<g>
</g>
<g>
</g>
<g>
</g>
</svg>
