<?xml version="1.0" encoding="iso-8859-1"?>
<!-- Generator: Adobe Illustrator 19.0.0, SVG Export Plug-In . SVG Version: 6.00 Build 0)  -->
<svg version="1.1" id="Layer_1" xmlns="http://www.w3.org/2000/svg" xmlns:xlink="http://www.w3.org/1999/xlink" x="0px" y="0px"
	 viewBox="0 0 511.987 511.987" style="enable-background:new 0 0 511.987 511.987;" xml:space="preserve">
<path style="fill:#424953;" d="M60.187,94.461c-87.022,75.835-17.773,220.886-17.773,220.886l128.239,31.107l175.746-218.407
	C346.398,128.047,122.411,40.244,60.187,94.461z"/>
<g>
	<path style="fill:#E5E8EC;" d="M299.431,202.935c-4.172,4.164-10.938,4.164-15.094,0l-45.249-45.256
		c-4.164-4.164-4.164-10.914,0-15.078l80.607-80.615c4.172-4.164,10.922-4.164,15.078,0l45.248,45.256
		c4.188,4.164,4.188,10.922,0,15.086L299.431,202.935z"/>
	<path style="fill:#E5E8EC;" d="M362.554,175.944c-28.468-28.453-66.295-44.124-106.536-44.124s-78.076,15.671-106.536,44.124
		c-28.453,28.46-44.124,66.295-44.124,106.543c0,40.25,15.671,78.076,44.124,106.527c28.46,28.469,66.295,44.141,106.536,44.141
		s78.068-15.672,106.536-44.141c28.452-28.451,44.123-66.277,44.123-106.527C406.677,242.239,391.006,204.404,362.554,175.944z"/>
	<path style="fill:#E5E8EC;" d="M156.981,392.093h-28.288c-5.891,0-10.664-4.766-10.664-10.654c0-5.906,4.773-10.672,10.664-10.672
		h28.288c5.891,0,10.664,4.766,10.664,10.672C167.645,387.327,162.871,392.093,156.981,392.093z"/>
	<path style="fill:#E5E8EC;" d="M158.645,421.671c-4.71,0-9.023-3.141-10.296-7.906c-1.531-5.688,1.852-11.531,7.539-13.062
		l27.32-7.328c5.688-1.516,11.539,1.859,13.062,7.547c1.522,5.688-1.852,11.547-7.539,13.062l-27.32,7.328
		C160.481,421.561,159.551,421.671,158.645,421.671z"/>
	<path style="fill:#E5E8EC;" d="M195.246,442.483c-3.688,0-7.273-1.906-9.25-5.328c-2.945-5.109-1.195-11.625,3.906-14.578
		l24.491-14.141c5.101-2.938,11.625-1.188,14.57,3.906c2.945,5.109,1.203,11.625-3.898,14.578l-24.5,14.141
		C198.886,442.03,197.05,442.483,195.246,442.483z"/>
	<path style="fill:#E5E8EC;" d="M235.963,453.124c-2.734,0-5.461-1.047-7.547-3.125c-4.164-4.172-4.164-10.922,0-15.078l20-20
		c4.172-4.172,10.922-4.172,15.086,0c4.164,4.156,4.164,10.906,0,15.078l-20,20C241.424,452.077,238.689,453.124,235.963,453.124z"
		/>
	<path style="fill:#E5E8EC;" d="M278.056,452.858c-1.812,0-3.656-0.453-5.344-1.438c-5.094-2.938-6.836-9.469-3.898-14.562
		l14.147-24.5c2.938-5.094,9.469-6.844,14.562-3.906c5.108,2.953,6.843,9.469,3.905,14.578l-14.14,24.5
		C285.306,450.952,281.743,452.858,278.056,452.858z"/>
	<path style="fill:#E5E8EC;" d="M318.648,441.702c-0.906,0-1.844-0.109-2.766-0.359c-5.688-1.531-9.078-7.375-7.547-13.062
		l7.312-27.328c1.531-5.688,7.375-9.062,13.078-7.531c5.688,1.516,9.062,7.359,7.547,13.062l-7.328,27.312
		C327.68,438.561,323.367,441.702,318.648,441.702z"/>
	<path style="fill:#E5E8EC;" d="M354.961,420.421c-5.891,0-10.656-4.766-10.656-10.656v-28.279c0-5.906,4.766-10.672,10.656-10.672
		c5.906,0,10.671,4.766,10.671,10.672v28.279C365.632,415.655,360.867,420.421,354.961,420.421z"/>
	<path style="fill:#E5E8EC;" d="M384.521,390.468c-4.703,0-8.999-3.141-10.28-7.904l-7.328-27.312
		c-1.516-5.688,1.859-11.547,7.547-13.062c5.687-1.531,11.53,1.844,13.062,7.531l7.312,27.328c1.531,5.688-1.844,11.529-7.53,13.061
		C386.365,390.358,385.443,390.468,384.521,390.468z"/>
</g>
<path style="fill:#F4F6F9;" d="M134.747,363.095c-0.914,0-1.843-0.109-2.773-0.359l-27.32-7.328
	c-5.688-1.516-9.062-7.375-7.539-13.062c1.523-5.687,7.375-9.061,13.062-7.545l27.319,7.326c5.688,1.516,9.07,7.375,7.547,13.062
	C143.763,359.954,139.45,363.095,134.747,363.095z"/>
<path style="fill:#CCD1D9;" d="M255.955,239.754c-23.523,0-42.663,19.139-42.663,42.67s19.14,42.672,42.663,42.672
	c23.538,0,42.663-19.141,42.663-42.672S279.493,239.754,255.955,239.754z"/>
<path style="fill:#424953;" d="M263.502,274.878c4.164,4.172,4.164,10.922,0,15.094c-4.164,4.156-10.922,4.156-15.086,0
	c-4.164-4.172-4.164-10.922,0-15.094C252.58,270.714,259.338,270.714,263.502,274.878z"/>
<g>
	<path style="fill:#646C77;" d="M28.875,136.671c-4.727,10.546-7.914,21.523-9.898,32.632c2.773-2.805,10.633-9.867,24.46-15.891
		c16.421-7.156,44.858-14.273,87.115-7.547l3.352-21.062C83.944,116.844,49.945,126.062,28.875,136.671z"/>
	<path style="fill:#646C77;" d="M94.99,174.592c-35.975,6.016-61.912,21.905-78.482,35.718c0.406,9.125,1.367,18.077,2.695,26.655
		c3.477-3.641,8.148-8.086,14.031-12.703c19.007-14.937,40.968-24.569,65.271-28.632L94.99,174.592z"/>
	<path style="fill:#646C77;" d="M27.985,275.972c2.695,9.203,5.476,17.203,7.867,23.547c5.414-6.734,23.585-27.969,52.788-48.756
		l-12.376-17.384C54.054,249.192,37.805,265.198,27.985,275.972z"/>
</g>
<path style="fill:#5E9CEA;" d="M149.333,111.797c-106.669,49.405-74.67,234.657-74.67,234.657h95.99
	c-13.406-17.826-21.359-39.998-21.359-64.029c0-58.913,47.756-106.668,106.661-106.668c58.912,0,106.661,47.756,106.661,106.668
	c0,24.031-7.937,46.203-21.343,64.029h96.06c0,0,10.655-234.657-159.995-234.657C170.489,111.797,149.333,111.797,149.333,111.797z"
	/>
<path style="fill:#424953;" d="M501.331,335.8h-10.688c0-5.891-4.766-10.672-10.656-10.672s-10.656,4.781-10.656,10.672H10.664
	C4.774,335.8,0,340.564,0,346.454s4.773,10.672,10.664,10.672h490.667c5.875,0,10.656-4.781,10.656-10.672
	S507.206,335.8,501.331,335.8z"/>
<g>
</g>
<g>
</g>
<g>
</g>
<g>
</g>
<g>
</g>
<g>
</g>
<g>
</g>
<g>
</g>
<g>
</g>
<g>
</g>
<g>
</g>
<g>
</g>
<g>
</g>
<g>
</g>
<g>
</g>
</svg>
