<?xml version="1.0" encoding="iso-8859-1"?>
<!-- Generator: Adobe Illustrator 17.1.0, SVG Export Plug-In . SVG Version: 6.00 Build 0)  -->
<!DOCTYPE svg PUBLIC "-//W3C//DTD SVG 1.1//EN" "http://www.w3.org/Graphics/SVG/1.1/DTD/svg11.dtd">
<svg version="1.1" id="Capa_1" xmlns="http://www.w3.org/2000/svg" xmlns:xlink="http://www.w3.org/1999/xlink" x="0px" y="0px"
	 viewBox="0 0 210.613 210.613" style="enable-background:new 0 0 210.613 210.613;" xml:space="preserve">
<path d="M116.884,188.805c-18.839,0-34.166-15.327-34.166-34.166c0-2.089,0.188-4.137,0.55-6.124l-48.554-32.198
	c-1.664,0.327-3.352,0.492-5.03,0.492C13.316,116.809,0,101.408,0,82.479c0-19.255,13.316-34.92,29.684-34.92
	c16.365,0,29.68,15.663,29.682,34.916h37.228l4.344-32.437H64.259c-1.381,0-2.5-1.119-2.5-2.5c0-6.938,5.646-12.584,12.584-12.584
	h28.083c0.686-7.362,6.899-13.146,14.438-13.146s13.752,5.783,14.438,13.146h28.125c6.938,0,12.583,5.646,12.583,12.584
	c0,1.381-1.119,2.5-2.5,2.5H132.79l4.344,32.437h26.646c25.824,0,46.834,21.01,46.834,46.834c0,21.597-17.569,39.166-39.166,39.166
	h-23.324C142.802,180.439,130.801,188.805,116.884,188.805z M88.517,147.845c-0.522,2.181-0.799,4.456-0.799,6.794
	c0,16.082,13.084,29.166,29.166,29.166c12.296,0,22.839-7.648,27.122-18.437c0.024-0.098,0.055-0.193,0.092-0.289
	c1.71-4.459,2.291-9.152,1.726-13.95c-0.263-2.227-0.775-4.373-1.511-6.414c-3.876-10.68-13.821-18.474-25.646-19.189
	c-4.315-0.258-8.526,0.436-12.4,1.947c-6.189,2.428-11.355,6.913-14.649,12.609C89.647,143.749,88.667,147.277,88.517,147.845z
	 M149.893,163.475h21.555c14.463,0,26.855-9.032,31.833-21.753h-54.763c0.139,0.34,0.272,0.683,0.399,1.027
	c1.38,3.704,2.134,7.711,2.134,11.89C151.051,157.692,150.647,160.655,149.893,163.475z M35.215,111.147
	c0.487,0,0.969,0.143,1.382,0.417l48.017,31.844c0.698-2,1.577-3.917,2.618-5.729c0.053-0.099,0.106-0.197,0.16-0.295
	c0.147-0.268,0.306-0.566,0.473-0.89c0.119-0.229,0.27-0.435,0.446-0.611c4.106-6.243,10.039-10.849,16.82-13.329
	c3.666-1.348,7.625-2.083,11.753-2.083c0.746,0,1.487,0.024,2.223,0.071c0.145,0.01,0.29,0.02,0.436,0.03
	c11.152,0.854,20.853,7.087,26.438,16.148h58.824c0.53-2.388,0.81-4.868,0.81-7.413c0-0.839-0.024-1.673-0.074-2.5H182.78
	c-19.392,0-35.167-15.775-35.167-35.167v-4.167H56.775c-0.691,0-1.353-0.287-1.825-0.792s-0.715-1.184-0.669-1.873
	c0.057-0.856,0.084-1.618,0.084-2.331c0-16.498-11.072-29.92-24.682-29.92C16.073,52.559,5,65.98,5,82.479
	c0,16.173,11.073,29.33,24.684,29.33c1.652,0,3.316-0.199,4.945-0.592C34.822,111.171,35.02,111.147,35.215,111.147z
	 M152.613,87.475v4.167c0,16.634,13.533,30.167,30.167,30.167h22.159c-3.544-19.501-20.652-34.334-41.16-34.334H152.613z
	 M101.638,82.475h30.451l-4.33-32.333h-21.791L101.638,82.475z M67.182,45.038h99.404c-1.036-2.957-3.854-5.084-7.16-5.084H74.343
	C71.036,39.954,68.218,42.081,67.182,45.038z M107.46,34.954h18.807c-0.659-4.599-4.625-8.146-9.403-8.146
	S108.119,30.355,107.46,34.954z M116.884,172.555c-9.879,0-17.916-8.037-17.916-17.916c0-9.88,8.037-17.917,17.916-17.917
	c9.88,0,17.917,8.037,17.917,17.917C134.801,164.518,126.764,172.555,116.884,172.555z M116.884,141.722
	c-7.122,0-12.916,5.795-12.916,12.917s5.794,12.916,12.916,12.916s12.917-5.794,12.917-12.916S124.006,141.722,116.884,141.722z"/>
<g>
</g>
<g>
</g>
<g>
</g>
<g>
</g>
<g>
</g>
<g>
</g>
<g>
</g>
<g>
</g>
<g>
</g>
<g>
</g>
<g>
</g>
<g>
</g>
<g>
</g>
<g>
</g>
<g>
</g>
</svg>
