<?xml version="1.0" encoding="iso-8859-1"?>
<!-- Generator: Adobe Illustrator 19.0.0, SVG Export Plug-In . SVG Version: 6.00 Build 0)  -->
<svg version="1.1" id="Layer_1" xmlns="http://www.w3.org/2000/svg" xmlns:xlink="http://www.w3.org/1999/xlink" x="0px" y="0px"
	 viewBox="0 0 500.004 500.004" style="enable-background:new 0 0 500.004 500.004;" xml:space="preserve">
<g>
	<g>
		<path d="M327.43,160.156h-46.18v-46.604c0-6.804-6.088-11.988-13.304-11.988h-36.092c-7.22,0-13.104,5.184-13.104,11.988v46.604
			h-46.176c-6.784,0-12.416,6.328-12.416,13.552v36.488c0,7.22,5.632,12.464,12.416,12.464h46.176v45.908
			c0,6.8,5.884,12.688,13.104,12.688h36.092c7.216,0,13.304-5.888,13.304-12.688v-45.912h46.18c6.784,0,12.416-5.244,12.416-12.464
			v-36.488C339.846,166.484,334.218,160.156,327.43,160.156z"/>
	</g>
</g>
<g>
	<g>
		<path d="M250.002,0C144.234,0,58.178,86.052,58.178,191.824c0,192.292,187.924,306.496,189.824,307.628
			c0.612,0.368,1.308,0.552,2,0.552s1.388-0.184,2-0.552c1.9-1.132,189.824-115.332,189.824-307.628
			C441.822,86.052,355.77,0,250.002,0z M250.002,321.664c-71.592,0-129.84-58.248-129.84-129.84c0-71.6,58.248-129.84,129.84-129.84
			s129.836,58.244,129.836,129.84C379.838,263.416,321.594,321.664,250.002,321.664z"/>
	</g>
</g>
<g>
</g>
<g>
</g>
<g>
</g>
<g>
</g>
<g>
</g>
<g>
</g>
<g>
</g>
<g>
</g>
<g>
</g>
<g>
</g>
<g>
</g>
<g>
</g>
<g>
</g>
<g>
</g>
<g>
</g>
</svg>
