<?xml version="1.0" encoding="iso-8859-1"?>
<!-- Generator: Adobe Illustrator 19.0.0, SVG Export Plug-In . SVG Version: 6.00 Build 0)  -->
<svg version="1.1" id="Layer_1" xmlns="http://www.w3.org/2000/svg" xmlns:xlink="http://www.w3.org/1999/xlink" x="0px" y="0px"
	 viewBox="0 0 512 512" style="enable-background:new 0 0 512 512;" xml:space="preserve">
<path style="fill:#CFD16A;" d="M257.611,75.401c23.893,18.216,56.043,25.439,87.666,16.781s55.61-31.251,66.89-59.098l-77.278,9.98
	L257.611,75.401z"/>
<path style="fill:#ADBF3B;" d="M324.501,16.304c-31.623,8.658-55.61,31.251-66.89,59.098l154.556-42.317
	C388.275,14.868,356.125,7.645,324.501,16.304z"/>
<path style="fill:#76472D;" d="M256,0c-4.939,0-8.943,4.004-8.943,8.943v175.968h17.886V8.943C264.943,4.004,260.939,0,256,0z"/>
<path style="fill:#FF4C1C;" d="M462.309,267.982l-412.725,0.71c-1.562,11.017-2.4,22.526-2.4,34.493
	C47.185,418.511,140.675,512,256,512s208.815-93.489,208.815-208.815C464.816,290.958,463.937,279.214,462.309,267.982z"/>
<path style="fill:#992B12;" d="M256,162.553C177.812,84.365,67.141,144.808,49.585,268.69c26.65,20.652,59.478,37.297,94.812,48.702
	v79.723c0,11.717,9.499,21.217,21.217,21.217c11.718,0,21.217-9.499,21.217-21.217v-68.938c22.17,4.198,45.331,6.439,69.17,6.439
	c80.678,0,153.673-25.487,206.309-66.637C444.429,144.58,334.039,84.515,256,162.553z"/>
<path style="fill:#BF2B06;" d="M94.904,257.818c-0.834,0-1.68-0.116-2.521-0.363c-4.74-1.391-7.454-6.36-6.064-11.1
	c1.593-5.431,3.444-10.763,5.499-15.845c5.3-13.105,12.086-24.929,20.167-35.145c10.8-13.65,23.827-24.098,37.672-30.215
	c9.438-4.171,19.059-6.287,28.595-6.287c4.939,0,8.943,4.004,8.943,8.943c0,4.939-4.004,8.943-8.943,8.943
	c-7.029,0-14.218,1.602-21.364,4.761c-11.197,4.947-21.873,13.576-30.877,24.953c-7.025,8.88-12.95,19.227-17.611,30.754
	c-1.836,4.539-3.49,9.307-4.918,14.174C102.339,255.289,98.771,257.818,94.904,257.818z"/>
<g>
</g>
<g>
</g>
<g>
</g>
<g>
</g>
<g>
</g>
<g>
</g>
<g>
</g>
<g>
</g>
<g>
</g>
<g>
</g>
<g>
</g>
<g>
</g>
<g>
</g>
<g>
</g>
<g>
</g>
</svg>
