<?xml version="1.0" encoding="iso-8859-1"?>
<!-- Generator: Adobe Illustrator 19.0.0, SVG Export Plug-In . SVG Version: 6.00 Build 0)  -->
<svg version="1.1" id="Layer_1" xmlns="http://www.w3.org/2000/svg" xmlns:xlink="http://www.w3.org/1999/xlink" x="0px" y="0px"
	 viewBox="0 0 512 512" style="enable-background:new 0 0 512 512;" xml:space="preserve">
<path style="fill:#FFA01F;" d="M512,256.003c0,141.38-114.62,255.993-256.007,255.993C114.615,511.997,0,397.383,0,256.003
	c0-141.386,114.615-256,255.993-256C397.38,0.003,512,114.617,512,256.003z"/>
<path style="fill:#FFEED1;" d="M471.599,256.005c0,119.073-96.537,215.604-215.615,215.604
	c-119.073,0-215.604-96.53-215.604-215.604c0-119.078,96.531-215.608,215.604-215.608
	C375.062,40.396,471.599,136.926,471.599,256.005z"/>
<g>
	<circle style="fill:#FFC778;" cx="334.309" cy="384.348" r="8.533"/>
	<circle style="fill:#FFC778;" cx="372.356" cy="357.428" r="8.533"/>
</g>
<path style="fill:#BF2B06;" d="M333.362,255.998c0,42.73-34.638,77.368-77.368,77.368c-42.739,0-77.377-34.638-77.377-77.368
	c0-42.731,34.638-77.377,77.377-77.377C298.724,178.621,333.362,213.267,333.362,255.998z"/>
<path style="fill:#FFFFFF;" d="M213.766,265.098c-5.027,0-9.102-4.075-9.102-9.102c0-28.303,23.026-51.328,51.328-51.328
	c5.027,0,9.102,4.075,9.102,9.102c0,5.027-4.075,9.102-9.102,9.102c-18.264,0-33.124,14.86-33.124,33.124
	C222.868,261.022,218.794,265.098,213.766,265.098z"/>
<g>
</g>
<g>
</g>
<g>
</g>
<g>
</g>
<g>
</g>
<g>
</g>
<g>
</g>
<g>
</g>
<g>
</g>
<g>
</g>
<g>
</g>
<g>
</g>
<g>
</g>
<g>
</g>
<g>
</g>
</svg>
