<?xml version="1.0" encoding="iso-8859-1"?>
<!-- Generator: Adobe Illustrator 19.0.0, SVG Export Plug-In . SVG Version: 6.00 Build 0)  -->
<svg version="1.1" id="Layer_1" xmlns="http://www.w3.org/2000/svg" xmlns:xlink="http://www.w3.org/1999/xlink" x="0px" y="0px"
	 viewBox="0 0 512 512" style="enable-background:new 0 0 512 512;" xml:space="preserve">
<g>
	<path style="fill:#9E9A9A;" d="M257.435,373.069l-16.948,8.48L91.895,84.543c-5.801-11.514-19.906-16.177-31.432-10.376
		l-1.453,0.733L8.518,100.29L0,83.355l50.516-25.416l1.416-0.708c20.879-10.503,46.396-2.06,56.899,18.806L257.435,373.069z"/>
	
		<rect x="392.251" y="249.754" transform="matrix(-0.4494 -0.8933 0.8933 -0.4494 266.8569 870.5926)" style="fill:#9E9A9A;" width="18.959" height="206.603"/>
</g>
<polyline style="fill:#F2CA7F;" points="302.66,392.474 512,287.454 376.351,17.794 167.126,123.043 302.66,392.474 "/>
<circle style="fill:#898686;" cx="270.706" cy="418.93" r="75.275"/>
<circle style="fill:#BBBBBD;" cx="270.706" cy="418.93" r="35.413"/>
<polygon style="fill:#898686;" points="383.524,264.8 338.045,174.391 369.412,158.612 308.037,138.32 287.744,199.694 
	319.111,183.916 364.589,274.325 "/>
<polygon style="fill:#8CC1EA;" points="59.009,74.899 8.518,100.29 0,83.355 50.516,57.938 "/>
<g>
</g>
<g>
</g>
<g>
</g>
<g>
</g>
<g>
</g>
<g>
</g>
<g>
</g>
<g>
</g>
<g>
</g>
<g>
</g>
<g>
</g>
<g>
</g>
<g>
</g>
<g>
</g>
<g>
</g>
</svg>
