<?xml version="1.0" encoding="iso-8859-1"?>
<!-- Generator: Adobe Illustrator 19.0.0, SVG Export Plug-In . SVG Version: 6.00 Build 0)  -->
<svg version="1.1" id="Layer_1" xmlns="http://www.w3.org/2000/svg" xmlns:xlink="http://www.w3.org/1999/xlink" x="0px" y="0px"
	 viewBox="0 0 512 512" style="enable-background:new 0 0 512 512;" xml:space="preserve">
<g transform="translate(1 1)">
	<polygon style="fill:#FFDD09;" points="383,421.4 502.467,421.4 502.467,301.933 383,301.933 	"/>
	<polygon style="fill:#FD9808;" points="485.4,421.4 502.467,421.4 502.467,301.933 485.4,301.933 	"/>
	<g>
		<path style="fill:#FFDD09;" d="M383,421.4V233.667h-34.133v179.2v42.667H383h85.333c18.773,0,34.133-15.36,34.133-34.133H383z"/>
		<polygon style="fill:#FFDD09;" points="383,301.933 502.467,301.933 502.467,182.467 383,182.467 		"/>
	</g>
	<polygon style="fill:#FD9808;" points="485.4,301.933 502.467,301.933 502.467,182.467 485.4,182.467 	"/>
	<g>
		<polygon style="fill:#54C9FD;" points="425.667,216.6 459.8,216.6 459.8,182.467 425.667,182.467 		"/>
		<polygon style="fill:#54C9FD;" points="425.667,336.067 459.8,336.067 459.8,301.933 425.667,301.933 		"/>
	</g>
	<path style="fill:#FFDD09;" d="M118.467,455.533c0-18.773-15.36-34.133-34.133-34.133S50.2,436.76,50.2,455.533
		s15.36,34.133,34.133,34.133S118.467,474.307,118.467,455.533"/>
	<path style="fill:#FFFFFF;" d="M75.8,455.533c0-14.507,8.533-26.453,21.333-31.573c-4.267-1.707-8.533-2.56-12.8-2.56
		c-18.773,0-34.133,15.36-34.133,34.133s15.36,34.133,34.133,34.133c4.267,0,8.533-0.853,12.8-2.56
		C84.333,481.987,75.8,470.04,75.8,455.533"/>
	<path style="fill:#FFDD09;" d="M263.533,455.533c0-18.773-15.36-34.133-34.133-34.133s-34.133,15.36-34.133,34.133
		s15.36,34.133,34.133,34.133S263.533,474.307,263.533,455.533"/>
	<path style="fill:#FD9808;" d="M229.4,421.4c-4.267,0-8.533,0.853-12.8,2.56c12.8,5.12,21.333,17.067,21.333,31.573
		s-8.533,26.453-21.333,31.573c4.267,1.707,8.533,2.56,12.8,2.56c18.773,0,34.133-15.36,34.133-34.133S248.173,421.4,229.4,421.4"/>
	<g>
		<path style="fill:#FFDD09;" d="M58.733,233.667c0-14.507-11.093-25.6-25.6-25.6s-25.6,11.093-25.6,25.6
			c0,14.507,11.093,25.6,25.6,25.6S58.733,248.173,58.733,233.667"/>
		<path style="fill:#FFDD09;" d="M195.267,20.333h-128v34.133h128c12.8,0,33.28,24.747,50.347,81.067
			c17.067,57.173,26.453,107.52,26.453,243.2H306.2C306.2,159.427,264.387,20.333,195.267,20.333"/>
		<path style="fill:#FFDD09;" d="M127,255v-32.427c0-12.8-4.267-23.893-17.067-23.893H92.867v128H127h51.2v-27.307
			c0-12.8-10.24-23.893-23.893-23.893h-6.827C136.387,276.333,127,266.947,127,255"/>
		<path style="fill:#FFDD09;" d="M92.867,259.267v-59.733h6.827l20.48-145.067H86.04L56.173,222.573
			c1.707,3.413,2.56,6.827,2.56,11.093c0,6.827-2.56,13.653-7.68,17.92l-0.853,7.68H92.867z"/>
		<path style="fill:#FFDD09;" d="M272.067,378.733c0-17.92,0-34.987-0.853-51.2H92.867v-68.267H42.52
			c-19.627,0-34.987,15.36-34.987,34.987v33.28v51.2v50.347c0,14.507,11.947,26.453,26.453,26.453H50.2
			c0-18.773,15.36-34.133,34.133-34.133s34.133,15.36,34.133,34.133h76.8c0-18.773,15.36-34.133,34.133-34.133
			s34.133,15.36,34.133,34.133h16.213c14.507,0,26.453-11.947,26.453-26.453v-50.347H272.067z"/>
	</g>
	<path style="fill:#FFFFFF;" d="M33.133,429.08v-50.347v-51.2v-33.28c0-19.627,15.36-34.987,34.987-34.987h-25.6
		c-19.627,0-34.987,15.36-34.987,34.987v33.28v51.2v50.347c0,14.507,11.947,26.453,26.453,26.453H50.2c0-0.853,0-0.853,0-1.707
		C39.96,450.413,33.133,441.027,33.133,429.08"/>
	<g>
		<path style="fill:#FFDD09;" d="M218.307,213.187l-29.867,29.867c-6.827,6.827-17.067,6.827-23.893,0s-6.827-17.067,0-23.893
			l29.867-29.867c6.827-6.827,17.067-6.827,23.893,0S225.133,207.213,218.307,213.187"/>
		<polygon style="fill:#FFDD09;" points="271.213,307.053 214.893,217.453 189.293,242.2 243.053,327.533 271.213,327.533 		"/>
	</g>
	<path d="M84.333,498.2c-23.893,0-42.667-18.773-42.667-42.667s18.773-42.667,42.667-42.667S127,431.64,127,455.533
		S108.227,498.2,84.333,498.2z M84.333,429.933c-14.507,0-25.6,11.093-25.6,25.6s11.093,25.6,25.6,25.6s25.6-11.093,25.6-25.6
		S98.84,429.933,84.333,429.933z"/>
	<path d="M229.4,498.2c-23.893,0-42.667-18.773-42.667-42.667s18.773-42.667,42.667-42.667s42.667,18.773,42.667,42.667
		S253.293,498.2,229.4,498.2z M229.4,429.933c-14.507,0-25.6,11.093-25.6,25.6s11.093,25.6,25.6,25.6
		c14.507,0,25.6-11.093,25.6-25.6S243.907,429.933,229.4,429.933z"/>
	<path d="M348.867,353.133H306.2c-5.12,0-8.533-3.413-8.533-8.533c0-5.12,3.413-8.533,8.533-8.533h42.667
		c5.12,0,8.533,3.413,8.533,8.533C357.4,349.72,353.987,353.133,348.867,353.133z"/>
	<path d="M348.867,387.267H306.2c-5.12,0-8.533-3.413-8.533-8.533c0-5.12,3.413-8.533,8.533-8.533h42.667
		c5.12,0,8.533,3.413,8.533,8.533C357.4,383.853,353.987,387.267,348.867,387.267z"/>
	<path d="M348.867,421.4H306.2c-5.12,0-8.533-3.413-8.533-8.533c0-5.12,3.413-8.533,8.533-8.533h42.667
		c5.12,0,8.533,3.413,8.533,8.533C357.4,417.987,353.987,421.4,348.867,421.4z"/>
	<path d="M468.333,464.067H348.867c-5.12,0-8.533-3.413-8.533-8.533V233.667c0-5.12,3.413-8.533,8.533-8.533H383
		c5.12,0,8.533,3.413,8.533,8.533v179.2h110.933c5.12,0,8.533,3.413,8.533,8.533C511,445.293,492.227,464.067,468.333,464.067z
		 M357.4,447h110.933c11.093,0,20.48-6.827,23.893-17.067H383c-5.12,0-8.533-3.413-8.533-8.533V242.2H357.4V447z"/>
	<path d="M33.133,267.8C14.36,267.8-1,252.44-1,233.667s15.36-34.133,34.133-34.133s34.133,15.36,34.133,34.133
		S51.907,267.8,33.133,267.8z M33.133,216.6c-9.387,0-17.067,7.68-17.067,17.067c0,9.387,7.68,17.067,17.067,17.067
		s17.067-7.68,17.067-17.067C50.2,224.28,42.52,216.6,33.133,216.6z"/>
	<path d="M306.2,387.267h-34.133c-5.12,0-8.533-3.413-8.533-8.533c0-129.707-8.533-180.907-26.453-240.64
		C220.013,81.773,201.24,63,195.267,63h-128c-5.12,0-8.533-3.413-8.533-8.533V20.333c0-5.12,3.413-8.533,8.533-8.533h128
		c75.093,0,119.467,137.387,119.467,366.933C314.733,383.853,311.32,387.267,306.2,387.267z M280.6,370.2h17.067
		c-0.853-207.36-40.96-341.333-102.4-341.333H75.8v17.067h119.467c20.48,0,41.813,32.427,58.027,87.04
		C271.213,193.56,280.6,244.76,280.6,370.2z"/>
	<path d="M178.2,336.067H92.867c-5.12,0-8.533-3.413-8.533-8.533v-128c0-5.12,3.413-8.533,8.533-8.533h17.067
		c7.68,0,25.6,3.413,25.6,32.427v32.427c0,6.827,5.973,12.8,12.8,12.8h6.827c17.92,0,32.427,14.507,32.427,32.427v26.453
		C186.733,332.653,183.32,336.067,178.2,336.067z M101.4,319h68.267v-18.773c0-8.533-6.827-15.36-15.36-15.36h-6.827
		c-16.213,0-29.867-13.653-29.867-29.867v-32.427c0-15.36-5.973-15.36-8.533-15.36h-8.533V319H101.4z"/>
	<path d="M92.867,336.067H7.533c-5.12,0-8.533-3.413-8.533-8.533v-33.28c0-23.893,19.627-43.52,43.52-43.52h50.347
		c5.12,0,8.533,3.413,8.533,8.533v68.267C101.4,332.653,97.987,336.067,92.867,336.067z M16.067,319h68.267v-51.2H42.52
		c-14.507,0-26.453,11.947-26.453,26.453V319z"/>
	<path d="M92.867,267.8H50.2c-2.56,0-5.12-0.853-6.827-2.56s-1.707-5.12-1.707-7.68l0.853-7.68c0-1.707,0.853-3.413,2.56-4.267
		c3.413-3.413,5.12-7.68,5.12-11.947c0-2.56-0.853-5.12-1.707-7.68c-0.853-1.707-0.853-3.413-0.853-5.12L77.507,52.76
		c0.853-4.267,4.267-6.827,8.533-6.827h34.133c2.56,0,5.12,0.853,6.827,2.56c1.707,1.707,2.56,4.267,1.707,6.827l-20.48,145.067
		c-0.853,3.413-3.413,6.827-6.827,6.827v51.2C101.4,264.387,97.987,267.8,92.867,267.8z M63,250.733h21.333v-51.2
		c0-4.267,3.413-8.533,8.533-8.533l17.92-128H93.72L64.707,220.867c1.707,4.267,2.56,8.533,2.56,12.8
		C67.267,239.64,65.56,245.613,63,250.733z"/>
	<path d="M279.747,464.067h-16.213c-5.12,0-8.533-3.413-8.533-8.533c0-14.507-11.093-25.6-25.6-25.6
		c-14.507,0-25.6,11.093-25.6,25.6c0,5.12-3.413,8.533-8.533,8.533h-76.8c-5.12,0-8.533-3.413-8.533-8.533
		c0-14.507-11.093-25.6-25.6-25.6s-25.6,11.093-25.6,25.6c0,5.12-3.413,8.533-8.533,8.533H33.987C14.36,464.067-1,448.707-1,429.08
		v-50.347c0-5.12,3.413-8.533,8.533-8.533H306.2c5.12,0,8.533,3.413,8.533,8.533v50.347
		C314.733,448.707,299.373,464.067,279.747,464.067z M271.213,447h8.533c9.387,0,17.92-7.68,17.92-17.92v-41.813h-281.6v41.813
		c0,10.24,7.68,17.92,17.92,17.92h8.533c4.267-19.627,21.333-34.133,41.813-34.133S121.88,427.373,126.147,447h61.44
		c4.267-19.627,21.333-34.133,41.813-34.133S266.947,427.373,271.213,447z"/>
	<path d="M272.067,387.267H7.533c-5.12,0-8.533-3.413-8.533-8.533v-51.2c0-5.12,3.413-8.533,8.533-8.533h263.68
		c4.267,0,8.533,3.413,8.533,8.533c0,16.213,0.853,33.28,0.853,51.2C280.6,383.853,277.187,387.267,272.067,387.267z M16.067,370.2
		h247.467c0-11.947,0-23.04,0-34.133H16.067V370.2z"/>
	<path d="M175.64,257.56c-6.827,0-12.8-2.56-17.92-7.68c-10.24-10.24-10.24-26.453,0-35.84l29.867-29.867
		c10.24-10.24,26.453-10.24,35.84,0c10.24,10.24,10.24,26.453,0,35.84l0,0L193.56,249.88C189.293,255,182.467,257.56,175.64,257.56z
		 M206.36,192.707c-2.56,0-4.267,0.853-5.973,2.56l-30.72,30.72c-3.413,3.413-3.413,8.533,0,11.947s8.533,3.413,11.947,0
		l29.867-29.867c3.413-3.413,3.413-8.533,0-11.947C210.627,193.56,208.067,192.707,206.36,192.707z M218.307,213.187
		L218.307,213.187L218.307,213.187z"/>
	<path d="M271.213,336.067h-28.16c-2.56,0-5.973-1.707-6.827-4.267l-53.76-85.333c-2.56-3.413-1.707-7.68,0.853-10.24l25.6-25.6
		c1.707-1.707,4.267-2.56,6.827-2.56s5.12,1.707,5.973,4.267l56.32,90.453c0.853,1.707,0.853,2.56,1.707,4.267l0.853,20.48
		c0,2.56-0.853,4.267-2.56,5.973C276.333,335.213,273.773,336.067,271.213,336.067z M248.173,319h14.507v-9.387l-49.493-79.36
		l-12.8,12.8L248.173,319z"/>
	<path d="M502.467,429.933H383c-5.12,0-8.533-3.413-8.533-8.533V301.933c0-5.12,3.413-8.533,8.533-8.533h119.467
		c5.12,0,8.533,3.413,8.533,8.533V421.4C511,426.52,507.587,429.933,502.467,429.933z M391.533,412.867h102.4v-102.4h-102.4V412.867
		z"/>
	<path d="M502.467,310.467H383c-5.12,0-8.533-3.413-8.533-8.533V182.467c0-5.12,3.413-8.533,8.533-8.533h119.467
		c5.12,0,8.533,3.413,8.533,8.533v119.467C511,307.053,507.587,310.467,502.467,310.467z M391.533,293.4h102.4V191h-102.4V293.4z"/>
	<path d="M459.8,225.133h-34.133c-5.12,0-8.533-3.413-8.533-8.533v-34.133c0-5.12,3.413-8.533,8.533-8.533H459.8
		c5.12,0,8.533,3.413,8.533,8.533V216.6C468.333,221.72,464.92,225.133,459.8,225.133z M434.2,208.067h17.067V191H434.2V208.067z"/>
	<path d="M459.8,344.6h-34.133c-5.12,0-8.533-3.413-8.533-8.533v-34.133c0-5.12,3.413-8.533,8.533-8.533H459.8
		c5.12,0,8.533,3.413,8.533,8.533v34.133C468.333,341.187,464.92,344.6,459.8,344.6z M434.2,327.533h17.067v-17.067H434.2V327.533z"
		/>
</g>
<g>
</g>
<g>
</g>
<g>
</g>
<g>
</g>
<g>
</g>
<g>
</g>
<g>
</g>
<g>
</g>
<g>
</g>
<g>
</g>
<g>
</g>
<g>
</g>
<g>
</g>
<g>
</g>
<g>
</g>
</svg>
