<?xml version="1.0" encoding="iso-8859-1"?>
<!-- Generator: Adobe Illustrator 19.0.0, SVG Export Plug-In . SVG Version: 6.00 Build 0)  -->
<svg version="1.1" id="Layer_1" xmlns="http://www.w3.org/2000/svg" xmlns:xlink="http://www.w3.org/1999/xlink" x="0px" y="0px"
	 viewBox="0 0 502.4 502.4" style="enable-background:new 0 0 502.4 502.4;" xml:space="preserve">
<g>
	<g>
		<path d="M481.067,253.333H21.333C9.6,253.333,0,262.933,0,274.667c0,96,112,174.933,250.667,174.933
			S501.333,370.667,502.4,274.667C502.4,262.933,492.8,253.333,481.067,253.333z M250.667,408C147.2,408,60.8,358.933,44.8,294.933
			h411.733C441.6,358.933,354.134,408,250.667,408z"/>
	</g>
</g>
<g>
	<g>
		<path d="M402.133,52.8h-92.8C297.6,52.8,288,62.4,288,74.133v32H55.467c-11.733,0-21.333,9.6-21.333,21.333
			s9.6,21.333,21.333,21.333H288v33.067c0,11.733,9.6,21.333,21.333,21.333h92.8c36.267,0,65.067-28.8,65.067-65.067v-20.267
			C467.2,81.6,438.4,52.8,402.133,52.8z M425.6,138.133c0,12.8-10.667,23.467-23.467,23.467h-71.467V94.4h71.467
			c12.8,0,23.467,10.667,23.467,23.467V138.133z"/>
	</g>
</g>
<g>
</g>
<g>
</g>
<g>
</g>
<g>
</g>
<g>
</g>
<g>
</g>
<g>
</g>
<g>
</g>
<g>
</g>
<g>
</g>
<g>
</g>
<g>
</g>
<g>
</g>
<g>
</g>
<g>
</g>
</svg>
