<?xml version="1.0" encoding="iso-8859-1"?>
<!-- Generator: Adobe Illustrator 19.0.0, SVG Export Plug-In . SVG Version: 6.00 Build 0)  -->
<svg version="1.1" id="Layer_1" xmlns="http://www.w3.org/2000/svg" xmlns:xlink="http://www.w3.org/1999/xlink" x="0px" y="0px"
	 viewBox="0 0 502.4 502.4" style="enable-background:new 0 0 502.4 502.4;" xml:space="preserve">
<g>
	<g>
		<path d="M481.067,0.533H21.333C9.6,0.533,0,10.133,0,21.867v458.667c0,11.733,9.6,21.333,21.333,21.333h354.133
			c6.4,0,11.733-2.133,17.067-6.4l104.533-121.6c3.2-4.267,5.333-8.533,5.333-13.867V21.867C502.4,10.133,492.8,0.533,481.067,0.533
			z M381.867,442.133v-61.867H435.2L381.867,442.133z M459.733,337.6H361.6c-11.733,0-21.333,9.6-21.333,21.333v101.333H41.6V42.133
			h418.133V337.6z"/>
	</g>
</g>
<g>
	<g>
		<path d="M250.667,76.267c-46.933,0-80,39.467-80,94.933c0,50.133,56.533,132.267,62.933,141.867
			c4.267,5.333,10.667,8.533,17.067,8.533c6.4,0,12.8-3.2,17.067-8.533c6.4-8.533,62.933-91.733,62.933-141.867
			C330.667,115.733,297.6,76.267,250.667,76.267z M250.667,262.933c-19.2-30.933-38.4-70.4-38.4-91.733c0-32,16-53.333,38.4-53.333
			c22.4,0,38.4,21.333,38.4,53.333C289.067,192.533,268.8,232,250.667,262.933z"/>
	</g>
</g>
<g>
	<g>
		<path d="M183.467,366.4h-40.533v-40.533c0-11.733-9.6-21.333-21.333-21.333s-21.333,9.6-21.333,21.333v60.8
			c0,11.733,9.6,21.333,21.333,21.333h60.8c11.733,0,22.4-8.533,22.4-20.267C204.8,376,195.2,366.4,183.467,366.4z"/>
	</g>
</g>
<g>
</g>
<g>
</g>
<g>
</g>
<g>
</g>
<g>
</g>
<g>
</g>
<g>
</g>
<g>
</g>
<g>
</g>
<g>
</g>
<g>
</g>
<g>
</g>
<g>
</g>
<g>
</g>
<g>
</g>
</svg>
