<?xml version="1.0" encoding="iso-8859-1"?>
<!-- Generator: Adobe Illustrator 19.0.0, SVG Export Plug-In . SVG Version: 6.00 Build 0)  -->
<svg version="1.1" id="Layer_1" xmlns="http://www.w3.org/2000/svg" xmlns:xlink="http://www.w3.org/1999/xlink" x="0px" y="0px"
	 viewBox="0 0 502.695 502.695" style="enable-background:new 0 0 502.695 502.695;" xml:space="preserve">
<g>
	<g>
		<path d="M499.348,329.214c-4.267-5.333-10.667-9.6-18.133-9.6h-94.933V52.948c0-11.733-9.6-21.333-21.333-21.333h-115.2
			c-11.733,0-21.333,9.6-21.333,21.333v80h-54.4V22.014c0-11.733-9.6-21.333-21.333-21.333s-21.333,9.6-21.333,21.333v110.933h-64
			c-11.733,0-21.333,9.6-21.333,21.333v165.333H21.481c-7.467,0-13.867,3.2-18.133,9.6c-4.267,6.4-4.267,13.867-1.067,20.267
			l74.667,141.867c3.2,6.4,10.667,10.667,18.133,10.667h309.333c7.467,0,14.933-4.267,21.333-10.667l74.667-141.867
			C503.614,343.081,503.614,335.614,499.348,329.214z M271.081,73.214h73.6v246.4h-73.6V73.214z M87.614,174.548h140.8v145.067
			h-140.8V174.548z M391.614,460.415H107.881L54.548,360.148h390.4L391.614,460.415z"/>
	</g>
</g>
<g>
</g>
<g>
</g>
<g>
</g>
<g>
</g>
<g>
</g>
<g>
</g>
<g>
</g>
<g>
</g>
<g>
</g>
<g>
</g>
<g>
</g>
<g>
</g>
<g>
</g>
<g>
</g>
<g>
</g>
</svg>
