<?xml version="1.0" encoding="iso-8859-1"?>
<!-- Generator: Adobe Illustrator 19.0.0, SVG Export Plug-In . SVG Version: 6.00 Build 0)  -->
<svg version="1.1" id="Layer_1" xmlns="http://www.w3.org/2000/svg" xmlns:xlink="http://www.w3.org/1999/xlink" x="0px" y="0px"
	 viewBox="0 0 512 512" style="enable-background:new 0 0 512 512;" xml:space="preserve">
<g>
	<g>
		<polygon points="258.953,384.633 239.121,384.633 220.128,404.033 221.105,407.31 276.969,407.31 277.946,404.033 		"/>
	</g>
</g>
<g>
	<g>
		<path d="M502.353,23.635H9.647C4.319,23.636,0,27.955,0,33.282v9.275c0,5.327,4.319,9.647,9.647,9.647H83.38l31.35,180.217
			c-2.805,1.064-5.366,2.874-7.333,5.424c-5.664,7.344-4.303,17.888,3.041,23.551l10.779,8.313l17.66,101.516
			c-4.945,3.489-8.183,9.236-8.183,15.747c0,10.742,6.535,17.801,14.751,19.781l-0.735-2.461
			c-3.917-13.132-0.821-25.801,11.345-38.229l-13.96-80.252l29.646,22.866c5.065,3.907,11.9,4.589,17.625,1.792
			c5.738-2.804,9.39-8.617,9.421-15.003l0.232-45.94c0,0,0-0.001,0-0.002c0.071-2.106,1.819-3.767,3.926-3.73
			s3.794,1.755,3.794,3.863c0,20.526,0,76.519,0,87.54l-41.762,42.658c-5.124,5.235-7.004,12.837-4.911,19.857l22.147,74.254
			c3.181,10.669,14.408,16.729,25.068,13.55c10.665-3.181,16.731-14.404,13.55-25.069l-18.755-62.879l28.222-28.828
			c20.276,0,28.741,0,31.936,0c1.267,0,1.71,0,1.724,0c0.855,0,2.085,0,3.819,0l28.222,28.828l-18.756,62.879
			c-3.181,10.664,2.885,21.888,13.549,25.069c10.673,3.181,21.89-2.893,25.069-13.55l22.148-74.254
			c2.094-7.02,0.214-14.622-4.911-19.857l-37.421-38.223c0-9.365,0-70.547,0-92.161c0-1.941,1.574-3.514,3.514-3.514
			c1.941,0,3.514,1.574,3.514,3.515c0,0.018,0,0.037,0,0.055l0.232,45.939c0.032,6.385,3.683,12.2,9.421,15.003
			c5.723,2.795,12.558,2.117,17.625-1.792l33.633-25.941l-14.779,84.961h-5.218c10.918,11.15,13.304,24.664,9.746,36.595l-0.9,3.017
			c11.1,0,20.252-7.424,20.252-20.338c0-5.801-2.574-10.99-6.629-14.524l18.406-105.815l6.792-5.239
			c7.344-5.663,8.705-16.208,3.041-23.551c-1.193-1.546-2.61-2.81-4.161-3.817l31.629-181.823h80.557
			c5.327,0,9.647-4.319,9.647-9.647v-9.276C512,27.955,507.681,23.635,502.353,23.635z M372.118,233.873
			c-1.113,0.699,1.261-1.077-35.768,27.483l-0.06-11.997c-0.11-21.801-17.936-39.536-39.737-39.536c-5.405,0-53.585,0-91.382,0
			c-21.802,0-39.629,17.737-39.737,39.536l-0.06,11.997l-31.802-24.529L101.456,52.204H403.72L372.118,233.873z"/>
	</g>
</g>
<g>
	<g>
		<circle cx="251.626" cy="153.388" r="43.787"/>
	</g>
</g>
<g>
</g>
<g>
</g>
<g>
</g>
<g>
</g>
<g>
</g>
<g>
</g>
<g>
</g>
<g>
</g>
<g>
</g>
<g>
</g>
<g>
</g>
<g>
</g>
<g>
</g>
<g>
</g>
<g>
</g>
</svg>
