<?xml version="1.0" encoding="iso-8859-1"?>
<!-- Generator: Adobe Illustrator 19.0.0, SVG Export Plug-In . SVG Version: 6.00 Build 0)  -->
<svg version="1.1" id="Layer_1" xmlns="http://www.w3.org/2000/svg" xmlns:xlink="http://www.w3.org/1999/xlink" x="0px" y="0px"
	 viewBox="0 0 512 512" style="enable-background:new 0 0 512 512;" xml:space="preserve">
<g>
	<g>
		<path d="M296.545,152.049c-3.761-9.132-14.214-13.488-23.345-9.727l-51.617,21.25l-58.487,2.749
			c-4.157-3.566-9.431-5.905-15.307-6.388c-34.692-2.851-22.308-1.833-47.863-3.935c-10.373-0.852-20.07,4.321-25.273,12.94
			c-14.283,17.03-44.289,52.806-46.014,54.862c-2.573,3.067-4.042,6.908-4.172,10.91l-2.191,67.426
			c-0.327,10.071,7.737,18.464,17.885,18.464c9.606,0,17.548-7.629,17.863-17.301l1.99-61.249L93.02,202.7l-17.614,37.648
			l-2.062,63.449c-0.275,8.432-3.719,16.344-9.586,22.272l8.876,57.869l-27.5,100.3c-3.134,11.43,3.591,23.236,15.022,26.37
			c11.426,3.133,23.236-3.59,26.37-15.022l28.709-104.71c0.797-2.906,0.972-5.948,0.516-8.928l-9.164-59.747l10.152,0.834
			l23.598,64.342l6.77,103.928c0.77,11.84,10.997,20.795,22.808,20.019c11.827-0.77,20.791-10.982,20.019-22.808l-6.971-107.017
			c-0.133-2.049-0.56-4.068-1.266-5.995l-20.102-54.809c2.241-27.274,7.656-93.135,9.779-118.959l54.99-2.586
			c2.051-0.096,4.07-0.545,5.969-1.328l54.486-22.432C295.95,171.634,300.306,161.182,296.545,152.049z"/>
	</g>
</g>
<g>
	<g>
		<circle cx="136.953" cy="104.357" r="42.417"/>
	</g>
</g>
<g>
	<g>
		<path d="M323.197,66.663l-14.045-57.95c-1.482-6.117-7.645-9.872-13.759-8.391c-6.117,1.482-9.873,7.644-8.391,13.759
			l14.045,57.95c1.482,6.114,7.638,9.872,13.759,8.391C320.923,78.94,324.679,72.779,323.197,66.663z"/>
	</g>
</g>
<g>
	<g>
		<path d="M488.703,314.187c-0.228-0.622-38.958-108.531-39.919-111.324c-7.821-22.756-20.933-34.294-38.973-34.294
			c-25.578,0-35.078,0-58.401,0c-14.584,0-25.945,7.544-33.897,22.455h0.001c-2.365,4.434-35.776,97.962-44.997,123.164
			c-3.163,8.651,1.26,18.407,10.042,21.618c8.736,3.195,18.42-1.294,21.618-10.042c5.969-16.311,22.552-61.94,33.498-92.931
			c-0.914,7.467-7.883,42.715-23.94,125.518c-0.531,2.745,0.192,5.582,1.97,7.739c1.778,2.157,4.428,3.415,7.223,3.415
			c3.626,0,7.994,0,12.862,0v122.267c0,11.171,9.055,20.227,20.227,20.227s20.227-9.055,20.227-20.227V369.507
			c2.907,0,5.825,0,8.732,0v122.267c0,11.171,9.055,20.227,20.227,20.227s20.227-9.055,20.227-20.227V369.507
			c4.87,0,9.237,0,12.862,0c2.798,0,5.448-1.25,7.227-3.41c1.778-2.158,2.498-5,1.966-7.746l-23.94-125.518
			c13.499,38.215,33.263,92.288,33.498,92.931c3.195,8.738,12.869,13.24,21.618,10.042C487.404,332.61,491.9,322.93,488.703,314.187
			z"/>
	</g>
</g>
<g>
	<g>
		<path d="M472.763,99.681c-18.124-12.288-31.396-12.84-38.996-12.391c-5.424,0.321-10.605,2.554-13.352,8.028l-0.213-1.773
			c-0.34-2.829-2.907-4.835-5.74-4.508c-2.461,0.296-4.306,2.281-4.52,4.656C402.721,79.69,388.129,70.11,371.29,70.11
			c-24.01,0-43.473,19.464-43.473,43.474c0,1.653,0.101,3.281,0.28,4.885c-1.386-1.886-3.922-2.655-6.169-1.695
			c-2.618,1.116-3.839,4.146-2.722,6.769l0.685,1.61c-5.106-3.362-10.707-2.69-15.562-0.265c-2.063,1.03-4.533,2.405-7.239,4.362
			c6.324,3.643,11.54,9.322,14.533,16.592c1.388,3.371,2.191,6.835,2.468,10.283c2.757-0.1,5.045-0.418,6.692-1.241
			c3.95-1.973,6.646-5.444,7.777-9.377l0.751,1.765c0.835,1.962,2.744,3.14,4.75,3.14c0.674,0,1.36-0.132,2.019-0.414
			c2.622-1.116,3.843-4.148,2.726-6.769l-0.643-1.509c5.704,6.711,13.403,11.671,22.188,13.949
			c24.138,6.258,48.43-9.009,53.485-33.12c2.971,4.615,10.1,2.016,9.449-3.395l-0.229-1.904c2.943,2.844,7.01,4.506,11.418,4.246
			c7.458-0.441,19.865-13.264,37.318-16.899c1.07-0.223,1.903-1.064,2.114-2.136C474.118,101.388,473.668,100.294,472.763,99.681z"
			/>
	</g>
</g>
<g>
	<g>
		<path d="M295.431,79.43l-53.727-42.621c-4.931-3.913-12.1-3.085-16.01,1.846c-3.911,4.93-3.086,12.099,1.846,16.01l53.727,42.621
			c4.925,3.91,12.097,3.088,16.01-1.846C301.188,90.509,300.362,83.341,295.431,79.43z"/>
	</g>
</g>
<g>
</g>
<g>
</g>
<g>
</g>
<g>
</g>
<g>
</g>
<g>
</g>
<g>
</g>
<g>
</g>
<g>
</g>
<g>
</g>
<g>
</g>
<g>
</g>
<g>
</g>
<g>
</g>
<g>
</g>
</svg>
