<?xml version="1.0" encoding="iso-8859-1"?>
<!-- Generator: Adobe Illustrator 19.0.0, SVG Export Plug-In . SVG Version: 6.00 Build 0)  -->
<svg version="1.1" id="Layer_1" xmlns="http://www.w3.org/2000/svg" xmlns:xlink="http://www.w3.org/1999/xlink" x="0px" y="0px"
	 viewBox="0 0 512 512" style="enable-background:new 0 0 512 512;" xml:space="preserve">
<g>
	<path style="fill:#FFFFFF;" d="M400.348,351.978c0,79.719-64.63,144.348-144.348,144.348s-144.348-64.63-144.348-144.348
		c0-22.529,5.162-43.846,14.378-62.843c19.802-40.909,58.37-71.056,104.525-79.269V15.674h50.889v194.192
		c45.57,8.109,83.742,37.597,103.773,77.723C394.904,306.972,400.348,328.843,400.348,351.978z"/>
	<path style="fill:#FFFFFF;" d="M400.348,351.978c0,79.719-64.63,144.348-144.348,144.348V15.674h25.444v194.192
		c45.57,8.109,83.742,37.597,103.773,77.723C394.904,306.972,400.348,328.843,400.348,351.978z"/>
</g>
<path style="fill:#A7AFF3;" d="M385.947,289.102h-8.896l-0.183,0.034H126.03c-9.216,18.997-14.378,40.314-14.378,62.843
	c0,79.719,64.63,144.348,144.348,144.348s144.348-64.63,144.348-144.348C400.348,329.439,395.169,308.109,385.947,289.102z"/>
<path style="fill:#7885EB;" d="M385.947,289.102h-8.896l-0.183,0.034H256v207.191c79.719,0,144.348-64.63,144.348-144.348
	C400.348,329.439,395.169,308.109,385.947,289.102z"/>
<path style="fill:#FF738E;" d="M278.1,392.365c-12.926,13.469-21.453,18.903-22.08,19.3v0.021c0,0-0.01-0.01-0.021-0.01
	c-0.01,0-0.021,0.01-0.021,0.01v-0.021c-0.627-0.397-9.154-5.831-22.08-19.3c-13.448-14.002-12.048-34.17,1.954-38.088
	c13.542-3.793,19.749,8.13,20.146,8.913c0.397-0.784,6.604-12.706,20.146-8.913C290.149,358.195,291.549,378.363,278.1,392.365z"/>
<path style="fill:#FF3C62;" d="M278.1,392.365c-12.926,13.469-21.453,18.903-22.08,19.3v0.021c0,0-0.01-0.01-0.021-0.01V363.19
	c0.397-0.784,6.604-12.706,20.146-8.913C290.149,358.195,291.549,378.363,278.1,392.365z"/>
<path style="fill:#DFCCBE;" d="M399.24,280.587c-20.544-41.16-58.12-71.568-102.122-83.282V80.44h13.741V49.091h-13.741V0h-82.237
	v49.091h-13.741V80.44h13.741v116.856c-44.703,11.891-82.592,42.937-102.958,84.995c-10.575,21.818-15.946,45.267-15.946,69.687
	C95.978,440.213,167.765,512,256,512s160.022-71.787,160.022-160.022C416.022,326.889,410.38,302.866,399.24,280.587z
	 M246.23,31.348h19.54v17.743h-19.54V31.348z M256,480.652c-70.951,0-128.674-57.723-128.674-128.674
	c0-19.645,4.305-38.485,12.811-56.019c17.942-37.054,52.769-63.47,93.167-70.659l12.926-2.299V80.44h19.54v142.561l12.926,2.299
	c39.791,7.074,74.368,32.978,92.498,69.3c8.945,17.889,13.48,37.2,13.48,57.378C384.674,422.929,326.951,480.652,256,480.652z"/>
<path style="fill:#C9AD91;" d="M416.022,351.978C416.022,440.213,344.235,512,256,512v-31.348
	c70.951,0,128.674-57.723,128.674-128.674c0-20.178-4.535-39.488-13.48-57.378c-18.13-36.322-52.707-62.226-92.498-69.3
	l-12.926-2.299V80.44H256V49.091h9.77V31.348H256V0h41.118v49.091h13.741V80.44h-13.741v116.866
	c44.002,11.714,81.578,42.122,102.122,83.282C410.38,302.866,416.022,326.889,416.022,351.978z"/>
<g>
</g>
<g>
</g>
<g>
</g>
<g>
</g>
<g>
</g>
<g>
</g>
<g>
</g>
<g>
</g>
<g>
</g>
<g>
</g>
<g>
</g>
<g>
</g>
<g>
</g>
<g>
</g>
<g>
</g>
</svg>
