<?xml version="1.0" encoding="iso-8859-1"?>
<!-- Generator: Adobe Illustrator 19.0.0, SVG Export Plug-In . SVG Version: 6.00 Build 0)  -->
<svg version="1.1" id="Layer_1" xmlns="http://www.w3.org/2000/svg" xmlns:xlink="http://www.w3.org/1999/xlink" x="0px" y="0px"
	 viewBox="0 0 207.12 207.12" style="enable-background:new 0 0 207.12 207.12;" xml:space="preserve">
<g>
	<g>
		<g>
			<path d="M167.248,81.832L167.248,81.832c-6.144-29.652-32.384-52.048-64.156-52.048c-31.448,0-57.692,22.388-63.828,52.048H0
				l29.432,95.504h148.256l29.432-95.504H167.248z M103.468,33.784c29.232,0,53.652,20.616,59.72,48.048h-4.072
				c-5.148-25.208-27.392-44.264-54.092-44.264h-3.484c-26.704,0-48.948,19.056-54.096,44.264H43.34
				C49.408,54.392,73.904,33.784,103.468,33.784z M157.964,81.832H48.596C53.724,57.256,75.46,38.7,101.536,38.7h3.484
				C131.096,38.7,152.836,57.252,157.964,81.832z M14.508,114.256h5.76l-3.648,6.052L14.508,114.256z M17.108,121.696l4.484-7.44
				h7.652l-9.332,15.48L17.108,121.696z M20.396,131.128l10.172-16.868h7.792l-15.108,25.056L20.396,131.128z M39.68,114.256h7.792
				l-18.484,30.656H25.2l-1.468-4.212L39.68,114.256z M156.58,144.912h-7.792l18.484-30.656h7.792L156.58,144.912z M176.384,114.256
				h7.792l-18.484,30.656H157.9L176.384,114.256z M147.468,144.912h-7.792l18.484-30.656h7.792L147.468,144.912z M138.352,144.912
				h-7.792l18.484-30.656h7.792L138.352,144.912z M129.24,144.912h-4.66c2.86-3.908,4.564-8.496,4.924-13.364l10.428-17.292h7.792
				L129.24,144.912z M129.584,129.224c-0.072-5.46-1.832-10.636-5.004-14.968h14.028L129.584,129.224z M126.764,129.512
				c0.02,6.2-2.376,12.036-6.744,16.432c-4.372,4.396-10.192,6.828-16.392,6.848c-0.024,0-0.048,0-0.072,0
				c-12.756,0-23.164-10.364-23.204-23.136c-0.044-12.796,10.336-23.24,23.132-23.28c0.024,0,0.048,0,0.076,0
				c6.172,0,11.98,2.396,16.36,6.748C124.316,117.492,126.748,123.312,126.764,129.512z M82.552,144.912H66.764l10.908-18.088
				c-0.1,0.936-0.156,1.88-0.156,2.84C77.536,135.368,79.416,140.624,82.552,144.912z M78.204,123.748l-12.76,21.16h-7.792
				l18.484-30.652h6.42C80.508,117.056,79.004,120.264,78.204,123.748z M56.332,144.912H48.54l18.484-30.656h7.792L56.332,144.912z
				 M47.216,144.912h-7.792l18.484-30.656H65.7L47.216,144.912z M38.104,144.912h-7.792l18.484-30.656h7.792L38.104,144.912z
				 M174.732,173.336H32.384l-0.768-2.488H175.5L174.732,173.336z M175.852,169.72H31.268l-6.412-20.808h61.312
				c4.616,4.16,10.708,6.716,17.392,6.716c0.024,0,0.052,0,0.08,0c6.472-0.02,12.56-2.412,17.328-6.716h61.296L175.852,169.72z
				 M181.912,144.912h-5.784l13.732-22.772L181.912,144.912z M191.68,116.932l-16.872,27.98h-7.792l18.484-30.656h7.112
				L191.68,116.932z M194.176,110.256h-73.212c-4.792-4.324-10.908-6.716-17.404-6.716c-0.028,0-0.056,0-0.084,0
				c-6.66,0.02-12.712,2.576-17.308,6.716h-73.22L6.66,89.848h193.804L194.176,110.256z M6.308,88.716L5.42,85.832H201.7
				l-0.888,2.884H6.308z"/>
			<path d="M114.668,133.476c-0.06-0.34-0.308-0.612-0.64-0.708c-0.084-0.024-0.168-0.036-0.252-0.036
				c-0.248,0-0.492,0.104-0.668,0.292l-3.156,3.42c-0.212,0.232-0.292,0.556-0.208,0.86c0.084,0.304,0.324,0.54,0.624,0.628
				l0.052,0.016c-0.836,0.652-1.88,1.096-3.156,1.344c-0.272,0.052-0.496,0.084-0.692,0.084c-0.236,0-0.34,0-0.532-0.852
				c-0.248-1.104-0.544-2.56-0.616-4.012c-0.088-1.732-0.14-3.468-0.18-5.204l3.56-0.012c1.028-0.004,1.864-0.836,1.864-1.86
				c-0.004-1.02-0.84-1.848-1.868-1.848l-3.636,0.012l-0.012-0.496c-0.012-0.424-0.004-0.852,0-1.276
				c2.252-0.704,3.816-2.764,3.808-5.16c-0.008-2.968-2.46-5.384-5.468-5.384h-0.008c-1.464,0.004-2.836,0.568-3.864,1.588
				c-1.032,1.024-1.6,2.384-1.596,3.828c0.008,2.4,1.584,4.452,3.848,5.14l0.008,0.94l0.004,0.828l-3.648,0.012
				c-0.496,0-0.96,0.196-1.312,0.544c-0.356,0.352-0.552,0.82-0.548,1.316c0.004,1.02,0.84,1.848,1.868,1.848l3.644-0.012
				c-0.02,1.892-0.092,4.196-0.344,6.512c-0.108,0.98-0.308,2.02-0.592,3.084c-0.104,0.388-0.188,0.464-0.188,0.468
				c-0.1,0.008-0.18,0.008-0.244,0.008c-0.112,0-0.184-0.008-0.26-0.02c-1.44-0.196-2.616-0.656-3.56-1.392l0.044-0.012
				c0.304-0.088,0.536-0.328,0.62-0.632c0.084-0.304,0.004-0.628-0.212-0.86l-3.176-3.4c-0.176-0.188-0.416-0.288-0.664-0.288
				c-0.088,0-0.172,0.012-0.26,0.036c-0.328,0.1-0.576,0.376-0.636,0.712l-0.792,4.556c-0.052,0.308,0.056,0.624,0.288,0.832
				c0.168,0.152,0.384,0.232,0.604,0.232c0.084,0,0.168-0.012,0.252-0.036l0.872-0.252c0.36,0.664,0.856,1.276,1.472,1.832
				c2.452,2.2,5.336,3.764,7.848,5.056c0.128,0.068,0.444,0.136,0.588,0.136c0.256,0,0.524-0.064,0.74-0.18
				c0.872-0.456,1.732-0.916,2.572-1.408c1.892-1.116,3.88-2.352,5.58-4.08c0.412-0.416,0.756-0.892,1.032-1.412l0.876,0.248
				c0.08,0.024,0.164,0.036,0.248,0.036c0.224,0,0.44-0.08,0.608-0.236c0.232-0.212,0.34-0.524,0.284-0.832L114.668,133.476z
				 M112.96,137.712c-0.252,0.688-0.632,1.316-1.172,1.864c-1.58,1.604-3.468,2.796-5.396,3.936
				c-0.828,0.488-1.676,0.94-2.524,1.388c-0.08,0.052-0.2,0.08-0.312,0.08c-0.064,0-0.128-0.012-0.172-0.036
				c-2.712-1.396-5.376-2.876-7.656-4.924c-0.712-0.636-1.256-1.376-1.58-2.244l-1.624,0.472l0.792-4.556l3.176,3.4l-1.516,0.44
				c1.296,1.624,3.08,2.448,5.16,2.732c0.168,0.024,0.316,0.036,0.452,0.036c0.704,0,1.02-0.324,1.244-1.156
				c0.284-1.056,0.5-2.136,0.616-3.22c0.272-2.5,0.344-5.008,0.356-7.52l-4.556,0.016c-0.528,0-0.96-0.424-0.96-0.944
				c0-0.52,0.428-0.948,0.96-0.948l4.56-0.016c-0.008-1.132-0.02-2.264-0.024-3.396c-2.172-0.34-3.836-2.184-3.844-4.42
				c-0.008-2.48,2.028-4.5,4.548-4.508c0.004,0,0.008,0,0.016,0c2.512,0,4.552,2.004,4.56,4.48c0.008,2.232-1.636,4.08-3.8,4.44
				c-0.004,0.672-0.024,1.344-0.012,2.012c0.012,0.46,0.02,0.924,0.028,1.384l4.52-0.016h0.004c0.528,0,0.96,0.424,0.96,0.944
				c0,0.52-0.428,0.948-0.96,0.948l-4.484,0.016c0.044,2.052,0.096,4.104,0.2,6.156c0.072,1.396,0.332,2.796,0.64,4.164
				c0.256,1.136,0.592,1.56,1.416,1.56c0.244,0,0.528-0.036,0.864-0.104c1.896-0.372,3.528-1.18,4.704-2.688l-1.528-0.436
				l3.156-3.42l0.82,4.548L112.96,137.712z"/>
			<path d="M106.604,118.672c-0.004-1.688-1.392-3.048-3.104-3.048c-0.004,0-0.008,0-0.012,0c-1.716,0.004-3.1,1.38-3.096,3.068
				c0.004,1.688,1.392,3.048,3.104,3.048v-0.908c-1.208,0-2.192-0.964-2.196-2.144c0-0.572,0.224-1.112,0.636-1.52
				c0.416-0.412,0.968-0.636,1.556-0.64c1.216,0,2.2,0.964,2.204,2.144c0,0.572-0.224,1.112-0.636,1.52
				c-0.416,0.412-0.968,0.64-1.556,0.64l-0.008,0.908c0,0,0.008,0,0.012,0C105.224,121.736,106.608,120.36,106.604,118.672z"/>
		</g>
	</g>
</g>
<g>
</g>
<g>
</g>
<g>
</g>
<g>
</g>
<g>
</g>
<g>
</g>
<g>
</g>
<g>
</g>
<g>
</g>
<g>
</g>
<g>
</g>
<g>
</g>
<g>
</g>
<g>
</g>
<g>
</g>
</svg>
