<?xml version="1.0" encoding="iso-8859-1"?>
<!-- Generator: Adobe Illustrator 19.0.0, SVG Export Plug-In . SVG Version: 6.00 Build 0)  -->
<svg version="1.1" id="Layer_1" xmlns="http://www.w3.org/2000/svg" xmlns:xlink="http://www.w3.org/1999/xlink" x="0px" y="0px"
	 viewBox="0 0 496 496" style="enable-background:new 0 0 496 496;" xml:space="preserve">
<g>
	<g>
		<g>
			<path d="M331.632,160L280,100.992V64h-24V48h-16v16h-24v36.992L164.368,160H40v8c0,63.688,35.632,119.216,88,147.696V400h72
				v3.248l-88,48V496h272v-44.752l-88-48V400h72v-84.304c52.368-28.48,88-84.008,88-147.696v-8H331.632z M207.368,256h81.264
				L248,314.048L207.368,256z M232.632,320H208c-18.576,0-36.32-3.488-52.792-9.616l36.568-48.752L232.632,320z M207.368,240
				L248,181.952L288.632,240H207.368z M304.232,261.632l36.568,48.752C324.32,316.512,306.576,320,288,320h-24.632L304.232,261.632z
				 M344.64,176L304,234.048L263.368,176H344.64z M360,181.952L400.632,240h-81.264L360,181.952z M310.368,160H256v-48h12.368
				L310.368,160z M232,80h32v16h-32V80z M227.632,112H240v48h-54.368L227.632,112z M232.64,176L192,234.048L151.368,176H232.64z
				 M176.632,240H95.368L136,181.952L176.632,240z M74.336,240c-10.416-19.256-16.928-40.912-18.128-64h64.424l-44.8,64H74.336z
				 M84.184,256H176l-35.896,47.864C117.784,292.664,98.568,276.192,84.184,256z M144,384v-60.736
				c5.208,2.152,10.544,4.032,16,5.664V368h40v16H144z M192,480h-24v-16h-16v16h-24v-19.248L210.04,416h12.872L192,453.104V480z
				 M216,400v-16h64v16H216z M288,480h-32v-16h-16v16h-32v-21.104L243.752,416h8.496L288,458.896V480z M368,460.752V480h-24v-16h-16
				v16h-24v-26.896L273.088,416h12.872L368,460.752z M280,352v16h-64v-16h-40v-19.144c10.368,2.016,21.048,3.144,32,3.144h80
				c10.952,0,21.632-1.128,32-3.144V352H280z M352,384h-56v-16h40v-39.072c5.456-1.632,10.792-3.504,16-5.664V384z M355.896,303.864
				L320,256h91.824C397.432,276.192,378.216,292.664,355.896,303.864z M421.656,240h-1.496l-44.8-64h64.424
				C438.584,199.088,432.072,220.744,421.656,240z"/>
			<rect x="360" y="32" width="16" height="32"/>
			<rect x="360" width="16" height="16"/>
			<rect x="296" width="16" height="32"/>
			<rect x="424" y="32" width="16" height="112"/>
			<rect x="424" width="16" height="16"/>
			<rect x="120" y="48" width="16" height="96"/>
			<rect x="120" width="16" height="32"/>
			<rect x="56" y="32" width="16" height="64"/>
			<rect x="56" width="16" height="16"/>
			<rect x="184" y="32" width="16" height="72"/>
			<rect x="184" width="16" height="16"/>
			<rect x="240" width="16" height="32"/>
			<rect x="296" y="48" width="16" height="56"/>
			<rect x="360" y="80" width="16" height="64"/>
			<rect x="56" y="112" width="16" height="32"/>
		</g>
	</g>
</g>
<g>
</g>
<g>
</g>
<g>
</g>
<g>
</g>
<g>
</g>
<g>
</g>
<g>
</g>
<g>
</g>
<g>
</g>
<g>
</g>
<g>
</g>
<g>
</g>
<g>
</g>
<g>
</g>
<g>
</g>
</svg>
