<?xml version="1.0" encoding="iso-8859-1"?>
<!-- Generator: Adobe Illustrator 18.0.0, SVG Export Plug-In . SVG Version: 6.00 Build 0)  -->
<!DOCTYPE svg PUBLIC "-//W3C//DTD SVG 1.1//EN" "http://www.w3.org/Graphics/SVG/1.1/DTD/svg11.dtd">
<svg version="1.1" id="Capa_1" xmlns="http://www.w3.org/2000/svg" xmlns:xlink="http://www.w3.org/1999/xlink" x="0px" y="0px"
	 viewBox="0 0 464.3 464.3" style="enable-background:new 0 0 464.3 464.3;" xml:space="preserve">
<path d="M456.8,241.631H287.584c29.818-16.152,71.259-44.854,76.102-81.518c3.053-23.117-8.812-41.565-32.55-50.616
	c-25.359-9.668-63.284-6.411-76.088,12.417c-8.176,12.023-6.959,27.296-5.67,43.465c1.822,22.875,3.877,48.702-16.8,76.252h-0.858
	c-20.677-27.55-18.622-53.377-16.8-76.252c1.288-16.169,2.505-31.442-5.67-43.465c-12.804-18.829-50.73-22.085-76.087-12.417
	c-23.739,9.051-35.604,27.5-32.55,50.616c4.843,36.664,46.283,65.366,76.102,81.518H7.5c-4.142,0-7.5,3.358-7.5,7.5v57.59
	c0,4.142,3.358,7.5,7.5,7.5h4.03v38.375c0,4.142,3.358,7.5,7.5,7.5h426.24c4.143,0,7.5-3.358,7.5-7.5v-38.375h4.029
	c4.143,0,7.5-3.358,7.5-7.5v-57.59C464.3,244.989,460.942,241.631,456.8,241.631z M449.3,299.221h-194.65v-42.59H449.3V299.221z
	 M224.65,256.631h15v88.465h-15V256.631z M254.912,233.897c0,0,34.158-17.267,39.579-20.759
	c21.029-13.547,45.467-33.745,48.376-55.775c1.025-7.762-0.632-13.995-5.066-19.055c-7.136-8.141-21.403-13.197-37.233-13.197
	c-14.089,0-24.174,4.09-27.581,7.891c-0.254,0.283-0.485,0.585-0.693,0.903c-3.695,5.652-3.16,15.008-1.981,29.807
	c1.043,13.087,2.324,29.183-1.191,46.824l-6.87,3.265c4.552-18.482,3.2-35.578,2.081-49.613
	c-1.165-14.627-2.086-26.181,3.122-33.839c7.067-10.396,35.375-15.59,58.34-6.836c11.986,4.57,25.71,14.289,23.022,34.637
	c-3.232,24.476-29.002,45.823-50.05,59.422c-20.558,13.282-40.793,21.932-45.972,24.06h-2.125
	C252.239,239.041,253.644,236.462,254.912,233.897z M285.265,162.518c-0.48-6.026-1.252-15.705-0.561-19.589
	c2.264-1.052,7.625-2.817,15.863-2.817c12.962,0,22.54,4.191,25.953,8.084c0.789,0.9,2.109,2.407,1.476,7.204
	c-1.722,13.036-17.239,29.586-42.315,45.584C287.154,186.229,286.097,172.954,285.265,162.518z M165.738,217.702
	c-21.137-13.626-47.013-35.019-50.253-59.553c-2.688-20.348,11.037-30.066,23.023-34.637c22.962-8.753,51.271-3.559,58.339,6.836
	c5.208,7.659,4.288,19.212,3.122,33.839c-1.116,14.002-2.465,31.052,2.049,49.485l-6.865-3.262
	c-3.485-17.588-2.206-33.639-1.165-46.706c1.179-14.793,1.713-24.147-1.981-29.799c-0.208-0.318-0.44-0.62-0.694-0.903
	c-3.407-3.8-13.492-7.891-27.582-7.891c-15.831,0-30.098,5.057-37.233,13.197c-4.434,5.059-6.091,11.292-5.066,19.055
	c2.311,17.493,18.56,36.488,46.993,54.932c5.168,3.353,40.886,21.451,40.886,21.451c1.287,2.615,2.719,5.244,4.32,7.885h-2.127
	C206.351,239.516,186.279,230.945,165.738,217.702z M178.623,201.015c-0.686-0.434-1.363-0.869-2.034-1.304
	c-23.933-15.525-38.616-31.676-40.285-44.312c-0.634-4.798,0.686-6.304,1.475-7.203c3.413-3.894,12.991-8.085,25.953-8.085
	c8.239,0,13.6,1.766,15.864,2.817c0.69,3.884-0.08,13.561-0.561,19.596C178.203,172.965,177.144,186.25,178.623,201.015z
	 M15,256.631h194.65v42.59H15V256.631z M26.53,314.221h183.12v30.875H26.53V314.221z M437.771,345.096H254.649v-30.875h183.121
	V345.096z"/>
<g>
</g>
<g>
</g>
<g>
</g>
<g>
</g>
<g>
</g>
<g>
</g>
<g>
</g>
<g>
</g>
<g>
</g>
<g>
</g>
<g>
</g>
<g>
</g>
<g>
</g>
<g>
</g>
<g>
</g>
</svg>
