<?xml version="1.0" encoding="iso-8859-1"?>
<!-- Generator: Adobe Illustrator 18.0.0, SVG Export Plug-In . SVG Version: 6.00 Build 0)  -->
<!DOCTYPE svg PUBLIC "-//W3C//DTD SVG 1.1//EN" "http://www.w3.org/Graphics/SVG/1.1/DTD/svg11.dtd">
<svg version="1.1" id="Capa_1" xmlns="http://www.w3.org/2000/svg" xmlns:xlink="http://www.w3.org/1999/xlink" x="0px" y="0px"
	 viewBox="0 0 421 421" style="enable-background:new 0 0 421 421;" xml:space="preserve">
<path d="M413.5,150.715H241.091c-0.858-3.5-2.303-6.77-4.224-9.704h30.621c28.947,0,52.498-23.55,52.498-52.498
	c0-28.947-23.551-52.498-52.498-52.498s-52.498,23.55-52.498,52.498v38.527c-1.468-0.21-2.965-0.325-4.49-0.325
	c-1.525,0-3.023,0.115-4.491,0.325V88.513c0-28.947-23.55-52.498-52.497-52.498s-52.498,23.55-52.498,52.498
	c0,28.947,23.551,52.498,52.498,52.498h30.621c-1.921,2.934-3.365,6.204-4.224,9.704H7.5c-4.143,0-7.5,3.358-7.5,7.5v58
	c0,4.142,3.357,7.5,7.5,7.5h7.02v153.77c0,4.142,3.357,7.5,7.5,7.5h376.96c4.143,0,7.5-3.358,7.5-7.5v-153.77h7.021
	c4.143,0,7.5-3.358,7.5-7.5v-58C421,154.073,417.643,150.715,413.5,150.715z M406,208.715H255.614
	c0.225-1.811,0.352-3.646,0.352-5.5c0-11.73-4.568-22.758-12.862-31.053l-6.447-6.447H406V208.715z M178.907,208.715
	c-0.344-1.794-0.523-3.633-0.523-5.5c0-7.724,3.008-14.985,8.47-20.447l17.053-17.053h11.536l17.053,17.053
	c5.462,5.462,8.47,12.723,8.47,20.447c0,1.867-0.18,3.706-0.523,5.5H178.907z M304.986,88.513c0,20.079-15.864,36.519-35.717,37.452
	c0.113-0.111,0.232-0.215,0.344-0.327c9.917-9.916,15.378-23.1,15.378-37.123c0-14.024-5.461-27.208-15.384-37.13
	c-0.111-0.111-0.229-0.214-0.341-0.324C289.12,51.992,304.986,68.433,304.986,88.513z M229.99,88.513
	c0-14.363,8.122-26.86,20.01-33.156c3.298,1.74,6.322,3.962,9.007,6.641c7.083,7.083,10.983,16.5,10.983,26.517
	c0,10.017-3.9,19.434-10.98,26.514c-7.051,7.042-16.399,10.935-26.339,10.982h-2.681V88.513z M191.009,88.513v37.498h-2.68
	c-9.94-0.047-19.289-3.94-26.336-10.979c-7.083-7.083-10.983-16.5-10.983-26.517s3.9-19.434,10.977-26.51
	c2.69-2.684,5.715-4.907,9.014-6.648C182.887,61.653,191.009,74.149,191.009,88.513z M116.014,88.513
	c0-20.08,15.866-36.52,35.719-37.452c-0.115,0.112-0.234,0.218-0.348,0.331c-9.915,9.916-15.376,23.1-15.376,37.124
	c0,14.023,5.461,27.207,15.38,37.126c0.111,0.111,0.228,0.214,0.34,0.324C131.877,125.031,116.014,108.591,116.014,88.513z
	 M210.5,141.715c6.396,0,11.941,3.666,14.678,9h-29.357C198.559,145.381,204.104,141.715,210.5,141.715z M15,165.715h167.693
	l-6.447,6.447c-8.294,8.295-12.862,19.323-12.862,31.053c0,1.854,0.127,3.689,0.352,5.5H15V165.715z M391.479,369.985H29.52v-146.27
	h138.923c2.031,3.839,4.645,7.395,7.803,10.553c5.462,5.462,8.47,12.723,8.47,20.447s-3.008,14.985-8.469,20.447
	c-6.588,6.587-17.307,6.587-23.895,0c-2.928-2.93-7.677-2.929-10.606,0c-2.929,2.929-2.929,7.678,0.001,10.606
	c6.218,6.218,14.385,9.327,22.553,9.327s16.335-3.109,22.553-9.327c8.295-8.294,12.863-19.323,12.863-31.053
	c0-11.705-4.551-22.711-12.813-31h45.542c-8.261,8.289-12.812,19.295-12.812,31c0,11.73,4.568,22.759,12.863,31.053
	c1.464,1.465,3.384,2.197,5.303,2.197s3.839-0.732,5.304-2.197c2.929-2.929,2.929-7.678-0.001-10.606
	c-5.461-5.461-8.469-12.723-8.469-20.447s3.008-14.985,8.469-20.447c3.158-3.158,5.772-6.715,7.804-10.553h140.573V369.985z"/>
<g>
</g>
<g>
</g>
<g>
</g>
<g>
</g>
<g>
</g>
<g>
</g>
<g>
</g>
<g>
</g>
<g>
</g>
<g>
</g>
<g>
</g>
<g>
</g>
<g>
</g>
<g>
</g>
<g>
</g>
</svg>
