<?xml version="1.0" encoding="iso-8859-1"?>
<!-- Generator: Adobe Illustrator 19.0.0, SVG Export Plug-In . SVG Version: 6.00 Build 0)  -->
<svg version="1.1" id="Layer_1" xmlns="http://www.w3.org/2000/svg" xmlns:xlink="http://www.w3.org/1999/xlink" x="0px" y="0px"
	 viewBox="0 0 499.99 499.99" style="enable-background:new 0 0 499.99 499.99;" xml:space="preserve">
<g>
	<g>
		<path d="M490.854,48.07c-1.528-1.596-4.06-1.644-5.656-0.12L72.35,443.63c-1.592,1.528-1.648,4.06-0.116,5.656
			c0.788,0.82,1.836,1.232,2.888,1.232c0.996,0,1.992-0.368,2.772-1.112l412.844-395.68C492.33,52.198,492.386,49.663,490.854,48.07
			z"/>
	</g>
</g>
<g>
	<g>
		<path d="M451.926,9.138c-1.596-1.524-4.124-1.476-5.656,0.12L50.586,422.102c-1.532,1.592-1.476,4.128,0.116,5.656
			c0.776,0.744,1.772,1.112,2.768,1.112c1.052,0,2.104-0.412,2.888-1.232L452.042,14.794
			C453.574,13.202,453.518,10.666,451.926,9.138z"/>
	</g>
</g>
<g>
	<g>
		<path d="M70.422,429.565c-5.94-5.94-13.832-9.208-22.232-9.208c-8.404,0-16.3,3.272-22.236,9.212
			c-11.156,11.152-24.352,59.872-25.82,65.392c-0.364,1.376,0.032,2.848,1.04,3.856c0.756,0.76,1.78,1.172,2.828,1.172
			c0.344,0,0.688-0.044,1.028-0.136c5.52-1.468,54.236-14.656,65.392-25.82C82.678,461.779,82.678,441.826,70.422,429.565z
			 M64.762,468.381c-7.104,7.104-37.692,16.912-55.024,21.868c4.956-17.332,14.768-47.916,21.872-55.02
			c4.428-4.428,10.316-6.868,16.58-6.868c6.26,0,12.148,2.436,16.572,6.864C73.902,444.37,73.902,459.242,64.762,468.381z"/>
	</g>
</g>
<g>
	<g>
		<path d="M490.794,9.19c-12.252-12.252-32.196-12.256-44.464,0c-1.564,1.564-1.564,4.1,0,5.66c1.564,1.56,4.092,1.56,5.656,0
			c9.14-9.14,24.02-9.136,33.152,0c9.14,9.144,9.14,24.016,0,33.16c-1.564,1.564-1.564,4.096,0,5.656
			c0.78,0.78,1.804,1.172,2.828,1.172c1.024,0,2.048-0.388,2.828-1.176C503.054,41.398,503.054,21.447,490.794,9.19z"/>
	</g>
</g>
<g>
	<g>
		<path d="M159.354,346.177l-12.184-12.184c-1.564-1.564-4.092-1.564-5.656,0c-1.564,1.564-1.564,4.092,0,5.656l12.184,12.184
			c0.78,0.78,1.804,1.172,2.828,1.172s2.048-0.392,2.828-1.172C160.918,350.269,160.918,347.742,159.354,346.177z"/>
	</g>
</g>
<g>
</g>
<g>
</g>
<g>
</g>
<g>
</g>
<g>
</g>
<g>
</g>
<g>
</g>
<g>
</g>
<g>
</g>
<g>
</g>
<g>
</g>
<g>
</g>
<g>
</g>
<g>
</g>
<g>
</g>
</svg>
