<?xml version="1.0" encoding="iso-8859-1"?>
<!-- Generator: Adobe Illustrator 19.0.0, SVG Export Plug-In . SVG Version: 6.00 Build 0)  -->
<svg version="1.1" id="Layer_1" xmlns="http://www.w3.org/2000/svg" xmlns:xlink="http://www.w3.org/1999/xlink" x="0px" y="0px"
	 viewBox="0 0 500 500" style="enable-background:new 0 0 500 500;" xml:space="preserve">
<g>
	<g>
		<path d="M427.952,33.352c-1.564-1.564-4.092-1.564-5.656,0L28.572,427.068c-1.564,1.564-1.564,4.092,0,5.656
			c0.78,0.78,1.804,1.172,2.828,1.172c1.02,0,2.044-0.392,2.828-1.172L427.952,39.008C429.516,37.444,429.516,34.916,427.952,33.352
			z"/>
	</g>
</g>
<g>
	<g>
		<path d="M28.68,460.2c-1.564-1.564-4.092-1.564-5.656,0L3.456,479.772c-1.564,1.564-1.564,4.096,0,5.656
			c0.78,0.78,1.804,1.172,2.828,1.172s2.048-0.392,2.828-1.172l19.568-19.572C30.244,464.292,30.244,461.76,28.68,460.2z"/>
	</g>
</g>
<g>
	<g>
		<path d="M39.716,471.232c-1.564-1.564-4.092-1.564-5.656,0l-19.568,19.572c-1.564,1.564-1.564,4.096,0,5.656
			c0.78,0.78,1.804,1.172,2.828,1.172s2.048-0.388,2.828-1.172l19.568-19.572C41.28,475.324,41.28,472.792,39.716,471.232z"/>
	</g>
</g>
<g>
	<g>
		<path d="M466.62,72.02c-1.564-1.564-4.092-1.564-5.656,0L67.244,465.744c-1.564,1.564-1.564,4.092,0,5.656
			c0.78,0.78,1.804,1.172,2.828,1.172c1.02,0,2.044-0.392,2.828-1.172L466.62,77.676C468.184,76.112,468.184,73.584,466.62,72.02z"
			/>
	</g>
</g>
<g>
	<g>
		<path d="M485.728,30.808L469.16,14.232c-7.656-7.644-20.108-7.648-27.764,0.004l-2.704,2.708c-1.56,1.568-1.56,4.1,0.008,5.66
			c1.564,1.56,4.092,1.56,5.656-0.004l2.7-2.704c4.528-4.532,11.904-4.532,16.448,0l16.568,16.576c2.188,2.184,3.392,5.1,3.392,8.22
			s-1.204,6.04-3.392,8.224l-2.704,2.704c-1.564,1.564-1.564,4.096,0,5.66c0.78,0.776,1.804,1.168,2.828,1.168
			c1.024,0,2.048-0.392,2.828-1.176l2.704-2.704c3.696-3.696,5.736-8.624,5.736-13.88S489.424,34.5,485.728,30.808z"/>
	</g>
</g>
<g>
	<g>
		<path d="M483.024,55.62l-38.672-38.672c-1.564-1.564-4.092-1.564-5.656,0c-1.564,1.564-1.564,4.092,0,5.656l38.672,38.672
			c0.78,0.78,1.804,1.172,2.828,1.172c1.024,0,2.048-0.392,2.828-1.172C484.588,59.712,484.588,57.184,483.024,55.62z"/>
	</g>
</g>
<g>
	<g>
		<path d="M72.9,465.744c-1.564-1.56-4.092-1.56-5.656,0c-9.104,9.1-23.924,9.096-33.024,0c-9.096-9.104-9.092-23.92,0.008-33.02
			c1.564-1.564,1.564-4.092,0-5.656c-1.564-1.564-4.092-1.564-5.656,0c-12.22,12.22-12.224,32.104-0.008,44.332
			c6.112,6.108,14.14,9.164,22.168,9.164c8.024,0,16.052-3.056,22.168-9.16C74.464,469.84,74.464,467.304,72.9,465.744z"/>
	</g>
</g>
<g>
	<g>
		<path d="M20.152,490.808c-1.564-1.564-4.1-1.564-5.656-0.004c-0.72,0.716-1.676,1.112-2.688,1.112c-0.004,0-0.004,0-0.004,0
			c-1.016,0-1.968-0.396-2.688-1.12C8.4,490.076,8,489.12,8,488.104c0-1.008,0.392-1.96,1.108-2.672
			c1.568-1.564,1.568-4.096,0.008-5.66c-1.564-1.564-4.1-1.564-5.656-0.004C1.232,481.996,0,484.952,0,488.104
			c0,3.152,1.228,6.12,3.456,8.348c2.228,2.232,5.192,3.464,8.34,3.464c0.004,0,0.008,0,0.012,0c3.148,0,6.108-1.224,8.336-3.448
			C21.712,494.904,21.712,492.372,20.152,490.808z"/>
	</g>
</g>
<g>
	<g>
		<path d="M78.196,432.816l-24.86-24.86c-1.564-1.564-4.092-1.564-5.656,0c-1.564,1.564-1.564,4.092,0,5.656l24.86,24.86
			c0.78,0.78,1.804,1.172,2.828,1.172c1.024,0,2.048-0.388,2.828-1.172C79.76,436.908,79.76,434.38,78.196,432.816z"/>
	</g>
</g>
<g>
	<g>
		<path d="M485.92,58.512L441.584,14.18c-1.5-1.5-4.156-1.5-5.656,0l-16.4,16.404c-1.564,1.564-1.564,4.092,0,5.656l44.328,44.328
			c0.78,0.78,1.804,1.172,2.828,1.172c1.024,0,2.048-0.388,2.828-1.168l16.408-16.4c0.752-0.752,1.172-1.772,1.172-2.832
			S486.672,59.264,485.92,58.512z M466.684,72.084l-38.672-38.672l10.744-10.748l38.68,38.676L466.684,72.084z"/>
	</g>
</g>
<g>
	<g>
		<path d="M496.548,8.6l-5.172-5.176c-4.456-4.456-12.264-4.452-16.708,0l-10.996,10.992c-1.564,1.56-1.564,4.092,0,5.656
			c1.564,1.564,4.092,1.564,5.656,0l11-10.996c1.424-1.432,3.96-1.432,5.388,0l5.18,5.18c0.708,0.712,1.104,1.668,1.104,2.692
			s-0.392,1.984-1.108,2.7L479.904,30.64c-1.564,1.564-1.564,4.096,0,5.656c0.78,0.78,1.804,1.172,2.828,1.172
			c1.02,0,2.044-0.388,2.828-1.168l10.988-10.992c2.224-2.228,3.456-5.196,3.452-8.36C500,13.788,498.776,10.82,496.548,8.6z"/>
	</g>
</g>
<g>
	<g>
		<path d="M491.508,80.512l-13.064-13.068c-1.564-1.564-4.092-1.564-5.656,0c-1.564,1.56-1.564,4.092,0,5.656l10.236,10.24
			L342.46,223.904c-1.564,1.564-1.564,4.092,0,5.656c0.78,0.78,1.804,1.172,2.828,1.172c1.024,0,2.048-0.388,2.828-1.172
			L491.508,86.168C493.072,84.604,493.072,82.076,491.508,80.512z"/>
	</g>
</g>
<g>
</g>
<g>
</g>
<g>
</g>
<g>
</g>
<g>
</g>
<g>
</g>
<g>
</g>
<g>
</g>
<g>
</g>
<g>
</g>
<g>
</g>
<g>
</g>
<g>
</g>
<g>
</g>
<g>
</g>
</svg>
