<?xml version="1.0" encoding="iso-8859-1"?>
<!-- Generator: Adobe Illustrator 18.0.0, SVG Export Plug-In . SVG Version: 6.00 Build 0)  -->
<!DOCTYPE svg PUBLIC "-//W3C//DTD SVG 1.1//EN" "http://www.w3.org/Graphics/SVG/1.1/DTD/svg11.dtd">
<svg version="1.1" id="Capa_1" xmlns="http://www.w3.org/2000/svg" xmlns:xlink="http://www.w3.org/1999/xlink" x="0px" y="0px"
	 viewBox="0 0 490 490" style="enable-background:new 0 0 490 490;" xml:space="preserve">
<g>
	<path d="M131.188,259.022H7.871c-4.342,0-7.871,3.531-7.871,7.875V406.06c0,4.342,3.529,7.871,7.871,7.871h123.316
		c4.342,0,7.873-3.529,7.873-7.871V266.897C139.061,262.554,135.529,259.022,131.188,259.022z"/>
	<path d="M198.988,259.022h-36.921c-4.343,0-7.876,3.531-7.876,7.875V406.06c0,4.342,3.533,7.871,7.876,7.871h36.921
		c4.342,0,7.869-3.529,7.869-7.871V266.897C206.857,262.554,203.33,259.022,198.988,259.022z M180.527,299.286
		c-5.287,0-9.57-4.284-9.57-9.567c0-5.284,4.283-9.568,9.57-9.568c5.283,0,9.566,4.284,9.566,9.568
		C190.094,295.002,185.811,299.286,180.527,299.286z"/>
	<path d="M468.102,327.465c-7.426,2.844-30.418,29.5-42.863,32.761c-12.428,0-85.338,0.006-85.338,0.006
		c-8.387,0-15.193-6.808-15.193-15.204c0-8.393,6.807-15.198,15.193-15.198h45.703c10.574,0,19.182-8.606,19.182-19.186
		c0-10.578-8.607-19.184-19.182-19.184H267.969c-20.191,0-36.623,16.433-36.623,36.625v49.224c0,20.195,16.432,36.623,36.623,36.623
		c0,0,85.137,0,111.832,0c14.715,0,28.703-1.059,42.35-7.361c23.435-10.819,50.809-38.287,56.154-43.771
		c5.234-5.372,8.182-7.838,10.305-12.685C494.305,337.145,481.52,322.323,468.102,327.465z"/>
	<g>
		<path d="M348.104,168.104H241.984c-1.391,0-2.523,1.126-2.523,2.514v34.702c0,19.136,15.572,34.703,34.709,34.703h73.934
			c1.381,0,2.516-1.128,2.516-2.513v-66.893C350.619,169.23,349.484,168.104,348.104,168.104z"/>
		<path d="M348.104,76.068H274.17c-19.137,0-34.709,15.567-34.709,34.703v34.702c0,1.389,1.133,2.513,2.523,2.513h106.119
			c1.381,0,2.516-1.124,2.516-2.513V78.58C350.619,77.193,349.484,76.068,348.104,76.068z"/>
		<path d="M447.176,76.068h-73.93c-1.391,0-2.51,1.125-2.51,2.512v66.894c0,1.389,1.119,2.513,2.51,2.513h106.123
			c1.389,0,2.51-1.124,2.51-2.513v-34.702C481.879,91.636,466.313,76.068,447.176,76.068z"/>
		<path d="M479.369,168.104H373.246c-1.391,0-2.51,1.126-2.51,2.514v66.893c0,1.385,1.119,2.513,2.51,2.513h73.93
			c19.137,0,34.703-15.567,34.703-34.703v-34.702C481.879,169.23,480.758,168.104,479.369,168.104z"/>
	</g>
</g>
<g>
</g>
<g>
</g>
<g>
</g>
<g>
</g>
<g>
</g>
<g>
</g>
<g>
</g>
<g>
</g>
<g>
</g>
<g>
</g>
<g>
</g>
<g>
</g>
<g>
</g>
<g>
</g>
<g>
</g>
</svg>
