<?xml version="1.0" encoding="iso-8859-1"?>
<!-- Generator: Adobe Illustrator 19.0.0, SVG Export Plug-In . SVG Version: 6.00 Build 0)  -->
<svg version="1.1" id="Layer_1" xmlns="http://www.w3.org/2000/svg" xmlns:xlink="http://www.w3.org/1999/xlink" x="0px" y="0px"
	 viewBox="0 0 512 512" style="enable-background:new 0 0 512 512;" xml:space="preserve">
<g>
	<g>
		<path d="M350.609,178.087H329.25l-6.751-20.266C306.566,110.028,262,77.913,211.62,77.913h-11.272V50.087
			c0-9.206,7.49-16.696,16.696-16.696h66.783c9.217,0,16.696-7.473,16.696-16.696C300.522,7.473,293.043,0,283.826,0h-66.783
			c-27.619,0-50.087,22.468-50.087,50.087v27.826h-11.272c-50.381,0-94.946,32.115-110.88,79.913l-6.751,20.261H16.696
			C7.479,178.087,0,185.56,0,194.783c0,9.223,7.479,16.696,16.696,16.696h18.443l31.742,285.668
			C67.827,505.603,74.968,512,83.478,512h200.348c4.501,0,8.538-1.862,11.56-4.799c-30.91-27.541-50.517-67.512-50.517-112.07
			c0-5.649,0.375-11.206,0.984-16.696H87.293l-7.421-66.783h190.405c14.167-21.121,33.588-38.372,56.323-50.085l5.565-50.089h18.443
			c9.217,0,16.696-7.473,16.696-16.696C367.304,185.56,359.826,178.087,350.609,178.087z M73.25,178.087l3.228-9.701
			c11.391-34.141,43.217-57.081,79.206-57.081h55.935c35.989,0,67.816,22.94,79.206,57.076l3.228,9.707H73.25z"/>
	</g>
</g>
<g>
	<g>
		<path d="M395.13,278.261c-64.445,0-116.87,52.429-116.87,116.87S330.685,512,395.13,512S512,459.571,512,395.13
			S459.576,278.261,395.13,278.261z M345.043,406.261c-9.22,0-16.696-7.475-16.696-16.696c0-9.22,7.475-16.696,16.696-16.696
			c9.22,0,16.696,7.475,16.696,16.696C361.739,398.786,354.264,406.261,345.043,406.261z M389.565,461.913
			c-9.22,0-16.696-7.475-16.696-16.696c0-9.22,7.475-16.696,16.696-16.696c9.22,0,16.696,7.475,16.696,16.696
			C406.261,454.438,398.786,461.913,389.565,461.913z M400.696,361.739c-9.22,0-16.696-7.475-16.696-16.696
			c0-9.22,7.475-16.696,16.696-16.696c9.22,0,16.696,7.475,16.696,16.696C417.391,354.264,409.916,361.739,400.696,361.739z
			 M445.217,417.391c-9.22,0-16.696-7.475-16.696-16.696c0-9.22,7.475-16.696,16.696-16.696c9.22,0,16.696,7.475,16.696,16.696
			C461.913,409.916,454.438,417.391,445.217,417.391z"/>
	</g>
</g>
<g>
</g>
<g>
</g>
<g>
</g>
<g>
</g>
<g>
</g>
<g>
</g>
<g>
</g>
<g>
</g>
<g>
</g>
<g>
</g>
<g>
</g>
<g>
</g>
<g>
</g>
<g>
</g>
<g>
</g>
</svg>
