<?xml version="1.0" encoding="iso-8859-1"?>
<!-- Generator: Adobe Illustrator 19.0.0, SVG Export Plug-In . SVG Version: 6.00 Build 0)  -->
<svg version="1.1" id="Layer_1" xmlns="http://www.w3.org/2000/svg" xmlns:xlink="http://www.w3.org/1999/xlink" x="0px" y="0px"
	 viewBox="0 0 512 512" style="enable-background:new 0 0 512 512;" xml:space="preserve">
<path style="fill:#FCE469;" d="M475.226,388.18H36.774c-14.604,0-26.443-11.838-26.443-26.442V150.262
	c0-14.604,11.838-26.442,26.442-26.442h438.453c14.604,0,26.442,11.838,26.442,26.442v211.476
	C501.668,376.342,489.83,388.18,475.226,388.18z"/>
<g>
	<circle style="fill:#FFA22B;" cx="166.12" cy="192.402" r="27.893"/>
	<circle style="fill:#FFA22B;" cx="78.308" cy="324.637" r="20.662"/>
	<circle style="fill:#FFA22B;" cx="413.027" cy="201.193" r="27.893"/>
	<circle style="fill:#FFA22B;" cx="318.5" cy="302.425" r="41.84"/>
</g>
<g>
	<path style="fill:#570029;" d="M475.226,398.512H36.774C16.496,398.512,0,382.015,0,361.738V150.262
		c0-20.277,16.496-36.774,36.774-36.774h438.453c20.276,0,36.774,16.496,36.774,36.774v211.476
		C512,382.015,495.503,398.512,475.226,398.512z M36.774,134.15c-8.885,0-16.112,7.227-16.112,16.112v211.476
		c0,8.885,7.227,16.112,16.112,16.112h438.453c8.885,0,16.112-7.227,16.112-16.112V150.262c0-8.885-7.227-16.112-16.112-16.112
		H36.774z"/>
	<path style="fill:#570029;" d="M166.121,230.631c-21.077,0-38.224-17.147-38.224-38.224s17.147-38.224,38.224-38.224
		s38.224,17.147,38.224,38.224S187.198,230.631,166.121,230.631z M166.121,174.844c-9.684,0-17.562,7.878-17.562,17.562
		c0,9.684,7.878,17.562,17.562,17.562s17.562-7.878,17.562-17.562C183.684,182.723,175.805,174.844,166.121,174.844z"/>
	<path style="fill:#570029;" d="M78.309,355.634c-17.089,0-30.993-13.903-30.993-30.993c0-17.089,13.903-30.993,30.993-30.993
		s30.993,13.903,30.993,30.993C109.301,341.731,95.398,355.634,78.309,355.634z M78.309,314.311
		c-5.696,0-10.331,4.634-10.331,10.331s4.634,10.331,10.331,10.331c5.696,0,10.331-4.634,10.331-10.331
		S84.005,314.311,78.309,314.311z"/>
	<path style="fill:#570029;" d="M413.028,239.416c-21.077,0-38.224-17.147-38.224-38.224s17.147-38.224,38.224-38.224
		c21.077,0,38.224,17.147,38.224,38.224S434.105,239.416,413.028,239.416z M413.028,183.63c-9.684,0-17.562,7.878-17.562,17.562
		c0,9.684,7.878,17.562,17.562,17.562c9.684,0,17.562-7.878,17.562-17.562C430.591,191.508,422.713,183.63,413.028,183.63z"/>
	<path style="fill:#570029;" d="M318.501,354.601c-28.767,0-52.171-23.403-52.171-52.171s23.403-52.171,52.171-52.171
		s52.171,23.403,52.171,52.171S347.268,354.601,318.501,354.601z M318.501,270.921c-17.374,0-31.509,14.136-31.509,31.509
		s14.135,31.509,31.509,31.509s31.509-14.136,31.509-31.509S335.876,270.921,318.501,270.921z"/>
	<path style="fill:#570029;" d="M42.151,233.73c-5.706,0-10.331-4.626-10.331-10.331v-68.184c0-5.705,4.625-10.331,10.331-10.331
		s10.331,4.626,10.331,10.331v68.184C52.482,229.104,47.857,233.73,42.151,233.73z"/>
	<path style="fill:#570029;" d="M42.151,269.888c-5.706,0-10.331-4.626-10.331-10.331v-4.132c0-5.705,4.625-10.331,10.331-10.331
		s10.331,4.626,10.331,10.331v4.132C52.482,265.262,47.857,269.888,42.151,269.888z"/>
</g>
<g>
</g>
<g>
</g>
<g>
</g>
<g>
</g>
<g>
</g>
<g>
</g>
<g>
</g>
<g>
</g>
<g>
</g>
<g>
</g>
<g>
</g>
<g>
</g>
<g>
</g>
<g>
</g>
<g>
</g>
</svg>
