<?xml version="1.0" encoding="iso-8859-1"?>
<!-- Generator: Adobe Illustrator 19.0.0, SVG Export Plug-In . SVG Version: 6.00 Build 0)  -->
<svg version="1.1" id="Capa_1" xmlns="http://www.w3.org/2000/svg" xmlns:xlink="http://www.w3.org/1999/xlink" x="0px" y="0px"
	 viewBox="0 0 470 470" style="enable-background:new 0 0 470 470;" xml:space="preserve">
<g>
	<path d="M310.653,103.104h110.179c27.111,0,49.168-22.057,49.168-49.168c0-4.142-3.357-7.5-7.5-7.5s-7.5,3.358-7.5,7.5
		c0,18.84-15.328,34.168-34.168,34.168h-19.783c8.571-8.854,13.862-20.901,13.862-34.168c0-4.142-3.357-7.5-7.5-7.5
		s-7.5,3.358-7.5,7.5c0,18.84-15.328,34.168-34.169,34.168H345.96c8.571-8.854,13.862-20.901,13.862-34.168
		c0-4.142-3.357-7.5-7.5-7.5s-7.5,3.358-7.5,7.5c0,18.84-15.328,34.168-34.168,34.168c-24.562,0-44.974,18.104-48.596,41.668
		h-54.114c-3.622-23.565-24.035-41.668-48.596-41.668c-18.84,0-34.168-15.328-34.168-34.168c0-4.142-3.357-7.5-7.5-7.5
		s-7.5,3.358-7.5,7.5c0,13.267,5.291,25.315,13.862,34.168h-19.782c-18.841,0-34.169-15.328-34.169-34.168
		c0-4.142-3.357-7.5-7.5-7.5s-7.5,3.358-7.5,7.5c0,13.267,5.291,25.315,13.862,34.168H49.168C30.328,88.104,15,72.776,15,53.936
		c0-4.142-3.357-7.5-7.5-7.5S0,49.793,0,53.936c0,27.112,22.057,49.168,49.168,49.168h110.179c16.63,0,30.516,11.946,33.547,27.706
		c-11.767,3.043-21.172,12.517-23.943,24.503c-10.185,4.966-18.408,13.054-23.67,22.799l-108.877-9.965
		c-2.42-0.223-4.806,0.746-6.387,2.598c-1.581,1.851-2.165,4.354-1.566,6.714c7.607,30.004,29.491,54.229,58.539,64.801
		c17.128,6.233,35.31,7.585,52.154,4.002c1.75,28.992,11.368,56.57,28.098,80.383l6.597,57.204
		c2.623,21.899,22.642,39.715,44.623,39.715h33.078c21.981,0,42-17.816,44.627-39.748l6.594-57.171
		c16.729-23.812,26.347-51.391,28.097-80.383c16.845,3.584,35.026,2.231,52.154-4.002c29.047-10.572,50.932-34.797,58.54-64.801
		c0.599-2.36,0.015-4.863-1.566-6.715c-1.581-1.851-3.964-2.816-6.387-2.598l-108.878,9.965
		c-5.261-9.745-13.484-17.833-23.67-22.799c-2.772-11.987-12.176-21.46-23.943-24.503
		C280.137,115.05,294.023,103.104,310.653,103.104z M291.587,167.535c10.061,3.897,17.706,11.571,21.628,21.054
		c0.089,0.248,0.19,0.489,0.303,0.723c1.707,4.38,2.63,9.127,2.63,14.06c0,4.142,3.357,7.5,7.5,7.5s7.5-3.358,7.5-7.5
		c0-3.629-0.384-7.205-1.106-10.685l93.568-8.564c-8.287,20.345-24.79,36.42-45.729,44.041c-17.182,6.253-35.519,6.722-51.632,1.32
		c-0.769-0.258-1.573-0.389-2.384-0.389h-0.217c-0.255,0-0.507,0.013-0.755,0.038c-0.024,0.002-52.167,5.274-52.167,5.274
		c-3.83,0.387-6.745,3.612-6.745,7.462v13.326c0,4.142,3.357,7.5,7.5,7.5s7.5-3.358,7.5-7.5v-6.546l36.902-3.731
		c-1.549,26.967-10.591,52.595-26.435,74.563c-0.75,1.04-1.221,2.254-1.367,3.528l-6.811,59.056
		c-1.722,14.364-15.336,26.5-29.73,26.5h-33.078c-14.395,0-28.009-12.135-29.727-26.466l-6.813-59.089
		c-0.146-1.273-0.617-2.488-1.367-3.528c-15.844-21.969-24.887-47.597-26.436-74.563l36.902,3.731v6.546c0,4.142,3.357,7.5,7.5,7.5
		s7.5-3.358,7.5-7.5v-13.326c0-3.85-2.915-7.075-6.745-7.462l-52.143-5.272c-0.272-0.027-0.524-0.041-0.779-0.041h-0.217
		c-0.811,0-1.615,0.131-2.384,0.389c-16.113,5.402-34.452,4.934-51.632-1.32c-20.939-7.621-37.442-23.696-45.729-44.041
		l93.568,8.564c-0.722,3.479-1.106,7.055-1.106,10.685c0,4.142,3.357,7.5,7.5,7.5s7.5-3.358,7.5-7.5c0-4.943,0.926-9.7,2.64-14.088
		c0.105-0.218,0.199-0.442,0.282-0.672c3.919-9.495,11.569-17.178,21.639-21.078c2.677-1.037,4.526-3.51,4.765-6.37
		c0.768-9.192,8.602-16.392,17.837-16.392h67.971c9.235,0,17.069,7.2,17.837,16.392C287.061,164.025,288.91,166.498,291.587,167.535
		z"/>
	<path d="M245.886,319.778h-21.771c-13.192,0-23.926,10.733-23.926,23.926c0,6.469,2.646,12.635,7.218,17.105
		c1.957,13.469,13.65,23.899,27.594,23.899s25.637-10.43,27.594-23.899c4.571-4.47,7.218-10.636,7.218-17.105
		C269.812,330.511,259.078,319.778,245.886,319.778z M251.035,350.979c-1.95,1.386-3.122,3.62-3.154,6.013
		c-0.095,7.012-5.873,12.717-12.881,12.717s-12.786-5.705-12.881-12.717c-0.032-2.393-1.204-4.626-3.154-6.013
		c-2.365-1.68-3.776-4.4-3.776-7.275c0-4.922,4.004-8.926,8.926-8.926h21.771c4.922,0,8.926,4.004,8.926,8.926
		C254.812,346.579,253.4,349.298,251.035,350.979z"/>
</g>
<g>
</g>
<g>
</g>
<g>
</g>
<g>
</g>
<g>
</g>
<g>
</g>
<g>
</g>
<g>
</g>
<g>
</g>
<g>
</g>
<g>
</g>
<g>
</g>
<g>
</g>
<g>
</g>
<g>
</g>
</svg>
