<?xml version="1.0" encoding="iso-8859-1"?>
<!-- Generator: Adobe Illustrator 19.0.0, SVG Export Plug-In . SVG Version: 6.00 Build 0)  -->
<svg version="1.1" id="Layer_1" xmlns="http://www.w3.org/2000/svg" xmlns:xlink="http://www.w3.org/1999/xlink" x="0px" y="0px"
	 viewBox="0 0 512 512" style="enable-background:new 0 0 512 512;" xml:space="preserve">
<g>
	<g>
		<path d="M255.993,393.466c-13.767,0-25.4,7.755-25.4,16.933v97.367c0,2.337,1.897,4.233,4.233,4.233h42.334
			c2.337,0,4.233-1.897,4.233-4.233v-97.367C281.393,401.221,269.76,393.466,255.993,393.466z"/>
	</g>
</g>
<g>
	<g>
		<path d="M337.943,339.88c-11.684-45.754-23.775-93.075-14.376-139.472c0.508-2.489-0.135-5.072-1.744-7.036
			c-1.609-1.964-4.013-3.107-6.553-3.107H196.735c-2.54,0-4.945,1.143-6.553,3.107c-1.609,1.964-2.252,4.547-1.744,7.036
			c9.398,46.389-2.692,93.71-14.377,139.472c-17.154,67.124-33.342,130.701,33.461,166.041c2.786,1.473,6.147-0.643,6.147-3.793
			v-91.729c0-18.678,18.991-33.867,42.334-33.867s42.334,15.189,42.334,33.867v91.729c0,3.15,3.361,5.266,6.147,3.793
			C371.285,470.572,355.088,406.996,337.943,339.88z"/>
	</g>
</g>
<g>
	<g>
		<path d="M288.658,50.436L259.625,2.057c-1.643-2.743-5.613-2.743-7.256,0l-29.032,48.379c-1.041,1.727-1.422,3.768-1.092,5.749
			l16.595,48.751c0.152,0.44,0.229,0.897,0.229,1.363v62.798c-0.008,2.337,1.888,4.233,4.225,4.233h25.4
			c2.337,0,4.233-1.897,4.233-4.233V106.3c0-0.466,0.076-0.923,0.229-1.363l16.595-48.751
			C290.08,54.204,289.699,52.163,288.658,50.436z"/>
	</g>
</g>
<g>
</g>
<g>
</g>
<g>
</g>
<g>
</g>
<g>
</g>
<g>
</g>
<g>
</g>
<g>
</g>
<g>
</g>
<g>
</g>
<g>
</g>
<g>
</g>
<g>
</g>
<g>
</g>
<g>
</g>
</svg>
