<?xml version="1.0" encoding="iso-8859-1"?>
<!-- Generator: Adobe Illustrator 19.0.0, SVG Export Plug-In . SVG Version: 6.00 Build 0)  -->
<svg version="1.1" id="Layer_1" xmlns="http://www.w3.org/2000/svg" xmlns:xlink="http://www.w3.org/1999/xlink" x="0px" y="0px"
	 viewBox="0 0 512.001 512.001" style="enable-background:new 0 0 512.001 512.001;" xml:space="preserve">
<g>
	<g>
		<path d="M464.631,307.827c-0.393-2.28-1.678-4.309-3.572-5.637c-0.943-0.663-23.535-16.407-60.129-32.292
			c-22.629-9.823-53.689-20.902-89.326-27.154v-38.602c0-4.799-3.889-8.689-8.689-8.689h-38.224v-68.275
			c13.334-3.792,23.132-16.071,23.132-30.606V31.821C287.821,14.275,273.547,0,256.001,0c-17.546,0-31.821,14.275-31.821,31.821
			v64.752c0,14.534,9.798,26.814,23.132,30.606v68.275h-38.226c-4.8,0-8.689,3.89-8.689,8.689v38.602
			c-35.637,6.253-66.698,17.331-89.326,27.154c-36.594,15.886-59.186,31.63-60.129,32.292c-1.894,1.329-3.179,3.359-3.572,5.637
			c-0.393,2.279,0.14,4.622,1.481,6.507c0.94,1.321,23.412,32.719,59.977,64.543c32.537,28.319,65.919,47.755,98.535,57.621
			c0.549,23.357,17.618,42.684,39.95,46.729v11.395h-26.065c-4.8,0-8.689,3.89-8.689,8.689c0,4.799,3.889,8.689,8.689,8.689h69.507
			c4.8,0,8.689-3.89,8.689-8.689c0-4.799-3.889-8.689-8.689-8.689h-26.064v-11.395c22.334-4.044,39.401-23.373,39.95-46.73
			c32.615-9.866,65.996-29.304,98.533-57.621c36.565-31.823,59.038-63.221,59.978-64.543
			C464.491,312.449,465.023,310.107,464.631,307.827z M241.558,96.573V31.821c0-7.964,6.48-14.443,14.443-14.443
			c7.964,0,14.443,6.48,14.443,14.443v64.752c0,7.964-6.48,14.443-14.443,14.443C248.038,111.016,241.558,104.536,241.558,96.573z
			 M217.775,212.83h76.45v27.312c-12.349-1.52-25.135-2.398-38.225-2.398c-13.09,0-25.877,0.878-38.225,2.398V212.83z M256,255.121
			c71.346,0,134.392,27.329,168.412,45.491H87.587C121.608,282.451,184.653,255.121,256,255.121z M256.001,466.643
			c-15.336,0-28.122-11.096-30.776-25.682c10.386,2.036,20.663,3.074,30.775,3.074c10.113,0,20.391-1.038,30.777-3.074
			C284.123,455.546,271.338,466.643,256.001,466.643z M391.474,366.022c-31.849,27.661-81.205,60.633-135.474,60.633
			c-54.27,0-103.625-32.973-135.474-60.633c-20.7-17.979-36.892-36.106-46.755-48.032h364.458
			C428.366,329.917,412.174,348.043,391.474,366.022z"/>
	</g>
</g>
<g>
	<g>
		<path d="M353.319,331.036H256c-4.8,0-8.689,3.89-8.689,8.689c0,4.799,3.889,8.689,8.689,8.689h97.319
			c4.8,0,8.689-3.89,8.689-8.689C362.008,334.927,358.118,331.036,353.319,331.036z"/>
	</g>
</g>
<g>
	<g>
		<path d="M225.882,331.036h-20.853c-4.8,0-8.689,3.89-8.689,8.689c0,4.799,3.889,8.689,8.689,8.689h20.853
			c4.8,0,8.689-3.89,8.689-8.689C234.571,334.927,230.681,331.036,225.882,331.036z"/>
	</g>
</g>
<g>
	<g>
		<path d="M327.832,275.428h-81.096c-4.8,0-8.689,3.89-8.689,8.689c0,4.799,3.889,8.689,8.689,8.689h81.096
			c4.8,0,8.689-3.89,8.689-8.689C336.521,279.318,332.631,275.428,327.832,275.428z"/>
	</g>
</g>
<g>
	<g>
		<circle cx="381.128" cy="339.723" r="8.689"/>
	</g>
</g>
<g>
</g>
<g>
</g>
<g>
</g>
<g>
</g>
<g>
</g>
<g>
</g>
<g>
</g>
<g>
</g>
<g>
</g>
<g>
</g>
<g>
</g>
<g>
</g>
<g>
</g>
<g>
</g>
<g>
</g>
</svg>
