<?xml version="1.0" encoding="iso-8859-1"?>
<!-- Generator: Adobe Illustrator 16.0.0, SVG Export Plug-In . SVG Version: 6.00 Build 0)  -->
<!DOCTYPE svg PUBLIC "-//W3C//DTD SVG 1.1//EN" "http://www.w3.org/Graphics/SVG/1.1/DTD/svg11.dtd">
<svg version="1.1" id="Capa_1" xmlns="http://www.w3.org/2000/svg" xmlns:xlink="http://www.w3.org/1999/xlink" x="0px" y="0px"
	 width="459.233px" height="459.233px" viewBox="0 0 459.233 459.233" style="enable-background:new 0 0 459.233 459.233;"
	 xml:space="preserve">
<g>
	<g>
		<path d="M419.927,226.564c-4.868-4.896-12.782-4.918-17.678-0.05L345.35,283.09l-20.995-25.158l44.822-85.543
			c2.946-5.623,1.209-12.562-4.039-16.135L213.872,53.287c-2.833-1.929-6.335-2.609-9.685-1.883
			c-3.35,0.727-6.254,2.798-8.034,5.728l-16.717,27.529c0.777-3.09,1.353-6.252,1.697-9.476c1.932-18.047-3.28-35.767-14.676-49.894
			C153.492,9.219,134.203,0,113.534,0C98.088,0,82.95,5.35,70.907,15.063C56.782,26.459,47.938,42.674,46.006,60.721
			c-1.932,18.047,3.28,35.766,14.675,49.893c12.964,16.073,32.254,25.292,52.924,25.292c0.001,0,0,0,0,0
			c15.445,0,30.585-5.35,42.626-15.063c0.869-0.701,1.718-1.421,2.547-2.158l-16.738,27.564l-62.538,4.309
			c-4.224,0.291-8.014,2.701-10.069,6.402c-2.055,3.702-2.097,8.192-0.11,11.932l21.96,41.34c2.08,3.915,6.078,6.436,10.507,6.625
			l80.445,3.43c4.235,0.176,8.248-1.785,10.704-5.223l24.831-34.762l41.569,25.941l-18.948,51.997
			c-1.507,4.135-0.728,8.758,2.052,12.171l51.846,63.687L194.15,434.233h-29.862c-6.903,0-12.5,5.597-12.5,12.5
			c0,6.902,5.597,12.5,12.5,12.5h35.04c3.315,0,6.495-1.317,8.839-3.661l93.72-93.721l57.419-57.385l60.569-60.225
			C424.771,239.374,424.794,231.459,419.927,226.564z M156.277,72.525c-1.221,11.407-6.811,21.656-15.741,28.858
			c-7.722,6.229-17.035,9.522-26.931,9.522c-13.073,0-25.271-5.827-33.465-15.987c-7.203-8.929-10.497-20.128-9.275-31.536
			c1.221-11.407,6.811-21.656,15.74-28.858c7.723-6.229,17.036-9.522,26.932-9.522c13.072,0,25.269,5.827,33.464,15.987
			C154.203,49.918,157.497,61.118,156.277,72.525z M312.065,316.335l-45.757-56.204l19.987-54.85
			c2.022-5.55-0.116-11.757-5.127-14.884l-60.129-37.522c-5.601-3.494-12.953-2.033-16.789,3.339l-27.72,38.807l-66.528-2.836
			l-9.567-18.01l49.785-3.431c4.052-0.279,7.717-2.51,9.825-5.982l50.643-83.399l131.174,89.289l-43.529,83.076
			c-2.346,4.478-1.764,9.929,1.476,13.81l27.777,33.286L312.065,316.335z"/>
		<path d="M162.479,416.982c6.224-2.986,8.849-10.453,5.863-16.678L59.444,173.323c-2.986-6.225-10.452-8.85-16.677-5.863
			c-6.224,2.986-8.849,10.453-5.863,16.677l108.898,226.982c2.149,4.481,6.621,7.096,11.279,7.096
			C158.894,418.215,160.735,417.819,162.479,416.982z"/>
	</g>
</g>
<g>
</g>
<g>
</g>
<g>
</g>
<g>
</g>
<g>
</g>
<g>
</g>
<g>
</g>
<g>
</g>
<g>
</g>
<g>
</g>
<g>
</g>
<g>
</g>
<g>
</g>
<g>
</g>
<g>
</g>
</svg>
