<?xml version="1.0" encoding="iso-8859-1"?>
<!-- Generator: Adobe Illustrator 16.0.0, SVG Export Plug-In . SVG Version: 6.00 Build 0)  -->
<!DOCTYPE svg PUBLIC "-//W3C//DTD SVG 1.1//EN" "http://www.w3.org/Graphics/SVG/1.1/DTD/svg11.dtd">
<svg version="1.1" id="Capa_1" xmlns="http://www.w3.org/2000/svg" xmlns:xlink="http://www.w3.org/1999/xlink" x="0px" y="0px"
	 width="470.323px" height="470.323px" viewBox="0 0 470.323 470.323" style="enable-background:new 0 0 470.323 470.323;"
	 xml:space="preserve">
<g>
	<g>
		<path d="M226.481,411.25c25.226,34.934,66.103,55.789,109.349,55.791c0.002,0,0.002,0,0.004,0c28.414,0,55.621-8.8,78.676-25.447
			c29.123-21.028,48.32-52.188,54.057-87.739c5.738-35.549-2.684-71.166-23.713-100.289
			c-25.227-34.934-66.104-55.791-109.348-55.791c-28.418,0-55.626,8.799-78.68,25.447
			C196.62,266.697,183.007,351.045,226.481,411.25z M271.46,243.491c18.769-13.552,40.913-20.715,64.042-20.715
			c35.24,0,68.541,16.982,89.082,45.426c17.119,23.708,23.975,52.713,19.301,81.671s-20.305,54.333-44.012,71.453
			c-18.77,13.553-40.914,20.716-64.043,20.715c-35.24-0.001-68.542-16.982-89.081-45.426
			C211.346,347.586,222.431,278.894,271.46,243.491z"/>
		<circle cx="291.848" cy="310.54" r="14.165"/>
		<circle cx="328.693" cy="283.934" r="14.165"/>
		<circle cx="333.422" cy="329.299" r="14.166"/>
		<path d="M44.691,414.414c2.315,2.163,5.365,3.365,8.533,3.365h41.144c3.168,0,6.218-1.203,8.533-3.365
			c29.028-27.114,44.691-112.696,44.691-179.454c0-54.509-9.953-93.813-32.165-126.475l7.304-41.943
			c1.077-4.155,1.622-8.425,1.622-12.703c0-27.876-22.679-50.556-50.556-50.556S23.24,25.962,23.24,53.839
			c0,4.279,0.545,8.549,1.622,12.703l7.303,41.942C9.954,141.149,0,180.453,0,234.96C0.001,301.72,15.664,387.301,44.691,414.414z
			 M55.478,118.789c1.99-2.736,2.785-6.162,2.205-9.495l-8.284-47.576c-0.066-0.384-0.151-0.764-0.253-1.14
			c-0.6-2.203-0.904-4.471-0.904-6.739c0-14.091,11.464-25.556,25.556-25.556c14.092,0,25.556,11.464,25.556,25.556
			c0,2.268-0.304,4.535-0.905,6.739c-0.102,0.376-0.187,0.756-0.253,1.14l-8.285,47.577c-0.581,3.333,0.215,6.76,2.205,9.496
			c15.071,20.725,30.477,50.733,30.477,116.169c0,33.189-4.06,69.715-11.138,100.209c-6.113,26.333-14.361,47.271-22.556,57.61
			H58.694c-8.195-10.338-16.443-31.277-22.556-57.61C29.059,304.675,25,268.15,25,234.96
			C25.001,169.526,40.407,139.516,55.478,118.789z"/>
		<path d="M161.681,236.19c0.016,6.893,5.608,12.472,12.5,12.472h29.142c4.379,0,8.438-2.292,10.701-6.04
			c9.364-15.512,21.577-28.768,36.3-39.4c13.185-9.52,27.748-16.493,43.289-20.726c6.479-1.765,10.406-8.334,8.893-14.877
			c-5.197-22.478-13.318-41.413-25.408-59.14l7.303-41.937c1.076-4.152,1.621-8.423,1.621-12.704
			c0-27.876-22.679-50.556-50.556-50.556s-50.555,22.68-50.555,50.557c0,4.281,0.545,8.551,1.622,12.704l7.303,41.941
			c-22.211,32.665-32.165,71.969-32.165,126.476L161.681,236.19z M217.148,118.789c1.99-2.736,2.785-6.162,2.205-9.496
			l-8.284-47.576c-0.067-0.384-0.151-0.765-0.254-1.142c-0.6-2.201-0.904-4.467-0.904-6.737c0-14.091,11.464-25.556,25.556-25.556
			s25.557,11.464,25.557,25.556c0,2.27-0.305,4.537-0.904,6.737c-0.104,0.376-0.188,0.757-0.254,1.142l-8.284,47.577
			c-0.581,3.333,0.215,6.759,2.205,9.496c9.622,13.232,16.551,27.207,21.407,43.315c-14.025,5.028-27.27,12.014-39.503,20.848
			c-15.523,11.209-28.697,24.882-39.236,40.708h-9.621C188.502,165.993,202.973,138.284,217.148,118.789z"/>
		<path d="M318.766,173.211c2.475,3.08,6.252,4.802,10.207,4.663c1.785-0.066,3.432-0.098,5.031-0.098
			c37.799,0,74.104,15.979,99.605,43.839c2.42,2.643,5.787,4.061,9.225,4.061c0.109,0,0.221-0.001,0.332-0.004
			c6.758-0.167,12.186-5.698,12.186-12.496c0-0.493-0.029-0.979-0.084-1.457c-2.566-42.99-12.336-75.119-31.5-103.237l7.303-41.939
			c1.078-4.153,1.623-8.424,1.623-12.703c0-27.876-22.68-50.556-50.557-50.556S331.58,25.963,331.58,53.84
			c0,4.28,0.545,8.55,1.623,12.704l7.303,41.935c-11.143,16.329-18.846,33.55-24.094,53.763
			C315.418,166.064,316.291,170.131,318.766,173.211z M363.818,118.789c1.99-2.736,2.785-6.162,2.205-9.495l-8.285-47.577
			c-0.066-0.384-0.152-0.765-0.254-1.142c-0.6-2.202-0.904-4.468-0.904-6.737c0-14.091,11.465-25.556,25.557-25.556
			s25.557,11.464,25.557,25.556c0,2.269-0.305,4.536-0.904,6.739c-0.102,0.375-0.188,0.756-0.254,1.14l-8.285,47.577
			c-0.58,3.333,0.217,6.759,2.205,9.496c13.219,18.176,21.699,38.487,26.279,63.596c-23.809-16.895-51.986-27.098-81.346-29.204
			C349.971,140.747,355.98,129.569,363.818,118.789z"/>
	</g>
</g>
<g>
</g>
<g>
</g>
<g>
</g>
<g>
</g>
<g>
</g>
<g>
</g>
<g>
</g>
<g>
</g>
<g>
</g>
<g>
</g>
<g>
</g>
<g>
</g>
<g>
</g>
<g>
</g>
<g>
</g>
</svg>
