<?xml version="1.0" encoding="iso-8859-1"?>
<!-- Generator: Adobe Illustrator 19.0.0, SVG Export Plug-In . SVG Version: 6.00 Build 0)  -->
<svg version="1.1" id="Layer_1" xmlns="http://www.w3.org/2000/svg" xmlns:xlink="http://www.w3.org/1999/xlink" x="0px" y="0px"
	 viewBox="0 0 512 512" style="enable-background:new 0 0 512 512;" xml:space="preserve">
<g>
	<g>
		<path d="M55.661,411.831v83.474c0,9.217,7.48,16.695,16.697,16.695h367.288c9.217,0,16.693-7.478,16.693-16.695v-83.474H55.661z"
			/>
	</g>
</g>
<g>
	<g>
		<path d="M347.932,36.695C321.096,11.229,285.76-1.835,248.848,0.208C179.145,3.871,122.44,66.662,122.44,140.19v76.867
			c0,9.217,7.478,16.695,16.695,16.695c9.217,0,16.695-7.478,16.695-16.695V140.19c0-56.063,42.511-103.898,94.758-106.637
			c27.923-1.521,54.236,8.261,74.355,27.357c20.141,19.108,31.226,44.921,31.226,72.671v83.474c0,9.218,7.478,16.696,16.695,16.696
			c9.217,0,16.695-7.478,16.695-16.695v-83.474C389.559,96.584,374.778,62.173,347.932,36.695z"/>
	</g>
</g>
<g>
	<g>
		<path d="M456.338,150.277c0-9.217-7.475-16.695-16.693-16.695h-16.697v83.474c0,27.618-22.467,50.085-50.085,50.085
			c-27.618,0-50.085-22.467-50.085-50.085v-83.474H189.536c-0.193,2.185-0.315,4.389-0.315,6.609v76.867
			c0,27.618-22.467,50.085-50.085,50.085c-27.618,0-50.085-22.467-50.085-50.085v-76.867c0-2.226,0.239-4.4,0.324-6.609H72.359
			c-9.217,0-16.697,7.478-16.697,16.695v228.163h400.677V150.277H456.338z"/>
	</g>
</g>
<g>
</g>
<g>
</g>
<g>
</g>
<g>
</g>
<g>
</g>
<g>
</g>
<g>
</g>
<g>
</g>
<g>
</g>
<g>
</g>
<g>
</g>
<g>
</g>
<g>
</g>
<g>
</g>
<g>
</g>
</svg>
