<?xml version="1.0" encoding="iso-8859-1"?>
<!-- Generator: Adobe Illustrator 18.0.0, SVG Export Plug-In . SVG Version: 6.00 Build 0)  -->
<!DOCTYPE svg PUBLIC "-//W3C//DTD SVG 1.1//EN" "http://www.w3.org/Graphics/SVG/1.1/DTD/svg11.dtd">
<svg version="1.1" id="Capa_1" xmlns="http://www.w3.org/2000/svg" xmlns:xlink="http://www.w3.org/1999/xlink" x="0px" y="0px"
	 viewBox="0 0 297 297" style="enable-background:new 0 0 297 297;" xml:space="preserve">
<g>
	<path d="M295.209,105.335c-5.773-8.061-12.242-15.69-19.228-22.675C241.93,48.608,196.657,29.855,148.5,29.855
		S55.07,48.608,21.02,82.659c-6.987,6.985-13.456,14.614-19.229,22.675c-1.48,2.068-2.078,4.639-1.662,7.147
		c0.417,2.509,1.813,4.749,3.883,6.227l134.907,96.362v42.493c0,5.291,4.29,9.581,9.581,9.581s9.581-4.29,9.581-9.581v-42.493
		l134.907-96.362c2.07-1.478,3.466-3.718,3.883-6.227C297.287,109.974,296.689,107.402,295.209,105.335z M217.839,64.612
		l-53.229,92.734c-5.167-1.584-10.592-2.421-16.111-2.421s-10.943,0.837-16.111,2.421L79.161,64.612
		c21.381-10.206,44.945-15.596,69.339-15.596C172.894,49.016,196.458,54.406,217.839,64.612z M148.5,198.367l-22.686-16.204
		c6.358-5.149,14.354-8.076,22.686-8.076s16.328,2.927,22.686,8.076L148.5,198.367z M34.568,96.209
		c8.539-8.54,17.869-16.002,27.824-22.32l52.907,92.174c-1.913,1.439-3.737,3.004-5.458,4.69l-86.655-61.896
		C26.762,104.438,30.571,100.205,34.568,96.209z M187.159,170.753c-1.721-1.686-3.545-3.251-5.458-4.69l52.907-92.175
		c9.955,6.318,19.285,13.781,27.824,22.32c3.997,3.997,7.805,8.229,11.382,12.648L187.159,170.753z"/>
	<path d="M148.5,137.328c20.867,0,37.843-16.977,37.843-37.843S169.367,61.641,148.5,61.641s-37.843,16.977-37.843,37.843
		S127.633,137.328,148.5,137.328z M148.5,80.802c10.301,0,18.682,8.381,18.682,18.682s-8.381,18.682-18.682,18.682
		s-18.682-8.381-18.682-18.682S138.199,80.802,148.5,80.802z"/>
</g>
<g>
</g>
<g>
</g>
<g>
</g>
<g>
</g>
<g>
</g>
<g>
</g>
<g>
</g>
<g>
</g>
<g>
</g>
<g>
</g>
<g>
</g>
<g>
</g>
<g>
</g>
<g>
</g>
<g>
</g>
</svg>
