<?xml version="1.0" encoding="iso-8859-1"?>
<!-- Generator: Adobe Illustrator 18.0.0, SVG Export Plug-In . SVG Version: 6.00 Build 0)  -->
<!DOCTYPE svg PUBLIC "-//W3C//DTD SVG 1.1//EN" "http://www.w3.org/Graphics/SVG/1.1/DTD/svg11.dtd">
<svg version="1.1" id="Capa_1" xmlns="http://www.w3.org/2000/svg" xmlns:xlink="http://www.w3.org/1999/xlink" x="0px" y="0px"
	 viewBox="0 0 297 297" style="enable-background:new 0 0 297 297;" xml:space="preserve">
<g>
	<path d="M227.648,68.35c-7.532-5.918-15.939-10.872-24.966-14.829V31.46c0-17.347-14.112-31.46-31.459-31.46h-45.445
		c-17.347,0-31.459,14.113-31.459,31.46v22.061c-9.027,3.957-17.434,8.911-24.966,14.829
		c-21.951,17.246-34.038,40.392-34.038,65.175s12.088,47.929,34.038,65.175c7.537,5.922,15.951,10.879,24.985,14.837
		c-0.004,0.123-0.019,0.244-0.019,0.368v6.155c0,11.508,6.214,21.587,15.46,27.072v25.543c0,5.483,4.446,9.929,9.929,9.929
		s9.929-4.446,9.929-9.929v-21.155h8.936v35.552c0,5.483,4.446,9.929,9.929,9.929s9.929-4.446,9.929-9.929v-35.552h8.936v21.155
		c0,5.483,4.446,9.929,9.929,9.929s9.929-4.446,9.929-9.929v-25.543c9.246-5.485,15.46-15.564,15.46-27.072v-6.155
		c0-0.124-0.014-0.245-0.019-0.368c9.034-3.958,17.448-8.916,24.985-14.837c21.951-17.246,34.038-40.392,34.038-65.175
		S249.598,85.596,227.648,68.35z M182.824,133.525c0,41.96-18.09,71.202-34.324,71.202s-34.324-29.242-34.324-71.202
		s18.09-71.202,34.324-71.202S182.824,91.565,182.824,133.525z M114.176,31.46c0-6.398,5.205-11.603,11.602-11.603h45.445
		c6.397,0,11.602,5.205,11.602,11.603v15.261c-10.964-2.787-22.507-4.255-34.324-4.255s-23.36,1.469-34.324,4.255V31.46z
		 M55.171,133.525c0-28.842,22.594-53.733,54.988-64.913c-9.832,16.399-15.841,39.259-15.841,64.913s6.009,48.514,15.841,64.913
		C77.765,187.258,55.171,162.367,55.171,133.525z M171.222,231.662h-45.445c-6.305,0-11.442-5.059-11.588-11.33
		c10.96,2.784,22.498,4.252,34.311,4.252s23.351-1.467,34.311-4.252C182.664,226.603,177.528,231.662,171.222,231.662z
		 M186.84,198.438c9.832-16.399,15.841-39.259,15.841-64.913s-6.009-48.514-15.841-64.913c32.394,11.18,54.988,36.072,54.988,64.913
		S219.235,187.258,186.84,198.438z"/>
	<path d="M118.714,132.93c0,16.424,13.362,29.786,29.786,29.786s29.786-13.362,29.786-29.786s-13.362-29.786-29.786-29.786
		S118.714,116.506,118.714,132.93z M148.5,123.001c5.474,0,9.929,4.454,9.929,9.929c0,5.474-4.454,9.929-9.929,9.929
		s-9.929-4.454-9.929-9.929C138.571,127.456,143.026,123.001,148.5,123.001z"/>
</g>
<g>
</g>
<g>
</g>
<g>
</g>
<g>
</g>
<g>
</g>
<g>
</g>
<g>
</g>
<g>
</g>
<g>
</g>
<g>
</g>
<g>
</g>
<g>
</g>
<g>
</g>
<g>
</g>
<g>
</g>
</svg>
