<?xml version="1.0" encoding="iso-8859-1"?>
<!-- Generator: Adobe Illustrator 19.0.0, SVG Export Plug-In . SVG Version: 6.00 Build 0)  -->
<svg version="1.1" id="Capa_1" xmlns="http://www.w3.org/2000/svg" xmlns:xlink="http://www.w3.org/1999/xlink" x="0px" y="0px"
	 viewBox="0 0 490.771 490.771" style="enable-background:new 0 0 490.771 490.771;" xml:space="preserve">
<g>
	<g>
		<path d="M483.371,183.973c-0.2-0.2-0.4-0.4-0.6-0.6c-0.2-0.2-0.4-0.4-0.7-0.6c-0.2-0.1-0.3-0.3-0.5-0.4l-227.4-177.4
			c-7.1-6.1-18.4-6.1-25.5,0l-216,175c-15.6,8.4-12.4,33-12.4,33v257c0,11.2,9.2,20.4,20.4,20.4h448.7c11.2,0,20.4-9.2,21.4-19.4
			v-257C490.771,211.673,490.771,189.373,483.371,183.973z M40.971,252.773l100,71.9l-100,97.3
			C40.971,421.973,40.971,252.773,40.971,252.773z M338.771,279.373l-96.9,67.2l-90.8-65.1v-78.7h187.6v76.6H338.771z
			 M174.271,348.573l55.4,39.8c7.1,5.1,16.3,5.1,23.5,0l58.1-40.2l104.9,101.4h-345.7L174.271,348.573z M344.971,324.773l103.9-72
			v172.4L344.971,324.773z M241.871,47.773l203.2,157.9l-65.5,45.4v-68.7c0-11.2-9.2-20.4-20.4-20.4h-228.4
			c-11.2,0-20.4,9.2-20.4,20.4v69.9l-64.9-46.6L241.871,47.773z"/>
	</g>
</g>
<g>
</g>
<g>
</g>
<g>
</g>
<g>
</g>
<g>
</g>
<g>
</g>
<g>
</g>
<g>
</g>
<g>
</g>
<g>
</g>
<g>
</g>
<g>
</g>
<g>
</g>
<g>
</g>
<g>
</g>
</svg>
