<?xml version="1.0" encoding="iso-8859-1"?>
<!-- Generator: Adobe Illustrator 19.0.0, SVG Export Plug-In . SVG Version: 6.00 Build 0)  -->
<svg version="1.1" id="Capa_1" xmlns="http://www.w3.org/2000/svg" xmlns:xlink="http://www.w3.org/1999/xlink" x="0px" y="0px"
	 viewBox="0 0 490.794 490.794" style="enable-background:new 0 0 490.794 490.794;" xml:space="preserve">
<g>
	<g>
		<g>
			<path d="M252.1,140.243H20.4c-11.2,0-20.4,9.2-20.4,20.4s9.2,20.4,20.4,20.4h20.4v211.3c0,11.2,9.2,20.4,20.4,20.4
				s20.4-9.2,20.4-20.4v-211.3h111.3v211.3c0,11.2,9.2,20.4,20.4,20.4s20.4-9.2,20.4-20.4v-211.3h19.4c11.2,0,19.4-9.2,19.4-20.4
				C272.5,149.443,263.3,140.243,252.1,140.243z"/>
			<path d="M476.7,78.943c-11.2-3.1-22.5,2-26.5,13.3l-39.8,115.4H302.1c-11.2,0-20.4,9.2-20.4,20.4v163.3
				c0,11.2,9.2,20.4,20.4,20.4c11.2,0,20.4-9.2,22.5-20.4v-141.9h79.6v141.9c0,11.2,9.2,20.4,20.4,20.4c12.3,0,21.4-9.2,20.4-21.4
				v-152.9c0.4-0.7,0.7-1.5,1-2.3l43.9-129.6C493,94.243,487.9,83.043,476.7,78.943z"/>
		</g>
	</g>
</g>
<g>
</g>
<g>
</g>
<g>
</g>
<g>
</g>
<g>
</g>
<g>
</g>
<g>
</g>
<g>
</g>
<g>
</g>
<g>
</g>
<g>
</g>
<g>
</g>
<g>
</g>
<g>
</g>
<g>
</g>
</svg>
