<?xml version="1.0" encoding="iso-8859-1"?>
<!-- Generator: Adobe Illustrator 19.0.0, SVG Export Plug-In . SVG Version: 6.00 Build 0)  -->
<svg version="1.1" id="Layer_1" xmlns="http://www.w3.org/2000/svg" xmlns:xlink="http://www.w3.org/1999/xlink" x="0px" y="0px"
	 viewBox="0 0 512 512" style="enable-background:new 0 0 512 512;" xml:space="preserve">
<g>
	<path style="fill:#87DFD6;" d="M55.652,500.87H11.13V300.522C11.13,275.933,31.064,256,55.652,256l0,0V500.87z"/>
	<path style="fill:#87DFD6;" d="M367.304,256L367.304,256v244.87h44.522V389.565v-66.783v-22.261
		C411.826,275.933,391.893,256,367.304,256z"/>
	<path style="fill:#87DFD6;" d="M337.429,100.174c4.925,13.926,7.614,28.907,7.614,44.522v44.522h7.791
		c14.446,0,26.156-11.71,26.156-26.157v-36.73c0-14.446-11.71-26.157-26.156-26.157H337.429z"/>
	<path style="fill:#87DFD6;" d="M85.527,100.174c-4.924,13.926-7.614,28.907-7.614,44.522v44.522h-7.791
		c-14.446,0-26.157-11.71-26.157-26.157v-36.73c0-14.446,11.71-26.157,26.157-26.157H85.527z"/>
</g>
<path style="fill:#DFF5F2;" d="M345.043,256V144.696c0-24.331-6.5-47.137-17.875-66.783c-5.855-10.14-13.023-19.434-21.248-27.659
	c-24.164-24.175-57.555-39.123-94.442-39.123c-49.43,0-92.594,26.858-115.69,66.783c-11.375,19.645-17.875,42.451-17.875,66.783V256
	H55.652v244.87h311.652V256H345.043z"/>
<g>
	<polygon style="fill:#4A7DBA;" points="166.957,456.348 100.174,456.348 55.652,456.348 55.652,500.87 367.304,500.87 
		367.304,456.348 	"/>
	<rect x="256" y="300.522" style="fill:#4A7DBA;" width="66.783" height="44.522"/>
	<path style="fill:#4A7DBA;" d="M266.38,211.478H156.575c-18.855,0-34.14-15.285-34.14-34.141v-54.358
		c0-14.445,9.085-27.32,22.693-32.166c17.092-6.087,41.721-12.9,66.351-12.9s49.259,6.813,66.351,12.9
		c13.608,4.846,22.693,17.722,22.693,32.166v54.358C300.522,196.193,285.236,211.478,266.38,211.478z"/>
</g>
<path d="M256,356.174h66.783c6.146,0,11.13-4.983,11.13-11.13v-44.522c0-6.147-4.984-11.13-11.13-11.13H256
	c-6.146,0-11.13,4.983-11.13,11.13v44.522C244.87,351.191,249.854,356.174,256,356.174z M267.13,311.652h44.522v22.261H267.13
	V311.652z"/>
<path d="M421.075,349.997c-0.4-0.612-0.867-1.18-1.38-1.692c-0.512-0.512-1.08-0.979-1.692-1.391
	c-0.601-0.401-1.247-0.735-1.926-1.013c-0.668-0.278-1.368-0.501-2.08-0.646c-1.436-0.289-2.905-0.289-4.352,0
	c-0.701,0.145-1.402,0.367-2.081,0.646c-0.669,0.278-1.313,0.612-1.914,1.013c-0.613,0.412-1.181,0.879-1.693,1.391
	c-0.512,0.512-0.979,1.08-1.391,1.692c-0.401,0.601-0.746,1.247-1.024,1.914c-0.278,0.679-0.49,1.38-0.634,2.081
	c-0.145,0.723-0.21,1.458-0.21,2.182c0,0.723,0.067,1.458,0.21,2.17c0.145,0.712,0.356,1.414,0.634,2.081
	c0.278,0.679,0.623,1.325,1.024,1.926c0.412,0.612,0.879,1.18,1.391,1.692s1.08,0.979,1.693,1.38
	c0.601,0.401,1.245,0.746,1.914,1.024c0.679,0.278,1.38,0.501,2.081,0.634c0.722,0.145,1.458,0.223,2.182,0.223
	c0.722,0,1.458-0.078,2.17-0.223c0.712-0.134,1.414-0.356,2.08-0.634c0.679-0.278,1.325-0.623,1.926-1.024
	c0.612-0.401,1.18-0.868,1.692-1.38c0.513-0.512,0.981-1.08,1.38-1.692c0.401-0.601,0.746-1.247,1.024-1.926
	c0.278-0.668,0.501-1.369,0.634-2.081c0.145-0.712,0.223-1.447,0.223-2.17c0-0.723-0.078-1.458-0.223-2.182
	c-0.134-0.701-0.356-1.402-0.634-2.081C421.82,351.243,421.476,350.598,421.075,349.997z"/>
<path d="M456.348,200.348c-18.412,0-33.391-14.979-33.391-33.391s14.979-33.391,33.391-33.391h44.522
	c6.146,0,11.13-4.983,11.13-11.13c0-6.147-4.984-11.13-11.13-11.13h-44.522c-30.687,0-55.652,24.966-55.652,55.652
	s24.966,55.652,55.652,55.652c18.412,0,33.391,14.979,33.391,33.391v133.565c0,18.412-14.979,33.391-33.391,33.391h-33.391v-33.391
	c0-6.147-4.984-11.13-11.13-11.13c-6.146,0-11.13,4.983-11.13,11.13v100.174h-22.261v-33.391v-187.31
	c12.957,4.594,22.261,16.973,22.261,31.484v22.261c0,6.147,4.984,11.13,11.13,11.13c6.146,0,11.13-4.983,11.13-11.13v-22.261
	c0-30.687-24.966-55.652-55.652-55.652h-11.13v-44.679c19.001-1.695,33.948-17.696,33.948-37.13v-36.73
	c0-20.56-16.727-37.287-37.287-37.287h-7.77c-2.385-5.729-5.139-11.309-8.258-16.696c-6.299-10.91-14.042-20.991-23.014-29.962
	C286.473,15.053,250.136,0,211.478,0c-51.491,0-99.512,27.719-125.321,72.336c-3.122,5.392-5.878,10.976-8.264,16.708h-7.771
	c-20.56,0-37.287,16.727-37.287,37.287v36.73c0,19.434,14.947,35.435,33.948,37.13v44.679h-11.13C24.966,244.87,0,269.835,0,300.522
	V500.87C0,507.017,4.984,512,11.13,512h44.522h311.652h44.522c6.146,0,11.13-4.983,11.13-11.13v-55.652h33.391
	c30.687,0,55.652-24.966,55.652-55.652V256C512,225.313,487.034,200.348,456.348,200.348z M352.292,111.304h0.543
	c8.285,0,15.026,6.741,15.026,15.026v36.73c0,7.138-5.003,13.129-11.687,14.652v-33.017c0-1.523-0.028-3.042-0.075-4.559
	c-0.012-0.377-0.035-0.755-0.049-1.132c-0.046-1.165-0.099-2.331-0.173-3.493c-0.023-0.373-0.055-0.746-0.081-1.119
	c-0.083-1.19-0.18-2.379-0.293-3.564c-0.03-0.313-0.063-0.626-0.095-0.937c-0.129-1.271-0.276-2.539-0.439-3.804
	c-0.029-0.228-0.059-0.456-0.09-0.685c-0.186-1.387-0.391-2.77-0.616-4.151c-0.018-0.11-0.035-0.221-0.053-0.332
	C353.676,117.694,353.045,114.487,352.292,111.304z M55.096,163.061v-36.73c0-8.285,6.741-15.026,15.026-15.026h0.543
	c-0.754,3.183-1.386,6.393-1.92,9.622c-0.018,0.106-0.035,0.211-0.051,0.318c-0.226,1.386-0.432,2.774-0.619,4.166
	c-0.03,0.224-0.059,0.446-0.088,0.67c-0.164,1.268-0.309,2.539-0.44,3.812c-0.032,0.313-0.066,0.624-0.095,0.937
	c-0.114,1.184-0.209,2.371-0.293,3.56c-0.027,0.375-0.058,0.749-0.081,1.125c-0.072,1.16-0.127,2.323-0.171,3.487
	c-0.014,0.378-0.037,0.757-0.049,1.136c-0.048,1.515-0.076,3.034-0.076,4.557v33.017C60.099,176.19,55.096,170.199,55.096,163.061z
	 M89.043,189.217v-44.522c0-1.566,0.04-3.129,0.098-4.688c0.021-0.548,0.052-1.094,0.081-1.642c0.051-1.005,0.115-2.007,0.19-3.009
	c0.05-0.657,0.101-1.314,0.163-1.97c0.082-0.903,0.184-1.803,0.286-2.704c0.078-0.677,0.145-1.355,0.234-2.029
	c0.179-1.362,0.383-2.721,0.608-4.075c0.137-0.827,0.296-1.648,0.45-2.471c0.127-0.678,0.254-1.356,0.392-2.031
	c0.17-0.83,0.349-1.658,0.536-2.485c0.157-0.696,0.325-1.388,0.494-2.081c0.191-0.78,0.38-1.563,0.585-2.339
	c0.345-1.294,0.708-2.584,1.095-3.868c0.175-0.58,0.366-1.155,0.549-1.733c0.319-1.004,0.644-2.006,0.991-3.002
	c2.529-7.304,5.741-14.371,9.629-21.083c21.846-37.764,62.483-61.225,106.054-61.225c32.711,0,63.456,12.735,86.57,35.863
	c7.599,7.598,14.153,16.128,19.487,25.366c3.883,6.706,7.093,13.766,9.621,21.063c0.352,1.015,0.683,2.036,1.008,3.059
	c0.161,0.509,0.334,1.014,0.489,1.525c0.407,1.341,0.785,2.69,1.145,4.043c0.204,0.768,0.39,1.542,0.579,2.314
	c0.171,0.701,0.341,1.402,0.501,2.107c0.186,0.821,0.364,1.644,0.533,2.47c0.139,0.681,0.267,1.365,0.395,2.048
	c0.152,0.819,0.311,1.637,0.447,2.46c0.225,1.356,0.43,2.715,0.608,4.078c0.088,0.672,0.155,1.347,0.233,2.021
	c0.103,0.903,0.204,1.805,0.287,2.711c0.06,0.654,0.111,1.311,0.161,1.967c0.076,1.002,0.139,2.005,0.19,3.01
	c0.028,0.546,0.06,1.094,0.081,1.642c0.059,1.559,0.098,3.122,0.098,4.688v44.522v55.652H89.043V189.217z M22.261,300.522
	c0-14.512,9.304-26.89,22.261-31.484v187.31v33.391H22.261V300.522z M66.783,467.478h33.391c6.146,0,11.13-4.983,11.13-11.13
	s-4.984-11.13-11.13-11.13H66.783V267.13h11.13h267.13h11.13v178.087H166.957c-6.146,0-11.13,4.983-11.13,11.13
	s4.984,11.13,11.13,11.13h189.217v22.261H66.783V467.478z"/>
<path d="M281.564,80.328c-17.35-6.18-43.592-13.546-70.086-13.546s-52.736,7.366-70.086,13.546
	c-17.997,6.409-30.088,23.55-30.088,42.652v54.358c0,24.962,20.309,45.271,45.272,45.271H266.38
	c24.963,0,45.272-20.309,45.272-45.272V122.98C311.652,103.878,299.561,86.737,281.564,80.328z M289.391,177.337
	c0,12.688-10.322,23.011-23.011,23.011H156.576c-12.689,0-23.011-10.322-23.011-23.011V122.98c0-9.709,6.146-18.423,15.297-21.681
	c15.697-5.591,39.303-12.256,62.617-12.256s46.919,6.665,62.616,12.255c9.15,3.259,15.297,11.972,15.297,21.682V177.337z"/>
<path d="M139.743,447.087c-0.601-0.401-1.247-0.735-1.926-1.013c-0.668-0.278-1.368-0.501-2.08-0.634
	c-1.436-0.289-2.905-0.289-4.341,0c-0.712,0.134-1.414,0.356-2.081,0.634c-0.679,0.278-1.323,0.612-1.924,1.013
	c-0.613,0.412-1.181,0.879-1.693,1.391s-0.979,1.08-1.38,1.692c-0.412,0.601-0.746,1.247-1.024,1.914
	c-0.278,0.679-0.501,1.38-0.633,2.093c-0.146,0.712-0.223,1.447-0.223,2.17c0,2.938,1.19,5.799,3.261,7.869
	c2.07,2.07,4.942,3.261,7.869,3.261c0.722,0,1.458-0.078,2.17-0.223c0.712-0.134,1.414-0.356,2.08-0.634
	c0.679-0.278,1.325-0.623,1.926-1.024c0.612-0.401,1.18-0.868,1.692-1.38c2.07-2.07,3.262-4.942,3.262-7.869
	s-1.191-5.799-3.262-7.869C140.921,447.967,140.355,447.499,139.743,447.087z"/>
<g>
</g>
<g>
</g>
<g>
</g>
<g>
</g>
<g>
</g>
<g>
</g>
<g>
</g>
<g>
</g>
<g>
</g>
<g>
</g>
<g>
</g>
<g>
</g>
<g>
</g>
<g>
</g>
<g>
</g>
</svg>
