<?xml version="1.0" encoding="iso-8859-1"?>
<!-- Generator: Adobe Illustrator 19.0.0, SVG Export Plug-In . SVG Version: 6.00 Build 0)  -->
<svg version="1.1" id="Layer_1" xmlns="http://www.w3.org/2000/svg" xmlns:xlink="http://www.w3.org/1999/xlink" x="0px" y="0px"
	 viewBox="0 0 512 512" style="enable-background:new 0 0 512 512;" xml:space="preserve">
<g>
	<g>
		<path d="M486.785,500.512l-20.312-45.703l20.312-45.703c1.123-2.527,0.891-5.451-0.614-7.77c-1.508-2.319-4.085-3.718-6.851-3.718
			c-53.738,0-104.246-14.095-148.022-38.781C376.5,296.084,400.34,222.127,400.34,144.34C400.34,64.751,335.59,0,256,0
			S111.66,64.751,111.66,144.34c0,78.106,24.214,152.479,69.052,214.592c-45.035,25.33-96.014,38.684-148.031,38.684
			c-2.766,0-5.343,1.399-6.851,3.718c-1.507,2.319-1.739,5.243-0.614,7.77l20.312,45.703l-20.312,45.703
			c-1.123,2.527-0.891,5.451,0.614,7.77c1.508,2.319,4.085,3.718,6.851,3.718c71.415,0,140.669-20.508,200.278-59.306
			c3.781-2.461,4.851-7.522,2.39-11.304c-2.462-3.781-7.522-4.854-11.305-2.39c-53.417,34.769-114.947,54.163-178.69,56.435
			l16.581-37.307c0.939-2.112,0.939-4.524,0-6.636l-16.789-37.776c51.226-1.996,101.147-16.274,145.505-41.635
			c8.875,11.204,18.435,21.976,28.695,32.235C288.786,473.757,381.114,512,479.319,512c2.766,0,5.343-1.399,6.851-3.718
			C487.677,505.963,487.909,503.039,486.785,500.512z M384,144.34c0,74.788-23.056,145.861-66.765,206.055
			c-17.973-11.46-34.659-24.769-49.791-39.652c46.636-50.761,75.132-114.308,82.151-182.261c0.015-0.119,0.027-0.239,0.037-0.359
			c1.107-10.835,1.687-21.779,1.687-32.803c0-18.253-5.156-35.324-14.091-49.832C365.773,68.982,384,104.571,384,144.34z
			 M256.084,298.952c-42.207-46.229-70.263-105.573-77.304-171.116c7.707-36.27,39.981-62.475,77.22-62.475
			c37.252,0,69.535,26.222,77.229,62.511C326.414,191.599,299.676,251.19,256.084,298.952z M256,16.34
			c42.036,0,76.497,33.013,78.841,74.473C317.506,65.367,288.302,49.021,256,49.021s-61.506,16.346-78.841,41.792
			C179.503,49.354,213.964,16.34,256,16.34z M128,144.34c0-39.769,18.227-75.359,46.772-98.853
			c-8.935,14.508-14.091,31.578-14.091,49.832c0,85.112,33.145,165.129,93.327,225.312c57.237,57.237,132.408,90.017,212.846,93.089
			l-16.787,37.77c-0.939,2.112-0.939,4.524,0,6.636l16.581,37.307C278.779,488.737,128,333.814,128,144.34z"/>
	</g>
</g>
<g>
</g>
<g>
</g>
<g>
</g>
<g>
</g>
<g>
</g>
<g>
</g>
<g>
</g>
<g>
</g>
<g>
</g>
<g>
</g>
<g>
</g>
<g>
</g>
<g>
</g>
<g>
</g>
<g>
</g>
</svg>
