<?xml version="1.0" encoding="iso-8859-1"?>
<!-- Generator: Adobe Illustrator 19.0.0, SVG Export Plug-In . SVG Version: 6.00 Build 0)  -->
<svg version="1.1" id="Layer_1" xmlns="http://www.w3.org/2000/svg" xmlns:xlink="http://www.w3.org/1999/xlink" x="0px" y="0px"
	 viewBox="0 0 469.333 469.333" style="enable-background:new 0 0 469.333 469.333;" xml:space="preserve">
<g>
	<g>
		<path d="M298.667,181.333H256c-5.877,0-10.667-4.789-10.667-10.667V160c0-5.877,4.789-10.667,10.667-10.667h64
			c5.888,0,10.667-4.779,10.667-10.667S325.888,128,320,128h-32v-10.667c0-5.888-4.779-10.667-10.667-10.667
			s-10.667,4.779-10.667,10.667V128H256c-17.643,0-32,14.357-32,32v10.667c0,17.643,14.357,32,32,32h42.667
			c5.877,0,10.667,4.789,10.667,10.667V224c0,5.877-4.789,10.667-10.667,10.667h-64c-5.888,0-10.667,4.779-10.667,10.667
			S228.779,256,234.667,256h32v10.667c0,5.888,4.779,10.667,10.667,10.667S288,272.555,288,266.667V256h10.667
			c17.643,0,32-14.357,32-32v-10.667C330.667,195.691,316.309,181.333,298.667,181.333z"/>
	</g>
</g>
<g>
	<g>
		<path d="M458.667,426.667H448V416c0-5.888-4.779-10.667-10.667-10.667s-10.667,4.779-10.667,10.667v10.667H416
			c-5.888,0-10.667,4.779-10.667,10.667S410.112,448,416,448h10.667v10.667c0,5.888,4.779,10.667,10.667,10.667
			S448,464.555,448,458.667V448h10.667c5.888,0,10.667-4.779,10.667-10.667S464.555,426.667,458.667,426.667z"/>
	</g>
</g>
<g>
	<g>
		<path d="M53.333,21.333H42.667V10.667C42.667,4.779,37.888,0,32,0S21.333,4.779,21.333,10.667v10.667H10.667
			C4.779,21.333,0,26.112,0,32s4.779,10.667,10.667,10.667h10.667v10.667C21.333,59.221,26.112,64,32,64s10.667-4.779,10.667-10.667
			V42.667h10.667C59.221,42.667,64,37.888,64,32S59.221,21.333,53.333,21.333z"/>
	</g>
</g>
<g>
	<g>
		<path d="M277.333,0c-105.867,0-192,86.133-192,192c0,83.957,54.24,155.307,129.461,181.333H32c-17.643,0-32,14.357-32,32v32
			c0,17.643,14.357,32,32,32h213.333c17.643,0,32-14.357,32-32v-32c0-8.427-3.339-16.053-8.683-21.771
			c2.901,0.128,5.749,0.437,8.683,0.437c105.867,0,192-86.133,192-192S383.2,0,277.333,0z M256,437.333
			c0,5.877-4.789,10.667-10.667,10.667H32c-5.877,0-10.667-4.789-10.667-10.667v-32c0-5.877,4.789-10.667,10.667-10.667h10.667V416
			c0,5.888,4.779,10.667,10.667,10.667S64,421.888,64,416v-21.333h21.333v10.667C85.333,411.221,90.112,416,96,416
			s10.667-4.779,10.667-10.667v-10.667H128V416c0,5.888,4.779,10.667,10.667,10.667s10.667-4.779,10.667-10.667v-21.333h21.333
			v10.667c0,5.888,4.779,10.667,10.667,10.667S192,411.221,192,405.333v-10.667h21.333V416c0,5.888,4.779,10.667,10.667,10.667
			s10.667-4.779,10.667-10.667v-21.333h10.667c5.877,0,10.667,4.789,10.667,10.667V437.333z M277.333,362.667
			c-94.101,0-170.667-76.565-170.667-170.667S183.232,21.333,277.333,21.333S448,97.899,448,192S371.435,362.667,277.333,362.667z"
			/>
	</g>
</g>
<g>
	<g>
		<path d="M277.333,64c-70.581,0-128,57.419-128,128s57.419,128,128,128s128-57.419,128-128S347.915,64,277.333,64z
			 M277.333,298.667c-58.816,0-106.667-47.851-106.667-106.667c0-58.816,47.851-106.667,106.667-106.667
			C336.149,85.333,384,133.184,384,192C384,250.816,336.149,298.667,277.333,298.667z"/>
	</g>
</g>
<g>
	<g>
		<circle cx="202.667" cy="192" r="10.667"/>
	</g>
</g>
<g>
	<g>
		<circle cx="352" cy="192" r="10.667"/>
	</g>
</g>
<g>
</g>
<g>
</g>
<g>
</g>
<g>
</g>
<g>
</g>
<g>
</g>
<g>
</g>
<g>
</g>
<g>
</g>
<g>
</g>
<g>
</g>
<g>
</g>
<g>
</g>
<g>
</g>
<g>
</g>
</svg>
