<?xml version="1.0" encoding="iso-8859-1"?>
<!-- Generator: Adobe Illustrator 19.0.0, SVG Export Plug-In . SVG Version: 6.00 Build 0)  -->
<svg version="1.1" id="Layer_1" xmlns="http://www.w3.org/2000/svg" xmlns:xlink="http://www.w3.org/1999/xlink" x="0px" y="0px"
	 viewBox="0 0 482.28 482.28" style="enable-background:new 0 0 482.28 482.28;" xml:space="preserve">
<g>
	<g>
		<g>
			<path d="M403.198,146.566c-10.949-26.25-31.153-54.902-56.93-80.66c-25.738-25.758-54.39-45.982-80.64-56.911
				c-42.909-17.881-64.748-5.12-73.945,4.096c-9.216,9.196-21.977,31.035-4.096,73.925c10.929,26.27,31.153,54.922,56.891,80.679
				c14.809,14.789,31.094,28.081,47.596,38.892H207.28c-1.615-16.699-6.538-36.569-19.751-51.594
				c-12.603-14.316-26.565-27.156-57.442-27.156h-0.059c-13.095-0.847-43.303,14.651-54.115,25.403
				c-7.719,7.66-7.759,20.125-0.079,27.845c7.66,7.7,20.106,7.739,27.845,0.079c4.372-4.332,20.697-12.308,26.722-13.962
				c14.946,0.217,19.358,4.49,27.569,13.804c4.805,5.474,7.975,14.651,9.531,25.58h-25.186c-28.967,0-52.519,23.552-52.519,52.519
				v170.654c0,28.967,23.552,52.519,52.519,52.519h210.038c28.967,0,52.519-23.552,52.519-52.519V213.047
				C412.217,201.35,417.436,180.693,403.198,146.566z M247.334,403.511c-44.17,0-78.769-25.954-78.769-59.077
				c0-33.122,34.599-59.077,78.769-59.077s78.769,25.954,78.769,59.077C326.103,377.557,291.504,403.511,247.334,403.511z
				 M371.257,192.665c-6.735,6.656-49.605-3.505-98.914-52.815c-21.898-21.878-39.522-46.671-48.404-67.978
				c-7.857-18.846-6.38-28.967-4.411-30.937c0.827-0.827,3.072-1.556,6.833-1.556c5.159,0,13.174,1.418,24.103,5.967
				c21.307,8.881,46.08,26.526,67.958,48.404c21.898,21.878,39.542,46.671,48.423,67.978
				C374.704,180.574,373.227,190.716,371.257,192.665z"/>
			<path d="M247.334,324.742c-24.044,0-39.385,11.658-39.385,19.692c0,8.034,15.34,19.692,39.385,19.692
				s39.385-11.658,39.385-19.692C286.718,336.4,271.378,324.742,247.334,324.742z"/>
		</g>
	</g>
</g>
<g>
</g>
<g>
</g>
<g>
</g>
<g>
</g>
<g>
</g>
<g>
</g>
<g>
</g>
<g>
</g>
<g>
</g>
<g>
</g>
<g>
</g>
<g>
</g>
<g>
</g>
<g>
</g>
<g>
</g>
</svg>
