<?xml version="1.0" encoding="iso-8859-1"?>
<!-- Generator: Adobe Illustrator 18.0.0, SVG Export Plug-In . SVG Version: 6.00 Build 0)  -->
<!DOCTYPE svg PUBLIC "-//W3C//DTD SVG 1.1//EN" "http://www.w3.org/Graphics/SVG/1.1/DTD/svg11.dtd">
<svg version="1.1" id="Capa_1" xmlns="http://www.w3.org/2000/svg" xmlns:xlink="http://www.w3.org/1999/xlink" x="0px" y="0px"
	 viewBox="0 0 297.5 297.5" style="enable-background:new 0 0 297.5 297.5;" xml:space="preserve">
<g>
	<g id="XMLID_25_">
		<g>
			<rect x="20.02" y="232.02" style="fill:#D5C295;" width="257.47" height="29.16"/>
			<path style="fill:#D5C295;" d="M230.29,36.32c3.54,0,6.43,2.89,6.43,6.43s-2.89,6.42-6.43,6.42h-32.61
				c-3.55,0-6.43-2.88-6.43-6.42s2.88-6.43,6.43-6.43H230.29z"/>
			<path style="fill:#FFA800;" d="M238.88,101.39l27.68,110.86H30.95l27.68-110.86H238.88z M223.87,124.29
				c0-5.46-4.43-9.89-9.89-9.89h-32.61c-5.46,0-9.88,4.43-9.88,9.89s4.42,9.88,9.88,9.88h32.61
				C219.44,134.17,223.87,129.75,223.87,124.29z M223.87,156.9c0-5.45-4.43-9.88-9.89-9.88h-32.61c-5.46,0-9.88,4.43-9.88,9.88
				c0,5.46,4.42,9.89,9.88,9.89h32.61C219.44,166.79,223.87,162.36,223.87,156.9z M142.33,124.29c0-5.46-4.43-9.89-9.88-9.89H83.52
				c-5.46,0-9.88,4.43-9.88,9.89s4.42,9.88,9.88,9.88h48.93C137.9,134.17,142.33,129.75,142.33,124.29z M142.33,156.9
				c0-5.45-4.43-9.88-9.88-9.88H83.52c-5.46,0-9.88,4.43-9.88,9.88c0,5.46,4.42,9.89,9.88,9.89h48.93
				C137.9,166.79,142.33,162.36,142.33,156.9z M142.33,189.52c0-5.46-4.43-9.88-9.88-9.88H83.52c-5.46,0-9.88,4.42-9.88,9.88
				c0,5.46,4.42,9.88,9.88,9.88h48.93C137.9,199.4,142.33,194.98,142.33,189.52z"/>
			<path d="M297.25,222.14v48.92c0,5.46-4.42,9.88-9.88,9.88H10.14c-5.46,0-9.89-4.42-9.89-9.88v-48.92c0-5.46,4.43-9.89,9.89-9.89
				h0.43L41.32,89.11c1.1-4.4,5.05-7.49,9.59-7.49H204.1V68.94h-6.42c-14.45,0-26.19-11.75-26.19-26.19s11.74-26.19,26.19-26.19
				h32.61c14.44,0,26.19,11.75,26.19,26.19s-11.75,26.19-26.19,26.19h-6.42v12.68h22.73c4.54,0,8.49,3.09,9.59,7.49l30.74,123.14
				h0.44C292.83,212.25,297.25,216.68,297.25,222.14z M277.49,261.18v-29.16H20.02v29.16H277.49z M266.56,212.25l-27.68-110.86
				H58.63L30.95,212.25H266.56z M236.72,42.75c0-3.54-2.89-6.43-6.43-6.43h-32.61c-3.55,0-6.43,2.89-6.43,6.43s2.88,6.42,6.43,6.42
				h32.61C233.83,49.17,236.72,46.29,236.72,42.75z"/>
			<path d="M213.98,114.4c5.46,0,9.89,4.43,9.89,9.89s-4.43,9.88-9.89,9.88h-32.61c-5.46,0-9.88-4.42-9.88-9.88s4.42-9.89,9.88-9.89
				H213.98z"/>
			<path d="M213.98,147.02c5.46,0,9.89,4.43,9.89,9.88c0,5.46-4.43,9.89-9.89,9.89h-32.61c-5.46,0-9.88-4.43-9.88-9.89
				c0-5.45,4.42-9.88,9.88-9.88H213.98z"/>
			<path d="M132.45,114.4c5.45,0,9.88,4.43,9.88,9.89s-4.43,9.88-9.88,9.88H83.52c-5.46,0-9.88-4.42-9.88-9.88s4.42-9.89,9.88-9.89
				H132.45z"/>
			<path d="M132.45,147.02c5.45,0,9.88,4.43,9.88,9.88c0,5.46-4.43,9.89-9.88,9.89H83.52c-5.46,0-9.88-4.43-9.88-9.89
				c0-5.45,4.42-9.88,9.88-9.88H132.45z"/>
			<path d="M132.45,179.64c5.45,0,9.88,4.42,9.88,9.88c0,5.46-4.43,9.88-9.88,9.88H83.52c-5.46,0-9.88-4.42-9.88-9.88
				c0-5.46,4.42-9.88,9.88-9.88H132.45z"/>
		</g>
		<g>
		</g>
	</g>
</g>
<g>
</g>
<g>
</g>
<g>
</g>
<g>
</g>
<g>
</g>
<g>
</g>
<g>
</g>
<g>
</g>
<g>
</g>
<g>
</g>
<g>
</g>
<g>
</g>
<g>
</g>
<g>
</g>
<g>
</g>
</svg>
