<?xml version="1.0" encoding="iso-8859-1"?>
<!-- Generator: Adobe Illustrator 19.0.0, SVG Export Plug-In . SVG Version: 6.00 Build 0)  -->
<svg version="1.1" id="Layer_1" xmlns="http://www.w3.org/2000/svg" xmlns:xlink="http://www.w3.org/1999/xlink" x="0px" y="0px"
	 viewBox="0 0 512.001 512.001" style="enable-background:new 0 0 512.001 512.001;" xml:space="preserve">
<g>
	<g>
		<path d="M511.897,130.152c1.116-23.147-6.729-45.345-22.093-62.507c-15.423-17.229-36.567-27.323-59.535-28.419
			c-28.592-1.347-55.792,12.04-72.687,34.551c-5.001-2.991-10.1-5.782-15.304-8.35c-27.589-13.614-56.616-20.517-86.277-20.517
			s-58.69,6.902-86.277,20.517c-5.203,2.568-10.303,5.359-15.303,8.35c-16.896-22.515-44.1-35.907-72.687-34.551
			c-22.968,1.096-44.111,11.19-59.534,28.419C6.834,84.806-1.012,107.005,0.105,130.152c1.585,32.868,20.967,61.285,49.668,74.707
			c-4.973,14.38-8.598,29.115-10.762,43.951l-18.453-4.262l-7.514,32.534l23.605,5.452c0.186,29.924,6.461,57.501,18.495,81.986
			l-42.101,9.724l7.514,32.534l53.363-12.325c8.12,10.39,17.525,19.997,28.182,28.737c35.734,29.305,83.967,46.679,137.205,49.682
			V368.134c-20.215-9.533-39.903-33.393-39.903-52.41c0-32.032,35.429-32.032,56.598-32.032s56.598,0,56.598,32.032
			c0,19.016-19.687,42.875-39.903,52.41V472.87c53.237-3.003,101.467-20.378,137.2-49.682c10.657-8.74,20.064-18.347,28.182-28.738
			l53.367,12.326l7.514-32.534l-42.104-9.725c12.033-24.484,18.308-52.059,18.494-81.983l23.61-5.453l-7.514-32.534l-18.458,4.263
			c-2.165-14.837-5.79-29.571-10.763-43.952C490.929,191.437,510.31,163.02,511.897,130.152z M204.084,235.212
			c-11.287,0-20.473-9.238-20.473-20.632c0-11.396,9.186-20.626,20.473-20.626c11.302,0,20.486,9.229,20.486,20.626
			C224.569,225.973,215.386,235.212,204.084,235.212z M307.767,235.365c-11.396,0-20.641-9.306-20.641-20.787
			c0-11.481,9.245-20.787,20.641-20.787c11.383,0,20.627,9.306,20.627,20.787C328.395,226.059,319.15,235.365,307.767,235.365z"/>
	</g>
</g>
<g>
</g>
<g>
</g>
<g>
</g>
<g>
</g>
<g>
</g>
<g>
</g>
<g>
</g>
<g>
</g>
<g>
</g>
<g>
</g>
<g>
</g>
<g>
</g>
<g>
</g>
<g>
</g>
<g>
</g>
</svg>
