<?xml version="1.0" encoding="iso-8859-1"?>
<!-- Generator: Adobe Illustrator 17.1.0, SVG Export Plug-In . SVG Version: 6.00 Build 0)  -->
<!DOCTYPE svg PUBLIC "-//W3C//DTD SVG 1.1//EN" "http://www.w3.org/Graphics/SVG/1.1/DTD/svg11.dtd">
<svg version="1.1" id="Capa_1" xmlns="http://www.w3.org/2000/svg" xmlns:xlink="http://www.w3.org/1999/xlink" x="0px" y="0px"
	 viewBox="0 0 465 465" style="enable-background:new 0 0 465 465;" xml:space="preserve">
<g>
	<path d="M316.015,0c-18.965,0-21.013,8.244-21.013,11.789v19.764c0,4.143,3.357,7.5,7.5,7.5s7.5-3.357,7.5-7.5v-16.09
		c3.281-0.609,8.744-0.609,12.025,0v57.261c-4.43-6.663-9.796-12.739-16.036-18.091c-18.968-16.267-45.067-25.226-73.491-25.226
		s-54.524,8.959-73.491,25.226c-20.014,17.165-31.036,41.777-31.036,69.303v290.472c0,18.926,14.278,37.743,32.506,42.838
		c1.133,0.317,28.244,7.755,72.021,7.755c43.777,0,70.889-7.438,72.021-7.755c18.228-5.095,32.506-23.912,32.506-42.838V123.936
		V11.789C337.027,8.244,334.979,0,316.015,0z M193.405,447.809c5.408-11.462,20.981-19.682,39.095-19.682
		c18.114,0,33.687,8.22,39.094,19.681C260.991,449.033,247.791,450,232.5,450C217.209,450,204.008,449.033,193.405,447.809z
		 M322.027,414.407c0,12.125-9.866,25.128-21.537,28.39c-0.111,0.031-4.945,1.344-13.656,2.841
		c-2.729-8.238-8.497-15.667-16.789-21.427c-10.288-7.147-23.622-11.084-37.546-11.084c-13.923,0-27.258,3.937-37.546,11.084
		c-8.292,5.76-14.06,13.189-16.789,21.427c-8.708-1.496-13.54-2.809-13.648-2.838c-11.678-3.265-21.544-16.268-21.544-28.393
		V123.936c0-46.825,36.815-79.528,89.527-79.528c52.712,0,89.527,32.703,89.527,79.528V414.407z"/>
	<path d="M175.682,253.767h16.375c4.142,0,7.5-3.357,7.5-7.5s-3.358-7.5-7.5-7.5h-16.375c-4.142,0-7.5,3.357-7.5,7.5
		S171.54,253.767,175.682,253.767z"/>
	<path d="M289.317,238.767h-16.376c-4.143,0-7.5,3.357-7.5,7.5s3.357,7.5,7.5,7.5h16.376c4.143,0,7.5-3.357,7.5-7.5
		S293.46,238.767,289.317,238.767z"/>
	<path d="M240.688,253.767c4.143,0,7.5-3.357,7.5-7.5s-3.357-7.5-7.5-7.5h-16.375c-4.142,0-7.5,3.357-7.5,7.5s3.358,7.5,7.5,7.5
		H240.688z"/>
	<path d="M291.817,111.064v12.5H173.182v-12.5c0-4.143-3.358-7.5-7.5-7.5s-7.5,3.357-7.5,7.5v105.202c0,4.143,3.358,7.5,7.5,7.5
		h133.635c4.143,0,7.5-3.357,7.5-7.5V111.064c0-4.143-3.357-7.5-7.5-7.5S291.817,106.922,291.817,111.064z M173.182,208.767v-70.202
		h118.635v70.202H173.182z"/>
	<path d="M289.317,328.767H175.682c-4.142,0-7.5,3.357-7.5,7.5s3.358,7.5,7.5,7.5h113.635c4.143,0,7.5-3.357,7.5-7.5
		S293.46,328.767,289.317,328.767z"/>
	<path d="M289.317,298.767H175.682c-4.142,0-7.5,3.357-7.5,7.5s3.358,7.5,7.5,7.5h113.635c4.143,0,7.5-3.357,7.5-7.5
		S293.46,298.767,289.317,298.767z"/>
	<path d="M289.317,268.767H175.682c-4.142,0-7.5,3.357-7.5,7.5s3.358,7.5,7.5,7.5h113.635c4.143,0,7.5-3.357,7.5-7.5
		S293.46,268.767,289.317,268.767z"/>
</g>
<g>
</g>
<g>
</g>
<g>
</g>
<g>
</g>
<g>
</g>
<g>
</g>
<g>
</g>
<g>
</g>
<g>
</g>
<g>
</g>
<g>
</g>
<g>
</g>
<g>
</g>
<g>
</g>
<g>
</g>
</svg>
