<?xml version="1.0" encoding="iso-8859-1"?>
<!-- Generator: Adobe Illustrator 19.0.0, SVG Export Plug-In . SVG Version: 6.00 Build 0)  -->
<svg version="1.1" id="Layer_1" xmlns="http://www.w3.org/2000/svg" xmlns:xlink="http://www.w3.org/1999/xlink" x="0px" y="0px"
	 viewBox="0 0 511.999 511.999" style="enable-background:new 0 0 511.999 511.999;" xml:space="preserve">
<rect x="436.397" y="209.485" style="fill:#CEE8FA;" width="61.372" height="135.273"/>
<path style="fill:#2D527C;" d="M497.764,195.247h-160.99c-17.97,0-34.923,6.942-47.734,19.546l-65.897,64.843
	c-18.331,18.332-18.331,48.158,0,66.49l0.105,0.105c8.881,8.881,20.687,13.771,33.246,13.771c12.559,0,24.365-4.892,33.244-13.771
	l70.301-70.3c5.559-5.559,5.559-14.574,0-20.133c-5.558-5.559-14.569-5.559-20.134,0l-70.301,70.301
	c-3.502,3.502-8.157,5.431-13.11,5.431s-9.609-1.929-13.112-5.431l-0.105-0.105c-3.502-3.502-5.431-8.159-5.431-13.112
	s1.928-9.609,5.349-13.03l65.814-64.762c7.451-7.332,17.311-11.37,27.765-11.37h85.383v109.448l-75.332,68.377
	c-4.157,3.576-9.457,5.544-14.941,5.544h-0.001l-286.789-0.024c-9.165,0-16.619-7.457-16.619-16.621
	c0-9.165,7.456-16.621,16.621-16.621h144.757c7.863,0,14.236-6.374,14.236-14.236s-6.374-14.236-14.236-14.236H45.093
	C20.228,345.35,0,365.579,0,390.444c0,24.862,20.227,45.092,45.089,45.093l286.789,0.024c0.001,0,0.003,0,0.004,0
	c12.398,0,24.377-4.483,33.728-12.622c0.075-0.065,0.148-0.131,0.222-0.198l70.256-63.768c0.101,0.001,0.201,0.016,0.302,0.016
	h61.372c7.861,0,14.236-6.374,14.236-14.236V209.485C512,201.621,505.626,195.247,497.764,195.247z M483.528,330.516h-32.9V223.72
	h32.9V330.516z"/>
<path style="fill:#CEE8FA;" d="M193.675,222.084c-0.268,44.656-36.685,80.641-81.342,80.373s-80.641-36.685-80.373-81.341
	c0.387-64.648,81.64-130.442,81.64-130.442S194.065,156.865,193.675,222.084z"/>
<path style="fill:#2D527C;" d="M112.826,316.695l-0.578-0.001c-52.435-0.313-94.839-43.227-94.524-95.662
	c0.421-70.576,83.387-138.563,86.918-141.421c5.255-4.258,12.78-4.228,18.003,0.07c3.499,2.879,85.691,71.312,85.266,142.487
	C207.598,274.291,164.945,316.695,112.826,316.695z M113.589,109.625c-20.124,18.496-67.124,66.497-67.393,111.576
	c-0.219,36.735,29.487,66.801,66.223,67.02l0.409,0.001c36.512,0,66.393-29.708,66.611-66.224
	C179.69,179.93,137.958,132.297,113.589,109.625z"/>
<g>
</g>
<g>
</g>
<g>
</g>
<g>
</g>
<g>
</g>
<g>
</g>
<g>
</g>
<g>
</g>
<g>
</g>
<g>
</g>
<g>
</g>
<g>
</g>
<g>
</g>
<g>
</g>
<g>
</g>
</svg>
