<?xml version="1.0" encoding="iso-8859-1"?>
<!-- Generator: Adobe Illustrator 19.0.0, SVG Export Plug-In . SVG Version: 6.00 Build 0)  -->
<svg version="1.1" id="Layer_1" xmlns="http://www.w3.org/2000/svg" xmlns:xlink="http://www.w3.org/1999/xlink" x="0px" y="0px"
	 viewBox="0 0 512 512" style="enable-background:new 0 0 512 512;" xml:space="preserve">
<circle style="fill:#8AD5DD;" cx="256" cy="256" r="256"/>
<path style="fill:#FFFFFF;" d="M456,156v200c0,6.6-5.4,12-12,12H68c-6.6,0-12-5.4-12-12V156c0-6.6,5.4-12,12-12h376
	C450.6,144,456,149.4,456,156z"/>
<rect x="88" y="156" style="fill:#333333;" width="320" height="200"/>
<g>
	<path style="fill:#999999;" d="M76,232.208v48c0,2.2-1.8,4-4,4l0,0c-2.2,0-4-1.8-4-4v-48c0-2.2,1.8-4,4-4l0,0
		C74.2,228.208,76,230.008,76,232.208z"/>
	<path style="fill:#999999;" d="M432,232v48c0,2.2-1.8,4-4,4l0,0c-2.2,0-4-1.8-4-4v-48c0-2.2,1.8-4,4-4l0,0
		C430.2,228,432,229.8,432,232z"/>
</g>
<g>
	<path style="fill:#FFFFFF;" d="M147.416,221.52c4.216-0.768,10.072-1.344,18.04-1.344c8.632,0,14.968,1.824,19.096,5.272
		c3.832,3.168,6.328,8.256,6.328,14.296c0,6.144-1.912,11.224-5.56,14.68c-4.704,4.704-12.088,6.912-20.44,6.912
		c-2.2,0-4.216-0.104-5.76-0.384v24.368h-11.704L147.416,221.52L147.416,221.52z M159.12,251.648c1.448,0.384,3.36,0.488,5.76,0.488
		c8.832,0,14.2-4.32,14.2-11.896c0-7.192-4.992-11.04-13.152-11.04c-3.256,0-5.56,0.288-6.816,0.576v21.872H159.12z"/>
	<path style="fill:#FFFFFF;" d="M201.08,220.656h11.808v54.792h26.568v9.88H201.08L201.08,220.656L201.08,220.656z"/>
	<path style="fill:#FFFFFF;" d="M261.744,267l-5.56,18.328H244l20.728-64.672h15.064l21.008,64.672h-12.664L282.288,267H261.744z
		 M280.256,258.08l-5.088-15.928c-1.24-3.928-2.296-8.344-3.256-12.088h-0.192c-0.96,3.744-1.912,8.248-3.072,12.088l-4.984,15.928
		H280.256z"/>
	<path style="fill:#FFFFFF;" d="M316.08,285.328v-26.96l-20.44-37.712h13.432l7.776,16.6c2.208,4.8,3.84,8.448,5.568,12.856h0.184
		c1.632-4.128,3.456-8.16,5.664-12.856l7.768-16.6h13.344L327.88,258.08v27.248H316.08z"/>
</g>
<g>
</g>
<g>
</g>
<g>
</g>
<g>
</g>
<g>
</g>
<g>
</g>
<g>
</g>
<g>
</g>
<g>
</g>
<g>
</g>
<g>
</g>
<g>
</g>
<g>
</g>
<g>
</g>
<g>
</g>
</svg>
