<?xml version="1.0" encoding="iso-8859-1"?>
<!-- Generator: Adobe Illustrator 19.0.0, SVG Export Plug-In . SVG Version: 6.00 Build 0)  -->
<svg version="1.1" id="Layer_1" xmlns="http://www.w3.org/2000/svg" xmlns:xlink="http://www.w3.org/1999/xlink" x="0px" y="0px"
	 viewBox="0 0 512 512" style="enable-background:new 0 0 512 512;" xml:space="preserve">
<circle style="fill:#E9EDF1;" cx="256" cy="256" r="256"/>
<path style="fill:#FFFFFF;" d="M356,456.376H156c-6.6,0-12-5.4-12-12v-376c0-6.6,5.4-12,12-12h200c6.6,0,12,5.4,12,12v376
	C368,450.976,362.6,456.376,356,456.376z"/>
<rect x="156" y="88.4" style="fill:#333333;" width="200" height="320"/>
<g>
	<path style="fill:#999999;" d="M279.792,76.376h-48c-2.2,0-4-1.8-4-4l0,0c0-2.2,1.8-4,4-4h48c2.2,0,4,1.8,4,4l0,0
		C283.792,74.576,281.992,76.376,279.792,76.376z"/>
	<path style="fill:#999999;" d="M280,432.376h-48c-2.2,0-4-1.8-4-4l0,0c0-2.2,1.8-4,4-4h48c2.2,0,4,1.8,4,4l0,0
		C284,430.576,282.2,432.376,280,432.376z"/>
</g>
<path style="fill:#DB2B42;" d="M312.6,231.44H199.4c-4.072,0-7.4-3.328-7.4-7.4v-86.48c0-4.072,3.328-7.4,7.4-7.4h113.192
	c4.072,0,7.4,3.328,7.4,7.4v86.48C320,228.112,316.672,231.44,312.6,231.44z"/>
<polygon style="fill:#FFFFFF;" points="239.96,154.776 284.288,180.368 239.96,205.96 "/>
<polygon style="fill:#8AD5DD;" points="291.056,295.248 267.152,319.616 267.152,260.8 244.848,260.8 244.848,319.616 
	220.944,295.248 205.024,310.776 256,362.744 306.976,310.776 "/>
<g>
</g>
<g>
</g>
<g>
</g>
<g>
</g>
<g>
</g>
<g>
</g>
<g>
</g>
<g>
</g>
<g>
</g>
<g>
</g>
<g>
</g>
<g>
</g>
<g>
</g>
<g>
</g>
<g>
</g>
</svg>
