<?xml version="1.0" encoding="iso-8859-1"?>
<!-- Generator: Adobe Illustrator 19.0.0, SVG Export Plug-In . SVG Version: 6.00 Build 0)  -->
<svg version="1.1" id="Layer_1" xmlns="http://www.w3.org/2000/svg" xmlns:xlink="http://www.w3.org/1999/xlink" x="0px" y="0px"
	 viewBox="0 0 511.999 511.999" style="enable-background:new 0 0 511.999 511.999;" xml:space="preserve">
<g>
	<g>
		<g>
			<path d="M131.928,141.055c-4.385,0-7.94,3.555-7.94,7.94v9.093c0,4.385,3.555,7.94,7.94,7.94c4.385,0,7.94-3.555,7.94-7.94
				v-9.093C139.867,144.61,136.312,141.055,131.928,141.055z"/>
			<path d="M298.814,182.132c-4.386,0-7.94,3.555-7.94,7.94c0,7.426-6.042,13.468-13.468,13.468
				c-7.426,0-13.468-6.042-13.468-13.468c0-4.385-3.554-7.94-7.94-7.94c-4.385,0-7.94,3.555-7.94,7.94
				c0,7.426-6.042,13.468-13.468,13.468s-13.467-6.042-13.467-13.468c0-4.385-3.555-7.94-7.94-7.94c-4.385,0-7.94,3.555-7.94,7.94
				c0,16.182,13.165,29.347,29.346,29.347c8.435,0,16.049-3.576,21.407-9.293c5.358,5.717,12.972,9.293,21.407,9.293
				c16.182,0,29.347-13.165,29.347-29.347C306.753,185.687,303.2,182.132,298.814,182.132z"/>
			<path d="M380.072,141.055c-4.386,0-7.94,3.555-7.94,7.94v9.093c0,4.385,3.554,7.94,7.94,7.94s7.94-3.555,7.94-7.94v-9.093
				C388.012,144.61,384.457,141.055,380.072,141.055z"/>
			<path d="M511.263,254.294c-15.457-54.423-48.828-103.456-93.964-138.064c-41.013-31.448-89.111-49.847-140.187-53.821V42.278
				c0-11.644-9.473-21.115-21.115-21.115c-11.644,0-21.115,9.473-21.115,21.115v20.13c-51.073,3.975-99.168,22.374-140.18,53.82
				C49.565,150.838,16.195,199.87,0.737,254.293c-1.974,6.95,0.084,14.318,5.37,19.228c5.232,4.859,12.643,6.353,19.343,3.904
				c15.391-5.629,31.584-8.483,48.129-8.483c28.98,0,56.79,8.771,80.422,25.362c3.227,2.265,7.007,3.398,10.788,3.398
				c3.78,0,7.562-1.133,10.788-3.398c17.823-12.513,38.022-20.571,59.307-23.78v137.18c0,22.553-18.348,40.901-40.901,40.901
				c-18.83,0-34.869-12.705-39.529-30.398c2.968-2.349,4.882-5.975,4.882-10.046v-47.908c0-7.066-5.749-12.816-12.815-12.816h-29.11
				c-7.066,0-12.816,5.749-12.816,12.816v47.908c0,5.035,2.925,9.388,7.158,11.482c5.848,40.378,40.839,71.193,82.228,71.193
				c45.839,0,83.132-37.293,83.132-83.132V270.525c21.285,3.209,41.484,11.267,59.307,23.78c6.454,4.531,15.125,4.529,21.577,0
				c23.632-16.592,51.441-25.362,80.422-25.362c16.545,0,32.738,2.854,48.128,8.483c6.699,2.45,14.112,0.955,19.343-3.904
				C511.179,268.611,513.236,261.244,511.263,254.294z M250.761,42.278c0-2.888,2.349-5.236,5.236-5.236
				c2.888,0,5.236,2.349,5.236,5.236v19.358c-1.741-0.033-3.486-0.053-5.233-0.053c-1.75,0-3.496,0.019-5.239,0.053V42.278z
				 M153.42,275.023c-24.091-14.395-51.462-21.959-79.841-21.959c-18.412,0-36.439,3.179-53.583,9.448
				c-1.503,0.552-2.578-0.156-3.083-0.625c-0.435-0.403-1.392-1.529-0.901-3.254c14.531-51.16,45.907-97.257,88.351-129.803
				c36.008-27.611,77.831-44.516,122.318-49.672c-20.816,18.112-39.653,46.193-53.818,80.975
				C156.537,200.22,149.65,241.796,153.42,275.023z M120.476,363.317h22.982v41.781h-22.982V363.317z M261.236,407.705
				L261.236,407.705c0,37.083-30.17,67.253-67.253,67.253c-32.237,0-59.677-23.11-65.895-53.981h10.696
				c6.017,25.244,28.602,43.508,55.2,43.508c31.309,0,56.78-25.471,56.78-56.78V269.042c1.741-0.064,3.486-0.098,5.236-0.098
				s3.496,0.035,5.236,0.098V407.705z M342.017,278.93c-25.541-16.923-55.18-25.867-86.017-25.867
				c-30.836,0-60.476,8.944-86.017,25.866c-4.967-31.096,1.486-73.271,17.588-112.809c17.385-42.687,42.765-75.168,68.43-87.843
				c25.664,12.675,51.046,45.156,68.43,87.843C340.532,205.659,346.984,247.835,342.017,278.93z M495.085,261.887
				c-0.506,0.469-1.583,1.176-3.083,0.625c-17.143-6.269-35.172-9.448-53.582-9.448c-28.378,0-55.75,7.564-79.841,21.959
				c3.77-33.227-3.118-74.802-19.443-114.891c-14.165-34.782-33.001-62.863-53.818-80.974
				c44.487,5.157,86.309,22.062,122.318,49.673c42.443,32.545,73.821,78.643,88.35,129.803
				C496.477,260.359,495.52,261.483,495.085,261.887z"/>
		</g>
	</g>
</g>
<g>
</g>
<g>
</g>
<g>
</g>
<g>
</g>
<g>
</g>
<g>
</g>
<g>
</g>
<g>
</g>
<g>
</g>
<g>
</g>
<g>
</g>
<g>
</g>
<g>
</g>
<g>
</g>
<g>
</g>
</svg>
