<?xml version="1.0" encoding="iso-8859-1"?>
<!-- Generator: Adobe Illustrator 19.0.0, SVG Export Plug-In . SVG Version: 6.00 Build 0)  -->
<svg version="1.1" id="Layer_1" xmlns="http://www.w3.org/2000/svg" xmlns:xlink="http://www.w3.org/1999/xlink" x="0px" y="0px"
	 viewBox="0 0 508 508" style="enable-background:new 0 0 508 508;" xml:space="preserve">
<circle style="fill:#FFD05B;" cx="254" cy="254" r="254"/>
<path style="fill:#FFFFFF;" d="M398.1,401.5H109.9c-1.9,0-3.4-1.5-3.4-3.4V109.9c0-1.9,1.5-3.4,3.4-3.4h288.2c1.9,0,3.4,1.5,3.4,3.4
	v288.2C401.5,400,400,401.5,398.1,401.5z"/>
<rect x="212.7" y="106.5" style="fill:#FF7058;" width="82.5" height="32.4"/>
<path style="fill:#E6E9EE;" d="M300.1,195.3H208c-6.5,0-11.7-5.3-11.7-11.7l0,0c0-6.5,5.3-11.7,11.7-11.7h92.1
	c6.5,0,11.7,5.3,11.7,11.7l0,0C311.8,190.1,306.5,195.3,300.1,195.3z"/>
<g>
	<path style="fill:#84DBFF;" d="M248.7,264.8l-30-40.3c-0.3-0.4-0.8-0.4-1.1,0l-30,40.3c-0.3,0.4,0,1.1,0.5,1.1H202v70.6
		c0,0.4,0.3,0.7,0.7,0.7h30.8c0.4,0,0.7-0.3,0.7-0.7v-70.6h13.9C248.8,265.9,249.1,265.2,248.7,264.8z"/>
	<path style="fill:#84DBFF;" d="M320.3,264.8l-30-40.3c-0.3-0.4-0.8-0.4-1.1,0l-30,40.3c-0.3,0.4,0,1.1,0.5,1.1h13.9v70.6
		c0,0.4,0.3,0.7,0.7,0.7h30.8c0.4,0,0.7-0.3,0.7-0.7v-70.6h13.9C320.3,265.9,320.6,265.2,320.3,264.8z"/>
	<path style="fill:#84DBFF;" d="M325.9,365.1H182.1c-0.1,0-0.3-0.1-0.3-0.3v-16.4c0-0.1,0.1-0.3,0.3-0.3h143.8
		c0.1,0,0.3,0.1,0.3,0.3v16.4C326.2,365,326.1,365.1,325.9,365.1z"/>
</g>
<g>
</g>
<g>
</g>
<g>
</g>
<g>
</g>
<g>
</g>
<g>
</g>
<g>
</g>
<g>
</g>
<g>
</g>
<g>
</g>
<g>
</g>
<g>
</g>
<g>
</g>
<g>
</g>
<g>
</g>
</svg>
