<?xml version="1.0" encoding="iso-8859-1"?>
<!-- Generator: Adobe Illustrator 19.0.0, SVG Export Plug-In . SVG Version: 6.00 Build 0)  -->
<svg version="1.1" id="Layer_1" xmlns="http://www.w3.org/2000/svg" xmlns:xlink="http://www.w3.org/1999/xlink" x="0px" y="0px"
	 viewBox="0 0 508 508" style="enable-background:new 0 0 508 508;" xml:space="preserve">
<circle style="fill:#90DFAA;" cx="254" cy="254" r="254"/>
<path style="fill:#2B3B4E;" d="M429.9,365.2H78.1c-2.1,0-3.8-1.7-3.8-3.8V119.8c0-2.1,1.7-3.8,3.8-3.8h351.7c2.1,0,3.8,1.7,3.8,3.8
	v241.6C433.6,363.5,431.9,365.2,429.9,365.2z"/>
<path style="fill:#E6E9EE;" d="M411.1,410H96.9c-20.2,0-36.6-16.4-36.6-36.6l0,0h387.3l0,0C447.7,393.7,431.3,410,411.1,410z"/>
<polygon style="fill:#CED5E0;" points="315.5,373.4 192.5,373.4 203.7,387.6 304.3,387.6 "/>
<rect x="89.7" y="142.2" style="fill:#FFFFFF;" width="328.7" height="195.1"/>
<g>
	<path style="fill:#84DBFF;" d="M178.9,156.4c0.3,1.4,2.1,2.6,1.7,4c-0.2,0.9-1.2,1.5-2,2c-20.4,11.8-42.1,22.1-64.8,30.8
		c-1.6,0.6-4.2,0.9-4.6-0.5c-0.2-0.6,0.2-1.3,0.1-1.9c-0.1-0.5-0.6-0.9-1-1.3c-2.6-2.4-5.3-4.7-7.8-7.1c-3.3-3-6.7-6-10.7-8.3v-31.8
		h85.5c0.2,1.4,0.5,2.9,1.4,4.1c1.4,1.7,4.1,2.9,4.2,5C180.7,153.1,178.5,154.6,178.9,156.4z"/>
	<path style="fill:#84DBFF;" d="M418.3,229v60.2c-12.5,1.3-25,2.6-37.4,3.9c-5.5,0.6-10.9,1.1-16.4,1.7c-27.4,2.7-55.1,4.8-82.7,3.8
		c-27.6-1.1-55.3-5.4-80.3-15c-2.3-0.9-4.7-2-6.8-3.2c-35-0.1-70-0.5-105-1.2v-43.4c1.5,0,3.1,0,4.6,0c9.9,0,19.8,0.1,29.7,0.1
		c10.7,0,21.5,0.1,32.1,1.6c8.5,1.2,16.8,3.4,25.3,4.9c16.4,2.8,33.4,3,50.2,2.6C294.1,243.1,356,233.3,418.3,229z"/>
</g>
<g>
	<path style="fill:#E6E9EE;" d="M349.7,295.2c1.9-3.1,2.1-6.7,2.2-9.5l2-47.6c0.2-5,0.8-10.2,4.7-13l-3.9-3.6
		c-5.7,4.1-6.5,10.6-6.7,16.5l-2,47.6c-0.1,2.6-0.2,5.3-1.6,7.5c-1,1.7-3.4,3.2-5.4,2.8l-1.2,4.7c0.6,0.1,1.2,0.1,1.8,0.1
		C344,300.7,347.9,298.1,349.7,295.2z"/>
	<path style="fill:#E6E9EE;" d="M394.9,224c-0.5-0.4-0.9-0.8-1.3-1.3c-2.9-2.9-4.1-6.9-3.4-10.6l-5.8-0.8c-1,5,0.7,10.4,4.6,14.3
		c0.5,0.5,1,1,1.6,1.5c0.9,0.9,1.8,1.7,2.4,2.5c1.1,1.7,1.1,4,1.1,6c0,12.1-0.1,24.3-0.3,36.4c-0.1,5.7-0.2,12.1-2.3,17.9l5.6,1.4
		c2.4-6.4,2.5-13.2,2.6-19.2c0.2-12.1,0.3-24.4,0.3-36.5c0-2.5,0-5.5-1.7-8.2C397.2,226.1,396,225,394.9,224z"/>
	<path style="fill:#E6E9EE;" d="M256.9,337.3h-18.4c-8.3-2.5-16.5-5.4-24.4-8.6c-4.4-1.7-8.7-3.6-12.9-5.5c-6.4-2.7-13-5.6-19.7-8.1
		c-5.2-1.9-10.5-3.5-15.9-5l-13.3,17.8c-2.3,3.1-4.6,6.2-7,9.3h-7c3.1-3.9,6.1-7.8,9-11.7l12.6-16.8c-7.3-1.8-14.6-3.2-21.9-4.4
		l-23.5,32.9h-6.8l24.2-33.8c-10.9-1.5-21.7-2.4-31.8-3.1c-1.2,1.3-2.4,2.6-3.7,3.8l-1.2,1.2c-1.9,1.9-3.7,3.8-5.4,5.7v-7.9
		c0.3-0.3,0.5-0.6,0.8-0.8l1.2-1.3c0.4-0.4,0.8-0.8,1.2-1.2c-1.1,0-2.1-0.1-3.2-0.1v-4.8c2.4,0.1,4.9,0.2,7.3,0.4
		c0.4-0.5,0.9-1.1,1.2-1.6c1.1-1.5,2-3.1,3-4.9c3-5.1,6.1-10.5,12.9-13l2.5,4.3c-4.8,1.8-7.3,6.1-10,10.7c-0.9,1.6-1.9,3.3-3,4.8
		c10,0.6,20.5,1.6,31.3,3.2l27-37.7l30.9-68.4c-2.7-7-6.9-17.6-11.4-28.6c-1.3,1.1-2.6,2.1-4,3.1c-10.1,7.1-22.1,11.7-33.8,16.2
		c-7.3,2.8-14.9,5.7-21.8,9.2c-12.2,6.1-22.6,13.9-32.1,22.5v-7c5.6-4.8,11.6-9.3,18.1-13.4c-1.3-1.4-2.1-2.9-2.9-4.4
		c-0.4-0.7-0.8-1.4-1.2-2.1c-2.5-3.8-6.6-6.9-10.6-9.9l-3.3-2.5v-6.5L97,175c4.2,3.1,8.9,6.7,11.8,11.2c0.5,0.8,0.9,1.6,1.4,2.3
		c0.7,1.3,1.4,2.5,2.3,3.5c2-1.2,4.1-2.3,6.3-3.4c7.2-3.6,14.9-6.6,22.3-9.4c5.9-2.3,11.7-4.5,17.2-7L144,158.8
		c-5.8-5.5-11.8-11.1-17.8-16.6h7.8c4.9,4.5,9.7,9,14.5,13.5l14.8,14.1c3.6-1.8,7-3.8,10.2-6c2.1-1.4,4-3,5.8-4.6
		c-2.3-5.8-4.7-11.6-6.9-17h6.2c1.7,4.1,3.4,8.4,5.1,12.6c3.8-4,7.1-8.2,10.2-12.6h6.7c-4.1,6.4-8.9,12.5-14.7,18.1
		c6.5,16.1,12.2,30.7,12.7,32l0.3,0.8L167,263.6L141,300c7.3,1.2,14.6,2.7,21.9,4.5l10-13.3c3.9-5.3,8.8-11,16.6-12.3l1.2,4.7
		c-5.5,1-9.4,5.5-12.8,10.1l-9.3,12.4c5.1,1.4,10.2,3,15.2,4.8c6.9,2.5,13.6,5.4,20.1,8.2c4.2,1.8,8.5,3.7,12.8,5.4
		c8.4,3.4,17,6.4,25.7,8.9c0.6-2.5,0.9-5,1.3-7.6l4-28.3l5.9,0.5l-4,28.3c-0.4,2.8-0.8,5.7-1.5,8.6
		C251,335.8,253.9,336.6,256.9,337.3z"/>
	<polygon style="fill:#E6E9EE;" points="272.2,299.4 271.6,337.3 265.7,337.3 266.3,299.4 	"/>
	<path style="fill:#E6E9EE;" d="M316.2,301.8c0,11.4-0.4,23-1.3,34.4c0,0.3-0.1,0.6-0.1,1.1h-6c0.1-0.4,0.1-0.9,0.1-1.3
		c0.9-11.3,1.4-22.8,1.3-34.1h6V301.8z"/>
	<path style="fill:#E6E9EE;" d="M359.3,330.2c-1.4,2.3-2.8,4.7-4.2,7.1h-6.5c1.7-3.1,3.5-6.2,5.3-9.2c6.9-11.6,13.5-22.5,12.6-34.5
		l5.9-0.3C373.4,306.6,366.2,318.6,359.3,330.2z"/>
	<path style="fill:#E6E9EE;" d="M406.6,337.3h-6c3.3-14.8,3.4-29.8,0.3-44.7l5.8-0.8C409.9,307,409.9,322.2,406.6,337.3z"/>
	<path style="fill:#E6E9EE;" d="M362.9,186.8l-5.9,0.4c-1.6-14.9-2.4-30-2.7-45h5.9C360.5,157.1,361.3,172,362.9,186.8z"/>
	<path style="fill:#E6E9EE;" d="M278.4,142.2c-1.2,14.5-6.5,28.8-15.6,41.3c-4,5.5-8.8,10.8-13.5,15.9c-5.5,6.1-11.3,12.4-15.6,19.2
		c-2.7,4.2-5,8.9-7.3,13.4c-5.7,11.4-11.6,23.2-24.3,30.3l-0.4,0.2c-1.7,1-3.7,2.1-3.9,3.2c-0.1,0.6,0.4,1.5,0.9,2.3l7.9,14.5
		l-5.4,1.9l-7.9-14.5c-0.6-1.2-1.5-2.8-1.3-4.7c0.4-3.3,3.9-5.3,6.4-6.7l0.4-0.2c11.3-6.3,16.6-16.9,22.2-28.2
		c2.3-4.6,4.7-9.3,7.5-13.8c4.5-7.1,10.4-13.6,16.2-19.8c4.5-5,9.2-10.1,13.1-15.5c8.5-11.8,13.6-25.3,14.8-38.9h5.8V142.2z"/>
	<path style="fill:#E6E9EE;" d="M310.5,142.2c-1,2.6-2,5.2-3,7.8c-1.5,3.9-3.1,8-4.5,12c-10,29.1-10.9,59.8-11.8,89.5
		c-0.4,14.8-0.9,30.1,4.6,44.4l-5.6,1.4c-5.8-15-5.3-30.7-4.8-45.9c0.9-30,1.9-61.1,12-90.7c1.4-4.1,3-8.2,4.6-12.2
		c0.8-2.1,1.6-4.2,2.4-6.3H310.5z"/>
</g>
<path style="fill:#FFD05B;" d="M262.6,214.7L251,240.5c23.2-1.6,46.9-3.8,69.1-9.7c17.1-4.6,33.8-11.6,49.9-18.4
	c15.7-6.6,31.7-13.3,48.4-17.9v7.6c-14.8,4.4-29.4,10.4-44.3,16.7c-16.5,6.9-33.5,14-51.2,18.8c-24.5,6.6-50.2,8.6-75.2,10.4
	l-7.3,16.2l-16.6,23.2c57.9,14.6,123.3,6.2,176.8-0.7l17.9-2.3v7.3l-16.5,2.1c-32.3,4.2-68.9,8.9-105.8,8.9c-26,0-52.1-2.4-77-8.9
	L188,337.3h-10.2l32.9-46c-2.1-0.6-4.2-1.3-6.3-2c-1.2-0.4-2.3-0.8-3.5-1.2c-5-1.7-9.7-3.4-14.7-4.2c-5-0.8-10.3-0.8-15.5-0.9
	c-26.9,0-54,0-81,0.1V276c27-0.1,54.1-0.1,81-0.1c5.6,0,11.4,0,17.3,1c5.8,1,11.2,2.9,16.4,4.7c1.2,0.4,2.3,0.8,3.4,1.2
	c2.4,0.8,4.9,1.6,7.4,2.3l17.4-24.2l30.7-67.9c-6.1-15.5-14-35.4-20.3-50.7h9.4c8.4,20.4,18.2,45.4,19.9,49.7l0.4,1.2l-5.8,12.7
	c26.3-7.7,53.9-12.2,80.8-16.5c23.6-3.8,47.8-7.7,70.9-13.8v7.6c-22.7,5.8-46.2,9.6-69.1,13.3C320.3,201,290.3,205.9,262.6,214.7z"
	/>
<g>
</g>
<g>
</g>
<g>
</g>
<g>
</g>
<g>
</g>
<g>
</g>
<g>
</g>
<g>
</g>
<g>
</g>
<g>
</g>
<g>
</g>
<g>
</g>
<g>
</g>
<g>
</g>
<g>
</g>
</svg>
