<?xml version="1.0" encoding="iso-8859-1"?>
<!-- Generator: Adobe Illustrator 19.0.0, SVG Export Plug-In . SVG Version: 6.00 Build 0)  -->
<svg version="1.1" id="Layer_1" xmlns="http://www.w3.org/2000/svg" xmlns:xlink="http://www.w3.org/1999/xlink" x="0px" y="0px"
	 viewBox="0 0 512 512" style="enable-background:new 0 0 512 512;" xml:space="preserve">
<g>
	<g>
		<path d="M388.14,141.41c1.144-1.044,2.279-2.109,3.387-3.217C440.639,89.08,425.398,2.71,425.398,2.71
			s-84.677-16.937-135.483,33.87c-7.969,7.968-14.267,16.77-19.231,25.948h-45.949v87.336
			c-27.583-14.969-57.771-20.225-87.061-12.901C60.679,156.212,19.069,255.036,44.733,357.698
			c25.666,102.659,108.888,170.278,185.882,151.029c8.96-2.24,17.428-5.603,25.382-9.883l0.003,0.002l0.003-0.002
			c7.954,4.28,16.421,7.643,25.385,9.883c76.991,19.249,160.212-48.369,185.879-151.029
			C491.351,261.359,456.19,168.402,388.14,141.41z"/>
	</g>
</g>
<g>
</g>
<g>
</g>
<g>
</g>
<g>
</g>
<g>
</g>
<g>
</g>
<g>
</g>
<g>
</g>
<g>
</g>
<g>
</g>
<g>
</g>
<g>
</g>
<g>
</g>
<g>
</g>
<g>
</g>
</svg>
