<?xml version="1.0" encoding="iso-8859-1"?>
<!-- Generator: Adobe Illustrator 19.0.0, SVG Export Plug-In . SVG Version: 6.00 Build 0)  -->
<svg version="1.1" id="Layer_1" xmlns="http://www.w3.org/2000/svg" xmlns:xlink="http://www.w3.org/1999/xlink" x="0px" y="0px"
	 viewBox="0 0 475 475" style="enable-background:new 0 0 475 475;" xml:space="preserve">
<g transform="translate(0 -540.36)">
	<g>
		<g>
			<path d="M69.5,736.16h48.9c2.9,0,5.5-1.6,6.8-4.2l37.6-77.9l44.5,172.1c0.9,3.3,3.9,5.6,7.3,5.6c3.5,0,6.5-2.3,7.3-5.6
				l41.4-162.6l39.4,162.6c0.7,3.1,3.3,5.3,6.4,5.7c0.3,0.1,0.6,0.1,0.9,0.1l0,0c2.8,0,5.4-1.6,6.6-4.4l46.8-91.5h42
				c4.1,0,7.5-3.4,7.5-7.5s-3.4-7.5-7.5-7.5h-46.5c-2.8,0-5.4,1.6-6.7,4.1l-39.7,77.6l-41.8-172.2c-0.8-3.3-3.8-5.7-7.2-5.7
				c-3.5,0-6.5,2.3-7.3,5.6l-41.7,163.6l-42.3-163.6c-0.8-3.1-3.4-5.3-6.5-5.6c-3.1-0.3-6.1,1.4-7.5,4.2l-44.5,92.1H69.5
				c-4.1,0-7.5,3.4-7.5,7.5S65.4,736.16,69.5,736.16z"/>
			<path d="M467.5,552.86H7.5c-4.1,0-7.5,3.4-7.5,7.5v336.3c0,4.1,3.4,7.5,7.5,7.5H230v83.7h-88.3c-4.1,0-7.5,3.4-7.5,7.5
				s3.4,7.5,7.5,7.5h191.6c4.1,0,7.5-3.4,7.5-7.5s-3.4-7.5-7.5-7.5H245v-83.7h222.5c4.1,0,7.5-3.4,7.5-7.5v-336.3
				C475,556.26,471.6,552.86,467.5,552.86z M460,889.16H15v-321.3h445V889.16z"/>
		</g>
	</g>
</g>
<g>
</g>
<g>
</g>
<g>
</g>
<g>
</g>
<g>
</g>
<g>
</g>
<g>
</g>
<g>
</g>
<g>
</g>
<g>
</g>
<g>
</g>
<g>
</g>
<g>
</g>
<g>
</g>
<g>
</g>
</svg>
