<?xml version="1.0" encoding="iso-8859-1"?>
<!-- Generator: Adobe Illustrator 19.0.0, SVG Export Plug-In . SVG Version: 6.00 Build 0)  -->
<svg version="1.1" id="Layer_1" xmlns="http://www.w3.org/2000/svg" xmlns:xlink="http://www.w3.org/1999/xlink" x="0px" y="0px"
	 viewBox="0 0 512 512" style="enable-background:new 0 0 512 512;" xml:space="preserve">
<g>
	<g>
		<g>
			<path d="M336.807,175.958h-46.858c-5.751,0-10.413,4.663-10.413,10.413s4.662,10.413,10.413,10.413h46.858
				c5.751,0,10.413-4.663,10.413-10.413S342.558,175.958,336.807,175.958z"/>
			<path d="M384.706,175.958h-4.165c-5.751,0-10.413,4.663-10.413,10.413s4.662,10.413,10.413,10.413h4.165
				c5.751,0,10.413-4.663,10.413-10.413S390.457,175.958,384.706,175.958z"/>
			<path d="M510.773,139.814L482.97,87.75c-1.811-3.39-5.341-5.507-9.185-5.507H38.215c-3.843,0-7.374,2.117-9.185,5.507
				L1.227,139.815c-1.723,3.227-1.626,7.122,0.255,10.26c1.882,3.138,5.272,5.057,8.93,5.057h55.271L29.403,417.919
				c-0.786,5.697,3.195,10.952,8.892,11.738c0.483,0.066,0.963,0.099,1.437,0.099c5.119,0,9.582-3.777,10.302-8.99l36.674-265.634
				h65.271v31.239c0,5.75,4.662,10.413,10.413,10.413h20.826v120.443h-7.81c-5.751,0-10.413,4.663-10.413,10.413
				c0,5.75,4.662,10.413,10.413,10.413h36.445c5.751,0,10.413-4.663,10.413-10.413c0-5.75-4.662-10.413-10.413-10.413h-7.81V196.784
				h20.826c5.751,0,10.413-4.663,10.413-10.413v-31.239h190.011l36.674,265.635c0.719,5.215,5.183,8.99,10.302,8.99
				c0.475,0,0.955-0.032,1.437-0.099c5.697-0.787,9.677-6.043,8.892-11.738l-36.281-262.788h55.271c3.659,0,7.049-1.92,8.93-5.057
				C512.4,146.936,512.495,143.042,510.773,139.814z M214.456,175.958h-41.651v-20.826h41.651V175.958z M27.778,134.307
				l16.681-31.239h423.081l16.681,31.239H27.778z"/>
		</g>
	</g>
</g>
<g>
</g>
<g>
</g>
<g>
</g>
<g>
</g>
<g>
</g>
<g>
</g>
<g>
</g>
<g>
</g>
<g>
</g>
<g>
</g>
<g>
</g>
<g>
</g>
<g>
</g>
<g>
</g>
<g>
</g>
</svg>
