<?xml version="1.0" encoding="iso-8859-1"?>
<!-- Generator: Adobe Illustrator 19.0.0, SVG Export Plug-In . SVG Version: 6.00 Build 0)  -->
<svg version="1.1" id="Layer_1" xmlns="http://www.w3.org/2000/svg" xmlns:xlink="http://www.w3.org/1999/xlink" x="0px" y="0px"
	 viewBox="0 0 512 512" style="enable-background:new 0 0 512 512;" xml:space="preserve">
<g>
	<g>
		<path d="M0,244.407v263.856h255.852V244.407H0z M240.138,492.55H15.714V260.121h224.424V492.55z"/>
	</g>
</g>
<g>
	<g>
		<path d="M264.152,244.407V380.19H512V244.407H264.152z M279.866,364.476V260.121h216.42v104.354H279.866z"/>
	</g>
</g>
<g>
	<g>
		<rect x="56.948" y="188.927" width="15.714" height="15.714"/>
	</g>
</g>
<g>
	<g>
		<path d="M215.736,124.789H95.26v38.762h15.714v-23.048h89.047v79.619H95.795c5.001-6.663,7.969-14.936,7.969-23.89
			c0-21.987-17.888-39.875-39.875-39.875c-21.987,0-39.875,17.888-39.875,39.875c0,8.954,2.968,17.227,7.969,23.89H15.64v15.714
			h224.19v-15.714h-24.094V124.789z M67.503,220.122h-7.226c-11.614-1.75-20.548-11.796-20.548-23.89
			c0-13.323,10.839-24.161,24.161-24.161c13.323,0,24.161,10.839,24.161,24.161C88.05,208.326,79.117,218.373,67.503,220.122z"/>
	</g>
</g>
<g>
	<g>
		<rect x="120.853" y="156.451" width="24.095" height="15.714"/>
	</g>
</g>
<g>
	<g>
		<rect x="167.996" y="156.451" width="24.095" height="15.714"/>
	</g>
</g>
<g>
	<g>
		<rect x="120.853" y="188.927" width="24.095" height="15.714"/>
	</g>
</g>
<g>
	<g>
		<rect x="167.996" y="188.927" width="24.095" height="15.714"/>
	</g>
</g>
<g>
	<g>
		<path d="M166.856,16.674l-6.91-12.937l-6.91,12.88c-4.194,7.748-40.97,75.926-40.97,100.021h15.714
			c-0.001-12.572,17.618-50.919,32.165-79.202c14.547,28.284,32.166,66.631,32.166,79.202h15.714
			C207.825,92.543,171.049,24.422,166.856,16.674z"/>
	</g>
</g>
<g>
	<g>
		<path d="M159.945,92.772c-13.16,0-23.867,10.247-23.867,23.866h15.714c0-5.238,3.657-8.152,8.153-8.152
			c4.495,0,8.152,2.913,8.152,8.152h15.714C183.811,103.018,173.104,92.772,159.945,92.772z"/>
	</g>
</g>
<g>
	<g>
		<polygon points="208.857,444.542 208.857,461.304 40.191,461.304 40.191,477.018 224.571,477.018 224.571,444.542 		"/>
	</g>
</g>
<g>
	<g>
		<rect x="208.853" y="372.26" width="15.714" height="56.571"/>
	</g>
</g>
<g>
	<g>
		<rect x="208.853" y="340.832" width="15.714" height="15.714"/>
	</g>
</g>
<g>
	<g>
		<polygon points="464.476,324.066 464.476,333.494 424.666,333.494 424.666,349.209 480.19,349.209 480.19,324.066 		"/>
	</g>
</g>
<g>
	<g>
		<rect x="376.472" y="333.499" width="32.476" height="15.714"/>
	</g>
</g>
<g>
</g>
<g>
</g>
<g>
</g>
<g>
</g>
<g>
</g>
<g>
</g>
<g>
</g>
<g>
</g>
<g>
</g>
<g>
</g>
<g>
</g>
<g>
</g>
<g>
</g>
<g>
</g>
<g>
</g>
</svg>
