<?xml version="1.0" encoding="iso-8859-1"?>
<!-- Generator: Adobe Illustrator 19.0.0, SVG Export Plug-In . SVG Version: 6.00 Build 0)  -->
<svg version="1.1" id="Layer_1" xmlns="http://www.w3.org/2000/svg" xmlns:xlink="http://www.w3.org/1999/xlink" x="0px" y="0px"
	 viewBox="0 0 512 512" style="enable-background:new 0 0 512 512;" xml:space="preserve">
<g>
	<g>
		<path d="M205.026,35.507C182.258,12.638,152.121,0.03,120.16,0h-0.115C53.844,0.066,0,54.161,0,120.644v71.617h15.673v-71.617
			c0-57.863,46.839-104.942,104.429-104.97c27.785,0.015,53.996,10.984,73.816,30.891c19.82,19.907,30.735,46.216,30.735,74.079
			v79.977h15.673v-79.977C240.327,88.607,227.79,58.372,205.026,35.507z"/>
	</g>
</g>
<g>
	<g>
		<path d="M224.653,271.673v120.051c0,57.639-46.866,104.539-104.493,104.602c-57.624-0.063-104.487-46.963-104.487-104.602V271.673
			H0v120.051C0,457.968,53.831,511.875,120.045,512h0.23c66.218-0.125,120.051-54.032,120.051-120.275V271.673H224.653z"/>
	</g>
</g>
<g>
	<g>
		<path d="M48.016,391.837H32.343c0,48.065,39.755,87.821,87.821,87.821v-15.673C80.457,463.984,48.016,431.543,48.016,391.837z"/>
	</g>
</g>
<g>
	<g>
		<polygon points="127.478,116.038 127.478,80.457 152.555,80.457 152.555,64.784 87.771,64.784 87.771,80.457 111.804,80.457 
			111.804,116.996 0,220.821 0,256 15.673,256 15.673,227.656 120.023,130.753 224.653,235.47 224.653,256 240.327,256 
			240.327,228.981 		"/>
	</g>
</g>
<g>
	<g>
		<path d="M476.628,35.503C453.827,12.636,423.669,0.03,391.701,0h-0.114c-66.134,0.06-119.914,54.157-119.914,120.644v71.617
			h15.673v-71.617c0-57.863,46.781-104.942,104.297-104.97c27.795,0.015,54.033,10.986,73.887,30.896
			c19.859,19.916,30.796,46.222,30.796,74.075v79.977H512v-79.977C512,88.614,499.438,58.376,476.628,35.503z"/>
	</g>
</g>
<g>
	<g>
		<path d="M496.327,271.673v120.051c0,57.639-46.924,104.539-104.625,104.602c-57.552-0.063-104.355-46.963-104.355-104.602V271.673
			h-15.673v120.051c0,66.243,53.771,120.15,119.914,120.275h0.23C458.107,511.875,512,457.968,512,391.725V271.673H496.327z"/>
	</g>
</g>
<g>
	<g>
		<path d="M319.558,391.837h-15.673c0,48.065,38.842,87.821,87.952,87.821v-15.673C352.131,463.984,319.558,431.543,319.558,391.837
			z"/>
	</g>
</g>
<g>
	<g>
		<polygon points="399.151,116.038 399.151,80.457 424.229,80.457 424.229,64.784 359.445,64.784 359.445,80.457 383.478,80.457 
			383.478,116.996 271.673,220.821 271.673,256 287.347,256 287.347,227.656 391.697,130.753 496.327,235.47 496.327,256 512,256 
			512,228.981 		"/>
	</g>
</g>
<g>
</g>
<g>
</g>
<g>
</g>
<g>
</g>
<g>
</g>
<g>
</g>
<g>
</g>
<g>
</g>
<g>
</g>
<g>
</g>
<g>
</g>
<g>
</g>
<g>
</g>
<g>
</g>
<g>
</g>
</svg>
