<?xml version="1.0" encoding="iso-8859-1"?>
<!-- Generator: Adobe Illustrator 19.0.0, SVG Export Plug-In . SVG Version: 6.00 Build 0)  -->
<svg version="1.1" id="Layer_1" xmlns="http://www.w3.org/2000/svg" xmlns:xlink="http://www.w3.org/1999/xlink" x="0px" y="0px"
	 viewBox="0 0 512 512" style="enable-background:new 0 0 512 512;" xml:space="preserve">
<g>
	<g>
		<rect x="248.179" y="255.382" width="15.636" height="16.678"/>
	</g>
</g>
<g>
	<g>
		<path d="M297.173,448.222v31.591h0.001c0,8.985-7.314,16.552-16.304,16.552s-16.305-7.491-16.305-15.83H248.93
			c0,16.678,14.329,31.464,31.94,31.464c17.611,0,31.939-14.58,31.939-32.188v-31.59H297.173z"/>
	</g>
</g>
<g>
	<g>
		<rect x="248.179" width="15.636" height="15.636"/>
	</g>
</g>
<g>
	<g>
		<path d="M263.818,43.516V23.975h-15.636v19.541L0.096,211.574v35.469h511.807v-35.468L263.818,43.516z M144.987,223.069v8.339
			H15.732v-8.339h48.992v-15.636H34.088L231.553,73.667L148.74,207.433h-28.772v15.636H144.987z M352.42,231.408H160.622v-8.339
			h23.975v-15.636h-17.466l89.39-144.392l89.39,144.392h-17.466v15.636h23.975V231.408z M496.268,231.408H368.056v-8.339h25.017
			v-15.636h-28.772l-82.059-132.55l195.669,132.55h-29.592v15.636h47.949V231.408z"/>
	</g>
</g>
<g>
	<g>
		<rect x="248.179" y="279.357" width="15.636" height="192.84"/>
	</g>
</g>
<g>
	<g>
		<rect x="0.096" y="255.382" width="15.636" height="16.678"/>
	</g>
</g>
<g>
	<g>
		<rect x="144.984" y="255.382" width="15.636" height="16.678"/>
	</g>
</g>
<g>
	<g>
		<rect x="352.417" y="255.382" width="15.636" height="16.678"/>
	</g>
</g>
<g>
	<g>
		<rect x="496.265" y="255.382" width="15.636" height="16.678"/>
	</g>
</g>
<g>
</g>
<g>
</g>
<g>
</g>
<g>
</g>
<g>
</g>
<g>
</g>
<g>
</g>
<g>
</g>
<g>
</g>
<g>
</g>
<g>
</g>
<g>
</g>
<g>
</g>
<g>
</g>
<g>
</g>
</svg>
