<?xml version="1.0" encoding="iso-8859-1"?>
<!-- Generator: Adobe Illustrator 19.0.0, SVG Export Plug-In . SVG Version: 6.00 Build 0)  -->
<svg version="1.1" id="Capa_1" xmlns="http://www.w3.org/2000/svg" xmlns:xlink="http://www.w3.org/1999/xlink" x="0px" y="0px"
	 viewBox="0 0 470 470" style="enable-background:new 0 0 470 470;" xml:space="preserve">
<g>
	<path d="M467.561,112.536c-1.706-1.56-4.034-2.245-6.312-1.86c-36.581,6.187-76.446-6.149-105.77-32.338l28.862-28.862
		c2.693-2.694,4.178-6.276,4.178-10.086s-1.484-7.392-4.178-10.085l-18.406-18.406c-2.694-2.695-6.276-4.179-10.087-4.179
		c-3.81,0-7.392,1.484-10.086,4.178L310.74,45.92L286.319,3.743c-1.167-2.016-3.206-3.375-5.516-3.678
		c-2.321-0.303-4.631,0.486-6.278,2.133L238.21,38.514c-1.647,1.647-2.436,3.967-2.133,6.277c0.303,2.311,1.662,4.349,3.679,5.517
		l42.176,24.42l-54.206,54.206c-2.641-0.935-5.698-0.355-7.811,1.758c-2.113,2.113-2.693,5.17-1.757,7.811l-11.644,11.644
		c-2.641-0.936-5.699-0.356-7.812,1.757c-2.113,2.113-2.693,5.171-1.757,7.812l-11.645,11.645c-2.641-0.935-5.698-0.355-7.811,1.758
		c-2.113,2.113-2.693,5.17-1.757,7.811l-69.844,69.844c-0.026,0.026-0.055,0.047-0.081,0.073s-0.048,0.055-0.073,0.081
		L4.178,352.482C1.484,355.176,0,358.758,0,362.568s1.484,7.392,4.178,10.085l18.406,18.407c2.694,2.694,6.276,4.178,10.087,4.178
		c3.81,0,7.392-1.484,10.086-4.178l163.534-163.534v19.749c-19.84,27.539-30.317,59.162-30.317,91.619
		c0,33.256,10.994,65.638,31.794,93.646c1.415,1.905,3.648,3.028,6.021,3.028s4.606-1.123,6.021-3.028
		c4.447-5.988,8.441-12.177,11.98-18.53c13.014-23.365,19.813-48.969,19.813-75.116c0-13.455-1.801-26.767-5.322-39.704
		c-4.971-18.269-13.378-35.789-24.991-51.909v-34.754l19.001-19.001c0.029-0.029,8.425-8.425,8.425-8.425v76.879
		c0,4.142,3.357,7.5,7.5,7.5s7.5-3.358,7.5-7.5v-91.879l50.632-50.632c26.189,29.324,38.525,69.188,32.338,105.771
		c-0.386,2.278,0.301,4.606,1.859,6.311c1.427,1.561,3.438,2.439,5.534,2.439c0.194,0,0.39-0.007,0.586-0.023
		c28.662-2.24,56.413-15.44,78.141-37.168c21.729-21.728,34.928-49.479,37.169-78.141
		C470.157,116.352,469.266,114.094,467.561,112.536z M362.755,217.842c1.687-18.799-0.703-38.266-7.037-56.865
		c-6.518-19.14-17.09-37.018-30.75-52.128l19.893-19.893c15.111,13.66,32.988,24.231,52.129,30.749
		c18.599,6.334,38.059,8.724,56.864,7.038C446.017,171.657,407.669,210.004,362.755,217.842z M213.789,414.89
		c-14.959-23.289-22.815-49.359-22.815-75.997c0-21.757,5.246-43.133,15.317-62.926v52.926c0,4.142,3.357,7.5,7.5,7.5
		s7.5-3.358,7.5-7.5v-52.919c10.068,19.791,15.313,41.164,15.313,62.919C236.604,365.532,228.748,391.602,213.789,414.89z
		 M278.229,19.707l21.534,37.189l-6.855,6.855L255.72,42.218L278.229,19.707z M350.433,62.17l-17.365-17.365l22.78-22.78
		l17.365,17.365L350.433,62.17z M299.375,78.498c0.032-0.032,23.086-23.086,23.086-23.086l17.365,17.365l-0.406,0.406
		c-0.009,0.009-30.216,30.216-30.216,30.216c-0.008,0.008-0.414,0.414-0.414,0.414l-17.365-17.365L299.375,78.498z M280.818,97.055
		l17.365,17.365l-41.966,41.966l-17.365-17.365L280.818,97.055z M207.031,170.842l17.365,17.365l-10.607,10.607l-17.365-17.365
		L207.031,170.842z M111.112,266.761l17.365,17.365L32.67,379.933l-17.364-17.365L111.112,266.761z M139.084,273.519l-17.365-17.365
		l64.099-64.099l17.365,17.365L139.084,273.519z M235.003,177.6l-17.365-17.365l10.606-10.606l17.365,17.365L235.003,177.6z"/>
	<path d="M264.813,312.569c9.434,19.297,14.217,39.738,14.217,60.756c0,26.639-7.856,52.709-22.815,75.997
		c-2.688-4.183-5.157-8.465-7.379-12.804c-1.859-3.629-6.266-5.09-9.917-3.337c-0.058,0.028-0.118,0.05-0.176,0.079
		c-3.688,1.888-5.146,6.407-3.258,10.094c4.168,8.14,9.117,16.086,14.709,23.616c1.415,1.905,3.648,3.029,6.021,3.029
		s4.606-1.123,6.021-3.028c20.8-28.008,31.794-60.39,31.794-93.646c0-23.32-5.296-45.978-15.74-67.344
		c-1.819-3.721-6.31-5.264-10.032-3.444c-0.057,0.028-0.108,0.062-0.164,0.091C264.496,304.499,263.022,308.905,264.813,312.569z"/>
</g>
<g>
</g>
<g>
</g>
<g>
</g>
<g>
</g>
<g>
</g>
<g>
</g>
<g>
</g>
<g>
</g>
<g>
</g>
<g>
</g>
<g>
</g>
<g>
</g>
<g>
</g>
<g>
</g>
<g>
</g>
</svg>
