<?xml version="1.0" encoding="iso-8859-1"?>
<!-- Generator: Adobe Illustrator 19.0.0, SVG Export Plug-In . SVG Version: 6.00 Build 0)  -->
<svg version="1.1" id="Layer_1" xmlns="http://www.w3.org/2000/svg" xmlns:xlink="http://www.w3.org/1999/xlink" x="0px" y="0px"
	 viewBox="0 0 512 512" style="enable-background:new 0 0 512 512;" xml:space="preserve">
<circle style="fill:#FFC850;" cx="256" cy="256" r="256"/>
<circle style="fill:#FFDC64;" cx="256" cy="256" r="123.586"/>
<circle style="fill:#5B5D6E;" cx="256" cy="256" r="35.31"/>
<g>
	<path style="fill:#464655;" d="M295.721,324.163c-2.23-3.862-6.999-5.486-11.071-3.665c-8.755,3.917-18.436,6.122-28.65,6.122
		c-10.212,0-19.895-2.206-28.649-6.122c-4.071-1.822-8.815-0.242-11.046,3.62c-20.49,35.489-45.476,78.769-66.451,115.095
		c-2.479,4.296-0.974,9.862,3.416,12.169C183.975,467.519,218.906,476.69,256,476.69s72.026-9.171,102.73-25.305
		c4.391-2.307,5.876-7.908,3.395-12.204L295.721,324.163z"/>
	<path style="fill:#464655;" d="M334.814,255.366h133.481c4.953,0,9.047-4.084,8.849-9.033
		c-3.009-74.9-43.272-140.174-102.735-177.912c-4.194-2.662-9.805-1.152-12.289,3.15L295.17,187.527
		c-2.226,3.854-1.25,8.79,2.347,11.411c15.534,11.314,26.275,28.79,28.601,48.853C326.623,252.147,330.426,255.366,334.814,255.366z
		"/>
	<path style="fill:#464655;" d="M216.832,187.526L149.885,71.57c-2.484-4.302-8.095-5.812-12.289-3.15
		C78.13,106.155,37.866,171.432,34.857,246.333c-0.199,4.949,3.895,9.033,8.849,9.033h133.481c4.386,0,8.19-3.219,8.695-7.575
		c2.326-20.063,13.068-37.539,28.602-48.854C218.082,196.316,219.058,191.38,216.832,187.526z"/>
</g>
<g>
	<path style="fill:#5B5D6E;" d="M304.245,171.807l-9.076,15.72c-2.226,3.854-1.25,8.79,2.347,11.411
		c15.534,11.314,26.275,28.79,28.6,48.852c0.505,4.358,4.309,7.576,8.695,7.576h18.258
		C352.84,219.585,333.239,188.46,304.245,171.807z"/>
	<path style="fill:#5B5D6E;" d="M158.929,255.366h18.258c4.387,0,8.19-3.219,8.695-7.576c2.326-20.063,13.068-37.54,28.602-48.854
		c3.598-2.621,4.574-7.555,2.347-11.41l-9.076-15.72C178.762,188.459,159.16,219.585,158.929,255.366z"/>
	<path style="fill:#5B5D6E;" d="M256,353.103c17.806,0,34.438-4.874,48.786-13.239l-9.065-15.701
		c-2.23-3.862-6.999-5.486-11.071-3.665c-8.755,3.916-18.436,6.122-28.65,6.122c-10.212,0-19.895-2.206-28.649-6.122
		c-4.071-1.821-8.815-0.242-11.046,3.622c-2.941,5.092-5.991,10.376-9.09,15.745C221.562,348.23,238.195,353.103,256,353.103z"/>
</g>
<g>
</g>
<g>
</g>
<g>
</g>
<g>
</g>
<g>
</g>
<g>
</g>
<g>
</g>
<g>
</g>
<g>
</g>
<g>
</g>
<g>
</g>
<g>
</g>
<g>
</g>
<g>
</g>
<g>
</g>
</svg>
