<?xml version="1.0" encoding="iso-8859-1"?>
<!-- Generator: Adobe Illustrator 18.0.0, SVG Export Plug-In . SVG Version: 6.00 Build 0)  -->
<!DOCTYPE svg PUBLIC "-//W3C//DTD SVG 1.1//EN" "http://www.w3.org/Graphics/SVG/1.1/DTD/svg11.dtd">
<svg version="1.1" id="Capa_1" xmlns="http://www.w3.org/2000/svg" xmlns:xlink="http://www.w3.org/1999/xlink" x="0px" y="0px"
	 viewBox="0 0 297 297" style="enable-background:new 0 0 297 297;" xml:space="preserve">
<path d="M239.923,91.423C239.923,41.012,198.911,0,148.5,0S57.077,41.012,57.077,91.423c0,47.071,35.76,85.943,81.539,90.887
	v104.807c0,5.458,4.425,9.884,9.884,9.884c5.458,0,9.883-4.425,9.883-9.884V182.309C204.163,177.365,239.923,138.494,239.923,91.423
	z M76.844,91.423c0-9.889,2.014-19.317,5.653-27.895c21.99,9.945,35.363,18.388,46.425,26.602
	c-12.924,5.569-27.572,13.12-47.294,26.99C78.55,109.137,76.844,100.477,76.844,91.423z M220.156,91.423
	c0,10.847-2.435,21.131-6.767,30.355c-21.334-9.728-34.437-18.024-45.312-26.098c13.111-5.649,27.998-13.342,48.155-27.598
	C218.762,75.404,220.156,83.251,220.156,91.423z M207.126,50.298c-19.704,14.158-33.752,21.548-46.434,27.038
	c1.686-14.37,2.468-31.365,0.087-56.495C179.874,24.155,196.393,35.043,207.126,50.298z M140.851,20.18
	c2.485,24.509,1.864,40.531,0.264,54.382c-11.514-8.579-25.715-17.681-48.366-28.085C104.386,32.071,121.472,22.246,140.851,20.18z
	 M91.282,134.502c18.97-13.505,32.647-20.671,45.026-26.03c-1.618,13.789-2.406,29.991-0.363,53.483
	C117.789,158.73,101.971,148.663,91.282,134.502z M155.863,162.702c-2.147-22.872-1.513-38.163,0.023-51.455
	c11.207,8.351,24.952,17.195,46.565,27.255C190.824,151.807,174.384,160.803,155.863,162.702z"/>
<g>
</g>
<g>
</g>
<g>
</g>
<g>
</g>
<g>
</g>
<g>
</g>
<g>
</g>
<g>
</g>
<g>
</g>
<g>
</g>
<g>
</g>
<g>
</g>
<g>
</g>
<g>
</g>
<g>
</g>
</svg>
