<?xml version="1.0" encoding="iso-8859-1"?>
<!-- Generator: Adobe Illustrator 19.0.0, SVG Export Plug-In . SVG Version: 6.00 Build 0)  -->
<svg version="1.1" id="Layer_1" xmlns="http://www.w3.org/2000/svg" xmlns:xlink="http://www.w3.org/1999/xlink" x="0px" y="0px"
	 viewBox="0 0 497.7 497.7" style="enable-background:new 0 0 497.7 497.7;" xml:space="preserve">
<path style="fill:#4ABC96;" d="M496.95,248c0-137-111.1-248-248.1-248S0.75,111,0.75,248s111.1,248.1,248.1,248.1
	C385.85,496.1,496.95,385,496.95,248z"/>
<path style="fill:#DD621D;" d="M248.55,335c-77.2,0-139.1,22.1-146.4,49.3c-3.3,12.2-7,35.2-10.1,57.5
	c42.7,34.9,97.4,55.9,156.9,55.9s114.1-21,156.9-55.9c-3.2-22.3-6.9-45.4-10.1-57.5C388.25,357.1,325.65,335,248.55,335z"/>
<g>
	<path style="fill:#C14C11;" d="M337.55,409l-66.2-2.2l-14.5,23.6l-8-8.7l-8,8.7l-14.5-23.5l-66.2,2.2l12-78.8
		c0,0,30.2-11.3,76.7-11.3s76.7,11.3,76.7,11.3L337.55,409z"/>
	<path style="fill:#C14C11;" d="M240.65,420.7v76.9c2.7,0.1,5.4,0.1,8.2,0.1c2.7,0,5.5-0.1,8.2-0.1v-76.9H240.65z"/>
</g>
<path style="fill:#E8DBD6;" d="M248.85,424.5l-56.7-86.2c0,0,25.3-3.3,56.7-3.3s56.7,3.3,56.7,3.3L248.85,424.5z"/>
<path style="fill:#E2A379;" d="M287.75,283.7h-77.8c12.1,36.6,1,53.3,1,53.3s11.9,13.2,37.9,13.2s37.9-13.2,37.9-13.2
	S275.65,320.3,287.75,283.7z"/>
<path style="fill:#191310;" d="M298.65,176.7c-104.1,75.4-96,142.3-83,173.5c26.2,62.7-43.7,76.2-43.7,76.2l-1.9,1
	c0,0,39.5-20,3.6-77.7c-17.8-28.7-73.3-87.5,17.4-178.6L298.65,176.7z"/>
<g>
	<path style="fill:#F4B382;" d="M328.65,176.8c0-92.4-35.7-113.6-79.8-113.6c-44,0-79.8,21.2-79.8,113.6c0,31.3,5.6,55.8,14,74.7
		c18.4,41.6,50.3,56.1,65.8,56.1c15.4,0,47.3-14.5,65.8-56.1C323.05,232.6,328.65,208.1,328.65,176.8z"/>
	<path style="fill:#F4B382;" d="M161.45,209.3c4.3,25.2,9.6,26.3,17.3,25l-8.1-54.8C162.95,180.9,157.15,184.2,161.45,209.3z"/>
	<path style="fill:#F4B382;" d="M327.25,179.6l-8.1,54.8c7.6,1.3,13,0.1,17.3-25C340.65,184.2,334.85,180.9,327.25,179.6z"/>
</g>
<g>
	<path style="fill:#191310;" d="M248.85,63.2c-5.5-4-26.4-3.5-37.3,1c-23,9.5-61,48.5-38.7,137.4c0,0,127.8-84.7,125.4-102.5
		C298.15,98.1,261.55,72.5,248.85,63.2z"/>
	<path style="fill:#191310;" d="M247.15,63.4c-22.5,0-86,41.2-52.3,131.5l81.2-67.9C276.05,127,269.65,63.4,247.15,63.4z"/>
	<path style="fill:#191310;" d="M257.15,80.7c-30.9,20.8-61.6,39.5-37,105.5c0,0,42.2-32.2,76.7-63.5
		C287.55,81.1,263.75,76.3,257.15,80.7z"/>
</g>
<path style="fill:#BC8C6C;" d="M328.65,179.8c1.4-97.6-35.8-116.6-79.8-116.6c0,0,24,21.8,28.7,77.2c0,0,15-1,24,4
	S328.65,179.8,328.65,179.8z"/>
<path style="fill:#CC785E;" d="M275.55,265.4c0,0-14.2,9.6-26.7,9.6c-12.5,0-26.7-9.6-26.7-9.6c0-1.4,11.3-5.3,16.1-6
	c3-0.5,10.6,2.5,10.6,2.5s7.5-2.9,10.4-2.5C264.15,260.1,275.55,265.4,275.55,265.4z"/>
<path style="fill:#C16952;" d="M275.55,265.4c0,0-14.2,13.5-26.7,13.5c-12.5,0-26.7-13.5-26.7-13.5s6.5,1.5,19.6,0.7
	c2.2-0.1,5.1,1.6,7,1.6c1.7,0,4.2-1.8,6.1-1.7C268.65,266.8,275.55,265.4,275.55,265.4z"/>
<g>
</g>
<g>
</g>
<g>
</g>
<g>
</g>
<g>
</g>
<g>
</g>
<g>
</g>
<g>
</g>
<g>
</g>
<g>
</g>
<g>
</g>
<g>
</g>
<g>
</g>
<g>
</g>
<g>
</g>
</svg>
