<?xml version="1.0" encoding="iso-8859-1"?>
<!-- Generator: Adobe Illustrator 19.0.0, SVG Export Plug-In . SVG Version: 6.00 Build 0)  -->
<svg version="1.1" id="Layer_1" xmlns="http://www.w3.org/2000/svg" xmlns:xlink="http://www.w3.org/1999/xlink" x="0px" y="0px"
	 viewBox="0 0 512 512" style="enable-background:new 0 0 512 512;" xml:space="preserve">
<path style="fill:#ACABB1;" d="M421.648,90.353H256H90.352c-12.475,0-22.588,10.112-22.588,22.588v376.47
	c0,12.475,10.114,22.588,22.588,22.588H256h165.648c12.475,0,22.588-10.114,22.588-22.588v-376.47
	C444.236,100.465,434.122,90.353,421.648,90.353z"/>
<path style="fill:#898890;" d="M90.352,90.353c-12.475,0-22.588,10.112-22.588,22.588v376.47c0,12.475,10.114,22.588,22.588,22.588
	H256V90.353H90.352z"/>
<path style="fill:#57565C;" d="M256,512c-12.475,0-22.588-10.114-22.588-22.588v-376.47c0-12.476,10.114-22.588,22.588-22.588
	s22.588,10.112,22.588,22.588v376.47C278.588,501.886,268.475,512,256,512z"/>
<path style="fill:#FF6243;" d="M346.353,45.177H165.647c-12.475,0-22.588-10.115-22.588-22.588C143.058,10.112,153.172,0,165.647,0
	h180.706c12.475,0,22.588,10.112,22.588,22.588C368.941,35.062,358.828,45.177,346.353,45.177z"/>
<path style="fill:#FF0C38;" d="M165.647,0c-12.475,0-22.588,10.112-22.588,22.588c0,12.473,10.114,22.588,22.588,22.588h91.859V0
	H165.647z"/>
<g>
</g>
<g>
</g>
<g>
</g>
<g>
</g>
<g>
</g>
<g>
</g>
<g>
</g>
<g>
</g>
<g>
</g>
<g>
</g>
<g>
</g>
<g>
</g>
<g>
</g>
<g>
</g>
<g>
</g>
</svg>
