<?xml version="1.0" encoding="iso-8859-1"?>
<!-- Generator: Adobe Illustrator 19.0.0, SVG Export Plug-In . SVG Version: 6.00 Build 0)  -->
<svg version="1.1" id="Layer_1" xmlns="http://www.w3.org/2000/svg" xmlns:xlink="http://www.w3.org/1999/xlink" x="0px" y="0px"
	 viewBox="0 0 512 512" style="enable-background:new 0 0 512 512;" xml:space="preserve">
<g>
	<g>
		<path d="M510.726,235.435L442.56,37.959c-2.185-6.327-6.988-11.408-13.183-13.943c-6.195-2.537-13.182-2.281-19.175,0.698
			L12.913,222.188C5.002,226.121,0,234.194,0,243.028v223.418c0,12.853,10.42,23.273,23.273,23.273h465.455
			c12.853,0,23.273-10.42,23.273-23.273V243.028C512,240.443,511.57,237.877,510.726,235.435z M407.203,78.181l48.871,141.574
			H122.379L407.203,78.181z M465.455,443.173H46.545V378.01h418.909V443.173z M465.455,331.464H46.545v-65.164h418.909V331.464z"/>
	</g>
</g>
<g>
</g>
<g>
</g>
<g>
</g>
<g>
</g>
<g>
</g>
<g>
</g>
<g>
</g>
<g>
</g>
<g>
</g>
<g>
</g>
<g>
</g>
<g>
</g>
<g>
</g>
<g>
</g>
<g>
</g>
</svg>
