<?xml version="1.0" encoding="iso-8859-1"?>
<!-- Generator: Adobe Illustrator 19.0.0, SVG Export Plug-In . SVG Version: 6.00 Build 0)  -->
<svg version="1.1" id="Layer_1" xmlns="http://www.w3.org/2000/svg" xmlns:xlink="http://www.w3.org/1999/xlink" x="0px" y="0px"
	 viewBox="0 0 512 512" style="enable-background:new 0 0 512 512;" xml:space="preserve">
<g>
	<g>
		<path d="M66.783,0C29.956,0,0,29.956,0,66.783c0,36.826,29.956,66.783,66.783,66.783c36.826,0,66.783-29.956,66.783-66.783
			C133.565,29.956,103.609,0,66.783,0z"/>
	</g>
</g>
<g>
	<g>
		<path d="M445.217,411.826c-36.826,0-66.783,29.956-66.783,66.783h-33.391V311.652h83.478c27.619,0,50.087-22.468,50.087-50.087
			v-66.783c0-27.619-22.468-50.087-50.087-50.087c-27.619,0-50.087,22.468-50.087,50.087v16.696h-33.391v-79.908
			c0-42.527-29.913-79.467-69.576-85.918c-51.518-8.359-97.38,31.042-97.38,82.347v150.261h-33.391v-16.696
			c0-27.619-22.468-50.087-50.087-50.087s-50.087,22.468-50.087,50.087v66.783c0,27.619,22.468,50.087,50.087,50.087h83.478v100.174
			h-33.391c0-36.826-29.956-66.783-66.783-66.783c-36.826,0-66.783,29.956-66.783,66.783v16.696c0,9.223,7.479,16.696,16.696,16.696
			c166.629,0,305.174,0,467.478,0c9.217,0,16.696-7.473,16.696-16.696v-16.696C512,441.783,482.044,411.826,445.217,411.826z
			 M278.261,428.522c0,9.223-7.479,16.696-16.696,16.696c-9.217,0-16.696-7.473-16.696-16.696V395.13
			c0-9.223,7.479-16.696,16.696-16.696c9.217,0,16.696,7.473,16.696,16.696V428.522z M278.261,328.348
			c0,9.223-7.479,16.696-16.696,16.696c-9.217,0-16.696-7.473-16.696-16.696v-33.391c0-9.223,7.479-16.696,16.696-16.696
			c9.217,0,16.696,7.473,16.696,16.696V328.348z M278.261,228.174c0,9.223-7.479,16.696-16.696,16.696
			c-9.217,0-16.696-7.473-16.696-16.696v-33.391c0-9.223,7.479-16.696,16.696-16.696c9.217,0,16.696,7.473,16.696,16.696V228.174z
			 M261.565,144.696c-9.22,0-16.696-7.475-16.696-16.696s7.475-16.696,16.696-16.696c9.22,0,16.696,7.475,16.696,16.696
			S270.786,144.696,261.565,144.696z"/>
	</g>
</g>
<g>
</g>
<g>
</g>
<g>
</g>
<g>
</g>
<g>
</g>
<g>
</g>
<g>
</g>
<g>
</g>
<g>
</g>
<g>
</g>
<g>
</g>
<g>
</g>
<g>
</g>
<g>
</g>
<g>
</g>
</svg>
