<?xml version="1.0" encoding="iso-8859-1"?>
<!-- Generator: Adobe Illustrator 19.0.0, SVG Export Plug-In . SVG Version: 6.00 Build 0)  -->
<svg version="1.1" id="Layer_1" xmlns="http://www.w3.org/2000/svg" xmlns:xlink="http://www.w3.org/1999/xlink" x="0px" y="0px"
	 viewBox="0 0 512 512" style="enable-background:new 0 0 512 512;" xml:space="preserve">
<g>
	<g>
		<path d="M481.899,4.891c-6.522-6.521-17.087-6.521-23.609,0.001l-51.606,51.601C379.125,22.11,336.857,0,289.463,0h-66.783
			c-43.831,0-87.364,19.184-117.261,56.537L53.779,4.89C47.257-1.632,36.691-1.626,30.17,4.884
			c-32.631,32.62-32.638,85.428,0,118.065c11.821,11.816,26.489,19.624,42.457,22.811c-0.318,10.377-0.207-31.59-0.207,191.799
			c0,19.489,6.87,38.468,19.348,53.441l47.435,56.919v13.995c0,27.619,22.468,50.087,50.087,50.087h133.565
			c27.619,0,49.976-22.468,49.976-50.087v-13.994L420.376,391c12.478-14.973,19.348-33.951,19.348-53.441
			c0-226.753,0.101-180.681-0.228-191.813c15.949-3.194,30.595-10.996,42.403-22.802C514.442,90.396,514.442,37.434,481.899,4.891z
			 M77.362,112.382c-8.818-2.139-16.977-6.448-23.583-13.046c-15.676-15.667-18.552-38.725-9.805-57.027l43.168,43.168
			C83.017,94.106,79.773,103.117,77.362,112.382z M139.203,217.044c0-9.22,7.475-16.696,16.696-16.696s16.696,7.475,16.696,16.696
			c0,9.22-7.475,16.696-16.696,16.696S139.203,226.264,139.203,217.044z M222.681,445.218c-9.22,0-16.696-7.475-16.696-16.696
			s7.475-16.696,16.696-16.696c9.22,0,16.696,7.475,16.696,16.696S231.901,445.218,222.681,445.218z M289.463,445.218
			c-9.22,0-16.696-7.475-16.696-16.696s7.475-16.696,16.696-16.696c9.22,0,16.696,7.475,16.696,16.696
			S298.684,445.218,289.463,445.218z M350.532,355.793c-2.875,8.782-12.318,13.54-21.065,10.68
			c-10.86-3.555-20.41-8.966-28.649-15.933c-8.215,16.46-25.056,27.895-44.67,27.895c-19.627,0-36.481-11.452-44.69-27.932
			c-8.245,6.985-17.809,12.409-28.69,15.97c-8.91,2.886-18.226-2.001-21.065-10.68c-2.869-8.761,1.913-18.19,10.674-21.06
			c24.891-8.133,30.225-26.537,35.267-37.675c1.661-25.798,4.549-63.334,8.288-99.764C228.05,79.131,237.495,66.783,256.148,66.783
			c18.664,0,28.098,12.348,40.218,130.511c3.75,36.515,6.643,74.156,8.301,99.962c4.886,11.13,10.582,29.431,35.19,37.477
			C348.618,337.603,353.401,347.033,350.532,355.793z M356.246,233.739c-9.22,0-16.696-7.475-16.696-16.696
			c0-9.22,7.475-16.696,16.696-16.696s16.696,7.475,16.696,16.696C372.942,226.264,365.467,233.739,356.246,233.739z M458.29,99.331
			c-6.612,6.608-14.752,10.976-23.577,13.109c-2.439-9.36-5.743-18.347-9.854-26.908l43.212-43.202
			C476.941,60.946,473.681,83.94,458.29,99.331z"/>
	</g>
</g>
<g>
	<g>
		<path d="M256.148,142.277c-9.087,62.87-16.696,166.31-16.696,186.071c0,9.206,7.49,16.696,16.696,16.696
			c9.206,0,16.696-7.49,16.696-16.696C272.843,308.587,265.235,205.147,256.148,142.277z"/>
	</g>
</g>
<g>
</g>
<g>
</g>
<g>
</g>
<g>
</g>
<g>
</g>
<g>
</g>
<g>
</g>
<g>
</g>
<g>
</g>
<g>
</g>
<g>
</g>
<g>
</g>
<g>
</g>
<g>
</g>
<g>
</g>
</svg>
