<?xml version="1.0" encoding="iso-8859-1"?>
<!-- Generator: Adobe Illustrator 19.0.0, SVG Export Plug-In . SVG Version: 6.00 Build 0)  -->
<svg version="1.1" id="Layer_1" xmlns="http://www.w3.org/2000/svg" xmlns:xlink="http://www.w3.org/1999/xlink" x="0px" y="0px"
	 viewBox="0 0 512 512" style="enable-background:new 0 0 512 512;" xml:space="preserve">
<g>
	<g>
		<g>
			<polygon points="324.27,157.133 324.27,213.333 409.603,213.333 409.603,157.141 366.851,114.466 			"/>
			<path d="M366.753,93.865c0.017,0,0.034,0.009,0.043,0.009c0.017,0,0.026-0.009,0.034-0.009c0.06,0,0.111,0.034,0.171,0.034
				c0.666,0.017,1.331,0.085,1.971,0.256c0.29,0.06,0.555,0.213,0.845,0.299c0.145,0.06,0.282,0.094,0.427,0.154
				c1.075,0.41,2.099,0.947,2.918,1.766l62.046,62.216l13.517-13.517l-81.963-81.809l-81.63,81.792l13.534,13.534l62.046-62.216
				C362.307,94.769,364.483,93.865,366.753,93.865z"/>
			<path d="M366.933,290.133c79.991,0,145.067-65.075,145.067-145.067S446.925,0,366.933,0c-59.52,0-110.737,36.062-133.069,87.467
				c-6.912-1.408-13.781-2.133-20.531-2.133c-61.167,0-110.933,52.634-110.933,117.333v44.8c0,30.438,10.061,63.061,26.795,89.685
				l-8.755,27.162c-0.691,2.133-0.35,4.395,0.64,6.383c-27.785,5.419-59.076,17.69-99.311,38.861C8.337,416.623,0,430.447,0,445.636
				v57.83C0,508.186,3.823,512,8.533,512h153.6h102.4h153.6c4.719,0,8.533-3.814,8.533-8.533v-57.83
				c0-15.189-8.337-29.013-21.76-36.079c-40.235-21.171-71.526-33.442-99.311-38.861c0.99-1.988,1.331-4.25,0.64-6.383l-8.687-26.94
				c10.522-16.759,18.313-35.84,22.665-55.108C334.899,287.283,350.575,290.133,366.933,290.133z M142.345,372.344v-0.009
				l-4.403-6.673l3.635-11.29c0.137,0.162,0.282,0.307,0.41,0.461c0.521,0.606,1.067,1.161,1.587,1.758
				c1.946,2.219,3.925,4.352,5.948,6.383c1.016,1.016,2.057,1.988,3.098,2.97c1.613,1.51,3.251,2.953,4.915,4.343
				c1.203,1.016,2.398,2.039,3.635,2.995c1.954,1.502,3.942,2.884,5.948,4.224c1.971,1.323,3.985,2.534,6.025,3.695
				c1.493,0.853,2.987,1.698,4.497,2.458c1.544,0.777,3.106,1.493,4.685,2.176c1.724,0.742,3.473,1.399,5.222,2.022
				c1.314,0.461,2.611,0.998,3.951,1.391c2.603,0.785,5.222,1.434,7.859,1.937l-20.676,36.25L142.345,372.344z M213.308,401.246
				l19.448,33.954h-38.844L213.308,401.246z M173.449,494.933l12.194-42.667h55.39l12.194,42.667H173.449z M284.331,372.335v0.009
				l-36.343,55.1l-20.71-36.241c0.862-0.171,1.715-0.435,2.569-0.631c21.214-4.676,40.124-17.929,55.305-36.036l3.584,11.127
				L284.331,372.335z M279.962,332.826c-1.749,2.551-3.541,5.026-5.393,7.373c-0.444,0.563-0.887,1.143-1.34,1.698
				c-9.865,12.117-20.949,21.265-32.538,26.914c-0.094,0.043-0.188,0.094-0.282,0.137c-2.756,1.331-5.547,2.432-8.346,3.362
				c-0.247,0.085-0.495,0.188-0.742,0.265c-2.628,0.836-5.274,1.451-7.927,1.92c-0.384,0.068-0.759,0.188-1.143,0.247
				c-2.97,0.469-5.948,0.725-8.917,0.725c-3.106,0-6.178-0.282-9.216-0.768c-18.133-2.978-36.011-14.618-51.012-33.178
				c-0.64-0.802-1.22-1.673-1.852-2.483c-1.664-2.167-3.311-4.361-4.89-6.699c-16.631-24.636-26.897-56.209-26.897-84.873v-44.8
				c0-55.287,42.112-100.267,93.867-100.267c4.796,0,9.685,0.435,14.626,1.306c-1.613,5.385-2.833,10.931-3.814,16.563
				c-0.41,2.355-0.785,4.719-1.084,7.083c-0.196,1.638-0.401,3.268-0.546,4.915c-0.384,4.258-0.648,8.525-0.648,12.8
				c0,4.454,0.273,8.858,0.674,13.227c0.111,1.186,0.247,2.364,0.384,3.541c0.418,3.644,0.964,7.245,1.647,10.803
				c0.145,0.725,0.247,1.459,0.393,2.185c0.896,4.301,2.005,8.542,3.277,12.715c0.188,0.614,0.41,1.22,0.606,1.835
				c1.229,3.823,2.603,7.586,4.139,11.273c0.179,0.444,0.35,0.887,0.538,1.323c12.621,29.645,34.935,54.605,64,70.434
				c0.324,0.179,0.648,0.333,0.964,0.512c1.886,0.998,3.738,2.039,5.675,2.97C300.006,295.799,291.499,315.904,279.962,332.826z
				 M307.2,221.867v-47.676l-2.492,2.5c-1.596,1.604-3.763,2.509-6.033,2.509h-0.009c-2.261,0-4.429-0.905-6.033-2.5l-25.6-25.6
				c-3.328-3.337-3.328-8.73-0.009-12.058l93.687-93.867c1.596-1.613,3.772-2.509,6.033-2.509h0.009
				c2.261,0,4.429,0.896,6.033,2.492l94.046,93.867c1.596,1.596,2.5,3.772,2.5,6.033c0,2.27-0.896,4.437-2.5,6.042l-25.6,25.6
				c-1.596,1.596-3.763,2.5-6.033,2.5c-2.27,0-4.437-0.905-6.042-2.509l-2.492-2.5v47.676c0,4.719-3.814,8.533-8.533,8.533h-102.4
				C311.023,230.4,307.2,226.586,307.2,221.867z"/>
		</g>
	</g>
</g>
<g>
</g>
<g>
</g>
<g>
</g>
<g>
</g>
<g>
</g>
<g>
</g>
<g>
</g>
<g>
</g>
<g>
</g>
<g>
</g>
<g>
</g>
<g>
</g>
<g>
</g>
<g>
</g>
<g>
</g>
</svg>
