<?xml version="1.0" encoding="iso-8859-1"?>
<!-- Generator: Adobe Illustrator 19.0.0, SVG Export Plug-In . SVG Version: 6.00 Build 0)  -->
<svg version="1.1" id="Layer_1" xmlns="http://www.w3.org/2000/svg" xmlns:xlink="http://www.w3.org/1999/xlink" x="0px" y="0px"
	 viewBox="0 0 512 512" style="enable-background:new 0 0 512 512;" xml:space="preserve">
<g>
	<g>
		<g>
			<path d="M59.733,42.667c-9.412,0-17.067,7.654-17.067,17.067S50.321,76.8,59.733,76.8S76.8,69.146,76.8,59.733
				S69.146,42.667,59.733,42.667z"/>
			<path d="M0,0v110.933h512V0H0z M59.733,93.867c-18.825,0-34.133-15.309-34.133-34.133S40.909,25.6,59.733,25.6
				s34.133,15.309,34.133,34.133S78.558,93.867,59.733,93.867z M136.533,93.867c-18.825,0-34.133-15.309-34.133-34.133
				S117.709,25.6,136.533,25.6s34.133,15.309,34.133,34.133S155.358,93.867,136.533,93.867z M213.333,93.867
				c-18.825,0-34.133-15.309-34.133-34.133S194.509,25.6,213.333,25.6c18.825,0,34.133,15.309,34.133,34.133
				S232.158,93.867,213.333,93.867z"/>
			<path d="M249.775,190.241c1.596-1.604,3.763-2.509,6.033-2.509h0.008c0.017,0,0.026,0.009,0.043,0.009
				c0.017,0,0.026-0.009,0.034-0.009h0.009c0.051,0,0.102,0.034,0.162,0.034c0.666,0.017,1.331,0.085,1.971,0.256
				c0.29,0.068,0.555,0.213,0.845,0.307c0.145,0.051,0.282,0.085,0.418,0.145c1.084,0.41,2.108,0.947,2.927,1.766l62.046,62.217
				l13.517-13.517l-81.963-81.809l-81.63,81.792l13.534,13.534L249.775,190.241z"/>
			<path d="M213.333,42.667c-9.412,0-17.067,7.654-17.067,17.067S203.921,76.8,213.333,76.8c9.412,0,17.067-7.654,17.067-17.067
				S222.746,42.667,213.333,42.667z"/>
			<path d="M136.533,42.667c-9.412,0-17.067,7.654-17.067,17.067S127.121,76.8,136.533,76.8c9.412,0,17.067-7.654,17.067-17.067
				S145.946,42.667,136.533,42.667z"/>
			<polygon points="213.333,251 213.333,307.201 298.667,307.201 298.667,251.009 255.906,208.334 			"/>
			<path d="M0,512h512V128H0V512z M256,469.333h-59.733c-4.719,0-8.533-3.814-8.533-8.533c0-4.719,3.814-8.533,8.533-8.533H256
				c4.719,0,8.533,3.814,8.533,8.533C264.533,465.519,260.719,469.333,256,469.333z M221.867,409.6h102.4
				c4.719,0,8.533,3.814,8.533,8.533s-3.814,8.533-8.533,8.533h-102.4c-4.719,0-8.533-3.814-8.533-8.533
				S217.148,409.6,221.867,409.6z M162.133,384c-4.719,0-8.533-3.814-8.533-8.533s3.814-8.533,8.533-8.533H281.6
				c4.719,0,8.533,3.814,8.533,8.533S286.319,384,281.6,384H162.133z M341.333,469.333h-51.2c-4.719,0-8.533-3.814-8.533-8.533
				c0-4.719,3.814-8.533,8.533-8.533h51.2c4.719,0,8.533,3.814,8.533,8.533C349.867,465.519,346.052,469.333,341.333,469.333z
				 M418.133,469.333h-42.667c-4.719,0-8.533-3.814-8.533-8.533c0-4.719,3.814-8.533,8.533-8.533h42.667
				c4.719,0,8.533,3.814,8.533,8.533C426.667,465.519,422.852,469.333,418.133,469.333z M418.133,426.667H358.4
				c-4.719,0-8.533-3.814-8.533-8.533s3.814-8.533,8.533-8.533h59.733c4.719,0,8.533,3.814,8.533,8.533
				S422.852,426.667,418.133,426.667z M426.667,375.467c0,4.719-3.814,8.533-8.533,8.533h-102.4c-4.719,0-8.533-3.814-8.533-8.533
				s3.814-8.533,8.533-8.533h102.4C422.852,366.933,426.667,370.748,426.667,375.467z M156.092,232.909l93.688-93.867
				c1.596-1.613,3.763-2.509,6.033-2.509h0.009c2.253,0,4.42,0.896,6.025,2.492l94.046,93.867c1.613,1.596,2.509,3.772,2.509,6.033
				c0,2.27-0.896,4.446-2.5,6.042l-25.6,25.6c-1.596,1.604-3.763,2.5-6.033,2.5h-0.008c-2.27,0-4.437-0.896-6.033-2.509l-2.492-2.5
				v47.676c0,4.719-3.814,8.533-8.533,8.533H204.8c-4.719,0-8.533-3.814-8.533-8.533v-47.676l-2.492,2.5
				c-1.596,1.613-3.763,2.509-6.033,2.509h-0.009c-2.27,0-4.437-0.896-6.033-2.5l-25.6-25.6
				C152.764,241.63,152.764,236.245,156.092,232.909z M93.867,366.933H128c4.719,0,8.533,3.814,8.533,8.533S132.719,384,128,384
				H93.867c-4.719,0-8.533-3.814-8.533-8.533S89.148,366.933,93.867,366.933z M93.867,409.6h93.867c4.719,0,8.533,3.814,8.533,8.533
				s-3.814,8.533-8.533,8.533H93.867c-4.719,0-8.533-3.814-8.533-8.533S89.148,409.6,93.867,409.6z M93.867,452.267h68.267
				c4.719,0,8.533,3.814,8.533,8.533c0,4.719-3.814,8.533-8.533,8.533H93.867c-4.719,0-8.533-3.814-8.533-8.533
				C85.333,456.081,89.148,452.267,93.867,452.267z"/>
		</g>
	</g>
</g>
<g>
</g>
<g>
</g>
<g>
</g>
<g>
</g>
<g>
</g>
<g>
</g>
<g>
</g>
<g>
</g>
<g>
</g>
<g>
</g>
<g>
</g>
<g>
</g>
<g>
</g>
<g>
</g>
<g>
</g>
</svg>
