<?xml version="1.0" encoding="iso-8859-1"?>
<!-- Generator: Adobe Illustrator 19.0.0, SVG Export Plug-In . SVG Version: 6.00 Build 0)  -->
<svg version="1.1" id="Layer_1" xmlns="http://www.w3.org/2000/svg" xmlns:xlink="http://www.w3.org/1999/xlink" x="0px" y="0px"
	 viewBox="0 0 512 512" style="enable-background:new 0 0 512 512;" xml:space="preserve">
<g>
	<g>
		<g>
			<path d="M290.133,187.733h-256C15.309,187.733,0,203.042,0,221.867V358.4c0,18.825,15.309,34.133,34.133,34.133
				c4.702,0,8.533,3.823,8.533,8.533v51.2c0,3.285,1.877,6.263,4.838,7.689c1.178,0.572,2.441,0.845,3.695,0.845
				c1.903,0,3.789-0.631,5.325-1.869l46.268-37.018c23.697-18.944,53.444-29.38,83.772-29.38h103.569
				c18.825,0,34.133-15.309,34.133-34.133V221.867C324.267,203.042,308.958,187.733,290.133,187.733z M219.366,304.7
				c-1.664,1.664-3.849,2.5-6.033,2.5c-2.185,0-4.369-0.836-6.033-2.5l-11.034-11.034V332.8c0,4.719-3.823,8.533-8.533,8.533
				s-8.533-3.814-8.533-8.533v-56.201l-17.067-17.067l-17.067,17.067V332.8c0,4.719-3.823,8.533-8.533,8.533S128,337.519,128,332.8
				v-39.134L116.966,304.7c-3.337,3.337-8.73,3.337-12.066,0s-3.337-8.73,0-12.066l25.591-25.591l0.017-0.017l25.591-25.591
				c3.337-3.337,8.73-3.337,12.066,0l25.591,25.591l0.017,0.017l25.591,25.591C222.703,295.97,222.703,301.363,219.366,304.7z"/>
			<path d="M477.867,51.2h-256c-18.85,0-34.133,15.283-34.133,34.133v85.333h76.8v-8.533c0-4.719,3.823-8.533,8.533-8.533
				c4.71,0,8.533,3.814,8.533,8.533v8.533h8.533h8.533v-25.6c0-4.719,3.823-8.533,8.533-8.533s8.533,3.814,8.533,8.533V179.2H332.8
				v-59.733c0-4.719,3.823-8.533,8.533-8.533s8.533,3.814,8.533,8.533v93.867c0,1.963-0.666,3.772-1.775,5.214
				c-5.018,6.494-6.758,14.959-6.758,23.168v15.36c24.687,2.97,48.341,12.689,67.874,28.305l46.259,37.018
				c1.545,1.237,3.43,1.869,5.333,1.869c1.254,0,2.517-0.273,3.695-0.845c2.961-1.425,4.838-4.403,4.838-7.689V264.73
				c0-4.659,3.644-8.764,8.294-8.73C496.555,256.128,512,240.768,512,221.867V85.333C512,66.483,496.717,51.2,477.867,51.2z
				 M384,213.333c0,4.719-3.823,8.533-8.533,8.533s-8.533-3.814-8.533-8.533V93.867c0-4.719,3.823-8.533,8.533-8.533
				S384,89.148,384,93.867V213.333z M418.133,213.333c0,4.719-3.823,8.533-8.533,8.533s-8.533-3.814-8.533-8.533v-102.4
				c0-4.719,3.823-8.533,8.533-8.533s8.533,3.814,8.533,8.533V213.333z M452.267,213.333c0,4.719-3.823,8.533-8.533,8.533
				s-8.533-3.814-8.533-8.533V128c0-4.719,3.823-8.533,8.533-8.533s8.533,3.814,8.533,8.533V213.333z"/>
		</g>
	</g>
</g>
<g>
</g>
<g>
</g>
<g>
</g>
<g>
</g>
<g>
</g>
<g>
</g>
<g>
</g>
<g>
</g>
<g>
</g>
<g>
</g>
<g>
</g>
<g>
</g>
<g>
</g>
<g>
</g>
<g>
</g>
</svg>
