<?xml version="1.0" encoding="iso-8859-1"?>
<!-- Generator: Adobe Illustrator 19.0.0, SVG Export Plug-In . SVG Version: 6.00 Build 0)  -->
<svg version="1.1" id="Layer_1" xmlns="http://www.w3.org/2000/svg" xmlns:xlink="http://www.w3.org/1999/xlink" x="0px" y="0px"
	 viewBox="0 0 512 512" style="enable-background:new 0 0 512 512;" xml:space="preserve">
<g>
	<g>
		<path d="M482.192,261.845H402.39c-0.796-3.095-0.153-6.026,1.965-9.857l18.471-33.39c1.041-1.881,1.242-4.113,0.554-6.15
			c-0.687-2.037-2.2-3.69-4.168-4.555l-34.932-15.359c-5.261-2.314-8.73-7.521-8.834-13.268l-0.699-38.152
			c-0.04-2.149-0.981-4.182-2.596-5.603c-1.613-1.42-3.748-2.099-5.887-1.86l-37.931,4.164c-5.717,0.625-11.321-2.15-14.285-7.074
			L294.369,98.05c-1.109-1.842-2.941-3.132-5.048-3.554c-2.109-0.422-4.297,0.061-6.029,1.333l-30.767,22.572
			c-4.634,3.399-10.878,3.799-15.909,1.017l-33.39-18.471c-1.883-1.041-4.113-1.241-6.15-0.554s-3.69,2.201-4.555,4.168
			l-15.36,34.932c-2.313,5.261-7.52,8.729-13.268,8.835l-38.152,0.699c-2.149,0.04-4.182,0.981-5.602,2.594
			c-1.42,1.613-2.096,3.751-1.86,5.888l4.165,37.93c0.627,5.714-2.149,11.321-7.075,14.286l-32.691,19.681
			c-1.834,1.104-3.122,2.925-3.549,5.022c-0.428,2.097,0.042,4.277,1.296,6.012l15.472,21.407H29.809
			C13.372,261.845,0,275.218,0,291.654c0,16.437,13.372,29.809,29.809,29.809h99.201c10.083,0,18.286,8.203,18.286,18.286
			c0,10.083-8.203,18.286-18.286,18.286h-48.45c-16.437,0-29.809,13.372-29.809,29.809s13.372,29.809,29.809,29.809h350.88
			c16.436,0,29.809-13.372,29.809-29.809s-13.372-29.809-29.809-29.809l-58.194,0.002c-10.083,0-18.287-8.204-18.287-18.288
			c0-10.083,8.204-18.287,18.287-18.287h108.945c16.436,0,29.809-13.372,29.809-29.809C512,275.217,498.628,261.845,482.192,261.845
			z M123.261,222.83c10.018-6.031,15.666-17.438,14.39-29.062l-3.251-29.601l29.775-0.546c11.692-0.214,22.287-7.268,26.991-17.973
			l11.986-27.26l26.058,14.416c10.231,5.658,22.934,4.847,32.363-2.069l24.011-17.615l15.359,25.513
			c6.031,10.018,17.444,15.672,29.062,14.389l29.601-3.25l0.545,29.774c0.214,11.69,7.269,22.287,17.973,26.992l27.26,11.986
			l-14.416,26.058c-3.321,6.003-4.675,11.663-4.1,17.262h-14.282c-3.994-61.833-55.56-110.918-118.385-110.918
			S139.81,200.012,135.814,261.845h-21.04L97.698,238.22L123.261,222.83z M254.202,187.673c-42.552,0-77.615,32.625-81.524,74.172
			h-21.535c3.965-53.391,48.673-95.62,103.059-95.62s99.094,42.229,103.059,95.62H188.062c3.844-33.095,32.029-58.875,66.139-58.875
			c4.225,0,7.649-3.425,7.649-7.649S258.426,187.673,254.202,187.673z M482.192,306.166H373.246
			c-18.518,0-33.584,15.066-33.584,33.584c0,18.519,15.065,33.586,33.584,33.586l58.194-0.002c8.002,0,14.511,6.51,14.511,14.511
			s-6.51,14.511-14.511,14.511H80.561c-8.002,0-14.511-6.51-14.511-14.511s6.511-14.511,14.511-14.511h48.449
			c18.517,0,33.583-15.065,33.583-33.583c0-18.518-15.065-33.583-33.583-33.583h-99.2c-8.002,0-14.511-6.51-14.511-14.511
			s6.51-14.511,14.511-14.511h80.061c0.704,0.098,1.421,0.1,2.13,0h30.163c0.342,0.047,0.687,0.08,1.042,0.08
			s0.701-0.033,1.042-0.08h34.661c0.342,0.047,0.687,0.08,1.042,0.08c0.355,0,0.701-0.033,1.042-0.08h183.162
			c0.342,0.047,0.687,0.08,1.042,0.08c0.355,0,0.701-0.033,1.042-0.08h30.122c0.355,0.05,0.712,0.081,1.073,0.081
			c0.355,0,0.711-0.031,1.067-0.081h83.69c8.002,0,14.511,6.51,14.511,14.511S490.193,306.166,482.192,306.166z"/>
	</g>
</g>
<g>
	<g>
		<path d="M303.472,302.639H191.165c-4.225,0-7.649,3.425-7.649,7.649s3.425,7.649,7.649,7.649h112.307
			c4.225,0,7.649-3.425,7.649-7.649S307.698,302.639,303.472,302.639z"/>
	</g>
</g>
<g>
	<g>
		<path d="M281.442,332.1h-60.124c-4.225,0-7.649,3.425-7.649,7.649c0,4.224,3.424,7.649,7.649,7.649h60.124
			c4.225,0,7.649-3.425,7.649-7.649C289.09,335.525,285.667,332.1,281.442,332.1z"/>
	</g>
</g>
<g>
	<g>
		<path d="M308.618,360.77H187.014c-4.225,0-7.649,3.425-7.649,7.649s3.424,7.649,7.649,7.649h121.604
			c4.225,0,7.649-3.425,7.649-7.649S312.844,360.77,308.618,360.77z"/>
	</g>
</g>
<g>
</g>
<g>
</g>
<g>
</g>
<g>
</g>
<g>
</g>
<g>
</g>
<g>
</g>
<g>
</g>
<g>
</g>
<g>
</g>
<g>
</g>
<g>
</g>
<g>
</g>
<g>
</g>
<g>
</g>
</svg>
