<?xml version="1.0" encoding="iso-8859-1"?>
<!-- Generator: Adobe Illustrator 19.0.0, SVG Export Plug-In . SVG Version: 6.00 Build 0)  -->
<svg version="1.1" id="Layer_1" xmlns="http://www.w3.org/2000/svg" xmlns:xlink="http://www.w3.org/1999/xlink" x="0px" y="0px"
	 viewBox="0 0 512.002 512.002" style="enable-background:new 0 0 512.002 512.002;" xml:space="preserve">
<g>
	<g>
		<path d="M441.151,231.735c12.525-28.323,16.767-58.392,11.943-84.668c-5.02-27.339-19.196-47.443-39.919-56.608
			c-9.925-4.388-20.696-5.97-31.818-4.823c-8.405-14.893-19.954-26.99-32.868-34.318c-8.833-5.013-17.83-7.537-26.41-7.56
			c1.281-3.491,1.981-7.26,1.981-11.19C324.06,14.611,309.449,0,291.49,0c-17.96,0-32.569,14.611-32.569,32.57
			c0,16.126,11.784,29.546,27.193,32.117c-3.392,5.745-5.825,12.496-7.148,20.091c-2.937,16.871-0.062,36.073,8.097,54.071
			c2.36,5.207,5.111,10.18,8.194,14.842c-1.921,3.615-3.737,7.322-5.419,11.126c-12.064,27.276-16.241,53.766-12.475,78.81
			c-4.999,3-9.811,6.624-14.389,10.841c-15.556-18.208-37.662-33.122-63.199-42.457c-29.088-10.632-59.369-12.884-85.271-6.34
			c-26.949,6.81-46.075,22.281-53.854,43.562s-3.14,45.439,13.064,68.024c15.573,21.706,40.169,39.516,69.257,50.149
			c18.352,6.709,36.144,10.07,53.191,10.07c8.058,0,15.946-0.761,23.65-2.265c1.994,40.908,20.676,109.009,37.176,133.442
			c1.414,2.094,3.776,3.349,6.301,3.349h103.859c2.62,0,5.056-1.349,6.446-3.571c15.021-24.01,35.148-97.638,35.148-140.038
			c0-27.149-5.545-53.104-15.828-75.15C412.846,278.91,429.829,257.335,441.151,231.735z M274.128,32.57
			c0-9.573,7.789-17.362,17.362-17.362c9.574,0,17.362,7.789,17.362,17.362s-7.788,17.361-17.362,17.361
			C281.917,49.932,274.128,42.143,274.128,32.57z M293.948,87.387c2.234-12.826,8.397-22.128,17.357-26.189
			c16.77-7.602,39.545,4.464,54.362,27.81c-7.069,2.292-14.184,5.627-21.228,10.008c-15.309,9.522-29.107,23.273-40.318,39.906
			c-1.136-2.069-2.222-4.176-3.208-6.351C294.003,117.326,291.529,101.28,293.948,87.387z M148.191,353.122
			c-26.248-9.595-48.31-25.481-62.121-44.731c-13.18-18.371-17.136-37.526-11.137-53.936s21.375-28.499,43.297-34.038
			c22.97-5.802,50.076-3.717,76.323,5.878c23.734,8.677,44.069,22.542,57.96,39.37c-2.1,2.587-4.135,5.311-6.092,8.184
			c-15.852,23.272-25.145,53.471-26.57,85.802C197.783,364.621,173.696,362.444,148.191,353.122z M393.534,368.39
			c0.002,36.486-17.411,103.27-30.781,128.403h-95.244c-14.304-24.719-32.667-90.441-32.667-128.401
			c0-39.306,12.551-74.26,31.907-96.172c0.046-0.032,0.094-0.059,0.14-0.091c0.889-0.648,1.592-1.456,2.107-2.351
			c12.833-13.503,28.411-21.432,45.192-21.432c24.962,0,47.264,17.535,61.82,44.885c0.186,0.52,0.425,1.029,0.732,1.515
			c0.064,0.102,0.141,0.191,0.21,0.288C387.34,315.332,393.534,340.786,393.534,368.39z M385.691,279.695
			c-1.206-1.988-2.441-3.948-3.734-5.847c-17.883-26.253-41.95-40.711-67.768-40.711c-7.648,0-15.139,1.279-22.364,3.746
			c-2.209-20.851,1.777-42.982,11.92-65.915c2.101-4.75,4.41-9.34,6.905-13.748c0.065-0.105,0.125-0.214,0.185-0.322
			c10.908-19.163,25.349-34.838,41.636-44.969c19.201-11.941,38.574-14.627,54.553-7.559c15.979,7.068,27.029,23.207,31.112,45.445
			c4.279,23.302,0.409,50.211-10.895,75.77C417.321,248.017,402.732,266.94,385.691,279.695z"/>
	</g>
</g>
<g>
	<g>
		<path d="M273.476,303.117c-4.199,0-7.604,3.404-7.604,7.604v22.697c0,4.2,3.405,7.604,7.604,7.604s7.604-3.404,7.604-7.604
			v-22.697C281.08,306.521,277.676,303.117,273.476,303.117z"/>
	</g>
</g>
<g>
	<g>
		<path d="M349.887,303.117c-4.199,0-7.604,3.404-7.604,7.604v22.697c0,4.2,3.405,7.604,7.604,7.604
			c4.199,0,7.604-3.404,7.604-7.604v-22.697C357.491,306.521,354.086,303.117,349.887,303.117z"/>
	</g>
</g>
<g>
	<g>
		<path d="M273.476,393.146c-4.199,0-7.604,3.404-7.604,7.604v22.696c0,4.2,3.405,7.604,7.604,7.604s7.604-3.404,7.604-7.604V400.75
			C281.08,396.55,277.676,393.146,273.476,393.146z"/>
	</g>
</g>
<g>
	<g>
		<path d="M349.887,393.146c-4.199,0-7.604,3.404-7.604,7.604v22.696c0,4.2,3.405,7.604,7.604,7.604
			c4.199,0,7.604-3.404,7.604-7.604V400.75C357.491,396.55,354.086,393.146,349.887,393.146z"/>
	</g>
</g>
<g>
	<g>
		<path d="M310.547,348.132c-4.199,0-7.604,3.404-7.604,7.604v22.696c0,4.2,3.405,7.604,7.604,7.604
			c4.199,0,7.604-3.404,7.604-7.604v-22.696C318.151,351.535,314.746,348.132,310.547,348.132z"/>
	</g>
</g>
<g>
	<g>
		<path d="M187.609,298.981c-4.199,0-7.604,3.404-7.604,7.604v22.696c0,4.2,3.405,7.604,7.604,7.604s7.604-3.404,7.604-7.604
			v-22.696C195.213,302.384,191.809,298.981,187.609,298.981z"/>
	</g>
</g>
<g>
	<g>
		<path d="M138.813,266.58c-4.199,0-7.604,3.404-7.604,7.604v22.696c0,4.2,3.405,7.604,7.604,7.604s7.604-3.404,7.604-7.604v-22.696
			C146.417,269.983,143.013,266.58,138.813,266.58z"/>
	</g>
</g>
<g>
	<g>
		<path d="M338.539,152.566c-4.199,0-7.604,3.404-7.604,7.604v22.696c0,4.2,3.405,7.604,7.604,7.604
			c4.199,0,7.604-3.404,7.604-7.604V160.17C346.143,155.97,342.738,152.566,338.539,152.566z"/>
	</g>
</g>
<g>
	<g>
		<path d="M320.381,76.534c-4.199,0-7.604,3.404-7.604,7.604v22.696c0,4.2,3.405,7.604,7.604,7.604s7.604-3.404,7.604-7.604V84.138
			C327.985,79.938,324.581,76.534,320.381,76.534z"/>
	</g>
</g>
<g>
	<g>
		<path d="M410.409,152.566c-4.199,0-7.604,3.404-7.604,7.604v22.696c0,4.2,3.405,7.604,7.604,7.604
			c4.199,0,7.604-3.404,7.604-7.604V160.17C418.013,155.97,414.609,152.566,410.409,152.566z"/>
	</g>
</g>
<g>
	<g>
		<path d="M372.582,197.958c-4.199,0-7.604,3.404-7.604,7.604v22.696c0,4.2,3.405,7.604,7.604,7.604s7.604-3.404,7.604-7.604
			v-22.696C380.186,201.362,376.782,197.958,372.582,197.958z"/>
	</g>
</g>
<g>
	<g>
		<path d="M310.547,442.699c-4.199,0-7.604,3.404-7.604,7.604V473c0,4.2,3.405,7.604,7.604,7.604c4.199,0,7.604-3.404,7.604-7.604
			v-22.697C318.151,446.102,314.746,442.699,310.547,442.699z"/>
	</g>
</g>
<g>
</g>
<g>
</g>
<g>
</g>
<g>
</g>
<g>
</g>
<g>
</g>
<g>
</g>
<g>
</g>
<g>
</g>
<g>
</g>
<g>
</g>
<g>
</g>
<g>
</g>
<g>
</g>
<g>
</g>
</svg>
