<?xml version="1.0" encoding="iso-8859-1"?>
<!-- Generator: Adobe Illustrator 19.0.0, SVG Export Plug-In . SVG Version: 6.00 Build 0)  -->
<svg version="1.1" id="Layer_1" xmlns="http://www.w3.org/2000/svg" xmlns:xlink="http://www.w3.org/1999/xlink" x="0px" y="0px"
	 viewBox="0 0 512 512" style="enable-background:new 0 0 512 512;" xml:space="preserve">
<path style="fill:#79615B;" d="M358.4,307.2c-21.171,0-38.4-17.229-38.4-38.4v-25.6c0-21.171,17.229-38.4,38.4-38.4h140.8v102.4
	H358.4z"/>
<path style="fill:#9A8984;" d="M51.2,435.2c-21.171,0-38.4-17.229-38.4-38.4V115.2c0-21.171,17.229-38.4,38.4-38.4h409.6
	c21.171,0,38.4,17.229,38.4,38.4v89.6H358.4c-21.171,0-38.4,17.229-38.4,38.4v25.6c0,21.171,17.229,38.4,38.4,38.4h140.8v89.6
	c0,21.171-17.229,38.4-38.4,38.4H51.2z"/>
<g>
	<path style="fill:#573A32;" d="M460.8,64H51.2C22.921,64,0,86.921,0,115.2v281.6C0,425.079,22.921,448,51.2,448h409.6
		c28.279,0,51.2-22.921,51.2-51.2V115.2C512,86.921,489.079,64,460.8,64z M486.4,294.4h-128c-14.114,0-25.6-11.486-25.6-25.6v-25.6
		c0-14.114,11.486-25.6,25.6-25.6h128V294.4z M486.4,192h-128c-28.279,0-51.2,22.921-51.2,51.2v25.6c0,28.279,22.921,51.2,51.2,51.2
		h128v76.8c0,14.114-11.486,25.6-25.6,25.6H51.2c-14.114,0-25.6-11.486-25.6-25.6V115.2c0-14.114,11.486-25.6,25.6-25.6h409.6
		c14.114,0,25.6,11.486,25.6,25.6V192z"/>
	<circle style="fill:#573A32;" cx="371.2" cy="256" r="12.8"/>
</g>
<g>
</g>
<g>
</g>
<g>
</g>
<g>
</g>
<g>
</g>
<g>
</g>
<g>
</g>
<g>
</g>
<g>
</g>
<g>
</g>
<g>
</g>
<g>
</g>
<g>
</g>
<g>
</g>
<g>
</g>
</svg>
