<?xml version="1.0" encoding="iso-8859-1"?>
<!-- Generator: Adobe Illustrator 19.0.0, SVG Export Plug-In . SVG Version: 6.00 Build 0)  -->
<svg version="1.1" id="Layer_1" xmlns="http://www.w3.org/2000/svg" xmlns:xlink="http://www.w3.org/1999/xlink" x="0px" y="0px"
	 viewBox="0 0 512.001 512.001" style="enable-background:new 0 0 512.001 512.001;" xml:space="preserve">
<g>
	<g>
		<rect x="116.771" y="302.848" width="69.617" height="185.645"/>
	</g>
</g>
<g>
	<g>
		<rect x="325.622" y="302.848" width="69.617" height="185.645"/>
	</g>
</g>
<g>
	<g>
		<rect x="232.799" y="152.011" width="46.411" height="46.411"/>
	</g>
</g>
<g>
	<g>
		<path d="M470.723,181.371l-0.543,0.202c-21.4,7.965-65.868,18.102-156.186,21.151l-0.56,0.02v29.912H198.566v-29.912l-0.56-0.02
			c-90.318-3.05-134.785-13.185-156.186-21.151l-0.543-0.202L28.729,215.08l0.544,0.203c7.183,2.674,15.469,5.18,24.634,7.451
			v45.891h404.187v-45.891c9.166-2.272,17.452-4.777,24.634-7.451l0.544-0.203L470.723,181.371z"/>
	</g>
</g>
<g>
	<g>
		<path d="M511.069,23.837C478.63,35.309,379.916,70.216,256.001,70.216S33.371,35.309,0.932,23.837L0,23.508l16.034,93.797
			l0.057,0.338l0.321,0.113c34.087,12.053,98.566,20.018,181.556,22.427l0.598,0.017v-22.411h114.868V140.2l0.598-0.017
			c82.99-2.409,147.47-10.374,181.556-22.427l0.321-0.113l16.092-94.135L511.069,23.837z"/>
	</g>
</g>
<g>
	<g>
		<rect x="389.437" y="152.011" width="34.808" height="23.206"/>
	</g>
</g>
<g>
	<g>
		<rect x="87.764" y="152.011" width="34.808" height="23.206"/>
	</g>
</g>
<g>
</g>
<g>
</g>
<g>
</g>
<g>
</g>
<g>
</g>
<g>
</g>
<g>
</g>
<g>
</g>
<g>
</g>
<g>
</g>
<g>
</g>
<g>
</g>
<g>
</g>
<g>
</g>
<g>
</g>
</svg>
