<?xml version="1.0" encoding="iso-8859-1"?>
<!-- Generator: Adobe Illustrator 19.0.0, SVG Export Plug-In . SVG Version: 6.00 Build 0)  -->
<svg version="1.1" id="Layer_1" xmlns="http://www.w3.org/2000/svg" xmlns:xlink="http://www.w3.org/1999/xlink" x="0px" y="0px"
	 viewBox="0 0 512 512" style="enable-background:new 0 0 512 512;" xml:space="preserve">
<g>
	<g>
		<polygon points="142.514,73.435 142.514,87.004 117.843,43.83 93.172,87.004 93.172,73.435 63.567,73.435 63.567,112.909 
			172.119,112.909 172.119,73.435 		"/>
	</g>
</g>
<g>
	<g>
		<polygon points="418.828,73.435 418.828,87.004 394.157,43.83 369.486,87.004 369.486,73.435 339.881,73.435 339.881,112.909 
			448.433,112.909 448.433,73.435 		"/>
	</g>
</g>
<g>
	<g>
		<rect x="186.917" y="152.377" width="29.605" height="49.342"/>
	</g>
</g>
<g>
	<g>
		<rect x="295.478" y="152.377" width="29.605" height="49.342"/>
	</g>
</g>
<g>
	<g>
		<rect x="236.258" y="132.641" width="39.473" height="69.079"/>
	</g>
</g>
<g>
	<g>
		<rect x="78.375" y="231.324" width="78.947" height="98.684"/>
	</g>
</g>
<g>
	<g>
		<rect x="354.688" y="231.324" width="78.947" height="98.684"/>
	</g>
</g>
<g>
	<g>
		<path d="M448.909,142.514h-94.225v59.21h78.76l40.237,157.894H38.319l40.237-157.894h78.76v-59.21H63.091L0,389.223h78.37v78.947
			h78.947v-78.947h29.605v40.726c13.464-24.282,39.346-40.726,69.078-40.726s55.614,16.444,69.078,40.726v-40.726h29.605v78.947
			h78.947v-78.947H512L448.909,142.514z"/>
	</g>
</g>
<g>
</g>
<g>
</g>
<g>
</g>
<g>
</g>
<g>
</g>
<g>
</g>
<g>
</g>
<g>
</g>
<g>
</g>
<g>
</g>
<g>
</g>
<g>
</g>
<g>
</g>
<g>
</g>
<g>
</g>
</svg>
