<?xml version="1.0" encoding="iso-8859-1"?>
<!-- Generator: Adobe Illustrator 19.0.0, SVG Export Plug-In . SVG Version: 6.00 Build 0)  -->
<svg version="1.1" id="Layer_1" xmlns="http://www.w3.org/2000/svg" xmlns:xlink="http://www.w3.org/1999/xlink" x="0px" y="0px"
	 viewBox="0 0 512 512" style="enable-background:new 0 0 512 512;" xml:space="preserve">
<g>
	<g>
		<polygon points="210.551,32.374 95.923,147.002 74.34,125.42 178.177,21.582 156.595,0 31.175,125.42 68.023,162.268 
			87.161,181.406 55.986,212.581 77.568,234.163 108.744,202.988 110.774,205.018 121.564,215.809 257.776,79.597 		"/>
	</g>
</g>
<g>
	<g>
		<polygon points="443.976,349.732 424.838,330.594 456.014,299.418 434.431,277.836 403.256,309.012 401.226,306.982 
			390.435,296.191 254.224,432.402 301.448,479.626 416.076,364.997 437.66,386.58 333.822,490.417 355.404,512 480.824,386.58 		
			"/>
	</g>
</g>
<g>
	<g>
		<polygon points="105.71,340.61 95.335,330.233 73.752,308.651 34.369,348.035 11.753,424.19 87.909,401.575 127.292,362.192 		"/>
	</g>
</g>
<g>
	<g>
		<path d="M412.338,23.605c-14.76-14.761-38.779-14.761-53.541,0L95.335,287.069l53.541,53.541L412.338,77.145
			C427.1,62.384,427.099,38.366,412.338,23.605z"/>
	</g>
</g>
<g>
	<g>
		<polygon points="424.09,110.425 384.707,149.808 406.289,171.39 416.665,181.766 438.248,203.349 477.631,163.965 500.247,87.809 
					"/>
	</g>
</g>
<g>
	<g>
		<path d="M363.125,171.39L99.662,434.854c-14.761,14.761-14.76,38.779,0,53.541c14.761,14.761,38.779,14.761,53.541,0
			l263.463-263.463L363.125,171.39z"/>
	</g>
</g>
<g>
</g>
<g>
</g>
<g>
</g>
<g>
</g>
<g>
</g>
<g>
</g>
<g>
</g>
<g>
</g>
<g>
</g>
<g>
</g>
<g>
</g>
<g>
</g>
<g>
</g>
<g>
</g>
<g>
</g>
</svg>
