<?xml version="1.0" encoding="iso-8859-1"?>
<!-- Generator: Adobe Illustrator 17.1.0, SVG Export Plug-In . SVG Version: 6.00 Build 0)  -->
<!DOCTYPE svg PUBLIC "-//W3C//DTD SVG 1.1//EN" "http://www.w3.org/Graphics/SVG/1.1/DTD/svg11.dtd">
<svg version="1.1" id="Capa_1" xmlns="http://www.w3.org/2000/svg" xmlns:xlink="http://www.w3.org/1999/xlink" x="0px" y="0px"
	 viewBox="0 0 374.224 374.224" style="enable-background:new 0 0 374.224 374.224;" xml:space="preserve">
<path d="M371.929,4.696c-2.021-1.961-5.47-1.961-7.383-1.961c-10.673,0-37.14,3.931-45.573,5.362
	c-1.977,0.336-4.625,0.577-7.691,0.856c-13.793,1.257-36.879,3.361-52.227,19.979c-9.896,10.715-29.74,32.494-38.134,41.714
	c-2.029-2.413-4.716-5.524-7.612-8.661c-11.78-12.756-16.438-14.514-19.716-14.514c-1.837,0-3.538,0.689-4.79,1.942
	c-36.154,36.153-55.989,75.311-66.262,101.793c-5.471,14.103-8.878,26.107-10.942,34.782l-9.16-18.576l-4.919,4.571
	c-11.198,10.407-11.439,16.34-10.917,28.765c0.189,4.521-0.133,16.226-0.475,28.617c-0.341,12.346-0.727,26.338-0.732,37.17
	c-0.003,5.005,0.075,8.928,0.235,11.946l-5.99,5.99c0.541-3.825,0.476-8.871-0.205-12.348l-4.831-24.678
	c-1.045-5.335-3.824-6.455-5.973-6.455c-2.242,0-5.088,1.168-5.91,6.731l-3.783,25.609c-0.566,3.841-0.351,9.817,0.491,13.607
	l3.227,14.519l-9.637,9.639c0.541-3.823,0.477-8.871-0.204-12.353l-4.831-24.678c-1.044-5.335-3.824-6.455-5.973-6.455
	c-2.242,0-5.088,1.168-5.91,6.732l-3.783,25.607c-0.567,3.842-0.352,9.819,0.491,13.608l3.228,14.522L1.958,362.167
	c-2.532,2.536-2.064,4.957-1.56,6.175c0.793,1.912,2.659,3.147,4.754,3.147c1.227,0,2.246-0.424,2.909-0.744l27.547-13.334
	c1.484-0.718,3.41-2.088,4.577-3.259l12.387-12.421l10.81,2.403c2.317,0.516,5.446,0.812,8.583,0.812
	c1.872,0,3.609-0.111,5.025-0.32l25.608-3.783c5.471-0.809,6.68-3.594,6.73-5.788c0.052-2.194-1.026-5.032-6.452-6.095l-24.68-4.831
	c-1.857-0.363-4.27-0.563-6.791-0.563c-0.248,0-0.487,0.011-0.732,0.015l8.459-8.482l10.87,2.417
	c2.318,0.516,5.447,0.811,8.585,0.811c1.87,0,3.606-0.11,5.023-0.319l25.608-3.783c5.47-0.809,6.679-3.594,6.73-5.788
	c0.051-2.193-1.027-5.032-6.453-6.095l-24.68-4.832c-1.856-0.363-4.267-0.563-6.786-0.563c-0.274,0-0.539,0.012-0.81,0.016
	l5.475-5.49c2.158,0.052,4.622,0.078,7.439,0.078c10.869,0,24.985-0.389,37.438-0.732c9.905-0.273,19.262-0.531,24.941-0.531
	c1.546,0,2.783,0.02,3.68,0.057c2.127,0.09,4.031,0.164,5.807,0.164c0,0,0,0,0.001,0c9.7,0,15.065-2.59,22.957-11.081l4.571-4.919
	l-18.917-9.328c8.888-2.223,21.37-5.877,36.008-11.645c26.737-10.534,65.947-30.431,100.908-65.392
	c1.358-1.358,2.044-3.214,1.93-5.225c-0.37-6.535-11.92-17.629-23.133-26.92c9.235-8.408,30.98-28.221,41.685-38.107
	c16.617-15.348,18.722-38.434,19.979-52.227c0.279-3.066,0.521-5.715,0.856-7.691c1.143-6.733,2.914-18.744,4.103-29.204
	c0.673-5.921,1.08-10.663,1.212-14.096C374.292,11.259,374.461,6.842,371.929,4.696z"/>
<g>
</g>
<g>
</g>
<g>
</g>
<g>
</g>
<g>
</g>
<g>
</g>
<g>
</g>
<g>
</g>
<g>
</g>
<g>
</g>
<g>
</g>
<g>
</g>
<g>
</g>
<g>
</g>
<g>
</g>
</svg>
