<?xml version="1.0" encoding="iso-8859-1"?>
<!-- Generator: Adobe Illustrator 19.0.0, SVG Export Plug-In . SVG Version: 6.00 Build 0)  -->
<svg version="1.1" id="Capa_1" xmlns="http://www.w3.org/2000/svg" xmlns:xlink="http://www.w3.org/1999/xlink" x="0px" y="0px"
	 viewBox="0 0 490 490" style="enable-background:new 0 0 490 490;" xml:space="preserve">
<g>
	<g>
		<path d="M490,245.55c0-34.3-16.6-65.5-44.7-83.2c6.2-32.3-3.1-66.6-27-90.5c-24.9-22.6-54.2-34.1-90.5-27
			c-18.8-27.1-49-44.8-83.3-44.8s-65.5,16.6-83.2,44.7c-36.5-7.8-65.7,3.8-90.5,27c-23.9,25-33.3,58.3-26,90.5
			c-27.1,18.8-44.8,49-44.8,83.3s16.6,65.5,44.7,83.2c-7.3,32.3,2.1,65.5,26,89.5c25.8,24.1,55.7,34.3,90.5,27
			c18.7,27,48.9,44.7,83.2,44.7s64.5-16.6,83.2-43.7c35.6,6.9,65.7-2.3,90.5-27c23.9-23.9,34.3-58.3,27-90.5
			C472.3,310.05,490,279.95,490,245.55z M414.1,298.65c-11.8,4.9-15.2,17.9-11.4,27c9.4,21.8,4.2,46.8-12.5,63.5
			c-16.6,16.6-41.6,21.8-63.5,12.5c-12.8-4-21.2,1.2-27,11.4c-9.4,21.8-30.2,36.4-54.1,36.4s-44.7-14.6-54.1-36.4
			c-4.7-10.7-13.6-14.8-27-11.4c-20.8,9.4-46.8,4.2-63.5-12.5c-16.6-16.6-21.8-41.6-12.5-63.5c3.6-10.9,0.8-20.2-11.4-27
			c-21.8-9.4-36.4-30.2-36.4-54.1s14.6-44.7,36.4-54.1c10.8-5.5,15.6-14,11.4-27c-9.4-21.8-4.2-46.8,12.5-63.5
			c16.6-16.6,41.6-21.8,63.5-12.5c11.8,3.3,21.4,1,27-11.4c9.4-21.8,30.2-36.4,54.1-36.4s44.7,14.6,54.1,36.4
			c6.3,11.5,15.5,15,27,11.4c20.8-9.4,46.8-4.2,63.5,12.5c16.6,16.6,21.8,41.6,12.5,63.5c-4,11.7-0.1,20.7,11.4,27
			c21.8,9.4,36.4,30.2,36.4,54.1S435.9,289.25,414.1,298.65z"/>
		<path d="M244.5,169.65c-35.4,0-64.5,29.1-64.5,64.5c0,28.1,18.4,52.2,43.7,61v67c0,11.4,9.4,20.8,20.8,20.8
			c11.4,0,20.8-8.3,20.8-20.8v-67c25.3-8.7,43.7-32.9,43.7-61C309,198.75,279.9,169.65,244.5,169.65z M244.5,258.05
			c-13.5,0-23.9-10.4-23.9-23.9s10.4-23.9,23.9-23.9s23.9,10.4,23.9,23.9S258,258.05,244.5,258.05z"/>
	</g>
</g>
<g>
</g>
<g>
</g>
<g>
</g>
<g>
</g>
<g>
</g>
<g>
</g>
<g>
</g>
<g>
</g>
<g>
</g>
<g>
</g>
<g>
</g>
<g>
</g>
<g>
</g>
<g>
</g>
<g>
</g>
</svg>
