<?xml version="1.0" encoding="iso-8859-1"?>
<!-- Generator: Adobe Illustrator 19.0.0, SVG Export Plug-In . SVG Version: 6.00 Build 0)  -->
<svg version="1.1" id="Layer_1" xmlns="http://www.w3.org/2000/svg" xmlns:xlink="http://www.w3.org/1999/xlink" x="0px" y="0px"
	 viewBox="0 0 512.002 512.002" style="enable-background:new 0 0 512.002 512.002;" xml:space="preserve">
<g>
	<polygon style="fill:#CCCCCC;" points="61.969,404.8 61.969,445.58 9.604,442.124 9.604,408.256 	"/>
	<rect x="354.688" y="401.025" style="fill:#CCCCCC;" width="104.576" height="68.48"/>
	<polygon style="fill:#CCCCCC;" points="298.781,100.569 298.781,163.353 179.639,163.353 179.639,100.569 261.559,100.569 	"/>
</g>
<polygon style="fill:#999999;" points="227.302,100.569 227.302,163.353 179.639,163.353 179.639,100.569 212.412,100.569 "/>
<path style="fill:#F95428;" d="M296.938,380.876h28.211h29.542v20.147v68.48H84.573c-12.48,0-22.605-10.125-22.605-22.605v-1.318
	v-40.781v-1.318c0-12.48,10.125-22.605,22.605-22.605h68.698L296.938,380.876L296.938,380.876z"/>
<path style="fill:#D33924;" d="M115.729,446.899v-1.318V404.8v-1.318c0-12.48,10.125-22.605,22.605-22.605h-53.76
	c-12.48,0-22.605,10.125-22.605,22.605v1.318v40.781v1.318c0,12.48,10.125,22.605,22.605,22.605h53.76
	C125.855,469.504,115.729,459.379,115.729,446.899z"/>
<path style="fill:#F7B239;" d="M502.404,42.496l-43.136,358.528H354.692v-20.147h-29.542V189.721
	c0-14.566-11.802-26.368-26.368-26.368v-62.784h-37.222v-0.013l-7.334-58.061L502.404,42.496L502.404,42.496z"/>
<path style="fill:#E09B2D;" d="M354.692,401.024v-20.147h-29.542V189.721c0-14.566-11.802-26.368-26.368-26.368v-62.784h-37.222
	v-0.013l-7.334-58.061h98.534l18.56,358.528L354.692,401.024L354.692,401.024z"/>
<path style="fill:#2BA5F7;" d="M325.149,189.721v191.155h-28.211H153.271V189.721c0-14.566,11.802-26.355,26.368-26.368h119.142
	C313.348,163.353,325.149,175.155,325.149,189.721z"/>
<path style="fill:#2197D8;" d="M233.396,163.353h-53.757c-14.566,0.013-26.368,11.802-26.368,26.368v191.155h53.757V189.721
	C207.028,175.155,218.83,163.366,233.396,163.353z"/>
<g>
	<path style="fill:#FFFFFF;" d="M431.295,375.345c-0.384,0-0.771-0.023-1.158-0.07c-5.265-0.634-9.019-5.413-8.385-10.678
		l31.059-258.149c0.634-5.265,5.439-9.012,10.678-8.384c5.265,0.634,9.019,5.413,8.385,10.678l-31.059,258.149
		C440.227,371.767,436.083,375.345,431.295,375.345z"/>
	<path style="fill:#FFFFFF;" d="M295.158,361.468c-5.303,0-9.6-4.298-9.6-9.6V234.753c0-5.302,4.297-9.6,9.6-9.6s9.6,4.298,9.6,9.6
		v117.115C304.758,357.169,300.461,361.468,295.158,361.468z"/>
	<path style="fill:#FFFFFF;" d="M325.876,453.623c-5.303,0-9.6-4.298-9.6-9.6v-36.479c0-5.302,4.297-9.6,9.6-9.6
		c5.303,0,9.6,4.298,9.6,9.6v36.479C335.476,449.324,331.18,453.623,325.876,453.623z"/>
	<path style="fill:#FFFFFF;" d="M429.551,451.703c-5.303,0-9.6-4.298-9.6-9.6v-10.88c0-5.302,4.297-9.6,9.6-9.6s9.6,4.298,9.6,9.6
		v10.88C439.151,447.404,434.854,451.703,429.551,451.703z"/>
	<path style="fill:#FFFFFF;" d="M272.119,147.718c-5.303,0-9.6-4.298-9.6-9.6v-12.799c0-5.302,4.297-9.6,9.6-9.6
		c5.303,0,9.6,4.298,9.6,9.6v12.799C281.719,143.42,277.422,147.718,272.119,147.718z"/>
	<circle style="fill:#FFFFFF;" cx="295.155" cy="204.033" r="9.6"/>
	<circle style="fill:#FFFFFF;" cx="466.317" cy="74.497" r="9.6"/>
</g>
<path style="fill:#333333;" d="M509.583,36.129c-1.823-2.054-4.436-3.229-7.182-3.229H254.228c-2.756,0-5.379,1.184-7.2,3.251
	c-1.823,2.067-2.669,4.818-2.323,7.551l5.967,47.261h-71.026c-5.302,0-9.6,4.298-9.6,9.6v54.499
	c-15.186,4.214-26.368,18.152-26.368,34.66v181.558H84.571c-15.091,0-27.786,10.438-31.258,24.472l-44.344,2.922
	C3.923,399.006,0,403.197,0,408.253v33.875c0,5.057,3.923,9.247,8.969,9.58l44.344,2.921c3.471,14.034,16.166,24.474,31.259,24.474
	h374.7c5.303,0,9.6-4.298,9.6-9.6v-67.907l43.062-357.951C512.26,40.92,511.405,38.183,509.583,36.129z M189.245,110.164h99.94
	v43.585h-99.94V110.164z M162.877,189.721c0-9.248,7.524-16.773,16.773-16.773h119.132c9.248,0,16.772,7.524,16.772,16.773v181.558
	H162.877V189.721z M19.2,417.241l33.169-2.186v20.27L19.2,433.141V417.241z M345.094,459.904H84.571
	c-7.169,0-13.002-5.833-13.002-13.002v-1.321v-40.776v-1.321c0-7.169,5.833-13.002,13.002-13.002h260.523L345.094,459.904
	L345.094,459.904z M449.67,459.904h-85.376v-49.281h85.376V459.904z M450.756,391.421h-86.461V380.88c0-5.302-4.297-9.6-9.6-9.6
	h-19.941V189.721c0-16.508-11.182-30.447-26.368-34.66v-54.497c0-5.302-4.297-9.6-9.6-9.6h-28.763l-4.906-38.865h226.46
	L450.756,391.421z"/>
<g>
</g>
<g>
</g>
<g>
</g>
<g>
</g>
<g>
</g>
<g>
</g>
<g>
</g>
<g>
</g>
<g>
</g>
<g>
</g>
<g>
</g>
<g>
</g>
<g>
</g>
<g>
</g>
<g>
</g>
</svg>
