<?xml version="1.0" encoding="iso-8859-1"?>
<!-- Generator: Adobe Illustrator 19.0.0, SVG Export Plug-In . SVG Version: 6.00 Build 0)  -->
<svg version="1.1" id="Layer_1" xmlns="http://www.w3.org/2000/svg" xmlns:xlink="http://www.w3.org/1999/xlink" x="0px" y="0px"
	 viewBox="0 0 512.001 512.001" style="enable-background:new 0 0 512.001 512.001;" xml:space="preserve">
<polygon style="fill:#F7B239;" points="365.004,130.78 361.961,151.809 353.976,207.066 321.466,207.066 329.451,151.809 
	332.494,130.78 "/>
<path style="fill:#F95428;" d="M410.511,94.88c9.918,0,17.95,8.032,17.95,17.95c0,4.953-2.005,9.44-5.251,12.699
	c-3.246,3.246-7.734,5.251-12.699,5.251h-45.507h-32.51H163.928h-50.126h-12.317c-9.906,0-17.95-8.032-17.95-17.95
	c0-4.953,2.017-9.44,5.263-12.699c3.246-3.246,7.734-5.251,12.687-5.251h7.125h50.126H410.511z"/>
<path style="fill:#D33924;" d="M151.56,112.83c0-4.953,2.017-9.44,5.263-12.699c3.246-3.246,7.734-5.251,12.687-5.251h-10.773
	H108.61h-7.125c-4.953,0-9.44,2.005-12.687,5.251c-3.246,3.258-5.263,7.746-5.263,12.699c0,9.918,8.044,17.95,17.95,17.95h12.317
	h50.126h5.582C159.604,130.78,151.56,122.748,151.56,112.83z"/>
<g>
	<path style="fill:#F7B239;" d="M149.379,30.206l9.357,64.674H108.61l-8.33-57.573C98.12,22.353,109.72,8.95,124.83,8.95
		c6.17,0,11.863,2.268,16.231,6.051C145.441,18.796,148.496,24.107,149.379,30.206z"/>
	<polygon style="fill:#F7B239;" points="174.955,207.066 124.83,207.066 116.845,151.809 113.802,130.78 163.928,130.78 
		166.971,151.809 	"/>
	<polygon style="fill:#F7B239;" points="333.305,319.253 340.466,355.153 155.048,355.153 162.209,319.253 	"/>
</g>
<g>
	<polygon style="fill:#E09B2D;" points="163.928,130.78 166.971,151.809 116.845,151.809 113.802,130.78 	"/>
	<polygon style="fill:#E09B2D;" points="365.004,130.78 361.961,151.809 329.451,151.809 332.494,130.78 	"/>
</g>
<g>
	<polygon style="fill:#F7B239;" points="174.585,257.192 168.403,288.223 162.209,319.253 155.048,355.153 125.546,503.048 
		91.484,503.048 134.342,288.223 140.536,257.192 	"/>
	<polygon style="fill:#F7B239;" points="404.031,503.048 369.969,503.048 340.466,355.153 333.305,319.253 327.123,288.223 
		320.929,257.192 354.991,257.192 361.185,288.223 	"/>
	<polygon style="fill:#F7B239;" points="385.007,207.066 385.007,257.192 354.991,257.192 320.929,257.192 174.585,257.192 
		140.536,257.192 124.83,257.192 124.83,207.066 174.955,207.066 321.466,207.066 353.976,207.066 	"/>
</g>
<g>
	<polygon style="fill:#E09B2D;" points="140.536,257.192 174.585,257.192 168.403,288.223 134.342,288.223 	"/>
	<polygon style="fill:#E09B2D;" points="361.185,288.223 327.123,288.223 320.929,257.192 354.991,257.192 	"/>
</g>
<g>
	<path style="fill:#FFFFFF;" d="M361.196,238.64h-48.333c-4.943,0-8.951-4.008-8.951-8.951s4.008-8.951,8.951-8.951h48.333
		c4.943,0,8.951,4.008,8.951,8.951S366.139,238.64,361.196,238.64z"/>
	<circle style="fill:#FFFFFF;" cx="124.898" cy="34.562" r="8.951"/>
</g>
<path style="fill:#333333;" d="M410.514,139.729c14.832,0,26.9-12.067,26.9-26.9s-12.067-26.9-26.9-26.9H166.482l-8.242-57.004
	C155.856,12.435,141.494,0,124.832,0c-9.802,0-19.104,4.25-25.52,11.66c-6.416,7.41-9.291,17.224-7.889,26.926l6.873,47.54
	C84.964,87.71,74.588,99.077,74.588,112.83c0,14.832,12.067,26.9,26.9,26.9h4.56l9.827,67.981v49.481
	c0,4.943,4.008,8.951,8.951,8.951h4.793L82.702,501.298c-0.524,2.629,0.156,5.355,1.857,7.428c1.7,2.073,4.24,3.275,6.921,3.275
	h34.064c4.269,0,7.944-3.013,8.778-7.2l28.062-140.696h170.742L361.194,504.8c0.835,4.185,4.509,7.2,8.778,7.2h34.055
	c2.681,0,5.221-1.202,6.921-3.275c1.701-2.073,2.382-4.799,1.857-7.428l-46.906-235.152h19.104c4.943,0,8.951-4.008,8.951-8.951
	v-50.126c0-4.943-4.008-8.951-8.951-8.951h-20.692l8.44-58.387H410.514z M112.846,23.379c3.014-3.481,7.382-5.477,11.986-5.477
	c7.826,0,14.571,5.841,15.691,13.585l7.871,54.443h-32.038l-7.216-49.905C108.483,31.468,109.832,26.859,112.846,23.379z
	 M92.49,112.83c0-4.961,4.036-8.998,8.998-8.998h309.026c4.961,0,8.998,4.036,8.998,8.998s-4.036,8.998-8.998,8.998H101.488
	C96.526,121.827,92.49,117.791,92.49,112.83z M182.702,198.117l-8.44-58.387h147.89l-8.44,58.387H182.702z M156.174,139.729
	l8.44,58.387h-32.038l-8.44-58.387H156.174z M118.202,494.098h-15.809l45.48-227.953h15.796L118.202,494.098z M313.583,266.145
	l8.809,44.159H173.115l8.808-44.159H313.583z M165.955,346.203l3.59-17.998h156.419l3.59,17.998H165.955z M393.114,494.098h-15.8
	l-45.476-227.953h15.806L393.114,494.098z M376.052,248.242H133.777v-32.224h242.275V248.242z M346.222,198.117H331.8l8.44-58.387
	h14.422L346.222,198.117z"/>
<g>
</g>
<g>
</g>
<g>
</g>
<g>
</g>
<g>
</g>
<g>
</g>
<g>
</g>
<g>
</g>
<g>
</g>
<g>
</g>
<g>
</g>
<g>
</g>
<g>
</g>
<g>
</g>
<g>
</g>
</svg>
