<?xml version="1.0" encoding="iso-8859-1"?>
<!-- Generator: Adobe Illustrator 19.0.0, SVG Export Plug-In . SVG Version: 6.00 Build 0)  -->
<svg version="1.1" id="Layer_1" xmlns="http://www.w3.org/2000/svg" xmlns:xlink="http://www.w3.org/1999/xlink" x="0px" y="0px"
	 viewBox="0 0 491.52 491.52" style="enable-background:new 0 0 491.52 491.52;" xml:space="preserve">
<g>
	<g>
		<path d="M61.44,0v491.52h368.64V0H61.44z M409.6,471.04H81.92V409.6H409.6V471.04z M409.6,389.12H81.92V102.4H409.6V389.12z
			 M409.6,81.92H81.92V20.48H409.6V81.92z"/>
	</g>
</g>
<g>
	<g>
		<path d="M296.96,430.08h-102.4c-5.655,0-10.24,4.585-10.24,10.24c0,5.655,4.585,10.24,10.24,10.24h102.4
			c5.655,0,10.24-4.585,10.24-10.24C307.2,434.665,302.615,430.08,296.96,430.08z"/>
	</g>
</g>
<g>
	<g>
		<rect x="194.56" y="40.96" width="61.44" height="20.48"/>
	</g>
</g>
<g>
	<g>
		<rect x="276.48" y="40.96" width="20.48" height="20.48"/>
	</g>
</g>
<g>
	<g>
		<path d="M245.76,118.64l-97.125,97.13H204.8v102.4h81.92v-102.4h56.165L245.76,118.64z M266.24,195.29v102.4h-40.96v-102.4
			h-27.205l47.685-47.69l47.685,47.69H266.24z"/>
	</g>
</g>
<g>
	<g>
		<path d="M348.16,256v71.68c0,11.295-9.185,20.48-20.48,20.48H163.84c-11.295,0-20.48-9.185-20.48-20.48V256h-20.48v71.68
			c0,22.585,18.375,40.96,40.96,40.96h163.84c22.585,0,40.96-18.375,40.96-40.96V256H348.16z"/>
	</g>
</g>
<g>
</g>
<g>
</g>
<g>
</g>
<g>
</g>
<g>
</g>
<g>
</g>
<g>
</g>
<g>
</g>
<g>
</g>
<g>
</g>
<g>
</g>
<g>
</g>
<g>
</g>
<g>
</g>
<g>
</g>
</svg>
