<?xml version="1.0" encoding="iso-8859-1"?>
<!-- Generator: Adobe Illustrator 19.0.0, SVG Export Plug-In . SVG Version: 6.00 Build 0)  -->
<svg version="1.1" id="Layer_1" xmlns="http://www.w3.org/2000/svg" xmlns:xlink="http://www.w3.org/1999/xlink" x="0px" y="0px"
	 viewBox="0 0 297.001 297.001" style="enable-background:new 0 0 297.001 297.001;" xml:space="preserve">
<g>
	<g>
		<path d="M287.02,21.819c-6.345-5.295-15.728-8.283-22.772-6.004C215.19,31.682,67.843,78.753,67.843,78.753H23.7
			c-13.068,0-23.7,10.632-23.7,23.7v45.727c0,13.068,10.632,23.7,23.7,23.7h43.535l11.838,5.737v38.888
			c0,10.003,5.885,19.14,14.992,23.281l87.708,39.867c3.395,1.543,7.004,2.306,10.597,2.306c4.825,0,9.621-1.375,13.83-4.085
			c7.344-4.729,11.728-12.766,11.728-21.501v-15.996l39.795,18.089c3.688,1.677,7.608,2.505,11.512,2.505
			c5.242,0,10.453-1.495,15.025-4.439c7.978-5.137,12.741-13.869,12.741-23.357V43.149C297.001,34.887,293.363,27.113,287.02,21.819
			z M59.305,151.635H23.7c-1.906,0.001-3.456-1.549-3.456-3.455v-45.727c0-1.906,1.55-3.456,3.456-3.456h35.605V151.635z
			 M195.239,260.853c-0.733,0.473-2.698,1.458-5.09,0.371l-87.707-39.867c-1.898-0.863-3.125-2.767-3.125-4.852v-30.042
			l98.365,44.712v25.198h0.001C197.683,258.996,195.974,260.379,195.239,260.853z M241.414,228.817L79.549,155.24V96.258
			l161.865-51.944V228.817z M273.299,239.511c-1.039,0.668-3.822,2.06-7.2,0.525l-8.488-3.858V39.116l10.785-3.461
			c2.737-0.316,4.7,0.913,5.651,1.707c1.012,0.844,2.708,2.718,2.708,5.787v190.025h0.001
			C276.756,236.885,274.339,238.842,273.299,239.511z"/>
	</g>
</g>
<g>
</g>
<g>
</g>
<g>
</g>
<g>
</g>
<g>
</g>
<g>
</g>
<g>
</g>
<g>
</g>
<g>
</g>
<g>
</g>
<g>
</g>
<g>
</g>
<g>
</g>
<g>
</g>
<g>
</g>
</svg>
