<?xml version="1.0" encoding="iso-8859-1"?>
<!-- Generator: Adobe Illustrator 19.0.0, SVG Export Plug-In . SVG Version: 6.00 Build 0)  -->
<svg version="1.1" id="Layer_1" xmlns="http://www.w3.org/2000/svg" xmlns:xlink="http://www.w3.org/1999/xlink" x="0px" y="0px"
	 viewBox="0 0 512 512" style="enable-background:new 0 0 512 512;" xml:space="preserve">
<path d="M338.859,121.952l-68.267-68.267c-3.328-3.328-8.789-3.328-12.117,0l-230.4,230.4c-1.024,1.109-1.792,2.389-2.133,3.84
	l-25.6,93.867c-0.853,2.901,0,6.059,2.133,8.277c1.621,1.621,3.84,2.475,6.059,2.475c0.768,0,1.536-0.085,2.219-0.341l93.781-25.515
	c1.365-0.341,2.731-1.109,3.84-2.219c0.085,0,0.085,0,0.085,0l230.4-230.4C342.187,130.741,342.187,125.28,338.859,121.952z
	 M33.792,368.309l-9.557-9.557l14.251-52.139l47.445,47.445L33.792,368.309z M102.4,346.37l-15.531-15.531l-40.704-40.704
	l150.101-150.093l56.235,56.235L102.4,346.37z M264.533,184.237l-18.432-18.432l-37.803-37.803l13.568-13.559l56.235,56.235
	L264.533,184.237z M290.133,158.637l-18.944-18.944l-37.291-37.291l30.635-30.626l56.235,56.235L290.133,158.637z"/>
<polygon style="fill:#7E939E;" points="85.931,354.059 33.792,368.309 32.256,366.773 74.496,342.616 "/>
<polygon style="fill:#AFAFAF;" points="74.496,342.616 32.256,366.773 24.235,358.752 38.485,306.613 "/>
<polygon style="fill:#9B0045;" points="320.768,128.011 290.133,158.637 271.189,139.701 301.312,108.555 "/>
<polygon style="fill:#CC004E;" points="301.312,108.555 271.189,139.701 233.899,102.411 264.533,71.776 "/>
<polygon style="fill:#7E939E;" points="278.101,170.677 264.533,184.237 246.101,165.813 259.413,151.989 "/>
<polygon style="fill:#AFAFAF;" points="259.413,151.989 246.101,165.813 208.299,128.011 221.867,114.443 "/>
<polygon style="fill:#F6981E;" points="252.501,196.277 102.4,346.37 86.869,330.839 234.24,178.016 "/>
<polygon style="fill:#FDB50D;" points="234.24,178.016 86.869,330.839 46.165,290.144 196.267,140.043 "/>
<path d="M401.067,153.611H358.4c-14.08,0-25.6,11.52-25.6,25.6c0,14.08,11.52,25.6,25.6,25.6h42.667
	c27.051,0,59.733,45.653,59.733,102.4s-32.683,102.4-59.733,102.4H25.6c-14.08,0-25.6,11.52-25.6,25.6c0,14.08,11.52,25.6,25.6,25.6
	h375.467c58.027,0,110.933-73.216,110.933-153.6C512,226.818,459.093,153.611,401.067,153.611z M401.067,443.744H25.6
	c-4.693,0-8.533-3.84-8.533-8.533s3.84-8.533,8.533-8.533h375.467c40.192,0,76.8-56.917,76.8-119.467s-36.608-119.467-76.8-119.467
	H358.4c-4.693,0-8.533-3.84-8.533-8.533c0-4.693,3.84-8.533,8.533-8.533h42.667c43.435,0,93.867,59.648,93.867,136.533
	S444.501,443.744,401.067,443.744z"/>
<path style="fill:#4B1DA1;" d="M494.933,307.211c0,76.885-50.432,136.533-93.867,136.533H25.6c-4.693,0-8.533-3.84-8.533-8.533
	s3.84-8.533,8.533-8.533h375.467c40.192,0,76.8-56.917,76.8-119.467s-36.608-119.467-76.8-119.467H358.4
	c-4.693,0-8.533-3.84-8.533-8.533c0-4.693,3.84-8.533,8.533-8.533h42.667C444.501,170.677,494.933,230.325,494.933,307.211z"/>
<g>
</g>
<g>
</g>
<g>
</g>
<g>
</g>
<g>
</g>
<g>
</g>
<g>
</g>
<g>
</g>
<g>
</g>
<g>
</g>
<g>
</g>
<g>
</g>
<g>
</g>
<g>
</g>
<g>
</g>
</svg>
