<?xml version="1.0" encoding="iso-8859-1"?>
<!-- Generator: Adobe Illustrator 16.0.0, SVG Export Plug-In . SVG Version: 6.00 Build 0)  -->
<!DOCTYPE svg PUBLIC "-//W3C//DTD SVG 1.1//EN" "http://www.w3.org/Graphics/SVG/1.1/DTD/svg11.dtd">
<svg version="1.1" id="Capa_1" xmlns="http://www.w3.org/2000/svg" xmlns:xlink="http://www.w3.org/1999/xlink" x="0px" y="0px"
	 width="459.529px" height="459.529px" viewBox="0 0 459.529 459.529" style="enable-background:new 0 0 459.529 459.529;"
	 xml:space="preserve">
<g>
	<g>
		<path d="M146.308,459.529h166.914c14.559,0,39.237-19.774,39.237-34.795V26.456C352.459,11.865,340.46,0,325.713,0H133.819
			c-14.749,0-26.748,11.865-26.748,26.456v398.273C107.071,439.755,131.75,459.529,146.308,459.529z M118.92,26.456
			c0-8.056,6.683-14.606,14.899-14.606h191.894c8.212,0,14.894,6.551,14.894,14.606v15.927H118.92V26.456z M118.92,48.31h221.687
			V406.24H118.92V48.31z M118.92,412.156h221.687v12.573c0,7.505-18.428,22.942-27.385,22.942H146.308
			c-8.958,0-27.388-15.438-27.388-22.942V412.156L118.92,412.156z"/>
		<path d="M208.135,441.142h42.333c4.896,0,8.866-3.971,8.866-8.861c0-4.885-3.971-8.855-8.866-8.855h-42.333
			c-4.89,0-8.864,3.971-8.864,8.855C199.271,437.171,203.245,441.142,208.135,441.142z M208.135,429.351h42.333
			c1.625,0,2.94,1.31,2.94,2.93s-1.315,2.94-2.94,2.94h-42.333c-1.62,0-2.94-1.32-2.94-2.94S206.515,429.351,208.135,429.351z"/>
		<path d="M165.734,428.36h3.184c1.021,0,1.841,0.822,1.841,1.833c0,1.021-0.82,1.849-1.841,1.849h-9.115
			c-1.092,0-1.975,0.889-1.975,1.976c0,1.092,0.883,1.975,1.975,1.975h9.115c3.191,0,5.792-2.6,5.792-5.799
			c0-3.188-2.6-5.778-5.792-5.778h-3.184v-2.981l-8.531,4.921l8.531,4.931V428.36z"/>
		<path d="M288.131,428.36h11.096c1.092,0,1.976-0.884,1.976-1.976c0-1.086-0.884-1.97-1.976-1.97h-11.096
			c-1.092,0-1.976,0.884-1.976,1.97C286.155,427.477,287.034,428.36,288.131,428.36z"/>
		<path d="M288.131,433.565h11.096c1.092,0,1.976-0.884,1.976-1.971c0-1.092-0.884-1.976-1.976-1.976h-11.096
			c-1.092,0-1.976,0.884-1.976,1.976C286.155,432.682,287.034,433.565,288.131,433.565z"/>
		<path d="M288.131,438.496h11.096c1.092,0,1.976-0.884,1.976-1.976c0-1.087-0.884-1.976-1.976-1.976h-11.096
			c-1.092,0-1.976,0.889-1.976,1.976C286.155,437.612,287.034,438.496,288.131,438.496z"/>
	</g>
</g>
<g>
</g>
<g>
</g>
<g>
</g>
<g>
</g>
<g>
</g>
<g>
</g>
<g>
</g>
<g>
</g>
<g>
</g>
<g>
</g>
<g>
</g>
<g>
</g>
<g>
</g>
<g>
</g>
<g>
</g>
</svg>
