<?xml version="1.0" encoding="iso-8859-1"?>
<!-- Generator: Adobe Illustrator 16.0.0, SVG Export Plug-In . SVG Version: 6.00 Build 0)  -->
<!DOCTYPE svg PUBLIC "-//W3C//DTD SVG 1.1//EN" "http://www.w3.org/Graphics/SVG/1.1/DTD/svg11.dtd">
<svg version="1.1" id="Capa_1" xmlns="http://www.w3.org/2000/svg" xmlns:xlink="http://www.w3.org/1999/xlink" x="0px" y="0px"
	 width="451.519px" height="451.519px" viewBox="0 0 451.519 451.519" style="enable-background:new 0 0 451.519 451.519;"
	 xml:space="preserve">
<g>
	<g>
		<path d="M316.214,22.127h-71.452h-38.917h-71.472c-6.525,0-11.834,5.309-11.834,11.842v374.534
			c0,6.525,5.309,11.832,11.834,11.832h181.842c6.535,0,11.853-5.307,11.853-11.832V33.969
			C328.066,27.444,322.749,22.127,316.214,22.127z M243.162,24.103c-0.305,0.609-0.686,1.366-1.087,2.188
			c-0.736,1.453-4.544,3.072-8.84,3.072h-15.867c-4.296,0-8.104-1.62-8.831-3.072l-1.099-2.188H243.162z M326.091,408.503
			c0,5.434-4.423,9.856-9.877,9.856H134.379c-5.441,0-9.859-4.423-9.859-9.856V33.969c0-5.444,4.425-9.867,9.859-9.867h70.866
			l1.531,3.072c1.358,2.702,6.469,4.164,10.603,4.164h15.856c4.128,0,9.241-1.462,10.607-4.172c0.655-1.325,1.209-2.439,1.523-3.064
			h70.848c5.454,0,9.877,4.423,9.877,9.867V408.503z"/>
		<path d="M316.214,58.15H135.288c-1.635,0-2.963,1.328-2.963,2.963v299.464v28.025c0,1.635,1.328,2.96,2.963,2.96h180.926
			c1.636,0,2.966-1.325,2.966-2.96v-28.025V61.113C319.18,59.479,317.85,58.15,316.214,58.15z M313.254,385.637H138.251v-22.094
			h175.002V385.637z M313.254,357.616H138.251V64.076h175.002V357.616z"/>
		<circle cx="141.395" cy="38.513" r="6.785"/>
		<path d="M159.053,41.68H169.9c1.744,0,3.159-1.422,3.159-3.161c0-1.762-1.422-3.174-3.159-3.174h-10.847
			c-1.747,0-3.161,1.422-3.161,3.174C155.885,40.258,157.307,41.68,159.053,41.68z"/>
		<path d="M326.167,0H125.335c-9.252,0-16.772,7.528-16.772,16.788V434.73c0,9.258,7.521,16.788,16.772,16.788h200.832
			c9.262,0,16.788-7.53,16.788-16.788V16.795C342.955,7.536,335.429,0,326.167,0z M331.107,434.736c0,2.727-2.214,4.94-4.94,4.94
			H125.335c-2.719,0-4.923-2.214-4.923-4.94v-1.239c1.503,0.686,3.161,1.106,4.923,1.106h200.832c1.772,0,3.438-0.421,4.94-1.111
			V434.736z M331.107,431.105c-1.478,0.873-3.107,1.513-4.94,1.513H125.335c-1.833,0-3.453-0.63-4.923-1.508V19.243
			c1.478-0.876,3.097-1.508,4.923-1.508h200.832c1.833,0,3.463,0.64,4.94,1.516V431.105z M331.107,16.866
			c-1.503-0.695-3.168-1.114-4.94-1.114H125.335c-1.762,0-3.422,0.411-4.923,1.107v-0.063c0-2.727,2.204-4.938,4.923-4.938h200.832
			c2.727,0,4.94,2.211,4.94,4.938V16.866z"/>
		<path d="M159.944,400.643h-4.644l0.149-0.336l-2.379,1.006l2.379,0.995l-0.149-0.314h4.644c1.407,0,2.544,1.097,2.544,2.463
			s-1.145,2.463-2.544,2.463h-4.55c-0.371,0-0.663,0.31-0.663,0.681c0,0.375,0.292,0.675,0.663,0.675h4.55
			c2.141,0,3.887-1.727,3.887-3.818C163.832,402.349,162.085,400.643,159.944,400.643z"/>
		<path d="M227.354,399.759c-0.157-0.163-0.401-0.163-0.553,0l-4.857,4.743c-0.109,0.121-0.157,0.284-0.094,0.446
			c0.063,0.147,0.195,0.249,0.371,0.249h1.572v3.361c0,0.214,0.165,0.401,0.404,0.401h2.133c0.213,0,0.401-0.183,0.401-0.401v-2.742
			h0.942v2.742c0,0.214,0.181,0.401,0.404,0.401h1.818c0.229,0,0.401-0.183,0.401-0.401v-3.361h1.863
			c0.173,0,0.325-0.102,0.386-0.249c0.066-0.162,0.016-0.335-0.106-0.452L227.354,399.759z M229.894,404.385
			c-0.216,0-0.404,0.173-0.404,0.401v3.361h-1.005v-2.742c0-0.224-0.18-0.401-0.416-0.401h-1.747c-0.229,0-0.419,0.178-0.419,0.401
			v2.742h-1.312v-3.361c0-0.219-0.181-0.401-0.401-0.401h-0.973l3.872-3.783l4.045,3.783H229.894z"/>
		<path d="M289.062,402.922c-0.437,0-0.787,0.341-0.787,0.777v3.291c0,0.437,0.351,0.787,0.787,0.787h6.088
			c0.437,0,0.792-0.351,0.792-0.787v-1.066v-3.002h-5.601H289.062z M294.389,406.213h-4.555v-1.747h4.555V406.213z"/>
		<polygon points="290.266,402.054 296.45,402.054 296.45,406.314 297.532,406.314 297.532,400.973 290.266,400.973 		"/>
	</g>
</g>
<g>
</g>
<g>
</g>
<g>
</g>
<g>
</g>
<g>
</g>
<g>
</g>
<g>
</g>
<g>
</g>
<g>
</g>
<g>
</g>
<g>
</g>
<g>
</g>
<g>
</g>
<g>
</g>
<g>
</g>
</svg>
