<?xml version="1.0" encoding="iso-8859-1"?>
<!-- Generator: Adobe Illustrator 19.0.0, SVG Export Plug-In . SVG Version: 6.00 Build 0)  -->
<svg version="1.1" id="Layer_1" xmlns="http://www.w3.org/2000/svg" xmlns:xlink="http://www.w3.org/1999/xlink" x="0px" y="0px"
	 viewBox="0 0 512 512" style="enable-background:new 0 0 512 512;" xml:space="preserve">
<path style="fill:#FB8C00;" d="M256,163.075c50.8,0,91.6,41.2,91.6,92s-41.2,92-91.6,92c-50.8,0-91.6-41.2-91.6-92
	C164.4,204.275,205.2,163.075,256,163.075z"/>
<path style="fill:#EEEEEE;" d="M258,453.875c13.6,1.2,26.4,2,38.8,2c128.8,0,191.6-65.6,191.6-200.8c0-37.6-5.2-59.6-18.4-75.2
	c-3.6-4-7.6-8-12.4-12l-32.4-17.6l-26.4-14c-26.8-14-58.8-33.6-99.2-59.2c-21.2-13.6-44.8-20.8-69.2-20.8
	c-46.8,0-98.4,25.6-141.6,70.4c-39.2,40.4-64.4,91.2-64.4,128.4c0,59.2,22.4,106.8,66.4,141.2
	C130.4,427.475,188.4,447.475,258,453.875z M310,59.875c143.2,92,198,75.2,198,195.2c0,172-99.2,233.2-252,219.2
	c-138.8-12.8-252-80-252-219.2C4,146.675,173.6-28.125,310,59.875z"/>
<path style="fill:#E0E0E0;" d="M469.6,179.475c-3.6-4-7.6-8-12.4-12l-104-56l46.4,22.4c-26.8-14-60.4-31.6-100.4-57.2l-28.4-9.6
	l-16.4-8.8l-14-1.2l-2-0.8l1.2,0.8l-9.2-0.8c-46.8,0-98.4,25.6-141.6,70.4c-39.2,40.4-64.4,90.8-64.4,128.4
	c0,59.2,22.4,106.8,66.4,141.2c40.4,31.6,98,51.6,167.6,58c13.6,1.2,26.4,2,38.8,2c128.8,0,191.6-65.6,191.6-200.8
	C488,217.075,482.8,195.475,469.6,179.475z M256,346.675c-50.8,0-91.6-41.2-91.6-92s41.2-92,91.6-92c50.8,0,91.6,41.2,91.6,92
	C347.6,305.475,306.8,346.675,256,346.675z"/>
<path d="M296.4,479.875c-13.2,0-26.8-0.8-40.8-2c-74-6.8-136-28.4-180-62.8c-50-39.2-75.6-93.2-75.6-160c0-67.2,62.4-156,139.2-198
	c60.8-33.2,122-33.2,172.8-0.4c39.2,25.2,72.4,42.4,98.8,56.4c69.6,36.4,101.2,52.8,101.2,142c0,78.8-20.8,138-62,175.6
	C414,463.075,362.4,479.875,296.4,479.875z M230,40.275c-28,0-57.6,8-86.8,24C68.8,105.075,8,190.675,8,255.075
	c0,122.4,90.4,200.4,248.4,215.2c83.6,7.6,146.8-7.6,188.4-45.6c39.6-36,59.6-93.2,59.6-169.6c0-84.4-26.4-98.4-96.8-135.2
	c-26.4-14-59.6-31.2-99.2-56.8C284,47.875,257.6,40.275,230,40.275z"/>
<path d="M296.4,459.875c-12.8,0-26-0.8-39.2-2c-70-6.4-128.8-26.8-169.6-58.8c-45.2-35.2-68-84-68-144.4c0-38.4,25.6-90,65.6-131.2
	c44-45.6,96.4-71.6,144.4-71.6c2.4,0,4,1.6,4,4s-1.6,4-4,4c-46,0-96.4,25.2-138.8,69.2c-38.4,40-63.2,89.2-63.2,125.6
	c0,58,22,104.4,64.8,138c39.6,31.2,96.8,50.8,165.2,57.2c13.2,1.2,26,2,38.4,2c126,0,187.6-64.4,187.6-196.8
	c0-36.8-5.2-57.6-17.6-72.8c-3.2-4-7.2-7.6-12-11.2c-1.6-1.2-2-4-0.8-5.6s4-2,5.6-0.8c5.2,4,9.6,8.4,13.2,12.4
	c14,16.8,19.6,39.2,19.6,78C492,392.675,428,459.875,296.4,459.875z"/>
<path d="M399.6,137.875c-0.8,0-1.2,0-2-0.4c-25.2-13.2-60-31.2-100.8-57.6c-20.8-13.2-43.2-20-66.8-20c-2.4,0-4-1.6-4-4s1.6-4,4-4
	c25.2,0,49.2,7.2,71.2,21.2c40.4,26,75.2,44,100.4,57.2c2,1.2,2.8,3.6,1.6,5.2C402.4,137.075,401.2,137.875,399.6,137.875z"/>
<path d="M256,350.675c-52.8,0-96-42.8-96-96s42.8-96,96-96s96,42.8,96,96S308.8,350.675,256,350.675z M256,167.075
	c-48.4,0-88,39.2-88,88s39.2,88,88,88s88-39.2,88-88S304.4,167.075,256,167.075z"/>
<path d="M320.8,227.075c-1.6,0-2.8-0.8-3.6-2.4c-7.2-14.8-19.6-26.4-34.8-32.8c-2-0.8-2.8-3.2-2-5.2s3.2-2.8,5.2-2
	c16.8,7.2,30.4,20,38.8,36.4c0.8,2,0,4.4-2,5.2C322,226.675,321.2,227.075,320.8,227.075z"/>
<g>
</g>
<g>
</g>
<g>
</g>
<g>
</g>
<g>
</g>
<g>
</g>
<g>
</g>
<g>
</g>
<g>
</g>
<g>
</g>
<g>
</g>
<g>
</g>
<g>
</g>
<g>
</g>
<g>
</g>
</svg>
