<?xml version="1.0" encoding="iso-8859-1"?>
<!-- Generator: Adobe Illustrator 19.0.0, SVG Export Plug-In . SVG Version: 6.00 Build 0)  -->
<svg version="1.1" id="Layer_1" xmlns="http://www.w3.org/2000/svg" xmlns:xlink="http://www.w3.org/1999/xlink" x="0px" y="0px"
	 viewBox="0 0 512 512" style="enable-background:new 0 0 512 512;" xml:space="preserve">
<path style="fill:#00A2A9;" d="M473.877,427.03H38.123C17.102,427.03,0,409.928,0,388.906V123.094
	C0,102.072,17.102,84.97,38.123,84.97h435.753c21.021,0,38.123,17.102,38.123,38.123v265.813
	C512,409.928,494.898,427.03,473.877,427.03z"/>
<path style="fill:#007F85;" d="M473.877,84.97H256v342.06h217.877c21.021,0,38.123-17.102,38.123-38.123V123.094
	C512,102.072,494.898,84.97,473.877,84.97z"/>
<path style="fill:#FFDB2D;" d="M103.489,237.481c-27.03,0-49.021-21.991-49.021-49.021s21.991-49.021,49.021-49.021
	s49.021,21.991,49.021,49.021S130.52,237.481,103.489,237.481z"/>
<g>
	<path style="fill:#816142;" d="M376.919,204.8H191.728c-9.024,0-16.34-7.316-16.34-16.34c0-9.024,7.316-16.34,16.34-16.34h185.191
		c9.024,0,16.34,7.316,16.34,16.34C393.26,197.484,385.943,204.8,376.919,204.8z"/>
	<path style="fill:#816142;" d="M200.443,370.383H70.809c-9.024,0-16.34-7.316-16.34-16.34s7.316-16.34,16.34-16.34h129.634
		c9.024,0,16.34,7.316,16.34,16.34S209.467,370.383,200.443,370.383z"/>
	<path style="fill:#816142;" d="M200.443,315.915H70.809c-9.024,0-16.34-7.316-16.34-16.34s7.316-16.34,16.34-16.34h129.634
		c9.024,0,16.34,7.316,16.34,16.34S209.467,315.915,200.443,315.915z"/>
</g>
<g>
	<path style="fill:#543F29;" d="M376.919,172.119H256V204.8h120.919c9.024,0,16.34-7.316,16.34-16.34
		C393.26,179.435,385.943,172.119,376.919,172.119z"/>
	<path style="fill:#543F29;" d="M441.191,315.915H311.557c-9.024,0-16.34-7.316-16.34-16.34s7.316-16.34,16.34-16.34h129.634
		c9.024,0,16.34,7.316,16.34,16.34S450.216,315.915,441.191,315.915z"/>
</g>
<g>
</g>
<g>
</g>
<g>
</g>
<g>
</g>
<g>
</g>
<g>
</g>
<g>
</g>
<g>
</g>
<g>
</g>
<g>
</g>
<g>
</g>
<g>
</g>
<g>
</g>
<g>
</g>
<g>
</g>
</svg>
