<?xml version="1.0" encoding="iso-8859-1"?>
<!-- Generator: Adobe Illustrator 19.0.0, SVG Export Plug-In . SVG Version: 6.00 Build 0)  -->
<svg version="1.1" id="Layer_1" xmlns="http://www.w3.org/2000/svg" xmlns:xlink="http://www.w3.org/1999/xlink" x="0px" y="0px"
	 viewBox="0 0 512 512" style="enable-background:new 0 0 512 512;" xml:space="preserve">
<path style="fill:#B9F7F9;" d="M256,512C114.511,512,0,397.503,0,256C0,114.511,114.497,0,256,0c141.49,0,256,114.497,256,256
	C512,397.49,397.503,512,256,512z"/>
<g>
	<path style="fill:#00D8E0;" d="M256,0v512c141.503,0,256-114.51,256-256C512,114.497,397.49,0,256,0z"/>
	<path style="fill:#00D8E0;" d="M297.464,3.339C283.882,1.139,270.03,0,256,0c-14.03,0-27.882,1.139-41.464,3.339
		c-41.673,51.24-53.751,168.052-55.074,235.594H0.573c-0.737,11.277-0.788,22.075,0,34.133h158.888
		c1.315,67.096,13.345,184.286,55.074,235.594c27.469,4.449,55.415,4.456,82.929,0c41.673-51.24,53.75-168.052,55.073-235.594
		h158.888C511.796,267.41,512,261.721,512,256c0-5.721-0.203-11.41-0.573-17.067H352.538
		C351.224,171.837,339.194,54.647,297.464,3.339z M256,497.624c-21.945,0-59.499-81.283-62.4-224.558h124.802
		C315.542,414.211,278.569,497.624,256,497.624z M193.6,238.933C196.458,97.789,233.431,14.376,256,14.376
		c21.945,0,59.499,81.283,62.4,224.558H193.6z"/>
</g>
<path style="fill:#00A2A9;" d="M511.427,238.933H352.538c-1.315-67.096-13.345-184.286-55.074-235.594C283.882,1.139,270.03,0,256,0
	v14.376c21.945,0,59.499,81.283,62.4,224.558H256v34.133h62.4c-2.858,141.145-39.831,224.557-62.4,224.557V512
	c13.854,0,27.713-1.112,41.464-3.339c41.675-51.24,53.751-168.052,55.074-235.594h158.888C511.796,267.41,512,261.721,512,256
	C512,250.279,511.797,244.59,511.427,238.933z"/>
<g>
</g>
<g>
</g>
<g>
</g>
<g>
</g>
<g>
</g>
<g>
</g>
<g>
</g>
<g>
</g>
<g>
</g>
<g>
</g>
<g>
</g>
<g>
</g>
<g>
</g>
<g>
</g>
<g>
</g>
</svg>
