<?xml version="1.0" encoding="iso-8859-1"?>
<!-- Generator: Adobe Illustrator 17.1.0, SVG Export Plug-In . SVG Version: 6.00 Build 0)  -->
<!DOCTYPE svg PUBLIC "-//W3C//DTD SVG 1.1//EN" "http://www.w3.org/Graphics/SVG/1.1/DTD/svg11.dtd">
<svg version="1.1" id="Capa_1" xmlns="http://www.w3.org/2000/svg" xmlns:xlink="http://www.w3.org/1999/xlink" x="0px" y="0px"
	 viewBox="0 0 173.12 173.12" style="enable-background:new 0 0 173.12 173.12;" xml:space="preserve">
<path style="fill:#000001;" d="M165.558,27.345v33.691c0,5.118-3.451,9.625-8.393,10.958c-0.638,0.172-1.295,0.259-1.955,0.259
	c-0.002,0-0.004,0-0.007,0l-74.088-0.067v8.272c5.566,0.724,9.883,5.484,9.883,11.245v72.055c0,3.478-2.126,9.362-10.098,9.362
	l-1.253-0.012l-13.317,0.012c-7.971,0-10.098-5.885-10.098-9.362V91.703c0-5.76,4.317-10.521,9.883-11.245V68.4
	c0-5.12,3.453-9.626,8.396-10.959c0.636-0.172,1.292-0.259,1.952-0.259c0.002,0,0.004,0,0.007,0l74.088,0.067V30.995h-10.443v4.644
	c0,6.259-5.092,11.351-11.351,11.351H18.912c-6.259,0-11.351-5.092-11.351-11.351V11.351C7.562,5.092,12.654,0,18.912,0h109.852
	c6.259,0,11.351,5.092,11.351,11.351v4.644h14.093C160.467,15.995,165.558,21.086,165.558,27.345z"/>
<g>
</g>
<g>
</g>
<g>
</g>
<g>
</g>
<g>
</g>
<g>
</g>
<g>
</g>
<g>
</g>
<g>
</g>
<g>
</g>
<g>
</g>
<g>
</g>
<g>
</g>
<g>
</g>
<g>
</g>
</svg>
