<?xml version="1.0" encoding="iso-8859-1"?>
<!-- Generator: Adobe Illustrator 19.0.0, SVG Export Plug-In . SVG Version: 6.00 Build 0)  -->
<svg version="1.1" id="Layer_1" xmlns="http://www.w3.org/2000/svg" xmlns:xlink="http://www.w3.org/1999/xlink" x="0px" y="0px"
	 viewBox="0 0 512 512" style="enable-background:new 0 0 512 512;" xml:space="preserve">
<g>
	<path style="fill:#2C5A7E;" d="M193.524,348.794c-19.049-16.008-27.207-32.838-19.28-57.228
		c6.327-19.467,17.228-40.468-3.774-72.126l27.776-27.776c13.886,13.886,43.366,14.037,57.755,5.731
		c14.386,8.306,43.868,8.155,57.757-5.731l27.774,27.776c-21.002,31.657-10.1,52.657-3.773,72.126
		c7.925,24.39-0.234,41.219-19.285,57.228c-24.293,20.417-50.337,23.402-62.473,35.537
		C244.177,372.508,217.816,369.211,193.524,348.794L193.524,348.794z M225.732,53.336H10.669v405.327h490.663V117.335h-21.335
		H259.771l-22.695-42.664L225.732,53.336z"/>
	<path style="fill:#EFBD54;" d="M174.243,291.567c-7.927,24.39,0.232,41.219,19.28,57.228
		c24.293,20.417,50.654,23.713,62.477,35.537c12.136-12.136,38.18-15.122,62.473-35.537c19.051-16.008,27.209-32.838,19.285-57.228
		c-6.327-19.467-17.228-40.468,3.773-72.126l-27.774-27.776c-13.888,13.886-43.37,14.037-57.757,5.731
		c-14.388,8.306-43.868,8.155-57.755-5.731l-27.776,27.776C191.472,251.098,180.569,272.099,174.243,291.567L174.243,291.567z
		 M256,320c-17.674,0-32-14.327-32-32.001c0-17.671,14.326-31.997,32-31.997c17.671,0,31.997,14.327,31.997,31.997
		C287.997,305.673,273.671,320,256,320z"/>
	<circle style="fill:#E8863B;" cx="255.995" cy="288" r="31.999"/>
	<polygon style="fill:#F3DDB9;" points="259.771,117.335 479.996,117.335 479.996,74.671 237.076,74.671 	"/>
</g>
<g>
	<path style="fill:#000003;" d="M501.331,106.666h-10.667V74.671c0-5.892-4.776-10.669-10.669-10.669H243.49l-8.339-15.675
		c-1.852-3.482-5.474-5.659-9.418-5.659H10.669C4.777,42.668,0,47.444,0,53.336v405.327c0,5.892,4.777,10.669,10.669,10.669h490.663
		c5.891,0,10.669-4.776,10.669-10.669V117.335C512,111.442,507.223,106.666,501.331,106.666z M469.327,85.339v21.327H266.181
		l-11.344-21.327H469.327z M490.663,447.995H21.337V64.005h197.985l8.331,15.664c0.025,0.049,0.05,0.098,0.077,0.146l22.621,42.531
		c1.852,3.482,5.476,5.659,9.42,5.659h230.891L490.663,447.995L490.663,447.995z"/>
	<path style="fill:#000003;" d="M163.558,106.677c5.89,0,10.669-4.776,10.669-10.669c0-5.892-4.779-10.669-10.669-10.669h-0.254
		c-5.892,0-10.669,4.776-10.669,10.669c0,5.892,4.776,10.669,10.669,10.669H163.558z"/>
	<path style="fill:#000003;" d="M132.661,85.334H53.335c-5.89,0-10.669,4.776-10.669,10.669c0,5.892,4.778,10.669,10.669,10.669
		h79.326c5.89,0,10.669-4.776,10.669-10.669C143.329,90.11,138.551,85.334,132.661,85.334z"/>
	<path style="fill:#000003;" d="M349.073,211.897l-27.772-27.776c-4.167-4.165-10.92-4.166-15.089,0
		c-5.142,5.141-14.693,8.212-25.548,8.212c-7.577,0-14.803-1.561-19.331-4.176c-3.301-1.905-7.37-1.904-10.669,0
		c-4.528,2.614-11.755,4.175-19.333,4.176c-10.854,0-20.402-3.069-25.544-8.211c-4.165-4.165-10.918-4.166-15.087-0.002
		l-27.778,27.777c-3.588,3.59-4.153,9.212-1.346,13.443c15.94,24.027,10.695,39.176,4.624,56.719
		c-0.725,2.093-1.44,4.161-2.107,6.211c-11.377,35.012,7.429,55.973,22.564,68.692c14.515,12.199,29.597,18.74,41.717,23.995
		c8.681,3.764,16.176,7.016,20.078,10.918c2,2,4.713,3.126,7.543,3.126c0.002,0,0.002,0,0.002,0c2.829,0,5.542-1.124,7.543-3.125
		c4.075-4.075,11.637-7.343,20.391-11.125c12.011-5.189,26.957-11.648,41.402-23.789c15.137-12.719,33.943-33.678,22.566-68.692
		c-0.667-2.051-1.382-4.117-2.105-6.211c-6.074-17.541-11.318-32.692,4.622-56.719C353.227,221.109,352.663,215.486,349.073,211.897
		z M311.608,340.628c-12.052,10.129-24.848,15.658-36.138,20.537c-7.256,3.134-13.845,5.982-19.499,9.636
		c-5.526-3.53-11.994-6.335-19.105-9.419c-11.41-4.949-24.346-10.558-36.477-20.755c-17.449-14.665-21.936-27.495-15.999-45.763
		c0.625-1.924,1.298-3.862,1.978-5.826c5.747-16.603,13.454-38.86-2.448-67.958l15.336-15.335
		c8.729,5.108,19.916,7.927,32.081,7.926c9.062-0.001,17.605-1.555,24.665-4.437c7.059,2.883,15.603,4.437,24.665,4.437
		c12.162,0,23.353-2.819,32.081-7.927l15.334,15.335c-15.901,29.099-8.194,51.357-2.446,67.959c0.68,1.963,1.351,3.903,1.976,5.825
		C333.546,313.132,329.059,325.962,311.608,340.628z"/>
	<path style="fill:#000003;" d="M256,245.333c-23.528,0-42.666,19.14-42.666,42.666c0,23.528,19.139,42.669,42.666,42.669
		s42.668-19.142,42.668-42.669C298.668,264.473,279.528,245.333,256,245.333z M256,309.331c-11.76,0-21.329-9.57-21.329-21.332
		c0-11.761,9.569-21.329,21.329-21.329c11.762,0,21.331,9.568,21.331,21.329C277.331,299.761,267.762,309.331,256,309.331z"/>
</g>
<g>
</g>
<g>
</g>
<g>
</g>
<g>
</g>
<g>
</g>
<g>
</g>
<g>
</g>
<g>
</g>
<g>
</g>
<g>
</g>
<g>
</g>
<g>
</g>
<g>
</g>
<g>
</g>
<g>
</g>
</svg>
