<?xml version="1.0" encoding="iso-8859-1"?>
<!-- Generator: Adobe Illustrator 16.0.0, SVG Export Plug-In . SVG Version: 6.00 Build 0)  -->
<!DOCTYPE svg PUBLIC "-//W3C//DTD SVG 1.1//EN" "http://www.w3.org/Graphics/SVG/1.1/DTD/svg11.dtd">
<svg version="1.1" id="Capa_1" xmlns="http://www.w3.org/2000/svg" xmlns:xlink="http://www.w3.org/1999/xlink" x="0px" y="0px"
	 width="355.424px" height="355.424px" viewBox="0 0 355.424 355.424" style="enable-background:new 0 0 355.424 355.424;"
	 xml:space="preserve">
<g>
	<path d="M297.175,168.492h-24.914c-5.092,0-9.224,4.131-9.224,9.223c0,5.096,4.132,9.227,9.224,9.227h24.914
		c5.092,0,9.224-4.131,9.224-9.227C306.398,172.623,302.267,168.492,297.175,168.492z"/>
	<path d="M178.896,261.509c-5.089,0-9.224,4.132-9.224,9.224v24.758c0,5.092,4.134,9.224,9.224,9.224c5.092,0,9.22-4.132,9.22-9.224
		v-24.758C188.115,265.641,183.987,261.509,178.896,261.509z"/>
	<path d="M94.762,177.715c0-5.092-4.134-9.223-9.224-9.223H60.616c-5.092,0-9.223,4.131-9.223,9.223
		c0,5.096,4.131,9.227,9.223,9.227h24.923C90.628,186.941,94.762,182.811,94.762,177.715z"/>
	<path d="M178.896,93.924c5.092,0,9.22-4.131,9.22-9.223V59.94c0-5.092-4.128-9.224-9.22-9.224c-5.089,0-9.224,4.131-9.224,9.224
		v24.761C169.672,89.793,173.806,93.924,178.896,93.924z"/>
	<path d="M291.675,64.951C272.927,46.006,259.789,23.68,251.874,0c-22.403,11.025-47.51,17.387-74.165,17.387
		S125.948,11.025,103.547,0c-7.914,23.68-21.053,46-39.803,64.951C45.379,83.509,23.716,96.71,0.658,104.925
		c10.614,22.056,16.732,46.682,16.732,72.79c0,26.112-6.119,50.731-16.726,72.781c23.052,8.215,44.721,21.419,63.086,39.979
		c18.75,18.939,31.883,41.266,39.803,64.948c22.401-11.024,47.507-17.39,74.162-17.39c26.655,0,51.761,6.365,74.159,17.39
		c7.915-23.683,21.053-45.997,39.807-64.948c18.368-18.566,40.027-31.765,63.086-39.979c-10.61-22.05-16.724-46.669-16.724-72.781
		c0-26.108,6.113-50.734,16.724-72.784C331.708,96.717,310.037,83.515,291.675,64.951z M326.923,239.058
		c-19.432,6.923-37.687,18.044-53.167,33.692c-15.792,15.961-26.871,34.773-33.543,54.728c-18.879-9.295-40.04-14.651-62.498-14.651
		c-22.461,0-43.619,5.362-62.498,14.651c-6.671-19.954-17.744-38.767-33.542-54.728c-15.475-15.648-33.738-26.77-53.164-33.692
		c8.935-18.586,14.087-39.338,14.087-61.343c0-22.007-5.152-42.754-14.094-61.342c19.426-6.923,37.689-18.047,53.164-33.689
		c15.799-15.967,26.872-34.777,33.543-54.731c18.879,9.292,40.037,14.652,62.498,14.652c22.464,0,43.625-5.359,62.498-14.652
		c6.672,19.954,17.744,38.77,33.543,54.731c15.475,15.642,33.741,26.766,53.16,33.689c-8.935,18.588-14.087,39.334-14.087,61.342
		C312.823,199.72,317.976,220.472,326.923,239.058z"/>
	<path d="M286.138,127.305c-1.272-3.141-4.894-4.659-8.017-3.375l-83.814,34.101c-0.006-0.006-0.012-0.006-0.019-0.012
		c-0.336-0.324-0.708-0.606-1.068-0.904c-0.414-0.331-0.816-0.669-1.261-0.952c-0.373-0.24-0.769-0.438-1.159-0.646
		c-0.475-0.258-0.955-0.517-1.459-0.721c-0.402-0.159-0.816-0.271-1.226-0.399c-0.528-0.165-1.057-0.333-1.597-0.436
		c-0.433-0.081-0.865-0.117-1.297-0.162c-0.553-0.06-1.094-0.123-1.646-0.123c-0.475,0-0.94,0.063-1.414,0.105
		c-0.517,0.051-1.033,0.087-1.55,0.192c-0.51,0.105-1.021,0.27-1.531,0.429c-0.369,0.117-0.744,0.165-1.107,0.312
		c-0.117,0.051-0.216,0.126-0.331,0.174c-0.123,0.048-0.252,0.066-0.375,0.123L75.811,200.776
		c-7.737,3.495-11.181,12.598-7.692,20.345c2.57,5.687,8.164,9.055,14.018,9.055c2.117,0,4.261-0.433,6.314-1.362l86.73-39.122
		l16.393,41.739c2.378,6.047,8.179,9.758,14.315,9.758c1.874,0,3.759-0.342,5.614-1.068c7.902-3.104,11.794-12.027,8.689-19.924
		l-20.116-51.236l82.674-33.642C285.909,134.033,287.417,130.448,286.138,127.305z"/>
</g>
<g>
</g>
<g>
</g>
<g>
</g>
<g>
</g>
<g>
</g>
<g>
</g>
<g>
</g>
<g>
</g>
<g>
</g>
<g>
</g>
<g>
</g>
<g>
</g>
<g>
</g>
<g>
</g>
<g>
</g>
</svg>
