<?xml version="1.0" encoding="iso-8859-1"?>
<!-- Generator: Adobe Illustrator 19.0.0, SVG Export Plug-In . SVG Version: 6.00 Build 0)  -->
<svg version="1.1" id="Layer_1" xmlns="http://www.w3.org/2000/svg" xmlns:xlink="http://www.w3.org/1999/xlink" x="0px" y="0px"
	 viewBox="0 0 284 284" style="enable-background:new 0 0 284 284;" xml:space="preserve">
<g>
	<g>
		<path d="M224,65.667h60v-9C284,32.589,264.411,13,240.334,13H43.667C19.589,13,0,32.589,0,56.667v9h60c5.522,0,10,4.477,10,10
			s-4.478,10-10,10H0V129c0,2.689,0.083,5.359,0.23,8.011c7.074-1.948,14.383-2.948,21.853-2.948
			c45.379,0,82.298,36.918,82.298,82.297c0,16.062-4.754,31.782-13.492,45.119C106.757,267.622,123.99,271,142,271
			c18.009,0,35.241-3.378,51.108-9.52c-8.738-13.337-13.491-29.053-13.491-45.12c0-45.379,36.918-82.297,82.297-82.297
			c7.47,0,14.781,1.001,21.855,2.949c0.148-2.653,0.23-5.323,0.23-8.012V85.667H224c-5.522,0-10-4.477-10-10
			S218.478,65.667,224,65.667z"/>
	</g>
</g>
<g>
	<g>
		<path d="M22.083,154.063c-6.63,0-13.092,1.027-19.284,3.045c8.281,41.073,34.342,75.779,69.776,95.724
			c7.63-10.564,11.806-23.366,11.806-36.472C84.381,182.009,56.435,154.063,22.083,154.063z"/>
	</g>
</g>
<g>
	<g>
		<path d="M261.914,154.063c-34.351,0-62.297,27.946-62.297,62.297c0,13.109,4.176,25.908,11.806,36.472
			c35.435-19.944,61.497-54.65,69.777-95.723C275.007,155.091,268.545,154.063,261.914,154.063z"/>
	</g>
</g>
<g>
</g>
<g>
</g>
<g>
</g>
<g>
</g>
<g>
</g>
<g>
</g>
<g>
</g>
<g>
</g>
<g>
</g>
<g>
</g>
<g>
</g>
<g>
</g>
<g>
</g>
<g>
</g>
<g>
</g>
</svg>
