<?xml version="1.0" encoding="iso-8859-1"?>
<!-- Generator: Adobe Illustrator 19.0.0, SVG Export Plug-In . SVG Version: 6.00 Build 0)  -->
<svg version="1.1" id="Layer_1" xmlns="http://www.w3.org/2000/svg" xmlns:xlink="http://www.w3.org/1999/xlink" x="0px" y="0px"
	 viewBox="0 0 503.609 503.609" style="enable-background:new 0 0 503.609 503.609;" xml:space="preserve">
<g>
	<g>
		<path d="M184.086,218.232c0.344,2.098,0.571,4.222,0.571,6.413c0,3.475-0.68,6.95-1.695,10.374h43.662v-16.787H184.086z"/>
	</g>
</g>
<g>
	<g>
		<path d="M206.496,110.178c-12.397-2.577-25.012-0.378-33.792,5.875l-12.834,8.57c0.378,7.806,1.016,15.058,1.88,21.705
			c15.133,8.922,30.754,17.895,34.077,19.263c10.417,4.265,22.403,2.997,32.064-3.407c9.04-5.993,14.554-15.209,15.377-25.55
			C234.135,122.575,221.151,113.216,206.496,110.178z"/>
	</g>
</g>
<g>
	<g>
		<rect x="243.41" y="209.84" width="16.787" height="33.574"/>
	</g>
</g>
<g>
	<g>
		<path d="M314.109,181.129c-6.119,2.501-12.59,3.735-19.062,3.735c-9.98,0-19.96-2.946-28.638-8.687
			c-5.951-3.945-10.844-9.015-14.621-14.747c-3.777,5.733-8.67,10.802-14.621,14.747c-8.679,5.741-18.659,8.687-28.638,8.687
			c-6.471,0-12.943-1.234-19.062-3.735c-3.148-1.293-12.758-6.664-23.837-13.077c3.576,15.259,8.091,26.137,11.86,33.398h51.469
			c2.913-4.994,8.268-8.393,14.453-8.393h16.787c6.186,0,11.541,3.399,14.454,8.393h51.469c3.767-7.269,8.282-18.156,11.858-33.423
			C326.885,174.456,317.258,179.837,314.109,181.129z"/>
	</g>
</g>
<g>
	<g>
		<path d="M331.081,116.201c-8.981-6.396-21.605-8.595-34.002-6.026c-14.655,3.038-27.631,12.406-36.772,26.456
			c0.823,10.349,6.337,19.557,15.377,25.55c9.661,6.396,21.655,7.68,32.063,3.408c3.332-1.368,18.969-10.349,34.119-19.28
			c0.856-6.64,1.494-13.866,1.872-21.664L331.081,116.201z"/>
	</g>
</g>
<g>
	<g>
		<path d="M330.09,251.806h-55.439c-2.913,4.994-8.268,8.393-14.453,8.393h-16.787c-6.186,0-11.541-3.399-14.454-8.393h-55.439
			C121.01,313.64,83.935,364.647,83.935,453.248c0,2.896,1.494,5.582,3.945,7.118c2.829,1.771,70.262,43.243,163.924,43.243
			s161.095-41.472,163.924-43.243c2.451-1.536,3.945-4.222,3.945-7.118C419.673,364.647,382.6,313.64,330.09,251.806z"/>
	</g>
</g>
<g>
	<g>
		<path d="M318.951,224.298c0-2.04,0.218-4.062,0.546-6.068h-42.513v16.786h43.688C319.641,231.516,318.951,227.94,318.951,224.298z
			"/>
	</g>
</g>
<g>
	<g>
		<path d="M175.382,37.04c-22.637,4.625-41.119,15.15-41.119,38.501c0,9.652,11.264,23.09,20.371,32.399l8.543-5.708
			c4.868-3.475,10.584-6.035,16.737-7.697L175.382,37.04z"/>
	</g>
</g>
<g>
	<g>
		<path d="M285.377,33.573c-4.625,0-8.393-3.76-8.393-8.393V8.393c0-4.633-3.76-8.393-8.393-8.393h-33.574
			c-4.633,0-8.393,3.76-8.393,8.393V25.18c0,4.633-3.769,8.393-8.393,8.393c-8.343,0-17.316,0.26-26.188,1.091l4.541,57.705
			c4.414,0.018,8.888,0.446,13.32,1.369c16.266,3.366,30.762,12.607,41.883,26.271c11.13-13.665,25.625-22.906,41.883-26.271
			c4.499-0.932,9.04-1.36,13.522-1.36l5.741-57.596C303.616,33.85,294.148,33.573,285.377,33.573z"/>
	</g>
</g>
<g>
	<g>
		<path d="M329.549,37.344l-5.708,57.252c6.136,1.687,11.843,4.281,16.762,7.781l8.36,5.581
			c9.107-9.308,20.379-22.763,20.379-32.415C369.343,52.654,351.565,42.112,329.549,37.344z"/>
	</g>
</g>
<g>
</g>
<g>
</g>
<g>
</g>
<g>
</g>
<g>
</g>
<g>
</g>
<g>
</g>
<g>
</g>
<g>
</g>
<g>
</g>
<g>
</g>
<g>
</g>
<g>
</g>
<g>
</g>
<g>
</g>
</svg>
