<?xml version="1.0" encoding="iso-8859-1"?>
<!-- Generator: Adobe Illustrator 19.0.0, SVG Export Plug-In . SVG Version: 6.00 Build 0)  -->
<svg version="1.1" id="Layer_1" xmlns="http://www.w3.org/2000/svg" xmlns:xlink="http://www.w3.org/1999/xlink" x="0px" y="0px"
	 viewBox="0 0 512.853 512.853" style="enable-background:new 0 0 512.853 512.853;" xml:space="preserve">
<g>
	<g>
		<path d="M162.609,418.131c-1.707,0-8.533,0-17.067,0c5.12,35.84,8.533,60.587,8.533,60.587c0,2.56,1.707,4.267,3.413,5.973
			c0.853,0.853,15.36,11.093,40.96,18.773l7.68-12.8c5.12-8.533,7.68-12.8,7.68-21.333
			C213.809,441.171,190.769,418.131,162.609,418.131z"/>
	</g>
</g>
<g>
	<g>
		<path d="M118.236,187.731l-6.827-0.853c0,23.04,3.413,48.64,8.533,79.36c1.707,6.827,2.56,14.507,4.267,22.187l8.533-5.12
			c17.92-11.093,21.333-29.867,21.333-44.373C154.076,215.891,138.716,193.705,118.236,187.731z"/>
	</g>
</g>
<g>
	<g>
		<path d="M398.982,145.065c-7.68,0-13.653,0-14.507,0c-23.893,0-42.667,18.773-42.667,42.667c0,23.894,18.773,42.667,42.667,42.667
			c0.853,0,5.973,0,13.653,0C402.396,197.118,402.396,169.811,398.982,145.065z"/>
	</g>
</g>
<g>
	<g>
		<path d="M384.476,247.465c-33.28,0-59.733-26.453-59.733-59.733c0-33.28,26.453-59.733,59.733-59.733c0,0,4.267,0,11.093,0
			c-5.973-26.453-15.36-51.2-29.013-80.213l-17.067-34.133c-1.707-3.413-4.267-5.12-7.68-5.12h-17.067
			c0-5.12-3.413-8.533-8.533-8.533h-34.133c-5.12,0-8.533,3.413-8.533,8.533H239.41c0-5.12-3.413-8.533-8.533-8.533h-34.133
			c-5.12,0-8.533,3.413-8.533,8.533h-17.067c-3.413,0-5.973,1.707-7.68,4.267l-17.067,34.133
			c-10.24,23.04-17.92,42.667-23.893,62.293l13.653,23.04c12.8,19.627,30.72,29.867,52.053,29.867
			c37.547,0,68.267-30.72,68.267-68.267c0-11.947-3.413-23.893-9.387-34.133h18.773c4.267,11.093,7.68,22.187,7.68,34.133
			c0,46.933-38.4,85.333-85.333,85.333c-27.307,0-50.347-12.8-66.56-37.547l-5.12-8.533c-2.56,11.947-4.267,23.893-4.267,36.693
			l8.533,0.853c0.853,0,0.853,0,1.707,0c28.16,8.533,48.64,37.547,48.64,68.267c0,26.453-10.24,46.933-29.867,58.88l-14.507,8.533
			c5.973,34.133,11.093,67.413,15.36,95.573c11.093-0.853,20.48-0.853,20.48-0.853c37.547,0,68.267,30.72,68.267,68.267
			c0,12.8-4.267,20.48-9.387,29.867l-5.12,9.387c11.947,2.56,25.6,4.267,40.96,4.267c61.44,0,97.28-26.453,98.987-27.307
			c1.707-1.707,3.413-3.413,3.413-5.973c0,0,1.707-13.653,5.12-34.987h-5.973c-0.853,0-0.853,0-1.707,0
			c-32.427-6.827-58.027-36.693-58.027-69.12c0-37.547,30.72-68.267,68.267-68.267c0,0,7.68,0,17.92,0
			c2.56-13.653,5.12-27.307,7.68-40.96c0.853-6.827,2.56-12.8,3.413-18.773C389.596,247.465,385.329,247.465,384.476,247.465z
			 M188.209,42.665L188.209,42.665h-20.48l8.533-17.067h11.947V42.665z M222.342,51.198h-17.067V17.065h17.067V51.198z
			 M273.542,42.665h-34.133V25.598h34.133V42.665z M247.942,349.865c-33.28,0-59.733-26.453-59.733-59.733
			c0-33.28,26.453-59.733,59.733-59.733c33.28,0,59.733,26.453,59.733,59.733C307.675,323.412,281.222,349.865,247.942,349.865z
			 M307.676,51.198h-17.067V17.065h17.067V51.198z M324.742,25.598h11.947l8.533,17.067h-20.48V25.598z"/>
	</g>
</g>
<g>
	<g>
		<circle cx="247.94" cy="290.128" r="42.667"/>
	</g>
</g>
<g>
	<g>
		<path d="M367.409,324.265c-28.16,0-51.2,23.04-51.2,51.2c0,23.893,18.773,46.08,43.52,51.2h6.827
			c4.267-28.16,9.387-64,16.213-102.4C375.089,324.265,369.116,324.265,367.409,324.265z"/>
	</g>
</g>
<g>
</g>
<g>
</g>
<g>
</g>
<g>
</g>
<g>
</g>
<g>
</g>
<g>
</g>
<g>
</g>
<g>
</g>
<g>
</g>
<g>
</g>
<g>
</g>
<g>
</g>
<g>
</g>
<g>
</g>
</svg>
