<?xml version="1.0" encoding="iso-8859-1"?>
<!-- Generator: Adobe Illustrator 19.0.0, SVG Export Plug-In . SVG Version: 6.00 Build 0)  -->
<svg version="1.1" id="Layer_1" xmlns="http://www.w3.org/2000/svg" xmlns:xlink="http://www.w3.org/1999/xlink" x="0px" y="0px"
	 viewBox="0 0 512 512" style="enable-background:new 0 0 512 512;" xml:space="preserve">
<g>
	<path style="fill:#ADABA6;" d="M175.958,424.197c-2.854,0-5.63-1.484-7.156-4.135c-2.272-3.949-0.915-8.993,3.033-11.265
		l136.312-78.472l-114.844-77.662c-2.157-1.46-3.5-3.853-3.62-6.454c-0.119-2.602,0.998-5.109,3.013-6.76l103.808-85.058
		c3.524-2.885,8.722-2.371,11.609,1.153c2.887,3.524,2.371,8.722-1.152,11.61l-95.249,78.043l116.614,78.859
		c2.356,1.594,3.725,4.29,3.622,7.131c-0.103,2.843-1.663,5.433-4.129,6.852l-147.752,85.057
		C178.77,423.843,177.354,424.197,175.958,424.197z"/>
	<path style="fill:#ADABA6;" d="M334.684,424.197c-1.397,0-2.811-0.354-4.107-1.101l-147.755-85.058
		c-2.464-1.419-4.023-4.009-4.127-6.852c-0.103-2.842,1.265-5.537,3.622-7.131l116.612-78.859l-95.246-78.044
		c-3.525-2.887-4.041-8.085-1.154-11.609c2.887-3.522,8.086-4.042,11.609-1.152l103.809,85.058c2.015,1.651,3.132,4.156,3.012,6.76
		c-0.12,2.601-1.461,4.995-3.62,6.454l-114.844,77.662l136.312,78.472c3.949,2.272,5.307,7.316,3.035,11.265
		C340.315,422.713,337.539,424.197,334.684,424.197z"/>
</g>
<g>
	<polygon style="fill:#93918D;" points="184.437,420.58 208.178,406.913 210.558,386.506 186.818,400.172 	"/>
	<polygon style="fill:#93918D;" points="228.651,231.317 231.401,207.735 206.914,227.798 203.232,259.377 223.76,273.258 
		225.912,254.798 211.713,245.196 	"/>
	<polygon style="fill:#93918D;" points="233.303,191.422 235.572,171.953 215.846,155.79 215.318,155.728 213.087,174.858 	"/>
	<polygon style="fill:#93918D;" points="214.108,356.048 216.188,338.208 202.495,330.325 218.357,319.598 220.879,297.977 
		196.837,314.236 193.355,344.101 	"/>
</g>
<path style="fill:#2393B5;" d="M256,52.432c-4.556,0-8.249-3.692-8.249-8.249V8.249C247.751,3.692,251.444,0,256,0
	s8.249,3.692,8.249,8.249v35.933C264.249,48.74,260.556,52.432,256,52.432z"/>
<g>
	<path style="fill:#8BD8F7;" d="M294.13,100.116V82.314c0-21.06-17.071-38.131-38.13-38.131c-21.06,0-38.131,17.071-38.131,38.131
		v17.803h76.261V100.116z"/>
	<polygon style="fill:#8BD8F7;" points="307.159,160.771 302.618,128.874 209.382,128.874 204.841,160.771 	"/>
</g>
<g>
	<path style="fill:#57BEDD;" d="M266.732,45.724c-3.405-0.997-7.003-1.541-10.732-1.541c-21.06,0-38.131,17.071-38.131,38.131
		v17.803h21.464V82.314C239.333,64.982,250.899,50.361,266.732,45.724z"/>
	<polygon style="fill:#57BEDD;" points="209.382,128.874 204.841,160.771 226.305,160.771 230.847,128.874 	"/>
</g>
<polygon style="fill:#8BD8F7;" points="168.509,415.946 163.649,450.084 348.351,450.084 343.491,415.946 "/>
<polygon style="fill:#57BEDD;" points="168.509,415.946 163.649,450.084 187.109,450.084 191.971,415.946 "/>
<path style="fill:#ADABA6;" d="M388.897,484.259l-17.598-36.56c-0.915-1.903-2.842-3.114-4.955-3.114H145.656
	c-2.113,0-4.039,1.21-4.956,3.114l-17.598,36.56c-1.317,2.737-0.165,6.024,2.572,7.341c2.737,1.318,6.023,0.167,7.34-2.569
	l1.148-2.386h243.678l1.149,2.386c0.947,1.968,2.911,3.115,4.958,3.115c0.801,0,1.614-0.175,2.381-0.546
	C389.064,490.283,390.213,486.996,388.897,484.259z"/>
<path style="fill:#93918D;" d="M148.792,484.259l17.598-36.56c0.916-1.903,2.843-3.114,4.955-3.114h-25.69
	c-2.113,0-4.039,1.21-4.956,3.114l-17.598,36.56c-1.317,2.737-0.165,6.024,2.572,7.341c2.737,1.318,6.023,0.167,7.34-2.569
	l1.148-2.386h14.107C148.266,485.842,148.422,485.03,148.792,484.259z"/>
<g>
	<path style="fill:#CCC3A8;" d="M309.372,481.041H99.667H16.81c-7.613,0-13.785,6.172-13.785,13.785v3.388
		c0,7.613,6.171,13.785,13.785,13.785h82.857h312.666h82.857c7.613,0,13.785-6.171,13.785-13.785v-3.388
		c0-7.613-6.171-13.785-13.785-13.785h-82.857h-75.096"/>
	<path style="fill:#CCC3A8;" d="M312.718,254.079H197.923c-2.371,0-4.629-1.022-6.196-2.803c-1.566-1.782-2.289-4.151-1.985-6.504
		l10.986-85.058c0.531-4.113,4.034-7.192,8.181-7.192h92.822c4.149,0,7.65,3.08,8.181,7.192l10.986,85.058
		c0.304,2.353-0.419,4.722-1.985,6.504C317.348,253.057,315.091,254.079,312.718,254.079z M207.307,237.58h96.028l-8.855-68.56
		h-78.318L207.307,237.58z"/>
	<path style="fill:#CCC3A8;" d="M323.706,339.138H186.938c-2.371,0-4.629-1.022-6.196-2.803c-1.566-1.782-2.289-4.151-1.985-6.504
		l10.986-85.059c0.531-4.112,4.034-7.192,8.181-7.192h114.795c4.149,0,7.65,3.08,8.181,7.192l10.988,85.059
		c0.302,2.353-0.42,4.722-1.986,6.504C328.334,338.116,326.079,339.138,323.706,339.138z M196.321,322.639h118.002l-8.857-68.561
		h-100.29L196.321,322.639z"/>
	<path style="fill:#CCC3A8;" d="M334.692,424.196h-158.74c-2.371,0-4.629-1.022-6.196-2.803c-1.566-1.782-2.29-4.151-1.988-6.504
		l10.988-85.058c0.53-4.113,4.034-7.192,8.181-7.192h136.768c4.148,0,7.651,3.08,8.182,7.192l10.986,85.058
		c0.302,2.353-0.42,4.722-1.988,6.504C339.32,423.174,337.064,424.196,334.692,424.196z M185.335,407.697H325.31l-8.855-68.56
		H194.19L185.335,407.697z"/>
</g>
<path style="fill:#C9B585;" d="M25.756,498.214v-3.387c0-7.615,6.171-13.786,13.785-13.786H16.81
	c-7.613,0-13.785,6.172-13.785,13.786v3.387C3.025,505.829,9.196,512,16.81,512h22.731C31.928,512,25.756,505.829,25.756,498.214z"
	/>
<path style="fill:#36A1CB;" d="M286.275,128.874h0.89h20.528c7.613,0,13.785-6.172,13.785-13.785v-3.388
	c0-7.613-6.171-13.785-13.785-13.785h-20.528h-62.329h-20.528c-7.613,0-13.786,6.172-13.786,13.785v3.388
	c0,7.613,6.173,13.785,13.786,13.785h20.528h32.842"/>
<path style="fill:#2393B5;" d="M211.986,115.089v-3.388c0-7.613,6.171-13.785,13.785-13.785h-0.936h-20.528
	c-7.613,0-13.786,6.172-13.786,13.785v3.388c0,7.613,6.173,13.785,13.786,13.785h20.528h0.936
	C218.158,128.874,211.986,122.703,211.986,115.089z"/>
<g>
</g>
<g>
</g>
<g>
</g>
<g>
</g>
<g>
</g>
<g>
</g>
<g>
</g>
<g>
</g>
<g>
</g>
<g>
</g>
<g>
</g>
<g>
</g>
<g>
</g>
<g>
</g>
<g>
</g>
</svg>
