<?xml version="1.0" encoding="iso-8859-1"?>
<!-- Generator: Adobe Illustrator 19.0.0, SVG Export Plug-In . SVG Version: 6.00 Build 0)  -->
<svg version="1.1" id="Layer_1" xmlns="http://www.w3.org/2000/svg" xmlns:xlink="http://www.w3.org/1999/xlink" x="0px" y="0px"
	 viewBox="0 0 291.042 291.042" style="enable-background:new 0 0 291.042 291.042;" xml:space="preserve">
<g>
	<g>
		<g>
			<path d="M283.542,128.679h-141c-17.921,0-32.5,14.58-32.5,32.5c0,14.018,8.922,25.992,21.385,30.542l-19.346,12.192
				l-62.263-39.238c-15.16-9.551-35.268-4.993-44.822,10.168c-9.555,15.161-4.993,35.269,10.167,44.823l79.59,50.158
				c10.586,6.671,24.063,6.676,34.656,0l120.823-76.145h33.31c4.143,0,7.5-3.358,7.5-7.5v-50
				C291.042,132.037,287.685,128.679,283.542,128.679z M276.042,178.679h-27.976c-1.415,0-2.802,0.4-3.999,1.155l-122.656,77.3
				c-5.698,3.592-12.957,3.595-18.66,0l-79.59-50.158c-8.164-5.145-10.62-15.972-5.476-24.135
				c5.146-8.163,15.973-10.618,24.136-5.475l66.261,41.758c2.443,1.54,5.555,1.54,7.998,0l40.374-25.444h13.59
				c4.143,0,7.5-3.358,7.5-7.5c0-4.142-3.357-7.5-7.5-7.5c-15.5,0-12.165,0-27.502,0c-9.649,0-17.5-7.851-17.5-17.5
				s7.851-17.5,17.5-17.5h133.5V178.679z"/>
			<path d="M25.544,31.213h28v39.374c0,4.142,3.357,7.5,7.5,7.5h76c4.143,0,7.5-3.358,7.5-7.5V31.213h9.5v40.521
				c-7.403,3.166-12.605,10.519-12.605,19.066c0,11.429,9.298,20.728,20.727,20.728s20.727-9.298,20.727-20.728
				c0-9.015-5.796-16.683-13.849-19.529V31.213h3.5c4.143,0,7.5-3.358,7.5-7.5c0-4.142-3.357-7.5-7.5-7.5c-18.092,0-128.806,0-147,0
				c-4.143,0-7.5,3.358-7.5,7.5C18.044,27.855,21.401,31.213,25.544,31.213z M162.165,85.073c3.158,0,5.727,2.569,5.727,5.727
				c0.001,3.158-2.569,5.728-5.727,5.728c-3.157,0-5.727-2.569-5.727-5.728C156.438,87.642,159.007,85.073,162.165,85.073z
				 M68.544,31.213h61v31.874h-61V31.213z"/>
		</g>
	</g>
</g>
<g>
</g>
<g>
</g>
<g>
</g>
<g>
</g>
<g>
</g>
<g>
</g>
<g>
</g>
<g>
</g>
<g>
</g>
<g>
</g>
<g>
</g>
<g>
</g>
<g>
</g>
<g>
</g>
<g>
</g>
</svg>
