<?xml version="1.0" encoding="iso-8859-1"?>
<!-- Generator: Adobe Illustrator 19.0.0, SVG Export Plug-In . SVG Version: 6.00 Build 0)  -->
<svg version="1.1" id="Layer_1" xmlns="http://www.w3.org/2000/svg" xmlns:xlink="http://www.w3.org/1999/xlink" x="0px" y="0px"
	 viewBox="0 0 300 300" style="enable-background:new 0 0 300 300;" xml:space="preserve">
<g>
	<g>
		<g>
			<path d="M290.323,290.323v-48.387h-4.839v-19.355h-5.71l-4.839-24.194h-3.968v-38.71h-9.677v38.71h-3.968l-4.65,23.25
				l-40.631-40.635l-19.002-38.003c-0.227-0.455-5.197-10.156-15.373-12.039l-13.152-35.061V76.49l-8.835-22.098l9.677-9.677
				l-10.519-26.294V0h-9.677v18.421l-10.515,26.294l9.677,9.677l-8.84,22.098v19.408l-13.147,35.061
				c-10.181,1.882-15.145,11.584-15.373,12.039L87.96,181.001l-40.631,40.635l-4.655-23.25H38.71v-38.71h-9.677v38.71h-3.968
				l-4.839,24.194h-5.71v19.355H9.677v48.387H0V300h9.677h48.387h29.032h48.387h29.032h48.387h29.032h48.387H300v-9.677H290.323z
				 M265.258,208.065H267l2.903,14.516h-7.548L265.258,208.065z M256.452,232.258h19.355v9.677h-19.355V232.258z M193.548,165.658
				l6.687,13.374h-6.687V165.658z M198.387,232.258v9.677h-19.355v-9.677H198.387z M184.935,222.581l2.903-14.516h1.742
				l2.903,14.516H184.935z M150,32.385l4.002,9.997L150,46.384l-4.002-4.002L150,32.385z M150,66.252l4.839,12.097v13.587h-9.677
				V78.348h-0.001L150,66.252z M143.676,101.613h12.648l3.629,9.677h-19.906L143.676,101.613z M136.418,120.968h27.165l3.629,9.677
				h-34.423L136.418,120.968z M115.606,147.353c0.034-0.073,3.706-7.031,10.2-7.031v4.839h9.677v-4.839h9.677v4.839h9.677v-4.839
				h9.677v4.839h9.677v-4.839c6.494,0,10.166,6.958,10.185,7.002l6.179,12.353h-6.687v19.355h-67.742v-19.355h-6.687
				L115.606,147.353z M110.419,208.065h1.742l2.903,14.516h-7.548L110.419,208.065z M120.968,232.258v9.677h-19.355v-9.677H120.968z
				 M106.452,165.658v13.374h-6.687L106.452,165.658z M33,208.065h1.742l2.903,14.516h-7.548L33,208.065z M24.194,232.258h19.355
				v9.677H24.194V232.258z M48.388,290.323L48.388,290.323H38.71V261.29h-9.677v29.032h-9.677v-38.71h29.032V290.323z
				 M91.935,241.935h-4.839v48.387H58.065v-48.387h-4.839v-12.513l40.718-40.713h12.508v9.677h-3.968l-4.839,24.194h-5.71V241.935z
				 M125.807,290.323L125.807,290.323h-9.678V261.29h-9.677v29.032h-9.677v-38.71h29.032V290.323z M164.516,241.935v48.387h-29.032
				v-48.387h-4.839V222.58h-5.71l-4.839-24.194h-3.968v-9.677h67.742v9.677h-3.968l-4.839,24.194h-5.71v19.355H164.516z
				 M203.227,290.323L203.227,290.323h-9.678V261.29h-9.677v29.032h-9.677v-38.71h29.032V290.323z M241.935,241.935v48.387h-29.032
				v-48.387h-4.839V222.58h-5.71l-4.839-24.194h-3.968v-9.677h12.508l40.718,40.713v12.513H241.935z M280.646,290.323
				L280.646,290.323h-9.678V261.29h-9.677v29.032h-9.677v-38.71h29.032V290.323z"/>
			<rect x="154.839" y="198.387" width="9.677" height="9.677"/>
			<rect x="203.226" y="198.387" width="9.677" height="9.677"/>
			<rect x="135.484" y="198.387" width="9.677" height="9.677"/>
			<rect x="87.097" y="198.387" width="9.677" height="9.677"/>
		</g>
	</g>
</g>
<g>
</g>
<g>
</g>
<g>
</g>
<g>
</g>
<g>
</g>
<g>
</g>
<g>
</g>
<g>
</g>
<g>
</g>
<g>
</g>
<g>
</g>
<g>
</g>
<g>
</g>
<g>
</g>
<g>
</g>
</svg>
