<?xml version="1.0" encoding="iso-8859-1"?>
<!-- Generator: Adobe Illustrator 19.0.0, SVG Export Plug-In . SVG Version: 6.00 Build 0)  -->
<svg version="1.1" id="Layer_1" xmlns="http://www.w3.org/2000/svg" xmlns:xlink="http://www.w3.org/1999/xlink" x="0px" y="0px"
	 viewBox="0 0 512.002 512.002" style="enable-background:new 0 0 512.002 512.002;" xml:space="preserve">
<g>
	<g>
		<rect x="179.608" y="256.913" width="32.499" height="15.726"/>
	</g>
</g>
<g>
	<g>
		<rect x="275.01" y="256.913" width="32.499" height="15.726"/>
	</g>
</g>
<g>
	<g>
		<rect x="179.608" y="407.878" width="15.726" height="15.726"/>
	</g>
</g>
<g>
	<g>
		<rect x="203.721" y="423.604" width="16.774" height="15.726"/>
	</g>
</g>
<g>
	<g>
		<rect x="290.735" y="407.878" width="16.774" height="15.726"/>
	</g>
</g>
<g>
	<g>
		<rect x="267.671" y="423.604" width="15.726" height="15.726"/>
	</g>
</g>
<g>
	<g>
		<rect x="220.494" y="191.914" width="47.177" height="15.726"/>
	</g>
</g>
<g>
	<g>
		<rect x="203.721" y="352.315" width="79.676" height="15.726"/>
	</g>
</g>
<g>
	<g>
		<path d="M203.972,96.054v15.726h16.15v24.297h-16.15c-19.995,0-38.934-4.607-55.817-12.805V48.284h-31.451v15.726h15.726v50.198
			c-32.121-21.68-53.94-57.513-56.431-98.482h16.008V0H60.034v7.863c0,42.68,18.679,81.073,48.283,107.456v22.007
			c-9.444,3.184-16.265,12.118-16.265,22.622c0,13.163,10.709,23.872,23.872,23.872c13.163,0,23.872-10.709,23.872-23.872
			c0-10.314-6.575-19.118-15.753-22.448v-9.99c20.633,13.829,45.024,22.462,71.289,24.025v71.827h15.726v-71.56h24.791V96.054
			H203.972z M124.071,159.946c0,4.492-3.654,8.147-8.147,8.147c-4.492,0-8.147-3.655-8.147-8.147c0-4.491,3.655-8.146,8.147-8.146
			S124.071,155.455,124.071,159.946z"/>
	</g>
</g>
<g>
	<g>
		<path d="M325.329,192.106v-0.196H299.12v15.726h17.057v154.079c-6.749,2.454-12.206,7.924-14.637,14.709H186.44
			c-2.434-6.751-7.882-12.199-14.627-14.671V207.636h15.131V191.91H163.88v0.197H68.039v7.863c0,30.818,25.072,55.89,55.891,55.89
			h24.013v-15.726h-24.013c-19.458,0-35.726-13.906-39.391-32.301h71.551v7.143h-39.384v15.726h39.384v130.871
			c-9.471,3.187-16.306,12.066-16.306,22.5c0,10.164,6.661,19.089,15.711,22.451v21.275c0,19.888,16.84,36.69,36.772,36.69h11.85
			v7.634c0,21.991,17.889,39.881,39.88,39.881s39.881-17.89,39.881-39.881v-7.634h11.85c20.026,0,36.942-16.801,36.942-36.69
			v-21.226c9.098-3.287,15.626-12.108,15.626-22.446c0-10.431-6.867-19.311-16.392-22.526V230.7h40.603v-15.726h-40.603v-7.143
			h71.55c-3.665,18.396-19.935,32.301-39.39,32.301h-24.013v15.726h24.013c30.817,0,55.89-25.072,55.89-55.89v-7.863H325.329z
			 M268.15,472.119c0,13.319-10.836,24.155-24.155,24.155c-13.318,0-24.154-10.836-24.154-24.155v-7.634h16.378v15.726h15.726
			v-15.726h16.207V472.119z M332.568,384.09c0,4.386-3.556,8.058-7.764,8.058h-7.862v35.648c0,11.167-9.914,20.964-21.217,20.964
			H192.266c-11.408,0-21.046-9.6-21.046-20.964v-35.648h-7.863c-4.181,0-7.806-3.772-7.806-8.111c0-4.432,3.764-8.004,8.337-8.004
			c4.264,0,8.381,4.011,8.381,8.254v7.863h143.626v-7.863c0-3.896,3.484-8.271,8.146-8.271
			C328.663,376.015,332.568,379.703,332.568,384.09z"/>
	</g>
</g>
<g>
	<g>
		<path d="M428.069,97.064V0.059H395.57v15.726h16.535c-1.894,31.192-14.986,60.184-37.345,82.336
			c-5.588,5.536-11.609,10.49-17.979,14.848V64.009h15.726V48.284h-31.451v73.866c-17.495,8.598-36.905,13.148-57.038,13.148
			h-16.348v-24.112h15.726V95.459h-31.451v55.564h23.064v72.337h15.726v-72.494c35.965-1.619,69.517-16.218,95.095-41.559
			c10.835-10.735,19.727-22.861,26.515-36.004V97.01c-13.844,3.47-24.128,16.014-24.128,30.918c0,17.577,14.3,31.876,31.876,31.876
			c17.577,0,31.877-14.3,31.877-31.876C451.969,113.106,441.798,100.615,428.069,97.064z M420.091,144.079
			c-8.905,0-16.15-7.245-16.15-16.15s7.245-16.15,16.15-16.15c8.906,0,16.151,7.245,16.151,16.15S428.998,144.079,420.091,144.079z"
			/>
	</g>
</g>
<g>
</g>
<g>
</g>
<g>
</g>
<g>
</g>
<g>
</g>
<g>
</g>
<g>
</g>
<g>
</g>
<g>
</g>
<g>
</g>
<g>
</g>
<g>
</g>
<g>
</g>
<g>
</g>
<g>
</g>
</svg>
