<?xml version="1.0" encoding="iso-8859-1"?>
<!-- Generator: Adobe Illustrator 19.0.0, SVG Export Plug-In . SVG Version: 6.00 Build 0)  -->
<svg version="1.1" id="Layer_1" xmlns="http://www.w3.org/2000/svg" xmlns:xlink="http://www.w3.org/1999/xlink" x="0px" y="0px"
	 viewBox="0 0 481.368 481.368" style="enable-background:new 0 0 481.368 481.368;" xml:space="preserve">
<g>
	<g>
		<path d="M213.656,407.884c-3.128-3.128-8.184-3.128-11.312,0L184,426.228V357.54c0-4.416-3.584-8-8-8s-8,3.584-8,8v68.688
			l-18.344-18.344c-3.128-3.128-8.184-3.128-11.312,0s-3.128,8.184,0,11.312l32,32c0.736,0.736,1.624,1.32,2.6,1.728
			c0.976,0.4,2.016,0.616,3.056,0.616s2.08-0.216,3.056-0.616c0.976-0.408,1.864-0.992,2.6-1.728l32-32
			C216.784,416.068,216.784,411.012,213.656,407.884z"/>
	</g>
</g>
<g>
	<g>
		<path d="M357.656,415.884c-3.128-3.128-8.184-3.128-11.312,0L336,426.228V365.54c0-4.416-3.576-8-8-8s-8,3.584-8,8v60.688
			l-10.344-10.344c-3.128-3.128-8.184-3.128-11.312,0c-3.128,3.128-3.128,8.184,0,11.312l23.992,23.992
			c0.736,0.744,1.624,1.328,2.608,1.736c0.976,0.4,2.016,0.616,3.056,0.616c1.04,0,2.08-0.216,3.056-0.616
			c0.984-0.408,1.864-0.992,2.608-1.736l23.992-23.992C360.784,424.068,360.784,419.012,357.656,415.884z"/>
	</g>
</g>
<g>
	<g>
		<path d="M332.48,64.652c-2.48-3.2-5.192-6.296-8.088-9.192c-36.768-36.768-96.592-36.768-133.36,0L176,70.476l-15.024-15.024
			c-17.816-17.816-41.496-27.624-66.68-27.624c-25.184,0-48.864,9.816-66.672,27.624C9.808,73.268,0,96.948,0,122.132
			c0,25.184,9.808,48.864,27.624,66.672L170,331.196c1.088,1.088,2.536,1.736,4.064,2.016c0.744,0.216,1.512,0.328,2.272,0.328
			c2.048,0,4.096-0.784,5.656-2.344l48-48c3.128-3.128,3.128-8.184,0-11.312c-3.128-3.128-8.184-3.128-11.312,0L176,314.564
			L38.936,177.5C24.144,162.708,16,143.044,16,122.132s8.144-40.576,22.936-55.368c14.792-14.792,34.448-22.936,55.36-22.936
			s40.576,8.144,55.368,22.936l15.328,15.328l-26.952,30.112c-2.944,3.296-2.664,8.352,0.624,11.296
			c1.528,1.368,3.432,2.04,5.336,2.04c2.2,0,4.384-0.896,5.968-2.664l31.864-35.6l20.512-20.512
			c30.528-30.528,80.208-30.52,110.728,0c2.416,2.416,4.68,4.992,6.736,7.656c2.704,3.488,7.704,4.16,11.224,1.448
			C334.528,73.172,335.176,68.148,332.48,64.652z"/>
	</g>
</g>
<g>
	<g>
		<path d="M127.36,146.5c-0.4-0.96-0.96-1.84-1.68-2.64c-0.8-0.72-1.6-1.28-2.64-1.68c-1.44-0.64-3.04-0.8-4.64-0.48
			c-0.48,0.08-0.96,0.24-1.44,0.48c-0.48,0.16-0.96,0.4-1.44,0.72c-0.4,0.32-0.8,0.64-1.2,0.96c-0.72,0.8-1.28,1.68-1.68,2.64
			c-0.4,0.96-0.64,2-0.64,3.04s0.24,2.08,0.64,3.04c0.4,0.96,0.96,1.84,1.68,2.64c0.4,0.32,0.8,0.72,1.2,0.96
			c0.48,0.32,0.96,0.56,1.44,0.72c0.48,0.24,0.96,0.4,1.44,0.48c0.56,0.08,1.04,0.16,1.6,0.16c1.04,0,2.08-0.16,3.04-0.64
			c1.04-0.4,1.84-0.96,2.64-1.68c1.44-1.52,2.32-3.6,2.32-5.68C128,148.5,127.76,147.46,127.36,146.5z"/>
	</g>
</g>
<g>
	<g>
		<path d="M457.088,102.78c-32.16-31.728-84.568-31.736-116.824,0l-12.24,12.072l-12.296-12.08
			c-32.24-31.712-84.648-31.728-116.816,0c-15.68,15.416-24.304,35.912-24.288,57.704c0.016,21.752,8.648,42.192,24.288,57.536
			l123.2,121.2c1.256,1.232,2.848,1.936,4.52,2.128c0.536,0.112,1.096,0.168,1.648,0.168c2.04,0,4.064-0.776,5.608-2.296
			L457.072,218.02c15.656-15.352,24.288-35.792,24.296-57.544C481.384,138.684,472.76,118.188,457.088,102.78z M445.864,206.612
			L328,322.564l-117.88-115.96c-12.56-12.328-19.488-28.704-19.504-46.136c-0.008-17.464,6.912-33.904,19.504-46.288
			c0,0,0,0,0.008-0.008c12.992-12.808,30.064-19.216,47.152-19.216c17.096,0,34.192,6.408,47.224,19.224l17.784,17.464
			c0.04,0.04,0.048,0.096,0.096,0.136l32,31.464c1.56,1.528,3.592,2.296,5.616,2.296c2.072,0,4.144-0.8,5.704-2.392
			c3.104-3.152,3.056-8.216-0.096-11.312l-26.192-25.752l12.072-11.904c26.064-25.632,68.392-25.624,94.376,0
			c12.592,12.384,19.52,28.824,19.504,46.288C465.368,177.892,458.44,194.276,445.864,206.612z"/>
	</g>
</g>
<g>
	<g>
		<path d="M389.68,175.86c-0.4-0.32-0.808-0.64-1.28-0.96c-0.4-0.32-0.88-0.56-1.36-0.72c-0.488-0.24-0.96-0.4-1.52-0.48
			c-2.552-0.48-5.36,0.32-7.192,2.16c-1.456,1.52-2.328,3.6-2.328,5.68s0.872,4.16,2.32,5.68c1.512,1.44,3.512,2.32,5.68,2.32
			c2.16,0,4.16-0.88,5.68-2.32c1.44-1.52,2.32-3.6,2.32-5.68S391.12,177.38,389.68,175.86z"/>
	</g>
</g>
<g>
</g>
<g>
</g>
<g>
</g>
<g>
</g>
<g>
</g>
<g>
</g>
<g>
</g>
<g>
</g>
<g>
</g>
<g>
</g>
<g>
</g>
<g>
</g>
<g>
</g>
<g>
</g>
<g>
</g>
</svg>
