<?xml version="1.0" encoding="iso-8859-1"?>
<!-- Generator: Adobe Illustrator 19.0.0, SVG Export Plug-In . SVG Version: 6.00 Build 0)  -->
<svg version="1.1" id="Layer_1" xmlns="http://www.w3.org/2000/svg" xmlns:xlink="http://www.w3.org/1999/xlink" x="0px" y="0px"
	 viewBox="0 0 511.975 511.975" style="enable-background:new 0 0 511.975 511.975;" xml:space="preserve">
<g>
	<path style="fill:#A4A4A4;" d="M173.559,143.174c-4.799,0-8.678-3.888-8.678-8.678V99.784c0-19.144,15.568-34.712,34.712-34.712
		c4.799,0,8.678,3.888,8.678,8.678s-3.879,8.678-8.678,8.678c-9.572,0-17.356,7.784-17.356,17.356v34.712
		C182.237,139.286,178.358,143.174,173.559,143.174"/>
	<path style="fill:#535353;" d="M503.322,380.816v-24.029h-7.09c-1.84-10.943-6.109-21.035-12.288-29.713l4.999-5.007
		l-16.991-16.991l-5.007,5.007c-8.678-6.179-18.77-10.457-29.705-12.297v-7.09h-24.038v7.09
		c-10.934,1.84-21.027,6.118-29.705,12.297l-5.007-5.007l-16.991,16.991l4.999,5.007c-6.179,8.678-10.448,18.77-12.288,29.713h-7.09
		v24.029h7.09c1.84,10.943,6.109,21.035,12.288,29.713l-4.999,4.999l16.991,16.991l5.007-4.999
		c8.678,6.179,18.77,10.448,29.705,12.288v7.09h24.038v-7.09c10.934-1.84,21.027-6.109,29.705-12.288l5.007,4.999l16.991-16.991
		l-4.999-4.999c6.179-8.678,10.448-18.77,12.288-29.713H503.322z"/>
	<path style="fill:#A4A4A4;" d="M459.932,368.801c0,19.17-15.542,34.712-34.712,34.712s-34.712-15.542-34.712-34.712
		s15.542-34.712,34.712-34.712S459.932,349.631,459.932,368.801"/>
	<path style="fill:#535353;" d="M138.847,377.479c0,38.339-31.084,69.424-69.424,69.424S0,415.818,0,377.479
		s31.084-69.424,69.424-69.424S138.847,339.14,138.847,377.479"/>
	<path style="fill:#A1352A;" d="M313.878,351.445h-180.12c3.254,8.044,5.094,16.818,5.094,26.034c0,2.942-0.252,5.832-0.607,8.678
		h175.633c-0.876-5.675-1.467-11.438-1.467-17.356S313.001,357.12,313.878,351.445"/>
	<g>
		<path style="fill:#A4A4A4;" d="M303.737,229.954c-2.491,0-4.955-1.067-6.682-3.124c-3.063-3.679-2.56-9.155,1.111-12.219
			l52.068-43.39c3.697-3.081,9.155-2.569,12.236,1.111c3.063,3.679,2.56,9.155-1.111,12.219l-52.068,43.39
			C307.66,229.294,305.699,229.954,303.737,229.954"/>
		<path style="fill:#A4A4A4;" d="M381.831,212.598c-2.222,0-4.443-0.85-6.135-2.543l-52.068-52.068
			c-3.393-3.393-3.393-8.878,0-12.271s8.878-3.393,12.271,0l52.068,52.068c3.393,3.393,3.393,8.878,0,12.271
			C386.274,211.747,384.052,212.598,381.831,212.598"/>
	</g>
	<path style="fill:#FEC44C;" d="M425.22,255.987c15.377,0,30.026,3.098,43.39,8.678V143.174c-20.098,0-37.324,14.371-40.925,34.148
		l-10.084,79.048C420.126,256.204,422.652,255.987,425.22,255.987"/>
	<polygon style="fill:#535353;" points="156.203,282.021 190.915,282.021 190.915,134.496 156.203,134.496 	"/>
	<path style="fill:#DF5548;" d="M286.373,247.309h-95.458v34.712h-34.712v-34.712H26.034v76.019
		c11.889-9.537,26.962-15.273,43.39-15.273c29.132,0,54.029,17.955,64.33,43.39h180.12c3.02-19.491,10.969-37.315,22.623-52.163
		C308.649,298.249,286.373,275.409,286.373,247.309"/>
	<g>
		<path style="fill:#A1352A;" d="M156.203,195.242H60.746c-19.17,0-34.712,15.542-34.712,34.712v17.356h130.169V195.242z"/>
		<polygon style="fill:#A1352A;" points="190.915,247.309 303.729,247.309 303.729,195.242 190.915,195.242 		"/>
	</g>
	<path style="fill:#A4A4A4;" d="M95.458,377.479c0,14.379-11.655,26.034-26.034,26.034S43.39,391.858,43.39,377.479
		c0-14.379,11.655-26.034,26.034-26.034S95.458,363.1,95.458,377.479"/>
	<g>
		<path style="fill:#A1352A;" d="M260.339,290.699h-34.712c-4.799,0-8.678-3.888-8.678-8.678c0-4.79,3.879-8.678,8.678-8.678h34.712
			c4.799,0,8.678,3.888,8.678,8.678C269.017,286.812,265.138,290.699,260.339,290.699"/>
		<path style="fill:#A1352A;" d="M277.695,316.733h-69.424c-4.799,0-8.678-3.888-8.678-8.678s3.879-8.678,8.678-8.678h69.424
			c4.799,0,8.678,3.888,8.678,8.678S282.494,316.733,277.695,316.733"/>
		<path style="fill:#A1352A;" d="M104.136,282.021c0,4.79-3.888,8.678-8.678,8.678s-8.678-3.888-8.678-8.678
			c0-4.79,3.888-8.678,8.678-8.678S104.136,277.231,104.136,282.021"/>
		<path style="fill:#A1352A;" d="M69.424,282.021c0,4.79-3.888,8.678-8.678,8.678s-8.678-3.888-8.678-8.678
			c0-4.79,3.888-8.678,8.678-8.678S69.424,277.231,69.424,282.021"/>
	</g>
	<polygon style="fill:#535353;" points="69.424,195.242 104.136,195.242 104.136,160.53 69.424,160.53 	"/>
	<path style="fill:#A4A4A4;" d="M104.136,160.53H69.424c-9.546,0-17.356-7.81-17.356-17.356c0-9.546,7.81-17.356,17.356-17.356
		h34.712c9.546,0,17.356,7.81,17.356,17.356C121.492,152.72,113.681,160.53,104.136,160.53"/>
	<path style="fill:#A1352A;" d="M321.076,420.92c-3.393,0-6.621-2.005-8.01-5.337c-6.196-14.839-9.337-30.572-9.337-46.783
		c0-66.994,54.498-121.492,121.492-121.492c31.501,0,61.362,12.002,84.081,33.801c3.463,3.315,3.575,8.817,0.26,12.271
		c-3.324,3.462-8.808,3.575-12.271,0.26c-19.473-18.684-45.073-28.976-72.071-28.976c-57.422,0-104.136,46.713-104.136,104.136
		c0,13.902,2.699,27.388,8.001,40.092c1.848,4.426-0.234,9.502-4.66,11.351C323.332,420.703,322.196,420.92,321.076,420.92"/>
</g>
<g>
</g>
<g>
</g>
<g>
</g>
<g>
</g>
<g>
</g>
<g>
</g>
<g>
</g>
<g>
</g>
<g>
</g>
<g>
</g>
<g>
</g>
<g>
</g>
<g>
</g>
<g>
</g>
<g>
</g>
</svg>
