<?xml version="1.0" encoding="iso-8859-1"?>
<!-- Generator: Adobe Illustrator 19.0.0, SVG Export Plug-In . SVG Version: 6.00 Build 0)  -->
<svg version="1.1" id="Layer_1" xmlns="http://www.w3.org/2000/svg" xmlns:xlink="http://www.w3.org/1999/xlink" x="0px" y="0px"
	 viewBox="0 0 512.001 512.001" style="enable-background:new 0 0 512.001 512.001;" xml:space="preserve">
<g>
	<g>
		<path d="M485.16,331.373l26.688-200.15c1.366-10.251-6.62-19.361-16.951-19.361c-12.445,0-377.092,0-384.578,0L99.401,29.973
			c-1.131-8.478-8.362-14.81-16.914-14.81H17.513c-8.76,0-16.444,6.417-17.406,15.124C-1.029,40.58,7,49.292,17.064,49.292h50.507
			c0.058,0.437,46.118,345.891,47.932,359.49c1.129,8.467,8.351,14.79,16.894,14.79h47.378
			c-17.13,33.366,7.242,73.266,44.813,73.266c37.51,0,61.972-39.843,44.812-73.266h76.81c-17.13,33.366,7.242,73.266,44.812,73.266
			c37.51,0,61.972-39.842,44.813-73.266h36.363c8.76,0,16.444-6.417,17.406-15.124c1.135-10.293-6.893-19.005-16.958-19.005H147.407
			l-5.764-43.23c16.987,0,308.554,0,326.568,0C476.781,346.213,484.029,339.869,485.16,331.373z M391.023,430.842
			c21.439,0,21.439,32.446,0,32.446S369.584,430.842,391.023,430.842z M224.587,430.842c21.44,0,21.439,32.446,0,32.446
			S203.147,430.842,224.587,430.842z M136.911,312.084L114.766,145.99h97.617l7.382,166.094H136.911z M336.644,312.084h-82.999
			l-7.382-166.094h97.763L336.644,312.084z M370.525,312.084l7.382-166.094h97.628l-22.146,166.094H370.525z"/>
	</g>
</g>
<g>
</g>
<g>
</g>
<g>
</g>
<g>
</g>
<g>
</g>
<g>
</g>
<g>
</g>
<g>
</g>
<g>
</g>
<g>
</g>
<g>
</g>
<g>
</g>
<g>
</g>
<g>
</g>
<g>
</g>
</svg>
