<?xml version="1.0" encoding="iso-8859-1"?>
<!-- Generator: Adobe Illustrator 19.0.0, SVG Export Plug-In . SVG Version: 6.00 Build 0)  -->
<svg version="1.1" id="Layer_1" xmlns="http://www.w3.org/2000/svg" xmlns:xlink="http://www.w3.org/1999/xlink" x="0px" y="0px"
	 viewBox="0 0 512.001 512.001" style="enable-background:new 0 0 512.001 512.001;" xml:space="preserve">
<path style="fill:#F95428;" d="M425.63,18.739c6.742,6.742,10.112,15.573,10.112,24.404c0,8.693-3.267,17.385-9.812,24.081
	l-48.784-48.784C390.641,5.267,412.262,5.371,425.63,18.739z"/>
<path style="fill:#666666;" d="M425.93,67.223c-0.092,0.115-0.196,0.219-0.3,0.323l-96.668,96.668l-48.796-48.796l96.668-96.68
	c0.104-0.104,0.208-0.208,0.312-0.3L425.93,67.223z"/>
<path style="fill:#E6E6E6;" d="M328.962,164.215l74.504,74.504c-11.775,16.392-24.057,32.392-36.848,47.976
	c-17.558,17.835-46.499,39.688-82.77,39.688c-39.249,0-69.737,11.417-87.722,48.473c-20.34,41.904-71.711,18.62-71.711,18.62v0.012
	l-38.961-38.961c-12.26-12.26-12.26-32.138,0-44.398l194.711-194.711L328.962,164.215z M143.579,329.72
	c0-8.289-6.719-15.007-15.007-15.007c-8.289,0-15.007,6.719-15.007,15.007c0,8.288,6.719,15.007,15.007,15.007
	C136.86,344.727,143.579,338.008,143.579,329.72z"/>
<g>
	<path style="fill:#F95428;" d="M283.848,326.383c36.271,0,65.211-21.853,82.77-39.688
		c-50.054,61.067-107.612,115.693-171.369,162.549l-8.693,6.384l-62.141-62.141v-0.012c0,0,51.37,23.284,71.711-18.62
		C214.112,337.8,244.599,326.383,283.848,326.383z"/>
	<path style="fill:#F95428;" d="M296.42,457.753c10.424,10.424,10.424,27.336,0,37.772c-5.218,5.206-12.052,7.815-18.886,7.815
		s-13.668-2.609-18.886-7.815c-10.424-10.436-10.424-27.347,0-37.772l18.886-18.886L296.42,457.753z"/>
</g>
<g>
	<path style="fill:#333333;" d="M283.656,432.745c-1.623-1.624-3.824-2.536-6.122-2.536s-4.497,0.912-6.123,2.536l-18.882,18.885
		c-6.68,6.679-10.359,15.56-10.359,25.006s3.679,18.326,10.358,25.006c6.679,6.68,15.56,10.358,25.006,10.358
		s18.327-3.679,25.008-10.358c13.787-13.788,13.787-36.224,0-50.013L283.656,432.745z M290.298,489.398
		c-3.41,3.409-7.942,5.286-12.764,5.286c-4.821,0-9.354-1.877-12.762-5.286c0,0,0,0-0.001,0c-3.409-3.409-5.286-7.941-5.286-12.762
		c0-4.821,1.877-9.354,5.287-12.763l12.762-12.763l12.763,12.763C297.334,470.912,297.334,482.362,290.298,489.398z"/>
	<path style="fill:#333333;" d="M431.759,12.622c-16.831-16.83-44.215-16.829-61.046,0l-96.674,96.674L79.332,304.002
		c-15.615,15.618-15.615,41.029,0,56.648l101.102,101.102c1.677,1.677,3.895,2.536,6.125,2.536c1.792,0,3.59-0.553,5.124-1.682
		l8.689-6.386c80.878-59.444,151.574-130.921,210.123-212.448c2.474-3.445,2.089-8.174-0.91-11.172l-68.381-68.381l90.553-90.553
		C448.588,56.836,448.588,29.452,431.759,12.622z M419.514,24.867c7.813,7.813,9.541,19.413,5.241,28.935L390.58,19.627
		C400.099,15.326,411.701,17.052,419.514,24.867z M190.12,442.267l-2.698,1.983l-35.746-35.746c0.212,0.01,0.423,0.023,0.636,0.031
		c0.959,0.036,1.906,0.054,2.847,0.054c22.399,0,39.221-10.313,48.753-29.947c14.837-30.562,38.744-43.602,79.936-43.602
		c12.16,0,23.518-2.223,33.971-5.864C278.866,370.593,236.176,408.417,190.12,442.267z M360.271,280.8
		c-16.676,16.889-43.417,36.924-76.422,36.924c-47.492,0-77.842,16.954-95.513,53.355c-6.833,14.075-18.25,20.665-34.929,20.167
		c-10.908-0.33-20.642-3.754-24.098-5.11l-37.731-37.73c-8.867-8.867-8.867-23.293,0-32.16l188.583-188.583l111.962,111.962
		C381.873,253.664,371.249,267.39,360.271,280.8z M292.406,115.418l84.739-84.739l36.556,36.556l-84.739,84.739L292.406,115.418z"/>
	<path style="fill:#333333;" d="M128.57,306.057c-13.049,0-23.665,10.616-23.665,23.665s10.616,23.665,23.665,23.665
		s23.665-10.616,23.665-23.665S141.618,306.057,128.57,306.057z M128.57,336.071c-3.501,0-6.349-2.848-6.349-6.349
		s2.848-6.349,6.349-6.349c3.501,0,6.349,2.848,6.349,6.349S132.072,336.071,128.57,336.071z"/>
	<circle style="fill:#333333;" cx="334" cy="110.371" r="8.658"/>
	<circle style="fill:#333333;" cx="373.78" cy="70.602" r="8.658"/>
</g>
<g>
</g>
<g>
</g>
<g>
</g>
<g>
</g>
<g>
</g>
<g>
</g>
<g>
</g>
<g>
</g>
<g>
</g>
<g>
</g>
<g>
</g>
<g>
</g>
<g>
</g>
<g>
</g>
<g>
</g>
</svg>
