<?xml version="1.0" encoding="iso-8859-1"?>
<!-- Generator: Adobe Illustrator 19.0.0, SVG Export Plug-In . SVG Version: 6.00 Build 0)  -->
<svg version="1.1" id="Layer_1" xmlns="http://www.w3.org/2000/svg" xmlns:xlink="http://www.w3.org/1999/xlink" x="0px" y="0px"
	 viewBox="0 0 512.003 512.003" style="enable-background:new 0 0 512.003 512.003;" xml:space="preserve">
<path style="fill:#F95428;" d="M164.844,374.08l-0.012,0.012L125.65,503.123l-28.695-49.28l-29.689-9.103l-9.103-29.689
	l-49.28-28.695l129.043-39.183l0.012-0.012c3.835,4.972,8.038,9.754,12.595,14.312C155.09,366.03,159.872,370.244,164.844,374.08z"
	/>
<polygon style="fill:#E54728;" points="150.532,361.473 96.955,453.842 125.65,503.123 175.51,361.674 "/>
<g>
	<circle style="fill:#F95428;" cx="256.005" cy="256.002" r="114.305"/>
	<path style="fill:#F95428;" d="M503.119,125.642l-129.031,39.183l-0.012,0.012c-3.835-4.972-8.038-9.754-12.595-14.312
		c-4.558-4.558-9.34-8.76-14.3-12.607L386.351,8.875l28.706,49.269l29.677,9.115l9.127,29.677L503.119,125.642z"/>
</g>
<path style="fill:#F7B239;" d="M374.076,164.836c45.291,58.502,41.089,142.94-12.595,196.636
	c-53.696,53.696-138.122,57.898-196.636,12.607c-4.972-3.835-9.754-8.05-14.312-12.607s-8.76-9.34-12.595-14.312
	c-45.303-58.502-41.101-142.94,12.595-196.636c53.696-53.684,138.134-57.886,196.648-12.607c4.96,3.847,9.742,8.05,14.3,12.607
	C366.038,155.082,370.24,159.865,374.076,164.836z M336.834,336.827c44.64-44.64,44.64-117.016,0-161.656s-117.016-44.64-161.656,0
	s-44.64,117.016,0,161.656S292.194,381.467,336.834,336.827z"/>
<g>
	<path style="fill:#333333;" d="M168.902,168.896c-23.267,23.266-36.08,54.201-36.08,87.104s12.813,63.837,36.08,87.104
		c24.015,24.015,55.559,36.022,87.104,36.022s63.089-12.007,87.104-36.022c48.028-48.029,48.028-126.178,0-174.208
		C295.079,120.865,216.931,120.865,168.902,168.896z M330.553,330.548c-41.106,41.105-107.991,41.106-149.096,0
		c-19.912-19.912-30.879-46.388-30.879-74.548c0-28.161,10.966-54.636,30.879-74.549c20.553-20.553,47.551-30.829,74.548-30.829
		c26.998,0,53.994,10.276,74.548,30.829C371.66,222.557,371.66,289.441,330.553,330.548z"/>
	<path style="fill:#333333;" d="M507.594,117.974l-46.269-26.958l-8.098-26.361c-0.863-2.814-3.066-5.016-5.88-5.88l-26.36-8.097
		l-26.959-46.27c-1.779-3.051-5.191-4.758-8.703-4.348c-3.508,0.41-6.437,2.86-7.465,6.24l-35.595,117.232
		c-25.434-16.636-55.159-25.569-86.261-25.569c-42.213,0-81.9,16.439-111.749,46.289c-29.85,29.849-46.289,69.536-46.289,111.749
		c0,31.102,8.934,60.828,25.572,86.264L6.301,377.861c-3.38,1.026-5.829,3.957-6.24,7.466s1.299,6.925,4.35,8.702l46.276,26.949
		l8.089,26.367c0.864,2.816,3.068,5.02,5.885,5.885l26.366,8.089l26.949,46.275c1.603,2.751,4.537,4.411,7.67,4.411
		c0.342,0,0.687-0.02,1.032-0.06c3.508-0.41,6.439-2.859,7.466-6.238l35.615-117.263c26.108,17.011,56.176,25.525,86.247,25.525
		c40.471,0,80.94-15.404,111.749-46.214c53.703-53.705,60.594-136.759,20.685-198.003l117.263-35.604
		c3.379-1.026,5.829-3.957,6.24-7.465C512.353,123.171,510.646,119.752,507.594,117.974z M123.071,481.055l-18.448-31.678
		c-1.123-1.93-2.933-3.364-5.068-4.02l-25.184-7.725l-7.725-25.185c-0.655-2.134-2.091-3.944-4.02-5.068l-31.675-18.447
		l103.839-31.527c2.99,3.561,6.14,7.017,9.468,10.344c3.339,3.339,6.8,6.487,10.354,9.465L123.071,481.055z M355.198,355.193
		c-26.495,26.495-61.723,41.086-99.193,41.086s-72.698-14.591-99.193-41.086c-26.495-26.495-41.088-61.723-41.088-99.193
		s14.592-72.698,41.088-99.193s61.723-41.088,99.193-41.088s72.698,14.592,99.193,41.088
		C409.893,211.501,409.893,300.498,355.198,355.193z M377.214,154.598c-2.976-3.553-6.121-7.009-9.458-10.347
		c-3.328-3.328-6.784-6.479-10.346-9.47l31.529-103.839l18.455,31.674c1.123,1.927,2.932,3.362,5.064,4.018l25.18,7.734l7.735,25.18
		c0.655,2.133,2.089,3.941,4.018,5.064l31.674,18.455L377.214,154.598z"/>
</g>
<g>
	<path style="fill:#A51C0A;" d="M328.722,263.275c10.101-11.919,9.809-29.979-0.825-41.549
		c-6.321-6.878-15.267-10.566-24.611-10.139c-0.341,0.017-0.662-0.098-0.787-0.283c-2.468-3.588-5.316-6.953-8.466-10.002
		c-25.449-24.627-66.614-24.371-91.765,0.574c-12.475,12.373-19.363,28.86-19.398,46.426c-0.036,17.566,6.785,34.082,19.206,46.501
		c2.842,2.843,5.954,5.434,9.25,7.699c0.174,0.12,0.284,0.439,0.269,0.775c-0.433,9.321,3.262,18.292,10.14,24.613
		c5.941,5.461,13.592,8.195,21.245,8.194c7.251,0,14.504-2.455,20.303-7.37l1.199,1.199c2.879,2.874,7.191,3.793,10.979,2.347
		c26.138-9.964,46.843-30.67,56.809-56.81c1.445-3.793,0.522-8.102-2.352-10.982L328.722,263.275z M314.898,252.111
		c-0.342,0.379-0.708,0.74-1.087,1.078c-2.778,2.469-4.433,6.016-4.542,9.731c-0.109,3.713,1.336,7.35,3.963,9.978l0.62,0.62
		c-8.065,17.894-22.432,32.263-40.329,40.328l-0.619-0.62c-2.628-2.628-6.273-4.067-9.98-3.963c-3.715,0.11-7.261,1.766-9.725,4.539
		c-0.34,0.381-0.704,0.748-1.086,1.093c-5.167,4.674-13.236,4.639-18.365-0.077c-2.996-2.755-4.607-6.659-4.419-10.714
		c0.304-6.534-2.666-12.602-7.945-16.233c-2.404-1.653-4.676-3.544-6.755-5.622c-9.057-9.057-14.031-21.101-14.005-33.91
		c0.026-12.81,5.05-24.833,14.147-33.856c9.248-9.173,21.461-13.766,33.681-13.766c12.012,0,24.032,4.444,33.231,13.346
		c2.304,2.229,4.385,4.687,6.185,7.304c0,0,0.001,0.001,0.001,0.002c3.635,5.284,9.703,8.264,16.24,7.955
		c4.035-0.182,7.958,1.421,10.713,4.418C319.538,238.873,319.574,246.94,314.898,252.111z"/>
	<circle style="fill:#A51C0A;" cx="284.605" cy="254.653" r="8.878"/>
	<circle style="fill:#A51C0A;" cx="254.656" cy="284.602" r="8.878"/>
	<circle style="fill:#A51C0A;" cx="281.03" cy="281.086" r="8.878"/>
</g>
<g>
</g>
<g>
</g>
<g>
</g>
<g>
</g>
<g>
</g>
<g>
</g>
<g>
</g>
<g>
</g>
<g>
</g>
<g>
</g>
<g>
</g>
<g>
</g>
<g>
</g>
<g>
</g>
<g>
</g>
</svg>
