<?xml version="1.0" encoding="iso-8859-1"?>
<!-- Generator: Adobe Illustrator 19.0.0, SVG Export Plug-In . SVG Version: 6.00 Build 0)  -->
<svg version="1.1" id="Layer_1" xmlns="http://www.w3.org/2000/svg" xmlns:xlink="http://www.w3.org/1999/xlink" x="0px" y="0px"
	 viewBox="0 0 511.808 511.808" style="enable-background:new 0 0 511.808 511.808;" xml:space="preserve">
<g>
	<g>
		<g>
			<rect x="283.128" y="16.592" width="157.928" height="42.52"/>
			<rect x="283.128" y="139.744" width="157.928" height="42.52"/>
			<rect x="283.128" y="78.168" width="157.928" height="42.52"/>
			<path d="M153.728,0c-36.512,0-66.112,29.152-66.112,65.12c0,21.396,10.476,40.378,26.648,52.248v85.392l39.472-22.512
				L193.2,202.8v-85.438c16.168-11.871,26.64-30.85,26.64-52.242C219.84,29.152,190.24,0,153.728,0z M177.2,175.232l-23.464-13.4
				l-23.472,13.376v-49.204c7.294,2.729,15.199,4.236,23.464,4.236c8.268,0,16.176-1.508,23.472-4.239V175.232z M153.728,114.24
				c-27.632,0-50.112-22.032-50.112-49.12S126.096,16,153.728,16c27.632,0,50.112,22.032,50.112,49.12S181.36,114.24,153.728,114.24
				z"/>
			<path d="M182.872,261.04l-12.312-10.52l-10.376,12.424l-36.288,43.432l-7.496-7.184l-11.688-11.2l-11.064,11.824l-13.096,14
				L69.744,325.36l11.416,10.936l34.496,33.048l12.368,11.848L139,368.048l60.288-72.144l10.144-12.136l-12.016-10.28
				L182.872,261.04z M126.728,357.792l-34.496-33.048l13.096-14l19.864,19.032l47.272-56.576l14.544,12.448L126.728,357.792z"/>
			<rect x="224.144" y="289.424" width="217.92" height="16"/>
			<rect x="224.144" y="325.448" width="217.92" height="16"/>
			<path d="M182.864,391.664l-12.304-10.528l-10.376,12.424l-36.288,43.432l-7.496-7.184l-11.688-11.2l-11.064,11.824l-13.096,14
				l-10.808,11.544l11.416,10.936l34.496,33.048l12.368,11.848L139,498.664l60.28-72.144l10.144-12.136l-12.016-10.28
				L182.864,391.664z M126.728,488.408L92.232,455.36l13.096-14l19.864,19.032l47.272-56.576l14.544,12.448L126.728,488.408z"/>
			<rect x="224.144" y="419.984" width="217.92" height="16"/>
			<rect x="224.144" y="456.064" width="217.92" height="16"/>
		</g>
	</g>
</g>
<g>
</g>
<g>
</g>
<g>
</g>
<g>
</g>
<g>
</g>
<g>
</g>
<g>
</g>
<g>
</g>
<g>
</g>
<g>
</g>
<g>
</g>
<g>
</g>
<g>
</g>
<g>
</g>
<g>
</g>
</svg>
