<?xml version="1.0" encoding="iso-8859-1"?>
<!-- Generator: Adobe Illustrator 19.0.0, SVG Export Plug-In . SVG Version: 6.00 Build 0)  -->
<svg version="1.1" id="Layer_1" xmlns="http://www.w3.org/2000/svg" xmlns:xlink="http://www.w3.org/1999/xlink" x="0px" y="0px"
	 viewBox="0 0 512.008 512.008" style="enable-background:new 0 0 512.008 512.008;" xml:space="preserve">
<g>
	<g>
		<g>
			<path d="M74.524,323.248c0,25.624,20.792,46.4,46.44,46.4s46.44-20.776,46.44-46.4h-46.44v-46.4
				C95.316,276.848,74.524,297.624,74.524,323.248z"/>
			<path d="M130.54,267.28v46.4h46.44C176.972,288.056,156.188,267.28,130.54,267.28z"/>
			<path d="M120.964,419.208c-25.648,0-46.44,20.776-46.44,46.4c0,25.624,20.792,46.4,46.44,46.4s46.44-20.776,46.44-46.4h-46.44
				V419.208z"/>
			<path d="M130.54,409.64v46.4h46.44C176.972,430.416,156.188,409.64,130.54,409.64z"/>
			<rect x="211.828" y="296" width="226.872" height="16"/>
			<rect x="211.828" y="334.072" width="226.872" height="16"/>
			<rect x="211.828" y="433.92" width="226.872" height="16"/>
			<rect x="211.828" y="472" width="226.872" height="16"/>
			<rect x="287.54" y="140.032" width="16" height="34.912"/>
			<rect x="320.884" y="58.944" width="16" height="116.008"/>
			<rect x="354.324" width="16" height="174.952"/>
			<rect x="387.684" y="55.248" width="16" height="119.704"/>
			<rect x="421.06" y="111.584" width="16" height="63.36"/>
			<path d="M155.388,80.912c22.36,0,40.496-18.112,40.496-40.456S177.748,0,155.388,0c-22.36,0-40.496,18.112-40.496,40.456
				S133.02,80.912,155.388,80.912z M155.388,16c13.504,0,24.496,10.968,24.496,24.456S168.9,64.912,155.388,64.912
				c-13.512,0-24.496-10.968-24.496-24.456S141.884,16,155.388,16z"/>
			<path d="M114.348,90.208c0,0-41.04,0.544-41.04,38.272c0,37.728,0,46.472,0,46.472s79.888,0,80.168,0L114.348,90.208z
				 M89.308,128.48c0-12.968,8.168-18.408,15.536-20.68l23.616,51.152H89.308V128.48z"/>
			<path d="M237.468,174.952c0,0,0-8.744,0-46.472c0-37.728-41.04-38.272-41.04-38.272L157.3,174.952H237.468z M205.836,108
				c1.392,0.44,2.84,0.984,4.272,1.656c7.856,3.712,11.36,9.52,11.36,18.816v30.472h-39.152L205.836,108z"/>
			<polygon points="130.964,94.368 155.388,148.376 179.812,94.368 155.388,94.368 			"/>
		</g>
	</g>
</g>
<g>
</g>
<g>
</g>
<g>
</g>
<g>
</g>
<g>
</g>
<g>
</g>
<g>
</g>
<g>
</g>
<g>
</g>
<g>
</g>
<g>
</g>
<g>
</g>
<g>
</g>
<g>
</g>
<g>
</g>
</svg>
