<?xml version="1.0" encoding="iso-8859-1"?>
<!-- Generator: Adobe Illustrator 19.0.0, SVG Export Plug-In . SVG Version: 6.00 Build 0)  -->
<svg version="1.1" id="Layer_1" xmlns="http://www.w3.org/2000/svg" xmlns:xlink="http://www.w3.org/1999/xlink" x="0px" y="0px"
	 viewBox="0 0 511.707 511.707" style="enable-background:new 0 0 511.707 511.707;" xml:space="preserve">
<g transform="translate(1 1)">
	<polygon style="fill:#DB4D6C;" points="323.227,92.574 135.494,92.574 323.227,7.241 	"/>
	<polygon style="fill:#FD9808;" points="220.827,502.174 374.427,502.174 374.427,92.574 220.827,92.574 	"/>
	<polygon style="fill:#FFFFFF;" points="135.494,502.174 289.094,502.174 289.094,92.574 135.494,92.574 	"/>
	<polygon style="fill:#FFDD09;" points="161.094,502.174 348.827,502.174 348.827,92.574 161.094,92.574 	"/>
	<path d="M374.427,510.707H135.494c-5.12,0-8.533-3.413-8.533-8.533v-409.6c0-5.12,3.413-8.533,8.533-8.533h238.933
		c5.12,0,8.533,3.413,8.533,8.533v409.6C382.96,507.294,379.547,510.707,374.427,510.707z M144.027,493.641h221.867V101.107H144.027
		V493.641z"/>
	<path d="M323.227,101.107H135.494c-4.267,0-7.68-2.56-8.533-6.827c-0.853-4.267,0.853-7.68,5.12-9.387L319.814-0.439
		c2.56-0.853,5.973-0.853,8.533,0.853c1.707,0.853,3.413,4.267,3.413,6.827v85.333C331.76,97.694,328.347,101.107,323.227,101.107z
		 M174.747,84.041h139.947V20.894L174.747,84.041z"/>
	<path d="M323.227,459.507H186.694c-5.12,0-8.533-3.413-8.533-8.533s3.413-8.533,8.533-8.533h136.533
		c5.12,0,8.533,3.413,8.533,8.533S328.347,459.507,323.227,459.507z"/>
	<path d="M289.094,425.374h-68.267c-5.12,0-8.533-3.413-8.533-8.533s3.413-8.533,8.533-8.533h68.267c5.12,0,8.533,3.413,8.533,8.533
		S294.214,425.374,289.094,425.374z"/>
	<path d="M314.694,322.974c-2.56,0-4.267-0.853-5.973-2.56l-85.333-85.333c-3.413-3.413-3.413-8.533,0-11.947s8.533-3.413,11.947,0
		l85.333,85.333c3.413,3.413,3.413,8.533,0,11.947C318.96,322.121,317.254,322.974,314.694,322.974z"/>
	<path d="M246.427,254.707c-2.56,0-4.267-0.853-5.973-2.56l-68.267-68.267c-2.56-2.56-3.413-6.827-1.707-9.387
		c1.707-3.413,5.12-5.12,8.533-5.12l51.2,5.973c14.507,1.707,24.747,13.653,24.747,28.16v42.667c0,3.413-1.707,6.827-5.12,7.68
		C248.987,254.707,247.28,254.707,246.427,254.707z M202.054,189.854l35.84,35.84v-21.333c0-5.973-4.267-10.24-10.24-11.093
		L202.054,189.854z"/>
	<path d="M195.227,322.974c-2.56,0-4.267-0.853-5.973-2.56c-3.413-3.413-3.413-8.533,0-11.947l102.4-102.4
		c3.413-3.413,8.533-3.413,11.947,0s3.413,8.533,0,11.947l-102.4,102.4C199.494,322.121,197.787,322.974,195.227,322.974z"/>
	<path d="M310.427,226.547c-6.827,0-12.8-2.56-17.92-7.68l-2.56-2.56c-9.387-9.387-10.24-25.6-0.853-35.84l19.627-17.92
		c3.413-3.413,8.533-2.56,11.947,0.853s2.56,8.533-0.853,11.947l-18.773,17.067c-2.56,2.56-2.56,7.68,0.853,11.093l2.56,2.56
		c1.707,1.707,3.413,2.56,5.973,2.56l0,0c2.56,0,4.267-0.853,5.973-2.56l17.92-17.92c3.413-3.413,8.533-3.413,11.947,0
		s3.413,8.533,0,11.947l-17.92,17.92C324.08,223.987,318.107,226.547,310.427,226.547
		C311.28,226.547,311.28,226.547,310.427,226.547z"/>
</g>
<g>
</g>
<g>
</g>
<g>
</g>
<g>
</g>
<g>
</g>
<g>
</g>
<g>
</g>
<g>
</g>
<g>
</g>
<g>
</g>
<g>
</g>
<g>
</g>
<g>
</g>
<g>
</g>
<g>
</g>
</svg>
