<?xml version="1.0" encoding="iso-8859-1"?>
<!-- Generator: Adobe Illustrator 19.0.0, SVG Export Plug-In . SVG Version: 6.00 Build 0)  -->
<svg version="1.1" id="Layer_1" xmlns="http://www.w3.org/2000/svg" xmlns:xlink="http://www.w3.org/1999/xlink" x="0px" y="0px"
	 viewBox="0 0 503.607 503.607" style="enable-background:new 0 0 503.607 503.607;" xml:space="preserve">
<g transform="translate(1 1)">
	<polygon style="fill:#FFDD09;" points="77.059,393.492 55.236,416.154 7.393,368.311 30.056,345.649 	"/>
	<polygon style="fill:#FD9808;" points="111.472,382.58 88.81,405.243 18.305,333.898 40.128,311.236 	"/>
	<polygon style="fill:#FFDD09;" points="358.239,159.315 123.223,394.331 28.377,299.485 267.59,66.148 	"/>
	<path style="fill:#FD9808;" d="M343.131,343.131c0-23.502-18.466-41.967-41.967-41.967c-23.502,0-41.967,18.466-41.967,41.967
		c0,23.502,18.466,41.967,41.967,41.967C324.666,385.098,343.131,366.633,343.131,343.131"/>
	<g>
		<path style="fill:#FFDD09;" d="M334.738,317.951c5.036,6.715,8.393,15.948,8.393,25.18c0,9.233-3.357,18.466-8.393,25.18h125.902
			v-50.361H334.738z"/>
		<path style="fill:#FFDD09;" d="M293.61,302.003L255,263.393l-35.252,35.252l40.289,40.289
			C261.715,320.469,275.144,305.361,293.61,302.003"/>
		<path style="fill:#FFDD09;" d="M494.213,435.459h-16.787c-9.233,0-16.787-7.554-16.787-16.787V265.911
			c0-9.233,7.554-16.787,16.787-16.787h16.787V435.459z"/>
	</g>
	<path d="M494.213,443.852h-16.787c-14.269,0-25.18-10.911-25.18-25.18V265.911c0-14.269,10.911-25.18,25.18-25.18h16.787
		c5.036,0,8.393,3.357,8.393,8.393v186.334C502.607,440.495,499.249,443.852,494.213,443.852z M477.426,257.518
		c-5.036,0-8.393,3.357-8.393,8.393v152.761c0,5.036,3.357,8.393,8.393,8.393h8.393V257.518H477.426z"/>
	<path d="M301.164,393.492c-27.698,0-50.361-22.662-50.361-50.361c0-27.698,22.662-50.361,50.361-50.361
		c27.698,0,50.361,22.662,50.361,50.361C351.525,370.829,328.862,393.492,301.164,393.492z M301.164,309.557
		c-18.466,0-33.574,15.108-33.574,33.574s15.108,33.574,33.574,33.574s33.574-15.108,33.574-33.574S319.629,309.557,301.164,309.557
		z"/>
	<path d="M123.223,402.725c-2.518,0-4.197-0.839-5.875-2.518l-94.846-94.846c-1.679-1.679-2.518-3.357-2.518-5.875
		s0.839-4.197,2.518-5.875L261.715,60.272c1.679-1.679,3.357-2.518,5.875-2.518l0,0c2.518,0,4.197,0.839,5.875,2.518l90.649,93.167
		c3.357,3.357,3.357,8.393,0,11.751L129.098,400.207C127.42,401.885,125.741,402.725,123.223,402.725z M40.128,299.485
		l83.095,83.095l223.266-223.266L267.59,77.898L40.128,299.485z"/>
	<path d="M88.81,413.636c-2.518,0-4.197-0.839-5.875-2.518L11.59,339.774c-1.679-1.679-2.518-3.357-2.518-5.875
		c0-2.518,0.839-4.197,2.518-5.875l22.662-22.662c3.357-3.357,8.393-3.357,11.751,0l71.344,71.344
		c1.679,1.679,2.518,3.357,2.518,5.875c0,2.518-0.839,4.197-2.518,5.875l-22.662,22.662
		C93.846,412.797,91.328,413.636,88.81,413.636z M30.056,333.898l58.754,59.593l10.911-10.911l-59.593-59.593L30.056,333.898z"/>
	<path d="M55.236,424.548c-2.518,0-4.197-0.839-5.875-2.518L1.518,374.187c-3.357-3.357-3.357-8.393,0-11.751l22.662-22.662
		c3.357-3.357,8.393-3.357,11.751,0l47.003,47.843c3.357,3.357,3.357,8.393,0,11.751L60.272,422.03
		C59.433,423.708,56.915,424.548,55.236,424.548z M19.144,368.311l35.252,35.252l10.911-10.072l-35.252-35.252L19.144,368.311z"/>
	<path d="M299.485,179.459c-2.518,0-4.197-0.839-5.875-2.518c-3.357-3.357-3.357-8.393,0-11.751l35.252-35.252
		c3.357-3.357,8.393-3.357,11.751,0s3.357,8.393,0,11.751l-35.252,35.252C303.682,178.62,301.164,179.459,299.485,179.459z"/>
	<path d="M287.734,144.207c-2.518,0-4.197-0.839-5.875-2.518c-3.357-3.357-3.357-8.393,0-11.751l24.341-24.341
		c3.357-3.357,8.393-3.357,11.751,0c3.357,3.357,3.357,8.393,0,11.751l-24.341,24.341
		C291.931,143.367,289.413,144.207,287.734,144.207z"/>
	<path d="M460.639,376.705H334.738c-3.357,0-5.875-1.679-7.554-5.036c-1.679-2.518-0.839-5.875,0.839-8.393
		c4.197-5.875,6.715-12.59,6.715-20.144s-2.518-14.269-6.715-20.144c-1.679-2.518-2.518-5.875-0.839-8.393
		c1.679-2.518,4.197-5.036,7.554-5.036h125.902c5.036,0,8.393,3.357,8.393,8.393v50.361
		C469.033,373.348,465.675,376.705,460.639,376.705z M349.007,359.918h103.239v-33.574H349.007
		c1.679,5.036,3.357,10.911,3.357,16.787C352.364,349.007,350.685,354.882,349.007,359.918z"/>
	<path d="M260.036,347.328c-2.518,0-4.197-0.839-5.875-2.518l-40.289-40.289c-1.679-1.679-2.518-3.357-2.518-5.875
		c0-2.518,0.839-4.197,2.518-5.875l35.252-35.252c3.357-3.357,8.393-3.357,11.751,0l38.61,38.61
		c2.518,2.518,3.357,5.036,1.679,8.393c-0.839,3.357-3.357,5.036-6.715,5.875c-14.269,2.518-26.02,15.108-26.859,30.216
		c0,3.357-2.518,5.875-5.875,6.715C261.715,347.328,260.875,347.328,260.036,347.328z M231.498,298.646l24.341,24.341
		c5.036-10.911,12.59-19.305,22.662-24.341L255,275.144L231.498,298.646z"/>
</g>
<g>
</g>
<g>
</g>
<g>
</g>
<g>
</g>
<g>
</g>
<g>
</g>
<g>
</g>
<g>
</g>
<g>
</g>
<g>
</g>
<g>
</g>
<g>
</g>
<g>
</g>
<g>
</g>
<g>
</g>
</svg>
