<?xml version="1.0" encoding="iso-8859-1"?>
<!-- Generator: Adobe Illustrator 19.0.0, SVG Export Plug-In . SVG Version: 6.00 Build 0)  -->
<svg version="1.1" id="Layer_1" xmlns="http://www.w3.org/2000/svg" xmlns:xlink="http://www.w3.org/1999/xlink" x="0px" y="0px"
	 viewBox="0 0 512 512" style="enable-background:new 0 0 512 512;" xml:space="preserve">
<g>
	<path style="fill:#ABB8B9;" d="M341.333,255.832c-11.78,0-21.333-9.551-21.333-21.332c0-11.782,9.553-21.333,21.333-21.333
		c11.784,0,21.335,9.551,21.335,21.333C362.668,246.28,353.116,255.832,341.333,255.832L341.333,255.832z M458.667,127.833H223.999
		v213.333h234.667V127.833H458.667z"/>
	<circle style="fill:#657694;" cx="341.338" cy="234.503" r="21.334"/>
	<path style="fill:#FCD051;" d="M223.999,341.165V127.833h234.667v213.333H223.999L223.999,341.165z M181.332,127.831v213.337
		c0,23.465,19.199,42.665,42.667,42.665h234.667c7.756,0,15.049-2.099,21.333-5.755c12.731-7.404,21.333-21.199,21.333-36.91
		V127.831c0-23.466-19.197-42.665-42.666-42.665H223.999c-15.71,0-29.507,8.604-36.913,21.334
		C183.431,112.783,181.332,120.074,181.332,127.831z"/>
	<path style="fill:#ED8C18;" d="M187.087,106.5C194.492,93.77,208.29,85.166,224,85.166V42.501h-42.667v21.333v42.667h5.754V106.5z"
		/>
	<g>
		<rect x="223.996" y="42.501" style="fill:#FCD051;" width="234.663" height="42.666"/>
		<rect x="53.333" y="63.833" style="fill:#FCD051;" width="127.999" height="42.667"/>
		<path style="fill:#FCD051;" d="M181.332,106.5H53.333H32.001c-11.733,0-21.334,9.599-21.334,21.333v320.333
			c0,11.734,9.601,21.333,21.334,21.333h426.665c11.734,0,21.333-9.599,21.333-21.333v-21.504v-48.585
			c-6.284,3.657-13.576,5.755-21.333,5.755H223.999c-23.467,0-42.667-19.199-42.667-42.665V127.831
			c0-7.756,2.098-15.048,5.755-21.331H181.332L181.332,106.5z M74.668,181.166h42.668c11.733,0,21.332,9.599,21.332,21.334v64
			c0,11.734-9.599,21.333-21.332,21.333H74.668c-11.734,0-21.335-9.599-21.335-21.333v-63.999
			C53.333,190.765,62.934,181.166,74.668,181.166L74.668,181.166z M96.001,341.163c11.782,0,21.335,9.554,21.335,21.335
			c0,11.782-9.553,21.335-21.335,21.335s-21.335-9.553-21.335-21.335C74.666,350.717,84.219,341.163,96.001,341.163z"/>
	</g>
	<path style="fill:#ED8C18;" d="M117.336,181.166H74.668c-11.734,0-21.335,9.599-21.335,21.334v64
		c0,11.734,9.601,21.333,21.335,21.333h42.668c11.733,0,21.332-9.599,21.332-21.333v-63.999
		C138.668,190.765,129.069,181.166,117.336,181.166z"/>
	<circle style="fill:#D12D4E;" cx="96.001" cy="362.503" r="21.335"/>
</g>
<g>
	<path style="fill:#000003;" d="M341.335,202.499c-17.645,0-32,14.355-32,32c0,17.644,14.355,31.999,32,31.999
		c17.645,0,32-14.355,32-31.999C373.335,216.854,358.979,202.499,341.335,202.499z M341.335,245.164
		c-5.881,0-10.665-4.784-10.665-10.664c0-5.881,4.784-10.665,10.665-10.665S352,228.619,352,234.5
		C352,240.38,347.215,245.164,341.335,245.164z"/>
	<path style="fill:#000003;" d="M469.334,75.573V42.501c0-5.892-4.776-10.667-10.668-10.667H181.333
		c-5.892,0-10.667,4.776-10.667,10.667v10.665H53.333c-5.892,0-10.667,4.776-10.667,10.667v31.999H32.001
		C14.355,95.832,0,110.188,0,127.833v320.333c0,17.645,14.355,32,32.001,32h426.665c17.645,0,32-14.355,32-32v-64.361
		C503.612,374.065,512,358.578,512,341.168V127.831C512,102.076,493.649,80.528,469.334,75.573z M490.665,127.831v213.337
		c0,11.717-6.335,21.978-15.756,27.553c-0.091,0.049-0.186,0.084-0.275,0.135c-3.598,2.094-7.571,3.451-11.671,4.012
		c-0.095,0.013-0.191,0.025-0.286,0.037c-0.542,0.068-1.086,0.121-1.629,0.162c-0.147,0.011-0.291,0.025-0.439,0.033
		c-0.645,0.041-1.293,0.065-1.941,0.065H223.999c-17.644,0-31.999-14.354-31.999-31.997V127.831c0-0.649,0.025-1.296,0.065-1.941
		c0.009-0.146,0.022-0.291,0.033-0.437c0.042-0.545,0.094-1.089,0.162-1.63c0.012-0.095,0.023-0.191,0.036-0.286
		c0.561-4.101,1.918-8.073,4.012-11.671c0.051-0.09,0.086-0.185,0.135-0.274c5.576-9.422,15.837-15.757,27.555-15.757h234.667
		C476.311,95.834,490.665,110.188,490.665,127.831z M447.999,74.499H234.667v-21.33h213.332v21.33H447.999z M192,53.169h21.332
		v22.404c-7.878,1.605-15.128,4.954-21.332,9.621V63.833V53.169z M64.001,74.501h106.664v21.332H64.001
		C64.001,95.832,64.001,74.501,64.001,74.501z M469.332,415.995H361.668c-5.891,0-10.667,4.776-10.667,10.668
		s4.777,10.667,10.667,10.667h107.664v10.836c0,5.881-4.783,10.665-10.665,10.665H32.001c-5.882,0-10.666-4.784-10.666-10.665
		V127.833c0-5.881,4.784-10.665,10.666-10.665h21.332h118.405c-0.702,3.447-1.073,7.013-1.073,10.663v213.337
		c0,29.407,23.926,53.332,53.334,53.332h234.667c3.653,0,7.219-0.37,10.665-1.073v22.568H469.332z"/>
	<path style="fill:#000003;" d="M223.999,117.165c-5.891,0-10.667,4.776-10.667,10.667v213.333c0,5.892,4.777,10.667,10.667,10.667
		h234.667c5.892,0,10.667-4.776,10.667-10.667V127.833c0-5.892-4.776-10.667-10.667-10.667H223.999z M447.999,330.498H234.667V138.5
		h213.332v191.998H447.999z"/>
	<path style="fill:#000003;" d="M117.334,170.498H74.666c-17.645,0-32,14.356-32,32.001v64c0,17.645,14.355,32,32,32h42.668
		c17.644,0,31.999-14.355,31.999-32v-63.999C149.333,184.855,134.978,170.498,117.334,170.498z M127.998,266.501
		c0,5.881-4.784,10.665-10.664,10.665H74.666c-5.881,0-10.665-4.784-10.665-10.665v-64c0-5.882,4.784-10.666,10.665-10.666h42.668
		c5.88,0,10.664,4.785,10.664,10.666C127.998,202.501,127.998,266.501,127.998,266.501z"/>
	<path style="fill:#000003;" d="M96.001,330.496c-17.645,0-32,14.356-32,32.002s14.355,32.002,32,32.002
		c17.646,0,32.002-14.356,32.002-32.002C128.003,344.852,113.647,330.496,96.001,330.496z M96.001,373.166
		c-5.881,0-10.665-4.785-10.665-10.668c0-5.882,4.784-10.667,10.665-10.667c5.882,0,10.667,4.785,10.667,10.667
		S101.883,373.166,96.001,373.166z"/>
	<path style="fill:#000003;" d="M331.024,415.999h-0.254c-5.891,0-10.667,4.776-10.667,10.667c0,5.892,4.777,10.668,10.667,10.668
		h0.254c5.891,0,10.668-4.776,10.668-10.668C341.691,420.775,336.916,415.999,331.024,415.999z"/>
	<path style="fill:#000003;" d="M296.081,290.42c2.73,0,5.461-1.042,7.544-3.126c4.165-4.167,4.162-10.921-0.003-15.086
		C293.548,262.139,288,248.746,288,234.499c0-29.407,23.925-53.332,53.332-53.332c19.738,0,37.769,10.819,47.055,28.235
		c2.774,5.198,9.234,7.164,14.432,4.393c5.198-2.772,7.165-9.234,4.394-14.432c-13.003-24.383-38.247-39.531-65.882-39.531
		c-41.172,0-74.667,33.496-74.667,74.667c0,19.947,7.768,38.697,21.874,52.798C290.623,289.38,293.351,290.42,296.081,290.42z"/>
	<path style="fill:#000003;" d="M405.19,222.853c-5.892,0.076-10.606,4.912-10.53,10.803c0.003,0.282,0.004,0.56,0.004,0.843
		c0,5.892,4.777,10.667,10.667,10.667c5.892,0,10.668-4.776,10.668-10.667c0-0.373-0.002-0.745-0.006-1.115
		c-0.075-5.846-4.836-10.532-10.664-10.532C405.282,222.852,405.235,222.853,405.19,222.853z"/>
</g>
<g>
</g>
<g>
</g>
<g>
</g>
<g>
</g>
<g>
</g>
<g>
</g>
<g>
</g>
<g>
</g>
<g>
</g>
<g>
</g>
<g>
</g>
<g>
</g>
<g>
</g>
<g>
</g>
<g>
</g>
</svg>
