<?xml version="1.0" encoding="iso-8859-1"?>
<!-- Generator: Adobe Illustrator 19.0.0, SVG Export Plug-In . SVG Version: 6.00 Build 0)  -->
<svg version="1.1" id="Layer_1" xmlns="http://www.w3.org/2000/svg" xmlns:xlink="http://www.w3.org/1999/xlink" x="0px" y="0px"
	 viewBox="0 0 512 512" style="enable-background:new 0 0 512 512;" xml:space="preserve">
<polygon style="fill:#5CB0FF;" points="199.593,292.881 251.661,292.881 251.661,145.355 199.593,145.355 199.593,154.033 "/>
<g>
	<polygon style="fill:#D0E8FF;" points="147.525,249.491 104.136,249.491 60.746,249.491 60.746,327.593 147.525,327.593 	"/>
	<rect x="112.814" y="188.746" style="fill:#D0E8FF;" width="34.712" height="43.39"/>
</g>
<g>
	<rect x="425.22" y="145.356" style="fill:#5CB0FF;" width="43.39" height="147.525"/>
	<rect x="269.017" y="145.356" style="fill:#5CB0FF;" width="60.746" height="147.525"/>
	<rect x="347.119" y="145.356" style="fill:#5CB0FF;" width="60.746" height="147.525"/>
	<path style="fill:#5CB0FF;" d="M464.301,344.949H156.203H52.068h-4.369c-16.733,0-30.343,13.627-30.343,30.373
		c0,16.746,13.61,30.373,30.343,30.373h416.602c16.733,0,30.343-13.627,30.343-30.373
		C494.644,358.576,481.034,344.949,464.301,344.949z M56.407,397.016c-11.962,0-21.695-9.729-21.695-21.695
		s9.733-21.695,21.695-21.695s21.695,9.729,21.695,21.695S68.369,397.016,56.407,397.016z M125.831,397.016
		c-11.962,0-21.695-9.729-21.695-21.695s9.733-21.695,21.695-21.695s21.695,9.729,21.695,21.695S137.792,397.016,125.831,397.016z
		 M195.254,397.016c-11.962,0-21.695-9.729-21.695-21.695s9.733-21.695,21.695-21.695s21.695,9.729,21.695,21.695
		S207.216,397.016,195.254,397.016z M264.678,397.016c-11.962,0-21.695-9.729-21.695-21.695s9.733-21.695,21.695-21.695
		c11.962,0,21.695,9.729,21.695,21.695S276.64,397.016,264.678,397.016z M325.424,397.016c-11.962,0-21.695-9.729-21.695-21.695
		s9.733-21.695,21.695-21.695c11.962,0,21.695,9.729,21.695,21.695S337.386,397.016,325.424,397.016z M394.847,397.016
		c-11.962,0-21.695-9.729-21.695-21.695s9.733-21.695,21.695-21.695c11.962,0,21.695,9.729,21.695,21.695
		S406.809,397.016,394.847,397.016z M455.593,397.016c-11.962,0-21.695-9.729-21.695-21.695s9.733-21.695,21.695-21.695
		c11.962,0,21.695,9.729,21.695,21.695S467.555,397.016,455.593,397.016z"/>
</g>
<g>
	<path style="fill:#1C71DA;" d="M464.301,327.593h-299.42v-86.78v-60.746c0-4.797-3.886-8.678-8.678-8.678h-52.068
		c-4.792,0-8.678,3.881-8.678,8.678v52.068h-43.39c-4.792,0-8.678,3.881-8.678,8.678v86.998C19.103,330.001,0,350.463,0,375.322
		c0,26.314,21.398,47.729,47.699,47.729h416.602c26.301,0,47.699-21.415,47.699-47.729C512,349.008,490.602,327.593,464.301,327.593
		z M112.814,188.745h34.712v43.39h-34.712V188.745z M60.746,249.491h43.39h43.39v78.102h-86.78V249.491z M464.301,405.694H47.699
		c-16.733,0-30.343-13.627-30.343-30.373c0-16.746,13.61-30.373,30.343-30.373h4.369h104.136h308.098
		c16.733,0,30.343,13.627,30.343,30.373C494.644,392.067,481.034,405.694,464.301,405.694z"/>
	<path style="fill:#1C71DA;" d="M56.407,353.627c-11.962,0-21.695,9.729-21.695,21.695s9.733,21.695,21.695,21.695
		s21.695-9.729,21.695-21.695S68.369,353.627,56.407,353.627z M56.407,379.66c-2.394,0-4.339-1.949-4.339-4.339
		c0-2.39,1.945-4.339,4.339-4.339s4.339,1.949,4.339,4.339C60.746,377.711,58.801,379.66,56.407,379.66z"/>
	<path style="fill:#1C71DA;" d="M125.831,353.627c-11.962,0-21.695,9.729-21.695,21.695s9.733,21.695,21.695,21.695
		s21.695-9.729,21.695-21.695S137.792,353.627,125.831,353.627z M125.831,379.66c-2.394,0-4.339-1.949-4.339-4.339
		c0-2.39,1.945-4.339,4.339-4.339c2.394,0,4.339,1.949,4.339,4.339C130.169,377.711,128.225,379.66,125.831,379.66z"/>
	<path style="fill:#1C71DA;" d="M195.254,353.627c-11.962,0-21.695,9.729-21.695,21.695s9.733,21.695,21.695,21.695
		s21.695-9.729,21.695-21.695S207.216,353.627,195.254,353.627z M195.254,379.66c-2.394,0-4.339-1.949-4.339-4.339
		c0-2.39,1.945-4.339,4.339-4.339c2.394,0,4.339,1.949,4.339,4.339C199.593,377.711,197.648,379.66,195.254,379.66z"/>
	<path style="fill:#1C71DA;" d="M264.678,353.627c-11.962,0-21.695,9.729-21.695,21.695s9.733,21.695,21.695,21.695
		c11.962,0,21.695-9.729,21.695-21.695S276.64,353.627,264.678,353.627z M264.678,379.66c-2.394,0-4.339-1.949-4.339-4.339
		c0-2.39,1.945-4.339,4.339-4.339c2.394,0,4.339,1.949,4.339,4.339C269.017,377.711,267.072,379.66,264.678,379.66z"/>
	<path style="fill:#1C71DA;" d="M325.424,353.627c-11.962,0-21.695,9.729-21.695,21.695s9.733,21.695,21.695,21.695
		c11.962,0,21.695-9.729,21.695-21.695S337.386,353.627,325.424,353.627z M325.424,379.66c-2.394,0-4.339-1.949-4.339-4.339
		c0-2.39,1.945-4.339,4.339-4.339c2.394,0,4.339,1.949,4.339,4.339C329.763,377.711,327.818,379.66,325.424,379.66z"/>
	<path style="fill:#1C71DA;" d="M394.847,353.627c-11.962,0-21.695,9.729-21.695,21.695s9.733,21.695,21.695,21.695
		c11.962,0,21.695-9.729,21.695-21.695S406.809,353.627,394.847,353.627z M394.847,379.66c-2.394,0-4.339-1.949-4.339-4.339
		c0-2.39,1.945-4.339,4.339-4.339c2.394,0,4.339,1.949,4.339,4.339C399.186,377.711,397.241,379.66,394.847,379.66z"/>
	<path style="fill:#1C71DA;" d="M455.593,353.627c-11.962,0-21.695,9.729-21.695,21.695s9.733,21.695,21.695,21.695
		c11.962,0,21.695-9.729,21.695-21.695S467.555,353.627,455.593,353.627z M455.593,379.66c-2.394,0-4.339-1.949-4.339-4.339
		c0-2.39,1.945-4.339,4.339-4.339c2.394,0,4.339,1.949,4.339,4.339C459.932,377.711,457.987,379.66,455.593,379.66z"/>
	<path style="fill:#1C71DA;" d="M182.237,136.677v17.356v147.525c0,4.797,3.886,8.678,8.678,8.678h60.746v0.229h17.356v-0.229
		h60.746v0.229h17.356v-0.229h60.746v0.229h17.356v-0.229h52.068c4.792,0,8.678-3.881,8.678-8.678V136.677
		c0-4.797-3.886-8.678-8.678-8.678H425.22h-17.356h-60.746h-17.356h-60.746h-17.356h-52.068v-8.678v-17.356h-17.356h-60.746v17.356
		h60.746V136.677z M468.61,145.355v147.525h-43.39V145.355C425.22,145.355,468.61,145.355,468.61,145.355z M407.864,145.355v147.525
		h-60.746V145.355C347.119,145.355,407.864,145.355,407.864,145.355z M329.763,145.355v147.525h-60.746V145.355
		C269.017,145.355,329.763,145.355,329.763,145.355z M251.661,145.355v147.525h-52.068V154.033v-8.678
		C199.593,145.355,251.661,145.355,251.661,145.355z"/>
</g>
<g>
	<path style="fill:#FF5D5D;" d="M417.659,490.305c-2.221,0-4.442-0.847-6.137-2.542c-3.389-3.388-3.389-8.883,0-12.271
		l30.681-30.682c3.39-3.39,8.883-3.39,12.273,0c3.389,3.388,3.389,8.883,0,12.271l-30.681,30.682
		C422.101,489.457,419.88,490.305,417.659,490.305z"/>
	<path style="fill:#FF5D5D;" d="M448.34,490.305c-2.221,0-4.442-0.847-6.137-2.542l-30.681-30.682
		c-3.389-3.388-3.389-8.883,0-12.271c3.392-3.388,8.886-3.388,12.273,0l30.681,30.682c3.389,3.388,3.389,8.883,0,12.271
		C452.782,489.457,450.56,490.305,448.34,490.305z"/>
</g>
<path style="fill:#00D40B;" d="M48.845,490.305c-16.748,0-30.373-13.625-30.373-30.373c0-16.748,13.625-30.373,30.373-30.373
	s30.373,13.625,30.373,30.373C79.218,476.679,65.593,490.305,48.845,490.305z M48.845,446.915c-7.178,0-13.017,5.839-13.017,13.017
	c0,7.178,5.839,13.017,13.017,13.017s13.017-5.839,13.017-13.017C61.862,452.754,56.023,446.915,48.845,446.915z"/>
<path style="fill:#FFC504;" d="M43.018,88.139c-2.22,0-4.442-0.847-6.136-2.542L12.337,61.052c-1.628-1.627-2.542-3.835-2.542-6.136
	c0-2.301,0.914-4.508,2.542-6.136l24.546-24.545c3.39-3.39,8.885-3.388,12.272,0l24.545,24.545c3.389,3.388,3.389,8.883,0,12.271
	L49.155,85.597C47.46,87.292,45.238,88.139,43.018,88.139z M30.745,54.917l12.273,12.271L55.29,54.917L43.018,42.646L30.745,54.917z
	"/>
<g>
</g>
<g>
</g>
<g>
</g>
<g>
</g>
<g>
</g>
<g>
</g>
<g>
</g>
<g>
</g>
<g>
</g>
<g>
</g>
<g>
</g>
<g>
</g>
<g>
</g>
<g>
</g>
<g>
</g>
</svg>
