<?xml version="1.0" encoding="iso-8859-1"?>
<!-- Generator: Adobe Illustrator 19.0.0, SVG Export Plug-In . SVG Version: 6.00 Build 0)  -->
<svg version="1.1" id="Layer_1" xmlns="http://www.w3.org/2000/svg" xmlns:xlink="http://www.w3.org/1999/xlink" x="0px" y="0px"
	 viewBox="0 0 512 512" style="enable-background:new 0 0 512 512;" xml:space="preserve">
<g>
	<g>
		<path d="M495.166,423.499h-28.115c5.147-7.207,8.188-16.016,8.188-25.527c0-0.551-0.021-1.096-0.042-1.643h10.492
			c9.297,0,16.834-7.537,16.834-16.834V234.748c0-29.934-24.353-54.288-54.288-54.288H304.05l20.636-29.579
			c2.809-4.027,3.72-9.078,2.496-13.832c-1.226-4.754-4.464-8.737-8.868-10.904L176.907,56.564
			c-8.341-4.104-18.431-0.67-22.537,7.672c-4.104,8.342-0.67,18.432,7.672,22.537l123.814,60.925l-22.449,32.178
			c-0.134,0.191-0.241,0.391-0.366,0.585H63.764c-29.934,0-54.288,24.353-54.288,54.288v144.747c0,9.297,7.537,16.834,16.834,16.834
			h10.491c-0.02,0.547-0.042,1.092-0.042,1.643c0,9.511,3.041,18.32,8.188,25.527H16.834C7.537,423.501,0,431.038,0,440.335
			c0,9.297,7.537,16.834,16.834,16.834h478.332c9.297,0,16.834-7.537,16.834-16.834C512,431.038,504.463,423.499,495.166,423.499z
			 M272.835,307.055c8.748-0.604,15.662-7.874,15.662-16.775c0-8.902-6.914-16.171-15.662-16.775v-59.376h60.448v148.532h-60.448
			V307.055z M178.719,214.128h60.448v59.376c-8.748,0.604-15.662,7.874-15.662,16.775c0,8.902,6.914,16.171,15.662,16.775v55.606
			h-60.448V214.128z M80.797,408.341c-5.718,0-10.369-4.652-10.369-10.369c0-0.56,0.057-1.105,0.144-1.643h20.451
			c0.086,0.536,0.143,1.083,0.143,1.643C91.166,403.689,86.514,408.341,80.797,408.341z M116.647,423.499
			c5.147-7.207,8.188-16.016,8.188-25.527c-0.001-0.551-0.022-1.096-0.043-1.643h1.561c-0.02,0.547-0.042,1.092-0.042,1.643
			c0,9.511,3.041,18.32,8.188,25.527H116.647z M145.049,362.661H43.145v-67.658h101.905V362.661z M145.05,261.334H43.145v-26.587
			c0-11.369,9.25-20.62,20.62-20.62h81.286V261.334z M170.349,408.341c-5.717,0-10.369-4.652-10.369-10.369
			c0-0.56,0.057-1.107,0.143-1.643h20.451c0.086,0.536,0.143,1.083,0.143,1.643C180.717,403.69,176.066,408.341,170.349,408.341z
			 M206.199,423.499c5.147-7.207,8.188-16.016,8.188-25.527c-0.001-0.551-0.022-1.096-0.043-1.643h83.313
			c-0.02,0.547-0.042,1.092-0.042,1.643c0,9.511,3.041,18.32,8.188,25.527H206.199z M341.651,408.341
			c-5.717,0-10.368-4.652-10.368-10.369c0-0.56,0.057-1.107,0.143-1.643h20.451c0.086,0.536,0.143,1.083,0.143,1.643
			C352.02,403.69,347.368,408.341,341.651,408.341z M366.95,214.128h81.285c11.37,0,20.62,9.251,20.62,20.62v26.587H366.95V214.128z
			 M366.951,295.003h101.905v67.658H366.951V295.003z M377.501,423.499c5.147-7.207,8.188-16.016,8.188-25.527
			c-0.001-0.551-0.022-1.096-0.043-1.643h1.561c-0.02,0.547-0.042,1.092-0.042,1.643c0,9.511,3.041,18.32,8.188,25.527H377.501z
			 M431.203,408.341c-5.718,0-10.369-4.652-10.369-10.369c0-0.56,0.057-1.107,0.143-1.643h20.451
			c0.085,0.538,0.143,1.083,0.143,1.643C441.571,403.689,436.919,408.341,431.203,408.341z"/>
	</g>
</g>
<g>
</g>
<g>
</g>
<g>
</g>
<g>
</g>
<g>
</g>
<g>
</g>
<g>
</g>
<g>
</g>
<g>
</g>
<g>
</g>
<g>
</g>
<g>
</g>
<g>
</g>
<g>
</g>
<g>
</g>
</svg>
