<?xml version="1.0" encoding="iso-8859-1"?>
<!-- Generator: Adobe Illustrator 19.0.0, SVG Export Plug-In . SVG Version: 6.00 Build 0)  -->
<svg version="1.1" id="Layer_1" xmlns="http://www.w3.org/2000/svg" xmlns:xlink="http://www.w3.org/1999/xlink" x="0px" y="0px"
	 viewBox="0 0 511.999 511.999" style="enable-background:new 0 0 511.999 511.999;" xml:space="preserve">
<g>
	<g>
		<path d="M486.706,290.527l12.875-20.425c4.772-7.572,2.805-17.552-4.482-22.747l-88.388-62.998l0.057-31.161
			c2.405,1.319,5.164,2.071,8.1,2.071c9.322,0,16.879-7.557,16.879-16.879V103.4c0-9.322-7.557-16.879-16.879-16.879
			c-2.949,0-5.719,0.761-8.131,2.09c-6.715-10.502-18.47-17.486-31.833-17.486c-17.334,0-33.969,7.35-45.639,20.166
			c-4.992,5.482-8.902,11.776-11.617,18.535l-41.433,12.389c-8.931,2.67-14.005,12.075-11.335,21.007
			c2.188,7.319,8.898,12.048,16.165,12.048c1.601,0,3.23-0.23,4.843-0.712l27.401-8.193l-0.686,75.425l-10.312,29.36
			c-12.808,30.208-42.222,49.701-75.065,49.701c-1.252,0-2.469,0.146-3.643,0.405c-0.931-19.795,4.869-39.755,17.158-56.183
			c3.827-5.116,4.438-11.956,1.578-17.669c-0.802-1.602-1.847-3.033-3.065-4.271c2.998-3.046,4.851-7.222,4.851-11.833
			c0-9.322-7.557-16.879-16.879-16.879H122.89c-9.322,0-16.879,7.557-16.879,16.879c0,2.415,0.515,4.706,1.429,6.782h-3.891
			C46.451,218.083,0,264.534,0,321.63V345.5c0,18.12,14.742,32.862,32.862,32.862h4.94c7.277,35.627,38.86,62.512,76.604,62.512
			s69.327-26.885,76.605-62.512h36.212h111.041c7.277,35.627,38.859,62.512,76.604,62.512c39.714,0,72.582-29.769,77.52-68.161
			h2.732c9.322,0,16.879-7.557,16.879-16.879C512,330.712,502.413,307.789,486.706,290.527z M114.406,407.115
			c-18.981,0-35.212-11.97-41.563-28.753h83.125C149.619,395.147,133.387,407.115,114.406,407.115z M33.759,344.603V321.63
			c0-38.481,31.307-69.788,69.789-69.788h94.964c-11.917,29.542-11.8,63.052,0.911,92.762H33.759z M318.407,344.602h-81.152
			l-3.253-5.976c-0.738-1.357-1.425-2.733-2.085-4.117c44.75-1.794,84.336-29.171,101.706-70.782
			c0.124-0.299,0.241-0.602,0.349-0.908l11.408-32.481c0.614-1.749,0.936-3.586,0.953-5.44l0.799-87.705
			c0.006-0.577-0.019-1.155-0.072-1.73c-0.744-7.934,1.802-15.549,7.166-21.441c5.367-5.892,12.71-9.137,20.679-9.137
			c2.162,0,3.93,1.721,4.006,3.865l-5.231,18.64c-0.414,1.475-0.626,2.999-0.629,4.53l-0.111,61.092
			c-0.01,5.468,2.63,10.602,7.083,13.776l82.499,58.801l-2.651,4.206c-13.463-7.07-28.767-11.094-45-11.094
			C365.11,258.701,323.994,296.317,318.407,344.602z M414.867,407.115c-21.049,0-38.712-14.72-43.271-34.402h86.542
			C453.581,392.397,435.917,407.115,414.867,407.115z M353.777,338.954c7.406-26.778,31.989-46.493,61.091-46.493
			s53.685,19.716,61.091,46.493H353.777z"/>
	</g>
</g>
<g>
</g>
<g>
</g>
<g>
</g>
<g>
</g>
<g>
</g>
<g>
</g>
<g>
</g>
<g>
</g>
<g>
</g>
<g>
</g>
<g>
</g>
<g>
</g>
<g>
</g>
<g>
</g>
<g>
</g>
</svg>
