<?xml version="1.0" encoding="iso-8859-1"?>
<!-- Generator: Adobe Illustrator 19.0.0, SVG Export Plug-In . SVG Version: 6.00 Build 0)  -->
<svg version="1.1" id="Layer_1" xmlns="http://www.w3.org/2000/svg" xmlns:xlink="http://www.w3.org/1999/xlink" x="0px" y="0px"
	 viewBox="0 0 512.001 512.001" style="enable-background:new 0 0 512.001 512.001;" xml:space="preserve">
<g>
	<g>
		<g>
			<path d="M231.087,61.669c-4.421,0-8.005,3.583-8.005,8.005v5.209c0,4.422,3.584,8.005,8.005,8.005s8.005-3.583,8.005-8.005
				v-5.209C239.092,65.253,235.508,61.669,231.087,61.669z"/>
			<path d="M261.654,55.707c-4.422,0-8.005,3.584-8.005,8.005v11.66c0,4.421,3.583,8.005,8.005,8.005s8.005-3.584,8.005-8.005
				v-11.66C269.659,59.292,266.076,55.707,261.654,55.707z"/>
			<path d="M292.222,61.669c-4.422,0-8.005,3.583-8.005,8.005v5.209c0,4.422,3.583,8.005,8.005,8.005
				c4.422,0,8.005-3.583,8.005-8.005v-5.209C300.227,65.253,296.642,61.669,292.222,61.669z"/>
			<path d="M339.815,352.9l81.028-81.028c6.271-6.272,6.271-16.475,0-22.746l-52.916-52.916c-6.273-6.271-16.474-6.268-22.746,0
				l-13.688,13.688c-6.431-10.996-18.382-18.292-31.762-18.292h-3.373v-6.075c0-3.6,1.592-6.952,4.372-9.193
				c13.651-11.021,21.937-27.118,23.03-44.497c1.862-2.889,2.89-6.297,2.89-9.928V98.612c3.632-2.828,5.982-7.23,5.982-12.18V74.734
				c0-9.873-5.377-18.955-14.033-23.702c-2.556-1.401-5.151-2.691-7.772-3.891l11.685-13.927c2.842-3.388,2.4-8.436-0.986-11.277
				c-3.387-2.843-8.436-2.399-11.277,0.986l-15.323,18.261c-8.281-2.441-16.751-3.952-25.265-4.534V8.005
				c0-4.422-3.583-8.005-8.005-8.005c-4.422,0-8.005,3.583-8.005,8.005v28.644c-8.514,0.582-16.983,2.093-25.265,4.534
				l-15.323-18.261c-2.841-3.386-7.892-3.83-11.277-0.986c-3.387,2.841-3.829,7.891-0.986,11.277l11.685,13.927
				c-2.621,1.201-5.217,2.49-7.772,3.892c-8.656,4.747-14.033,13.829-14.033,23.702v11.699c0,4.947,2.347,9.347,5.976,12.176v23.303
				c0,4.06,1.283,7.842,3.585,10.93l-0.63,0.05c1.34,16.839,9.658,32.63,22.823,43.324c2.872,2.334,4.52,5.729,4.52,9.318v6.072
				h-33.007c-14.213,0-26.36-9.205-30.638-22.094h0.388c7.976,0,14.466-6.489,14.466-14.466v-12.339
				c0-6.608-4.458-12.183-10.522-13.906c2.043-4.752,3.14-9.912,3.14-15.184c0-16.904-8.619-48.048-27.118-61.211
				c-3.521-2.506-8.052-3.115-12.123-1.628c-4.092,1.492-7.185,4.9-8.273,9.115c-2.585,10.018-7.579,14.724-13.362,20.174
				c-7.096,6.688-15.139,14.267-15.995,30.612c-0.33,6.307,0.828,12.469,3.272,18.068c-6.167,1.653-10.728,7.276-10.728,13.959
				v12.339c0,7.976,6.489,14.466,14.466,14.466h2.621c2.321,20.808,11.692,40.074,26.886,54.903
				c15.182,14.817,34.654,23.727,55.513,25.547v175.586h-24.299c-10.814,0-19.612,8.798-19.612,19.612v47.23
				c0,10.814,8.798,19.612,19.612,19.612H360.79c10.814,0,19.612-8.798,19.612-19.612v-47.23c0-10.814-8.798-19.612-19.612-19.612
				h-24.3v-70.113C337.674,354.747,338.8,353.915,339.815,352.9z M310.639,121.911c0,1.126-0.646,1.724-1.188,2.027
				c-0.542,0.305-1.391,0.543-2.349-0.046l-31.421-19.259c-1.204-0.737-2.24-1.684-3.119-2.755h38.077V121.911z M206.686,74.734
				c0-4.025,2.192-7.729,5.722-9.665c30.836-16.911,67.656-16.911,98.492,0c3.53,1.936,5.722,5.639,5.722,9.665v11.136H206.686
				V74.734z M213.85,123.938c-0.542-0.303-1.189-0.902-1.189-2.027v-20.033h38.077c-0.877,1.07-1.915,2.017-3.118,2.755
				l-31.421,19.259C215.241,124.48,214.392,124.242,213.85,123.938z M217.087,140.148c2.589-0.305,5.135-1.168,7.48-2.605
				l31.421-19.259c2.096-1.285,3.993-2.83,5.663-4.576c1.67,1.746,3.568,3.291,5.664,4.576l31.421,19.259
				c2.347,1.439,4.896,2.302,7.49,2.606c-2.537,9.243-7.907,17.558-15.552,23.729c-6.561,5.296-10.325,13.187-10.325,21.651v6.075
				h-37.388v-6.072c0-8.431-3.804-16.356-10.435-21.744C225.01,157.684,219.633,149.347,217.087,140.148z M109.895,111.516
				c0.52-9.935,4.685-13.858,10.987-19.799c5.662-5.337,12.568-11.845,16.625-23.628c10.773,10.559,17.261,32.67,17.261,45.525
				c0,5.385-1.953,10.574-5.424,14.624h-33.799C111.611,123.647,109.571,117.698,109.895,111.516z M102.462,153.5v-9.251h59.688
				v9.251H102.462z M141.607,212.956c-12.086-11.797-19.701-26.994-21.938-43.446h4.632v6.813c0,4.422,3.584,8.005,8.005,8.005
				c4.421,0,8.005-3.583,8.005-8.005v-6.813h6.424c4.695,21.886,24.136,38.104,47.208,38.104h105.789
				c9.08,0,16.996,5.945,19.727,14.316l-55.305,55.305c-3.038,3.039-4.71,7.078-4.71,11.374c0,1.449,0.206,2.865,0.575,4.228
				c-20.744,10.686-41.613,17.099-58.069,20.895v-71.429c0-4.422-3.584-8.005-8.005-8.005
				C174.294,234.298,155.707,226.719,141.607,212.956z M201.947,386.018V330.14c18.603-4.046,43.427-11.351,67.967-24.394
				l20.152,20.152C258.664,358.823,223.072,377.192,201.947,386.018z M301.394,337.226l15.674,15.674
				c1.037,1.037,2.19,1.887,3.408,2.581v70.065H201.947v-22.271C238.678,389.159,274.274,365.503,301.394,337.226z M360.786,441.556
				c1.986,0,3.602,1.616,3.602,3.602v47.23c0,1.986-1.616,3.602-3.602,3.602H161.638c-1.986,0-3.602-1.616-3.602-3.602v-47.23
				c0-1.986,1.616-3.602,3.602-3.602H360.786z M328.494,341.577c-0.022,0.025-0.081,0.025-0.105,0l-52.915-53.02l81.131-81.028
				l52.916,53.02L328.494,341.577z"/>
			<path d="M337.579,264.98c-3.127-3.125-8.195-3.125-11.321,0c-3.126,3.127-3.126,8.195,0,11.321l16.003,16.003
				c1.564,1.563,3.613,2.344,5.661,2.344c2.048,0,4.098-0.782,5.661-2.344c3.126-3.127,3.126-8.195,0-11.322L337.579,264.98z"/>
			<path d="M373.345,270.055l-26.35-26.35c-3.127-3.125-8.195-3.125-11.321,0c-3.126,3.127-3.126,8.195,0,11.322l26.35,26.35
				c1.564,1.563,3.613,2.344,5.661,2.344s4.097-0.781,5.661-2.344C376.472,278.25,376.472,273.182,373.345,270.055z"/>
		</g>
	</g>
</g>
<g>
</g>
<g>
</g>
<g>
</g>
<g>
</g>
<g>
</g>
<g>
</g>
<g>
</g>
<g>
</g>
<g>
</g>
<g>
</g>
<g>
</g>
<g>
</g>
<g>
</g>
<g>
</g>
<g>
</g>
</svg>
