<?xml version="1.0" encoding="iso-8859-1"?>
<!-- Generator: Adobe Illustrator 19.0.0, SVG Export Plug-In . SVG Version: 6.00 Build 0)  -->
<svg version="1.1" id="Layer_1" xmlns="http://www.w3.org/2000/svg" xmlns:xlink="http://www.w3.org/1999/xlink" x="0px" y="0px"
	 viewBox="0 0 512.007 512.007" style="enable-background:new 0 0 512.007 512.007;" xml:space="preserve">
<rect x="436.807" y="244.273" transform="matrix(-0.7071 -0.7071 0.7071 -0.7071 564.0291 841.137)" style="fill:#3C5D76;" width="38.826" height="118.963"/>
<polygon style="fill:#C9E3F7;" points="0,190.517 0,229.343 45.298,229.343 45.298,501.129 174.719,501.129 174.719,190.517 "/>
<path style="fill:#FFFFFF;" d="M433.563,352.294h-297.67V196.988h297.67V352.294z"/>
<path style="fill:#C9E3F7;" d="M433.563,352.294H285.512V196.988h148.051V352.294z"/>
<polygon style="fill:#3C5D76;" points="418.191,161.785 147.7,46.6 162.912,10.878 433.563,125.806 "/>
<g>
	<path style="fill:#AED5F3;" d="M433.563,501.129h-297.67v-181.19h297.67V501.129z"/>
	<path style="fill:#AED5F3;" d="M433.563,281.112h-297.67V125.806h297.67V281.112z"/>
</g>
<g>
	<path style="fill:#78B9EB;" d="M433.563,501.129H285.512v-181.19h148.051V501.129z"/>
	<path style="fill:#78B9EB;" d="M433.563,281.112H285.512V125.806h148.051V281.112z"/>
</g>
<g>
	<rect x="226.488" y="184.04" style="fill:#3C5D76;" width="38.827" height="38.827"/>
	<rect x="304.141" y="184.04" style="fill:#3C5D76;" width="38.827" height="38.827"/>
</g>
<g>
</g>
<g>
</g>
<g>
</g>
<g>
</g>
<g>
</g>
<g>
</g>
<g>
</g>
<g>
</g>
<g>
</g>
<g>
</g>
<g>
</g>
<g>
</g>
<g>
</g>
<g>
</g>
<g>
</g>
</svg>
