<?xml version="1.0" encoding="iso-8859-1"?>
<!-- Generator: Adobe Illustrator 19.0.0, SVG Export Plug-In . SVG Version: 6.00 Build 0)  -->
<svg version="1.1" id="Layer_1" xmlns="http://www.w3.org/2000/svg" xmlns:xlink="http://www.w3.org/1999/xlink" x="0px" y="0px"
	 viewBox="0 0 512 512" style="enable-background:new 0 0 512 512;" xml:space="preserve">
<path style="fill:#AB91EA;" d="M0,256.006C0,397.402,114.606,512.004,255.996,512C397.394,512.004,512,397.402,512,256.006
	C512.009,114.61,397.394,0,255.996,0C114.606,0,0,114.614,0,256.006z"/>
<path style="fill:#947ADB;" d="M511.097,276.677c-0.154-0.138-84.388-84.544-84.955-84.956c-1.386-1.787-3.519-2.919-5.875-2.919
	h-10.865c-0.173-0.161-0.317-0.354-0.503-0.5c-0.418-0.571-29.102-29.228-29.657-29.657c-0.417-0.571-0.928-1.054-1.482-1.481
	c-1.379-1.889-3.598-3.063-6.026-3.063c-3.223,0-6.081,2.064-7.091,5.126l-3.917,11.866c-0.167-0.156-45.902-46.016-46.458-46.441
	c-1.382-1.877-3.583-3.051-6.001-3.051h-4.149c-0.342-0.407-15.399-15.522-15.953-15.951c-1.378-1.889-3.6-3.067-6.031-3.067
	c-3.237,0-6.102,2.086-7.102,5.163l-3.97,12.236c-0.081-0.065-0.179-0.101-0.263-0.164c-0.437-0.567-37.985-38.135-38.548-38.548
	c-0.438-0.569-0.921-1.072-1.486-1.486c-1.819-2.365-4.833-3.532-7.78-2.73c-81.676,21.82-138.718,94.087-138.718,175.74
	c0,50.514,21.46,96.277,56.041,129.341c0.499,0.487,128.489,128.511,128.995,128.995c0.165,0.161,0.327,0.325,0.49,0.49
	C397.898,504.821,500.925,403.858,511.097,276.677z"/>
<g>
	<path style="fill:#F4F6F9;" d="M403.405,366.391c-15.319,4.091-31.103,6.169-46.914,6.169c-96.25,0-174.556-75.134-174.556-167.483
		c0-43.203,17.142-84.241,48.271-115.543c2.381-2.391,2.859-6.081,1.17-9.005c-1.695-2.916-5.126-4.361-8.393-3.471
		C141.309,98.875,84.267,171.142,84.267,252.795c0,100.581,85.003,182.409,189.489,182.409c52.15,0,100.759-20.009,136.871-56.335
		c2.381-2.391,2.859-6.089,1.167-9.005C410.106,366.945,406.674,365.502,403.405,366.391z M273.755,420.27
		c-96.25,0-174.555-75.126-174.555-167.475c0-66.092,40.863-125.511,102.109-152.367c-22.279,30.494-34.307,66.799-34.307,104.65
		c0,100.581,85.003,182.416,189.489,182.416c7.642,0,15.273-0.445,22.86-1.334C349.169,408.304,312.528,420.27,273.755,420.27z"/>
	<path style="fill:#F4F6F9;" d="M427.397,194.052c-0.97-3.121-3.861-5.25-7.132-5.25h-31.679l-9.763-29.575
		c-1.01-3.062-3.868-5.126-7.091-5.126c-3.223,0-6.081,2.064-7.091,5.126l-9.763,29.575H323.2c-3.27,0-6.158,2.129-7.132,5.25
		c-0.97,3.121,0.204,6.511,2.895,8.364l25.354,17.471l-9.65,28.576c-1.036,3.07,0.022,6.453,2.622,8.385
		c2.596,1.933,6.143,1.969,8.779,0.087l25.634-18.237l25.655,18.521c1.306,0.941,2.841,1.414,4.371,1.414
		c1.553,0,3.106-0.481,4.422-1.451c2.614-1.918,3.686-5.309,2.658-8.378l-9.673-28.956l25.36-17.427
		C427.189,200.572,428.367,197.181,427.397,194.052z M383.191,219.252l4.106,12.287l-11.193-8.079
		c-1.306-0.941-2.836-1.414-4.371-1.414c-1.517,0-3.034,0.46-4.327,1.386l-11.218,7.978l4.08-12.082
		c1.068-3.165-0.091-6.65-2.836-8.539l-10.234-7.051h13.077c3.222,0,6.081-2.064,7.091-5.126l4.368-13.227l4.368,13.227
		c1.01,3.062,3.868,5.126,7.091,5.126h13.026l-10.176,6.993C383.297,212.618,382.134,216.089,383.191,219.252z"/>
	<path style="fill:#F4F6F9;" d="M263.536,144.717l-4.695,15.429c-0.937,3.077,0.204,6.41,2.833,8.269
		c1.291,0.911,2.8,1.371,4.309,1.371c1.556,0,3.117-0.489,4.433-1.458l11.809-8.714l11.75,8.305
		c2.607,1.838,6.114,1.823,8.706-0.059c2.589-1.889,3.686-5.214,2.727-8.269l-4.649-14.838l12.206-9.881
		c2.458-1.99,3.394-5.315,2.34-8.298c-1.057-2.982-3.875-4.973-7.04-4.973h-14.535l-4.495-13.854
		c-0.999-3.077-3.865-5.163-7.102-5.163s-6.103,2.085-7.102,5.163l-4.495,13.854H256c-3.168,0-5.99,1.998-7.044,4.988
		c-1.05,2.982-0.106,6.315,2.363,8.298L263.536,144.717z M282.133,133.277c1.178,1.721,3.037,2.895,5.133,3.186
		c-2.016,1.721-2.953,4.375-2.508,6.949c-1.699-0.635-3.573-0.627-5.265,0.007c0.478-2.574-0.43-5.228-2.417-6.963
		C279.143,136.142,280.974,134.976,282.133,133.277z"/>
	<path style="fill:#F4F6F9;" d="M352.694,305.943c-1.003-3.062-3.865-5.14-7.094-5.14h-14.422l-4.564-15.093
		c-0.951-3.15-3.854-5.309-7.146-5.309c-3.292,0-6.194,2.158-7.146,5.309l-4.564,15.093h-14.425c-3.227,0-6.089,2.07-7.094,5.134
		c-1.006,3.07,0.069,6.431,2.669,8.349l11.86,8.729l-4.576,14.598c-0.977,3.114,0.182,6.497,2.862,8.364
		c2.679,1.859,6.26,1.772,8.834-0.234l11.524-8.925l11.568,9.166c1.353,1.079,2.993,1.619,4.638,1.619
		c1.469,0,2.939-0.43,4.214-1.306c2.702-1.844,3.883-5.235,2.921-8.356l-4.605-14.948l11.867-8.699
		C352.618,312.382,353.7,309.013,352.694,305.943z M321.985,320.301c-0.813-0.291-1.666-0.437-2.519-0.437s-1.702,0.146-2.515,0.437
		c0.033-1.75-0.558-3.471-1.663-4.834c1.702-0.474,3.186-1.532,4.178-2.99c0.985,1.444,2.453,2.501,4.142,2.982
		C322.514,316.83,321.938,318.543,321.985,320.301z"/>
</g>
<g>
</g>
<g>
</g>
<g>
</g>
<g>
</g>
<g>
</g>
<g>
</g>
<g>
</g>
<g>
</g>
<g>
</g>
<g>
</g>
<g>
</g>
<g>
</g>
<g>
</g>
<g>
</g>
<g>
</g>
</svg>
