<?xml version="1.0" encoding="iso-8859-1"?>
<!-- Generator: Adobe Illustrator 19.0.0, SVG Export Plug-In . SVG Version: 6.00 Build 0)  -->
<svg version="1.1" id="Layer_1" xmlns="http://www.w3.org/2000/svg" xmlns:xlink="http://www.w3.org/1999/xlink" x="0px" y="0px"
	 viewBox="0 0 512 512" style="enable-background:new 0 0 512 512;" xml:space="preserve">
<g>
	<g>
		<path d="M203.486,404.404c-9.9,8.636-20.884,16.057-32.717,22.038c9.992,0,200.092,0,210.08,0l2.709-22.038
			C380.068,404.404,207.415,404.404,203.486,404.404z"/>
	</g>
</g>
<g>
	<g>
		<path d="M160.777,459.924h-33.733l4.594,37.378c1.031,8.393,8.16,14.698,16.616,14.698h207.272
			c8.456,0,15.584-6.306,16.616-14.698l4.594-37.378C361.121,459.924,167.739,459.924,160.777,459.924z"/>
	</g>
</g>
<g>
	<g>
		<path d="M389.846,199.24h-38.94c0.95-7.048,2.196-14.045,3.73-20.974L314.16,188.29c-11.955,2.962-24.066-4.325-27.031-16.301
			l-10.025-40.485c-12.974,11.002-27.063,20.729-42.098,28.98c-18.383,10.089-34.809,23.228-48.656,38.757h-72.416
			c-10.049,0-17.841,8.807-16.616,18.783l15.169,123.433c12.472-2.836,23.418-9.718,31.373-19.201
			c8.403-10.015,13.475-22.914,13.475-36.981c0-27.612,22.389-50.222,50.222-50.222c27.838,0,50.222,22.615,50.222,50.222
			c0,31.542-9.292,60.954-25.275,85.65c3.154,0,151.015,0,155.17,0l18.79-152.901C407.687,208.049,399.897,199.24,389.846,199.24z"
			/>
	</g>
</g>
<g>
	<g>
		<path d="M426.229,33.78l0.007-0.012L426,33.626h-0.001l-54.273-32.73l-0.001-0.001l-0.235-0.142l-0.007,0.012
			c-2.934-1.598-6.631-0.624-8.374,2.266L349.958,24.84c-1.742,2.889-0.878,6.615,1.904,8.463
			c-22.834,37.866-26.601,44.984-38.231,59.996l11.464,46.294l46.255-11.455c7.718-17.007,12.503-24.083,35.26-61.821
			c2.934,1.598,6.631,0.624,8.374-2.266l13.149-21.81C429.875,39.354,429.012,35.628,426.229,33.78z"/>
	</g>
</g>
<g>
	<g>
		<path d="M207.555,268.534c-9.245,0-16.741,7.495-16.741,16.741c0,50.237-40.871,91.109-91.109,91.109
			c-9.245,0-16.74,7.495-16.74,16.741c0,9.245,7.495,16.74,16.74,16.74c68.699,0,124.59-55.891,124.59-124.59
			C224.296,276.029,216.801,268.534,207.555,268.534z"/>
	</g>
</g>
<g>
</g>
<g>
</g>
<g>
</g>
<g>
</g>
<g>
</g>
<g>
</g>
<g>
</g>
<g>
</g>
<g>
</g>
<g>
</g>
<g>
</g>
<g>
</g>
<g>
</g>
<g>
</g>
<g>
</g>
</svg>
