<?xml version="1.0" encoding="iso-8859-1"?>
<!-- Generator: Adobe Illustrator 19.0.0, SVG Export Plug-In . SVG Version: 6.00 Build 0)  -->
<svg version="1.1" id="Layer_1" xmlns="http://www.w3.org/2000/svg" xmlns:xlink="http://www.w3.org/1999/xlink" x="0px" y="0px"
	 viewBox="0 0 512 512" style="enable-background:new 0 0 512 512;" xml:space="preserve">
<rect x="106.264" y="159.698" style="fill:#415E72;" width="307.925" height="257.208"/>
<rect x="75.134" y="188.679" style="fill:#FCD577;" width="56.755" height="205.283"/>
<polygon style="fill:#EAC36E;" points="131.888,188.679 97.811,188.679 75.134,188.679 75.134,215.245 75.134,393.962 
	97.811,393.962 97.811,215.245 131.888,215.245 "/>
<rect x="176.797" y="188.679" style="fill:#FCD577;" width="56.755" height="205.283"/>
<polygon style="fill:#EAC36E;" points="233.548,188.679 199.471,188.679 176.793,188.679 176.793,215.245 176.793,393.962 
	199.471,393.962 199.471,215.245 233.548,215.245 "/>
<rect x="278.448" y="188.679" style="fill:#FCD577;" width="56.755" height="205.283"/>
<polygon style="fill:#EAC36E;" points="335.207,188.679 301.131,188.679 278.452,188.679 278.452,215.245 278.452,393.962 
	301.131,393.962 301.131,215.245 335.207,215.245 "/>
<rect x="380.112" y="188.679" style="fill:#FCD577;" width="56.755" height="205.283"/>
<polygon style="fill:#EAC36E;" points="436.866,188.679 402.791,188.679 380.112,188.679 380.112,215.245 380.112,393.962 
	402.791,393.962 402.791,215.245 436.866,215.245 "/>
<polygon style="fill:#FCD577;" points="256,17.811 0,190.491 512,190.491 "/>
<circle style="fill:#415E72;" cx="256" cy="115.623" r="34.415"/>
<path style="fill:#EAC36E;" d="M256,156.075c-22.306,0-40.453-18.147-40.453-40.453S233.694,75.17,256,75.17
	s40.453,18.147,40.453,40.453S278.306,156.075,256,156.075z M256,87.245c-15.647,0-28.377,12.73-28.377,28.377S240.353,144,256,144
	s28.377-12.73,28.377-28.377S271.647,87.245,256,87.245z"/>
<rect x="49.202" y="392.755" style="fill:#FCD577;" width="413.597" height="66.339"/>
<rect x="49.202" y="429.911" style="fill:#EAC36E;" width="413.597" height="60.583"/>
<rect x="16.906" y="443.472" style="fill:#FCD577;" width="478.189" height="50.717"/>
<g>
</g>
<g>
</g>
<g>
</g>
<g>
</g>
<g>
</g>
<g>
</g>
<g>
</g>
<g>
</g>
<g>
</g>
<g>
</g>
<g>
</g>
<g>
</g>
<g>
</g>
<g>
</g>
<g>
</g>
</svg>
