<?xml version="1.0" encoding="iso-8859-1"?>
<!-- Generator: Adobe Illustrator 19.0.0, SVG Export Plug-In . SVG Version: 6.00 Build 0)  -->
<svg version="1.1" id="Layer_1" xmlns="http://www.w3.org/2000/svg" xmlns:xlink="http://www.w3.org/1999/xlink" x="0px" y="0px"
	 viewBox="0 0 512 512" style="enable-background:new 0 0 512 512;" xml:space="preserve">
<path style="fill:#FCD577;" d="M365.69,53.798H161.822c-4.353-23.259,13.492-44.757,37.149-44.757h126.965
	c18.195,0,33.809,12.962,37.149,30.843L365.69,53.798z"/>
<g>
	<path style="fill:#BAC6CC;" d="M417.857,512H272.162c-19.555,0-36.359-13.951-39.96-33.171L152.933,55.461
		c-2.573-13.738,1.073-27.784,9.999-38.538C171.86,6.169,184.997,0,198.974,0h126.963c22.531,0,41.893,16.074,46.042,38.22
		l80.825,431.684c1.952,10.427-0.815,21.089-7.59,29.251C438.436,507.318,428.465,512,417.857,512z M182.813,116.771L249.979,475.5
		c1.997,10.67,11.327,18.414,22.181,18.414h145.696c5.211,0,10.11-2.301,13.439-6.31c3.33-4.01,4.689-9.248,3.729-14.37
		L354.2,41.549c-2.545-13.595-14.433-23.463-28.263-23.463H198.974c-8.58,0-16.644,3.786-22.124,10.389
		c-5.48,6.601-7.717,15.224-6.138,23.658L182.813,116.771z"/>
	<rect x="161.823" y="44.757" style="fill:#BAC6CC;" width="201.264" height="18.086"/>
</g>
<path style="fill:#CFDCE5;" d="M385.574,112.92c-1.707-2.284-4.391-3.628-7.243-3.628H174.461c-4.008,0-7.54,2.638-8.673,6.483
	L59.784,475.005c-2.597,8.806-0.934,18.073,4.561,25.426C69.843,507.784,78.26,512,87.441,512h155.284
	c17,0,32.231-11.386,37.042-27.69l107.237-363.415C387.811,118.16,387.282,115.203,385.574,112.92z M117.932,341.855l18.235-61.795
	H321.18l-18.235,61.795H117.932z M297.608,359.942l-18.235,61.795H94.361l18.235-61.795H297.608z M141.503,261.976l18.235-61.793
	H344.75l-18.233,61.793H141.503z M262.42,479.192c-2.557,8.668-10.656,14.722-19.695,14.722H87.442c-3.422,0-6.559-1.572-8.61-4.313
	c-2.049-2.741-2.668-6.196-1.7-9.478l11.892-40.3h185.014L262.42,479.192z M350.087,182.096H165.074l16.146-54.718h185.013
	L350.087,182.096z"/>
<g>
</g>
<g>
</g>
<g>
</g>
<g>
</g>
<g>
</g>
<g>
</g>
<g>
</g>
<g>
</g>
<g>
</g>
<g>
</g>
<g>
</g>
<g>
</g>
<g>
</g>
<g>
</g>
<g>
</g>
</svg>
