<?xml version="1.0" encoding="iso-8859-1"?>
<!-- Generator: Adobe Illustrator 19.0.0, SVG Export Plug-In . SVG Version: 6.00 Build 0)  -->
<svg version="1.1" id="Layer_1" xmlns="http://www.w3.org/2000/svg" xmlns:xlink="http://www.w3.org/1999/xlink" x="0px" y="0px"
	 viewBox="0 0 512 512" style="enable-background:new 0 0 512 512;" xml:space="preserve">
<g>
	<g>
		<path d="M348.8,153.343c-35.584,0-66.133,18.242-85.333,45.85v-3.177c0-56.467-45.936-102.406-102.4-102.406
			c-56.464,0-102.4,45.94-102.4,102.406V452.01c0,4.713,4.887,8.533,9.6,8.533H256h187.733c4.713,0,7.467-3.821,7.467-8.533V255.674
			C451.2,199.25,405.264,153.343,348.8,153.343z M246.4,255.674v187.802H75.733V196.016c0-47.056,38.28-85.34,85.333-85.34
			s85.333,38.283,85.333,85.34V255.674z M434.133,443.477H263.467V255.674c0-47.015,38.28-85.265,85.333-85.265
			c47.053,0,85.333,38.25,85.333,85.265V443.477z"/>
	</g>
</g>
<g>
	<g>
		<path d="M161.067,127.743c-37.643,0-68.267,30.604-68.267,68.223v68.31c0,4.713,4.888,8.533,9.6,8.533h119.467
			c4.713,0,7.467-3.821,7.467-8.533v-68.31C229.333,158.347,198.709,127.743,161.067,127.743z M212.267,255.743h-102.4v-59.777
			c0-28.208,22.969-51.156,51.2-51.156c28.231,0,51.2,22.948,51.2,51.156V255.743z"/>
	</g>
</g>
<g>
	<g>
		<path d="M348.8,187.477c-37.643,0-68.267,30.604-68.267,68.223v68.31c0,4.713,4.888,8.533,9.6,8.533H409.6
			c4.713,0,7.467-3.821,7.467-8.533v-68.31C417.067,218.081,386.443,187.477,348.8,187.477z M400,315.477H297.6v-59.777
			c0-28.208,22.969-51.156,51.2-51.156c28.231,0,51.2,22.948,51.2,51.156V315.477z"/>
	</g>
</g>
<g>
	<g>
		<path d="M196.267,324.01H128c-4.713,0-8.533,3.821-8.533,8.533c0,4.713,3.821,8.533,8.533,8.533h68.267
			c4.713,0,8.533-3.821,8.533-8.533C204.8,327.831,200.979,324.01,196.267,324.01z"/>
	</g>
</g>
<g>
	<g>
		<path d="M196.267,358.143H128c-4.713,0-8.533,3.821-8.533,8.533c0,4.713,3.821,8.533,8.533,8.533h68.267
			c4.713,0,8.533-3.821,8.533-8.533S200.979,358.143,196.267,358.143z"/>
	</g>
</g>
<g>
	<g>
		<path d="M384,358.143h-68.267c-4.713,0-8.533,3.821-8.533,8.533s3.821,8.533,8.533,8.533H384c4.713,0,8.533-3.821,8.533-8.533
			S388.713,358.143,384,358.143z"/>
	</g>
</g>
<g>
	<g>
		<path d="M204.8,392.277h-85.333c-4.713,0-8.533,3.821-8.533,8.533s3.821,8.533,8.533,8.533H204.8c4.713,0,8.533-3.821,8.533-8.533
			C213.333,396.097,209.513,392.277,204.8,392.277z"/>
	</g>
</g>
<g>
	<g>
		<path d="M392.533,392.277H307.2c-4.713,0-8.533,3.821-8.533,8.533s3.821,8.533,8.533,8.533h85.333
			c4.713,0,8.533-3.821,8.533-8.533C401.067,396.097,397.246,392.277,392.533,392.277z"/>
	</g>
</g>
<g>
	<g>
		<path d="M149.169,59.783c-0.65-4.669-4.964-7.942-9.628-7.275c-11.896,1.656-23.618,4.652-34.84,8.904
			c-4.406,1.669-6.626,6.596-4.955,11.002c1.293,3.412,4.536,5.512,7.98,5.512c1.005,0,2.027-0.179,3.023-0.556
			c10.031-3.8,20.509-6.479,31.144-7.958C146.56,68.762,149.819,64.451,149.169,59.783z"/>
	</g>
</g>
<g>
	<g>
		<path d="M508.313,238.274c-1-4.606-5.546-7.517-10.149-6.529c-4.606,1-7.529,5.544-6.53,10.15c2.19,10.09,3.3,20.49,3.3,30.915
			l-0.004,1.573c-0.038,4.713,3.751,9.094,8.464,9.094c0.024,0,0.048,0,0.071,0c4.68,0,8.494-4.267,8.532-8.956l0.004-1.465
			C512,261.416,510.76,249.552,508.313,238.274z"/>
	</g>
</g>
<g>
	<g>
		<path d="M34.969,126.479c-4.038-2.435-9.28-1.144-11.717,2.894c-6.215,10.292-11.278,21.279-15.051,32.66
			c-1.482,4.473,0.942,9.302,5.415,10.786c0.892,0.296,1.797,0.435,2.686,0.435c3.578,0,6.911-2.269,8.099-5.85
			c3.373-10.177,7.902-20.004,13.461-29.21C40.298,134.16,39.003,128.914,34.969,126.479z"/>
	</g>
</g>
<g>
	<g>
		<path d="M389.268,115.499c-11.594-2.894-23.578-4.502-35.62-4.779c-4.669-0.071-8.619,3.623-8.727,8.335
			c-0.108,4.713,3.624,8.619,8.336,8.727c10.781,0.248,21.507,1.685,31.878,4.275c0.694,0.173,1.389,0.256,2.073,0.256
			c3.825,0,7.304-2.59,8.273-6.469C396.622,121.272,393.841,116.641,389.268,115.499z"/>
	</g>
</g>
<g>
	<g>
		<path d="M327.885,120.533c-0.925-4.621-5.428-7.627-10.043-6.689c-7.785,1.558-15.482,3.706-22.964,6.4
			c-2.852-2.773-7.355-3.25-10.763-0.913c-3.889,2.663-4.881,7.973-2.219,11.86c0.901,1.317,1.782,2.648,2.641,3.994
			c1.607,2.519,4.353,3.942,7.196,3.942c1.081,0,2.176-0.204,3.228-0.635c8.451-3.456,17.278-6.121,26.233-7.915
			C325.816,129.651,328.812,125.154,327.885,120.533z"/>
	</g>
</g>
<g>
	<g>
		<path d="M210.753,58.364c-11.427-3.59-23.305-5.904-35.303-6.881c-4.691-0.362-8.815,3.117-9.197,7.815
			c-0.382,4.698,3.117,8.815,7.813,9.198c10.732,0.871,21.355,2.942,31.572,6.152c0.851,0.267,1.712,0.394,2.559,0.394
			c3.629,0,6.994-2.333,8.138-5.977C217.749,64.568,215.25,59.776,210.753,58.364z"/>
	</g>
</g>
<g>
	<g>
		<path d="M272.517,94.32c-8.797-8.181-18.509-15.39-28.868-21.425c-4.072-2.375-9.297-0.994-11.669,3.077
			c-2.373,4.073-0.995,9.296,3.077,11.669c9.27,5.4,17.962,11.852,25.836,19.175c1.644,1.529,3.729,2.285,5.809,2.285
			c2.288,0,4.57-0.915,6.251-2.721C276.164,102.929,275.968,97.529,272.517,94.32z"/>
	</g>
</g>
<g>
	<g>
		<path d="M84.533,80.216c-2.602-3.925-7.897-5.004-11.827-2.398c-9.996,6.623-19.276,14.371-27.583,23.029
			c-3.264,3.402-3.151,8.802,0.249,12.067c1.655,1.586,3.782,2.375,5.907,2.375c2.243,0,4.483-0.879,6.158-2.625
			c7.439-7.752,15.747-14.69,24.696-20.621C86.063,89.441,87.136,84.145,84.533,80.216z"/>
	</g>
</g>
<g>
	<g>
		<path d="M18.168,231.054c-0.731-5.925-1.102-11.973-1.101-17.977c0-4.737,0.231-9.517,0.687-14.206
			c0.455-4.692-2.978-8.862-7.669-9.319c-4.708-0.461-8.862,2.977-9.319,7.669C0.257,202.456,0,207.791,0,213.074
			c-0.001,6.7,0.413,13.454,1.23,20.071c0.533,4.323,4.211,7.488,8.458,7.488c0.348,0,0.701-0.021,1.056-0.065
			C15.422,239.991,18.746,235.731,18.168,231.054z"/>
	</g>
</g>
<g>
	<g>
		<path d="M496.812,204.208c-5.075-10.852-11.381-21.169-18.743-30.664c-2.889-3.721-8.249-4.404-11.972-1.515
			c-3.725,2.888-4.403,8.248-1.516,11.973c6.588,8.496,12.23,17.727,16.77,27.435c1.45,3.1,4.525,4.921,7.735,4.921
			c1.21,0,2.441-0.258,3.609-0.806C496.966,213.556,498.807,208.477,496.812,204.208z"/>
	</g>
</g>
<g>
	<g>
		<path d="M453.052,147.741c-9.27-7.652-19.391-14.275-30.079-19.685c-4.205-2.131-9.341-0.446-11.467,3.763
			c-2.128,4.204-0.445,9.337,3.76,11.467c9.565,4.839,18.622,10.766,26.919,17.619c1.591,1.313,3.516,1.952,5.428,1.952
			c2.458,0,4.898-1.056,6.586-3.1C457.2,156.12,456.687,150.743,453.052,147.741z"/>
	</g>
</g>
<g>
	<g>
		<path d="M501.401,299.479c-4.595-1.075-9.178,1.785-10.246,6.375c-2.434,10.452-6.05,20.648-10.747,30.306
			c-2.061,4.237-0.296,9.344,3.942,11.406c1.202,0.583,2.474,0.86,3.726,0.86c3.164,0,6.204-1.767,7.68-4.804
			c5.253-10.802,9.298-22.206,12.021-33.898C508.846,305.135,505.991,300.547,501.401,299.479z"/>
	</g>
</g>
<g>
	<g>
		<path d="M39.86,291.174c-5.799-9.061-10.583-18.765-14.221-28.844c-1.601-4.433-6.487-6.723-10.924-5.131
			c-4.432,1.6-6.729,6.492-5.13,10.923c4.069,11.273,9.418,22.125,15.9,32.252c1.629,2.546,4.382,3.935,7.196,3.935
			c1.574,0,3.168-0.438,4.592-1.348C41.243,300.42,42.401,295.143,39.86,291.174z"/>
	</g>
</g>
<g>
</g>
<g>
</g>
<g>
</g>
<g>
</g>
<g>
</g>
<g>
</g>
<g>
</g>
<g>
</g>
<g>
</g>
<g>
</g>
<g>
</g>
<g>
</g>
<g>
</g>
<g>
</g>
<g>
</g>
</svg>
