<?xml version="1.0" encoding="iso-8859-1"?>
<!-- Generator: Adobe Illustrator 19.0.0, SVG Export Plug-In . SVG Version: 6.00 Build 0)  -->
<svg version="1.1" id="Layer_1" xmlns="http://www.w3.org/2000/svg" xmlns:xlink="http://www.w3.org/1999/xlink" x="0px" y="0px"
	 viewBox="0 0 512 512" style="enable-background:new 0 0 512 512;" xml:space="preserve">
<g>
	<g>
		<path d="M341.888,125.754H72.422c-4.961,0-10.105,4.022-10.105,8.982V332.35c0,4.961,5.145,8.982,10.105,8.982h269.466
			c59.438,0,107.796-48.354,107.796-107.789S401.326,125.754,341.888,125.754z M341.888,323.368H80.281V143.719h261.607
			c49.533,0,89.831,40.295,89.831,89.824C431.719,283.073,391.421,323.368,341.888,323.368z"/>
	</g>
</g>
<g>
	<g>
		<path d="M341.938,161.684h-71.903c-4.961,0-10.105,4.022-10.105,8.982V296.42c0,4.961,5.145,8.982,10.105,8.982h71.903
			c39.599,0,71.816-32.236,71.816-71.859S381.537,161.684,341.938,161.684z M341.938,287.438h-64.044V179.649h64.044
			c29.693,0,53.851,24.178,53.851,53.895C395.789,263.26,371.631,287.438,341.938,287.438z"/>
	</g>
</g>
<g>
	<g>
		<path d="M197.053,188.631c-4.961,0-8.982,4.022-8.982,8.982v71.859c0,4.961,4.022,8.982,8.982,8.982
			c4.961,0,8.982-4.022,8.982-8.982v-71.859C206.035,192.653,202.013,188.631,197.053,188.631z"/>
	</g>
</g>
<g>
	<g>
		<path d="M161.123,188.631c-4.961,0-8.982,4.022-8.982,8.982v71.859c0,4.961,4.022,8.982,8.982,8.982
			c4.961,0,8.982-4.022,8.982-8.982v-71.859C170.105,192.653,166.084,188.631,161.123,188.631z"/>
	</g>
</g>
<g>
	<g>
		<path d="M125.193,179.649c-4.961,0-8.982,4.022-8.982,8.982v89.824c0,4.961,4.022,8.982,8.982,8.982
			c4.961,0,8.982-4.022,8.982-8.982v-89.824C134.176,183.671,130.154,179.649,125.193,179.649z"/>
	</g>
</g>
<g>
	<g>
		<path d="M382.638,111.286c-4.061-11.469-8.618-22.918-13.548-34.028c-2.013-4.536-7.318-6.578-11.853-4.568
			c-4.535,2.011-6.579,7.318-4.568,11.853c4.741,10.69,9.127,21.705,13.035,32.739c1.305,3.685,4.77,5.987,8.467,5.987
			c0.996,0,2.007-0.167,2.998-0.518C381.846,121.095,384.294,115.962,382.638,111.286z"/>
	</g>
</g>
<g>
	<g>
		<path d="M389.072,348.936c-4.789-1.252-9.706,1.626-10.958,6.427c-2.921,11.213-6.41,22.502-10.364,33.555
			c-1.673,4.67,0.759,9.812,5.43,11.484c1,0.358,2.022,0.528,3.026,0.528c3.686,0,7.143-2.287,8.456-5.958
			c4.134-11.549,7.781-23.351,10.838-35.077C396.75,355.092,393.872,350.187,389.072,348.936z"/>
	</g>
</g>
<g>
	<g>
		<path d="M332.658,480.415c-4.14-2.74-9.71-1.601-12.447,2.535c-3.274,4.948-6.711,9.944-10.211,14.846
			c-2.884,4.037-1.947,9.647,2.088,12.53c1.583,1.13,3.408,1.674,5.215,1.674c2.803,0,5.564-1.308,7.316-3.763
			c3.625-5.076,7.184-10.249,10.575-15.375C337.93,488.725,336.796,483.151,332.658,480.415z"/>
	</g>
</g>
<g>
	<g>
		<path d="M366.392,417.039c-4.513-2.069-9.842-0.08-11.906,4.43c-4.805,10.502-10.164,21.062-15.93,31.387
			c-2.419,4.331-0.868,9.802,3.463,12.221c1.386,0.774,2.888,1.141,4.371,1.141c3.149,0,6.206-1.659,7.851-4.604
			c6-10.742,11.579-21.735,16.583-32.671C372.888,424.432,370.903,419.102,366.392,417.039z"/>
	</g>
</g>
<g>
	<g>
		<path d="M406.533,18.139L316.708,0.174c-4.787-0.953-9.469,2.09-10.529,6.86l-17.965,80.842c-1.077,4.842,1.976,9.64,6.818,10.717
			c0.658,0.146,1.311,0.216,1.958,0.216c4.116-0.001,7.829-2.85,8.759-7.036l14.759-66.403c2.724,3.985,8.978,13.508,16.62,27.571
			c1.629,2.996,4.715,4.695,7.901,4.695c1.447,0,2.919-0.352,4.281-1.092c4.36-2.37,5.971-7.823,3.603-12.182
			c-4.772-8.779-9.015-15.86-12.307-21.087l62.403,12.48c4.862,0.969,9.597-2.183,10.568-7.046
			C414.552,23.845,411.399,19.112,406.533,18.139z"/>
	</g>
</g>
<g>
</g>
<g>
</g>
<g>
</g>
<g>
</g>
<g>
</g>
<g>
</g>
<g>
</g>
<g>
</g>
<g>
</g>
<g>
</g>
<g>
</g>
<g>
</g>
<g>
</g>
<g>
</g>
<g>
</g>
</svg>
