<?xml version="1.0" encoding="iso-8859-1"?>
<!-- Generator: Adobe Illustrator 19.0.0, SVG Export Plug-In . SVG Version: 6.00 Build 0)  -->
<svg version="1.1" id="Layer_1" xmlns="http://www.w3.org/2000/svg" xmlns:xlink="http://www.w3.org/1999/xlink" x="0px" y="0px"
	 viewBox="0 0 512 512" style="enable-background:new 0 0 512 512;" xml:space="preserve">
<g>
	<g>
		<path d="M251.949,136.101c-42.884,0-77.772,34.891-77.772,77.777v194.426c0,3.579,3.712,6.481,7.291,6.481h142.582
			c3.579,0,5.671-2.902,5.671-6.481V213.878C329.721,170.992,294.833,136.101,251.949,136.101z M316.759,401.823h-129.62V213.878
			c0-35.739,29.073-64.815,64.81-64.815c35.737,0,64.81,29.076,64.81,64.815V401.823z"/>
	</g>
</g>
<g>
	<g>
		<path d="M252.76,97.215c-67.899,0-123.139,55.24-123.139,123.139c0,16.9,3.363,33.278,9.996,48.676
			c1.056,2.452,3.445,3.918,5.956,3.918c0.855,0,1.726-0.17,2.561-0.53c3.287-1.416,4.805-5.23,3.388-8.517
			c-5.932-13.77-8.939-28.422-8.939-43.548c0-60.751,49.426-110.177,110.177-110.177c60.752,0,110.177,49.426,110.177,110.177
			c0,14.903-2.922,29.354-8.684,42.952c-1.396,3.295,0.143,7.099,3.439,8.496c3.293,1.395,7.1-0.142,8.496-3.439
			c6.444-15.206,9.711-31.358,9.711-48.009C375.899,152.455,320.659,97.215,252.76,97.215z"/>
	</g>
</g>
<g>
	<g>
		<path d="M251.949,162.025c-28.589,0-51.848,23.244-51.848,51.816v51.88c0,3.579,3.712,6.481,7.291,6.481h90.734
			c3.579,0,5.671-2.902,5.671-6.481v-51.88C303.797,185.27,280.539,162.025,251.949,162.025z M290.835,259.24h-77.772v-45.399
			c0-21.424,17.445-38.854,38.886-38.854c21.441,0,38.886,17.43,38.886,38.854V259.24z"/>
	</g>
</g>
<g>
	<g>
		<path d="M278.684,311.089h-51.848c-3.579,0-6.481,2.902-6.481,6.481c0,3.579,2.902,6.481,6.481,6.481h51.848
			c3.579,0,6.481-2.902,6.481-6.481C285.165,313.99,282.263,311.089,278.684,311.089z"/>
	</g>
</g>
<g>
	<g>
		<path d="M278.684,337.013h-51.848c-3.579,0-6.481,2.902-6.481,6.481c0,3.579,2.902,6.481,6.481,6.481h51.848
			c3.579,0,6.481-2.902,6.481-6.481C285.165,339.914,282.263,337.013,278.684,337.013z"/>
	</g>
</g>
<g>
	<g>
		<path d="M285.165,362.937h-64.81c-3.579,0-6.481,2.902-6.481,6.481c0,3.579,2.902,6.481,6.481,6.481h64.81
			c3.579,0,6.481-2.902,6.481-6.481C291.646,365.839,288.744,362.937,285.165,362.937z"/>
	</g>
</g>
<g>
	<g>
		<path d="M116.658,194.43H22.127l27.823-27.822c2.531-2.532,2.531-6.634,0-9.166c-2.532-2.53-6.634-2.53-9.166,0L1.898,196.328
			c-2.531,2.532-2.531,6.634,0,9.166l38.886,38.886c1.266,1.265,2.924,1.898,4.583,1.898c1.659,0,3.317-0.633,4.583-1.898
			c2.531-2.532,2.531-6.634,0-9.166l-27.823-27.822h94.531c3.579,0,6.481-2.902,6.481-6.481
			C123.139,197.332,120.237,194.43,116.658,194.43z"/>
	</g>
</g>
<g>
	<g>
		<path d="M510.102,196.328l-38.886-38.886c-2.532-2.53-6.634-2.53-9.166,0c-2.531,2.532-2.531,6.634,0,9.166l27.823,27.822h-94.531
			c-3.579,0-6.481,2.902-6.481,6.481c0,3.579,2.902,6.481,6.481,6.481h94.531l-27.823,27.822c-2.531,2.532-2.531,6.634,0,9.166
			c1.266,1.265,2.924,1.898,4.583,1.898c1.659,0,3.317-0.633,4.583-1.898l38.886-38.886
			C512.633,202.963,512.633,198.86,510.102,196.328z"/>
	</g>
</g>
<g>
</g>
<g>
</g>
<g>
</g>
<g>
</g>
<g>
</g>
<g>
</g>
<g>
</g>
<g>
</g>
<g>
</g>
<g>
</g>
<g>
</g>
<g>
</g>
<g>
</g>
<g>
</g>
<g>
</g>
</svg>
