<?xml version="1.0" encoding="iso-8859-1"?>
<!-- Generator: Adobe Illustrator 16.0.0, SVG Export Plug-In . SVG Version: 6.00 Build 0)  -->
<!DOCTYPE svg PUBLIC "-//W3C//DTD SVG 1.1//EN" "http://www.w3.org/Graphics/SVG/1.1/DTD/svg11.dtd">
<svg version="1.1" id="Capa_1" xmlns="http://www.w3.org/2000/svg" xmlns:xlink="http://www.w3.org/1999/xlink" x="0px" y="0px"
	 width="49.025px" height="49.025px" viewBox="0 0 49.025 49.025" style="enable-background:new 0 0 49.025 49.025;"
	 xml:space="preserve">
<g>
	<path d="M47.695,41.797c0,0-0.979-6.609-3.367-12.535c-2.635-6.65-6.914-13.815-6.914-13.815c-1.617-1.979-3.254-3.204-5.397-2.368
		l-2.868,1.119c-0.424,0.166-0.764,0.397-1.061,0.659c-0.332-3.301-0.645-5.728-0.645-5.728c-0.787-2.43-1.865-4.167-4.167-4.167
		h-3.079c-2.301,0-3.485,1.885-4.167,4.167c0,0-0.424,3.042-0.825,6.927C14.79,9.98,14.233,4.167,14.233,4.167
		C13.445,1.737,12.367,0,10.066,0H6.987C4.686,0,3.502,1.886,2.82,4.167c0,0-1.527,14.642-1.527,21.586
		c0,6.944,1.527,19.104,1.527,19.104c0.711,2.328,1.866,4.168,4.167,4.168h3.079c2.301,0,3.438-1.815,4.167-4.168
		c0,0,0.445-3.801,0.837-8.289c0.435,4.517,0.96,8.289,0.96,8.289c0.712,2.328,1.866,4.168,4.167,4.168h3.079
		c2.3,0,3.438-1.815,4.167-4.168c0,0,1.322-10.197,1.416-16.719c0.594,2.092,1.299,4.312,2.092,6.342
		c2.523,6.469,6.113,11.465,6.113,11.465c1.508,1.91,3.252,3.203,5.396,2.367l2.868-1.119
		C47.473,46.357,47.873,44.254,47.695,41.797z M4.96,11.294c0-1.37,1.111-2.481,2.481-2.481h2.067c1.37,0,2.481,1.111,2.481,2.481
		v0.413c0,1.369-1.111,2.481-2.481,2.481H7.441c-1.37,0-2.481-1.111-2.481-2.481V11.294z M11.163,43.337H5.787
		c-0.685,0-1.24-0.556-1.24-1.241s0.556-1.24,1.24-1.24h5.376c0.685,0,1.24,0.556,1.24,1.24
		C12.403,42.783,11.848,43.337,11.163,43.337z M18.171,15.635c0-1.37,1.111-2.481,2.481-2.481h2.068c1.37,0,2.48,1.11,2.48,2.481
		v0.413c0,1.37-1.111,2.481-2.48,2.481h-2.068c-1.37,0-2.481-1.111-2.481-2.481V15.635z M24.373,43.337h-5.375
		c-0.685,0-1.241-0.556-1.241-1.241s0.556-1.24,1.241-1.24h5.375c0.685,0,1.24,0.556,1.24,1.24
		C25.613,42.783,25.058,43.337,24.373,43.337z M35.677,23.994l-1.926,0.752c-1.276,0.498-2.716-0.133-3.214-1.408l-0.149-0.386
		c-0.498-1.276,0.134-2.715,1.409-3.212l1.926-0.753c1.277-0.497,2.715,0.134,3.213,1.409l0.15,0.385
		C37.585,22.058,36.953,23.496,35.677,23.994z M44.602,42.314l-5.008,1.953c-0.639,0.25-1.357-0.064-1.605-0.703
		c-0.25-0.64,0.065-1.357,0.705-1.606l5.006-1.954c0.639-0.248,1.357,0.066,1.607,0.705C45.556,41.348,45.24,42.064,44.602,42.314z"
		/>
</g>
<g>
</g>
<g>
</g>
<g>
</g>
<g>
</g>
<g>
</g>
<g>
</g>
<g>
</g>
<g>
</g>
<g>
</g>
<g>
</g>
<g>
</g>
<g>
</g>
<g>
</g>
<g>
</g>
<g>
</g>
</svg>
