<?xml version="1.0" encoding="iso-8859-1"?>
<!-- Generator: Adobe Illustrator 18.1.1, SVG Export Plug-In . SVG Version: 6.00 Build 0)  -->
<svg version="1.1" id="Capa_1" xmlns="http://www.w3.org/2000/svg" xmlns:xlink="http://www.w3.org/1999/xlink" x="0px" y="0px"
	 viewBox="0 0 52.231 52.231" style="enable-background:new 0 0 52.231 52.231;" xml:space="preserve">
<g>
	<path style="fill:#010002;" d="M48.232,39.306c-0.057-0.489-1.421-12.046-3.1-18.441c-0.991-3.867-2.636-8.672-3.84-12.022
		c-1.294-3.596-9.644-7.88-11.304-8.703c-0.287-0.141-0.614-0.178-0.926-0.099L8.138,5.288C5.55,5.937,4.154,8.114,3.99,11.759
		c-0.003,0.068-0.001,0.136,0.006,0.204c0.05,0.466,1.245,11.503,2.993,18.476c1.748,6.971,5.903,17.265,6.079,17.699
		c0.027,0.066,0.058,0.129,0.095,0.19c0.582,0.965,2.351,3.903,5.43,3.903c0.417,0,0.847-0.054,1.276-0.162l24.224-6.074
		c3.847-0.964,4.073-5.1,4.147-6.458C48.243,39.459,48.242,39.382,48.232,39.306z M39.952,9.326c0,0-1.895,0.475-4.232,1.061
		c-2.338,0.586-4.754-1.016-5.396-3.575l-1.164-4.64L39.952,9.326z M11.245,23.855c-0.604,0-1.153-0.408-1.307-1.019
		c-0.181-0.723,0.257-1.455,0.98-1.636l25.886-6.491c0.724-0.18,1.454,0.258,1.635,0.979c0.181,0.722-0.257,1.454-0.979,1.635
		l-25.885,6.491C11.464,23.841,11.354,23.855,11.245,23.855z M12.993,30.828c-0.603,0-1.153-0.408-1.307-1.02
		c-0.181-0.723,0.258-1.455,0.98-1.636l25.885-6.491c0.723-0.179,1.454,0.258,1.635,0.979c0.181,0.722-0.258,1.454-0.98,1.635
		l-25.885,6.492C13.212,30.814,13.102,30.828,12.993,30.828z M40.956,31.268l-25.885,6.491c-0.11,0.027-0.221,0.04-0.329,0.04
		c-0.604,0-1.153-0.408-1.307-1.02c-0.181-0.722,0.257-1.455,0.979-1.636l25.885-6.491c0.724-0.181,1.454,0.258,1.635,0.979
		C42.116,30.355,41.678,31.087,40.956,31.268z"/>
</g>
<g>
</g>
<g>
</g>
<g>
</g>
<g>
</g>
<g>
</g>
<g>
</g>
<g>
</g>
<g>
</g>
<g>
</g>
<g>
</g>
<g>
</g>
<g>
</g>
<g>
</g>
<g>
</g>
<g>
</g>
</svg>
