<?xml version="1.0" encoding="iso-8859-1"?>
<!-- Generator: Adobe Illustrator 18.1.1, SVG Export Plug-In . SVG Version: 6.00 Build 0)  -->
<svg version="1.1" id="Capa_1" xmlns="http://www.w3.org/2000/svg" xmlns:xlink="http://www.w3.org/1999/xlink" x="0px" y="0px"
	 viewBox="0 0 51.375 51.375" style="enable-background:new 0 0 51.375 51.375;" xml:space="preserve">
<g>
	<path style="fill:#010002;" d="M5.137,36.307c0.09,1.435,0.241,3.106,0.494,4.907c0.263,1.869,0.65,3.635,1.048,5.153
		c0.737,2.811,4.29,5.008,7.604,5.008h23.125c3.313,0,6.782-2.117,7.451-4.812c0.363-1.465,0.716-3.161,0.949-4.935
		c0.235-1.792,0.365-3.563,0.434-5.117c0.126-2.834-2.646-5.136-5.959-5.136h-29.25C7.719,31.375,4.968,33.587,5.137,36.307z"/>
	<path style="fill:#010002;" d="M24.688,3.506V23.25c0,3.313-2.687,6-6,6h-3.28c-3.314,0-5.969-2.715-5.131-5.921
		c1.125-4.305,3.703-17.013,9.604-22.244C22.361-1.112,24.688,0.192,24.688,3.506z"/>
	<path style="fill:#010002;" d="M26.87,10.506V23.25c0,3.313,2.687,6,6,6h3.28c3.313,0,5.969-2.715,5.131-5.921
		c-1.125-4.305-3.703-10.013-9.604-15.244C29.197,5.888,26.87,7.192,26.87,10.506z"/>
</g>
<g>
</g>
<g>
</g>
<g>
</g>
<g>
</g>
<g>
</g>
<g>
</g>
<g>
</g>
<g>
</g>
<g>
</g>
<g>
</g>
<g>
</g>
<g>
</g>
<g>
</g>
<g>
</g>
<g>
</g>
</svg>
