<?xml version="1.0" encoding="iso-8859-1"?>
<!-- Generator: Adobe Illustrator 19.0.0, SVG Export Plug-In . SVG Version: 6.00 Build 0)  -->
<svg version="1.1" id="Layer_1" xmlns="http://www.w3.org/2000/svg" xmlns:xlink="http://www.w3.org/1999/xlink" x="0px" y="0px"
	 viewBox="0 0 512 512" style="enable-background:new 0 0 512 512;" xml:space="preserve">
<path style="fill:#FF8E00;" d="M367.101,122.248l-75.591,28.74l75.591,46.851C387.975,176.965,387.975,143.122,367.101,122.248z"/>
<path style="fill:#FFBA00;" d="M307.14,137.878l-15.63,59.961c20.874,20.874,54.717,20.874,75.591,0L307.14,137.878z"/>
<polygon style="fill:#2D64BC;" points="306.09,486.355 40.073,254.669 201.209,40.381 226.262,59.222 82.66,250.19 326.678,462.715 
	"/>
<g>
	
		<rect x="389.386" y="233.709" transform="matrix(-0.7071 -0.7071 0.7071 -0.7071 538.3375 721.7513)" style="fill:#FF8E00;" width="58.524" height="31.347"/>
	<rect x="426.391" y="144.374" style="fill:#FF8E00;" width="58.525" height="31.347"/>
	<rect x="313.637" y="257.128" style="fill:#FF8E00;" width="31.347" height="58.525"/>
</g>
<circle style="fill:#FF7D3C;" cx="63.455" cy="247.578" r="36.371"/>
<path style="fill:#FFB995;" d="M63.455,211.21c-20.087,0-36.371,16.284-36.371,36.371s16.284,36.371,36.371,36.371V211.21z"/>
<path style="fill:#E04C00;" d="M387.091,448.199H286.144L254.797,512h170.974v-25.121
	C425.771,465.516,408.454,448.199,387.091,448.199z"/>
<g>
	<path style="fill:#FF7D3C;" d="M286.144,448.199H185.198c-21.362,0-38.68,17.317-38.68,38.68V512h139.627V448.199z"/>
	<polygon style="fill:#FF7D3C;" points="291.03,74.975 216.056,0 192.659,23.397 256,110.005 	"/>
</g>
<rect x="201.897" y="19.564" transform="matrix(-0.7071 0.7071 -0.7071 -0.7071 424.2222 -30.566)" style="fill:#FFB995;" width="33.088" height="106.025"/>
<path style="fill:#E04C00;" d="M412.909,76.441l-3.558-3.558c-46.173-46.173-121.034-46.173-167.207,0l0,0l61.393,112.929
	L412.909,76.441z"/>
<path style="fill:#FF7D3C;" d="M242.145,72.883L242.145,72.883c-46.173,46.173-46.173,121.034,0,167.207l3.558,3.558l83.603-83.603
	L242.145,72.883z"/>
<g>
</g>
<g>
</g>
<g>
</g>
<g>
</g>
<g>
</g>
<g>
</g>
<g>
</g>
<g>
</g>
<g>
</g>
<g>
</g>
<g>
</g>
<g>
</g>
<g>
</g>
<g>
</g>
<g>
</g>
</svg>
