<?xml version="1.0" encoding="iso-8859-1"?>
<!-- Generator: Adobe Illustrator 19.0.0, SVG Export Plug-In . SVG Version: 6.00 Build 0)  -->
<svg version="1.1" id="Layer_1" xmlns="http://www.w3.org/2000/svg" xmlns:xlink="http://www.w3.org/1999/xlink" x="0px" y="0px"
	 viewBox="0 0 512 512" style="enable-background:new 0 0 512 512;" xml:space="preserve">
<g>
	<g>
		<path d="M389.12,117.581c-0.525,0-1.05,0-1.57,0.01C377.61,53.671,321.66,4.941,256,4.941c-73.405,0-133.12,59.905-133.12,133.305
			c0,6.87,0.525,12.985,1.57,20.665H102.4c-56.465,0-102.4,45.94-102.4,102.4s45.935,102.4,102.4,102.4h286.72
			c67.755,0,122.88-55.305,122.88-123.065C512,172.886,456.875,117.581,389.12,117.581z M389.12,343.231H102.4
			c-45.17,0-81.92-36.75-81.92-81.92s36.75-81.92,81.92-81.92h34.59c3.165,0,6.155-1.645,8.09-4.155
			c1.94-2.5,2.615-5.843,1.825-8.913c-2.35-9.15-3.545-18.677-3.545-28.218c0-62.11,50.53-112.662,112.64-112.662
			c58.4,0,107.725,45.54,112.29,103.69c0.215,2.74,1.52,5.262,3.62,7.032c2.1,1.76,4.78,2.698,7.555,2.348
			c3.175-0.3,6.4-0.45,9.655-0.45c56.465,0,102.4,46.122,102.4,102.583S445.585,343.231,389.12,343.231z"/>
	</g>
</g>
<g>
	<g>
		<path d="M276.285,239.811c-0.13-0.315,1.475-0.61-1.085-0.92v-131.55c0-5.66-4.585-10.24-10.24-10.24
			c-5.655,0-10.24,4.58-10.24,10.24v116.527c-12.8-2.765-29.668,0.573-46.495,10.282c-12.14,7.02-21.81,16.39-27.81,26.39
			c-7.015,11.7-7.845,23.66-2.565,32.81c5.175,8.96,15.765,14.06,28.995,14.06c0.29,0,0.615,0,0.905-0.01
			c11.665-0.19,24.79-4.16,36.935-11.17C270.805,281.151,283.725,257.411,276.285,239.811z M234.465,278.491
			c-9.045,5.23-18.89,8.3-27.015,8.43c-5.84,0.28-10.285-1.36-11.705-3.81c-1.41-2.45-0.43-7.06,2.555-12.04
			c4.175-6.96,11.76-13.96,20.805-19.18c10.275-5.93,20.05-8.34,27.305-8.34c5.925,0,10.17,1.6,11.65,4.2
			C260.49,253.501,252.69,267.971,234.465,278.491z"/>
	</g>
</g>
<g>
	<g>
		<path d="M245.76,373.581c-22.585,0-40.96,18.37-40.96,40.96s18.375,40.96,40.96,40.96s40.96-18.37,40.96-40.96
			S268.345,373.581,245.76,373.581z M245.76,435.021c-11.295,0-20.48-9.19-20.48-20.48c0-11.29,9.185-20.48,20.48-20.48
			s20.48,9.19,20.48,20.48C266.24,425.831,257.055,435.021,245.76,435.021z"/>
	</g>
</g>
<g>
	<g>
		<rect x="101.12" y="486.579" width="299.52" height="20.48"/>
	</g>
</g>
<g>
</g>
<g>
</g>
<g>
</g>
<g>
</g>
<g>
</g>
<g>
</g>
<g>
</g>
<g>
</g>
<g>
</g>
<g>
</g>
<g>
</g>
<g>
</g>
<g>
</g>
<g>
</g>
<g>
</g>
</svg>
