<?xml version="1.0" encoding="iso-8859-1"?>
<!-- Generator: Adobe Illustrator 19.0.0, SVG Export Plug-In . SVG Version: 6.00 Build 0)  -->
<svg version="1.1" id="Layer_1" xmlns="http://www.w3.org/2000/svg" xmlns:xlink="http://www.w3.org/1999/xlink" x="0px" y="0px"
	 viewBox="0 0 512 512" style="enable-background:new 0 0 512 512;" xml:space="preserve">
<g>
	<g>
		<path d="M256,0c-54.251,0-98.394,44.133-98.394,98.38v137.776c0,50.93,39.358,92.939,88.555,97.892V512h19.679V334.047
			c51.657-4.953,88.555-46.962,88.555-97.892V98.38C354.394,44.133,310.251,0,256,0z M334.715,236.155
			c0,43.398-35.312,78.706-78.715,78.706s-78.715-35.307-78.715-78.706V98.38c0-43.398,35.312-78.701,78.715-78.701
			s78.715,35.303,78.715,78.701V236.155z"/>
	</g>
</g>
<g>
	<g>
		<rect x="118.248" y="108.578" width="19.679" height="108.234"/>
	</g>
</g>
<g>
	<g>
		<rect x="413.431" y="108.578" width="19.679" height="108.234"/>
	</g>
</g>
<g>
	<g>
		<rect x="78.891" y="108.578" width="19.679" height="108.234"/>
	</g>
</g>
<g>
	<g>
		<rect x="374.073" y="108.578" width="19.679" height="108.234"/>
	</g>
</g>
<g>
</g>
<g>
</g>
<g>
</g>
<g>
</g>
<g>
</g>
<g>
</g>
<g>
</g>
<g>
</g>
<g>
</g>
<g>
</g>
<g>
</g>
<g>
</g>
<g>
</g>
<g>
</g>
<g>
</g>
</svg>
