<?xml version="1.0" encoding="iso-8859-1"?>
<!-- Generator: Adobe Illustrator 19.0.0, SVG Export Plug-In . SVG Version: 6.00 Build 0)  -->
<svg version="1.1" id="Layer_1" xmlns="http://www.w3.org/2000/svg" xmlns:xlink="http://www.w3.org/1999/xlink" x="0px" y="0px"
	 viewBox="0 0 512 512" style="enable-background:new 0 0 512 512;" xml:space="preserve">
<path d="M366.677,501.333l-99.669-390.4h57.259c4.693,0,8.533-3.84,8.533-8.533V8.533C332.8,3.84,328.96,0,324.267,0H187.733
	c-4.693,0-8.533,3.84-8.533,8.533V102.4c0,4.693,3.84,8.533,8.533,8.533h57.259l-99.669,390.4
	c-1.195,4.608,1.621,9.216,6.144,10.411c0.768,0.171,1.451,0.256,2.133,0.256c3.84,0,7.253-2.56,8.277-6.4l85.589-335.275v256.341
	c0,4.693,3.84,8.533,8.533,8.533c4.693,0,8.533-3.84,8.533-8.533V170.325L350.123,505.6c1.024,3.84,4.437,6.4,8.277,6.4
	c0.683,0,1.365-0.085,2.133-0.256C365.056,510.549,367.872,505.941,366.677,501.333z M196.267,93.867v-76.8h119.467v76.8H196.267z"
	/>
<rect x="298.65" y="17.067" style="fill:#AD1457;" width="17.067" height="76.8"/>
<rect x="196.25" y="17.067" style="fill:#D81B60;" width="102.4" height="76.8"/>
<g>
</g>
<g>
</g>
<g>
</g>
<g>
</g>
<g>
</g>
<g>
</g>
<g>
</g>
<g>
</g>
<g>
</g>
<g>
</g>
<g>
</g>
<g>
</g>
<g>
</g>
<g>
</g>
<g>
</g>
</svg>
