<?xml version="1.0" encoding="iso-8859-1"?>
<!-- Generator: Adobe Illustrator 19.0.0, SVG Export Plug-In . SVG Version: 6.00 Build 0)  -->
<svg version="1.1" id="Capa_1" xmlns="http://www.w3.org/2000/svg" xmlns:xlink="http://www.w3.org/1999/xlink" x="0px" y="0px"
	 viewBox="0 0 58 58" style="enable-background:new 0 0 58 58;" xml:space="preserve">
<g>
	<circle cx="15" cy="10" r="1"/>
	<circle cx="11" cy="14" r="1"/>
	<circle cx="7" cy="18" r="1"/>
	<circle cx="15" cy="18" r="1"/>
	<circle cx="11" cy="22" r="1"/>
	<circle cx="7" cy="26" r="1"/>
	<circle cx="15" cy="26" r="1"/>
	<circle cx="11" cy="30" r="1"/>
	<circle cx="7" cy="34" r="1"/>
	<circle cx="15" cy="34" r="1"/>
	<circle cx="11" cy="38" r="1"/>
	<circle cx="7" cy="42" r="1"/>
	<circle cx="15" cy="42" r="1"/>
	<circle cx="11" cy="46" r="1"/>
	<circle cx="15" cy="50" r="1"/>
	<circle cx="23" cy="10" r="1"/>
	<circle cx="31" cy="10" r="1"/>
	<circle cx="19" cy="14" r="1"/>
	<circle cx="27" cy="14" r="1"/>
	<circle cx="19" cy="6" r="1"/>
	<circle cx="27" cy="6" r="1"/>
	<circle cx="23" cy="18" r="1"/>
	<circle cx="31" cy="18" r="1"/>
	<circle cx="19" cy="22" r="1"/>
	<circle cx="27" cy="22" r="1"/>
	<circle cx="23" cy="26" r="1"/>
	<circle cx="31" cy="26" r="1"/>
	<circle cx="19" cy="30" r="1"/>
	<circle cx="27" cy="30" r="1"/>
	<circle cx="23" cy="34" r="1"/>
	<circle cx="31" cy="34" r="1"/>
	<circle cx="19" cy="38" r="1"/>
	<circle cx="27" cy="38" r="1"/>
	<circle cx="23" cy="42" r="1"/>
	<circle cx="31" cy="42" r="1"/>
	<circle cx="19" cy="46" r="1"/>
	<circle cx="27" cy="46" r="1"/>
	<circle cx="23" cy="50" r="1"/>
	<circle cx="31" cy="50" r="1"/>
	<circle cx="27" cy="54" r="1"/>
	<circle cx="39" cy="10" r="1"/>
	<circle cx="35" cy="14" r="1"/>
	<circle cx="35" cy="6" r="1"/>
	<circle cx="39" cy="18" r="1"/>
	<circle cx="35" cy="22" r="1"/>
	<circle cx="39" cy="26" r="1"/>
	<circle cx="35" cy="30" r="1"/>
	<circle cx="39" cy="34" r="1"/>
	<circle cx="35" cy="38" r="1"/>
	<circle cx="39" cy="42" r="1"/>
	<circle cx="35" cy="46" r="1"/>
	<circle cx="39" cy="50" r="1"/>
	<circle cx="35" cy="54" r="1"/>
	<circle cx="43" cy="14" r="1"/>
	<circle cx="47" cy="18" r="1"/>
	<circle cx="43" cy="22" r="1"/>
	<circle cx="47" cy="26" r="1"/>
	<circle cx="43" cy="30" r="1"/>
	<circle cx="47" cy="34" r="1"/>
	<circle cx="43" cy="38" r="1"/>
	<circle cx="47" cy="42" r="1"/>
	<circle cx="43" cy="46" r="1"/>
	<circle cx="51" cy="22" r="1"/>
	<circle cx="51" cy="30" r="1"/>
	<circle cx="51" cy="38" r="1"/>
	<path d="M29,0C13.01,0,0,13.01,0,29s13.01,29,29,29s29-13.01,29-29S44.99,0,29,0z M55.661,33.261C55.484,33.103,55.256,33,55,33
		c-0.552,0-1,0.448-1,1s0.448,1,1,1c0.119,0,0.229-0.03,0.335-0.068c-0.839,3.725-2.444,7.162-4.649,10.131
		c-0.373,0.125-0.64,0.455-0.672,0.862c-0.892,1.105-1.866,2.142-2.919,3.094C47.063,49.016,47.034,49,47,49
		c-0.534,0-0.961,0.421-0.99,0.948C41.364,53.728,35.443,56,29,56c-3.192,0-6.254-0.56-9.098-1.582C19.961,54.29,20,54.151,20,54
		c0-0.552-0.448-1-1-1c-0.438,0-0.8,0.286-0.935,0.678C11.521,50.766,6.342,45.33,3.773,38.609C3.907,38.439,4,38.233,4,38
		c0-0.473-0.335-0.85-0.776-0.955c-0.686-2.194-1.095-4.508-1.195-6.901C2.101,30.625,2.499,31,3,31c0.552,0,1-0.448,1-1
		s-0.448-1-1-1c-0.513,0-0.919,0.391-0.977,0.888C2.013,29.593,2,29.298,2,29c0-2.084,0.245-4.112,0.695-6.062
		C2.792,22.97,2.892,23,3,23c0.552,0,1-0.448,1-1c0-0.482-0.348-0.865-0.801-0.96c2.77-8.96,10.088-15.938,19.245-18.231
		C22.605,2.92,22.789,3,23,3c0.367,0,0.673-0.207,0.847-0.501C25.516,2.175,27.238,2,29,2c0.337,0,0.671,0.013,1.005,0.026
		C30.019,2.565,30.457,3,31,3c0.493,0,0.885-0.364,0.966-0.834c3.678,0.404,7.134,1.551,10.219,3.285C42.078,5.611,42,5.793,42,6
		c0,0.552,0.448,1,1,1c0.377,0,0.693-0.217,0.864-0.525c1.162,0.769,2.263,1.622,3.29,2.556C47.101,9.023,47.054,9,47,9
		c-0.552,0-1,0.448-1,1s0.448,1,1,1s1-0.448,1-1c0-0.071-0.026-0.134-0.04-0.2c1.018,1.006,1.956,2.092,2.806,3.248
		C50.33,13.155,50,13.531,50,14c0,0.552,0.448,1,1,1c0.337,0,0.62-0.177,0.801-0.433c2.035,3.203,3.413,6.86,3.945,10.784
		C55.563,25.14,55.302,25,55,25c-0.552,0-1,0.448-1,1s0.448,1,1,1c0.385,0,0.71-0.225,0.877-0.544C55.955,27.294,56,28.142,56,29
		C56,30.45,55.882,31.873,55.661,33.261z"/>
</g>
<g>
</g>
<g>
</g>
<g>
</g>
<g>
</g>
<g>
</g>
<g>
</g>
<g>
</g>
<g>
</g>
<g>
</g>
<g>
</g>
<g>
</g>
<g>
</g>
<g>
</g>
<g>
</g>
<g>
</g>
</svg>
