<?xml version="1.0" encoding="iso-8859-1"?>
<!-- Generator: Adobe Illustrator 19.0.0, SVG Export Plug-In . SVG Version: 6.00 Build 0)  -->
<svg version="1.1" id="Layer_1" xmlns="http://www.w3.org/2000/svg" xmlns:xlink="http://www.w3.org/1999/xlink" x="0px" y="0px"
	 viewBox="0 0 512.006 512.006" style="enable-background:new 0 0 512.006 512.006;" xml:space="preserve">
<path style="fill:#E0E0E0;" d="M355.645,252.212l145.023-145.023c15.116-15.116,15.117-39.626,0-54.743L459.56,11.338
	c-15.117-15.117-39.626-15.117-54.743,0L259.794,156.36L355.645,252.212z"/>
<path style="fill:#F1F1F1;" d="M480.114,31.891L459.56,11.337c-15.116-15.116-39.626-15.116-54.743,0L259.794,156.36l47.926,47.926
	L480.114,31.891z"/>
<rect x="223.662" y="50.877" transform="matrix(-0.7071 -0.7071 0.7071 -0.7071 380.8526 566.3036)" style="fill:#3B67AA;" width="168.1" height="306.796"/>
<g>
	
		<rect x="235.97" y="21.16" transform="matrix(-0.7071 -0.7071 0.7071 -0.7071 351.1359 494.5619)" style="fill:#0094E2;" width="84.05" height="306.796"/>
	
		<rect x="98.924" y="131.308" transform="matrix(-0.7071 -0.7071 0.7071 -0.7071 118.9983 674.791)" style="fill:#0094E2;" width="200.658" height="362.885"/>
</g>
<rect x="113.615" y="95.842" transform="matrix(-0.7071 -0.7071 0.7071 -0.7071 83.5186 589.1636)" style="fill:#3EBBFB;" width="100.329" height="362.885"/>
<rect x="55.434" y="303.29" transform="matrix(-0.7071 0.7071 -0.7071 -0.7071 470.4313 612.3782)" style="fill:#FBBA00;" width="105.909" height="200.658"/>
<rect x="8.141" y="322.873" transform="matrix(-0.7071 0.7071 -0.7071 -0.7071 356.2477 565.0663)" style="fill:#FBDB80;" width="105.909" height="66.882"/>
<rect x="122.245" y="397.951" transform="matrix(-0.7071 -0.7071 0.7071 -0.7071 -53.0651 879.8298)" style="fill:#F28E00;" width="66.882" height="105.909"/>
<g>
</g>
<g>
</g>
<g>
</g>
<g>
</g>
<g>
</g>
<g>
</g>
<g>
</g>
<g>
</g>
<g>
</g>
<g>
</g>
<g>
</g>
<g>
</g>
<g>
</g>
<g>
</g>
<g>
</g>
</svg>
