<?xml version="1.0" encoding="iso-8859-1"?>
<!-- Generator: Adobe Illustrator 19.0.0, SVG Export Plug-In . SVG Version: 6.00 Build 0)  -->
<svg version="1.1" id="Layer_1" xmlns="http://www.w3.org/2000/svg" xmlns:xlink="http://www.w3.org/1999/xlink" x="0px" y="0px"
	 viewBox="0 0 512 512" style="enable-background:new 0 0 512 512;" xml:space="preserve">
<g>
	<g>
		<path d="M256,0C161.899,0,85.333,76.565,85.333,170.667c0,86.869,65.28,158.635,149.333,169.195v150.805
			c0,11.776,9.536,21.333,21.333,21.333s21.333-9.557,21.333-21.333V339.861c84.053-10.56,149.333-82.325,149.333-169.195
			C426.667,76.565,350.101,0,256,0z M320,192H192c-11.797,0-21.333-9.557-21.333-21.333s9.536-21.333,21.333-21.333h128
			c11.797,0,21.333,9.557,21.333,21.333S331.797,192,320,192z"/>
	</g>
</g>
<g>
</g>
<g>
</g>
<g>
</g>
<g>
</g>
<g>
</g>
<g>
</g>
<g>
</g>
<g>
</g>
<g>
</g>
<g>
</g>
<g>
</g>
<g>
</g>
<g>
</g>
<g>
</g>
<g>
</g>
</svg>
