<?xml version="1.0" encoding="iso-8859-1"?>
<!-- Generator: Adobe Illustrator 19.0.0, SVG Export Plug-In . SVG Version: 6.00 Build 0)  -->
<svg version="1.1" id="Layer_1" xmlns="http://www.w3.org/2000/svg" xmlns:xlink="http://www.w3.org/1999/xlink" x="0px" y="0px"
	 viewBox="0 0 512 512" style="enable-background:new 0 0 512 512;" xml:space="preserve">
<path style="fill:#5286FA;" d="M411.151,0H256.009H100.848c-7.23,0-13.689,3.297-17.959,8.47c-1.898,2.299-3.362,4.968-4.268,7.883
	c-0.68,2.185-1.046,4.51-1.046,6.92v186.182v279.273c0,12.853,10.42,23.273,23.273,23.273h155.161h155.142
	c12.853,0,23.273-10.42,23.273-23.273V209.455V23.273C434.424,10.42,424.004,0,411.151,0z M273.771,281.571
	c0.858,0.223,1.705,0.47,2.549,0.726c0.141,0.043,0.284,0.078,0.425,0.121C275.763,282.112,274.772,281.831,273.771,281.571z"/>
<path style="fill:#3440DB;" d="M325.647,344.452c-0.213-3.199-0.619-6.346-1.249-9.413c-0.394-1.916-0.883-3.797-1.431-5.654
	c-0.099-0.343-0.188-0.692-0.293-1.033c-0.573-1.837-1.235-3.631-1.952-5.399c-0.137-0.335-0.258-0.678-0.4-1.01
	c-0.351-0.827-0.728-1.641-1.109-2.45c-0.099-0.213-0.188-0.43-0.29-0.641c-0.431-0.895-0.891-1.777-1.359-2.65
	c-0.064-0.118-0.121-0.242-0.185-0.36c-8.524-15.672-22.879-27.724-40.128-33.249c-0.171-0.054-0.337-0.119-0.507-0.172
	c-1.963-0.613-3.967-1.126-5.998-1.565c-0.23-0.05-0.456-0.11-0.686-0.16c-0.731-0.149-1.469-0.268-2.206-0.396
	c-0.413-0.071-0.816-0.157-1.23-0.22c-0.633-0.098-1.275-0.163-1.915-0.245c-0.524-0.064-1.046-0.146-1.576-0.2
	c-0.641-0.065-1.291-0.099-1.938-0.149c-0.535-0.039-1.064-0.095-1.601-0.121c-0.622-0.033-1.254-0.033-1.879-0.048
	c-0.569-0.014-1.133-0.042-1.705-0.042c-0.003,0-0.006,0-0.009,0c-38.498,0-69.818,31.32-69.818,69.818s31.32,69.818,69.818,69.818
	c0.003,0,0.006,0,0.009,0c0.571,0,1.134-0.031,1.705-0.043c0.625-0.016,1.257-0.017,1.879-0.048
	c0.538-0.028,1.067-0.084,1.601-0.123c0.647-0.047,1.297-0.082,1.938-0.147c0.531-0.054,1.052-0.135,1.576-0.202
	c0.639-0.079,1.282-0.147,1.915-0.244c0.414-0.064,0.818-0.15,1.23-0.22c0.737-0.127,1.475-0.245,2.206-0.396
	c0.23-0.047,0.456-0.11,0.686-0.16c2.032-0.439,4.037-0.953,5.998-1.565c0.171-0.053,0.337-0.116,0.507-0.171
	c17.25-5.527,31.604-17.579,40.128-33.252c0.064-0.118,0.121-0.24,0.185-0.36c0.469-0.874,0.928-1.753,1.359-2.648
	c0.101-0.211,0.189-0.427,0.29-0.639c0.382-0.811,0.759-1.624,1.109-2.451c0.143-0.334,0.264-0.676,0.4-1.012
	c0.717-1.767,1.379-3.564,1.952-5.399c0.105-0.34,0.194-0.687,0.293-1.032c0.548-1.856,1.036-3.738,1.431-5.654
	c0.628-3.069,1.036-6.215,1.249-9.415c0.101-1.536,0.171-3.08,0.171-4.639C325.818,347.53,325.748,345.988,325.647,344.452z"/>
<polygon style="fill:#00E7F0;" points="256.009,46.545 124.121,46.545 124.121,186.182 256.009,186.182 387.879,186.182 
	387.879,46.545 "/>
<rect x="124.121" y="46.545" style="fill:#00D7DF;" width="131.894" height="139.636"/>
<path style="fill:#2633D8;" d="M256.009,279.273c-0.003,0-0.006,0-0.009,0c-38.499,0-69.818,31.319-69.818,69.818
	c0,38.498,31.319,69.818,69.818,69.818c0.003,0,0.006,0,0.009,0V279.273z"/>
<path style="fill:#3D6DEB;" d="M256,418.909c-38.499,0-69.818-31.322-69.818-69.818c0-38.499,31.319-69.818,69.818-69.818
	c0.003,0,0.006,0,0.009,0v-93.091H124.121V46.545h131.888V0H100.848C87.996,0,77.576,10.42,77.576,23.273v186.182v279.273
	c0,12.853,10.42,23.273,23.273,23.273h155.161v-93.091C256.006,418.909,256.003,418.909,256,418.909z"/>
<g>
	<path style="fill:#5286FA;" d="M317.379,315.839c-8.524-15.672-22.879-27.724-40.128-33.249
		C294.501,288.115,308.855,300.169,317.379,315.839z"/>
	<path style="fill:#5286FA;" d="M261.194,279.485c0.647,0.048,1.297,0.084,1.938,0.149
		C262.492,279.568,261.841,279.533,261.194,279.485z"/>
	<path style="fill:#5286FA;" d="M257.714,279.315c0.625,0.016,1.257,0.017,1.879,0.048
		C258.97,279.332,258.34,279.33,257.714,279.315z"/>
	<path style="fill:#5286FA;" d="M320.323,376.239c-0.351,0.827-0.728,1.64-1.109,2.451
		C319.595,377.879,319.972,377.066,320.323,376.239z"/>
	<path style="fill:#5286FA;" d="M277.251,415.59c17.25-5.525,31.604-17.579,40.128-33.252
		C308.855,398.012,294.501,410.065,277.251,415.59z"/>
	<path style="fill:#5286FA;" d="M267.854,280.298c0.737,0.127,1.475,0.247,2.206,0.396
		C269.329,280.545,268.589,280.425,267.854,280.298z"/>
	<path style="fill:#5286FA;" d="M318.925,379.33c-0.431,0.895-0.891,1.776-1.359,2.648
		C318.033,381.106,318.492,380.225,318.925,379.33z"/>
	<path style="fill:#5286FA;" d="M259.592,418.816c-0.622,0.033-1.254,0.034-1.879,0.048
		C258.34,418.85,258.97,418.849,259.592,418.816z"/>
	<path style="fill:#5286FA;" d="M322.968,329.385c0.546,1.856,1.036,3.736,1.431,5.654
		C324.004,333.121,323.516,331.241,322.968,329.385z"/>
	<path style="fill:#5286FA;" d="M320.723,322.951c0.717,1.77,1.379,3.564,1.952,5.399
		C322.102,326.515,321.44,324.721,320.723,322.951z"/>
	<path style="fill:#5286FA;" d="M325.818,349.091c0,1.559-0.07,3.103-0.171,4.636C325.748,352.194,325.818,350.65,325.818,349.091z"
		/>
	<path style="fill:#5286FA;" d="M270.058,417.486c-0.731,0.15-1.469,0.268-2.206,0.396
		C268.589,417.755,269.329,417.637,270.058,417.486z"/>
	<path style="fill:#5286FA;" d="M324.399,363.143c-0.394,1.915-0.883,3.797-1.431,5.654
		C323.516,366.94,324.004,365.058,324.399,363.143z"/>
	<path style="fill:#5286FA;" d="M325.647,344.452c0.101,1.536,0.171,3.078,0.171,4.639
		C325.818,347.53,325.748,345.988,325.647,344.452z"/>
	<path style="fill:#5286FA;" d="M266.623,418.101c-0.633,0.098-1.275,0.164-1.915,0.244
		C265.346,418.267,265.99,418.198,266.623,418.101z"/>
	<path style="fill:#5286FA;" d="M263.132,418.548c-0.641,0.065-1.291,0.099-1.938,0.147
		C261.841,418.647,262.492,418.613,263.132,418.548z"/>
	<path style="fill:#5286FA;" d="M319.213,319.491c0.382,0.808,0.759,1.623,1.109,2.45
		C319.972,321.114,319.595,320.299,319.213,319.491z"/>
	<path style="fill:#5286FA;" d="M270.746,280.854c2.033,0.439,4.037,0.953,5.998,1.565
		C274.781,281.806,272.778,281.291,270.746,280.854z"/>
	<path style="fill:#5286FA;" d="M322.675,369.827c-0.573,1.837-1.235,3.634-1.952,5.399
		C321.44,373.461,322.102,371.664,322.675,369.827z"/>
	<path style="fill:#5286FA;" d="M317.566,316.2c0.469,0.875,0.928,1.755,1.359,2.65C318.492,317.955,318.033,317.074,317.566,316.2z
		"/>
	<path style="fill:#5286FA;" d="M276.744,415.763c-1.963,0.613-3.967,1.126-5.998,1.565
		C272.778,416.887,274.781,416.374,276.744,415.763z"/>
	<path style="fill:#5286FA;" d="M264.707,279.833c0.639,0.082,1.282,0.149,1.915,0.245
		C265.99,279.982,265.346,279.915,264.707,279.833z"/>
</g>
<g>
</g>
<g>
</g>
<g>
</g>
<g>
</g>
<g>
</g>
<g>
</g>
<g>
</g>
<g>
</g>
<g>
</g>
<g>
</g>
<g>
</g>
<g>
</g>
<g>
</g>
<g>
</g>
<g>
</g>
</svg>
