<?xml version="1.0" encoding="iso-8859-1"?>
<!-- Generator: Adobe Illustrator 19.0.0, SVG Export Plug-In . SVG Version: 6.00 Build 0)  -->
<svg version="1.1" id="Layer_1" xmlns="http://www.w3.org/2000/svg" xmlns:xlink="http://www.w3.org/1999/xlink" x="0px" y="0px"
	 viewBox="0 0 511.988 511.988" style="enable-background:new 0 0 511.988 511.988;" xml:space="preserve">
<path style="fill:#ED5564;" d="M348.384,354.647c-1.453,0-2.906-0.312-4.25-0.891l-34.468-14.999c-2-0.859-3.672-2.328-4.812-4.172
	l-8.672-14c-1.625-2.625-2.031-5.812-1.109-8.781l16.656-53.639c0.719-2.297,2.188-4.289,4.188-5.648l37.811-25.78
	c1.391-0.945,2.984-1.547,4.656-1.766c6.531-0.836,13.219-1.258,19.891-1.258c67.093,0,117.123,41.929,119.232,43.718
	c2.953,2.516,4.312,6.437,3.531,10.249c-0.766,3.797-3.547,6.875-7.25,8.047c-0.234,0.078-23.905,7.562-49.374,19.077
	c-42.749,19.344-55.187,33.734-58.796,40.594c-1.625,3.093-4.641,5.187-8.094,5.624l-27.796,3.531
	C349.29,354.616,348.837,354.647,348.384,354.647z"/>
<path style="fill:#DA4453;" d="M451.163,239.682c-8.844-3.859-18.734-7.452-29.468-10.257c-6.125,3.039-12.656,6.577-19.281,10.624
	c-16.375,10.008-29.938,21.102-40.328,32.991c-13.452,15.391-21.608,32.171-24.249,49.827c-0.875,5.812,3.156,11.25,8.969,12.125
	c0.547,0.078,1.078,0.125,1.594,0.125c5.202,0,9.749-3.812,10.53-9.094C366.07,278.243,425.43,249.853,451.163,239.682z"/>
<path style="fill:#ED5564;" d="M162.255,354.554l-27.796-3.531c-3.453-0.438-6.469-2.531-8.094-5.624
	c-3.609-6.859-16.046-21.25-58.795-40.594c-25.46-11.515-49.132-18.999-49.366-19.077c-3.703-1.172-6.484-4.25-7.258-8.047
	c-0.773-3.812,0.586-7.733,3.539-10.249c2.102-1.789,52.14-43.718,119.232-43.718c6.664,0,13.351,0.422,19.89,1.258
	c1.672,0.219,3.266,0.82,4.656,1.766l37.812,25.78c1.992,1.359,3.46,3.352,4.179,5.648l16.664,53.639
	c0.922,2.969,0.508,6.156-1.117,8.781l-8.664,14c-1.141,1.844-2.82,3.312-4.812,4.172l-34.468,14.999
	c-1.352,0.578-2.797,0.891-4.258,0.891C163.145,354.647,162.7,354.616,162.255,354.554z"/>
<path style="fill:#DA4453;" d="M60.812,239.682c8.851-3.859,18.75-7.452,29.483-10.257c6.117,3.039,12.648,6.577,19.273,10.624
	c16.375,10.008,29.937,21.102,40.327,32.991c13.453,15.391,21.617,32.171,24.25,49.827c0.875,5.812-3.148,11.25-8.969,12.125
	c-0.539,0.078-1.07,0.125-1.594,0.125c-5.195,0-9.742-3.812-10.531-9.094C145.911,278.243,86.561,249.853,60.812,239.682z"/>
<path style="fill:#FFCE54;" d="M460.147,365.022l-1.828-0.531c-26.469-7.094-35.421-13.938-47.202-18.405
	c-41.797-15.938-52.672-27.406-55.453-32.828c-0.094-0.203-0.172-0.406-0.266-0.609l-0.344-48.545l-99.129-1.125l-99.131,1.125
	l-0.344,48.545c-0.094,0.203-0.172,0.406-0.273,0.609c-2.781,5.422-13.648,16.891-55.452,32.828
	c-11.781,4.468-20.734,11.312-47.202,18.405l-1.82,0.531c-24.093,7.969-40.304,30.312-40.304,55.53v91.436h244.526h244.518v-91.436
	C500.443,395.334,484.24,372.991,460.147,365.022z"/>
<path style="fill:#F6BB42;" d="M255.925,511.988h10.664V377.647c0-5.891-4.773-10.672-10.664-10.672
	c-5.898,0-10.672,4.781-10.672,10.672v134.341L255.925,511.988L255.925,511.988z"/>
<path style="fill:#CCD1D9;" d="M255.925,394.662c84.287,0,117.301-59.264,120.051-64.514c-13.656-7.75-18.578-13.5-20.312-16.891
	c-0.094-0.203-0.172-0.406-0.266-0.609l-0.344-48.545l-99.129-1.125l-99.131,1.125l-0.344,48.545
	c-0.094,0.203-0.172,0.406-0.273,0.609c-1.734,3.391-6.641,9.141-20.312,16.891C138.615,335.398,171.63,394.662,255.925,394.662z"/>
<path style="fill:#AAB2BC;" d="M256.651,320.664h-0.726l-41.202,68.748c12.109,3.266,25.788,5.25,41.202,5.25
	c15.671,0,29.569-2.047,41.834-5.422L256.651,320.664z"/>
<path style="fill:#E6E9ED;" d="M393.476,170.16c0,89.373-85.201,171.613-137.551,171.613c-52.351,0-137.552-82.24-137.552-171.613
	c0-89.381,61.584-148.341,137.552-148.341C331.899,21.819,393.476,80.779,393.476,170.16z"/>
<path style="fill:#434A54;" d="M391.601,69.015c0,0-20.531-69.015-135.676-69.015C140.779,0,123.584,68.874,123.584,68.874
	c-18.171,45.771-4.734,113.13-4.734,113.13l41.905-75.131c0,0,45.671,10.663,95.17,10.663c49.491,0,96.833-10.663,96.833-10.663
	l40.719,63.49C393.476,170.363,409.133,109.42,391.601,69.015z"/>
<path style="fill:#CCD1D9;" d="M277.26,266.666h-42.67c-5.891,0-10.664-4.781-10.664-10.672s4.773-10.664,10.664-10.664h42.67
	c5.891,0,10.672,4.773,10.672,10.664S283.15,266.666,277.26,266.666z"/>
<g>
	<path style="fill:#F5F7FA;" d="M234.59,277.337c-5.891,0-10.664-4.781-10.664-10.671v-10.672c0-5.891,4.773-10.664,10.664-10.664
		c5.89,0,10.664,4.773,10.664,10.664v10.672C245.253,272.556,240.48,277.337,234.59,277.337z"/>
	<path style="fill:#F5F7FA;" d="M277.26,277.337c-5.897,0-10.671-4.781-10.671-10.671v-10.672c0-5.891,4.773-10.664,10.671-10.664
		c5.891,0,10.672,4.773,10.672,10.664v10.672C287.931,272.556,283.15,277.337,277.26,277.337z"/>
</g>
<g>
	<path style="fill:#434A54;" d="M245.253,437.334c0,5.891-4.773,10.656-10.664,10.656s-10.664-4.766-10.664-10.656
		s4.773-10.672,10.664-10.672S245.253,431.443,245.253,437.334z"/>
	<path style="fill:#434A54;" d="M245.253,479.989c0,5.891-4.773,10.672-10.664,10.672s-10.664-4.781-10.664-10.672
		s4.773-10.672,10.664-10.672S245.253,474.098,245.253,479.989z"/>
</g>
<g>
</g>
<g>
</g>
<g>
</g>
<g>
</g>
<g>
</g>
<g>
</g>
<g>
</g>
<g>
</g>
<g>
</g>
<g>
</g>
<g>
</g>
<g>
</g>
<g>
</g>
<g>
</g>
<g>
</g>
</svg>
