<?xml version="1.0" encoding="iso-8859-1"?>
<!-- Generator: Adobe Illustrator 19.0.0, SVG Export Plug-In . SVG Version: 6.00 Build 0)  -->
<svg version="1.1" id="Layer_1" xmlns="http://www.w3.org/2000/svg" xmlns:xlink="http://www.w3.org/1999/xlink" x="0px" y="0px"
	 viewBox="0 0 511.988 511.988" style="enable-background:new 0 0 511.988 511.988;" xml:space="preserve">
<path style="fill:#965353;" d="M271.985,26.671h-32c-5.89,0-10.656,4.781-10.656,10.672v122.653c0,5.891,4.766,10.672,10.656,10.672
	h32c5.897,0,10.679-4.781,10.679-10.672V37.343C282.664,31.452,277.883,26.671,271.985,26.671z"/>
<path style="fill:#FFCE54;" d="M255.986,0c-23.515,0-42.655,19.14-42.655,42.671s19.14,42.671,42.655,42.671
	c23.538,0,42.678-19.14,42.678-42.671S279.523,0,255.986,0z"/>
<path style="opacity:0.2;fill:#FFFFFF;enable-background:new    ;" d="M255.986,31.999c0,5.891-4.766,10.672-10.656,10.672
	s-10.671-4.781-10.671-10.672s4.781-10.656,10.671-10.656S255.986,26.108,255.986,31.999z"/>
<rect x="229.334" y="106.674" style="fill:#7F4545;" width="53.33" height="21.327"/>
<path style="fill:#FFCE54;" d="M287.992,181.34h-64.006c-5.891,0-10.656,4.765-10.656,10.656v225.058
	c0,5.89,4.765,10.655,10.656,10.655h64.006c5.891,0,10.672-4.766,10.672-10.655V191.996
	C298.664,186.104,293.883,181.34,287.992,181.34z"/>
<path style="fill:#ED5564;" d="M361.396,154.965c-1.844-3.469-5.469-5.625-9.406-5.625H159.988c-3.922,0-7.547,2.156-9.391,5.625
	c-1.859,3.469-1.656,7.672,0.516,10.953l21.343,31.999c1.969,2.969,5.312,4.75,8.875,4.75h149.333c3.562,0,6.89-1.781,8.874-4.75
	l21.327-31.999C363.053,162.637,363.256,158.433,361.396,154.965z"/>
<path style="fill:#F6BB42;" d="M255.986,341.336c-5.891,0-10.656-4.781-10.656-10.672v-63.998c0-5.891,4.766-10.672,10.656-10.672
	c5.89,0,10.671,4.781,10.671,10.672v63.998C266.657,336.555,261.876,341.336,255.986,341.336z"/>
<path style="fill:#CCD1D9;" d="M447.052,496.941l-49.968-110.482c-1.062-2.344-2.938-4.234-5.281-5.297l-131.364-60.186
	c-3-1.375-6.468-1.297-9.39,0.234L142.254,378.1c-1.656,0.859-3.046,2.141-4.046,3.718l-72.546,113.78
	c-2.094,3.281-2.219,7.453-0.359,10.859c1.875,3.422,5.468,5.531,9.359,5.531h362.671c3.625,0,7-1.828,8.953-4.875
	C448.255,504.066,448.536,500.238,447.052,496.941z"/>
<path style="fill:#AAB2BC;" d="M446.286,507.113c1.969-3.047,2.25-6.875,0.766-10.172l-49.968-110.482
	c-1.062-2.344-2.938-4.234-5.281-5.297l-131.364-60.186c-1.422-0.656-2.922-0.969-4.438-0.969l74.663,97.046l21.326,94.935h85.343
	C440.958,511.988,444.333,510.16,446.286,507.113z"/>
<g>
</g>
<g>
</g>
<g>
</g>
<g>
</g>
<g>
</g>
<g>
</g>
<g>
</g>
<g>
</g>
<g>
</g>
<g>
</g>
<g>
</g>
<g>
</g>
<g>
</g>
<g>
</g>
<g>
</g>
</svg>
