<?xml version="1.0" encoding="iso-8859-1"?>
<!-- Generator: Adobe Illustrator 19.0.0, SVG Export Plug-In . SVG Version: 6.00 Build 0)  -->
<svg version="1.1" id="Layer_1" xmlns="http://www.w3.org/2000/svg" xmlns:xlink="http://www.w3.org/1999/xlink" x="0px" y="0px"
	 viewBox="0 0 512 512" style="enable-background:new 0 0 512 512;" xml:space="preserve">
<path style="fill:#EDB2D8;" d="M424.643,180.674H87.358V80.004c0-38.552,31.252-69.804,69.803-69.804h197.678
	c38.552,0,69.804,31.252,69.804,69.804L424.643,180.674L424.643,180.674z"/>
<rect x="87.357" y="180.679" style="fill:#74C1F2;" width="337.288" height="88.539"/>
<g>
	<rect x="87.357" y="269.218" style="fill:#EDB2D8;" width="337.288" height="125.542"/>
	<rect x="87.357" y="394.76" style="fill:#EDB2D8;" width="42.949" height="107.041"/>
	<rect x="381.695" y="394.76" style="fill:#EDB2D8;" width="42.949" height="107.041"/>
</g>
<path style="fill:#74C1F2;" d="M336.103,180.674H190.737v-18.501c0-20.436,16.567-37.003,37.003-37.003h71.362
	c20.436,0,37.003,16.567,37.003,37.003v18.501H336.103z"/>
<path d="M354.84,0H157.161c-44.114,0-80.004,35.889-80.004,80.003v100.671v88.541v125.544v107.042
	c0,5.632,4.566,10.199,10.199,10.199h42.949c5.633,0,10.199-4.567,10.199-10.199v-96.842h230.991v96.842
	c0,5.632,4.566,10.199,10.199,10.199h42.949c5.633,0,10.199-4.567,10.199-10.199V394.759V269.215v-88.541V80.003
	C434.844,35.889,398.954,0,354.84,0z M97.556,384.56V279.414h316.889V384.56H97.556z M325.904,170.476H200.936v-8.302
	c0-14.78,12.024-26.803,26.804-26.803h71.362c14.779,0,26.802,12.024,26.802,26.803V170.476z M414.445,190.874v68.143H97.556
	v-68.143H414.445z M97.556,80.003c0-32.867,26.738-59.604,59.605-59.604h197.678c32.867,0,59.605,26.738,59.605,59.604v90.472
	h-68.143v-8.302c0-26.027-21.175-47.202-47.201-47.202h-71.362c-26.027,0-47.202,21.176-47.202,47.202v8.302H97.556V80.003z
	 M120.107,491.602H97.556v-86.643h22.55v86.643H120.107z M414.445,491.602h-22.55v-86.643h22.55L414.445,491.602L414.445,491.602z"
	/>
<path d="M254.371,349.833h-8.948c-5.633,0-10.199,4.567-10.199,10.199c0,5.632,4.566,10.199,10.199,10.199h8.948
	c5.633,0,10.199-4.567,10.199-10.199C264.57,354.4,260.004,349.833,254.371,349.833z"/>
<path d="M388.59,349.833h-93.117c-5.633,0-10.199,4.567-10.199,10.199c0,5.632,4.566,10.199,10.199,10.199h93.117
	c5.633,0,10.199-4.567,10.199-10.199C398.789,354.4,394.223,349.833,388.59,349.833z"/>
<g>
</g>
<g>
</g>
<g>
</g>
<g>
</g>
<g>
</g>
<g>
</g>
<g>
</g>
<g>
</g>
<g>
</g>
<g>
</g>
<g>
</g>
<g>
</g>
<g>
</g>
<g>
</g>
<g>
</g>
</svg>
