<?xml version="1.0" encoding="iso-8859-1"?>
<!-- Generator: Adobe Illustrator 19.0.0, SVG Export Plug-In . SVG Version: 6.00 Build 0)  -->
<svg version="1.1" id="Layer_1" xmlns="http://www.w3.org/2000/svg" xmlns:xlink="http://www.w3.org/1999/xlink" x="0px" y="0px"
	 viewBox="0 0 392.663 392.663" style="enable-background:new 0 0 392.663 392.663;" xml:space="preserve">
<g>
	<g>
		<path d="M250.699,176.032l-0.776-0.129c-4.784-0.905-9.632,1.487-11.83,5.948l-28.962,59.087h-25.665l-28.962-59.087
			c-2.133-4.396-7.822-6.659-12.606-5.818c-54.95,10.214-94.901,58.44-94.901,114.618v91.087c0,6.012,4.849,10.925,10.925,10.925
			h276.816c6.012,0,10.925-4.849,10.925-10.925v-91.152C345.6,234.408,305.649,186.182,250.699,176.032z M68.848,370.877v-80.291
			c0-43.184,28.962-80.55,69.883-91.475l20.493,41.891h-47.063c-3.103,0-6.012,1.293-8.146,3.62
			c-2.133,2.327-3.103,5.301-2.78,8.404l11.895,117.851H68.848z M257.358,370.877H135.111v-0.065l-2.263-21.915h14.61
			c6.012,0,10.925-4.849,10.925-10.925c0-6.012-4.849-10.925-10.925-10.925h-16.873l-2.263-21.786h43.248
			c6.012,0,10.925-4.849,10.925-10.925s-4.848-10.925-10.925-10.925h-45.511l-2.069-20.622h144.162L257.358,370.877z
			 M323.814,370.812h-44.412l11.895-117.851c0.323-3.103-0.711-6.077-2.78-8.404c-2.069-2.327-5.042-3.62-8.145-3.62h-46.998
			l20.493-41.891c40.986,11.055,69.948,48.356,69.948,91.539V370.812z"/>
	</g>
</g>
<g>
	<g>
		<path d="M196.331,0c-42.02,0-76.283,34.263-76.283,76.283c0,42.02,34.263,76.283,76.283,76.283s76.283-34.263,76.283-76.283
			C272.614,34.263,238.352,0,196.331,0z M196.331,130.844c-30.061,0-54.497-24.436-54.497-54.497s24.436-54.497,54.497-54.497
			s54.497,24.436,54.497,54.497S226.392,130.844,196.331,130.844z"/>
	</g>
</g>
<g>
</g>
<g>
</g>
<g>
</g>
<g>
</g>
<g>
</g>
<g>
</g>
<g>
</g>
<g>
</g>
<g>
</g>
<g>
</g>
<g>
</g>
<g>
</g>
<g>
</g>
<g>
</g>
<g>
</g>
</svg>
