<?xml version="1.0" encoding="iso-8859-1"?>
<!-- Generator: Adobe Illustrator 19.0.0, SVG Export Plug-In . SVG Version: 6.00 Build 0)  -->
<svg version="1.1" id="Layer_1" xmlns="http://www.w3.org/2000/svg" xmlns:xlink="http://www.w3.org/1999/xlink" x="0px" y="0px"
	 viewBox="0 0 512 512" style="enable-background:new 0 0 512 512;" xml:space="preserve">
<g>
	<g>
		<path d="M256,208.591c-47.057,0-85.336,38.279-85.336,85.336c0,47.057,38.279,85.336,85.336,85.336
			c47.057,0,85.336-38.279,85.336-85.336C341.336,246.87,303.057,208.591,256,208.591z M256,360.3
			c-36.594,0-66.373-29.779-66.373-66.373s29.779-66.373,66.373-66.373c36.594,0,66.373,29.779,66.373,66.373
			S292.594,360.3,256,360.3z"/>
	</g>
</g>
<g>
	<g>
		<path d="M502.527,66.364c-2.908,0-71.466,0.472-102.402,41.724c-23.945,31.92-63.025,49.974-70.53,53.24
			c-21.813-12.155-46.902-19.109-73.595-19.109c-26.691,0-51.78,6.954-73.593,19.109c-7.473-3.231-46.488-21.186-70.533-53.24
			C80.938,66.836,12.38,66.364,9.473,66.364C4.241,66.364,0,70.605,0,75.836c-0.009,5.232,4.232,9.482,9.463,9.491
			c0.62,0,62.021,0.509,87.244,34.131c20.704,27.612,50.381,45.485,67.155,54.06c-36.182,27.753-59.571,71.391-59.571,120.409
			c0,83.651,68.058,151.709,151.709,151.709c83.651,0,151.709-68.058,151.709-151.709c0-49.018-23.39-92.656-59.569-120.409
			c16.771-8.574,46.448-26.448,67.153-54.06c25.223-33.622,86.624-34.131,87.244-34.131c5.232-0.009,9.473-4.259,9.463-9.491
			C512,70.605,507.759,66.364,502.527,66.364z M388.746,293.927c0,73.197-59.548,132.746-132.746,132.746
			s-132.746-59.548-132.746-132.746S182.803,161.182,256,161.182S388.746,220.73,388.746,293.927z"/>
	</g>
</g>
<g>
</g>
<g>
</g>
<g>
</g>
<g>
</g>
<g>
</g>
<g>
</g>
<g>
</g>
<g>
</g>
<g>
</g>
<g>
</g>
<g>
</g>
<g>
</g>
<g>
</g>
<g>
</g>
<g>
</g>
</svg>
