<?xml version="1.0" encoding="iso-8859-1"?>
<!-- Generator: Adobe Illustrator 19.0.0, SVG Export Plug-In . SVG Version: 6.00 Build 0)  -->
<svg version="1.1" id="Layer_1" xmlns="http://www.w3.org/2000/svg" xmlns:xlink="http://www.w3.org/1999/xlink" x="0px" y="0px"
	 viewBox="0 0 512 512" style="enable-background:new 0 0 512 512;" xml:space="preserve">
<g>
	<g>
		<path d="M394.211,107.994C276.292-9.926,88.14-20.778,32.439,34.908c-55.68,55.686-44.842,243.853,73.087,361.767
			c75.238,75.243,183.588,112.856,268.184,112.856c42.881,0,79.686-9.674,102.947-29.016c21.11-17.558,33.249-48.252,35.106-88.761
			C515.277,315.215,479.993,193.77,394.211,107.994z M490.306,390.768c-1.584,34.314-11.048,59.636-27.394,73.223
			c-61.881,51.479-238.954,20.727-342.194-82.509C13.008,273.777-1.02,98.762,47.631,50.1c17.354-17.354,50.77-26.728,91.49-26.728
			c73.443,0,170.599,30.521,239.898,99.815C456.575,200.748,493.706,316.506,490.306,390.768z"/>
	</g>
</g>
<g>
	<g>
		<path d="M381.82,224.865l27.195-32.631l-16.504-13.755l-21.779,26.133c-5.807-9.326-12.134-17.834-18.754-25.587l24.806-29.766
			l-16.504-13.755l-23.145,27.771c-12.391-11.941-25.204-21.598-37.16-29.286l23.09-27.705l-16.504-13.755l-25.39,30.466
			c-19.024-10.067-33.021-14.408-34.613-14.885c-5.708-1.715-11.678,1.522-13.377,7.208c-1.7,5.682,1.521,11.672,7.208,13.377
			c0.328,0.098,11.129,3.468,26.584,11.338l-27.885,33.463l16.504,13.755l30.358-36.431c11.869,7.477,24.808,17.082,37.231,29.202
			l-30.374,36.449l16.504,13.755l28.538-34.246c6.531,7.906,12.682,16.639,18.203,26.247l-31.014,37.219l16.504,13.755
			l24.931-29.919c2.368,5.701,4.509,11.653,6.376,17.874c1.396,4.659,5.666,7.664,10.293,7.664c1.018,0,2.056-0.152,3.085-0.456
			c5.687-1.705,8.908-7.696,7.208-13.377C390.208,244.235,386.279,234.214,381.82,224.865z"/>
	</g>
</g>
<g>
</g>
<g>
</g>
<g>
</g>
<g>
</g>
<g>
</g>
<g>
</g>
<g>
</g>
<g>
</g>
<g>
</g>
<g>
</g>
<g>
</g>
<g>
</g>
<g>
</g>
<g>
</g>
<g>
</g>
</svg>
