<?xml version="1.0" encoding="iso-8859-1"?>
<!-- Generator: Adobe Illustrator 19.0.0, SVG Export Plug-In . SVG Version: 6.00 Build 0)  -->
<svg version="1.1" id="Layer_1" xmlns="http://www.w3.org/2000/svg" xmlns:xlink="http://www.w3.org/1999/xlink" x="0px" y="0px"
	 viewBox="0 0 512 512" style="enable-background:new 0 0 512 512;" xml:space="preserve">
<g>
	<g>
		<path d="M404.673,231.475c-139.144-31.625-143.208-69.394-146.788-102.717c-1.63-15.126-3.314-30.77-16.436-43.893
			C201.923,45.331,45.956,69.998,28.302,72.943c-4.109,0.682-7.268,4.018-7.728,8.163c-0.096,0.837-9.401,84.256-18.57,139.284
			c-7.395,44.367,6.804,84.888,24.154,105.37c9.598,11.326,20.021,17.315,31.119,17.315c15.684,0,43.75,0.06,74.038,0.375v23.227
			c-60.575-6.977-108.998-14.039-109.932-14.178c-2.976-0.478-5.681,0.551-7.77,2.68c-2.092,2.125-2.91,5.124-2.419,8.068
			l9.384,55.916c0.655,3.941,3.786,7.026,7.731,7.667c8.823,1.429,141.243,22.529,267.577,22.525
			c77.248,0,151.726-7.891,194.766-32.995c2.862-1.67,4.115-4.737,4.115-8.05v-46.596c0-3.495-1.477-6.671-4.589-8.264
			c-3.122-1.606-7.157-1.292-9.987,0.751c-0.284,0.206-22.701,15.986-87.936,22.93v-24.195
			c51.256-2.73,114.069-23.481,119.338-54.733C516.215,270.782,481.588,248.958,404.673,231.475z M476.128,377.007v25.806
			C373.616,456.936,84.757,416.555,37.4,409.447l-5.854-36.695c44.154,6.229,193.635,26.238,295.86,26.238
			C410.657,398.99,455.16,385.853,476.128,377.007z M149.953,368.718v-25.061c74.554,0.899,163.518,3.146,213.315,8.678
			c3.313,0.367,8.018,0.61,10.348,0.756v25.684c-13.979,0.987-29.353,1.577-46.596,1.577
			C273.791,380.352,208.199,374.839,149.953,368.718z M384.95,292.31c-6.922,13.847-9.192,31.746-9.937,42.183
			c-2.919-0.15-5.814-0.363-8.655-0.678c-52.23-5.804-146.228-8.059-221.887-8.902c-0.891-0.283-1.82-0.477-2.804-0.477
			c-0.916,0-1.782,0.173-2.617,0.419c-32.458-0.338-61.185-0.419-81.257-0.419c-5.37,0-11.559-3.809-17.416-10.725
			c-14.096-16.641-26.369-51.984-19.989-90.253c7.684-46.105,15.444-111.79,17.905-133.237
			c49.886-7.631,163.493-18.661,189.976,7.822c6.219,6.218,8.49,13.641,9.836,22.5c-11.309,2.322-34.454,5.458-45.675-0.148
			c-4.623-2.307-10.205-0.437-12.505,4.168c-2.302,4.605-0.437,10.202,4.168,12.505c7.745,3.872,17.634,5.137,27.263,5.137
			c11.33,0,22.288-1.755,28.953-3.081c0.852,6.657,2.051,13.538,4.329,20.536c-9.847,3.767-33.26,10.55-51.207-1.406
			c-4.286-2.862-10.07-1.693-12.923,2.584c-2.853,4.282-1.697,10.07,2.585,12.923c11.117,7.413,23.276,9.861,34.488,9.861
			c14.848,0,28.015-4.286,34.954-7.041c16.12,25.645,53.929,51.685,148.005,73.068c4.95,1.124,9.647,2.26,14.143,3.401
			C405.303,263.261,391.347,279.521,384.95,292.31z M493.728,295.104c-2.82,16.75-52.34,36.749-100.011,39.332
			c0.724-9.034,2.67-23.319,7.906-33.789c7.096-14.198,26.793-35.164,33.359-41.956
			C479.864,272.378,495.217,286.281,493.728,295.104z"/>
	</g>
</g>
<g>
</g>
<g>
</g>
<g>
</g>
<g>
</g>
<g>
</g>
<g>
</g>
<g>
</g>
<g>
</g>
<g>
</g>
<g>
</g>
<g>
</g>
<g>
</g>
<g>
</g>
<g>
</g>
<g>
</g>
</svg>
