<?xml version="1.0" encoding="iso-8859-1"?>
<!-- Generator: Adobe Illustrator 19.0.0, SVG Export Plug-In . SVG Version: 6.00 Build 0)  -->
<svg version="1.1" id="Layer_1" xmlns="http://www.w3.org/2000/svg" xmlns:xlink="http://www.w3.org/1999/xlink" x="0px" y="0px"
	 viewBox="0 0 512 512" style="enable-background:new 0 0 512 512;" xml:space="preserve">
<polygon style="fill:#95DEED;" points="10.199,169.582 10.199,342.418 169.582,501.801 342.418,501.801 501.801,342.418 
	501.801,169.582 342.418,10.199 169.582,10.199 "/>
<g>
	<path style="fill:#4C1D1D;" d="M509.013,162.369L349.631,2.987C347.717,1.075,345.124,0,342.418,0H169.582
		c-2.705,0-5.298,1.075-7.212,2.987L2.987,162.369C1.075,164.283,0,166.876,0,169.582v172.836c0,2.705,1.075,5.298,2.987,7.212
		L162.37,509.013c1.913,1.912,4.507,2.987,7.212,2.987h172.836c2.705,0,5.298-1.075,7.212-2.987L509.013,349.63
		c1.912-1.913,2.987-4.507,2.987-7.212V169.582C512,166.876,510.925,164.283,509.013,162.369z M346.665,483.13l-38.753-110.226
		l64.992-64.992l110.226,38.753L346.665,483.13z M28.87,346.665l110.226-38.753l64.992,64.992L165.335,483.13L28.87,346.665z
		 M20.398,183.978l111.171,39.085v65.873L20.398,328.022V183.978z M165.335,28.87l38.753,110.226l-64.992,64.992L28.87,165.335
		L165.335,28.87z M483.13,165.335l-110.226,38.753l-64.992-64.992L346.665,28.87L483.13,165.335z M291.936,360.032h-71.873
		l-68.095-68.096v-71.873l68.096-68.095h71.873l68.095,68.096v71.873L291.936,360.032z M288.936,131.57h-65.873L183.978,20.398
		h144.043L288.936,131.57z M223.064,380.43h65.873l39.085,111.171H183.978L223.064,380.43z M380.43,288.936v-65.873l111.171-39.085
		v144.043L380.43,288.936z"/>
	<path style="fill:#4C1D1D;" d="M329.872,274.796l-2.55,2.55c-3.983,3.983-3.983,10.441,0,14.425
		c1.992,1.99,4.601,2.986,7.212,2.986s5.22-0.996,7.212-2.987l2.55-2.55c3.983-3.983,3.983-10.441,0-14.425
		C340.312,270.813,333.856,270.813,329.872,274.796z"/>
	<path style="fill:#4C1D1D;" d="M302.844,301.824l-30.598,30.598c-3.983,3.983-3.983,10.441,0,14.425
		c1.992,1.99,4.601,2.986,7.212,2.986c2.611,0,5.22-0.996,7.212-2.987l30.598-30.598c3.983-3.983,3.983-10.441,0-14.425
		C313.284,297.841,306.828,297.841,302.844,301.824z"/>
</g>
<g>
</g>
<g>
</g>
<g>
</g>
<g>
</g>
<g>
</g>
<g>
</g>
<g>
</g>
<g>
</g>
<g>
</g>
<g>
</g>
<g>
</g>
<g>
</g>
<g>
</g>
<g>
</g>
<g>
</g>
</svg>
