<?xml version="1.0" encoding="iso-8859-1"?>
<!-- Generator: Adobe Illustrator 19.0.0, SVG Export Plug-In . SVG Version: 6.00 Build 0)  -->
<svg version="1.1" id="Layer_1" xmlns="http://www.w3.org/2000/svg" xmlns:xlink="http://www.w3.org/1999/xlink" x="0px" y="0px"
	 viewBox="0 0 512 512" style="enable-background:new 0 0 512 512;" xml:space="preserve">
<polygon style="fill:#947C7C;" points="256,28.986 10.199,212.029 256,354.28 501.801,212.029 "/>
<rect x="81.033" y="28.02" style="fill:#FFD890;" width="352.637" height="373.291"/>
<polygon style="fill:#E6E6E6;" points="501.801,483.979 10.199,483.979 10.199,212.029 256,354.28 501.801,212.029 "/>
<g>
	<path style="fill:#4C1D1D;" d="M361.734,104.048h3.959c5.632,0,10.199-4.567,10.199-10.199s-4.567-10.199-10.199-10.199h-3.959
		c-5.632,0-10.199,4.567-10.199,10.199S356.101,104.048,361.734,104.048z"/>
	<path style="fill:#4C1D1D;" d="M149.023,104.048h166.043c5.632,0,10.199-4.567,10.199-10.199s-4.567-10.199-10.199-10.199H149.023
		c-5.633,0-10.199,4.567-10.199,10.199S143.39,104.048,149.023,104.048z"/>
	<path style="fill:#4C1D1D;" d="M149.023,164.456h216.671c5.632,0,10.199-4.567,10.199-10.199s-4.567-10.199-10.199-10.199H149.023
		c-5.633,0-10.199,4.567-10.199,10.199S143.39,164.456,149.023,164.456z"/>
	<path style="fill:#4C1D1D;" d="M149.023,224.865h216.671c5.632,0,10.199-4.567,10.199-10.199s-4.567-10.199-10.199-10.199H149.023
		c-5.633,0-10.199,4.567-10.199,10.199S143.39,224.865,149.023,224.865z"/>
	<path style="fill:#4C1D1D;" d="M511.981,212.03c0-3.211-1.494-6.25-4.088-8.181l-64.014-47.67V28.021
		c0-5.632-4.567-10.199-10.199-10.199H81.037c-5.633,0-10.199,4.567-10.199,10.199v126.137l-66.73,49.692
		c-2.592,1.93-4.086,4.968-4.088,8.177C0.016,212.027,0,212.03,0,212.03v271.95c0,5.632,4.566,10.199,10.199,10.199h491.602
		c5.632,0,10.199-4.567,10.199-10.199V212.03H511.981z M20.398,229.716l144.797,83.797L20.398,458.31V229.716z M183.468,324.088
		l67.423,39.019c1.555,0.9,3.288,1.351,5.024,1.366c0.029,0,0.056,0.005,0.084,0.005l0,0c0.028,0,0.055-0.005,0.082-0.005
		c1.737-0.013,3.471-0.465,5.026-1.366l67.423-39.019L478.221,473.78H33.778L183.468,324.088z M346.805,313.513l144.797-83.797
		V458.31L346.805,313.513z M483.287,210.96l-39.409,22.806v-52.155L483.287,210.96z M423.48,38.22v207.352L256,342.496
		L91.236,247.144V38.22H423.48z M70.838,235.338L28.713,210.96l42.125-31.37C70.838,179.59,70.838,235.338,70.838,235.338z"/>
</g>
<g>
</g>
<g>
</g>
<g>
</g>
<g>
</g>
<g>
</g>
<g>
</g>
<g>
</g>
<g>
</g>
<g>
</g>
<g>
</g>
<g>
</g>
<g>
</g>
<g>
</g>
<g>
</g>
<g>
</g>
</svg>
