<?xml version="1.0" encoding="iso-8859-1"?>
<!-- Generator: Adobe Illustrator 19.0.0, SVG Export Plug-In . SVG Version: 6.00 Build 0)  -->
<svg version="1.1" id="Layer_1" xmlns="http://www.w3.org/2000/svg" xmlns:xlink="http://www.w3.org/1999/xlink" x="0px" y="0px"
	 viewBox="0 0 512 512" style="enable-background:new 0 0 512 512;" xml:space="preserve">
<path style="fill:#95DEED;" d="M501.801,108.116c0-24.252-19.66-43.911-43.911-43.911H54.11c-24.251,0-43.911,19.659-43.911,43.911
	v214.003h491.602V108.116z"/>
<g>
	<path style="fill:#E6E6E6;" d="M10.199,322.118v14.132c0,24.252,19.66,43.911,43.911,43.911h403.779
		c24.252,0,43.911-19.66,43.911-43.911v-14.132H10.199z"/>
	<path style="fill:#E6E6E6;" d="M351.325,447.795v-8.234c0-14.129-11.454-25.583-25.583-25.583H186.258
		c-14.129,0-25.583,11.454-25.583,25.583v8.234H351.325z"/>
</g>
<g>
	<path style="fill:#4C1D1D;" d="M512,108.116c0-29.836-24.274-54.11-54.11-54.11H54.11C24.274,54.006,0,78.28,0,108.116v228.136
		c0,29.837,24.274,54.111,54.11,54.111h191.691v13.418h-59.543c-19.73,0-35.782,16.052-35.782,35.782v8.233
		c0,5.632,4.566,10.199,10.199,10.199h190.651c5.633,0,10.199-4.567,10.199-10.199v-8.233c0-19.73-16.052-35.782-35.782-35.782
		h-59.544v-13.418H457.89c29.836,0,54.11-24.274,54.11-54.111L512,108.116L512,108.116z M341.001,437.596H170.999
		c0.968-7.558,7.442-13.417,15.259-13.417h139.484C333.559,424.179,340.033,430.038,341.001,437.596z M20.398,108.116
		c0-18.589,15.123-33.711,33.711-33.711h403.78c18.589,0,33.711,15.122,33.711,33.711v203.804H20.398V108.116z M491.602,336.251
		c0,18.589-15.123,33.712-33.711,33.712H54.11c-18.588-0.001-33.711-15.124-33.711-33.712v-3.933h471.203V336.251z"/>
	<path style="fill:#4C1D1D;" d="M261.784,187.101v-33.065c11.402,0.815,15.636,6.027,19.546,6.027c4.886,0,7.166-6.189,7.166-9.284
		c0-7.981-15.636-11.402-26.712-11.727v-4.399c0-1.954-2.444-3.746-4.886-3.746c-2.769,0-4.723,1.792-4.723,3.746v4.724
		c-15.474,1.629-30.947,9.772-30.947,30.295c0,20.848,16.288,26.713,30.947,31.926v38.276
		c-16.613-1.302-21.012-12.704-26.386-12.704c-4.073,0-7.493,5.375-7.493,9.284c0,7.981,13.682,18.894,33.88,19.22v5.049
		c0,1.955,1.954,3.747,4.723,3.747c2.444,0,4.886-1.792,4.886-3.747v-5.538c17.591-2.444,29.644-13.519,29.644-33.552
		C291.428,199.481,275.954,192.314,261.784,187.101z M253.151,184.007c-8.633-3.257-15.636-6.678-15.636-15.962
		c0-8.47,6.515-12.542,15.636-13.681V184.007z M260.807,239.549v-34.367c7.981,3.421,14.334,7.981,14.334,18.243
		C275.141,232.708,269.603,237.92,260.807,239.549z"/>
	<path style="fill:#4C1D1D;" d="M140.331,187.101v-33.065c11.402,0.815,15.636,6.027,19.546,6.027c4.886,0,7.166-6.189,7.166-9.284
		c0-7.981-15.636-11.402-26.712-11.727v-4.399c0-1.954-2.444-3.746-4.886-3.746c-2.769,0-4.723,1.792-4.723,3.746v4.724
		c-15.474,1.629-30.947,9.772-30.947,30.295c0,20.848,16.288,26.713,30.947,31.926v38.276
		c-16.613-1.302-21.012-12.704-26.386-12.704c-4.073,0-7.493,5.375-7.493,9.284c0,7.981,13.682,18.894,33.88,19.22v5.049
		c0,1.955,1.954,3.747,4.723,3.747c2.444,0,4.886-1.792,4.886-3.747v-5.538c17.591-2.444,29.644-13.519,29.644-33.552
		C169.975,199.481,154.501,192.314,140.331,187.101z M131.698,184.007c-8.633-3.257-15.636-6.678-15.636-15.962
		c0-8.47,6.515-12.542,15.636-13.681V184.007z M139.354,239.549v-34.367c7.981,3.421,14.334,7.981,14.334,18.243
		C153.688,232.708,148.15,237.92,139.354,239.549z"/>
	<path style="fill:#4C1D1D;" d="M383.072,187.101v-33.065c11.402,0.815,15.636,6.027,19.546,6.027c4.886,0,7.166-6.189,7.166-9.284
		c0-7.981-15.636-11.402-26.712-11.727v-4.399c0-1.954-2.444-3.746-4.886-3.746c-2.769,0-4.723,1.792-4.723,3.746v4.724
		c-15.474,1.629-30.947,9.772-30.947,30.295c0,20.848,16.288,26.713,30.947,31.926v38.276
		c-16.613-1.302-21.012-12.704-26.386-12.704c-4.073,0-7.493,5.375-7.493,9.284c0,7.981,13.682,18.894,33.88,19.22v5.049
		c0,1.955,1.954,3.747,4.723,3.747c2.444,0,4.886-1.792,4.886-3.747v-5.538c17.591-2.444,29.644-13.519,29.644-33.552
		C412.716,199.481,397.242,192.314,383.072,187.101z M374.439,184.007c-8.633-3.257-15.636-6.678-15.636-15.962
		c0-8.47,6.515-12.542,15.636-13.681V184.007z M382.095,239.549v-34.367c7.981,3.421,14.334,7.981,14.334,18.243
		C396.429,232.708,390.891,237.92,382.095,239.549z"/>
	<path style="fill:#4C1D1D;" d="M154.008,94.853c0-5.632-4.566-10.199-10.199-10.199H54.056c-5.633,0-10.199,4.567-10.199,10.199
		s4.566,10.199,10.199,10.199h89.753C149.442,105.052,154.008,100.485,154.008,94.853z"/>
	<path style="fill:#4C1D1D;" d="M179.506,84.653h-4.08c-5.633,0-10.199,4.567-10.199,10.199s4.566,10.199,10.199,10.199h4.08
		c5.633,0,10.199-4.567,10.199-10.199S185.139,84.653,179.506,84.653z"/>
</g>
<g>
</g>
<g>
</g>
<g>
</g>
<g>
</g>
<g>
</g>
<g>
</g>
<g>
</g>
<g>
</g>
<g>
</g>
<g>
</g>
<g>
</g>
<g>
</g>
<g>
</g>
<g>
</g>
<g>
</g>
</svg>
