<?xml version="1.0" encoding="iso-8859-1"?>
<!-- Generator: Adobe Illustrator 19.0.0, SVG Export Plug-In . SVG Version: 6.00 Build 0)  -->
<svg version="1.1" id="Layer_1" xmlns="http://www.w3.org/2000/svg" xmlns:xlink="http://www.w3.org/1999/xlink" x="0px" y="0px"
	 viewBox="0 0 480.021 480.021" style="enable-background:new 0 0 480.021 480.021;" xml:space="preserve">
<g transform="translate(0 -1020.36)">
	<g shape-rendering="auto" image-rendering="auto" color-rendering="auto" color-interpolation="sRGB">
		<path style="fill:#464C63;" d="M350.445,1102.438c-12.64,0.225-25.31,3.145-37.219,8.873c-27.293,13.131-46.867,39.018-54,69.563
			c-2.898-2.477-5.835-4.896-9.032-7.031c-15.747-10.518-33.69-15.631-51.562-15.377c-17.874,0.256-35.672,5.889-51.157,16.844
			c-8.994,6.361-16.589,14.264-22.968,23.094H80.006c-7.125,0.004-10.692,8.615-5.656,13.656l31.344,31.377
			c-1.072,6.219-1.627,12.549-1.626,18.969c-0.187-0.006-0.373-0.006-0.56,0c-4.128,0.24-7.392,3.586-7.531,7.719
			c-0.64,18.234,0.256,34.779,2.342,49.846l-12.125-3.5l-14.686-22.406c-2.22-3.389-6.623-4.582-10.251-2.781l-13.781,6.875
			l-9.688-22.846c-1.29-3.043-4.32-4.98-7.624-4.873c-2.772,0.16-5.303,1.6-6.688,4c-41.374,71.922-22.141,134.898,12.094,154.811
			c19.178,11.234,44.181,12.482,69.062,1.875c11.027-4.701,22.037-11.836,32.686-21.279c18.371,18.994,40.808,28.518,62.533,28.594
			c26.261,0.16,53.731-13.65,73.624-41.563c7.81-10.957,14.406-24.16,19.501-39.5c17.706,16.795,38.787,25.164,59.187,25.094
			c26.19-0.16,53.606-13.615,73.499-41.406c19.893-27.793,32.395-69.598,30.376-126.906c-0.152-4.32-3.709-7.738-8.032-7.719
			c0.008-6.424-0.688-12.736-1.75-18.969l31.406-31.438c5.036-5.039,1.469-13.652-5.656-13.656h-44.282
			c-5.104-7.098-11.074-13.52-17.906-19.094c-13.835-11.291-30.062-18.111-46.781-20.188c-4.181-0.527-8.381-0.736-12.594-0.656
			H350.445z M437.038,1158.407h15.686l-11.093,11.094C440.304,1165.702,438.771,1162.014,437.038,1158.407z M198.882,1174.344
			c14.646-0.207,29.33,4.057,42.437,12.813c18.203,12.158,30.811,31.762,35.875,53.938c2.927,10.691,2.435,21.35,1.776,31.969
			l-16.626,12.438l-43.938-14.656c-0.755-0.256-1.545-0.4-2.344-0.432c-0.716-0.01-1.431,0-2.125,0.256l-29.094,7.279
			l-29.342-14.686c-0.235-0.16-0.475-0.225-0.72-0.32c-4.678-1.857-7.168,0.16-9.512,3.023l-11.312,16.969l-13.376-10.063
			c-0.912-8.391-0.72-16.732,0.496-24.813c1.216-8.07,3.456-15.891,6.594-23.217c3.144-7.334,7.192-14.164,12.062-20.314
			c4.87-6.148,10.57-11.604,16.968-16.125c6.453-4.57,13.312-8.033,20.406-10.375c7.096-2.34,14.427-3.551,21.75-3.656
			L198.882,1174.344z M377.226,1223.563l35.813,14.313c2.119,0.832,4.494,0.736,6.531-0.287l19.25-9.625
			c-0.576,46.695-10.493,81.867-26.157,103.75c-17.306,24.18-39.786,34.646-60.562,34.719c-18.278,0-37.766-8.836-54.062-27.563
			c4.474-19.871,6.698-42.623,5.749-68.719c-1.024-6.006-4.029-6.457-5.856-7.232c-0.592-0.16-1.201-0.24-1.813-0.256
			c-0.002-0.592-0.16-1.168-0.192-1.75c0-5.51-0.48-10.988-1.344-16.344l25.125-12.625l20.126,13.438
			c2.818,1.871,6.508,1.77,9.218-0.256L377.226,1223.563z M154.662,1280.751l25.656,12.844c1.714,0.848,3.677,1.057,5.533,0.592
			l29.718-7.469l45.718,15.281c2.479,0.832,5.21,0.4,7.312-1.152l17.626-13.219c-1.136,44.352-10.554,78.602-25.781,99.969
			c-17.33,24.314-39.834,34.945-60.531,34.875c-17.051,0-34.933-8.449-50.501-24.469c8.998-9.916,17.59-21.699,25.531-35.563
			c3.254-5.709-1.381-12.689-7.906-11.906l-28.688,3.469l-22.157-25.156c-2.304-12.078-2.626-26.809-3-41.469l17.938,13.469
			c3.678,2.764,8.922,1.863,11.469-1.969L154.662,1280.751z"/>
		<g>
			<path style="fill:#FFB900;" d="M350.781,1118.343c17.275-0.336,34.453,5.58,48.907,17.375
				c8.304,6.777,15.197,15.182,20.437,24.625c3.494,6.297,6.253,13.031,8.219,20.094c2.95,10.592,4.104,21.873,3.25,33.25l-15.968,8
				l-36.656-14.656c-3.325-1.088-5.435-0.432-7.762,1.072l-27.469,20.563l-19.28-12.811c-3.469-2.051-5.375-1.615-8.032-0.527
				l-25.968,13.031c-2.888-9.033-6.955-17.596-12.032-25.438l0,0c-1.698-2.617-3.49-5.139-5.406-7.594
				c1.344-11.545,4.718-22.484,9.749-32.281c3.358-6.535,7.453-12.559,12.189-17.938c7.102-8.07,15.643-14.66,25.25-19.281
				c9.853-4.738,20.259-7.207,30.624-7.406L350.781,1118.343z"/>
			<path style="fill:#FFB900;" d="M99.282,1214.405H115c-1.739,3.617-3.258,7.344-4.594,11.156L99.282,1214.405z"/>
			<path style="fill:#FFB900;" d="M30.626,1299.53l5.406,12.719c1.727,4.066,6.424,5.965,10.492,4.236
				c0.151-0.063,0.299-0.133,0.446-0.205l15.03-7.5l12.406,18.969c1.059,1.598,2.656,2.762,4.501,3.281l23.968,6.906l26.25,29.813
				c1.743,1.98,4.351,2.975,6.97,2.656l14.125-1.719c-16.637,23.602-34.565,40.385-51.843,47.75
				c-20.982,8.943-40.317,7.455-54.75-0.992c-21.034-12.234-38.309-57.871-12.968-115.906L30.626,1299.53z"/>
		</g>
	</g>
	<g>
		<path style="fill:#464C63;" d="M167.906,1214.409c0,4.42-3.578,8.002-7.992,8.002c0,0,0,0,0,0c-4.414,0-7.993-3.582-7.994-8
			v-0.002c0-4.42,3.578-8.002,7.992-8.002c0.001,0,0.001,0,0.002,0C164.328,1206.407,167.906,1209.989,167.906,1214.409
			L167.906,1214.409z"/>
		<path style="fill:#464C63;" d="M384.08,1158.403c0,4.42,3.578,8.002,7.992,8.002c0,0,0,0,0,0c4.414,0,7.993-3.582,7.994-8v-0.002
			c0-4.42-3.578-8.002-7.992-8.002c-0.001,0-0.001,0-0.002,0C387.658,1150.401,384.08,1153.983,384.08,1158.403L384.08,1158.403z"/>
		<g shape-rendering="auto" image-rendering="auto" color-rendering="auto" color-interpolation="sRGB">
			<path style="fill:#464C63;" d="M191.435,1136.489c-3.309,0.174-5.851,3-5.676,6.309c0.053,1.01,0.361,1.988,0.894,2.848
				l11.907,19.844c1.547,2.932,5.177,4.053,8.108,2.506s4.053-5.176,2.506-8.107c-0.101-0.191-0.212-0.375-0.332-0.555
				l-11.907-19.875C195.802,1137.516,193.68,1136.37,191.435,1136.489z"/>
			<path style="fill:#464C63;" d="M164.184,1148.489c-3.314-0.045-6.036,2.607-6.08,5.92c-0.032,2.443,1.421,4.664,3.673,5.611
				l27.845,11.938c3.016,1.373,6.574,0.041,7.948-2.975c1.373-3.016,0.042-6.574-2.974-7.947c-0.084-0.039-0.169-0.074-0.255-0.109
				l-27.813-11.906c-0.738-0.332-1.535-0.512-2.344-0.527V1148.489z"/>
			<path style="fill:#464C63;" d="M343.934,1082.302c-3.314,0.002-5.999,2.689-5.998,6.004c0.001,1.215,0.37,2.402,1.06,3.402l16,24
				c1.838,2.762,5.567,3.51,8.328,1.672s3.51-5.566,1.672-8.328l0,0l-16-24C347.889,1083.331,345.98,1082.296,343.934,1082.302z"/>
			<path style="fill:#464C63;" d="M319.934,1090.331c-3.314-0.006-6.005,2.676-6.011,5.99c-0.004,2.035,1.024,3.932,2.73,5.041
				l24,16c2.662,1.975,6.42,1.416,8.394-1.246c1.974-2.662,1.416-6.42-1.246-8.395c-0.159-0.117-0.323-0.227-0.492-0.328l-24-16
				c-0.993-0.684-2.169-1.051-3.374-1.057L319.934,1090.331z"/>
		</g>
	</g>
</g>
<g>
</g>
<g>
</g>
<g>
</g>
<g>
</g>
<g>
</g>
<g>
</g>
<g>
</g>
<g>
</g>
<g>
</g>
<g>
</g>
<g>
</g>
<g>
</g>
<g>
</g>
<g>
</g>
<g>
</g>
</svg>
