<?xml version="1.0" encoding="iso-8859-1"?>
<!-- Generator: Adobe Illustrator 19.0.0, SVG Export Plug-In . SVG Version: 6.00 Build 0)  -->
<svg version="1.1" id="Layer_1" xmlns="http://www.w3.org/2000/svg" xmlns:xlink="http://www.w3.org/1999/xlink" x="0px" y="0px"
	 viewBox="0 0 492.555 492.555" style="enable-background:new 0 0 492.555 492.555;" xml:space="preserve">
<g>
	<g>
		<path d="M486.01,123.397h-55.93v-71.68H207.05l-53.525-51.2H0v389.12h112.64v102.4H358.4v-102.4h47.92l84.65-252.085l1.585-5.435
			L486.01,123.397z M20.48,20.997h124.825l53.525,51.2H409.6v51.2H84.985L20.48,316.447V20.997z M337.92,471.557h-204.8v-133.12
			h10.24h184.32h10.24V471.557z M163.84,317.957v-30.72c0-39.525,32.155-71.68,71.68-71.68s71.68,32.155,71.68,71.68v30.72H163.84z
			 M391.59,369.158H358.4v-51.2h-30.72v-30.72c0-50.815-41.345-92.16-92.16-92.16s-92.16,41.345-92.16,92.16v30.72h-30.72v51.2
			H24.456l75.279-225.28H467.24L391.59,369.158z"/>
	</g>
</g>
<g>
	<g>
		<rect x="163.835" y="379.397" width="143.36" height="20.48"/>
	</g>
</g>
<g>
	<g>
		<rect x="184.315" y="420.358" width="102.4" height="20.48"/>
	</g>
</g>
<g>
</g>
<g>
</g>
<g>
</g>
<g>
</g>
<g>
</g>
<g>
</g>
<g>
</g>
<g>
</g>
<g>
</g>
<g>
</g>
<g>
</g>
<g>
</g>
<g>
</g>
<g>
</g>
<g>
</g>
</svg>
