<?xml version="1.0" encoding="iso-8859-1"?>
<!-- Generator: Adobe Illustrator 19.0.0, SVG Export Plug-In . SVG Version: 6.00 Build 0)  -->
<svg version="1.1" id="Layer_1" xmlns="http://www.w3.org/2000/svg" xmlns:xlink="http://www.w3.org/1999/xlink" x="0px" y="0px"
	 viewBox="0 0 491.52 491.52" style="enable-background:new 0 0 491.52 491.52;" xml:space="preserve">
<g>
	<g>
		<path d="M368.64,163.84V0H0v491.52h368.64V358.4h122.88V163.84H368.64z M450.846,184.32L348.16,260.79l-102.686-76.47H450.846z
			 M297.588,248.662l-72.308,74.294V194.819L297.588,248.662z M20.48,20.48h327.68v40.96H20.48V20.48z M348.16,471.04H20.48V409.6
			h327.68V471.04z M348.16,389.12H20.48V81.92h327.68v81.92H204.8V358.4h143.36V389.12z M239.295,337.92l74.863-76.919
			l34.002,25.319l34.003-25.319l74.863,76.919H239.295z M471.04,322.957l-72.308-74.294l72.308-53.844V322.957z"/>
	</g>
</g>
<g>
	<g>
		<rect x="133.12" y="430.08" width="102.4" height="20.48"/>
	</g>
</g>
<g>
	<g>
		<rect x="133.12" y="30.72" width="61.44" height="20.48"/>
	</g>
</g>
<g>
	<g>
		<rect x="215.04" y="30.72" width="20.48" height="20.48"/>
	</g>
</g>
<g>
</g>
<g>
</g>
<g>
</g>
<g>
</g>
<g>
</g>
<g>
</g>
<g>
</g>
<g>
</g>
<g>
</g>
<g>
</g>
<g>
</g>
<g>
</g>
<g>
</g>
<g>
</g>
<g>
</g>
</svg>
