<?xml version="1.0" encoding="iso-8859-1"?>
<!-- Generator: Adobe Illustrator 19.0.0, SVG Export Plug-In . SVG Version: 6.00 Build 0)  -->
<svg version="1.1" id="Layer_1" xmlns="http://www.w3.org/2000/svg" xmlns:xlink="http://www.w3.org/1999/xlink" x="0px" y="0px"
	 viewBox="0 0 512 512" style="enable-background:new 0 0 512 512;" xml:space="preserve">
<g>
	<g>
		<path d="M442.182,0H69.818C31.32,0,0,31.32,0,69.818v325.818c0,12.853,10.42,23.273,23.273,23.273h69.818v69.818
			c0,12.853,10.42,23.273,23.273,23.273h372.364C501.58,512,512,501.58,512,488.727V69.818C512,31.32,480.681,0,442.182,0z
			 M46.545,372.364V69.818c0-12.833,10.44-23.273,23.273-23.273h306.548c-2.583,7.284-4.003,15.113-4.003,23.273v302.545H46.545z
			 M465.455,465.455H139.636v-46.545h256c12.853,0,23.273-10.42,23.273-23.273V69.818c0-12.833,10.439-23.273,23.273-23.273
			c12.834,0,23.273,10.44,23.273,23.273V465.455z"/>
	</g>
</g>
<g>
</g>
<g>
</g>
<g>
</g>
<g>
</g>
<g>
</g>
<g>
</g>
<g>
</g>
<g>
</g>
<g>
</g>
<g>
</g>
<g>
</g>
<g>
</g>
<g>
</g>
<g>
</g>
<g>
</g>
</svg>
