<?xml version="1.0" encoding="iso-8859-1"?>
<!-- Generator: Adobe Illustrator 19.0.0, SVG Export Plug-In . SVG Version: 6.00 Build 0)  -->
<svg version="1.1" id="Layer_1" xmlns="http://www.w3.org/2000/svg" xmlns:xlink="http://www.w3.org/1999/xlink" x="0px" y="0px"
	 viewBox="0 0 512.001 512.001" style="enable-background:new 0 0 512.001 512.001;" xml:space="preserve">
<g>
	<g>
		<path d="M440.495,100.072c-33.999,14.739-52.033-4.078-66.621-12.341c10.207-4.018,21.755-12.069,29.725-22.365
			c2.302-2.967-1.364-7.815-5.552-4.066c-26.202,23.187-50.829,12.663-53.304,12.548c-4.455-1.793-9.142-3.556-14.095-5.279
			c-1.373-0.477-2.78-0.59-4.126-0.404l-3.303-4.8c-1.817-2.64-9.257-8.575-21.123-5.776c-33.57-2.672-26.065-2.074-60.194-4.791
			c5.645-24.062-10.033-47.711-34.103-52.096c-23.333-4.251-45.694,11.218-49.945,34.551s11.218,45.694,34.55,49.945
			c16.961,3.09,33.401-4.246,42.752-17.443c5.063,1.487,40.463,11.886,44.897,13.188l-36.237,50.72l-51.8-16.139l24.191,0.67
			c-4.107-4.785-9.689-8.2-16.203-9.387l-37.565-7.591c-7.846-1.585-15.999,0.049-22.628,4.535
			c-6.629,4.487-11.176,11.449-12.621,19.321L99.146,260.389c-2.015,9.866-2.861,19.935-2.521,29.998l2.518,74.419L66.892,481.152
			c-3.591,12.954,3.999,26.367,16.953,29.958c12.958,3.593,26.368-4.005,29.957-16.953l33.135-119.537
			c0.587-2.118,0.884-4.304,0.884-6.502v-76.878l2.086,0.412l23.244,95.054l0.599,101.094c0.081,13.615,11.296,24.352,24.484,24.195
			c13.443-0.08,24.275-11.041,24.195-24.484l-0.616-103.953c-0.011-1.899-0.245-3.792-0.696-5.637l-23.392-95.662l19.384-106.398
			l-36.502-23.726c70.597,21.996,66.708,21.134,70.744,21.134c6.078,0,11.936-2.898,15.603-8.029
			c60.465-84.631,56.085-78.347,57.074-80.223c1.364,0.625,16.09,5.309,32.607,13.62c0,0,1.671,1.86,3.728,4.309
			c10.913,14.216,12.175,33.065,7.906,48.575c-0.984,3.604,4.252,6.699,6.681,1.638c5.746-12.234,7.758-27.556,5.857-39.937
			c18.71,9.264,27.334,28.474,31.137,41.262c1.781,5.99,8.855,8.587,14.09,5.155l0.043-0.028c3.382-2.218,4.736-6.488,3.261-10.254
			c-3.253-8.307-9.622-22.618-17.597-31.858c10.588-1,23.008-5.216,32.769-11.839C447.637,103.545,445.622,97.819,440.495,100.072z"
			/>
	</g>
</g>
<g>
</g>
<g>
</g>
<g>
</g>
<g>
</g>
<g>
</g>
<g>
</g>
<g>
</g>
<g>
</g>
<g>
</g>
<g>
</g>
<g>
</g>
<g>
</g>
<g>
</g>
<g>
</g>
<g>
</g>
</svg>
