<?xml version="1.0" encoding="iso-8859-1"?>
<!-- Generator: Adobe Illustrator 19.0.0, SVG Export Plug-In . SVG Version: 6.00 Build 0)  -->
<svg version="1.1" id="Layer_1" xmlns="http://www.w3.org/2000/svg" xmlns:xlink="http://www.w3.org/1999/xlink" x="0px" y="0px"
	 viewBox="0 0 512.011 512.011" style="enable-background:new 0 0 512.011 512.011;" xml:space="preserve">
<g>
	<g>
		<path d="M509.995,238.171c-4.117-17.323-13.867-31.829-26.795-39.808c-9.451-5.824-20.181-7.68-30.357-5.333
			c-0.939,0.235-2.496,0.725-4.288,1.323c-22.827-54.741-58.923-86.507-93.952-104.875l6.421-17.323
			c4.096-11.029-1.515-23.317-12.587-27.413c-10.987-4.096-23.317,1.515-27.413,12.565l-5.931,15.979
			c-14.677-4.352-27.584-6.635-37.76-7.851V42.671c0-11.776-9.536-21.333-21.333-21.333s-21.333,9.557-21.333,21.333v23.851
			c-10.027,1.728-22.784,4.587-37.333,9.621l-5.973-18.091c-3.691-11.2-15.808-17.259-26.944-13.589
			c-11.179,3.712-17.28,15.765-13.568,26.965l7.445,22.507c-10.965,6.208-22.016,13.632-32.811,22.72l-25.067-25.067
			c-8.341-8.341-21.824-8.341-30.165,0s-8.341,21.824,0,30.165l25.515,25.515c-19.051,24.021-34.944,55.296-44.885,95.168
			c-5.547-0.875-7.296-0.896-8.213-0.896C17.536,241.541,0,265.028,0,298.671s17.536,57.131,42.667,57.131
			c1.643,0,4.373-0.299,7.424-0.704c6.123,22.656,15.851,44.032,29.461,62.763c36.053,49.685,92.117,72.811,176.448,72.811
			c78.699,0,136.448-26.816,176.448-81.963c21.589-29.76,33.813-65.984,36.181-103.872c1.259,0.043,2.453,0.064,3.392,0.064
			c4.267,0,5.76-0.363,7.275-0.725C503.893,298.308,517.376,269.316,509.995,238.171z M320,426.671
			c-11.029,0-20.096-8.363-21.205-19.093c-6.805-8.683-44.715-23.573-85.461-23.573c-11.797,0-21.333-9.557-21.333-21.333
			s9.536-21.333,21.333-21.333c44.629,0,128,18.773,128,64C341.333,417.114,331.797,426.671,320,426.671z M341.333,341.338
			c-35.285,0-64-28.715-64-64c0-2.197-5.355-6.997-10.667-6.997s-10.667,4.8-10.667,6.997c0,35.285-28.715,64-64,64
			c-35.285,0-64-28.715-64-64c0-29.355,19.968-53.888,46.976-61.419l-11.051-3.669c-11.179-3.733-17.216-15.808-13.483-26.987
			c3.733-11.179,15.701-17.237,26.965-13.504l64,21.333c11.179,3.733,17.216,15.808,13.483,26.987
			c-2.496,7.531-8.832,12.48-16.064,13.952c0.32,0.363,0.597,0.747,0.917,1.109c8.043-4.608,17.237-7.467,26.923-7.467
			c9.685,0,18.88,2.859,26.923,7.467c0.32-0.363,0.597-0.747,0.917-1.109c-7.232-1.472-13.568-6.421-16.064-13.952
			c-3.733-11.179,2.304-23.253,13.483-26.987l64-21.333c11.264-3.733,23.232,2.325,26.965,13.504
			c3.733,11.179-2.304,23.253-13.483,26.987l-11.051,3.669c27.008,7.531,46.976,32.064,46.976,61.419
			C405.333,312.623,376.619,341.338,341.333,341.338z"/>
	</g>
</g>
<g>
	<g>
		<path d="M192,256.004c-11.776,0-21.333,9.579-21.333,21.333c0,11.755,9.557,21.333,21.333,21.333s21.333-9.579,21.333-21.333
			C213.333,265.583,203.776,256.004,192,256.004z"/>
	</g>
</g>
<g>
	<g>
		<path d="M341.333,256.004c-11.776,0-21.333,9.579-21.333,21.333c0,11.755,9.557,21.333,21.333,21.333s21.333-9.579,21.333-21.333
			C362.667,265.583,353.109,256.004,341.333,256.004z"/>
	</g>
</g>
<g>
</g>
<g>
</g>
<g>
</g>
<g>
</g>
<g>
</g>
<g>
</g>
<g>
</g>
<g>
</g>
<g>
</g>
<g>
</g>
<g>
</g>
<g>
</g>
<g>
</g>
<g>
</g>
<g>
</g>
</svg>
