<?xml version="1.0" encoding="iso-8859-1"?>
<!-- Generator: Adobe Illustrator 19.0.0, SVG Export Plug-In . SVG Version: 6.00 Build 0)  -->
<svg version="1.1" id="Layer_1" xmlns="http://www.w3.org/2000/svg" xmlns:xlink="http://www.w3.org/1999/xlink" x="0px" y="0px"
	 viewBox="0 0 512 512" style="enable-background:new 0 0 512 512;" xml:space="preserve">
<g>
	<g>
		<path d="M256.006,21.339c-103.573,0-189.824,63.659-218.88,157.931l21.504,11.52c20.523,3.989,156.886,26.965,252.715-44.395
			c9.088-6.763,20.331-9.536,31.573-7.851c11.243,1.707,21.056,7.701,27.712,16.832c11.307,15.616,62.357,29.867,93.291,34.603
			l14.656,2.987C453.937,91.227,364.486,21.339,256.006,21.339z"/>
	</g>
</g>
<g>
	<g>
		<path d="M510.528,243.045l-54.08-11.072c-14.699-2.197-94.549-15.936-120.363-51.541
			C217.493,269.477,53.418,233.424,46.57,231.867c-1.877-0.427-3.669-1.109-5.333-2.005l-27.605-14.763
			C5.12,226.981,0,241.445,0,255.995c0,24.107,13.141,45.909,33.707,57.515C62.272,416.784,154.155,490.661,256,490.661
			c101.867,0,193.728-73.877,222.293-177.152C498.859,301.904,512,280.101,512,255.995C512,251.643,511.403,247.312,510.528,243.045
			z M150.208,286.757c-1.344-5.419-0.725-8.448-0.725-8.448c1.109-12.139,9.984-22.315,22.315-22.315
			c9.152,0,16.512,5.504,19.947,13.397c3.456-7.893,11.328-13.397,20.48-13.397c12.309,0,21.205,10.197,22.315,22.315
			c0,0,0.597,3.029-0.725,8.448c-1.813,7.381-6.059,13.952-11.776,18.965l-30.293,26.091l-29.781-26.091
			C156.245,300.709,152,294.139,150.208,286.757z M356.459,377.701c-20.885,21.035-62.165,48.171-107.605,48.171
			c-22.976,0-47.04-6.933-70.08-25.131c-9.216-7.317-10.816-20.715-3.52-29.973c7.296-9.216,20.736-10.816,29.973-3.52
			c55.808,44.075,118.4-17.067,121.024-19.669c8.363-8.299,21.845-8.277,30.144,0.021
			C364.715,355.92,364.757,369.381,356.459,377.701z M361.813,286.757c-1.813,7.381-6.059,13.952-11.776,18.965l-30.293,26.091
			l-29.781-26.091c-5.717-5.013-9.963-11.584-11.755-18.965c-1.344-5.419-0.725-8.448-0.725-8.448
			c1.109-12.139,9.984-22.315,22.315-22.315c9.152,0,16.512,5.504,19.947,13.397c3.456-7.893,11.328-13.397,20.48-13.397
			c12.309,0,21.205,10.197,22.315,22.315C362.539,278.309,363.136,281.339,361.813,286.757z"/>
	</g>
</g>
<g>
</g>
<g>
</g>
<g>
</g>
<g>
</g>
<g>
</g>
<g>
</g>
<g>
</g>
<g>
</g>
<g>
</g>
<g>
</g>
<g>
</g>
<g>
</g>
<g>
</g>
<g>
</g>
<g>
</g>
</svg>
