<?xml version="1.0" encoding="iso-8859-1"?>
<!-- Generator: Adobe Illustrator 19.0.0, SVG Export Plug-In . SVG Version: 6.00 Build 0)  -->
<svg version="1.1" id="Layer_1" xmlns="http://www.w3.org/2000/svg" xmlns:xlink="http://www.w3.org/1999/xlink" x="0px" y="0px"
	 viewBox="0 0 511.991 511.991" style="enable-background:new 0 0 511.991 511.991;" xml:space="preserve">
<g>
	<g>
		<path d="M170.661,234.658c-11.776,0-21.333,9.579-21.333,21.333c0,11.755,9.557,21.333,21.333,21.333s21.333-9.579,21.333-21.333
			C191.994,244.236,182.437,234.658,170.661,234.658z"/>
	</g>
</g>
<g>
	<g>
		<path d="M404.752,85.333h-20.757V49.877C383.995,22.357,361.616,0,334.117,0H177.872c-27.499,0-49.877,22.357-49.877,49.877
			v35.456h-20.757c-32.683,0-59.477,24.491-63.701,56.021l76.245,76.245C131.472,202.155,149.819,192,170.661,192
			c23.637,0,44.117,13.035,55.189,32.149c19.093-6.656,41.195-6.656,60.288,0C297.232,205.035,317.691,192,341.328,192
			c20.864,0,39.232,10.155,50.923,25.643l76.245-75.947C464.421,109.995,437.541,85.333,404.752,85.333z M341.328,85.333H170.661
			V49.877c0-3.989,3.221-7.211,7.211-7.211h156.245c3.989,0,7.211,3.221,7.211,7.211V85.333z"/>
	</g>
</g>
<g>
	<g>
		<path d="M341.328,234.658c-11.776,0-21.333,9.579-21.333,21.333c0,11.755,9.557,21.333,21.333,21.333s21.333-9.579,21.333-21.333
			C362.661,244.236,353.104,234.658,341.328,234.658z"/>
	</g>
</g>
<g>
	<g>
		<path d="M404.325,265.847c-4.779,30.592-31.083,54.144-62.997,54.144c-31.445,0-57.536-22.848-62.869-52.779
			c-12.416-7.424-32.512-7.424-44.928,0c-5.333,29.931-31.424,52.779-62.869,52.779c-31.936,0-58.24-23.573-62.997-54.165
			l-65.003-65.003v246.592c0,35.605,28.971,64.576,64.576,64.576h297.515c35.605,0,64.576-28.971,64.576-64.576V201.101
			L404.325,265.847z M341.328,383.991h-42.667v21.333c0,11.776-9.536,21.333-21.333,21.333s-21.333-9.557-21.333-21.333v21.333
			c0,11.776-9.536,21.333-21.333,21.333s-21.333-9.557-21.333-21.333V383.99h-42.667c-11.797,0-21.333-9.557-21.333-21.333
			s9.536-21.333,21.333-21.333h170.667c11.797,0,21.333,9.557,21.333,21.333S353.125,383.991,341.328,383.991z"/>
	</g>
</g>
<g>
</g>
<g>
</g>
<g>
</g>
<g>
</g>
<g>
</g>
<g>
</g>
<g>
</g>
<g>
</g>
<g>
</g>
<g>
</g>
<g>
</g>
<g>
</g>
<g>
</g>
<g>
</g>
<g>
</g>
</svg>
