<?xml version="1.0" encoding="iso-8859-1"?>
<!-- Generator: Adobe Illustrator 19.0.0, SVG Export Plug-In . SVG Version: 6.00 Build 0)  -->
<svg version="1.1" id="Layer_1" xmlns="http://www.w3.org/2000/svg" xmlns:xlink="http://www.w3.org/1999/xlink" x="0px" y="0px"
	 viewBox="0 0 512 512" style="enable-background:new 0 0 512 512;" xml:space="preserve">
<g>
	<g>
		<path d="M256,0C126.613,0,21.334,105.28,21.334,234.667v256c0,11.776,9.536,21.333,21.333,21.333h426.667
			c11.797,0,21.333-9.557,21.333-21.333V320v-42.667v-42.667C490.667,105.28,385.388,0,256,0z M64,469.333v-30.485
			c9.899,11.349,21.312,21.589,34.283,30.485H64z M256,448c-85.525,0-158.805-65.365-158.805-118.891
			c0-16.427,7.275-25.173,13.397-29.611c16.128-11.733,37.077-4.928,63.531,3.712C197.099,310.677,225.685,320,256,320
			s58.901-9.323,81.877-16.789c26.453-8.64,47.403-15.467,63.531-3.712c6.123,4.437,13.397,13.184,13.397,29.611
			C414.805,382.635,341.526,448,256,448z M128,245.333C128,215.936,151.915,192,181.333,192H224
			c29.419,0,53.333,23.936,53.333,53.333c0,29.397-23.914,53.334-53.333,53.334h-42.667C151.915,298.667,128,274.731,128,245.333z
			 M448,469.333h-34.283c12.971-8.896,24.384-19.136,34.283-30.485V469.333z M448,256c-86.208,0-149.355-80.555-171.541-155.392
			c-2.816-9.429-11.307-15.68-21.504-15.253c-73.408,3.584-140.053,41.323-183.232,95.872c23.21-79.915,96.96-138.56,184.277-138.56
			c105.877,0,192,86.144,192,192V256z"/>
	</g>
</g>
<g>
	<g>
		<path d="M351.083,343.766c-24.47,7.978-58.006,18.901-95.083,18.901c-37.077,0-70.613-10.923-95.083-18.901
			c-5.973-1.941-13.205-4.288-19.157-5.931c9.6,27.499,55.744,67.499,114.24,67.499c59.115,0,105.557-40.811,114.56-67.563
			C364.544,339.392,357.164,341.782,351.083,343.766z"/>
	</g>
</g>
<g>
</g>
<g>
</g>
<g>
</g>
<g>
</g>
<g>
</g>
<g>
</g>
<g>
</g>
<g>
</g>
<g>
</g>
<g>
</g>
<g>
</g>
<g>
</g>
<g>
</g>
<g>
</g>
<g>
</g>
</svg>
