<?xml version="1.0" encoding="iso-8859-1"?>
<!-- Generator: Adobe Illustrator 19.0.0, SVG Export Plug-In . SVG Version: 6.00 Build 0)  -->
<svg version="1.1" id="Capa_1" xmlns="http://www.w3.org/2000/svg" xmlns:xlink="http://www.w3.org/1999/xlink" x="0px" y="0px"
	 viewBox="0 0 490 490" style="enable-background:new 0 0 490 490;" xml:space="preserve">
<path d="M467.031,30.625H22.969C10.336,30.625,0,40.961,0,53.594v13.868v9.101v382.813h490V76.563v-9.101V53.594
	C490,40.961,479.664,30.625,467.031,30.625z M77.679,47.054c3.612,0,6.54,2.928,6.54,6.54c0,3.612-2.928,6.539-6.54,6.539
	c-3.612,0-6.539-2.928-6.539-6.539C71.139,49.982,74.067,47.054,77.679,47.054z M38.441,60.133c-3.612,0-6.539-2.928-6.539-6.539
	c0-3.612,2.928-6.54,6.539-6.54c3.612,0,6.54,2.928,6.54,6.54C44.98,57.206,42.052,60.133,38.441,60.133z M51.52,53.594
	c0-3.612,2.928-6.54,6.539-6.54c3.612,0,6.54,2.928,6.54,6.54c0,3.612-2.928,6.539-6.54,6.539
	C54.448,60.133,51.52,57.206,51.52,53.594z M275.625,396.26H53.594v-7.656h222.031V396.26z M275.625,373.292H53.594v-7.656h222.031
	V373.292z M275.625,350.323H53.594v-7.656h222.031V350.323z M275.625,289.073H53.594v-7.656h222.031V289.073z M275.625,266.104
	H53.594v-7.656h222.031V266.104z M275.625,243.135H53.594v-7.656h222.031V243.135z M275.625,181.885H53.594v-7.656h222.031V181.885z
	 M275.625,158.917H53.594v-7.656h222.031V158.917z M275.625,135.948H53.594v-7.656h222.031V135.948z M436.406,411.573h-122.5
	v-84.219h122.5V411.573z M436.406,304.385h-122.5v-84.219h122.5V304.385z M436.406,197.198h-122.5v-84.219h122.5V197.198z
	 M424.922,65.078H141.641c-6.316,0-11.484-5.168-11.484-11.484c0-6.316,5.168-11.484,11.484-11.484h283.281
	c6.316,0,11.484,5.168,11.484,11.484C436.406,59.91,431.238,65.078,424.922,65.078z"/>
<g>
</g>
<g>
</g>
<g>
</g>
<g>
</g>
<g>
</g>
<g>
</g>
<g>
</g>
<g>
</g>
<g>
</g>
<g>
</g>
<g>
</g>
<g>
</g>
<g>
</g>
<g>
</g>
<g>
</g>
</svg>
