<?xml version="1.0" encoding="iso-8859-1"?>
<!-- Generator: Adobe Illustrator 19.0.0, SVG Export Plug-In . SVG Version: 6.00 Build 0)  -->
<svg version="1.1" id="Layer_1" xmlns="http://www.w3.org/2000/svg" xmlns:xlink="http://www.w3.org/1999/xlink" x="0px" y="0px"
	 viewBox="0 0 512 512" style="enable-background:new 0 0 512 512;" xml:space="preserve">
<rect x="10.199" y="455.516" style="fill:#B3B3B3;" width="489.919" height="43.551"/>
<rect x="10.199" y="12.934" style="fill:#00A99D;" width="491.602" height="39.472"/>
<polygon style="fill:#F7931E;" points="10.199,52.406 10.199,455.477 146.587,455.477 146.587,248.149 277.813,187.442 
	501.801,187.442 501.801,52.406 "/>
<rect x="153.926" y="12.934" style="fill:#B3B3B3;" width="29.361" height="94.526"/>
<circle style="fill:#00A99D;" cx="168.746" cy="127.194" r="33.24"/>
<g>
	<rect x="379.614" y="187.44" style="fill:#B3B3B3;" width="100.758" height="36.356"/>
	<rect x="404.541" y="223.801" style="fill:#B3B3B3;" width="50.898" height="39.472"/>
	<rect x="417.005" y="263.272" style="fill:#B3B3B3;" width="25.968" height="58.166"/>
	<rect x="71.109" y="368.181" style="fill:#B3B3B3;" width="424.848" height="31.163"/>
</g>
<circle style="fill:#00A99D;" cx="77.336" cy="383.765" r="30.123"/>
<path d="M512,12.934c0-5.633-4.567-10.199-10.199-10.199H10.199C4.567,2.735,0,7.301,0,12.934v486.132
	c0,5.633,4.567,10.199,10.199,10.199h489.923c5.632,0,10.199-4.566,10.199-10.199v-43.552c0-5.633-4.567-10.199-10.199-10.199
	H156.786v-35.77H495.95c5.632,0,10.199-4.566,10.199-10.199v-31.163c0-5.633-4.567-10.199-10.199-10.199H156.786V254.669
	l123.273-57.027h89.352v26.157c0,5.633,4.567,10.199,10.199,10.199h14.73v29.273c0,5.633,4.567,10.199,10.199,10.199h2.266v47.97
	c0,5.633,4.567,10.199,10.199,10.199h25.968c5.632,0,10.199-4.566,10.199-10.199v-47.97h2.266c5.632,0,10.199-4.566,10.199-10.199
	v-29.273h14.731c5.632,0,10.199-4.566,10.199-10.199v-26.157h11.233c5.632,0,10.199-4.566,10.199-10.199V12.934z M491.602,42.207
	H193.487V23.133h298.115V42.207z M168.746,104.155c12.704,0,23.04,10.336,23.04,23.041s-10.336,23.04-23.04,23.04
	c-12.705,0-23.041-10.336-23.041-23.04S156.041,104.155,168.746,104.155z M173.089,23.133v60.841
	c-1.429-0.143-2.877-0.217-4.343-0.217c-1.562,0-3.102,0.087-4.62,0.248V23.133H173.089z M20.398,23.133h123.329v19.075H20.398
	V23.133z M489.923,488.866H20.398v-23.153h469.524V488.866z M485.75,389.147H117.29c0.236-1.762,0.37-3.556,0.37-5.382
	c0-1.826-0.134-3.62-0.37-5.382H485.75V389.147z M97.261,383.765c0,10.986-8.939,19.924-19.924,19.924s-19.924-8.939-19.924-19.924
	c0-10.986,8.939-19.924,19.924-19.924S97.261,372.779,97.261,383.765z M432.774,311.241h-5.57v-37.771h5.57V311.241z
	 M414.739,253.071v-19.074h30.5v19.074H414.739z M389.809,213.599v-15.958h80.36v15.958H389.809z M277.814,177.243
	c-1.479,0-2.94,0.321-4.282,0.942l-116.746,54.007v-7.356c0-5.633-4.567-10.199-10.199-10.199s-10.199,4.566-10.199,10.199v133.148
	h-28.074c-7.403-8.879-18.539-14.542-30.977-14.542c-22.234,0-40.323,18.088-40.323,40.323c0,22.234,18.088,40.323,40.323,40.323
	c12.437,0,23.574-5.663,30.977-14.542h28.074v35.732H20.398V62.605h123.329v29.113c-11.131,7.874-18.421,20.836-18.421,35.478
	c0,23.952,19.487,43.438,43.439,43.438s43.438-19.487,43.438-43.438c0-14.763-7.409-27.822-18.697-35.676V62.605h298.115v77.243
	H344.292c-5.632,0-10.199,4.566-10.199,10.199s4.567,10.199,10.199,10.199h147.309v16.997L277.814,177.243L277.814,177.243z"/>
<path d="M308.976,139.849h-6.233c-5.632,0-10.199,4.566-10.199,10.199s4.567,10.199,10.199,10.199h6.233
	c5.632,0,10.199-4.566,10.199-10.199S314.609,139.849,308.976,139.849z"/>
<g>
</g>
<g>
</g>
<g>
</g>
<g>
</g>
<g>
</g>
<g>
</g>
<g>
</g>
<g>
</g>
<g>
</g>
<g>
</g>
<g>
</g>
<g>
</g>
<g>
</g>
<g>
</g>
<g>
</g>
</svg>
