<?xml version="1.0" encoding="iso-8859-1"?>
<!-- Generator: Adobe Illustrator 19.0.0, SVG Export Plug-In . SVG Version: 6.00 Build 0)  -->
<svg version="1.1" id="Layer_1" xmlns="http://www.w3.org/2000/svg" xmlns:xlink="http://www.w3.org/1999/xlink" x="0px" y="0px"
	 viewBox="0 0 330 330" style="enable-background:new 0 0 330 330;" xml:space="preserve">
<g id="XMLID_474_">
	<circle id="XMLID_475_" cx="195" cy="209.988" r="15"/>
	<circle id="XMLID_476_" cx="135" cy="209.988" r="15"/>
	<rect id="XMLID_477_" x="100" y="89.988" width="130" height="60"/>
	<path id="XMLID_478_" d="M265.266,0.016c-0.169-0.004-0.328-0.005-0.499-0.001H65.232c-0.167-0.003-0.325-0.002-0.494,0.001
		C29.023,0.155,0,29.275,0,65.013v249.975c0,8.284,6.716,15,15,15h300c8.284,0,15-6.716,15-15V65.013
		C330,29.283,300.986,0.169,265.266,0.016z M218.787,299.988l-30-30h-47.574l-30,30H68.787l30-30H85c-8.284,0-15-6.716-15-15v-180
		c0-8.284,6.716-15,15-15h160c8.284,0,15,6.716,15,15v180c0,8.284-6.716,15-15,15h-13.787l30,30H218.787z"/>
</g>
<g>
</g>
<g>
</g>
<g>
</g>
<g>
</g>
<g>
</g>
<g>
</g>
<g>
</g>
<g>
</g>
<g>
</g>
<g>
</g>
<g>
</g>
<g>
</g>
<g>
</g>
<g>
</g>
<g>
</g>
</svg>
