<?xml version="1.0" encoding="iso-8859-1"?>
<!-- Generator: Adobe Illustrator 19.0.0, SVG Export Plug-In . SVG Version: 6.00 Build 0)  -->
<svg version="1.1" id="Layer_1" xmlns="http://www.w3.org/2000/svg" xmlns:xlink="http://www.w3.org/1999/xlink" x="0px" y="0px"
	 viewBox="0 0 504.157 504.157" style="enable-background:new 0 0 504.157 504.157;" xml:space="preserve">
<g>
	<path style="fill:#7C9193;" d="M224.479,410.014c-1.119,1.095-2.883,1.095-4.009,0l0,0c-1.079-1.111-1.079-2.899,0-3.994
		l47.923-47.923c1.126-1.103,2.891-1.103,4.001,0l0,0c1.095,1.111,1.095,2.891,0,3.994L224.479,410.014z"/>
	<path style="fill:#7C9193;" d="M371.06,410.014c1.111,1.095,2.883,1.095,4.001,0l0,0c1.095-1.111,1.095-2.899,0-3.994
		l-47.915-47.923c-1.119-1.103-2.891-1.103-4.001,0l0,0c-1.095,1.111-1.095,2.891,0,3.994L371.06,410.014z"/>
</g>
<path style="fill:#990037;" d="M232.418,249.136c0,7.168-5.837,12.997-13.028,12.997H29.808c-7.2,0-13.005-5.829-13.005-12.997l0,0
	c0-7.184,5.805-13.005,13.005-13.005H219.39C226.582,236.131,232.418,241.952,232.418,249.136L232.418,249.136z"/>
<circle style="fill:#BC043D;" cx="304.295" cy="249.16" r="130.725"/>
<path style="fill:#990037;" d="M434.989,249.128c0,72.216-58.518,130.733-130.725,130.733c-72.2,0-130.725-58.518-130.725-130.733"
	/>
<path style="fill:#359CBC;" d="M308.021,118.6v131.214h126.937c0-0.228,0.032-0.449,0.032-0.685
	C434.989,178.197,378.48,120.616,308.021,118.6z"/>
<path style="fill:#43B9DD;" d="M434.958,249.814c0-0.228,0.032-0.449,0.032-0.685c0-70.932-56.509-128.512-126.968-130.528"/>
<circle style="fill:#990037;" cx="51.682" cy="249.16" r="34.911"/>
<path style="fill:#BC043D;" d="M16.796,249.128c0-19.283,15.628-34.911,34.911-34.911"/>
<path style="fill:#7C9193;" d="M297.773,450.084c-33.461,0-64.914-13.021-88.568-36.683c-3.214-3.214-3.214-8.405,0-11.618
	c3.206-3.214,8.381-3.214,11.618,0c20.551,20.551,47.884,31.878,76.958,31.878c29.058,0,56.391-11.327,76.958-31.878
	c3.206-3.214,8.397-3.214,11.611,0c3.206,3.206,3.206,8.397,0,11.618C362.679,437.056,331.227,450.084,297.773,450.084z"/>
<path style="fill:#94A9AA;" d="M374.731,401.783c-20.559,20.551-47.892,31.878-76.958,31.878c-29.066,0-56.399-11.327-76.958-31.878
	c-3.23-3.214-8.405-3.214-11.618,0c-0.496,0.488-0.803,1.111-1.134,1.701c0.331,0.583,0.63,1.197,1.134,1.701
	c23.654,23.662,55.107,36.683,88.568,36.683c33.453,0,64.906-13.021,88.56-36.683c0.496-0.496,0.796-1.119,1.118-1.701
	c-0.323-0.591-0.614-1.205-1.118-1.701C383.128,398.569,377.937,398.569,374.731,401.783z"/>
<g>
	<path style="fill:#7F0135;" d="M313.157,357.956c-31.909,0-60.999-0.567-83.409-1.489c21.15,14.714,46.797,23.394,74.516,23.394
		c27.341,0,52.681-8.413,73.673-22.749C358.922,357.641,336.835,357.956,313.157,357.956z"/>
	<path style="fill:#7F0135;" d="M328.911,116.355c0,4.151-3.371,7.522-7.53,7.522h-32.839c-4.167,0-7.538-3.371-7.538-7.522l0,0
		c0-4.167,3.371-7.53,7.538-7.53h32.839C325.547,108.817,328.911,112.18,328.911,116.355L328.911,116.355z"/>
</g>
<path style="fill:#BC043D;" d="M281.003,116.355L281.003,116.355c0-4.167,3.371-7.53,7.538-7.53h32.839
	c4.159,0,7.53,3.363,7.53,7.53l0,0"/>
<ellipse style="fill:#77B7C6;" cx="304.295" cy="75.316" rx="199.861" ry="21.213"/>
<path style="fill:#9BD3DD;" d="M104.418,75.285c0-11.713,89.466-21.213,199.853-21.213c110.364,0,199.861,9.5,199.861,21.213"/>
<circle style="fill:#BC043D;" cx="51.682" cy="249.16" r="13.863"/>
<g>
	<circle style="fill:#157B93;" cx="356.638" cy="183.072" r="16.762"/>
	<path style="fill:#157B93;" d="M382.285,249.814c-0.362-28.475-11.697-51.35-25.639-51.35c-13.95,0-25.285,22.867-25.632,51.35
		H382.285z"/>
	<path style="fill:#157B93;" d="M26.311,200.914c5.994,6.026,26.333,36.108,20.315,42.118c-6.018,6.018-36.092-14.32-42.118-20.322
		c-6.01-6.018-6.01-15.77,0-21.795C10.533,194.896,20.293,194.896,26.311,200.914z"/>
	<path style="fill:#157B93;" d="M77.117,295.287c-6.01-6.01-26.348-36.092-20.322-42.11c6.002-6.018,36.076,14.328,42.11,20.33
		c6.018,6.01,6.018,15.77,0,21.78C92.871,301.313,83.119,301.313,77.117,295.287z"/>
	<path style="fill:#157B93;" d="M98.897,222.693c-6.034,6.018-36.108,26.356-42.11,20.338c-6.026-6.01,14.312-36.092,20.322-42.118
		c6.01-6.018,15.754-6.018,21.788,0C104.915,206.94,104.915,216.691,98.897,222.693z"/>
	<path style="fill:#157B93;" d="M4.515,273.515c6.026-6.002,36.1-26.348,42.118-20.33c6.018,6.018-14.312,36.1-20.315,42.11
		c-6.026,6.026-15.777,6.026-21.803,0C-1.495,289.285-1.495,279.518,4.515,273.515z"/>
</g>
<g>
	<path style="fill:#CFE7E8;" d="M238.555,271.144c0.851-0.961,1.26-2.001,1.26-3.151c0-2.875-2.269-5.136-5.167-5.136h-7.901
		c-0.433,0-0.78,0.347-0.78,0.788v16.266c0,0.425,0.347,0.78,0.78,0.78h8.011c3.04,0,5.616-2.552,5.616-5.585
		C240.366,273.547,239.697,272.097,238.555,271.144z M230.843,273.618h3.159c0.638,0,1.166,0.536,1.166,1.189
		c0,0.67-0.496,1.189-1.166,1.189h-3.159V273.618z M233.891,269.081h-3.048v-1.623h3.048c0.449,0,0.843,0.362,0.843,0.811
		S234.34,269.081,233.891,269.081z"/>
	<path style="fill:#CFE7E8;" d="M256.632,262.85h-7.168c-0.433,0-0.772,0.347-0.772,0.788v16.266c0,0.425,0.339,0.78,0.772,0.78
		h3.316c0.441,0,0.788-0.354,0.788-0.78v-4.001h1.41c1.993,0,2.922,1.93,2.922,3.237v0.764c0,0.425,0.354,0.78,0.78,0.78h3.332
		c0.433,0,0.788-0.354,0.788-0.78v-0.929c0-1.646-0.567-3.663-2.079-4.907c1.284-1.331,2.079-3.214,2.079-5.033
		C262.784,265.631,260.019,262.85,256.632,262.85z M253.56,267.458h2.206c1.048,0,1.93,0.874,1.93,1.914
		c0,1.071-0.874,1.922-1.93,1.922h-2.206V267.458z"/>
	<path style="fill:#CFE7E8;" d="M281.767,276.004h-5.664v-2.308h5.183c0.433,0,0.764-0.354,0.764-0.788v-3.056
		c0-0.425-0.331-0.78-0.764-0.78h-5.183v-1.552h5.522c0.425,0,0.78-0.354,0.78-0.788v-3.111c0-0.441-0.354-0.788-0.78-0.788H272
		c-0.418,0-0.772,0.347-0.772,0.788v16.266c0,0.425,0.354,0.78,0.772,0.78h9.767c0.433,0,0.78-0.354,0.78-0.78v-3.119
		C282.547,276.359,282.201,276.004,281.767,276.004z"/>
	<path style="fill:#CFE7E8;" d="M298.191,262.897c-0.126-0.276-0.394-0.465-0.709-0.465c-0.299,0-0.583,0.181-0.701,0.465
		l-7.381,16.691c-0.118,0.228-0.087,0.52,0.055,0.74c0.158,0.221,0.394,0.354,0.654,0.354h3.489c0.323,0,0.599-0.181,0.725-0.48
		l1.008-2.402h4.34l0.969,2.402c0.126,0.276,0.41,0.48,0.74,0.48h3.474c0.016,0.008,0.016,0.008,0.016,0.008
		c0.433-0.008,0.78-0.362,0.78-0.788c0-0.165-0.039-0.315-0.142-0.449L298.191,262.897z M297.482,272.16l0.488,1.15h-0.977
		L297.482,272.16z"/>
	<path style="fill:#CFE7E8;" d="M321.719,270.877l5.002-6.782c0.165-0.236,0.197-0.551,0.063-0.819
		c-0.126-0.244-0.402-0.417-0.685-0.417h-3.742c-0.252,0-0.496,0.126-0.638,0.339l-3.505,4.97v-4.521
		c0-0.441-0.347-0.788-0.78-0.788h-3.324c-0.425,0-0.78,0.347-0.78,0.788v16.266c0,0.425,0.354,0.78,0.78,0.78h3.324
		c0.433,0,0.78-0.354,0.78-0.78v-4.348l0.473-0.622l3.734,5.419c0.142,0.205,0.378,0.331,0.63,0.331h4.198
		c0.276,0,0.551-0.165,0.685-0.417c0.134-0.26,0.118-0.567-0.063-0.819L321.719,270.877z"/>
	<path style="fill:#CFE7E8;" d="M339.631,262.85h-3.324c-0.441,0-0.788,0.347-0.788,0.788v16.266c0,0.425,0.347,0.78,0.788,0.78
		h3.324c0.433,0,0.788-0.354,0.788-0.78v-16.266C340.411,263.197,340.057,262.85,339.631,262.85z"/>
	<path style="fill:#CFE7E8;" d="M363.821,262.85h-3.104c-0.433,0-0.788,0.347-0.788,0.788v6.191l-5.727-6.703
		c-0.158-0.173-0.362-0.276-0.599-0.276h-2.899c-0.441,0-0.78,0.347-0.78,0.788v16.266c0,0.425,0.339,0.78,0.78,0.78h3.119
		c0.417,0,0.78-0.354,0.78-0.78v-9.437l8.633,10.35c0.158,0.173,0.37,0.276,0.575,0.276c0.11,0,0.189-0.016,0.276-0.047
		c0.315-0.11,0.512-0.402,0.512-0.725V263.63C364.617,263.197,364.278,262.85,363.821,262.85z"/>
	<path style="fill:#CFE7E8;" d="M391.517,270.428c-0.055-0.378-0.402-0.654-0.772-0.654h-8.759c-0.433,0-0.772,0.354-0.772,0.788
		v3.048c0,0.425,0.339,0.78,0.772,0.78h3.86c-0.701,1.087-1.914,2.009-3.655,2.009c-2.442,0-4.348-1.985-4.348-4.553
		c0-2.576,1.906-4.584,4.348-4.584c1.426,0,2.733,0.677,3.513,1.804c0.126,0.173,0.315,0.291,0.504,0.339
		c0.205,0.032,0.425-0.024,0.591-0.15l2.741-2.009c0.165-0.126,0.276-0.307,0.307-0.504c0.039-0.197-0.032-0.417-0.142-0.583
		c-1.78-2.402-4.38-3.679-7.522-3.679c-5.183,0-9.397,4.198-9.397,9.366c0,5.136,4.214,9.334,9.397,9.334
		c5.207,0,9.437-4.191,9.437-9.334C391.627,271.349,391.58,270.9,391.517,270.428z"/>
	<path style="fill:#CFE7E8;" d="M263.146,290.159h-6.239c-0.851,0-1.52,0.677-1.52,1.52v24.387l-20.567-25.356
		c-0.307-0.354-0.74-0.551-1.205-0.551h-6.12c-0.843,0-1.512,0.677-1.512,1.52v45.552c0,0.843,0.67,1.536,1.512,1.536h6.262
		c0.843,0,1.528-0.693,1.528-1.536v-30.153l26.711,31.909c0.299,0.37,0.725,0.551,1.158,0.551c0.189,0,0.362-0.016,0.52-0.087
		c0.607-0.221,1.016-0.803,1.016-1.441v-46.34C264.682,290.837,263.997,290.159,263.146,290.159z"/>
</g>
<g>
	<path style="fill:#B0D3D6;" d="M299.538,329.205h-18.786v-12.359h17.463c0.859,0,1.544-0.685,1.544-1.536v-6.254
		c0-0.835-0.685-1.505-1.544-1.505h-17.463v-7.956h18.385c0.843,0,1.536-0.685,1.536-1.536v-6.372c0-0.843-0.693-1.52-1.536-1.52
		h-26.561c-0.819,0-1.512,0.677-1.512,1.52v45.552c0,0.843,0.693,1.536,1.512,1.536h26.963c0.827,0,1.512-0.693,1.512-1.536v-6.506
		C301.05,329.883,300.365,329.205,299.538,329.205z"/>
	<path style="fill:#B0D3D6;" d="M353.66,290.159h-6.955c-0.622,0-1.182,0.37-1.434,0.953l-10.35,25.458l-10.35-25.458
		c-0.236-0.583-0.803-0.953-1.41-0.953h-6.987c-0.496,0-0.977,0.244-1.268,0.662c-0.276,0.425-0.331,0.953-0.142,1.434l8.814,21.937
		l-1,2.418l-10.382-25.49c-0.236-0.583-0.796-0.953-1.41-0.953h-6.987c-0.488,0-0.977,0.244-1.252,0.662
		c-0.284,0.425-0.347,0.953-0.158,1.441l18.739,46.332c0.228,0.583,0.796,0.953,1.418,0.953l0,0c0.614,0,1.189-0.37,1.441-0.953
		l4.758-11.737l4.758,11.737c0.221,0.583,0.788,0.953,1.41,0.953l0,0c0.614,0,1.182-0.37,1.434-0.953l18.731-46.332
		c0.189-0.488,0.142-1.016-0.15-1.441C354.645,290.403,354.172,290.159,353.66,290.159z"/>
	<path style="fill:#B0D3D6;" d="M377.22,309.615h-6.711c-2.812,0-5.096-2.292-5.096-5.104c0-2.804,2.284-5.104,5.096-5.104h13.722
		c0.843,0,1.536-0.685,1.536-1.528v-6.183c0-0.843-0.693-1.52-1.536-1.52h-14.501c-7.798,0-14.155,6.372-14.155,14.21
		c0,7.885,6.483,14.557,14.155,14.557h6.317c3.119,0,5.49,2.221,5.49,5.175c0,2.907-2.371,5.104-5.49,5.104h-16.479
		c-0.835,0-1.52,0.677-1.52,1.52v6.506c0,0.843,0.685,1.536,1.52,1.536h17.644c7.94,0,14.407-6.617,14.407-14.746
		C391.627,316.082,385.16,309.615,377.22,309.615z"/>
</g>
<g>
	<path style="fill:#CFE7E8;" d="M312.196,291.112c-0.236-0.583-0.796-0.953-1.41-0.953h-6.987c-0.488,0-0.977,0.244-1.252,0.662
		c-0.284,0.425-0.347,0.953-0.158,1.441l5.695,14.06l7.326-7.318L312.196,291.112z"/>
	<path style="fill:#CFE7E8;" d="M323.161,290.159h-6.987c-0.496,0-0.977,0.244-1.268,0.662c-0.276,0.425-0.331,0.953-0.142,1.434
		l2.127,5.27l7.105-7.113C323.751,290.254,323.46,290.159,323.161,290.159z"/>
	<path style="fill:#CFE7E8;" d="M298.214,307.544h-17.463v-7.956h18.385c0.843,0,1.536-0.685,1.536-1.536v-6.372
		c0-0.843-0.693-1.52-1.536-1.52h-26.561c-0.819,0-1.512,0.677-1.512,1.52v45.552c0,0.843,0.693,1.536,1.512,1.536h3.072l9.563-9.57
		h-4.45v-12.359h16.817l2.19-2.19v-5.6C299.758,308.213,299.073,307.544,298.214,307.544z"/>
</g>
<g>
</g>
<g>
</g>
<g>
</g>
<g>
</g>
<g>
</g>
<g>
</g>
<g>
</g>
<g>
</g>
<g>
</g>
<g>
</g>
<g>
</g>
<g>
</g>
<g>
</g>
<g>
</g>
<g>
</g>
</svg>
