<?xml version="1.0" encoding="iso-8859-1"?>
<!-- Generator: Adobe Illustrator 19.0.0, SVG Export Plug-In . SVG Version: 6.00 Build 0)  -->
<svg version="1.1" id="Layer_1" xmlns="http://www.w3.org/2000/svg" xmlns:xlink="http://www.w3.org/1999/xlink" x="0px" y="0px"
	 viewBox="0 0 512 512" style="enable-background:new 0 0 512 512;" xml:space="preserve">
<g>
	<g>
		<path d="M433.589,102.772c-8.612-2.264-17.517-3.414-26.465-3.414h-60.425c-1.677-4.617-6.096-7.931-11.286-7.931H176.588
			c-5.19,0-9.609,3.313-11.286,7.931h-21.106c-4.328,0-7.837,3.509-7.837,7.837c0,4.212,3.325,7.637,7.491,7.819
			c-7.007,36.941-11.519,75.886-13.442,116.001H75.643c2.66-49.619,11.099-89.208,18.384-115.306
			c3.584-0.44,7.214-0.678,10.849-0.678c4.328,0,7.837-3.509,7.837-7.837c0-4.328-3.509-7.837-7.837-7.837
			c-6.183,0-12.368,0.547-18.379,1.627c-23.892,4.267-45.777,16.916-61.623,35.616C8.835,155.533,0,179.552,0,204.236v4.921
			c0,20.029,15.775,36.443,35.557,37.479c-11.26,10.54-18.316,25.517-18.316,42.121v33.437c0,32.633,16.557,62.421,44.29,79.682
			c1.288,0.802,2.72,1.184,4.134,1.184c2.617,0,5.176-1.311,6.661-3.697c2.286-3.675,1.162-8.508-2.513-10.795
			c-23.105-14.379-36.898-39.192-36.898-66.374v-33.437c0-23.184,18.862-42.047,42.047-42.047h89.61v153.6h-53.541
			c-1.529,0-3.128-0.045-4.754-0.134c-4.31-0.233-8.016,3.075-8.254,7.397c-0.237,4.322,3.074,8.016,7.397,8.254
			c1.91,0.104,3.797,0.158,5.611,0.158h56.131c2.203,2.789,5.605,4.587,9.426,4.587h158.824c3.821,0,7.223-1.798,9.426-4.587h56.131
			c36.028,0,68.291-20.087,84.198-52.422c0.001-0.003,0.002-0.005,0.003-0.008c6.362-12.918,9.589-26.833,9.589-41.359V288.76
			c0-16.603-7.056-31.581-18.316-42.121c19.781-1.036,35.557-17.45,35.557-37.479v-4.921
			C512,156.594,479.753,114.87,433.589,102.772z M59.948,231.016H37.543c-12.059,0-21.87-9.806-21.87-21.859v-4.921
			c0-38.91,25.028-72.682,61.076-84.635C67.614,154.552,61.972,191.931,59.948,231.016z M164.571,231.016h-18.474
			c1.959-40.179,6.568-79.126,13.713-115.984h4.761V231.016z M407.123,115.033c6.119,0,12.208,0.642,18.166,1.891
			c9.858,35.623,15.933,73.937,18.065,114.092h-54.762c-1.919-40.044-6.431-78.982-13.441-115.984H407.123z M347.429,115.033h11.759
			c7.149,36.927,11.758,75.873,13.715,115.984h-25.475V115.033z M479.086,288.758v33.437c0,12.107-2.685,23.697-7.981,34.445
			c-0.001,0.001-0.002,0.003-0.002,0.004c-13.249,26.934-40.123,43.667-70.134,43.667h-53.541v-83.184
			c0-4.328-3.509-7.837-7.837-7.837c-4.328,0-7.837,3.509-7.837,7.837v87.771h-151.51V107.102h151.51v169.273
			c0,4.328,3.509,7.837,7.837,7.837c4.328,0,7.837-3.509,7.837-7.837v-29.665h89.61
			C460.223,246.711,479.086,265.573,479.086,288.758z M496.327,209.157c0,12.053-9.811,21.859-21.87,21.859h-15.413
			c-1.962-37.905-7.336-74.265-16.017-108.392c31.968,14.085,53.3,45.888,53.3,81.612V209.157z"/>
	</g>
</g>
<g>
</g>
<g>
</g>
<g>
</g>
<g>
</g>
<g>
</g>
<g>
</g>
<g>
</g>
<g>
</g>
<g>
</g>
<g>
</g>
<g>
</g>
<g>
</g>
<g>
</g>
<g>
</g>
<g>
</g>
</svg>
