<?xml version="1.0" encoding="iso-8859-1"?>
<!-- Generator: Adobe Illustrator 19.0.0, SVG Export Plug-In . SVG Version: 6.00 Build 0)  -->
<svg version="1.1" id="Layer_1" xmlns="http://www.w3.org/2000/svg" xmlns:xlink="http://www.w3.org/1999/xlink" x="0px" y="0px"
	 viewBox="0 0 512.001 512.001" style="enable-background:new 0 0 512.001 512.001;" xml:space="preserve">
<g>
	<g>
		<path d="M450.208,156.795c-2.349-11.22-4.565-21.818-3.044-43.147c0.384-5.356-3.647-10.007-9.003-10.39
			c-5.331-0.388-10.008,3.648-10.389,9.005c-1.717,24.039,0.887,36.482,3.405,48.514c2.349,11.22,4.565,21.818,3.042,43.147
			c-1.523,21.329-5.224,31.504-9.143,42.274c-4.204,11.553-8.55,23.499-10.266,47.539c-1.717,24.038,0.887,36.48,3.405,48.512
			c2.349,11.219,4.565,21.816,3.042,43.144c-1.523,21.328-5.224,31.502-9.143,42.272c-4.204,11.552-8.55,23.496-10.266,47.534
			c-0.017,0.231-0.026,0.46-0.026,0.692v0.461c0,8.935-7.268,16.203-16.203,16.203s-16.203-7.268-16.203-16.203v-0.461
			c0-0.232-0.009-0.461-0.026-0.692c-1.716-24.038-6.062-35.983-10.266-47.534c-3.918-10.771-7.62-20.944-9.143-42.272
			c-1.524-21.328,0.693-31.925,3.042-43.144c2.519-12.031,5.123-24.474,3.405-48.512c-1.716-24.041-6.062-35.986-10.266-47.539
			c-3.918-10.771-7.62-20.945-9.143-42.274c-1.524-21.329,0.693-31.927,3.042-43.147c2.504-11.96,5.091-24.326,3.436-48.08
			c0.13-7.991,2.464-15.539,6.753-22.134c3.091-0.626,6.191-1.657,9.051-2.617c1.786-0.599,4.399-1.476,6.336-1.96
			c0.718,1.575,1.532,3.686,2.144,5.274c3.081,7.983,7.296,18.917,17.838,18.917c10.542,0,14.757-10.933,17.836-18.917
			c0.613-1.589,1.427-3.699,2.144-5.273c1.937,0.483,4.55,1.361,6.337,1.96c8.389,2.817,18.827,6.315,25.119-1.934
			c6.796-8.92-0.809-18.817-5.842-25.365c-1.209-1.572-3.05-3.968-4.022-5.558c0.972-1.592,2.813-3.986,4.022-5.558
			c5.033-6.551,12.638-16.448,5.841-25.365c-6.292-8.255-16.73-4.748-25.119-1.934c-1.786,0.599-4.399,1.476-6.336,1.96
			c-0.718-1.575-1.532-3.686-2.144-5.274C400.378,10.933,396.163,0,385.621,0c-10.542,0-14.757,10.933-17.836,18.917
			c-0.613,1.589-1.427,3.699-2.144,5.273c-1.936-0.484-4.55-1.361-6.337-1.96c-8.389-2.817-18.827-6.316-25.119,1.934
			c-6.796,8.92,0.809,18.817,5.842,25.365c1.209,1.572,3.05,3.968,4.022,5.558c-0.972,1.592-2.813,3.986-4.022,5.558
			c-4.41,5.74-10.792,14.048-7.734,22.016c-5.228,9.077-8.103,19.422-8.236,29.981c-0.004,0.104-0.005,0.207-0.005,0.311v0.464
			c0,0.498,0.036,0.986,0.109,1.463c1.353,20.509-0.824,30.913-3.126,41.914c-0.074,0.355-0.149,0.712-0.223,1.068
			c-0.074-0.355-0.149-0.713-0.223-1.068c-2.349-11.22-4.565-21.818-3.044-43.147c0.384-5.356-3.648-10.007-9.003-10.39
			c-5.334-0.388-10.008,3.648-10.389,9.005c-1.717,24.039,0.887,36.482,3.405,48.514c2.349,11.22,4.565,21.818,3.042,43.147
			c-1.523,21.329-5.224,31.504-9.143,42.274c-4.204,11.553-8.55,23.499-10.266,47.539c-1.717,24.038,0.887,36.48,3.405,48.512
			c2.349,11.219,4.565,21.816,3.042,43.144c-1.523,21.328-5.224,31.502-9.143,42.272c-4.204,11.552-8.55,23.496-10.266,47.534
			c-0.017,0.231-0.026,0.46-0.026,0.692v0.461c0,8.935-7.268,16.203-16.203,16.203s-16.203-7.268-16.203-16.203v-0.461
			c0-0.232-0.009-0.461-0.026-0.692c-1.716-24.038-6.062-35.983-10.266-47.534c-3.918-10.771-7.62-20.944-9.143-42.272
			c-1.524-21.328,0.693-31.925,3.042-43.144c2.518-12.031,5.123-24.474,3.405-48.512c-1.716-24.041-6.062-35.986-10.266-47.539
			c-3.918-10.771-7.62-20.945-9.143-42.274c-1.524-21.329,0.693-31.927,3.042-43.147c2.504-11.96,5.091-24.326,3.436-48.08
			c0.13-7.991,2.464-15.539,6.755-22.134c3.091-0.626,6.191-1.657,9.051-2.617c1.786-0.599,4.399-1.476,6.336-1.96
			c0.718,1.575,1.532,3.686,2.144,5.274c3.08,7.983,7.295,18.917,17.837,18.917s14.757-10.933,17.836-18.917
			c0.613-1.589,1.427-3.699,2.144-5.273c1.937,0.483,4.55,1.361,6.337,1.96c8.389,2.817,18.826,6.315,25.119-1.934
			c6.796-8.92-0.809-18.817-5.842-25.365c-1.209-1.572-3.05-3.968-4.022-5.558c0.972-1.592,2.813-3.986,4.022-5.558
			c5.033-6.551,12.638-16.448,5.841-25.365c-6.292-8.255-16.73-4.748-25.119-1.934c-1.786,0.599-4.399,1.476-6.336,1.96
			c-0.718-1.575-1.532-3.686-2.144-5.274C270.758,10.933,266.543,0,256.001,0s-14.757,10.933-17.836,18.917
			c-0.613,1.589-1.427,3.699-2.144,5.273c-1.937-0.484-4.55-1.361-6.337-1.96c-8.388-2.817-18.827-6.316-25.119,1.934
			c-6.796,8.92,0.809,18.817,5.842,25.365c1.209,1.572,3.05,3.968,4.022,5.558c-0.972,1.592-2.813,3.986-4.022,5.558
			c-4.41,5.74-10.792,14.048-7.734,22.016c-5.228,9.077-8.103,19.422-8.236,29.981c-0.004,0.104-0.005,0.207-0.005,0.311v0.464
			c0,0.498,0.036,0.986,0.109,1.463c1.353,20.509-0.824,30.913-3.126,41.914c-0.074,0.355-0.149,0.712-0.223,1.068
			c-0.074-0.355-0.149-0.713-0.223-1.068c-2.349-11.22-4.565-21.818-3.043-43.147c0.384-5.356-3.648-10.007-9.003-10.39
			c-5.338-0.388-10.008,3.648-10.389,9.005c-1.717,24.039,0.887,36.482,3.405,48.514c2.349,11.22,4.565,21.818,3.042,43.147
			c-1.523,21.329-5.224,31.504-9.143,42.274c-4.204,11.553-8.55,23.499-10.266,47.539c-1.717,24.038,0.887,36.48,3.405,48.512
			c2.349,11.219,4.565,21.816,3.042,43.144c-1.523,21.328-5.224,31.502-9.143,42.272c-4.204,11.552-8.55,23.496-10.266,47.534
			c-0.017,0.231-0.026,0.46-0.026,0.692v0.461c0,8.935-7.268,16.203-16.203,16.203c-8.935,0-16.201-7.266-16.201-16.201v-0.461
			c0-0.232-0.009-0.461-0.026-0.692c-1.716-24.038-6.062-35.983-10.266-47.534c-3.918-10.771-7.62-20.944-9.143-42.272
			c-1.524-21.328,0.693-31.925,3.042-43.144c2.519-12.031,5.123-24.474,3.405-48.512c-1.716-24.041-6.062-35.986-10.266-47.539
			c-3.918-10.771-7.62-20.945-9.143-42.274c-1.524-21.329,0.693-31.927,3.042-43.147c2.504-11.96,5.091-24.326,3.436-48.08
			c0.13-7.991,2.464-15.54,6.755-22.134c3.091-0.626,6.191-1.657,9.051-2.617c1.786-0.599,4.399-1.476,6.336-1.96
			c0.718,1.575,1.532,3.686,2.144,5.274c3.078,7.982,7.294,18.915,17.836,18.915c10.542,0,14.757-10.933,17.836-18.917
			c0.613-1.589,1.427-3.699,2.144-5.273c1.937,0.483,4.55,1.361,6.337,1.96c8.389,2.817,18.826,6.315,25.119-1.934
			c6.796-8.92-0.809-18.817-5.842-25.365c-1.209-1.572-3.05-3.968-4.022-5.558c0.972-1.592,2.813-3.986,4.022-5.558
			c5.033-6.551,12.638-16.448,5.841-25.365c-6.29-8.255-16.729-4.748-25.119-1.934c-1.786,0.599-4.399,1.476-6.336,1.96
			c-0.718-1.575-1.532-3.686-2.144-5.274C141.138,10.933,136.922,0,126.38,0c-10.542,0-14.757,10.933-17.836,18.917
			c-0.613,1.589-1.427,3.699-2.144,5.273c-1.937-0.484-4.55-1.361-6.337-1.96c-8.388-2.817-18.826-6.316-25.119,1.934
			c-6.796,8.92,0.809,18.817,5.842,25.365c1.209,1.572,3.05,3.968,4.022,5.558c-0.972,1.592-2.813,3.986-4.022,5.558
			c-4.41,5.74-10.792,14.048-7.734,22.016c-5.228,9.077-8.103,19.422-8.236,29.981c-0.004,0.104-0.005,0.207-0.005,0.311v0.464
			c0,0.498,0.036,0.986,0.109,1.463c1.353,20.509-0.824,30.913-3.126,41.914c-2.518,12.033-5.123,24.475-3.405,48.514
			c1.716,24.039,6.062,35.985,10.266,47.538c3.918,10.771,7.62,20.945,9.145,42.276c1.523,21.328-0.695,31.925-3.044,43.144
			c-2.518,12.031-5.123,24.474-3.405,48.512c1.716,24.038,6.062,35.983,10.266,47.534c3.898,10.714,7.581,20.836,9.119,41.931v0.111
			c0,19.654,15.991,35.646,35.646,35.646c19.654,0,35.646-15.991,35.646-35.647v-0.11c1.539-21.093,5.221-31.216,9.119-41.931
			c4.204-11.552,8.55-23.496,10.266-47.534c1.717-24.038-0.887-36.48-3.405-48.512c-2.349-11.219-4.565-21.816-3.043-43.144
			c1.524-21.33,5.225-31.505,9.145-42.276c2.508-6.893,5.063-13.948,7.084-23.608c2.021,9.659,4.576,16.715,7.084,23.608
			c3.918,10.771,7.62,20.945,9.145,42.276c1.523,21.328-0.695,31.925-3.043,43.144c-2.519,12.031-5.123,24.474-3.405,48.512
			c1.716,24.038,6.062,35.983,10.266,47.534c3.898,10.714,7.581,20.836,9.119,41.931v0.111c0,19.654,15.991,35.646,35.646,35.646
			c19.654,0,35.646-15.991,35.646-35.647v-0.11c1.539-21.093,5.221-31.216,9.119-41.931c4.204-11.552,8.55-23.496,10.266-47.534
			c1.717-24.038-0.887-36.48-3.405-48.512c-2.349-11.219-4.565-21.816-3.044-43.144c1.524-21.33,5.225-31.505,9.145-42.276
			c2.508-6.893,5.063-13.948,7.084-23.608c2.021,9.659,4.576,16.715,7.084,23.608c3.918,10.771,7.62,20.945,9.145,42.276
			c1.523,21.328-0.695,31.925-3.043,43.144c-2.518,12.031-5.123,24.474-3.405,48.512c1.716,24.038,6.062,35.983,10.266,47.534
			c3.898,10.714,7.581,20.836,9.119,41.931v0.111c0,19.654,15.991,35.646,35.646,35.646c19.654,0,35.646-15.991,35.646-35.647v-0.11
			c1.539-21.093,5.221-31.216,9.119-41.931c4.204-11.552,8.55-23.496,10.266-47.534c1.717-24.038-0.887-36.48-3.405-48.512
			c-2.349-11.219-4.565-21.816-3.043-43.144c1.524-21.33,5.225-31.505,9.145-42.276c4.204-11.553,8.55-23.499,10.266-47.538
			C455.331,181.27,452.727,168.828,450.208,156.795z M359.062,42.553c5.242,1.484,10.437,2.226,15.132,0.15
			c6.105-2.696,8.761-9.101,11.427-16.002c2.668,6.9,5.323,13.307,11.427,16.002c4.695,2.074,9.889,1.333,15.132-0.15
			c-2.727,3.94-4.874,8.053-4.874,12.536c0,4.481,2.145,8.595,4.874,12.536c-5.241-1.484-10.436-2.223-15.132-0.15
			c-6.105,2.696-8.761,9.101-11.427,16.002c-2.668-6.9-5.323-13.307-11.427-16.002c-2.064-0.911-4.223-1.279-6.442-1.279
			c-2.83,0-5.753,0.599-8.69,1.431c2.727-3.94,4.874-8.053,4.874-12.536C363.935,50.608,361.789,46.493,359.062,42.553z
			 M229.441,42.553c5.243,1.484,10.437,2.226,15.132,0.15c6.105-2.696,8.761-9.101,11.427-16.002
			c2.668,6.9,5.323,13.307,11.427,16.002c4.694,2.074,9.89,1.333,15.132-0.15c-2.727,3.94-4.874,8.053-4.874,12.536
			c0,4.481,2.145,8.595,4.874,12.536c-5.241-1.484-10.436-2.223-15.132-0.15c-6.105,2.696-8.761,9.101-11.427,16.002
			c-2.668-6.9-5.323-13.307-11.427-16.002c-2.064-0.911-4.223-1.279-6.442-1.279c-2.83,0-5.753,0.599-8.69,1.431
			c2.727-3.94,4.874-8.053,4.874-12.536C234.315,50.608,232.169,46.493,229.441,42.553z M99.821,42.553
			c5.242,1.484,10.437,2.226,15.132,0.15c6.105-2.696,8.761-9.101,11.427-16.002c2.668,6.9,5.323,13.307,11.427,16.002
			c4.694,2.074,9.89,1.333,15.132-0.15c-2.727,3.94-4.874,8.053-4.874,12.536c0,4.481,2.145,8.595,4.874,12.536
			c-5.241-1.484-10.436-2.223-15.132-0.15c-6.105,2.696-8.761,9.101-11.427,16.002c-2.668-6.9-5.323-13.307-11.427-16.002
			c-2.064-0.911-4.223-1.279-6.442-1.279c-2.83,0-5.753,0.599-8.69,1.431c2.727-3.94,4.874-8.053,4.874-12.536
			C104.695,50.608,102.548,46.493,99.821,42.553z"/>
	</g>
</g>
<g>
</g>
<g>
</g>
<g>
</g>
<g>
</g>
<g>
</g>
<g>
</g>
<g>
</g>
<g>
</g>
<g>
</g>
<g>
</g>
<g>
</g>
<g>
</g>
<g>
</g>
<g>
</g>
<g>
</g>
</svg>
