<?xml version="1.0" encoding="iso-8859-1"?>
<!-- Generator: Adobe Illustrator 19.0.0, SVG Export Plug-In . SVG Version: 6.00 Build 0)  -->
<svg version="1.1" id="Layer_1" xmlns="http://www.w3.org/2000/svg" xmlns:xlink="http://www.w3.org/1999/xlink" x="0px" y="0px"
	 viewBox="0 0 512 512" style="enable-background:new 0 0 512 512;" xml:space="preserve">
<g>
	<g>
		<g>
			<path d="M132.627,210.812c12.216,21.445,35.29,35.935,61.687,35.935c26.397,0,49.47-14.49,61.687-35.935
				c12.216,21.445,35.29,35.935,61.687,35.935s49.47-14.49,61.687-35.935c12.216,21.445,35.29,35.935,61.687,35.935
				c39.117,0,70.94-31.823,70.94-70.94v-37.012c0-2.548-1.03-4.855-2.696-6.528c-0.005-0.005-0.009-0.01-0.014-0.016l-74.024-74.024
				c-1.737-1.735-4.09-2.709-6.544-2.709H170.46c-5.111,0-9.253,4.142-9.253,9.253c0,5.111,4.142,9.253,9.253,9.253h254.431
				l55.518,55.518H31.591l55.518-55.518h46.34c5.111,0,9.253-4.142,9.253-9.253c0-5.111-4.142-9.253-9.253-9.253H83.277
				c-2.454,0-4.807,0.975-6.544,2.709L2.709,132.251c-0.001,0.001-0.003,0.004-0.004,0.005C1.034,133.932,0,136.243,0,138.795
				v37.012c0,14.796,4.559,28.544,12.337,39.925v194.485c0,5.111,4.142,9.253,9.253,9.253h155.954
				c18.684,22.592,46.917,37.012,78.456,37.012s59.771-14.42,78.456-37.012H490.41c5.111,0,9.253-4.142,9.253-9.253V260.524
				c0-5.111-4.142-9.253-9.253-9.253c-5.111,0-9.253,4.142-9.253,9.253v140.44H346.614c6.679-13.029,10.626-27.671,11.091-43.181
				h71.018c5.111,0,9.253-4.142,9.253-9.253v-70.734c0-5.111-4.142-9.253-9.253-9.253s-9.253,4.142-9.253,9.253v61.481h-62.854
				c-7.454-48.831-49.734-86.361-100.616-86.361c-50.882,0-93.162,37.53-100.616,86.361H92.53v-95.893
				C109.609,237.916,123.893,226.142,132.627,210.812z M256,271.422c45.92,0,83.277,37.357,83.277,83.277
				S301.92,437.976,256,437.976s-83.277-37.357-83.277-83.277S210.08,271.422,256,271.422z M154.295,357.783
				c0.465,15.509,4.411,30.151,11.091,43.181H30.843V234.287c11.414,7.852,25.225,12.46,40.096,12.46c1.034,0,2.06-0.03,3.084-0.074
				V348.53c0,5.111,4.142,9.253,9.253,9.253H154.295z M70.94,228.241c-28.913,0-52.434-23.521-52.434-52.434v-27.759h474.988v27.759
				c0,28.913-23.521,52.434-52.434,52.434s-52.434-23.521-52.434-52.434c0-5.111-4.142-9.253-9.253-9.253
				c-5.111,0-9.253,4.142-9.253,9.253c0,28.913-23.521,52.434-52.434,52.434c-28.913,0-52.434-23.521-52.434-52.434
				c0-5.111-4.142-9.253-9.253-9.253s-9.253,4.142-9.253,9.253c0,28.913-23.521,52.434-52.434,52.434
				c-28.913,0-52.434-23.521-52.434-52.434c0-5.111-4.142-9.253-9.253-9.253c-5.111,0-9.253,4.142-9.253,9.253
				C123.373,204.72,99.852,228.241,70.94,228.241z"/>
			<path d="M249.456,410.767c1.736,1.735,4.089,2.709,6.544,2.709s4.807-0.975,6.544-2.709l42.121-42.123
				c6.408-6.407,9.939-14.928,9.939-23.991c0-18.706-15.219-33.926-33.926-33.928c-0.001,0-0.001,0-0.001,0
				c-9.707,0-18.474,4.096-24.664,10.653c-0.228-0.241-0.459-0.48-0.695-0.716c-6.408-6.408-14.929-9.938-23.989-9.937
				c-0.001,0-0.003,0-0.004,0c-9.062,0-17.581,3.529-23.987,9.937c-6.408,6.408-9.938,14.928-9.938,23.99s3.529,17.583,9.937,23.991
				L249.456,410.767z M220.42,333.749c2.912-2.912,6.784-4.516,10.905-4.516c0,0,0,0,0.001,0c4.118,0,7.992,1.604,10.904,4.516
				c2.913,2.913,4.517,6.786,4.517,10.905v5.111c0,5.111,4.142,9.253,9.253,9.253s9.253-4.142,9.253-9.253v-5.111
				c0-8.504,6.918-15.422,15.42-15.422c8.505,0.001,15.423,6.919,15.423,15.422c0,4.121-1.604,7.993-4.517,10.905L256,391.14
				l-35.58-35.581c-2.913-2.912-4.517-6.784-4.517-10.905C215.904,340.534,217.508,336.662,220.42,333.749z"/>
		</g>
	</g>
</g>
<g>
</g>
<g>
</g>
<g>
</g>
<g>
</g>
<g>
</g>
<g>
</g>
<g>
</g>
<g>
</g>
<g>
</g>
<g>
</g>
<g>
</g>
<g>
</g>
<g>
</g>
<g>
</g>
<g>
</g>
</svg>
