<?xml version="1.0" encoding="iso-8859-1"?>
<!-- Generator: Adobe Illustrator 19.0.0, SVG Export Plug-In . SVG Version: 6.00 Build 0)  -->
<svg version="1.1" id="Layer_1" xmlns="http://www.w3.org/2000/svg" xmlns:xlink="http://www.w3.org/1999/xlink" x="0px" y="0px"
	 viewBox="0 0 228.001 228.001" style="enable-background:new 0 0 228.001 228.001;" xml:space="preserve">
<g>
	<g>
		<g>
			<path d="M192.001,78c0-43.008-34.992-78-78-78s-78,34.992-78,78c0,22.204,9.374,42.222,24.316,56.44
				c-0.203,0.48-0.316,1.006-0.316,1.56v88c0,1.34,0.672,2.59,1.785,3.332c1.117,0.738,2.524,0.879,3.766,0.356l48.449-20.348
				l48.449,20.348c0.5,0.211,1.027,0.312,1.551,0.312c0.777,0,1.547-0.226,2.215-0.668c1.113-0.742,1.785-1.992,1.785-3.332v-88
				c0-0.554-0.112-1.081-0.316-1.56C182.627,120.221,192.001,100.204,192.001,78z M80.001,212.94l-12,5.04v-77.131
				c3.761,2.761,7.77,5.181,12,7.241V212.94z M140.001,209.58l-24.449-10.268c-0.993-0.414-2.11-0.414-3.102,0L88.001,209.58
				v-58.132c8.147,2.894,16.874,4.551,26,4.551c9.126,0,17.853-1.658,26-4.551V209.58z M160.001,217.98l-12-5.04v-64.85
				c4.23-2.06,8.239-4.48,12-7.241V217.98z M114.001,148c-38.598,0-70-31.402-70-70s31.402-70,70-70c38.598,0,70,31.402,70,70
				S152.599,148,114.001,148z"/>
			<path d="M114.001,16c-2.211,0-4,1.789-4,4s1.789,4,4,4c29.777,0,54,24.223,54,54c0,2.211,1.789,4,4,4s4-1.789,4-4
				C176.001,43.812,148.189,16,114.001,16z"/>
			<path d="M92.001,52h-16c-2.211,0-4,1.789-4,4v16c0,2.211,1.789,4,4,4h16c2.211,0,4-1.789,4-4V56
				C96.001,53.789,94.212,52,92.001,52z M88.001,68h-8v-8h8V68z"/>
			<path d="M120.001,52h-16c-2.211,0-4,1.789-4,4v16c0,2.211,1.789,4,4,4h16c2.211,0,4-1.789,4-4V56
				C124.001,53.789,122.212,52,120.001,52z M116.001,68h-8v-8h8V68z"/>
			<path d="M148.001,52h-16c-2.211,0-4,1.789-4,4v16c0,2.211,1.789,4,4,4h16c2.211,0,4-1.789,4-4V56
				C152.001,53.789,150.211,52,148.001,52z M144.001,68h-8v-8h8V68z"/>
			<path d="M92.001,84h-16c-2.211,0-4,1.789-4,4v16c0,2.211,1.789,4,4,4h16c2.211,0,4-1.789,4-4V88
				C96.001,85.789,94.212,84,92.001,84z M88.001,100h-8v-8h8V100z"/>
			<path d="M120.001,84h-16c-2.211,0-4,1.789-4,4v16c0,2.211,1.789,4,4,4h16c2.211,0,4-1.789,4-4V88
				C124.001,85.789,122.212,84,120.001,84z M116.001,100h-8v-8h8V100z"/>
			<path d="M148.001,84h-16c-2.211,0-4,1.789-4,4v16c0,2.211,1.789,4,4,4h16c2.211,0,4-1.789,4-4V88
				C152.001,85.789,150.211,84,148.001,84z M144.001,100h-8v-8h8V100z"/>
		</g>
	</g>
</g>
<g>
</g>
<g>
</g>
<g>
</g>
<g>
</g>
<g>
</g>
<g>
</g>
<g>
</g>
<g>
</g>
<g>
</g>
<g>
</g>
<g>
</g>
<g>
</g>
<g>
</g>
<g>
</g>
<g>
</g>
</svg>
