<?xml version="1.0" encoding="iso-8859-1"?>
<!-- Generator: Adobe Illustrator 19.0.0, SVG Export Plug-In . SVG Version: 6.00 Build 0)  -->
<svg version="1.1" id="Layer_1" xmlns="http://www.w3.org/2000/svg" xmlns:xlink="http://www.w3.org/1999/xlink" x="0px" y="0px"
	 viewBox="0 0 223.32 223.32" style="enable-background:new 0 0 223.32 223.32;" xml:space="preserve">
<g>
	<g>
		<g>
			<path d="M68,191.66c6.617,0,12-5.383,12-12s-5.383-12-12-12s-12,5.383-12,12S61.383,191.66,68,191.66z M68,175.66
				c2.205,0,4,1.795,4,4c0,2.205-1.795,4-4,4s-4-1.795-4-4C64,177.455,65.795,175.66,68,175.66z"/>
			<path d="M222.385,28.235c-0.975-1.164-2.527-1.676-3.994-1.32l-43.496,10.391c-1.348,0.322-2.434,1.32-2.869,2.637
				c-0.434,1.314-0.156,2.764,0.734,3.824l11.005,13.116L156.271,79.65l-7.592-24.467L136,67.141V31.68
				c0-6.627-5.387-12.02-12.008-12.02H12.008C5.387,19.66,0,25.053,0,31.68v123.98v48h136v-48V78.137l8.84-8.338l7.334,23.631
				l36.732-30.421l9.564,11.4c0.766,0.914,1.892,1.43,3.064,1.43c0.192,0,0.383-0.014,0.576-0.041
				c1.371-0.201,2.543-1.096,3.094-2.369l17.785-41.033C223.594,31.006,223.358,29.395,222.385,28.235z M128,195.66H8v-32h120
				V195.66z M128,74.686l-35.85,33.81l-9.617-24.381l-47.992,47.672l5.637,5.676l39.371-39.109l9.496,24.068L128,85.682v69.978H8
				V31.68c0-2.217,1.799-4.02,4.008-4.02h111.984c2.209,0,4.008,1.803,4.008,4.02V74.686z M200.44,64.309l-17.391-20.726
				l29.42-7.027L200.44,64.309z"/>
		</g>
	</g>
</g>
<g>
</g>
<g>
</g>
<g>
</g>
<g>
</g>
<g>
</g>
<g>
</g>
<g>
</g>
<g>
</g>
<g>
</g>
<g>
</g>
<g>
</g>
<g>
</g>
<g>
</g>
<g>
</g>
<g>
</g>
</svg>
