<?xml version="1.0" encoding="iso-8859-1"?>
<!-- Generator: Adobe Illustrator 19.0.0, SVG Export Plug-In . SVG Version: 6.00 Build 0)  -->
<svg version="1.1" id="Layer_1" xmlns="http://www.w3.org/2000/svg" xmlns:xlink="http://www.w3.org/1999/xlink" x="0px" y="0px"
	 viewBox="0 0 512 512" style="enable-background:new 0 0 512 512;" xml:space="preserve">
<g transform="translate(1)">
	<g>
		<path style="fill:#556080;" d="M429.933,512c-2.56,0-4.267-0.853-5.973-2.56s-2.56-3.413-2.56-5.973
			c0-2.56,0.853-4.267,2.56-5.973c3.413-3.413,8.533-3.413,11.947,0c1.707,1.707,2.56,4.267,2.56,5.973
			c0,2.56-0.853,4.267-2.56,5.973C434.2,511.147,432.493,512,429.933,512"/>
		<path style="fill:#556080;" d="M114.2,503.467c0-4.267,3.413-8.533,8.533-8.533c5.12,0,8.533,4.267,8.533,8.533
			c0,4.267-3.413,8.533-8.533,8.533C117.613,512,114.2,507.733,114.2,503.467 M148.333,503.467c0-4.267,3.413-8.533,8.533-8.533
			c5.12,0,8.533,4.267,8.533,8.533c0,4.267-3.413,8.533-8.533,8.533C151.747,512,148.333,507.733,148.333,503.467 M182.467,503.467
			c0-4.267,3.413-8.533,8.533-8.533c5.12,0,8.533,4.267,8.533,8.533c0,4.267-3.413,8.533-8.533,8.533
			C185.88,512,182.467,507.733,182.467,503.467 M216.6,503.467c0-4.267,4.267-8.533,8.533-8.533s8.533,4.267,8.533,8.533
			c0,4.267-4.267,8.533-8.533,8.533S216.6,507.733,216.6,503.467 M250.733,503.467c0-4.267,4.267-8.533,8.533-8.533
			c4.267,0,8.533,4.267,8.533,8.533c0,4.267-4.267,8.533-8.533,8.533C255,512,250.733,507.733,250.733,503.467 M284.867,503.467
			c0-4.267,4.267-8.533,8.533-8.533s8.533,4.267,8.533,8.533c0,4.267-4.267,8.533-8.533,8.533S284.867,507.733,284.867,503.467
			 M319,503.467c0-4.267,4.267-8.533,8.533-8.533s8.533,4.267,8.533,8.533c0,4.267-4.267,8.533-8.533,8.533S319,507.733,319,503.467
			 M353.133,503.467c0-4.267,4.267-8.533,8.533-8.533s8.533,4.267,8.533,8.533c0,4.267-4.267,8.533-8.533,8.533
			S353.133,507.733,353.133,503.467 M387.267,503.467c0-4.267,4.267-8.533,8.533-8.533s8.533,4.267,8.533,8.533
			c0,4.267-4.267,8.533-8.533,8.533S387.267,507.733,387.267,503.467"/>
		<path style="fill:#556080;" d="M88.6,512c-2.56,0-4.267-0.853-5.973-2.56s-2.56-3.413-2.56-5.973c0-2.56,0.853-4.267,2.56-5.973
			c3.413-3.413,8.533-3.413,11.947,0c1.707,1.707,2.56,3.413,2.56,5.973c0,2.56-0.853,4.267-2.56,5.973
			C92.867,511.147,91.16,512,88.6,512"/>
		<path style="fill:#556080;" d="M80.067,173.227c0-4.267,3.413-8.533,8.533-8.533s8.533,4.267,8.533,8.533
			c0,5.12-4.267,8.533-8.533,8.533C84.333,181.76,80.067,178.347,80.067,173.227 M80.067,206.507c0-4.267,3.413-8.533,8.533-8.533
			s8.533,4.267,8.533,8.533s-4.267,8.533-8.533,8.533C84.333,215.04,80.067,210.773,80.067,206.507 M80.067,239.787
			c0-5.12,3.413-8.533,8.533-8.533s8.533,3.413,8.533,8.533c0,4.267-4.267,8.533-8.533,8.533
			C84.333,248.32,80.067,244.053,80.067,239.787 M80.067,272.213c0-4.267,3.413-8.533,8.533-8.533s8.533,4.267,8.533,8.533
			c0,4.267-4.267,8.533-8.533,8.533C84.333,280.747,80.067,277.333,80.067,272.213 M80.067,305.493c0-4.267,3.413-8.533,8.533-8.533
			s8.533,4.267,8.533,8.533c0,5.12-4.267,8.533-8.533,8.533C84.333,314.027,80.067,309.76,80.067,305.493 M80.067,338.773
			c0-5.12,3.413-8.533,8.533-8.533s8.533,3.413,8.533,8.533c0,4.267-4.267,8.533-8.533,8.533
			C84.333,347.307,80.067,343.04,80.067,338.773 M80.067,371.2c0-5.12,3.413-8.533,8.533-8.533s8.533,3.413,8.533,8.533
			s-4.267,8.533-8.533,8.533C84.333,379.733,80.067,376.32,80.067,371.2 M80.067,404.48c0-4.267,3.413-8.533,8.533-8.533
			s8.533,4.267,8.533,8.533s-4.267,8.533-8.533,8.533C84.333,413.013,80.067,408.747,80.067,404.48 M80.067,437.76
			c0-5.12,3.413-8.533,8.533-8.533s8.533,3.413,8.533,8.533c0,4.267-4.267,8.533-8.533,8.533
			C84.333,446.293,80.067,442.027,80.067,437.76 M80.067,470.187c0-4.267,3.413-8.533,8.533-8.533s8.533,4.267,8.533,8.533
			c0,5.12-4.267,8.533-8.533,8.533C84.333,478.72,80.067,475.307,80.067,470.187"/>
		<path style="fill:#556080;" d="M421.4,173.227c0-4.267,4.267-8.533,8.533-8.533s8.533,4.267,8.533,8.533
			c0,5.12-4.267,8.533-8.533,8.533S421.4,178.347,421.4,173.227 M421.4,206.507c0-4.267,4.267-8.533,8.533-8.533
			s8.533,4.267,8.533,8.533s-4.267,8.533-8.533,8.533S421.4,210.773,421.4,206.507 M421.4,239.787c0-5.12,4.267-8.533,8.533-8.533
			s8.533,3.413,8.533,8.533c0,4.267-4.267,8.533-8.533,8.533S421.4,244.053,421.4,239.787 M421.4,272.213
			c0-4.267,4.267-8.533,8.533-8.533s8.533,4.267,8.533,8.533c0,4.267-4.267,8.533-8.533,8.533S421.4,277.333,421.4,272.213
			 M421.4,305.493c0-4.267,4.267-8.533,8.533-8.533s8.533,4.267,8.533,8.533c0,5.12-4.267,8.533-8.533,8.533
			S421.4,309.76,421.4,305.493 M421.4,338.773c0-5.12,4.267-8.533,8.533-8.533s8.533,3.413,8.533,8.533
			c0,4.267-4.267,8.533-8.533,8.533S421.4,343.04,421.4,338.773 M421.4,371.2c0-5.12,4.267-8.533,8.533-8.533
			s8.533,3.413,8.533,8.533s-4.267,8.533-8.533,8.533S421.4,376.32,421.4,371.2 M421.4,404.48c0-4.267,4.267-8.533,8.533-8.533
			s8.533,4.267,8.533,8.533s-4.267,8.533-8.533,8.533S421.4,408.747,421.4,404.48 M421.4,437.76c0-5.12,4.267-8.533,8.533-8.533
			s8.533,3.413,8.533,8.533c0,4.267-4.267,8.533-8.533,8.533S421.4,442.027,421.4,437.76 M421.4,470.187
			c0-4.267,4.267-8.533,8.533-8.533s8.533,4.267,8.533,8.533c0,5.12-4.267,8.533-8.533,8.533S421.4,475.307,421.4,470.187"/>
	</g>
	<g>
		<polygon style="fill:#25B99A;" points="80.067,170.667 421.4,170.667 421.4,8.533 80.067,8.533 		"/>
		<path style="fill:#25B99A;" d="M429.933,179.2h-358.4V0h358.4V179.2z M88.6,162.133h324.267V17.067H88.6V162.133z"/>
	</g>
	<path d="M378.733,503.467c0-4.267,4.267-8.533,8.533-8.533l0,0c4.267,0,8.533,4.267,8.533,8.533l0,0
		c0,4.267-4.267,8.533-8.533,8.533l0,0C383,512,378.733,507.733,378.733,503.467z M344.6,503.467c0-4.267,4.267-8.533,8.533-8.533
		l0,0c4.267,0,8.533,4.267,8.533,8.533l0,0c0,4.267-4.267,8.533-8.533,8.533l0,0C348.867,512,344.6,507.733,344.6,503.467z
		 M310.467,503.467c0-4.267,4.267-8.533,8.533-8.533l0,0c4.267,0,8.533,4.267,8.533,8.533l0,0c0,4.267-4.267,8.533-8.533,8.533l0,0
		C314.733,512,310.467,507.733,310.467,503.467z M276.333,503.467c0-4.267,4.267-8.533,8.533-8.533l0,0
		c4.267,0,8.533,4.267,8.533,8.533l0,0c0,4.267-4.267,8.533-8.533,8.533l0,0C280.6,512,276.333,507.733,276.333,503.467z
		 M242.2,503.467c0-4.267,3.413-8.533,8.533-8.533l0,0c4.267,0,8.533,4.267,8.533,8.533l0,0c0,4.267-4.267,8.533-8.533,8.533l0,0
		C245.613,512,242.2,507.733,242.2,503.467z M208.067,503.467c0-4.267,3.413-8.533,8.533-8.533l0,0c4.267,0,8.533,4.267,8.533,8.533
		l0,0c0,4.267-4.267,8.533-8.533,8.533l0,0C211.48,512,208.067,507.733,208.067,503.467z M173.933,503.467
		c0-4.267,3.413-8.533,8.533-8.533l0,0c4.267,0,8.533,4.267,8.533,8.533l0,0c0,4.267-4.267,8.533-8.533,8.533l0,0
		C177.347,512,173.933,507.733,173.933,503.467z M139.8,503.467c0-4.267,3.413-8.533,8.533-8.533l0,0
		c4.267,0,8.533,4.267,8.533,8.533l0,0c0,4.267-4.267,8.533-8.533,8.533l0,0C143.213,512,139.8,507.733,139.8,503.467z
		 M105.667,503.467c0-4.267,3.413-8.533,8.533-8.533l0,0c4.267,0,8.533,4.267,8.533,8.533l0,0c0,4.267-4.267,8.533-8.533,8.533l0,0
		C109.08,512,105.667,507.733,105.667,503.467z"/>
	<path d="M71.533,470.187c0-4.267,3.413-8.533,8.533-8.533l0,0c4.267,0,8.533,4.267,8.533,8.533l0,0
		c0,4.267-4.267,8.533-8.533,8.533l0,0C74.947,478.72,71.533,475.307,71.533,470.187z M71.533,437.76
		c0-5.12,3.413-8.533,8.533-8.533l0,0c4.267,0,8.533,3.413,8.533,8.533l0,0c0,4.267-4.267,8.533-8.533,8.533l0,0
		C74.947,446.293,71.533,442.027,71.533,437.76z M71.533,404.48c0-4.267,3.413-8.533,8.533-8.533l0,0
		c4.267,0,8.533,4.267,8.533,8.533l0,0c0,5.12-4.267,8.533-8.533,8.533l0,0C74.947,413.013,71.533,409.6,71.533,404.48z
		 M71.533,371.2c0-5.12,3.413-8.533,8.533-8.533l0,0c4.267,0,8.533,3.413,8.533,8.533l0,0c0,4.267-4.267,8.533-8.533,8.533l0,0
		C74.947,379.733,71.533,376.32,71.533,371.2z M71.533,338.773c0-5.12,3.413-8.533,8.533-8.533l0,0c4.267,0,8.533,3.413,8.533,8.533
		l0,0c0,5.12-4.267,8.533-8.533,8.533l0,0C74.947,347.307,71.533,343.04,71.533,338.773z M71.533,305.493
		c0-5.12,3.413-8.533,8.533-8.533l0,0c4.267,0,8.533,3.413,8.533,8.533l0,0c0,4.267-4.267,8.533-8.533,8.533l0,0
		C74.947,314.027,71.533,309.76,71.533,305.493z M71.533,272.213c0-4.267,3.413-8.533,8.533-8.533l0,0
		c4.267,0,8.533,4.267,8.533,8.533l0,0c0,4.267-4.267,8.533-8.533,8.533l0,0C74.947,280.747,71.533,277.333,71.533,272.213z
		 M71.533,239.787c0-5.12,3.413-8.533,8.533-8.533l0,0c4.267,0,8.533,3.413,8.533,8.533l0,0c0,5.12-4.267,8.533-8.533,8.533l0,0
		C74.947,248.32,71.533,244.053,71.533,239.787z M71.533,206.507c0-5.12,3.413-8.533,8.533-8.533l0,0
		c4.267,0,8.533,3.413,8.533,8.533l0,0c0,5.12-4.267,8.533-8.533,8.533l0,0C74.947,215.04,71.533,211.627,71.533,206.507z
		 M71.533,173.227c0-4.267,3.413-8.533,8.533-8.533l0,0c4.267,0,8.533,4.267,8.533,8.533l0,0c0,5.12-4.267,8.533-8.533,8.533l0,0
		C74.947,181.76,71.533,178.347,71.533,173.227z M71.533,140.8c0-5.12,3.413-8.533,8.533-8.533l0,0c4.267,0,8.533,3.413,8.533,8.533
		l0,0c0,4.267-4.267,8.533-8.533,8.533l0,0C74.947,149.333,71.533,145.067,71.533,140.8z M71.533,107.52
		c0-5.12,3.413-8.533,8.533-8.533l0,0c4.267,0,8.533,3.413,8.533,8.533l0,0c0,5.12-4.267,8.533-8.533,8.533l0,0
		C74.947,116.053,71.533,111.787,71.533,107.52z M71.533,74.24c0-5.12,3.413-8.533,8.533-8.533l0,0c4.267,0,8.533,3.413,8.533,8.533
		l0,0c0,4.267-4.267,8.533-8.533,8.533l0,0C74.947,82.773,71.533,79.36,71.533,74.24z M71.533,41.813
		c0-4.267,3.413-8.533,8.533-8.533l0,0c4.267,0,8.533,4.267,8.533,8.533l0,0c0,4.267-4.267,8.533-8.533,8.533l0,0
		C74.947,50.347,71.533,46.08,71.533,41.813z"/>
	<path d="M378.733,8.533C378.733,3.413,383,0,387.267,0l0,0c4.267,0,8.533,3.413,8.533,8.533l0,0c0,4.267-4.267,8.533-8.533,8.533
		l0,0C383,17.067,378.733,12.8,378.733,8.533z M344.6,8.533c0-5.12,4.267-8.533,8.533-8.533l0,0c4.267,0,8.533,3.413,8.533,8.533
		l0,0c0,4.267-4.267,8.533-8.533,8.533l0,0C348.867,17.067,344.6,12.8,344.6,8.533z M310.467,8.533C310.467,3.413,314.733,0,319,0
		l0,0c4.267,0,8.533,3.413,8.533,8.533l0,0c0,4.267-4.267,8.533-8.533,8.533l0,0C314.733,17.067,310.467,12.8,310.467,8.533z
		 M276.333,8.533c0-5.12,4.267-8.533,8.533-8.533l0,0c4.267,0,8.533,3.413,8.533,8.533l0,0c0,4.267-4.267,8.533-8.533,8.533l0,0
		C280.6,17.067,276.333,12.8,276.333,8.533z M242.2,8.533c0-5.12,3.413-8.533,8.533-8.533l0,0c4.267,0,8.533,3.413,8.533,8.533l0,0
		c0,4.267-4.267,8.533-8.533,8.533l0,0C245.613,17.067,242.2,12.8,242.2,8.533z M208.067,8.533c0-5.12,3.413-8.533,8.533-8.533l0,0
		c4.267,0,8.533,3.413,8.533,8.533l0,0c0,4.267-4.267,8.533-8.533,8.533l0,0C211.48,17.067,208.067,12.8,208.067,8.533z
		 M173.933,8.533c0-5.12,3.413-8.533,8.533-8.533l0,0C186.733,0,191,3.413,191,8.533l0,0c0,4.267-4.267,8.533-8.533,8.533l0,0
		C177.347,17.067,173.933,12.8,173.933,8.533z M139.8,8.533c0-5.12,3.413-8.533,8.533-8.533l0,0c4.267,0,8.533,3.413,8.533,8.533
		l0,0c0,4.267-4.267,8.533-8.533,8.533l0,0C143.213,17.067,139.8,12.8,139.8,8.533z M105.667,8.533c0-5.12,3.413-8.533,8.533-8.533
		l0,0c4.267,0,8.533,3.413,8.533,8.533l0,0c0,4.267-4.267,8.533-8.533,8.533l0,0C109.08,17.067,105.667,12.8,105.667,8.533z"/>
	<path d="M412.867,470.187c0-5.12,4.267-8.533,8.533-8.533l0,0c4.267,0,8.533,3.413,8.533,8.533l0,0
		c0,4.267-4.267,8.533-8.533,8.533l0,0C417.133,478.72,412.867,475.307,412.867,470.187z M412.867,437.76
		c0-4.267,4.267-8.533,8.533-8.533l0,0c4.267,0,8.533,4.267,8.533,8.533l0,0c0,4.267-4.267,8.533-8.533,8.533l0,0
		C417.133,446.293,412.867,442.027,412.867,437.76z M412.867,404.48c0-4.267,4.267-8.533,8.533-8.533l0,0
		c4.267,0,8.533,4.267,8.533,8.533l0,0c0,5.12-4.267,8.533-8.533,8.533l0,0C417.133,413.013,412.867,409.6,412.867,404.48z
		 M412.867,371.2c0-5.12,4.267-8.533,8.533-8.533l0,0c4.267,0,8.533,3.413,8.533,8.533l0,0c0,5.12-4.267,8.533-8.533,8.533l0,0
		C417.133,379.733,412.867,376.32,412.867,371.2z M412.867,338.773c0-5.12,4.267-8.533,8.533-8.533l0,0
		c4.267,0,8.533,3.413,8.533,8.533l0,0c0,4.267-4.267,8.533-8.533,8.533l0,0C417.133,347.307,412.867,343.04,412.867,338.773z
		 M412.867,305.493c0-4.267,4.267-8.533,8.533-8.533l0,0c4.267,0,8.533,4.267,8.533,8.533l0,0c0,4.267-4.267,8.533-8.533,8.533l0,0
		C417.133,314.027,412.867,309.76,412.867,305.493z M412.867,272.213c0-5.12,4.267-8.533,8.533-8.533l0,0
		c4.267,0,8.533,3.413,8.533,8.533l0,0c0,5.12-4.267,8.533-8.533,8.533l0,0C417.133,280.747,412.867,277.333,412.867,272.213z
		 M412.867,239.787c0-4.267,4.267-8.533,8.533-8.533l0,0c4.267,0,8.533,4.267,8.533,8.533l0,0c0,4.267-4.267,8.533-8.533,8.533l0,0
		C417.133,248.32,412.867,244.053,412.867,239.787z M412.867,206.507c0-4.267,4.267-8.533,8.533-8.533l0,0
		c4.267,0,8.533,4.267,8.533,8.533l0,0c0,5.12-4.267,8.533-8.533,8.533l0,0C417.133,215.04,412.867,211.627,412.867,206.507z
		 M412.867,173.227c0-4.267,4.267-8.533,8.533-8.533l0,0c4.267,0,8.533,4.267,8.533,8.533l0,0c0,5.12-4.267,8.533-8.533,8.533l0,0
		C417.133,181.76,412.867,178.347,412.867,173.227z M412.867,140.8c0-5.12,4.267-8.533,8.533-8.533l0,0
		c4.267,0,8.533,3.413,8.533,8.533l0,0c0,5.12-4.267,8.533-8.533,8.533l0,0C417.133,149.333,412.867,145.067,412.867,140.8z
		 M412.867,107.52c0-4.267,4.267-8.533,8.533-8.533l0,0c4.267,0,8.533,4.267,8.533,8.533l0,0c0,5.12-4.267,8.533-8.533,8.533l0,0
		C417.133,116.053,412.867,111.787,412.867,107.52z M412.867,74.24c0-5.12,4.267-8.533,8.533-8.533l0,0
		c4.267,0,8.533,3.413,8.533,8.533l0,0c0,5.12-4.267,8.533-8.533,8.533l0,0C417.133,82.773,412.867,79.36,412.867,74.24z
		 M412.867,41.813c0-5.12,4.267-8.533,8.533-8.533l0,0c4.267,0,8.533,3.413,8.533,8.533l0,0c0,5.12-4.267,8.533-8.533,8.533l0,0
		C417.133,50.347,412.867,46.08,412.867,41.813z"/>
	<path d="M429.933,179.2h-358.4V0h358.4V179.2z M88.6,162.133h324.267V17.067H88.6V162.133z"/>
</g>
<g>
</g>
<g>
</g>
<g>
</g>
<g>
</g>
<g>
</g>
<g>
</g>
<g>
</g>
<g>
</g>
<g>
</g>
<g>
</g>
<g>
</g>
<g>
</g>
<g>
</g>
<g>
</g>
<g>
</g>
</svg>
