<?xml version="1.0" encoding="iso-8859-1"?>
<!-- Generator: Adobe Illustrator 19.0.0, SVG Export Plug-In . SVG Version: 6.00 Build 0)  -->
<svg version="1.1" id="Layer_1" xmlns="http://www.w3.org/2000/svg" xmlns:xlink="http://www.w3.org/1999/xlink" x="0px" y="0px"
	 viewBox="0 0 311.296 311.296" style="enable-background:new 0 0 311.296 311.296;" xml:space="preserve">
<g>
	<g>
		<g>
			<path d="M224.535,102.882c-11.298-53.062-42.51-85.835-55.444-97.46c-8.444-7.586-21.298-7.167-29.259,0.976
				c-31.115,31.802-45.723,65.669-51.64,96.13C57.5,109.609,5.715,132.297,5.222,204.816c-0.021,3.326,1.497,6.475,4.12,8.524
				c1.904,1.491,4.243,2.28,6.609,2.28c0.885,0,1.776-0.113,2.656-0.333c25.214-6.438,53.051-12.478,75.706-16.357
				c0.279,0.81,0.531,1.513,0.708,1.99c2.473,9.453,14.211,13.009,46.147,14.388c6.116,0.263,12.451,0.392,18.707,0.392
				c14.994,0,29.522-0.73,39.387-2.076c6.491-0.885,21.083-2.875,21.92-13.723c7.108-27.478,8.696-52.172,6.792-74.059
				c22.044,7.049,50.171,24.012,55.68,65.068c-14.259-3.498-26.866-6.363-38.046-8.691c-6.754-1.406-13.068,3.75-13.068,10.649
				c0,5.188,3.653,9.619,8.739,10.654c16.77,3.407,34.661,7.5,51.41,11.77c0.874,0.225,1.765,0.333,2.656,0.333
				c2.371,0,4.705-0.783,6.609-2.28c2.618-2.049,4.142-5.198,4.12-8.524C305.58,133.413,255.377,110.328,224.535,102.882z
				 M27.63,190.906c5.665-42.225,35.3-59.006,57.601-65.685c-1.443,20.863,0.73,39.13,3.444,52.585
				C72.656,180.557,52.656,184.763,27.63,190.906z M201.118,191.689c-16.148,3.734-72.477,3.331-86.86-0.714
				c-1.025-3.053-2.629-8.31-4.136-15.279h94.311C203.543,180.901,202.46,186.222,201.118,191.689z M206.961,154.238H106.872
				c-3.09-34.527,2.462-86.168,47.874-132.856C173.587,38.318,211.585,81.901,206.961,154.238z"/>
			<circle cx="157.487" cy="68.655" r="13.937"/>
			<path d="M157.949,223.942c-10.129,0-19.651,3.943-26.807,11.105c-7.162,7.162-11.105,16.679-11.105,26.813
				c0,10.129,3.943,19.645,11.035,26.738l19.13,19.485c2.012,2.049,4.758,3.203,7.634,3.213c0.005,0,0.016,0,0.021,0
				c2.865,0,5.606-1.143,7.618-3.176l19.275-19.452c7.162-7.162,11.105-16.679,11.105-26.807c0-10.129-3.943-19.651-11.105-26.813
				C177.594,227.89,168.072,223.942,157.949,223.942z M169.553,273.527l-11.657,11.759l-11.582-11.792
				c-3.106-3.112-4.817-7.242-4.817-11.636s1.711-8.524,4.823-11.636c3.106-3.106,7.237-4.823,11.636-4.823
				c4.394,0,8.524,1.711,11.636,4.823c3.106,3.106,4.817,7.237,4.817,11.631C174.402,266.253,172.691,270.384,169.553,273.527z"/>
		</g>
	</g>
</g>
<g>
</g>
<g>
</g>
<g>
</g>
<g>
</g>
<g>
</g>
<g>
</g>
<g>
</g>
<g>
</g>
<g>
</g>
<g>
</g>
<g>
</g>
<g>
</g>
<g>
</g>
<g>
</g>
<g>
</g>
</svg>
