<?xml version="1.0" encoding="iso-8859-1"?>
<!-- Generator: Adobe Illustrator 19.0.0, SVG Export Plug-In . SVG Version: 6.00 Build 0)  -->
<svg version="1.1" id="Layer_1" xmlns="http://www.w3.org/2000/svg" xmlns:xlink="http://www.w3.org/1999/xlink" x="0px" y="0px"
	 viewBox="0 0 512 512" style="enable-background:new 0 0 512 512;" xml:space="preserve">
<g>
	<g>
		<path d="M422.758,0h-334.1c-5.766,0-10.149,5.084-10.149,10.85v323.722C78.509,432.406,158.132,512,256,512
			s177.491-79.594,177.491-177.428V10.85C433.491,5.084,428.524,0,422.758,0z M412.609,334.572
			c0,86.32-70.255,156.547-156.609,156.547S99.391,420.892,99.391,334.572V20.881h313.219V334.572z"/>
	</g>
</g>
<g>
	<g>
		<path d="M349.674,63.053c-17.271,0-31.322,14.051-31.322,31.322s14.051,31.322,31.322,31.322s31.322-14.051,31.322-31.322
			S366.945,63.053,349.674,63.053z M349.674,104.815c-5.757,0-10.441-4.684-10.441-10.441c0-5.757,4.684-10.441,10.441-10.441
			c5.757,0,10.441,4.684,10.441,10.441C360.115,100.132,355.431,104.815,349.674,104.815z"/>
	</g>
</g>
<g>
	<g>
		<path d="M255.708,63.053c-17.271,0-31.322,14.051-31.322,31.322s14.051,31.322,31.322,31.322s31.322-14.051,31.322-31.322
			S272.979,63.053,255.708,63.053z M255.708,104.815c-5.757,0-10.441-4.684-10.441-10.441c0-5.757,4.684-10.441,10.441-10.441
			c5.757,0,10.441,4.684,10.441,10.441C266.149,100.132,261.465,104.815,255.708,104.815z"/>
	</g>
</g>
<g>
	<g>
		<path d="M161.742,63.053c-17.271,0-31.322,14.051-31.322,31.322s14.051,31.322,31.322,31.322s31.322-14.051,31.322-31.322
			S179.013,63.053,161.742,63.053z M161.742,104.815c-5.757,0-10.441-4.684-10.441-10.441c0-5.757,4.684-10.441,10.441-10.441
			c5.757,0,10.441,4.684,10.441,10.441C172.183,100.132,167.499,104.815,161.742,104.815z"/>
	</g>
</g>
<g>
</g>
<g>
</g>
<g>
</g>
<g>
</g>
<g>
</g>
<g>
</g>
<g>
</g>
<g>
</g>
<g>
</g>
<g>
</g>
<g>
</g>
<g>
</g>
<g>
</g>
<g>
</g>
<g>
</g>
</svg>
