<?xml version="1.0" encoding="iso-8859-1"?>
<!-- Generator: Adobe Illustrator 19.0.0, SVG Export Plug-In . SVG Version: 6.00 Build 0)  -->
<svg version="1.1" id="Layer_1" xmlns="http://www.w3.org/2000/svg" xmlns:xlink="http://www.w3.org/1999/xlink" x="0px" y="0px"
	 viewBox="0 0 512 512" style="enable-background:new 0 0 512 512;" xml:space="preserve">
<g>
	<g>
		<circle cx="164.013" cy="200.742" r="10.822"/>
	</g>
</g>
<g>
	<g>
		<circle cx="272.23" cy="200.742" r="10.822"/>
	</g>
</g>
<g>
	<g>
		<path d="M174.837,157.456h-21.643c-5.977,0-10.822,4.845-10.822,10.822c0,5.977,4.845,10.822,10.822,10.822h21.643
			c5.977,0,10.822-4.845,10.822-10.822C185.659,162.3,180.814,157.456,174.837,157.456z"/>
	</g>
</g>
<g>
	<g>
		<path d="M283.054,157.456h-21.643c-5.977,0-10.822,4.845-10.822,10.822c0,5.977,4.845,10.822,10.822,10.822h21.643
			c5.977,0,10.822-4.845,10.822-10.822C293.876,162.3,289.031,157.456,283.054,157.456z"/>
	</g>
</g>
<g>
	<g>
		<path d="M259.683,258.646c-3.878-2.243-8.845-0.919-11.09,2.962c-6.277,10.851-17.952,17.591-30.47,17.591
			c-12.517,0-24.193-6.741-30.47-17.591c-2.244-3.881-7.21-5.205-11.09-2.962c-3.88,2.244-5.206,7.209-2.962,11.09
			c9.17,15.851,26.23,25.696,44.523,25.696c18.293,0,35.352-9.847,44.52-25.696C264.889,265.856,263.563,260.891,259.683,258.646z"
			/>
	</g>
</g>
<g>
	<g>
		<path d="M218.124,211.564c-5.977,0-10.822,4.845-10.822,10.822v6.869c0,2.184,1.769,3.953,3.952,3.953h13.738
			c2.183,0,3.953-1.769,3.953-3.953v-6.869C228.946,216.409,224.101,211.564,218.124,211.564z"/>
	</g>
</g>
<g>
	<g>
		<circle cx="363.511" cy="377.655" r="6.587"/>
	</g>
</g>
<g>
	<g>
		<path d="M370.097,351.304h-13.174c-3.638,0-6.587,2.949-6.587,6.587s2.949,6.587,6.587,6.587h13.174
			c3.638,0,6.587-2.949,6.587-6.587S373.736,351.304,370.097,351.304z"/>
	</g>
</g>
<g>
	<g>
		<circle cx="429.383" cy="377.655" r="6.587"/>
	</g>
</g>
<g>
	<g>
		<path d="M435.969,351.304h-13.174c-3.638,0-6.587,2.95-6.587,6.587c0,3.638,2.949,6.587,6.587,6.587h13.174
			c3.638,0,6.587-2.949,6.587-6.587S439.607,351.304,435.969,351.304z"/>
	</g>
</g>
<g>
	<g>
		<path d="M419.442,260.219c-4.842-24.518-20.61-45.894-42.846-57.761c-0.396-0.211-0.706-0.552-0.872-0.958
			c-0.096-0.234-0.145-0.48-0.145-0.733v-41.867C375.58,71.525,305.146,0.242,218.57,0c-0.151,0-0.299,0-0.451,0
			c-41.912,0-81.364,16.33-111.127,46.011C77.12,75.799,60.668,115.379,60.668,157.456v42.003c0,0.426-0.067,0.846-0.218,1.308
			c-0.316,0.971-1.042,1.812-2.046,2.369c-27.234,15.132-43.776,43.879-43.171,75.021c0.421,21.665,9.167,42.109,24.628,57.568
			s35.907,24.203,57.571,24.62c0.541,0.011,1.077,0.016,1.617,0.016c30.095,0,57.873-16.217,72.764-42.091
			c1.885,0.821,3.794,1.595,5.729,2.318v26.881L125.38,376.45c-27.901,15.5-45.233,44.955-45.233,76.873v50.427
			c0,4.482,3.634,8.116,8.116,8.116h218.687c0.464,0.082,0.938,0.134,1.423,0.134h0.007l176.188-0.134
			c3.556-0.002,6.696-2.32,7.747-5.717c2.964-9.58,4.467-19.569,4.467-29.689V357.892
			C496.782,310.477,463.721,270.642,419.442,260.219z M118.023,211.564v-67.636h61.082c23.218,0,45.007-9.861,60.253-26.844
			c12.975,16.891,33.028,26.844,54.518,26.844h24.349v67.636c0,55.196-44.905,100.101-100.101,100.101
			C162.928,311.665,118.023,266.76,118.023,211.564z M296.437,349.805c-0.214,2.669-0.327,5.365-0.327,8.087v10.36l-37.405-20.781
			v-26.881c1.936-0.723,3.847-1.498,5.733-2.32C272.035,331.466,283.129,342.395,296.437,349.805z M112.741,495.633H96.379v-37.876
			h22.087C115.796,465.728,113.325,477.779,112.741,495.633z M128.99,495.632c1.039-29.193,7.518-39.11,8.437-40.369
			c2.569-2.257,3.191-5.675,1.908-8.902c-1.189-2.992-4.228-4.836-7.449-4.836H97.36c1.627-9.744,5.245-18.969,10.53-27.141
			c4.418,2.057,17.631,7.838,37.31,13.238c5.153,1.414,10.234-2.491,10.234-7.835v-0.018c0-3.649-2.443-6.852-5.961-7.822
			c-14.273-3.93-24.953-8.069-30.817-10.557c4.342-4.135,9.23-7.765,14.607-10.751l44.753-24.863c1.18,3.328,4.46,5.662,8.252,5.385
			c4.284-0.313,7.508-4.069,7.508-8.365v-37.471c7.855,1.68,16,2.571,24.349,2.571s16.493-0.892,24.349-2.571v37.471
			c0,4.296,3.224,8.052,7.508,8.365c3.792,0.277,7.071-2.057,8.252-5.385l37.879,21.044v25.882
			c-41.067,11.436-79.21,10.891-108.228,7.047c-4.85-0.643-9.146,3.155-9.146,8.048c0,4.074,3.015,7.515,7.055,8.049
			c11.857,1.569,25.138,2.616,39.474,2.616c21.634,0,45.673-2.387,70.846-8.947v46.944c0,6.469,0.62,12.884,1.838,19.173H128.99z
			 M299.352,332.565c-8.35-5.643-15.384-13.096-20.514-21.806c33.337-20.48,55.619-57.282,55.619-99.195v-75.752
			c0-4.482-3.633-8.116-8.116-8.116h-32.465c-17.608,0-33.953-8.747-43.721-23.399l-3.635-5.453
			c-1.505-2.257-4.039-3.614-6.753-3.614c-2.713,0-5.249,1.356-6.753,3.614c-12.045,18.067-32.198,28.852-53.909,28.852h-69.198
			c-4.482,0-8.116,3.634-8.116,8.116v75.752c0,41.91,22.28,78.71,55.613,99.191c-12.306,20.905-35.094,33.843-59.658,33.362
			c-35.852-0.692-65.587-30.422-66.283-66.274c-0.488-25.122,12.856-48.31,34.824-60.516c4.599-2.554,8.007-6.65,9.616-11.588
			c0.662-2.031,0.998-4.145,0.998-6.281v-42.002c0-37.733,14.758-73.229,41.553-99.951c26.699-26.625,62.079-41.272,99.667-41.272
			c0.134,0,0.271,0,0.405,0C296.174,16.449,359.347,80.45,359.347,158.9v41.867c0,2.371,0.456,4.686,1.355,6.882
			c1.596,3.9,4.528,7.142,8.253,9.13c16.21,8.651,28.137,23.565,33.172,40.941c-1.881-0.105-3.773-0.164-5.679-0.164
			C349.867,257.556,310.603,289.462,299.352,332.565z M480.55,476.461c0,6.496-0.737,12.923-2.195,19.178l-163.788,0.123
			c-1.477-6.293-2.224-12.762-2.224-19.302V357.892c0-46.375,37.728-84.103,84.103-84.103s84.104,37.729,84.104,84.103V476.461z"/>
	</g>
</g>
<g>
	<g>
		<path d="M396.446,283.905c-40.797,0-73.987,33.19-73.987,73.988v6.587v19.761c0,40.797,33.19,73.987,73.987,73.987
			c22.094,0,41.943-9.747,55.512-25.152c-6.924,24.136-29.18,41.855-55.512,41.855c-4.483,0-8.116,3.634-8.116,8.116
			c0,4.482,3.633,8.116,8.116,8.116c40.797,0,73.988-33.19,73.988-73.988V384.24v-6.587v-13.174v-6.587
			C470.434,317.095,437.243,283.905,396.446,283.905z M396.446,300.137c22.02,0,41.195,12.39,50.935,30.562l-14.88-5.184
			c-3.002-1.045-6.137-1.577-9.317-1.577h-54.088c-3.24,0-6.43,0.55-9.484,1.635l-14.027,4.984
			C355.347,312.462,374.482,300.137,396.446,300.137z M454.201,364.479v13.174v6.587c0,31.846-25.908,57.754-57.755,57.754
			c-31.846,0-57.754-25.908-57.754-57.754v-19.761v-6.587c0-2.664,0.197-5.283,0.548-7.852l25.806-9.17
			c1.303-0.463,2.665-0.698,4.048-0.698h54.088c1.358,0,2.696,0.226,3.977,0.673l26.498,9.231c0.349,2.558,0.544,5.164,0.544,7.816
			V364.479z"/>
	</g>
</g>
<g>
	<g>
		<path d="M417.937,407.962c-3.293-3.038-8.428-2.83-11.468,0.465c-7.721,8.373-18.574,1.046-20.094-0.056
			c-2.42-2.579-6.346-3.358-9.64-1.654c-3.983,2.056-5.545,6.952-3.489,10.934c2.262,4.381,12.228,9.579,20.509,10.697
			c1.418,0.192,2.81,0.286,4.178,0.286c7.86,0,14.872-3.136,20.468-9.204C421.441,416.136,421.233,411.001,417.937,407.962z"/>
	</g>
</g>
<g>
</g>
<g>
</g>
<g>
</g>
<g>
</g>
<g>
</g>
<g>
</g>
<g>
</g>
<g>
</g>
<g>
</g>
<g>
</g>
<g>
</g>
<g>
</g>
<g>
</g>
<g>
</g>
<g>
</g>
</svg>
