<?xml version="1.0" encoding="iso-8859-1"?>
<!-- Generator: Adobe Illustrator 19.0.0, SVG Export Plug-In . SVG Version: 6.00 Build 0)  -->
<svg version="1.1" id="Layer_1" xmlns="http://www.w3.org/2000/svg" xmlns:xlink="http://www.w3.org/1999/xlink" x="0px" y="0px"
	 viewBox="0 0 467.291 467.291" style="enable-background:new 0 0 467.291 467.291;" xml:space="preserve">
<path style="fill:#844719;" d="M458.138,391.372c0,13.06-13.202,26.128-26.246,26.128H35.415c-13.06,0-26.262-13.068-26.262-26.128
	V235.157c0-13.052,13.202-22.457,26.262-22.457h396.477c13.044,0,26.246,9.405,26.246,22.457V391.372z"/>
<path style="fill:#C16F33;" d="M115.231,108.709c10.429,17.172-3.938,44.969-32.106,62.078s-55.154,55.296-65.583,38.124
	S-3.403,91.797,24.765,74.688C52.941,57.603,104.802,91.537,115.231,108.709z"/>
<path style="fill:#DB602A;" d="M81.211,132.773c10.429,17.172,30.074,20.905,1.906,38.014s-55.154,55.296-65.583,38.124
	S-3.403,91.797,24.765,74.688C52.941,57.603,70.782,115.601,81.211,132.773z"/>
<path style="fill:#C4491E;" d="M24.765,74.688c28.168-17.093,46.017,40.905,56.446,58.077s30.074,20.905,1.906,38.014"/>
<path style="fill:#C16F33;" d="M350.736,108.709c-10.429,17.172,3.938,44.969,32.106,62.078s55.17,55.296,65.583,38.124
	c10.429-17.172,20.953-117.106-7.215-134.215C413.042,57.603,361.165,91.537,350.736,108.709z"/>
<path style="fill:#DB602A;" d="M384.772,132.773c-10.429,17.172-30.09,20.905-1.922,38.014s55.17,55.296,65.583,38.124
	c10.429-17.172,20.953-117.106-7.215-134.215C413.042,57.603,395.201,115.601,384.772,132.773z"/>
<path style="fill:#C4491E;" d="M441.218,74.688c-28.168-17.093-46.017,40.905-56.446,58.077s-30.09,20.905-1.922,38.014"/>
<path style="fill:#DD7F3E;" d="M465.983,250.69c0,94.767-104.322,121.368-232.999,121.368S0,345.457,0,250.69
	C0,155.907,104.306,79.076,232.984,79.076S465.983,155.907,465.983,250.69z"/>
<path style="fill:#C16F33;" d="M467.291,246.752c0,94.767-104.306,121.368-232.984,121.368S1.308,341.519,1.308,246.752
	c0-94.783,104.322-147.787,232.999-147.787S467.291,151.969,467.291,246.752z"/>
<path style="fill:#A3612B;" d="M465.983,250.69c0,94.767-104.322,121.368-232.999,121.368S0,345.457,0,250.69
	c0-94.783,104.306-43.26,232.984-43.26S465.983,155.907,465.983,250.69z"/>
<g>
	<circle style="fill:#082856;" cx="140.91" cy="193.157" r="20.921"/>
	<circle style="fill:#082856;" cx="325.096" cy="193.157" r="20.929"/>
</g>
<path d="M161.831,193.157c0,11.571-9.366,20.937-20.921,20.937c-11.571,0-20.921-9.366-20.921-20.937"/>
<path d="M346.002,193.157c0,11.571-9.366,20.937-20.921,20.937c-11.571,0-20.937-9.366-20.937-20.937"/>
<path style="fill:#1E0B07;" d="M84.031,298.724c0-60.581,66.694-77.588,148.953-77.588s148.968,16.998,148.968,77.588
	s-66.71,109.726-148.968,109.726S84.031,359.305,84.031,298.724z"/>
<path style="fill:#381911;" d="M84.031,298.724c0-60.581,66.694-77.588,148.953-77.588s148.968,16.998,148.968,77.588
	s-66.71,94.492-148.968,94.492S84.031,359.305,84.031,298.724z"/>
<path style="fill:#4C2619;" d="M84.031,298.724c0-60.581,66.694-77.588,148.953-77.588s148.968,16.998,148.968,77.588
	s-66.71,27.648-148.968,27.648S84.031,359.305,84.031,298.724z"/>
<g>
	<path style="fill:#C4491E;" d="M278.473,310.311c0-7.389,5.986-13.351,13.383-13.351c7.389,0,13.367,5.971,13.367,13.351
		c0,7.412-5.986,13.399-13.367,13.399C284.459,323.709,278.473,317.723,278.473,310.311z"/>
	<path style="fill:#C4491E;" d="M160.736,310.311c0-7.389,5.986-13.351,13.367-13.351c7.396,0,13.383,5.971,13.383,13.351
		c0,7.412-5.986,13.399-13.383,13.399C166.723,323.709,160.736,317.723,160.736,310.311z"/>
</g>
<g>
	<path style="fill:#B23610;" d="M278.473,310.311c0-7.389,5.986-13.351,13.383-13.351c7.389,0,13.367,5.971,13.367,13.351"/>
	<path style="fill:#B23610;" d="M160.736,310.311c0-7.389,5.986-13.351,13.367-13.351c7.396,0,13.383,5.971,13.383,13.351"/>
</g>
<path style="fill:#4C2619;" d="M167.999,61.203c0,0-47.262,22.646-22.646,60.062s141.509,1.15,122.092,29.538
	c-6.396,9.358-17.235,6.396-32.492-2.954c0,0,34.265,57.927,67.442,16.738c57.108-70.892,24.119-104.858-43.811-112.735
	S167.999,61.203,167.999,61.203z"/>
<g>
</g>
<g>
</g>
<g>
</g>
<g>
</g>
<g>
</g>
<g>
</g>
<g>
</g>
<g>
</g>
<g>
</g>
<g>
</g>
<g>
</g>
<g>
</g>
<g>
</g>
<g>
</g>
<g>
</g>
</svg>
