<?xml version="1.0" encoding="iso-8859-1"?>
<!-- Generator: Adobe Illustrator 18.0.0, SVG Export Plug-In . SVG Version: 6.00 Build 0)  -->
<!DOCTYPE svg PUBLIC "-//W3C//DTD SVG 1.1//EN" "http://www.w3.org/Graphics/SVG/1.1/DTD/svg11.dtd">
<svg version="1.1" id="Capa_1" xmlns="http://www.w3.org/2000/svg" xmlns:xlink="http://www.w3.org/1999/xlink" x="0px" y="0px"
	 viewBox="0 0 495.043 495.043" style="enable-background:new 0 0 495.043 495.043;" xml:space="preserve">
<g>
	<path d="M98.278,230.09c24.327,17.838,37.308,42.423,32.637,68.356c-0.26,1.443,0.243,2.919,1.33,3.903
		c0.792,0.717,1.812,1.1,2.853,1.1c0.388,0,0.78-0.054,1.163-0.162l37.155-10.58c1.411-0.402,2.515-1.503,2.92-2.912
		c0.405-1.41,0.056-2.93-0.926-4.02c-4.065-4.516-7.348-9.221-9.869-14.128c3.349,1.638,7.045,2.527,10.883,2.579
		c0.117,0.001,0.233,0.002,0.35,0.002c5.501,0,10.743-1.733,15.104-4.943l-39.411,149.699c-0.335,1.274-0.061,2.633,0.744,3.677
		c0.805,1.044,2.048,1.655,3.366,1.655h57.649c-0.032,0.208-0.064,0.416-0.064,0.633v40.983c0,16.052,13.06,29.111,29.113,29.111
		c16.052,0,29.111-13.06,29.111-29.111v-40.983c0-0.217-0.032-0.425-0.064-0.633h11.182c-0.031,0.208-0.064,0.416-0.064,0.633
		v40.983c0,16.052,13.06,29.111,29.112,29.111s29.113-13.06,29.113-29.111v-40.983c0-0.217-0.032-0.425-0.064-0.633h57.647
		c1.318,0,2.561-0.611,3.366-1.655c0.805-1.044,1.079-2.402,0.744-3.677l-38.405-145.909c3.556,1.899,7.536,2.939,11.684,2.994
		c0.117,0.001,0.233,0.002,0.35,0.002c6.699,0,13.017-2.566,17.826-7.249c10.1-9.835,10.315-26.054,0.48-36.154l-54.011-55.465
		h43.726c1.258,0,2.451-0.558,3.259-1.522c0.808-0.964,1.147-2.237,0.925-3.476L373.67,85.467
		c-3.657-23.666-17.345-44.453-40.428-60.763C309.643,8.03,284.687,1.724,282.885,1.283C280.594,0.66,276.348,0,273.597,0
		c-8.412,0-13.956,3.912-17.93,8.021c-2.621-0.904-5.348-1.369-8.143-1.369c-6.64,0-12.895,2.534-17.632,7.14
		c-1.523,1.299-14.537,12.627-26.171,30.077c-8.931,13.396-14.745,27.258-17.128,40.391l-17.415,87.869
		c-0.247,1.247,0.079,2.54,0.886,3.522c0.807,0.982,2.012,1.552,3.284,1.552h40.203l-51.724,50.326
		c1.573-10.258,6.006-17.339,6.006-17.339c1.77-2.844,3.972-6.383,2.211-9.824c-1.809-3.536-5.855-3.779-8.809-3.956
		c-0.499-0.03-1.144-0.068-1.684-0.126c-0.009-0.765,0.044-1.76,0.081-2.452c0.179-3.368,0.382-7.186-2.4-9.464
		c-3.226-2.639-7.131-0.746-9.716,0.507c-0.312,0.151-0.688,0.334-1.053,0.501c-0.25-0.63-0.506-1.356-0.695-1.89
		c-1.171-3.309-2.497-7.061-6.108-7.9c-4.055-0.942-6.597,2.561-8.452,5.117c-0.173,0.238-0.386,0.532-0.607,0.827
		c-0.316-0.334-0.63-0.677-0.879-0.949c-2.313-2.527-5.188-5.67-9.038-4.579c-3.844,1.096-4.633,5.285-5.268,8.651
		c-0.068,0.363-0.154,0.819-0.248,1.27c-0.343-0.135-0.679-0.272-0.953-0.384c-2.923-1.199-6.927-2.837-9.879,0.104
		c-2.627,2.615-1.778,6.504-1.029,9.936c0.121,0.553,0.285,1.303,0.404,1.97c-0.399,0.051-0.815,0.094-1.16,0.13
		c-2.857,0.297-7.173,0.745-8.526,4.687c-1.166,3.401,1.018,6.539,2.945,9.308c0.396,0.569,0.966,1.387,1.361,2.042
		c-0.429,0.333-0.957,0.705-1.365,0.993c-2.417,1.706-5.728,4.043-5.404,8.002C91.861,226.35,95.272,228.021,98.278,230.09z
		 M192.55,300.121c0.258,0.049,0.523,0.08,0.795,0.08h68.001c2.348,0,4.25-1.902,4.25-4.25c0-2.348-1.902-4.25-4.25-4.25h-66.579
		l6.293-23.902c0.06,0.002,0.116,0.018,0.177,0.018h109.496c2.348,0,4.25-1.902,4.25-4.25c0-2.348-1.902-4.25-4.25-4.25h-107.44
		l18.418-69.963c1.663-5.904,4.644-11.361,8.626-16.183c16.859,6.953,32.846,9.342,46.835,9.342c23.33,0,41.082-6.614,48.017-9.657
		l0.244,0.251c4.003,4.82,7.001,10.277,8.68,16.177l19.086,72.512c-0.673-1.46-2.14-2.478-3.853-2.478h-15
		c-2.348,0-4.25,1.902-4.25,4.25c0,2.348,1.902,4.25,4.25,4.25h15c2.348,0,4.25-1.902,4.25-4.25c0-0.145-0.028-0.281-0.043-0.423
		l35.923,136.48c-1.906-0.25-2.959-1.223-4.657-2.815c-2.346-2.194-5.557-5.201-11.572-5.201c-6.014,0-9.226,3.007-11.57,5.201
		c-1.984,1.86-3.078,2.884-5.698,2.884c-2.622,0-3.716-1.024-5.702-2.884c-2.344-2.195-5.557-5.201-11.57-5.201
		c-6.016,0-9.228,3.007-11.574,5.201c-1.986,1.859-3.08,2.884-5.701,2.884c-2.62,0-3.714-1.023-5.699-2.884
		c-2.345-2.194-5.557-5.201-11.572-5.202c-6.016,0-9.228,3.007-11.572,5.202c-1.986,1.859-3.08,2.883-5.702,2.883
		c-2.621,0-3.715-1.023-5.7-2.883c-2.345-2.194-5.558-5.202-11.573-5.202c-6.016,0-9.228,3.007-11.573,5.202
		c-1.986,1.859-3.081,2.883-5.703,2.883c-2.621,0-3.714-1.023-5.699-2.883c-2.345-2.194-5.557-5.202-11.572-5.202
		c-6.017,0-9.229,3.007-11.575,5.202c-1.987,1.859-3.081,2.883-5.703,2.883c-2.623,0-3.717-1.023-5.704-2.883
		c-2.346-2.195-5.558-5.202-11.574-5.202c-6.017,0-9.23,3.007-11.577,5.202c-1.987,1.859-3.082,2.883-5.705,2.883
		c-2.623,0-3.718-1.023-5.705-2.883c-2.002-1.873-4.64-4.33-9.106-5.014L192.55,300.121z M236.833,166.601
		c10.643-9.023,25.369-14.556,41.099-14.556c15.529,0,30.094,5.43,40.71,14.277C305.932,171.204,273.601,180.458,236.833,166.601z
		 M388.887,262.732c-3.266,3.181-7.576,4.928-12.133,4.838c-4.559-0.061-8.82-1.893-12-5.158l-3.568-3.666l-17.648-67.048
		l45.67,46.899C395.772,245.341,395.629,256.167,388.887,262.732z M235.49,20.188c0.085-0.071,0.168-0.146,0.247-0.225
		c3.151-3.103,7.337-4.811,11.787-4.811c2.571,0,5.061,0.588,7.402,1.748c1.789,0.885,3.891,0.386,5.124-1.073l0.009,0.008
		c4.402-5.21,8.325-7.335,13.538-7.335c1.73,0,5.31,0.502,7.093,0.995c0.044,0.012,0.09,0.024,0.135,0.035
		c0.248,0.06,25.055,6.185,47.704,22.251c21.345,15.142,33.651,33.607,36.806,55.113c0.011,0.084,0.005,0.166,0.02,0.25l0.076,0.425
		c0.976,7.104,0.964,14.534-0.052,22.286c-7.367-0.248-23.674-0.289-38.065,3.275c2.828-4.562,5.037-9.561,6.518-14.888
		c4.824,0.75,9.792,1.228,14.897,1.361c0.038,0.001,0.075,0.001,0.113,0.001c2.296,0,4.186-1.83,4.246-4.139
		c0.063-2.347-1.79-4.298-4.137-4.359c-44.688-1.172-79.497-31.036-91.85-43.187c6.171-1.319,12.939-2.052,19.913-2.052
		c21.049,0,40.242,6.633,46.676,16.13c0.791,1.167,2.108,1.866,3.519,1.866c1.41,0,2.728-0.699,3.519-1.866
		c2.347-3.464,3.536-7.127,3.536-10.888c0-17.243-25.146-30.75-57.249-30.75c-32.103,0-57.251,13.507-57.251,30.75
		c0,3.73,1.174,7.365,3.484,10.805c-2.341,5.938-3.34,12.466-3.341,20.766c0,11.043,3.103,21.373,8.48,30.17
		c-12.753-3.096-26.784-3.153-33.293-2.965C185.727,62.761,234.982,20.617,235.49,20.188z M228.406,82.682
		c0.001-11.676,1.989-18.559,7.588-26.258c3.171-2.276,7.162-4.265,11.736-5.885c7.64,8.194,36.644,36.74,77.728,46.102
		c-6.11,20.834-25.479,35.566-47.526,35.566C250.623,132.207,228.406,109.99,228.406,82.682z M228.281,51.688
		c-0.012-0.192-0.019-0.385-0.019-0.577c0-10.524,20.021-22.25,48.751-22.25c28.729,0,48.749,11.726,48.749,22.25
		c0,0.192-0.006,0.385-0.018,0.577c-10.152-8.856-28.261-14.319-48.731-14.319C256.543,37.369,238.434,42.832,228.281,51.688z
		 M227.195,163.98l-4.911,4.723h-43.766l2.274-11.502h26.553c2.347,0,4.25-1.902,4.25-4.25c0-2.348-1.903-4.25-4.25-4.25h-24.872
		l6.219-31.45c0.846,0.869,2.049,1.363,3.329,1.276c0.343-0.021,34.59-2.172,48.705,8.673c0.049,0.038,0.103,0.063,0.153,0.099
		c10.059,8.367,22.977,13.408,37.052,13.408c13.675,0,26.471-4.84,36.549-13.017c0.093-0.058,0.189-0.106,0.279-0.173
		c15.689-11.555,53.569-9.018,53.947-8.991c0.782,0.049,1.524-0.118,2.179-0.44l5.474,30.615h-23.013c-2.348,0-4.25,1.902-4.25,4.25
		c0,2.348,1.902,4.25,4.25,4.25h24.532l2.057,11.502H333.01l-1.846-1.896c-12.303-14.176-32.003-23.262-53.232-23.262
		C258.237,143.545,239.568,151.567,227.195,163.98z M113.757,226.949c-0.934,0.264-1.273,0.16-2.56-0.372
		c-1.182-0.49-2.8-1.162-4.958-1.162c-0.038,0-0.076,0.004-0.114,0.004c-1.177-1.109-2.614-1.987-3.963-2.798
		c-0.259-0.155-0.574-0.345-0.893-0.542c0.215-0.155,0.422-0.302,0.599-0.427c2.195-1.549,4.926-3.477,5.315-6.687
		c0.361-2.981-1.467-5.608-3.235-8.148c-0.142-0.204-0.306-0.44-0.476-0.688c2.757-0.287,6.172-0.655,7.939-3.529
		c1.572-2.555,0.875-5.747,0.201-8.834c-0.008-0.039-0.017-0.078-0.026-0.119c2.659,1.076,5.602,2.093,8.3,0.503
		c2.585-1.524,3.246-4.559,3.814-7.557c2.063,2.249,4.199,4.508,7.227,4.415c3.128-0.07,5.093-2.485,6.786-4.8
		c0.013,0.038,0.027,0.076,0.04,0.112c1.054,2.98,2.143,6.061,4.823,7.403c3.019,1.514,6.114,0.027,8.609-1.182
		c-0.014,0.302-0.029,0.59-0.042,0.838c-0.164,3.091-0.334,6.286,1.542,8.629c2.022,2.525,5.359,2.726,8.041,2.886
		c0.115,0.007,0.241,0.015,0.373,0.023c-0.173,0.282-0.34,0.552-0.483,0.781c-0.957,1.538-1.985,3.192-2.528,4.924
		c-1.936,1.148-3.006,2.61-3.779,3.685c-0.779,1.085-0.988,1.376-1.978,1.658c-0.945,0.27-1.29,0.163-2.587-0.368
		c-1.18-0.483-2.794-1.146-4.941-1.146c-1.048,0-2.094,0.153-3.197,0.468c-3.826,1.089-5.472,3.36-6.56,4.864
		c-0.793,1.096-1.007,1.39-2.002,1.673c-0.941,0.271-1.289,0.163-2.586-0.368c-1.18-0.484-2.795-1.146-4.944-1.146
		c-1.045,0-2.09,0.152-3.194,0.466c-3.826,1.09-5.471,3.363-6.559,4.866C114.964,226.372,114.75,226.666,113.757,226.949z
		 M140.2,293.327c2.156-22.307-5.682-41.9-23.363-58.441c3.294-1.157,4.791-3.227,5.806-4.627c0.794-1.098,1.007-1.392,2-1.675
		c0.944-0.267,1.291-0.162,2.586,0.369c1.18,0.483,2.796,1.146,4.944,1.146c1.046,0,2.092-0.153,3.195-0.467
		c3.827-1.089,5.472-3.36,6.561-4.864c0.793-1.096,1.007-1.391,2.003-1.674c0.946-0.27,1.292-0.163,2.587,0.368
		c1.179,0.483,2.794,1.145,4.941,1.145c0.802,0,1.604-0.09,2.431-0.273c-6.316,23.37-2.657,44.151,10.932,61.981L140.2,293.327z
		 M188.673,260.889c-3.266,3.182-7.542,4.916-12.133,4.838c-4.558-0.061-8.82-1.893-12-5.158c-6.564-6.741-6.42-17.567,0.319-24.132
		l47.952-46.655l-16.86,64.043L188.673,260.889z M263.888,424.949v40.983c0,11.365-9.246,20.611-20.611,20.611
		c-2.017,0-3.962-0.304-5.806-0.847v-39.745c0-2.348-1.903-4.25-4.25-4.25c-2.347,0-4.25,1.902-4.25,4.25v34.787
		c-3.881-3.75-6.307-8.996-6.307-14.807v-40.983c0-0.217-0.032-0.425-0.064-0.633h41.352
		C263.921,424.524,263.888,424.732,263.888,424.949z M333.169,424.949v40.983c0,7.217-3.735,13.568-9.367,17.251v-36.231
		c0-2.348-1.902-4.25-4.25-4.25c-2.348,0-4.25,1.902-4.25,4.25v39.387c-0.9,0.121-1.813,0.205-2.746,0.205
		c-11.365,0-20.612-9.246-20.612-20.611v-40.983c0-0.217-0.032-0.425-0.064-0.633h41.353
		C333.201,424.524,333.169,424.732,333.169,424.949z M162.092,415.816l4.108-15.605c2.432,0.068,3.532,1.075,5.449,2.869
		c2.347,2.196,5.559,5.202,11.576,5.202s9.229-3.006,11.576-5.202c1.987-1.858,3.082-2.883,5.705-2.883
		c2.622,0,3.716,1.024,5.703,2.883c2.346,2.196,5.559,5.202,11.575,5.202c6.016,0,9.229-3.006,11.574-5.202
		c1.987-1.858,3.081-2.883,5.704-2.883c2.62,0,3.714,1.023,5.699,2.883c2.345,2.195,5.557,5.202,11.572,5.202
		c6.017,0,9.229-3.007,11.574-5.202c1.986-1.859,3.08-2.883,5.702-2.883c2.621,0,3.715,1.024,5.701,2.883
		c2.345,2.196,5.557,5.202,11.572,5.202c6.015,0,9.229-3.007,11.574-5.202c1.985-1.859,3.079-2.883,5.699-2.883
		c2.621,0,3.715,1.023,5.7,2.883c2.345,2.195,5.557,5.202,11.571,5.202c6.016,0,9.229-3.007,11.573-5.202
		c1.986-1.858,3.08-2.883,5.702-2.883c2.62,0,3.714,1.023,5.698,2.882c2.346,2.196,5.558,5.203,11.574,5.203
		c6.016,0,9.227-3.007,11.572-5.203c1.985-1.858,3.078-2.882,5.697-2.882c2.619,0,3.713,1.023,5.698,2.883
		c2.346,2.195,5.557,5.202,11.572,5.202c0.415,0,0.81-0.077,1.189-0.188l2.032,7.722H162.092z"/>
	<path d="M181.314,384.533h10c2.347,0,4.25-1.902,4.25-4.25c0-2.348-1.903-4.25-4.25-4.25h-10c-2.347,0-4.25,1.902-4.25,4.25
		C177.064,382.631,178.967,384.533,181.314,384.533z"/>
	<path d="M217.26,384.533h10c2.347,0,4.25-1.902,4.25-4.25c0-2.348-1.903-4.25-4.25-4.25h-10c-2.347,0-4.25,1.902-4.25,4.25
		C213.01,382.631,214.913,384.533,217.26,384.533z"/>
	<path d="M253.208,384.533h10c2.348,0,4.25-1.902,4.25-4.25c0-2.348-1.902-4.25-4.25-4.25h-10c-2.348,0-4.25,1.902-4.25,4.25
		C248.958,382.631,250.86,384.533,253.208,384.533z"/>
	<path d="M289.154,384.533h10c2.348,0,4.25-1.902,4.25-4.25c0-2.348-1.902-4.25-4.25-4.25h-10c-2.348,0-4.25,1.902-4.25,4.25
		C284.904,382.631,286.806,384.533,289.154,384.533z"/>
	<path d="M325.102,384.533h10c2.348,0,4.25-1.902,4.25-4.25c0-2.348-1.902-4.25-4.25-4.25h-10c-2.348,0-4.25,1.902-4.25,4.25
		C320.852,382.631,322.755,384.533,325.102,384.533z"/>
	<path d="M361.048,384.533h10c2.348,0,4.25-1.902,4.25-4.25c0-2.348-1.902-4.25-4.25-4.25h-10c-2.348,0-4.25,1.902-4.25,4.25
		C356.798,382.631,358.7,384.533,361.048,384.533z"/>
</g>
<g>
</g>
<g>
</g>
<g>
</g>
<g>
</g>
<g>
</g>
<g>
</g>
<g>
</g>
<g>
</g>
<g>
</g>
<g>
</g>
<g>
</g>
<g>
</g>
<g>
</g>
<g>
</g>
<g>
</g>
</svg>
