<?xml version="1.0" encoding="iso-8859-1"?>
<!-- Generator: Adobe Illustrator 19.0.0, SVG Export Plug-In . SVG Version: 6.00 Build 0)  -->
<svg version="1.1" id="Layer_1" xmlns="http://www.w3.org/2000/svg" xmlns:xlink="http://www.w3.org/1999/xlink" x="0px" y="0px"
	 viewBox="0 0 512 512" style="enable-background:new 0 0 512 512;" xml:space="preserve">
<g>
	<g>
		<rect x="0.266" y="496.327" width="510.955" height="15.673"/>
	</g>
</g>
<g>
	<g>
		<polygon points="144.27,120.185 144.27,487.651 159.944,487.651 159.944,135.858 352.055,135.858 352.055,487.651 
			367.729,487.651 367.729,120.185 		"/>
	</g>
</g>
<g>
	<g>
		<rect x="247.902" y="208.98" width="15.673" height="15.673"/>
	</g>
</g>
<g>
	<g>
		<polygon points="199.842,328.098 199.842,343.771 232.234,343.771 232.234,351.086 247.907,351.086 247.907,328.098 		"/>
	</g>
</g>
<g>
	<g>
		<polygon points="216.56,319.739 216.56,304.065 175.809,304.065 175.809,391.837 216.56,391.75 216.56,351.086 199.842,351.086 
			199.842,376.163 191.483,376.163 191.483,319.739 		"/>
	</g>
</g>
<g>
	<g>
		<rect x="375.38" y="359.445" width="135.837" height="15.673"/>
	</g>
</g>
<g>
	<g>
		<rect x="375.38" y="384.522" width="135.837" height="15.673"/>
	</g>
</g>
<g>
	<g>
		<rect x="0.266" y="359.445" width="135.837" height="15.673"/>
	</g>
</g>
<g>
	<g>
		<rect x="0.266" y="384.522" width="135.837" height="15.673"/>
	</g>
</g>
<g>
	<g>
		<polygon points="511.737,287.702 511.737,272.029 423.982,272.029 423.982,319.669 511.737,319.669 511.737,303.995 
			439.655,303.995 439.655,287.702 		"/>
	</g>
</g>
<g>
	<g>
		<polygon points="511.222,15.673 511.222,0 440.169,0 440.169,263.314 455.842,263.314 455.842,152.555 511.222,152.555 
			511.222,136.882 455.842,136.882 455.842,127.478 511.222,127.478 511.222,111.804 455.842,111.804 455.842,15.673 		"/>
	</g>
</g>
<g>
	<g>
		<polygon points="0.263,272.029 0.263,287.702 72.345,287.702 72.345,303.995 0.263,303.995 0.263,319.669 88.018,319.669 
			88.018,272.029 		"/>
	</g>
</g>
<g>
	<g>
		<polygon points="0.266,0 0.266,15.673 56.691,15.673 56.691,191.216 0.266,191.216 0.266,206.89 56.691,206.89 56.691,216.294 
			0.266,216.294 0.266,231.967 56.691,231.967 56.691,263.314 72.364,263.314 72.364,0 		"/>
	</g>
</g>
<g>
	<g>
		<path d="M255.999,16.291c-21.948,0-39.803,17.856-39.803,39.804c0.001,21.948,17.856,39.803,39.803,39.803
			c21.948,0,39.804-17.855,39.804-39.803C295.803,34.147,277.947,16.291,255.999,16.291z M255.999,80.226
			c-13.305,0-24.13-10.824-24.13-24.13c0.001-13.307,10.825-24.131,24.13-24.131c13.306,0,24.131,10.824,24.131,24.131
			C280.13,69.401,269.306,80.226,255.999,80.226z"/>
	</g>
</g>
<g>
	<g>
		<rect x="247.902" y="40.751" width="15.673" height="31.347"/>
	</g>
</g>
<g>
	<g>
		<rect x="400.457" y="463.935" width="15.673" height="15.673"/>
	</g>
</g>
<g>
	<g>
		<rect x="423.445" y="463.935" width="16.718" height="15.673"/>
	</g>
</g>
<g>
	<g>
		<rect x="447.478" y="463.935" width="15.673" height="15.673"/>
	</g>
</g>
<g>
</g>
<g>
</g>
<g>
</g>
<g>
</g>
<g>
</g>
<g>
</g>
<g>
</g>
<g>
</g>
<g>
</g>
<g>
</g>
<g>
</g>
<g>
</g>
<g>
</g>
<g>
</g>
<g>
</g>
</svg>
