<?xml version="1.0" encoding="iso-8859-1"?>
<!-- Generator: Adobe Illustrator 19.0.0, SVG Export Plug-In . SVG Version: 6.00 Build 0)  -->
<svg version="1.1" id="Layer_1" xmlns="http://www.w3.org/2000/svg" xmlns:xlink="http://www.w3.org/1999/xlink" x="0px" y="0px"
	 viewBox="0 0 508 508" style="enable-background:new 0 0 508 508;" xml:space="preserve">
<path style="fill:#F4EFEF;" d="M482.4,116c0,1.2-0.8,2-2,2H6v324h496V102.8c0-18.4-15.2-36.8-33.6-36.8H39.6C21.2,66,6,84,6,102.8
	V114h474.4C481.2,114,482.4,114.8,482.4,116z"/>
<g>
	<circle style="fill:#33A5D2;" cx="254" cy="280.8" r="108.8"/>
	<path style="fill:#33A5D2;" d="M482.4,116c0,1.2-0.8,2-2,2H502v-15.2c0-18.4-15.2-36.8-33.6-36.8H39.6C21.2,66,6,84,6,102.8V114
		h474.4C481.2,114,482.4,114.8,482.4,116z"/>
</g>
<path d="M504,448H4c-2.4,0-4-1.6-4-4V102.8C0,80,18.4,60,39.6,60h428.8c21.2,0,39.6,20,39.6,42.8V444C508,446.4,506.4,448,504,448z
	 M8,440h492V102.8c0-18-15.2-34.8-31.6-34.8H39.6C23.2,68,8,84.4,8,102.8V440z"/>
<path d="M486,120H6c-2.4,0-4-1.6-4-4s1.6-4,4-4h480c2.4,0,4,1.6,4,4S488.4,120,486,120z"/>
<path d="M36,97.6c-1.2,0-2-0.4-2.8-1.2c-0.8-0.8-1.2-2-1.2-2.8c0-1.2,0.4-2,1.2-2.8c1.6-1.6,4-1.6,5.6,0c0.8,0.8,1.2,1.6,1.2,2.8
	c0,1.2-0.4,2-1.2,2.8C38,97.2,37.2,97.6,36,97.6z"/>
<path d="M56,97.6c-1.2,0-2-0.4-2.8-1.2c-0.8-0.8-1.2-2-1.2-2.8c0-1.2,0.4-2,1.2-2.8c1.6-1.6,4-1.6,5.6,0c0.8,0.8,1.2,1.6,1.2,2.8
	c0,1.2-0.4,2-1.2,2.8C58,97.2,57.2,97.6,56,97.6z"/>
<path d="M76,97.6c-1.2,0-2-0.4-2.8-1.2c-0.8-0.8-1.2-2-1.2-2.8c0-1.2,0.4-2,1.2-2.8c1.6-1.6,4-1.6,5.6,0c0.8,0.8,1.2,1.6,1.2,2.8
	c0,1.2-0.4,2-1.2,2.8C78,97.2,77.2,97.6,76,97.6z"/>
<path d="M254,396c-63.2,0-114.8-51.6-114.8-114.8c0-63.2,51.6-114.8,114.8-114.8c22,0,43.6,6.4,62,18.4c2,1.2,2.4,3.6,1.2,5.6
	s-3.6,2.4-5.6,1.2c-17.2-11.2-37.2-16.8-57.6-16.8c-58.8,0-106.8,48-106.8,106.8s48,106.8,106.8,106.8s106.8-48,106.8-106.8
	c0-23.2-7.2-45.2-21.2-63.6c-1.2-1.6-0.8-4.4,0.8-5.6s4.4-0.8,5.6,0.8c14.8,20,22.8,43.6,22.8,68.4C369.2,344.4,317.6,396,254,396z"
	/>
<path d="M310,284H198c-2.4,0-4-1.6-4-4s1.6-4,4-4h112c2.4,0,4,1.6,4,4S312.4,284,310,284z"/>
<path d="M254,338.4c-2.4,0-4-1.6-4-4v-108c0-2.4,1.6-4,4-4s4,1.6,4,4v108C258,336.8,256.4,338.4,254,338.4z"/>
<g>
</g>
<g>
</g>
<g>
</g>
<g>
</g>
<g>
</g>
<g>
</g>
<g>
</g>
<g>
</g>
<g>
</g>
<g>
</g>
<g>
</g>
<g>
</g>
<g>
</g>
<g>
</g>
<g>
</g>
</svg>
