<?xml version="1.0" encoding="iso-8859-1"?>
<!-- Generator: Adobe Illustrator 19.0.0, SVG Export Plug-In . SVG Version: 6.00 Build 0)  -->
<svg version="1.1" id="Layer_1" xmlns="http://www.w3.org/2000/svg" xmlns:xlink="http://www.w3.org/1999/xlink" x="0px" y="0px"
	 viewBox="0 0 508 508" style="enable-background:new 0 0 508 508;" xml:space="preserve">
<path style="fill:#F4EFEF;" d="M482.4,116c0,1.2-0.8,2-2,2H6v324h496V102.8c0-18.4-15.2-36.8-33.6-36.8H39.6C21.2,66,6,84,6,102.8
	V114h474.4C481.2,114,482.4,114.8,482.4,116z"/>
<g>
	<path style="fill:#FFC52F;" d="M482.4,116c0,1.2-0.8,2-2,2H502v-15.2c0-18.4-15.2-36.8-33.6-36.8H39.6C21.2,66,6,84,6,102.8V114
		h474.4C481.2,114,482.4,114.8,482.4,116z"/>
	<path style="fill:#FFC52F;" d="M370.8,252c-1.6-5.2-7.6-8.8-16.8-10l-57.2-8c-0.8,0-1.2-0.4-1.6-1.2l-25.6-51.6
		c-4-8-9.2-12.8-14.8-12.8s-10.8,4.4-14.8,12.8l-25.6,52c-0.4,0.4-0.8,0.8-1.6,1.2l-57.2,8.4c-8.8,1.2-14.8,4.8-16.4,10
		c-1.6,5.2,0.8,11.2,7.2,17.6l0,0c0.4,0,0.4,0.4,0.8,0.8l41.2,40c0.4,0.4,0.8,1.2,0.4,1.6l-9.6,57.2c-1.2,7.6-0.4,13.6,2.8,17.2
		c4,4.8,12,4.8,21.2,0l51.2-27.2c0.4-0.4,1.2-0.4,2,0l51.2,26.8c9.2,4.8,16.8,4.8,21.2,0c3.2-3.6,4-9.6,2.8-17.2l-10-56.8
		c0-0.8,0-1.2,0.4-1.6l41.2-40.4C369.6,263.2,372.4,257.2,370.8,252z"/>
</g>
<path d="M504,448H4c-2.4,0-4-1.6-4-4V102.8C0,80,18.4,60,39.6,60h428.8c21.2,0,39.6,20,39.6,42.8V444C508,446.4,506.4,448,504,448z
	 M8,440h492V102.8c0-18-15.2-34.8-31.6-34.8H39.6C23.2,68,8,84.4,8,102.8V440z"/>
<path d="M482,120H6c-2.4,0-4-1.6-4-4s1.6-4,4-4h476c2.4,0,4,1.6,4,4S484.4,120,482,120z"/>
<path d="M35.6,98.8c-1.2,0-2-0.4-2.8-1.2c-0.8-0.8-1.2-1.6-1.2-2.8c0-1.2,0.4-2,1.2-2.8c1.6-1.6,4-1.6,5.6,0c0.8,0.8,1.2,2,1.2,2.8
	c0,1.2-0.4,2-1.2,2.8C38,98.4,36.8,98.8,35.6,98.8z"/>
<path d="M55.6,98.8c-1.2,0-2-0.4-2.8-1.2c-0.8-0.8-1.2-1.6-1.2-2.8c0-1.2,0.4-2,1.2-2.8c1.6-1.6,4.4-1.6,5.6,0
	c0.8,0.8,1.2,2,1.2,2.8c0,1.2-0.4,2-1.2,2.8C57.6,98.4,56.8,98.8,55.6,98.8z"/>
<path d="M75.6,98.8c-1.2,0-2-0.4-2.8-1.2c-0.8-0.8-1.2-1.6-1.2-2.8c0-1.2,0.4-2,1.2-2.8c1.6-1.6,4-1.6,5.6,0c0.8,0.8,1.2,2,1.2,2.8
	c0,1.2-0.4,2-1.2,2.8C77.6,98.4,76.4,98.8,75.6,98.8z"/>
<path d="M190.8,396.4c-4,0-7.6-1.2-10.4-3.2c-6.4-4.4-8.8-13.2-6.8-24.8l9.2-54.8l-40-38.8l0,0c0,0,0,0-0.4-0.4l-1.2-1.2l-0.4-0.4
	c-6.8-7.6-9.6-15.2-7.2-22c2.4-7.6,10-12.4,21.2-14l42.8-6.4l0,0l12-2l24.4-50c5.2-10.4,12-16,20-16l0,0c8,0,14.8,5.6,20,16l24.8,50
	l55.2,8c11.2,1.6,19.2,6.8,21.6,14c2.4,7.6-0.8,16-8.8,24l-40,39.2l9.6,54.8c2,11.2-0.4,20-6.8,24.8c-6.4,4.8-15.6,4.4-25.6-1.2
	l-49.6-25.6l-49.2,26C200.4,394.8,195.2,396.4,190.8,396.4z M148,268.4l42,40.8c0.8,0.8,1.2,2.4,1.2,3.6l-9.6,57.2
	c-1.2,8,0,14.4,3.6,16.8c3.6,2.8,10,2,17.2-2l51.2-27.2c1.2-0.8,2.4-0.8,3.6,0l51.2,26.8c7.2,3.6,13.6,4.4,17.2,1.6
	c3.6-2.8,4.8-8.8,3.6-16.8l-10-56.8c-0.4-1.2,0-2.8,1.2-3.6l41.2-40.4c6-5.6,8.4-11.6,6.8-16c-1.6-4.4-6.8-7.6-14.8-8.8l-57.2-8
	c-1.2,0-2.4-1.2-3.2-2L267.6,182c-3.6-7.2-8.4-11.6-12.8-11.6l0,0c-4.4,0-9.2,4.4-12.8,11.6l-25.6,52c-0.4,1.2-1.6,2-3.2,2
	l-57.2,8.4c-8,1.2-13.6,4.4-14.8,8.8C140,257.2,142.4,262.8,148,268.4z"/>
<g>
</g>
<g>
</g>
<g>
</g>
<g>
</g>
<g>
</g>
<g>
</g>
<g>
</g>
<g>
</g>
<g>
</g>
<g>
</g>
<g>
</g>
<g>
</g>
<g>
</g>
<g>
</g>
<g>
</g>
</svg>
