<?xml version="1.0" encoding="iso-8859-1"?>
<!-- Generator: Adobe Illustrator 19.0.0, SVG Export Plug-In . SVG Version: 6.00 Build 0)  -->
<svg version="1.1" id="Layer_1" xmlns="http://www.w3.org/2000/svg" xmlns:xlink="http://www.w3.org/1999/xlink" x="0px" y="0px"
	 viewBox="0 0 508 508" style="enable-background:new 0 0 508 508;" xml:space="preserve">
<path style="fill:#F4EFEF;" d="M482.4,116c0,1.2-0.8,2-2,2H6v324h496V102.4C502,84,486.8,66,468.4,66H39.6C21.2,66,6,84,6,102.4V114
	h474.4C481.2,114,482.4,114.8,482.4,116z M360,310c-11.6,49.6-55.2,84-106,84l0,0c-8.4,0-16.4-0.4-24.8-2.4
	c-28.4-6.4-52.4-23.6-67.6-48.4c-15.2-24.8-20.4-54-13.6-82c1.6-6.4,7.2-10.8,13.6-10.8c1.2,0,2,0,3.2,0.4c7.6,1.6,12,9.2,10.4,16.8
	c-4.8,21.2-1.2,42.8,10,61.2c11.6,18.4,29.2,31.2,50.4,36c6,1.6,12.4,2,18.4,2c38,0,70.4-25.6,78.8-62.8c7.6-32.4-6-66.8-33.6-85.6
	l4.4,11.6c2.8,7.2-0.8,15.2-8,18c-2.4,0.8-5.2,1.2-8,0.4c-4.4-1.2-8.4-4.4-10-8.8L262,198c-1.2-3.6-1.2-7.6,0.8-11.2
	c0,0,0-0.4,0.4-0.4c0.4-0.8,0.8-1.2,0.8-1.6c2-3.2,5.6-5.2,9.2-6l38.4-14.4c1.6-0.4,3.2-0.8,4.8-0.8c5.6,0,10.8,3.6,13.2,9.2
	c2.8,7.2-0.8,15.2-8,18l-8.4,3.2C351.6,219.2,370.4,265.2,360,310z"/>
<g>
	<path style="fill:#EF934A;" d="M307.6,195.6c-0.8-0.4-1.2-1.2-0.8-2c0-0.8,0.4-1.6,1.2-1.6l12.4-4.8c5.2-2,7.6-7.6,6-12.8
		c-2-4.8-7.6-7.6-12.8-6l-38.8,14.4c-3.2,0.4-5.6,2-7.2,4.4c-0.4,0.4-0.4,0.8-0.8,1.2l-0.4,0.4c-1.2,2.4-1.6,5.2-0.4,8l15.6,41.6
		c1.2,3.2,4,5.6,7.2,6c2,0.4,4,0.4,5.6-0.4c5.2-2,7.6-7.6,6-12.8l-6.4-16.8c-0.4-0.8,0-1.6,0.4-2.4c0.8-0.4,1.6-0.8,2.4-0.4
		c32,18.4,48.8,56.8,40.4,92.8c-9.2,38.8-43.2,66-82.8,66c-6.4,0-12.8-0.8-19.2-2.4c-22-5.2-40.8-18.4-52.8-38
		c-12-19.2-16-42-10.8-64.4c1.2-5.2-2-10.8-7.6-12c-0.8,0-1.6-0.4-2.4-0.4c-4.8,0-8.8,3.2-9.6,7.6c-6.4,27.2-1.6,55.2,13.2,79.2
		s38,40,65.2,46.4c8,2,15.6,2.4,23.6,2.4l0,0c49.2,0,91.2-32.8,102-80.8C366.8,264.4,347.2,219.2,307.6,195.6z"/>
	<path style="fill:#EF934A;" d="M482.4,116c0,1.2-0.8,2-2,2H502v-15.6C502,84,486.8,66,468.4,66H39.6C21.2,66,6,83.6,6,102.4V114
		h474.4C481.2,114,482.4,114.8,482.4,116z"/>
</g>
<path d="M504,448H4c-2.4,0-4-1.6-4-4V102.4C0,80,18.4,60,39.6,60h428.8c21.2,0,39.6,19.6,39.6,42.4V444C508,446.4,506.4,448,504,448
	z M8,440h492V102.4C500,84,485.2,68,468.4,68H39.6C23.2,68,8,84.4,8,102.4V440z"/>
<path d="M482,120H6c-2.4,0-4-1.6-4-4s1.6-4,4-4h476c2.4,0,4,1.6,4,4S484.4,120,482,120z"/>
<path d="M35.6,98.4c-1.2,0-2-0.4-2.8-1.2c-0.8-0.8-1.2-1.6-1.2-2.8c0-1.2,0.4-2,1.2-2.8c1.6-1.6,4-1.6,5.6,0
	c0.8,0.8,1.2,1.6,1.2,2.8c0,1.2-0.4,2-1.2,2.8C38,98,36.8,98.4,35.6,98.4z"/>
<path d="M55.6,98.4c-1.2,0-2-0.4-2.8-1.2c-0.8-0.8-1.2-1.6-1.2-2.8s0.4-2,1.2-2.8c1.6-1.6,4-1.6,5.6,0c0.8,0.8,1.2,1.6,1.2,2.8
	c0,1.2-0.4,2-1.2,2.8C57.6,98,56.8,98.4,55.6,98.4z"/>
<path d="M75.6,98.4c-1.2,0-2-0.4-2.8-1.2c-0.8-0.8-1.2-2-1.2-2.8c0-1.2,0.4-2,1.2-2.8c1.6-1.6,4.4-1.6,5.6,0
	c0.8,0.8,1.2,1.6,1.2,2.8c0,1.2-0.4,2-1.2,2.8C77.6,98,76.4,98.4,75.6,98.4z"/>
<path d="M254,396.8c-8.4,0-16.8-0.8-25.2-2.8c-59.6-14-96.8-73.6-82.8-133.2c2-8.4,10.4-14,19.2-12c8.4,2,14,10.4,12,19.2
	c-10,42.4,16.8,85.2,59.2,94.8c42.4,10,85.2-16.8,94.8-59.2c6.8-29.6-4.4-60.4-27.2-79.2l2,5.2c1.6,4,1.2,8.4-0.4,12
	s-4.8,6.8-8.8,8.4c-2.8,1.2-6,1.2-9.2,0.4c-5.2-1.2-9.6-4.8-11.2-10l-15.6-41.6c-1.6-4-1.2-8.8,0.8-12.8c0,0,0-0.4,0.4-0.4
	c0.4-0.8,0.8-1.2,1.2-1.6c2.4-3.6,6-6,10-6.8l38.8-14.4c8.4-3.2,17.2,1.2,20.4,9.2c1.6,4,1.2,8.4-0.4,12c-1.6,4-4.8,6.8-8.8,8.4
	l-4.8,2c37.2,26,54.8,71.6,44.4,116c-6.8,28.8-24.4,53.2-49.6,68.8C294.8,391.2,274.8,396.8,254,396.8z M161.6,256.4
	c-3.6,0-6.8,2.4-7.6,6c-12.8,55.2,21.6,110.8,76.8,123.6c26.8,6.4,54.4,1.6,77.6-12.8c23.2-14.4,39.6-37.2,46-64
	c10-44-8.8-88.8-47.6-111.6c-1.2-0.8-2-2.4-2-3.6c0-1.6,1.2-2.8,2.4-3.2l12.4-4.8c2-0.8,3.6-2.4,4.4-4s0.8-4,0.4-6
	c-1.6-4-6-6-10-4.8l-38.8,14.4c-0.4,0-0.4,0-0.8,0.4c-2,0.4-4,1.6-5.2,3.6c-0.4,0.4-0.4,0.4-0.4,0.8l-0.4,0.4c-0.8,2-1.2,4-0.4,6
	l15.6,41.6c0.8,2.4,3.2,4.4,5.6,4.8c1.6,0.4,3.2,0.4,4.4-0.4c2-0.8,3.6-2.4,4.4-4c0.8-2,0.8-4,0.4-6l-6.4-16.8
	c-0.4-1.6,0-3.2,1.2-4.4c1.2-1.2,3.2-1.2,4.4-0.4c32.8,19.2,50,58,41.2,95.2c-10.8,46.8-57.6,76-104.4,65.2
	c-46.8-10.8-76-57.6-65.2-104.4c0.8-4.4-1.6-8.4-6-9.6C162.8,256.4,162,256.4,161.6,256.4z"/>
<g>
</g>
<g>
</g>
<g>
</g>
<g>
</g>
<g>
</g>
<g>
</g>
<g>
</g>
<g>
</g>
<g>
</g>
<g>
</g>
<g>
</g>
<g>
</g>
<g>
</g>
<g>
</g>
<g>
</g>
</svg>
