<?xml version="1.0" encoding="iso-8859-1"?>
<!-- Generator: Adobe Illustrator 19.0.0, SVG Export Plug-In . SVG Version: 6.00 Build 0)  -->
<svg version="1.1" id="Layer_1" xmlns="http://www.w3.org/2000/svg" xmlns:xlink="http://www.w3.org/1999/xlink" x="0px" y="0px"
	 viewBox="0 0 512.013 512.013" style="enable-background:new 0 0 512.013 512.013;" xml:space="preserve">
<g>
	<g>
		<path d="M160.624,33.422c-57.92,0-104.88,46.656-104.88,104.192c0,57.536,46.96,104.192,104.88,104.192
			s104.88-46.656,104.88-104.192S218.544,33.422,160.624,33.422z M160.624,209.822c-40.176,0-72.88-32.384-72.88-72.192
			c0-39.808,32.688-72.192,72.88-72.192c40.176,0,72.88,32.384,72.88,72.192C233.504,177.438,200.816,209.822,160.624,209.822z"/>
	</g>
</g>
<g>
	<g>
		<path d="M490.56,265.87c-13.6-13.184-31.856-20.448-51.376-20.448c-18.384,0-35.44,6.4-49.344,18.56l-3.408,2.992l-3.36-3.056
			c-12.88-11.792-30.4-18.288-49.376-18.288c-20.208,0-38.608,7.344-51.856,20.688c-3.264,3.312-6.08,6.88-8.592,10.592
			c-23.456-10.88-46.704-11.344-46.704-11.344H94.704c0,0-94.704,1.056-94.704,87.776c0,86.192,0,105.92,0,105.92h321.232
			c0,0,0-10.496,0-48.992l65.312,68.32l104.512-109.6C519.136,339.838,519.024,294.638,490.56,265.87z M289.248,427.262
			L289.248,427.262H32.016v-73.92c0-51.632,52.688-55.52,62.704-55.776h131.536c3.84,0.08,20.368,0.976,35.536,8.912
			c-3.344,21.856,3.12,44.96,19.872,62.384l7.584,7.936V427.262z M467.968,346.83l-81.44,85.392l-81.776-85.536
			c-1.872-1.952-3.488-4.032-4.912-6.208c-0.48-0.72-0.832-1.488-1.248-2.224c-0.864-1.488-1.68-2.976-2.352-4.528
			c-0.4-0.912-0.688-1.872-1.008-2.8c-0.496-1.424-0.944-2.864-1.28-4.32c-0.24-1.024-0.4-2.048-0.56-3.072
			c-0.208-1.408-0.352-2.832-0.416-4.24c-0.048-1.056-0.08-2.128-0.032-3.184c0.048-1.392,0.192-2.784,0.384-4.176
			c0.144-1.056,0.272-2.112,0.496-3.168c0.304-1.408,0.752-2.784,1.216-4.144c0.32-0.976,0.576-1.968,0.976-2.912
			c0.672-1.616,1.552-3.152,2.448-4.688c0.368-0.64,0.64-1.328,1.056-1.952c1.456-2.192,3.12-4.288,5.056-6.24
			c7.168-7.216,17.52-11.2,29.12-11.2c10.96,0,20.816,3.52,27.792,9.888l24.528,22.384l24.896-21.84
			c16.416-14.352,42.832-13.296,57.152,0.544C483.984,304.686,483.952,330.238,467.968,346.83z"/>
	</g>
</g>
<g>
</g>
<g>
</g>
<g>
</g>
<g>
</g>
<g>
</g>
<g>
</g>
<g>
</g>
<g>
</g>
<g>
</g>
<g>
</g>
<g>
</g>
<g>
</g>
<g>
</g>
<g>
</g>
<g>
</g>
</svg>
