<?xml version="1.0" encoding="iso-8859-1"?>
<!-- Generator: Adobe Illustrator 19.0.0, SVG Export Plug-In . SVG Version: 6.00 Build 0)  -->
<svg version="1.1" id="Layer_1" xmlns="http://www.w3.org/2000/svg" xmlns:xlink="http://www.w3.org/1999/xlink" x="0px" y="0px"
	 viewBox="0 0 512 512" style="enable-background:new 0 0 512 512;" xml:space="preserve">
<g>
	<g>
		<path d="M295.169,304.731c-0.436-1.991-1.237-3.96-2.405-5.905c-1.167-1.944-2.55-3.717-4.153-5.32
			c-1.647-1.647-3.443-3.031-5.389-4.153c-1.945-1.121-3.903-1.864-5.87-2.231c-1.969-0.366-3.924-0.286-5.87,0.241
			c-1.944,0.526-3.741,1.613-5.389,3.261c-1.694,1.694-2.78,3.515-3.261,5.457c-0.48,1.946-0.515,3.926-0.102,5.939
			c0.412,2.015,1.19,3.983,2.334,5.904c1.145,1.923,2.518,3.684,4.12,5.286c1.647,1.647,3.433,3.044,5.355,4.188
			c1.922,1.146,3.891,1.9,5.904,2.265c2.014,0.367,4.005,0.298,5.972-0.206c1.969-0.503,3.777-1.579,5.424-3.227
			c1.693-1.693,2.781-3.536,3.261-5.526C295.581,308.713,295.603,306.723,295.169,304.731z"/>
	</g>
</g>
<g>
	<g>
		<path d="M199.408,250.983c-0.435-1.99-1.236-3.958-2.404-5.904c-1.167-1.944-2.55-3.717-4.153-5.32
			c-1.647-1.647-3.443-3.031-5.39-4.153c-1.945-1.121-3.903-1.864-5.87-2.232c-1.969-0.366-3.925-0.285-5.87,0.241
			c-1.945,0.526-3.741,1.613-5.39,3.261c-1.694,1.694-2.781,3.515-3.261,5.457c-0.48,1.946-0.516,3.926-0.103,5.939
			c0.411,2.015,1.189,3.983,2.333,5.904c1.145,1.923,2.518,3.684,4.12,5.286c1.647,1.647,3.433,3.044,5.355,4.188
			c1.922,1.146,3.891,1.9,5.904,2.265c2.014,0.367,4.005,0.298,5.972-0.206c1.969-0.503,3.777-1.579,5.424-3.227
			c1.693-1.693,2.78-3.536,3.261-5.526C199.82,254.965,199.842,252.975,199.408,250.983z"/>
	</g>
</g>
<g>
	<g>
		<path d="M232.771,192.697c-0.205-1.624-1.133-3.261-2.78-4.908c-1.693-1.693-3.398-2.575-5.114-2.643
			c-1.716-0.069-2.986,0.309-3.81,1.133l-8.102,8.102l10.435,10.435l8.445-8.445C232.668,195.546,232.977,194.324,232.771,192.697z"
			/>
	</g>
</g>
<g>
	<g>
		<path d="M380.473,0H275.533L0,275.533L236.467,512L512,236.467V131.527L380.473,0z M210.288,173.715
			c2.38-2.38,5.068-4.084,8.067-5.114c2.998-1.028,6.007-1.476,9.028-1.339c3.021,0.137,5.962,0.813,8.822,2.025
			c2.861,1.214,5.32,2.849,7.38,4.909c2.838,2.838,4.863,6.099,6.076,9.782c1.214,3.685,1.5,7.404,0.858,11.155l28.902,6.934
			l-15.104,15.104l-24.234-5.698l-5.012,5.012l14.967,14.967L236.65,244.84l-48.743-48.743L210.288,173.715z M149.119,332.369
			l-48.743-48.743l33.433-33.433l11.671,11.671l-20.047,20.047l8.102,8.102l16.339-16.339l10.847,10.847l-16.339,16.339
			l18.124,18.124L149.119,332.369z M159.691,272.917c-3.203-3.203-5.709-6.876-7.517-11.018c-1.808-4.141-2.793-8.398-2.953-12.769
			c-0.161-4.37,0.516-8.661,2.026-12.872c1.51-4.209,3.982-8.032,7.414-11.465c3.478-3.478,7.357-5.938,11.635-7.38
			c4.279-1.44,8.604-2.013,12.975-1.716c4.37,0.299,8.593,1.385,12.667,3.261c4.073,1.877,7.666,4.371,10.778,7.483
			c3.204,3.204,5.699,6.865,7.483,10.984c1.785,4.119,2.781,8.341,2.987,12.666c0.206,4.325-0.447,8.616-1.957,12.872
			c-1.51,4.257-3.982,8.102-7.414,11.534c-3.479,3.479-7.357,5.94-11.637,7.38c-4.279,1.443-8.593,2.026-12.941,1.751
			c-4.347-0.274-8.57-1.338-12.667-3.192C166.476,278.581,162.85,276.074,159.691,272.917z M260.74,370.257l-25.676-25.676
			l9.886,26.225l-7.139,7.139l-26.225-9.886l25.676,25.676l-13.387,13.387l-48.743-48.743l14.623-14.623l33.434,12.426
			l-12.357-33.502l14.555-14.555l48.743,48.743L260.74,370.257z M310.991,316.71c-1.51,4.257-3.982,8.102-7.414,11.534
			c-3.479,3.479-7.357,5.94-11.637,7.38c-4.278,1.443-8.593,2.026-12.941,1.751c-4.347-0.274-8.57-1.338-12.666-3.192
			c-4.096-1.852-7.723-4.359-10.881-7.518c-3.203-3.203-5.709-6.876-7.517-11.018c-1.808-4.141-2.792-8.398-2.953-12.769
			c-0.161-4.37,0.516-8.661,2.025-12.872c1.51-4.209,3.982-8.032,7.414-11.465c3.478-3.478,7.357-5.938,11.635-7.38
			c4.279-1.441,8.604-2.014,12.975-1.716c4.37,0.299,8.593,1.385,12.666,3.261c4.075,1.877,7.666,4.371,10.778,7.483
			c3.204,3.204,5.698,6.865,7.483,10.984c1.785,4.119,2.78,8.341,2.987,12.667C313.154,308.162,312.502,312.453,310.991,316.71z
			 M369.277,261.72l-25.676-25.676l9.886,26.225l-7.139,7.139l-26.225-9.886l25.676,25.676l-13.386,13.387l-48.743-48.743
			l14.623-14.623l33.433,12.426l-12.358-33.502l14.555-14.555l48.743,48.743L369.277,261.72z M408.097,172.555
			c-9.463,9.463-21.895,14.195-34.325,14.195c-12.432,0-24.863-4.732-34.326-14.195c-18.928-18.928-18.928-49.724,0-68.652
			c18.926-18.928,49.724-18.93,68.652,0C427.025,122.831,427.025,153.627,408.097,172.555z"/>
	</g>
</g>
<g>
	<g>
		<path d="M385.213,126.788c-3.155-3.155-7.299-4.732-11.443-4.732c-4.143,0-8.287,1.578-11.441,4.732
			c-6.31,6.31-6.31,16.575,0,22.885c6.312,6.311,16.575,6.309,22.885,0C391.523,143.363,391.523,133.097,385.213,126.788z"/>
	</g>
</g>
<g>
</g>
<g>
</g>
<g>
</g>
<g>
</g>
<g>
</g>
<g>
</g>
<g>
</g>
<g>
</g>
<g>
</g>
<g>
</g>
<g>
</g>
<g>
</g>
<g>
</g>
<g>
</g>
<g>
</g>
</svg>
