<?xml version="1.0" encoding="iso-8859-1"?>
<!-- Generator: Adobe Illustrator 17.1.0, SVG Export Plug-In . SVG Version: 6.00 Build 0)  -->
<!DOCTYPE svg PUBLIC "-//W3C//DTD SVG 1.1//EN" "http://www.w3.org/Graphics/SVG/1.1/DTD/svg11.dtd">
<svg version="1.1" id="Capa_1" xmlns="http://www.w3.org/2000/svg" xmlns:xlink="http://www.w3.org/1999/xlink" x="0px" y="0px"
	 viewBox="0 0 461.532 461.532" style="enable-background:new 0 0 461.532 461.532;" xml:space="preserve">
<path d="M457.455,223.87l-52.194-32.917c-1.789-1.128-3.94-1.724-6.222-1.724c-2.879,0-5.694,0.987-7.723,2.708l-25.14,21.33
	H121.339l-32.512-37.935c-5.392-6.291-14.859-7.02-21.151-1.628c-3.143,2.694-4.897,6.406-5.193,10.232l-7.374-8.604
	c-5.392-6.291-14.86-7.02-21.151-1.628c-4.729,4.052-6.312,10.41-4.518,15.989l-4.65-4.005c-6.277-5.407-15.749-4.7-21.154,1.577
	c-5.406,6.277-4.7,15.748,1.576,21.154l25.947,22.347L5.211,253.113c-6.276,5.406-6.982,14.877-1.576,21.154
	c2.966,3.445,7.156,5.212,11.372,5.212c3.466,0,6.949-1.195,9.782-3.635l4.65-4.005c-1.794,5.579-0.211,11.936,4.518,15.989
	c2.829,2.425,6.3,3.611,9.755,3.611c4.228,0,8.43-1.778,11.396-5.239l7.374-8.604c0.296,3.825,2.05,7.538,5.193,10.232
	c2.829,2.425,6.3,3.611,9.755,3.611c4.228,0,8.43-1.778,11.396-5.239l32.512-37.935h244.838l25.14,21.33
	c2.028,1.721,4.844,2.708,7.723,2.708c2.281,0,4.433-0.596,6.221-1.724l52.195-32.917c2.592-1.634,4.077-4.148,4.077-6.896
	S460.047,225.504,457.455,223.87z"/>
<g>
</g>
<g>
</g>
<g>
</g>
<g>
</g>
<g>
</g>
<g>
</g>
<g>
</g>
<g>
</g>
<g>
</g>
<g>
</g>
<g>
</g>
<g>
</g>
<g>
</g>
<g>
</g>
<g>
</g>
</svg>
