<?xml version="1.0" encoding="iso-8859-1"?>
<!-- Generator: Adobe Illustrator 16.0.0, SVG Export Plug-In . SVG Version: 6.00 Build 0)  -->
<!DOCTYPE svg PUBLIC "-//W3C//DTD SVG 1.1//EN" "http://www.w3.org/Graphics/SVG/1.1/DTD/svg11.dtd">
<svg version="1.1" id="Capa_1" xmlns="http://www.w3.org/2000/svg" xmlns:xlink="http://www.w3.org/1999/xlink" x="0px" y="0px"
	 width="324.9px" height="324.9px" viewBox="0 0 324.9 324.9" style="enable-background:new 0 0 324.9 324.9;" xml:space="preserve"
	>
<g>
	<path d="M321.851,138c-26.496-54.153-140.182-55.16-159.297-54.937C144.024,82.824,29.639,83.65,3.06,138
		c-2.144,4.371-3.12,7.966-3.014,10.892H0.005v37.898c-0.075,1.875,0.678,5.608,3.945,7.689c1.554,0.994,3.42,1.486,5.608,1.486
		c2.933,0,6.454-0.911,10.589-2.692v31.322l1.248,0.776c0.44,0.274,7.464,4.552,16.611,4.552c4.735,0,10.033-1.145,15.275-4.588
		c7.244-4.748,10.621-5.152,11.848-5.152c0.174,0,0.274,0.006,0.365,0.011l0.036,13.654l1.214,0.777
		c8.956,5.742,17.142,7.229,23.219,7.229c6.248,0,10.26-1.574,10.579-1.703l1.654-0.669v-27.49c5.52,2.661,9.64,3.635,12.562,3.635
		c4.712,0,6.532-2.272,7.003-3.014l0.409-0.647v-31.239c0.759,0.218,1.512,0.296,2.312,0.212c3.578-0.356,5.434-3.826,5.631-4.22
		l0.29-0.56v-35.363c0.404-1.704,0.135-3.542-0.795-5.357c10.214-1.388,26.228-1.665,32.164-1.722
		c6.227,0.058,23.073,0.334,33.513,1.732c-0.927,1.81-1.201,3.643-0.797,5.341v35.364l0.289,0.56c0.202,0.394,2.066,3.863,5.64,4.22
		c0.787,0.078,1.554,0.005,2.31-0.218v31.245l0.408,0.647c0.472,0.746,2.3,3.014,7.007,3.014c2.92,0,7.042-0.974,12.557-3.635
		v27.501l1.651,0.668c0.326,0.129,4.335,1.703,10.585,1.703c6.079,0,14.26-1.485,23.218-7.229l1.218-0.776l0.036-13.474
		c0.999-0.228,4.251-0.259,12.21,4.961c5.245,3.443,10.542,4.587,15.275,4.587c9.149,0,16.182-4.282,16.622-4.551l1.242-0.777
		v-31.322c4.138,1.787,7.658,2.693,10.584,2.693c2.19,0,4.055-0.498,5.608-1.486c3.267-2.087,4.023-5.82,3.945-7.592v-38.002h-0.041
		C324.963,145.971,323.984,142.375,321.851,138z M6.835,190.026c-1.538-0.947-1.528-2.978-1.528-3.133v-30.488
		c9.73,3.829,31.783-4.023,64.959-16.793c4.751-1.828,9.502-3.653,14.167-5.414c20.94-7.858,35.462-2.657,39.706,2.475
		c0.401,0.489,1.675,2.175,0.992,3.304c-0.802,1.32-5.085,3.213-15.537,0.939c-24.164-5.292-49.767,5.562-55.069,13.013
		c-0.925,1.297-1.214,2.418-1.243,3.371h-0.005v0.521v7.578c-16.177-0.025-27.063,4.613-31.33,10.781
		c-1.238,1.781-1.794,3.666-1.766,5.483h-0.034v5.769C11.378,191.647,7.917,190.7,6.835,190.026z M58.585,162.583
		c2.615,0.539,6.618,0.616,12.997-0.318c22.025-3.288,43.426,8.634,45.202,12.673c-1.281,0.58-7.682,2.2-32.567-4.821
		c-9.486-2.677-18.043-4.074-25.637-4.535v-2.999H58.585z M50.372,220.909c-10.429,6.846-21.284,2.485-24.922,0.646v-32.487
		c6.076,3.061,16.64,2.642,29.784-1.476c23.931-7.508,36.703,0.099,40.102,5.162c0.715,1.062,2.196,3.76,0.471,5.847
		c-2.724,3.304-12.042,3.878-26.68-2.325l-3.697-1.559l0.054,20.443C61.788,214.846,56.874,216.647,50.372,220.909z M96.895,235.749
		c-3.855,0.974-14.02,2.388-26.072-4.815l-0.075-28.309c11.358,4.21,20.653,4.831,26.147,1.812V235.749z M116.875,209.911
		c-1.326,0.533-5.388,1.154-14.678-3.848v-9.45h-0.303c0.065-2.222-0.657-4.588-2.157-6.819c-6.009-8.917-22.589-14.618-46.088-7.26
		c-18.017,5.648-26.03,2.739-27.75,0.394c-0.746-1.005-0.608-2.269,0.409-3.733c4.458-6.447,23.739-13.226,56.47-3.977
		c20.224,5.711,29.567,6.125,34.096,5.214V209.911z M125.111,174.751c-0.336,0.44-0.803,0.881-1.167,0.912
		c-0.324,0.176-0.987-0.265-1.841-1.212c-0.106-0.684-0.329-1.43-0.816-2.258c-4.285-7.312-27.959-18.481-50.484-15.177
		c-8.106,1.207-11.125,0.533-12.073,0.147c0.401-0.637,1.494-1.846,3.966-3.43c8.223-5.292,27.19-11.682,45.77-7.63
		c8.313,1.822,13.419,1.32,16.645,0.09V174.751z M164.13,128.44v-0.039c-0.005,0-0.01,0-0.01,0c-0.207,0-1.072,0-2.333,0.013
		c-1.325-0.013-2.234-0.013-2.446-0.013c-0.005,0-0.011,0-0.016,0v0.044c-8.122,0.117-24.523,0.562-33.777,2.292
		c-7.803-6.121-23.387-8.86-42.981-1.497c-4.676,1.755-9.442,3.596-14.204,5.419c-25.388,9.774-56.98,21.942-62.368,16.039
		c-1.347-1.468-0.684-5.248,1.825-10.372C31.768,91.36,136.79,88.385,160.115,88.364v0.042c0.101-0.005,1.01-0.026,2.467-0.037
		c1.297,0.01,2.1,0.031,2.195,0.037v-0.042c23.322,0.026,128.351,2.991,152.299,51.963c2.507,5.124,3.17,8.903,1.823,10.372
		c-5.386,5.898-36.987-6.276-62.37-16.039c-4.759-1.835-9.523-3.664-14.199-5.419c-19.609-7.363-35.185-4.624-42.983,1.497
		C189.923,128.992,172.556,128.552,164.13,128.44z M200.963,175.663c-0.363-0.031-0.834-0.472-1.171-0.906v-28.563
		c3.221,1.23,8.321,1.727,16.643-0.096c18.59-4.072,37.552,2.338,45.78,7.63c2.465,1.589,3.557,2.793,3.961,3.43
		c-0.958,0.381-3.961,1.054-12.07-0.147c-22.524-3.293-46.209,7.86-50.486,15.178c-0.487,0.828-0.71,1.579-0.813,2.268
		C201.962,175.403,201.325,175.833,200.963,175.663z M266.32,165.57c-7.591,0.461-16.145,1.864-25.631,4.541
		c-24.851,7.017-31.276,5.406-32.57,4.821c1.775-4.045,23.177-15.967,45.204-12.674c6.375,0.94,10.372,0.867,12.992,0.329v2.982
		H266.32z M225.17,189.794c-1.507,2.231-2.227,4.598-2.164,6.819h-0.301v9.45c-9.435,5.079-13.473,4.365-14.675,3.909v-29.541
		c4.526,0.911,13.862,0.492,34.099-5.22c32.751-9.248,52.009-2.47,56.467,3.977c1.016,1.466,1.155,2.729,0.409,3.733
		c-1.714,2.346-9.725,5.261-27.755-0.394C247.741,175.176,231.166,180.877,225.17,189.794z M254.085,230.934
		c-12.127,7.255-22.225,5.82-26.077,4.826v-31.322c5.494,3.014,14.789,2.407,26.149-1.812L254.085,230.934z M299.461,221.546
		c-3.641,1.802-14.592,6.142-24.928-0.637c-6.493-4.262-11.407-6.063-15.104-5.753l0.052-20.438l-3.687,1.559
		c-14.654,6.203-23.97,5.634-26.693,2.325c-1.72-2.087-0.243-4.779,0.471-5.847c3.407-5.059,16.177-12.67,40.1-5.162
		c13.163,4.117,23.721,4.536,29.79,1.476V221.546z M319.594,187.003c0.005,0.021,0.01,2.051-1.486,3.008
		c-1.082,0.684-4.531,1.657-13.35-2.578v-5.769h-0.031c0.026-1.817-0.528-3.697-1.771-5.483
		c-4.272-6.168-15.167-10.812-31.338-10.781v-7.547c0.093-1.059-0.135-2.369-1.237-3.917c-5.298-7.451-30.888-18.326-55.075-13.013
		c-10.434,2.284-14.722,0.386-15.534-0.94c-0.684-1.129,0.585-2.814,0.989-3.301c4.246-5.134,18.78-10.346,39.711-2.478
		c4.66,1.755,9.408,3.586,14.157,5.408c33.171,12.774,55.234,20.643,64.965,16.803V187.003z"/>
</g>
<g>
</g>
<g>
</g>
<g>
</g>
<g>
</g>
<g>
</g>
<g>
</g>
<g>
</g>
<g>
</g>
<g>
</g>
<g>
</g>
<g>
</g>
<g>
</g>
<g>
</g>
<g>
</g>
<g>
</g>
</svg>
