<?xml version="1.0" encoding="iso-8859-1"?>
<!-- Generator: Adobe Illustrator 19.0.0, SVG Export Plug-In . SVG Version: 6.00 Build 0)  -->
<svg version="1.1" id="Layer_1" xmlns="http://www.w3.org/2000/svg" xmlns:xlink="http://www.w3.org/1999/xlink" x="0px" y="0px"
	 viewBox="0 0 511.999 511.999" style="enable-background:new 0 0 511.999 511.999;" xml:space="preserve">
<g>
	<g>
		<path d="M443.216,37.244H68.784c-18.37,0-35.641,7.157-48.63,20.145C7.158,70.371,0,87.641,0,106.018
			c0,6.227,5.049,11.276,11.276,11.276h30.096v303.043c0,6.227,5.049,11.276,11.276,11.276h22.496v31.866
			c0,6.227,5.049,11.276,11.276,11.276h43.142c6.227,0,11.276-5.049,11.276-11.276v-31.866h230.324v31.866
			c0,6.227,5.049,11.276,11.276,11.276h43.142c6.227,0,11.276-5.049,11.276-11.276v-31.866h22.496
			c6.227,0,11.276-5.049,11.276-11.276V117.294h30.096c6.227,0,11.276-5.049,11.276-11.276
			C512,68.096,481.143,37.244,443.216,37.244z M118.285,452.202h-20.59v-20.59h20.59V452.202z M414.303,452.202h-20.59v-20.59h20.59
			V452.202z M425.512,94.741v0.001c-6.227,0-11.276,5.049-11.276,11.276s5.049,11.276,11.276,11.276h22.563v291.767h-22.496h-43.142
			H129.561H86.419H63.924V117.294h271.38c6.227,0,11.276-5.049,11.276-11.276s-5.049-11.276-11.276-11.276H23.93
			c2.005-8.033,6.157-15.397,12.167-21.401c8.733-8.734,20.342-13.545,32.687-13.545h374.433c21.603,0,39.792,14.891,44.841,34.944
			H425.512z"/>
	</g>
</g>
<g>
	<g>
		<path d="M404.008,143.893H107.992c-6.227,0-11.276,5.049-11.276,11.276v84.751c0,6.227,5.049,11.276,11.276,11.276H404.01
			c6.227,0,11.276-5.049,11.276-11.276v-84.751C415.284,148.942,410.236,143.893,404.008,143.893z M392.732,228.644H119.266v-62.199
			h273.466V228.644z"/>
	</g>
</g>
<g>
	<g>
		<path d="M283.445,186.268h-54.892c-6.227,0-11.276,5.049-11.276,11.276s5.049,11.276,11.276,11.276h54.892
			c6.227,0,11.276-5.049,11.276-11.276S289.672,186.268,283.445,186.268z"/>
	</g>
</g>
<g>
	<g>
		<path d="M404.008,275.078H107.992c-6.227,0-11.276,5.049-11.276,11.276v84.739c0,6.227,5.049,11.276,11.276,11.276H404.01
			c6.227,0,11.276-5.049,11.276-11.276v-84.739C415.284,280.127,410.236,275.078,404.008,275.078z M392.732,359.818H119.266v-62.187
			h273.466V359.818z"/>
	</g>
</g>
<g>
	<g>
		<path d="M283.445,317.453h-54.892c-6.227,0-11.276,5.049-11.276,11.276s5.049,11.276,11.276,11.276h54.892
			c6.227,0,11.276-5.049,11.276-11.276S289.672,317.453,283.445,317.453z"/>
	</g>
</g>
<g>
	<g>
		<path d="M385.302,94.742h-9.776c-6.227,0-11.276,5.049-11.276,11.276s5.049,11.276,11.276,11.276h9.776
			c6.227,0,11.276-5.049,11.276-11.276S391.528,94.742,385.302,94.742z"/>
	</g>
</g>
<g>
</g>
<g>
</g>
<g>
</g>
<g>
</g>
<g>
</g>
<g>
</g>
<g>
</g>
<g>
</g>
<g>
</g>
<g>
</g>
<g>
</g>
<g>
</g>
<g>
</g>
<g>
</g>
<g>
</g>
</svg>
