<?xml version="1.0" encoding="iso-8859-1"?>
<!-- Generator: Adobe Illustrator 19.0.0, SVG Export Plug-In . SVG Version: 6.00 Build 0)  -->
<svg version="1.1" id="Layer_1" xmlns="http://www.w3.org/2000/svg" xmlns:xlink="http://www.w3.org/1999/xlink" x="0px" y="0px"
	 viewBox="0 0 512 512" style="enable-background:new 0 0 512 512;" xml:space="preserve">
<path style="fill:#818085;" d="M296.421,32.337c-37.147,0-67.368,30.221-67.368,67.368h40.421c0-14.859,12.089-26.947,26.947-26.947
	c14.859,0,26.947,12.089,26.947,26.947v40.421H188.632V99.705c0-37.147-30.221-67.368-67.368-67.368S53.895,62.558,53.895,99.705
	h40.421c0-14.859,12.089-26.947,26.947-26.947s26.947,12.089,26.947,26.947v256h40.421v-94.316h134.737v94.316h40.421v-256
	C363.789,62.558,333.568,32.337,296.421,32.337z M188.632,220.968v-40.421h134.737v40.421H188.632z"/>
<path style="fill:#414143;" d="M296.421,32.337c-37.147,0-67.368,30.221-67.368,67.368h40.421c0-14.859,12.089-26.947,26.947-26.947
	c14.859,0,26.947,12.089,26.947,26.947v40.421H256v40.421h67.368v40.421H256v40.421h67.368v94.316h40.421v-256
	C363.789,62.558,333.568,32.337,296.421,32.337z"/>
<path style="fill:#CCF7F9;" d="M491.789,301.811c-34.654,0-52.727,9.913-68.67,18.66c-13.93,7.641-24.934,13.677-49.229,13.677
	s-35.297-6.036-49.229-13.677c-15.943-8.747-34.016-18.66-68.67-18.66c-34.653,0-52.724,9.913-68.667,18.66
	c-13.929,7.641-24.932,13.677-49.225,13.677c-24.292,0-35.294-6.036-49.223-13.677c-15.943-8.747-34.014-18.66-68.666-18.66H0
	v177.853h512V301.811H491.789z"/>
<path style="fill:#99EFF2;" d="M491.789,301.811c-34.654,0-52.727,9.913-68.67,18.66c-13.93,7.641-24.934,13.677-49.229,13.677
	s-35.297-6.036-49.229-13.677c-15.942-8.747-34.013-18.657-68.662-18.66v177.853h256V301.811H491.789z"/>
<g>
</g>
<g>
</g>
<g>
</g>
<g>
</g>
<g>
</g>
<g>
</g>
<g>
</g>
<g>
</g>
<g>
</g>
<g>
</g>
<g>
</g>
<g>
</g>
<g>
</g>
<g>
</g>
<g>
</g>
</svg>
