<?xml version="1.0" encoding="iso-8859-1"?>
<!-- Generator: Adobe Illustrator 19.0.0, SVG Export Plug-In . SVG Version: 6.00 Build 0)  -->
<svg version="1.1" id="Layer_1" xmlns="http://www.w3.org/2000/svg" xmlns:xlink="http://www.w3.org/1999/xlink" x="0px" y="0px"
	 viewBox="0 0 512 512" style="enable-background:new 0 0 512 512;" xml:space="preserve">
<rect x="77.108" y="135.711" style="fill:#91DC5A;" width="33.723" height="37.012"/>
<rect x="354.699" y="135.711" style="fill:#496E2D;" width="67.855" height="37.012"/>
<polygon style="fill:#282017;" points="427.221,512 156.37,300.03 133.558,329.177 367.167,512 "/>
<polygon style="fill:#50412E;" points="144.833,512 378.442,329.177 355.63,300.03 84.779,512 "/>
<rect x="138.795" y="154.217" style="fill:#786145;" width="37.012" height="123.373"/>
<g>
	<rect x="336.193" y="154.217" style="fill:#282017;" width="37.012" height="123.373"/>
	<polygon style="fill:#282017;" points="484.241,135.711 410.217,135.711 410.217,296.096 447.229,296.096 447.229,172.723 
		484.241,172.723 	"/>
</g>
<polygon style="fill:#786145;" points="27.759,135.711 27.759,172.723 64.771,172.723 64.771,296.096 101.783,296.096 
	101.783,135.711 "/>
<rect x="101.783" style="fill:#91DC5A;" width="178.608" height="172.723"/>
<rect x="256" style="fill:#496E2D;" width="154.217" height="172.723"/>
<rect x="64.771" y="234.41" style="fill:#91DC5A;" width="382.458" height="104.867"/>
<rect x="256" y="234.41" style="fill:#496E2D;" width="191.229" height="104.867"/>
<rect x="64.771" y="308.434" style="fill:#786145;" width="382.458" height="37.012"/>
<rect x="256" y="308.434" style="fill:#282017;" width="191.229" height="37.012"/>
<g>
</g>
<g>
</g>
<g>
</g>
<g>
</g>
<g>
</g>
<g>
</g>
<g>
</g>
<g>
</g>
<g>
</g>
<g>
</g>
<g>
</g>
<g>
</g>
<g>
</g>
<g>
</g>
<g>
</g>
</svg>
