<?xml version="1.0" encoding="iso-8859-1"?>
<!-- Generator: Adobe Illustrator 19.0.0, SVG Export Plug-In . SVG Version: 6.00 Build 0)  -->
<svg version="1.1" id="Layer_1" xmlns="http://www.w3.org/2000/svg" xmlns:xlink="http://www.w3.org/1999/xlink" x="0px" y="0px"
	 viewBox="0 0 496 496" style="enable-background:new 0 0 496 496;" xml:space="preserve">
<path style="fill:#42210B;" d="M440,92c28,9.6,48,36.8,48,68s-20,57.6-48,68v260c0,4-4,8-8,8h-32c-4,0-8-4-8-8V228
	c-28-9.6-48-36.8-48-68s20-57.6,48-68V8c0-4,4-8,8-8h32c4,0,8,4,8,8V92z M472,160c0-31.2-24.8-56-56-56s-56,24.8-56,56
	s24.8,56,56,56S472,191.2,472,160z M424,480V231.2c-2.4,0-5.6,0.8-8,0.8s-5.6,0-8-0.8V480H424z M424,88.8V16h-16v72.8
	c2.4,0,5.6-0.8,8-0.8S421.6,88,424,88.8z"/>
<path style="fill:#FF7D00;" d="M416,104c31.2,0,56,24.8,56,56s-24.8,56-56,56s-56-24.8-56-56S384.8,104,416,104z M456,160
	c0-18.4-12-34.4-30.4-38.4l-4,15.2c10.4,2.4,18.4,12,18.4,23.2s-7.2,20-18.4,23.2l4,15.2C444,194.4,456,178.4,456,160z M424,160
	c0-4-4-8-8-8s-8,4-8,8s4,8,8,8S424,164,424,160z M410.4,136.8l-4-15.2c-18.4,4-30.4,20-30.4,38.4s12,34.4,30.4,38.4l4-15.2
	c-11.2-3.2-18.4-12-18.4-23.2S399.2,140,410.4,136.8z"/>
<path style="fill:#42210B;" d="M426.4,121.6c17.6,4.8,30.4,20.8,30.4,38.4s-12,34.4-30.4,38.4l-4-15.2c10.4-2.4,18.4-12,18.4-23.2
	s-7.2-20-18.4-23.2L426.4,121.6z"/>
<g>
	<path style="fill:#E4C6A1;" d="M424,231.2V480h-16V231.2c2.4,0,5.6,0.8,8,0.8S421.6,232,424,231.2z"/>
	<path style="fill:#E4C6A1;" d="M424,16v72.8c-2.4,0-5.6-0.8-8-0.8s-5.6,0-8,0.8V16H424z"/>
</g>
<g>
	<circle style="fill:#42210B;" cx="416" cy="160" r="8"/>
	<path style="fill:#42210B;" d="M406.4,121.6l4,15.2c-11.2,3.2-18.4,12-18.4,23.2s7.2,20,18.4,23.2l-4,15.2
		c-18.4-4-30.4-20-30.4-38.4S388,125.6,406.4,121.6z"/>
	<path style="fill:#42210B;" d="M272,276c28,9.6,48,36.8,48,68s-20,57.6-48,68v76c0,4-4,8-8,8h-32c-4,0-8-4-8-8v-76
		c-28-9.6-48-36.8-48-68s20-57.6,48-68V8c0-4,4-8,8-8h32c4,0,8,4,8,8V276z M304,344c0-31.2-24.8-56-56-56s-56,24.8-56,56
		s24.8,56,56,56S304,375.2,304,344z M256,480v-64.8c-2.4,0-5.6,0.8-8,0.8s-5.6,0-8-0.8V480H256z M256,272.8V16h-16v256.8
		c2.4,0,5.6-0.8,8-0.8S253.6,272,256,272.8z"/>
</g>
<path style="fill:#FF7D00;" d="M248,288c31.2,0,56,24.8,56,56s-24.8,56-56,56s-56-24.8-56-56S216.8,288,248,288z M288,344
	c0-18.4-12-34.4-30.4-38.4l-4,15.2c10.4,2.4,18.4,12,18.4,23.2s-7.2,20-18.4,23.2l4,15.2C276,378.4,288,362.4,288,344z M256,344
	c0-4-4-8-8-8s-8,4-8,8s4,8,8,8S256,348,256,344z M242.4,320.8l-4-15.2c-18.4,4-30.4,20-30.4,38.4s12,34.4,30.4,38.4l4-15.2
	c-11.2-3.2-18.4-12-18.4-23.2S231.2,324,242.4,320.8z"/>
<path style="fill:#42210B;" d="M258.4,305.6c17.6,4.8,30.4,20.8,30.4,38.4s-12,34.4-30.4,38.4l-4-15.2c10.4-2.4,18.4-12,18.4-23.2
	s-7.2-20-18.4-23.2L258.4,305.6z"/>
<g>
	<path style="fill:#E4C6A1;" d="M256,415.2V480h-16v-64.8c2.4,0,5.6,0.8,8,0.8S253.6,416,256,415.2z"/>
	<path style="fill:#E4C6A1;" d="M256,16v256.8c-2.4,0-5.6-0.8-8-0.8s-5.6,0-8,0.8V16H256z"/>
</g>
<g>
	<circle style="fill:#42210B;" cx="248" cy="344" r="8"/>
	<path style="fill:#42210B;" d="M238.4,305.6l4,15.2c-11.2,3.2-18.4,12-18.4,23.2s7.2,20,18.4,23.2l-4,15.2
		c-18.4-4-30.4-20-30.4-38.4S220,309.6,238.4,305.6z"/>
	<path style="fill:#42210B;" d="M104,92c28,9.6,48,36.8,48,68s-20,57.6-48,68v260c0,4-3.2,8-8,8H64c-4.8,0-8-4-8-8V228
		c-28-9.6-48-36.8-48-68s20-57.6,48-68V8c0-4,3.2-8,8-8h32c4.8,0,8,4,8,8V92z M136,160c0-31.2-24.8-56-56-56s-56,24.8-56,56
		s24.8,56,56,56S136,191.2,136,160z M88,480V231.2c-2.4,0-5.6,0.8-8,0.8s-5.6,0-8-0.8V480H88z M88,88.8V16H72v72.8
		c2.4,0,5.6-0.8,8-0.8S85.6,88,88,88.8z"/>
</g>
<path style="fill:#FF7D00;" d="M80,104c31.2,0,56,24.8,56,56s-24.8,56-56,56s-56-24.8-56-56S48.8,104,80,104z M120,160
	c0-18.4-12-34.4-30.4-38.4l-4,15.2c10.4,2.4,18.4,12,18.4,23.2s-7.2,20-18.4,23.2l4,15.2C108,194.4,120,178.4,120,160z M88,160
	c0-4-3.2-8-8-8s-8,4-8,8s3.2,8,8,8S88,164,88,160z M74.4,136.8l-4-15.2C52,125.6,40,141.6,40,160s12,34.4,30.4,38.4l4-15.2
	C63.2,180,56,171.2,56,160S63.2,140,74.4,136.8z"/>
<path style="fill:#42210B;" d="M90.4,121.6c17.6,4.8,30.4,20.8,30.4,38.4s-12,34.4-30.4,38.4l-4-15.2c10.4-2.4,18.4-12,18.4-23.2
	s-7.2-20-18.4-23.2L90.4,121.6z"/>
<g>
	<path style="fill:#E4C6A1;" d="M88,231.2V480H72V231.2c2.4,0,5.6,0.8,8,0.8S85.6,232,88,231.2z"/>
	<path style="fill:#E4C6A1;" d="M88,16v72.8c-2.4,0-5.6-0.8-8-0.8s-5.6,0-8,0.8V16H88z"/>
</g>
<g>
	<circle style="fill:#42210B;" cx="80" cy="160" r="8"/>
	<path style="fill:#42210B;" d="M70.4,121.6l4,15.2C63.2,140,56,148.8,56,160s7.2,20,18.4,23.2l-4,15.2C52,194.4,40,178.4,40,160
		S52,125.6,70.4,121.6z"/>
</g>
<path style="fill:#FF7D00;" d="M80,112c-26.4,0-48,21.6-48,48s21.6,48,48,48s48-21.6,48-48S106.4,112,80,112z M70.4,198.4
	C52,194.4,40,178.4,40,160s12-34.4,30.4-38.4l4,15.2C63.2,140,56,148.8,56,160s7.2,20,18.4,23.2L70.4,198.4z M80,168c-4,0-8-4-8-8
	s4-8,8-8s8,4,8,8S84,168,80,168z M90.4,198.4l-4-15.2c10.4-2.4,18.4-12,18.4-23.2s-7.2-20-18.4-23.2l4-15.2
	c17.6,4.8,30.4,20.8,30.4,38.4C120,178.4,108,194.4,90.4,198.4z"/>
<g>
	<path style="fill:#FF9900;" d="M248,296c-26.4,0-48,21.6-48,48s21.6,48,48,48s48-21.6,48-48S274.4,296,248,296z M238.4,382.4
		c-18.4-4-30.4-20-30.4-38.4s12-34.4,30.4-38.4l4,15.2c-11.2,3.2-18.4,12-18.4,23.2s7.2,20,18.4,23.2L238.4,382.4z M248,352
		c-4,0-8-4-8-8s4-8,8-8s8,4,8,8S252,352,248,352z M258.4,382.4l-4-15.2c10.4-2.4,18.4-12,18.4-23.2s-7.2-20-18.4-23.2l4-15.2
		c17.6,4.8,30.4,20.8,30.4,38.4C288,362.4,276,378.4,258.4,382.4z"/>
	<path style="fill:#FF9900;" d="M80,112c-26.4,0-48,21.6-48,48s21.6,48,48,48s48-21.6,48-48S106.4,112,80,112z M70.4,198.4
		C52,194.4,40,178.4,40,160s12-34.4,30.4-38.4l4,15.2C63.2,140,56,148.8,56,160s7.2,20,18.4,23.2L70.4,198.4z M80,168c-4,0-8-4-8-8
		s4-8,8-8s8,4,8,8S84,168,80,168z M90.4,198.4l-4-15.2c10.4-2.4,18.4-12,18.4-23.2s-7.2-20-18.4-23.2l4-15.2
		c17.6,4.8,30.4,20.8,30.4,38.4C120,178.4,108,194.4,90.4,198.4z"/>
	<path style="fill:#FF9900;" d="M416,112c-26.4,0-48,21.6-48,48s21.6,48,48,48s48-21.6,48-48S442.4,112,416,112z M406.4,198.4
		c-18.4-4-30.4-20-30.4-38.4s12-34.4,30.4-38.4l4,15.2c-11.2,3.2-18.4,12-18.4,23.2s7.2,20,18.4,23.2L406.4,198.4z M416,168
		c-4,0-8-4-8-8s4-8,8-8s8,4,8,8S420,168,416,168z M426.4,198.4l-4-15.2c10.4-2.4,18.4-12,18.4-23.2s-7.2-20-18.4-23.2l4-15.2
		c17.6,4.8,30.4,20.8,30.4,38.4C456,178.4,444,194.4,426.4,198.4z"/>
</g>
<g>
</g>
<g>
</g>
<g>
</g>
<g>
</g>
<g>
</g>
<g>
</g>
<g>
</g>
<g>
</g>
<g>
</g>
<g>
</g>
<g>
</g>
<g>
</g>
<g>
</g>
<g>
</g>
<g>
</g>
</svg>
