<?xml version="1.0" encoding="iso-8859-1"?>
<!-- Generator: Adobe Illustrator 18.0.0, SVG Export Plug-In . SVG Version: 6.00 Build 0)  -->
<!DOCTYPE svg PUBLIC "-//W3C//DTD SVG 1.1//EN" "http://www.w3.org/Graphics/SVG/1.1/DTD/svg11.dtd">
<svg version="1.1" id="Capa_1" xmlns="http://www.w3.org/2000/svg" xmlns:xlink="http://www.w3.org/1999/xlink" x="0px" y="0px"
	 viewBox="0 0 240 240" style="enable-background:new 0 0 240 240;" xml:space="preserve">
<path d="M218.996,0H21.004v240h197.992V0z M198.996,44H188.64v20h10.356v24H188.64v20h10.356v24H188.64v20h10.356v24H188.64v20
	h10.356v24H41.004v-24H51.36v-20H41.004v-24H51.36v-20H41.004v-24H51.36V88H41.004V64H51.36V44H41.004V20h157.992V44z
	 M176.457,128.868H63.543v73.888h112.914V128.868z M156.457,182.756H83.543v-33.888h72.914V182.756z M176.457,37.244H63.543v73.888
	h112.914V37.244z M156.457,91.132H83.543V57.244h72.914V91.132z"/>
<g>
</g>
<g>
</g>
<g>
</g>
<g>
</g>
<g>
</g>
<g>
</g>
<g>
</g>
<g>
</g>
<g>
</g>
<g>
</g>
<g>
</g>
<g>
</g>
<g>
</g>
<g>
</g>
<g>
</g>
</svg>
