<?xml version="1.0" encoding="iso-8859-1"?>
<!-- Generator: Adobe Illustrator 18.0.0, SVG Export Plug-In . SVG Version: 6.00 Build 0)  -->
<!DOCTYPE svg PUBLIC "-//W3C//DTD SVG 1.1//EN" "http://www.w3.org/Graphics/SVG/1.1/DTD/svg11.dtd">
<svg version="1.1" id="Capa_1" xmlns="http://www.w3.org/2000/svg" xmlns:xlink="http://www.w3.org/1999/xlink" x="0px" y="0px"
	 viewBox="0 0 230 230" style="enable-background:new 0 0 230 230;" xml:space="preserve">
<path d="M17.801,230h194.398V0H17.801V230z M37.801,20h154.398v190H37.801V20z M94.25,86.667h20v22.334h-20V86.667z M94.25,166.667
	h20v22.334h-20V166.667z M130.125,88.625h46.333v20h-46.333V88.625z M133.239,184.001h40.854v-54h-40.854V184.001z M153.239,150.001
	h0.854v14h-0.854V150.001z M58.25,166.667h20v22.334h-20V166.667z M58.25,126.667h20v22.334h-20V126.667z M176.121,64.001H53.878
	v-20h122.243V64.001z M94.25,126.667h20v22.334h-20V126.667z M58.25,86.667h20v22.334h-20V86.667z"/>
<g>
</g>
<g>
</g>
<g>
</g>
<g>
</g>
<g>
</g>
<g>
</g>
<g>
</g>
<g>
</g>
<g>
</g>
<g>
</g>
<g>
</g>
<g>
</g>
<g>
</g>
<g>
</g>
<g>
</g>
</svg>
