<?xml version="1.0" encoding="iso-8859-1"?>
<!-- Generator: Adobe Illustrator 19.0.0, SVG Export Plug-In . SVG Version: 6.00 Build 0)  -->
<svg version="1.1" id="Layer_1" xmlns="http://www.w3.org/2000/svg" xmlns:xlink="http://www.w3.org/1999/xlink" x="0px" y="0px"
	 viewBox="0 0 491.52 491.52" style="enable-background:new 0 0 491.52 491.52;" xml:space="preserve">
<g>
	<g>
		<rect x="131.21" y="61.49" width="229.12" height="326.18"/>
	</g>
</g>
<g>
	<g>
		<path d="M383.299,0H108.225C95.134,0,84.48,10.65,84.48,23.745v444.038c0,13.088,10.654,23.737,23.745,23.737h275.074
			c13.091,0,23.741-10.65,23.741-23.737V23.745C407.04,10.65,396.39,0,383.299,0z M226.02,18.416h39.487
			c4.241,0,7.68,3.435,7.68,7.68s-3.439,7.68-7.68,7.68H226.02c-4.241,0-7.68-3.435-7.68-7.68
			C218.34,21.85,221.779,18.416,226.02,18.416z M200.45,18.414c4.241,0,7.68,3.438,7.68,7.68c0,4.241-3.439,7.68-7.68,7.68
			c-4.241,0-7.68-3.439-7.68-7.68C192.769,21.853,196.209,18.414,200.45,18.414z M245.758,466.162
			c-11.167,0-20.253-9.085-20.253-20.252c0-11.175,9.085-20.261,20.253-20.261c11.171,0,20.258,9.086,20.258,20.261
			C266.017,457.077,256.93,466.162,245.758,466.162z M375.679,395.355c0,4.245-3.438,7.68-7.68,7.68H123.525
			c-4.242,0-7.68-3.435-7.68-7.68V53.82c0-4.245,3.438-7.68,7.68-7.68h244.474c4.242,0,7.68,3.435,7.68,7.68V395.355z"/>
	</g>
</g>
<g>
</g>
<g>
</g>
<g>
</g>
<g>
</g>
<g>
</g>
<g>
</g>
<g>
</g>
<g>
</g>
<g>
</g>
<g>
</g>
<g>
</g>
<g>
</g>
<g>
</g>
<g>
</g>
<g>
</g>
</svg>
