<?xml version="1.0" encoding="iso-8859-1"?>
<!-- Generator: Adobe Illustrator 16.0.0, SVG Export Plug-In . SVG Version: 6.00 Build 0)  -->
<!DOCTYPE svg PUBLIC "-//W3C//DTD SVG 1.1//EN" "http://www.w3.org/Graphics/SVG/1.1/DTD/svg11.dtd">
<svg version="1.1" id="Capa_1" xmlns="http://www.w3.org/2000/svg" xmlns:xlink="http://www.w3.org/1999/xlink" x="0px" y="0px"
	 width="431.471px" height="431.47px" viewBox="0 0 431.471 431.47" style="enable-background:new 0 0 431.471 431.47;"
	 xml:space="preserve">
<g>
	<g id="icons_11_">
		<g>
			<path d="M65.56,165.444c-1.133,2.748-1.365,5.563-1.756,11.379h0.003c-0.111,1.767-0.436,10.519-0.121,18.887
				c0.472,12.584,1.76,25.016,11.661,26.756c3.41,0.592,170.71,2.068,208.197,0.348c2.543-0.113,4.122-0.185,4.51-0.192
				c5.348,0,9.332-3.104,11.224-8.742c1.464-4.364,2.114-11.277,2.114-22.415c0-15.998-0.002-21.577-1.937-26.066
				c6.483-4.116,10.791-11.354,10.791-19.603v-2.479c0-9.776-6.047-18.134-14.604-21.553c0.716-3.378,1.155-7.888,1.26-14.065
				c0.108-11.068-1.945-32.545-16.947-52.035c-18.516-24.057-49.94-36.633-93.438-37.382c-1.245-0.017-2.508-0.03-3.728-0.03
				c-56.303,0-84.24,22.648-97.761,41.648c-15.442,21.698-16.837,44.719-16.959,49.062c-0.181,5.36,0.223,9.575,1.025,12.883
				c-8.448,3.469-14.399,11.773-14.399,21.473v2.479C54.696,154.074,59.035,161.337,65.56,165.444z M283.351,205.399
				c-0.188,0.008-0.386,0.018-0.592,0.026c-37.244,1.71-187.642,0.82-200.778,0.095c-1.102-6.166-1.266-19.453-0.81-27.539
				c0.104-1.551,0.205-3.054,0.302-4.182c22.051-0.009,92.617-0.051,145.408-0.082c25.68-0.016,47.152-0.029,56.785-0.033
				c0.32,2.855,0.32,8.305,0.32,17.778C283.986,198.691,283.668,202.952,283.351,205.399z M85.468,109.497
				c0.211-7.558,4.736-73.841,97.322-73.841c1.144,0,2.328,0.012,3.462,0.027c84.788,1.461,93.454,50.727,93.246,71.782
				c-0.063,3.778-0.274,6.45-0.506,8.295h-193.3C85.502,114.104,85.387,111.914,85.468,109.497z"/>
			<path d="M412.173,233.73h-23.402c-10.659,0-19.298,9.049-19.298,20.213v2.236c-23.606-4.574-34.868-10.076-89.368-13.699
				c-36.835-2.449-46.663,15.465-72.222,15.465c-25.56,0-66.834-6.277-94.774-0.576c-23.452,4.787-25.559,29.464-12.424,39.758
				c8.481,6.648,22.347,9.131,37.615,12.484c58.001,12.742,62.451,10.104,90.177,10.59c13.488,0.236,10.478,15.062,0.733,15.309
				c-59.187,1.494-145.608-21.564-168.866-44.109c-23.258-22.543-63.04-17.444-60.2,13.793
				c2.839,31.238,119.235,107.066,209.164,108.014c75.884,0.799,141.515-37.396,160.165-49.348v1.998
				c0,11.162,8.639,20.211,19.298,20.211h23.402c10.656,0,19.298-9.049,19.298-20.211V253.943
				C431.471,242.779,422.829,233.73,412.173,233.73z"/>
		</g>
	</g>
</g>
<g>
</g>
<g>
</g>
<g>
</g>
<g>
</g>
<g>
</g>
<g>
</g>
<g>
</g>
<g>
</g>
<g>
</g>
<g>
</g>
<g>
</g>
<g>
</g>
<g>
</g>
<g>
</g>
<g>
</g>
</svg>
