<?xml version="1.0" encoding="iso-8859-1"?>
<!-- Generator: Adobe Illustrator 19.0.0, SVG Export Plug-In . SVG Version: 6.00 Build 0)  -->
<svg version="1.1" id="Layer_1" xmlns="http://www.w3.org/2000/svg" xmlns:xlink="http://www.w3.org/1999/xlink" x="0px" y="0px"
	 viewBox="0 0 512 512" style="enable-background:new 0 0 512 512;" xml:space="preserve">
<path style="fill:#806749;" d="M333.16,343.215c-12.099,78.949-80.307,139.416-162.639,139.416S19.98,422.162,7.881,343.215
	c-0.01-0.139-4.49-25.131,22.442-25.131h280.395C337.651,318.084,333.17,343.075,333.16,343.215z"/>
<g>
	<path style="fill:#6A563D;" d="M310.718,318.084H182.968l6.118,136.065c0.172,3.976,1.051,14.487,5.434,26.735
		c71.288-10.419,127.738-66.539,138.64-137.669C333.17,343.075,337.651,318.084,310.718,318.084z"/>
	<path style="fill:#6A563D;" d="M87.774,358.873c-1.998,0-3.954-0.811-5.374-2.22c-1.419-1.419-2.231-3.376-2.231-5.384
		c0-1.997,0.811-3.964,2.231-5.374c1.418-1.419,3.375-2.231,5.374-2.231c2.006,0,3.964,0.811,5.384,2.231
		c1.41,1.419,2.22,3.376,2.22,5.374c0,2.007-0.811,3.964-2.22,5.384C91.738,358.061,89.78,358.873,87.774,358.873z"/>
	<path style="fill:#6A563D;" d="M113.277,395.386c-1.998,0-3.954-0.811-5.374-2.22c-1.419-1.419-2.231-3.376-2.231-5.384
		c0-1.997,0.811-3.964,2.231-5.374c1.418-1.419,3.375-2.231,5.374-2.231c2.006,0,3.964,0.811,5.384,2.231
		c1.41,1.419,2.22,3.376,2.22,5.374c0,2.008-0.811,3.964-2.22,5.384C117.241,394.574,115.283,395.386,113.277,395.386z"/>
	<path style="fill:#6A563D;" d="M143.693,358.873c-1.998,0-3.954-0.811-5.374-2.22c-1.419-1.419-2.231-3.376-2.231-5.384
		c0-1.997,0.811-3.964,2.231-5.374c1.418-1.419,3.375-2.231,5.374-2.231c2.006,0,3.964,0.811,5.384,2.231
		c1.41,1.419,2.22,3.376,2.22,5.374c0,2.007-0.811,3.964-2.22,5.384C147.657,358.061,145.699,358.873,143.693,358.873z"/>
	<path style="fill:#6A563D;" d="M160.54,407.962c-1.998,0-3.954-0.811-5.374-2.22c-1.419-1.419-2.231-3.376-2.231-5.384
		c0-1.997,0.811-3.964,2.231-5.374c1.418-1.419,3.375-2.231,5.374-2.231c2.006,0,3.964,0.811,5.384,2.231
		c1.41,1.419,2.22,3.376,2.22,5.374c0,2.007-0.811,3.964-2.22,5.384C164.505,407.15,162.547,407.962,160.54,407.962z"/>
	<path style="fill:#6A563D;" d="M153.761,458.825c-28.233-3.359-54.501-14.958-75.965-33.542c-3.175-2.749-3.52-7.551-0.772-10.726
		c2.751-3.175,7.553-3.519,10.726-0.772c19.158,16.587,42.604,26.94,67.806,29.939c4.17,0.496,7.473,4.33,6.653,8.449
		C160.54,460.55,154.066,458.862,153.761,458.825z"/>
	<path style="fill:#6A563D;" d="M59.538,406.242c-2.377-2.656-4.356-5.698-6.354-8.642c-2.358-3.476-1.453-8.204,2.023-10.562
		c3.473-2.358,8.202-1.453,10.562,2.023c1.784,2.63,3.694,5.227,5.675,7.718c2.613,3.288,2.066,8.07-1.221,10.684
		C68.823,408.574,64.627,411.93,59.538,406.242z"/>
</g>
<path style="fill:#D1E7F8;" d="M479.918,27.889H246.521c0,0-25.842,0.339-24.421,31.916l0,0l17.632,392.138
	c0.004,0.115,1.288,32.167,30.731,32.167h185.515c29.443,0,30.726-32.054,30.731-32.167l17.632-392.138l0,0
	C505.76,28.227,479.918,27.889,479.918,27.889z"/>
<path style="fill:#B9D8F4;" d="M317.827,451.943L300.196,59.805l0,0c-1.419-31.577,24.421-31.916,24.421-31.916h-78.096
	c0,0-25.842,0.339-24.421,31.916l0,0l17.632,392.138c0.004,0.115,1.288,32.167,30.731,32.167h78.096
	C319.115,484.111,317.832,452.057,317.827,451.943z"/>
<path style="fill:#FFFFFF;" d="M451.72,62.112H278.08c0,0-19.667,0.131-18.701,21.633l15.567,346.213
	c0,0,0.836,19.426,16.925,19.426H437.93c16.088,0,16.925-19.426,16.925-19.426l15.567-346.213
	C471.388,62.242,451.72,62.112,451.72,62.112z"/>
<g>
	<path style="fill:#EBE5DD;" d="M338.533,430.21L322.967,83.998c-0.966-21.503,18.701-21.633,18.701-21.633H278.08
		c0,0-19.668,0.131-18.701,21.633l15.567,346.213c0,0,0.836,19.426,16.925,19.426h63.587
		C339.369,449.635,338.533,430.21,338.533,430.21z"/>
	<circle style="fill:#EBE5DD;" cx="388.842" cy="358.872" r="17.743"/>
	<circle style="fill:#EBE5DD;" cx="406.585" cy="238.008" r="17.743"/>
	<circle style="fill:#EBE5DD;" cx="371.1" cy="129.421" r="17.743"/>
</g>
<path d="M501.756,117.263c-4.17-0.207-7.75,3.058-7.938,7.254l-0.38,8.445c-0.533,7.946,7.486,7.946,7.602,7.946
	c4.041,0,7.407-3.184,7.59-7.262l0.38-8.445C509.2,121.006,505.952,117.452,501.756,117.263z"/>
<path d="M502.612,30.445c-9.158-9.706-21.246-10.141-22.694-10.16H246.421c-1.347,0.018-13.435,0.453-22.594,10.159
	c-6.751,7.156-9.888,17.149-9.324,29.702L225.76,310.48H30.323c-10.456,0-18.475,3.178-23.833,9.447
	c-7.977,9.332-6.524,21.877-6.13,24.406c0.001,0.011,0.003,0.022,0.005,0.033c6.164,40.228,26.593,77.131,57.52,103.91
	c31.248,27.057,71.249,41.958,112.635,41.958c24.143,0,47.387-4.883,69.204-14.492c6.813,10.336,17.555,15.973,30.738,15.973
	h185.515c29.004,0,37.754-25.806,38.327-39.431l13.323-296.302c0.19-4.195-3.06-7.749-7.254-7.938
	c-4.208-0.199-7.75,3.059-7.938,7.254l-13.324,296.315c-0.12,2.548-1.793,24.892-23.133,24.892H270.462
	c-21.339,0-23.012-22.339-23.134-24.905L229.695,59.463c-0.368-8.201,1.34-14.412,5.082-18.461
	c4.613-4.992,11.267-5.475,11.877-5.508h233.133c0.609,0.033,7.262,0.516,11.876,5.508c3.74,4.048,5.45,10.26,5.082,18.462
	l-1.87,41.582c-0.19,4.195,3.06,7.75,7.254,7.939c4.198,0.165,7.75-3.06,7.938-7.255l1.87-41.584
	C512.5,47.592,509.363,37.6,502.612,30.445z M15.397,342.062c-0.003-0.022-0.007-0.046-0.01-0.068
	c-0.05-0.313-1.162-7.711,2.662-12.186c2.338-2.734,6.468-4.121,12.273-4.121h196.121l5.689,126.519
	c0.008,0.253,0.174,4.242,1.551,9.579c-19.904,8.78-41.12,13.24-63.165,13.24C93.704,475.027,27.014,417.864,15.397,342.062z"/>
<path d="M447.257,429.631c-0.021,0.496-0.623,12.148-9.327,12.148H291.871c-8.409,0-9.261-10.946-9.329-12.164l-2.989-66.491
	c-0.189-4.196-3.778-7.433-7.938-7.255c-4.195,0.19-7.444,3.742-7.254,7.939l2.988,66.476c0.398,9.235,6.035,26.702,24.523,26.702
	h146.06c18.487,0,24.124-17.467,24.521-26.688L478.02,84.085c0.397-8.822-1.964-15.992-7.016-21.313
	c-7.56-7.961-18.059-8.259-19.282-8.267H278.03c-1.172,0.008-11.67,0.306-19.23,8.266c-5.052,5.321-7.414,12.491-7.017,21.313
	l11.422,254.029c0.189,4.196,3.756,7.43,7.938,7.255c4.195-0.19,7.444-3.742,7.254-7.939L266.975,83.404
	c-0.201-4.484,0.735-7.877,2.783-10.083c3.039-3.273,7.977-3.583,8.422-3.604H451.62c0.444,0.021,5.385,0.332,8.422,3.605
	c2.049,2.206,2.985,5.599,2.783,10.083L447.257,429.631z"/>
<g>
</g>
<g>
</g>
<g>
</g>
<g>
</g>
<g>
</g>
<g>
</g>
<g>
</g>
<g>
</g>
<g>
</g>
<g>
</g>
<g>
</g>
<g>
</g>
<g>
</g>
<g>
</g>
<g>
</g>
</svg>
