<?xml version="1.0" encoding="iso-8859-1"?>
<!-- Generator: Adobe Illustrator 19.0.0, SVG Export Plug-In . SVG Version: 6.00 Build 0)  -->
<svg version="1.1" id="Layer_1" xmlns="http://www.w3.org/2000/svg" xmlns:xlink="http://www.w3.org/1999/xlink" x="0px" y="0px"
	 viewBox="0 0 108.681 108.681" style="enable-background:new 0 0 108.681 108.681;" xml:space="preserve">
<g>
	<g>
		<path style="fill:#FCCAAE;" d="M36.519,91.758c0-3.261,2.171-6.005,5.144-6.886c-0.29-1.13-0.472-2.303-0.541-3.507h-4.921
			c-3.962,0-7.185-3.217-7.185-7.182c0-3.961,3.222-7.181,7.185-7.181h4.868v-3.459h-11.41c-3.964,0-7.177-3.217-7.177-7.18
			c0-3.966,3.213-7.181,7.177-7.181h11.449c0.048-1.188,0.204-2.343,0.464-3.459H7.462c-3.961,0-7.181-3.216-7.181-7.184
			c0-3.963,3.22-7.178,7.181-7.178H58.91c0.269-0.011,0.537-0.04,0.808-0.04h17.895l-3.309-3.311H59.96
			c-5.854,0-10.605-4.745-10.605-10.603v-3.531c0-0.149,0.019-0.291,0.03-0.443h13.28c-0.004-0.023-0.012-0.045-0.014-0.069h17.624
			l23.268,23.779c3.174,3.345,5.138,7.854,5.138,12.831v30.307c0,10.3-8.354,18.651-18.656,18.651H77.564H59.718H43.701
			C39.738,98.933,36.519,95.722,36.519,91.758z"/>
	</g>
	<g>
		<g>
			<path id="SVGID_1_" style="fill:#FFFAD5;" d="M17.733,45.642c0,2.335-1.893,3.382-4.228,3.382H10.25
				c-2.335,0-4.228-1.047-4.228-3.382V30.31c0-2.335,1.893-3.383,4.228-3.383h3.255c2.335,0,4.228,1.047,4.228,3.383V45.642z"/>
		</g>
		<g>
			<g>
				<rect x="5.325" y="32.653" style="fill:#FFD34E;" width="12.983" height="10.386"/>
			</g>
		</g>
	</g>
	<g>
		<g>
			<path style="fill:#C9EBF2;" d="M11.878,21.788c-0.552,0-1-0.448-1-1V10.75c0-0.552,0.448-1,1-1s1,0.448,1,1v10.038
				C12.878,21.34,12.43,21.788,11.878,21.788z"/>
		</g>
		<g>
			<path style="fill:#C9EBF2;" d="M15.657,21.788c-0.256,0-0.512-0.098-0.707-0.293c-0.391-0.391-0.391-1.024,0-1.414l7.098-7.099
				c0.391-0.391,1.023-0.391,1.414,0c0.391,0.391,0.391,1.023,0,1.414l-7.098,7.099C16.169,21.69,15.913,21.788,15.657,21.788z"/>
		</g>
		<g>
			<path style="fill:#C9EBF2;" d="M8.099,21.788c-0.256,0-0.512-0.098-0.707-0.293l-7.099-7.099c-0.391-0.391-0.391-1.023,0-1.414
				c0.391-0.391,1.023-0.391,1.414,0l7.099,7.099c0.391,0.391,0.391,1.023,0,1.414C8.61,21.69,8.355,21.788,8.099,21.788z"/>
		</g>
	</g>
</g>
<g>
</g>
<g>
</g>
<g>
</g>
<g>
</g>
<g>
</g>
<g>
</g>
<g>
</g>
<g>
</g>
<g>
</g>
<g>
</g>
<g>
</g>
<g>
</g>
<g>
</g>
<g>
</g>
<g>
</g>
</svg>
