<?xml version="1.0" encoding="utf-8"?>
<!-- Generator: Adobe Illustrator 16.0.0, SVG Export Plug-In . SVG Version: 6.00 Build 0)  -->
<!DOCTYPE svg PUBLIC "-//W3C//DTD SVG 1.1//EN" "http://www.w3.org/Graphics/SVG/1.1/DTD/svg11.dtd">
<svg xmlns="http://www.w3.org/2000/svg" xmlns:xlink="http://www.w3.org/1999/xlink" version="1.1" id="Layer_1" x="0px" y="0px" width="512" height="512" viewBox="0 0 512 512" enable-background="new 0 0 512 512" xml:space="preserve">
<g id="power_cable_1">
	<polygon fill="#656D78" points="213.34,286.688 213.34,512 234.668,512 277.348,512 298.66,512 298.66,286.688  "/>
	<g>
		<rect x="192.004" y="302.219" fill="#434A54" width="128" height="81.781"/>
	</g>
	<path opacity="0.1" d="M224.004,373.344c-5.891,0-10.664,4.781-10.664,10.656h21.328   C234.668,378.125,229.895,373.344,224.004,373.344z"/>
	<path opacity="0.1" d="M256.004,373.344c-5.891,0-10.664,4.781-10.664,10.656h21.328   C266.668,378.125,261.895,373.344,256.004,373.344z"/>
	<path opacity="0.1" d="M288.004,373.344c-5.891,0-10.656,4.781-10.656,10.656h21.312   C298.66,378.125,293.895,373.344,288.004,373.344z"/>
	<path fill="#656D78" d="M362.66,181.344c0,5.859-1.5,15.219-3.359,20.781l-14.594,43.766c-1.859,5.562-3.359,14.922-3.359,20.781   v64.016c0,5.844-4.812,10.656-10.688,10.656H181.34c-5.867,0-10.672-4.812-10.672-10.656v-64.016   c0-5.859-1.516-15.219-3.367-20.781l-14.594-43.766c-1.852-5.562-3.367-14.922-3.367-20.781V10.672   C149.34,4.812,154.137,0,160.004,0h192c5.875,0,10.656,4.812,10.656,10.672V181.344z"/>
	<g>
		<rect x="170.668" y="298.688" fill="#434A54" width="170.68" height="21.312"/>
	</g>
	<path fill="#434A54" d="M169.652,256.016c0.625,3.812,1.016,7.688,1.016,10.656v10.672h170.68v-10.672   c0-2.969,0.375-6.844,1-10.656H169.652z"/>
	<g>
		<path fill="#434A54" d="M222.418,0v96.016c0,17.672,14.328,32,32,32c17.68,0,31.992-14.328,31.992-32V0H222.418z"/>
	</g>
	<g>
		<path fill="#434A54" d="M287.754,192.016h-63.75c-5.891,0-10.664,4.766-10.664,10.656s4.773,10.672,10.664,10.672h63.75    c5.891,0,10.656-4.781,10.656-10.672S293.645,192.016,287.754,192.016z"/>
		<path fill="#434A54" d="M224.004,170.672h63.75c5.891,0,10.656-4.781,10.656-10.656c0-5.891-4.766-10.672-10.656-10.672h-63.75    c-5.891,0-10.664,4.781-10.664,10.672C213.34,165.891,218.113,170.672,224.004,170.672z"/>
	</g>
</g>
</svg>
