<?xml version="1.0" encoding="iso-8859-1"?>
<!-- Generator: Adobe Illustrator 19.0.0, SVG Export Plug-In . SVG Version: 6.00 Build 0)  -->
<svg version="1.1" id="Layer_1" xmlns="http://www.w3.org/2000/svg" xmlns:xlink="http://www.w3.org/1999/xlink" x="0px" y="0px"
	 viewBox="0 0 512 512" style="enable-background:new 0 0 512 512;" xml:space="preserve">
<polygon style="fill:#FFFFFF;" points="4,458.584 4,99.704 50.28,53.416 186.808,53.416 235.424,102.032 508,102.048 508,402.168 
	507.928,458.584 "/>
<path style="fill:#999999;" d="M185.152,57.416l46.272,46.272l2.344,2.344h3.312H504V402.16l-0.072,52.424H8V101.36l43.936-43.944
	H185.152 M188.464,49.416H48.616L0,98.048v364.536h511.92l0.08-60.416V98.048H237.08L188.464,49.416z"/>
<g>
	<path style="fill:#E21B1B;" d="M133.464,250.144H114.4l20.44-97.6h19.104l-7.32,34.752c3.656-2.984,7.712-5.432,12.048-7.288
		c3.816-1.504,7.896-2.264,12-2.232c5.016-0.272,9.928,1.504,13.6,4.928c3.384,3.424,5.192,8.104,4.992,12.912
		c-0.216,4.44-0.832,8.848-1.856,13.176l-8.656,41.336H159.56L168.416,208c0.68-2.896,1.152-5.84,1.4-8.8
		c0.096-2.112-0.704-4.168-2.2-5.656c-1.624-1.488-3.784-2.256-5.984-2.136c-3.344,0.056-6.576,1.224-9.184,3.328
		c-3.744,2.832-6.736,6.536-8.728,10.784c-1.952,5.384-3.424,10.928-4.392,16.576L133.464,250.144z"/>
	<path style="fill:#E21B1B;" d="M202.16,193.6l2.928-14.176h9.312l2.328-11.32l21.904-13.176l-5.136,24.496h11.656L242.24,193.6
		h-11.72l-6.184,29.6c-0.712,3.032-1.264,6.096-1.664,9.184c-0.072,1.296,0.44,2.56,1.4,3.432c1.496,0.976,3.28,1.416,5.056,1.232
		c0.84,0,2.952-0.152,6.328-0.464l-3,14.176c-3.328,0.672-6.72,1.008-10.12,1c-5.208,0.448-10.408-0.936-14.712-3.896
		c-3.112-2.704-4.808-6.696-4.592-10.816c0.44-5.072,1.264-10.104,2.464-15.048l5.928-28.424L202.16,193.6z"/>
	<path style="fill:#E21B1B;" d="M256.944,179.448h17.968L273.12,188c5.696-6.224,13.648-9.896,22.08-10.216
		c4.36-0.28,8.688,0.896,12.312,3.328c2.92,2.272,4.888,5.544,5.528,9.184c2.72-3.792,6.328-6.856,10.512-8.92
		c4.384-2.344,9.272-3.576,14.24-3.592c4.816-0.288,9.552,1.336,13.176,4.528c3.208,3.144,4.928,7.512,4.728,12
		c-0.248,4.264-0.872,8.496-1.856,12.648l-9.056,43.2h-19.072l9.048-43.2c1.112-5.416,1.664-8.472,1.664-9.184
		c0.088-1.72-0.552-3.4-1.76-4.624c-1.48-1.232-3.376-1.84-5.296-1.696c-5.216,0.256-9.976,3.072-12.712,7.52
		c-3.568,5.84-5.92,12.336-6.92,19.104l-6.728,32.088h-19.096l8.888-42.76c0.76-3.152,1.272-6.368,1.528-9.6
		c0.056-1.728-0.632-3.408-1.896-4.592c-1.432-1.264-3.312-1.912-5.216-1.8c-2.28,0.056-4.504,0.696-6.464,1.864
		c-2.272,1.288-4.256,3.04-5.832,5.128c-1.856,2.552-3.304,5.384-4.288,8.384c-0.536,1.6-1.4,5.216-2.592,10.848l-6.8,32.488
		h-19.072L256.944,179.448z"/>
	<path style="fill:#E21B1B;" d="M363.856,250.144l20.44-97.6h19.032l-20.368,97.6L363.856,250.144z"/>
</g>
<path d="M133.048,346.952l81.6-37.896v18.016l-61.688,27.016v0.312l61.688,27.016v18.016l-81.6-37.832V346.952z"/>
<path d="M227.2,406.256l36.368-123.2h17.16l-36.368,123.2L227.2,406.256z"/>
<path d="M372.176,362.072l-81.6,37.384v-18.008l63.08-27.048v-0.344l-63.048-27.016v-17.984l81.6,37.384L372.176,362.072z"/>
<g>
</g>
<g>
</g>
<g>
</g>
<g>
</g>
<g>
</g>
<g>
</g>
<g>
</g>
<g>
</g>
<g>
</g>
<g>
</g>
<g>
</g>
<g>
</g>
<g>
</g>
<g>
</g>
<g>
</g>
</svg>
