<?xml version="1.0" encoding="iso-8859-1"?>
<!-- Generator: Adobe Illustrator 19.0.0, SVG Export Plug-In . SVG Version: 6.00 Build 0)  -->
<svg version="1.1" id="Layer_1" xmlns="http://www.w3.org/2000/svg" xmlns:xlink="http://www.w3.org/1999/xlink" x="0px" y="0px"
	 viewBox="0 0 512 512" style="enable-background:new 0 0 512 512;" xml:space="preserve">
<path style="fill:#FFFFFF;" d="M39.632,447.048c-20.744-0.048-37.552-16.856-37.6-37.6V204.24c0.048-20.744,16.856-37.552,37.6-37.6
	h432.736c20.76,0.048,37.576,16.88,37.6,37.64v205.136c-0.048,20.744-16.856,37.552-37.6,37.6L39.632,447.048z"/>
<path style="fill:#E2E2E2;" d="M472.368,168.608L472.368,168.608c19.672,0.032,35.608,15.968,35.632,35.64v205.168
	c-0.024,19.672-15.96,35.608-35.632,35.632H39.632C19.96,445.024,4.024,429.088,4,409.416V204.24
	c0.024-19.672,15.96-35.608,35.632-35.632H472.368 M472.368,164.608H39.632C17.768,164.672,0.064,182.376,0,204.24v205.176
	c0.064,21.864,17.768,39.568,39.632,39.632h432.736c21.864-0.064,39.568-17.768,39.632-39.632V204.248
	C511.936,182.384,494.232,164.68,472.368,164.608z"/>
<rect x="40.4" y="183.376" style="fill:#999999;" width="403.76" height="246.912"/>
<g>
	<path style="fill:#CCCCCC;" d="M24.424,269.8v50.528c-0.008,2.28-1.848,4.12-4.128,4.128l0,0c-2.28-0.008-4.12-1.848-4.128-4.128
		V269.8c0.008-2.28,1.848-4.12,4.128-4.128l0,0C22.576,265.68,24.416,267.52,24.424,269.8z"/>
	<circle style="fill:#CCCCCC;" cx="20.296" cy="343.864" r="4.128"/>
	<path style="fill:#CCCCCC;" d="M497.6,306.832c0,10.784-8.736,19.52-19.52,19.52s-19.52-8.736-19.52-19.52s8.736-19.52,19.52-19.52
		l0,0C488.856,287.328,497.584,296.056,497.6,306.832z M462.552,306.832c0,8.568,6.952,15.52,15.52,15.52s15.52-6.952,15.52-15.52
		s-6.952-15.52-15.52-15.52l0,0c-8.584-0.008-15.544,6.936-15.552,15.52l0,0H462.552z"/>
</g>
<polygon style="fill:#FFFFFF;" points="384.04,295.824 238.328,393.448 92.624,295.824 238.328,198.208 "/>
<polygon points="384.04,228.2 238.328,325.824 92.624,228.2 238.328,130.576 "/>
<polygon style="fill:#E21B1B;" points="384.04,160.576 238.328,258.2 92.624,160.576 238.328,62.952 "/>
<g>
</g>
<g>
</g>
<g>
</g>
<g>
</g>
<g>
</g>
<g>
</g>
<g>
</g>
<g>
</g>
<g>
</g>
<g>
</g>
<g>
</g>
<g>
</g>
<g>
</g>
<g>
</g>
<g>
</g>
</svg>
