<?xml version="1.0" encoding="iso-8859-1"?>
<!-- Generator: Adobe Illustrator 19.0.0, SVG Export Plug-In . SVG Version: 6.00 Build 0)  -->
<svg version="1.1" id="Layer_1" xmlns="http://www.w3.org/2000/svg" xmlns:xlink="http://www.w3.org/1999/xlink" x="0px" y="0px"
	 viewBox="0 0 512 512" style="enable-background:new 0 0 512 512;" xml:space="preserve">
<path style="fill:#4A5A67;" d="M512,256.006C512,397.402,397.394,512.004,256.004,512C114.606,512.004,0,397.402,0,256.006
	C-0.007,114.61,114.606,0,256.004,0C397.394,0,512,114.614,512,256.006z"/>
<path style="fill:#444A54;" d="M511.494,271.438L395.575,155.52c-2.665-2.658-7.346-2.658-10.011,0L256.083,285.17
	c0,0-0.713-0.714-0.719-0.718L126.435,155.52c-2.665-2.658-7.346-2.658-10.011,0l-28.039,28.073c-2.754,2.758-2.754,7.232,0,9.99
	c0,0,162.609,162.815,162.613,162.817c0,0,124.035,124.037,124.041,124.039l1.453,1.455
	C452.849,441.085,506.065,362.713,511.494,271.438z"/>
<path style="fill:#F4F6F9;" d="M423.614,183.593l-28.038-28.073c-2.665-2.658-7.346-2.658-10.011,0L256,285.254L126.435,155.52
	c-2.665-2.658-7.346-2.658-10.011,0l-28.038,28.073c-2.755,2.758-2.755,7.232,0,9.99l162.608,162.816
	c1.332,1.329,3.127,2.075,5.006,2.075c1.878,0,3.673-0.746,5.006-2.075l162.608-162.816
	C426.369,190.825,426.369,186.351,423.614,183.593z M256,341.4L103.382,188.588l18.048-18.068l129.565,129.734
	c2.665,2.658,7.346,2.658,10.011,0l129.565-129.734l18.048,18.068L256,341.4z"/>
<g>
</g>
<g>
</g>
<g>
</g>
<g>
</g>
<g>
</g>
<g>
</g>
<g>
</g>
<g>
</g>
<g>
</g>
<g>
</g>
<g>
</g>
<g>
</g>
<g>
</g>
<g>
</g>
<g>
</g>
</svg>
