<?xml version="1.0" encoding="iso-8859-1"?>
<!-- Generator: Adobe Illustrator 18.0.0, SVG Export Plug-In . SVG Version: 6.00 Build 0)  -->
<!DOCTYPE svg PUBLIC "-//W3C//DTD SVG 1.1//EN" "http://www.w3.org/Graphics/SVG/1.1/DTD/svg11.dtd">
<svg version="1.1" id="Capa_1" xmlns="http://www.w3.org/2000/svg" xmlns:xlink="http://www.w3.org/1999/xlink" x="0px" y="0px"
	 viewBox="0 0 290 290" style="enable-background:new 0 0 290 290;" xml:space="preserve">
<g>
	<path d="M145,59.333c8.284,0,15-6.716,15-15V15c0-8.284-6.716-15-15-15s-15,6.716-15,15v29.333
		C130,52.617,136.715,59.333,145,59.333z"/>
	<path d="M85,59.333c8.284,0,15-6.716,15-15V15c0-8.284-6.716-15-15-15S70,6.716,70,15v29.333C70,52.617,76.715,59.333,85,59.333z"
		/>
	<path d="M205,59.333c8.284,0,15-6.716,15-15V15c0-8.284-6.716-15-15-15s-15,6.716-15,15v29.333
		C190,52.617,196.715,59.333,205,59.333z"/>
	<path d="M250.833,28H240v16.333c0,19.33-15.67,35-35,35c-12.733,0-23.876-6.801-30-16.968c-6.124,10.167-17.267,16.968-30,16.968
		s-23.876-6.801-30-16.968c-6.124,10.167-17.267,16.968-30,16.968c-19.33,0-35-15.67-35-35V28H39.167c-5.247,0-9.5,4.253-9.5,9.5
		v243c0,5.247,4.253,9.5,9.5,9.5h211.667c5.247,0,9.5-4.253,9.5-9.5v-243C260.333,32.253,256.08,28,250.833,28z M230.923,158.743
		c0,8.284-6.716,15-15,15c-8.284,0-15-6.716-15-15v-2.787l-17.65,17.65c-2.001,2.002-4.528,3.396-7.288,4.021l-71.565,16.233
		l-12.662,53.082c-1.643,6.889-7.794,11.522-14.578,11.523c-1.152,0-2.323-0.134-3.493-0.413
		c-8.059-1.923-13.032-10.014-11.11-18.071l14.829-62.164c1.326-5.561,5.698-9.884,11.272-11.147l76.446-17.341l14.587-14.587
		h-2.787c-8.284,0-15-6.716-15-15s6.716-15,15-15h39c8.345,0,15.003,6.807,15,15.005V158.743z"/>
</g>
<g>
</g>
<g>
</g>
<g>
</g>
<g>
</g>
<g>
</g>
<g>
</g>
<g>
</g>
<g>
</g>
<g>
</g>
<g>
</g>
<g>
</g>
<g>
</g>
<g>
</g>
<g>
</g>
<g>
</g>
</svg>
