<?xml version="1.0" encoding="iso-8859-1"?>
<!-- Generator: Adobe Illustrator 19.0.0, SVG Export Plug-In . SVG Version: 6.00 Build 0)  -->
<svg version="1.1" id="Layer_1" xmlns="http://www.w3.org/2000/svg" xmlns:xlink="http://www.w3.org/1999/xlink" x="0px" y="0px"
	 viewBox="0 0 512 512" style="enable-background:new 0 0 512 512;" xml:space="preserve">
<path style="fill:#FF9811;" d="M256,504.405c-8.389,0-15.19-6.801-15.19-15.19V220.617c0-8.389,6.801-15.19,15.19-15.19
	c8.389,0,15.19,6.801,15.19,15.19v268.598C271.191,497.604,264.39,504.405,256,504.405z"/>
<path style="fill:#CC7400;" d="M271.191,355.458V220.617c0-8.389-6.801-15.19-15.19-15.19c-8.389,0-15.19,6.801-15.19,15.19v134.841
	H271.191z"/>
<path style="fill:#FFDA44;" d="M357.969,305.566l-24.404-281.56c-0.804-9.284-8.575-16.41-17.894-16.41H196.329
	c-9.319,0-17.09,7.127-17.894,16.41l-24.404,281.56c-0.435,5.015,1.254,9.982,4.656,13.691c3.402,3.709,8.205,5.822,13.238,5.822
	h168.148c5.033,0,9.836-2.111,13.238-5.822C356.714,315.547,358.404,310.58,357.969,305.566z"/>
<g>
	<path style="fill:#EEBF00;" d="M204.057,305.566l24.404-281.56c0.804-9.284,8.575-16.41,17.894-16.41h-50.025
		c-9.319,0-17.09,7.127-17.894,16.41l-24.404,281.56c-0.434,5.015,1.254,9.982,4.656,13.691c3.402,3.709,8.205,5.822,13.238,5.822
		h50.025c-5.034,0-9.836-2.111-13.238-5.822C205.312,315.547,203.623,310.58,204.057,305.566z"/>
	<path style="fill:#EEBF00;" d="M352.178,238.746l-18.612-214.74c-0.804-9.284-8.575-16.41-17.894-16.41H196.329
		c-9.319,0-17.09,7.127-17.894,16.41l-18.612,214.739l0.66,0.014c7.86,0.168,11.439,3.179,16.856,7.736
		c6.619,5.568,14.856,12.497,30.572,12.497c15.718,0,23.951-6.936,30.567-12.509c5.536-4.663,9.194-7.745,17.518-7.745
		c8.326,0,11.984,3.081,17.521,7.745c6.616,5.573,14.85,12.509,30.571,12.509c15.716,0,23.953-6.929,30.573-12.496
		c5.418-4.558,8.997-7.568,16.858-7.736L352.178,238.746z"/>
</g>
<path style="fill:#8C4E03;" d="M333.566,24.006c-0.804-9.284-8.575-16.41-17.894-16.41H196.329c-9.319,0-17.09,7.127-17.894,16.41
	L160.7,228.635c23.155,0.494,23.469,20.23,47.21,20.23c24.042,0,24.042-20.254,48.084-20.254c24.046,0,24.046,20.254,48.091,20.254
	c23.744,0,24.058-19.736,47.215-20.23L333.566,24.006z"/>
<path style="fill:#663A00;" d="M246.355,7.595h-50.025c-9.319,0-17.09,7.127-17.894,16.41L160.7,228.635
	c23.155,0.494,23.469,20.23,47.21,20.23c0.366,0,0.709-0.019,1.064-0.028l19.486-224.832
	C229.265,14.722,237.036,7.595,246.355,7.595z"/>
<g>
	<path style="fill:#EE8700;" d="M305.579,158.462c-3.899,0-7.215-2.983-7.558-6.94l-9.784-112.89
		c-0.363-4.179,2.731-7.86,6.911-8.223c4.172-0.358,7.861,2.732,8.222,6.912l9.784,112.89c0.363,4.178-2.731,7.86-6.911,8.223
		C306.022,158.452,305.799,158.462,305.579,158.462z"/>
	<path style="fill:#EE8700;" d="M310.764,218.287c-3.899,0-7.215-2.983-7.558-6.939l-1.765-20.363
		c-0.363-4.179,2.731-7.86,6.911-8.223c4.176-0.355,7.861,2.732,8.222,6.911l1.765,20.363c0.363,4.179-2.731,7.86-6.911,8.223
		C311.207,218.277,310.984,218.287,310.764,218.287z"/>
</g>
<g>
	<circle style="fill:#96C8EF;" cx="262.871" cy="123.182" r="10.107"/>
	<circle style="fill:#96C8EF;" cx="253.241" cy="190.404" r="10.107"/>
	<circle style="fill:#96C8EF;" cx="255.995" cy="46.34" r="10.107"/>
</g>
<g>
	<circle style="fill:#F072AE;" cx="235.256" cy="159.021" r="6.883"/>
	<circle style="fill:#F072AE;" cx="246.355" cy="87.536" r="6.883"/>
</g>
<path d="M168.567,137.861c0.224,0.019,0.444,0.028,0.664,0.028c3.898,0,7.215-2.984,7.558-6.94l3.102-35.797
	c0.363-4.178-2.731-7.86-6.911-8.223c-4.169-0.354-7.86,2.732-8.222,6.912l-3.102,35.797
	C161.293,133.817,164.388,137.498,168.567,137.861z"/>
<path d="M365.535,304.909L341.132,23.351C339.981,10.039,329.034,0,315.672,0H196.329c-13.362,0-24.309,10.039-25.462,23.35
	l-3.595,41.481c-0.363,4.178,2.731,7.86,6.911,8.223c4.174,0.365,7.861-2.731,8.222-6.912L186,24.662
	c0.468-5.4,4.908-9.472,10.328-9.472h119.342c5.421,0,9.86,4.072,10.328,9.472l16.585,191.36
	c-8.889,2.076-14.571,6.83-19.334,10.836c-5.754,4.841-9.911,8.337-19.165,8.337c-9.25,0-13.403-3.499-19.152-8.34
	c-6.302-5.307-14.144-11.913-28.939-11.913c-14.793,0-22.635,6.606-28.935,11.913c-5.748,4.842-9.9,8.34-19.149,8.34
	c-9.252,0-13.409-3.497-19.163-8.336c-4.762-4.006-10.443-8.76-19.331-10.836l4.929-56.87c0.363-4.178-2.731-7.86-6.911-8.223
	c-4.172-0.358-7.86,2.732-8.222,6.912l-12.747,147.068c-0.618,7.116,1.796,14.217,6.624,19.481
	c4.828,5.265,11.693,8.284,18.837,8.284h62.301v63.377c0,4.195,3.4,7.595,7.595,7.595c4.196,0,7.595-3.401,7.595-7.595v-63.377
	h15.19v156.541c0,4.188-3.407,7.595-7.595,7.595c-4.188,0-7.595-3.407-7.595-7.595v-54.682c0-4.195-3.4-7.595-7.595-7.595
	c-4.196,0-7.595,3.401-7.595,7.595v54.682c0,12.564,10.222,22.785,22.785,22.785c12.563,0,22.785-10.221,22.785-22.785V332.673
	h60.276c7.143,0,14.008-3.019,18.836-8.284C363.738,319.125,366.153,312.025,365.535,304.909z M347.715,314.123
	c-1.958,2.135-4.743,3.36-7.641,3.36H171.926c-2.897,0-5.682-1.224-7.641-3.36c-1.959-2.135-2.937-5.015-2.687-7.902l6.483-74.8
	c4.216,1.462,7.306,4.049,10.887,7.061c6.304,5.303,14.149,11.903,28.94,11.903c14.793,0,22.635-6.606,28.935-11.913
	c5.748-4.842,9.9-8.34,19.149-8.34c9.251,0,13.404,3.499,19.153,8.34c6.302,5.307,14.144,11.913,28.938,11.913
	c14.792,0,22.638-6.6,28.943-11.903c3.582-3.013,6.673-5.599,10.89-7.061l6.483,74.801
	C350.652,309.108,349.673,311.988,347.715,314.123z"/>
<g>
</g>
<g>
</g>
<g>
</g>
<g>
</g>
<g>
</g>
<g>
</g>
<g>
</g>
<g>
</g>
<g>
</g>
<g>
</g>
<g>
</g>
<g>
</g>
<g>
</g>
<g>
</g>
<g>
</g>
</svg>
