<?xml version="1.0" encoding="iso-8859-1"?>
<!-- Generator: Adobe Illustrator 19.0.0, SVG Export Plug-In . SVG Version: 6.00 Build 0)  -->
<svg version="1.1" id="Layer_1" xmlns="http://www.w3.org/2000/svg" xmlns:xlink="http://www.w3.org/1999/xlink" x="0px" y="0px"
	 viewBox="0 0 512 512" style="enable-background:new 0 0 512 512;" xml:space="preserve">
<g>
	<g>
		<path d="M465.959,97.931H46.041L0,414.069h205.767l33.254-117.512h33.959l33.254,117.512H512L465.959,97.931z M468.518,223.735
			c-13.326-4.005-25.373-11.722-34.646-22.368c-11.213-12.871-17.624-29.206-18.2-46.24h42.854L468.518,223.735z M297.336,113.53
			h155.131l3.786,25.998h-56.225H297.336V113.53z M230.261,113.53h51.476v25.998h-51.476V113.53z M59.533,113.53
			c0,0,155.13,0,155.13,0v25.998H111.97H55.746L59.533,113.53z M53.474,155.127h42.854c-0.576,17.034-6.987,33.369-18.201,46.24
			c-9.273,10.645-21.321,18.363-34.646,22.368L53.474,155.127z M193.968,398.47H18.035l2.271-15.599h178.076L193.968,398.47z
			 M248.201,242.481v38.477h-49.396v15.599h24.005l-20.011,70.715H22.579l18.47-126.825c18.867-4.057,36.043-14.143,48.841-28.834
			c13.686-15.711,21.441-35.685,22.023-56.486h162.286v69.155c0,10.034-8.164,18.199-18.199,18.199H248.201z M289.191,296.557
			h24.005v-15.599h-49.396v-23.786c14.889-3.531,25.998-16.936,25.998-32.89v-69.155h110.289
			c0.582,20.802,8.336,40.775,22.024,56.486c12.798,14.692,29.975,24.777,48.841,28.834l18.47,126.825H309.202L289.191,296.557z
			 M313.617,382.871h178.076l2.272,15.599H318.031L313.617,382.871z"/>
	</g>
</g>
<g>
</g>
<g>
</g>
<g>
</g>
<g>
</g>
<g>
</g>
<g>
</g>
<g>
</g>
<g>
</g>
<g>
</g>
<g>
</g>
<g>
</g>
<g>
</g>
<g>
</g>
<g>
</g>
<g>
</g>
</svg>
