<?xml version="1.0" encoding="iso-8859-1"?>
<!-- Generator: Adobe Illustrator 19.0.0, SVG Export Plug-In . SVG Version: 6.00 Build 0)  -->
<svg version="1.1" id="Layer_1" xmlns="http://www.w3.org/2000/svg" xmlns:xlink="http://www.w3.org/1999/xlink" x="0px" y="0px"
	 viewBox="0 0 512 512" style="enable-background:new 0 0 512 512;" xml:space="preserve">
<g>
	<g>
		<rect x="143.412" y="242.416" width="15.673" height="15.673"/>
	</g>
</g>
<g>
	<g>
		<rect x="122.514" y="284.212" width="15.673" height="15.674"/>
	</g>
</g>
<g>
	<g>
		<rect x="239.543" y="273.763" width="15.673" height="15.674"/>
	</g>
</g>
<g>
	<g>
		<rect x="229.094" y="221.518" width="15.673" height="15.673"/>
	</g>
</g>
<g>
	<g>
		<rect x="259.396" y="315.559" width="15.673" height="15.673"/>
	</g>
</g>
<g>
	<g>
		<rect x="290.743" y="242.416" width="15.673" height="15.673"/>
	</g>
</g>
<g>
	<g>
		<path d="M351.347,200.62v-91.951h-11.238c-3.64-17.864-19.472-31.347-38.395-31.347H174.452c0.2-1.365,0.307-2.76,0.307-4.18
			c0-15.845-12.891-28.735-28.735-28.735c-15.844,0-28.735,12.89-28.735,28.735c0,2.666,0.373,5.244,1.055,7.696
			c-4.247,1.927-8.146,4.592-11.519,7.964c-5.518,5.519-9.186,12.393-10.697,19.867H84.898V512h266.449v-59.559h75.755V200.62
			H351.347z M146.024,60.082c7.203,0,13.061,5.859,13.061,13.061c0,7.202-5.859,13.061-13.061,13.061
			c-7.202,0-13.061-5.859-13.061-13.061C132.963,65.94,138.822,60.082,146.024,60.082z M117.91,99.885
			c2.505-2.506,5.486-4.371,8.755-5.528c5.112,4.669,11.908,7.52,19.359,7.52c8.148,0,15.509-3.415,20.743-8.882h134.946
			c10.216,0,18.927,6.553,22.162,15.673H112.384C113.538,105.407,115.389,102.406,117.91,99.885z M335.673,496.327H100.571v-15.673
			h235.102V496.327z M335.673,464.98H100.571V187.037h52.767v31.347c0,11.523,9.375,20.898,20.898,20.898
			s20.898-9.375,20.898-20.898v-31.347h140.539V464.98z M335.673,171.363H179.461v47.02c0,2.881-2.344,5.224-5.224,5.224
			s-5.224-2.344-5.224-5.224v-47.02h-68.441v-47.02h235.102V171.363z M351.347,242.416h33.959v168.229h-33.959V242.416z
			 M411.429,436.767h-60.082v-10.449h49.633V226.743h-49.633v-10.449h60.082V436.767z"/>
	</g>
</g>
<g>
	<g>
		<rect x="135.053" y="367.804" width="15.673" height="47.02"/>
	</g>
</g>
<g>
	<g>
		<rect x="135.053" y="336.457" width="15.673" height="15.673"/>
	</g>
</g>
<g>
	<g>
		<rect x="235.363" y="430.498" width="15.673" height="15.673"/>
	</g>
</g>
<g>
	<g>
		<rect x="235.363" y="336.457" width="15.673" height="78.367"/>
	</g>
</g>
<g>
	<g>
		<rect x="285.518" y="305.11" width="15.673" height="106.58"/>
	</g>
</g>
<g>
	<g>
		<path d="M114.678,0c-12.963,0-23.51,10.546-23.51,23.51s10.547,23.51,23.51,23.51s23.51-10.546,23.51-23.51S127.641,0,114.678,0z
			 M114.678,31.347c-4.322,0-7.837-3.515-7.837-7.837c0-4.322,3.515-7.837,7.837-7.837s7.837,3.515,7.837,7.837
			C122.514,27.832,118.999,31.347,114.678,31.347z"/>
	</g>
</g>
<g>
	<g>
		<path d="M196.702,27.69c-11.523,0-20.898,9.375-20.898,20.898s9.375,20.898,20.898,20.898S217.6,60.111,217.6,48.588
			S208.225,27.69,196.702,27.69z M196.702,53.812c-2.881,0-5.224-2.344-5.224-5.224s2.344-5.224,5.224-5.224
			c2.881,0,5.224,2.344,5.224,5.224S199.583,53.812,196.702,53.812z"/>
	</g>
</g>
<g>
	<g>
		<rect x="185.208" y="336.457" width="15.673" height="109.714"/>
	</g>
</g>
<g>
	<g>
		<rect x="185.208" y="305.11" width="15.673" height="15.673"/>
	</g>
</g>
<g>
</g>
<g>
</g>
<g>
</g>
<g>
</g>
<g>
</g>
<g>
</g>
<g>
</g>
<g>
</g>
<g>
</g>
<g>
</g>
<g>
</g>
<g>
</g>
<g>
</g>
<g>
</g>
<g>
</g>
</svg>
