<?xml version="1.0" encoding="iso-8859-1"?>
<!-- Generator: Adobe Illustrator 19.0.0, SVG Export Plug-In . SVG Version: 6.00 Build 0)  -->
<svg version="1.1" id="Layer_1" xmlns="http://www.w3.org/2000/svg" xmlns:xlink="http://www.w3.org/1999/xlink" x="0px" y="0px"
	 viewBox="0 0 270 270" style="enable-background:new 0 0 270 270;" xml:space="preserve">
<g id="XMLID_138_">
	<path id="XMLID_169_" d="M45,180c-8.284,0-15-6.716-15-15v-60c0-8.284,6.716-15,15-15h23.789L29.572,50.783
		C11.078,73.888,0,103.172,0,134.998c0,74.441,60.561,135,135.002,135c31.826,0,61.11-11.077,84.215-29.57L158.789,180H45z"/>
	<polygon id="XMLID_197_" points="128.789,150 98.789,120 60,120 60,150 	"/>
	<path id="XMLID_221_" d="M135.002,0.002c-31.827,0-61.111,11.077-84.217,29.569L111.215,90H205h20c8.284,0,15,6.716,15,15v60
		c0,8.284-6.716,15-15,15h-20h-3.785l39.215,39.215C258.922,196.11,270,166.826,270,134.998C270,60.561,209.439,0.002,135.002,0.002
		z"/>
	<polygon id="XMLID_222_" points="190,150 190,120 141.215,120 171.215,150 	"/>
</g>
<g>
</g>
<g>
</g>
<g>
</g>
<g>
</g>
<g>
</g>
<g>
</g>
<g>
</g>
<g>
</g>
<g>
</g>
<g>
</g>
<g>
</g>
<g>
</g>
<g>
</g>
<g>
</g>
<g>
</g>
</svg>
