<?xml version="1.0" encoding="iso-8859-1"?>
<!-- Generator: Adobe Illustrator 19.0.0, SVG Export Plug-In . SVG Version: 6.00 Build 0)  -->
<svg version="1.1" id="Layer_1" xmlns="http://www.w3.org/2000/svg" xmlns:xlink="http://www.w3.org/1999/xlink" x="0px" y="0px"
	 viewBox="0 0 393.051 393.051" style="enable-background:new 0 0 393.051 393.051;" xml:space="preserve">
<path style="fill:#56545F;" d="M302.158,106.15c0,52.687-47.451,84.881-105.826,84.881S90.505,158.772,90.505,106.15
	S137.891,0,196.331,0S302.158,53.463,302.158,106.15z"/>
<g>
	<circle style="fill:#B28967;" cx="131.879" cy="150.691" r="26.699"/>
	<circle style="fill:#B28967;" cx="260.784" cy="150.691" r="26.699"/>
</g>
<path style="fill:#608287;" d="M318.448,268.606l-86.562-21.01h-71.111l-86.497,21.01c-23.337,5.495-39.822,28.315-39.822,54.756
	v69.689h324.137v-69.689C358.271,296.857,341.721,274.101,318.448,268.606z"/>
<path style="fill:#B28967;" d="M156.509,208.032v35.103c0,21.98,17.842,39.822,39.822,39.822l0,0
	c21.98,0,39.822-17.842,39.822-39.822v-35.103L156.509,208.032L156.509,208.032z"/>
<path style="fill:#C19D7B;" d="M128.194,121.083v51.588c0,38.271,31.16,70.465,69.43,69.689
	c36.913-0.776,66.844-30.901,66.844-68.137v-53.204c0-19.911-17.261-42.99-35.879-35.879c-7.887,2.909-11.766,10.473-32.259,10.473
	c-17.261,0-24.113-7.887-32.259-10.473C145.261,79.127,128.194,101.172,128.194,121.083z"/>
<g>
</g>
<g>
</g>
<g>
</g>
<g>
</g>
<g>
</g>
<g>
</g>
<g>
</g>
<g>
</g>
<g>
</g>
<g>
</g>
<g>
</g>
<g>
</g>
<g>
</g>
<g>
</g>
<g>
</g>
</svg>
