<?xml version="1.0" encoding="iso-8859-1"?>
<!-- Generator: Adobe Illustrator 19.0.0, SVG Export Plug-In . SVG Version: 6.00 Build 0)  -->
<svg version="1.1" id="Layer_1" xmlns="http://www.w3.org/2000/svg" xmlns:xlink="http://www.w3.org/1999/xlink" x="0px" y="0px"
	 viewBox="0 0 508.27 508.27" style="enable-background:new 0 0 508.27 508.27;" xml:space="preserve">
<path style="fill:#608287;" d="M417.568,341.785l-163.433-39.672L90.363,341.785c-31.195,7.46-53.234,37.976-53.234,73.24v93.245
	h434.013v-92.906C471.142,380.101,448.763,349.584,417.568,341.785z"/>
<g>
	<path style="fill:#EEB490;" d="M200.901,257.695v46.792c0,29.499,23.735,53.234,53.234,53.234l0,0
		c29.499,0,53.234-23.735,53.234-53.234v-46.792H200.901z"/>
	<circle style="fill:#EEB490;" cx="167.332" cy="178.013" r="35.603"/>
	<circle style="fill:#EEB490;" cx="340.938" cy="178.013" r="35.603"/>
</g>
<path style="fill:#FACCB4;" d="M254.135,57.981L254.135,57.981c-50.183,0-91.211,40.689-91.211,91.211v66.458
	c0,50.522,41.028,91.211,91.211,91.211l0,0c50.183,0,91.211-40.689,91.211-91.211v-66.458
	C345.346,98.67,304.318,57.981,254.135,57.981z"/>
<path style="fill:#56545F;" d="M355.857,71.205C336.53,38.654,295.163,0,254.135,0S171.74,38.654,152.413,71.205
	c-38.993,65.441-72.223,25.091-72.223,25.091s14.919,89.176,72.223,64.424c26.109-11.189,48.148-51.2,101.722-51.2
	c45.097,0,74.935,41.028,101.722,51.2c58.321,22.718,72.223-64.424,72.223-64.424S395.189,136.646,355.857,71.205z"/>
<g>
</g>
<g>
</g>
<g>
</g>
<g>
</g>
<g>
</g>
<g>
</g>
<g>
</g>
<g>
</g>
<g>
</g>
<g>
</g>
<g>
</g>
<g>
</g>
<g>
</g>
<g>
</g>
<g>
</g>
</svg>
