<?xml version="1.0" encoding="iso-8859-1"?>
<!-- Generator: Adobe Illustrator 19.0.0, SVG Export Plug-In . SVG Version: 6.00 Build 0)  -->
<svg version="1.1" id="Layer_1" xmlns="http://www.w3.org/2000/svg" xmlns:xlink="http://www.w3.org/1999/xlink" x="0px" y="0px"
	 viewBox="0 0 508.609 508.609" style="enable-background:new 0 0 508.609 508.609;" xml:space="preserve">
<path style="fill:#608287;" d="M400.445,359.756l-146.14-35.264l-146.14,35.264c-27.804,6.781-47.47,33.907-47.47,65.441v83.412
	h387.221v-83.412C447.915,393.664,428.249,366.538,400.445,359.756z"/>
<path style="fill:#C19D7B;" d="M254.305,38.993L254.305,38.993c-69.849,0-126.474,56.625-126.474,126.474v85.107
	c0,69.849,56.625,126.474,126.474,126.474l0,0c69.849,0,126.474-56.625,126.474-126.474v-84.768
	C380.779,95.619,324.154,38.993,254.305,38.993z"/>
<path style="fill:#EEB490;" d="M332.63,156.313H175.979c-15.597,0-28.143,12.546-28.143,28.143v57.303
	c0,15.597,12.546,28.143,28.143,28.143h49.844l6.442-27.465c2.373-10.172,11.528-17.293,22.04-17.293l0,0
	c10.511,0,19.327,7.121,22.04,17.293l6.442,27.465h49.844c15.597,0,28.143-12.546,28.143-28.143v-57.642
	C360.773,168.858,348.228,156.313,332.63,156.313z"/>
<path style="fill:#F1F3F7;" d="M338.056,358.061h-51.878c-8.816,0-15.936-7.121-15.936-15.936s7.121-15.936,15.936-15.936h51.878
	c26.448,0,47.809-21.362,47.809-47.809V15.936C385.865,7.121,392.985,0,401.801,0s15.936,7.121,15.936,15.936V278.04
	C418.077,322.119,382.135,358.061,338.056,358.061z"/>
<circle style="fill:#FF667C;" cx="254.305" cy="341.785" r="31.873"/>
<rect x="371.624" y="24.413" style="fill:#1B9ED6;" width="59.338" height="55.269"/>
<rect x="360.773" y="192.932" style="fill:#BDBDBE;" width="64.763" height="40.011"/>
<g>
</g>
<g>
</g>
<g>
</g>
<g>
</g>
<g>
</g>
<g>
</g>
<g>
</g>
<g>
</g>
<g>
</g>
<g>
</g>
<g>
</g>
<g>
</g>
<g>
</g>
<g>
</g>
<g>
</g>
</svg>
