<?xml version="1.0" encoding="iso-8859-1"?>
<!-- Generator: Adobe Illustrator 19.0.0, SVG Export Plug-In . SVG Version: 6.00 Build 0)  -->
<svg version="1.1" id="Layer_1" xmlns="http://www.w3.org/2000/svg" xmlns:xlink="http://www.w3.org/1999/xlink" x="0px" y="0px"
	 viewBox="0 0 508.609 508.609" style="enable-background:new 0 0 508.609 508.609;" xml:space="preserve">
<path style="fill:#1B9ED6;" d="M462.156,508.609H46.453v-74.257c0-34.585,25.77-63.746,60.016-67.815l91.55-11.189h112.233
	l91.55,11.189c34.246,4.069,60.016,33.229,60.016,67.815v74.257H462.156z"/>
<path style="fill:#EEB490;" d="M355.687,357.044l-16.615-1.356v-102.4H169.536v102.4l-36.959,3.052v62.05
	c30.856,12.546,73.918,20.683,121.727,20.683c37.976,0,73.24-5.086,101.383-13.224V357.044z"/>
<path style="fill:#FF667C;" d="M254.305,10.85c-71.544,0-129.526,57.981-129.526,129.526v64.763h17.293
	c22.379,38.993,64.424,65.102,112.233,65.102c71.544,0,129.526-57.981,129.526-129.526S325.849,10.85,254.305,10.85z"/>
<g>
	<circle style="fill:#FACCB4;" cx="161.399" cy="216.668" r="36.62"/>
	<circle style="fill:#FACCB4;" cx="347.211" cy="216.668" r="36.62"/>
	<path style="fill:#FACCB4;" d="M157.33,133.595v98.67c0,53.574,43.401,96.975,96.975,96.975s96.975-43.401,96.975-96.975v-98.67
		H157.33z"/>
</g>
<path style="fill:#56545F;" d="M428.588,335.682c12.546-9.155,21.023-23.735,21.023-40.35c0-22.379-14.919-41.706-35.603-47.809
	c11.528-8.816,19.327-22.718,19.327-38.315s-7.46-29.499-19.327-38.315c6.442-9.833,10.172-22.04,10.172-34.585
	c0-28.482-18.649-52.556-44.419-60.694c0-1.017,0-2.034,0-3.052c0-33.907-27.465-61.711-61.711-61.711
	c-5.764,0-11.528,1.017-16.954,2.374C287.534,4.747,271.597,0,253.966,0s-33.907,4.747-47.131,13.224
	c-5.425-1.695-11.189-2.374-16.954-2.374c-33.907,0-61.711,27.465-61.711,61.711c0,1.017,0,2.034,0,3.052
	c-25.77,8.138-44.419,32.212-44.419,60.694c0,12.885,3.73,24.752,10.172,34.585c-11.528,8.816-19.327,22.718-19.327,38.315
	s7.46,29.499,19.327,38.315c-20.683,6.103-35.603,25.091-35.603,47.809c0,16.615,8.138,31.534,21.023,40.35
	c-12.546,7.799-21.023,21.701-21.023,37.637c0,20.344,13.902,37.637,32.551,42.723c-4.747,7.46-7.121,15.936-7.121,25.43
	c0,26.448,21.701,48.148,48.148,48.148s48.148-21.701,48.148-48.148c0-2.034,0-3.73-0.339-5.764
	c14.919-8.138,25.091-24.074,25.091-42.384c0-17.293-9.155-32.551-23.057-41.028c9.155-8.138,15.258-20.005,15.258-33.229
	c0-19.327-12.207-35.603-29.499-41.706c5.764-6.103,9.155-14.241,9.155-23.057c0-9.494-4.069-18.31-10.172-24.413
	c3.052-6.442,4.747-13.224,4.747-20.683c0-4.747-0.678-9.155-2.034-13.224c23.735-8.477,40.689-30.856,41.706-57.303
	c12.546,6.781,27.126,10.511,42.723,10.511s30.177-4.069,42.723-10.511c1.017,26.448,18.31,48.487,41.706,57.303
	c-1.356,4.069-2.034,8.816-2.034,13.224c0,7.46,1.695,14.58,4.747,20.683c-6.442,6.103-10.172,14.919-10.172,24.413
	c0,8.816,3.391,16.954,9.155,23.057c-17.293,6.103-29.499,22.379-29.499,41.706c0,13.224,5.764,25.091,15.258,33.229
	c-13.902,8.477-23.057,23.735-23.057,41.028c0,18.31,10.172,34.246,25.091,42.384c-0.339,2.034-0.339,3.73-0.339,5.764
	c0,26.448,21.701,48.148,48.148,48.148s48.148-21.701,48.148-48.148c0-9.155-2.713-17.971-7.121-25.43
	c18.649-5.086,32.551-22.379,32.551-42.723C449.611,357.722,441.134,343.82,428.588,335.682z"/>
<g>
</g>
<g>
</g>
<g>
</g>
<g>
</g>
<g>
</g>
<g>
</g>
<g>
</g>
<g>
</g>
<g>
</g>
<g>
</g>
<g>
</g>
<g>
</g>
<g>
</g>
<g>
</g>
<g>
</g>
</svg>
