<?xml version="1.0" encoding="iso-8859-1"?>
<!-- Generator: Adobe Illustrator 18.0.0, SVG Export Plug-In . SVG Version: 6.00 Build 0)  -->
<!DOCTYPE svg PUBLIC "-//W3C//DTD SVG 1.1//EN" "http://www.w3.org/Graphics/SVG/1.1/DTD/svg11.dtd">
<svg version="1.1" id="Capa_1" xmlns="http://www.w3.org/2000/svg" xmlns:xlink="http://www.w3.org/1999/xlink" x="0px" y="0px"
	 viewBox="0 0 178.666 178.666" style="enable-background:new 0 0 178.666 178.666;" xml:space="preserve">
<g>
	<rect x="0.089" y="0" style="fill:#E76166;" width="178.488" height="178.488"/>
	<g>
		<path style="fill-rule:evenodd;clip-rule:evenodd;fill:#FFD2C4;" d="M73.612,118.3c-29.128,12.769-37.865,19.576-41.319,22.634
			c-5.323,4.709-8.267,22.265-11.405,37.171h65.897h65.899c-3.14-14.906-6.083-32.462-11.405-37.171
			c-3.453-3.058-11.87-9.689-40.998-22.459L73.612,118.3z"/>
		
			<path style="fill-rule:evenodd;clip-rule:evenodd;fill:#F4A247;stroke:#F4A247;stroke-width:1.1223;stroke-linecap:round;stroke-linejoin:round;stroke-miterlimit:10;" d="
			M73.61,118.3c-29.126,12.769-37.863,19.576-41.317,22.634c-5.323,4.709-8.267,22.265-11.405,37.171h65.897h65.899
			c-3.14-14.906-6.083-32.462-11.405-37.171c-3.453-3.058-11.87-9.689-40.998-22.459L73.61,118.3z"/>
		
			<path style="fill-rule:evenodd;clip-rule:evenodd;fill:#F4A247;stroke:#F4A247;stroke-width:1.1223;stroke-linecap:round;stroke-linejoin:round;stroke-miterlimit:10;" d="
			M86.86,132.153c0,0-19.737,4.712-19.737,5.907c0,1.194,7.51,40.044,7.51,40.044h26.796l3.07-39.873L86.86,132.153z"/>
		
			<polygon style="fill-rule:evenodd;clip-rule:evenodd;fill:#E6D7D7;stroke:#F4A247;stroke-width:1.1223;stroke-linecap:round;stroke-linejoin:round;stroke-miterlimit:10;" points="
			72.643,118.725 72.643,125.132 78.787,178.104 68.223,178.104 56.602,154.511 67.695,147.115 54.138,140.777 66.604,121.434 		"/>
		
			<polygon style="fill-rule:evenodd;clip-rule:evenodd;fill:#E6D7D7;stroke:#F4A247;stroke-width:1.1223;stroke-linecap:round;stroke-linejoin:round;stroke-miterlimit:10;" points="
			100.929,118.759 100.929,125.132 94.725,178.104 105.288,178.104 116.909,154.511 105.817,147.115 119.372,140.777 
			108.294,122.029 		"/>
		<path style="fill-rule:evenodd;clip-rule:evenodd;fill:#FFE7DE;" d="M72.643,92.846v21.616v10.67
			c7.778,9.197,20.506,9.527,28.285,0v-10.67V92.846C100.929,75.412,72.643,75.412,72.643,92.846z"/>
		
			<ellipse transform="matrix(-0.3127 -0.9499 0.9499 -0.3127 -6.9085 155.698)" style="fill-rule:evenodd;clip-rule:evenodd;fill:#FFE7DE;" cx="52.879" cy="80.349" rx="8.211" ry="4.748"/>
		
			<ellipse transform="matrix(0.3128 -0.9498 0.9498 0.3128 6.5393 169.7343)" style="fill-rule:evenodd;clip-rule:evenodd;fill:#FFE7DE;" cx="120.567" cy="80.348" rx="8.211" ry="4.75"/>
		<path style="fill-rule:evenodd;clip-rule:evenodd;fill:#FFE7DE;" d="M86.785,34.881c-47.466,0-29.273,59.599-26.173,64.163
			c3.419,5.035,18.506,16.136,26.173,16.136c7.671,0,22.754-11.101,26.173-16.136C116.059,94.479,134.253,34.881,86.785,34.881z"/>
		<path style="fill:#4A4545;" d="M118.073,80.314c2.331-12.911,0.826-42.986-8.049-41.986c-8.25-9.5-37-11.25-44.875-1
			c-18.027,3.932-9.662,43.16-9.662,43.16c0.564,3.812,1.34,7.309,2.132,10.237c1.207-0.096,2.416-0.18,3.629-0.253
			c-1.306-2.697-2.389-5.47-2.807-7.504c-0.238-1.158-0.763-5.382-0.73-6.305c0.254-7.055,4.761-27.599,12.522-29.211
			c3.024-0.628,10.583,7.083,15.541,7.072c5.209-0.155,11.752-7.923,15.125-7.405c8.064,1.238,14.905,20.103,14.834,29.208
			c-0.009,1.171-1.311,8.162-3.262,13.11c1.299-0.078,2.594-0.169,3.885-0.272c0.657-2.627,1.279-5.621,1.75-8.838L118.073,80.314z"
			/>
	</g>
</g>
<g>
</g>
<g>
</g>
<g>
</g>
<g>
</g>
<g>
</g>
<g>
</g>
<g>
</g>
<g>
</g>
<g>
</g>
<g>
</g>
<g>
</g>
<g>
</g>
<g>
</g>
<g>
</g>
<g>
</g>
</svg>
