<?xml version="1.0" encoding="iso-8859-1"?>
<!-- Generator: Adobe Illustrator 19.0.0, SVG Export Plug-In . SVG Version: 6.00 Build 0)  -->
<svg version="1.1" id="Layer_1" xmlns="http://www.w3.org/2000/svg" xmlns:xlink="http://www.w3.org/1999/xlink" x="0px" y="0px"
	 viewBox="0 0 480 480" style="enable-background:new 0 0 480 480;" xml:space="preserve">
<g>
	<rect x="8" y="388" style="fill:#F2F2F2;" width="464" height="32"/>
	<rect x="24" y="420" style="fill:#F2F2F2;" width="432" height="48"/>
</g>
<path style="fill:#CCCCCC;" d="M472,380H8c-4.424,0-8,3.584-8,8v32c0,4.416,3.576,8,8,8h8v40c0,4.416,3.576,8,8,8h432
	c4.424,0,8-3.584,8-8v-40h8c4.424,0,8-3.584,8-8v-32C480,383.584,476.424,380,472,380z M448,460H32v-32h416V460z M464,412h-8H24h-8
	v-16h448V412z"/>
<path style="fill:#FFFFFF;" d="M440,332H40c-17.672,0-32-14.328-32-32V44c0-17.672,14.328-32,32-32h400c17.672,0,32,14.328,32,32
	v256C472,317.672,457.672,332,440,332z"/>
<rect x="48" y="52" style="fill:#3AADD9;" width="384" height="240"/>
<path d="M432,300H48c-4.424,0-8-3.584-8-8V52c0-4.416,3.576-8,8-8h384c4.424,0,8,3.584,8,8v240C440,296.416,436.424,300,432,300z
	 M56,284h368V60H56V284z"/>
<path style="fill:#FFFFFF;" d="M384,252h-96c-8.84,0-16-7.16-16-16V108c0-8.84,7.16-16,16-16h96c8.84,0,16,7.16,16,16v128
	C400,244.84,392.84,252,384,252z"/>
<path d="M384,260h-96c-13.232,0-24-10.768-24-24V108c0-13.232,10.768-24,24-24h96c13.232,0,24,10.768,24,24v128
	C408,249.232,397.232,260,384,260z M288,100c-4.416,0-8,3.592-8,8v128c0,4.408,3.584,8,8,8h96c4.416,0,8-3.592,8-8V108
	c0-4.408-3.584-8-8-8H288z"/>
<circle cx="303.752" cy="124.72" r="8.752"/>
<circle cx="335.752" cy="124.72" r="8.752"/>
<circle cx="367.752" cy="124.72" r="8.752"/>
<circle cx="303.752" cy="156.72" r="8.752"/>
<circle cx="335.752" cy="156.72" r="8.752"/>
<circle cx="367.752" cy="156.72" r="8.752"/>
<circle cx="303.752" cy="188.72" r="8.752"/>
<circle cx="335.752" cy="188.72" r="8.752"/>
<circle cx="367.752" cy="188.72" r="8.752"/>
<circle cx="303.752" cy="220.72" r="8.752"/>
<circle cx="335.752" cy="220.72" r="8.752"/>
<circle cx="367.752" cy="220.72" r="8.752"/>
<circle style="fill:#FFFFFF;" cx="151" cy="171.664" r="69.664"/>
<circle style="fill:#61BDE1;" cx="151" cy="171.664" r="38.464"/>
<path d="M151,94c-42.824,0-77.664,34.84-77.664,77.664s34.84,77.664,77.664,77.664s77.664-34.84,77.664-77.664S193.824,94,151,94z
	 M151,233.336c-31.168,0-56.944-23.272-61.032-53.336h15.36c3.944,21.656,22.904,38.136,45.672,38.136
	c25.616,0,46.464-20.84,46.464-46.464s-20.84-46.464-46.464-46.464c-23,0-42.096,16.816-45.776,38.8h-15.36
	c3.792-30.392,29.736-54,61.136-54c34,0,61.664,27.664,61.664,61.664C212.664,205.664,185,233.336,151,233.336z M152,164h-30.36
	c3.424-13.072,15.232-22.8,29.36-22.8c16.8,0,30.464,13.664,30.464,30.464S167.8,202.128,151,202.128
	c-13.888,0-25.504-9.4-29.16-22.136H152c4.424,0,8-3.584,8-8S156.424,164,152,164z"/>
<g>
	<path style="fill:#FFFFFF;" d="M120,372H64c-8.84,0-16-7.16-16-16v-24h88v24C136,364.84,128.84,372,120,372z"/>
	<path style="fill:#FFFFFF;" d="M416.496,372h-56c-8.832,0-16.496-7.16-16.496-16v-24h88v24C432,364.84,425.336,372,416.496,372z"/>
</g>
<path d="M440,4H40C17.944,4,0,21.944,0,44v256c0,22.056,17.944,40,40,40v16c0,13.232,10.768,24,24,24h56c13.232,0,24-10.768,24-24
	v-16h192v16c0,13.232,10.992,24,24.496,24h56C429.68,380,440,369.456,440,356v-16c22.056,0,40-17.944,40-40V44
	C480,21.944,462.056,4,440,4z M128,356c0,4.408-3.584,8-8,8H64c-4.416,0-8-3.592-8-8v-16h72V356z M424,356c0,4.56-3.224,8-7.504,8
	h-56c-4.528,0-8.496-3.736-8.496-8v-16h72V356z M464,300c0,13.232-10.768,24-24,24h-8h-88H136H48h-8c-13.232,0-24-10.768-24-24V44
	c0-13.232,10.768-24,24-24h400c13.232,0,24,10.768,24,24V300z"/>
<g>
</g>
<g>
</g>
<g>
</g>
<g>
</g>
<g>
</g>
<g>
</g>
<g>
</g>
<g>
</g>
<g>
</g>
<g>
</g>
<g>
</g>
<g>
</g>
<g>
</g>
<g>
</g>
<g>
</g>
</svg>
