<?xml version="1.0" encoding="iso-8859-1"?>
<!-- Generator: Adobe Illustrator 19.0.0, SVG Export Plug-In . SVG Version: 6.00 Build 0)  -->
<svg version="1.1" id="Layer_1" xmlns="http://www.w3.org/2000/svg" xmlns:xlink="http://www.w3.org/1999/xlink" x="0px" y="0px"
	 viewBox="0 0 512 512" style="enable-background:new 0 0 512 512;" xml:space="preserve">
<g>
	<g>
		<path d="M160.838,257.61H138.23c5.873-10.362,9.198-22.938,9.198-36.917c0-26.029-12.306-46.887-19.643-57.004
			c-12.433-17.147-27.408-27.385-40.056-27.385c-18.736,0-35.4,20.991-40.06,27.424c-7.334,10.124-19.638,30.985-19.638,56.963
			c0,13.978,3.325,26.554,9.198,36.917H14.622C6.548,257.608,0,264.154,0,272.23v190.355c0,8.076,6.548,14.622,14.622,14.622
			h146.216c8.074,0,14.622-6.546,14.622-14.622V272.232C175.46,264.156,168.912,257.61,160.838,257.61z M87.733,165.635
			c7.951,2.391,30.453,26.952,30.453,55.058c0,20.532-10.431,34.833-26.361,36.917h-8.188c-15.93-2.082-26.361-16.385-26.361-36.917
			C57.274,192.615,79.781,168.039,87.733,165.635z M146.216,447.963H73.108v-74.57c0-8.076-6.548-14.622-14.622-14.622
			c-8.074,0-14.622,6.546-14.622,14.622v74.57H29.243v-161.11h52.774c1.875,0.172,3.777,0.273,5.713,0.273s3.838-0.101,5.713-0.273
			h52.774V447.963z"/>
	</g>
</g>
<g>
	<g>
		<path d="M497.378,216.475h-1.265c6.249-10.555,9.788-23.517,9.788-37.967c0-26.031-12.306-46.887-19.641-57.004
			c-12.434-17.148-27.41-27.385-40.057-27.385c-18.735,0-35.399,20.991-40.06,27.424c-7.334,10.124-19.638,30.985-19.638,56.963
			c0,14.449,3.538,27.411,9.788,37.967h-1.265c-8.074,0-14.622,6.546-14.622,14.622v231.49c0,8.076,6.548,14.622,14.622,14.622
			h102.351c8.074,0,14.622-6.546,14.622-14.622V231.096C512,223.021,505.452,216.475,497.378,216.475z M446.207,123.45
			c7.95,2.391,30.451,26.951,30.451,55.058c0,22.244-12.238,37.19-30.455,37.19c-18.217,0-30.455-14.945-30.455-37.19
			C415.747,150.432,438.253,125.854,446.207,123.45z M482.757,447.963h-21.932v-93.578c0-8.076-6.548-14.622-14.622-14.622
			c-8.074,0-14.622,6.546-14.622,14.622v93.578h-21.932V245.718h73.108V447.963z"/>
	</g>
</g>
<g>
	<g>
		<path d="M336.298,156.992h-8.486c6.192-10.528,9.699-23.431,9.699-37.81c0-26.031-12.306-46.887-19.643-57.004
			c-12.433-17.148-27.408-27.385-40.056-27.385c-18.736,0-35.4,20.991-40.06,27.424c-7.334,10.123-19.638,30.985-19.638,56.963
			c0,14.379,3.506,27.283,9.699,37.81h-8.486c-8.074,0-14.622,6.546-14.622,14.622v290.971c0,8.076,6.548,14.622,14.622,14.622
			h116.973c8.074,0,14.622-6.546,14.622-14.622V171.613C350.919,163.539,344.372,156.992,336.298,156.992z M277.814,64.125
			c7.951,2.391,30.452,26.952,30.452,55.058c0,22.244-12.238,37.189-30.455,37.189s-30.455-14.945-30.455-37.189
			C247.356,91.104,269.861,66.527,277.814,64.125z M321.676,447.963h-43.865V310.52c0-8.076-6.548-14.622-14.622-14.622
			c-8.074,0-14.622,6.546-14.622,14.622v137.443h-14.622V186.236h87.73V447.963z"/>
	</g>
</g>
<g>
	<g>
		<path d="M72.819,326.666c-0.189-0.921-0.468-1.842-0.833-2.734c-0.366-0.877-0.819-1.725-1.345-2.515
			c-0.525-0.804-1.139-1.55-1.812-2.222s-1.42-1.287-2.224-1.828c-0.79-0.526-1.638-0.98-2.528-1.345
			c-0.879-0.366-1.798-0.643-2.734-0.833c-1.886-0.38-3.831-0.38-5.717,0c-0.937,0.19-1.842,0.468-2.734,0.833
			c-0.877,0.366-1.725,0.819-2.515,1.345c-0.806,0.541-1.551,1.155-2.224,1.828s-1.287,1.418-1.828,2.222
			c-0.525,0.79-0.98,1.638-1.345,2.515c-0.366,0.892-0.642,1.813-0.833,2.734c-0.19,0.95-0.276,1.901-0.276,2.866
			c0,0.95,0.088,1.915,0.276,2.851c0.192,0.936,0.468,1.857,0.833,2.734c0.366,0.892,0.82,1.74,1.345,2.53
			c0.541,0.804,1.155,1.55,1.828,2.222s1.418,1.287,2.224,1.813c0.79,0.526,1.638,0.98,2.515,1.345
			c0.892,0.366,1.797,0.643,2.734,0.833c0.949,0.19,1.915,0.292,2.866,0.292c0.949,0,1.915-0.102,2.851-0.292
			c0.936-0.19,1.857-0.468,2.734-0.833c0.89-0.366,1.739-0.819,2.528-1.345c0.804-0.526,1.551-1.141,2.224-1.813
			s1.287-1.418,1.812-2.222c0.526-0.79,0.98-1.638,1.345-2.53c0.366-0.877,0.643-1.798,0.833-2.734s0.292-1.901,0.292-2.851
			C73.111,328.567,73.009,327.617,72.819,326.666z"/>
	</g>
</g>
<g>
	<g>
		<path d="M277.523,263.793c-0.19-0.921-0.468-1.842-0.833-2.734c-0.366-0.877-0.819-1.725-1.345-2.515
			c-0.525-0.804-1.139-1.55-1.812-2.223c-0.673-0.673-1.42-1.287-2.224-1.828c-0.79-0.526-1.638-0.98-2.528-1.345
			c-0.879-0.366-1.798-0.643-2.734-0.833c-1.886-0.38-3.831-0.38-5.717,0c-0.937,0.19-1.858,0.468-2.734,0.833
			s-1.725,0.819-2.515,1.345c-0.806,0.541-1.551,1.155-2.224,1.828c-0.687,0.673-1.287,1.418-1.828,2.223
			c-0.525,0.79-0.98,1.638-1.345,2.515c-0.366,0.892-0.642,1.813-0.833,2.734c-0.19,0.95-0.276,1.915-0.276,2.866
			c0,0.95,0.088,1.915,0.276,2.851c0.19,0.936,0.468,1.857,0.833,2.734c0.366,0.892,0.82,1.74,1.345,2.53
			c0.541,0.804,1.141,1.55,1.828,2.222c0.673,0.673,1.418,1.287,2.224,1.813c0.79,0.526,1.638,0.98,2.515,1.345
			s1.797,0.643,2.734,0.833c0.949,0.19,1.915,0.292,2.866,0.292c0.949,0,1.915-0.102,2.851-0.292
			c0.936-0.19,1.857-0.468,2.734-0.833c0.89-0.366,1.739-0.819,2.528-1.345c0.804-0.526,1.551-1.141,2.224-1.813
			c0.673-0.673,1.287-1.418,1.812-2.222c0.526-0.79,0.98-1.638,1.345-2.53c0.366-0.877,0.643-1.798,0.833-2.734
			c0.19-0.936,0.292-1.901,0.292-2.851S277.713,264.744,277.523,263.793z"/>
	</g>
</g>
<g>
	<g>
		<path d="M460.544,307.658c-0.19-0.921-0.468-1.842-0.833-2.734c-0.366-0.877-0.819-1.725-1.345-2.515
			c-0.539-0.804-1.155-1.55-1.828-2.222c-0.673-0.673-1.418-1.287-2.222-1.828c-0.79-0.526-1.638-0.98-2.515-1.345
			c-0.892-0.366-1.813-0.643-2.734-0.833c-1.886-0.38-3.831-0.38-5.717,0c-0.936,0.19-1.858,0.468-2.734,0.833
			c-0.892,0.366-1.74,0.819-2.528,1.345c-0.806,0.541-1.551,1.155-2.224,1.828c-0.673,0.673-1.287,1.418-1.813,2.222
			c-0.525,0.79-0.98,1.638-1.345,2.515c-0.366,0.892-0.642,1.813-0.832,2.734c-0.192,0.95-0.292,1.915-0.292,2.866
			c0,0.95,0.101,1.915,0.292,2.851c0.187,0.936,0.465,1.857,0.831,2.734c0.366,0.892,0.82,1.74,1.345,2.53
			c0.526,0.804,1.141,1.55,1.813,2.222c0.673,0.673,1.418,1.287,2.224,1.813c0.788,0.526,1.636,0.98,2.528,1.345
			c0.877,0.366,1.799,0.643,2.734,0.833c0.936,0.19,1.901,0.292,2.851,0.292c0.949,0,1.915-0.102,2.866-0.292
			c0.921-0.19,1.842-0.468,2.734-0.833c0.877-0.366,1.725-0.819,2.515-1.345c0.804-0.526,1.55-1.141,2.222-1.813
			c2.734-2.72,4.286-6.492,4.286-10.338C460.821,309.574,460.732,308.609,460.544,307.658z"/>
	</g>
</g>
<g>
</g>
<g>
</g>
<g>
</g>
<g>
</g>
<g>
</g>
<g>
</g>
<g>
</g>
<g>
</g>
<g>
</g>
<g>
</g>
<g>
</g>
<g>
</g>
<g>
</g>
<g>
</g>
<g>
</g>
</svg>
