<?xml version="1.0" encoding="iso-8859-1"?>
<!-- Generator: Adobe Illustrator 19.0.0, SVG Export Plug-In . SVG Version: 6.00 Build 0)  -->
<svg version="1.1" id="Layer_1" xmlns="http://www.w3.org/2000/svg" xmlns:xlink="http://www.w3.org/1999/xlink" x="0px" y="0px"
	 viewBox="0 0 491.52 491.52" style="enable-background:new 0 0 491.52 491.52;" xml:space="preserve">
<g>
	<g>
		<path d="M471.04,286.72h-40.96v-20.48c0-11.325-9.155-20.48-20.48-20.48h-61.44c-11.325,0-20.48,9.155-20.48,20.48v20.48H307.2
			V204.8c0-11.325-9.155-20.48-20.48-20.48h-20.48v-40.96h81.92c11.325,0,20.48-9.155,20.48-20.48V20.48
			C368.64,9.155,359.485,0,348.16,0h-81.92v122.88c0-11.325-9.155-20.48-20.48-20.48c-11.325,0-20.48,9.155-20.48,20.48V0h-81.92
			c-11.325,0-20.48,9.155-20.48,20.48v102.4c0,11.325,9.155,20.48,20.48,20.48h81.92v40.96H204.8c-11.325,0-20.48,9.155-20.48,20.48
			v81.92h-20.48v-20.48c0-11.325-9.155-20.48-20.48-20.48H81.92c-11.325,0-20.48,9.155-20.48,20.48v20.48H20.48
			C9.155,286.72,0,295.875,0,307.2v122.88c0,11.325,9.155,20.48,20.48,20.48h40.96v20.48c0,11.325,9.155,20.48,20.48,20.48h61.44
			c11.325,0,20.48-9.155,20.48-20.48v-20.48h163.84v20.48c0,11.325,9.155,20.48,20.48,20.48h61.44c11.325,0,20.48-9.155,20.48-20.48
			v-20.48h40.96c11.325,0,20.48-9.155,20.48-20.48V307.2C491.52,295.875,482.365,286.72,471.04,286.72z M122.88,307.2v122.88v20.48
			H102.4v-20.48V307.2v-20.48h20.48V307.2z M389.12,307.2v122.88v20.48h-20.48v-20.48V307.2v-20.48h20.48V307.2z"/>
	</g>
</g>
<g>
</g>
<g>
</g>
<g>
</g>
<g>
</g>
<g>
</g>
<g>
</g>
<g>
</g>
<g>
</g>
<g>
</g>
<g>
</g>
<g>
</g>
<g>
</g>
<g>
</g>
<g>
</g>
<g>
</g>
</svg>
