<?xml version="1.0" encoding="iso-8859-1"?>
<!-- Generator: Adobe Illustrator 19.0.0, SVG Export Plug-In . SVG Version: 6.00 Build 0)  -->
<svg version="1.1" id="Layer_1" xmlns="http://www.w3.org/2000/svg" xmlns:xlink="http://www.w3.org/1999/xlink" x="0px" y="0px"
	 viewBox="0 0 512 512" style="enable-background:new 0 0 512 512;" xml:space="preserve">
<g>
	<g>
		<path d="M490.7,170.7H448V128c0-11.8-9.5-21.3-21.3-21.3h-21.3V85.3c0-11.8-9.5-21.3-21.3-21.3s-21.3,9.5-21.3,21.3v21.3h-21.3
			c-11.8,0-21.3,9.5-21.3,21.3v42.7h-42.7c-11.8,0-21.3,9.5-21.3,21.3l0.1,64H512v-64C512,180.2,502.5,170.7,490.7,170.7z
			 M405.3,170.7h-42.7v-21.3h42.7V170.7z"/>
	</g>
</g>
<g>
	<g>
		<path d="M405.3,298.7V384c0,11.8-9.5,21.3-21.3,21.3s-21.3-9.5-21.3-21.3v-85.3H258l19.4,194.1c1.1,10.9,10.3,19.2,21.2,19.2
			h170.7c11,0,20.1-8.3,21.2-19.2l19.3-194.1H405.3z"/>
	</g>
</g>
<g>
	<g>
		<rect x="42.7" y="341.3" width="128" height="170.7"/>
	</g>
</g>
<g>
	<g>
		<path d="M108.1,0C51.5,0,0,83.4,0,175.1c0,29.1,8.9,57,25.8,80.7l3.4,4.8c7.2,10.1,11.5,22.6,13.5,38.1h131.9
			c2.9-13.7,8.3-26.8,16.3-38.1l3.4-4.8c16.8-23.7,25.7-51.6,25.8-80.7v-4.4C220.1,73,161,0,108.1,0z"/>
	</g>
</g>
<g>
</g>
<g>
</g>
<g>
</g>
<g>
</g>
<g>
</g>
<g>
</g>
<g>
</g>
<g>
</g>
<g>
</g>
<g>
</g>
<g>
</g>
<g>
</g>
<g>
</g>
<g>
</g>
<g>
</g>
</svg>
