<?xml version="1.0" encoding="iso-8859-1"?>
<!-- Generator: Adobe Illustrator 19.0.0, SVG Export Plug-In . SVG Version: 6.00 Build 0)  -->
<svg version="1.1" id="Layer_1" xmlns="http://www.w3.org/2000/svg" xmlns:xlink="http://www.w3.org/1999/xlink" x="0px" y="0px"
	 viewBox="0 0 491.6 491.6" style="enable-background:new 0 0 491.6 491.6;" xml:space="preserve">
<g>
	<g>
		<path d="M471.1,204.8H348.2h-81.9v-20.5h102.4c11.3,0,20.5-9.2,20.5-20.5V20.5C389.2,9.2,380,0,368.7,0H122.9
			c-11.3,0-20.5,9.2-20.5,20.5v143.4c0,11.3,9.2,20.5,20.5,20.5h102.4v20.5h-81.9H20.5C9.2,204.9,0,214.1,0,225.4v81.9v81.9v81.9
			c0,11.3,9.2,20.5,20.5,20.5h122.9c11.3,0,20.5-9.2,20.5-20.5v-81.9v-61.5h163.8v61.4V471c0,11.3,9.2,20.5,20.5,20.5h122.9
			c11.3,0,20.5-9.2,20.5-20.5v-81.9v-81.9v-81.9C491.6,214,482.4,204.8,471.1,204.8z M122.9,450.5H41v-41h81.9V450.5z M122.9,286.7
			H41v-41h81.9V286.7z M327.7,286.7H163.9v-41h163.8V286.7z M450.6,450.5h-81.9v-41h81.9V450.5z M450.6,286.7h-81.9v-41h81.9V286.7z
			"/>
	</g>
</g>
<g>
</g>
<g>
</g>
<g>
</g>
<g>
</g>
<g>
</g>
<g>
</g>
<g>
</g>
<g>
</g>
<g>
</g>
<g>
</g>
<g>
</g>
<g>
</g>
<g>
</g>
<g>
</g>
<g>
</g>
</svg>
