<?xml version="1.0" encoding="iso-8859-1"?>
<!-- Generator: Adobe Illustrator 19.0.0, SVG Export Plug-In . SVG Version: 6.00 Build 0)  -->
<svg version="1.1" id="Layer_1" xmlns="http://www.w3.org/2000/svg" xmlns:xlink="http://www.w3.org/1999/xlink" x="0px" y="0px"
	 viewBox="0 0 491.52 491.52" style="enable-background:new 0 0 491.52 491.52;" xml:space="preserve">
<g>
	<g>
		<g>
			<path d="M143.36,0H20.48C9.155,0,0,9.175,0,20.48v102.4c0,11.305,9.155,20.48,20.48,20.48h40.96V409.6
				c0,22.589-18.371,40.96-40.96,40.96C9.155,450.56,0,459.735,0,471.04s9.155,20.48,20.48,20.48c24.596,0,46.408-11.1,61.44-28.303
				c15.032,17.203,36.844,28.303,61.44,28.303c11.325,0,20.48-9.175,20.48-20.48s-9.155-20.48-20.48-20.48
				c-22.589,0-40.96-18.371-40.96-40.96V143.36h40.96c11.325,0,20.48-9.175,20.48-20.48V20.48C163.84,9.175,154.685,0,143.36,0z"/>
			<path d="M471.04,245.76h-20.48v-81.92c0-11.305-9.155-20.48-20.48-20.48H266.24c-11.325,0-20.48,9.175-20.48,20.48v81.92h-20.48
				c-11.325,0-20.48,9.175-20.48,20.48V409.6c0,11.305,9.155,20.48,20.48,20.48h20.48v40.96c0,11.305,9.155,20.48,20.48,20.48
				c11.325,0,20.48-9.175,20.48-20.48v-40.96H409.6v40.96c0,11.305,9.155,20.48,20.48,20.48s20.48-9.175,20.48-20.48v-40.96h20.48
				c11.325,0,20.48-9.175,20.48-20.48V266.24C491.52,254.935,482.365,245.76,471.04,245.76z M450.56,389.12h-204.8v-102.4h20.48
				v61.44c0,11.305,9.155,20.48,20.48,20.48H409.6c11.325,0,20.48-9.175,20.48-20.48v-61.44h20.48V389.12z"/>
		</g>
	</g>
</g>
<g>
</g>
<g>
</g>
<g>
</g>
<g>
</g>
<g>
</g>
<g>
</g>
<g>
</g>
<g>
</g>
<g>
</g>
<g>
</g>
<g>
</g>
<g>
</g>
<g>
</g>
<g>
</g>
<g>
</g>
</svg>
