<?xml version="1.0" encoding="iso-8859-1"?>
<!-- Generator: Adobe Illustrator 19.0.0, SVG Export Plug-In . SVG Version: 6.00 Build 0)  -->
<svg version="1.1" id="Layer_1" xmlns="http://www.w3.org/2000/svg" xmlns:xlink="http://www.w3.org/1999/xlink" x="0px" y="0px"
	 viewBox="0 0 491.6 491.6" style="enable-background:new 0 0 491.6 491.6;" xml:space="preserve">
<g>
	<g>
		<path d="M471.1,204.9c-22.9,0-43.6,9.5-58.5,24.7c-14.8-21.8-37.7-37.7-64.4-43.1v-43h37.9c24.2,0,44-19.7,44-44V44
			c0-24.2-19.7-44-44-44H105.5c-24.2,0-44,19.7-44,44v55.4c0,24.2,19.7,44,44,44h37.9v43c-26.7,5.4-49.6,21.3-64.4,43.1
			c-14.9-15.2-35.6-24.7-58.5-24.7C9.2,204.8,0,214,0,225.3s9.2,20.5,20.5,20.5c22.6,0,41,18.4,41,41c0,56.5,45.9,102.4,102.4,102.4
			h61.4v26.2l-108.9,36.3c-10.7,3.6-16.5,15.2-12.9,25.9c2.8,8.6,10.8,14,19.4,14c2.1,0,4.3-0.3,6.5-1l116.4-38.9l116.4,38.8
			c2.2,0.7,4.3,1,6.5,1c8.6,0,16.6-5.4,19.4-14c3.6-10.7-2.2-22.3-12.9-25.9l-108.9-36.3v-26.2h61.4c56.5,0,102.4-45.9,102.4-102.4
			c0-22.6,18.4-41,41-41c11.3,0,20.5-9.2,20.5-20.5C491.6,214.1,482.4,204.9,471.1,204.9z M307.3,184.4h-0.1H184.4v-41h122.9V184.4z
			"/>
	</g>
</g>
<g>
</g>
<g>
</g>
<g>
</g>
<g>
</g>
<g>
</g>
<g>
</g>
<g>
</g>
<g>
</g>
<g>
</g>
<g>
</g>
<g>
</g>
<g>
</g>
<g>
</g>
<g>
</g>
<g>
</g>
</svg>
