<?xml version="1.0" encoding="iso-8859-1"?>
<!-- Generator: Adobe Illustrator 19.0.0, SVG Export Plug-In . SVG Version: 6.00 Build 0)  -->
<svg version="1.1" id="Layer_1" xmlns="http://www.w3.org/2000/svg" xmlns:xlink="http://www.w3.org/1999/xlink" x="0px" y="0px"
	 viewBox="0 0 512 512" style="enable-background:new 0 0 512 512;" xml:space="preserve">
<g transform="translate(0 -1)">
	<g>
		<g>
			<path d="M490.667,193H341.333v106.667H512v-85.333C512,202.557,502.464,193,490.667,193z"/>
			<path d="M341.333,449h45.696c9.536,36.693,42.645,64,82.304,64c11.797,0,21.333-9.557,21.333-21.333s-9.536-21.333-21.333-21.333
				c-15.723,0-29.333-8.64-36.736-21.333h58.069c11.797,0,21.333-9.557,21.333-21.333v-85.333H341.333V449z"/>
			<path d="M234.667,171.667V129c0-9.173-5.845-16.832-13.973-19.84l29.056-29.077c8.341-8.341,8.341-21.824,0-30.165
				c-8.341-8.341-21.824-8.341-30.165,0L192,77.501V22.333C192,10.557,182.464,1,170.667,1c-11.797,0-21.333,9.557-21.333,21.333
				v55.168l-27.584-27.584c-8.341-8.341-21.824-8.341-30.165,0c-8.341,8.341-8.341,21.824,0,30.165l29.077,29.077
				c-8.149,3.008-13.995,10.667-13.995,19.84v42.667c0,7.509,1.536,14.635,3.925,21.333H21.333C9.536,193,0,202.557,0,214.333
				v213.333C0,439.443,9.536,449,21.333,449h58.069C72,461.693,58.389,470.333,42.667,470.333c-11.797,0-21.333,9.557-21.333,21.333
				S30.869,513,42.667,513c39.659,0,72.768-27.307,82.304-64h24.363V231.741c6.699,2.389,13.824,3.925,21.333,3.925
				s14.635-1.536,21.333-3.925V449h106.667V193h-67.925C233.131,186.301,234.667,179.176,234.667,171.667z M192,171.667
				c0,11.755-9.557,21.333-21.333,21.333s-21.333-9.579-21.333-21.333v-21.333H192V171.667z"/>
			<path d="M405.333,171.667c11.797,0,21.333-9.557,21.333-21.333S417.131,129,405.333,129h-64C329.536,129,320,138.557,320,150.333
				s9.536,21.333,21.333,21.333H405.333z"/>
			<path d="M384,107.667c11.797,0,21.333-9.557,21.333-21.333S395.797,65,384,65h-64c-11.797,0-21.333,9.557-21.333,21.333
				s9.536,21.333,21.333,21.333H384z"/>
		</g>
	</g>
</g>
<g>
</g>
<g>
</g>
<g>
</g>
<g>
</g>
<g>
</g>
<g>
</g>
<g>
</g>
<g>
</g>
<g>
</g>
<g>
</g>
<g>
</g>
<g>
</g>
<g>
</g>
<g>
</g>
<g>
</g>
</svg>
