<?xml version="1.0" encoding="iso-8859-1"?>
<!-- Generator: Adobe Illustrator 19.0.0, SVG Export Plug-In . SVG Version: 6.00 Build 0)  -->
<svg version="1.1" id="Layer_1" xmlns="http://www.w3.org/2000/svg" xmlns:xlink="http://www.w3.org/1999/xlink" x="0px" y="0px"
	 viewBox="0 0 330.025 330.025" style="enable-background:new 0 0 330.025 330.025;" xml:space="preserve">
<g>
	<g>
		<g>
			<path d="M107.096,260.02c11.086,0,17.704-6.755,17.704-18.07v-18.934c0-11.109-6.784-18.01-17.704-18.01
				c-10.92,0-17.704,6.901-17.704,18.01v18.934C89.393,253.265,96.01,260.02,107.096,260.02z M103.424,223.016
				c0-3.997,1.388-4.285,3.673-4.285c2.286,0,3.674,0.288,3.674,4.285v18.934c0,4.052-1.388,4.344-3.674,4.344
				c-2.285,0-3.673-0.292-3.673-4.344V223.016z"/>
			<path d="M136.647,259.655c3.936,0,7.018-2.895,7.018-6.59v-11.492h3.795c10.92,0,17.704-6.9,17.704-18.008v-0.611
				c-0.001-11.239-6.573-17.948-17.583-17.948h-11.239c-0.094,0-0.188,0.003-0.282,0.008c-3.664,0.207-6.427,2.983-6.427,6.457
				v41.594C129.632,256.76,132.713,259.655,136.647,259.655z M143.663,218.73h3.795c2.285,0,3.673,0.288,3.673,4.285v0.73
				c0,4.043-1.454,4.346-3.673,4.346h-3.795V218.73z"/>
			<path d="M174.688,259.653h21.743c3.722,0,6.527-2.938,6.527-6.834c0-3.865-2.867-6.893-6.527-6.893h-14.545v-6.918h4.588
				c3.722,0,6.527-2.858,6.527-6.648c0-3.832-2.867-6.834-6.527-6.834h-4.588v-6.797h14.545v0.001c3.66,0,6.527-3.055,6.527-6.955
				c0-3.859-2.806-6.77-6.527-6.77h-21.743c-3.832,0-6.833,2.866-6.833,6.525v41.533
				C167.855,256.758,170.856,259.653,174.688,259.653z"/>
			<path d="M211.931,259.654c3.936,0,7.018-2.895,7.018-6.59v-13.103l7.508,14.614c2.3,4.583,5.773,5.078,7.158,5.078
				c3.936,0,7.018-2.895,7.018-6.59v-41.594c0-3.684-3.017-6.463-7.018-6.463c-4,0-7.016,2.779-7.016,6.465v12.936l-7.058-13.908
				c-0.71-1.358-2.87-5.493-7.61-5.493c-3.998,0-7.014,2.806-7.014,6.525v41.533C204.916,256.759,207.997,259.654,211.931,259.654z"
				/>
			<path d="M315.013,135h-68.787l-54.107-54.107c10.861-8.223,17.894-21.25,17.894-35.893c0-24.813-20.186-45-45-45
				c-24.814,0-45,20.187-45,45c0,14.643,7.033,27.67,17.894,35.893L83.799,135H15.012c-8.284,0-15,6.716-15,15v165.025
				c0,8.284,6.716,15,15,15h300c8.284,0,15-6.716,15-15V150C330.013,141.716,323.297,135,315.013,135z M165.012,30
				c8.271,0,15,6.729,15,15s-6.729,15-15,15s-15-6.729-15-15S156.741,30,165.012,30z M165.012,96.213L203.799,135h-77.574
				L165.012,96.213z M300.013,300.025h-270V165h270V300.025z"/>
		</g>
	</g>
</g>
<g>
</g>
<g>
</g>
<g>
</g>
<g>
</g>
<g>
</g>
<g>
</g>
<g>
</g>
<g>
</g>
<g>
</g>
<g>
</g>
<g>
</g>
<g>
</g>
<g>
</g>
<g>
</g>
<g>
</g>
</svg>
