<?xml version="1.0" encoding="iso-8859-1"?>
<!-- Generator: Adobe Illustrator 19.0.0, SVG Export Plug-In . SVG Version: 6.00 Build 0)  -->
<svg version="1.1" id="Layer_1" xmlns="http://www.w3.org/2000/svg" xmlns:xlink="http://www.w3.org/1999/xlink" x="0px" y="0px"
	 viewBox="0 0 512.002 512.002" style="enable-background:new 0 0 512.002 512.002;" xml:space="preserve">
<path style="fill:#DAEDE2;" d="M440.673,319.98c14.165,65.063,58.748,103.117,58.748,103.117c-0.025,0-0.05-0.013-0.075-0.013
	c-2.629-0.277-78.825-8.63-152.883-27.965c-8.844-2.315-17.65-4.768-26.292-7.397c-35.538-8.995-73.756-30.934-106.866-64.031
	c-42.18-42.193-66.233-92.676-68.472-135.334c-17.348-2.503-32.67-11.221-43.677-23.814c-11.662-13.372-18.455-31.097-17.587-50.42
	c0.113-2.466,0.352-4.894,0.704-7.284c5.082-34.154,34.595-60.585,69.78-61.125c33.714-0.528,62.195,22.229,70.435,53.225
	c44.52-1.195,99.557,23.197,144.958,68.598c40.671,40.671,64.497,89.078,68.158,130.717
	C438.245,305.551,439.113,312.835,440.673,319.98z"/>
<path style="fill:#F78A68;" d="M101.155,164.544l-1.686,0.969l-86.889-30.066l69.604-28.934l2.088,0.327
	c-0.352,2.39-0.591,4.818-0.704,7.284C82.701,133.446,89.494,151.171,101.155,164.544z"/>
<path d="M499.361,435.666c-0.439,0-0.882-0.024-1.33-0.07c-0.776-0.082-78.437-8.381-154.747-28.305
	c-9.578-2.507-18.246-4.944-26.493-7.447c-39.037-9.949-78.937-33.825-112.381-67.256c-4.914-4.911-4.915-12.877-0.004-17.79
	c4.91-4.914,12.877-4.915,17.79-0.003c30.369,30.356,66.259,51.925,101.059,60.733c0.193,0.049,0.385,0.102,0.575,0.16
	c8.012,2.437,16.457,4.813,25.816,7.261c74.487,19.447,150.255,27.545,151.012,27.624c6.91,0.726,11.923,6.916,11.196,13.827
	C511.178,430.862,505.719,435.665,499.361,435.666z"/>
<path d="M191.164,311.313c-3.717,0-7.397-1.639-9.88-4.782l-0.56-0.715c-4.281-5.472-3.316-13.379,2.156-17.66
	c5.473-4.281,13.377-3.316,17.66,2.156l0.487,0.621c4.307,5.451,3.38,13.362-2.072,17.67
	C196.645,310.427,193.894,311.313,191.164,311.313z"/>
<path d="M433.935,288.841c-5.68,0-10.83-3.871-12.22-9.635c-8.52-35.353-30.243-71.851-61.166-102.772
	c-41.185-41.185-93.209-66.071-135.724-64.918c-5.818,0.16-10.997-3.71-12.496-9.344c-6.982-26.262-30.884-44.301-58.081-43.879
	c-28.591,0.44-53.325,22.107-57.533,50.399c-0.294,1.991-0.491,4.018-0.582,6.008c-0.687,15.296,4.463,30.065,14.501,41.575
	c9.309,10.65,22.095,17.626,35.992,19.631c5.944,0.858,10.453,5.794,10.767,11.791c1.31,24.928,10.635,52.321,26.97,79.218
	c3.607,5.938,1.716,13.676-4.221,17.282c-5.939,3.609-13.676,1.717-17.282-4.222c-16.439-27.068-26.627-54.94-29.754-81.222
	c-15.95-4.325-30.399-13.318-41.424-25.931C77.364,156.403,70.023,135.36,71,113.56c0.131-2.843,0.409-5.716,0.828-8.556
	c6.003-40.351,41.269-71.241,82.032-71.869c0.447-0.006,0.898-0.01,1.344-0.01c34.949,0,65.84,21.367,78.401,53.318
	c47.661,2.034,101.049,28.513,144.735,72.2c34.151,34.151,58.242,74.874,67.834,114.668c1.628,6.754-2.529,13.55-9.283,15.178
	C435.903,288.726,434.912,288.841,433.935,288.841z"/>
<path d="M499.415,435.677c-2.888,0-5.792-0.989-8.161-3.012c-1.952-1.666-47.978-41.593-62.873-110.01
	c-1.869-8.563-2.75-16.951-3.309-23.3c-0.572-6.505-1.702-13.286-3.356-20.15c-1.628-6.754,2.529-13.55,9.283-15.176
	c6.758-1.625,13.55,2.529,15.176,9.283c1.946,8.072,3.277,16.095,3.96,23.84c0.731,8.329,1.603,14.542,2.827,20.145
	c13.113,60.234,54.212,95.88,54.625,96.233c5.284,4.51,5.911,12.45,1.401,17.735C506.501,434.179,502.969,435.677,499.415,435.677z"
	/>
<path d="M238.599,478.876c-3.046,0-6.1-1.099-8.518-3.326c-5.111-4.706-5.44-12.664-0.733-17.775l40.996-44.525l-17.585-44.713
	c-2.542-6.466,0.638-13.769,7.103-16.311c6.471-2.545,13.769,0.638,16.312,7.103l20.467,52.043
	c1.762,4.483,0.811,9.581-2.453,13.125l-46.332,50.319C245.377,477.51,241.993,478.876,238.599,478.876z"/>
<path d="M308.329,478.876c-3.046,0-6.1-1.099-8.518-3.326c-5.111-4.706-5.44-12.664-0.733-17.775l40.996-44.525l-5.32-13.527
	c-0.576-1.467-0.872-3.028-0.872-4.603c0-6.948,5.633-12.586,12.58-12.586c5.477,0,10.138,3.497,11.864,8.382l8.046,20.459
	c1.762,4.483,0.81,9.58-2.453,13.125l-46.332,50.319C315.106,477.51,311.723,478.876,308.329,478.876z"/>
<path d="M99.471,178.095c-1.365,0-2.752-0.224-4.115-0.696L8.467,147.333c-4.935-1.707-8.303-6.286-8.461-11.506
	c-0.16-5.219,2.922-9.995,7.744-11.999l69.604-28.934c6.416-2.667,13.779,0.371,16.446,6.788c2.666,6.416-0.372,13.779-6.788,16.444
	L47.939,134.37l55.641,19.253c6.567,2.272,10.046,9.436,7.776,16.002C109.558,174.829,104.684,178.095,99.471,178.095z"/>
<path d="M160.709,116.577c-6.947,0-12.58-5.632-12.58-12.58v-0.843c0-6.948,5.633-12.58,12.58-12.58
	c6.947,0,12.58,5.632,12.58,12.58v0.843C173.288,110.945,167.655,116.577,160.709,116.577z"/>
<path d="M499.421,435.677c-0.726,0-1.467-0.065-2.191-0.192c-0.165-0.028-0.328-0.059-0.492-0.094
	c-80.442-17.046-145.993-52.891-189.563-103.659c-36.043-41.998-56.194-94.067-55.283-142.854c0.13-6.947,5.9-12.493,12.813-12.343
	c6.945,0.13,12.473,5.866,12.343,12.813c-0.796,42.697,17.145,88.623,49.222,125.999c39.893,46.485,100.548,79.462,175.413,95.374
	c5.868,1.065,10.319,6.202,10.319,12.377C512.001,430.045,506.368,435.677,499.421,435.677z"/>
<g>
</g>
<g>
</g>
<g>
</g>
<g>
</g>
<g>
</g>
<g>
</g>
<g>
</g>
<g>
</g>
<g>
</g>
<g>
</g>
<g>
</g>
<g>
</g>
<g>
</g>
<g>
</g>
<g>
</g>
</svg>
