<?xml version="1.0" encoding="iso-8859-1"?>
<!-- Generator: Adobe Illustrator 19.0.0, SVG Export Plug-In . SVG Version: 6.00 Build 0)  -->
<svg version="1.1" id="Layer_1" xmlns="http://www.w3.org/2000/svg" xmlns:xlink="http://www.w3.org/1999/xlink" x="0px" y="0px"
	 viewBox="0 0 512 512" style="enable-background:new 0 0 512 512;" xml:space="preserve">
<g>
	<g>
		<path d="M216.099,52.128c0-4.513,0.798-5.902,2.928-9.616c2.932-5.107,7.359-12.823,7.359-26.237h-33.391
			c0,4.513-0.798,5.903-2.928,9.616c-2.932,5.107-7.359,12.823-7.359,26.237c0,13.414,4.429,21.13,7.359,26.237
			c2.13,3.713,2.928,5.102,2.928,9.614c0,4.511-0.798,5.9-2.928,9.613c-2.93,5.106-7.359,12.821-7.359,26.233h33.391
			c0-4.51,0.798-5.899,2.928-9.611c2.931-5.107,7.359-12.823,7.359-26.236c0-13.412-4.429-21.129-7.359-26.236
			C216.897,58.031,216.099,56.642,216.099,52.128z"/>
	</g>
</g>
<g>
	<g>
		<path d="M318.974,52.128c0-4.513,0.798-5.902,2.928-9.616c2.932-5.107,7.359-12.823,7.359-26.237H295.87
			c0,4.513-0.798,5.903-2.928,9.616c-2.932,5.107-7.359,12.823-7.359,26.237c0,13.414,4.429,21.13,7.359,26.237
			c2.13,3.713,2.928,5.102,2.928,9.614c0,4.511-0.798,5.9-2.928,9.613c-2.93,5.106-7.359,12.821-7.359,26.233h33.391
			c0-4.51,0.797-5.899,2.928-9.611c2.931-5.107,7.359-12.823,7.359-26.236c0-13.412-4.429-21.129-7.359-26.236
			C319.772,58.031,318.974,56.642,318.974,52.128z"/>
	</g>
</g>
<g>
	<g>
		<rect x="156.316" y="452.204" width="199.357" height="43.52"/>
	</g>
</g>
<g>
	<g>
		<path d="M0,182.4v16.696c0,53.357,16.256,104.492,47.013,147.88c20.814,29.362,47.141,53.684,77.483,71.834h263.008
			c30.343-18.149,56.669-42.471,77.483-71.834C495.744,303.588,512,252.452,512,199.096V182.4H0z"/>
	</g>
</g>
<g>
</g>
<g>
</g>
<g>
</g>
<g>
</g>
<g>
</g>
<g>
</g>
<g>
</g>
<g>
</g>
<g>
</g>
<g>
</g>
<g>
</g>
<g>
</g>
<g>
</g>
<g>
</g>
<g>
</g>
</svg>
