<?xml version="1.0" encoding="iso-8859-1"?>
<!-- Generator: Adobe Illustrator 19.0.0, SVG Export Plug-In . SVG Version: 6.00 Build 0)  -->
<svg version="1.1" id="Layer_1" xmlns="http://www.w3.org/2000/svg" xmlns:xlink="http://www.w3.org/1999/xlink" x="0px" y="0px"
	 viewBox="0 0 512 512" style="enable-background:new 0 0 512 512;" xml:space="preserve">
<g>
	<g>
		<path d="M151.041,8.766H75.459C33.784,8.765,0,42.55,0,84.225V98.99h226.5V84.225C226.5,42.55,192.716,8.766,151.041,8.766z
			 M65.063,73.282c-8.871,0-16.062-7.191-16.062-16.062s7.191-16.062,16.062-16.062c8.871,0,16.062,7.191,16.062,16.062
			S73.934,73.282,65.063,73.282z M113.25,73.282c-8.871,0-16.062-7.191-16.062-16.062s7.191-16.062,16.062-16.062
			c8.871,0,16.062,7.191,16.062,16.062S122.121,73.282,113.25,73.282z M161.437,73.282c-8.871,0-16.062-7.191-16.062-16.062
			s7.191-16.062,16.062-16.062s16.062,7.191,16.062,16.062C177.498,66.091,170.307,73.282,161.437,73.282z"/>
	</g>
</g>
<g>
	<g>
		<path d="M198.305,174.071v-41.689H28.195v41.689H0v329.164h48.367v-68.466h33.391v68.466h62.983v-68.466h33.391v68.466H226.5
			V174.071H198.305z M115.809,346.611c-13.511,0-29.382-4.329-40.533-10.887l11.019-22.431c0,0,15.609,10.231,29.907,10.231
			c5.51,0,7.477-1.574,7.477-4.067c-0.002-5.377-9.578-6.557-20.727-10.361c-16.396-5.51-23.611-12.462-23.611-26.103
			c0-20.595,16.396-31.481,34.76-31.481c13.511,0,26.497,5.902,34.892,10.1l-11.018,21.12c0,0-13.511-8.527-24.661-8.527
			c-4.46,0-7.477,1.312-7.477,4.591c0,4.853,6.559,5.901,17.316,9.313c17.183,5.378,28.071,11.412,28.071,28.858
			C151.225,339.396,133.123,346.611,115.809,346.611z"/>
	</g>
</g>
<g>
	<g>
		<path d="M401.439,274.597h-12.856v19.938h13.51c3.149,0,6.428-2.492,6.428-9.97C408.523,276.827,404.588,274.597,401.439,274.597z
			"/>
	</g>
</g>
<g>
	<g>
		<path d="M436.541,8.766H360.96c-41.675,0-75.459,33.785-75.459,75.459V98.99H512V84.225C512,42.55,478.216,8.766,436.541,8.766z
			 M398.75,73.282c-8.871,0-16.062-7.191-16.062-16.062s7.191-16.062,16.062-16.062s16.062,7.191,16.062,16.062
			S407.621,73.282,398.75,73.282z"/>
	</g>
</g>
<g>
	<g>
		<path d="M483.805,174.071v-41.689H313.695v41.689H285.5v329.164h48.367v-68.466h33.391v68.466h62.983v-68.466h33.391v68.466H512
			V174.071H483.805z M403.801,316.835h-15.216v28.595h-25.579v-93.133h40.139c18.233,0,31.35,16.396,31.35,32.269
			C434.494,301.094,422.165,316.835,403.801,316.835z"/>
	</g>
</g>
<g>
</g>
<g>
</g>
<g>
</g>
<g>
</g>
<g>
</g>
<g>
</g>
<g>
</g>
<g>
</g>
<g>
</g>
<g>
</g>
<g>
</g>
<g>
</g>
<g>
</g>
<g>
</g>
<g>
</g>
</svg>
