<?xml version="1.0" encoding="iso-8859-1"?>
<!-- Generator: Adobe Illustrator 19.0.0, SVG Export Plug-In . SVG Version: 6.00 Build 0)  -->
<svg version="1.1" id="Layer_1" xmlns="http://www.w3.org/2000/svg" xmlns:xlink="http://www.w3.org/1999/xlink" x="0px" y="0px"
	 viewBox="0 0 502.767 502.767" style="enable-background:new 0 0 502.767 502.767;" xml:space="preserve">
<g transform="translate(1 1)">
	<g>
		<path style="fill:#FFE100;" d="M82.095,166.449c-5.036,0-8.393-3.357-8.393-8.393s3.357-8.393,8.393-8.393
			c31.056,0,57.915-20.984,65.469-51.2c3.357-14.269,15.948-24.341,30.216-24.341h21.823c5.036,0,8.393,3.357,8.393,8.393
			s-3.357,8.393-8.393,8.393H177.78c-6.715,0-11.751,5.036-13.43,11.751C155.118,140.429,121.544,166.449,82.095,166.449z"/>
		<path style="fill:#FFE100;" d="M434.62,166.449c-38.61,0-72.184-26.02-81.416-63.79c-1.679-6.715-6.715-11.751-13.43-11.751
			h-22.662c-5.036,0-8.393-3.357-8.393-8.393s3.357-8.393,8.393-8.393h21.823c14.269,0,26.859,10.072,30.216,24.341
			c7.554,30.216,34.413,51.2,65.469,51.2c5.036,0,8.393,3.357,8.393,8.393S439.656,166.449,434.62,166.449z"/>
	</g>
	<polygon style="fill:#FDCC00;" points="191.21,90.908 308.718,90.908 308.718,57.334 191.21,57.334 	"/>
	<g>
		<polygon style="fill:#FFE100;" points="90.489,351.105 140.849,351.105 140.849,149.662 90.489,149.662 		"/>
		<polygon style="fill:#FFE100;" points="359.079,351.105 409.439,351.105 409.439,149.662 359.079,149.662 		"/>
		<path style="fill:#FFE100;" d="M90.489,149.662H40.128v132.616c0,19.305,15.948,35.252,36.092,35.252h14.269V149.662z"/>
		<polygon style="fill:#FFE100;" points="359.079,149.662 140.849,149.662 140.849,317.531 216.39,317.531 350.685,317.531 
			359.079,317.531 		"/>
		<path style="fill:#FFE100;" d="M409.439,149.662v167.869h15.108c19.305,0,35.252-15.948,35.252-35.252V149.662H409.439z"/>
		<path style="fill:#FFE100;" d="M459.8,166.449v115.829c0,19.305-15.948,35.252-35.252,35.252h-15.108v33.574h-8.393v33.574
			l-16.787,16.787l-16.787-16.787v-33.574h-8.393v-33.574h-8.393H216.39h-75.541v33.574h-8.393v33.574l-16.787,16.787
			l-16.787-16.787v-33.574h-8.393v-33.574H76.22c-20.144,0-36.092-15.948-36.092-35.252V166.449H29.216
			c-12.59,0-22.662,10.072-22.662,21.823v232.498c0,12.59,10.072,22.662,22.662,22.662h153.6h134.295h154.439
			c12.59,0,21.823-10.072,21.823-21.823V188.272c0-12.59-10.072-21.823-21.823-21.823H459.8z"/>
	</g>
	<path style="fill:#FFA800;" d="M471.551,166.449H459.8v0.839c9.233,2.518,16.787,10.911,16.787,20.984v232.498
		c0,12.59-10.072,21.823-21.823,21.823h16.787c12.59,0,21.823-10.072,21.823-21.823V188.272
		C493.374,176.521,484.141,166.449,471.551,166.449"/>
	<path style="fill:#FFFFFF;" d="M29.216,166.449h10.911v0.839c-9.233,2.518-16.787,10.911-16.787,20.984v232.498
		c0,12.59,10.072,22.662,22.662,22.662H29.216c-12.59,0-22.662-10.072-22.662-21.823V188.272
		C6.554,176.521,16.626,166.449,29.216,166.449"/>
	<g>
		<polygon style="fill:#FDCC00;" points="98.882,351.105 132.456,351.105 132.456,384.679 115.669,401.466 98.882,384.679 		"/>
		<polygon style="fill:#FDCC00;" points="367.472,351.105 401.046,351.105 401.046,384.679 384.259,401.466 367.472,384.679 		"/>
	</g>
	<path d="M140.849,359.498H90.489c-5.036,0-8.393-3.357-8.393-8.393V149.662c0-5.036,3.357-8.393,8.393-8.393h50.361
		c5.036,0,8.393,3.357,8.393,8.393v201.443C149.243,356.141,145.885,359.498,140.849,359.498z M98.882,342.711h33.574V158.056
		H98.882V342.711z"/>
	<path d="M115.669,409.859c-2.518,0-4.197-0.839-5.875-2.518l-16.787-16.787c-1.679-1.679-2.518-3.357-2.518-5.875v-33.574
		c0-5.036,3.357-8.393,8.393-8.393h33.574c5.036,0,8.393,3.357,8.393,8.393v33.574c0,2.518-0.839,4.197-2.518,5.875l-16.787,16.787
		C119.866,409.02,118.187,409.859,115.669,409.859z M107.275,381.321l8.393,8.393l8.393-8.393v-21.823h-16.787V381.321z"/>
	<path d="M409.439,359.498h-50.361c-5.036,0-8.393-3.357-8.393-8.393V149.662c0-5.036,3.357-8.393,8.393-8.393h50.361
		c5.036,0,8.393,3.357,8.393,8.393v201.443C417.833,356.141,414.475,359.498,409.439,359.498z M367.472,342.711h33.574V158.056
		h-33.574V342.711z"/>
	<path d="M384.259,409.859c-2.518,0-4.197-0.839-5.875-2.518l-16.787-16.787c-1.679-1.679-2.518-3.357-2.518-5.875v-33.574
		c0-5.036,3.357-8.393,8.393-8.393h33.574c5.036,0,8.393,3.357,8.393,8.393v33.574c0,2.518-0.839,4.197-2.518,5.875l-16.787,16.787
		C388.456,409.02,386.777,409.859,384.259,409.859z M375.866,381.321l8.393,8.393l8.393-8.393v-21.823h-16.787V381.321z"/>
	<path d="M90.489,325.925H76.22c-24.341,0-44.485-20.144-44.485-43.646V149.662c0-5.036,3.357-8.393,8.393-8.393h50.361
		c5.036,0,8.393,3.357,8.393,8.393v167.869C98.882,322.567,95.525,325.925,90.489,325.925z M48.521,158.056v124.223
		c0,14.269,12.59,26.859,27.698,26.859h5.875V158.056H48.521z"/>
	<path d="M359.079,325.925h-218.23c-5.036,0-8.393-3.357-8.393-8.393V149.662c0-5.036,3.357-8.393,8.393-8.393h218.23
		c5.036,0,8.393,3.357,8.393,8.393v167.869C367.472,322.567,364.115,325.925,359.079,325.925z M149.243,309.138h201.443V158.056
		H149.243V309.138z"/>
	<path d="M424.548,325.925h-15.108c-5.036,0-8.393-3.357-8.393-8.393V149.662c0-5.036,3.357-8.393,8.393-8.393H459.8
		c5.036,0,8.393,3.357,8.393,8.393v132.616C468.193,305.78,448.889,325.925,424.548,325.925z M417.833,309.138h6.715
		c15.108,0,26.859-12.59,26.859-26.859V158.056h-33.574V309.138z"/>
	<path d="M471.551,451.826H29.216C12.43,451.826-1,438.397-1,421.61V188.272c0-16.787,13.43-30.216,30.216-30.216h10.911
		c5.036,0,8.393,3.357,8.393,8.393v115.829c0,14.269,12.59,26.859,27.698,26.859h14.269c5.036,0,8.393,3.357,8.393,8.393v25.18
		c5.036,0,8.393,3.357,8.393,8.393v30.216l8.393,8.393l8.393-8.393v-30.216c0-5.036,3.357-8.393,8.393-8.393v-25.18
		c0-5.036,3.357-8.393,8.393-8.393h218.23c5.036,0,8.393,3.357,8.393,8.393v25.18c5.036,0,8.393,3.357,8.393,8.393v30.216
		l8.393,8.393l8.393-8.393v-30.216c0-5.036,3.357-8.393,8.393-8.393v-25.18c0-5.036,3.357-8.393,8.393-8.393h15.108
		c15.108,0,26.859-12.59,26.859-26.859V166.449c0-5.036,3.357-8.393,8.393-8.393h11.751c16.787,0,30.216,13.43,30.216,30.216
		v232.498C501.767,438.397,488.338,451.826,471.551,451.826z M29.216,174.843c-7.554,0-14.269,5.875-14.269,13.43v232.498
		c0,8.393,6.715,14.269,14.269,14.269h442.334c7.554,0,13.429-5.875,13.429-13.429V188.272c0-7.554-5.875-13.43-13.429-13.43h-3.357
		v107.436c0,24.341-20.144,43.646-43.646,43.646h-6.715v25.18c0,5.036-3.357,8.393-8.393,8.393v25.18
		c0,2.518-0.839,4.197-2.518,5.875l-16.787,16.787c-3.357,3.357-8.393,3.357-11.751,0l-16.787-16.787
		c-1.679-1.679-2.518-3.357-2.518-5.875v-25.18c-5.036,0-8.393-3.357-8.393-8.393v-25.18H149.243v25.18
		c0,5.036-3.357,8.393-8.393,8.393v25.18c0,2.518-0.839,4.197-2.518,5.875l-16.787,16.787c-3.357,3.357-8.393,3.357-11.751,0
		l-16.787-16.787c-1.679-1.679-2.518-3.357-2.518-5.875v-25.18c-5.036,0-8.393-3.357-8.393-8.393v-25.18H76.22
		c-24.341,0-44.485-20.144-44.485-43.646V174.843H29.216z"/>
	<path d="M308.718,99.302H191.21c-5.036,0-8.393-3.357-8.393-8.393V57.334c0-5.036,3.357-8.393,8.393-8.393h117.508
		c5.036,0,8.393,3.357,8.393,8.393v33.574C317.111,95.944,313.754,99.302,308.718,99.302z M199.603,82.515h100.721V65.728H199.603
		V82.515z"/>
	<path d="M73.702,158.056c-5.036,0-8.393-3.357-8.393-8.393c0-5.036,3.357-8.393,8.393-8.393c31.056,0,57.915-20.984,65.469-51.2
		c3.357-14.269,15.948-24.341,30.216-24.341h21.823c5.036,0,8.393,3.357,8.393,8.393s-3.357,8.393-8.393,8.393h-21.823
		c-6.715,0-11.751,5.036-13.43,11.751C146.725,132.036,113.151,158.056,73.702,158.056z"/>
	<path d="M426.226,158.056c-38.61,0-72.184-26.02-81.416-63.79c-1.679-6.715-6.715-11.751-13.43-11.751h-22.662
		c-5.036,0-8.393-3.357-8.393-8.393s3.357-8.393,8.393-8.393h21.823c14.269,0,26.859,10.072,30.216,24.341
		c7.554,30.216,34.413,51.2,65.469,51.2c5.036,0,8.393,3.357,8.393,8.393C434.62,154.698,431.262,158.056,426.226,158.056z"/>
</g>
<g>
</g>
<g>
</g>
<g>
</g>
<g>
</g>
<g>
</g>
<g>
</g>
<g>
</g>
<g>
</g>
<g>
</g>
<g>
</g>
<g>
</g>
<g>
</g>
<g>
</g>
<g>
</g>
<g>
</g>
</svg>
