<?xml version="1.0" encoding="iso-8859-1"?>
<!-- Generator: Adobe Illustrator 19.0.0, SVG Export Plug-In . SVG Version: 6.00 Build 0)  -->
<svg version="1.1" id="Layer_1" xmlns="http://www.w3.org/2000/svg" xmlns:xlink="http://www.w3.org/1999/xlink" x="0px" y="0px"
	 viewBox="0 0 512 512" style="enable-background:new 0 0 512 512;" xml:space="preserve">
<g transform="translate(1 1)">
	<g>
		<path style="fill:#FFE100;" d="M320.235,502.467c7.68,0,14.507-5.12,16.213-12.8c10.24-34.133,15.36-73.387,15.36-115.2
			c0-136.533-61.44-247.467-136.533-247.467S78.742,237.933,78.742,374.467c0,41.813,5.973,81.067,15.36,115.2
			c2.56,7.68,8.533,12.8,16.213,12.8H320.235z"/>
		<path style="fill:#FFE100;" d="M215.275,127c14.507,0,29.013,4.267,42.667,12.8V24.6c0-9.387-7.68-17.067-17.067-17.067h-51.2
			c-9.387,0-17.067,7.68-17.067,17.067v115.2C186.262,131.267,200.768,127,215.275,127"/>
	</g>
	<path style="fill:#FFFFFF;" d="M198.208,24.6c0-9.387,7.68-17.067,17.067-17.067h-25.6c-9.387,0-17.067,7.68-17.067,17.067v115.2
		c8.533-5.12,17.067-8.533,25.6-10.24V24.6z"/>
	<path style="fill:#FDCC00;" d="M404.715,110.787c26.453,26.453,34.987,61.44,17.92,78.507
		c-17.067,17.067-52.053,8.533-78.507-17.92c-26.453-26.453-34.133-61.44-17.067-78.507
		C343.275,76.653,378.262,84.333,404.715,110.787"/>
	<path style="fill:#FFA800;" d="M402.155,110.787c-20.48-20.48-46.08-29.867-64.853-25.6c14.507,2.56,30.72,11.947,44.373,25.6
		c26.453,26.453,34.987,61.44,17.92,78.507c-3.413,3.413-8.533,5.973-13.653,7.68c13.653,2.56,25.6,0.853,34.133-7.68
		C437.142,173.08,428.608,138.093,402.155,110.787"/>
	<path style="fill:#FDCC00;" d="M78.742,374.467c0,2.56,0,5.973,0,8.533h273.067c0-2.56,0-5.973,0-8.533
		c0-46.933-6.827-90.453-19.627-128H98.368C86.422,284.013,78.742,327.533,78.742,374.467"/>
	<path style="fill:#FFFFFF;" d="M215.275,127c4.267,0,8.533,0,12.8,0.853c-69.12,11.947-123.733,117.76-123.733,246.613
		c0,41.813,5.973,81.067,15.36,115.2c2.56,7.68,8.533,12.8,16.213,12.8h-25.6c-7.68,0-14.507-5.12-16.213-12.8
		c-9.387-34.133-15.36-73.387-15.36-115.2C78.742,237.933,140.182,127,215.275,127"/>
	<path d="M320.235,511H111.168c-11.093,0-21.333-7.68-24.747-18.773c-10.24-35.84-16.213-76.8-16.213-117.76
		c0-140.8,64.853-256,145.067-256s145.067,115.2,145.067,256c0,40.96-5.973,81.92-16.213,117.76
		C341.568,503.32,331.328,511,320.235,511z M215.275,135.533c-69.973,0-128,107.52-128,238.933c0,39.253,5.12,78.507,15.36,113.493
		c1.707,3.413,5.12,5.973,8.533,5.973h208.213c3.413,0,6.827-2.56,8.533-5.973c10.24-34.987,15.36-74.24,15.36-113.493
		C343.275,243.053,286.102,135.533,215.275,135.533z"/>
	<path d="M172.608,148.333c-1.707,0-2.56,0-4.267-0.853c-2.56-1.707-4.267-4.267-4.267-7.68V24.6c0-14.507,11.093-25.6,25.6-25.6
		h51.2c14.507,0,25.6,11.093,25.6,25.6v115.2c0,3.413-1.707,5.973-4.267,7.68s-5.973,1.707-8.533,0
		c-24.747-14.507-52.053-14.507-76.8,0C176.022,147.48,174.315,148.333,172.608,148.333z M189.675,16.067
		c-5.12,0-8.533,3.413-8.533,8.533v100.693c22.187-9.387,46.08-9.387,68.267,0V24.6c0-5.12-3.413-8.533-8.533-8.533H189.675z"/>
	<path d="M351.808,391.533H78.742c-4.267,0-8.533-3.413-8.533-8.533v-2.56c0-1.707,0-4.267,0-5.973
		c0-46.08,6.827-91.307,20.48-130.56c0.853-3.413,4.267-5.973,7.68-5.973h233.813c3.413,0,6.827,2.56,7.68,5.973
		c13.653,39.253,20.48,84.48,20.48,130.56c0,1.707,0,4.267,0,5.973V383C360.342,388.12,356.928,391.533,351.808,391.533z
		 M87.275,374.467h256c0-41.813-5.973-83.627-17.067-119.467H105.195C93.248,291.693,87.275,332.653,87.275,374.467z"/>
	<path d="M326.208,101.4c-5.12,0-8.533-3.413-8.533-8.533c0-33.28-26.453-59.733-59.733-59.733c-5.12,0-8.533-3.413-8.533-8.533
		s3.413-8.533,8.533-8.533c42.667,0,76.8,34.133,76.8,76.8C334.742,97.987,331.328,101.4,326.208,101.4z"/>
	<path d="M399.595,206.36c-19.627,0-42.667-11.093-61.44-29.013c-30.72-30.72-38.4-69.973-17.92-90.453
		c7.68-7.68,17.067-11.093,29.013-11.093c19.627,0,42.667,11.093,61.44,29.013c13.653,13.653,23.893,30.72,27.307,46.933
		c4.267,17.92,0.853,33.28-9.387,43.52C421.782,202.947,411.542,206.36,399.595,206.36z M350.102,92.867
		c-5.12,0-11.947,0.853-17.067,5.973c-12.8,12.8-5.12,43.52,17.92,66.56c15.36,15.36,34.133,23.893,49.493,23.893
		c5.12,0,11.947-0.853,17.067-5.973c5.973-5.973,7.68-15.36,5.12-27.307c-3.413-13.653-11.093-27.307-23.04-39.253
		C384.235,102.253,365.462,92.867,350.102,92.867z"/>
	<path d="M240.875,306.2h-51.2c-5.12,0-8.533-3.413-8.533-8.533s3.413-8.533,8.533-8.533h51.2c5.12,0,8.533,3.413,8.533,8.533
		S245.995,306.2,240.875,306.2z"/>
	<path d="M266.475,348.867h-102.4c-5.12,0-8.533-3.413-8.533-8.533c0-5.12,3.413-8.533,8.533-8.533h102.4
		c5.12,0,8.533,3.413,8.533,8.533C275.008,345.453,271.595,348.867,266.475,348.867z"/>
	<path d="M206.742,41.667c0-5.12,3.413-8.533,8.533-8.533c5.12,0,8.533,3.413,8.533,8.533s-3.413,8.533-8.533,8.533
		C211.008,50.2,206.742,46.787,206.742,41.667"/>
</g>
<g>
</g>
<g>
</g>
<g>
</g>
<g>
</g>
<g>
</g>
<g>
</g>
<g>
</g>
<g>
</g>
<g>
</g>
<g>
</g>
<g>
</g>
<g>
</g>
<g>
</g>
<g>
</g>
<g>
</g>
</svg>
