<?xml version="1.0" encoding="iso-8859-1"?>
<!-- Generator: Adobe Illustrator 19.0.0, SVG Export Plug-In . SVG Version: 6.00 Build 0)  -->
<svg version="1.1" id="Layer_1" xmlns="http://www.w3.org/2000/svg" xmlns:xlink="http://www.w3.org/1999/xlink" x="0px" y="0px"
	 viewBox="0 0 512 512" style="enable-background:new 0 0 512 512;" xml:space="preserve">
<path style="fill:#6B8F9C;" d="M327.894,193.581c-6.849-6.848-6.849-17.953,0-24.802l42.197-42.198
	c-19.97-30.992-17.395-74.017,11.083-102.492c32.113-32.115,84.094-32.12,116.212,0c6.849,6.849,6.849,17.953,0,24.802
	c-6.848,6.848-17.953,6.85-24.802,0c-18.408-18.408-48.199-18.409-66.608,0c-18.408,18.408-18.409,48.2,0,66.609
	c6.849,6.848,6.849,17.953,0,24.802l-53.28,53.28C345.847,200.431,334.743,200.43,327.894,193.581z"/>
<g>
	<path style="fill:#325763;" d="M472.584,48.89c6.848,6.851,17.954,6.848,24.802,0c6.849-6.848,6.849-17.952,0-24.802l0,0
		L472.584,48.89L472.584,48.89z"/>
	<path style="fill:#325763;" d="M405.977,115.499L405.977,115.499l-78.083,78.081l0.001,0.001c6.849,6.849,17.953,6.85,24.802,0.001
		l53.28-53.28C412.826,133.452,412.826,122.347,405.977,115.499z"/>
</g>
<path style="fill:#F6D86E;" d="M386.436,202.516l-67.486-67.486c-15.948-15.948-41.915-15.948-57.875,0L79.863,316.243
	l-24.799,24.81l-33.626,33.626c-15.948,15.948-15.948,41.915,0,57.863l67.486,67.486c15.958,15.958,41.931,15.968,57.875,0
	l181.224-181.213l24.798-24.798l33.614-33.626C402.396,244.431,402.396,218.477,386.436,202.516z"/>
<g>
	<path style="fill:#FBB071;" d="M386.436,260.391c15.959-15.959,15.959-41.915,0-57.875l-33.741-33.74L55.184,466.288l33.739,33.739
		c15.958,15.958,41.931,15.969,57.875,0l181.224-181.213l24.799-24.799L386.436,260.391z"/>
	<path style="fill:#FBB071;" d="M123.579,384.771c-6.834,6.834-17.969,6.853-24.799,0l-43.716-43.716l24.799-24.81l43.716,43.716
		C130.431,366.811,130.431,377.918,123.579,384.771z"/>
</g>
<path style="fill:#FF835D;" d="M352.822,294.017l-24.798,24.798l-43.716-43.716c-6.851-6.851-6.851-17.947,0-24.799
	c6.84-6.851,17.947-6.851,24.799,0L352.822,294.017z"/>
<g>
</g>
<g>
</g>
<g>
</g>
<g>
</g>
<g>
</g>
<g>
</g>
<g>
</g>
<g>
</g>
<g>
</g>
<g>
</g>
<g>
</g>
<g>
</g>
<g>
</g>
<g>
</g>
<g>
</g>
</svg>
