<?xml version="1.0" encoding="iso-8859-1"?>
<!-- Generator: Adobe Illustrator 19.0.0, SVG Export Plug-In . SVG Version: 6.00 Build 0)  -->
<svg version="1.1" id="Layer_1" xmlns="http://www.w3.org/2000/svg" xmlns:xlink="http://www.w3.org/1999/xlink" x="0px" y="0px"
	 viewBox="0 0 512 512" style="enable-background:new 0 0 512 512;" xml:space="preserve">
<circle style="fill:#273B7A;" cx="256" cy="256" r="256"/>
<path style="fill:#121149;" d="M321.008,503.661c93.777-24.548,166.572-100.94,185.913-196.713L319.671,120.648l-113.95,85.073
	l29.019,29.018h-50.567l32.144,114.928h7.632l-10.062,46.873L321.008,503.661z"/>
<circle style="fill:#FFC61B;" cx="256" cy="182.51" r="88.781"/>
<path style="fill:#EAA22F;" d="M256,93.737c-0.193,0-0.381,0.014-0.574,0.014v177.533c0.193,0.002,0.381,0.014,0.574,0.014
	c49.033,0,88.781-39.748,88.781-88.781C344.781,133.485,305.033,93.737,256,93.737z"/>
<path style="fill:#71E2EF;" d="M256,169.015c-29.984,0-56.475-14.879-72.549-37.638c-10.212,14.458-16.232,32.092-16.232,51.141
	c0,49.033,39.748,88.781,88.781,88.781s88.781-39.748,88.781-88.781c0-19.049-6.02-36.683-16.232-51.143
	C312.475,154.136,285.984,169.015,256,169.015z"/>
<path style="fill:#38C6D9;" d="M328.549,131.375c-16.074,22.761-42.567,37.638-72.549,37.638c-0.193,0-0.381-0.017-0.574-0.017
	v102.288c0.193,0.002,0.381,0.014,0.574,0.014c49.033,0,88.781-39.748,88.781-88.781
	C344.781,163.469,338.761,145.836,328.549,131.375z"/>
<path style="fill:#FFFFFF;" d="M174.618,201.266c-1.093,0-2.12,0.519-2.77,1.398c-0.65,0.879-0.845,2.014-0.528,3.056
	l40.691,133.172c0.557,1.822,2.482,2.848,4.305,2.291c1.822-0.557,2.846-2.484,2.291-4.305l-39.329-128.717h25.235l27.862,130.445
	c0.347,1.619,1.776,2.727,3.368,2.727c0.24,0,0.481-0.024,0.724-0.076c1.862-0.397,3.05-2.231,2.651-4.093l-27.555-129.003h40.989
	v129.724c0,1.903,1.545,3.448,3.448,3.448s3.448-1.545,3.448-3.448V208.162h39.265l-27.555,129.003
	c-0.396,1.862,0.79,3.696,2.651,4.093c0.243,0.052,0.484,0.076,0.724,0.076c1.593,0,3.022-1.108,3.368-2.727l27.862-130.445h26.958
	l-39.329,128.717c-0.555,1.82,0.469,3.748,2.291,4.305c0.334,0.103,0.674,0.152,1.009,0.152c1.476,0,2.841-0.957,3.296-2.443
	l40.691-133.172c0.319-1.043,0.122-2.179-0.528-3.056c-0.65-0.877-1.679-1.398-2.77-1.398L174.618,201.266L174.618,201.266z"/>
<path style="fill:#D0D1D3;" d="M340.152,202.664c-0.65-0.879-1.679-1.398-2.77-1.398h-81.956v140.009
	c0.188,0.031,0.378,0.059,0.574,0.059c1.903,0,3.448-1.545,3.448-3.448V208.162h39.265l-27.555,129.003
	c-0.396,1.862,0.79,3.696,2.651,4.093c0.243,0.052,0.484,0.076,0.724,0.076c1.593,0,3.022-1.108,3.368-2.727l27.862-130.445h26.958
	l-39.329,128.717c-0.555,1.82,0.469,3.748,2.291,4.305c0.334,0.103,0.674,0.152,1.009,0.152c1.476,0,2.841-0.957,3.296-2.443
	l40.691-133.172C340.999,204.678,340.802,203.542,340.152,202.664z"/>
<path id="SVGCleanerId_0" style="fill:#E09112;" d="M225.845,403.072h60.307c7.863,0,14.236-6.373,14.236-14.236v-52.35h-88.781
	v52.35C211.609,396.697,217.983,403.072,225.845,403.072z"/>
<g>
	<path id="SVGCleanerId_0_1_" style="fill:#E09112;" d="M225.845,403.072h60.307c7.863,0,14.236-6.373,14.236-14.236v-52.35h-88.781
		v52.35C211.609,396.697,217.983,403.072,225.845,403.072z"/>
</g>
<path style="fill:#FF5419;" d="M255.426,336.486v66.586h30.729c7.863,0,14.236-6.373,14.236-14.236v-52.35H255.426z"/>
<g>
</g>
<g>
</g>
<g>
</g>
<g>
</g>
<g>
</g>
<g>
</g>
<g>
</g>
<g>
</g>
<g>
</g>
<g>
</g>
<g>
</g>
<g>
</g>
<g>
</g>
<g>
</g>
<g>
</g>
</svg>
