<?xml version="1.0" encoding="iso-8859-1"?>
<!-- Generator: Adobe Illustrator 19.0.0, SVG Export Plug-In . SVG Version: 6.00 Build 0)  -->
<svg version="1.1" id="Layer_1" xmlns="http://www.w3.org/2000/svg" xmlns:xlink="http://www.w3.org/1999/xlink" x="0px" y="0px"
	 viewBox="0 0 512 512" style="enable-background:new 0 0 512 512;" xml:space="preserve">
<g>
	<polygon style="fill:#F7EEE4;" points="141.241,512 370.759,512 370.759,88.276 141.241,88.276 	"/>
	<polygon style="fill:#BCB3AA;" points="326.621,88.276 141.241,88.276 326.621,0 	"/>
	<polygon style="fill:#559E62;" points="317.793,247.172 194.207,247.172 256,132.414 	"/>
	<polygon style="fill:#84542C;" points="238.345,397.241 273.655,397.241 273.655,344.276 238.345,344.276 	"/>
	<g>
		<polygon style="fill:#559E62;" points="282.483,247.172 229.517,247.172 176.552,344.276 335.448,344.276 		"/>
		<path style="fill:#559E62;" d="M317.793,476.69H194.207c-4.882,0-8.828-3.946-8.828-8.828c0-4.882,3.946-8.828,8.828-8.828
			h123.586c4.882,0,8.828,3.946,8.828,8.828C326.621,472.744,322.675,476.69,317.793,476.69"/>
		<path style="fill:#559E62;" d="M282.483,441.379h-52.966c-4.882,0-8.828-3.946-8.828-8.828c0-4.882,3.946-8.828,8.828-8.828
			h52.966c4.882,0,8.828,3.946,8.828,8.828C291.31,437.433,287.364,441.379,282.483,441.379"/>
	</g>
</g>
<g>
</g>
<g>
</g>
<g>
</g>
<g>
</g>
<g>
</g>
<g>
</g>
<g>
</g>
<g>
</g>
<g>
</g>
<g>
</g>
<g>
</g>
<g>
</g>
<g>
</g>
<g>
</g>
<g>
</g>
</svg>
