<?xml version="1.0" encoding="iso-8859-1"?>
<!-- Generator: Adobe Illustrator 19.0.0, SVG Export Plug-In . SVG Version: 6.00 Build 0)  -->
<svg version="1.1" id="Layer_1" xmlns="http://www.w3.org/2000/svg" xmlns:xlink="http://www.w3.org/1999/xlink" x="0px" y="0px"
	 viewBox="0 0 511.996 511.996" style="enable-background:new 0 0 511.996 511.996;" xml:space="preserve">
<g>
	<path style="fill:#212F3E;" d="M395.419,150.067H116.582c-44.888,0-81.276,36.387-81.276,81.267v51.147
		c0,43.873,35.575,79.448,79.457,79.448c52.083,0,105.472-34.86,132.405-79.448h17.655c26.942,44.588,80.322,79.448,132.414,79.448
		c43.882,0,79.448-35.575,79.448-79.448v-51.147C476.686,186.454,440.308,150.067,395.419,150.067"/>
	<path style="fill:#3E5163;" d="M397.241,335.446c-40.263,0-86.413-28.036-109.745-66.657l-7.733-12.791h-47.528l-7.733,12.791
		c-23.331,38.621-69.482,66.657-109.745,66.657c-29.21,0-52.966-23.755-52.966-52.966v-51.147c0-30.208,24.576-54.784,54.784-54.784
		h278.846c30.208,0,54.784,24.576,54.784,54.784v51.147C450.207,311.691,426.452,335.446,397.241,335.446"/>
	<g>
		<path style="fill:#6CA1E9;" d="M35.31,280.658v-49.32c0-17.064,5.279-32.883,14.265-45.956H8.828
			c-4.873,0-8.828,3.946-8.828,8.828v88.276c0,4.873,3.955,8.828,8.828,8.828h27.26C35.628,287.817,35.31,284.277,35.31,280.658"/>
		<path style="fill:#6CA1E9;" d="M462.42,185.377c8.986,13.074,14.265,28.893,14.265,45.956v49.32c0,3.619-0.318,7.159-0.777,10.655
			h27.26c4.882,0,8.828-3.955,8.828-8.828v-88.276c0-4.873-3.946-8.828-8.828-8.828H462.42z"/>
	</g>
	<g>
		<path style="fill:#212F3E;" d="M88.276,247.17c-2.26,0-4.52-0.865-6.241-2.586c-3.452-3.452-3.452-9.031,0-12.482l35.31-35.31
			c3.452-3.452,9.031-3.452,12.482,0c3.452,3.452,3.452,9.031,0,12.482l-35.31,35.31C92.796,246.305,90.536,247.17,88.276,247.17"/>
		<path style="fill:#212F3E;" d="M105.931,273.653c-2.26,0-4.52-0.865-6.241-2.586c-3.452-3.452-3.452-9.031,0-12.482l61.793-61.793
			c3.452-3.452,9.031-3.452,12.482,0s3.452,9.031,0,12.482l-61.793,61.793C110.451,272.788,108.191,273.653,105.931,273.653"/>
	</g>
</g>
<g>
</g>
<g>
</g>
<g>
</g>
<g>
</g>
<g>
</g>
<g>
</g>
<g>
</g>
<g>
</g>
<g>
</g>
<g>
</g>
<g>
</g>
<g>
</g>
<g>
</g>
<g>
</g>
<g>
</g>
</svg>
