<?xml version="1.0" encoding="iso-8859-1"?>
<!-- Generator: Adobe Illustrator 19.0.0, SVG Export Plug-In . SVG Version: 6.00 Build 0)  -->
<svg version="1.1" id="Layer_1" xmlns="http://www.w3.org/2000/svg" xmlns:xlink="http://www.w3.org/1999/xlink" x="0px" y="0px"
	 viewBox="0 0 512 512" style="enable-background:new 0 0 512 512;" xml:space="preserve">
<g>
	<rect x="67.691" y="175.963" style="fill:#EAC36E;" width="381.196" height="57.757"/>
	<rect x="67.691" y="351.544" style="fill:#EAC36E;" width="381.196" height="57.757"/>
</g>
<g>
	<polygon style="fill:#FCD577;" points="100.867,111.944 54.823,67.378 8.78,111.944 8.78,443.953 100.867,443.953 	"/>
	<polygon style="fill:#FCD577;" points="235.061,111.944 189.019,67.378 142.976,111.944 142.976,443.953 235.061,443.953 	"/>
	<polygon style="fill:#FCD577;" points="369.257,111.944 323.215,67.378 277.171,111.944 277.171,443.953 369.257,443.953 	"/>
	<polygon style="fill:#FCD577;" points="503.453,111.944 457.409,67.378 411.367,111.944 411.367,443.953 503.453,443.953 	"/>
</g>
<path d="M509.362,106.052l-11.614-11.241c-3.439-3.328-8.923-3.238-12.25,0.2c-3.328,3.439-3.238,8.923,0.2,12.25l8.975,8.688
	v319.675h-74.759V115.95l37.379-36.18l10.158,9.833c3.439,3.328,8.923,3.238,12.25-0.2c3.328-3.439,3.238-8.923-0.2-12.25
	l-16.185-15.665c-3.359-3.251-8.691-3.251-12.052,0l-46.043,44.565c-1.685,1.632-2.638,3.878-2.638,6.225v55.354h-24.782v-55.354
	c0-2.347-0.952-4.593-2.638-6.225l-46.043-44.565c-3.359-3.251-8.691-3.251-12.052,0l-46.043,44.565
	c-1.685,1.632-2.638,3.878-2.638,6.225v55.354h-24.782v-55.354c0-2.347-0.952-4.593-2.638-6.225l-46.043-44.565
	c-3.359-3.251-8.691-3.251-12.052,0l-46.043,44.565c-1.685,1.632-2.638,3.878-2.638,6.225v55.354h-24.779v-55.354
	c0-2.347-0.952-4.593-2.638-6.225L60.733,61.487c-3.359-3.251-8.691-3.251-12.052,0L2.638,106.052
	C0.952,107.685,0,109.931,0,112.277v77.879c0,4.785,3.879,8.664,8.664,8.664s8.664-3.879,8.664-8.664V115.95l37.379-36.18
	l37.379,36.18v319.674H17.327V219.035c0-4.785-3.879-8.664-8.664-8.664S0,214.251,0,219.035v225.252
	c0,4.785,3.879,8.664,8.664,8.664h92.086c4.785,0,8.664-3.879,8.664-8.664v-25.991h24.782v25.991c0,4.785,3.879,8.664,8.664,8.664
	h92.085c4.785,0,8.664-3.879,8.664-8.664v-25.991h24.782v25.991c0,4.785,3.879,8.664,8.664,8.664h92.086
	c4.785,0,8.664-3.879,8.664-8.664v-25.991h24.782v25.991c0,4.785,3.879,8.664,8.664,8.664h92.086c4.785,0,8.664-3.879,8.664-8.664
	v-332.01C512,109.931,511.048,107.685,509.362,106.052z M377.804,242.716h24.782v100.497h-24.782V242.716z M402.586,184.959v40.43
	h-24.782v-40.43H402.586z M268.391,184.959v40.43h-24.782v-40.43H268.391z M109.414,242.716h24.782v100.497h-24.782V242.716z
	 M134.196,184.959v40.43h-24.782v-40.43H134.196z M109.414,400.97v-40.43h24.782v40.43H109.414z M151.523,435.624V115.95
	l37.379-36.18l37.379,36.179v131.965c0,4.785,3.879,8.664,8.664,8.664s8.664-3.879,8.664-8.664v-5.198h24.782v100.497h-24.782
	v-66.42c0-4.785-3.879-8.664-8.664-8.664s-8.664,3.879-8.664,8.664v158.831L151.523,435.624L151.523,435.624z M243.608,400.97
	v-40.43h24.782v40.43H243.608z M285.718,435.624V115.95l37.379-36.18l37.379,36.18v319.674L285.718,435.624L285.718,435.624z
	 M377.804,400.97v-40.43h24.782v40.43H377.804z"/>
<circle cx="457.296" cy="205.176" r="8.664"/>
<circle cx="457.296" cy="380.757" r="8.664"/>
<circle cx="323.092" cy="205.176" r="8.664"/>
<circle cx="323.092" cy="380.757" r="8.664"/>
<circle cx="188.9" cy="205.176" r="8.664"/>
<circle cx="188.9" cy="380.757" r="8.664"/>
<circle cx="54.707" cy="205.176" r="8.664"/>
<circle cx="54.707" cy="380.757" r="8.664"/>
<g>
</g>
<g>
</g>
<g>
</g>
<g>
</g>
<g>
</g>
<g>
</g>
<g>
</g>
<g>
</g>
<g>
</g>
<g>
</g>
<g>
</g>
<g>
</g>
<g>
</g>
<g>
</g>
<g>
</g>
</svg>
