<?xml version="1.0" encoding="iso-8859-1"?>
<!-- Generator: Adobe Illustrator 19.0.0, SVG Export Plug-In . SVG Version: 6.00 Build 0)  -->
<svg version="1.1" id="Layer_1" xmlns="http://www.w3.org/2000/svg" xmlns:xlink="http://www.w3.org/1999/xlink" x="0px" y="0px"
	 viewBox="0 0 512 512" style="enable-background:new 0 0 512 512;" xml:space="preserve">
<g>
	<path style="fill:#E0E0E3;" d="M438.752,512H73.548l0,0c0-27.119,21.984-49.102,49.102-49.102h266.998
		C416.769,462.898,438.752,484.881,438.752,512L438.752,512z"/>
	<path style="fill:#E0E0E3;" d="M450.016,0H61.985C50.54,0,44.346,13.402,51.76,22.121L231.6,233.566V462.99h49.102V233.566
		l179.47-211.366C467.686,13.504,461.509,0,450.016,0z"/>
</g>
<path style="fill:#FF73B1;" d="M229.836,115.248c40.902-16.258,34.022-24.927,67.863-34.958
	c46.656-13.832,77.43-2.735,111.836,1.504L291.602,220.458c-18.472,21.716-51.956,21.849-70.597,0.277l-70.477-82.831
	C185.291,133.322,214.22,121.457,229.836,115.248z"/>
<path style="fill:#FF328F;" d="M282.53,115.248c-40.902-16.258-34.022-24.927-67.863-34.958
	c-46.656-13.832-77.43-2.735-111.836,1.504l117.934,138.663c18.472,21.716,51.956,21.849,70.597,0.277l70.497-82.926
	C327.097,133.226,298.146,121.457,282.53,115.248z"/>
<g>
</g>
<g>
</g>
<g>
</g>
<g>
</g>
<g>
</g>
<g>
</g>
<g>
</g>
<g>
</g>
<g>
</g>
<g>
</g>
<g>
</g>
<g>
</g>
<g>
</g>
<g>
</g>
<g>
</g>
</svg>
