<?xml version="1.0" encoding="iso-8859-1"?>
<!-- Generator: Adobe Illustrator 19.0.0, SVG Export Plug-In . SVG Version: 6.00 Build 0)  -->
<svg version="1.1" id="Layer_1" xmlns="http://www.w3.org/2000/svg" xmlns:xlink="http://www.w3.org/1999/xlink" x="0px" y="0px"
	 viewBox="0 0 510.624 510.624" style="enable-background:new 0 0 510.624 510.624;" xml:space="preserve">
<path style="fill:#DB2B42;" d="M98.232,510.624l100.936-83.952h273.72v-294.6H370.88c-7.544,57.168-56.344,101.32-115.568,101.32
	s-108.024-44.152-115.568-101.32H37.736V426.68h60.496V510.624z"/>
<path style="fill:#8AD5DD;" d="M255.312,233.392c59.224,0,108.024-44.152,115.568-101.32c0.664-5.048,1.128-10.152,1.128-15.376
	C372.008,52.248,319.76,0,255.312,0S138.616,52.248,138.616,116.696c0,5.224,0.464,10.336,1.128,15.376
	C147.288,189.24,196.088,233.392,255.312,233.392z M249.032,71.304l-29,13.8l-5.84-26.664l40.224-18.712h29.472v152.024h-34.384
	V71.304H249.032z"/>
<polygon style="fill:#FFFFFF;" points="249.504,191.752 283.888,191.752 283.888,39.728 254.416,39.728 214.192,58.44 
	220.032,85.104 249.032,71.304 249.504,71.304 "/>
<g>
</g>
<g>
</g>
<g>
</g>
<g>
</g>
<g>
</g>
<g>
</g>
<g>
</g>
<g>
</g>
<g>
</g>
<g>
</g>
<g>
</g>
<g>
</g>
<g>
</g>
<g>
</g>
<g>
</g>
</svg>
