<?xml version="1.0" encoding="iso-8859-1"?>
<!-- Generator: Adobe Illustrator 19.0.0, SVG Export Plug-In . SVG Version: 6.00 Build 0)  -->
<svg version="1.1" id="Layer_1" xmlns="http://www.w3.org/2000/svg" xmlns:xlink="http://www.w3.org/1999/xlink" x="0px" y="0px"
	 viewBox="0 0 512 512" style="enable-background:new 0 0 512 512;" xml:space="preserve">
<path style="fill:#2D2D2D;" d="M128,512h256c8.448,0,15.36-6.912,15.36-15.36V15.36C399.36,6.912,392.448,0,384,0H128
	c-8.448,0-15.36,6.912-15.36,15.36v481.28C112.64,505.088,119.552,512,128,512z M286.72,481.28h-61.44
	c-2.816,0-5.12-2.304-5.12-5.12s2.304-5.12,5.12-5.12h61.44c2.816,0,5.12,2.304,5.12,5.12S289.536,481.28,286.72,481.28z
	 M304.552,15.52c2.832,0,5.128,2.296,5.128,5.128s-2.296,5.128-5.128,5.128s-5.128-2.296-5.128-5.128S301.72,15.52,304.552,15.52z
	 M286.928,15.52c2.832,0,5.128,2.296,5.128,5.128s-2.296,5.128-5.128,5.128s-5.128-2.296-5.128-5.128S284.096,15.52,286.928,15.52z
	 M207.44,15.52h45.44c2.816,0,5.12,2.304,5.12,5.12s-2.304,5.12-5.12,5.12h-45.44c-2.816,0-5.12-2.304-5.12-5.12
	S204.624,15.52,207.44,15.52z M128,40.584h256v409.6H262h-12H128V40.584z"/>
<g>
	<path style="fill:#C9C9C9;" d="M286.72,471.04h-61.44c-2.816,0-5.12,2.304-5.12,5.12s2.304,5.12,5.12,5.12h61.44
		c2.816,0,5.12-2.304,5.12-5.12S289.536,471.04,286.72,471.04z"/>
	<path style="fill:#C9C9C9;" d="M207.44,25.76h45.44c2.816,0,5.12-2.304,5.12-5.12s-2.304-5.12-5.12-5.12h-45.44
		c-2.816,0-5.12,2.304-5.12,5.12S204.624,25.76,207.44,25.76z"/>
	<circle style="fill:#C9C9C9;" cx="286.928" cy="20.648" r="5.128"/>
	<circle style="fill:#C9C9C9;" cx="304.56" cy="20.648" r="5.128"/>
</g>
<path style="fill:#8AD5DD;" d="M250,339.456h-73v-84.664h160V137.64h-73.136c-5.016,26.12-36.992,68.856-40.896,74.04l-5.84,7.664
	l-5.808-7.664c-4.272-5.584-41.664-55.504-41.664-80.368c0-29.832,18.624-49.112,47.472-49.112c26.928,0,44.736,16.936,47.016,43.44
	h84.864V266.8h-160v60.664h73v122.728H384v-409.6H128v409.6h122V339.456z"/>
<path style="fill:#FFFFFF;" d="M189,327.456v-60.664h160V125.64h-84.864c0.16,1.888,0.456,3.688,0.456,5.672
	c0,1.952-0.304,4.104-0.728,6.328H337V254.8H177v84.664h73v110.728h12V327.456H189z"/>
<path style="fill:#DB2B42;" d="M264.136,125.64c-2.272-26.504-20.08-43.44-47.016-43.44c-28.848,0-47.472,19.28-47.472,49.112
	c0,24.864,37.392,74.784,41.664,80.368l5.808,7.664l5.84-7.664c3.904-5.184,35.88-47.92,40.896-74.04
	c0.432-2.232,0.728-4.376,0.728-6.328C264.592,129.328,264.296,127.52,264.136,125.64z M217.088,147.008
	c-8.488,0-15.376-6.88-15.376-15.376c0-8.488,6.88-15.376,15.376-15.376c8.488,0,15.376,6.88,15.376,15.376
	C232.456,140.128,225.576,147.008,217.088,147.008z"/>
<circle style="fill:#FFFFFF;" cx="217.12" cy="131.64" r="15.376"/>
<g>
</g>
<g>
</g>
<g>
</g>
<g>
</g>
<g>
</g>
<g>
</g>
<g>
</g>
<g>
</g>
<g>
</g>
<g>
</g>
<g>
</g>
<g>
</g>
<g>
</g>
<g>
</g>
<g>
</g>
</svg>
