<?xml version="1.0" encoding="iso-8859-1"?>
<!-- Generator: Adobe Illustrator 19.0.0, SVG Export Plug-In . SVG Version: 6.00 Build 0)  -->
<svg version="1.1" id="Layer_1" xmlns="http://www.w3.org/2000/svg" xmlns:xlink="http://www.w3.org/1999/xlink" x="0px" y="0px"
	 viewBox="0 0 512 512" style="enable-background:new 0 0 512 512;" xml:space="preserve">
<path style="fill:#DB2B42;" d="M238.316,305.12c46.416,0,78.6-22.288,95.312-50.152h1.224v33.44
	c0,75.48-40.832,104.568-96.536,104.568c-37.128,0-68.088-11.128-87.888-23.512l-13.608,41.48
	c24.128,16.096,63.736,24.744,99.632,24.744c37.768,0,79.832-8.648,108.92-35.896c29.096-26,42.704-68.056,42.704-136.76V89.12
	c0-36.512,1.224-60.64,2.48-82.312h-47.672l-2.456,45.184h-1.256C326.18,27.24,297.724,0,245.732,0
	c-68.704,0-134.92,57.56-134.92,159.064C110.812,242,164.036,305.12,238.316,305.12z M255.02,42.704c39.608,0,66.216,26,76.12,57.56
	c2.48,7.432,3.096,15.464,3.096,24.752v53.848c0,9.272-1.256,19.808-4.352,29.08c-11.744,34.672-42.064,55.704-75.48,55.704
	c-58.8,0-88.504-48.896-88.504-107.68C165.908,86.648,203.028,42.704,255.02,42.704z"/>
<rect x="93.348" y="488" style="fill:#8AD5DD;" width="325.304" height="24"/>
<g>
</g>
<g>
</g>
<g>
</g>
<g>
</g>
<g>
</g>
<g>
</g>
<g>
</g>
<g>
</g>
<g>
</g>
<g>
</g>
<g>
</g>
<g>
</g>
<g>
</g>
<g>
</g>
<g>
</g>
</svg>
