<?xml version="1.0" encoding="iso-8859-1"?>
<!-- Generator: Adobe Illustrator 19.0.0, SVG Export Plug-In . SVG Version: 6.00 Build 0)  -->
<svg version="1.1" id="Layer_1" xmlns="http://www.w3.org/2000/svg" xmlns:xlink="http://www.w3.org/1999/xlink" x="0px" y="0px"
	 viewBox="0 0 512 512" style="enable-background:new 0 0 512 512;" xml:space="preserve">
<path style="fill:#2D2D2D;" d="M128,512h256c8.448,0,15.36-6.912,15.36-15.36V15.36C399.36,6.912,392.448,0,384,0H128
	c-8.448,0-15.36,6.912-15.36,15.36v481.28C112.64,505.088,119.552,512,128,512z M286.72,481.28h-61.44
	c-2.816,0-5.12-2.304-5.12-5.12s2.304-5.12,5.12-5.12h61.44c2.816,0,5.12,2.304,5.12,5.12S289.536,481.28,286.72,481.28z
	 M304.552,15.52c2.832,0,5.128,2.296,5.128,5.128s-2.296,5.128-5.128,5.128s-5.128-2.296-5.128-5.128S301.72,15.52,304.552,15.52z
	 M286.928,15.52c2.832,0,5.128,2.296,5.128,5.128s-2.296,5.128-5.128,5.128s-5.128-2.296-5.128-5.128S284.096,15.52,286.928,15.52z
	 M207.44,15.52h45.44c2.816,0,5.12,2.304,5.12,5.12s-2.304,5.12-5.12,5.12h-45.44c-2.816,0-5.12-2.304-5.12-5.12
	S204.624,15.52,207.44,15.52z M128,40.624h256v409.6H128V40.624z"/>
<g>
	<path style="fill:#C9C9C9;" d="M286.72,471.04h-61.44c-2.816,0-5.12,2.304-5.12,5.12s2.304,5.12,5.12,5.12h61.44
		c2.816,0,5.12-2.304,5.12-5.12S289.536,471.04,286.72,471.04z"/>
	<path style="fill:#C9C9C9;" d="M207.44,25.76h45.44c2.816,0,5.12-2.304,5.12-5.12s-2.304-5.12-5.12-5.12h-45.44
		c-2.816,0-5.12,2.304-5.12,5.12S204.624,25.76,207.44,25.76z"/>
	<circle style="fill:#C9C9C9;" cx="286.928" cy="20.648" r="5.128"/>
	<circle style="fill:#C9C9C9;" cx="304.56" cy="20.648" r="5.128"/>
</g>
<g>
	<path style="fill:#DB2B42;" d="M256,164c-43.08,0-78.128,35.048-78.128,78.128S212.92,320.256,256,320.256
		s78.128-35.048,78.128-78.128S299.08,164,256,164z M298.032,275.672l-8.488,8.488L256,250.608l-33.544,33.544l-8.488-8.488
		l33.544-33.544l-33.544-33.544l8.488-8.488L256,233.64l33.544-33.544l8.488,8.488l-33.544,33.544L298.032,275.672z"/>
	<path style="fill:#DB2B42;" d="M384,40.624H128v409.6h256V40.624z M256,332.256c-49.776,0-90.128-40.352-90.128-90.128
		S206.224,152,256,152s90.128,40.352,90.128,90.128S305.776,332.256,256,332.256z"/>
</g>
<g>
	<polygon style="fill:#FFFFFF;" points="289.544,200.096 256,233.64 222.456,200.096 213.968,208.584 247.512,242.128 
		213.968,275.672 222.456,284.16 256,250.608 289.544,284.16 298.032,275.672 264.488,242.128 298.032,208.584 	"/>
	<path style="fill:#FFFFFF;" d="M256,152c-49.776,0-90.128,40.352-90.128,90.128s40.352,90.128,90.128,90.128
		s90.128-40.352,90.128-90.128S305.776,152,256,152z M256,320.256c-43.08,0-78.128-35.048-78.128-78.128S212.92,164,256,164
		s78.128,35.048,78.128,78.128S299.08,320.256,256,320.256z"/>
</g>
<g>
</g>
<g>
</g>
<g>
</g>
<g>
</g>
<g>
</g>
<g>
</g>
<g>
</g>
<g>
</g>
<g>
</g>
<g>
</g>
<g>
</g>
<g>
</g>
<g>
</g>
<g>
</g>
<g>
</g>
</svg>
