<?xml version="1.0" encoding="iso-8859-1"?>
<!-- Generator: Adobe Illustrator 19.0.0, SVG Export Plug-In . SVG Version: 6.00 Build 0)  -->
<svg version="1.1" id="Layer_1" xmlns="http://www.w3.org/2000/svg" xmlns:xlink="http://www.w3.org/1999/xlink" x="0px" y="0px"
	 viewBox="0 0 502.911 502.911" style="enable-background:new 0 0 502.911 502.911;" xml:space="preserve">
<g transform="translate(1)">
	<path style="fill:#FFE100;" d="M337.726,494.439c-5.207,0-8.678-3.471-8.678-8.678v-44.258c-0.868,0.868-2.603,1.736-3.471,2.603
		l-7.81,5.207c-3.471,2.603-6.075,4.339-9.546,6.942c-13.885,10.414-28.637,20.827-48.597,20.827s-34.712-10.414-48.597-20.827
		c-3.471-2.603-6.075-4.339-9.546-6.942l-7.81-5.207c-0.868-0.868-1.736-0.868-2.603-1.736v43.39c0,5.207-3.471,8.678-8.678,8.678
		c-5.207,0-8.678-3.471-8.678-8.678v-60.746c0-3.471,1.736-6.075,4.339-7.81c2.603-1.736,6.075-0.868,8.678,0.868
		c5.207,3.471,10.414,6.942,16.488,11.281l8.678,5.207c3.471,2.603,6.942,5.207,10.414,6.942
		c12.149,8.678,23.431,17.356,38.183,17.356s26.034-8.678,38.183-17.356c3.471-2.603,6.942-5.207,10.414-6.942l8.678-5.207
		c5.207-3.471,11.281-7.81,16.488-11.281c2.603-1.736,6.075-1.736,8.678-0.868c2.603,1.736,4.339,4.339,4.339,7.81v60.746
		C346.404,490.967,342.065,494.439,337.726,494.439z"/>
	<path style="fill:#FDCC00;" d="M355.082,163.808c-32.108-25.166-69.424-42.522-69.424-42.522
		c-50.332,124.095-182.237,131.037-182.237,131.037c0,54.671,4.339,114.549,45.125,153.6c14.753,13.885,32.108,25.166,48.597,36.447
		s31.241,26.034,52.936,26.034s36.447-14.753,52.936-26.034c16.488-11.281,33.844-22.563,48.597-36.447
		c40.786-39.051,45.125-98.929,45.125-153.6C398.472,217.611,381.984,185.503,355.082,163.808"/>
	<path style="fill:#FFE100;" d="M493.929,268.811c0-19.959-26.034-67.688-41.654-94.59c-5.207-9.546-11.281-19.959-16.488-29.505
		C367.231,9.34,250.946,17.15,250.946,17.15S133.794,9.34,65.238,144.716c-5.207,9.546-10.414,19.959-16.488,29.505
		c-14.753,26.902-40.786,74.631-40.786,94.59c0,0-3.471,40.786,17.356,55.539c12.149,8.678,19.092,22.563,16.488,37.315
		c-0.868,4.339-2.603,9.546-4.339,13.017c-6.942,11.281-1.736,25.166,10.414,28.637c8.678,2.603,20.827,4.339,38.183,4.339h65.085
		c-0.868-0.868-1.736-0.868-1.736-1.736c-42.522-39.051-45.993-98.929-45.993-153.6c0,0,131.905-7.81,182.237-131.037
		c0,0,38.183,17.356,70.292,42.522c26.902,20.827,42.522,53.803,42.522,88.515c0,54.671-4.339,114.549-45.125,153.6
		c-0.868,0.868-1.736,0.868-1.736,1.736h64.217c17.356,0,29.505-1.736,38.183-4.339c12.149-3.471,17.356-18.224,10.414-28.637
		c-2.603-3.471-3.471-7.81-4.339-13.017c-2.603-14.753,4.339-28.637,16.488-37.315C497.401,309.598,493.929,268.811,493.929,268.811
		"/>
	<path style="fill:#FFA800;" d="M493.062,268.811c0-19.959-26.034-67.688-41.654-94.59c-5.207-9.546-11.281-19.959-16.488-29.505
		C367.231,9.34,250.078,17.15,250.078,17.15s-5.207,0-13.017,0c32.108,2.603,118.02,19.092,172.692,127.566
		c5.207,10.414,10.414,19.959,16.488,29.505c14.753,26.902,41.654,74.631,41.654,94.59c0,0,3.471,40.786-17.356,55.539
		c-12.149,8.678-19.092,22.563-16.488,37.315c0.868,4.339,2.603,9.546,4.339,13.017c6.942,11.281,1.736,25.166-10.414,28.637
		c-8.678,2.603-20.827,4.339-38.183,4.339h26.034c17.356,0,29.505-1.736,38.183-4.339c12.149-3.471,17.356-18.224,10.414-28.637
		c-2.603-3.471-3.471-7.81-4.339-13.017c-2.603-14.753,4.339-28.637,16.488-37.315C496.533,309.598,493.062,268.811,493.062,268.811
		"/>
	<path style="fill:#FFFFFF;" d="M7.963,268.811c0-19.959,26.034-67.688,41.654-94.59c5.207-9.546,10.414-19.959,15.62-29.505
		C134.662,9.34,250.946,17.15,250.946,17.15s5.207,0,13.017,0c-32.108,2.603-117.153,19.092-172.692,126.698
		c-5.207,10.414-10.414,20.827-16.488,30.373c-14.753,26.902-40.786,75.498-40.786,94.59c0,0-3.471,40.786,17.356,55.539
		c12.149,8.678,19.092,22.563,16.488,37.315c-0.868,4.339-2.603,9.546-4.339,13.017c-6.942,11.281-1.736,25.166,10.414,28.637
		c8.678,2.603,20.827,4.339,38.183,4.339H86.065c-17.356,0-29.505-1.736-38.183-4.339c-12.149-3.471-17.356-18.224-10.414-28.637
		c2.603-3.471,3.471-7.81,4.339-13.017c2.603-14.753-4.339-28.637-16.488-37.315C4.492,309.598,7.963,268.811,7.963,268.811"/>
	<path d="M329.048,494.439c-5.207,0-8.678-3.471-8.678-8.678v-44.258c-0.868,0.868-2.603,1.736-3.471,2.603l-7.81,5.207
		c-3.471,2.603-6.075,4.339-9.546,6.942c-14.753,10.414-28.637,20.827-48.597,20.827s-34.712-10.414-48.597-20.827
		c-3.471-2.603-6.075-4.339-9.546-6.942l-7.81-5.207c-0.868-0.868-1.736-0.868-2.603-1.736v43.39c0,5.207-3.471,8.678-8.678,8.678
		c-5.207,0-8.678-3.471-8.678-8.678v-60.746c0-3.471,1.736-6.075,4.339-7.81c2.603-1.736,6.075-0.868,8.678,0.868
		c5.207,3.471,10.414,6.942,16.488,11.281l8.678,5.207c3.471,2.603,6.942,5.207,10.414,6.942
		c12.149,8.678,23.431,17.356,38.183,17.356s26.034-8.678,38.183-17.356c3.471-2.603,6.942-5.207,10.414-6.942l8.678-5.207
		c5.207-3.471,11.281-7.81,16.488-11.281c2.603-1.736,6.075-1.736,8.678-0.868c2.603,1.736,4.339,4.339,4.339,7.81v60.746
		C337.726,490.967,333.387,494.439,329.048,494.439z"/>
	<path d="M250.946,477.083c-19.959,0-34.712-10.414-48.597-20.827c-3.471-2.603-6.075-4.339-9.546-6.942l-8.678-6.075
		c-13.885-9.546-28.637-19.092-41.654-31.241C99.95,372.079,94.743,311.333,94.743,252.323c0-4.339,3.471-8.678,7.81-8.678
		c0.868,0,126.698-8.678,174.427-125.831c0.868-2.603,2.603-4.339,5.207-5.207c2.603-0.868,4.339-0.868,6.942,0
		c1.736,0.868,39.051,18.224,72.027,43.39c28.637,22.563,45.993,58.142,45.993,95.458c0,59.01-6.075,119.756-47.729,159.675
		c-13.017,12.149-27.77,21.695-41.654,31.241l-8.678,6.075c-3.471,2.603-6.075,4.339-9.546,6.942
		C284.79,466.669,270.906,477.083,250.946,477.083z M112.099,260.133c0,49.464,5.207,104.136,42.522,139.715
		c12.149,11.281,25.166,19.959,39.051,29.505l8.678,6.075c3.471,2.603,6.942,5.207,10.414,7.81
		c12.149,8.678,23.431,17.356,38.183,17.356s26.034-8.678,38.183-17.356c3.471-2.603,6.942-5.207,10.414-6.942l8.678-6.075
		c13.885-9.546,27.77-18.224,39.051-29.505c39.051-37.315,42.522-95.458,42.522-147.525c0-32.108-14.753-62.481-39.919-81.573
		c-22.563-17.356-47.729-31.241-59.878-37.315C243.136,234.967,141.604,255.794,112.099,260.133z"/>
	<path d="M415.828,416.337h-86.78l16.488-14.753c0,0,0.868-0.868,1.736-0.868c39.919-38.183,43.39-96.325,43.39-147.525
		c0-32.108-14.753-62.481-39.919-81.573c-22.563-17.356-47.729-31.241-59.878-37.315
		c-47.729,100.664-149.261,121.492-178.766,125.83c0,49.464,5.207,104.136,42.522,139.715c0.868,0.868,1.736,1.736,1.736,1.736
		l16.488,14.753h-86.78c-16.488,0-30.373-1.736-40.786-4.339c-8.678-2.603-14.753-8.678-18.224-16.488
		c-3.471-8.678-2.603-18.224,2.603-25.166c1.736-2.603,2.603-5.207,3.471-9.546c1.736-10.414-2.603-21.695-13.017-28.637
		c-25.166-17.356-20.827-61.614-20.827-63.349c0-15.62,13.885-48.597,42.522-98.061c6.075-11.281,11.281-19.959,16.488-29.505
		C121.645,14.547,226.648,8.472,246.607,8.472c1.736,0,3.471,0,3.471,0c0.868,0,1.736,0,3.471,0
		c19.959,0,124.963,6.075,189.18,131.905c5.207,10.414,10.414,19.959,16.488,29.505c19.092,33.844,42.522,78.102,42.522,98.929
		c0,0.868,3.471,45.125-20.827,62.481c-10.414,6.942-14.753,18.224-13.017,28.637c0.868,4.339,1.736,7.81,3.471,9.546
		c4.339,7.81,6.075,17.356,2.603,25.166c-3.471,7.81-9.546,13.885-18.224,16.488C445.333,414.601,431.448,416.337,415.828,416.337z
		 M370.702,398.981h45.125c14.753,0,26.902-1.736,35.58-4.339c4.339-0.868,6.075-4.339,6.942-6.075
		c0.868-3.471,0.868-6.942-0.868-10.414c-2.603-4.339-4.339-9.546-6.075-15.62c-3.471-17.356,4.339-34.712,19.959-45.993
		c13.885-9.546,14.753-37.315,13.885-47.729c0-13.017-14.753-46.861-39.919-91.119c-5.207-9.546-11.281-19.959-16.488-30.373
		C368.967,31.903,272.641,25.828,254.417,25.828c-1.736,0-3.471,0-3.471,0l0,0h-0.868c-1.736,0-111.946-6.942-177.031,122.359
		c-5.207,9.546-10.414,19.092-16.488,30.373c-25.166,44.258-39.919,77.234-39.919,90.251c-0.868,10.414,0,39.051,13.885,48.597
		c15.62,11.281,23.431,28.637,19.959,45.993c-0.868,6.075-3.471,11.281-6.075,15.62c-1.736,3.471-2.603,6.942-0.868,10.414
		c0.868,1.736,2.603,5.207,6.942,6.075c8.678,2.603,20.827,4.339,35.58,4.339h44.258c-31.241-40.786-35.58-94.59-35.58-147.525
		v-7.81l7.81-0.868c0.868,0,126.698-8.678,174.427-125.831l3.471-8.678l8.678,3.471c1.736,0.868,39.051,18.224,72.027,43.39
		c29.505,22.563,45.993,57.275,45.993,95.458C407.15,305.259,401.943,359.062,370.702,398.981z"/>
</g>
<g>
</g>
<g>
</g>
<g>
</g>
<g>
</g>
<g>
</g>
<g>
</g>
<g>
</g>
<g>
</g>
<g>
</g>
<g>
</g>
<g>
</g>
<g>
</g>
<g>
</g>
<g>
</g>
<g>
</g>
</svg>
