<?xml version="1.0" encoding="iso-8859-1"?>
<!-- Generator: Adobe Illustrator 19.0.0, SVG Export Plug-In . SVG Version: 6.00 Build 0)  -->
<svg version="1.1" id="Layer_1" xmlns="http://www.w3.org/2000/svg" xmlns:xlink="http://www.w3.org/1999/xlink" x="0px" y="0px"
	 viewBox="0 0 512 512" style="enable-background:new 0 0 512 512;" xml:space="preserve">
<g transform="translate(1 1)">
	<path style="fill:#FFE100;" d="M343.276,511c-5.297,0-8.828-3.531-8.828-8.828v-45.021c-0.883,0.883-2.648,1.766-3.531,2.648
		l-7.945,5.297c-3.531,2.648-6.179,4.414-9.71,7.062c-14.124,10.593-29.131,21.186-49.434,21.186s-35.31-10.593-49.434-21.186
		c-3.531-2.648-6.179-4.414-9.71-7.062l-7.945-5.297c-0.883-0.883-1.766-0.883-2.648-1.766v44.138c0,5.297-3.531,8.828-8.828,8.828
		s-8.828-3.531-8.828-8.828v-61.793c0-3.531,1.766-6.179,4.414-7.945c2.648-1.766,6.179-0.883,8.828,0.883
		c5.297,3.531,10.593,7.062,16.772,11.476l8.828,5.297c3.531,2.648,7.062,5.297,10.593,7.062
		c12.359,8.828,23.834,17.655,38.841,17.655c15.007,0,26.483-8.828,38.841-17.655c3.531-2.648,7.062-5.297,10.593-7.062l8.828-5.297
		c5.297-3.531,11.476-7.945,16.772-11.476c2.648-1.766,6.179-1.766,8.828-0.883c2.648,1.766,4.414,4.414,4.414,7.945v61.793
		C352.103,507.469,347.69,511,343.276,511z"/>
	<path style="fill:#FDCC00;" d="M262.062,60.793H255h-7.945c0,0-142.124-7.945-142.124,203.917
		c0,55.614,4.414,116.524,45.903,156.248c15.007,14.124,32.662,25.6,49.434,37.076s31.779,26.483,53.848,26.483
		s37.076-15.007,53.848-26.483s34.428-22.952,49.434-37.076c41.49-39.724,45.903-100.634,45.903-156.248
		C405.069,52.848,262.062,60.793,262.062,60.793"/>
	<g>
		<path style="fill:#FFE100;" d="M262.062,60.793H255h-7.945c0,0-137.71-7.062-142.124,194.207
			c1.766-1.766,36.193-30.014,97.103-34.428c21.186-1.766,41.49-5.297,60.91-13.241c16.772-7.062,28.248-25.6,42.372-46.786
			c14.124-21.186,44.138-27.366,64.441-10.593c9.71,7.945,19.421,18.538,27.366,34.428l0,0
			C365.345,55.497,262.062,60.793,262.062,60.793"/>
		<path style="fill:#FFE100;" d="M224.103,63.441c-17.655-33.545-52.966-55.614-92.69-55.614
			c-59.145,0-105.931,47.669-105.931,105.931c0,50.317,35.31,92.69,82.097,103.283C121.703,99.634,187.91,70.503,224.103,63.441"/>
		<path style="fill:#FFE100;" d="M285.014,63.441c17.655-32.662,52.966-55.614,92.69-55.614
			c58.262,0,105.931,47.669,105.931,105.931c0,50.317-35.31,92.69-82.097,103.283C387.414,99.634,321.207,70.503,285.014,63.441"/>
	</g>
	<g>
		<path style="fill:#FFA800;" d="M244.407,60.793c0,0,0,0,0.883,0c-0.883,0-1.766,0-3.531,0H244.407z"/>
		<path style="fill:#FFA800;" d="M262.062,60.793H255h-5.297c22.069,0.883,137.71,13.241,137.71,203.917
			c0,55.614-4.414,116.524-45.903,156.248c-15.89,14.124-33.545,25.6-50.317,37.076c-15.007,9.71-28.248,22.952-45.021,25.6
			c2.648,0.883,6.179,0.883,8.828,0.883c22.069,0,37.076-15.007,53.848-26.483s34.428-22.952,49.434-37.076
			c41.49-39.724,45.903-100.634,45.903-156.248C405.069,52.848,262.062,60.793,262.062,60.793"/>
		<path style="fill:#FFA800;" d="M378.586,7.828c-2.648,0-6.179,0-8.828,0c54.731,4.414,97.103,50.317,97.103,105.931
			c0,44.138-27.366,82.097-65.324,97.986c0,1.766,0.883,3.531,0.883,5.297c46.786-10.593,82.097-52.966,82.097-103.283
			C484.517,55.497,436.848,7.828,378.586,7.828"/>
	</g>
	<g>
		<path style="fill:#FFFFFF;" d="M264.71,60.793c0,0,0,0-0.883,0c0.883,0,1.766,0,3.531,0H264.71z"/>
		<path style="fill:#FFFFFF;" d="M247.055,60.793H255h5.297c-22.952,0.883-137.71,13.241-137.71,203.917
			c0,55.614,4.414,116.524,45.903,156.248c15.007,14.124,32.662,25.6,49.434,37.076c15.007,9.71,28.248,22.952,45.021,25.6
			c-2.648,0.883-5.297,0.883-7.945,0.883c-22.069,0-37.076-15.007-53.848-26.483s-34.428-22.952-49.434-37.076
			c-43.255-39.724-46.786-100.634-46.786-156.248C104.931,52.848,247.055,60.793,247.055,60.793"/>
		<path style="fill:#FFFFFF;" d="M131.414,7.828c2.648,0,6.179,0,8.828,0C85.51,12.241,43.138,58.145,43.138,113.759
			c0,44.138,27.366,82.097,65.324,97.986c0,1.766-0.883,3.531-0.883,5.297c-47.669-10.593-82.097-52.966-82.097-103.283
			C25.483,55.497,72.269,7.828,131.414,7.828"/>
	</g>
	<path d="M255,493.345c-20.303,0-35.31-10.593-49.434-21.186c-3.531-2.648-6.179-4.414-9.71-7.062l-8.828-5.297
		c-14.124-9.71-29.131-19.421-42.372-31.779c-43.255-41.49-48.552-103.283-48.552-163.31c0-206.566,133.297-212.745,148.303-212.745
		c1.766,0,2.648,0,2.648,0h15.007c0,0,0.883,0,1.766,0c15.89,0,150.069,6.179,150.069,212.745
		c0,60.028-6.179,121.821-48.552,162.428c-13.241,12.359-28.248,22.069-42.372,31.779l-8.828,5.297
		c-3.531,2.648-6.179,4.414-9.71,7.062C289.428,482.752,275.303,493.345,255,493.345z M244.407,69.621
		c-21.186,0-130.648,9.71-130.648,195.09c0,52.083,3.531,112.11,43.255,150.069c12.359,11.476,26.483,21.186,39.724,30.014
		l8.828,5.297c3.531,2.648,7.062,5.297,10.593,7.062c12.359,8.828,23.834,17.655,38.841,17.655c15.007,0,26.483-8.828,38.841-17.655
		c3.531-2.648,7.062-5.297,10.593-7.062l8.828-6.179c14.124-8.828,28.248-18.538,39.724-30.014
		c39.724-37.959,43.255-97.103,43.255-150.069c0-184.497-109.462-194.207-131.531-194.207h-17.655H244.407z"/>
	<path d="M334.448,511c-5.297,0-8.828-3.531-8.828-8.828v-45.021c-0.883,0.883-2.648,1.766-3.531,2.648l-7.945,5.297
		c-3.531,2.648-6.179,4.414-9.71,7.062c-15.007,10.593-29.131,21.186-49.434,21.186s-35.31-10.593-49.434-21.186
		c-3.531-2.648-6.179-4.414-9.71-7.062l-7.945-5.297c-0.883-0.883-1.766-0.883-2.648-1.766v44.138c0,5.297-3.531,8.828-8.828,8.828
		s-8.828-3.531-8.828-8.828v-61.793c0-3.531,1.766-6.179,4.414-7.945c2.648-1.766,6.179-0.883,8.828,0.883
		c5.297,3.531,10.593,7.062,16.772,11.476l8.828,5.297c3.531,2.648,7.062,5.297,10.593,7.062
		c12.359,8.828,23.834,17.655,38.841,17.655c15.007,0,26.483-8.828,38.841-17.655c3.531-2.648,7.062-5.297,10.593-7.062l8.828-5.297
		c5.297-3.531,11.476-7.945,16.772-11.476c2.648-1.766,6.179-1.766,8.828-0.883c2.648,1.766,4.414,4.414,4.414,7.945v61.793
		C343.276,507.469,338.862,511,334.448,511z"/>
	<path d="M104.931,263.828c-0.883,0-2.648,0-3.531-0.883c-3.531-1.766-5.297-5.297-5.297-7.945
		C100.517,57.262,230.283,51.966,244.407,51.966c1.766,0,2.648,0,2.648,0h15.007c0,0,0.883,0,1.766,0
		c11.476,0,111.228,3.531,141.241,130.648c0.883,2.648,0,5.297-1.766,7.945c-3.531,4.414-12.359,3.531-15.007-1.766
		c-6.179-13.241-15.007-23.834-24.717-31.779c-6.179-5.297-13.241-7.062-21.186-7.062c-12.359,0-22.952,6.179-30.014,15.89
		l-1.766,3.531c-13.241,20.303-25.6,38.841-44.138,46.786c-18.538,7.945-38.841,12.359-63.559,14.124
		c-58.262,4.414-90.041,30.897-91.807,32.662C108.462,262.945,106.697,263.828,104.931,263.828z M244.407,69.621
		c-12.359,0-120.055,5.297-130.648,167.724c16.772-9.71,45.903-22.952,86.51-25.6c22.069-1.766,41.49-6.179,58.262-13.241
		c13.241-5.297,23.834-21.186,36.193-39.724l1.766-3.531c9.71-15.007,26.483-23.834,45.021-23.834
		c10.593,0,20.303,3.531,29.131,8.828c-34.428-67.09-93.572-70.621-106.814-70.621h-17.655L244.407,69.621z"/>
	<path d="M107.579,225.869c-0.883,0-0.883,0-1.766,0c-52.966-12.359-89.159-58.262-89.159-112.11C16.655,50.2,67.855-1,131.414-1
		c42.372,0,80.331,22.952,100.634,60.028c1.766,2.648,1.766,5.297,0,7.945c-0.883,2.648-3.531,4.414-6.179,4.414
		c-35.31,7.062-96.221,35.31-109.462,146.538c0,2.648-1.766,4.414-3.531,6.179C111.11,224.986,109.345,225.869,107.579,225.869z
		 M131.414,16.655c-53.848,0-97.103,43.255-97.103,97.103c0,42.372,26.483,78.566,66.207,91.807
		c15.89-102.4,70.621-136.828,110.345-148.303C192.324,31.662,162.31,16.655,131.414,16.655z"/>
	<path d="M401.538,225.869c-1.766,0-3.531-0.883-5.297-1.766c-1.766-1.766-3.531-3.531-3.531-6.179
		C379.469,106.697,318.559,78.448,283.248,71.386c-2.648-0.883-5.297-2.648-6.179-5.297c-0.883-2.648-0.883-5.297,0-7.945
		C297.372,21.952,336.214-1,378.586-1c63.559,0,114.759,51.2,114.759,114.759c0,53.848-37.076,99.752-89.159,112.11
		C403.303,225.869,402.421,225.869,401.538,225.869z M299.138,57.262c38.841,11.476,94.455,45.903,110.345,148.303
		c38.841-13.241,66.207-49.434,66.207-91.807c0-53.848-44.138-97.103-97.103-97.103C346.807,16.655,316.793,31.662,299.138,57.262z"
		/>
</g>
<g>
</g>
<g>
</g>
<g>
</g>
<g>
</g>
<g>
</g>
<g>
</g>
<g>
</g>
<g>
</g>
<g>
</g>
<g>
</g>
<g>
</g>
<g>
</g>
<g>
</g>
<g>
</g>
<g>
</g>
</svg>
