<?xml version="1.0" encoding="iso-8859-1"?>
<!-- Generator: Adobe Illustrator 19.0.0, SVG Export Plug-In . SVG Version: 6.00 Build 0)  -->
<svg version="1.1" id="Layer_1" xmlns="http://www.w3.org/2000/svg" xmlns:xlink="http://www.w3.org/1999/xlink" x="0px" y="0px"
	 viewBox="0 0 184.289 184.289" style="enable-background:new 0 0 184.289 184.289;" xml:space="preserve">
<g>
	<rect y="83.97" style="fill:#00999C;" width="43.661" height="55.847"/>
	<g>
		<rect x="8.724" y="93.933" style="fill:#08B4B9;" width="10.064" height="10.063"/>
		<rect x="24.874" y="93.933" style="fill:#08B4B9;" width="10.064" height="10.063"/>
	</g>
	<g>
		<rect x="8.724" y="108.174" style="fill:#08B4B9;" width="10.064" height="10.064"/>
		<rect x="24.874" y="108.174" style="fill:#08B4B9;" width="10.064" height="10.064"/>
	</g>
	<g>
		<rect x="8.724" y="123.511" style="fill:#08B4B9;" width="10.064" height="10.065"/>
		<rect x="24.874" y="123.511" style="fill:#08B4B9;" width="10.064" height="10.065"/>
	</g>
	<rect x="140.627" y="83.972" style="fill:#00999C;" width="43.662" height="55.847"/>
	<g>
		<g>
			<rect x="41.696" y="83.972" style="fill:#EF4F28;" width="8.779" height="55.847"/>
			<rect x="71.747" y="83.972" style="fill:#EF4F28;" width="8.779" height="55.847"/>
			<rect x="101.797" y="83.972" style="fill:#EF4F28;" width="8.78" height="55.847"/>
			<rect x="131.848" y="83.972" style="fill:#EF4F28;" width="8.78" height="55.847"/>
		</g>
		<g>
			<rect x="130.037" y="133.577" style="fill:#DD3D12;" width="12.401" height="6.242"/>
			<rect x="99.987" y="133.577" style="fill:#DD3D12;" width="12.401" height="6.242"/>
			<rect x="69.936" y="133.577" style="fill:#DD3D12;" width="12.401" height="6.242"/>
			<rect x="39.886" y="133.577" style="fill:#DD3D12;" width="12.4" height="6.242"/>
		</g>
		<g>
			<rect x="130.037" y="84.246" style="fill:#DD3D12;" width="12.401" height="4.599"/>
			<rect x="99.987" y="84.246" style="fill:#DD3D12;" width="12.401" height="4.599"/>
			<rect x="69.936" y="84.246" style="fill:#DD3D12;" width="12.401" height="4.599"/>
			<rect x="39.886" y="84.246" style="fill:#DD3D12;" width="12.4" height="4.599"/>
		</g>
		<polygon style="fill:#EF4F28;" points="36.848,81.441 91.225,48.341 145.602,81.441 		"/>
		<rect x="36.848" y="81.441" style="fill:#DD3D12;" width="108.754" height="5.106"/>
	</g>
	<rect x="39.886" y="135.83" style="fill:#DD3D12;" width="102.553" height="3.988"/>
	<g>
		<rect x="149.351" y="93.933" style="fill:#08B4B9;" width="10.064" height="10.063"/>
		<rect x="165.501" y="93.933" style="fill:#08B4B9;" width="10.064" height="10.063"/>
	</g>
	<g>
		<rect x="149.351" y="108.174" style="fill:#08B4B9;" width="10.064" height="10.064"/>
		<rect x="165.501" y="108.174" style="fill:#08B4B9;" width="10.064" height="10.064"/>
	</g>
	<g>
		<rect x="149.351" y="123.511" style="fill:#08B4B9;" width="10.064" height="10.065"/>
		<rect x="165.501" y="123.511" style="fill:#08B4B9;" width="10.064" height="10.065"/>
	</g>
	<polygon style="fill:#232323;" points="147.626,86.806 91.226,52.21 34.905,86.783 31.453,81.16 91.225,44.47 151.075,81.182 	"/>
</g>
<g>
</g>
<g>
</g>
<g>
</g>
<g>
</g>
<g>
</g>
<g>
</g>
<g>
</g>
<g>
</g>
<g>
</g>
<g>
</g>
<g>
</g>
<g>
</g>
<g>
</g>
<g>
</g>
<g>
</g>
</svg>
