<?xml version="1.0" encoding="iso-8859-1"?>
<!-- Generator: Adobe Illustrator 19.0.0, SVG Export Plug-In . SVG Version: 6.00 Build 0)  -->
<svg version="1.1" id="Layer_1" xmlns="http://www.w3.org/2000/svg" xmlns:xlink="http://www.w3.org/1999/xlink" x="0px" y="0px"
	 viewBox="0 0 512 512" style="enable-background:new 0 0 512 512;" xml:space="preserve">
<path style="fill:#FCB5B5;" d="M406.89,512c-14.196-0.001-29.702-12.529-40.213-23.038c-30.397-30.398-40.828-64.402-41.256-65.835
	c-1.157-3.858-0.101-8.04,2.747-10.889c2.849-2.848,7.027-3.904,10.89-2.747c1.433,0.429,35.435,10.86,65.832,41.258
	c9.584,9.584,16.282,18.621,19.909,26.861c6.773,15.391,1.094,24.379-2.894,28.367C417.964,509.918,412.771,512,406.89,512z
	 M358.319,442.391c5.587,9.54,13.375,20.604,23.85,31.078c11.925,11.926,20.109,15.904,23.76,16.53
	c-0.581-3.102-3.967-11.194-16.532-23.758C378.923,455.766,367.861,447.978,358.319,442.391z"/>
<path style="fill:#FF9690;" d="M264.284,0C205.92,0,157.711,43.488,150.284,99.837l-25.611,227.728
	c0.033,0.033,0.033,47.848,0.033,47.848c0,34.878,28.273,63.162,63.151,63.162h103.408c34.878,0,63.162-28.284,63.162-63.162V310.52
	c15.697-20.627,24.855-46.577,24.855-76.921V114.998C379.282,51.485,327.797,0,264.284,0z"/>
<path style="fill:#FCB5B5;" d="M150.284,99.837v194.262c0,16.015-10.856,29.489-25.611,33.465
	c-25.162-22.555-40.618-54.552-40.618-93.965V114.176c0-19.148,15.522-34.67,34.67-34.67
	C132.757,79.506,144.829,87.842,150.284,99.837z"/>
<g>
	<path style="fill:#FC7576;" d="M326.795,93.464c-6.05,0-10.954,4.906-10.954,10.95c0,6.052,4.904,10.959,10.954,10.959
		c6.05,0,10.954-4.906,10.954-10.959C337.749,98.37,332.845,93.464,326.795,93.464z"/>
	<path style="fill:#FC7576;" d="M195.344,356.365c-6.05,0-10.954,4.906-10.954,10.95c0,6.052,4.904,10.959,10.954,10.959
		s10.954-4.906,10.954-10.959C206.298,361.272,201.394,356.365,195.344,356.365z"/>
	<path style="fill:#FC7576;" d="M293.932,71.555c-6.05,0-10.954,4.906-10.954,10.95c0,6.052,4.904,10.959,10.954,10.959
		c6.05,0,10.954-4.906,10.954-10.959C304.886,76.462,299.982,71.555,293.932,71.555z"/>
</g>
<g>
</g>
<g>
</g>
<g>
</g>
<g>
</g>
<g>
</g>
<g>
</g>
<g>
</g>
<g>
</g>
<g>
</g>
<g>
</g>
<g>
</g>
<g>
</g>
<g>
</g>
<g>
</g>
<g>
</g>
</svg>
