<?xml version="1.0" encoding="iso-8859-1"?>
<!-- Generator: Adobe Illustrator 19.0.0, SVG Export Plug-In . SVG Version: 6.00 Build 0)  -->
<svg version="1.1" id="Layer_1" xmlns="http://www.w3.org/2000/svg" xmlns:xlink="http://www.w3.org/1999/xlink" x="0px" y="0px"
	 viewBox="0 0 512 512" style="enable-background:new 0 0 512 512;" xml:space="preserve">
<g>
	<path style="fill:#9AE1D3;" d="M423.787,496.752c-1.586-5.916-7.668-9.428-13.581-7.841c-12.664,3.393-26.322-3.38-33.413-15.382
		c10.238-5.955,18.352-15.788,23.404-28.634c6.369-16.195,7.102-35.469,2.063-54.273c-9.245-34.5-35.135-58.664-63.117-59.039
		c-4.424-22.929-21.34-42.703-48.826-56.792L192.985,0l-9.901,2.653c-11.767,3.153-20.684,9.582-25.786,18.591
		c-5.51,9.732-6.367,22.064-2.478,35.664c24.288,84.936,59.174,201.149,59.524,202.312c0.903,3.006,3.037,5.49,5.875,6.833
		l56.399,26.701c17.094,8.093,37.133,22.028,40.892,43.765c-11.505,5.734-20.598,16.133-26.084,30.081
		c-6.369,16.195-7.102,35.469-2.063,54.272c9.315,34.769,35.541,59.055,63.776,59.057c0.648,0,1.289-0.037,1.931-0.063
		c9.026,19.59,28.054,32.133,48.246,32.133c4.184,0,8.425-0.54,12.63-1.667C421.862,508.749,425.373,502.668,423.787,496.752z
		 M310.787,415.133c-3.819-14.253-3.365-28.606,1.28-40.415c4.186-10.646,11.301-17.797,20.034-20.137
		c2.07-0.554,4.218-0.836,6.382-0.836c17.635,0,35.843,18.322,42.353,42.618c3.819,14.253,3.364,28.606-1.28,40.415
		c-4.186,10.646-11.301,17.797-20.034,20.137c-2.07,0.554-4.217,0.836-6.379,0.836C335.505,457.749,317.296,439.428,310.787,415.133
		z"/>
</g>
<path style="fill:#6BADB4;" d="M254.029,260.996L321.729,7.221c-3.404-1.93-7.219-3.449-11.389-4.569l-9.903-2.65l-97.291,274.671
	C204.506,273.976,254.029,260.996,254.029,260.996z"/>
<path style="fill:#83C7C3;" d="M336.123,21.249c-3.294-5.822-8.173-10.568-14.394-14.028l-89.877,253.774
	c0,0-27.345,12.981-28.706,13.678c-27.462,14.061-44.387,33.814-48.863,56.734c-27.991,0.362-53.893,24.53-63.14,59.039
	c-5.039,18.804-4.306,38.078,2.063,54.273c6.827,17.359,19.234,29.236,34.935,33.442c3.942,1.057,8.02,1.592,12.122,1.592
	c25.278,0,48.937-19.476,60.303-48.508l3.603,0.966c0.961,0.257,1.926,0.38,2.877,0.38c4.896,0,9.377-3.268,10.705-8.222
	c1.586-5.916-1.925-11.996-7.841-13.581l-3.605-0.966c2.281-15.228,0.818-30.318-4.326-43.399
	c-5.481-13.937-14.566-24.329-26.058-30.066c3.724-21.227,22.834-35.077,39.668-43.113c8.323-3.973,57.617-27.188,57.617-27.188
	c2.839-1.342,4.979-3.826,5.877-6.831c0.355-1.164,35.231-117.38,59.527-202.313C342.488,43.306,341.634,30.975,336.123,21.249z
	 M182.615,414.956c-6.511,24.297-24.719,42.618-42.353,42.618c-2.164,0-4.312-0.282-6.382-0.836
	c-8.733-2.34-15.848-9.491-20.034-20.137c-4.644-11.809-5.1-26.163-1.28-40.415c6.511-24.297,24.718-42.618,42.353-42.618
	c2.164,0,4.312,0.282,6.382,0.836c8.733,2.34,15.848,9.491,20.034,20.137C185.98,386.35,186.435,400.703,182.615,414.956z"/>
<g>
</g>
<g>
</g>
<g>
</g>
<g>
</g>
<g>
</g>
<g>
</g>
<g>
</g>
<g>
</g>
<g>
</g>
<g>
</g>
<g>
</g>
<g>
</g>
<g>
</g>
<g>
</g>
<g>
</g>
</svg>
