<?xml version="1.0" encoding="iso-8859-1"?>
<!-- Generator: Adobe Illustrator 16.0.0, SVG Export Plug-In . SVG Version: 6.00 Build 0)  -->
<!DOCTYPE svg PUBLIC "-//W3C//DTD SVG 1.1//EN" "http://www.w3.org/Graphics/SVG/1.1/DTD/svg11.dtd">
<svg version="1.1" id="Capa_1" xmlns="http://www.w3.org/2000/svg" xmlns:xlink="http://www.w3.org/1999/xlink" x="0px" y="0px"
	 width="405.207px" height="405.207px" viewBox="0 0 405.207 405.207" style="enable-background:new 0 0 405.207 405.207;"
	 xml:space="preserve">
<g>
	<g>
		<path d="M253.108,51.42v36.693c0,1.478-1.213,2.688-2.688,2.688c-1.486,0-2.688-1.21-2.688-2.688V51.42
			c0-0.086,0.042-0.149,0.042-0.241c-9.502,1.037-19.448,1.748-29.496,2.113v180.096c0,1.47-1.202,2.688-2.688,2.688
			c-1.476,0-2.688-1.218-2.688-2.688V53.446c-3.448,0.087-6.871,0.124-10.304,0.124c-44.615,0-91.505-6.929-107.057-19.942v347.479
			c0,11.402,43.972,24.101,107.057,24.101c16.514,0,31.685-0.882,45.134-2.368V141.006c0-1.477,1.202-2.688,2.688-2.688
			c1.475,0,2.688,1.211,2.688,2.688v261.181c34.799-4.431,56.551-13.07,56.551-21.081V33.622
			c-9.596,8.037-31.138,13.756-56.73,16.937C253.03,50.85,253.108,51.118,253.108,51.42z M109.878,285.253
			c0,1.476-1.205,2.688-2.688,2.688s-2.688-1.212-2.688-2.688V128.691c0-1.478,1.205-2.688,2.688-2.688s2.688,1.21,2.688,2.688
			V285.253z M131.379,357.821c0,1.475-1.204,2.686-2.687,2.686c-1.484,0-2.688-1.211-2.688-2.686V172.367
			c0-1.478,1.204-2.688,2.688-2.688c1.483,0,2.687,1.21,2.687,2.688V357.821z M131.379,158.928c0,1.484-1.204,2.688-2.687,2.688
			c-1.484,0-2.688-1.204-2.688-2.688v-25.979c0-1.478,1.204-2.688,2.688-2.688c1.483,0,2.687,1.21,2.687,2.688V158.928z
			 M134.965,117.714c0,1.484-1.205,2.688-2.688,2.688s-2.688-1.204-2.688-2.688V97.11c0-1.477,1.205-2.687,2.688-2.687
			s2.688,1.21,2.688,2.687V117.714z M148.403,367.669c0,1.485-1.205,2.688-2.688,2.688s-2.688-1.202-2.688-2.688v-18.814
			c0-1.47,1.205-2.688,2.688-2.688s2.688,1.218,2.688,2.688V367.669z M148.403,245.829c0,1.476-1.205,2.688-2.688,2.688
			s-2.688-1.213-2.688-2.688v-99.447c0-1.478,1.205-2.688,2.688-2.688s2.688,1.21,2.688,2.688V245.829z M190.509,381.106
			c0,1.486-1.205,2.689-2.688,2.689c-1.483,0-2.688-1.203-2.688-2.689V219.403c0-1.48,1.204-2.688,2.688-2.688
			c1.483,0,2.688,1.207,2.688,2.688V381.106z M291.748,80.216c0-1.478,1.213-2.688,2.688-2.688c1.476,0,2.688,1.21,2.688,2.688
			v43.772c0,1.483-1.213,2.688-2.688,2.688c-1.475,0-2.688-1.205-2.688-2.688V80.216z M286.374,309.353
			c0-1.485,1.213-2.688,2.687-2.688c1.477,0,2.688,1.202,2.688,2.688v43.093c0,1.476-1.211,2.688-2.688,2.688
			c-1.474,0-2.687-1.213-2.687-2.688V309.353z M272.032,123.988c0-1.478,1.213-2.688,2.688-2.688c1.485,0,2.688,1.21,2.688,2.688
			v115.574c0,1.474-1.202,2.687-2.688,2.687c-1.475,0-2.688-1.213-2.688-2.687V123.988z"/>
		<path d="M202.604,48.195c63.082,0,107.062-12.702,107.062-24.098S265.686,0,202.604,0C139.519,0,95.547,12.695,95.547,24.097
			S139.514,48.195,202.604,48.195z M202.604,7.52c28.693,0,59.581,5.186,59.581,16.572c0,11.386-30.888,16.572-59.581,16.572
			s-59.576-5.187-59.576-16.572C143.027,12.706,173.91,7.52,202.604,7.52z"/>
		<path d="M202.604,35.293c35.061,0,54.205-7.396,54.205-11.197c0-3.8-19.145-11.197-54.205-11.197
			c-35.063,0-54.2,7.396-54.2,11.197C148.403,27.897,167.535,35.293,202.604,35.293z M187.821,21.404h27.774
			c1.48,0,2.688,1.21,2.688,2.688c0,1.482-1.207,2.688-2.688,2.688h-27.774c-1.483,0-2.688-1.205-2.688-2.688
			C185.134,22.614,186.333,21.404,187.821,21.404z"/>
	</g>
</g>
<g>
</g>
<g>
</g>
<g>
</g>
<g>
</g>
<g>
</g>
<g>
</g>
<g>
</g>
<g>
</g>
<g>
</g>
<g>
</g>
<g>
</g>
<g>
</g>
<g>
</g>
<g>
</g>
<g>
</g>
</svg>
