<?xml version="1.0" encoding="iso-8859-1"?>
<!-- Generator: Adobe Illustrator 16.0.0, SVG Export Plug-In . SVG Version: 6.00 Build 0)  -->
<!DOCTYPE svg PUBLIC "-//W3C//DTD SVG 1.1//EN" "http://www.w3.org/Graphics/SVG/1.1/DTD/svg11.dtd">
<svg version="1.1" id="Capa_1" xmlns="http://www.w3.org/2000/svg" xmlns:xlink="http://www.w3.org/1999/xlink" x="0px" y="0px"
	 width="423.062px" height="423.062px" viewBox="0 0 423.062 423.062" style="enable-background:new 0 0 423.062 423.062;"
	 xml:space="preserve">
<g>
	<g>
		<path d="M213.83,1.187c-0.986-1.582-3.602-1.582-4.588,0c-3.343,5.384-81.886,132.274-81.886,177.525
			c0,45.516,36.315,82.593,81.475,84.043v157.607c0,1.492,1.21,2.7,2.7,2.7c1.489,0,2.7-1.208,2.7-2.7V262.744
			c45.15-1.45,81.475-38.538,81.475-84.037C295.711,133.46,217.174,6.565,213.83,1.187z M214.236,220.493v-47.698
			c0-1.492-1.21-2.7-2.7-2.7c-1.489,0-2.7,1.208-2.7,2.7v47.698c-24.424-1.413-43.88-21.671-43.88-46.445
			c0-22.832,36.909-85.343,46.58-101.332c9.672,15.984,46.58,78.5,46.58,101.332C258.116,198.822,238.657,219.08,214.236,220.493z"
			/>
	</g>
</g>
<g>
</g>
<g>
</g>
<g>
</g>
<g>
</g>
<g>
</g>
<g>
</g>
<g>
</g>
<g>
</g>
<g>
</g>
<g>
</g>
<g>
</g>
<g>
</g>
<g>
</g>
<g>
</g>
<g>
</g>
</svg>
