<?xml version='1.0' encoding='iso-8859-1'?>
<svg version="1.1" xmlns="http://www.w3.org/2000/svg" viewBox="0 0 350.782 350.782" xmlns:xlink="http://www.w3.org/1999/xlink" enable-background="new 0 0 350.782 350.782">
  <path d="M141.959,323.736l27.047,27.046h120.741V210.042c0-21.251-11.899-39.774-29.384-49.259h2.527v-30h-27.5V0  h-120v130.782h-27.5v30h2.527c-17.485,9.485-29.384,28.008-29.384,49.259v140.741h53.879L141.959,323.736z M145.391,30h60v100.782  h-60V30z M91.035,320.782V210.042c0-14.336,11.663-26,26-26h116.713c14.337,0,26,11.664,26,26v110.741h-78.315l-39.473-39.473  l-39.472,39.473H91.035z"/>
</svg>
