<?xml version="1.0" encoding="iso-8859-1"?>
<!-- Generator: Adobe Illustrator 19.0.0, SVG Export Plug-In . SVG Version: 6.00 Build 0)  -->
<svg version="1.1" id="Layer_1" xmlns="http://www.w3.org/2000/svg" xmlns:xlink="http://www.w3.org/1999/xlink" x="0px" y="0px"
	 viewBox="0 0 512 512" style="enable-background:new 0 0 512 512;" xml:space="preserve">
<g>
	<circle style="fill:#BF9484;" cx="291.697" cy="488.152" r="16.01"/>
	<circle style="fill:#BF9484;" cx="31.852" cy="448.132" r="16.01"/>
</g>
<circle style="fill:#F1506E;" cx="135.919" cy="135.919" r="128.084"/>
<g>
	<polygon style="fill:#BF9484;" points="260.003,91.891 95.894,255.999 71.878,247.994 247.995,71.878 	"/>
	<polygon style="fill:#BF9484;" points="264.513,151.931 151.932,264.817 119.91,264.817 264.513,119.909 	"/>
	<polygon style="fill:#BF9484;" points="63.872,111.904 39.857,111.904 39.857,55.867 63.872,31.851 	"/>
	<polygon style="fill:#BF9484;" points="111.905,111.904 87.889,111.904 87.889,23.845 111.905,7.835 	"/>
	<polygon style="fill:#BF9484;" points="159.937,111.904 135.92,111.904 135.92,7.835 159.937,15.84 	"/>
	<polygon style="fill:#BF9484;" points="207.968,79.883 183.952,103.898 183.952,23.845 207.968,31.851 	"/>
	<rect x="7.835" y="135.919" style="fill:#BF9484;" width="128.084" height="24.016"/>
	<polygon style="fill:#BF9484;" points="79.883,207.968 23.846,207.968 15.84,183.951 103.899,183.951 	"/>
</g>
<path d="M476.147,408.271H107.902c-6.715,0-12.178-5.462-12.178-12.178c0-6.715,5.462-12.177,12.178-12.177h344.229
	c15.355,0,27.848-12.493,27.848-27.848s-12.493-27.848-27.848-27.848H288.021c-4.508,0-8.175-3.668-8.175-8.175
	c0-4.509,3.668-8.176,8.175-8.176h28.018c15.355,0,27.848-12.492,27.848-27.847s-12.493-27.848-27.848-27.848H199.217
	c43.148-22.805,72.623-68.146,72.623-120.25C271.84,60.974,210.867,0,135.92,0C60.974,0,0.001,60.974,0.001,135.92
	s60.974,135.92,135.92,135.92h180.12c6.716,0,12.178,5.462,12.178,12.178c0,6.715-5.462,12.177-12.178,12.177h-28.018
	c-13.148,0-23.845,10.697-23.845,23.846c0,13.148,10.697,23.845,23.845,23.845h164.109c6.716,0,12.178,5.462,12.178,12.178
	s-5.462,12.178-12.178,12.178H107.902c-15.355,0-27.848,12.492-27.848,27.847c0,15.355,12.492,27.848,27.848,27.848h368.245
	c11.129,0,20.184,9.055,20.184,20.184c0,11.129-9.055,20.184-20.184,20.184h-44.03c-13.149,0-23.846,10.696-23.846,23.845
	c0,4.508-3.668,8.176-8.175,8.176h-32.02v15.67h32.02c13.148,0,23.845-10.697,23.845-23.846c0-4.508,3.669-8.175,8.176-8.175h44.029
	c19.77,0,35.853-16.083,35.853-35.853C511.999,424.352,495.916,408.271,476.147,408.271z M223.336,53.435l-7.922,7.922V45.774
	C218.169,48.207,220.813,50.762,223.336,53.435z M172.829,103.942h-4.423v-83.8c2.829,0.795,5.616,1.688,8.357,2.681v77.186
	L172.829,103.942z M192.432,29.804c2.49,1.332,4.93,2.747,7.313,4.245v42.977l-7.313,7.313V29.804z M143.334,15.905
	c3.168,0.193,6.303,0.517,9.402,0.952v87.086h-9.402V15.905z M119.307,16.823c2.758-0.383,5.544-0.675,8.357-0.866v87.985h-8.357
	V16.823z M96.325,22.391c2.404-0.842,4.842-1.61,7.313-2.3v83.852h-7.313V22.391z M72.298,33.926
	c2.713-1.699,5.506-3.278,8.357-4.76v74.777h-8.357V33.926z M47.227,54.807c2.964-3.238,6.104-6.312,9.402-9.211v58.345h-9.402
	V54.807z M31.557,76.234v27.708H19.996C22.7,94.153,26.606,84.857,31.557,76.234z M16.776,119.612h140.382l-8.357,8.357H15.932
	C16.117,125.156,16.401,122.37,16.776,119.612z M15.925,143.639h117.207l-8.357,8.357H16.748
	C16.378,149.238,16.104,146.451,15.925,143.639z M19.931,167.665h89.174l-8.357,8.357H22.555
	C21.583,173.28,20.706,170.494,19.931,167.665z M34.252,200.049c-1.718-2.716-3.338-5.501-4.839-8.357h55.665l-8.357,8.357H34.252z
	 M53.435,223.336c-2.571-2.427-5.026-4.974-7.375-7.617h14.992L53.435,223.336z M65.558,233.374L233.374,65.558
	c1.387,1.916,2.701,3.886,3.976,5.884L71.443,237.349C69.444,236.075,67.474,234.761,65.558,233.374z M85.764,245.189L245.19,85.763
	c1.048,2.273,2.017,4.589,2.925,6.935L92.699,248.115C90.352,247.208,88.037,246.238,85.764,245.189z M118.015,254.819
	c-2.803-0.42-5.571-0.941-8.308-1.552l143.56-143.558c0.611,2.736,1.131,5.504,1.552,8.306L118.015,254.819z M138.863,256.133
	l117.271-117.271c-0.086,3.571-0.336,7.099-0.728,10.587L149.452,255.405C145.963,255.797,142.434,256.046,138.863,256.133z
	 M248.289,178.728c-12.204,31.925-37.635,57.358-69.561,69.561L248.289,178.728z"/>
<rect x="232.131" y="480.014" style="fill:#FBB03B;" width="15.67" height="15.67"/>
<rect x="0.218" y="480.014" width="223.554" height="15.67"/>
<path d="M291.697,464.309c-10.291,0-19.078,6.553-22.413,15.705h-13.128v15.67h12.921c3.16,9.469,12.103,16.316,22.62,16.316
	c13.148,0,23.845-10.697,23.845-23.846C315.542,475.006,304.844,464.309,291.697,464.309z M291.697,496.33
	c-4.508,0-8.175-3.669-8.175-8.176c0-4.508,3.668-8.175,8.175-8.175c4.508,0,8.175,3.668,8.175,8.175
	C299.872,492.662,296.205,496.33,291.697,496.33z"/>
<path d="M31.851,424.281c-13.148,0-23.845,10.697-23.845,23.846c0,13.148,10.697,23.845,23.845,23.845
	c10.395,0,19.253-6.689,22.509-15.986h9.581v-15.67h-9.565C51.135,430.994,42.265,424.281,31.851,424.281z M31.851,456.304
	c-4.508,0-8.175-3.668-8.175-8.175c0-4.508,3.668-8.176,8.175-8.176s8.176,3.669,8.176,8.176S36.359,456.304,31.851,456.304z"/>
<rect x="72.3" y="440.318" style="fill:#FBB03B;" width="15.67" height="15.67"/>
<rect x="96.327" y="440.318" width="223.554" height="15.67"/>
<g>
</g>
<g>
</g>
<g>
</g>
<g>
</g>
<g>
</g>
<g>
</g>
<g>
</g>
<g>
</g>
<g>
</g>
<g>
</g>
<g>
</g>
<g>
</g>
<g>
</g>
<g>
</g>
<g>
</g>
</svg>
