<?xml version="1.0" encoding="iso-8859-1"?>
<!-- Generator: Adobe Illustrator 19.0.0, SVG Export Plug-In . SVG Version: 6.00 Build 0)  -->
<svg version="1.1" id="Layer_1" xmlns="http://www.w3.org/2000/svg" xmlns:xlink="http://www.w3.org/1999/xlink" x="0px" y="0px"
	 viewBox="0 0 512 512" style="enable-background:new 0 0 512 512;" xml:space="preserve">
<path style="fill:#002833;" d="M0,355.28V31.36c0-5.76,4.72-10.48,10.48-10.48H501.6c5.68,0,10.4,4.72,10.4,10.48v323.92"/>
<g>
	<path style="fill:#E8E8E8;" d="M512,355.28v41.76c0,5.76-4.72,10.48-10.48,10.48H10.48C4.72,407.52,0,402.8,0,397.04v-41.76H512z"
		/>
	<rect x="146.32" y="480.64" style="fill:#E8E8E8;" width="219.44" height="10.48"/>
</g>
<polygon style="fill:#C9C9C9;" points="329.12,480.64 182.88,480.64 193.28,407.52 318.72,407.52 "/>
<rect x="20.88" y="41.76" style="fill:#8AD5DD;" width="470.24" height="292.56"/>
<rect x="326.08" y="253.84" style="fill:#FFFFFF;" width="20.88" height="35.28"/>
<rect x="285.92" y="212.08" style="fill:#002833;" width="20.88" height="77.04"/>
<rect x="245.76" y="170.4" style="fill:#FFFFFF;" width="20.88" height="118.72"/>
<rect x="205.6" y="128.72" style="fill:#002833;" width="20.88" height="160.4"/>
<rect x="165.44" y="87.04" style="fill:#FFFFFF;" width="20.88" height="202.08"/>
<g>
</g>
<g>
</g>
<g>
</g>
<g>
</g>
<g>
</g>
<g>
</g>
<g>
</g>
<g>
</g>
<g>
</g>
<g>
</g>
<g>
</g>
<g>
</g>
<g>
</g>
<g>
</g>
<g>
</g>
</svg>
