<?xml version="1.0" encoding="iso-8859-1"?>
<!-- Generator: Adobe Illustrator 19.0.0, SVG Export Plug-In . SVG Version: 6.00 Build 0)  -->
<svg version="1.1" id="Layer_1" xmlns="http://www.w3.org/2000/svg" xmlns:xlink="http://www.w3.org/1999/xlink" x="0px" y="0px"
	 viewBox="0 0 512 512" style="enable-background:new 0 0 512 512;" xml:space="preserve">
<g>
	<g>
		<path d="M319.815,175.928H192.185v287.565h127.632V175.928H319.815z M304.138,447.815h-96.277v-256.21h96.277V447.815z"/>
	</g>
</g>
<g>
	<g>
		<polygon points="328.126,400.17 328.126,415.847 352.164,415.847 352.164,438.84 328.126,438.84 328.126,454.517 352.164,454.517 
			352.164,496.323 159.859,496.323 159.859,454.517 183.897,454.517 183.897,438.84 159.859,438.84 159.859,415.847 
			183.897,415.847 183.897,400.17 144.181,400.17 144.181,512 367.842,512 367.842,400.17 		"/>
	</g>
</g>
<g>
	<g>
		<rect x="247.646" y="472.289" width="16.722" height="15.677"/>
	</g>
</g>
<g>
	<g>
		<rect x="224.653" y="472.289" width="15.677" height="15.677"/>
	</g>
</g>
<g>
	<g>
		<rect x="271.684" y="472.289" width="15.677" height="15.677"/>
	</g>
</g>
<g>
	<g>
		<path d="M216.175,199.918v79.65h79.65v-79.65H216.175z M280.148,263.891h-48.296v-48.296h48.296V263.891z"/>
	</g>
</g>
<g>
	<g>
		<rect x="216.292" y="295.66" width="15.677" height="15.677"/>
	</g>
</g>
<g>
	<g>
		<rect x="240.33" y="295.66" width="31.354" height="15.677"/>
	</g>
</g>
<g>
	<g>
		<rect x="280.046" y="295.66" width="15.677" height="15.677"/>
	</g>
</g>
<g>
	<g>
		<rect x="216.292" y="319.698" width="15.677" height="15.677"/>
	</g>
</g>
<g>
	<g>
		<rect x="247.646" y="319.698" width="16.722" height="15.677"/>
	</g>
</g>
<g>
	<g>
		<rect x="280.046" y="319.698" width="15.677" height="15.677"/>
	</g>
</g>
<g>
	<g>
		<rect x="216.292" y="343.737" width="15.677" height="15.677"/>
	</g>
</g>
<g>
	<g>
		<rect x="247.646" y="343.737" width="16.722" height="15.677"/>
	</g>
</g>
<g>
	<g>
		<rect x="280.046" y="343.737" width="15.677" height="15.677"/>
	</g>
</g>
<g>
	<g>
		<rect x="216.292" y="367.775" width="15.677" height="15.677"/>
	</g>
</g>
<g>
	<g>
		<rect x="247.646" y="367.775" width="16.722" height="15.677"/>
	</g>
</g>
<g>
	<g>
		<rect x="280.046" y="367.775" width="15.677" height="15.677"/>
	</g>
</g>
<g>
	<g>
		<rect x="216.292" y="391.813" width="15.677" height="15.677"/>
	</g>
</g>
<g>
	<g>
		<rect x="247.646" y="391.813" width="16.722" height="15.677"/>
	</g>
</g>
<g>
	<g>
		<rect x="280.046" y="391.813" width="15.677" height="15.677"/>
	</g>
</g>
<g>
	<g>
		<rect x="231.969" y="423.167" width="48.077" height="15.677"/>
	</g>
</g>
<g>
	<g>
		<path d="M136.208,0v151.621h85.955L256,168.539l33.839-16.919h85.953V0H136.208z M360.115,135.944h-73.977L256,151.011
			l-30.137-15.068h-73.978V15.677h208.23V135.944z"/>
	</g>
</g>
<g>
	<g>
		<path d="M238.752,42.854c-5.525-2.288-11.825-1.035-16.052,3.193l-9.93,9.929h-20.303c-8.975,0-16.276,7.301-16.276,16.276v15.113
			c0,8.976,7.301,16.276,16.276,16.276h20.303l9.93,9.93c2.825,2.825,6.575,4.322,10.4,4.322c1.9,0,3.819-0.37,5.652-1.129
			c5.524-2.288,9.093-7.63,9.093-13.609V56.463C247.845,50.483,244.276,45.142,238.752,42.854z M232.168,100.869l-12.904-12.904
			h-26.796c-0.33,0-0.599-0.269-0.599-0.599V72.253c0-0.33,0.269-0.599,0.599-0.599h26.796l12.904-12.904V100.869z"/>
	</g>
</g>
<g>
	<g>
		<polygon points="337.796,57.079 326.709,45.994 303.98,68.723 281.251,45.994 270.165,57.079 292.895,79.809 270.165,102.539 
			281.251,113.624 303.98,90.895 326.709,113.624 337.796,102.539 315.066,79.809 		"/>
	</g>
</g>
<g>
</g>
<g>
</g>
<g>
</g>
<g>
</g>
<g>
</g>
<g>
</g>
<g>
</g>
<g>
</g>
<g>
</g>
<g>
</g>
<g>
</g>
<g>
</g>
<g>
</g>
<g>
</g>
<g>
</g>
</svg>
