<?xml version="1.0" encoding="utf-8"?>
<!-- Generator: Adobe Illustrator 19.2.0, SVG Export Plug-In . SVG Version: 6.00 Build 0)  -->
<svg xmlns="http://www.w3.org/2000/svg" xmlns:xlink="http://www.w3.org/1999/xlink" version="1.1" id="microphone" x="0px" y="0px" viewBox="0 0 210.6274 236" enable-background="new 0 0 210.6274 236" xml:space="preserve" width="512" height="512">
<g>
	<circle fill="#D0E8FF" cx="91.7476" cy="76" r="4"/>
	<circle fill="#D0E8FF" cx="91.7476" cy="48" r="4"/>
	<circle fill="#D0E8FF" cx="91.7476" cy="104" r="4"/>
	<circle fill="#D0E8FF" cx="119.7476" cy="76" r="4"/>
	<circle fill="#D0E8FF" cx="119.7476" cy="132" r="4"/>
	<circle fill="#D0E8FF" cx="91.7476" cy="132" r="4"/>
	<circle fill="#D0E8FF" cx="119.7476" cy="104" r="4"/>
	<rect x="99.7476" y="192" fill="#D0E8FF" width="12" height="36"/>
	<path fill="#5CB0FF" d="M105.7476,172c25.3652,0,46-20.625,46-45.9805V53.9805c0-25.3555-20.6348-45.9805-46-45.9805   s-46,20.625-46,45.9805v72.0391C59.7476,151.375,80.3823,172,105.7476,172z M119.7476,36c6.6172,0,12,5.3828,12,12   s-5.3828,12-12,12s-12-5.3828-12-12S113.1304,36,119.7476,36z M119.7476,64c6.6172,0,12,5.3828,12,12s-5.3828,12-12,12   s-12-5.3828-12-12S113.1304,64,119.7476,64z M119.7476,92c6.6172,0,12,5.3828,12,12s-5.3828,12-12,12s-12-5.3828-12-12   S113.1304,92,119.7476,92z M119.7476,120c6.6172,0,12,5.3828,12,12s-5.3828,12-12,12s-12-5.3828-12-12S113.1304,120,119.7476,120z    M91.7476,36c6.6172,0,12,5.3828,12,12s-5.3828,12-12,12s-12-5.3828-12-12S85.1304,36,91.7476,36z M91.7476,64   c6.6172,0,12,5.3828,12,12s-5.3828,12-12,12s-12-5.3828-12-12S85.1304,64,91.7476,64z M91.7476,92c6.6172,0,12,5.3828,12,12   s-5.3828,12-12,12s-12-5.3828-12-12S85.1304,92,91.7476,92z M91.7476,120c6.6172,0,12,5.3828,12,12s-5.3828,12-12,12   s-12-5.3828-12-12S85.1304,120,91.7476,120z"/>
	<circle fill="#D0E8FF" cx="119.7476" cy="48" r="4"/>
	<path fill="#1C71DA" d="M105.7476,180c29.7754,0,54-24.2148,54-53.9805V53.9805c0-29.7656-24.2246-53.9805-54-53.9805   s-54,24.2148-54,53.9805v72.0391C51.7476,155.7852,75.9722,180,105.7476,180z M59.7476,53.9805   C59.7476,28.625,80.3823,8,105.7476,8s46,20.625,46,45.9805v72.0391c0,25.3555-20.6348,45.9805-46,45.9805s-46-20.625-46-45.9805   V53.9805z"/>
	<path fill="#1C71DA" d="M167.7476,122c-2.209,0-4,1.7891-4,4c0,31.9805-26.0195,58-58,58s-58-26.0195-58-58c0-2.2109-1.791-4-4-4   s-4,1.7891-4,4c0,31.5845,22.3152,58.03,52,64.4724V228h-24v8h28h20h28.1172v-8h-24.1172v-37.5276   c29.6848-6.4424,52-32.8879,52-64.4724C171.7476,123.7891,169.9565,122,167.7476,122z M111.7476,192v36h-12v-36H111.7476z"/>
	<rect x="175.7476" y="120" fill="#1C71DA" width="8" height="24"/>
	<rect x="27.7476" y="120" fill="#1C71DA" width="8" height="24"/>
	<path fill="#1C71DA" d="M119.7476,60c6.6172,0,12-5.3828,12-12s-5.3828-12-12-12s-12,5.3828-12,12S113.1304,60,119.7476,60z    M119.7476,44c2.2051,0,4,1.793,4,4s-1.7949,4-4,4s-4-1.793-4-4S117.5425,44,119.7476,44z"/>
	<path fill="#1C71DA" d="M91.7476,60c6.6172,0,12-5.3828,12-12s-5.3828-12-12-12s-12,5.3828-12,12S85.1304,60,91.7476,60z    M91.7476,44c2.2051,0,4,1.793,4,4s-1.7949,4-4,4s-4-1.793-4-4S89.5425,44,91.7476,44z"/>
	<path fill="#1C71DA" d="M119.7476,88c6.6172,0,12-5.3828,12-12s-5.3828-12-12-12s-12,5.3828-12,12S113.1304,88,119.7476,88z    M119.7476,72c2.2051,0,4,1.793,4,4s-1.7949,4-4,4s-4-1.793-4-4S117.5425,72,119.7476,72z"/>
	<path fill="#1C71DA" d="M91.7476,88c6.6172,0,12-5.3828,12-12s-5.3828-12-12-12s-12,5.3828-12,12S85.1304,88,91.7476,88z    M91.7476,72c2.2051,0,4,1.793,4,4s-1.7949,4-4,4s-4-1.793-4-4S89.5425,72,91.7476,72z"/>
	<path fill="#1C71DA" d="M119.7476,116c6.6172,0,12-5.3828,12-12s-5.3828-12-12-12s-12,5.3828-12,12S113.1304,116,119.7476,116z    M119.7476,100c2.2051,0,4,1.793,4,4s-1.7949,4-4,4s-4-1.793-4-4S117.5425,100,119.7476,100z"/>
	<path fill="#1C71DA" d="M91.7476,116c6.6172,0,12-5.3828,12-12s-5.3828-12-12-12s-12,5.3828-12,12S85.1304,116,91.7476,116z    M91.7476,100c2.2051,0,4,1.793,4,4s-1.7949,4-4,4s-4-1.793-4-4S89.5425,100,91.7476,100z"/>
	<path fill="#1C71DA" d="M119.7476,144c6.6172,0,12-5.3828,12-12s-5.3828-12-12-12s-12,5.3828-12,12S113.1304,144,119.7476,144z    M119.7476,128c2.2051,0,4,1.793,4,4s-1.7949,4-4,4s-4-1.793-4-4S117.5425,128,119.7476,128z"/>
	<path fill="#1C71DA" d="M91.7476,144c6.6172,0,12-5.3828,12-12s-5.3828-12-12-12s-12,5.3828-12,12S85.1304,144,91.7476,144z    M91.7476,128c2.2051,0,4,1.793,4,4s-1.7949,4-4,4s-4-1.793-4-4S89.5425,128,91.7476,128z"/>
</g>
<path fill="#FF5D5D" d="M8,95.8223c-1.0239,0-2.0474-0.3906-2.8286-1.1719c-1.562-1.5615-1.562-4.0947,0-5.6562l14.1421-14.1416  c1.5635-1.5625,4.0957-1.5615,5.6572,0c1.562,1.5615,1.562,4.0947,0,5.6562L10.8286,94.6504  C10.0474,95.4316,9.0234,95.8223,8,95.8223z"/>
<path fill="#FF5D5D" d="M22.1421,95.8223c-1.0239,0-2.0474-0.3906-2.8286-1.1719L5.1714,80.5088  c-1.562-1.5615-1.562-4.0947,0-5.6562c1.5625-1.5625,4.0947-1.5625,5.6572,0l14.1421,14.1416c1.562,1.5615,1.562,4.0947,0,5.6562  C24.1895,95.4316,23.166,95.8223,22.1421,95.8223z"/>
<path fill="#00D40B" d="M14,223.8223c-7.7197,0-14-6.2803-14-14s6.2803-14,14-14s14,6.2803,14,14S21.7197,223.8223,14,223.8223z   M14,203.8223c-3.3086,0-6,2.6914-6,6s2.6914,6,6,6s6-2.6914,6-6S17.3086,203.8223,14,203.8223z"/>
<path fill="#FFC504" d="M195.3135,78.4492c-1.0239,0-2.0474-0.3906-2.8286-1.1719l-11.3135-11.3135  c-1.562-1.5615-1.562-4.0947,0-5.6562l11.3135-11.3135c1.5625-1.5625,4.0952-1.5625,5.6567,0l11.314,11.3135  c0.7505,0.75,1.1719,1.7676,1.1719,2.8281s-0.4214,2.0781-1.1719,2.8281l-11.314,11.3135  C197.3608,78.0586,196.3369,78.4492,195.3135,78.4492z M189.6567,63.1357l5.6567,5.6562l5.6572-5.6562l-5.6572-5.6562  L189.6567,63.1357z"/>
</svg>
