<?xml version="1.0" encoding="utf-8"?>
<!-- Generator: Adobe Illustrator 19.2.0, SVG Export Plug-In . SVG Version: 6.00 Build 0)  -->
<svg xmlns="http://www.w3.org/2000/svg" xmlns:xlink="http://www.w3.org/1999/xlink" version="1.1" id="localconnection" x="0px" y="0px" viewBox="0 0 239.9997 204.1777" enable-background="new 0 0 239.9997 204.1777" xml:space="preserve" width="512" height="512">
<g>
	<rect x="143.9998" y="136.1777" fill="#D0E8FF" width="80" height="40"/>
	<polygon fill="#D0E8FF" points="142.7069,184.1777 137.9061,196.1777 230.0936,196.1777 225.2928,184.1777  "/>
	<polygon fill="#D0E8FF" points="14.7069,68.1777 9.9061,80.1777 102.0936,80.1777 97.2928,68.1777  "/>
	<rect x="15.9999" y="20.1777" fill="#5CB0FF" width="80" height="40"/>
	<path fill="#1C71DA" d="M115.9999,52.1777c30.8789,0,56,25.1211,56,56c0,2.2109,1.7891,4,4,4s4-1.7891,4-4   c0-35.2891-28.7109-64-64-64c-2.2109,0-4,1.7891-4,4S113.7889,52.1777,115.9999,52.1777z"/>
	<path fill="#1C71DA" d="M115.9999,164.1777c-30.8789,0-56-25.1211-56-56c0-2.2109-1.7891-4-4-4s-4,1.7891-4,4   c0,35.2891,28.7109,64,64,64c2.2109,0,4-1.7891,4-4S118.2108,164.1777,115.9999,164.1777z"/>
	<path fill="#1C71DA" d="M239.7147,198.6934l-7.7148-19.2871v-47.2285c0-2.2109-1.7891-4-4-4h-88c-2.2109,0-4,1.7891-4,4v47.2285   l-7.7148,19.2871c-0.4922,1.2305-0.3398,2.6289,0.4023,3.7266c0.7461,1.0977,1.9844,1.7578,3.3125,1.7578h104   c1.3281,0,2.5664-0.6602,3.3125-1.7578C240.0545,201.3223,240.2069,199.9238,239.7147,198.6934z M143.9998,136.1777h80v40h-80   V136.1777z M137.9061,196.1777l4.8008-12h82.5859l4.8008,12H137.9061z"/>
	<path fill="#1C71DA" d="M111.3124,86.4199c0.7422-1.0977,0.8945-2.4961,0.4023-3.7266l-7.7148-19.2871V16.1777   c0-2.2109-1.7891-4-4-4h-88c-2.2109,0-4,1.7891-4,4v47.2285L0.285,82.6934c-0.4922,1.2305-0.3398,2.6289,0.4023,3.7266   c0.7461,1.0977,1.9844,1.7578,3.3125,1.7578h104C109.328,88.1777,110.5663,87.5176,111.3124,86.4199z M15.9999,20.1777h80v40h-80   V20.1777z M9.9061,80.1777l4.8008-12h82.5859l4.8008,12H9.9061z"/>
</g>
<path fill="#FF5D5D" d="M116.2518,124c-1.0234,0-2.0479-0.3906-2.8281-1.1719c-1.5625-1.5615-1.5625-4.0947,0-5.6562  l14.1426-14.1426c1.5605-1.5625,4.0957-1.5625,5.6562,0c1.5625,1.5615,1.5625,4.0947,0,5.6562l-14.1426,14.1426  C118.2997,123.6094,117.2752,124,116.2518,124z"/>
<path fill="#FF5D5D" d="M130.3944,124c-1.0234,0-2.0469-0.3906-2.8281-1.1719l-14.1426-14.1416  c-1.5625-1.5615-1.5625-4.0947,0-5.6562c1.5605-1.5625,4.0938-1.5625,5.6562,0l14.1426,14.1416  c1.5625,1.5615,1.5625,4.0947,0,5.6562C132.4422,123.6094,131.4178,124,130.3944,124z"/>
<path fill="#00D40B" d="M42.2518,192c-7.7197,0-14-6.2803-14-14s6.2803-14,14-14s14,6.2803,14,14S49.9715,192,42.2518,192z   M42.2518,172c-3.3086,0-6,2.6914-6,6s2.6914,6,6,6s6-2.6914,6-6S45.5604,172,42.2518,172z"/>
<path fill="#FFC504" d="M219.5663,30.627c-1.0234,0-2.0469-0.3906-2.8281-1.1719l-11.3145-11.3135  c-0.75-0.75-1.1719-1.7676-1.1719-2.8281s0.4219-2.0781,1.1719-2.8281l11.3145-11.3135c1.5625-1.5625,4.0938-1.5625,5.6562,0  l11.3135,11.3135c1.5625,1.5615,1.5625,4.0947,0,5.6562l-11.3135,11.3135C221.6141,30.2363,220.5897,30.627,219.5663,30.627z   M213.909,15.3135l5.6572,5.6572l5.6562-5.6572l-5.6562-5.6572L213.909,15.3135z"/>
</svg>
