<?xml version="1.0" encoding="iso-8859-1"?>
<!-- Generator: Adobe Illustrator 19.0.0, SVG Export Plug-In . SVG Version: 6.00 Build 0)  -->
<svg version="1.1" id="Layer_1" xmlns="http://www.w3.org/2000/svg" xmlns:xlink="http://www.w3.org/1999/xlink" x="0px" y="0px"
	 viewBox="0 0 501.333 501.333" style="enable-background:new 0 0 501.333 501.333;" xml:space="preserve">
<g>
	<g>
		<path d="M250.667,0C112,0,0,112,0,250.667s112,250.667,250.667,250.667s250.667-112,250.667-250.667S389.333,0,250.667,0z
			 M229.333,458.667C123.733,448,41.6,358.4,41.6,250.667c0-44.8,14.933-86.4,38.4-120.533l149.333,130.133V458.667z M249.6,221.867
			L108.8,98.133c37.333-35.2,87.467-56.533,141.867-56.533c50.134,0,96,18.133,132.267,46.933L249.6,221.867z M272,458.667V259.2
			l140.8-140.8c29.867,36.267,46.933,82.133,46.933,132.267C459.733,358.4,377.6,448,272,458.667z"/>
	</g>
</g>
<g>
</g>
<g>
</g>
<g>
</g>
<g>
</g>
<g>
</g>
<g>
</g>
<g>
</g>
<g>
</g>
<g>
</g>
<g>
</g>
<g>
</g>
<g>
</g>
<g>
</g>
<g>
</g>
<g>
</g>
</svg>
