<?xml version="1.0" encoding="iso-8859-1"?>
<!-- Generator: Adobe Illustrator 19.0.0, SVG Export Plug-In . SVG Version: 6.00 Build 0)  -->
<svg version="1.1" id="Layer_1" xmlns="http://www.w3.org/2000/svg" xmlns:xlink="http://www.w3.org/1999/xlink" x="0px" y="0px"
	 viewBox="0 0 512 512" style="enable-background:new 0 0 512 512;" xml:space="preserve">
<g>
	<g>
		<path d="M351.136,98.556V81.761h16.705c4.812,0,8.713-3.901,8.713-8.713V8.713c0-4.812-3.901-8.713-8.713-8.713H144.159
			c-4.812,0-8.713,3.901-8.713,8.713v64.335c0,4.812,3.901,8.713,8.713,8.713h16.705v16.796
			c-28.994,0.926-52.299,24.783-52.299,53.998v305.402c0,29.799,24.243,54.043,54.043,54.043h186.785
			c29.799,0,54.043-24.243,54.043-54.043V152.555C403.435,123.341,380.13,99.482,351.136,98.556z M152.875,64.335V17.426h206.254
			v46.909h-16.705H169.579H152.875z M333.71,81.761v16.751H178.292V81.761H333.71z M386.01,457.957h-0.001
			c0,20.19-16.426,36.617-36.617,36.617H162.608c-20.19,0-36.617-16.426-36.617-36.617V152.555c0-20.19,16.426-36.617,36.617-36.617
			h6.97h172.845h6.97c20.19,0,36.617,16.426,36.617,36.617V457.957z"/>
	</g>
</g>
<g>
	<g>
		<path d="M363.734,167.337H148.268c-4.812,0-8.713,3.901-8.713,8.713v278.869c0,14.386,11.705,26.09,26.09,26.09h180.71
			c14.386,0,26.09-11.705,26.09-26.09V176.05C372.447,171.238,368.546,167.337,363.734,167.337z M346.357,463.583H165.646
			c-4.777,0-8.664-3.887-8.664-8.664V184.763H355.02v270.156h0.001C355.021,459.696,351.134,463.583,346.357,463.583z"/>
	</g>
</g>
<g>
	<g>
		<path d="M294.218,193.756c-27.872,0-50.547,22.676-50.547,50.547c0,27.871,22.675,50.547,50.547,50.547
			c27.871,0,50.547-22.676,50.547-50.547C344.765,216.431,322.089,193.756,294.218,193.756z M294.218,277.425
			c-18.264,0-33.121-14.859-33.121-33.121c0-18.264,14.857-33.121,33.121-33.121c18.263,0,33.121,14.859,33.121,33.121
			S312.48,277.425,294.218,277.425z"/>
	</g>
</g>
<g>
	<g>
		<path d="M282.459,337.246c-0.583,0-1.161,0.026-1.739,0.044c-3.533-24.444-24.613-43.288-50.02-43.288
			c-27.874,0-50.55,22.676-50.55,50.55c0,27.069,21.397,49.229,48.169,50.476c1.819,28.288,25.4,50.75,54.139,50.75
			c29.922,0,54.266-24.343,54.266-54.265C336.725,361.592,312.38,337.246,282.459,337.246z M229.996,377.645
			c-17.94-0.376-32.42-15.071-32.42-33.093c0-18.264,14.86-33.124,33.124-33.124c16.939,0,30.941,12.784,32.884,29.21
			C247.188,346.741,234.518,360.552,229.996,377.645z M282.459,428.351c-20.313,0-36.84-16.526-36.84-36.839
			c0-20.313,16.527-36.84,36.84-36.84c20.313,0,36.84,16.527,36.84,36.84C319.299,411.825,302.772,428.351,282.459,428.351z"/>
	</g>
</g>
<g>
	<g>
		<path d="M204.666,211.961c-16.082,0-29.166,13.083-29.166,29.164c0,16.081,13.084,29.165,29.166,29.165
			s29.165-13.083,29.165-29.165C233.832,225.043,220.748,211.961,204.666,211.961z M204.666,252.865
			c-6.473,0-11.739-5.266-11.739-11.739c0-6.473,5.266-11.738,11.739-11.738c6.473,0,11.739,5.266,11.739,11.738
			C216.406,247.597,211.139,252.865,204.666,252.865z"/>
	</g>
</g>
<g>
	<g>
		<circle cx="200.947" cy="419.621" r="8.713"/>
	</g>
</g>
<g>
	<g>
		<circle cx="321.803" cy="319.223" r="8.713"/>
	</g>
</g>
<g>
</g>
<g>
</g>
<g>
</g>
<g>
</g>
<g>
</g>
<g>
</g>
<g>
</g>
<g>
</g>
<g>
</g>
<g>
</g>
<g>
</g>
<g>
</g>
<g>
</g>
<g>
</g>
<g>
</g>
</svg>
