<?xml version="1.0" encoding="iso-8859-1"?>
<!-- Generator: Adobe Illustrator 19.0.0, SVG Export Plug-In . SVG Version: 6.00 Build 0)  -->
<svg version="1.1" id="Layer_1" xmlns="http://www.w3.org/2000/svg" xmlns:xlink="http://www.w3.org/1999/xlink" x="0px" y="0px"
	 viewBox="0 0 478.388 478.388" style="enable-background:new 0 0 478.388 478.388;" xml:space="preserve">
<path style="fill:#D7B883;" d="M455.846,462.156l11.312-11.312c12.496-12.496,12.496-32.76,0-45.256l-79.192-79.2l-56.568,56.568
	l79.192,79.192C423.086,474.652,443.35,474.652,455.846,462.156z"/>
<g>
	<path style="fill:#DFC69C;" d="M397.678,403.812c-2.048,0-4.096-0.784-5.656-2.344l-39.6-39.6c-3.128-3.128-3.128-8.184,0-11.312
		s8.184-3.128,11.312,0l39.6,39.6c3.128,3.128,3.128,8.184,0,11.312C401.766,403.028,399.718,403.812,397.678,403.812z"/>
	<path style="fill:#DFC69C;" d="M437.27,443.404c-2.048,0-4.096-0.784-5.656-2.344l-16.968-16.976
		c-3.128-3.128-3.128-8.192,0-11.312c3.128-3.128,8.184-3.128,11.312,0l16.968,16.976c3.128,3.128,3.128,8.192,0,11.312
		C441.366,442.628,439.318,443.404,437.27,443.404z"/>
</g>
<path style="fill:#8E6725;" d="M301.502,412.78l113.136-113.136c18.744-18.744,18.744-49.136,0-67.88l-67.88-67.88L165.742,344.9
	l67.88,67.88C252.366,431.524,282.758,431.524,301.502,412.78z"/>
<path style="fill:#E65039;" d="M380.702,197.82l-33.944-33.944l-135.76-135.76c-37.488-37.488-98.272-37.488-135.768,0
	L29.974,73.372c-37.488,37.488-37.488,98.272,0,135.768l135.768,135.768l22.624,22.624l11.312-11.312
	c6.248-6.248,16.376-6.248,22.624,0s16.376,6.248,22.624,0s6.248-16.376,0-22.624l22.624,22.624c6.248,6.248,16.376,6.248,22.624,0
	s6.248-16.376,0-22.624l-22.624-22.624c-6.248-6.248-6.248-16.376,0-22.624s16.376-6.248,22.624,0s16.376,6.248,22.624,0
	s6.248-16.376,0-22.624l22.624,22.624c6.248,6.248,16.376,6.248,22.624,0s6.248-16.376,0-22.624L335.422,243.1
	c-6.248-6.248-6.248-16.376,0-22.624c6.248-6.248,16.376-6.248,22.624,0s16.376,6.248,22.624,0
	C386.95,214.196,386.95,204.068,380.702,197.82z"/>
<g>
	<path style="fill:#EB7361;" d="M268.318,311.708c-0.248,0.216-0.52,0.384-0.752,0.616c-6.248,6.248-6.248,16.376,0,22.624
		l21.872,21.872c0.248-0.216,0.52-0.384,0.752-0.616c6.248-6.248,6.248-16.376,0-22.624L268.318,311.708z"/>
	<path style="fill:#EB7361;" d="M29.974,97.372L75.23,52.116c37.488-37.488,98.272-37.488,135.768,0l135.768,135.768l33.184,33.184
		c0.248-0.216,0.52-0.384,0.752-0.616c6.248-6.248,6.248-16.376,0-22.624l-33.944-33.944L210.998,28.116
		c-37.488-37.488-98.272-37.488-135.768,0L29.974,73.372C8.166,95.18-0.858,124.852,2.702,153.252
		C5.262,132.828,14.294,113.052,29.974,97.372z"/>
	<path style="fill:#EB7361;" d="M336.198,243.828c-0.248,0.216-0.52,0.384-0.752,0.616c-6.248,6.248-6.248,16.376,0,22.624
		l21.872,21.872c0.248-0.216,0.52-0.384,0.752-0.616c6.248-6.248,6.248-16.376,0-22.624L336.198,243.828z"/>
</g>
<g>
	<path style="fill:#FCB641;" d="M156.534,78.388c-4.416,0-8-3.584-8-8v-24c0-4.416,3.584-8,8-8s8,3.584,8,8v24
		C164.534,74.804,160.95,78.388,156.534,78.388z"/>
	<path style="fill:#FCB641;" d="M92.534,86.388h-24c-4.416,0-8-3.584-8-8s3.584-8,8-8h24c4.416,0,8,3.584,8,8
		S96.95,86.388,92.534,86.388z"/>
	<path style="fill:#FCB641;" d="M140.534,166.388c-4.416,0-8-3.584-8-8v-24c0-4.416,3.584-8,8-8s8,3.584,8,8v24
		C148.534,162.804,144.95,166.388,140.534,166.388z"/>
	<path style="fill:#FCB641;" d="M76.534,174.388h-24c-4.416,0-8-3.584-8-8s3.584-8,8-8h24c4.416,0,8,3.584,8,8
		S80.95,174.388,76.534,174.388z"/>
	<path style="fill:#FCB641;" d="M276.534,190.388c-4.424,0-8-3.584-8-8v-24c0-4.416,3.576-8,8-8s8,3.584,8,8v24
		C284.534,186.804,280.958,190.388,276.534,190.388z"/>
	<path style="fill:#FCB641;" d="M212.534,206.388h-24c-4.416,0-8-3.584-8-8s3.584-8,8-8h24c4.416,0,8,3.584,8,8
		S216.95,206.388,212.534,206.388z"/>
	<path style="fill:#FCB641;" d="M196.534,270.388h-24c-4.416,0-8-3.584-8-8s3.584-8,8-8h24c4.416,0,8,3.584,8,8
		S200.95,270.388,196.534,270.388z"/>
	<path style="fill:#FCB641;" d="M236.534,118.388h-24c-4.416,0-8-3.584-8-8s3.584-8,8-8h24c4.416,0,8,3.584,8,8
		S240.95,118.388,236.534,118.388z"/>
	<path style="fill:#FCB641;" d="M100.534,238.388c-4.416,0-8-3.584-8-8v-24c0-4.416,3.584-8,8-8s8,3.584,8,8v24
		C108.534,234.804,104.95,238.388,100.534,238.388z"/>
</g>
<g>
	<path style="fill:#E65039;" d="M116.534,478.388c-13.232,0-24-10.768-24-24v-72c0-4.408-3.592-8-8-8s-8,3.592-8,8v8
		c0,13.232-10.768,24-24,24s-24-10.768-24-24v-56c0-4.416,3.584-8,8-8s8,3.584,8,8v56c0,4.408,3.592,8,8,8s8-3.592,8-8v-8
		c0-13.232,10.768-24,24-24s24,10.768,24,24v72c0,4.408,3.592,8,8,8s8-3.592,8-8v-48c0-4.416,3.584-8,8-8s8,3.584,8,8v48
		C140.534,467.62,129.766,478.388,116.534,478.388z"/>
	<path style="fill:#E65039;" d="M28.534,310.388c-4.416,0-8-3.584-8-8v-32c0-4.416,3.584-8,8-8s8,3.584,8,8v32
		C36.534,306.804,32.95,310.388,28.534,310.388z"/>
	<path style="fill:#E65039;" d="M76.534,342.388c-4.416,0-8-3.584-8-8v-16c0-4.416,3.584-8,8-8s8,3.584,8,8v16
		C84.534,338.804,80.95,342.388,76.534,342.388z"/>
	<path style="fill:#E65039;" d="M124.534,382.388c-4.416,0-8-3.584-8-8v-32c0-4.416,3.584-8,8-8c4.416,0,8,3.584,8,8v32
		C132.534,378.804,128.95,382.388,124.534,382.388z"/>
</g>
<g>
</g>
<g>
</g>
<g>
</g>
<g>
</g>
<g>
</g>
<g>
</g>
<g>
</g>
<g>
</g>
<g>
</g>
<g>
</g>
<g>
</g>
<g>
</g>
<g>
</g>
<g>
</g>
<g>
</g>
</svg>
