<?xml version="1.0" encoding="iso-8859-1"?>
<!-- Generator: Adobe Illustrator 18.0.0, SVG Export Plug-In . SVG Version: 6.00 Build 0)  -->
<!DOCTYPE svg PUBLIC "-//W3C//DTD SVG 1.1//EN" "http://www.w3.org/Graphics/SVG/1.1/DTD/svg11.dtd">
<svg version="1.1" id="Capa_1" xmlns="http://www.w3.org/2000/svg" xmlns:xlink="http://www.w3.org/1999/xlink" x="0px" y="0px"
	 viewBox="0 0 60 60" style="enable-background:new 0 0 60 60;" xml:space="preserve">
<g>
	<path d="M59,58H22.816C22.928,57.686,23,57.352,23,57c0-1.654-1.346-3-3-3h-5V35.414l8.981-8.981C24.576,26.785,25.26,27,26,27
		c2.206,0,4-1.794,4-4s-1.794-4-4-4s-4,1.794-4,4c0,0.74,0.215,1.424,0.567,2.019L15,32.586V20.414l3.981-3.981
		C19.576,16.785,20.26,17,21,17c2.206,0,4-1.794,4-4s-1.794-4-4-4s-4,1.794-4,4c0,0.74,0.215,1.424,0.567,2.019L15,17.586V7.858
		C16.72,7.411,18,5.859,18,4c0-2.206-1.794-4-4-4s-4,1.794-4,4c0,1.859,1.28,3.411,3,3.858v19.728l-3.567-3.567
		C9.785,23.424,10,22.74,10,22c0-2.206-1.794-4-4-4s-4,1.794-4,4s1.794,4,4,4c0.74,0,1.424-0.215,2.019-0.567L13,30.414V54H8
		c-1.654,0-3,1.346-3,3c0,0.352,0.072,0.686,0.184,1H1c-0.553,0-1,0.447-1,1s0.447,1,1,1h7h12h39c0.553,0,1-0.447,1-1
		S59.553,58,59,58z"/>
	<path d="M37.228,12.98c1.037-0.693,2.348-0.829,3.504-0.365l2.075,0.83c0.619,0.247,1.315,0.134,1.822-0.301l3.764-3.227
		c1.492-1.279,3.747-1.191,5.137,0.197L58,14.586V4H32v12.549l0.445-0.381L37.228,12.98z"/>
	<path d="M58,17.414l-5.885-5.885c-0.653-0.653-1.718-0.695-2.422-0.093l-3.764,3.226c-1.072,0.921-2.554,1.165-3.865,0.641
		l-2.076-0.83c-0.545-0.22-1.161-0.153-1.651,0.172l-4.732,3.154L32,19.174V20h26V17.414z"/>
</g>
<g>
</g>
<g>
</g>
<g>
</g>
<g>
</g>
<g>
</g>
<g>
</g>
<g>
</g>
<g>
</g>
<g>
</g>
<g>
</g>
<g>
</g>
<g>
</g>
<g>
</g>
<g>
</g>
<g>
</g>
</svg>
