<?xml version='1.0' encoding='utf-8'?>
<!DOCTYPE svg PUBLIC '-//W3C//DTD SVG 1.1//EN' 'http://www.w3.org/Graphics/SVG/1.1/DTD/svg11.dtd'>
<svg version="1.1" xmlns="http://www.w3.org/2000/svg" viewBox="0 0 512 512" xmlns:xlink="http://www.w3.org/1999/xlink" enable-background="new 0 0 512 512">
  <g>
    <g>
      <path d="m160.9,345.8c-8-8-21-8-29,0l-61,61c-8,8-8,21 0,29 8,8 21,8 29,0l26-26v71.8c0,11.3 9.1,20.4 20.4,20.4 11.3,0 20.4-9.1 20.4-20.4v-71.8l26,26c8,8 21,8 29,0 8-8 8-21 0-29l-60.8-61z"/>
      <g>
        <path d="m382.1,345.8c-8-8-21-8-29,0l-61,61c-8,8-8,21 0,29 8,8 21,8 29,0l26-26v71.8c0,11.3 9.1,20.4 20.4,20.4s20.4-9.1 20.4-20.4v-71.8l26,26c8,8 21,8 29,0 8-8 8-21 0-29l-60.8-61z"/>
        <path d="m403.6,268.1h-293.2c-32.4,0-58.6-27-57.4-59.6 1.1-30 25.6-54.3 55.6-55.1 0.2,0 0.4,0 0.6,0 11.4-0.2 21.5-7.2 25.7-17.8 19.3-48.4 66.6-82.7 121.9-82.7s102.6,34.2 121.9,82.7c4.2,10.6 14.3,17.6 25.7,17.8 0.2,0 0.4,0 0.6,0 30,0.9 54.5,25.1 55.6,55.1 1.6,32.6-24.6,59.6-57,59.6zm10-155.4c-27.1-59.4-87-100.7-156.6-100.7s-129.5,41.3-156.6,100.7c-49.6,5-88.4,47-88.4,97.9 0,54.4 44.1,98.4 98.4,98.4h293.1c54.4,0 98.4-44.1 98.4-98.4 0.1-50.9-38.6-92.8-88.3-97.9z"/>
      </g>
    </g>
  </g>
</svg>
