<?xml version="1.0" encoding="iso-8859-1"?>
<!-- Generator: Adobe Illustrator 19.0.0, SVG Export Plug-In . SVG Version: 6.00 Build 0)  -->
<svg version="1.1" id="Layer_1" xmlns="http://www.w3.org/2000/svg" xmlns:xlink="http://www.w3.org/1999/xlink" x="0px" y="0px"
	 viewBox="0 0 512 512" style="enable-background:new 0 0 512 512;" xml:space="preserve">
<circle style="fill:#4DE1FF;" cx="256" cy="256" r="256"/>
<g>
	<rect x="394.893" y="213.802" style="fill:#FF6E36;" width="16.879" height="50.637"/>
	<rect x="304.871" y="213.802" style="fill:#FF6E36;" width="16.879" height="50.637"/>
	<rect x="100.228" y="213.802" style="fill:#FF6E36;" width="16.879" height="50.637"/>
</g>
<path style="fill:#7FB21E;" d="M403.328,101.608c15.537,0,28.132,12.595,28.132,28.132v64.37c0,15.537-12.595,28.132-28.132,28.132
	s-28.132-12.595-28.132-28.132v-64.37C375.196,114.203,387.791,101.608,403.328,101.608z"/>
<path style="fill:#557714;" d="M313.306,42.573c15.537,0,28.132,12.595,28.132,28.132V194.11c0,15.537-12.595,28.132-28.132,28.132
	s-28.132-12.595-28.132-28.132V70.704C285.174,55.168,297.769,42.573,313.306,42.573z"/>
<path style="fill:#7FB21E;" d="M108.672,101.608c-15.537,0-28.132,12.595-28.132,28.132v64.37c0,15.537,12.595,28.132,28.132,28.132
	s28.132-12.595,28.132-28.132v-64.37C136.804,114.203,124.209,101.608,108.672,101.608z"/>
<circle style="fill:#FFD170;" cx="210.989" cy="79.809" r="40.427"/>
<g>
	<path style="fill:#557714;" d="M79.491,391.033c40.618,53.013,104.565,87.209,176.509,87.209s135.892-34.196,176.509-87.209
		L256,368.527L79.491,391.033z"/>
	<path style="fill:#557714;" d="M475.693,289.758c1.678-11.009,2.549-22.282,2.549-33.758H33.758c0,11.477,0.871,22.75,2.549,33.758
		L256,312.264L475.693,289.758z"/>
</g>
<path style="fill:#2DB8D4;" d="M432.509,391.033c22.198-28.974,37.437-63.561,43.184-101.275H36.307
	c5.747,37.714,20.985,72.301,43.184,101.275H432.509z"/>
<g>
</g>
<g>
</g>
<g>
</g>
<g>
</g>
<g>
</g>
<g>
</g>
<g>
</g>
<g>
</g>
<g>
</g>
<g>
</g>
<g>
</g>
<g>
</g>
<g>
</g>
<g>
</g>
<g>
</g>
</svg>
