<?xml version="1.0" encoding="iso-8859-1"?>
<!-- Generator: Adobe Illustrator 19.0.0, SVG Export Plug-In . SVG Version: 6.00 Build 0)  -->
<svg version="1.1" id="Layer_1" xmlns="http://www.w3.org/2000/svg" xmlns:xlink="http://www.w3.org/1999/xlink" x="0px" y="0px"
	 viewBox="0 0 511.998 511.998" style="enable-background:new 0 0 511.998 511.998;" xml:space="preserve">
<path style="fill:#D6D5D8;" d="M505.514,130.521L443.413,68.42l0,0L381.312,6.319c-7.738-7.738-20.363-8.056-30.408-1.542
	c-0.607,0.393-1.202,0.814-1.787,1.256c-0.776,0.587-1.529,1.219-2.264,1.893c-0.323,0.297-0.655,0.573-0.967,0.886l-35.394,35.394
	l-70.79,70.789L6.825,347.873c-1.638,1.638-3.007,3.495-4.078,5.501c-0.714,1.338-1.296,2.742-1.737,4.193
	c-0.661,2.177-1.008,4.457-1.009,6.774l0.003,55.276v68.924c0,2.413,0.366,4.738,1.048,6.926c0.453,1.458,1.048,2.855,1.764,4.175
	c0.359,0.66,0.748,1.301,1.166,1.92c0.837,1.239,1.79,2.392,2.843,3.447l0,0c4.215,4.212,10.037,6.82,16.466,6.82h68.922
	l55.277,0.003c6.177,0,12.103-2.456,16.469-6.82L396.836,272.13L503.02,165.946C513.494,155.477,514.608,139.615,505.514,130.521z"
	/>
<path style="fill:#A9A8AE;" d="M505.514,130.521L443.413,68.42l0,0L381.312,6.319c-9.095-9.095-24.957-7.977-35.425,2.492
	L239.702,114.995l32.934,32.934l45.632,45.636l45.636,45.633l32.934,32.934l106.184-106.184
	C513.494,155.477,514.608,139.615,505.514,130.521z"/>
<polygon style="fill:#5286FA;" points="363.904,239.2 318.268,193.565 272.636,147.932 239.702,114.995 6.825,347.873 
	85.388,426.443 163.958,505.011 396.836,272.13 "/>
<path style="fill:#2E36D2;" d="M472.245,270.582l-124.201,124.2c-9.095,9.095-9.095,23.839,0,32.934
	c4.547,4.547,10.507,6.82,16.466,6.82c5.96,0,11.92-2.274,16.466-6.82l124.201-124.2c9.095-9.095,9.095-23.839,0-32.934
	C496.085,261.486,481.339,261.489,472.245,270.582z"/>
<polygon style="fill:#424EDE;" points="318.268,193.565 272.636,147.932 239.701,114.995 6.825,347.873 85.388,426.443 "/>
<path style="fill:#C3C3C7;" d="M6.825,347.873C2.456,352.242,0.003,358.161,0,364.341l0.003,55.276v68.924
	c0,6.434,2.61,12.252,6.822,16.468l78.564-78.565L6.825,347.873z"/>
<path style="fill:#87868D;" d="M318.268,193.565L443.413,68.42L381.312,6.319c-9.095-9.095-24.957-7.977-35.425,2.492
	L239.702,114.995l32.934,32.934L318.268,193.565z"/>
<g>
</g>
<g>
</g>
<g>
</g>
<g>
</g>
<g>
</g>
<g>
</g>
<g>
</g>
<g>
</g>
<g>
</g>
<g>
</g>
<g>
</g>
<g>
</g>
<g>
</g>
<g>
</g>
<g>
</g>
</svg>
