<?xml version="1.0" encoding="iso-8859-1"?>
<!-- Generator: Adobe Illustrator 19.0.0, SVG Export Plug-In . SVG Version: 6.00 Build 0)  -->
<svg version="1.1" id="Layer_1" xmlns="http://www.w3.org/2000/svg" xmlns:xlink="http://www.w3.org/1999/xlink" x="0px" y="0px"
	 viewBox="0 0 511.976 511.976" style="enable-background:new 0 0 511.976 511.976;" xml:space="preserve">
<g>
	<rect x="177.516" y="248" style="fill:#CCCCCC;" width="187.144" height="16"/>
	<polygon style="fill:#CCCCCC;" points="364.652,445.472 280.012,445.472 280.012,66.552 364.652,66.552 364.652,82.552 
		296.012,82.552 296.012,429.472 364.652,429.472 	"/>
</g>
<circle style="fill:#E21B1B;" cx="108.004" cy="248.64" r="108"/>
<g>
	<circle style="fill:#FFFFFF;" cx="108.004" cy="207.64" r="28.528"/>
	<path style="fill:#FFFFFF;" d="M106.74,302.104l-27.264-59.592c0,0-28.528,0.632-28.528,26.624v32.968H106.74z"/>
	<path style="fill:#FFFFFF;" d="M109.268,302.104l27.264-59.592c0,0,28.528,0.632,28.528,26.624v32.968H109.268z"/>
	<polygon style="fill:#FFFFFF;" points="90.556,245.28 108.004,284.112 125.452,245.28 	"/>
</g>
<rect x="395.436" y="197.728" style="fill:#BBBBBB;" width="116.536" height="116.536"/>
<rect x="395.436" style="fill:#333333;" width="116.536" height="116.536"/>
<rect x="395.436" y="395.44" style="fill:#E21B1B;" width="116.536" height="116.536"/>
<g>
</g>
<g>
</g>
<g>
</g>
<g>
</g>
<g>
</g>
<g>
</g>
<g>
</g>
<g>
</g>
<g>
</g>
<g>
</g>
<g>
</g>
<g>
</g>
<g>
</g>
<g>
</g>
<g>
</g>
</svg>
