<?xml version="1.0" encoding="iso-8859-1"?>
<!-- Generator: Adobe Illustrator 19.0.0, SVG Export Plug-In . SVG Version: 6.00 Build 0)  -->
<svg version="1.1" id="Layer_1" xmlns="http://www.w3.org/2000/svg" xmlns:xlink="http://www.w3.org/1999/xlink" x="0px" y="0px"
	 viewBox="0 0 512.001 512.001" style="enable-background:new 0 0 512.001 512.001;" xml:space="preserve">
<path style="fill:#EE3840;" d="M328.606,405.799l157.441-214.404L291.994,13.603c-19.796-18.138-52.191-18.138-71.987,0
	L25.953,191.395l157.441,214.404H328.606z"/>
<rect x="74.774" y="80.279" style="fill:#EBEDEC;" width="362.462" height="222.115"/>
<g>
	<path style="fill:#7A7674;" d="M307.78,179.132H204.22c-6.74,0-12.204-5.465-12.204-12.204c0-6.739,5.464-12.204,12.204-12.204
		h103.56c6.74,0,12.204,5.465,12.204,12.204C319.984,173.667,314.52,179.132,307.78,179.132z"/>
	<path style="fill:#7A7674;" d="M307.78,227.949H204.22c-6.74,0-12.204-5.465-12.204-12.204s5.464-12.204,12.204-12.204h103.56
		c6.74,0,12.204,5.465,12.204,12.204S314.52,227.949,307.78,227.949z"/>
</g>
<polygon style="fill:#FFE1D6;" points="25.953,191.395 25.953,512.001 150.048,468.461 200.918,351.698 "/>
<polygon style="fill:#FF9E24;" points="486.048,191.395 486.048,512.001 361.951,468.461 311.081,351.698 "/>
<path style="fill:#FFB14D;" d="M486.048,512.001L311.082,351.698l-19.088,17.488c-19.796,18.138-52.191,18.138-71.987,0
	l-19.088-17.488L25.953,512.001H486.048z"/>
<g>
</g>
<g>
</g>
<g>
</g>
<g>
</g>
<g>
</g>
<g>
</g>
<g>
</g>
<g>
</g>
<g>
</g>
<g>
</g>
<g>
</g>
<g>
</g>
<g>
</g>
<g>
</g>
<g>
</g>
</svg>
