<?xml version="1.0" encoding="iso-8859-1"?>
<!-- Generator: Adobe Illustrator 19.0.0, SVG Export Plug-In . SVG Version: 6.00 Build 0)  -->
<svg version="1.1" id="Layer_1" xmlns="http://www.w3.org/2000/svg" xmlns:xlink="http://www.w3.org/1999/xlink" x="0px" y="0px"
	 viewBox="0 0 470 470" style="enable-background:new 0 0 470 470;" xml:space="preserve">
<g>
	<g>
		<path style="fill:#F88400;" d="M235,10c124.297,0,225,100.698,225,225c0,124.297-100.703,225-225,225
			C110.698,460,10,359.297,10,235C10,110.698,110.698,10,235,10z"/>
	</g>
	<g>
		<g id="XMLID_33_">
			<g>
				<path style="fill:#FFFFFF;" d="M355,200c33.096,0,60,26.899,60,60c0,33.096-26.904,60-60,60H245c-16.201,0-30,0-45,0V130.801
					c13.501-6.9,28.799-10.801,45-10.801c48.799,0,89.404,35,98.203,81.201C347.002,200.4,350.898,200,355,200z"/>
			</g>
			<g>
				<path style="fill:#231F20;" d="M401.182,68.816C356.805,24.44,297.787,0,235,0C172.211,0,113.192,24.44,68.816,68.816
					C24.439,113.192,0,172.211,0,235c0,62.787,24.439,121.805,68.816,166.182C113.193,445.56,172.211,470,235,470
					c62.787,0,121.805-24.44,166.183-68.817C445.56,356.805,470,297.787,470,235C470,172.211,445.56,113.193,401.182,68.816z
					 M387.04,387.04C346.44,427.641,292.444,450,235,450c-57.446,0-111.442-22.359-152.042-62.96C42.359,346.44,20,292.445,20,235
					c0-57.447,22.359-111.443,62.958-152.042S177.553,20,235,20c57.445,0,111.44,22.359,152.04,62.958
					C427.641,123.558,450,177.554,450,235C450,292.444,427.641,346.44,387.04,387.04z"/>
				<path style="fill:#231F20;" d="M355,190c-1.401,0-2.779,0.04-4.141,0.119C337.658,143.172,294.554,110,245,110
					c-17.187,0-34.321,4.114-49.55,11.896c-3.345,1.709-5.45,5.149-5.45,8.905V320c0,5.523,4.477,10,10,10h155
					c38.598,0,70-31.402,70-70S393.598,190,355,190z M355,310H210V137.145C221.045,132.4,232.791,130,245,130
					c43.147,0,80.316,30.731,88.38,73.072c0.502,2.639,2.045,4.964,4.281,6.453s4.98,2.017,7.605,1.461
					c3.148-0.663,6.332-0.986,9.734-0.986c27.57,0,50,22.43,50,50S382.57,310,355,310z"/>
				<rect x="160" y="125" style="fill:#231F20;" width="20" height="205"/>
				<rect x="130" y="160" style="fill:#231F20;" width="20" height="170"/>
				<rect x="100" y="140" style="fill:#231F20;" width="20" height="190"/>
				<rect x="70" y="175" style="fill:#231F20;" width="20" height="155"/>
			</g>
		</g>
	</g>
</g>
<g>
</g>
<g>
</g>
<g>
</g>
<g>
</g>
<g>
</g>
<g>
</g>
<g>
</g>
<g>
</g>
<g>
</g>
<g>
</g>
<g>
</g>
<g>
</g>
<g>
</g>
<g>
</g>
<g>
</g>
</svg>
