<?xml version="1.0" encoding="iso-8859-1"?>
<!-- Generator: Adobe Illustrator 18.1.1, SVG Export Plug-In . SVG Version: 6.00 Build 0)  -->
<svg version="1.1" id="Capa_1" xmlns="http://www.w3.org/2000/svg" xmlns:xlink="http://www.w3.org/1999/xlink" x="0px" y="0px"
	 viewBox="0 0 380 380" style="enable-background:new 0 0 380 380;" xml:space="preserve">
<g>
	<g>
		<g>
			<g id="Layer_5_8_">
				<g>
					<path d="M314,0H66C46.701,0,31,15.701,31,35v310c0,19.299,15.701,35,35,35h248c19.299,0,35-15.701,35-35V35
						C349,15.701,333.299,0,314,0z M335,345c0,11.579-9.42,21-21,21H66c-11.58,0-21-9.421-21-21V35c0-11.579,9.42-21,21-21h248
						c11.58,0,21,9.421,21,21V345z"/>
					<path d="M117.503,147.752c-23.296,0-42.248,18.952-42.248,42.248s18.952,42.248,42.248,42.248s42.249-18.952,42.249-42.248
						S140.799,147.752,117.503,147.752z"/>
					<path d="M117.503,35.85c-23.296,0-42.248,18.952-42.248,42.248s18.952,42.249,42.248,42.249s42.249-18.953,42.249-42.249
						S140.799,35.85,117.503,35.85z"/>
					<path d="M117.503,259.652c-23.296,0-42.248,18.953-42.248,42.248c0,23.297,18.952,42.249,42.248,42.249
						s42.249-18.952,42.249-42.249C159.752,278.605,140.799,259.652,117.503,259.652z"/>
					<path d="M262.497,147.752c-23.296,0-42.249,18.952-42.249,42.248s18.953,42.248,42.249,42.248s42.248-18.952,42.248-42.248
						S285.792,147.752,262.497,147.752z"/>
					<path d="M262.497,35.85c-23.296,0-42.249,18.952-42.249,42.248s18.953,42.249,42.249,42.249s42.248-18.953,42.248-42.249
						S285.792,35.85,262.497,35.85z"/>
					<path d="M262.497,259.652c-23.296,0-42.249,18.953-42.249,42.248c0,23.297,18.953,42.249,42.249,42.249
						s42.248-18.952,42.248-42.249C304.745,278.605,285.792,259.652,262.497,259.652z"/>
					<path d="M190,71.098c-3.866,0-7,3.134-7,7v223.804c0,3.864,3.134,7,7,7s7-3.136,7-7V78.098
						C197,74.231,193.866,71.098,190,71.098z"/>
				</g>
			</g>
		</g>
	</g>
</g>
<g>
</g>
<g>
</g>
<g>
</g>
<g>
</g>
<g>
</g>
<g>
</g>
<g>
</g>
<g>
</g>
<g>
</g>
<g>
</g>
<g>
</g>
<g>
</g>
<g>
</g>
<g>
</g>
<g>
</g>
</svg>
