<?xml version="1.0" encoding="iso-8859-1"?>
<!-- Generator: Adobe Illustrator 18.0.0, SVG Export Plug-In . SVG Version: 6.00 Build 0)  -->
<!DOCTYPE svg PUBLIC "-//W3C//DTD SVG 1.1//EN" "http://www.w3.org/Graphics/SVG/1.1/DTD/svg11.dtd">
<svg version="1.1" id="Capa_1" xmlns="http://www.w3.org/2000/svg" xmlns:xlink="http://www.w3.org/1999/xlink" x="0px" y="0px"
	 viewBox="0 0 489.326 489.326" style="enable-background:new 0 0 489.326 489.326;" xml:space="preserve">
<g>
	<path d="M471.531,194.409h-48.443c-18.499-29.167-44.038-53.581-74.032-70.678c-31.65-18.04-67.749-27.576-104.393-27.576
		c-36.644,0-72.742,9.536-104.393,27.576c-29.994,17.096-55.534,41.51-74.031,70.678H17.794C7.982,194.409,0,202.391,0,212.203
		c0,0.403,0.057,0.803,0.17,1.19l47.617,163.265c3.851,12.175,14.688,16.513,23.545,16.513h346.663
		c8.333,0,19.23-5.098,23.467-16.29c0.039-0.103,0.074-0.208,0.105-0.315l47.589-163.173c0.112-0.387,0.17-0.787,0.17-1.19
		C489.326,202.391,481.344,194.409,471.531,194.409z M244.663,104.655c68.171,0,130.521,33.401,168.308,89.753H114.355
		c29.186-43.751,77.485-69.704,130.308-69.704c2.348,0,4.25-1.903,4.25-4.25c0-2.347-1.902-4.25-4.25-4.25
		c-28.659,0-56.893,7.458-81.648,21.568c-23.925,13.637-44.24,33.219-58.77,56.636h-27.89
		C114.142,138.057,176.491,104.655,244.663,104.655z M293.446,294.804c0,43.024-21.884,78.026-48.783,78.026
		c-26.899,0-48.783-35.002-48.783-78.026c0-43.023,21.884-78.026,48.783-78.026C271.563,216.778,293.446,251.78,293.446,294.804z
		 M449.357,319.498l-149.752,0.001c1.54-7.916,2.341-16.214,2.341-24.695c0-6.2-0.44-12.297-1.272-18.224h161.2L449.357,319.498z
		 M441.609,346.065H290.896c2.73-5.619,4.981-11.68,6.725-18.067l149.258-0.001L441.609,346.065z M198.432,346.065H47.718
		l-5.269-18.067h149.259C193.45,334.385,195.702,340.447,198.432,346.065z M433.457,374.018
		c-2.727,6.995-9.821,10.653-15.462,10.653H71.332c-2.838,0-12.337-0.763-15.413-10.484l-5.723-19.621h152.953
		c0.15,0.237,0.29,0.484,0.442,0.719c10.826,16.795,25.413,26.045,41.072,26.045c15.66,0,30.246-9.25,41.072-26.045
		c0.151-0.235,0.292-0.482,0.441-0.719H439.13L433.457,374.018z M472.688,239.5H351.879c-2.348,0-4.25,1.903-4.25,4.25
		c0,2.347,1.902,4.25,4.25,4.25h118.33l-5.857,20.08H299.178c-1.503-7.069-3.597-13.813-6.258-20.08h22.282
		c2.348,0,4.25-1.903,4.25-4.25c0-2.347-1.902-4.25-4.25-4.25h-26.406c-0.974-1.774-1.986-3.51-3.061-5.177
		c-10.826-16.795-25.412-26.045-41.072-26.045c-15.66,0-30.246,9.25-41.072,26.045c-1.075,1.667-2.086,3.403-3.061,5.177h-39.968
		c-2.347,0-4.25,1.903-4.25,4.25c0,2.347,1.903,4.25,4.25,4.25h35.844c-2.661,6.267-4.755,13.011-6.258,20.08H86.217
		c-2.347,0-4.25,1.903-4.25,4.25s1.903,4.25,4.25,4.25h102.436c-0.831,5.927-1.272,12.023-1.272,18.224
		c0,8.481,0.8,16.779,2.341,24.695H39.969L27.452,276.58h35.965c2.347,0,4.25-1.903,4.25-4.25s-1.903-4.25-4.25-4.25H24.973
		L19.117,248h118.646c2.347,0,4.25-1.903,4.25-4.25c0-2.347-1.903-4.25-4.25-4.25H16.638l-8.122-27.849
		c0.287-4.869,4.338-8.743,9.278-8.743h453.737c4.94,0,8.992,3.874,9.278,8.743L472.688,239.5z"/>
	<path d="M266.434,311.656c0,10.55-7.544,19.369-17.52,21.352v-48.823h13.221c2.348,0,4.25-1.903,4.25-4.25s-1.902-4.25-4.25-4.25
		h-13.221v-10.523c5.46-1.793,9.417-6.931,9.417-12.982c0-7.536-6.131-13.667-13.666-13.667c-7.536,0-13.667,6.131-13.667,13.667
		c0,6.052,3.957,11.189,9.417,12.982v10.524h-13.221c-2.347,0-4.25,1.903-4.25,4.25s1.903,4.25,4.25,4.25h13.221v48.823
		c-9.976-1.983-17.521-10.802-17.521-21.352c0-2.347-1.903-4.25-4.25-4.25c-2.347,0-4.25,1.903-4.25,4.25
		c0,16.691,13.58,30.271,30.271,30.271c16.691,0,30.27-13.58,30.27-30.271c0-2.347-1.902-4.25-4.25-4.25
		C268.336,307.406,266.434,309.309,266.434,311.656z M244.663,247.012c2.849,0,5.166,2.318,5.166,5.167
		c0,2.849-2.317,5.167-5.166,5.167c-2.849,0-5.167-2.318-5.167-5.167C239.497,249.33,241.814,247.012,244.663,247.012z"/>
</g>
<g>
</g>
<g>
</g>
<g>
</g>
<g>
</g>
<g>
</g>
<g>
</g>
<g>
</g>
<g>
</g>
<g>
</g>
<g>
</g>
<g>
</g>
<g>
</g>
<g>
</g>
<g>
</g>
<g>
</g>
</svg>
