<?xml version="1.0" encoding="iso-8859-1"?>
<!-- Generator: Adobe Illustrator 17.1.0, SVG Export Plug-In . SVG Version: 6.00 Build 0)  -->
<!DOCTYPE svg PUBLIC "-//W3C//DTD SVG 1.1//EN" "http://www.w3.org/Graphics/SVG/1.1/DTD/svg11.dtd">
<svg version="1.1" id="Capa_1" xmlns="http://www.w3.org/2000/svg" xmlns:xlink="http://www.w3.org/1999/xlink" x="0px" y="0px"
	 viewBox="0 0 512 512" style="enable-background:new 0 0 512 512;" xml:space="preserve">
<g>
	<path d="M470.521,243.365c-2.212-3.112-6.313-4.226-9.797-2.663c-26.874,12.065-55.503-0.398-73.575-16.758
		c42.28-1.165,65.671-25.395,66.668-26.451c2.622-2.775,2.917-7.017,0.705-10.128s-6.314-4.227-9.797-2.663
		c-29.794,13.374-61.746-3.395-79.075-22.201c15.652-7.055,29.431-18.604,31.558-20.427c3.02-2.588,3.679-7.002,1.549-10.359
		c-2.131-3.358-6.404-4.644-10.032-3.013c-14.925,6.7-35.355,5.362-57.528-3.769C308.619,115.636,289.75,100.742,279.72,88H288
		c4.418,0,8-3.582,8-8s-3.582-8-8-8c-13.506,0-24-25.523-24-32V8c0-4.418-3.582-8-8-8s-8,3.582-8,8v32c0,6.477-10.494,32-24,32
		c-4.418,0-8,3.582-8,8s3.582,8,8,8h7.362c-10.863,12.496-30.949,27.141-54.907,36.544c-24.236,9.513-45.963,10.99-61.178,4.158
		c-3.629-1.628-7.902-0.346-10.032,3.013c-2.13,3.357-1.47,7.771,1.549,10.359c2.385,2.043,19.422,16.31,37.322,22.763
		c-17.747,17.811-48.29,32.682-76.838,19.865c-3.482-1.565-7.585-0.448-9.797,2.663c-2.212,3.111-1.917,7.353,0.705,10.128
		c0.997,1.056,24.387,25.285,66.666,26.451c-18.073,16.356-46.705,28.821-73.574,16.758c-3.483-1.562-7.585-0.448-9.797,2.663
		c-2.212,3.111-1.917,7.353,0.705,10.128c0.959,1.015,22.596,23.448,61.816,26.225V464H89c-4.962,0-9,4.037-9,9v31
		c0,4.418,3.582,8,8,8h336c4.418,0,8-3.582,8-8v-31c0-4.963-4.038-9-9-9h-15V279.718c39.22-2.776,60.857-25.209,61.816-26.225
		C472.438,250.718,472.732,246.477,470.521,243.365z M256,64.608c1.407,2.529,2.994,5.024,4.758,7.392h-9.517
		C253.006,69.633,254.593,67.138,256,64.608z M416,496H96v-16h320V496z M152,328c0-6.523,15.583-16,40-16s40,9.477,40,16v136h-80
		V328z M280,328c0-6.523,15.583-16,40-16s40,9.477,40,16v136h-80V328z M376,464V328c0-18.243-24.075-32-56-32s-56,13.757-56,32v136
		h-16V328c0-18.243-24.075-32-56-32s-56,13.757-56,32v136h-16V280h272v184H376z M400,264H112c-9.694,0-18.238-1.409-25.586-3.506
		c6.334-1.05,12.73-2.891,19.124-5.522c16.002-6.585,30.779-17.752,41.151-30.972H264c4.418,0,8-3.582,8-8s-3.582-8-8-8H142.896
		c-0.013,0-0.026,0-0.039,0H128c-9.694,0-18.238-1.409-25.586-3.506c6.334-1.05,12.73-2.891,19.124-5.522
		c16.002-6.585,30.779-17.752,41.151-30.972H256c4.418,0,8-3.582,8-8s-3.582-8-8-8h-96c-4.133,0-8.949-1.403-13.866-3.537
		c11.342-1.054,23.541-4.069,36.167-9.024c30.246-11.871,57.976-32.825,68.761-51.438h9.519
		c10.135,18.975,36.123,40.032,64.522,51.729c12.291,5.062,23.167,7.706,32.678,8.732C352.875,150.593,348.08,152,344,152h-55.997
		c-4.418,0-8,3.582-8,8s3.582,8,8,8H344c1.644,0,3.32-0.14,5.011-0.375c10.382,13.38,25.288,24.691,41.437,31.341
		c6.38,2.627,12.758,4.466,19.079,5.519C402.181,206.587,393.653,208,384,208h-14.17c-0.328-0.022-0.658-0.018-0.988,0H344
		c-4.418,0-8,3.582-8,8s3.582,8,8,8h21.311c10.369,13.215,25.141,24.379,41.138,30.966c6.399,2.635,12.797,4.478,19.136,5.528
		C418.236,262.592,409.694,264,400,264z"/>
	<path d="M311.998,208h-15.997c-4.418,0-8,3.582-8,8s3.582,8,8,8h15.997c4.418,0,8-3.582,8-8S316.416,208,311.998,208z"/>
</g>
<g>
</g>
<g>
</g>
<g>
</g>
<g>
</g>
<g>
</g>
<g>
</g>
<g>
</g>
<g>
</g>
<g>
</g>
<g>
</g>
<g>
</g>
<g>
</g>
<g>
</g>
<g>
</g>
<g>
</g>
</svg>
