<?xml version="1.0" encoding="iso-8859-1"?>
<!-- Generator: Adobe Illustrator 17.1.0, SVG Export Plug-In . SVG Version: 6.00 Build 0)  -->
<!DOCTYPE svg PUBLIC "-//W3C//DTD SVG 1.1//EN" "http://www.w3.org/Graphics/SVG/1.1/DTD/svg11.dtd">
<svg version="1.1" id="Capa_1" xmlns="http://www.w3.org/2000/svg" xmlns:xlink="http://www.w3.org/1999/xlink" x="0px" y="0px"
	 viewBox="0 0 279 279" style="enable-background:new 0 0 279 279;" xml:space="preserve">
<path d="M264.646,137.939c-3.986-5.837-10.589-9.439-17.661-9.439h-39.277c-3.643,37.028-35.339,66.169-73.289,66.169
	c-4.143,0-7.667-3.357-7.667-7.5V128.5h-15V35.761c0-19.719-16.281-35.761-36-35.761s-36,16.042-36,35.761V50.5H18.585
	c-4.143,0-7.833,3.819-7.833,7.962v0.62c0,4.143,3.69,7.418,7.833,7.418h21.167v62.236v1.543v5.957
	c0,22.633,13.258,48.654,35.179,69.608c11.646,11.133,24.821,19.782,37.821,25.514v34.558c0,7.214,5.786,13.083,13,13.083
	c7.215,0,13-5.869,13-13.083v-27.139c3,0.407,6,0.622,9,0.635v26.505c0,7.214,5.786,13.083,13,13.083s13-5.869,13-13.083v-30.496
	c15-4.147,29.826-11.404,44.105-21.254c23.219-16.016,41.152-36.54,48.839-56.208C269.288,151.328,268.652,143.807,264.646,137.939z
	 M72.991,46.307l-1.064,0.635c-1.204,0.718-2.528,1.06-3.835,1.06c-2.555,0-5.045-1.306-6.448-3.659
	c-2.122-3.558-0.957-8.162,2.6-10.283l1.064-0.635c3.558-2.122,8.162-0.958,10.283,2.6C77.713,39.581,76.548,44.186,72.991,46.307z"
	/>
<g>
</g>
<g>
</g>
<g>
</g>
<g>
</g>
<g>
</g>
<g>
</g>
<g>
</g>
<g>
</g>
<g>
</g>
<g>
</g>
<g>
</g>
<g>
</g>
<g>
</g>
<g>
</g>
<g>
</g>
</svg>
