<?xml version="1.0" encoding="iso-8859-1"?>
<!-- Generator: Adobe Illustrator 19.0.0, SVG Export Plug-In . SVG Version: 6.00 Build 0)  -->
<svg version="1.1" id="Layer_1" xmlns="http://www.w3.org/2000/svg" xmlns:xlink="http://www.w3.org/1999/xlink" x="0px" y="0px"
	 viewBox="0 0 512 512" style="enable-background:new 0 0 512 512;" xml:space="preserve">
<g>
	<g>
		<g>
			<path d="M465.899,128C491.355,128,512,107.355,512,81.899V46.101C512,20.645,491.355,0,465.899,0H46.101
				C20.645,0,0,20.645,0,46.101v35.797C0,107.355,20.645,128,46.101,128h17.901v42.667H46.101C20.645,170.667,0,191.311,0,216.768
				v249.131C0,491.355,20.645,512,46.101,512h419.797C491.355,512,512,491.355,512,465.899V216.768
				c0-25.457-20.645-46.101-46.101-46.101h-17.897V128H465.899z M42.667,81.899V46.101c0-1.893,1.542-3.435,3.435-3.435h419.797
				c1.893,0,3.435,1.542,3.435,3.435v35.797c0,1.893-1.542,3.435-3.435,3.435h-39.23h-85.333H170.669H85.335H46.101
				C44.209,85.333,42.667,83.791,42.667,81.899z M192.002,170.667V128h128v42.667H192.002z M106.669,128h42.667v42.667h-42.667V128z
				 M469.333,216.768v249.131c0,1.893-1.542,3.435-3.435,3.435H46.101c-1.893,0-3.435-1.542-3.435-3.435V216.768
				c0-1.893,1.542-3.435,3.435-3.435h39.234h85.333h170.667h85.333h39.23C467.791,213.333,469.333,214.875,469.333,216.768z
				 M405.336,170.667h-42.667V128h42.667V170.667z"/>
			<path d="M320.002,320h-42.667v-42.667c0-11.782-9.551-21.333-21.333-21.333s-21.333,9.551-21.333,21.333V320h-42.667
				c-11.782,0-21.333,9.551-21.333,21.333c0,11.782,9.551,21.333,21.333,21.333h42.667v42.667c0,11.782,9.551,21.333,21.333,21.333
				s21.333-9.551,21.333-21.333v-42.667h42.667c11.782,0,21.333-9.551,21.333-21.333C341.336,329.551,331.784,320,320.002,320z"/>
		</g>
	</g>
</g>
<g>
</g>
<g>
</g>
<g>
</g>
<g>
</g>
<g>
</g>
<g>
</g>
<g>
</g>
<g>
</g>
<g>
</g>
<g>
</g>
<g>
</g>
<g>
</g>
<g>
</g>
<g>
</g>
<g>
</g>
</svg>
