<?xml version="1.0" encoding="iso-8859-1"?>
<!-- Generator: Adobe Illustrator 19.0.0, SVG Export Plug-In . SVG Version: 6.00 Build 0)  -->
<svg version="1.1" id="Layer_1" xmlns="http://www.w3.org/2000/svg" xmlns:xlink="http://www.w3.org/1999/xlink" x="0px" y="0px"
	 viewBox="0 0 511.997 511.997" style="enable-background:new 0 0 511.997 511.997;" xml:space="preserve">
<g>
	<g>
		<path d="M356.173,89.043h-69.007C276.864,38.213,231.974,0,178.086,0c-12.294,0-22.261,9.967-22.261,22.261
			c0,12.294,9.966,22.261,22.261,22.261c29.114,0,53.822,18.569,62.977,44.522h-62.977c-86.067,0-155.826,69.759-155.826,155.826
			c0,12.294,9.967,22.261,22.261,22.261h23.877c0.681,5.983,1.602,12.69,2.824,20.028c5.131,30.818,13.932,61.674,27.382,90.698
			c19.526,42.136,47.242,76.777,84.466,100.856c7.788,5.071,16.298,7.07,26,7.324c1.022,0.027,2.015,0.39,2.847,1.053l16.835,13.481
			c19.079,15.232,46.126,15.232,65.18,0.021l16.009-12.821c1.577-1.259,2.764-1.733,3.114-1.729
			c9.652,0.124,19.113-2.443,27.153-7.679c37.198-24.26,63.756-59.085,81.182-101.34c10.968-26.594,17.784-54.803,21.307-83.288
			c1.186-9.588,1.924-18.512,2.318-26.604h22.464c12.294,0,22.261-9.967,22.261-22.261
			C489.738,167.894,427.956,89.043,356.173,89.043z M178.086,133.565h178.087c38.42,0,76.89,42.411,86.67,89.043H69.007
			C79.318,171.8,124.231,133.565,178.086,133.565z M398.51,288.27c-3.064,24.776-8.961,49.182-18.281,71.778
			c-14.2,34.43-35.271,62.061-64.333,81.015c-0.399,0.26-1.189,0.474-2.245,0.461c-11.528-0.162-22.375,4.177-31.515,11.472
			l-16.011,12.822c-2.78,2.22-6.765,2.22-9.572-0.021l-16.848-13.492c-8.429-6.719-18.747-10.492-29.464-10.776
			c-2.211-0.058-3.089-0.264-2.936-0.165c-29.631-19.168-52.095-47.244-68.307-82.228c-11.614-25.063-19.343-52.157-23.86-79.29
			c-0.732-4.397-1.353-8.645-1.873-12.717h287.166C400.068,273.578,399.45,280.672,398.51,288.27z"/>
	</g>
</g>
<g>
</g>
<g>
</g>
<g>
</g>
<g>
</g>
<g>
</g>
<g>
</g>
<g>
</g>
<g>
</g>
<g>
</g>
<g>
</g>
<g>
</g>
<g>
</g>
<g>
</g>
<g>
</g>
<g>
</g>
</svg>
