<?xml version="1.0" encoding="iso-8859-1"?>
<!-- Generator: Adobe Illustrator 19.0.0, SVG Export Plug-In . SVG Version: 6.00 Build 0)  -->
<svg version="1.1" id="Layer_1" xmlns="http://www.w3.org/2000/svg" xmlns:xlink="http://www.w3.org/1999/xlink" x="0px" y="0px"
	 viewBox="0 0 512 512" style="enable-background:new 0 0 512 512;" xml:space="preserve">
<path style="fill:#ACABB1;" d="M89.694,489.787c-31.085,0-56.376-25.29-56.376-56.377V158.82h445.362v274.591
	c0,31.086-25.29,56.377-56.376,56.377H89.694z"/>
<path style="fill:#898790;" d="M445.362,158.82v274.591c0,31.086-25.29,56.377-56.376,56.377h33.319
	c31.085,0,56.376-25.29,56.376-56.377V158.82H445.362z"/>
<path style="fill:#3E3D43;" d="M299.87,166.594v-54.976c0-24.189-19.68-43.87-43.87-43.87s-43.87,19.68-43.87,43.87v54.976h-45.536
	v-54.976c0-49.299,40.107-89.406,89.406-89.406s89.406,40.107,89.406,89.406v54.976H299.87z"/>
<g>
	<path style="fill:#898790;" d="M247.037,434.256c-7.612,0-13.805-6.193-13.805-13.805V247.037c0-7.612,6.193-13.805,13.805-13.805
		h17.927c7.612,0,13.805,6.193,13.805,13.805v173.414c0,7.612-6.193,13.805-13.805,13.805H247.037z"/>
	<path style="fill:#898790;" d="M369.206,434.256c-7.612,0-13.805-6.193-13.805-13.805V247.037c0-7.612,6.193-13.805,13.805-13.805
		h17.927c7.612,0,13.805,6.193,13.805,13.805v173.414c0,7.612-6.193,13.805-13.805,13.805H369.206z"/>
	<path style="fill:#898790;" d="M124.868,434.256c-7.612,0-13.805-6.193-13.805-13.805V247.037c0-7.612,6.193-13.805,13.805-13.805
		h17.927c7.612,0,13.805,6.193,13.805,13.805v173.414c0,7.612-6.193,13.805-13.805,13.805H124.868z"/>
</g>
<path style="fill:#3E3D43;" d="M24.733,189.918C11.095,189.918,0,178.824,0,165.185v-16.671c0-8.403,6.837-15.239,15.24-15.239
	h481.52c8.403,0,15.24,6.836,15.24,15.24v16.671c0,13.637-11.095,24.733-24.733,24.733H24.733V189.918z"/>
<path style="fill:#2E2D30;" d="M496.76,133.275h-41.861c8.403,0,15.24,6.836,15.24,15.24v16.671
	c0,13.637-11.095,24.733-24.733,24.733h41.861C500.905,189.918,512,178.824,512,165.185v-16.671
	C512,140.111,505.163,133.275,496.76,133.275z"/>
<g>
</g>
<g>
</g>
<g>
</g>
<g>
</g>
<g>
</g>
<g>
</g>
<g>
</g>
<g>
</g>
<g>
</g>
<g>
</g>
<g>
</g>
<g>
</g>
<g>
</g>
<g>
</g>
<g>
</g>
</svg>
