<?xml version="1.0" encoding="iso-8859-1"?>
<!-- Generator: Adobe Illustrator 19.0.0, SVG Export Plug-In . SVG Version: 6.00 Build 0)  -->
<svg version="1.1" id="Layer_1" xmlns="http://www.w3.org/2000/svg" xmlns:xlink="http://www.w3.org/1999/xlink" x="0px" y="0px"
	 viewBox="0 0 512 512" style="enable-background:new 0 0 512 512;" xml:space="preserve">
<g transform="translate(0 1)">
	<path style="fill:#FDCC00;" d="M441.173,485.4H394.24c-5.973,0-11.093-5.12-11.093-11.093V434.2h68.267v40.107
		C452.267,480.28,447.147,485.4,441.173,485.4"/>
	<path style="fill:#FFE100;" d="M486.4,434.2H25.6c-9.387,0-17.067-7.68-17.067-17.067v-102.4c0-9.387,7.68-17.067,17.067-17.067
		h460.8c9.387,0,17.067,7.68,17.067,17.067v102.4C503.467,426.52,495.787,434.2,486.4,434.2"/>
	<path style="fill:#FFFFFF;" d="M17.067,297.667h25.6c-9.387,0-17.067,7.68-17.067,17.067v102.4c0,9.387,7.68,17.067,17.067,17.067
		h-25.6C7.68,434.2,0,426.52,0,417.133v-102.4C0,305.347,7.68,297.667,17.067,297.667"/>
	<path style="fill:#FFA800;" d="M494.933,297.667h-25.6c9.387,0,17.067,7.68,17.067,17.067v102.4c0,9.387-7.68,17.067-17.067,17.067
		h25.6c9.387,0,17.067-7.68,17.067-17.067v-102.4C512,305.347,504.32,297.667,494.933,297.667"/>
	<path style="fill:#FDCC00;" d="M116.907,485.4h-46.08c-5.973,0-11.093-5.12-11.093-11.093V434.2H128v40.107
		C128,480.28,122.88,485.4,116.907,485.4"/>
	<path style="fill:#FFFFFF;" d="M76.8,474.307V434.2H59.733v40.107c0,5.973,5.12,11.093,11.093,11.093h17.067
		C81.92,485.4,76.8,480.28,76.8,474.307"/>
	<path style="fill:#FFA800;" d="M435.2,474.307V434.2h17.067v40.107c0,5.973-5.12,11.093-11.093,11.093h-17.067
		C430.08,485.4,435.2,480.28,435.2,474.307"/>
	<g>
		<polygon style="fill:#FFE100;" points="93.867,297.667 145.067,297.667 145.067,24.6 93.867,24.6 		"/>
		<polygon style="fill:#FFE100;" points="145.067,297.667 418.133,297.667 418.133,24.6 145.067,24.6 		"/>
	</g>
	<polygon style="fill:#FFA800;" points="401.067,297.667 418.133,297.667 418.133,24.6 401.067,24.6 	"/>
	<polygon style="fill:#FFFFFF;" points="93.867,297.667 110.933,297.667 110.933,24.6 93.867,24.6 	"/>
	<path style="fill:#63D3FD;" d="M384,161.133c0,56.32-46.08,102.4-102.4,102.4s-102.4-46.08-102.4-102.4s46.08-102.4,102.4-102.4
		S384,104.813,384,161.133"/>
	<path style="fill:#3DB9F9;" d="M285.867,58.733c-4.267,0-8.533,0-12.8,0.853c50.347,5.973,89.6,49.493,89.6,101.547
		s-39.253,95.573-89.6,101.547c4.267,0.853,8.533,0.853,12.8,0.853c56.32,0,102.4-46.08,102.4-102.4S342.187,58.733,285.867,58.733"
		/>
	<path style="fill:#FFE100;" d="M315.733,161.133c0,18.773-15.36,34.133-34.133,34.133s-34.133-15.36-34.133-34.133
		S262.827,127,281.6,127S315.733,142.36,315.733,161.133"/>
	<polygon style="fill:#63D3FD;" points="42.667,391.533 145.067,391.533 145.067,340.333 42.667,340.333 	"/>
	<path d="M486.4,442.733H25.6c-13.653,0-25.6-11.093-25.6-25.6v-102.4c0-13.653,11.093-25.6,25.6-25.6h460.8
		c13.653,0,25.6,11.093,25.6,25.6v102.4C512,431.64,500.907,442.733,486.4,442.733z M25.6,306.2c-4.267,0-8.533,3.413-8.533,8.533
		v102.4c0,4.267,3.413,8.533,8.533,8.533h460.8c4.267,0,8.533-3.413,8.533-8.533v-102.4c0-4.267-3.413-8.533-8.533-8.533H25.6z"/>
	<path d="M366.933,391.533c0,5.12-3.413,8.533-8.533,8.533s-8.533-3.413-8.533-8.533S353.28,383,358.4,383
		S366.933,386.413,366.933,391.533"/>
	<path d="M401.067,391.533c0,5.12-3.413,8.533-8.533,8.533S384,396.653,384,391.533s3.413-8.533,8.533-8.533
		S401.067,386.413,401.067,391.533"/>
	<path d="M298.667,391.533c0,5.12-3.413,8.533-8.533,8.533c-5.12,0-8.533-3.413-8.533-8.533s3.413-8.533,8.533-8.533
		C295.253,383,298.667,386.413,298.667,391.533"/>
	<path d="M332.8,391.533c0,5.12-3.413,8.533-8.533,8.533c-5.12,0-8.533-3.413-8.533-8.533s3.413-8.533,8.533-8.533
		C329.387,383,332.8,386.413,332.8,391.533"/>
	<path d="M230.4,391.533c0,5.12-3.413,8.533-8.533,8.533c-5.12,0-8.533-3.413-8.533-8.533s3.413-8.533,8.533-8.533
		C226.987,383,230.4,386.413,230.4,391.533"/>
	<path d="M264.533,391.533c0,5.12-3.413,8.533-8.533,8.533c-5.12,0-8.533-3.413-8.533-8.533S250.88,383,256,383
		C261.12,383,264.533,386.413,264.533,391.533"/>
	<path d="M196.267,391.533c0,5.12-3.413,8.533-8.533,8.533c-5.12,0-8.533-3.413-8.533-8.533s3.413-8.533,8.533-8.533
		C192.853,383,196.267,386.413,196.267,391.533"/>
	<path d="M435.2,391.533c0,5.12-3.413,8.533-8.533,8.533s-8.533-3.413-8.533-8.533s3.413-8.533,8.533-8.533
		S435.2,386.413,435.2,391.533"/>
	<path d="M469.333,391.533c0,5.12-3.413,8.533-8.533,8.533s-8.533-3.413-8.533-8.533S455.68,383,460.8,383
		S469.333,386.413,469.333,391.533"/>
	<path d="M384,365.933c0,5.12-3.413,8.533-8.533,8.533c-5.12,0-8.533-3.413-8.533-8.533s3.413-8.533,8.533-8.533
		C380.587,357.4,384,360.813,384,365.933"/>
	<path d="M418.133,365.933c0,5.12-3.413,8.533-8.533,8.533c-5.12,0-8.533-3.413-8.533-8.533s3.413-8.533,8.533-8.533
		C414.72,357.4,418.133,360.813,418.133,365.933"/>
	<path d="M315.733,365.933c0,5.12-3.413,8.533-8.533,8.533s-8.533-3.413-8.533-8.533s3.413-8.533,8.533-8.533
		S315.733,360.813,315.733,365.933"/>
	<path d="M349.867,365.933c0,5.12-3.413,8.533-8.533,8.533c-5.12,0-8.533-3.413-8.533-8.533s3.413-8.533,8.533-8.533
		C346.453,357.4,349.867,360.813,349.867,365.933"/>
	<path d="M247.467,365.933c0,5.12-3.413,8.533-8.533,8.533c-5.12,0-8.533-3.413-8.533-8.533s3.413-8.533,8.533-8.533
		C244.053,357.4,247.467,360.813,247.467,365.933"/>
	<path d="M281.6,365.933c0,5.12-3.413,8.533-8.533,8.533s-8.533-3.413-8.533-8.533s3.413-8.533,8.533-8.533
		S281.6,360.813,281.6,365.933"/>
	<path d="M213.333,365.933c0,5.12-3.413,8.533-8.533,8.533c-5.12,0-8.533-3.413-8.533-8.533s3.413-8.533,8.533-8.533
		C209.92,357.4,213.333,360.813,213.333,365.933"/>
	<path d="M452.267,365.933c0,5.12-3.413,8.533-8.533,8.533c-5.12,0-8.533-3.413-8.533-8.533s3.413-8.533,8.533-8.533
		C448.853,357.4,452.267,360.813,452.267,365.933"/>
	<path d="M469.333,348.867H179.2c-5.12,0-8.533-3.413-8.533-8.533c0-5.12,3.413-8.533,8.533-8.533h290.133
		c5.12,0,8.533,3.413,8.533,8.533C477.867,345.453,474.453,348.867,469.333,348.867z"/>
	<path d="M145.067,400.067h-102.4c-5.12,0-8.533-3.413-8.533-8.533v-51.2c0-5.12,3.413-8.533,8.533-8.533h102.4
		c5.12,0,8.533,3.413,8.533,8.533v51.2C153.6,396.653,150.187,400.067,145.067,400.067z M51.2,383h85.333v-34.133H51.2V383z"/>
	<g>
		<path style="fill:#231F1F;" d="M116.907,493.933h-46.08c-11.093,0-19.627-8.533-19.627-19.627v-48.64h85.333v48.64
			C136.533,485.4,128,493.933,116.907,493.933z M68.267,442.733v31.573c0,1.707,0.853,2.56,2.56,2.56h46.08
			c1.707,0,2.56-0.853,2.56-2.56v-31.573H68.267z"/>
		<path style="fill:#231F1F;" d="M441.173,493.933H394.24c-10.24,0-18.773-8.533-18.773-19.627v-48.64H460.8v48.64
			C460.8,485.4,452.267,493.933,441.173,493.933z M392.533,442.733v31.573c0,1.707,0.853,2.56,2.56,2.56h46.933
			c1.707,0,2.56-0.853,2.56-2.56v-31.573H392.533z"/>
		<path style="fill:#231F1F;" d="M426.667,306.2H136.533V16.067h290.133V306.2z M153.6,289.133h256v-256h-256V289.133z"/>
		<path style="fill:#231F1F;" d="M153.6,306.2H85.333V16.067H153.6V306.2z M102.4,289.133h34.133v-256H102.4V289.133z"/>
		<path style="fill:#231F1F;" d="M281.6,272.067c-61.44,0-110.933-49.493-110.933-110.933S220.16,50.2,281.6,50.2
			s110.933,49.493,110.933,110.933S343.04,272.067,281.6,272.067z M281.6,67.267c-52.053,0-93.867,41.813-93.867,93.867
			S229.547,255,281.6,255s93.867-41.813,93.867-93.867S333.653,67.267,281.6,67.267z"/>
		<path style="fill:#231F1F;" d="M281.6,203.8c-23.893,0-42.667-18.773-42.667-42.667s18.773-42.667,42.667-42.667
			c23.893,0,42.667,18.773,42.667,42.667S305.493,203.8,281.6,203.8z M281.6,135.533c-14.507,0-25.6,11.093-25.6,25.6
			s11.093,25.6,25.6,25.6c14.507,0,25.6-11.093,25.6-25.6C307.2,146.627,296.107,135.533,281.6,135.533z"/>
	</g>
</g>
<g>
</g>
<g>
</g>
<g>
</g>
<g>
</g>
<g>
</g>
<g>
</g>
<g>
</g>
<g>
</g>
<g>
</g>
<g>
</g>
<g>
</g>
<g>
</g>
<g>
</g>
<g>
</g>
<g>
</g>
</svg>
