<?xml version="1.0" encoding="iso-8859-1"?>
<!-- Generator: Adobe Illustrator 19.0.0, SVG Export Plug-In . SVG Version: 6.00 Build 0)  -->
<svg version="1.1" id="Layer_1" xmlns="http://www.w3.org/2000/svg" xmlns:xlink="http://www.w3.org/1999/xlink" x="0px" y="0px"
	 viewBox="0 0 512 512" style="enable-background:new 0 0 512 512;" xml:space="preserve">
<polygon style="fill:#7FC6F4;" points="99.962,79.676 99.962,263.592 161.315,325.051 161.315,503.652 348.647,503.652 
	348.647,324.955 412.037,262.57 412.037,8.348 160.298,8.348 160.298,79.676 "/>
<polygon style="fill:#A2D8F2;" points="161.193,324.93 161.315,325.051 161.315,503.652 348.647,503.652 348.647,324.955 
	412.037,262.57 412.037,8.348 160.298,8.348 160.298,29.111 160.298,275.557 "/>
<polygon style="fill:#1D9BE0;" points="161.193,324.93 161.315,325.051 161.315,503.652 348.647,503.652 348.647,324.955 
	348.674,324.93 "/>
<g>
	<polyline style="fill:#FA341F;" points="247.665,465.839 161.193,465.839 161.315,465.863 161.315,503.652 348.647,503.652 
		348.647,465.844 348.674,465.839 303.312,465.839 	"/>
	<polygon style="fill:#FA341F;" points="220.323,324.93 220.408,324.845 220.408,201.746 348.656,201.746 348.656,324.912 
		348.674,324.93 	"/>
</g>
<rect x="160.3" y="8.348" style="fill:#7FC6F4;" width="251.737" height="71.324"/>
<path style="fill:#3C3A41;" d="M412.036,0H160.298c-4.611,0-8.348,3.736-8.348,8.348v62.98H99.963c-4.611,0-8.348,3.736-8.348,8.348
	v183.915c0,2.212,0.877,4.333,2.44,5.898l58.912,59.015v135.96c-0.029,0.176-0.061,0.351-0.079,0.531
	c-0.078,0.775-0.048,1.538,0.079,2.273v36.384c0,4.611,3.736,8.348,8.348,8.348h187.333c4.611,0,8.348-3.736,8.348-8.348v-37.14
	c0.032-0.401,0.027-0.809,0-1.219V328.452l60.897-59.932c1.595-1.569,2.492-3.713,2.492-5.95V79.666V8.348
	C420.384,3.736,416.647,0,412.036,0z M403.688,71.318H357.02V16.696h46.668V71.318z M292.289,16.696h48.037v54.623h-48.037V16.696z
	 M275.593,71.318h-46.848V16.696h46.848V71.318z M168.646,16.696h43.404v54.623h-43.404V16.696z M108.311,88.024h43.639v187.533
	c0,0.05,0,0.101,0.001,0.151l0.52,28.666l-44.16-44.238C108.311,260.137,108.311,88.024,108.311,88.024z M340.299,495.304H169.663
	v-21.118h78.003c4.611,0,8.348-3.736,8.348-8.348c0-4.611-3.736-8.348-8.348-8.348h-78.003V333.277h50.66H340.3v124.215h-36.986
	c-4.611,0-8.348,3.736-8.348,8.348c0,4.611,3.736,8.348,8.348,8.348H340.3v21.117H340.299z M340.308,316.582H228.754V210.094
	h111.554V316.582z M357.004,305.018V201.746c0-4.611-3.736-8.348-8.348-8.348H220.407c-4.611,0-8.348,3.736-8.348,8.348v114.836
	H169.39l-0.746-41.1V88.014h43.404v4.647c0,4.611,3.736,8.348,8.348,8.348s8.348-3.736,8.348-8.348v-4.647h46.848v4.647
	c0,4.611,3.736,8.348,8.348,8.348c4.611,0,8.348-3.736,8.348-8.348v-4.647h48.037v4.647c0,4.611,3.736,8.348,8.348,8.348
	c4.611,0,8.348-3.736,8.348-8.348v-4.647h46.668v171.06L357.004,305.018z"/>
<g>
</g>
<g>
</g>
<g>
</g>
<g>
</g>
<g>
</g>
<g>
</g>
<g>
</g>
<g>
</g>
<g>
</g>
<g>
</g>
<g>
</g>
<g>
</g>
<g>
</g>
<g>
</g>
<g>
</g>
</svg>
