<?xml version="1.0" encoding="iso-8859-1"?>
<!-- Generator: Adobe Illustrator 19.0.0, SVG Export Plug-In . SVG Version: 6.00 Build 0)  -->
<svg version="1.1" id="Layer_1" xmlns="http://www.w3.org/2000/svg" xmlns:xlink="http://www.w3.org/1999/xlink" x="0px" y="0px"
	 viewBox="0 0 512 512" style="enable-background:new 0 0 512 512;" xml:space="preserve">
<polygon style="fill:#F6F6F6;" points="449.528,124.186 449.51,124.204 398.732,73.5 250.987,73.5 27.96,296.195 170.475,438.498 
	266.187,342.931 292.152,368.856 493.358,167.951 "/>
<g>
	<polygon style="fill:#8B8893;" points="467.393,142.025 449.528,124.186 449.51,124.204 398.732,73.5 250.987,73.5 27.96,296.195 
		170.475,438.498 251.237,357.857 266.187,342.931 	"/>
	<path style="fill:#8B8893;" d="M147.137,369.115l12.632,12.627c18.574,18.573,48.974,18.574,67.551,0l48.264-48.26
		c18.578-18.573,18.578-48.967,0.002-67.542l-12.632-12.63c-18.576-18.573-48.974-18.573-67.548,0l-48.268,48.26
		C128.563,320.144,128.562,350.539,147.137,369.115z"/>
</g>
<g>
	<path style="fill:#CACACA;" d="M185.84,262.874l9.564-9.563c18.574-18.573,48.973-18.573,67.548,0l12.632,12.63
		c18.576,18.573,18.576,48.967-0.002,67.542l-9.305,9.302L185.84,262.874z"/>
	<path style="fill:#CACACA;" d="M324.537,132.384c57.348,0.774,74.194-58.883,74.194-58.883H250.986
		C250.987,73.5,269.739,131.642,324.537,132.384z"/>
</g>
<g>
	<polygon style="fill:#FF3100;" points="503.652,105.976 479.619,81.978 443.438,118.106 467.472,142.103 	"/>
	<polygon style="fill:#FF3100;" points="208.928,115.493 234.892,89.572 124.301,75.414 103.765,95.919 28.885,170.686 
		8.348,191.191 30.434,213.245 70.733,253.484 91.27,232.977 50.971,192.738 137.491,106.347 	"/>
</g>
<path style="fill:#3C3A41;" d="M512,105.976c0-2.216-0.882-4.341-2.45-5.908L485.516,76.07c-3.259-3.255-8.536-3.255-11.797,0
	l-30.299,30.255l-38.791-38.733c-0.155-0.155-0.319-0.297-0.484-0.437c-0.038-0.032-0.072-0.068-0.11-0.1
	c-0.232-0.19-0.473-0.366-0.722-0.53c-0.07-0.047-0.145-0.086-0.217-0.13c-0.181-0.111-0.365-0.219-0.554-0.316
	c-0.098-0.05-0.199-0.095-0.299-0.141c-0.171-0.079-0.343-0.155-0.519-0.221c-0.109-0.042-0.219-0.081-0.329-0.118
	c-0.176-0.059-0.354-0.112-0.534-0.159c-0.111-0.029-0.221-0.059-0.334-0.083c-0.197-0.043-0.396-0.076-0.597-0.105
	c-0.098-0.014-0.194-0.032-0.292-0.043c-0.299-0.032-0.601-0.052-0.905-0.052H250.987c-0.308,0-0.613,0.021-0.917,0.055
	c-0.098,0.011-0.195,0.029-0.292,0.043c-0.205,0.03-0.408,0.065-0.61,0.11c-0.11,0.024-0.219,0.053-0.328,0.082
	c-0.188,0.05-0.374,0.107-0.558,0.169c-0.106,0.037-0.211,0.072-0.316,0.114c-0.193,0.075-0.381,0.159-0.568,0.248
	c-0.086,0.041-0.174,0.078-0.258,0.122c-0.535,0.278-1.041,0.614-1.508,1.004c-0.069,0.058-0.132,0.12-0.199,0.18
	c-0.116,0.104-0.235,0.203-0.346,0.313l-13.197,13.178L125.36,67.136c-2.568-0.333-5.131,0.549-6.958,2.373L2.449,185.284
	C0.882,186.85,0,188.975,0,191.192c0,2.217,0.882,4.341,2.45,5.908l56.468,56.386l-36.857,36.802
	c-0.197,0.197-0.383,0.403-0.559,0.617c-0.156,0.189-0.297,0.386-0.434,0.587c-0.017,0.024-0.036,0.047-0.052,0.071
	c-0.453,0.679-0.795,1.409-1.028,2.166c-0.004,0.013-0.01,0.027-0.013,0.04c-0.07,0.232-0.127,0.465-0.176,0.7
	c-0.007,0.032-0.017,0.063-0.023,0.095c-0.048,0.238-0.081,0.48-0.108,0.721c-0.003,0.03-0.01,0.059-0.013,0.089
	c-0.027,0.273-0.041,0.548-0.041,0.821l0,0c0,0.003,0,0.007,0,0.011c0,0.268,0.013,0.538,0.04,0.806
	c0.006,0.057,0.018,0.112,0.024,0.169c0.026,0.215,0.053,0.429,0.096,0.641c0.01,0.049,0.024,0.097,0.036,0.146
	c0.047,0.218,0.099,0.435,0.164,0.65c0.009,0.031,0.022,0.061,0.032,0.091c0.072,0.229,0.151,0.456,0.244,0.68
	c0.006,0.014,0.014,0.029,0.02,0.043c0.099,0.235,0.207,0.467,0.328,0.695c0.006,0.011,0.013,0.022,0.019,0.033
	c0.122,0.227,0.255,0.45,0.4,0.667c0.018,0.026,0.038,0.05,0.056,0.076c0.136,0.198,0.277,0.394,0.432,0.582
	c0.053,0.065,0.114,0.124,0.169,0.187c0.124,0.142,0.245,0.286,0.381,0.422c0.003,0.003,0.008,0.007,0.011,0.01l24.361,24.324
	c1.629,1.627,3.763,2.44,5.898,2.44c2.138,0,4.277-0.816,5.908-2.45c3.258-3.262,3.253-8.548-0.01-11.805l-18.446-18.418
	L248.178,88.103c2.829,5.648,6.914,12.673,12.482,19.731c16.708,21.182,38.757,32.559,63.765,32.896
	c0.405,0.006,0.815,0.009,1.217,0.009c0.003,0,0.003,0,0.007,0c25.789,0,48.045-11.32,64.355-32.733
	c5.315-6.978,9.166-13.946,11.828-19.613l41.781,41.72c0.149,0.148,0.302,0.289,0.46,0.424l11.507,11.49l-41.739,41.676
	c-3.262,3.258-3.267,8.544-0.009,11.806c3.259,3.262,8.544,3.267,11.806,0.009l41.757-41.695l14.15,14.129L292.151,357.06
	L278,342.93l114.392-114.219c3.262-3.258,3.267-8.544,0.009-11.806c-3.258-3.262-8.543-3.266-11.806-0.009l-82.736,82.612
	c-0.051-14.948-5.858-28.959-16.372-39.472l-12.632-12.631c-10.559-10.559-24.651-16.375-39.676-16.375
	c-15.026,0-29.116,5.816-39.676,16.375l-48.27,48.263c-21.876,21.877-21.876,57.473,0.001,79.35l12.632,12.628
	c10.479,10.478,24.436,16.277,39.333,16.366l-22.724,22.689l-80.469-80.349c-3.263-3.257-8.548-3.255-11.806,0.009
	c-3.258,3.263-3.253,8.549,0.009,11.806l86.368,86.239c1.631,1.627,3.764,2.44,5.899,2.44c2.134,0,4.27-0.814,5.898-2.44
	l56.818-56.732c0.01-0.01,0.021-0.019,0.031-0.029l1.011-1.011l31.954-31.907l20.066,20.037c1.631,1.627,3.764,2.44,5.899,2.44
	c2.134,0,4.27-0.814,5.899-2.44l201.206-200.907c1.567-1.566,2.449-3.691,2.449-5.908c0-2.217-0.882-4.341-2.45-5.908l-19.97-19.94
	l30.266-30.22C511.118,110.316,512,108.192,512,105.976z M229.178,247.727c10.566,0,20.464,4.079,27.872,11.486l12.632,12.631
	c6.943,6.943,10.963,16.076,11.439,25.895c0.031,0.654,0.048,1.312,0.048,1.972c0,1.981-0.144,3.938-0.425,5.86
	c-1.221,8.328-5.043,15.99-11.061,22.006l-3.422,3.422l-68.592-68.145l3.642-3.641C208.715,251.807,218.612,247.727,229.178,247.727
	z M193.544,387.324c-10.566,0-20.466-4.079-27.873-11.486l-12.631-12.627c-15.368-15.367-15.368-40.371-0.001-55.737l32.82-32.815
	l68.594,68.145l-31.54,31.537l-1.542,1.539C213.968,383.26,204.089,387.324,193.544,387.324z M127.302,84.213l89.646,11.477
	l-11.02,11.005l-67.376-8.626c-2.568-0.333-5.131,0.55-6.958,2.373l-86.521,86.39c-1.567,1.566-2.449,3.691-2.449,5.908
	c0,2.217,0.882,4.341,2.449,5.908l34.384,34.332l-8.723,8.71l-50.571-50.495L127.302,84.213z M62.785,192.738l77.707-77.59
	l50.494,6.465L91.27,221.181L62.785,192.738z M325.641,124.043c-0.327,0-0.662-0.002-0.992-0.007
	c-19.925-0.269-36.939-9.066-50.567-26.143c-4.512-5.653-7.919-11.352-10.35-16.045h122.801
	C379.247,97.307,361.463,124.045,325.641,124.043z M467.47,130.306l-12.044-12.028c-0.003-0.003-0.008-0.007-0.011-0.01
	l-0.163-0.163l24.367-24.33l12.22,12.2L467.47,130.306z"/>
<g>
</g>
<g>
</g>
<g>
</g>
<g>
</g>
<g>
</g>
<g>
</g>
<g>
</g>
<g>
</g>
<g>
</g>
<g>
</g>
<g>
</g>
<g>
</g>
<g>
</g>
<g>
</g>
<g>
</g>
</svg>
