<?xml version="1.0" encoding="iso-8859-1"?>
<!-- Generator: Adobe Illustrator 19.0.0, SVG Export Plug-In . SVG Version: 6.00 Build 0)  -->
<svg version="1.1" id="Layer_1" xmlns="http://www.w3.org/2000/svg" xmlns:xlink="http://www.w3.org/1999/xlink" x="0px" y="0px"
	 viewBox="0 0 512.002 512.002" style="enable-background:new 0 0 512.002 512.002;" xml:space="preserve">
<path style="fill:#FA341E;" d="M234.175,374.561v-67.964c-0.175-79.549-0.175-160.384-0.175-240.011c-58.909,0-119.02,0-177.928,0
	c-14.426,50.672-18.034,103.757-17.849,156.442c-2.7,71.174,7.575,152.518,7.575,152.518c3.06,22.822,3.06,46.951,10.273,68.668
	c58.909,1.207,117.817-1.207,176.726,1.207c1.202,0,2.404-1.207,2.404-2.413C232.797,420.084,234,397.161,234.175,374.561z"/>
<path style="fill:#86858B;" d="M41.613,168.082H163.04c18.18,0,33.054-14.927,33.054-33.171l0,0
	c0-18.244-14.875-33.171-33.054-33.171H51.231l-3.066-1.852c-4.399,22.551-7.03,45.443-8.464,68.449
	C40.334,168.242,40.968,168.152,41.613,168.082z"/>
<path style="fill:#FEFEFE;" d="M128.659,373.594H39.346c-17.05,0-30.998-13.95-30.998-30.998v-89.85
	c0-17.048,13.949-30.998,30.998-30.998h89.314c17.048,0,30.998,13.949,30.998,30.998v89.849
	C159.657,359.646,145.707,373.594,128.659,373.594z"/>
<path style="fill:#FA341E;" d="M277.826,374.561v-67.964C278,227.049,278,146.214,278,66.587c58.909,0,119.02,0,177.928,0
	c14.426,50.672,18.034,103.757,17.849,156.442c2.701,71.174-7.575,152.518-7.575,152.518c-3.06,22.822-3.06,46.951-10.273,68.668
	c-58.909,1.207-117.817-1.207-176.726,1.207c-1.202,0-2.404-1.207-2.404-2.413C279.202,420.084,278,397.161,277.826,374.561z"/>
<path style="fill:#75747A;" d="M470.387,168.082H348.96c-18.179,0-33.055-14.927-33.055-33.171l0,0
	c0-18.244,14.875-33.171,33.055-33.171h111.809l3.066-1.852c4.399,22.551,7.03,45.443,8.462,68.449
	C471.667,168.242,471.032,168.152,470.387,168.082z"/>
<path style="fill:#F5F5F5;" d="M383.341,373.594h89.313c17.05,0,30.999-13.95,30.999-30.999v-89.849
	c0-17.048-13.949-30.998-30.998-30.998h-89.314c-17.05,0-30.998,13.95-30.998,30.998v89.849
	C352.343,359.646,366.291,373.594,383.341,373.594z"/>
<g>
	<path style="fill:#3C3A41;" d="M242.305,389.717c0.088-4.945,0.178-10.061,0.217-15.092c0.036-4.61-3.673-8.376-8.283-8.412
		c-0.022,0-0.045,0-0.067,0c-4.579,0-8.31,3.695-8.347,8.283c-0.038,4.945-0.128,10.019-0.215,14.924
		c-0.275,15.468-0.557,31.393,0.652,47.398c-31.617-1.099-63.548-0.913-94.496-0.731c-22.781,0.134-46.275,0.272-69.458-0.109
		c-3.436-12.699-4.685-26.226-5.997-40.437c-0.413-4.47-0.843-9.038-1.342-13.599h73.688c21.695,0,39.347-17.651,39.347-39.347
		v-89.85c0-21.695-17.651-39.346-39.346-39.346H46.586c0.081-12.881,0.422-25.184,1.031-36.971H163.04
		c22.83,0,41.403-18.626,41.403-41.52s-18.573-41.519-41.403-41.519H57.998c1.353-6.29,2.827-12.438,4.431-18.456h163.222
		c0,76.29,0.006,154.923,0.175,231.681c0.01,4.605,3.745,8.329,8.348,8.329c0.007,0,0.012,0,0.019,0
		c4.61-0.01,8.34-3.755,8.329-8.367c-0.175-79.54-0.175-161.11-0.175-239.992c0-4.611-3.738-8.348-8.348-8.348H56.072
		c-3.73,0-7.008,2.475-8.028,6.062c-12.054,42.344-17.858,90.279-18.158,150.261C12.745,218.804,0,234.311,0,252.745v89.852
		c0,21.303,17.021,38.693,38.175,39.316c0.578,5.031,1.052,10.16,1.514,15.163c1.528,16.542,3.107,33.647,8.461,49.769
		c1.114,3.354,4.218,5.642,7.751,5.714c25.36,0.521,51.086,0.368,75.966,0.224c33-0.195,67.124-0.394,100.59,0.978
		c0.114,0.004,0.227,0.007,0.342,0.007c5.828,0,10.752-4.927,10.752-10.76c0-0.292-0.016-0.581-0.046-0.87
		C241.684,424.781,242,406.955,242.305,389.717z M163.04,110.087c13.624,0,24.707,11.136,24.707,24.823
		c0,13.688-11.084,24.824-24.707,24.824H48.686c1.355-17.631,3.369-34.095,6.073-49.646H163.04V110.087z M42.653,230.096h86.007
		c12.489,0,22.65,10.161,22.65,22.65v89.85c0,12.491-10.161,22.652-22.652,22.652H39.346c-12.489,0-22.65-10.161-22.65-22.65
		v-89.852c0-10.892,7.6-20.762,17.99-22.163C36.664,230.317,42.653,230.096,42.653,230.096z"/>
	<path style="fill:#3C3A41;" d="M83.305,286.633h0.698c4.61,0,8.348-3.736,8.348-8.348c0-4.611-3.738-8.348-8.348-8.348h-0.698
		c-4.61,0-8.348,3.736-8.348,8.348C74.957,282.897,78.694,286.633,83.305,286.633z"/>
	<path style="fill:#3C3A41;" d="M83.305,328.86h0.698c4.61,0,8.348-3.736,8.348-8.348c0-4.611-3.738-8.348-8.348-8.348h-0.698
		c-4.61,0-8.348,3.736-8.348,8.348C74.957,325.123,78.694,328.86,83.305,328.86z"/>
	<path style="fill:#3C3A41;" d="M48.441,286.633h0.698c4.61,0,8.348-3.736,8.348-8.348c0-4.611-3.738-8.348-8.348-8.348h-0.698
		c-4.61,0-8.348,3.736-8.348,8.348C40.093,282.897,43.831,286.633,48.441,286.633z"/>
	<path style="fill:#3C3A41;" d="M48.441,328.86h0.698c4.61,0,8.348-3.736,8.348-8.348c0-4.611-3.738-8.348-8.348-8.348h-0.698
		c-4.61,0-8.348,3.736-8.348,8.348C40.093,325.123,43.831,328.86,48.441,328.86z"/>
	<path style="fill:#3C3A41;" d="M482.115,214.557c-0.301-59.982-6.104-107.918-18.157-150.256c-1.021-3.587-4.299-6.062-8.028-6.062
		H278c-4.61,0-8.348,3.736-8.348,8.348c0,30.277,0,60.73-0.009,91.218c-0.019,58.595-0.071,105.869-0.165,148.793v68.027
		c0.039,5.032,0.129,10.149,0.217,15.097c0.305,17.237,0.621,35.06-1.2,52.414c-0.03,0.289-0.046,0.58-0.046,0.87
		c0,5.832,4.924,10.76,10.752,10.76c0.115,0,0.228-0.002,0.342-0.007c33.465-1.371,67.59-1.173,100.59-0.978
		c24.879,0.144,50.607,0.296,75.966-0.224c3.533-0.071,6.637-2.361,7.751-5.714c5.354-16.119,6.933-33.224,8.461-49.765
		c0.462-5.005,0.937-10.135,1.515-15.166c21.155-0.623,38.174-18.015,38.174-39.317v-89.85
		C512,234.311,499.255,218.804,482.115,214.557z M463.314,159.734H348.961c-13.624,0-24.707-11.136-24.707-24.824
		c0-13.687,11.084-24.823,24.707-24.823h108.281C459.945,125.639,461.96,142.103,463.314,159.734z M455.687,395.543
		c-1.312,14.211-2.561,27.736-5.997,40.435c-23.184,0.38-46.677,0.242-69.458,0.109c-30.949-0.181-62.879-0.367-94.496,0.731
		c1.209-16.001,0.927-31.927,0.653-47.391c-0.087-4.907-0.177-9.983-0.215-14.866v-67.945c0.094-42.916,0.147-90.2,0.165-148.806
		c0.008-27.689,0.009-55.349,0.009-82.875h163.222c1.604,6.018,3.078,12.167,4.431,18.456H348.961
		c-22.83,0-41.403,18.625-41.403,41.519s18.573,41.52,41.403,41.52h115.422c0.609,11.787,0.949,24.09,1.031,36.971h-82.073
		c-21.695,0-39.346,17.651-39.346,39.347v89.85c0,21.695,17.651,39.346,39.346,39.346h73.688
		C456.529,386.504,456.098,391.072,455.687,395.543z M477.314,230.583c10.261,2.155,17.99,11.271,17.99,22.163v89.85
		c0,12.491-10.161,22.652-22.652,22.652H383.34c-12.489,0-22.65-10.161-22.65-22.65v-89.85c0-12.491,10.161-22.652,22.65-22.652
		h86.007L477.314,230.583z"/>
	<path style="fill:#3C3A41;" d="M428.695,269.938h-0.698c-4.61,0-8.348,3.736-8.348,8.348c0,4.611,3.738,8.348,8.348,8.348h0.698
		c4.61,0,8.348-3.736,8.348-8.348C437.043,273.674,433.306,269.938,428.695,269.938z"/>
	<path style="fill:#3C3A41;" d="M428.695,312.164h-0.698c-4.61,0-8.348,3.736-8.348,8.348c0,4.611,3.738,8.348,8.348,8.348h0.698
		c4.61,0,8.348-3.736,8.348-8.348C437.043,315.901,433.306,312.164,428.695,312.164z"/>
	<path style="fill:#3C3A41;" d="M463.559,269.938h-0.698c-4.61,0-8.348,3.736-8.348,8.348c0,4.611,3.738,8.348,8.348,8.348h0.698
		c4.61,0,8.348-3.736,8.348-8.348C471.907,273.674,468.171,269.938,463.559,269.938z"/>
	<path style="fill:#3C3A41;" d="M463.559,312.164h-0.698c-4.61,0-8.348,3.736-8.348,8.348c0,4.611,3.738,8.348,8.348,8.348h0.698
		c4.61,0,8.348-3.736,8.348-8.348C471.907,315.901,468.171,312.164,463.559,312.164z"/>
</g>
<g>
</g>
<g>
</g>
<g>
</g>
<g>
</g>
<g>
</g>
<g>
</g>
<g>
</g>
<g>
</g>
<g>
</g>
<g>
</g>
<g>
</g>
<g>
</g>
<g>
</g>
<g>
</g>
<g>
</g>
</svg>
