<?xml version="1.0" encoding="iso-8859-1"?>
<!-- Generator: Adobe Illustrator 19.0.0, SVG Export Plug-In . SVG Version: 6.00 Build 0)  -->
<svg version="1.1" id="Layer_1" xmlns="http://www.w3.org/2000/svg" xmlns:xlink="http://www.w3.org/1999/xlink" x="0px" y="0px"
	 viewBox="0 0 512 512" style="enable-background:new 0 0 512 512;" xml:space="preserve">
<g>
	<path style="fill:#FFAF00;" d="M343.792,505.809l-37.361-41.458c-6.926-7.685-6.31-19.53,1.375-26.455
		c7.686-6.927,19.528-6.31,26.455,1.375l37.361,41.458c6.926,7.685,6.31,19.53-1.375,26.455
		C362.556,514.112,350.715,513.49,343.792,505.809z"/>
	<path style="fill:#FFAF00;" d="M394.555,460.063l-37.362-41.46c-6.926-7.685-6.31-19.53,1.375-26.455
		c7.686-6.926,19.53-6.31,26.455,1.375l37.362,41.46c6.926,7.685,6.31,19.53-1.375,26.455
		C413.319,468.367,401.478,467.745,394.555,460.063z"/>
	<path style="fill:#FFAF00;" d="M445.317,414.317l-37.361-41.46c-6.924-7.684-6.309-19.53,1.377-26.455
		c7.684-6.927,19.53-6.31,26.455,1.377l37.361,41.46c6.924,7.684,6.309,19.53-1.377,26.455
		C464.088,422.618,452.242,422.004,445.317,414.317z"/>
</g>
<g>
	<path style="fill:#FFC72D;" d="M141.752,507.184c-7.685-6.926-8.301-18.769-1.376-26.455l37.361-41.458
		c6.924-7.684,18.769-8.301,26.455-1.375c7.685,6.926,8.301,18.769,1.376,26.455l-37.361,41.458
		C161.284,513.491,149.438,514.111,141.752,507.184z"/>
	<path style="fill:#FFC72D;" d="M90.989,461.44c-7.685-6.926-8.301-18.77-1.376-26.455l37.361-41.46
		c6.926-7.686,18.77-8.301,26.455-1.377c7.685,6.926,8.301,18.77,1.376,26.455l-37.361,41.46
		C110.522,467.746,98.676,468.365,90.989,461.44z"/>
	<path style="fill:#FFC72D;" d="M40.227,415.694c-7.685-6.926-8.301-18.77-1.376-26.455l37.361-41.46
		c6.924-7.686,18.77-8.301,26.455-1.377c7.685,6.926,8.301,18.77,1.376,26.455l-37.361,41.46
		C59.759,422.001,47.913,422.62,40.227,415.694z"/>
</g>
<path style="fill:#4881C2;" d="M274.789,174.134h-37.581c-5.306,0-10.362-2.25-13.915-6.191L100.127,31.272
	C89.291,19.243,97.855,0,114.043,0h283.913c16.19,0,24.752,19.245,13.915,31.272l-123.166,136.67
	C285.153,171.885,280.095,174.134,274.789,174.134z"/>
<path style="fill:#28568A;" d="M397.955,0H255.999v174.134h18.79c5.306,0,10.364-2.25,13.915-6.191l123.166-136.67
	C422.707,19.245,414.146,0,397.955,0z"/>
<path style="fill:#2F66A3;" d="M404.673,1.245c-7.235-2.777-15.441-0.813-20.631,4.946L255.999,148.277v55.962l78.075,86.634
	c7.43,8.244,20.39,8.257,27.829,0l49.967-55.447c3.101-3.442,4.817-7.909,4.817-12.54V18.732
	C416.687,10.978,411.91,4.026,404.673,1.245z"/>
<path style="fill:#4881C2;" d="M179.117,465.728L77.589,374.236c-7.685-6.924-8.301-18.768-1.376-26.454l73.883-81.99
	c7.44-8.258,20.4-8.247,27.83-0.001l91.989,102.074c6.422,7.127,6.424,17.952,0.001,25.079l-64.343,71.408
	C198.635,472.053,186.785,472.64,179.117,465.728z"/>
<path style="fill:#48AEE2;" d="M306.427,464.353l-206.3-228.929c-3.101-3.442-4.817-7.909-4.817-12.54V18.732
	c0-7.754,4.777-14.706,12.016-17.487c7.239-2.779,15.441-0.812,20.631,4.946c5.739,6.369,174.457,193.585,307.827,341.591
	c6.924,7.685,6.309,19.53-1.376,26.454l-101.527,91.492C325.2,472.652,313.352,472.039,306.427,464.353z"/>
<path style="fill:#4881C2;" d="M435.786,347.783c-58.721-65.165-124.289-137.925-179.787-199.51v260.12l50.428,55.96
	c6.924,7.686,18.773,8.301,26.457,1.376l101.527-91.492C442.095,367.313,442.71,355.468,435.786,347.783z"/>
<g>
</g>
<g>
</g>
<g>
</g>
<g>
</g>
<g>
</g>
<g>
</g>
<g>
</g>
<g>
</g>
<g>
</g>
<g>
</g>
<g>
</g>
<g>
</g>
<g>
</g>
<g>
</g>
<g>
</g>
</svg>
