<?xml version="1.0" encoding="iso-8859-1"?>
<!-- Generator: Adobe Illustrator 19.0.0, SVG Export Plug-In . SVG Version: 6.00 Build 0)  -->
<svg version="1.1" id="Layer_1" xmlns="http://www.w3.org/2000/svg" xmlns:xlink="http://www.w3.org/1999/xlink" x="0px" y="0px"
	 viewBox="0 0 511.992 511.992" style="enable-background:new 0 0 511.992 511.992;" xml:space="preserve">
<path style="fill:#AC92EB;" d="M319.991,106.67c-94.288,0-170.739,62.39-170.739,191.997c0,67.249,20.578,170.544,53.546,213.325
	h234.316c32.968-42.781,53.562-146.076,53.562-213.325C490.676,169.059,414.271,106.67,319.991,106.67z"/>
<path style="fill:#E6E9ED;" d="M309.335,111.717v346.244c-0.031,0.234-0.031,0.469-0.031,0.703c0,5.891,4.75,10.672,10.656,10.672
	c5.875,0,10.656-4.781,10.656-10.672h0.031V111.717H309.335z"/>
<path style="fill:#967ADC;" d="M437.114,511.992c32.968-42.781,53.562-146.076,53.562-213.325H149.251
	c0,67.249,20.578,170.544,53.546,213.325L437.114,511.992L437.114,511.992z"/>
<path style="fill:#E6E9ED;" d="M185.486,95.608l-12.625-17.203c43.156-31.656,83.249-25.203,84.936-24.922l-3.625,21.031
	c-0.016,0-8.359-1.297-20.953,0.672C216.423,77.827,200.359,84.686,185.486,95.608z"/>
<path style="fill:#434A54;" d="M106.659,21.344c-47.14,0-85.342,38.202-85.342,85.326c0,47.125,38.203,85.327,85.342,85.327
	c47.125,0,85.327-38.203,85.327-85.327C191.984,59.546,153.783,21.344,106.659,21.344z"/>
<path style="fill:#CCD1D9;" d="M309.335,298.667v159.294c-0.031,0.234-0.031,0.469-0.031,0.703c0,5.891,4.75,10.672,10.656,10.672
	c5.875,0,10.656-4.781,10.656-10.672h0.031V298.667H309.335z"/>
<path style="fill:#E6E9ED;" d="M384.084,0H255.811c-5.891,0-10.671,4.781-10.671,10.672v106.67c0,5.891,4.781,10.656,10.671,10.656
	h128.271c5.906,0,10.688-4.766,10.688-10.656V10.672C394.771,4.781,389.99,0,384.084,0z"/>
<path style="fill:#656D78;" d="M106.659,63.999c-23.578,0-42.671,19.109-42.671,42.671l0,0c0,5.891,4.781,10.672,10.671,10.672
	c5.891,0,10.672-4.781,10.672-10.672c0-0.031-0.016-0.078-0.016-0.109c0.062-11.718,9.609-21.218,21.343-21.218
	c5.891,0,10.656-4.781,10.656-10.671S112.549,63.999,106.659,63.999z"/>
<rect x="378.766" y="48.874" style="fill:#434A54;" width="16" height="32"/>
<path style="fill:#656D78;" d="M384.084,63.999c0-5.891,4.781-10.656,10.688-10.656V31.999c-17.656,0-32,14.359-32,32
	c0,17.64,14.344,32,32,32V74.671C388.865,74.671,384.084,69.89,384.084,63.999z"/>
<g>
</g>
<g>
</g>
<g>
</g>
<g>
</g>
<g>
</g>
<g>
</g>
<g>
</g>
<g>
</g>
<g>
</g>
<g>
</g>
<g>
</g>
<g>
</g>
<g>
</g>
<g>
</g>
<g>
</g>
</svg>
