<?xml version="1.0" encoding="iso-8859-1"?>
<!-- Generator: Adobe Illustrator 18.0.0, SVG Export Plug-In . SVG Version: 6.00 Build 0)  -->
<!DOCTYPE svg PUBLIC "-//W3C//DTD SVG 1.1//EN" "http://www.w3.org/Graphics/SVG/1.1/DTD/svg11.dtd">
<svg version="1.1" id="Capa_1" xmlns="http://www.w3.org/2000/svg" xmlns:xlink="http://www.w3.org/1999/xlink" x="0px" y="0px"
	 viewBox="0 0 60 60" style="enable-background:new 0 0 60 60;" xml:space="preserve">
<g>
	<path style="fill:#7383BF;" d="M1.5,40H0v-1.5c0-0.553,0.447-1,1-1c0.405,0,0.755,0.241,0.912,0.588
		C2.259,38.245,2.5,38.595,2.5,39C2.5,39.553,2.053,40,1.5,40z"/>
	<path style="fill:#7383BF;" d="M1,35.921c-0.553,0-1-0.447-1-1v-0.895c0-0.553,0.447-1,1-1s1,0.447,1,1v0.895
		C2,35.474,1.553,35.921,1,35.921z M1,31.447c-0.553,0-1-0.447-1-1v-0.895c0-0.553,0.447-1,1-1s1,0.447,1,1v0.895
		C2,31,1.553,31.447,1,31.447z M1,26.974c-0.553,0-1-0.447-1-1v-0.895c0-0.553,0.447-1,1-1s1,0.447,1,1v0.895
		C2,26.526,1.553,26.974,1,26.974z"/>
	<path style="fill:#7383BF;" d="M1,22.5c-0.553,0-1-0.447-1-1V20h1.5c0.553,0,1,0.447,1,1c0,0.405-0.241,0.755-0.588,0.912
		C1.755,22.259,1.405,22.5,1,22.5z"/>
	<path style="fill:#7383BF;" d="M54.636,22h-0.967c-0.553,0-1-0.447-1-1s0.447-1,1-1h0.967c0.553,0,1,0.447,1,1S55.188,22,54.636,22
		z M49.805,22h-0.966c-0.553,0-1-0.447-1-1s0.447-1,1-1h0.966c0.553,0,1,0.447,1,1S50.357,22,49.805,22z M44.975,22h-0.966
		c-0.553,0-1-0.447-1-1s0.447-1,1-1h0.966c0.553,0,1,0.447,1,1S45.527,22,44.975,22z M40.144,22h-0.966c-0.553,0-1-0.447-1-1
		s0.447-1,1-1h0.966c0.553,0,1,0.447,1,1S40.696,22,40.144,22z M35.313,22h-0.966c-0.553,0-1-0.447-1-1s0.447-1,1-1h0.966
		c0.553,0,1,0.447,1,1S35.866,22,35.313,22z M30.482,22h-0.966c-0.553,0-1-0.447-1-1s0.447-1,1-1h0.966c0.553,0,1,0.447,1,1
		S31.035,22,30.482,22z M25.652,22h-0.966c-0.553,0-1-0.447-1-1s0.447-1,1-1h0.966c0.553,0,1,0.447,1,1S26.205,22,25.652,22z
		 M20.822,22h-0.967c-0.553,0-1-0.447-1-1s0.447-1,1-1h0.967c0.553,0,1,0.447,1,1S21.375,22,20.822,22z M15.991,22h-0.966
		c-0.553,0-1-0.447-1-1s0.447-1,1-1h0.966c0.553,0,1,0.447,1,1S16.544,22,15.991,22z M11.161,22h-0.967c-0.553,0-1-0.447-1-1
		s0.447-1,1-1h0.967c0.553,0,1,0.447,1,1S11.714,22,11.161,22z M6.33,22H5.364c-0.553,0-1-0.447-1-1s0.447-1,1-1H6.33
		c0.553,0,1,0.447,1,1S6.883,22,6.33,22z"/>
	<path style="fill:#7383BF;" d="M59,22.5c-0.405,0-0.755-0.241-0.912-0.588C57.741,21.755,57.5,21.405,57.5,21c0-0.553,0.447-1,1-1
		H60v1.5C60,22.053,59.553,22.5,59,22.5z"/>
	<path style="fill:#7383BF;" d="M59,35.921c-0.553,0-1-0.447-1-1v-0.895c0-0.553,0.447-1,1-1s1,0.447,1,1v0.895
		C60,35.474,59.553,35.921,59,35.921z M59,31.447c-0.553,0-1-0.447-1-1v-0.895c0-0.553,0.447-1,1-1s1,0.447,1,1v0.895
		C60,31,59.553,31.447,59,31.447z M59,26.974c-0.553,0-1-0.447-1-1v-0.895c0-0.553,0.447-1,1-1s1,0.447,1,1v0.895
		C60,26.526,59.553,26.974,59,26.974z"/>
	<path style="fill:#7383BF;" d="M60,40h-1.5c-0.553,0-1-0.447-1-1c0-0.405,0.241-0.755,0.588-0.912
		C58.245,37.741,58.595,37.5,59,37.5c0.553,0,1,0.447,1,1V40z"/>
	<path style="fill:#7383BF;" d="M54.636,40H53.67c-0.553,0-1-0.447-1-1s0.447-1,1-1h0.966c0.553,0,1,0.447,1,1S55.188,40,54.636,40z
		 M49.806,40h-0.967c-0.553,0-1-0.447-1-1s0.447-1,1-1h0.967c0.553,0,1,0.447,1,1S50.358,40,49.806,40z M44.975,40h-0.966
		c-0.553,0-1-0.447-1-1s0.447-1,1-1h0.966c0.553,0,1,0.447,1,1S45.527,40,44.975,40z M40.145,40h-0.967c-0.553,0-1-0.447-1-1
		s0.447-1,1-1h0.967c0.553,0,1,0.447,1,1S40.697,40,40.145,40z M35.313,40h-0.966c-0.553,0-1-0.447-1-1s0.447-1,1-1h0.966
		c0.553,0,1,0.447,1,1S35.866,40,35.313,40z M30.483,40h-0.966c-0.553,0-1-0.447-1-1s0.447-1,1-1h0.966c0.553,0,1,0.447,1,1
		S31.036,40,30.483,40z M25.652,40h-0.966c-0.553,0-1-0.447-1-1s0.447-1,1-1h0.966c0.553,0,1,0.447,1,1S26.205,40,25.652,40z
		 M20.822,40h-0.966c-0.553,0-1-0.447-1-1s0.447-1,1-1h0.966c0.553,0,1,0.447,1,1S21.375,40,20.822,40z M15.991,40h-0.966
		c-0.553,0-1-0.447-1-1s0.447-1,1-1h0.966c0.553,0,1,0.447,1,1S16.544,40,15.991,40z M11.161,40h-0.966c-0.553,0-1-0.447-1-1
		s0.447-1,1-1h0.966c0.553,0,1,0.447,1,1S11.714,40,11.161,40z M6.331,40H5.364c-0.553,0-1-0.447-1-1s0.447-1,1-1h0.967
		c0.553,0,1,0.447,1,1S6.884,40,6.331,40z"/>
</g>
<g>
</g>
<g>
</g>
<g>
</g>
<g>
</g>
<g>
</g>
<g>
</g>
<g>
</g>
<g>
</g>
<g>
</g>
<g>
</g>
<g>
</g>
<g>
</g>
<g>
</g>
<g>
</g>
<g>
</g>
</svg>
