<?xml version="1.0" encoding="iso-8859-1"?>
<!-- Generator: Adobe Illustrator 19.0.0, SVG Export Plug-In . SVG Version: 6.00 Build 0)  -->
<svg version="1.1" id="Layer_1" xmlns="http://www.w3.org/2000/svg" xmlns:xlink="http://www.w3.org/1999/xlink" x="0px" y="0px"
	 viewBox="0 0 512 512" style="enable-background:new 0 0 512 512;" xml:space="preserve">
<path style="fill:#D5967B;" d="M304.54,127.75h-96.177l-0.081,193.503c0.02-0.58-7.43,182.507-7.89,182.472h112.219l-8.071-179.842
	V127.75z"/>
<rect x="231.452" y="88.703" style="fill:#8D8A94;" width="48.094" height="39.041"/>
<rect x="231.452" y="72.161" style="fill:#B4E1FA;" width="48.094" height="16.549"/>
<rect x="231.452" y="55.609" style="fill:#A0D2F0;" width="48.094" height="16.549"/>
<path style="fill:#EDEDEE;" d="M255.499,30.727c-16.532,0-24.047,14.089-24.047,24.882h48.094
	C279.546,44.816,272.031,30.727,255.499,30.727z"/>
<path style="fill:#C88C73;" d="M208.379,152.574h96.16c0,0,0.085-12.838,0-17.31h-96.18
	C208.274,139.736,208.379,152.574,208.379,152.574z"/>
<polygon style="fill:#EDEDEE;" points="206.351,368.219 306.53,368.219 304.591,325.021 304.54,231.953 208.407,231.953 
	208.282,321.252 "/>
<polygon style="fill:#C88C73;" points="200.391,503.725 312.611,503.725 310.607,454.077 202.745,454.077 "/>
<path style="fill:#B47869;" d="M271.695,503.725v-84.398c0-2.396-1.184-2.333-2.644-2.333h-26.438c-1.46,0-2.644-0.063-2.644,2.333
	v84.398H271.695z"/>
<path d="M320.125,496.971h-0.821l-7.696-177.009V135.264h0.501c4.15,0,7.515-3.365,7.515-7.515c0-4.15-3.365-7.515-7.515-7.515
	h-24.548V63.123h0.501c4.15,0,7.515-3.365,7.515-7.515s-3.365-7.515-7.515-7.515h-1.412c-2.79-11.376-11.76-20.346-23.136-23.136
	V7.515C263.515,3.365,260.15,0,256,0c-4.15,0-7.515,3.365-7.515,7.515v17.443c-11.376,2.79-20.346,11.76-23.136,23.136h-1.412
	c-4.15,0-7.515,3.365-7.515,7.515s3.365,7.515,7.515,7.515h0.501v57.112H199.89c-4.15,0-7.515,3.365-7.515,7.515
	c0,4.15,3.365,7.515,7.515,7.515h0.501v184.698l-7.696,177.009h-0.821c-4.15,0-7.515,3.364-7.515,7.515s3.365,7.515,7.515,7.515
	h128.25c4.15,0,7.515-3.364,7.515-7.515S324.275,496.971,320.125,496.971z M215.414,320.452c0.004-0.108,0.007-0.217,0.007-0.327
	v-80.683c0.166,0.011,0.332,0.025,0.501,0.025h80.157c0.169,0,0.335-0.014,0.501-0.025v80.683c0,0.108,0.002,0.217,0.007,0.327
	l1.75,40.253h-84.672L215.414,320.452z M272.532,63.123v17.033h-33.065V63.123H272.532z M256,39.076
	c6.409,0,11.965,3.673,14.707,9.018h-29.414C244.035,42.749,249.591,39.076,256,39.076z M239.468,95.186h33.065v25.049h-33.065
	V95.186z M296.579,135.264v89.199c-0.166-0.011-0.332-0.025-0.501-0.025h-80.157c-0.169,0-0.335,0.014-0.501,0.025v-89.199H296.579z
	 M213.01,375.734h85.98l5.271,121.237h-24.715v-80.658c0-4.15-3.365-7.515-7.515-7.515h-32.063c-4.15,0-7.515,3.365-7.515,7.515
	v80.658h-24.715L213.01,375.734z M264.517,496.971h-17.033v-73.143h17.033V496.971z"/>
<g>
</g>
<g>
</g>
<g>
</g>
<g>
</g>
<g>
</g>
<g>
</g>
<g>
</g>
<g>
</g>
<g>
</g>
<g>
</g>
<g>
</g>
<g>
</g>
<g>
</g>
<g>
</g>
<g>
</g>
</svg>
