<?xml version="1.0" encoding="iso-8859-1"?>
<!-- Generator: Adobe Illustrator 19.0.0, SVG Export Plug-In . SVG Version: 6.00 Build 0)  -->
<svg version="1.1" id="Layer_1" xmlns="http://www.w3.org/2000/svg" xmlns:xlink="http://www.w3.org/1999/xlink" x="0px" y="0px"
	 viewBox="0 0 512 512" style="enable-background:new 0 0 512 512;" xml:space="preserve">
<polygon style="fill:#EDEDEE;" points="216.423,332.65 216.423,127.249 104.204,127.249 104.204,504.986 440.36,504.986 
	440.36,332.65 "/>
<path style="fill:#DCDBDE;" d="M163.82,384.25h276.54v-24.047H159.812v20.039C159.812,382.456,161.607,384.25,163.82,384.25z"/>
<path style="fill:#EDEDEE;" d="M159.311,30.56c-7.014,0-16.031,7.983-16.031,16.532h32.063
	C175.342,38.542,166.325,30.56,159.311,30.56z"/>
<rect x="96.188" y="95.687" style="fill:#A7A5AC;" width="127.249" height="31.562"/>
<rect x="143.28" y="71.389" style="fill:#B4E1FA;" width="32.063" height="24.297"/>
<rect x="143.28" y="47.092" style="fill:#A0D2F0;" width="32.063" height="24.297"/>
<rect x="104.204" y="127.249" style="fill:#DCDBDE;" width="112.219" height="16.031"/>
<polygon style="fill:#A7A5AC;" points="215.922,279.045 215.922,311.776 159.812,311.776 159.812,360.204 440.36,360.204 
	440.36,279.045 "/>
<rect x="408.798" y="239.969" style="fill:#8D8A94;" width="31.562" height="39.076"/>
<path style="fill:#DCDBDE;" d="M320.459,504.986h-39.911v-92.681c0-2.213,1.794-4.008,4.008-4.008h31.895
	c2.213,0,4.008,1.794,4.008,4.008V504.986z"/>
<g>
	<path style="fill:#736F7B;" d="M203.898,472.423h24.047c2.213,0,4.008-1.794,4.008-4.008v-56.11c0-2.213-1.795-4.008-4.008-4.008
		h-24.047c-2.213,0-4.008,1.794-4.008,4.008v56.11C199.89,470.628,201.685,472.423,203.898,472.423z"/>
	<path style="fill:#736F7B;" d="M372.227,472.423h24.047c2.213,0,4.008-1.794,4.008-4.008v-56.11c0-2.213-1.794-4.008-4.008-4.008
		h-24.047c-2.213,0-4.008,1.794-4.008,4.008v56.11C368.219,470.628,370.014,472.423,372.227,472.423z"/>
</g>
<rect x="56.11" y="175.843" style="fill:#A7A5AC;" width="48.094" height="88.172"/>
<polygon style="fill:#DCDBDE;" points="104.204,310.607 56.11,264.016 104.204,264.016 "/>
<path style="fill:#EDEDEE;" d="M408.798,239.969c0,0,0.751-17.409,15.53-17.409s16.031,17.409,16.031,17.409H408.798z"/>
<path d="M456.391,496.971h-8.517V280.047v-32.564h0.501c4.15,0,7.515-3.365,7.515-7.515s-3.365-7.515-7.515-7.515h-1.737
	c-2.347-6.947-7.847-12.448-14.795-14.795v-9.753c0-4.15-3.365-7.515-7.515-7.515s-7.515,3.365-7.515,7.515v9.753
	c-6.947,2.347-12.448,7.847-14.795,14.795h-1.737c-4.15,0-7.515,3.365-7.515,7.515s3.365,7.515,7.515,7.515h0.501v25.049H223.436
	V135.264h0.501c4.15,0,7.515-3.365,7.515-7.515v-24.548h0.501c4.15,0,7.515-3.365,7.515-7.515c0-4.15-3.365-7.515-7.515-7.515
	h-48.595V55.108h0.501c4.15,0,7.515-3.365,7.515-7.515s-3.365-7.515-7.515-7.515h-1.737c-2.347-6.947-7.847-12.448-14.795-14.795
	V7.515c0-4.15-3.365-7.515-7.515-7.515s-7.515,3.365-7.515,7.515v17.769c-6.947,2.347-12.448,7.847-14.795,14.795h-1.737
	c-4.15,0-7.515,3.365-7.515,7.515s3.365,7.515,7.515,7.515h0.501v33.065H87.671c-4.15,0-7.515,3.365-7.515,7.515
	c0,4.15,3.365,7.515,7.515,7.515h0.501v24.548c0,4.15,3.365,7.515,7.515,7.515h0.501v33.065H55.609c-4.15,0-7.515,3.365-7.515,7.515
	v88.171c0,0.247,0.013,0.496,0.037,0.743c0.011,0.109,0.031,0.215,0.047,0.324c0.019,0.134,0.035,0.27,0.062,0.403
	c0.024,0.124,0.059,0.244,0.089,0.367c0.029,0.115,0.054,0.231,0.089,0.346c0.036,0.12,0.082,0.236,0.124,0.354
	c0.041,0.113,0.078,0.228,0.124,0.34c0.046,0.11,0.099,0.216,0.15,0.324c0.054,0.114,0.105,0.229,0.165,0.343
	c0.056,0.104,0.12,0.204,0.18,0.306c0.065,0.108,0.126,0.218,0.196,0.324c0.077,0.114,0.162,0.222,0.244,0.332
	c0.064,0.086,0.124,0.174,0.193,0.259c0.158,0.192,0.325,0.378,0.501,0.553l45.89,45.893v181.749h-8.517
	c-4.15,0-7.515,3.365-7.515,7.515S83.521,512,87.671,512h72.141H440.36h16.031c4.15,0,7.515-3.365,7.515-7.515
	S460.542,496.971,456.391,496.971z M424.329,231.452c1.445,0,2.805,0.364,3.999,1.002h-7.999
	C421.523,231.816,422.884,231.452,424.329,231.452z M415.812,247.483h17.033v25.049h-17.033V247.483z M432.845,287.562v65.127
	H167.327v-33.065h48.596c4.15,0,7.515-3.365,7.515-7.515c0-0.007-0.001-0.014-0.001-0.021v-24.527H432.845z M216.423,103.202v17.033
	h-33.065v-17.033H216.423z M151.296,120.235v-17.033h17.033v17.033H151.296z M159.812,39.076c1.445,0,2.805,0.364,4,1.002h-7.999
	C157.007,39.44,158.367,39.076,159.812,39.076z M151.296,55.108h17.033v33.065h-17.033V55.108z M136.266,103.202v17.033h-33.065
	v-17.033H136.266z M63.123,183.358h33.065v73.143H63.123V183.358z M73.75,271.53h22.438v22.438L73.75,271.53z M111.217,312.113
	c0-0.002,0-0.003,0-0.005v-48.092v-88.172v-40.579h97.19v169.331h-48.595c-4.15,0-7.515,3.365-7.515,7.515v184.861h-41.08V312.113z
	 M312.611,496.971h-25.049v-81.159h25.049V496.971z M327.64,496.971v-88.673c0-4.15-3.365-7.515-7.515-7.515h-40.078
	c-4.15,0-7.515,3.365-7.515,7.515v88.673H167.327V367.718h265.519v129.252H327.64z"/>
<path d="M231.953,400.783H199.89c-4.15,0-7.515,3.365-7.515,7.515v64.125c0,4.15,3.365,7.515,7.515,7.515h32.063
	c4.15,0,7.515-3.365,7.515-7.515v-64.125C239.468,404.147,236.103,400.783,231.953,400.783z M224.438,464.908h-17.033v-49.096
	h17.033V464.908z"/>
<path d="M400.282,400.783h-32.063c-4.15,0-7.515,3.365-7.515,7.515v64.125c0,4.15,3.365,7.515,7.515,7.515h32.063
	c4.15,0,7.515-3.365,7.515-7.515v-64.125C407.796,404.147,404.432,400.783,400.282,400.783z M392.767,464.908h-17.033v-49.096
	h17.033V464.908z"/>
<g>
</g>
<g>
</g>
<g>
</g>
<g>
</g>
<g>
</g>
<g>
</g>
<g>
</g>
<g>
</g>
<g>
</g>
<g>
</g>
<g>
</g>
<g>
</g>
<g>
</g>
<g>
</g>
<g>
</g>
</svg>
