<?xml version="1.0" encoding="iso-8859-1"?>
<!-- Generator: Adobe Illustrator 17.1.0, SVG Export Plug-In . SVG Version: 6.00 Build 0)  -->
<!DOCTYPE svg PUBLIC "-//W3C//DTD SVG 1.1//EN" "http://www.w3.org/Graphics/SVG/1.1/DTD/svg11.dtd">
<svg version="1.1" id="Capa_1" xmlns="http://www.w3.org/2000/svg" xmlns:xlink="http://www.w3.org/1999/xlink" x="0px" y="0px"
	 viewBox="0 0 290 290" style="enable-background:new 0 0 290 290;" xml:space="preserve">
<g>
	<path d="M169.681,38H25.202C11.417,38,0,49.63,0,63.415V186.65C0,200.436,11.417,212,25.202,212h48.509
		c-0.213,0-0.711,1.309-0.711,2.187V221H49.441C43.928,221,39,225.791,39,231.305v10.612C39,247.431,43.928,252,49.441,252h96
		c5.514,0,9.559-4.569,9.559-10.083v-10.612c0-5.514-4.045-10.305-9.559-10.305H121v-6.813c0-0.878,0.385-2.187,0.171-2.187h48.51
		C183.466,212,194,200.436,194,186.65V63.415C194,49.63,183.466,38,169.681,38z M164,182H30V68h134V182z"/>
	<path d="M290,49c0-6.075-4.925-11-11-11h-49c-6.075,0-11,4.925-11,11v56c0,6.075,4.925,11,11,11h49c6.075,0,11-4.925,11-11V49z"/>
	<path d="M290,157c0-6.075-4.925-11-11-11h-49c-6.075,0-11,4.925-11,11v84c0,6.075,4.925,11,11,11h49c6.075,0,11-4.925,11-11V157z
		 M255.131,211.985c-6.996,0-12.667-5.671-12.667-12.667c0-6.996,5.671-12.667,12.667-12.667c6.996,0,12.667,5.671,12.667,12.667
		C267.798,206.314,262.127,211.985,255.131,211.985z"/>
</g>
<g>
</g>
<g>
</g>
<g>
</g>
<g>
</g>
<g>
</g>
<g>
</g>
<g>
</g>
<g>
</g>
<g>
</g>
<g>
</g>
<g>
</g>
<g>
</g>
<g>
</g>
<g>
</g>
<g>
</g>
</svg>
