<?xml version="1.0" encoding="iso-8859-1"?>
<!-- Generator: Adobe Illustrator 19.0.0, SVG Export Plug-In . SVG Version: 6.00 Build 0)  -->
<svg version="1.1" id="Layer_1" xmlns="http://www.w3.org/2000/svg" xmlns:xlink="http://www.w3.org/1999/xlink" x="0px" y="0px"
	 viewBox="0 0 501.164 501.164" style="enable-background:new 0 0 501.164 501.164;" xml:space="preserve">
<g>
	<g>
		<path d="M439.142,0h-375C53.374,0,43.55,7.804,43.55,18.58v129.86h414.064V18.58C457.614,7.804,449.91,0,439.142,0z
			 M332.614,108.424c-6.464,0-11.72-5.256-11.72-11.72v-11.72c0-2.16-0.692-2.952-2.848-2.952H185.238
			c-2.156,0-4.968,0.792-4.968,2.952v11.72c0,6.46-5.256,11.72-11.72,11.72s-11.72-5.256-11.72-11.72v-11.72
			c0-15.08,13.328-26.392,28.404-26.392h132.812c15.08,0,26.284,11.312,26.284,26.392v11.72h0.004
			C344.334,103.164,339.078,108.424,332.614,108.424z"/>
	</g>
</g>
<g>
	<g>
		<path d="M43.55,171.876v132.812h414.064V171.876H43.55z M344.33,252.956c0,6.46-5.256,11.72-11.72,11.72s-11.72-5.256-11.72-11.72
			v-11.72c0-2.16-0.692-2.952-2.848-2.952H185.238c-2.156,0-4.968,0.792-4.968,2.952v11.72c0,6.46-5.256,11.72-11.72,11.72
			s-11.72-5.256-11.72-11.72v-11.72c0-15.08,13.328-26.392,28.404-26.392h132.812c15.08,0,26.284,11.312,26.284,26.392V252.956z"/>
	</g>
</g>
<g>
	<g>
		<path d="M43.55,328.124V456.08c0,9.672,9.456,17.712,17.044,19.248v7.836v12c0,3.312,2.688,6,6,6h40c3.312,0,6-2.688,6-6v-8
			v-10.596h275.66v18.596c0,3.312,2.688,6,6,6h40c3.312,0,6-2.688,6-6v-19.756c10.476-1.032,17.36-9.252,17.36-19.324v-127.96H43.55
			z M344.33,409.204c0,6.46-5.256,11.72-11.72,11.72s-11.72-5.256-11.72-11.72v-11.72c0-2.16-0.692-2.952-2.848-2.952H185.238
			c-2.156,0-4.968,0.792-4.968,2.952v11.72c0,6.46-5.256,11.72-11.72,11.72s-11.72-5.256-11.72-11.72v-11.72
			c0-15.08,13.328-26.392,28.404-26.392h132.812c15.08,0,26.284,11.312,26.284,26.392V409.204z"/>
	</g>
</g>
<g>
</g>
<g>
</g>
<g>
</g>
<g>
</g>
<g>
</g>
<g>
</g>
<g>
</g>
<g>
</g>
<g>
</g>
<g>
</g>
<g>
</g>
<g>
</g>
<g>
</g>
<g>
</g>
<g>
</g>
</svg>
