<?xml version="1.0" encoding="iso-8859-1"?>
<!-- Generator: Adobe Illustrator 19.0.0, SVG Export Plug-In . SVG Version: 6.00 Build 0)  -->
<svg version="1.1" id="Layer_1" xmlns="http://www.w3.org/2000/svg" xmlns:xlink="http://www.w3.org/1999/xlink" x="0px" y="0px"
	 viewBox="0 0 500.006 500.006" style="enable-background:new 0 0 500.006 500.006;" xml:space="preserve">
<g>
	<g>
		<path d="M493.145,23.447l-16.58-16.58c-9.136-9.144-24.02-9.152-33.164,0l-21.9,21.892c-0.004,0.008-0.008,0.016-0.012,0.024
			L37.845,412.415c-0.056,0.056-0.08,0.132-0.132,0.192c-0.272,0.316-0.508,0.668-0.732,1.028c-0.216,0.32-0.496,0.584-0.66,0.928
			L0.765,488.807c-1.428,2.992-0.82,6.56,1.524,8.904c1.5,1.5,3.5,2.288,5.532,2.288c1.14,0,2.292-0.252,3.376-0.764l74.248-35.556
			c0.364-0.176,0.648-0.468,0.98-0.696c0.336-0.208,0.656-0.424,0.952-0.676c0.064-0.06,0.156-0.088,0.216-0.152L471.245,78.503
			l21.9-21.896C502.293,47.467,502.293,32.587,493.145,23.447z M54.061,461.371l-15.424-15.428l9.112-19.028l19.88,5.464
			l5.468,19.88L54.061,461.371z"/>
	</g>
</g>
<g>
</g>
<g>
</g>
<g>
</g>
<g>
</g>
<g>
</g>
<g>
</g>
<g>
</g>
<g>
</g>
<g>
</g>
<g>
</g>
<g>
</g>
<g>
</g>
<g>
</g>
<g>
</g>
<g>
</g>
</svg>
