<?xml version="1.0" encoding="iso-8859-1"?>
<!-- Generator: Adobe Illustrator 19.0.0, SVG Export Plug-In . SVG Version: 6.00 Build 0)  -->
<svg version="1.1" id="Layer_1" xmlns="http://www.w3.org/2000/svg" xmlns:xlink="http://www.w3.org/1999/xlink" x="0px" y="0px"
	 viewBox="0 0 500 500" style="enable-background:new 0 0 500 500;" xml:space="preserve">
<g>
	<g>
		<path d="M487.592,92.81l-15.82-16.172c-3.064-3.048-7.76-3.024-10.812,0.036c-3.036,3.064-2.896,8.008,0.164,11.048l15.384,16.156
			c4.584,4.584,7.868,14.668,7.868,21.148v179.648c0,3.592-1.008,6.692-3.564,7.552c-4.996-52.416-48.788-93.668-102.492-93.668
			c-53.696,0-97.78,39.252-102.552,93.94H228.04c-4.776-54.688-49.332-93.94-103.028-93.94c-53.704,0-98.916,41.196-103.924,93.612
			c-2.548-0.86-5.46-3.904-5.46-7.496V125.026c0-6.48,5.124-16.564,9.688-21.128l16.772-16.172c3.064-3.036,3.316-7.984,0.28-11.048
			c-3.048-3.06-7.864-3.084-10.928-0.036L14.228,92.834C6.624,100.434,0,114.278,0,125.026v179.648
			c0,12.3,9.704,22.388,20.78,23.344c3.072,54.316,48.684,97.616,103.752,97.616c52.308,0,96.26-38.916,103.024-89.7h48.692
			c6.76,50.78,50.24,89.7,102.548,89.7c55.068,0,99.26-43.276,102.32-97.588C492.2,327.086,500,316.97,500,304.674V125.026
			C500,114.278,495.216,100.434,487.592,92.81z M125.012,401.822c-43.94,0-79.692-35.752-79.692-79.696
			c0-43.936,35.752-79.688,79.692-79.688s79.692,35.752,79.692,79.688C204.704,366.074,168.952,401.822,125.012,401.822z
			 M378.796,401.822c-43.94,0-79.692-35.752-79.692-79.696c0-43.936,35.752-79.688,79.692-79.688s79.688,35.752,79.688,79.688
			C458.484,366.074,422.74,401.822,378.796,401.822z"/>
	</g>
</g>
<g>
</g>
<g>
</g>
<g>
</g>
<g>
</g>
<g>
</g>
<g>
</g>
<g>
</g>
<g>
</g>
<g>
</g>
<g>
</g>
<g>
</g>
<g>
</g>
<g>
</g>
<g>
</g>
<g>
</g>
</svg>
