<?xml version="1.0" encoding="iso-8859-1"?>
<!-- Generator: Adobe Illustrator 19.0.0, SVG Export Plug-In . SVG Version: 6.00 Build 0)  -->
<svg version="1.1" id="Layer_1" xmlns="http://www.w3.org/2000/svg" xmlns:xlink="http://www.w3.org/1999/xlink" x="0px" y="0px"
	 viewBox="0 0 499.976 499.976" style="enable-background:new 0 0 499.976 499.976;" xml:space="preserve">
<g>
	<g>
		<path d="M195.13,15.316c0-10.324-5.104-14.988-16.292-14.988h-44.616c-11.184,0-17.164,4.664-17.164,14.988v22.948
			c0,0.136-0.08,0.252-0.08,0.4c0,0.136,0.08,0.256,0.08,0.396v1.496v1.748v7.592c0,0.136-0.08,0.248-0.08,0.396
			c0,0.136,0.08,0.26,0.08,0.4v388.584c0,0.732,0.476,1.444,0.856,2.068l35.164,56.296c0.708,1.144,2.032,1.836,3.38,1.836
			c1.348,0,2.64-0.692,3.348-1.836l34.884-56.296c0.384-0.62,0.44-1.336,0.44-2.068V42.316v-0.008L195.13,15.316L195.13,15.316z"/>
	</g>
</g>
<g>
	<g>
		<path d="M375.534,7.468c-4.812-4.804-11.184-7.448-17.956-7.456L275.322,0c-14.012,0.008-25.536,11.4-25.536,25.392V54.98h42.112
			c4.308,0,7.808,3.5,7.808,7.804c0,4.316-3.5,7.808-7.808,7.808h-42.116V85.56l20.112,0.648h0.168c4.308,0,7.884,3.16,7.884,7.472
			c0,4.308-3.564,7.644-7.876,7.644l-20.288-0.152v15.584l20.316,0.004c4.316,0.008,7.864,3.832,7.86,8.148
			c-0.004,4.308-3.516,8.14-7.824,8.14h-0.28l-20.068-0.68v15.588l20.12,0.704h0.16c4.308,0,7.884,3.136,7.884,7.452
			c0,4.308-3.564,7.628-7.876,7.628l-20.288-0.168v16.316h20.44c4.308,0,7.808,3.5,7.808,7.804c0,4.316-3.5,7.808-7.808,7.808
			h-20.44v14.852l20.324,0.008c4.308,0,7.86,3.492,7.86,7.808c0,4.308-3.58,7.808-7.892,7.808l-20.292-0.008v16.376h42.112
			c4.316,0,7.808,3.492,7.808,7.808c0,4.308-3.492,7.808-7.808,7.808h-42.116v14.788l20.324,0.016c4.316,0,7.86,3.9,7.856,8.208
			c-0.004,4.316-3.52,8.216-7.828,8.216h-0.28l-20.068-0.82v16.436h20.432c4.316,0,7.808,3.492,7.808,7.804
			c0,4.308-3.492,7.808-7.808,7.808h-20.432v15.616h20.432c4.316,0,7.808,3.488,7.808,7.804c0,4.308-3.492,7.808-7.808,7.808
			h-20.432v14.716l20.324,0.008c4.316,0.008,7.864,3.944,7.86,8.26c-0.004,4.308-3.516,8.248-7.824,8.248h-0.288l-20.072-0.904
			v15.592l20.324,0.008c4.316,0,7.864,3.492,7.864,7.808c0,4.304-3.58,7.804-7.892,7.804l-20.296-0.008v15.592l42-0.008
			c4.316,0,7.864,3.5,7.864,7.808c0,4.312-3.58,7.804-7.892,7.804l-41.972,0.008v29.516c0,6.76,2.764,13.128,7.58,17.936
			c4.812,4.804,11.244,7.788,18.012,7.788l82.124,0.356h0.048c14.012,0,25.432-11.748,25.432-25.736l0.016-448.832
			C382.998,18.644,380.346,12.272,375.534,7.468z"/>
	</g>
</g>
<g>
</g>
<g>
</g>
<g>
</g>
<g>
</g>
<g>
</g>
<g>
</g>
<g>
</g>
<g>
</g>
<g>
</g>
<g>
</g>
<g>
</g>
<g>
</g>
<g>
</g>
<g>
</g>
<g>
</g>
</svg>
