<?xml version="1.0" encoding="iso-8859-1"?>
<!-- Generator: Adobe Illustrator 19.0.0, SVG Export Plug-In . SVG Version: 6.00 Build 0)  -->
<svg version="1.1" id="Layer_1" xmlns="http://www.w3.org/2000/svg" xmlns:xlink="http://www.w3.org/1999/xlink" x="0px" y="0px"
	 viewBox="0 0 512 512" style="enable-background:new 0 0 512 512;" xml:space="preserve">
<path style="fill:#3D6DEB;" d="M364.606,46.545c12.853,0,23.273-10.42,23.273-23.273S377.459,0,364.606,0H147.394
	c-12.853,0-23.273,10.42-23.273,23.273s10.42,23.273,23.273,23.273h85.333v146.136l-77.177,25.726
	c-12.193,4.065-18.783,17.245-14.719,29.438c3.252,9.753,12.33,15.919,22.077,15.919c2.439,0,4.921-0.386,7.362-1.199l62.458-20.82
	v44.026l-77.177,25.726c-12.193,4.065-18.783,17.245-14.719,29.438c3.252,9.753,12.33,15.919,22.077,15.919
	c2.439,0,4.921-0.386,7.362-1.199l62.458-20.82v153.893C232.727,501.58,243.147,512,256,512c12.853,0,23.273-10.42,23.273-23.273
	V319.319l77.177-25.726c12.193-4.065,18.783-17.245,14.719-29.438c-4.067-12.193-17.247-18.784-29.438-14.719l-62.458,20.82V226.23
	l77.177-25.726c12.193-4.065,18.783-17.245,14.719-29.438c-4.067-12.193-17.247-18.783-29.438-14.719l-62.458,20.82V46.545H364.606z
	"/>
<g>
</g>
<g>
</g>
<g>
</g>
<g>
</g>
<g>
</g>
<g>
</g>
<g>
</g>
<g>
</g>
<g>
</g>
<g>
</g>
<g>
</g>
<g>
</g>
<g>
</g>
<g>
</g>
<g>
</g>
</svg>
