<?xml version="1.0" encoding="iso-8859-1"?>
<!-- Generator: Adobe Illustrator 19.0.0, SVG Export Plug-In . SVG Version: 6.00 Build 0)  -->
<svg version="1.1" id="Layer_1" xmlns="http://www.w3.org/2000/svg" xmlns:xlink="http://www.w3.org/1999/xlink" x="0px" y="0px"
	 viewBox="0 0 512 512" style="enable-background:new 0 0 512 512;" xml:space="preserve">
<polygon style="fill:#5D5F72;" points="141.2,176.6 141.2,203 61.8,203 61.8,176.6 0,176.6 0,503.2 512,503.2 512,176.6 "/>
<polygon style="fill:#363644;" points="185.4,291.3 317.8,291.3 317.8,176.6 185.4,176.6 "/>
<path style="fill:#FFFFFF;" d="M282.5,233.9c0,17.1-13.8,30.9-30.9,30.9s-30.9-13.8-30.9-30.9s13.8-30.9,30.9-30.9
	S282.5,216.9,282.5,233.9"/>
<polygon style="fill:#414251;" points="0,503.2 512,503.2 512,291.3 0,291.3 "/>
<g>
	<polygon style="fill:#5D5F72;" points="379.6,432.6 423.7,432.6 423.7,379.6 379.6,379.6 	"/>
	<path style="fill:#5D5F72;" d="M459,397.2h-8.8c-4.9,0-8.8-4-8.8-8.8c0-4.9,3.9-8.8,8.8-8.8h8.8c4.9,0,8.8,4,8.8,8.8
		C467.9,393.3,463.9,397.2,459,397.2"/>
	<path style="fill:#5D5F72;" d="M467.9,441.4h-17.7c-4.9,0-8.8-4-8.8-8.8s3.9-8.8,8.8-8.8h17.7c4.9,0,8.8,4,8.8,8.8
		S472.7,441.4,467.9,441.4"/>
</g>
<path style="fill:#434C6D;" d="M335.4,397.2c0,43.9-35.6,79.4-79.4,79.4s-79.4-35.6-79.4-79.4s35.6-79.4,79.4-79.4
	S335.4,353.4,335.4,397.2"/>
<path style="fill:#7383BF;" d="M256,483.7c-47.7,0-86.4-38.8-86.4-86.4s38.8-86.4,86.4-86.4c47.7,0,86.4,38.8,86.4,86.4
	S303.7,483.7,256,483.7z M256,324.8c-39.9,0-72.4,32.5-72.4,72.4s32.5,72.4,72.4,72.4s72.4-32.5,72.4-72.4S295.9,324.8,256,324.8z"
	/>
<polygon style="fill:#5D5F72;" points="53,406.1 123.6,406.1 123.6,370.8 53,370.8 "/>
<polygon style="fill:#ECBA16;" points="26.5,264.8 158.9,264.8 158.9,203 26.5,203 "/>
<g>
	<polygon style="fill:#FFFFFF;" points="344.3,264.8 485.5,264.8 485.5,203 344.3,203 	"/>
	<polygon style="fill:#FFFFFF;" points="44.1,229.5 61.8,229.5 61.8,220.7 44.1,220.7 	"/>
	<polygon style="fill:#FFFFFF;" points="44.1,247.2 61.8,247.2 61.8,238.3 44.1,238.3 	"/>
	<polygon style="fill:#FFFFFF;" points="70.6,229.5 88.3,229.5 88.3,220.7 70.6,220.7 	"/>
	<polygon style="fill:#FFFFFF;" points="70.6,247.2 88.3,247.2 88.3,238.3 70.6,238.3 	"/>
	<polygon style="fill:#FFFFFF;" points="97.1,229.5 114.8,229.5 114.8,220.7 97.1,220.7 	"/>
	<polygon style="fill:#FFFFFF;" points="97.1,247.2 114.8,247.2 114.8,238.3 97.1,238.3 	"/>
	<polygon style="fill:#FFFFFF;" points="123.6,229.5 141.2,229.5 141.2,220.7 123.6,220.7 	"/>
	<polygon style="fill:#FFFFFF;" points="123.6,247.2 141.2,247.2 141.2,238.3 123.6,238.3 	"/>
</g>
<g>
	<path style="fill:#B0B6BB;" d="M459,238.3h-88.3c-4.9,0-8.8-4-8.8-8.8c0-4.9,3.9-8.8,8.8-8.8H459c4.9,0,8.8,4,8.8,8.8
		C467.9,234.4,463.9,238.3,459,238.3"/>
	<path style="fill:#B0B6BB;" d="M114.8,185.4H88.3c-4.9,0-8.8-4-8.8-8.8s3.9-8.8,8.8-8.8h26.5c4.9,0,8.8,4,8.8,8.8
		S119.6,185.4,114.8,185.4"/>
</g>
<path style="fill:#363644;" d="M317.8,75c0,36.6-29.6,66.2-66.2,66.2s-66.2-29.6-66.2-66.2S215,8.8,251.6,8.8S317.8,38.5,317.8,75"
	/>
<path style="fill:#5D5F72;" d="M251.6,141.2c-11.2,0-21.7-2.8-30.9-7.7v43h61.8v-43C273.3,138.5,262.8,141.2,251.6,141.2"/>
<path style="fill:#ECBA16;" d="M265.7,105.9h-28.1c-9.3,0-16.8-7.5-16.8-16.8V61c0-9.3,7.5-16.8,16.8-16.8h28.1
	c9.3,0,16.8,7.5,16.8,16.8v28.1C282.5,98.4,275,105.9,265.7,105.9"/>
<path style="fill:#FFFFFF;" d="M300.1,397.2c0,24.4-19.8,44.1-44.1,44.1s-44.1-19.8-44.1-44.1c0-24.4,19.8-44.1,44.1-44.1
	S300.1,372.9,300.1,397.2"/>
<polygon style="fill:#363644;" points="379.6,414.9 423.7,414.9 423.7,397.2 379.6,397.2 "/>
<g>
</g>
<g>
</g>
<g>
</g>
<g>
</g>
<g>
</g>
<g>
</g>
<g>
</g>
<g>
</g>
<g>
</g>
<g>
</g>
<g>
</g>
<g>
</g>
<g>
</g>
<g>
</g>
<g>
</g>
</svg>
