<?xml version="1.0" encoding="iso-8859-1"?>
<!-- Generator: Adobe Illustrator 19.0.0, SVG Export Plug-In . SVG Version: 6.00 Build 0)  -->
<svg version="1.1" id="Layer_1" xmlns="http://www.w3.org/2000/svg" xmlns:xlink="http://www.w3.org/1999/xlink" x="0px" y="0px"
	 viewBox="0 0 512 512" style="enable-background:new 0 0 512 512;" xml:space="preserve">
<g>
	<path style="fill:#546A79;" d="M512,256c0,141.383-114.617,256-256,256S0,397.383,0,256S114.617,0,256,0S512,114.617,512,256"/>
	<path style="fill:#50508A;" d="M441.379,256c0,102.382-82.997,185.379-185.379,185.379S70.621,358.382,70.621,256
		S153.618,70.621,256,70.621S441.379,153.618,441.379,256"/>
	<path style="fill:#283238;" d="M256,88.276c-92.487,0-167.724,75.238-167.724,167.724S163.513,423.724,256,423.724
		S423.724,348.487,423.724,256S348.487,88.276,256,88.276 M256,459.034C144.049,459.034,52.966,367.96,52.966,256
		S144.049,52.966,256,52.966S459.034,144.04,459.034,256S367.951,459.034,256,459.034"/>
	<path style="fill:#FFFFFF;" d="M370.759,326.621H141.241c-9.754,0-17.655-7.901-17.655-17.655V203.034
		c0-9.754,7.901-17.655,17.655-17.655h229.517c9.754,0,17.655,7.901,17.655,17.655v105.931
		C388.414,318.72,380.513,326.621,370.759,326.621"/>
	<g>
		<path style="fill:#434C6D;" d="M150.069,220.69c0-4.873,3.955-8.828,8.828-8.828c4.873,0,8.828,3.955,8.828,8.828
			c0,4.873-3.955,8.828-8.828,8.828C154.024,229.517,150.069,225.562,150.069,220.69"/>
		<path style="fill:#434C6D;" d="M194.207,291.31c-2.26,0-4.52-0.865-6.241-2.586c-3.452-3.452-3.452-9.031,0-12.482l26.483-26.483
			c3.452-3.452,9.031-3.452,12.482,0c3.452,3.452,3.452,9.031,0,12.482l-26.483,26.483
			C198.727,290.445,196.467,291.31,194.207,291.31"/>
		<path style="fill:#434C6D;" d="M158.897,282.483c-2.26,0-4.52-0.865-6.241-2.586c-3.452-3.452-3.452-9.031,0-12.482l52.966-52.966
			c3.452-3.452,9.031-3.452,12.482,0c3.452,3.452,3.452,9.031,0,12.482l-52.966,52.965
			C163.416,281.618,161.156,282.483,158.897,282.483"/>
	</g>
	<g>
		<path style="fill:#283238;" d="M256,0c-2.957,0-5.888,0.124-8.828,0.221v26.262c0,4.882,3.955,8.828,8.828,8.828
			s8.828-3.946,8.828-8.828V0.221C261.888,0.124,258.957,0,256,0"/>
		<path style="fill:#283238;" d="M430.629,68.888l-18.573,18.573c-3.452,3.452-3.452,9.039,0,12.491
			c1.721,1.721,3.981,2.586,6.241,2.586c2.251,0,4.511-0.865,6.241-2.586l18.573-18.582
			C439.095,77.071,434.928,72.904,430.629,68.888"/>
		<path style="fill:#283238;" d="M511.777,247.172h-26.262c-4.873,0-8.828,3.946-8.828,8.828s3.955,8.828,8.828,8.828h26.262
			c0.097-2.94,0.221-5.87,0.221-8.828C511.997,253.043,511.874,250.112,511.777,247.172"/>
		<path style="fill:#283238;" d="M443.112,430.629l-18.573-18.573c-3.452-3.452-9.039-3.452-12.491,0
			c-3.443,3.443-3.443,9.031,0,12.482l18.582,18.573C434.929,439.095,439.096,434.937,443.112,430.629"/>
		<path style="fill:#283238;" d="M256,476.69c-4.873,0-8.828,3.946-8.828,8.828v26.262c2.94,0.097,5.87,0.221,8.828,0.221
			c2.957,0,5.888-0.124,8.828-0.221v-26.262C264.828,480.636,260.873,476.69,256,476.69"/>
		<path style="fill:#283238;" d="M87.465,412.051l-18.573,18.573c4.017,4.308,8.174,8.466,12.482,12.491l18.573-18.582
			c3.452-3.452,3.452-9.031,0-12.482S90.917,408.6,87.465,412.051"/>
		<path style="fill:#283238;" d="M0.223,264.828h26.262c4.873,0,8.828-3.946,8.828-8.828s-3.955-8.828-8.828-8.828H0.223
			c-0.097,2.94-0.221,5.87-0.221,8.828C0.003,258.957,0.126,261.888,0.223,264.828"/>
		<path style="fill:#283238;" d="M68.888,81.371l18.573,18.573c1.73,1.73,3.99,2.586,6.25,2.586c2.251,0,4.511-0.856,6.241-2.586
			c3.443-3.443,3.443-9.031,0-12.482L81.37,68.889C77.071,72.905,72.904,77.063,68.888,81.371"/>
	</g>
</g>
<g>
</g>
<g>
</g>
<g>
</g>
<g>
</g>
<g>
</g>
<g>
</g>
<g>
</g>
<g>
</g>
<g>
</g>
<g>
</g>
<g>
</g>
<g>
</g>
<g>
</g>
<g>
</g>
<g>
</g>
</svg>
