<?xml version="1.0" encoding="iso-8859-1"?>
<!-- Generator: Adobe Illustrator 19.0.0, SVG Export Plug-In . SVG Version: 6.00 Build 0)  -->
<svg version="1.1" id="Layer_1" xmlns="http://www.w3.org/2000/svg" xmlns:xlink="http://www.w3.org/1999/xlink" x="0px" y="0px"
	 viewBox="0 0 512.001 512.001" style="enable-background:new 0 0 512.001 512.001;" xml:space="preserve">
<path style="fill:#CCCCCC;" d="M487.427,456.762h-17.728V40.865c0-7.939-6.436-14.375-14.375-14.375
	c-7.615,0-13.831,5.927-14.326,13.416H270.326C269.83,32.417,263.615,26.49,256,26.49c-7.615,0-13.831,5.927-14.326,13.416H71.002
	c-0.496-7.489-6.711-13.416-14.326-13.416c-7.939,0-14.375,6.436-14.375,14.375v415.897H24.574c-7.939,0-14.375,6.436-14.375,14.375
	s6.436,14.375,14.375,14.375h64.205c7.939,0,14.375-6.436,14.375-14.375s-6.436-14.375-14.375-14.375H71.051v-35.457h170.576v35.457
	h-17.728c-7.939,0-14.375,6.436-14.375,14.375s6.436,14.375,14.375,14.375h64.205c7.939,0,14.375-6.436,14.375-14.375
	s-6.436-14.375-14.375-14.375h-17.728V68.655H440.95v388.106h-17.728c-7.939,0-14.375,6.436-14.375,14.375
	s6.436,14.375,14.375,14.375h64.205c7.939,0,14.375-6.436,14.375-14.375S495.365,456.762,487.427,456.762z M71.051,217.677v-61.293
	h170.576v61.293L71.051,217.677L71.051,217.677z M71.051,244.493h170.576v61.293H71.051V244.493z M241.626,129.568H71.051V68.275
	h170.576L241.626,129.568L241.626,129.568z M71.051,393.896v-61.293h170.576v61.293H71.051z"/>
<path style="fill:#603813;" d="M487.427,495.709h-64.206c-13.55,0-24.573-11.024-24.573-24.574c0-13.55,11.023-24.574,24.573-24.574
	h7.529V78.854H280.574v367.709h7.529c13.55,0,24.574,11.024,24.574,24.574s-11.024,24.574-24.574,24.574h-64.205
	c-13.55,0-24.574-11.024-24.574-24.574s11.024-24.574,24.574-24.574h7.529v-15.058H81.25v15.058h7.529
	c13.55,0,24.574,11.024,24.574,24.574s-11.024,24.574-24.574,24.574H24.574C11.024,495.709,0,484.686,0,471.136
	s11.024-24.574,24.574-24.574h7.529V40.865c0-13.55,11.024-24.574,24.574-24.574c9.465,0,17.783,5.434,21.872,13.416h155.58
	c4.089-7.982,12.407-13.416,21.872-13.416c9.465,0,17.784,5.434,21.872,13.416h155.58c4.089-7.982,12.407-13.416,21.872-13.416
	c13.55,0,24.574,11.024,24.574,24.574v405.698h7.529c13.55,0,24.573,11.024,24.573,24.574S500.977,495.709,487.427,495.709z
	 M423.221,466.961c-2.302,0-4.175,1.874-4.175,4.176s1.873,4.176,4.175,4.176h64.206c2.302,0,4.174-1.874,4.174-4.176
	s-1.873-4.176-4.174-4.176h-17.728c-5.633,0-10.199-4.567-10.199-10.199V40.865c0-2.302-1.873-4.176-4.176-4.176
	c-2.183,0-4.004,1.708-4.149,3.889c-0.354,5.361-4.805,9.527-10.177,9.527H270.326c-5.372,0-9.822-4.166-10.177-9.526
	c-0.145-2.182-1.967-3.89-4.149-3.89c-2.182,0-4.004,1.708-4.149,3.889c-0.354,5.361-4.805,9.527-10.177,9.527H71.002
	c-5.372,0-9.823-4.166-10.177-9.527c-0.145-2.182-1.966-3.889-4.149-3.889c-2.302,0-4.176,1.874-4.176,4.176v415.897
	c0,5.632-4.566,10.199-10.199,10.199H24.574c-2.302,0-4.176,1.874-4.176,4.176s1.873,4.176,4.176,4.176h64.205
	c2.302,0,4.176-1.874,4.176-4.176s-1.873-4.176-4.176-4.176H71.051c-5.633,0-10.199-4.567-10.199-10.199v-35.457
	c0-5.632,4.566-10.199,10.199-10.199h170.576c5.633,0,10.199,4.567,10.199,10.199v35.457c0,5.632-4.566,10.199-10.199,10.199
	h-17.728c-2.302,0-4.176,1.874-4.176,4.176s1.873,4.176,4.176,4.176h64.205c2.302,0,4.176-1.874,4.176-4.176
	s-1.873-4.176-4.176-4.176h-17.728c-5.633,0-10.199-4.567-10.199-10.199V68.654c0-5.632,4.566-10.199,10.199-10.199H440.95
	c5.633,0,10.199,4.567,10.199,10.199v388.107c0,5.632-4.566,10.199-10.199,10.199H423.221z M241.626,404.095H71.051
	c-5.633,0-10.199-4.567-10.199-10.199v-61.294c0-5.632,4.566-10.199,10.199-10.199h170.576c5.633,0,10.199,4.567,10.199,10.199
	v61.294C251.825,399.529,247.259,404.095,241.626,404.095z M81.25,383.697h150.177v-40.896H81.25V383.697z M241.626,315.985H71.051
	c-5.633,0-10.199-4.567-10.199-10.199v-61.294c0-5.632,4.566-10.199,10.199-10.199h170.576c5.633,0,10.199,4.567,10.199,10.199
	v61.294C251.825,311.419,247.259,315.985,241.626,315.985z M81.25,295.587h150.177v-40.896H81.25V295.587z M241.626,227.876H71.051
	c-5.633,0-10.199-4.567-10.199-10.199v-61.293c0-5.632,4.566-10.199,10.199-10.199h170.576c5.633,0,10.199,4.567,10.199,10.199
	v61.293C251.825,223.309,247.259,227.876,241.626,227.876z M81.25,207.478h150.177v-40.895H81.25V207.478z M241.626,139.767H71.051
	c-5.633,0-10.199-4.567-10.199-10.199V68.274c0-5.632,4.566-10.199,10.199-10.199h170.576c5.633,0,10.199,4.567,10.199,10.199
	v61.294C251.825,135.201,247.259,139.767,241.626,139.767z M81.25,119.369h150.177V78.473H81.25V119.369z"/>
<g>
</g>
<g>
</g>
<g>
</g>
<g>
</g>
<g>
</g>
<g>
</g>
<g>
</g>
<g>
</g>
<g>
</g>
<g>
</g>
<g>
</g>
<g>
</g>
<g>
</g>
<g>
</g>
<g>
</g>
</svg>
