<?xml version="1.0" encoding="iso-8859-1"?>
<!-- Generator: Adobe Illustrator 19.0.0, SVG Export Plug-In . SVG Version: 6.00 Build 0)  -->
<svg version="1.1" id="Layer_1" xmlns="http://www.w3.org/2000/svg" xmlns:xlink="http://www.w3.org/1999/xlink" x="0px" y="0px"
	 viewBox="0 0 512 512" style="enable-background:new 0 0 512 512;" xml:space="preserve">
<g>
	<g>
		<path style="fill:#546A79;" d="M299.39,86.78h-86.78V8.678c0-4.799,3.879-8.678,8.678-8.678h69.424
			c4.799,0,8.678,3.879,8.678,8.678V86.78z"/>
		<path style="fill:#546A79;" d="M282.034,399.186h-52.068c-4.799,0-8.678-3.879-8.678-8.678v-60.746h69.424v60.746
			C290.712,395.307,286.833,399.186,282.034,399.186"/>
	</g>
	<g>
		<polygon style="fill:#38454F;" points="238.644,503.326 273.356,503.326 273.356,399.19 238.644,399.19 		"/>
		<path style="fill:#38454F;" d="M299.39,373.153h-86.78c-4.799,0-8.678-3.879-8.678-8.678c0-4.799,3.879-8.678,8.678-8.678h86.78
			c4.799,0,8.678,3.879,8.678,8.678C308.068,369.273,304.189,373.153,299.39,373.153"/>
		<path style="fill:#38454F;" d="M177.898,86.78v173.559c0,35.25,26.581,69.424,43.39,69.424h69.424
			c16.818,0,43.39-33.896,43.39-69.424V86.78H177.898z"/>
	</g>
	<g>
		<path style="fill:#546A79;" d="M299.39,216.949h-86.78c-4.799,0-8.678-3.879-8.678-8.678c0-4.799,3.879-8.678,8.678-8.678h86.78
			c4.799,0,8.678,3.879,8.678,8.678C308.068,213.07,304.189,216.949,299.39,216.949"/>
		<path style="fill:#546A79;" d="M299.39,251.661h-86.78c-4.799,0-8.678-3.879-8.678-8.678s3.879-8.678,8.678-8.678h86.78
			c4.799,0,8.678,3.879,8.678,8.678S304.189,251.661,299.39,251.661"/>
		<path style="fill:#546A79;" d="M299.39,286.373h-86.78c-4.799,0-8.678-3.879-8.678-8.678c0-4.799,3.879-8.678,8.678-8.678h86.78
			c4.799,0,8.678,3.879,8.678,8.678C308.068,282.494,304.189,286.373,299.39,286.373"/>
	</g>
	<path style="fill:#38454F;" d="M394.847,512H117.153c-4.799,0-8.678-3.879-8.678-8.678c0-4.799,3.879-8.678,8.678-8.678h277.695
		c4.799,0,8.678,3.879,8.678,8.678C403.525,508.121,399.646,512,394.847,512"/>
</g>
<g>
</g>
<g>
</g>
<g>
</g>
<g>
</g>
<g>
</g>
<g>
</g>
<g>
</g>
<g>
</g>
<g>
</g>
<g>
</g>
<g>
</g>
<g>
</g>
<g>
</g>
<g>
</g>
<g>
</g>
</svg>
