<?xml version="1.0" encoding="iso-8859-1"?>
<!-- Generator: Adobe Illustrator 19.0.0, SVG Export Plug-In . SVG Version: 6.00 Build 0)  -->
<svg version="1.1" id="Layer_1" xmlns="http://www.w3.org/2000/svg" xmlns:xlink="http://www.w3.org/1999/xlink" x="0px" y="0px"
	 viewBox="0 0 503.435 503.435" style="enable-background:new 0 0 503.435 503.435;" xml:space="preserve">
<g>
	<path style="fill:#38454F;" d="M190.972,407.864v-34.712H156.26v34.712v0.113c0,52.632,42.826,95.458,95.458,95.458l104.136-0.113
		c52.632,0,95.458-42.826,95.458-95.458V0h-34.712v407.864c0,33.488-27.257,60.746-60.746,60.746l-104.136,0.113
		c-33.497,0-60.746-27.249-60.746-60.746V407.864z"/>
	<path style="fill:#546A79;" d="M199.675,381.831h-52.068c-4.799,0-8.678-3.879-8.678-8.678v-43.39h69.424v43.39
		C208.353,377.951,204.465,381.831,199.675,381.831"/>
	<path style="fill:#DBB780;" d="M251.717,104.136H95.514V8.661c0-4.782,3.879-8.661,8.661-8.661h138.882
		c4.782,0,8.661,3.879,8.661,8.661V104.136z"/>
	<g>
		<path style="fill:#F4E197;" d="M190.997,34.712h-34.712c-4.799,0-8.678-3.879-8.678-8.678s3.879-8.678,8.678-8.678h34.712
			c4.799,0,8.678,3.879,8.678,8.678S195.796,34.712,190.997,34.712"/>
		<path style="fill:#F4E197;" d="M190.997,60.746h-34.712c-4.799,0-8.678-3.879-8.678-8.678s3.879-8.678,8.678-8.678h34.712
			c4.799,0,8.678,3.879,8.678,8.678S195.796,60.746,190.997,60.746"/>
		<path style="fill:#F4E197;" d="M156.285,60.746c-4.799,0-8.678-3.879-8.678-8.678V26.034c0-4.799,3.879-8.678,8.678-8.678
			c4.799,0,8.678,3.879,8.678,8.678v26.034C164.963,56.867,161.084,60.746,156.285,60.746"/>
		<path style="fill:#F4E197;" d="M190.997,86.78c-4.799,0-8.678-3.879-8.678-8.678V52.068c0-4.799,3.879-8.678,8.678-8.678
			c4.799,0,8.678,3.879,8.678,8.678v26.034C199.675,82.901,195.796,86.78,190.997,86.78"/>
		<path style="fill:#F4E197;" d="M190.997,86.78h-34.712c-4.799,0-8.678-3.879-8.678-8.678c0-4.799,3.879-8.678,8.678-8.678h34.712
			c4.799,0,8.678,3.879,8.678,8.678C199.675,82.901,195.796,86.78,190.997,86.78"/>
		<path style="fill:#F4E197;" d="M156.285,112.814c-4.799,0-8.678-3.879-8.678-8.678V78.102c0-4.799,3.879-8.678,8.678-8.678
			c4.799,0,8.678,3.879,8.678,8.678v26.034C164.963,108.935,161.084,112.814,156.285,112.814"/>
	</g>
	<path style="fill:#38454F;" d="M52.124,127.432v112.232c0,16.592,13.598,30.034,30.373,30.034s30.373,13.442,30.373,30.026v14.891
		c0,8.366,6.856,15.143,15.317,15.143h90.858c8.461,0,15.317-6.777,15.317-15.143v-14.891c0-16.584,13.598-30.026,30.373-30.026
		s30.373-13.442,30.373-30.034V127.432c0-12.861-10.544-23.3-23.561-23.3H75.685C62.668,104.132,52.124,114.572,52.124,127.432"/>
	<path style="fill:#F4E197;" d="M190.997,34.712c4.799,0,8.678-3.879,8.678-8.678V0h-17.356v26.034
		C182.319,30.833,186.198,34.712,190.997,34.712"/>
</g>
<g>
</g>
<g>
</g>
<g>
</g>
<g>
</g>
<g>
</g>
<g>
</g>
<g>
</g>
<g>
</g>
<g>
</g>
<g>
</g>
<g>
</g>
<g>
</g>
<g>
</g>
<g>
</g>
<g>
</g>
</svg>
