<?xml version="1.0" encoding="iso-8859-1"?>
<!-- Generator: Adobe Illustrator 19.0.0, SVG Export Plug-In . SVG Version: 6.00 Build 0)  -->
<svg version="1.1" id="Layer_1" xmlns="http://www.w3.org/2000/svg" xmlns:xlink="http://www.w3.org/1999/xlink" x="0px" y="0px"
	 viewBox="0 0 512 512" style="enable-background:new 0 0 512 512;" xml:space="preserve">
<g transform="translate(-1)">
	<path style="fill:#546A79;" d="M283.496,512H230.53c-4.882,0-8.828-3.946-8.828-8.828v-44.138h70.621v44.138
		C292.323,508.054,288.377,512,283.496,512"/>
	<path style="fill:#DBB780;" d="M336.435,247.172H177.539v-97.121c0-4.864,3.946-8.81,8.81-8.81h141.277
		c4.873,0,8.81,3.946,8.81,8.81V247.172z"/>
	<g>
		<path style="fill:#F4E197;" d="M274.668,176.552h-35.31c-4.882,0-8.828-3.946-8.828-8.828c0-4.882,3.946-8.828,8.828-8.828h35.31
			c4.882,0,8.828,3.946,8.828,8.828C283.496,172.606,279.55,176.552,274.668,176.552"/>
		<path style="fill:#F4E197;" d="M274.668,203.034h-35.31c-4.882,0-8.828-3.946-8.828-8.828c0-4.882,3.946-8.828,8.828-8.828h35.31
			c4.882,0,8.828,3.946,8.828,8.828C283.496,199.089,279.55,203.034,274.668,203.034"/>
		<path style="fill:#F4E197;" d="M239.358,203.034c-4.882,0-8.828-3.946-8.828-8.828v-26.483c0-4.882,3.946-8.828,8.828-8.828
			c4.882,0,8.828,3.946,8.828,8.828v26.483C248.185,199.089,244.239,203.034,239.358,203.034"/>
		<path style="fill:#F4E197;" d="M274.668,229.517c-4.882,0-8.828-3.946-8.828-8.828v-26.483c0-4.882,3.946-8.828,8.828-8.828
			s8.828,3.946,8.828,8.828v26.483C283.496,225.571,279.55,229.517,274.668,229.517"/>
		<path style="fill:#F4E197;" d="M274.668,229.517h-35.31c-4.882,0-8.828-3.946-8.828-8.828c0-4.882,3.946-8.828,8.828-8.828h35.31
			c4.882,0,8.828,3.946,8.828,8.828C283.496,225.571,279.55,229.517,274.668,229.517"/>
		<path style="fill:#F4E197;" d="M239.358,255.888c-4.882,0-8.828-3.946-8.828-8.828v-26.368c0-4.882,3.946-8.828,8.828-8.828
			c4.882,0,8.828,3.946,8.828,8.828v26.368C248.185,251.942,244.239,255.888,239.358,255.888"/>
	</g>
	<path style="fill:#D4DBDF;" d="M362.944,105.931H151.082c-9.746,0-17.655-7.91-17.655-17.655V17.655
		C133.427,7.91,141.336,0,151.082,0h211.862c9.746,0,17.655,7.91,17.655,17.655v70.621
		C380.599,98.022,372.689,105.931,362.944,105.931"/>
	<polygon style="fill:#ECF0F1;" points="168.737,70.624 345.289,70.624 345.289,35.314 168.737,35.314 	"/>
	<g>
		<path style="fill:#BDC3C7;" d="M309.978,52.966c4.882,0,8.828-3.946,8.828-8.828V35.31h-17.655v8.828
			C301.151,49.02,305.097,52.966,309.978,52.966"/>
		<path style="fill:#BDC3C7;" d="M283.496,52.966c4.882,0,8.828-3.946,8.828-8.828V35.31h-17.655v8.828
			C274.668,49.02,278.614,52.966,283.496,52.966"/>
		<path style="fill:#BDC3C7;" d="M257.013,52.966c4.882,0,8.828-3.946,8.828-8.828V35.31h-17.655v8.828
			C248.185,49.02,252.131,52.966,257.013,52.966"/>
		<path style="fill:#BDC3C7;" d="M230.53,52.966c4.882,0,8.828-3.946,8.828-8.828V35.31h-17.655v8.828
			C221.702,49.02,225.648,52.966,230.53,52.966"/>
		<path style="fill:#BDC3C7;" d="M204.047,52.966c4.882,0,8.828-3.946,8.828-8.828V35.31H195.22v8.828
			C195.22,49.02,199.166,52.966,204.047,52.966"/>
	</g>
	<path style="fill:#38454F;" d="M133.401,270.871v96.512c0,16.878,13.833,30.552,30.897,30.552
		c17.073,0,30.897,13.674,30.897,30.543v15.148c0,8.51,6.974,15.404,15.581,15.404H303.2c8.607,0,15.581-6.894,15.581-15.404
		v-15.148c0-16.87,13.833-30.543,30.897-30.543c17.073,0,30.897-13.674,30.897-30.552v-96.512c0-13.082-10.726-23.702-23.958-23.702
		H157.368C144.135,247.169,133.401,257.788,133.401,270.871"/>
	<path style="fill:#F4E197;" d="M274.668,176.552c4.882,0,8.828-3.946,8.828-8.828v-26.483H265.84v26.483
		C265.84,172.606,269.786,176.552,274.668,176.552"/>
</g>
<g>
</g>
<g>
</g>
<g>
</g>
<g>
</g>
<g>
</g>
<g>
</g>
<g>
</g>
<g>
</g>
<g>
</g>
<g>
</g>
<g>
</g>
<g>
</g>
<g>
</g>
<g>
</g>
<g>
</g>
</svg>
