<?xml version="1.0" encoding="iso-8859-1"?>
<!-- Generator: Adobe Illustrator 19.0.0, SVG Export Plug-In . SVG Version: 6.00 Build 0)  -->
<svg version="1.1" id="Layer_1" xmlns="http://www.w3.org/2000/svg" xmlns:xlink="http://www.w3.org/1999/xlink" x="0px" y="0px"
	 viewBox="0 0 512 512" style="enable-background:new 0 0 512 512;" xml:space="preserve">
<g>
	<path style="fill:#C6C9CB;" d="M282.483,512h-52.966c-4.873,0-8.828-3.946-8.828-8.828v-44.138h70.621v44.138
		C291.31,508.054,287.356,512,282.483,512"/>
	<polygon style="fill:#DFE3E6;" points="211.862,459.038 300.138,459.038 300.138,308.969 211.862,308.969 	"/>
	<polygon style="fill:#C6C9CB;" points="220.69,308.969 291.31,308.969 291.31,203.038 220.69,203.038 	"/>
	<path style="fill:#DFE3E6;" d="M291.31,150.069H220.69c13.427,15.104,13.427,37.862,0,52.966h70.621
		C277.884,187.93,277.884,165.173,291.31,150.069"/>
	<polygon style="fill:#C6C9CB;" points="238.345,123.586 273.655,123.586 291.31,150.069 220.69,150.069 	"/>
	<path style="fill:#8B8C8D;" d="M300.138,44.138C300.138,19.756,280.373,0,256,0c-24.373,0-44.138,19.756-44.138,44.138
		S231.627,88.276,256,88.276C280.373,88.276,300.138,68.52,300.138,44.138"/>
	<g>
		<path style="fill:#DFE3E6;" d="M273.655,44.138c0-9.746-7.91-17.655-17.655-17.655c-9.746,0-17.655,7.91-17.655,17.655
			s7.91,17.655,17.655,17.655C265.746,61.793,273.655,53.884,273.655,44.138"/>
		<path style="fill:#DFE3E6;" d="M291.31,247.172H220.69c-4.873,0-8.828-3.946-8.828-8.828c0-4.882,3.955-8.828,8.828-8.828h70.621
			c4.873,0,8.828,3.946,8.828,8.828C300.138,243.226,296.183,247.172,291.31,247.172"/>
	</g>
</g>
<g>
</g>
<g>
</g>
<g>
</g>
<g>
</g>
<g>
</g>
<g>
</g>
<g>
</g>
<g>
</g>
<g>
</g>
<g>
</g>
<g>
</g>
<g>
</g>
<g>
</g>
<g>
</g>
<g>
</g>
</svg>
