<?xml version="1.0" encoding="iso-8859-1"?>
<!-- Generator: Adobe Illustrator 19.0.0, SVG Export Plug-In . SVG Version: 6.00 Build 0)  -->
<svg version="1.1" id="Layer_1" xmlns="http://www.w3.org/2000/svg" xmlns:xlink="http://www.w3.org/1999/xlink" x="0px" y="0px"
	 viewBox="0 0 512 512" style="enable-background:new 0 0 512 512;" xml:space="preserve">
<g>
	<g>
		<path d="M2.247,333.052v158.596h39.797V512h15.688v-20.352h397.424V512h15.688v-20.352h38.91V333.052H2.247z M493.894,475.787
			H18.106V348.911h475.787V475.787z"/>
	</g>
</g>
<g>
	<g>
		<path d="M33.967,364.77v95.157h444.068V364.77H33.967z M462.175,444.069H49.826v-63.438h412.349V444.069z"/>
	</g>
</g>
<g>
	<g>
		<rect x="247.031" y="408.458" width="17.779" height="15.688"/>
	</g>
</g>
<g>
	<g>
		<polygon points="42.044,107.255 42.044,328.976 57.732,328.976 57.732,122.943 455.155,122.943 455.155,328.976 470.843,328.976 
			470.843,107.255 		"/>
	</g>
</g>
<g>
	<g>
		<path d="M41.896,0v79.298h24.202v19.591h15.688V79.298h190.345v19.59h15.688v-19.59h23.69V0H41.896z M295.649,63.438H57.756
			V15.859h237.894V63.438z"/>
	</g>
</g>
<g>
	<g>
		<path d="M73.615,277.542h222.033V134.806H73.615V277.542z M89.475,150.665H279.79v111.017H89.475V150.665z"/>
	</g>
</g>
<g>
	<g>
		<rect x="73.419" y="297.597" width="31.376" height="15.688"/>
	</g>
</g>
<g>
	<g>
		<rect x="120.483" y="297.597" width="32.421" height="15.688"/>
	</g>
</g>
<g>
	<g>
		<rect x="168.592" y="297.597" width="31.376" height="15.688"/>
	</g>
</g>
<g>
	<g>
		<rect x="215.655" y="297.597" width="31.376" height="15.688"/>
	</g>
</g>
<g>
	<g>
		<rect x="264.81" y="297.597" width="31.376" height="15.688"/>
	</g>
</g>
<g>
	<g>
		<path d="M311.509,134.806v63.438h126.876v-63.438H311.509z M422.526,182.385h-95.158v-31.72h95.158V182.385z"/>
	</g>
</g>
<g>
	<g>
		<rect x="327.561" y="225.433" width="15.688" height="15.688"/>
	</g>
</g>
<g>
	<g>
		<rect x="359.983" y="225.433" width="15.688" height="15.688"/>
	</g>
</g>
<g>
	<g>
		<rect x="391.358" y="225.433" width="15.688" height="15.688"/>
	</g>
</g>
<g>
	<g>
		<rect x="422.734" y="225.433" width="15.688" height="15.688"/>
	</g>
</g>
<g>
	<g>
		<rect x="327.561" y="249.488" width="15.688" height="15.688"/>
	</g>
</g>
<g>
	<g>
		<rect x="359.983" y="249.488" width="15.688" height="15.688"/>
	</g>
</g>
<g>
	<g>
		<rect x="391.358" y="249.488" width="15.688" height="15.688"/>
	</g>
</g>
<g>
	<g>
		<rect x="422.734" y="249.488" width="15.688" height="15.688"/>
	</g>
</g>
<g>
	<g>
		<rect x="327.561" y="273.543" width="15.688" height="15.688"/>
	</g>
</g>
<g>
	<g>
		<rect x="359.983" y="273.543" width="15.688" height="15.688"/>
	</g>
</g>
<g>
	<g>
		<rect x="391.358" y="273.543" width="15.688" height="15.688"/>
	</g>
</g>
<g>
	<g>
		<rect x="422.734" y="273.543" width="15.688" height="15.688"/>
	</g>
</g>
<g>
	<g>
		<rect x="327.561" y="297.597" width="15.688" height="15.688"/>
	</g>
</g>
<g>
	<g>
		<rect x="359.983" y="297.597" width="15.688" height="15.688"/>
	</g>
</g>
<g>
	<g>
		<rect x="391.358" y="297.597" width="15.688" height="15.688"/>
	</g>
</g>
<g>
	<g>
		<rect x="422.734" y="297.597" width="15.688" height="15.688"/>
	</g>
</g>
<g>
	<g>
		<rect x="343.249" y="159.545" width="63.797" height="15.688"/>
	</g>
</g>
<g>
	<g>
		<rect x="184.28" y="162.682" width="15.688" height="15.688"/>
	</g>
</g>
<g>
	<g>
		<rect x="215.655" y="162.682" width="15.688" height="15.688"/>
	</g>
</g>
<g>
	<g>
		<rect x="247.031" y="162.682" width="17.779" height="15.688"/>
	</g>
</g>
<g>
	<g>
		
			<rect x="109.151" y="204.189" transform="matrix(0.7071 -0.7071 0.7071 0.7071 -113.9134 149.2211)" width="28.036" height="15.855"/>
	</g>
</g>
<g>
	<g>
		
			<rect x="119.267" y="214.105" transform="matrix(0.7071 -0.7071 0.7071 0.7071 -112.2135 173.1569)" width="67.289" height="15.855"/>
	</g>
</g>
<g>
	<g>
		
			<rect x="180.531" y="204.198" transform="matrix(0.7071 -0.7071 0.7071 0.7071 -93.0136 199.6965)" width="28.036" height="15.855"/>
	</g>
</g>
<g>
	<g>
		
			<rect x="190.634" y="214.107" transform="matrix(0.7071 -0.7071 0.7071 0.7071 -91.3126 223.621)" width="67.289" height="15.855"/>
	</g>
</g>
<g>
	<g>
		<rect x="73.419" y="31.954" width="119.227" height="15.688"/>
	</g>
</g>
<g>
	<g>
		<rect x="208.334" y="31.954" width="72.164" height="15.688"/>
	</g>
</g>
<g>
</g>
<g>
</g>
<g>
</g>
<g>
</g>
<g>
</g>
<g>
</g>
<g>
</g>
<g>
</g>
<g>
</g>
<g>
</g>
<g>
</g>
<g>
</g>
<g>
</g>
<g>
</g>
<g>
</g>
</svg>
