<?xml version="1.0" encoding="iso-8859-1"?>
<!-- Generator: Adobe Illustrator 19.0.0, SVG Export Plug-In . SVG Version: 6.00 Build 0)  -->
<svg version="1.1" id="Layer_1" xmlns="http://www.w3.org/2000/svg" xmlns:xlink="http://www.w3.org/1999/xlink" x="0px" y="0px"
	 viewBox="0 0 511.999 511.999" style="enable-background:new 0 0 511.999 511.999;" xml:space="preserve">
<g>
	<g>
		<path d="M255.998,266.821c-27.953,0-50.696,22.743-50.696,50.696c0,27.953,22.743,50.696,50.696,50.696
			c27.953,0,50.696-22.743,50.696-50.696C306.694,289.563,283.953,266.821,255.998,266.821z M255.998,352.203
			c-19.126,0-34.687-15.561-34.687-34.687c0-19.126,15.561-34.687,34.687-34.687c19.126,0,34.687,15.561,34.687,34.687
			C290.685,336.642,275.125,352.203,255.998,352.203z"/>
	</g>
</g>
<g>
	<g>
		<path d="M461.081,417.065c-0.446-4.509-2.865-8.536-6.634-11.049l-83.397-55.599c-3.174-2.116-7.403-1.698-10.1,1l-8.518,8.518
			l-16.062-16.062c-0.482-0.482-1.015-0.881-1.575-1.215c1.034-3.232,1.862-6.552,2.495-9.942c0.144-0.209,0.291-0.416,0.417-0.643
			l51.976-93.556c37.838-7.584,66.433-41.06,66.433-81.096c0-35.472-22.448-65.792-53.882-77.521
			c-0.24-0.639-0.557-1.26-0.973-1.842l-18.63-26.078C359.034,18.946,324.223,0,287.122,0h-66.257
			c-23.22,0-45.898,7.503-65.585,21.697c-19.492,14.054-35.186,34.065-45.387,57.865c-0.048,0.113-0.083,0.227-0.126,0.342
			c-31.435,11.727-53.885,42.048-53.885,77.521c0,40.037,28.596,73.512,66.433,81.096l51.976,93.556
			c0.126,0.226,0.273,0.433,0.417,0.643c0.633,3.39,1.461,6.71,2.495,9.942c-0.56,0.333-1.093,0.732-1.575,1.215l-16.062,16.062
			l-8.518-8.518c-2.698-2.698-6.925-3.117-10.1-1l-83.397,55.598c-3.77,2.513-6.188,6.54-6.634,11.05
			c-0.446,4.508,1.135,8.932,4.339,12.136l20.124,20.124c-0.074,0.068-0.152,0.13-0.224,0.202l-4.02,4.02
			c-9.227,9.227-9.227,24.239,0,33.466l8.042,8.042c4.614,4.613,10.673,6.919,16.733,6.919s12.12-2.306,16.734-6.92l4.02-4.022
			c0.071-0.071,0.133-0.149,0.202-0.223l16.776,16.776c2.846,2.847,6.658,4.413,10.634,4.413c0.498,0,0.999-0.025,1.501-0.074
			c4.509-0.446,8.536-2.865,11.049-6.634l55.599-83.397c2.116-3.175,1.698-7.403-1-10.1l-8.518-8.518l13.282-13.282
			c11.818,6.518,25.386,10.237,39.811,10.237c14.424,0,27.993-3.719,39.811-10.237l13.282,13.282l-8.518,8.518
			c-2.698,2.698-3.116,6.926-1,10.1l55.598,83.397c2.513,3.77,6.54,6.188,11.05,6.634c0.502,0.049,1.002,0.074,1.501,0.074
			c3.978,0,7.788-1.566,10.634-4.413l16.776-16.776c0.068,0.074,0.13,0.152,0.202,0.223l4.022,4.023
			c4.614,4.613,10.673,6.919,16.733,6.919c6.06,0,12.12-2.306,16.734-6.919l8.041-8.042c9.227-9.227,9.227-24.239,0-33.466
			l-4.02-4.02c-0.072-0.072-0.149-0.133-0.224-0.202l20.124-20.124C459.945,425.997,461.527,421.574,461.081,417.065z
			 M440.105,157.424c0,36.781-29.924,66.705-66.705,66.705s-66.705-29.924-66.705-66.705s29.924-66.705,66.705-66.705
			S440.105,120.643,440.105,157.424z M220.866,16.009h66.257c31.864,0,61.927,16.503,82.48,45.277l9.758,13.661
			c-1.97-0.141-3.954-0.238-5.961-0.238c-31.097,0-58.23,17.258-72.354,42.691h-90.093c-14.124-25.433-41.257-42.691-72.354-42.691
			c-2.99,0-5.938,0.169-8.847,0.479C149.424,38.405,183.457,16.009,220.866,16.009z M71.892,157.424
			c0-36.781,29.924-66.705,66.705-66.705s66.705,29.924,66.705,66.705s-29.924,66.705-66.705,66.705S71.892,194.205,71.892,157.424z
			 M175.056,300.487l-33.568-60.422c29.881-1.033,55.779-17.977,69.464-42.618h16.909c4.421,0,8.005-3.584,8.005-8.005
			c0-4.421-3.584-8.005-8.005-8.005h-10.116c2.312-7.604,3.567-15.664,3.567-24.014s-1.255-16.409-3.567-24.014h76.507
			c-2.312,7.604-3.567,15.664-3.567,24.014s1.255,16.409,3.567,24.014h-34.685c-4.421,0-8.005,3.584-8.005,8.005
			c0,4.421,3.584,8.005,8.005,8.005h41.478c13.685,24.641,39.583,41.585,69.464,42.618l-33.568,60.422
			c-7.872-37.466-41.17-65.685-80.943-65.685C216.226,234.802,182.929,263.021,175.056,300.487z M105.343,479.715l-4.02,4.02
			c-2.984,2.984-7.84,2.985-10.826,0l-8.041-8.042c-2.984-2.984-2.984-7.841,0-10.827l4.021-4.02
			c0.071-0.071,0.133-0.149,0.202-0.223l18.889,18.889C105.492,479.581,105.414,479.643,105.343,479.715z M163.596,466.273
			l-31.839-31.84c-3.125-3.126-8.194-3.126-11.32,0c-3.126,3.126-3.126,8.195,0,11.32l34.103,34.104l-10.395,15.593l-76.754-76.754
			l15.593-10.395l14.812,14.812c1.563,1.564,3.612,2.345,5.66,2.345s4.097-0.781,5.66-2.345c3.126-3.126,3.126-8.194,0-11.32
			l-12.547-12.548l47.8-31.867l51.095,51.095L163.596,466.273z M191.586,391.955l-20.699-20.699l13.107-13.107
			c4.881,8.615,11.256,16.274,18.781,22.617L191.586,391.955z M255.998,384.222c-36.781,0-66.705-29.924-66.705-66.705
			s29.924-66.705,66.705-66.705s66.705,29.925,66.705,66.705S292.78,384.222,255.998,384.222z M328.003,358.149l13.107,13.107
			l-20.699,20.699l-11.189-11.189C316.747,374.423,323.122,366.764,328.003,358.149z M429.542,475.694l-8.041,8.041
			c-2.985,2.985-7.841,2.984-10.825,0.001l-4.02-4.021c-0.073-0.073-0.15-0.133-0.224-0.203l18.889-18.889
			c0.068,0.074,0.13,0.152,0.202,0.223l4.02,4.02C432.527,467.852,432.527,472.709,429.542,475.694z M367.853,495.451
			l-10.395-15.593l34.103-34.104c3.126-3.126,3.126-8.195,0-11.32c-3.126-3.126-8.195-3.126-11.32,0l-31.839,31.84l-31.867-47.8
			l51.095-51.095l47.8,31.867l-12.547,12.548c-3.126,3.126-3.126,8.195,0,11.32c1.563,1.564,3.612,2.345,5.66,2.345
			c2.048,0,4.097-0.781,5.66-2.345l14.812-14.812l15.593,10.395L367.853,495.451z"/>
	</g>
</g>
<g>
</g>
<g>
</g>
<g>
</g>
<g>
</g>
<g>
</g>
<g>
</g>
<g>
</g>
<g>
</g>
<g>
</g>
<g>
</g>
<g>
</g>
<g>
</g>
<g>
</g>
<g>
</g>
<g>
</g>
</svg>
