<?xml version="1.0" encoding="iso-8859-1"?>
<!-- Generator: Adobe Illustrator 19.0.0, SVG Export Plug-In . SVG Version: 6.00 Build 0)  -->
<svg version="1.1" id="Layer_1" xmlns="http://www.w3.org/2000/svg" xmlns:xlink="http://www.w3.org/1999/xlink" x="0px" y="0px"
	 viewBox="0 0 512 512" style="enable-background:new 0 0 512 512;" xml:space="preserve">
<path d="M256,0C114.616,0,0,114.616,0,256s114.616,256,256,256s256-114.616,256-256S397.384,0,256,0z"/>
<polygon style="fill:#FFFFFF;" points="124.504,80 124.504,432 176.888,387.84 219.592,422.28 263.656,387.84 305.728,427.952 
	348.904,387.84 387.496,432 387.496,80 "/>
<g>
	<rect x="184.48" y="285.448" style="fill:#F00000;" width="143" height="11"/>
	<rect x="184.48" y="326.216" style="fill:#F00000;" width="143" height="11"/>
</g>
<path style="fill:#999999;" d="M245.168,157.152c0,26.44-16.72,40.248-34.992,40.248c-19.248,0-34.416-14.392-34.416-38.112
	c0-22.552,13.8-39.656,35.384-39.656C232.92,119.624,245.168,135.568,245.168,157.152z M197.728,158.504
	c0,13.216,4.464,22.744,13.024,22.744c8.36,0,12.44-8.544,12.44-22.744c0-12.832-3.496-22.744-12.64-22.744
	C201.808,135.76,197.728,145.872,197.728,158.504z M211.72,250.28l72.528-130.656h15.944l-72.72,130.656H211.72z M336.16,209.648
	c0,26.44-16.72,40.248-34.992,40.248c-19.056,0-34.216-14.392-34.416-38.112c0-22.552,13.8-39.656,35.384-39.656
	C323.912,172.12,336.16,188.064,336.16,209.648z M288.912,211c-0.192,13.216,4.272,22.744,12.832,22.744
	c8.36,0,12.44-8.544,12.44-22.744c0-12.832-3.304-22.744-12.44-22.744C292.8,188.256,288.912,198.368,288.912,211z"/>
<g>
</g>
<g>
</g>
<g>
</g>
<g>
</g>
<g>
</g>
<g>
</g>
<g>
</g>
<g>
</g>
<g>
</g>
<g>
</g>
<g>
</g>
<g>
</g>
<g>
</g>
<g>
</g>
<g>
</g>
</svg>
