<?xml version="1.0" encoding="iso-8859-1"?>
<!-- Generator: Adobe Illustrator 18.1.1, SVG Export Plug-In . SVG Version: 6.00 Build 0)  -->
<svg version="1.1" id="Capa_1" xmlns="http://www.w3.org/2000/svg" xmlns:xlink="http://www.w3.org/1999/xlink" x="0px" y="0px"
	 viewBox="0 0 377.168 377.168" style="enable-background:new 0 0 377.168 377.168;" xml:space="preserve">
<g>
	<g>
		<path style="fill:#010002;" d="M354.039,276.487c6.901-5.162,12.063-10.892,15.769-16.956c3.577-5.844,5.763-11.982,6.747-18.216
			c5.649-35.888-28.588-74.637-67.508-74.637c-12.209,0-24.873,3.812-36.904,12.729c-6.633,4.918-13.843,9.291-21.443,13.095
			c0.691,4.926,1.715,9.811,2.837,14.688c1.796,7.82,3.926,15.591,5.877,23.329c0.919,3.65-0.008,6.82-1.813,9.258
			c-2.235,3.024-5.853,4.91-9.307,4.91c-3.642,0-7.039-2.048-8.267-6.893c-3.146-12.469-6.511-24.711-8.714-37.131
			c-13.022,4.487-26.776,7.356-40.684,8.389c-5.154,13.689-7.722,28.214-8.356,42.911c-0.293,6.779-5.779,10.226-11.055,10.226
			c-3.739,0-7.332-1.756-8.925-5.259c-0.593-1.317-0.935-2.853-0.854-4.674c0.398-9.307,1.512-18.371,3.26-27.279
			c1.049-5.332,2.268-10.632,3.861-15.851c-12.933-0.919-25.711-3.577-37.887-8.12c-6.446,10.941-10.38,23.313-14.062,35.522
			c-1.561,5.17-5.812,7.421-10.063,7.421c-3.024,0-6.023-1.154-8.088-3.186c-2.227-2.187-3.365-5.389-2.17-9.356
			c1.658-5.487,3.43-10.9,5.349-16.233c0.577-1.618,1.146-3.243,1.764-4.837c0.748-1.943,1.577-3.845,2.39-5.755
			c1.821-4.251,3.755-8.446,5.999-12.477c-4.942-2.878-9.722-6.113-14.298-9.754c-10.128-8.072-22.321-11.705-34.563-11.713
			c-20.468,0-41.082,10.169-52.429,26.824c-8.974,13.168-11.868,27.857-9.925,41.992c1.073,7.787,3.609,15.404,7.438,22.508
			c4.698,8.714,11.299,16.672,19.5,23.207c0.439,0.35,0.91,0.634,1.357,0.984c43.301,33.977,95.494,49.097,148.111,49.097
			c63.281,0,127.139-21.76,176.813-58.566C353.876,276.617,353.949,276.552,354.039,276.487z"/>
		<path style="fill:#010002;" d="M123.024,164.898c13.778-12.672,18.224-27.572,14.404-45.756
			c-4.154-19.761-20.533-36.985,0.764-52.454c13.355-9.697,0.463-32.157-13.054-22.337c-16.111,11.705-27.418,26.914-23.483,47.78
			c3.552,18.866,20.484,38.473,3.089,54.478C92.428,157.924,110.767,176.164,123.024,164.898z"/>
		<path style="fill:#010002;" d="M187.687,164.898c13.778-12.672,18.224-27.572,14.404-45.756
			c-4.154-19.761-20.533-36.985,0.764-52.454c13.355-9.697,0.463-32.157-13.054-22.337c-16.111,11.705-27.418,26.914-23.483,47.78
			c3.552,18.866,20.484,38.473,3.089,54.478C157.099,157.924,175.438,176.164,187.687,164.898z"/>
		<path style="fill:#010002;" d="M254.464,44.351c-16.119,11.705-27.418,26.914-23.492,47.78
			c3.552,18.866,20.484,38.473,3.089,54.478c-12.299,11.315,6.04,29.555,18.289,18.289c13.778-12.672,18.224-27.572,14.404-45.756
			c-4.154-19.761-20.533-36.985,0.764-52.454C280.873,56.983,267.989,34.532,254.464,44.351z"/>
	</g>
</g>
<g>
</g>
<g>
</g>
<g>
</g>
<g>
</g>
<g>
</g>
<g>
</g>
<g>
</g>
<g>
</g>
<g>
</g>
<g>
</g>
<g>
</g>
<g>
</g>
<g>
</g>
<g>
</g>
<g>
</g>
</svg>
