<?xml version="1.0" encoding="iso-8859-1"?>
<!-- Generator: Adobe Illustrator 19.0.0, SVG Export Plug-In . SVG Version: 6.00 Build 0)  -->
<svg version="1.1" id="Layer_1" xmlns="http://www.w3.org/2000/svg" xmlns:xlink="http://www.w3.org/1999/xlink" x="0px" y="0px"
	 viewBox="0 0 512.002 512.002" style="enable-background:new 0 0 512.002 512.002;" xml:space="preserve">
<path style="fill:#B3404A;" d="M472.862,512.001H39.14C17.558,512.001,0,494.443,0,472.862V345.894
	c0-8.714,7.065-15.781,15.781-15.781s15.781,7.067,15.781,15.781v126.969c0,4.177,3.399,7.576,7.578,7.576h433.722
	c4.177,0,7.578-3.398,7.578-7.576V39.139c0-4.177-3.399-7.576-7.578-7.576H39.14c-4.179,0-7.578,3.399-7.578,7.576v214.045
	c0,8.714-7.065,15.781-15.781,15.781S0,261.898,0,253.184V39.139C0,17.559,17.558,0.001,39.14,0.001h433.722
	c21.582,0,39.14,17.558,39.14,39.138v433.723C512,494.443,494.442,512.001,472.862,512.001z"/>
<path style="fill:#F4B2B0;" d="M83.344,92.853v326.298c0,5.252,4.256,9.508,9.508,9.508h104.759V315.441h116.781v113.217H419.15
	c5.252,0,9.508-4.258,9.508-9.508V307.546l0,0V92.853c0-5.252-4.256-9.508-9.508-9.508H187.44H92.852
	C87.6,83.343,83.344,87.601,83.344,92.853z"/>
<g>
	<path style="fill:#B3404A;" d="M419.148,444.439H314.389c-8.716,0-15.781-7.067-15.781-15.781v-97.438H213.39v97.438
		c0,8.714-7.065,15.781-15.781,15.781H92.852c-13.944,0-25.289-11.345-25.289-25.289V92.851c0-13.944,11.345-25.289,25.289-25.289
		H419.15c13.944,0,25.289,11.345,25.289,25.289v326.299C444.439,433.095,433.094,444.439,419.148,444.439z M330.172,412.878h82.705
		V99.124H99.125v313.754h82.705V315.44c0-8.714,7.065-15.781,15.781-15.781h116.781c8.716,0,15.781,7.067,15.781,15.781V412.878z"/>
	<path style="fill:#B3404A;" d="M197.611,381.309c-8.716,0-15.781-7.067-15.781-15.781V83.343c0-8.714,7.065-15.781,15.781-15.781
		c8.716,0,15.781,7.067,15.781,15.781v282.185C213.391,374.244,206.326,381.309,197.611,381.309z"/>
	<path style="fill:#B3404A;" d="M314.391,444.439c-8.716,0-15.781-7.067-15.781-15.781V146.473c0-8.714,7.065-15.781,15.781-15.781
		c8.716,0,15.781,7.067,15.781,15.781v282.185C330.172,437.374,323.107,444.439,314.391,444.439z"/>
</g>
<g>
</g>
<g>
</g>
<g>
</g>
<g>
</g>
<g>
</g>
<g>
</g>
<g>
</g>
<g>
</g>
<g>
</g>
<g>
</g>
<g>
</g>
<g>
</g>
<g>
</g>
<g>
</g>
<g>
</g>
</svg>
