<?xml version="1.0" encoding="iso-8859-1"?>
<!-- Generator: Adobe Illustrator 19.0.0, SVG Export Plug-In . SVG Version: 6.00 Build 0)  -->
<svg version="1.1" id="Layer_1" xmlns="http://www.w3.org/2000/svg" xmlns:xlink="http://www.w3.org/1999/xlink" x="0px" y="0px"
	 viewBox="0 0 502.591 502.591" style="enable-background:new 0 0 502.591 502.591;" xml:space="preserve">
<g transform="translate(0 -1)">
	<g>
		<path style="fill:#B12621;" d="M213.253,105.334h75.852c0-20.916-17.01-37.926-37.926-37.926S213.253,84.418,213.253,105.334
			L213.253,105.334z M298.586,124.297h-94.815c-5.234,0-9.481-4.238-9.481-9.481v-9.481c0-31.374,25.515-56.889,56.889-56.889
			s56.889,25.515,56.889,56.889v9.481C308.068,120.059,303.82,124.297,298.586,124.297L298.586,124.297z"/>
		<path style="fill:#B12621;" d="M341.048,125.431c6.258,0.929,12.335,2.446,18.157,4.542l15.237,3.802
			c0.844-8.448-3.262-85.03,28.444-94.815l37.926-9.481L402.886,1.034c-75.179-2.408-66.37,123.259-66.37,123.259L341.048,125.431z"
			/>
		<path style="fill:#B12621;" d="M127.92,133.779l15.294-3.821c5.803-2.086,11.852-3.593,18.081-4.523l4.551-1.138
			c0,0,8.799-125.668-66.37-123.259L61.549,29.482l37.926,9.481C131.181,48.739,127.076,125.331,127.92,133.779"/>
	</g>
	<path style="fill:#DD342E;" d="M364.876,503.591H142.412c-47.682,0-85.011-41.055-80.488-88.519l18.584-223.877
		c4.636-48.659,45.938-85.826,94.815-85.826h151.704c48.65,0,89.894,36.817,94.815,85.21l18.963,227.679
		C444.151,465.058,411.8,503.591,364.876,503.591"/>
	<path style="fill:#B12621;" d="M251.179,503.591c68.134,0,123.259-55.125,123.259-123.259V238.109
		c0-41.889-33.963-75.852-75.852-75.852h-94.815c-41.889,0-75.852,33.963-75.852,75.852v142.222
		C127.92,448.465,183.045,503.591,251.179,503.591"/>
	<path style="fill:#DD342E;" d="M298.586,313.961h-94.815c-10.477,0-18.963-8.486-18.963-18.963v-37.926
		c0-10.477,8.486-18.963,18.963-18.963h94.815c10.477,0,18.963,8.486,18.963,18.963v37.926
		C317.549,305.475,309.063,313.961,298.586,313.961"/>
</g>
<g>
</g>
<g>
</g>
<g>
</g>
<g>
</g>
<g>
</g>
<g>
</g>
<g>
</g>
<g>
</g>
<g>
</g>
<g>
</g>
<g>
</g>
<g>
</g>
<g>
</g>
<g>
</g>
<g>
</g>
</svg>
