<?xml version="1.0" encoding="iso-8859-1"?>
<!-- Generator: Adobe Illustrator 19.0.0, SVG Export Plug-In . SVG Version: 6.00 Build 0)  -->
<svg version="1.1" id="Layer_1" xmlns="http://www.w3.org/2000/svg" xmlns:xlink="http://www.w3.org/1999/xlink" x="0px" y="0px"
	 viewBox="0 0 512 512" style="enable-background:new 0 0 512 512;" xml:space="preserve">
<rect x="120.316" y="274.048" style="fill:#E7ECED;" width="271.403" height="98.69"/>
<g>
	<path style="fill:#7E8488;" d="M256.023,218.535c130.521,0,237.232-35.406,245.991-80.311l0.74,0.124V378.91
		c0,47.743-110.412,86.357-246.732,86.357S9.293,426.652,9.293,378.91V138.347l0.74-0.124
		C18.791,183.129,125.502,218.535,256.023,218.535z M391.726,372.741v-98.692H120.322v98.692H391.726z"/>
	<path style="fill:#7E8488;" d="M256.023,95.17c71.552,0,129.534,16.531,129.534,37.009s-57.982,37.009-129.534,37.009
		S126.49,152.657,126.49,132.179S184.472,95.17,256.023,95.17z"/>
</g>
<path style="fill:#AFB6BB;" d="M385.558,132.179c0-20.478-57.982-37.009-129.534-37.009s-129.534,16.531-129.534,37.009
	s57.982,37.009,129.534,37.009S385.558,152.657,385.558,132.179z M502.755,132.179c0,2.097-0.247,4.071-0.74,6.045
	c-8.759,44.905-115.47,80.311-245.991,80.311s-237.232-35.406-245.99-80.311c-0.493-1.974-0.74-3.947-0.74-6.045
	c0-47.742,110.412-86.357,246.732-86.357S502.755,84.437,502.755,132.179z"/>
<path style="fill:#6D7276;" d="M120.322,372.741v-98.692h35.568c-12.465-21.563-22.761-44.529-30.552-68.643
	C60.279,191.154,15.568,166.6,10.033,138.223l-0.74,0.124v240.563c0,47.742,110.412,86.357,246.732,86.357
	c56.007,0,107.466-6.594,148.866-17.585c-61.865-10.586-118.284-36.965-164.928-74.939H120.322z"/>
<path d="M512,132.635c0-27.328-27.862-52.128-78.454-69.83C386.009,46.171,322.956,37.01,256,37.01S125.991,46.171,78.452,62.804
	C27.862,80.507,0,105.307,0,132.635c0,2.107,0.185,4.142,0.559,6.168H0v240.563c0,27.328,27.862,52.128,78.452,69.83
	c47.537,16.634,110.592,25.794,177.546,25.794s130.009-9.161,177.546-25.794c50.592-17.703,78.454-42.502,78.454-69.83V268.336
	h-18.537v111.029c0,18.301-24.687,37.864-66.039,52.334c-45.62,15.963-106.5,24.754-171.424,24.754s-125.804-8.791-171.424-24.754
	c-41.351-14.47-66.038-34.034-66.038-52.334v-209.67c9.092,8.544,21.477,16.443,36.977,23.569v167.598h18.537V200.865
	c3.364,1.235,6.823,2.443,10.403,3.617c46.736,15.334,107.659,23.778,171.545,23.778s124.809-8.444,171.545-23.778
	c3.58-1.175,7.039-2.383,10.403-3.617v159.997h18.537V193.264c15.502-7.126,27.887-15.025,36.978-23.57v61.633h18.537v-92.524
	h-0.559C511.813,136.776,512,134.742,512,132.635z M492.894,136.906c-3.527,18.078-29.451,36.289-71.127,49.963
	C376.846,201.606,317.976,209.723,256,209.723s-120.847-8.117-165.767-22.855c-41.677-13.673-67.601-31.884-71.128-49.963
	L19,136.431c-0.315-1.263-0.463-2.47-0.463-3.796c0-18.301,24.687-37.864,66.038-52.334c45.62-15.963,106.5-24.754,171.424-24.754
	s125.804,8.791,171.424,24.754c41.352,14.47,66.039,34.033,66.039,52.334c0,1.325-0.147,2.532-0.463,3.796L492.894,136.906z"/>
<path d="M350.143,97.539C324.89,90.328,291.456,86.357,256,86.357s-68.891,3.971-94.144,11.181
	c-29.633,8.461-44.659,20.269-44.659,35.096s15.026,26.636,44.659,35.096c25.253,7.211,58.687,11.181,94.144,11.181
	c35.456,0,68.89-3.971,94.143-11.181c29.633-8.461,44.659-20.269,44.659-35.096S379.776,105.999,350.143,97.539z M345.054,149.907
	c-23.644,6.751-55.272,10.47-89.054,10.47s-65.41-3.718-89.054-10.47c-25.477-7.275-31.211-15.104-31.211-17.273
	c0-2.169,5.734-9.997,31.211-17.273c23.644-6.751,55.272-10.47,89.054-10.47s65.41,3.718,89.054,10.47
	c25.477,7.275,31.211,15.104,31.211,17.273C376.265,134.804,370.531,142.632,345.054,149.907z"/>
<g>
	<rect x="416.373" y="123.369" style="fill:#FFFFFF;" width="37.01" height="18.537"/>
	<rect x="58.613" y="123.369" style="fill:#FFFFFF;" width="37.009" height="18.537"/>
</g>
<path d="M111.029,382.466h289.942V265.237H111.029V382.466z M129.566,283.774h252.868v80.155H129.566V283.774z"/>
<rect x="163.469" y="314.582" width="111.023" height="18.537"/>
<rect x="299.171" y="314.582" width="49.346" height="18.537"/>
<g>
</g>
<g>
</g>
<g>
</g>
<g>
</g>
<g>
</g>
<g>
</g>
<g>
</g>
<g>
</g>
<g>
</g>
<g>
</g>
<g>
</g>
<g>
</g>
<g>
</g>
<g>
</g>
<g>
</g>
</svg>
