<?xml version="1.0" encoding="iso-8859-1"?>
<!-- Generator: Adobe Illustrator 19.0.0, SVG Export Plug-In . SVG Version: 6.00 Build 0)  -->
<svg version="1.1" id="Layer_1" xmlns="http://www.w3.org/2000/svg" xmlns:xlink="http://www.w3.org/1999/xlink" x="0px" y="0px"
	 viewBox="0 0 512 512" style="enable-background:new 0 0 512 512;" xml:space="preserve">
<path style="fill:#EC5565;" d="M512,256.006C512,397.402,397.394,512.004,256.004,512C114.606,512.004,0,397.402,0,256.006
	C-0.007,114.61,114.606,0,256.004,0C397.394,0,512,114.614,512,256.006z"/>
<path style="fill:#D94453;" d="M488.942,362.164l-88.573-88.573l-0.002-0.001l-0.601-0.601v-0.001l-0.001-0.001L235.061,108.284
	h-0.001l-3.033-3.034c-31.993-31.993-94.783-31.993-126.774,0c-31.993,31.989-31.993,94.786,0,126.774l50.955,50.956l0.005,0.007
	l0.007,0.004l1.505,1.505l0.004,0.007l97.061,97.061l0.001,0.001l6.066,6.066l0.001,0.001l19.116,19.116v0.001l81.895,81.895
	l0.297,0.298C418.198,463.364,463.364,418.198,488.942,362.164z"/>
<g>
	<path style="fill:#F4F6F9;" d="M406.748,279.974l-50.955-50.956l-0.005-0.007l-0.007-0.005l-72.79-72.791l-0.001-0.002
		l-0.004-0.003l-50.957-50.958c-31.993-31.993-94.782-31.993-126.774,0c-31.993,31.988-31.993,94.786,0,126.774l50.955,50.956
		l0.005,0.007l0.007,0.005l72.79,72.793l0.002,0.003l0.003,0.002l50.957,50.958c15.996,15.996,39.692,23.995,63.387,23.995
		s47.391-7.998,63.388-23.995C438.739,374.756,438.739,311.967,406.748,279.974z M171.655,277.84l106.183-106.188l62.505,62.507
		L234.16,340.347L171.655,277.84z M115.547,115.546c13.149-13.149,33.122-19.722,53.093-19.722s39.945,6.573,53.093,19.722
		l45.812,45.813L161.362,267.547l-45.814-45.815C89.25,195.434,89.25,141.843,115.547,115.546z M396.452,396.454
		c-26.305,26.298-79.888,26.284-106.186,0l-45.812-45.813l106.183-106.188l45.814,45.815
		C422.75,316.566,422.75,370.157,396.452,396.454z"/>
	<circle style="fill:#F4F6F9;" cx="346.9" cy="346.89" r="10.921"/>
	<circle style="fill:#F4F6F9;" cx="386.93" cy="354.18" r="10.921"/>
	<circle style="fill:#F4F6F9;" cx="354.18" cy="383.3" r="10.921"/>
	<circle style="fill:#F4F6F9;" cx="332.34" cy="303.21" r="10.921"/>
	<circle style="fill:#F4F6F9;" cx="303.22" cy="339.62" r="10.921"/>
	<circle style="fill:#F4F6F9;" cx="317.78" cy="376.01" r="10.921"/>
	<circle style="fill:#F4F6F9;" cx="376.02" cy="314.13" r="10.921"/>
	<circle style="fill:#F4F6F9;" cx="172.18" cy="172.17" r="10.921"/>
	<circle style="fill:#F4F6F9;" cx="212.21" cy="179.46" r="10.921"/>
	<circle style="fill:#F4F6F9;" cx="179.46" cy="208.58" r="10.921"/>
	<circle style="fill:#F4F6F9;" cx="157.62" cy="128.49" r="10.921"/>
	<circle style="fill:#F4F6F9;" cx="128.5" cy="164.9" r="10.921"/>
	<circle style="fill:#F4F6F9;" cx="143.06" cy="201.29" r="10.921"/>
	<circle style="fill:#F4F6F9;" cx="201.3" cy="139.41" r="10.921"/>
</g>
<g>
</g>
<g>
</g>
<g>
</g>
<g>
</g>
<g>
</g>
<g>
</g>
<g>
</g>
<g>
</g>
<g>
</g>
<g>
</g>
<g>
</g>
<g>
</g>
<g>
</g>
<g>
</g>
<g>
</g>
</svg>
