<?xml version="1.0" encoding="iso-8859-1"?>
<!-- Generator: Adobe Illustrator 19.0.0, SVG Export Plug-In . SVG Version: 6.00 Build 0)  -->
<svg version="1.1" id="Layer_1" xmlns="http://www.w3.org/2000/svg" xmlns:xlink="http://www.w3.org/1999/xlink" x="0px" y="0px"
	 viewBox="0 0 511.125 511.125" style="enable-background:new 0 0 511.125 511.125;" xml:space="preserve">
<g>
	<g>
		<g>
			<path d="M127.125,253.955c0-35.008,7.637-70.635,20.181-104.704c-26.539-9.771-51.904-22.955-75.392-39.851L52.032,97.411
				C22.997,135.449,4.139,181.913,0,232.622v42.667c4.203,51.499,23.616,98.581,53.44,136.939l17.387-14.421
				c24.064-16.981,49.664-30.123,76.245-39.744C134.677,324.163,127.125,288.75,127.125,253.955z"/>
			<path d="M255.125,125.955c16.491,0,32.789-1.685,48.789-4.629c-14.016-26.709-30.912-51.392-48.789-72.192
				c-17.856,20.8-34.752,45.483-48.768,72.213C222.379,124.291,238.635,125.955,255.125,125.955z"/>
			<path d="M164.245,109.97c16.853-34.048,38.016-65.408,60.779-91.349c-1.6-1.387-3.2-2.901-4.8-4.203
				c-4.203-3.477-6.549-8.256-7.317-13.248c-50.325,7.808-95.851,30.592-131.797,64.021l14.293,8.619
				C117.099,89.383,140.203,101.33,164.245,109.97z"/>
			<path d="M411.168,76.249l13.333-10.667C389.067,33.881,345.12,11.545,296.907,2.67c-1.024,4.437-3.115,8.64-6.891,11.755
				c-1.579,1.301-3.179,2.795-4.779,4.181c22.763,25.963,43.947,57.323,60.8,91.349C368.907,101.742,390.816,90.585,411.168,76.249z
				"/>
			<path d="M163.887,397.232c-23.595,8.256-46.187,19.691-67.136,34.432l-14.485,12.032c43.157,39.701,99.861,64.299,162.155,65.941
				C214.362,480.347,185.498,441.093,163.887,397.232z"/>
			<path d="M206.159,386.156c19.541,37.397,44.757,70.784,70.293,95.168v-99.371h-23.659
				C237.028,381.953,221.476,383.468,206.159,386.156z"/>
			<path d="M383.125,253.686c0,0.107-0.043,0.171-0.064,0.277h0.064v21.333h106.667c11.797,0,21.333-9.557,21.333-21.333
				c0-58.859-21.547-113.728-56.981-157.504L436.8,110.348c-23.296,16.405-48.107,29.227-73.856,38.763
				C375.467,183.158,383.125,218.742,383.125,253.686z"/>
			<path d="M340.459,253.955h0.064c-0.021-0.107-0.064-0.171-0.064-0.277c0-30.549-7.083-62.123-18.581-92.416
				c-21.824,4.779-44.117,7.36-66.752,7.36c-22.656,0-44.971-2.581-66.731-7.339c-11.499,30.379-18.603,62.016-18.603,92.672
				c0,30.528,7.04,62.016,18.453,92.267c21.141-4.48,42.688-6.933,64.555-6.933h23.659v-64h64V253.955z"/>
			<path d="M465.173,347.822c-2.901,0-5.248-2.347-5.248-5.227c0-25.344-20.629-45.973-45.973-45.973h-18.987
				c-25.344,0-45.973,20.629-45.973,45.973c0,2.88-2.347,5.227-5.248,5.227c-25.323,0-45.952,20.629-45.952,45.973v18.987
				c0,25.344,20.629,45.973,45.952,45.973c2.901,0,5.248,2.347,5.248,5.227c0,25.344,20.629,45.973,45.973,45.973h18.987
				c25.344,0,45.973-20.629,45.973-45.973c0-2.88,2.347-5.227,5.248-5.227c25.323,0,45.952-20.629,45.952-45.973v-18.987
				C511.125,368.451,490.496,347.822,465.173,347.822z M404.459,424.622c-11.776,0-21.333-9.557-21.333-21.333
				s9.557-21.333,21.333-21.333s21.333,9.557,21.333,21.333S416.235,424.622,404.459,424.622z"/>
		</g>
	</g>
</g>
<g>
</g>
<g>
</g>
<g>
</g>
<g>
</g>
<g>
</g>
<g>
</g>
<g>
</g>
<g>
</g>
<g>
</g>
<g>
</g>
<g>
</g>
<g>
</g>
<g>
</g>
<g>
</g>
<g>
</g>
</svg>
