<?xml version="1.0" encoding="iso-8859-1"?>
<!-- Generator: Adobe Illustrator 19.0.0, SVG Export Plug-In . SVG Version: 6.00 Build 0)  -->
<svg version="1.1" id="Layer_1" xmlns="http://www.w3.org/2000/svg" xmlns:xlink="http://www.w3.org/1999/xlink" x="0px" y="0px"
	 viewBox="0 0 512.009 512.009" style="enable-background:new 0 0 512.009 512.009;" xml:space="preserve">
<g>
	<g>
		<g>
			<path d="M509.811,246.03c-6.037-49.6-26.517-112.213-55.851-148.416l-17.344,13.867c-21.696,15.296-44.693,27.52-68.565,36.864
				c7.68,27.691,12.651,56.512,14.272,85.419h-43.136c-1.515-24.64-5.547-49.024-11.904-72.533
				c-16.725,4.011-33.749,6.528-51.008,7.723v64.811h-20.267c-11.797,0-21.333,9.557-21.333,21.333v234.667
				c0,8.811,5.355,16.384,12.992,19.627c-2.027-0.747-3.904-1.728-5.589-3.051c-0.213-0.171-0.491-0.213-0.704-0.384
				c-0.085-0.085-0.192-0.192-0.277-0.277c-0.64-0.555-1.237-1.045-1.792-1.664c-33.984-28.565-60.949-64.064-80-104.064
				c-21.995,8.149-43.093,19.029-62.741,32.853l-15.104,11.243c44.8,41.493,104.128,67.051,169.365,67.051
				c0.568,0,1.072-0.206,1.601-0.338c1.161,0.214,2.355,0.338,3.583,0.338h234.667c11.797,0,21.333-9.557,21.333-21.333V255.097
				C512.009,251.811,511.134,248.803,509.811,246.03z M469.342,468.43h-74.667v-67.968l10.517,10.517
				c4.16,4.16,9.621,6.251,15.083,6.251c5.461,0,10.923-2.091,15.083-6.251c8.341-8.32,8.341-21.824,0-30.165l-46.912-46.912
				c-1.963-1.984-4.331-3.541-6.955-4.629c-5.205-2.155-11.093-2.155-16.299,0c-2.624,1.088-4.992,2.645-6.955,4.629l-46.912,46.912
				c-8.341,8.341-8.341,21.845,0,30.165c8.32,8.341,21.824,8.341,30.165,0l10.517-10.517v67.968h-74.667v-192h192V468.43z"/>
			<path d="M233.611,53.294c-14.72,19.712-27.499,42.347-37.568,67.243c12.331,2.731,24.853,4.736,37.568,5.717V53.294z"/>
			<path d="M141.852,148.458c-24.619-9.579-48.171-22.144-70.123-37.931L53.788,96.084C23.665,134.57,4.252,181.972,0.006,233.77
				H127.58C129.222,204.884,134.172,176.106,141.852,148.458z"/>
			<path d="M128.064,276.43H0c4.181,51.051,23.147,97.792,52.523,135.957l19.029-14.144c22.571-15.893,46.741-28.437,71.893-37.867
				C134.805,333.667,129.835,305.443,128.064,276.43z"/>
			<path d="M233.611,276.43H170.72c1.728,24.789,6.059,48.896,13.504,71.68c16.192-3.648,32.683-5.931,49.387-6.955V276.43z"/>
			<path d="M233.611,383.828c-10.901,0.768-21.675,2.325-32.341,4.395c9.003,17.664,19.797,34.197,32.341,49.365V383.828z"/>
			<path d="M155.366,108.069c16.405-41.536,39.189-78.699,66.56-107.157C168.785,7.12,120.785,30.267,82.918,64.805l14.656,11.797
				C115.558,89.509,134.972,99.984,155.366,108.069z"/>
			<path d="M276.277,53.279v72.96c12.693-1.003,25.237-2.965,37.589-5.739C303.797,95.626,290.997,72.991,276.277,53.279z"/>
			<path d="M410.987,77.39l13.333-10.667c-37.184-33.259-83.733-56.277-134.741-64.149c26.667,28.224,48.853,64.704,64.939,105.387
				C374.272,100.11,393.216,89.913,410.987,77.39z"/>
			<path d="M233.611,168.935c-17.28-1.173-34.325-3.648-50.987-7.616c-6.357,23.488-10.389,47.829-11.925,72.448h62.912V168.935z"/>
		</g>
	</g>
</g>
<g>
</g>
<g>
</g>
<g>
</g>
<g>
</g>
<g>
</g>
<g>
</g>
<g>
</g>
<g>
</g>
<g>
</g>
<g>
</g>
<g>
</g>
<g>
</g>
<g>
</g>
<g>
</g>
<g>
</g>
</svg>
