<?xml version="1.0" encoding="iso-8859-1"?>
<!-- Generator: Adobe Illustrator 19.0.0, SVG Export Plug-In . SVG Version: 6.00 Build 0)  -->
<svg version="1.1" id="Layer_1" xmlns="http://www.w3.org/2000/svg" xmlns:xlink="http://www.w3.org/1999/xlink" x="0px" y="0px"
	 viewBox="0 0 512 512" style="enable-background:new 0 0 512 512;" xml:space="preserve">
<g transform="translate(1 1)">
	<g>
		<g>
			<path d="M58.733,24.6C39.96,24.6,24.6,39.96,24.6,58.733s15.36,34.133,34.133,34.133s34.133-15.36,34.133-34.133
				S77.507,24.6,58.733,24.6z M58.733,75.8c-9.387,0-17.067-7.68-17.067-17.067s7.68-17.067,17.067-17.067S75.8,49.347,75.8,58.733
				S68.12,75.8,58.733,75.8z"/>
			<path d="M135.533,24.6c-18.773,0-34.133,15.36-34.133,34.133s15.36,34.133,34.133,34.133c18.773,0,34.133-15.36,34.133-34.133
				S154.307,24.6,135.533,24.6z M135.533,75.8c-9.387,0-17.067-7.68-17.067-17.067s7.68-17.067,17.067-17.067
				s17.067,7.68,17.067,17.067S144.92,75.8,135.533,75.8z"/>
			<path d="M212.333,24.6c-18.773,0-34.133,15.36-34.133,34.133s15.36,34.133,34.133,34.133c18.773,0,34.133-15.36,34.133-34.133
				S231.107,24.6,212.333,24.6z M212.333,75.8c-9.387,0-17.067-7.68-17.067-17.067s7.68-17.067,17.067-17.067
				c9.387,0,17.067,7.68,17.067,17.067S221.72,75.8,212.333,75.8z"/>
			<path d="M-1-1v119.467V511h512V118.467V-1H-1z M16.067,16.067h477.867V101.4H16.067V16.067z M493.933,493.933H16.067V118.467
				h477.867V493.933z"/>
			<path d="M180.76,269.507c1.707,1.707,3.413,2.56,5.973,2.56s4.267-0.853,5.973-2.56l2.56-2.56v47.787
				c0,5.12,3.413,8.533,8.533,8.533h102.4c5.12,0,8.533-3.413,8.533-8.533v-47.787l2.56,2.56c1.707,1.707,3.413,2.56,5.973,2.56
				s4.267-0.853,5.973-2.56l25.6-25.6c1.707-1.707,2.56-3.413,2.56-5.973s-0.853-4.267-2.56-5.973l-93.867-93.867
				c-1.707-1.707-3.413-2.56-5.973-2.56s-4.267,0.853-5.973,2.56L155.16,231.96c-3.413,3.413-3.413,8.533,0,11.947L180.76,269.507z
				 M297.667,306.2h-85.333v-56.32L255,207.213l42.667,42.667V306.2z M255,156.013l81.92,81.92l-13.653,13.653l-11.093-11.093
				l-51.2-51.2c-0.853-1.707-2.56-2.56-4.267-2.56c0,0-0.853,0-1.707,0c-2.56,0-4.267,0.853-5.973,2.56l-51.2,51.2l-11.093,11.093
				l-13.653-13.653L255,156.013z"/>
			<path d="M92.867,383H127c5.12,0,8.533-3.413,8.533-8.533s-3.413-8.533-8.533-8.533H92.867c-5.12,0-8.533,3.413-8.533,8.533
				S87.747,383,92.867,383z"/>
			<path d="M289.133,374.467c0-5.12-3.413-8.533-8.533-8.533H161.133c-5.12,0-8.533,3.413-8.533,8.533s3.413,8.533,8.533,8.533
				H280.6C285.72,383,289.133,379.587,289.133,374.467z"/>
			<path d="M306.2,374.467c0,5.12,3.413,8.533,8.533,8.533h102.4c5.12,0,8.533-3.413,8.533-8.533s-3.413-8.533-8.533-8.533h-102.4
				C309.613,365.933,306.2,369.347,306.2,374.467z"/>
			<path d="M417.133,408.6H357.4c-5.12,0-8.533,3.413-8.533,8.533s3.413,8.533,8.533,8.533h59.733c5.12,0,8.533-3.413,8.533-8.533
				S422.253,408.6,417.133,408.6z"/>
			<path d="M220.867,425.667h102.4c5.12,0,8.533-3.413,8.533-8.533s-3.413-8.533-8.533-8.533h-102.4
				c-5.12,0-8.533,3.413-8.533,8.533S215.747,425.667,220.867,425.667z"/>
			<path d="M92.867,425.667h93.867c5.12,0,8.533-3.413,8.533-8.533s-3.413-8.533-8.533-8.533H92.867
				c-5.12,0-8.533,3.413-8.533,8.533S87.747,425.667,92.867,425.667z"/>
			<path d="M161.133,451.267H92.867c-5.12,0-8.533,3.413-8.533,8.533c0,5.12,3.413,8.533,8.533,8.533h68.267
				c5.12,0,8.533-3.413,8.533-8.533C169.667,454.68,166.253,451.267,161.133,451.267z"/>
			<path d="M255,451.267h-59.733c-5.12,0-8.533,3.413-8.533,8.533c0,5.12,3.413,8.533,8.533,8.533H255
				c5.12,0,8.533-3.413,8.533-8.533C263.533,454.68,260.12,451.267,255,451.267z"/>
			<path d="M417.133,451.267h-42.667c-5.12,0-8.533,3.413-8.533,8.533c0,5.12,3.413,8.533,8.533,8.533h42.667
				c5.12,0,8.533-3.413,8.533-8.533C425.667,454.68,422.253,451.267,417.133,451.267z"/>
			<path d="M340.333,451.267h-51.2c-5.12,0-8.533,3.413-8.533,8.533c0,5.12,3.413,8.533,8.533,8.533h51.2
				c5.12,0,8.533-3.413,8.533-8.533C348.867,454.68,345.453,451.267,340.333,451.267z"/>
		</g>
	</g>
</g>
<g>
</g>
<g>
</g>
<g>
</g>
<g>
</g>
<g>
</g>
<g>
</g>
<g>
</g>
<g>
</g>
<g>
</g>
<g>
</g>
<g>
</g>
<g>
</g>
<g>
</g>
<g>
</g>
<g>
</g>
</svg>
