<?xml version="1.0" encoding="iso-8859-1"?>
<!-- Generator: Adobe Illustrator 19.0.0, SVG Export Plug-In . SVG Version: 6.00 Build 0)  -->
<svg version="1.1" id="Layer_1" xmlns="http://www.w3.org/2000/svg" xmlns:xlink="http://www.w3.org/1999/xlink" x="0px" y="0px"
	 viewBox="0 0 511.999 511.999" style="enable-background:new 0 0 511.999 511.999;" xml:space="preserve">
<rect x="213.24" y="220.09" style="fill:#394049;" width="85.523" height="26.037"/>
<path style="fill:#E9D286;" d="M295.599,209.445c-0.823-0.259-1.713-0.556-2.68-0.88c-6.922-2.313-17.384-5.808-36.921-5.808
	s-29.997,3.495-36.92,5.808c-0.967,0.323-1.857,0.62-2.68,0.88l-4.9-15.555c0.742-0.234,1.542-0.501,2.412-0.793
	c7.443-2.488,19.901-6.65,42.088-6.65s34.646,4.162,42.088,6.65c0.87,0.29,1.67,0.559,2.411,0.793L295.599,209.445z"/>
<path style="opacity:0.1;enable-background:new    ;" d="M223.693,190.147c-3.99,1.023-7.199,2.088-9.782,2.951
	c-0.87,0.29-1.67,0.559-2.412,0.793l4.9,15.555c0.823-0.259,1.714-0.556,2.68-0.88c3.285-1.097,7.383-2.458,12.852-3.588
	C229.775,199.722,227.018,194.738,223.693,190.147z"/>
<path style="opacity:0.1;enable-background:new    ;" d="M288.306,190.147c3.99,1.023,7.199,2.088,9.782,2.951
	c0.87,0.29,1.67,0.559,2.411,0.793l-4.9,15.555c-0.823-0.259-1.713-0.556-2.68-0.88c-3.285-1.097-7.383-2.458-12.852-3.588
	C282.223,199.722,284.981,194.738,288.306,190.147z"/>
<path style="fill:#394049;" d="M118.673,210.583L2.913,268.527c-3.995,1.999-3.85,7.75,0.24,9.545l28.38,12.46
	c3.704,1.627,7.967,1.345,11.426-0.753l33.67-20.433c1.987-1.206,3.175-3.387,3.108-5.711l-0.165-5.79
	c-0.057-1.961,0.862-3.823,2.452-4.973l42.233-30.542c1.407-1.018,2.033-2.802,1.57-4.475l-1.288-4.663
	C123.842,210.67,121.014,209.412,118.673,210.583z"/>
<path style="opacity:0.2;enable-background:new    ;" d="M125.828,217.857l-1.288-4.663c-0.697-2.523-3.525-3.781-5.866-2.609
	l-95.142,47.623c1.139,11.165,3.48,21.879,6.946,31.861l1.057,0.464c3.704,1.627,7.968,1.345,11.426-0.753l33.67-20.433
	c1.987-1.207,3.175-3.387,3.108-5.711l-0.165-5.79c-0.057-1.961,0.862-3.823,2.452-4.973l42.233-30.542
	C125.664,221.314,126.29,219.53,125.828,217.857z"/>
<path style="fill:#394049;" d="M393.325,210.583l115.761,57.944c3.995,1.999,3.85,7.75-0.24,9.545l-28.38,12.46
	c-3.704,1.627-7.967,1.345-11.426-0.753l-33.67-20.433c-1.987-1.206-3.175-3.387-3.108-5.711l0.165-5.79
	c0.057-1.961-0.862-3.823-2.452-4.973l-42.233-30.542c-1.407-1.018-2.033-2.802-1.57-4.475l1.288-4.663
	C388.156,210.67,390.984,209.412,393.325,210.583z"/>
<path style="opacity:0.2;enable-background:new    ;" d="M393.325,210.583c-2.341-1.172-5.169,0.086-5.866,2.609l-1.288,4.663
	c-0.462,1.673,0.164,3.457,1.571,4.475l42.233,30.542c1.59,1.149,2.508,3.012,2.452,4.973l-0.165,5.79
	c-0.066,2.325,1.121,4.504,3.108,5.711l33.67,20.433c2.332,1.416,5.03,1.983,7.676,1.718c4.308-10.764,7.238-22.502,8.707-34.815
	L393.325,210.583z"/>
<path style="fill:#E9D286;" d="M131.739,161.045c-59.668,0-102.193,11.516-122.16,21.844c-2.92,1.51-4.727,4.548-4.727,7.836v12.796
	c0,3.804,2.417,7.213,6.033,8.391c7.839,2.554,20.534,9.132,20.534,24.953c0,30.355,8.663,58.501,24.394,79.253
	c17.028,22.464,40.662,34.835,66.547,34.835c32.708,0,61.916-12.503,82.248-35.205c18.062-20.168,28.253-47.134,28.847-76.185
	c0.526-25.72-12.332-50.132-34.476-63.223C181.812,166.191,159.187,161.045,131.739,161.045z"/>
<path style="opacity:0.2;fill:#FFFFFF;enable-background:new    ;" d="M198.976,176.339c-8.254-4.88-17.784-8.59-28.492-11.141
	L42.542,293.141c3.61,8.345,8.039,16.077,13.27,22.978c12.035,15.876,27.37,26.703,44.465,31.692L230.558,217.53
	C225.631,200.502,214.627,185.592,198.976,176.339z"/>
<path style="fill:#E9D286;" d="M380.26,161.045c59.668,0,102.193,11.516,122.16,21.844c2.92,1.51,4.727,4.548,4.727,7.836v12.796
	c0,3.804-2.417,7.213-6.033,8.391c-7.839,2.554-20.534,9.132-20.534,24.953c0,30.355-8.663,58.501-24.394,79.253
	c-17.028,22.464-40.662,34.835-66.547,34.835c-32.708,0-61.916-12.503-82.248-35.205c-18.062-20.168-28.253-47.134-28.847-76.185
	c-0.526-25.72,12.332-50.132,34.476-63.223C330.188,166.191,352.812,161.045,380.26,161.045z"/>
<path style="opacity:0.2;fill:#FFFFFF;enable-background:new    ;" d="M502.421,182.889c-11.231-5.809-29.6-11.993-54.141-16.295
	L303.613,311.261c1.222,1.526,2.475,3.029,3.779,4.487c20.331,22.702,49.54,35.205,82.248,35.205c2.867,0,5.706-0.161,8.512-0.461
	l78.268-78.268c2.724-11.202,4.162-23.094,4.162-35.359c0-15.822,12.695-22.399,20.534-24.953c3.617-1.179,6.033-4.587,6.033-8.391
	v-12.796C507.148,187.437,505.341,184.399,502.421,182.889z"/>
<path style="fill:#72649C;" d="M208.957,236.864c0,47.309-31.453,89.565-86.599,89.565c-36.785,0-66.417-37.147-66.417-89.565
	c0-34.912,33.151-51.295,75.798-51.295C174.385,185.569,208.957,199.907,208.957,236.864z"/>
<path style="opacity:0.1;enable-background:new    ;" d="M208.869,234.953c-1.854,45.534-33.047,85.251-86.51,85.251
	c-35.7,0-64.658-34.989-66.336-84.967c-0.039,0.762-0.061,1.533-0.07,2.311c0.259,52.055,29.782,88.881,66.406,88.881
	c54.833,0,86.236-41.778,86.59-88.76C208.943,236.75,208.915,235.845,208.869,234.953z"/>
<path style="fill:#72649C;" d="M303.041,236.864c0,47.309,31.453,89.565,86.599,89.565c36.785,0,66.417-37.147,66.417-89.565
	c0-34.912-33.151-51.295-75.798-51.295C337.613,185.569,303.041,199.907,303.041,236.864z"/>
<path style="opacity:0.1;enable-background:new    ;" d="M303.13,234.953c1.854,45.534,33.047,85.251,86.51,85.251
	c35.7,0,64.658-34.989,66.336-84.967c0.039,0.762,0.061,1.533,0.07,2.311c-0.259,52.055-29.782,88.881-66.406,88.881
	c-54.832,0-86.236-41.778-86.59-88.76C303.055,236.75,303.083,235.845,303.13,234.953z"/>
<g>
	<path style="opacity:0.2;fill:#FFFFFF;enable-background:new    ;" d="M440.231,202.517L334.718,308.03
		c14.058,11.437,32.538,18.399,54.923,18.399c36.786,0,66.418-37.147,66.418-89.565
		C456.058,222.192,450.185,210.804,440.231,202.517z"/>
	<path style="opacity:0.2;fill:#FFFFFF;enable-background:new    ;" d="M131.739,185.569c-42.647,0-75.798,16.383-75.798,51.295
		c0,23.317,5.873,43.598,15.622,58.947l103.644-103.644C162.823,187.623,147.86,185.569,131.739,185.569z"/>
</g>
<g>
</g>
<g>
</g>
<g>
</g>
<g>
</g>
<g>
</g>
<g>
</g>
<g>
</g>
<g>
</g>
<g>
</g>
<g>
</g>
<g>
</g>
<g>
</g>
<g>
</g>
<g>
</g>
<g>
</g>
</svg>
