<?xml version="1.0" encoding="iso-8859-1"?>
<!-- Generator: Adobe Illustrator 18.0.0, SVG Export Plug-In . SVG Version: 6.00 Build 0)  -->
<!DOCTYPE svg PUBLIC "-//W3C//DTD SVG 1.1//EN" "http://www.w3.org/Graphics/SVG/1.1/DTD/svg11.dtd">
<svg version="1.1" id="Capa_1" xmlns="http://www.w3.org/2000/svg" xmlns:xlink="http://www.w3.org/1999/xlink" x="0px" y="0px"
	 viewBox="0 0 459.732 459.732" style="enable-background:new 0 0 459.732 459.732;" xml:space="preserve">
<g id="XMLID_13_">
	<path id="XMLID_25_" d="M196.137,75.451c-0.189-0.112-0.373-0.232-0.562-0.345c0.193,18.904,15.57,34.171,34.519,34.171
		c18.945,0,34.319-15.259,34.519-34.157c-8.515,5.109-20.59,10.304-34.519,10.304C218.933,85.424,207.191,81.975,196.137,75.451z"/>
	<path id="XMLID_464_" d="M187.813,45.935c0,0,23.465,20.08,42.282,20.08c18.817,0,42.282-20.08,42.282-20.08
		c1.745-1.173,2.555-3.323,2.019-5.356l-4.81-18.257c-0.617-2.342-2.202-4.311-4.359-5.413L233.97,0.933
		C232.753,0.311,231.424,0,230.095,0c-1.329,0-2.659,0.311-3.876,0.933L194.962,16.91c-2.156,1.102-3.742,3.071-4.359,5.413
		l-4.81,18.257C185.258,42.612,186.068,44.762,187.813,45.935z M220.552,23.303h19.085c5.36,0,9.704,4.345,9.704,9.704
		c0,5.36-4.345,9.705-9.704,9.705h-19.085c-5.36,0-9.704-4.345-9.704-9.705C210.848,27.647,215.192,23.303,220.552,23.303z"/>
	<path id="XMLID_468_" d="M145.017,281.906c-0.046,9.201,7.375,16.698,16.576,16.744c0.029,0,0.057,0,0.086,0
		c9.161,0,16.612-7.404,16.658-16.576l0.045-9.055h-33.32L145.017,281.906z"/>
	<path id="XMLID_1079_" d="M314.67,273.019h-33.32l0.046,9.055c0.046,9.173,7.495,16.577,16.658,16.577c0.028,0,0.057,0,0.086,0
		c9.201-0.046,16.622-7.542,16.576-16.744L314.67,273.019z"/>
	<path id="XMLID_1083_" d="M314.1,159.511c-0.108-21.63-17.795-39.228-39.426-39.228c-4.825,0-63.5,0-89.617,0
		c-21.63,0-39.317,17.598-39.425,39.228l-0.473,94.099h33.32l0.472-93.931c0.01-1.823,1.492-3.294,3.314-3.289
		c1.822,0.005,3.296,1.484,3.296,3.306l0.008,280.045c0,11.041,8.951,19.992,19.992,19.992c11.041,0,19.992-8.951,19.992-19.992
		V284.257c0-2.384,1.932-4.316,4.316-4.316c2.384,0,4.316,1.932,4.316,4.316V439.74c0,11.041,8.951,19.992,19.992,19.992
		c11.041,0,19.992-8.951,19.992-19.992l-0.355-279.934c-0.002-1.901,1.519-3.452,3.419-3.488c1.9-0.035,3.479,1.459,3.546,3.36
		c0-0.001,0-0.001,0,0l0.472,93.931h33.32L314.1,159.511z M243.696,209.192c0.223,1.604-0.263,3.226-1.331,4.443l-10.324,11.76
		c-0.492,0.56-1.201,0.881-1.946,0.881c-0.745,0-1.454-0.321-1.946-0.881l-10.324-11.76c-1.068-1.217-1.554-2.839-1.331-4.443
		c2.152-15.47,7.25-52.11,8.18-58.795l-7.012-16.6c-0.721-1.706,0.535-3.597,2.385-3.597h20.096c1.852,0,3.105,1.893,2.385,3.597
		l-7.012,16.6C236.558,157.882,242.74,202.319,243.696,209.192z"/>
</g>
<g>
</g>
<g>
</g>
<g>
</g>
<g>
</g>
<g>
</g>
<g>
</g>
<g>
</g>
<g>
</g>
<g>
</g>
<g>
</g>
<g>
</g>
<g>
</g>
<g>
</g>
<g>
</g>
<g>
</g>
</svg>
