<?xml version="1.0" encoding="iso-8859-1"?>
<!-- Generator: Adobe Illustrator 19.0.0, SVG Export Plug-In . SVG Version: 6.00 Build 0)  -->
<svg version="1.1" id="Layer_1" xmlns="http://www.w3.org/2000/svg" xmlns:xlink="http://www.w3.org/1999/xlink" x="0px" y="0px"
	 viewBox="0 0 502 502" style="enable-background:new 0 0 502 502;" xml:space="preserve">
<g>
	<g>
		<path style="fill:#D1E2EB;" d="M251,10C117.899,10,10,117.899,10,251s107.899,241,241,241s241-107.899,241-241S384.101,10,251,10z
			 M251,330c-43.63,0-79-35.37-79-79s35.37-79,79-79s79,35.37,79,79S294.63,330,251,330z"/>
		<path d="M251,502c-67.044,0-130.076-26.108-177.484-73.517C26.108,381.076,0,318.045,0,251S26.108,120.924,73.516,73.517
			C120.924,26.108,183.956,0,251,0c67.045,0,130.076,26.108,177.483,73.517C475.892,120.924,502,183.955,502,251
			s-26.108,130.076-73.517,177.483C381.076,475.892,318.045,502,251,502z M251,20C123.626,20,20,123.626,20,251s103.626,231,231,231
			s231-103.626,231-231S378.374,20,251,20z M251,340c-49.075,0-89-39.925-89-89s39.925-89,89-89s89,39.925,89,89
			S300.075,340,251,340z M251,182c-38.047,0-69,30.953-69,69s30.953,69,69,69s69-30.953,69-69S289.047,182,251,182z"/>
	</g>
	<g>
		<path style="fill:#4EC9DC;" d="M251,172c-43.63,0-79,35.37-79,79s35.37,79,79,79s79-35.37,79-79S294.63,172,251,172z M251,275
			c-13.255,0-24-10.745-24-24s10.745-24,24-24s24,10.745,24,24S264.255,275,251,275z"/>
		<path d="M251,340c-49.075,0-89-39.925-89-89s39.925-89,89-89s89,39.925,89,89S300.075,340,251,340z M251,182
			c-38.047,0-69,30.953-69,69s30.953,69,69,69s69-30.953,69-69S289.047,182,251,182z M251,285c-18.748,0-34-15.252-34-34
			s15.252-34,34-34s34,15.252,34,34S269.748,285,251,285z M251,237c-7.72,0-14,6.28-14,14s6.28,14,14,14s14-6.28,14-14
			S258.72,237,251,237z"/>
	</g>
	<g>
		<path d="M48,261c-5.523,0-10-4.478-10-10c0-40.454,11.391-79.819,32.941-113.838c20.967-33.098,50.574-59.77,85.619-77.132
			c4.951-2.449,10.949-0.428,13.4,4.521c2.452,4.949,0.428,10.948-4.521,13.4C99.168,110.784,58,177.092,58,251
			C58,256.522,53.523,261,48,261z M213.989,61.366c-4.731,0-8.936-3.371-9.823-8.19c-1-5.432,2.591-10.646,8.023-11.646
			C224.903,39.188,237.961,38,251,38c5.522,0,10,4.478,10,10s-4.478,10-10,10c-11.827,0-23.666,1.076-35.188,3.199
			C215.199,61.312,214.59,61.366,213.989,61.366z"/>
	</g>
</g>
<g>
</g>
<g>
</g>
<g>
</g>
<g>
</g>
<g>
</g>
<g>
</g>
<g>
</g>
<g>
</g>
<g>
</g>
<g>
</g>
<g>
</g>
<g>
</g>
<g>
</g>
<g>
</g>
<g>
</g>
</svg>
