<?xml version="1.0" encoding="iso-8859-1"?>
<!-- Generator: Adobe Illustrator 19.0.0, SVG Export Plug-In . SVG Version: 6.00 Build 0)  -->
<svg version="1.1" id="Layer_1" xmlns="http://www.w3.org/2000/svg" xmlns:xlink="http://www.w3.org/1999/xlink" x="0px" y="0px"
	 viewBox="0 0 512 512" style="enable-background:new 0 0 512 512;" xml:space="preserve">
<polygon style="fill:#FFAD00;" points="256,426.932 310.231,447.925 310.231,371.812 235.65,353.052 "/>
<polygon style="fill:#FFCE2A;" points="201.769,371.812 201.769,447.925 256,426.932 256,353.052 "/>
<polygon style="fill:#53B400;" points="256,221.584 310.231,242.576 310.231,166.463 235.65,147.704 "/>
<polygon style="fill:#6CD800;" points="201.769,166.463 201.769,242.576 256,221.584 256,147.704 "/>
<path style="fill:#FD5F00;" d="M34.856,88.748l-9.275,46.627c24.492,7.908,60.016,17.276,105.821,23.952l9.221-46.357
	C92.801,106.186,57.254,96.313,34.856,88.748z"/>
<path style="fill:#6CD800;" d="M34.856,294.096l-9.275,46.627c24.492,7.908,60.016,17.276,105.821,23.952l9.221-46.357
	C92.801,311.535,57.254,301.661,34.856,294.096z"/>
<path style="fill:#FFCE2A;" d="M310.231,371.812v-47.314c-17.03,1.062-35.106,1.671-54.231,1.671l-20.35,22.78L256,373.401
	C275.02,373.401,293.1,372.829,310.231,371.812z"/>
<path style="fill:#6CD800;" d="M256,120.821l-20.35,19.942L256,168.054c19.021,0,37.101-0.573,54.231-1.59v-47.314
	C293.2,120.213,275.125,120.821,256,120.821z"/>
<path style="fill:#93F340;" d="M256,120.821c-19.125,0-37.201-0.608-54.231-1.671v47.314c17.13,1.016,35.21,1.59,54.231,1.59
	V120.821z"/>
<path style="fill:#FDEB95;" d="M201.769,371.812c17.13,1.016,35.21,1.59,54.231,1.59V326.17c-19.125,0-37.201-0.608-54.231-1.671
	V371.812z"/>
<polygon style="fill:#CC3300;" points="443.79,406.431 501.074,416.441 486.225,341.791 409.418,337.941 "/>
<g>
	<polygon style="fill:#FD5F00;" points="379.849,362.95 394.697,437.601 443.79,406.431 429.377,333.97 	"/>
	<path style="fill:#FD5F00;" d="M486.225,341.791l-9.23-46.404c-16.496,4.364-34.105,8.487-52.862,12.218l-15.515,26.313
		l24.73,20.012C452.002,350.219,469.623,346.13,486.225,341.791z"/>
</g>
<path style="fill:#FD8A45;" d="M379.849,362.95c16.999-2.345,34.843-5.31,53.498-9.021l-9.215-46.325
	c-18.758,3.731-36.604,6.661-53.514,8.941L379.849,362.95z"/>
<polygon style="fill:#FFAD00;" points="443.79,201.084 501.074,211.093 486.225,136.443 409.418,132.593 "/>
<g>
	<polygon style="fill:#FFCE2A;" points="379.849,157.602 394.697,232.253 443.79,201.084 429.377,128.623 	"/>
	<path style="fill:#FFCE2A;" d="M486.225,136.443l-9.23-46.404c-16.496,4.364-34.105,8.487-52.862,12.218l-15.515,26.313
		l24.73,20.012C452.002,144.871,469.623,140.781,486.225,136.443z"/>
</g>
<path style="fill:#FDEB95;" d="M379.849,157.602c16.999-2.345,34.843-5.31,53.498-9.021l-9.215-46.325
	c-18.758,3.731-36.604,6.661-53.514,8.941L379.849,157.602z"/>
<polygon style="fill:#6CD800;" points="68.209,406.431 10.925,416.441 25.775,341.791 102.581,337.941 "/>
<polygon style="fill:#53B400;" points="132.151,362.95 117.303,437.601 68.209,406.431 82.623,333.97 "/>
<path style="fill:#93F340;" d="M25.775,341.791l9.23-46.404c16.496,4.364,34.105,8.487,52.862,12.218l15.515,26.313l-24.73,20.012
	C59.997,350.219,42.376,346.13,25.775,341.791z"/>
<path style="fill:#6CD800;" d="M132.151,362.95c-16.999-2.345-34.843-5.31-53.498-9.021l9.215-46.325
	c18.758,3.731,36.604,6.661,53.514,8.941L132.151,362.95z"/>
<polygon style="fill:#CC3300;" points="68.209,201.084 10.925,211.093 25.775,136.443 102.581,132.593 "/>
<g>
	<polygon style="fill:#FD5F00;" points="132.151,157.602 117.303,232.253 68.209,201.084 82.623,128.623 	"/>
	<path style="fill:#FD5F00;" d="M25.775,136.443l9.23-46.404c16.496,4.364,34.105,8.487,52.862,12.218l15.515,26.313l-24.73,20.012
		C59.997,144.871,42.376,140.781,25.775,136.443z"/>
</g>
<path style="fill:#FD8A45;" d="M132.151,157.602c-16.999-2.345-34.843-5.31-53.498-9.021l9.215-46.325
	c18.758,3.731,36.604,6.661,53.514,8.941L132.151,157.602z"/>
<g>
	<path style="fill:#983300;" d="M256,136.082c-46.963,0-117.88-3.815-189.029-21.992C23.822,103.067,0.952,91.952,0,91.484
		l13.455-27.398c0.828,0.403,87.002,41.472,242.545,41.472S497.717,64.49,498.57,64.075L512,91.484
		c-0.952,0.468-23.822,11.583-66.971,22.605C405.758,124.122,341.084,136.082,256,136.082z"/>
	<path style="fill:#983300;" d="M256,341.43c-46.963,0-117.88-3.815-189.029-21.992C23.822,308.415,0.952,297.301,0,296.833
		l13.455-27.398c0.828,0.403,87.002,41.472,242.545,41.472s241.717-41.068,242.57-41.483L512,296.833
		c-0.952,0.468-23.822,11.583-66.971,22.605C405.758,329.47,341.084,341.43,256,341.43z"/>
</g>
<g>
</g>
<g>
</g>
<g>
</g>
<g>
</g>
<g>
</g>
<g>
</g>
<g>
</g>
<g>
</g>
<g>
</g>
<g>
</g>
<g>
</g>
<g>
</g>
<g>
</g>
<g>
</g>
<g>
</g>
</svg>
