<?xml version="1.0" encoding="iso-8859-1"?>
<!-- Generator: Adobe Illustrator 19.0.0, SVG Export Plug-In . SVG Version: 6.00 Build 0)  -->
<svg version="1.1" id="Layer_1" xmlns="http://www.w3.org/2000/svg" xmlns:xlink="http://www.w3.org/1999/xlink" x="0px" y="0px"
	 viewBox="0 0 511.999 511.999" style="enable-background:new 0 0 511.999 511.999;" xml:space="preserve">
<g>
	<path style="fill:#FF5F7B;" d="M170.547,408.947v-60.522l-31.524-28.775c-4.359-3.938-5.613-10.202-3.347-15.623
		c7.839-18.758,17.513-35.446,28.111-49.366c-11.763-3.555-21.653-7.614-27.728-12.184c-14.005-10.533-23.051-25.89-25.506-43.238
		c-2.455-17.352,1.717-34.62,12.25-48.624c11.448-15.219,28.688-24.745,47.744-26.081V48.572c-6.93-1.85-15.382-2.864-23.879-2.864
		c-12.09,0-25.22,2.02-39.19,6.483C30.329,76.874-49.466,228.371,170.547,408.947z"/>
	<path style="fill:#FF5F7B;" d="M403.852,52.191c-15.079-4.814-29.39-7.037-42.582-7.037c-6.602,0-12.286,0.563-19.216,1.628v77.853
		c19.056,1.635,35.945,11.072,47.161,25.982c10.533,14.005,15.127,31.271,12.672,48.621c-2.455,17.348-11.448,32.706-25.452,43.238
		c-6.159,4.632-16.231,8.74-28.2,12.326c10.557,13.894,20.137,30.528,27.948,49.224c2.266,5.421,0.587,11.683-3.771,15.623
		l-30.36,27.209v60.677C562.065,227.581,480.766,76.81,403.852,52.191z"/>
</g>
<g>
	<path style="fill:#FFFFFF;" d="M256.012,466.845c3.075,0,5.862-0.877,8.544-2.623c17.998-11.733,34.187-23.391,49.778-34.946
		v-57.345l-12.69,11.739c-2.583,2.339-5.764,3.583-9.154,3.583c-1.346,0-2.633-0.196-3.958-0.599
		c-4.657-1.417-8.194-5.176-9.376-9.901c-0.18-0.724-12.61-50.508-23.164-92.532c-10.555,42.024-22.992,91.808-23.174,92.532
		c-1.181,4.724-4.75,8.482-9.407,9.901c-1.327,0.402-2.683,0.599-4.03,0.599c-3.39,0-7.002-1.246-9.585-3.583l-11.532-10.171v57.078
		c15.591,11.129,31.304,22.349,48.626,33.645C249.573,465.969,252.937,466.845,256.012,466.845z"/>
	<path style="fill:#FFFFFF;" d="M198.265,128.603c6.93,2.207,11.493,5.253,16.508,9.1c13.393,10.276,25.08,25.979,34.59,42.606
		c2.167-0.348,4.53-0.535,6.794-0.535h1.438c1.895,0,3.756,0.139,5.585,0.383c9.493-16.568,20.718-32.212,34.072-42.454
		c5.348-4.104,11.886-7.283,17.083-9.518V55.774c-19.056,9.324-34.445,24.243-46.527,42.606c-3.2,4.863-8.257,7.349-13.454,7.349
		c-4.745,0-9.705-2.074-12.918-6.308c-12.052-15.876-25.847-29.878-43.171-39.606v68.788H198.265z"/>
</g>
<path d="M510.393,152.869c-4.147-30.76-16.189-59.23-34.828-82.331c-17.244-21.374-39.609-37.267-62.977-44.744
	c-17.369-5.545-34.485-8.357-50.887-8.357c-42.501,0-80.221,18.748-107.662,53.149c-30.554-34.911-66.516-52.59-107.08-52.593
	c-15.311,0-31.287,2.623-47.483,7.799c-23.384,7.48-45.757,23.37-63.007,44.747c-18.644,23.101-30.691,51.57-34.842,82.33
	c-6.696,49.65,7.352,103.811,40.626,156.628c38.457,61.042,102.313,120.912,189.788,177.945c7.146,4.658,15.434,7.122,23.971,7.122
	c8.537,0,16.825-2.463,23.971-7.122c22.4-14.606,43.238-28.754,62.511-44.345h-0.442v-0.106
	c57.169-43.396,98.839-88.121,127.425-133.499C502.75,256.68,517.087,202.519,510.393,152.869z M241.508,99.421
	c3.214,4.232,8.101,6.308,12.846,6.308c5.197,0,10.183-2.488,13.383-7.349c12.082-18.363,27.543-33.283,46.599-42.606v72.412
	c-5.197,2.235-11.735,5.415-17.083,9.518c-13.353,10.244-24.721,25.885-34.216,42.454c-1.829-0.244-3.546-0.383-5.44-0.383h-1.438
	c-2.264,0-4.483,0.185-6.651,0.535c-9.511-16.627-21.341-32.33-34.734-42.606c-5.015-3.848-9.578-6.891-16.508-9.1V59.815
	C215.589,69.543,229.456,83.546,241.508,99.421z M271.025,231.6c0,7.735-6.271,14.005-14.006,14.005h-1.438
	c-7.735,0-14.006-6.27-14.006-14.005v-10.103c0-7.735,6.271-14.005,14.006-14.005h1.438c7.735,0,14.006,6.269,14.006,14.005V231.6z
	 M198.19,159.696c9.902,7.596,18.741,20.03,26.679,33.882c-6.664,7.394-11.013,17.182-11.013,27.919V231.6
	c0,2.094,0.447,4.151,0.745,6.164c-28.044-4.968-53.789-11.267-61.992-17.436c-8.087-6.084-13.251-14.952-14.666-24.971
	c-1.417-10.018,1.188-19.99,7.273-28.077c7.16-9.521,18.557-15.205,30.457-15.205C183.891,152.073,191.689,154.71,198.19,159.696z
	 M193.762,262.045c12.87,2.649,25.989,4.83,37.598,6.547c-6.685,26.596-14.611,58.234-19.813,79.024l-46.18-41.773
	C172.92,289.993,182.886,274.329,193.762,262.045z M300.475,347.616c-5.199-20.768-13.112-52.365-19.794-78.943
	c11.598-1.706,24.747-3.882,37.664-6.529c10.841,12.272,20.775,27.893,28.311,43.699L300.475,347.616z M298.603,237.549
	c0.277-1.944,0.142-3.929,0.142-5.949v-10.103c0-11.118-4.069-21.215-11.162-28.692c7.832-13.53,16.95-25.641,26.686-33.108
	c6.502-4.988,14.353-7.622,22.571-7.622c11.9,0,23.314,5.684,30.476,15.205c6.084,8.087,8.671,18.058,7.253,28.077
	c-1.417,10.018-6.789,18.886-14.876,24.971C351.61,226.403,326.192,232.612,298.603,237.549z M198.265,373.499l11.534,10.171
	c2.583,2.339,6.051,3.583,9.441,3.583c1.346,0,2.777-0.196,4.104-0.599c4.658-1.417,8.267-5.176,9.448-9.901
	c0.18-0.724,12.645-50.508,23.2-92.532c10.555,42.024,23.009,91.808,23.191,92.532c1.181,4.724,4.759,8.482,9.415,9.901
	c1.327,0.402,2.687,0.599,4.033,0.599c3.39,0,6.427-1.246,9.01-3.583l12.69-11.739v57.345
	c-15.591,11.555-31.781,23.212-49.778,34.946c-2.682,1.746-5.613,2.623-8.688,2.623s-6.368-0.877-9.05-2.623
	c-17.322-11.295-32.962-22.516-48.553-33.645v-57.079H198.265z M170.547,48.572v75.963c-19.056,1.336-36.288,10.862-47.736,26.081
	c-10.533,14.005-14.84,31.275-12.385,48.624c2.455,17.348,11.591,32.706,25.596,43.238c6.077,4.572,16.038,8.629,27.801,12.184
	c-10.599,13.92-20.182,30.608-28.021,49.366c-2.266,5.421-1.145,11.683,3.212,15.623l31.533,28.775v60.522
	C-49.466,228.373,30.473,76.874,107.621,52.191c13.97-4.463,26.812-6.483,38.902-6.483
	C155.021,45.709,163.617,46.722,170.547,48.572z M342.052,346.859l30.369-27.209c4.359-3.938,5.901-10.202,3.636-15.623
	c-7.813-18.696-17.303-35.332-27.858-49.224c11.969-3.586,22.114-7.693,28.272-12.326c14.005-10.533,23.087-25.89,25.542-43.238
	c2.455-17.352-2.275-34.616-12.807-48.621c-11.215-14.911-28.096-24.347-47.152-25.982V46.783c6.93-1.065,12.757-1.628,19.359-1.628
	c13.192,0,27.216,2.223,42.294,7.037c76.914,24.619,158.359,175.39-61.654,355.346v-60.678H342.052z"/>
<g>
	<path style="fill:#FFFFFF;" d="M346.657,305.843c-7.536-15.806-17.469-31.427-28.311-43.699
		c-12.917,2.645-26.065,4.821-37.664,6.529c6.68,26.58,14.595,58.175,19.794,78.943L346.657,305.843z"/>
	<path style="fill:#FFFFFF;" d="M165.365,305.843l46.18,41.773c5.204-20.79,13.128-52.429,19.813-79.024
		c-11.609-1.717-24.728-3.898-37.598-6.547C182.886,274.329,172.92,289.993,165.365,305.843z"/>
	<path style="fill:#FFFFFF;" d="M359.846,220.326c8.087-6.084,13.322-14.952,14.741-24.971c1.415-10.018-1.152-19.99-7.236-28.077
		c-7.162-9.521-18.54-15.205-30.44-15.205c-8.218,0-15.997,2.635-22.498,7.622c-9.734,7.468-18.997,19.579-26.829,33.108
		c7.092,7.477,11.162,17.575,11.162,28.692v10.103c0,2.02,0.137,4.004-0.142,5.949C326.192,232.612,351.764,226.403,359.846,220.326
		z"/>
	<path style="fill:#FFFFFF;" d="M145.252,167.278c-6.084,8.087-8.653,18.058-7.236,28.077c1.415,10.018,6.652,18.886,14.739,24.971
		c8.203,6.171,33.802,12.468,61.848,17.436c-0.298-2.011-0.745-4.069-0.745-6.164v-10.103c0-10.737,4.348-20.527,11.013-27.919
		c-7.938-13.85-16.92-26.285-26.822-33.882c-6.502-4.988-14.209-7.622-22.429-7.622C163.718,152.073,152.41,157.757,145.252,167.278
		z"/>
	<path style="fill:#FFFFFF;" d="M271.025,221.497c0-7.735-6.271-14.005-14.006-14.005h-1.438c-7.735,0-14.006,6.27-14.006,14.005
		V231.6c0,7.735,6.271,14.005,14.006,14.005h1.438c7.735,0,14.006-6.27,14.006-14.005V221.497z"/>
</g>
<g>
</g>
<g>
</g>
<g>
</g>
<g>
</g>
<g>
</g>
<g>
</g>
<g>
</g>
<g>
</g>
<g>
</g>
<g>
</g>
<g>
</g>
<g>
</g>
<g>
</g>
<g>
</g>
<g>
</g>
</svg>
