<?xml version="1.0" encoding="iso-8859-1"?>
<!-- Generator: Adobe Illustrator 19.0.0, SVG Export Plug-In . SVG Version: 6.00 Build 0)  -->
<svg version="1.1" id="Layer_1" xmlns="http://www.w3.org/2000/svg" xmlns:xlink="http://www.w3.org/1999/xlink" x="0px" y="0px"
	 viewBox="0 0 460.5 460.5" style="enable-background:new 0 0 460.5 460.5;" xml:space="preserve">
<g>
	<path style="fill:#FF1909;" d="M154.971,447.471l292.5-292.5C416.363,64.788,330.752,0,230,0C102.975,0,0,102.975,0,230
		C0,330.752,64.788,416.363,154.971,447.471z"/>
	<path style="fill:#AA1106;stroke:#FF1909;stroke-miterlimit:10;" d="M65.75,358.25l89.221,89.221
		C178.488,455.583,203.727,460,230,460c127.026,0,230-102.975,230-230c0-26.273-4.417-51.512-12.529-75.029L394.25,101.75
		L65.75,358.25z"/>
	<polygon style="fill:#FFC240;" points="180,50 180,100 200,100 200,70 230,70 240,60 230,50 	"/>
	<polygon style="fill:#FF984C;" points="230,50 230,70 260,70 260,100 280,100 280,50 	"/>
	<path style="fill:#FF984C;" d="M94,90c-22,0-40,18-40,40v200c0,22,18,40,40,40h136l10-140L230,90H94z"/>
	<path style="fill:#FF6E36;" d="M366,90H230v280h136c22,0,40-18,40-40V130C406,108,388,90,366,90z"/>
	<rect x="114" y="80" style="fill:#FFD170;" width="30" height="300"/>
	<rect x="316" y="80" style="fill:#FFC240;" width="30" height="300"/>
	<rect x="104" y="120" style="fill:#FFC240;" width="50" height="30"/>
	<rect x="306" y="120" style="fill:#FF984C;" width="50" height="30"/>
</g>
<g>
</g>
<g>
</g>
<g>
</g>
<g>
</g>
<g>
</g>
<g>
</g>
<g>
</g>
<g>
</g>
<g>
</g>
<g>
</g>
<g>
</g>
<g>
</g>
<g>
</g>
<g>
</g>
<g>
</g>
</svg>
