<?xml version="1.0" encoding="iso-8859-1"?>
<!-- Generator: Adobe Illustrator 19.0.0, SVG Export Plug-In . SVG Version: 6.00 Build 0)  -->
<svg version="1.1" id="Layer_1" xmlns="http://www.w3.org/2000/svg" xmlns:xlink="http://www.w3.org/1999/xlink" x="0px" y="0px"
	 viewBox="0 0 512 512" style="enable-background:new 0 0 512 512;" xml:space="preserve">
<polygon style="fill:#D68231;" points="398.289,288.236 377.086,261.327 283.993,334.678 283.993,204.122 220.387,204.122 
	220.387,379.56 135.136,310.075 113.491,336.632 220.387,423.757 220.387,497.078 283.993,497.078 283.993,378.295 "/>
<path style="opacity:0.2;enable-background:new    ;" d="M135.136,310.075l-21.645,26.556l48.072,39.181
	c10.587-5.775,18.782-14.77,22.954-25.488L135.136,310.075z"/>
<path style="opacity:0.2;enable-background:new    ;" d="M377.086,261.327l-50.405,39.716c3.616,10.976,11.395,20.321,21.685,26.531
	l49.922-39.337L377.086,261.327z"/>
<path style="opacity:0.2;enable-background:new    ;" d="M220.387,204.122v107.579c10.423,1.444,21.05,2.191,31.802,2.191
	c10.754,0,21.38-0.747,31.804-2.191V204.122H220.387z"/>
<ellipse style="fill:#00AD68;" cx="252.191" cy="143.564" rx="170.828" ry="143.564"/>
<ellipse style="fill:#7CDFA8;" cx="387.685" cy="274.781" rx="53.614" ry="48.575"/>
<g>
	<ellipse style="fill:#218649;" cx="124.315" cy="323.356" rx="53.614" ry="48.575"/>
	<path style="fill:#218649;" d="M333.894,490.587c0-5.888-4.818-10.706-10.707-10.706H181.191c-5.888,0-10.706,4.818-10.706,10.706
		v10.707c0,5.888,4.818,10.706,10.706,10.706h141.998c5.889,0,10.707-4.818,10.707-10.706v-10.707H333.894z"/>
</g>
<path style="fill:#7CDFA8;" d="M179.076,186.671c-9.567-9.569-40.755-19.079-42.348-17.486c-1.592,1.593,7.919,32.78,17.486,42.349
	c9.569,9.567,22.891,11.759,29.756,4.893C190.835,209.562,188.644,196.24,179.076,186.671z"/>
<g>
	<path style="fill:#218649;" d="M315.609,200.006c9.568-9.568,19.078-40.756,17.486-42.348c-1.593-1.593-32.781,7.918-42.348,17.486
		c-9.568,9.569-11.76,22.89-4.894,29.755C292.718,211.765,306.041,209.575,315.609,200.006z"/>
	<path style="fill:#218649;" d="M232.529,88.963c0-13.531-15.328-42.31-17.579-42.31c-2.252,0-17.58,28.778-17.58,42.31
		s7.872,24.501,17.58,24.501C224.659,113.464,232.529,102.496,232.529,88.963z"/>
</g>
<path style="fill:#7CDFA8;" d="M352.787,115.818c9.569-9.568,19.079-40.756,17.487-42.348s-32.781,7.919-42.348,17.485
	c-9.569,9.569-11.759,22.892-4.894,29.756C329.898,127.577,343.22,125.387,352.787,115.818z"/>
<g>
</g>
<g>
</g>
<g>
</g>
<g>
</g>
<g>
</g>
<g>
</g>
<g>
</g>
<g>
</g>
<g>
</g>
<g>
</g>
<g>
</g>
<g>
</g>
<g>
</g>
<g>
</g>
<g>
</g>
</svg>
