<?xml version="1.0" encoding="iso-8859-1"?>
<!-- Generator: Adobe Illustrator 16.0.0, SVG Export Plug-In . SVG Version: 6.00 Build 0)  -->
<!DOCTYPE svg PUBLIC "-//W3C//DTD SVG 1.1//EN" "http://www.w3.org/Graphics/SVG/1.1/DTD/svg11.dtd">
<svg version="1.1" id="Capa_1" xmlns="http://www.w3.org/2000/svg" xmlns:xlink="http://www.w3.org/1999/xlink" x="0px" y="0px"
	 width="45.583px" height="45.583px" viewBox="0 0 45.583 45.583" style="enable-background:new 0 0 45.583 45.583;"
	 xml:space="preserve">
<g>
	<g>
		<path d="M5.801,19.781c0.417,0.528,1.991,2.52,2.379,3.011c0.388-0.49,1.962-2.482,2.38-3.011
			c-0.417-0.528-1.991-2.519-2.38-3.011C7.793,17.262,6.219,19.254,5.801,19.781z"/>
		<path d="M1.917,13.798c0.35,0.904,0.7,1.745,1.128,2.116L4.534,17.8l1.572-1.985c0.235-0.294,0.478-0.598,0.681-0.95
			c0.206-0.321,0.377-0.562,0.479-0.7l0.172-0.235l-0.153-0.25c-0.213-0.346-0.702-1.204-1.18-2.222
			C5.638,10.477,5.152,9.28,4.939,8.729L4.655,7.991L4.186,8.627c-0.062,0.083-0.621,0.85-1.207,1.928
			c-0.497,0.896-1.001,1.995-1.22,2.503L1.684,13.23l0.076,0.173C1.801,13.498,1.854,13.636,1.917,13.798z M3.739,10.973
			c0.251-0.463,0.496-0.864,0.695-1.172c0.225,0.551,0.549,1.316,0.889,2.027c0.403,0.859,0.817,1.614,1.076,2.059
			c-0.097,0.139-0.216,0.314-0.352,0.527c-0.181,0.313-0.393,0.577-0.617,0.857l-0.895,1.13L3.697,15.34l-0.074-0.072
			c-0.297-0.231-0.703-1.278-0.898-1.782c-0.035-0.092-0.068-0.177-0.098-0.251C2.867,12.693,3.305,11.753,3.739,10.973z"/>
		<path d="M11.191,6.359c1.018,0.477,1.875,0.964,2.222,1.178l0.248,0.152l0.235-0.171c0.138-0.102,0.379-0.273,0.682-0.469
			c0.403-0.232,0.741-0.505,1.035-0.744l1.922-1.521l-2.417-1.907c-0.04-0.033-0.08-0.063-0.182-0.121l-1.988-0.818L12.781,2.01
			c-0.143,0.062-1.425,0.622-2.498,1.217c-1.104,0.601-1.85,1.15-1.931,1.212L7.726,4.907l0.73,0.283
			C8.709,5.289,10.036,5.809,11.191,6.359z M10.701,3.988c0.86-0.478,1.86-0.933,2.261-1.109l1.043,0.422l0.607,0.282l1.524,1.204
			L15.072,5.63c-0.287,0.23-0.583,0.471-0.945,0.68c-0.2,0.129-0.371,0.245-0.508,0.341c-0.444-0.259-1.198-0.673-2.058-1.075
			c-0.707-0.337-1.476-0.662-2.035-0.891C9.85,4.477,10.253,4.231,10.701,3.988z"/>
		<path d="M8.18,11.521c0.195-0.147,0.685-0.469,1.179-0.6c0.494-0.149,0.992-0.105,1.201-0.063
			c-0.019-0.034-0.037-0.068-0.037-0.084c-0.148-0.78,0.053-1.562,0.603-2.342C9.716,7.658,7.96,6.883,6.633,6.883L5.801,6.151
			c0.208,0.572,0.706,1.877,1.2,2.981C7.495,10.255,7.986,11.177,8.18,11.521z"/>
		<path d="M19.386,6.054c-0.527,0.417-2.519,1.99-3.01,2.379c0.491,0.388,2.482,1.963,3.01,2.38c0.529-0.418,2.52-1.992,3.01-2.38
			C21.906,8.045,19.915,6.471,19.386,6.054z"/>
		<path d="M39.387,25.886c-0.418-0.528-1.992-2.52-2.38-3.011c-0.388,0.49-1.962,2.482-2.38,3.011
			c0.417,0.528,1.991,2.52,2.38,3.011C37.395,28.405,38.969,26.413,39.387,25.886z"/>
		<path d="M39.082,29.854c-0.234,0.293-0.479,0.598-0.682,0.949c-0.205,0.321-0.377,0.562-0.479,0.7l-0.172,0.235l0.152,0.248
			c0.214,0.347,0.703,1.205,1.181,2.223c0.468,0.98,0.953,2.178,1.167,2.729l0.284,0.738l0.469-0.637
			c0.062-0.083,0.621-0.85,1.207-1.928c0.497-0.896,1.001-1.995,1.22-2.504l0.075-0.172l-0.075-0.174
			c-0.043-0.095-0.095-0.231-0.158-0.395c-0.35-0.903-0.699-1.744-1.127-2.116l-1.49-1.885L39.082,29.854z M41.564,30.398
			c0.297,0.231,0.703,1.279,0.897,1.783c0.035,0.092,0.067,0.176,0.099,0.25c-0.24,0.541-0.679,1.481-1.111,2.262
			c-0.251,0.464-0.496,0.863-0.695,1.173c-0.225-0.552-0.549-1.316-0.889-2.027c-0.403-0.858-0.817-1.612-1.076-2.059
			c0.098-0.14,0.216-0.314,0.352-0.527c0.182-0.313,0.394-0.577,0.617-0.856l0.895-1.131l0.839,1.062L41.564,30.398z"/>
		<path d="M33.996,39.309c-1.018-0.478-1.875-0.965-2.223-1.179l-0.248-0.151l-0.234,0.17c-0.139,0.103-0.379,0.273-0.682,0.471
			c-0.403,0.23-0.741,0.504-1.035,0.742l-1.922,1.521l2.416,1.907c0.041,0.033,0.08,0.063,0.183,0.121l1.987,0.817l0.168-0.071
			c0.143-0.062,1.425-0.622,2.498-1.218c1.104-0.601,1.85-1.149,1.931-1.211l0.627-0.469l-0.729-0.283
			C36.479,40.378,35.15,39.857,33.996,39.309z M34.486,41.68c-0.859,0.478-1.859,0.932-2.26,1.108l-1.043-0.422l-0.607-0.282
			l-1.524-1.204l1.064-0.843c0.286-0.23,0.583-0.471,0.944-0.68c0.201-0.129,0.371-0.246,0.508-0.342
			c0.445,0.26,1.199,0.674,2.059,1.075c0.707,0.337,1.477,0.662,2.035,0.892C35.338,41.189,34.934,41.436,34.486,41.68z"/>
		<path d="M38.555,38.783l0.832,0.732c-0.209-0.572-0.707-1.877-1.201-2.981c-0.494-1.122-0.983-2.044-1.179-2.388
			c-0.194,0.146-0.685,0.469-1.179,0.6c-0.494,0.148-0.992,0.105-1.201,0.062c0.02,0.034,0.037,0.069,0.037,0.084
			c0.148,0.78-0.053,1.562-0.604,2.342C35.473,38.009,37.229,38.783,38.555,38.783z"/>
		<path d="M25.802,39.613c0.527-0.418,2.519-1.99,3.011-2.379c-0.492-0.389-2.482-1.963-3.011-2.381
			c-0.528,0.418-2.52,1.992-3.01,2.381C23.282,37.622,25.273,39.195,25.802,39.613z"/>
		<path d="M0,0v45.583h45.583V0H0z M44.583,44.583H1V1h43.583V44.583z"/>
		<polygon points="37.943,7.572 37.943,20.322 38.443,20.88 38.443,7.072 25.033,7.072 25.792,7.572 		"/>
		<polygon points="7.276,38.155 7.276,25.256 6.776,24.622 6.776,38.655 20.748,38.655 20.195,38.155 		"/>
		<path d="M4.211,6.128c0.488,1.401,1.049,2.841,1.54,3.947c0.492,1.12,1.056,2.232,1.546,3.051
			c0.297,0.496,0.517,0.821,0.628,0.979l-4.483,5.676l4.738,5.998l0.014-0.019V37.26h11.468l5.963,4.713l5.689-4.496
			c0.151,0.107,0.485,0.336,0.998,0.642c0.817,0.489,1.93,1.054,3.051,1.547c1.111,0.491,2.551,1.052,3.947,1.539
			c1.201,0.42,2.092,0.7,2.092,0.7l0.396,0.123l-0.124-0.396c0,0-0.28-0.892-0.7-2.092c-0.488-1.401-1.049-2.842-1.539-3.948
			c-0.492-1.119-1.057-2.232-1.547-3.051c-0.305-0.51-0.531-0.843-0.639-0.995l4.468-5.657l-4.727-5.982l0.002-0.002V8.446H25.51
			l0.018-0.014l-5.999-4.739l-5.675,4.483c-0.158-0.11-0.483-0.331-0.98-0.628c-0.817-0.49-1.929-1.054-3.05-1.547
			C8.712,5.511,7.273,4.95,5.876,4.463c-1.201-0.42-2.092-0.7-2.092-0.7L3.387,3.639l0.124,0.396
			C3.511,4.035,3.791,4.927,4.211,6.128z M36.98,20.592l4.186,5.297l-4.186,5.299l-4.187-5.299L36.98,20.592z M32.204,36.68
			c0.261-0.301,0.728-0.91,0.909-1.617c0.146-0.529,0.131-1.136-0.045-1.66c-0.017-0.053-0.035-0.107-0.055-0.162
			c0.051,0.02,0.104,0.037,0.159,0.056c0.521,0.175,1.136,0.192,1.657,0.046c0.711-0.182,1.322-0.646,1.622-0.908
			c0.223-0.191,0.407-0.375,0.534-0.509c0.121,0.179,0.306,0.462,0.533,0.841c0.481,0.803,1.035,1.897,1.521,3.004
			c0.485,1.097,1.042,2.522,1.526,3.914c0.248,0.709,0.447,1.309,0.566,1.678c-0.371-0.119-0.971-0.317-1.679-0.565
			c-1.388-0.483-2.813-1.039-3.916-1.526c-1.104-0.484-2.199-1.039-3.002-1.521c-0.379-0.227-0.663-0.413-0.841-0.534
			C31.829,37.086,32.012,36.902,32.204,36.68z M25.626,41.419l-5.297-4.187l5.297-4.186l5.298,4.186L25.626,41.419z M26.757,19.096
			c0,1.534-0.847,2.871-2.099,3.568c2.332,8.975,2.332,8.975,2.332,8.975s-7.956,0-8.263,0c2.422-8.757,0,0,2.422-8.757
			c-1.498-0.604-2.555-2.072-2.555-3.786c0-2.254,1.827-4.082,4.082-4.082C24.932,15.014,26.757,16.842,26.757,19.096z
			 M19.529,4.247l5.297,4.186l-5.297,4.186l-5.298-4.186L19.529,4.247z M8.18,25.078l-4.185-5.297l4.185-5.298l4.187,5.298
			L8.18,25.078z M5.733,4.873C7.12,5.356,8.546,5.912,9.648,6.4c1.105,0.484,2.199,1.039,3.002,1.521
			c0.379,0.227,0.663,0.413,0.841,0.534c-0.133,0.126-0.316,0.31-0.508,0.532c-0.261,0.301-0.727,0.91-0.909,1.618
			c-0.147,0.529-0.131,1.135,0.044,1.66c0.017,0.053,0.036,0.108,0.056,0.162c-0.051-0.02-0.104-0.038-0.16-0.056
			c-0.52-0.176-1.135-0.191-1.657-0.046c-0.711,0.182-1.322,0.647-1.622,0.908c-0.223,0.192-0.407,0.376-0.534,0.509
			c-0.121-0.178-0.307-0.462-0.533-0.841c-0.48-0.801-1.035-1.896-1.52-3.002C5.662,8.803,5.105,7.376,4.621,5.984
			C4.374,5.276,4.175,4.677,4.054,4.307C4.425,4.427,5.025,4.626,5.733,4.873z"/>
	</g>
</g>
<g>
</g>
<g>
</g>
<g>
</g>
<g>
</g>
<g>
</g>
<g>
</g>
<g>
</g>
<g>
</g>
<g>
</g>
<g>
</g>
<g>
</g>
<g>
</g>
<g>
</g>
<g>
</g>
<g>
</g>
</svg>
