<?xml version="1.0" encoding="iso-8859-1"?>
<!-- Generator: Adobe Illustrator 19.0.0, SVG Export Plug-In . SVG Version: 6.00 Build 0)  -->
<svg version="1.1" id="Layer_1" xmlns="http://www.w3.org/2000/svg" xmlns:xlink="http://www.w3.org/1999/xlink" x="0px" y="0px"
	 viewBox="0 0 512 512" style="enable-background:new 0 0 512 512;" xml:space="preserve">
<g transform="translate(1 1)">
	<g>
		<g>
			<path d="M434.2,186.733C434.2,80.067,357.4-1,255-1S75.8,80.067,75.8,186.733c0,22.885,17.226,41.061,39.674,42.555
				L229.4,314.733c-5.12,0-8.533,3.413-8.533,8.533H178.2c-14.507,0-25.6,11.093-25.6,25.6V485.4c0,14.507,11.093,25.6,25.6,25.6
				h153.6c14.507,0,25.6-11.093,24.747-25.6V348.867c0-14.507-11.093-25.6-25.6-25.6h-41.813c0-5.12-3.413-8.533-8.533-8.533
				l113.926-85.445C416.974,227.794,434.2,209.618,434.2,186.733z M271.213,375.32l-11.947-8.533c-2.56-1.707-6.827-1.707-9.387,0
				l-11.947,8.533V331.8h33.28V375.32z M152.6,212.599c7.729,10.264,20.038,16.801,34.133,16.801
				c14.095,0,26.405-6.537,34.133-16.801C228.595,222.863,240.905,229.4,255,229.4c14.095,0,26.405-6.537,34.133-16.801
				c7.729,10.264,20.038,16.801,34.133,16.801s26.405-6.537,34.133-16.801c3.855,5.12,8.853,9.304,14.642,12.219L255,312.6
				l-117.042-87.781C143.747,221.903,148.745,217.719,152.6,212.599z M161.161,183.755c0.006-0.345,0.016-0.695,0.024-1.042
				c0.015-0.652,0.031-1.305,0.053-1.962c0.015-0.435,0.033-0.874,0.05-1.312c0.023-0.57,0.048-1.142,0.076-1.717
				c0.024-0.487,0.05-0.975,0.078-1.465c0.03-0.523,0.062-1.049,0.096-1.576c0.034-0.533,0.069-1.066,0.107-1.603
				c0.033-0.465,0.071-0.932,0.107-1.399c0.047-0.595,0.092-1.19,0.144-1.789c0.028-0.321,0.06-0.644,0.089-0.965
				c0.227-2.488,0.497-5.003,0.812-7.544c0.025-0.205,0.049-0.41,0.075-0.616c0.1-0.79,0.206-1.583,0.315-2.376
				c0.036-0.265,0.072-0.53,0.109-0.796c0.109-0.781,0.223-1.565,0.34-2.35c0.041-0.272,0.082-0.544,0.123-0.817
				c0.12-0.79,0.244-1.581,0.372-2.374c0.041-0.255,0.084-0.511,0.126-0.766c0.135-0.821,0.273-1.642,0.416-2.466
				c0.026-0.15,0.054-0.301,0.081-0.451c0.448-2.541,0.938-5.095,1.464-7.657c0.1-0.487,0.198-0.974,0.301-1.462
				c0.109-0.515,0.222-1.031,0.334-1.547c0.142-0.653,0.284-1.306,0.431-1.959c0.091-0.408,0.185-0.816,0.278-1.224
				c0.187-0.817,0.377-1.634,0.572-2.452c0.061-0.258,0.123-0.515,0.185-0.773C179.6,84.559,203.32,37.505,233.483,21.665
				c-8.959,22.911-14.152,59.363-17.147,92.2c-0.008,0.089-0.016,0.178-0.024,0.267c-0.045,0.499-0.091,0.999-0.136,1.496
				c-3.171,35.274-3.77,65.98-3.836,70.529c-0.003,0.222-0.005,0.375-0.006,0.471c0,0.05-0.001,0.089-0.001,0.105
				c0,14.507-11.093,25.6-25.6,25.6s-25.6-11.093-25.6-25.6C161.133,185.749,161.144,184.755,161.161,183.755z M341.679,131.298
				c0.062,0.258,0.123,0.515,0.185,0.773c0.195,0.818,0.385,1.635,0.572,2.452c0.093,0.408,0.187,0.816,0.278,1.224
				c0.147,0.653,0.289,1.306,0.431,1.959c0.112,0.516,0.225,1.031,0.334,1.547c0.103,0.488,0.201,0.974,0.301,1.462
				c0.526,2.562,1.016,5.116,1.464,7.657c0.026,0.15,0.054,0.301,0.081,0.451c0.144,0.824,0.281,1.645,0.416,2.466
				c0.042,0.255,0.085,0.511,0.126,0.766c0.128,0.793,0.252,1.584,0.372,2.374c0.042,0.273,0.083,0.545,0.123,0.817
				c0.117,0.785,0.231,1.569,0.34,2.35c0.037,0.266,0.073,0.531,0.109,0.796c0.108,0.794,0.215,1.587,0.315,2.376
				c0.026,0.206,0.05,0.41,0.075,0.616c0.315,2.54,0.585,5.056,0.812,7.544c0.029,0.322,0.061,0.645,0.089,0.965
				c0.052,0.599,0.098,1.193,0.144,1.789c0.037,0.467,0.074,0.934,0.107,1.399c0.039,0.536,0.073,1.07,0.107,1.603
				c0.034,0.527,0.066,1.052,0.096,1.576c0.028,0.49,0.054,0.978,0.078,1.465c0.028,0.575,0.053,1.146,0.076,1.717
				c0.018,0.438,0.036,0.876,0.05,1.312c0.022,0.657,0.038,1.31,0.053,1.962c0.008,0.347,0.018,0.696,0.024,1.042
				c0.017,1,0.027,1.994,0.027,2.978c0,14.507-11.093,25.6-25.6,25.6s-25.6-11.093-25.6-25.6c0-0.016,0-0.055-0.001-0.105
				c-0.001-0.096-0.003-0.249-0.006-0.471c-0.066-4.549-0.665-35.255-3.836-70.529c-0.044-0.497-0.09-0.997-0.136-1.496
				c-0.008-0.089-0.016-0.178-0.024-0.267c-2.995-32.838-8.188-69.29-17.147-92.2C306.68,37.505,330.4,84.559,341.679,131.298z
				 M255,16.92c11.947,10.24,25.6,98.987,25.6,169.813c0,14.507-11.093,25.6-25.6,25.6c-14.507,0-25.6-11.093-25.6-25.6
				C229.4,115.907,243.053,28.013,255,16.92z M417.133,186.733c0,14.507-11.093,25.6-25.6,25.6c-14.507,0-25.6-11.093-25.6-25.6
				c0-1.485-0.024-2.99-0.058-4.503c-0.009-0.389-0.02-0.779-0.031-1.169c-0.038-1.32-0.087-2.65-0.151-3.989
				c-0.01-0.212-0.017-0.422-0.028-0.635c-0.082-1.624-0.183-3.261-0.302-4.91c-0.009-0.13-0.02-0.261-0.03-0.391
				c-0.119-1.609-0.256-3.229-0.41-4.86c-0.008-0.087-0.016-0.173-0.024-0.26c-2.02-21.195-6.976-44.063-14.464-65.881
				c-0.052-0.152-0.104-0.304-0.157-0.456c-0.552-1.601-1.116-3.198-1.695-4.786c-0.075-0.207-0.149-0.416-0.225-0.623
				c-0.508-1.381-1.027-2.756-1.555-4.126c-0.402-1.047-0.813-2.087-1.226-3.126c-0.083-0.208-0.166-0.416-0.25-0.623
				c-9.62-24.023-22.299-45.951-37.422-61.794C372.76,46.787,417.133,109.08,417.133,186.733z M92.867,186.733
				c0-77.653,44.373-139.947,109.227-162.133c-15.123,15.843-27.802,37.772-37.422,61.794c-0.084,0.208-0.167,0.416-0.25,0.623
				c-0.413,1.039-0.825,2.08-1.226,3.126c-0.528,1.37-1.047,2.745-1.555,4.126c-0.076,0.207-0.149,0.415-0.225,0.623
				c-0.58,1.588-1.143,3.185-1.695,4.786c-0.052,0.152-0.104,0.304-0.157,0.456c-7.487,21.818-12.443,44.686-14.464,65.881
				c-0.008,0.087-0.016,0.174-0.024,0.26c-0.154,1.63-0.291,3.251-0.41,4.86c-0.01,0.13-0.021,0.261-0.03,0.391
				c-0.119,1.649-0.22,3.286-0.302,4.91c-0.011,0.213-0.018,0.423-0.028,0.635c-0.063,1.34-0.113,2.669-0.151,3.989
				c-0.011,0.391-0.023,0.781-0.031,1.169c-0.035,1.513-0.058,3.018-0.058,4.503c0,14.507-11.093,25.6-25.6,25.6
				C103.96,212.333,92.867,201.24,92.867,186.733z M331.8,340.333c5.12,0,8.533,3.413,8.533,8.533V485.4
				c0,5.12-3.413,8.533-8.533,8.533H178.2c-5.12,0-8.533-3.413-8.533-8.533V348.867c0-5.12,3.413-8.533,8.533-8.533h42.667v51.2
				c0,3.413,1.707,5.973,5.12,6.827c2.56,1.707,5.973,1.707,8.533,0L255,384.707l21.333,14.507c2.56,1.707,5.973,1.707,8.533,0
				c2.56-1.707,4.267-4.267,4.267-7.68v-51.2H331.8z"/>
			<path d="M323.267,468.333H306.2c-5.12,0-8.533,3.413-8.533,8.533s3.413,8.533,8.533,8.533h17.067c5.12,0,8.533-3.413,8.533-8.533
				S328.387,468.333,323.267,468.333z"/>
			<path d="M280.6,451.267c0,5.12,3.413,8.533,8.533,8.533h34.133c5.12,0,8.533-3.413,8.533-8.533c0-5.12-3.413-8.533-8.533-8.533
				h-34.133C284.013,442.733,280.6,446.147,280.6,451.267z"/>
		</g>
	</g>
</g>
<g>
</g>
<g>
</g>
<g>
</g>
<g>
</g>
<g>
</g>
<g>
</g>
<g>
</g>
<g>
</g>
<g>
</g>
<g>
</g>
<g>
</g>
<g>
</g>
<g>
</g>
<g>
</g>
<g>
</g>
</svg>
