<?xml version="1.0" encoding="iso-8859-1"?>
<!-- Generator: Adobe Illustrator 19.0.0, SVG Export Plug-In . SVG Version: 6.00 Build 0)  -->
<svg version="1.1" id="Layer_1" xmlns="http://www.w3.org/2000/svg" xmlns:xlink="http://www.w3.org/1999/xlink" x="0px" y="0px"
	 viewBox="0 0 512 512" style="enable-background:new 0 0 512 512;" xml:space="preserve">
<g transform="translate(1 1)">
	<g>
		<g>
			<path d="M442.733,374.467H403.48c-5.12,0-8.533,3.413-8.533,8.533s3.413,8.533,8.533,8.533h39.253
				c5.12,0,8.533-3.413,8.533-8.533S447.853,374.467,442.733,374.467z"/>
			<path d="M383.853,357.4h58.88c5.12,0,8.533-3.413,8.533-8.533s-3.413-8.533-8.533-8.533h-58.88c-5.12,0-8.533,3.413-8.533,8.533
				S378.733,357.4,383.853,357.4z"/>
			<path d="M502.467,408.6h-16.684c5.373-7.09,8.658-15.924,9.004-25.6V50.2c0-23.893-18.773-42.667-42.667-42.667H348.867
				c0-5.12-3.413-8.533-8.533-8.533h-102.4c-5.12,0-8.533,3.413-8.533,8.533H127c-23.893,0-42.667,18.773-42.667,42.667v102.4h-25.6
				c-23.893,0-42.667,18.773-42.667,42.667V383c0,9.676,3.08,18.51,8.33,25.6H7.533c-5.12,0-8.533,3.413-8.533,8.533v51.2
				c0,5.12,3.413,8.533,8.533,8.533h8.533v25.6c0,5.12,3.413,8.533,8.533,8.533h68.267c5.12,0,8.533-3.413,8.533-8.533v-25.6
				h110.933v25.6c0,5.12,3.413,8.533,8.533,8.533h68.267c5.12,0,8.533-3.413,8.533-8.533v-25.6H408.6v25.6
				c0,5.12,3.413,8.533,8.533,8.533H485.4c5.12,0,8.533-3.413,8.533-8.533v-25.6h8.533c5.12,0,8.533-3.413,8.533-8.533v-51.2
				C511,412.013,507.587,408.6,502.467,408.6z M331.8,16.067v83.627l-37.547-30.72c-0.853-0.853-3.413-1.707-5.12-1.707
				s-4.267,0.853-5.12,2.56l-37.547,30.72v-84.48H331.8z M101.4,50.2c0-14.507,11.093-25.6,25.6-25.6h102.4v93.867
				c0,3.413,1.707,5.973,4.267,7.68c3.413,1.707,6.827,0.853,9.387-0.853l46.08-38.4l45.227,38.4c1.89,1.26,4.246,2.051,6.723,1.694
				c0.884-0.038,2.017-0.195,2.663-0.841c3.413-1.707,5.12-4.267,5.12-7.68V24.6h102.4c14.507,0,25.6,11.093,25.6,25.6V383
				c0,14.507-11.093,25.6-25.6,25.6H332.003c4.915-6.636,7.92-14.804,8.285-23.757c0.029-0.614,0.045-1.229,0.045-1.843V195.267
				c0-23.893-18.773-42.667-42.667-42.667H229.4v-8.533c0-5.12-3.413-8.533-8.533-8.533h-85.333c-5.12,0-8.533,3.413-8.533,8.533
				v8.533h-25.6V50.2z M144.067,161.133V152.6h68.267v8.533v58.88l-29.013-23.04c-2.56-2.56-6.827-2.56-10.24,0l-29.013,23.04
				V161.133z M33.133,383V195.267c0-14.507,11.093-25.6,25.6-25.6h34.133H127v68.267c0,3.413,1.707,5.973,4.267,7.68
				c3.413,1.707,6.827,0.853,9.387-0.853l37.547-29.867l36.693,29.867c1.978,1.319,4.973,2.122,7.414,1.634
				c0.724-0.09,1.486-0.295,1.972-0.781c3.413-1.707,5.12-4.267,5.12-7.68v-68.267h68.267c14.507,0,25.6,11.093,25.6,25.6V383
				c0,14.507-11.093,25.6-25.6,25.6H58.733C44.227,408.6,33.133,397.507,33.133,383z M84.333,493.933h-51.2v-17.067h51.2V493.933z
				 M280.6,493.933h-51.2v-17.067h51.2V493.933z M476.867,493.933h-51.2v-17.067h51.2V493.933z M493.933,459.8H485.4h-68.267h-128
				h-68.267h-128H24.6h-8.533v-34.133h42.667h238.933h153.6h42.667V459.8z"/>
			<path d="M306.2,383c0-5.12-3.413-8.533-8.533-8.533h-25.6c-5.12,0-8.533,3.413-8.533,8.533s3.413,8.533,8.533,8.533h25.6
				C302.787,391.533,306.2,388.12,306.2,383z"/>
			<path d="M306.2,348.867c0-5.12-3.413-8.533-8.533-8.533H255c-5.12,0-8.533,3.413-8.533,8.533S249.88,357.4,255,357.4h42.667
				C302.787,357.4,306.2,353.987,306.2,348.867z"/>
		</g>
	</g>
</g>
<g>
</g>
<g>
</g>
<g>
</g>
<g>
</g>
<g>
</g>
<g>
</g>
<g>
</g>
<g>
</g>
<g>
</g>
<g>
</g>
<g>
</g>
<g>
</g>
<g>
</g>
<g>
</g>
<g>
</g>
</svg>
