<?xml version="1.0" encoding="iso-8859-1"?>
<!-- Generator: Adobe Illustrator 19.0.0, SVG Export Plug-In . SVG Version: 6.00 Build 0)  -->
<svg version="1.1" id="Layer_1" xmlns="http://www.w3.org/2000/svg" xmlns:xlink="http://www.w3.org/1999/xlink" x="0px" y="0px"
	 viewBox="0 0 512 512" style="enable-background:new 0 0 512 512;" xml:space="preserve">
<g>
	<g>
		<path d="M389.447,247.83c-41.091,0-79.802,12.509-109.006,35.222c-13.509,10.508-24.258,22.627-31.985,35.818
			c-12.823,1.191-24.295,7.081-32.691,15.925l-173.116-5.22c-0.597-0.025-1.197-0.045-1.799-0.045
			C18.325,329.532,0,347.857,0,370.383s18.325,40.851,40.851,40.851c0.586,0,1.168-0.017,1.747-0.043l173.166-5.222
			c8.396,8.844,19.868,14.735,32.691,15.925c7.727,13.191,18.475,25.31,31.985,35.818c29.205,22.714,67.916,35.223,109.007,35.223
			c67.575,0,122.553-54.977,122.553-122.553S457.022,247.83,389.447,247.83z M205.38,389.935L42.05,394.861
			c-0.038,0.001-0.076,0.002-0.114,0.004c-0.359,0.016-0.72,0.028-1.084,0.028c-13.516,0-24.512-10.995-24.512-24.511
			c0-13.516,10.996-24.511,24.511-24.511c0.366,0,0.73,0.013,1.198,0.033l163.33,4.926c-2.473,6.036-3.848,12.635-3.848,19.552
			C201.532,377.299,202.907,383.899,205.38,389.935z M239.752,403.096c-12.831-5.324-21.88-17.98-21.88-32.714
			c0-14.734,9.049-27.39,21.88-32.714c-3.649,10.515-5.539,21.492-5.539,32.714S236.103,392.582,239.752,403.096z M365.629,475.027
			c-47.715-6.332-87.151-31.344-104.921-64.793c-0.051-0.1-0.104-0.199-0.159-0.297c-6.441-12.231-9.996-25.58-9.996-39.554
			c0-13.973,3.555-27.322,9.996-39.554c0.056-0.098,0.108-0.197,0.159-0.297c17.771-33.449,57.207-58.462,104.92-64.794
			c1.897,11.519,7.344,18.616,11.893,24.537c5.143,6.694,9.203,11.981,9.203,23.386c0,11.407-4.062,16.693-9.203,23.388
			c-5.607,7.3-12.584,16.384-12.584,33.341c0,16.956,6.977,26.039,12.585,33.338c5.142,6.692,9.202,11.979,9.202,23.382
			c0,11.405-4.061,16.691-9.202,23.384C372.974,456.413,367.524,463.509,365.629,475.027z M389.447,476.596
			c-2.509,0-5.002-0.055-7.48-0.155c1.368-6.685,4.63-10.94,8.511-15.992c5.607-7.299,12.585-16.382,12.585-33.339
			c0-16.956-6.977-26.039-12.585-33.338c-5.142-6.692-9.202-11.979-9.202-23.382c0-11.407,4.061-16.693,9.203-23.386
			c5.606-7.3,12.584-16.384,12.584-33.341c0-16.957-6.977-26.041-12.584-33.341c-3.881-5.052-7.144-9.309-8.512-15.995
			c2.477-0.101,4.97-0.155,7.48-0.155c58.566,0,106.213,47.646,106.213,106.213S448.013,476.596,389.447,476.596z"/>
	</g>
</g>
<g>
	<g>
		<circle cx="294.128" cy="354.043" r="8.17"/>
	</g>
</g>
<g>
	<g>
		<circle cx="326.809" cy="386.723" r="8.17"/>
	</g>
</g>
<g>
	<g>
		<path d="M471.149,100.767c-0.605,0-1.203,0.019-1.692,0.04l-173.223,5.223c-8.396-8.844-19.868-14.735-32.691-15.925
			c-7.727-13.191-18.475-25.31-31.985-35.818c-29.204-22.714-67.915-35.223-109.006-35.223C54.978,19.064,0,74.041,0,141.617
			S54.978,264.17,122.553,264.17c41.091,0,79.802-12.509,109.006-35.222c13.509-10.508,24.258-22.627,31.985-35.818
			c12.823-1.191,24.295-7.081,32.691-15.925l173.116,5.22c0.597,0.025,1.195,0.045,1.799,0.045
			c22.526,0,40.851-18.325,40.851-40.851S493.675,100.767,471.149,100.767z M122.553,247.828
			C63.987,247.83,16.34,200.183,16.34,141.617c0-58.566,47.646-106.213,106.213-106.213c2.509,0,5.002,0.054,7.48,0.155
			c-1.367,6.685-4.63,10.94-8.511,15.992c-5.608,7.299-12.585,16.383-12.585,33.339c0,16.956,6.977,26.039,12.585,33.338
			c5.142,6.692,9.202,11.979,9.202,23.382c0,11.407-4.061,16.693-9.203,23.386c-5.606,7.3-12.584,16.384-12.584,33.341
			c0,16.957,6.977,26.041,12.584,33.341c3.881,5.052,7.144,9.309,8.512,15.995C127.556,247.774,125.063,247.828,122.553,247.828z
			 M251.451,181.171c-0.056,0.098-0.108,0.196-0.159,0.296c-17.771,33.449-57.207,58.462-104.92,64.794
			c-1.897-11.519-7.344-18.616-11.893-24.537c-5.143-6.694-9.203-11.981-9.203-23.386c0-11.407,4.062-16.693,9.203-23.388
			c5.606-7.3,12.584-16.384,12.584-33.341c0-16.956-6.977-26.039-12.585-33.338c-5.141-6.691-9.202-11.978-9.202-23.382
			c0-11.404,4.061-16.691,9.202-23.384c4.548-5.92,9.997-13.016,11.893-24.534c47.715,6.334,87.151,31.345,104.921,64.795
			c0.051,0.1,0.103,0.199,0.159,0.296c6.441,12.231,9.996,25.58,9.996,39.554C261.447,155.59,257.892,168.939,251.451,181.171z
			 M272.248,174.331c3.649-10.515,5.539-21.492,5.539-32.714c0-11.221-1.89-22.199-5.539-32.714
			c12.83,5.324,21.88,17.98,21.88,32.714C294.128,156.351,285.078,169.007,272.248,174.331z M471.149,166.128
			c-0.366,0-0.73-0.013-1.198-0.033l-163.33-4.926c2.473-6.036,3.848-12.635,3.848-19.552c0-6.916-1.375-13.516-3.848-19.552
			l163.437-4.929c0.362-0.016,0.726-0.029,1.092-0.029c13.515,0,24.511,10.995,24.511,24.511
			C495.66,155.133,484.664,166.128,471.149,166.128z"/>
	</g>
</g>
<g>
</g>
<g>
</g>
<g>
</g>
<g>
</g>
<g>
</g>
<g>
</g>
<g>
</g>
<g>
</g>
<g>
</g>
<g>
</g>
<g>
</g>
<g>
</g>
<g>
</g>
<g>
</g>
<g>
</g>
</svg>
