<?xml version="1.0" encoding="iso-8859-1"?>
<!-- Generator: Adobe Illustrator 19.0.0, SVG Export Plug-In . SVG Version: 6.00 Build 0)  -->
<svg version="1.1" id="Layer_1" xmlns="http://www.w3.org/2000/svg" xmlns:xlink="http://www.w3.org/1999/xlink" x="0px" y="0px"
	 viewBox="0 0 512 512" style="enable-background:new 0 0 512 512;" xml:space="preserve">
<g>
	<g>
		<g>
			<path d="M352,149.333c-11.776,0-21.333,9.557-21.333,21.333S340.224,192,352,192s21.333-9.557,21.333-21.333
				S363.776,149.333,352,149.333z"/>
			<path d="M352,234.667c-11.776,0-21.333,9.557-21.333,21.333s9.557,21.333,21.333,21.333s21.333-9.557,21.333-21.333
				S363.776,234.667,352,234.667z"/>
			<path d="M352,320c-11.776,0-21.333,9.557-21.333,21.333c0,11.776,9.557,21.333,21.333,21.333s21.333-9.557,21.333-21.333
				C373.333,329.557,363.776,320,352,320z"/>
			<path d="M480,256c-15.552,0-30.115,4.174-42.667,11.433v-32.766C437.333,211.078,456.411,192,480,192
				c11.782,0,21.333-9.551,21.333-21.333c0-11.782-9.551-21.333-21.333-21.333c-15.552,0-30.115,4.174-42.667,11.433v-54.1
				c0-11.782-9.551-21.333-21.333-21.333V42.667h42.667c11.782,0,21.333-9.551,21.333-21.333C480,9.551,470.449,0,458.667,0H181.333
				C122.383,0,74.667,47.717,74.667,106.667V384H32c-11.782,0-21.333,9.551-21.333,21.333v85.333C10.667,502.449,20.218,512,32,512
				h128c11.782,0,21.333-9.551,21.333-21.333v-85.333c0-11.782-9.551-21.333-21.333-21.333h-42.667V106.667
				c0-35.386,28.614-64,64-64H288v42.667c-11.782,0-21.333,9.551-21.333,21.333v54.1c-12.552-7.259-27.115-11.433-42.667-11.433
				c-11.782,0-21.333,9.551-21.333,21.333c0,11.782,9.551,21.333,21.333,21.333c23.589,0,42.667,19.078,42.667,42.667v32.766
				C254.115,260.174,239.552,256,224,256c-11.782,0-21.333,9.551-21.333,21.333c0,11.782,9.551,21.333,21.333,21.333
				c23.589,0,42.667,19.078,42.667,42.667v64c0,11.782,9.551,21.333,21.333,21.333h128c11.782,0,21.333-9.551,21.333-21.333v-64
				c0-23.589,19.078-42.667,42.667-42.667c11.782,0,21.333-9.551,21.333-21.333C501.333,265.551,491.782,256,480,256z
				 M138.667,469.333H53.333v-42.667h85.333V469.333z M330.667,42.667h42.667v42.667h-42.667V42.667z M394.667,384h-85.333V128
				h85.333V384z"/>
		</g>
	</g>
</g>
<g>
</g>
<g>
</g>
<g>
</g>
<g>
</g>
<g>
</g>
<g>
</g>
<g>
</g>
<g>
</g>
<g>
</g>
<g>
</g>
<g>
</g>
<g>
</g>
<g>
</g>
<g>
</g>
<g>
</g>
</svg>
