<?xml version="1.0" encoding="iso-8859-1"?>
<!-- Generator: Adobe Illustrator 19.0.0, SVG Export Plug-In . SVG Version: 6.00 Build 0)  -->
<svg version="1.1" id="Layer_1" xmlns="http://www.w3.org/2000/svg" xmlns:xlink="http://www.w3.org/1999/xlink" x="0px" y="0px"
	 viewBox="0 0 512 512" style="enable-background:new 0 0 512 512;" xml:space="preserve">
<g>
	<g>
		<g>
			<path d="M490.667,192c11.782,0,21.333-9.551,21.333-21.333V85.333C512,73.551,502.449,64,490.667,64s-21.333,9.551-21.333,21.333
				v21.333h-33.051l-9.746-87.69C425.335,8.173,416.203,0,405.333,0H106.667c-10.87,0-20.002,8.173-21.203,18.977l-9.746,87.69
				H42.667V85.333C42.667,73.551,33.115,64,21.333,64C9.551,64,0,73.551,0,85.333v85.333C0,182.449,9.551,192,21.333,192
				c11.782,0,21.333-9.551,21.333-21.333v-21.333h28.309l-3.795,34.145c-1.432,12.982-7.249,25.086-16.495,34.333
				c-18.786,18.786-29.352,44.287-29.352,70.85v63.344C8.382,361.737,0,377.226,0,394.667c0,25.793,18.329,47.319,42.667,52.264
				v22.403c0,23.558,19.109,42.667,42.667,42.667h64C172.891,512,192,492.891,192,469.333V448h128v21.333
				C320,492.891,339.109,512,362.667,512h64c23.558,0,42.667-19.109,42.667-42.667V446.93C493.671,441.986,512,420.46,512,394.667
				c0-17.441-8.382-32.929-21.333-42.662v-63.344c0-26.563-10.566-52.064-29.352-70.85c-9.247-9.247-15.063-21.35-16.494-34.315
				l-3.797-34.162h28.309v21.333C469.333,182.449,478.885,192,490.667,192z M149.333,469.333h-64V448h64V469.333z M426.667,469.333
				h-64V448h64V469.333z M458.667,405.333H448H341.333H170.667H64H53.333c-5.882,0-10.667-4.785-10.667-10.667
				c0-4.184,2.428-7.803,5.943-9.549c0.408-0.119,0.817-0.249,1.224-0.394c1.414-0.505,2.552-0.723,3.5-0.723h405.333
				c0.948,0,2.085,0.218,3.5,0.723c0.407,0.145,0.816,0.275,1.224,0.394c3.515,1.746,5.943,5.365,5.943,9.549
				C469.333,400.549,464.549,405.333,458.667,405.333z M448,288.661v52.672H64v-52.672c0-15.245,6.07-29.895,16.856-40.68
				c16.102-16.102,26.239-37.195,28.733-59.807L125.76,42.667H386.24l9.717,87.43c0.007,0.07,0.016,0.138,0.023,0.207l6.434,57.887
				c2.492,22.594,12.629,43.688,28.731,59.79C441.93,258.767,448,273.416,448,288.661z"/>
			<path d="M128,256c-11.776,0-21.333,9.557-21.333,21.333s9.557,21.333,21.333,21.333s21.333-9.557,21.333-21.333
				S139.776,256,128,256z"/>
			<path d="M362.667,256c-11.776,0-21.333,9.557-21.333,21.333s9.557,21.333,21.333,21.333S384,289.109,384,277.333
				S374.443,256,362.667,256z"/>
			<path d="M341.333,192c11.782,0,21.333-9.551,21.333-21.333V85.333c0-11.782-9.551-21.333-21.333-21.333H170.667
				c-11.782,0-21.333,9.551-21.333,21.333v85.333c0,11.782,9.551,21.333,21.333,21.333H341.333z M192,106.667h128v42.667H192
				V106.667z"/>
			<path d="M277.333,277.333h-64c-11.782,0-21.333,9.551-21.333,21.333c0,11.782,9.551,21.333,21.333,21.333h64
				c11.782,0,21.333-9.551,21.333-21.333C298.667,286.885,289.115,277.333,277.333,277.333z"/>
			<path d="M298.667,213.333H192c-11.782,0-21.333,9.551-21.333,21.333c0,11.782,9.551,21.333,21.333,21.333h106.667
				c11.782,0,21.333-9.551,21.333-21.333C320,222.885,310.449,213.333,298.667,213.333z"/>
		</g>
	</g>
</g>
<g>
</g>
<g>
</g>
<g>
</g>
<g>
</g>
<g>
</g>
<g>
</g>
<g>
</g>
<g>
</g>
<g>
</g>
<g>
</g>
<g>
</g>
<g>
</g>
<g>
</g>
<g>
</g>
<g>
</g>
</svg>
