<?xml version="1.0" encoding="iso-8859-1"?>
<!-- Generator: Adobe Illustrator 19.0.0, SVG Export Plug-In . SVG Version: 6.00 Build 0)  -->
<svg version="1.1" id="Layer_1" xmlns="http://www.w3.org/2000/svg" xmlns:xlink="http://www.w3.org/1999/xlink" x="0px" y="0px"
	 viewBox="0 0 512 512" style="enable-background:new 0 0 512 512;" xml:space="preserve">
<g>
	<g>
		<g>
			<path d="M149.333,277.333c-11.776,0-21.333,9.557-21.333,21.333S137.557,320,149.333,320s21.333-9.557,21.333-21.333
				S161.109,277.333,149.333,277.333z"/>
			<path d="M341.333,277.333c-11.776,0-21.333,9.557-21.333,21.333S329.557,320,341.333,320c11.776,0,21.333-9.557,21.333-21.333
				S353.109,277.333,341.333,277.333z"/>
			<path d="M341.333,64H170.667c-11.782,0-21.333,9.551-21.333,21.333v85.333c0,11.782,9.551,21.333,21.333,21.333h170.667
				c11.782,0,21.333-9.551,21.333-21.333V85.333C362.667,73.551,353.115,64,341.333,64z M320,149.333H192v-42.667h128V149.333z"/>
			<path d="M512,394.667c0-17.441-8.382-32.929-21.333-42.662v-74.672c0-5.658-2.248-11.084-6.248-15.085l-37.282-37.282
				L426.561,19.211C425.47,8.305,416.293,0,405.333,0H106.667C95.707,0,86.53,8.305,85.439,19.211L64.864,224.966l-37.282,37.282
				c-4.001,4.001-6.248,9.427-6.248,15.085v74.672C8.382,361.737,0,377.226,0,394.667c0,25.793,18.329,47.319,42.667,52.264v22.403
				c0,23.558,19.109,42.667,42.667,42.667h64C172.891,512,192,492.891,192,469.333V448h128v21.333
				C320,492.891,339.109,512,362.667,512h64c23.558,0,42.667-19.109,42.667-42.667V446.93C493.671,441.986,512,420.46,512,394.667z
				 M64,286.17L94.17,256h323.66L448,286.17v55.163H64V286.17z M125.973,42.667h260.054l17.067,170.667H108.906L125.973,42.667z
				 M149.333,469.333h-64V448h64V469.333z M426.667,469.333h-64V448h64V469.333z M458.667,405.333H448H341.333H170.667H64H53.333
				c-5.882,0-10.667-4.785-10.667-10.667c0-4.184,2.428-7.803,5.943-9.549c0.408-0.119,0.817-0.249,1.224-0.394
				c1.414-0.505,2.552-0.723,3.5-0.723h405.333c0.948,0,2.085,0.218,3.5,0.723c0.407,0.145,0.816,0.275,1.224,0.394
				c3.515,1.746,5.943,5.365,5.943,9.549C469.333,400.549,464.549,405.333,458.667,405.333z"/>
		</g>
	</g>
</g>
<g>
</g>
<g>
</g>
<g>
</g>
<g>
</g>
<g>
</g>
<g>
</g>
<g>
</g>
<g>
</g>
<g>
</g>
<g>
</g>
<g>
</g>
<g>
</g>
<g>
</g>
<g>
</g>
<g>
</g>
</svg>
