<?xml version="1.0" encoding="iso-8859-1"?>
<!-- Generator: Adobe Illustrator 19.0.0, SVG Export Plug-In . SVG Version: 6.00 Build 0)  -->
<svg version="1.1" id="Layer_1" xmlns="http://www.w3.org/2000/svg" xmlns:xlink="http://www.w3.org/1999/xlink" x="0px" y="0px"
	 viewBox="0 0 512.003 512.003" style="enable-background:new 0 0 512.003 512.003;" xml:space="preserve">
<g>
	<g>
		<path d="M477.861,407.006l-24.725,18.56c-2.078,1.558-4.512,2.363-7.033,2.363c-2.113,0-4.164-0.564-6.037-1.689
			c-3.14-1.884-5.18-4.957-5.699-8.572l-2.196-15.351c-1.503-10.508-10.503-18.312-21.118-18.312h-48.384v-42.671h48.384
			c10.512,0,19.457-7.658,21.078-18.044l2.197-14.08c0.559-3.886,2.608-6.975,5.727-8.847c4.137-2.476,9.227-2.214,13.115,0.692
			l24.691,18.534c9.423,7.073,22.795,5.168,29.868-4.254c7.073-9.423,5.168-22.795-4.254-29.868l-24.725-18.56
			c-17.78-13.291-41.618-14.52-60.627-3.142c-12.925,7.755-21.957,20.351-25.216,34.902h-30.239
			c0-208.319-35.733-298.662-122.859-298.662H85.443c-0.079,0-0.159,0-0.238,0H42.668c-11.782,0-21.333,9.551-21.333,21.333
			c0,11.782,9.551,21.333,21.333,21.333h17.8L41.26,167.521c-0.001,0.007-0.003,0.014-0.004,0.021l-3.001,19.51l-13.89,90.284
			h-3.031c-11.782,0-21.333,9.551-21.333,21.333v128c0,11.782,9.551,21.333,21.333,21.333c0,35.355,28.645,64,64,64s64-28.645,64-64
			h42.667c0,35.355,28.645,64,64,64s64-28.645,64-64h21.333c11.782,0,21.333-9.551,21.333-21.333h29.968
			c3.007,15.091,12.184,28.18,25.466,36.149c8.527,5.123,18.177,7.776,28,7.776c11.714,0,23.138-3.775,32.64-10.901l24.732-18.565
			c9.423-7.073,11.327-20.446,4.254-29.868C500.656,401.837,487.283,399.932,477.861,407.006z M239.809,42.67
			c49.774,0,77.012,61.804,79.926,225.564l-54.897-54.897l6.248-6.248c8.331-8.331,8.331-21.839,0-30.17s-21.839-8.331-30.17,0
			l-42.667,42.667c-8.331,8.331-8.331,21.839,0,30.17c8.331,8.331,21.839,8.331,30.17,0l6.248-6.248l33.83,33.83h-97.826v-18.53
			c0-51.603-35.753-94.865-83.924-106.364L103.636,42.67H239.809z M67.538,277.336l12.686-82.484
			c27.653,8.178,47.781,33.722,47.781,63.954v18.53H67.538z M85.334,469.336c-11.791,0-21.333-9.542-21.333-21.333
			c0-3.283,0.761-6.379,2.084-9.156c0.322-0.464,0.633-0.937,0.921-1.43c2.909-4.987,7.496-8.534,12.799-9.999
			c0.023-0.006,0.047-0.012,0.07-0.018c0.578-0.157,1.166-0.282,1.759-0.389c0.4-0.07,0.8-0.137,1.207-0.184
			c0.206-0.025,0.413-0.044,0.62-0.063c0.618-0.054,1.241-0.094,1.873-0.094s1.255,0.041,1.873,0.094
			c0.207,0.019,0.414,0.038,0.62,0.063c0.407,0.047,0.808,0.114,1.207,0.184c0.593,0.107,1.181,0.232,1.759,0.389
			c0.023,0.006,0.047,0.012,0.07,0.018c5.303,1.465,9.891,5.012,12.799,9.999c0.287,0.493,0.598,0.966,0.921,1.43
			c1.322,2.777,2.084,5.873,2.084,9.156C106.668,459.794,97.125,469.336,85.334,469.336z M256.001,469.336
			c-11.791,0-21.333-9.542-21.333-21.333c0-3.283,0.761-6.379,2.084-9.156c0.322-0.464,0.633-0.937,0.921-1.43
			c2.909-4.987,7.496-8.534,12.799-9.999c0.023-0.006,0.047-0.012,0.07-0.018c0.578-0.157,1.166-0.282,1.759-0.389
			c0.4-0.07,0.8-0.137,1.207-0.184c0.206-0.025,0.413-0.044,0.62-0.063c0.618-0.054,1.241-0.094,1.873-0.094
			s1.255,0.041,1.873,0.094c0.207,0.019,0.414,0.038,0.62,0.063c0.407,0.047,0.808,0.114,1.207,0.184
			c0.593,0.107,1.181,0.232,1.759,0.389c0.023,0.006,0.047,0.012,0.07,0.018c5.303,1.465,9.891,5.012,12.799,9.999
			c0.287,0.493,0.598,0.966,0.921,1.43c1.322,2.777,2.084,5.873,2.084,9.156C277.334,459.794,267.792,469.336,256.001,469.336z
			 M303.698,405.336c-10.25-11.451-24.559-19.184-40.674-20.942c-0.061-0.007-0.121-0.017-0.182-0.023
			c-0.977-0.104-1.962-0.18-2.952-0.239c-0.16-0.01-0.319-0.028-0.48-0.036c-1.129-0.059-2.265-0.092-3.409-0.092
			s-2.28,0.033-3.409,0.092c-0.161,0.009-0.319,0.027-0.48,0.036c-0.99,0.059-1.975,0.136-2.952,0.239
			c-0.061,0.007-0.121,0.016-0.182,0.023c-16.114,1.758-30.424,9.491-40.674,20.942h-75.273
			c-10.25-11.451-24.559-19.184-40.674-20.942c-0.061-0.007-0.121-0.017-0.182-0.023c-0.977-0.104-1.962-0.18-2.952-0.239
			c-0.16-0.01-0.319-0.028-0.48-0.036c-1.129-0.059-2.265-0.092-3.409-0.092c-1.048,0-2.091,0.028-3.13,0.079
			c-0.527,0.025-1.047,0.073-1.57,0.111c-0.487,0.036-0.977,0.064-1.461,0.111c-0.734,0.07-1.462,0.164-2.189,0.258
			c-0.245,0.032-0.492,0.058-0.737,0.094c-0.9,0.128-1.792,0.279-2.68,0.444c-0.044,0.008-0.088,0.015-0.131,0.023
			c-11.69,2.197-22.256,7.562-30.769,15.182v-80.295c0.001,0,0.003,0,0.004,0h106.667c0.057,0,0.112-0.008,0.169-0.009h170.493
			v85.333H303.698z"/>
	</g>
</g>
<g>
</g>
<g>
</g>
<g>
</g>
<g>
</g>
<g>
</g>
<g>
</g>
<g>
</g>
<g>
</g>
<g>
</g>
<g>
</g>
<g>
</g>
<g>
</g>
<g>
</g>
<g>
</g>
<g>
</g>
</svg>
