<?xml version="1.0" encoding="iso-8859-1"?>
<!-- Generator: Adobe Illustrator 18.0.0, SVG Export Plug-In . SVG Version: 6.00 Build 0)  -->
<!DOCTYPE svg PUBLIC "-//W3C//DTD SVG 1.1//EN" "http://www.w3.org/Graphics/SVG/1.1/DTD/svg11.dtd">
<svg version="1.1" id="Capa_1" xmlns="http://www.w3.org/2000/svg" xmlns:xlink="http://www.w3.org/1999/xlink" x="0px" y="0px"
	 viewBox="0 0 495.459 495.459" style="enable-background:new 0 0 495.459 495.459;" xml:space="preserve">
<g>
	<path d="M367.461,108.178c-12.244-3.32-25.414,0.154-34.376,9.065c-1.664,1.655-1.671,4.347-0.017,6.011
		c0.831,0.835,1.922,1.253,3.014,1.253c1.084,0,2.168-0.412,2.997-1.236c6.813-6.776,16.836-9.419,26.157-6.89
		c2.266,0.616,4.6-0.725,5.214-2.989C371.065,111.126,369.726,108.792,367.461,108.178z"/>
	<path d="M488.891,139.442c-5.886-10.01-15.317-17.128-26.555-20.043c-7.622-1.979-19.193-2.898-31.504-2.507
		c10.818-5.881,20.335-12.516,25.911-18.069c8.227-8.195,12.77-19.104,12.791-30.716c0.022-11.611-4.479-22.537-12.675-30.762
		c-8.195-8.228-19.103-12.771-30.714-12.795c-0.03,0-0.06,0-0.089,0c-11.579,0-22.47,4.498-30.676,12.673
		c-5.771,5.75-12.717,15.716-18.79,26.979c0.368-12.477-0.593-24.208-2.594-31.811C367.884,9.215,344.05-4.669,320.877,1.441
		c-23.18,6.111-37.067,29.94-30.958,53.119c2.197,8.33,7.899,20.307,15.263,31.931c-11.897-7.329-24.205-12.963-32.776-15.07
		c-11.275-2.771-22.957-0.987-32.89,5.025c-9.934,6.014-16.931,15.535-19.703,26.813c-3.546,14.432,0.601,28.981,9.808,39.321
		L26.306,345.896c-34.254,34.254-34.351,89.892-0.217,124.025c17.028,17.029,39.404,25.539,61.813,25.537
		c22.507-0.001,45.048-8.589,62.214-25.753c0.016-0.016,0.032-0.032,0.048-0.048l205.522-205.523
		c2.113,1.77,4.408,3.357,6.871,4.726c6.55,3.641,13.762,5.495,21.054,5.495c4.008,0,8.041-0.561,12-1.691
		c23.05-6.58,36.451-30.687,29.872-53.736c-2.176-7.621-7.306-18.147-13.951-28.629c10.643,6.395,21.296,11.27,28.968,13.261
		c3.646,0.945,7.306,1.398,10.91,1.398c19.325,0,37.011-13.005,42.085-32.562C496.411,161.155,494.776,149.452,488.891,139.442z
		 M401.379,43.245c6.602-6.576,15.362-10.194,24.677-10.194c0.023,0,0.048,0,0.072,0c9.341,0.019,18.117,3.674,24.71,10.294
		c6.593,6.617,10.215,15.405,10.197,24.747c-0.018,9.341-3.672,18.116-10.291,24.71c-8.401,8.368-30.436,21.976-50.376,27.954
		c-1.319,0.32-2.61,0.664-3.872,1.027c-2.054-5.389-5.231-10.444-9.556-14.786c-4.272-4.288-9.301-7.54-14.782-9.653
		C377.492,76.496,392.435,52.157,401.379,43.245z M380.967,161.14c-6.445,6.418-15.003,9.953-24.099,9.953
		c-9.145,0-17.735-3.567-24.188-10.045c-13.288-13.342-13.247-35.004,0.092-48.289c6.444-6.42,15.002-9.955,24.097-9.955
		c9.145,0,17.737,3.568,24.191,10.048C394.347,126.191,394.305,147.853,380.967,161.14z M338.844,221.837L173.518,387.161
		c-3.712-15.704-11.623-29.922-23.185-41.484c-11.561-11.559-25.769-19.484-41.47-23.198l164.366-164.367
		c0.756,0.012,1.518,0.018,2.287,0.018c2.762,0,5.601-0.07,8.474-0.212c-11.005,6.17-20.695,13.148-26.29,18.92
		c-16.682,17.215-16.25,44.792,0.961,61.474c8.171,7.92,18.885,12.257,30.238,12.257c0.232,0,0.465-0.002,0.697-0.006
		c11.611-0.181,22.457-4.873,30.538-13.211c5.728-5.912,12.578-16.145,18.493-27.654
		C338.557,213.855,338.632,217.942,338.844,221.837z M326.8,166.904c4.458,4.475,9.737,7.828,15.497,9.929
		c-4.966,20.938-19.477,45.531-28.267,54.603c-6.501,6.708-15.226,10.482-24.567,10.628c-9.35,0.125-18.18-3.355-24.887-9.855
		c-13.847-13.421-14.194-35.605-0.773-49.454c8.782-9.061,32.918-24.338,53.694-29.96
		C319.556,157.929,322.655,162.743,326.8,166.904z M323.044,9.66c18.649-4.92,37.816,6.255,42.733,24.898
		c3.127,11.877,3.779,39.92-1.856,60.538c-2.309-0.384-4.664-0.591-7.051-0.591c-10.021,0-19.513,3.459-27.119,9.801
		c-15.138-15.146-28.46-39.957-31.613-51.913C293.223,33.747,304.396,14.577,323.044,9.66z M228.068,105.287
		c2.229-9.071,7.858-16.731,15.85-21.569c7.992-4.837,17.39-6.271,26.459-4.043c12.265,3.015,37.635,16.151,52.97,31.261
		c-7.543,9.705-10.289,21.955-8.228,33.519c-13.33,4.066-30.004,5.45-43.44,5.1c-0.071-0.002-0.142-0.008-0.213-0.007
		c-7.228-0.198-13.505-0.895-17.787-1.948C234.955,142.995,223.466,124.013,228.068,105.287z M144.106,463.695L144.106,463.695
		c-30.943,30.939-81.189,31.035-112.006,0.217c-30.82-30.82-30.723-81.066,0.217-112.006l203.554-203.555
		c4.564,3.449,9.881,6.052,15.779,7.502c2.887,0.709,6.339,1.26,10.174,1.642L97.161,322.159c-1.14,1.14-1.537,2.825-1.025,4.354
		c0.512,1.528,1.843,2.636,3.439,2.86c17.07,2.397,32.544,10.112,44.747,22.315c12.204,12.204,19.919,27.678,22.312,44.749
		C170.133,421.363,161.921,445.878,144.106,463.695z M175.325,397.375l164.551-164.549c0.522,3.764,1.193,7.146,2,9.97
		c1.613,5.652,4.295,10.813,7.864,15.265L170.938,436.863C175.351,424.412,176.907,410.97,175.325,397.375z M417.309,221.262
		c5.293,18.542-5.487,37.935-24.032,43.229c-8.981,2.565-18.426,1.478-26.591-3.06c-3.011-1.673-5.712-3.745-8.055-6.141
		c-0.019-0.019-0.03-0.042-0.049-0.061c-0.022-0.022-0.049-0.037-0.072-0.059c-3.95-4.079-6.859-9.093-8.461-14.708
		c-1.172-4.104-2.081-10.088-2.561-17.007c0-0.007-0.001-0.013-0.001-0.02c-0.938-13.55-0.222-30.694,3.424-44.463
		c1.958,0.272,3.946,0.419,5.958,0.419c10.074,0,19.612-3.497,27.239-9.902c0.232,0.219,0.465,0.435,0.696,0.658
		c0.073,0.071,0.149,0.144,0.223,0.215C400.321,185.213,413.91,209.355,417.309,221.262z M485.267,170.261
		c-4.843,18.668-23.969,29.915-42.633,25.07c-11.945-3.099-36.29-16.024-51.524-30.897c-0.094-0.093-0.188-0.188-0.281-0.279
		c-0.259-0.256-0.512-0.512-0.765-0.768c7.665-9.61,10.549-21.802,8.653-33.361c1.277-0.325,2.57-0.684,3.875-1.074
		c20.229-4.921,46.125-4.307,57.609-1.324c9.041,2.345,16.628,8.071,21.362,16.124C486.298,151.804,487.613,161.219,485.267,170.261
		z"/>
	<path d="M88.429,353.365C88.428,353.365,88.429,353.365,88.429,353.365c-14.492,0-28.118,5.645-38.363,15.892
		c-10.248,10.246-15.891,23.87-15.891,38.361c0,14.491,5.645,28.114,15.892,38.361c10.555,10.557,24.454,15.838,38.359,15.838
		c13.801,0,27.607-5.205,38.145-15.623l0.017-0.016l0.204-0.197c0.524-0.524,1.028-1.065,1.531-1.608
		c19.799-21.464,19.127-54.459-1.53-75.116C116.546,359.009,102.922,353.365,88.429,353.365z M122.078,438.605
		c-0.424,0.459-0.851,0.92-1.309,1.377l-0.17,0.162c-0.001,0.002-0.003,0.004-0.005,0.005c-17.839,17.639-46.781,17.558-64.516-0.18
		c-8.643-8.643-13.402-20.132-13.403-32.352c0-12.221,4.759-23.71,13.401-32.352c8.642-8.643,20.131-13.401,32.353-13.401
		c12.221,0,23.711,4.76,32.353,13.401C138.203,392.687,138.771,420.511,122.078,438.605z"/>
</g>
<g>
</g>
<g>
</g>
<g>
</g>
<g>
</g>
<g>
</g>
<g>
</g>
<g>
</g>
<g>
</g>
<g>
</g>
<g>
</g>
<g>
</g>
<g>
</g>
<g>
</g>
<g>
</g>
<g>
</g>
</svg>
