<?xml version="1.0" encoding="iso-8859-1"?>
<!-- Generator: Adobe Illustrator 19.0.0, SVG Export Plug-In . SVG Version: 6.00 Build 0)  -->
<svg version="1.1" id="Layer_1" xmlns="http://www.w3.org/2000/svg" xmlns:xlink="http://www.w3.org/1999/xlink" x="0px" y="0px"
	 viewBox="0 0 512.001 512.001" style="enable-background:new 0 0 512.001 512.001;" xml:space="preserve">
<g>
	<g>
		<path d="M510.414,276.865l-43.396-57.863l38.302-6.384c6.301-1.05,8.879-9.051,4.351-13.577l-54.945-54.945l21.483-28.644
			c3.044-4.059,1.472-10.079-3.158-12.137l-68.86-30.605l29.806-52.16c3.518-6.156-2.481-13.692-9.265-11.657l-79.059,23.716
			L331.586,4.434c-1.98-3.961-6.794-5.567-10.756-3.585l-64.829,32.414L191.173,0.849c-3.958-1.979-8.775-0.375-10.756,3.585
			l-14.088,28.175L87.27,8.892c-6.783-2.033-12.784,5.499-9.265,11.657l29.806,52.16l-68.86,30.605
			c-4.63,2.057-6.202,8.077-3.158,12.137l21.483,28.644L2.332,199.04c-4.527,4.526-1.95,12.527,4.351,13.577l38.302,6.384
			L1.587,276.864c-3.891,5.188-0.057,12.828,6.414,12.828H47.59c-0.217,3.317-0.204,6.711,0.05,10.15
			c-0.087,0.127-0.177,0.25-0.258,0.384L9.678,363.068c-3.509,5.849,1.766,13.321,8.447,11.986l30.69-6.138l-14.433,64.952
			c-1.435,6.453,5.491,11.872,11.411,8.91l43.043-21.52l22.732,68.196c1.732,5.198,8.328,7.154,12.614,3.725l36.623-29.297
			l37.727,45.273c2.973,3.568,8.544,3.82,11.828,0.537l32.768-32.768c4.28,0.593,8.574,0.91,12.872,0.91
			c4.28,0,8.569-0.32,12.855-0.928l32.786,32.786c3.284,3.284,8.854,3.032,11.828-0.537l37.727-45.274l36.623,29.298
			c4.286,3.428,10.882,1.473,12.614-3.725l22.732-68.196l43.043,21.521c5.92,2.96,12.847-2.454,11.411-8.91l-14.433-64.952
			l30.69,6.138c6.68,1.336,11.955-6.138,8.447-11.986c0,0-37.508-62.312-38.002-62.79c0.285-3.587,0.315-7.129,0.089-10.585H504
			C510.47,289.693,514.305,282.053,510.414,276.865z M205.23,492.144l-37.138-44.565c-2.794-3.353-7.76-3.856-11.168-1.128
			l-33.781,27.025l-22.02-66.059c-1.517-4.553-6.89-6.789-11.191-4.635l-36.245,18.122l13.45-60.523
			c1.236-5.559-3.816-10.714-9.398-9.6l-24.987,4.997l19.914-33.189c4.799,12.948,12.477,24.072,21.901,31.6
			c8.131,6.495,16.879,9.845,25.383,9.844c6.546,0,12.951-2.055,18.291-5.834c6.352,14.231,13.803,28.071,22.195,40.971
			c24.676,37.932,53.85,63.116,84.361,73.408L205.23,492.144z M65.228,281.002c1.417-4.944,5.018-13.628,13.207-16.239
			c5.985-1.91,11.841,0.323,15.701,2.535c0.099,0.057,0.202,0.102,0.302,0.153c1.522,23.719,7.623,49.759,17.354,75.187
			c-2.057,2.219-4.416,3.777-7.047,4.616c-8.189,2.61-16.152-2.383-20.17-5.593c-7.877-6.293-14.247-16.128-17.936-27.694
			C62.95,302.401,62.449,290.694,65.228,281.002z M479.252,355.778l-24.987-4.997c-5.582-1.113-10.634,4.042-9.398,9.6l13.45,60.523
			l-36.244-18.122c-4.303-2.152-9.673,0.082-11.191,4.635l-22.02,66.058L355.08,446.45c-3.408-2.728-8.373-2.226-11.168,1.128
			l-37.138,44.565l-19.646-19.644c26.001-8.867,51.319-28.599,73.446-57.693c2.68-3.524,1.996-8.554-1.529-11.235
			c-3.524-2.681-8.553-1.996-11.235,1.529c-27.805,36.562-60.411,56.698-91.81,56.698c-48.462,0-84.786-44.716-102.126-71.371
			c-27.01-41.521-43.788-93.023-43.788-134.406c0-5.896,0.36-11.804,1.063-17.638h289.705c0.702,5.834,1.063,11.742,1.063,17.638
			c0,37.875-14.012,84.309-37.482,124.212c-2.072,3.523-1.093,8.175,2.221,10.567c3.78,2.727,9.241,1.573,11.6-2.437
			c5.724-9.732,10.909-19.849,15.512-30.149c5.334,3.773,11.752,5.822,18.288,5.821c8.504,0,17.252-3.35,25.383-9.844
			c9.424-7.528,17.102-18.652,21.901-31.601L479.252,355.778z M352.886,222.348h-25.7l43.828-43.828h25.7L352.886,222.348z
			 M419.019,178.89v43.458h-43.458L419.019,178.89z M304.509,222.348h-30.621l43.828-43.828h30.621L304.509,222.348z
			 M251.214,222.348h-25.7l43.828-43.828h25.7L251.214,222.348z M202.837,222.348h-30.621l43.828-43.828h30.621L202.837,222.348z
			 M149.542,222.348h-25.7l43.828-43.828h25.7L149.542,222.348z M417.576,267.406c0.244-0.104,0.483-0.219,0.719-0.35
			c3.754-2.072,9.452-4.152,15.273-2.294c8.188,2.612,11.789,11.295,13.206,16.239c2.779,9.691,2.278,21.399-1.411,32.965
			s-10.059,21.402-17.936,27.694c-4.018,3.21-11.983,8.206-20.171,5.593c-2.622-0.837-4.98-2.386-7.034-4.598
			C409.996,317.142,416.067,291.104,417.576,267.406z M461.254,273.659c-4.276-12.282-12.29-20.816-22.813-24.173
			c-6.608-2.109-13.622-1.975-20.614,0.333c-0.145-3.824-0.424-7.642-0.836-11.437h10.044c4.428,0,8.017-3.59,8.017-8.017v-59.862
			c0-4.428-3.59-8.017-8.017-8.017H164.347c-2.126,0-4.166,0.844-5.669,2.349l-57.514,57.514h-8.182V178.52h34.742
			c4.428,0,8.017-3.59,8.017-8.017s-3.59-8.017-8.017-8.017H84.965c-4.428,0-8.017,3.59-8.017,8.017v59.862
			c0,4.428,3.59,8.017,8.017,8.017h10.044c-0.412,3.796-0.691,7.615-0.836,11.44c-6.988-2.31-13.995-2.448-20.614-0.337
			c-10.523,3.357-18.538,11.89-22.813,24.173H24.033l41.69-55.586c3.547-4.73,0.718-11.749-5.096-12.719l-35.942-5.991
			l48.847-48.847c2.821-2.821,3.138-7.287,0.745-10.479l-19.618-26.157l67.771-30.12c4.271-1.898,6.027-7.24,3.705-11.304
			l-24.251-42.439l66.296,19.889c3.733,1.119,7.731-0.607,9.474-4.094l13.518-27.036l61.243,30.622c2.257,1.129,4.914,1.129,7.171,0
			l61.243-30.622l13.518,27.036c1.742,3.487,5.74,5.211,9.474,4.094l66.296-19.889l-24.251,42.439
			c-2.322,4.063-0.565,9.406,3.705,11.304l67.771,30.12l-19.618,26.157c-2.393,3.192-2.076,7.658,0.745,10.479l48.847,48.847
			l-35.944,5.99c-5.815,0.97-8.644,7.988-5.096,12.719l41.69,55.586H461.254z"/>
	</g>
</g>
<g>
	<g>
		<path d="M273.105,384.831h-34.207c-4.428,0-8.017,3.59-8.017,8.017s3.59,8.017,8.017,8.017h34.207c4.428,0,8.017-3.59,8.017-8.017
			S277.533,384.831,273.105,384.831z"/>
	</g>
</g>
<g>
	<g>
		<path d="M384.278,248.003H127.725c-4.428,0-8.017,3.59-8.017,8.017v42.759c0,18.567,15.106,33.672,33.672,33.672h34.207
			c23.738,0,44.253-14.018,53.73-34.207h29.368c9.476,20.189,29.992,34.207,53.73,34.207h34.207
			c18.568,0,33.674-15.106,33.674-33.672v-42.759C392.295,251.593,388.706,248.003,384.278,248.003z M230.881,273.124
			c0,23.872-19.421,43.293-43.293,43.293h-34.207c-9.725,0-17.638-7.913-17.638-17.638v-34.742h95.138V273.124z M246.219,282.21
			c0.458-2.963,0.696-5.997,0.696-9.086v-9.086h18.172v9.086c0,3.089,0.238,6.123,0.696,9.086H246.219z M376.261,298.779
			c0,9.725-7.912,17.638-17.638,17.638h-34.207c-23.872,0-43.293-19.421-43.293-43.293v-9.086h95.138V298.779z"/>
	</g>
</g>
<g>
</g>
<g>
</g>
<g>
</g>
<g>
</g>
<g>
</g>
<g>
</g>
<g>
</g>
<g>
</g>
<g>
</g>
<g>
</g>
<g>
</g>
<g>
</g>
<g>
</g>
<g>
</g>
<g>
</g>
</svg>
