<?xml version="1.0" encoding="iso-8859-1"?>
<!-- Generator: Adobe Illustrator 19.0.0, SVG Export Plug-In . SVG Version: 6.00 Build 0)  -->
<svg version="1.1" id="Capa_1" xmlns="http://www.w3.org/2000/svg" xmlns:xlink="http://www.w3.org/1999/xlink" x="0px" y="0px"
	 viewBox="0 0 60 60" style="enable-background:new 0 0 60 60;" xml:space="preserve">
<g>
	<g>
		<path d="M59,0H1C0.4,0,0,0.4,0,1v30c0,0.6,0.4,1,1,1h28v5.5c-1-0.9-2.4-1.5-4-1.5h-4c-3.4,0-6,2.6-6,6s2.6,6,6,6h4
			c1.6,0,3-0.6,4-1.5V54h-9c-2.2,0-4,1.8-4,4h-5v2h5h2h24h2h5v-2h-5c0-2.2-1.8-4-4-4h-9v-7.5c1,0.9,2.4,1.5,4,1.5h4c3.4,0,6-2.6,6-6
			s-2.6-6-6-6h-4c-1.6,0-3,0.6-4,1.5V32h28c0.6,0,1-0.4,1-1V1C60,0.4,59.6,0,59,0z M42,58H18c0-1.1,0.9-2,2-2h20
			C41.1,56,42,56.9,42,58z M2,2h21.7C20.9,4,19,7.3,19,11v10c0,3.7,1.8,7,4.7,9H2V2z M30,2c5,0,9,4,9,9v10c0,5-4,9-9,9s-9-4-9-9V11
			C21,6,25,2,30,2z M25,46h-4c-2.2,0-4-1.8-4-4s1.8-4,4-4h4c1.9,0,3.4,1.3,3.9,3H22v2h6.9C28.4,44.7,26.9,46,25,46z M35,38h4
			c2.2,0,4,1.8,4,4s-1.8,4-4,4h-4c-1.9,0-3.4-1.3-3.9-3H38v-2h-6.9C31.6,39.3,33.1,38,35,38z M58,30H36.3c2.8-2,4.7-5.3,4.7-9V11
			c0-3.7-1.8-7-4.7-9H58V30z"/>
		<path d="M52,12h2V6c0-0.6-0.4-1-1-1h-6v2h5V12z"/>
		<path d="M7,7h5V5H6C5.4,5,5,5.4,5,6v6h2V7z"/>
		<path d="M7,20H5v6c0,0.6,0.4,1,1,1h6v-2H7V20z"/>
		<path d="M52,25h-5v2h6c0.6,0,1-0.4,1-1v-6h-2V25z"/>
		<path d="M31,23h-2c-1.7,0-3-1.3-3-3h-2c0,2.8,2.2,5,5,5v2h2v-2c2.8,0,5-2.2,5-5s-2.2-5-5-5h-2c-1.7,0-3-1.3-3-3s1.3-3,3-3h2
			c1.7,0,3,1.3,3,3h2c0-2.8-2.2-5-5-5V5h-2v2c-2.8,0-5,2.2-5,5s2.2,5,5,5h2c1.7,0,3,1.3,3,3S32.7,23,31,23z"/>
		<rect x="45" y="15" width="3" height="2"/>
		<rect x="12" y="15" width="3" height="2"/>
	</g>
</g>
<g>
</g>
<g>
</g>
<g>
</g>
<g>
</g>
<g>
</g>
<g>
</g>
<g>
</g>
<g>
</g>
<g>
</g>
<g>
</g>
<g>
</g>
<g>
</g>
<g>
</g>
<g>
</g>
<g>
</g>
</svg>
