<?xml version="1.0" encoding="iso-8859-1"?>
<!-- Generator: Adobe Illustrator 18.0.0, SVG Export Plug-In . SVG Version: 6.00 Build 0)  -->
<!DOCTYPE svg PUBLIC "-//W3C//DTD SVG 1.1//EN" "http://www.w3.org/Graphics/SVG/1.1/DTD/svg11.dtd">
<svg version="1.1" id="Capa_1" xmlns="http://www.w3.org/2000/svg" xmlns:xlink="http://www.w3.org/1999/xlink" x="0px" y="0px"
	 viewBox="0 0 277.921 277.921" style="enable-background:new 0 0 277.921 277.921;" xml:space="preserve">
<g>
	<path d="M271.921,145.043h-31.015c3.94-8.077,4.638-17.59,1.526-26.374c1.956-8.166,0.936-17.061-3.561-24.903
		c-4.533-7.905-11.874-13.571-20.669-15.955c-8.796-2.384-17.992-1.201-25.897,3.333l-10.976,6.295V67.772c0-3.313-2.687-6-6-6
		c-16.363,0-29.675,13.312-29.675,29.675v16.451L40.687,168.096c-7.905,4.533-13.571,11.874-15.956,20.669
		c-1.839,6.783-1.546,13.803,0.76,20.288c-1.213,5.046-1.263,10.201-0.187,15.152H6c-3.313,0-6,2.687-6,6s2.687,6,6,6h24.473
		c0.679,1,1.405,1.959,2.177,2.873H6c-3.313,0-6,2.687-6,6s2.687,6,6,6l52.713,0.051c5.878,0,11.682-1.533,16.918-4.537
		l151.618-86.953c1.37-0.786,2.657-1.659,3.874-2.597h40.798c3.313,0,6-2.687,6-6S275.234,145.043,271.921,145.043z
		 M181.329,101.271l16.946-9.718c3.395-1.947,7.157-2.94,10.967-2.94c1.942,0,3.896,0.258,5.821,0.78
		c5.702,1.545,10.46,5.219,13.399,10.343c0.401,0.7,0.757,1.414,1.074,2.136c-3.113-2.124-6.59-3.739-10.334-4.754
		c-8.795-2.383-17.993-1.201-25.897,3.333l-11.976,6.868V101.271z M157.654,91.447c0-7.641,4.873-14.165,11.675-16.626v39.381
		l-11.675,6.695V91.447z M46.656,178.506l98.998-56.775v6.049L41.687,187.404c-1.813,1.04-3.501,2.233-5.066,3.552
		C38.304,185.681,41.822,181.278,46.656,178.506z M221.279,149.231L69.661,236.183c-5.124,2.939-11.084,3.707-16.789,2.161
		c-5.701-1.545-10.46-5.219-13.399-10.343c-2.938-5.125-3.706-11.086-2.161-16.788s5.219-10.46,10.343-13.399l151.618-86.953
		c3.46-1.984,7.237-2.927,10.965-2.927c7.671,0,15.14,3.991,19.222,11.109C235.528,129.622,231.857,143.164,221.279,149.231z"/>
	<path d="M163.491,59.951c9.142,0,16.58-7.438,16.58-16.58s-7.438-16.58-16.58-16.58s-16.58,7.438-16.58,16.58
		S154.349,59.951,163.491,59.951z M163.491,38.792c2.525,0,4.58,2.054,4.58,4.58s-2.054,4.58-4.58,4.58s-4.58-2.055-4.58-4.58
		S160.966,38.792,163.491,38.792z"/>
</g>
<g>
</g>
<g>
</g>
<g>
</g>
<g>
</g>
<g>
</g>
<g>
</g>
<g>
</g>
<g>
</g>
<g>
</g>
<g>
</g>
<g>
</g>
<g>
</g>
<g>
</g>
<g>
</g>
<g>
</g>
</svg>
