<?xml version="1.0" encoding="iso-8859-1"?>
<!-- Generator: Adobe Illustrator 19.0.0, SVG Export Plug-In . SVG Version: 6.00 Build 0)  -->
<svg version="1.1" id="Layer_1" xmlns="http://www.w3.org/2000/svg" xmlns:xlink="http://www.w3.org/1999/xlink" x="0px" y="0px"
	 viewBox="0 0 506.88 506.88" style="enable-background:new 0 0 506.88 506.88;" xml:space="preserve">
<path style="fill:#E8E3E3;" d="M242.24,488.88c-3.2,0-4.8-1.2-8.8-2v8.8c0,2,0.4,5.2,5.2,5.2h26.4c3.2,0,4.4-2,4.4-5.2v-8.4
	c0,0.4-3.6,1.2-5.2,1.2C264.24,488.88,242.24,488.88,242.24,488.88z"/>
<path style="fill:#7D8B95;" d="M233.04,483.28c3.2,0.8,6,1.6,9.2,1.6h21.6c2,0,3.6-0.8,5.6-0.8c0.4-0.8,0.8-1.6,2-1.6
	c0.8,0,1.2,0.8,1.6,1.2c11.6-2.8,21.6-10.4,27.2-22.4h-96.8c6,8,15.6,18.4,27.2,21.6c0.4,0,0.4-0.4,0.8-0.4
	C232.24,482.48,232.64,482.88,233.04,483.28z"/>
<path style="fill:#AEB1B4;" d="M273.44,400.88h-76v36.8c0,6.4,0,13.2,4,18.8v0.4h100c0.4,0,0.4-0.4,0.4-0.4c2-5.6,3.6-12.4,3.6-18.8
	v-36.8h-8H273.44z"/>
<g>
	<path style="fill:#FF9999;" d="M231.44,482.08c-0.4,0-0.4,0-0.8,0.4c0.8,0.4,1.6,0.4,2.4,0.8
		C232.64,482.08,232.24,482.08,231.44,482.08z"/>
	<path style="fill:#FF9999;" d="M271.44,482.08c-0.8,0-1.6,0.8-2,1.6c1.2,0,2.4-0.4,3.6-0.8
		C272.64,482.08,272.24,482.08,271.44,482.08z"/>
</g>
<path style="fill:#CDEEF9;" d="M239.44,311.68v49.2h28v-37.6c0-0.8,0.4-2,1.2-2l100.4-36.4c3.6-1.2,6.4-4,8-7.2s1.6-7.2,0.4-10.8
	c-2.8-7.2-10.8-11.2-18-8.4l-108.4,39.2c-0.4,0-0.8,0.4-1.2,0.4l-2.4,1.2C242.64,301.28,239.44,306.48,239.44,311.68z"/>
<path style="fill:#ACD9EA;" d="M369.04,250.08c3.6-1.2,6.4-4,8-7.2s1.6-7.2,0.4-10.8c-2-5.6-7.2-9.2-13.2-9.2
	c-1.6,0-3.2,0.4-4.8,0.8l-221.6,80.8c-3.6,1.2-6.4,4-8,7.2s-1.6,7.2-0.4,10.8c2,5.6,7.2,9.2,13.2,9.2c1.6,0,3.2-0.4,4.8-0.8l98.4-36
	c0.8-0.4,2-0.8,2.8-1.2L369.04,250.08z"/>
<path style="fill:#FF9999;" d="M245.84,294.88l2.8-1.2C247.84,294.48,246.64,294.48,245.84,294.88z"/>
<g>
	<path style="fill:#CDEEF9;" d="M129.44,288.48c2,5.6,7.2,9.2,13.2,9.2c1.6,0,3.2-0.4,4.8-0.8l221.6-80.8c3.6-1.2,6.4-4,8-7.2
		s1.6-7.2,0.4-10.8c-2-5.6-7.2-9.2-13.2-9.2c-1.6,0-3.2,0.4-4.8,0.8l-221.6,80.8C130.64,273.28,126.64,281.28,129.44,288.48z"/>
	<path style="fill:#CDEEF9;" d="M129.84,243.68c-1.6,3.2-1.6,7.2-0.4,10.8c2,5.6,7.2,9.2,13.2,9.2c1.6,0,3.2-0.4,4.8-0.8l221.6-80.8
		c3.6-1.2,6.4-4,8-7.2s1.6-7.2,0.4-10.8c-2-5.6-7.2-9.2-13.2-9.2c-1.2,0-2.4,0.4-3.6,0.4l-211.6,77.2c-0.4,0-0.8,0-1.2,0.4l-10,3.6
		C134.24,237.68,131.44,240.08,129.84,243.68z"/>
</g>
<path style="fill:#E8E3E3;" d="M359.04,151.68l10-3.6c7.2-2.8,11.2-10.8,8.4-18c-2-5.6-7.2-9.2-13.2-9.2c-1.6,0-3.2,0.4-4.8,0.8
	l-221.6,80.8c-7.2,2.8-11.2,10.8-8.4,18c2,5.6,7.2,9.2,13.2,9.2c1.2,0,2.4-0.4,3.6-0.4l211.6-77.2
	C358.64,151.68,358.64,151.68,359.04,151.68z"/>
<path style="fill:#FF9999;" d="M359.04,151.68c-0.4,0-0.8,0-1.2,0.4l-211.6,77.2c0.4,0,0.8,0,1.2-0.4L359.04,151.68z"/>
<path style="fill:#F4EFEF;" d="M129.44,186.08c2,5.6,7.2,9.2,13.2,9.2c1.6,0,3.2-0.4,4.8-0.8l221.6-80.8c3.6-1.2,6.4-4,8-7.2
	s1.6-7.2,0.4-10.8c-2-5.6-7.2-9.2-13.2-9.2c-1.6,0-3.2,0.4-4.8,0.8l-221.6,80.8C130.64,170.88,126.64,178.88,129.44,186.08z"/>
<path style="fill:#E8E3E3;" d="M129.84,141.28c-1.6,3.2-1.6,7.2-0.4,10.8c2,5.6,7.2,9.2,13.2,9.2c1.6,0,3.2-0.4,4.8-0.8l221.6-80.8
	c3.6-1.2,6.4-4,8-7.2s1.6-7.2,0.4-10.8c-2-5.6-7.2-9.2-13.2-9.2c-1.6,0-2.8,0.4-4,0.8l-211.2,76.8c-0.4,0-0.4,0-0.8,0l-10.4,3.6
	C134.24,135.28,131.44,137.68,129.84,141.28z"/>
<path style="fill:#CDEEF9;" d="M129.84,107.28c-1.6,3.2-1.6,7.2-0.4,10.8c2,5.6,7.2,9.2,13.2,9.2c1.6,0,2.8-0.4,4-0.8l211.2-76.8
	c0.4,0,0.4,0,0.8,0l10.4-3.6c3.6-1.2,6.4-4,8-7.2s1.6-7.2,0.4-10.8c-2-5.6-7.2-9.2-13.2-9.2c-1.6,0-3.2,0.4-4.8,0.8l-46.4,16.8
	c-0.4,0-0.8,0.4-1.2,0.4l-163.2,59.2c-0.4,0-1.2,0.4-1.6,0.4l-9.2,3.6C134.24,101.28,131.44,103.68,129.84,107.28z"/>
<path style="fill:#FF9999;" d="M146.64,126.48c0.4,0,0.4,0,0.8,0l211.2-76.8c-0.4,0-0.4,0-0.8,0L146.64,126.48z"/>
<path style="fill:#ACD9EA;" d="M318.24,25.68c1.6-3.2,1.6-7.2,0.4-10.8c-2-5.6-7.2-9.2-13.2-9.2c-1.6,0-3.2,0.4-4.8,0.8l-163.2,59.2
	c-3.6,1.2-6.4,4-8,7.2s-1.6,7.2-0.4,10.8c2,5.6,7.2,9.2,13.2,9.2c1.2,0,2,0,3.2-0.4l165.6-60.4
	C314.64,31.28,317.04,28.88,318.24,25.68z"/>
<path style="fill:#FF9999;" d="M147.44,92.48l163.2-59.2c0.4,0,0.8-0.4,1.2-0.4l-165.6,60.4C146.24,92.88,147.04,92.48,147.44,92.48
	z"/>
<path style="fill:#E8E3E3;" d="M307.44,364.88h-2h-110c-3.2,0-6,1.6-6,5.2v20c0,2.8,1.6,5.2,4,6c0.8,0.4,1.2,0.8,2,0.8h2h108h2
	c0.8,0,1.2-0.8,2-0.8c2.4-0.8,4-3.6,4-6v-18v-2C313.44,366.48,310.64,364.88,307.44,364.88z"/>
<path d="M264.24,490.88h-21.6c-26.8,0-50.8-25.2-50.8-53.2v-36.8c0-2.4,1.6-4,4-4s4,1.6,4,4v36.8c0,23.6,20.4,45.2,42.8,45.2h21.6
	c21.2,0,39.2-20.8,39.2-45.2v-36.8c0-2.4,1.6-4,4-4s4,1.6,4,4v36.8C311.44,466.48,289.84,490.88,264.24,490.88z"/>
<path d="M265.04,506.88h-28.8c-8.8,0-8.8-8-8.8-11.2v-6.8c0-2.4,1.6-4,4-4s4,1.6,4,4v6.8c0,2,0,2.8,0.4,3.2c0,0,0.4,0,0.8,0h28.8
	c1.6,0,2.4,0,2.4-3.2v-6.8c0-2.4,1.6-4,4-4s4,1.6,4,4v6.8C275.44,502.48,271.44,506.88,265.04,506.88z"/>
<path d="M273.44,402.88h-76c-2.4,0-4-1.6-4-4s1.6-4,4-4h76c2.4,0,4,1.6,4,4S275.84,402.88,273.44,402.88z"/>
<path d="M273.44,422.88h-76c-2.4,0-4-1.6-4-4s1.6-4,4-4h76c2.4,0,4,1.6,4,4S275.84,422.88,273.44,422.88z"/>
<path d="M273.44,442.88h-76c-2.4,0-4-1.6-4-4s1.6-4,4-4h76c2.4,0,4,1.6,4,4S275.84,442.88,273.44,442.88z"/>
<path d="M309.44,402.88h-12c-2.4,0-4-1.6-4-4s1.6-4,4-4h12c2.4,0,4,1.6,4,4S311.84,402.88,309.44,402.88z"/>
<path d="M305.44,422.88h-8c-2.4,0-4-1.6-4-4s1.6-4,4-4h8c2.4,0,4,1.6,4,4S307.84,422.88,305.44,422.88z"/>
<path d="M305.44,442.88h-8c-2.4,0-4-1.6-4-4s1.6-4,4-4h8c2.4,0,4,1.6,4,4S307.84,442.88,305.44,442.88z"/>
<path d="M301.44,462.88h-100c-2.4,0-4-1.6-4-4s1.6-4,4-4h100c2.4,0,4,1.6,4,4S303.84,462.88,301.44,462.88z"/>
<path d="M269.44,364.48L269.44,364.48c-2.4,0-4-1.6-4-4v-37.6c0-1.6,1.2-3.2,2.8-3.6l100.4-36.4c3.2-1.2,5.6-3.2,6.8-6.4
	c1.2-2.8,1.6-6,0.4-9.2c-2.4-6.4-9.2-9.6-15.2-7.2l-108.4,39.2c-0.4,0-0.4,0-0.8,0c-5.6,1.2-9.6,6-10,11.6v49.2c0,2.4-1.6,4-4,4l0,0
	c-2.4,0-4-1.6-4-4v-49.2c0-9.6,6.8-17.6,16-19.6l108-39.2c10.4-3.6,22,1.6,25.6,12c2,5.2,1.6,10.4-0.8,15.2
	c-2.4,4.8-6.4,8.4-11.2,10.4l-97.6,35.6v34.8C273.44,362.48,271.44,364.48,269.44,364.48z"/>
<path d="M142.64,337.68c-8.4,0-16-5.2-18.8-13.2c-2-5.2-1.6-10.4,0.8-15.2c2.4-4.8,6.4-8.4,11.2-10.4l221.6-80.8
	c5.2-2,10.4-1.6,15.2,0.8s8.4,6.4,10.4,11.2c2,5.2,1.6,10.4-0.8,15.2s-6.4,8.4-11.2,10.4l-221.6,80.8
	C147.44,337.28,145.04,337.68,142.64,337.68z M364.24,225.28c-1.2,0-2.8,0.4-4,0.8l-221.6,80.8c-3.2,1.2-5.6,3.2-6.8,6
	s-1.6,6-0.4,9.2c1.6,4.8,6.4,8,11.2,8c1.6,0,2.8-0.4,4-0.8l221.6-80.8c3.2-1.2,5.6-3.2,6.8-6.4c1.2-2.8,1.6-6,0.4-9.2
	c-1.2-3.2-3.2-5.6-6.4-6.8C367.84,225.68,365.84,225.28,364.24,225.28z"/>
<path d="M142.64,303.68c-8.4,0-16-5.2-18.8-13.2c-2-5.2-1.6-10.4,0.8-15.2s6.4-8.4,11.2-10.4l221.6-80.8c5.2-2,10.4-1.6,15.2,0.8
	s8.4,6.4,10.4,11.2c2,5.2,1.6,10.4-0.8,15.2s-6.4,8.4-11.2,10.4l-221.6,80.8C147.44,303.28,145.04,303.68,142.64,303.68z
	 M364.24,190.88c-1.2,0-2.8,0.4-4,0.8l-221.6,80.8c-3.2,1.2-5.6,3.2-6.8,6.4c-1.2,2.8-1.6,6-0.4,9.2c1.6,4.8,6.4,8,11.2,8
	c1.6,0,2.8-0.4,4-0.8l221.6-80.8c3.2-1.2,5.6-3.2,6.8-6.4c1.2-2.8,1.6-6,0.4-9.2c-1.2-3.2-3.2-5.6-6.4-6.8
	C367.84,191.28,365.84,190.88,364.24,190.88z"/>
<path d="M142.64,269.28c-8.4,0-16-5.2-18.8-13.2c-2-5.2-1.6-10.4,0.8-15.2c2.4-4.8,6.4-8.4,11.2-10.4l221.6-80.8
	c5.2-2,10.4-1.6,15.2,0.8s8.4,6.4,10.4,11.2c2,5.2,1.6,10.4-0.8,15.2c-2.4,4.8-6.4,8.4-11.2,10.4l-221.6,80.8
	C147.04,268.88,145.04,269.28,142.64,269.28z M364.24,156.88c-1.2,0-2.8,0.4-4,0.8l-221.6,80.8c-3.2,1.2-5.6,3.2-6.8,6.4
	c-1.2,2.8-1.6,6-0.4,9.2c2,6,9.2,9.6,15.2,7.2l221.6-80.8c3.2-1.2,5.6-3.2,6.8-6.4c1.2-2.8,1.6-6,0.4-9.2c-1.2-3.2-3.2-5.6-6.4-6.8
	C367.84,157.28,365.84,156.88,364.24,156.88z"/>
<path d="M142.64,235.68c-8.4,0-16-5.2-18.8-13.2c-2-5.2-1.6-10.4,0.8-15.2c2.4-4.8,6.4-8.4,11.2-10.4l221.6-80.8
	c10.4-3.6,22,1.6,25.6,12s-1.6,22-12,25.6l-221.6,80.8C147.44,235.28,145.04,235.68,142.64,235.68z M364.24,122.88
	c-1.2,0-2.8,0.4-4,0.8l-221.6,80.8c-3.2,1.2-5.6,3.2-6.8,6.4c-1.2,2.8-1.6,6-0.4,9.2c1.6,4.8,6.4,8,11.2,8c1.2,0,2.8-0.4,4-0.8
	l221.6-80.8c6.4-2.4,9.6-9.2,7.2-15.2C373.84,125.68,369.04,122.88,364.24,122.88z"/>
<path d="M142.64,201.28c-8.4,0-16-5.2-18.8-13.2c-2-5.2-1.6-10.4,0.8-15.2c2.4-4.8,6.4-8.4,11.2-10.4l221.6-80.8
	c10.4-3.6,22,1.6,25.6,12c2,5.2,1.6,10.4-0.8,15.2c-2.4,4.8-6.4,8.4-11.2,10.4l-221.6,80.8
	C147.04,200.88,145.04,201.28,142.64,201.28z M364.24,88.88c-1.2,0-2.8,0.4-4,0.8l-221.6,80.8c-3.2,1.2-5.6,3.2-6.8,6.4
	c-1.2,2.8-1.6,6-0.4,9.2c2,6,9.2,9.2,15.2,7.2l221.6-80.8c3.2-1.2,5.6-3.2,6.8-6.4c1.2-2.8,1.6-6,0.4-9.2
	C373.84,91.68,369.04,88.88,364.24,88.88z"/>
<path d="M142.64,167.28c-8.4,0-16-5.2-18.8-13.2c-2-5.2-1.6-10.4,0.8-15.2c2.4-4.8,6.4-8.4,11.2-10.4l221.6-80.8
	c5.2-2,10.4-1.6,15.2,0.8s8.4,6.4,10.4,11.2c2,5.2,1.6,10.4-0.8,15.2c-2.4,4.8-6.4,8.4-11.2,10.4l-221.6,80.8
	C147.44,166.88,145.04,167.28,142.64,167.28z M364.24,54.48c-1.2,0-2.8,0.4-4,0.8l-221.6,80.8c-3.2,1.2-5.6,3.2-6.8,6.4
	c-1.2,2.8-1.6,6-0.4,9.2c1.6,4.8,6.4,8,11.2,8c1.6,0,2.8-0.4,4-0.8l221.6-80.8c3.2-1.2,5.6-3.2,6.8-6.4c1.2-2.8,1.6-6,0.4-9.2
	c-1.2-3.2-3.2-5.6-6.4-6.8C367.84,54.88,365.84,54.48,364.24,54.48z"/>
<path d="M142.64,133.28c-8.4,0-16-5.2-18.8-13.2c-2-5.2-1.6-10.4,0.8-15.2c2.4-4.8,6.4-8.4,11.2-10.4l221.6-80.8
	c10.4-3.6,22,1.6,25.6,12s-1.6,22-12,25.6l-221.6,80.8C147.44,132.88,145.04,133.28,142.64,133.28z M364.24,20.48
	c-1.2,0-2.8,0.4-4,0.8l-221.6,80.8c-3.2,1.2-5.6,3.2-6.8,6.4c-1.2,2.8-1.6,6-0.4,9.2c1.6,4.8,6.4,8,11.2,8c1.2,0,2.8-0.4,4-0.8
	l221.6-80.8c6.4-2.4,9.6-9.2,7.2-15.2C373.84,23.68,369.04,20.48,364.24,20.48z"/>
<path d="M142.64,99.28c-8.4,0-16-5.2-18.8-13.2c-2-5.2-1.6-10.4,0.8-15.2s6.4-8.4,11.2-10.4l163.2-59.2c5.2-2,10.4-1.6,15.2,0.8
	s8.4,6.4,10.4,11.2c3.6,10.4-1.6,22-12,25.6l-163.2,59.2C147.04,98.88,145.04,99.28,142.64,99.28z M305.84,7.68
	c-1.2,0-2.8,0.4-4,0.8l-163.2,59.2c-3.2,1.2-5.6,3.2-6.8,6.4c-1.2,2.8-1.6,6-0.4,9.2c2,6,9.2,9.2,15.2,7.2l163.2-59.2
	c6.4-2.4,9.6-9.2,7.2-15.2c-1.2-3.2-3.2-5.6-6.4-6.8C309.04,8.08,307.44,7.68,305.84,7.68z"/>
<path d="M307.44,402.88h-112c-6.8,0-12-5.2-12-12v-20c0-6.8,5.2-12,12-12h112c6.8,0,12,5.2,12,12v20
	C319.44,397.68,314.24,402.88,307.44,402.88z M195.44,366.88c-2.4,0-4,1.6-4,4v20c0,2.4,1.6,4,4,4h112c2.4,0,4-1.6,4-4v-20
	c0-2.4-1.6-4-4-4H195.44z"/>
<g>
</g>
<g>
</g>
<g>
</g>
<g>
</g>
<g>
</g>
<g>
</g>
<g>
</g>
<g>
</g>
<g>
</g>
<g>
</g>
<g>
</g>
<g>
</g>
<g>
</g>
<g>
</g>
<g>
</g>
</svg>
