<?xml version="1.0" encoding="iso-8859-1"?>
<!-- Generator: Adobe Illustrator 19.0.0, SVG Export Plug-In . SVG Version: 6.00 Build 0)  -->
<svg version="1.1" id="Layer_1" xmlns="http://www.w3.org/2000/svg" xmlns:xlink="http://www.w3.org/1999/xlink" x="0px" y="0px"
	 viewBox="0 0 459.406 459.406" style="enable-background:new 0 0 459.406 459.406;" xml:space="preserve">
<g>
	<g>
		<g>
			<path d="M287.809,135.168c0,0,0,0.002,0,0.003c0.774,0,81.008,0.24,81.783,0.24c3.981,0,7.208-3.227,7.208-7.209
				c0-3.981-3.227-7.209-7.208-7.209h-20.996c-4.471-10.23-13.548-18.181-24.497-20.436c0.044-0.214,0.075-0.431,0.075-0.654
				c0-2.488-2.865-4.505-6.4-4.505c-3.535,0-6.4,2.017-6.4,4.505c0,0.221,0.03,0.435,0.073,0.647
				c-14.707,3.028-26.047,16.339-27.368,31.634c-0.066,0.767,0.193,1.527,0.714,2.094
				C285.687,135.253,286.643,135.168,287.809,135.168z"/>
			<path d="M317.774,171.068c13.696,0,25.279-9.041,29.112-21.479h-58.223C292.494,162.027,304.077,171.068,317.774,171.068z"/>
			<path d="M282.032,330.977l-6.148,4.767l-51.909-33.731c-7.337-4.768-17.147-2.685-21.915,4.651
				c-4.767,7.336-2.684,17.147,4.651,21.915l61.35,39.866c2.633,1.711,5.635,2.559,8.63,2.559c3.435,0,6.862-1.116,9.708-3.322
				l20.528-15.917l-24.77-20.677C282.115,331.051,282.075,331.013,282.032,330.977z"/>
			<path d="M450.723,222.338l-92.476-37.68c-1.582-0.645-3.273-0.976-4.981-0.976c-10.01,0-38.944,0-48.767,0
				c-8.115-9.876-56.041-68.202-62.227-75.732c-4.629-5.634-12.949-6.447-18.581-1.818c-3.61,2.965-5.229,7.446-4.717,11.764
				c-13.754,8.59-22.157,13.773-40.226,14.324c-29.086,0.885-53.707-10.339-73.141-33.366c-3.741-4.433-6.929-8.907-9.609-13.125
				L71.77,4.398C70.992,1.789,68.594,0,65.871,0H6.614C3.215,0,0.46,2.756,0.46,6.155v59.257c0,2.722,1.788,5.121,4.398,5.898
				L84.05,94.9c2.769,4.262,5.997,8.734,9.732,13.2c22.264,26.615,51.805,40.146,85.422,39.114
				c22.035-0.671,33.388-7.646,47.586-16.515l11.251,13.692c-5.46,26.74-30.414,72.167-75.322,82.877
				c-4.029,0.96-6.517,5.006-5.556,9.035c0.821,3.444,3.897,5.762,7.289,5.762c0.576,0,1.161-0.067,1.746-0.207
				c23.027-5.491,43.945-19.466,60.494-40.412c10.131-12.825,18.297-28.127,23.055-42.809l37.952,46.188c0,9.99,0,85.787,0,96.376
				c-0.056,6.851-0.563,13.2,4.711,17.602l54.39,45.402l10.223,81.333c1.093,8.697,9.032,14.834,17.693,13.742
				c8.681-1.091,14.833-9.013,13.742-17.693l-11-87.522c-0.5-3.977-2.489-7.617-5.566-10.186l-47.899-39.984h0.081l33.55,15
				c0-22.17,0-84.113,0-105.982l83.135,33.874c6.775,2.758,14.463-0.511,17.207-7.244
				C460.718,232.793,457.475,225.089,450.723,222.338z"/>
		</g>
	</g>
</g>
<g>
</g>
<g>
</g>
<g>
</g>
<g>
</g>
<g>
</g>
<g>
</g>
<g>
</g>
<g>
</g>
<g>
</g>
<g>
</g>
<g>
</g>
<g>
</g>
<g>
</g>
<g>
</g>
<g>
</g>
</svg>
