<?xml version="1.0" encoding="iso-8859-1"?>
<!-- Generator: Adobe Illustrator 19.0.0, SVG Export Plug-In . SVG Version: 6.00 Build 0)  -->
<svg version="1.1" id="Layer_1" xmlns="http://www.w3.org/2000/svg" xmlns:xlink="http://www.w3.org/1999/xlink" x="0px" y="0px"
	 viewBox="0 0 512 512" style="enable-background:new 0 0 512 512;" xml:space="preserve">
<g>
	<g>
		<path d="M349.365,283.674V78.306h36.141V0H126.494v78.306h36.141v205.369l-48.86,83.761h115.119v123.482
			c0,11.624,9.458,21.082,21.082,21.082h12.047c11.624,0,21.082-9.458,21.082-21.082V367.435h115.119L349.365,283.674z
			 M144.565,60.235V18.071h222.871v42.165H144.565z M265.035,490.918c0,1.632-1.379,3.012-3.012,3.012h-12.047
			c-1.632,0-3.012-1.379-3.012-3.012V367.435h18.071V490.918z M145.237,349.365l35.469-60.804v-47.62h117.459v-18.071H180.706
			V78.306h150.588v198.776h-93.365v18.071h97.21l31.623,54.212H145.237z"/>
	</g>
</g>
<g>
	<g>
		<rect x="195.765" y="102.4" width="24.094" height="18.071"/>
	</g>
</g>
<g>
	<g>
		<rect x="243.953" y="102.4" width="24.094" height="18.071"/>
	</g>
</g>
<g>
	<g>
		<rect x="292.141" y="102.4" width="24.094" height="18.071"/>
	</g>
</g>
<g>
</g>
<g>
</g>
<g>
</g>
<g>
</g>
<g>
</g>
<g>
</g>
<g>
</g>
<g>
</g>
<g>
</g>
<g>
</g>
<g>
</g>
<g>
</g>
<g>
</g>
<g>
</g>
<g>
</g>
</svg>
