<?xml version="1.0" encoding="iso-8859-1"?>
<!-- Generator: Adobe Illustrator 16.0.0, SVG Export Plug-In . SVG Version: 6.00 Build 0)  -->
<!DOCTYPE svg PUBLIC "-//W3C//DTD SVG 1.1//EN" "http://www.w3.org/Graphics/SVG/1.1/DTD/svg11.dtd">
<svg version="1.1" id="Capa_1" xmlns="http://www.w3.org/2000/svg" xmlns:xlink="http://www.w3.org/1999/xlink" x="0px" y="0px"
	 width="31.843px" height="31.843px" viewBox="0 0 31.843 31.843" style="enable-background:new 0 0 31.843 31.843;"
	 xml:space="preserve">
<g>
	<g>
		<path d="M21.518,22.033c-0.186-1.031-1.135-2.014-2.16-2.23l-0.65-0.139v-6.918c0-6.425-3.397-8.865-7.587-8.865
			c-4.19,0-7.588,2.44-7.588,8.865v6.918l-0.65,0.139c-1.027,0.219-1.976,1.199-2.159,2.23l-0.691,3.887
			c-0.096,0.537,0.031,1.047,0.358,1.439c0.328,0.389,0.809,0.604,1.355,0.604h18.751c0.546,0,1.027-0.215,1.354-0.604
			c0.325-0.394,0.452-0.902,0.357-1.439L21.518,22.033z M5.895,13.171c0.097-0.026,0.195-0.004,0.295,0.05v-0.873h5.882l0.494-2.953
			v3.072h3.481v0.755c0.099-0.055,0.198-0.077,0.295-0.05c0.322,0.097,0.463,0.688,0.314,1.32c-0.146,0.615-0.875,1.04-1.19,0.975
			c-0.334,1.079-1.11,2.245-2.002,3.095c-0.121,0.114-0.244,0.225-0.368,0.325c-0.139,0.113-0.278,0.222-0.418,0.316l3.033,0.639
			l-1.619,1.89l-2.002,2.34l-0.51-2.34l-0.071-0.318l0.731-0.729l-0.918-0.916l-0.204-0.205l-0.205,0.205l-0.917,0.916l0.731,0.729
			l-0.071,0.319l-0.49,2.25l-1.982-2.25l-1.665-1.891l3.013-0.635c-0.141-0.096-0.281-0.201-0.42-0.314
			c-0.124-0.102-0.245-0.211-0.366-0.326c-0.879-0.84-1.635-1.998-1.968-3.101C6.46,15.54,5.725,15.113,5.58,14.494
			C5.43,13.859,5.57,13.27,5.895,13.171z M21.243,26.851c-0.175,0.209-0.441,0.324-0.75,0.324h-3.65v-1.994
			c0-0.217-0.177-0.395-0.395-0.395c-0.219,0-0.396,0.178-0.396,0.395v1.994H6.178v-1.994c0-0.217-0.177-0.395-0.396-0.395
			c-0.218,0-0.395,0.178-0.395,0.395v1.994h-3.65c-0.309,0-0.574-0.115-0.75-0.324c-0.173-0.207-0.24-0.488-0.187-0.793l0.692-3.889
			c0.127-0.713,0.834-1.443,1.544-1.596l0.488-0.103l2.103-0.442l1.5,1.703l3.758,4.266c0.074,0.086,0.182,0.133,0.295,0.133
			c0.001,0,0.001,0,0.002,0c0.115,0,0.223-0.049,0.297-0.135l3.646-4.264l1.46-1.707l2.115,0.446l0.487,0.103
			c0.71,0.152,1.418,0.883,1.545,1.598l0.69,3.887C21.483,26.361,21.417,26.644,21.243,26.851z M31.843,9.513v5.098
			c0,1.748-1.417,3.164-3.164,3.164h-1.582l-3.341,3.342v-3.342h-0.175c-1.747,0-3.164-1.416-3.164-3.164V9.513
			c0-1.748,1.417-3.164,3.164-3.164h5.098C30.426,6.349,31.843,7.766,31.843,9.513z"/>
	</g>
</g>
<g>
</g>
<g>
</g>
<g>
</g>
<g>
</g>
<g>
</g>
<g>
</g>
<g>
</g>
<g>
</g>
<g>
</g>
<g>
</g>
<g>
</g>
<g>
</g>
<g>
</g>
<g>
</g>
<g>
</g>
</svg>
