<?xml version="1.0" encoding="iso-8859-1"?>
<!-- Generator: Adobe Illustrator 19.0.0, SVG Export Plug-In . SVG Version: 6.00 Build 0)  -->
<svg version="1.1" id="Layer_1" xmlns="http://www.w3.org/2000/svg" xmlns:xlink="http://www.w3.org/1999/xlink" x="0px" y="0px"
	 viewBox="0 0 512 512" style="enable-background:new 0 0 512 512;" xml:space="preserve">
<g>
	<g>
		<g>
			<path d="M277.333,256c0-11.755-9.557-21.333-21.333-21.333s-21.333,9.579-21.333,21.333c0,11.755,9.557,21.333,21.333,21.333
				S277.333,267.755,277.333,256z"/>
			<path d="M256,0C114.837,0,0,114.837,0,256s114.837,256,256,256s256-114.837,256-256S397.163,0,256,0z M128,256
				c0,11.776-9.536,21.333-21.333,21.333c-11.797,0-21.333-9.557-21.333-21.333c0-94.101,76.565-170.667,170.667-170.667
				c11.797,0,21.333,9.557,21.333,21.333S267.797,128,256,128C185.408,128,128,185.408,128,256z M192,256c0-35.285,28.715-64,64-64
				s64,28.715,64,64s-28.715,64-64,64S192,291.285,192,256z M256,426.667c-11.797,0-21.333-9.557-21.333-21.333S244.203,384,256,384
				c70.592,0,128-57.408,128-128c0-11.776,9.536-21.333,21.333-21.333s21.333,9.557,21.333,21.333
				C426.667,350.101,350.101,426.667,256,426.667z"/>
		</g>
	</g>
</g>
<g>
</g>
<g>
</g>
<g>
</g>
<g>
</g>
<g>
</g>
<g>
</g>
<g>
</g>
<g>
</g>
<g>
</g>
<g>
</g>
<g>
</g>
<g>
</g>
<g>
</g>
<g>
</g>
<g>
</g>
</svg>
