<?xml version="1.0" encoding="iso-8859-1"?>
<!-- Generator: Adobe Illustrator 19.0.0, SVG Export Plug-In . SVG Version: 6.00 Build 0)  -->
<svg version="1.1" id="Layer_1" xmlns="http://www.w3.org/2000/svg" xmlns:xlink="http://www.w3.org/1999/xlink" x="0px" y="0px"
	 viewBox="0 0 511.973 511.973" style="enable-background:new 0 0 511.973 511.973;" xml:space="preserve">
<g>
	<g>
		<g>
			<path d="M412.507,186.747l-87.381-87.381l-74.837,74.837c-3.008,2.987-7.616,3.947-12.117,2.325
				c-37.739-13.397-73.984-7.744-96.896,15.147c-11.136,11.115-18.283,25.515-21.013,41.877
				c-34.389-1.408-65.088,9.92-87.701,32.512C-16.762,315.387-9.061,403.365,49.734,462.16
				c27.904,27.904,63.189,45.333,99.392,49.067c4.907,0.512,9.749,0.747,14.528,0.747c32.064,0,60.821-11.349,82.155-32.661
				c22.613-22.613,33.92-53.675,32.533-87.701c16.32-2.752,30.72-9.899,41.856-20.992c22.912-22.933,28.565-59.157,15.147-96.896
				c-1.6-4.459-0.683-9.109,2.347-12.139L412.507,186.747z M106.566,383.973c-5.461,0-10.923-2.091-15.083-6.251
				c-8.341-8.341-8.341-21.824,0-30.165l42.667-42.667c8.341-8.341,21.824-8.341,30.165,0c8.341,8.341,8.341,21.824,0,30.165
				l-42.667,42.667C117.489,381.883,112.027,383.973,106.566,383.973z M206.982,377.723l-42.667,42.667
				c-4.16,4.16-9.621,6.251-15.083,6.251c-5.461,0-10.923-2.091-15.083-6.251c-8.341-8.341-8.341-21.824,0-30.165l42.667-42.667
				c8.341-8.341,21.824-8.341,30.165,0C215.323,355.899,215.323,369.381,206.982,377.723z"/>
			<path d="M500.898,45.285L466.572,10.96c-14.592-14.613-38.421-14.613-53.056,0L355.298,69.2l87.381,87.381l58.197-58.219
				c7.104-7.083,11.029-16.512,11.029-26.539S508.002,52.368,500.898,45.285z"/>
		</g>
	</g>
</g>
<g>
</g>
<g>
</g>
<g>
</g>
<g>
</g>
<g>
</g>
<g>
</g>
<g>
</g>
<g>
</g>
<g>
</g>
<g>
</g>
<g>
</g>
<g>
</g>
<g>
</g>
<g>
</g>
<g>
</g>
</svg>
