<?xml version="1.0" encoding="iso-8859-1"?>
<!-- Generator: Adobe Illustrator 19.0.0, SVG Export Plug-In . SVG Version: 6.00 Build 0)  -->
<svg version="1.1" id="Layer_1" xmlns="http://www.w3.org/2000/svg" xmlns:xlink="http://www.w3.org/1999/xlink" x="0px" y="0px"
	 viewBox="0 0 503.467 503.467" style="enable-background:new 0 0 503.467 503.467;" xml:space="preserve">
<g transform="translate(9 1)">
	<path style="fill:#AAB1BA;" d="M183,498.2h85.333v-85.333H183V498.2z M183,88.6h85.333V3.267H183V88.6z M328.067,403.48
		L328.067,403.48L311,498.2h-42.667v-85.333h25.6C307.587,412.867,316.12,412.867,328.067,403.48z M183,412.867V498.2h-42.667
		l-17.067-93.867v-0.853c11.947,9.387,19.627,9.387,34.133,9.387H183z M183,3.267V88.6h-25.6c-13.653,0-22.187,0-34.133,9.387
		v-0.853l17.067-93.867H183z M311,3.267l17.067,93.867v0.853C316.12,88.6,308.44,88.6,293.933,88.6h-25.6V3.267H311z"/>
	<path style="fill:#ECF4F7;" d="M387.8,182.467V319c0,17.067,0,25.6-17.067,42.667L336.6,395.8c-3.413,3.413-5.973,5.973-8.533,7.68
		c-11.947,9.387-19.627,9.387-34.133,9.387h-25.6H183h-25.6c-13.653,0-22.187,0-34.133-9.387c-2.56-2.56-5.973-5.12-8.533-7.68
		L80.6,361.667C63.533,344.6,63.533,336.067,63.533,319V182.467c0-17.067,0-25.6,17.067-42.667l34.133-34.133
		c3.413-3.413,5.973-5.973,8.533-7.68C135.213,88.6,142.893,88.6,157.4,88.6H183h85.333h25.6c13.653,0,22.187,0,34.133,9.387
		c2.56,2.56,5.973,5.12,8.533,7.68l34.133,34.133C387.8,156.867,387.8,165.4,387.8,182.467"/>
	<path style="fill:#7EE1E6;" d="M353.667,191v119.467c0,18.773-15.36,34.133-34.133,34.133H131.8
		c-18.773,0-34.133-15.36-34.133-34.133V191c0-18.773,15.36-34.133,34.133-34.133h187.733
		C338.307,156.867,353.667,172.227,353.667,191"/>
</g>
<path style="fill:#51565F;" d="M320,503.467H149.333c-1.707,0-4.267-1.707-4.267-3.413l-8.533-51.2c0-2.56,0.853-4.267,3.413-5.12
	c2.56,0,4.267,0.853,5.12,3.413l7.68,47.787h34.987V448c0-2.56,1.707-4.267,4.267-4.267s4.267,1.707,4.267,4.267v46.933h76.8V448
	c0-2.56,1.707-4.267,4.267-4.267S281.6,445.44,281.6,448v46.933h34.987l7.68-47.787c0-2.56,2.56-4.267,5.12-3.413
	c2.56,0,4.267,2.56,3.413,5.12l-8.533,51.2C324.267,501.76,321.707,503.467,320,503.467z M302.933,418.133H166.4
	c-17.92,0-27.307,0-46.08-17.92L86.187,366.08c-17.92-17.92-17.92-28.16-17.92-46.08V183.467c0-17.92,0-27.307,17.92-46.08
	l34.133-34.133c17.92-17.92,28.16-17.92,46.08-17.92h136.533c17.92,0,27.307,0,46.08,17.92l34.133,34.133
	c17.92,17.92,17.92,28.16,17.92,46.08V320c0,17.92,0,27.307-17.92,46.08l-34.133,34.133
	C330.24,418.133,320.853,418.133,302.933,418.133z M166.4,93.867c-17.067,0-23.893,0-39.253,16.213l-34.133,34.133
	C76.8,160.427,76.8,167.253,76.8,183.467V320c0,17.067,0,23.893,16.213,39.253l34.133,34.133
	C143.36,409.6,150.187,409.6,166.4,409.6h136.533c17.067,0,23.893,0,39.253-16.213l34.133-34.133
	c16.213-16.213,16.213-23.04,16.213-39.253V183.467c0-17.067,0-23.893-16.213-39.253l-34.133-34.133
	c-16.213-16.213-23.04-16.213-39.253-16.213H166.4z M260.267,384h-51.2c-2.56,0-4.267-1.707-4.267-4.267
	c0-2.56,1.707-4.267,4.267-4.267h51.2c2.56,0,4.267,1.707,4.267,4.267C264.533,382.293,262.827,384,260.267,384z M328.533,349.867
	H140.8c-21.333,0-38.4-17.067-38.4-38.4V192c0-21.333,17.067-38.4,38.4-38.4h187.733c21.333,0,38.4,17.067,38.4,38.4v119.467
	C366.933,332.8,349.867,349.867,328.533,349.867z M140.8,162.133c-16.213,0-29.867,13.653-29.867,29.867v119.467
	c0,16.213,13.653,29.867,29.867,29.867h187.733c16.213,0,29.867-13.653,29.867-29.867V192c0-16.213-13.653-29.867-29.867-29.867
	H140.8z M430.933,298.667c-2.56,0-4.267-1.707-4.267-4.267v-17.067c0-2.56,1.707-4.267,4.267-4.267s4.267,1.707,4.267,4.267V294.4
	C435.2,296.96,433.493,298.667,430.933,298.667z M311.467,281.6c-2.56,0-4.267-1.707-4.267-4.267v-51.2
	c0-2.56,1.707-4.267,4.267-4.267s4.267,1.707,4.267,4.267v51.2C315.733,279.893,314.027,281.6,311.467,281.6z M277.333,281.6
	c-2.56,0-4.267-1.707-4.267-4.267v-51.2c0-2.56,1.707-4.267,4.267-4.267s4.267,1.707,4.267,4.267v51.2
	C281.6,279.893,279.893,281.6,277.333,281.6z M192,281.6c-2.56,0-4.267-1.707-4.267-4.267v-51.2c0-2.56,1.707-4.267,4.267-4.267
	s4.267,1.707,4.267,4.267v51.2C196.267,279.893,194.56,281.6,192,281.6z M157.867,281.6c-2.56,0-4.267-1.707-4.267-4.267v-51.2
	c0-2.56,1.707-4.267,4.267-4.267c2.56,0,4.267,1.707,4.267,4.267v51.2C162.133,279.893,160.427,281.6,157.867,281.6z
	 M430.933,247.467c-2.56,0-4.267-1.707-4.267-4.267v-34.133c0-2.56,1.707-4.267,4.267-4.267s4.267,1.707,4.267,4.267V243.2
	C435.2,245.76,433.493,247.467,430.933,247.467z M328.533,59.733c-1.707,0-4.267-1.707-4.267-3.413l-7.68-47.787H281.6v46.933
	c0,2.56-1.707,4.267-4.267,4.267s-4.267-1.707-4.267-4.267V8.533h-76.8v46.933c0,2.56-1.707,4.267-4.267,4.267
	s-4.267-1.707-4.267-4.267V8.533h-34.987l-7.68,47.787c0,2.56-2.56,4.267-5.12,3.413c-2.56-0.853-4.267-2.56-3.413-5.12l8.533-51.2
	c0-1.707,1.707-3.413,4.267-3.413H320c1.707,0,4.267,1.707,4.267,3.413l8.533,51.2C332.8,57.173,331.947,58.88,328.533,59.733
	C329.387,59.733,328.533,59.733,328.533,59.733z"/>
<g>
</g>
<g>
</g>
<g>
</g>
<g>
</g>
<g>
</g>
<g>
</g>
<g>
</g>
<g>
</g>
<g>
</g>
<g>
</g>
<g>
</g>
<g>
</g>
<g>
</g>
<g>
</g>
<g>
</g>
</svg>
