<?xml version="1.0" encoding="iso-8859-1"?>
<!-- Generator: Adobe Illustrator 19.0.0, SVG Export Plug-In . SVG Version: 6.00 Build 0)  -->
<svg version="1.1" id="Layer_1" xmlns="http://www.w3.org/2000/svg" xmlns:xlink="http://www.w3.org/1999/xlink" x="0px" y="0px"
	 viewBox="0 0 503.467 503.467" style="enable-background:new 0 0 503.467 503.467;" xml:space="preserve">
<g transform="translate(7 1)">
	<path style="fill:#80D6FA;" d="M338.553,429.933v34.133c0,17.067-17.067,34.133-34.133,34.133H82.553
		c-17.067,0-34.133-17.067-34.133-34.133v-34.133H338.553z M338.553,45.933v25.6H48.42v-25.6c0-17.067,17.067-29.867,34.133-34.133
		c0,0,34.133-8.533,110.933-8.533S304.42,11.8,304.42,11.8c8.533,1.707,17.067,5.973,23.893,11.947
		C334.287,29.72,338.553,37.4,338.553,45.933z"/>
	<polygon style="fill:#AAB1BA;" points="48.42,429.933 338.553,429.933 338.553,71.533 48.42,71.533 	"/>
	<path style="fill:#80D6FA;" d="M440.953,485.4c0.853,5.12-2.56,9.387-7.68,9.387l-17.067,2.56c-4.267,0.853-8.533-2.56-9.387-7.68
		L371.833,201.24l11.947-44.373l22.187,40.107L440.953,485.4z"/>
</g>
<path style="fill:#51565F;" d="M311.42,503.467H89.553c-19.627,0-38.4-18.773-38.4-38.4v-34.133c0-2.56,1.707-4.267,4.267-4.267h256
	c2.56,0,4.267,1.707,4.267,4.267c0,2.56-1.707,4.267-4.267,4.267H59.687v29.867c0,14.507,15.36,29.867,29.867,29.867H311.42
	c14.507,0,29.867-15.36,29.867-29.867v-358.4c0-2.56,1.707-4.267,4.267-4.267s4.267,1.707,4.267,4.267v358.4
	C349.82,484.693,331.047,503.467,311.42,503.467z M422.353,502.613c-2.56,0-5.973-0.853-7.68-2.56
	c-2.56-1.707-4.267-5.12-5.12-8.533l-34.987-287.573c0-0.853,0-0.853,0-1.707l11.947-43.52l-1.707-16.213c0,0,0,0,0-0.853
	c0-1.707,1.707-4.267,3.413-4.267c2.56,0,4.267,1.707,5.12,3.413l1.707,16.213l21.333,39.253c0,0.853,0,0.853,0.853,1.707
	l34.987,287.573c0.853,6.827-4.267,13.653-11.093,14.507l-17.067,1.707C423.207,502.613,423.207,502.613,422.353,502.613z
	 M383.1,203.093l34.987,287.573c0,0.853,0.853,2.56,1.707,2.56c0.853,0.853,1.707,0.853,3.413,0.853l17.067-1.707
	c0.853,0,2.56-0.853,2.56-1.707c0-0.853,0.853-1.707,0.853-3.413L408.7,200.533l-16.213-29.867L383.1,203.093z M302.887,469.333
	h-8.533c-2.56,0-4.267-1.707-4.267-4.267c0-2.56,1.707-4.267,4.267-4.267h8.533c2.56,0,4.267,1.707,4.267,4.267
	C307.153,467.627,305.447,469.333,302.887,469.333z M243.153,469.333H157.82c-2.56,0-4.267-1.707-4.267-4.267
	c0-2.56,1.707-4.267,4.267-4.267h85.333c2.56,0,4.267,1.707,4.267,4.267C247.42,467.627,245.714,469.333,243.153,469.333z
	 M106.62,469.333h-8.533c-2.56,0-4.267-1.707-4.267-4.267c0-2.56,1.707-4.267,4.267-4.267h8.533c2.56,0,4.267,1.707,4.267,4.267
	C110.887,467.627,109.18,469.333,106.62,469.333z M55.42,401.067c-2.56,0-4.267-1.707-4.267-4.267V46.933
	c0-19.627,19.627-33.28,37.547-38.4C90.407,8.533,124.54,0,200.487,0c76.8,0,110.933,8.533,111.787,8.533
	c17.92,3.413,37.547,18.773,37.547,38.4v25.6c0,2.56-1.707,4.267-4.267,4.267h-256c-2.56,0-4.267-1.707-4.267-4.267
	c0-2.56,1.707-4.267,4.267-4.267h251.733V46.933c0-15.36-16.213-26.453-30.72-29.867c-0.853,0-34.987-8.533-110.08-8.533
	S91.26,17.067,90.407,17.067C75.9,20.48,59.687,31.573,59.687,46.933V396.8C59.687,399.36,57.98,401.067,55.42,401.067z
	 M294.353,196.267c-0.853,0-2.56,0-3.413-0.853l-68.267-68.267c-0.853-0.853-0.853-1.707-0.853-3.413c0-1.707,0-2.56,0.853-3.413
	c1.707-1.707,4.267-1.707,5.973,0l68.267,68.267c0.853,0.853,0.853,1.707,0.853,3.413s0,2.56-0.853,3.413
	C296.06,196.267,295.207,196.267,294.353,196.267z M294.353,145.067c-0.853,0-2.56,0-3.413-0.853l-17.067-17.067
	c-0.853-0.853-0.853-1.707-0.853-3.413c0-1.707,0-2.56,0.853-3.413c1.707-1.707,4.267-1.707,5.973,0l17.067,17.067
	c0.853,0.853,0.853,1.707,0.853,3.413s0,2.56-0.853,3.413C296.06,145.067,295.207,145.067,294.353,145.067z M226.087,42.667h-51.2
	c-2.56,0-4.267-1.707-4.267-4.267s1.707-4.267,4.267-4.267h51.2c2.56,0,4.267,1.707,4.267,4.267S228.647,42.667,226.087,42.667z"/>
<g>
</g>
<g>
</g>
<g>
</g>
<g>
</g>
<g>
</g>
<g>
</g>
<g>
</g>
<g>
</g>
<g>
</g>
<g>
</g>
<g>
</g>
<g>
</g>
<g>
</g>
<g>
</g>
<g>
</g>
</svg>
