<?xml version="1.0" encoding="iso-8859-1"?>
<!-- Generator: Adobe Illustrator 19.0.0, SVG Export Plug-In . SVG Version: 6.00 Build 0)  -->
<svg version="1.1" id="Layer_1" xmlns="http://www.w3.org/2000/svg" xmlns:xlink="http://www.w3.org/1999/xlink" x="0px" y="0px"
	 viewBox="0 0 511.998 511.998" style="enable-background:new 0 0 511.998 511.998;" xml:space="preserve">
<g>
	<g>
		<path d="M463.118,138.381c-1.648-1.545-3.862-2.339-6.114-2.193l-59.279,3.825c-15.441-31.314-40.725-56.597-72.037-72.038
			l3.825-59.278c0.146-2.254-0.648-4.468-2.193-6.115C325.775,0.935,323.617,0,321.359,0H190.636c-2.258,0-4.416,0.935-5.96,2.582
			c-1.545,1.647-2.339,3.861-2.193,6.115l3.825,59.278c-31.314,15.441-56.598,40.725-72.037,72.037l-59.278-3.825
			c-2.251-0.146-4.466,0.648-6.115,2.193c-1.647,1.544-2.582,3.702-2.582,5.96v130.723c0,2.258,0.935,4.416,2.582,5.96
			c1.648,1.545,3.857,2.335,6.115,2.193l59.278-3.825c15.442,31.315,40.728,56.601,72.044,72.041l-9.803,151.87
			c-0.145,2.253,0.648,4.466,2.193,6.115c1.544,1.647,3.702,2.582,5.96,2.582h142.668c4.534,0,8.192-3.658,8.192-8.17
			c0-0.385-0.025-0.763-0.077-1.133l-9.758-151.267c31.314-15.441,56.598-40.725,72.039-72.037l59.279,3.825
			c2.253,0.151,4.467-0.649,6.114-2.193c1.646-1.544,2.582-3.702,2.582-5.96V144.339
			C465.699,142.082,464.765,139.924,463.118,138.381z M324.538,85.808c23.283,12.909,42.444,32.07,55.355,55.355l-31.198,2.013
			c-7.269-10.128-16.043-18.901-26.17-26.17L324.538,85.808z M335.916,153.415c-0.885,3.064-2.515,5.843-4.816,8.143
			c-3.6,3.6-8.387,5.583-13.48,5.583c-5.092,0-9.879-1.983-13.48-5.583c-7.433-7.433-7.433-19.528-0.001-26.961
			c2.301-2.3,5.08-3.93,8.144-4.815C321.496,136.275,329.425,144.202,335.916,153.415z M187.457,85.807l2.013,31.198
			c-10.128,7.268-18.9,16.042-26.17,26.17l-31.198-2.013C145.012,117.878,164.173,98.717,187.457,85.807z M199.71,129.782
			c3.064,0.885,5.843,2.515,8.144,4.815c7.433,7.433,7.433,19.528,0,26.961c-3.601,3.6-8.388,5.583-13.481,5.583
			s-9.879-1.983-13.481-5.584c-2.3-2.3-3.93-5.078-4.816-8.143C182.57,144.203,190.498,136.275,199.71,129.782z M187.464,333.6
			c-23.287-12.909-42.45-32.071-55.362-55.357l31.199-2.013c7.267,10.125,16.043,18.898,26.177,26.17L187.464,333.6z
			 M176.078,265.988c0.885-3.065,2.515-5.843,4.816-8.143c3.6-3.6,8.388-5.583,13.481-5.583c5.093,0,9.879,1.983,13.481,5.583
			c7.433,7.433,7.433,19.528,0,26.961c-2.3,2.297-5.078,3.927-8.143,4.813C190.496,283.123,182.568,275.197,176.078,265.988z
			 M324.536,333.597l-2.013-31.197c10.128-7.269,18.902-16.043,26.171-26.171l31.197,2.013
			C366.981,301.527,347.821,320.687,324.536,333.597z M312.288,289.619c-3.07-0.886-5.85-2.515-8.146-4.813
			c-7.433-7.433-7.433-19.528-0.001-26.961c3.601-3.6,8.389-5.583,13.481-5.583c5.093,0,9.879,1.983,13.48,5.583
			c2.3,2.3,3.93,5.078,4.816,8.143C329.426,275.2,321.5,283.126,312.288,289.619z M449.359,266.349l-98.179-6.334
			c-1.72-5.141-4.606-9.804-8.524-13.725c-6.688-6.688-15.578-10.37-25.035-10.37c-9.457,0-18.347,3.682-25.035,10.37
			c-13.803,13.804-13.803,36.265,0,50.069c3.917,3.916,8.58,6.801,13.724,8.521l12.305,190.779H193.378l12.314-190.779
			c5.138-1.72,9.8-4.604,13.716-8.52c13.803-13.804,13.803-36.265,0-50.069c-6.688-6.688-15.578-10.37-25.035-10.37
			c-9.457,0-18.348,3.682-25.035,10.37c-3.92,3.919-6.805,8.583-8.525,13.725l-98.178,6.332V153.055l98.179,6.333
			c1.72,5.142,4.606,9.804,8.525,13.724c6.686,6.688,15.578,10.37,25.035,10.37c9.457,0,18.347-3.682,25.035-10.37
			c13.803-13.804,13.803-36.265-0.001-50.069c-3.921-3.919-8.583-6.805-13.724-8.524L199.35,16.34h113.294l-6.333,98.179
			c-5.14,1.719-9.804,4.605-13.725,8.524c-13.803,13.804-13.803,36.265,0.001,50.069c6.688,6.686,15.578,10.37,25.034,10.37
			c9.458,0,18.348-3.682,25.034-10.37c3.921-3.92,6.805-8.583,8.525-13.725l98.18-6.332V266.349z"/>
	</g>
</g>
<g>
	<g>
		<path d="M300.628,470.623l-9.75-151.134c-0.278-4.299-3.844-7.644-8.152-7.644c-0.002,0-53.448-0.004-53.449-0.004
			c-4.308,0-7.875,3.344-8.153,7.644l-3.826,59.262c-0.291,4.502,3.124,8.389,7.627,8.679c4.487,0.294,8.388-3.124,8.679-7.627
			l3.332-51.617l38.127,0.003l8.696,134.793h-55.524l3.265-50.567c0.291-4.502-3.124-8.389-7.627-8.679
			c-4.494-0.301-8.389,3.124-8.679,7.627l-3.826,59.263c-0.146,2.253,0.648,4.466,2.193,6.113c1.544,1.648,3.702,2.583,5.96,2.583
			h72.952c2.258,0,4.416-0.935,5.961-2.582S300.773,472.877,300.628,470.623z"/>
	</g>
</g>
<g>
	<g>
		<path d="M430.436,173.238c-1.648-1.545-3.856-2.338-6.114-2.193l-58.502,3.774c-4.3,0.277-7.645,3.845-7.645,8.153v53.46
			c0.001,4.308,3.345,7.877,7.645,8.154l58.502,3.774c0.175,0.011,0.351,0.017,0.525,0.017c2.069,0,4.069-0.785,5.588-2.21
			c1.647-1.544,2.582-3.702,2.582-5.96v-61.009C433.017,176.94,432.083,174.782,430.436,173.238z M416.678,231.492l-42.162-2.72
			v-38.14l42.162-2.72V231.492z"/>
	</g>
</g>
<g>
	<g>
		<path d="M292.463,35.264c-1.545-1.648-3.702-2.583-5.961-2.583h-61.009c-2.258,0-4.416,0.935-5.96,2.582
			c-1.545,1.647-2.338,3.861-2.193,6.115l3.774,58.503c0.277,4.299,3.845,7.644,8.153,7.644h53.458c4.307,0,7.876-3.345,8.154-7.644
			l3.777-58.502C294.801,39.124,294.007,36.911,292.463,35.264z M275.065,91.184h-38.139l-2.719-42.163h43.579L275.065,91.184z"/>
	</g>
</g>
<g>
	<g>
		<path d="M146.175,174.819l-12.945-0.836c-4.513-0.294-8.389,3.124-8.679,7.627c-0.291,4.503,3.124,8.389,7.627,8.679l5.301,0.342
			v38.141l-42.163,2.72v-43.58l4.249,0.273c4.502,0.294,8.388-3.124,8.679-7.627c0.291-4.503-3.124-8.389-7.627-8.679l-12.945-0.836
			c-2.248-0.145-4.466,0.648-6.115,2.193c-1.647,1.544-2.582,3.702-2.582,5.96v61.009c0,2.258,0.935,4.416,2.582,5.96
			c1.52,1.425,3.519,2.21,5.587,2.21c0.175,0,0.351-0.005,0.526-0.017l58.503-3.773c4.299-0.277,7.644-3.845,7.644-8.153v-53.46
			C153.819,178.664,150.474,175.095,146.175,174.819z"/>
	</g>
</g>
<g>
	<g>
		<path d="M281.074,184.71c-6.674-6.698-15.562-10.396-25.078-10.412c-19.488,0-35.369,15.856-35.403,35.344
			c-0.033,19.521,15.823,35.43,35.344,35.464h0.06c19.489,0,35.37-15.856,35.404-35.344
			C291.418,200.305,287.749,191.408,281.074,184.71z M255.997,228.766v8.17l-0.033-8.17c-10.511-0.017-19.05-8.584-19.032-19.095
			c0.017-10.494,8.569-19.032,19.095-19.032c5.093,0.009,9.876,1.999,13.471,5.606s5.569,8.397,5.56,13.49
			C275.043,220.229,266.492,228.766,255.997,228.766z"/>
	</g>
</g>
<g>
</g>
<g>
</g>
<g>
</g>
<g>
</g>
<g>
</g>
<g>
</g>
<g>
</g>
<g>
</g>
<g>
</g>
<g>
</g>
<g>
</g>
<g>
</g>
<g>
</g>
<g>
</g>
<g>
</g>
</svg>
