<?xml version="1.0" encoding="iso-8859-1"?>
<!-- Generator: Adobe Illustrator 19.0.0, SVG Export Plug-In . SVG Version: 6.00 Build 0)  -->
<svg version="1.1" id="Layer_1" xmlns="http://www.w3.org/2000/svg" xmlns:xlink="http://www.w3.org/1999/xlink" x="0px" y="0px"
	 viewBox="0 0 290.516 290.516" style="enable-background:new 0 0 290.516 290.516;" xml:space="preserve">
<g>
	<g>
		<rect x="112.458" y="149.941" style="fill:#F9BA48;" width="65.599" height="32.8"/>
		<path style="fill:#F9BA48;" d="M176.69,37.485c6.682,7.46,10.74,17.314,10.74,28.114c0,23.292-18.879,42.171-42.171,42.171
			s-42.171-18.879-42.171-42.171c0-10.8,4.062-20.654,10.74-28.114H176.69z"/>
		<path style="fill:#333333;" d="M229.6,201.484v-56.228c0-19.605-13.467-36.08-31.624-40.784
			c8.055-10.894,12.881-24.314,12.881-38.872c0-36.174-29.426-65.6-65.599-65.6S79.659,29.426,79.659,65.599
			c0,14.558,4.826,27.978,12.881,38.872c-18.157,4.704-31.624,21.179-31.624,40.784v56.228c0,19.08,14.338,34.843,32.8,37.162v7.474
			c-16.353,5.81-28.114,21.39-28.114,39.711v4.686h159.313v-4.686c0-18.316-11.761-33.901-28.114-39.711v-7.474
			C215.262,236.326,229.6,220.564,229.6,201.484z M196.8,229.176v-18.321h21.788C215.224,220.33,206.936,227.461,196.8,229.176z
			 M145.258,9.371c31.005,0,56.228,25.223,56.228,56.228s-25.223,56.228-56.228,56.228S89.03,96.604,89.03,65.599
			S114.253,9.371,145.258,9.371z M71.927,210.855h21.788v18.321C83.581,227.461,75.292,220.33,71.927,210.855z M107.773,253.026
			c11.119,0,20.94,5.571,26.877,14.057H80.896C86.833,258.597,96.654,253.026,107.773,253.026z M75.306,281.14
			c0.23-1.607,0.609-3.163,1.064-4.686h62.807c0.455,1.523,0.834,3.078,1.064,4.686H75.306z M150.276,281.14
			c0.23-1.607,0.609-3.163,1.064-4.686h62.807c0.454,1.523,0.834,3.078,1.064,4.686H150.276z M209.62,267.083h-53.754
			c5.937-8.486,15.758-14.057,26.877-14.057S203.684,258.597,209.62,267.083z M182.743,243.655c-13.274,0-25.064,6.227-32.8,15.847
			v-48.647h-9.371v48.647c-7.736-9.62-19.525-15.847-32.8-15.847c-1.584,0-3.144,0.103-4.686,0.276v-93.99h-9.371v51.542H70.287
			v-56.228c0-16.92,12.881-30.883,29.351-32.617c11.817,11.466,27.894,18.56,45.62,18.56s33.802-7.094,45.62-18.56
			c16.47,1.734,29.351,15.697,29.351,32.617v56.228H196.8v-51.542h-9.371v93.99C185.888,243.758,184.327,243.655,182.743,243.655z"
			/>
		<rect x="131.201" y="163.998" style="fill:#333333;" width="28.114" height="9.371"/>
		<rect x="112.458" y="192.112" style="fill:#333333;" width="9.371" height="9.371"/>
		<rect x="149.944" y="46.857" style="fill:#333333;" width="9.371" height="9.371"/>
		<rect x="117.144" y="46.857" style="fill:#333333;" width="23.428" height="9.371"/>
	</g>
</g>
<g>
</g>
<g>
</g>
<g>
</g>
<g>
</g>
<g>
</g>
<g>
</g>
<g>
</g>
<g>
</g>
<g>
</g>
<g>
</g>
<g>
</g>
<g>
</g>
<g>
</g>
<g>
</g>
<g>
</g>
</svg>
