<?xml version="1.0" encoding="iso-8859-1"?>
<!-- Generator: Adobe Illustrator 19.0.0, SVG Export Plug-In . SVG Version: 6.00 Build 0)  -->
<svg version="1.1" id="Layer_1" xmlns="http://www.w3.org/2000/svg" xmlns:xlink="http://www.w3.org/1999/xlink" x="0px" y="0px"
	 viewBox="0 0 512 512" style="enable-background:new 0 0 512 512;" xml:space="preserve">
<g>
	<path style="fill:#88888F;" d="M395.13,379.686c21.045,0,40.396-7.355,55.652-19.607v14.042h33.391V207.165h-33.391v14.042
		c-15.257-12.252-34.607-19.607-55.652-19.607c-49.099,0-89.043,39.945-89.043,89.043S346.032,379.686,395.13,379.686z
		 M395.13,234.991c30.687,0,55.652,24.966,55.652,55.652c0,30.687-24.966,55.652-55.652,55.652s-55.652-24.966-55.652-55.652
		C339.478,259.955,364.444,234.991,395.13,234.991z"/>
	<rect y="413.074" style="fill:#88888F;" width="512" height="33.391"/>
	<path style="fill:#88888F;" d="M67.659,374.121l46.526-105.739h105.543l46.526,105.739h36.479L166.957,65.534L31.18,374.121H67.659
		z M166.957,148.446l38.079,86.545h-76.159L166.957,148.446z"/>
</g>
<g>
	<path style="fill:#797781;" d="M395.13,379.686c21.045,0,40.396-7.355,55.652-19.607v14.042h33.391V207.165h-33.391v14.042
		c-15.257-12.252-34.607-19.607-55.652-19.607c-49.099,0-89.043,39.945-89.043,89.043S346.032,379.686,395.13,379.686z
		 M395.13,234.991c30.687,0,55.652,24.966,55.652,55.652c0,30.687-24.966,55.652-55.652,55.652s-55.652-24.966-55.652-55.652
		C339.478,259.955,364.444,234.991,395.13,234.991z"/>
	<rect x="256" y="413.074" style="fill:#797781;" width="256" height="33.391"/>
	<polygon style="fill:#797781;" points="302.733,374.121 256,267.907 256,350.816 266.254,374.121 	"/>
</g>
<g>
</g>
<g>
</g>
<g>
</g>
<g>
</g>
<g>
</g>
<g>
</g>
<g>
</g>
<g>
</g>
<g>
</g>
<g>
</g>
<g>
</g>
<g>
</g>
<g>
</g>
<g>
</g>
<g>
</g>
</svg>
