<?xml version="1.0" encoding="iso-8859-1"?>
<!-- Generator: Adobe Illustrator 16.0.0, SVG Export Plug-In . SVG Version: 6.00 Build 0)  -->
<!DOCTYPE svg PUBLIC "-//W3C//DTD SVG 1.1//EN" "http://www.w3.org/Graphics/SVG/1.1/DTD/svg11.dtd">
<svg version="1.1" id="Capa_1" xmlns="http://www.w3.org/2000/svg" xmlns:xlink="http://www.w3.org/1999/xlink" x="0px" y="0px"
	 width="493.195px" height="493.195px" viewBox="0 0 493.195 493.195" style="enable-background:new 0 0 493.195 493.195;"
	 xml:space="preserve">
<g>
	<path d="M460.494,394.996h-50.25L321.848,8.83C320.664,3.663,316.066,0,310.77,0H183.842c-5.35,0-9.979,3.732-11.107,8.963
		L89.237,394.996H32.701c-8.033,0-14.547,6.514-14.547,14.547v69.105c0,8.035,6.514,14.547,14.547,14.547h427.793
		c8.035,0,14.547-6.512,14.547-14.547v-69.104C475.041,401.51,468.529,394.996,460.494,394.996z M352.293,243.703H145.215
		l16.514-76.345h173.087L352.293,243.703z M193.012,22.731h108.699l14.797,64.645H179.03L193.012,22.731z M127.916,323.684h242.686
		l16.324,71.314H112.491L127.916,323.684z"/>
</g>
<g>
</g>
<g>
</g>
<g>
</g>
<g>
</g>
<g>
</g>
<g>
</g>
<g>
</g>
<g>
</g>
<g>
</g>
<g>
</g>
<g>
</g>
<g>
</g>
<g>
</g>
<g>
</g>
<g>
</g>
</svg>
