<?xml version="1.0" encoding="iso-8859-1"?>
<!-- Generator: Adobe Illustrator 19.0.0, SVG Export Plug-In . SVG Version: 6.00 Build 0)  -->
<svg version="1.1" id="Layer_1" xmlns="http://www.w3.org/2000/svg" xmlns:xlink="http://www.w3.org/1999/xlink" x="0px" y="0px"
	 viewBox="0 0 512 512" style="enable-background:new 0 0 512 512;" xml:space="preserve">
<g>
	<g>
		<path d="M503.467,119.467H8.533C3.814,119.467,0,123.281,0,128v34.133c0,4.719,3.814,8.533,8.533,8.533h187.733v25.6
			c0,4.719,3.814,8.533,8.533,8.533h17.067v162.133c0,14.362,14.993,25.6,34.133,25.6s34.133-11.238,34.133-25.6V204.8H307.2
			c4.719,0,8.533-3.814,8.533-8.533v-25.6h187.733c4.719,0,8.533-3.814,8.533-8.533V128
			C512,123.281,508.186,119.467,503.467,119.467z M273.067,366.933c0,3.482-6.648,8.533-17.067,8.533s-17.067-5.052-17.067-8.533
			V204.8h34.133V366.933z M298.667,187.733h-85.333v-17.067h85.333V187.733z M494.933,153.6H17.067v-17.067h477.867V153.6z"/>
	</g>
</g>
<g>
</g>
<g>
</g>
<g>
</g>
<g>
</g>
<g>
</g>
<g>
</g>
<g>
</g>
<g>
</g>
<g>
</g>
<g>
</g>
<g>
</g>
<g>
</g>
<g>
</g>
<g>
</g>
<g>
</g>
</svg>
