<?xml version="1.0" encoding="iso-8859-1"?>
<!-- Generator: Adobe Illustrator 19.0.0, SVG Export Plug-In . SVG Version: 6.00 Build 0)  -->
<svg version="1.1" id="Layer_1" xmlns="http://www.w3.org/2000/svg" xmlns:xlink="http://www.w3.org/1999/xlink" x="0px" y="0px"
	 viewBox="0 0 512.002 512.002" style="enable-background:new 0 0 512.002 512.002;" xml:space="preserve">
<g>
	<g>
		<path d="M342.188,8.578l-85.333-8.533c-0.563-0.06-1.135-0.06-1.698,0l-85.333,8.533c-4.369,0.435-7.688,4.113-7.688,8.491v76.8
			c0,4.71,3.823,8.533,8.533,8.533h48.828c-11.366,51.004-10.812,126.421-10.214,205.986c0.495,64.913,0.998,132.045-4.446,194.338
			c-0.205,2.381,0.589,4.745,2.21,6.511c1.613,1.766,3.9,2.765,6.289,2.765h85.333c2.389,0,4.676-1.007,6.289-2.765
			c1.613-1.766,2.415-4.122,2.21-6.511c-5.444-62.293-4.941-129.425-4.446-194.33c0.597-79.565,1.152-154.982-10.223-205.995h48.836
			c4.71,0,8.533-3.823,8.533-8.533v-76.8C349.868,12.691,346.548,9.013,342.188,8.578z M222.602,494.935
			c4.702-60.416,4.215-124.553,3.746-186.675c-0.606-80.674-1.152-156.979,10.709-205.858h37.888
			c11.861,48.879,11.315,125.193,10.709,205.867c-0.469,62.123-0.956,126.251,3.746,186.667H222.602z M332.801,85.335h-153.6V24.791
			l76.8-7.68l76.8,7.68V85.335z"/>
	</g>
</g>
<g>
</g>
<g>
</g>
<g>
</g>
<g>
</g>
<g>
</g>
<g>
</g>
<g>
</g>
<g>
</g>
<g>
</g>
<g>
</g>
<g>
</g>
<g>
</g>
<g>
</g>
<g>
</g>
<g>
</g>
</svg>
