<?xml version="1.0" encoding="iso-8859-1"?>
<!-- Generator: Adobe Illustrator 19.0.0, SVG Export Plug-In . SVG Version: 6.00 Build 0)  -->
<svg version="1.1" id="Layer_1" xmlns="http://www.w3.org/2000/svg" xmlns:xlink="http://www.w3.org/1999/xlink" x="0px" y="0px"
	 viewBox="0 0 512 512" style="enable-background:new 0 0 512 512;" xml:space="preserve">
<g transform="translate(1 1)">
	<g>
		<g>
			<path d="M485.4,289.133h-59.733V16.067H152.6h-17.067h-51.2v273.067H24.6c-14.507,0-25.6,11.947-25.6,25.6v102.4
				c0,14.507,11.947,25.6,25.6,25.6h25.6v31.573c0,11.093,8.533,19.627,19.627,19.627h46.08c11.093,0,19.627-8.533,19.627-19.627
				v-31.573h238.933v31.573c0,11.093,8.533,19.627,18.773,19.627h46.933c11.093,0,19.627-8.533,19.627-19.627v-31.573h25.6
				c14.507,0,25.6-11.093,25.6-25.6v-102.4C511,300.227,499.053,289.133,485.4,289.133z M152.6,33.133h256v256h-256V33.133z
				 M101.4,33.133h34.133v256H101.4V33.133z M118.467,474.307c0,1.707-0.853,2.56-2.56,2.56h-46.08c-1.707,0-2.56-0.853-2.56-2.56
				v-31.573h51.2V474.307z M443.587,474.307c0,1.707-0.853,2.56-2.56,2.56h-46.933c-1.707,0-2.56-0.853-2.56-2.56v-31.573h52.053
				V474.307z M493.933,417.133c0,5.12-4.267,8.533-8.533,8.533h-25.6h-85.333H135.533H50.2H24.6c-5.12,0-8.533-4.267-8.533-8.533
				v-102.4c0-5.12,4.267-8.533,8.533-8.533h59.733h51.2H152.6h273.067H485.4c5.12,0,8.533,4.267,8.533,8.533V417.133z"/>
			<path d="M357.4,383c-5.12,0-8.533,3.413-8.533,8.533s3.413,8.533,8.533,8.533s8.533-3.413,8.533-8.533S362.52,383,357.4,383z"/>
			<path d="M391.533,383c-5.12,0-8.533,3.413-8.533,8.533s3.413,8.533,8.533,8.533c5.12,0,8.533-3.413,8.533-8.533
				S396.653,383,391.533,383z"/>
			<path d="M289.133,383c-5.12,0-8.533,3.413-8.533,8.533s3.413,8.533,8.533,8.533s8.533-3.413,8.533-8.533S294.253,383,289.133,383
				z"/>
			<path d="M323.267,383c-5.12,0-8.533,3.413-8.533,8.533s3.413,8.533,8.533,8.533s8.533-3.413,8.533-8.533S328.387,383,323.267,383
				z"/>
			<path d="M220.867,383c-5.12,0-8.533,3.413-8.533,8.533s3.413,8.533,8.533,8.533s8.533-3.413,8.533-8.533S225.987,383,220.867,383
				z"/>
			<path d="M255,383c-5.12,0-8.533,3.413-8.533,8.533s3.413,8.533,8.533,8.533s8.533-3.413,8.533-8.533S260.12,383,255,383z"/>
			<path d="M186.733,383c-5.12,0-8.533,3.413-8.533,8.533s3.413,8.533,8.533,8.533s8.533-3.413,8.533-8.533S191.853,383,186.733,383
				z"/>
			<path d="M425.667,383c-5.12,0-8.533,3.413-8.533,8.533s3.413,8.533,8.533,8.533s8.533-3.413,8.533-8.533S430.787,383,425.667,383
				z"/>
			<path d="M459.8,383c-5.12,0-8.533,3.413-8.533,8.533s3.413,8.533,8.533,8.533c5.12,0,8.533-3.413,8.533-8.533
				S464.92,383,459.8,383z"/>
			<path d="M374.467,357.4c-5.12,0-8.533,3.413-8.533,8.533s3.413,8.533,8.533,8.533s8.533-3.413,8.533-8.533
				S379.587,357.4,374.467,357.4z"/>
			<path d="M408.6,357.4c-5.12,0-8.533,3.413-8.533,8.533s3.413,8.533,8.533,8.533s8.533-3.413,8.533-8.533
				S413.72,357.4,408.6,357.4z"/>
			<path d="M306.2,357.4c-5.12,0-8.533,3.413-8.533,8.533s3.413,8.533,8.533,8.533s8.533-3.413,8.533-8.533
				S311.32,357.4,306.2,357.4z"/>
			<path d="M340.333,357.4c-5.12,0-8.533,3.413-8.533,8.533s3.413,8.533,8.533,8.533c5.12,0,8.533-3.413,8.533-8.533
				S345.453,357.4,340.333,357.4z"/>
			<path d="M237.933,357.4c-5.12,0-8.533,3.413-8.533,8.533s3.413,8.533,8.533,8.533s8.533-3.413,8.533-8.533
				S243.053,357.4,237.933,357.4z"/>
			<path d="M272.067,357.4c-5.12,0-8.533,3.413-8.533,8.533s3.413,8.533,8.533,8.533c5.12,0,8.533-3.413,8.533-8.533
				S277.187,357.4,272.067,357.4z"/>
			<path d="M203.8,357.4c-5.12,0-8.533,3.413-8.533,8.533s3.413,8.533,8.533,8.533c5.12,0,8.533-3.413,8.533-8.533
				S208.92,357.4,203.8,357.4z"/>
			<path d="M442.733,357.4c-5.12,0-8.533,3.413-8.533,8.533s3.413,8.533,8.533,8.533s8.533-3.413,8.533-8.533
				S447.853,357.4,442.733,357.4z"/>
			<path d="M468.333,331.8H178.2c-5.12,0-8.533,3.413-8.533,8.533s3.413,8.533,8.533,8.533h290.133c5.12,0,8.533-3.413,8.533-8.533
				S473.453,331.8,468.333,331.8z"/>
			<path d="M144.067,331.8h-102.4c-5.12,0-8.533,3.413-8.533,8.533v51.2c0,5.12,3.413,8.533,8.533,8.533h102.4
				c5.12,0,8.533-3.413,8.533-8.533v-51.2C152.6,335.213,149.187,331.8,144.067,331.8z M135.533,383H50.2v-34.133h85.333V383z"/>
			<path d="M280.6,50.2c-61.44,0-110.933,49.493-110.933,110.933S219.16,272.067,280.6,272.067s110.933-49.493,110.933-110.933
				S342.04,50.2,280.6,50.2z M280.6,255c-52.053,0-93.867-41.813-93.867-93.867s41.813-93.867,93.867-93.867
				c52.053,0,93.867,41.813,93.867,93.867S332.653,255,280.6,255z"/>
			<path d="M280.6,118.467c-23.893,0-42.667,18.773-42.667,42.667c0,23.893,18.773,42.667,42.667,42.667
				c23.893,0,42.667-18.773,42.667-42.667C323.267,137.24,304.493,118.467,280.6,118.467z M280.6,186.733
				c-14.507,0-25.6-11.093-25.6-25.6c0-14.507,11.093-25.6,25.6-25.6c14.507,0,25.6,11.093,25.6,25.6
				C306.2,175.64,295.107,186.733,280.6,186.733z"/>
		</g>
	</g>
</g>
<g>
</g>
<g>
</g>
<g>
</g>
<g>
</g>
<g>
</g>
<g>
</g>
<g>
</g>
<g>
</g>
<g>
</g>
<g>
</g>
<g>
</g>
<g>
</g>
<g>
</g>
<g>
</g>
<g>
</g>
</svg>
