<?xml version="1.0" encoding="iso-8859-1"?>
<!-- Generator: Adobe Illustrator 19.0.0, SVG Export Plug-In . SVG Version: 6.00 Build 0)  -->
<svg version="1.1" id="Layer_1" xmlns="http://www.w3.org/2000/svg" xmlns:xlink="http://www.w3.org/1999/xlink" x="0px" y="0px"
	 viewBox="0 0 512 512" style="enable-background:new 0 0 512 512;" xml:space="preserve">
<g>
	<g>
		<g>
			<path d="M273.067,341.333c0-15.224-10.018-28.151-23.808-32.538c2.5-4.804,3.823-10.163,3.823-15.727
				c0-9.122-3.558-17.698-10.01-24.141c-10.368-10.385-27.179-12.766-39.851-6.187c-1.621-5.154-4.48-9.873-8.405-13.807
				c-6.451-6.443-15.027-9.993-24.141-9.993c-15.224,0-28.151,10.018-32.538,23.808c-12.681-6.588-29.5-4.215-39.868,6.178
				c-6.451,6.443-10.01,15.019-10.01,24.132c0,5.564,1.331,10.931,3.831,15.727c-13.798,4.386-23.825,17.314-23.825,32.546
				c0,15.223,10.018,28.16,23.817,32.546c-2.5,4.796-3.823,10.163-3.823,15.727c0,9.122,3.55,17.69,10.001,24.132
				c10.377,10.385,27.187,12.766,39.851,6.187c1.63,5.154,4.48,9.882,8.405,13.807c6.443,6.451,15.019,10.001,24.132,10.001h0.017
				c15.223,0,28.151-10.018,32.538-23.817c12.655,6.588,29.483,4.207,39.868-6.178c6.451-6.443,10.001-15.019,10.001-24.132
				c0-5.564-1.323-10.923-3.814-15.718c5.163-1.63,9.89-4.48,13.824-8.414C269.525,359.023,273.067,350.447,273.067,341.333z
				 M251.008,353.408c-3.226,3.217-7.509,4.992-12.066,4.992c-0.7,0-3.584-0.205-11.708-2.842c-4.25-1.374-8.815,0.734-10.522,4.847
				c-1.698,4.113,0.043,8.849,4.011,10.871c7.62,3.891,9.796,5.777,10.283,6.263c3.226,3.226,5.001,7.509,5.001,12.066
				c0,4.557-1.775,8.841-5.001,12.066c-6.46,6.46-17.69,6.46-24.141,0c-0.486-0.486-2.372-2.662-6.255-10.283
				c-2.022-3.968-6.767-5.726-10.863-4.011c-4.113,1.707-6.229,6.281-4.855,10.513c2.637,8.141,2.842,11.017,2.842,11.708
				c0,9.412-7.663,17.067-17.084,17.067c-4.557,0-8.841-1.775-12.058-4.992c-3.226-3.226-5-7.509-4.992-12.075
				c0-0.691,0.205-3.558,2.85-11.699c1.374-4.241-0.734-8.815-4.847-10.522c-1.067-0.444-2.176-0.648-3.268-0.648
				c-3.115,0-6.101,1.715-7.603,4.651c-3.891,7.629-5.777,9.805-6.263,10.291c-6.451,6.46-17.698,6.443-24.141,0
				c-3.226-3.226-5-7.509-5-12.066c0-4.557,1.775-8.841,5-12.066c0.486-0.495,2.671-2.389,10.283-6.263
				c3.968-2.022,5.709-6.75,4.002-10.863c-1.698-4.113-6.281-6.246-10.505-4.855c-8.141,2.637-11.017,2.842-11.708,2.842
				c-9.412,0-17.067-7.654-17.067-17.067c0-9.412,7.654-17.067,17.067-17.067c0.691,0,3.575,0.205,11.733,2.85
				c4.224,1.382,8.815-0.734,10.513-4.847c1.707-4.113-0.043-8.841-4.002-10.871c-7.629-3.891-9.822-5.786-10.308-6.272
				c-3.226-3.226-5.009-7.518-5.009-12.066c0-4.557,1.775-8.841,5.009-12.066c6.443-6.46,17.69-6.443,24.132-0.008
				c0.486,0.486,2.372,2.671,6.272,10.3c2.014,3.968,6.733,5.717,10.863,4.011c4.113-1.707,6.229-6.281,4.847-10.513
				c-2.637-8.141-2.842-11.025-2.842-11.716c0-9.412,7.663-17.067,17.084-17.067c9.404,0,17.05,7.654,17.05,17.067
				c0,0.691-0.205,3.55-2.85,11.699c-1.374,4.233,0.742,8.806,4.855,10.513c4.113,1.698,8.841-0.034,10.863-4.002
				c3.891-7.62,5.777-9.796,6.263-10.283c6.451-6.451,17.681-6.451,24.141,0.009c3.226,3.217,5.001,7.509,5.001,12.066
				c0,4.557-1.775,8.841-5.001,12.066c-0.486,0.478-2.671,2.372-10.283,6.263c-3.968,2.022-5.709,6.75-4.002,10.863
				c1.698,4.122,6.306,6.238,10.513,4.847c8.141-2.637,11.008-2.842,11.691-2.842c9.412,0,17.067,7.654,17.067,17.075
				C256,345.899,254.225,350.182,251.008,353.408z"/>
			<path d="M511.974,178.56v-0.034c-0.145-33.886-10.121-49.212-28.706-65.664l-93.867-76.8c-3.644-2.978-9.02-2.449-12.006,1.203
				c-2.987,3.644-2.449,9.02,1.203,12.006l48.068,39.322v47.94c0,15.565,8.175,27.776,22.903,33.698l45.363,15.121v232.781
				c0,14.114-11.486,25.6-25.6,25.6s-25.6-11.486-25.6-25.6v-204.8c0-23.526-19.14-42.667-42.667-42.667h-59.733v-128
				C341.333,19.14,322.193,0,298.667,0h-256C19.14,0,0,19.14,0,42.667v460.8C0,508.177,3.823,512,8.533,512H332.8
				c4.71,0,8.533-3.823,8.533-8.533V212.804c0-4.719-3.823-8.542-8.533-8.542c-4.71,0-8.533,3.823-8.533,8.542v282.129h-307.2
				V42.667c0-14.114,11.486-25.6,25.6-25.6h256c14.114,0,25.6,11.486,25.6,25.6V179.2c0,4.71,3.823,8.533,8.533,8.533h68.267
				c14.114,0,25.6,11.486,25.6,25.6v204.8c0,23.526,19.14,42.667,42.667,42.667c23.526,0,42.667-19.14,42.667-42.667V179.2
				C512,178.97,511.974,178.782,511.974,178.56z M455.458,154.214c-9.694-3.9-11.725-11.767-11.725-17.681v-33.971l23.45,19.183
				l-5.487,10.974c-2.108,4.215-0.393,9.335,3.823,11.443c1.22,0.614,2.526,0.905,3.806,0.905c3.132,0,6.144-1.724,7.646-4.719
				l3.294-6.588c8.073,8.806,12.629,18.159,14.08,33.408L455.458,154.214z"/>
			<path d="M170.667,315.733c-14.114,0-25.6,11.486-25.6,25.6s11.486,25.6,25.6,25.6s25.6-11.486,25.6-25.6
				S184.781,315.733,170.667,315.733z M170.667,349.867c-4.702,0-8.533-3.831-8.533-8.533c0-4.702,3.831-8.533,8.533-8.533
				c4.702,0,8.533,3.831,8.533,8.533C179.2,346.035,175.369,349.867,170.667,349.867z"/>
			<path d="M123.742,97.911c-4.087,2.347-5.487,7.569-3.132,11.648l4.267,7.398c1.579,2.748,4.454,4.275,7.398,4.275
				c1.451,0,2.918-0.367,4.258-1.143c4.079-2.355,5.487-7.569,3.132-11.648l-4.267-7.407
				C133.043,96.947,127.812,95.548,123.742,97.911z"/>
			<path d="M101.035,129.143c-4.096-2.372-9.31-0.956-11.657,3.123c-2.355,4.087-0.956,9.301,3.123,11.657l7.39,4.267
				c1.348,0.777,2.816,1.143,4.258,1.143c2.953,0,5.82-1.527,7.398-4.267c2.355-4.087,0.956-9.301-3.123-11.656L101.035,129.143z"/>
			<path d="M290.133,179.2v-8.533c0-65.877-53.589-119.467-119.467-119.467S51.2,104.789,51.2,170.667v8.533
				c0,4.71,3.823,8.533,8.533,8.533l110.933,0.017c2.261,0,4.437-0.905,6.033-2.5c1.604-1.604,2.5-3.772,2.5-6.033V93.875
				c0-4.71-3.814-8.533-8.533-8.533c-4.71,0-8.525,3.823-8.525,8.533l-0.008,76.792H68.267c0-56.465,45.935-102.4,102.4-102.4
				s102.4,45.935,102.4,102.4H204.8c-4.71,0-8.533,3.823-8.533,8.533s3.823,8.533,8.533,8.533h76.8
				C286.31,187.733,290.133,183.91,290.133,179.2z"/>
			<path d="M209.05,121.242c2.953,0,5.82-1.527,7.398-4.267l4.275-7.398c2.355-4.079,0.956-9.301-3.123-11.657
				c-4.07-2.364-9.293-0.964-11.657,3.123l-4.275,7.398c-2.355,4.079-0.964,9.301,3.123,11.657
				C206.131,120.875,207.599,121.242,209.05,121.242z"/>
			<path d="M237.167,149.35c1.451,0,2.918-0.367,4.258-1.143l7.398-4.267c4.087-2.355,5.487-7.569,3.132-11.656
				c-2.364-4.087-7.586-5.487-11.656-3.123l-7.398,4.267c-4.087,2.355-5.487,7.569-3.132,11.648
				C231.347,147.823,234.223,149.35,237.167,149.35z"/>
		</g>
	</g>
</g>
<g>
</g>
<g>
</g>
<g>
</g>
<g>
</g>
<g>
</g>
<g>
</g>
<g>
</g>
<g>
</g>
<g>
</g>
<g>
</g>
<g>
</g>
<g>
</g>
<g>
</g>
<g>
</g>
<g>
</g>
</svg>
