<?xml version="1.0" encoding="iso-8859-1"?>
<!-- Generator: Adobe Illustrator 19.0.0, SVG Export Plug-In . SVG Version: 6.00 Build 0)  -->
<svg version="1.1" id="Layer_1" xmlns="http://www.w3.org/2000/svg" xmlns:xlink="http://www.w3.org/1999/xlink" x="0px" y="0px"
	 viewBox="0 0 512 512" style="enable-background:new 0 0 512 512;" xml:space="preserve">
<g>
	<g>
		<path d="M256,0C114.616,0,0,114.616,0,256s114.616,256,256,256s256-114.616,256-256S397.384,0,256,0z M357.264,403.472
			L256,326.272l-101.272,77.2l38.688-124.904L92.144,201.4h125.168L256,76.528L294.688,201.4h125.168l-101.272,77.168
			L357.264,403.472z"/>
	</g>
</g>
<g>
	<g>
		<polygon points="325.064,233.4 294.688,233.4 271.096,233.4 264.12,210.872 256,184.664 247.88,210.872 240.904,233.4 
			217.312,233.4 186.936,233.4 212.816,253.12 230.6,266.672 223.984,288.04 214.896,317.368 236.6,300.824 256,286.04 
			275.4,300.824 297.104,317.368 288.016,288.04 281.4,266.672 299.184,253.12 		"/>
	</g>
</g>
<g>
</g>
<g>
</g>
<g>
</g>
<g>
</g>
<g>
</g>
<g>
</g>
<g>
</g>
<g>
</g>
<g>
</g>
<g>
</g>
<g>
</g>
<g>
</g>
<g>
</g>
<g>
</g>
<g>
</g>
</svg>
