<?xml version="1.0" encoding="iso-8859-1"?>
<!-- Generator: Adobe Illustrator 19.0.0, SVG Export Plug-In . SVG Version: 6.00 Build 0)  -->
<svg version="1.1" id="Layer_1" xmlns="http://www.w3.org/2000/svg" xmlns:xlink="http://www.w3.org/1999/xlink" x="0px" y="0px"
	 viewBox="0 0 512 512" style="enable-background:new 0 0 512 512;" xml:space="preserve">
<g>
	<g>
		<path d="M256,96c-21.04,0-38.176,17.12-38.176,38.176c0,3.472,0.464,6.896,1.376,10.208c0.368,1.296,0.784,2.576,1.28,3.808
			l1.136,2.544L256,214.288l34.448-63.648l1.216-2.768c0.304-0.8,0.752-2.128,1.136-3.488c0.912-3.312,1.376-6.752,1.376-10.208
			C294.176,113.12,277.04,96,256,96z M256,157.648c-13.232,0-23.968-10.736-23.968-23.968s10.736-23.968,23.968-23.968
			s23.968,10.736,23.968,23.968S269.232,157.648,256,157.648z"/>
	</g>
</g>
<g>
	<g>
		<path d="M150.16,248.112c-21.04-0.016-38.16,17.104-38.16,38.16c0,3.472,0.464,6.896,1.376,10.208
			c0.368,1.296,0.784,2.576,1.28,3.808l1.136,2.544l34.384,63.552l34.432-63.648l1.216-2.768c0.304-0.8,0.752-2.128,1.136-3.472
			c0.912-3.312,1.376-6.752,1.376-10.208C188.336,265.248,171.216,248.112,150.16,248.112z M150.176,309.744
			c-13.232,0-23.968-10.736-23.968-23.968s10.72-23.968,23.968-23.968c13.232,0,23.968,10.736,23.968,23.968
			S163.408,309.744,150.176,309.744z"/>
	</g>
</g>
<g>
	<g>
		<circle cx="361.824" cy="285.776" r="7.968"/>
	</g>
</g>
<g>
	<g>
		<circle cx="150.176" cy="285.776" r="7.968"/>
	</g>
</g>
<g>
	<g>
		<circle cx="256" cy="133.68" r="7.968"/>
	</g>
</g>
<g>
	<g>
		<path d="M256,0C114.608,0,0,114.608,0,256s114.608,256,256,256s256-114.608,256-256S397.392,0,256,0z M414.032,300.752
			c-0.528,1.936-1.168,3.824-1.904,5.664l-1.488,3.36L361.824,400l-48.752-90.096l-1.648-3.728c-0.704-1.76-1.296-3.568-1.808-5.408
			c-1.28-4.608-1.968-9.472-1.968-14.48c0-17.536,8.464-32.96,21.392-42.864l-41.136-54.464L256,247.904l-31.904-58.96
			l-41.136,54.464c12.912,9.904,21.376,25.328,21.376,42.864c0,5.024-0.688,9.872-1.968,14.48c-0.528,1.936-1.168,3.824-1.904,5.664
			l-1.488,3.36L150.176,400l-48.752-90.096l-1.648-3.728c-0.688-1.76-1.296-3.568-1.808-5.408C96.688,296.144,96,291.28,96,286.272
			c0-29.92,24.256-54.176,54.176-54.176c6.576,0,12.8,1.344,18.624,3.488l46.912-62.128l-8.48-15.664l-1.632-3.728
			c-0.704-1.76-1.296-3.568-1.808-5.408c-1.28-4.608-1.968-9.472-1.968-14.48C201.824,104.256,226.08,80,256,80
			c29.92,0,54.176,24.256,54.176,54.176c0,5.024-0.688,9.872-1.968,14.48c-0.528,1.936-1.168,3.824-1.904,5.648l-1.488,3.36
			l-8.544,15.792l46.928,62.128c5.824-2.144,12.048-3.488,18.624-3.488c29.92,0,54.176,24.256,54.176,54.176
			C416,291.296,415.312,296.144,414.032,300.752z"/>
	</g>
</g>
<g>
	<g>
		<path d="M361.824,248.096c-21.056,0-38.176,17.12-38.176,38.176c0.016,3.472,0.48,6.896,1.392,10.208
			c0.352,1.296,0.784,2.56,1.264,3.808l1.136,2.544l34.384,63.552l34.448-63.648l1.216-2.768c0.304-0.8,0.752-2.128,1.136-3.488
			c0.912-3.312,1.376-6.736,1.376-10.208C400,265.232,382.88,248.096,361.824,248.096z M361.824,309.744
			c-13.232,0-23.968-10.736-23.968-23.968s10.736-23.968,23.968-23.968s23.968,10.736,23.968,23.968
			S375.056,309.744,361.824,309.744z"/>
	</g>
</g>
<g>
</g>
<g>
</g>
<g>
</g>
<g>
</g>
<g>
</g>
<g>
</g>
<g>
</g>
<g>
</g>
<g>
</g>
<g>
</g>
<g>
</g>
<g>
</g>
<g>
</g>
<g>
</g>
<g>
</g>
</svg>
