<?xml version="1.0" encoding="iso-8859-1"?>
<!-- Generator: Adobe Illustrator 19.0.0, SVG Export Plug-In . SVG Version: 6.00 Build 0)  -->
<svg version="1.1" id="Layer_1" xmlns="http://www.w3.org/2000/svg" xmlns:xlink="http://www.w3.org/1999/xlink" x="0px" y="0px"
	 viewBox="0 0 512 512" style="enable-background:new 0 0 512 512;" xml:space="preserve">
<g>
	<g>
		<path d="M256,0C114.616,0,0,114.616,0,256s114.616,256,256,256c0.736,0,1.456-0.048,2.192-0.056V427.72h-100V294.08h219.184v-73
			H266.24c-14.496,23.16-28.712,42.184-31.816,46.296l-9.328,12.24l-9.272-12.24c-6.824-8.92-66.512-88.608-66.512-128.312
			c0-47.624,29.728-78.408,75.784-78.408c46.056,0,75.784,30.776,75.784,78.408c0,13.488-6.968,31.616-16.352,50.016h124.848v137
			H190.192v69.632h100v113.944C415.4,492.936,512,385.784,512,256C512,114.616,397.384,0,256,0z"/>
	</g>
</g>
<g>
	<g>
		<path d="M225.096,92.664c-38.096,0-43.784,29.072-43.784,46.408c0,12.392,16.352,46.992,43.744,86.616
			c28.56-41.432,43.824-74.48,43.824-86.616C268.88,121.744,263.192,92.664,225.096,92.664z M225.032,164.136
			c-13.552,0-24.544-10.992-24.544-24.544s10.992-24.544,24.544-24.544c13.56,0.008,24.544,10.992,24.544,24.544
			S238.592,164.136,225.032,164.136z"/>
	</g>
</g>
<g>
</g>
<g>
</g>
<g>
</g>
<g>
</g>
<g>
</g>
<g>
</g>
<g>
</g>
<g>
</g>
<g>
</g>
<g>
</g>
<g>
</g>
<g>
</g>
<g>
</g>
<g>
</g>
<g>
</g>
</svg>
