<?xml version="1.0" encoding="iso-8859-1"?>
<!-- Generator: Adobe Illustrator 19.0.0, SVG Export Plug-In . SVG Version: 6.00 Build 0)  -->
<svg version="1.1" id="Layer_1" xmlns="http://www.w3.org/2000/svg" xmlns:xlink="http://www.w3.org/1999/xlink" x="0px" y="0px"
	 viewBox="0 0 512 512" style="enable-background:new 0 0 512 512;" xml:space="preserve">
<polygon style="fill:#533672;" points="455.736,372.747 512,327.736 512,260.22 455.736,226.462 "/>
<polygon style="fill:#8C3B5C;" points="478.242,226.462 0,260.22 0,327.736 478.242,372.747 "/>
<polygon style="fill:#FF883E;" points="478.242,417.758 512,417.758 512,327.736 478.242,327.736 444.484,372.747 "/>
<rect y="327.736" style="fill:#FFB88B;" width="478.242" height="90.022"/>
<polygon style="fill:#FFCD71;" points="478.242,215.209 455.736,237.714 478.242,260.22 512,260.22 512,215.209 "/>
<rect y="215.209" style="fill:#FFE1AA;" width="478.242" height="45.011"/>
<path style="fill:#FF883E;" d="M444.484,94.242L421.978,128l22.506,33.758c18.645,0,33.758-15.114,33.758-33.758
	S463.128,94.242,444.484,94.242z"/>
<path style="fill:#FFB88B;" d="M415.252,111.121H96.748C90.91,101.034,80.01,94.242,67.516,94.242
	c-18.645,0-33.758,15.114-33.758,33.758s15.114,33.758,33.758,33.758c12.493,0,23.393-6.792,29.231-16.879h318.506
	c5.838,10.087,16.737,16.879,29.231,16.879V94.242C431.991,94.242,421.09,101.034,415.252,111.121z"/>
<g>
	<circle style="fill:#FFFFFF;" cx="122.655" cy="293.978" r="8.44"/>
	<circle style="fill:#FFFFFF;" cx="211.552" cy="293.978" r="8.44"/>
	<circle style="fill:#FFFFFF;" cx="300.448" cy="293.978" r="8.44"/>
	<circle style="fill:#FFFFFF;" cx="389.345" cy="293.978" r="8.44"/>
	<circle style="fill:#FFFFFF;" cx="478.242" cy="293.978" r="8.44"/>
	<circle style="fill:#FFFFFF;" cx="33.758" cy="293.978" r="8.44"/>
</g>
<g>
</g>
<g>
</g>
<g>
</g>
<g>
</g>
<g>
</g>
<g>
</g>
<g>
</g>
<g>
</g>
<g>
</g>
<g>
</g>
<g>
</g>
<g>
</g>
<g>
</g>
<g>
</g>
<g>
</g>
</svg>
