<?xml version="1.0" encoding="iso-8859-1"?>
<!-- Generator: Adobe Illustrator 19.0.0, SVG Export Plug-In . SVG Version: 6.00 Build 0)  -->
<svg version="1.1" id="Layer_1" xmlns="http://www.w3.org/2000/svg" xmlns:xlink="http://www.w3.org/1999/xlink" x="0px" y="0px"
	 viewBox="0 0 511.999 511.999" style="enable-background:new 0 0 511.999 511.999;" xml:space="preserve">
<path style="fill:#8C3B5C;" d="M446.442,2.451c-3.269-3.267-8.565-3.267-11.833,0c-3.267,3.267-3.267,8.565,0,11.832l31.55,31.549
	l11.833-11.833L446.442,2.451z"/>
<path style="fill:#533672;" d="M497.715,77.388c3.269,3.267,8.565,3.267,11.833,0c3.267-3.267,3.267-8.565,0-11.832l-31.549-31.549
	L466.166,45.84L497.715,77.388z"/>
<path style="fill:#8C3B5C;" d="M422.778,26.115c-3.269-3.267-8.565-3.267-11.833,0c-3.267,3.267-3.267,8.565,0,11.832l31.549,31.549
	l11.833-11.833L422.778,26.115z"/>
<path style="fill:#533672;" d="M474.05,101.052c3.269,3.267,8.565,3.267,11.833,0c3.267-3.267,3.267-8.565,0-11.832l-31.549-31.549
	l-11.833,11.833L474.05,101.052z"/>
<path style="fill:#FFAB58;" d="M267.498,369.795l-7.423-117.873l-212.98,212.98l18.947,28.682
	c51.313,30.192,118.431,23.257,162.481-20.794C256.794,444.519,269.793,406.782,267.498,369.795z"/>
<path style="fill:#FFCD71;" d="M251.833,354.129l8.243-102.207l-117.865-7.415c-36.987-2.296-74.732,10.696-103.004,38.967
	c-44.051,44.051-50.981,111.175-20.791,162.485l49.843,45.111c40.569,14.578,95.387-0.732,136.598-41.944
	C233.129,420.855,249.221,386.21,251.833,354.129z"/>
<path style="fill:#FF4431;" d="M204.858,307.139l-55.217,55.217c15.247,15.247,39.969,15.247,55.217,0
	C220.106,347.109,220.106,322.387,204.858,307.139z"/>
<path style="fill:#FFF5E3;" d="M66.452,492.874l-0.411,0.709c-9.576-5.632-18.609-12.566-26.836-20.793
	s-15.154-17.251-20.793-26.836l0.709-0.411l43.748-43.748l47.328,47.328L66.452,492.874z"/>
<path style="fill:#FF6638;" d="M204.858,307.139c6.539,6.539-0.529,24.193-15.776,39.44c-15.247,15.247-32.901,22.316-39.44,15.776
	c-15.247-15.247-15.247-39.969,0-55.217C164.889,291.891,189.61,291.891,204.858,307.139z"/>
<polygon style="fill:#FF4431;" points="507.574,43.855 452.358,99.073 428.694,106.961 393.197,103.017 487.855,24.135 "/>
<polygon style="fill:#FF6638;" points="487.855,24.135 401.085,110.905 405.029,83.296 412.917,59.632 468.134,4.415 "/>
<polygon style="fill:#8C3B5C;" points="428.694,106.961 216.163,331.624 180.375,295.834 405.029,83.296 "/>
<path style="fill:#533672;" d="M157.529,441.717c-2.142,0-4.283-0.817-5.917-2.451l-78.881-78.881
	c-3.267-3.267-3.267-8.565,0-11.832c3.27-3.269,8.566-3.267,11.833,0l78.881,78.881c3.267,3.267,3.267,8.565,0,11.832
	C161.811,440.899,159.67,441.717,157.529,441.717z"/>
<g>
</g>
<g>
</g>
<g>
</g>
<g>
</g>
<g>
</g>
<g>
</g>
<g>
</g>
<g>
</g>
<g>
</g>
<g>
</g>
<g>
</g>
<g>
</g>
<g>
</g>
<g>
</g>
<g>
</g>
</svg>
