<?xml version="1.0" encoding="iso-8859-1"?>
<!-- Generator: Adobe Illustrator 19.0.0, SVG Export Plug-In . SVG Version: 6.00 Build 0)  -->
<svg version="1.1" id="Layer_1" xmlns="http://www.w3.org/2000/svg" xmlns:xlink="http://www.w3.org/1999/xlink" x="0px" y="0px"
	 viewBox="0 0 512 512" style="enable-background:new 0 0 512 512;" xml:space="preserve">
<g>
	<g>
		<path d="M503.983,436.109h-34.766c0.005-0.179,0.027-0.354,0.027-0.534v-51.307c0-6.228-3.458-11.659-8.551-14.489v-11.165
			c0-13.125-10.12-23.924-22.966-25.021l1.01-1.011c3.13-3.129,4.854-7.29,4.854-11.715v-39.213c0-4.427-3.589-8.017-8.017-8.017
			H401.37c-13.851,0-25.119,11.268-25.119,25.119v22.111c0,4.426,1.723,8.586,4.853,11.715l1.011,1.011
			c-12.846,1.097-22.966,11.896-22.966,25.021v11.165c-5.093,2.829-8.551,8.26-8.551,14.489v51.307c0,0.181,0.021,0.356,0.027,0.534
			h-35.328c0.005-0.179,0.027-0.354,0.027-0.534v-51.307c0-6.228-3.458-11.659-8.551-14.489v-11.165
			c0-13.125-10.12-23.924-22.966-25.021l1.01-1.011c3.13-3.129,4.854-7.29,4.854-11.715v-39.213c0-4.427-3.589-8.017-8.017-8.017
			h-34.205c-13.851,0-25.119,11.268-25.119,25.119v22.111c0,4.426,1.723,8.586,4.853,11.715l1.011,1.011
			c-12.845,1.097-22.965,11.896-22.965,25.021v11.165c-5.093,2.829-8.551,8.26-8.551,14.489v51.307c0,0.181,0.021,0.356,0.027,0.534
			h-35.328c0.005-0.179,0.027-0.354,0.027-0.534v-51.307c0-6.228-3.458-11.659-8.551-14.489v-11.165
			c0-13.125-10.12-23.924-22.966-25.021l1.01-1.011c3.13-3.129,4.854-7.29,4.854-11.715v-39.213c0-4.427-3.589-8.017-8.017-8.017
			H93.527c-13.85,0-25.118,11.268-25.118,25.119v22.111c0,4.426,1.723,8.586,4.853,11.715l1.011,1.011
			c-12.846,1.097-22.966,11.896-22.966,25.021v11.165c-5.093,2.829-8.551,8.26-8.551,14.489v51.307c0,0.181,0.021,0.356,0.027,0.534
			H8.017c-4.427,0-8.017,3.589-8.017,8.017c0,4.427,3.589,8.017,8.017,8.017h495.967c4.427,0,8.017-3.589,8.017-8.017
			C512,439.698,508.411,436.109,503.983,436.109z M84.443,298.756c0-5.01,4.076-9.086,9.086-9.086h26.188v31.197
			c0,0.142-0.056,0.277-0.156,0.378l-12.092,12.092c-0.102,0.102-0.236,0.157-0.378,0.157H97.07c-0.143,0-0.278-0.056-0.378-0.156
			l-12.094-12.093c-0.1-0.1-0.156-0.235-0.156-0.377V298.756z M67.34,358.614c0-5.01,4.076-9.086,9.086-9.086h51.307
			c5.01,0,9.086,4.076,9.086,9.086v9.086H67.34V358.614z M145.37,435.574c0,0.295-0.239,0.534-0.534,0.534H59.324
			c-0.295,0-0.534-0.239-0.534-0.534v-51.307c0-0.295,0.239-0.534,0.534-0.534h85.511c0.295,0,0.534,0.239,0.534,0.534V435.574z
			 M238.363,298.756c0-5.01,4.076-9.086,9.086-9.086h26.188v31.197c0,0.142-0.056,0.277-0.156,0.378l-12.092,12.092
			c-0.102,0.102-0.236,0.157-0.378,0.157h-10.019c-0.142,0-0.277-0.056-0.378-0.156l-12.094-12.093
			c-0.1-0.1-0.156-0.235-0.156-0.377V298.756z M221.261,358.614c0-5.01,4.076-9.086,9.086-9.086h51.307
			c5.01,0,9.086,4.076,9.086,9.086v9.086h-69.478V358.614z M299.29,435.574c0,0.295-0.239,0.534-0.534,0.534h-85.511
			c-0.295,0-0.534-0.239-0.534-0.534v-51.307c0-0.295,0.239-0.534,0.534-0.534h85.511c0.295,0,0.534,0.239,0.534,0.534V435.574z
			 M401.37,289.67h26.188v31.197c0,0.142-0.056,0.277-0.156,0.378l-12.092,12.092c-0.102,0.102-0.236,0.157-0.378,0.157h-10.019
			c-0.142,0-0.277-0.056-0.378-0.156l-12.093-12.093c-0.1-0.1-0.156-0.235-0.156-0.377v-22.112h0
			C392.284,293.746,396.36,289.67,401.37,289.67z M375.182,358.614c0-5.01,4.076-9.086,9.086-9.086h51.307
			c5.01,0,9.086,4.076,9.086,9.086v9.086h-69.478V358.614z M453.211,435.574c0,0.295-0.239,0.534-0.534,0.534h-85.511
			c-0.295,0-0.534-0.239-0.534-0.534v-51.307c0-0.295,0.239-0.534,0.534-0.534h85.511c0.295,0,0.534,0.239,0.534,0.534V435.574z"/>
	</g>
</g>
<g>
	<g>
		<path d="M256.043,401.904h-0.086c-4.427,0-7.974,3.589-7.974,8.017c0,4.427,3.632,8.017,8.059,8.017s8.017-3.589,8.017-8.017
			C264.059,405.493,260.47,401.904,256.043,401.904z"/>
	</g>
</g>
<g>
	<g>
		<path d="M409.963,401.904h-0.086c-4.427,0-7.974,3.589-7.974,8.017c0,4.427,3.632,8.017,8.06,8.017
			c4.427,0,8.017-3.589,8.017-8.017C417.98,405.493,414.391,401.904,409.963,401.904z"/>
	</g>
</g>
<g>
	<g>
		<path d="M102.122,401.904h-0.086c-4.427,0-7.974,3.589-7.974,8.017c0,4.427,3.632,8.017,8.059,8.017
			c4.427,0,8.017-3.589,8.017-8.017C110.139,405.493,106.549,401.904,102.122,401.904z"/>
	</g>
</g>
<g>
	<g>
		<path d="M427.023,222.33h-34.766c0.005-0.178,0.027-0.354,0.027-0.534v-51.307c0-6.228-3.458-11.659-8.551-14.489v-11.165
			c0-13.125-10.12-23.924-22.966-25.021l1.01-1.01c3.13-3.129,4.854-7.29,4.854-11.716V67.875c0-4.427-3.589-8.017-8.017-8.017
			h-34.205c-13.851,0-25.119,11.268-25.119,25.119v22.111c0,4.426,1.723,8.586,4.853,11.715l1.011,1.011
			c-12.846,1.097-22.966,11.896-22.966,25.021V156c-5.093,2.829-8.551,8.26-8.551,14.489v51.307c0,0.181,0.021,0.356,0.027,0.534
			h-35.328c0.005-0.178,0.027-0.354,0.027-0.534v-51.307c0-6.228-3.458-11.659-8.551-14.489v-11.165
			c0-13.125-10.12-23.924-22.966-25.021l1.01-1.01c3.13-3.129,4.854-7.29,4.854-11.716V67.875c0-4.427-3.589-8.017-8.017-8.017
			h-34.205c-13.85,0-25.118,11.268-25.118,25.119v22.111c0,4.426,1.723,8.586,4.853,11.715l1.011,1.011
			c-12.846,1.097-22.966,11.896-22.966,25.021V156c-5.093,2.829-8.551,8.26-8.551,14.489v51.307c0,0.181,0.021,0.356,0.027,0.534
			H84.977c-4.427,0-8.017,3.589-8.017,8.017s3.589,8.017,8.017,8.017h342.046c4.427,0,8.017-3.589,8.017-8.017
			S431.45,222.33,427.023,222.33z M161.403,84.977c0-5.01,4.076-9.086,9.086-9.086h26.188v31.197c0,0.143-0.056,0.277-0.156,0.378
			l-12.092,12.092c-0.102,0.1-0.235,0.157-0.378,0.157h-10.019c-0.143,0-0.278-0.056-0.378-0.156l-12.094-12.093
			c-0.1-0.1-0.156-0.235-0.156-0.377V84.977z M144.301,144.835c0-5.01,4.076-9.086,9.086-9.086h51.307
			c5.01,0,9.086,4.076,9.086,9.086v9.086h-69.478V144.835z M222.33,221.795c0,0.295-0.239,0.534-0.534,0.534h-85.511
			c-0.295,0-0.534-0.239-0.534-0.534v-51.307c0-0.295,0.239-0.534,0.534-0.534h85.511c0.295,0,0.534,0.239,0.534,0.534V221.795z
			 M315.324,84.977c0-5.01,4.076-9.086,9.086-9.086h26.188v31.197c0,0.143-0.056,0.277-0.156,0.378l-12.092,12.092
			c-0.102,0.1-0.236,0.157-0.378,0.157h-10.019c-0.143,0-0.277-0.056-0.378-0.156l-12.093-12.093c-0.1-0.1-0.156-0.235-0.156-0.377
			V84.977z M298.221,144.835c0-5.01,4.076-9.086,9.086-9.086h51.307c5.01,0,9.086,4.076,9.086,9.086v9.086h-69.478V144.835z
			 M376.251,221.795c0,0.295-0.239,0.534-0.534,0.534h-85.511c-0.295,0-0.534-0.239-0.534-0.534v-51.307
			c0-0.295,0.239-0.534,0.534-0.534h85.511c0.295,0,0.534,0.239,0.534,0.534V221.795z"/>
	</g>
</g>
<g>
	<g>
		<path d="M333.003,188.125h-0.086c-4.427,0-7.974,3.589-7.974,8.017s3.632,8.017,8.059,8.017c4.427,0,8.017-3.589,8.017-8.017
			S337.43,188.125,333.003,188.125z"/>
	</g>
</g>
<g>
	<g>
		<path d="M179.082,188.125h-0.086c-4.427,0-7.974,3.589-7.974,8.017s3.632,8.017,8.059,8.017s8.017-3.589,8.017-8.017
			S183.51,188.125,179.082,188.125z"/>
	</g>
</g>
<g>
</g>
<g>
</g>
<g>
</g>
<g>
</g>
<g>
</g>
<g>
</g>
<g>
</g>
<g>
</g>
<g>
</g>
<g>
</g>
<g>
</g>
<g>
</g>
<g>
</g>
<g>
</g>
<g>
</g>
</svg>
