<?xml version="1.0" encoding="iso-8859-1"?>
<!-- Generator: Adobe Illustrator 19.0.0, SVG Export Plug-In . SVG Version: 6.00 Build 0)  -->
<svg version="1.1" id="Layer_1" xmlns="http://www.w3.org/2000/svg" xmlns:xlink="http://www.w3.org/1999/xlink" x="0px" y="0px"
	 viewBox="0 0 512 512" style="enable-background:new 0 0 512 512;" xml:space="preserve">
<g>
	<g>
		<path d="M497.453,131.515l-93.576-93.576c-19.393-19.394-50.786-19.397-70.182,0L99.758,271.88
			c-2.265,2.265-3.915,5.3-4.546,8.562l-22.39,111.949L4.846,460.369C0.114,465.1-1.3,472.215,1.259,478.396
			c2.561,6.18,8.592,10.211,15.283,10.211h93.576c4.388,0,8.595-1.744,11.696-4.846l21.19-21.19l112.057-22.411
			c3.217-0.643,6.218-2.288,8.453-4.525L450.66,248.49c0.002-0.002,0.003-0.003,0.005-0.006c0.002-0.002,0.003-0.003,0.006-0.005
			l46.782-46.782C516.847,182.302,516.851,150.911,497.453,131.515z M103.266,455.523H56.477l31.584-31.584l23.395,23.394
			L103.266,455.523z M140.286,429.376l-34.267-34.267l15.596-77.979l96.652,96.651L140.286,429.376z M321.999,330.365
			l-46.787-46.788l93.577-93.576l46.787,46.787L321.999,330.365z M474.06,178.304l-35.091,35.091l-58.485-58.485
			c-6.458-6.459-16.932-6.46-23.394,0L240.122,271.88c-3.102,3.102-4.846,7.309-4.846,11.696s1.742,8.594,4.846,11.696
			l58.485,58.485l-46.787,46.788l-116.97-116.969L357.09,61.335c6.464-6.464,16.929-6.466,23.395,0l93.576,93.576
			C480.526,161.377,480.526,171.839,474.06,178.304z"/>
	</g>
</g>
<g>
</g>
<g>
</g>
<g>
</g>
<g>
</g>
<g>
</g>
<g>
</g>
<g>
</g>
<g>
</g>
<g>
</g>
<g>
</g>
<g>
</g>
<g>
</g>
<g>
</g>
<g>
</g>
<g>
</g>
</svg>
