<?xml version="1.0" encoding="iso-8859-1"?>
<!-- Generator: Adobe Illustrator 16.0.0, SVG Export Plug-In . SVG Version: 6.00 Build 0)  -->
<!DOCTYPE svg PUBLIC "-//W3C//DTD SVG 1.1//EN" "http://www.w3.org/Graphics/SVG/1.1/DTD/svg11.dtd">
<svg version="1.1" id="Capa_1" xmlns="http://www.w3.org/2000/svg" xmlns:xlink="http://www.w3.org/1999/xlink" x="0px" y="0px"
	 width="193.249px" height="193.249px" viewBox="0 0 193.249 193.249" style="enable-background:new 0 0 193.249 193.249;"
	 xml:space="preserve">
<g>
	<g>
		<path d="M66.286,23.297C55.667,64.098,30.259,98.486,18.041,138.592c-1.303,4.276,4.88,5.667,6.498,1.791
			c15.933-38.166,40.958-74.067,49.551-114.935C75.157,20.377,67.608,18.215,66.286,23.297z"/>
		<path d="M149.478,11.299c-3.597-3.662-7.657-6.688-12.368-7.508c-1.458-1.245-3.059-2.348-4.786-3.269
			c-2.012-1.073-4.271-0.445-5.509,1.444c-1.581,2.416-3.067,4.992-4.467,7.626c-3.095,3.305-5.609,7.386-7.697,10.747
			c-1.97,3.17,1.552,6.876,4.771,5.656c0.884,0.773,1.848,1.463,2.798,2.12c-3.736,3.603-5.93,10.32-8.056,14.434
			c-2.048,3.963-4.034,7.996-5.897,12.083c-7.147-2.006-13.986,0.281-21.068,6.124C74.74,71.034,77.006,89.14,67.096,100.359
			c-9.501,10.755-25.829,14.523-29.861,30.371c-3.072,12.075-0.503,23.685,7.509,33.213c1.248,1.484,2.657,2.694,4.134,3.774
			c0.759,0.906,1.798,1.458,2.963,1.851c3.041,1.592,6.37,2.53,9.847,2.875c0.807,0.424,1.616,0.452,2.359,0.179
			c12.479,0.318,26.052-6.293,32.745-15.568c11.932-16.537,4.347-36.936,15.605-53.736c8.619-12.863,13.955-26.032,6.671-40.992
			c-0.087-0.178-0.215-0.264-0.315-0.415c-0.038-0.867-0.383-1.743-1.232-2.398c-1.202-0.926-2.389-1.716-3.565-2.407
			c2.136-3.65,4.226-7.328,6.313-10.989c2.23-3.912,6.557-8.948,8.033-13.808c1.67,0.832,3.46,1.211,5.653,0.611
			c7.958-2.176,12.086-10.298,16.159-16.674C151.104,14.697,150.726,12.57,149.478,11.299z M70.104,156.811
			c-7.496,4.958-0.999-13.997-0.737-14.475c1.482-2.691,5.99-9.332,10.433-10.022c1.18,3.635,1.802,6.959,1.872,10.038
			C79.58,148.362,73.9,154.299,70.104,156.811z"/>
		<path d="M169.736,87.506c-0.886-2.168-2.51-3.105-4.836-2.746c-11.822,1.826-23.763,2.556-35.6,4.274
			c-1.642,0.238-2.695,2.089-2.734,3.591c-0.477,18.116,0.74,36.194,0.673,54.309c-0.014,3.799-0.171,7.551-0.575,11.271
			c-18.498-7.72-21.499,38.336-4.059,29.576c9.563-4.804,11.299-24.927,11.893-33.902c0.975-14.715-0.169-29.592-0.595-44.337
			c0.441,0.188,0.935,0.302,1.481,0.312c0.008,0,0.016,0.001,0.024,0.001c-0.442,0.188-0.875,0.523-0.965,1.02
			c-1.144,6.332,25.922,1.925,29.464,1.975c1.409,0.02,2.439-0.757,3.093-1.793c0.968,11.538-0.08,23.379-1.062,34.796
			c-0.485,5.644-1.063,11.287-1.743,16.916c-4.987-7.233-15.474,5.978-17.753,10.147c-3.999,7.315,1.923,24.049,12.562,19.588
			c11.771-4.936,12.075-21.693,13.214-32.729C174.651,136.19,178.991,110.155,169.736,87.506z"/>
	</g>
</g>
<g>
</g>
<g>
</g>
<g>
</g>
<g>
</g>
<g>
</g>
<g>
</g>
<g>
</g>
<g>
</g>
<g>
</g>
<g>
</g>
<g>
</g>
<g>
</g>
<g>
</g>
<g>
</g>
<g>
</g>
</svg>
