<?xml version="1.0" encoding="iso-8859-1"?>
<!-- Generator: Adobe Illustrator 19.0.0, SVG Export Plug-In . SVG Version: 6.00 Build 0)  -->
<svg version="1.1" id="Layer_1" xmlns="http://www.w3.org/2000/svg" xmlns:xlink="http://www.w3.org/1999/xlink" x="0px" y="0px"
	 viewBox="0 0 512 512" style="enable-background:new 0 0 512 512;" xml:space="preserve">
<g>
	<g>
		<path d="M378.182,0h-34.909h-34.909h-34.909h-34.909h-34.909h-34.909h-34.909H64v512h104.727v-58.182h69.818v-58.182h69.818
			v-58.182h69.818v-58.182H448V0H378.182z M133.818,453.818v23.273H98.909V209.455h34.909V453.818z M133.818,174.545H98.909v-69.818
			h34.909V174.545z M133.818,69.818H98.909V34.909h34.909V69.818z M203.636,395.636v23.273h-34.909V209.455h34.909V395.636z
			 M203.636,174.545h-34.909v-69.818h34.909V174.545z M203.636,69.818h-34.909V34.909h34.909V69.818z M273.455,337.455v23.273
			h-34.909V209.455h34.909V337.455z M273.455,174.545h-34.909v-69.818h34.909V174.545z M273.455,69.818h-34.909V34.909h34.909
			V69.818z M343.273,279.273v23.273h-34.909v-93.091h34.909V279.273z M343.273,174.545h-34.909v-69.818h34.909V174.545z
			 M343.273,69.818h-34.909V34.909h34.909V69.818z M413.091,244.364h-34.909v-34.909h34.909V244.364z M413.091,174.545h-34.909
			v-69.818h34.909V174.545z M413.091,69.818h-34.909V34.909h34.909V69.818z"/>
	</g>
</g>
<g>
</g>
<g>
</g>
<g>
</g>
<g>
</g>
<g>
</g>
<g>
</g>
<g>
</g>
<g>
</g>
<g>
</g>
<g>
</g>
<g>
</g>
<g>
</g>
<g>
</g>
<g>
</g>
<g>
</g>
</svg>
