<?xml version="1.0" encoding="iso-8859-1"?>
<!-- Generator: Adobe Illustrator 19.0.0, SVG Export Plug-In . SVG Version: 6.00 Build 0)  -->
<svg version="1.1" id="Layer_1" xmlns="http://www.w3.org/2000/svg" xmlns:xlink="http://www.w3.org/1999/xlink" x="0px" y="0px"
	 viewBox="0 0 512 512" style="enable-background:new 0 0 512 512;" xml:space="preserve">
<g>
	<g>
		<path d="M347.961,341.208c-3.34-3.355-4.256-8.44-2.278-12.656c5.385-11.481,8.115-23.698,8.115-36.311
			c0-44.644-34.821-81.848-80.539-89.448V80.539h11.506V0h-57.528v80.539h11.506v122.255c-45.719,7.602-80.539,44.804-80.539,89.448
			c0,12.611,2.73,24.829,8.115,36.311c1.977,4.214,1.061,9.3-2.278,12.655c-18.603,18.685-28.848,42.565-28.848,67.241
			C135.191,465.547,189.386,512,256,512s120.809-46.453,120.809-103.551C376.809,383.773,366.564,359.893,347.961,341.208z
			 M256,477.483c-47.581,0-86.292-30.969-86.292-69.034c0-15.71,6.498-30.539,18.791-42.887c13.54-13.6,17.185-34.363,9.069-51.665
			c-3.217-6.861-4.848-14.146-4.848-21.654c0-31.087,28.388-56.378,63.281-56.378s63.281,25.291,63.281,56.378
			c0,7.507-1.631,14.793-4.848,21.654c-8.116,17.303-4.471,38.066,9.069,51.665c12.293,12.348,18.791,27.177,18.791,42.887
			C342.292,446.515,303.581,477.483,256,477.483z"/>
	</g>
</g>
<g>
	<g>
		<circle cx="256" cy="293.393" r="23.011"/>
	</g>
</g>
<g>
	<g>
		<rect x="221.483" y="385.438" width="69.034" height="34.517"/>
	</g>
</g>
<g>
</g>
<g>
</g>
<g>
</g>
<g>
</g>
<g>
</g>
<g>
</g>
<g>
</g>
<g>
</g>
<g>
</g>
<g>
</g>
<g>
</g>
<g>
</g>
<g>
</g>
<g>
</g>
<g>
</g>
</svg>
