<?xml version="1.0" encoding="iso-8859-1"?>
<!-- Generator: Adobe Illustrator 19.0.0, SVG Export Plug-In . SVG Version: 6.00 Build 0)  -->
<svg version="1.1" id="Layer_1" xmlns="http://www.w3.org/2000/svg" xmlns:xlink="http://www.w3.org/1999/xlink" x="0px" y="0px"
	 viewBox="0 0 512 512" style="enable-background:new 0 0 512 512;" xml:space="preserve">
<g>
	<g>
		<path d="M508.428,448.007l-38.827-33.65c-4.321-3.744-10.859-3.279-14.605,1.043c-3.745,4.322-3.278,10.86,1.043,14.605
			l17.852,15.472h-41.615V70.85c0-5.717-4.636-10.354-10.354-10.354h-46.593c-5.717,0-10.354,4.636-10.354,10.354v374.627H339.09
			V181.292c0-5.717-4.636-10.354-10.354-10.354h-46.592c-5.717,0-10.354,4.636-10.354,10.354v264.185h-25.885V256
			c0-5.717-4.636-10.354-10.354-10.354h-46.593c-5.717,0-10.354,4.636-10.354,10.354v189.476H152.72V315.202
			c0-5.717-4.636-10.354-10.354-10.354H95.773c-5.717,0-10.354,4.636-10.354,10.354v130.275H59.535V48.205l15.472,17.852
			c2.048,2.363,4.93,3.573,7.829,3.573c2.403,0,4.818-0.832,6.777-2.529c4.322-3.745,4.789-10.284,1.044-14.604L57.005,13.67
			c-0.023-0.026-0.047-0.043-0.069-0.069c-1.102-1.248-2.506-2.243-4.136-2.852c-4.048-1.512-8.612-0.347-11.443,2.919L7.706,52.495
			c-3.745,4.323-3.278,10.861,1.043,14.606c4.322,3.744,10.859,3.28,14.605-1.043l15.473-17.852v397.271H10.354
			C4.636,445.477,0,450.113,0,455.831s4.636,10.354,10.354,10.354h28.473v25.367c0,5.717,4.636,10.354,10.354,10.354
			c5.717,0,10.354-4.636,10.354-10.354v-25.367h72.477v22.618c0,5.717,4.636,10.354,10.354,10.354s10.354-4.636,10.354-10.354
			v-22.618h72.477v22.618c0,5.717,4.636,10.354,10.354,10.354c5.717,0,10.354-4.636,10.354-10.354v-22.618h72.477v22.618
			c0,5.717,4.636,10.354,10.354,10.354c5.717,0,10.354-4.636,10.354-10.354v-22.618h72.477v22.618
			c0,5.717,4.636,10.354,10.354,10.354s10.354-4.636,10.354-10.354v-22.618h41.615l-17.852,15.472
			c-4.322,3.745-4.789,10.285-1.044,14.604c2.048,2.363,4.93,3.573,7.829,3.573c2.403,0,4.818-0.832,6.777-2.529l38.827-33.65
			c0.044-0.037,0.071-0.07,0.111-0.107c1.229-1.096,2.207-2.487,2.809-4.099C512.857,455.4,511.694,450.838,508.428,448.007z
			 M132.012,445.477h-25.885V325.556h25.885V445.477z M225.197,445.477h-25.885V266.354h25.885V445.477z M318.382,445.477h-25.885
			V191.646h25.885V445.477z M411.567,445.477h-25.885V81.204h25.885V445.477z"/>
	</g>
</g>
<g>
</g>
<g>
</g>
<g>
</g>
<g>
</g>
<g>
</g>
<g>
</g>
<g>
</g>
<g>
</g>
<g>
</g>
<g>
</g>
<g>
</g>
<g>
</g>
<g>
</g>
<g>
</g>
<g>
</g>
</svg>
