<?xml version="1.0" encoding="iso-8859-1"?>
<!-- Generator: Adobe Illustrator 19.0.0, SVG Export Plug-In . SVG Version: 6.00 Build 0)  -->
<svg version="1.1" id="Layer_1" xmlns="http://www.w3.org/2000/svg" xmlns:xlink="http://www.w3.org/1999/xlink" x="0px" y="0px"
	 viewBox="0 0 512.001 512.001" style="enable-background:new 0 0 512.001 512.001;" xml:space="preserve">
<g>
	<g>
		<path d="M508.459,446.275l-38.477-33.347c-4.283-3.711-10.763-3.247-14.474,1.033c-3.711,4.283-3.248,10.762,1.034,14.474
			l17.691,15.332h-45.857v-79.076l62.638,9.194c5.604,0.829,10.819-3.055,11.642-8.661c0.823-5.606-3.056-10.819-8.662-11.642
			l-65.618-9.632V84.649c0-5.666-4.594-10.26-10.26-10.26h-76.954c-5.667,0-10.26,4.595-10.26,10.26v271.752l-25.651,10.388v-165.17
			c0-5.666-4.594-10.261-10.261-10.261h-76.954c-5.667,0-10.261,4.595-10.261,10.261v173.844l-25.651-6.098v-43.594
			c0-5.666-4.594-10.26-10.26-10.26H94.91c-5.667,0-10.26,4.595-10.26,10.26v47.98l-25.651,9.241V50.079L74.33,67.77
			c2.03,2.341,4.885,3.541,7.758,3.541c2.381,0,4.774-0.825,6.716-2.507c4.282-3.711,4.745-10.192,1.033-14.472L56.49,15.855
			c-0.043-0.05-0.084-0.089-0.127-0.135c-1.083-1.206-2.453-2.166-4.041-2.758c-4.011-1.498-8.534-0.343-11.34,2.892L7.636,54.331
			c-3.71,4.283-3.247,10.762,1.035,14.473c4.283,3.711,10.762,3.248,14.474-1.033L38.477,50.08v393.688H10.26
			c-5.667,0-10.26,4.595-10.26,10.261c0,5.666,4.594,10.26,10.26,10.26h28.216v25.138c0,5.666,4.594,10.26,10.261,10.26
			s10.26-4.595,10.26-10.26v-25.138h415.236l-17.691,15.332c-4.282,3.711-4.745,10.192-1.033,14.472
			c2.029,2.341,4.885,3.541,7.758,3.541c2.382,0,4.774-0.825,6.716-2.507l38.477-33.347c0.072-0.062,0.13-0.12,0.195-0.18
			c1.178-1.074,2.116-2.427,2.699-3.987C512.851,453.601,511.696,449.081,508.459,446.275z M84.649,443.769H58.998v-38.963
			l25.651-9.241V443.769z M161.603,443.768H105.17v-55.597l26.766-9.642l29.667,7.052V443.768z M161.603,364.489l-27.896-6.63
			c-1.938-0.462-3.974-0.347-5.851,0.328l-22.687,8.172v-30.327h0.001h56.433V364.489z M207.776,443.768h-25.651v-53.309
			l25.651,6.098V443.768z M228.297,211.88h56.433v103.631h-56.433V211.88z M228.297,336.032h56.433v39.066l-29.031,11.757
			l-27.402-6.513V336.032z M284.73,443.768h-56.434v-42.334l25.844,6.143c2.074,0.494,4.249,0.328,6.224-0.472l24.366-9.867V443.768
			z M330.902,443.768H305.25v-54.839l25.651-10.388V443.768z M407.856,443.768h-56.433v-73.537l30.51-12.356l25.923,3.805V443.768z
			 M407.856,340.94l-25.701-3.773c-1.806-0.269-3.65-0.045-5.342,0.641l-25.391,10.283v-90.039h56.433V340.94z M407.856,237.531
			h-56.433V94.91h56.433V237.531z"/>
	</g>
</g>
<g>
</g>
<g>
</g>
<g>
</g>
<g>
</g>
<g>
</g>
<g>
</g>
<g>
</g>
<g>
</g>
<g>
</g>
<g>
</g>
<g>
</g>
<g>
</g>
<g>
</g>
<g>
</g>
<g>
</g>
</svg>
