<?xml version="1.0" encoding="iso-8859-1"?>
<!-- Generator: Adobe Illustrator 19.0.0, SVG Export Plug-In . SVG Version: 6.00 Build 0)  -->
<svg version="1.1" id="Capa_1" xmlns="http://www.w3.org/2000/svg" xmlns:xlink="http://www.w3.org/1999/xlink" x="0px" y="0px"
	 viewBox="0 0 490 490" style="enable-background:new 0 0 490 490;" xml:space="preserve">
<path id="XMLID_1448_" d="M489.354,243.356c-4.218-37.905-28.7-70.615-63.892-85.363c-0.745-0.312-1.515-0.563-2.3-0.752
	l-65.731-15.761L275.899,54.1c-11.847-12.532-29.447-17.166-45.933-12.095c-0.065,0.021-0.131,0.041-0.196,0.062L122.63,76.647
	c-14.843,4.522-31.302-1.77-39.169-14.986C75.513,48.309,60.776,40.015,45,40.015H25c-13.785,0-25,11.215-25,25v240
	c0,79.953,65.047,145,145,145h200c79.953,0,145-65.047,145-145C490,305.015,489.783,247.211,489.354,243.356z M30,200.015h55
	c19.556,0,36.239,12.539,42.43,30H30V200.015z M345,420.015H145c-51.212,0-94.713-33.65-109.556-80h153.328
	c9.152,0,18.196,1.468,26.879,4.362l89.209,29.736c11.748,3.916,23.983,5.902,36.366,5.902h90.884
	C411.006,404.496,379.782,420.015,345,420.015z M460,305.015c0,15.961-3.268,31.171-9.171,45H341.228
	c-9.152,0-18.195-1.468-26.879-4.362l-89.21-29.736c-11.748-3.916-23.983-5.901-36.366-5.901H30.107c-0.071-1.659-0.107-50-0.107-50
	h158.772c9.152,0,18.196,1.468,26.879,4.362l89.209,29.736c11.748,3.916,23.983,5.902,36.366,5.902H460V305.015z M460,270.015
	H341.228c-9.152,0-18.195-1.468-26.879-4.362l-89.21-29.736c-11.748-3.916-23.983-5.901-36.366-5.901h-30.279
	c-6.969-34.191-37.274-60-73.493-60H30v-100h15c5.256,0,10.115,2.679,12.682,6.99c15.111,25.387,45.481,37.022,73.859,28.288
	c0.065-0.02,0.13-0.041,0.195-0.062l107.132-34.576c5.472-1.65,11.301-0.102,15.165,3.984l20.797,22.289l-35.401,14.16
	c-7.692,3.077-11.433,11.807-8.356,19.498s11.804,11.433,19.499,8.356l46.213-18.485l35.122,37.64l-32.478,12.991
	c-7.691,3.077-11.433,11.807-8.355,19.498c3.076,7.691,11.803,11.433,19.498,8.356l50-20c2.437-0.975,4.477-2.517,6.029-4.414
	l48.332,11.589c24.586,10.75,41.634,33.849,44.605,60.554C459.845,249.429,460,270.015,460,270.015z"/>
<g>
</g>
<g>
</g>
<g>
</g>
<g>
</g>
<g>
</g>
<g>
</g>
<g>
</g>
<g>
</g>
<g>
</g>
<g>
</g>
<g>
</g>
<g>
</g>
<g>
</g>
<g>
</g>
<g>
</g>
</svg>
