<?xml version="1.0" encoding="iso-8859-1"?>
<!-- Generator: Adobe Illustrator 19.0.0, SVG Export Plug-In . SVG Version: 6.00 Build 0)  -->
<svg version="1.1" id="Layer_1" xmlns="http://www.w3.org/2000/svg" xmlns:xlink="http://www.w3.org/1999/xlink" x="0px" y="0px"
	 viewBox="0 0 512 512" style="enable-background:new 0 0 512 512;" xml:space="preserve">
<path style="fill:#A4A9AD;" d="M195.759,213.025l33.117,33.118l95.045-12.997l161.317,161.316c25.071,25.073,25.071,65.723,0,90.794
	L233.128,323.94l-74.144-74.143L195.759,213.025z"/>
<path style="fill:#C3C6C8;" d="M213.006,195.776l33.117,33.118l-12.995,95.046l161.316,161.316
	c25.071,25.071,65.722,25.071,90.793,0L323.919,233.148l-74.14-74.144L213.006,195.776z"/>
<g>
	<path style="fill:#F6C65B;" d="M235.465,202.395l27.577-27.579c6.984-6.986,6.984-18.418-0.001-25.405l-1.058-1.059
		c-17.994-17.995-12.809-50.704-11.742-63.996l-0.014-0.023c2.193-20.031-4.377-40.84-19.736-56.198
		c-26.882-26.881-70.464-26.882-97.347,0c-26.879,26.88-26.879,70.463,0,97.345l76.914,76.915
		C217.045,209.382,228.478,209.38,235.465,202.395z M155.421,50.411c14.579-14.579,38.216-14.579,52.795-0.001
		c14.581,14.579,14.577,38.216,0,52.795c-14.581,14.578-38.214,14.579-52.795,0C140.842,88.626,140.842,64.989,155.421,50.411z"/>
	<path style="fill:#F6C65B;" d="M202.375,210.077l-76.911-76.913c-26.881-26.881-70.466-26.881-97.345-0.001
		c-26.882,26.882-26.882,70.466-0.002,97.347c15.359,15.359,36.167,21.925,56.199,19.735l0.024,0.014
		c13.292-1.065,45.998-6.251,63.994,11.744l1.059,1.059c6.987,6.986,18.419,6.986,25.406,0l27.579-27.579
		C209.363,228.496,209.363,217.064,202.375,210.077z M103.187,155.439c14.581,14.579,14.578,38.214,0,52.794
		c-14.578,14.579-38.215,14.581-52.795,0.001c-14.577-14.579-14.577-38.216,0.002-52.795
		C64.971,140.86,88.608,140.86,103.187,155.439z"/>
</g>
<circle style="fill:#5C6670;" cx="302.042" cy="302.053" r="25.499"/>
<path d="M181.818,122.114c12.101,0,23.479-4.713,32.037-13.271c17.664-17.666,17.664-46.41,0-64.073
	c-8.557-8.557-19.934-13.269-32.035-13.269c-12.102,0-23.481,4.713-32.037,13.271c-17.664,17.664-17.664,46.407,0,64.073
	C158.34,117.402,169.717,122.114,181.818,122.114z M161.06,56.05c5.545-5.545,12.917-8.598,20.76-8.598
	c7.841,0,15.213,3.054,20.757,8.598c11.446,11.445,11.446,30.069,0,41.516c-5.546,5.545-12.919,8.598-20.76,8.598
	c-7.841,0-15.213-3.054-20.757-8.598C149.614,86.12,149.614,67.496,161.06,56.05z M76.79,136.53
	c-12.102,0-23.48,4.713-32.035,13.269c-17.664,17.663-17.666,46.407-0.002,64.074c8.558,8.557,19.936,13.269,32.036,13.269
	c12.102,0,23.48-4.714,32.036-13.27c8.557-8.558,13.269-19.934,13.271-32.035c0.001-12.102-4.713-23.48-13.271-32.036
	C100.269,141.243,88.892,136.53,76.79,136.53z M97.548,202.593c-5.544,5.545-12.916,8.599-20.757,8.599s-15.213-3.054-20.757-8.597
	c-11.445-11.448-11.445-30.071,0.002-41.517c5.543-5.544,12.915-8.598,20.756-8.598c7.842,0,15.213,3.054,20.757,8.598
	c5.545,5.544,8.598,12.916,8.598,20.757C106.147,189.677,103.092,197.049,97.548,202.593z M490.877,388.823L329.559,227.506
	l-0.001,0.001l-55.328-55.33c3.957-9.43,2.115-20.738-5.55-28.405l-1.059-1.06c-13.648-13.648-11.164-39.488-9.83-53.37
	c0.155-1.606,0.293-3.066,0.397-4.349c0.009-0.098,0.015-0.197,0.019-0.295c2.38-23.129-5.65-45.776-22.077-62.202
	C221.622,7.99,202.334,0,181.818,0s-39.804,7.99-54.312,22.497c-25.15,25.151-29.169,63.545-12.074,92.939
	c-11.607-6.781-24.843-10.409-38.642-10.409c-20.516,0-39.804,7.99-54.31,22.496c-29.948,29.949-29.949,78.678-0.002,108.625
	c14.498,14.498,33.78,22.481,54.297,22.481c2.625,0,5.277-0.136,7.892-0.404c0.103-0.004,0.207-0.011,0.311-0.019
	c1.283-0.103,2.743-0.243,4.35-0.398c5.037-0.485,11.305-1.087,18.063-1.087c16.408,0,27.956,3.571,35.304,10.919l1.059,1.058
	c4.886,4.885,11.4,7.575,18.342,7.575c3.521,0,6.93-0.694,10.074-2.014l55.318,55.317l161.315,161.316
	C402.874,504.965,421.356,512,439.839,512c18.483,0,36.966-7.035,51.036-21.106C519.018,462.753,519.018,416.964,490.877,388.823z
	 M138.783,33.776c11.496-11.495,26.779-17.826,43.034-17.826c16.256,0,31.539,6.331,43.035,17.826
	c13.109,13.109,19.468,31.22,17.446,49.69c-0.026,0.232-0.04,0.465-0.045,0.696c-0.093,1.099-0.211,2.323-0.338,3.655
	c-1.587,16.499-4.538,47.208,14.426,66.174l1.059,1.059c3.894,3.896,3.895,10.234,0.001,14.129l-27.576,27.578
	c-1.874,1.873-4.382,2.904-7.064,2.904c-0.001,0-0.001,0-0.001,0c-2.683,0-5.192-1.031-7.065-2.903l-76.913-76.914
	C115.056,96.113,115.056,57.503,138.783,33.776z M169.16,257.421c-1.873,1.873-4.381,2.904-7.064,2.904s-5.191-1.031-7.065-2.905
	l-1.058-1.057c-10.49-10.49-25.726-15.59-46.582-15.59c-7.522,0-14.497,0.67-19.589,1.16c-1.324,0.128-2.542,0.245-3.637,0.337
	c-0.239,0.004-0.479,0.02-0.718,0.046c-2.207,0.241-4.451,0.364-6.672,0.364c-16.256,0-31.534-6.325-43.019-17.81
	c-23.73-23.728-23.728-62.338,0.001-86.068c11.494-11.495,26.776-17.825,43.031-17.825c16.256,0,31.54,6.331,43.034,17.826
	l76.913,76.913c1.874,1.874,2.905,4.382,2.905,7.065c0.001,2.682-1.03,5.189-2.903,7.063L169.16,257.421z M227.403,306.937
	l-42.602-42.601l23.214-23.214c0.769-0.769,1.477-1.582,2.134-2.427l13.087,13.087c1.506,1.506,3.539,2.336,5.639,2.336
	c0.359,0,0.72-0.024,1.081-0.073l4.768-0.652L227.403,306.937z M236.967,236.987l-5.251,0.718l-16.154-16.154
	c-0.118-2.555-0.604-5.041-1.429-7.399c2.356,0.825,4.842,1.31,7.398,1.429l16.153,16.154L236.967,236.987z M400.083,479.616
	L241.566,321.099l12.458-91.125c0.338-2.47-0.499-4.956-2.263-6.719l-13.084-13.085c0.845-0.658,1.659-1.366,2.428-2.135
	l23.211-23.213l53.352,53.353l157.2,245.671C452.812,501.432,420.49,500.024,400.083,479.616z M486.097,471.801L370.244,290.748
	L479.598,400.1C499.076,419.579,501.232,449.903,486.097,471.801z"/>
<g>
</g>
<g>
</g>
<g>
</g>
<g>
</g>
<g>
</g>
<g>
</g>
<g>
</g>
<g>
</g>
<g>
</g>
<g>
</g>
<g>
</g>
<g>
</g>
<g>
</g>
<g>
</g>
<g>
</g>
</svg>
