<?xml version="1.0" encoding="iso-8859-1"?>
<!-- Generator: Adobe Illustrator 19.0.0, SVG Export Plug-In . SVG Version: 6.00 Build 0)  -->
<svg version="1.1" id="Layer_1" xmlns="http://www.w3.org/2000/svg" xmlns:xlink="http://www.w3.org/1999/xlink" x="0px" y="0px"
	 viewBox="0 0 512 512" style="enable-background:new 0 0 512 512;" xml:space="preserve">
<g>
	<g>
		<path d="M385.73,303.794H266.622v-19.435c40.845-6.677,73.164-39.037,79.788-79.893c0-0.001,0-0.003,0-0.004h11.411v-31.347
			h-38.955V86.465c0-9.506,7.734-17.241,17.241-17.241V37.878c-26.792,0-48.588,21.797-48.588,48.588v86.649h-20.898V83.611h-31.347
			v89.504h-20.898V86.465c0-26.791-21.795-48.588-48.588-48.588v31.347c9.506,0,17.241,7.734,17.241,17.241v86.649h-38.955v31.347
			h11.411c0,0.001,0,0.003,0.001,0.004c6.625,40.856,38.943,73.216,79.788,79.893v19.435H116.168H93.87v31.347h23.176h15.798h236.21
			h15.799h23.176v-31.347H385.73z"/>
	</g>
</g>
<g>
	<g>
		<path d="M297.572,480.653V446.14c36.822-13.615,66.111-42.872,79.768-79.653h-16.844h-17.335H158.736h-17.335h-16.844
			c13.657,36.78,42.945,66.038,79.768,79.653v34.513H93.867V512h110.459h93.247h120.56v-31.347H297.572z"/>
	</g>
</g>
<g>
	<g>
		<rect x="353.353" y="111.355" width="31.347" height="21.595"/>
	</g>
</g>
<g>
	<g>
		<rect x="117.206" y="111.355" width="31.347" height="21.595"/>
	</g>
</g>
<g>
	<g>
		<rect x="353.353" y="70.531" width="31.347" height="21.595"/>
	</g>
</g>
<g>
	<g>
		<rect x="117.206" y="70.531" width="31.347" height="21.595"/>
	</g>
</g>
<g>
	<g>
		<rect x="235.279" y="42.318" width="31.347" height="22.465"/>
	</g>
</g>
<g>
	<g>
		<rect x="235.279" width="31.347" height="24.033"/>
	</g>
</g>
<g>
</g>
<g>
</g>
<g>
</g>
<g>
</g>
<g>
</g>
<g>
</g>
<g>
</g>
<g>
</g>
<g>
</g>
<g>
</g>
<g>
</g>
<g>
</g>
<g>
</g>
<g>
</g>
<g>
</g>
</svg>
