<?xml version="1.0" encoding="iso-8859-1"?>
<!-- Generator: Adobe Illustrator 19.0.0, SVG Export Plug-In . SVG Version: 6.00 Build 0)  -->
<svg version="1.1" id="Layer_1" xmlns="http://www.w3.org/2000/svg" xmlns:xlink="http://www.w3.org/1999/xlink" x="0px" y="0px"
	 viewBox="0 0 512 512" style="enable-background:new 0 0 512 512;" xml:space="preserve">
<g>
	<g>
		<path d="M151.165,33.29v114.228v152.733h8.777h192.115v0h8.882V146.432V33.29H151.165z M220.369,259.323h-32.183v-32.193h32.183
			V259.323z M220.369,208.645h-32.183v-32.193h32.183V208.645z M220.369,157.968h-32.183v-32.193h32.183V157.968z M220.369,107.29
			h-32.183V75.097h32.183V107.29z M272.091,259.323h-32.183v-32.193h32.183V259.323z M272.091,208.645h-32.183v-32.193h32.183
			V208.645z M272.091,157.968h-32.183v-32.193h32.183V157.968z M272.091,107.29h-32.183V75.097h32.183V107.29z M323.814,259.323
			h-32.183v-32.193h32.183V259.323z M323.814,208.645h-32.183v-32.193h32.183V208.645z M323.814,157.968h-32.183v-32.193h32.183
			V157.968z M323.814,107.29h-32.183V75.097h32.183V107.29z"/>
	</g>
</g>
<g>
	<g>
		<path d="M460.727,447.363V146.432h-68.441v15.673v15.674v268.497v1.087h-24.555h-6.792V331.598h-8.882H159.943h-8.777v115.764
			h-6.896h-24.451V178.866v-15.674v-15.673H51.273v299.844H0v31.347h51.273h68.545h40.124h232.343H512v-31.347H460.727z
			 M281.6,447.363h-51.2v-83.884h51.2V447.363z"/>
	</g>
</g>
<g>
</g>
<g>
</g>
<g>
</g>
<g>
</g>
<g>
</g>
<g>
</g>
<g>
</g>
<g>
</g>
<g>
</g>
<g>
</g>
<g>
</g>
<g>
</g>
<g>
</g>
<g>
</g>
<g>
</g>
</svg>
