<?xml version="1.0" encoding="iso-8859-1"?>
<!-- Generator: Adobe Illustrator 19.0.0, SVG Export Plug-In . SVG Version: 6.00 Build 0)  -->
<svg version="1.1" id="Layer_1" xmlns="http://www.w3.org/2000/svg" xmlns:xlink="http://www.w3.org/1999/xlink" x="0px" y="0px"
	 viewBox="0 0 511.999 511.999" style="enable-background:new 0 0 511.999 511.999;" xml:space="preserve">
<g>
	<polyline style="fill:#F7B239;" points="265.198,503.383 251.485,503.383 87.26,503.383 87.26,437.613 87.26,371.831 
		87.26,188.714 265.198,188.714 265.198,303.775 	"/>
	<rect x="251.482" y="303.769" style="fill:#F7B239;" width="177.949" height="199.62"/>
</g>
<g>
	<path style="fill:#31AF0E;" d="M251.479,457.662v45.719H87.265C166.3,468.193,179.943,486.694,251.479,457.662z"/>
	<path style="fill:#31AF0E;" d="M251.479,326.11v65.782c-71.536,29.032-85.179,10.531-164.214,45.719v-65.782
		C166.3,336.641,179.943,355.142,251.479,326.11z"/>
	<path style="fill:#31AF0E;" d="M265.202,188.712v65.782c-83.835,37.324-94.114,14.24-177.937,51.564v-65.77
		C171.089,202.964,181.367,226.036,265.202,188.712z"/>
</g>
<g>
	<path style="fill:#F95428;" d="M429.423,374.392c-13.54-1.539-24.071-13.035-24.071-26.988c0-13.953,10.531-25.449,24.071-26.988"
		/>
	<path style="fill:#F95428;" d="M186.629,41.751c-0.424,0-0.852-0.031-1.284-0.095c-4.705-0.703-7.948-5.088-7.245-9.791
		l3.666-24.522c0.703-4.704,5.089-7.951,9.792-7.245c4.705,0.703,7.948,5.088,7.245,9.791l-3.666,24.522
		C194.498,38.682,190.823,41.751,186.629,41.751z"/>
	<path style="fill:#F95428;" d="M208.886,55.125c-2.638,0-5.241-1.207-6.931-3.491c-2.83-3.824-2.024-9.217,1.801-12.047
		l19.932-14.748c3.824-2.83,9.218-2.024,12.047,1.801c2.83,3.824,2.024,9.217-1.801,12.047l-19.932,14.748
		C212.462,54.575,210.666,55.125,208.886,55.125z"/>
	<path style="fill:#F95428;" d="M134.402,110.237c-2.638,0-5.241-1.207-6.931-3.491c-2.83-3.824-2.024-9.217,1.801-12.047
		l19.932-14.748c3.823-2.83,9.217-2.024,12.047,1.801c2.83,3.824,2.024,9.217-1.801,12.047l-19.932,14.748
		C137.978,109.687,136.182,110.237,134.402,110.237z"/>
	<path style="fill:#F95428;" d="M239.693,83.99c-0.424,0-0.852-0.031-1.284-0.095l-24.522-3.666
		c-4.705-0.703-7.948-5.088-7.245-9.791c0.703-4.704,5.084-7.949,9.791-7.245l24.522,3.666c4.705,0.703,7.948,5.088,7.245,9.791
		C247.562,80.921,243.887,83.99,239.693,83.99z"/>
	<path style="fill:#F95428;" d="M148.056,70.292c-0.424,0-0.852-0.031-1.284-0.095l-24.522-3.666
		c-4.705-0.703-7.948-5.088-7.245-9.791c0.704-4.704,5.085-7.951,9.791-7.245l24.522,3.666c4.705,0.703,7.948,5.088,7.245,9.791
		C155.926,67.224,152.25,70.292,148.056,70.292z"/>
	<path style="fill:#F95428;" d="M216.539,122.515c-2.638,0-5.241-1.207-6.931-3.491L194.86,99.092
		c-2.829-3.824-2.022-9.217,1.801-12.047c3.825-2.83,9.217-2.024,12.047,1.801l14.748,19.932c2.829,3.824,2.022,9.217-1.801,12.047
		C220.115,121.965,218.319,122.515,216.539,122.515z"/>
	<path style="fill:#F95428;" d="M161.428,48.032c-2.638,0-5.241-1.207-6.931-3.491l-14.748-19.932
		c-2.829-3.824-2.022-9.217,1.801-12.047s9.217-2.024,12.047,1.801l14.748,19.932c2.829,3.824,2.022,9.217-1.801,12.047
		C165.004,47.481,163.208,48.032,161.428,48.032z"/>
</g>
<g>
	<path style="fill:#F7B239;" d="M345.48,156.804c-0.424,0-0.852-0.031-1.284-0.095c-4.705-0.703-7.948-5.088-7.245-9.791
		l3.666-24.522c0.703-4.704,5.084-7.949,9.792-7.245c4.705,0.703,7.948,5.088,7.245,9.791l-3.666,24.522
		C353.349,153.736,349.674,156.804,345.48,156.804z"/>
	<path style="fill:#F7B239;" d="M367.736,170.179c-2.638,0-5.241-1.207-6.931-3.491c-2.83-3.824-2.024-9.217,1.801-12.047
		l19.932-14.748c3.823-2.83,9.217-2.024,12.047,1.801c2.83,3.824,2.024,9.217-1.801,12.047l-19.932,14.748
		C371.311,169.629,369.515,170.179,367.736,170.179z"/>
	<path style="fill:#F7B239;" d="M293.253,225.29c-2.638,0-5.241-1.207-6.931-3.491c-2.83-3.824-2.024-9.217,1.801-12.047
		l19.932-14.748c3.823-2.83,9.217-2.024,12.047,1.801c2.83,3.824,2.024,9.217-1.801,12.047L298.369,223.6
		C296.828,224.741,295.031,225.29,293.253,225.29z"/>
	<path style="fill:#F7B239;" d="M398.544,199.044c-0.424,0-0.852-0.031-1.284-0.095l-24.522-3.666
		c-4.705-0.703-7.948-5.088-7.245-9.792c0.704-4.704,5.086-7.951,9.792-7.245l24.522,3.666c4.705,0.703,7.948,5.088,7.245,9.792
		C406.413,195.975,402.738,199.044,398.544,199.044z"/>
	<path style="fill:#F7B239;" d="M306.906,185.346c-0.424,0-0.852-0.031-1.284-0.095l-24.524-3.666
		c-4.705-0.703-7.948-5.088-7.245-9.791c0.703-4.705,5.089-7.949,9.792-7.245l24.523,3.666c4.705,0.703,7.948,5.088,7.245,9.792
		C314.775,182.277,311.1,185.346,306.906,185.346z"/>
	<path style="fill:#F7B239;" d="M375.389,237.569c-2.638,0-5.241-1.207-6.931-3.491l-14.748-19.932
		c-2.829-3.824-2.022-9.217,1.801-12.047c3.824-2.83,9.217-2.024,12.047,1.801l14.748,19.932c2.829,3.824,2.022,9.217-1.801,12.047
		C378.964,237.019,377.169,237.569,375.389,237.569z"/>
	<path style="fill:#F7B239;" d="M320.279,163.086c-2.638,0-5.24-1.207-6.931-3.49L298.6,139.663
		c-2.83-3.824-2.024-9.217,1.801-12.047c3.823-2.83,9.217-2.024,12.047,1.801l14.748,19.932c2.83,3.824,2.024,9.217-1.801,12.047
		C323.855,162.536,322.059,163.086,320.279,163.086z"/>
</g>
<circle style="fill:#F95428;" cx="299.314" cy="356.631" r="18.818"/>
<g>
	<path style="fill:#31AF0E;" d="M342.533,503.383c1.011-2.308,1.573-4.858,1.573-7.534c0-10.393-8.429-18.811-18.823-18.811
		c-10.393,0-18.823,8.418-18.823,18.811c0,2.676,0.563,5.225,1.573,7.534"/>
	<circle style="fill:#31AF0E;" cx="347.272" cy="418.681" r="27.159"/>
</g>
<g>
	<path style="fill:#333333;" d="M326.743,356.632c0-15.126-12.305-27.431-27.431-27.431c-15.126,0-27.431,12.305-27.431,27.431
		c0,15.126,12.305,27.431,27.431,27.431S326.743,371.757,326.743,356.632z M299.313,366.836c-5.626,0-10.205-4.578-10.205-10.205
		s4.578-10.205,10.205-10.205c5.626,0,10.205,4.578,10.205,10.205S304.939,366.836,299.313,366.836z"/>
	<path style="fill:#333333;" d="M347.277,382.904c-19.725,0-35.772,16.048-35.772,35.772c0,19.724,16.048,35.772,35.772,35.772
		c19.724,0,35.772-16.047,35.772-35.772C383.049,398.951,367.002,382.904,347.277,382.904z M347.277,437.222
		c-10.227,0-18.546-8.319-18.546-18.546s8.32-18.546,18.546-18.546c10.226,0,18.546,8.32,18.546,18.546
		S357.504,437.222,347.277,437.222z"/>
	<path style="fill:#333333;" d="M438.221,494.772h-0.181v-182.39h0.181c4.757,0,8.613-3.856,8.613-8.613s-3.856-8.613-8.613-8.613
		H338.44c0.916-2.024,2.174-3.815,3.675-5.941c3.773-5.344,8.467-11.994,8.467-24.489c0-12.496-4.695-19.147-8.467-24.491
		c-3.201-4.534-5.314-7.529-5.314-14.557c0-7.028,2.114-10.023,5.314-14.557c3.773-5.345,8.467-11.995,8.467-24.491
		c0-4.757-3.856-8.613-8.613-8.613c-4.757,0-8.613,3.856-8.613,8.613c0,7.028-2.114,10.023-5.314,14.557
		c-3.773,5.345-8.467,11.995-8.467,24.491c0,12.496,4.695,19.147,8.467,24.491c3.201,4.534,5.314,7.529,5.314,14.557
		c0,7.027-2.114,10.021-5.314,14.554c-2.794,3.957-6.09,8.64-7.614,15.876H273.81V188.714c0-4.757-3.856-8.613-8.613-8.613H179.59
		c0.916-2.024,2.174-3.814,3.674-5.939c3.773-5.344,8.467-11.994,8.467-24.489c0-12.496-4.695-19.147-8.467-24.491
		c-3.201-4.534-5.314-7.529-5.314-14.557s2.114-10.023,5.314-14.557c3.773-5.345,8.467-11.995,8.467-24.491
		c0-4.757-3.856-8.613-8.613-8.613s-8.613,3.856-8.613,8.613c0,7.028-2.114,10.023-5.314,14.557
		c-3.773,5.345-8.467,11.995-8.467,24.491s4.695,19.147,8.467,24.491c3.201,4.534,5.314,7.529,5.314,14.557
		c0,7.027-2.114,10.021-5.314,14.554c-2.794,3.957-6.089,8.64-7.613,15.874H87.26c-4.757,0-8.613,3.856-8.613,8.613v306.058h-4.869
		c-4.757,0-8.613,3.856-8.613,8.613s3.856,8.613,8.613,8.613h364.443c4.757,0,8.613-3.856,8.613-8.613
		S442.978,494.772,438.221,494.772z M420.813,361.795c-4.196-3.417-6.848-8.616-6.848-14.391c0-5.775,2.652-10.974,6.848-14.391
		V361.795z M95.873,245.913c37.632-16.23,59.044-19.477,81.644-22.897c21.376-3.235,43.414-6.574,79.067-21.238v47.082
		c-37.632,16.23-59.044,19.478-81.645,22.898c-21.376,3.235-43.414,6.574-79.066,21.238V245.913z M242.866,386.047
		c-29.492,11.449-48.194,14.282-67.925,17.267c-21.375,3.234-43.412,6.572-79.069,21.239v-47.089
		c37.637-16.233,59.049-19.481,81.646-22.9c18.467-2.794,37.49-5.676,65.347-15.888v47.371H242.866z M95.873,443.246
		c37.637-16.233,59.049-19.481,81.646-22.9c18.467-2.794,37.49-5.676,65.347-15.888v47.36
		c-29.492,11.449-48.194,14.282-67.925,17.267c-21.375,3.234-43.412,6.572-79.069,21.239v-47.078H95.873z M134.904,494.77
		c16.211-4.656,29.205-6.624,42.616-8.653c18.467-2.794,37.49-5.676,65.347-15.888v24.542H134.904z M251.48,295.156h-8.795
		c-4.757,0-8.613,3.856-8.613,8.613s3.856,8.613,8.613,8.613h0.181v7.882c-29.492,11.449-48.194,14.282-67.925,17.267
		c-21.375,3.234-43.412,6.572-79.069,21.239v-47.082c37.632-16.23,59.044-19.477,81.644-22.897
		c21.376-3.235,43.414-6.574,79.067-21.238v27.604H251.48z M217.561,197.327c-16.212,4.656-29.208,6.625-42.622,8.656
		c-21.376,3.235-43.414,6.574-79.066,21.238v-29.892h121.687V197.327z M315.131,494.772c0.541-5.119,4.887-9.121,10.151-9.121
		s9.61,4.002,10.151,9.121H315.131z M352.692,494.772c-0.568-14.624-12.642-26.347-27.408-26.347s-26.84,11.723-27.408,26.347
		h-32.677v-0.002h-5.104V312.382h160.72v1.208c-14.145,4.875-24.074,18.275-24.074,33.813c0,15.538,9.93,28.938,24.074,33.813
		v113.555H352.692z"/>
</g>
<g>
	<circle style="fill:#F95428;" cx="365.107" cy="353.887" r="8.613"/>
	<circle style="fill:#F95428;" cx="397.642" cy="442.373" r="8.613"/>
	<circle style="fill:#F95428;" cx="286.245" cy="453.8" r="8.613"/>
</g>
<g>
</g>
<g>
</g>
<g>
</g>
<g>
</g>
<g>
</g>
<g>
</g>
<g>
</g>
<g>
</g>
<g>
</g>
<g>
</g>
<g>
</g>
<g>
</g>
<g>
</g>
<g>
</g>
<g>
</g>
</svg>
