<?xml version="1.0" encoding="iso-8859-1"?>
<!-- Generator: Adobe Illustrator 19.0.0, SVG Export Plug-In . SVG Version: 6.00 Build 0)  -->
<svg version="1.1" id="Layer_1" xmlns="http://www.w3.org/2000/svg" xmlns:xlink="http://www.w3.org/1999/xlink" x="0px" y="0px"
	 viewBox="0 0 512.001 512.001" style="enable-background:new 0 0 512.001 512.001;" xml:space="preserve">
<g>
	<g>
		<g>
			<path d="M503.383,343.335H320.156v-76.241c19.411-15.849,48.205-23.879,85.783-23.879h73.598
				c0.941,0.123,1.916,0.091,2.895-0.116c4.52-0.956,7.481-5.305,6.714-9.861c-9.553-56.728-39.041-108.653-83.033-146.208
				c-44.489-37.979-101.25-58.896-159.825-58.896c-65.785,0-127.634,25.619-174.151,72.136C25.619,146.787,0,208.636,0,274.422
				v91.127c0,31.958,26,57.958,57.958,57.958h9.862c6.133,0,11.123,4.99,11.123,11.123c0,15.635,12.72,28.355,28.355,28.355h106.221
				c38.335,0,69.997-29.072,74.127-66.324h15.278v28.997h0.205c1.071,21.365,6.662,36.533,17.033,46.187
				c11.576,10.775,26.569,12.022,36.838,12.022h94.153c30.708,0,60.848-32.711,60.848-66.039v-65.875
				C512,347.193,508.142,343.335,503.383,343.335z M320.156,246.01v-2.795h4.847C323.352,244.112,321.734,245.043,320.156,246.01z
				 M254.458,343.335l-8.54-13.483l57.003-72.589v2.143h0.001c-0.564,0.554-1.127,1.106-1.676,1.674
				c-22.874,23.594-29.209,55.059-30.632,82.255H254.458z M270.395,368.498l-5.023-7.929h4.891
				C270.284,363.306,270.333,365.947,270.395,368.498z M302.923,286.99v56.345h-15.08
				C288.871,324.488,292.46,304.246,302.923,286.99z M302.924,379.427h-0.001h-14.971c-0.034-1.207-0.072-2.434-0.111-3.686
				c-0.146-4.712-0.302-9.814-0.348-15.173h15.432V379.427z M309.767,225.981v0.001c-2.645,0-5.143,1.214-6.776,3.295
				l-74.385,94.721c-2.254,2.871-2.455,6.848-0.503,9.932l37.192,58.724c1.166,1.842,2.97,3.142,5.022,3.699
				c-3.89,27.873-27.872,49.399-56.798,49.399H107.299c-6.133,0-11.122-4.99-11.122-11.122c0-15.635-12.72-28.356-28.356-28.356
				h-9.862c-22.456-0.001-40.725-18.269-40.725-40.725v-91.127c0-126.302,102.754-229.056,229.054-229.056
				c54.477,0,107.264,19.451,148.636,54.769c38.287,32.685,64.763,77.066,75.286,125.846H309.767z M320.156,360.568h114.984v18.859
				H320.156V360.568z M435.142,466.632h-0.001h-78.141c-17.825,0-36.842-3.772-36.842-48.806v-21.167h114.984V466.632z
				 M494.767,417.827c0,25.284-23.373,47.825-42.393,48.761V396.66h42.393V417.827z M494.767,379.427h-42.393v-18.859h42.393
				V379.427z"/>
			<path d="M179.076,325.426c-20.222,0-36.675,16.452-36.675,36.675s16.452,36.675,36.675,36.675
				c20.224,0,36.675-16.452,36.675-36.675C215.752,341.879,199.3,325.426,179.076,325.426z M179.076,381.543
				c-10.72,0-19.442-8.722-19.442-19.442s8.722-19.442,19.442-19.442c10.721,0,19.442,8.722,19.442,19.442
				S189.798,381.543,179.076,381.543z"/>
			<path d="M246.354,91.943c-2.654-1.543-5.926-1.558-8.594-0.039l-40.406,23.005c-14.081-10.542-31.229-16.302-48.946-16.302
				c-45.049,0-81.699,36.65-81.699,81.699c0,2.91,0.173,5.822,0.48,8.713l-10.938,6.227c-2.691,1.531-4.353,4.391-4.353,7.488
				v46.739c0,3.069,1.633,5.906,4.286,7.449c1.338,0.778,2.834,1.167,4.33,1.167c1.471,0,2.941-0.376,4.263-1.128l28.618-16.293
				c14.971,13.621,34.651,21.337,55.012,21.337c45.049,0,81.699-36.65,81.699-81.699c0-5.574-0.573-11.104-1.684-16.515
				l17.864-10.171c2.691-1.531,4.353-4.391,4.353-7.488V99.393C250.639,96.324,249.007,93.486,246.354,91.943z M148.409,115.84
				c11.378,0,22.458,3.016,32.177,8.618L83.963,179.47C84.414,144.308,113.142,115.84,148.409,115.84z M148.409,244.773
				c-14.154,0-27.889-4.729-39.039-13.199l103.076-58.686c0.281,2.454,0.429,4.93,0.429,7.419
				C212.874,215.853,183.956,244.773,148.409,244.773z M233.406,141.123L69.131,234.654v-26.909l164.276-93.531V141.123z"/>
		</g>
	</g>
</g>
<g>
</g>
<g>
</g>
<g>
</g>
<g>
</g>
<g>
</g>
<g>
</g>
<g>
</g>
<g>
</g>
<g>
</g>
<g>
</g>
<g>
</g>
<g>
</g>
<g>
</g>
<g>
</g>
<g>
</g>
</svg>
