<?xml version="1.0" encoding="iso-8859-1"?>
<!-- Generator: Adobe Illustrator 18.0.0, SVG Export Plug-In . SVG Version: 6.00 Build 0)  -->
<!DOCTYPE svg PUBLIC "-//W3C//DTD SVG 1.1//EN" "http://www.w3.org/Graphics/SVG/1.1/DTD/svg11.dtd">
<svg version="1.1" id="Capa_1" xmlns="http://www.w3.org/2000/svg" xmlns:xlink="http://www.w3.org/1999/xlink" x="0px" y="0px"
	 viewBox="0 0 441.79 441.79" style="enable-background:new 0 0 441.79 441.79;" xml:space="preserve">
<g>
	<path style="fill:#191918;" d="M211.271,141.076h65.545c8.461,0,15.344-6.884,15.344-15.345V72.243
		c0-8.461-6.883-15.345-15.344-15.345h-65.545c-8.461,0-15.345,6.884-15.345,15.345v53.488
		C195.926,134.192,202.81,141.076,211.271,141.076z M204.926,72.243c0-3.499,2.847-6.345,6.345-6.345h65.545
		c3.498,0,6.344,2.846,6.344,6.345v53.488c0,3.499-2.846,6.345-6.344,6.345h-65.545c-3.498,0-6.345-2.846-6.345-6.345V72.243z"/>
	<rect x="226.313" y="81.012" style="fill:#191918;" width="35.461" height="9"/>
	<rect x="226.313" y="103.707" style="fill:#191918;" width="35.461" height="9"/>
	<path style="fill:#191918;" d="M347.438,163.293v-9h-16.267V59.28c0-12.484-9.048-22.887-20.93-25.015V25.04
		c0-2.947-0.864-5.797-2.499-8.241c-1.634-2.444-3.933-4.331-6.651-5.458C282.899,3.816,263.705,0,244.042,0
		c-19.665,0-38.856,3.816-57.034,11.339c-5.568,2.293-9.166,7.671-9.166,13.701v9.227c-11.876,2.132-20.92,12.532-20.92,25.013V83.7
		h-35.569v13h-2.029c-13.769,0-24.971,11.202-24.971,24.971v191.358c0,14.061,11.439,25.5,25.5,25.5s25.5-11.439,25.5-25.5V158.77
		c0-7.298,4.894-13.465,11.569-15.417v263.335c-8.116,1.021-14.419,7.951-14.419,16.339v18.763H345.59v-18.763
		c0-8.389-6.303-15.319-14.419-16.339V163.293H347.438z M322.171,59.28v347.264h-11.93V43.5
		C317.117,45.459,322.171,51.784,322.171,59.28z M190.442,19.658C207.53,12.586,225.563,9,244.042,9
		c18.477,0,36.514,3.586,53.607,10.657c1.066,0.442,1.97,1.183,2.612,2.145c0.642,0.959,0.98,2.079,0.98,3.238v381.504h-114.4V25.04
		C186.841,22.672,188.252,20.56,190.442,19.658z M177.841,43.502v363.042h-11.92V59.28
		C165.921,51.787,170.971,45.465,177.841,43.502z M130.352,92.7h25v18h-13.018c-6.607,0-11.982-5.375-11.982-11.982V92.7z
		 M136.352,158.77v154.258c0,9.098-7.402,16.5-16.5,16.5s-16.5-7.402-16.5-16.5V121.67c0-8.806,7.164-15.971,15.971-15.971h3.249
		c2.886,8.142,10.644,14,19.762,14h14.587v14.412C145.239,136.24,136.352,146.483,136.352,158.77z M336.59,423.027v9.763H151.502
		v-9.763c0-4.126,3.357-7.483,7.483-7.483h170.122C333.234,415.544,336.59,418.901,336.59,423.027z"/>
</g>
<g>
</g>
<g>
</g>
<g>
</g>
<g>
</g>
<g>
</g>
<g>
</g>
<g>
</g>
<g>
</g>
<g>
</g>
<g>
</g>
<g>
</g>
<g>
</g>
<g>
</g>
<g>
</g>
<g>
</g>
</svg>
