<?xml version="1.0" encoding="iso-8859-1"?>
<!-- Generator: Adobe Illustrator 19.0.0, SVG Export Plug-In . SVG Version: 6.00 Build 0)  -->
<svg version="1.1" id="Layer_1" xmlns="http://www.w3.org/2000/svg" xmlns:xlink="http://www.w3.org/1999/xlink" x="0px" y="0px"
	 viewBox="0 0 512 512" style="enable-background:new 0 0 512 512;" xml:space="preserve">
<path style="fill:#5A5D6F;" d="M301.439,57.167c0,0.576-0.012,1.163-0.035,1.751l-1.751,46.051l-0.212-0.012h-87.084h-0.012
	l-1.751-46.039c-0.975-25.757,19.635-47.167,45.404-47.167C281.181,11.751,301.439,32.197,301.439,57.167z"/>
<polygon style="fill:#E1EAF6;" points="299.653,104.968 298.054,146.883 213.943,146.883 212.345,104.957 212.357,104.957 
	299.441,104.957 "/>
<path style="fill:#9DA6BA;" d="M298.054,146.883l-9.095,238.467c-0.987,17.485-15.452,31.151-32.961,31.151
	s-31.973-13.666-32.961-31.151l-9.095-238.467H298.054z"/>
<path d="M255.999,512c6.49,0,11.751-5.262,11.751-11.751v-73.573c18.155-4.94,31.834-21.032,32.942-40.663
	c0.004-0.072,0.007-0.142,0.011-0.215l12.443-326.409c0.029-0.746,0.045-1.491,0.045-2.222C313.189,25.645,287.533,0,255.999,0
	c-15.684,0-30.313,6.223-41.192,17.521c-10.882,11.302-16.548,26.162-15.954,41.843l12.444,326.434
	c0.002,0.073,0.006,0.143,0.011,0.215c1.108,19.631,14.786,35.723,32.942,40.663v73.573C244.248,506.738,249.509,512,255.999,512z
	 M224.557,116.707h62.885l-0.703,18.425h-61.479L224.557,116.707z M231.736,33.822c6.408-6.656,15.024-10.321,24.263-10.321
	c18.577,0,33.689,15.103,33.689,33.666c0,0.421-0.008,0.852-0.026,1.304l-1.324,34.735h-64.677l-1.324-34.734
	C221.987,49.235,225.325,40.48,231.736,33.822z M234.776,384.783l-8.621-226.149h59.689l-8.621,226.152
	c-0.684,11.203-9.987,19.966-21.224,19.966C244.762,404.751,235.458,395.987,234.776,384.783z"/>
<path d="M267.738,262.933l0.013-4.184c0.02-6.489-5.226-11.767-11.715-11.786c-0.013,0-0.025,0-0.036,0
	c-6.473,0-11.731,5.237-11.751,11.715l-0.013,4.184c-0.02,6.489,5.226,11.767,11.715,11.786c0.013,0,0.025,0,0.036,0
	C262.461,274.648,267.718,269.41,267.738,262.933z"/>
<path d="M255.987,239.842c6.49,0,11.751-5.262,11.751-11.751V198.88c0-6.489-5.261-11.751-11.751-11.751
	c-6.49,0-11.751,5.262-11.751,11.751v29.212C244.237,234.582,249.497,239.842,255.987,239.842z"/>
<g>
</g>
<g>
</g>
<g>
</g>
<g>
</g>
<g>
</g>
<g>
</g>
<g>
</g>
<g>
</g>
<g>
</g>
<g>
</g>
<g>
</g>
<g>
</g>
<g>
</g>
<g>
</g>
<g>
</g>
</svg>
