<?xml version="1.0" encoding="iso-8859-1"?>
<!-- Generator: Adobe Illustrator 19.0.0, SVG Export Plug-In . SVG Version: 6.00 Build 0)  -->
<svg version="1.1" id="Layer_1" xmlns="http://www.w3.org/2000/svg" xmlns:xlink="http://www.w3.org/1999/xlink" x="0px" y="0px"
	 viewBox="0 0 512 512" style="enable-background:new 0 0 512 512;" xml:space="preserve">
<g>
	<g>
		<path d="M331.204,149.98l-10.343-62.059h-49.345V0h-31.03v87.921h-49.345l-10.343,62.059h-43.745v15.515
			c0,22.524,12.592,42.785,35.456,57.047c10.594,6.609,22.973,11.675,36.75,15.126L203.982,512h104.036l-5.276-274.332
			c13.776-3.452,26.156-8.517,36.75-15.126c22.865-14.263,35.457-34.523,35.457-57.047V149.98H331.204z M217.426,118.952h77.148
			l5.172,31.028h-87.491L217.426,118.952z M235.614,480.97l4.575-237.899h31.622l4.575,237.899H235.614z M256,212.04
			c-39.752,0-71.749-12.584-83.289-31.03h166.58C327.749,199.457,295.752,212.04,256,212.04z"/>
	</g>
</g>
<g>
</g>
<g>
</g>
<g>
</g>
<g>
</g>
<g>
</g>
<g>
</g>
<g>
</g>
<g>
</g>
<g>
</g>
<g>
</g>
<g>
</g>
<g>
</g>
<g>
</g>
<g>
</g>
<g>
</g>
</svg>
