<?xml version="1.0" encoding="iso-8859-1"?>
<!-- Generator: Adobe Illustrator 19.0.0, SVG Export Plug-In . SVG Version: 6.00 Build 0)  -->
<svg version="1.1" id="Layer_1" xmlns="http://www.w3.org/2000/svg" xmlns:xlink="http://www.w3.org/1999/xlink" x="0px" y="0px"
	 viewBox="0 0 405.82 405.82" style="enable-background:new 0 0 405.82 405.82;" xml:space="preserve">
<g>
	<g>
		<g>
			<polygon points="315.655,86.2 232.155,169.7 367.675,138.21 			"/>
			<polygon points="375.515,123.43 375.515,26.34 326.975,74.88 			"/>
			<polygon points="364.205,15.03 267.115,15.03 315.655,63.57 			"/>
			<path d="M198.725,203.129v22.441c0,9.51-7.74,17.25-17.25,17.25h-35.51c-18.33,0-33.24,14.91-33.24,33.25v0.5
				c0,18.34,14.91,33.25,33.24,33.25h29.51c9.51,0,17.25,7.74,17.25,17.25v3.5c0,9.51-7.74,17.25-17.25,17.25h-44.51
				c-18.33,0-33.24,14.91-33.24,33.25v16.75c0,4.42,3.58,8,8,8c4.42,0,8-3.58,8-8v-16.75c0-9.51,7.729-17.25,17.24-17.25h44.51
				c18.33,0,33.25-14.91,33.25-33.25v-3.5c0-18.34-14.92-33.25-33.25-33.25h-29.51c-9.51,0-17.24-7.74-17.24-17.25v-0.5
				c0-9.51,7.729-17.25,17.24-17.25h35.51c18.33,0,33.25-14.91,33.25-33.25v-35.394l-3.971,0.923L198.725,203.129z"/>
			<polygon points="252.335,22.87 220.845,158.38 304.345,74.88 			"/>
			<path d="M91.725,116.82c-4.51,0-8.89,1.25-12.66,3.61c-1.98,1.23-4.4,1.54-6.63,0.85c-2.231-0.7-4.04-2.34-4.96-4.48
				c-4.43-10.32-14.54-16.98-25.75-16.98c-15.44,0-28,12.56-28,28c0,2.75,0.39,5.43,1.16,8h100.31
				C112.895,124.98,103.245,116.82,91.725,116.82z"/>
			<path d="M201.095,36c-2.3-10.84-11.95-19-23.47-19c-4.51,0-8.89,1.25-12.66,3.61c-1.98,1.23-4.41,1.54-6.63,0.84
				c-2.23-0.69-4.04-2.33-4.96-4.47C148.945,6.66,138.835,0,127.625,0c-15.44,0-28,12.56-28,28c0,2.75,0.39,5.43,1.15,8H201.095z"/>
			<path d="M368.625,271c-4.51,0-8.89,1.25-12.66,3.61c-1.98,1.23-4.41,1.54-6.63,0.84c-2.23-0.69-4.04-2.33-4.96-4.47
				c-4.43-10.32-14.54-16.98-25.75-16.98c-15.44,0-28,12.56-28,28c0,2.75,0.39,5.43,1.15,8h100.32
				C389.795,279.16,380.145,271,368.625,271z"/>
		</g>
	</g>
</g>
<g>
</g>
<g>
</g>
<g>
</g>
<g>
</g>
<g>
</g>
<g>
</g>
<g>
</g>
<g>
</g>
<g>
</g>
<g>
</g>
<g>
</g>
<g>
</g>
<g>
</g>
<g>
</g>
<g>
</g>
</svg>
