<?xml version="1.0" encoding="iso-8859-1"?>
<!-- Generator: Adobe Illustrator 19.0.0, SVG Export Plug-In . SVG Version: 6.00 Build 0)  -->
<svg version="1.1" id="Layer_1" xmlns="http://www.w3.org/2000/svg" xmlns:xlink="http://www.w3.org/1999/xlink" x="0px" y="0px"
	 viewBox="0 0 406.784 406.784" style="enable-background:new 0 0 406.784 406.784;" xml:space="preserve">
<g>
	<g>
		<g>
			<path d="M278.007,339.398l-60.256-84.911v120.36h155.867l-91.081-32.03C280.711,342.173,279.13,340.978,278.007,339.398z"/>
			<path d="M21.928,354.664L6.919,374.847h192.1V355.05H24.585C23.66,355.05,22.771,354.91,21.928,354.664z"/>
			<polygon points="199.02,336.319 199.02,116.426 35.554,336.319 			"/>
			<path d="M217.751,222.117l73.813,104.017l34.758,12.222l-28.401-39.921c-2.997-4.215-2.014-10.068,2.201-13.065
				c4.215-2.997,10.056-2.014,13.065,2.201l43.316,60.876c0.152,0.222,0.293,0.445,0.422,0.667l45.763,16.097L217.751,116.426
				V222.117z"/>
			<path d="M379.308,51.839c-5.28,0-10.408,1.463-14.821,4.226c-2.318,1.44-5.151,1.803-7.762,0.995
				c-2.611-0.819-4.73-2.739-5.807-5.245c-5.186-12.082-17.022-19.878-30.146-19.878c-18.076,0-32.78,14.704-32.78,32.78
				c0,3.219,0.456,6.357,1.358,9.366h117.434v-0.001C404.091,61.392,392.794,51.839,379.308,51.839z"/>
			<path d="M91.315,61.204c-5.28,0-10.407,1.463-14.821,4.226c-2.318,1.44-5.151,1.803-7.762,0.995
				c-2.61-0.819-4.729-2.739-5.807-5.245C57.739,49.099,45.903,41.302,32.78,41.302C14.704,41.302,0,56.006,0,74.082
				c0,3.219,0.457,6.357,1.358,9.366h117.433C116.099,70.757,104.801,61.204,91.315,61.204z"/>
		</g>
	</g>
</g>
<g>
</g>
<g>
</g>
<g>
</g>
<g>
</g>
<g>
</g>
<g>
</g>
<g>
</g>
<g>
</g>
<g>
</g>
<g>
</g>
<g>
</g>
<g>
</g>
<g>
</g>
<g>
</g>
<g>
</g>
</svg>
