<?xml version="1.0" encoding="iso-8859-1"?>
<!-- Generator: Adobe Illustrator 19.0.0, SVG Export Plug-In . SVG Version: 6.00 Build 0)  -->
<svg version="1.1" id="Layer_1" xmlns="http://www.w3.org/2000/svg" xmlns:xlink="http://www.w3.org/1999/xlink" x="0px" y="0px"
	 viewBox="0 0 512 512" style="enable-background:new 0 0 512 512;" xml:space="preserve">
<g>
	<g>
		<path d="M416,0H96c-8.848,0-16,7.168-16,16v480c0,8.848,7.152,16,16,16h320c8.848,0,16-7.152,16-16V16C432,7.168,424.848,0,416,0z
			 M400,480H112V32h288V480z"/>
	</g>
</g>
<g>
	<g>
		<path d="M256,0c-8.848,0-16,7.168-16,16v480c0,8.848,7.152,16,16,16c8.848,0,16-7.152,16-16V16C272,7.168,264.848,0,256,0z"/>
	</g>
</g>
<g>
	<g>
		<path d="M416,96H96c-8.848,0-16,7.168-16,16c0,8.832,7.152,16,16,16h320c8.848,0,16-7.168,16-16C432,103.168,424.848,96,416,96z"
			/>
	</g>
</g>
<g>
	<g>
		<path d="M304,256h-96c-8.848,0-16,7.168-16,16c0,8.848,7.152,16,16,16h96c8.848,0,16-7.152,16-16C320,263.168,312.848,256,304,256
			z"/>
	</g>
</g>
<g>
	<g>
		<path d="M288,304h-64c-8.848,0-16,7.152-16,16c0,8.848,7.152,16,16,16h64c8.848,0,16-7.152,16-16C304,311.152,296.848,304,288,304
			z"/>
	</g>
</g>
<g>
</g>
<g>
</g>
<g>
</g>
<g>
</g>
<g>
</g>
<g>
</g>
<g>
</g>
<g>
</g>
<g>
</g>
<g>
</g>
<g>
</g>
<g>
</g>
<g>
</g>
<g>
</g>
<g>
</g>
</svg>
