<?xml version="1.0" encoding="iso-8859-1"?>
<!-- Generator: Adobe Illustrator 19.0.0, SVG Export Plug-In . SVG Version: 6.00 Build 0)  -->
<svg version="1.1" id="Layer_1" xmlns="http://www.w3.org/2000/svg" xmlns:xlink="http://www.w3.org/1999/xlink" x="0px" y="0px"
	 viewBox="0 0 512 512" style="enable-background:new 0 0 512 512;" xml:space="preserve">
<g>
	<g>
		<path d="M473.814,430.236v-0.001V231.097h-65.083c9.219-9.291,14.924-22.071,14.924-36.163c0-22.189-14.142-41.133-33.884-48.302
			c6.598-6.987,15.935-11.36,26.28-11.36v-15.209c-18.064,0-33.969,9.38-43.129,23.516c-0.213-0.003-0.424-0.016-0.638-0.016
			c-28.326,0-51.37,23.045-51.37,51.371c0,14.091,5.705,26.872,14.924,36.163H38.186v40.126v15.209v143.804H0v44.554h512v-44.554
			H473.814z M366.138,159.305c-0.946,3.891-1.459,7.95-1.459,12.13h15.209c0-3.983,0.657-7.813,1.851-11.4
			c15.367,4.168,26.707,18.231,26.707,34.899c0,19.94-16.223,36.163-36.163,36.163s-36.162-16.223-36.162-36.163
			C336.122,177.09,349.117,162.232,366.138,159.305z M53.395,246.306h405.209v183.93h-41.815V271.223h-0.001H53.395V246.306z
			 M401.579,286.432v45.012c-5.839-1.161-9.656-3.683-14.145-6.667c-6.981-4.64-14.893-9.897-30.169-9.897
			c-15.274,0-23.185,5.258-30.165,9.897c-6.183,4.108-11.065,7.354-21.747,7.354s-15.566-3.246-21.748-7.354
			c-6.98-4.64-14.891-9.897-30.166-9.897c-15.275,0-23.185,5.258-30.165,9.897c-6.183,4.109-11.065,7.354-21.746,7.354
			c-10.682,0-15.565-3.246-21.747-7.354c-6.98-4.64-14.891-9.897-30.164-9.897c-15.275,0-23.186,5.258-30.166,9.897
			c-6.183,4.108-11.066,7.354-21.747,7.354c-10.682,0-15.565-3.246-21.747-7.354c-5.716-3.799-12.064-8.009-22.561-9.41v-28.935
			H401.579z M53.395,330.777c5.838,1.161,9.653,3.683,14.142,6.667c6.98,4.64,14.891,9.897,30.165,9.897s23.185-5.258,30.165-9.897
			c6.183-4.109,11.066-7.355,21.748-7.355c10.681,0,15.564,3.246,21.746,7.354c6.98,4.639,14.891,9.897,30.165,9.897
			c15.274,0,23.184-5.258,30.164-9.897c6.183-4.108,11.065-7.354,21.747-7.354s15.566,3.246,21.748,7.354
			c6.98,4.64,14.892,9.897,30.166,9.897c15.274,0,23.185-5.258,30.165-9.897c6.183-4.108,11.065-7.354,21.747-7.354
			c10.684,0,15.568,3.246,21.751,7.355c5.716,3.799,12.065,8.008,22.564,9.41v44.839c-5.839-1.161-9.656-3.683-14.145-6.667
			c-6.981-4.639-14.893-9.897-30.169-9.897c-15.274,0-23.185,5.258-30.165,9.897c-6.183,4.109-11.065,7.354-21.747,7.354
			c-10.682,0-15.566-3.246-21.748-7.354c-6.98-4.639-14.891-9.897-30.166-9.897c-15.275,0-23.185,5.258-30.165,9.897
			c-6.183,4.109-11.065,7.354-21.746,7.354c-10.682,0-15.565-3.246-21.747-7.354c-6.98-4.639-14.891-9.897-30.164-9.897
			c-15.275,0-23.186,5.258-30.166,9.897c-6.183,4.109-11.065,7.354-21.747,7.354c-10.682,0-15.565-3.246-21.747-7.354
			c-5.716-3.799-12.064-8.008-22.561-9.41V330.777z M53.395,391.026c5.838,1.161,9.653,3.683,14.142,6.667
			c6.98,4.639,14.891,9.897,30.165,9.897s23.185-5.258,30.165-9.897c6.183-4.108,11.066-7.354,21.748-7.354
			c10.681,0,15.564,3.246,21.746,7.354c6.98,4.64,14.891,9.897,30.165,9.897c15.274,0,23.184-5.258,30.164-9.897
			c6.183-4.109,11.065-7.354,21.747-7.354s15.566,3.246,21.748,7.354c6.98,4.639,14.892,9.897,30.166,9.897
			c15.274,0,23.185-5.258,30.165-9.897c6.183-4.109,11.065-7.354,21.747-7.354c10.684,0,15.568,3.246,21.751,7.355
			c5.716,3.798,12.065,8.008,22.564,9.409v23.133H53.395V391.026z M15.209,459.58v-14.136h22.978h363.392h72.234h22.978v14.136
			H15.209z"/>
	</g>
</g>
<g>
	<g>
		<rect x="285.628" y="75.073" transform="matrix(0.7071 -0.7071 0.7071 0.7071 14.5915 236.879)" width="15.209" height="51.506"/>
	</g>
</g>
<g>
	<g>
		
			<rect x="248.822" y="134.662" transform="matrix(0.3449 -0.9386 0.9386 0.3449 17.4103 345.7759)" width="15.208" height="51.505"/>
	</g>
</g>
<g>
	<g>
		
			<rect x="345.211" y="38.253" transform="matrix(0.9386 -0.3449 0.3449 0.9386 -0.4258 125.6183)" width="15.208" height="51.505"/>
	</g>
</g>
<g>
</g>
<g>
</g>
<g>
</g>
<g>
</g>
<g>
</g>
<g>
</g>
<g>
</g>
<g>
</g>
<g>
</g>
<g>
</g>
<g>
</g>
<g>
</g>
<g>
</g>
<g>
</g>
<g>
</g>
</svg>
