<?xml version="1.0" encoding="iso-8859-1"?>
<!-- Generator: Adobe Illustrator 19.0.0, SVG Export Plug-In . SVG Version: 6.00 Build 0)  -->
<svg version="1.1" id="Layer_1" xmlns="http://www.w3.org/2000/svg" xmlns:xlink="http://www.w3.org/1999/xlink" x="0px" y="0px"
	 viewBox="0 0 512 512" style="enable-background:new 0 0 512 512;" xml:space="preserve">
<path style="fill:#E6F6FF;" d="M299.392,174.999l0.013-0.013l39.034-118.915c7.528-22.917,32.197-35.393,55.113-27.866
	c18.388,6.035,30.062,23.115,30.062,41.465c0,4.516-0.716,9.107-2.197,13.636L333.02,352.594
	c-15.043,45.834-64.394,70.787-110.228,55.743l48.363-147.324l-155.53-51.065c-42.329-13.896-67.788-55.533-62.815-98.133
	c0.703-6.059,2.023-12.131,3.999-18.153l3.801-11.55l197.032,64.677c16.167,5.306,29.865,14.661,40.342,26.558
	C298.479,173.889,298.948,174.445,299.392,174.999z"/>
<path style="fill:#D2E3F7;" d="M235.171,75.213c42.341,13.896,67.788,55.533,62.815,98.133
	c-10.477-11.897-24.175-21.251-40.342-26.558L60.611,82.112l-3.801,11.55c-1.974,6.022-3.295,12.093-3.999,18.153
	C31.92,88.109,23.787,54.27,34.351,22.086l3.788-11.563L235.171,75.213z"/>
<path d="M371.268,96.161c1.085,0.355,2.187,0.524,3.269,0.524c4.429,0,8.549-2.819,9.999-7.257l2.023-6.195
	c1.805-5.524-1.21-11.465-6.734-13.27c-5.522-1.806-11.465,1.21-13.27,6.734l-2.023,6.195
	C362.728,88.416,365.743,94.356,371.268,96.161z"/>
<path d="M112.344,219.946l145.532,47.789l-45.078,137.318c0,0.001-0.001,0.002-0.001,0.003l-30.58,93.135
	c-1.813,5.521,1.193,11.466,6.714,13.28c1.09,0.358,2.196,0.528,3.285,0.528c4.423,0,8.54-2.812,9.995-7.243l27.476-83.683
	c6.774,1.453,13.62,2.193,20.448,2.193c15.134,0,30.169-3.553,44.066-10.581c16.403-8.295,29.825-20.744,39.194-36.031l9.944,19.664
	c-5.115,4.971-8.991,11.133-11.281,18.102c-1.814,5.521,1.191,11.467,6.712,13.281c1.091,0.358,2.197,0.528,3.286,0.528
	c4.423,0,8.539-2.811,9.995-7.242c1.976-6.016,6.177-10.903,11.827-13.761c5.651-2.857,12.072-3.344,18.084-1.369
	c5.519,1.811,11.466-1.191,13.281-6.712c1.814-5.521-1.191-11.467-6.712-13.281c-8.897-2.922-18.265-2.98-27.036-0.277
	l-17.117-33.852L428.75,94.714c18.976,6.407,35.013,20.279,44.057,38.165c1.853,3.664,5.556,5.776,9.399,5.776
	c1.597,0,3.218-0.365,4.74-1.134c5.185-2.622,7.264-8.952,4.641-14.139c-11.639-23.017-32.365-40.83-56.863-48.873l-0.787-0.259
	c0.13-1.524,0.202-3.049,0.202-4.578c0-23.458-14.991-44.14-37.301-51.462c-28.386-9.326-59.069,6.187-68.396,34.581l-25.06,76.346
	c-10.3-29.471-33.798-53.705-64.926-63.922L41.422,0.526c-2.653-0.872-5.543-0.652-8.034,0.609c-2.491,1.261-4.379,3.46-5.249,6.112
	l-3.787,11.558C13.533,51.77,20.299,88.266,41.93,115.203C38.631,161.701,67.639,205.27,112.344,219.946z M44.35,25.363l0.51-1.557
	l187.03,61.405c29.424,9.656,50.28,35.056,55.108,64.482c-7.996-5.482-16.768-9.847-26.074-12.901l-68.922-22.623
	c-5.52-1.814-11.466,1.193-13.279,6.715c-1.813,5.521,1.194,11.466,6.715,13.279l68.922,22.624
	c13.819,4.536,26.174,12.667,35.727,23.514c0.037,0.042,0.074,0.083,0.111,0.124c0.342,0.376,0.665,0.761,0.972,1.145
	c0.056,0.069,0.112,0.138,0.169,0.206c6.228,7.399,11.056,15.762,14.347,24.855c1.55,4.282,5.59,6.945,9.894,6.945
	c1.189,0,2.398-0.203,3.581-0.631c5.464-1.977,8.291-8.011,6.313-13.475c-3.456-9.547-8.274-18.441-14.323-26.536l37.281-113.577
	c5.704-17.367,24.472-26.855,41.835-21.152c13.65,4.479,22.821,17.125,22.821,31.467c0,3.479-0.564,6.966-1.671,10.355
	l-88.396,269.285c-6.399,19.496-20.007,35.332-38.319,44.592c-15.142,7.657-32.003,10.062-48.41,7.042L277.87,274.3l8.623,2.832
	c1.091,0.359,2.198,0.529,3.288,0.529c4.422,0,8.538-2.811,9.994-7.239c1.815-5.521-1.19-11.467-6.71-13.283l-18.528-6.084
	c-0.034-0.012-0.064-0.026-0.098-0.038c-0.034-0.011-0.067-0.017-0.101-0.027L118.91,199.951
	c-36.716-12.053-60.117-48.606-55.644-86.923c0.629-5.42,1.821-10.833,3.542-16.077l0.515-1.564l50.388,16.54
	c5.521,1.813,11.467-1.193,13.279-6.715c1.813-5.522-1.194-11.467-6.715-13.279l-60.378-19.82
	c-5.517-1.812-11.461,1.191-13.277,6.708l-2.348,7.134C39.385,67.238,37.748,45.474,44.35,25.363z"/>
<path d="M149.91,122.5l3.271,1.074c1.09,0.358,2.195,0.527,3.283,0.527c4.424,0,8.541-2.813,9.996-7.245
	c1.812-5.521-1.195-11.466-6.716-13.279l-3.271-1.074c-5.52-1.812-11.466,1.194-13.279,6.716
	C141.382,114.742,144.388,120.687,149.91,122.5z"/>
<g>
</g>
<g>
</g>
<g>
</g>
<g>
</g>
<g>
</g>
<g>
</g>
<g>
</g>
<g>
</g>
<g>
</g>
<g>
</g>
<g>
</g>
<g>
</g>
<g>
</g>
<g>
</g>
<g>
</g>
</svg>
