<?xml version="1.0" encoding="iso-8859-1"?>
<!-- Generator: Adobe Illustrator 19.0.0, SVG Export Plug-In . SVG Version: 6.00 Build 0)  -->
<svg version="1.1" id="Layer_1" xmlns="http://www.w3.org/2000/svg" xmlns:xlink="http://www.w3.org/1999/xlink" x="0px" y="0px"
	 viewBox="0 0 512 512" style="enable-background:new 0 0 512 512;" xml:space="preserve">
<g transform="translate(1 1)">
	<g>
		<g>
			<path d="M139.603,345.453c1.707,1.707,4.267,3.413,6.827,3.413c1.707,0,3.413-0.853,5.12-1.707c4.267-2.56,5.12-7.68,2.56-11.947
				C147.283,325.827,143.016,319,143.016,319c-20.48-36.693-52.907-73.387-68.267-91.307c-2.56-3.413-5.973-7.68-7.68-9.387
				c0-2.56,0-4.267,5.12-7.68c3.413-1.707,5.973-3.413,8.533-4.267c22.187-7.68,58.88,2.56,75.093,30.72l15.36,23.04
				c0,0,0,0,0,0.001l7.68,15.359c1.707,3.413,4.267,5.12,7.68,5.12c1.707,0,2.56,0,3.413-1.707c3.413-1.707,5.12-6.827,3.413-11.093
				l-6.827-13.653V75.8c0-14.507,11.093-25.6,25.6-25.6c14.507,0,25.6,11.093,25.6,25.6v68.267v25.6v51.2
				c0,5.12,3.413,8.533,8.533,8.533s8.533-3.413,8.533-8.533v-51.2v-25.6v-102.4c0-14.507,11.093-25.6,25.6-25.6
				c14.507,0,25.6,11.093,25.6,25.6v93.867c0,5.12,3.413,8.533,8.533,8.533s8.533-3.413,8.533-8.533V75.8
				c0-8.533,11.947-25.6,25.6-25.6c9.387,0,17.92,5.12,22.187,12.8c2.56,4.267,7.68,5.973,11.947,3.413
				c3.413-2.56,5.12-7.68,2.56-11.947c-7.68-12.8-21.333-21.333-36.693-21.333c-9.387,0-18.773,4.267-25.6,10.24v-1.707
				C323.07,17.773,304.296-1,280.403-1c-23.893,0-42.667,18.773-42.667,42.667c-6.827-5.12-16.213-8.533-25.6-8.533
				c-23.893,0-42.667,18.773-42.667,42.667v151.04c-18.773-32.427-63.147-49.493-95.573-36.693
				c-4.267,0.853-7.68,3.413-11.947,5.973c-12.8,8.533-11.947,19.627-11.947,23.04c-0.853,5.12,0,5.973,11.947,20.48
				c15.36,17.067,46.933,52.907,66.56,88.747C128.51,328.387,132.776,335.213,139.603,345.453z"/>
			<path d="M457.043,18.627c-3.413-3.413-9.387-2.56-11.947,0.853l-358.4,443.733c-3.413,3.413-2.56,9.387,0.853,11.947
				c1.707,0.853,3.413,1.707,5.12,1.707c2.56,0,5.12-0.853,7.68-2.56l358.4-443.733C461.31,27.16,460.456,21.187,457.043,18.627z"/>
			<path d="M416.936,135.533c-23.893,0-42.667,18.773-42.667,42.667v85.333c0,5.12,3.413,8.533,8.533,8.533s8.533-3.413,8.533-8.533
				V178.2c0-14.507,11.093-25.6,25.6-25.6c14.507,0,25.6,11.093,25.6,25.6v179.2c0,29.013-10.24,47.787-15.36,53.76
				c-1.578,1.841-3.075,4.091-4.466,6.694c-3.682,3.329-8.318,4.609-21.134,7.813l-4.267,0.853
				c-4.267,0.853-6.827,5.973-5.973,10.24c1.707,3.413,5.12,5.973,8.533,5.973c0.853,0,1.707,0,2.56,0h3.413
				c3.479-1.044,6.599-1.945,9.442-2.821c-0.018,0.088-0.037,0.173-0.055,0.261c-5.973,29.013-37.547,53.76-66.56,53.76h-85.333
				c-37.547,0-68.267-30.72-68.267-68.267v-25.6c0-5.12-3.413-8.533-8.533-8.533s-8.533,3.413-8.533,8.533v25.6
				c0,46.933,38.4,85.333,85.333,85.333h85.333c36.693,0,75.093-30.72,83.627-66.56c2.56-10.24,5.12-17.92,8.533-21.333
				c8.533-10.24,18.773-34.133,18.773-65.707V178.2C459.603,154.307,440.83,135.533,416.936,135.533z"/>
		</g>
	</g>
</g>
<g>
</g>
<g>
</g>
<g>
</g>
<g>
</g>
<g>
</g>
<g>
</g>
<g>
</g>
<g>
</g>
<g>
</g>
<g>
</g>
<g>
</g>
<g>
</g>
<g>
</g>
<g>
</g>
<g>
</g>
</svg>
