<?xml version="1.0" encoding="iso-8859-1"?>
<!-- Generator: Adobe Illustrator 19.0.0, SVG Export Plug-In . SVG Version: 6.00 Build 0)  -->
<svg version="1.1" id="Layer_1" xmlns="http://www.w3.org/2000/svg" xmlns:xlink="http://www.w3.org/1999/xlink" x="0px" y="0px"
	 viewBox="0 0 490 490" style="enable-background:new 0 0 490 490;" xml:space="preserve">
<g>
	<g>
		<g>
			<path d="M458.75,180v-30h-32.5v-45.934L416.992,30H358.75V0h-230v30H70.508l-9.258,74.066V150h-30v30h30v130h-30v30h30v45.934
				L70.508,460h58.242v30h230v-30h58.242l9.258-74.066V340h32.5v-30h-32.5V180H458.75z M158.75,30h170v60h-170V30z M328.75,460h-170
				v-60h170V460z M396.25,384.066L390.508,430H358.75v-60h-230v60H96.992l-5.742-45.934V105.934L96.992,60h31.758v60h230V60h31.758
				l5.742,45.934V384.066z"/>
			<path d="M128.75,340h230V150h-230V340z M158.75,180h170v130h-170V180z"/>
			<rect x="188.75" y="210" width="30" height="70"/>
			<rect x="268.75" y="210" width="30" height="70"/>
		</g>
	</g>
</g>
<g>
</g>
<g>
</g>
<g>
</g>
<g>
</g>
<g>
</g>
<g>
</g>
<g>
</g>
<g>
</g>
<g>
</g>
<g>
</g>
<g>
</g>
<g>
</g>
<g>
</g>
<g>
</g>
<g>
</g>
</svg>
