<?xml version="1.0" encoding="iso-8859-1"?>
<!-- Generator: Adobe Illustrator 19.0.0, SVG Export Plug-In . SVG Version: 6.00 Build 0)  -->
<svg version="1.1" id="Layer_1" xmlns="http://www.w3.org/2000/svg" xmlns:xlink="http://www.w3.org/1999/xlink" x="0px" y="0px"
	 viewBox="0 0 511.986 511.986" style="enable-background:new 0 0 511.986 511.986;" xml:space="preserve">
<path style="fill:#E6E9ED;" d="M64.183,125.606v148.855c0,7.468,9.562,13.53,21.343,13.53h341.318
	c11.781,0,21.328-6.062,21.328-13.53V125.606H64.183z"/>
<path style="fill:#ED5564;" d="M65.527,255.985v234.657c0,11.781,8.218,19.999,20,19.999h341.317c11.781,0,20-8.218,20-19.999
	V255.985H65.527z"/>
<g>
	<path style="fill:#434A54;" d="M106.666,298.648c-5.89,0-10.671,4.781-10.671,10.672s4.781,10.671,10.671,10.671
		c5.891,0,10.672-4.78,10.672-10.671S112.557,298.648,106.666,298.648z"/>
	<path style="fill:#434A54;" d="M394.658,351.99c0-5.906-4.781-10.672-10.672-10.672s-10.672,4.766-10.672,10.672
		c0,5.875,4.781,10.656,10.672,10.656S394.658,357.865,394.658,351.99z"/>
	<path style="fill:#434A54;" d="M394.658,447.987c-5.891,0-10.672,4.781-10.672,10.656c0,5.906,4.781,10.672,10.672,10.672
		s10.656-4.766,10.656-10.672C405.314,452.768,400.549,447.987,394.658,447.987z"/>
	<path style="fill:#434A54;" d="M243.1,415.988c-5.891,0-10.672,4.781-10.672,10.656c0,5.906,4.781,10.672,10.672,10.672
		c5.89,0,10.671-4.766,10.671-10.672C253.771,420.769,248.99,415.988,243.1,415.988z"/>
	<path style="fill:#434A54;" d="M127.994,469.315c-5.891,0-10.656,4.765-10.656,10.671c0,5.875,4.765,10.656,10.656,10.656
		c5.891,0,10.656-4.781,10.656-10.656C138.65,474.08,133.885,469.315,127.994,469.315z"/>
	<path style="fill:#434A54;" d="M85.339,405.317c-5.906,0-10.672,4.765-10.672,10.671c0,5.875,4.766,10.656,10.672,10.656
		c5.875,0,10.656-4.781,10.656-10.656C95.995,410.082,91.214,405.317,85.339,405.317z"/>
	<path style="fill:#434A54;" d="M298.644,479.986c-5.874,0-10.655,4.781-10.655,10.656c0,5.906,4.781,10.672,10.655,10.672
		c5.906,0,10.688-4.766,10.688-10.672C309.332,484.767,304.551,479.986,298.644,479.986z"/>
</g>
<path style="fill:#E6E9ED;" d="M426.844,63.999H85.527c-11.781,0-21.343,9.547-21.343,21.328v405.316
	c0,11.781,9.562,21.343,21.343,21.343h341.317c11.781,0,21.328-9.562,21.328-21.343V85.326
	C448.172,73.546,438.625,63.999,426.844,63.999z M426.844,490.642H85.527V85.326h341.317V490.642z"/>
<path style="fill:#FFCE54;" d="M481.108,151.575c5.25,10.5,0.969,14.773-9.515,9.507l-4.359-2.18
	c-10.484-5.265-28.172-6.546-39.297-2.852l-23.701,7.883c-11.141,3.695-29.359,3.688-40.484-0.023l-23.529-7.836
	c-11.125-3.71-29.344-3.71-40.469,0l-23.514,7.836c-11.141,3.711-29.359,3.711-40.484,0l-23.515-7.836
	c-11.141-3.71-29.358-3.71-40.483,0l-23.515,7.836c-11.141,3.711-29.358,3.734-40.499,0.047l-23.312-7.711
	c-11.125-3.687-28.858-2.453-39.374,2.727l-4.594,2.258c-10.531,5.188-14.843,0.844-9.593-9.656l23.593-47.17
	c5.25-10.5,9.531-28.679,9.531-40.413V21.328C63.995,9.594,73.588,0,85.338,0h341.317c11.734,0,21.328,9.594,21.328,21.328v42.67
	c0,11.727,4.297,29.913,9.547,40.413L481.108,151.575z"/>
<path style="fill:#F6BB42;" d="M426.656,0.001H85.339c-11.75,0-21.343,9.594-21.343,21.328v42.663c0,3.18-0.312,6.828-0.875,10.672
	h385.738c-0.562-3.844-0.875-7.492-0.875-10.664V21.33C447.984,9.595,438.39,0.001,426.656,0.001z"/>
<path style="fill:#434A54;" d="M61.027,85.326h389.926c-1.828-7.531-2.969-15.289-2.969-21.328H63.996
	C63.996,70.038,62.855,77.796,61.027,85.326z"/>
<g>
	<path style="fill:#656D78;" d="M255.834,74.663c0,11.781-33.312,21.335-56.826,21.335c-23.515,0-28.343-9.554-28.343-21.335
		s4.828-21.335,28.343-21.335C222.522,53.327,255.834,62.882,255.834,74.663z"/>
	<path style="fill:#656D78;" d="M256.146,74.663c0-11.781,33.312-21.335,56.826-21.335c23.516,0,28.344,9.554,28.344,21.335
		s-4.828,21.335-28.344,21.335C289.458,95.998,256.146,86.444,256.146,74.663z"/>
</g>
<path style="fill:#434A54;" d="M277.131,74.663c0,11.781-9.547,21.335-21.328,21.335c-11.781,0-21.343-9.554-21.343-21.335
	s9.562-21.335,21.343-21.335C267.584,53.327,277.131,62.882,277.131,74.663z"/>
<rect x="127.994" y="213.323" style="fill:#FFCE54;" width="255.99" height="213.32"/>
<path style="fill:#ED5564;" d="M297.207,354.303c-26.498,21.219-77.185,32.358-94.872,10.25
	c-17.687-22.125,4.328-69.123,30.827-90.325c26.515-21.195,47.452-8.562,65.138,13.546
	C316.004,309.898,323.723,333.116,297.207,354.303z"/>
<g>
	<path style="fill:#A0D468;" d="M311.644,304.43c-4.609,3.688-11.312,2.938-15-1.656c-3.687-4.594-2.937-11.312,1.656-15
		c4.609-3.672,11.312-2.938,15,1.672S316.238,300.758,311.644,304.43z"/>
	<path style="fill:#A0D468;" d="M298.301,287.773c-4.593,3.688-11.312,2.938-14.983-1.656c-3.671-4.609-2.922-11.312,1.672-14.999
		c4.594-3.68,11.312-2.93,14.999,1.656C303.66,277.383,302.91,284.086,298.301,287.773z"/>
</g>
<g>
</g>
<g>
</g>
<g>
</g>
<g>
</g>
<g>
</g>
<g>
</g>
<g>
</g>
<g>
</g>
<g>
</g>
<g>
</g>
<g>
</g>
<g>
</g>
<g>
</g>
<g>
</g>
<g>
</g>
</svg>
