<?xml version="1.0" encoding="iso-8859-1"?>
<!-- Generator: Adobe Illustrator 19.0.0, SVG Export Plug-In . SVG Version: 6.00 Build 0)  -->
<svg version="1.1" id="Layer_1" xmlns="http://www.w3.org/2000/svg" xmlns:xlink="http://www.w3.org/1999/xlink" x="0px" y="0px"
	 viewBox="0 0 358.352 358.352" style="enable-background:new 0 0 358.352 358.352;" xml:space="preserve">
<g id="XMLID_789_">
	<g>
		<g>
			<path d="M179.177,0C98.044,0,32.037,66.007,32.037,147.14c0,53.628,36.471,107.319,67.066,142.918
				c14.78,17.198,31.734,34.202,47.739,47.88c23.887,20.414,29.593,20.414,32.335,20.414c2.796,0,8.613,0,32.555-20.524
				c15.965-13.687,32.911-30.751,47.717-48.051c30.505-35.642,66.867-89.32,66.867-142.637C326.315,66.007,260.31,0,179.177,0z
				 M247.464,272.977c-28.433,34.018-58.388,58.797-68.217,64.582c-9.104-5.523-38.503-28.938-68.221-64.356
				c-26.911-32.072-58.99-79.978-58.99-126.063C52.037,77.034,109.071,20,179.177,20c70.104,0,127.139,57.034,127.139,127.14
				C306.315,192.949,274.313,240.855,247.464,272.977z"/>
			<path d="M179.773,48.314c-52.487,0-95.188,42.702-95.188,95.19c0,52.487,42.701,95.188,95.188,95.188
				c52.488,0,95.19-42.701,95.19-95.188C274.964,91.017,232.263,48.314,179.773,48.314z M179.773,68.314
				c32.986,0,61.058,21.361,71.164,50.968c-3.046,1.318-5.371,2.966-7.335,4.363c-2.931,2.084-4.269,3.035-7.946,3.035
				s-5.016-0.951-7.946-3.035c-3.998-2.843-9.473-6.736-19.537-6.736c-10.063,0-15.538,3.894-19.535,6.736
				c-2.93,2.084-4.268,3.035-7.943,3.035c-3.677,0-5.015-0.951-7.944-3.035c-3.998-2.843-9.473-6.736-19.535-6.736
				c-10.063,0-15.538,3.894-19.536,6.736c-2.93,2.084-4.268,3.035-7.943,3.035c-3.675,0-5.013-0.951-7.942-3.035
				c-2.3-1.635-5.094-3.615-8.964-5.005C119.12,89.366,147.027,68.314,179.773,68.314z M179.776,218.694
				c-20.054-0.001-38.283-7.906-51.777-20.745c1.473,0.233,3.074,0.368,4.823,0.368c9.177,0,14.344-3.675,17.763-6.105
				c2.53-1.799,3.383-2.405,6.174-2.405s3.644,0.606,6.174,2.405c3.419,2.431,8.586,6.105,17.763,6.105
				c9.178,0,14.345-3.675,17.764-6.105c2.53-1.799,3.382-2.405,6.173-2.405c2.792,0,3.645,0.606,6.175,2.405
				c3.42,2.432,8.588,6.105,17.766,6.105c0.953,0,1.852-0.048,2.721-0.122C217.826,210.889,199.701,218.694,179.776,218.694z
				 M234.747,175.911c-2.53,1.799-3.383,2.405-6.175,2.405c-2.793,0-3.646-0.606-6.176-2.405c-3.42-2.432-8.587-6.105-17.765-6.105
				c-9.177,0-14.344,3.674-17.763,6.105c-2.53,1.799-3.383,2.405-6.174,2.405c-2.791,0-3.643-0.606-6.173-2.405
				c-3.419-2.431-8.586-6.105-17.764-6.105c-9.178,0-14.345,3.675-17.764,6.105c-2.53,1.799-3.382,2.405-6.173,2.405
				c-2.791,0-3.643-0.606-6.173-2.405c-3.36-2.389-8.418-5.971-17.301-6.094c-3.072-8.195-4.762-17.058-4.762-26.312
				c0-1.539,0.061-3.063,0.153-4.58c0.454,0.307,0.927,0.638,1.464,1.019c3.997,2.843,9.472,6.736,19.534,6.736
				s15.537-3.894,19.535-6.736c2.93-2.084,4.268-3.035,7.944-3.035c3.676,0,5.014,0.951,7.943,3.035
				c3.998,2.843,9.473,6.736,19.536,6.736s15.538-3.894,19.535-6.736c2.93-2.084,4.268-3.035,7.943-3.035
				c3.679,0,5.016,0.951,7.947,3.035c3.998,2.843,9.473,6.736,19.536,6.736c9.807,0,15.252-3.695,19.223-6.514
				c0.049,1.108,0.085,2.219,0.085,3.338c0.003,9.286-1.7,18.177-4.792,26.394C242.44,170.457,237.862,173.695,234.747,175.911z"/>
		</g>
	</g>
</g>
<g>
</g>
<g>
</g>
<g>
</g>
<g>
</g>
<g>
</g>
<g>
</g>
<g>
</g>
<g>
</g>
<g>
</g>
<g>
</g>
<g>
</g>
<g>
</g>
<g>
</g>
<g>
</g>
<g>
</g>
</svg>
