<?xml version="1.0" encoding="iso-8859-1"?>
<!-- Generator: Adobe Illustrator 19.0.0, SVG Export Plug-In . SVG Version: 6.00 Build 0)  -->
<svg version="1.1" id="Layer_1" xmlns="http://www.w3.org/2000/svg" xmlns:xlink="http://www.w3.org/1999/xlink" x="0px" y="0px"
	 viewBox="0 0 376.678 376.678" style="enable-background:new 0 0 376.678 376.678;" xml:space="preserve">
<g id="XMLID_110_">
	<g>
		<path d="M376.283,303.482l-32.182-153.83c-0.869-4.158-1.636-11.529-1.641-15.774l-0.069-62.551
			c-0.012-10.47-8.541-18.988-19.01-18.988h-270c-10.471,0-18.999,8.519-19.01,18.989l-0.069,62.55
			c-0.005,4.247-0.773,11.615-1.645,15.768L0.397,303.478c-1.105,5.271,0.121,10.584,3.363,14.578
			c3.243,3.993,8.191,6.284,13.577,6.284H143.38c9.373,0,18.471-6.77,21.164-15.747l23.836-79.451l23.836,79.451
			c2.693,8.977,11.792,15.747,21.164,15.747h125.957c5.384,0,10.333-2.29,13.577-6.282
			C376.158,314.066,377.385,308.752,376.283,303.482z M54.37,72.339h268.022l0.057,51H54.313L54.37,72.339z M233.401,304.34
			c-0.616-0.045-1.813-0.937-2.028-1.495l-30.828-102.759c-2.892-9.642-9.47-10.682-12.164-10.682
			c-2.694,0-9.271,1.041-12.164,10.682l-30.822,102.74c-0.22,0.577-1.417,1.468-2.014,1.513H20.652l31.58-150.588
			c0.606-2.889,1.143-6.663,1.518-10.412h106.588v26h20v-26h16v38h20v-38h106.673c0.375,3.746,0.91,7.519,1.514,10.408
			l31.504,150.592L233.401,304.34z"/>
	</g>
</g>
<g>
</g>
<g>
</g>
<g>
</g>
<g>
</g>
<g>
</g>
<g>
</g>
<g>
</g>
<g>
</g>
<g>
</g>
<g>
</g>
<g>
</g>
<g>
</g>
<g>
</g>
<g>
</g>
<g>
</g>
</svg>
