<?xml version="1.0" encoding="iso-8859-1"?>
<!-- Generator: Adobe Illustrator 19.0.0, SVG Export Plug-In . SVG Version: 6.00 Build 0)  -->
<svg version="1.1" id="Layer_1" xmlns="http://www.w3.org/2000/svg" xmlns:xlink="http://www.w3.org/1999/xlink" x="0px" y="0px"
	 viewBox="0 0 512 512" style="enable-background:new 0 0 512 512;" xml:space="preserve">
<g transform="translate(1 1)">
	<path style="fill:#FFE100;" d="M502.467,255c0,136.533-110.933,247.467-247.467,247.467S7.533,391.533,7.533,255
		S118.467,7.533,255,7.533S502.467,118.467,502.467,255"/>
	<g>
		<path style="fill:#FFA800;" d="M144.067,185.88v205.653h51.2V233.667C180.76,214.893,163.693,198.68,144.067,185.88"/>
		<path style="fill:#FFA800;" d="M41.667,152.6v222.72c0,8.533,6.827,16.213,16.213,16.213h34.987V161.987
			C76.653,156.867,59.587,153.453,41.667,152.6"/>
		<path style="fill:#FFA800;" d="M374.467,185.88v205.653h-51.2V233.667C337.773,214.893,354.84,198.68,374.467,185.88"/>
		<path style="fill:#FFA800;" d="M476.867,152.6v206.507c0,17.92-14.507,32.427-32.427,32.427h-18.773V161.987
			C441.88,156.867,458.947,153.453,476.867,152.6"/>
		<path style="fill:#FFA800;" d="M365.933,391.533v34.133h25.6v35.84c27.307-17.92,50.347-40.96,68.267-67.413
			c0.853-0.853,0.853-1.707,1.707-2.56l0,0H365.933z"/>
		<path style="fill:#FFA800;" d="M48.493,391.533c0.853,0.853,0.853,1.707,1.707,2.56c19.627,29.867,46.08,54.613,76.8,72.533
			v-40.96h25.6v-34.133H48.493L48.493,391.533"/>
	</g>
	<path d="M280.6,378.733c-5.12,0-8.533-3.413-8.533-8.533c0-124.587-100.693-239.787-219.307-250.88
		c-5.12-0.853-8.533-4.267-7.68-9.387s4.267-8.533,9.387-7.68C184.173,114.2,289.133,234.52,289.133,370.2
		C289.133,375.32,285.72,378.733,280.6,378.733z"/>
	<path d="M255,511C114.2,511-1,395.8-1,255S114.2-1,255-1s256,115.2,256,256S395.8,511,255,511z M255,16.067
		C123.587,16.067,16.067,123.587,16.067,255S123.587,493.933,255,493.933S493.933,386.413,493.933,255S386.413,16.067,255,16.067z"
		/>
	<path d="M203.8,400.067h-68.267V170.52l12.8,8.533c20.48,13.653,38.4,29.867,52.907,49.493l1.707,2.56v168.96H203.8z M152.6,383
		h34.133V236.227c-10.24-12.8-21.333-23.893-34.133-34.133V383z"/>
	<path d="M101.4,400.067H57.88c-13.653,0-24.747-11.093-24.747-24.747V144.067h8.533c17.92,0.853,35.84,4.267,53.76,9.387
		l5.973,1.707V400.067z M50.2,161.987v214.187c0,3.413,3.413,6.827,7.68,6.827h26.453V167.96
		C73.24,165.4,62.147,162.84,50.2,161.987z"/>
	<path d="M237.933,378.733c-5.12,0-8.533-3.413-8.533-8.533c0-130.56,101.547-250.88,226.133-267.093
		c4.267-0.853,8.533,2.56,9.387,7.68c0.853,4.267-2.56,8.533-7.68,9.387C341.187,135.533,246.467,247.32,246.467,370.2
		C246.467,375.32,243.053,378.733,237.933,378.733z"/>
	<path d="M383,400.067h-68.267v-168.96l1.707-2.56c14.507-19.627,32.427-35.84,52.907-49.493l12.8-8.533v229.547H383z M331.8,383
		h34.133V202.947c-12.8,10.24-23.893,21.333-34.133,34.133V383z"/>
	<path d="M444.44,400.067h-27.307V155.16l5.973-1.707c17.067-5.12,34.987-8.533,53.76-9.387h8.533v215.04
		C485.4,382.147,467.48,400.067,444.44,400.067z M434.2,383h10.24c12.8,0,23.893-10.24,23.893-23.893v-197.12
		c-11.947,0.853-23.04,3.413-34.133,5.973V383z"/>
	<path d="M465.773,400.067H255c-14.507,0-25.6-11.093-25.6-25.6c0-14.507,11.093-25.6,25.6-25.6h17.92
		c4.267-110.933,95.573-202.24,207.36-204.8h5.973l2.56,5.12C503.32,182.467,511,218.307,511,255
		c0,50.347-14.507,98.987-42.667,141.653L465.773,400.067z M255,365.933c-5.12,0-8.533,3.413-8.533,8.533
		c0,5.12,3.413,8.533,8.533,8.533h201.387c24.747-38.4,37.547-82.773,37.547-128c0-32.427-6.827-64-18.773-93.867
		c-103.253,5.973-186.027,93.013-186.027,196.267v8.533H255z"/>
	<path d="M263.533,400.067H44.227l-2.56-3.413C13.507,353.987-1,305.347-1,255c0-36.693,7.68-72.533,23.04-105.813l1.707-5.12h9.387
		c114.347,0,208.213,91.307,212.48,204.8h17.92c14.507,0,25.6,11.093,25.6,25.6C289.133,388.973,278.04,400.067,263.533,400.067z
		 M53.613,383h209.92c5.12,0,8.533-3.413,8.533-8.533c0-5.12-3.413-8.533-8.533-8.533H229.4V357.4
		c0-105.813-88.747-195.413-193.707-196.267C22.893,191,16.067,222.573,16.067,255C16.067,300.227,28.867,344.6,53.613,383z"/>
	<path d="M465.773,400.067H44.227l-2.56-3.413c-14.507-21.333-25.6-45.227-32.427-70.827l-3.413-11.093h498.347l-3.413,11.093
		c-6.827,24.747-17.92,48.64-32.427,70.827L465.773,400.067z M53.613,383H457.24c10.24-16.213,18.773-33.28,24.747-51.2H29.72
		C34.84,349.72,43.373,366.787,53.613,383z"/>
	<path d="M383,476.867V434.2h-25.6V383h124.587l-15.36,15.36c-18.773,28.16-42.667,51.2-70.827,69.973L383,476.867z
		 M374.467,417.133h25.6v27.307c17.067-12.8,31.573-28.16,44.373-44.373h-69.973V417.133z"/>
	<path d="M135.533,481.987l-12.8-7.68c-31.573-18.773-58.88-45.227-79.36-75.093L33.133,383h128v51.2h-25.6V481.987z M65.56,400.067
		c15.36,19.627,33.28,36.693,52.907,51.2v-34.133h25.6v-17.067H65.56z"/>
</g>
<g>
</g>
<g>
</g>
<g>
</g>
<g>
</g>
<g>
</g>
<g>
</g>
<g>
</g>
<g>
</g>
<g>
</g>
<g>
</g>
<g>
</g>
<g>
</g>
<g>
</g>
<g>
</g>
<g>
</g>
</svg>
