<?xml version="1.0" encoding="iso-8859-1"?>
<!-- Generator: Adobe Illustrator 18.0.0, SVG Export Plug-In . SVG Version: 6.00 Build 0)  -->
<!DOCTYPE svg PUBLIC "-//W3C//DTD SVG 1.1//EN" "http://www.w3.org/Graphics/SVG/1.1/DTD/svg11.dtd">
<svg version="1.1" id="Capa_1" xmlns="http://www.w3.org/2000/svg" xmlns:xlink="http://www.w3.org/1999/xlink" x="0px" y="0px"
	 viewBox="0 0 461.036 461.036" style="enable-background:new 0 0 461.036 461.036;" xml:space="preserve">
<g>
	<path d="M334.979,25.286C306.957,8.98,269.857,0,230.518,0s-76.438,8.98-104.462,25.286c-29.299,17.048-45.435,40.157-45.435,65.07
		v280.325c0,24.913,16.136,48.022,45.435,65.07c28.023,16.305,65.122,25.285,104.462,25.285s76.438-8.98,104.462-25.285
		c29.3-17.048,45.436-40.157,45.436-65.07V90.356C380.415,65.443,364.279,42.333,334.979,25.286z M365.415,370.681
		c0,19.35-13.488,37.854-37.979,52.105c-25.768,14.993-60.188,23.25-96.918,23.25s-71.15-8.257-96.918-23.25
		c-24.49-14.25-37.979-32.755-37.979-52.105v-6.892c7.511,9.321,17.734,17.852,30.435,25.242
		c28.023,16.305,65.122,25.285,104.462,25.285s76.438-8.98,104.462-25.285c12.701-7.39,22.924-15.921,30.436-25.242V370.681z
		 M365.415,323.96c0,19.35-13.488,37.854-37.979,52.105c-25.768,14.993-60.188,23.25-96.918,23.25s-71.15-8.257-96.918-23.25
		c-24.49-14.25-37.979-32.755-37.979-52.105v-6.893c7.511,9.321,17.734,17.852,30.435,25.242
		c28.023,16.306,65.122,25.286,104.462,25.286s76.439-8.98,104.462-25.286c12.701-7.39,22.924-15.921,30.436-25.242V323.96z
		 M365.415,277.239c0,19.35-13.488,37.855-37.979,52.105c-25.768,14.993-60.188,23.25-96.918,23.25s-71.15-8.257-96.918-23.25
		c-24.49-14.25-37.979-32.755-37.979-52.105v-6.892c7.511,9.321,17.734,17.852,30.435,25.242
		c28.023,16.305,65.122,25.285,104.462,25.285s76.438-8.98,104.462-25.285c12.701-7.39,22.924-15.921,30.436-25.242V277.239z
		 M365.415,230.518c0,19.35-13.488,37.854-37.979,52.105c-25.768,14.993-60.188,23.25-96.918,23.25s-71.15-8.257-96.918-23.25
		c-24.49-14.25-37.979-32.755-37.979-52.105v-6.892c7.511,9.321,17.734,17.852,30.435,25.242
		c28.023,16.305,65.122,25.285,104.462,25.285s76.438-8.98,104.462-25.285c12.701-7.39,22.924-15.921,30.436-25.242V230.518z
		 M365.415,183.797c0,19.35-13.488,37.854-37.979,52.105c-25.768,14.993-60.188,23.25-96.918,23.25s-71.15-8.257-96.918-23.25
		c-24.49-14.25-37.979-32.755-37.979-52.105v-6.892c7.511,9.321,17.734,17.852,30.435,25.242
		c28.023,16.305,65.122,25.285,104.462,25.285s76.438-8.98,104.462-25.285c12.701-7.39,22.924-15.921,30.436-25.242V183.797z
		 M365.415,137.077c0,19.35-13.488,37.854-37.979,52.105c-25.768,14.993-60.188,23.25-96.918,23.25s-71.15-8.257-96.918-23.25
		c-24.49-14.25-37.979-32.755-37.979-52.105v-6.892c7.511,9.321,17.734,17.852,30.435,25.242
		c28.023,16.305,65.122,25.285,104.462,25.285s76.438-8.98,104.462-25.285c12.701-7.39,22.924-15.921,30.436-25.242V137.077z
		 M327.436,142.461c-25.768,14.993-60.188,23.25-96.918,23.25s-71.15-8.257-96.918-23.25c-24.49-14.25-37.979-32.755-37.979-52.105
		S109.109,52.501,133.6,38.25C159.367,23.257,193.787,15,230.518,15s71.15,8.257,96.918,23.25
		c24.491,14.25,37.979,32.755,37.979,52.105S351.927,128.21,327.436,142.461z"/>
	<path d="M316.083,46.195c-23.408-12.073-53.796-18.722-85.565-18.722s-62.157,6.649-85.565,18.722
		c-23.423,12.081-36.857,28.177-36.857,44.161s13.435,32.08,36.857,44.161c23.408,12.073,53.796,18.722,85.565,18.722
		s62.157-6.649,85.565-18.722c23.424-12.081,36.858-28.177,36.858-44.161S339.507,58.276,316.083,46.195z M309.207,121.185
		c-21.321,10.997-49.268,17.053-78.689,17.053s-57.368-6.056-78.689-17.053c-17.724-9.141-28.733-20.954-28.733-30.829
		s11.01-21.688,28.733-30.83c21.322-10.997,49.268-17.053,78.689-17.053s57.368,6.056,78.689,17.053
		c17.725,9.142,28.734,20.955,28.734,30.83S326.932,112.044,309.207,121.185z"/>
	<path d="M285.002,57.642c-2.095-3.575-6.689-4.774-10.263-2.68l-4.615,2.704c-14.975-5.934-32.101-4.764-46.2,3.495l-0.157,0.092
		c-6.053,3.546-9.64,9.851-9.596,16.866c0.024,3.834,1.137,7.439,3.131,10.49l-27.469,16.091c-0.929-1.06-1.06-2.292-1.061-2.873
		c-0.003-0.767,0.207-2.676,2.202-3.828c3.587-2.071,4.816-6.658,2.745-10.245c-2.07-3.587-6.656-4.816-10.245-2.745
		c-6.096,3.52-9.724,9.823-9.702,16.862c0.011,3.857,1.123,7.482,3.126,10.549c-2.713,2.314-3.468,6.303-1.602,9.488
		c1.396,2.383,3.903,3.71,6.479,3.71c1.288,0,2.593-0.332,3.784-1.03l4.668-2.734c6.248,2.474,12.867,3.723,19.488,3.722
		c9.251,0,18.5-2.413,26.72-7.232l0.148-0.087c6.051-3.547,9.635-9.852,9.59-16.865c-0.025-3.83-1.136-7.43-3.127-10.478
		l27.466-16.089c0.928,1.059,1.061,2.291,1.063,2.871c0.002,0.768-0.207,2.677-2.202,3.829l-4.733,2.732
		c-3.587,2.071-4.816,6.658-2.745,10.245c2.07,3.589,6.658,4.816,10.245,2.746l4.733-2.733c6.098-3.521,9.725-9.826,9.702-16.867
		c-0.012-3.858-1.125-7.485-3.131-10.552C286.121,64.776,286.858,60.81,285.002,57.642z M229.17,78.024
		c-0.004-0.765,0.198-2.669,2.172-3.825l0.157-0.092c5.955-3.487,12.662-5.2,19.362-5.158l-20.533,12.028
		C229.324,79.902,229.174,78.62,229.17,78.024z M231.171,101.488c0.005,0.765-0.197,2.668-2.175,3.828l-0.148,0.087
		c-5.954,3.49-12.66,5.206-19.359,5.166l20.531-12.027C231.018,99.616,231.167,100.893,231.171,101.488z"/>
</g>
<g>
</g>
<g>
</g>
<g>
</g>
<g>
</g>
<g>
</g>
<g>
</g>
<g>
</g>
<g>
</g>
<g>
</g>
<g>
</g>
<g>
</g>
<g>
</g>
<g>
</g>
<g>
</g>
<g>
</g>
</svg>
