<?xml version="1.0" encoding="iso-8859-1"?>
<!-- Generator: Adobe Illustrator 19.0.0, SVG Export Plug-In . SVG Version: 6.00 Build 0)  -->
<svg version="1.1" id="Layer_1" xmlns="http://www.w3.org/2000/svg" xmlns:xlink="http://www.w3.org/1999/xlink" x="0px" y="0px"
	 viewBox="0 0 512.619 512.619" style="enable-background:new 0 0 512.619 512.619;" xml:space="preserve">
<polygon style="fill:#8D6E63;" points="508.619,272.309 508.619,272.309 508.619,440.309 507.019,440.309 508.619,439.909 
	8.619,441.509 8.619,274.309 8.619,273.509 381.819,272.309 "/>
<polygon style="fill:#BCAAA4;" points="508.619,271.909 476.619,244.309 36.619,244.309 9.019,268.709 10.619,268.709 
	8.619,273.509 381.419,273.109 296.619,271.909 381.819,272.709 "/>
<path style="fill:#A1887F;" d="M313.019,44.309h103.6v64h-2.4h-101.6h-0.4c-17.6,0-32-14.4-32-32s14.4-32,32-32H313.019z"/>
<polygon style="fill:#BCAAA4;" points="337.019,440.309 85.019,440.309 49.019,440.309 9.019,440.309 8.619,440.309 5.419,440.309 
	36.619,468.309 476.619,468.309 507.019,440.309 508.619,439.909 "/>
<path d="M476.619,472.309h-440c-0.8,0-2-0.4-2.8-0.8l-31.2-27.2c-1.6-1.6-2-4-0.4-5.6s4-2,5.6-0.4l30,26h436.8l29.2-26
	c0.4-0.4,0.8-0.8,1.2-0.8l1.6-0.4c2-0.8,4.4,0.4,5.2,2.4c0.8,2-0.4,4.4-2.4,5.2l-0.8,0.4l-30,26.4
	C478.219,471.909,477.419,472.309,476.619,472.309z"/>
<path d="M4.219,276.709c-1.2,0-2.4-0.4-3.2-1.6c-1.6-1.6-1.2-4.4,0.4-5.6l4.4-4l27.6-24.4c0.8-0.8,1.6-1.2,2.8-1.2h440
	c0.8,0,2,0.4,2.8,0.8l32,27.6c1.6,1.6,2,4,0.4,5.6s-4,2-5.6,0.4l-31.2-26.8h-436.8l-31.2,27.6
	C6.219,276.309,5.419,276.709,4.219,276.709z"/>
<path d="M4.619,444.309c-2.4,0-4-1.6-4-4v-168c0-2.4,1.6-4,4-4h44c2.4,0,4,1.6,4,4s-1.6,4-4,4h-40v164
	C8.619,442.709,7.019,444.309,4.619,444.309z"/>
<path d="M48.619,444.309h-40c-2.4,0-4-1.6-4-4s1.6-4,4-4h40c2.4,0,4,1.6,4,4S51.019,444.309,48.619,444.309z"/>
<path d="M508.619,444.309h-424c-2.4,0-4-1.6-4-4s1.6-4,4-4h420v-160h-420c-2.4,0-4-1.6-4-4s1.6-4,4-4h424c2.4,0,4,1.6,4,4v168
	C512.619,442.709,511.019,444.309,508.619,444.309z"/>
<path d="M37.019,248.309c-0.4,0-0.4,0-0.4,0c-2.4,0-4-2-4-4c0-2.4,2-4,4-4c0,0,0.4,0,0.8,0c43.2,0,286.4-23.6,374.4-132.4
	c1.2-1.6,4-2,5.6-0.4c1.6,1.2,2,4,0.8,5.6C327.819,223.909,80.619,248.309,37.019,248.309z"/>
<path d="M416.619,112.309h-104c-20,0-36-16-36-36s16.4-36,36-36h104c2.4,0,4,1.6,4,4v64
	C420.619,110.709,419.019,112.309,416.619,112.309z M312.619,48.309c-15.6,0-28,12.4-28,28s12.8,28,28,28h100v-56H312.619z"/>
<path d="M312.619,112.309c-2.4,0-4-1.6-4-4v-36c0-2.4,1.6-4,4-4s4,1.6,4,4v36C316.619,110.709,315.019,112.309,312.619,112.309z"/>
<path d="M312.619,56.309c-2.4,0-4-1.6-4-4v-8c0-2.4,1.6-4,4-4s4,1.6,4,4v8C316.619,54.709,315.019,56.309,312.619,56.309z"/>
<g>
</g>
<g>
</g>
<g>
</g>
<g>
</g>
<g>
</g>
<g>
</g>
<g>
</g>
<g>
</g>
<g>
</g>
<g>
</g>
<g>
</g>
<g>
</g>
<g>
</g>
<g>
</g>
<g>
</g>
</svg>
