<?xml version="1.0" encoding="iso-8859-1"?>
<!-- Generator: Adobe Illustrator 17.1.0, SVG Export Plug-In . SVG Version: 6.00 Build 0)  -->
<!DOCTYPE svg PUBLIC "-//W3C//DTD SVG 1.1//EN" "http://www.w3.org/Graphics/SVG/1.1/DTD/svg11.dtd">
<svg version="1.1" id="Capa_1" xmlns="http://www.w3.org/2000/svg" xmlns:xlink="http://www.w3.org/1999/xlink" x="0px" y="0px"
	 viewBox="0 0 511 511" style="enable-background:new 0 0 511 511;" xml:space="preserve">
<g>
	<g>
		<path d="M215.503,511c-0.049,0-0.098,0-0.147-0.001c-4.142-0.08-7.434-3.501-7.354-7.643l8-416
			c0.08-4.142,3.503-7.438,7.643-7.354c4.142,0.08,7.434,3.501,7.354,7.643l-8,416C222.92,507.736,219.578,511,215.503,511z"/>
	</g>
	<g>
		<path d="M295.497,511c-4.075,0-7.417-3.264-7.496-7.356l-8-416c-0.08-4.141,3.213-7.563,7.354-7.643
			c4.132-0.081,7.563,3.213,7.643,7.354l8,416c0.08,4.141-3.213,7.563-7.354,7.643C295.595,511,295.546,511,295.497,511z"/>
	</g>
	<g>
		<path d="M311.5,511h-112c-4.142,0-7.5-3.358-7.5-7.5s3.358-7.5,7.5-7.5h112c4.142,0,7.5,3.358,7.5,7.5S315.642,511,311.5,511z"/>
	</g>
	<g>
		<path d="M295.5,95h-80c-4.142,0-7.5-3.358-7.5-7.5s3.358-7.5,7.5-7.5h80c4.142,0,7.5,3.358,7.5,7.5S299.642,95,295.5,95z"/>
	</g>
	<g>
		<path d="M279.5,71h-48c-4.142,0-7.5-3.358-7.5-7.5s3.358-7.5,7.5-7.5h48c4.142,0,7.5,3.358,7.5,7.5S283.642,71,279.5,71z"/>
	</g>
	<g>
		<path d="M239.5,95c-4.142,0-7.5-3.358-7.5-7.5v-48c0-4.142,3.358-7.5,7.5-7.5s7.5,3.358,7.5,7.5v48
			C247,91.642,243.642,95,239.5,95z"/>
	</g>
	<g>
		<path d="M271.5,95c-4.142,0-7.5-3.358-7.5-7.5v-48c0-4.142,3.358-7.5,7.5-7.5s7.5,3.358,7.5,7.5v48
			C279,91.642,275.642,95,271.5,95z"/>
	</g>
	<g>
		<path d="M271.5,47h-32c-4.142,0-7.5-3.358-7.5-7.5s3.358-7.5,7.5-7.5h32c4.142,0,7.5,3.358,7.5,7.5S275.642,47,271.5,47z"/>
	</g>
	<g>
		<path d="M271.5,47c-4.142,0-7.5-3.358-7.5-7.5c0-4.687-3.813-8.5-8.5-8.5s-8.5,3.813-8.5,8.5c0,4.142-3.358,7.5-7.5,7.5
			s-7.5-3.358-7.5-7.5c0-12.958,10.542-23.5,23.5-23.5S279,26.542,279,39.5C279,43.642,275.642,47,271.5,47z"/>
	</g>
	<g>
		<path d="M255.5,31c-4.142,0-7.5-3.358-7.5-7.5v-16c0-4.142,3.358-7.5,7.5-7.5s7.5,3.358,7.5,7.5v16
			C263,27.642,259.642,31,255.5,31z"/>
	</g>
	<g>
		<path d="M291.808,439h-72.615c-4.142,0-7.5-3.358-7.5-7.5s3.358-7.5,7.5-7.5h72.615c4.142,0,7.5,3.358,7.5,7.5
			S295.95,439,291.808,439z"/>
	</g>
	<g>
		<path d="M291.5,399h-72c-4.142,0-7.5-3.358-7.5-7.5s3.358-7.5,7.5-7.5h72c4.142,0,7.5,3.358,7.5,7.5S295.642,399,291.5,399z"/>
	</g>
	<g>
		<path d="M291.808,359h-72.615c-4.142,0-7.5-3.358-7.5-7.5s3.358-7.5,7.5-7.5h72.615c4.142,0,7.5,3.358,7.5,7.5
			S295.95,359,291.808,359z"/>
	</g>
	<g>
		<path d="M291.808,319h-72.615c-4.142,0-7.5-3.358-7.5-7.5s3.358-7.5,7.5-7.5h72.615c4.142,0,7.5,3.358,7.5,7.5
			S295.95,319,291.808,319z"/>
	</g>
	<g>
		<path d="M291.039,279h-71.077c-4.142,0-7.5-3.358-7.5-7.5s3.358-7.5,7.5-7.5h71.077c4.142,0,7.5,3.358,7.5,7.5
			S295.181,279,291.039,279z"/>
	</g>
	<g>
		<path d="M289.5,239h-68c-4.142,0-7.5-3.358-7.5-7.5s3.358-7.5,7.5-7.5h68c4.142,0,7.5,3.358,7.5,7.5S293.642,239,289.5,239z"/>
	</g>
	<g>
		<path d="M289.5,199h-68c-4.142,0-7.5-3.358-7.5-7.5s3.358-7.5,7.5-7.5h68c4.142,0,7.5,3.358,7.5,7.5S293.642,199,289.5,199z"/>
	</g>
	<g>
		<path d="M287.5,159h-64c-4.142,0-7.5-3.358-7.5-7.5s3.358-7.5,7.5-7.5h64c4.142,0,7.5,3.358,7.5,7.5S291.642,159,287.5,159z"/>
	</g>
	<g>
		<path d="M287.5,119h-64c-4.142,0-7.5-3.358-7.5-7.5s3.358-7.5,7.5-7.5h64c4.142,0,7.5,3.358,7.5,7.5S291.642,119,287.5,119z"/>
	</g>
	<g>
		<path d="M255.5,511c-4.142,0-7.5-3.358-7.5-7.5v-24c0-4.142,3.358-7.5,7.5-7.5s7.5,3.358,7.5,7.5v24
			C263,507.642,259.642,511,255.5,511z"/>
	</g>
	<g>
		<path d="M255.5,375c-4.142,0-7.5-3.358-7.5-7.5v-16c0-4.142,3.358-7.5,7.5-7.5s7.5,3.358,7.5,7.5v16
			C263,371.642,259.642,375,255.5,375z"/>
	</g>
	<g>
		<path d="M255.5,295c-4.142,0-7.5-3.358-7.5-7.5v-16c0-4.142,3.358-7.5,7.5-7.5s7.5,3.358,7.5,7.5v16
			C263,291.642,259.642,295,255.5,295z"/>
	</g>
	<g>
		<path d="M255.5,215c-4.142,0-7.5-3.358-7.5-7.5v-16c0-4.142,3.358-7.5,7.5-7.5s7.5,3.358,7.5,7.5v16
			C263,211.642,259.642,215,255.5,215z"/>
	</g>
</g>
<g>
</g>
<g>
</g>
<g>
</g>
<g>
</g>
<g>
</g>
<g>
</g>
<g>
</g>
<g>
</g>
<g>
</g>
<g>
</g>
<g>
</g>
<g>
</g>
<g>
</g>
<g>
</g>
<g>
</g>
</svg>
