<?xml version="1.0" encoding="iso-8859-1"?>
<!-- Generator: Adobe Illustrator 19.0.0, SVG Export Plug-In . SVG Version: 6.00 Build 0)  -->
<svg version="1.1" id="Layer_1" xmlns="http://www.w3.org/2000/svg" xmlns:xlink="http://www.w3.org/1999/xlink" x="0px" y="0px"
	 viewBox="0 0 512 512" style="enable-background:new 0 0 512 512;" xml:space="preserve">
<g>
	<g>
		<path d="M495.432,136.818h-26.188V59.324c0-4.428-3.589-8.017-8.017-8.017h-68.409c-4.427,0-8.017,3.588-8.017,8.017
			c0,4.428,3.589,8.017,8.017,8.017h60.393v69.478h-308.91v-34.739c0-9.136-7.432-16.568-16.568-16.568H58.789V67.34h299.825
			c4.427,0,8.017-3.588,8.017-8.017c0-4.428-3.589-8.017-8.017-8.017H50.772c-4.427,0-8.017,3.588-8.017,8.017v26.188H16.568
			C7.432,85.511,0,92.943,0,102.079v94.063c0,4.428,3.589,8.017,8.017,8.017c4.427,0,8.017-3.588,8.017-8.017v-94.063
			c0-0.294,0.239-0.534,0.534-0.534h111.165c0.295,0,0.534,0.241,0.534,0.534v42.756c0,4.428,3.589,8.017,8.017,8.017h359.148
			c0.295,0,0.534,0.24,0.534,0.534v290.739c0,0.294-0.239,0.534-0.534,0.534H16.568c-0.295,0-0.534-0.241-0.534-0.534V230.347
			c0-4.428-3.589-8.017-8.017-8.017c-4.427,0-8.017,3.588-8.017,8.017v213.779c0,9.136,7.432,16.568,16.568,16.568h478.864
			c9.136,0,16.568-7.432,16.568-16.568V153.386C512,144.25,504.568,136.818,495.432,136.818z"/>
	</g>
</g>
<g>
	<g>
		<path d="M311.582,337.77c-13.851,0-25.119,11.268-25.119,25.119c0,13.851,11.268,25.119,25.119,25.119
			c13.851,0,25.119-11.268,25.119-25.119C336.701,349.039,325.433,337.77,311.582,337.77z M311.582,371.975
			c-5.01,0-9.086-4.076-9.086-9.086c0-5.01,4.076-9.086,9.086-9.086c5.01,0,9.086,4.076,9.086,9.086
			C320.668,367.899,316.592,371.975,311.582,371.975z"/>
	</g>
</g>
<g>
	<g>
		<path d="M345.787,295.015c-13.851,0-25.119,11.268-25.119,25.119c0,13.851,11.268,25.119,25.119,25.119
			c13.851,0,25.119-11.268,25.119-25.119C370.906,306.283,359.638,295.015,345.787,295.015z M345.787,329.219
			c-5.01,0-9.086-4.076-9.086-9.086c0-5.01,4.076-9.086,9.086-9.086c5.01,0,9.086,4.076,9.086,9.086
			C354.873,325.144,350.797,329.219,345.787,329.219z"/>
	</g>
</g>
<g>
	<g>
		<path d="M204.693,333.495h-17.637v-17.637c0-4.428-3.589-8.017-8.017-8.017s-8.017,3.588-8.017,8.017v17.637h-17.637
			c-4.427,0-8.017,3.588-8.017,8.017c0,4.428,3.589,8.017,8.017,8.017h17.637v17.637c0,4.428,3.589,8.017,8.017,8.017
			s8.017-3.588,8.017-8.017v-17.637h17.637c4.427,0,8.017-3.588,8.017-8.017C212.71,337.083,209.12,333.495,204.693,333.495z"/>
	</g>
</g>
<g>
	<g>
		<path d="M256,299.29h-17.102c-4.427,0-8.017,3.588-8.017,8.017c0,4.428,3.589,8.017,8.017,8.017H256
			c4.427,0,8.017-3.588,8.017-8.017C264.017,302.878,260.427,299.29,256,299.29z"/>
	</g>
</g>
<g>
	<g>
		<path d="M256,333.495h-17.102c-4.427,0-8.017,3.588-8.017,8.017c0,4.428,3.589,8.017,8.017,8.017H256
			c4.427,0,8.017-3.588,8.017-8.017C264.017,337.083,260.427,333.495,256,333.495z"/>
	</g>
</g>
<g>
	<g>
		<path d="M340.977,265.509v-18.06c0-4.428-3.589-8.017-8.017-8.017h-51.307c-4.427,0-8.017,3.588-8.017,8.017v17.637h-9.62v-35.273
			h90.321c6.778,0,12.292-5.514,12.292-12.292v-29.929c0-4.428-3.589-8.017-8.017-8.017s-8.017,3.588-8.017,8.017v26.188h-90.322
			c-6.778,0-12.292,5.514-12.292,12.292v39.015h-9.62v-17.637c0-4.428-3.589-8.017-8.017-8.017H179.04
			c-4.427,0-8.017,3.588-8.017,8.017v18.06c-38.387,4.02-68.409,36.57-68.409,76.003c0,42.141,34.285,76.426,76.426,76.426
			c25.606,0,49.593-12.992,63.689-34.205h26.543c14.096,21.212,38.083,34.205,63.689,34.205c42.141,0,76.426-34.285,76.426-76.426
			C409.386,302.078,379.364,269.529,340.977,265.509z M289.67,255.466h35.273v9.62H289.67V255.466z M187.056,255.466h35.273v9.62
			h-35.273V255.466z M332.96,401.904c-21.475,0-41.514-11.573-52.296-30.204c-1.433-2.476-4.077-4.001-6.938-4.001h-35.452
			c-2.861,0-5.505,1.525-6.938,4.001c-10.783,18.631-30.822,30.204-52.297,30.204c-33.3,0-60.393-27.092-60.393-60.393
			s27.092-60.392,60.393-60.392H332.96c33.3,0,60.393,27.092,60.393,60.392S366.261,401.904,332.96,401.904z"/>
	</g>
</g>
<g>
</g>
<g>
</g>
<g>
</g>
<g>
</g>
<g>
</g>
<g>
</g>
<g>
</g>
<g>
</g>
<g>
</g>
<g>
</g>
<g>
</g>
<g>
</g>
<g>
</g>
<g>
</g>
<g>
</g>
</svg>
