<?xml version="1.0" encoding="iso-8859-1"?>
<!-- Generator: Adobe Illustrator 19.0.0, SVG Export Plug-In . SVG Version: 6.00 Build 0)  -->
<svg version="1.1" id="Layer_1" xmlns="http://www.w3.org/2000/svg" xmlns:xlink="http://www.w3.org/1999/xlink" x="0px" y="0px"
	 viewBox="0 0 511.999 511.999" style="enable-background:new 0 0 511.999 511.999;" xml:space="preserve">
<rect x="8.91" y="121.045" style="fill:#B27B39;" width="494.168" height="351.474"/>
<rect x="64.41" y="176.539" style="fill:#B1E9F9;" width="383.18" height="240.474"/>
<path style="fill:#F9EFAA;" d="M304.652,329.429c9.494-11.186,15.741-23.445,15.741-35.827c0-23.259-16.025-42.112-35.777-42.112
	c-15.803,0-28.617,15.074-28.617,33.691c0-18.617-12.814-33.691-28.617-33.691c-19.765,0-35.777,18.852-35.777,42.112
	c0,12.383,6.247,24.642,15.741,35.827H304.652z"/>
<rect x="64.41" y="329.433" style="fill:#C2EEF9;" width="383.18" height="87.592"/>
<polygon style="fill:#9B672F;" points="64.41,176.545 64.41,417.019 8.916,472.513 8.916,121.039 "/>
<path d="M503.084,112.128h-170.26l-70.177-78.586c-1.692-1.894-4.111-2.977-6.65-2.977c-2.539,0-4.959,1.083-6.65,2.977
	l-70.177,78.586H8.916c-4.924,0-8.916,3.992-8.916,8.916v351.474c0,4.924,3.992,8.916,8.916,8.916h397.668
	c4.924,0,8.916-3.992,8.916-8.916s-3.992-8.916-8.916-8.916H30.441l37.662-37.662h375.791l37.662,37.662h-47.431
	c-4.924,0-8.916,3.992-8.916,8.916s3.992,8.916,8.916,8.916h68.959c4.924,0,8.916-3.992,8.916-8.916V121.044
	C512,116.12,508.008,112.128,503.084,112.128z M447.59,167.633H68.104L30.438,129.96h451.123l-21.81,21.81
	c-3.482,3.482-3.482,9.128,0,12.609c1.74,1.74,4.023,2.612,6.304,2.612c2.281,0,4.564-0.87,6.304-2.612l21.808-21.808v308.423
	l-37.662-37.661V176.55C456.506,171.625,452.514,167.633,447.59,167.633z M255.995,52.867l52.92,59.26H203.076L255.995,52.867z
	 M73.326,408.107V338.35h294.423c4.924,0,8.916-3.992,8.916-8.916c0-4.924-3.992-8.916-8.916-8.916H211.6
	c-7.347-9.496-11.081-18.536-11.081-26.911c0-18.303,12.05-33.194,26.861-33.194c10.863,0,19.701,11.114,19.701,24.775
	c0,4.924,3.992,8.916,8.916,8.916c4.924,0,8.916-3.992,8.916-8.916c0-13.661,8.838-24.775,19.701-24.775
	c14.811,0,26.863,14.891,26.863,33.194c0,2.604-0.372,5.318-1.106,8.066c-1.27,4.758,1.557,9.644,6.315,10.915
	c4.753,1.272,9.645-1.557,10.915-6.315c1.134-4.249,1.71-8.511,1.71-12.666c0-28.136-20.049-51.026-44.695-51.026
	c-11.454,0-21.727,5.855-28.617,15.067c-6.89-9.212-17.163-15.067-28.617-15.067c-24.644,0-44.694,22.891-44.694,51.026
	c0,8.857,2.549,17.862,7.569,26.911H73.326v-66.376c0-4.924-3.992-8.916-8.916-8.916s-8.916,3.992-8.916,8.916v159.19
	l-37.662,37.661v-308.42l37.662,37.67v43.583c0,4.924,3.992,8.916,8.916,8.916s8.916-3.992,8.916-8.916v-38.36h365.347v135.052
	h-42.592c-4.924,0-8.916,3.992-8.916,8.916c0,4.924,3.992,8.916,8.916,8.916h42.592v69.757H73.326z"/>
<path d="M315.844,350.852h-87.583c-4.924,0-8.916,3.992-8.916,8.916c0,4.924,3.992,8.916,8.916,8.916h87.583
	c4.924,0,8.916-3.992,8.916-8.916C324.76,354.844,320.768,350.852,315.844,350.852z"/>
<path d="M211.815,359.768c0-4.924-3.992-8.916-8.916-8.916h-9.273c-4.924,0-8.916,3.992-8.916,8.916
	c0,4.924,3.992,8.916,8.916,8.916h9.273C207.823,368.684,211.815,364.693,211.815,359.768z"/>
<path d="M298.588,378.696h-85.181c-4.924,0-8.916,3.992-8.916,8.916c0,4.924,3.992,8.916,8.916,8.916h85.181
	c4.924,0,8.916-3.992,8.916-8.916C307.504,382.688,303.512,378.696,298.588,378.696z"/>
<path d="M388.795,287.792c-0.926-4.836-5.595-8.008-10.434-7.081l-29.011,5.555c-4.836,0.926-8.005,5.597-7.081,10.434
	c0.818,4.27,4.554,7.241,8.747,7.241c0.556,0,1.12-0.052,1.687-0.16l29.011-5.555C386.551,297.3,389.721,292.629,388.795,287.792z"
	/>
<path d="M351.776,215.884c-3.482-3.482-9.128-3.482-12.609,0l-17.592,17.592c-3.482,3.482-3.482,9.128,0,12.609
	c1.74,1.74,4.023,2.612,6.304,2.612s4.564-0.87,6.304-2.612l17.592-17.592C355.258,225.012,355.258,219.366,351.776,215.884z"/>
<path d="M256.586,197.223c-4.924,0-8.916,3.992-8.916,8.916v19.135c0,4.924,3.992,8.916,8.916,8.916
	c4.924,0,8.916-3.992,8.916-8.916v-19.135C265.502,201.215,261.511,197.223,256.586,197.223z"/>
<path d="M163.824,286.268l-29.011-5.555c-4.838-0.931-9.508,2.243-10.434,7.081c-0.926,4.836,2.244,9.508,7.081,10.434l29.011,5.555
	c0.567,0.108,1.131,0.16,1.687,0.16c4.192,0,7.929-2.971,8.747-7.241C171.831,291.865,168.66,287.194,163.824,286.268z"/>
<path d="M174.007,215.884c-3.482-3.482-9.128-3.482-12.609,0c-3.482,3.482-3.482,9.128,0,12.609l17.591,17.592
	c1.74,1.74,4.023,2.612,6.304,2.612s4.564-0.87,6.304-2.612c3.482-3.482,3.482-9.128,0-12.609L174.007,215.884z"/>
<g>
</g>
<g>
</g>
<g>
</g>
<g>
</g>
<g>
</g>
<g>
</g>
<g>
</g>
<g>
</g>
<g>
</g>
<g>
</g>
<g>
</g>
<g>
</g>
<g>
</g>
<g>
</g>
<g>
</g>
</svg>
