<?xml version="1.0" encoding="iso-8859-1"?>
<!-- Generator: Adobe Illustrator 19.0.0, SVG Export Plug-In . SVG Version: 6.00 Build 0)  -->
<svg version="1.1" id="Layer_1" xmlns="http://www.w3.org/2000/svg" xmlns:xlink="http://www.w3.org/1999/xlink" x="0px" y="0px"
	 viewBox="0 0 511.863 511.863" style="enable-background:new 0 0 511.863 511.863;" xml:space="preserve">
<g>
	<g>
		<g>
			<path d="M181.44,474.598c11.733,0,21.333-9.6,21.333-21.333s-9.6-21.333-21.333-21.333s-21.333,9.6-21.333,21.333
				S169.707,474.598,181.44,474.598z"/>
			<path d="M511.36,439.078c-0.107-0.213-0.213-0.533-0.32-0.747l-22.4-57.493l-22.613-174.933c-0.32-2.453-1.493-4.8-3.307-6.507
				L352,96.891v-35.2c0-31.04-25.067-56.213-56.107-56.427H56.32C25.173,5.265,0,30.545,0,61.691v388.587
				c0,31.04,25.173,56.32,56.32,56.32h239.573c31.04-0.107,56.107-25.387,56.107-56.427V315.345l22.4,21.867
				c-9.28,20.053-29.013,76.053,11.2,122.987c3.84,4.48,10.56,5.013,15.04,1.173c4.48-3.84,5.013-10.56,1.173-15.04
				c-39.573-46.293-6.613-103.467-5.227-105.813c2.56-4.267,1.813-9.707-1.707-13.12L304,238.438
				c-6.933-6.72-7.147-17.813-0.427-24.747c0.107-0.107,0.32-0.32,0.427-0.427c7.36-7.147,19.093-7.04,26.453,0.107l67.52,64.64
				c4.053,4.267,10.773,4.587,15.04,0.533c4.267-4.053,4.587-10.773,0.533-15.04c-0.32-0.32-0.533-0.64-0.853-0.853L352,204.411
				v-78.4l93.44,86.507l22.293,172.373c0.107,0.853,0.32,1.707,0.64,2.453l22.827,58.667c2.027,5.547,8.32,8.427,13.867,6.293
				C510.293,450.278,513.067,444.411,511.36,439.078z M56.32,26.598h239.573c18.027,0.107,32.96,13.973,34.453,32H21.653
				C23.253,40.571,38.293,26.705,56.32,26.598z M330.667,450.171c0.107,19.307-15.467,34.987-34.773,35.093H56.32
				c-19.307,0-34.987-15.68-34.987-35.093v-39.573h309.333V450.171z M330.667,102.011v87.04c-14.4-5.227-30.613-1.707-41.6,8.96
				c-15.36,14.933-15.68,39.573-0.747,54.933c0.213,0.213,0.533,0.533,0.747,0.747l41.6,40.747v94.827H21.333V79.931h309.333
				V102.011z"/>
		</g>
	</g>
</g>
<g>
</g>
<g>
</g>
<g>
</g>
<g>
</g>
<g>
</g>
<g>
</g>
<g>
</g>
<g>
</g>
<g>
</g>
<g>
</g>
<g>
</g>
<g>
</g>
<g>
</g>
<g>
</g>
<g>
</g>
</svg>
