<?xml version="1.0" encoding="iso-8859-1"?>
<!-- Generator: Adobe Illustrator 19.0.0, SVG Export Plug-In . SVG Version: 6.00 Build 0)  -->
<svg version="1.1" id="Layer_1" xmlns="http://www.w3.org/2000/svg" xmlns:xlink="http://www.w3.org/1999/xlink" x="0px" y="0px"
	 viewBox="0 0 511.955 511.955" style="enable-background:new 0 0 511.955 511.955;" xml:space="preserve">
<g>
	<g>
		<g>
			<path d="M128.511,216.488c4.16,4.053,10.773,3.947,14.827-0.213c4.053-4.16,3.947-10.773-0.213-14.827
				c-36.267-34.453-37.653-91.733-3.2-128c1.067-1.067,2.133-2.24,3.2-3.2c4.16-4.053,4.267-10.667,0.213-14.827
				c-4.053-4.16-10.667-4.267-14.827-0.213c-44.587,42.453-46.187,113.067-3.733,157.547
				C125.951,214.035,127.231,215.208,128.511,216.488z"/>
			<path d="M362.538,55.102c-4.16-4.053-10.773-3.947-14.827,0.213c-4.053,4.16-3.947,10.773,0.213,14.827
				c36.267,34.453,37.653,91.733,3.2,128c-1.067,1.067-2.133,2.24-3.2,3.2c-4.16,4.053-4.267,10.773-0.213,14.827
				c4.053,4.16,10.667,4.267,14.827,0.213c44.587-42.453,46.187-113.067,3.733-157.547
				C365.098,57.555,363.818,56.382,362.538,55.102z"/>
			<path d="M70.378,17.448c3.947-4.267,3.627-10.88-0.64-14.72c-4.267-3.84-10.88-3.627-14.72,0.64
				c-59.2,64.427-59.2,169.173,0,233.6c1.92,2.133,4.693,3.307,7.68,3.307c5.76,0,10.453-4.693,10.453-10.453
				c0-2.667-0.96-5.12-2.773-7.04C18.324,166.142,18.324,74.088,70.378,17.448z"/>
			<path d="M456.938,13.715c-3.947-4.267-10.56-4.48-14.72-0.64c-4.16,3.84-4.48,10.56-0.64,14.72
				c52.053,56.747,52.053,148.8,0,205.44c-3.947,4.267-3.627,10.88,0.64,14.72c4.267,3.947,10.88,3.627,14.72-0.64
				C516.138,182.888,516.138,78.142,456.938,13.715z"/>
			<path d="M255.338,100.968c-1.92-5.44-7.893-8.32-13.333-6.4c-2.987,1.067-5.333,3.413-6.4,6.4L94.591,497.982
				c-1.92,5.44,0.96,11.413,6.293,13.333c1.173,0.427,2.347,0.64,3.52,0.64h282.133c5.76,0,10.453-4.693,10.453-10.453
				c0-1.173-0.213-2.347-0.64-3.52L255.338,100.968z M358.911,454.568l-185.28-50.453l139.413-78.507L358.911,454.568z
				 M245.524,135.635l55.253,155.733l-87.893-63.893L245.524,135.635z M205.631,247.955l88.533,64.32l-139.2,78.293L205.631,247.955
				z M119.231,490.622l25.92-73.067l222.187,60.587l4.373,12.48H119.231z"/>
		</g>
	</g>
</g>
<g>
</g>
<g>
</g>
<g>
</g>
<g>
</g>
<g>
</g>
<g>
</g>
<g>
</g>
<g>
</g>
<g>
</g>
<g>
</g>
<g>
</g>
<g>
</g>
<g>
</g>
<g>
</g>
<g>
</g>
</svg>
