<?xml version="1.0" encoding="iso-8859-1"?>
<!-- Generator: Adobe Illustrator 19.0.0, SVG Export Plug-In . SVG Version: 6.00 Build 0)  -->
<svg version="1.1" id="Capa_1" xmlns="http://www.w3.org/2000/svg" xmlns:xlink="http://www.w3.org/1999/xlink" x="0px" y="0px"
	 viewBox="0 0 57 57" style="enable-background:new 0 0 57 57;" xml:space="preserve">
<g>
	<g>
		<path d="M28.5,0c-12.43,0-19,9.856-19,28.5c0,15.715,8.523,28.5,19,28.5s19-12.785,19-28.5C47.5,9.856,40.93,0,28.5,0z M28.5,2
			c10.273,0,14.608,7.705,16.198,16.571c-0.013,0.031-0.036,0.055-0.046,0.088c-0.021,0.075-2.22,7.513-7.844,12.844
			c-4.279,4.058-7.062,4.839-9.753,5.595c-0.693,0.195-1.408,0.41-2.13,0.664c-0.376-0.432-0.756-0.879-1.143-1.355
			c-6.647-8.174-10.716-20.832-10.756-20.959c-0.004-0.013-0.014-0.022-0.019-0.035C15.031,7.952,19.472,2,28.5,2z M28.5,55
			c-9.374,0-17-11.888-17-26.5c0-3.068,0.191-6.284,0.705-9.378c1.649,4.372,5.116,12.508,10.025,18.546
			c5.659,6.961,10.296,9.275,14.022,11.136c0.776,0.387,1.508,0.759,2.213,1.147C35.662,53.123,32.22,55,28.5,55z M39.735,48.363
			c-0.833-0.472-1.686-0.899-2.591-1.35c-3.111-1.553-6.571-3.288-10.748-7.643c0.393-0.12,0.791-0.233,1.2-0.347
			c2.789-0.783,5.949-1.672,10.588-6.069c3.556-3.37,5.799-7.434,7.064-10.268c0.178,1.952,0.251,3.912,0.251,5.814
			C45.5,36.403,43.267,43.504,39.735,48.363z"/>
		<path d="M28.5,27c6.065,0,11-4.935,11-11s-4.935-11-11-11s-11,4.935-11,11S22.435,27,28.5,27z M28.5,7c4.963,0,9,4.037,9,9
			s-4.037,9-9,9s-9-4.037-9-9S23.537,7,28.5,7z"/>
		<path d="M32.258,19c1.654,0,3-1.346,3-3c0-0.553-0.447-1-1-1c-0.553,0-1,0.447-1,1c0,0.552-0.448,1-1,1c-0.552,0-1-0.448-1-1
			c0-0.553-0.447-1-1-1s-1,0.447-1,1C29.258,17.654,30.604,19,32.258,19z"/>
		<path d="M27.258,16c0-0.553-0.447-1-1-1s-1,0.447-1,1c0,0.552-0.448,1-1,1s-1-0.448-1-1c0-0.553-0.447-1-1-1s-1,0.447-1,1
			c0,1.654,1.346,3,3,3S27.258,17.654,27.258,16z"/>
	</g>
</g>
<g>
</g>
<g>
</g>
<g>
</g>
<g>
</g>
<g>
</g>
<g>
</g>
<g>
</g>
<g>
</g>
<g>
</g>
<g>
</g>
<g>
</g>
<g>
</g>
<g>
</g>
<g>
</g>
<g>
</g>
</svg>
