<?xml version="1.0" encoding="iso-8859-1"?>
<!-- Generator: Adobe Illustrator 19.0.0, SVG Export Plug-In . SVG Version: 6.00 Build 0)  -->
<svg xmlns="http://www.w3.org/2000/svg" xmlns:xlink="http://www.w3.org/1999/xlink" version="1.1" id="Layer_1" x="0px" y="0px" viewBox="0 0 490 490" style="enable-background:new 0 0 490 490;" xml:space="preserve" width="512" height="512">
<g>
	<g>
		<path style="fill:#663D0E;" d="M239.657,423.386c-65.39,0-118.588-53.199-118.588-118.588v-61.409c0-4.142,3.358-7.5,7.5-7.5    s7.5,3.358,7.5,7.5v61.409c0,57.119,46.47,103.588,103.588,103.588s103.588-46.47,103.588-103.588v-61.409    c0-4.142,3.358-7.5,7.5-7.5s7.5,3.358,7.5,7.5v61.409C358.244,370.187,305.046,423.386,239.657,423.386z"/>
	</g>
	<g>
		<path style="fill:#663D0E;" d="M239.657,422.886c-65.114,0-118.088-52.974-118.088-118.088v-61.409c0-3.866,3.134-7,7-7    s7,3.134,7,7v61.409c0,57.395,46.694,104.088,104.088,104.088c57.394,0,104.088-46.694,104.088-104.088v-61.409    c0-3.866,3.134-7,7-7s7,3.134,7,7v61.409C357.744,369.912,304.77,422.886,239.657,422.886z"/>
	</g>
	<polygon style="fill:#FFD646;" points="377.654,214.712 101.659,214.712 121.659,66.614 239.657,96.614 357.654,66.614  "/>
	<polygon style="fill:#FFD646;" points="377.654,216.129 101.659,216.129 121.659,68.032 239.657,98.032 357.654,68.032  "/>
	<circle style="fill:#CCA51C;" cx="143.444" cy="135.663" r="10.413"/>
	<polygon style="fill:#EEC021;" points="490,243.389 0,243.389 10,206.129 480,206.129  "/>
	<circle style="fill:#CCA51C;" cx="335.222" cy="135.663" r="10.413"/>
	<g>
		<polygon style="fill:#CCA51C;" points="371.839,171.654 107.474,171.654 107.474,171.654 101.659,216.129 377.654,216.129     371.839,171.654   "/>
	</g>
	<polygon style="fill:#EEC021;" points="490,243.389 0,243.389 10,206.129 480,206.129  "/>
	<polygon style="fill:#EEC021;" points="490,243.389 0,243.389 10,206.129 480,206.129  "/>
	<polygon style="fill:#CCA51C;" points="5,226.574 0,245.204 490,245.204 485,226.574  "/>
</g>















</svg>
