<?xml version="1.0" encoding="iso-8859-1"?>
<!-- Generator: Adobe Illustrator 19.0.0, SVG Export Plug-In . SVG Version: 6.00 Build 0)  -->
<svg xmlns="http://www.w3.org/2000/svg" xmlns:xlink="http://www.w3.org/1999/xlink" version="1.1" id="Layer_1" x="0px" y="0px" viewBox="0 0 490.744 490.744" style="enable-background:new 0 0 490.744 490.744;" xml:space="preserve" width="512" height="512">
<g>
	<path style="fill:#7A797E;" d="M202.451,31.385c-33.255,0-60.213,30.133-60.213,63.388h-29.595   c0-50.912,41.272-94.175,92.184-94.175L202.451,31.385z"/>
	<path style="fill:#D8D7D9;" d="M385.533,468.01H105.211c-14.3,0-26-11.7-26-26V117.997c0-14.3,11.7-26,26-26h280.323   c14.3,0,26,11.7,26,26V442.01C411.533,456.31,399.833,468.01,385.533,468.01z"/>
	<path style="fill:#7A797E;" d="M301.738,211.17h-103.91c-12.941,0-23.528-10.588-23.528-23.528v-6.86   c0-12.941,10.588-23.528,23.528-23.528h103.91c12.941,0,23.528,10.588,23.528,23.528v6.86   C325.267,200.583,314.679,211.17,301.738,211.17z"/>
	
		<rect x="224.801" y="34.285" transform="matrix(1 -0.0087 0.0087 1 -0.4162 2.1849)" style="fill:#D8D7D9;" width="49.995" height="28.855"/>
	
		<rect x="225.06" y="63.139" transform="matrix(1 -0.0087 0.0087 1 -0.6683 2.1883)" style="fill:#D8D7D9;" width="49.995" height="28.855"/>
	<rect x="108.811" y="468.01" style="fill:#7A797E;" width="277.355" height="22.734"/>
	<rect x="79.211" y="323.468" style="fill:#7A797E;" width="332.323" height="67.768"/>
	
		<rect x="202.54" y="0.406" transform="matrix(1 -0.0087 0.0087 1 -0.2051 2.1779)" style="fill:#403E43;" width="93.129" height="48.312"/>
	<path style="opacity:0.33;fill:#403E43;" d="M385.533,91.997h-19.668v299.138c0,14.3-11.7,26-26,26H79.211v24.874   c0,14.3,11.7,26,26,26h280.323c14.3,0,26-11.7,26-26V117.997C411.533,103.697,399.833,91.997,385.533,91.997z"/>
</g>















</svg>
