<?xml version="1.0" encoding="iso-8859-1"?>
<!-- Generator: Adobe Illustrator 19.0.0, SVG Export Plug-In . SVG Version: 6.00 Build 0)  -->
<svg version="1.1" id="Layer_1" xmlns="http://www.w3.org/2000/svg" xmlns:xlink="http://www.w3.org/1999/xlink" x="0px" y="0px"
	 viewBox="0 0 511.989 511.989" style="enable-background:new 0 0 511.989 511.989;" xml:space="preserve">
<path style="fill:#F6BB42;" d="M247.056,333.339c32.297-40.094,57.188-73.124,74-98.171c10.108-15.047,17.093-26.875,21.358-36.171
	c2.891-6.281,9.641-20.968,0.641-29.968c-9.016-9.016-23.702-2.25-29.983,0.625c-9.297,4.266-21.125,11.25-36.172,21.359
	c-25.047,16.812-58.078,41.702-98.17,73.999C107.855,322.073,36.872,384.681,24.575,396.977
	c-13.89,13.907-22.484,31.579-24.187,49.766c-1.766,18.921,4.062,36.155,16.422,48.514l0,0
	c12.359,12.359,29.593,18.188,48.515,16.422c18.188-1.703,35.858-10.281,49.765-24.188
	C127.386,475.195,189.995,404.212,247.056,333.339z M56.388,455.523c-4.172-4.156-4.172-10.905,0-15.077
	c4.156-4.172,10.921-4.172,15.078,0c4.172,4.172,4.172,10.921,0,15.077C67.309,459.695,60.543,459.695,56.388,455.523z"/>
<path style="fill:#DA4453;" d="M100.62,412.571c-4.156-4.156-4.156-10.922,0-15.078l137.623-137.622
	c4.172-4.172,10.921-4.172,15.093,0c4.156,4.156,4.156,10.906,0,15.078L115.714,412.571
	C111.542,416.743,104.792,416.743,100.62,412.571z"/>
<path style="fill:#FFCE54;" d="M511.911,159.997c0-42.734-16.641-82.92-46.858-113.139C434.834,16.64,394.646,0,351.914,0
	c-42.733,0-82.905,16.641-113.124,46.859s-46.874,70.405-46.874,113.139c0,42.733,16.656,82.905,46.874,113.124l0,0
	c0,0.016,0,0,0,0.016c30.218,30.218,70.39,46.858,113.124,46.858c42.732,0,82.92-16.641,113.139-46.874
	C495.27,242.902,511.911,202.731,511.911,159.997z"/>
<path style="fill:#ED5564;" d="M278.618,17.703c-14.516,7.5-27.953,17.281-39.828,29.156c-8.734,8.734-16.328,18.312-22.719,28.531
	c16.109,20.312,47.203,56.296,104.765,113.874c59.591,59.592,96.06,90.811,115.966,106.419c10.109-6.359,19.594-13.905,28.25-22.562
	c11.921-11.906,21.718-25.391,29.218-39.953c-20.515-16.375-56.218-47.374-112.687-103.842
	C326.086,73.827,295.196,38.39,278.618,17.703z"/>
<g>
	<path style="fill:#DA4453;" d="M366.46,174.544c-8.327,8.328-21.827,8.328-30.155,0c-8.344-8.328-8.344-21.844,0-30.172
		c8.328-8.328,21.828-8.328,30.155,0C374.804,152.701,374.804,166.216,366.46,174.544z"/>
	<path style="fill:#DA4453;" d="M307.837,112.139c-8.328,8.328-21.844,8.328-30.172,0s-8.328-21.828,0-30.171
		c8.328-8.328,21.844-8.328,30.172,0C316.165,90.311,316.165,103.811,307.837,112.139z"/>
	<path style="fill:#DA4453;" d="M428.506,232.824c-8.328,8.328-21.828,8.328-30.156,0c-8.344-8.328-8.344-21.844,0-30.171
		c8.328-8.328,21.828-8.328,30.156,0C436.849,210.98,436.834,224.496,428.506,232.824z"/>
</g>
<path style="fill:#ED5564;" d="M419.959,15.109c0.031,0.062,7.062,24.562,29.141,46.64c22.078,22.078,47.64,30.171,47.702,30.203
	c-7.766-16.546-18.438-31.781-31.749-45.093C451.74,33.562,436.506,22.89,419.959,15.109z"/>
<path style="opacity:0.2;fill:#FFFFFF;enable-background:new    ;" d="M511.911,159.997c0-42.734-16.641-82.92-46.858-113.139
	c-2.531-2.531-5.141-4.953-7.797-7.281c25.593,29.171,39.577,66.171,39.577,105.326c0,42.75-16.656,82.92-46.874,113.139
	C419.74,288.26,379.568,304.9,336.836,304.9c-39.155,0-76.171-13.984-105.342-39.562c2.344,2.656,4.766,5.266,7.297,7.781l0,0
	c0,0.016,0,0,0,0.016c30.218,30.218,70.39,46.858,113.124,46.858c42.732,0,82.92-16.641,113.139-46.874
	C495.27,242.902,511.911,202.731,511.911,159.997z"/>
<g>
</g>
<g>
</g>
<g>
</g>
<g>
</g>
<g>
</g>
<g>
</g>
<g>
</g>
<g>
</g>
<g>
</g>
<g>
</g>
<g>
</g>
<g>
</g>
<g>
</g>
<g>
</g>
<g>
</g>
</svg>
