<?xml version="1.0" encoding="iso-8859-1"?>
<!-- Generator: Adobe Illustrator 19.0.0, SVG Export Plug-In . SVG Version: 6.00 Build 0)  -->
<svg version="1.1" id="Layer_1" xmlns="http://www.w3.org/2000/svg" xmlns:xlink="http://www.w3.org/1999/xlink" x="0px" y="0px"
	 viewBox="0 0 511.99 511.99" style="enable-background:new 0 0 511.99 511.99;" xml:space="preserve">
<path style="fill:#48CFAD;" d="M21.343,394.648c-5.874,0-10.671-4.781-10.671-10.656V63.998c0-5.891,4.797-10.671,10.671-10.671
	h469.32c5.891,0,10.672,4.78,10.672,10.671v319.994c0,5.875-4.781,10.656-10.672,10.656L21.343,394.648L21.343,394.648z"/>
<path style="fill:#E6E9ED;" d="M490.663,42.655H21.343C9.563,42.655,0,52.217,0,63.998v319.994c0,11.781,9.562,21.344,21.343,21.344
	h469.32c11.781,0,21.327-9.562,21.327-21.344V63.998C511.99,52.218,502.444,42.655,490.663,42.655z M490.663,383.992H21.343V63.998
	h469.32V383.992z"/>
<polygon style="fill:#CCD1D9;" points="341.338,469.335 170.669,469.335 191.934,384.086 320.026,384.055 "/>
<rect x="15.953" y="341.335" style="fill:#E6E9ED;" width="480.1" height="61.03"/>
<path style="fill:#434A54;" d="M266.667,373.336c0,5.875-4.766,10.656-10.672,10.656c-5.875,0-10.655-4.781-10.655-10.656
	c0-5.905,4.78-10.687,10.655-10.687C261.901,362.649,266.667,367.431,266.667,373.336z"/>
<path style="fill:#E6E9ED;" d="M341.338,447.991H170.669c-5.891,0-10.672,4.781-10.672,10.656c0,5.906,4.781,10.688,10.672,10.688
	h170.669c5.891,0,10.656-4.781,10.656-10.688C351.994,452.772,347.228,447.991,341.338,447.991z"/>
<path style="fill:#656D78;" d="M352.135,159.997H159.872c-5.891,0-10.672,4.766-10.672,10.656v106.686
	c0,4.25,2.531,8.094,6.453,9.78c1.094,0.469,27.609,11.531,100.451,11.531c72.874,0,99.202-11.062,100.296-11.531
	c3.89-1.718,6.405-5.53,6.405-9.78V170.653C362.806,164.763,358.025,159.997,352.135,159.997z"/>
<path style="fill:#434A54;" d="M429.992,160.481l-170.669-53.343c-2.078-0.641-4.297-0.641-6.359,0L82.296,160.481
	c-4.453,1.391-7.484,5.516-7.484,10.172c0,4.672,3.031,8.797,7.484,10.188l170.668,53.326c1.031,0.328,2.109,0.484,3.172,0.484
	c1.078,0,2.156-0.156,3.188-0.484l170.669-53.326c4.453-1.391,7.484-5.516,7.484-10.188
	C437.476,165.997,434.445,161.872,429.992,160.481z"/>
<g>
	<path style="fill:#FFCE54;" d="M426.805,234.651c-5.891,0-10.672-4.781-10.672-10.672v-53.326c0-5.891,4.781-10.656,10.672-10.656
		s10.672,4.766,10.672,10.656v53.326C437.476,229.87,432.695,234.651,426.805,234.651z"/>
	<path style="fill:#FFCE54;" d="M426.805,181.325h-170.81c-5.875,0-10.655-4.781-10.655-10.672s4.78-10.656,10.655-10.656h170.81
		c5.891,0,10.672,4.766,10.672,10.656S432.695,181.325,426.805,181.325z"/>
</g>
<g>
</g>
<g>
</g>
<g>
</g>
<g>
</g>
<g>
</g>
<g>
</g>
<g>
</g>
<g>
</g>
<g>
</g>
<g>
</g>
<g>
</g>
<g>
</g>
<g>
</g>
<g>
</g>
<g>
</g>
</svg>
