<?xml version="1.0" encoding="iso-8859-1"?>
<!-- Generator: Adobe Illustrator 19.0.0, SVG Export Plug-In . SVG Version: 6.00 Build 0)  -->
<svg version="1.1" id="Layer_1" xmlns="http://www.w3.org/2000/svg" xmlns:xlink="http://www.w3.org/1999/xlink" x="0px" y="0px"
	 viewBox="0 0 512.006 512.006" style="enable-background:new 0 0 512.006 512.006;" xml:space="preserve">
<rect x="224.655" y="319.099" style="fill:#DFDFE2;" width="62.693" height="192.907"/>
<rect x="224.655" y="319.099" style="fill:#ACAAB1;" width="62.693" height="33.025"/>
<path style="fill:#FFD422;" d="M444.638,274.435L280.654,14.103c-11.866-18.838-39.343-18.795-51.152,0.078L67.317,273.417
	c-12.559,20.073,1.82,46.134,25.498,46.213l326.17,1.096C442.796,320.807,457.329,294.583,444.638,274.435z"/>
<path style="fill:#FFE477;" d="M255.115,36.189l156.193,247.965l-310.674-1.044L255.115,38.254 M255.104,0
	c-9.845,0-19.687,4.728-25.601,14.181L67.317,273.417c-12.559,20.073,1.82,46.134,25.498,46.213l326.17,1.096
	c0.034,0,0.074,0,0.109,0c23.749,0,38.216-26.173,25.543-46.292L280.654,14.103C274.731,4.7,264.915,0,255.104,0L255.104,0z"/>
<g>
	<circle style="fill:#50000F;" cx="184.813" cy="252.08" r="19.383"/>
	<path style="fill:#50000F;" d="M299.011,184.14l-34.587-21.634c8.858-4.525,14.926-13.732,14.926-24.362
		c0-15.104-12.244-27.347-27.347-27.347c-15.103,0-27.347,12.244-27.347,27.347c0,11.035,6.54,20.537,15.952,24.859l-1.001,0.626
		c-0.672,0.379-1.325,0.787-1.957,1.225l-29.587,18.507c-3.468,2.169-4.521,6.74-2.352,10.206c2.169,3.467,6.74,4.521,10.208,2.352
		l10.732-6.712v47.501v0.685v26.661c0,4.091,3.316,7.406,7.406,7.406l0,0c4.091,0,7.406-3.316,7.406-7.406v-26.661h21.08v26.661
		c0,4.091,3.316,7.406,7.406,7.406l0,0c4.091,0,7.406-3.316,7.406-7.406v-26.661v-0.685v-48.642l13.799,8.632
		c3.468,2.169,8.038,1.116,10.206-2.352C303.533,190.878,302.479,186.309,299.011,184.14z"/>
</g>
<g>
	<path style="fill:#FFF5CC;" d="M115.071,273.202c-1.419,0-2.857-0.386-4.149-1.194c-3.669-2.296-4.782-7.131-2.487-10.8
		l28.845-46.107c2.297-3.67,7.131-4.782,10.8-2.488c3.669,2.296,4.782,7.131,2.487,10.8l-28.845,46.107
		C120.236,271.897,117.682,273.202,115.071,273.202z"/>
	<path style="fill:#FFF5CC;" d="M164.015,194.97c-1.419,0-2.856-0.386-4.149-1.194c-3.669-2.296-4.782-7.131-2.487-10.8
		l72.15-115.324c2.296-3.671,7.131-4.781,10.8-2.488c3.669,2.296,4.782,7.13,2.487,10.8l-72.15,115.324
		C169.179,193.666,166.626,194.97,164.015,194.97z"/>
	<path style="fill:#FFF5CC;" d="M406.621,292.537h-88.902c-4.328,0-7.837-3.508-7.837-7.837s3.509-7.837,7.837-7.837h88.902
		c4.328,0,7.837,3.508,7.837,7.837S410.95,292.537,406.621,292.537z"/>
</g>
<g>
</g>
<g>
</g>
<g>
</g>
<g>
</g>
<g>
</g>
<g>
</g>
<g>
</g>
<g>
</g>
<g>
</g>
<g>
</g>
<g>
</g>
<g>
</g>
<g>
</g>
<g>
</g>
<g>
</g>
</svg>
