<?xml version="1.0" encoding="iso-8859-1"?>
<!-- Generator: Adobe Illustrator 19.0.0, SVG Export Plug-In . SVG Version: 6.00 Build 0)  -->
<svg version="1.1" id="Layer_1" xmlns="http://www.w3.org/2000/svg" xmlns:xlink="http://www.w3.org/1999/xlink" x="0px" y="0px"
	 viewBox="0 0 512 512" style="enable-background:new 0 0 512 512;" xml:space="preserve">
<path style="fill:#333F45;" d="M485.517,57.379H26.483C11.476,57.379,0,68.855,0,83.862v220.69
	c0,14.124,11.476,26.483,26.483,26.483h256v-70.621c0-19.421,10.593-37.076,26.483-45.903c0,0.883,0,0.883,0,1.766v61.793h52.966
	v-61.793c0-0.883,0-0.883,0-1.766c15.89,8.828,26.483,26.483,26.483,45.903v70.621h97.103c14.124,0,26.483-11.476,26.483-26.483
	V83.862C512,68.855,500.524,57.379,485.517,57.379"/>
<path style="fill:#F0C41A;" d="M79.448,57.379v273.655h203.034v-70.621c0-19.421,10.593-37.076,26.483-45.903
	c0,0.883,0,0.883,0,1.766v61.793h52.966v-61.793c0-0.883,0-0.883,0-1.766c15.89,8.828,26.483,26.483,26.483,45.903v70.621h70.621
	V57.379H79.448z"/>
<g>
	<path style="fill:#D4DBDF;" d="M432.552,57.379h-8.828c-5.297,0-8.828-3.531-8.828-8.828s3.531-8.828,8.828-8.828h8.828
		c5.297,0,8.828,3.531,8.828,8.828S437.848,57.379,432.552,57.379"/>
	<path style="fill:#D4DBDF;" d="M397.241,57.379h-8.828c-5.297,0-8.828-3.531-8.828-8.828s3.531-8.828,8.828-8.828h8.828
		c5.297,0,8.828,3.531,8.828,8.828S402.538,57.379,397.241,57.379"/>
	<path style="fill:#D4DBDF;" d="M361.931,57.379h-8.828c-5.297,0-8.828-3.531-8.828-8.828s3.531-8.828,8.828-8.828h8.828
		c5.297,0,8.828,3.531,8.828,8.828S367.228,57.379,361.931,57.379"/>
</g>
<g>
	<path style="fill:#4795E2;" d="M114.759,101.517c-2.648,0-4.414-0.883-6.179-2.648c-1.766-1.766-2.648-3.531-2.648-6.179
		s0.883-4.414,2.648-6.179c3.531-3.531,8.828-3.531,12.359,0c1.766,1.766,2.648,3.531,2.648,6.179s-0.883,4.414-2.648,6.179
		C119.172,100.634,117.407,101.517,114.759,101.517"/>
	<path style="fill:#4795E2;" d="M150.069,101.517c-2.648,0-4.414-0.883-6.179-2.648c-1.766-1.766-2.648-3.531-2.648-6.179
		s0.883-4.414,2.648-6.179c3.531-3.531,8.828-3.531,12.359,0c1.766,1.766,2.648,3.531,2.648,6.179s-0.883,4.414-2.648,6.179
		S152.717,101.517,150.069,101.517"/>
	<path style="fill:#4795E2;" d="M185.379,101.517c-2.648,0-4.414-0.883-6.179-2.648s-2.648-3.531-2.648-6.179
		s0.883-4.414,2.648-6.179c3.531-3.531,8.828-3.531,12.359,0c1.766,1.766,2.648,3.531,2.648,6.179s-0.883,4.414-2.648,6.179
		C189.793,100.634,188.028,101.517,185.379,101.517"/>
	<path style="fill:#4795E2;" d="M423.724,101.517h-8.828c-5.297,0-8.828-3.531-8.828-8.828c0-5.297,3.531-8.828,8.828-8.828h8.828
		c5.297,0,8.828,3.531,8.828,8.828C432.552,97.986,429.021,101.517,423.724,101.517"/>
	<path style="fill:#4795E2;" d="M379.586,101.517h-8.828c-5.297,0-8.828-3.531-8.828-8.828c0-5.297,3.531-8.828,8.828-8.828h8.828
		c5.297,0,8.828,3.531,8.828,8.828C388.414,97.986,384.883,101.517,379.586,101.517"/>
	<path style="fill:#4795E2;" d="M291.31,101.517h-26.483c-5.297,0-8.828-3.531-8.828-8.828c0-5.297,3.531-8.828,8.828-8.828h26.483
		c5.297,0,8.828,3.531,8.828,8.828C300.138,97.986,296.607,101.517,291.31,101.517"/>
</g>
<g>
	<path style="fill:#BC9519;" d="M388.414,301.903c-2.648,0-4.414-0.883-6.179-2.648c-3.531-3.531-2.648-8.828,0.883-12.359
		c1.766-1.766,3.531-3.531,5.297-5.297c3.531-3.531,8.828-3.531,12.359-0.883c3.531,3.531,3.531,8.828,0.883,12.359
		c-1.766,2.648-4.414,4.414-7.062,7.062C392.828,301.021,390.179,301.903,388.414,301.903"/>
	<path style="fill:#BC9519;" d="M300.138,171.255c-3.531,0-6.179-1.766-7.945-5.297c-1.766-4.414,0-9.71,4.414-11.476
		c6.179-2.648,12.359-5.297,19.421-7.062c4.414-0.883,9.71,1.766,10.593,6.179c0.883,4.414-1.766,9.71-6.179,10.593
		c-5.297,0.883-10.593,2.648-15.007,5.297C302.786,171.255,301.903,171.255,300.138,171.255 M370.759,171.255
		c-0.883,0-2.648,0-3.531-0.883c-4.414-2.648-9.71-4.414-15.007-5.297c-4.414-0.883-7.945-6.179-6.179-10.593
		c0.883-4.414,6.179-7.945,10.593-6.179c6.179,1.766,13.241,3.531,19.421,7.062c4.414,1.766,6.179,7.062,4.414,11.476
		C376.938,169.49,374.29,171.255,370.759,171.255 M263.062,210.097c-0.883,0-2.648,0-3.531-0.883
		c-4.414-1.766-6.179-7.062-4.414-11.476c2.648-6.179,6.179-12.359,10.593-17.655c2.648-3.531,8.828-4.414,12.359-1.766
		c3.531,2.648,4.414,8.828,1.766,12.359c-3.531,4.414-6.179,8.828-7.945,14.124C269.241,208.331,266.593,210.097,263.062,210.097
		 M407.835,210.097c-3.531,0-6.179-1.766-7.945-5.297c-1.766-5.297-5.297-9.71-7.945-14.124c-2.648-3.531-1.766-9.71,1.766-12.359
		s9.71-1.766,12.359,1.766c4.414,5.297,7.945,11.476,10.593,17.655c1.766,4.414,0,9.71-4.414,11.476
		C410.483,210.097,409.6,210.097,407.835,210.097 M258.648,263.945c-3.531,0-7.062-2.648-8.828-6.179
		c-1.766-6.179-2.648-13.241-2.648-20.303c0-5.297,3.531-8.828,8.828-8.828c4.414,0,8.828,3.531,8.828,8.828
		s0.883,10.593,2.648,15.89c0.883,4.414-1.766,9.71-6.179,10.593C260.414,263.945,259.531,263.945,258.648,263.945 M412.248,263.945
		c-0.883,0-1.766,0-2.648,0c-4.414-0.883-7.062-6.179-6.179-10.593c1.766-5.297,2.648-10.593,2.648-15.89
		c0-5.297,4.414-8.828,8.828-8.828c5.297,0,8.828,4.414,8.828,8.828c0,7.062-0.883,13.241-2.648,20.303
		C419.31,261.297,415.779,263.945,412.248,263.945"/>
	<path style="fill:#BC9519;" d="M282.483,301.903c-1.766,0-4.414-0.883-6.179-2.648c-2.648-1.766-4.414-4.414-7.062-7.062
		c-3.531-3.531-2.648-8.828,0.883-12.359s8.828-2.648,12.359,0.883c1.766,1.766,3.531,3.531,5.297,5.297
		c3.531,3.531,3.531,8.828,0.883,12.359C286.897,301.021,285.131,301.903,282.483,301.903"/>
</g>
<path style="fill:#4E646D;" d="M44.138,207.448H35.31c-4.414,0-8.828-3.531-8.828-8.828v-8.828c0-4.414,3.531-8.828,8.828-8.828
	h8.828c4.414,0,8.828,3.531,8.828,8.828v8.828C52.966,203.917,49.434,207.448,44.138,207.448"/>
<path style="fill:#E64C3C;" d="M361.931,278.069h-52.966v-61.793c0-15.007,11.476-26.483,26.483-26.483s26.483,11.476,26.483,26.483
	V278.069z"/>
<path style="fill:#FDC794;" d="M388.414,472.276V260.414c0-19.421-10.593-37.076-26.483-45.903c0,0.883,0,0.883,0,1.766v61.793
	h-52.966v-61.793c0-0.883,0-0.883,0-1.766c-15.89,8.828-26.483,26.483-26.483,45.903v211.862"/>
<g>
	<path style="fill:#F9A671;" d="M344.276,428.138h-17.655c-5.297,0-8.828-3.531-8.828-8.828s3.531-8.828,8.828-8.828h17.655
		c5.297,0,8.828,3.531,8.828,8.828S349.572,428.138,344.276,428.138"/>
	<path style="fill:#F9A671;" d="M353.103,463.448h-35.31c-5.297,0-8.828-3.531-8.828-8.828s3.531-8.828,8.828-8.828h35.31
		c5.297,0,8.828,3.531,8.828,8.828S358.4,463.448,353.103,463.448"/>
</g>
<g>
</g>
<g>
</g>
<g>
</g>
<g>
</g>
<g>
</g>
<g>
</g>
<g>
</g>
<g>
</g>
<g>
</g>
<g>
</g>
<g>
</g>
<g>
</g>
<g>
</g>
<g>
</g>
<g>
</g>
</svg>
