<?xml version="1.0" encoding="iso-8859-1"?>
<!-- Generator: Adobe Illustrator 19.0.0, SVG Export Plug-In . SVG Version: 6.00 Build 0)  -->
<svg version="1.1" id="Layer_1" xmlns="http://www.w3.org/2000/svg" xmlns:xlink="http://www.w3.org/1999/xlink" x="0px" y="0px"
	 viewBox="0 0 512 512" style="enable-background:new 0 0 512 512;" xml:space="preserve">
<path style="fill:#48A0DC;" d="M256,0C143.89,0,52.966,90.924,52.966,203.034c0,65.324,30.897,123.586,79.448,160.662v-169.49
	c0-67.972,55.614-123.586,123.586-123.586s123.586,55.614,123.586,123.586v169.49c48.552-37.076,79.448-95.338,79.448-160.662
	C459.034,90.924,368.11,0,256,0"/>
<path style="fill:#337FAA;" d="M256,35.31c-94.455,0-171.255,76.8-171.255,171.255c0,55.614,26.483,105.048,67.09,135.945V199.503
	c0-57.379,46.786-104.166,104.166-104.166s104.165,45.903,104.165,104.166v143.89c40.607-31.779,67.09-80.331,67.09-135.945
	C427.255,112.11,350.455,35.31,256,35.31"/>
<path style="fill:#FDC794;" d="M256,512L256,512c-67.972,0-123.586-55.614-123.586-123.586V194.207
	c0-67.972,55.614-123.586,123.586-123.586s123.586,55.614,123.586,123.586v194.207C379.586,456.386,323.972,512,256,512"/>
<path style="fill:#FFE9EC;" d="M167.724,282.483v-88.276c0-48.552,39.724-88.276,88.276-88.276s88.276,39.724,88.276,88.276v88.276
	H167.724z"/>
<g>
	<path style="fill:#F9A671;" d="M344.276,370.759H167.724c-5.297,0-8.828-3.531-8.828-8.828s3.531-8.828,8.828-8.828h176.552
		c5.297,0,8.828,3.531,8.828,8.828S349.572,370.759,344.276,370.759"/>
	<path style="fill:#F9A671;" d="M344.276,406.069H167.724c-5.297,0-8.828-3.531-8.828-8.828c0-5.297,3.531-8.828,8.828-8.828
		h176.552c5.297,0,8.828,3.531,8.828,8.828C353.103,402.538,349.572,406.069,344.276,406.069"/>
</g>
<path style="fill:#FFFFFF;" d="M256,229.517c-48.552,0-88.276,23.834-88.276,52.966h176.552
	C344.276,253.352,304.552,229.517,256,229.517"/>
<g>
</g>
<g>
</g>
<g>
</g>
<g>
</g>
<g>
</g>
<g>
</g>
<g>
</g>
<g>
</g>
<g>
</g>
<g>
</g>
<g>
</g>
<g>
</g>
<g>
</g>
<g>
</g>
<g>
</g>
</svg>
