<?xml version="1.0" encoding="iso-8859-1"?>
<!-- Generator: Adobe Illustrator 19.0.0, SVG Export Plug-In . SVG Version: 6.00 Build 0)  -->
<svg version="1.1" id="Layer_1" xmlns="http://www.w3.org/2000/svg" xmlns:xlink="http://www.w3.org/1999/xlink" x="0px" y="0px"
	 viewBox="0 0 512 512" style="enable-background:new 0 0 512 512;" xml:space="preserve">
<path style="fill:#FDC794;" d="M433.888,390.508V286.373c0-16.488-13.017-34.712-29.505-34.712
	c-16.488,0-31.241,18.224-31.241,34.712v-34.712c0-16.488-13.017-34.712-29.505-34.712s-31.241,18.224-31.241,34.712v-34.712
	c0-16.488-13.017-34.712-29.505-34.712s-31.241,18.224-31.241,34.712V78.102c0-16.488-13.017-34.712-29.505-34.712
	s-31.241,18.224-31.241,34.712v269.017c0-24.298-19.959-72.895-42.522-95.458c-21.695-21.695-74.631-8.678-43.39,34.712
	c20.827,28.637,29.505,90.251,34.712,121.492c13.017,76.366,59.878,86.78,59.878,86.78V512h208.271v-17.356
	C435.623,457.329,433.888,474.685,433.888,390.508"/>
<g>
	<path style="fill:#F9A671;" d="M312.396,451.254h-26.034c-5.207,0-8.678-3.471-8.678-8.678c0-5.207,3.471-8.678,8.678-8.678h26.034
		c5.207,0,8.678,3.471,8.678,8.678C321.074,447.783,317.603,451.254,312.396,451.254"/>
	<path style="fill:#F9A671;" d="M321.074,485.966h-43.39c-5.207,0-8.678-3.471-8.678-8.678c0-5.207,3.471-8.678,8.678-8.678h43.39
		c5.207,0,8.678,3.471,8.678,8.678C329.752,482.495,326.281,485.966,321.074,485.966"/>
</g>
<g>
	<path style="fill:#71C386;" d="M155.325,104.136c-3.471,0-6.942-2.603-8.678-6.075c-0.868-6.942-1.736-13.017-1.736-19.959
		C144.911,34.712,179.623,0,223.013,0s78.102,34.712,78.102,78.102c0,6.075-0.868,13.017-2.603,19.092
		c-0.868,4.339-6.075,7.81-10.414,6.075c-4.339-0.868-7.81-6.075-6.075-10.414c0.868-5.207,1.736-9.546,1.736-14.753
		c0-33.844-26.902-60.746-60.746-60.746s-60.746,26.902-60.746,60.746c0,5.207,0.868,10.414,1.736,15.62
		c0.868,4.339-1.736,9.546-6.075,10.414C157.06,104.136,156.193,104.136,155.325,104.136"/>
	<polygon style="fill:#71C386;" points="86.769,69.424 156.193,69.424 156.193,52.068 86.769,52.068 	"/>
	<path style="fill:#71C386;" d="M86.769,69.424c-2.603,0-4.339-0.868-6.075-2.603c-3.471-3.471-3.471-8.678,0-12.149l26.034-26.034
		c3.471-3.471,8.678-3.471,12.149,0c3.471,3.471,3.471,8.678,0,12.149L92.844,66.82C91.108,68.556,89.372,69.424,86.769,69.424"/>
	<path style="fill:#71C386;" d="M112.803,95.458c-2.603,0-4.339-0.868-6.075-2.603L80.694,66.82c-3.471-3.471-3.471-8.678,0-12.149
		c3.471-3.471,8.678-3.471,12.149,0l26.034,26.034c3.471,3.471,3.471,8.678,0,12.149C117.142,94.59,115.406,95.458,112.803,95.458"
		/>
</g>
<g>
	<path style="fill:#F9A671;" d="M251.65,338.441c-5.207,0-8.678-3.471-8.678-8.678V216.949c0-5.207,3.471-8.678,8.678-8.678
		c5.207,0,8.678,3.471,8.678,8.678v112.814C260.328,334.969,256.857,338.441,251.65,338.441"/>
	<path style="fill:#F9A671;" d="M312.396,338.441c-5.207,0-8.678-3.471-8.678-8.678v-86.78c0-5.207,3.471-8.678,8.678-8.678
		s8.678,3.471,8.678,8.678v86.78C321.074,334.969,317.603,338.441,312.396,338.441"/>
	<path style="fill:#F9A671;" d="M373.142,329.763c-5.207,0-8.678-3.471-8.678-8.678v-43.39c0-5.207,3.471-8.678,8.678-8.678
		c5.207,0,8.678,3.471,8.678,8.678v43.39C381.82,326.292,378.349,329.763,373.142,329.763"/>
</g>
<g>
</g>
<g>
</g>
<g>
</g>
<g>
</g>
<g>
</g>
<g>
</g>
<g>
</g>
<g>
</g>
<g>
</g>
<g>
</g>
<g>
</g>
<g>
</g>
<g>
</g>
<g>
</g>
<g>
</g>
</svg>
