<?xml version="1.0" encoding="iso-8859-1"?>
<!-- Generator: Adobe Illustrator 19.0.0, SVG Export Plug-In . SVG Version: 6.00 Build 0)  -->
<svg version="1.1" id="Layer_1" xmlns="http://www.w3.org/2000/svg" xmlns:xlink="http://www.w3.org/1999/xlink" x="0px" y="0px"
	 viewBox="0 0 512 512" style="enable-background:new 0 0 512 512;" xml:space="preserve">
<g>
	<path style="fill:#71C386;" d="M394.847,52.068H117.153c-5.207,0-8.678-3.471-8.678-8.678s3.471-8.678,8.678-8.678h277.695
		c5.207,0,8.678,3.471,8.678,8.678S400.054,52.068,394.847,52.068"/>
	<path style="fill:#71C386;" d="M151.864,86.78c-2.603,0-4.339-0.868-6.075-2.603l-34.712-34.712c-3.471-3.471-3.471-8.678,0-12.149
		L145.79,2.603c3.471-3.471,8.678-3.471,12.149,0c3.471,3.471,3.471,8.678,0,12.149L129.302,43.39l28.637,28.637
		c3.471,3.471,3.471,8.678,0,12.149C156.203,85.912,154.468,86.78,151.864,86.78"/>
</g>
<path style="fill:#FDC794;" d="M273.356,512L273.356,512c-66.82,0-121.492-54.671-121.492-121.492V199.593
	c0-66.82,54.671-121.492,121.492-121.492l0,0c66.82,0,121.492,54.671,121.492,121.492v190.915
	C394.847,457.329,340.176,512,273.356,512"/>
<path style="fill:#FFE9EC;" d="M186.576,286.373v-86.78c0-47.729,39.051-86.78,86.78-86.78s86.78,39.051,86.78,86.78v86.78H186.576z
	"/>
<g>
	<path style="fill:#F9A671;" d="M360.136,373.153H186.576c-5.207,0-8.678-3.471-8.678-8.678s3.471-8.678,8.678-8.678h173.559
		c5.207,0,8.678,3.471,8.678,8.678S365.342,373.153,360.136,373.153"/>
	<path style="fill:#F9A671;" d="M360.136,407.864H186.576c-5.207,0-8.678-3.471-8.678-8.678c0-5.207,3.471-8.678,8.678-8.678
		h173.559c5.207,0,8.678,3.471,8.678,8.678C368.814,404.393,365.342,407.864,360.136,407.864"/>
</g>
<path style="fill:#FFFFFF;" d="M273.356,234.305c-47.729,0-86.78,23.431-86.78,52.068h173.559
	C360.136,257.736,321.085,234.305,273.356,234.305"/>
<g>
</g>
<g>
</g>
<g>
</g>
<g>
</g>
<g>
</g>
<g>
</g>
<g>
</g>
<g>
</g>
<g>
</g>
<g>
</g>
<g>
</g>
<g>
</g>
<g>
</g>
<g>
</g>
<g>
</g>
</svg>
