<?xml version="1.0" encoding="iso-8859-1"?>
<!-- Generator: Adobe Illustrator 19.0.0, SVG Export Plug-In . SVG Version: 6.00 Build 0)  -->
<svg version="1.1" id="Layer_1" xmlns="http://www.w3.org/2000/svg" xmlns:xlink="http://www.w3.org/1999/xlink" x="0px" y="0px"
	 viewBox="0 0 512 512" style="enable-background:new 0 0 512 512;" xml:space="preserve">
<path style="fill:#ED7161;" d="M256,179.2c-5.12,0-8.533-3.413-8.533-8.533v-59.733c0-5.12,3.413-8.533,8.533-8.533
	c5.12,0,8.533,3.413,8.533,8.533v59.733C264.533,175.787,261.12,179.2,256,179.2"/>
<path style="fill:#556080;" d="M196.267,375.467H47.787C24.747,375.467,0,359.253,0,332.8V46.933C0,22.187,23.04,0,47.787,0h417.28
	C489.813,0,512,22.187,512,46.933v243.2c0,5.12-3.413,8.533-8.533,8.533c-5.12,0-8.533-3.413-8.533-8.533v-243.2
	c0-15.36-14.507-29.867-29.867-29.867H47.787c-15.36,0-30.72,14.507-30.72,29.867V332.8c0,15.36,16.213,25.6,30.72,25.6h148.48
	c5.12,0,8.533,3.413,8.533,8.533S201.387,375.467,196.267,375.467"/>
<path style="fill:#FDC794;" d="M375.467,512L263.68,396.8c-40.107-40.107-40.107-104.96,0-145.067l0,0
	c40.107-40.107,104.96-40.107,145.067,0L512,349.867V512H375.467z"/>
<path style="fill:#FFE9EC;" d="M288.427,372.907l35.84,35.84c4.267,4.267,9.387,5.973,15.36,5.973l0,0
	c46.933-3.413,83.627-40.107,87.04-87.04c0-5.973-1.707-11.093-5.973-15.36l-35.84-35.84c-26.453-26.453-69.973-26.453-96.427,0l0,0
	C261.12,302.933,261.12,345.6,288.427,372.907"/>
<g>
	<path style="fill:#ED7161;" d="M230.4,256c-0.853,0-1.707,0-2.56-0.853c-29.013-10.24-48.64-37.547-48.64-68.267
		c0-27.307,15.36-54.613,38.4-66.56c4.267-2.56,9.387-0.853,11.947,3.413c2.56,4.267,0.853,9.387-3.413,11.947
		c-17.92,9.387-29.867,29.867-29.867,51.2c0,23.893,14.507,44.373,36.693,52.053c4.267,1.707,6.827,6.827,5.12,11.093
		C237.227,253.44,233.813,256,230.4,256"/>
	<path style="fill:#ED7161;" d="M324.267,195.413c-5.12,0-8.533-3.413-8.533-8.533c0-21.333-11.947-41.813-29.867-51.2
		c-4.267-2.56-5.973-7.68-3.413-11.947s7.68-5.973,11.947-3.413c23.04,11.947,38.4,39.253,38.4,66.56
		C332.8,192,329.387,195.413,324.267,195.413"/>
</g>
<path style="fill:#FFFFFF;" d="M366.933,354.133c-16.213,16.213-24.747,40.96-34.987,58.88c2.56,0.853,5.12,1.707,8.533,0.853
	c46.933-3.413,83.627-40.107,87.04-87.04c0-2.56,0-4.267-0.853-6.827h-0.853C407.04,331.093,383.147,337.067,366.933,354.133"/>
<path style="fill:#F9A671;" d="M418.133,477.867c-2.56,0-4.267-0.853-5.973-2.56c-3.413-3.413-3.413-8.533,0-11.947l55.467-55.467
	c3.413-3.413,8.533-3.413,11.947,0c3.413,3.413,3.413,8.533,0,11.947l-55.467,55.467C422.4,477.013,420.693,477.867,418.133,477.867
	"/>
<g>
</g>
<g>
</g>
<g>
</g>
<g>
</g>
<g>
</g>
<g>
</g>
<g>
</g>
<g>
</g>
<g>
</g>
<g>
</g>
<g>
</g>
<g>
</g>
<g>
</g>
<g>
</g>
<g>
</g>
</svg>
