<?xml version="1.0" encoding="iso-8859-1"?>
<!-- Generator: Adobe Illustrator 19.0.0, SVG Export Plug-In . SVG Version: 6.00 Build 0)  -->
<svg version="1.1" id="Capa_1" xmlns="http://www.w3.org/2000/svg" xmlns:xlink="http://www.w3.org/1999/xlink" x="0px" y="0px"
	 viewBox="0 0 416 416" style="enable-background:new 0 0 416 416;" xml:space="preserve">
<path d="M408,340v-72c4.418,0,8-3.582,8-8s-3.582-8-8-8v-40c0-4.418-3.582-8-8-8h-72v-80c4.418,0,8-3.582,8-8s-3.582-8-8-8V68
	c0-4.418-3.582-8-8-8H96c-4.418,0-8,3.582-8,8v40c-4.418,0-8,3.582-8,8s3.582,8,8,8v80H16c-4.418,0-8,3.582-8,8v40
	c-4.418,0-8,3.582-8,8s3.582,8,8,8v72c-4.418,0-8,3.582-8,8s3.582,8,8,8h400c4.418,0,8-3.582,8-8S412.418,340,408,340z M328,252v-32
	h16v32H328z M232,252v-8h80v8H232z M200,252v-32h16v32H200z M104,252v-8h80v8H104z M72,252v-32h16v32H72z M312,228h-80v-8h80V228z
	 M224,204h-32v-56h32V204z M184,220v8h-80v-8H184z M360,244h32v8h-32V244z M392,228h-32v-8h32V228z M200,108V76h16v32H200z M232,100
	h80v8h-80V100z M312,84h-80v-8h80V84z M184,76v8h-80v-8H184z M104,100h80v8h-80V100z M104,124h208v80h-72v-64c0-4.418-3.582-8-8-8
	h-48c-4.418,0-8,3.582-8,8v64h-72V124z M56,220v8H24v-8H56z M24,244h32v8H24V244z M24,268h368v72h-32v-56c0-4.418-3.582-8-8-8h-32
	c-4.418,0-8,3.582-8,8v56h-16v-56c0-4.418-3.582-8-8-8h-32c-4.418,0-8,3.582-8,8v56h-16v-56c0-4.418-3.582-8-8-8h-32
	c-4.418,0-8,3.582-8,8v56h-16v-56c0-4.418-3.582-8-8-8h-32c-4.418,0-8,3.582-8,8v56h-16v-56c0-4.418-3.582-8-8-8H64
	c-4.418,0-8,3.582-8,8v56H24V268z M344,340h-16v-48h16V340z M280,340h-16v-48h16V340z M216,340h-16v-48h16V340z M152,340h-16v-48h16
	V340z M88,340H72v-48h16V340z"/>
<g>
</g>
<g>
</g>
<g>
</g>
<g>
</g>
<g>
</g>
<g>
</g>
<g>
</g>
<g>
</g>
<g>
</g>
<g>
</g>
<g>
</g>
<g>
</g>
<g>
</g>
<g>
</g>
<g>
</g>
</svg>
