<?xml version="1.0" encoding="iso-8859-1"?>
<!-- Generator: Adobe Illustrator 19.0.0, SVG Export Plug-In . SVG Version: 6.00 Build 0)  -->
<svg version="1.1" id="Layer_1" xmlns="http://www.w3.org/2000/svg" xmlns:xlink="http://www.w3.org/1999/xlink" x="0px" y="0px"
	 viewBox="0 0 512 512" style="enable-background:new 0 0 512 512;" xml:space="preserve">
<circle style="fill:#2D4452;" cx="256" cy="256" r="256"/>
<path style="fill:#70CCBD;" d="M92,368h-8c-13.236,0-24-10.764-24-24v-40c0-13.236,10.764-24,24-24h344c13.236,0,24,10.764,24,24v40
	c0,13.236-10.764,24-24,24H122.092L92,393.084V368z"/>
<g>
	<path style="fill:#E6E6E6;" d="M389.908,228H84c-13.236,0-24-10.764-24-24v-40c0-13.236,10.764-24,24-24h344
		c13.236,0,24,10.764,24,24v40c0,13.236-10.764,24-24,24h-8v25.084L389.908,228z"/>
	<circle style="fill:#E6E6E6;" cx="132" cy="324" r="8"/>
	<circle style="fill:#E6E6E6;" cx="164" cy="324" r="8"/>
	<circle style="fill:#E6E6E6;" cx="196" cy="324" r="8"/>
	<circle style="fill:#E6E6E6;" cx="228" cy="324" r="8"/>
	<circle style="fill:#E6E6E6;" cx="260" cy="324" r="8"/>
</g>
<g>
	<circle style="fill:#406A80;" cx="256" cy="184" r="8"/>
	<circle style="fill:#406A80;" cx="288" cy="184" r="8"/>
	<circle style="fill:#406A80;" cx="320" cy="184" r="8"/>
	<circle style="fill:#406A80;" cx="352" cy="184" r="8"/>
	<circle style="fill:#406A80;" cx="384" cy="184" r="8"/>
</g>
<g>
</g>
<g>
</g>
<g>
</g>
<g>
</g>
<g>
</g>
<g>
</g>
<g>
</g>
<g>
</g>
<g>
</g>
<g>
</g>
<g>
</g>
<g>
</g>
<g>
</g>
<g>
</g>
<g>
</g>
</svg>
