<?xml version="1.0" encoding="iso-8859-1"?>
<!-- Generator: Adobe Illustrator 16.0.0, SVG Export Plug-In . SVG Version: 6.00 Build 0)  -->
<!DOCTYPE svg PUBLIC "-//W3C//DTD SVG 1.1//EN" "http://www.w3.org/Graphics/SVG/1.1/DTD/svg11.dtd">
<svg version="1.1" id="Capa_1" xmlns="http://www.w3.org/2000/svg" xmlns:xlink="http://www.w3.org/1999/xlink" x="0px" y="0px"
	 width="46.568px" height="46.568px" viewBox="0 0 46.568 46.568" style="enable-background:new 0 0 46.568 46.568;"
	 xml:space="preserve">
<g>
	<g>
		<path d="M45.567,10.851h-29.16l-2.72-6.67c-0.153-0.376-0.519-0.622-0.926-0.622c-0.406,0-0.772,0.246-0.926,0.622l-2.997,7.346
			l-7.912,0.581c-0.405,0.029-0.752,0.302-0.878,0.688c-0.125,0.386-0.004,0.811,0.306,1.072l6.061,5.12l-1.894,7.704
			c-0.097,0.396,0.055,0.809,0.383,1.047c0.329,0.239,0.771,0.256,1.115,0.041l5.743-3.562v10.957v6.835c0,0.553,0.448,1,1,1h32.806
			c0.553,0,1-0.447,1-1v-6.835v-16.01V11.85C46.567,11.298,46.12,10.851,45.567,10.851z M43.132,32.158
			c-0.049-0.028-0.095-0.06-0.146-0.088c-0.475-0.271-0.971-0.524-1.479-0.767c-0.095-0.045-0.189-0.091-0.285-0.135
			c-0.505-0.23-1.025-0.447-1.562-0.647c-0.097-0.037-0.195-0.07-0.293-0.105c-0.557-0.201-1.125-0.391-1.709-0.559
			c-0.04-0.012-0.082-0.021-0.121-0.033c-0.574-0.16-1.161-0.305-1.758-0.433c-0.082-0.019-0.162-0.037-0.244-0.055
			c-0.6-0.123-1.211-0.228-1.828-0.315c-0.118-0.017-0.235-0.033-0.354-0.049c-0.617-0.081-1.241-0.146-1.873-0.191
			c-0.102-0.006-0.204-0.012-0.307-0.018c-0.665-0.041-1.333-0.068-2.009-0.068c-0.677,0-1.346,0.027-2.01,0.068
			c-0.103,0.006-0.205,0.012-0.307,0.018c-0.631,0.045-1.256,0.11-1.873,0.191c-0.118,0.016-0.235,0.032-0.353,0.049
			c-0.618,0.09-1.229,0.192-1.829,0.315c-0.082,0.018-0.162,0.036-0.243,0.055c-0.597,0.128-1.185,0.271-1.76,0.435
			c-0.04,0.011-0.08,0.021-0.12,0.03c-0.585,0.168-1.153,0.357-1.711,0.56c-0.098,0.035-0.195,0.068-0.292,0.104
			c-0.536,0.201-1.057,0.418-1.563,0.649c-0.095,0.043-0.188,0.088-0.281,0.133c-0.51,0.242-1.008,0.495-1.483,0.768
			c-0.048,0.028-0.093,0.059-0.142,0.086c-0.46,0.27-0.902,0.553-1.326,0.85c-0.036,0.023-0.077,0.046-0.112,0.07V24.22l5.741,3.562
			c0.084,0.053,0.174,0.09,0.266,0.114c0.031,0.009,0.063,0.009,0.096,0.015c0.055,0.009,0.11,0.021,0.166,0.021
			c0.006,0,0.012-0.003,0.018-0.003c0.068-0.001,0.135-0.017,0.203-0.031c0.031-0.008,0.063-0.008,0.093-0.018
			c0.097-0.032,0.189-0.078,0.274-0.14c0.329-0.238,0.48-0.652,0.383-1.047l-1.604-6.527h25.168v12.91
			c-0.035-0.024-0.076-0.047-0.111-0.07C44.033,32.709,43.592,32.426,43.132,32.158z M44.567,12.851v5.315H20.083l5.086-4.298
			c0.076-0.063,0.139-0.138,0.19-0.218c0.021-0.03,0.03-0.063,0.046-0.097c0.027-0.054,0.057-0.105,0.073-0.162
			c0.011-0.037,0.013-0.076,0.02-0.114c0.01-0.056,0.021-0.11,0.021-0.168c0-0.04-0.009-0.08-0.014-0.12
			c-0.005-0.046-0.004-0.093-0.017-0.139L44.567,12.851L44.567,12.851z"/>
	</g>
</g>
<g>
</g>
<g>
</g>
<g>
</g>
<g>
</g>
<g>
</g>
<g>
</g>
<g>
</g>
<g>
</g>
<g>
</g>
<g>
</g>
<g>
</g>
<g>
</g>
<g>
</g>
<g>
</g>
<g>
</g>
</svg>
