<?xml version="1.0" encoding="iso-8859-1"?>
<!-- Generator: Adobe Illustrator 19.0.0, SVG Export Plug-In . SVG Version: 6.00 Build 0)  -->
<svg version="1.1" id="Layer_1" xmlns="http://www.w3.org/2000/svg" xmlns:xlink="http://www.w3.org/1999/xlink" x="0px" y="0px"
	 viewBox="0 0 512 512" style="enable-background:new 0 0 512 512;" xml:space="preserve">
<g>
	<g>
		<path d="M256,0C114.843,0,0,114.843,0,256c0,141.157,114.843,256,256,256s256-114.843,256-256C512,114.843,397.157,0,256,0z
			 M256,493.037C125.296,493.037,18.963,386.704,18.963,256C18.963,125.296,125.296,18.963,256,18.963S493.037,125.296,493.037,256
			C493.037,386.704,386.704,493.037,256,493.037z"/>
	</g>
</g>
<g>
	<g>
		<path d="M321.37,375.019c-1.241-2.477-13.602-24.204-65.37-24.204s-64.13,21.727-65.37,24.204
			c-2.269,4.542-0.454,9.875,3.982,12.338c4.444,2.472,10.148,0.805,12.796-3.509c0.083-0.144,9.102-14.07,48.593-14.07
			c39.204,0,48.37,13.727,48.407,13.722c1.667,3.324,5.009,5.245,8.491,5.241c1.426,0,2.87-0.319,4.232-1
			C321.815,385.398,323.713,379.704,321.37,375.019z"/>
	</g>
</g>
<g>
	<g>
		<rect x="66.37" y="161.14" width="379.259" height="18.963"/>
	</g>
</g>
<g>
	<g>
		<path d="M199.111,218.029h-56.889c-5.241,0-9.482,4.245-9.482,9.481c0,5.236,4.241,9.482,9.482,9.482h56.889
			c5.241,0,9.482-4.245,9.482-9.482C208.593,222.274,204.352,218.029,199.111,218.029z"/>
	</g>
</g>
<g>
	<g>
		<path d="M360.296,218.029h-56.889c-5.241,0-9.482,4.245-9.482,9.481c0,5.236,4.241,9.482,9.482,9.482h56.889
			c5.241,0,9.481-4.245,9.481-9.482C369.778,222.274,365.537,218.029,360.296,218.029z"/>
	</g>
</g>
<g>
</g>
<g>
</g>
<g>
</g>
<g>
</g>
<g>
</g>
<g>
</g>
<g>
</g>
<g>
</g>
<g>
</g>
<g>
</g>
<g>
</g>
<g>
</g>
<g>
</g>
<g>
</g>
<g>
</g>
</svg>
