<?xml version="1.0" encoding="iso-8859-1"?>
<!-- Generator: Adobe Illustrator 19.0.0, SVG Export Plug-In . SVG Version: 6.00 Build 0)  -->
<svg version="1.1" id="Layer_1" xmlns="http://www.w3.org/2000/svg" xmlns:xlink="http://www.w3.org/1999/xlink" x="0px" y="0px"
	 viewBox="0 0 512 512" style="enable-background:new 0 0 512 512;" xml:space="preserve">
<path style="fill:#FFAB5F;" d="M455.566,210.489l-56.434,34.343L256,323.004l-143.132-78.172l-56.434-34.343L0,244.832
	c0,123.631,60.382,246.404,256,246.404s256-122.773,256-246.404L455.566,210.489z"/>
<path style="fill:#FFCE78;" d="M399.132,244.832c0,31.221-4.87,75.35-28.08,104.717C349.173,377.23,310.465,391.27,256,391.27
	s-93.173-14.04-115.052-41.722c-23.211-29.366-28.08-73.496-28.08-104.717h0.228h285.81L399.132,244.832L399.132,244.832z"/>
<g>
	<path style="fill:#FFFFFF;" d="M216.376,287.289h-6.736c-4.714,0-8.533-3.821-8.533-8.533s3.82-8.533,8.533-8.533h6.736
		c4.714,0,8.533,3.821,8.533,8.533S221.088,287.289,216.376,287.289z"/>
	<path style="fill:#FFFFFF;" d="M302.36,287.289h-6.736c-4.714,0-8.533-3.821-8.533-8.533s3.82-8.533,8.533-8.533h6.736
		c4.714,0,8.533,3.821,8.533,8.533S307.074,287.289,302.36,287.289z"/>
	<path style="fill:#FFFFFF;" d="M216.376,321.866h-6.736c-4.714,0-8.533-3.821-8.533-8.533s3.82-8.533,8.533-8.533h6.736
		c4.714,0,8.533,3.821,8.533,8.533S221.088,321.866,216.376,321.866z"/>
	<path style="fill:#FFFFFF;" d="M302.36,321.866h-6.736c-4.714,0-8.533-3.821-8.533-8.533s3.82-8.533,8.533-8.533h6.736
		c4.714,0,8.533,3.821,8.533,8.533S307.074,321.866,302.36,321.866z"/>
	<path style="fill:#FFFFFF;" d="M216.376,356.442h-6.736c-4.714,0-8.533-3.821-8.533-8.533s3.82-8.533,8.533-8.533h6.736
		c4.714,0,8.533,3.821,8.533,8.533S221.088,356.442,216.376,356.442z"/>
	<path style="fill:#FFFFFF;" d="M259.368,287.289h-6.736c-4.714,0-8.533-3.821-8.533-8.533s3.82-8.533,8.533-8.533h6.736
		c4.714,0,8.533,3.821,8.533,8.533S264.082,287.289,259.368,287.289z"/>
	<path style="fill:#FFFFFF;" d="M259.368,321.866h-6.736c-4.714,0-8.533-3.821-8.533-8.533s3.82-8.533,8.533-8.533h6.736
		c4.714,0,8.533,3.821,8.533,8.533S264.082,321.866,259.368,321.866z"/>
	<path style="fill:#FFFFFF;" d="M259.368,356.442h-6.736c-4.714,0-8.533-3.821-8.533-8.533s3.82-8.533,8.533-8.533h6.736
		c4.714,0,8.533,3.821,8.533,8.533S264.082,356.442,259.368,356.442z"/>
	<path style="fill:#FFFFFF;" d="M302.36,356.442h-6.736c-4.714,0-8.533-3.821-8.533-8.533s3.82-8.533,8.533-8.533h6.736
		c4.714,0,8.533,3.821,8.533,8.533S307.074,356.442,302.36,356.442z"/>
</g>
<path style="fill:#FF7F46;" d="M256,20.764c-141.38,0-256,100.436-256,224.067h113.095c0-69.018,63.977-125.183,142.905-125.183
	s142.905,56.165,142.905,125.183H512C512,121.201,397.38,20.764,256,20.764z"/>
<g>
</g>
<g>
</g>
<g>
</g>
<g>
</g>
<g>
</g>
<g>
</g>
<g>
</g>
<g>
</g>
<g>
</g>
<g>
</g>
<g>
</g>
<g>
</g>
<g>
</g>
<g>
</g>
<g>
</g>
</svg>
