<?xml version="1.0" encoding="iso-8859-1"?>
<!-- Generator: Adobe Illustrator 19.0.0, SVG Export Plug-In . SVG Version: 6.00 Build 0)  -->
<svg version="1.1" id="Layer_1" xmlns="http://www.w3.org/2000/svg" xmlns:xlink="http://www.w3.org/1999/xlink" x="0px" y="0px"
	 viewBox="0 0 512 512" style="enable-background:new 0 0 512 512;" xml:space="preserve">
<path style="fill:#06344C;" d="M442.757,240.465v120.783c0,23.211-18.884,42.094-42.094,42.094s-42.096-18.884-42.096-42.094
	V240.465h-17.067v120.783c0,29.723,22.036,54.388,50.629,58.538v14.346c0,18.156-14.771,32.926-32.926,32.926h-84.124v17.067h84.124
	c27.567,0,49.993-22.427,49.993-49.993v-14.346c28.591-4.149,50.628-28.814,50.628-58.538V240.465H442.757z"/>
<g>
	<path style="fill:#FE604F;" d="M12.051,484.693c0,15.081,12.225,27.307,27.307,27.307h231.17c15.081,0,27.307-12.225,27.307-27.307
		v-45.511l-142.892-22.756L12.051,439.182V484.693z"/>
	<path style="fill:#FE604F;" d="M297.834,27.307C297.834,12.225,285.608,0,270.527,0H39.358C24.277,0,12.051,12.225,12.051,27.307
		v45.511l142.891,22.756l142.891-22.756V27.307z"/>
</g>
<g>
	<rect x="12.051" y="72.818" style="fill:#06344C;" width="285.787" height="366.364"/>
	<circle style="fill:#06344C;" cx="223.778" cy="36.409" r="8.533"/>
</g>
<path style="fill:#74E7E7;" d="M178.836,484.124h-47.787c-4.714,0-8.533-3.82-8.533-8.533c0-4.714,3.82-8.533,8.533-8.533h47.787
	c4.714,0,8.533,3.819,8.533,8.533C187.369,480.305,183.55,484.124,178.836,484.124z"/>
<path style="fill:#DD164E;" d="M178.836,44.942h-47.787c-4.714,0-8.533-3.82-8.533-8.533s3.82-8.533,8.533-8.533h47.787
	c4.714,0,8.533,3.82,8.533,8.533S183.55,44.942,178.836,44.942z"/>
<path style="fill:#74E7E7;" d="M375.937,156.368h-24.272v45.511h24.272c12.568,0,22.756-10.189,22.756-22.756
	C398.692,166.556,388.504,156.368,375.937,156.368z"/>
<path style="fill:#FE604F;" d="M350.034,143.36c-7.184,0-13.008,5.824-13.008,13.008v104.007h26.016V156.368
	C363.042,149.184,357.218,143.36,350.034,143.36z"/>
<path style="fill:#74E7E7;" d="M477.193,156.368h-24.272v45.511h24.272c12.568,0,22.756-10.189,22.756-22.756
	C499.949,166.556,489.761,156.368,477.193,156.368z"/>
<path style="fill:#FE604F;" d="M451.29,143.36c-7.184,0-13.008,5.824-13.008,13.008v104.007h26.016V156.368
	C464.299,149.184,458.474,143.36,451.29,143.36z"/>
<g>
</g>
<g>
</g>
<g>
</g>
<g>
</g>
<g>
</g>
<g>
</g>
<g>
</g>
<g>
</g>
<g>
</g>
<g>
</g>
<g>
</g>
<g>
</g>
<g>
</g>
<g>
</g>
<g>
</g>
</svg>
