<?xml version="1.0" encoding="iso-8859-1"?>
<!-- Generator: Adobe Illustrator 19.0.0, SVG Export Plug-In . SVG Version: 6.00 Build 0)  -->
<svg version="1.1" id="Layer_1" xmlns="http://www.w3.org/2000/svg" xmlns:xlink="http://www.w3.org/1999/xlink" x="0px" y="0px"
	 viewBox="0 0 512 512" style="enable-background:new 0 0 512 512;" xml:space="preserve">
<g>
	<g>
		<g>
			<path d="M393.579,0H118.421C88.373,0,64,24.383,64,54.443v403.136C64,487.638,88.373,512,118.421,512h275.157
				C423.627,512,448,487.638,448,457.579V54.443C448,24.383,423.628,0,393.579,0z M106.667,106.673h298.667V405.34H106.667V106.673z
				 M118.421,42.667h275.157c6.48,0,11.755,5.277,11.755,11.776v9.564H106.667v-9.564C106.667,47.943,111.941,42.667,118.421,42.667
				z M393.579,469.333H118.421c-6.489,0-11.755-5.264-11.755-11.755v-9.572h298.667v9.572
				C405.333,464.07,400.067,469.333,393.579,469.333z"/>
			<path d="M256,128.006c-70.683,0-128,57.317-128,128s57.317,128,128,128s128-57.317,128-128S326.683,128.006,256,128.006z
				 M256,341.34c-47.119,0-85.333-38.214-85.333-85.333s38.214-85.333,85.333-85.333s85.333,38.214,85.333,85.333
				S303.119,341.34,256,341.34z"/>
			<path d="M234.667,192.006c-11.782,0-21.333,9.551-21.333,21.333c0,11.782,9.551,21.333,21.333,21.333
				c23.567,0,42.667,19.099,42.667,42.667c0,11.782,9.551,21.333,21.333,21.333c11.782,0,21.333-9.551,21.333-21.333
				C320,230.208,281.798,192.006,234.667,192.006z"/>
			<path d="M234.667,256.006c-11.776,0-21.333,9.557-21.333,21.333s9.557,21.333,21.333,21.333S256,289.116,256,277.34
				S246.443,256.006,234.667,256.006z"/>
		</g>
	</g>
</g>
<g>
</g>
<g>
</g>
<g>
</g>
<g>
</g>
<g>
</g>
<g>
</g>
<g>
</g>
<g>
</g>
<g>
</g>
<g>
</g>
<g>
</g>
<g>
</g>
<g>
</g>
<g>
</g>
<g>
</g>
</svg>
