<?xml version="1.0" encoding="iso-8859-1"?>
<!-- Generator: Adobe Illustrator 19.0.0, SVG Export Plug-In . SVG Version: 6.00 Build 0)  -->
<svg version="1.1" id="Layer_1" xmlns="http://www.w3.org/2000/svg" xmlns:xlink="http://www.w3.org/1999/xlink" x="0px" y="0px"
	 viewBox="0 0 511.999 511.999" style="enable-background:new 0 0 511.999 511.999;" xml:space="preserve">
<rect x="125.107" y="170.55" style="fill:#535353;" width="148.931" height="41.096"/>
<g>
	<rect x="199.578" y="170.55" style="fill:#2B292C;" width="74.471" height="41.096"/>
	<rect x="310.956" y="106.81" style="fill:#2B292C;" width="35.958" height="31.347"/>
	<rect x="406.638" y="120.331" style="fill:#2B292C;" width="32.063" height="31.347"/>
</g>
<path style="fill:#AEADB3;" d="M454.389,368.069c0,18.978-15.381,34.37-34.37,34.37c-18.978,0-34.359-15.393-34.359-34.37
	c0-18.978,15.381-34.359,34.359-34.359C439.008,333.71,454.389,349.091,454.389,368.069z"/>
<path style="fill:#8B8892;" d="M454.389,368.069c0,18.978-15.381,34.37-34.37,34.37V333.71
	C439.008,333.71,454.389,349.091,454.389,368.069z"/>
<path style="fill:#2B292C;" d="M478.532,367.494c-0.305-31.981-26.486-57.94-58.514-57.94c-32.063,0-58.28,26.054-58.503,58.01
	l-0.011,0.504c0,32.274,26.252,58.527,58.514,58.527c32.274,0,58.527-26.252,58.527-58.527L478.532,367.494z M420.017,391.451
	c-12.804,0-23.242-10.368-23.371-23.148l0.011-0.34c0.047-12.827,10.532-23.265,23.359-23.265c12.839,0,23.323,10.438,23.371,23.265
	v0.094c0.011,0.082,0.011,0.153,0.011,0.223C443.283,381.072,432.846,391.451,420.017,391.451z"/>
<path style="fill:#17171A;" d="M478.544,368.069c0,32.274-26.252,58.527-58.527,58.527v-35.144
	c12.827,0,23.265-10.379,23.382-23.171c0-0.07,0-0.141-0.011-0.223v-0.094c-0.047-12.827-10.532-23.265-23.371-23.265v-35.144
	c32.028,0,58.21,25.96,58.514,57.94L478.544,368.069z"/>
<path style="fill:#2B292C;" d="M485.962,268.782c-15.748-16.768-37.301-25.265-64.08-25.265c-0.287,0-0.58,0.001-0.868,0.003
	l-17.776,0.121l5.083,38.184l0.057,0.391c0.569,3.586,0.799,7.243,0.681,10.868l-0.006,0.242c-0.005,0.336-0.025,0.677-0.049,1.014
	l-0.019,0.351c-0.014,0.273-0.033,0.538-0.055,0.843c-0.02,0.247-0.037,0.494-0.06,0.741l-0.059,0.626
	c-0.022,0.253-0.049,0.505-0.08,0.753l-0.017,0.132c-0.066,0.535-0.129,1.071-0.209,1.607l-0.017,0.113
	c-0.057,0.395-0.122,0.788-0.173,1.098l-0.147,0.856c-0.148,0.816-0.335,1.713-0.58,2.764c-0.235,0.993-0.507,2.017-0.81,3.046
	l-0.113,0.369c-0.131,0.427-0.262,0.858-0.375,1.211c-3.483,10.612-9.963,19.924-18.742,26.931l-34.983,27.924h158.27l1.017-14.585
	C511.994,347.116,514.943,299.642,485.962,268.782z"/>
<path style="fill:#AEADB3;" d="M130.216,368.069c0,18.978-15.381,34.37-34.37,34.37c-18.978,0-34.359-15.393-34.359-34.37
	c0-18.978,15.381-34.359,34.359-34.359C114.834,333.71,130.216,349.091,130.216,368.069z"/>
<path style="fill:#8B8892;" d="M130.216,368.069c0,18.978-15.381,34.37-34.37,34.37V333.71
	C114.834,333.71,130.216,349.091,130.216,368.069z"/>
<path style="fill:#2B292C;" d="M154.36,367.494c-0.305-31.981-26.486-57.94-58.514-57.94c-32.063,0-58.28,26.054-58.503,58.01
	l-0.011,0.504c0,32.274,26.252,58.527,58.514,58.527c32.274,0,58.527-26.252,58.527-58.527L154.36,367.494z M95.845,391.451
	c-12.804,0-23.242-10.368-23.371-23.148l0.011-0.34c0.047-12.827,10.532-23.265,23.359-23.265c12.839,0,23.323,10.438,23.371,23.265
	v0.094c0.011,0.082,0.011,0.153,0.011,0.223C119.111,381.072,108.673,391.451,95.845,391.451z"/>
<path style="fill:#17171A;" d="M154.371,368.069c0,32.274-26.252,58.527-58.527,58.527v-35.144
	c12.827,0,23.265-10.379,23.382-23.171c0-0.07,0-0.141-0.011-0.223v-0.094c-0.047-12.827-10.532-23.265-23.371-23.265v-35.144
	c32.028,0,58.21,25.96,58.514,57.94L154.371,368.069z"/>
<path style="fill:#E70020;" d="M352.062,379.495h-78.024c-103.708,0-274.039,0-274.039,0v-72.402
	c0-55.861,45.443-101.315,101.304-101.315h172.735v62.319h-24.346c-1.588,3.417-1.17,7.711,0.031,11.16
	c2.685,7.732,10.376,15.851,24.315,19.822c5.507,1.578,11.996,2.508,19.54,2.508c18.62,0,32.518-6.332,41.326-18.829
	c5.413-7.67,7.346-15.402,7.847-17.805V85.404h71.085c0,0,4.754,35.788,10.167,76.467c1.369,10.303,2.779,20.919,4.169,31.347
	c5.82,43.803,11.201,84.283,11.201,84.293C446.031,327.573,403.911,379.495,352.062,379.495z"/>
<path style="fill:#990013;" d="M352.062,379.495h-78.024v-80.416c5.507,1.578,11.996,2.508,19.54,2.508
	c18.62,0,32.518-6.332,41.326-18.829c5.413-7.67,7.346-15.402,7.847-17.805V85.404h71.085c0,0,4.754,35.788,10.167,76.467
	c1.369,10.303,2.779,20.919,4.169,31.347c5.82,43.803,11.201,84.283,11.201,84.293C446.031,327.573,403.911,379.495,352.062,379.495
	z"/>
<path style="fill:#57555C;" d="M202.243,296.842v27.805H0v-17.555c0-55.798,45.349-101.221,101.127-101.315h54.607
	C179.924,219.717,202.243,246.289,202.243,296.842z"/>
<path style="fill:#C8C6CD;" d="M428.174,193.218h-85.422v-31.347h81.252C425.374,172.174,426.784,182.79,428.174,193.218z"/>
<path style="fill:#2B292C;" d="M202.243,296.842v27.805H101.127V205.778h54.607C179.924,219.717,202.243,246.289,202.243,296.842z"
	/>
<g>
</g>
<g>
</g>
<g>
</g>
<g>
</g>
<g>
</g>
<g>
</g>
<g>
</g>
<g>
</g>
<g>
</g>
<g>
</g>
<g>
</g>
<g>
</g>
<g>
</g>
<g>
</g>
<g>
</g>
</svg>
