<?xml version="1.0" encoding="iso-8859-1"?>
<!-- Generator: Adobe Illustrator 19.0.0, SVG Export Plug-In . SVG Version: 6.00 Build 0)  -->
<svg version="1.1" id="Layer_1" xmlns="http://www.w3.org/2000/svg" xmlns:xlink="http://www.w3.org/1999/xlink" x="0px" y="0px"
	 viewBox="0 0 512.013 512.013" style="enable-background:new 0 0 512.013 512.013;" xml:space="preserve">
<path style="fill:#788F5D;" d="M33.131,267.902l8.994-9.054c28.237-28.416,65.826-44.066,105.856-44.066
	c82.295,0,149.248,66.953,149.248,149.248c0,40.021-15.65,77.619-44.066,105.847l-9.054,8.994L33.131,267.902z"/>
<path style="fill:#A0BF7C;" d="M291.119,322.123c-14.165-48.299-51.302-85.965-99.328-100.745l-20.309-6.255L324.134,62.462
	L440.691,179.01c0.35,0.282,0.683,0.572,1.007,0.887l9.395,9.054L297.195,342.825L291.119,322.123z"/>
<path style="fill:#788F5D;" d="M468.305,190.718c-10.257,0-19.9-3.994-27.153-11.238L332.54,70.859
	c-7.253-7.253-11.247-16.896-11.247-27.153s3.994-19.9,11.247-27.153l9.054-9.054l162.918,162.918l-9.062,9.054
	C488.196,186.724,478.554,190.718,468.305,190.718z"/>
<path style="fill:#573A32;" d="M12.804,512.006c3.277,0,6.554-1.246,9.054-3.746L138.62,391.499l87.415,87.415
	c5.001,4.992,11.554,7.492,18.099,7.492c6.528,0,13.047-2.475,18.048-7.441c30.857-30.66,47.846-71.475,47.846-114.935
	c0-5.12-0.299-10.172-0.768-15.181l146.944-146.935c3.934,0.956,7.953,1.604,12.1,1.604c13.679,0,26.53-5.325,36.207-14.993
	c10.001-10.001,10.001-26.206,0-36.207L359.693,7.507c-5.001-5.001-11.554-7.501-18.108-7.501s-13.107,2.5-18.099,7.501
	c-9.668,9.668-14.993,22.528-14.993,36.207c0,4.864,0.896,9.54,2.202,14.089L165.517,202.98c-5.769-0.623-11.605-0.99-17.545-0.99
	c-43.46,0-84.275,16.99-114.935,47.846c-9.941,10.01-9.916,26.172,0.06,36.147l87.415,87.415L3.75,490.153
	c-5.001,5.001-5.001,13.099,0,18.099C6.251,510.761,9.527,512.006,12.804,512.006z M341.585,25.606l144.819,144.819
	c-5.001,5.001-11.554,7.501-18.099,7.501c-6.545,0-13.107-2.5-18.099-7.501L341.585,61.813
	C331.593,51.812,331.593,35.607,341.585,25.606z M324.126,80.553l107.972,107.972c0.222,0.222,0.486,0.367,0.708,0.58
	L303.398,318.513c-15.292-52.105-56.021-93.423-107.844-109.372L324.126,80.553z M51.204,267.876
	c24.721-24.875,58.94-40.286,96.777-40.286c75.358,0,136.448,61.09,136.448,136.448c0,37.837-15.411,72.055-40.286,96.768
	L51.204,267.876z"/>
<g>
</g>
<g>
</g>
<g>
</g>
<g>
</g>
<g>
</g>
<g>
</g>
<g>
</g>
<g>
</g>
<g>
</g>
<g>
</g>
<g>
</g>
<g>
</g>
<g>
</g>
<g>
</g>
<g>
</g>
</svg>
