<?xml version="1.0" encoding="iso-8859-1"?>
<!-- Generator: Adobe Illustrator 18.0.0, SVG Export Plug-In . SVG Version: 6.00 Build 0)  -->
<!DOCTYPE svg PUBLIC "-//W3C//DTD SVG 1.1//EN" "http://www.w3.org/Graphics/SVG/1.1/DTD/svg11.dtd">
<svg version="1.1" id="Capa_1" xmlns="http://www.w3.org/2000/svg" xmlns:xlink="http://www.w3.org/1999/xlink" x="0px" y="0px"
	 viewBox="0 0 410.671 410.671" style="enable-background:new 0 0 410.671 410.671;" xml:space="preserve">
<g>
	<g>
		<path d="M192.745,104.517c-1.769-6.933-2.69-14.139-2.69-21.495c0-22.406,8.474-43.438,23.864-59.446
			C198.652,8.394,178.305,0.031,156.592,0.031c-21.789,0-42.205,8.418-57.489,23.702L23.702,99.137
			C8.417,114.421,0,134.837,0,156.625c0,21.712,8.363,42.059,23.545,57.324c16.008-15.39,37.04-23.865,59.446-23.865
			c7.133,0,14.127,0.86,20.865,2.524C109.79,146.562,146.574,110.048,192.745,104.517z"/>
	</g>
	<g>
		<path d="M103.477,215.371c-6.506-2.179-13.4-3.329-20.486-3.329c-17.118,0-33.157,6.611-45.162,18.616l-7.41,7.409
			c-24.902,24.903-24.902,65.423,0.002,90.326l61.16,61.157c12.005,12.006,28.044,18.618,45.163,18.618
			c17.119,0,33.158-6.612,45.162-18.617l7.409-7.409c12.005-12.005,18.616-28.044,18.616-45.163c0-10.44-2.471-20.472-7.113-29.439
			C149.748,305.499,108.232,265.708,103.477,215.371z"/>
	</g>
	<g>
		<path d="M389.522,91.609L328.363,30.45c-12.005-12.005-28.045-18.616-45.164-18.616c-17.118,0-33.157,6.611-45.163,18.616
			l-7.408,7.409c-12.005,12.005-18.617,28.044-18.617,45.164c0,7.388,1.238,14.572,3.603,21.32
			c49.483,5.173,88.547,45.898,91.114,96.104c9.163,4.907,19.48,7.514,30.224,7.514c17.119,0,33.157-6.612,45.162-18.617
			l7.409-7.409C414.425,157.032,414.424,116.512,389.522,91.609z"/>
	</g>
	<g>
		<path d="M395.586,206.826c-15.905,14.9-36.606,23.092-58.635,23.092c-11.053,0-21.768-2.077-31.718-6.01
			c-7.478,41.321-39.953,74.048-81.142,81.912c3.791,9.793,5.796,20.313,5.796,31.161c0,22.029-8.19,42.729-23.091,58.635
			c13.649,9.748,30,15.025,47.22,15.025c21.788,0,42.205-8.418,57.49-23.701l75.401-75.403
			C415.379,283.064,418.26,238.564,395.586,206.826z"/>
	</g>
	<g>
		<circle cx="204.939" cy="205.71" r="28.548"/>
		<g>
			<path d="M204.94,125.743c-44.094,0-79.967,35.873-79.967,79.968c0,44.092,35.873,79.964,79.967,79.964
				c44.093,0,79.965-35.872,79.965-79.964C284.905,161.616,249.033,125.743,204.94,125.743z M204.94,249.993
				c-24.419,0-44.285-19.866-44.285-44.284c0-24.419,19.866-44.286,44.285-44.286c24.418,0,44.284,19.866,44.284,44.286
				C249.224,230.128,229.358,249.993,204.94,249.993z"/>
		</g>
	</g>
</g>
<g>
</g>
<g>
</g>
<g>
</g>
<g>
</g>
<g>
</g>
<g>
</g>
<g>
</g>
<g>
</g>
<g>
</g>
<g>
</g>
<g>
</g>
<g>
</g>
<g>
</g>
<g>
</g>
<g>
</g>
</svg>
