<?xml version="1.0" encoding="iso-8859-1"?>
<!-- Generator: Adobe Illustrator 18.1.1, SVG Export Plug-In . SVG Version: 6.00 Build 0)  -->
<svg version="1.1" id="Capa_1" xmlns="http://www.w3.org/2000/svg" xmlns:xlink="http://www.w3.org/1999/xlink" x="0px" y="0px"
	 viewBox="0 0 38.852 38.852" style="enable-background:new 0 0 38.852 38.852;" xml:space="preserve">
<g>
	<path style="fill:#010002;" d="M19.11,38.798c4.178,0.215,11.896,0.036,13.197-5.205c0.401-1.615,0.101-3.404,0.101-5.464
		c-4.079,3.244-8.53,3.953-13.099,3.987C14.756,32.15,10.334,31.41,6.3,28.311c0,1.317,0.114,2.271-0.022,3.189
		C5.285,38.254,14.696,38.571,19.11,38.798z M19.218,33.652c0.956-0.018,1.712,0.729,1.709,1.691
		c-0.003,0.919-0.699,1.61-1.637,1.626c-0.961,0.016-1.732-0.729-1.722-1.666C17.577,34.417,18.325,33.669,19.218,33.652z
		 M6.149,8.003c0.05,5.441,0.147,10.884,0.02,16.325c-0.059,2.552,1.054,4.195,3.242,4.889c2.633,0.835,5.401,1.508,8.143,1.749
		c4.147,0.365,8.28-0.062,12.105-1.984c1.852-0.93,2.84-2.24,2.8-4.491C32.39,20.654,32.39,16.817,32.4,12.98
		c0.007-2.67,0.575-5.614,0.378-8.332c-0.034-0.474-0.092-0.941-0.179-1.398c-0.127-0.662-0.512-1.185-1.06-1.604
		c-1.269-0.97-3.446-1.362-5.566-1.52c-2.075-0.154-4.089-0.087-5.12-0.114c-2.496-0.065-4.975,0.143-7.454,0.413
		c-0.413,0.045-0.875,0.076-1.355,0.11C10.447,0.648,8.613,0.8,7.446,1.654C7.4,1.687,7.363,1.725,7.32,1.76
		C5.516,3.226,6.13,5.963,6.149,8.003z M8.307,20.539c-0.14,0-0.281,0.001-0.421,0.001c0-5.423,0.027-10.847-0.041-16.269
		C7.842,4.028,7.718,3.786,7.562,3.545c0.402,0.169,0.84,0.326,1.315,0.469C8.687,9.523,8.497,15.031,8.307,20.539z M11.148,5.427
		c-0.055,3.351-0.031,6.703-0.031,10.055c-0.135-0.001-0.269-0.001-0.404-0.002c-0.158-3.484-0.288-6.969-0.502-10.449
		c-0.015-0.248-0.127-0.49-0.266-0.73c0.5,0.121,1.022,0.232,1.571,0.329C11.329,4.895,11.152,5.16,11.148,5.427z M13.499,5.567
		c-0.195,2.612-0.31,5.23-0.444,7.722c-0.148-2.562-0.272-5.244-0.489-7.918c-0.017-0.213-0.148-0.417-0.306-0.619
		c0.497,0.077,1.011,0.143,1.534,0.202C13.644,5.155,13.515,5.356,13.499,5.567z M15.879,6.201c-0.17,0.921-0.14,1.879-0.194,2.822
		C15.318,7.83,15.336,6.649,15.15,5.5c-0.026-0.158-0.145-0.3-0.288-0.439c0.49,0.043,0.985,0.08,1.487,0.109
		C16.144,5.505,15.946,5.841,15.879,6.201z M17.641,6.709c-0.002-0.026,0.055-0.33-0.054-0.55c-0.163-0.329-0.356-0.643-0.553-0.956
		c0.494,0.021,0.99,0.038,1.488,0.045C18.208,5.769,17.902,6.276,17.641,6.709z M20.146,5.444c-0.092-0.059-0.2-0.128-0.301-0.192
		c0.171-0.002,0.342-0.005,0.513-0.008C20.278,5.326,20.205,5.399,20.146,5.444z M14.841,1.562c2.908-0.257,5.818-0.244,8.726,0.021
		c2.009,0.183,4.018,0.478,6.025,0.893c0.169,0.035,0.339,0.06,0.508,0.097c-7.23,1.81-14.44,1.96-21.65-0.02
		c0.174-0.04,0.348-0.066,0.522-0.104C10.927,2.025,12.884,1.735,14.841,1.562z"/>
</g>
<g>
</g>
<g>
</g>
<g>
</g>
<g>
</g>
<g>
</g>
<g>
</g>
<g>
</g>
<g>
</g>
<g>
</g>
<g>
</g>
<g>
</g>
<g>
</g>
<g>
</g>
<g>
</g>
<g>
</g>
</svg>
