<?xml version="1.0" encoding="iso-8859-1"?>
<!-- Generator: Adobe Illustrator 19.0.0, SVG Export Plug-In . SVG Version: 6.00 Build 0)  -->
<svg version="1.1" id="Layer_1" xmlns="http://www.w3.org/2000/svg" xmlns:xlink="http://www.w3.org/1999/xlink" x="0px" y="0px"
	 viewBox="0 0 330 330" style="enable-background:new 0 0 330 330;" xml:space="preserve">
<g id="XMLID_225_">
	<polygon id="XMLID_226_" points="180,132.486 150,132.486 150,157.501 125,157.501 125,187.501 150,187.501 150,212.486 
		180,212.486 180,187.501 205,187.501 205,157.501 180,157.501 	"/>
	<path id="XMLID_227_" d="M326.999,168.497l-60-79.982c-2.833-3.776-7.279-5.999-12-5.999L210,82.519V37.516c0-8.284-6.716-15-15-15
		h-80c-8.284,0-15,6.716-15,15v45.005l-84.999-0.005c0,0-0.001,0-0.001,0c-3.978,0-7.794,1.581-10.606,4.393
		C1.581,89.722,0,93.537,0,97.516v159.969c0,8.284,6.716,15,15,15h37.301c6.386,20.264,25.352,35,47.699,35s41.313-14.736,47.699-35
		h34.603c6.386,20.264,25.352,35,47.699,35s41.313-14.736,47.699-35H315c8.284,0,15-6.716,15-15v-79.986
		C330,174.252,328.947,171.093,326.999,168.497z M130,52.516h50v30h-50V52.516z M100,277.484c-11.028,0-20-8.971-20-19.998
		c0-11.029,8.972-20.002,20-20.002s20,8.973,20,20.002C120,268.513,111.028,277.484,100,277.484z M230,277.484
		c-11.028,0-20-8.971-20-19.998c0-11.029,8.972-20.002,20-20.002c11.024,0,19.994,8.967,19.999,19.991
		c0,0.003-0.001,0.006-0.001,0.009c0,0.004,0.001,0.007,0.001,0.011C249.995,268.518,241.025,277.484,230,277.484z M300,242.484
		h-22.302c-6.387-20.264-25.352-35-47.698-35s-41.311,14.736-47.698,35h-34.604c-6.387-20.264-25.352-35-47.698-35
		s-41.311,14.736-47.698,35H30V112.517l154.999,0.009c0.001,0,0.001,0,0.001,0c0.033,0,0.064-0.005,0.097-0.005l62.405-0.004
		L300,182.499V242.484z"/>
</g>
<g>
</g>
<g>
</g>
<g>
</g>
<g>
</g>
<g>
</g>
<g>
</g>
<g>
</g>
<g>
</g>
<g>
</g>
<g>
</g>
<g>
</g>
<g>
</g>
<g>
</g>
<g>
</g>
<g>
</g>
</svg>
