<?xml version="1.0" encoding="iso-8859-1"?>
<!-- Generator: Adobe Illustrator 19.0.0, SVG Export Plug-In . SVG Version: 6.00 Build 0)  -->
<svg version="1.1" id="Layer_1" xmlns="http://www.w3.org/2000/svg" xmlns:xlink="http://www.w3.org/1999/xlink" x="0px" y="0px"
	 viewBox="0 0 512 512" style="enable-background:new 0 0 512 512;" xml:space="preserve">
<g>
	<g>
		<path d="M392.818,179.574H366.63v-0.534c0-6.228-3.458-11.659-8.551-14.489v-62.471C358.079,45.792,312.287,0,256,0
			S153.921,45.792,153.921,102.079v62.471c-5.093,2.829-8.551,8.26-8.551,14.489v0.534h-26.188c-4.427,0-8.017,3.589-8.017,8.017
			s3.589,8.017,8.017,8.017h0.534v77.495c0,65.673,47.316,122.056,111.165,133.966v54.694h-43.29
			c-13.851,0-25.119,11.268-25.119,25.119c0,13.851,11.268,25.119,25.119,25.119h136.818c13.851,0,25.119-11.268,25.119-25.119
			c0-13.851-11.268-25.119-25.119-25.119h-43.29v-54.694c63.849-11.91,111.165-68.292,111.165-133.966v-77.495h0.534
			c4.427,0,8.017-3.589,8.017-8.017S397.246,179.574,392.818,179.574z M169.954,127.167c0.205,0.016,0.41,0.031,0.62,0.031
			c4.427,0,8.017-3.589,8.017-8.017s-3.589-8.017-8.017-8.017h-0.086c-0.181,0-0.357,0.015-0.534,0.027v-9.112
			c0-9.483,1.565-18.602,4.411-27.141c2.515-1.353,4.225-4.008,4.225-7.063c0-0.87-0.143-1.706-0.4-2.491
			c2.548-5.382,5.636-10.459,9.199-15.161c0.096,0.004,0.19,0.015,0.286,0.015c4.427,0,8.017-3.589,8.017-8.017
			c0-0.453-0.047-0.895-0.119-1.329c9.932-9.809,22.232-17.215,35.953-21.293c1.208,2.923,4.101,4.985,7.456,4.985
			c4.427,0,8.017-3.589,8.017-8.017c0-0.021-0.003-0.041-0.003-0.062c2.96-0.309,5.963-0.472,9.003-0.472
			c3.085,0,6.129,0.171,9.131,0.49c0,0.015-0.002,0.03-0.002,0.045c0,4.427,3.632,8.017,8.059,8.017
			c3.341,0,6.203-2.045,7.406-4.951c13.724,4.101,26.021,11.531,35.943,21.365c-0.061,0.4-0.102,0.806-0.102,1.223
			c0,4.427,3.632,8.017,8.06,8.017c0.042,0,0.081-0.005,0.122-0.006c3.57,4.713,6.662,9.803,9.214,15.2
			c-0.244,0.771-0.378,1.592-0.378,2.443c0,3.017,1.689,5.643,4.164,7.011c2.858,8.554,4.43,17.691,4.43,27.194v9.112
			c-0.177-0.012-0.354-0.027-0.534-0.027h-0.086c-4.427,0-7.974,3.589-7.974,8.017s3.632,8.017,8.06,8.017
			c0.181,0,0.357-0.015,0.534-0.027v35.3H169.954V127.167z M161.403,179.04c0-0.295,0.239-0.534,0.534-0.534h188.125
			c0.295,0,0.534,0.239,0.534,0.534v17.102c0,0.293-0.236,0.53-0.528,0.533c-0.002,0-0.004,0-0.006,0
			c-0.011,0-0.02,0.001-0.031,0.001H161.968c-0.011,0-0.02-0.001-0.031-0.001c-0.002,0-0.004,0-0.006,0
			c-0.292-0.003-0.528-0.241-0.528-0.533V179.04z M342.046,212.71v60.392c0,47.446-38.6,86.046-86.046,86.046
			s-86.046-38.6-86.046-86.046V212.71H342.046z M324.409,477.795c5.01,0,9.086,4.076,9.086,9.086c0,5.01-4.076,9.086-9.086,9.086
			H187.591c-5.01,0-9.086-4.076-9.086-9.086c0-5.01,4.076-9.086,9.086-9.086H324.409z M246.914,461.762V401.37
			c0-0.295,0.239-0.534,0.534-0.534h17.102c0.295,0,0.534,0.239,0.534,0.534v60.393H246.914z M376.251,273.102
			c0,58.098-41.956,107.958-98.505,118.288c-3.028-3.993-7.807-6.589-13.194-6.589h-17.102c-5.387,0-10.166,2.595-13.194,6.589
			c-56.549-10.33-98.505-60.19-98.505-118.288v-77.495h9.62v0.534c0,6.228,3.458,11.659,8.551,14.489v62.471
			c0,56.287,45.792,102.079,102.079,102.079s102.079-45.792,102.079-102.079v-62.471c5.093-2.829,8.551-8.26,8.551-14.489v-0.534
			h9.62V273.102z"/>
	</g>
</g>
<g>
	<g>
		<path d="M256.086,136.818H256c-4.427,0-7.974,3.589-7.974,8.017s3.632,8.017,8.059,8.017c4.427,0,8.017-3.589,8.017-8.017
			S260.513,136.818,256.086,136.818z"/>
	</g>
</g>
<g>
	<g>
		<path d="M187.676,136.818h-0.086c-4.427,0-7.974,3.589-7.974,8.017s3.632,8.017,8.059,8.017s8.017-3.589,8.017-8.017
			S192.104,136.818,187.676,136.818z"/>
	</g>
</g>
<g>
	<g>
		<path d="M290.29,136.818h-0.086c-4.427,0-7.974,3.589-7.974,8.017s3.632,8.017,8.059,8.017s8.017-3.589,8.017-8.017
			S294.717,136.818,290.29,136.818z"/>
	</g>
</g>
<g>
	<g>
		<path d="M324.409,136.818h-0.086c-4.427,0-7.974,3.589-7.974,8.017s3.632,8.017,8.059,8.017s8.017-3.589,8.017-8.017
			S328.837,136.818,324.409,136.818z"/>
	</g>
</g>
<g>
	<g>
		<path d="M221.881,136.818h-0.086c-4.427,0-7.974,3.589-7.974,8.017s3.632,8.017,8.059,8.017s8.017-3.589,8.017-8.017
			S226.308,136.818,221.881,136.818z"/>
	</g>
</g>
<g>
	<g>
		<path d="M256.086,85.511H256c-4.427,0-7.974,3.589-7.974,8.017s3.632,8.017,8.059,8.017c4.427,0,8.017-3.589,8.017-8.017
			S260.513,85.511,256.086,85.511z"/>
	</g>
</g>
<g>
	<g>
		<path d="M187.676,85.511h-0.086c-4.427,0-7.974,3.589-7.974,8.017s3.632,8.017,8.059,8.017s8.017-3.589,8.017-8.017
			S192.104,85.511,187.676,85.511z"/>
	</g>
</g>
<g>
	<g>
		<path d="M290.29,85.511h-0.086c-4.427,0-7.974,3.589-7.974,8.017s3.632,8.017,8.059,8.017s8.017-3.589,8.017-8.017
			S294.717,85.511,290.29,85.511z"/>
	</g>
</g>
<g>
	<g>
		<path d="M324.409,85.511h-0.086c-4.427,0-7.974,3.589-7.974,8.017s3.632,8.017,8.059,8.017s8.017-3.589,8.017-8.017
			S328.837,85.511,324.409,85.511z"/>
	</g>
</g>
<g>
	<g>
		<path d="M221.881,85.511h-0.086c-4.427,0-7.974,3.589-7.974,8.017s3.632,8.017,8.059,8.017s8.017-3.589,8.017-8.017
			S226.308,85.511,221.881,85.511z"/>
	</g>
</g>
<g>
	<g>
		<path d="M256.086,34.205H256c-4.427,0-7.974,3.589-7.974,8.017c0,4.427,3.632,8.017,8.059,8.017c4.427,0,8.017-3.589,8.017-8.017
			C264.102,37.794,260.513,34.205,256.086,34.205z"/>
	</g>
</g>
<g>
	<g>
		<path d="M290.29,34.205h-0.086c-4.427,0-7.974,3.589-7.974,8.017c0,4.427,3.632,8.017,8.059,8.017s8.017-3.589,8.017-8.017
			C298.307,37.794,294.717,34.205,290.29,34.205z"/>
	</g>
</g>
<g>
	<g>
		<path d="M221.881,34.205h-0.086c-4.427,0-7.974,3.589-7.974,8.017c0,4.427,3.632,8.017,8.059,8.017s8.017-3.589,8.017-8.017
			C229.898,37.794,226.308,34.205,221.881,34.205z"/>
	</g>
</g>
<g>
	<g>
		<path d="M273.188,111.165h-0.086c-4.427,0-7.974,3.589-7.974,8.017s3.632,8.017,8.059,8.017s8.017-3.589,8.017-8.017
			S277.615,111.165,273.188,111.165z"/>
	</g>
</g>
<g>
	<g>
		<path d="M204.779,111.165h-0.086c-4.427,0-7.974,3.589-7.974,8.017s3.632,8.017,8.059,8.017s8.017-3.589,8.017-8.017
			S209.206,111.165,204.779,111.165z"/>
	</g>
</g>
<g>
	<g>
		<path d="M307.392,111.165h-0.086c-4.427,0-7.974,3.589-7.974,8.017s3.632,8.017,8.059,8.017s8.017-3.589,8.017-8.017
			S311.82,111.165,307.392,111.165z"/>
	</g>
</g>
<g>
	<g>
		<path d="M238.983,111.165h-0.086c-4.427,0-7.974,3.589-7.974,8.017s3.632,8.017,8.059,8.017s8.017-3.589,8.017-8.017
			S243.411,111.165,238.983,111.165z"/>
	</g>
</g>
<g>
	<g>
		<path d="M273.188,59.858h-0.086c-4.427,0-7.974,3.589-7.974,8.017s3.632,8.017,8.059,8.017s8.017-3.589,8.017-8.017
			S277.615,59.858,273.188,59.858z"/>
	</g>
</g>
<g>
	<g>
		<path d="M204.779,59.858h-0.086c-4.427,0-7.974,3.589-7.974,8.017s3.632,8.017,8.059,8.017s8.017-3.589,8.017-8.017
			S209.206,59.858,204.779,59.858z"/>
	</g>
</g>
<g>
	<g>
		<path d="M307.392,59.858h-0.086c-4.427,0-7.974,3.589-7.974,8.017s3.632,8.017,8.059,8.017s8.017-3.589,8.017-8.017
			S311.82,59.858,307.392,59.858z"/>
	</g>
</g>
<g>
	<g>
		<path d="M238.983,59.858h-0.086c-4.427,0-7.974,3.589-7.974,8.017s3.632,8.017,8.059,8.017S247,72.302,247,67.875
			S243.411,59.858,238.983,59.858z"/>
	</g>
</g>
<g>
</g>
<g>
</g>
<g>
</g>
<g>
</g>
<g>
</g>
<g>
</g>
<g>
</g>
<g>
</g>
<g>
</g>
<g>
</g>
<g>
</g>
<g>
</g>
<g>
</g>
<g>
</g>
<g>
</g>
</svg>
