<?xml version="1.0" encoding="iso-8859-1"?>
<!-- Generator: Adobe Illustrator 19.0.0, SVG Export Plug-In . SVG Version: 6.00 Build 0)  -->
<svg version="1.1" id="Layer_1" xmlns="http://www.w3.org/2000/svg" xmlns:xlink="http://www.w3.org/1999/xlink" x="0px" y="0px"
	 viewBox="0 0 512 512" style="enable-background:new 0 0 512 512;" xml:space="preserve">
<g>
	<g>
		<path d="M358.335,320.105c-1.324-45.682-24.392-87.34-61.185-112.797c24.222-22.345,38.494-54.062,38.494-87.841
			C335.644,53.593,282.052,0,216.178,0C150.304,0,96.711,53.593,96.711,119.467c0,33.779,14.272,65.496,38.494,87.841
			c-37.907,26.228-61.25,69.652-61.25,116.959v108.089h172.206C254.249,477.566,293.832,512,341.333,512
			c53.327,0,96.711-43.385,96.711-96.711C438.044,367.765,403.578,328.167,358.335,320.105z M131.03,125.046
			c-0.121-1.85-0.185-3.709-0.185-5.58c0-47.053,38.281-85.333,85.333-85.333s85.333,38.281,85.333,85.333
			c0,0.18-0.009,0.36-0.009,0.54c-5.705-3.047-11.816-7.384-18.094-12.919c-11.473-10.115-19.38-20.533-19.443-20.617
			l-11.082-14.776l-13.857,12.213C238.572,84.309,194.228,122.756,131.03,125.046z M164.171,187.111
			c-9.987-7.688-18.062-17.419-23.759-28.418c49.463-3.83,87.904-25.377,107.318-38.67c10.395,11.159,27.034,26.354,46.38,34.165
			c-4.235,9.496-10.182,18.176-17.573,25.581h-0.039c-15.451,15.458-36.789,25.031-60.32,25.031
			c-19.581,0-37.629-6.646-52.044-17.778C164.147,187.051,164.157,187.083,164.171,187.111z M246.162,398.222H108.089v-73.956
			c0-40.724,22.762-77.653,58.589-96.108c10.138,4.639,21.024,7.912,32.434,9.553v126.378h34.133V237.703
			c11.409-1.641,22.296-4.907,32.431-9.546c34.612,17.827,57.029,52.896,58.511,91.973
			C284.558,327.256,253.252,358.582,246.162,398.222z M341.333,477.867c-34.505,0-62.578-28.072-62.578-62.578
			c0-34.505,28.072-62.578,62.578-62.578c34.505,0,62.578,28.072,62.578,62.578C403.911,449.794,375.839,477.867,341.333,477.867z"
			/>
	</g>
</g>
<g>
	<g>
		<polygon points="358.4,398.222 358.4,378.311 324.267,378.311 324.267,398.222 304.356,398.222 304.356,432.356 324.267,432.356 
			324.267,452.267 358.4,452.267 358.4,432.356 378.311,432.356 378.311,398.222 		"/>
	</g>
</g>
<g>
</g>
<g>
</g>
<g>
</g>
<g>
</g>
<g>
</g>
<g>
</g>
<g>
</g>
<g>
</g>
<g>
</g>
<g>
</g>
<g>
</g>
<g>
</g>
<g>
</g>
<g>
</g>
<g>
</g>
</svg>
