<?xml version="1.0" encoding="iso-8859-1"?>
<!-- Generator: Adobe Illustrator 19.0.0, SVG Export Plug-In . SVG Version: 6.00 Build 0)  -->
<svg version="1.1" id="Layer_1" xmlns="http://www.w3.org/2000/svg" xmlns:xlink="http://www.w3.org/1999/xlink" x="0px" y="0px"
	 viewBox="0 0 512 512" style="enable-background:new 0 0 512 512;" xml:space="preserve">
<g>
	<g>
		<path d="M256,0C114.84,0,0,114.84,0,256s114.84,256,256,256s256-114.84,256-256S397.16,0,256,0z M423.127,396.636l-30.258-30.258
			l-26.49,26.49l30.258,30.258c-33.551,28.279-75.697,46.657-121.905,50.598v-42.896h-37.463v42.896
			c-46.207-3.941-88.354-22.319-121.905-50.598l30.258-30.258l-26.49-26.49l-30.258,30.258
			c-28.279-33.551-46.657-75.697-50.598-121.905h42.896v-37.463H38.275c3.941-46.207,22.319-88.354,50.598-121.905l30.258,30.258
			l26.49-26.49l-30.258-30.258c33.551-28.279,75.697-46.657,121.905-50.598v42.896h37.463V38.275
			c46.207,3.941,88.354,22.319,121.905,50.598l-30.258,30.258l26.49,26.49l30.258-30.258
			c28.279,33.551,46.657,75.697,50.598,121.905h-42.896v37.463h42.896C469.784,320.939,451.405,363.085,423.127,396.636z"/>
	</g>
</g>
<g>
	<g>
		<polygon points="274.732,237.268 274.732,118.634 237.268,118.634 237.268,274.732 355.902,274.732 355.902,237.268 		"/>
	</g>
</g>
<g>
</g>
<g>
</g>
<g>
</g>
<g>
</g>
<g>
</g>
<g>
</g>
<g>
</g>
<g>
</g>
<g>
</g>
<g>
</g>
<g>
</g>
<g>
</g>
<g>
</g>
<g>
</g>
<g>
</g>
</svg>
