<?xml version="1.0" encoding="iso-8859-1"?>
<!-- Generator: Adobe Illustrator 19.0.0, SVG Export Plug-In . SVG Version: 6.00 Build 0)  -->
<svg version="1.1" id="Layer_1" xmlns="http://www.w3.org/2000/svg" xmlns:xlink="http://www.w3.org/1999/xlink" x="0px" y="0px"
	 viewBox="0 0 370.51 370.51" style="enable-background:new 0 0 370.51 370.51;" xml:space="preserve">
<g id="XMLID_976_">
	<g id="XMLID_977_">
		<path id="XMLID_591_" style="fill:#FFE165;" d="M216.546,45.656c0,25.215-31.291,45.656-31.291,45.656
			s-31.291-20.441-31.291-45.656S185.255,0,185.255,0S216.546,20.441,216.546,45.656z"/>
		<path id="XMLID_590_" style="fill:#FFE165;" d="M264.82,142.393c-17.83,17.83-54.41,10.157-54.41,10.157
			s-7.672-36.58,10.157-54.41s54.409-10.157,54.409-10.157S282.649,124.563,264.82,142.393z"/>
		<path id="XMLID_589_" style="fill:#FFE165;" d="M105.691,142.393c17.83,17.83,54.41,10.157,54.41,10.157s7.672-36.58-10.157-54.41
			S95.533,87.983,95.533,87.983S87.861,124.563,105.691,142.393z"/>
		<path id="XMLID_588_" style="fill:#FFE165;" d="M264.82,229.355c-17.83,17.83-54.41,10.157-54.41,10.157
			s-7.672-36.58,10.157-54.41s54.409-10.157,54.409-10.157S282.649,211.525,264.82,229.355z"/>
		<path id="XMLID_587_" style="fill:#FFE165;" d="M105.691,229.355c17.83,17.83,54.41,10.157,54.41,10.157s7.672-36.58-10.157-54.41
			s-54.409-10.157-54.409-10.157S87.861,211.525,105.691,229.355z"/>
		<path id="XMLID_586_" style="fill:#FFE165;" d="M264.82,316.318c-17.83,17.83-54.41,10.157-54.41,10.157
			s-7.672-36.58,10.157-54.41c17.83-17.83,54.409-10.157,54.409-10.157S282.649,298.488,264.82,316.318z"/>
		<path id="XMLID_585_" style="fill:#FFE165;" d="M105.691,316.318c17.83,17.83,54.41,10.157,54.41,10.157s7.672-36.58-10.157-54.41
			c-17.83-17.83-54.409-10.157-54.409-10.157S87.861,298.488,105.691,316.318z"/>
	</g>
	<g id="XMLID_981_">
		<g id="XMLID_456_">
			<path id="XMLID_457_" style="fill:#FFA250;" d="M185.255,370.51L185.255,370.51c-6.904,0-12.5-5.596-12.5-12.5V118.095
				c0-6.904,5.596-12.5,12.5-12.5l0,0c6.904,0,12.5,5.596,12.5,12.5V358.01C197.755,364.914,192.159,370.51,185.255,370.51z"/>
		</g>
	</g>
</g>
<g>
</g>
<g>
</g>
<g>
</g>
<g>
</g>
<g>
</g>
<g>
</g>
<g>
</g>
<g>
</g>
<g>
</g>
<g>
</g>
<g>
</g>
<g>
</g>
<g>
</g>
<g>
</g>
<g>
</g>
</svg>
