<?xml version="1.0" encoding="iso-8859-1"?>
<!-- Generator: Adobe Illustrator 19.0.0, SVG Export Plug-In . SVG Version: 6.00 Build 0)  -->
<svg version="1.1" id="Layer_1" xmlns="http://www.w3.org/2000/svg" xmlns:xlink="http://www.w3.org/1999/xlink" x="0px" y="0px"
	 viewBox="0 0 359.472 359.472" style="enable-background:new 0 0 359.472 359.472;" xml:space="preserve">
<g id="XMLID_1458_">
	<polygon id="XMLID_1459_" style="fill:#FF5959;" points="91.044,0 54.27,120.274 151.614,120.274 114.839,0 	"/>
	<path id="XMLID_585_" style="fill:#FF5959;" d="M148.738,359.472H57.146c-11.597,0-20.999-9.402-20.999-20.999V110.485
		c0-11.597,9.402-20.999,20.999-20.999h91.592c11.597,0,20.999,9.402,20.999,20.999v227.989
		C169.737,350.071,160.335,359.472,148.738,359.472z"/>
	<rect id="XMLID_584_" x="57.442" y="60.137" style="fill:#FFA250;" width="91" height="29.349"/>
	<path id="XMLID_583_" style="fill:#FFE165;" d="M134.942,239.804h-64c-5.845,0-10.583-4.738-10.583-10.583v-32.167
		c0-5.845,4.738-10.583,10.583-10.583h64c5.845,0,10.583,4.738,10.583,10.583v32.167
		C145.525,235.065,140.787,239.804,134.942,239.804z"/>
	<polygon id="XMLID_1460_" style="fill:#FFE165;" points="244.633,0 207.858,120.274 305.202,120.274 268.428,0 	"/>
	<path id="XMLID_581_" style="fill:#FFE165;" d="M302.326,359.472h-91.592c-11.597,0-20.999-9.402-20.999-20.999V110.485
		c0-11.597,9.402-20.999,20.999-20.999h91.592c11.597,0,20.999,9.402,20.999,20.999v227.989
		C323.325,350.071,313.924,359.472,302.326,359.472z"/>
	<rect id="XMLID_580_" x="211.03" y="60.137" style="fill:#FFA250;" width="91" height="29.349"/>
	<path id="XMLID_579_" style="fill:#FF5959;" d="M288.53,239.804h-64c-5.845,0-10.583-4.738-10.583-10.583v-32.167
		c0-5.845,4.738-10.583,10.583-10.583h64c5.845,0,10.583,4.738,10.583,10.583v32.167
		C299.114,235.065,294.375,239.804,288.53,239.804z"/>
</g>
<g>
</g>
<g>
</g>
<g>
</g>
<g>
</g>
<g>
</g>
<g>
</g>
<g>
</g>
<g>
</g>
<g>
</g>
<g>
</g>
<g>
</g>
<g>
</g>
<g>
</g>
<g>
</g>
<g>
</g>
</svg>
