<?xml version="1.0" encoding="iso-8859-1"?>
<!-- Generator: Adobe Illustrator 19.0.0, SVG Export Plug-In . SVG Version: 6.00 Build 0)  -->
<svg version="1.1" id="Layer_1" xmlns="http://www.w3.org/2000/svg" xmlns:xlink="http://www.w3.org/1999/xlink" x="0px" y="0px"
	 viewBox="0 0 512 512" style="enable-background:new 0 0 512 512;" xml:space="preserve">
<g>
	<g>
		<g>
			<path d="M417.465,258.923H94.527c-4.794,0-8.678,3.885-8.678,8.678s3.884,8.678,8.678,8.678h322.937
				c4.794,0,8.678-3.885,8.678-8.678C426.143,262.807,422.257,258.923,417.465,258.923z"/>
			<path d="M392.417,222.789c4.794,0,8.678-3.885,8.678-8.678s-3.884-8.678-8.678-8.678H119.575c-4.794,0-8.678,3.885-8.678,8.678
				s3.884,8.678,8.678,8.678H392.417z"/>
			<path d="M474.396,40.982H37.604C16.868,40.982,0,57.85,0,78.586v268.899c0,20.734,16.868,37.604,37.604,37.604h155.282
				l41.142,71.258c5.383,9.324,13.394,14.672,21.978,14.672s16.595-5.347,21.978-14.672l41.142-71.258h155.272
				c20.735,0,37.604-16.87,37.604-37.604V78.586C512,57.85,495.132,40.982,474.396,40.982z M494.645,347.484
				c0,11.164-9.084,20.248-20.248,20.248H314.114c-3.101,0-5.964,1.655-7.515,4.339l-43.647,75.597
				c-2.167,3.753-4.765,5.995-6.948,5.995c-2.183,0-4.781-2.24-6.948-5.995l-43.647-75.597c-1.55-2.684-4.415-4.339-7.515-4.339
				H37.604c-11.164,0-20.248-9.084-20.248-20.248V78.586c0-11.164,9.084-20.248,20.248-20.248h436.793
				c11.164,0,20.248,9.084,20.248,20.248V347.484z"/>
			<path d="M417.465,151.944H94.527c-4.794,0-8.678,3.885-8.678,8.678s3.884,8.678,8.678,8.678h322.937
				c4.794,0,8.678-3.885,8.678-8.678S422.257,151.944,417.465,151.944z"/>
		</g>
	</g>
</g>
<g>
</g>
<g>
</g>
<g>
</g>
<g>
</g>
<g>
</g>
<g>
</g>
<g>
</g>
<g>
</g>
<g>
</g>
<g>
</g>
<g>
</g>
<g>
</g>
<g>
</g>
<g>
</g>
<g>
</g>
</svg>
