<?xml version="1.0" encoding="iso-8859-1"?>
<!-- Generator: Adobe Illustrator 19.0.0, SVG Export Plug-In . SVG Version: 6.00 Build 0)  -->
<svg version="1.1" id="Layer_1" xmlns="http://www.w3.org/2000/svg" xmlns:xlink="http://www.w3.org/1999/xlink" x="0px" y="0px"
	 viewBox="0 0 512.001 512.001" style="enable-background:new 0 0 512.001 512.001;" xml:space="preserve">
<path d="M492.518,511.996c-0.776,0-1.565-0.072-2.341-0.226c-0.753-0.156-1.505-0.382-2.234-0.681
	c-0.717-0.299-1.41-0.67-2.055-1.099c-0.657-0.442-1.266-0.944-1.816-1.493s-1.051-1.159-1.493-1.817
	c-0.43-0.645-0.788-1.338-1.087-2.055c-0.299-0.729-0.538-1.481-0.681-2.234c-0.155-0.775-0.239-1.565-0.239-2.341
	c0-0.775,0.084-1.565,0.239-2.329c0.143-0.765,0.37-1.517,0.669-2.234c0.299-0.728,0.669-1.42,1.099-2.065
	c0.442-0.657,0.944-1.267,1.493-1.817s1.159-1.051,1.816-1.48c0.645-0.43,1.338-0.8,2.055-1.099
	c0.729-0.299,1.481-0.526,2.234-0.681c1.541-0.311,3.13-0.311,4.671,0c0.765,0.155,1.517,0.382,2.234,0.681
	c0.729,0.299,1.422,0.669,2.067,1.099c0.657,0.429,1.266,0.931,1.816,1.48c0.549,0.549,1.051,1.16,1.481,1.817
	c0.43,0.645,0.8,1.338,1.099,2.065c0.299,0.718,0.526,1.469,0.681,2.234c0.155,0.766,0.239,1.554,0.239,2.329
	c0,0.776-0.084,1.566-0.239,2.341c-0.155,0.753-0.382,1.505-0.681,2.234c-0.299,0.717-0.669,1.41-1.099,2.055
	c-0.43,0.658-0.932,1.267-1.481,1.817s-1.159,1.051-1.816,1.493c-0.645,0.429-1.338,0.8-2.067,1.099
	c-0.717,0.299-1.469,0.524-2.234,0.681C494.083,511.925,493.294,511.996,492.518,511.996z"/>
<path d="M19.483,511.996c-0.776,0-1.565-0.072-2.329-0.226c-0.765-0.156-1.517-0.382-2.234-0.681
	c-0.729-0.299-1.422-0.67-2.067-1.099c-0.657-0.442-1.266-0.944-1.816-1.493s-1.051-1.159-1.481-1.817
	c-0.43-0.645-0.8-1.338-1.099-2.055c-0.299-0.729-0.526-1.481-0.681-2.234c-0.155-0.775-0.239-1.565-0.239-2.341
	c0-0.775,0.084-1.565,0.239-2.329c0.155-0.765,0.382-1.517,0.681-2.234c0.299-0.728,0.669-1.42,1.099-2.065
	c0.43-0.657,0.932-1.267,1.481-1.817c0.55-0.549,1.159-1.051,1.816-1.48c0.645-0.43,1.338-0.8,2.067-1.099
	c0.717-0.299,1.469-0.526,2.234-0.681c1.541-0.311,3.13-0.311,4.671,0c0.753,0.155,1.505,0.382,2.234,0.681
	c0.717,0.299,1.41,0.669,2.055,1.099c0.657,0.429,1.266,0.931,1.816,1.48c0.55,0.549,1.051,1.16,1.493,1.817
	c0.43,0.645,0.8,1.338,1.099,2.065c0.299,0.718,0.526,1.469,0.681,2.234c0.155,0.766,0.227,1.554,0.227,2.329
	c0,0.776-0.072,1.566-0.227,2.341c-0.155,0.753-0.382,1.505-0.681,2.234c-0.299,0.717-0.669,1.41-1.099,2.055
	c-0.442,0.658-0.944,1.267-1.493,1.817C25.707,510.717,22.625,511.996,19.483,511.996z"/>
<ellipse style="fill:#A67CAB;" cx="256.002" cy="53.96" rx="59.132" ry="42.014"/>
<path style="fill:#FF738D;" d="M138.565,500.054h234.871l1.308-145.955c2.786-23.398-15.489-43.979-39.054-43.979h-159.38
	c-23.565,0-41.839,20.58-39.054,43.979L138.565,500.054z"/>
<path style="fill:#FFCEB3;" d="M171.929,142.939v27.066c0,43.67,19.643,80.384,59.966,91.035l-14.69,49.079h-14.991l53.787,93.16
	l53.787-93.16h-15.751l-14.684-48.874c40.707-10.388,60.719-47.296,60.719-91.239v-27.066H171.929z"/>
<path d="M289.472,472.245c-3.154,0-6.224-1.266-8.458-3.488c-0.549-0.561-1.039-1.17-1.48-1.828c-0.43-0.645-0.8-1.337-1.099-2.055
	c-0.299-0.728-0.526-1.468-0.681-2.234c-0.155-0.775-0.227-1.553-0.227-2.341c0-3.142,1.267-6.224,3.488-8.445
	c2.234-2.222,5.304-3.501,8.458-3.501c3.142,0,6.224,1.278,8.446,3.501c2.222,2.221,3.5,5.303,3.5,8.445
	c0,0.788-0.082,1.566-0.239,2.341c-0.155,0.753-0.381,1.506-0.68,2.234c-0.299,0.718-0.67,1.41-1.099,2.055
	c-0.43,0.658-0.932,1.267-1.481,1.828C295.696,470.979,292.614,472.245,289.472,472.245z"/>
<path style="fill:#A67CAB;" d="M340.071,147.879c0-46.431-37.64-84.071-84.072-84.071s-84.072,37.64-84.072,84.071
	c0,0.346,0,16.576,0,16.576h90.941l28.557-27.49l22.213,27.49h26.38C340.02,164.456,340.071,148.225,340.071,147.879z"/>
<path d="M456.386,488.108h-16.399h-50.708h-3.79l1.193-133.291c1.506-14.31-3.086-28.64-12.653-39.414
	c-9.723-10.948-23.697-17.228-38.34-17.228h-25.905h-6.865l-8.781-29.227c16.993-6.87,31.001-18.588,40.945-34.371
	c11.077-17.584,16.933-39.911,16.933-64.57v-27.067c0-0.957-0.124-1.884-0.338-2.776c-2.003-25.051-13.636-47.428-31.219-63.384
	c4.299-7.068,6.617-14.857,6.617-22.823c0-14.978-8.145-29.355-22.347-39.445C291.559,5.153,274.253,0,256.001,0
	c-18.252,0-35.559,5.153-48.731,14.511c-14.203,10.09-22.347,24.466-22.347,39.445c0,7.966,2.318,15.754,6.617,22.823
	c-17.583,15.955-29.215,38.333-31.219,63.384c-0.213,0.892-0.338,1.818-0.338,2.776v4.941v16.577v5.55
	c0,47.872,21.129,83.85,57.16,98.664l-8.832,29.504h-6.097h-25.902c-14.643,0-28.618,6.28-38.34,17.228
	c-9.568,10.775-14.16,25.104-12.653,39.414l1.193,133.291h-3.79H96.675H55.614c-6.598,0-11.946,5.349-11.946,11.946
	c0,6.597,5.348,11.946,11.946,11.946h400.773c6.598,0,11.946-5.349,11.946-11.946C468.332,493.459,462.984,488.108,456.386,488.108z
	 M256.001,23.892c25.577,0,47.186,13.768,47.186,30.064c0,3.149-0.817,6.199-2.306,9.077c-13.403-7.119-28.675-11.171-44.881-11.171
	s-31.478,4.052-44.881,11.171c-1.488-2.877-2.306-5.928-2.306-9.077C208.814,37.66,230.423,23.892,256.001,23.892z M183.875,147.879
	c0-39.769,32.356-72.125,72.126-72.125c39.768,0,72.122,32.353,72.126,72.12c0,0.184-0.006,2.135-0.014,4.636h-8.767l-18.628-23.052
	c-2.105-2.604-5.205-4.206-8.547-4.414c-3.35-0.203-6.617,0.995-9.03,3.316l-25.086,24.15h-74.179v-4.631H183.875z M184.044,176.402
	h78.825c3.089,0,6.059-1.197,8.286-3.34l19.168-18.453l14.025,17.355c2.269,2.807,5.684,4.438,9.292,4.438h14.318
	c-1.893,38.256-20.855,65.431-51.559,73.267c-3.155,0.805-5.844,2.862-7.445,5.696c-1.602,2.835-1.978,6.199-1.042,9.317
	l14.684,48.876c1.069,3.559,3.694,6.328,6.994,7.651l-33.535,58.086l-31.006-53.702c-0.242-0.42-0.512-0.812-0.797-1.191
	l-1.995-3.457c3.019-1.41,5.391-4.057,6.392-7.399l14.69-49.08c0.927-3.1,0.559-6.444-1.024-9.266
	c-1.582-2.822-4.241-4.882-7.369-5.709C193.258,238.48,185.203,198.605,184.044,176.402z M150.405,488.108l-1.202-134.118
	c-0.005-0.436-0.032-0.871-0.084-1.306c-0.938-7.88,1.447-15.486,6.716-21.419c5.268-5.934,12.54-9.201,20.475-9.201h19.007
	l50.338,87.187c0.244,0.423,0.517,0.821,0.805,1.203l15.044,26.055c2.214,3.832,6.227,5.975,10.357,5.975
	c2.026,0,4.081-0.517,5.961-1.603c5.714-3.299,7.672-10.606,4.372-16.318l-12.345-21.381l46.834-81.119h19.007
	c7.936,0,15.206,3.267,20.475,9.201s7.654,13.539,6.716,21.419c-0.051,0.434-0.079,0.87-0.084,1.306l-1.202,134.118H150.405z"/>
<g>
</g>
<g>
</g>
<g>
</g>
<g>
</g>
<g>
</g>
<g>
</g>
<g>
</g>
<g>
</g>
<g>
</g>
<g>
</g>
<g>
</g>
<g>
</g>
<g>
</g>
<g>
</g>
<g>
</g>
</svg>
