<?xml version="1.0" encoding="iso-8859-1"?>
<!-- Generator: Adobe Illustrator 19.0.0, SVG Export Plug-In . SVG Version: 6.00 Build 0)  -->
<svg version="1.1" id="Layer_1" xmlns="http://www.w3.org/2000/svg" xmlns:xlink="http://www.w3.org/1999/xlink" x="0px" y="0px"
	 viewBox="0 0 512 512" style="enable-background:new 0 0 512 512;" xml:space="preserve">
<g>
	<g>
		<path d="M288.363,128.433V105.66c15.784-10.694,25.424-28.643,25.424-47.872C313.787,25.923,287.865,0,256,0
			s-57.788,25.923-57.788,57.788c0,19.229,9.64,37.177,25.424,47.871v22.773c-91.146,15.443-160.782,94.946-160.782,190.42
			C62.853,425.355,149.499,512,256,512s193.147-86.645,193.147-193.147C449.147,223.379,379.51,143.876,288.363,128.433z
			 M213.42,57.788c0-23.479,19.101-42.58,42.58-42.58c23.478,0,42.579,19.101,42.579,42.58c0,10.325-3.782,20.142-10.329,27.765
			c-0.361-4.52-1.649-8.78-3.681-12.589c2.48-4.653,3.795-9.82,3.795-15.175c0-17.846-14.518-32.363-32.364-32.363
			c-17.846,0-32.363,14.518-32.363,32.363c0,5.339,1.317,10.518,3.796,15.173c-2.034,3.81-3.321,8.071-3.682,12.591
			C217.203,77.93,213.42,68.112,213.42,57.788z M272.926,60.576c-4.928-3.036-10.725-4.792-16.926-4.792
			c-6.2,0-11.996,1.756-16.923,4.792c-0.149-0.916-0.232-1.846-0.232-2.788c0-9.46,7.696-17.156,17.156-17.156
			s17.156,7.696,17.156,17.156C273.156,58.73,273.075,59.662,272.926,60.576z M273.156,88.147v38.33
			c-5.654-0.5-11.373-0.771-17.156-0.771s-11.501,0.271-17.156,0.771v-38.33h0c0-9.459,7.696-17.156,17.156-17.156
			S273.156,78.688,273.156,88.147z M256,496.792c-98.115,0-177.939-79.822-177.939-177.939S157.885,140.915,256,140.915
			s177.939,79.822,177.939,177.939S354.115,496.792,256,496.792z"/>
	</g>
</g>
<g>
	<g>
		<path d="M256,159.556c-87.837,0-159.298,71.46-159.298,159.298S168.162,478.152,256,478.152
			c87.837,0,159.297-71.46,159.297-159.298S343.837,159.556,256,159.556z M263.604,462.743v-26.437c0-4.199-3.405-7.604-7.604-7.604
			s-7.604,3.405-7.604,7.604v26.437c-73.412-3.835-132.449-62.873-136.285-136.285h25.857c4.199,0,7.604-3.405,7.604-7.604
			s-3.405-7.604-7.604-7.604h-25.857c3.967-75.93,66.988-136.486,143.889-136.486s139.921,60.555,143.888,136.486h-25.857
			c-4.2,0-7.604,3.405-7.604,7.604s3.404,7.604,7.604,7.604h25.857C396.053,399.869,337.016,458.907,263.604,462.743z"/>
	</g>
</g>
<g>
	<g>
		<path d="M330.122,311.328l-48.881-7.086l36.726-37.361v2.159c0,4.199,3.404,7.604,7.604,7.604s7.604-3.405,7.604-7.604V248.3
			c0-0.01-0.001-0.021-0.001-0.031c-0.001-0.185-0.014-0.369-0.028-0.554c-0.005-0.068-0.005-0.137-0.011-0.205
			c-0.025-0.244-0.062-0.488-0.112-0.729c-0.026-0.13-0.064-0.255-0.097-0.383c-0.029-0.113-0.053-0.227-0.087-0.339
			c-0.036-0.12-0.084-0.235-0.127-0.353c-0.043-0.117-0.08-0.234-0.128-0.349c-0.043-0.102-0.095-0.2-0.142-0.299
			c-0.059-0.125-0.114-0.251-0.179-0.374c-0.048-0.087-0.102-0.168-0.153-0.253c-0.081-0.137-0.16-0.275-0.25-0.408
			c-0.133-0.195-0.273-0.383-0.423-0.565c-0.046-0.056-0.098-0.106-0.146-0.161c-0.119-0.136-0.238-0.272-0.366-0.398
			c-0.008-0.008-0.014-0.016-0.022-0.023c-0.061-0.06-0.127-0.111-0.19-0.168c-0.115-0.105-0.228-0.212-0.349-0.31
			c-0.091-0.074-0.187-0.14-0.28-0.21c-0.105-0.078-0.21-0.158-0.319-0.231c-0.105-0.07-0.214-0.132-0.321-0.196
			c-0.105-0.063-0.209-0.127-0.317-0.184c-0.112-0.059-0.226-0.11-0.34-0.163c-0.112-0.052-0.222-0.105-0.336-0.152
			c-0.114-0.047-0.229-0.085-0.344-0.126c-0.119-0.043-0.237-0.086-0.359-0.122c-0.118-0.034-0.236-0.062-0.354-0.091
			c-0.122-0.03-0.242-0.062-0.367-0.086c-0.131-0.025-0.262-0.042-0.393-0.06c-0.114-0.016-0.226-0.035-0.342-0.047
			c-0.162-0.015-0.324-0.019-0.488-0.024c-0.078-0.002-0.154-0.012-0.233-0.012H304.83c-4.2,0-7.604,3.405-7.604,7.604
			s3.404,7.604,7.604,7.604h2.604l-36.854,37.491l-7.054-48.663c-0.542-3.739-3.747-6.513-7.526-6.513
			c-3.778,0-6.983,2.774-7.525,6.513l-8.432,58.166l-58.166,8.432c-3.739,0.542-6.513,3.747-6.513,7.525
			c0,3.778,2.774,6.983,6.513,7.525l49.259,7.141l-35.516,36.13c-2.944,2.995-2.903,7.81,0.092,10.753
			c1.48,1.456,3.406,2.181,5.33,2.181c1.968,0,3.935-0.759,5.423-2.273l35.01-35.615l7,48.281c0.542,3.739,3.747,6.513,7.525,6.513
			s6.983-2.774,7.526-6.513l8.431-58.166l58.165-8.432c3.739-0.542,6.513-3.747,6.513-7.525S333.862,311.87,330.122,311.328z
			 M256,323.964c-2.818,0-5.111-2.292-5.111-5.111s2.292-5.111,5.111-5.111s5.11,2.292,5.11,5.111S258.818,323.964,256,323.964z"/>
	</g>
</g>
<g>
	<g>
		<path d="M268.714,186.41c-4.2,0-7.604,3.405-7.604,7.604v7.071l-12.447-12.447c-2.175-2.176-5.445-2.825-8.286-1.648
			c-2.842,1.177-4.694,3.95-4.694,7.025v26.54c-0.001,4.199,3.404,7.604,7.603,7.604s7.604-3.405,7.604-7.604v-8.182l12.447,12.447
			c2.176,2.175,5.445,2.826,8.287,1.648c2.842-1.177,4.694-3.95,4.694-7.025v-25.429C276.318,189.814,272.914,186.41,268.714,186.41
			z"/>
	</g>
</g>
<g>
</g>
<g>
</g>
<g>
</g>
<g>
</g>
<g>
</g>
<g>
</g>
<g>
</g>
<g>
</g>
<g>
</g>
<g>
</g>
<g>
</g>
<g>
</g>
<g>
</g>
<g>
</g>
<g>
</g>
</svg>
