<?xml version="1.0" encoding="iso-8859-1"?>
<!-- Generator: Adobe Illustrator 19.0.0, SVG Export Plug-In . SVG Version: 6.00 Build 0)  -->
<svg version="1.1" id="Layer_1" xmlns="http://www.w3.org/2000/svg" xmlns:xlink="http://www.w3.org/1999/xlink" x="0px" y="0px"
	 viewBox="0 0 511.824 511.824" style="enable-background:new 0 0 511.824 511.824;" xml:space="preserve">
<g>
	<g>
		<g>
			<path d="M298.579,106.491h32v266.667c0,17.643,14.357,32,32,32h21.333c17.643,0,32-14.357,32-32V106.491h32
				c4.181,0,7.979-2.432,9.707-6.251c1.749-3.819,1.067-8.299-1.685-11.435L381.267,3.472c-4.053-4.629-12.011-4.629-16.064,0
				l-74.667,85.333c-2.752,3.136-3.413,7.616-1.685,11.435C290.6,104.059,294.397,106.491,298.579,106.491z"/>
			<path d="M469.245,426.491H42.579c-17.643,0-32,14.357-32,32v21.333c0,17.643,14.357,32,32,32h426.667c17.643,0,32-14.357,32-32
				v-21.333C501.245,440.848,486.888,426.491,469.245,426.491z"/>
			<path d="M63.912,106.491h32v266.667c0,17.643,14.357,32,32,32h21.333c17.643,0,32-14.357,32-32V106.491h32
				c4.181,0,7.979-2.432,9.707-6.251c1.749-3.819,1.067-8.299-1.685-11.435L146.6,3.472c-4.053-4.629-12.011-4.629-16.064,0
				L55.869,88.805c-2.752,3.136-3.413,7.616-1.685,11.435C55.933,104.059,59.731,106.491,63.912,106.491z"/>
		</g>
	</g>
</g>
<g>
</g>
<g>
</g>
<g>
</g>
<g>
</g>
<g>
</g>
<g>
</g>
<g>
</g>
<g>
</g>
<g>
</g>
<g>
</g>
<g>
</g>
<g>
</g>
<g>
</g>
<g>
</g>
<g>
</g>
</svg>
