<?xml version="1.0" encoding="iso-8859-1"?>
<!-- Generator: Adobe Illustrator 19.0.0, SVG Export Plug-In . SVG Version: 6.00 Build 0)  -->
<svg version="1.1" id="Layer_1" xmlns="http://www.w3.org/2000/svg" xmlns:xlink="http://www.w3.org/1999/xlink" x="0px" y="0px"
	 viewBox="0 0 512 512" style="enable-background:new 0 0 512 512;" xml:space="preserve">
<polygon style="fill:#C7C5CC;" points="285.003,333.146 256,512 226.997,333.146 "/>
<polygon style="fill:#8A8791;" points="285.003,333.146 256,512 255.996,333.146 "/>
<polygon style="fill:#006DF3;" points="189.734,82.931 189.734,187.613 195.379,187.613 316.621,187.613 322.266,187.613 
	322.266,82.931 "/>
<polygon style="fill:#005FD1;" points="255.997,82.931 255.997,187.613 258.82,187.613 319.443,187.613 322.266,187.613 
	322.266,82.931 "/>
<rect x="143.779" style="fill:#00A5FF;" width="224.432" height="98.641"/>
<rect x="256" style="fill:#0082D2;" width="112.221" height="98.641"/>
<path style="fill:#FF4F18;" d="M429.682,348.851H82.318l0.031-15.737c0.157-70.225,42.154-133.026,106.996-159.997l2.9-1.204
	h127.508l2.9,1.204c64.843,26.972,106.839,89.773,106.996,159.997L429.682,348.851z"/>
<path style="fill:#FF3400;" d="M429.682,348.851H255.996V171.913h63.758l2.9,1.204c64.843,26.972,106.839,89.773,106.996,159.997
	L429.682,348.851z"/>
<g>
</g>
<g>
</g>
<g>
</g>
<g>
</g>
<g>
</g>
<g>
</g>
<g>
</g>
<g>
</g>
<g>
</g>
<g>
</g>
<g>
</g>
<g>
</g>
<g>
</g>
<g>
</g>
<g>
</g>
</svg>
