<?xml version="1.0" encoding="iso-8859-1"?>
<!-- Generator: Adobe Illustrator 19.0.0, SVG Export Plug-In . SVG Version: 6.00 Build 0)  -->
<svg version="1.1" id="Layer_1" xmlns="http://www.w3.org/2000/svg" xmlns:xlink="http://www.w3.org/1999/xlink" x="0px" y="0px"
	 viewBox="0 0 512 512" style="enable-background:new 0 0 512 512;" xml:space="preserve">
<rect x="139.494" y="352.507" style="fill:#FF4F18;" width="125.388" height="64.073"/>
<rect x="200.903" y="352.507" style="fill:#FF3400;" width="63.979" height="64.073"/>
<path style="fill:#006DF3;" d="M426.914,234.527c0,33.217-10.731,65.327-29.278,91.742c-18.536,26.415-44.878,47.135-76.089,57.584
	H85.086v-31.347h222.375c51.963-15.36,88.106-63.572,88.106-117.979c0-67.835-55.192-123.026-123.037-123.026
	c-11.264,0-22.434,1.515-33.176,4.524l-8.432-30.198c13.49-3.762,27.491-5.674,41.608-5.674
	C357.658,80.154,426.914,149.4,426.914,234.527z"/>
<path style="fill:#005FD1;" d="M426.914,234.527c0,33.217-10.731,65.327-29.278,91.742c-18.536,26.415-44.878,47.135-76.089,57.584
	H200.903v-31.347h106.559c51.963-15.36,88.106-63.572,88.106-117.979c0-67.835-55.192-123.026-123.037-123.026
	c-11.264,0-22.434,1.515-33.176,4.524l-8.432-30.198c13.49-3.762,27.491-5.674,41.608-5.674
	C357.658,80.154,426.914,149.4,426.914,234.527z"/>
<rect x="185.229" style="fill:#FF4F18;" width="31.347" height="33.874"/>
<rect x="200.903" style="fill:#FF3400;" width="15.673" height="33.874"/>
<rect x="85.222" y="416.58" style="fill:#006DF3;" width="231.372" height="95.42"/>
<rect x="200.903" y="416.58" style="fill:#005FD1;" width="115.691" height="95.42"/>
<rect x="149.985" y="18.202" style="fill:#00A5FF;" width="101.836" height="294.787"/>
<rect x="200.903" y="18.202" style="fill:#0082D2;" width="50.918" height="294.787"/>
<rect x="149.985" y="218.07" style="fill:#FFFFFF;" width="101.836" height="31.347"/>
<path style="fill:#FFAD1D;" d="M217.248,464.291c0,9.017-7.314,16.342-16.342,16.342c-9.028,0-16.342-7.325-16.342-16.342
	c0-9.028,7.314-16.342,16.342-16.342C209.934,447.949,217.248,455.262,217.248,464.291z"/>
<path style="fill:#FF8900;" d="M217.248,464.291c0,9.017-7.314,16.342-16.342,16.342v-32.685
	C209.934,447.948,217.248,455.262,217.248,464.291z"/>
<g>
</g>
<g>
</g>
<g>
</g>
<g>
</g>
<g>
</g>
<g>
</g>
<g>
</g>
<g>
</g>
<g>
</g>
<g>
</g>
<g>
</g>
<g>
</g>
<g>
</g>
<g>
</g>
<g>
</g>
</svg>
