<?xml version="1.0" encoding="iso-8859-1"?>
<!-- Generator: Adobe Illustrator 19.0.0, SVG Export Plug-In . SVG Version: 6.00 Build 0)  -->
<svg version="1.1" id="Layer_1" xmlns="http://www.w3.org/2000/svg" xmlns:xlink="http://www.w3.org/1999/xlink" x="0px" y="0px"
	 viewBox="0 0 512 512" style="enable-background:new 0 0 512 512;" xml:space="preserve">
<path style="fill:#E26A53;" d="M458.425,434.228H53.577c-20.641,0-37.373-16.733-37.373-37.373V50.335
	c0-20.641,16.733-37.373,37.373-37.373h404.847c20.641,0,37.373,16.733,37.373,37.373v346.518
	C495.799,417.495,479.066,434.228,458.425,434.228z"/>
<g>
	<path style="fill:#63AAD0;" d="M135.023,499.038h-35.43c-11.693,0-21.171-9.479-21.171-21.171v-43.639h77.772v43.639
		C156.194,489.559,146.715,499.038,135.023,499.038z"/>
	<path style="fill:#63AAD0;" d="M412.41,499.038h-35.429c-11.693,0-21.171-9.479-21.171-21.171v-43.639h77.772v43.639
		C433.581,489.559,424.102,499.038,412.41,499.038z"/>
</g>
<circle style="fill:#EDEDED;" cx="256.001" cy="223.595" r="77.772"/>
<path d="M458.425,0H53.577C25.822,0,3.242,22.581,3.242,50.335v346.519c0,27.754,22.58,50.335,50.335,50.335H65.46v30.677
	C65.46,496.689,80.772,512,99.592,512h35.429c18.822,0,34.133-15.312,34.133-34.133V447.19h173.691v30.677
	c0,18.822,15.312,34.133,34.133,34.133h35.429c18.822,0,34.133-15.312,34.133-34.133V447.19h11.882
	c27.756,0,50.335-22.581,50.335-50.335V50.335C508.761,22.581,486.181,0,458.425,0z M143.232,477.867
	c0,4.526-3.683,8.209-8.209,8.209h-35.43c-4.526,0-8.209-3.683-8.209-8.209V447.19h51.848V477.867z M420.619,477.867
	c0,4.526-3.683,8.209-8.209,8.209h-35.429c-4.526,0-8.209-3.683-8.209-8.209V447.19h51.848v30.677H420.619z M482.837,396.854
	c0,13.461-10.952,24.411-24.411,24.411H53.577c-13.461,0-24.411-10.95-24.411-24.411V50.335c0-13.461,10.95-24.411,24.411-24.411
	h404.847c13.461,0,24.411,10.95,24.411,24.411v346.519H482.837z"/>
<path d="M373.869,155.544c-3.579-6.2-11.508-8.324-17.706-4.744l-28.925,16.699c-14.094-17.859-34.732-30.314-58.275-33.697v-33.346
	c0-7.158-5.803-12.962-12.962-12.962c-7.159,0-12.962,5.804-12.962,12.962v33.346c-23.543,3.383-44.181,15.838-58.275,33.699
	l-28.925-16.7c-6.198-3.581-14.127-1.456-17.706,4.744c-3.58,6.2-1.456,14.126,4.744,17.706l28.891,16.68
	c-4.179,10.418-6.502,21.771-6.502,33.664c0,11.893,2.323,23.247,6.502,33.664l-28.891,16.68c-6.2,3.58-8.324,11.506-4.744,17.706
	c2.401,4.158,6.757,6.484,11.237,6.484c2.198,0,4.428-0.561,6.469-1.74l28.925-16.7c14.094,17.859,34.732,30.314,58.275,33.699
	v33.349c0,7.158,5.803,12.962,12.962,12.962c7.159,0,12.962-5.804,12.962-12.962v-33.346c23.543-3.383,44.18-15.838,58.275-33.697
	l28.925,16.699c2.042,1.178,4.27,1.74,6.469,1.74c4.48,0,8.836-2.325,11.237-6.484c3.58-6.2,1.456-14.126-4.744-17.706
	l-28.891-16.68c4.179-10.418,6.502-21.771,6.502-33.665s-2.323-23.247-6.502-33.665l28.891-16.68
	C375.323,169.67,377.448,161.744,373.869,155.544z M256.001,288.405c-35.736,0-64.81-29.074-64.81-64.81s29.074-64.81,64.81-64.81
	s64.81,29.074,64.81,64.81S291.738,288.405,256.001,288.405z"/>
<g>
</g>
<g>
</g>
<g>
</g>
<g>
</g>
<g>
</g>
<g>
</g>
<g>
</g>
<g>
</g>
<g>
</g>
<g>
</g>
<g>
</g>
<g>
</g>
<g>
</g>
<g>
</g>
<g>
</g>
</svg>
