<?xml version="1.0" encoding="iso-8859-1"?>
<!-- Generator: Adobe Illustrator 19.0.0, SVG Export Plug-In . SVG Version: 6.00 Build 0)  -->
<svg version="1.1" id="Layer_1" xmlns="http://www.w3.org/2000/svg" xmlns:xlink="http://www.w3.org/1999/xlink" x="0px" y="0px"
	 viewBox="0 0 496 496" style="enable-background:new 0 0 496 496;" xml:space="preserve">
<g>
	<g>
		<g>
			<path d="M82.668,120c-4.072,0-8.152,0.832-12,2.424c-3.848-1.592-7.928-2.424-12-2.424c-17.648,0-32,14.352-32,32
				s14.352,32,32,32c4.072,0,8.152-0.832,12-2.424c3.848,1.592,7.928,2.424,12,2.424c17.648,0,32-14.352,32-32
				S100.316,120,82.668,120z M82.668,168c-2.744,0-5.424-0.752-7.968-2.24l-4.032-2.344l-4.032,2.344
				c-2.544,1.488-5.224,2.24-7.968,2.24c-8.824,0-16-7.176-16-16c0-8.824,7.176-16,16-16c2.744,0,5.424,0.752,7.968,2.24
				l4.032,2.344l4.032-2.344c2.544-1.488,5.224-2.24,7.968-2.24c8.816,0,16,7.176,16,16C98.668,160.824,91.484,168,82.668,168z"/>
			<path d="M442.668,448c-13.128,0-24.704,6.448-32,16.248c-7.296-9.8-18.872-16.248-32-16.248s-24.704,6.448-32,16.248
				c-7.296-9.8-18.872-16.248-32-16.248c-9.04,0-17.296,3.128-24,8.208V384h56c13.232,0,24-10.768,24-24v-6.312l122.664-278.04
				l-37.944-15.176l5.224-18.048l-90.912-24.8C366.884,7.496,357.684,0,346.668,0h-192c-13.232,0-24,10.768-24,24v40h-104
				c-13.232,0-24,10.768-24,24v96c0,13.232,10.768,24,24,24h104v152c0,13.232,10.768,24,24,24h56v112h16V296
				c0-13.232,10.768-24,24-24s24,10.768,24,24v192v8h16v-8c0-13.232,10.768-24,24-24s24,10.768,24,24v8h16v-8
				c0-13.232,10.768-24,24-24s24,10.768,24,24v8h16v-8c0-13.232,10.768-24,24-24s24,10.768,24,24v8h16v-8
				C482.668,465.944,464.724,448,442.668,448z M472.004,84.352L403.58,239.44l47.336-163.528L472.004,84.352z M370.668,34.472
				l70.056,19.104L399.596,195.64c-4.736-15.888-14.912-29.816-28.928-39.248V34.472z M370.668,176.944
				c10.08,10.336,16,24.328,16,39.056c0,14.728-5.92,28.712-16,39.056V176.944z M370.668,275.608
				c2.624-1.768,5.104-3.672,7.44-5.744l-7.44,25.72V275.608z M354.668,360c0,4.416-3.584,8-8,8h-56v-32h64V360z M146.668,24
				c0-4.416,3.584-8,8-8h192c4.416,0,8,3.584,8,8v8h-208V24z M18.668,88c0-4.416,3.584-8,8-8h144h32c4.416,0,8,3.584,8,8v8h-192V88z
				 M26.668,192c-4.416,0-8-3.584-8-8v-72h192v72c0,4.416-3.584,8-8,8H26.668z M210.668,368h-56c-4.416,0-8-3.584-8-8v-24h64V368z
				 M210.668,320h-64V208h56h104v-80h32V64h-72v8c0,8.816-7.184,16-16,16c-8.824,0-16-7.184-16-16v-8h-32h-32h-24V48h208v272h-64
				v-16h32c8.816,0,16-7.176,16-16v-48c0-8.824-7.184-16-16-16h-144c-8.824,0-16,7.176-16,16v48c0,8.824,7.176,16,16,16h32V320z
				 M225.196,192c0.896-2.512,1.472-5.184,1.472-8V93.072c5.872,6.672,14.432,10.928,24,10.928c14.88,0,27.432-10.208,30.984-24
				h41.016v32h-32v80H225.196z M289.86,288c-3.72-18.232-19.88-32-39.192-32s-35.472,13.768-39.192,32h-32.808v-48h144v48H289.86z"
				/>
		</g>
	</g>
</g>
<g>
</g>
<g>
</g>
<g>
</g>
<g>
</g>
<g>
</g>
<g>
</g>
<g>
</g>
<g>
</g>
<g>
</g>
<g>
</g>
<g>
</g>
<g>
</g>
<g>
</g>
<g>
</g>
<g>
</g>
</svg>
