<?xml version="1.0" encoding="iso-8859-1"?>
<!-- Generator: Adobe Illustrator 19.0.0, SVG Export Plug-In . SVG Version: 6.00 Build 0)  -->
<svg version="1.1" id="Layer_1" xmlns="http://www.w3.org/2000/svg" xmlns:xlink="http://www.w3.org/1999/xlink" x="0px" y="0px"
	 viewBox="0 0 512 512" style="enable-background:new 0 0 512 512;" xml:space="preserve">
<path style="fill:#D1D3D4;" d="M493.403,110.624L225.266,378.759l-92.049-92.004L401.396,18.616
	c10.888-10.887,28.51-10.887,39.397,0l52.61,52.571C504.29,82.114,504.29,99.737,493.403,110.624L493.403,110.624z"/>
<path style="fill:#10BAFC;" d="M395.102,159.873l-158.323,158.28c-4.66,4.66-12.413,4.443-17.283-0.465l-25.206-25.163
	c-4.87-4.913-5.082-12.666-0.464-17.282l158.322-158.324c4.659-4.659,12.412-4.448,17.325,0.465l25.163,25.163
	C399.548,147.46,399.76,155.212,395.102,159.873L395.102,159.873z"/>
<path style="fill:#F3437F;" d="M401.396,18.616l-17.113,17.071l92.048,92.051l17.072-17.113c10.886-10.887,10.886-28.51,0-39.397
	l-52.568-52.612C429.906,7.728,412.284,7.728,401.396,18.616L401.396,18.616z"/>
<path style="fill:#FFFFFF;" d="M70.421,410.89l-53.619,53.659c-8.472,8.472-8.472,22.197,0,30.67c8.472,8.467,22.196,8.467,30.67,0
	l53.66-53.619l124.134-62.842l-92.009-92.004L70.421,410.89z"/>
<path style="fill:#10BAFC;" d="M27.244,454.1l-10.441,10.449c-8.472,8.472-8.472,22.197,0,30.67c8.472,8.467,22.196,8.467,30.67,0
	l10.449-10.441L27.244,454.1z"/>
<path d="M228.551,331.963c-0.016,0-0.029,0-0.044,0c-6.182-0.013-12.017-2.468-16.428-6.915l-25.171-25.128
	c-8.949-9.028-9.143-23.396-0.47-32.067l57.512-57.513c4.08-4.08,10.697-4.082,14.779,0c4.08,4.08,4.08,10.697,0,14.777
	l-57.513,57.514c-0.414,0.414-0.425,1.607,0.496,2.537l25.167,25.124c0.693,0.698,1.397,0.771,1.67,0.771c0.001,0,0.002,0,0.003,0
	c0.539,0,0.765-0.226,0.839-0.3l158.325-158.281c0.49-0.49,0.42-1.658-0.468-2.548l-25.163-25.163
	c-0.645-0.645-1.31-0.757-1.651-0.766c-0.379-0.016-0.688,0.091-0.897,0.301l-52.959,52.959c-4.08,4.08-10.697,4.082-14.777,0.001
	c-4.08-4.08-4.082-10.697-0.001-14.777l52.959-52.96c8.722-8.722,23.123-8.513,32.104,0.465l25.163,25.163
	c8.977,8.977,9.188,23.378,0.469,32.101L244.167,325.543C240.027,329.683,234.481,331.962,228.551,331.963z"/>
<path d="M275.117,204.394c-2.679,0-5.358-1.024-7.399-3.071c-4.074-4.087-4.065-10.703,0.022-14.777l0.173-0.173
	c4.086-4.074,10.702-4.066,14.777,0.022c4.074,4.087,4.065,10.703-0.022,14.777l-0.173,0.172
	C280.455,203.378,277.785,204.394,275.117,204.394z"/>
<path d="M426.787,138.636c-2.676,0-5.352-1.022-7.393-3.065l-42.911-42.954c-4.078-4.083-4.075-10.699,0.007-14.777
	c4.083-4.078,10.699-4.074,14.777,0.007l42.911,42.954c4.078,4.083,4.075,10.699-0.007,14.777
	C432.132,137.617,429.459,138.636,426.787,138.636z"/>
<path d="M500.789,63.793l-52.607-52.568C440.942,3.987,431.323,0,421.095,0c-10.229,0-19.849,3.987-27.088,11.226L125.829,279.365
	c-0.993,0.993-1.763,2.165-2.283,3.439L61.851,404.683L9.414,457.162c-12.529,12.53-12.529,32.917,0.003,45.449
	c6.265,6.26,14.491,9.39,22.721,9.389c8.228-0.001,16.458-3.131,22.721-9.389l52.481-52.44l122.647-62.089
	c-0.001-0.001-0.002-0.002-0.003-0.003c0.962-0.487,1.868-1.126,2.672-1.931l268.136-268.135
	C515.71,103.094,515.716,78.78,500.789,63.793z M24.191,487.831c-4.38-4.381-4.38-11.511,0.003-15.894l3.052-3.054l15.894,15.895
	l-3.054,3.052C35.703,492.208,28.571,492.207,24.191,487.831z M96.413,432.279c-0.985,0.498-1.885,1.15-2.667,1.931l-35.821,35.793
	l-15.906-15.906l35.793-35.821c0.781-0.782,1.433-1.681,1.931-2.667l56.312-111.243l71.622,71.586L96.413,432.279z M225.265,363.983
	l-77.268-77.23l236.305-236.27l77.231,77.233L225.265,363.983z M486.014,103.235l-9.703,9.703l-77.23-77.232l9.704-9.702
	c3.293-3.292,7.665-5.106,12.31-5.106s9.018,1.813,12.312,5.108L486,78.559C492.793,85.379,492.799,96.45,486.014,103.235z"/>
<g>
</g>
<g>
</g>
<g>
</g>
<g>
</g>
<g>
</g>
<g>
</g>
<g>
</g>
<g>
</g>
<g>
</g>
<g>
</g>
<g>
</g>
<g>
</g>
<g>
</g>
<g>
</g>
<g>
</g>
</svg>
