<?xml version="1.0" encoding="iso-8859-1"?>
<!-- Generator: Adobe Illustrator 19.0.0, SVG Export Plug-In . SVG Version: 6.00 Build 0)  -->
<svg version="1.1" id="Layer_1" xmlns="http://www.w3.org/2000/svg" xmlns:xlink="http://www.w3.org/1999/xlink" x="0px" y="0px"
	 viewBox="0 0 511.999 511.999" style="enable-background:new 0 0 511.999 511.999;" xml:space="preserve">
<path style="fill:#D50707;" d="M141.145,328.328L402.739,32.092c22.611-22.611,59.274-22.609,81.882,0l0,0
	c22.613,22.613,22.613,59.274,0.002,81.884L188.385,375.568L141.145,328.328z"/>
<path style="fill:#772800;" d="M164.766,452.727c-27.828,27.829-86.232,55.487-154.317,39.366
	c38.138-57.915,25.709-112.315,53.538-140.145c27.829-27.828,72.95-27.828,100.778,0
	C192.596,379.778,192.596,424.899,164.766,452.727z"/>
<path d="M343.194,179.368c-2.685,0-5.368-1.027-7.411-3.083c-4.068-4.092-4.049-10.709,0.044-14.778l0.173-0.172
	c4.093-4.069,10.709-4.05,14.778,0.044c4.069,4.092,4.049,10.709-0.043,14.778l-0.173,0.172
	C348.522,178.355,345.858,179.368,343.194,179.368z"/>
<path d="M367.271,155.29c-2.675,0-5.348-1.021-7.389-3.061c-4.081-4.081-4.081-10.697,0-14.779l71.77-71.77
	c4.082-4.08,10.697-4.078,14.779,0c4.081,4.081,4.081,10.697,0,14.779l-71.771,71.77C372.62,154.269,369.945,155.29,367.271,155.29z
	"/>
<path d="M492.011,24.702c-12.908-12.908-30.072-20.017-48.329-20.017c-0.001,0,0,0-0.001,0c-18.257,0-35.422,7.11-48.331,20.017
	c-0.153,0.154-0.301,0.31-0.443,0.472L132.4,322.61c-0.006,0.007-0.01,0.015-0.017,0.022c-5.846-1.309-11.871-2.004-18.006-2.004
	c-21.826,0-42.345,8.499-57.779,23.931c-15.532,15.533-19.968,36.61-25.104,61.014c-5.156,24.499-11,52.268-29.772,80.773
	c-1.876,2.85-2.244,6.434-0.984,9.604c1.258,3.169,3.984,5.526,7.304,6.312c14.157,3.352,28.588,5.052,42.892,5.052
	c54.58,0,98.406-24.381,121.222-47.198c15.434-15.432,23.934-35.951,23.934-57.777c0-6.14-0.696-12.171-2.006-18.018
	c0.007-0.007,0.014-0.011,0.021-0.018L491.542,121.81c0.162-0.143,0.32-0.29,0.472-0.444
	C518.662,94.715,518.661,51.353,492.011,24.702z M157.376,445.337c-19.856,19.858-58.246,41.077-106.444,41.077
	c-7.924,0-15.898-0.59-23.835-1.759c14.824-27.151,20.312-53.232,24.847-74.78c4.633-22.012,8.293-39.4,19.431-50.54
	c11.486-11.485,26.757-17.81,43.001-17.81c16.243,0,31.515,6.325,42.999,17.81c11.486,11.486,17.812,26.757,17.812,43.001
	C175.188,418.582,168.863,433.852,157.376,445.337z M477.452,106.369L186.289,363.478c-3.724-6.867-8.455-13.241-14.134-18.919
	c-5.679-5.679-12.052-10.41-18.92-14.133L410.346,39.263c18.518-18.284,48.458-18.212,66.886,0.217
	C495.662,57.911,495.736,87.85,477.452,106.369z"/>
<g>
</g>
<g>
</g>
<g>
</g>
<g>
</g>
<g>
</g>
<g>
</g>
<g>
</g>
<g>
</g>
<g>
</g>
<g>
</g>
<g>
</g>
<g>
</g>
<g>
</g>
<g>
</g>
<g>
</g>
</svg>
