<?xml version="1.0" encoding="iso-8859-1"?>
<!-- Generator: Adobe Illustrator 19.0.0, SVG Export Plug-In . SVG Version: 6.00 Build 0)  -->
<svg version="1.1" id="Layer_1" xmlns="http://www.w3.org/2000/svg" xmlns:xlink="http://www.w3.org/1999/xlink" x="0px" y="0px"
	 viewBox="0 0 498.702 498.702" style="enable-background:new 0 0 498.702 498.702;" xml:space="preserve">
<g>
	<g>
		<path d="M257.206,418.301c-5.104-4.224-12.668-3.516-16.896,1.584l-41.368,49.916c-2.304,2.78-5.556,4.496-9.152,4.832
			c-3.608,0.348-7.112-0.752-9.892-3.052c-4.372-3.624-6.004-9.66-4.06-15.02c1.992-5.484-0.252-11.604-5.316-14.508
			c-5.068-2.904-11.48-1.744-15.204,2.756l-20.708,24.984c-2.308,2.78-5.556,4.5-9.152,4.836c-3.624,0.348-7.112-0.752-9.892-3.052
			c-5.332-4.42-6.476-12.096-2.656-17.856c3.056-4.608,2.564-10.712-1.192-14.776c-3.756-4.064-9.804-5.036-14.64-2.34
			c-4.928,2.736-10.892,2.192-15.204-1.384c-2.732-2.26-4.444-5.444-4.82-8.964c-0.712-6.592-6.672-11.38-13.216-10.648
			c-6.588,0.708-11.356,6.624-10.648,13.212c1.052,9.772,5.796,18.608,13.364,24.88c5.896,4.888,12.892,7.736,20.104,8.476
			c0.28,10.472,4.952,20.72,13.592,27.88c6.792,5.632,15.16,8.636,23.876,8.636c1.18,0,2.372-0.056,3.568-0.16
			c9.98-0.936,18.996-5.696,25.396-13.416l3.516-4.248c2.104,3.428,4.776,6.54,7.976,9.192c7.716,6.392,17.444,9.424,27.444,8.468
			c9.98-0.936,18.996-5.696,25.392-13.416l41.368-49.916C263.018,430.093,262.306,422.529,257.206,418.301z"/>
	</g>
</g>
<g>
	<g>
		<path d="M377.122,175.537h-128c-6.628,0-12,5.372-12,12s5.372,12,12,12h128c2.168,0,4,1.832,4,4v204c0,2.168-1.832,4-4,4h-328
			c-2.168,0-4-1.832-4-4v-204c0-2.168,1.832-4,4-4h56c6.628,0,12-5.372,12-12s-5.372-12-12-12h-56c-15.44,0-28,12.564-28,28v204
			c0,15.436,12.56,28,28,28h328c15.44,0,28-12.564,28-28v-204C405.122,188.101,392.562,175.537,377.122,175.537z"/>
	</g>
</g>
<g>
	<g>
		<polygon points="105.122,220.417 32.938,220.417 32.938,267.537 113.122,267.537 		"/>
	</g>
</g>
<g>
	<g>
		<rect x="177.122" y="223.537" width="220.992" height="47.12"/>
	</g>
</g>
<g>
	<g>
		<path d="M365.122,279.537h-160c-4.42,0-8,3.584-8,8v44c0,4.416,3.58,8,8,8h160c4.416,0,8-3.584,8-8v-44
			C373.122,283.121,369.538,279.537,365.122,279.537z M357.122,323.537h-144v-28h144V323.537z"/>
	</g>
</g>
<g>
	<g>
		<path d="M415.142,220.885c-7.36-45.852-33.808-84.54-76.484-111.888c-37.376-23.932-85.096-29.848-134.356-16.644
			c-4.268,1.144-6.8,5.532-5.656,9.796c1.14,4.268,5.524,6.808,9.796,5.656c44.868-12.02,88.044-6.816,121.584,14.664
			c38.736,24.816,62.704,59.724,69.32,100.952c0.632,3.932,4.028,6.732,7.888,6.732c0.424,0,0.848-0.032,1.276-0.1
			C412.874,229.353,415.842,225.249,415.142,220.885z"/>
	</g>
</g>
<g>
	<g>
		<path d="M405.07,47.801C355.722,8.685,290.466-16.707,266.278,12.937c-4.108,4.276-46.596,45.6-75.856,73.984
			c-9.996,3.168-17.472,6.4-27.432,11.804c-36.024,19.532-57.228,40.936-64.82,65.428c-9.208,29.724-6.132,78.5,7.008,111.052
			c6.58,16.28,20.76,25.96,37.584,25.96c1.304,0,2.624-0.06,3.96-0.18c18.1-1.596,33.592-13.936,36.832-29.324
			c3.308-15.636,4.836-42.468,5.448-56.804c11.936-2.456,33.064-7.224,51.928-13.672c31.1-10.62,53.976-24.848,54.936-25.444
			c5.616-3.52,7.316-10.924,3.8-16.54c-3.52-5.62-10.924-7.324-16.54-3.804c-0.212,0.136-21.456,13.344-49.96,23.08
			c-25.856,8.836-57.608,14.552-57.924,14.612c-5.608,1-9.736,5.804-9.888,11.496c-0.012,0.424-1.164,42.616-5.288,62.12
			c-1.064,5.064-8,9.716-15.46,10.376c-5.624,0.5-13.18-0.984-17.172-10.868c-10.968-27.168-13.868-70.652-6.34-94.956
			c5.568-17.956,23.512-35.264,53.336-51.436c9.4-5.096,15.9-7.824,25.756-10.8c1.832-0.556,3.508-1.54,4.884-2.876
			c77.612-75.276,79.084-77.132,79.716-77.928c8.952-11.304,54.46-1.964,105.38,38.388c49.74,39.428,69.484,80.58,62.008,93.012
			c-0.56,0.42-1.304,0.976-2.208,1.652c-10.36,7.748-37.88,28.34-55.692,50.812c-4.116,5.192-3.244,12.744,1.952,16.856
			c5.196,4.128,12.74,3.248,16.856-1.948c15.872-20.028,41.584-39.26,51.26-46.5c4.068-3.048,4.916-3.68,6.076-5.148
			C494.366,145.125,454.622,87.073,405.07,47.801z"/>
	</g>
</g>
<g>
	<g>
		<path d="M148.362,248.557c-7.104-17.58-30.336-18.392-31.32-18.416c-4.348-0.184-8.052,3.348-8.188,7.752
			c-0.132,4.404,3.332,8.092,7.736,8.244c0.136,0,13.82,0.696,16.94,8.416c1.26,3.116,4.256,5.008,7.42,5.008
			c1,0,2.016-0.192,2.992-0.588C148.038,257.313,150.018,252.653,148.362,248.557z"/>
	</g>
</g>
<g>
	<g>
		<path d="M99.69,314.997c-21.732,0-39.412,17.68-39.412,39.416c0,21.732,17.68,39.412,39.412,39.412s39.416-17.68,39.416-39.412
			C139.106,332.677,121.422,314.997,99.69,314.997z M99.69,377.829c-12.912,0-23.412-10.5-23.412-23.412
			c0-12.912,10.504-23.416,23.412-23.416c12.912,0,23.416,10.504,23.416,23.416C123.106,367.329,112.602,377.829,99.69,377.829z"/>
	</g>
</g>
<g>
	<g>
		<path d="M142.882,314.997c-21.732,0-39.412,17.68-39.412,39.416c0,21.732,17.68,39.412,39.412,39.412s39.416-17.68,39.412-39.412
			C182.294,332.677,164.614,314.997,142.882,314.997z M142.882,377.829c-12.912,0-23.412-10.5-23.412-23.412
			c0-12.912,10.5-23.416,23.412-23.416s23.416,10.504,23.416,23.416C166.298,367.329,155.794,377.829,142.882,377.829z"/>
	</g>
</g>
<g>
	<g>
		<path d="M379.434,171.537h-74.312c-6.628,0-12,5.372-12,12s5.372,12,12,12h74.312c2.168,0,4,1.832,4,4v23.024
			c0,6.628,5.372,12,12,12s12-5.372,12-12v-23.024C407.434,184.101,394.874,171.537,379.434,171.537z"/>
	</g>
</g>
<g>
</g>
<g>
</g>
<g>
</g>
<g>
</g>
<g>
</g>
<g>
</g>
<g>
</g>
<g>
</g>
<g>
</g>
<g>
</g>
<g>
</g>
<g>
</g>
<g>
</g>
<g>
</g>
<g>
</g>
</svg>
