<?xml version="1.0" encoding="iso-8859-1"?>
<!-- Generator: Adobe Illustrator 19.0.0, SVG Export Plug-In . SVG Version: 6.00 Build 0)  -->
<svg version="1.1" id="Layer_1" xmlns="http://www.w3.org/2000/svg" xmlns:xlink="http://www.w3.org/1999/xlink" x="0px" y="0px"
	 viewBox="0 0 507.9 507.9" style="enable-background:new 0 0 507.9 507.9;" xml:space="preserve">
<g>
	<g>
		<path d="M400.35,0h-292.8c-23.3,0-42.3,19-42.3,42.3v423.3c0,23.3,19,42.3,42.3,42.3h292.8c23.3,0,42.3-19,42.3-42.3V42.3
			C442.65,19,423.65,0,400.35,0z M414.45,465.7c0,7.8-6.3,14.1-14.1,14.1h-292.8c-7.8,0-14.1-6.3-14.1-14.1V42.3
			c0-7.8,6.3-14.1,14.1-14.1h292.8c7.8,0,14.1,6.3,14.1,14.1V465.7z"/>
	</g>
</g>
<g>
	<g>
		<path d="M296.05,45.6h-84.3c-7.8,0-14.1,6.3-14.1,14.1s6.3,14.1,14.1,14.1h84.3c7.8,0,14.1-6.3,14.1-14.1S303.85,45.6,296.05,45.6
			z"/>
	</g>
</g>
<g>
	<g>
		<path d="M275.05,433.1h-42.1c-7.8,0-14.1,6.3-14.1,14.1c0,7.8,6.3,14.1,14.1,14.1h42.1c7.8,0,14.1-6.3,14.1-14.1
			C289.15,439.4,282.85,433.1,275.05,433.1z"/>
	</g>
</g>
<g>
	<g>
		<path d="M178.55,109.9h-56.4c-7.8,0-14.1,6.3-14.1,14.1v56.4c0,7.8,6.3,14.1,14.1,14.1h56.4c7.8,0,14.1-6.3,14.1-14.1V124
			C192.65,116.2,186.35,109.9,178.55,109.9z M164.45,166.3h-28.2v-28.2h28.2V166.3z"/>
	</g>
</g>
<g>
	<g>
		<path d="M282.15,109.9h-56.4c-7.8,0-14.1,6.3-14.1,14.1v56.4c0,7.8,6.3,14.1,14.1,14.1h56.4c7.8,0,14.1-6.3,14.1-14.1V124
			C296.25,116.2,289.95,109.9,282.15,109.9z M268.05,166.3h-28.2v-28.2h28.2V166.3z"/>
	</g>
</g>
<g>
	<g>
		<path d="M385.85,109.9h-56.4c-7.8,0-14.1,6.3-14.1,14.1v56.4c0,7.8,6.3,14.1,14.1,14.1h56.4c7.8,0,14.1-6.3,14.1-14.1V124
			C399.95,116.2,393.65,109.9,385.85,109.9z M371.75,166.3h-28.2v-28.2h28.2V166.3z"/>
	</g>
</g>
<g>
	<g>
		<path d="M178.55,220.7h-56.4c-7.8,0-14.1,6.3-14.1,14.1v56.4c0,7.8,6.3,14.1,14.1,14.1h56.4c7.8,0,14.1-6.3,14.1-14.1v-56.4
			C192.65,227,186.35,220.7,178.55,220.7z M164.45,277.1h-28.2v-28.2h28.2V277.1z"/>
	</g>
</g>
<g>
	<g>
		<path d="M282.15,220.7h-56.4c-7.8,0-14.1,6.3-14.1,14.1v56.4c0,7.8,6.3,14.1,14.1,14.1h56.4c7.8,0,14.1-6.3,14.1-14.1v-56.4
			C296.25,227,289.95,220.7,282.15,220.7z M268.05,277.1h-28.2v-28.2h28.2V277.1z"/>
	</g>
</g>
<g>
	<g>
		<path d="M385.85,220.7h-56.4c-7.8,0-14.1,6.3-14.1,14.1v56.4c0,7.8,6.3,14.1,14.1,14.1h56.4c7.8,0,14.1-6.3,14.1-14.1v-56.4
			C399.95,227,393.65,220.7,385.85,220.7z M371.75,277.1h-28.2v-28.2h28.2V277.1z"/>
	</g>
</g>
<g>
	<g>
		<path d="M178.55,331.4h-56.4c-7.8,0-14.1,6.3-14.1,14.1V402c0,7.8,6.3,14.1,14.1,14.1h56.4c7.8,0,14.1-6.3,14.1-14.1v-56.4
			C192.65,337.7,186.35,331.4,178.55,331.4z M164.45,387.9h-28.2v-28.2h28.2V387.9z"/>
	</g>
</g>
<g>
</g>
<g>
</g>
<g>
</g>
<g>
</g>
<g>
</g>
<g>
</g>
<g>
</g>
<g>
</g>
<g>
</g>
<g>
</g>
<g>
</g>
<g>
</g>
<g>
</g>
<g>
</g>
<g>
</g>
</svg>
