<?xml version="1.0" encoding="iso-8859-1"?>
<!-- Generator: Adobe Illustrator 19.0.0, SVG Export Plug-In . SVG Version: 6.00 Build 0)  -->
<svg version="1.1" id="Layer_1" xmlns="http://www.w3.org/2000/svg" xmlns:xlink="http://www.w3.org/1999/xlink" x="0px" y="0px"
	 viewBox="0 0 508 508" style="enable-background:new 0 0 508 508;" xml:space="preserve">
<g>
	<g>
		<path d="M493.9,479.775h-13.4v-318.1c0-23.3-19-42.3-42.3-42.3H406v-83c0-6.1-3.9-11.5-9.8-13.4c-94.3-30.6-190.1-30.6-284.4,0
			c-5.8,1.9-9.8,7.3-9.8,13.4v83H69.9c-23.3,0-42.3,19-42.3,42.3v318.1H14.1c-7.8,0-14.1,6.3-14.1,14.1s6.3,14.1,14.1,14.1h479.8
			c7.8,0,14.1-6.3,14.1-14.1C508,486.075,501.7,479.775,493.9,479.775z M130.3,46.675c82.3-24.7,165.1-24.7,247.4,0v153.6H130.3
			V46.675z M291.9,228.475v28.2h-75.8v-28.2H291.9z M294.3,479.775h-80.5v-101.2h80.5V479.775z M452.2,479.775H322.5v-1.5
			c12.2-3.1,22.4-9.4,30.4-19c22-26.3,17.4-67.5,17.2-69.3c-0.8-7.1-6.9-12.5-14-12.5h-33.6v-13c0-7.8-6.3-14.1-14.1-14.1H199.6
			c-7.8,0-14.1,6.3-14.1,14.1v115.3H55.8v-101.2h11.8c7.8,0,14.1-6.3,14.1-14.1s-6.3-14.1-14.1-14.1H55.8v-28.2h40
			c7.8,0,14.1-6.3,14.1-14.1s-6.3-14.1-14.1-14.1h-40v-132.3c0-7.8,6.3-14.1,14.1-14.1h32.2v66.8c0,7.8,6.3,14.1,14.1,14.1h71.7
			v42.3c0,7.8,6.3,14.1,14.1,14.1h37.9v19.8c0,7.8,6.3,14.1,14.1,14.1s14.1-6.3,14.1-14.1v-19.7H306c7.8,0,14.1-6.3,14.1-14.1v-42.3
			h71.7c7.8,0,14.1-6.3,14.1-14.1v-66.8h32.2c7.8,0,14.1,6.3,14.1,14.1V479.775z M322.5,448.075v-42.3h19.8
			C342.3,434.275,327.8,446.575,322.5,448.075z"/>
	</g>
</g>
<g>
</g>
<g>
</g>
<g>
</g>
<g>
</g>
<g>
</g>
<g>
</g>
<g>
</g>
<g>
</g>
<g>
</g>
<g>
</g>
<g>
</g>
<g>
</g>
<g>
</g>
<g>
</g>
<g>
</g>
</svg>
