<?xml version="1.0" encoding="iso-8859-1"?>
<!-- Generator: Adobe Illustrator 19.0.0, SVG Export Plug-In . SVG Version: 6.00 Build 0)  -->
<svg version="1.1" id="Layer_1" xmlns="http://www.w3.org/2000/svg" xmlns:xlink="http://www.w3.org/1999/xlink" x="0px" y="0px"
	 viewBox="0 0 508 508" style="enable-background:new 0 0 508 508;" xml:space="preserve">
<g>
	<g>
		<path d="M332.5,155.3c-8.2,0-23,4.6-37.6,11.2c5.3-21,6-42.6,6-42.9c0-21.8-20.6-38.9-47-38.9c-26.3,0-47,17.1-47,38.9
			c0,8.2,4.6,23.1,11.3,37.7c-20.9-5.3-42.5-6-42.8-6c-21.8,0-38.9,20.6-38.9,47c0,26.3,17.1,47,38.9,47c8.2,0,22.9-4.6,37.4-11.2
			c-5.2,20.9-5.9,42.2-5.9,42.6c0,21.8,20.6,38.9,47,38.9c26.3,0,47-17.1,47-38.9c0-8.3-4.5-22.8-11-37.3
			c20.9,5.2,42.2,5.9,42.6,5.9c21.8,0,38.9-20.6,38.9-47C371.4,176,354.3,155.3,332.5,155.3z M221.9,200.8
			c-14.8,10.6-40.1,20-46.4,20.1c-4.9,0-10.7-8.2-10.7-18.7c0-10.6,5.7-18.7,10.7-18.7c12.5,0,35.7,4,47.9,8.8
			C223.3,192.8,222,195.7,221.9,200.8z M254,291.2c-10.6,0-18.7-5.7-18.7-10.7c0-12.4,3.9-35.5,8.7-47.8c2.8,0.9,5.7,1.5,8.7,1.6
			c10.5,14.8,19.9,40,20,46.2C272.7,285.5,264.6,291.2,254,291.2z M250.1,202.1c0-2.2,1.8-3.9,3.9-3.9c2.2,0,3.9,1.8,3.9,3.9
			c0,2.2-1.8,3.9-3.9,3.9C251.8,206,250.1,204.2,250.1,202.1z M263.9,171.7c-2.7-0.9-5.5-1.4-8.4-1.6
			c-10.6-14.7-20.1-40.1-20.2-46.5c0-4.9,8.2-10.7,18.7-10.7c10.6,0,18.7,5.7,18.7,10.7C272.7,136.1,268.7,159.5,263.9,171.7z
			 M332.4,220.9c-12.5,0-35.7-4-47.9-8.8c0.4-1.1,1.6-3,1.6-8.6c14.8-10.6,40.1-20,46.4-20.1c4.9,0.1,10.6,8.3,10.6,18.8
			C343.1,212.8,337.4,220.9,332.4,220.9z"/>
	</g>
</g>
<g>
	<g>
		<path d="M254,47.9c-85,0-154.2,69.2-154.2,154.2S169,356.3,254,356.3s154.2-69.2,154.2-154.2C408.2,117,339,47.9,254,47.9z
			 M254,328.1c-69.5,0-126-56.5-126-126s56.5-126,126-126s126,56.5,126,126S323.5,328.1,254,328.1z"/>
	</g>
</g>
<g>
	<g>
		<path d="M465.7,0H42.3C19,0,0,19,0,42.3v451.6c0,7.8,6.3,14.1,14.1,14.1c7.8,0,14.1-6.3,14.1-14.1v-26.1h451.6v26.1
			c0,7.8,6.3,14.1,14.1,14.1s14.1-6.3,14.1-14.1V42.3C508,19,489,0,465.7,0z M28.2,42.3c0-7.8,6.3-14.1,14.1-14.1h423.3
			c7.8,0,14.1,6.3,14.1,14.1v333.6H28.2V42.3z M479.8,439.6L479.8,439.6H28.2v-35.5h451.6V439.6z"/>
	</g>
</g>
<g>
	<g>
		<path d="M436.5,62h-21.1c-7.8,0-14.1,6.3-14.1,14.1s6.3,14.1,14.1,14.1h21.1c7.8,0,14.1-6.3,14.1-14.1S444.3,62,436.5,62z"/>
	</g>
</g>
<g>
	<g>
		<path d="M92.6,62H71.5c-7.8,0-14.1,6.3-14.1,14.1s6.3,14.1,14.1,14.1h21.1c7.8,0,14.1-6.3,14.1-14.1C106.7,68.3,100.4,62,92.6,62z
			"/>
	</g>
</g>
<g>
</g>
<g>
</g>
<g>
</g>
<g>
</g>
<g>
</g>
<g>
</g>
<g>
</g>
<g>
</g>
<g>
</g>
<g>
</g>
<g>
</g>
<g>
</g>
<g>
</g>
<g>
</g>
<g>
</g>
</svg>
