<?xml version="1.0" encoding="iso-8859-1"?>
<!-- Generator: Adobe Illustrator 19.0.0, SVG Export Plug-In . SVG Version: 6.00 Build 0)  -->
<svg version="1.1" id="Layer_1" xmlns="http://www.w3.org/2000/svg" xmlns:xlink="http://www.w3.org/1999/xlink" x="0px" y="0px"
	 viewBox="0 0 508 508" style="enable-background:new 0 0 508 508;" xml:space="preserve">
<g>
	<g>
		<path d="M493.9,277.1H384.4c-7.8,0-14.1,6.3-14.1,14.1v202.7c0,7.8,6.3,14.1,14.1,14.1h109.5c7.8,0,14.1-6.3,14.1-14.1V291.2
			C508,283.4,501.7,277.1,493.9,277.1z M479.8,479.8h-81.3V464h81.3V479.8z M479.8,435.8h-81.3V305.3h81.3V435.8z"/>
	</g>
</g>
<g>
	<g>
		<path d="M288.7,337.1H66.4c-7.8,0-14.1,6.3-14.1,14.1v90.5c0,7.8,6.3,14.1,14.1,14.1h222.2c7.8,0,14.1-6.3,14.1-14.1v-90.5
			C302.8,343.5,296.5,337.1,288.7,337.1z M274.6,427.7h-194v-62.3h194V427.7z"/>
	</g>
</g>
<g>
	<g>
		<path d="M107.7,374.8c-7.8,0-14.1,6.3-14.1,14.1v15.2c0,7.8,6.3,14.1,14.1,14.1s14.1-6.3,14.1-14.1v-15.2
			C121.8,381.1,115.5,374.8,107.7,374.8z"/>
	</g>
</g>
<g>
	<g>
		<path d="M154.3,374.8c-7.8,0-14.1,6.3-14.1,14.1v15.2c0,7.8,6.3,14.1,14.1,14.1c7.8,0,14.1-6.3,14.1-14.1v-15.2
			C168.4,381.1,162.1,374.8,154.3,374.8z"/>
	</g>
</g>
<g>
	<g>
		<path d="M200.8,374.8c-7.8,0-14.1,6.3-14.1,14.1v15.2c0,7.8,6.3,14.1,14.1,14.1c7.8,0,14.1-6.3,14.1-14.1v-15.2
			C214.9,381.1,208.6,374.8,200.8,374.8z"/>
	</g>
</g>
<g>
	<g>
		<path d="M247.4,374.8c-7.8,0-14.1,6.3-14.1,14.1v15.2c0,7.8,6.3,14.1,14.1,14.1s14.1-6.3,14.1-14.1v-15.2
			C261.5,381.1,255.2,374.8,247.4,374.8z"/>
	</g>
</g>
<g>
	<g>
		<path d="M469.1,226.6l-116.3-76.4c-5.6-16.8-21.5-28.9-40.1-28.9h-13.5l-15-51.8c-1.7-6-7.3-10.2-13.6-10.2h-16.9V14.1
			c0-7.8-6.3-14.1-14.1-14.1H115.4c-7.8,0-14.1,6.3-14.1,14.1v45.2H84.4c-6.3,0-11.8,4.2-13.6,10.2l-15,51.8H42.3
			C19,121.3,0,140.3,0,163.6v302C0,489,19,508,42.3,508h270.4c23.3,0,42.3-19,42.3-42.3V253.3c0.1,0,107.7,0,107.7,0
			c7.8,0,14.1-6.3,14.1-14.1C476.8,233.7,473.7,229,469.1,226.6z M129.5,28.2h96v31.1h-96V28.2z M95,87.6h165.2l9.8,33.7H85.2
			L95,87.6z M312.8,479.8H42.3c-7.8,0-14.1-6.3-14.1-14.1V280h14.9c7.8,0,14.1-6.3,14.1-14.1c0-7.8-6.3-14.1-14.1-14.1H28.2v-28.2
			h43.1c7.8,0,14.1-6.3,14.1-14.1c0-7.8-6.3-14.1-14.1-14.1H28.2v-31.7c0-7.8,6.3-14.1,14.1-14.1h270.4c7.8,0,14.1,6.3,14.1,14.1
			v302h0.1C326.9,473.5,320.6,479.8,312.8,479.8z M355.1,225.1v-39.6l60.3,39.6H355.1z"/>
	</g>
</g>
<g>
</g>
<g>
</g>
<g>
</g>
<g>
</g>
<g>
</g>
<g>
</g>
<g>
</g>
<g>
</g>
<g>
</g>
<g>
</g>
<g>
</g>
<g>
</g>
<g>
</g>
<g>
</g>
<g>
</g>
</svg>
