<?xml version="1.0" encoding="iso-8859-1"?>
<!-- Generator: Adobe Illustrator 19.0.0, SVG Export Plug-In . SVG Version: 6.00 Build 0)  -->
<svg version="1.1" id="Layer_1" xmlns="http://www.w3.org/2000/svg" xmlns:xlink="http://www.w3.org/1999/xlink" x="0px" y="0px"
	 viewBox="0 0 507.9 507.9" style="enable-background:new 0 0 507.9 507.9;" xml:space="preserve">
<g>
	<g>
		<path d="M465.7,42.05H42.3C19,42.05,0,61.05,0,84.35v282.7c0,23.3,19,42.3,42.3,42.3h423.3c23.3,0,42.3-19,42.3-42.3V84.35
			C508,61.05,489,42.05,465.7,42.05z M465.7,381.25H42.3c-7.8,0-14.1-6.3-14.1-14.1V84.35c0-7.8,6.3-14.1,14.1-14.1h423.3
			c7.8,0,14.1,6.3,14.1,14.1v282.8h0.1C479.8,374.95,473.5,381.25,465.7,381.25z"/>
	</g>
</g>
<g>
	<g>
		<path d="M147,437.65H80.1c-7.8,0-14.1,6.3-14.1,14.1s6.3,14.1,14.1,14.1H147c7.8,0,14.1-6.3,14.1-14.1
			C161.1,443.95,154.8,437.65,147,437.65z"/>
	</g>
</g>
<g>
	<g>
		<path d="M427.9,437.65H361c-7.8,0-14.1,6.3-14.1,14.1s6.3,14.1,14.1,14.1h66.9c7.8,0,14.1-6.3,14.1-14.1
			C442,443.95,435.7,437.65,427.9,437.65z"/>
	</g>
</g>
<g>
	<g>
		<path d="M94.2,101.45H76.3c-7.8,0-14.1,6.3-14.1,14.1s6.3,14.1,14.1,14.1h17.9c7.8,0,14.1-6.3,14.1-14.1S102,101.45,94.2,101.45z"
			/>
	</g>
</g>
<g>
	<g>
		<path d="M174.1,101.45h-17.9c-7.8,0-14.1,6.3-14.1,14.1s6.3,14.1,14.1,14.1h17.9c7.8,0,14.1-6.3,14.1-14.1
			S181.9,101.45,174.1,101.45z"/>
	</g>
</g>
<g>
	<g>
		<path d="M254.1,101.35h-17.9c-7.8,0-14.1,6.3-14.1,14.1s6.3,14.1,14.1,14.1h17.9c7.8,0,14.1-6.3,14.1-14.1
			S261.9,101.35,254.1,101.35z"/>
	</g>
</g>
<g>
	<g>
		<path d="M188,226.15c-0.4,0-0.9,0-1.4,0.2l14-26.3c0.9-1.6,1.2-3.2,1.2-5c0-5.1-4.3-10.3-10.3-10.3c-3.7,0-7.3,2-9.2,5.5
			l-31.6,59.3c-2.8,5.3-4.1,11.5-4.1,18.1c0,22.7,18.6,41.4,41.4,41.4c22.9,0,41.5-18.6,41.5-41.4
			C229.5,244.75,210.9,226.15,188,226.15z M188,288.25c-11.4,0-20.6-9.2-20.6-20.6c0-11.5,9.2-20.8,20.6-20.8
			c11.5,0,20.8,9.2,20.8,20.8C208.7,279.05,199.5,288.25,188,288.25z"/>
	</g>
</g>
<g>
	<g>
		<path d="M254,236.55c-5.7,0-10.3,4.6-10.3,10.3c0,5.7,4.6,10.3,10.3,10.3c5.9,0,10.5-4.6,10.5-10.3
			C264.5,241.25,259.9,236.55,254,236.55z"/>
	</g>
</g>
<g>
	<g>
		<path d="M254,288.25c-5.7,0-10.3,4.6-10.3,10.3c0,5.9,4.6,10.5,10.3,10.5c5.9,0,10.5-4.6,10.5-10.5
			C264.5,292.85,259.9,288.25,254,288.25z"/>
	</g>
</g>
<g>
	<g>
		<path d="M417,184.75c-23.1,0-41.4,22-41.4,51.8v20.6c0,29.8,17.3,51.8,41.4,51.8c23.8,0,41.4-21.7,41.4-51.8v-20.6
			C458.4,207.35,440.6,184.75,417,184.75z M437.8,257.15c0,18.1-8.4,31.1-20.8,31.1c-12.8,0-20.8-13.3-20.8-31.1v-20.6
			c0-15.1,7.3-31.1,20.8-31.1s20.8,16,20.8,31.1V257.15z"/>
	</g>
</g>
<g>
	<g>
		<path d="M320,184.75c-23.1,0-41.4,22-41.4,51.8v20.6c0,29.8,17.3,51.8,41.4,51.8c23.8,0,41.4-21.7,41.4-51.8v-20.6
			C361.5,207.35,343.7,184.75,320,184.75z M340.8,257.15c0,18.1-8.4,31.1-20.8,31.1c-12.8,0-20.8-13.3-20.8-31.1v-20.6
			c0-15.1,7.3-31.1,20.8-31.1s20.8,16,20.8,31.1V257.15z"/>
	</g>
</g>
<g>
	<g>
		<path d="M91,184.75c-23.1,0-41.4,22-41.4,51.8v20.6c0,29.8,17.3,51.8,41.4,51.8c23.8,0,41.4-21.7,41.4-51.8v-20.6
			C132.5,207.35,114.7,184.75,91,184.75z M111.8,257.15c0,18.1-8.4,31.1-20.8,31.1c-12.8,0-20.8-13.3-20.8-31.1v-20.6
			c0-15.1,7.3-31.1,20.8-31.1s20.8,16,20.8,31.1V257.15z"/>
	</g>
</g>
<g>
</g>
<g>
</g>
<g>
</g>
<g>
</g>
<g>
</g>
<g>
</g>
<g>
</g>
<g>
</g>
<g>
</g>
<g>
</g>
<g>
</g>
<g>
</g>
<g>
</g>
<g>
</g>
<g>
</g>
</svg>
