<?xml version="1.0" encoding="iso-8859-1"?>
<!-- Generator: Adobe Illustrator 19.0.0, SVG Export Plug-In . SVG Version: 6.00 Build 0)  -->
<svg version="1.1" id="Layer_1" xmlns="http://www.w3.org/2000/svg" xmlns:xlink="http://www.w3.org/1999/xlink" x="0px" y="0px"
	 viewBox="0 0 392.561 392.561" style="enable-background:new 0 0 392.561 392.561;" xml:space="preserve">
<g>
	<g>
		<path d="M389.344,232.781l-71.693-71.628l53.463-53.463c11.572-11.507,34.909-51.523,0-86.497
			c-34.004-34.004-74.925-11.507-86.497,0L231.154,74.72L159.461,3.092c-4.073-4.073-11.313-4.073-15.386,0L84.278,62.89
			c-4.267,4.267-4.267,11.119,0,15.386l71.693,71.628l-44.994,44.994c-8.339-1.875-61.479-14.804-106.925,30.707
			c-2.004,2.004-8.016,7.37,0,15.386l66.004,66.004l-26.182,26.053c-4.267,4.267-4.267,11.119,0,15.386
			c7.046,5.948,13.317,2.069,15.451,0l26.117-26.117l66.004,65.939c8.469,8.469,13.317,2.069,15.386,0
			c42.796-42.796,32.582-98.586,30.772-106.925l44.994-44.994l71.693,71.628c7.111,6.852,13.382,2.004,15.386,0l59.798-59.798
			C393.611,243.965,393.611,237.048,389.344,232.781z M107.356,70.518l44.412-44.412l64,64l-44.412,44.412L107.356,70.518z
			 M158.621,364.724L27.583,233.751c18.295-18.295,81.067-35.491,123.798,7.24C196.633,286.179,178.08,345.331,158.621,364.724z
			 M189.587,258.381c-5.624-12.024-13.188-23.208-22.885-32.84s-20.816-17.325-32.84-22.885L300.003,36.579
			c7.434-7.434,34.586-21.075,55.725,0c20.493,20.493,7.434,48.291,0,55.725L189.587,258.381z M321.789,284.951l-64-64
			l44.412-44.412l64,64L321.789,284.951z"/>
	</g>
</g>
<g>
</g>
<g>
</g>
<g>
</g>
<g>
</g>
<g>
</g>
<g>
</g>
<g>
</g>
<g>
</g>
<g>
</g>
<g>
</g>
<g>
</g>
<g>
</g>
<g>
</g>
<g>
</g>
<g>
</g>
</svg>
