<?xml version="1.0" encoding="iso-8859-1"?>
<!-- Generator: Adobe Illustrator 19.0.0, SVG Export Plug-In . SVG Version: 6.00 Build 0)  -->
<svg version="1.1" id="Layer_1" xmlns="http://www.w3.org/2000/svg" xmlns:xlink="http://www.w3.org/1999/xlink" x="0px" y="0px"
	 viewBox="0 0 508 508" style="enable-background:new 0 0 508 508;" xml:space="preserve">
<g>
	<g>
		<path d="M493.9,363.35h-26.5V73.75c0-7.8-6.3-14.1-14.1-14.1H54.7c-7.8,0-14.1,6.3-14.1,14.1v289.6H14.1
			c-7.8,0-14.1,6.3-14.1,14.1v35.6c0,3.7,1.5,7.3,4.1,10l21.2,21.2c2.6,2.6,6.2,4.1,10,4.1h437.4c3.7,0,7.3-1.5,10-4.1l21.2-21.2
			c2.6-2.6,4.1-6.2,4.1-10v-35.6C508,369.65,501.7,363.35,493.9,363.35z M68.8,335.35h12.6c7.8,0,14.1-6.3,14.1-14.1
			s-6.3-14.1-14.1-14.1H68.8v-28.2h40.8c7.8,0,14.1-6.3,14.1-14.1s-6.3-14.1-14.1-14.1H68.8V87.85h370.4v275.5H68.8V335.35z
			 M479.8,407.15L479.8,407.15l-12.9,12.9H41.1l-12.9-12.9v-15.6h451.6V407.15z"/>
	</g>
</g>
<g>
	<g>
		<path d="M254,234.55c-27.2,0-49.4,22-49.4,49.1c0,27.1,22.2,49.1,49.4,49.1s49.4-22,49.4-49.1
			C303.4,256.55,281.2,234.55,254,234.55z M254,304.45c-11.7,0-21.2-9.4-21.2-20.8c0-11.4,9.5-20.8,21.2-20.8s21.2,9.4,21.2,20.8
			C275.2,295.05,265.7,304.45,254,304.45z"/>
	</g>
</g>
<g>
	<g>
		<path d="M372.6,168.65c-65.4-64.7-171.8-64.7-237.1,0c-5.5,5.5-5.6,14.4-0.1,20c5.5,5.5,14.4,5.6,20,0.1
			c54.4-53.9,142.9-53.9,197.3,0c2.7,2.7,12.5,7.3,20-0.1C378.2,183.15,378.1,174.15,372.6,168.65z"/>
	</g>
</g>
<g>
	<g>
		<path d="M342.2,209.45c-48.7-48.2-127.8-48.2-176.4,0c-5.5,5.5-5.6,14.4-0.1,20c5.5,5.5,14.4,5.6,20,0.1
			c37.7-37.3,98.9-37.3,136.6,0c2.7,2.7,12.2,7.7,20-0.1C347.8,223.95,347.7,214.95,342.2,209.45z"/>
	</g>
</g>
<g>
</g>
<g>
</g>
<g>
</g>
<g>
</g>
<g>
</g>
<g>
</g>
<g>
</g>
<g>
</g>
<g>
</g>
<g>
</g>
<g>
</g>
<g>
</g>
<g>
</g>
<g>
</g>
<g>
</g>
</svg>
