<?xml version="1.0" encoding="iso-8859-1"?>
<!-- Generator: Adobe Illustrator 19.0.0, SVG Export Plug-In . SVG Version: 6.00 Build 0)  -->
<svg version="1.1" id="Layer_1" xmlns="http://www.w3.org/2000/svg" xmlns:xlink="http://www.w3.org/1999/xlink" x="0px" y="0px"
	 viewBox="0 0 508 508" style="enable-background:new 0 0 508 508;" xml:space="preserve">
<g>
	<g>
		<path d="M352.3,275.3h-11.7c-7.8,0-14.1,6.3-14.1,14.1s6.3,14.1,14.1,14.1h11.7c7.8,0,14.1-6.3,14.1-14.1
			C366.4,281.6,360.1,275.3,352.3,275.3z"/>
	</g>
</g>
<g>
	<g>
		<path d="M408.7,275.3H397c-7.8,0-14.1,6.3-14.1,14.1s6.3,14.1,14.1,14.1h11.7c7.8,0,14.1-6.3,14.1-14.1
			C422.8,281.6,416.5,275.3,408.7,275.3z"/>
	</g>
</g>
<g>
	<g>
		<path d="M352.3,330.5h-11.7c-7.8,0-14.1,6.3-14.1,14.1c0,7.8,6.3,14.1,14.1,14.1h11.7c7.8,0,14.1-6.3,14.1-14.1
			C366.4,336.8,360.1,330.5,352.3,330.5z"/>
	</g>
</g>
<g>
	<g>
		<path d="M408.8,330.5H397c-7.8,0-14.1,6.3-14.1,14.1c0,7.8,6.3,14.1,14.1,14.1h11.7c7.8,0,14.1-6.3,14.1-14.1
			C422.8,336.8,416.6,330.5,408.8,330.5z"/>
	</g>
</g>
<g>
	<g>
		<path d="M493.9,373.2H472l-20-172.6h30.1c7.8,0,14.1-6.3,14.1-14.1V114c0-7.8-6.3-14.1-14.1-14.1H452v-8.6
			c0-7.8-6.3-14.1-14.1-14.1h-57.8V14.1C380.1,6.3,373.7,0,366,0c-7.8,0-14.1,6.3-14.1,14.1v63.1H114.3V14.1
			C114.3,6.3,108,0,100.2,0S86.1,6.3,86.1,14.1v63.1H31.7c-7.8,0-14.1,6.3-14.1,14.1v77c0,3.8,1.5,7.4,4.2,10.1l42.3,41.4
			c1.9,1.9,4.4,3.2,7,3.7v42.8c0,7.8,6.3,14.1,14.1,14.1h24.7v45.9c0,7.8,6.3,14.1,14.1,14.1s14.1-6.3,14.1-14.1v-45.9h24.7
			c7.8,0,14.1-6.3,14.1-14.1v-42.5h63.2c39,0,50.1,36.5,47.5,51.8l-11.5,97.6h-262c-7.8,0-14.1,6.3-14.1,14.1v106.6
			c0,7.8,6.3,14.1,14.1,14.1h45.3c5.3,0,10.1-3,12.6-7.7l25.6-50h312.9l25.6,50c2.4,4.7,7.3,7.7,12.6,7.7h45.2
			c7.8,0,14.1-6.3,14.1-14.1V387.3C508,379.5,501.7,373.2,493.9,373.2z M452,128.1h16v44.3h-16V128.1z M148.7,252.1H99.4v-28.3h49.3
			V252.1z M240.1,195.6H79.8l-34-33.2v-57h378c0,0,0,100,0.1,100.5l19.7,167.3H304.5l11.1-94.3C319.5,254,305,196.8,240.1,195.6z
			 M479.8,479.8L479.8,479.8h-22.5l-25.6-50c-2.4-4.7-7.3-7.7-12.6-7.7H88.9c-5.3,0-10.1,3-12.6,7.7l-25.6,50H28.2v-78.4h451.6
			V479.8z"/>
	</g>
</g>
<g>
	<g>
		<path d="M346.5,122.6c-27.9,0-50.6,22.7-50.6,50.6c0,27.9,22.7,50.6,50.6,50.6c27.9,0,50.6-22.7,50.6-50.6
			C397.1,145.3,374.4,122.6,346.5,122.6z M346.5,195.5c-12.3,0-22.3-10-22.3-22.3c0-12.3,9.9-22.3,22.3-22.3
			c12.3,0,22.3,10,22.3,22.3C368.8,185.5,358.8,195.5,346.5,195.5z"/>
	</g>
</g>
<g>
</g>
<g>
</g>
<g>
</g>
<g>
</g>
<g>
</g>
<g>
</g>
<g>
</g>
<g>
</g>
<g>
</g>
<g>
</g>
<g>
</g>
<g>
</g>
<g>
</g>
<g>
</g>
<g>
</g>
</svg>
