<?xml version="1.0" encoding="iso-8859-1"?>
<!-- Generator: Adobe Illustrator 19.0.0, SVG Export Plug-In . SVG Version: 6.00 Build 0)  -->
<svg version="1.1" id="Layer_1" xmlns="http://www.w3.org/2000/svg" xmlns:xlink="http://www.w3.org/1999/xlink" x="0px" y="0px"
	 viewBox="0 0 511.999 511.999" style="enable-background:new 0 0 511.999 511.999;" xml:space="preserve">
<path style="fill:#FECC85;" d="M453.103,271.117H58.896v-55.596c0-108.857,88.246-197.103,197.103-197.103l0,0
	c108.857,0,197.103,88.246,197.103,197.103V271.117z"/>
<g>
	<path style="fill:#FF5E8A;" d="M297.613,85.101c-23.317,0-41.61,25.998-41.61,25.998s-17.256-25.998-41.621-25.998
		c-23.699,0-43.052,19.547-44.317,43.212c-0.714,13.369,3.597,23.545,9.669,32.761c12.135,18.412,65.186,62.738,76.347,62.738
		c11.391,0,63.97-44.165,76.186-62.738c6.085-9.258,10.383-19.391,9.667-32.761C340.668,104.648,321.314,85.101,297.613,85.101"/>
	<path style="fill:#FF5E8A;" d="M497.921,311.288c0-22.185-17.986-40.172-40.172-40.172H54.25
		c-22.185,0-40.171,17.987-40.171,40.172v45.835h483.842V311.288z"/>
</g>
<rect x="14.079" y="357.122" style="fill:#FECC85;" width="483.847" height="100.086"/>
<path d="M297.615,71.023c-17.549,0-32.073,9.979-41.509,18.839c-9.337-8.868-23.819-18.839-41.723-18.839
	c-31.037,0-56.68,24.835-58.376,56.542c-1.021,19.146,6.344,32.715,11.973,41.258c7.68,11.652,26.379,29.011,41.318,41.373
	c33.474,27.697,42.801,27.697,46.782,27.697c4.031,0,13.472,0,46.777-27.652c14.828-12.309,33.43-29.657,41.173-41.434
	c5.626-8.557,12.985-22.145,11.961-41.245C354.296,95.857,328.653,71.023,297.615,71.023z M320.504,153.339
	c-9.886,15.035-51.347,49.836-64.389,55.884c-13.155-6.13-54.782-40.964-64.623-55.894c-5.616-8.523-7.819-15.78-7.366-24.262
	c0.881-16.479,14.456-29.887,30.26-29.887c13.589,0,26.208,14.259,29.891,19.705c2.561,3.859,6.872,6.189,11.502,6.269
	c4.691,0.08,9.02-2.144,11.712-5.913c3.987-5.579,17.169-20.061,30.124-20.061c15.805,0,29.38,13.406,30.261,29.888
	C328.335,137.642,326.199,144.674,320.504,153.339z"/>
<path d="M467.182,257.876v-42.355c0-116.446-94.736-211.181-211.182-211.181S44.817,99.075,44.817,215.521v42.355
	C19.387,262.356,0,284.593,0,311.288v45.835v100.085c0,7.774,6.303,14.079,14.079,14.079H52.56v22.292
	c0,7.774,6.303,14.079,14.079,14.079s14.079-6.304,14.079-14.079v-22.292h350.563v22.292c0,7.774,6.303,14.079,14.079,14.079
	c7.776,0,14.079-6.304,14.079-14.079v-22.292h38.482c7.776,0,14.079-6.304,14.079-14.079V357.123v-45.835
	C512,284.593,492.613,262.356,467.182,257.876z M72.975,215.521c0-100.92,82.105-183.023,183.025-183.023
	s183.025,82.103,183.025,183.023v41.517H72.975L72.975,215.521L72.975,215.521z M28.158,311.288
	c0-14.389,11.705-26.092,26.094-26.092h4.646h394.207h4.646c14.389,0,26.094,11.704,26.094,26.092v31.756H28.158V311.288z
	 M28.158,443.129v-21.884h145.006c7.776,0,14.079-6.304,14.079-14.079c0-7.774-6.303-14.079-14.079-14.079H28.158v-21.886h455.685
	v21.886H338.836c-7.776,0-14.079,6.304-14.079,14.079c0,7.774,6.303,14.079,14.079,14.079h145.006v21.884H28.158z"/>
<path d="M228.18,401.777c-0.352-0.845-0.788-1.661-1.295-2.422c-0.521-0.774-1.112-1.505-1.76-2.154
	c-0.648-0.648-1.366-1.223-2.14-1.744c-0.76-0.507-1.577-0.943-2.422-1.295c-0.859-0.352-1.746-0.619-2.633-0.802
	c-1.816-0.366-3.689-0.366-5.505,0c-0.901,0.183-1.788,0.451-2.633,0.802c-0.859,0.352-1.675,0.788-2.436,1.295
	c-0.774,0.521-1.492,1.097-2.14,1.744c-0.648,0.649-1.239,1.38-1.746,2.154c-0.507,0.76-0.943,1.577-1.295,2.422
	c-0.352,0.859-0.619,1.746-0.802,2.633c-0.183,0.915-0.282,1.832-0.282,2.759c0,3.704,1.506,7.335,4.125,9.954
	c0.648,0.648,1.366,1.239,2.14,1.746c0.76,0.505,1.577,0.943,2.436,1.295c0.845,0.352,1.732,0.618,2.633,0.803
	c0.901,0.183,1.83,0.266,2.745,0.266s1.844-0.084,2.759-0.266c0.887-0.184,1.774-0.451,2.633-0.803
	c0.845-0.352,1.661-0.79,2.422-1.295c0.774-0.507,1.492-1.098,2.14-1.746s1.239-1.366,1.746-2.14
	c0.507-0.76,0.943-1.577,1.295-2.436c0.352-0.845,0.634-1.73,0.817-2.633c0.183-0.914,0.268-1.83,0.268-2.745
	c0-0.928-0.084-1.844-0.268-2.759C228.799,403.51,228.532,402.637,228.18,401.777z"/>
<path d="M309.823,401.777c-0.352-0.845-0.788-1.661-1.295-2.422c-0.507-0.774-1.098-1.505-1.746-2.154
	c-2.619-2.617-6.251-4.111-9.954-4.111c-3.717,0-7.335,1.494-9.954,4.111c-0.648,0.649-1.239,1.38-1.76,2.154
	c-0.507,0.76-0.943,1.577-1.295,2.422c-0.338,0.859-0.619,1.732-0.802,2.633c-0.169,0.915-0.267,1.832-0.267,2.759
	c0,3.704,1.506,7.335,4.125,9.954c0.648,0.648,1.366,1.239,2.14,1.746c0.76,0.505,1.577,0.943,2.422,1.295
	c0.859,0.352,1.746,0.618,2.633,0.803c0.915,0.183,1.844,0.266,2.759,0.266s1.844-0.084,2.745-0.266
	c0.901-0.184,1.788-0.451,2.633-0.803c0.859-0.352,1.675-0.79,2.436-1.295c0.774-0.507,1.492-1.098,2.14-1.746
	c2.619-2.619,4.125-6.25,4.125-9.954c0-0.928-0.099-1.844-0.282-2.759C310.442,403.51,310.175,402.637,309.823,401.777z"/>
<g>
</g>
<g>
</g>
<g>
</g>
<g>
</g>
<g>
</g>
<g>
</g>
<g>
</g>
<g>
</g>
<g>
</g>
<g>
</g>
<g>
</g>
<g>
</g>
<g>
</g>
<g>
</g>
<g>
</g>
</svg>
