<?xml version="1.0" encoding="iso-8859-1"?>
<!-- Generator: Adobe Illustrator 19.0.0, SVG Export Plug-In . SVG Version: 6.00 Build 0)  -->
<svg version="1.1" id="Layer_1" xmlns="http://www.w3.org/2000/svg" xmlns:xlink="http://www.w3.org/1999/xlink" x="0px" y="0px"
	 viewBox="0 0 512 512" style="enable-background:new 0 0 512 512;" xml:space="preserve">
<path style="fill:#FF5E8A;" d="M469.459,106.057C394.398,121.843,324.514,130.666,256,130.889
	c-68.513-0.224-138.398-9.047-213.459-24.832c-40.873-8.596-33.432,93.676-12.23,93.676c110.566,0,149.001,155.456,177.232,197.65
	c8.1,12.106,88.814,12.106,96.914,0c28.23-42.194,66.667-197.65,177.232-197.65C502.89,199.733,510.333,97.461,469.459,106.057z
	 M314.053,280.828c-9.298,14.138-49.321,47.756-57.992,47.756c-8.496,0-48.878-33.741-58.115-47.756
	c-4.622-7.015-7.903-14.76-7.36-24.938c0.964-18.015,15.696-32.894,33.734-32.894c18.546,0,31.681,19.789,31.681,19.789
	s13.925-19.789,31.673-19.789c18.04,0,32.772,14.879,33.735,32.894C321.958,266.068,318.686,273.781,314.053,280.828z"/>
<path style="fill:#FECC85;" d="M287.676,222.998c-17.748,0-31.673,19.789-31.673,19.789s-13.135-19.789-31.681-19.789
	c-18.038,0-32.77,14.879-33.734,32.892c-0.544,10.177,2.737,17.922,7.36,24.938c9.237,14.015,49.62,47.756,58.115,47.756
	c8.671,0,48.694-33.618,57.992-47.756c4.632-7.047,7.903-14.76,7.358-24.938C320.449,237.877,305.717,222.998,287.676,222.998"/>
<path d="M499.49,105.16c-8.158-10.472-19.789-14.733-32.747-12.012c-77.555,16.31-146.503,24.341-210.701,24.55
	c-64.284-0.21-133.232-8.241-210.786-24.55c-12.961-2.723-24.59,1.541-32.747,12.012C-4.87,127.472-2.056,175.13,8.323,196.372
	c7.038,14.403,16.797,16.554,21.988,16.554c77.34,0,117.491,88.84,144.062,147.627c8.204,18.152,15.289,33.829,22.206,44.166
	c6.632,9.911,26.624,14.936,59.421,14.936s52.79-5.025,59.421-14.936c6.916-10.337,14.002-26.014,22.206-44.166
	c26.57-58.787,66.723-147.627,144.062-147.627c5.191,0,14.95-2.15,21.988-16.554C514.057,175.13,516.871,127.472,499.49,105.16z
	 M485.369,160.916c-1.088,13.961-4.37,22.547-6.349,25.654c-40.504,0.84-76.636,20.852-107.437,59.517
	c-25.831,32.427-43.667,71.89-57.999,103.599c-7.346,16.254-13.739,30.399-19.253,39.075c-4.21,1.943-18.257,4.51-38.331,4.51
	s-34.121-2.567-38.331-4.51c-5.515-8.676-11.907-22.821-19.253-39.075c-14.332-31.709-32.168-71.172-57.999-103.599
	c-30.8-38.665-66.933-58.677-107.437-59.517c-1.979-3.105-5.26-11.693-6.349-25.654c-1.14-14.635,0.737-28.695,4.899-36.694
	c3.283-6.31,5.948-5.75,8.295-5.254c79.333,16.684,150.029,24.9,216.216,25.115c66.1-0.216,136.798-8.431,216.13-25.115
	c2.349-0.496,5.012-1.055,8.295,5.254C484.632,132.221,486.508,146.281,485.369,160.916z"/>
<path d="M452.677,153.753c-0.33-0.792-0.739-1.557-1.214-2.282c-0.488-0.712-1.029-1.385-1.649-2.005
	c-0.607-0.607-1.28-1.148-2.005-1.636c-0.712-0.475-1.477-0.884-2.269-1.214c-0.792-0.33-1.623-0.58-2.467-0.752
	c-4.287-0.857-8.852,0.541-11.912,3.601c-0.607,0.62-1.161,1.293-1.636,2.005c-0.475,0.726-0.884,1.491-1.214,2.282
	c-0.33,0.792-0.58,1.623-0.752,2.467c-0.172,0.857-0.264,1.715-0.264,2.586c0,3.469,1.412,6.873,3.865,9.327
	c2.454,2.454,5.857,3.865,9.327,3.865c0.871,0,1.728-0.092,2.586-0.264c0.844-0.172,1.675-0.422,2.467-0.752
	c0.792-0.33,1.557-0.739,2.269-1.214c0.726-0.475,1.398-1.029,2.005-1.636c2.467-2.454,3.865-5.857,3.865-9.327
	c0-0.871-0.079-1.728-0.251-2.586C453.257,155.375,453.006,154.546,452.677,153.753z"/>
<path d="M398.615,152.397c-3.859,0.578-7.699,1.134-11.52,1.669c-46.199,6.459-89.045,9.666-130.944,9.803h-0.259
	c-56.883-0.186-116.42-6.089-182.019-18.046c-7.171-1.303-14.037,3.444-15.343,10.611c-1.306,7.168,3.444,14.037,10.611,15.343
	c67.148,12.239,128.206,18.283,186.707,18.474h0.344c43.148-0.141,87.161-3.431,134.555-10.057
	c3.909-0.547,7.836-1.116,11.782-1.707c7.205-1.08,12.171-7.798,11.089-15.003C412.539,156.28,405.831,151.316,398.615,152.397z"/>
<path d="M287.676,209.806c-13.076,0-24.002,6.818-31.52,13.42c-6.957-6.216-16.971-12.572-29.332-13.342
	c-0.824-0.051-1.658-0.078-2.502-0.078c-24.942,0-45.545,19.933-46.907,45.382c-0.817,15.302,5.041,26.104,9.518,32.899
	c5.996,9.097,20.43,22.514,31.94,32.038c26.167,21.65,33.611,21.65,37.189,21.65c3.619,0,11.148,0,37.186-21.619
	c1.427-1.186,2.902-2.433,4.399-3.724c5.242-4.523,10.776-9.602,15.663-14.556c0.036-0.036,0.069-0.071,0.104-0.107
	c3.448-3.501,6.57-6.939,9.028-10.068c0.993-1.265,1.879-2.48,2.634-3.629c4.473-6.806,10.327-17.619,9.509-32.888
	C333.224,229.74,312.618,209.806,287.676,209.806z M208.962,273.57c-4.013-6.091-5.521-11.009-5.202-16.973
	c0.603-11.253,9.827-20.406,20.561-20.406c9.229,0,18.091,10.069,20.69,13.892c2.409,3.629,6.455,5.836,10.811,5.895
	c4.204,0.051,8.147-1.901,10.673-5.231c0.084-0.109,0.181-0.208,0.261-0.322c1.82-2.538,6.891-8.312,12.722-11.675
	c0.013-0.008,0.026-0.013,0.038-0.021c0.514-0.296,1.033-0.573,1.557-0.826c0.055-0.028,0.113-0.049,0.169-0.075
	c0.483-0.228,0.967-0.443,1.455-0.631c0.124-0.047,0.249-0.08,0.375-0.125c0.423-0.152,0.847-0.299,1.272-0.414
	c0.236-0.063,0.472-0.098,0.707-0.149c0.318-0.07,0.636-0.15,0.954-0.197c0.557-0.079,1.115-0.124,1.669-0.124
	c9.394,0,17.631,7.009,19.946,16.3c0.331,1.327,0.541,2.702,0.616,4.108c0.04,0.744,0.051,1.471,0.033,2.187
	c-0.131,5.012-1.725,9.448-5.242,14.797c-2.444,3.716-7.49,9.065-13.494,14.715c-0.063,0.059-0.129,0.12-0.193,0.179
	c-9.788,9.192-22.058,19.141-29.767,24.14c-0.037,0.024-0.071,0.045-0.108,0.069c-1.255,0.81-2.389,1.491-3.368,2.009
	C245.43,308.958,215.828,283.988,208.962,273.57z"/>
<g>
</g>
<g>
</g>
<g>
</g>
<g>
</g>
<g>
</g>
<g>
</g>
<g>
</g>
<g>
</g>
<g>
</g>
<g>
</g>
<g>
</g>
<g>
</g>
<g>
</g>
<g>
</g>
<g>
</g>
</svg>
