<?xml version="1.0" encoding="iso-8859-1"?>
<!-- Generator: Adobe Illustrator 19.0.0, SVG Export Plug-In . SVG Version: 6.00 Build 0)  -->
<svg version="1.1" id="Layer_1" xmlns="http://www.w3.org/2000/svg" xmlns:xlink="http://www.w3.org/1999/xlink" x="0px" y="0px"
	 viewBox="0 0 511.996 511.996" style="enable-background:new 0 0 511.996 511.996;" xml:space="preserve">
<g>
	<path style="fill:#88C057;" d="M344.176,150.065H167.827c-9.807,0-17.761-7.954-17.761-17.752v-26.289
		c0-9.799,7.954-17.752,17.761-17.752h176.349c9.807,0,17.752,7.954,17.752,17.752v26.289
		C361.928,142.112,353.983,150.065,344.176,150.065"/>
	<g>
		<polygon style="fill:#A4E869;" points="229.515,52.966 282.481,52.966 282.481,0 229.515,0 		"/>
		<polygon style="fill:#A4E869;" points="203.032,88.276 308.963,88.276 308.963,52.966 203.032,52.966 		"/>
		<path style="fill:#A4E869;" d="M326.622,211.859c0-20.754,17.655-61.793,17.655-61.793H167.725
			c11.087,15.784,17.655,41.039,17.655,61.793s-6.568,46.009-17.655,61.793h176.552C333.19,257.868,326.622,232.612,326.622,211.859
			"/>
	</g>
	<path style="fill:#88C057;" d="M344.187,511.996H167.821c-9.807,0-17.752-7.945-17.752-17.743V291.395
		c0-9.799,7.945-17.743,17.752-17.743h176.366c9.799,0,17.743,7.945,17.743,17.743v202.858
		C361.931,504.052,353.986,511.996,344.187,511.996"/>
	<path style="fill:#A4E869;" d="M238.346,459.031c-2.03,0-4.078-0.697-5.738-2.127c-3.708-3.178-4.14-8.739-0.962-12.438
		l40.474-47.228h-51.43c-3.566,0-6.797-2.145-8.157-5.447c-1.368-3.302-0.609-7.097,1.916-9.622l52.965-52.966
		c3.452-3.452,9.031-3.452,12.482,0c3.452,3.452,3.452,9.031,0,12.482l-37.897,37.897h49.311c3.452,0,6.577,2.013,8.015,5.138
		c1.439,3.134,0.936,6.815-1.315,9.428l-52.966,61.793C243.307,457.989,240.827,459.031,238.346,459.031"/>
</g>
<g>
</g>
<g>
</g>
<g>
</g>
<g>
</g>
<g>
</g>
<g>
</g>
<g>
</g>
<g>
</g>
<g>
</g>
<g>
</g>
<g>
</g>
<g>
</g>
<g>
</g>
<g>
</g>
<g>
</g>
</svg>
