<?xml version="1.0" encoding="iso-8859-1"?>
<!-- Generator: Adobe Illustrator 19.0.0, SVG Export Plug-In . SVG Version: 6.00 Build 0)  -->
<svg version="1.1" id="Layer_1" xmlns="http://www.w3.org/2000/svg" xmlns:xlink="http://www.w3.org/1999/xlink" x="0px" y="0px"
	 viewBox="0 0 510.293 510.293" style="enable-background:new 0 0 510.293 510.293;" xml:space="preserve">
<g transform="translate(1 1)">
	<polygon style="fill:#FFA800;" points="228.547,500.76 450.413,500.76 450.413,441.027 228.547,441.027 	"/>
	<polygon style="fill:#FFFFFF;" points="57.88,500.76 279.747,500.76 279.747,441.027 57.88,441.027 	"/>
	<g>
		<polygon style="fill:#FFE100;" points="83.48,500.76 424.813,500.76 424.813,441.027 83.48,441.027 		"/>
		<path style="fill:#FFE100;" d="M300.227,111.64c-7.68,9.387-18.773,16.213-30.72,19.627l38.4,113.493l-96.427-35.84l29.867-75.947
			c-13.653-2.56-25.6-10.24-34.133-20.48l-115.2,328.533h42.667l17.067-51.2l221.867,51.2h42.667L300.227,111.64z"/>
		<path style="fill:#FFE100;" d="M313.88,74.093c0,33.28-26.453,59.733-59.733,59.733s-59.733-26.453-59.733-59.733
			s26.453-59.733,59.733-59.733S313.88,40.813,313.88,74.093"/>
	</g>
	<g>
		<polygon style="fill:#FFFFFF;" points="173.933,323.267 318.147,282.307 202.093,238.787 		"/>
		<polygon style="fill:#FFFFFF;" points="361.667,404.333 161.987,358.253 330.947,313.027 		"/>
	</g>
	<path d="M173.933,331.8c-2.56,0-4.267-0.853-5.973-2.56c-2.56-2.56-2.56-5.973-1.707-8.533l28.16-84.48
		c0.853-2.56,2.56-4.267,4.267-5.12c1.707-0.853,4.267-0.853,6.827,0l116.053,43.52c3.413,1.707,5.973,4.267,5.12,8.533
		c-0.853,4.267-2.56,6.827-5.973,7.68L176.493,331.8C175.64,331.8,174.787,331.8,173.933,331.8z M207.213,249.88l-20.48,60.587
		L290.84,280.6L207.213,249.88z"/>
	<path d="M361.667,412.867c-0.853,0-1.707,0-1.707,0l-199.68-46.08c-3.413-0.853-6.827-4.267-6.827-8.533
		c0-4.267,2.56-7.68,5.973-8.533l168.96-45.227c4.267-0.853,8.533,0.853,10.24,5.12l30.72,91.307c0.853,2.56,0,5.973-1.707,8.533
		S363.373,412.867,361.667,412.867z M197.827,357.4l150.187,34.987l-23.04-69.12L197.827,357.4z"/>
	<path d="M254.147,142.36c-37.547,0-68.267-30.72-68.267-68.267S216.6,5.827,254.147,5.827s68.267,30.72,68.267,68.267
		S291.693,142.36,254.147,142.36z M254.147,22.893c-28.16,0-51.2,23.04-51.2,51.2s23.04,51.2,51.2,51.2s51.2-23.04,51.2-51.2
		S282.307,22.893,254.147,22.893z"/>
	<path d="M136.387,149.187c-2.56,0-4.267-0.853-5.973-2.56c-40.107-40.107-40.107-104.96,0-145.067
		c3.413-3.413,8.533-3.413,11.947,0s3.413,8.533,0,11.947c-33.28,33.28-33.28,87.893,0,121.173c3.413,3.413,3.413,8.533,0,11.947
		C140.653,148.333,138.947,149.187,136.387,149.187z"/>
	<path d="M371.907,149.187c-2.56,0-4.267-0.853-5.973-2.56c-3.413-3.413-3.413-8.533,0-11.947c33.28-33.28,33.28-87.04,0-120.32
		c-3.413-3.413-3.413-8.533,0-11.947c3.413-3.413,8.533-3.413,11.947,0c40.107,40.107,40.107,104.96,0,145.067
		C376.173,148.333,373.613,149.187,371.907,149.187z"/>
	<path d="M169.667,124.44c-2.56,0-4.267-0.853-5.973-2.56c-26.453-26.453-26.453-69.973,0-96.427c3.413-3.413,8.533-3.413,11.947,0
		c3.413,3.413,3.413,8.533,0,11.947c-19.627,19.627-19.627,52.053,0,72.533c3.413,3.413,3.413,8.533,0,11.947
		C173.933,124.44,171.373,124.44,169.667,124.44z"/>
	<path d="M339.48,125.293c-2.56,0-4.267-0.853-5.973-2.56c-3.413-3.413-3.413-8.533,0-11.947c19.627-19.627,19.627-52.053,0-72.533
		c-3.413-3.413-3.413-8.533,0-11.947s8.533-3.413,11.947,0c26.453,26.453,26.453,69.973,0,96.427
		C343.747,124.44,341.187,125.293,339.48,125.293z"/>
	<path d="M254.147,108.227c-5.12,0-8.533-3.413-8.533-8.533s3.413-8.533,8.533-8.533c9.387,0,17.067-7.68,17.067-17.067
		c0-5.12,3.413-8.533,8.533-8.533c5.12,0,8.533,3.413,8.533,8.533C288.28,92.867,272.92,108.227,254.147,108.227z"/>
	<path d="M228.547,82.627c-5.12,0-8.533-3.413-8.533-8.533c0-18.773,15.36-34.133,34.133-34.133c5.12,0,8.533,3.413,8.533,8.533
		s-3.413,8.533-8.533,8.533c-9.387,0-17.067,7.68-17.067,17.067C237.08,79.213,233.667,82.627,228.547,82.627z"/>
	<path d="M450.413,509.293H57.88c-5.12,0-8.533-3.413-8.533-8.533v-59.733c0-5.12,3.413-8.533,8.533-8.533h392.533
		c5.12,0,8.533,3.413,8.533,8.533v59.733C458.947,505.88,455.533,509.293,450.413,509.293z M66.413,492.227H441.88V449.56H66.413
		V492.227z"/>
	<path d="M416.28,449.56h-42.667c-0.853,0-1.707,0-1.707,0L157.72,400.067l-14.507,43.52c-1.707,3.413-5.12,5.973-8.533,5.973
		H92.013c-2.56,0-5.12-1.707-6.827-3.413c-1.707-1.707-2.56-5.12-0.853-7.68L200.387,109.08c0.853-2.56,3.413-5.12,6.827-5.973
		s5.973,0.853,7.68,3.413c7.68,9.387,17.92,15.36,29.013,17.92c2.56,0.853,4.267,1.707,5.973,4.267
		c0.853,2.56,1.707,5.12,0.853,6.827L224.28,203.8l70.827,26.453l-32.427-96.427c-0.853-2.56-0.853-4.267,0.853-6.827
		c0.853-1.707,3.413-3.413,5.12-4.267c10.24-2.56,19.627-8.533,26.453-17.067c1.707-2.56,5.12-3.413,7.68-3.413
		c3.413,0.853,5.973,2.56,6.827,5.973l116.053,329.387c0.853,2.56,0.853,5.12-0.853,7.68S418.84,449.56,416.28,449.56z
		 M374.467,432.493h29.867L296.813,127c-5.12,4.267-10.24,6.827-16.213,9.387l35.84,104.96c0.853,3.413,0,6.827-2.56,8.533
		c-2.56,2.56-5.973,3.413-8.533,1.707l-96.427-35.84c-1.707-0.853-4.267-2.56-5.12-4.267c-0.853-1.707-0.853-4.267,0-6.827
		l26.453-67.413c-6.827-2.56-12.8-5.973-18.773-11.093L103.96,432.493h24.747l15.36-45.227c1.707-4.267,5.973-6.827,10.24-5.973
		L374.467,432.493z"/>
</g>
<g>
</g>
<g>
</g>
<g>
</g>
<g>
</g>
<g>
</g>
<g>
</g>
<g>
</g>
<g>
</g>
<g>
</g>
<g>
</g>
<g>
</g>
<g>
</g>
<g>
</g>
<g>
</g>
<g>
</g>
</svg>
