<?xml version="1.0" encoding="iso-8859-1"?>
<!-- Generator: Adobe Illustrator 19.0.0, SVG Export Plug-In . SVG Version: 6.00 Build 0)  -->
<svg version="1.1" id="Layer_1" xmlns="http://www.w3.org/2000/svg" xmlns:xlink="http://www.w3.org/1999/xlink" x="0px" y="0px"
	 viewBox="0 0 512 512" style="enable-background:new 0 0 512 512;" xml:space="preserve">
<g transform="translate(1 1)">
	<path style="fill:#FFA800;" d="M476.867,464.067h-179.2c-14.507,0-25.6-11.093-25.6-25.6V395.8h230.4v42.667
		C502.467,452.973,491.373,464.067,476.867,464.067"/>
	<path style="fill:#FFFFFF;" d="M212.333,464.067h-179.2c-14.507,0-25.6-11.093-25.6-25.6V395.8h230.4v42.667
		C237.933,452.973,226.84,464.067,212.333,464.067"/>
	<path style="fill:#FFE100;" d="M451.267,464.067H58.733c-14.507,0-25.6-11.093-25.6-25.6V395.8h443.733v42.667
		C476.867,452.973,465.773,464.067,451.267,464.067"/>
	<path style="fill:#FFA800;" d="M485.4,387.267H195.267V71.533c0-14.507,11.093-25.6,25.6-25.6H459.8
		c14.507,0,25.6,11.093,25.6,25.6V387.267z"/>
	<path style="fill:#FFFFFF;" d="M314.733,387.267H24.6V71.533c0-14.507,11.093-25.6,25.6-25.6h238.933
		c14.507,0,25.6,11.093,25.6,25.6V387.267z"/>
	<path style="fill:#FFE100;" d="M459.8,387.267H50.2V71.533c0-14.507,11.093-25.6,25.6-25.6h358.4c14.507,0,25.6,11.093,25.6,25.6
		V387.267z"/>
	<polygon style="fill:#DD3859;" points="101.4,327.533 186.733,327.533 186.733,259.267 101.4,259.267 	"/>
	<polygon style="fill:#E4667F;" points="101.4,327.533 161.133,327.533 161.133,259.267 101.4,259.267 	"/>
	<polygon style="fill:#00AD55;" points="169.667,156.867 340.333,156.867 340.333,114.2 169.667,114.2 	"/>
	<polygon style="fill:#00DA6C;" points="169.667,156.867 314.733,156.867 314.733,114.2 169.667,114.2 	"/>
	<path d="M485.4,404.333H24.6c-5.12,0-8.533-3.413-8.533-8.533V71.533C16.067,52.76,31.427,37.4,50.2,37.4h409.6
		c18.773,0,34.133,15.36,34.133,34.133V395.8C493.933,400.92,490.52,404.333,485.4,404.333z M33.133,387.267h443.733V71.533
		c0-9.387-7.68-17.067-17.067-17.067H50.2c-9.387,0-17.067,7.68-17.067,17.067V387.267z"/>
	<path d="M476.867,472.6H33.133C14.36,472.6-1,457.24-1,438.467V395.8c0-5.12,3.413-8.533,8.533-8.533h494.933
		c5.12,0,8.533,3.413,8.533,8.533v42.667C511,457.24,495.64,472.6,476.867,472.6z M16.067,404.333v34.133
		c0,9.387,7.68,17.067,17.067,17.067h443.733c9.387,0,17.067-7.68,17.067-17.067v-34.133H16.067z"/>
	<path d="M451.267,370.2H58.733c-5.12,0-8.533-3.413-8.533-8.533v-281.6c0-5.12,3.413-8.533,8.533-8.533h392.533
		c5.12,0,8.533,3.413,8.533,8.533v281.6C459.8,366.787,456.387,370.2,451.267,370.2z M67.267,353.133h375.467V88.6H67.267V353.133z"
		/>
	<path d="M144.067,438.467H58.733c-5.12,0-8.533-3.413-8.533-8.533s3.413-8.533,8.533-8.533h85.333c5.12,0,8.533,3.413,8.533,8.533
		S149.187,438.467,144.067,438.467z"/>
	<path d="M451.267,438.467h-85.333c-5.12,0-8.533-3.413-8.533-8.533s3.413-8.533,8.533-8.533h85.333c5.12,0,8.533,3.413,8.533,8.533
		S456.387,438.467,451.267,438.467z"/>
	<path d="M263.533,438.467h-17.067c-5.12,0-8.533-3.413-8.533-8.533s3.413-8.533,8.533-8.533h17.067c5.12,0,8.533,3.413,8.533,8.533
		S268.653,438.467,263.533,438.467z"/>
	<path d="M186.733,336.067H101.4c-5.12,0-8.533-3.413-8.533-8.533v-68.267c0-5.12,3.413-8.533,8.533-8.533h85.333
		c5.12,0,8.533,3.413,8.533,8.533v68.267C195.267,332.653,191.853,336.067,186.733,336.067z M109.933,319H178.2v-51.2h-68.267V319z"
		/>
	<path d="M408.6,267.8h-128c-5.12,0-8.533-3.413-8.533-8.533c0-5.12,3.413-8.533,8.533-8.533h128c5.12,0,8.533,3.413,8.533,8.533
		C417.133,264.387,413.72,267.8,408.6,267.8z"/>
	<path d="M246.467,267.8h-25.6c-5.12,0-8.533-3.413-8.533-8.533c0-5.12,3.413-8.533,8.533-8.533h25.6
		c5.12,0,8.533,3.413,8.533,8.533C255,264.387,251.587,267.8,246.467,267.8z"/>
	<path d="M408.6,301.933h-51.2c-5.12,0-8.533-3.413-8.533-8.533c0-5.12,3.413-8.533,8.533-8.533h51.2
		c5.12,0,8.533,3.413,8.533,8.533C417.133,298.52,413.72,301.933,408.6,301.933z"/>
	<path d="M323.267,301.933h-102.4c-5.12,0-8.533-3.413-8.533-8.533c0-5.12,3.413-8.533,8.533-8.533h102.4
		c5.12,0,8.533,3.413,8.533,8.533C331.8,298.52,328.387,301.933,323.267,301.933z"/>
	<path d="M408.6,336.067H289.133c-5.12,0-8.533-3.413-8.533-8.533s3.413-8.533,8.533-8.533H408.6c5.12,0,8.533,3.413,8.533,8.533
		S413.72,336.067,408.6,336.067z"/>
	<path d="M255,336.067h-34.133c-5.12,0-8.533-3.413-8.533-8.533s3.413-8.533,8.533-8.533H255c5.12,0,8.533,3.413,8.533,8.533
		S260.12,336.067,255,336.067z"/>
	<path d="M263.533,199.533h-102.4c-5.12,0-8.533-3.413-8.533-8.533c0-5.12,3.413-8.533,8.533-8.533h102.4
		c5.12,0,8.533,3.413,8.533,8.533C272.067,196.12,268.653,199.533,263.533,199.533z"/>
	<path d="M127,199.533h-25.6c-5.12,0-8.533-3.413-8.533-8.533c0-5.12,3.413-8.533,8.533-8.533H127c5.12,0,8.533,3.413,8.533,8.533
		C135.533,196.12,132.12,199.533,127,199.533z"/>
	<path d="M314.733,233.667h-102.4c-5.12,0-8.533-3.413-8.533-8.533c0-5.12,3.413-8.533,8.533-8.533h102.4
		c5.12,0,8.533,3.413,8.533,8.533C323.267,230.253,319.853,233.667,314.733,233.667z"/>
	<path d="M178.2,233.667h-76.8c-5.12,0-8.533-3.413-8.533-8.533c0-5.12,3.413-8.533,8.533-8.533h76.8
		c5.12,0,8.533,3.413,8.533,8.533C186.733,230.253,183.32,233.667,178.2,233.667z"/>
	<path d="M340.333,165.4H169.667c-5.12,0-8.533-3.413-8.533-8.533V114.2c0-5.12,3.413-8.533,8.533-8.533h170.667
		c5.12,0,8.533,3.413,8.533,8.533v42.667C348.867,161.987,345.453,165.4,340.333,165.4z M178.2,148.333h153.6v-25.6H178.2V148.333z"
		/>
	<path d="M408.6,199.533H297.667c-5.12,0-8.533-3.413-8.533-8.533c0-5.12,3.413-8.533,8.533-8.533H408.6
		c5.12,0,8.533,3.413,8.533,8.533C417.133,196.12,413.72,199.533,408.6,199.533z"/>
	<path d="M408.6,233.667h-59.733c-5.12,0-8.533-3.413-8.533-8.533c0-5.12,3.413-8.533,8.533-8.533H408.6
		c5.12,0,8.533,3.413,8.533,8.533C417.133,230.253,413.72,233.667,408.6,233.667z"/>
</g>
<g>
</g>
<g>
</g>
<g>
</g>
<g>
</g>
<g>
</g>
<g>
</g>
<g>
</g>
<g>
</g>
<g>
</g>
<g>
</g>
<g>
</g>
<g>
</g>
<g>
</g>
<g>
</g>
<g>
</g>
</svg>
