<?xml version="1.0" encoding="iso-8859-1"?>
<!-- Generator: Adobe Illustrator 19.0.0, SVG Export Plug-In . SVG Version: 6.00 Build 0)  -->
<svg version="1.1" id="Layer_1" xmlns="http://www.w3.org/2000/svg" xmlns:xlink="http://www.w3.org/1999/xlink" x="0px" y="0px"
	 viewBox="0 0 512 512" style="enable-background:new 0 0 512 512;" xml:space="preserve">
<g transform="translate(1 1)">
	<g>
		<path style="fill:#FFA800;" d="M502.467,357.4H212.333V41.667c0-18.773,15.36-34.133,34.133-34.133h221.867
			c18.773,0,34.133,15.36,34.133,34.133V357.4z"/>
		<path style="fill:#FFA800;" d="M468.333,425.667H246.467c-18.773,0-34.133-15.36-34.133-34.133V357.4h290.133v34.133
			C502.467,410.307,487.107,425.667,468.333,425.667"/>
	</g>
	<g>
		<path style="fill:#FFFFFF;" d="M297.667,357.4H7.533V41.667c0-18.773,15.36-34.133,34.133-34.133h221.867
			c18.773,0,34.133,15.36,34.133,34.133V357.4z"/>
		<path style="fill:#FFFFFF;" d="M263.533,425.667H41.667c-18.773,0-34.133-15.36-34.133-34.133V357.4h290.133v34.133
			C297.667,410.307,282.307,425.667,263.533,425.667"/>
	</g>
	<g>
		<path style="fill:#FFE100;" d="M476.867,357.4H33.133V41.667c0-18.773,15.36-34.133,34.133-34.133h375.467
			c18.773,0,34.133,15.36,34.133,34.133V357.4z"/>
		<path style="fill:#FFE100;" d="M442.733,425.667H67.267c-18.773,0-34.133-15.36-34.133-34.133V357.4h443.733v34.133
			C476.867,410.307,461.507,425.667,442.733,425.667"/>
	</g>
	<path style="fill:#E4667F;" d="M280.6,67.267c0-14.507-11.093-25.6-25.6-25.6c-14.507,0-25.6,11.093-25.6,25.6
		s11.093,25.6,25.6,25.6C269.507,92.867,280.6,81.773,280.6,67.267"/>
	<polygon style="fill:#63D3FD;" points="50.2,314.733 186.733,314.733 186.733,178.2 50.2,178.2 	"/>
	<path style="fill:#00AD55;" d="M178.2,92.867H69.827c-11.093,0-19.627-8.533-19.627-19.627V61.293
		c0-11.093,8.533-19.627,19.627-19.627H178.2c11.093,0,19.627,8.533,19.627,19.627v11.093
		C197.827,84.333,189.293,92.867,178.2,92.867"/>
	<path style="fill:#00DA6C;" d="M152.6,92.867H69.827c-11.093,0-19.627-8.533-19.627-19.627V61.293
		c0-11.093,8.533-19.627,19.627-19.627H152.6c11.093,0,19.627,8.533,19.627,19.627v11.093
		C172.227,84.333,163.693,92.867,152.6,92.867"/>
	<path d="M502.467,365.933H7.533C2.413,365.933-1,362.52-1,357.4V41.667C-1,17.773,17.773-1,41.667-1h426.667
		C492.227-1,511,17.773,511,41.667V357.4C511,362.52,507.587,365.933,502.467,365.933z M16.067,348.867h477.867v-307.2
		c0-14.507-11.093-25.6-25.6-25.6H41.667c-14.507,0-25.6,11.093-25.6,25.6V348.867z"/>
	<path d="M468.333,434.2H41.667C17.773,434.2-1,415.427-1,391.533V357.4c0-5.12,3.413-8.533,8.533-8.533h494.933
		c5.12,0,8.533,3.413,8.533,8.533v34.133C511,415.427,492.227,434.2,468.333,434.2z M16.067,365.933v25.6
		c0,14.507,11.093,25.6,25.6,25.6h426.667c14.507,0,25.6-11.093,25.6-25.6v-25.6H16.067z"/>
	<path d="M331.8,511H178.2c-2.56,0-5.12-1.707-6.827-3.413c-1.707-1.707-1.707-5.12-0.853-7.68l25.6-76.8
		c0.853-3.413,4.267-5.973,7.68-5.973h102.4c3.413,0,6.827,2.56,7.68,5.973l25.6,76.8c0.853,2.56,0.853,5.12-0.853,7.68
		C336.92,509.293,334.36,511,331.8,511z M190.147,493.933h129.707L300.227,434.2h-90.453L190.147,493.933z"/>
	<path d="M348.867,511H161.133c-5.12,0-8.533-3.413-8.533-8.533c0-5.12,3.413-8.533,8.533-8.533h187.733
		c5.12,0,8.533,3.413,8.533,8.533C357.4,507.587,353.987,511,348.867,511z"/>
	<path d="M255,101.4c-18.773,0-34.133-15.36-34.133-34.133S236.227,33.133,255,33.133s34.133,15.36,34.133,34.133
		S273.773,101.4,255,101.4z M255,50.2c-9.387,0-17.067,7.68-17.067,17.067s7.68,17.067,17.067,17.067s17.067-7.68,17.067-17.067
		S264.387,50.2,255,50.2z"/>
	<path d="M459.8,58.733H323.267c-5.12,0-8.533-3.413-8.533-8.533s3.413-8.533,8.533-8.533H459.8c5.12,0,8.533,3.413,8.533,8.533
		S464.92,58.733,459.8,58.733z"/>
	<path d="M365.933,92.867h-42.667c-5.12,0-8.533-3.413-8.533-8.533s3.413-8.533,8.533-8.533h42.667c5.12,0,8.533,3.413,8.533,8.533
		S371.053,92.867,365.933,92.867z"/>
	<path d="M459.8,92.867h-59.733c-5.12,0-8.533-3.413-8.533-8.533s3.413-8.533,8.533-8.533H459.8c5.12,0,8.533,3.413,8.533,8.533
		S464.92,92.867,459.8,92.867z"/>
	<path d="M178.2,101.4H69.827c-15.36,0-28.16-12.8-28.16-28.16V61.293c0-15.36,12.8-28.16,28.16-28.16H178.2
		c15.36,0,28.16,12.8,28.16,28.16v11.093C206.36,88.6,193.56,101.4,178.2,101.4z M69.827,50.2c-5.973,0-11.093,5.12-11.093,11.093
		v11.093c0,6.827,5.12,11.947,11.093,11.947H178.2c5.973,0,11.093-5.12,11.093-11.093V61.293c0-5.973-5.12-11.093-11.093-11.093
		H69.827z"/>
	<path d="M459.8,144.067H50.2c-5.12,0-8.533-3.413-8.533-8.533S45.08,127,50.2,127h409.6c5.12,0,8.533,3.413,8.533,8.533
		S464.92,144.067,459.8,144.067z"/>
	<path d="M186.733,323.267H50.2c-5.12,0-8.533-3.413-8.533-8.533V178.2c0-5.12,3.413-8.533,8.533-8.533h136.533
		c5.12,0,8.533,3.413,8.533,8.533v136.533C195.267,319.853,191.853,323.267,186.733,323.267z M58.733,306.2H178.2V186.733H58.733
		V306.2z"/>
	<path d="M459.8,186.733H280.6c-5.12,0-8.533-3.413-8.533-8.533c0-5.12,3.413-8.533,8.533-8.533h179.2
		c5.12,0,8.533,3.413,8.533,8.533C468.333,183.32,464.92,186.733,459.8,186.733z"/>
	<path d="M246.467,186.733h-25.6c-5.12,0-8.533-3.413-8.533-8.533c0-5.12,3.413-8.533,8.533-8.533h25.6
		c5.12,0,8.533,3.413,8.533,8.533C255,183.32,251.587,186.733,246.467,186.733z"/>
	<path d="M459.8,289.133h-85.333c-5.12,0-8.533-3.413-8.533-8.533c0-5.12,3.413-8.533,8.533-8.533H459.8
		c5.12,0,8.533,3.413,8.533,8.533S464.92,289.133,459.8,289.133z"/>
	<path d="M340.333,289.133H220.867c-5.12,0-8.533-3.413-8.533-8.533c0-5.12,3.413-8.533,8.533-8.533h119.467
		c5.12,0,8.533,3.413,8.533,8.533S345.453,289.133,340.333,289.133z"/>
	<path d="M459.8,323.267H280.6c-5.12,0-8.533-3.413-8.533-8.533c0-5.12,3.413-8.533,8.533-8.533h179.2
		c5.12,0,8.533,3.413,8.533,8.533C468.333,319.853,464.92,323.267,459.8,323.267z"/>
	<path d="M246.467,323.267h-25.6c-5.12,0-8.533-3.413-8.533-8.533c0-5.12,3.413-8.533,8.533-8.533h25.6
		c5.12,0,8.533,3.413,8.533,8.533C255,319.853,251.587,323.267,246.467,323.267z"/>
	<path d="M383,220.867h-17.067c-5.12,0-8.533-3.413-8.533-8.533c0-5.12,3.413-8.533,8.533-8.533H383c5.12,0,8.533,3.413,8.533,8.533
		C391.533,217.453,388.12,220.867,383,220.867z"/>
	<path d="M459.8,220.867h-42.667c-5.12,0-8.533-3.413-8.533-8.533c0-5.12,3.413-8.533,8.533-8.533H459.8
		c5.12,0,8.533,3.413,8.533,8.533C468.333,217.453,464.92,220.867,459.8,220.867z"/>
	<path d="M331.8,220.867H220.867c-5.12,0-8.533-3.413-8.533-8.533c0-5.12,3.413-8.533,8.533-8.533H331.8
		c5.12,0,8.533,3.413,8.533,8.533C340.333,217.453,336.92,220.867,331.8,220.867z"/>
	<path d="M459.8,255H323.267c-5.12,0-8.533-3.413-8.533-8.533c0-5.12,3.413-8.533,8.533-8.533H459.8c5.12,0,8.533,3.413,8.533,8.533
		C468.333,251.587,464.92,255,459.8,255z"/>
	<path d="M289.133,255h-68.267c-5.12,0-8.533-3.413-8.533-8.533c0-5.12,3.413-8.533,8.533-8.533h68.267
		c5.12,0,8.533,3.413,8.533,8.533C297.667,251.587,294.253,255,289.133,255z"/>
	<path d="M152.6,323.267H84.333c-5.12,0-8.533-3.413-8.533-8.533v-17.067C75.8,273.773,94.573,255,118.467,255
		s42.667,18.773,42.667,42.667v17.067C161.133,319.853,157.72,323.267,152.6,323.267z M92.867,306.2h51.2v-8.533
		c0-14.507-11.093-25.6-25.6-25.6s-25.6,11.093-25.6,25.6V306.2z"/>
	<path d="M118.467,272.067c-18.773,0-34.133-15.36-34.133-34.133s15.36-34.133,34.133-34.133s34.133,15.36,34.133,34.133
		S137.24,272.067,118.467,272.067z M118.467,220.867c-9.387,0-17.067,7.68-17.067,17.067S109.08,255,118.467,255
		s17.067-7.68,17.067-17.067S127.853,220.867,118.467,220.867z"/>
</g>
<g>
</g>
<g>
</g>
<g>
</g>
<g>
</g>
<g>
</g>
<g>
</g>
<g>
</g>
<g>
</g>
<g>
</g>
<g>
</g>
<g>
</g>
<g>
</g>
<g>
</g>
<g>
</g>
<g>
</g>
</svg>
