<?xml version="1.0" encoding="iso-8859-1"?>
<!-- Generator: Adobe Illustrator 19.0.0, SVG Export Plug-In . SVG Version: 6.00 Build 0)  -->
<svg version="1.1" id="Layer_1" xmlns="http://www.w3.org/2000/svg" xmlns:xlink="http://www.w3.org/1999/xlink" x="0px" y="0px"
	 viewBox="0 0 503.61 503.61" style="enable-background:new 0 0 503.61 503.61;" xml:space="preserve">
<g>
	<g>
		<g>
			<circle cx="100.723" cy="453.247" r="8.393"/>
			<path d="M67.149,444.854H50.362c-4.633,0-8.393,3.76-8.393,8.393s3.76,8.393,8.393,8.393h16.787c4.633,0,8.393-3.76,8.393-8.393
				S71.782,444.854,67.149,444.854z"/>
			<path d="M151.084,444.854h-16.787c-4.633,0-8.393,3.76-8.393,8.393s3.76,8.393,8.393,8.393h16.787
				c4.633,0,8.393-3.76,8.393-8.393S155.717,444.854,151.084,444.854z"/>
			<circle cx="402.887" cy="453.247" r="8.393"/>
			<path d="M352.526,461.641h16.787c4.633,0,8.393-3.76,8.393-8.393s-3.76-8.393-8.393-8.393h-16.787
				c-4.633,0-8.393,3.76-8.393,8.393S347.893,461.641,352.526,461.641z"/>
			<path d="M436.461,461.641h16.787c4.633,0,8.393-3.76,8.393-8.393s-3.76-8.393-8.393-8.393h-16.787
				c-4.633,0-8.393,3.76-8.393,8.393S431.827,461.641,436.461,461.641z"/>
			<path d="M100.723,218.231c-4.625,0-8.393,3.769-8.393,8.393v33.574h16.787v-33.574C109.116,222,105.348,218.231,100.723,218.231z
				"/>
			<path d="M100.723,318.952c-4.625,0-8.393,3.769-8.393,8.393v33.574h16.787v-33.574
				C109.116,322.721,105.348,318.952,100.723,318.952z"/>
			<path d="M501.149,128.363L411.28,38.486V8.395c0-4.633-3.76-8.393-8.393-8.393s-8.393,3.76-8.393,8.393v30.091l-89.869,89.877
				c-2.401,2.401-3.122,6.01-1.821,9.149c1.301,3.131,4.365,5.179,7.756,5.179h8.393v25.18c0,4.633,3.76,8.393,8.393,8.393h8.393
				v25.18h25.18c4.633,0,8.393,3.76,8.393,8.393s-3.76,8.393-8.393,8.393h-25.18v16.787h-16.787v-25.18
				c0-4.633-3.76-8.393-8.393-8.393h-33.574c-4.633,0-8.393,3.76-8.393,8.393v25.18h-33.574v-25.18c0-4.633-3.76-8.393-8.393-8.393
				h-33.574c-4.633,0-8.393,3.76-8.393,8.393v25.18H167.87v-58.754h8.393c4.633,0,8.393-3.76,8.393-8.393v-25.18h8.393
				c3.391,0,6.455-2.048,7.756-5.179c1.301-3.139,0.579-6.748-1.821-9.149l-89.869-89.877V8.395c0-4.633-3.76-8.393-8.393-8.393
				s-8.393,3.76-8.393,8.393v30.091L2.461,128.363c-2.401,2.401-3.122,6.01-1.821,9.149c1.301,3.131,4.365,5.179,7.755,5.179h8.393
				v25.18c0,4.633,3.76,8.393,8.393,8.393h8.393v25.18h25.18c4.633,0,8.393,3.76,8.393,8.393s-3.76,8.393-8.393,8.393h-25.18V360.92
				h25.18c4.633,0,8.393,3.76,8.393,8.393s-3.76,8.393-8.393,8.393h-25.18v25.18h-8.393c-4.314,0-7.923,3.265-8.352,7.554
				l-8.393,83.934c-0.235,2.367,0.537,4.709,2.132,6.471c1.586,1.754,3.844,2.761,6.22,2.761h167.869h25.18V394.493
				c0-23.141,18.826-41.967,41.967-41.967c23.141,0,41.967,18.826,41.967,41.967v109.115h25.18h167.869
				c2.375,0,4.633-1.007,6.22-2.761c1.595-1.763,2.367-4.104,2.132-6.471l-8.393-83.934c-0.428-4.289-4.037-7.554-8.352-7.554
				h-8.393V302.166h-25.18c-4.633,0-8.393-3.76-8.393-8.393s3.76-8.393,8.393-8.393h25.18V176.264h8.393
				c4.633,0,8.393-3.76,8.393-8.393v-25.18h8.393c3.391,0,6.455-2.048,7.756-5.179C504.271,134.372,503.549,130.763,501.149,128.363
				z M41.969,159.477h-8.393V142.69H167.87v16.787h-8.393H41.969z M151.084,285.379v16.787h-8.393c-4.633,0-8.393-3.76-8.393-8.393
				s3.76-8.393,8.393-8.393H151.084z M117.51,276.985H83.936c-4.633,0-8.393-3.76-8.393-8.393v-41.967
				c0-13.883,11.298-25.18,25.18-25.18s25.18,11.298,25.18,25.18v41.967C125.903,273.225,122.143,276.985,117.51,276.985z
				 M125.903,327.346v41.967c0,4.633-3.76,8.393-8.393,8.393H83.936c-4.633,0-8.393-3.76-8.393-8.393v-41.967
				c0-13.883,11.298-25.18,25.18-25.18S125.903,313.463,125.903,327.346z M26.063,486.821l6.715-67.148h9.191h117.508h9.191
				l6.715,67.148H26.063z M235.018,327.346c0,4.633-3.76,8.393-8.393,8.393h-33.574c-4.633,0-8.393-3.76-8.393-8.393v-33.574
				c0-13.883,11.298-25.18,25.18-25.18s25.18,11.298,25.18,25.18V327.346z M318.952,327.346c0,4.633-3.76,8.393-8.393,8.393h-33.574
				c-4.633,0-8.393-3.76-8.393-8.393v-33.574c0-13.883,11.298-25.18,25.18-25.18s25.18,11.298,25.18,25.18V327.346z M352.526,360.92
				h8.393c4.633,0,8.393,3.76,8.393,8.393s-3.76,8.393-8.393,8.393h-8.393V360.92z M461.641,419.674h9.191l6.715,67.148H328.227
				l6.715-67.148h9.191H461.641z M402.887,302.166c13.883,0,25.18,11.298,25.18,25.18v41.967c0,4.633-3.76,8.393-8.393,8.393H386.1
				c-4.633,0-8.393-3.76-8.393-8.393v-41.967C377.706,313.463,389.004,302.166,402.887,302.166z M377.706,268.592v-41.967
				c0-13.883,11.298-25.18,25.18-25.18s25.18,11.298,25.18,25.18v41.967c0,4.633-3.76,8.393-8.393,8.393H386.1
				C381.467,276.985,377.706,273.225,377.706,268.592z M470.034,159.477h-8.393H344.133h-8.393V142.69h134.295V159.477z"/>
			<path d="M411.28,226.625c0-4.625-3.769-8.393-8.393-8.393c-4.625,0-8.393,3.769-8.393,8.393v33.574h16.787V226.625z"/>
			<path d="M411.28,327.346c0-4.625-3.769-8.393-8.393-8.393c-4.625,0-8.393,3.769-8.393,8.393v33.574h16.787V327.346z"/>
			<path d="M209.838,285.379c-4.625,0-8.393,3.769-8.393,8.393v25.18h16.787v-25.18
				C218.231,289.147,214.462,285.379,209.838,285.379z"/>
			<path d="M251.805,369.313c-13.883,0-25.18,11.298-25.18,25.18v109.115h50.361V394.493
				C276.985,380.611,265.688,369.313,251.805,369.313z M260.198,453.247c0,4.633-3.76,8.393-8.393,8.393
				c-4.633,0-8.393-3.76-8.393-8.393V411.28c0-4.633,3.76-8.393,8.393-8.393c4.633,0,8.393,3.76,8.393,8.393V453.247z"/>
			<path d="M293.772,285.379c-4.625,0-8.393,3.769-8.393,8.393v25.18h16.787v-25.18
				C302.166,289.147,298.397,285.379,293.772,285.379z"/>
		</g>
	</g>
</g>
<g>
</g>
<g>
</g>
<g>
</g>
<g>
</g>
<g>
</g>
<g>
</g>
<g>
</g>
<g>
</g>
<g>
</g>
<g>
</g>
<g>
</g>
<g>
</g>
<g>
</g>
<g>
</g>
<g>
</g>
</svg>
