<?xml version="1.0" encoding="iso-8859-1"?>
<!-- Generator: Adobe Illustrator 19.0.0, SVG Export Plug-In . SVG Version: 6.00 Build 0)  -->
<svg version="1.1" id="Layer_1" xmlns="http://www.w3.org/2000/svg" xmlns:xlink="http://www.w3.org/1999/xlink" x="0px" y="0px"
	 viewBox="0 0 512 512" style="enable-background:new 0 0 512 512;" xml:space="preserve">
<path style="fill:#FFE666;" d="M256,252.082c-102.181,0-188.426-91.167-153.715-243.764h307.43
	C444.426,160.914,358.181,252.082,256,252.082z"/>
<path style="fill:#C9571E;" d="M207.804,441.469h96.392c14.069,0,25.473,11.404,25.473,25.473v37.221H182.332v-37.221
	C182.332,452.873,193.736,441.469,207.804,441.469z"/>
<path style="fill:#A14718;" d="M244.151,441.469c-14.064,0-25.464,11.4-25.464,25.475v37.219h-36.352v-37.219
	c0-14.075,11.4-25.475,25.475-25.475H244.151z"/>
<path style="fill:#E86F22;" d="M325.489,504.163H186.511c-2.308,0-4.18-1.871-4.18-4.18V472.28h147.337v27.703
	C329.668,502.292,327.797,504.163,325.489,504.163z"/>
<rect x="182.335" y="472.283" style="fill:#C9571E;" width="36.352" height="31.88"/>
<rect x="231.967" y="252.082" style="fill:#6E76E5;" width="48.065" height="189.388"/>
<rect x="231.967" y="252.082" style="fill:#515BE0;" width="17.202" height="189.388"/>
<path style="fill:#EDD147;" d="M290.707,244.277c-100.425,0-185.452-88.066-155.389-235.96h-33.033
	C67.574,160.914,153.819,252.082,256,252.082c18.541,0,36.551-3.017,53.415-8.842C303.255,243.927,297.012,244.277,290.707,244.277z
	"/>
<path style="fill:#6E76E5;" d="M410.54,130.56c-3.908,4.577-8.62,7.774-15.203,7.774c-23.218,0-23.218-39.706-46.435-39.706
	c-23.218,0-23.218,39.706-46.435,39.706c-23.228,0-23.228-39.706-46.446-39.706c-23.218,0-23.218,39.706-46.435,39.706
	c-23.228,0-23.228-39.706-46.446-39.706s-23.218,39.706-46.435,39.706c-6.625,0-11.348-3.229-15.266-7.837
	c-9.07-34.388-9.791-75.4,0.846-122.18h307.43C420.362,55.129,419.631,96.162,410.54,130.56z"/>
<path style="fill:#515BE0;" d="M135.317,8.317h-33.032c-10.637,46.78-9.916,87.792-0.846,122.18
	c3.918,4.608,8.641,7.837,15.266,7.837c9.382,0,14.971-6.485,19.835-14.212C127.627,91.366,126.334,52.513,135.317,8.317z"/>
<circle style="fill:#6E76E5;" cx="256" cy="347.188" r="45.976"/>
<path style="fill:#515BE0;" d="M276.898,372.267c-25.392,0-45.976-20.583-45.976-45.975c0-7.303,1.71-14.204,4.741-20.337
	c-15.189,7.507-25.639,23.147-25.639,41.235c0,25.392,20.583,45.975,45.976,45.975c18.088,0,33.729-10.45,41.235-25.639
	C291.102,370.557,284.201,372.267,276.898,372.267z"/>
<path style="fill:#E86F22;" d="M416.914,41.273H95.086c-9.234,0-16.718-7.485-16.718-16.718l0,0c0-9.234,7.485-16.718,16.718-16.718
	h321.829c9.234,0,16.718,7.485,16.718,16.718l0,0C433.633,33.789,426.148,41.273,416.914,41.273z"/>
<path style="fill:#C9571E;" d="M122.211,24.555L122.211,24.555c0-9.234,7.485-16.718,16.718-16.718H95.086
	c-9.234,0-16.718,7.485-16.718,16.718l0,0c0,9.233,7.485,16.718,16.718,16.718h43.844C129.697,41.273,122.211,33.788,122.211,24.555
	z"/>
<circle cx="396.8" cy="81.836" r="7.018"/>
<circle cx="209.868" cy="81.836" r="7.018"/>
<circle cx="301.996" cy="81.836" r="7.018"/>
<circle cx="115.2" cy="81.836" r="7.018"/>
<path d="M416.914,0H95.086c-13.54,0-24.555,11.015-24.555,24.555c0,11.047,7.333,20.409,17.385,23.485
	c-0.155,1.625-0.305,3.248-0.43,4.862c-0.034,0.438-0.057,0.872-0.09,1.309c-0.12,1.631-0.234,3.26-0.326,4.881
	c-0.029,0.519-0.046,1.034-0.072,1.554c-0.077,1.531-0.152,3.059-0.204,4.58c-0.019,0.566-0.026,1.127-0.042,1.693
	c-0.041,1.465-0.078,2.929-0.095,4.384c-0.006,0.597-0.001,1.189-0.004,1.785c-0.006,1.414-0.01,2.827,0.006,4.232
	c0.007,0.62,0.026,1.234,0.038,1.852c0.026,1.373,0.054,2.746,0.102,4.11c0.022,0.629,0.055,1.253,0.083,1.88
	c0.057,1.345,0.118,2.689,0.197,4.023c0.038,0.632,0.086,1.259,0.127,1.889c0.089,1.322,0.181,2.644,0.292,3.956
	c0.053,0.629,0.115,1.253,0.172,1.88c0.12,1.305,0.245,2.608,0.386,3.904c0.068,0.623,0.144,1.241,0.217,1.861
	c0.152,1.293,0.308,2.583,0.481,3.865c0.082,0.609,0.171,1.215,0.258,1.822c0.184,1.284,0.373,2.566,0.579,3.841
	c0.096,0.596,0.199,1.187,0.299,1.781c0.216,1.278,0.44,2.553,0.678,3.82c0.109,0.581,0.224,1.158,0.338,1.737
	c0.25,1.269,0.507,2.534,0.777,3.791c0.122,0.568,0.25,1.135,0.377,1.701c0.282,1.26,0.574,2.515,0.879,3.764
	c0.136,0.555,0.275,1.108,0.415,1.66c0.171,0.68,0.331,1.366,0.51,2.043l0.455,1.721l0.036,0.042
	c0.063,0.231,0.119,0.465,0.183,0.695c7.507,27.055,20.133,50.725,37.53,70.352c24.235,27.345,56.191,45.143,92.068,51.737v46.704
	c-9.043,6.629-15.995,16.102-19.523,27.443c-1.285,4.133,1.023,8.525,5.156,9.811c4.136,1.292,8.525-1.022,9.811-5.155
	c4.985-16.027,19.623-26.795,36.425-26.795c21.03,0,38.139,17.109,38.139,38.139s-17.109,38.139-38.139,38.139
	c-15.732,0-30.062-9.874-35.657-24.572c-1.54-4.044-6.066-6.076-10.113-4.535c-4.045,1.54-6.075,6.068-4.535,10.113
	c3.743,9.829,10.258,18.126,18.436,24.138v43.161h-16.327c-18.367,0-33.309,14.943-33.309,33.309v5.338v31.883
	c0,4.329,3.509,7.837,7.837,7.837h147.337c4.329,0,7.837-3.508,7.837-7.837V472.28v-5.338c0-18.366-14.943-33.309-33.309-33.309
	h-16.33v-43.117c13.297-9.806,21.943-25.573,21.943-43.327s-8.645-33.519-21.943-43.327v-46.9
	c28.153-5.273,54.321-17.491,75.759-35.687c3.3-2.801,3.704-7.746,0.903-11.046c-2.8-3.299-7.745-3.705-11.046-0.903
	c-26.528,22.518-61.148,34.918-97.486,34.918c-44.162,0-84.011-17.521-112.208-49.335c-12.418-14.01-22.141-30.463-29.043-48.816
	c0.645,0.045,1.295,0.075,1.955,0.075c16.105,0,23.8-13.16,29.983-23.734c5.791-9.904,9.683-15.972,16.452-15.972
	s10.662,6.069,16.453,15.969c6.185,10.575,13.883,23.737,29.994,23.737c16.105,0,23.8-13.16,29.982-23.734
	c5.791-9.904,9.683-15.972,16.453-15.972c6.769,0,10.662,6.069,16.453,15.969c6.185,10.575,13.883,23.737,29.993,23.737
	c16.105,0,23.8-13.16,29.983-23.735c5.79-9.902,9.683-15.971,16.452-15.971c6.769,0,10.662,6.07,16.452,15.972
	c6.184,10.573,13.878,23.734,29.982,23.734c0.709,0,1.405-0.036,2.096-0.087c-6.207,16.407-14.734,31.334-25.544,44.522
	c-2.743,3.348-2.254,8.286,1.093,11.03c1.459,1.194,3.216,1.775,4.964,1.775c2.266,0,4.515-0.979,6.066-2.868
	c30.158-36.792,44.148-85.49,40.906-141.689c-0.003-0.049-0.004-0.098-0.007-0.148c-0.102-1.758-0.226-3.523-0.362-5.296
	c-0.022-0.286-0.038-0.569-0.061-0.856c-0.119-1.497-0.261-3.005-0.404-4.513c10.053-3.075,17.386-12.438,17.386-23.485
	C441.469,11.015,430.454,0,416.914,0z M321.832,496.327H190.168v-16.21h131.663V496.327z M304.196,449.306
	c8.874,0,16.218,6.595,17.437,15.137H190.367c1.219-8.543,8.563-15.137,17.437-15.137h16.327h63.739H304.196z M272.196,433.633
	h-32.392v-35.16c5.165,1.648,10.617,2.529,16.196,2.529c5.642,0,11.082-0.878,16.196-2.495V433.633z M272.196,259.918v35.954
	c-5.114-1.618-10.553-2.495-16.196-2.495c-5.618,0-11.061,0.863-16.196,2.467v-35.926H272.196z M378.884,114.525
	c-6.184-10.573-13.878-23.734-29.982-23.734c-16.104,0-23.799,13.159-29.982,23.734c-5.791,9.904-9.683,15.972-16.453,15.972
	c-6.775,0-10.671-6.071-16.463-15.975c-6.184-10.572-13.879-23.731-29.982-23.731c-16.105,0-23.8,13.16-29.983,23.735
	c-5.791,9.902-9.683,15.971-16.452,15.971c-6.776,0-10.671-6.071-16.464-15.976c-6.183-10.571-13.878-23.73-29.981-23.73
	c-16.104,0-23.8,13.16-29.982,23.734c-5.791,9.904-9.683,15.972-16.453,15.972c-3.021,0-5.426-1.084-7.974-3.644
	c-6.024-23.709-7.828-49.941-5.171-77.744h304.883c0.141,1.466,0.28,2.93,0.397,4.386c0.009,0.116,0.016,0.23,0.025,0.346
	c2.061,26.034,0.245,50.493-5.427,72.88c-2.584,2.631-5.073,3.774-8.102,3.774C388.567,130.497,384.675,124.427,378.884,114.525z
	 M416.914,33.437H95.086c-4.897,0-8.882-3.984-8.882-8.882s3.984-8.882,8.882-8.882h321.829c4.897,0,8.882,3.984,8.882,8.882
	S421.812,33.437,416.914,33.437z"/>
<g>
</g>
<g>
</g>
<g>
</g>
<g>
</g>
<g>
</g>
<g>
</g>
<g>
</g>
<g>
</g>
<g>
</g>
<g>
</g>
<g>
</g>
<g>
</g>
<g>
</g>
<g>
</g>
<g>
</g>
</svg>
