<?xml version="1.0" encoding="iso-8859-1"?>
<!-- Generator: Adobe Illustrator 19.0.0, SVG Export Plug-In . SVG Version: 6.00 Build 0)  -->
<svg version="1.1" id="Layer_1" xmlns="http://www.w3.org/2000/svg" xmlns:xlink="http://www.w3.org/1999/xlink" x="0px" y="0px"
	 viewBox="0 0 512 512" style="enable-background:new 0 0 512 512;" xml:space="preserve">
<g>
	<circle style="fill:#A0EBFF;" cx="256" cy="256" r="256"/>
	<circle style="fill:#D03E00;" cx="359.782" cy="332.38" r="58.132"/>
	<path style="fill:#C3D63C;" d="M316.17,294.236c0,0,8.371,0.046,19.579-5.745c10.46-5.402,14.92-13.722,14.92-13.722
		l-64.911-115.543l-34.504,19.466L316.17,294.236z"/>
	<path style="fill:#A5B81E;" d="M285.757,159.227l-34.504,19.466l3.405,6.067l17.582-9.917l63.77,113.505
		c10.26-5.407,14.664-13.568,14.664-13.568L285.757,159.227z"/>
	<circle style="fill:#D03E00;" cx="251.699" cy="149.811" r="58.132"/>
	<path style="fill:#9C2E00;" d="M283.894,101.422c6.154,9.221,9.754,20.296,9.754,32.215c0,32.108-26.03,58.132-58.132,58.132
		c-11.919,0-22.989-3.599-32.215-9.754c10.424,15.621,28.196,25.923,48.384,25.923c32.108,0,58.132-26.03,58.132-58.132
		C309.816,129.618,299.515,111.846,283.894,101.422z"/>
	<path style="fill:#9C2E00;" d="M391.987,284.001c6.154,9.221,9.754,20.296,9.754,32.215c0,32.108-26.03,58.133-58.133,58.133
		c-11.919,0-22.989-3.599-32.215-9.754c10.424,15.621,28.196,25.923,48.384,25.923c32.108,0,58.132-26.03,58.132-58.132
		C417.91,312.192,407.608,294.42,391.987,284.001z"/>
	<path style="fill:#C3D63C;" d="M179.231,325.396l-34.842-18.847l63.98-118.277c0,0,8.146-2.186,19.866,4.065
		c12.467,6.651,14.976,14.781,14.976,14.781L179.231,325.396z"/>
	<path style="fill:#A5B81E;" d="M228.357,192.415l-66.77,123.438l17.644,9.544l63.98-118.277
		C243.21,207.119,240.707,199.05,228.357,192.415z"/>
	<circle style="fill:#D03E00;" cx="152.228" cy="332.38" r="58.132"/>
	<path style="fill:#9C2E00;" d="M184.438,284.001c6.154,9.221,9.754,20.296,9.754,32.215c0,32.108-26.03,58.133-58.132,58.133
		c-11.919,0-22.989-3.599-32.215-9.754c10.424,15.621,28.196,25.923,48.384,25.923c32.108,0,58.132-26.03,58.132-58.132
		C210.36,312.192,200.059,294.42,184.438,284.001z"/>
	<path style="fill:#C3D63C;" d="M304.937,313.226h-97.925c-2.109,0-3.82,8.576-3.82,19.154c0,10.578,1.71,19.154,3.82,19.154h97.925
		c-2.099-6.006-3.297-12.431-3.297-19.154C301.64,325.658,302.838,319.232,304.937,313.226z"/>
	<circle style="fill:#F7BF00;" cx="342.344" cy="314.931" r="11.832"/>
	<circle style="fill:#F7BF00;" cx="132.557" cy="314.931" r="11.832"/>
	<circle style="fill:#F7BF00;" cx="231.373" cy="127.14" r="11.832"/>
	<path style="fill:#A5B81E;" d="M203.192,332.38c0,10.578,1.71,19.154,3.82,19.154h97.925c-2.099-6.006-3.297-12.431-3.297-19.154
		H203.192z"/>
</g>
<g>
</g>
<g>
</g>
<g>
</g>
<g>
</g>
<g>
</g>
<g>
</g>
<g>
</g>
<g>
</g>
<g>
</g>
<g>
</g>
<g>
</g>
<g>
</g>
<g>
</g>
<g>
</g>
<g>
</g>
</svg>
