<?xml version="1.0" encoding="iso-8859-1"?>
<!-- Generator: Adobe Illustrator 19.0.0, SVG Export Plug-In . SVG Version: 6.00 Build 0)  -->
<svg version="1.1" id="Layer_1" xmlns="http://www.w3.org/2000/svg" xmlns:xlink="http://www.w3.org/1999/xlink" x="0px" y="0px"
	 viewBox="0 0 300 300" style="enable-background:new 0 0 300 300;" xml:space="preserve">
<g id="XMLID_17_">
	<path id="XMLID_18_" d="M135.402,23.85c-8.284,0-15,6.716-15,15v60.192c0,24.924-20.277,45.201-45.201,45.201H30V38.85
		c0-8.284-6.716-15-15-15c-8.284,0-15,6.716-15,15v237.995c0,8.284,6.716,15,15,15c8.284,0,15-6.716,15-15V174.251h45.201
		c0.142,0,0.283-0.002,0.424-0.006c24.729,0.229,44.777,20.416,44.777,45.198v57.401c0,8.284,6.716,15,15,15c8.284,0,15-6.716,15-15
		v-57.401c0-24.597-11.871-46.472-30.184-60.2c18.313-13.729,30.184-35.604,30.184-60.201V38.85
		C150.402,30.566,143.686,23.85,135.402,23.85z"/>
	<path id="XMLID_19_" d="M285,217.839c-8.284,0-15,6.716-15,15c0,16.542-13.458,30-30,30s-30-13.458-30-30v-90
		c0-16.542,13.458-30,30-30s30,13.458,30,30c0,8.284,6.716,15,15,15c8.284,0,15-6.716,15-15c0-33.084-26.916-60-60-60
		s-60,26.916-60,60v90c0,33.084,26.916,60,60,60s60-26.916,60-60C300,224.555,293.284,217.839,285,217.839z"/>
	<path id="XMLID_20_" d="M210.746,33.967l19.884,15.586c0.027,0.022,0.055,0.044,0.082,0.065l0.034,0.026
		c0.382,0.3,0.777,0.572,1.178,0.83c0.148,0.094,0.3,0.179,0.451,0.268c0.305,0.181,0.613,0.351,0.926,0.508
		c0.145,0.071,0.288,0.144,0.434,0.211c0.423,0.194,0.85,0.371,1.284,0.524c0.032,0.011,0.063,0.025,0.094,0.036
		c0.492,0.17,0.991,0.308,1.494,0.424c0.096,0.023,0.192,0.039,0.289,0.06c0.412,0.087,0.827,0.156,1.243,0.208
		c0.116,0.015,0.232,0.031,0.349,0.043c0.5,0.05,1.001,0.084,1.502,0.084c0.004,0,0.007,0,0.01,0c0.003,0,0.007,0,0.01,0
		c0.501,0,1.003-0.034,1.503-0.084c0.116-0.012,0.231-0.028,0.347-0.043c0.417-0.052,0.833-0.121,1.246-0.208
		c0.095-0.021,0.191-0.037,0.285-0.06c0.504-0.116,1.004-0.254,1.497-0.424c0.028-0.01,0.055-0.022,0.082-0.032
		c0.439-0.154,0.871-0.334,1.298-0.53c0.143-0.066,0.283-0.137,0.424-0.207c0.317-0.158,0.63-0.33,0.939-0.514
		c0.147-0.087,0.296-0.17,0.44-0.263c0.402-0.257,0.797-0.53,1.181-0.831l0.038-0.029c0.025-0.021,0.051-0.04,0.077-0.061
		l19.886-15.588c6.52-5.111,7.662-14.54,2.551-21.06c-5.11-6.52-14.539-7.662-21.059-2.552L240,18.78l-10.746-8.424
		c-6.518-5.108-15.948-3.968-21.059,2.552C203.084,19.427,204.226,28.856,210.746,33.967z"/>
</g>
<g>
</g>
<g>
</g>
<g>
</g>
<g>
</g>
<g>
</g>
<g>
</g>
<g>
</g>
<g>
</g>
<g>
</g>
<g>
</g>
<g>
</g>
<g>
</g>
<g>
</g>
<g>
</g>
<g>
</g>
</svg>
