<?xml version="1.0" encoding="iso-8859-1"?>
<!-- Generator: Adobe Illustrator 19.0.0, SVG Export Plug-In . SVG Version: 6.00 Build 0)  -->
<svg version="1.1" id="Layer_1" xmlns="http://www.w3.org/2000/svg" xmlns:xlink="http://www.w3.org/1999/xlink" x="0px" y="0px"
	 viewBox="0 0 511.999 511.999" style="enable-background:new 0 0 511.999 511.999;" xml:space="preserve">
<g>
	<g>
		<path d="M482.035,204.882c-28.732-35.354-57.817-110.772-57.817-186.513c0-5.316-3.992-9.785-9.275-10.382l-69.998-7.92
			c-2.951-0.333-5.915,0.607-8.136,2.589c-2.219,1.982-3.488,4.817-3.488,7.793c0,42.636-34.686,77.322-77.322,77.322
			s-77.322-34.686-77.322-77.322c0-2.976-1.268-5.81-3.488-7.793c-2.22-1.983-5.186-2.924-8.136-2.589l-69.998,7.92
			c-5.283,0.598-9.274,5.067-9.274,10.382c0,75.742-29.086,151.16-57.817,186.513c-1.513,1.863-2.339,4.19-2.339,6.59V501.55
			c0,5.771,4.679,10.449,10.449,10.449h435.853c5.77,0,10.449-4.678,10.449-10.449V211.471
			C484.374,209.072,483.548,206.745,482.035,204.882z M158.462,22.068c5.766,48.705,47.309,86.601,97.537,86.601
			s91.771-37.896,97.537-86.6l15.571,1.763c-6.584,57.083-54.537,100.511-113.108,100.511S149.475,80.914,142.891,23.83
			L158.462,22.068z M48.521,491.101V215.107c15.575-20.165,29.997-48.874,40.822-81.359c11.603-34.821,18.189-71.276,19.198-106.031
			l13.59-1.538c3.569,30.775,17.543,59.219,40.043,81.04c25.281,24.517,58.602,38.021,93.826,38.021s68.544-13.502,93.825-38.021
			c22.5-21.821,36.473-50.265,40.043-81.04l13.59,1.538c1.009,34.755,7.594,71.21,19.198,106.031
			c10.825,32.485,25.247,61.193,40.822,81.359v275.994H48.521z"/>
	</g>
</g>
<g>
	<g>
		<path d="M371.33,216.788c-1.866-3.233-5.316-5.224-9.049-5.224H149.717c-3.732,0-7.183,1.992-9.049,5.224
			c-1.866,3.233-1.866,7.216,0,10.449L246.95,411.325c1.866,3.233,5.316,5.224,9.049,5.224s7.183-1.992,9.049-5.224L371.33,227.237
			C373.196,224.004,373.196,220.02,371.33,216.788z M255.999,385.202l-88.184-152.74h176.367L255.999,385.202z"/>
	</g>
</g>
<g>
	<g>
		<path d="M393.241,246.055c-4.999-2.885-11.388-1.173-14.273,3.824l-87.177,150.996c-2.886,4.998-1.173,11.388,3.824,14.273
			c1.646,0.95,3.442,1.401,5.214,1.401c3.611,0,7.124-1.873,9.059-5.226l87.177-150.996
			C399.951,255.331,398.239,248.94,393.241,246.055z"/>
	</g>
</g>
<g>
	<g>
		<path d="M412.345,212.963c-4.999-2.885-11.388-1.172-14.272,3.825l-2.188,3.79c-2.886,4.998-1.172,11.388,3.825,14.273
			c1.645,0.95,3.441,1.401,5.213,1.401c3.612,0,7.124-1.875,9.059-5.227l2.188-3.79
			C419.057,222.239,417.343,215.848,412.345,212.963z"/>
	</g>
</g>
<g>
</g>
<g>
</g>
<g>
</g>
<g>
</g>
<g>
</g>
<g>
</g>
<g>
</g>
<g>
</g>
<g>
</g>
<g>
</g>
<g>
</g>
<g>
</g>
<g>
</g>
<g>
</g>
<g>
</g>
</svg>
