<?xml version="1.0" encoding="iso-8859-1"?>
<!-- Generator: Adobe Illustrator 19.0.0, SVG Export Plug-In . SVG Version: 6.00 Build 0)  -->
<svg version="1.1" id="Layer_1" xmlns="http://www.w3.org/2000/svg" xmlns:xlink="http://www.w3.org/1999/xlink" x="0px" y="0px"
	 viewBox="0 0 512 512" style="enable-background:new 0 0 512 512;" xml:space="preserve">
<circle style="fill:#FFCCA6;" cx="256.001" cy="218.317" r="84.241"/>
<g>
	<path style="fill:#DABA75;" d="M87.526,512h44.864l22.756-57.228l-22.756-57.228C104.552,427.594,87.526,467.805,87.526,512z"/>
	<path style="fill:#DABA75;" d="M256.001,343.526c-21.06,0-41.213,3.875-59.797,10.934l-22.756,78.77l22.756,78.77h119.594
		l22.756-78.77l-22.756-78.77C297.213,347.402,277.061,343.526,256.001,343.526z"/>
	<path style="fill:#DABA75;" d="M379.61,397.543l-22.756,57.228l22.756,57.228h44.864
		C424.475,467.805,407.449,427.594,379.61,397.543z"/>
</g>
<g>
	<path style="fill:#C3A458;" d="M132.391,397.543V512h63.812V354.46C171.68,363.774,149.897,378.647,132.391,397.543z"/>
	<path style="fill:#C3A458;" d="M315.798,354.46V512h63.812V397.543C362.104,378.647,340.321,363.774,315.798,354.46z"/>
</g>
<path style="fill:#DABA75;" d="M277.521,10.816l-21.52,115.337l-21.52-115.337c-46.153,27.103-84.293,73.38-84.293,73.38
	l17.355,49.884l88.459,22.452l88.46-22.452l17.353-49.884C361.814,84.196,323.672,37.919,277.521,10.816z"/>
<path style="fill:#C3A458;" d="M277.521,134.079V10.816c-7.023-4.124-14.231-7.81-21.52-10.816
	c-7.289,3.006-14.496,6.691-21.52,10.816v123.263h-66.939l14.973,43.04h146.972l14.973-43.04L277.521,134.079L277.521,134.079z"/>
<g>
</g>
<g>
</g>
<g>
</g>
<g>
</g>
<g>
</g>
<g>
</g>
<g>
</g>
<g>
</g>
<g>
</g>
<g>
</g>
<g>
</g>
<g>
</g>
<g>
</g>
<g>
</g>
<g>
</g>
</svg>
