<?xml version="1.0" encoding="iso-8859-1"?>
<!-- Generator: Adobe Illustrator 19.0.0, SVG Export Plug-In . SVG Version: 6.00 Build 0)  -->
<svg version="1.1" id="Layer_1" xmlns="http://www.w3.org/2000/svg" xmlns:xlink="http://www.w3.org/1999/xlink" x="0px" y="0px"
	 viewBox="0 0 512 512" style="enable-background:new 0 0 512 512;" xml:space="preserve">
<path style="fill:#FFD670;" d="M284.892,0h-57.784c-12.709,0-23.012,10.303-23.012,23.012v88.587h103.806V23.012
	C307.903,10.303,297.601,0,284.892,0z"/>
<path style="fill:#C3A458;" d="M196.171,452.171C196.171,485.213,222.957,512,256,512s59.829-26.787,59.829-59.829L256,429.416
	L196.171,452.171z"/>
<path style="fill:#FFD670;" d="M424.066,350.541L256,327.786L87.934,350.541c-6.548,10.813-14.508,21.93-24.161,34.133L256,407.43
	l192.226-22.756C438.574,372.471,430.614,361.355,424.066,350.541z"/>
<g>
	<path style="fill:#FFBA12;" d="M395.596,214.96C395.596,132.946,328.58,79.39,256,79.39S116.404,132.946,116.404,214.96
		c0,63.755-5.606,97.822-28.469,135.581h336.131C401.201,312.782,395.596,278.716,395.596,214.96z"/>
	<path style="fill:#FFBA12;" d="M35.092,452.171h441.815c0-27.614-8.054-41.421-28.681-67.496H63.774
		C43.146,410.75,35.092,424.557,35.092,452.171z"/>
</g>
<path style="fill:#C3A458;" d="M273.636,42.667h-35.271c-4.713,0-8.533-3.821-8.533-8.533s3.821-8.533,8.533-8.533h35.271
	c4.714,0,8.533,3.821,8.533,8.533S278.349,42.667,273.636,42.667z"/>
<path style="fill:#FFD670;" d="M488.414,460.704H23.586c-4.713,0-8.533-3.821-8.533-8.533s3.821-8.533,8.533-8.533h464.828
	c4.714,0,8.533,3.821,8.533,8.533S493.127,460.704,488.414,460.704z"/>
<g>
</g>
<g>
</g>
<g>
</g>
<g>
</g>
<g>
</g>
<g>
</g>
<g>
</g>
<g>
</g>
<g>
</g>
<g>
</g>
<g>
</g>
<g>
</g>
<g>
</g>
<g>
</g>
<g>
</g>
</svg>
