<?xml version="1.0" encoding="iso-8859-1"?>
<!-- Generator: Adobe Illustrator 19.0.0, SVG Export Plug-In . SVG Version: 6.00 Build 0)  -->
<svg version="1.1" id="Layer_1" xmlns="http://www.w3.org/2000/svg" xmlns:xlink="http://www.w3.org/1999/xlink" x="0px" y="0px"
	 viewBox="0 0 512 512" style="enable-background:new 0 0 512 512;" xml:space="preserve">
<rect x="191.511" style="fill:#C3A458;" width="128.978" height="68.756"/>
<path style="fill:#71A8FF;" d="M308.147,459.853C308.147,488.653,284.799,512,256,512c-28.801,0-52.147-23.347-52.147-52.147
	c0-33.187,52.147-118.52,52.147-118.52S308.147,426.667,308.147,459.853z"/>
<path style="fill:#FFD670;" d="M191.512,45.998l-111.34,77.796c0,49.598,20.544,94.391,53.576,126.357h34.133L231.77,45.998
	C231.77,45.998,191.512,45.998,191.512,45.998z"/>
<path style="fill:#FFBA12;" d="M431.828,123.794l-111.34-77.796H280.23l63.887,204.153h34.133
	C411.285,218.185,431.828,173.392,431.828,123.794z"/>
<path style="fill:#FFD670;" d="M256,45.998l-34.133,126.811L256,299.62c47.509,0,90.61-18.851,122.252-49.471L280.231,45.998H256z"
	/>
<path style="fill:#FFBA12;" d="M231.77,45.998l-98.022,204.153c31.642,30.62,74.743,49.471,122.252,49.471V45.998H231.77z"/>
<g>
</g>
<g>
</g>
<g>
</g>
<g>
</g>
<g>
</g>
<g>
</g>
<g>
</g>
<g>
</g>
<g>
</g>
<g>
</g>
<g>
</g>
<g>
</g>
<g>
</g>
<g>
</g>
<g>
</g>
</svg>
