<?xml version="1.0" encoding="iso-8859-1"?>
<!-- Generator: Adobe Illustrator 19.0.0, SVG Export Plug-In . SVG Version: 6.00 Build 0)  -->
<svg version="1.1" id="Layer_1" xmlns="http://www.w3.org/2000/svg" xmlns:xlink="http://www.w3.org/1999/xlink" x="0px" y="0px"
	 viewBox="0 0 512 512" style="enable-background:new 0 0 512 512;" xml:space="preserve">
<g>
	<polygon style="fill:#ECF0F1;" points="423.724,35.31 423.724,70.621 361.931,70.621 361.931,35.31 150.069,35.31 150.069,70.621 
		88.276,70.621 88.276,35.31 17.655,35.31 17.655,512 494.345,512 494.345,35.31 	"/>
	<g>
		<polygon style="fill:#F0C419;" points="88.276,70.621 150.069,70.621 150.069,0 88.276,0 		"/>
		<polygon style="fill:#F0C419;" points="361.931,70.621 423.724,70.621 423.724,0 361.931,0 		"/>
	</g>
	<polygon style="fill:#C03A2B;" points="423.724,35.31 423.724,70.621 361.931,70.621 361.931,35.31 150.069,35.31 150.069,70.621 
		88.276,70.621 88.276,35.31 17.655,35.31 17.655,132.414 494.345,132.414 494.345,35.31 	"/>
	<g>
		<path style="fill:#8697CB;" d="M397.241,379.586c-4.882,0-8.828-3.946-8.828-8.828v-35.31H123.586v35.31
			c0,4.882-3.946,8.828-8.828,8.828s-8.828-3.946-8.828-8.828v-44.138c0-4.882,3.946-8.828,8.828-8.828h282.483
			c4.882,0,8.828,3.946,8.828,8.828v44.138C406.069,375.64,402.123,379.586,397.241,379.586"/>
		<path style="fill:#8697CB;" d="M256,379.586c-4.882,0-8.828-3.946-8.828-8.828v-97.103c0-4.882,3.946-8.828,8.828-8.828
			s8.828,3.946,8.828,8.828v97.103C264.828,375.64,260.882,379.586,256,379.586"/>
	</g>
	<polygon style="fill:#F0C419;" points="353.103,459.034 441.379,459.034 441.379,370.759 353.103,370.759 	"/>
	<polygon style="fill:#4482C3;" points="211.862,459.034 300.138,459.034 300.138,370.759 211.862,370.759 	"/>
	<polygon style="fill:#24AE5F;" points="70.621,459.034 158.897,459.034 158.897,370.759 70.621,370.759 	"/>
	<polygon style="fill:#C03A2B;" points="211.862,273.655 300.138,273.655 300.138,185.379 211.862,185.379 	"/>
</g>
<g>
</g>
<g>
</g>
<g>
</g>
<g>
</g>
<g>
</g>
<g>
</g>
<g>
</g>
<g>
</g>
<g>
</g>
<g>
</g>
<g>
</g>
<g>
</g>
<g>
</g>
<g>
</g>
<g>
</g>
</svg>
