<?xml version="1.0" encoding="iso-8859-1"?>
<!-- Generator: Adobe Illustrator 19.0.0, SVG Export Plug-In . SVG Version: 6.00 Build 0)  -->
<svg version="1.1" id="Layer_1" xmlns="http://www.w3.org/2000/svg" xmlns:xlink="http://www.w3.org/1999/xlink" x="0px" y="0px"
	 viewBox="0 0 512 512" style="enable-background:new 0 0 512 512;" xml:space="preserve">
<g>
	<g>
		<path d="M358.57,0H153.43c-27.195,0-49.319,22.124-49.319,49.319v413.362h-0.001c0,27.195,22.124,49.319,49.319,49.319H358.57
			c27.195,0,49.319-22.124,49.319-49.319V49.319C407.891,22.124,385.766,0,358.57,0z M124.508,49.319
			c0-15.948,12.974-28.921,28.921-28.921H358.57c15.947,0,28.921,12.974,28.921,28.921v355.589H124.508V49.319z M387.493,462.681
			L387.493,462.681c-0.001,15.947-12.975,28.921-28.922,28.921H153.43c-15.948,0-28.921-12.974-28.921-28.921v-37.374h262.984
			V462.681z"/>
	</g>
</g>
<g>
	<g>
		<path d="M270.789,34.677h-29.578c-5.633,0-10.199,4.566-10.199,10.199c0,5.633,4.566,10.199,10.199,10.199h29.578
			c5.632,0,10.199-4.566,10.199-10.199C280.988,39.243,276.421,34.677,270.789,34.677z"/>
	</g>
</g>
<g>
	<g>
		<path d="M148.909,249.88c-5.633,0-10.199,4.566-10.199,10.199V379.41c0,5.633,4.566,10.199,10.199,10.199
			c5.633,0,10.199-4.566,10.199-10.199V260.08C159.108,254.447,154.542,249.88,148.909,249.88z"/>
	</g>
</g>
<g>
	<g>
		<path d="M148.909,209.084c-5.633,0-10.199,4.566-10.199,10.199v6.311c0,5.633,4.566,10.199,10.199,10.199
			c5.633,0,10.199-4.566,10.199-10.199v-6.311C159.108,213.65,154.542,209.084,148.909,209.084z"/>
	</g>
</g>
<g>
	<g>
		<path d="M256,430.406c-14.903,0-27.028,12.125-27.028,27.028s12.125,27.028,27.028,27.028s27.028-12.125,27.028-27.028
			S270.903,430.406,256,430.406z M256,464.064c-3.655,0-6.629-2.974-6.629-6.63s2.974-6.629,6.629-6.629s6.63,2.974,6.63,6.629
			S259.656,464.064,256,464.064z"/>
	</g>
</g>
<g>
	<g>
		<path d="M450.743,308.18l33.947-33.948c3.977-3.976,3.985-10.421,0.017-14.406l-33.931-34.095l33.913-33.913
			c3.962-3.962,3.986-10.381,0.052-14.372l-33.999-34.493l33.947-33.948c3.983-3.983,3.983-10.441,0-14.424
			c-3.984-3.983-10.44-3.983-14.425,0l-41.108,41.108c-3.962,3.962-3.986,10.381-0.052,14.372l33.999,34.493l-33.947,33.948
			c-3.976,3.976-3.984,10.42-0.017,14.406l33.931,34.095l-33.913,33.913c-3.962,3.962-3.986,10.381-0.052,14.372l41.108,41.705
			c1.996,2.025,4.629,3.039,7.264,3.039c2.586,0,5.173-0.977,7.16-2.935c4.012-3.954,4.058-10.411,0.105-14.424L450.743,308.18z"/>
	</g>
</g>
<g>
	<g>
		<path d="M82.843,300.916L48.93,267.003l33.931-34.095c3.964-3.986,3.957-10.43-0.018-14.406l-33.948-33.948l33.999-34.493
			c3.934-3.991,3.911-10.409-0.051-14.372L41.734,94.581c-3.983-3.984-10.44-3.983-14.425,0c-3.983,3.983-3.983,10.441,0,14.424
			l33.948,33.948l-33.999,34.493c-3.934,3.991-3.911,10.409,0.051,14.372l33.913,33.913l-33.931,34.095
			c-3.966,3.986-3.958,10.43,0.017,14.406l33.948,33.948l-33.999,34.493c-3.954,4.012-3.908,10.469,0.104,14.424
			c1.987,1.958,4.573,2.935,7.16,2.935c2.634,0,5.269-1.015,7.265-3.039l41.107-41.705
			C86.828,311.297,86.806,304.879,82.843,300.916z"/>
	</g>
</g>
<g>
</g>
<g>
</g>
<g>
</g>
<g>
</g>
<g>
</g>
<g>
</g>
<g>
</g>
<g>
</g>
<g>
</g>
<g>
</g>
<g>
</g>
<g>
</g>
<g>
</g>
<g>
</g>
<g>
</g>
</svg>
