<?xml version="1.0" encoding="iso-8859-1"?>
<!-- Generator: Adobe Illustrator 16.0.0, SVG Export Plug-In . SVG Version: 6.00 Build 0)  -->
<!DOCTYPE svg PUBLIC "-//W3C//DTD SVG 1.1//EN" "http://www.w3.org/Graphics/SVG/1.1/DTD/svg11.dtd">
<svg version="1.1" id="Capa_1" xmlns="http://www.w3.org/2000/svg" xmlns:xlink="http://www.w3.org/1999/xlink" x="0px" y="0px"
	 width="342.156px" height="342.156px" viewBox="0 0 342.156 342.156" style="enable-background:new 0 0 342.156 342.156;"
	 xml:space="preserve">
<g>
	<g>
		<path d="M246.295,302.988c0-1.836,1.224-4.284,3.672-4.896c94.248-26.928,105.876-137.088,64.26-212.976
			c-38.556-70.992-121.176-104.04-197.675-74.052C41.275,40.44-3.401,120,6.391,199.56c5.508,46.513,28.152,92.412,74.664,110.16
			c41.004,15.3,82.62,8.568,124.236-0.612c1.224-0.611,2.448,0.612,2.448,1.837c1.224,0,2.447,0.611,3.06,2.447
			c6.12,20.809,25.092,26.929,44.064,28.765c-0.612-0.612-1.225-1.225-1.225-1.225c-2.448-2.447-3.672-5.508-4.896-8.567
			c-3.061-7.956-4.896-17.137-4.284-25.704C244.459,304.824,245.07,303.6,246.295,302.988z M242.011,257.7
			c-12.852,12.852-58.752,10.403-75.275,11.628c-19.584,1.836-63.648,10.403-80.172-4.896c-14.688-12.852-11.016-47.124-7.956-64.26
			c0-1.224,1.224-1.836,2.448-1.836c3.672-6.12,10.404-12.852,17.748-13.464c-4.284-18.972-6.12-38.556-6.12-58.14
			c0-11.016-2.448-42.84,6.732-51.408c9.792-9.18,37.944,1.836,48.348,3.06c29.375,2.448,58.751,1.224,88.127-1.224
			c3.061,0,6.12,3.672,4.896,6.732c-9.181,29.376-14.688,58.752-18.973,89.352c2.448,1.836,5.509,3.672,7.956,6.12
			c3.061,1.836,6.732,4.283,9.181,6.731c1.836,1.836,1.224,4.284,0,5.508C242.623,208.74,253.026,246.072,242.011,257.7z"/>
		<path d="M196.11,219.144c12.24,9.792,24.48,20.196,36.108,31.212c1.224-1.836,1.836-6.731,1.836-19.584
			c0-11.016-2.448-23.256-4.284-35.496C220.591,205.68,207.738,213.023,196.11,219.144z"/>
		<path d="M139.807,206.904c4.284-4.284,10.404-13.465,17.748-14.076c8.568,0,25.091,14.688,33.66,22.644
			c7.344-4.896,14.688-10.403,21.42-15.912c4.896-4.283,9.792-8.567,15.3-12.239c-0.611-0.612-1.836-1.836-3.06-2.448
			c-1.225-1.225-3.061-2.448-4.896-4.284c-0.611,3.672-0.611,7.344-1.224,11.016c-0.612,4.896-7.956,5.509-7.956,0
			c0-35.496,7.956-70.379,17.748-104.04c-36.108,3.06-70.992,0-106.488-3.672c-5.508-1.224-11.016-1.224-16.524-1.224
			c-1.836,9.792-3.06,18.972-3.06,28.764c-0.612,10.404-1.224,20.196-0.612,30.6c0.612,23.256,4.896,45.9,9.792,68.544
			c0,0,0,0,0,0.611c4.896,2.448,9.18,4.896,12.852,9.181c0.612,1.224,0.612,2.448-0.612,3.06c-0.612,0.612-1.836,0.612-2.448,0.612
			c-7.344-1.225-13.464-7.344-19.584-11.017c-4.896-3.06-9.792-6.731-14.076-10.403c-0.612,0.611-1.224,1.224-1.836,1.836
			c-0.612,0.612-1.224,0.612-1.836,0.612c0,12.239-0.612,33.048,4.896,39.779c1.836,2.448,4.896,4.896,7.344,6.732
			c9.18-9.792,18.36-18.973,27.54-28.765C128.792,217.92,134.299,212.412,139.807,206.904z M202.843,202.62
			c0,4.284-4.284,7.956-8.568,6.731c-2.447-0.611-4.283-2.447-4.896-4.896c-1.225-0.612-2.448-1.225-3.061-1.836
			c-2.447-1.225-3.06-4.284-1.836-6.12c1.225-2.448,3.672-3.061,6.12-3.061c0.612,0,0.612,0,1.225,0
			c0.611-1.224,1.224-1.836,1.836-3.06c1.224-1.836,3.672-3.672,6.12-3.672h0.611c3.061,0,4.896,1.836,6.12,4.284
			C206.515,195.888,202.843,198.336,202.843,202.62z M193.051,132.24c-24.479,0.612-48.959,0.612-72.828,3.06
			c-1.836,0-2.448-3.06-0.612-3.06c24.48-3.672,48.96-6.12,73.439-4.896C196.11,127.344,196.11,132.24,193.051,132.24z
			 M115.327,107.148c28.764-1.224,59.976-6.12,88.128-2.448c2.447,0,3.06,3.672,0.611,4.284c-28.151,6.12-60.587,1.836-88.739,1.224
			C113.491,110.82,113.491,107.148,115.327,107.148z M117.163,158.556c23.868-2.448,48.348-6.12,72.828-6.12
			c4.283,0,3.672,5.508,0,6.12c-23.868,3.06-48.348,3.06-72.828,3.672C114.715,162.228,114.715,159.168,117.163,158.556z
			 M121.447,183.036c-2.448,0-2.448-4.284,0-4.284c21.42-1.224,44.064-3.061,66.096,0c3.06,0.612,1.836,4.896-0.612,4.896
			C165.511,184.872,143.479,182.424,121.447,183.036z"/>
		<path d="M126.343,230.16c-8.568,7.956-17.136,16.523-25.704,24.479c7.956,3.672,17.136,4.896,24.48,6.12
			c17.136,2.448,36.108-1.224,53.244-2.448c11.628-1.224,28.764-0.611,39.779-4.896c1.225-0.612,2.448-0.612,3.061-1.225
			c-17.748-16.523-37.944-37.331-59.976-41.615C144.091,207.516,138.583,217.92,126.343,230.16z"/>
		<path d="M99.416,189.156c-1.836,2.447-4.284,4.896-6.12,7.344c-1.224,0.612-1.836,1.836-3.06,3.06
			c4.896,3.061,9.18,5.509,14.076,8.568C102.475,201.396,100.639,195.275,99.416,189.156z"/>
	</g>
</g>
<g>
</g>
<g>
</g>
<g>
</g>
<g>
</g>
<g>
</g>
<g>
</g>
<g>
</g>
<g>
</g>
<g>
</g>
<g>
</g>
<g>
</g>
<g>
</g>
<g>
</g>
<g>
</g>
<g>
</g>
</svg>
