<?xml version="1.0" encoding="iso-8859-1"?>
<!-- Generator: Adobe Illustrator 18.1.1, SVG Export Plug-In . SVG Version: 6.00 Build 0)  -->
<svg version="1.1" id="Capa_1" xmlns="http://www.w3.org/2000/svg" xmlns:xlink="http://www.w3.org/1999/xlink" x="0px" y="0px"
	 viewBox="0 0 346.831 346.831" style="enable-background:new 0 0 346.831 346.831;" xml:space="preserve">
<g>
	<g id="Layer_5_19_">
		<g>
			<path d="M211.549,204.222l-70.35,7.003c0,0-4.237,0.809-1.509,2.979c9.453,7.517,27.568,21.924,37.81,30.069
				c2.046,1.626,3.911,1.729,5.506-0.276c1.629-2.048,4.208-5.291,4.208-5.291s17.927-22.542,23.902-30.055
				C215.101,203.64,211.549,204.222,211.549,204.222z"/>
			<polygon points="115.819,148.76 93.186,177.22 99.73,182.424 243.345,168.124 262.215,144.396 250.802,135.32 			"/>
			<path d="M146.407,115.837c17.431-1.256,47.492-3.229,65.566-6.521c4.987-0.909,1.124-3.98,1.124-3.98
				s-26.785-21.302-35.234-28.021c-1.401-1.115-3.138-2.625-5.822,0.75c-1.459,1.836-2.444,3.074-3.932,4.944
				c-5.756,7.239-23.025,28.953-23.025,28.953S140.903,116.234,146.407,115.837z"/>
			<path d="M314.801,155.454L306.36,4.132c0.107-2.94-2.131-4.72-4.971-3.954L152.051,26.024c-2.842,0.767-3.459,2.751-1.372,4.412
				l4.178,3.322c2.087,1.66,2.198,5.025,0.247,7.479L41.968,183.498c-1.952,2.454-1.842,5.819,0.247,7.479
				c0,0,17.107,13.605,36.271,28.847l-14.271,17.945c-5.604,7.048-11.917,8.156-19.655,3.354c-1.106-0.686-3.443-2.372-4.925-0.508
				c0,0-4.624,5.813-6.671,8.389c-2.409,3.029,0.548,4.856,1.009,5.099c15.555,10.522,31.882,8.389,43.291-5.956l14.271-17.946
				c13.021,10.354,25.443,20.233,32.666,25.979c2.735,2.174-0.214,5.6-0.214,5.6l-50.891,63.992c-2.438,3.066-2.3,7.274,0.309,9.347
				l13.28,10.563c2.608,2.074,6.739,1.262,9.179-1.804l51.042-64.182c0,0,2.226-3.692,5.189-1.334
				c6.68,5.312,26.72,21.249,26.72,21.249c2.086,1.66,5.389,1.01,7.341-1.443L299.29,155.905c1.952-2.454,5.255-3.105,7.342-1.444
				l4.179,3.322C312.898,159.443,314.693,158.396,314.801,155.454z M185.045,264.511c-1.951,2.454-5.254,3.104-7.342,1.445
				L75.253,184.48c-2.086-1.66-2.197-5.026-0.246-7.479l95.351-119.896c1.952-2.455,5.255-3.104,7.341-1.443l102.45,81.475
				c2.086,1.659,2.198,5.024,0.246,7.479L185.045,264.511z"/>
		</g>
	</g>
</g>
<g>
</g>
<g>
</g>
<g>
</g>
<g>
</g>
<g>
</g>
<g>
</g>
<g>
</g>
<g>
</g>
<g>
</g>
<g>
</g>
<g>
</g>
<g>
</g>
<g>
</g>
<g>
</g>
<g>
</g>
</svg>
