<?xml version="1.0" encoding="iso-8859-1"?>
<!-- Generator: Adobe Illustrator 18.0.0, SVG Export Plug-In . SVG Version: 6.00 Build 0)  -->
<!DOCTYPE svg PUBLIC "-//W3C//DTD SVG 1.1//EN" "http://www.w3.org/Graphics/SVG/1.1/DTD/svg11.dtd">
<svg version="1.1" id="Capa_1" xmlns="http://www.w3.org/2000/svg" xmlns:xlink="http://www.w3.org/1999/xlink" x="0px" y="0px"
	 viewBox="0 0 297 297" style="enable-background:new 0 0 297 297;" xml:space="preserve">
<path d="M104.869,188.766l-17.229,17.228c-3.815,3.815-3.815,10.002,0,13.817c1.908,1.907,4.407,2.861,6.908,2.861
	c2.5,0,5-0.954,6.908-2.861l18.148-18.147c8.442,5.104,18.33,8.047,28.895,8.047c10.563,0,20.452-2.942,28.894-8.047l18.148,18.147
	c1.908,1.907,4.407,2.861,6.908,2.861c2.501,0,5-0.954,6.908-2.861c3.815-3.815,3.815-10.002,0-13.817l-17.227-17.228
	c2.456-3.049,4.596-6.361,6.377-9.885h88.723c5.396,0,9.77-4.375,9.77-9.77c0-5.395-4.374-9.77-9.77-9.77h-21.06v-57.532h21.06
	c5.396,0,9.77-4.375,9.77-9.77c0-5.396-4.374-9.77-9.77-9.77H172.586c-6.744-4.986-15.075-7.941-24.086-7.941
	c-9.012,0-17.343,2.955-24.086,7.941H9.769C4.374,82.27,0,86.644,0,92.039c0,5.395,4.374,9.77,9.769,9.77h21.06v57.532H9.769
	c-5.395,0-9.769,4.375-9.769,9.77c0,5.395,4.374,9.77,9.769,9.77h71.398l42.241-23.107c-0.267-3.157,0.059-6.417,1.065-9.623
	c3.252-10.36,12.73-17.449,23.584-17.64c2.705-0.046,5.393,0.343,7.989,1.159c3.206,1.006,6.064,2.604,8.505,4.628l28.278-14.763
	c-1.176-1.521-2.421-2.987-3.743-4.38c0.002-0.076,0.012-0.151,0.012-0.228c0-4.59-0.776-8.999-2.188-13.118h59.721v57.532h-42.403
	c0.187-1.856,0.284-3.738,0.284-5.644c0-5.875-0.924-11.534-2.61-16.857l-28.311,14.779c0.267,3.158-0.059,6.417-1.065,9.623
	c-3.252,10.36-12.73,17.449-23.584,17.64c-2.705,0.047-5.393-0.344-7.988-1.158c-3.207-1.008-6.066-2.605-8.506-4.628
	L104.869,188.766z M107.913,115.155c-9.548,10.05-15.426,23.618-15.426,38.542c0,1.905,0.097,3.787,0.284,5.644H50.368v-57.532
	h59.721c-1.411,4.119-2.188,8.528-2.188,13.118C107.901,115.004,107.911,115.079,107.913,115.155z"/>
<g>
</g>
<g>
</g>
<g>
</g>
<g>
</g>
<g>
</g>
<g>
</g>
<g>
</g>
<g>
</g>
<g>
</g>
<g>
</g>
<g>
</g>
<g>
</g>
<g>
</g>
<g>
</g>
<g>
</g>
</svg>
