<?xml version="1.0" encoding="iso-8859-1"?>
<!-- Generator: Adobe Illustrator 19.0.0, SVG Export Plug-In . SVG Version: 6.00 Build 0)  -->
<svg version="1.1" id="Layer_1" xmlns="http://www.w3.org/2000/svg" xmlns:xlink="http://www.w3.org/1999/xlink" x="0px" y="0px"
	 viewBox="0 0 512.001 512.001" style="enable-background:new 0 0 512.001 512.001;" xml:space="preserve">
<g>
	<g>
		<g>
			<path d="M298.667,149.334C298.667,66.853,231.814,0,149.333,0S0,66.853,0,149.334c0,75.236,55.628,137.459,128,147.81v193.523
				c0,11.782,9.551,21.333,21.333,21.333c11.782,0,21.333-9.551,21.333-21.333V297.144
				C243.038,286.792,298.667,224.57,298.667,149.334z M149.333,256c-58.917,0-106.667-47.75-106.667-106.667
				S90.417,42.667,149.333,42.667C208.25,42.667,256,90.417,256,149.334S208.25,256,149.333,256z"/>
			<path d="M507.055,413.01l-106.667-128c-0.152-0.182-0.32-0.341-0.477-0.517c-0.272-0.305-0.541-0.612-0.834-0.904
				c-0.292-0.293-0.599-0.562-0.904-0.834c-0.176-0.156-0.335-0.325-0.517-0.477c-0.047-0.039-0.097-0.07-0.144-0.108
				c-0.366-0.3-0.745-0.574-1.126-0.846c-0.201-0.144-0.396-0.297-0.601-0.433c-0.368-0.244-0.749-0.462-1.129-0.682
				c-0.239-0.138-0.473-0.287-0.716-0.415c-0.33-0.174-0.67-0.323-1.007-0.478c-0.305-0.141-0.607-0.292-0.917-0.417
				c-0.279-0.113-0.565-0.203-0.849-0.304c-0.374-0.134-0.747-0.274-1.126-0.386c-0.244-0.072-0.491-0.122-0.737-0.185
				c-0.421-0.108-0.841-0.22-1.266-0.302c-0.248-0.048-0.499-0.073-0.749-0.112c-0.422-0.066-0.843-0.137-1.267-0.177
				c-0.301-0.029-0.604-0.032-0.906-0.048c-0.373-0.019-0.745-0.048-1.117-0.048c-0.373,0-0.745,0.029-1.117,0.048
				c-0.302,0.016-0.605,0.019-0.906,0.048c-0.424,0.04-0.845,0.111-1.267,0.177c-0.25,0.039-0.501,0.065-0.749,0.112
				c-0.425,0.082-0.845,0.194-1.266,0.302c-0.246,0.063-0.494,0.113-0.737,0.185c-0.379,0.112-0.752,0.252-1.126,0.386
				c-0.283,0.101-0.569,0.191-0.849,0.304c-0.31,0.126-0.612,0.276-0.917,0.417c-0.338,0.156-0.677,0.304-1.007,0.478
				c-0.242,0.128-0.477,0.276-0.716,0.415c-0.38,0.219-0.761,0.437-1.129,0.682c-0.204,0.136-0.4,0.289-0.601,0.433
				c-0.381,0.273-0.761,0.546-1.126,0.846c-0.047,0.038-0.097,0.069-0.144,0.108c-0.182,0.152-0.341,0.32-0.517,0.477
				c-0.305,0.272-0.612,0.541-0.904,0.834c-0.293,0.292-0.562,0.599-0.834,0.904c-0.156,0.176-0.325,0.335-0.477,0.517l-106.667,128
				c-7.543,9.051-6.32,22.503,2.731,30.046c9.051,7.543,22.503,6.32,30.046-2.731L320,408.791v81.876
				c0,11.782,9.551,21.333,21.333,21.333c11.782,0,21.333-9.551,21.333-21.333v-128c0-1.543-0.173-3.045-0.484-4.496L384,331.991
				l21.817,26.181c-0.311,1.45-0.484,2.952-0.484,4.496v128c0,11.782,9.551,21.333,21.333,21.333S448,502.449,448,490.667v-81.876
				l26.278,31.534c7.543,9.051,20.995,10.274,30.046,2.731C513.375,435.513,514.598,422.061,507.055,413.01z"/>
		</g>
	</g>
</g>
<g>
</g>
<g>
</g>
<g>
</g>
<g>
</g>
<g>
</g>
<g>
</g>
<g>
</g>
<g>
</g>
<g>
</g>
<g>
</g>
<g>
</g>
<g>
</g>
<g>
</g>
<g>
</g>
<g>
</g>
</svg>
