<?xml version="1.0" encoding="iso-8859-1"?>
<!-- Generator: Adobe Illustrator 19.0.0, SVG Export Plug-In . SVG Version: 6.00 Build 0)  -->
<svg version="1.1" id="Layer_1" xmlns="http://www.w3.org/2000/svg" xmlns:xlink="http://www.w3.org/1999/xlink" x="0px" y="0px"
	 viewBox="0 0 512 512" style="enable-background:new 0 0 512 512;" xml:space="preserve">
<g>
	<g>
		<g>
			<path d="M308.207,108.919c-10.538-5.269-23.353-0.998-28.622,9.541l-29.43,58.86l-21.737-21.737
				c-8.331-8.331-21.839-8.331-30.17,0c-8.331,8.331-8.331,21.839,0,30.17l42.667,42.667c0.033,0.033,0.069,0.059,0.102,0.092
				c0.343,0.339,0.709,0.657,1.077,0.974c0.186,0.161,0.367,0.331,0.557,0.484c0.285,0.229,0.589,0.438,0.889,0.653
				c0.299,0.216,0.594,0.438,0.901,0.636c0.206,0.132,0.424,0.25,0.635,0.376c0.417,0.249,0.835,0.496,1.264,0.714
				c0.041,0.021,0.078,0.047,0.119,0.067c0.154,0.077,0.312,0.132,0.467,0.205c0.446,0.21,0.892,0.414,1.348,0.591
				c0.262,0.102,0.526,0.185,0.79,0.276c0.384,0.132,0.768,0.264,1.157,0.374c0.341,0.096,0.684,0.172,1.028,0.251
				c0.317,0.072,0.632,0.147,0.951,0.205c0.395,0.072,0.79,0.122,1.186,0.171c0.279,0.034,0.557,0.072,0.837,0.095
				c0.411,0.034,0.82,0.049,1.23,0.059c0.278,0.007,0.555,0.016,0.833,0.012c0.392-0.006,0.781-0.029,1.171-0.056
				c0.306-0.021,0.611-0.041,0.915-0.075c0.349-0.039,0.695-0.094,1.041-0.15c0.346-0.056,0.69-0.113,1.033-0.186
				c0.3-0.064,0.597-0.141,0.894-0.218c0.378-0.097,0.754-0.198,1.127-0.317c0.265-0.085,0.526-0.181,0.788-0.275
				c0.386-0.139,0.769-0.282,1.148-0.445c0.258-0.111,0.51-0.234,0.765-0.355c0.36-0.171,0.718-0.344,1.07-0.537
				c0.285-0.156,0.561-0.327,0.839-0.496c0.3-0.183,0.601-0.363,0.894-0.562c0.335-0.227,0.657-0.474,0.98-0.721
				c0.221-0.17,0.446-0.332,0.661-0.512c0.377-0.312,0.736-0.648,1.093-0.988c0.124-0.118,0.257-0.22,0.378-0.342
				c0.033-0.033,0.059-0.069,0.092-0.102c0.339-0.343,0.657-0.709,0.974-1.077c0.161-0.186,0.331-0.367,0.484-0.557
				c0.229-0.285,0.438-0.589,0.653-0.889c0.216-0.299,0.438-0.594,0.636-0.901c0.132-0.206,0.25-0.424,0.376-0.635
				c0.249-0.417,0.496-0.835,0.714-1.264c0.021-0.041,0.047-0.078,0.067-0.119l42.667-85.333
				C323.017,127.002,318.745,114.188,308.207,108.919z"/>
			<path d="M426.667,170.667C426.667,76.41,350.257,0,256,0S85.333,76.41,85.333,170.667c0,87.031,65.146,158.843,149.333,169.342
				v150.658c0,11.782,9.551,21.333,21.333,21.333s21.333-9.551,21.333-21.333V340.008
				C361.521,329.51,426.667,257.698,426.667,170.667z M256,298.667c-70.693,0-128-57.307-128-128s57.307-128,128-128
				s128,57.307,128,128S326.693,298.667,256,298.667z"/>
		</g>
	</g>
</g>
<g>
</g>
<g>
</g>
<g>
</g>
<g>
</g>
<g>
</g>
<g>
</g>
<g>
</g>
<g>
</g>
<g>
</g>
<g>
</g>
<g>
</g>
<g>
</g>
<g>
</g>
<g>
</g>
<g>
</g>
</svg>
