<?xml version="1.0" encoding="iso-8859-1"?>
<!-- Generator: Adobe Illustrator 19.1.0, SVG Export Plug-In . SVG Version: 6.00 Build 0)  -->
<svg version="1.1" id="Capa_1" xmlns="http://www.w3.org/2000/svg" xmlns:xlink="http://www.w3.org/1999/xlink" x="0px" y="0px"
	 viewBox="0 0 470 470" style="enable-background:new 0 0 470 470;" xml:space="preserve">
<g>
	<path style="fill:#FFAD85;" d="M253.784,285.585c-0.068,0-37.499,0-37.499,0c-0.068,0-31.223,0-31.223,0l-17.255,102.086
		l29.445,15.579l34.237-18.114c2.195-1.162,4.821-1.161,7.015-0.001l34.242,18.115l29.448-15.579l-17.255-102.086H253.784z"/>
	<path style="fill:#FF7633;" d="M272.745,419.235c-1.205,0-2.41-0.29-3.507-0.87l-34.242-18.115l-34.237,18.114
		c-2.195,1.162-4.82,1.162-7.016,0l-28.57-15.116l-6.298,37.258C168.857,445.064,195.18,455,235,455
		c40.061,0,66.203-9.905,76.127-14.475l-6.301-37.277l-28.574,15.116C275.155,418.945,273.95,419.235,272.745,419.235z"/>
	<path style="fill:#FF7633;" d="M181.485,270.585h24.111c-14.605-45.276-23.981-130.527-24.458-224.206h-77.722
		C104.905,143.256,135.139,230.263,181.485,270.585z"/>
	<path style="fill:#FF7633;" d="M288.851,46.379c-0.153,30.978-1.243,61.167-3.27,89.826c-0.279,3.951-3.572,6.971-7.474,6.971
		c-0.178,0-0.356-0.006-0.537-0.019c-4.132-0.292-7.244-3.879-6.952-8.011c2.003-28.311,3.08-58.144,3.233-88.768h-77.713
		c0.485,95.824,10.241,182.143,25.287,224.206h27.147c8.158-22.888,15.051-60.083,19.545-105.728
		c0.406-4.122,4.088-7.12,8.199-6.729c4.122,0.406,7.135,4.076,6.729,8.199c-4.36,44.285-10.753,79.966-18.63,104.257h24.098
		c46.346-40.32,76.582-127.327,78.071-224.206H288.851z"/>
	<path style="fill:#FFFFFF;" d="M366.647,31.379v-8.189c0-4.516-3.674-8.189-8.189-8.189H111.542c-4.516,0-8.189,3.674-8.189,8.189
		v8.189H366.647z"/>
	<path style="fill:#081C1F;" d="M358.458,0H111.542C98.755,0,88.353,10.402,88.353,23.189v15.689
		c0,52.479,8.146,103.279,23.559,146.911c14.541,41.164,34.786,73.973,58.71,95.219l-18.481,109.338
		c-0.008,0.041-0.014,0.082-0.021,0.123l-8.958,52.999c-0.517,3.059,0.902,6.119,3.57,7.701C148.028,451.938,179.126,470,235,470
		c55.874,0,86.972-18.062,88.268-18.83c2.668-1.582,4.087-4.644,3.57-7.701l-8.951-52.956c-0.01-0.061-0.019-0.123-0.031-0.184
		L299.377,281.01c23.924-21.247,44.17-54.056,58.711-95.22c15.412-43.632,23.559-94.433,23.559-146.911V23.189
		C381.647,10.402,371.245,0,358.458,0z M311.126,440.525C301.203,445.095,275.06,455,235,455c-39.819,0-66.143-9.936-76.124-14.494
		l6.298-37.258l28.57,15.116c2.195,1.162,4.82,1.162,7.016,0l34.237-18.114l34.242,18.115c1.097,0.58,2.302,0.87,3.507,0.87
		s2.41-0.29,3.507-0.87l28.574-15.116L311.126,440.525z M111.542,15h246.915c4.516,0,8.189,3.674,8.189,8.189v8.189H103.353v-8.189
		C103.353,18.674,107.027,15,111.542,15z M181.139,46.379c0.477,93.679,9.853,178.93,24.458,224.206h-24.111
		c-46.346-40.322-76.58-127.329-78.069-224.206H181.139z M272.745,403.25l-34.242-18.115c-2.193-1.16-4.819-1.161-7.015,0.001
		L197.25,403.25l-29.445-15.579l17.255-102.086h31.155c0.068,0,37.499,0,37.499,0c0.068,0,31.222,0,31.222,0l17.255,102.086
		L272.745,403.25z M288.513,270.585h-24.098c7.877-24.291,14.27-59.972,18.63-104.257c0.406-4.123-2.606-7.793-6.729-8.199
		c-4.111-0.392-7.793,2.606-8.199,6.729c-4.495,45.645-11.387,82.839-19.545,105.728h-27.147
		c-15.045-42.063-24.801-128.382-25.287-224.206h77.713c-0.153,30.624-1.23,60.457-3.233,88.768
		c-0.292,4.132,2.82,7.719,6.952,8.011c0.181,0.013,0.359,0.019,0.537,0.019c3.901,0,7.194-3.02,7.474-6.971
		c2.027-28.659,3.116-58.848,3.27-89.826h77.732C365.095,143.258,334.859,230.265,288.513,270.585z"/>
</g>
<g>
</g>
<g>
</g>
<g>
</g>
<g>
</g>
<g>
</g>
<g>
</g>
<g>
</g>
<g>
</g>
<g>
</g>
<g>
</g>
<g>
</g>
<g>
</g>
<g>
</g>
<g>
</g>
<g>
</g>
</svg>
