<?xml version="1.0" encoding="iso-8859-1"?>
<!-- Generator: Adobe Illustrator 18.1.1, SVG Export Plug-In . SVG Version: 6.00 Build 0)  -->
<svg version="1.1" id="Capa_1" xmlns="http://www.w3.org/2000/svg" xmlns:xlink="http://www.w3.org/1999/xlink" x="0px" y="0px"
	 viewBox="0 0 39.965 39.965" style="enable-background:new 0 0 39.965 39.965;" xml:space="preserve">
<g>
	<path style="fill:#030104;" d="M32.221,26.986h-3.417c2.167-2.274,3.354-5.224,3.354-8.369c0-5.602-4.652-15.408-9.883-18.442
		c-0.344-0.199-0.736-0.213-1.039-0.036c-0.316,0.184-0.499,0.526-0.499,0.941v9.714c0,0.216,0.118,0.417,0.292,0.517
		c0.521,0.349,0.832,0.933,0.832,1.56c0,1.036-0.843,1.879-1.878,1.879s-1.878-0.843-1.878-1.879
		c-0.001-0.699,0.383-1.336,1.001-1.661c0.2-0.104,0.324-0.309,0.324-0.535l-0.01-9.596c-0.001-0.41-0.182-0.754-0.495-0.943
		c-0.301-0.182-0.694-0.181-1.034-0.001C12.556,2.94,7.809,12.807,7.809,18.618c0,3.146,1.186,6.096,3.354,8.369H7.745
		c-0.725,0-1.314,0.589-1.314,1.312v2.979c0,0.725,0.59,1.312,1.314,1.312h4.894v6.06c0,0.725,0.589,1.315,1.313,1.315h12.061
		c0.725,0,1.312-0.591,1.312-1.315v-6.06h4.895c0.725,0,1.314-0.588,1.314-1.312v-2.979C33.536,27.575,32.946,26.986,32.221,26.986z
		 M9.02,18.617c0-5.346,4.42-14.538,9.192-17.279l0.01,8.995c-0.834,0.578-1.327,1.516-1.326,2.537c0,1.703,1.385,3.088,3.088,3.088
		s3.089-1.385,3.089-3.088c0-0.934-0.408-1.795-1.125-2.383l0.004-9.093c4.674,2.97,8.996,12.081,8.996,17.223
		c0,3.233-1.416,6.278-3.89,8.369H12.905C10.435,24.895,9.02,21.85,9.02,18.617z M26.12,38.651c0,0.057-0.049,0.105-0.105,0.105
		h-12.06c-0.057,0-0.104-0.049-0.104-0.105v-6.058h12.27L26.12,38.651L26.12,38.651z M32.325,31.278
		c0,0.057-0.048,0.104-0.104,0.104H7.746c-0.057,0-0.104-0.048-0.104-0.104v-2.979c0-0.057,0.048-0.104,0.104-0.104h24.475
		c0.057,0,0.104,0.048,0.104,0.104V31.278z"/>
</g>
<g>
</g>
<g>
</g>
<g>
</g>
<g>
</g>
<g>
</g>
<g>
</g>
<g>
</g>
<g>
</g>
<g>
</g>
<g>
</g>
<g>
</g>
<g>
</g>
<g>
</g>
<g>
</g>
<g>
</g>
</svg>
