<?xml version="1.0" encoding="iso-8859-1"?>
<!-- Generator: Adobe Illustrator 16.0.0, SVG Export Plug-In . SVG Version: 6.00 Build 0)  -->
<!DOCTYPE svg PUBLIC "-//W3C//DTD SVG 1.1//EN" "http://www.w3.org/Graphics/SVG/1.1/DTD/svg11.dtd">
<svg version="1.1" id="Capa_1" xmlns="http://www.w3.org/2000/svg" xmlns:xlink="http://www.w3.org/1999/xlink" x="0px" y="0px"
	 width="933.311px" height="933.311px" viewBox="0 0 933.311 933.311" style="enable-background:new 0 0 933.311 933.311;"
	 xml:space="preserve">
<g>
	<path d="M913.689,710.193L782.21,580.279c-20.625-20.379-53.866-20.18-74.245,0.445s-20.18,53.867,0.445,74.246l42.25,41.748
		H314.068c0,0,223.412-223.297,313.108-312.947l-0.015,59.349c-0.009,28.995,23.49,52.506,52.485,52.514c0.005,0,0.009,0,0.015,0
		c28.987,0,52.491-23.496,52.5-52.486l0.049-187.354c0.004-13.924-5.524-27.279-15.367-37.127
		c-9.843-9.849-23.195-15.383-37.119-15.387l-184.835-0.048c-0.005,0-0.009,0-0.014,0c-28.988,0-52.492,23.497-52.5,52.486
		c-0.009,28.995,23.49,52.506,52.485,52.514l59.349,0.015l-314.433,314.27V179.011l43.03,42.517
		c10.232,10.11,23.567,15.155,36.898,15.155c13.541,0,27.077-5.207,37.347-15.6c20.379-20.625,20.18-53.866-0.445-74.245
		L223.333,15.155c-9.905-9.787-23.3-15.239-37.215-15.154c-13.923,0.083-27.244,5.695-37.03,15.599L19.177,147.08
		c-20.379,20.625-20.18,53.866,0.445,74.245c20.625,20.379,53.866,20.18,74.245-0.445l40.909-41.403c0,148.963,0,569.728,0,569.742
		c0,0.051,0.004,0.102,0.004,0.152c0.037,12.764,4.892,25.398,13.417,34.902c9.657,10.764,24.588,17.441,39.079,17.445H749.45
		l-41.688,42.191c-20.379,20.625-20.18,53.865,0.445,74.244c10.231,10.111,23.566,15.156,36.897,15.156
		c13.541,0,27.078-5.207,37.347-15.6l131.683-133.271C934.514,763.812,934.314,730.572,913.689,710.193z"/>
</g>
<g>
</g>
<g>
</g>
<g>
</g>
<g>
</g>
<g>
</g>
<g>
</g>
<g>
</g>
<g>
</g>
<g>
</g>
<g>
</g>
<g>
</g>
<g>
</g>
<g>
</g>
<g>
</g>
<g>
</g>
</svg>
