<?xml version="1.0" encoding="iso-8859-1"?>
<!-- Generator: Adobe Illustrator 19.0.0, SVG Export Plug-In . SVG Version: 6.00 Build 0)  -->
<svg version="1.1" id="Capa_1" xmlns="http://www.w3.org/2000/svg" xmlns:xlink="http://www.w3.org/1999/xlink" x="0px" y="0px"
	 viewBox="0 0 58 58" style="enable-background:new 0 0 58 58;" xml:space="preserve">
<g>
	<polygon points="34.026,17.974 28.981,1.355 23.733,17.974 	"/>
	<polygon points="18.404,34.848 12.863,52.395 27.344,41.937 	"/>
	<polygon points="17.372,31.476 21.004,19.974 2.87,19.974 	"/>
	<path d="M55.827,17.974c-4.141-10.062-13.78-17.3-25.159-17.949l5.449,17.949H55.827z"/>
	<polygon points="38.611,33.076 34.633,19.974 23.101,19.974 19.049,32.806 29,40.698 	"/>
	<polygon points="30.668,41.928 44.197,51.478 39.235,35.133 	"/>
	<path d="M14.197,53.899c4.336,2.585,9.398,4.076,14.803,4.076c5.486,0,10.62-1.532,14.999-4.189L29.007,43.203L14.197,53.899z"/>
	<path d="M56.909,21.116L40.92,33.797l5.556,18.302C53.471,46.799,58,38.407,58,28.974C58,26.251,57.615,23.617,56.909,21.116z"/>
	<path d="M27.303,0.028C15.937,0.687,6.311,7.921,2.173,17.974h19.462L27.303,0.028z"/>
	<path d="M1.091,21.116C0.385,23.617,0,26.251,0,28.974c0,9.19,4.302,17.389,10.992,22.706l5.736-18.163L1.091,21.116z"/>
	<polygon points="55.13,19.974 36.724,19.974 40.295,31.74 	"/>
</g>
<g>
</g>
<g>
</g>
<g>
</g>
<g>
</g>
<g>
</g>
<g>
</g>
<g>
</g>
<g>
</g>
<g>
</g>
<g>
</g>
<g>
</g>
<g>
</g>
<g>
</g>
<g>
</g>
<g>
</g>
</svg>
