<?xml version="1.0" encoding="iso-8859-1"?>
<!-- Generator: Adobe Illustrator 19.0.0, SVG Export Plug-In . SVG Version: 6.00 Build 0)  -->
<svg version="1.1" id="Capa_1" xmlns="http://www.w3.org/2000/svg" xmlns:xlink="http://www.w3.org/1999/xlink" x="0px" y="0px"
	 viewBox="0 0 380 380" style="enable-background:new 0 0 380 380;" xml:space="preserve">
<g id="XMLID_859_">
	<rect id="XMLID_860_" y="87.5" style="fill:#50412E;" width="60" height="30"/>
	<polygon id="XMLID_861_" style="fill:#BF3C1A;" points="270,87.5 220,87.5 220,177.5 270,177.5 380,177.5 380,87.5 	"/>
	<path id="XMLID_862_" style="fill:#BF3C1A;" d="M220,207.5v90h80c0-13.808,11.193-25,25-25s25,11.192,25,25h30v-90H270H220z"/>
	<polygon id="XMLID_863_" style="fill:#FF5023;" points="220,177.5 220,87.5 170,87.5 60,87.5 60,117.5 60,177.5 170,177.5 	"/>
	<path id="XMLID_864_" style="fill:#FF5023;" d="M170,207.5H60v90h30c0-13.808,11.193-25,25-25s25,11.192,25,25h80v-90H170z"/>
	<rect id="XMLID_865_" x="270" y="177.5" style="fill:#786145;" width="110" height="30"/>
	<rect id="XMLID_866_" x="60" y="177.5" style="fill:#786145;" width="110" height="30"/>
	<polygon id="XMLID_867_" style="fill:#50412E;" points="170,207.5 220,207.5 270,207.5 270,177.5 220,177.5 170,177.5 	"/>
	<polygon id="XMLID_868_" style="fill:#50412E;" points="270,87.5 270,57.5 170,57.5 170,87.5 220,87.5 	"/>
	<circle id="XMLID_869_" style="fill:#50412E;" cx="115" cy="297.5" r="25"/>
	<circle id="XMLID_870_" style="fill:#50412E;" cx="325" cy="297.5" r="25"/>
</g>
<g>
</g>
<g>
</g>
<g>
</g>
<g>
</g>
<g>
</g>
<g>
</g>
<g>
</g>
<g>
</g>
<g>
</g>
<g>
</g>
<g>
</g>
<g>
</g>
<g>
</g>
<g>
</g>
<g>
</g>
</svg>
