<?xml version="1.0" encoding="iso-8859-1"?>
<!-- Generator: Adobe Illustrator 19.0.0, SVG Export Plug-In . SVG Version: 6.00 Build 0)  -->
<svg version="1.1" id="Layer_1" xmlns="http://www.w3.org/2000/svg" xmlns:xlink="http://www.w3.org/1999/xlink" x="0px" y="0px"
	 viewBox="0 0 512 512" style="enable-background:new 0 0 512 512;" xml:space="preserve">
<g>
	<g>
		<g>
			<path d="M400.021,267.771c-46.72-1.685-100.48-11.307-117.376-20.992c-11.115-6.379-21.568-17.963-30.997-31.424l7.723-2.581
				c5.589-1.877,8.597-7.915,6.741-13.504c-1.856-5.547-7.851-8.64-13.483-6.741l-12.651,4.224
				c-4.309-7.701-8.341-15.552-11.776-23.36l9.835-3.285c5.589-1.877,8.597-7.915,6.741-13.504
				c-1.856-5.547-7.851-8.64-13.483-6.741l-10.859,3.627c-3.584-10.325-6.144-19.776-7.211-27.029
				c-0.427-2.944-2.069-5.568-4.523-7.232c-2.475-1.707-5.504-2.283-8.405-1.621C110.4,138.043,41.045,138.662,32.917,138.662
				c-0.96,0-0.832,0-0.917,0c-5.76,0-10.496,4.565-10.667,10.347c-0.384,13.184-4.651,40.747-9.173,69.931
				C6.187,257.552,0,297.446,0,319.995v64c0,5.888,4.779,10.667,10.667,10.667h490.667c5.888,0,10.667-4.779,10.667-10.645
				C512,321.104,462.805,270.054,400.021,267.771z M21.355,319.995c0-20.885,6.315-61.739,11.904-97.792
				c3.84-24.875,7.275-47.019,8.725-62.315c22.357-0.533,79.531-3.499,152.427-19.157c1.408,5.696,3.499,12.395,5.909,19.435
				l-1.024,0.341c-5.589,1.877-8.597,7.936-6.741,13.504c1.493,4.48,5.653,7.317,10.112,7.317c1.109,0,2.24-0.171,3.371-0.555
				l1.963-0.661c3.328,7.851,7.04,15.851,11.307,23.829c-4.651,2.347-7.104,7.659-5.419,12.736
				c1.493,4.459,5.653,7.296,10.112,7.296c1.109,0,2.24-0.171,3.371-0.555l2.88-0.96c11.648,17.749,25.621,33.493,41.792,42.773
				c22.357,12.843,82.261,22.208,127.232,23.829c31.445,1.131,58.453,17.429,74.837,41.579H21.355V319.995z M21.355,373.328v-21.333
				h463.552c2.432,6.827,4.373,13.888,5.205,21.333H21.355z"/>
			<path d="M96,159.995c-29.397,0-53.333,23.893-53.333,53.333c0,29.419,23.936,53.333,53.333,53.333s53.333-23.936,53.333-53.333
				C149.333,183.888,125.397,159.995,96,159.995z M96,245.328c-17.643,0-32-14.379-32-32c0-17.643,14.357-32,32-32
				c17.643,0,32,14.336,32,32C128,230.95,113.643,245.328,96,245.328z"/>
		</g>
	</g>
</g>
<g>
</g>
<g>
</g>
<g>
</g>
<g>
</g>
<g>
</g>
<g>
</g>
<g>
</g>
<g>
</g>
<g>
</g>
<g>
</g>
<g>
</g>
<g>
</g>
<g>
</g>
<g>
</g>
<g>
</g>
</svg>
