<?xml version="1.0" encoding="iso-8859-1"?>
<!-- Generator: Adobe Illustrator 19.0.0, SVG Export Plug-In . SVG Version: 6.00 Build 0)  -->
<svg version="1.1" id="Layer_1" xmlns="http://www.w3.org/2000/svg" xmlns:xlink="http://www.w3.org/1999/xlink" x="0px" y="0px"
	 viewBox="0 0 511.984 511.984" style="enable-background:new 0 0 511.984 511.984;" xml:space="preserve">
<g>
	<g>
		<path d="M476.88,493.808L320.976,337.221c-0.533-1.323-1.344-2.539-2.411-3.584c-0.064-0.064-6.336-6.464-6.379-14.187
			c-0.043-4.523,2.091-8.853,6.507-13.269l32-32c4.16-4.16,4.16-10.923,0-15.083c-4.16-4.16-10.923-4.16-15.083,0l-32,32
			c-6.123,6.123-9.259,12.181-10.965,17.664l-20.224-20.309l46.251-46.251c4.16-4.16,4.16-10.923,0-15.083
			c-4.16-4.16-10.923-4.16-15.083,0l-46.229,46.229l-16.875-16.96l46.187-46.187c4.16-4.16,4.16-10.923,0-15.083
			c-4.16-4.16-10.923-4.16-15.083,0l-46.144,46.144l-16.875-16.96l46.123-46.123c4.16-4.16,4.16-10.923,0-15.083
			c-4.16-4.16-10.923-4.16-15.083,0l-46.08,46.08l-16.896-16.939l46.037-46.037c4.16-4.16,4.16-10.923,0-15.083
			c-4.16-4.16-10.923-4.16-15.083,0l-46.016,45.995l-16.875-16.939l45.973-45.973c4.16-4.16,4.16-10.923,0-15.083
			c-4.16-4.16-10.923-4.16-15.083,0l-45.931,45.931l-16.896-16.96l45.909-45.909c4.16-4.16,4.16-10.923,0-15.083
			c-4.16-4.16-10.923-4.16-15.083,0l-45.867,45.867L80.848,96.027l45.824-45.824c4.16-4.16,4.16-10.923,0-15.083
			c-4.16-4.16-10.923-4.16-15.083,0L65.787,80.923l-9.344-9.387c-4.16-4.16-4.16-10.923,0-15.083l38.251-38.251
			c4.16-4.16,4.16-10.923,0-15.083c-4.16-4.16-10.923-4.16-15.083,0L41.36,41.371c-12.48,12.48-12.48,32.768-0.021,45.227
			l420.416,422.251c2.069,2.091,4.821,3.136,7.552,3.136c2.709,0,5.44-1.045,7.531-3.093
			C481.019,504.731,481.04,497.968,476.88,493.808z"/>
	</g>
</g>
<g>
</g>
<g>
</g>
<g>
</g>
<g>
</g>
<g>
</g>
<g>
</g>
<g>
</g>
<g>
</g>
<g>
</g>
<g>
</g>
<g>
</g>
<g>
</g>
<g>
</g>
<g>
</g>
<g>
</g>
</svg>
