<?xml version="1.0" encoding="iso-8859-1"?>
<!-- Generator: Adobe Illustrator 19.0.0, SVG Export Plug-In . SVG Version: 6.00 Build 0)  -->
<svg version="1.1" id="Layer_1" xmlns="http://www.w3.org/2000/svg" xmlns:xlink="http://www.w3.org/1999/xlink" x="0px" y="0px"
	 viewBox="0 0 512 512" style="enable-background:new 0 0 512 512;" xml:space="preserve">
<g>
	<g>
		<g>
			<path d="M373.333,202.667H138.667C97.493,202.667,64,236.16,64,277.333S97.493,352,138.667,352s74.667-33.493,74.667-74.667
				c0-20.907-8.683-39.765-22.571-53.333h130.475c-13.888,13.568-22.571,32.427-22.571,53.333c0,41.173,33.493,74.667,74.667,74.667
				C414.507,352,448,318.507,448,277.333S414.507,202.667,373.333,202.667z M192,277.333c0,29.397-23.936,53.333-53.333,53.333
				s-53.333-23.936-53.333-53.333S109.269,224,138.667,224S192,247.936,192,277.333z M373.333,330.667
				c-29.397,0-53.333-23.936-53.333-53.333S343.936,224,373.333,224s53.333,23.936,53.333,53.333S402.731,330.667,373.333,330.667z"
				/>
			<path d="M167.531,248.469c-4.16-4.16-10.923-4.16-15.083,0l-13.781,13.803l-13.781-13.781c-4.16-4.16-10.923-4.16-15.083,0
				s-4.16,10.923,0,15.083l13.781,13.781l-13.781,13.781c-4.16,4.16-4.16,10.923,0,15.083c2.069,2.069,4.8,3.115,7.531,3.115
				c2.731,0,5.461-1.045,7.531-3.115l13.803-13.781l13.781,13.781c2.091,2.069,4.821,3.115,7.552,3.115s5.461-1.045,7.531-3.115
				c4.16-4.16,4.16-10.923,0-15.083l-13.781-13.781l13.781-13.781C171.691,259.392,171.691,252.629,167.531,248.469z"/>
			<path d="M402.197,248.469c-4.16-4.16-10.923-4.16-15.083,0l-13.781,13.803l-13.781-13.781c-4.16-4.16-10.923-4.16-15.083,0
				c-4.16,4.16-4.16,10.923,0,15.083l13.781,13.781l-13.781,13.781c-4.16,4.16-4.16,10.923,0,15.083
				c2.091,2.069,4.821,3.115,7.552,3.115c2.731,0,5.461-1.045,7.531-3.115l13.781-13.781l13.781,13.781
				c2.091,2.069,4.821,3.115,7.552,3.115s5.461-1.045,7.531-3.115c4.16-4.16,4.16-10.923,0-15.083l-13.781-13.781l13.781-13.781
				C406.357,259.392,406.357,252.629,402.197,248.469z"/>
			<path d="M458.667,96H53.333C23.936,96,0,119.936,0,149.333v213.333C0,392.064,23.936,416,53.333,416h405.333
				C488.064,416,512,392.064,512,362.667V149.333C512,119.936,488.064,96,458.667,96z M417.429,117.333L388.971,160h-265.92
				l-28.459-42.667H417.429z M490.667,362.667c0,17.643-14.357,32-32,32H53.333c-17.643,0-32-14.357-32-32V149.333
				c0-17.643,14.357-32,32-32h15.637l39.488,59.243c1.984,2.987,5.312,4.757,8.875,4.757h277.333c3.563,0,6.891-1.771,8.896-4.757
				l39.488-59.243h15.616c17.643,0,32,14.357,32,32V362.667z"/>
		</g>
	</g>
</g>
<g>
</g>
<g>
</g>
<g>
</g>
<g>
</g>
<g>
</g>
<g>
</g>
<g>
</g>
<g>
</g>
<g>
</g>
<g>
</g>
<g>
</g>
<g>
</g>
<g>
</g>
<g>
</g>
<g>
</g>
</svg>
