<?xml version="1.0" encoding="iso-8859-1"?>
<!-- Generator: Adobe Illustrator 19.0.0, SVG Export Plug-In . SVG Version: 6.00 Build 0)  -->
<svg version="1.1" id="Layer_1" xmlns="http://www.w3.org/2000/svg" xmlns:xlink="http://www.w3.org/1999/xlink" x="0px" y="0px"
	 viewBox="0 0 512 512" style="enable-background:new 0 0 512 512;" xml:space="preserve">
<g>
	<g>
		<path d="M428.648,272H83.328C74.736,272,68,278.592,68,287.008v29.328C68,324.828,75.02,332,83.328,332h345.32
			c8.32,0,15.352-7.172,15.352-15.664v-29.328C444,278.592,437.256,272,428.648,272z M436,316.336c0,4.156-3.368,7.664-7.352,7.664
			H83.328c-3.972,0-7.328-3.508-7.328-7.664v-29.328c0-3.928,3.22-7.008,7.328-7.008h345.32c4.12,0,7.352,3.08,7.352,7.008V316.336z
			"/>
	</g>
</g>
<g>
	<g>
		<path d="M156,324h-48c-2.212,0-4,1.792-4,4v180c0,2.208,1.788,4,4,4h48c2.212,0,4-1.792,4-4V328C160,325.792,158.212,324,156,324z
			 M152,504h-40V332h40V504z"/>
	</g>
</g>
<g>
	<g>
		<path d="M400,324h-48c-2.212,0-4,1.792-4,4v180c0,2.208,1.788,4,4,4h48c2.212,0,4-1.792,4-4V328C404,325.792,402.212,324,400,324z
			 M396,504h-40V332h40V504z"/>
	</g>
</g>
<g>
	<g>
		<path d="M352,372H156c-2.212,0-4,1.792-4,4s1.788,4,4,4h196c2.212,0,4-1.792,4-4S354.212,372,352,372z"/>
	</g>
</g>
<g>
	<g>
		<path d="M420,288h-32c-2.212,0-4,1.792-4,4s1.788,4,4,4h32c2.212,0,4-1.792,4-4S422.212,288,420,288z"/>
	</g>
</g>
<g>
	<g>
		<path d="M360,288H88c-2.212,0-4,1.792-4,4s1.788,4,4,4h272c2.212,0,4-1.792,4-4S362.212,288,360,288z"/>
	</g>
</g>
<g>
	<g>
		<path d="M168,132c-2.212,0-4,1.792-4,4v136h-28V136c0-2.208-1.788-4-4-4c-2.212,0-4,1.792-4,4v140c0,2.208,1.788,4,4,4h36
			c2.212,0,4-1.792,4-4V136C172,133.792,170.212,132,168,132z"/>
	</g>
</g>
<g>
	<g>
		<path d="M380,132c-2.212,0-4,1.792-4,4v136h-28V136c0-2.208-1.788-4-4-4c-2.212,0-4,1.792-4,4v140c0,2.208,1.788,4,4,4h36
			c2.212,0,4-1.792,4-4V136C384,133.792,382.212,132,380,132z"/>
	</g>
</g>
<g>
	<g>
		<path d="M272,132c-2.212,0-4,1.792-4,4v136h-28V136c0-2.208-1.788-4-4-4c-2.212,0-4,1.792-4,4v140c0,2.208,1.788,4,4,4h36
			c2.212,0,4-1.792,4-4V136C276,133.792,274.212,132,272,132z"/>
	</g>
</g>
<g>
	<g>
		<path d="M252,16H116c-2.212,0-4,1.792-4,4s1.788,4,4,4h136c2.212,0,4-1.792,4-4S254.212,16,252,16z"/>
	</g>
</g>
<g>
	<g>
		<path d="M344,16h-64c-2.212,0-4,1.792-4,4s1.788,4,4,4h64c2.212,0,4-1.792,4-4S346.212,16,344,16z"/>
	</g>
</g>
<g>
	<g>
		<path d="M388,16h-20c-2.212,0-4,1.792-4,4s1.788,4,4,4h20c2.212,0,4-1.792,4-4S390.212,16,388,16z"/>
	</g>
</g>
<g>
	<g>
		<path d="M396.648,0h-289.32C98.736,0,92,6.592,92,15.008v109.328C92,132.828,99.02,140,107.328,140h289.32
			c8.32,0,15.352-7.172,15.352-15.664V15.008C412,6.592,405.256,0,396.648,0z M404,124.336c0,4.156-3.368,7.664-7.352,7.664h-289.32
			c-3.972,0-7.328-3.508-7.328-7.664V15.008C100,11.08,103.22,8,107.328,8h289.32c4.12,0,7.352,3.08,7.352,7.008V124.336z"/>
	</g>
</g>
<g>
</g>
<g>
</g>
<g>
</g>
<g>
</g>
<g>
</g>
<g>
</g>
<g>
</g>
<g>
</g>
<g>
</g>
<g>
</g>
<g>
</g>
<g>
</g>
<g>
</g>
<g>
</g>
<g>
</g>
</svg>
