<?xml version="1.0" encoding="iso-8859-1"?>
<!-- Generator: Adobe Illustrator 19.0.0, SVG Export Plug-In . SVG Version: 6.00 Build 0)  -->
<svg version="1.1" id="Layer_1" xmlns="http://www.w3.org/2000/svg" xmlns:xlink="http://www.w3.org/1999/xlink" x="0px" y="0px"
	 viewBox="0 0 512 512" style="enable-background:new 0 0 512 512;" xml:space="preserve">
<path style="fill:#6FB0B6;" d="M140.8,409.562c-70.579,0-128-57.421-128-128c0-67.311,52.224-122.65,118.281-127.633
	C142.925,94.605,194.782,51.162,256,51.162s113.075,43.452,124.919,102.767c66.057,4.983,118.281,60.322,118.281,127.633
	c0,70.579-57.421,128-128,128H140.8z"/>
<path style="fill:#FF877F;" d="M256,460.83c-56.465,0-102.4-45.935-102.4-102.4s45.935-102.4,102.4-102.4s102.4,45.935,102.4,102.4
	S312.465,460.83,256,460.83z"/>
<g>
	<path style="fill:#573A32;" d="M303.454,310.985c-5.001-5.001-13.099-5.001-18.099,0L256,340.331l-29.346-29.346
		c-5.001-5.001-13.099-5.001-18.099,0c-5.001,5.001-5.001,13.099,0,18.099l29.346,29.346l-29.346,29.346
		c-5.001,5.001-5.001,13.099,0,18.099c2.5,2.5,5.777,3.746,9.054,3.746c3.277,0,6.554-1.246,9.054-3.746L256,376.529l29.346,29.346
		c2.5,2.5,5.777,3.746,9.054,3.746s6.554-1.246,9.054-3.746c5.001-5.001,5.001-13.099,0-18.099l-29.346-29.346l29.346-29.346
		C308.446,324.083,308.446,315.985,303.454,310.985z"/>
	<path style="fill:#573A32;" d="M391.305,142.187C374.98,81.702,320.162,38.362,256,38.362S137.028,81.711,120.695,142.195
		C52.54,151.974,0,210.743,0,281.562c0,77.636,63.164,140.8,140.8,140.8h19.379c20.659,30.908,55.851,51.277,95.821,51.277
		s75.162-20.369,95.821-51.277H371.2c77.636,0,140.8-63.164,140.8-140.8C512,210.743,459.46,151.974,391.305,142.187z M256,448.03
		c-49.408,0-89.6-40.192-89.6-89.6s40.192-89.6,89.6-89.6s89.6,40.192,89.6,89.6S305.408,448.03,256,448.03z M371.2,396.762
		c-2.091,0-4.446,0-6.665,0c4.241-12.006,6.665-24.866,6.665-38.323c0-63.625-51.575-115.2-115.2-115.2s-115.2,51.575-115.2,115.2
		c0,13.457,2.423,26.317,6.665,38.323c-2.244,0-4.557,0-6.665,0c-63.625,0-115.2-51.575-115.2-115.2s51.575-115.2,115.2-115.2
		c0.435,0,0.845,0.119,1.28,0.128C148.463,108.907,196.719,63.962,256,63.962s107.537,44.945,113.92,102.528
		c0.435-0.009,0.845-0.128,1.28-0.128c63.625,0,115.2,51.575,115.2,115.2S434.825,396.762,371.2,396.762z"/>
</g>
<g>
</g>
<g>
</g>
<g>
</g>
<g>
</g>
<g>
</g>
<g>
</g>
<g>
</g>
<g>
</g>
<g>
</g>
<g>
</g>
<g>
</g>
<g>
</g>
<g>
</g>
<g>
</g>
<g>
</g>
</svg>
