<?xml version="1.0" encoding="iso-8859-1"?>
<!-- Generator: Adobe Illustrator 19.0.0, SVG Export Plug-In . SVG Version: 6.00 Build 0)  -->
<svg version="1.1" id="Layer_1" xmlns="http://www.w3.org/2000/svg" xmlns:xlink="http://www.w3.org/1999/xlink" x="0px" y="0px"
	 viewBox="0 0 512 512" style="enable-background:new 0 0 512 512;" xml:space="preserve">
<path style="fill:#6FB0B6;" d="M98.133,402.125C47.095,384.077,12.8,335.633,12.8,281.6c0-67.311,52.224-122.65,118.281-127.633
	C142.925,94.652,194.782,51.2,256,51.2s113.075,43.452,124.919,102.767C446.976,158.95,499.2,214.289,499.2,281.6
	c0,54.05-34.295,102.494-85.333,120.542L98.133,402.125z"/>
<path style="fill:#C5DFE2;" d="M115.2,460.8V256h281.6v204.8H115.2z"/>
<polygon style="fill:#FEDEA1;" points="227.021,301.508 308.053,358.4 226.842,415.113 "/>
<g>
	<path style="fill:#573A32;" d="M224.068,419.695c3.618,1.809,7.543,2.705,11.443,2.705c5.444,0,10.846-1.732,15.36-5.12l51.2-38.4
		c6.443-4.838,10.24-12.425,10.24-20.48c0-8.055-3.797-15.642-10.24-20.48l-51.2-38.4c-4.514-3.388-9.924-5.12-15.36-5.12
		c-3.9,0-7.825,0.887-11.443,2.705c-8.67,4.335-14.148,13.201-14.148,22.895v76.8C209.92,406.494,215.398,415.36,224.068,419.695z
		 M235.52,320l51.2,38.4l-51.2,38.4L235.52,320L235.52,320z"/>
	<path style="fill:#573A32;" d="M391.305,142.234C374.98,81.749,320.162,38.4,256,38.4S137.028,81.749,120.695,142.234
		C52.54,152.013,0,210.782,0,281.6c0,64.324,43.383,118.63,102.4,135.398V448c0,14.14,11.46,25.6,25.6,25.6h256
		c14.14,0,25.6-11.46,25.6-25.6v-31.104C468.6,400.128,512,345.907,512,281.6C512,210.782,459.46,152.013,391.305,142.234z M384,448
		H128V268.8h256V448z M409.6,390.076V268.8c0-14.14-11.46-25.6-25.6-25.6H128c-14.14,0-25.6,11.46-25.6,25.6v121.259
		C57.685,374.246,25.6,331.733,25.6,281.6c0-63.625,51.575-115.2,115.2-115.2c0.435,0,0.845,0.119,1.28,0.128
		C148.463,108.945,196.719,64,256,64s107.537,44.945,113.92,102.528c0.435-0.009,0.845-0.128,1.28-0.128
		c63.625,0,115.2,51.575,115.2,115.2C486.4,331.733,454.315,374.263,409.6,390.076z"/>
</g>
<g>
</g>
<g>
</g>
<g>
</g>
<g>
</g>
<g>
</g>
<g>
</g>
<g>
</g>
<g>
</g>
<g>
</g>
<g>
</g>
<g>
</g>
<g>
</g>
<g>
</g>
<g>
</g>
<g>
</g>
</svg>
