<?xml version="1.0" encoding="iso-8859-1"?>
<!-- Generator: Adobe Illustrator 16.0.0, SVG Export Plug-In . SVG Version: 6.00 Build 0)  -->
<!DOCTYPE svg PUBLIC "-//W3C//DTD SVG 1.1//EN" "http://www.w3.org/Graphics/SVG/1.1/DTD/svg11.dtd">
<svg version="1.1" id="Capa_1" xmlns="http://www.w3.org/2000/svg" xmlns:xlink="http://www.w3.org/1999/xlink" x="0px" y="0px"
	 width="32px" height="32px" viewBox="0 0 32 32" style="enable-background:new 0 0 32 32;" xml:space="preserve">
<g>
	<path d="M32,13.876v-1.245H1.964v-1.111H0v5.173h1.581v0.013h10.634v-2.827h2.9c0.222,0.61,0.486,1.619,0.163,2.367
		c-0.329,0.76-1.078,1.846-1.583,2.541c-0.117-0.396-0.47-0.69-0.904-0.69c-0.528,0-0.958,0.43-0.958,0.959
		c0,0.526,0.43,0.956,0.958,0.956c0.279,0,0.525-0.122,0.701-0.312l0.001,0.002c0.065-0.084,1.601-2.062,2.138-3.3
		c0.353-0.812,0.124-1.844-0.104-2.521h2.46c-0.233,0.543-0.739,1.938-0.286,2.988c0.536,1.238,2.07,3.215,2.139,3.299v-0.002
		c0.176,0.191,0.422,0.314,0.701,0.314c0.528,0,0.959-0.431,0.959-0.959c0-0.527-0.431-0.957-0.959-0.957
		c-0.436,0-0.787,0.295-0.902,0.69c-0.508-0.694-1.256-1.778-1.584-2.54c-0.44-1.019,0.207-2.524,0.353-2.837H32L32,13.876z
		 M1.654,15c-0.313,0-0.566-0.254-0.566-0.564c0-0.313,0.253-0.565,0.566-0.565c0.312,0,0.566,0.252,0.566,0.565
		C2.223,14.749,1.967,15,1.654,15z M11.45,15.938H5.814v-1.916h5.637L11.45,15.938L11.45,15.938z"/>
</g>
<g>
</g>
<g>
</g>
<g>
</g>
<g>
</g>
<g>
</g>
<g>
</g>
<g>
</g>
<g>
</g>
<g>
</g>
<g>
</g>
<g>
</g>
<g>
</g>
<g>
</g>
<g>
</g>
<g>
</g>
</svg>
