<?xml version="1.0" encoding="iso-8859-1"?>
<!-- Generator: Adobe Illustrator 19.0.0, SVG Export Plug-In . SVG Version: 6.00 Build 0)  -->
<svg version="1.1" id="Layer_1" xmlns="http://www.w3.org/2000/svg" xmlns:xlink="http://www.w3.org/1999/xlink" x="0px" y="0px"
	 viewBox="0 0 503.75 503.75" style="enable-background:new 0 0 503.75 503.75;" xml:space="preserve">
<g>
	<g>
		<g>
			<path d="M419.392,366.903c-1.066-3.55-4.331-5.984-8.041-5.984h-0.285c0.109-2.795,0.285-5.565,0.285-8.393
				c0-8.066-0.42-16.552-1.049-25.18H93.45c-0.621,8.628-1.049,17.114-1.049,25.18c0,2.829,0.185,5.598,0.285,8.393h-0.285
				c-3.71,0-6.975,2.434-8.041,5.984c-11.591,38.727-11.6,83.305,0,122.309c0.965,3.24,3.777,5.59,7.143,5.951
				c53.307,5.724,106.941,8.586,160.516,8.586c53.584,0,107.126-2.862,160.239-8.586c3.357-0.361,6.178-2.711,7.143-5.951
				C430.984,450.175,430.984,405.589,419.392,366.903z M404.813,479.073c-101.351,10.525-204.17,10.525-305.865,0
				c-8.62-32.617-8.687-68.927-0.185-101.368h2.602h301.031h2.594C413.483,410.121,413.425,446.431,404.813,479.073z"/>
			<circle cx="251.879" cy="33.574" r="8.393"/>
			<circle cx="226.698" cy="50.361" r="8.393"/>
			<circle cx="277.059" cy="50.361" r="8.393"/>
			<circle cx="251.879" cy="67.148" r="8.393"/>
			<circle cx="277.059" cy="83.934" r="8.393"/>
			<circle cx="226.698" cy="83.934" r="8.393"/>
			<circle cx="251.879" cy="100.721" r="8.393"/>
			<path d="M389.617,226.623H114.144c-3.735,10.92-7.076,22.1-9.904,33.574h295.29C396.692,248.731,393.352,237.543,389.617,226.623
				z"/>
			<path d="M368.153,176.262H135.604c-5.598,10.441-10.735,21.705-15.444,33.574h263.428
				C378.888,197.976,373.751,186.712,368.153,176.262z"/>
			<path d="M403.264,276.984h-302.76c-2.266,11.18-4.088,22.385-5.389,33.574h313.529
				C407.335,299.369,405.531,288.164,403.264,276.984z"/>
			<path d="M356.444,156.445c-15.318-23.376-32.13-40.163-50.075-50.21c7.932-11.029,12.657-24.5,12.657-39.088
				C319.026,30.124,288.902,0,251.879,0c-37.023,0-67.148,30.124-67.148,67.148c0,14.588,4.725,28.059,12.657,39.088
				c-17.937,10.047-34.757,26.834-50.1,50.243c-0.638,0.99-1.259,2.006-1.897,2.996h212.967
				C357.712,158.468,357.099,157.453,356.444,156.445z M285.88,104.196l-0.504,0.436c-4.818,4.314-10.341,7.63-16.753,9.946
				c-2.61,0.923-5.238,1.603-7.881,2.098c-0.361,0.067-0.722,0.109-1.083,0.168c-2.35,0.378-4.7,0.596-7.076,0.63
				c-0.235,0-0.47,0.034-0.705,0.034c-0.101,0-0.201-0.017-0.311-0.017c-2.568-0.017-5.154-0.243-7.756-0.688
				c-0.185-0.034-0.378-0.059-0.562-0.092c-2.795-0.504-5.607-1.242-8.461-2.249c-6.052-2.199-11.566-5.498-16.779-10.148
				c-10.106-9.216-16.493-22.444-16.493-37.166c0-27.774,22.587-50.361,50.361-50.361c27.774,0,50.361,22.587,50.361,50.361
				C302.239,81.811,295.911,94.98,285.88,104.196z"/>
		</g>
	</g>
</g>
<g>
</g>
<g>
</g>
<g>
</g>
<g>
</g>
<g>
</g>
<g>
</g>
<g>
</g>
<g>
</g>
<g>
</g>
<g>
</g>
<g>
</g>
<g>
</g>
<g>
</g>
<g>
</g>
<g>
</g>
</svg>
