<?xml version="1.0" encoding="iso-8859-1"?>
<!-- Generator: Adobe Illustrator 19.0.0, SVG Export Plug-In . SVG Version: 6.00 Build 0)  -->
<svg version="1.1" id="Layer_1" xmlns="http://www.w3.org/2000/svg" xmlns:xlink="http://www.w3.org/1999/xlink" x="0px" y="0px"
	 viewBox="0 0 512 512" style="enable-background:new 0 0 512 512;" xml:space="preserve">
<g>
	<g>
		<g>
			<path d="M68.267,170.667H0V230.4h59.733v-17.067c0-14.114,11.486-25.6,25.6-25.6h341.333c14.114,0,25.6,11.486,25.6,25.6V230.4
				H512v-59.733h-68.267H68.267z"/>
			<path d="M426.667,204.8H85.333c-4.702,0-8.533,3.831-8.533,8.533V230.4h358.4v-17.067C435.2,208.631,431.369,204.8,426.667,204.8
				z"/>
			<path d="M486.4,76.8H25.6C11.486,76.8,0,88.286,0,102.4v51.2h59.733v-17.067c0-14.114,11.486-25.6,25.6-25.6h341.333
				c14.114,0,25.6,11.486,25.6,25.6V153.6H512v-51.2C512,88.286,500.514,76.8,486.4,76.8z"/>
			<path d="M68.267,247.467H0V409.6c0,14.114,11.486,25.6,25.6,25.6h460.8c14.114,0,25.6-11.486,25.6-25.6V247.467h-68.267H68.267z
				 M273.067,392.533h-34.133c-4.71,0-8.533-3.823-8.533-8.533s3.823-8.533,8.533-8.533h34.133c4.71,0,8.533,3.823,8.533,8.533
				S277.777,392.533,273.067,392.533z"/>
			<path d="M426.667,128H85.333c-4.702,0-8.533,3.831-8.533,8.533V153.6h358.4v-17.067C435.2,131.831,431.369,128,426.667,128z"/>
		</g>
	</g>
</g>
<g>
</g>
<g>
</g>
<g>
</g>
<g>
</g>
<g>
</g>
<g>
</g>
<g>
</g>
<g>
</g>
<g>
</g>
<g>
</g>
<g>
</g>
<g>
</g>
<g>
</g>
<g>
</g>
<g>
</g>
</svg>
