<?xml version="1.0" encoding="iso-8859-1"?>
<!-- Generator: Adobe Illustrator 19.0.0, SVG Export Plug-In . SVG Version: 6.00 Build 0)  -->
<svg version="1.1" id="Layer_1" xmlns="http://www.w3.org/2000/svg" xmlns:xlink="http://www.w3.org/1999/xlink" x="0px" y="0px"
	 viewBox="0 0 512 512" style="enable-background:new 0 0 512 512;" xml:space="preserve">
<g>
	<g>
		<rect x="318.578" y="335.644" width="34.133" height="17.067"/>
	</g>
</g>
<g>
	<g>
		<rect x="318.578" y="164.978" width="34.133" height="17.067"/>
	</g>
</g>
<g>
	<g>
		<path d="M412.444,167.825v-34.136c0-10.978-8.933-19.911-19.911-19.911h-82.489V73.956h25.6V56.889h-42.667V0h-73.956v56.889
			h-42.667v17.067h25.6v39.822h-82.489c-10.978,0-19.911,8.933-19.911,19.911V512h312.889V196.27h-17.067v190.574h-76.8v17.067h76.8
			v28.444H116.622v-99.699l34.133-15.17v21.002c0,8.703,6.643,31.289,36.978,31.289h36.978V264.533h-17.067v88.178h-19.911
			c-8.381,0-14.217-2.321-17.345-6.897c-2.321-3.396-2.549-7.072-2.566-7.417v-110.71c2.996-3.648,9.767-11.423,19.008-19.205
			c11.241-9.465,28.418-20.748,46.414-20.748c32.561,0,42.519,37.474,42.921,39.047l1.617,6.464h72.084v19.911
			c0,10.937-4.317,19.455-12.828,25.314c-5.794,3.988-11.806,5.565-13.623,5.974h-58.882v116.622H281.6v-99.556h43.373l0.696-0.116
			c14.272-2.379,41.264-15.523,41.264-48.24v-36.978h-76.298c-1.826-4.902-4.958-11.977-9.826-19.057
			c-11.898-17.307-28.345-26.454-47.565-26.454c-43.588,0-79.285,46.927-80.782,48.924l-1.707,2.276v76.943l-34.133,15.17V133.689
			c0-1.542,1.303-2.844,2.844-2.844h142.222v-17.067h-42.667V73.956h73.956v56.889h99.556c1.542,0,2.844,1.303,2.844,2.844v34.136
			H412.444z M395.378,449.422v45.511H116.622v-45.511H395.378z M275.911,56.889h-39.822V17.067h39.822V56.889z"/>
	</g>
</g>
<g>
</g>
<g>
</g>
<g>
</g>
<g>
</g>
<g>
</g>
<g>
</g>
<g>
</g>
<g>
</g>
<g>
</g>
<g>
</g>
<g>
</g>
<g>
</g>
<g>
</g>
<g>
</g>
<g>
</g>
</svg>
