<?xml version="1.0" encoding="iso-8859-1"?>
<!-- Generator: Adobe Illustrator 19.0.0, SVG Export Plug-In . SVG Version: 6.00 Build 0)  -->
<svg version="1.1" id="Layer_1" xmlns="http://www.w3.org/2000/svg" xmlns:xlink="http://www.w3.org/1999/xlink" x="0px" y="0px"
	 viewBox="0 0 512 512" style="enable-background:new 0 0 512 512;" xml:space="preserve">
<g>
	<g>
		<path d="M422.268,166.268C422.268,74.919,347.93,0.331,256.528,0H256c-33.852,0-66.436,10.127-94.227,29.285l8.988,13.038
			C195.896,24.994,225.373,15.835,256,15.835h0.499c80.018,0.29,145.593,63.518,149.725,142.516h-34.1v15.835h34.101
			c-3.995,76.661-65.647,138.313-142.307,142.308v-52.898c50.155-4.044,89.732-46.149,89.732-97.328
			c0-53.844-43.805-97.65-97.649-97.65c-53.844,0-97.649,43.805-97.649,97.65c0,51.179,39.577,93.283,89.732,97.328v52.898
			c-76.661-3.995-138.313-65.647-142.307-142.308h34.101v-15.835h-34.097c2.07-38.846,19.298-75.803,47.982-102.402l-10.767-11.611
			c-33.849,31.387-53.263,75.83-53.263,121.931c0,89.026,70.333,161.928,158.351,166.075v26.994
			c-38.496,3.975-68.619,36.598-68.619,76.128C179.464,477.667,213.797,512,256,512s76.536-34.334,76.536-76.536
			c0-39.529-30.122-72.152-68.619-76.128v-26.994C351.936,328.196,422.268,255.294,422.268,166.268z M316.701,435.464
			c0,33.471-27.23,60.701-60.701,60.701s-60.701-27.23-60.701-60.701s27.23-60.701,60.701-60.701S316.701,401.993,316.701,435.464z
			 M248.082,219.052v28.641c-41.411-3.997-73.897-38.984-73.897-81.425c0-45.112,36.701-81.814,81.814-81.814
			c45.112,0,81.814,36.702,81.814,81.814c0,42.441-32.486,77.428-73.897,81.425v-28.641H248.082z"/>
	</g>
</g>
<g>
	<g>
		<path d="M228.738,414.645c-6.55,8.586-8.632,19.629-5.711,30.3l15.273-4.183c-1.63-5.953-0.555-11.817,3.027-16.512
			c3.521-4.615,8.869-7.261,14.673-7.261v-15.835C245.216,401.155,235.28,406.072,228.738,414.645z"/>
	</g>
</g>
<g>
	<g>
		<path d="M274.474,435.464c0,5.804-2.647,11.151-7.261,14.673c-4.695,3.583-10.559,4.658-16.512,3.027l-4.183,15.273
			c3.166,0.867,6.364,1.293,9.521,1.293c7.485,0,14.739-2.396,20.779-7.003c8.574-6.543,13.49-16.479,13.49-27.263H274.474z"/>
	</g>
</g>
<g>
	<g>
		<rect x="248.082" y="29.031" width="15.835" height="26.392"/>
	</g>
</g>
<g>
</g>
<g>
</g>
<g>
</g>
<g>
</g>
<g>
</g>
<g>
</g>
<g>
</g>
<g>
</g>
<g>
</g>
<g>
</g>
<g>
</g>
<g>
</g>
<g>
</g>
<g>
</g>
<g>
</g>
</svg>
