<?xml version="1.0" encoding="iso-8859-1"?>
<!-- Generator: Adobe Illustrator 19.0.0, SVG Export Plug-In . SVG Version: 6.00 Build 0)  -->
<svg version="1.1" id="Layer_1" xmlns="http://www.w3.org/2000/svg" xmlns:xlink="http://www.w3.org/1999/xlink" x="0px" y="0px"
	 viewBox="0 0 512 512" style="enable-background:new 0 0 512 512;" xml:space="preserve">
<g>
	<g>
		<path d="M413.483,128H251.044c7.371-12.755,21.145-21.333,36.956-21.333c47.153,0,85.333-38.181,85.333-85.333
			C373.333,9.551,363.782,0,352,0s-21.333,9.551-21.333,21.333C330.667,44.922,311.589,64,288,64c-39.785,0-73.183,27.182-82.649,64
			H98.517c-48.518,0-87.851,39.333-87.851,87.851V320v170.667C10.667,502.449,20.218,512,32,512h448
			c11.782,0,21.333-9.551,21.333-21.333V320V215.851C501.333,167.333,462.001,128,413.483,128z M53.333,215.851
			c0-24.954,20.23-45.184,45.184-45.184h314.965c24.954,0,45.184,20.23,45.184,45.184v82.816H53.333V215.851z M458.667,469.333
			H53.333v-128h21.333v85.333C74.667,438.449,84.218,448,96,448c11.782,0,21.333-9.551,21.333-21.333v-85.333h21.333v85.333
			c0,11.782,9.551,21.333,21.333,21.333c11.782,0,21.333-9.551,21.333-21.333v-85.333h21.333v85.333
			c0,11.782,9.551,21.333,21.333,21.333c11.782,0,21.333-9.551,21.333-21.333v-85.333h21.333v85.333
			c0,11.782,9.551,21.333,21.333,21.333s21.333-9.551,21.333-21.333v-85.333h21.333v85.333c0,11.782,9.551,21.333,21.333,21.333
			s21.333-9.551,21.333-21.333v-85.333h21.333v85.333c0,11.782,9.551,21.333,21.333,21.333s21.333-9.551,21.333-21.333v-85.333
			h21.333V469.333z"/>
	</g>
</g>
<g>
</g>
<g>
</g>
<g>
</g>
<g>
</g>
<g>
</g>
<g>
</g>
<g>
</g>
<g>
</g>
<g>
</g>
<g>
</g>
<g>
</g>
<g>
</g>
<g>
</g>
<g>
</g>
<g>
</g>
</svg>
