<?xml version="1.0" encoding="iso-8859-1"?>
<!-- Generator: Adobe Illustrator 17.1.0, SVG Export Plug-In . SVG Version: 6.00 Build 0)  -->
<!DOCTYPE svg PUBLIC "-//W3C//DTD SVG 1.1//EN" "http://www.w3.org/Graphics/SVG/1.1/DTD/svg11.dtd">
<svg version="1.1" id="Capa_1" xmlns="http://www.w3.org/2000/svg" xmlns:xlink="http://www.w3.org/1999/xlink" x="0px" y="0px"
	 viewBox="0 0 294 294" style="enable-background:new 0 0 294 294;" xml:space="preserve">
<path d="M279.333,87.632H147v-1.756c0-40.532-32.967-73.508-73.5-73.508S0,45.344,0,85.876v12.701c0,1.004,0,2.024,0,3.055v150
	c0,16.569,13.765,30,30.333,30h87c16.568,0,29.667-13.431,29.667-30v-33h132.333c8.284,0,14.667-6.716,14.667-15v-101
	C294,94.348,287.618,87.632,279.333,87.632z M109.352,194.48c-7.583,0-13.73-6.147-13.73-13.73c0-7.583,6.147-13.73,13.73-13.73
	s13.73,6.147,13.73,13.73C123.082,188.333,116.935,194.48,109.352,194.48z M73.995,147.097c-28.047,0-50.784-22.736-50.784-50.784
	c0-28.047,22.737-50.784,50.784-50.784s50.784,22.737,50.784,50.784C124.778,124.36,102.042,147.097,73.995,147.097z M260,174.632
	c0,5.523-4.477,10-10,10h-78c-5.523,0-10-4.477-10-10v-43c0-5.523,4.477-10,10-10h78c5.523,0,10,4.477,10,10V174.632z"/>
<g>
</g>
<g>
</g>
<g>
</g>
<g>
</g>
<g>
</g>
<g>
</g>
<g>
</g>
<g>
</g>
<g>
</g>
<g>
</g>
<g>
</g>
<g>
</g>
<g>
</g>
<g>
</g>
<g>
</g>
</svg>
