<?xml version="1.0" encoding="iso-8859-1"?>
<!-- Generator: Adobe Illustrator 19.0.0, SVG Export Plug-In . SVG Version: 6.00 Build 0)  -->
<svg version="1.1" id="Layer_1" xmlns="http://www.w3.org/2000/svg" xmlns:xlink="http://www.w3.org/1999/xlink" x="0px" y="0px"
	 viewBox="0 0 512.481 512.481" style="enable-background:new 0 0 512.481 512.481;" xml:space="preserve">
<g>
	<g>
		<path d="M512.481,142.5h-49.739l9.069-13.218c16.088-5.968,29.235-18.469,35.882-34.437c13.175-31.658-1.86-68.136-33.518-81.312
			c-15.335-6.381-32.239-6.411-47.597-0.081c-15.358,6.331-27.331,18.263-33.714,33.6c-6.162,14.804-6.271,31.471-0.595,46.27
			l-29.483,49.179H0v84.96h28.096c-0.023,1.319-0.048,2.638-0.048,3.951c0,85.739,47.54,160.573,117.637,199.561v72.783h221.11
			v-72.783c70.097-38.988,117.637-113.822,117.637-199.561c0-1.313-0.025-2.632-0.048-3.951h28.096V142.5z M430.638,94.263
			l-5.093-8.567c-4.708-7.919-5.383-17.328-1.851-25.813c2.955-7.101,8.499-12.627,15.611-15.559
			c7.111-2.933,14.939-2.918,22.041,0.038c14.659,6.101,21.621,22.992,15.521,37.652c-3.532,8.485-10.683,14.636-19.619,16.876
			l-6.131,1.537l-28.87,42.073H401.72L430.638,94.263z M333.403,470.362H179.078v-10.959h67.994c3.043,0.12,6.096,0.2,9.168,0.2
			c3.072,0,6.125-0.079,9.168-0.2h67.994V470.362z M264.834,426.011h-17.189c-103.439-4.515-186.205-90.068-186.205-194.6
			c0-1.223,0.011-2.449,0.034-3.678h389.53c0.023,1.229,0.034,2.454,0.034,3.678C451.04,335.943,368.275,421.496,264.834,426.011z
			 M479.089,194.068H33.392v-18.175h309.374h97.063h39.259V194.068z"/>
	</g>
</g>
<g>
</g>
<g>
</g>
<g>
</g>
<g>
</g>
<g>
</g>
<g>
</g>
<g>
</g>
<g>
</g>
<g>
</g>
<g>
</g>
<g>
</g>
<g>
</g>
<g>
</g>
<g>
</g>
<g>
</g>
</svg>
