<?xml version="1.0" encoding="iso-8859-1"?>
<!-- Generator: Adobe Illustrator 19.0.0, SVG Export Plug-In . SVG Version: 6.00 Build 0)  -->
<svg version="1.1" id="Layer_1" xmlns="http://www.w3.org/2000/svg" xmlns:xlink="http://www.w3.org/1999/xlink" x="0px" y="0px"
	 viewBox="0 0 455 455" style="enable-background:new 0 0 455 455;" xml:space="preserve">
<path d="M332.326,60.788h-44.038C288.289,27.216,261.073,0,227.5,0s-60.788,27.216-60.788,60.788h-44.038
	c0,31.021-25.102,56.122-56.122,56.122V455H212.5V320.263h30V455h145.948V116.91C357.428,116.91,332.326,91.809,332.326,60.788z
	 M162.025,385h-30v-64.737h30V385z M162.025,279.763h-30v-64.737h30V279.763z M242.5,279.763h-30v-64.737h30V279.763z
	 M242.5,174.526h-30v-64.737h30V174.526z M322.975,385h-30v-64.737h30V385z M322.975,279.763h-30v-64.737h30V279.763z"/>
<g>
</g>
<g>
</g>
<g>
</g>
<g>
</g>
<g>
</g>
<g>
</g>
<g>
</g>
<g>
</g>
<g>
</g>
<g>
</g>
<g>
</g>
<g>
</g>
<g>
</g>
<g>
</g>
<g>
</g>
</svg>
