<?xml version="1.0" encoding="iso-8859-1"?>
<!-- Generator: Adobe Illustrator 19.0.0, SVG Export Plug-In . SVG Version: 6.00 Build 0)  -->
<svg version="1.1" id="Layer_1" xmlns="http://www.w3.org/2000/svg" xmlns:xlink="http://www.w3.org/1999/xlink" x="0px" y="0px"
	 viewBox="0 0 512 512" style="enable-background:new 0 0 512 512;" xml:space="preserve">
<g>
	<g>
		<path d="M160,377.6c-10.667-6.4-23.467-4.267-29.867,6.4l-42.667,64c-6.4,10.667-4.267,23.467,6.4,29.867
			c10.667,4.267,23.467,2.133,29.867-6.4l42.667-64C172.8,396.8,170.667,384,160,377.6z"/>
	</g>
</g>
<g>
	<g>
		<path d="M422.4,445.867l-42.667-64c-6.4-10.667-19.2-12.8-29.867-6.4c-10.667,6.4-12.8,19.2-6.4,29.867l42.667,64
			c6.4,10.667,19.2,12.8,29.867,6.4C426.667,469.333,428.8,456.533,422.4,445.867z"/>
	</g>
</g>
<g>
	<g>
		<path d="M490.667,138.667H21.333C8.533,138.667,0,147.2,0,160v106.667C0,349.867,66.133,416,149.333,416h213.333
			C445.867,416,512,349.867,512,266.667V160C512,147.2,503.467,138.667,490.667,138.667z M469.333,266.667
			c0,57.6-49.067,106.667-106.667,106.667H149.333c-57.6,0-106.667-49.067-106.667-106.667v-85.333h426.667V266.667z"/>
	</g>
</g>
<g>
	<g>
		<path d="M256,288H85.333C72.533,288,64,296.533,64,309.333V358.4c0,32,25.6,57.6,57.6,57.6H256c12.8,0,21.333-8.533,21.333-21.333
			v-85.333C277.333,296.533,268.8,288,256,288z M234.667,373.333H121.6c-8.533,0-14.933-6.4-14.933-14.933v-27.733h128V373.333z"/>
	</g>
</g>
<g>
	<g>
		<path d="M426.667,288H256c-12.8,0-21.333,8.533-21.333,21.333v85.333c0,12.8,8.533,21.333,21.333,21.333h134.4
			c32,0,57.6-25.6,57.6-57.6v-49.067C448,296.533,439.467,288,426.667,288z M405.333,358.4c0,8.533-6.4,14.933-14.933,14.933
			H277.333v-42.667h128V358.4z"/>
	</g>
</g>
<g>
	<g>
		<path d="M405.333,32H106.667c-12.8,0-21.333,8.533-21.333,21.333v256c0,12.8,8.533,21.333,21.333,21.333h298.667
			c12.8,0,21.333-8.533,21.333-21.333v-256C426.667,40.533,418.133,32,405.333,32z M384,288H128V74.667h256V288z"/>
	</g>
</g>
<g>
	<g>
		<polygon points="98.133,98.133 12.8,140.8 29.867,179.2 115.2,136.533 		"/>
	</g>
</g>
<g>
	<g>
		<polygon points="413.867,98.133 396.8,136.533 482.133,179.2 499.2,140.8 		"/>
	</g>
</g>
<g>
</g>
<g>
</g>
<g>
</g>
<g>
</g>
<g>
</g>
<g>
</g>
<g>
</g>
<g>
</g>
<g>
</g>
<g>
</g>
<g>
</g>
<g>
</g>
<g>
</g>
<g>
</g>
<g>
</g>
</svg>
