<?xml version="1.0" encoding="iso-8859-1"?>
<!-- Generator: Adobe Illustrator 19.0.0, SVG Export Plug-In . SVG Version: 6.00 Build 0)  -->
<svg version="1.1" id="Capa_1" xmlns="http://www.w3.org/2000/svg" xmlns:xlink="http://www.w3.org/1999/xlink" x="0px" y="0px"
	 viewBox="0 0 489.8 489.8" style="enable-background:new 0 0 489.8 489.8;" xml:space="preserve">
<g>
	<path d="M382.3,352.5c0-75.7-61.6-137.4-137.4-137.4c-75.7,0-137.4,61.6-137.4,137.4s61.7,137.3,137.4,137.3
		S382.3,428.2,382.3,352.5z M244.9,458.3c-58.4,0-105.9-47.5-105.9-105.9s47.5-105.9,105.9-105.9S350.8,294,350.8,352.4
		S303.3,458.3,244.9,458.3z M321.5,352.5c0,42.3-34.4,76.6-76.6,76.6c-42.3,0-76.6-34.4-76.6-76.6c0-42.3,34.4-76.6,76.6-76.6
		C287.2,275.8,321.5,310.2,321.5,352.5z M256.9,184.6L153.6,0H184l106.7,190.5C279.8,187.4,268.5,185.4,256.9,184.6z M194.2,191.9
		L86.7,0h31.2l104,185.8C212.4,187.1,203.1,189.1,194.2,191.9z M371.9,0h31.2l-90.5,161.6L297,133.7L371.9,0z M279.2,101.8L264,74.7
		L305.8,0h30.4L279.2,101.8z"/>
</g>
<g>
</g>
<g>
</g>
<g>
</g>
<g>
</g>
<g>
</g>
<g>
</g>
<g>
</g>
<g>
</g>
<g>
</g>
<g>
</g>
<g>
</g>
<g>
</g>
<g>
</g>
<g>
</g>
<g>
</g>
</svg>
