<?xml version="1.0" encoding="iso-8859-1"?>
<!-- Generator: Adobe Illustrator 19.0.0, SVG Export Plug-In . SVG Version: 6.00 Build 0)  -->
<svg version="1.1" id="Layer_1" xmlns="http://www.w3.org/2000/svg" xmlns:xlink="http://www.w3.org/1999/xlink" x="0px" y="0px"
	 viewBox="0 0 512 512" style="enable-background:new 0 0 512 512;" xml:space="preserve">
<rect x="76.555" y="43.375" style="fill:#E6E6E6;" width="425.246" height="425.246"/>
<rect x="10.199" y="43.375" style="fill:#B3B3B3;" width="66.356" height="425.246"/>
<path style="fill:#FFBA57;" d="M289.176,435.45L289.176,435.45c-99.108,0-179.45-80.342-179.45-179.45l0,0
	c0-99.108,80.342-179.45,179.45-179.45l0,0c99.108,0,179.45,80.342,179.45,179.45l0,0
	C468.625,355.108,388.283,435.45,289.176,435.45z"/>
<path style="fill:#B3B3B3;" d="M289.176,316.822L289.176,316.822c-33.591,0-60.822-27.231-60.822-60.822l0,0
	c0-33.591,27.231-60.822,60.822-60.822l0,0c33.591,0,60.822,27.231,60.822,60.822l0,0
	C349.998,289.591,322.767,316.822,289.176,316.822z"/>
<path style="fill:#E6E6E6;" d="M289.176,278.62L289.176,278.62c-12.493,0-22.62-10.127-22.62-22.62l0,0
	c0-12.493,10.127-22.62,22.62-22.62l0,0c12.493,0,22.62,10.127,22.62,22.62l0,0C311.796,268.493,301.668,278.62,289.176,278.62z"/>
<g>
	<path style="fill:#603813;" d="M501.801,478.824c5.633,0,10.199-4.566,10.199-10.199V43.375c0-5.633-4.566-10.199-10.199-10.199
		H10.199C4.566,33.176,0,37.742,0,43.375v425.25c0,5.633,4.566,10.199,10.199,10.199H501.801z M20.398,53.574h45.953v404.851H20.398
		V53.574z M491.602,458.426H86.749V53.574h404.852V458.426z"/>
	<path style="fill:#603813;" d="M289.176,445.649c104.572,0,189.648-85.077,189.648-189.649S393.748,66.351,289.175,66.351
		S99.527,151.428,99.527,256S184.604,445.649,289.176,445.649z M289.176,86.749c93.325,0,169.25,75.925,169.25,169.251
		s-75.925,169.251-169.25,169.251l0,0c-93.325,0-169.25-75.925-169.25-169.251S195.85,86.749,289.176,86.749z"/>
	<path style="fill:#603813;" d="M289.176,327.021c39.161,0,71.021-31.86,71.021-71.021c0-39.161-31.86-71.021-71.021-71.021
		s-71.021,31.86-71.021,71.021C218.155,295.161,250.014,327.021,289.176,327.021z M289.176,205.377
		c27.913,0,50.623,22.71,50.623,50.623c0,27.913-22.71,50.623-50.623,50.623l0,0c-27.913,0-50.623-22.71-50.623-50.623
		C238.553,228.087,261.262,205.377,289.176,205.377z"/>
	<path style="fill:#603813;" d="M289.176,288.819c18.096,0,32.819-14.723,32.819-32.819c0-18.096-14.723-32.819-32.819-32.819
		S256.357,237.904,256.357,256C256.357,274.096,271.08,288.819,289.176,288.819z M289.176,243.579
		c6.849,0,12.421,5.572,12.421,12.421c0,6.849-5.572,12.421-12.421,12.421l0,0c-6.849,0-12.421-5.572-12.421-12.421
		C276.755,249.151,282.327,243.579,289.176,243.579z"/>
	<path style="fill:#603813;" d="M278.977,399.258c0,5.633,4.566,10.199,10.199,10.199c65.094,0,123.301-41.247,144.839-102.638
		c1.865-5.315-0.932-11.135-6.247-13.001c-5.313-1.863-11.135,0.932-13.001,6.247c-18.676,53.229-69.147,88.992-125.591,88.992
		C283.543,389.059,278.977,393.625,278.977,399.258z"/>
	<path style="fill:#603813;" d="M431.006,278.727c0.301,0.027,0.599,0.039,0.895,0.039c5.233,0,9.688-4.005,10.149-9.316
		c0.387-4.442,0.582-8.967,0.582-13.45c0-5.633-4.566-10.199-10.199-10.199c-5.633,0-10.199,4.566-10.199,10.199
		c0,3.895-0.17,7.826-0.506,11.683C421.241,273.295,425.395,278.239,431.006,278.727z"/>
</g>
<g>
</g>
<g>
</g>
<g>
</g>
<g>
</g>
<g>
</g>
<g>
</g>
<g>
</g>
<g>
</g>
<g>
</g>
<g>
</g>
<g>
</g>
<g>
</g>
<g>
</g>
<g>
</g>
<g>
</g>
</svg>
