<?xml version="1.0" encoding="iso-8859-1"?>
<!-- Generator: Adobe Illustrator 16.0.0, SVG Export Plug-In . SVG Version: 6.00 Build 0)  -->
<!DOCTYPE svg PUBLIC "-//W3C//DTD SVG 1.1//EN" "http://www.w3.org/Graphics/SVG/1.1/DTD/svg11.dtd">
<svg version="1.1" id="Capa_1" xmlns="http://www.w3.org/2000/svg" xmlns:xlink="http://www.w3.org/1999/xlink" x="0px" y="0px"
	 width="31.811px" height="31.811px" viewBox="0 0 31.811 31.811" style="enable-background:new 0 0 31.811 31.811;"
	 xml:space="preserve">
<g>
	<g>
		<polygon points="26.268,22.128 31.811,19.053 31.223,18.031 26.268,20.779 26.268,15.842 5.486,15.842 5.441,15.842 5.441,19.496 
			1.705,17.328 1.593,17.523 5.441,19.757 5.441,19.961 1.499,17.674 1.386,17.869 5.441,20.223 5.441,20.38 1.286,17.969 
			1.173,18.164 5.441,20.641 5.441,20.889 0.588,17.969 0,18.991 5.441,22.264 5.441,29.65 6.949,29.65 6.949,30.643 24.76,30.643 
			24.76,29.65 26.268,29.65 		"/>
		<polygon points="17.343,2.572 12.251,6.744 11.729,6.106 4.356,12.151 4.876,12.785 3.743,13.714 5.486,15.842 19.085,4.699 		"/>
		<rect x="10.028" y="14.938" width="8.513" height="0.612"/>
		<circle cx="22.764" cy="4.391" r="3.223"/>
		<polygon points="17.166,14.45 19.58,10.839 19.814,15.416 25.626,15.416 25.678,14.373 26.785,14.373 26.604,8.491 24.007,8.098 
			22.818,9.522 21.59,8.098 19.521,8.098 14.285,14.517 		"/>
	</g>
</g>
<g>
</g>
<g>
</g>
<g>
</g>
<g>
</g>
<g>
</g>
<g>
</g>
<g>
</g>
<g>
</g>
<g>
</g>
<g>
</g>
<g>
</g>
<g>
</g>
<g>
</g>
<g>
</g>
<g>
</g>
</svg>
