<?xml version="1.0" encoding="iso-8859-1"?>
<!-- Generator: Adobe Illustrator 16.0.0, SVG Export Plug-In . SVG Version: 6.00 Build 0)  -->
<!DOCTYPE svg PUBLIC "-//W3C//DTD SVG 1.1//EN" "http://www.w3.org/Graphics/SVG/1.1/DTD/svg11.dtd">
<svg version="1.1" id="Capa_1" xmlns="http://www.w3.org/2000/svg" xmlns:xlink="http://www.w3.org/1999/xlink" x="0px" y="0px"
	 width="523.486px" height="523.486px" viewBox="0 0 523.486 523.486" style="enable-background:new 0 0 523.486 523.486;"
	 xml:space="preserve">
<g>
	<path d="M522.432,203.496c-0.84-12.095-4.172-24.33-8.284-35.811c-7.178-20.057-21.926-32.329-43.23-35.757
		c-27.467-4.429-54.335,1.148-81.334,5.124c-39.717,5.86-79.358,13.033-119.3,16.312c-2.856,0.229-5.698,0.401-8.54,0.539
		c-2.845-0.138-5.688-0.31-8.541-0.539c-39.943-3.283-79.59-10.457-119.3-16.312c-26.997-3.976-53.87-9.553-81.336-5.124
		c-21.305,3.433-36.048,15.7-43.231,35.757c-4.109,11.481-7.446,23.716-8.282,35.811c-2.385,34.387-1.396,68.678,10.064,101.819
		c19.103,55.263,68.741,90.069,125.866,87.765c23.695-0.957,45.448-9.064,65.694-20.881c13.257-7.743,25.204-17.847,38.771-24.903
		c6.461-3.36,13.243-6.311,20.288-7.99c7.042,1.68,13.823,4.63,20.287,7.99c13.567,7.057,25.516,17.16,38.77,24.903
		c20.246,11.816,41.999,19.924,65.694,20.881c57.13,2.301,106.769-32.502,125.866-87.765
		C523.823,272.178,524.817,237.887,522.432,203.496z M197.344,179.509l4.121,6.873l-6.877,4.121l-4.121-6.873L197.344,179.509z
		 M181.67,163.466l7.225,3.47l-3.47,7.227l-7.225-3.47L181.67,163.466z M163.686,172.623l7.222,3.465l-3.47,7.232l-7.227-3.47
		L163.686,172.623z M151.204,156.237l6.842,4.182l-4.191,6.837l-6.832-4.182L151.204,156.237z M135.352,163.589l3.034,7.423
		l-7.423,3.029l-3.029-7.416L135.352,163.589z M119.666,148.823l3.041,7.423l-7.427,3.029l-3.029-7.421L119.666,148.823z
		 M107.431,160.521l-4.32,6.753l-6.753-4.31l4.315-6.753L107.431,160.521z M91.059,143.288l6.758,4.312l-4.317,6.751l-6.758-4.306
		L91.059,143.288z M204.271,290.707c-9.325,4.047-28.073,10.832-48.881,10.832c-9.32,0-18.113-1.381-26.098-4.093
		c-30.065-10.226-72.352-52.672-79.768-75.497c0,0,56.406,2.583,77.056,2.583c9.32,0,18.113,1.381,26.105,4.095
		c29.998,10.209,48.689,39.104,55.331,51.056l4.212,7.584L204.271,290.707z M210.856,182.815l1.29-7.908l7.904,1.291l-1.286,7.908
		L210.856,182.815z M228.203,201.388h-8.158v-8.158h8.158V201.388z M432.427,143.288l4.317,6.758l-6.758,4.306l-4.317-6.751
		L432.427,143.288z M422.813,156.211l4.312,6.753l-6.753,4.31l-4.317-6.753L422.813,156.211z M403.818,148.823l7.416,3.031
		l-3.028,7.421l-7.426-3.029L403.818,148.823z M388.132,163.589l7.421,3.036l-3.029,7.416l-7.425-3.029L388.132,163.589z
		 M372.283,156.237l4.182,6.837l-6.832,4.182l-4.187-6.837L372.283,156.237z M359.798,172.623l3.478,7.227l-7.229,3.47l-3.468-7.232
		L359.798,172.623z M341.816,163.466l3.468,7.227l-7.225,3.47l-3.468-7.227L341.816,163.466z M326.139,179.509l6.88,4.114
		l-4.121,6.875l-6.88-4.121L326.139,179.509z M303.439,201.388h-8.158v-8.158h8.158V201.388z M303.439,176.198l7.906-1.291
		l1.288,7.908l-7.906,1.291L303.439,176.198z M394.2,297.446c-7.985,2.712-16.778,4.093-26.099,4.093
		c-20.811,0-39.558-6.785-48.883-10.832l-7.953-3.444l4.215-7.584c6.637-11.952,25.333-40.846,55.328-51.055
		c7.995-2.714,16.787-4.095,26.107-4.095c20.647,0,77.059-2.586,77.059-2.586C466.544,244.769,424.265,287.22,394.2,297.446z"/>
</g>
<g>
</g>
<g>
</g>
<g>
</g>
<g>
</g>
<g>
</g>
<g>
</g>
<g>
</g>
<g>
</g>
<g>
</g>
<g>
</g>
<g>
</g>
<g>
</g>
<g>
</g>
<g>
</g>
<g>
</g>
</svg>
