<?xml version="1.0" encoding="iso-8859-1"?>
<!-- Generator: Adobe Illustrator 19.0.0, SVG Export Plug-In . SVG Version: 6.00 Build 0)  -->
<svg version="1.1" id="Layer_1" xmlns="http://www.w3.org/2000/svg" xmlns:xlink="http://www.w3.org/1999/xlink" x="0px" y="0px"
	 viewBox="0 0 512 512" style="enable-background:new 0 0 512 512;" xml:space="preserve">
<rect x="7.286" y="256" style="fill:#259245;" width="497.43" height="124.36"/>
<rect x="7.286" y="7.286" style="fill:#164FCE;" width="497.43" height="124.36"/>
<rect x="7.286" y="380.36" style="fill:#FFE000;" width="497.43" height="124.36"/>
<rect x="7.286" y="131.64" style="fill:#FFFFFF;" width="497.43" height="124.36"/>
<rect x="193.82" y="7.286" style="fill:#ED1F34;" width="124.36" height="497.43"/>
<path d="M504.713,0H7.286C3.262,0,0,3.262,0,7.286v497.427C0,508.738,3.262,512,7.286,512h497.427c4.024,0,7.287-3.262,7.287-7.286
	V7.286C512,3.262,508.738,0,504.713,0z M186.536,248.714H14.573V138.93h171.963V248.714z M14.573,263.286h171.963V373.07H14.573
	V263.286z M201.109,14.573h109.784v482.854H201.109V14.573z M325.466,138.93h171.961v109.784H325.466V138.93z M497.427,124.357
	H325.466V14.573h171.961V124.357z M186.536,14.573v109.784H14.573V14.573H186.536z M14.573,387.643h171.963v109.784H14.573V387.643z
	 M325.466,497.427V387.643H438.39c4.024,0,7.287-3.262,7.287-7.287s-3.262-7.286-7.287-7.286H325.466V263.286h171.961V373.07
	h-25.875c-4.024,0-7.286,3.262-7.286,7.286c0,4.025,3.262,7.287,7.286,7.287h25.875v109.784H325.466z"/>
<circle style="fill:#FFE000;" cx="100.17" cy="69.47" r="24.871"/>
<g>
</g>
<g>
</g>
<g>
</g>
<g>
</g>
<g>
</g>
<g>
</g>
<g>
</g>
<g>
</g>
<g>
</g>
<g>
</g>
<g>
</g>
<g>
</g>
<g>
</g>
<g>
</g>
<g>
</g>
</svg>
