<?xml version="1.0" encoding="iso-8859-1"?>
<!-- Generator: Adobe Illustrator 19.0.0, SVG Export Plug-In . SVG Version: 6.00 Build 0)  -->
<svg version="1.1" id="Layer_1" xmlns="http://www.w3.org/2000/svg" xmlns:xlink="http://www.w3.org/1999/xlink" x="0px" y="0px"
	 viewBox="0 0 512.002 512.002" style="enable-background:new 0 0 512.002 512.002;" xml:space="preserve">
<rect x="7.287" y="7.287" style="fill:#333333;" width="497.43" height="497.43"/>
<rect x="7.287" y="206.26" style="fill:#3DB4EA;" width="497.43" height="149.23"/>
<rect x="7.287" y="355.49" style="fill:#FFFFFF;" width="497.43" height="149.23"/>
<g>
	<polygon style="fill:#ED1F34;" points="256.001,504.714 504.715,504.714 504.715,7.287 	"/>
	<polygon style="fill:#ED1F34;" points="7.288,7.287 7.288,504.714 256.002,504.714 	"/>
</g>
<polygon style="fill:#FFE000;" points="394.27,208.006 342.545,190.792 383.745,155.092 329.37,158.983 353.772,110.235 
	305.024,134.637 308.914,80.261 273.216,121.462 256.001,69.736 238.786,121.462 203.088,80.261 206.978,134.637 158.23,110.235 
	182.632,158.983 128.257,155.092 169.457,190.792 117.732,208.006 "/>
<path d="M511.996,7.19c-0.002-0.146-0.011-0.292-0.022-0.438c-0.007-0.102-0.013-0.205-0.025-0.306
	c-0.014-0.119-0.034-0.236-0.054-0.354c-0.021-0.124-0.04-0.25-0.067-0.372c-0.02-0.09-0.045-0.178-0.069-0.267
	c-0.038-0.144-0.074-0.287-0.12-0.427c-0.024-0.072-0.052-0.142-0.078-0.214c-0.054-0.15-0.108-0.299-0.172-0.444
	c-0.032-0.073-0.07-0.143-0.104-0.216c-0.065-0.136-0.129-0.271-0.203-0.402c-0.051-0.092-0.108-0.179-0.163-0.27
	c-0.065-0.105-0.128-0.212-0.198-0.315c-0.074-0.108-0.156-0.212-0.237-0.316c-0.06-0.079-0.118-0.159-0.181-0.234
	c-0.091-0.11-0.191-0.214-0.289-0.319c-0.062-0.065-0.122-0.134-0.186-0.197c-0.097-0.095-0.2-0.185-0.302-0.275
	c-0.078-0.068-0.154-0.139-0.234-0.203c-0.09-0.073-0.186-0.141-0.281-0.21c-0.103-0.076-0.206-0.152-0.314-0.222
	c-0.08-0.052-0.164-0.101-0.246-0.15c-0.13-0.078-0.262-0.155-0.397-0.225c-0.027-0.013-0.052-0.03-0.08-0.045
	c-0.051-0.026-0.104-0.044-0.155-0.068c-0.139-0.066-0.28-0.129-0.424-0.186c-0.094-0.037-0.188-0.07-0.283-0.103
	c-0.125-0.044-0.251-0.085-0.379-0.122c-0.12-0.035-0.24-0.065-0.361-0.093c-0.104-0.024-0.208-0.047-0.314-0.067
	c-0.148-0.027-0.295-0.049-0.443-0.067c-0.084-0.011-0.168-0.022-0.252-0.029c-0.169-0.014-0.337-0.022-0.506-0.025
	C504.809,0.007,504.762,0,504.715,0H7.287C7.22,0,7.155,0.009,7.088,0.01C6.949,0.014,6.81,0.019,6.67,0.031
	c-0.111,0.01-0.221,0.023-0.331,0.037C6.216,0.084,6.094,0.102,5.971,0.125C5.844,0.148,5.719,0.176,5.594,0.206
	C5.492,0.231,5.391,0.255,5.289,0.285C5.147,0.325,5.007,0.371,4.868,0.42C4.785,0.45,4.701,0.479,4.617,0.511
	C4.468,0.57,4.323,0.636,4.18,0.703C4.129,0.727,4.078,0.745,4.029,0.77c-0.028,0.014-0.052,0.031-0.08,0.045
	C3.814,0.885,3.682,0.962,3.552,1.04C3.469,1.089,3.386,1.138,3.305,1.19c-0.107,0.07-0.21,0.146-0.314,0.222
	C2.896,1.48,2.801,1.549,2.71,1.622C2.63,1.685,2.554,1.755,2.476,1.824c-0.102,0.09-0.206,0.18-0.302,0.275
	C2.109,2.162,2.05,2.231,1.988,2.296C1.889,2.4,1.79,2.505,1.698,2.615C1.635,2.69,1.577,2.77,1.517,2.849
	C1.437,2.953,1.355,3.057,1.28,3.165C1.21,3.267,1.147,3.375,1.082,3.48C1.028,3.57,0.97,3.658,0.919,3.75
	C0.847,3.88,0.783,4.015,0.718,4.151C0.683,4.224,0.645,4.295,0.613,4.369C0.55,4.513,0.495,4.661,0.442,4.81
	C0.416,4.882,0.387,4.953,0.363,5.026C0.317,5.165,0.28,5.308,0.243,5.453C0.22,5.541,0.194,5.629,0.174,5.719
	C0.147,5.842,0.128,5.967,0.107,6.091c-0.02,0.118-0.04,0.235-0.054,0.354C0.041,6.547,0.035,6.649,0.028,6.751
	C0.017,6.898,0.008,7.044,0.006,7.19c0,0.033-0.005,0.065-0.005,0.097v497.427c0,4.025,3.262,7.286,7.286,7.286h248.674
	c0.011,0,0.022,0.002,0.033,0.002c0.002,0,0.004,0,0.006,0s0.004,0,0.006,0c0.011,0,0.022-0.002,0.033-0.002h248.675
	c4.025,0,7.286-3.262,7.286-7.286V7.287C512.001,7.254,511.996,7.223,511.996,7.19z M400.726,198.971h-10.529l-33.209-11.052
	l31.529-27.319c2.372-2.054,3.161-5.397,1.96-8.295c-1.199-2.898-4.122-4.704-7.251-4.479l-41.611,2.976l18.675-37.304
	c1.404-2.805,0.855-6.196-1.363-8.415c-2.219-2.218-5.61-2.765-8.415-1.363l-37.305,18.675l2.976-41.612
	c0.224-3.13-1.581-6.051-4.479-7.251c-2.897-1.203-6.242-0.413-8.295,1.96l-27.32,31.529l-13.174-39.583
	c-0.991-2.977-3.776-4.986-6.914-4.986c-3.138,0-5.923,2.009-6.914,4.986l-13.174,39.583l-27.32-31.529
	c-2.055-2.372-5.398-3.162-8.295-1.96c-2.898,1.2-4.703,4.121-4.479,7.251l2.976,41.612L161.49,103.72
	c-2.807-1.402-6.195-0.855-8.415,1.363c-2.218,2.219-2.768,5.609-1.363,8.415l18.675,37.304l-41.611-2.976
	c-3.114-0.227-6.051,1.58-7.251,4.479c-1.201,2.898-0.412,6.241,1.96,8.295l31.528,27.319l-33.209,11.052h-10.529L19.077,14.573
	h473.847L400.726,198.971z M174.228,185.285l-24.653-21.361l32.537,2.327c2.623,0.207,5.124-1.042,6.579-3.219
	c1.454-2.177,1.629-4.969,0.457-7.31l-14.603-29.17l29.17,14.602c2.343,1.171,5.134,0.995,7.31-0.457
	c2.177-1.456,3.406-3.967,3.219-6.579l-2.327-32.538l21.363,24.654c1.714,1.981,4.362,2.89,6.928,2.375
	c2.568-0.51,4.665-2.36,5.493-4.845l10.301-30.951l10.301,30.951c0.827,2.485,2.924,4.335,5.492,4.845
	c2.568,0.515,5.214-0.394,6.928-2.375l21.363-24.654l-2.327,32.538c-0.187,2.612,1.042,5.123,3.219,6.579
	c2.177,1.452,4.967,1.629,7.31,0.457l29.17-14.602l-14.602,29.17c-1.172,2.342-0.997,5.133,0.457,7.31s3.963,3.428,6.579,3.219
	l32.537-2.327l-24.653,21.361c-1.979,1.714-2.886,4.359-2.375,6.928c0.51,2.568,2.361,4.665,4.845,5.492l3.803,1.266H167.954
	l3.803-1.266c2.485-0.827,4.335-2.924,4.845-5.492C177.114,189.644,176.207,186.999,174.228,185.285z M14.574,38.153
	l229.637,459.274H14.574V38.153z M267.791,497.427l22.384-44.768c1.8-3.6,0.341-7.976-3.258-9.776
	c-3.602-1.803-7.977-0.342-9.776,3.258l-21.139,42.279L119.346,215.111c0.229-0.053,0.458-0.116,0.686-0.192l4.134-1.376h263.67
	l4.134,1.376c0.231,0.077,0.464,0.119,0.696,0.171L289.278,421.866c-1.8,3.6-0.341,7.976,3.258,9.776
	c1.047,0.524,2.158,0.771,3.253,0.771c2.673,0,5.247-1.476,6.523-4.029L497.428,38.153v459.274H267.791z"/>
<g>
</g>
<g>
</g>
<g>
</g>
<g>
</g>
<g>
</g>
<g>
</g>
<g>
</g>
<g>
</g>
<g>
</g>
<g>
</g>
<g>
</g>
<g>
</g>
<g>
</g>
<g>
</g>
<g>
</g>
</svg>
