<?xml version="1.0" encoding="iso-8859-1"?>
<!-- Generator: Adobe Illustrator 19.0.0, SVG Export Plug-In . SVG Version: 6.00 Build 0)  -->
<svg version="1.1" id="Layer_1" xmlns="http://www.w3.org/2000/svg" xmlns:xlink="http://www.w3.org/1999/xlink" x="0px" y="0px"
	 viewBox="0 0 512 512" style="enable-background:new 0 0 512 512;" xml:space="preserve">
<rect x="7.286" y="7.286" style="fill:#FFFFFF;" width="497.43" height="497.43"/>
<path d="M504.714,512H7.286C3.262,512,0,508.738,0,504.714V7.286C0,3.262,3.262,0,7.286,0h497.427C508.738,0,512,3.262,512,7.286
	v497.427C512,508.738,508.738,512,504.714,512z M14.573,497.427h482.854V14.573H14.573V497.427z"/>
<path style="fill:#333333;" d="M231.689,136.411c50.137,0,90.781,40.644,90.781,90.78c0,25.413-10.455,48.374-27.282,64.853
	l23.077,59.131c-0.002,0.002-88.934,34.709-88.934,34.709c0.006-0.003-22.442-57.521-22.442-57.521l-40.246,0.142
	c-14.212,0-25.733-11.521-25.733-25.733V227.19C140.909,177.055,181.553,136.411,231.689,136.411z"/>
<path style="fill:#FFFFFF;" d="M182.405,150.971l134.083,43.805c0.003,0.008-169.599,0.008-169.599,0.008
	C153.812,176.678,166.361,161.367,182.405,150.971z"/>
<path d="M234.334,220.003c-2.134-0.352-4.314,0.259-5.952,1.673c-1.638,1.413-2.563,3.48-2.525,5.642l0.193,11.112
	c0.07,4.024,3.382,7.218,7.412,7.159c3.847-0.066,6.946-3.103,7.15-6.887c0.731,0.702,1.402,1.476,2.005,2.319
	c2.552,3.565,3.562,7.912,2.845,12.237c-0.717,4.326-3.075,8.114-6.641,10.665c-3.565,2.552-7.911,3.564-12.237,2.845
	c-3.966-0.65-7.721,2.027-8.38,5.997c-0.658,3.971,2.027,7.722,5.997,8.38c1.715,0.284,3.43,0.424,5.133,0.424
	c6.412,0,12.65-1.99,17.969-5.796c6.731-4.817,11.183-11.968,12.536-20.133c1.354-8.166-0.554-16.371-5.371-23.103
	C249.65,225.808,242.499,221.356,234.334,220.003z"/>
<path d="M392.466,157.809v-31.693c0-4.025-3.262-7.286-7.286-7.286h-31.693c-4.025,0-7.287,3.262-7.287,7.286v31.693
	c0,14.778-10.854,27.064-25.008,29.316c-15.35-34.156-49.693-58.001-89.502-58.001c-18.347,0-35.529,5.069-50.23,13.873l-9.83-3.212
	c-3.823-1.249-7.939,0.839-9.189,4.663c-1.234,3.778,0.79,7.831,4.524,9.136c-10.58,9.315-19.143,20.867-24.941,33.913h-6.881
	c-4.024,0-7.287,3.262-7.287,7.287c0,4.025,3.262,7.286,7.287,7.286h1.746c-1.982,7.471-3.1,15.29-3.244,23.343l-13.329,26.435
	c-1.812,3.594-0.368,7.975,3.225,9.787c1.053,0.53,2.172,0.782,3.275,0.782c2.664,0,5.231-1.467,6.512-4.008l0.295-0.584v23.673
	c-3.172,0.788-5.527,3.647-5.527,7.063s2.355,6.275,5.527,7.064v7.146c0,18.207,14.813,33.02,33.045,33.02l35.25-0.124
	c7.795,19.975,20.025,51.314,20.591,52.777c0.331,0.881,0.835,1.706,1.505,2.42c1.405,1.5,3.341,2.305,5.318,2.305
	c0.889,0,1.787-0.162,2.648-0.498l85.112-33.217c5.667-2.212,6.396-2.496,7.656-4.955c0.952-1.856,1.063-4.03,0.305-5.974
	l-21.373-54.764c16.853-18.175,26.077-41.628,26.077-66.57c0-7.995-0.969-15.768-2.783-23.213
	c11.222,4.241,19.226,15.091,19.226,27.78v119.416c0,4.025,3.262,7.286,7.287,7.286h31.693c4.025,0,7.286-3.262,7.286-7.286v-22.107
	c0-4.025-3.262-7.287-7.286-7.287c-4.025,0-7.286,3.262-7.286,7.287v14.821h-17.12V231.759c0-11.403-4.334-21.812-11.441-29.668
	c15.849,0.595,28.562,13.676,28.562,29.668v64.146c0,4.025,3.262,7.287,7.286,7.287c4.025,0,7.286-3.262,7.286-7.287v-64.146
	c0-15.441-7.953-29.053-19.973-36.975C384.513,186.861,392.466,173.249,392.466,157.809z M231.689,143.697
	c29.568,0,55.576,15.463,70.415,38.715l-100.847-32.947C210.693,145.757,220.952,143.697,231.689,143.697z M183.574,159.019
	l87.171,28.478H158.251C164.399,176.167,173.107,166.429,183.574,159.019z M290.089,286.838c-2.086,2.043-2.752,5.135-1.69,7.855
	l20.428,52.344c-16.537,6.454-58.802,22.949-75.356,29.409l-19.796-50.731c-1.092-2.797-3.787-4.637-6.788-4.637
	c-0.008,0-0.017,0-0.026,0l-40.221,0.142c-10.171,0-18.446-8.275-18.446-18.447v-7.146c3.172-0.788,5.527-3.647,5.527-7.064
	s-2.355-6.275-5.527-7.063v-47.021h13.834c0.136,2.582,1.645,5.008,4.142,6.199c1.012,0.483,2.08,0.712,3.131,0.712
	c2.722,0,5.333-1.532,6.583-4.153l3.294-6.909c1.076-2.257,0.919-4.909-0.415-7.025c-1.335-2.115-3.661-3.398-6.162-3.398h-24.069
	c0.535-6.158,1.727-12.129,3.531-17.835h159.251c2.508,7.933,3.869,16.37,3.869,25.121
	C315.183,249.809,306.271,270.991,290.089,286.838z M377.893,157.809c0,15.992-12.712,29.072-28.562,29.667
	c7.107-7.856,11.441-18.264,11.441-29.667v-24.406h17.12v24.406H377.893z"/>
<g>
</g>
<g>
</g>
<g>
</g>
<g>
</g>
<g>
</g>
<g>
</g>
<g>
</g>
<g>
</g>
<g>
</g>
<g>
</g>
<g>
</g>
<g>
</g>
<g>
</g>
<g>
</g>
<g>
</g>
</svg>
