<?xml version="1.0" encoding="iso-8859-1"?>
<!-- Generator: Adobe Illustrator 19.0.0, SVG Export Plug-In . SVG Version: 6.00 Build 0)  -->
<svg version="1.1" id="Layer_1" xmlns="http://www.w3.org/2000/svg" xmlns:xlink="http://www.w3.org/1999/xlink" x="0px" y="0px"
	 viewBox="0 0 512 512" style="enable-background:new 0 0 512 512;" xml:space="preserve">
<rect x="80.125" y="80.137" transform="matrix(-0.7071 0.7071 -0.7071 -0.7071 618.0184 256.0084)" style="fill:#FFFFFF;" width="351.727" height="351.727"/>
<polygon style="fill:#FFE000;" points="168.829,227.676 233.012,224.36 256,164.343 278.988,224.36 343.171,227.676 
	293.195,268.085 309.875,330.152 256,295.109 202.125,330.152 218.805,268.085 "/>
<path d="M309.875,337.438c-1.38,0-2.763-0.391-3.973-1.178L256,303.801l-49.901,32.459c-2.531,1.645-5.814,1.561-8.256-0.214
	c-2.442-1.774-3.538-4.871-2.754-7.786l15.451-57.489l-46.291-37.429c-2.347-1.898-3.281-5.047-2.348-7.918s3.539-4.869,6.554-5.025
	l59.45-3.071l21.292-55.592c1.08-2.819,3.786-4.68,6.805-4.68c3.019,0,5.725,1.861,6.805,4.68l21.292,55.592l59.45,3.071
	c3.015,0.156,5.621,2.155,6.554,5.025c0.933,2.871-0.001,6.02-2.348,7.918l-46.291,37.429l15.451,57.489
	c0.784,2.916-0.312,6.012-2.754,7.786C312.883,336.973,311.38,337.438,309.875,337.438z M256,287.822
	c1.382,0,2.766,0.393,3.973,1.178l37.927,24.67l-11.743-43.694c-0.748-2.783,0.214-5.746,2.455-7.557l35.183-28.448l-45.184-2.334
	c-2.879-0.149-5.398-1.98-6.429-4.671L256,184.715l-16.183,42.252c-1.03,2.691-3.55,4.522-6.429,4.671l-45.184,2.334l35.183,28.448
	c2.241,1.812,3.203,4.774,2.455,7.557L214.1,313.671L252.027,289C253.234,288.215,254.618,287.822,256,287.822z"/>
<g>
	<polygon style="fill:#ED1F34;" points="256,7.286 7.286,256 7.286,7.286 	"/>
	<polygon style="fill:#ED1F34;" points="504.714,7.286 504.714,256 256,7.286 	"/>
</g>
<g>
	<polygon style="fill:#164FCE;" points="256,504.714 7.286,504.714 7.286,256 	"/>
	<polygon style="fill:#164FCE;" points="504.714,256 504.714,504.714 256,504.714 	"/>
</g>
<path d="M512,255.995V7.286C512,3.262,508.738,0,504.714,0H7.286C3.262,0,0,3.262,0,7.286v248.709c0,0.003,0,0.007,0,0.009v248.709
	C0,508.738,3.262,512,7.286,512h497.427c4.025,0,7.286-3.262,7.286-7.286V256.005C512,256.002,512,255.998,512,255.995z
	 M497.427,238.408L273.592,14.573h223.835V238.408z M238.408,14.573L14.573,238.408V14.573H238.408z M14.573,273.592
	l223.835,223.835H14.573V273.592z M273.592,497.427l159.344-159.344c2.845-2.845,2.845-7.459,0-10.305
	c-2.845-2.845-7.458-2.846-10.305,0L256,494.409L17.591,256L256,17.591L494.409,256l-44.187,44.187
	c-2.845,2.845-2.845,7.459,0,10.305c2.846,2.845,7.459,2.845,10.306,0l36.899-36.9v223.835H273.592z"/>
<g>
</g>
<g>
</g>
<g>
</g>
<g>
</g>
<g>
</g>
<g>
</g>
<g>
</g>
<g>
</g>
<g>
</g>
<g>
</g>
<g>
</g>
<g>
</g>
<g>
</g>
<g>
</g>
<g>
</g>
</svg>
