<?xml version="1.0" encoding="iso-8859-1"?>
<!-- Generator: Adobe Illustrator 19.0.0, SVG Export Plug-In . SVG Version: 6.00 Build 0)  -->
<svg version="1.1" id="Layer_1" xmlns="http://www.w3.org/2000/svg" xmlns:xlink="http://www.w3.org/1999/xlink" x="0px" y="0px"
	 viewBox="0 0 511.999 511.999" style="enable-background:new 0 0 511.999 511.999;" xml:space="preserve">
<rect x="7.288" y="7.292" style="fill:#3DB4EA;" width="497.425" height="497.425"/>
<rect x="7.288" y="7.302" style="fill:#103B9B;" width="305.107" height="248.708"/>
<polygon style="fill:#FFFFFF;" points="312.4,7.286 285.847,7.286 193.42,68.904 193.42,7.286 126.268,7.286 126.268,68.905 
	33.841,7.286 7.288,7.286 7.288,70.291 48.95,98.066 7.288,98.066 7.288,165.218 48.95,165.218 7.288,192.992 7.288,255.997 
	33.84,255.997 126.268,194.379 126.268,255.997 193.42,255.997 193.42,194.379 285.847,255.997 312.4,255.997 312.4,192.992 
	270.737,165.218 312.4,165.218 312.4,98.066 270.737,98.066 312.4,70.291 "/>
<polygon style="fill:#ED1F34;" points="312.4,7.286 306.024,7.286 177.875,92.728 177.875,7.286 141.813,7.286 141.813,113.611 
	132.797,113.611 7.288,29.938 7.288,56.914 92.128,113.611 7.288,113.611 7.288,149.674 132.797,149.674 7.288,233.346 
	7.288,255.997 13.664,255.997 141.813,170.565 141.813,255.997 177.875,255.997 177.875,149.674 186.891,149.674 312.4,233.346 
	312.4,206.964 226.668,149.674 312.4,149.674 312.4,113.611 186.891,113.611 312.4,29.938 "/>
<path d="M504.71,362.773c4.024,0,7.287-3.262,7.287-7.286V7.292c0-4.024-3.262-7.286-7.287-7.286H312.503
	C312.468,0.005,312.434,0,312.4,0c-0.035,0-0.069,0.005-0.104,0.005H7.288c-4.024,0-7.286,3.262-7.286,7.286v497.422
	c0,4.024,3.262,7.286,7.286,7.286H504.71c4.024,0,7.287-3.262,7.287-7.286v-99.484c0-4.024-3.262-7.287-7.287-7.287
	s-7.287,3.262-7.287,7.287v92.198H14.575V263.283l297.824,0.008c1.933,0,3.786-0.768,5.152-2.134
	c1.367-1.366,2.134-3.22,2.134-5.152l0.001-241.427h177.738v340.909C497.424,359.512,500.686,362.773,504.71,362.773z
	 M305.112,248.719l-290.538-0.008V14.578h290.538V248.719z"/>
<g>
	<circle style="fill:#FFE000;" cx="237.557" cy="451.916" r="13.817"/>
	<circle style="fill:#FFE000;" cx="301.106" cy="382.956" r="13.817"/>
	<circle style="fill:#FFE000;" cx="301.106" cy="438.396" r="13.817"/>
	<circle style="fill:#FFE000;" cx="359.245" cy="304.397" r="13.817"/>
	<circle style="fill:#FFE000;" cx="400.025" cy="290.877" r="13.817"/>
	<circle style="fill:#FFE000;" cx="440.815" cy="241.298" r="13.817"/>
	<circle style="fill:#FFE000;" cx="359.245" cy="424.866" r="13.817"/>
	<circle style="fill:#FFE000;" cx="400.025" cy="382.956" r="13.521"/>
	<circle style="fill:#FFE000;" cx="440.815" cy="358.486" r="13.817"/>
</g>
<g>
</g>
<g>
</g>
<g>
</g>
<g>
</g>
<g>
</g>
<g>
</g>
<g>
</g>
<g>
</g>
<g>
</g>
<g>
</g>
<g>
</g>
<g>
</g>
<g>
</g>
<g>
</g>
<g>
</g>
</svg>
