<?xml version="1.0" encoding="iso-8859-1"?>
<!-- Generator: Adobe Illustrator 19.0.0, SVG Export Plug-In . SVG Version: 6.00 Build 0)  -->
<svg version="1.1" id="Layer_1" xmlns="http://www.w3.org/2000/svg" xmlns:xlink="http://www.w3.org/1999/xlink" x="0px" y="0px"
	 viewBox="0 0 512 512" style="enable-background:new 0 0 512 512;" xml:space="preserve">
<path style="fill:#FF9600;" d="M255.999,415.999c111.625,0,202.667-91.041,202.667-202.664
	c0-111.626-91.042-202.668-202.667-202.668c-111.624,0-202.666,91.042-202.666,202.668
	C53.333,324.958,144.375,415.999,255.999,415.999z"/>
<g>
	<path style="fill:#000003;" d="M469.333,213.335c0-5.675-0.227-11.297-0.665-16.861c0-0.004,0-0.007,0-0.012
		c-7.563-96.2-79.221-174.655-172.172-192.591c-0.423-0.111-0.854-0.193-1.296-0.249C282.488,1.253,269.388,0,255.999,0
		c-34.586,0-67.269,8.282-96.188,22.951c-0.795,0.298-1.541,0.685-2.233,1.153C103.537,52.326,63.022,103.02,48.508,163.708
		c-0.146,0.461-0.259,0.926-0.34,1.396c-3.598,15.503-5.501,31.649-5.501,48.23c0,46.721,15.108,89.973,40.682,125.152
		c0.45,0.832,1.012,1.602,1.674,2.293c32.609,43.635,81.507,74.417,137.599,83.268c0.247,0.051,0.497,0.091,0.747,0.124
		c10.641,1.641,21.539,2.494,32.632,2.494c50.733,0,97.376-17.811,134.032-47.493c0.846-0.512,1.621-1.143,2.304-1.886
		C439.354,338.123,469.333,279.167,469.333,213.335z M406.553,332.352c2.662-19.023,1.854-39.047-2.444-59.905
		c-6.562-31.835-21.052-64.898-43.071-98.273c-2.073-3.141-4.223-6.268-6.411-9.386c23.93-14.999,50.339-22.726,92.994,36.638
		c0.242,3.94,0.379,7.908,0.379,11.908C448,258.251,432.49,299.612,406.553,332.352z M440.396,159.8
		c-16.247-15.937-32.188-24.711-48.202-26.61c-19.171-2.271-35.4,5.167-50.264,14.464c-9.738-12.48-20.295-24.619-31.475-36.189
		c5.287-3.369,10.475-6.492,15.537-9.341c5.134-2.89,6.955-9.393,4.064-14.527c-2.89-5.134-9.396-6.951-14.527-4.065
		c-6.686,3.762-13.573,7.97-20.608,12.576c-8.706-8.196-17.698-16.006-26.881-23.354c21.191-14.47,33.51-25.012,36.085-45.313
		C369.579,44.398,421.583,95.104,440.396,159.8z M283.17,23.264c-1.134,13.429-8.854,19.59-33.111,35.893
		c-18.276-12.983-35.752-22.843-51.362-29.089c18.105-5.674,37.354-8.735,57.303-8.735C265.221,21.333,274.29,22.001,283.17,23.264z
		 M68.642,171.326c5.596-7.557,32.343-40.839,73.086-46.483c8.026-1.113,24.696-4.033,46.164-11.097
		c5.596-1.842,8.64-7.871,6.798-13.467c-1.842-5.595-7.866-8.64-13.467-6.798c-19.874,6.54-35.111,9.217-42.423,10.23
		c-21.496,2.977-39.549,12.03-53.657,22.09c17.996-34.986,46.431-63.751,81.156-82.18c18.612,0.802,49.094,15.756,80.581,39.669
		c10.281,7.808,20.333,16.278,30.045,25.227c-33.956,24.57-70.344,57.193-104.226,93.767
		c-36.597,39.505-65.849,78.76-81.685,109.141C73.869,282.699,64,249.15,64,213.335C64,198.908,65.611,184.852,68.642,171.326z
		 M245.501,405.042c10.497-15.172,21.697-38.069,31.028-76.337c1.394-5.724-2.114-11.494-7.838-12.891
		c-5.727-1.392-11.493,2.113-12.891,7.837c-10.878,44.616-23.979,65.704-34.961,78.445c-46.767-8.691-87.636-34.379-115.92-70.402
		c12.617-29.036,43.96-72.308,83.427-114.911c34.039-36.744,70.521-69.277,104.153-93.199c11.227,11.421,21.825,23.455,31.573,35.85
		c-21.864,14.56-39.237,27.992-51.527,77.635c-1.417,5.718,2.073,11.502,7.79,12.917c0.863,0.213,1.723,0.315,2.573,0.315
		c4.787,0,9.143-3.248,10.346-8.106c10.51-42.459,23.127-52.052,43.575-65.627c2.186,3.106,4.335,6.222,6.402,9.354
		c30.346,45.998,60.387,113.838,32.664,177.256c-32.88,26.359-74.576,42.154-119.897,42.154
		C252.476,405.332,248.979,405.23,245.501,405.042z"/>
	<path style="fill:#000003;" d="M350.99,88.945c1.292,0,2.606-0.237,3.882-0.735c1.571-0.614,3.127-1.197,4.627-1.73
		c5.55-1.978,8.448-8.077,6.47-13.627c-1.975-5.551-8.079-8.444-13.627-6.47c-1.705,0.607-3.467,1.267-5.239,1.959
		c-5.486,2.146-8.194,8.333-6.05,13.819C342.7,86.371,346.726,88.945,350.99,88.945z"/>
	<path style="fill:#000003;" d="M212.892,103.302c1.462,0,2.949-0.303,4.369-0.942c1.754-0.788,3.509-1.603,5.268-2.436
		c5.324-2.523,7.594-8.883,5.072-14.207c-2.523-5.324-8.883-7.595-14.207-5.072c-1.63,0.773-3.26,1.53-4.883,2.259
		c-5.373,2.417-7.77,8.731-5.353,14.103C204.935,100.959,208.822,103.302,212.892,103.302z"/>
	<path style="fill:#000003;" d="M278.665,258.77c-5.808-0.994-11.32,2.897-12.321,8.703c-0.363,2.101-0.644,3.812-0.933,5.621
		c-0.935,5.817,3.023,11.29,8.839,12.223c0.573,0.093,1.141,0.138,1.704,0.138c5.146,0,9.677-3.734,10.518-8.977
		c0.279-1.733,0.548-3.372,0.896-5.386C288.367,265.286,284.471,259.769,278.665,258.77z"/>
	<path style="fill:#000003;" d="M362.665,490.667l-213.334-0.004c-5.89,0-10.667,4.777-10.667,10.667
		c0,5.89,4.775,10.667,10.667,10.667L362.665,512c5.889,0,10.667-4.775,10.667-10.667S368.556,490.667,362.665,490.667z"/>
</g>
<g>
</g>
<g>
</g>
<g>
</g>
<g>
</g>
<g>
</g>
<g>
</g>
<g>
</g>
<g>
</g>
<g>
</g>
<g>
</g>
<g>
</g>
<g>
</g>
<g>
</g>
<g>
</g>
<g>
</g>
</svg>
