<?xml version="1.0" encoding="iso-8859-1"?>
<!-- Generator: Adobe Illustrator 19.0.0, SVG Export Plug-In . SVG Version: 6.00 Build 0)  -->
<svg version="1.1" id="Layer_1" xmlns="http://www.w3.org/2000/svg" xmlns:xlink="http://www.w3.org/1999/xlink" x="0px" y="0px"
	 viewBox="0 0 512.001 512.001" style="enable-background:new 0 0 512.001 512.001;" xml:space="preserve">
<g>
	<path style="fill:#009FD3;" d="M437.332,10.669h42.667c11.736,0,21.333,9.597,21.333,21.333l0,0
		c0,11.735-9.598,21.331-21.333,21.331h-42.667c-11.733,0-21.333-9.596-21.333-21.331l0,0
		C415.998,20.265,425.598,10.669,437.332,10.669z"/>
	<polygon style="fill:#00E588;" points="10.667,95.999 394.669,95.999 383.236,138.662 22.102,138.662 	"/>
	<polygon style="fill:#009FD3;" points="39.251,138.662 366.086,138.662 331.786,266.671 67.003,242.23 	"/>
	<path style="fill:#FF9600;" d="M116.981,415.998c17.625,0,32-14.375,32-32.002c0-17.621-14.375-31.996-32-31.996
		s-31.999,14.375-31.999,31.996C84.982,401.622,99.356,415.998,116.981,415.998z"/>
	<path style="fill:#FFD72E;" d="M116.981,394.664c5.875,0,10.667-4.791,10.667-10.669c0-5.873-4.791-10.665-10.667-10.665
		c-5.873,0-10.665,4.791-10.665,10.665C106.316,389.873,111.108,394.664,116.981,394.664z"/>
	<path style="fill:#FF2C47;" d="M279.448,309.327c4.533,115.26,39.362,150.822,110.69,192.004
		c76.7-44.285,111.191-82.075,111.191-219.461c-42.394,0-60.597-49.748-111.191-49.748c-23.402,0-39.871,10.638-55.012,22.075
		l-3.34,12.474l-11.642-1.077c-0.057,0.044-0.112,0.087-0.175,0.122c-12.25,8.937-24.883,16.155-41.029,16.155
		C278.94,291.496,279.111,300.638,279.448,309.327z"/>
</g>
<g>
	<path style="fill:#000003;" d="M185.06,191.999h6.4c5.89,0,10.667-4.775,10.667-10.667c0-5.89-4.777-10.667-10.667-10.667h-6.4
		c-5.891,0-10.667,4.777-10.667,10.667S179.17,191.999,185.06,191.999z"/>
	<path style="fill:#000003;" d="M501.33,271.203c-16.623,0-29.248-9.734-43.867-21.006c-17.471-13.472-37.273-28.741-67.325-28.741
		c-14.665,0-26.883,3.641-37.585,8.928l21.716-81.054h8.966c4.827,0,9.052-3.243,10.302-7.905l11.434-42.663
		c0.859-3.203,0.179-6.624-1.84-9.255c-2.019-2.63-5.146-4.173-8.463-4.173h-3.252l8.727-32.567c1.252-4.674,2.102-7.842,7.335-9.26
		C412.112,55.48,423.742,64,437.332,64h42.667c17.646,0,32.002-14.354,32.002-31.998c0-17.645-14.356-32-32.002-32h-42.667
		c-14.138,0-26.155,9.22-30.378,21.959c-18.844,2.844-24.594,14.743-27.417,25.282l-10.206,38.089H10.667
		c-3.316,0-6.444,1.542-8.463,4.174c-2.019,2.63-2.699,6.051-1.841,9.254l11.435,42.663c1.25,4.662,5.476,7.905,10.303,7.905h8.964
		l26.464,98.765c0.023,0.091,0.058,0.177,0.083,0.266c0.049,0.162,0.097,0.325,0.153,0.484c0.06,0.171,0.127,0.337,0.195,0.503
		c0.05,0.125,0.098,0.252,0.154,0.375c0.27,0.601,0.592,1.166,0.958,1.694c0.02,0.03,0.045,0.059,0.065,0.089
		c0.165,0.234,0.339,0.46,0.522,0.676c0.051,0.063,0.107,0.121,0.159,0.181c0.157,0.179,0.319,0.354,0.487,0.522
		c0.073,0.071,0.147,0.144,0.222,0.213c0.156,0.147,0.317,0.288,0.481,0.425c0.09,0.074,0.178,0.15,0.27,0.222
		c0.162,0.126,0.331,0.244,0.5,0.362c0.097,0.067,0.191,0.139,0.289,0.202c0.253,0.162,0.513,0.315,0.778,0.455
		c0.114,0.061,0.235,0.112,0.353,0.17c0.171,0.082,0.341,0.164,0.517,0.239c0.126,0.052,0.255,0.1,0.384,0.148
		c0.183,0.068,0.369,0.133,0.556,0.192c0.116,0.036,0.234,0.071,0.351,0.105c0.237,0.065,0.477,0.121,0.719,0.17
		c0.074,0.015,0.147,0.032,0.221,0.046c0.355,0.065,0.715,0.112,1.078,0.14l206.543,16.697c-3.163,1.851-5.294,5.274-5.294,9.203
		c0,5.765,0.065,11.35,0.183,16.79H84.982c-5.89,0-10.667,4.775-10.667,10.667c0,5.89,4.777,10.667,10.667,10.667h29.531
		l-5.94,22.172c-19.511,3.917-34.256,21.182-34.256,41.83c0,23.527,19.137,42.667,42.661,42.669c0.001,0,0.001,0,0.002,0h53.335
		c5.89,0,10.667-4.777,10.667-10.667s-4.777-10.667-10.667-10.667h-16.407c3.643-6.282,5.741-13.566,5.741-21.335
		c0-18.873-12.323-34.912-29.341-40.524l6.291-23.478h132.683c6.186,109.179,41.394,147.775,115.525,190.575
		c1.65,0.954,3.491,1.429,5.333,1.429c1.842,0,3.683-0.476,5.333-1.429c82.173-47.444,116.525-89.707,116.525-228.699
		C511.996,275.978,507.22,271.203,501.33,271.203z M437.332,21.335h42.667c5.884,0,10.669,4.785,10.669,10.667
		c0,5.881-4.785,10.665-10.669,10.665h-42.667c-5.882,0-10.667-4.784-10.667-10.665C426.665,26.12,431.45,21.335,437.332,21.335z
		 M138.314,383.996c0,11.764-9.57,21.335-21.333,21.335c-11.762,0-21.332-9.571-21.332-21.335c0-11.743,9.537-21.297,21.271-21.33
		c0.02,0,0.044,0.004,0.065,0.004c0.026,0,0.051-0.003,0.077-0.003C128.788,362.71,138.314,372.259,138.314,383.996z
		 M377.476,106.665c0.017,0,0.031,0.003,0.048,0.003c0.025,0,0.05-0.003,0.075-0.003h3.169l-5.716,21.33H30.286l-5.716-21.33
		H377.476z M352.184,149.329l-5.716,21.337H226.656c-5.89,0-10.667,4.777-10.667,10.667c0,5.891,4.777,10.667,10.667,10.667H340.75
		l-5.714,21.331h-55.814c-5.891,0-10.667,4.777-10.667,10.667s4.775,10.667,10.667,10.667h50.098l-3.552,13.258
		c-0.994,0.763-1.979,1.522-2.958,2.276c-2.022,1.559-4.004,3.085-5.967,4.563L76.189,235.308L53.152,149.33h299.033V149.329z
		 M390.138,488.985c-66.577-39.201-98.877-74.261-100.468-197.35c18.409-3.14,32.483-13.994,46.166-24.544
		c16.208-12.498,31.519-24.303,54.302-24.303c22.781,0,38.092,11.805,54.3,24.303c13.681,10.55,27.756,21.403,46.162,24.544
		C489.009,414.725,456.713,449.785,390.138,488.985z"/>
	<path style="fill:#000003;" d="M418.407,414.095c-6.867,8.099-16.153,16.156-28.269,24.51
		c-12.116-8.354-21.402-16.41-28.273-24.511c-3.808-4.491-10.542-5.044-15.036-1.236c-4.492,3.81-5.045,10.541-1.235,15.035
		c9.419,11.108,21.725,21.433,38.727,32.49c1.769,1.15,3.792,1.725,5.817,1.725c2.022,0,4.048-0.575,5.814-1.725
		c17.006-11.06,29.311-21.386,38.725-32.49c15.004-17.692,24.825-41.663,30.025-73.283c0.956-5.813-2.981-11.301-8.794-12.256
		c-5.823-0.963-11.3,2.981-12.256,8.794C439.098,378.844,430.84,399.434,418.407,414.095z"/>
	<path style="fill:#000003;" d="M457.013,330.407c0.247,0.017,0.492,0.025,0.736,0.025c5.561,0,10.247-4.311,10.631-9.941
		c0.153-2.221,0.169-2.671,0.212-3.708c0.017-0.455,0.042-1.038,0.087-2c0.277-5.885-4.267-10.88-10.153-11.159
		c-5.923-0.241-10.881,4.267-11.158,10.151c-0.048,1.034-0.075,1.659-0.094,2.147c-0.035,0.871-0.052,1.25-0.179,3.119
		C446.696,324.917,451.137,330.007,457.013,330.407z"/>
</g>
<g>
</g>
<g>
</g>
<g>
</g>
<g>
</g>
<g>
</g>
<g>
</g>
<g>
</g>
<g>
</g>
<g>
</g>
<g>
</g>
<g>
</g>
<g>
</g>
<g>
</g>
<g>
</g>
<g>
</g>
</svg>
