<?xml version="1.0" encoding="iso-8859-1"?>
<!-- Generator: Adobe Illustrator 19.0.0, SVG Export Plug-In . SVG Version: 6.00 Build 0)  -->
<svg version="1.1" id="Layer_1" xmlns="http://www.w3.org/2000/svg" xmlns:xlink="http://www.w3.org/1999/xlink" x="0px" y="0px"
	 viewBox="0 0 512 512" style="enable-background:new 0 0 512 512;" xml:space="preserve">
<rect x="294.538" y="8.258" style="fill:#E7ECED;" width="55.054" height="33.032"/>
<g>
	<rect x="294.538" y="41.29" style="fill:#546A79;" width="55.054" height="33.032"/>
	<polygon style="fill:#546A79;" points="333.075,123.871 256,200.946 178.925,123.871 	"/>
</g>
<polygon style="fill:#E7ECED;" points="382.624,74.323 333.075,123.871 178.925,123.871 129.376,74.323 294.538,74.323 
	349.591,74.323 "/>
<rect x="129.376" y="261.505" style="fill:#546A79;" width="253.247" height="121.118"/>
<g>
	<rect x="129.376" y="382.624" style="fill:#FFD248;" width="253.247" height="121.118"/>
	<polygon style="fill:#FFD248;" points="382.624,74.323 382.624,261.505 129.376,261.505 129.376,74.323 178.925,123.871 
		256,200.946 333.075,123.871 	"/>
</g>
<rect x="129.376" y="261.505" style="fill:#465966;" width="126.624" height="121.118"/>
<g>
	<rect x="129.376" y="382.624" style="fill:#FCB746;" width="126.624" height="121.118"/>
	<polygon style="fill:#FCB746;" points="256,200.946 178.925,123.871 129.376,74.323 129.376,261.505 256,261.505 	"/>
</g>
<g>
	<rect x="156.903" y="418.409" style="fill:#FFFFFF;" width="27.527" height="16.516"/>
	<rect x="327.57" y="451.441" style="fill:#FFFFFF;" width="27.527" height="16.516"/>
	<rect x="300.043" y="429.419" style="fill:#FFFFFF;" width="27.527" height="16.516"/>
	<rect x="316.559" y="308.301" style="fill:#FFFFFF;" width="22.022" height="16.516"/>
</g>
<path d="M357.849,66.065V0h-71.57v66.065H121.118V156.9h16.516V94.26L256,212.624L374.366,94.26v280.106H137.634v-49.548h156.903
	v-16.516H137.634v-38.538h217.462v-16.516H137.634v-74.323h-16.516V512h151.395v-16.516H137.634V390.882h236.731v104.602h-74.325
	V512h90.841V66.065H357.849z M302.796,49.548h38.538v16.516h-38.538V49.548z M341.333,16.516v16.516h-38.538V16.516H341.333z
	 M362.686,82.581l-33.032,33.032H182.346l-33.032-33.032H362.686z M198.862,132.129h114.276L256,189.268L198.862,132.129z"/>
<rect x="156.903" y="451.441" width="27.527" height="16.516"/>
<g>
</g>
<g>
</g>
<g>
</g>
<g>
</g>
<g>
</g>
<g>
</g>
<g>
</g>
<g>
</g>
<g>
</g>
<g>
</g>
<g>
</g>
<g>
</g>
<g>
</g>
<g>
</g>
<g>
</g>
</svg>
