<?xml version="1.0" encoding="iso-8859-1"?>
<!-- Generator: Adobe Illustrator 19.0.0, SVG Export Plug-In . SVG Version: 6.00 Build 0)  -->
<svg version="1.1" id="Layer_1" xmlns="http://www.w3.org/2000/svg" xmlns:xlink="http://www.w3.org/1999/xlink" x="0px" y="0px"
	 viewBox="0 0 480 480" style="enable-background:new 0 0 480 480;" xml:space="preserve">
<g>
	<g>
		<g>
			<path d="M207.843,363.631c4.651,3.445,16.871,21.81,26.721,40.252c1.745,3.266,5.143,5.289,8.819,5.289
				c0.165,0,0.33-0.004,0.496-0.012c3.864-0.191,7.271-2.594,8.749-6.17c7.469-18.085,17.497-36.249,21.906-39.794
				c86.214-16.475,148.685-91.999,148.685-179.962C423.219,82.198,341.027,0,240,0S56.781,82.198,56.781,183.233
				c0,43.473,15.506,85.624,43.66,118.689C128.044,334.338,166.149,356.225,207.843,363.631z M240,20
				c89.999,0,163.219,73.226,163.219,163.233c0,78.661-56.065,146.153-133.306,160.481c-5.835,1.079-12.913,5.308-25.088,28.75
				c-0.845,1.627-1.663,3.247-2.443,4.829c-1.077-1.78-2.208-3.615-3.374-5.459c-13.616-21.554-20.554-26.677-26.769-27.737
				c-78.49-13.478-135.458-81.13-135.458-160.863C76.781,93.226,150.001,20,240,20z"/>
			<path d="M321.907,371.266c-5.386-1.206-10.736,2.183-11.943,7.573c-1.207,5.39,2.183,10.737,7.572,11.944
				c38.87,8.705,56.573,22.033,56.573,30.732c0,5.956-9.234,16.028-35.26,24.814C312.733,455.145,277.809,460,240.51,460
				c-37.319,0-72.258-4.855-98.38-13.672c-26.03-8.785-35.266-18.857-35.266-24.814c0-8.02,15.829-20.606,50.583-29.29
				c5.358-1.339,8.617-6.768,7.278-12.126c-1.34-5.358-6.771-8.614-12.126-7.277c-42.391,10.592-65.735,27.886-65.735,48.694
				c0,12.44,8.479,30.131,48.869,43.763C163.863,474.772,201.073,480,240.51,480c39.417,0,76.613-5.228,104.736-14.723
				c40.386-13.633,48.863-31.323,48.863-43.763C394.109,399.539,368.468,381.694,321.907,371.266z"/>
			<path d="M180.314,299.489h116.467c5.522,0,10-4.477,10-10v-83.153h36.569c5.522,0,10-4.477,10-10v-69.884c0-5.523-4.478-10-10-10
				h-36.569V79.868c0-5.523-4.478-10-10-10H180.314c-5.523,0-10,4.477-10,10v209.621
				C170.314,295.012,174.792,299.489,180.314,299.489z M306.782,136.452h26.569v49.884h-26.569V136.452z M190.314,89.868h96.467
				v36.584v36.584h-11.516c-0.211-0.373-0.439-0.74-0.702-1.092l-38.933-51.899c-3.313-4.418-9.582-5.313-14-1.998
				c-4.418,3.314-5.313,9.582-1.998,14l30.748,40.989h-60.066V89.868z M190.314,183.036h96.467v13.3v83.153h-96.467V183.036z"/>
		</g>
	</g>
</g>
<g>
</g>
<g>
</g>
<g>
</g>
<g>
</g>
<g>
</g>
<g>
</g>
<g>
</g>
<g>
</g>
<g>
</g>
<g>
</g>
<g>
</g>
<g>
</g>
<g>
</g>
<g>
</g>
<g>
</g>
</svg>
