<?xml version="1.0" encoding="iso-8859-1"?>
<!-- Generator: Adobe Illustrator 19.0.0, SVG Export Plug-In . SVG Version: 6.00 Build 0)  -->
<svg version="1.1" id="Layer_1" xmlns="http://www.w3.org/2000/svg" xmlns:xlink="http://www.w3.org/1999/xlink" x="0px" y="0px"
	 viewBox="0 0 480 480" style="enable-background:new 0 0 480 480;" xml:space="preserve">
<path style="fill:#FADFD6;" d="M339.272,176h5.152c19.56,0,38.312,4.568,55.208,12.512C393.848,87.824,312.512,8,210.336,8h-8
	C96.296,8,8,93.96,8,200v272h208V298.464C216,230.184,271,176,339.272,176z"/>
<path style="fill:#E66032;" d="M399.64,188.512c0.216,3.808,0.36,7.632,0.36,11.488v128c0,8.84-4.832,16-13.664,16h-80
	c-8.84,0-18.336,7.16-18.336,16v112h104v-70.52c0-5.688,8.552-9.48,14.24-9.48h51.512c5.688,0,14.248-5.432,14.248-11.12v-82.416
	C472,249.736,441.744,208.32,399.64,188.512z"/>
<path style="fill:#F0A084;" d="M306.336,344h80c8.832,0,13.664-7.16,13.664-16V200c0-3.856-0.144-7.68-0.36-11.488
	C382.736,180.568,363.984,176,344.424,176h-5.152C271,176,216,230.184,216,298.464V472h72V360C288,351.16,297.496,344,306.336,344z"
	/>
<path style="fill:#4D4D4D;" d="M407.248,183.432C398.952,80.208,313.368,0,210.336,0h-8C90.768,0,0,89.72,0,200v272
	c0,4.424,3.576,8,8,8h208h72h104c4.424,0,8-3.576,8-8v-69.776c1.008-0.944,3.944-2.224,6.24-2.224h51.504
	c8.968,0,22.256-8.032,22.256-19.128v-82.408C480,250.776,451.568,206.152,407.248,183.432z M208,298.464V464H16V200
	C16,98.536,99.592,16,202.336,16h8c91.792,0,168.568,69.32,180.128,160.072c-0.296-0.104-0.608-0.176-0.904-0.28
	c-1.104-0.384-2.216-0.68-3.328-1.04c-3.304-1.072-6.632-2.032-9.984-2.848c-1.48-0.36-2.968-0.672-4.464-0.984
	c-3.168-0.656-6.36-1.184-9.56-1.616c-1.384-0.184-2.76-0.4-4.152-0.544c-4.528-0.464-9.072-0.76-13.64-0.76h-5.16
	C266.888,168,208,226.52,208,298.464z M280,360v104h-56V298.464C224,235.344,275.712,184,339.272,184h5.16
	c4.264,0,8.504,0.256,12.712,0.712c1.392,0.152,2.776,0.44,4.16,0.64c2.808,0.4,5.608,0.816,8.392,1.416
	c1.64,0.36,3.264,0.848,4.896,1.272c2.504,0.656,5,1.32,7.48,2.136c1.696,0.56,3.368,1.224,5.048,1.864
	c1.576,0.6,3.136,1.248,4.696,1.912C391.88,195.968,392,197.968,392,200v128c0,2.408-0.552,8-5.664,8h-80
	C293.88,336,280,345.856,280,360z M457.752,384H406.24c-9.088,0-22.24,6.224-22.24,17.488V464h-88V360c0-3.816,5.408-8,10.336-8h80
	c12.76,0,21.664-9.864,21.664-24V202.056c34.848,21.08,56,56.976,56,96.408l0.088,81.84C463.512,381.64,459.76,384,457.752,384z"/>
<path style="fill:#FCB641;" d="M312.664,185.72c0-53.528-44.88-96.92-98.408-96.92s-97.408,43.392-97.408,96.92
	c0,40.312,27.152,74.856,59.152,89.464V296h80v-20.808C288,260.584,312.664,226.032,312.664,185.72z"/>
<rect x="176" y="296" style="fill:#E66032;" width="80" height="24"/>
<g>
	<path style="fill:#4D4D4D;" d="M214.256,80.808c-58.128,0-105.416,47.064-105.416,104.912c0,44.408,28.992,78.728,59.16,94.464V296
		v24c0,4.424,3.576,8,8,8v8c0,4.424,3.576,8,8,8s8-3.576,8-8v-8h48v8c0,4.424,3.576,8,8,8s8-3.576,8-8v-8c4.424,0,8-3.576,8-8v-24
		v-15.824c34.096-17.824,56.664-55.12,56.664-94.464C320.664,127.864,272.928,80.808,214.256,80.808z M248,312h-64v-8h64V312z
		 M252.68,267.904c-2.848,1.304-4.68,4.152-4.68,7.28V288h-64v-12.816c0-3.136-1.832-5.976-4.68-7.28
		c-26.232-11.976-54.48-42.808-54.48-82.184c0-49.032,40.112-88.912,89.416-88.912c49.848,0,90.408,39.88,90.408,88.912
		C304.664,220.688,283.776,253.712,252.68,267.904z"/>
	<path style="fill:#4D4D4D;" d="M253.984,158.776c-6.856,0-13.2,2.04-18.64,5.408c-5.44-3.368-11.784-5.408-18.64-5.408
		c-6.968,0-13.424,2.088-18.92,5.568c-5.496-3.48-11.952-5.568-18.92-5.568c-19.616,0-35.576,15.96-35.576,35.576
		c0,4.424,3.576,8,8,8s8-3.576,8-8c0-10.8,8.784-19.576,19.576-19.576c2.616,0,5.104,0.536,7.392,1.472
		c-3.176,5.32-5.12,11.472-5.12,18.104c0,4.424,3.576,8,8,8s8-3.576,8-8c0-1.656,0.272-3.232,0.656-4.768
		c0.384,1.536,0.656,3.112,0.656,4.768c0,4.424,3.576,8,8,8s8-3.576,8-8c0-6.64-1.944-12.784-5.12-18.104
		c2.28-0.936,4.768-1.472,7.392-1.472c2.44,0,4.744,0.504,6.904,1.32c-3.232,5.36-5.208,11.56-5.208,18.256c0,4.424,3.576,8,8,8
		s8-3.576,8-8c0-1.992,0.384-3.872,0.944-5.688c0.552,1.808,0.944,3.696,0.944,5.688c0,4.424,3.576,8,8,8c4.424,0,8-3.576,8-8
		c0-6.696-1.976-12.904-5.208-18.256c2.152-0.816,4.464-1.32,6.904-1.32c10.8,0,19.576,8.784,19.576,19.576c0,4.424,3.576,8,8,8
		s8-3.576,8-8C289.56,174.736,273.6,158.776,253.984,158.776z"/>
</g>
<g>
</g>
<g>
</g>
<g>
</g>
<g>
</g>
<g>
</g>
<g>
</g>
<g>
</g>
<g>
</g>
<g>
</g>
<g>
</g>
<g>
</g>
<g>
</g>
<g>
</g>
<g>
</g>
<g>
</g>
</svg>
