<?xml version="1.0" encoding="iso-8859-1"?>
<!-- Generator: Adobe Illustrator 17.1.0, SVG Export Plug-In . SVG Version: 6.00 Build 0)  -->
<!DOCTYPE svg PUBLIC "-//W3C//DTD SVG 1.1//EN" "http://www.w3.org/Graphics/SVG/1.1/DTD/svg11.dtd">
<svg version="1.1" id="Capa_1" xmlns="http://www.w3.org/2000/svg" xmlns:xlink="http://www.w3.org/1999/xlink" x="0px" y="0px"
	 viewBox="0 0 464 464" style="enable-background:new 0 0 464 464;" xml:space="preserve">
<path d="M400,151.906h-55.938v-7.702c0-8.823-7.178-16-16-16h-47.5c-8.822,0-16,7.177-16,16v7.702h-81.188v-7.702
	c0-8.823-7.178-16-16-16h-47.5c-8.822,0-16,7.177-16,16v7.702H64c-35.29,0-64,28.71-64,64v31.535
	c0,26.774,16.533,49.748,39.921,59.282c1.651,16.306,15.458,29.074,32.192,29.074c9.704,0,18.417-4.302,24.351-11.091
	c5.936,6.79,14.651,11.091,24.357,11.091c15.078,0,27.778-10.371,31.348-24.356h145.81c3.571,13.984,16.274,24.356,31.354,24.356
	c9.704,0,18.417-4.302,24.351-11.091c5.936,6.79,14.651,11.091,24.357,11.091c15.333,0,28.199-10.728,31.513-25.072
	C440.328,306.098,464,279.484,464,247.441v-31.535C464,180.616,435.29,151.906,400,151.906z M280.563,144.203h47.5v7.702h-47.5
	V144.203z M119.875,144.203h47.5v7.702h-47.5V144.203z M72.112,319.797c-6.242,0-11.674-3.517-14.43-8.67
	c2.079,0.205,4.186,0.314,6.318,0.314h22.358C83.552,316.421,78.222,319.797,72.112,319.797z M120.82,319.797
	c-6.113,0-11.445-3.376-14.252-8.356h28.498C132.26,316.421,126.93,319.797,120.82,319.797z M329.333,319.797
	c-6.113,0-11.445-3.376-14.252-8.356h28.498C340.773,316.421,335.443,319.797,329.333,319.797z M378.041,319.797
	c-6.113,0-11.445-3.376-14.252-8.356h28.498C389.481,316.421,384.151,319.797,378.041,319.797z M448,247.441
	c0,26.467-21.532,48-48,48h-46.287c-0.01,0-0.019-0.001-0.029-0.001s-0.019,0.001-0.029,0.001h-1.53V191.977c0-4.418-3.582-8-8-8
	s-8,3.582-8,8v103.464h-223.75V191.977c0-4.418-3.582-8-8-8s-8,3.582-8,8v103.464H64c-26.468,0-48-21.533-48-48v-31.535
	c0-26.467,21.532-48,48-48h336c26.468,0,48,21.533,48,48V247.441z"/>
<g>
</g>
<g>
</g>
<g>
</g>
<g>
</g>
<g>
</g>
<g>
</g>
<g>
</g>
<g>
</g>
<g>
</g>
<g>
</g>
<g>
</g>
<g>
</g>
<g>
</g>
<g>
</g>
<g>
</g>
</svg>
