<?xml version="1.0" encoding="iso-8859-1"?>
<!-- Generator: Adobe Illustrator 19.0.0, SVG Export Plug-In . SVG Version: 6.00 Build 0)  -->
<svg version="1.1" id="Layer_1" xmlns="http://www.w3.org/2000/svg" xmlns:xlink="http://www.w3.org/1999/xlink" x="0px" y="0px"
	 viewBox="0 0 512 512" style="enable-background:new 0 0 512 512;" xml:space="preserve">
<rect x="10.667" y="98.667" style="fill:#EFEFEF;" width="490.667" height="378.667"/>
<g>
	<rect x="102.133" y="34.667" style="fill:#5A6B96;" width="64" height="64"/>
	<rect x="345.867" y="34.667" style="fill:#5A6B96;" width="64" height="64"/>
</g>
<g>
	<rect x="169.141" y="221.333" style="fill:#45CCFF;" width="57.909" height="53.333"/>
	<rect x="227.051" y="221.333" style="fill:#45CCFF;" width="57.909" height="53.333"/>
	<rect x="284.949" y="221.333" style="fill:#45CCFF;" width="57.909" height="53.333"/>
</g>
<g>
	<rect x="342.859" y="221.333" style="fill:#FF7D46;" width="57.909" height="53.333"/>
	<rect x="400.757" y="221.333" style="fill:#FF7D46;" width="57.909" height="53.333"/>
</g>
<g>
	<rect x="53.333" y="274.667" style="fill:#45CCFF;" width="57.909" height="53.333"/>
	<rect x="111.243" y="274.667" style="fill:#45CCFF;" width="57.909" height="53.333"/>
	<rect x="169.141" y="274.667" style="fill:#45CCFF;" width="57.909" height="53.333"/>
	<rect x="227.051" y="274.667" style="fill:#45CCFF;" width="57.909" height="53.333"/>
	<rect x="284.949" y="274.667" style="fill:#45CCFF;" width="57.909" height="53.333"/>
</g>
<g>
	<rect x="342.859" y="274.667" style="fill:#FF7D46;" width="57.909" height="53.333"/>
	<rect x="400.757" y="274.667" style="fill:#FF7D46;" width="57.909" height="53.333"/>
</g>
<g>
	<rect x="53.333" y="328" style="fill:#45CCFF;" width="57.909" height="53.333"/>
	<rect x="111.243" y="328" style="fill:#45CCFF;" width="57.909" height="53.333"/>
	<rect x="169.141" y="328" style="fill:#45CCFF;" width="57.909" height="53.333"/>
	<rect x="227.051" y="328" style="fill:#45CCFF;" width="57.909" height="53.333"/>
	<rect x="284.949" y="328" style="fill:#45CCFF;" width="57.909" height="53.333"/>
</g>
<g>
	<rect x="342.859" y="328" style="fill:#FF7D46;" width="57.909" height="53.333"/>
	<rect x="400.757" y="328" style="fill:#FF7D46;" width="57.909" height="53.333"/>
</g>
<g>
	<rect x="53.333" y="381.333" style="fill:#45CCFF;" width="57.909" height="53.333"/>
	<rect x="111.243" y="381.333" style="fill:#45CCFF;" width="57.909" height="53.333"/>
	<rect x="169.141" y="381.333" style="fill:#45CCFF;" width="57.909" height="53.333"/>
	<rect x="227.051" y="381.333" style="fill:#45CCFF;" width="57.909" height="53.333"/>
</g>
<g>
	<path style="fill:#231F20;" d="M327.726,189.333h1.067c5.89,0,10.667-4.775,10.667-10.667c0-5.891-4.777-10.667-10.667-10.667
		h-1.067c-5.89,0-10.667,4.775-10.667,10.667C317.059,184.558,321.835,189.333,327.726,189.333z"/>
	<path style="fill:#231F20;" d="M501.333,88h-80.8V34.667c0-5.891-4.777-10.667-10.667-10.667h-64
		c-5.89,0-10.667,4.775-10.667,10.667V88H176.8V34.667c0-5.891-4.775-10.667-10.667-10.667h-64c-5.891,0-10.667,4.775-10.667,10.667
		V88h-80.8C4.775,88,0,92.775,0,98.667v80v298.667C0,483.225,4.775,488,10.667,488h490.667c5.89,0,10.667-4.775,10.667-10.667
		V178.667v-80C512,92.775,507.225,88,501.333,88z M356.533,45.333H399.2V88h-42.667V45.333z M112.8,45.333h42.667V88H112.8V45.333z
		 M21.333,466.667V189.333h241.149c5.89,0,10.667-4.775,10.667-10.667c0-5.891-4.777-10.667-10.667-10.667H21.333v-58.667h469.333
		V168h-98.052c-5.89,0-10.667,4.775-10.667,10.667c0,5.891,4.777,10.667,10.667,10.667h98.052v277.333H21.333z"/>
	<path style="fill:#231F20;" d="M458.667,210.667H169.143c-5.891,0-10.667,4.775-10.667,10.667V264H53.333
		c-5.891,0-10.667,4.775-10.667,10.667v160c0,5.891,4.775,10.667,10.667,10.667h231.619c5.89,0,10.667-4.775,10.667-10.667V392
		h163.047c5.89,0,10.667-4.775,10.667-10.667v-160C469.333,215.442,464.558,210.667,458.667,210.667z M237.714,370.667v-32h36.572
		v32H237.714z M64,338.667h36.572v32H64V338.667z M121.905,338.667h36.572v32h-36.572
		C121.905,370.667,121.905,338.667,121.905,338.667z M216.381,285.333v32h-36.572v-32H216.381z M274.286,317.333h-36.572v-32h36.572
		V317.333z M179.81,338.667h36.572v32H179.81V338.667z M295.619,285.333h36.572v32h-36.572V285.333z M353.524,285.333h36.571v32
		h-36.571V285.333z M411.428,285.333H448v32h-36.572V285.333z M448,264h-36.572v-32H448V264z M390.095,264h-36.571v-32h36.571V264z
		 M332.191,264h-36.572v-32h36.572V264z M274.286,264h-36.572v-32h36.572V264z M179.81,232h36.572v32H179.81V232z M158.477,317.333
		h-36.572v-32h36.572V317.333z M64,285.333h36.572v32H64V285.333z M64,392h36.572v32H64V392z M121.905,392h36.572v32h-36.572
		C121.905,424,121.905,392,121.905,392z M179.81,392h36.572v32H179.81V392z M274.286,424h-36.572v-32h36.572V424z M295.619,338.667
		h36.572v32h-36.572V338.667z M353.524,338.667h36.571v32h-36.571V338.667z M448,370.667h-36.572v-32H448V370.667z"/>
</g>
<g>
</g>
<g>
</g>
<g>
</g>
<g>
</g>
<g>
</g>
<g>
</g>
<g>
</g>
<g>
</g>
<g>
</g>
<g>
</g>
<g>
</g>
<g>
</g>
<g>
</g>
<g>
</g>
<g>
</g>
</svg>
