<?xml version="1.0" encoding="iso-8859-1"?>
<!-- Generator: Adobe Illustrator 19.0.0, SVG Export Plug-In . SVG Version: 6.00 Build 0)  -->
<svg version="1.1" id="Layer_1" xmlns="http://www.w3.org/2000/svg" xmlns:xlink="http://www.w3.org/1999/xlink" x="0px" y="0px"
	 viewBox="0 0 392.563 392.563" style="enable-background:new 0 0 392.563 392.563;" xml:space="preserve">
<g>
	<path style="fill:#56ACE0;" d="M350.608,370.754l-108.154-86.562l-39.305,31.354c-4.008,3.168-9.244,3.232-13.576,0l-39.434-31.354
		L42.05,370.754H350.608z"/>
	<polygon style="fill:#56ACE0;" points="183.626,34.981 208.967,34.981 196.297,24.896 	"/>
	<polygon style="fill:#56ACE0;" points="53.622,138.997 28.41,159.166 53.622,179.272 	"/>
	<polygon style="fill:#56ACE0;" points="339.036,179.272 364.183,159.166 339.036,138.997 	"/>
	<polygon style="fill:#56ACE0;" points="370.777,358.924 370.777,181.793 259.909,270.294 	"/>
	<polygon style="fill:#56ACE0;" points="21.88,181.793 21.88,358.924 132.684,270.294 	"/>
</g>
<path style="fill:#FFC10D;" d="M134.107,97.882c0,6.012-4.848,10.925-10.925,10.925H75.408v19.782h22.82
	c6.012,0,10.925,4.848,10.925,10.925c0,6.012-4.848,10.925-10.925,10.925h-22.82v46.352l39.952,31.806
	c7.952-37.43,41.18-65.552,80.873-65.552s72.986,28.121,81.067,65.552l39.952-31.806V56.896H75.472v30.125h47.774
	C129.194,87.021,134.107,91.87,134.107,97.882z M196.297,69.631c22.238,0,40.339,18.101,40.339,40.339s-18.101,40.339-40.339,40.339
	s-40.339-18.101-40.339-40.339S174.058,69.631,196.297,69.631z"/>
<path style="fill:#FFFFFF;" d="M196.297,128.524c10.214,0,18.554-8.339,18.554-18.554s-8.339-18.554-18.554-18.554
	c-10.214,0-18.554,8.339-18.554,18.554C177.743,120.249,186.082,128.524,196.297,128.524z"/>
<path style="fill:#194F82;" d="M196.297,150.375c22.238,0,40.339-18.101,40.339-40.339s-18.101-40.339-40.339-40.339
	s-40.339,18.101-40.339,40.339C155.957,132.209,174.058,150.375,196.297,150.375z M196.297,91.417
	c10.214,0,18.554,8.339,18.554,18.554s-8.339,18.554-18.554,18.554c-10.214,0-18.554-8.339-18.554-18.554
	S186.082,91.417,196.297,91.417z"/>
<path style="fill:#FFFFFF;" d="M196.297,184.831c-29.931,0-54.691,21.657-59.863,50.101h119.79
	C250.988,206.488,226.228,184.831,196.297,184.831z"/>
<polygon style="fill:#FFC10D;" points="241.937,256.718 150.656,256.718 196.297,293.179 "/>
<path style="fill:#194F82;" d="M392.563,158.973c0-3.556-1.875-6.465-4.073-8.339l-49.455-39.564V45.906
	c0-6.012-4.848-10.925-10.925-10.925h-84.234L203.084,2.399c-4.008-3.168-9.632-3.168-13.576,0l-40.792,32.582h-84.17
	c-6.012,0-10.925,4.848-10.925,10.925v65.164L4.103,150.698c-2.909,2.069-4.331,5.947-4.073,8.469v222.448
	c0,6.012,4.848,10.925,10.925,10.925h370.683c6.012,0,10.925-4.849,10.925-10.925V159.166l0,0
	C392.563,159.102,392.563,159.037,392.563,158.973z M339.036,138.997l25.212,20.17l-25.212,20.105V138.997z M196.297,24.896
	l12.671,10.149h-25.341L196.297,24.896z M75.472,150.375h22.82c6.012,0,10.925-4.848,10.925-10.925s-4.848-10.925-10.925-10.925
	h-22.82v-19.782h47.774c6.012,0,10.925-4.848,10.925-10.925c0-6.077-4.848-10.925-10.925-10.925H75.472V56.766H317.25v139.895
	l-39.952,31.935c-8.016-37.43-41.244-65.552-81.002-65.552s-72.921,28.121-81.002,65.552l-39.952-31.806v-46.416H75.472z
	 M150.656,256.718h91.345l-45.705,36.461L150.656,256.718L150.656,256.718z M136.434,234.932
	c5.172-28.444,29.996-50.101,59.863-50.101s54.691,21.657,59.863,50.101H136.434z M53.622,138.997v40.275L28.41,159.166
	L53.622,138.997z M21.88,181.793l110.804,88.501L21.88,358.924V181.793z M42.05,370.754l108.089-86.497l39.305,31.354
	c4.331,3.232,9.568,3.168,13.576,0l39.305-31.354l108.089,86.497H42.05z M370.777,358.924l-110.869-88.63l110.804-88.501v177.131
	H370.777z"/>
<g>
</g>
<g>
</g>
<g>
</g>
<g>
</g>
<g>
</g>
<g>
</g>
<g>
</g>
<g>
</g>
<g>
</g>
<g>
</g>
<g>
</g>
<g>
</g>
<g>
</g>
<g>
</g>
<g>
</g>
</svg>
