<?xml version="1.0" encoding="iso-8859-1"?>
<!-- Generator: Adobe Illustrator 19.0.0, SVG Export Plug-In . SVG Version: 6.00 Build 0)  -->
<svg version="1.1" id="Layer_1" xmlns="http://www.w3.org/2000/svg" xmlns:xlink="http://www.w3.org/1999/xlink" x="0px" y="0px"
	 viewBox="0 0 392.598 392.598" style="enable-background:new 0 0 392.598 392.598;" xml:space="preserve">
<g>
	<polygon style="fill:#56ACE0;" points="290.133,21.85 102.529,21.85 94.901,43.313 297.762,43.313 	"/>
	<polygon style="fill:#56ACE0;" points="344.566,235.766 366.222,235.766 344.566,174.804 	"/>
	<polygon style="fill:#56ACE0;" points="48.097,174.804 26.44,235.766 48.097,235.766 	"/>
</g>
<path style="fill:#FFFFFF;" d="M69.883,235.766h57.6c4.913,0,9.18,3.232,10.537,8.016l8.727,31.612h99.362l8.727-31.612
	c1.293-4.719,5.624-8.016,10.537-8.016h57.6V65.228H69.883V235.766z"/>
<path style="fill:#FFC10D;" d="M273.519,257.552l-8.727,31.612c-1.293,4.719-5.624,8.016-10.537,8.016H138.408
	c-4.913,0-9.18-3.232-10.537-8.016l-8.727-31.612H21.851v113.261h348.962V257.552H273.519z"/>
<path style="fill:#194F82;" d="M392.016,243.006L344.566,109.77V54.238c0-6.012-4.848-10.925-10.925-10.925h-12.735l-12.8-36.073
	C306.554,2.909,302.481,0,297.826,0H94.836c-4.655,0-8.727,2.909-10.279,7.24l-12.8,36.073H59.022
	c-6.012,0-10.925,4.848-10.925,10.925v55.531L0.646,243.006c-0.129,0.84-0.517,3.038-0.646,3.62v135.046
	c0,6.012,4.848,10.925,10.925,10.925h370.747c6.012,0,10.925-4.848,10.925-10.925V246.626
	C392.598,245.463,392.016,243.071,392.016,243.006z M370.812,370.812H21.851V257.552h97.293l8.727,31.612
	c1.293,4.719,5.624,8.016,10.537,8.016h115.911c4.913,0,9.18-3.232,10.537-8.016l8.727-31.612h97.293v113.261H370.812z
	 M102.529,21.85h187.604l7.628,21.463H94.901L102.529,21.85z M322.78,65.228v170.537h-57.6c-4.913,0-9.18,3.232-10.537,8.016
	l-8.727,31.612h-99.297l-8.727-31.612c-1.293-4.719-5.624-8.016-10.537-8.016H69.883V65.228H322.78z M48.097,174.804v60.962H26.505
	L48.097,174.804z M344.566,235.766v-60.897l21.721,60.897H344.566z"/>
<path style="fill:#56ACE0;" d="M177.713,177.002c3.491,1.745,5.883,5.495,5.883,9.632v34.78h25.406v-34.78
	c0-4.267,2.392-7.887,5.883-9.632l-18.554-16.937L177.713,177.002z"/>
<g>
	<path style="fill:#194F82;" d="M249.083,178.618l-45.446-41.309c-4.202-3.814-10.537-3.814-14.675,0l-45.446,41.309
		c-3.297,3.038-4.461,7.822-2.844,11.96c1.616,4.137,5.624,6.982,10.214,6.982h10.99v34.78c0,6.012,4.848,10.925,10.925,10.925
		h47.192c6.012,0,10.925-4.848,10.925-10.925v-34.78h10.99c4.461,0,8.598-2.78,10.214-6.982
		C253.608,186.44,252.444,181.657,249.083,178.618z M209.002,186.699v34.78h-25.406v-34.78c0-4.267-2.392-7.887-5.883-9.632
		l18.618-16.937l18.618,16.937C211.394,178.812,209.002,182.497,209.002,186.699z"/>
	<path style="fill:#194F82;" d="M296.145,97.681c0-6.012-4.848-10.925-10.925-10.925H107.378c-6.012,0-10.925,4.848-10.925,10.925
		c0,6.012,4.848,10.925,10.925,10.925h177.907C291.297,108.606,296.145,103.693,296.145,97.681z"/>
</g>
<g>
</g>
<g>
</g>
<g>
</g>
<g>
</g>
<g>
</g>
<g>
</g>
<g>
</g>
<g>
</g>
<g>
</g>
<g>
</g>
<g>
</g>
<g>
</g>
<g>
</g>
<g>
</g>
<g>
</g>
</svg>
