<?xml version="1.0" encoding="iso-8859-1"?>
<!-- Generator: Adobe Illustrator 19.0.0, SVG Export Plug-In . SVG Version: 6.00 Build 0)  -->
<svg version="1.1" id="Layer_1" xmlns="http://www.w3.org/2000/svg" xmlns:xlink="http://www.w3.org/1999/xlink" x="0px" y="0px"
	 viewBox="0 0 392.663 392.663" style="enable-background:new 0 0 392.663 392.663;" xml:space="preserve">
<path style="fill:#FFFFFF;" d="M196.364,21.85c-74.02,0-134.206,60.186-134.206,134.206c0,72.727,105.115,181.592,134.271,210.424
	c29.22-28.638,134.206-136.857,134.206-210.424C330.57,82.101,270.384,21.85,196.364,21.85z"/>
<path style="fill:#194F82;" d="M381.77,370.812H222.998c40.339-40.986,129.422-139.96,129.422-214.691
	C352.42,70.012,282.408,0,196.299,0S40.242,70.077,40.242,156.121c0,73.891,89.277,173.576,129.487,214.691H10.958
	c-6.012,0-10.925,4.848-10.925,10.925c0,6.012,4.848,10.925,10.925,10.925h370.747c6.012,0,10.925-4.848,10.925-10.925
	C392.63,375.661,387.782,370.812,381.77,370.812z M196.364,366.545C167.208,337.713,62.158,228.784,62.158,156.121
	c0-74.02,60.186-134.206,134.206-134.206S330.57,82.101,330.57,156.121C330.57,229.689,225.584,337.907,196.364,366.545z"/>
<path style="fill:#56ACE0;" d="M196.428,335.838C145.939,283.539,83.943,203.701,83.943,156.121
	c0-61.996,50.489-112.42,112.42-112.42s112.42,50.489,112.42,112.42C308.784,204.477,246.917,283.927,196.428,335.838z"/>
<path style="fill:#FFC10D;" d="M249.826,138.085c-1.034-3.426-2.392-6.723-4.073-9.891c-2.069-3.943-1.422-8.727,1.745-11.895
	l10.731-10.731l-12.994-12.994l-10.731,10.731c-3.168,3.168-7.952,3.879-11.895,1.745c-3.168-1.681-6.465-3.103-9.891-4.073
	c-4.267-1.293-7.111-5.172-7.111-9.632V76.089h-18.36v15.127c0,4.396-2.909,8.339-7.111,9.632c-3.426,1.034-6.723,2.392-9.891,4.073
	c-3.943,2.069-8.727,1.422-11.895-1.745L147.62,92.444l-12.994,12.994l10.731,10.731c3.168,3.168,3.879,7.952,1.745,11.895
	c-1.681,3.168-3.103,6.465-4.073,9.891c-1.293,4.267-5.172,7.176-9.632,7.176h-15.257v18.36h15.192c4.396,0,8.339,2.909,9.632,7.176
	c1.034,3.426,2.392,6.723,4.073,9.891c2.069,3.943,1.422,8.727-1.745,11.895l-10.925,10.731l12.994,12.994l10.731-10.731
	c3.168-3.168,7.952-3.879,11.895-1.745c3.168,1.681,6.465,3.103,9.891,4.073c4.267,1.293,7.176,5.172,7.176,9.632v15.192h18.36
	v-15.192c0-4.396,2.909-8.339,7.176-9.632c3.426-1.034,6.723-2.392,9.891-4.073c3.943-2.069,8.727-1.422,11.895,1.745l10.731,10.731
	l12.994-12.994l-10.731-10.731c-3.168-3.168-3.879-7.952-1.745-11.895c1.681-3.168,3.103-6.465,4.073-9.891
	c1.293-4.267,5.172-7.176,9.632-7.176h15.192v-18.36h-15.192C255.063,145.261,251.119,142.287,249.826,138.085z M196.364,188.832
	c-19.006,0-34.457-15.451-34.457-34.457s15.451-34.457,34.457-34.457s34.457,15.451,34.457,34.457S215.37,188.832,196.364,188.832z"
	/>
<g>
	<path style="fill:#194F82;" d="M284.865,125.026h-17.519l12.347-12.347c3.943-3.943,3.943-10.343,0-14.287l-27.281-27.281
		c-3.943-3.943-10.343-3.943-14.287,0l-12.347,12.347V66.004c0-5.56-4.461-10.149-10.15-10.149h-38.529
		c-5.56,0-10.15,4.461-10.15,10.149v17.519l-12.347-12.347c-1.939-1.875-4.461-2.909-7.111-2.909c-2.715,0-5.236,1.099-7.111,2.909
		l-27.281,27.281c-4.008,3.491-3.943,10.537,0,14.287l12.347,12.347h-17.519c-5.56,0-10.149,4.461-10.149,10.15v38.529
		c0,5.56,4.461,10.149,10.149,10.149h17.519l-12.347,12.347c-3.62,3.62-4.461,9.503,0,14.287l27.281,27.281
		c3.943,3.943,10.343,3.943,14.287,0l12.347-12.347v17.519c0,5.56,4.461,10.149,10.15,10.149h38.529
		c5.56,0,10.149-4.461,10.149-10.149v-17.519l12.347,12.347c3.943,3.943,10.343,3.943,14.287,0l27.281-27.281
		c3.943-3.943,3.943-10.343,0-14.287l-12.347-12.347h17.519c5.56,0,10.15-4.461,10.15-10.15V135.24
		C294.885,129.552,290.424,125.026,284.865,125.026z M274.715,163.556h-15.192c-4.396,0-8.339,2.909-9.632,7.176
		c-1.034,3.426-2.392,6.723-4.073,9.891c-2.069,3.943-1.422,8.727,1.745,11.895l10.731,10.731l-12.994,12.994l-10.796-10.731
		c-3.168-3.168-7.952-3.879-11.895-1.745c-3.168,1.681-6.465,3.103-9.891,4.073c-4.267,1.293-7.176,5.172-7.176,9.632v15.192h-18.36
		v-15.192c0-4.396-2.909-8.339-7.176-9.632c-3.426-1.034-6.723-2.392-9.891-4.073c-3.943-2.069-8.727-1.422-11.895,1.745
		l-10.731,10.731l-12.994-12.994l10.731-10.731c3.168-3.168,3.879-7.952,1.745-11.895c-1.681-3.168-3.103-6.465-4.073-9.891
		c-1.293-4.267-5.172-7.176-9.632-7.176h-15.192v-18.36h15.192c4.396,0,8.339-2.909,9.632-7.176
		c1.034-3.426,2.392-6.723,4.073-9.891c2.069-3.943,1.422-8.727-1.745-11.895l-10.731-10.731l12.994-12.994l10.731,10.731
		c3.168,3.168,7.952,3.879,11.895,1.745c3.168-1.681,6.465-3.103,9.891-4.073c4.267-1.293,7.111-5.172,7.111-9.632V76.089h18.36
		v15.192c0,4.396,2.909,8.339,7.111,9.632c3.426,1.034,6.723,2.392,9.891,4.073c3.943,2.069,8.727,1.422,11.895-1.745l10.731-10.731
		l12.994,12.994L247.37,116.17c-3.168,3.168-3.879,7.952-1.745,11.895c1.681,3.168,3.103,6.465,4.073,9.891
		c1.293,4.267,5.172,7.176,9.632,7.176h15.257v18.36h0.129V163.556z"/>
	<path style="fill:#194F82;" d="M196.364,119.984c-19.006,0-34.457,15.451-34.457,34.457s15.451,34.457,34.457,34.457
		s34.457-15.451,34.457-34.457S215.37,119.984,196.364,119.984z M196.364,168.663c-7.887,0-14.287-6.4-14.287-14.287
		s6.4-14.287,14.287-14.287c7.887,0,14.287,6.4,14.287,14.287C210.651,162.263,204.251,168.663,196.364,168.663z"/>
</g>
<g>
</g>
<g>
</g>
<g>
</g>
<g>
</g>
<g>
</g>
<g>
</g>
<g>
</g>
<g>
</g>
<g>
</g>
<g>
</g>
<g>
</g>
<g>
</g>
<g>
</g>
<g>
</g>
<g>
</g>
</svg>
