<?xml version="1.0" encoding="iso-8859-1"?>
<!-- Generator: Adobe Illustrator 19.0.0, SVG Export Plug-In . SVG Version: 6.00 Build 0)  -->
<svg version="1.1" id="Layer_1" xmlns="http://www.w3.org/2000/svg" xmlns:xlink="http://www.w3.org/1999/xlink" x="0px" y="0px"
	 viewBox="0 0 511.984 511.984" style="enable-background:new 0 0 511.984 511.984;" xml:space="preserve">
<g>
	<g>
		<path d="M431.987,159.995h-63.998c-8.848,0-16,7.168-16,16v79.997c0,8.832,7.152,16,16,16h63.998c8.848,0,16-7.168,16-16v-79.997
			C447.986,167.163,440.834,159.995,431.987,159.995z M415.987,239.992h-31.999v-47.998h31.999V239.992z"/>
	</g>
</g>
<g>
	<g>
		<path d="M143.995,159.995H79.997c-8.848,0-16,7.168-16,16v79.997c0,8.832,7.152,16,16,16h63.998c8.848,0,16-7.168,16-16v-79.997
			C159.995,167.163,152.843,159.995,143.995,159.995z M127.996,239.992H95.997v-47.998h31.999V239.992z"/>
	</g>
</g>
<g>
	<g>
		<path d="M287.991,159.995h-63.998c-8.848,0-15.999,7.168-15.999,16v79.997c0,8.832,7.152,16,15.999,16h63.998
			c8.848,0,15.999-7.168,15.999-16v-79.997C303.99,167.163,296.839,159.995,287.991,159.995z M271.992,239.992h-31.999v-47.998
			h31.999V239.992z"/>
	</g>
</g>
<g>
	<g>
		<path d="M495.984,159.995H16c-8.848,0-16,7.168-16,16V335.99c0,8.832,7.152,16,16,16h479.985c8.848,0,16-7.168,16-16V175.995
			C511.984,167.163,504.832,159.995,495.984,159.995z M479.985,319.99H31.999V191.994h447.986V319.99z"/>
	</g>
</g>
<g>
	<g>
		<path d="M63.998,287.991c-8.848,0-16,7.168-16,15.999v31.999c0,8.832,7.152,16,16,16s16-7.168,16-16V303.99
			C79.997,295.159,72.846,287.991,63.998,287.991z"/>
	</g>
</g>
<g>
	<g>
		<path d="M111.997,287.991c-8.848,0-16,7.168-16,15.999v31.999c0,8.832,7.152,16,16,16s16-7.168,16-16V303.99
			C127.996,295.159,120.844,287.991,111.997,287.991z"/>
	</g>
</g>
<g>
	<g>
		<path d="M159.995,287.991c-8.848,0-16,7.168-16,15.999v31.999c0,8.832,7.152,16,16,16s16-7.168,16-16V303.99
			C175.995,295.159,168.843,287.991,159.995,287.991z"/>
	</g>
</g>
<g>
	<g>
		<path d="M207.994,287.991c-8.848,0-16,7.168-16,15.999v31.999c0,8.832,7.152,16,16,16s15.999-7.168,15.999-16V303.99
			C223.993,295.159,216.841,287.991,207.994,287.991z"/>
	</g>
</g>
<g>
	<g>
		<path d="M255.992,287.991c-8.848,0-16,7.168-16,15.999v31.999c0,8.832,7.152,16,16,16s16-7.168,16-16V303.99
			C271.992,295.159,264.84,287.991,255.992,287.991z"/>
	</g>
</g>
<g>
	<g>
		<path d="M303.99,287.991c-8.848,0-15.999,7.168-15.999,15.999v31.999c0,8.832,7.152,16,15.999,16s16-7.168,16-16V303.99
			C319.99,295.159,312.838,287.991,303.99,287.991z"/>
	</g>
</g>
<g>
	<g>
		<path d="M351.989,287.991c-8.848,0-16,7.168-16,15.999v31.999c0,8.832,7.152,16,16,16s16-7.168,16-16V303.99
			C367.989,295.159,360.837,287.991,351.989,287.991z"/>
	</g>
</g>
<g>
	<g>
		<path d="M399.987,287.991c-8.848,0-15.999,7.168-15.999,15.999v31.999c0,8.832,7.152,16,15.999,16s16-7.168,16-16V303.99
			C415.987,295.159,408.835,287.991,399.987,287.991z"/>
	</g>
</g>
<g>
	<g>
		<path d="M447.986,287.991c-8.848,0-16,7.168-16,15.999v31.999c0,8.832,7.152,16,16,16s16-7.168,16-16V303.99
			C463.986,295.159,456.834,287.991,447.986,287.991z"/>
	</g>
</g>
<g>
	<g>
		<path d="M31.999,207.994H16c-8.848,0-16,7.168-16,15.999s7.152,16,16,16h16c8.848,0,15.999-7.168,15.999-16
			S40.847,207.994,31.999,207.994z"/>
	</g>
</g>
<g>
	<g>
		<path d="M495.984,207.994h-16c-8.848,0-15.999,7.168-15.999,15.999s7.152,16,15.999,16h16c8.848,0,16-7.168,16-16
			S504.832,207.994,495.984,207.994z"/>
	</g>
</g>
<g>
</g>
<g>
</g>
<g>
</g>
<g>
</g>
<g>
</g>
<g>
</g>
<g>
</g>
<g>
</g>
<g>
</g>
<g>
</g>
<g>
</g>
<g>
</g>
<g>
</g>
<g>
</g>
<g>
</g>
</svg>
