<?xml version="1.0" encoding="iso-8859-1"?>
<!-- Generator: Adobe Illustrator 19.0.0, SVG Export Plug-In . SVG Version: 6.00 Build 0)  -->
<svg version="1.1" id="Layer_1" xmlns="http://www.w3.org/2000/svg" xmlns:xlink="http://www.w3.org/1999/xlink" x="0px" y="0px"
	 viewBox="0 0 512 512" style="enable-background:new 0 0 512 512;" xml:space="preserve">
<path style="fill:#5D4E38;" d="M435.706,0H76.294c-9.133,0-16.537,7.404-16.537,16.537v478.925c0,9.133,7.404,16.537,16.537,16.537
	h359.411c9.133,0,16.537-7.404,16.537-16.537V16.537C452.243,7.404,444.839,0,435.706,0z"/>
<path style="fill:#534532;" d="M435.706,0H256v512h179.706c9.133,0,16.537-7.404,16.537-16.537V16.537
	C452.243,7.404,444.839,0,435.706,0z"/>
<circle style="fill:#3E3E42;" cx="256.229" cy="341.43" r="105.221"/>
<path style="fill:#2D2E30;" d="M256,472.491c-72.26,0-131.048-58.788-131.048-131.048S183.74,210.394,256,210.394
	s131.048,58.788,131.048,131.048S328.26,472.491,256,472.491z M256,246.481c-52.362,0-94.962,42.6-94.962,94.962
	s42.6,94.962,94.962,94.962s94.962-42.6,94.962-94.962S308.362,246.481,256,246.481z"/>
<circle style="fill:#8A8A91;" cx="255.998" cy="341.441" r="38.036"/>
<circle style="fill:#534532;" cx="112.674" cy="51.434" r="17.116"/>
<circle style="fill:#3A2F21;" cx="402.629" cy="51.434" r="17.116"/>
<circle style="fill:#534532;" cx="112.674" cy="467.069" r="17.116"/>
<circle style="fill:#3A2F21;" cx="402.629" cy="467.069" r="17.116"/>
<path style="fill:#1D1D1F;" d="M256,210.394v36.087c52.362,0,94.962,42.6,94.962,94.962s-42.6,94.962-94.962,94.962v36.087
	c72.26,0,131.048-58.788,131.048-131.048S328.26,210.394,256,210.394z"/>
<circle style="fill:#3E3E42;" cx="256.803" cy="104.538" r="51.089"/>
<path style="fill:#2D2E30;" d="M256,175.437c-39.161,0-71.023-31.861-71.023-71.023S216.837,33.39,256,33.39
	s71.023,31.861,71.023,71.023S295.163,175.437,256,175.437z M256,69.478c-19.265,0-34.936,15.672-34.936,34.936
	s15.672,34.936,34.936,34.936s34.936-15.672,34.936-34.936S275.265,69.478,256,69.478z"/>
<g>
</g>
<g>
</g>
<g>
</g>
<g>
</g>
<g>
</g>
<g>
</g>
<g>
</g>
<g>
</g>
<g>
</g>
<g>
</g>
<g>
</g>
<g>
</g>
<g>
</g>
<g>
</g>
<g>
</g>
</svg>
