<?xml version="1.0" encoding="iso-8859-1"?>
<!-- Generator: Adobe Illustrator 19.0.0, SVG Export Plug-In . SVG Version: 6.00 Build 0)  -->
<svg version="1.1" id="Layer_1" xmlns="http://www.w3.org/2000/svg" xmlns:xlink="http://www.w3.org/1999/xlink" x="0px" y="0px"
	 viewBox="0 0 512 512" style="enable-background:new 0 0 512 512;" xml:space="preserve">
<path style="fill:#F6D433;" d="M136.896,286.593c-8.002,0-15.68-1.459-22.947-4.395c-8.526-3.447-12.645-13.155-9.198-21.681
	c3.447-8.526,13.153-12.641,21.681-9.198c25.42,10.282,61.88-22.623,72.649-34.956c6.049-6.928,16.57-7.64,23.497-1.593
	c6.928,6.048,7.641,16.569,1.593,23.497c-0.561,0.642-13.949,15.876-33.085,28.917C172.189,280.063,153.822,286.593,136.896,286.593
	z"/>
<path style="fill:#67573E;" d="M40.409,512c-4.262,0-8.524-1.626-11.775-4.878c-6.504-6.502-6.504-17.047,0-23.551L260.81,251.395
	c6.502-6.502,17.047-6.502,23.551,0c6.504,6.502,6.504,17.047,0,23.551L52.185,507.122C48.932,510.374,44.67,512,40.409,512z"/>
<path style="fill:#EDA637;" d="M456.473,109.76l-77.989-77.989c-6.502-6.502-17.047-6.502-23.551,0L185.508,201.197
	c-6.504,6.502-6.504,17.047,0,23.551l77.989,77.989c3.252,3.252,7.514,4.878,11.775,4.878s8.524-1.626,11.775-4.878l169.425-169.425
	C462.978,126.808,462.978,116.263,456.473,109.76z"/>
<g>
	<polygon style="fill:#DE3205;" points="234.279,273.518 316.265,273.518 362.708,227.075 187.837,227.075 	"/>
	<polygon style="fill:#DE3205;" points="196.245,190.459 399.325,190.459 445.766,144.017 242.688,144.017 	"/>
	<polygon style="fill:#DE3205;" points="453.592,106.88 407.702,60.99 325.715,60.99 279.273,107.432 453.592,107.432 	"/>
</g>
<path style="opacity:0.2;enable-background:new    ;" d="M428.907,160.878l27.567-27.567c6.504-6.502,6.504-17.047,0-23.551
	l-77.989-77.989c-6.502-6.502-17.047-6.502-23.551,0l-27.567,27.567L428.907,160.878z"/>
<path style="fill:#690812;" d="M471.591,0H339.816c-6.736,0-12.807,4.057-15.385,10.28c-2.577,6.223-1.152,13.386,3.61,18.148
	l131.775,131.775c3.185,3.186,7.445,4.878,11.778,4.878c2.146,0,4.31-0.414,6.369-1.268c6.223-2.578,10.28-8.65,10.28-15.385V16.653
	C488.244,7.456,480.789,0,471.591,0z"/>
<g>
</g>
<g>
</g>
<g>
</g>
<g>
</g>
<g>
</g>
<g>
</g>
<g>
</g>
<g>
</g>
<g>
</g>
<g>
</g>
<g>
</g>
<g>
</g>
<g>
</g>
<g>
</g>
<g>
</g>
</svg>
