<?xml version="1.0" encoding="iso-8859-1"?>
<!-- Generator: Adobe Illustrator 19.0.0, SVG Export Plug-In . SVG Version: 6.00 Build 0)  -->
<svg version="1.1" id="Layer_1" xmlns="http://www.w3.org/2000/svg" xmlns:xlink="http://www.w3.org/1999/xlink" x="0px" y="0px"
	 viewBox="0 0 512 512" style="enable-background:new 0 0 512 512;" xml:space="preserve">
<path style="fill:#3E3E42;" d="M208.925,0h-55.022c-9.261,0-16.769,7.508-16.769,16.769v83.843c0,9.261,7.508,16.769,16.769,16.769
	h55.022c9.261,0,16.769-7.508,16.769-16.769V16.769C225.693,7.508,218.186,0,208.925,0z"/>
<path style="fill:#DEEDCA;" d="M314.444,165.354v-2.14c0-5.464-2.662-10.585-7.134-13.725l-89.187-62.603
	c-2.822-1.982-6.185-3.044-9.633-3.044H154.34c-3.448,0-6.811,1.062-9.634,3.044l-89.187,62.603
	c-4.473,3.14-7.134,8.261-7.134,13.725v2.14H314.444z"/>
<path style="fill:#5A9449;" d="M48.383,169.289v322.589c0,9.261,7.508,16.769,16.769,16.769h232.524
	c9.261,0,16.769-7.508,16.769-16.769V169.289H48.383z"/>
<g>
	<path style="fill:#528443;" d="M181.413,169.289v322.589c0,9.261,3.754,16.769,8.384,16.769H306.06
		c4.63,0,8.384-7.508,8.384-16.769V169.289H181.413z"/>
	<path style="fill:#528443;" d="M250.723,375.616h-138.62c-8.952,0-16.21-7.257-16.21-16.21v-98.376
		c0-8.952,7.257-16.21,16.21-16.21h138.62c8.952,0,16.21,7.257,16.21,16.21v98.376C266.933,368.358,259.677,375.616,250.723,375.616
		z"/>
</g>
<path style="fill:#FFFFFF;" d="M250.723,363.319h-138.62c-8.952,0-16.21-7.257-16.21-16.21v-98.376c0-8.952,7.257-16.21,16.21-16.21
	h138.62c8.952,0,16.21,7.257,16.21,16.21v98.376C266.933,356.061,259.677,363.319,250.723,363.319z"/>
<ellipse style="fill:#1D1D1F;" cx="215.856" cy="44.157" rx="7.036" ry="15.673"/>
<g>
	<path style="fill:#E1E1E3;" d="M455.341,60.926H286.538c-9.261,0-16.769-7.508-16.769-16.769s7.508-16.769,16.769-16.769h168.803
		c9.261,0,16.769,7.508,16.769,16.769S464.602,60.926,455.341,60.926z"/>
	<path style="fill:#E1E1E3;" d="M455.329,176.633c-2.435,0-4.908-0.533-7.249-1.658l-114.026-54.777
		c-8.347-4.01-11.864-14.029-7.854-22.376c4.011-8.349,14.029-11.865,22.376-7.853l114.026,54.777
		c8.347,4.01,11.864,14.029,7.854,22.376C467.571,173.128,461.574,176.633,455.329,176.633z"/>
</g>
<g>
	<path style="fill:#E0EBA4;" d="M305.29,181.667H55.498c-8.622,0-15.612-6.99-15.612-15.612l0,0c0-8.622,6.99-15.612,15.612-15.612
		H305.29c8.622,0,15.612,6.99,15.612,15.612l0,0C320.902,174.677,313.913,181.667,305.29,181.667z"/>
	<path style="fill:#E0EBA4;" d="M224.396,105.083h-88.004c-8.622,0-15.612-6.99-15.612-15.612l0,0
		c0-8.622,6.99-15.612,15.612-15.612h88.004c8.622,0,15.612,6.99,15.612,15.612l0,0C240.008,98.093,233.018,105.083,224.396,105.083
		z"/>
	<path style="fill:#E0EBA4;" d="M305.29,512H55.498c-8.622,0-15.612-6.99-15.612-15.612l0,0c0-8.622,6.99-15.612,15.612-15.612
		H305.29c8.622,0,15.612,6.99,15.612,15.612l0,0C320.902,505.01,313.913,512,305.29,512z"/>
</g>
<g>
</g>
<g>
</g>
<g>
</g>
<g>
</g>
<g>
</g>
<g>
</g>
<g>
</g>
<g>
</g>
<g>
</g>
<g>
</g>
<g>
</g>
<g>
</g>
<g>
</g>
<g>
</g>
<g>
</g>
</svg>
