<?xml version="1.0" encoding="iso-8859-1"?>
<!-- Generator: Adobe Illustrator 17.1.0, SVG Export Plug-In . SVG Version: 6.00 Build 0)  -->
<!DOCTYPE svg PUBLIC "-//W3C//DTD SVG 1.1//EN" "http://www.w3.org/Graphics/SVG/1.1/DTD/svg11.dtd">
<svg version="1.1" id="Capa_1" xmlns="http://www.w3.org/2000/svg" xmlns:xlink="http://www.w3.org/1999/xlink" x="0px" y="0px"
	 viewBox="0 0 95.009 95.009" style="enable-background:new 0 0 95.009 95.009;" xml:space="preserve">
<g>
	<path d="M63.113,54.967l6.942-12.324c0.727-1.289,0.62-3.24-0.243-4.441l-8.574-11.945c-0.835-1.164-2.546-2.042-3.979-2.042h-1.34
		h-0.91H40h-0.91h-1.34c-1.433,0-3.144,0.878-3.979,2.042l-8.574,11.945c-0.863,1.202-0.97,3.152-0.243,4.441l6.942,12.324
		c0.711,1.263,2.404,2.252,3.853,2.252h0.274L30.594,70.18c-0.607,1.449-1.083,3.814-1.083,5.384v15.636c0,1.985,1.615,3.6,3.6,3.6
		h3.153c1.985,0,3.6-1.615,3.6-3.6V75.564c0-1.288,0.467-3.356,1.02-4.519l4.852-10.204h3.438l4.951,10.412
		c0.553,1.163,1.02,3.232,1.02,4.519v15.636c0,1.985,1.615,3.6,3.6,3.6h3.153c1.985,0,3.6-1.615,3.6-3.6V75.773
		c0-1.569-0.468-3.934-1.066-5.385l-5.425-13.169h0.254C60.709,57.219,62.402,56.229,63.113,54.967z M58.919,35.444l3.308,4.747
		c0.402,0.578,0.434,1.651,0.065,2.251l-3.374,5.496V35.444z M36.09,47.938l-3.373-5.496c-0.369-0.6-0.337-1.673,0.065-2.251
		l3.308-4.747V47.938z"/>
	<path d="M47.504,21.672c5.975,0,10.836-4.861,10.836-10.836S53.479,0,47.504,0S36.668,4.861,36.668,10.836
		S41.529,21.672,47.504,21.672z"/>
</g>
<g>
</g>
<g>
</g>
<g>
</g>
<g>
</g>
<g>
</g>
<g>
</g>
<g>
</g>
<g>
</g>
<g>
</g>
<g>
</g>
<g>
</g>
<g>
</g>
<g>
</g>
<g>
</g>
<g>
</g>
</svg>
