<?xml version="1.0" encoding="iso-8859-1"?>
<!-- Generator: Adobe Illustrator 19.0.0, SVG Export Plug-In . SVG Version: 6.00 Build 0)  -->
<svg version="1.1" id="Layer_1" xmlns="http://www.w3.org/2000/svg" xmlns:xlink="http://www.w3.org/1999/xlink" x="0px" y="0px"
	 viewBox="0 0 512 512" style="enable-background:new 0 0 512 512;" xml:space="preserve">
<path style="fill:#4CAF50;" d="M315.659,384.085c-0.171,5.035-21.077,16.981-59.648,16.981s-59.477-11.947-59.733-16.981
	l39.083-68.352h3.584c4.693,0,8.533-3.84,8.533-8.533v-25.6h17.067v25.6c0,4.693,3.755,8.533,8.533,8.533h3.584L315.659,384.085z"/>
<path d="M391.435,482.133l-102.4-179.2c-1.536-2.645-4.352-4.267-7.424-4.267v-25.6c0-4.693-3.84-8.533-8.533-8.533h-8.533v-256
	c0-4.693-3.84-8.533-8.533-8.533c-4.779,0-8.533,3.84-8.533,8.533v256h-8.533c-4.779,0-8.533,3.84-8.533,8.533v25.6
	c-3.072,0-5.888,1.621-7.424,4.267l-102.4,179.2c-2.304,4.096-0.939,9.387,3.157,11.691c4.096,2.304,9.301,0.939,11.691-3.157
	l25.6-44.8c4.352,3.84,9.472,7.765,15.445,11.52l-13.739,34.389c-1.792,4.352,0.341,9.301,4.779,11.093
	c1.024,0.427,2.048,0.597,3.157,0.597c3.328,0,6.571-2.048,7.936-5.376l13.056-32.768c5.803,2.645,12.203,4.864,19.2,6.827
	l-5.888,29.611c-0.939,4.693,2.048,9.131,6.656,10.069c0.597,0.085,1.109,0.171,1.707,0.171c3.925,0,7.509-2.816,8.363-6.827
	l5.888-29.44c6.229,0.939,12.8,1.621,19.883,1.963v25.771c0,4.693,3.755,8.533,8.533,8.533c4.693,0,8.533-3.84,8.533-8.533v-25.941
	c6.827-0.256,13.483-0.768,19.883-1.792l5.888,29.44c0.768,4.011,4.352,6.827,8.363,6.827c0.512,0,1.109-0.085,1.621-0.171
	c4.608-0.939,7.68-5.376,6.741-10.069l-5.973-29.525c6.741-1.792,13.141-4.181,19.2-6.827l13.141,32.683
	c1.365,3.328,4.523,5.376,7.936,5.376c1.024,0,2.133-0.171,3.157-0.597c4.352-1.792,6.485-6.741,4.779-11.093l-13.739-34.304
	c5.461-3.499,10.496-7.424,15.36-11.776l25.685,44.971c1.536,2.731,4.437,4.267,7.424,4.267c1.451,0,2.901-0.341,4.181-1.109
	C392.288,491.52,393.739,486.229,391.435,482.133z M182.965,441.088c-4.693-3.157-9.216-6.656-13.227-10.496l17.493-30.635
	c2.645,2.475,5.888,4.608,9.557,6.571L182.965,441.088z M222.048,416.427l-7.765,38.827c-5.717-1.621-11.093-3.499-16.213-5.803
	l14.677-36.693c0,0,0-0.085,0-0.171c3.157,0.939,6.485,1.707,9.899,2.389C222.475,415.488,222.133,415.915,222.048,416.427z
	 M247.477,418.133v42.325c-5.717-0.256-11.264-0.683-16.555-1.536l7.851-39.083c0.171-0.853,0.085-1.707,0-2.56
	c2.901,0.256,5.803,0.512,8.704,0.683C247.477,417.963,247.477,418.048,247.477,418.133z M264.544,460.459v-42.325
	c0-0.085-0.085-0.171-0.085-0.171c2.987-0.171,5.888-0.427,8.789-0.683c-0.085,0.853-0.171,1.707,0,2.56l7.765,39.168
	C275.723,459.776,270.176,460.203,264.544,460.459z M256.011,401.067c-38.571,0-59.477-11.947-59.733-16.981l39.083-68.352h3.584
	c4.693,0,8.533-3.84,8.533-8.533v-25.6h17.067v25.6c0,4.693,3.755,8.533,8.533,8.533h3.584l38.997,68.352
	C315.488,389.12,294.581,401.067,256.011,401.067z M297.739,455.424l-7.765-38.997c-0.171-0.512-0.427-0.939-0.597-1.451
	c3.413-0.683,6.656-1.451,9.813-2.389c0.085,0.085,0.085,0.171,0.085,0.171l14.677,36.779
	C308.832,451.84,303.456,453.803,297.739,455.424z M328.971,441.173l-13.824-34.645c3.755-1.963,6.997-4.096,9.643-6.571
	l17.493,30.635C338.187,434.517,333.749,438.016,328.971,441.173z"/>
<path style="fill:#388E3C;" d="M276.661,315.733h-3.584c-4.779,0-8.533-3.84-8.533-8.533v-25.6h-8.533v25.6
	c0,4.693,3.755,8.533,8.533,8.533h3.584l38.997,68.352c-0.162,4.779-19.046,15.77-53.965,16.87c0.981,0.017,1.843,0.111,2.85,0.111
	c38.571,0,59.477-11.947,59.648-16.981L276.661,315.733z"/>
<g>
</g>
<g>
</g>
<g>
</g>
<g>
</g>
<g>
</g>
<g>
</g>
<g>
</g>
<g>
</g>
<g>
</g>
<g>
</g>
<g>
</g>
<g>
</g>
<g>
</g>
<g>
</g>
<g>
</g>
</svg>
