<?xml version="1.0" encoding="iso-8859-1"?>
<!-- Generator: Adobe Illustrator 19.0.0, SVG Export Plug-In . SVG Version: 6.00 Build 0)  -->
<svg version="1.1" id="Layer_1" xmlns="http://www.w3.org/2000/svg" xmlns:xlink="http://www.w3.org/1999/xlink" x="0px" y="0px"
	 viewBox="0 0 480.087 480.087" style="enable-background:new 0 0 480.087 480.087;" xml:space="preserve">
<g>
	<path style="fill:#006DF0;" d="M156.452,116.533l-1.705-3.251c-2.612,3.892-4.963,7.955-7.018,12.168
		c-6.869,14.081-10.352,29.21-10.352,44.97c0,56.61,46.056,102.667,102.667,102.667v-94.434
		C201.518,178.654,167.499,153.227,156.452,116.533z"/>
	<path style="fill:#005ECE;" d="M240.044,178.654v94.434c56.61,0,102.667-46.056,102.667-102.667
		c0-20.442-6.113-40.309-17.377-57.124l-1.697,3.236C312.588,153.227,278.569,178.654,240.044,178.654z"/>
	<path style="fill:#00E7F0;" d="M240.044,378.29v-20h-20v-66.014c-83.794,9.925-149,81.391-149,167.811v20h149V378.29H240.044z"/>
	<path style="fill:#00D7DF;" d="M260.044,292.276v66.014h-20v20h20v101.797h149v-20
		C409.044,373.667,343.838,302.202,260.044,292.276z"/>
	<rect x="220.044" y="378.29" style="fill:#006DF0;" width="40" height="101.797"/>
	<path style="fill:#006DF0;" d="M260.044,358.29v-66.014c-6.561-0.777-13.233-1.189-20-1.189s-13.439,0.412-20,1.189v66.014H260.044
		z"/>
	<path style="fill:#00E7F0;" d="M156.452,116.533c-0.233-0.773-0.471-1.543-0.683-2.325h84.275V0L117.062,41.434l37.685,71.849
		L156.452,116.533z"/>
	<path style="fill:#00D7DF;" d="M240.044,114.208h-84.275c0.212,0.783,0.45,1.553,0.683,2.325
		c11.047,36.694,45.066,62.12,83.592,62.12s72.544-25.427,83.592-62.12l1.697-3.236l37.693-71.864L240.044,0V114.208z"/>
</g>
<g>
</g>
<g>
</g>
<g>
</g>
<g>
</g>
<g>
</g>
<g>
</g>
<g>
</g>
<g>
</g>
<g>
</g>
<g>
</g>
<g>
</g>
<g>
</g>
<g>
</g>
<g>
</g>
<g>
</g>
</svg>
