<?xml version="1.0" encoding="iso-8859-1"?>
<!-- Generator: Adobe Illustrator 19.0.0, SVG Export Plug-In . SVG Version: 6.00 Build 0)  -->
<svg version="1.1" id="Layer_1" xmlns="http://www.w3.org/2000/svg" xmlns:xlink="http://www.w3.org/1999/xlink" x="0px" y="0px"
	 viewBox="0 0 512.004 512.004" style="enable-background:new 0 0 512.004 512.004;" xml:space="preserve">
<g>
	<g>
		<path d="M219.502,100.658l-8.124-16.048c-1.896-3.745-6.471-5.245-10.214-3.348c-3.745,1.897-5.245,6.469-3.347,10.215
			l8.124,16.048c1.339,2.644,4.012,4.169,6.787,4.169c1.154,0,2.327-0.265,3.426-0.822
			C219.899,108.977,221.398,104.404,219.502,100.658z"/>
	</g>
</g>
<g>
	<g>
		<path d="M252.137,318.707c0.045-0.13,0.088-0.259,0.13-0.39L252.137,318.707z"/>
	</g>
</g>
<g>
	<g>
		<path d="M346.86,327.739c-1.908-5.321-5.418-8.995-9.972-10.644l-10.89-26.555c-0.026-0.065-0.055-0.13-0.083-0.194
			c-1.808-4.082-5.107-7.221-9.289-8.836c-1.995-0.77-4.074-1.137-6.147-1.126c-1.296-2.605-24.109-47.636-24.109-47.636
			c-0.145-0.286-0.31-0.554-0.485-0.814c7.276-14.724,15.051-30.706,22.775-47.012c17.519-36.99,31.509-68.683,41.577-94.201
			c13.885-35.191,20.076-57.441,20.073-72.144c-0.002-8.255-5.056-15.525-12.294-17.679c-7.622-2.26-15.629,1.465-19.481,9.071
			l-82.471,162.914l-24.965-49.318c-1.896-3.745-6.471-5.246-10.214-3.348c-3.746,1.896-5.245,6.469-3.348,10.214l30.009,59.28
			c0,0-12.482,24.195-12.889,24.896c-6.175-12.602-12.064-24.812-17.571-36.438c-17.38-36.696-31.234-68.078-41.177-93.275
			c-12.795-32.428-19.014-54.2-19.011-66.56c0-1.731,0.844-2.939,1.424-3.111c0.325-0.095,1.06,0.323,1.587,1.366l25.834,51.032
			c1.896,3.744,6.47,5.246,10.214,3.348c3.746-1.896,5.245-6.469,3.348-10.214L173.47,9.726c-3.85-7.605-11.861-11.331-19.482-9.07
			c-7.236,2.154-12.291,9.424-12.293,17.679c-0.002,14.703,6.188,36.952,20.072,72.143c10.065,25.509,24.055,57.203,41.578,94.202
			c7.063,14.91,14.749,30.773,22.86,47.189c0,0-23.611,46.606-24.701,48.806l0.05,0.097c-7.171-0.935-14.413,2.869-17.471,9.775
			l-13.113,29.077c-2.206,1.701-4.376,4.318-5.828,8.366c-4.093,10.854-7.665,21.612-10.615,31.978
			c-10.784,37.887-13.313,70.719-7.517,97.586c0.886,4.103,4.929,6.714,9.034,5.826c4.103-0.885,6.712-4.929,5.826-9.033
			c-5.265-24.402-2.816-54.755,7.277-90.217c2.842-9.982,6.287-20.357,10.241-30.839c0.018-0.048,0.035-0.094,0.052-0.142
			c0.367-1.035,0.747-1.478,0.864-1.521c0.808-0.302,3.157,0.286,4.684,1.154c0.263,0.156,37.845,16.72,37.845,16.72
			c2.346,1.006,2.02,3.505,1.368,5.334c-0.051,0.12-0.021,0.054-0.066,0.176c-8.175,22.629-25.315,77.968-7.949,103.018
			c3.779,5.452,5.209,12.05,4.026,18.577c-1.183,6.527-4.856,12.172-10.289,15.982c-9.821,6.885-22.549,3.123-25.033,1.913
			c-3.806-1.855-7.098-4.68-9.521-8.173c-2.392-3.447-7.128-4.306-10.577-1.914c-3.45,2.392-4.307,7.128-1.914,10.578
			c3.904,5.628,9.213,10.184,15.355,13.176c4.003,1.951,24.15,9.042,40.351-3.086c8.562-6.409,14.681-15.241,16.588-25.765
			c1.905-10.524-0.399-21.159-6.491-29.947c-8.968-12.938-5.15-47.911,9.725-89.118c1.463-3.823,2.057-9.145,0.473-14.055
			l11.72-26.136c1.808-4.082,1.914-8.634,0.3-12.816c-0.538-1.392-1.259-2.677-2.113-3.85l0.917-0.137
			c1.231-2.357,3.421-6.564,6.358-12.258c2.594,5.028,4.58,8.844,5.835,11.248c-3.987,4.748-5.197,11.531-2.519,17.578
			l13.005,29.417c-0.538,3.897,0.071,7.784,1.211,10.762c14.875,41.204,18.693,76.18,9.725,89.119
			c-6.092,8.789-8.396,19.424-6.49,29.947c1.907,10.523,7.625,19.926,16.586,25.765c11.325,7.378,26.039,7.033,27.641,6.839
			c4.431-0.539,8.708-1.802,12.712-3.753c6.143-2.993,11.453-7.549,15.356-13.179c22.006-31.745,24.814-77.172,8.35-135.019
			C354.526,349.358,350.955,338.598,346.86,327.739z M352.097,16.837c0.527-1.04,1.253-1.464,1.584-1.367
			c0.583,0.173,1.427,1.381,1.427,3.112c0.003,12.358-6.216,34.131-19.012,66.56c-9.945,25.206-23.799,56.588-41.176,93.273
			c-5.384,11.368-10.79,22.569-16.037,33.301c-2.482-3.22-5.686-5.852-9.448-7.684c-3.396-1.654-7.009-2.546-10.746-2.674
			L352.097,16.837z M236.717,313.871l-9.412,20.986l-35.013-15.414c-0.761-0.422-2.095-1.09-3.797-1.701l9.47-20.996
			c0.341-0.77,1.279-1.132,2.049-0.792l35.898,15.899c0.474,0.21,0.702,0.587,0.81,0.865
			C236.829,312.998,236.913,313.43,236.717,313.871z M236.781,295.164l0.101,0.494l-21.48-9.513l0.478-0.237
			c0.664-1.324,20.913-41.301,20.913-41.301c2.409,3.055,5.524,5.629,9.251,7.444c3.61,1.759,7.462,2.661,11.45,2.696
			C247.619,274.306,239.992,289.008,236.781,295.164z M257.727,239.552c-1.746,0-3.437-0.392-5.026-1.166
			c-5.703-2.778-8.083-9.678-5.305-15.382c1.944-3.991,5.912-6.472,10.357-6.472c1.746,0,3.438,0.393,5.026,1.165
			c2.763,1.346,4.835,3.688,5.838,6.593c1.002,2.904,0.813,6.026-0.533,8.79C266.14,237.073,262.172,239.552,257.727,239.552z
			 M264.598,274.348c3.829-7.515,8.183-16.123,12.879-25.507c0,0,16.496,32.564,18.462,36.455l-20.906,9.259
			C272.998,290.655,269.376,283.678,264.598,274.348z M282.937,335.392l-9.662-21.734c-0.341-0.77,0.021-1.71,0.792-2.05
			l35.899-15.898c0.474-0.21,0.905-0.127,1.185-0.018c0.268,0.103,0.624,0.317,0.838,0.754l9.055,22.078
			c-0.545,0.257-0.995,0.49-1.322,0.67l-36.548,16.089C283.092,335.318,283.017,335.356,282.937,335.392z M336.633,486.079
			c-2.422,3.492-5.715,6.32-9.522,8.174c-2.483,1.21-17.048,4.203-25.034-1.914c-5.266-4.034-9.105-9.454-10.287-15.981
			c-1.183-6.528,0.247-13.126,4.026-18.577c17.366-25.053,0.226-80.39-7.949-103.019c-0.021-0.059-0.043-0.117-0.065-0.175
			c-0.372-0.954-1.372-4.159,1.433-5.362c0,0,40.411-17.916,41.888-17.916c0.565,0,0.875,0,1.439,1.59
			c0.017,0.048,0.033,0.094,0.052,0.142c3.956,10.487,7.402,20.863,10.241,30.84C358.014,417.141,355.92,458.255,336.633,486.079z"
			/>
	</g>
</g>
<g>
	<g>
		<path d="M341.035,390.708c-1.283-3.989-5.549-6.182-9.542-4.907c-3.992,1.272-6.199,5.544-4.936,9.541
			c0.082,0.261,8.141,26.458-2.561,52.009c-1.62,3.871,0.204,8.324,4.075,9.947c0.96,0.401,1.955,0.592,2.934,0.592
			c2.971,0,5.794-1.753,7.012-4.666C350.944,422.362,341.446,391.987,341.035,390.708z"/>
	</g>
</g>
<g>
</g>
<g>
</g>
<g>
</g>
<g>
</g>
<g>
</g>
<g>
</g>
<g>
</g>
<g>
</g>
<g>
</g>
<g>
</g>
<g>
</g>
<g>
</g>
<g>
</g>
<g>
</g>
<g>
</g>
</svg>
