<?xml version="1.0" encoding="iso-8859-1"?>
<!-- Generator: Adobe Illustrator 19.0.0, SVG Export Plug-In . SVG Version: 6.00 Build 0)  -->
<svg version="1.1" id="Layer_1" xmlns="http://www.w3.org/2000/svg" xmlns:xlink="http://www.w3.org/1999/xlink" x="0px" y="0px"
	 viewBox="0 0 512.853 512.853" style="enable-background:new 0 0 512.853 512.853;" xml:space="preserve">
<g transform="translate(1 1)">
	<polygon style="fill:#FD9808;" points="468.333,438.893 434.2,438.893 434.2,353.56 451.267,327.96 468.333,353.56 	"/>
	<g>
		<polygon style="fill:#FFDD09;" points="434.2,438.893 400.067,438.893 400.067,353.56 417.133,327.96 434.2,353.56 		"/>
		<polygon style="fill:#FFDD09;" points="502.467,438.893 468.333,438.893 468.333,353.56 485.4,327.96 502.467,353.56 		"/>
		<polygon style="fill:#FFDD09;" points="75.8,438.893 41.667,438.893 41.667,353.56 58.733,327.96 75.8,353.56 		"/>
	</g>
	<g>
		<polygon style="fill:#FD9808;" points="41.667,438.893 7.533,438.893 7.533,353.56 24.6,327.96 41.667,353.56 		"/>
		<polygon style="fill:#FD9808;" points="109.933,438.893 75.8,438.893 75.8,353.56 92.867,327.96 109.933,353.56 		"/>
	</g>
	<g>
		<polygon style="fill:#FFDD09;" points="297.667,106.093 400.067,106.093 400.067,71.96 297.667,71.96 		"/>
		<polygon style="fill:#FFDD09;" points="383,191.427 383,106.093 314.733,106.093 314.733,150.467 		"/>
	</g>
	<g>
		<polygon style="fill:#FD9808;" points="255,114.627 84.333,217.027 84.333,259.693 255,157.293 425.667,259.693 425.667,217.027 
					"/>
		<polygon style="fill:#FD9808;" points="255,157.293 109.933,244.333 109.933,438.893 400.067,438.893 400.067,244.333 		"/>
	</g>
	<polygon style="fill:#FFDD09;" points="242.2,157.293 109.933,244.333 109.933,438.893 374.467,438.893 374.467,234.093 	"/>
	<g>
		<polygon style="fill:#54C9FD;" points="297.667,438.893 365.933,438.893 365.933,302.36 297.667,302.36 		"/>
		<polygon style="fill:#54C9FD;" points="144.067,353.56 263.533,353.56 263.533,268.227 144.067,268.227 		"/>
	</g>
	<path d="M365.933,447.427h-68.267c-5.12,0-8.533-3.413-8.533-8.533V302.36c0-5.12,3.413-8.533,8.533-8.533h68.267
		c5.12,0,8.533,3.413,8.533,8.533v136.533C374.467,444.013,371.053,447.427,365.933,447.427z M306.2,430.36h51.2V310.893h-51.2
		V430.36z"/>
	<path d="M340.333,379.16H331.8c-5.12,0-8.533-3.413-8.533-8.533c0-5.12,3.413-8.533,8.533-8.533h8.533
		c5.12,0,8.533,3.413,8.533,8.533C348.867,375.747,345.453,379.16,340.333,379.16z"/>
	<path d="M203.8,362.093c-5.12,0-8.533-3.413-8.533-8.533v-85.333c0-5.12,3.413-8.533,8.533-8.533c5.12,0,8.533,3.413,8.533,8.533
		v85.333C212.333,358.68,208.92,362.093,203.8,362.093z"/>
	<path d="M263.533,319.427H144.067c-5.12,0-8.533-3.413-8.533-8.533c0-5.12,3.413-8.533,8.533-8.533h119.467
		c5.12,0,8.533,3.413,8.533,8.533C272.067,316.013,268.653,319.427,263.533,319.427z"/>
	<path d="M425.667,268.227c-1.707,0-3.413,0-4.267-0.853L255,167.533l-166.4,99.84c-2.56,1.707-5.973,1.707-8.533,0
		c-2.56-1.707-4.267-4.267-4.267-7.68v-42.667c0-3.413,1.707-5.973,4.267-7.68l170.667-102.4c2.56-1.707,5.973-1.707,8.533,0
		l170.667,102.4c2.56,1.707,4.267,4.267,4.267,7.68v42.667c0,3.413-1.707,5.973-4.267,7.68
		C428.227,268.227,427.373,268.227,425.667,268.227z M255,148.76c1.707,0,3.413,0,4.267,0.853l157.867,94.72v-23.04L255,124.867
		l-162.133,97.28v23.04l157.867-95.573C251.587,148.76,253.293,148.76,255,148.76z"/>
	<path d="M400.067,447.427H109.933c-5.12,0-8.533-3.413-8.533-8.533v-194.56c0-3.413,1.707-5.973,4.267-7.68l145.067-87.04
		c2.56-1.707,5.973-1.707,8.533,0l145.067,87.04c2.56,1.707,4.267,4.267,4.267,7.68v194.56
		C408.6,444.013,405.187,447.427,400.067,447.427z M118.467,430.36h273.067V249.453L255,167.533l-136.533,81.92V430.36z"/>
	<path d="M263.533,362.093H144.067c-5.12,0-8.533-3.413-8.533-8.533v-85.333c0-5.12,3.413-8.533,8.533-8.533h119.467
		c5.12,0,8.533,3.413,8.533,8.533v85.333C272.067,358.68,268.653,362.093,263.533,362.093z M152.6,345.027H255V276.76H152.6V345.027
		z"/>
	<path d="M297.667,413.293H109.933c-5.12,0-8.533-3.413-8.533-8.533c0-5.12,3.413-8.533,8.533-8.533h187.733
		c5.12,0,8.533,3.413,8.533,8.533C306.2,409.88,302.787,413.293,297.667,413.293z"/>
	<path d="M400.067,413.293h-34.133c-5.12,0-8.533-3.413-8.533-8.533c0-5.12,3.413-8.533,8.533-8.533h34.133
		c5.12,0,8.533,3.413,8.533,8.533C408.6,409.88,405.187,413.293,400.067,413.293z"/>
	<path d="M400.067,114.627h-102.4c-5.12,0-8.533-3.413-8.533-8.533V71.96c0-5.12,3.413-8.533,8.533-8.533h102.4
		c5.12,0,8.533,3.413,8.533,8.533v34.133C408.6,111.213,405.187,114.627,400.067,114.627z M306.2,97.56h85.333V80.493H306.2V97.56z"
		/>
	<path d="M383,199.96c-1.707,0-3.413,0-4.267-0.853l-68.267-40.96c-2.56-1.707-4.267-4.267-4.267-7.68v-44.373
		c0-5.12,3.413-8.533,8.533-8.533H383c5.12,0,8.533,3.413,8.533,8.533v85.333c0,3.413-1.707,5.973-4.267,7.68
		C385.56,199.96,384.707,199.96,383,199.96z M323.267,145.347l51.2,30.72v-61.44h-51.2V145.347z"/>
	<path d="M41.667,447.427H7.533c-5.12,0-8.533-3.413-8.533-8.533V353.56c0-1.707,0.853-3.413,1.707-5.12l17.067-25.6
		c3.413-5.12,11.093-5.12,14.507,0l17.067,25.6c0,1.707,0.853,3.413,0.853,5.12v85.333C50.2,444.013,46.787,447.427,41.667,447.427z
		 M16.067,430.36h17.067v-74.24l-8.533-12.8l-8.533,12.8V430.36z"/>
	<path d="M75.8,447.427H41.667c-5.12,0-8.533-3.413-8.533-8.533V353.56c0-1.707,0.853-3.413,1.707-5.12l17.067-25.6
		c3.413-5.12,11.093-5.12,14.507,0l17.067,25.6c0,1.707,0.853,3.413,0.853,5.12v85.333C84.333,444.013,80.92,447.427,75.8,447.427z
		 M50.2,430.36h17.067v-74.24l-8.533-12.8l-8.533,12.8V430.36z"/>
	<path d="M109.933,447.427H75.8c-5.12,0-8.533-3.413-8.533-8.533V353.56c0-1.707,0.853-3.413,1.707-5.12l17.067-25.6
		c3.413-5.12,11.093-5.12,14.507,0l17.067,25.6c0.853,1.707,1.707,3.413,1.707,5.12v85.333
		C118.467,444.013,115.053,447.427,109.933,447.427z M84.333,430.36H101.4v-74.24l-8.533-12.8l-8.533,12.8V430.36z"/>
	<path d="M434.2,447.427h-34.133c-5.12,0-8.533-3.413-8.533-8.533V353.56c0-1.707,0.853-3.413,1.707-5.12l17.067-25.6
		c3.413-5.12,11.093-5.12,14.507,0l17.067,25.6c0.853,1.707,1.707,3.413,1.707,5.12v85.333
		C442.733,444.013,439.32,447.427,434.2,447.427z M408.6,430.36h17.067v-74.24l-8.533-12.8l-8.533,12.8V430.36z"/>
	<path d="M468.333,447.427H434.2c-5.12,0-8.533-3.413-8.533-8.533V353.56c0-1.707,0.853-3.413,1.707-5.12l17.067-25.6
		c3.413-5.12,11.093-5.12,14.507,0l17.067,25.6c0.853,1.707,1.707,3.413,1.707,5.12v85.333
		C476.867,444.013,473.453,447.427,468.333,447.427z M442.733,430.36H459.8v-74.24l-8.533-12.8l-8.533,12.8V430.36z"/>
	<path d="M502.467,447.427h-34.133c-5.12,0-8.533-3.413-8.533-8.533V353.56c0-1.707,0.853-3.413,1.707-5.12l17.067-25.6
		c3.413-5.12,11.093-5.12,14.507,0l17.067,25.6c0.853,1.707,1.707,3.413,1.707,5.12v85.333
		C511,444.013,507.587,447.427,502.467,447.427z M476.867,430.36h17.067v-74.24l-8.533-12.8l-8.533,12.8V430.36z"/>
	<path d="M272.067,362.093H135.533c-5.12,0-8.533-3.413-8.533-8.533s3.413-8.533,8.533-8.533h136.533
		c5.12,0,8.533,3.413,8.533,8.533S277.187,362.093,272.067,362.093z"/>
</g>
<g>
</g>
<g>
</g>
<g>
</g>
<g>
</g>
<g>
</g>
<g>
</g>
<g>
</g>
<g>
</g>
<g>
</g>
<g>
</g>
<g>
</g>
<g>
</g>
<g>
</g>
<g>
</g>
<g>
</g>
</svg>
