<?xml version="1.0" encoding="iso-8859-1"?>
<!-- Generator: Adobe Illustrator 19.0.0, SVG Export Plug-In . SVG Version: 6.00 Build 0)  -->
<svg version="1.1" id="Layer_1" xmlns="http://www.w3.org/2000/svg" xmlns:xlink="http://www.w3.org/1999/xlink" x="0px" y="0px"
	 viewBox="0 0 512 512" style="enable-background:new 0 0 512 512;" xml:space="preserve">
<path style="fill:#FBB03B;" d="M200.476,116.187c0-22.104-39.809-96.055-39.809-96.055s-39.809,73.951-39.809,96.055v16.167h79.619
	V116.187z"/>
<circle style="fill:#F7931E;" cx="159.95" cy="108.178" r="32.018"/>
<rect x="103.913" y="132.199" style="fill:#B3B3B3;" width="104.06" height="96.056"/>
<circle style="fill:#F15A24;" cx="159.95" cy="116.192" r="16.009"/>
<rect x="103.913" y="132.199" style="fill:#999999;" width="56.027" height="96.056"/>
<rect x="15.861" y="228.245" style="fill:#C7B299;" width="224.127" height="24.013"/>
<rect x="7.857" y="252.267" style="fill:#B3B3B3;" width="240.135" height="248.139"/>
<rect x="7.857" y="252.267" style="fill:#999999;" width="184.108" height="248.139"/>
<rect x="7.857" y="252.267" style="fill:#808080;" width="80.048" height="248.139"/>
<rect x="272.003" y="252.267" style="fill:#B3B3B3;" width="232.131" height="120.067"/>
<rect x="272.003" y="252.267" style="fill:#999999;" width="177.969" height="120.067"/>
<rect x="272.003" y="252.267" style="fill:#808080;" width="77.378" height="120.067"/>
<path d="M255.852,508.264H0V244.408h255.852V508.264z M15.714,492.549h224.424V260.122H15.714V492.549z"/>
<path d="M512,380.19H264.152V244.408H512V380.19z M279.866,364.476h216.42V260.122h-216.42V364.476z"/>
<path d="M63.889,172.071c-13.323,0-24.161,10.839-24.161,24.161c0,13.323,10.839,24.161,24.161,24.161s24.161-10.839,24.161-24.161
	C88.05,182.91,77.212,172.071,63.889,172.071z"/>
<circle style="fill:#666666;" cx="63.889" cy="196.23" r="32.018"/>
<rect x="56.948" y="188.928" style="fill:#FFFFFF;" width="15.714" height="15.714"/>
<path d="M215.736,220.123V124.79H95.26v38.762h15.714v-23.048h89.047v79.619H95.795c5.001-6.663,7.969-14.936,7.969-23.89
	c0-21.987-17.888-39.875-39.875-39.875s-39.875,17.888-39.875,39.875c0,8.954,2.968,17.227,7.969,23.89H15.64v15.714h224.19v-15.714
	H215.736z M67.503,220.123h-7.226c-11.614-1.75-20.548-11.796-20.548-23.89c0-13.323,10.839-24.161,24.161-24.161
	s24.161,10.839,24.161,24.161C88.05,208.327,79.117,218.373,67.503,220.123z"/>
<rect x="120.853" y="156.452" width="24.095" height="15.714"/>
<rect x="167.996" y="156.452" width="24.095" height="15.714"/>
<rect x="120.853" y="188.928" width="24.095" height="15.714"/>
<rect x="167.996" y="188.928" width="24.095" height="15.714"/>
<path d="M207.824,116.638H192.11c0-12.571-17.618-50.918-32.166-79.202c-14.547,28.284-32.166,66.631-32.166,79.202h-15.714
	c0-24.095,36.778-92.273,40.97-100.021l6.91-12.88l6.91,12.937C171.048,24.423,207.824,92.543,207.824,116.638z"/>
<path d="M183.811,116.638h-15.714c0-5.238-3.657-8.152-8.152-8.152c-4.495,0-8.153,2.913-8.153,8.152h-15.714
	c0-13.619,10.707-23.866,23.867-23.866C173.104,92.772,183.811,103.019,183.811,116.638z"/>
<g>
	<polygon style="fill:#FFFFFF;" points="224.571,477.018 40.191,477.018 40.191,461.304 208.857,461.304 208.857,444.542 
		224.571,444.542 	"/>
	<rect x="208.853" y="372.261" style="fill:#FFFFFF;" width="15.714" height="56.571"/>
	<rect x="208.853" y="340.832" style="fill:#FFFFFF;" width="15.714" height="15.714"/>
	<polygon style="fill:#FFFFFF;" points="480.19,349.209 424.666,349.209 424.666,333.495 464.476,333.495 464.476,324.066 
		480.19,324.066 	"/>
	<rect x="376.472" y="333.499" style="fill:#FFFFFF;" width="32.476" height="15.714"/>
</g>
<g>
</g>
<g>
</g>
<g>
</g>
<g>
</g>
<g>
</g>
<g>
</g>
<g>
</g>
<g>
</g>
<g>
</g>
<g>
</g>
<g>
</g>
<g>
</g>
<g>
</g>
<g>
</g>
<g>
</g>
</svg>
