<?xml version="1.0" encoding="iso-8859-1"?>
<!-- Generator: Adobe Illustrator 19.0.0, SVG Export Plug-In . SVG Version: 6.00 Build 0)  -->
<svg version="1.1" id="Layer_1" xmlns="http://www.w3.org/2000/svg" xmlns:xlink="http://www.w3.org/1999/xlink" x="0px" y="0px"
	 viewBox="0 0 512 512" style="enable-background:new 0 0 512 512;" xml:space="preserve">
<g>
	<polygon style="fill:#1D1D1B;" points="280.113,288.013 295.913,288.013 295.913,72.029 256,72.029 256,87.828 280.113,87.828 	"/>
	<polygon style="fill:#1D1D1B;" points="280.113,496.201 87.828,496.201 87.828,87.828 111.941,87.828 111.941,72.029 
		72.029,72.029 72.029,512 295.913,512 295.913,352.039 280.113,352.039 	"/>
	<rect x="120.044" y="215.989" style="fill:#1D1D1B;" width="15.799" height="16.006"/>
	<rect x="120.044" y="191.974" style="fill:#1D1D1B;" width="15.799" height="16.007"/>
	<rect x="151.959" y="192.08" style="fill:#1D1D1B;" width="96.04" height="15.799"/>
	<rect x="151.959" y="216.084" style="fill:#1D1D1B;" width="96.04" height="15.799"/>
	<rect x="176.069" y="328.029" style="fill:#1D1D1B;" width="15.799" height="16.006"/>
	<rect x="392.154" y="328.029" style="fill:#1D1D1B;" width="15.799" height="16.006"/>
	<polygon style="fill:#1D1D1B;" points="263.9,288.013 263.9,256.103 104.042,256.103 104.042,479.987 263.9,479.987 263.9,352.039 
		248.1,352.039 248.1,464.188 119.841,464.188 119.841,271.903 248.1,271.903 248.1,288.013 	"/>
	<path style="fill:#1D1D1B;" d="M400.058,296.119H183.971c-22.009,0-39.913,17.905-39.913,39.913c0,9.007,3.002,17.324,8.054,24.01
		h-0.049v79.928h63.819v-79.928h-0.057c3.536-4.68,6.074-10.155,7.275-16.11h137.831c3.676,18.237,19.823,32.013,39.127,32.013
		c22.009,0,39.913-17.905,39.913-39.913C439.971,314.024,422.066,296.119,400.058,296.119z M200.081,424.172h-32.22v-51.635
		c4.932,2.185,10.379,3.408,16.11,3.408s11.18-1.223,16.11-3.406V424.172z M400.058,360.145c-13.296,0-24.113-10.817-24.113-24.113
		v-7.9h-167.86v7.9c0,13.296-10.817,24.113-24.113,24.113s-24.113-10.817-24.113-24.113s10.817-24.113,24.113-24.113h216.087
		c13.297,0,24.113,10.817,24.113,24.113S413.354,360.145,400.058,360.145z"/>
	<path style="fill:#1D1D1B;" d="M103.938,175.864h16.109h127.846h16.109v-15.799h-16.109V0H120.049v160.064h-16.11V175.864z
		 M135.848,15.799h96.246v144.265h-96.246V15.799z"/>
	<path style="fill:#1D1D1B;" d="M191.871,78.478c9.31-3.269,16.006-12.145,16.006-22.558c0-13.182-10.725-23.906-23.906-23.906
		s-23.906,10.725-23.906,23.906c0,10.414,6.696,19.289,16.006,22.558v65.477h15.799v-8.106h16.11V120.05h-16.11V78.478z
		 M183.971,64.026c-4.47,0-8.106-3.637-8.106-8.107s3.637-8.106,8.106-8.106s8.106,3.637,8.106,8.106
		C192.077,60.389,188.44,64.026,183.971,64.026z"/>
</g>
<g>
</g>
<g>
</g>
<g>
</g>
<g>
</g>
<g>
</g>
<g>
</g>
<g>
</g>
<g>
</g>
<g>
</g>
<g>
</g>
<g>
</g>
<g>
</g>
<g>
</g>
<g>
</g>
<g>
</g>
</svg>
