<?xml version="1.0" encoding="iso-8859-1"?>
<!-- Generator: Adobe Illustrator 19.0.0, SVG Export Plug-In . SVG Version: 6.00 Build 0)  -->
<svg version="1.1" id="Layer_1" xmlns="http://www.w3.org/2000/svg" xmlns:xlink="http://www.w3.org/1999/xlink" x="0px" y="0px"
	 viewBox="0 0 511.98 511.98" style="enable-background:new 0 0 511.98 511.98;" xml:space="preserve">
<rect x="10.663" y="10.671" style="fill:#4FC0E8;" width="490.66" height="490.65"/>
<g>
	<path style="fill:#3BAED9;" d="M0,0v511.98h511.98V0H0z M490.637,490.653H21.335V21.343h469.303v469.31H490.637z"/>
	<path style="fill:#3BAED9;" d="M138.658,85.34c-5.89,0-10.664,4.766-10.664,10.656v319.989c0,5.905,4.773,10.671,10.664,10.671
		s10.672-4.766,10.672-10.671V95.996C149.33,90.106,144.549,85.34,138.658,85.34z"/>
	<path style="fill:#3BAED9;" d="M255.99,85.34c-5.89,0-10.664,4.766-10.664,10.656v319.989c0,5.905,4.773,10.671,10.664,10.671
		c5.891,0,10.656-4.766,10.656-10.671V95.996C266.646,90.106,261.881,85.34,255.99,85.34z"/>
	<path style="fill:#3BAED9;" d="M383.985,95.996c0-5.89-4.781-10.656-10.656-10.656c-5.905,0-10.687,4.766-10.687,10.656
		c0,0.016,0,0.016,0,0.016v319.974l0,0c0,5.905,4.781,10.671,10.687,10.671c5.875,0,10.656-4.766,10.656-10.671l0,0V95.996
		L383.985,95.996z"/>
</g>
<g>
</g>
<g>
</g>
<g>
</g>
<g>
</g>
<g>
</g>
<g>
</g>
<g>
</g>
<g>
</g>
<g>
</g>
<g>
</g>
<g>
</g>
<g>
</g>
<g>
</g>
<g>
</g>
<g>
</g>
</svg>
