<?xml version="1.0" encoding="iso-8859-1"?>
<!-- Generator: Adobe Illustrator 19.0.0, SVG Export Plug-In . SVG Version: 6.00 Build 0)  -->
<svg version="1.1" id="Layer_1" xmlns="http://www.w3.org/2000/svg" xmlns:xlink="http://www.w3.org/1999/xlink" x="0px" y="0px"
	 viewBox="0 0 511.994 511.994" style="enable-background:new 0 0 511.994 511.994;" xml:space="preserve">
<g>
	<path style="fill:#424953;" d="M469.329,426.649H42.665V128.004c0-58.904,47.756-106.66,106.668-106.66h213.312
		c58.92,0,106.684,47.756,106.684,106.66V426.649z"/>
	<rect x="191.997" style="fill:#424953;" width="128" height="57.685"/>
	<rect x="117.337" y="108.669" style="fill:#424953;" width="277.31" height="403.32"/>
</g>
<rect x="245.327" y="57.694" style="opacity:0.2;enable-background:new    ;" width="21.328" height="454.3"/>
<g>
	<path style="fill:#FECD57;" d="M64,410.65c0,5.906-4.773,10.688-10.664,10.688c-5.89,0-10.671-4.781-10.671-10.688
		c0-5.875,4.781-10.656,10.671-10.656C59.227,399.994,64,404.775,64,410.65z"/>
	<path style="fill:#FECD57;" d="M469.329,410.65c0,5.906-4.781,10.688-10.688,10.688c-5.875,0-10.656-4.781-10.656-10.688
		c0-5.875,4.781-10.656,10.656-10.656C464.548,399.994,469.329,404.775,469.329,410.65z"/>
</g>
<g>
	<polygon style="fill:#646C77;" points="319.991,0.009 350.928,21.344 303.46,87.341 255.993,57.694 	"/>
	<polygon style="fill:#646C77;" points="191.996,0.009 161.051,21.344 208.526,87.341 255.993,57.694 	"/>
</g>
<g>
	<path style="fill:#FECD57;" d="M277.337,266.663c0,5.898-4.781,10.68-10.68,10.68c-5.891,0-10.664-4.781-10.664-10.68
		c0-5.891,4.773-10.664,10.664-10.664C272.556,255.999,277.337,260.772,277.337,266.663z"/>
	<path style="fill:#FECD57;" d="M277.337,330.652c0,5.906-4.781,10.688-10.68,10.688c-5.891,0-10.664-4.781-10.664-10.688
		c0-5.875,4.773-10.655,10.664-10.655C272.556,319.997,277.337,324.777,277.337,330.652z"/>
	<path style="fill:#FECD57;" d="M277.337,202.665c0,5.891-4.781,10.672-10.68,10.672c-5.891,0-10.664-4.781-10.664-10.672
		c0-5.89,4.773-10.664,10.664-10.664C272.556,192.001,277.337,196.775,277.337,202.665z"/>
	<path style="fill:#FECD57;" d="M277.337,394.65c0,5.906-4.781,10.688-10.68,10.688c-5.891,0-10.664-4.781-10.664-10.688
		c0-5.875,4.773-10.656,10.664-10.656C272.556,383.994,277.337,388.775,277.337,394.65z"/>
</g>
<path style="opacity:0.2;enable-background:new    ;" d="M415.988,181.338c0-5.891-4.781-10.672-10.656-10.672
	c-5.906,0-10.688,4.781-10.688,10.672v245.311h21.344V181.338z"/>
<path style="opacity:0.2;enable-background:new    ;" d="M117.334,181.338c0-5.891-4.781-10.672-10.672-10.672
	c-5.89,0-10.664,4.781-10.664,10.672v245.311h21.335L117.334,181.338L117.334,181.338z"/>
<g>
</g>
<g>
</g>
<g>
</g>
<g>
</g>
<g>
</g>
<g>
</g>
<g>
</g>
<g>
</g>
<g>
</g>
<g>
</g>
<g>
</g>
<g>
</g>
<g>
</g>
<g>
</g>
<g>
</g>
</svg>
