<?xml version="1.0" encoding="iso-8859-1"?>
<!-- Generator: Adobe Illustrator 19.0.0, SVG Export Plug-In . SVG Version: 6.00 Build 0)  -->
<svg version="1.1" id="Layer_1" xmlns="http://www.w3.org/2000/svg" xmlns:xlink="http://www.w3.org/1999/xlink" x="0px" y="0px"
	 viewBox="0 0 511.981 511.981" style="enable-background:new 0 0 511.981 511.981;" xml:space="preserve">
<path style="fill:#FECD57;" d="M322.893,130.651H193.68c-40.967,63.576-97.684,179.868-97.684,381.329h149.323h170.666
	C415.985,306.707,362.612,192.492,322.893,130.651z"/>
<g>
	<path style="fill:#E8563F;" d="M170.634,0c-5.718,0-10.375,4.5-10.64,10.156h-0.031v71.341h21.343V10.156h-0.031
		C181.009,4.499,176.353,0,170.634,0z"/>
	<path style="fill:#E8563F;" d="M341.3,0c-5.891,0-10.672,4.765-10.672,10.656v71.341h21.328V10.656C351.956,4.765,347.19,0,341.3,0
		z"/>
</g>
<path style="fill:#FB6D51;" d="M373.313,118.089c-0.531-17.249-4.904-30.436-12.982-39.201c-7.5-8.156-17.766-12.296-30.469-12.296
	c-26.311,0-57.824,18.687-70.918,27.264c-13.656-8.453-47.139-27.264-74.919-27.264c-13.188,0-23.812,4.062-31.624,12.078
	c-8.593,8.796-13.203,22.062-13.75,39.42c-0.594,19.421,4.094,34.905,13.968,45.983c8.5,9.562,20.78,15.5,35.53,17.187l0.594,0.062
	h134.478l0.594-0.062c14.734-1.688,27.016-7.625,35.531-17.187C369.221,152.994,373.923,137.526,373.313,118.089z"/>
<path style="opacity:0.2;fill:#FFFFFF;enable-background:new    ;" d="M347.487,173.696c4.5-2.609,8.484-5.828,11.859-9.625
	c9.875-11.078,14.576-26.546,13.967-45.983c-0.531-17.249-4.904-30.436-12.982-39.201c-7.5-8.156-17.766-12.296-30.469-12.296
	c-3.641,0-7.375,0.375-11.139,1c8.092,1.672,14.889,5.453,20.279,11.297c8.078,8.765,12.438,21.952,12.984,39.201
	c0.609,19.437-4.094,34.905-13.969,45.983c-3.391,3.797-7.375,7.015-11.859,9.625c34.109,67.435,68.482,173.51,68.482,338.284
	h21.344C415.985,347.206,381.595,241.131,347.487,173.696z"/>
<g>
</g>
<g>
</g>
<g>
</g>
<g>
</g>
<g>
</g>
<g>
</g>
<g>
</g>
<g>
</g>
<g>
</g>
<g>
</g>
<g>
</g>
<g>
</g>
<g>
</g>
<g>
</g>
<g>
</g>
</svg>
