<?xml version="1.0" encoding="iso-8859-1"?>
<!-- Generator: Adobe Illustrator 19.0.0, SVG Export Plug-In . SVG Version: 6.00 Build 0)  -->
<svg version="1.1" id="Layer_1" xmlns="http://www.w3.org/2000/svg" xmlns:xlink="http://www.w3.org/1999/xlink" x="0px" y="0px"
	 viewBox="0 0 512 512" style="enable-background:new 0 0 512 512;" xml:space="preserve">
<g transform="translate(1 1)">
	<g>
		<g>
			<path d="M468.333-1H41.667C17.773-1-1,17.773-1,41.667v307.2V383c0,23.893,18.773,42.667,42.667,42.667h150.272l-20.48,68.267
				h-10.325c-5.12,0-8.533,3.413-8.533,8.533s3.413,8.533,8.533,8.533H178.2h153.6h17.067c5.12,0,8.533-3.413,8.533-8.533
				s-3.413-8.533-8.533-8.533h-10.325l-20.48-68.267h150.272C492.227,425.667,511,406.893,511,383v-34.133v-307.2
				C511,17.773,492.227-1,468.333-1z M16.067,41.667c0-14.507,11.093-25.6,25.6-25.6h426.667c14.507,0,25.6,11.093,25.6,25.6
				v298.667H16.067V41.667z M319.853,493.933h-130.56l20.48-68.267h89.6L319.853,493.933z M493.933,383
				c0,14.507-11.093,25.6-25.6,25.6H306.2H203.8H41.667c-14.507,0-25.6-11.093-25.6-25.6v-25.6h477.867V383z"/>
			<path d="M255,161.133c33.28,0,59.733-26.453,59.733-59.733c0-33.28-26.453-59.733-59.733-59.733
				c-33.28,0-59.733,26.453-59.733,59.733C195.267,134.68,221.72,161.133,255,161.133z M255,58.733
				c23.893,0,42.667,18.773,42.667,42.667c0,23.893-18.773,42.667-42.667,42.667c-23.893,0-42.667-18.773-42.667-42.667
				C212.333,77.507,231.107,58.733,255,58.733z"/>
			<path d="M50.2,50.2h68.267c5.12,0,8.533-3.413,8.533-8.533s-3.413-8.533-8.533-8.533H50.2c-5.12,0-8.533,3.413-8.533,8.533
				S45.08,50.2,50.2,50.2z"/>
			<path d="M84.333,67.267H50.2c-5.12,0-8.533,3.413-8.533,8.533s3.413,8.533,8.533,8.533h34.133c5.12,0,8.533-3.413,8.533-8.533
				S89.453,67.267,84.333,67.267z"/>
			<path d="M459.8,263.533H340.333v-25.6c0-30.72-17.067-59.733-43.52-75.093c-2.56-0.853-5.12-0.853-7.68,0
				c-10.28,4.523-21.354,6.844-32.456,7.008c-1.082-0.231-2.194-0.24-3.278-0.02c-10.841-0.259-21.639-2.57-31.68-6.988
				c-2.56-1.707-5.12-0.853-7.68,0c-27.307,15.36-44.373,44.373-44.373,75.093v25.6h-51.2c-5.12,0-8.533,3.413-8.533,8.533V306.2
				c0,5.12,3.413,8.533,8.533,8.533H459.8c5.12,0,8.533-3.413,8.533-8.533v-34.133C468.333,266.947,464.92,263.533,459.8,263.533z
				 M269.507,205.507L255,230.253l-14.507-24.747L255,190.147L269.507,205.507z M185.88,237.933c0-23.893,12.8-45.227,32.427-58.027
				c5.876,2.176,11.976,3.79,18.183,4.857l-13.063,13.063c-3.413,2.56-3.413,6.827-1.707,10.24l25.6,42.667
				c1.707,2.56,4.267,4.267,7.68,4.267s5.973-1.707,7.68-4.267l25.6-42.667c1.707-3.413,0.853-7.68-1.707-10.24l-13.191-13.191
				c5.957-1.066,11.81-2.638,17.457-4.729c20.48,12.8,32.427,34.133,32.427,58.027v25.6H186.733h-0.853V237.933z M451.267,297.667
				H127V280.6h51.2h153.6h119.467V297.667z"/>
			<path d="M84.333,263.533H50.2c-5.12,0-8.533,3.413-8.533,8.533V306.2c0,5.12,3.413,8.533,8.533,8.533h34.133
				c5.12,0,8.533-3.413,8.533-8.533v-34.133C92.867,266.947,89.453,263.533,84.333,263.533z M75.8,297.667H58.733V280.6H75.8
				V297.667z"/>
		</g>
	</g>
</g>
<g>
</g>
<g>
</g>
<g>
</g>
<g>
</g>
<g>
</g>
<g>
</g>
<g>
</g>
<g>
</g>
<g>
</g>
<g>
</g>
<g>
</g>
<g>
</g>
<g>
</g>
<g>
</g>
<g>
</g>
</svg>
