<?xml version="1.0" encoding="iso-8859-1"?>
<!-- Generator: Adobe Illustrator 18.1.1, SVG Export Plug-In . SVG Version: 6.00 Build 0)  -->
<svg version="1.1" id="Capa_1" xmlns="http://www.w3.org/2000/svg" xmlns:xlink="http://www.w3.org/1999/xlink" x="0px" y="0px"
	 viewBox="0 0 21.545 21.545" style="enable-background:new 0 0 21.545 21.545;" xml:space="preserve">
<g>
	<g>
		<path style="fill:#010002;" d="M20.874,8.059c-0.003,0.006-0.009,0.011-0.013,0.017C20.869,8.053,20.875,8.043,20.874,8.059z
			 M19.196,10.431c0.122,0.02,0.331,0.065,0.546,0.065c0.265,0,0.54-0.069,0.682-0.344c0,0,0.073,1.486-2.053,1.486
			c-0.165,0-0.345-0.01-0.537-0.029c0,0-1.893-0.303-2.994-2.083c-1.313,1.719-3.105,3.348-3.563,3.754
			c0.175,0.449,0.377,0.885,0.544,1.294c0.427,1.038,0.994,2.256,0.851,3.413c-0.25,2.014-2.237,2.498-3.908,1.936
			c-1.455-0.49-3.451-1.623-4.006-3.169c-0.495-1.378,0.688-1.893,1.851-2.044l-0.123-0.646c-0.017-0.086,0.017-0.175,0.086-0.229
			c0.069-0.055,0.164-0.066,0.245-0.029l1.989,0.912c0.077,0.036,0.128,0.109,0.137,0.192c0.008,0.084-0.029,0.166-0.096,0.214
			l-1.593,1.168c-0.062,0.045-0.141,0.059-0.214,0.035c-0.004-0.002-0.008-0.005-0.012-0.005c-0.076-0.031-0.131-0.097-0.146-0.177
			l-0.156-0.826c-0.563,0-1.224,0.07-1.365,0.425c-0.182,0.458,0.248,1.033,0.528,1.356c0.951,1.099,2.392,2.053,3.84,2.318
			c0.658,0.12,1.441,0.154,1.917-0.408c0.654-0.77,0.311-1.947,0.009-2.793c-0.326-0.912-0.85-1.904-1.18-2.913
			c-0.444-0.389-2.461-2.198-3.815-4.04c-1.108,1.714-2.947,2.008-2.947,2.008c-0.193,0.019-0.371,0.028-0.537,0.028
			c-2.126,0-2.053-1.485-2.053-1.485c0.142,0.275,0.419,0.344,0.682,0.344c0.216,0,0.425-0.046,0.546-0.065
			c-1.162-0.538-1.593-2.15-1.666-2.356c0.233,0.404,1.091,0.573,1.418,0.579C0.464,7.387,0,5.532,0,5.532
			c0.442,0.6,1.333,0.873,1.839,0.874c0.47,0,0.833-0.126,0.833-0.126c0.437-0.226,0.867-0.316,1.275-0.316
			c0.527,0,1.011,0.156,1.433,0.358C5.342,5.695,5.443,5.159,5.681,4.716C5.68,4.718,5.651,4.739,5.651,4.739s-1.737-1.808,0-3.335
			c0,0-0.374,1.917,1.071,2.313c0.375-0.184,0.823-0.306,1.357-0.362c0.083-0.009,0.171-0.014,0.26-0.014
			c0.897,0,1.912,0.434,2.504,1.257c0.592-0.823,1.608-1.257,2.504-1.257c0.089,0,0.178,0.006,0.261,0.014
			c0.525,0.056,0.969,0.173,1.34,0.352c1.395-0.422,1.024-2.303,1.024-2.303C17.585,2.82,16.206,4.477,16,4.709
			c0.277,0.51,0.371,1.145,0.28,1.899c0.395-0.176,0.84-0.307,1.32-0.307c0.408,0,0.837,0.089,1.275,0.317
			c0,0,0.362,0.125,0.832,0.125c0.507,0,1.398-0.274,1.839-0.874c0,0-0.465,1.855-2.102,2.787c0.328-0.007,1.186-0.174,1.418-0.58
			C20.789,8.281,20.359,9.893,19.196,10.431z M6.523,9.075c-0.559-0.789-0.988-1.575-1.098-2.25C5.409,6.73,5.41,6.646,5.4,6.555
			C4.978,6.337,4.482,6.166,3.947,6.166c-0.408,0-0.806,0.099-1.182,0.294L2.752,6.467L2.737,6.472
			C2.721,6.478,2.338,6.607,1.839,6.607c-0.461,0-1.124-0.238-1.461-0.45C0.588,6.71,1.29,7.623,2.203,8.143l0.69,0.392L2.099,8.52
			C1.932,8.516,1.415,8.4,0.991,8.187C1.137,8.683,1.485,9.472,2.435,9.91l0.599,0.277l-0.652,0.106
			c-0.023,0.005-0.048,0.009-0.077,0.013c-0.131,0.024-0.309,0.057-0.501,0.057c-0.14,0-0.388-0.149-0.49-0.178
			c0.047,0.095,0.241,0.324,0.331,0.419c0.313,0.329,0.828,0.496,1.53,0.496c0.16,0,0.331-0.01,0.511-0.027
			C3.79,11.055,5.509,10.703,6.523,9.075z M13.1,4.224c1.926,0.29,2.384,2.123,2.486,2.761c0.011-0.008,0.025-0.014,0.036-0.022
			C15.755,3.846,13.1,4.224,13.1,4.224z M18.512,10.528l0.598-0.279c0.949-0.44,1.298-1.227,1.446-1.723
			c-0.422,0.215-0.94,0.331-1.108,0.334l-0.794,0.015l0.691-0.394c0.912-0.518,1.614-1.432,1.824-1.985
			c-0.338,0.211-1.001,0.449-1.462,0.449c-0.498,0-0.882-0.13-0.898-0.136l-0.014-0.004l-0.013-0.008
			c-0.377-0.194-0.774-0.294-1.182-0.294c-0.489,0-0.946,0.141-1.343,0.331c-0.126,0.749-0.631,1.634-1.278,2.508
			c1.006,1.692,2.776,2.05,2.882,2.068c0.179,0.017,0.35,0.027,0.511,0.027c0.702,0,1.217-0.166,1.53-0.497
			c0.09-0.093,0.283-0.322,0.331-0.417c-0.102,0.03-0.35,0.177-0.49,0.177c-0.192,0-0.371-0.033-0.501-0.057
			c-0.028-0.005-0.053-0.009-0.077-0.013L18.512,10.528z M0.672,7.722c0.003,0.006,0.009,0.011,0.013,0.017
			C0.676,7.716,0.671,7.706,0.672,7.722z"/>
	</g>
</g>
<g>
</g>
<g>
</g>
<g>
</g>
<g>
</g>
<g>
</g>
<g>
</g>
<g>
</g>
<g>
</g>
<g>
</g>
<g>
</g>
<g>
</g>
<g>
</g>
<g>
</g>
<g>
</g>
<g>
</g>
</svg>
