<?xml version="1.0" encoding="iso-8859-1"?>
<!-- Generator: Adobe Illustrator 19.0.0, SVG Export Plug-In . SVG Version: 6.00 Build 0)  -->
<svg version="1.1" id="Layer_1" xmlns="http://www.w3.org/2000/svg" xmlns:xlink="http://www.w3.org/1999/xlink" x="0px" y="0px"
	 viewBox="0 0 512 512" style="enable-background:new 0 0 512 512;" xml:space="preserve">
<g>
	<g>
		<path d="M490.667,213.319H309.12c49.323-61.952,71.36-171.285,74.496-188.075c2.197-11.563-5.419-22.72-17.003-24.875
			c-11.52-2.112-22.741,5.419-24.896,17.003c-11.221,59.584-48.469,178.155-96.384,194.069
			c-47.915-15.915-85.163-134.485-96.384-194.069c-2.155-11.584-13.355-19.115-24.896-17.003
			c-11.584,2.155-19.2,13.312-17.003,24.875c3.136,16.789,25.173,126.123,74.496,188.075H21.333C9.536,213.319,0,222.876,0,234.652
			v256c0,11.776,9.536,21.333,21.333,21.333h469.333c11.797,0,21.333-9.557,21.333-21.333v-256
			C512,222.876,502.464,213.319,490.667,213.319z M149.333,277.319c11.776,0,21.333,9.557,21.333,21.333
			s-9.557,21.333-21.333,21.333S128,310.428,128,298.652S137.557,277.319,149.333,277.319z M213.333,426.652
			c0,11.776-9.536,21.333-21.333,21.333s-21.333-9.557-21.333-21.333v-21.333c0-11.755-9.557-21.333-21.333-21.333
			S128,393.564,128,405.319v21.333c0,11.776-9.536,21.333-21.333,21.333c-11.797,0-21.333-9.557-21.333-21.333v-21.333
			c0-35.285,28.715-64,64-64c35.285,0,64,28.715,64,64V426.652z M405.333,426.652h-128c-11.797,0-21.333-9.557-21.333-21.333
			s9.536-21.333,21.333-21.333h128c11.797,0,21.333,9.557,21.333,21.333S417.131,426.652,405.333,426.652z M405.333,341.319h-128
			c-11.797,0-21.333-9.557-21.333-21.333s9.536-21.333,21.333-21.333h128c11.797,0,21.333,9.557,21.333,21.333
			S417.131,341.319,405.333,341.319z"/>
	</g>
</g>
<g>
</g>
<g>
</g>
<g>
</g>
<g>
</g>
<g>
</g>
<g>
</g>
<g>
</g>
<g>
</g>
<g>
</g>
<g>
</g>
<g>
</g>
<g>
</g>
<g>
</g>
<g>
</g>
<g>
</g>
</svg>
