<?xml version="1.0" encoding="iso-8859-1"?>
<!-- Generator: Adobe Illustrator 19.0.0, SVG Export Plug-In . SVG Version: 6.00 Build 0)  -->
<svg version="1.1" id="Capa_1" xmlns="http://www.w3.org/2000/svg" xmlns:xlink="http://www.w3.org/1999/xlink" x="0px" y="0px"
	 viewBox="0 0 297.999 297.999" style="enable-background:new 0 0 297.999 297.999;" xml:space="preserve">
<g>
	<path d="M257,256.999v6c0,4.418-3.582,8-8,8s-8-3.582-8-8v-14c0-4.418,3.915-8,8.333-8H284v-34.424
		c0-5.269-0.152-10.464-0.745-15.576h-33.922c-4.418,0-8-3.582-8-8s3.582-8,8-8h31.077c-3.658-15.156-9.889-29.318-18.204-42
		h-78.873c-4.418,0-8.333-3.582-8.333-8v-9c0-4.418,3.582-8,8-8s8,3.582,8,8v1h58.918C227.076,91.447,195,74.648,158,72.312v-15.31
		l60.25-19.043c3.295-1.044,5.63-4.086,5.666-7.542c0.036-3.456-2.11-6.545-5.382-7.658L152.888,0.425
		c-2.445-0.829-5.294-0.432-7.391,1.07C143.4,2.997,142,5.419,142,7.999v64.189c-11,0.548-21,2.446-32,5.521v30.289h7.333
		c4.418,0,8,3.582,8,8s-3.582,8-8,8h-15c-4.418,0-8.333-3.582-8.333-8V83.663c-27,12.029-48.84,32.641-62.957,58.336h37.29
		c4.418,0,8,3.582,8,8s-3.582,8-8,8H23.581C17.724,173.075,14,189.455,14,206.576v18.424h29v-12c0-4.418,3.582-8,8-8s8,3.582,8,8v20
		c0,4.418-3.249,8-7.667,8H14v48.979c0,4.418,4.086,8.022,8.504,8.022H74v-77.466c0-41.702,33.798-75.629,75.501-75.629
		c41.701,0,75.499,33.927,75.499,75.629v77.466h51.162c4.418,0,7.838-3.604,7.838-8.022v-32.978H257z"/>
	<path d="M209,220.534c0-32.88-26.62-59.629-59.499-59.629C116.62,160.905,90,187.654,90,220.534v77.466h21v-77.693
		c0-21.272,17.228-38.579,38.501-38.579c21.273,0,38.499,17.307,38.499,38.579v77.693h21V220.534z"/>
</g>
<g>
</g>
<g>
</g>
<g>
</g>
<g>
</g>
<g>
</g>
<g>
</g>
<g>
</g>
<g>
</g>
<g>
</g>
<g>
</g>
<g>
</g>
<g>
</g>
<g>
</g>
<g>
</g>
<g>
</g>
</svg>
