<?xml version="1.0" encoding="iso-8859-1"?>
<!-- Generator: Adobe Illustrator 19.0.0, SVG Export Plug-In . SVG Version: 6.00 Build 0)  -->
<svg version="1.1" id="Layer_1" xmlns="http://www.w3.org/2000/svg" xmlns:xlink="http://www.w3.org/1999/xlink" x="0px" y="0px"
	 viewBox="0 0 511.999 511.999" style="enable-background:new 0 0 511.999 511.999;" xml:space="preserve">
<path style="fill:#CEE8FA;" d="M452.284,177.191h-333.76c-25.337,0-45.878-20.54-45.878-45.878l0,0
	c0-25.337,20.54-45.878,45.878-45.878h333.76c25.337,0,45.878,20.54,45.878,45.878l0,0
	C498.162,156.652,477.623,177.191,452.284,177.191z"/>
<path style="fill:#2D527C;" d="M452.284,191.031h-333.76c-32.927,0-59.716-26.789-59.716-59.716S85.597,71.6,118.524,71.6h333.759
	c32.927,0,59.716,26.787,59.716,59.714S485.211,191.031,452.284,191.031z M118.524,99.275c-17.667,0-32.04,14.373-32.04,32.039
	c0,17.668,14.373,32.04,32.04,32.04h333.759c17.668,0,32.04-14.373,32.04-32.04s-14.373-32.039-32.04-32.039H118.524z"/>
<path style="fill:#CEE8FA;" d="M283.683,85.437c-5.419-29.552-31.289-51.954-62.407-51.954s-56.988,22.402-62.407,51.954H283.683z"
	/>
<path style="fill:#2D527C;" d="M283.683,99.273H158.868c-4.107,0-8.001-1.824-10.63-4.98c-2.629-3.154-3.721-7.315-2.981-11.354
	c6.725-36.676,38.695-63.296,76.018-63.296s69.293,26.62,76.018,63.296c0.74,4.039-0.352,8.2-2.979,11.354
	C291.684,97.45,287.79,99.273,283.683,99.273z M178.591,71.598h85.368c-8.723-14.697-24.739-24.278-42.684-24.278
	S187.315,56.901,178.591,71.598z"/>
<path style="fill:#CEE8FA;" d="M411.94,85.437c-5.419-29.552-31.289-51.954-62.407-51.954s-56.988,22.402-62.407,51.954H411.94z"/>
<path style="fill:#2D527C;" d="M411.94,99.273H287.127c-4.107,0-8.001-1.824-10.632-4.98c-2.628-3.154-3.72-7.315-2.979-11.354
	c6.725-36.676,38.696-63.296,76.018-63.296s69.292,26.62,76.018,63.296c0.74,4.039-0.351,8.2-2.979,11.354
	C419.942,97.45,416.047,99.273,411.94,99.273z M306.849,71.598h85.37c-8.725-14.697-24.741-24.278-42.686-24.278
	S315.573,56.901,306.849,71.598z"/>
<path style="fill:#CEE8FA;" d="M172.205,298.643c-19.408,0-28.116,10.878-31.542,17.268c-0.43,0.803-1.598,0.801-2.027-0.001
	c-3.414-6.39-12.074-17.265-31.481-17.265c-22.107,0-41.554,15.092-41.554,42.648c0,11.151,2.272,20.704,8.579,31.366
	c12.853,21.727,55.195,49.892,63.893,55.441c0.962,0.613,2.179,0.616,3.143,0.004c8.705-5.524,51.055-33.55,64.01-55.445
	c6.307-10.662,8.564-20.214,8.564-31.366C213.79,313.735,194.312,298.643,172.205,298.643z"/>
<g>
	<path style="fill:#2D527C;" d="M139.649,442.399L139.649,442.399c-3.205,0-6.327-0.913-9.029-2.642
		c-8.794-5.613-53.478-34.918-68.348-60.053c-7.266-12.282-10.507-24.13-10.507-38.411c0-32.731,23.296-56.486,55.391-56.486
		c15.02,0,25.469,5.103,32.505,10.942c7.049-5.84,17.51-10.942,32.544-10.942c32.115,0,55.423,23.755,55.423,56.486
		c0,14.3-3.235,26.147-10.493,38.411c-14.979,25.323-59.694,54.493-68.504,60.084C145.948,441.494,142.838,442.399,139.649,442.399z
		 M107.156,312.481c-12.786,0-27.716,7.546-27.716,28.81c0,9.288,1.928,16.334,6.652,24.319
		c8.647,14.617,36.15,35.296,53.573,46.986c17.433-11.64,44.94-32.26,53.651-46.986c4.715-7.966,6.637-15.013,6.637-24.319
		c0-21.265-14.948-28.81-27.748-28.81c-9.289,0-15.799,3.354-19.347,9.969c-2.611,4.872-7.672,7.9-13.205,7.9
		c-5.543,0-10.609-3.033-13.219-7.918C122.904,315.829,116.418,312.481,107.156,312.481z"/>
	<path style="fill:#2D527C;" d="M234.351,492.355H45.041C20.206,492.355,0,472.149,0,447.313V279.892
		c0-24.835,20.206-45.041,45.041-45.041h189.31c24.835,0,45.041,20.206,45.041,45.041v167.421
		C279.392,472.149,259.187,492.355,234.351,492.355z M45.041,262.527c-9.576,0-17.365,7.789-17.365,17.365v167.421
		c0,9.576,7.789,17.366,17.365,17.366h189.31c9.574,0,17.365-7.791,17.365-17.366V279.892c0-9.576-7.789-17.365-17.365-17.365
		L45.041,262.527L45.041,262.527z"/>
	<path style="fill:#2D527C;" d="M411.666,450.042H265.554c-7.641,0-13.838-6.197-13.838-13.838V279.892
		c0-9.574-7.789-17.365-17.365-17.365H112.733c-7.643,0-13.838-6.197-13.838-13.838v-71.496c0-7.641,6.195-13.838,13.838-13.838
		h345.343c7.641,0,13.838,6.197,13.838,13.838v28.049c0,7.641-6.197,13.838-13.838,13.838s-13.838-6.197-13.838-13.838v-14.211
		H126.571v43.82h107.78c24.835,0,45.041,20.206,45.041,45.041v142.474h132.275c17.96,0,32.572-14.613,32.572-32.571v-106.12
		c0-7.641,6.197-13.838,13.838-13.838s13.838,6.197,13.838,13.838v106.12C471.913,423.014,444.887,450.042,411.666,450.042z"/>
</g>
<g>
</g>
<g>
</g>
<g>
</g>
<g>
</g>
<g>
</g>
<g>
</g>
<g>
</g>
<g>
</g>
<g>
</g>
<g>
</g>
<g>
</g>
<g>
</g>
<g>
</g>
<g>
</g>
<g>
</g>
</svg>
