<?xml version="1.0" encoding="iso-8859-1"?>
<!-- Generator: Adobe Illustrator 18.0.0, SVG Export Plug-In . SVG Version: 6.00 Build 0)  -->
<!DOCTYPE svg PUBLIC "-//W3C//DTD SVG 1.1//EN" "http://www.w3.org/Graphics/SVG/1.1/DTD/svg11.dtd">
<svg version="1.1" id="Capa_1" xmlns="http://www.w3.org/2000/svg" xmlns:xlink="http://www.w3.org/1999/xlink" x="0px" y="0px"
	 viewBox="0 0 295.714 295.714" style="enable-background:new 0 0 295.714 295.714;" xml:space="preserve">
<g id="XMLID_42_">
	<path id="XMLID_48_" d="M282.114,72.911c-5.641-5.892-14.965-6.083-20.836-0.461l-5.074,4.854
		c4.777,8.423,7.003,18.365,5.352,28.668l-1.323,8.265l21.42-20.49C287.533,88.119,287.735,78.79,282.114,72.911z"/>
	<path id="XMLID_47_" d="M127.554,178.681c-6.015,0.692-11.693,3.53-15.666,8.37l-57.374,69.923
		c-8.308,10.12-6.831,25.056,3.29,33.359c4.404,3.615,9.728,5.381,15.021,5.381c6.851,0,13.651-2.959,18.332-8.668l48.119-58.636
		l25.44,5.703l-29.374-35.307C130.422,192.892,127.938,185.813,127.554,178.681z"/>
	<path id="XMLID_46_" d="M221.651,75.587c-12.884-2.063-25.076,6.729-27.148,19.655l-9.094,56.843
		c0.941,0.896,1.938,1.712,2.792,2.738l37.556,45.14l15.561-97.229C243.378,89.808,234.581,77.653,221.651,75.587z"/>
	<path id="XMLID_45_" d="M191.576,63.591c4.672,2.447,9.9,3.957,15.541,3.957c9.592,0,18.207-4.044,24.355-10.462
		c5.804-6.067,9.42-14.254,9.42-23.31C240.893,15.124,225.775,0,207.117,0c-18.649,0-33.767,15.124-33.767,33.776
		C173.35,46.788,180.793,57.949,191.576,63.591z"/>
	<path id="XMLID_44_" d="M173.1,167.39c-5.209-6.249-14.484-7.113-20.749-1.903c-6.264,5.209-7.107,14.5-1.907,20.753
		l85.135,102.329c2.917,3.5,7.108,5.31,11.34,5.31c3.319,0,6.656-1.118,9.411-3.407c6.263-5.208,7.108-14.499,1.909-20.754
		L173.1,167.39z"/>
	<path id="XMLID_43_" d="M156.861,73.673C156.861,32.984,123.88,0,83.186,0C42.493,0,9.514,32.984,9.514,73.673
		c0,40.688,32.979,73.674,73.672,73.674C123.88,147.347,156.861,114.36,156.861,73.673z"/>
</g>
<g>
</g>
<g>
</g>
<g>
</g>
<g>
</g>
<g>
</g>
<g>
</g>
<g>
</g>
<g>
</g>
<g>
</g>
<g>
</g>
<g>
</g>
<g>
</g>
<g>
</g>
<g>
</g>
<g>
</g>
</svg>
