<?xml version="1.0" encoding="iso-8859-1"?>
<!-- Generator: Adobe Illustrator 19.0.0, SVG Export Plug-In . SVG Version: 6.00 Build 0)  -->
<svg version="1.1" id="Capa_1" xmlns="http://www.w3.org/2000/svg" xmlns:xlink="http://www.w3.org/1999/xlink" x="0px" y="0px"
	 viewBox="0 0 121.669 121.669" style="enable-background:new 0 0 121.669 121.669;" xml:space="preserve">
<g>
	<path d="M60.834,121.669C27.291,121.669,0,94.379,0,60.834C0,27.29,27.291,0,60.834,0s60.834,27.29,60.834,60.834
		C121.669,94.379,94.378,121.669,60.834,121.669z M60.834,6C30.599,6,6,30.599,6,60.834s24.599,54.835,54.834,54.835
		c30.234,0,54.834-24.6,54.834-54.835S91.07,6,60.834,6z"/>
	<path d="M32.27,48.029c-2.475,0-5.4,3.479-6.47,5.709c-1.072-2.231-3.993-5.701-6.465-5.701c-3.542,0-7.029,2.26-6.629,8.127
		c0.375,5.506,13.089,12.471,13.1,12.478v-0.013c0.164-0.09,12.72-7,13.093-12.473C39.299,50.289,35.811,48.029,32.27,48.029z"/>
	<path d="M101.936,48.029c-2.476,0-5.4,3.479-6.471,5.709c-1.071-2.231-3.992-5.701-6.465-5.701c-3.541,0-7.029,2.26-6.629,8.127
		c0.375,5.506,13.09,12.471,13.1,12.478v-0.013c0.164-0.09,12.721-7,13.094-12.473C108.964,50.289,105.477,48.029,101.936,48.029z"
		/>
	<path d="M60.636,100.437c-10.04,0-18.208-7.281-18.208-16.231h6c0,5.642,5.477,10.231,12.208,10.231
		c6.73,0,12.208-4.59,12.208-10.231h6C78.844,93.153,70.676,100.437,60.636,100.437z"/>
</g>
<g>
</g>
<g>
</g>
<g>
</g>
<g>
</g>
<g>
</g>
<g>
</g>
<g>
</g>
<g>
</g>
<g>
</g>
<g>
</g>
<g>
</g>
<g>
</g>
<g>
</g>
<g>
</g>
<g>
</g>
</svg>
