<?xml version="1.0" encoding="iso-8859-1"?>
<!-- Generator: Adobe Illustrator 19.0.0, SVG Export Plug-In . SVG Version: 6.00 Build 0)  -->
<svg version="1.1" id="Layer_1" xmlns="http://www.w3.org/2000/svg" xmlns:xlink="http://www.w3.org/1999/xlink" x="0px" y="0px"
	 viewBox="0 0 472.615 472.615" style="enable-background:new 0 0 472.615 472.615;" xml:space="preserve">
<g>
	<g>
		<path d="M1.798,170.39v302.226h469.02V170.39H1.798z M289.797,211.169h47.565v42.342h-47.565V211.169z M208.286,211.169h47.565
			v42.342h-47.565V211.169z M216.765,300.331v42.342h-84.852v-42.342H216.765z M92.828,431.836H45.264v-42.341h47.564V431.836z
			 M92.828,342.674H45.264v-42.342h47.564V342.674z M92.828,253.511H45.264v-42.342h47.564V253.511z M126.774,211.169h47.565v42.342
			h-47.565V211.169z M340.703,431.836h-208.79v-42.341h208.79V431.836z M340.703,342.674H255.85v-42.342h84.852V342.674z
			 M427.353,431.836h-47.565v-42.341h47.565V431.836z M427.353,342.674h-47.565v-42.342h47.565V342.674z M427.353,253.511h-47.565
			v-42.342h47.565V253.511z"/>
	</g>
</g>
<g>
	<g>
		<polygon points="236.308,0 142.765,127.821 329.851,127.821 		"/>
	</g>
</g>
<g>
</g>
<g>
</g>
<g>
</g>
<g>
</g>
<g>
</g>
<g>
</g>
<g>
</g>
<g>
</g>
<g>
</g>
<g>
</g>
<g>
</g>
<g>
</g>
<g>
</g>
<g>
</g>
<g>
</g>
</svg>
