<?xml version="1.0" encoding="iso-8859-1"?>
<!-- Generator: Adobe Illustrator 19.0.0, SVG Export Plug-In . SVG Version: 6.00 Build 0)  -->
<svg version="1.1" id="Layer_1" xmlns="http://www.w3.org/2000/svg" xmlns:xlink="http://www.w3.org/1999/xlink" x="0px" y="0px"
	 viewBox="0 0 512 512" style="enable-background:new 0 0 512 512;" xml:space="preserve">
<g>
	<g>
		<g>
			<rect x="232.234" y="200.6" width="47.525" height="15.765"/>
			<rect x="232.234" y="295.64" width="47.525" height="15.765"/>
			<rect x="232.234" y="232.276" width="47.525" height="15.765"/>
			<rect x="232.234" y="263.963" width="47.525" height="15.765"/>
			<rect x="200.558" y="406.528" width="15.838" height="15.765"/>
			<rect x="232.234" y="406.528" width="15.838" height="15.765"/>
			<rect x="263.921" y="406.528" width="15.838" height="15.765"/>
			<rect x="295.598" y="406.528" width="15.838" height="15.765"/>
			<path d="M366.024,107.469c-25.66-43.502-62.339-79.873-106.075-105.184L256,0l-3.949,2.285
				c-43.736,25.311-80.417,61.682-106.075,105.184C119.53,152.305,105.551,203.667,105.551,256
				c0,52.333,13.979,103.695,40.426,148.531c25.66,43.502,62.339,79.873,106.075,105.184L256,512l3.949-2.285
				c43.736-25.311,80.417-61.682,106.075-105.184c26.447-44.837,40.426-96.198,40.426-148.531
				C406.449,203.667,392.47,152.305,366.024,107.469z M256,18.258c21.853,13.135,41.757,29.229,59.171,47.69H196.829
				C214.243,47.486,234.147,31.393,256,18.258z M165.783,105.475h18.933V89.71h-7.909c2.033-2.703,4.107-5.372,6.235-7.997h145.912
				c2.128,2.625,4.203,5.295,6.235,7.997h-7.908v15.765h18.933c1.71,2.636,3.38,5.3,5.002,7.996H160.782
				C162.403,110.774,164.073,108.111,165.783,105.475z M256,493.742c-21.853-13.135-41.757-29.23-59.171-47.69h118.342
				C297.757,464.513,277.853,480.607,256,493.742z M346.216,406.526h-18.933v15.765h7.91c-2.033,2.703-4.107,5.372-6.235,7.997
				H183.043c-2.128-2.625-4.203-5.295-6.235-7.997h7.909v-15.765h-18.933c-1.71-2.636-3.38-5.3-5.002-7.996h190.436
				C349.596,401.226,347.927,403.89,346.216,406.526z M360.026,382.765h-96.143v-55.481h-15.765v55.481h-96.143
				c-20.094-39.019-30.659-82.52-30.659-126.765s10.565-87.747,30.659-126.765h96.143v55.481h15.765v-55.481h96.143
				c20.094,39.019,30.659,82.52,30.659,126.765S380.119,343.747,360.026,382.765z"/>
			<rect x="200.558" y="89.711" width="15.838" height="15.765"/>
			<rect x="232.234" y="89.711" width="15.838" height="15.765"/>
			<rect x="263.921" y="89.711" width="15.838" height="15.765"/>
			<rect x="295.598" y="89.711" width="15.838" height="15.765"/>
		</g>
	</g>
</g>
<g>
</g>
<g>
</g>
<g>
</g>
<g>
</g>
<g>
</g>
<g>
</g>
<g>
</g>
<g>
</g>
<g>
</g>
<g>
</g>
<g>
</g>
<g>
</g>
<g>
</g>
<g>
</g>
<g>
</g>
</svg>
