<?xml version="1.0" encoding="iso-8859-1"?>
<!-- Generator: Adobe Illustrator 19.0.0, SVG Export Plug-In . SVG Version: 6.00 Build 0)  -->
<svg version="1.1" id="Layer_1" xmlns="http://www.w3.org/2000/svg" xmlns:xlink="http://www.w3.org/1999/xlink" x="0px" y="0px"
	 viewBox="0 0 512 512" style="enable-background:new 0 0 512 512;" xml:space="preserve">
<g>
	<g>
		<path style="fill:#010101;" d="M490.259,113.597h-22.48C457.021,49.568,401.368,0.544,334.811,0.544H170.667
			c-66.525,0-122.474,49.308-133.005,113.053H21.741C9.783,113.597,0,123.38,0,135.338s9.783,21.741,21.741,21.741h14.132v332.637
			c0,11.958,9.783,21.741,21.741,21.741h131.533h127.185h132.62c11.958,0,20.654-9.783,21.741-21.741V157.079h18.48
			c11.958,0,22.828-9.783,22.828-21.741S502.217,113.597,490.259,113.597z M170.667,44.026h163.057
			c43.087,0,79.754,29.893,89.936,69.571H80.724C90.895,72.846,127.569,42.948,170.667,44.026z M209.8,469.062V319.049h84.79
			v150.013H209.8z M427.21,469.062h-88.051V298.395c0-11.958-9.783-21.741-21.741-21.741H189.146
			c-11.958,0-21.741,9.783-21.741,21.741v170.667H78.268V157.079H427.21V469.062z"/>
	</g>
</g>
<g>
</g>
<g>
</g>
<g>
</g>
<g>
</g>
<g>
</g>
<g>
</g>
<g>
</g>
<g>
</g>
<g>
</g>
<g>
</g>
<g>
</g>
<g>
</g>
<g>
</g>
<g>
</g>
<g>
</g>
</svg>
