<?xml version="1.0" encoding="iso-8859-1"?>
<!-- Generator: Adobe Illustrator 19.0.0, SVG Export Plug-In . SVG Version: 6.00 Build 0)  -->
<svg version="1.1" id="Layer_1" xmlns="http://www.w3.org/2000/svg" xmlns:xlink="http://www.w3.org/1999/xlink" x="0px" y="0px"
	 viewBox="0 0 512 512" style="enable-background:new 0 0 512 512;" xml:space="preserve">
<g>
	<g>
		<path style="fill:#010101;" d="M490.259,213.605h-76.093v-82.616c0-11.958-9.784-21.741-21.741-21.741h-37.412
			c-4.086-39.732-35.888-72.1-77.815-81.161v-5.802c0-11.958-9.783-21.741-21.741-21.741c-11.958,0-21.741,9.783-21.741,21.741
			v4.954c-44.062,7.7-77.937,40.915-82.164,82.01h-31.976c-11.958,0-21.741,9.783-21.741,21.741v82.616H21.741
			C9.783,213.605,0,223.389,0,235.346c0,11.958,9.783,21.741,21.741,21.741h14.132v232.628c0,11.958,9.783,21.741,21.741,21.741
			h67.397h85.877h89.138h85.877h67.397c11.958,0,20.654-9.783,20.654-20.654V257.087h15.219c11.958,0,22.828-9.783,22.828-21.741
			C512,223.389,502.217,213.605,490.259,213.605z M254.369,67.941c30.028,0,53.997,18.131,58.865,41.308H195.539
			C200.584,86.071,225.31,67.941,254.369,67.941z M140.229,152.73h230.454v60.875H140.229V152.73z M147.839,469.062V357.096
			c0-9.783,7.609-17.393,17.393-17.393h7.609c9.783,0,17.393,7.609,17.393,17.393v111.966H147.839z M321.766,469.062V357.096
			c0-9.783,7.609-17.393,17.393-17.393h7.609c9.783,0,17.393,7.609,17.393,17.393v111.966H321.766z M431.558,469.062h-26.089
			V357.096c0-32.612-26.089-59.788-59.788-59.788h-7.609c-32.611,0-59.788,26.089-59.788,59.788v111.966h-47.83V357.096
			c0-32.612-26.089-59.788-59.788-59.788h-7.609c-32.611,0-59.788,26.089-59.788,59.788v111.966H79.355V257.087h352.204V469.062z"/>
	</g>
</g>
<g>
</g>
<g>
</g>
<g>
</g>
<g>
</g>
<g>
</g>
<g>
</g>
<g>
</g>
<g>
</g>
<g>
</g>
<g>
</g>
<g>
</g>
<g>
</g>
<g>
</g>
<g>
</g>
<g>
</g>
</svg>
