<?xml version="1.0" encoding="iso-8859-1"?>
<!-- Generator: Adobe Illustrator 19.0.0, SVG Export Plug-In . SVG Version: 6.00 Build 0)  -->
<svg version="1.1" id="Layer_1" xmlns="http://www.w3.org/2000/svg" xmlns:xlink="http://www.w3.org/1999/xlink" x="0px" y="0px"
	 viewBox="0 0 512 512" style="enable-background:new 0 0 512 512;" xml:space="preserve">
<g>
	<g>
		<path style="fill:#010101;" d="M416.136,306.111H277.787v-44.664h99.743c0.053,0,0.479,0,0.479,0
			c10.894,0,20.698-9.804,20.698-21.787c0-2.179,0-5.447-1.089-7.626L348.596,16.34C346.417,6.536,337.702,0,327.898,0H184.102
			c-9.804,0-18.519,6.536-20.698,16.34l-49.021,218.962c-1.089,6.536,0,13.072,4.357,18.519c3.268,4.357,9.804,7.626,16.34,7.626
			h99.132v44.664H95.864c-11.983,0-21.787,9.804-21.787,21.787c0,11.983,9.804,21.787,21.787,21.787h138.349v35.871l-70.809,69.797
			c-7.625,8.715-8.715,21.787,0,30.502c8.715,7.626,21.787,8.715,30.502,0l40.306-38.892v43.25c0,11.983,9.804,21.787,21.787,21.787
			c11.983,0,21.787-9.804,21.787-21.787v-42.874l39.217,38.517c4.357,4.357,9.804,6.536,15.251,6.536
			c6.536,0,11.983-2.179,13.072-6.536c8.715-8.715,8.715-21.787,0-30.502l-67.54-66.576v-39.093h138.349
			c11.983,0,21.787-9.804,21.787-21.787C437.923,315.915,428.119,306.111,416.136,306.111z M200.443,42.485h111.115l39.217,176.477
			h-88.004c-2.134-0.703-4.409-1.089-6.771-1.089c-2.362,0-4.637,0.386-6.771,1.089h-88.004L200.443,42.485z"/>
	</g>
</g>
<g>
</g>
<g>
</g>
<g>
</g>
<g>
</g>
<g>
</g>
<g>
</g>
<g>
</g>
<g>
</g>
<g>
</g>
<g>
</g>
<g>
</g>
<g>
</g>
<g>
</g>
<g>
</g>
<g>
</g>
</svg>
