<?xml version="1.0" encoding="iso-8859-1"?>
<!-- Generator: Adobe Illustrator 19.0.0, SVG Export Plug-In . SVG Version: 6.00 Build 0)  -->
<svg version="1.1" id="Layer_1" xmlns="http://www.w3.org/2000/svg" xmlns:xlink="http://www.w3.org/1999/xlink" x="0px" y="0px"
	 viewBox="0 0 512 512" style="enable-background:new 0 0 512 512;" xml:space="preserve">
<g>
	<g>
		<path style="fill:#010101;" d="M490.259,467.431h-10.87v-276.11h11.958c10.87,0,20.654-9.783,20.654-21.741
			c0-11.958-9.783-21.741-21.741-21.741h-45.505C435.274,65.182,354.538,0,256.544,0C158.125,0,77.123,64.783,66.398,147.839H21.741
			C9.783,147.839,0,157.622,0,169.58c0,11.958,9.783,21.741,21.741,21.741H36.96v276.11h-9.783
			c-11.958,0-21.741,9.783-21.741,21.741s9.783,21.741,21.741,21.741h24.768c2.13,0.702,4.4,1.087,6.756,1.087h107.618
			c2.357,0,4.627-0.385,6.756-1.087h24.768c11.958,0,20.654-9.783,21.741-21.741c0-11.958-9.783-21.741-21.741-21.741h-9.783
			V328.289c0-33.698,31.524-60.875,70.658-60.875c39.134,0,70.658,27.176,70.658,60.875v139.142h-9.784
			c-11.958,0-21.741,9.783-21.741,21.741s9.783,21.741,21.741,21.741h31.524h107.618h32.612c10.87,0,20.654-9.783,20.654-21.741
			S502.217,467.431,490.259,467.431z M255.456,42.395c75.195,0,136.517,46.235,145.592,105.444H109.882
			C119.095,88.63,181.265,42.395,255.456,42.395z M259.805,225.019c-63.049,0-114.14,46.743-114.14,103.27v139.142H80.442v-276.11
			h357.639v276.11h-64.136V328.289C373.945,271.762,322.854,225.019,259.805,225.019z"/>
	</g>
</g>
<g>
</g>
<g>
</g>
<g>
</g>
<g>
</g>
<g>
</g>
<g>
</g>
<g>
</g>
<g>
</g>
<g>
</g>
<g>
</g>
<g>
</g>
<g>
</g>
<g>
</g>
<g>
</g>
<g>
</g>
</svg>
