<?xml version="1.0" encoding="iso-8859-1"?>
<!-- Generator: Adobe Illustrator 19.0.0, SVG Export Plug-In . SVG Version: 6.00 Build 0)  -->
<svg version="1.1" id="Layer_1" xmlns="http://www.w3.org/2000/svg" xmlns:xlink="http://www.w3.org/1999/xlink" x="0px" y="0px"
	 viewBox="0 0 450 450" style="enable-background:new 0 0 450 450;" xml:space="preserve">
<g>
	<path d="M281.213,0H60v450h330V108.787L281.213,0z M290,51.213L338.787,100H290V51.213z M260,30v100h100v150H90V30H260z M90,420
		V310h270v110H90z"/>
	<path d="M171.841,364.439c0,2.987-0.094,5.561-0.28,7.72c-0.188,2.16-0.6,3.935-1.24,5.32c-0.64,1.388-1.547,2.414-2.72,3.08
		c-1.174,0.668-2.748,1-4.72,1c-2.294,0-4.308-0.32-6.04-0.96c-1.734-0.64-2.868-1.173-3.4-1.6l-2.88,10.72
		c3.413,2.348,7.52,3.52,12.32,3.52c4.906,0,8.826-0.693,11.76-2.08c2.933-1.386,5.16-3.332,6.68-5.84
		c1.52-2.506,2.506-5.532,2.96-9.08c0.453-3.546,0.68-7.479,0.68-11.8v-28.88h-13.12V364.439z"/>
	<path d="M211.439,335.56l-20.72,56.8h13.44l4.32-12.72h17.68l4.4,12.72h13.439l-20.719-56.8H211.439z M210.56,370.6l6.8-20.08
		L224,370.6H210.56z"/>
	<path d="M290.359,368.319c1.146-1.146,2.12-2.439,2.92-3.88c0.8-1.439,1.412-2.973,1.84-4.6c0.427-1.627,0.64-3.32,0.64-5.08
		c0-2.347-0.467-4.666-1.399-6.96c-0.934-2.293-2.228-4.347-3.88-6.16c-1.654-1.813-3.614-3.28-5.88-4.4
		c-2.268-1.12-4.734-1.68-7.4-1.68h-25.601v56.8h13.12V374.04h8.561l10.88,18.319h14.8l-12.479-21.12
		C287.919,370.439,289.212,369.467,290.359,368.319z M280.719,360.399c-1.119,1.468-2.453,2.2-4,2.2h-12v-15.52h11.601
		c1.492,0,2.88,0.693,4.16,2.079c1.279,1.388,1.92,3.254,1.92,5.601C282.399,357.054,281.839,358.934,280.719,360.399z"/>
</g>
<g>
</g>
<g>
</g>
<g>
</g>
<g>
</g>
<g>
</g>
<g>
</g>
<g>
</g>
<g>
</g>
<g>
</g>
<g>
</g>
<g>
</g>
<g>
</g>
<g>
</g>
<g>
</g>
<g>
</g>
</svg>
