<?xml version="1.0" encoding="iso-8859-1"?>
<!-- Generator: Adobe Illustrator 19.0.0, SVG Export Plug-In . SVG Version: 6.00 Build 0)  -->
<svg version="1.1" id="Layer_1" xmlns="http://www.w3.org/2000/svg" xmlns:xlink="http://www.w3.org/1999/xlink" x="0px" y="0px"
	 viewBox="0 0 377.942 377.942" style="enable-background:new 0 0 377.942 377.942;" xml:space="preserve">
<path d="M319.206,14.414h-94.283C215.555,5.494,202.897,0,188.971,0s-26.584,5.494-35.952,14.414H58.737v30h78.631
	c-0.38,2.536-0.581,5.13-0.581,7.771c0,7.93,1.786,15.447,4.964,22.184h-23.014c-30.327,0-55,24.673-55,55v182.677h75.234v65.897
	h100v-65.897h75.234V129.369c0-30.327-24.673-55-55-55h-23.014c3.178-6.737,4.964-14.255,4.964-22.184
	c0-2.64-0.201-5.234-0.581-7.771h78.631V14.414z M224.206,216.148h-70.469v-0.545c0-19.429,15.806-35.235,35.234-35.235
	s35.234,15.806,35.234,35.235V216.148z M168.971,347.942V246.148h40v101.794H168.971z M284.206,129.369v152.677h-45.234v-35.897
	h15.234v-30.545c0-35.971-29.264-65.235-65.234-65.235s-65.234,29.264-65.234,65.235v30.545h15.234v35.897H93.737V129.369
	c0-13.785,11.215-25,25-25h140.469C272.991,104.369,284.206,115.583,284.206,129.369z M166.787,52.184
	c0-12.232,9.952-22.184,22.185-22.184s22.185,9.952,22.185,22.184s-9.952,22.184-22.185,22.184S166.787,64.417,166.787,52.184z"/>
<g>
</g>
<g>
</g>
<g>
</g>
<g>
</g>
<g>
</g>
<g>
</g>
<g>
</g>
<g>
</g>
<g>
</g>
<g>
</g>
<g>
</g>
<g>
</g>
<g>
</g>
<g>
</g>
<g>
</g>
</svg>
