<?xml version="1.0" encoding="iso-8859-1"?>
<!-- Generator: Adobe Illustrator 18.0.0, SVG Export Plug-In . SVG Version: 6.00 Build 0)  -->
<!DOCTYPE svg PUBLIC "-//W3C//DTD SVG 1.1//EN" "http://www.w3.org/Graphics/SVG/1.1/DTD/svg11.dtd">
<svg version="1.1" id="Capa_1" xmlns="http://www.w3.org/2000/svg" xmlns:xlink="http://www.w3.org/1999/xlink" x="0px" y="0px"
	 viewBox="0 0 447.424 447.424" style="enable-background:new 0 0 447.424 447.424;" xml:space="preserve">
<path d="M301.561,111.524c-0.393-0.403-39.39-40.942-43.731-95.272c-0.187-2.339-2.139-4.142-4.485-4.142h-13.658
	C237.718,5.134,231.31,0,223.713,0c-7.598,0-14.005,5.134-15.974,12.11h-13.66c-2.347,0-4.299,1.803-4.485,4.142
	c-4.333,54.219-43.34,94.87-43.731,95.272c-1.264,1.295-1.629,3.222-0.926,4.89c0.702,1.668,2.336,2.752,4.146,2.752H206.8
	c-1.063,3.591-1.637,7.521-1.637,11.55c0,9.032,2.724,16.927,7.027,21.988v256.896l-16.06,14.629l-27.546,14.725
	c-1.82,0.973-2.745,3.06-2.244,5.062c0.502,2.002,2.301,3.407,4.365,3.407h106.012c2.064,0,3.863-1.404,4.365-3.407
	c0.501-2.002-0.424-4.089-2.244-5.062l-27.546-14.725l-16.06-14.629V152.707c4.305-5.062,7.028-12.957,7.028-21.99
	c0-4.03-0.573-7.959-1.637-11.55h9.403v54.274c0,2.485,2.015,4.5,4.5,4.5c2.485,0,4.5-2.015,4.5-4.5v-54.274h39.313
	c1.811,0,3.444-1.084,4.147-2.752C303.19,114.746,302.825,112.819,301.561,111.524z M223.713,9c2.512,0,4.736,1.229,6.122,3.11
	H217.59C218.977,10.229,221.201,9,223.713,9z M158.989,110.166c11.605-14.249,34.555-47.14,39.182-89.057h3.837
	c-1.183,14.533-6.287,59.592-25.448,89.057H158.989z M187.11,110.166c18.314-31.76,22.912-75.253,23.942-89.057h8.159v89.057h-5.695
	H187.11z M223.713,149.592c-4.508,0-9.55-8.072-9.55-18.876c0-4.206,0.755-8.215,2.151-11.55h14.796
	c1.396,3.335,2.151,7.344,2.151,11.55C233.262,141.52,228.221,149.592,223.713,149.592z M226.233,158.34v248.749h-5.043V158.34
	c0.824,0.161,1.664,0.253,2.523,0.253C224.57,158.592,225.41,158.501,226.233,158.34z M258.754,438.424H188.67l11.203-5.989h47.678
	L258.754,438.424z M237.056,423.435h-26.688l8.064-7.346h10.559L237.056,423.435z M233.908,110.166h-5.696V21.11h8.159
	c1.03,13.804,5.628,57.297,23.942,89.057H233.908z M270.864,110.166c-19.139-29.434-24.258-74.517-25.446-89.057h3.835
	c4.627,41.917,27.577,74.807,39.182,89.057H270.864z"/>
<g>
</g>
<g>
</g>
<g>
</g>
<g>
</g>
<g>
</g>
<g>
</g>
<g>
</g>
<g>
</g>
<g>
</g>
<g>
</g>
<g>
</g>
<g>
</g>
<g>
</g>
<g>
</g>
<g>
</g>
</svg>
