<?xml version="1.0" encoding="iso-8859-1"?>
<!-- Generator: Adobe Illustrator 18.0.0, SVG Export Plug-In . SVG Version: 6.00 Build 0)  -->
<!DOCTYPE svg PUBLIC "-//W3C//DTD SVG 1.1//EN" "http://www.w3.org/Graphics/SVG/1.1/DTD/svg11.dtd">
<svg version="1.1" id="Capa_1" xmlns="http://www.w3.org/2000/svg" xmlns:xlink="http://www.w3.org/1999/xlink" x="0px" y="0px"
	 viewBox="0 0 447.479 447.479" style="enable-background:new 0 0 447.479 447.479;" xml:space="preserve">
<g>
	<g>
		<path d="M223.739,16.695c-33.378,0-60.533,37.626-60.533,83.874v176.373c0,46.248,27.155,83.874,60.533,83.874
			c33.379,0,60.534-37.626,60.534-83.874V100.569C284.274,54.321,257.118,16.695,223.739,16.695z M275.274,276.942
			c0,41.286-23.118,74.874-51.534,74.874c-28.416,0-51.533-33.588-51.533-74.874V100.569c0-41.286,23.118-74.874,51.533-74.874
			c28.416,0,51.534,33.588,51.534,74.874V276.942z"/>
		<path d="M328.18,406.316c0,0-0.026-234.095-0.035-234.212c3.35-3.191,5.45-7.682,5.45-12.663c0-9.655-7.855-17.51-17.511-17.51
			c-6.202,0-11.648,3.251-14.76,8.129V99.751c0-31.665-8.287-57.78-23.967-75.523C263.551,8.604,244.509,0,223.739,0
			c-20.769,0-39.811,8.604-53.618,24.228c-15.679,17.743-23.967,43.859-23.967,75.523v50.309c-3.111-4.878-8.557-8.129-14.76-8.129
			c-9.655,0-17.511,7.855-17.511,17.51c0,4.98,2.101,9.471,5.45,12.663c-0.009,0.117-0.035,234.313-0.035,234.313l-4.865,35.958
			c-0.174,1.287,0.216,2.587,1.071,3.565s2.09,1.539,3.389,1.539h15.191c2.252,0,4.157-1.665,4.46-3.896l4.393-32.467h161.62
			l4.379,32.361c0.302,2.231,2.207,3.896,4.459,3.896h15.191c0.008,0,0.016,0.001,0.02,0c2.485,0,4.5-2.015,4.5-4.5
			c0-0.354-0.04-0.699-0.118-1.029L328.18,406.316z M128.299,402.116v-27.908l30.575-0.049
			c10.018,13.38,32.883,20.713,64.865,20.713c31.983,0,54.848-7.333,64.865-20.713l30.575,0.049v27.908H128.299z M128.299,365.159
			V205.844h6.191v159.315H128.299z M312.988,365.159V205.844h6.191v159.315H312.988z M316.084,150.931
			c4.692,0,8.511,3.818,8.511,8.51c0,4.693-3.818,8.511-8.511,8.511c-4.692,0-8.51-3.818-8.51-8.511
			C307.574,154.749,311.392,150.931,316.084,150.931z M301.324,176.952h17.855v19.892h-17.855V176.952z M155.155,99.751
			C155.155,32.768,192.101,9,223.739,9c31.639,0,68.585,23.768,68.585,90.751v178.008c0,66.984-36.946,90.752-68.585,90.752
			c-31.638,0-68.585-23.768-68.585-90.752V99.751z M170.122,353.283c13.807,15.623,32.849,24.228,53.618,24.228
			c20.769,0,39.811-8.605,53.618-24.228c15.68-17.743,23.967-43.858,23.967-75.524v-71.915h2.664v159.315h-17.755
			c-1.558,0-3.005,0.806-3.825,2.13c-7.315,11.81-28.699,18.583-58.669,18.583c-29.969,0-51.353-6.773-58.669-18.583
			c-0.821-1.325-2.267-2.13-3.826-2.13H143.49V205.844h2.664v71.915C146.155,309.424,154.443,335.539,170.122,353.283z
			 M146.155,176.952v19.892h-17.856v-19.892H146.155z M131.395,150.931c4.692,0,8.509,3.818,8.509,8.51
			c0,4.693-3.817,8.511-8.509,8.511c-4.693,0-8.511-3.818-8.511-8.511C122.884,154.749,126.702,150.931,131.395,150.931z
			 M130.153,438.479h-6.109l3.688-27.258h6.109L130.153,438.479z M317.326,438.374l-3.688-27.258h6.109l3.688,27.258H317.326z"/>
	</g>
	<g>
		<g>
			<path d="M196.071,214.829c-0.81,0-1.629-0.218-2.368-0.676c-2.112-1.31-2.762-4.084-1.452-6.196l51.133-82.438
				c1.31-2.112,4.085-2.761,6.196-1.452c2.112,1.31,2.762,4.084,1.452,6.196L199.899,212.7
				C199.047,214.073,197.576,214.829,196.071,214.829z"/>
		</g>
		<g>
			<path d="M200.266,262.071c-0.81,0-1.629-0.218-2.368-0.676c-2.112-1.31-2.762-4.085-1.452-6.196l51.135-82.438
				c1.31-2.112,4.086-2.761,6.196-1.452c2.112,1.31,2.762,4.084,1.452,6.196l-51.135,82.438
				C203.243,261.316,201.772,262.071,200.266,262.071z"/>
		</g>
	</g>
</g>
<g>
</g>
<g>
</g>
<g>
</g>
<g>
</g>
<g>
</g>
<g>
</g>
<g>
</g>
<g>
</g>
<g>
</g>
<g>
</g>
<g>
</g>
<g>
</g>
<g>
</g>
<g>
</g>
<g>
</g>
</svg>
