<?xml version="1.0" encoding="iso-8859-1"?>
<!-- Generator: Adobe Illustrator 19.0.0, SVG Export Plug-In . SVG Version: 6.00 Build 0)  -->
<svg version="1.1" id="Layer_1" xmlns="http://www.w3.org/2000/svg" xmlns:xlink="http://www.w3.org/1999/xlink" x="0px" y="0px"
	 viewBox="0 0 512 512" style="enable-background:new 0 0 512 512;" xml:space="preserve">
<g>
	<g>
		<path d="M32.11,0v487.794h40.546V512h15.626v-24.206h335.432V512h15.626v-24.206h40.55V0H32.11z M464.264,472.168H47.736V15.626
			h416.528V472.168z"/>
	</g>
</g>
<g>
	<g>
		<polygon points="447.879,87.842 447.879,32.011 64.122,32.011 64.122,455.782 447.879,455.782 447.879,399.952 432.253,399.952 
			432.253,440.156 79.748,440.156 79.748,327.616 184.121,327.616 184.121,311.991 79.748,311.991 79.748,47.637 432.253,47.637 
			432.253,87.842 		"/>
	</g>
</g>
<g>
	<g>
		<path d="M256.001,104.038c-35.198-0.001-63.833,28.634-63.833,63.832c0,35.197,28.636,63.833,63.833,63.833
			c35.198,0,63.832-28.636,63.832-63.833C319.833,132.673,291.199,104.038,256.001,104.038z M256.001,216.077
			c-26.581,0-48.207-21.626-48.207-48.207s21.625-48.206,48.207-48.206c26.581,0,48.206,21.625,48.206,48.206
			C304.207,194.451,282.581,216.077,256.001,216.077z"/>
	</g>
</g>
<g>
	<g>
		<path d="M256.001,128.046c-21.959,0-39.825,17.865-39.825,39.825s17.864,39.824,39.825,39.824
			c21.959,0,39.824-17.865,39.824-39.824C295.825,145.912,277.96,128.046,256.001,128.046z M256.001,192.068
			c-13.343,0-24.199-10.856-24.199-24.198c0-13.343,10.855-24.199,24.199-24.199c10.551,0,19.541,6.79,22.844,16.229h-22.846v15.626
			h22.952C275.739,185.127,266.668,192.068,256.001,192.068z"/>
	</g>
</g>
<g>
	<g>
		<rect x="247.668" y="64.065" width="15.626" height="31.251"/>
	</g>
</g>
<g>
	<g>
		<rect x="152.872" y="159.903" width="31.251" height="15.626"/>
	</g>
</g>
<g>
	<g>
		<rect x="247.668" y="240.115" width="15.626" height="32.293"/>
	</g>
</g>
<g>
	<g>
		<rect x="327.88" y="159.903" width="31.251" height="15.626"/>
	</g>
</g>
<g>
	<g>
		
			<rect x="191.608" y="103.279" transform="matrix(0.7071 -0.7071 0.7071 0.7071 -20.2792 173.6056)" width="15.626" height="16.006"/>
	</g>
</g>
<g>
	<g>
		
			<rect x="191.409" y="216.652" transform="matrix(0.7071 -0.7071 0.7071 0.7071 -100.314 206.75)" width="16.006" height="15.626"/>
	</g>
</g>
<g>
	<g>
		
			<rect x="304.775" y="216.436" transform="matrix(0.7071 -0.7071 0.7071 0.7071 -67.147 286.7694)" width="15.626" height="16.005"/>
	</g>
</g>
<g>
	<g>
		
			<rect x="304.591" y="103.482" transform="matrix(0.7071 -0.7071 0.7071 0.7071 12.8592 253.6349)" width="16.006" height="15.626"/>
	</g>
</g>
<g>
	<g>
		<rect x="247.668" y="311.994" width="16.667" height="15.626"/>
	</g>
</g>
<g>
	<g>
		<rect x="271.628" y="311.994" width="15.626" height="15.626"/>
	</g>
</g>
<g>
	<g>
		<rect x="224.751" y="311.994" width="15.626" height="15.626"/>
	</g>
</g>
<g>
	<g>
		<rect x="247.668" y="335.953" width="16.667" height="15.626"/>
	</g>
</g>
<g>
	<g>
		<rect x="271.628" y="335.953" width="15.626" height="15.626"/>
	</g>
</g>
<g>
	<g>
		<rect x="224.751" y="335.953" width="15.626" height="15.626"/>
	</g>
</g>
<g>
	<g>
		<rect x="247.668" y="359.913" width="16.667" height="15.626"/>
	</g>
</g>
<g>
	<g>
		<rect x="271.628" y="359.913" width="15.626" height="15.626"/>
	</g>
</g>
<g>
	<g>
		<rect x="224.751" y="359.913" width="15.626" height="15.626"/>
	</g>
</g>
<g>
	<g>
		<rect x="247.668" y="383.872" width="16.667" height="15.626"/>
	</g>
</g>
<g>
	<g>
		<rect x="271.628" y="383.872" width="15.626" height="15.626"/>
	</g>
</g>
<g>
	<g>
		<rect x="224.751" y="383.872" width="15.626" height="15.626"/>
	</g>
</g>
<g>
	<g>
		<path d="M192.168,288.102V423.77h127.665V288.102H192.168z M304.207,408.145h-96.414V303.728h96.414V408.145z"/>
	</g>
</g>
<g>
	<g>
		<rect x="415.385" y="95.317" width="33.335" height="15.626"/>
	</g>
</g>
<g>
	<g>
		<rect x="415.385" y="375.538" width="33.335" height="15.626"/>
	</g>
</g>
<g>
	<g>
		<polygon points="433.091,120.315 433.091,311.991 327.877,311.991 327.877,327.616 433.091,327.616 433.091,368.243 
			448.716,368.243 448.716,120.315 		"/>
	</g>
</g>
<g>
</g>
<g>
</g>
<g>
</g>
<g>
</g>
<g>
</g>
<g>
</g>
<g>
</g>
<g>
</g>
<g>
</g>
<g>
</g>
<g>
</g>
<g>
</g>
<g>
</g>
<g>
</g>
<g>
</g>
</svg>
