<?xml version="1.0" encoding="iso-8859-1"?>
<!-- Generator: Adobe Illustrator 19.0.0, SVG Export Plug-In . SVG Version: 6.00 Build 0)  -->
<svg version="1.1" id="Layer_1" xmlns="http://www.w3.org/2000/svg" xmlns:xlink="http://www.w3.org/1999/xlink" x="0px" y="0px"
	 viewBox="0 0 512.001 512.001" style="enable-background:new 0 0 512.001 512.001;" xml:space="preserve">
<path style="fill:#FB7100;" d="M482,64.485H128.626c-16.569,0-29.998,13.431-29.998,29.998l-0.002,117.321h-54.43
	C19.786,211.804,0,231.593,0,256s19.788,44.196,44.196,44.196h54.432l-0.002,117.319c0.002,16.569,13.431,30.002,30,30h83.425
	h20.895h249.056c16.569,0,30-13.431,30-29.998V94.483C512,77.916,498.569,64.485,482,64.485z M44.196,271.062
	c-8.314,0-15.059-6.745-15.059-15.061c0-8.316,6.745-15.059,15.059-15.059c8.316,0,15.059,6.743,15.061,15.059
	C59.255,264.319,52.512,271.062,44.196,271.062z"/>
<g>
	<path style="fill:#FF9845;" d="M409.814,352.755L256,198.94V64.485H128.626c-16.569,0-29.998,13.431-29.998,29.998l-0.002,117.321
		h-54.43C19.786,211.804,0,231.593,0,256s19.788,44.196,44.196,44.196h54.432l-0.002,117.319c0.002,16.569,13.431,30.002,30,30
		h83.425h20.895H256V243.271l131.649,131.65L409.814,352.755z M44.196,271.062c-8.314,0-15.059-6.745-15.059-15.061
		c0-8.316,6.745-15.059,15.059-15.059c8.316,0,15.059,6.743,15.061,15.059C59.255,264.319,52.512,271.062,44.196,271.062z"/>
	
		<rect x="278.611" y="213.027" transform="matrix(-0.7071 -0.7071 0.7071 -0.7071 470.3089 652.2097)" style="fill:#FF9845;" width="183.242" height="31.347"/>
</g>
<g>
</g>
<g>
</g>
<g>
</g>
<g>
</g>
<g>
</g>
<g>
</g>
<g>
</g>
<g>
</g>
<g>
</g>
<g>
</g>
<g>
</g>
<g>
</g>
<g>
</g>
<g>
</g>
<g>
</g>
</svg>
