<?xml version="1.0" encoding="iso-8859-1"?>
<!-- Generator: Adobe Illustrator 19.0.0, SVG Export Plug-In . SVG Version: 6.00 Build 0)  -->
<svg version="1.1" id="Layer_1" xmlns="http://www.w3.org/2000/svg" xmlns:xlink="http://www.w3.org/1999/xlink" x="0px" y="0px"
	 viewBox="0 0 512 512" style="enable-background:new 0 0 512 512;" xml:space="preserve">
<path style="fill:#FFC894;" d="M118.131,233.911l36.372,30.793l-31.128,30.793c-19.917,6.853-42.232,7.202-63.567-0.574
	c-30.81-11.208-52.314-36.65-59.808-66.2c24.734-17.824,57.569-23.484,88.368-12.277
	C99.609,220.531,109.602,226.518,118.131,233.911z"/>
<path style="fill:#FFA46E;" d="M512,228.723c-7.494,29.55-28.998,54.992-59.808,66.2c-21.335,7.776-43.649,7.427-63.567,0.574
	l-31.065-30.793l36.309-30.793c8.53-7.393,18.522-13.38,29.764-17.464C454.431,205.239,487.266,210.899,512,228.723z"/>
<path style="fill:#FFD3C0;" d="M383.145,157.538L269.402,123.78v329.908l78.769-33.758l5.379-33.747
	c17.622-12.288,30.079-31.935,31.958-53.979l11.05-129.902C398.021,185.153,392.833,169.444,383.145,157.538z"/>
<path style="fill:#FFE6DC;" d="M349.387,157.538L239.121,123.78l-110.266,33.758c-9.689,11.905-14.876,27.614-13.413,44.763
	l11.05,129.902c1.879,22.044,14.336,41.691,31.958,53.979l5.379,33.747l75.292,33.758l75.292-33.758l5.379-33.747
	c17.622-12.288,30.079-31.935,31.958-53.979l11.05-129.902C364.263,185.153,359.075,169.444,349.387,157.538z"/>
<path style="fill:#FFA46E;" d="M314.413,419.93L265.97,512h33.758c18.567,0,36.144-15,39.07-33.342l9.374-58.728H314.413z"/>
<path style="fill:#FFC894;" d="M314.413,419.93l-9.374,58.728C302.114,497,284.537,512,265.97,512h-1.53L256,500.747L247.56,512
	h-35.289c-18.567,0-36.144-15-39.07-33.342l-9.374-58.728H314.413z"/>
<path style="fill:#FFECBA;" d="M163.379,90.022v67.516h-62.104c-37.134,0-73.886-29.707-81.661-66.02L0,0l40.51,54.013
	c14.854,19.805,47.262,36.009,72.018,36.009H163.379z"/>
<path style="fill:#FFD875;" d="M471.49,54.013c-1.868,2.487-4.006,4.917-6.38,7.269l-88.143,96.256h33.758
	c37.134,0,73.886-29.707,81.661-66.02L512,0L471.49,54.013z"/>
<path style="fill:#FFECBA;" d="M465.11,61.282l-6.482,30.236c-7.776,36.313-44.527,66.02-81.661,66.02h-28.346V90.022h50.851
	C421.123,90.022,448.613,77.633,465.11,61.282z"/>
<path style="fill:#FFC894;" d="M334.769,78.769h-33.758v90.022h33.758c18.567,0,33.758-15.191,33.758-33.758v-22.505
	C368.527,93.96,353.336,78.769,334.769,78.769z"/>
<path style="fill:#FFD3C0;" d="M334.769,112.527v22.505c0,18.567-15.191,33.758-33.758,33.758h-123.78
	c-18.567,0-33.758-15.191-33.758-33.758v-22.505c0-18.567,15.191-33.758,33.758-33.758h123.78
	C319.578,78.769,334.769,93.96,334.769,112.527z"/>
<path style="fill:#FFC894;" d="M190.892,318.003c-4.662,0-8.44-3.779-8.44-8.44v-14.066h-59.077c-4.662,0-8.44-3.779-8.44-8.44
	c0-4.661,0-8.44,0-8.44h75.956c4.662,0,8.44,3.779,8.44,8.44v22.505C199.331,314.224,195.554,318.003,190.892,318.003z"/>
<g>
	<path style="fill:#FFA46E;" d="M321.108,318.003c-4.662,0-8.44-3.779-8.44-8.44v-22.505c0-4.661,3.778-8.44,8.44-8.44h75.956
		c0,0,0,3.779,0,8.44c0,4.661-3.778,8.44-8.44,8.44h-59.077v14.066C329.548,314.224,325.77,318.003,321.108,318.003z"/>
	<rect x="247.56" y="464.941" style="fill:#FFA46E;" width="16.879" height="47.057"/>
</g>
<path style="fill:#FF8048;" d="M289.758,473.383h-67.516c-4.662,0-8.44-3.779-8.44-8.44v-11.253c0-4.661,3.778-8.44,8.44-8.44
	c4.662,0,8.44,3.779,8.44,8.44v2.813h50.637v-2.813c0-4.661,3.778-8.44,8.44-8.44c4.662,0,8.44,3.779,8.44,8.44v11.253
	C298.198,469.604,294.42,473.383,289.758,473.383z"/>
<g>
</g>
<g>
</g>
<g>
</g>
<g>
</g>
<g>
</g>
<g>
</g>
<g>
</g>
<g>
</g>
<g>
</g>
<g>
</g>
<g>
</g>
<g>
</g>
<g>
</g>
<g>
</g>
<g>
</g>
</svg>
