<?xml version="1.0" encoding="iso-8859-1"?>
<!-- Generator: Adobe Illustrator 19.0.0, SVG Export Plug-In . SVG Version: 6.00 Build 0)  -->
<svg version="1.1" id="Layer_1" xmlns="http://www.w3.org/2000/svg" xmlns:xlink="http://www.w3.org/1999/xlink" x="0px" y="0px"
	 viewBox="0 0 512 512" style="enable-background:new 0 0 512 512;" xml:space="preserve">
<path style="fill:#0DCD9B;" d="M157.957,76.255l-21.787,29.957l21.787,29.957c16.545,0,29.957-13.412,29.957-29.957
	S174.503,76.255,157.957,76.255z"/>
<path style="fill:#12F8BC;" d="M128,106.213c0,16.545,13.412,29.957,29.957,29.957V76.255C141.412,76.255,128,89.668,128,106.213z"
	/>
<path style="fill:#0DCD9B;" d="M98.043,76.255l-21.787,29.957l21.787,29.957c16.545,0,29.957-13.412,29.957-29.957
	S114.588,76.255,98.043,76.255z"/>
<path style="fill:#12F8BC;" d="M68.085,106.213c0,16.545,13.412,29.957,29.957,29.957V76.255
	C81.497,76.255,68.085,89.668,68.085,106.213z"/>
<path style="fill:#8FCEFA;" d="M454.809,136.17h-32.681v32.681h32.681c9.024,0,16.34-7.316,16.34-16.34
	C471.149,143.486,463.833,136.17,454.809,136.17z"/>
<path style="fill:#B5E6F8;" d="M438.468,152.511c0-9.024-7.316-16.34-16.34-16.34H40.851c0,48.131,39.018,87.149,87.149,87.149
	c36.57,0,67.859-22.536,80.79-54.468h213.337C431.152,168.851,438.468,161.535,438.468,152.511z"/>
<path style="fill:#FFA46E;" d="M460.255,256L256,503.83c136.873,0,247.83-110.957,247.83-247.83H460.255z"/>
<path style="fill:#FFD3C0;" d="M460.255,256H8.17c0,136.873,110.957,247.83,247.83,247.83
	C368.807,503.83,460.255,392.873,460.255,256z"/>
<g>
	<path style="fill:#FFECBA;" d="M149.787,51.745c-4.512,0-8.17-3.658-8.17-8.17V8.17c0-4.512,3.658-8.17,8.17-8.17
		s8.17,3.658,8.17,8.17v35.404C157.957,48.087,154.299,51.745,149.787,51.745z"/>
	<path style="fill:#FFECBA;" d="M106.213,51.745c-4.512,0-8.17-3.658-8.17-8.17V8.17c0-4.512,3.658-8.17,8.17-8.17
		c4.512,0,8.17,3.658,8.17,8.17v35.404C114.383,48.087,110.725,51.745,106.213,51.745z"/>
</g>
<g>
	<path style="fill:#FFA46E;" d="M334.979,512H177.021c-4.512,0-8.17-3.658-8.17-8.17s3.658-8.17,8.17-8.17h157.957
		c4.513,0,8.17,3.658,8.17,8.17S339.492,512,334.979,512z"/>
	<circle style="fill:#FFA46E;" cx="89.622" cy="363.574" r="8.17"/>
	<circle style="fill:#FFA46E;" cx="122.303" cy="396.255" r="8.17"/>
</g>
<g>
</g>
<g>
</g>
<g>
</g>
<g>
</g>
<g>
</g>
<g>
</g>
<g>
</g>
<g>
</g>
<g>
</g>
<g>
</g>
<g>
</g>
<g>
</g>
<g>
</g>
<g>
</g>
<g>
</g>
</svg>
