<?xml version="1.0" encoding="iso-8859-1"?>
<!-- Generator: Adobe Illustrator 19.0.0, SVG Export Plug-In . SVG Version: 6.00 Build 0)  -->
<svg version="1.1" id="Layer_1" xmlns="http://www.w3.org/2000/svg" xmlns:xlink="http://www.w3.org/1999/xlink" x="0px" y="0px"
	 viewBox="0 0 512.008 512.008" style="enable-background:new 0 0 512.008 512.008;" xml:space="preserve">
<g transform="translate(0 -1)">
	<g>
		<g>
			<path d="M311.282,446.001c-17.164,10.502-35.226,15.812-55.28,15.812c-20.059,0-38.104-5.308-55.279-15.82
				c-4.02-2.46-9.273-1.196-11.733,2.824c-2.46,4.02-1.196,9.273,2.824,11.733c19.801,12.119,40.914,18.33,64.188,18.33
				c23.267,0,44.397-6.212,64.187-18.321c4.02-2.46,5.285-7.713,2.825-11.733S315.302,443.542,311.282,446.001z"/>
			<path d="M481.211,179.544c-13.132-8.104-28.271-12.948-44.99-15.079c14.233-41.261,8.303-84.822-10.15-126.694
				c-3.902-8.853-8.084-16.913-12.275-24.037c-2.544-4.323-4.553-7.41-5.76-9.118c-4.334-6.13-13.901-4.08-15.343,3.287
				c-5.799,29.639-17.671,57.245-33.859,82.594c-16.051-7.869-33.742-13.594-52.75-17.333c-0.017-0.003-0.034-0.007-0.051-0.011
				c-1.352-0.238-3.448-0.562-6.356-0.949c-0.072-0.01-0.148-0.019-0.22-0.029c-0.108-0.014-0.218-0.029-0.327-0.043
				c-0.776-0.103-1.571-0.205-2.384-0.306c0,0-0.001,0-0.001,0c-1.777-0.221-3.64-0.435-5.576-0.64
				c-0.019-0.002-0.037-0.004-0.056-0.006c-0.014-0.002-0.029-0.003-0.043-0.004c-1.265-0.134-2.56-0.263-3.882-0.388
				c-0.214-0.02-0.428-0.04-0.642-0.06c-0.919-0.085-1.845-0.168-2.788-0.248c-0.11-0.009-0.219-0.016-0.33-0.025
				c-1.984-0.166-3.984-0.317-6-0.451c-0.203-0.013-0.406-0.025-0.609-0.038c-1.745-0.113-3.501-0.211-5.266-0.298
				c-0.275-0.014-0.548-0.034-0.823-0.047c-0.15-0.007-0.303-0.009-0.453-0.016c-2.11-0.095-4.23-0.17-6.361-0.224
				c-0.481-0.012-0.961-0.021-1.442-0.031c-2.131-0.045-4.268-0.075-6.414-0.077c-0.064,0-0.128-0.002-0.192-0.002
				c-1.223,0-2.463,0.01-3.747,0.028c-10.807,0.13-21.428,0.811-31.505,1.881c-3.939,0.418-7.518,0.867-10.674,1.317
				c-1.918,0.273-3.286,0.49-4.04,0.62c-19.106,3.754-36.885,9.357-53.002,16.957C136.85,64.834,125.079,37.373,119.309,7.9
				c-1.442-7.367-11.009-9.417-15.343-3.286c-1.207,1.707-3.216,4.795-5.759,9.117c-4.191,7.124-8.373,15.183-12.274,24.037
				C67.488,79.625,61.555,123.17,75.767,164.419c-16.683,2.143-31.844,7.027-44.969,15.126
				c-25.486,15.719-37.33,46.859-27.143,74.176c8.349,22.375,27.369,31.871,56.038,23.616c0.001,2.939,0.003,6.071,0.005,9.399
				c0.004,5.348,0.008,10.996,0.014,17.195c0.002,1.642,0.021,20.082,0.021,21.341c0,76.589,29.485,128.338,80.082,158.591
				c32.096,19.192,68.131,27.513,101.709,28.955c0.361,0.016,0.719,0.029,1.079,0.043c1.376,0.053,2.748,0.097,4.114,0.127
				c0.194,0.004,0.392,0.014,0.586,0.018l17.227,0.002c0.181-0.003,0.364-0.013,0.545-0.017c1.431-0.031,2.868-0.076,4.308-0.132
				c0.318-0.012,0.635-0.023,0.953-0.037c33.824-1.431,69.916-9.773,102.007-29.001c49.702-29.781,78.961-80.398,79.88-154.992
				c0.017-1.183,0.048-2.361,0.049-3.55c0-1.157,0.053-17.289,0.059-19.356c0.004-1.21,0.006-1.931,0.008-2.568
				c0.019-5.961,0.035-11.424,0.046-16.597c0.007-3.34,0.013-6.477,0.017-9.416c28.684,8.2,47.626-1.305,55.952-23.621
				C518.54,226.408,506.692,195.267,481.211,179.544z M434.391,345.077c-0.354,0.113-0.71,0.225-1.065,0.335
				c-24.049,7.433-50.046,6.874-74.668,1.405c-4.001-0.889-7.602-1.838-10.736-2.781c-1.834-0.552-3.072-0.967-3.65-1.179
				c-71.177-28.06-94.679-113.76-87.078-256.51c0.316,0.001,0.632,0.005,0.948,0.007c1.51,0.012,3.02,0.035,4.527,0.069
				c0.434,0.01,0.87,0.016,1.303,0.028c1.834,0.05,3.663,0.117,5.486,0.2c0.429,0.019,0.856,0.042,1.284,0.063
				c1.653,0.082,3.304,0.173,4.955,0.28c0.205,0.013,0.412,0.025,0.616,0.038c1.896,0.126,3.795,0.27,5.698,0.428
				c0.992,0.083,1.982,0.168,2.966,0.26c0.202,0.019,0.402,0.038,0.602,0.056c1.243,0.118,2.481,0.241,3.708,0.371
				c0.02,0.002,0.04,0.004,0.06,0.006c2.704,0.287,5.217,0.589,7.524,0.894c0.108,0.014,0.219,0.029,0.327,0.043
				c0.75,0.1,1.481,0.2,2.184,0.301c1.743,0.248,2.945,0.438,3.544,0.541c0.378,0.075,0.767,0.156,1.15,0.235
				c0.414,0.083,0.827,0.168,1.239,0.253c2.382,0.5,4.835,1.058,7.286,1.66c3.544,0.88,6.953,1.815,10.272,2.828
				c1.718,0.524,3.478,1.088,5.268,1.688c10.03,3.374,19.537,7.514,28.465,12.435c0.225,0.156,0.457,0.306,0.701,0.443
				c25.97,14.522,46.465,35.509,60.022,64.053c0.225,0.474,0.49,0.903,0.775,1.308c0.103,0.222,0.205,0.445,0.307,0.668
				c0.016,0.035,0.024,0.071,0.04,0.107c5.301,11.592,9.431,24.309,12.316,38.212c0.02,0.094,0.039,0.191,0.058,0.286
				c0.291,1.411,0.568,2.836,0.834,4.272c0.148,0.804,0.284,1.621,0.424,2.434c0.132,0.763,0.269,1.521,0.394,2.291
				c0.174,1.072,0.333,2.161,0.493,3.248c0.079,0.533,0.164,1.06,0.239,1.597c0.163,1.161,0.309,2.34,0.457,3.518
				c0.063,0.502,0.132,0.996,0.192,1.501c0.106,0.89,0.196,1.795,0.293,2.694c0.073,0.68,0.15,1.357,0.218,2.042
				c0.029,0.302,0.06,0.603,0.088,0.906c0.096,1.016,0.182,2.045,0.267,3.075c0.003,0.04,0.007,0.08,0.01,0.12
				c0.055,0.681,0.114,1.359,0.165,2.045c0.058,0.787,0.106,1.587,0.159,2.381c0.052,0.801,0.109,1.597,0.155,2.405
				c0.015,0.264,0.029,0.711,0.041,1.328c0.001,0.033,0.001,0.063,0.002,0.096c0.001,0.061,0.002,0.129,0.003,0.194
				c0.009,0.525,0.017,1.143,0.024,1.832c0,0.042,0.001,0.088,0.001,0.131c0.002,0.214,0.004,0.432,0.006,0.659
				c0.002,0.228,0.004,0.486,0.006,0.727c0.02,2.852,0.034,6.809,0.038,11.726c0,0.014,0.003,0.027,0.003,0.041
				c0.008,8.627-0.013,20.174-0.056,34.351c-0.005,1.837-0.007,2.603-0.01,3.518c-0.001,0.212-0.001,0.414-0.002,0.627
				c-0.005,1.599-0.07,20.124-0.07,21.405c0,1.842-0.029,3.658-0.065,5.468C435.023,335.532,434.777,340.294,434.391,345.077z
				 M404.382,31.973l1.038,2.026c1.714,3.39,3.4,6.946,5.034,10.653c15.172,34.426,21.036,69.749,12.901,103.114
				c-12.907-20.489-29.684-36.684-49.544-48.994C386.994,77.962,397.47,55.671,404.382,31.973z M208.997,89.899
				c0.399-0.066,1.605-0.257,3.356-0.507c2.959-0.422,6.336-0.845,10.066-1.241c5.728-0.608,11.647-1.08,17.668-1.392
				c-7.758,148.882,17.546,240.288,98.123,272.05c3.452,1.267,9.136,2.978,16.749,4.668c25.257,5.61,51.862,6.541,77.342-0.055
				c-0.718,4.457-1.574,8.784-2.552,12.997c-21.443,5.696-43.543,8.587-65.728,8.587H256.145c-0.048,0-0.095-0.003-0.142-0.003
				c-0.048,0-0.095,0.002-0.142,0.003H143.501c-20.552,0-41.023-2.481-60.969-7.377c-3.764-15.719-5.733-33.127-5.733-52.359
				c0-1.269-0.019-19.736-0.021-21.357c-0.006-6.198-0.011-11.844-0.014-17.19c-0.006-8.379-0.008-15.581-0.006-21.43
				c0-0.005,0.001-0.01,0.001-0.015c0-8.665,0.017-15.42,0.042-16.992c0.03-1.707,0.078-3.399,0.143-5.077
				c0.006-0.152,0.014-0.301,0.02-0.452c1.001-24.996,5.765-46.803,13.917-65.682c1.504-0.801,2.81-2.069,3.656-3.842
				c13.59-28.462,34.099-49.384,60.072-63.868c1.16-0.647,2.1-1.525,2.813-2.537C172.899,99.167,190.205,93.591,208.997,89.899z
				 M268.831,495.805c-1.352,0.054-2.697,0.095-4.034,0.124c-0.116,0.002-0.232,0.007-0.347,0.009h-16.974
				c-0.195-0.004-0.391-0.011-0.586-0.016c-1.235-0.028-2.477-0.067-3.726-0.116c-0.336-0.013-0.672-0.026-1.009-0.04
				c-24.715-1.092-52.045-6.475-77.689-18.267c-35.547-16.344-61.943-42.626-76.08-81.049c18.121,3.737,36.589,5.623,55.116,5.623
				h80.214c-1.187,2.627-1.846,5.485-1.846,8.531c0,15.044,15.836,25.6,34.133,25.6c18.297,0,34.133-10.556,34.133-25.6
				c0-3.046-0.659-5.903-1.846-8.531h75.73c20.198,0,40.329-2.245,60.014-6.68c-13.955,38.824-40.3,65.376-75.91,81.889
				c-25.756,11.944-53.29,17.392-78.402,18.487C269.424,495.782,269.128,495.794,268.831,495.805z M256.09,402.074
				c9.938,0.028,16.979,4.729,16.979,8.531c0,3.813-7.081,8.533-17.067,8.533c-9.985,0-17.067-4.72-17.067-8.533
				c0-3.802,7.041-8.503,16.979-8.531H256.09z M101.55,44.65c1.962-4.453,4-8.688,6.071-12.68
				c6.837,23.438,17.163,45.5,30.146,66.12c-20.016,11.895-36.863,27.45-49.727,47.044C80.832,112.545,86.778,78.172,101.55,44.65z
				 M19.645,247.756c-7.255-19.453,1.369-42.124,20.114-53.686c8.873-5.475,19.063-9.236,30.326-11.447
				c-6.329,19.105-9.912,40.836-10.35,65.38c-0.021,1.251-0.034,5.172-0.039,11.449C36.578,267.816,25.185,262.602,19.645,247.756z
				 M492.363,247.756c-5.531,14.825-16.901,20.044-39.968,11.723c-0.008-2.528-0.02-4.676-0.036-6.438
				c0-0.06-0.001-0.118-0.001-0.177c0-0.041-0.001-0.088-0.001-0.128c-0.008-1.12-0.021-2.12-0.036-2.957
				c-0.017-0.952-0.036-1.644-0.059-2.074c-0.101-1.782-0.222-3.547-0.354-5.302c-0.039-0.519-0.083-1.031-0.125-1.546
				c-0.065-0.808-0.127-1.618-0.199-2.42c-0.046-0.517-0.096-1.029-0.144-1.543c-0.019-0.197-0.033-0.401-0.052-0.598
				c-0.023-0.23-0.051-0.454-0.074-0.684c-1.939-19.674-5.804-37.425-11.411-53.337c12.089,2.135,22.949,5.993,32.347,11.793
				C490.991,205.632,499.617,228.306,492.363,247.756z"/>
			<path d="M145.069,205.805c0,18.853,15.281,34.133,34.133,34.133s34.133-15.281,34.133-34.133
				c0-18.853-15.281-34.133-34.133-34.133S145.069,186.952,145.069,205.805z M196.269,205.805c0,9.427-7.64,17.067-17.067,17.067
				s-17.067-7.64-17.067-17.067c0-9.427,7.64-17.067,17.067-17.067S196.269,196.378,196.269,205.805z"/>
			<path d="M332.802,171.672c-18.853,0-34.133,15.281-34.133,34.133c0,18.853,15.281,34.133,34.133,34.133
				c18.853,0,34.133-15.281,34.133-34.133C366.936,186.952,351.655,171.672,332.802,171.672z M332.802,222.872
				c-9.427,0-17.067-7.64-17.067-17.067c0-9.427,7.64-17.067,17.067-17.067c9.427,0,17.067,7.64,17.067,17.067
				C349.869,215.232,342.229,222.872,332.802,222.872z"/>
		</g>
	</g>
</g>
<g>
</g>
<g>
</g>
<g>
</g>
<g>
</g>
<g>
</g>
<g>
</g>
<g>
</g>
<g>
</g>
<g>
</g>
<g>
</g>
<g>
</g>
<g>
</g>
<g>
</g>
<g>
</g>
<g>
</g>
</svg>
