<?xml version="1.0" encoding="iso-8859-1"?>
<!-- Generator: Adobe Illustrator 19.0.0, SVG Export Plug-In . SVG Version: 6.00 Build 0)  -->
<svg version="1.1" id="Layer_1" xmlns="http://www.w3.org/2000/svg" xmlns:xlink="http://www.w3.org/1999/xlink" x="0px" y="0px"
	 viewBox="0 0 512 512" style="enable-background:new 0 0 512 512;" xml:space="preserve">
<g>
	<g>
		<g>
			<path d="M256,0C114.617,0,0,114.617,0,256s114.617,256,256,256s256-114.617,256-256S397.383,0,256,0z M256,494.933
				C124.043,494.933,17.067,387.957,17.067,256S124.043,17.067,256,17.067S494.933,124.043,494.933,256S387.957,494.933,256,494.933
				z"/>
			<path d="M304.701,284.099c-3.333-3.332-8.735-3.332-12.068,0L256,320.732l-36.633-36.633c-3.332-3.332-8.735-3.332-12.068,0
				s-3.332,8.735,0,12.068l36.633,36.633l-36.633,36.633c-3.332,3.333-3.332,8.736,0,12.068s8.735,3.332,12.068,0L256,344.868
				l36.633,36.633c3.333,3.332,8.735,3.332,12.068,0c3.332-3.332,3.332-8.735,0-12.068L268.068,332.8l36.633-36.633
				C308.033,292.835,308.033,287.432,304.701,284.099z"/>
			<circle cx="153.62" cy="170.667" r="8.533"/>
			<path d="M153.62,102.4c-28.273,0-51.2,22.927-51.2,51.2c0,28.273,22.927,51.2,51.2,51.2s51.2-22.927,51.2-51.2
				C204.82,125.327,181.893,102.4,153.62,102.4z M153.62,187.733c-18.848,0-34.133-15.286-34.133-34.133
				c0-18.848,15.286-34.133,34.133-34.133s34.133,15.286,34.133,34.133C187.753,172.448,172.467,187.733,153.62,187.733z"/>
			<circle cx="358.4" cy="136.533" r="8.533"/>
			<path d="M358.4,102.4c-28.273,0-51.2,22.927-51.2,51.2c0,28.273,22.927,51.2,51.2,51.2s51.2-22.927,51.2-51.2
				C409.6,125.327,386.673,102.4,358.4,102.4z M358.4,187.733c-18.848,0-34.133-15.286-34.133-34.133
				c0-18.848,15.286-34.133,34.133-34.133c18.848,0,34.133,15.286,34.133,34.133C392.533,172.448,377.248,187.733,358.4,187.733z"/>
		</g>
	</g>
</g>
<g>
</g>
<g>
</g>
<g>
</g>
<g>
</g>
<g>
</g>
<g>
</g>
<g>
</g>
<g>
</g>
<g>
</g>
<g>
</g>
<g>
</g>
<g>
</g>
<g>
</g>
<g>
</g>
<g>
</g>
</svg>
