<?xml version="1.0" encoding="iso-8859-1"?>
<!-- Generator: Adobe Illustrator 19.0.0, SVG Export Plug-In . SVG Version: 6.00 Build 0)  -->
<svg version="1.1" id="Layer_1" xmlns="http://www.w3.org/2000/svg" xmlns:xlink="http://www.w3.org/1999/xlink" x="0px" y="0px"
	 viewBox="0 0 512.016 512.016" style="enable-background:new 0 0 512.016 512.016;" xml:space="preserve">
<g>
	<g>
		<g>
			<path d="M349.875,187.749c-4.71,0-8.533,3.814-8.533,8.533s3.823,8.533,8.533,8.533s8.533-3.814,8.533-8.533
				S354.585,187.749,349.875,187.749z"/>
			<path d="M170.675,196.282c0-4.719-3.823-8.533-8.533-8.533c-4.71,0-8.533,3.814-8.533,8.533s3.823,8.533,8.533,8.533
				C166.852,204.816,170.675,201.001,170.675,196.282z"/>
			<path d="M362.683,342.501c-4.088-2.381-9.293-0.973-11.657,3.106c-20.13,34.731-55.646,55.475-95.019,55.475
				s-74.889-20.745-95.019-55.475c-2.364-4.079-7.561-5.487-11.657-3.106c-4.079,2.355-5.47,7.578-3.106,11.656
				c23.211,40.064,64.247,63.991,109.781,63.991s86.571-23.927,109.781-63.991C368.153,350.079,366.762,344.856,362.683,342.501z"/>
			<path d="M441.437,145.03C455.895,72.069,410.274,6.424,408.295,3.623c-1.971-2.79-5.436-4.181-8.755-3.413
				c-3.336,0.717-5.931,3.345-6.588,6.699c-4.791,24.482-14.034,48.666-27.482,72.013c-32.58-17.665-69.87-27.706-109.462-27.706
				c-39.439,0-76.591,9.967-109.081,27.504c-13.379-23.286-22.583-47.402-27.365-71.808c-0.657-3.354-3.243-5.999-6.588-6.707
				c-3.345-0.742-6.775,0.64-8.747,3.422c-1.979,2.793-47.384,68.127-33.257,140.867c-28.486,38.34-45.363,85.796-45.363,137.123
				c0,127.044,103.356,230.4,230.4,230.4s230.4-103.356,230.4-230.4C486.408,230.527,469.684,183.277,441.437,145.03z
				 M404.617,30.998c10.625,20.524,25.247,56.742,22.096,96.041c-13.682-15.096-29.331-28.377-46.542-39.43
				C390.795,69.193,398.982,50.239,404.617,30.998z M107.914,31.044c5.608,19.143,13.743,37.999,24.293,56.337
				c-17.158,10.974-32.771,24.157-46.438,39.146C82.819,87.524,97.349,51.501,107.914,31.044z M256.008,494.949
				c-117.632,0-213.333-95.701-213.333-213.333S138.376,68.282,256.008,68.282s213.333,95.701,213.333,213.333
				S373.64,494.949,256.008,494.949z"/>
			<path d="M355.933,154.053l9.662-9.662c3.337-3.336,3.337-8.73,0-12.066s-8.73-3.337-12.066,0l-33.635,33.635
				c-0.114,0.113-0.228,0.227-0.341,0.341L287.054,198.8c-3.336,3.337-3.336,8.73,0,12.066c1.664,1.664,3.849,2.5,6.033,2.5
				s4.369-0.836,6.033-2.5l8.525-8.525c2.951,20.667,20.76,36.609,42.229,36.609c23.526,0,42.667-19.14,42.667-42.667
				C392.541,174.813,376.599,157.005,355.933,154.053z M349.875,221.882c-14.114,0-25.6-11.486-25.6-25.6
				c0-6.903,2.752-13.172,7.21-17.781l0.608-0.608c4.609-4.458,10.879-7.211,17.782-7.211c14.114,0,25.6,11.486,25.6,25.6
				S363.989,221.882,349.875,221.882z"/>
			<path d="M204.37,202.34l8.517,8.517c1.664,1.664,3.849,2.5,6.033,2.5c2.185,0,4.369-0.836,6.033-2.5
				c3.337-3.336,3.337-8.73,0-12.066l-32.49-32.49c-0.113-0.114-0.227-0.228-0.341-0.341l-33.635-33.635
				c-3.337-3.337-8.73-3.337-12.066,0s-3.337,8.73,0,12.066l9.662,9.662c-20.667,2.952-36.609,20.76-36.609,42.229
				c0,23.526,19.14,42.667,42.667,42.667C183.611,238.949,201.419,223.007,204.37,202.34z M136.541,196.282
				c0-14.114,11.486-25.6,25.6-25.6c6.903,0,13.172,2.752,17.781,7.21l0.608,0.608c4.458,4.609,7.21,10.879,7.21,17.781
				c0,14.114-11.486,25.6-25.6,25.6C148.027,221.882,136.541,210.396,136.541,196.282z"/>
		</g>
	</g>
</g>
<g>
</g>
<g>
</g>
<g>
</g>
<g>
</g>
<g>
</g>
<g>
</g>
<g>
</g>
<g>
</g>
<g>
</g>
<g>
</g>
<g>
</g>
<g>
</g>
<g>
</g>
<g>
</g>
<g>
</g>
</svg>
