<?xml version="1.0" encoding="iso-8859-1"?>
<!-- Generator: Adobe Illustrator 19.0.0, SVG Export Plug-In . SVG Version: 6.00 Build 0)  -->
<svg version="1.1" id="Layer_1" xmlns="http://www.w3.org/2000/svg" xmlns:xlink="http://www.w3.org/1999/xlink" x="0px" y="0px"
	 viewBox="0 0 512.001 512.001" style="enable-background:new 0 0 512.001 512.001;" xml:space="preserve">
<g transform="translate(0 -1)">
	<g>
		<g>
			<path d="M213.334,171.678c0-18.853-15.281-34.133-34.133-34.133s-34.133,15.281-34.133,34.133
				c0,18.853,15.281,34.133,34.133,34.133S213.334,190.531,213.334,171.678z M162.134,171.678c0-9.427,7.64-17.067,17.067-17.067
				s17.067,7.64,17.067,17.067c0,9.427-7.64,17.067-17.067,17.067S162.134,181.105,162.134,171.678z"/>
			<path d="M332.8,205.811c18.853,0,34.133-15.281,34.133-34.133c0-18.853-15.281-34.133-34.133-34.133
				c-18.853,0-34.133,15.281-34.133,34.133C298.667,190.531,313.948,205.811,332.8,205.811z M332.8,154.611
				c9.427,0,17.067,7.64,17.067,17.067c0,9.427-7.64,17.067-17.067,17.067c-9.427,0-17.067-7.64-17.067-17.067
				C315.734,162.251,323.374,154.611,332.8,154.611z"/>
			<path d="M463.514,315.185c2.725-11.435,4.527-23.227,5.328-35.294c12.138,3.725,22.145,9.238,27.934,16.55
				c2.925,3.695,8.292,4.319,11.987,1.394c3.695-2.925,4.319-8.292,1.394-11.987c-8.64-10.914-23.431-18.727-40.864-23.445
				c-0.625-43.223-14.092-83.335-36.773-116.683l36.507-99.095c2.517-6.831-4.126-13.474-10.957-10.957L351.719,74.853
				C322.931,60.375,290.421,52.211,256,52.211s-66.931,8.163-95.718,22.641L53.93,35.667c-6.831-2.517-13.474,4.126-10.957,10.957
				L79.48,145.72c-22.681,33.349-36.149,73.46-36.773,116.683c-17.432,4.718-32.224,12.531-40.864,23.445
				c-2.925,3.695-2.301,9.062,1.394,11.987c3.695,2.925,9.062,2.301,11.987-1.394c5.788-7.312,15.795-12.825,27.934-16.55
				c0.801,12.067,2.603,23.859,5.328,35.294c-19.52,6.21-35.964,16.637-46.694,30.461c-2.89,3.723-2.214,9.084,1.509,11.973
				c3.723,2.89,9.084,2.214,11.973-1.509c8.478-10.923,21.787-19.347,37.823-24.538C80.903,417.072,161.226,478.878,256,478.878
				s175.098-61.806,202.902-147.306c16.036,5.19,29.346,13.615,37.823,24.538c2.89,3.723,8.25,4.399,11.973,1.509
				c3.723-2.89,4.399-8.25,1.509-11.973C499.479,331.821,483.035,321.395,463.514,315.185z M446.622,58.074l-26.308,71.41
				c-14.036-16.932-30.636-31.66-49.21-43.585L446.622,58.074z M65.379,58.074l75.517,27.824
				c-18.573,11.925-35.174,26.654-49.21,43.585L65.379,58.074z M256,461.811c-86.735,0-160.318-56.264-186.268-134.282
				c27.225-4.609,59.325-0.896,88.547,13.895c4.205,2.128,9.339,0.445,11.467-3.76c2.128-4.205,0.445-9.339-3.76-11.467
				c-33.077-16.742-69.628-20.869-100.935-15.126c-2.69-11.326-4.405-23.029-5.038-35.021c35.944-5.729,80.502,1.047,95.363,20.306
				c2.879,3.731,8.238,4.422,11.969,1.543c3.731-2.879,4.422-8.238,1.543-11.969c-18.644-24.161-67.595-33.178-109.031-27.066
				c1.322-39.525,14.323-76.088,35.673-106.345c0.158-0.187,0.323-0.365,0.469-0.571c17.911-25.184,41.533-45.864,68.865-60.222
				c0.143-0.075,0.264-0.169,0.4-0.25C192.404,77.304,223.263,69.278,256,69.278c32.738,0,63.596,8.026,90.734,22.201
				c0.136,0.081,0.257,0.174,0.4,0.249c27.332,14.359,50.954,35.039,68.865,60.222c0.146,0.206,0.311,0.383,0.469,0.571
				c21.35,30.257,34.351,66.82,35.673,106.345c-41.435-6.112-90.387,2.905-109.03,27.066c-2.879,3.731-2.188,9.09,1.543,11.969
				c3.731,2.879,9.09,2.188,11.969-1.543c14.861-19.259,59.419-26.035,95.363-20.306c-0.633,11.991-2.348,23.695-5.038,35.021
				c-31.307-5.743-67.858-1.617-100.935,15.126c-4.205,2.128-5.888,7.262-3.76,11.467c2.128,4.205,7.263,5.888,11.467,3.76
				c29.222-14.791,61.322-18.504,88.547-13.895C416.319,405.548,342.735,461.811,256,461.811z"/>
			<path d="M320.413,334.731c-42.546,21.535-88.107,21.499-128.695,0.068c-6.872-3.629-14.622,3.069-12.028,10.395
				c12.285,34.689,40.583,56.885,76.31,56.885s64.026-22.196,76.31-56.885C334.881,337.935,327.283,331.254,320.413,334.731z
				 M256,385.011c-20.596,0-37.965-9.295-49.708-25.329c32.268,11.125,66.539,11.016,99.664-0.342
				C294.211,375.584,276.742,385.011,256,385.011z"/>
			<path d="M256,282.611c18.297,0,34.133-10.556,34.133-25.6s-15.836-25.6-34.133-25.6c-18.297,0-34.133,10.556-34.133,25.6
				S237.703,282.611,256,282.611z M256,248.478c9.985,0,17.067,4.72,17.067,8.533s-7.081,8.533-17.067,8.533
				c-9.985,0-17.067-4.72-17.067-8.533S246.015,248.478,256,248.478z"/>
		</g>
	</g>
</g>
<g>
</g>
<g>
</g>
<g>
</g>
<g>
</g>
<g>
</g>
<g>
</g>
<g>
</g>
<g>
</g>
<g>
</g>
<g>
</g>
<g>
</g>
<g>
</g>
<g>
</g>
<g>
</g>
<g>
</g>
</svg>
