<?xml version="1.0" encoding="iso-8859-1"?>
<!-- Generator: Adobe Illustrator 19.0.0, SVG Export Plug-In . SVG Version: 6.00 Build 0)  -->
<svg version="1.1" id="Layer_1" xmlns="http://www.w3.org/2000/svg" xmlns:xlink="http://www.w3.org/1999/xlink" x="0px" y="0px"
	 viewBox="0 0 512.001 512.001" style="enable-background:new 0 0 512.001 512.001;" xml:space="preserve">
<g>
	<g>
		<path d="M444.861,241.246V55.446c0-9.23-7.483-16.713-16.713-16.713s-16.713,7.483-16.713,16.713v185.672
			c-23.546,5.358-49.837,22.489-78.399,51.133c-28.633,28.713-52.791,62.189-65.362,80.742h-17.802
			c-19.576-28.606-44.678-58.398-68.413-81.034c-30.379-28.975-57.88-46.094-81.999-51.105V55.446
			c0-9.23-7.483-16.713-16.713-16.713s-16.713,7.483-16.713,16.713v186.05C21.662,252.177,0,297.626,0,343.806
			c0,65.069,41.395,129.463,118.402,129.463c57.683,0,98.556-20.709,131.37-66.852h17.996
			c34.308,48.978,71.336,66.852,125.839,66.852c75.682,0,118.393-62.802,118.393-129.417
			C512,297.189,489.894,251.397,444.861,241.246z M210.693,401.969c-23.928,26.619-52.181,37.874-92.292,37.874
			c-57.423,0-84.975-48.937-84.975-96.037c0-35.387,15.941-71.092,51.55-71.092c17.977,0,44.05,15.424,73.414,43.43
			c17.99,17.159,36.839,38.754,53.091,60.593C203.592,383.156,203.187,395.034,210.693,401.969z M393.608,439.843
			c-40.39,0-65.934-11.279-90.33-41.692c3.214-5.469,3.041-12.143-0.311-17.405c12.758-17.984,31.918-43.013,53.738-64.894
			c27.739-27.818,52.716-43.138,70.329-43.138c35.39,0,51.542,35.844,51.542,71.138
			C478.574,390.864,451.169,439.843,393.608,439.843z"/>
	</g>
</g>
<g>
</g>
<g>
</g>
<g>
</g>
<g>
</g>
<g>
</g>
<g>
</g>
<g>
</g>
<g>
</g>
<g>
</g>
<g>
</g>
<g>
</g>
<g>
</g>
<g>
</g>
<g>
</g>
<g>
</g>
</svg>
