<?xml version="1.0" encoding="iso-8859-1"?>
<!-- Generator: Adobe Illustrator 19.0.0, SVG Export Plug-In . SVG Version: 6.00 Build 0)  -->
<svg version="1.1" id="Layer_1" xmlns="http://www.w3.org/2000/svg" xmlns:xlink="http://www.w3.org/1999/xlink" x="0px" y="0px"
	 viewBox="0 0 503.467 503.467" style="enable-background:new 0 0 503.467 503.467;" xml:space="preserve">
<g transform="translate(1 1)">
	<path style="fill:#F2EDDA;" d="M225.987,311.321l-0.853,0.853L44.227,493.081c-6.827,6.827-17.92,6.827-23.893,0L8.387,481.134
		c-6.827-6.827-6.827-17.92,0-23.893l180.907-180.907l0.853-0.853C200.387,289.134,212.334,301.08,225.987,311.321"/>
	<path style="fill:#FFE079;" d="M327.534,173.934c0,0-34.133-34.133-34.133-85.333s34.133-85.333,34.133-85.333
		c-63.147,0-118.613,34.133-147.627,85.333c0.853,2.56,13.653,46.933,57.173,71.68C280.6,186.734,327.534,173.934,327.534,173.934
		L327.534,173.934L327.534,173.934c0,0-12.8,46.933-57.173,72.533c-42.667,24.747-87.893,13.653-90.453,13.653
		c3.413,5.12,6.827,11.093,10.24,16.213c10.24,13.653,22.187,25.6,35.84,35.84c28.16,21.333,63.147,33.28,101.547,33.28
		c0,0,34.133-34.133,34.133-85.333C361.667,208.067,327.534,173.934,327.534,173.934s46.933-11.947,91.307,12.8
		c43.52,24.747,56.32,69.973,57.173,72.533c14.507-24.747,23.04-54.613,23.04-85.333c0-31.573-8.533-60.587-23.04-85.333
		c-2.56-0.853-47.787-11.947-90.453,12.8C340.334,127.001,327.534,173.934,327.534,173.934z"/>
	<path style="fill:#FF7474;" d="M418.84,186.734c43.52,24.747,56.32,69.973,57.173,71.68c-29.013,51.2-84.48,85.333-147.627,85.333
		c0,0,34.133-34.133,34.133-85.333s-34.133-85.333-34.133-85.333S374.467,161.134,418.84,186.734z M460.654,67.267
		c5.12,6.827,10.24,13.653,14.507,21.333c-2.56-0.853-47.787-11.947-90.453,13.653c-44.373,25.6-57.173,72.533-57.173,72.533
		S293.4,140.654,293.4,89.454s34.133-85.333,34.133-85.333c19.627,0,39.253,3.413,57.173,10.24
		c-3.413,4.267-5.973,9.387-5.973,15.36c0,14.507,11.093,25.6,25.6,25.6c6.827,0,12.8-2.56,17.067-6.827
		c0.853,13.653,11.947,23.893,25.6,23.893C452.12,71.534,457.24,69.827,460.654,67.267z M327.534,173.934
		c0,0-12.8,46.933-57.173,72.533c-42.667,24.747-87.893,13.653-90.453,13.653l0,0c-14.507-24.747-23.04-54.613-23.04-85.333
		s8.533-59.733,23.04-85.333c0.853,2.56,13.653,46.933,57.173,71.68C280.6,186.734,327.534,173.934,327.534,173.934z"/>
</g>
<path style="fill:#51565F;" d="M33.28,503.467c-5.973,0-11.093-2.56-15.36-5.973L5.974,485.547C1.707,481.28,0,476.16,0,470.187
	s2.56-11.093,5.973-15.36L163.84,296.961c1.707-1.707,4.267-1.707,5.973,0c1.707,1.707,1.707,4.267,0,5.973L11.947,460.801
	c-2.56,2.56-3.413,5.973-3.413,9.387c0,3.413,1.707,6.827,3.413,9.387l11.947,11.947c5.12,5.12,13.653,5.12,17.92,0L199.68,333.654
	c1.707-1.707,4.267-1.707,5.973,0c1.707,1.707,1.707,4.267,0,5.973L47.787,497.494C44.374,500.907,39.254,503.467,33.28,503.467z
	 M328.534,349.867c-64,0-121.173-34.987-151.04-87.04l-0.853-0.853c-14.507-25.6-23.04-55.467-23.04-87.04s8.533-61.44,23.04-87.04
	c0,0,0-0.853,0.853-0.853C208.214,34.987,264.534,0,328.534,0c19.627,0,39.253,3.413,58.027,10.24c1.707,0.853,2.56,1.707,2.56,2.56
	c0,1.707,0,2.56-0.853,3.413c-3.413,4.267-4.267,8.533-4.267,12.8c0,11.947,9.387,21.333,21.333,21.333
	c5.12,0,10.24-1.707,14.507-5.973c0.853-0.853,2.56-1.707,4.267-0.853c1.707,0.853,2.56,1.707,2.56,3.413
	C427.52,58.026,436.907,66.56,448,66.56c4.267,0,7.68-0.853,11.093-3.413c1.707-0.853,4.267-0.853,5.973,0.853
	c5.12,6.827,10.24,13.653,14.507,21.333c0,0,0,0.853,0.853,0.853c15.36,26.453,23.04,56.32,23.04,87.04
	c0,31.573-8.533,61.44-23.04,87.04c0,0,0,0.853-0.853,0.853C449.707,314.88,393.387,349.867,328.534,349.867z M189.44,266.241
	c29.867,44.373,80.213,74.24,137.387,75.093c5.973-6.827,31.573-37.547,31.573-81.067c0-37.547-18.773-65.707-28.16-76.8
	c-5.12,14.507-21.333,46.933-56.32,67.413C240.64,270.507,205.654,268.801,189.44,266.241z M337.067,177.494
	c10.24,11.947,29.867,41.813,29.867,82.773c0,38.4-18.773,67.413-29.013,81.067c57.173-3.413,105.813-34.987,133.973-81.067
	c-2.56-8.533-17.067-46.08-54.613-68.267C384.854,173.227,350.72,175.787,337.067,177.494z M183.467,256.854
	c8.533,1.707,48.64,8.533,86.187-12.8c32.427-18.773,46.933-49.493,52.907-63.147c-15.36,2.56-51.2,5.12-87.04-15.36
	c-33.28-19.627-49.493-50.347-55.467-65.707c-11.093,22.187-17.92,47.787-17.92,75.093
	C162.134,204.801,169.814,232.107,183.467,256.854z M356.694,167.254c17.92,0,41.813,3.413,64.853,17.067
	c33.28,19.627,49.493,50.347,55.467,65.707c11.093-22.187,17.92-47.787,17.92-75.093c0-29.013-7.68-57.173-21.333-81.92
	c-8.533-1.707-48.64-8.533-86.187,12.8c-32.427,18.773-46.933,49.493-52.907,63.147C340.48,168.107,348.16,167.254,356.694,167.254z
	 M185.174,90.454c2.56,8.533,17.067,46.08,54.613,68.267c32.427,18.773,66.56,16.213,81.067,13.653
	c-10.24-11.947-29.867-41.813-29.867-82.773c0-38.4,18.773-67.413,29.013-81.067C261.974,11.947,212.48,43.521,185.174,90.454z
	 M330.24,8.534c-5.973,6.827-31.573,37.547-31.573,81.067c0,37.547,18.773,65.707,28.16,76.8
	c5.12-14.507,21.333-46.933,56.32-67.413c33.28-19.627,68.267-17.92,84.48-15.36c-2.56-3.413-4.267-6.827-6.827-9.387
	c-4.267,1.707-8.533,2.56-12.8,2.56c-12.8,0-24.747-8.533-28.16-20.48c-4.267,2.56-9.387,3.413-14.507,3.413
	c-16.213,0-29.867-13.653-29.867-29.867c0-5.12,0.853-9.387,3.413-13.653C362.667,11.094,346.454,8.534,330.24,8.534z"/>
<g>
</g>
<g>
</g>
<g>
</g>
<g>
</g>
<g>
</g>
<g>
</g>
<g>
</g>
<g>
</g>
<g>
</g>
<g>
</g>
<g>
</g>
<g>
</g>
<g>
</g>
<g>
</g>
<g>
</g>
</svg>
