<?xml version="1.0" encoding="iso-8859-1"?>
<!-- Generator: Adobe Illustrator 19.0.0, SVG Export Plug-In . SVG Version: 6.00 Build 0)  -->
<svg version="1.1" id="Layer_1" xmlns="http://www.w3.org/2000/svg" xmlns:xlink="http://www.w3.org/1999/xlink" x="0px" y="0px"
	 viewBox="0 0 472.615 472.615" style="enable-background:new 0 0 472.615 472.615;" xml:space="preserve">
<g>
	<g>
		<path d="M378.191,344.615l-19.692-19.692h-63.114v68.923h-29.539V279.927h75.225c53.366,0,92.16-34.955,92.16-83.004
			c0-35.052-22.351-66.167-54.449-77.982c2.855-9.748,3.938-19.791,3.249-31.113C379.077,39.777,336.246,0.393,286.622,0h-0.788
			c-39.286,0-74.437,23.434-89.108,57.895c-14.474-10.832-32.788-15.952-51.495-14.276C118.351,46.178,94.818,64,83.889,90.29
			c-5.218,12.504-4.529,26.387-3.348,34.854c-25.206,14.769-41.157,42.142-41.157,71.779c0,47.36,39.582,83.004,92.16,83.004h75.225
			v113.919h-29.538v-49.231H82.806l-19.692-19.692H0v147.692h177.231v-59.077h49.231V279.927h19.692v133.611h49.231v59.077h177.231
			v-128H378.191z"/>
	</g>
</g>
<g>
</g>
<g>
</g>
<g>
</g>
<g>
</g>
<g>
</g>
<g>
</g>
<g>
</g>
<g>
</g>
<g>
</g>
<g>
</g>
<g>
</g>
<g>
</g>
<g>
</g>
<g>
</g>
<g>
</g>
</svg>
