<?xml version="1.0" encoding="iso-8859-1"?>
<!-- Generator: Adobe Illustrator 19.0.0, SVG Export Plug-In . SVG Version: 6.00 Build 0)  -->
<svg version="1.1" id="Layer_1" xmlns="http://www.w3.org/2000/svg" xmlns:xlink="http://www.w3.org/1999/xlink" x="0px" y="0px"
	 viewBox="0 0 491.52 491.52" style="enable-background:new 0 0 491.52 491.52;" xml:space="preserve">
<g>
	<g>
		<g>
			<path d="M471.04,81.92H409.6V20.48C409.6,9.169,400.431,0,389.12,0H307.2c-11.311,0-20.48,9.169-20.48,20.48v61.44H20.48
				C9.169,81.92,0,91.089,0,102.4v286.72c0,11.311,9.169,20.48,20.48,20.48h266.24v20.48c0,5.432,2.158,10.641,5.998,14.482
				l40.96,40.96c7.998,7.998,20.965,7.998,28.963,0l40.96-40.96c3.841-3.841,5.998-9.05,5.998-14.482V409.6h61.44
				c11.311,0,20.48-9.169,20.48-20.48V102.4C491.52,91.089,482.351,81.92,471.04,81.92z M40.96,368.64V122.88h245.76v245.76H40.96z
				 M368.64,421.597l-20.48,20.48l-20.48-20.48V389.12V102.4V40.96h40.96v61.44v286.72V421.597z M450.56,368.64H409.6V122.88h40.96
				V368.64z"/>
			<path d="M163.84,184.32h40.96c11.311,0,20.48-9.169,20.48-20.48s-9.169-20.48-20.48-20.48h-40.96
				c-33.941,0-61.44,27.499-61.44,61.44c0,33.941,27.499,61.44,61.44,61.44c11.32,0,20.48,9.16,20.48,20.48
				c0,11.32-9.16,20.48-20.48,20.48h-40.96c-11.311,0-20.48,9.169-20.48,20.48s9.169,20.48,20.48,20.48h40.96
				c33.941,0,61.44-27.499,61.44-61.44c0-33.941-27.499-61.44-61.44-61.44c-11.32,0-20.48-9.16-20.48-20.48
				C143.36,193.48,152.52,184.32,163.84,184.32z"/>
		</g>
	</g>
</g>
<g>
</g>
<g>
</g>
<g>
</g>
<g>
</g>
<g>
</g>
<g>
</g>
<g>
</g>
<g>
</g>
<g>
</g>
<g>
</g>
<g>
</g>
<g>
</g>
<g>
</g>
<g>
</g>
<g>
</g>
</svg>
