<?xml version="1.0" encoding="iso-8859-1"?>
<!-- Generator: Adobe Illustrator 19.0.0, SVG Export Plug-In . SVG Version: 6.00 Build 0)  -->
<svg version="1.1" id="Layer_1" xmlns="http://www.w3.org/2000/svg" xmlns:xlink="http://www.w3.org/1999/xlink" x="0px" y="0px"
	 viewBox="0 0 491.52 491.52" style="enable-background:new 0 0 491.52 491.52;" xml:space="preserve">
<g>
	<g>
		<g>
			<path d="M471.04,0H20.48C9.169,0,0,9.169,0,20.48v450.56c0,11.311,9.169,20.48,20.48,20.48h450.56
				c11.311,0,20.48-9.169,20.48-20.48V20.48C491.52,9.169,482.351,0,471.04,0z M450.56,450.56H40.96V40.96h409.6V450.56z"/>
			<rect x="81.92" y="81.92" width="327.68" height="81.92"/>
			<rect x="81.92" y="204.8" width="81.92" height="81.92"/>
			<rect x="81.92" y="327.68" width="81.92" height="81.92"/>
			<rect x="204.8" y="204.8" width="81.92" height="81.92"/>
			<rect x="204.8" y="327.68" width="81.92" height="81.92"/>
			<rect x="327.68" y="204.8" width="81.92" height="204.8"/>
		</g>
	</g>
</g>
<g>
</g>
<g>
</g>
<g>
</g>
<g>
</g>
<g>
</g>
<g>
</g>
<g>
</g>
<g>
</g>
<g>
</g>
<g>
</g>
<g>
</g>
<g>
</g>
<g>
</g>
<g>
</g>
<g>
</g>
</svg>
