<?xml version="1.0" encoding="iso-8859-1"?>
<!-- Generator: Adobe Illustrator 19.0.0, SVG Export Plug-In . SVG Version: 6.00 Build 0)  -->
<svg version="1.1" id="Layer_1" xmlns="http://www.w3.org/2000/svg" xmlns:xlink="http://www.w3.org/1999/xlink" x="0px" y="0px"
	 viewBox="0 0 491.522 491.522" style="enable-background:new 0 0 491.522 491.522;" xml:space="preserve">
<g>
	<g>
		<path d="M438.376,112.641H368.64v-81.92c0-11.311-9.169-20.48-20.48-20.48h-204.8c-11.311,0-20.48,9.169-20.48,20.48v81.92H53.148
			c-29.354,0-53.146,23.792-53.146,53.146v28.734c0,0.013-0.002,0.026-0.002,0.04c0,0.053,0.002,0.106,0.002,0.159v233.415
			c0,29.354,23.792,53.146,53.146,53.146h385.229c29.354,0,53.146-23.792,53.146-53.146V165.787
			C491.522,136.433,467.73,112.641,438.376,112.641z M450.562,165.787v28.734c0,0.013-0.002,0.026-0.002,0.04
			c0,45.296-36.624,81.92-81.92,81.92h-40.96v-40.96c0-11.311-9.169-20.48-20.48-20.48v-61.44h40.96h90.216
			C445.109,153.601,450.562,159.055,450.562,165.787z M225.28,153.601h40.96v61.44h-40.96V153.601z M204.8,256.001h81.92v81.92
			H204.8V256.001z M163.84,51.201h163.84v61.44h-40.96H204.8h-40.96V51.201z M53.148,153.601h90.212h40.96v61.44
			c-11.311,0-20.48,9.169-20.48,20.48v40.96h-40.96c-45.268,0-81.873-36.58-81.918-81.838v-28.857
			C40.962,159.055,46.416,153.601,53.148,153.601z M438.376,440.321H53.148c-6.732,0-12.186-5.453-12.186-12.186V286.181
			c21.732,19.441,50.43,31.26,81.918,31.26h40.96v40.96c0,11.311,9.169,20.48,20.48,20.48H307.2c11.311,0,20.48-9.169,20.48-20.48
			v-40.96h40.96c31.49,0,60.189-11.821,81.922-31.264v141.959C450.562,434.868,445.109,440.321,438.376,440.321z"/>
	</g>
</g>
<g>
</g>
<g>
</g>
<g>
</g>
<g>
</g>
<g>
</g>
<g>
</g>
<g>
</g>
<g>
</g>
<g>
</g>
<g>
</g>
<g>
</g>
<g>
</g>
<g>
</g>
<g>
</g>
<g>
</g>
</svg>
