<?xml version="1.0" encoding="iso-8859-1"?>
<!-- Generator: Adobe Illustrator 19.0.0, SVG Export Plug-In . SVG Version: 6.00 Build 0)  -->
<svg version="1.1" id="Layer_1" xmlns="http://www.w3.org/2000/svg" xmlns:xlink="http://www.w3.org/1999/xlink" x="0px" y="0px"
	 viewBox="0 0 512 512" style="enable-background:new 0 0 512 512;" xml:space="preserve">
<g>
	<g>
		<path d="M480.33,211.128v-89.734H348.351v95.011H163.649v-95.011H31.67v89.734H0v89.755h31.67v89.723h131.979v-95h184.702v95
			H480.33v-89.723H512v-89.755H480.33z M31.67,285.021H15.862v-58.032H31.67V285.021z M147.787,374.745H47.532v-237.49h52.755
			v176.803h15.862V137.255h31.638V374.745z M348.351,279.745H163.649v-47.479h184.702V279.745z M464.468,374.745H364.213v-237.49
			h31.638v176.803h15.862V137.255h52.755V374.745z M496.138,285.021H480.33v-58.032h15.809V285.021z"/>
	</g>
</g>
<g>
</g>
<g>
</g>
<g>
</g>
<g>
</g>
<g>
</g>
<g>
</g>
<g>
</g>
<g>
</g>
<g>
</g>
<g>
</g>
<g>
</g>
<g>
</g>
<g>
</g>
<g>
</g>
<g>
</g>
</svg>
