<?xml version="1.0" encoding="iso-8859-1"?>
<!-- Generator: Adobe Illustrator 16.0.0, SVG Export Plug-In . SVG Version: 6.00 Build 0)  -->
<!DOCTYPE svg PUBLIC "-//W3C//DTD SVG 1.1//EN" "http://www.w3.org/Graphics/SVG/1.1/DTD/svg11.dtd">
<svg version="1.1" id="Capa_1" xmlns="http://www.w3.org/2000/svg" xmlns:xlink="http://www.w3.org/1999/xlink" x="0px" y="0px"
	 width="198.784px" height="198.784px" viewBox="0 0 198.784 198.784" style="enable-background:new 0 0 198.784 198.784;"
	 xml:space="preserve">
<g>
	<path d="M194.721,4.066c-5.42-5.418-14.236-5.418-19.654,0L155.21,23.924c-3.315-1.736-7.513-1.212-10.295,1.569l-1.627,1.626
		l-2.335-2.335c-3.428-3.427-9.002-3.427-12.428,0L24.789,128.521c-1.66,1.66-2.574,3.867-2.574,6.214
		c0,2.349,0.914,4.556,2.574,6.215l2.335,2.335l-1.627,1.627c-1.66,1.66-2.574,3.867-2.574,6.214c0,1.446,0.349,2.837,1.003,4.081
		L4.07,175.062C1.445,177.688,0,181.178,0,184.89s1.445,7.202,4.07,9.827c2.709,2.709,6.268,4.063,9.827,4.063
		s7.118-1.355,9.827-4.064l19.857-19.857c1.273,0.666,2.677,1,4.081,1c2.25,0,4.501-0.856,6.214-2.568l1.627-1.627l2.334,2.334
		c1.714,1.713,3.964,2.569,6.215,2.569c2.25,0,4.501-0.856,6.215-2.569L174.001,70.262c1.66-1.659,2.575-3.866,2.575-6.214
		c0-2.347-0.914-4.555-2.575-6.215l-2.334-2.334l1.627-1.627c2.781-2.782,3.304-6.979,1.569-10.294l19.857-19.857
		C200.139,18.303,200.139,9.485,194.721,4.066z M18.952,189.942c-2.786,2.787-7.321,2.787-10.108,0.001
		c-1.35-1.35-2.094-3.145-2.093-5.055c0-1.909,0.743-3.704,2.093-5.054l19.575-19.574l10.108,10.108L18.952,189.942z
		 M154.895,38.727c-1.317-1.316-3.455-1.316-4.772,0c-1.317,1.318-1.317,3.455,0,4.773l14.38,14.381l0.004,0.004
		c0.002,0.001,0.004,0.003,0.004,0.003l4.717,4.718c0.386,0.386,0.598,0.897,0.598,1.442c0,0.544-0.212,1.056-0.598,1.44
		L65.493,169.225c-0.795,0.795-2.089,0.795-2.883,0l-18.657-18.657c-1.318-1.316-3.455-1.316-4.773,0
		c-1.318,1.318-1.318,3.455,0,4.773l11.549,11.55l-1.626,1.626c-0.794,0.795-2.086,0.794-2.882,0.001l-0.001-0.001l-15.949-15.95
		c-0.385-0.385-0.597-0.896-0.597-1.44c0-0.544,0.212-1.057,0.597-1.441l3.998-3.998c0.005-0.005,0.011-0.009,0.016-0.015
		c1.236-1.236,1.313-3.191,0.231-4.517c-0.072-0.09-0.149-0.175-0.232-0.258l-0.002-0.001l-4.719-4.72
		c-0.385-0.385-0.597-0.896-0.597-1.441c0-0.544,0.212-1.056,0.597-1.44L133.299,29.559c0.795-0.795,2.088-0.795,2.881,0
		l4.717,4.717c0.002,0.001,0.002,0.004,0.004,0.005c1.318,1.317,3.455,1.317,4.773,0.001l4.014-4.015
		c0.793-0.795,2.086-0.795,2.882,0l15.948,15.949c0.795,0.795,0.795,2.089,0.002,2.883l-1.627,1.626L154.895,38.727z
		 M189.947,18.949l-19.574,19.573l-10.107-10.107L179.839,8.84c2.787-2.787,7.322-2.787,10.108,0
		C192.734,11.627,192.734,16.162,189.947,18.949z"/>
</g>
<g>
</g>
<g>
</g>
<g>
</g>
<g>
</g>
<g>
</g>
<g>
</g>
<g>
</g>
<g>
</g>
<g>
</g>
<g>
</g>
<g>
</g>
<g>
</g>
<g>
</g>
<g>
</g>
<g>
</g>
</svg>
