<?xml version="1.0" encoding="iso-8859-1"?>
<!-- Generator: Adobe Illustrator 19.0.0, SVG Export Plug-In . SVG Version: 6.00 Build 0)  -->
<svg version="1.1" id="Layer_1" xmlns="http://www.w3.org/2000/svg" xmlns:xlink="http://www.w3.org/1999/xlink" x="0px" y="0px"
	 viewBox="0 0 512 512" style="enable-background:new 0 0 512 512;" xml:space="preserve">
<g>
	<path style="fill:#ECF0F1;" d="M388.414,164.423V35.31c0-19.509-15.81-35.31-35.31-35.31c-19.5,0-35.31,15.801-35.31,35.31v94.729
		c-3.964-1.006-7.848-1.871-11.599-2.604c0,0-22.36-3.849-50.194-3.849s-50.194,3.849-50.194,3.849
		c-3.752,0.733-7.636,1.598-11.599,2.604V35.31c0-19.509-15.81-35.31-35.31-35.31c-19.5,0-35.31,15.801-35.31,35.31v129.112
		c-34.295,28.001-61.793,74.831-61.793,153.044c0,181.742,147.421,194.269,185.379,194.534h17.655
		c37.959-0.265,185.379-12.791,185.379-194.534C450.207,239.254,422.709,192.424,388.414,164.423"/>
	<g>
		<path style="fill:#BDC3C7;" d="M158.897,132.409c-4.873,0-8.828-3.946-8.828-8.828V35.306c0-4.882,3.955-8.828,8.828-8.828
			c4.873,0,8.828,3.946,8.828,8.828v88.276C167.724,128.463,163.769,132.409,158.897,132.409"/>
		<path style="fill:#BDC3C7;" d="M353.103,132.409c-4.873,0-8.828-3.946-8.828-8.828V35.306c0-4.882,3.955-8.828,8.828-8.828
			s8.828,3.946,8.828,8.828v88.276C361.931,128.463,357.976,132.409,353.103,132.409"/>
	</g>
	<g>
		<path style="fill:#2C2F38;" d="M256,441.375c-47.281,0-89.741-24.55-113.567-65.686c-2.445-4.22-1.006-9.622,3.213-12.067
			c4.237-2.454,9.613-1.006,12.058,3.222c20.639,35.611,57.379,56.876,98.295,56.876s77.656-21.266,98.295-56.876
			c2.445-4.228,7.821-5.676,12.058-3.222c4.22,2.445,5.659,7.848,3.213,12.067C345.741,416.825,303.281,441.375,256,441.375"/>
		<path style="fill:#2C2F38;" d="M203.034,238.34c0,14.627-11.855,26.483-26.483,26.483c-14.627,0-26.483-11.855-26.483-26.483
			s11.855-26.483,26.483-26.483C191.179,211.858,203.034,223.713,203.034,238.34"/>
		<path style="fill:#2C2F38;" d="M361.931,238.34c0,14.627-11.855,26.483-26.483,26.483s-26.483-11.855-26.483-26.483
			s11.855-26.483,26.483-26.483S361.931,223.713,361.931,238.34"/>
		<path style="fill:#2C2F38;" d="M282.483,317.789c0,9.754-11.855,17.655-26.483,17.655s-26.483-7.901-26.483-17.655
			s11.855-17.655,26.483-17.655S282.483,308.034,282.483,317.789"/>
	</g>
</g>
<g>
</g>
<g>
</g>
<g>
</g>
<g>
</g>
<g>
</g>
<g>
</g>
<g>
</g>
<g>
</g>
<g>
</g>
<g>
</g>
<g>
</g>
<g>
</g>
<g>
</g>
<g>
</g>
<g>
</g>
</svg>
