<?xml version="1.0" encoding="iso-8859-1"?>
<!-- Generator: Adobe Illustrator 18.0.0, SVG Export Plug-In . SVG Version: 6.00 Build 0)  -->
<!DOCTYPE svg PUBLIC "-//W3C//DTD SVG 1.1//EN" "http://www.w3.org/Graphics/SVG/1.1/DTD/svg11.dtd">
<svg version="1.1" id="Capa_1" xmlns="http://www.w3.org/2000/svg" xmlns:xlink="http://www.w3.org/1999/xlink" x="0px" y="0px"
	 viewBox="0 0 297 297" style="enable-background:new 0 0 297 297;" xml:space="preserve">
<path d="M236.551,45.45c3.891,9.379,13.141,15.994,23.91,15.994c14.267,0,25.875-11.608,25.875-25.875S274.729,9.694,260.461,9.694
	c-10.769,0-20.02,6.615-23.91,15.994h-14.193V9.881c0-5.457-4.424-9.881-9.881-9.881c-5.457,0-9.881,4.424-9.881,9.881v15.807
	h-42.868c-20.459,0-37.104,16.645-37.104,37.104v153.483c0,9.562-7.78,17.342-17.342,17.342H81.807
	c-9.562,0-17.342-7.779-17.342-17.342v-79.116c7.932-3.256,13.534-11.059,13.534-20.15v-4.469c3.016-0.847,5.715-1.92,8.147-3.232
	c7.135-3.849,15.639-11.828,15.639-27.979c0-21.182-17.212-69.348-45.561-69.348c-12.636,0-24.708,9.824-33.994,27.662
	c-7.027,13.498-11.566,29.86-11.566,41.685c0,16.151,8.505,24.13,15.639,27.979c2.431,1.312,5.131,2.385,8.147,3.232v4.469
	c0,7.778,4.102,14.612,10.253,18.464v80.802c0,20.459,16.645,37.103,37.104,37.103h23.476c20.459,0,37.104-16.644,37.104-37.103
	V62.792c0-9.562,7.78-17.342,17.342-17.342h42.868v8.727c-27.213,4.704-47.983,28.467-47.983,57.003v175.939
	c0,5.457,4.424,9.881,9.881,9.881h95.967c5.457,0,9.881-4.424,9.881-9.881V111.18c0-28.536-20.77-52.299-47.983-57.003V45.45
	H236.551z M54.211,117.009V93.223c0-1.11,0.903-2.013,2.013-2.013c1.11,0,2.013,0.903,2.013,2.013v23.786
	c0,1.11-0.903,2.013-2.013,2.013C55.114,119.022,54.211,118.119,54.211,117.009z M30.425,81.329c0-8.614,3.838-22.003,9.334-32.561
	c6.542-12.566,12.958-17.025,16.465-17.025c3.507,0,9.923,4.459,16.465,17.025c5.495,10.558,9.334,23.947,9.334,32.561
	c0,3.358-0.007,7.16-4.117,9.939c-0.992-11.094-10.335-19.82-21.682-19.82c-11.347,0-20.69,8.726-21.682,19.82
	C30.432,88.489,30.425,84.688,30.425,81.329z M260.461,29.455c3.371,0,6.114,2.742,6.114,6.114s-2.742,6.114-6.114,6.114
	s-6.114-2.742-6.114-6.114S257.09,29.455,260.461,29.455z M250.581,111.18v166.059h-76.205V111.18
	c0-21.01,17.093-38.103,38.103-38.103S250.581,90.17,250.581,111.18z"/>
<g>
</g>
<g>
</g>
<g>
</g>
<g>
</g>
<g>
</g>
<g>
</g>
<g>
</g>
<g>
</g>
<g>
</g>
<g>
</g>
<g>
</g>
<g>
</g>
<g>
</g>
<g>
</g>
<g>
</g>
</svg>
