<?xml version="1.0" encoding="iso-8859-1"?>
<!-- Generator: Adobe Illustrator 19.0.0, SVG Export Plug-In . SVG Version: 6.00 Build 0)  -->
<svg version="1.1" id="Layer_1" xmlns="http://www.w3.org/2000/svg" xmlns:xlink="http://www.w3.org/1999/xlink" x="0px" y="0px"
	 viewBox="0 0 512 512" style="enable-background:new 0 0 512 512;" xml:space="preserve">
<path style="fill:#00B4D7;" d="M256,8.084c136.893,0,247.916,111.023,247.916,247.916S392.893,503.916,256,503.916
	S8.084,392.893,8.084,256S119.107,8.084,256,8.084z"/>
<path style="fill:#00ABD5;" d="M8.084,256c0,136.893,111.023,247.916,247.916,247.916V8.084C119.107,8.084,8.084,119.107,8.084,256z
	"/>
<polygon style="fill:#FFD311;" points="358.4,284.672 327.896,315.176 297.391,284.672 327.896,254.168 297.391,223.663 
	327.896,193.159 358.4,223.663 388.904,193.159 419.409,223.663 388.904,254.168 419.409,284.672 388.904,315.176 "/>
<g>
	<polygon style="fill:#E7ECED;" points="148.211,207.495 148.211,304.505 105.095,293.726 105.095,218.274 	"/>
	<polygon style="fill:#E7ECED;" points="358.4,284.672 358.4,406.905 261.389,347.621 148.211,347.621 148.211,304.505 
		148.211,207.495 148.211,164.379 261.389,164.379 358.4,105.095 358.4,223.663 327.896,193.159 297.391,223.663 327.896,254.168 
		297.391,284.672 327.896,315.176 	"/>
</g>
<rect x="148.211" y="164.379" style="fill:#AFB6BB;" width="113.179" height="183.242"/>
<path d="M256,0C114.841,0,0,114.841,0,256s114.841,256,256,256s256-114.841,256-256S397.159,0,256,0z M256,495.832
	C123.756,495.832,16.168,388.244,16.168,256S123.756,16.168,256,16.168S495.832,123.756,495.832,256S388.244,495.832,256,495.832z"
	/>
<path d="M430.842,223.663l-41.938-41.937l-22.42,22.42V90.68l-107.369,65.615H140.126v44.888l-43.116,10.779v88.077l43.116,10.779
	v44.888h118.989l107.369,65.615v-117.13l22.42,22.42l41.938-41.937l-30.504-30.504L430.842,223.663z M113.179,224.586l26.947-6.737
	v76.302l-26.947-6.737V224.586z M263.664,339.537H156.295V172.463h97.011v137.432h16.168V168.913l80.842-49.403v84.637l-22.42-22.42
	l-41.938,41.937l30.505,30.504l-30.504,30.504l41.938,41.937l22.42-22.42v88.301L263.664,339.537z M407.977,284.672l-19.072,19.071
	L358.4,273.239l-30.504,30.504l-19.072-19.071l30.504-30.504l-30.504-30.504l19.071-19.071l30.504,30.504l30.504-30.504
	l19.071,19.071l-30.504,30.504L407.977,284.672z"/>
<g>
	<rect x="180.547" y="194.021" style="fill:#FFFFFF;" width="53.895" height="16.168"/>
	<path style="fill:#FFFFFF;" d="M64.674,250.611H48.505c0-114.413,93.082-207.495,207.495-207.495v16.168
		C150.502,59.284,64.674,145.113,64.674,250.611z"/>
</g>
<g>
</g>
<g>
</g>
<g>
</g>
<g>
</g>
<g>
</g>
<g>
</g>
<g>
</g>
<g>
</g>
<g>
</g>
<g>
</g>
<g>
</g>
<g>
</g>
<g>
</g>
<g>
</g>
<g>
</g>
</svg>
