<?xml version="1.0" encoding="iso-8859-1"?>
<!-- Generator: Adobe Illustrator 19.0.0, SVG Export Plug-In . SVG Version: 6.00 Build 0)  -->
<svg version="1.1" id="Layer_1" xmlns="http://www.w3.org/2000/svg" xmlns:xlink="http://www.w3.org/1999/xlink" x="0px" y="0px"
	 viewBox="0 0 512 512" style="enable-background:new 0 0 512 512;" xml:space="preserve">
<path style="fill:#3E3E42;" d="M428.646,354.212c-6.948,0-13.17-4.302-15.622-10.803l-56.164-148.885
	c-1.934-5.129-1.229-10.881,1.889-15.389c3.118-4.509,8.251-7.199,13.732-7.199h112.329c5.482,0,10.614,2.69,13.732,7.199
	c3.118,4.508,3.824,10.26,1.889,15.389l-56.164,148.885C441.816,349.91,435.594,354.212,428.646,354.212z M396.624,205.327
	l32.022,84.887l32.022-84.887H396.624z"/>
<path style="fill:#1D1D1F;" d="M498.543,179.136c-3.118-4.509-8.251-7.199-13.732-7.199h-56.164v33.391h32.022l-32.022,84.887
	v63.998c6.948,0,13.17-4.302,15.622-10.803l56.164-148.885C502.368,189.396,501.662,183.644,498.543,179.136z"/>
<path style="fill:#797882;" d="M83.352,354.212c-6.948,0-13.17-4.302-15.622-10.803L11.567,194.524
	c-1.934-5.129-1.229-10.881,1.889-15.389c3.118-4.509,8.251-7.199,13.732-7.199h112.329c5.482,0,10.614,2.69,13.732,7.199
	c3.118,4.508,3.824,10.26,1.889,15.389L98.973,343.409C96.522,349.91,90.3,354.212,83.352,354.212z M51.33,205.327l32.022,84.887
	l32.022-84.887H51.33z"/>
<path style="fill:#2D2E30;" d="M153.249,179.136c-3.118-4.509-8.251-7.199-13.732-7.199H83.354v33.391h32.022l-32.022,84.887v63.998
	c6.948,0,13.17-4.302,15.622-10.803l56.164-148.885C157.074,189.396,156.367,183.644,153.249,179.136z"/>
<path style="fill:#E61F00;" d="M291.355,296.394c-22.599,9.568-48.111,9.568-70.711,0L23.375,212.881h465.25L291.355,296.394z"/>
<path style="fill:#9D2217;" d="M256,212.881v90.689c12.028,0,24.055-2.392,35.355-7.176l197.27-83.514H256V212.881z"/>
<path style="fill:#F7DC4D;" d="M512,186.168c0,15.675-12.707,28.382-28.381,28.382H28.381C12.707,214.549,0,201.842,0,186.168l0,0
	c0-15.675,12.707-28.382,28.381-28.382H483.62C499.293,157.787,512,170.493,512,186.168L512,186.168z"/>
<path style="fill:#FF8600;" d="M483.618,157.787H256v56.763h227.619c15.675,0,28.381-12.706,28.381-28.382l0,0
	C512,170.493,499.293,157.787,483.618,157.787z"/>
<g>
</g>
<g>
</g>
<g>
</g>
<g>
</g>
<g>
</g>
<g>
</g>
<g>
</g>
<g>
</g>
<g>
</g>
<g>
</g>
<g>
</g>
<g>
</g>
<g>
</g>
<g>
</g>
<g>
</g>
</svg>
