<?xml version="1.0" encoding="iso-8859-1"?>
<!-- Generator: Adobe Illustrator 19.0.0, SVG Export Plug-In . SVG Version: 6.00 Build 0)  -->
<svg version="1.1" id="Layer_1" xmlns="http://www.w3.org/2000/svg" xmlns:xlink="http://www.w3.org/1999/xlink" x="0px" y="0px"
	 viewBox="0 0 512 512" style="enable-background:new 0 0 512 512;" xml:space="preserve">
<g>
	<g>
		<g>
			<path d="M260.267,477.867c9.429,0,17.067-7.646,17.067-17.067c0-9.429-7.637-17.067-17.067-17.067
				c-9.429,0-17.067,7.637-17.067,17.067C243.2,470.221,250.837,477.867,260.267,477.867z"/>
			<path d="M277.333,34.133H243.2c-4.71,0-8.533,3.814-8.533,8.533S238.49,51.2,243.2,51.2h34.133c4.71,0,8.533-3.814,8.533-8.533
				S282.044,34.133,277.333,34.133z"/>
			<circle cx="209.067" cy="42.667" r="8.533"/>
			<path d="M268.8,221.867v73.515c12.382-9.225,23.825-37.308,25.404-73.515H268.8z"/>
			<path d="M251.733,295.377v-73.515H226.33C227.908,258.078,239.351,286.153,251.733,295.377z"/>
			<path d="M268.8,131.29v73.515h25.404C292.625,168.589,281.182,140.514,268.8,131.29z"/>
			<path d="M251.732,204.8v-73.515c-12.382,9.225-23.825,37.308-25.404,73.515H251.732z"/>
			<path d="M345.167,204.8c-3.132-31.428-23.398-57.882-51.294-69.879c9.907,16.828,16.316,41.353,17.391,69.879H345.167z"/>
			<path d="M175.366,221.867c3.132,31.428,23.398,57.882,51.294,69.879c-9.907-16.828-16.316-41.353-17.391-69.879H175.366z"/>
			<path d="M354.133,0H166.4c-23.526,0-42.667,19.14-42.667,42.667V76.8c-4.71,0-8.533,3.814-8.533,8.533s3.823,8.533,8.533,8.533
				v25.6c-4.71,0-8.533,3.814-8.533,8.533s3.823,8.533,8.533,8.533V153.6c-4.71,0-8.533,3.814-8.533,8.533s3.823,8.533,8.533,8.533
				v247.467v51.2c0,23.526,19.14,42.667,42.667,42.667h187.733c23.526,0,42.667-19.14,42.667-42.667v-51.2V76.8V42.667
				C396.8,19.14,377.66,0,354.133,0z M379.733,469.333c0,14.114-11.486,25.6-25.6,25.6H166.4c-14.114,0-25.6-11.486-25.6-25.6
				v-42.667h238.933V469.333z M260.267,315.733c-56.465,0-102.4-45.935-102.4-102.4c0-56.465,45.935-102.4,102.4-102.4
				s102.4,45.935,102.4,102.4C362.667,269.798,316.732,315.733,260.267,315.733z M328.533,341.333c0,4.719-3.823,8.533-8.533,8.533
				H200.533c-4.71,0-8.533-3.814-8.533-8.533c0-4.719,3.823-8.533,8.533-8.533H320C324.71,332.8,328.533,336.614,328.533,341.333z
				 M166.4,366.933h187.733c4.71,0,8.533,3.814,8.533,8.533S358.844,384,354.133,384H166.4c-4.71,0-8.533-3.814-8.533-8.533
				S161.69,366.933,166.4,366.933z M379.733,68.267H140.8v-25.6c0-14.114,11.486-25.6,25.6-25.6h187.733
				c14.114,0,25.6,11.486,25.6,25.6V68.267z"/>
			<path d="M226.663,134.919c-27.896,11.998-48.162,38.451-51.294,69.879h33.903C210.348,176.271,216.756,151.747,226.663,134.919z"
				/>
			<path d="M311.265,221.867c-1.075,28.527-7.484,53.052-17.391,69.879c27.896-11.998,48.154-38.451,51.294-69.879H311.265z"/>
		</g>
	</g>
</g>
<g>
</g>
<g>
</g>
<g>
</g>
<g>
</g>
<g>
</g>
<g>
</g>
<g>
</g>
<g>
</g>
<g>
</g>
<g>
</g>
<g>
</g>
<g>
</g>
<g>
</g>
<g>
</g>
<g>
</g>
</svg>
