<?xml version="1.0" encoding="iso-8859-1"?>
<!-- Generator: Adobe Illustrator 19.0.0, SVG Export Plug-In . SVG Version: 6.00 Build 0)  -->
<svg version="1.1" id="Layer_1" xmlns="http://www.w3.org/2000/svg" xmlns:xlink="http://www.w3.org/1999/xlink" x="0px" y="0px"
	 viewBox="0 0 510.111 510.111" style="enable-background:new 0 0 510.111 510.111;" xml:space="preserve">
<g>
	<g>
		<g>
			<path d="M143.478,14.569c3.337-3.337,3.337-8.73,0-12.066c-3.336-3.336-8.73-3.336-12.066,0
				c-39.927,39.927-39.927,104.892,0,144.819c1.664,1.664,3.849,2.5,6.033,2.5c2.185,0,4.369-0.836,6.033-2.5
				c3.337-3.337,3.337-8.738,0-12.066C110.207,101.976,110.207,47.841,143.478,14.569z"/>
			<path d="M378.699,2.502c-3.337-3.336-8.73-3.336-12.066,0c-3.336,3.337-3.336,8.73,0,12.066
				c33.271,33.271,33.271,87.407,0,120.687c-3.336,3.328-3.336,8.73,0,12.066c1.664,1.664,3.849,2.5,6.033,2.5
				c2.185,0,4.369-0.836,6.033-2.5C418.626,107.394,418.626,42.43,378.699,2.502z"/>
			<path d="M176.191,26.636c-3.336-3.336-8.738-3.336-12.066,0c-26.615,26.615-26.615,69.931,0,96.546
				c1.664,1.673,3.849,2.5,6.033,2.5c2.185,0,4.369-0.828,6.033-2.5c3.337-3.328,3.337-8.73,0-12.066
				c-19.959-19.959-19.959-52.446,0-72.414C179.527,35.366,179.527,29.973,176.191,26.636z"/>
			<path d="M345.986,26.636c-3.337-3.336-8.73-3.336-12.066,0c-3.337,3.337-3.337,8.73,0,12.066
				c19.959,19.968,19.959,52.454,0,72.414c-3.337,3.336-3.337,8.738,0,12.066c1.664,1.673,3.849,2.5,6.033,2.5
				s4.369-0.828,6.033-2.5C372.602,96.567,372.602,53.252,345.986,26.636z"/>
			<path d="M255.049,6.644c-37.641,0-68.267,30.626-68.267,68.267c0,25.037,13.594,46.908,33.741,58.795l-2.176,43.605h73.404
				l-2.176-43.605c20.147-11.887,33.741-33.758,33.741-58.795C323.316,37.271,292.69,6.644,255.049,6.644z M237.983,74.911
				c0,4.719-3.823,8.533-8.533,8.533c-4.71,0-8.533-3.814-8.533-8.533c0-18.825,15.309-34.133,34.133-34.133
				c4.71,0,8.533,3.814,8.533,8.533s-3.823,8.533-8.533,8.533C245.637,57.844,237.983,65.499,237.983,74.911z M255.049,109.044
				c-4.71,0-8.533-3.814-8.533-8.533s3.823-8.533,8.533-8.533c9.412,0,17.067-7.654,17.067-17.067c0-4.719,3.823-8.533,8.533-8.533
				c4.71,0,8.533,3.814,8.533,8.533C289.183,93.736,273.874,109.044,255.049,109.044z"/>
			<path d="M314.783,458.911h-8.951l-13.227-264.533h-75.11l-9.813,196.267h47.369c4.71,0,8.533,3.814,8.533,8.533
				c0,4.719-3.823,8.533-8.533,8.533h-48.222l-0.853,17.067h32.009c4.71,0,8.533,3.814,8.533,8.533s-3.823,8.533-8.533,8.533
				h-32.862l-0.853,17.067h-8.951c-4.71,0-8.533,3.814-8.533,8.533v34.133c0,4.719,3.823,8.533,8.533,8.533h119.467
				c4.71,0,8.533-3.814,8.533-8.533v-34.133C323.316,462.726,319.493,458.911,314.783,458.911z M306.249,493.044h-102.4v-17.067
				h8.533h85.333h8.533V493.044z"/>
		</g>
	</g>
</g>
<g>
</g>
<g>
</g>
<g>
</g>
<g>
</g>
<g>
</g>
<g>
</g>
<g>
</g>
<g>
</g>
<g>
</g>
<g>
</g>
<g>
</g>
<g>
</g>
<g>
</g>
<g>
</g>
<g>
</g>
</svg>
