<?xml version="1.0" encoding="iso-8859-1"?>
<!-- Generator: Adobe Illustrator 19.0.0, SVG Export Plug-In . SVG Version: 6.00 Build 0)  -->
<svg version="1.1" id="Layer_1" xmlns="http://www.w3.org/2000/svg" xmlns:xlink="http://www.w3.org/1999/xlink" x="0px" y="0px"
	 viewBox="0 0 389.698 389.698" style="enable-background:new 0 0 389.698 389.698;" xml:space="preserve">
<path style="fill:#56ACE0;" d="M368.549,296.538c0-14.61-11.895-26.57-26.57-26.57H48.226c-14.61,0-26.57,11.895-26.57,26.57
	c0,14.675,11.895,26.57,26.57,26.57h293.236C356.59,323.108,368.549,311.148,368.549,296.538z"/>
<g>
	<polygon style="fill:#FFC10D;" points="176.162,210.364 312.695,210.364 176.162,104.667 	"/>
	<polygon style="fill:#FFC10D;" points="197.301,93.289 333.317,198.986 333.317,93.289 	"/>
</g>
<rect x="63.935" y="93.289" style="fill:#56ACE0;" width="52.558" height="117.075"/>
<g>
	<path style="fill:#194F82;" d="M165.301,232.021h178.877c5.947,0,10.861-4.848,10.861-10.861V82.429
		c0-5.947-4.848-10.861-10.861-10.861H165.301c-5.947,0-10.861,4.848-10.861,10.861V221.16
		C154.44,227.172,159.354,232.021,165.301,232.021z M333.317,93.289v105.697L197.301,93.289H333.317z M176.162,104.667
		l136.016,105.697H176.162V104.667z"/>
	<path style="fill:#194F82;" d="M53.139,232.021h74.279c5.947,0,10.861-4.848,10.861-10.861V82.429
		c0-5.947-4.848-10.861-10.861-10.861h-26.57V56.376c0-5.947-4.848-10.861-10.861-10.861s-10.861,4.848-10.861,10.861v15.192h-26.57
		c-5.947,0-10.861,4.848-10.861,10.861V221.16C42.279,227.172,47.127,232.021,53.139,232.021z M63.935,93.289h52.558v117.075H63.935
		C63.935,210.364,63.935,93.289,63.935,93.289z"/>
	<path style="fill:#194F82;" d="M341.98,247.73H48.226C21.657,247.73,0,269.386,0,295.956c0,26.57,21.657,48.226,48.226,48.226
		h293.236c26.57,0,48.226-21.657,48.226-48.226C390.206,269.451,368.549,247.73,341.98,247.73z M341.463,323.108H48.226
		c-14.61,0-26.57-11.895-26.57-26.57c0-14.675,11.895-26.57,26.57-26.57h293.236c14.61,0,26.57,11.895,26.57,26.57
		C368.032,311.213,356.073,323.108,341.463,323.108z"/>
	<path style="fill:#194F82;" d="M76.154,285.16H65.293c-5.947,0-10.861,4.848-10.861,10.861c0,5.947,4.848,10.861,10.861,10.861
		h10.861c5.947,0,10.861-4.848,10.861-10.861S82.101,285.16,76.154,285.16z"/>
	<path style="fill:#194F82;" d="M138.473,285.16h-10.861c-5.947,0-10.861,4.848-10.861,10.861c0,5.947,4.848,10.861,10.861,10.861
		h10.861c5.947,0,10.861-4.848,10.861-10.861S144.42,285.16,138.473,285.16z"/>
	<path style="fill:#194F82;" d="M200.275,285.16h-10.861c-5.947,0-10.861,4.848-10.861,10.861c0,5.947,4.848,10.861,10.861,10.861
		h10.861c5.947,0,10.861-4.848,10.861-10.861C211.071,290.009,206.222,285.16,200.275,285.16z"/>
	<path style="fill:#194F82;" d="M262.012,285.16h-10.861c-5.947,0-10.861,4.848-10.861,10.861c0,5.947,4.848,10.861,10.861,10.861
		h10.861c6.529,0,10.861-4.848,10.861-10.861S268.024,285.16,262.012,285.16z"/>
	<path style="fill:#194F82;" d="M324.396,285.16h-10.861c-5.947,0-10.861,4.848-10.861,10.861c0,5.947,4.848,10.861,10.861,10.861
		h10.861c5.947,0,10.861-4.848,10.861-10.861C335.192,290.009,330.343,285.16,324.396,285.16z"/>
</g>
<g>
</g>
<g>
</g>
<g>
</g>
<g>
</g>
<g>
</g>
<g>
</g>
<g>
</g>
<g>
</g>
<g>
</g>
<g>
</g>
<g>
</g>
<g>
</g>
<g>
</g>
<g>
</g>
<g>
</g>
</svg>
