<?xml version="1.0" encoding="iso-8859-1"?>
<!-- Generator: Adobe Illustrator 19.0.0, SVG Export Plug-In . SVG Version: 6.00 Build 0)  -->
<svg version="1.1" id="Layer_1" xmlns="http://www.w3.org/2000/svg" xmlns:xlink="http://www.w3.org/1999/xlink" x="0px" y="0px"
	 viewBox="0 0 472.615 472.615" style="enable-background:new 0 0 472.615 472.615;" xml:space="preserve">
<g>
	<g>
		<path d="M129.111,0L0,0.537c31.29,66.202,62.579,132.406,93.868,198.608c24.228-32.005,58.6-55.57,98.262-65.808
			C171.123,88.892,150.117,44.445,129.111,0z"/>
	</g>
</g>
<g>
	<g>
		<path d="M343.505,0c-21.004,44.438-42.007,88.877-63.01,133.318c39.665,10.218,74.045,33.764,98.287,65.752
			c31.278-66.178,62.555-132.358,93.834-198.533L343.505,0z"/>
	</g>
</g>
<g>
	<g>
		<path d="M236.349,147.217c-88.405,0-160.07,72.841-160.07,162.699c0,89.856,71.665,162.7,160.07,162.7
			s160.071-72.844,160.071-162.7C396.42,220.058,324.754,147.217,236.349,147.217z M291.176,391.461l-54.827-26.43l-54.826,26.43
			l7.788-61.165l-41.674-44.834l59.641-11.372l29.071-54.14l29.072,54.14l59.64,11.372l-41.673,44.834L291.176,391.461z"/>
	</g>
</g>
<g>
</g>
<g>
</g>
<g>
</g>
<g>
</g>
<g>
</g>
<g>
</g>
<g>
</g>
<g>
</g>
<g>
</g>
<g>
</g>
<g>
</g>
<g>
</g>
<g>
</g>
<g>
</g>
<g>
</g>
</svg>
