<?xml version="1.0" encoding="iso-8859-1"?>
<!-- Generator: Adobe Illustrator 17.1.0, SVG Export Plug-In . SVG Version: 6.00 Build 0)  -->
<!DOCTYPE svg PUBLIC "-//W3C//DTD SVG 1.1//EN" "http://www.w3.org/Graphics/SVG/1.1/DTD/svg11.dtd">
<svg version="1.1" id="Capa_1" xmlns="http://www.w3.org/2000/svg" xmlns:xlink="http://www.w3.org/1999/xlink" x="0px" y="0px"
	 viewBox="0 0 417.281 417.281" style="enable-background:new 0 0 417.281 417.281;" xml:space="preserve">
<g>
	<path d="M282.929,30.771C263.086,10.928,236.703,0,208.641,0s-54.445,10.928-74.288,30.771
		c-40.963,40.963-40.963,107.614,0,148.577c19.843,19.843,46.226,30.771,74.288,30.771s54.445-10.928,74.288-30.771
		C323.892,138.385,323.892,71.734,282.929,30.771z M255.975,24.966c7.341,0,13.293,5.951,13.293,13.293
		c0,7.341-5.951,13.293-13.293,13.293c-7.342,0-13.293-5.951-13.293-13.293C242.682,30.917,248.633,24.966,255.975,24.966z
		 M211.349,24.966c7.342,0,13.293,5.951,13.293,13.293c0,7.341-5.951,13.293-13.293,13.293c-7.341,0-13.293-5.951-13.293-13.293
		C198.056,30.917,204.008,24.966,211.349,24.966z M166.724,24.966c7.341,0,13.293,5.951,13.293,13.293
		c0,7.341-5.952,13.293-13.293,13.293c-7.342,0-13.293-5.951-13.293-13.293C153.431,30.917,159.382,24.966,166.724,24.966z
		 M132.365,71.76c0-7.342,5.951-13.293,13.293-13.293s13.293,5.951,13.293,13.293c0,7.341-5.951,13.293-13.293,13.293
		S132.365,79.102,132.365,71.76z M166.724,119.506c-7.342,0-13.293-5.951-13.293-13.293s5.951-13.293,13.293-13.293
		c7.341,0,13.293,5.952,13.293,13.293S174.065,119.506,166.724,119.506z M187.646,85.053c-7.341,0-13.293-5.952-13.293-13.293
		c0-7.342,5.951-13.293,13.293-13.293c7.342,0,13.293,5.951,13.293,13.293C200.939,79.102,194.988,85.053,187.646,85.053z
		 M211.349,119.506c-7.341,0-13.293-5.951-13.293-13.293s5.951-13.293,13.293-13.293c7.342,0,13.293,5.952,13.293,13.293
		S218.691,119.506,211.349,119.506z M229.635,85.053c-7.341,0-13.293-5.952-13.293-13.293c0-7.342,5.951-13.293,13.293-13.293
		c7.342,0,13.293,5.951,13.293,13.293C242.928,79.102,236.976,85.053,229.635,85.053z M255.975,119.506
		c-7.342,0-13.293-5.951-13.293-13.293s5.951-13.293,13.293-13.293c7.341,0,13.293,5.952,13.293,13.293
		S263.316,119.506,255.975,119.506z M271.623,85.053c-7.341,0-13.293-5.952-13.293-13.293c0-7.342,5.951-13.293,13.293-13.293
		s13.293,5.951,13.293,13.293C284.916,79.102,278.965,85.053,271.623,85.053z"/>
	<path d="M247.136,219.792c-13.415,5.833-25.99,8.669-38.441,8.669c-12.763,0-25.669-2.972-39.455-9.086l-0.287-0.117
		c-2.661-0.987-5.482-0.316-7.309,1.696c-2.541,2.801-2.503,7.484-2.255,10.025l16.361,125.643
		c1.178,11.681,9.6,21.656,20.391,25.509v22.649c0,6.903,5.597,12.5,12.5,12.5s12.5-5.597,12.5-12.5v-22.647
		c10.793-3.852,19.218-13.828,20.396-25.511l16.343-125.483l0.019-0.159c0.241-2.466,0.266-7.023-2.28-9.83
		C253.535,218.855,250.232,218.276,247.136,219.792z M208.751,304.202c-8.776,0-15.891-11.491-15.891-25.665
		c0-14.175,7.115-25.665,15.891-25.665s15.891,11.491,15.891,25.665C224.642,292.711,217.527,304.202,208.751,304.202z"/>
</g>
<g>
</g>
<g>
</g>
<g>
</g>
<g>
</g>
<g>
</g>
<g>
</g>
<g>
</g>
<g>
</g>
<g>
</g>
<g>
</g>
<g>
</g>
<g>
</g>
<g>
</g>
<g>
</g>
<g>
</g>
</svg>
