<?xml version="1.0" encoding="iso-8859-1"?>
<!-- Generator: Adobe Illustrator 19.0.0, SVG Export Plug-In . SVG Version: 6.00 Build 0)  -->
<svg version="1.1" id="Layer_1" xmlns="http://www.w3.org/2000/svg" xmlns:xlink="http://www.w3.org/1999/xlink" x="0px" y="0px"
	 viewBox="0 0 485 485" style="enable-background:new 0 0 485 485;" xml:space="preserve">
<path d="M485,86.282v-30H138.088v30h158.456v40H93.875L79.151,82.42H0v144.047h165.408v103.708h50v68.543h-55v30h261.049
	c35.038,0,63.543-28.505,63.543-63.543h-30c0,18.496-15.047,33.543-33.543,33.543h-35v-68.543H485V211.467
	c0-46.971-38.214-85.186-85.186-85.186h-73.271v-40H485z M356.457,398.718H245.408v-68.543h111.049V398.718z M195.408,300.175
	V196.467H30V112.42h27.577l14.724,43.862h224.243v103.894H455v40H195.408z M455,211.467v18.708H326.544v-73.894h73.271
	C430.244,156.282,455,181.038,455,211.467z"/>
<g>
</g>
<g>
</g>
<g>
</g>
<g>
</g>
<g>
</g>
<g>
</g>
<g>
</g>
<g>
</g>
<g>
</g>
<g>
</g>
<g>
</g>
<g>
</g>
<g>
</g>
<g>
</g>
<g>
</g>
</svg>
