<?xml version="1.0" encoding="iso-8859-1"?>
<!-- Generator: Adobe Illustrator 19.0.0, SVG Export Plug-In . SVG Version: 6.00 Build 0)  -->
<svg version="1.1" id="Layer_1" xmlns="http://www.w3.org/2000/svg" xmlns:xlink="http://www.w3.org/1999/xlink" x="0px" y="0px"
	 viewBox="0 0 512 512" style="enable-background:new 0 0 512 512;" xml:space="preserve">
<g>
	<g>
		<rect x="191.739" y="456.62" width="15.673" height="15.673"/>
	</g>
</g>
<g>
	<g>
		<rect x="223.086" y="456.62" width="15.674" height="15.673"/>
	</g>
</g>
<g>
	<g>
		<path d="M375.629,149.239l-1.778-3.978c-2.568-5.743-3.87-11.843-3.87-18.131V23.056C369.981,10.342,359.63,0,346.906,0
			c-12.724,0-23.075,10.342-23.075,23.056v104.075c0,6.288-1.302,12.388-3.87,18.131l-1.778,3.977
			c-3.474,7.767-5.236,16.02-5.236,24.53v39.913h-13.584v-15.673c0-46.381-37.733-84.114-84.114-84.114
			c-46.381,0-84.114,37.733-84.114,84.114v205.845c0,15.845,12.891,28.735,28.735,28.735h7.837V512h95.086v-79.412h7.837
			c15.844,0,28.735-12.89,28.735-28.735V265.927h13.584v16.752c0,18.707,15.234,33.926,33.959,33.926s33.959-15.219,33.959-33.926
			V173.768C380.865,165.257,379.105,157.004,375.629,149.239z M247.118,496.327H183.38v-63.739h63.739V496.327z M283.69,403.853
			c0,7.202-5.859,13.061-13.061,13.061H159.869c-7.202,0-13.061-5.859-13.061-13.061V198.008c0-37.739,30.702-68.441,68.441-68.441
			s68.441,30.702,68.441,68.441V403.853z M312.947,250.253h-13.584v-20.898h13.584V250.253z M365.192,282.678
			c0,10.064-8.203,18.252-18.286,18.252s-18.286-8.188-18.286-18.252V173.768c0-6.29,1.302-12.389,3.87-18.131l1.778-3.978
			c3.474-7.769,5.236-16.021,5.236-24.529V23.056c0-4.071,3.321-7.382,7.401-7.382s7.401,3.311,7.401,7.382v104.075
			c0,8.508,1.762,16.761,5.236,24.529l1.779,3.979c2.567,5.741,3.869,11.841,3.869,18.13V282.678z"/>
	</g>
</g>
<g>
	<g>
		<path d="M215.249,183.902c-16.997,0-30.824,13.828-30.824,30.825v117.029c0,16.996,13.827,30.824,30.824,30.824
			c16.997,0,30.825-13.828,30.825-30.824V214.727C246.073,197.73,232.246,183.902,215.249,183.902z M230.4,331.755
			c0,8.354-6.797,15.151-15.151,15.151c-8.354,0-15.151-6.797-15.151-15.151V214.727c0-8.354,6.797-15.151,15.151-15.151
			c8.354,0,15.151,6.797,15.151,15.151V331.755z"/>
	</g>
</g>
<g>
</g>
<g>
</g>
<g>
</g>
<g>
</g>
<g>
</g>
<g>
</g>
<g>
</g>
<g>
</g>
<g>
</g>
<g>
</g>
<g>
</g>
<g>
</g>
<g>
</g>
<g>
</g>
<g>
</g>
</svg>
