<?xml version="1.0" encoding="iso-8859-1"?>
<!-- Generator: Adobe Illustrator 19.0.0, SVG Export Plug-In . SVG Version: 6.00 Build 0)  -->
<svg version="1.1" id="Layer_1" xmlns="http://www.w3.org/2000/svg" xmlns:xlink="http://www.w3.org/1999/xlink" x="0px" y="0px"
	 viewBox="0 0 512 512" style="enable-background:new 0 0 512 512;" xml:space="preserve">
<g>
	<g>
		<path d="M0,103.972v57.469h18.016l23.455,64.656c4.11,11.326,14.965,18.936,27.014,18.936h92.827v115.099
			c-5.24-4.053-10.26-8.461-15.021-13.222c-24.175-24.174-39.865-56.068-44.182-89.808l-15.547,1.99
			c4.756,37.163,22.033,72.287,48.646,98.901c32.266,32.266,75.166,50.037,120.794,50.037c85.727,0,158.57-64.029,169.44-148.938
			l-15.547-1.991c-5.388,42.078-27.538,78.508-59.204,102.926V245.033h92.827c12.048,0,22.904-7.61,27.013-18.936l23.455-64.656H512
			v-57.469H0z M335.015,370.655c-23.27,13.809-50.347,21.7-79.015,21.7c-28.249,0-55.343-7.505-79.015-21.564V245.033h158.03
			V370.655z M455.794,220.752c-1.867,5.148-6.802,8.607-12.279,8.607H68.485c-5.476,0-10.411-3.459-12.279-8.607L34.69,161.441
			H477.31L455.794,220.752z M496.327,145.767H15.673v-26.122h480.653V145.767z"/>
	</g>
</g>
<g>
	<g>
		<path d="M256,253.388c-36.01,0-65.306,29.296-65.306,65.306C190.694,354.704,219.99,384,256,384s65.306-29.296,65.306-65.306
			C321.306,282.684,292.01,253.388,256,253.388z M256,368.327c-27.367,0-49.633-22.265-49.633-49.633
			c0-27.368,22.266-49.633,49.633-49.633c27.367,0,49.633,22.265,49.633,49.633C305.633,346.062,283.367,368.327,256,368.327z"/>
	</g>
</g>
<g>
	<g>
		<path d="M256,295.184c-12.963,0-23.51,10.547-23.51,23.51c0,12.963,10.547,23.51,23.51,23.51c12.963,0,23.51-10.547,23.51-23.51
			C279.51,305.731,268.963,295.184,256,295.184z M256,326.531c-4.322,0-7.837-3.516-7.837-7.837c0-4.321,3.515-7.837,7.837-7.837
			c4.322,0,7.837,3.516,7.837,7.837C263.837,323.015,260.322,326.531,256,326.531z"/>
	</g>
</g>
<g>
	<g>
		<circle cx="256" cy="355.265" r="7.837"/>
	</g>
</g>
<g>
	<g>
		<circle cx="256" cy="282.122" r="7.837"/>
	</g>
</g>
<g>
	<g>
		<circle cx="230.139" cy="344.555" r="7.837"/>
	</g>
</g>
<g>
	<g>
		<circle cx="281.861" cy="292.833" r="7.837"/>
	</g>
</g>
<g>
	<g>
		<circle cx="219.429" cy="318.694" r="7.837"/>
	</g>
</g>
<g>
	<g>
		<circle cx="292.571" cy="318.694" r="7.837"/>
	</g>
</g>
<g>
	<g>
		<circle cx="230.139" cy="292.833" r="7.837"/>
	</g>
</g>
<g>
	<g>
		<circle cx="281.861" cy="344.555" r="7.837"/>
	</g>
</g>
<g>
</g>
<g>
</g>
<g>
</g>
<g>
</g>
<g>
</g>
<g>
</g>
<g>
</g>
<g>
</g>
<g>
</g>
<g>
</g>
<g>
</g>
<g>
</g>
<g>
</g>
<g>
</g>
<g>
</g>
</svg>
