<?xml version="1.0" encoding="iso-8859-1"?>
<!-- Generator: Adobe Illustrator 19.0.0, SVG Export Plug-In . SVG Version: 6.00 Build 0)  -->
<svg version="1.1" id="Layer_1" xmlns="http://www.w3.org/2000/svg" xmlns:xlink="http://www.w3.org/1999/xlink" x="0px" y="0px"
	 viewBox="0 0 512 512" style="enable-background:new 0 0 512 512;" xml:space="preserve">
<g>
	<path style="fill:#9A8984;" d="M256,320c-29.056,0-54.468-19.738-61.781-47.991L190.071,256H321.92l-4.139,16.009
		C310.468,300.271,285.056,320,256,320z"/>
	<path style="fill:#9A8984;" d="M256,499.2C121.899,499.2,12.8,390.101,12.8,256S121.899,12.8,256,12.8S499.2,121.899,499.2,256
		S390.101,499.2,256,499.2z M256,64C150.135,64,64,150.127,64,256s86.135,192,192,192s192-86.127,192-192S361.865,64,256,64z"/>
</g>
<g>
	<path style="fill:#573A32;" d="M256,0C114.842,0,0,114.842,0,256s114.842,256,256,256s256-114.842,256-256S397.158,0,256,0z
		 M256,486.4C128.751,486.4,25.6,383.249,25.6,256S128.751,25.6,256,25.6S486.4,128.751,486.4,256S383.249,486.4,256,486.4z"/>
	<path style="fill:#573A32;" d="M256,51.2C143.07,51.2,51.2,143.07,51.2,256S143.07,460.8,256,460.8S460.8,368.93,460.8,256
		S368.93,51.2,256,51.2z M256,76.8c94.652,0,171.964,73.429,178.551,166.4H77.449C84.036,150.229,161.357,76.8,256,76.8z
		 M243.2,434.551c-88.721-6.281-159.471-77.03-165.751-165.751h103.049c5.427,32.06,30.643,57.276,62.703,62.703V434.551z
		 M206.609,268.8h98.782c-5.709,22.042-25.557,38.4-49.391,38.4C232.166,307.2,212.318,290.842,206.609,268.8z M268.8,434.551
		V331.503c32.06-5.427,57.276-30.643,62.703-62.703h103.049C428.271,357.521,357.521,428.271,268.8,434.551z"/>
</g>
<g>
</g>
<g>
</g>
<g>
</g>
<g>
</g>
<g>
</g>
<g>
</g>
<g>
</g>
<g>
</g>
<g>
</g>
<g>
</g>
<g>
</g>
<g>
</g>
<g>
</g>
<g>
</g>
<g>
</g>
</svg>
