<?xml version="1.0" encoding="iso-8859-1"?>
<!-- Generator: Adobe Illustrator 19.0.0, SVG Export Plug-In . SVG Version: 6.00 Build 0)  -->
<svg version="1.1" id="Layer_1" xmlns="http://www.w3.org/2000/svg" xmlns:xlink="http://www.w3.org/1999/xlink" x="0px" y="0px"
	 viewBox="0 0 512 512" style="enable-background:new 0 0 512 512;" xml:space="preserve">
<path style="fill:#CCD8E5;" d="M503.667,66.8v316.343c0,17.909-14.509,32.429-32.418,32.429H40.756
	c-17.909,0-32.418-14.52-32.418-32.429V66.8c0-17.909,14.509-32.429,32.418-32.429h430.493
	C489.158,34.372,503.667,48.892,503.667,66.8z"/>
<path style="fill:#DFEAF4;" d="M503.667,66.8v316.343c0,17.909-14.509,32.429-32.418,32.429H183.347l23.752-57.925L339.657,34.372
	h131.592C489.158,34.372,503.667,48.892,503.667,66.8z"/>
<path style="fill:#B8E9F2;" d="M503.669,66.8v290.847H8.341V66.8c0-17.909,14.509-32.429,32.418-32.429h430.493
	C489.16,34.372,503.669,48.892,503.669,66.8z"/>
<polygon style="fill:#E8C262;" points="503.669,211.557 503.669,250.44 325.562,250.44 325.562,359.535 286.678,359.535 
	286.678,250.44 8.33,250.44 8.33,211.557 105.049,211.557 105.049,34.372 143.932,34.372 143.932,211.557 "/>
<polygon style="fill:#CCD8E5;" points="343.457,480.173 168.549,480.173 181.036,450.956 196.167,415.572 315.839,415.572 
	330.97,450.956 "/>
<polygon style="fill:#BAC6D1;" points="330.97,450.956 181.036,450.956 196.167,415.572 315.839,415.572 "/>
<path style="fill:#93C93F;" d="M105.049,34.372v177.185H8.341V66.8c0-17.909,14.509-32.429,32.418-32.429
	C40.759,34.372,105.049,34.372,105.049,34.372z"/>
<rect x="8.334" y="250.441" style="fill:#9BB9D3;" width="184.484" height="109.095"/>
<rect x="143.935" y="127.693" style="fill:#A7B7C6;" width="359.737" height="83.866"/>
<rect x="325.564" y="250.441" style="fill:#A0D14A;" width="178.107" height="109.095"/>
<rect x="192.816" y="250.441" style="fill:#B8E9F2;" width="93.864" height="107.207"/>
<path style="fill:#F75757;" d="M446.624,127.46c-2.437-84.569-129.948-84.569-132.384,0c-0.033,1.163-0.05,2.33-0.05,3.501
	c0,46.831,26.986,87.338,66.243,106.883c39.257-19.545,66.243-60.052,66.243-106.883C446.674,129.79,446.657,128.622,446.624,127.46
	z"/>
<circle style="fill:#667E91;" cx="380.434" cy="131.003" r="35.366"/>
<path style="fill:#516877;" d="M366.173,131.009c0-15.857,10.435-29.275,24.812-33.764c-3.333-1.041-6.878-1.603-10.554-1.603
	c-19.532,0-35.366,15.834-35.366,35.366s15.834,35.366,35.366,35.366c3.676,0,7.221-0.562,10.554-1.603
	C376.609,160.282,366.173,146.864,366.173,131.009z"/>
<path d="M512,65.52c0-22.472-18.283-40.754-40.754-40.754H40.754C18.283,24.766,0,43.049,0,65.52v59.227
	c0,4.602,3.731,8.332,8.332,8.332s8.332-3.731,8.332-8.332V65.52c0-13.284,10.807-24.09,24.09-24.09h55.963v160.518H16.664v-49.426
	c0-4.602-3.731-8.332-8.332-8.332S0,147.921,0,152.522V381.87c0,22.472,18.283,40.754,40.754,40.754H183.54l-20.494,47.945h-40.034
	c-4.602,0-8.332,3.731-8.332,8.332c0,4.602,3.731,8.332,8.332,8.332h265.975c4.602,0,8.332-3.731,8.332-8.332
	c0-4.602-3.731-8.332-8.332-8.332h-40.034l-20.494-47.945h142.786c22.472,0,40.754-18.282,40.754-40.754V65.52H512z
	 M322.521,129.684c0-1.09,0.016-2.176,0.047-3.261c0.495-17.212,6.88-31.557,18.464-41.483c10.423-8.932,24.415-13.851,39.4-13.851
	c14.986,0,28.977,4.919,39.4,13.851c11.583,9.926,17.967,24.27,18.464,41.48c0.031,1.084,0.047,2.172,0.047,3.263
	c0,41.005-22.08,77.982-57.91,97.49C344.601,207.666,322.521,170.689,322.521,129.684z M435.316,197.812
	c11.982-18.942,18.701-40.647,19.583-63.065h40.436v67.201h-49.237c-4.602,0-8.332,3.731-8.332,8.332
	c0,4.602,3.731,8.332,8.332,8.332h49.237v22.219H390.118C408.458,230.454,424.001,215.701,435.316,197.812z M495.336,65.52v52.562
	h-40.96c-2.201-18.594-10.303-34.314-23.7-45.796c-13.441-11.518-31.285-17.862-50.245-17.862s-36.802,6.344-50.244,17.862
	c-13.398,11.482-21.499,27.202-23.7,45.796h-85.345V41.431h250.102C484.528,41.431,495.336,52.238,495.336,65.52z M152.265,41.431
	h52.214v76.651h-52.214L152.265,41.431L152.265,41.431z M105.049,218.613c4.602,0,8.332-3.731,8.332-8.332V41.431H135.6v168.85
	c0,4.602,3.731,8.332,8.332,8.332h47.215c4.602,0,8.332-3.731,8.332-8.332c0-4.602-3.731-8.332-8.332-8.332h-38.883v-67.202
	l153.7,0.001c0.882,22.417,7.601,44.122,19.583,63.065c0.885,1.4,1.803,2.775,2.74,4.136H224.474c-4.602,0-8.332,3.731-8.332,8.332
	c0,4.602,3.731,8.332,8.332,8.332h117.471c8.471,8.721,18.167,16.202,28.8,22.219h-45.182c-4.602,0-8.332,3.731-8.332,8.332v100.763
	h-22.219V249.164c0-4.602-3.731-8.332-8.332-8.332H16.664v-22.219L105.049,218.613L105.049,218.613z M201.146,349.932v-92.437h77.2
	v92.437H201.146z M16.664,349.932v-51.885h49.507v51.885H16.664z M82.836,298.047h79.984c4.602,0,8.332-3.731,8.332-8.332
	c0-4.602-3.731-8.332-8.332-8.332H16.664v-23.887h167.818v92.437H82.836V298.047z M330.83,470.568H181.17l14.238-33.31h121.184
	L330.83,470.568z M495.336,381.87c0,13.284-10.807,24.09-24.09,24.09H40.754c-13.284,0-24.09-10.807-24.09-24.09v-15.273h398.688
	h0.002c4.602,0,8.332-3.731,8.332-8.332s-3.731-8.332-8.332-8.332h-0.002h-81.457v-92.437h161.441v92.437h-52.208h-0.002
	c-4.602,0-8.332,3.731-8.332,8.332s3.731,8.332,8.332,8.332h0.002h52.208V381.87z"/>
<path d="M424.129,129.732c0-24.095-19.604-43.698-43.698-43.698c-24.095,0-43.698,19.603-43.698,43.698s19.603,43.698,43.698,43.698
	C404.527,173.43,424.129,153.828,424.129,129.732z M353.397,129.732c0-14.907,12.127-27.034,27.034-27.034
	c14.907,0,27.034,12.127,27.034,27.034s-12.128,27.034-27.034,27.034C365.526,156.766,353.397,144.639,353.397,129.732z"/>
<path d="M253.972,376.222c-3.517,0.879-6.116,4.048-6.291,7.67c-0.364,7.534,9.106,11.629,14.33,6.172
	c2.663-2.782,3.078-7.177,0.913-10.385C261.01,376.773,257.341,375.38,253.972,376.222z"/>
<g>
</g>
<g>
</g>
<g>
</g>
<g>
</g>
<g>
</g>
<g>
</g>
<g>
</g>
<g>
</g>
<g>
</g>
<g>
</g>
<g>
</g>
<g>
</g>
<g>
</g>
<g>
</g>
<g>
</g>
</svg>
