<?xml version="1.0" encoding="iso-8859-1"?>
<!-- Generator: Adobe Illustrator 19.0.0, SVG Export Plug-In . SVG Version: 6.00 Build 0)  -->
<svg version="1.1" id="Layer_1" xmlns="http://www.w3.org/2000/svg" xmlns:xlink="http://www.w3.org/1999/xlink" x="0px" y="0px"
	 viewBox="0 0 512 512" style="enable-background:new 0 0 512 512;" xml:space="preserve">
<path style="fill:#DD512A;" d="M352.902,34.435c-36.44,0-70.05,12.322-96.902,33.008c12.249,9.436,23.09,20.609,32.149,33.154
	c18.372-12.839,40.691-20.399,64.754-20.399c62.494,0,113.337,50.844,113.337,113.34c0,62.494-50.842,113.337-113.337,113.337
	c-24.063,0-46.382-7.561-64.754-20.399c-12.935-9.041-23.925-20.689-32.149-34.205c-10.427-17.139-16.436-37.247-16.436-58.733
	s6.008-41.595,16.436-58.734c-8.223-13.516-19.211-25.164-32.149-34.206c-18.896,26.165-30.048,58.272-30.048,92.941
	c0,34.667,11.154,66.775,30.048,92.938c9.059,12.545,19.902,23.718,32.149,33.152c21.129,16.274,46.44,27.364,74.022,31.354v29.74
	h-28.201c-12.636,0-22.881,10.244-22.881,22.881c0,12.636,10.244,22.881,22.881,22.881h28.201v28.201
	c0,12.636,10.244,22.881,22.881,22.881s22.881-10.244,22.881-22.881v-28.201h28.201c12.636,0,22.881-10.244,22.881-22.881
	s-10.244-22.881-22.881-22.881h-28.201v-29.74C452.707,339.854,512,273.495,512,193.536C512,105.807,440.629,34.435,352.902,34.435z
	"/>
<path style="fill:#D8143A;" d="M223.851,286.474c-18.37,12.838-40.688,20.399-64.75,20.399c-62.496,0-113.34-50.842-113.34-113.337
	c0-62.496,50.844-113.34,113.34-113.34c24.063,0,46.38,7.56,64.75,20.399c12.938,9.041,23.927,20.689,32.149,34.206
	c10.427,17.139,16.436,37.248,16.436,58.734S266.427,235.13,256,252.269c8.225,13.516,19.214,25.164,32.149,34.205
	c18.896-26.163,30.048-58.271,30.048-92.938c0-34.669-11.154-66.775-30.048-92.939c-9.059-12.545-19.9-23.718-32.149-33.154
	c-26.853-20.686-60.461-33.008-96.899-33.008C71.372,34.435,0,105.807,0,193.536c0,79.957,59.293,146.315,136.217,157.446v29.74
	h-28.201c-12.636,0-22.881,10.244-22.881,22.881c0,12.636,10.244,22.881,22.881,22.881h28.201v28.201
	c0,12.636,10.244,22.881,22.881,22.881c12.636,0,22.881-10.244,22.881-22.881v-28.201h28.201c12.636,0,22.881-10.244,22.881-22.881
	s-10.244-22.881-22.881-22.881h-28.201v-29.74c27.582-3.99,52.895-15.08,74.022-31.356
	C243.753,310.192,232.91,299.018,223.851,286.474z"/>
<path style="fill:#FF3F62;" d="M256,67.443c-26.853-20.686-60.461-33.008-96.899-33.008C71.372,34.435,0,105.807,0,193.535h45.761
	c0-62.494,50.844-113.338,113.34-113.338c24.063,0,46.38,7.561,64.75,20.399c12.938,9.041,23.927,20.689,32.149,34.206
	c10.427,17.139,16.436,37.247,16.436,58.733h45.761c0-34.667-11.154-66.775-30.048-92.938C279.09,88.052,268.249,76.877,256,67.443z
	"/>
<g>
	<path style="fill:#DF6246;" d="M239.564,193.536c0-21.486,6.008-41.595,16.436-58.734c-8.223-13.516-19.211-25.166-32.149-34.206
		c-18.896,26.165-30.048,58.272-30.048,92.941c0,0.485,0.024,0.966,0.029,1.449h45.758
		C239.582,194.502,239.564,194.021,239.564,193.536z"/>
	<path style="fill:#DF6246;" d="M352.902,34.435c-36.44,0-70.05,12.322-96.902,33.008c12.249,9.436,23.09,20.609,32.149,33.154
		c18.372-12.839,40.691-20.4,64.754-20.4c62.494,0,113.337,50.844,113.337,113.34c0,0.487-0.03,0.966-0.037,1.449h45.781
		c0.005-0.484,0.017-0.966,0.017-1.449C512,105.807,440.629,34.435,352.902,34.435z"/>
</g>
<g>
</g>
<g>
</g>
<g>
</g>
<g>
</g>
<g>
</g>
<g>
</g>
<g>
</g>
<g>
</g>
<g>
</g>
<g>
</g>
<g>
</g>
<g>
</g>
<g>
</g>
<g>
</g>
<g>
</g>
</svg>
