<?xml version="1.0" encoding="iso-8859-1"?>
<!-- Generator: Adobe Illustrator 19.0.0, SVG Export Plug-In . SVG Version: 6.00 Build 0)  -->
<svg version="1.1" id="Layer_1" xmlns="http://www.w3.org/2000/svg" xmlns:xlink="http://www.w3.org/1999/xlink" x="0px" y="0px"
	 viewBox="0 0 512.351 512.351" style="enable-background:new 0 0 512.351 512.351;" xml:space="preserve">
<g>
	<g>
		<path d="M503.2,8.925c-12-11.6-31.6-11.6-43.6,0c-0.4,0-0.4,0.4-0.4,0.4l-71.6,71.2l-9.2-9.2c-6.8-6.8-16-10.4-25.6-10.4
			c-9.6,0-18.8,3.6-25.6,10.4l-255.6,256c-6.8,6.8-10.4,16-10.4,25.6c0,9.6,3.6,18.8,10.4,25.6l9.2,9.2l-71.6,71.2
			c-6,6-9.2,13.6-9.2,22c0,8.4,3.2,16.4,8.8,22c6,5.6,13.6,9.2,22,9.2c8,0,16-3.2,21.6-8.8c0.4,0,0.4-0.4,0.8-0.4l71.6-71.6l9.6,9.6
			c6.8,6.8,16,10.4,25.6,10.4c9.6,0,18.8-3.6,25.6-10.4l255.6-255.6c6.8-6.8,10.4-16,10.4-25.6c0-9.6-3.6-18.8-10.4-25.6l-9.6-9.6
			l71.6-71.6C515.2,40.925,515.6,20.925,503.2,8.925z"/>
	</g>
</g>
<g>
</g>
<g>
</g>
<g>
</g>
<g>
</g>
<g>
</g>
<g>
</g>
<g>
</g>
<g>
</g>
<g>
</g>
<g>
</g>
<g>
</g>
<g>
</g>
<g>
</g>
<g>
</g>
<g>
</g>
</svg>
