<?xml version="1.0" encoding="iso-8859-1"?>
<!-- Generator: Adobe Illustrator 19.0.0, SVG Export Plug-In . SVG Version: 6.00 Build 0)  -->
<svg version="1.1" id="Layer_1" xmlns="http://www.w3.org/2000/svg" xmlns:xlink="http://www.w3.org/1999/xlink" x="0px" y="0px"
	 viewBox="0 0 512 512" style="enable-background:new 0 0 512 512;" xml:space="preserve">
<g>
	<g>
		<path d="M495.286,53.503H447.1V37.318c0-9.231-7.484-16.714-16.714-16.714c-9.231,0-16.714,7.484-16.714,16.714v16.185h-53.764
			V37.318c0-9.231-7.484-16.714-16.714-16.714s-16.714,7.484-16.714,16.714v16.185h-53.764V37.318
			c0-9.231-7.482-16.714-16.714-16.714c-9.231,0-16.714,7.484-16.714,16.714v16.185h-53.764V37.318
			c0-9.231-7.484-16.714-16.714-16.714s-16.714,7.484-16.714,16.714v16.185H98.329V37.318c0-9.231-7.484-16.714-16.714-16.714
			S64.9,28.087,64.9,37.318v16.185H16.714C7.484,53.503,0,60.986,0,70.217c0,4.846,0,400.243,0,404.465
			c0,9.231,7.484,16.714,16.714,16.714h478.571c9.231,0,16.714-7.484,16.714-16.714c0-4.223,0-399.631,0-404.465
			C512,60.986,504.516,53.503,495.286,53.503z M478.571,457.968H33.429V167.157h445.143V457.968z M478.571,133.728H33.429V86.931
			H64.9v9.925c0,9.231,7.484,16.714,16.714,16.714c9.231,0,16.714-7.484,16.714-16.714v-9.925h53.764v9.925
			c0,9.231,7.484,16.714,16.714,16.714s16.714-7.484,16.714-16.714v-9.925h53.764v9.925c0,9.231,7.484,16.714,16.714,16.714
			c9.232,0,16.714-7.484,16.714-16.714v-9.925h53.764v9.925c0,9.231,7.484,16.714,16.714,16.714s16.714-7.484,16.714-16.714v-9.925
			h53.764v9.925c0,9.231,7.484,16.714,16.714,16.714c9.231,0,16.714-7.484,16.714-16.714v-9.925h31.472V133.728z"/>
	</g>
</g>
<g>
	<g>
		<path d="M377.201,286.688c-1.967-6.051-7.196-10.461-13.492-11.376l-64.068-9.309l-28.653-58.056
			c-2.815-5.705-8.626-9.316-14.988-9.316s-12.172,3.612-14.988,9.316l-28.652,58.055l-64.068,9.309
			c-6.296,0.915-11.527,5.325-13.493,11.376c-1.967,6.051-0.326,12.693,4.229,17.133l46.361,45.192l-10.945,63.809
			c-1.075,6.27,1.502,12.608,6.649,16.348c5.148,3.741,11.973,4.232,17.602,1.273L256,400.315l57.303,30.127
			c5.633,2.961,12.457,2.467,17.602-1.273c5.147-3.74,7.725-10.076,6.65-16.348l-10.943-63.809l46.36-45.191
			C377.527,299.381,379.167,292.738,377.201,286.688z M296.986,331.208c-3.939,3.84-5.736,9.372-4.806,14.794l6.705,39.09
			l-35.106-18.456c-2.435-1.28-5.106-1.92-7.778-1.92c-2.671,0-5.343,0.641-7.778,1.92l-35.106,18.456l6.705-39.09
			c0.929-5.422-0.868-10.955-4.807-14.794l-28.401-27.684l39.248-5.703c5.443-0.791,10.15-4.211,12.585-9.144L256,253.111
			l17.552,35.566c2.436,4.933,7.14,8.353,12.585,9.144l39.25,5.703L296.986,331.208z"/>
	</g>
</g>
<g>
</g>
<g>
</g>
<g>
</g>
<g>
</g>
<g>
</g>
<g>
</g>
<g>
</g>
<g>
</g>
<g>
</g>
<g>
</g>
<g>
</g>
<g>
</g>
<g>
</g>
<g>
</g>
<g>
</g>
</svg>
