<?xml version="1.0" encoding="iso-8859-1"?>
<!-- Generator: Adobe Illustrator 19.0.0, SVG Export Plug-In . SVG Version: 6.00 Build 0)  -->
<svg version="1.1" id="Layer_1" xmlns="http://www.w3.org/2000/svg" xmlns:xlink="http://www.w3.org/1999/xlink" x="0px" y="0px"
	 viewBox="0 0 512 512" style="enable-background:new 0 0 512 512;" xml:space="preserve">
<g>
	<g>
		<path d="M331.415,13.792L289.255,0.755c-7.473-2.311-15.554,0.82-19.52,7.562l-13.734,23.344L242.267,8.316
			c-3.966-6.741-12.045-9.87-19.52-7.562l-42.162,13.038c-30.929,1.058-55.768,26.533-55.768,57.716v168.847
			c0,12.073,9.822,21.895,21.895,21.895h12.879v227.509c0,12.264,9.978,22.241,22.241,22.241h39.293
			c11.054,0,20.298-7.93,21.981-18.851l12.871-83.46l12.871,83.457C270.533,504.07,279.778,512,290.831,512h39.293
			c12.264,0,22.241-9.978,22.241-22.241c0-235.525,0.377-227.496,0.377-227.509h12.544c12.073,0,21.896-9.822,21.896-21.895V71.507
			C387.185,40.324,362.345,14.85,331.415,13.792z M165.716,228.517h-7.166v-8.431h7.166V228.517z M165.716,197.597h-7.166V71.507
			c0-6.686,2.746-12.743,7.166-17.104V197.597z M271.66,73.211c0.002-0.007,0.004-0.013,0.007-0.02
			c2.645-6.605,3.482-7.553,20.374-36.265l20.511,6.343v59.383h-23.027c-6.209,0-11.244,5.034-11.244,11.244
			c0,6.21,5.035,11.244,11.244,11.244h23.027v102.153c-26.516-5.56-46.053-29.06-46.053-56.669
			C266.498,93.404,265.116,89.562,271.66,73.211z M199.449,43.268l20.512-6.343c17.019,28.932,16.43,27.818,17.873,30.704
			c-6.56,20.397-5.069,28.959-5.069,102.995c0,10.328,1.788,20.383,4.792,29.267c-8.178,13.943-22.033,24.036-38.108,27.401V43.268z
			 M300.689,478.267l-28.04-181.801c-1.269-8.225-8.348-14.295-16.67-14.295c-8.322,0-15.4,6.07-16.67,14.295l-28.039,181.801
			h-17.947V262.073c21.606-1.337,42.888-10.495,58.993-26.602h7.364c15.806,15.794,36.998,25.313,59.319,26.621
			c-0.06,0.694-0.366,14.177-0.366,216.175H300.689z M353.452,228.517h-7.167v-8.431h7.167V228.517z M353.452,197.597h-7.167V54.402
			c4.422,4.361,7.167,10.418,7.167,17.105V197.597z"/>
	</g>
</g>
<g>
</g>
<g>
</g>
<g>
</g>
<g>
</g>
<g>
</g>
<g>
</g>
<g>
</g>
<g>
</g>
<g>
</g>
<g>
</g>
<g>
</g>
<g>
</g>
<g>
</g>
<g>
</g>
<g>
</g>
</svg>
