<?xml version="1.0" encoding="iso-8859-1"?>
<!-- Generator: Adobe Illustrator 19.0.0, SVG Export Plug-In . SVG Version: 6.00 Build 0)  -->
<svg version="1.1" id="Layer_1" xmlns="http://www.w3.org/2000/svg" xmlns:xlink="http://www.w3.org/1999/xlink" x="0px" y="0px"
	 viewBox="0 0 512.001 512.001" style="enable-background:new 0 0 512.001 512.001;" xml:space="preserve">
<g>
	<g>
		<path d="M420.656,34.676L368.673,3.33C365.06,1.151,360.923,0,356.71,0c-8.076,0-15.683,4.294-19.854,11.21L324.42,31.833
			c-2.942,4.877-3.948,10.538-2.936,16.091c-18.298,30.343-41.451,75.898-101.908,109.078
			c-23.282,12.777-43.934,30.492-60.203,51.526h-48.631c-4.829,0-9.426,2.071-12.625,5.687c-3.199,3.617-4.694,8.432-4.105,13.226
			l18.53,150.78c-5.047,0.911-10.234,1.413-15.541,1.413c-9.309,0-16.856,7.547-16.856,16.856c0,9.309,7.547,16.856,16.856,16.856
			c6.693,0,13.258-0.555,19.659-1.605l10.503,85.46c1.038,8.451,8.217,14.8,16.731,14.8h200.206c8.515,0,15.692-6.349,16.731-14.8
			l33.151-269.759c0.589-4.793-0.906-9.608-4.105-13.226c-3.199-3.616-7.797-5.687-12.625-5.687h-20.461
			c7.652-51.42,27.995-80.706,46.444-111.301c5.299-1.689,9.932-5.247,12.864-10.109l12.436-20.623
			C435.134,55.552,431.6,41.278,420.656,34.676z M294.997,142.135l3.348,13.517c1.074,4.34,3.829,8.075,7.657,10.384
			s8.416,2.999,12.757,1.927l13.499-3.343c-1.066,3.457-2.061,6.934-2.985,10.43l-29.183,7.227
			c-0.382,0.094-0.766,0.143-1.145,0.143c-1.764,0-3.94-1.12-4.549-3.579l-7.229-29.191
			C290.089,146.957,293.873,143.258,294.997,142.135z M235.797,186.557c7.699-4.225,15.16-8.831,22.365-13.785l3.51,14.172
			c2.205,8.905,7.386,16.411,14.326,21.584h-70.93C214.41,200.028,224.748,192.621,235.797,186.557z M329.187,478.287H158.804
			l-2.039-16.589h174.46L329.187,478.287z M335.369,427.986H152.622l-2.448-19.914h187.641L335.369,427.986z M358.196,242.241
			L341.96,374.359H185.892c19.937-21.584,32.138-50.413,32.138-82.044c0-9.309-7.547-16.856-16.856-16.856
			s-16.856,7.547-16.856,16.856c0,30.462-15.69,57.315-39.403,72.943l-15.119-123.018h38.065h170.14H358.196z M347.603,126.087
			l-20.587,5.097l-5.101-20.597c8.364-11.523,11.608-17.343,24.369-38.503l24.011,14.48
			C357.608,107.603,353.789,113.5,347.603,126.087z M392.668,60.687l-18.661-11.252l-15.278-9.213l1.555-2.58l33.939,20.465
			L392.668,60.687z"/>
	</g>
</g>
<g>
</g>
<g>
</g>
<g>
</g>
<g>
</g>
<g>
</g>
<g>
</g>
<g>
</g>
<g>
</g>
<g>
</g>
<g>
</g>
<g>
</g>
<g>
</g>
<g>
</g>
<g>
</g>
<g>
</g>
</svg>
