<?xml version="1.0" encoding="iso-8859-1"?>
<!-- Generator: Adobe Illustrator 19.0.0, SVG Export Plug-In . SVG Version: 6.00 Build 0)  -->
<svg version="1.1" id="Layer_1" xmlns="http://www.w3.org/2000/svg" xmlns:xlink="http://www.w3.org/1999/xlink" x="0px" y="0px"
	 viewBox="0 0 512.002 512.002" style="enable-background:new 0 0 512.002 512.002;" xml:space="preserve">
<g>
	<g>
		<path d="M384.708,375.59c35.543-33.488,58.018-80.683,58.982-133.14c0.028-1.176,0.044-2.348,0.044-3.516s-0.017-2.34-0.044-3.516
			c-1.607-87.446-62.994-160.28-145.022-179.345v-21.94c0-4.713-3.82-8.533-8.533-8.533s-8.533,3.821-8.533,8.533v18.811
			c-5.614-0.766-11.306-1.286-17.067-1.543V8.533c0-4.713-3.82-8.533-8.533-8.533c-4.713,0-8.533,3.82-8.533,8.533v42.868
			c-5.761,0.258-11.452,0.778-17.067,1.543V34.133c0-4.713-3.821-8.533-8.533-8.533c-4.713,0-8.533,3.821-8.533,8.533v21.94
			C131.306,75.137,69.92,147.972,68.312,235.418c-0.028,1.176-0.044,2.348-0.044,3.516s0.017,2.34,0.044,3.516
			c0.964,52.458,23.439,99.653,58.982,133.14L77.411,500.297c-1.75,4.376,0.378,9.342,4.754,11.092s9.342-0.378,11.092-4.754
			l47.731-119.327c18.643,14.472,40.082,25.514,63.376,32.164l-16.464,82.32c-0.924,4.621,2.073,9.117,6.694,10.041
			c4.621,0.924,9.117-2.073,10.041-6.694l16.35-81.748c11.346,2.141,23.048,3.274,35.016,3.274c14.869,0,29.332-1.737,43.204-5.004
			L315.9,505.14c0.924,4.621,5.42,7.618,10.041,6.694c4.621-0.924,7.618-5.42,6.694-10.041l-16.963-84.815
			c20.199-6.767,38.862-16.877,55.342-29.669l47.731,119.327c1.75,4.376,6.716,6.504,11.092,4.754s6.504-6.716,4.754-11.092
			L384.708,375.59z M425.653,256H86.349c-0.673-6.055-1.015-11.628-1.015-17.067s0.341-11.012,1.015-17.067h339.304
			c0.673,6.055,1.015,11.628,1.015,17.067S426.327,249.945,425.653,256z M256.001,68.267c82.567,0,151.436,58.633,167.25,136.533
			H88.752C104.565,126.9,173.434,68.267,256.001,68.267z M88.752,273.067h334.499c-15.813,77.9-84.683,136.533-167.25,136.533
			S104.565,350.967,88.752,273.067z"/>
	</g>
</g>
<g>
</g>
<g>
</g>
<g>
</g>
<g>
</g>
<g>
</g>
<g>
</g>
<g>
</g>
<g>
</g>
<g>
</g>
<g>
</g>
<g>
</g>
<g>
</g>
<g>
</g>
<g>
</g>
<g>
</g>
</svg>
