<?xml version="1.0" encoding="iso-8859-1"?>
<!-- Generator: Adobe Illustrator 19.0.0, SVG Export Plug-In . SVG Version: 6.00 Build 0)  -->
<svg version="1.1" id="Layer_1" xmlns="http://www.w3.org/2000/svg" xmlns:xlink="http://www.w3.org/1999/xlink" x="0px" y="0px"
	 viewBox="0 0 511.999 511.999" style="enable-background:new 0 0 511.999 511.999;" xml:space="preserve">
<g>
	<g>
		<path d="M462.818,422.86c-11.147-18.685-31.064-28.949-51.388-28.712c9.862-17.769,10.282-40.151-0.886-58.845
			c-11.158-18.69-31.056-28.965-51.374-28.732c9.863-17.767,10.273-40.161-0.875-58.857c-16.689-27.931-52.903-37.084-80.817-20.418
			c-8.061,4.814-14.546,11.256-19.31,18.647c-12.815-20.067-35.925-29.853-58.255-26.556c2.187-8.092,3.937-17.92,4.116-19.054
			c2.918-16.848,3.827-34.14,0.523-50.843c-1.793-9.152-5.075-18.641-10.603-27.4c-2.982-4.78-6.726-9.243-11.018-13.187
			c1.692-12.156,0.32-24.695-4.738-37.824c-8.081-21.089-24.267-39.745-41.198-54.409c-6.282-5.426-13.231-10.811-20.471-15.548
			c-3.098-2.022-7.275-1.246-9.421,1.803c-2.193,3.117-1.444,7.421,1.673,9.614l0.192,0.135c6.33,4.453,12.626,9.662,18.298,14.897
			c14.493,13.396,28.799,30.686,35.212,49.277c2.39,6.868,3.685,13.756,3.589,20.927c-17.821-8.036-38.549-7.849-56.429-0.988
			c-34.329,13.17-47.519,46.027-30.413,69.109c13.73,18.456,43.966,24.584,72.724-2.159c8.255-7.734,15.145-16.95,20.989-26.69
			c2.844,5.231,4.731,11.133,5.757,17.295c2.268,13.372,0.962,27.614-1.716,40.964c-0.228,1.251-0.374,1.819-1.298,6.009
			c0.001-0.011-0.031,0.12-0.028,0.107c-0.743,2.796-1.707,6.525-3.793,12.349c-15.413,42.607-46.997,60.397-51.219,65.131
			c-21.566-1.684-44.539,1.626-68.416,10.009c-8.864,3.113-13.527,12.821-10.415,21.684c3.113,8.864,12.827,13.528,21.684,10.415
			c24.601-8.637,47.209-10.731,67.615-6.322c-27.631,16.788-36.575,52.748-20.001,80.555c11.163,18.707,31.078,28.964,51.408,28.706
			c-9.867,17.773-10.284,40.169,0.886,58.862c16.677,27.946,52.853,37.063,80.803,20.406c8.042-4.807,14.517-11.235,19.276-18.613
			c17.073,26.7,52.415,35.205,79.831,18.833c8.042-4.799,14.517-11.219,19.277-18.589c17.108,26.696,52.423,35.179,79.832,18.809
			C470.38,486.999,479.494,450.805,462.818,422.86z M138.701,149.157c-19.158,16.847-35.484,13.282-41.91,3.971
			c-5.187-7.647-2.726-16.546,3.484-22.972c4.442-4.938,10.719-8.837,17.576-11.229c13.722-4.879,29.977-3.98,41.793,3.66
			C155.377,130.736,147.162,141.712,138.701,149.157z"/>
	</g>
</g>
<g>
</g>
<g>
</g>
<g>
</g>
<g>
</g>
<g>
</g>
<g>
</g>
<g>
</g>
<g>
</g>
<g>
</g>
<g>
</g>
<g>
</g>
<g>
</g>
<g>
</g>
<g>
</g>
<g>
</g>
</svg>
