<?xml version="1.0" encoding="iso-8859-1"?>
<!-- Generator: Adobe Illustrator 19.0.0, SVG Export Plug-In . SVG Version: 6.00 Build 0)  -->
<svg version="1.1" id="Layer_1" xmlns="http://www.w3.org/2000/svg" xmlns:xlink="http://www.w3.org/1999/xlink" x="0px" y="0px"
	 viewBox="0 0 512.002 512.002" style="enable-background:new 0 0 512.002 512.002;" xml:space="preserve">
<g>
	<g>
		<path d="M505.201,64.484L446.947,6.229c-8.304-8.304-21.771-8.306-30.077,0c-8.306,8.304-8.306,21.771,0,30.077l14.659,14.659
			l-75.01,75.012l-46.643-46.643c-8.304-8.306-21.771-8.306-30.077,0c-8.306,8.306-8.306,21.771,0,30.077l8.95,8.95L65.055,342.051
			c-3.557,3.557-5.738,8.259-6.156,13.271l-6.207,74.48l-45.89,45.892c-8.306,8.304-8.306,21.771,0,30.077
			c4.153,4.153,9.596,6.23,15.038,6.23c5.442,0,10.886-2.077,15.038-6.23l45.89-45.89l74.48-6.207
			c5.012-0.418,9.715-2.599,13.271-6.156l223.693-223.693l8.948,8.948c4.153,4.153,9.596,6.23,15.038,6.23s10.886-2.076,15.038-6.23
			c8.306-8.306,8.306-21.771,0-30.077l-46.643-46.643l75.01-75.01L475.12,94.56c4.153,4.153,9.596,6.23,15.038,6.23
			s10.886-2.077,15.038-6.23C513.507,86.256,513.507,72.79,505.201,64.484z M145.953,411.931l-49.429,4.119l4.119-49.429
			l158.786-158.787l45.312,45.312L145.953,411.931z M334.817,223.068l-45.312-45.312l29.32-29.32l45.312,45.312L334.817,223.068z"/>
	</g>
</g>
<g>
</g>
<g>
</g>
<g>
</g>
<g>
</g>
<g>
</g>
<g>
</g>
<g>
</g>
<g>
</g>
<g>
</g>
<g>
</g>
<g>
</g>
<g>
</g>
<g>
</g>
<g>
</g>
<g>
</g>
</svg>
