<?xml version="1.0" encoding="iso-8859-1"?>
<!-- Generator: Adobe Illustrator 19.0.0, SVG Export Plug-In . SVG Version: 6.00 Build 0)  -->
<svg version="1.1" id="Layer_1" xmlns="http://www.w3.org/2000/svg" xmlns:xlink="http://www.w3.org/1999/xlink" x="0px" y="0px"
	 viewBox="0 0 300 300" style="enable-background:new 0 0 300 300;" xml:space="preserve">
<g>
	<g>
		<g>
			<path d="M150,191.35c28.037,0,50-23.162,49.987-52.737V87.256c0-1.731-0.713-3.369-1.956-4.544
				c-1.244-1.175-2.925-1.825-4.65-1.694c-23.075,1.306-29.8-3.813-39-12.888c-2.425-2.412-6.344-2.412-8.775,0
				c-9.006,8.9-15.125,13.088-32.188,13.088c-2.125,0-4.381-0.069-6.813-0.2c-1.7-0.138-3.4,0.513-4.65,1.694
				c-1.25,1.181-1.956,2.831-1.956,4.544v51.356C100,168.188,121.963,191.35,150,191.35z M112.5,93.731c0.306,0,0.612,0,0.912,0
				c18.9,0,28.319-5.194,36.581-12.538c8.556,7.65,18.119,12.631,37.506,12.538v44.894c0,22.569-16.481,40.237-37.5,40.237
				s-37.5-17.681-37.5-40.237V93.731z"/>
			<path d="M256.25,0H43.75C26.519,0,12.5,14.019,12.5,31.25v237.5c0,17.231,14.019,31.25,31.25,31.25h212.5
				c17.231,0,31.25-14.019,31.25-31.25V31.25C287.5,14.019,273.481,0,256.25,0z M275,268.75c0,10.338-8.412,18.75-18.75,18.75H43.75
				c-10.338,0-18.75-8.412-18.75-18.75V31.25c0-10.338,8.412-18.75,18.75-18.75h212.5c10.338,0,18.75,8.412,18.75,18.75V268.75z"/>
			<path d="M256.25,25H43.75c-3.456,0-6.25,2.794-6.25,6.25v200c0,3.456,2.794,6.25,6.25,6.25h212.5c3.456,0,6.25-2.794,6.25-6.25
				v-200C262.5,27.794,259.706,25,256.25,25z M250,225H50V37.5h200V225z"/>
			<path d="M153.225,241.356c-10.337,0-18.75,8.412-18.75,18.75c0,10.337,8.413,18.75,18.75,18.75c10.338,0,18.75-8.413,18.75-18.75
				C171.975,249.769,163.563,241.356,153.225,241.356z M153.225,266.356c-3.45,0-6.25-2.8-6.25-6.25c0-3.45,2.8-6.25,6.25-6.25
				c3.438,0,6.25,2.8,6.25,6.25C159.475,263.556,156.681,266.356,153.225,266.356z"/>
		</g>
	</g>
</g>
<g>
</g>
<g>
</g>
<g>
</g>
<g>
</g>
<g>
</g>
<g>
</g>
<g>
</g>
<g>
</g>
<g>
</g>
<g>
</g>
<g>
</g>
<g>
</g>
<g>
</g>
<g>
</g>
<g>
</g>
</svg>
