<?xml version="1.0" encoding="iso-8859-1"?>
<!-- Generator: Adobe Illustrator 19.0.0, SVG Export Plug-In . SVG Version: 6.00 Build 0)  -->
<svg version="1.1" id="Layer_1" xmlns="http://www.w3.org/2000/svg" xmlns:xlink="http://www.w3.org/1999/xlink" x="0px" y="0px"
	 viewBox="0 0 512 512" style="enable-background:new 0 0 512 512;" xml:space="preserve">
<g>
	<g>
		<path d="M432.01,311.893l-90.561-32.931c-0.14-0.051-0.28-0.087-0.421-0.129c-0.188-0.322-0.375-0.643-0.565-0.966
			c11.409-0.765,20.465-10.267,20.465-21.867c0-1.844-0.253-3.626-0.684-5.338c10.246-1.575,18.126-10.426,18.126-21.106
			c0-4.866-1.653-9.343-4.401-12.941c2.749-3.597,4.401-8.075,4.401-12.941c0-9.361-6.057-17.318-14.451-20.205
			c3.987-12.716,6.011-24.627,6.011-35.496c0-33.44-10.929-65.014-31.603-91.31c-2.881-3.664-8.186-4.297-11.85-1.418
			c-3.664,2.881-4.299,8.186-1.418,11.851c18.312,23.292,27.992,51.259,27.992,80.878c0,10.221-2.213,21.761-6.529,34.321h-10.698
			c4.714-12.789,7.099-24.303,7.099-34.321c0-66.702-54.266-120.967-120.967-120.967c-66.702,0-120.967,54.265-120.967,120.967
			c0,10.018,2.386,21.531,7.098,34.321H97.393c-4.315-12.561-6.529-24.102-6.529-34.321c0-72.285,58.809-131.094,131.094-131.094
			c29.74,0,57.797,9.752,81.139,28.199c3.656,2.889,8.965,2.27,11.854-1.389c2.89-3.657,2.27-8.964-1.388-11.855
			C287.212,11.009,255.535,0,221.958,0C140.366,0,73.985,66.381,73.985,147.974c0,10.869,2.023,22.78,6.011,35.496
			c-8.393,2.887-14.451,10.844-14.451,20.205c0,4.866,1.653,9.343,4.401,12.941c-2.749,3.597-4.401,8.075-4.401,12.941
			c0,10.68,7.88,19.53,18.126,21.106c-0.431,1.713-0.684,3.494-0.684,5.338c0,11.602,9.056,21.103,20.466,21.869
			c-19.807,33.728-29.469,62.006-29.469,86.158C73.985,445.619,140.366,512,221.958,512c81.594,0,147.974-66.381,147.974-147.974
			c0-9.227-1.412-19.057-4.257-29.559l51.335,18.667c11.231,4.087,24.042-1.898,28.123-13.122
			C449.267,328.642,443.381,316.028,432.01,311.893z M221.958,43.886c57.395,0,104.088,46.693,104.088,104.088
			c0,9.457-2.812,20.997-8.35,34.321h-10.965c6.092-13.632,9.187-25.156,9.187-34.321c0-51.81-42.151-93.96-93.96-93.96
			s-93.96,42.151-93.96,93.96c0,9.168,3.089,20.686,9.183,34.321h-10.964c-5.539-13.324-8.347-24.862-8.347-34.321
			C117.87,90.579,164.564,43.886,221.958,43.886z M221.958,81.02c-36.919,0-66.954,30.035-66.954,66.954
			c0,7.23,4.407,19.45,12.264,34.321h-11.41c-9.034-18.121-10.982-28.656-10.982-34.321c0-42.503,34.579-77.081,77.081-77.081
			s77.081,34.579,77.081,77.081c0,5.638-1.925,16.163-10.977,34.321h-11.409c7.867-14.882,12.259-27.075,12.259-34.321
			C288.912,111.055,258.877,81.02,221.958,81.02z M86.925,199.174H209.58c4.661,0,8.44-3.779,8.44-8.44s-3.779-8.44-8.44-8.44
			h-23.022c-11.569-20.048-14.675-31.203-14.675-34.321c0-27.612,22.463-50.075,50.075-50.075c27.611,0,50.075,22.463,50.075,50.075
			c0,3.15-3.127,14.308-14.677,34.321h-12.892c-4.662,0-8.44,3.779-8.44,8.44s3.778,8.44,8.44,8.44h112.527
			c2.482,0,4.501,2.019,4.501,4.501s-2.019,4.501-4.501,4.501H86.925c-2.482,0-4.501-2.019-4.501-4.501
			S84.443,199.174,86.925,199.174z M86.925,234.057c-2.482,0-4.501-2.019-4.501-4.501c0-2.482,2.019-4.501,4.501-4.501h270.066
			c2.482,0,4.501,2.019,4.501,4.501c0,2.482-2.019,4.501-4.501,4.501h-18.004H104.93H86.925z M99.866,256
			c0-2.792,2.272-5.064,5.064-5.064h234.057c2.792,0,5.064,2.272,5.064,5.064s-2.272,5.064-5.064,5.064H104.93
			C102.138,261.064,99.866,258.792,99.866,256z M155.004,364.026c0,36.919,30.035,66.954,66.954,66.954s66.954-30.035,66.954-66.954
			c0-11.952-12.124-40.779-45.919-86.083h12.584c27.627,37.975,43.464,69.326,43.464,86.083c0,42.503-34.579,77.081-77.081,77.081
			s-77.081-34.579-77.081-77.081c0-16.771,15.828-48.091,43.465-86.083h12.582C167.127,323.25,155.004,352.075,155.004,364.026z
			 M216.371,285.469c1.776-2.355,3.323-4.886,4.643-7.526h1.879c1.319,2.639,2.877,5.171,4.652,7.526
			c36.496,48.407,44.488,73.12,44.488,78.559c0,27.612-22.464,50.075-50.075,50.075c-27.612,0-50.075-22.463-50.075-50.075
			C171.883,358.589,179.876,333.877,216.371,285.469z M127.998,364.026c0,51.81,42.151,93.96,93.96,93.96s93.96-42.151,93.96-93.96
			c0-23.418-20.084-57.988-39.625-86.083h12.294c24.855,36.74,37.459,65.703,37.459,86.083c0,57.395-46.693,104.088-104.088,104.088
			S117.87,421.421,117.87,364.026c0-20.382,12.604-49.344,37.459-86.083h12.291C147.987,306.17,127.998,340.651,127.998,364.026z
			 M221.958,495.121c-72.285,0-131.094-58.809-131.094-131.095c0-23.001,10.564-51.184,32.268-86.083h11.975
			c-22.933,35.631-34.116,63.867-34.116,86.083c0,66.702,54.265,120.967,120.967,120.967c66.701,0,120.967-54.265,120.967-120.967
			c0-22.216-11.183-50.453-34.116-86.083h11.974c21.707,34.911,32.269,63.083,32.269,86.083
			C353.053,436.312,294.244,495.121,221.958,495.121z M429.269,334.246c-0.942,2.593-3.897,3.97-6.488,3.028
			c0,0-63.637-23.091-64.075-23.174c-1.728-4.234-3.662-8.57-5.794-13.008l73.33,26.664
			C428.865,328.711,430.224,331.622,429.269,334.246z"/>
	</g>
</g>
<g>
</g>
<g>
</g>
<g>
</g>
<g>
</g>
<g>
</g>
<g>
</g>
<g>
</g>
<g>
</g>
<g>
</g>
<g>
</g>
<g>
</g>
<g>
</g>
<g>
</g>
<g>
</g>
<g>
</g>
</svg>
