<?xml version="1.0" encoding="iso-8859-1"?>
<!-- Generator: Adobe Illustrator 19.0.0, SVG Export Plug-In . SVG Version: 6.00 Build 0)  -->
<svg version="1.1" id="Layer_1" xmlns="http://www.w3.org/2000/svg" xmlns:xlink="http://www.w3.org/1999/xlink" x="0px" y="0px"
	 viewBox="0 0 470 470" style="enable-background:new 0 0 470 470;" xml:space="preserve">
<g>
	<g>
		<path d="M467.803,44.623L425.376,2.197c-2.854-2.854-7.454-2.938-10.412-0.188L36.738,353.853l-1.956-1.956
			c-2.929-2.929-7.678-2.929-10.606,0c-2.929,2.929-2.929,7.678,0,10.606l1.573,1.573L14.759,374.3l-1.956-1.956
			c-2.929-2.929-7.678-2.929-10.606,0c-2.929,2.929-2.929,7.678,0,10.606l84.853,84.853c1.464,1.464,3.384,2.197,5.303,2.197
			s3.839-0.732,5.303-2.197c2.929-2.929,2.929-7.678,0-10.606l-1.956-1.956l10.223-10.99l1.573,1.573
			c1.464,1.464,3.384,2.197,5.303,2.197s3.839-0.732,5.303-2.197c2.929-2.929,2.929-7.678,0-10.606l-1.956-1.956L467.99,55.035
			C470.74,52.079,470.656,47.477,467.803,44.623z M105.532,422.647l-18.484-18.484c-2.929-2.929-7.678-2.929-10.606,0
			c-2.929,2.929-2.929,7.678,0,10.607l18.867,18.867l-10.223,10.99l-59.714-59.713l10.99-10.224l18.867,18.867
			c1.464,1.464,3.384,2.197,5.303,2.197s3.839-0.732,5.303-2.197c2.929-2.929,2.929-7.678,0-10.606l-18.484-18.484l62.276-57.933
			l53.837,53.837L105.532,422.647z M173.688,349.381l-53.07-53.07l16.997-15.812l2.361,12.143c0.583,3.001,2.93,5.348,5.931,5.931
			l21.366,4.154l4.154,21.367c0.583,3.001,2.93,5.348,5.931,5.931l12.14,2.36L173.688,349.381z M201.537,319.444l-16.35-3.178
			l-4.154-21.367c-0.583-3.001-2.93-5.348-5.931-5.931l-21.366-4.154l-3.179-16.354l77.568-72.157l45.571,45.572L201.537,319.444z
			 M283.918,230.885l-44.805-44.805l80.582-74.961l1.322,6.918c0.577,3.021,2.939,5.382,5.96,5.959l15.975,3.052l3.052,15.976
			c0.577,3.021,2.939,5.383,5.96,5.959l6.916,1.321L283.918,230.885z M370.941,137.337l-11.16-2.132l-3.052-15.975
			c-0.577-3.021-2.939-5.382-5.96-5.959l-15.975-3.052l-2.132-11.163l13.955-12.982l37.307,37.306L370.941,137.337z M394.148,112.39
			l-36.54-36.54l62.276-57.932l32.196,32.196L394.148,112.39z"/>
	</g>
</g>
<g>
</g>
<g>
</g>
<g>
</g>
<g>
</g>
<g>
</g>
<g>
</g>
<g>
</g>
<g>
</g>
<g>
</g>
<g>
</g>
<g>
</g>
<g>
</g>
<g>
</g>
<g>
</g>
<g>
</g>
</svg>
