<?xml version="1.0" encoding="iso-8859-1"?>
<!-- Generator: Adobe Illustrator 19.0.0, SVG Export Plug-In . SVG Version: 6.00 Build 0)  -->
<svg version="1.1" id="Layer_1" xmlns="http://www.w3.org/2000/svg" xmlns:xlink="http://www.w3.org/1999/xlink" x="0px" y="0px"
	 viewBox="0 0 330 330" style="enable-background:new 0 0 330 330;" xml:space="preserve">
<g id="XMLID_472_">
	<path id="XMLID_473_" d="M105,330h45v-30v-15.006c0-8.285,6.716-15,15-15s15,6.715,15,15V300v30h45c8.284,0,15-6.716,15-15V135.016
		c0-6.528-4.178-12.067-10-14.128v-0.012H100c-2.087,0.74-4.011,1.921-5.605,3.517C91.581,127.206,90,131.022,90,135v180
		C90,323.284,96.716,330,105,330z"/>
	<path id="XMLID_474_" d="M230,75.011c0-8.284-6.716-15-15-15h-35V15c0-8.284-6.716-15-15-15s-15,6.716-15,15v45.011h-35
		c-8.284,0-15,6.716-15,15v15.866h130V75.011z"/>
</g>
<g>
</g>
<g>
</g>
<g>
</g>
<g>
</g>
<g>
</g>
<g>
</g>
<g>
</g>
<g>
</g>
<g>
</g>
<g>
</g>
<g>
</g>
<g>
</g>
<g>
</g>
<g>
</g>
<g>
</g>
</svg>
