<?xml version="1.0" encoding="iso-8859-1"?>
<!-- Generator: Adobe Illustrator 19.0.0, SVG Export Plug-In . SVG Version: 6.00 Build 0)  -->
<svg version="1.1" id="Layer_1" xmlns="http://www.w3.org/2000/svg" xmlns:xlink="http://www.w3.org/1999/xlink" x="0px" y="0px"
	 viewBox="0 0 330 330" style="enable-background:new 0 0 330 330;" xml:space="preserve">
<g id="XMLID_109_">
	<path id="XMLID_110_" d="M285,330c8.284,0,15-6.716,15-15V90h15c8.284,0,15-6.716,15-15c0-41.355-33.645-75-75-75H75
		C33.645,0,0,33.645,0,75c0,8.284,6.716,15,15,15h15v225c0,8.284,6.716,15,15,15s15-6.716,15-15V210h210v105
		C270,323.284,276.716,330,285,330z"/>
	<path id="XMLID_138_" d="M215,330c8.284,0,15-6.716,15-15v-45.872c5.822-2.061,10-7.6,10-14.128c0-8.284-6.716-15-15-15H105
		c-8.284,0-15,6.716-15,15c0,6.528,4.178,12.067,10,14.128V315c0,8.284,6.716,15,15,15s15-6.716,15-15v-45h70v45
		C200,323.284,206.716,330,215,330z"/>
</g>
<g>
</g>
<g>
</g>
<g>
</g>
<g>
</g>
<g>
</g>
<g>
</g>
<g>
</g>
<g>
</g>
<g>
</g>
<g>
</g>
<g>
</g>
<g>
</g>
<g>
</g>
<g>
</g>
<g>
</g>
</svg>
