<?xml version="1.0" encoding="iso-8859-1"?>
<!-- Generator: Adobe Illustrator 19.0.0, SVG Export Plug-In . SVG Version: 6.00 Build 0)  -->
<svg version="1.1" id="Layer_1" xmlns="http://www.w3.org/2000/svg" xmlns:xlink="http://www.w3.org/1999/xlink" x="0px" y="0px"
	 viewBox="0 0 512.001 512.001" style="enable-background:new 0 0 512.001 512.001;" xml:space="preserve">
<g>
	<g>
		<g>
			<path d="M143.273,0.216c-25.495,0-49.29,12.754-67,35.915c-17.101,22.363-26.519,51.947-26.519,83.304
				c0,31.356,9.418,60.941,26.519,83.304c8.577,11.216,18.583,19.983,29.516,26.051v273.215c0,5.52,4.475,9.996,9.996,9.996
				c35.826,0,64.973-29.147,64.973-64.973V228.789c10.933-6.068,20.939-14.835,29.516-26.051
				c17.101-22.363,26.519-51.948,26.519-83.304c0-31.357-9.418-60.941-26.519-83.304C192.563,12.97,168.768,0.216,143.273,0.216z
				 M160.766,447.027L160.766,447.027c-0.001,21.368-14.979,39.304-34.986,43.861V236.595c5.702,1.356,11.55,2.058,17.493,2.058
				c5.942,0,11.791-0.702,17.493-2.058V447.027z M178.157,206.763c-3.628,2.65-7.438,4.901-11.399,6.707
				c-7.378,3.365-15.276,5.19-23.485,5.19s-16.107-1.826-23.485-5.19c-3.961-1.806-7.771-4.057-11.399-6.707
				c-22.991-16.793-38.643-49.64-38.643-87.329c0-54.714,32.984-99.227,73.527-99.227c40.543,0,73.527,44.513,73.527,99.227
				C216.8,157.123,201.148,189.97,178.157,206.763z"/>
			<path d="M150.385,45.774c-16.786,0-32.393,8.32-43.945,23.426c-10.943,14.31-16.969,33.187-16.969,53.155
				c0,5.52,4.475,9.996,9.996,9.996s9.996-4.476,9.996-9.996c0-5.191,0.518-10.214,1.469-14.993
				c4.016-20.184,15.926-35.885,30.835-40.323c2.78-0.828,5.662-1.274,8.618-1.274c5.521,0,9.996-4.476,9.996-9.996
				S155.906,45.774,150.385,45.774z"/>
			<path d="M405.01,3.799c-22.512-4.844-45.513-4.951-68.18-0.916c-34.749,9.148-60.454,40.831-60.454,78.413v90.385
				c0,33.61,24.889,61.508,57.202,66.252v264.072c0,5.52,4.476,9.996,9.996,9.996c35.826,0,64.973-29.147,64.973-64.973V237.326
				c30.592-6.176,53.699-33.261,53.699-65.646V81.296C462.246,44.884,438.117,14.006,405.01,3.799z M388.555,447.027
				c0,21.368-14.978,39.304-34.985,43.862V238.652h34.985V447.027z M442.255,171.68L442.255,171.68
				c-0.001,21.296-14.248,39.316-33.708,45.059c-3.204,0.946-6.549,1.555-9.996,1.794c-1.084,0.075-2.174,0.127-3.277,0.127h-51.7
				h-0.227c-3.35,0-6.616-0.359-9.769-1.029c-21.231-4.509-37.211-23.396-37.211-45.952V81.296c0-25.23,15.376-46.935,37.248-56.242
				v65.764c0,5.52,4.476,9.996,9.996,9.996c5.52,0,9.996-4.476,9.996-9.996V20.341c1.274-0.08,2.555-0.134,3.849-0.134h23.71
				c2.087,0,4.151,0.106,6.185,0.312v138.048c0,5.52,4.476,9.996,9.996,9.996c5.52,0,9.996-4.476,9.996-9.996V26.112
				c20.622,9.822,34.912,30.863,34.912,55.184V171.68z"/>
			<path d="M343.611,128.717c-5.52,0-9.996,4.476-9.996,9.996v19.854c0,5.52,4.476,9.996,9.996,9.996
				c5.52,0,9.996-4.476,9.996-9.996v-19.854C353.607,133.193,349.131,128.717,343.611,128.717z"/>
		</g>
	</g>
</g>
<g>
</g>
<g>
</g>
<g>
</g>
<g>
</g>
<g>
</g>
<g>
</g>
<g>
</g>
<g>
</g>
<g>
</g>
<g>
</g>
<g>
</g>
<g>
</g>
<g>
</g>
<g>
</g>
<g>
</g>
</svg>
