<?xml version="1.0" encoding="iso-8859-1"?>
<!-- Generator: Adobe Illustrator 19.0.0, SVG Export Plug-In . SVG Version: 6.00 Build 0)  -->
<svg version="1.1" id="Layer_1" xmlns="http://www.w3.org/2000/svg" xmlns:xlink="http://www.w3.org/1999/xlink" x="0px" y="0px"
	 viewBox="0 0 512 512" style="enable-background:new 0 0 512 512;" xml:space="preserve">
<path style="fill:#FAA85F;" d="M256,264c44.8,0,80,35.2,80,80v136h64V32h-32v64h-96V32h-32v64h-96V32h-32v448h64V344
	C176,299.2,211.2,264,256,264z"/>
<path style="fill:#FFFFFF;" d="M208,480h96V344c0-27.2-20.8-48-48-48s-48,20.8-48,48V480z"/>
<path style="fill:#00384E;" d="M336,0v64h-32V0h-96v64h-32V0H80v512h128h96h128V0H336z M304,480h-96V344c0-27.2,20.8-48,48-48
	s48,20.8,48,48V480z M400,480h-64V344c0-44.8-35.2-80-80-80s-80,35.2-80,80v136h-64V32h32v64h96V32h32v64h96V32h32V480z"/>
<g>
</g>
<g>
</g>
<g>
</g>
<g>
</g>
<g>
</g>
<g>
</g>
<g>
</g>
<g>
</g>
<g>
</g>
<g>
</g>
<g>
</g>
<g>
</g>
<g>
</g>
<g>
</g>
<g>
</g>
</svg>
