<?xml version="1.0" encoding="iso-8859-1"?>
<!-- Generator: Adobe Illustrator 19.0.0, SVG Export Plug-In . SVG Version: 6.00 Build 0)  -->
<svg version="1.1" id="Layer_1" xmlns="http://www.w3.org/2000/svg" xmlns:xlink="http://www.w3.org/1999/xlink" x="0px" y="0px"
	 viewBox="0 0 356.106 356.106" style="enable-background:new 0 0 356.106 356.106;" xml:space="preserve">
<g>
	<g>
		<path style="fill:#61B4E4;" d="M162.959,292.846c-1.806,0-3.646-0.171-5.467-0.508L86.18,279.147
			c-16.03-2.965-28.587-18.058-28.587-34.36v-33.698c0-15.62,11.545-27.399,26.854-27.399c1.806,0,3.646,0.171,5.467,0.508
			l71.313,13.191c16.03,2.965,28.587,18.058,28.587,34.36v33.698C189.813,281.067,178.268,292.846,162.959,292.846z M84.447,204.221
			c-3.9,0-6.323,2.632-6.323,6.868v33.698c0,6.388,5.509,13.01,11.79,14.171l71.313,13.191c0.594,0.11,1.176,0.165,1.732,0.165
			c3.9,0,6.323-2.632,6.323-6.868v-33.698c0-6.388-5.509-13.01-11.79-14.171l-71.312-13.19
			C85.586,204.277,85.003,204.221,84.447,204.221z"/>
		<polygon style="fill:#005CB9;" points="240.614,78.657 22.583,120.28 22.583,225.466 240.614,267.089 		"/>
		<polygon style="fill:#1E252B;" points="22.583,199.62 240.614,231.882 240.614,220.011 22.583,187.749 		"/>
		<path style="fill:#61B4E4;" d="M30.796,229.106c0,8.503-6.894,15.398-15.398,15.398C6.893,244.503,0,237.609,0,229.106V116.64
			c0-8.504,6.893-15.398,15.397-15.398c8.505,0,15.398,6.894,15.398,15.398L30.796,229.106L30.796,229.106z"/>
		<path style="fill:#61B4E4;" d="M256.012,267.089c0,8.504-6.894,15.398-15.398,15.398s-15.397-6.894-15.397-15.398V78.657
			c0-8.504,6.893-15.397,15.397-15.397s15.398,6.894,15.398,15.397V267.089z"/>
	</g>
	<g>
		<path style="fill:#C3C6C8;" d="M303.667,255.267l-5.447-12.855c26.684-11.305,43.925-37.292,43.925-66.207
			c0-28.926-17.251-54.918-43.949-66.218l5.441-12.857c31.874,13.49,52.469,44.529,52.469,79.075
			C356.105,210.737,335.521,241.77,303.667,255.267z"/>
		<path style="fill:#C3C6C8;" d="M292.489,228.786l-5.446-12.855c16.012-6.784,26.357-22.377,26.357-39.725
			c0-17.356-10.352-32.952-26.373-39.732l5.441-12.857c21.196,8.97,34.893,29.613,34.893,52.589
			C327.361,199.17,313.674,219.81,292.489,228.786z"/>
		<path style="fill:#C3C6C8;" d="M281.3,202.315l-5.431-12.862c5.338-2.254,8.788-7.455,8.788-13.249
			c0-5.791-3.446-10.99-8.78-13.246l5.44-12.858c10.51,4.446,17.302,14.693,17.302,26.104
			C298.618,187.624,291.82,197.873,281.3,202.315z"/>
	</g>
</g>
<g>
</g>
<g>
</g>
<g>
</g>
<g>
</g>
<g>
</g>
<g>
</g>
<g>
</g>
<g>
</g>
<g>
</g>
<g>
</g>
<g>
</g>
<g>
</g>
<g>
</g>
<g>
</g>
<g>
</g>
</svg>
