<?xml version="1.0" encoding="iso-8859-1"?>
<!-- Generator: Adobe Illustrator 18.1.1, SVG Export Plug-In . SVG Version: 6.00 Build 0)  -->
<svg version="1.1" id="Capa_1" xmlns="http://www.w3.org/2000/svg" xmlns:xlink="http://www.w3.org/1999/xlink" x="0px" y="0px"
	 viewBox="0 0 528.195 528.195" style="enable-background:new 0 0 528.195 528.195;" xml:space="preserve">
<path color-rendering="auto" image-rendering="auto" shape-rendering="auto" color-interpolation="sRGB" d="M253.124,164.031
	c-6.761-0.096-6.761,10.096,0,10h30c6.762,0.096,6.762-10.096,0-10H253.124z M313.124,164.031c-6.761-0.096-6.761,10.096,0,10h30
	c6.762,0.096,6.762-10.096,0-10H313.124z M373.124,164.031c-6.761-0.096-6.761,10.096,0,10h30c6.762,0.096,6.762-10.096,0-10
	H373.124z M433.124,164.031c-6.761-0.096-6.761,10.096,0,10h30c6.762,0.096,6.762-10.096,0-10H433.124z M493.124,164.031
	c-6.761-0.096-6.761,10.096,0,10h30c6.762,0.096,6.762-10.096,0-10H493.124z M333.023,184.033c-1.989,0.04-3.764,1.255-4.522,3.094
	l-70,170c-2.713,6.236,6.782,10.146,9.246,3.807l19.313-46.902h92.129l19.312,46.902c2.464,6.339,11.96,2.43,9.246-3.807l-70-170
	C336.961,185.22,335.085,183.991,333.023,184.033z M333.124,202.16l41.948,101.871h-83.895L333.124,202.16z M253.124,234.031
	c-6.761-0.096-6.761,10.096,0,10h30c6.762,0.096,6.762-10.096,0-10H253.124z M373.124,234.031c-6.761-0.096-6.761,10.096,0,10h30
	c6.762,0.096,6.762-10.096,0-10H373.124z M433.124,234.031c-6.761-0.096-6.761,10.096,0,10h30c6.762,0.096,6.762-10.096,0-10
	H433.124z M493.124,234.031c-6.761-0.096-6.761,10.096,0,10h30c6.762,0.096,6.762-10.096,0-10H493.124z M443.124,254.031
	c-6.761-0.096-6.761,10.096,0,10h20c8.344,0,15,6.656,15,15v15h-25c-12.496,0-24.062,6.678-30.31,17.5
	c-6.249,10.822-6.249,24.178,0,35c6.248,10.822,17.814,17.5,30.31,17.5h10c8.163,0,15.448-3.966,20.018-10.066
	c4.568,6.093,11.826,10.066,19.982,10.066c6.762,0.096,6.762-10.096,0-10c-8.343,0-15-6.656-15-15v-60c0-13.748-11.252-25-25-25
	H443.124z M453.124,304.031h25v35c0,8.344-6.656,15-15,15h-10c-8.939,0-17.18-4.758-21.65-12.5c-4.47-7.742-4.47-17.258,0-25
	S444.185,304.031,453.124,304.031z M5.071,272.16c-6.761-0.096-6.761,10.096,0,10h30c6.762,0.096,6.762-10.096,0-10H5.071z
	 M65.071,272.16c-6.761-0.096-6.761,10.096,0,10h30c6.762,0.096,6.762-10.096,0-10H65.071z M125.071,272.16
	c-6.761-0.096-6.761,10.096,0,10h30c6.762,0.096,6.762-10.096,0-10H125.071z M185.071,272.16c-6.761-0.096-6.761,10.096,0,10h30
	c6.762,0.096,6.762-10.096,0-10H185.071z M245.071,272.16c-6.761-0.096-6.761,10.096,0,10h30c6.762,0.096,6.762-10.096,0-10H245.071
	z"/>
<g>
</g>
<g>
</g>
<g>
</g>
<g>
</g>
<g>
</g>
<g>
</g>
<g>
</g>
<g>
</g>
<g>
</g>
<g>
</g>
<g>
</g>
<g>
</g>
<g>
</g>
<g>
</g>
<g>
</g>
</svg>
