<?xml version="1.0" encoding="iso-8859-1"?>
<!-- Generator: Adobe Illustrator 19.0.0, SVG Export Plug-In . SVG Version: 6.00 Build 0)  -->
<svg version="1.1" id="Capa_1" xmlns="http://www.w3.org/2000/svg" xmlns:xlink="http://www.w3.org/1999/xlink" x="0px" y="0px"
	 viewBox="0 0 296.209 296.209" style="enable-background:new 0 0 296.209 296.209;" xml:space="preserve">
<g>
	<path d="M248.072,98.33c0-54.306-44.758-98.33-99.967-98.33C92.895,0,48.137,44.024,48.137,98.33
		c0,48.547,31.353,80.321,31.353,80.321c0.702,0.708,1.282,1.392,2.282,2.038v18.395c0,8.284,7.049,15,15.333,15h42.667v-62.186
		l-27.992-28.157c-3.124-3.125-3.041-8.189,0.083-11.314c3.125-3.123,8.231-3.123,11.356,0l24.864,24.844l24.856-24.844
		c3.125-3.123,8.196-3.122,11.319,0.001c3.124,3.124,2.96,8.189-0.165,11.313l-28.321,28.155v62.188h43.333
		c8.284,0,14.667-6.716,14.667-15v-18.395c1-0.646,1.913-1.33,2.615-2.038C216.386,178.651,248.072,146.877,248.072,98.33z"/>
	<path d="M97.104,231.084c-8.284,0-15.333,6.716-15.333,15v3c0,8.284,7.049,15,15.333,15h18.022
		c0.465,17.82,15.045,32.125,32.978,32.125s32.513-14.305,32.977-32.125h18.023c8.284,0,14.667-6.716,14.667-15v-3
		c0-8.284-6.383-15-14.667-15H97.104z"/>
</g>
<g>
</g>
<g>
</g>
<g>
</g>
<g>
</g>
<g>
</g>
<g>
</g>
<g>
</g>
<g>
</g>
<g>
</g>
<g>
</g>
<g>
</g>
<g>
</g>
<g>
</g>
<g>
</g>
<g>
</g>
</svg>
