<?xml version="1.0" encoding="iso-8859-1"?>
<!-- Generator: Adobe Illustrator 19.0.0, SVG Export Plug-In . SVG Version: 6.00 Build 0)  -->
<svg version="1.1" id="Layer_1" xmlns="http://www.w3.org/2000/svg" xmlns:xlink="http://www.w3.org/1999/xlink" x="0px" y="0px"
	 viewBox="0 0 511.984 511.984" style="enable-background:new 0 0 511.984 511.984;" xml:space="preserve">
<g>
	<g>
		<path d="M256.144,101.928c-26.048,0-47.232,21.344-47.232,47.6c0,26.24,21.184,47.584,47.232,47.584
			c26.048,0,47.232-21.344,47.232-47.584C303.376,123.272,282.192,101.928,256.144,101.928z M256.144,181.128
			c-17.216,0-31.232-14.176-31.232-31.584c0-17.44,14.016-31.6,31.232-31.6s31.232,14.176,31.232,31.6
			C287.376,166.952,273.36,181.128,256.144,181.128z"/>
	</g>
</g>
<g>
	<g>
		<path d="M299.504,216.408l-43.36,32.976l-43.36-32.976c-53.376,16.16-52.704,70.672-52.704,70.672h96.064h96.064
			C352.208,287.08,352.88,232.568,299.504,216.408z"/>
	</g>
</g>
<g>
	<g>
		<path d="M466.976,43.976H45.152c-22.864,0-41.456,18.896-41.456,42.096v224.912c0,23.2,18.592,42.096,41.456,42.096h421.824
			v-0.016c22.848,0,41.424-18.896,41.424-42.096V86.072C508.4,62.872,489.824,43.976,466.976,43.976z M492.384,310.984
			c0,14.384-11.408,26.096-25.424,26.096H45.152c-14.032-0.016-25.456-11.712-25.456-26.112V86.072
			c0-14.384,11.424-26.096,25.456-26.096H466.96c14.016,0,25.424,11.696,25.424,26.096V310.984z"/>
	</g>
</g>
<g>
	<g>
		<path d="M451.12,420.808c-3.664-17.808-19.296-31.184-38.032-31.184S378.72,403,375.056,420.808H0v16h375.056
			c3.664,17.808,19.296,31.2,38.032,31.2s34.368-13.392,38.032-31.2h60.864v-16H451.12z M413.088,452.008
			c-12.608,0-22.848-10.4-22.848-23.2c0-12.784,10.256-23.2,22.848-23.2s22.848,10.4,22.848,23.2
			C435.952,441.608,425.696,452.008,413.088,452.008z"/>
	</g>
</g>
<g>
</g>
<g>
</g>
<g>
</g>
<g>
</g>
<g>
</g>
<g>
</g>
<g>
</g>
<g>
</g>
<g>
</g>
<g>
</g>
<g>
</g>
<g>
</g>
<g>
</g>
<g>
</g>
<g>
</g>
</svg>
