<?xml version="1.0" encoding="iso-8859-1"?>
<!-- Generator: Adobe Illustrator 18.0.0, SVG Export Plug-In . SVG Version: 6.00 Build 0)  -->
<!DOCTYPE svg PUBLIC "-//W3C//DTD SVG 1.1//EN" "http://www.w3.org/Graphics/SVG/1.1/DTD/svg11.dtd">
<svg version="1.1" id="Capa_1" xmlns="http://www.w3.org/2000/svg" xmlns:xlink="http://www.w3.org/1999/xlink" x="0px" y="0px"
	 viewBox="0 0 390.037 390.037" style="enable-background:new 0 0 390.037 390.037;" xml:space="preserve">
<path d="M371.306,333.747V76.209h-43.402l-51.192-51.19l-51.192,51.19h-61.002l-51.192-51.19l-51.192,51.19H18.731v257.538H0v31.272
	h390.037v-31.272H371.306z M219.051,121.21h28.957v51.54h-28.957V121.21z M219.051,203.734h28.957v51.539h-28.957V203.734z
	 M142.029,121.21h28.957v51.54h-28.957V121.21z M142.029,203.734h28.957v51.539h-28.957V203.734z M84.117,255.273H55.16v-51.539
	h28.957V255.273z M84.117,172.75H55.16v-51.54h28.957V172.75z M127.552,255.273H98.595v-51.539h28.957V255.273z M127.552,172.75
	H98.595v-51.54h28.957V172.75z M189.516,333.747H132.69v-54.34h56.826V333.747z M257.347,333.747h-56.826v-54.34h56.826V333.747z
	 M291.442,255.273h-28.957v-51.539h28.957V255.273z M291.442,172.75h-28.957v-51.54h28.957V172.75z M334.877,255.273H305.92v-51.539
	h28.957V255.273z M334.877,172.75H305.92v-51.54h28.957V172.75z"/>
<g>
</g>
<g>
</g>
<g>
</g>
<g>
</g>
<g>
</g>
<g>
</g>
<g>
</g>
<g>
</g>
<g>
</g>
<g>
</g>
<g>
</g>
<g>
</g>
<g>
</g>
<g>
</g>
<g>
</g>
</svg>
