<?xml version="1.0" encoding="iso-8859-1"?>
<!-- Generator: Adobe Illustrator 19.0.0, SVG Export Plug-In . SVG Version: 6.00 Build 0)  -->
<svg version="1.1" id="Layer_1" xmlns="http://www.w3.org/2000/svg" xmlns:xlink="http://www.w3.org/1999/xlink" x="0px" y="0px"
	 viewBox="0 0 489.993 489.993" style="enable-background:new 0 0 489.993 489.993;" xml:space="preserve">
<g>
	<g>
		<g>
			<path d="M312.842,50.137c0-23.487-19.111-42.598-42.598-42.598H46.367C22.88,7.539,3.77,26.65,3.77,50.137v397.258
				c0,23.487,19.111,42.598,42.598,42.598h223.876c23.487,0,42.598-19.111,42.598-42.598v-10.17h22.615v-15.077h-22.615V50.137z
				 M297.766,447.395h-0.001c0,15.176-12.346,27.522-27.522,27.522H46.367c-15.176,0-27.522-12.345-27.522-27.522V50.137
				c0-15.176,12.345-27.522,27.522-27.522h223.876c15.176,0,27.522,12.345,27.522,27.522V447.395z"/>
			<path d="M41.461,233.689H275.15V45.23H41.461V233.689z M56.538,60.307h203.535v158.305H56.538V60.307z"/>
			<path d="M162.075,256.304c-54.038,0-97.999,43.96-97.999,97.999c0,54.038,43.96,97.999,97.999,97.999s97.999-43.96,97.999-97.999
				C260.073,300.264,216.113,256.304,162.075,256.304z M244.616,361.841c-3.602,39.712-35.291,71.401-75.003,75.002V414.61h-15.077
				v22.233c-39.712-3.6-71.401-35.289-75.002-75.002h22.233v-15.077H79.535c3.6-39.712,35.29-71.401,75.002-75.002v22.233h15.077
				v-22.233c39.712,3.6,71.401,35.29,75.002,75.002h-22.233v15.077H244.616z"/>
			<path d="M162.075,316.611c-20.782,0-37.692,16.91-37.692,37.692s16.91,37.692,37.692,37.692s37.692-16.91,37.692-37.692
				C199.766,333.521,182.857,316.611,162.075,316.611z M162.075,376.918c-12.471,0-22.615-10.144-22.615-22.615
				s10.144-22.615,22.615-22.615s22.615,10.144,22.615,22.615C184.69,366.773,174.544,376.918,162.075,376.918z"/>
			<rect x="71.614" y="188.459" width="22.615" height="15.077"/>
			<rect x="109.306" y="188.459" width="135.69" height="15.077"/>
			<rect x="222.38" y="75.384" width="22.615" height="15.077"/>
			<path d="M380.635,37.692c0-12.471,10.144-22.615,22.615-22.615c12.471,0,22.615,10.144,22.615,22.615v256.304h15.077V37.692
				C440.942,16.91,424.032,0,403.25,0c-20.782,0-37.692,16.91-37.692,37.692l0.052,361.841c0,12.471-10.144,22.615-22.615,22.615
				v15.077c20.782,0,37.692-16.91,37.692-37.692L380.635,37.692z"/>
			<polygon points="395.764,444.763 380.687,444.763 380.687,489.993 395.764,489.993 395.764,474.916 425.917,474.916 
				425.917,459.84 395.764,459.84 			"/>
			<polygon points="471.147,444.763 471.147,459.84 440.994,459.84 440.994,474.916 471.147,474.916 471.147,489.993 
				486.224,489.993 486.224,444.763 			"/>
			<rect x="425.917" y="301.534" width="15.077" height="15.077"/>
			<polygon points="448.532,452.301 463.609,452.301 463.609,358.72 440.994,336.105 440.994,324.149 425.917,324.149 
				425.917,336.105 403.302,358.72 403.302,452.301 418.379,452.301 418.379,364.962 433.455,349.886 448.532,364.962 			"/>
		</g>
	</g>
</g>
<g>
</g>
<g>
</g>
<g>
</g>
<g>
</g>
<g>
</g>
<g>
</g>
<g>
</g>
<g>
</g>
<g>
</g>
<g>
</g>
<g>
</g>
<g>
</g>
<g>
</g>
<g>
</g>
<g>
</g>
</svg>
