<?xml version="1.0" encoding="iso-8859-1"?>
<!-- Generator: Adobe Illustrator 19.0.0, SVG Export Plug-In . SVG Version: 6.00 Build 0)  -->
<svg version="1.1" id="Layer_1" xmlns="http://www.w3.org/2000/svg" xmlns:xlink="http://www.w3.org/1999/xlink" x="0px" y="0px"
	 viewBox="0 0 512 512" style="enable-background:new 0 0 512 512;" xml:space="preserve">
<path style="fill:#1D1D1F;" d="M507.109,262.316L402.531,157.738c-6.519-6.52-17.091-6.52-23.611,0l-90.713,90.713
	c-6.52,6.52-6.52,17.091,0,23.611l195.291,195.291c3.194,3.194,7.464,4.891,11.809,4.891c2.15,0,4.32-0.416,6.386-1.271
	C507.932,468.388,512,462.3,512,455.548V274.121C512,269.693,510.24,265.447,507.109,262.316z"/>
<path style="fill:#57565C;" d="M315.209,39.756H144.983C65.04,39.756,0,104.796,0,184.739s65.04,144.983,144.983,144.983h298.514
	c9.22,0,16.696-7.475,16.696-16.696V184.739C460.192,104.796,395.153,39.756,315.209,39.756z"/>
<path style="fill:#2D2E30;" d="M315.209,39.756h-85.113v289.966h213.4c9.22,0,16.696-7.475,16.696-16.696V184.739
	C460.192,104.796,395.153,39.756,315.209,39.756z"/>
<path style="fill:#67D1D3;" d="M383.996,184.739c0,52.325-42.418,94.742-94.742,94.742H163.537
	c-52.325,0-94.742-42.418-94.742-94.742s42.418-94.742,94.742-94.742h125.716C341.579,89.997,383.996,132.414,383.996,184.739z"/>
<path style="fill:#38979E;" d="M289.253,89.997h-59.157v189.486h59.157c52.325,0,94.742-42.418,94.742-94.742
	S341.579,89.997,289.253,89.997z"/>
<g>
	<path style="fill:#FFFFFF;" d="M163.537,89.997c-0.018,0-0.037,0.001-0.055,0.001l-94.687,94.687c0,0.018-0.001,0.037-0.001,0.055
		c0,13.844,2.994,26.982,8.331,38.837l133.58-133.58H163.537z"/>
	<path style="fill:#FFFFFF;" d="M289.253,89.997h-41.332l-91.659,91.659c-6.52,6.52-6.52,17.091,0,23.611
		c3.26,3.26,7.533,4.891,11.805,4.891c4.272,0,8.546-1.63,11.805-4.891L294.957,90.183C293.069,90.07,291.17,89.997,289.253,89.997z
		"/>
</g>
<g>
</g>
<g>
</g>
<g>
</g>
<g>
</g>
<g>
</g>
<g>
</g>
<g>
</g>
<g>
</g>
<g>
</g>
<g>
</g>
<g>
</g>
<g>
</g>
<g>
</g>
<g>
</g>
<g>
</g>
</svg>
