<?xml version="1.0" encoding="iso-8859-1"?>
<!-- Generator: Adobe Illustrator 18.0.0, SVG Export Plug-In . SVG Version: 6.00 Build 0)  -->
<!DOCTYPE svg PUBLIC "-//W3C//DTD SVG 1.1//EN" "http://www.w3.org/Graphics/SVG/1.1/DTD/svg11.dtd">
<svg version="1.1" id="Capa_1" xmlns="http://www.w3.org/2000/svg" xmlns:xlink="http://www.w3.org/1999/xlink" x="0px" y="0px"
	 viewBox="0 0 297 297" style="enable-background:new 0 0 297 297;" xml:space="preserve">
<g>
	<path d="M245.302,234.504c13.553-13.553,42.73-54.915,42.73-80.465c0-24.796-18.696-45.295-42.73-48.174v-5.107
		C245.302,45.2,200.102,0,144.544,0S43.785,45.2,43.785,100.758v3.165H22.684c-4.754,0-9.168,2.461-11.668,6.505
		c-2.499,4.044-2.726,9.094-0.601,13.345l33.369,66.739v92.772c0,7.575,6.141,13.716,13.716,13.716h174.085
		c7.575,0,13.716-6.141,13.716-13.716V234.504z M144.544,27.432c35.744,0,65.578,25.714,72.021,59.611H72.522
		C78.965,53.146,108.8,27.432,144.544,27.432z M71.217,269.568V114.474H217.87v155.094H71.217z M245.302,133.768
		c8.819,2.529,15.298,10.65,15.298,20.271c0,8.51-6.947,24.049-15.298,37.675V133.768z"/>
	<path d="M179.888,138.741h-34.817c-7.575,0-13.716,6.141-13.716,13.716s6.141,13.716,13.716,13.716h34.817
		c7.575,0,13.716-6.141,13.716-13.716S187.463,138.741,179.888,138.741z"/>
	<path d="M179.888,187.274h-34.817c-7.575,0-13.716,6.141-13.716,13.716c0,7.575,6.141,13.716,13.716,13.716h34.817
		c7.575,0,13.716-6.141,13.716-13.716C193.604,193.414,187.463,187.274,179.888,187.274z"/>
</g>
<g>
</g>
<g>
</g>
<g>
</g>
<g>
</g>
<g>
</g>
<g>
</g>
<g>
</g>
<g>
</g>
<g>
</g>
<g>
</g>
<g>
</g>
<g>
</g>
<g>
</g>
<g>
</g>
<g>
</g>
</svg>
