<?xml version="1.0" encoding="iso-8859-1"?>
<!-- Generator: Adobe Illustrator 19.0.0, SVG Export Plug-In . SVG Version: 6.00 Build 0)  -->
<svg version="1.1" id="Layer_1" xmlns="http://www.w3.org/2000/svg" xmlns:xlink="http://www.w3.org/1999/xlink" x="0px" y="0px"
	 viewBox="0 0 512 512" style="enable-background:new 0 0 512 512;" xml:space="preserve">
<rect x="382.619" y="272.516" style="fill:#AFB6BB;" width="60.56" height="33.032"/>
<rect x="382.619" y="217.47" style="fill:#546A79;" width="60.56" height="55.046"/>
<rect x="178.935" y="151.406" style="fill:#E7ECED;" width="55.046" height="44.039"/>
<g>
	<polygon style="fill:#AFB6BB;" points="261.504,107.367 261.504,151.406 233.976,151.406 178.93,151.406 151.401,151.406 
		151.401,107.367 	"/>
	<rect x="261.499" y="393.626" style="fill:#AFB6BB;" width="60.56" height="49.553"/>
	<rect x="90.847" y="393.626" style="fill:#AFB6BB;" width="60.549" height="49.553"/>
</g>
<polygon style="fill:#546A79;" points="68.827,360.594 63.324,327.562 90.852,327.562 322.064,327.562 349.582,327.562 
	338.575,393.626 322.064,393.626 261.504,393.626 151.401,393.626 90.852,393.626 74.331,393.626 "/>
<polygon style="fill:#E7ECED;" points="382.614,443.179 382.614,503.728 30.292,503.728 30.292,443.179 90.852,443.179 
	151.401,443.179 261.504,443.179 322.064,443.179 "/>
<polygon style="fill:#546A79;" points="382.614,107.367 322.064,107.367 261.504,107.367 151.401,107.367 90.852,107.367 
	30.292,107.367 30.292,8.272 382.614,8.272 "/>
<g>
	<polygon style="fill:#F4661E;" points="382.614,305.548 382.614,443.179 322.064,443.179 322.064,393.626 338.575,393.626 
		349.582,327.562 322.064,327.562 322.064,107.367 382.614,107.367 382.614,217.47 382.614,272.516 	"/>
	<polygon style="fill:#F4661E;" points="90.852,393.626 90.852,443.179 30.292,443.179 30.292,107.367 90.852,107.367 
		90.852,327.562 63.324,327.562 68.827,360.594 74.331,393.626 	"/>
</g>
<rect x="178.935" y="44.039" width="22.025" height="16.544"/>
<rect x="211.967" y="44.039" width="22.014" height="16.544"/>
<path d="M476.206,0H22.02v512h368.865V313.82h60.56v-33.032h24.759c5.538,0,13.775-4.629,13.775-17.382V17.382
	C489.981,7.147,484.317,0,476.206,0z M374.342,16.544v27.495H258.736v35.8h16.544V60.582h99.063v38.513H38.564V60.582h99.063v19.257
	h16.544v-35.8H38.564V16.544H374.342z M269.776,434.907v-33.01h44.017v33.01H269.776z M143.13,401.897v33.01H99.124v-33.01H143.13z
	 M159.673,401.897h93.559v33.01h-93.559V401.897z M81.338,385.354l-2.747-16.488h226.952v-16.544H75.835l-2.747-16.488h266.729
	l-8.25,49.52L81.338,385.354L81.338,385.354z M99.124,319.29V115.639h44.006v44.039h27.528v44.039h71.589v-44.039h27.527v-44.039
	h44.017V319.29H99.124z M159.673,143.135v-27.495h93.559v27.495H159.673z M225.704,159.678v27.495h-38.502v-27.495H225.704z
	 M38.564,115.639H82.58V319.29H53.56l13.763,82.607h15.256v33.01H38.562V115.639H38.564z M374.342,495.456H38.564v-44.006h335.778
	V495.456z M374.342,434.907h-44.006v-33.01h15.245l13.764-82.607h-29.011V115.639h44.006v319.268H374.342z M434.902,264.244h-44.017
	v-38.502h44.017V264.244z M390.885,297.276v-16.488h44.017v16.488H390.885z M473.438,263.406c0,0.319-0.011,0.597-0.026,0.838
	h-21.964v-55.046h-60.56V16.544h82.484c0.039,0.298,0.064,0.59,0.068,0.838v246.024H473.438z"/>
<g>
</g>
<g>
</g>
<g>
</g>
<g>
</g>
<g>
</g>
<g>
</g>
<g>
</g>
<g>
</g>
<g>
</g>
<g>
</g>
<g>
</g>
<g>
</g>
<g>
</g>
<g>
</g>
<g>
</g>
</svg>
