<?xml version="1.0" encoding="iso-8859-1"?>
<!-- Generator: Adobe Illustrator 19.0.0, SVG Export Plug-In . SVG Version: 6.00 Build 0)  -->
<svg version="1.1" id="Layer_1" xmlns="http://www.w3.org/2000/svg" xmlns:xlink="http://www.w3.org/1999/xlink" x="0px" y="0px"
	 viewBox="0 0 512 512" style="enable-background:new 0 0 512 512;" xml:space="preserve">
<g>
	<polygon style="fill:#AFB6BB;" points="382.619,291.784 382.619,434.918 222.974,434.918 222.974,379.861 222.974,324.816 
		244.988,324.816 244.988,291.784 289.026,291.784 289.026,324.816 344.083,324.816 344.083,291.784 	"/>
	<polygon style="fill:#AFB6BB;" points="453.568,71.578 426.657,132.139 371.612,132.139 344.69,71.578 	"/>
</g>
<polygon style="fill:#546A79;" points="470.696,33.043 453.568,71.578 344.69,71.578 327.562,33.043 "/>
<g>
	<rect x="371.612" y="132.139" style="fill:#E7ECED;" width="55.046" height="49.542"/>
	<rect x="289.026" y="291.784" style="fill:#E7ECED;" width="55.057" height="33.032"/>
	<polygon style="fill:#E7ECED;" points="244.988,291.784 244.988,324.816 222.974,324.816 189.942,324.816 189.942,291.784 	"/>
	<rect x="90.846" y="291.784" style="fill:#E7ECED;" width="55.057" height="33.032"/>
</g>
<g>
	<rect x="432.161" y="181.681" style="fill:#AFB6BB;" width="71.567" height="49.542"/>
	<polygon style="fill:#AFB6BB;" points="503.728,335.822 503.728,379.861 465.193,379.861 426.657,379.861 426.657,335.822 	"/>
	<rect x="465.193" y="379.861" style="fill:#AFB6BB;" width="38.535" height="99.096"/>
	<rect x="426.657" y="379.861" style="fill:#AFB6BB;" width="38.535" height="99.096"/>
	<polygon style="fill:#AFB6BB;" points="222.974,379.861 222.974,434.918 96.349,434.918 96.349,478.957 57.814,478.957 
		57.814,379.861 	"/>
</g>
<g>
	<polygon style="fill:#546A79;" points="222.974,324.816 222.974,379.861 57.814,379.861 57.814,291.784 90.846,291.784 
		90.846,324.816 145.903,324.816 145.903,291.784 189.942,291.784 189.942,324.816 	"/>
	<polygon style="fill:#546A79;" points="382.619,434.918 382.619,478.957 96.361,478.957 96.349,478.957 96.349,434.918 
		222.974,434.918 	"/>
	<rect x="57.814" y="33.043" style="fill:#546A79;" width="165.16" height="148.638"/>
</g>
<polygon style="fill:#E7ECED;" points="382.619,291.784 344.083,291.784 289.026,291.784 244.988,291.784 189.942,291.784 
	145.903,291.784 90.846,291.784 57.814,291.784 8.272,291.784 8.272,231.223 432.161,231.223 503.728,231.223 503.728,335.822 
	426.657,335.822 426.657,379.861 426.657,478.957 382.619,478.957 382.619,434.918 "/>
<polygon style="fill:#AFB6BB;" points="432.161,181.681 432.161,231.223 8.272,231.223 8.272,181.681 57.814,181.681 
	222.974,181.681 371.612,181.681 426.657,181.681 "/>
<path d="M434.929,173.409v-39.516l48.497-109.122H314.833l48.507,109.124v39.514H231.245V24.771H49.542v148.638H0v126.646h49.542
	v187.173H512v-313.82H434.929z M495.456,222.952h-55.024v-32.999h55.025v32.999H495.456z M376.987,123.867L357.421,79.85h83.422
	l-19.561,44.017H376.987z M457.968,41.315l-9.773,21.992h-98.128l-9.776-21.992H457.968z M379.883,140.41h38.501v32.999h-38.501
	V140.41z M66.086,41.315h148.616v132.095H66.086V41.315z M423.889,189.953v32.999H16.544v-32.999H423.889z M82.574,300.055v33.032
	h71.6v-33.032h27.495v33.032h33.032v38.502H66.086v-71.534H82.574z M99.118,300.055h38.513v16.488H99.118V300.055z M297.298,300.055
	h38.514v16.488h-38.514V300.055z M352.355,333.087v-33.032h21.991v126.591h-143.1v-93.559h22.014v-33.032h27.495v33.032H352.355z
	 M236.716,316.544h-38.502v-16.488h38.502V316.544z M88.078,426.646v44.039H66.086v-82.552h148.616v38.513L88.078,426.646
	L88.078,426.646z M374.347,470.685H104.621V443.19h269.726L374.347,470.685L374.347,470.685z M390.89,300.055H476.2v-16.544H16.544
	v-44.017h478.913v88.056h-77.071v143.135H390.89V300.055z M434.929,388.133h21.992v82.552h-21.992V388.133z M434.929,371.59v-27.495
	h60.528v27.495H434.929z M473.465,470.685v-82.552h21.992v82.552H473.465z"/>
<rect x="85.343" y="68.81" width="110.103" height="16.544"/>
<rect x="173.42" y="112.86" width="22.025" height="16.544"/>
<rect x="129.381" y="112.86" width="22.026" height="16.544"/>
<rect x="85.343" y="112.86" width="22.025" height="16.544"/>
<g>
</g>
<g>
</g>
<g>
</g>
<g>
</g>
<g>
</g>
<g>
</g>
<g>
</g>
<g>
</g>
<g>
</g>
<g>
</g>
<g>
</g>
<g>
</g>
<g>
</g>
<g>
</g>
<g>
</g>
</svg>
