<?xml version="1.0" encoding="iso-8859-1"?>
<!-- Generator: Adobe Illustrator 19.0.0, SVG Export Plug-In . SVG Version: 6.00 Build 0)  -->
<svg version="1.1" id="Layer_1" xmlns="http://www.w3.org/2000/svg" xmlns:xlink="http://www.w3.org/1999/xlink" x="0px" y="0px"
	 viewBox="0 0 512 512" style="enable-background:new 0 0 512 512;" xml:space="preserve">
<g>
	<polygon style="fill:#E7ECED;" points="409.003,26.498 409.003,79.458 297.2,79.458 297.2,67.692 214.812,67.692 214.812,79.458 
		102.997,79.458 102.997,26.498 	"/>
	<polygon style="fill:#E7ECED;" points="409.003,114.769 409.003,285.428 332.499,285.428 279.539,232.467 279.539,126.535 
		297.2,126.535 297.2,114.769 	"/>
	<polygon style="fill:#E7ECED;" points="232.461,126.535 232.461,232.467 179.501,285.428 102.997,285.428 102.997,114.769 
		214.812,114.769 214.812,126.535 	"/>
</g>
<polygon style="fill:#546A79;" points="332.499,285.428 179.501,285.428 232.461,232.467 232.461,126.535 279.539,126.535 
	279.539,232.467 "/>
<g>
	<rect x="297.2" y="79.452" style="fill:#AFB6BB;" width="111.804" height="35.311"/>
	<rect x="102.997" y="79.452" style="fill:#AFB6BB;" width="111.815" height="35.311"/>
	<polygon style="fill:#AFB6BB;" points="409.003,285.428 409.003,344.271 102.997,344.271 102.997,285.428 179.501,285.428 
		332.499,285.428 	"/>
</g>
<rect x="150.074" y="391.354" style="fill:#E7ECED;" width="211.853" height="94.154"/>
<g>
	<polygon style="fill:#F26522;" points="409.003,344.271 409.003,485.502 361.926,485.502 361.926,391.348 150.074,391.348 
		150.074,485.502 102.997,485.502 102.997,344.271 	"/>
	<polygon style="fill:#F26522;" points="297.2,114.769 297.2,126.535 279.539,126.535 232.461,126.535 214.812,126.535 
		214.812,114.769 214.812,79.458 214.812,67.692 297.2,67.692 297.2,79.458 	"/>
</g>
<g>
	<polygon style="fill:#546A79;" points="461.964,26.498 503.158,26.498 503.158,485.502 409.003,485.502 409.003,344.271 
		409.003,285.428 409.003,114.769 409.003,79.458 409.003,26.498 	"/>
	<polygon style="fill:#546A79;" points="50.036,26.498 102.997,26.498 102.997,79.458 102.997,114.769 102.997,285.428 
		102.997,344.271 102.997,485.502 8.842,485.502 8.842,26.498 	"/>
</g>
<path d="M0,17.655v476.689h512V17.655H0z M353.084,476.66H158.916V400.19h194.168L353.084,476.66L353.084,476.66z M141.231,382.506
	v94.154h-29.392V353.113h288.322V476.66h-29.392v-94.154H141.231z M306.042,88.3h94.119v17.626h-94.119L306.042,88.3L306.042,88.3z
	 M400.161,335.429H111.839V294.27h288.322V335.429z M241.304,135.376h29.392v100.753l40.455,40.455h-110.3l40.455-40.455V135.376
	H241.304z M306.042,135.376v-11.765h94.119v152.974h-63.999l-47.781-47.781v-93.428
	C288.381,135.376,306.042,135.376,306.042,135.376z M288.357,117.691h-64.703V76.534h64.703V117.691z M223.619,228.804
	l-47.781,47.78h-63.999V123.61h94.131v11.765h17.649V228.804z M205.97,105.926h-94.131V88.3h94.131V105.926z M400.161,70.616
	h-94.119V58.85H205.97v11.765h-94.131V35.34h288.322V70.616z M17.685,35.34h23.509v408.968h17.685V35.34h35.275v441.32H17.685V35.34
	z M494.315,476.66h-76.469V35.34h35.275v408.968h17.685V35.34h23.508v441.32H494.315z"/>
<rect x="179.501" y="429.577" width="111.804" height="17.685"/>
<rect x="308.966" y="429.577" width="23.533" height="17.685"/>
<g>
</g>
<g>
</g>
<g>
</g>
<g>
</g>
<g>
</g>
<g>
</g>
<g>
</g>
<g>
</g>
<g>
</g>
<g>
</g>
<g>
</g>
<g>
</g>
<g>
</g>
<g>
</g>
<g>
</g>
</svg>
