<?xml version="1.0" encoding="iso-8859-1"?>
<!-- Generator: Adobe Illustrator 19.0.0, SVG Export Plug-In . SVG Version: 6.00 Build 0)  -->
<svg version="1.1" id="Layer_1" xmlns="http://www.w3.org/2000/svg" xmlns:xlink="http://www.w3.org/1999/xlink" x="0px" y="0px"
	 viewBox="0 0 510.396 510.396" style="enable-background:new 0 0 510.396 510.396;" xml:space="preserve">
<g>
	<g>
		<path d="M460.344,159.26c-27.564,0-52.568,22.424-52.568,49.988v78.836v4.924v33.736c0,11.516-4.204,24.452-15.724,24.452H122.264
			c-11.52,0-26.488-12.936-26.488-24.452v-33.736v-4.924v-78.836c0-27.564-19.624-49.988-47.184-49.988
			C21.024,159.26,0,181.684,0,209.248c0,19.06,8.424,36.2,25.564,44.728c2.712,1.348,2.212,4.124,2.212,7.16v90.768
			c0,18.468,12,34.252,28,40.568v33.984c0,11.536,15.076,24.744,26.612,24.744H432.6c11.54,0,15.176-13.204,15.176-24.744v-34.228
			c16-6.488,28-22.104,28-40.324v-90.768c0-3.036,4.18-5.812,6.896-7.164c17.136-8.528,27.724-25.668,27.724-44.728
			C510.396,181.684,487.912,159.26,460.344,159.26z"/>
	</g>
</g>
<g>
	<g>
		<path d="M381.472,59.196H133.344c-39.7,0-77.568,28.3-77.568,68v16.9c32,4.824,56,32.16,56,65.152v58.584
			c0,4.176,5.388,3.428,11.812,3.364h266.936c1.692,0,1.252-3.744,1.252-3.364v-58.584c0-33.164,24-60.616,56-65.228v-16.824
			C447.776,87.496,421.172,59.196,381.472,59.196z"/>
	</g>
</g>
<g>
	<g>
		<path d="M386.276,287.196H122.264c-2.648,0-10.488-0.46-10.488,2.188v3.624v33.736c0,8.452,0,8.452,10.488,8.452h265.512
			c4,0,4,0,4-8.452v-33.736v-4.376C391.712,287.172,388.924,287.196,386.276,287.196z"/>
	</g>
</g>
<g>
</g>
<g>
</g>
<g>
</g>
<g>
</g>
<g>
</g>
<g>
</g>
<g>
</g>
<g>
</g>
<g>
</g>
<g>
</g>
<g>
</g>
<g>
</g>
<g>
</g>
<g>
</g>
<g>
</g>
</svg>
