<?xml version="1.0" encoding="iso-8859-1"?>
<!-- Generator: Adobe Illustrator 18.0.0, SVG Export Plug-In . SVG Version: 6.00 Build 0)  -->
<!DOCTYPE svg PUBLIC "-//W3C//DTD SVG 1.1//EN" "http://www.w3.org/Graphics/SVG/1.1/DTD/svg11.dtd">
<svg version="1.1" id="Capa_1" xmlns="http://www.w3.org/2000/svg" xmlns:xlink="http://www.w3.org/1999/xlink" x="0px" y="0px"
	 viewBox="0 0 297.5 297.5" style="enable-background:new 0 0 297.5 297.5;" xml:space="preserve">
<g>
	<g id="XMLID_41_">
		<g>
			<path style="fill:#A97819;" d="M239.13,273.38c0.07,1.39-0.39,2.69-1.31,3.65c-0.91,0.95-2.181,1.479-3.57,1.479H63.26
				c-1.399,0-2.67-0.529-3.58-1.479c-0.91-0.96-1.38-2.261-1.31-3.65l6.54-130.72h167.68L239.13,273.38z M189.04,226.04v-46.37
				c0-5.18-4.2-9.37-9.37-9.37h-61.83c-5.18,0-9.37,4.19-9.37,9.37v46.37c0,3.55,2,6.8,5.181,8.38l30.909,15.46
				c1.32,0.66,2.761,0.99,4.19,0.99c1.439,0,2.87-0.33,4.189-0.99l30.921-15.46C187.04,232.84,189.04,229.59,189.04,226.04z"/>
			<polygon style="fill:#F5B543;" points="170.3,189.04 170.3,220.25 148.75,231.03 127.2,220.25 127.2,189.04 			"/>
			<rect x="96.58" y="65.37" style="fill:#F5B543;" width="104.35" height="58.55"/>
			<path d="M272.42,123.92c5.18,0,9.37,4.2,9.37,9.37c0,5.17-4.19,9.37-9.37,9.37h-21.07l6.49,129.78
				c0.33,6.569-1.96,12.79-6.439,17.5c-4.48,4.71-10.58,7.31-17.15,7.31H63.26c-6.58,0-12.67-2.6-17.16-7.31
				c-4.479-4.71-6.77-10.931-6.44-17.5l6.49-129.78H25.08c-5.17,0-9.37-4.2-9.37-9.37c0-5.17,4.2-9.37,9.37-9.37h52.76V56
				c0-5.18,4.19-9.37,9.37-9.37h13.57c0.87-25.72,22.05-46.38,47.97-46.38c25.93,0,47.11,20.66,47.98,46.38h13.57
				c5.17,0,9.37,4.19,9.37,9.37v67.92H272.42z M237.82,277.03c0.92-0.96,1.38-2.261,1.31-3.65l-6.54-130.72H64.91l-6.54,130.72
				c-0.07,1.39,0.399,2.69,1.31,3.65c0.91,0.95,2.181,1.479,3.58,1.479h170.99C235.64,278.51,236.91,277.98,237.82,277.03z
				 M200.93,123.92V65.37H96.58v58.55H200.93z M119.52,46.63h58.46c-0.85-15.39-13.63-27.64-29.23-27.64
				C133.16,18.99,120.38,31.24,119.52,46.63z"/>
			<path d="M189.04,179.67v46.37c0,3.55-2,6.8-5.18,8.38l-30.921,15.46c-1.319,0.66-2.75,0.99-4.189,0.99
				c-1.43,0-2.87-0.33-4.19-0.99l-30.909-15.46c-3.181-1.58-5.181-4.83-5.181-8.38v-46.37c0-5.18,4.19-9.37,9.37-9.37h61.83
				C184.84,170.3,189.04,174.49,189.04,179.67z M170.3,220.25v-31.21h-43.1v31.21l21.55,10.78L170.3,220.25z"/>
		</g>
		<g>
		</g>
	</g>
</g>
<g>
</g>
<g>
</g>
<g>
</g>
<g>
</g>
<g>
</g>
<g>
</g>
<g>
</g>
<g>
</g>
<g>
</g>
<g>
</g>
<g>
</g>
<g>
</g>
<g>
</g>
<g>
</g>
<g>
</g>
</svg>
