<?xml version="1.0" encoding="iso-8859-1"?>
<!-- Generator: Adobe Illustrator 18.0.0, SVG Export Plug-In . SVG Version: 6.00 Build 0)  -->
<!DOCTYPE svg PUBLIC "-//W3C//DTD SVG 1.1//EN" "http://www.w3.org/Graphics/SVG/1.1/DTD/svg11.dtd">
<svg version="1.1" id="Capa_1" xmlns="http://www.w3.org/2000/svg" xmlns:xlink="http://www.w3.org/1999/xlink" x="0px" y="0px"
	 viewBox="0 0 297.5 297.5" style="enable-background:new 0 0 297.5 297.5;" xml:space="preserve">
<g id="XMLID_44_">
	<g>
		<rect x="21.019" y="224.11" style="fill:#F5B543;" width="255.46" height="30.149"/>
		<path style="fill:#F5B543;" d="M206.91,34.07v40.64c-16.76-2.8-35.58-4.64-56.12-4.64c-20.16,0-40.26,1.79-60.19,5.35V34.07
			c0-5.731,4.66-10.391,10.38-10.391h95.54C202.25,23.68,206.91,28.34,206.91,34.07z"/>
		<path style="fill:#A97819;" d="M276.479,117.32v86.02H73.46v-75.29c0-5.74-4.65-10.38-10.38-10.38c-5.74,0-10.38,4.64-10.38,10.38
			v75.29H21.02V117.73C63.25,99.88,106.88,90.84,150.79,90.84C214.48,90.84,261.28,110.14,276.479,117.32z"/>
		<path d="M297.25,110.92v153.72c0,5.74-4.65,10.391-10.38,10.391h-6.99v9.17c0,5.74-4.65,10.38-10.39,10.38
			c-5.73,0-10.38-4.64-10.38-10.38v-9.17H40.479v9.17c0,5.74-4.649,10.38-10.39,10.38c-5.729,0-10.38-4.64-10.38-10.38v-9.17h-9.07
			c-5.739,0-10.39-4.65-10.39-10.391V110.92c0-4.11,2.42-7.83,6.17-9.49c20.83-9.26,42-16.479,63.41-21.649V34.07
			c0-17.181,13.979-31.15,31.149-31.15h95.54c17.181,0,31.16,13.97,31.16,31.15V78.85c39.13,9.12,62.78,22.17,64.27,23.011
			C295.229,103.7,297.25,107.16,297.25,110.92z M276.479,254.26V224.11H21.02v30.149H276.479z M276.479,203.34v-86.02
			c-15.199-7.181-62-26.48-125.689-26.48c-43.91,0-87.54,9.04-129.77,26.891v85.609H52.7v-75.29c0-5.74,4.64-10.38,10.38-10.38
			c5.729,0,10.38,4.64,10.38,10.38v75.29H276.479z M206.91,74.71V34.07c0-5.731-4.66-10.391-10.391-10.391h-95.54
			c-5.72,0-10.38,4.66-10.38,10.391v41.35c19.931-3.56,40.03-5.35,60.19-5.35C171.33,70.07,190.15,71.91,206.91,74.71z"/>
	</g>
	<g>
	</g>
</g>
<g>
</g>
<g>
</g>
<g>
</g>
<g>
</g>
<g>
</g>
<g>
</g>
<g>
</g>
<g>
</g>
<g>
</g>
<g>
</g>
<g>
</g>
<g>
</g>
<g>
</g>
<g>
</g>
<g>
</g>
</svg>
