<?xml version="1.0" encoding="iso-8859-1"?>
<!-- Generator: Adobe Illustrator 18.0.0, SVG Export Plug-In . SVG Version: 6.00 Build 0)  -->
<!DOCTYPE svg PUBLIC "-//W3C//DTD SVG 1.1//EN" "http://www.w3.org/Graphics/SVG/1.1/DTD/svg11.dtd">
<svg version="1.1" id="Capa_1" xmlns="http://www.w3.org/2000/svg" xmlns:xlink="http://www.w3.org/1999/xlink" x="0px" y="0px"
	 viewBox="0 0 445.433 445.433" style="enable-background:new 0 0 445.433 445.433;" xml:space="preserve">
<g>
	<path d="M131.269,8.233L75.466,44.932c-3.23,2.124-4.126,6.465-2.002,9.694c1.345,2.045,3.578,3.155,5.855,3.155
		c1.32,0,2.655-0.373,3.84-1.152l55.803-36.698c3.23-2.124,4.127-6.465,2.003-9.694C138.84,7.006,134.498,6.109,131.269,8.233z"/>
	<path d="M159.997,16.303V7c0-3.866-3.134-7-7-7c-3.866,0-7,3.134-7,7v9.303c0,3.866,3.134,7,7,7
		C156.863,23.303,159.997,20.169,159.997,16.303z"/>
	<path d="M373.121,79.02c0-41.113-33.45-74.561-74.565-74.561c-37.625,0-68.832,27.807-73.783,64.433h-28.22l-18.277-56.948
		c-1.181-3.681-5.123-5.708-8.804-4.526c-3.681,1.182-5.708,5.123-4.526,8.805l16.904,52.67h-17.259c-3.866,0-7,3.134-7,7
		c0,0-0.006,199.839,0,199.962c1.941,36.877,30.743,66.236,66.882,69.626v56.944l-56.996,29.807
		c-2.856,1.494-4.323,4.744-3.554,7.873c0.769,3.129,3.575,5.33,6.798,5.33h121.505c3.223,0,6.029-2.2,6.798-5.33
		c0.769-3.129-0.698-6.379-3.554-7.874l-56.997-29.806v-56.944c36.136-3.39,64.937-32.749,66.883-69.625
		c0.006-0.123,0-122.601,0-122.601C343.295,149.806,373.121,117.837,373.121,79.02z M171.591,82.892h14.752l12.133,37.805h-26.885
		V82.892z M263.735,431.433h-64.523l32.261-16.871L263.735,431.433z M291.356,144.933v130.362
		c-1.768,31.707-28.036,56.518-59.883,56.518c-14.103,0-27.106-4.872-37.378-13.045c-12.925-10.286-21.521-25.804-22.504-43.471
		v-140.6h119.765V144.933z M291.356,120.696h-78.213c-0.049-0.225-0.107-0.449-0.179-0.673l-11.917-37.132h90.309V120.696z
		 M305.408,139.192V75.861c0-3.866-3.134-7-7-7h-48.335h-11.149c4.831-28.791,29.744-50.402,59.633-50.402
		c17.25,0,32.827,7.261,43.868,18.872c10.334,10.867,16.697,25.544,16.697,41.688C359.121,110.096,335.591,135.779,305.408,139.192z
		"/>
	<path d="M262.266,42.645c-1.934,1.933-2.494,4.714-1.693,7.145c0.331,1.006,0.891,1.954,1.691,2.755l9.811,9.816
		c1.367,1.368,3.159,2.052,4.951,2.052c1.791,0,3.582-0.684,4.949-2.05c2.734-2.733,2.735-7.165,0.002-9.899l-9.812-9.815
		c-0.811-0.811-1.772-1.375-2.793-1.705C266.951,40.158,264.189,40.722,262.266,42.645z"/>
	<path d="M325.197,95.676c-2.733-2.734-7.165-2.734-9.899-0.002c-2.734,2.733-2.735,7.166-0.002,9.899l9.811,9.816
		c1.367,1.368,3.159,2.052,4.951,2.052c1.791,0,3.582-0.684,4.949-2.05c2.734-2.733,2.735-7.165,0.002-9.899L325.197,95.676z"/>
	<path d="M325.107,42.646l-9.811,9.815c-2.733,2.734-2.732,7.167,0.002,9.899c1.367,1.366,3.158,2.05,4.949,2.05
		c1.792,0,3.584-0.684,4.951-2.052l9.812-9.816c2.733-2.734,2.732-7.166-0.002-9.899C332.272,39.912,327.84,39.913,325.107,42.646z"
		/>
	<path d="M196.192,307.163c8.885,9.272,21.041,14.105,36.128,14.362c0.041,0.001,0.082,0.001,0.122,0.001
		c3.81,0,6.931-3.056,6.997-6.881c0.066-3.865-3.014-7.053-6.879-7.118c-11.177-0.191-19.99-3.549-26.191-9.979
		c-11.125-11.537-10.911-29.571-10.908-29.73c0.001-0.06,0.002-0.119,0.002-0.179v-16.973c0-3.866-3.134-7-7-7
		c-3.445,0-6.303,2.491-6.885,5.77c-0.071,0.4-0.115,0.81-0.115,1.23v0.002v16.901C181.43,269.545,181.404,291.731,196.192,307.163z
		"/>
</g>
<g>
</g>
<g>
</g>
<g>
</g>
<g>
</g>
<g>
</g>
<g>
</g>
<g>
</g>
<g>
</g>
<g>
</g>
<g>
</g>
<g>
</g>
<g>
</g>
<g>
</g>
<g>
</g>
<g>
</g>
</svg>
