<?xml version="1.0" encoding="iso-8859-1"?>
<!-- Generator: Adobe Illustrator 19.0.0, SVG Export Plug-In . SVG Version: 6.00 Build 0)  -->
<svg version="1.1" id="Layer_1" xmlns="http://www.w3.org/2000/svg" xmlns:xlink="http://www.w3.org/1999/xlink" x="0px" y="0px"
	 viewBox="0 0 512.001 512.001" style="enable-background:new 0 0 512.001 512.001;" xml:space="preserve">
<path style="fill:#60BFE1;" d="M414.153,512H97.848c-10.682,0-19.342-8.66-19.342-19.342v-61.345
	c0-97.871,79.624-177.495,177.495-177.495s177.495,79.624,177.495,177.495v61.345C433.495,503.34,424.835,512,414.153,512z"/>
<path style="fill:#2E9ADA;" d="M256.001,253.819v258.182h158.153c10.682,0,19.342-8.66,19.342-19.342v-61.345
	C433.495,333.443,353.87,253.819,256.001,253.819z"/>
<g>
	<path style="fill:#C7E5F4;" d="M256.001,337.97c10.682,0,19.342-8.66,19.342-19.342v-63.752
		c-6.355-0.692-12.806-1.057-19.342-1.057c-6.536,0-12.988,0.366-19.342,1.057v63.752C236.659,329.31,245.317,337.97,256.001,337.97
		z"/>
	<path style="fill:#C7E5F4;" d="M275.343,512V376.728c0-10.682-8.66-19.342-19.342-19.342c-10.682,0-19.342,8.66-19.342,19.342V512
		H275.343z"/>
</g>
<g>
	<path style="fill:#60BFE1;" d="M256.001,253.819v84.152c10.682,0,19.342-8.66,19.342-19.342v-63.752
		C268.987,254.184,262.536,253.819,256.001,253.819z"/>
	<path style="fill:#60BFE1;" d="M275.343,376.728c0-10.682-8.66-19.342-19.342-19.342V512h19.342V376.728z"/>
	<path style="fill:#60BFE1;" d="M336.477,119.156c0,44.375-36.101,80.476-80.476,80.476s-80.476-36.101-80.476-80.476
		c0-25.559-38.684-25.586-38.684,0v99.818c0,10.682,8.66,19.342,19.342,19.342h99.818h99.818c10.682,0,19.342-8.66,19.342-19.342
		v-99.818C375.161,93.598,336.477,93.572,336.477,119.156z"/>
</g>
<path style="fill:#2E9ADA;" d="M336.477,119.156c0,44.375-36.101,80.476-80.476,80.476v38.684h99.818
	c10.682,0,19.342-8.66,19.342-19.342v-99.818C375.161,93.598,336.477,93.572,336.477,119.156z"/>
<path style="fill:#FFEAB2;" d="M256.001,238.314c-65.703,0-119.156-53.454-119.156-119.158C136.843,53.454,190.297,0,256.001,0
	s119.156,53.454,119.156,119.156C375.157,184.86,321.703,238.314,256.001,238.314z"/>
<path style="fill:#FFE08C;" d="M256.001,0v238.314c65.703,0,119.156-53.454,119.156-119.158C375.157,53.454,321.703,0,256.001,0z"/>
<path style="fill:#60BFE1;" d="M256.354,118.216c-35.526-12.879-62.24-40.958-73.291-77.037c-2.525-8.241,0.708-17.158,7.926-21.866
	C210.362,6.678,232.843,0,256.001,0c54.537,0,99.269,36.334,113.937,84.221c2.525,8.241-0.708,17.156-7.925,21.866
	C330.385,126.715,291.87,131.091,256.354,118.216z"/>
<path style="fill:#2E9ADA;" d="M369.937,84.221C355.289,36.399,310.609,0,256.001,0v118.082c0.119,0.044,0.235,0.092,0.353,0.134
	c35.502,12.869,74.017,8.507,105.658-12.131C369.229,101.377,372.462,92.462,369.937,84.221z"/>
<g>
</g>
<g>
</g>
<g>
</g>
<g>
</g>
<g>
</g>
<g>
</g>
<g>
</g>
<g>
</g>
<g>
</g>
<g>
</g>
<g>
</g>
<g>
</g>
<g>
</g>
<g>
</g>
<g>
</g>
</svg>
