<?xml version="1.0" encoding="iso-8859-1"?>
<!-- Generator: Adobe Illustrator 19.0.0, SVG Export Plug-In . SVG Version: 6.00 Build 0)  -->
<svg version="1.1" id="Layer_1" xmlns="http://www.w3.org/2000/svg" xmlns:xlink="http://www.w3.org/1999/xlink" x="0px" y="0px"
	 viewBox="0 0 511.998 511.998" style="enable-background:new 0 0 511.998 511.998;" xml:space="preserve">
<g>
	<path style="fill:#FFDB6C;" d="M387.626,172.409c-48.774,0-87.779,39.681-87.779,88.455v4.96c0,11.392-8.659,21.913-20.052,21.913
		h-37.767c7.748-14.724,12.146-31.895,12.146-49.557c0-57.799-47.023-105.135-104.822-105.135
		c-57.799,0-104.822,46.866-104.822,104.665c0,15.433,12.511,27.866,27.946,27.866s27.946-12.551,27.946-27.984
		c0-26.982,21.951-48.951,48.931-48.951s48.932,21.94,48.932,48.922s-21.951,48.927-48.932,48.927
		c-15.433,0-27.946,12.509-27.946,27.942c0,15.433,12.511,27.943,27.946,27.943c31.357,0,56.868,25.51,56.868,56.867
		s-25.51,56.866-56.868,56.866s-56.867-25.51-56.867-56.867c0-15.433-12.511-27.946-27.946-27.946s-27.946,12.511-27.946,27.944
		c0,62.174,50.582,112.758,112.758,112.758s112.758-50.152,112.758-112.326c0-20.724-5.621-39.448-15.417-56.437h33.102
		c42.21,0,75.551-35.202,75.551-77.412v-4.96c0-17.957,14.324-32.564,32.28-32.564c17.957,0,32.28,14.609,32.28,32.564v165.16
		c0,13.306-10.042,24.133-23.348,24.133c-13.307,0-23.741-10.826-23.741-24.133c0-15.433-12.315-27.946-27.749-27.946
		c-15.433,0-27.847,12.511-27.847,27.946c0,44.125,34.968,80.023,79.092,80.023s79.092-35.898,79.092-80.023V260.864
		C475.407,212.09,436.401,172.409,387.626,172.409z"/>
	<path style="fill:#FFDB6C;" d="M296.211,155.937c8.729,2.099,17.468,3.103,26.077,3.103c50.356,0,96.162-34.405,108.442-85.47
		c3.609-15.005-5.631-30.095-20.637-33.704c-15.007-3.611-30.095,5.631-33.704,20.638c-7.174,29.831-37.277,48.263-67.111,41.092
		c-14.451-3.476-26.684-12.371-34.446-25.046c-7.761-12.675-10.122-27.615-6.646-42.065c3.609-15.006-5.632-30.096-20.637-33.704
		c-15.007-3.611-30.095,5.631-33.704,20.637c-6.966,28.966-2.234,58.911,13.323,84.318
		C242.726,131.143,267.245,148.972,296.211,155.937z"/>
</g>
<g>
	<path style="fill:#FFB04C;" d="M389.98,60.503c2.516-10.459,10.609-18.112,20.364-20.57c-0.085-0.022-0.167-0.046-0.251-0.067
		c-15.007-3.611-30.095,5.631-33.704,20.638c-5.568,23.153-24.951,39.431-47.297,42.209C356.78,106.134,383.305,88.26,389.98,60.503
		z"/>
	<path style="fill:#FFB04C;" d="M309.803,155.937c-28.966-6.966-53.485-24.793-69.043-50.201
		c-15.557-25.407-20.289-55.352-13.323-84.318c2.516-10.459,10.609-18.111,20.364-20.57c-0.085-0.022-0.167-0.046-0.251-0.067
		c-15.007-3.611-30.095,5.631-33.704,20.637c-6.966,28.966-2.234,58.911,13.323,84.318s40.076,43.236,69.043,50.201
		c8.729,2.099,17.468,3.103,26.077,3.103c2.227,0,4.44-0.091,6.646-0.224C322.588,158.418,316.193,157.473,309.803,155.937z"/>
</g>
<circle style="fill:#FFDB6C;" cx="325.159" cy="44.614" r="20.156"/>
<g>
	<path style="fill:#FFB04C;" d="M316.335,44.617c0-9.164,6.121-16.886,14.493-19.335c-1.799-0.526-3.695-0.821-5.663-0.821
		c-11.133,0-20.156,9.025-20.156,20.156c0,11.133,9.025,20.156,20.156,20.156c1.969,0,3.865-0.296,5.663-0.821
		C322.455,61.504,316.335,53.781,316.335,44.617z"/>
	<path style="fill:#FFB04C;" d="M314.572,265.824v-4.96c0-46.291,35.142-84.365,80.417-88.124c-2.428-0.202-4.879-0.331-7.362-0.331
		c-48.774,0-87.779,39.681-87.779,88.455v4.96c0,11.392-8.659,21.913-20.051,21.913h14.724
		C305.913,287.737,314.572,277.216,314.572,265.824z"/>
	<path style="fill:#FFB04C;" d="M403.901,448.978c2.316,0.759,4.792,1.179,7.381,1.179c13.306,0,23.348-10.826,23.348-24.133
		v-165.16c0-17.957-14.324-32.564-32.28-32.564c-2.538,0-4.999,0.301-7.362,0.853c14.353,3.353,24.918,16.293,24.918,31.712v165.16
		C419.908,436.741,413.388,445.838,403.901,448.978z"/>
	<path style="fill:#FFB04C;" d="M156.715,455.616c2.413,0.314,4.866,0.493,7.362,0.493c31.357,0,56.868-25.51,56.868-56.866
		c0-31.357-25.51-56.867-56.868-56.867c-15.433,0-27.946-12.51-27.946-27.943c0-15.433,12.511-27.942,27.946-27.942
		c26.981,0,48.932-21.946,48.932-48.927s-21.951-48.922-48.932-48.922c-2.501,0-4.959,0.19-7.36,0.555
		c23.5,3.561,41.568,23.888,41.568,48.367c0,26.982-21.951,48.927-48.932,48.927c-15.433,0-27.946,12.509-27.946,27.942
		c0,15.433,12.511,27.943,27.946,27.943c31.357,0,56.867,25.51,56.867,56.868C206.221,428.103,184.604,451.993,156.715,455.616z"/>
</g>
<path style="fill:#ED9520;" d="M331.946,426.024c0-12.88,8.649-23.72,20.482-26.954c-2.341-0.641-4.806-0.99-7.359-0.99
	c-15.433,0-27.847,12.511-27.847,27.946c0,44.125,34.968,80.023,79.092,80.023c2.486,0,4.938-0.13,7.362-0.353
	C363.089,501.959,331.946,467.663,331.946,426.024z"/>
<g>
	<path style="fill:#FFB04C;" d="M72.476,265.576c2.544,0,5.005-0.348,7.347-0.985c-11.853-3.219-20.568-14.002-20.568-26.881
		c0-55.317,43.072-100.613,97.44-104.402c-2.426-0.17-4.874-0.263-7.342-0.263c-57.799,0-104.822,46.866-104.822,104.665
		C44.531,253.143,57.043,265.576,72.476,265.576z"/>
	<path style="fill:#FFB04C;" d="M51.32,399.242c0-12.885,8.722-23.725,20.582-26.958c-2.347-0.64-4.813-0.988-7.362-0.988
		c-15.433,0-27.944,12.511-27.944,27.944c0,62.174,50.582,112.758,112.758,112.758c2.479,0,4.938-0.088,7.378-0.246
		C97.969,507.956,51.32,458.947,51.32,399.242z"/>
</g>
<g>
</g>
<g>
</g>
<g>
</g>
<g>
</g>
<g>
</g>
<g>
</g>
<g>
</g>
<g>
</g>
<g>
</g>
<g>
</g>
<g>
</g>
<g>
</g>
<g>
</g>
<g>
</g>
<g>
</g>
</svg>
