<?xml version="1.0" encoding="iso-8859-1"?>
<!-- Generator: Adobe Illustrator 19.0.0, SVG Export Plug-In . SVG Version: 6.00 Build 0)  -->
<svg version="1.1" id="Layer_1" xmlns="http://www.w3.org/2000/svg" xmlns:xlink="http://www.w3.org/1999/xlink" x="0px" y="0px"
	 viewBox="0 0 512 512" style="enable-background:new 0 0 512 512;" xml:space="preserve">
<g transform="translate(1 1)">
	<g>
		<path style="fill:#E2E3E5;" d="M458.932,77.102c-5.207,0-8.678-3.471-8.678-8.678V33.712c0-5.207,3.471-8.678,8.678-8.678
			c5.207,0,8.678,3.471,8.678,8.678v34.712C467.61,73.631,464.139,77.102,458.932,77.102z"/>
		<path style="fill:#E2E3E5;" d="M328.763,181.237c-5.207,0-8.678-3.471-8.678-8.678V33.712c0-5.207,3.471-8.678,8.678-8.678
			c5.207,0,8.678,3.471,8.678,8.678v138.847C337.441,177.766,333.969,181.237,328.763,181.237z"/>
		<path style="fill:#E2E3E5;" d="M328.763,493.644c-5.207,0-8.678-3.471-8.678-8.678V276.695c0-5.207,3.471-8.678,8.678-8.678
			c5.207,0,8.678,3.471,8.678,8.678v208.271C337.441,490.173,333.969,493.644,328.763,493.644z"/>
		<path style="fill:#E2E3E5;" d="M85.78,372.153c28.637,0,52.068,23.431,52.068,52.068c0,28.637-23.431,52.068-52.068,52.068
			s-52.068-23.431-52.068-52.068C33.712,395.583,57.142,372.153,85.78,372.153"/>
		<path style="fill:#E2E3E5;" d="M68.424,389.508c-5.207,0-8.678-3.471-8.678-8.678V33.712c0-5.207,3.471-8.678,8.678-8.678
			s8.678,3.471,8.678,8.678v347.119C77.102,386.037,73.631,389.508,68.424,389.508z"/>
	</g>
	<path style="fill:#CCCCCC;" d="M59.746,372.153c28.637,0,52.068,23.431,52.068,52.068c0,28.637-23.431,52.068-52.068,52.068
		S7.678,452.858,7.678,424.22C7.678,395.583,31.108,372.153,59.746,372.153"/>
	<path style="fill:#E2E3E5;" d="M46.729,372.153c21.695,0,39.051,23.431,39.051,52.068c0,28.637-17.356,52.068-39.051,52.068
		S7.678,452.858,7.678,424.22C7.678,395.583,25.034,372.153,46.729,372.153"/>
	<g>
		<path style="fill:#FFFFFF;" d="M111.814,424.22L111.814,424.22L111.814,424.22L111.814,424.22L111.814,424.22"/>
		<path style="fill:#FFFFFF;" d="M59.746,476.288c2.603,0,5.207,0,7.81-0.868c-19.092-3.471-33.844-25.166-33.844-51.2
			s14.753-47.729,33.844-51.2c-2.603-0.868-5.207-0.868-7.81-0.868c-28.637,0-52.068,23.431-52.068,52.068
			C7.678,452.858,31.108,476.288,59.746,476.288"/>
	</g>
	<path style="fill:#E2E3E5;" d="M215.949,268.017c28.637,0,52.068,23.431,52.068,52.068s-23.43,52.068-52.068,52.068
		s-52.068-23.431-52.068-52.068S187.312,268.017,215.949,268.017"/>
	<path style="fill:#CCCCCC;" d="M189.915,268.017c28.637,0,52.068,23.431,52.068,52.068s-23.431,52.068-52.068,52.068
		s-52.068-23.431-52.068-52.068S161.278,268.017,189.915,268.017"/>
	<path style="fill:#E2E3E5;" d="M176.898,268.017c21.695,0,39.051,23.431,39.051,52.068s-17.356,52.068-39.051,52.068
		s-39.051-23.431-39.051-52.068S155.203,268.017,176.898,268.017"/>
	<g>
		<path style="fill:#FFFFFF;" d="M241.983,320.085L241.983,320.085L241.983,320.085L241.983,320.085L241.983,320.085"/>
		<path style="fill:#FFFFFF;" d="M189.915,372.153c2.603,0,5.207,0,7.81-0.868c-19.092-3.471-33.844-25.166-33.844-51.2
			s14.753-47.729,33.844-51.2c-2.603-0.868-5.207-0.868-7.81-0.868c-28.637,0-52.068,23.431-52.068,52.068
			S161.278,372.153,189.915,372.153"/>
	</g>
	<path style="fill:#E2E3E5;" d="M346.119,163.881c28.637,0,52.068,23.431,52.068,52.068s-23.431,52.068-52.068,52.068
		c-28.637,0-52.068-23.43-52.068-52.068S317.481,163.881,346.119,163.881"/>
	<path style="fill:#CCCCCC;" d="M320.085,163.881c28.637,0,52.068,23.431,52.068,52.068s-23.431,52.068-52.068,52.068
		s-52.068-23.43-52.068-52.068S291.447,163.881,320.085,163.881"/>
	<path style="fill:#E2E3E5;" d="M307.068,163.881c21.695,0,39.051,23.431,39.051,52.068s-17.356,52.068-39.051,52.068
		s-39.051-23.43-39.051-52.068S285.373,163.881,307.068,163.881"/>
	<g>
		<path style="fill:#FFFFFF;" d="M372.153,215.949L372.153,215.949L372.153,215.949L372.153,215.949L372.153,215.949"/>
		<path style="fill:#FFFFFF;" d="M320.085,268.017c2.603,0,5.207,0,7.81-0.868c-19.092-3.471-33.844-25.166-33.844-51.2
			s14.753-47.729,33.844-51.2c-2.603-0.868-5.207-0.868-7.81-0.868c-28.637,0-52.068,23.431-52.068,52.068
			S291.447,268.017,320.085,268.017"/>
	</g>
	<path style="fill:#CCCCCC;" d="M450.254,59.746c28.637,0,52.068,23.431,52.068,52.068s-23.431,52.068-52.068,52.068
		c-28.637,0-52.068-23.431-52.068-52.068S421.617,59.746,450.254,59.746"/>
	<path style="fill:#E2E3E5;" d="M437.237,59.746c21.695,0,39.051,23.431,39.051,52.068s-17.356,52.068-39.051,52.068
		s-39.051-23.431-39.051-52.068S415.542,59.746,437.237,59.746"/>
	<g>
		<path style="fill:#FFFFFF;" d="M502.322,111.814L502.322,111.814L502.322,111.814L502.322,111.814L502.322,111.814"/>
		<path style="fill:#FFFFFF;" d="M450.254,163.881c2.603,0,5.207,0,7.81-0.868c-19.092-3.471-33.844-25.166-33.844-51.2
			s14.753-47.729,33.844-51.2c-2.603-0.868-5.207-0.868-7.81-0.868c-28.637,0-52.068,23.431-52.068,52.068
			S421.617,163.881,450.254,163.881"/>
	</g>
	<g>
		<path style="fill:#E2E3E5;" d="M198.593,285.373c-5.207,0-8.678-3.471-8.678-8.678V33.712c0-5.207,3.471-8.678,8.678-8.678
			c5.207,0,8.678,3.471,8.678,8.678v242.983C207.271,281.902,203.8,285.373,198.593,285.373z"/>
		<path style="fill:#E2E3E5;" d="M198.593,493.644c-5.207,0-8.678-3.471-8.678-8.678V380.831c0-5.207,3.471-8.678,8.678-8.678
			c5.207,0,8.678,3.471,8.678,8.678v104.136C207.271,490.173,203.8,493.644,198.593,493.644z"/>
		<path style="fill:#E2E3E5;" d="M458.932,493.644c-5.207,0-8.678-3.471-8.678-8.678V172.559c0-5.207,3.471-8.678,8.678-8.678
			c5.207,0,8.678,3.471,8.678,8.678v312.407C467.61,490.173,464.139,493.644,458.932,493.644z"/>
	</g>
	<g>
		<path style="fill:#B6B6B6;" d="M59.746,484.966C25.902,484.966-1,458.064-1,424.22s26.902-60.746,60.746-60.746
			s60.746,26.902,60.746,60.746S93.59,484.966,59.746,484.966z M59.746,380.831c-24.298,0-43.39,19.092-43.39,43.39
			s19.092,43.39,43.39,43.39s43.39-19.092,43.39-43.39S84.044,380.831,59.746,380.831z"/>
		<path style="fill:#B6B6B6;" d="M59.746,380.831c-5.207,0-8.678-3.471-8.678-8.678V25.034c0-5.207,3.471-8.678,8.678-8.678
			s8.678,3.471,8.678,8.678v347.119C68.424,377.359,64.953,380.831,59.746,380.831z"/>
		<path style="fill:#B6B6B6;" d="M189.915,380.831c-33.844,0-60.746-26.902-60.746-60.746s26.902-60.746,60.746-60.746
			s60.746,26.902,60.746,60.746S223.759,380.831,189.915,380.831z M189.915,276.695c-24.298,0-43.39,19.092-43.39,43.39
			s19.092,43.39,43.39,43.39s43.39-19.092,43.39-43.39S214.214,276.695,189.915,276.695z"/>
		<path style="fill:#B6B6B6;" d="M189.915,276.695c-5.207,0-8.678-3.471-8.678-8.678V25.034c0-5.207,3.471-8.678,8.678-8.678
			s8.678,3.471,8.678,8.678v242.983C198.593,273.224,195.122,276.695,189.915,276.695z"/>
		<path style="fill:#B6B6B6;" d="M320.085,276.695c-33.844,0-60.746-26.902-60.746-60.746s26.902-60.746,60.746-60.746
			s60.746,26.902,60.746,60.746S353.929,276.695,320.085,276.695z M320.085,172.559c-24.298,0-43.39,19.092-43.39,43.39
			s19.092,43.39,43.39,43.39s43.39-19.092,43.39-43.39S344.383,172.559,320.085,172.559z"/>
		<path style="fill:#B6B6B6;" d="M320.085,172.559c-5.207,0-8.678-3.471-8.678-8.678V25.034c0-5.207,3.471-8.678,8.678-8.678
			s8.678,3.471,8.678,8.678v138.847C328.763,169.088,325.292,172.559,320.085,172.559z"/>
		<path style="fill:#B6B6B6;" d="M450.254,172.559c-33.844,0-60.746-26.902-60.746-60.746s26.902-60.746,60.746-60.746
			S511,77.969,511,111.814S484.098,172.559,450.254,172.559z M450.254,68.424c-24.298,0-43.39,19.092-43.39,43.39
			s19.092,43.39,43.39,43.39s43.39-19.092,43.39-43.39S474.553,68.424,450.254,68.424z"/>
		<path style="fill:#B6B6B6;" d="M450.254,68.424c-5.207,0-8.678-3.471-8.678-8.678V25.034c0-5.207,3.471-8.678,8.678-8.678
			s8.678,3.471,8.678,8.678v34.712C458.932,64.953,455.461,68.424,450.254,68.424z"/>
		<path style="fill:#B6B6B6;" d="M189.915,484.966c-5.207,0-8.678-3.471-8.678-8.678V372.153c0-5.207,3.471-8.678,8.678-8.678
			s8.678,3.471,8.678,8.678v104.136C198.593,481.495,195.122,484.966,189.915,484.966z"/>
		<path style="fill:#B6B6B6;" d="M320.085,484.966c-5.207,0-8.678-3.471-8.678-8.678V268.017c0-5.207,3.471-8.678,8.678-8.678
			s8.678,3.471,8.678,8.678v208.271C328.763,481.495,325.292,484.966,320.085,484.966z"/>
		<path style="fill:#B6B6B6;" d="M450.254,484.966c-5.207,0-8.678-3.471-8.678-8.678V163.881c0-5.207,3.471-8.678,8.678-8.678
			s8.678,3.471,8.678,8.678v312.407C458.932,481.495,455.461,484.966,450.254,484.966z"/>
		<path style="fill:#B6B6B6;" d="M458.932,103.136h-17.356c-5.207,0-8.678-3.471-8.678-8.678c0-5.207,3.471-8.678,8.678-8.678
			h17.356c5.207,0,8.678,3.471,8.678,8.678C467.61,99.664,464.139,103.136,458.932,103.136z"/>
		<path style="fill:#B6B6B6;" d="M328.763,207.271h-17.356c-5.207,0-8.678-3.471-8.678-8.678c0-5.207,3.471-8.678,8.678-8.678
			h17.356c5.207,0,8.678,3.471,8.678,8.678C337.441,203.8,333.969,207.271,328.763,207.271z"/>
		<path style="fill:#B6B6B6;" d="M328.763,241.983h-17.356c-5.207,0-8.678-3.471-8.678-8.678s3.471-8.678,8.678-8.678h17.356
			c5.207,0,8.678,3.471,8.678,8.678S333.969,241.983,328.763,241.983z"/>
		<path style="fill:#B6B6B6;" d="M198.593,311.407h-17.356c-5.207,0-8.678-3.471-8.678-8.678c0-5.207,3.471-8.678,8.678-8.678
			h17.356c5.207,0,8.678,3.471,8.678,8.678C207.271,307.936,203.8,311.407,198.593,311.407z"/>
		<path style="fill:#B6B6B6;" d="M198.593,346.119h-17.356c-5.207,0-8.678-3.471-8.678-8.678s3.471-8.678,8.678-8.678h17.356
			c5.207,0,8.678,3.471,8.678,8.678S203.8,346.119,198.593,346.119z"/>
		<path style="fill:#B6B6B6;" d="M68.424,415.542H51.068c-5.207,0-8.678-3.471-8.678-8.678s3.471-8.678,8.678-8.678h17.356
			c5.207,0,8.678,3.471,8.678,8.678S73.631,415.542,68.424,415.542z"/>
		<path style="fill:#B6B6B6;" d="M68.424,450.254H51.068c-5.207,0-8.678-3.471-8.678-8.678c0-5.207,3.471-8.678,8.678-8.678h17.356
			c5.207,0,8.678,3.471,8.678,8.678C77.102,446.783,73.631,450.254,68.424,450.254z"/>
		<path style="fill:#B6B6B6;" d="M458.932,137.847h-17.356c-5.207,0-8.678-3.471-8.678-8.678s3.471-8.678,8.678-8.678h17.356
			c5.207,0,8.678,3.471,8.678,8.678S464.139,137.847,458.932,137.847z"/>
	</g>
</g>
<g>
</g>
<g>
</g>
<g>
</g>
<g>
</g>
<g>
</g>
<g>
</g>
<g>
</g>
<g>
</g>
<g>
</g>
<g>
</g>
<g>
</g>
<g>
</g>
<g>
</g>
<g>
</g>
<g>
</g>
</svg>
