<?xml version="1.0" encoding="iso-8859-1"?>
<!-- Generator: Adobe Illustrator 19.0.0, SVG Export Plug-In . SVG Version: 6.00 Build 0)  -->
<svg version="1.1" id="Layer_1" xmlns="http://www.w3.org/2000/svg" xmlns:xlink="http://www.w3.org/1999/xlink" x="0px" y="0px"
	 viewBox="0 0 512 512" style="enable-background:new 0 0 512 512;" xml:space="preserve">
<g transform="translate(1 1)">
	<polygon style="fill:#E2E3E5;" points="272.067,425.667 272.067,383 237.933,383 237.933,425.667 195.267,425.667 195.267,451.267 
		314.733,451.267 314.733,425.667 	"/>
	<polygon style="fill:#CCCCCC;" points="246.467,383 502.467,383 502.467,58.733 246.467,58.733 	"/>
	<polygon style="fill:#FFFFFF;" points="7.533,383 263.533,383 263.533,58.733 7.533,58.733 	"/>
	<polygon style="fill:#E2E3E5;" points="33.133,383 476.867,383 476.867,58.733 33.133,58.733 	"/>
	<polygon style="fill:#F0F0F0;" points="425.667,127 459.8,127 459.8,92.867 425.667,92.867 	"/>
	<polygon style="fill:#E0E0E0;" points="127,340.333 459.8,340.333 459.8,297.667 127,297.667 	"/>
	<g>
		<polygon style="fill:#F0F0F0;" points="127,340.333 434.2,340.333 434.2,297.667 127,297.667 		"/>
		<polygon style="fill:#F0F0F0;" points="50.2,340.333 92.867,340.333 92.867,297.667 50.2,297.667 		"/>
	</g>
	<path style="fill:#E0E0E0;" d="M349.72,297.667c1.707-0.853,2.56-1.707,4.267-2.56c-2.56-2.56-5.12-4.267-8.533-5.973l-39.253-25.6
		c-5.973-2.56-17.067-1.707-17.067-8.533v-17.92c1.707-1.707,11.093-7.68,12.8-9.387c5.973-8.533,12.8-18.773,16.213-29.013
		c5.973-1.707,13.653-6.827,13.653-13.653v-18.773c0-1.707-0.853-3.413-1.707-5.12c-4.267-5.12-6.827-10.24-6.827-17.067v-8.533
		c0,0-1.707-51.2-59.733-51.2s-59.733,51.2-59.733,51.2v8.533c0,5.973-2.56,11.947-6.827,17.067
		c-0.853,1.707-1.707,3.413-1.707,5.12v18.773c0,5.12,5.973,9.387,10.24,11.947c5.12,20.48,32.427,35.84,32.427,35.84v17.92
		c0,5.973-15.36,11.947-21.333,15.36l-40.107,23.04c-2.56,1.707-5.12,3.413-7.68,5.973c1.707,0.853,2.56,1.707,4.267,2.56H349.72z"
		/>
	<path style="fill:#F0F0F0;" d="M321.56,289.133l-40.107-25.6c-5.973-2.56-17.067-1.707-17.067-8.533v-17.92
		c1.707-1.707,11.093-7.68,12.8-9.387c5.973-8.533,12.8-18.773,16.213-29.013c5.973-1.707,13.653-6.827,13.653-13.653v-18.773
		c0-1.707-0.853-3.413-1.707-5.12c-4.267-5.12-6.827-10.24-6.827-17.067v-8.533c0,0-1.707-51.2-59.733-51.2
		c-0.853,0-1.707,0-3.413,0c0,1.707-0.853,4.267-3.413,5.973c-9.387,7.68-18.773,18.773-27.307,30.72
		c-2.56,10.24-5.12,21.333-7.68,31.573c0,3.413,0,5.973-0.853,9.387c1.707,17.067,6.827,32.427,12.8,51.2
		c0.853,1.707,0.853,2.56,0,4.267c2.56,2.56,5.12,5.12,8.533,7.68c3.413,1.707,6.827,3.413,10.24,5.12
		c4.267,5.973,10.24,9.387,9.387,17.067c-0.853,9.387-7.68,11.947-14.507,15.36c-17.067,10.24-34.133,16.213-50.347,27.307
		c2.56,1.707,3.413,5.12,2.56,7.68h148.48c1.707-0.853,2.56-1.707,4.267-2.56C327.533,292.547,324.12,290.84,321.56,289.133"/>
	<g>
		<path style="fill:#B6B6B6;" d="M502.467,391.533H7.533C2.413,391.533-1,388.12-1,383V58.733c0-5.12,3.413-8.533,8.533-8.533
			h494.933c5.12,0,8.533,3.413,8.533,8.533V383C511,388.12,507.587,391.533,502.467,391.533z M16.067,374.467h477.867v-307.2H16.067
			V374.467z"/>
		<path style="fill:#B6B6B6;" d="M459.8,348.867H127c-5.12,0-8.533-3.413-8.533-8.533v-42.667c0-5.12,3.413-8.533,8.533-8.533h332.8
			c5.12,0,8.533,3.413,8.533,8.533v42.667C468.333,345.453,464.92,348.867,459.8,348.867z M135.533,331.8h315.733v-25.6H135.533
			V331.8z"/>
		<path style="fill:#B6B6B6;" d="M459.8,135.533h-34.133c-5.12,0-8.533-3.413-8.533-8.533V92.867c0-5.12,3.413-8.533,8.533-8.533
			H459.8c5.12,0,8.533,3.413,8.533,8.533V127C468.333,132.12,464.92,135.533,459.8,135.533z M434.2,118.467h17.067V101.4H434.2
			V118.467z"/>
		<path style="fill:#B6B6B6;" d="M349.72,306.2H173.08c-1.707,0-3.413-0.853-5.12-1.707l-1.707-0.853
			c-0.853-0.853-1.707-1.707-3.413-1.707c-1.707-1.707-3.413-3.413-3.413-5.973s0.853-5.12,2.56-6.827
			c3.413-2.56,5.973-5.12,9.387-6.827l40.107-23.04c1.707-0.853,3.413-1.707,5.12-2.56c2.56-1.707,10.24-4.267,11.947-6.827v-11.947
			c-8.533-5.12-25.6-17.92-30.72-34.987c-5.12-3.413-11.947-9.387-11.947-17.067v-18.773c0-3.413,1.707-6.827,4.267-10.24
			c1.707-2.56,4.267-5.973,4.267-11.093v-10.24c0.853-20.48,15.36-59.733,68.267-59.733s67.413,39.253,68.267,59.733v8.533
			c0,5.12,2.56,8.533,4.267,11.093c2.56,3.413,4.267,6.827,4.267,10.24v18.773c0,9.387-7.68,16.213-15.36,20.48
			c-3.413,9.387-9.387,18.773-15.36,27.307c-1.707,2.56-4.267,4.267-10.24,8.533l-0.853,0.853v11.093
			c0.853,0,2.56,0.853,3.413,0.853c2.56,0.853,5.973,1.707,9.387,2.56c0,0,0.853,0,0.853,0.853l39.253,25.6
			c3.413,1.707,6.827,4.267,9.387,6.827c1.707,1.707,3.413,4.267,2.56,6.827c-0.853,2.56-1.707,5.12-3.413,6.827
			c-0.853,0.853-1.707,0.853-2.56,1.707l-1.707,0.853C353.133,305.347,351.427,306.2,349.72,306.2z M193.56,289.133h136.533
			l-28.16-17.92c-0.853-0.853-3.413-0.853-5.12-0.853c-5.12-0.853-17.067-3.413-17.067-14.507v-17.92
			c0-1.707,0.853-4.267,1.707-5.973c0.853-1.707,2.56-2.56,6.827-5.12c1.707-1.707,5.12-3.413,5.973-4.267
			c5.12-7.68,11.093-17.067,14.507-25.6c0.853-2.56,2.56-5.12,5.973-5.12c4.267-1.707,7.68-4.267,7.68-5.973v-17.92
			c-5.973-6.827-8.533-14.507-8.533-22.187v-10.24c0-4.267-2.56-42.667-51.2-42.667c-49.493,0-51.2,40.96-51.2,42.667v8.533
			c0,7.68-2.56,15.36-8.533,22.187l0,0v17.92c0,0,0.853,1.707,6.827,5.12c1.707,0.853,3.413,3.413,3.413,5.12
			c3.413,13.653,21.333,26.453,28.16,29.867c2.56,1.707,4.267,4.267,4.267,7.68v17.92c0,10.24-11.947,16.213-22.187,21.333
			c-1.707,0.853-2.56,1.707-4.267,1.707L193.56,289.133z"/>
		<path style="fill:#B6B6B6;" d="M92.867,348.867H50.2c-5.12,0-8.533-3.413-8.533-8.533v-42.667c0-5.12,3.413-8.533,8.533-8.533
			h42.667c5.12,0,8.533,3.413,8.533,8.533v42.667C101.4,345.453,97.987,348.867,92.867,348.867z M58.733,331.8h25.6v-25.6h-25.6
			V331.8z"/>
		<path style="fill:#B6B6B6;" d="M314.733,459.8H195.267c-5.12,0-8.533-3.413-8.533-8.533v-25.6c0-5.12,3.413-8.533,8.533-8.533
			H229.4V383c0-5.12,3.413-8.533,8.533-8.533h34.133c5.12,0,8.533,3.413,8.533,8.533v34.133h34.133c5.12,0,8.533,3.413,8.533,8.533
			v25.6C323.267,456.387,319.853,459.8,314.733,459.8z M203.8,442.733h102.4V434.2h-34.133c-5.12,0-8.533-3.413-8.533-8.533v-34.133
			h-17.067v34.133c0,5.12-3.413,8.533-8.533,8.533H203.8V442.733z"/>
	</g>
</g>
<g>
</g>
<g>
</g>
<g>
</g>
<g>
</g>
<g>
</g>
<g>
</g>
<g>
</g>
<g>
</g>
<g>
</g>
<g>
</g>
<g>
</g>
<g>
</g>
<g>
</g>
<g>
</g>
<g>
</g>
</svg>
