<?xml version="1.0" encoding="iso-8859-1"?>
<!-- Generator: Adobe Illustrator 19.0.0, SVG Export Plug-In . SVG Version: 6.00 Build 0)  -->
<svg version="1.1" id="Layer_1" xmlns="http://www.w3.org/2000/svg" xmlns:xlink="http://www.w3.org/1999/xlink" x="0px" y="0px"
	 viewBox="0 0 511.999 511.999" style="enable-background:new 0 0 511.999 511.999;" xml:space="preserve">
<path style="fill:#328777;" d="M323.148,38.43c-63.396,37.576-52.761,121.324-52.761,121.324h-22.983
	c0,0-11.648-101.486,58.182-137.559c1.6-0.827,3.508-0.815,5.081,0.063l12.403,6.921C326.675,31.189,326.698,36.326,323.148,38.43z"
	/>
<path style="fill:#266659;" d="M274.027,108.527h-24.452c-4.822,28.097-2.173,51.226-2.173,51.226h22.983
	C270.384,159.754,267.399,136.232,274.027,108.527z"/>
<path style="fill:#FF3F62;" d="M327.474,501.707l-32.327-9.166c-25.594-7.256-52.701-7.256-78.295,0l-32.327,9.166
	c-40.434,11.464-81.872-14.696-88.911-56.129L58.459,242.03c-6.102-61.351,48.801-111.159,109.27-99.131l10.615,2.112
	c51.269,10.198,104.045,10.198,155.313,0l10.614-2.112c60.469-12.029,115.372,37.779,109.27,99.131l-37.155,203.548
	C409.346,487.011,367.906,513.172,327.474,501.707z"/>
<path style="fill:#C70024;" d="M416.385,445.578c-7.039,41.433-48.479,67.594-88.911,56.129l-32.327-9.166
	c-25.594-7.256-52.701-7.256-78.295,0l-32.327,9.166c-40.434,11.464-81.872-14.696-88.911-56.129H416.385z"/>
<path style="fill:#FFF5CC;" d="M349.693,322.754c0,73.69-93.143,133.427-93.143,133.427s-93.143-59.737-93.143-133.427
	s93.143-133.427,93.143-133.427S349.693,249.064,349.693,322.754z"/>
<g>
	<path style="fill:#C70024;" d="M235.342,322.754c0,14.811-20.936,26.818-20.936,26.818s-20.936-12.007-20.936-26.818
		c0-14.811,20.936-26.818,20.936-26.818S235.342,307.942,235.342,322.754z"/>
	<path style="fill:#C70024;" d="M312.421,322.754c0,14.811-20.936,26.818-20.936,26.818s-20.936-12.007-20.936-26.818
		c0-14.811,20.936-26.818,20.936-26.818S312.421,307.942,312.421,322.754z"/>
</g>
<path style="fill:#328777;" d="M244.396,16.578c15.388,15.388,6.111,49.615,6.111,49.615s-34.226,9.277-49.615-6.111
	s-6.111-49.615-6.111-49.615S229.007,1.189,244.396,16.578z"/>
<path style="fill:#266659;" d="M250.392,66.193c0,0-34.226,9.277-49.615-6.111s-6.111-49.615-6.111-49.615L250.392,66.193z"/>
<path d="M428.99,159.303c-23.572-21.383-54.99-30.087-86.206-23.878l-10.615,2.112c-18.169,3.615-36.43,5.922-54.716,6.938
	c-0.32-8.534-0.103-23.692,3.785-40.412c7.753-33.349,25.8-57.022,53.636-70.36c2.568-1.231,4.235-3.789,4.325-6.636
	c0.088-2.847-1.418-5.505-3.904-6.893l-23.369-13.04c-2.162-1.205-4.776-1.289-7.008-0.217
	c-18.271,8.754-33.077,22.43-44.003,40.399c0.433-12.014-1.513-26.51-11.131-36.128c-17.991-17.99-53.058-9.145-56.998-8.078
	c-2.613,0.708-4.654,2.75-5.361,5.362c-1.068,3.94-9.913,39.007,8.079,56.997c8.818,8.818,21.737,11.189,33.085,11.189
	c8.114,0,15.424-1.213,19.853-2.148c-2.15,6.418-3.955,13.178-5.384,20.28c-4.181,20.776-4.277,39.438-3.839,49.914
	c-19.848-0.863-39.672-3.248-59.388-7.17l-10.614-2.111c-31.213-6.209-62.635,2.494-86.206,23.877
	c-23.572,21.384-35.285,51.812-32.134,83.482c0.021,0.206,0.05,0.411,0.086,0.614l37.139,203.455
	c3.717,21.879,16.611,41.222,35.377,53.07c18.767,11.848,41.775,15.169,63.127,9.117l32.327-9.166
	c24.251-6.876,49.887-6.876,74.137,0l32.327,9.166c6.997,1.984,14.172,2.96,21.316,2.96c14.659,0,29.194-4.112,41.81-12.077
	c18.766-11.847,31.66-31.189,35.361-52.977l37.155-203.546c0.038-0.203,0.066-0.408,0.086-0.614
	C464.274,211.114,452.561,180.687,428.99,159.303z M244.139,59.823c-10.437,2.002-29.262,3.463-37.858-5.133
	c-8.595-8.595-7.135-27.418-5.134-37.849c10.231-1.929,29.308-3.427,37.859,5.125C247.604,30.565,246.141,49.394,244.139,59.823z
	 M308.037,22.42l7.913,4.415c-25.129,16.162-42.186,41.577-49.675,74.279c-4.17,18.213-4.435,34.463-4.072,43.908
	c-0.244,0.004-0.489,0.01-0.733,0.013h-6.96C253.509,122.678,254.699,50.926,308.037,22.42z M445.986,240.973l-37.115,203.328
	c-2.993,17.617-13.376,33.193-28.486,42.733c-15.112,9.539-33.639,12.216-50.832,7.341l-32.327-9.166
	c-26.971-7.645-55.483-7.645-82.453,0l-32.327,9.166c-17.194,4.876-35.721,2.198-50.831-7.341
	c-15.112-9.54-25.495-25.116-28.504-42.826L66.013,240.973c-2.562-26.705,7.355-52.345,27.238-70.382
	c19.959-18.105,46.563-25.469,72.992-20.218l10.614,2.111c17.134,3.408,34.348,5.698,51.587,6.883l-50.569,10.643
	c-4.119,0.867-6.755,4.908-5.888,9.028c0.756,3.589,3.922,6.053,7.451,6.053c0.52,0,1.049-0.054,1.578-0.166l154.111-32.436
	c0.006-0.001,0.012-0.002,0.018-0.003l10.615-2.112c26.432-5.254,53.033,2.113,72.991,20.218
	C438.631,188.629,448.549,214.268,445.986,240.973z"/>
<path d="M218.197,289.325c-2.347-1.347-5.234-1.347-7.583,0c-2.535,1.454-24.766,14.743-24.766,33.428s22.23,31.976,24.765,33.429
	c1.175,0.674,2.482,1.01,3.791,1.01c1.309,0,2.618-0.336,3.791-1.01c2.535-1.454,24.766-14.744,24.766-33.429
	S220.733,290.779,218.197,289.325z M214.407,340.457c-5.507-3.996-13.315-11.101-13.315-17.704c0-6.61,7.827-13.725,13.329-17.715
	c5.826,4.222,13.301,11.388,13.301,17.715C227.721,329.358,219.909,336.466,214.407,340.457z"/>
<path d="M287.694,289.325c-2.535,1.454-24.766,14.743-24.766,33.428s22.231,31.976,24.766,33.429c1.175,0.674,2.482,1.01,3.791,1.01
	c1.309,0,2.618-0.336,3.791-1.01c2.535-1.454,24.765-14.744,24.765-33.429s-22.231-31.975-24.766-33.428
	C292.93,287.978,290.043,287.978,287.694,289.325z M304.8,322.754c0,6.604-7.812,13.712-13.314,17.704
	c-5.508-3.996-13.316-11.101-13.316-17.704c0-6.605,7.812-13.712,13.315-17.703C296.992,309.045,304.8,316.152,304.8,322.754z"/>
<path d="M260.664,182.911c-2.507-1.608-5.722-1.608-8.229,0c-0.982,0.63-24.309,15.698-47.943,40.204
	c-31.864,33.042-48.707,67.495-48.707,99.638s16.843,66.596,48.707,99.638c23.634,24.506,46.961,39.574,47.943,40.204
	c1.253,0.804,2.684,1.206,4.114,1.206s2.861-0.402,4.114-1.206c0.982-0.63,24.309-15.698,47.943-40.204
	c31.864-33.042,48.707-67.495,48.707-99.638s-16.843-66.596-48.707-99.638C284.973,198.61,261.646,183.541,260.664,182.911z
	 M256.55,446.952c-17.598-12.4-85.522-64.169-85.522-124.199s67.926-111.799,85.522-124.199
	c17.598,12.4,85.522,64.169,85.522,124.199S274.146,434.552,256.55,446.952z"/>
<g>
</g>
<g>
</g>
<g>
</g>
<g>
</g>
<g>
</g>
<g>
</g>
<g>
</g>
<g>
</g>
<g>
</g>
<g>
</g>
<g>
</g>
<g>
</g>
<g>
</g>
<g>
</g>
<g>
</g>
</svg>
