<?xml version='1.0' encoding='utf-8'?>
<!DOCTYPE svg PUBLIC '-//W3C//DTD SVG 1.1//EN' 'http://www.w3.org/Graphics/SVG/1.1/DTD/svg11.dtd'>
<svg version="1.1" xmlns="http://www.w3.org/2000/svg" viewBox="0 0 512 512" xmlns:xlink="http://www.w3.org/1999/xlink" enable-background="new 0 0 512 512">
  <g>
    <g>
      <path d="m460.2,460.2h-408.4v-408.4h408.3v408.4h0.1zm20.4-449.2h-449.2c-11.3,0-20.4,9.1-20.4,20.4v449.2c0,11.3 9.1,20.4 20.4,20.4h449.2c11.3,0 20.4-9.1 20.4-20.4v-449.2c5.68434e-14-11.3-9.1-20.4-20.4-20.4z"/>
      <path d="m138.8,142.9h44.3v226.3h-44.3v-226.3zm-20.4,267.1h85.2c11.3,0 20.4-9.1 20.4-20.4v-267.2c0-11.3-9.1-20.4-20.4-20.4h-85.2c-11.3,0-20.4,9.1-20.4,20.4v267.1c-2.84217e-14,11.3 9.1,20.5 20.4,20.5z"/>
      <path d="m294.7,165.8c12.3,0 22.3-10 22.3-22.3 0-12.3-10-22.3-22.3-22.3-12.3,0-22.3,10-22.3,22.3 0,12.4 10,22.3 22.3,22.3z"/>
      <path d="m395.1,165.8c12.3,0 22.3-10 22.3-22.3 0-12.3-10-22.3-22.3-22.3s-22.3,10-22.3,22.3c0,12.4 10,22.3 22.3,22.3z"/>
      <path d="m294.7,278.3c12.3,0 22.3-10 22.3-22.3 0-12.3-10-22.3-22.3-22.3-12.3,0-22.3,10-22.3,22.3 0,12.3 10,22.3 22.3,22.3z"/>
      <path d="m395.1,278.3c12.3,0 22.3-10 22.3-22.3 0-12.3-10-22.3-22.3-22.3s-22.3,10-22.3,22.3c0,12.3 10,22.3 22.3,22.3z"/>
      <path d="m294.7,390.7c12.3,0 22.3-10 22.3-22.3s-10-22.3-22.3-22.3c-12.3,0-22.3,10-22.3,22.3s10,22.3 22.3,22.3z"/>
      <path d="m395.1,390.7c12.3,0 22.3-10 22.3-22.3s-10-22.3-22.3-22.3-22.3,10-22.3,22.3 10,22.3 22.3,22.3z"/>
    </g>
  </g>
</svg>
