<?xml version="1.0" encoding="iso-8859-1"?>
<!-- Generator: Adobe Illustrator 19.0.0, SVG Export Plug-In . SVG Version: 6.00 Build 0)  -->
<svg version="1.1" id="Layer_1" xmlns="http://www.w3.org/2000/svg" xmlns:xlink="http://www.w3.org/1999/xlink" x="0px" y="0px"
	 viewBox="0 0 512 512" style="enable-background:new 0 0 512 512;" xml:space="preserve">
<g>
	<g>
		<path d="M253.686,12.939c-0.004,0-0.009-0.001-0.013-0.001c-0.004,0-0.009,0.001-0.013,0.001
			C145.481,12.946,57.473,100.957,57.473,209.137c0,108.185,88.015,196.2,196.2,196.2s196.2-88.015,196.2-196.2
			C449.872,100.957,361.865,12.946,253.686,12.939z M195.655,43.186c-7.172,8.308-13.829,18.234-19.828,29.701
			c-6.606,12.626-12.185,26.663-16.661,41.742c-15.078,4.476-29.117,10.055-41.742,16.661
			c-11.467,5.999-21.393,12.656-29.701,19.828C105.373,100.779,145.314,60.837,195.655,43.186z M153.262,138.146
			c-4.012,19.241-6.38,39.714-6.957,60.792H79.143C85.284,174.155,113.415,152.191,153.262,138.146z M146.305,219.336
			c0.577,21.079,2.945,41.551,6.957,60.792c-39.846-14.045-67.979-36.009-74.12-60.792H146.305z M87.722,267.155
			c8.308,7.172,18.234,13.829,29.701,19.828c12.626,6.606,26.664,12.185,41.742,16.661c4.476,15.078,10.055,29.116,16.661,41.742
			c5.999,11.467,12.656,21.393,19.828,29.701C145.314,357.437,105.373,317.495,87.722,267.155z M243.474,383.667
			c-24.783-6.141-46.747-34.272-60.792-74.118c19.241,4.012,39.714,6.38,60.792,6.957V383.667z M243.474,296.091
			c-24.007-0.72-46.895-3.956-67.583-9.171c-5.215-20.689-8.452-43.577-9.171-67.584h76.754V296.091z M243.474,198.938H166.72
			c0.72-24.007,3.956-46.895,9.171-67.583c20.687-5.215,43.576-8.452,67.583-9.171V198.938z M243.474,101.769
			c-21.079,0.577-41.55,2.945-60.792,6.957c14.045-39.846,36.008-67.978,60.792-74.119V101.769z M419.624,151.119
			c-8.308-7.172-18.234-13.829-29.701-19.828c-12.626-6.606-26.663-12.185-41.742-16.661c-4.476-15.078-10.055-29.117-16.661-41.742
			c-5.999-11.467-12.656-21.393-19.828-29.701C362.031,60.837,401.973,100.779,419.624,151.119z M428.203,198.938H361.04
			c-0.577-21.079-2.944-41.551-6.957-60.792C393.929,152.191,422.062,174.154,428.203,198.938z M282.004,198.937h-18.132v-76.754
			c24.007,0.72,46.895,3.956,67.583,9.171c5.949,23.6,9.33,50.062,9.33,77.782c0,27.719-3.381,54.182-9.33,77.782
			c-20.688,5.216-43.576,8.453-67.583,9.172v-76.755h18.132c5.633,0,10.199-4.566,10.199-10.199S287.637,198.937,282.004,198.937z
			 M263.871,34.608c24.784,6.141,46.747,34.272,60.792,74.119c-19.241-4.012-39.714-6.38-60.792-6.957V34.608z M263.872,383.667
			v-67.162c21.079-0.577,41.55-2.944,60.792-6.957C310.618,349.394,288.655,377.526,263.872,383.667z M311.691,375.088
			c7.172-8.308,13.829-18.234,19.828-29.701c6.606-12.626,12.185-26.663,16.661-41.742c15.078-4.476,29.117-10.055,41.742-16.661
			c11.467-5.999,21.393-12.656,29.701-19.828C401.973,317.495,362.031,357.437,311.691,375.088z M354.083,280.129
			c4.012-19.241,6.38-39.714,6.957-60.792h67.163C422.062,244.12,393.93,266.083,354.083,280.129z"/>
	</g>
</g>
<g>
	<g>
		<path d="M317.726,198.938h-2.464c-5.633,0-10.199,4.566-10.199,10.199c0,5.633,4.566,10.199,10.199,10.199h2.464
			c5.633,0,10.199-4.566,10.199-10.199C327.925,203.504,323.359,198.938,317.726,198.938z"/>
	</g>
</g>
<g>
	<g>
		<path d="M390.423,453.907c-2.678-4.956-8.866-6.804-13.821-4.126c-93.144,50.323-210.536,33.133-285.476-41.807
			c-94.152-94.152-94.152-247.347,0-341.499c3.983-3.983,3.983-10.441,0-14.424c-3.983-3.982-10.441-3.982-14.425,0
			C27.24,101.513,0,167.277,0,237.226s27.24,135.711,76.701,185.173c40.672,40.672,92.208,66.333,149.032,74.209
			c11.85,1.642,23.795,2.454,35.731,2.454c43.431,0,86.734-10.749,124.834-31.334C391.254,465.051,393.101,458.863,390.423,453.907z
			"/>
	</g>
</g>
<g>
	<g>
		<path d="M425.517,428.724c-3.488-4.424-9.901-5.182-14.324-1.692c-2.742,2.163-5.57,4.295-8.405,6.338
			c-4.57,3.292-5.607,9.667-2.314,14.237c1.993,2.767,5.116,4.239,8.284,4.239c2.065,0,4.15-0.625,5.953-1.925
			c3.075-2.214,6.141-4.527,9.115-6.873C428.248,439.559,429.005,433.146,425.517,428.724z"/>
	</g>
</g>
<g>
	<g>
		<path d="M510.209,401.034l-17.659-25.733l14.537-14.537c3.983-3.983,3.984-10.441,0-14.424c-3.983-3.983-10.441-3.983-14.424,0
			l-14.537,14.537l-25.732-17.659c-4.643-3.187-10.992-2.006-14.18,2.639c-3.187,4.644-2.006,10.993,2.639,14.18l22.602,15.512
			l-24.077,24.077l-4.125-1.375c-5.345-1.781-11.12,1.107-12.901,6.45c-1.782,5.344,1.107,11.12,6.45,12.901l5.268,1.756
			l1.755,5.267c1.424,4.273,5.404,6.977,9.674,6.977c1.069,0,2.157-0.17,3.227-0.526c5.343-1.781,8.232-7.557,6.451-12.901
			l-1.375-4.126l24.077-24.077l15.512,22.602c1.977,2.881,5.17,4.429,8.418,4.429c1.989,0,3.998-0.58,5.762-1.791
			C512.215,412.027,513.396,405.678,510.209,401.034z"/>
	</g>
</g>
<g>
</g>
<g>
</g>
<g>
</g>
<g>
</g>
<g>
</g>
<g>
</g>
<g>
</g>
<g>
</g>
<g>
</g>
<g>
</g>
<g>
</g>
<g>
</g>
<g>
</g>
<g>
</g>
<g>
</g>
</svg>
