<?xml version="1.0" encoding="iso-8859-1"?>
<!-- Generator: Adobe Illustrator 19.0.0, SVG Export Plug-In . SVG Version: 6.00 Build 0)  -->
<svg version="1.1" id="Layer_1" xmlns="http://www.w3.org/2000/svg" xmlns:xlink="http://www.w3.org/1999/xlink" x="0px" y="0px"
	 viewBox="0 0 512 512" style="enable-background:new 0 0 512 512;" xml:space="preserve">
<polygon points="293.117,119.464 282.256,0 229.744,0 218.883,119.464 "/>
<polygon style="fill:#00D7DF;" points="124.718,459.487 256,446.359 387.282,459.487 387.282,512 124.718,512 "/>
<polygon style="fill:#00A1A7;" points="124.718,459.487 256,446.359 256,512 124.718,512 "/>
<polygon style="fill:#00D7DF;" points="334.769,144.41 256,131.282 177.231,144.41 124.718,183.795 124.718,223.179 256,236.308 
	387.282,223.179 387.282,183.795 "/>
<polygon style="fill:#00A1A7;" points="256,131.282 177.231,144.41 124.718,183.795 124.718,223.179 256,236.308 "/>
<polygon style="fill:#F2F2F3;" points="256,223.179 124.718,223.179 124.718,459.487 256,459.487 387.282,459.487 387.282,223.179 
	"/>
<polygon style="fill:#DEDDE0;" points="164.103,223.179 124.718,223.179 124.718,459.487 256,459.487 256,223.179 "/>
<rect x="177.231" y="275.692" style="fill:#ACABB1;" width="157.538" height="52.513"/>
<rect x="177.231" y="275.692" style="fill:#616064;" width="78.769" height="52.513"/>
<rect x="177.231" y="354.462" style="fill:#ACABB1;" width="157.538" height="52.513"/>
<rect x="177.231" y="354.462" style="fill:#616064;" width="78.769" height="52.513"/>
<rect x="177.231" y="91.897" style="fill:#DEDDE0;" width="157.538" height="52.513"/>
<rect x="177.231" y="91.897" style="fill:#ACABB1;" width="78.769" height="52.513"/>
<g>
</g>
<g>
</g>
<g>
</g>
<g>
</g>
<g>
</g>
<g>
</g>
<g>
</g>
<g>
</g>
<g>
</g>
<g>
</g>
<g>
</g>
<g>
</g>
<g>
</g>
<g>
</g>
<g>
</g>
</svg>
