<?xml version="1.0" encoding="iso-8859-1"?>
<!-- Generator: Adobe Illustrator 19.0.0, SVG Export Plug-In . SVG Version: 6.00 Build 0)  -->
<svg version="1.1" id="Layer_1" xmlns="http://www.w3.org/2000/svg" xmlns:xlink="http://www.w3.org/1999/xlink" x="0px" y="0px"
	 viewBox="0 0 512 512" style="enable-background:new 0 0 512 512;" xml:space="preserve">
<polygon style="fill:#ACABB1;" points="0,72.982 0,113.403 471.579,113.403 471.579,200.982 222.316,200.982 222.316,335.719 
	262.737,335.719 262.737,241.403 471.579,241.403 512,241.403 512,72.982 "/>
<rect x="222.316" y="200.986" style="fill:#818085;" width="20.211" height="134.737"/>
<rect x="40.421" y="12.351" style="fill:#DEDDE0;" width="404.211" height="161.684"/>
<rect x="40.421" y="12.351" style="fill:#CDCDD0;" width="202.105" height="161.684"/>
<path style="fill:#FF5023;" d="M40.421,12.351v80.842c0,29.765,24.129,53.895,53.895,53.895s53.895-24.13,53.895-53.895
	c0-14.883,12.064-26.947,26.947-26.947s26.947,12.064,26.947,26.947v80.842c0,29.765,24.129,53.895,53.895,53.895
	c29.766,0,53.895-24.13,53.895-53.895V120.14c0-29.765,24.129-53.895,53.895-53.895c29.766,0,53.895,24.13,53.895,53.895v13.474
	c0,14.883,12.064,26.947,26.947,26.947c0-35.032,0-148.211,0-148.211L40.421,12.351L40.421,12.351z"/>
<path style="fill:#D80027;" d="M242.526,12.351H40.421v80.842c0,29.765,24.129,53.895,53.895,53.895s53.895-24.13,53.895-53.895
	c0-14.883,12.064-26.947,26.947-26.947s26.947,12.064,26.947,26.947v80.842c0,25.11,17.18,46.181,40.421,52.167V12.351z"/>
<path style="fill:#786145;" d="M175.158,308.772v123.509c0,37.206,30.162,67.368,67.368,67.368s67.368-30.162,67.368-67.368V308.772
	L175.158,308.772L175.158,308.772z"/>
<path style="fill:#282017;" d="M175.158,308.772v123.509c0,37.206,30.162,67.368,67.368,67.368c0-49.029,0-190.878,0-190.878
	H175.158z"/>
<g>
</g>
<g>
</g>
<g>
</g>
<g>
</g>
<g>
</g>
<g>
</g>
<g>
</g>
<g>
</g>
<g>
</g>
<g>
</g>
<g>
</g>
<g>
</g>
<g>
</g>
<g>
</g>
<g>
</g>
</svg>
