<?xml version="1.0" encoding="iso-8859-1"?>
<!-- Generator: Adobe Illustrator 19.0.0, SVG Export Plug-In . SVG Version: 6.00 Build 0)  -->
<svg version="1.1" id="Layer_1" xmlns="http://www.w3.org/2000/svg" xmlns:xlink="http://www.w3.org/1999/xlink" x="0px" y="0px"
	 viewBox="0 0 512 512" style="enable-background:new 0 0 512 512;" xml:space="preserve">
<g>
	<rect x="228.324" style="fill:#282017;" width="55.351" height="55.351"/>
	<polygon style="fill:#282017;" points="200.649,512 145.297,512 159.135,373.622 214.486,373.622 	"/>
</g>
<polygon style="fill:#786145;" points="311.351,512 366.703,512 352.865,373.622 297.514,373.622 "/>
<rect x="89.946" y="69.189" style="fill:#F2F2F3;" width="332.108" height="290.595"/>
<rect x="89.946" y="69.189" style="fill:#DEDDE0;" width="166.054" height="290.595"/>
<polygon style="fill:#786145;" points="304.432,207.568 270.509,258.455 221.405,179.892 152.216,290.595 359.784,290.595 "/>
<polygon style="fill:#282017;" points="256.116,235.427 221.405,179.892 152.216,290.595 256.116,290.595 "/>
<g>
	<circle style="fill:#FFDA44;" cx="283.676" cy="159.135" r="20.757"/>
	<rect x="76.108" y="27.676" style="fill:#FFDA44;" width="359.784" height="55.351"/>
</g>
<rect x="76.108" y="27.676" style="fill:#FF9811;" width="179.892" height="55.351"/>
<rect x="76.108" y="345.946" style="fill:#FFDA44;" width="359.784" height="55.351"/>
<rect x="76.108" y="345.946" style="fill:#FF9811;" width="179.892" height="55.351"/>
<g>
</g>
<g>
</g>
<g>
</g>
<g>
</g>
<g>
</g>
<g>
</g>
<g>
</g>
<g>
</g>
<g>
</g>
<g>
</g>
<g>
</g>
<g>
</g>
<g>
</g>
<g>
</g>
<g>
</g>
</svg>
