<?xml version="1.0" encoding="iso-8859-1"?>
<!-- Generator: Adobe Illustrator 19.0.0, SVG Export Plug-In . SVG Version: 6.00 Build 0)  -->
<svg version="1.1" id="Layer_1" xmlns="http://www.w3.org/2000/svg" xmlns:xlink="http://www.w3.org/1999/xlink" x="0px" y="0px"
	 viewBox="0 0 496 496" style="enable-background:new 0 0 496 496;" xml:space="preserve">
<g>
	<g>
		<g>
			<path d="M237.656,77.656l-11.312-11.312l-8.872,8.872C208.12,68.208,196.56,64,184,64c-30.872,0-56,25.128-56,56
				c0,12.56,4.208,24.12,11.216,33.472l-8.872,8.872l11.312,11.312l8.872-8.872C159.88,171.792,171.44,176,184,176
				c30.872,0,56-25.128,56-56c0-12.56-4.208-24.12-11.216-33.472L237.656,77.656z M144,120c0-22.056,17.944-40,40-40
				c8.136,0,15.696,2.472,22.024,6.664l-55.36,55.36C146.472,135.696,144,128.136,144,120z M184,160
				c-8.136,0-15.696-2.472-22.024-6.664l55.36-55.36C221.528,104.304,224,111.864,224,120C224,142.056,206.056,160,184,160z"/>
			<path d="M472,160c-13.232,0-24,10.768-24,24c0,6.456,2.592,12.296,6.744,16.616l-43.84,87.68c-0.96-0.12-1.912-0.296-2.904-0.296
				c-4.864,0-9.392,1.48-13.176,3.976L368,277.072V68.688L299.312,0H0v496h368V295.368l17.184,9.552
				c-0.696,2.256-1.184,4.6-1.184,7.08c0,13.232,10.768,24,24,24s24-10.768,24-24c0-6.456-2.592-12.296-6.752-16.616l43.84-87.68
				C470.056,207.824,471,208,472,208c13.232,0,24-10.768,24-24S485.232,160,472,160z M304,27.312L340.688,64H304V27.312z M320,80
				v112H48V48h240v32H320z M352,268.184l-16.312-9.064c0.128-1.032,0.312-2.056,0.312-3.12c0-13.232-10.768-24-24-24
				s-24,10.768-24,24c0,2.92,0.6,5.68,1.56,8.264l-9.208,6.376l-34.12-34.12l-14.944,14.936c-4.904-2.504-10.016-4.616-15.28-6.32
				V224h-64v21.144c-5.264,1.704-10.376,3.816-15.28,6.32l-14.944-14.936l-45.248,45.248l14.936,14.944
				c-2.504,4.904-4.616,10.016-6.32,15.28H64v64h21.144c1.704,5.264,3.816,10.376,6.32,15.28l-14.936,14.944l45.248,45.248
				l14.944-14.936c4.904,2.504,10.016,4.616,15.28,6.32V464h64v-21.144c5.264-1.704,10.376-3.816,15.28-6.32l14.944,14.936
				l45.248-45.248l-14.936-14.944c2.504-4.904,4.616-10.016,6.32-15.28H304v-64h-21.144c-1.704-5.264-3.824-10.376-6.32-15.28
				l12.896-12.904l10.432-7.224C303.44,278.704,307.552,280,312,280c6.376,0,12.136-2.536,16.44-6.608L352,286.48V480H16V16h272v16
				H32v176h304V80h16V268.184z M320,256c0,4.416-3.584,8-8,8c-4.416,0-8-3.584-8-8c0-4.416,3.584-8,8-8
				C316.416,248,320,251.584,320,256z M268.848,406.224l-22.624,22.624l-12.272-12.256l-5.336,3.152
				c-7.032,4.16-14.64,7.304-22.616,9.36l-6,1.552V448h-32v-17.344l-6-1.552c-7.976-2.056-15.584-5.2-22.616-9.36l-5.336-3.152
				l-12.272,12.256l-22.624-22.624l12.256-12.272l-3.152-5.336c-4.152-7.032-7.304-14.64-9.36-22.616l-1.552-6H80v-32h17.344
				l1.552-6c2.056-7.976,5.2-15.584,9.36-22.616l3.152-5.336l-12.256-12.272l22.624-22.624l12.272,12.256l5.336-3.152
				c7.032-4.16,14.64-7.304,22.616-9.36l6-1.552V240h32v17.344l6,1.552c7.976,2.056,15.584,5.2,22.616,9.36l5.336,3.152
				l12.272-12.256l20.752,20.752l-33.688,23.32C221.536,289.048,203.808,280,184,280c-35.288,0-64,28.712-64,64
				c0,35.288,28.712,64,64,64c35.288,0,64-28.712,64-64c0-9.744-2.256-18.952-6.168-27.232l19.76-13.68
				c3.168,6,5.8,12.28,7.512,18.912l1.552,6H288v32h-17.344l-1.552,6c-2.056,7.976-5.2,15.584-9.36,22.616l-3.152,5.336
				L268.848,406.224z M184,320c-13.232,0-24,10.768-24,24s10.768,24,24,24s24-10.768,24-24c0-1.216-0.184-2.392-0.36-3.56
				l20.832-14.424C230.728,331.576,232,337.64,232,344c0,26.472-21.528,48-48,48s-48-21.528-48-48s21.528-48,48-48
				c14.36,0,27.232,6.368,36.04,16.4l-20.024,13.856C195.76,322.408,190.176,320,184,320z M192,344c0,4.416-3.584,8-8,8
				s-8-3.584-8-8c0-4.416,3.584-8,8-8S192,339.584,192,344z M408,320c-4.416,0-8-3.584-8-8c0-4.416,3.584-8,8-8c4.416,0,8,3.584,8,8
				C416,316.416,412.416,320,408,320z M472,192c-4.416,0-8-3.584-8-8s3.584-8,8-8c4.416,0,8,3.584,8,8S476.416,192,472,192z"/>
		</g>
	</g>
</g>
<g>
</g>
<g>
</g>
<g>
</g>
<g>
</g>
<g>
</g>
<g>
</g>
<g>
</g>
<g>
</g>
<g>
</g>
<g>
</g>
<g>
</g>
<g>
</g>
<g>
</g>
<g>
</g>
<g>
</g>
</svg>
