<?xml version="1.0" encoding="iso-8859-1"?>
<!-- Generator: Adobe Illustrator 19.0.0, SVG Export Plug-In . SVG Version: 6.00 Build 0)  -->
<svg version="1.1" id="Layer_1" xmlns="http://www.w3.org/2000/svg" xmlns:xlink="http://www.w3.org/1999/xlink" x="0px" y="0px"
	 viewBox="0 0 505.759 505.759" style="enable-background:new 0 0 505.759 505.759;" xml:space="preserve">
<g transform="translate(1 1)">
	<path style="fill:#FD9808;" d="M471.186,175.08l-46.933-6.827c19.627,20.48,32.427,48.64,32.427,79.36
		c0,34.133-15.36,64.853-40.107,85.333h50.347c8.533,0,16.213-6.827,17.067-15.36l11.947-110.08
		C497.64,192.146,486.546,177.64,471.186,175.08"/>
	<path style="fill:#FFDD09;" d="M451.56,175.08l-46.933-6.827c20.48,20.48,32.427,47.787,32.427,78.507
		c0,34.133-15.36,64.853-40.107,85.333h50.347c8.533,0,16.213-6.827,17.067-15.36l11.947-110.08
		C478.013,192.146,466.92,177.64,451.56,175.08"/>
	<path style="fill:#FFFFFF;" d="M234.813,247.613c0-39.253,20.48-73.387,51.2-93.867c-50.347-1.707-100.693,0-151.04,6.827
		l-102.4,14.507c-16.213,2.56-27.307,16.213-25.6,32.427l11.947,110.08c0.853,8.533,8.533,15.36,17.067,15.36H251.88h23.04
		C250.173,312.466,234.813,281.746,234.813,247.613"/>
	<path style="fill:#FFDD09;" d="M257.853,247.613c0-39.253,20.48-73.387,51.2-93.867c-50.347-1.707-100.693,0-151.04,6.827
		l-102.4,15.36c-16.213,1.707-27.307,16.213-25.6,32.427L41.96,318.44c0.853,8.533,8.533,15.36,17.067,15.36h215.04h23.04
		C273.213,313.32,257.853,282.6,257.853,247.613"/>
	<path style="fill:#FD9808;" d="M456.68,247.613c0-61.44-49.493-110.933-110.933-110.933s-110.933,49.493-110.933,110.933
		s49.493,110.933,110.933,110.933S456.68,309.053,456.68,247.613"/>
	<path style="fill:#FCC309;" d="M439.613,247.613c0-61.44-46.08-110.933-102.4-110.933s-102.4,49.493-102.4,110.933
		s46.08,110.933,102.4,110.933S439.613,309.053,439.613,247.613"/>
	<path style="fill:#FD9808;" d="M345.746,315.88c-37.547,0-68.267-30.72-68.267-68.267s30.72-68.267,68.267-68.267
		s68.267,30.72,68.267,68.267S383.293,315.88,345.746,315.88"/>
	<path style="fill:#FFDD09;" d="M332.946,315.88c-30.72,0-55.467-30.72-55.467-68.267s24.747-68.267,55.467-68.267
		s55.467,30.72,55.467,68.267S363.666,315.88,332.946,315.88"/>
	<g>
		<path style="fill:#FCC309;" d="M89.746,367.08L89.746,367.08c-10.24,0-19.627-5.973-24.747-15.36l-9.387-18.773h68.267
			l-9.387,18.773C109.373,361.106,99.986,367.08,89.746,367.08"/>
		<path style="fill:#FCC309;" d="M388.413,350.013l0.853,1.707c4.267,9.387,14.507,15.36,24.747,15.36
			c10.24,0,19.627-5.973,24.747-15.36l9.387-18.773h-31.573C408.04,339.773,398.653,345.746,388.413,350.013"/>
	</g>
	<path d="M345.746,367.08c-65.707,0-119.467-53.76-119.467-119.467s53.76-119.467,119.467-119.467s119.467,53.76,119.467,119.467
		S411.453,367.08,345.746,367.08z M345.746,145.213c-56.32,0-102.4,46.08-102.4,102.4s46.08,102.4,102.4,102.4
		s102.4-46.08,102.4-102.4S402.066,145.213,345.746,145.213z"/>
	<path d="M345.746,324.413c-42.667,0-76.8-34.133-76.8-76.8s34.133-76.8,76.8-76.8s76.8,34.133,76.8,76.8
		S388.413,324.413,345.746,324.413z M345.746,187.88c-33.28,0-59.733,26.453-59.733,59.733s26.453,59.733,59.733,59.733
		s59.733-26.453,59.733-59.733S379.026,187.88,345.746,187.88z"/>
	<path d="M311.613,256.146c-5.12,0-8.533-3.413-8.533-8.533c0-23.893,18.773-42.667,42.667-42.667c5.12,0,8.533,3.413,8.533,8.533
		c0,5.12-3.413,8.533-8.533,8.533c-14.507,0-25.6,11.093-25.6,25.6C320.146,252.733,316.733,256.146,311.613,256.146z"/>
	<path d="M175.08,222.013H72.68c-5.12,0-8.533-3.413-8.533-8.533c0-5.12,3.413-8.533,8.533-8.533h102.4
		c5.12,0,8.533,3.413,8.533,8.533C183.613,218.6,180.2,222.013,175.08,222.013z"/>
	<path d="M175.08,256.146H72.68c-5.12,0-8.533-3.413-8.533-8.533c0-5.12,3.413-8.533,8.533-8.533h102.4
		c5.12,0,8.533,3.413,8.533,8.533C183.613,252.733,180.2,256.146,175.08,256.146z"/>
	<path d="M175.08,290.28H72.68c-5.12,0-8.533-3.413-8.533-8.533s3.413-8.533,8.533-8.533h102.4c5.12,0,8.533,3.413,8.533,8.533
		S180.2,290.28,175.08,290.28z"/>
	<path d="M274.92,341.48H36.84c-12.8,0-23.893-9.387-25.6-23.04L-0.707,208.36c-2.56-20.48,11.947-38.4,32.427-40.96l102.4-14.507
		c49.493-6.827,101.547-9.387,152.747-7.68c3.413,0,6.827,2.56,7.68,5.973c0.853,3.413-0.853,7.68-3.413,9.387
		c-29.867,19.627-47.787,52.053-47.787,87.04c0,30.72,13.653,58.88,36.693,78.507c2.56,2.56,3.413,5.973,2.56,9.387
		C281.746,338.92,278.333,341.48,274.92,341.48z M251.026,162.28c-38.4,0-76.8,2.56-114.347,7.68l-102.4,14.507
		c-11.947,0.853-19.627,11.093-17.92,22.187l11.947,110.08c0.853,4.267,4.267,7.68,8.533,7.68h217.6
		c-17.92-21.333-28.16-48.64-28.16-76.8c0-32.427,12.8-63.147,35.84-85.333C258.706,162.28,255.293,162.28,251.026,162.28z"/>
	<path d="M466.92,341.48h-50.347c-3.413,0-6.827-2.56-7.68-5.973c-0.853-3.413,0-6.827,2.56-9.387
		c23.893-19.627,36.693-48.64,36.693-78.507c0-27.307-11.093-52.907-29.867-72.533c-2.56-2.56-3.413-6.827-1.707-10.24
		c1.707-3.413,5.12-5.12,8.533-4.267l46.933,6.827c20.48,2.56,34.987,21.333,32.427,41.813l-11.947,110.08
		C490.813,332.093,479.72,341.48,466.92,341.48z M437.053,324.413h29.867c4.267,0,7.68-3.413,8.533-7.68l11.947-110.08
		c0.853-11.093-6.827-21.333-17.92-23.04l0,0l-25.6-3.413c13.653,19.627,20.48,42.667,20.48,67.413
		C465.213,275.773,454.973,303.08,437.053,324.413z"/>
	<path d="M89.746,375.613c-13.653,0-26.453-7.68-32.427-19.627l-9.387-18.773c-1.707-2.56-0.853-5.973,0-8.533
		c0.853-2.56,5.12-4.267,7.68-4.267h68.267c2.56,0,5.973,1.707,7.68,4.267c1.707,2.56,1.707,5.973,0,8.533l-9.387,18.773
		C116.2,367.933,103.4,375.613,89.746,375.613z M69.266,341.48l3.413,6.827c3.413,6.827,9.387,10.24,17.067,10.24
		s13.653-4.267,17.067-10.24l3.413-6.827H69.266z"/>
	<path d="M414.013,375.613c-13.653,0-26.453-7.68-32.427-19.627l-0.853-1.707c-0.853-1.707-0.853-4.267,0-6.827
		c0.853-2.56,2.56-4.267,5.12-5.12c9.387-4.267,17.92-9.387,26.453-15.36c1.707-0.853,3.413-1.707,5.12-1.707h30.72
		c2.56,0,5.973,1.707,7.68,4.267s1.707,5.973,0,8.533l-9.387,18.773C440.466,367.933,427.666,375.613,414.013,375.613z
		 M401.213,353.426c3.413,3.413,7.68,5.12,12.8,5.12c7.68,0,13.653-4.267,17.067-10.24l3.413-6.827h-14.507
		C414.013,345.746,407.186,350.013,401.213,353.426z"/>
</g>
<g>
</g>
<g>
</g>
<g>
</g>
<g>
</g>
<g>
</g>
<g>
</g>
<g>
</g>
<g>
</g>
<g>
</g>
<g>
</g>
<g>
</g>
<g>
</g>
<g>
</g>
<g>
</g>
<g>
</g>
</svg>
