<?xml version="1.0" encoding="iso-8859-1"?>
<!-- Generator: Adobe Illustrator 19.0.0, SVG Export Plug-In . SVG Version: 6.00 Build 0)  -->
<svg version="1.1" id="Layer_1" xmlns="http://www.w3.org/2000/svg" xmlns:xlink="http://www.w3.org/1999/xlink" x="0px" y="0px"
	 viewBox="0 0 512 512" style="enable-background:new 0 0 512 512;" xml:space="preserve">
<polygon style="fill:#E07188;" points="512,256 435.2,179.2 76.8,179.2 0,256 "/>
<polygon style="fill:#E02753;" points="435.2,179.2 256,179.2 256,256 512,256 "/>
<rect x="236.8" y="51.2" style="fill:#D8D8DA;" width="38.4" height="89.6"/>
<rect x="236.8" style="fill:#B4D8F1;" width="96" height="76.8"/>
<rect x="284.8" style="fill:#98C8ED;" width="48" height="76.8"/>
<polygon style="fill:#F8F8F9;" points="0,256 0,512 512,512 512,256 345.6,256 345.6,179.2 256,115.2 166.4,179.2 166.4,256 "/>
<polygon style="fill:#EDEDED;" points="512,256 345.6,256 345.6,179.2 256,115.2 256,512 512,512 "/>
<g>
	<rect x="236.8" y="236.8" style="fill:#D8D8DA;" width="38.4" height="38.4"/>
	<polygon style="fill:#D8D8DA;" points="198.4,512 198.4,416 236.8,416 236.8,512 275.2,512 275.2,416 313.6,416 313.6,512 352,512 
		352,377.6 160,377.6 160,512 	"/>
</g>
<polygon style="fill:#C6C5CA;" points="275.2,377.6 275.2,416 313.6,416 313.6,512 352,512 352,377.6 "/>
<g>
</g>
<g>
</g>
<g>
</g>
<g>
</g>
<g>
</g>
<g>
</g>
<g>
</g>
<g>
</g>
<g>
</g>
<g>
</g>
<g>
</g>
<g>
</g>
<g>
</g>
<g>
</g>
<g>
</g>
</svg>
