<?xml version="1.0" encoding="iso-8859-1"?>
<!-- Generator: Adobe Illustrator 19.0.0, SVG Export Plug-In . SVG Version: 6.00 Build 0)  -->
<svg version="1.1" id="Layer_1" xmlns="http://www.w3.org/2000/svg" xmlns:xlink="http://www.w3.org/1999/xlink" x="0px" y="0px"
	 viewBox="0 0 512 512" style="enable-background:new 0 0 512 512;" xml:space="preserve">
<rect y="91.429" style="fill:#EFC27B;" width="512" height="365.714"/>
<rect x="256" y="91.429" style="fill:#ECB45C;" width="256" height="365.714"/>
<rect x="73.143" y="347.429" style="fill:#EDEDED;" width="365.714" height="48.762"/>
<rect x="256" y="347.429" style="fill:#DDDBDB;" width="182.857" height="48.762"/>
<path style="fill:#F8F8F9;" d="M256,396.19c0-20.197-16.374-36.571-36.571-36.571H73.143V54.857h146.286
	c20.197,0,36.571,16.374,36.571,36.571c0-20.197,16.374-36.571,36.571-36.571h146.286v304.762H292.571
	C272.374,359.619,256,375.993,256,396.19z"/>
<path style="fill:#EDEDED;" d="M256,396.19c0-20.197,16.374-36.571,36.571-36.571h146.286V54.857H292.571
	C272.374,54.857,256,71.231,256,91.429V396.19z"/>
<g>
</g>
<g>
</g>
<g>
</g>
<g>
</g>
<g>
</g>
<g>
</g>
<g>
</g>
<g>
</g>
<g>
</g>
<g>
</g>
<g>
</g>
<g>
</g>
<g>
</g>
<g>
</g>
<g>
</g>
</svg>
