<?xml version="1.0" encoding="iso-8859-1"?>
<!-- Generator: Adobe Illustrator 19.0.0, SVG Export Plug-In . SVG Version: 6.00 Build 0)  -->
<svg version="1.1" id="Layer_1" xmlns="http://www.w3.org/2000/svg" xmlns:xlink="http://www.w3.org/1999/xlink" x="0px" y="0px"
	 viewBox="0 0 512 512" style="enable-background:new 0 0 512 512;" xml:space="preserve">
<path style="fill:#B9EEDE;" d="M300.653,451.091H83.966c-16.479,0-29.962-13.508-29.962-30.018V86.971
	c0-16.51,13.483-30.018,29.962-30.018h218.45c16.48,0,29.965,13.51,29.965,30.021v155.907l0.191,176.196
	C332.593,436.753,318.295,451.091,300.653,451.091z"/>
<g>
	<path style="fill:#A4DDCD;" d="M332.573,419.076c0.02,17.676-14.278,32.015-31.921,32.015H198.237V56.954h104.18
		c16.48,0,29.965,13.51,29.965,30.021v155.907L332.573,419.076z"/>
	<path style="fill:#A4DDCD;" d="M332.432,288.86c-87.967,9.05-158.734,76.077-173.478,162.231h141.698
		c17.642,0,31.94-14.34,31.921-32.015L332.432,288.86z"/>
</g>
<path style="fill:#97CCBD;" d="M332.432,288.86c-54.346,5.591-102.129,33.309-134.195,73.996v88.235h102.415
	c17.642,0,31.94-14.34,31.921-32.013L332.432,288.86z"/>
<path style="fill:#458081;" d="M275.634,224.453v32.748v26.392H110.751v-59.139h164.883V224.453z M110.751,398.801h164.883v-26.392
	v-32.747H110.751V398.801z"/>
<path style="fill:#316D6D;" d="M175.723,398.801h99.91v-26.39v-32.748h-55.89C201.598,356.341,186.593,376.381,175.723,398.801z"/>
<path style="fill:#C5E02C;" d="M214.496,492.93c-1.417-14.41-1.281-29.2,0.578-44.174
	c13.517-108.792,112.506-186.004,221.093-172.459c7.098,0.888,14.065,2.148,20.876,3.743c1.417,14.41,1.28,29.2-0.579,44.174
	c-13.516,108.792-112.506,186.004-221.09,172.459C228.274,495.787,221.31,494.526,214.496,492.93L214.496,492.93z"/>
<path style="fill:#A5CD27;" d="M235.372,496.674c-7.099-0.888-14.061-2.148-20.877-3.743l242.547-212.89
	c1.417,14.41,1.28,29.2-0.579,44.174C442.947,433.006,343.957,510.218,235.372,496.674z"/>
<path d="M260.289,512c-8.766,0-17.587-0.545-26.427-1.646c-7.374-0.918-14.829-2.253-22.157-3.963
	c-4.907-1.147-8.54-5.29-9.034-10.305c-1.528-15.514-1.322-31.268,0.616-46.823c6.944-55.785,35.196-105.526,79.553-140.06
	c44.357-34.533,99.504-49.725,155.29-42.783c7.397,0.922,14.852,2.257,22.158,3.964c4.905,1.148,8.536,5.291,9.03,10.304
	c1.528,15.519,1.322,31.272-0.614,46.823c-6.944,55.785-35.196,105.526-79.553,140.061C351.824,496.634,306.85,512,260.289,512z
	 M240.769,487.457c48.181,4.983,95.589-8.607,133.926-38.454c39.396-30.673,64.488-74.852,70.657-124.397
	c1.366-10.977,1.764-22.064,1.188-33.067c-3.769-0.705-7.554-1.294-11.321-1.765c-49.547-6.164-98.528,7.328-137.924,37.999
	c-39.396,30.673-64.488,74.851-70.657,124.396c-0.726,5.836-1.178,11.703-1.357,17.569l107.649-94.311
	c4.89-4.283,12.324-3.79,16.604,1.097c4.282,4.887,3.79,12.322-1.097,16.604L240.769,487.457z M165.276,464.82H83.485
	c-23.056,0-41.813-18.759-41.813-41.814V88.596c0-23.056,18.758-41.813,41.813-41.813h219.063c23.058,0,41.815,18.758,41.815,41.813
	V244.65c0,6.499-5.268,11.767-11.767,11.767c-6.499,0-11.767-5.268-11.767-11.767V88.596c0-10.079-8.2-18.279-18.282-18.279H83.485
	c-10.079,0-18.279,8.2-18.279,18.279v334.411c0,10.08,8.2,18.28,18.279,18.28h81.791c6.499,0,11.767,5.268,11.767,11.767
	C177.042,459.553,171.775,464.82,165.276,464.82z M176.317,412.482h-65.971c-6.499,0-11.767-5.268-11.767-11.767v-59.193
	c0-6.499,5.268-11.767,11.767-11.767h97.269c6.499,0,11.767,5.268,11.767,11.767s-5.268,11.767-11.767,11.767h-85.503v35.66h54.203
	c6.499,0,11.767,5.268,11.767,11.767S182.816,412.482,176.317,412.482z M229.487,297.165H110.346
	c-6.499,0-11.767-5.268-11.767-11.767v-59.193c0-6.499,5.268-11.767,11.767-11.767H275.69c6.499,0,11.767,5.268,11.767,11.767
	v32.778c0,6.499-5.268,11.767-11.767,11.767s-11.767-5.268-11.767-11.767v-21.012H122.113v35.66h107.374
	c6.499,0,11.767,5.268,11.767,11.767S235.986,297.165,229.487,297.165z M251.361,23.534H134.676
	c-6.499,0-11.767-5.268-11.767-11.767S128.176,0,134.676,0h116.686c6.499,0,11.767,5.268,11.767,11.767
	S257.861,23.534,251.361,23.534z"/>
<g>
</g>
<g>
</g>
<g>
</g>
<g>
</g>
<g>
</g>
<g>
</g>
<g>
</g>
<g>
</g>
<g>
</g>
<g>
</g>
<g>
</g>
<g>
</g>
<g>
</g>
<g>
</g>
<g>
</g>
</svg>
