<?xml version="1.0" encoding="iso-8859-1"?>
<!-- Generator: Adobe Illustrator 19.0.0, SVG Export Plug-In . SVG Version: 6.00 Build 0)  -->
<svg version="1.1" id="Layer_1" xmlns="http://www.w3.org/2000/svg" xmlns:xlink="http://www.w3.org/1999/xlink" x="0px" y="0px"
	 viewBox="0 0 512.001 512.001" style="enable-background:new 0 0 512.001 512.001;" xml:space="preserve">
<path style="fill:#984C16;" d="M446.987,376.136c0,41.02-33.176,74.273-74.101,74.273H54.032c-23.154,0-42.102-19.11-42.102-42.466
	V145.724c0-23.359,18.947-42.466,42.102-42.466h350.853c23.156,0,42.102,19.108,42.102,42.466v57.015L446.987,376.136
	L446.987,376.136z"/>
<path style="fill:#843D0F;" d="M401.78,243.001c-108.159,0-195.837,87.679-195.837,195.837c0,3.886,0.126,7.742,0.349,11.571
	h166.594c40.925,0,74.101-33.253,74.101-74.273V248.255C432.475,244.825,417.341,243.001,401.78,243.001z"/>
<path style="fill:#A5CD27;" d="M251.663,473.651c-1.442-14.732-1.304-29.848,0.586-45.155
	c13.726-111.204,114.217-190.128,224.465-176.284c7.206,0.906,14.277,2.195,21.191,3.827c1.441,14.732,1.303,29.848-0.584,45.153
	C483.593,412.398,383.1,491.322,272.858,477.478C265.647,476.57,258.583,475.282,251.663,473.651L251.663,473.651z"/>
<path style="fill:#C5E02C;" d="M251.663,473.651c-1.442-14.732-1.304-29.848,0.586-45.155
	c13.726-111.204,114.217-190.128,224.465-176.284c7.206,0.906,14.277,2.195,21.191,3.827c0.072,0.731,0.122,1.466,0.186,2.2
	L252.552,473.849C252.256,473.78,251.958,473.72,251.663,473.651z"/>
<path style="fill:#B5763B;" d="M446.987,140.742v22.268l-187.962,72.6c-16.45,6.355-45.793,5.416-65.208-2.083L11.931,163.274
	v-22.532c0-23.359,18.947-42.466,42.102-42.466h350.853C428.041,98.276,446.987,117.382,446.987,140.742z"/>
<path d="M298.563,489.365c-8.77,0-17.616-0.54-26.541-1.651c-7.487-0.933-15.053-2.287-22.486-4.023
	c-4.978-1.164-8.664-5.367-9.167-10.455c-1.555-15.747-1.345-31.735,0.622-47.522c14.55-116.862,121.467-200.091,238.333-185.555
	c7.499,0.935,15.065,2.29,22.484,4.024c4.977,1.164,8.662,5.367,9.163,10.455c1.555,15.744,1.347,31.732-0.62,47.519
	C496.911,410.1,404.656,489.365,298.563,489.365z M279.033,464.475c102.204,10.531,194.863-62.829,207.621-165.27
	c1.387-11.141,1.79-22.393,1.205-33.557c-3.827-0.716-7.668-1.315-11.488-1.791c-103.803-12.913-198.756,61.011-211.679,164.806
	c-0.739,5.923-1.198,11.876-1.379,17.831l109.248-95.712c4.962-4.347,12.507-3.845,16.851,1.113
	c4.345,4.961,3.846,12.505-1.113,16.851L279.033,464.475z M200.986,460.907H54.145C24.289,460.907,0,436.618,0,406.764v-265.53
	c0-29.854,24.289-54.143,54.145-54.143H87.73V66.806c0-24.355,19.815-44.17,44.17-44.17h196.195c24.355,0,44.17,19.815,44.17,44.17
	v20.286h33.579c29.856,0,54.146,24.288,54.146,54.143v61.61c0,6.596-5.346,11.941-11.941,11.941s-11.941-5.346-11.941-11.941
	v-22.186l-166.311,63.682c0.551,1.373,0.854,2.873,0.854,4.444c0,6.596-5.346,11.941-11.941,11.941h-57.422
	c-6.596,0-11.941-5.346-11.941-11.941c0-1.57,0.304-3.069,0.854-4.442L23.883,180.658v226.106c0,16.685,13.575,30.26,30.262,30.26
	h146.841c6.596,0,11.941,5.346,11.941,11.941S207.582,460.907,200.986,460.907z M23.883,155.084l175.948,67.372
	c16.072,6.154,41.803,7.096,55.067,2.014l181.207-69.386v-13.849c0-16.685-13.575-30.26-30.264-30.26H54.145
	c-16.688,0-30.262,13.575-30.262,30.26V155.084z M111.613,87.092h236.77V66.806c0-11.186-9.101-20.287-20.287-20.287H131.9
	c-11.186,0-20.287,9.101-20.287,20.287V87.092z"/>
<g>
</g>
<g>
</g>
<g>
</g>
<g>
</g>
<g>
</g>
<g>
</g>
<g>
</g>
<g>
</g>
<g>
</g>
<g>
</g>
<g>
</g>
<g>
</g>
<g>
</g>
<g>
</g>
<g>
</g>
</svg>
