<?xml version="1.0" encoding="iso-8859-1"?>
<!-- Generator: Adobe Illustrator 16.0.0, SVG Export Plug-In . SVG Version: 6.00 Build 0)  -->
<!DOCTYPE svg PUBLIC "-//W3C//DTD SVG 1.1//EN" "http://www.w3.org/Graphics/SVG/1.1/DTD/svg11.dtd">
<svg version="1.1" id="Capa_1" xmlns="http://www.w3.org/2000/svg" xmlns:xlink="http://www.w3.org/1999/xlink" x="0px" y="0px"
	 width="800px" height="800px" viewBox="0 0 800 800" style="enable-background:new 0 0 800 800;" xml:space="preserve">
<g>
	<path d="M94.042,84.766C94.042,37.934,131.562,0,177.83,0c46.29,0,83.853,37.934,83.853,84.766S224.12,169.51,177.83,169.51
		C131.562,169.51,94.042,131.597,94.042,84.766z M270.062,209.461c-12.21-9.548-24.854-17.708-39.522-22.852
		c-13.624-4.773-27.966-7.443-42.329-8.441l21.632,229.709l-31.23,37.022l-35.691-37.022l27.095-230.013
		c-15.669,0.521-31.382,3.06-46.203,8.398c-6.028,2.17-11.904,4.817-17.454,8.095c-9.706,5.751-18.651,12.696-27.139,20.269
		C37.458,252.061,14.847,317.034,10.037,413.26c-0.805,16.516,11.752,30.555,28.052,31.378c0.501,0.022,1.023,0.044,1.523,0.044
		c15.648,0,28.728-12.412,29.511-28.405c3.243-65.191,16.039-113.781,37.018-142.709c-1.501,30.317-4.156,85.331-6.55,141.539
		c-0.174,0.996-0.436,1.975-0.522,3.016L75.436,756.099c-1.501,21.375,14.407,39.908,35.539,41.429
		c0.914,0.043,1.849,0.087,2.742,0.087c19.956,0,36.758-15.625,38.193-36.046l18.63-266.08c2.938-0.825,5.811-1.563,8.292-1.563
		c2.96,0,5.767,0.521,8.639,0.868l17.194,268.945C205.991,784.245,222.857,800,242.923,800c0.827,0,1.654-0.021,2.524-0.087
		c21.109-1.389,37.106-19.836,35.778-41.188l-20.457-319.357c-0.11-1.779-0.523-3.472-0.828-5.166
		c-1.741-48.871-7.246-121.266-10.446-160.589c21.437,28.971,33.493,77.083,34.799,141.776
		c0.348,16.297,13.515,29.295,30.207,29.273c16.323-0.325,29.271-13.975,28.945-30.512
		C341.444,314.888,316.743,246.008,270.062,209.461z M790,799.544H394.719V522.547H790V799.544z M599.944,492.817v-61.479
		c60.13-9.962,92.319-53.777,92.319-100.435c0-52.54-30.447-83.269-90.534-108.095c-50.709-21.116-72.342-36.437-72.342-67.145
		c0-23.719,16.933-50.845,61.917-50.845c37.301,0,61.219,13.085,73.383,19.878l14.625-38.802
		c-16.889-10.069-40.805-19.51-75.799-20.552V7.878h-36.127V67.6c-53.624,8.833-88.185,46.051-88.185,95.052
		c0,51.324,36.779,78.494,96.302,102.105c43.287,17.881,66.027,37.847,66.027,70.29c0,33.79-28.074,57.965-69.554,57.965
		c-32.558,0-62.982-11.285-83.962-25.391L474,407.074c20.436,14.714,55.387,25.478,89.251,25.978v59.767L599.944,492.817
		L599.944,492.817z"/>
</g>
<g>
</g>
<g>
</g>
<g>
</g>
<g>
</g>
<g>
</g>
<g>
</g>
<g>
</g>
<g>
</g>
<g>
</g>
<g>
</g>
<g>
</g>
<g>
</g>
<g>
</g>
<g>
</g>
<g>
</g>
</svg>
