<?xml version="1.0" encoding="iso-8859-1"?>
<!-- Generator: Adobe Illustrator 18.0.0, SVG Export Plug-In . SVG Version: 6.00 Build 0)  -->
<!DOCTYPE svg PUBLIC "-//W3C//DTD SVG 1.1//EN" "http://www.w3.org/Graphics/SVG/1.1/DTD/svg11.dtd">
<svg version="1.1" id="Capa_1" xmlns="http://www.w3.org/2000/svg" xmlns:xlink="http://www.w3.org/1999/xlink" x="0px" y="0px"
	 viewBox="0 0 456.521 456.521" style="enable-background:new 0 0 456.521 456.521;" xml:space="preserve">
<g>
	<path d="M446.727,30.098c-6.316-6.316-14.715-9.795-23.647-9.795c-5.909,0-11.583,1.522-16.576,4.38
		c-4.993-2.858-10.667-4.38-16.576-4.38c-8.933,0-17.331,3.479-23.647,9.795c-6.316,6.316-9.794,14.714-9.794,23.647
		s3.479,17.331,9.795,23.646l33.151,33.152c1.875,1.875,4.419,2.929,7.071,2.929s5.196-1.054,7.071-2.929l33.152-33.152
		c6.316-6.316,9.794-14.714,9.794-23.647S453.043,36.414,446.727,30.098z M432.584,63.249L406.504,89.33l-26.081-26.081
		c-2.539-2.539-3.937-5.914-3.937-9.504s1.398-6.966,3.938-9.505c2.539-2.539,5.914-3.937,9.504-3.937s6.966,1.398,9.504,3.937
		c1.875,1.875,4.419,2.929,7.071,2.929c2.652,0,5.196-1.054,7.071-2.929c2.539-2.539,5.914-3.938,9.505-3.938
		c3.59,0,6.966,1.398,9.504,3.938c2.539,2.539,3.937,5.914,3.937,9.504S435.123,60.711,432.584,63.249z"/>
	<path d="M187.878,296.69c-2.64,0-5.21,1.06-7.07,2.92c-1.87,1.86-2.93,4.44-2.93,7.08c0,2.63,1.06,5.2,2.93,7.06
		c1.86,1.87,4.44,2.94,7.07,2.94s5.21-1.07,7.07-2.94c1.86-1.86,2.93-4.43,2.93-7.06c0-2.64-1.07-5.21-2.93-7.08
		C193.088,297.75,190.508,296.69,187.878,296.69z"/>
	<path d="M319.348,306.69c0-2.64-1.07-5.21-2.94-7.08c-1.86-1.86-4.43-2.92-7.06-2.92c-2.64,0-5.22,1.06-7.08,2.92
		c-1.86,1.86-2.92,4.44-2.92,7.08c0,2.63,1.06,5.2,2.92,7.06c1.87,1.87,4.44,2.94,7.08,2.94c2.63,0,5.2-1.07,7.06-2.94
		C318.278,311.89,319.348,309.32,319.348,306.69z"/>
	<path d="M414.312,289.822c5.584-17.486,8.376-35.876,8.2-54.651c-0.44-46.076-18.733-85.346-52.903-113.565
		c-31.806-26.267-75.376-40.514-122.635-40.049c-11.555,0.102-22.909,1.082-33.924,2.883c0.002-0.215,0.016-0.428,0.016-0.643
		c0-17.778-6.923-34.492-19.494-47.063c-12.571-12.571-29.285-19.495-47.063-19.495c-14.624,0-28.528,4.685-39.998,13.344
		c-26.056-19.605-63.342-17.556-87.049,6.15c-25.95,25.951-25.95,68.175,0,94.126l61.398,61.398
		c-4.083,14.062-6.149,29.033-6.149,44.598c0,18.179,2.791,35.994,8.207,52.958c-13.018,9.104-21.053,24.134-21.053,40.396
		c0,27.183,22.115,49.297,49.298,49.297c5.215,0,10.395-0.834,15.32-2.44c8.899,12.216,19.607,23.138,31.748,32.213
		c26.258,19.628,57.513,30.002,90.384,30.002c32.863,0,64.11-10.371,90.362-29.992c12.144-9.077,22.854-20.001,31.754-32.22
		c4.92,1.604,10.1,2.437,15.322,2.437c27.183,0,49.298-22.115,49.298-49.297C435.352,313.964,427.322,298.936,414.312,289.822z
		 M33.605,50.876c9.076-9.077,20.998-13.615,32.92-13.615s23.844,4.538,32.92,13.615c1.875,1.875,4.419,2.929,7.071,2.929
		s5.196-1.054,7.071-2.929c8.793-8.793,20.484-13.636,32.92-13.636c12.436,0,24.127,4.843,32.92,13.637
		c18.153,18.152,18.153,47.688,0,65.841l-72.912,72.912l-72.912-72.912C15.452,98.565,15.452,69.028,33.605,50.876z M99.446,210.842
		c1.952,1.953,4.512,2.929,7.071,2.929s5.119-0.976,7.071-2.929l79.983-79.983c7.29-7.29,12.666-15.979,15.909-25.456
		c12.091-2.437,24.734-3.733,37.675-3.848c42.594-0.386,81.54,12.2,109.718,35.471c29.476,24.342,45.257,58.346,45.639,98.333
		c0.213,22.827-4.514,45.01-13.813,65.351c-7.674-16.94-23.487-29.49-42.805-32.522c-8.095-6.104-41.651-33.812-41.651-73.526
		c0-5.523-4.477-10-10-10s-10,4.477-10,10c0,28.654,13.243,51.617,26.403,67.369c-11.401-2.851-22.593-6.535-33.49-11.044
		c-21.038-8.708-40.697-20.357-58.436-34.625l-39.403-33.759c-4.195-3.594-10.507-3.107-14.1,1.087
		c-3.593,4.194-3.106,10.507,1.087,14.1l13.946,11.949c-8.444,3.469-18.995,8.858-29.549,17.024
		c-16.754,12.961-36.032,35.055-43.562,70.81c-8.184-19.028-12.43-39.595-12.43-60.717c0-9.672,0.905-19.056,2.691-28.056
		L99.446,210.842z M111.164,359.507c-16.155,0-29.298-13.143-29.298-29.297c0-7.941,3.222-15.388,8.661-20.792
		c4.022,8.739,8.792,17.172,14.283,25.227c2.738,8.478,6.251,16.703,10.46,24.564C113.913,359.4,112.542,359.507,111.164,359.507z
		 M327.005,393.27c-22.768,17.017-49.875,26.012-78.389,26.012c-28.522,0-55.636-8.998-78.41-26.022
		c-21.63-16.168-38.014-39.069-46.297-64.602c0.353-37.018,13.257-65.807,38.388-85.574c14.251-11.209,28.75-16.374,35.476-18.334
		l8.053,6.899c0.077,0.066,0.155,0.131,0.234,0.194c19.254,15.507,40.602,28.165,63.448,37.622
		c22.852,9.458,46.9,15.593,71.475,18.233c18.665,2.009,32.74,17.644,32.74,36.368c0,1.372-0.093,2.733-0.243,4.071
		C365.255,353.885,348.785,376.991,327.005,393.27z M386.054,359.507c-1.38,0-2.753-0.107-4.11-0.298
		c4.199-7.844,7.704-16.05,10.438-24.508c5.507-8.071,10.291-16.517,14.321-25.268c5.432,5.408,8.649,12.849,8.649,20.776
		C415.352,346.364,402.209,359.507,386.054,359.507z"/>
	<path d="M272.922,360.696c-13.406,13.407-35.221,13.408-48.627,0c-3.905-3.905-10.237-3.905-14.143,0
		c-3.905,3.905-3.905,10.237,0,14.143c10.279,10.279,23.937,15.939,38.457,15.939c14.52,0,28.177-5.661,38.456-15.939
		c3.905-3.905,3.905-10.237,0-14.143C283.159,356.791,276.827,356.791,272.922,360.696z"/>
	<path d="M175.522,326.163h-11.986c-5.523,0-10,4.477-10,10s4.477,10,10,10h11.986c5.523,0,10-4.477,10-10
		S181.045,326.163,175.522,326.163z"/>
	<path d="M333.681,326.163h-11.986c-5.523,0-10,4.477-10,10s4.477,10,10,10h11.986c5.523,0,10-4.477,10-10
		S339.204,326.163,333.681,326.163z"/>
</g>
<g>
</g>
<g>
</g>
<g>
</g>
<g>
</g>
<g>
</g>
<g>
</g>
<g>
</g>
<g>
</g>
<g>
</g>
<g>
</g>
<g>
</g>
<g>
</g>
<g>
</g>
<g>
</g>
<g>
</g>
</svg>
