<?xml version="1.0" encoding="iso-8859-1"?>
<!-- Generator: Adobe Illustrator 19.0.0, SVG Export Plug-In . SVG Version: 6.00 Build 0)  -->
<svg version="1.1" id="Layer_1" xmlns="http://www.w3.org/2000/svg" xmlns:xlink="http://www.w3.org/1999/xlink" x="0px" y="0px"
	 viewBox="0 0 403.58 403.58" style="enable-background:new 0 0 403.58 403.58;" xml:space="preserve">
<g id="XMLID_1363_">
	<g id="XMLID_1364_">
		<path id="XMLID_1365_" style="fill:#1DD2A5;" d="M279.96,205c0,19.36-0.84,37.26-2.32,53.91c-5.49,62.19-19.79,106.9-31.98,144.67
			c-0.11-0.1-0.22-0.21-0.35-0.31c-10.06-9.24-25.81-15.19-43.51-15.19s-33.45,5.95-43.52,15.19c-0.12,0.1-0.23,0.21-0.34,0.31
			c-12.19-37.77-26.5-82.49-32-144.68c-1.48-16.64-2.32-34.54-2.32-53.9c0-40.31,5.73-73.81,14.09-101.25
			C160.22,29.83,201.8,0,201.8,0s41.57,29.83,64.07,103.75C274.23,131.19,279.96,164.69,279.96,205z"/>
		<path id="XMLID_1366_" style="fill:#2CB79A;" d="M265.87,103.75C243.37,29.83,201.8,0,201.8,0s-0.008,0.006-0.01,0.007V388.08
			c0.003,0,0.007,0,0.01,0c17.7,0,33.45,5.95,43.51,15.19c0.13,0.1,0.24,0.21,0.35,0.31c12.19-37.77,26.49-82.48,31.98-144.67
			c1.48-16.65,2.32-34.55,2.32-53.91C279.96,164.69,274.23,131.19,265.87,103.75z"/>
	</g>
	<g id="XMLID_1367_">
		<path id="XMLID_1368_" style="fill:#FAE16E;" d="M279.96,205c0,19.36-0.84,37.26-2.32,53.91c-13.84-7.11-24.35-42.32-24.35-84.7
			c0-29.15,4.97-54.91,12.58-70.46C274.23,131.19,279.96,164.69,279.96,205z"/>
		<path id="XMLID_1369_" style="fill:#FCE98E;" d="M150.29,174.21c0,42.38-10.51,77.59-24.35,84.69
			c-1.48-16.64-2.32-34.54-2.32-53.9c0-40.31,5.73-73.81,14.09-101.25C145.32,119.3,150.29,145.06,150.29,174.21z"/>
	</g>
	<g id="XMLID_1370_">
		<path id="XMLID_1371_" style="fill:#FCE98E;" d="M251.6,334.33c0,26.96-2.56,49.49-6.29,68.94
			c-10.07-9.24-25.82-15.19-43.52-15.19s-33.45,5.95-43.52,15.19c-3.73-19.45-6.29-41.98-6.29-68.94
			c0-94.89,49.81-130.64,49.81-130.64S251.6,239.44,251.6,334.33z"/>
		<path id="XMLID_1372_" style="fill:#FAE16E;" d="M201.79,203.69v184.39c17.7,0,33.45,5.95,43.52,15.19
			c3.73-19.45,6.29-41.98,6.29-68.94C251.6,239.44,201.79,203.69,201.79,203.69z"/>
	</g>
	<g id="XMLID_1373_">
		<path id="XMLID_1374_" style="fill:#FCE98E;" d="M224.61,92.977c0,26.086-22.82,47.233-22.82,47.233s-22.82-21.147-22.82-47.233
			s22.82-47.233,22.82-47.233S224.61,66.89,224.61,92.977z"/>
		<path id="XMLID_1375_" style="fill:#FAE16E;" d="M201.79,45.743v94.467c0,0,22.82-21.147,22.82-47.233
			C224.61,66.891,201.79,45.743,201.79,45.743z"/>
	</g>
</g>
<g>
</g>
<g>
</g>
<g>
</g>
<g>
</g>
<g>
</g>
<g>
</g>
<g>
</g>
<g>
</g>
<g>
</g>
<g>
</g>
<g>
</g>
<g>
</g>
<g>
</g>
<g>
</g>
<g>
</g>
</svg>
