<?xml version='1.0' encoding='utf-8'?>
<!DOCTYPE svg PUBLIC '-//W3C//DTD SVG 1.1//EN' 'http://www.w3.org/Graphics/SVG/1.1/DTD/svg11.dtd'>
<svg version="1.1" xmlns="http://www.w3.org/2000/svg" viewBox="0 0 512 512" xmlns:xlink="http://www.w3.org/1999/xlink" enable-background="new 0 0 512 512">
  <g>
    <g>
      <g>
        <path d="m381.2,252.1c-10.9,0-21.6,1.4-31.9,4.3-22.6-27.6-57-44.3-93.2-44.3-36.3,0-70.7,16.6-93.3,44.3-10.4-2.9-21-4.3-31.9-4.3-66.1,0-119.8,53.2-119.8,118.5 0,3 3.2,16.9 5.8,20.5l75.1,101.6c3.8,5.2 9.9,8.3 16.4,8.3h295.4c6.5,0 12.6-3.1 16.4-8.3l75.1-101.6c5.8-10.7 5.8-17.5 5.8-20.5 5.68434e-14-65.3-53.8-118.5-119.9-118.5zm12.3,208.1h-274.8l-44.9-60.8h364.6l-44.9,60.8zm-340.6-101.6c5.9-37.1 38.7-65.6 78-65.6 10.9,0 21.6,2.2 31.6,6.5 9.4,4 20.3,0.5 25.6-8.2 14.4-24 39.8-38.3 68-38.3 28.1,0 53.5,14.3 68,38.3 5.3,8.8 16.2,12.3 25.6,8.2 10.1-4.3 20.7-6.5 31.6-6.5 39.4,0 72.1,28.5 78,65.6h-406.4z"/>
        <path d="m334.4,149c-5,10.1-1,22.7 9.3,27.3 11,4.9 23.8-2.1 27.3-9.3 17.6-35.6 10.1-55.4 3.6-72.8-5.3-14-10.3-27.2-2.2-57.6 2.9-10.9-3.5-22.1-14.4-25-11-3-22.1,3.5-25,14.4-11.6,43.1-2.9,66 3.4,82.6 5.3,14.3 7.8,20.7-2,40.4z"/>
        <path d="m232.4,149c-5,10.1-1,22.7 9.3,27.3 11,4.9 23.8-2.1 27.3-9.3 17.6-35.6 10.1-55.4 3.6-72.8-5.3-14-10.3-27.2-2.2-57.6 2.9-10.9-3.5-22.1-14.4-25-11-3-22.1,3.5-25,14.4-11.6,43.1-2.9,66 3.4,82.6 5.3,14.3 7.8,20.7-2,40.4z"/>
        <path d="m130.4,149c-5,10.1-1,22.7 9.3,27.3 11,4.9 23.8-2.1 27.3-9.3 17.6-35.6 10.1-55.4 3.6-72.8-5.3-14-10.3-27.2-2.2-57.6 2.9-10.9-3.5-22.1-14.4-25-11-3-22.1,3.5-25,14.4-11.6,43.1-2.9,66 3.4,82.6 5.3,14.3 7.8,20.7-2,40.4z"/>
      </g>
    </g>
  </g>
</svg>
