<?xml version='1.0' encoding='utf-8'?>
<!DOCTYPE svg PUBLIC '-//W3C//DTD SVG 1.1//EN' 'http://www.w3.org/Graphics/SVG/1.1/DTD/svg11.dtd'>
<svg version="1.1" xmlns="http://www.w3.org/2000/svg" viewBox="0 0 512 512" xmlns:xlink="http://www.w3.org/1999/xlink" enable-background="new 0 0 512 512">
  <g>
    <g>
      <g>
        <path d="m102.3,11c-50.3,0-91.2,50.4-91.2,112.2 5.32907e-15,53.3 30.3,98 70.8,109.4v247.9c0,11.3 9.1,20.4 20.4,20.4 11.3,0 20.4-9.1 20.4-20.4v-247.8c40.5-11.4 70.8-56.2 70.8-109.4 0-61.9-40.9-112.3-91.2-112.3zm0,183.6c-27.3,0-50.4-32.7-50.4-71.4 0-38.7 23.1-71.4 50.4-71.4 27.3,0 50.4,32.7 50.4,71.4 0,38.7-23.1,71.4-50.4,71.4z"/>
        <path d="m480.7,15.9c-11.3,0-20.4,9.1-20.4,20.4v62.2c0,20.7-13.1,38.5-31.9,46.2v-108.4c0-11.3-9.1-20.4-20.4-20.4-11.3,0-20.4,9.1-20.4,20.4v108.4c-18.7-7.6-31.9-25.5-31.9-46.2v-62.2c0-11.3-9.1-20.4-20.4-20.4-11.3,0-20.4,9.1-20.4,20.4v62.2c0,43.3 31.1,79.7 72.7,88.8v293.3c0,11.3 9.1,20.4 20.4,20.4 11.3,0 20.4-9.1 20.4-20.4v-293.3c41.6-9.1 72.7-45.5 72.7-88.8v-62.2c-5.68434e-14-11.3-9.2-20.4-20.4-20.4z"/>
      </g>
    </g>
  </g>
</svg>
