<?xml version="1.0" encoding="iso-8859-1"?>
<!-- Generator: Adobe Illustrator 17.1.0, SVG Export Plug-In . SVG Version: 6.00 Build 0)  -->
<!DOCTYPE svg PUBLIC "-//W3C//DTD SVG 1.1//EN" "http://www.w3.org/Graphics/SVG/1.1/DTD/svg11.dtd">
<svg version="1.1" id="Capa_1" xmlns="http://www.w3.org/2000/svg" xmlns:xlink="http://www.w3.org/1999/xlink" x="0px" y="0px"
	 viewBox="0 0 157.666 157.666" style="enable-background:new 0 0 157.666 157.666;" xml:space="preserve">
<path style="fill:#000002;" d="M116.604,157.666H41.062c-5.238,0-9.5-4.262-9.5-9.5V9.5c0-5.238,4.262-9.5,9.5-9.5h75.542
	c5.238,0,9.5,4.262,9.5,9.5v138.666C126.104,153.404,121.842,157.666,116.604,157.666z M41.062,5c-2.481,0-4.5,2.019-4.5,4.5
	v138.666c0,2.481,2.019,4.5,4.5,4.5h75.542c2.481,0,4.5-2.019,4.5-4.5V9.5c0-2.481-2.019-4.5-4.5-4.5H41.062z M78.833,151.009
	c-5.238,0-9.5-4.262-9.5-9.5s4.262-9.5,9.5-9.5s9.5,4.262,9.5,9.5S84.071,151.009,78.833,151.009z M78.833,137.009
	c-2.481,0-4.5,2.019-4.5,4.5s2.019,4.5,4.5,4.5s4.5-2.019,4.5-4.5S81.314,137.009,78.833,137.009z M115.083,128.458h-72.5
	c-1.381,0-2.5-1.119-2.5-2.5V18.583c0-1.381,1.119-2.5,2.5-2.5h72.5c1.381,0,2.5,1.119,2.5,2.5v107.375
	C117.583,127.339,116.464,128.458,115.083,128.458z M45.083,123.458h67.5V21.083h-67.5V123.458z M97.238,94.583h-36.81
	c-1.381,0-2.5-1.119-2.5-2.5V70.452h-2.101c-1.021,0-1.939-0.62-2.32-1.567c-0.38-0.947-0.147-2.03,0.589-2.737l23.006-22.062
	c0.968-0.928,2.493-0.928,3.461,0l23.006,22.062c0.737,0.707,0.97,1.79,0.589,2.737c-0.381,0.947-1.299,1.567-2.32,1.567h-2.102
	v21.631C99.738,93.464,98.619,94.583,97.238,94.583z M62.928,89.583h31.81V67.952c0-0.921,0.498-1.725,1.238-2.159L78.833,49.354
	L61.69,65.794c0.74,0.434,1.238,1.237,1.238,2.158V89.583z M83.385,13.166h-9.104c-1.381,0-2.5-1.119-2.5-2.5s1.119-2.5,2.5-2.5
	h9.104c1.381,0,2.5,1.119,2.5,2.5S84.766,13.166,83.385,13.166z"/>
<g>
</g>
<g>
</g>
<g>
</g>
<g>
</g>
<g>
</g>
<g>
</g>
<g>
</g>
<g>
</g>
<g>
</g>
<g>
</g>
<g>
</g>
<g>
</g>
<g>
</g>
<g>
</g>
<g>
</g>
</svg>
