<?xml version="1.0" encoding="iso-8859-1"?>
<!-- Generator: Adobe Illustrator 16.0.0, SVG Export Plug-In . SVG Version: 6.00 Build 0)  -->
<!DOCTYPE svg PUBLIC "-//W3C//DTD SVG 1.1//EN" "http://www.w3.org/Graphics/SVG/1.1/DTD/svg11.dtd">
<svg version="1.1" id="Capa_1" xmlns="http://www.w3.org/2000/svg" xmlns:xlink="http://www.w3.org/1999/xlink" x="0px" y="0px"
	 width="399.175px" height="399.175px" viewBox="0 0 399.175 399.175" style="enable-background:new 0 0 399.175 399.175;"
	 xml:space="preserve">
<g>
	<g>
		<path d="M199.587,165.519c-18.798,0-34.071,15.279-34.071,34.081c0,18.782,15.273,34.07,34.071,34.07
			c18.783,0,34.071-15.288,34.071-34.07C233.658,180.798,218.364,165.519,199.587,165.519z"/>
		<path d="M369.438,148.853h-45.588c-0.181-0.417-0.349-0.841-0.528-1.258l32.233-32.24c5.62-5.609,8.719-13.073,8.719-21.017
			s-3.086-15.414-8.707-21.028l-29.699-29.712c-5.621-5.608-13.078-8.695-21.017-8.695s-15.396,3.087-21.029,8.701L251.577,75.85
			c-0.421-0.181-0.841-0.357-1.262-0.532V29.732C250.315,13.339,236.973,0,220.58,0h-41.998c-16.393,0-29.724,13.339-29.724,29.732
			v45.585c-0.432,0.174-0.855,0.351-1.273,0.532l-32.234-32.234c-5.62-5.615-13.09-8.713-21.028-8.713
			c-7.938,0-15.408,3.093-21.017,8.707l-29.711,29.7c-11.577,11.589-11.577,30.447,0.012,42.045l32.234,32.24
			c-0.18,0.417-0.351,0.847-0.528,1.264H29.735C13.342,148.858,0,162.192,0,178.585v42.006c0,16.381,13.342,29.724,29.735,29.724
			h45.577c0.177,0.421,0.36,0.841,0.541,1.273l-32.234,32.233c-11.589,11.59-11.589,30.444-0.012,42.033l29.7,29.7
			c5.621,5.62,13.09,8.707,21.029,8.707s15.408-3.087,21.017-8.707l32.234-32.233c0.417,0.18,0.853,0.36,1.273,0.528v45.588
			c0,16.394,13.331,29.736,29.724,29.736h41.998c16.393,0,29.735-13.343,29.735-29.736v-45.588c0.421-0.168,0.841-0.349,1.273-0.528
			l32.233,32.233c5.608,5.62,13.079,8.719,21.017,8.719c7.938,0,15.408-3.099,21.018-8.707l29.711-29.699
			c11.577-11.602,11.577-30.456-0.012-42.046l-32.233-32.246c0.18-0.42,0.36-0.84,0.528-1.272h45.601
			c7.938,0,15.408-3.087,21.017-8.707c5.62-5.608,8.707-13.078,8.707-21.017v-42.01
			C399.175,162.198,385.832,148.868,369.438,148.853z M199.587,258.254c-32.356,0-58.667-26.325-58.667-58.667
			c0-32.354,26.31-58.673,58.667-58.673c32.342,0,58.667,26.319,58.667,58.673C258.254,231.929,231.923,258.254,199.587,258.254z"/>
	</g>
</g>
<g>
</g>
<g>
</g>
<g>
</g>
<g>
</g>
<g>
</g>
<g>
</g>
<g>
</g>
<g>
</g>
<g>
</g>
<g>
</g>
<g>
</g>
<g>
</g>
<g>
</g>
<g>
</g>
<g>
</g>
</svg>
