<?xml version="1.0" encoding="iso-8859-1"?>
<!-- Generator: Adobe Illustrator 19.0.0, SVG Export Plug-In . SVG Version: 6.00 Build 0)  -->
<svg version="1.1" id="Capa_1" xmlns="http://www.w3.org/2000/svg" xmlns:xlink="http://www.w3.org/1999/xlink" x="0px" y="0px"
	 viewBox="0 0 412.333 412.333" style="enable-background:new 0 0 412.333 412.333;" xml:space="preserve">
<g>
	<path d="M308.833,258.088V102.666C308.833,46.056,262.778,0,206.167,0S103.5,46.056,103.5,102.666l0,155.419
		c-41.727,31.919-66.333,81.326-66.333,134.248v20h338v-20C375.166,339.468,350.545,290.007,308.833,258.088z M183.348,202.773
		c7.341,1.673,14.978,2.56,22.819,2.56c23.576,0,45.316-7.993,62.667-21.404v63.034C235.376,242.326,205.52,226.237,183.348,202.773
		z M206.167,165.333c-31.433,0-57.527-23.264-61.987-53.477c16.618-11.529,38.668-18.023,61.988-18.023
		c23.319,0,45.368,6.494,61.986,18.021C263.694,142.068,237.599,165.333,206.167,165.333z M236.806,280.89
		c-9.704,3.563-20.057,5.457-30.641,5.457c-23.588,0-46.055-9.338-62.665-25.835l0-42.754
		C167.049,247.543,199.508,269.943,236.806,280.89z M206.167,40c18.425,0,35.015,7.996,46.492,20.696
		c-14.674-4.485-30.423-6.863-46.491-6.863c-16.069,0-31.819,2.378-46.494,6.864C171.15,47.996,187.741,40,206.167,40z
		 M78.718,372.333c4.699-30.068,19.893-57.509,42.994-77.514c23.295,20.209,53.189,31.527,84.454,31.527
		c31.264,0,61.156-11.317,84.451-31.524c23.092,20.005,38.293,47.462,42.996,77.511H78.718z"/>
</g>
<g>
</g>
<g>
</g>
<g>
</g>
<g>
</g>
<g>
</g>
<g>
</g>
<g>
</g>
<g>
</g>
<g>
</g>
<g>
</g>
<g>
</g>
<g>
</g>
<g>
</g>
<g>
</g>
<g>
</g>
</svg>
