<?xml version="1.0" encoding="iso-8859-1"?>
<!-- Generator: Adobe Illustrator 19.0.0, SVG Export Plug-In . SVG Version: 6.00 Build 0)  -->
<svg version="1.1" id="Layer_1" xmlns="http://www.w3.org/2000/svg" xmlns:xlink="http://www.w3.org/1999/xlink" x="0px" y="0px"
	 viewBox="0 0 512.001 512.001" style="enable-background:new 0 0 512.001 512.001;" xml:space="preserve">
<path style="fill:#4BB6AA;" d="M182.833,92.386c0-13.007-10.642-23.649-23.649-23.649H77.147c-13.008,0-23.65,10.642-23.65,23.649
	v25.398c0,13.008,10.642,23.649,23.65,23.649h82.036c13.008,0,23.649-10.642,23.649-23.649V92.386H182.833z"/>
<path style="fill:#333E48;" d="M512,145.417c0-22.763-18.624-41.387-41.387-41.387H41.387C18.624,104.03,0,122.654,0,145.417
	v256.452c0,22.763,18.624,41.387,41.387,41.387h429.227c22.763,0,41.387-18.623,41.387-41.387V145.417H512z"/>
<path style="fill:#00A8E1;" d="M0,358.341h38.234c9.756,0,17.737-7.982,17.737-17.737V206.692c0-9.755-7.982-17.737-17.737-17.737H0
	V358.341z"/>
<rect x="81.734" y="104.033" style="opacity:0.1;enable-background:new    ;" width="44.346" height="339.231"/>
<circle style="opacity:0.1;enable-background:new    ;" cx="278.471" cy="303.922" r="116.668"/>
<circle style="fill:#FFFFFF;" cx="278.471" cy="273.649" r="116.668"/>
<circle style="fill:#333E48;" cx="278.471" cy="273.649" r="81.194"/>
<g>
	<circle style="fill:#FFFFFF;" cx="295.031" cy="255.906" r="26.018"/>
	<path style="fill:#FFFFFF;" d="M397.704,180.624c0,6.504,5.322,11.824,11.824,11.824h60.421c6.504,0,11.824-5.322,11.824-11.824
		v-16.161c0-6.504-5.322-11.824-11.824-11.824h-60.421c-6.503,0-11.824,5.322-11.824,11.824V180.624z"/>
</g>
<rect x="415.674" y="152.635" style="opacity:0.1;enable-background:new    ;" width="16.887" height="39.809"/>
<rect x="446.915" y="152.635" style="opacity:0.1;enable-background:new    ;" width="16.887" height="39.809"/>
<g>
</g>
<g>
</g>
<g>
</g>
<g>
</g>
<g>
</g>
<g>
</g>
<g>
</g>
<g>
</g>
<g>
</g>
<g>
</g>
<g>
</g>
<g>
</g>
<g>
</g>
<g>
</g>
<g>
</g>
</svg>
