<?xml version="1.0" encoding="iso-8859-1"?>
<!-- Generator: Adobe Illustrator 19.0.0, SVG Export Plug-In . SVG Version: 6.00 Build 0)  -->
<svg version="1.1" id="Layer_1" xmlns="http://www.w3.org/2000/svg" xmlns:xlink="http://www.w3.org/1999/xlink" x="0px" y="0px"
	 viewBox="0 0 512.003 512.003" style="enable-background:new 0 0 512.003 512.003;" xml:space="preserve">
<path style="fill:#0055B8;" d="M189.158,294.836c-0.004-9.16,7.487-16.651,16.644-16.655l100.321-0.03
	c9.156-0.004,16.651,7.486,16.654,16.646l0.079,207.527c0.002,9.158-6.141,12.366-13.653,7.126l-39.508-27.549
	c-7.511-5.238-19.802-5.234-27.309,0.008l-39.492,27.574c-7.509,5.241-13.657,2.04-13.659-7.119L189.158,294.836z"/>
<path style="fill:#FF9E16;" d="M279.619,278.158l0.079,210.717l-10.002-6.977c-7.511-5.238-19.802-5.234-27.309,0.008l-8.992,6.279
	l-0.082-210.014L279.619,278.158z"/>
<circle style="fill:#0071CE;" cx="256.002" cy="185.918" r="185.918"/>
<g>
	<path style="fill:#FFFFFF;" d="M256.007,337.901c-83.804,0-151.983-68.178-151.983-151.98S172.203,33.939,256.007,33.939
		S407.99,102.118,407.99,185.92S339.811,337.901,256.007,337.901z M256.007,50.478c-74.684,0-135.445,60.759-135.445,135.444
		c0,74.683,60.76,135.443,135.445,135.443s135.445-60.759,135.445-135.443S330.691,50.478,256.007,50.478z"/>
	<circle style="fill:#FFFFFF;" cx="256.013" cy="185.918" r="105.941"/>
</g>
<g>
	<path style="fill:#FF9E16;" d="M223.472,180.545L223.472,180.545c-7.257,0-14.079-2.826-19.209-7.956
		c-5.129-5.13-7.955-11.951-7.955-19.206c-0.001-7.256,2.826-14.078,7.955-19.208c5.13-5.129,11.951-7.955,19.207-7.955
		c7.256,0,14.077,2.826,19.207,7.955c5.13,5.13,7.956,11.952,7.956,19.207c0,7.256-2.826,14.078-7.957,19.208
		C237.548,177.719,230.726,180.545,223.472,180.545z M223.47,142.758c-2.838,0-5.506,1.105-7.511,3.111
		c-4.143,4.142-4.143,10.882,0,15.024c2.007,2.007,4.675,3.112,7.514,3.112l0,0c2.837,0,5.504-1.105,7.51-3.11
		c2.008-2.008,3.112-4.676,3.112-7.513c0-2.838-1.106-5.506-3.112-7.513C228.977,143.863,226.309,142.758,223.47,142.758z"/>
	<path style="fill:#FF9E16;" d="M288.546,245.619c-7.256,0-14.077-2.826-19.207-7.955c-5.129-5.13-7.956-11.952-7.956-19.207
		c-0.001-7.256,2.826-14.076,7.956-19.207c5.129-5.13,11.95-7.956,19.206-7.956c7.256,0,14.077,2.826,19.208,7.956
		c10.59,10.592,10.59,27.822,0,38.414C302.622,242.794,295.802,245.619,288.546,245.619z M288.545,207.833
		c-2.838,0-5.505,1.105-7.512,3.111c-2.007,2.007-3.111,4.675-3.111,7.511c0,2.838,1.106,5.506,3.112,7.513
		c2.005,2.007,4.674,3.111,7.511,3.111c2.838,0,5.506-1.105,7.513-3.111c4.143-4.142,4.143-10.882,0-15.024
		C294.051,208.938,291.383,207.833,288.545,207.833z"/>
	<path style="fill:#FF9E16;" d="M209.992,240.204c-2.116,0-4.233-0.807-5.848-2.421c-3.229-3.23-3.229-8.465,0-11.694l92.031-92.031
		c3.23-3.228,8.465-3.228,11.694,0c3.229,3.23,3.229,8.465,0,11.694l-92.031,92.031
		C214.225,239.397,212.108,240.204,209.992,240.204z"/>
</g>
<g>
</g>
<g>
</g>
<g>
</g>
<g>
</g>
<g>
</g>
<g>
</g>
<g>
</g>
<g>
</g>
<g>
</g>
<g>
</g>
<g>
</g>
<g>
</g>
<g>
</g>
<g>
</g>
<g>
</g>
</svg>
