<?xml version="1.0" encoding="iso-8859-1"?>
<!-- Generator: Adobe Illustrator 19.0.0, SVG Export Plug-In . SVG Version: 6.00 Build 0)  -->
<svg version="1.1" id="Layer_1" xmlns="http://www.w3.org/2000/svg" xmlns:xlink="http://www.w3.org/1999/xlink" x="0px" y="0px"
	 viewBox="0 0 512.006 512.006" style="enable-background:new 0 0 512.006 512.006;" xml:space="preserve">
<path style="fill:#7BD9BF;" d="M511.903,197.793c-0.006-0.154-0.006-0.312-0.016-0.466c-0.022-0.34-0.061-0.681-0.099-1.021
	c-0.019-0.175-0.028-0.35-0.049-0.525c-0.039-0.314-0.099-0.627-0.154-0.942c-0.033-0.2-0.058-0.402-0.099-0.602
	c-0.055-0.288-0.132-0.575-0.2-0.862c-0.052-0.225-0.099-0.452-0.158-0.678c-0.003-0.003-0.003-0.008-0.003-0.011
	c-0.003-0.013-0.006-0.022-0.009-0.033v-0.002c-11.738-43.909-35.013-84.192-67.312-116.494C394.697,27.048,329.403,0,259.951,0
	c-6.511,0-12.986,0.238-19.414,0.709c-2.143,0.158-4.28,0.34-6.412,0.548c-4.264,0.418-8.506,0.939-12.723,1.562
	c-12.651,1.869-25.076,4.657-37.198,8.328c-4.04,1.224-8.046,2.547-12.016,3.966s-7.903,2.936-11.795,4.549
	c-31.145,12.9-59.746,31.939-84.301,56.494c-15.84,15.839-29.205,33.233-40.096,51.692c-1.089,1.845-2.153,3.703-3.193,5.569
	c-4.159,7.468-7.92,15.098-11.286,22.861c-2.524,5.821-4.827,11.718-6.905,17.675c-1.385,3.971-2.673,7.971-3.861,11.992
	c-0.594,2.011-1.163,4.028-1.708,6.05c-1.718,6.376-3.178,12.807-4.403,19.272c-6.155,32.5-6.105,65.955,0.17,98.436
	c1.584,8.199,3.565,16.335,5.941,24.378c1.038,3.517,2.167,7.012,3.358,10.49c0.851,2.488,1.727,4.97,2.657,7.438
	c2.228,5.914,4.677,11.764,7.351,17.534c1.782,3.847,3.662,7.659,5.643,11.433c2.97,5.66,6.163,11.233,9.578,16.705
	c2.941,4.712,6.065,9.34,9.337,13.896c1.483,2.064,2.996,4.115,4.546,6.144c6.948,9.094,14.562,17.838,22.873,26.149
	c0.066,0.066,0.132,0.128,0.199,0.192c8.877,8.859,18.373,17.013,28.362,24.457c2.649,1.975,5.334,3.897,8.053,5.768
	c3.289,2.261,6.609,4.475,9.996,6.582c7.209,4.485,14.633,8.615,22.241,12.372c15.216,7.514,31.173,13.538,47.641,17.941
	c0.009,0.003,0.022,0.008,0.032,0.011c0.006,0.002,0.009,0.002,0.013,0.003c0.006,0.002,0.013,0.003,0.019,0.005
	c0.277,0.074,0.558,0.131,0.837,0.194c0.222,0.052,0.443,0.11,0.668,0.158c0.277,0.054,0.558,0.091,0.834,0.135
	c0.233,0.038,0.465,0.085,0.698,0.115c0.139,0.017,0.277,0.025,0.416,0.041c0.884,0.099,1.763,0.158,2.644,0.158
	c3.691,0,7.321-0.884,10.609-2.536c0.533-0.268,1.053-0.563,1.566-0.873c0.575-0.347,1.136-0.719,1.683-1.116
	c1.001-0.725,1.967-1.51,2.857-2.398l289.553-289.552c0.372-0.373,0.733-0.756,1.078-1.15c0.164-0.186,0.31-0.383,0.468-0.575
	c0.175-0.211,0.355-0.419,0.52-0.633c0.161-0.21,0.304-0.427,0.459-0.64c0.148-0.21,0.304-0.413,0.443-0.626
	c0.148-0.221,0.281-0.449,0.419-0.673c0.132-0.214,0.271-0.424,0.394-0.64c0.172-0.298,0.326-0.604,0.487-0.909
	c0.077-0.15,0.164-0.296,0.236-0.448c0.175-0.356,0.329-0.717,0.487-1.079c0.046-0.107,0.099-0.211,0.145-0.32
	c0.148-0.359,0.281-0.725,0.41-1.09c0.039-0.115,0.09-0.229,0.129-0.344c0.126-0.378,0.236-0.761,0.348-1.146
	c0.028-0.107,0.068-0.211,0.096-0.317c0.101-0.385,0.188-0.775,0.271-1.163c0.025-0.109,0.055-0.217,0.077-0.326
	c0.074-0.372,0.129-0.747,0.188-1.12c0.019-0.131,0.046-0.26,0.065-0.392c0.052-0.4,0.09-0.804,0.12-1.207
	c0.009-0.106,0.025-0.213,0.033-0.318c0.028-0.402,0.033-0.805,0.043-1.21c0-0.109,0.009-0.219,0.009-0.328
	C511.938,198.514,511.919,198.152,511.903,197.793z M506.036,183.188c1.166,1.324,2.176,2.788,3.026,4.352
	C508.211,185.975,507.203,184.513,506.036,183.188z"/>
<g>
	<path style="fill:#66B4BA;" d="M192.647,511.199c0.277,0.074,0.558,0.131,0.837,0.194c-0.287-0.065-0.569-0.123-0.856-0.199
		C192.634,511.196,192.641,511.198,192.647,511.199z"/>
	<path style="fill:#66B4BA;" d="M511.134,192.712c0-0.005-0.003-0.013-0.003-0.017c0.058,0.225,0.104,0.452,0.158,0.678
		C511.235,193.153,511.193,192.931,511.134,192.712z"/>
</g>
<path style="fill:#549498;" d="M494.397,175.974c-4.912-1.313-9.865-2.457-14.841-3.478c-9.119-1.87-18.338-3.267-27.61-4.152
	c-8.254-0.789-16.553-1.194-24.865-1.194c-2.06,0-4.111,0.028-6.161,0.074c-0.69,0.016-1.376,0.046-2.066,0.068
	c-1.36,0.041-2.718,0.087-4.072,0.148c-0.823,0.038-1.64,0.088-2.463,0.134c-1.218,0.069-2.438,0.139-3.65,0.224
	c-0.878,0.061-1.748,0.131-2.622,0.2c-1.157,0.093-2.312,0.191-3.468,0.298c-0.898,0.084-1.798,0.172-2.696,0.265
	c-1.12,0.115-2.241,0.241-3.361,0.37c-0.914,0.106-1.828,0.213-2.742,0.329c-1.098,0.14-2.195,0.292-3.29,0.446
	c-0.92,0.128-1.841,0.254-2.758,0.392c-1.086,0.164-2.17,0.344-3.253,0.522c-0.917,0.151-1.834,0.295-2.748,0.454
	c-1.108,0.194-2.212,0.407-3.316,0.616c-1.798,0.339-3.588,0.695-5.374,1.072c-0.939,0.199-1.88,0.388-2.819,0.596
	c-1.111,0.247-2.216,0.514-3.323,0.775c-0.824,0.194-1.65,0.383-2.471,0.586c-1.136,0.279-2.266,0.575-3.391,0.87
	c-0.785,0.203-1.566,0.407-2.348,0.618c-1.154,0.314-2.305,0.638-3.456,0.968c-0.736,0.21-1.475,0.422-2.206,0.638
	c-1.185,0.35-2.367,0.709-3.546,1.076c-0.678,0.211-1.35,0.425-2.025,0.641c-1.228,0.392-2.45,0.791-3.672,1.202
	c-0.585,0.197-1.166,0.4-1.748,0.602c-1.305,0.451-2.61,0.905-3.906,1.376c-0.397,0.143-0.791,0.295-1.185,0.44
	c-8.38,3.092-16.595,6.615-24.613,10.568c-0.148,0.072-0.298,0.145-0.449,0.219c-1.511,0.749-3.013,1.516-4.512,2.294
	c-0.213,0.11-0.425,0.221-0.637,0.331c-1.486,0.778-2.964,1.571-4.438,2.38c-0.194,0.107-0.388,0.214-0.582,0.321
	c-1.511,0.835-3.019,1.685-4.515,2.551c-0.093,0.052-0.181,0.106-0.274,0.159c-12.964,7.525-25.33,16.212-36.968,26.009v0.002
	c-1.404,1.18-2.794,2.378-4.176,3.59c-0.113,0.099-0.225,0.2-0.339,0.298c-1.269,1.116-2.528,2.244-3.776,3.386
	c-0.43,0.394-0.856,0.794-1.283,1.191c-0.963,0.892-1.927,1.787-2.881,2.696c-1.431,1.369-2.854,2.753-4.259,4.159
	c-32.847,32.847-56.317,73.858-67.871,118.607c-7.602,29.437-9.948,59.983-7.072,90.109c0.884,9.26,2.266,18.473,4.137,27.605
	c1.018,4.975,2.167,9.926,3.478,14.843c2.176,8.152,8.535,14.523,16.679,16.72c0.009,0.003,0.022,0.008,0.032,0.011
	c0.006,0.002,0.009,0.002,0.013,0.003c0.287,0.076,0.569,0.134,0.856,0.199c0.222,0.052,0.443,0.11,0.668,0.158
	c0.277,0.054,0.558,0.091,0.834,0.135c0.233,0.038,0.465,0.085,0.698,0.115c0.139,0.017,0.277,0.025,0.416,0.041
	c0.884,0.099,1.763,0.158,2.644,0.158c3.691,0,7.321-0.884,10.609-2.536c0.533-0.268,1.053-0.563,1.566-0.873
	c0.575-0.347,1.136-0.719,1.683-1.116c1.001-0.725,1.967-1.51,2.857-2.398l289.553-289.552c0.372-0.373,0.733-0.756,1.078-1.15
	c0.164-0.186,0.31-0.383,0.468-0.575c0.175-0.211,0.355-0.419,0.52-0.633c0.161-0.21,0.304-0.427,0.459-0.64
	c0.148-0.21,0.304-0.413,0.443-0.626c0.148-0.221,0.281-0.449,0.419-0.673c0.132-0.214,0.271-0.424,0.394-0.64
	c0.172-0.298,0.326-0.604,0.487-0.909c0.077-0.15,0.164-0.296,0.236-0.448c0.175-0.356,0.329-0.717,0.487-1.079
	c0.046-0.107,0.099-0.211,0.145-0.32c0.148-0.359,0.281-0.725,0.41-1.09c0.039-0.115,0.09-0.229,0.129-0.344
	c0.126-0.378,0.236-0.761,0.348-1.146c0.028-0.107,0.068-0.211,0.095-0.317c0.102-0.385,0.188-0.775,0.271-1.163
	c0.025-0.109,0.055-0.217,0.077-0.325c0.074-0.372,0.129-0.747,0.188-1.12c0.019-0.131,0.046-0.26,0.065-0.392
	c0.052-0.4,0.09-0.804,0.12-1.207c0.009-0.106,0.025-0.213,0.035-0.318c0.027-0.402,0.033-0.805,0.043-1.21
	c0-0.109,0.009-0.219,0.009-0.328c0.003-0.359-0.016-0.72-0.031-1.079c-0.006-0.154-0.006-0.312-0.016-0.466
	c-0.022-0.34-0.061-0.681-0.099-1.021c-0.019-0.175-0.028-0.35-0.049-0.523c-0.039-0.314-0.099-0.627-0.154-0.942
	c-0.035-0.2-0.058-0.402-0.099-0.602c-0.055-0.288-0.132-0.575-0.2-0.862c-0.052-0.225-0.099-0.452-0.158-0.678
	c-0.003-0.003-0.003-0.008-0.003-0.011c-0.003-0.013-0.006-0.022-0.009-0.033C508.919,184.507,502.548,178.15,494.397,175.974z"/>
<g>
	<path style="fill:#7BD9BF;" d="M355.227,177.17c1.15-0.329,2.302-0.654,3.456-0.968C357.53,176.514,356.379,176.84,355.227,177.17z
		"/>
	<path style="fill:#7BD9BF;" d="M361.033,175.584c1.127-0.295,2.257-0.589,3.391-0.87
		C363.289,174.993,362.163,175.29,361.033,175.584z"/>
	<path style="fill:#7BD9BF;" d="M307.365,196.226c1.499-0.778,3-1.546,4.512-2.294C310.367,194.682,308.865,195.448,307.365,196.226
		z"/>
	<path style="fill:#7BD9BF;" d="M387.729,170.097c0.917-0.139,1.837-0.265,2.758-0.392
		C389.566,169.833,388.646,169.959,387.729,170.097z"/>
	<path style="fill:#7BD9BF;" d="M366.896,174.13c1.108-0.262,2.212-0.528,3.323-0.775C369.109,173.6,368.004,173.868,366.896,174.13
		z"/>
	<path style="fill:#7BD9BF;" d="M302.29,198.937c1.475-0.808,2.952-1.601,4.438-2.38C305.242,197.336,303.764,198.13,302.29,198.937
		z"/>
	<path style="fill:#7BD9BF;" d="M312.327,193.713c8.018-3.952,16.233-7.474,24.613-10.568
		C328.56,186.237,320.345,189.762,312.327,193.713z"/>
	<path style="fill:#7BD9BF;" d="M373.039,172.757c1.785-0.375,3.577-0.733,5.374-1.072
		C376.616,172.025,374.828,172.382,373.039,172.757z"/>
	<path style="fill:#7BD9BF;" d="M297.193,201.808c1.495-0.867,3.004-1.715,4.515-2.551
		C300.195,200.093,298.69,200.943,297.193,201.808z"/>
	<path style="fill:#7BD9BF;" d="M418.852,167.291c0.69-0.022,1.376-0.052,2.066-0.068
		C420.229,167.239,419.542,167.27,418.852,167.291z"/>
	<path style="fill:#7BD9BF;" d="M393.777,169.259c0.914-0.117,1.828-0.224,2.742-0.329
		C395.607,169.035,394.691,169.142,393.777,169.259z"/>
	<path style="fill:#7BD9BF;" d="M349.476,178.884c1.179-0.367,2.361-0.726,3.546-1.076
		C351.836,178.158,350.654,178.517,349.476,178.884z"/>
	<path style="fill:#7BD9BF;" d="M343.779,180.729c1.221-0.411,2.444-0.81,3.672-1.202C346.223,179.919,345,180.318,343.779,180.729z
		"/>
	<path style="fill:#7BD9BF;" d="M259.952,227.978c11.638-9.799,24.003-18.485,36.968-26.009
		C283.952,209.49,271.588,218.179,259.952,227.978z"/>
	<path style="fill:#7BD9BF;" d="M381.728,171.071c0.914-0.159,1.831-0.303,2.748-0.454
		C383.559,170.769,382.642,170.912,381.728,171.071z"/>
	<path style="fill:#7BD9BF;" d="M399.88,168.558c0.898-0.093,1.798-0.181,2.696-0.265
		C401.678,168.376,400.78,168.465,399.88,168.558z"/>
	<path style="fill:#7BD9BF;" d="M338.125,182.706c1.295-0.471,2.6-0.925,3.906-1.376
		C340.725,181.781,339.42,182.236,338.125,182.706z"/>
	<path style="fill:#7BD9BF;" d="M406.047,167.995c0.875-0.069,1.744-0.139,2.622-0.2
		C407.791,167.858,406.92,167.927,406.047,167.995z"/>
	<path style="fill:#7BD9BF;" d="M412.318,167.573c0.823-0.046,1.64-0.095,2.463-0.134
		C413.959,167.478,413.139,167.529,412.318,167.573z"/>
</g>
<g>
	<path style="fill:#66B4BA;" d="M76.093,443.87c32.295,32.297,72.578,55.573,116.492,67.312c-8.144-2.198-14.502-8.569-16.679-16.72
		c-1.311-4.917-2.46-9.868-3.478-14.843c-1.872-9.132-3.253-18.346-4.137-27.605c-2.874-30.125-0.529-60.673,7.072-90.109
		c11.554-44.747,35.026-85.76,67.871-118.607c1.407-1.406,2.825-2.789,4.259-4.159c0.952-0.911,1.918-1.803,2.881-2.696
		c0.427-0.396,0.853-0.797,1.283-1.191c1.246-1.144,2.509-2.269,3.776-3.386c0.113-0.099,0.225-0.199,0.339-0.298
		c1.379-1.213,2.773-2.408,4.176-3.59v-0.002V0C190.497,0,125.203,27.048,76.093,76.155
		C-25.286,177.537-25.286,342.491,76.093,443.87z"/>
	<path style="fill:#66B4BA;" d="M255.775,231.569c1.382-1.212,2.773-2.408,4.176-3.59
		C258.548,229.16,257.154,230.356,255.775,231.569z"/>
	<path style="fill:#66B4BA;" d="M251.66,235.253c1.25-1.142,2.509-2.271,3.776-3.386
		C254.169,232.984,252.907,234.111,251.66,235.253z"/>
	<path style="fill:#66B4BA;" d="M247.495,239.141c0.953-0.909,1.918-1.804,2.881-2.696
		C249.413,237.338,248.447,238.23,247.495,239.141z"/>
</g>
<g>
</g>
<g>
</g>
<g>
</g>
<g>
</g>
<g>
</g>
<g>
</g>
<g>
</g>
<g>
</g>
<g>
</g>
<g>
</g>
<g>
</g>
<g>
</g>
<g>
</g>
<g>
</g>
<g>
</g>
</svg>
