<?xml version="1.0" encoding="iso-8859-1"?>
<!-- Generator: Adobe Illustrator 19.0.0, SVG Export Plug-In . SVG Version: 6.00 Build 0)  -->
<svg version="1.1" id="Capa_1" xmlns="http://www.w3.org/2000/svg" xmlns:xlink="http://www.w3.org/1999/xlink" x="0px" y="0px"
	 viewBox="0 0 538.064 538.064" style="enable-background:new 0 0 538.064 538.064;" xml:space="preserve">
<g>
	<path d="M305.632,285.963c-5.727,2.272-14.623,5.285-24.403,6.875v-47.695c-4.089,0.131-8.142,0.431-12.208,0.431
		c-4.065,0-8.13-0.299-12.208-0.431v47.695c-9.828-1.566-18.7-4.579-24.403-6.851v-42.159c-8.154-0.694-16.297-1.495-24.415-2.654
		v52.764c0,26.651,18.054,49.046,42.721,56.722v133.769c0,10.115,8.19,18.293,18.305,18.293c10.115,0,18.306-8.19,18.306-18.293
		V350.66c24.654-7.688,42.709-30.082,42.709-56.722v-52.764c-8.118,1.16-16.249,1.961-24.403,2.654L305.632,285.963L305.632,285.963
		z"/>
	<path d="M527.963,66.8L513.4,64.23l2.571-14.539c1.172-6.636-3.252-12.961-9.9-14.145c-6.72-1.231-12.961,3.252-14.157,9.888
		l-2.583,14.671c-19.477-15.113-46.929-17.588-69.156-3.958c-93.261,57.152-209.107,57.152-302.356,0
		C95.58,42.528,68.14,45.015,48.662,60.104l-2.571-14.659c-1.172-6.636-7.473-11.132-14.145-9.888
		c-6.624,1.172-11.048,7.509-9.876,14.133l2.559,14.539L10.067,66.8c-6.612,1.172-11.06,7.497-9.876,14.133
		c1.04,5.93,6.194,10.079,12.004,10.079c0.705,0,1.411-0.06,2.14-0.203l14.025-2.463c-9.135,26.448,0.885,56.614,25.743,71.859
		c66.287,40.616,140.609,60.93,214.93,60.93s148.655-20.302,214.93-60.93c24.87-15.232,34.889-45.411,25.742-71.859l14.025,2.463
		c0.729,0.143,1.435,0.203,2.152,0.203c5.799,0,10.952-4.161,12.004-10.091C539.023,74.297,534.575,67.972,527.963,66.8z
		 M452.075,83.79c-3.503,2.14-7.078,9.709-10.211,16.357c-5.105,10.845-10.868,23.1-22.669,28.265
		c-11.98,5.225-24.989,1.1-36.515-2.547c-6.576-2.092-14.742-4.711-18.58-3.611c-3.898,1.088-9.338,7.353-14.157,12.901
		c-7.867,9.075-16.787,19.346-29.604,21.115c-1.291,0.191-2.606,0.263-3.886,0.263c-11.275,0-21.414-6.648-30.441-12.59
		c-6.098-4.005-13.009-8.561-17.014-8.561s-10.916,4.556-17.026,8.561c-10.055,6.612-21.474,14.204-34.327,12.315
		c-12.806-1.758-21.725-12.04-29.592-21.115c-4.807-5.548-10.259-11.813-14.156-12.901c-3.754-1.1-11.981,1.519-18.569,3.611
		c-11.514,3.647-24.571,7.784-36.515,2.547c-11.765-5.177-17.54-17.421-22.646-28.265c-3.145-6.66-6.708-14.216-10.211-16.357
		c-5.739-3.515-7.545-11.024-4.017-16.775c3.527-5.739,11.036-7.533,16.775-4.029c9.733,5.966,14.946,17.038,19.537,26.782
		c2.953,6.241,6.971,14.802,10.366,16.297c3.515,1.53,12.303-1.231,19.357-3.455c10.187-3.24,21.737-6.863,32.57-3.838
		c10.928,3.085,18.915,12.291,25.97,20.398c4.807,5.548,10.773,12.423,14.515,12.949c3.719,0.586,11.43-4.508,17.576-8.549
		c8.967-5.883,19.118-12.554,30.417-12.554c11.287,0,21.45,6.672,30.417,12.554c6.146,4.029,13.75,8.932,17.588,8.549
		c3.731-0.526,9.709-7.401,14.503-12.949c7.054-8.107,15.041-17.313,25.97-20.398c10.833-3.025,22.371,0.61,32.57,3.838
		c7.042,2.224,15.795,4.974,19.358,3.455c3.396-1.495,7.413-10.055,10.354-16.297c4.591-9.745,9.804-20.816,19.537-26.782
		c5.727-3.515,13.248-1.722,16.775,4.029C459.62,72.755,457.814,80.263,452.075,83.79z"/>
</g>
<g>
</g>
<g>
</g>
<g>
</g>
<g>
</g>
<g>
</g>
<g>
</g>
<g>
</g>
<g>
</g>
<g>
</g>
<g>
</g>
<g>
</g>
<g>
</g>
<g>
</g>
<g>
</g>
<g>
</g>
</svg>
