<?xml version="1.0" encoding="iso-8859-1"?>
<!-- Generator: Adobe Illustrator 19.0.0, SVG Export Plug-In . SVG Version: 6.00 Build 0)  -->
<svg version="1.1" id="Layer_1" xmlns="http://www.w3.org/2000/svg" xmlns:xlink="http://www.w3.org/1999/xlink" x="0px" y="0px"
	 viewBox="0 0 512 512" style="enable-background:new 0 0 512 512;" xml:space="preserve">
<path style="fill:#88888F;" d="M403.735,104.241C399.5,95.3,390.492,89.6,380.599,89.6H131.401c-9.893,0-18.9,5.7-23.136,14.641
	L0,332.8l76.8,38.4l38.4-76.8v179.2h281.6V294.4l38.4,76.8l76.8-38.4L403.735,104.241z"/>
<path style="fill:#56545A;" d="M403.735,104.241C399.5,95.3,390.492,89.6,380.599,89.6H256v384h140.8V294.4l38.4,76.8l76.8-38.4
	L403.735,104.241z"/>
<rect x="307.2" y="377.6" style="fill:#272729;" width="51.2" height="38.4"/>
<rect x="153.6" y="377.6" style="fill:#56545A;" width="51.2" height="38.4"/>
<g>
	<polygon style="fill:#DFDFE1;" points="256,268.8 371.2,89.6 320,38.4 192,38.4 140.8,89.6 	"/>
	
		<rect x="59.733" y="120.964" transform="matrix(-0.9062 -0.4229 0.4229 -0.9062 115.1701 305.8796)" style="fill:#DFDFE1;" width="63.565" height="38.401"/>
</g>
<g>
	
		<rect x="401.285" y="108.383" transform="matrix(-0.4229 -0.9062 0.9062 -0.4229 471.2899 580.4754)" style="fill:#CFCDD2;" width="38.401" height="63.565"/>
	<polygon style="fill:#CFCDD2;" points="320,38.4 256,38.4 256,268.8 371.2,89.6 	"/>
</g>
<polygon style="fill:#272729;" points="299.867,96 212.133,96 236.8,145.332 236.8,473.6 275.2,473.6 275.2,145.332 "/>
<g>
</g>
<g>
</g>
<g>
</g>
<g>
</g>
<g>
</g>
<g>
</g>
<g>
</g>
<g>
</g>
<g>
</g>
<g>
</g>
<g>
</g>
<g>
</g>
<g>
</g>
<g>
</g>
<g>
</g>
</svg>
