<?xml version="1.0" encoding="iso-8859-1"?>
<!-- Generator: Adobe Illustrator 19.0.0, SVG Export Plug-In . SVG Version: 6.00 Build 0)  -->
<svg version="1.1" id="Layer_1" xmlns="http://www.w3.org/2000/svg" xmlns:xlink="http://www.w3.org/1999/xlink" x="0px" y="0px"
	 viewBox="0 0 496 496" style="enable-background:new 0 0 496 496;" xml:space="preserve">
<g>
	<g>
		<path d="M496,16H290.192C278.912,6.072,264.168,0,248,0c-16.168,0-30.912,6.072-42.192,16H0v16h192.656
			C187.184,41.424,184,52.336,184,64v32H0v16h171.664L48,220.376V376h72v120h256V376h72V220.376L324.336,112H496V96H312V64
			c0-11.664-3.184-22.576-8.656-32H496V16z M200,64c0-26.472,21.528-48,48-48s48,21.528,48,48v21.808
			C284.264,72.472,267.12,64,248,64s-36.264,8.472-48,21.808V64z M248,80c26.472,0,48,21.528,48,48s-21.528,48-48,48
			s-48-21.528-48-48S221.528,80,248,80z M345.584,240H150.416l67.744-55.432C227.072,189.296,237.224,192,248,192
			s20.928-2.704,29.848-7.432L345.584,240z M120,360H64V227.624L184.296,122.2c-0.176,1.912-0.296,3.84-0.296,5.8
			c0,18.56,7.992,35.248,20.656,46.952L120,244.208V360z M168,480h-32V256h32V480z M312,480H184v-32h128V480z M312,432H184v-32h128
			V432z M312,336h-96v16h96v32H184v-32h16v-16h-16v-32h128V336z M312,288H184v-32h128V288z M360,480h-32V256h32V480z M311.704,122.2
			L432,227.624V360h-56V244.208l-84.656-69.256C304.008,163.248,312,146.56,312,128C312,126.04,311.88,124.112,311.704,122.2z"/>
	</g>
</g>
<g>
</g>
<g>
</g>
<g>
</g>
<g>
</g>
<g>
</g>
<g>
</g>
<g>
</g>
<g>
</g>
<g>
</g>
<g>
</g>
<g>
</g>
<g>
</g>
<g>
</g>
<g>
</g>
<g>
</g>
</svg>
