<?xml version="1.0" encoding="iso-8859-1"?>
<!-- Generator: Adobe Illustrator 19.0.0, SVG Export Plug-In . SVG Version: 6.00 Build 0)  -->
<svg version="1.1" id="Layer_1" xmlns="http://www.w3.org/2000/svg" xmlns:xlink="http://www.w3.org/1999/xlink" x="0px" y="0px"
	 viewBox="0 0 496 496" style="enable-background:new 0 0 496 496;" xml:space="preserve">
<g>
	<g>
		<g>
			<path d="M462.816,256c-12.04,0-23.152,6.536-29,17.072L432,276.336V256h24V0H40v256h24v20.336l-1.816-3.264
				c-5.848-10.536-16.96-17.072-29-17.072C14.888,256,0,270.88,0,289.704c0,5.432,1.344,10.832,3.904,15.616L64,418v78h16v-16h112
				v-16H80v-50L18.016,297.792c-1.32-2.48-2.016-5.28-2.016-8.616C16,279.704,23.704,272,33.184,272
				c6.232,0,11.992,3.392,15.016,8.832L83.296,344H88c30.88,0,56,25.128,56,56v24h16v-24c0-38.088-29.728-69.368-67.208-71.84
				L79.376,304H80v-48h24v48h16v-48h24v48h16v-48h24v48h16v-48h24v208h-16v16h16v16h16V256h16v240h16v-16h112v-16H272V256h24v48h16
				v-48h24v48h16v-48h24v48h16v-48h24v48h0.624L403.2,328.16C365.728,330.632,336,361.912,336,400v24h16v-24
				c0-30.872,25.12-56,56-56h4.704l35.088-63.168c3.04-5.44,8.792-8.832,15.024-8.832c9.48,0,17.184,7.704,17.184,17.704
				c0,2.816-0.696,5.608-2.016,8.088L416,414v50h-16v16h16v16h16v-78l60.096-112.68c2.56-4.792,3.904-10.184,3.904-16.144
				C496,270.88,481.112,256,462.816,256z M112,16h32v96h-32V16z M200,240H56V16h40v112h64V16h40V240z M216,240V16h224v224H216z"/>
			<rect x="232" y="208" width="16" height="16"/>
			<rect x="264" y="208" width="16" height="16"/>
			<rect x="296" y="208" width="16" height="16"/>
			<rect x="232" y="176" width="16" height="16"/>
			<rect x="232" y="152" width="16" height="16"/>
			<rect x="264" y="176" width="16" height="16"/>
		</g>
	</g>
</g>
<g>
</g>
<g>
</g>
<g>
</g>
<g>
</g>
<g>
</g>
<g>
</g>
<g>
</g>
<g>
</g>
<g>
</g>
<g>
</g>
<g>
</g>
<g>
</g>
<g>
</g>
<g>
</g>
<g>
</g>
</svg>
