<?xml version="1.0" encoding="iso-8859-1"?>
<!-- Generator: Adobe Illustrator 19.0.0, SVG Export Plug-In . SVG Version: 6.00 Build 0)  -->
<svg version="1.1" id="Layer_1" xmlns="http://www.w3.org/2000/svg" xmlns:xlink="http://www.w3.org/1999/xlink" x="0px" y="0px"
	 viewBox="0 0 511.999 511.999" style="enable-background:new 0 0 511.999 511.999;" xml:space="preserve">
<path style="fill:#10BAFC;" d="M130.45,277.242H63.613v53.349h37.953h42.951c10.416,0,18.857-8.441,18.857-18.857v-34.493H130.45z"
	/>
<g>
	<path style="fill:#FFFFFF;" d="M63.613,330.591c0,6.878-5.575,12.456-12.455,12.456H22.915c-6.878,0-12.455-5.578-12.455-12.456
		v-53.349h53.153C63.613,277.242,63.613,330.591,63.613,330.591z"/>
	<rect x="10.46" y="234.204" style="fill:#FFFFFF;" width="491.077" height="43.044"/>
</g>
<g>
	<polygon style="fill:#3F5968;" points="81.804,153.656 76.438,145.855 10.46,234.2 53.5,234.2 	"/>
	<polygon style="fill:#3F5968;" points="501.54,234.2 435.561,145.855 430.196,153.656 458.5,234.2 	"/>
	<path style="fill:#3F5968;" d="M325.925,277.242h-35.499c-15.244,25.909-12.901,58.542,5.876,82.015l4.356,5.446
		c2.691,3.359,8.007,0.316,6.468-3.704c-9.447-24.728-5.323-52.595,10.882-73.526L325.925,277.242z"/>
	<path style="fill:#3F5968;" d="M186.07,277.242l7.922,10.23c16.204,20.931,20.328,48.798,10.878,73.526
		c-1.536,4.02,3.78,7.063,6.465,3.704l4.358-5.446c18.775-23.473,21.124-56.107,5.88-82.015L186.07,277.242L186.07,277.242z"/>
</g>
<path d="M511.963,233.467c-0.006-0.082-0.005-0.163-0.013-0.244c-0.041-0.438-0.11-0.867-0.203-1.287
	c-0.017-0.076-0.04-0.15-0.058-0.225c-0.089-0.363-0.197-0.717-0.322-1.064c-0.031-0.087-0.062-0.174-0.095-0.26
	c-0.163-0.415-0.345-0.822-0.558-1.209c0-0.001-0.001-0.003-0.002-0.004c-0.211-0.384-0.452-0.748-0.708-1.1
	c-0.03-0.043-0.052-0.089-0.085-0.131l-65.979-88.345c-2.018-2.703-5.225-4.273-8.585-4.2c-3.371,0.066-6.504,1.753-8.414,4.531
	l-5.365,7.801c-1.893,2.752-2.358,6.244-1.25,9.394l23.41,66.616H68.263l23.41-66.616c1.108-3.153,0.642-6.644-1.25-9.395
	l-5.366-7.801c-1.911-2.778-5.043-4.465-8.415-4.53c-3.346-0.028-6.566,1.499-8.585,4.2L2.078,227.941
	c-0.033,0.045-0.058,0.095-0.09,0.141c-0.249,0.343-0.482,0.698-0.689,1.071c-0.005,0.01-0.013,0.02-0.018,0.029
	c-0.211,0.385-0.391,0.788-0.553,1.201c-0.036,0.09-0.066,0.18-0.098,0.27c-0.124,0.343-0.23,0.694-0.318,1.052
	c-0.02,0.078-0.043,0.155-0.06,0.233c-0.093,0.419-0.162,0.847-0.203,1.283c-0.007,0.083-0.006,0.166-0.013,0.249
	C0.02,233.713,0,233.953,0,234.2v43.042v53.349c0,12.636,10.279,22.916,22.915,22.916h28.243c8.869,0,16.571-5.068,20.379-12.456
	h72.98c16.165,0,29.317-13.152,29.317-29.317v-24.032h7.106l4.78,6.174c13.878,17.925,17.471,42.212,9.378,63.39
	c-1.702,4.456-1.151,9.231,1.514,13.101c2.688,3.904,7.116,6.235,11.845,6.236h0.001c4.293,0,8.32-1.958,11.044-5.366l4.36-5.448
	c17.692-22.119,22.565-51.807,13.859-78.088h36.558c-8.707,26.283-3.836,55.971,13.856,78.088l4.362,5.454
	c2.729,3.406,6.755,5.359,11.044,5.36h0.001c4.732,0,9.162-2.333,11.849-6.241c2.664-3.873,3.211-8.652,1.507-13.097
	c-8.09-21.177-4.496-45.467,9.383-63.392l4.776-6.172h170.483c5.776,0,10.46-4.684,10.46-10.46V234.2
	C512,233.952,511.98,233.709,511.963,233.467z M452.793,186.41l27.879,37.329h-14.76L452.793,186.41z M59.207,186.409L46.089,223.74
	H31.327L59.207,186.409z M51.158,332.587H22.915c-1.1,0-1.995-0.895-1.995-1.996v-42.889h32.232v42.889
	C53.153,331.692,52.258,332.587,51.158,332.587z M152.914,311.735c0,4.631-3.767,8.396-8.396,8.396H74.073v-32.429h78.84v24.032
	H152.914z M219.886,325.933c-1.263-13.472-5.65-26.63-12.977-38.231h8.359C220.881,299.739,222.37,313.184,219.886,325.933z
	 M292.112,325.941c-2.485-12.751-0.996-26.198,4.619-38.238h8.358C297.762,299.305,293.374,312.465,292.112,325.941z
	 M491.079,266.782H325.925h-35.499h-68.854H186.07h-22.696H63.613H20.921V244.66H53.5h405.001h32.579v22.121H491.079z"/>
<g>
</g>
<g>
</g>
<g>
</g>
<g>
</g>
<g>
</g>
<g>
</g>
<g>
</g>
<g>
</g>
<g>
</g>
<g>
</g>
<g>
</g>
<g>
</g>
<g>
</g>
<g>
</g>
<g>
</g>
</svg>
