<?xml version="1.0" encoding="iso-8859-1"?>
<!-- Generator: Adobe Illustrator 19.0.0, SVG Export Plug-In . SVG Version: 6.00 Build 0)  -->
<svg version="1.1" id="Layer_1" xmlns="http://www.w3.org/2000/svg" xmlns:xlink="http://www.w3.org/1999/xlink" x="0px" y="0px"
	 viewBox="0 0 512 512" style="enable-background:new 0 0 512 512;" xml:space="preserve">
<g>
	<g>
		<g>
			<path d="M510.176,208.068L417.947,90.684c-1.886-10.564-16.956-27.605-80.623-47.027l-23.108-23.108l-2.074-4.147
				C307.082,6.289,296.919,0,285.612,0h-59.204c-11.315,0-21.495,6.298-26.547,16.427l-2.057,4.13l-23.1,23.1
				C111.14,63.044,96.01,80.068,94.09,90.633L1.828,208.068c-1.442,1.835-2.074,4.173-1.741,6.477
				c0.333,2.304,1.587,4.378,3.49,5.734l59.733,42.667c1.476,1.05,3.209,1.587,4.958,1.587c1.357,0,2.714-0.316,3.959-0.973
				l47.266-24.755v264.661c0,4.719,3.823,8.533,8.533,8.533h255.974c4.71,0,8.533-3.814,8.533-8.533V238.814l47.24,24.747
				c1.246,0.657,2.603,0.973,3.959,0.973c1.741,0,3.482-0.538,4.958-1.587l59.733-42.667c1.903-1.357,3.157-3.43,3.49-5.734
				C512.241,212.241,511.618,209.903,510.176,208.068z M119.494,219.537l-50.534,26.47l-48.196-34.423l83.567-106.359
				c9.233,9.924,14.447,38.161,15.164,57.071V219.537z M215.135,24.047c2.15-4.309,6.468-6.98,11.273-6.98h59.204
				c4.804,0,9.122,2.671,11.264,6.963l0.862,1.715l-32.751,70.989c-1.655,3.593-5.009,5.743-8.969,5.743
				c-3.951,0-7.305-2.142-8.96-5.734l-32.768-70.997L215.135,24.047z M331.735,311.228c-0.077,0.154-0.119,0.316-0.205,0.461
				c-0.41,0.657-0.896,1.229-1.442,1.741c-17.186,22.127-43.964,36.437-74.086,36.437s-56.9-14.31-74.086-36.437
				c-0.546-0.512-1.033-1.084-1.442-1.741c-0.085-0.145-0.128-0.307-0.205-0.461c-11.349-15.522-18.133-34.569-18.133-55.228
				c0-51.755,42.112-93.867,93.867-93.867c51.755,0,93.867,42.112,93.867,93.867C349.868,276.659,343.084,295.706,331.735,311.228z
				 M443.044,246.008l-50.509-26.453v-57.114c0.026-0.794,0.077-1.63,0.119-2.449c0.06-1.041,0.128-2.091,0.205-3.174
				c0.077-1.007,0.145-2.014,0.247-3.046c0.171-1.852,0.384-3.755,0.631-5.675c0.102-0.836,0.222-1.681,0.341-2.526
				c0.307-2.176,0.64-4.352,1.033-6.537c0.077-0.444,0.171-0.879,0.247-1.323c0.461-2.458,0.964-4.907,1.528-7.279
				c0.008-0.017,0.008-0.034,0.008-0.043c0.623-2.586,1.306-5.094,2.048-7.492c0.034-0.119,0.068-0.247,0.111-0.367
				c0.751-2.389,1.553-4.668,2.432-6.775c0.017-0.06,0.043-0.102,0.06-0.162c1.792-4.301,3.84-7.902,6.127-10.368l83.567,106.359
				L443.044,246.008z"/>
			<path d="M179.202,256.004c0,12.041,2.859,23.39,7.817,33.544l54.468-108.928C206.065,187.438,179.202,218.627,179.202,256.004z"
				/>
			<path d="M270.52,180.623l54.46,108.928c4.958-10.155,7.825-21.513,7.825-33.544C332.805,218.622,305.942,187.432,270.52,180.623z
				"/>
			<polygon points="201.544,298.67 310.464,298.67 256.004,189.751 			"/>
			<path d="M256.002,332.804c18.227,0,34.978-6.417,48.162-17.067H207.84C221.024,326.386,237.775,332.804,256.002,332.804z"/>
		</g>
	</g>
</g>
<g>
</g>
<g>
</g>
<g>
</g>
<g>
</g>
<g>
</g>
<g>
</g>
<g>
</g>
<g>
</g>
<g>
</g>
<g>
</g>
<g>
</g>
<g>
</g>
<g>
</g>
<g>
</g>
<g>
</g>
</svg>
