<?xml version="1.0" encoding="iso-8859-1"?>
<!-- Generator: Adobe Illustrator 19.0.0, SVG Export Plug-In . SVG Version: 6.00 Build 0)  -->
<svg version="1.1" id="Capa_1" xmlns="http://www.w3.org/2000/svg" xmlns:xlink="http://www.w3.org/1999/xlink" x="0px" y="0px"
	 viewBox="0 0 490 490" style="enable-background:new 0 0 490 490;" xml:space="preserve">
<g>
	<path d="M245,0C109.909,0,0,109.906,0,245s109.909,245,245,245s245-109.906,245-245S380.091,0,245,0z M245,459.313
		c-118.208,0-214.375-96.136-214.375-214.313S126.792,30.687,245,30.687S459.375,126.823,459.375,245S363.208,459.313,245,459.313z"
		/>
	<path d="M244.918,87.136c-56.266,0-101.878,45.606-101.878,101.863c0,9.433,1.289,18.564,3.688,27.233
		c0.962,3.471,2.096,6.87,3.406,10.182l3.088,7.019l91.697,169.419l91.816-169.661l2.783-6.325c1.385-3.456,2.585-7.005,3.59-10.635
		c2.4-8.669,3.688-17.8,3.688-27.233C346.795,132.742,301.183,87.136,244.918,87.136z M313.596,208.033
		c-0.652,2.354-1.434,4.696-2.325,6.966l-2.054,4.667l-64.301,118.816L180.74,219.908l-2.326-5.285
		c-0.821-2.128-1.551-4.342-2.175-6.592c-1.708-6.171-2.574-12.573-2.574-19.031c0-39.247,31.964-71.177,71.253-71.177
		c39.289,0,71.252,31.93,71.252,71.177C316.17,195.459,315.304,201.862,313.596,208.033z"/>
</g>
<g>
</g>
<g>
</g>
<g>
</g>
<g>
</g>
<g>
</g>
<g>
</g>
<g>
</g>
<g>
</g>
<g>
</g>
<g>
</g>
<g>
</g>
<g>
</g>
<g>
</g>
<g>
</g>
<g>
</g>
</svg>
