<?xml version="1.0" encoding="iso-8859-1"?>
<!-- Generator: Adobe Illustrator 19.0.0, SVG Export Plug-In . SVG Version: 6.00 Build 0)  -->
<svg version="1.1" id="Layer_1" xmlns="http://www.w3.org/2000/svg" xmlns:xlink="http://www.w3.org/1999/xlink" x="0px" y="0px"
	 viewBox="0 0 512 512" style="enable-background:new 0 0 512 512;" xml:space="preserve">
<g>
	<polygon style="fill:#1EB415;" points="337.851,394.769 308.219,308.436 326.792,308.436 295.479,216.632 314.694,216.632 
		256,15.684 197.304,216.632 216.519,216.632 185.206,308.436 203.781,308.436 174.149,394.769 	"/>
	<ellipse style="fill:#1EB415;" cx="83.592" cy="298.339" rx="73.038" ry="87.646"/>
	<ellipse style="fill:#1EB415;" cx="428.513" cy="298.339" rx="73.038" ry="87.646"/>
</g>
<path d="M512,298.34c0-54.091-37.452-98.096-83.487-98.096s-83.487,44.005-83.487,98.096c0,49.934,31.916,91.27,73.038,97.33v45.245
	H266.449v-35.697h71.402c7.05,0,12.179-7.15,9.883-13.842l-24.882-72.491c4.541,0,8.973,0.003,12.113-3.914
	c2.714-3.383,2.546-7.219,1.305-11.111c-1.543-4.841-4.924-14.436-4.924-14.436s-19.782-57.999-21.264-62.343
	c3.092,0,6.36,0.343,9.226-1.062c4.734-2.32,7.035-8.014,5.222-12.975L266.03,12.755c-1.301-4.456-5.388-7.52-10.03-7.52
	s-8.729,3.064-10.03,7.519l-58.696,200.949c-1.461,5.001,1.125,10.476,5.908,12.513c2.752,1.171,8.732,0.866,8.732,0.866
	l-25.863,75.829c0,0-1.656,4.972-1.056,7.74c1.561,7.204,7.999,8.236,14.154,8.236l-24.882,72.491
	c-2.297,6.693,2.833,13.842,9.883,13.842h71.402v35.697H94.041v-45.245c41.122-6.06,73.038-47.396,73.038-97.33
	c0-54.091-37.452-98.096-83.487-98.096S0.104,244.249,0.104,298.34c0,49.934,31.916,91.27,73.038,97.33v45.245h-8.882
	c-5.77,0-10.449,4.678-10.449,10.449c0,5.771,4.679,10.449,10.449,10.449h381.878c5.77,0,10.449-4.678,10.449-10.449
	c0-5.771-4.679-10.449-10.449-10.449h-7.177V395.67C480.084,389.61,512,348.274,512,298.34z M213.664,311.829
	c1.659-4.835-0.559-10.347-5.1-12.684c-2.743-1.412-5.775-1.158-8.754-1.158l26.598-77.983c1.754-5.146-0.882-10.895-5.868-12.982
	c-2.888-1.208-6.23-0.84-9.299-0.84L256,52.951l44.756,153.231c-3.072,0-6.407-0.37-9.298,0.84
	c-4.986,2.087-7.625,7.832-5.868,12.982l26.598,77.983c-2.976,0-6.013-0.251-8.752,1.158c-4.541,2.337-6.76,7.846-5.1,12.684
	l24.882,72.491H188.783L213.664,311.829z M74.496,305.412c-4.081-4.08-10.698-4.08-14.778,0.001c-4.08,4.079-4.08,10.696,0,14.777
	l13.425,13.423v40.828c-29.553-6.154-52.14-37.927-52.14-76.101c0-42.567,28.077-77.198,62.589-77.198s62.589,34.631,62.589,77.198
	c0,38.174-22.588,69.947-52.14,76.101v-40.828l22.638-22.638c4.08-4.08,4.08-10.697,0-14.778c-4.081-4.08-10.696-4.08-14.778,0
	l-18.309,18.31L74.496,305.412z M428.513,314.507l-9.096-9.095c-4.081-4.08-10.698-4.08-14.777,0.001
	c-4.08,4.079-4.08,10.696,0,14.777l13.425,13.424v40.828c-29.553-6.154-52.14-37.927-52.14-76.101
	c0-42.567,28.077-77.198,62.589-77.198s62.589,34.631,62.589,77.198c0,38.174-22.588,69.947-52.14,76.101v-40.828l22.638-22.638
	c4.08-4.08,4.08-10.697,0-14.778c-4.081-4.08-10.696-4.08-14.777,0L428.513,314.507z"/>
<path d="M39.184,451.363c0-5.771-4.679-10.449-10.449-10.449H10.449C4.678,440.915,0,445.593,0,451.363
	c0,5.771,4.678,10.449,10.449,10.449h18.286C34.505,461.813,39.184,457.136,39.184,451.363z"/>
<path d="M500.534,440.915H482.22c-5.77,0-10.449,4.678-10.449,10.449c0,5.771,4.679,10.449,10.449,10.449h18.314
	c5.77,0,10.449-4.678,10.449-10.449C510.983,445.593,506.305,440.915,500.534,440.915z"/>
<path d="M57.785,332.768c-7.544-9.132-11.698-21.359-11.698-34.427c0-3.687,0.336-7.358,1.001-10.91
	c1.062-5.673-2.677-11.131-8.349-12.193c-5.666-1.064-11.13,2.678-12.192,8.35c-0.901,4.815-1.358,9.778-1.358,14.753
	c0,17.916,5.855,34.868,16.483,47.736c2.067,2.503,5.053,3.796,8.062,3.796c2.343,0,4.701-0.786,6.649-2.394
	C60.833,343.803,61.459,337.217,57.785,332.768z"/>
<path d="M52.85,264.244c2.703,0,5.404-1.042,7.45-3.121c2.92-2.968,6.148-5.374,9.594-7.149c5.13-2.644,7.146-8.945,4.504-14.076
	c-2.645-5.128-8.947-7.145-14.075-4.502c-5.421,2.794-10.441,6.518-14.92,11.072c-4.047,4.113-3.993,10.729,0.121,14.776
	C47.559,263.245,50.205,264.244,52.85,264.244z"/>
<path d="M71.837,485.867H37.139c-5.77,0-10.449,4.679-10.449,10.449c0,5.77,4.679,10.449,10.449,10.449h34.698
	c5.77,0,10.449-4.679,10.449-10.449C82.286,490.546,77.607,485.867,71.837,485.867z"/>
<path d="M469.523,485.867h-54.128c-5.77,0-10.449,4.679-10.449,10.449c0,5.77,4.679,10.449,10.449,10.449h54.128
	c5.77,0,10.449-4.679,10.449-10.449C479.972,490.546,475.293,485.867,469.523,485.867z"/>
<path d="M379.868,485.867H107.363c-5.77,0-10.449,4.679-10.449,10.449c0,5.77,4.679,10.449,10.449,10.449h272.505
	c5.77,0,10.449-4.679,10.449-10.449C390.317,490.546,385.638,485.867,379.868,485.867z"/>
<path d="M402.705,332.768c-7.544-9.132-11.698-21.359-11.698-34.427c0-3.687,0.336-7.358,1.001-10.91
	c1.062-5.673-2.677-11.131-8.349-12.193c-5.669-1.064-11.13,2.678-12.192,8.35c-0.901,4.815-1.358,9.778-1.358,14.753
	c0,17.916,5.855,34.868,16.483,47.736c2.067,2.503,5.053,3.796,8.062,3.796c2.343,0,4.701-0.786,6.649-2.394
	C405.753,343.803,406.38,337.217,402.705,332.768z"/>
<path d="M397.771,264.244c2.703,0,5.404-1.042,7.45-3.121c2.921-2.968,6.148-5.374,9.594-7.149c5.13-2.644,7.146-8.945,4.504-14.076
	c-2.645-5.128-8.947-7.145-14.075-4.502c-5.422,2.794-10.441,6.518-14.92,11.072c-4.047,4.113-3.993,10.729,0.121,14.776
	C392.478,263.245,395.125,264.244,397.771,264.244z"/>
<g>
</g>
<g>
</g>
<g>
</g>
<g>
</g>
<g>
</g>
<g>
</g>
<g>
</g>
<g>
</g>
<g>
</g>
<g>
</g>
<g>
</g>
<g>
</g>
<g>
</g>
<g>
</g>
<g>
</g>
</svg>
