<?xml version="1.0" encoding="iso-8859-1"?>
<!-- Generator: Adobe Illustrator 19.0.0, SVG Export Plug-In . SVG Version: 6.00 Build 0)  -->
<svg version="1.1" id="Layer_1" xmlns="http://www.w3.org/2000/svg" xmlns:xlink="http://www.w3.org/1999/xlink" x="0px" y="0px"
	 viewBox="0 0 512 512" style="enable-background:new 0 0 512 512;" xml:space="preserve">
<g>
	<polygon style="fill:#A1887F;" points="88.276,512 70.621,512 70.621,476.69 97.103,476.69 	"/>
	<polygon style="fill:#A1887F;" points="441.379,512 423.724,512 414.897,476.69 441.379,476.69 	"/>
</g>
<polygon style="fill:#FFECB3;" points="35.31,335.448 35.31,476.69 176.552,476.69 176.552,388.414 335.448,388.414 335.448,476.69 
	476.69,476.69 476.69,335.448 "/>
<rect x="17.655" y="317.793" style="fill:#FFE0B2;" width="476.69" height="17.655"/>
<g>
	<rect x="176.552" y="344.276" style="fill:#FFF9C4;" width="158.897" height="35.31"/>
	<rect x="52.966" y="344.276" style="fill:#FFF9C4;" width="105.931" height="123.586"/>
	<rect x="353.103" y="344.276" style="fill:#FFF9C4;" width="105.931" height="123.586"/>
</g>
<g>
	<circle style="fill:#B0BEC5;" cx="256" cy="361.931" r="8.828"/>
	<circle style="fill:#B0BEC5;" cx="141.241" cy="414.897" r="8.828"/>
	<circle style="fill:#B0BEC5;" cx="370.759" cy="414.897" r="8.828"/>
</g>
<path style="fill:#AED581;" d="M176.552,97.103h-8.828v-35.31h8.828V97.103z M344.276,61.793h-8.828v35.31h8.828V61.793z
	 M176.552,238.345h-8.828v35.31h8.828V238.345z M344.276,238.345h-8.828v35.31h8.828V238.345z"/>
<g>
	<rect x="176.552" style="fill:#B3E5FC;" width="158.897" height="317.793"/>
	<rect x="61.793" y="35.31" style="fill:#B3E5FC;" width="105.931" height="282.483"/>
	<rect x="344.276" y="35.31" style="fill:#B3E5FC;" width="105.931" height="282.483"/>
</g>
<g>
</g>
<g>
</g>
<g>
</g>
<g>
</g>
<g>
</g>
<g>
</g>
<g>
</g>
<g>
</g>
<g>
</g>
<g>
</g>
<g>
</g>
<g>
</g>
<g>
</g>
<g>
</g>
<g>
</g>
</svg>
