<?xml version="1.0" encoding="iso-8859-1"?>
<!-- Generator: Adobe Illustrator 18.0.0, SVG Export Plug-In . SVG Version: 6.00 Build 0)  -->
<!DOCTYPE svg PUBLIC "-//W3C//DTD SVG 1.1//EN" "http://www.w3.org/Graphics/SVG/1.1/DTD/svg11.dtd">
<svg version="1.1" id="Capa_1" xmlns="http://www.w3.org/2000/svg" xmlns:xlink="http://www.w3.org/1999/xlink" x="0px" y="0px"
	 viewBox="0 0 260.524 260.524" style="enable-background:new 0 0 260.524 260.524;" xml:space="preserve">
<g>
	<path d="M163.707,1.532c-2.387-0.852-5.057-0.109-6.661,1.855l-3.064,3.751c-7.243-4.748-15.623-7.242-24.287-7.135
		c-8.309,0.11-16.259,2.593-23.161,7.126l-3.057-3.742c-1.604-1.964-4.272-2.708-6.661-1.855c-2.39,0.852-3.985,3.114-3.985,5.651
		v247.341c0,3.314,2.687,6,6,6h62.861c3.313,0,6-2.686,6-6V7.183C167.693,4.646,166.097,2.383,163.707,1.532z M110.481,160.508
		c5.685-4.602,12.519-7.087,19.781-7.087c7.262,0,14.096,2.486,19.781,7.087l-19.781,17.06L110.481,160.508z M130.262,60.201
		c7.262,0,14.096,2.486,19.781,7.087l-19.781,17.06l-19.781-17.06C116.166,62.686,123,60.201,130.262,60.201z M136.029,141.831
		l19.664-16.959v24.893C149.827,145.532,143.091,142.801,136.029,141.831z M104.831,149.765v-24.893l19.664,16.959
		C117.433,142.801,110.696,145.532,104.831,149.765z M124.495,95.221c-7.063,0.97-13.799,3.701-19.664,7.934V78.262L124.495,95.221z
		 M110.481,113.898c5.685-4.602,12.519-7.088,19.781-7.088c7.262,0,14.096,2.486,19.781,7.088l-19.781,17.06L110.481,113.898z
		 M136.029,95.221l19.664-16.959v24.894C149.827,98.922,143.091,96.191,136.029,95.221z M155.693,24.013v32.532
		c-5.972-4.31-12.846-7.066-20.048-7.988L155.693,24.013z M104.831,56.545V24.013l20.048,24.544
		C117.677,49.479,110.803,52.235,104.831,56.545z M104.831,171.482l19.664,16.96c-7.063,0.97-13.799,3.701-19.664,7.934V171.482z
		 M155.693,171.482v24.893c-5.865-4.233-12.602-6.964-19.664-7.934L155.693,171.482z M129.854,12.002
		c5.828-0.095,11.485,1.48,16.486,4.492l-16.078,19.682l-16.074-19.678C118.942,13.64,124.294,12.076,129.854,12.002z
		 M104.831,248.524v-35.891c0.317-0.249,0.616-0.528,0.886-0.848c6.4-7.58,15.117-11.754,24.545-11.754s18.145,4.174,24.545,11.754
		c0.271,0.321,0.568,0.605,0.886,0.854v35.885H104.831z"/>
</g>
<g>
</g>
<g>
</g>
<g>
</g>
<g>
</g>
<g>
</g>
<g>
</g>
<g>
</g>
<g>
</g>
<g>
</g>
<g>
</g>
<g>
</g>
<g>
</g>
<g>
</g>
<g>
</g>
<g>
</g>
</svg>
