<?xml version="1.0" encoding="iso-8859-1"?>
<!-- Generator: Adobe Illustrator 19.0.0, SVG Export Plug-In . SVG Version: 6.00 Build 0)  -->
<svg version="1.1" id="Layer_1" xmlns="http://www.w3.org/2000/svg" xmlns:xlink="http://www.w3.org/1999/xlink" x="0px" y="0px"
	 viewBox="0 0 512 512" style="enable-background:new 0 0 512 512;" xml:space="preserve">
<path style="fill:#AB7315;" d="M487.808,512H24.192l28.363-267.037c5.695-53.62,50.927-94.303,104.849-94.303h197.192
	c53.921,0,99.153,40.683,104.849,94.303L487.808,512z"/>
<path style="fill:#744E12;" d="M459.445,244.963c-5.695-53.62-50.927-94.303-104.849-94.303H256V512h231.808L459.445,244.963z"/>
<path style="fill:#AB7315;" d="M218.063,87.585C201.524,56.574,203.034,27.106,222.552,0l27.099,19.513
	c-8.036,11.162-15.541,27.199-2.123,52.359L218.063,87.585z"/>
<path style="fill:#E05323;" d="M256,155.168c-26.266,0-47.634-21.368-47.634-47.634S229.734,59.901,256,59.901
	s47.634,21.368,47.634,47.634S282.266,155.168,256,155.168z"/>
<path style="fill:#A5401D;" d="M256,155.168V59.901c26.266,0,47.634,21.368,47.634,47.634S282.266,155.168,256,155.168z"/>
<path style="fill:#C3E825;" d="M73.699,420.02c20.025,0,36.257-16.233,36.257-36.257v-12.925c0-20.025,16.234-36.257,36.257-36.257
	c20.025,0,36.257,16.233,36.257,36.257v31.053c0,20.025,16.234,36.257,36.257,36.257c20.025,0,36.257-16.233,36.257-36.257v-56.002
	c0-20.025,16.233-36.257,36.257-36.257c20.025,0,36.257,16.234,36.257,36.257v28.001c0,20.025,16.233,36.257,36.257,36.257
	c20.025,0,36.257-16.233,36.257-36.257V360.07c0-20.025,16.233-36.257,36.257-36.257c15.675,0,29.023,9.951,34.082,23.878
	l-10.911-102.726c-5.695-53.62-50.927-94.303-104.849-94.303H157.404c-53.921,0-99.153,40.683-104.849,94.303L37.542,386.318
	C38.854,405.149,54.535,420.02,73.699,420.02z"/>
<path style="fill:#A8DD5E;" d="M459.445,244.963c-5.695-53.62-50.927-94.303-104.849-94.303H256v186.721
	c3.829-15.918,18.15-27.749,35.243-27.749c20.025,0,36.257,16.234,36.257,36.257v28.001c0,20.025,16.233,36.257,36.257,36.257
	c20.025,0,36.257-16.233,36.257-36.257V360.07c0-20.025,16.233-36.257,36.257-36.257c15.675,0,29.023,9.951,34.082,23.878
	L459.445,244.963z"/>
<g>
</g>
<g>
</g>
<g>
</g>
<g>
</g>
<g>
</g>
<g>
</g>
<g>
</g>
<g>
</g>
<g>
</g>
<g>
</g>
<g>
</g>
<g>
</g>
<g>
</g>
<g>
</g>
<g>
</g>
</svg>
