<?xml version="1.0" encoding="iso-8859-1"?>
<!-- Generator: Adobe Illustrator 19.0.0, SVG Export Plug-In . SVG Version: 6.00 Build 0)  -->
<svg version="1.1" id="Layer_1" xmlns="http://www.w3.org/2000/svg" xmlns:xlink="http://www.w3.org/1999/xlink" x="0px" y="0px"
	 viewBox="0 0 512 512" style="enable-background:new 0 0 512 512;" xml:space="preserve">
<g>
	<g>
		<path d="M461.913,378.435h-16.696v-16.696c0-21.766-13.959-40.323-33.391-47.215v-52.959c0-9.22-7.475-16.696-16.696-16.696
			H294.957c-9.22,0-16.696,7.475-16.696,16.696v52.959c-19.433,6.892-33.391,25.45-33.391,47.215v16.696h-77.913V222.447
			c39.45-18.79,66.783-59.05,66.783-105.578C233.739,52.428,181.311,0,116.87,0S0,52.428,0,116.87
			c0,46.527,27.333,86.787,66.783,105.578v155.987H50.087C22.469,378.435,0,400.904,0,428.522v66.783
			C0,504.525,7.475,512,16.696,512h478.609c9.22,0,16.696-7.475,16.696-16.696v-66.783C512,400.904,489.531,378.435,461.913,378.435
			z M311.652,278.261h66.783v33.391h-66.783V278.261z M278.261,361.739c0-9.206,7.49-16.696,16.696-16.696H395.13
			c9.206,0,16.696,7.49,16.696,16.696v16.696H278.261V361.739z M33.391,116.87c0-46.03,37.448-83.478,83.478-83.478
			s83.478,37.448,83.478,83.478s-37.448,83.478-83.478,83.478S33.391,162.899,33.391,116.87z M133.565,232.541v145.893h-33.391
			V232.541c5.455,0.784,11.027,1.198,16.696,1.198C122.538,233.739,128.11,233.325,133.565,232.541z M478.609,478.609H33.391
			v-50.087c0-9.206,7.49-16.696,16.696-16.696c18.287,0,393.913,0,411.826,0c9.206,0,16.696,7.49,16.696,16.696V478.609z"/>
	</g>
</g>
<g>
</g>
<g>
</g>
<g>
</g>
<g>
</g>
<g>
</g>
<g>
</g>
<g>
</g>
<g>
</g>
<g>
</g>
<g>
</g>
<g>
</g>
<g>
</g>
<g>
</g>
<g>
</g>
<g>
</g>
</svg>
