<?xml version="1.0" encoding="iso-8859-1"?>
<!-- Generator: Adobe Illustrator 19.0.0, SVG Export Plug-In . SVG Version: 6.00 Build 0)  -->
<svg version="1.1" id="Layer_1" xmlns="http://www.w3.org/2000/svg" xmlns:xlink="http://www.w3.org/1999/xlink" x="0px" y="0px"
	 viewBox="0 0 512 512" style="enable-background:new 0 0 512 512;" xml:space="preserve">
<g>
	<g>
		<path d="M510.647,355.154l-32.038-74.755V50.087C478.609,22.469,456.14,0,428.522,0H83.478C55.86,0,33.391,22.469,33.391,50.087
			v230.312L1.353,355.154C0.501,357.14,0,359.457,0,361.739v100.174C0,489.531,22.469,512,50.087,512h411.826
			C489.531,512,512,489.531,512,461.913V361.739C512,359.59,511.553,357.265,510.647,355.154z M66.783,50.087
			c0-9.206,7.49-16.696,16.696-16.696h345.043c9.206,0,16.696,7.49,16.696,16.696V267.13H66.783V50.087z M61.096,300.522h389.809
			l19.081,44.522H42.015L61.096,300.522z M478.609,461.913c0,9.206-7.49,16.696-16.696,16.696H50.087
			c-9.206,0-16.696-7.49-16.696-16.696v-83.478h445.217V461.913z"/>
	</g>
</g>
<g>
	<g>
		<circle cx="116.87" cy="217.043" r="16.696"/>
	</g>
</g>
<g>
	<g>
		<circle cx="395.13" cy="217.043" r="16.696"/>
	</g>
</g>
<g>
	<g>
		<path d="M428.522,411.826H83.478c-9.22,0-16.696,7.475-16.696,16.696s7.475,16.696,16.696,16.696h345.043
			c9.22,0,16.696-7.475,16.696-16.696S437.742,411.826,428.522,411.826z"/>
	</g>
</g>
<g>
	<g>
		<path d="M256,66.783c-46.03,0-83.478,37.448-83.478,83.478S209.97,233.739,256,233.739s83.478-37.448,83.478-83.478
			S302.03,66.783,256,66.783z M256,200.348c-27.618,0-50.087-22.469-50.087-50.087c0-27.618,22.469-50.087,50.087-50.087
			c27.618,0,50.087,22.469,50.087,50.087C306.087,177.879,283.618,200.348,256,200.348z"/>
	</g>
</g>
<g>
	<g>
		<path d="M150.261,66.783H116.87c-9.22,0-16.696,7.475-16.696,16.696s7.475,16.696,16.696,16.696h33.391
			c9.22,0,16.696-7.475,16.696-16.696S159.481,66.783,150.261,66.783z"/>
	</g>
</g>
<g>
	<g>
		<path d="M395.13,66.783h-33.391c-9.22,0-16.696,7.475-16.696,16.696s7.475,16.696,16.696,16.696h33.391
			c9.22,0,16.696-7.475,16.696-16.696S404.351,66.783,395.13,66.783z"/>
	</g>
</g>
<g>
</g>
<g>
</g>
<g>
</g>
<g>
</g>
<g>
</g>
<g>
</g>
<g>
</g>
<g>
</g>
<g>
</g>
<g>
</g>
<g>
</g>
<g>
</g>
<g>
</g>
<g>
</g>
<g>
</g>
</svg>
