<?xml version="1.0" encoding="iso-8859-1"?>
<!-- Generator: Adobe Illustrator 19.0.0, SVG Export Plug-In . SVG Version: 6.00 Build 0)  -->
<svg version="1.1" id="Layer_1" xmlns="http://www.w3.org/2000/svg" xmlns:xlink="http://www.w3.org/1999/xlink" x="0px" y="0px"
	 viewBox="0 0 512 512" style="enable-background:new 0 0 512 512;" xml:space="preserve">
<path style="fill:#D8F4F2;" d="M504.705,195.157C477.398,83.148,376.417,0,256,0C114.615,0,0,114.616,0,256
	c0,119.811,82.312,220.386,193.467,248.293L504.705,195.157z"/>
<path style="fill:#7DDCD4;" d="M512,256c0-20.967-2.539-41.34-7.295-60.843l-62.45-62.45L291.782,78.44l22.147,119.63
	L124.198,435.024l69.269,69.269C213.482,509.319,234.427,512,256,512C397.384,512,512,397.384,512,256z"/>
<polygon style="fill:#4C6460;" points="218.643,435.024 265.866,387.802 202.902,324.838 124.198,403.543 187.162,466.505 
	202.902,450.765 187.162,435.024 202.902,419.283 "/>
<polygon style="fill:#394B48;" points="124.198,435.024 100.587,411.413 320.958,175.301 352.44,206.782 "/>
<rect x="186.205" y="124.088" transform="matrix(-0.7071 -0.7071 0.7071 -0.7071 144.5088 630.8138)" style="fill:#4C6460;" width="33.391" height="322.779"/>
<g>
	
		<rect x="174.114" y="282.228" transform="matrix(0.7071 0.7071 -0.7071 0.7071 271.4725 -68.6762)" style="fill:#263230;" width="89.043" height="22.261"/>
	
		<rect x="265.48" y="185.315" transform="matrix(0.7071 0.7071 -0.7071 0.7071 233.6405 -160.0367)" style="fill:#263230;" width="89.043" height="33.391"/>
	<path style="fill:#263230;" d="M442.894,132.069c26.878,26.878,26.878,70.606,0,97.483c-26.878,26.878-70.606,26.878-97.483,0
		l-31.481-31.481v-31.481l34.52-3.037l31.481,31.481c7.847,7.847,20.597,7.847,28.444,0c7.847-7.847,7.847-20.597,0-28.444
		l-31.481-31.481v-31.482l34.52-3.037L442.894,132.069z"/>
</g>
<path style="fill:#394B48;" d="M348.449,163.551l-34.52,34.52l-31.481-31.481c-26.878-26.878-26.878-70.606,0-97.483
	s70.606-26.878,97.483,0l31.481,31.481l-34.52,34.52l-31.481-31.481c-7.847-7.847-20.597-7.847-28.444,0
	c-7.847,7.847-7.847,20.597,0,28.444L348.449,163.551z"/>
<g>
</g>
<g>
</g>
<g>
</g>
<g>
</g>
<g>
</g>
<g>
</g>
<g>
</g>
<g>
</g>
<g>
</g>
<g>
</g>
<g>
</g>
<g>
</g>
<g>
</g>
<g>
</g>
<g>
</g>
</svg>
