<?xml version="1.0" encoding="iso-8859-1"?>
<!-- Generator: Adobe Illustrator 19.0.0, SVG Export Plug-In . SVG Version: 6.00 Build 0)  -->
<svg version="1.1" id="Layer_1" xmlns="http://www.w3.org/2000/svg" xmlns:xlink="http://www.w3.org/1999/xlink" x="0px" y="0px"
	 viewBox="0 0 511.981 511.981" style="enable-background:new 0 0 511.981 511.981;" xml:space="preserve">
<path style="fill:#CCD1D9;" d="M511.843,301.271l-27.108-168.528c-0.453-2.789-1.984-5.289-4.281-6.945s-5.156-2.336-7.953-1.891
	l-316.046,50.851c-5.82,0.938-9.781,6.406-8.843,12.234l27.108,168.512c0.453,2.797,1.992,5.297,4.289,6.952
	c1.828,1.328,4.016,2.031,6.25,2.031c0.562,0,1.125-0.047,1.695-0.141L503,313.503C508.827,312.567,512.78,307.099,511.843,301.271z
	"/>
<path style="fill:#967ADC;" d="M195.788,352.114l-27.109-168.512c-0.938-5.828-6.414-9.781-12.226-8.844L8.973,198.476
	c-2.797,0.453-5.297,2-6.953,4.281c-1.656,2.297-2.336,5.156-1.883,7.953l27.109,168.528c0.844,5.233,5.375,8.968,10.523,8.968
	c0.562,0,1.133-0.047,1.703-0.141l147.481-23.718C192.765,363.41,196.726,357.942,195.788,352.114z"/>
<rect x="170.62" y="170.65" style="fill:#FFFFFF;" width="320.12" height="170.68"/>
<path style="fill:#E6E9ED;" d="M490.734,352.005H170.617c-5.89,0-10.671-4.781-10.671-10.672V170.649
	c0-5.891,4.781-10.671,10.671-10.671h320.117c5.891,0,10.672,4.781,10.672,10.671v170.684
	C501.406,347.223,496.625,352.005,490.734,352.005z"/>
<rect x="21.246" y="170.65" style="fill:#FFFFFF;" width="149.37" height="170.68"/>
<path style="fill:#AC92EB;" d="M170.617,352.005H21.246c-5.898,0-10.672-4.781-10.672-10.672V170.649
	c0-5.891,4.773-10.671,10.672-10.671h149.371c5.891,0,10.672,4.781,10.672,10.671v170.684
	C181.289,347.223,176.508,352.005,170.617,352.005z"/>
<g>
	<path style="fill:#CCD1D9;" d="M137.048,207.804c-3.07-5.031-9.632-6.625-14.664-3.547c-0.039,0.016-3.344,1.562-8.898,0.906
		c-1.859-1.578-4.258-2.531-6.89-2.531c-5.891,0-10.664,4.781-10.664,10.672v64.015c0,5.89,4.773,10.671,10.664,10.671
		c5.898,0,10.671-4.781,10.671-10.671v-50.671c9.43-0.266,15.351-3.641,16.226-4.172
		C138.524,219.398,140.118,212.835,137.048,207.804z"/>
	<path style="fill:#CCD1D9;" d="M426.673,202.616c5.891,0,10.672-4.781,10.672-10.671s-4.781-10.671-10.672-10.671
		c-5.89,0-10.671,4.781-10.671,10.671C416.002,197.836,420.783,202.616,426.673,202.616z"/>
	<path style="fill:#CCD1D9;" d="M426.719,223.991c-5.89,0-10.671,4.781-10.671,10.671s4.781,10.671,10.671,10.671
		c5.891,0,10.672-4.781,10.672-10.671S432.61,223.991,426.719,223.991z"/>
	<path style="fill:#CCD1D9;" d="M426.719,266.678c-5.89,0-10.671,4.766-10.671,10.656c0,5.905,4.781,10.671,10.671,10.671
		c5.891,0,10.672-4.766,10.672-10.671C437.391,271.444,432.61,266.678,426.719,266.678z"/>
	<path style="fill:#CCD1D9;" d="M426.719,309.348c-5.89,0-10.671,4.781-10.671,10.672s4.781,10.672,10.671,10.672
		c5.891,0,10.672-4.781,10.672-10.672S432.61,309.348,426.719,309.348z"/>
</g>
<path style="fill:#E6E9ED;" d="M85.26,245.303c-17.648,0-32.007,14.375-32.007,32.016c0,17.655,14.359,32.014,32.007,32.014
	s32.007-14.358,32.007-32.014C117.267,259.678,102.908,245.303,85.26,245.303z"/>
<g>
	<path style="fill:#434A54;" d="M384.017,223.976H213.311c-5.891,0-10.664-4.766-10.664-10.656c0-5.906,4.773-10.672,10.664-10.672
		h170.706c5.891,0,10.672,4.766,10.672,10.672C394.689,219.21,389.908,223.976,384.017,223.976z"/>
	<path style="fill:#434A54;" d="M384.017,266.663H213.311c-5.891,0-10.664-4.781-10.664-10.672c0-5.891,4.773-10.672,10.664-10.672
		h170.706c5.891,0,10.672,4.781,10.672,10.672C394.689,261.882,389.908,266.663,384.017,266.663z"/>
	<path style="fill:#434A54;" d="M298.66,309.333h-85.349c-5.891,0-10.664-4.765-10.664-10.655c0-5.906,4.773-10.672,10.664-10.672
		h85.349c5.891,0,10.672,4.766,10.672,10.672C309.332,304.568,304.551,309.333,298.66,309.333z"/>
</g>
<path style="fill:#AC92EB;" d="M469.375,298.662c-5.891,0-10.672-4.781-10.672-10.672v-64.014c0-5.891,4.781-10.672,10.672-10.672
	s10.672,4.781,10.672,10.672v64.014C480.047,293.881,475.265,298.662,469.375,298.662z"/>
<g>
</g>
<g>
</g>
<g>
</g>
<g>
</g>
<g>
</g>
<g>
</g>
<g>
</g>
<g>
</g>
<g>
</g>
<g>
</g>
<g>
</g>
<g>
</g>
<g>
</g>
<g>
</g>
<g>
</g>
</svg>
