<?xml version="1.0" encoding="iso-8859-1"?>
<!-- Generator: Adobe Illustrator 19.0.0, SVG Export Plug-In . SVG Version: 6.00 Build 0)  -->
<svg version="1.1" id="Layer_1" xmlns="http://www.w3.org/2000/svg" xmlns:xlink="http://www.w3.org/1999/xlink" x="0px" y="0px"
	 viewBox="0 0 511.988 511.988" style="enable-background:new 0 0 511.988 511.988;" xml:space="preserve">
<path style="fill:#656D78;" d="M255.994,431.986c-64.225,0-101.216-6.859-113.083-21c-3.812-4.547-4.359-8.812-4.25-11.344v-28.187
	c0-5.875,4.773-10.655,10.664-10.655c0,0,8.414,26.232,102.458,26.232c94.053,0,110.865-26.389,110.865-26.389l0,0
	c2.842,0,5.545,1.125,7.545,3.124c2.016,2,3.141,4.703,3.141,7.547v28.327c0.094,2.531-0.438,6.797-4.25,11.344
	C357.211,425.127,320.211,431.986,255.994,431.986z"/>
<g>
	<path style="fill:#434A54;" d="M202.66,429.877v-45.906c-8.312-1.188-15.344-2.671-21.289-4.28
		c-0.023,0.266-0.039,0.531-0.039,0.812v46.562C187.706,428.189,194.816,429.127,202.66,429.877z"/>
	<path style="fill:#434A54;" d="M255.994,431.986c3.562,0,7.039-0.016,10.438-0.062v-44.703c0-0.141-0.016-0.281-0.023-0.422
		c-4.656,0.156-9.523,0.234-14.625,0.234c-2.281,0-4.492-0.016-6.671-0.047c0,0.078-0.016,0.156-0.016,0.234v44.703
		C248.642,431.971,252.267,431.986,255.994,431.986z"/>
	<path style="fill:#434A54;" d="M309.336,429.877c7.844-0.75,14.938-1.688,21.312-2.812v-46.671c0-0.812-0.094-1.594-0.25-2.344
		c-5.938,1.75-12.906,3.375-21.062,4.765V429.877z"/>
</g>
<path style="fill:#DA4453;" d="M255.767,394.658c-39.858,0-72.865-3.25-98.091-9.656c-19.296-4.905-27.132-9.983-28.507-10.952
	l12.297-17.437c0,0-0.055-0.047-0.164-0.109c0.07,0.047,6.671,4.25,24.015,8.405c16.015,3.844,44.702,8.422,90.451,8.422
	c45.756,0,74.443-4.578,90.443-8.422c17.344-4.155,23.936-8.358,24.029-8.405c-0.125,0.062-0.172,0.109-0.172,0.109l12.297,17.437
	C379.365,376.159,350.398,394.658,255.767,394.658z"/>
<path style="fill:#FFCE54;" d="M74.662,303.989c0,17.687-14.328,31.999-31.999,31.999s-32-14.312-32-31.999
	c0-17.672,14.328-31.999,32-31.999S74.662,286.317,74.662,303.989z"/>
<path style="fill:#F6BB42;" d="M42.663,346.66C19.14,346.66,0,327.519,0,303.989c0-23.516,19.14-42.655,42.663-42.655
	c23.531,0,42.671,19.14,42.671,42.655C85.334,327.519,66.194,346.66,42.663,346.66z M42.663,282.661
	c-11.758,0-21.328,9.578-21.328,21.328c0,11.765,9.57,21.343,21.328,21.343c11.765,0,21.335-9.578,21.335-21.343
	C63.999,292.239,54.429,282.661,42.663,282.661z"/>
<circle style="fill:#FFCE54;" cx="127.994" cy="165.334" r="31.999"/>
<path style="fill:#F6BB42;" d="M127.997,207.991c-23.523,0-42.663-19.124-42.663-42.655c0-23.53,19.14-42.671,42.663-42.671
	c23.522,0,42.663,19.141,42.663,42.671C170.66,188.867,151.52,207.991,127.997,207.991z M127.997,143.993
	c-11.766,0-21.335,9.578-21.335,21.343c0,11.766,9.57,21.328,21.335,21.328s21.335-9.562,21.335-21.328
	C149.332,153.57,139.763,143.993,127.997,143.993z"/>
<circle style="fill:#FFCE54;" cx="255.994" cy="122.664" r="31.999"/>
<path style="fill:#F6BB42;" d="M255.994,165.335c-23.523,0-42.663-19.14-42.663-42.671c0-23.53,19.14-42.67,42.663-42.67
	c23.531,0,42.654,19.14,42.654,42.67C298.648,146.196,279.525,165.335,255.994,165.335z M255.994,101.337
	c-11.765,0-21.335,9.562-21.335,21.327c0,11.766,9.57,21.328,21.335,21.328c11.766,0,21.344-9.562,21.344-21.328
	C277.338,110.899,267.76,101.337,255.994,101.337z"/>
<path style="fill:#FFCE54;" d="M501.332,314.66c0,17.672-14.344,32-32,32c-17.688,0-31.998-14.328-31.998-32
	c0-17.671,14.311-31.999,31.998-31.999C486.988,282.661,501.332,296.989,501.332,314.66z"/>
<path style="fill:#F6BB42;" d="M469.332,357.332c-23.531,0-42.686-19.141-42.686-42.672c0-23.53,19.154-42.67,42.686-42.67
	c23.516,0,42.656,19.14,42.656,42.67C511.988,338.191,492.848,357.332,469.332,357.332z M469.332,293.333
	c-11.781,0-21.344,9.562-21.344,21.327c0,11.766,9.562,21.328,21.344,21.328c11.75,0,21.312-9.562,21.312-21.328
	C490.644,302.895,481.082,293.333,469.332,293.333z"/>
<path style="fill:#FFCE54;" d="M287.773,234.334c0,17.671-14.342,32-32.006,32c-17.671,0-31.999-14.329-31.999-32
	s14.328-32,31.999-32C273.432,202.334,287.773,216.662,287.773,234.334z"/>
<path style="fill:#F6BB42;" d="M255.767,276.99c-23.531,0-42.671-19.125-42.671-42.656s19.14-42.671,42.671-42.671
	c23.523,0,42.662,19.14,42.662,42.671C298.43,257.865,279.291,276.99,255.767,276.99z M255.767,212.991
	c-11.765,0-21.335,9.578-21.335,21.343s9.57,21.328,21.335,21.328c11.758,0,21.32-9.562,21.32-21.328
	S267.525,212.991,255.767,212.991z"/>
<circle style="fill:#FFCE54;" cx="351.994" cy="282.664" r="31.999"/>
<path style="fill:#F6BB42;" d="M351.992,325.332c-23.531,0-42.656-19.14-42.656-42.671c0-23.53,19.125-42.671,42.656-42.671
	c23.529,0,42.654,19.141,42.654,42.671C394.646,306.192,375.521,325.332,351.992,325.332z M351.992,261.334
	c-11.766,0-21.344,9.562-21.344,21.327c0,11.766,9.578,21.328,21.344,21.328s21.342-9.562,21.342-21.328
	C373.334,270.896,363.758,261.334,351.992,261.334z"/>
<circle style="fill:#FFCE54;" cx="159.994" cy="282.664" r="31.999"/>
<path style="fill:#F6BB42;" d="M159.996,325.332c-23.523,0-42.663-19.14-42.663-42.671c0-23.53,19.14-42.671,42.663-42.671
	s42.663,19.141,42.663,42.671C202.66,306.192,183.519,325.332,159.996,325.332z M159.996,261.334
	c-11.766,0-21.335,9.562-21.335,21.327c0,11.766,9.57,21.328,21.335,21.328c11.765,0,21.335-9.562,21.335-21.328
	C181.332,270.896,171.762,261.334,159.996,261.334z"/>
<path style="fill:#FFCE54;" d="M437.334,175.992c0,17.687-14.344,31.999-32,31.999c-17.688,0-32-14.312-32-31.999
	c0-17.671,14.312-31.999,32-31.999C422.99,143.993,437.334,158.32,437.334,175.992z"/>
<path style="fill:#F6BB42;" d="M405.334,218.662c-23.531,0-42.686-19.141-42.686-42.671c0-23.515,19.154-42.655,42.686-42.655
	c23.516,0,42.654,19.14,42.654,42.655C447.988,199.522,428.849,218.662,405.334,218.662z M405.334,154.664
	c-11.781,0-21.344,9.578-21.344,21.328c0,11.766,9.562,21.343,21.344,21.343c11.75,0,21.312-9.578,21.312-21.343
	C426.646,164.242,417.084,154.664,405.334,154.664z"/>
<path style="fill:#ED5564;" d="M458.801,431.986c-2.094,0-4.188-0.609-5.969-1.828l-82.607-55.999
	c-3.109-2.109-4.891-5.703-4.672-9.453c0.031-0.531,2.656-54.999-30.232-89.778c-18.578-19.641-45.359-29.594-79.553-29.594
	c-34.21,0-60.975,9.953-79.561,29.594c-32.89,34.779-30.272,89.247-30.241,89.794c0.211,3.844-1.656,7.516-4.906,9.594
	l-87.592,55.998c-3.07,1.969-6.929,2.219-10.234,0.688s-5.594-4.641-6.086-8.25C36.937,421.205,32,383.893,32,312.879
	c0-20.89,6.039-44.217,17.476-67.436c11.312-22.968,27.64-45.312,47.226-64.592c21.125-20.812,45.007-37.358,70.998-49.171
	c28.718-13.062,58.71-19.687,89.154-19.687c34.107,0,66.295,6.594,95.623,19.593c26.295,11.641,49.779,28.14,69.795,49.03
	c17.906,18.687,32.654,40.749,42.639,63.811c9.562,22.047,14.609,44.5,14.609,64.905c0,75.201-9.984,113.186-10.406,114.764
	c-0.906,3.328-3.344,6.031-6.594,7.234C461.332,431.767,460.066,431.986,458.801,431.986z M386.974,359.738l64.529,43.748
	c2.859-17.078,6.703-48.576,6.703-94.154c0-37.248-19.686-80.904-51.342-113.95c-18.094-18.875-39.281-33.781-63.029-44.296
	c-26.594-11.781-55.859-17.75-86.982-17.75c-52.569,0-104.13,22.265-145.184,62.702c-35.983,35.437-58.334,80.218-58.334,116.841
	c0,42.391,1.828,72.779,3.266,90.107l67.959-43.436c0.164-17.188,3.726-64.89,36.03-99.139
	c22.773-24.172,54.795-36.421,95.177-36.421c40.381,0,72.396,12.25,95.178,36.421C383.365,294.786,386.834,342.723,386.974,359.738z
	"/>
<g>
</g>
<g>
</g>
<g>
</g>
<g>
</g>
<g>
</g>
<g>
</g>
<g>
</g>
<g>
</g>
<g>
</g>
<g>
</g>
<g>
</g>
<g>
</g>
<g>
</g>
<g>
</g>
<g>
</g>
</svg>
