<?xml version="1.0" encoding="iso-8859-1"?>
<!-- Generator: Adobe Illustrator 17.1.0, SVG Export Plug-In . SVG Version: 6.00 Build 0)  -->
<!DOCTYPE svg PUBLIC "-//W3C//DTD SVG 1.1//EN" "http://www.w3.org/Graphics/SVG/1.1/DTD/svg11.dtd">
<svg version="1.1" id="Capa_1" xmlns="http://www.w3.org/2000/svg" xmlns:xlink="http://www.w3.org/1999/xlink" x="0px" y="0px"
	 viewBox="0 0 222.999 222.999" style="enable-background:new 0 0 222.999 222.999;" xml:space="preserve">
<path d="M44.608,70.893h133.783v59.435H44.608V70.893z M222.999,156.474c0,13.494-10.978,24.472-24.471,24.472H24.471
	C10.978,180.946,0,169.968,0,156.474c0-4.143,3.358-7.5,7.5-7.5h8.814v-99.42c0-4.143,3.358-7.5,7.5-7.5h175.371
	c4.143,0,7.5,3.357,7.5,7.5v99.42h8.814C219.642,148.974,222.999,152.331,222.999,156.474z M193.391,63.393
	c0-4.143-3.357-7.5-7.5-7.5H37.108c-4.142,0-7.5,3.357-7.5,7.5v74.435c0,4.143,3.358,7.5,7.5,7.5h148.783c4.143,0,7.5-3.357,7.5-7.5
	V63.393z"/>
<g>
</g>
<g>
</g>
<g>
</g>
<g>
</g>
<g>
</g>
<g>
</g>
<g>
</g>
<g>
</g>
<g>
</g>
<g>
</g>
<g>
</g>
<g>
</g>
<g>
</g>
<g>
</g>
<g>
</g>
</svg>
