<?xml version="1.0" encoding="iso-8859-1"?>
<!-- Generator: Adobe Illustrator 19.0.0, SVG Export Plug-In . SVG Version: 6.00 Build 0)  -->
<svg version="1.1" id="Layer_1" xmlns="http://www.w3.org/2000/svg" xmlns:xlink="http://www.w3.org/1999/xlink" x="0px" y="0px"
	 viewBox="0 0 512 512" style="enable-background:new 0 0 512 512;" xml:space="preserve">
<g>
	<g>
		<path d="M444.339,235.935c-1.128-0.113-2.16-0.226-3.08-0.33c-6.801-59.363-57.082-104.855-117.547-104.855
			c-21.401,0-54.928,10.237-70.274,19.38l-4.708,2.585v228.032l198.309,0.503c33.902,0,64.961-35.758,64.961-75.022
			C512,268.804,484.288,239.899,444.339,235.935z M447.445,362.943L323.453,361.9h-56.956V163.064
			c15.546-7.07,40.64-14.548,56.845-14.548c53.49,0,97.787,41.9,100.598,95.391l0.492,6.949l6.873,1.043
			c0,0,3.561,1.182,11.265,1.182h0.009c30.527,4.442,51.842,24.661,51.842,52.612C494.42,334.587,471.136,362.943,447.445,362.943z"
			/>
	</g>
</g>
<g>
	<g>
		<path d="M222.081,157.4c-4.91,0-8.883,3.973-8.883,8.883v204.505c0,4.91,3.973,8.883,8.883,8.883s8.883-3.973,8.883-8.883V166.283
			C230.964,161.373,226.991,157.4,222.081,157.4z"/>
	</g>
</g>
<g>
	<g>
		<path d="M186.548,192.933c-4.91,0-8.883,3.973-8.883,8.883v168.781c0,4.91,3.973,8.883,8.883,8.883s8.883-3.973,8.883-8.883
			V201.816C195.431,196.906,191.458,192.933,186.548,192.933z"/>
	</g>
</g>
<g>
	<g>
		<path d="M151.015,166.283c-4.91,0-8.883,3.973-8.883,8.883v195.431c0,4.91,3.973,8.883,8.883,8.883s8.883-3.973,8.883-8.883
			V175.166C159.898,170.256,155.925,166.283,151.015,166.283z"/>
	</g>
</g>
<g>
	<g>
		<path d="M115.482,184.049c-4.91,0-8.883,3.973-8.883,8.883v177.664c0,4.91,3.973,8.883,8.883,8.883s8.883-3.973,8.883-8.883
			V192.933C124.365,188.023,120.392,184.049,115.482,184.049z"/>
	</g>
</g>
<g>
	<g>
		<path d="M79.949,192.933c-4.91,0-8.883,3.973-8.883,8.883v168.781c0,4.91,3.973,8.883,8.883,8.883s8.883-3.973,8.883-8.883
			V201.816C88.832,196.906,84.859,192.933,79.949,192.933z"/>
	</g>
</g>
<g>
	<g>
		<path d="M44.416,192.933c-4.91,0-8.883,3.973-8.883,8.883v151.015c0,4.91,3.973,8.883,8.883,8.883s8.883-3.973,8.883-8.883
			V201.816C53.299,196.906,49.326,192.933,44.416,192.933z"/>
	</g>
</g>
<g>
	<g>
		<path d="M8.883,219.582c-4.91,0-8.883,3.973-8.883,8.883v124.365c0,4.91,3.973,8.883,8.883,8.883s8.883-3.973,8.883-8.883V228.465
			C17.766,223.555,13.793,219.582,8.883,219.582z"/>
	</g>
</g>
<g>
</g>
<g>
</g>
<g>
</g>
<g>
</g>
<g>
</g>
<g>
</g>
<g>
</g>
<g>
</g>
<g>
</g>
<g>
</g>
<g>
</g>
<g>
</g>
<g>
</g>
<g>
</g>
<g>
</g>
</svg>
