<?xml version="1.0" encoding="iso-8859-1"?>
<!-- Generator: Adobe Illustrator 19.0.0, SVG Export Plug-In . SVG Version: 6.00 Build 0)  -->
<svg version="1.1" id="Layer_1" xmlns="http://www.w3.org/2000/svg" xmlns:xlink="http://www.w3.org/1999/xlink" x="0px" y="0px"
	 viewBox="0 0 512 512" style="enable-background:new 0 0 512 512;" xml:space="preserve">
<rect x="3.241" y="32.405" style="fill:#FFF0B4;" width="505.519" height="479.595"/>
<rect x="256" y="32.405" style="fill:#FFDA44;" width="252.759" height="479.595"/>
<rect x="3.241" y="32.405" style="fill:#AED5F3;" width="505.519" height="84.253"/>
<rect x="256" y="32.405" style="fill:#78B9EB;" width="252.759" height="84.253"/>
<path style="fill:#FFF8DA;" d="M329.397,230.489c-19.083-27.433-45.149-42.54-73.397-42.54s-54.315,15.107-73.397,42.54
	c-17.587,25.281-27.273,58.547-27.273,93.669c0,58.31,45.161,105.749,100.672,105.749s100.672-47.44,100.672-105.749
	C356.672,289.036,346.986,255.771,329.397,230.489z"/>
<path style="fill:#FFEFD9;" d="M256,429.908c55.511,0,100.672-47.44,100.672-105.749c0-35.122-9.686-68.388-27.273-93.669
	c-19.084-27.433-45.151-42.54-73.399-42.54"/>
<path style="fill:#AED5F3;" d="M311.095,322.495c-7.502,0-10.224,1.96-16.187,6.252c-7.961,5.731-18.864,13.58-38.908,13.58
	s-30.947-7.85-38.907-13.58c-5.963-4.293-8.685-6.252-16.187-6.252c-7.5,0-10.221,1.96-16.182,6.252
	c-6.381,4.595-14.667,10.541-28.025,12.722c7.89,50.1,49.402,88.439,99.299,88.439s91.41-38.338,99.299-88.439
	c-13.357-2.183-21.643-8.128-28.024-12.724C321.316,324.455,318.595,322.495,311.095,322.495z"/>
<path style="fill:#F285B9;" d="M200.908,283.609c20.044,0,30.947,7.848,38.907,13.58c5.963,4.293,8.685,6.252,16.187,6.252
	c7.504,0,10.224-1.96,16.188-6.252c7.96-5.732,18.862-13.58,38.907-13.58c20.043,0,30.944,7.85,38.903,13.582
	c1.991,1.432,3.619,2.6,5.185,3.527c-3.318-26.295-12.171-50.658-25.785-70.227c-19.084-27.434-45.151-42.541-73.399-42.541
	s-54.315,15.107-73.397,42.54c-13.614,19.57-22.467,43.932-25.785,70.227c1.566-0.927,3.195-2.093,5.186-3.528
	C169.963,291.458,180.864,283.609,200.908,283.609z"/>
<path style="fill:#78B9EB;" d="M256,429.908c49.897,0,91.409-38.338,99.299-88.439c-13.357-2.183-21.643-8.128-28.024-12.724
	c-5.961-4.292-8.682-6.25-16.182-6.25c-7.502,0-10.224,1.96-16.187,6.252c-7.961,5.73-18.864,13.58-38.908,13.58"/>
<g>
	<path style="fill:#EE5DA2;" d="M256,303.441c7.504,0,10.224-1.96,16.188-6.252c7.96-5.732,18.862-13.58,38.907-13.58
		c20.043,0,30.944,7.85,38.903,13.582c1.991,1.432,3.619,2.6,5.185,3.527c-3.318-26.295-12.171-50.658-25.785-70.227
		c-19.083-27.434-45.149-42.541-73.397-42.541"/>
	<rect x="106.937" style="fill:#EE5DA2;" width="38.886" height="77.772"/>
	<rect x="366.177" style="fill:#EE5DA2;" width="38.886" height="77.772"/>
</g>
<g>
</g>
<g>
</g>
<g>
</g>
<g>
</g>
<g>
</g>
<g>
</g>
<g>
</g>
<g>
</g>
<g>
</g>
<g>
</g>
<g>
</g>
<g>
</g>
<g>
</g>
<g>
</g>
<g>
</g>
</svg>
