<?xml version="1.0" encoding="iso-8859-1"?>
<!-- Generator: Adobe Illustrator 19.0.0, SVG Export Plug-In . SVG Version: 6.00 Build 0)  -->
<svg version="1.1" id="Layer_1" xmlns="http://www.w3.org/2000/svg" xmlns:xlink="http://www.w3.org/1999/xlink" x="0px" y="0px"
	 viewBox="0 0 512 512" style="enable-background:new 0 0 512 512;" xml:space="preserve">
<g>
	<polygon style="fill:#FFAD41;" points="237.57,512 187.733,512 187.733,477.867 206.163,477.867 210.548,425.249 244.563,428.084 	
		"/>
	<polygon style="fill:#FFAD41;" points="324.267,512 274.43,512 267.437,428.084 301.452,425.249 305.837,477.867 324.267,477.867 	
		"/>
</g>
<path style="fill:#FFDA44;" d="M290.133,22.756c-8.12,0-15.799,1.908-22.627,5.286C259.038,11.42,241.766,0,221.867,0h-11.378
	v34.133h11.378c9.411,0,17.067,7.656,17.067,17.067v45.511h34.133V73.956c0-9.411,7.656-17.067,17.067-17.067h11.378V22.756H290.133
	z"/>
<path style="fill:#FFE98F;" d="M344.181,320.57c-20.918-15.156-46.483-21.261-71.996-17.184
	c-25.509,4.076-47.905,17.839-63.061,38.758l-10.012,13.821l128.13,92.834c5.753,4.168,12.503,6.326,19.385,6.326
	c3.138,0,6.306-0.449,9.415-1.362c9.908-2.908,17.745-10.084,21.502-19.69C393.573,393.09,379.854,346.416,344.181,320.57z"/>
<path style="fill:#FFF0B4;" d="M302.876,342.146c-15.156-20.919-37.552-34.684-63.061-38.758
	c-25.512-4.076-51.079,2.028-71.996,17.184c-35.674,25.846-49.392,72.519-33.363,113.501c3.758,9.606,11.594,16.782,21.502,19.69
	c3.11,0.914,6.277,1.362,9.415,1.362c6.882,0,13.634-2.158,19.385-6.326l128.131-92.834L302.876,342.146z"/>
<path style="fill:#FFDA44;" d="M256,250.311c-53.327,0-96.711,43.385-96.711,96.711s43.385,96.711,96.711,96.711
	s96.711-43.385,96.711-96.711S309.327,250.311,256,250.311z"/>
<path style="fill:#FFF0B4;" d="M256,68.267c-78.421,0-142.222,63.801-142.222,142.222S177.579,352.711,256,352.711
	s142.222-63.801,142.222-142.222S334.421,68.267,256,68.267z"/>
<path style="fill:#FFE98F;" d="M256,352.711c78.421,0,142.222-63.801,142.222-142.222S334.421,68.267,256,68.267"/>
<g>
	<circle style="fill:#50412E;" cx="199.111" cy="204.8" r="17.067"/>
	<circle style="fill:#50412E;" cx="312.889" cy="204.8" r="17.067"/>
</g>
<path style="fill:#FFAD41;" d="M227.556,273.067c0-15.709,12.734-28.444,28.444-28.444c15.709,0,28.444,12.735,28.444,28.444
	L256,292.03L227.556,273.067z"/>
<path style="fill:#FF9811;" d="M256,244.622c15.709,0,28.444,12.735,28.444,28.444L256,292.03"/>
<g>
</g>
<g>
</g>
<g>
</g>
<g>
</g>
<g>
</g>
<g>
</g>
<g>
</g>
<g>
</g>
<g>
</g>
<g>
</g>
<g>
</g>
<g>
</g>
<g>
</g>
<g>
</g>
<g>
</g>
</svg>
