<?xml version="1.0" encoding="iso-8859-1"?>
<!-- Generator: Adobe Illustrator 19.0.0, SVG Export Plug-In . SVG Version: 6.00 Build 0)  -->
<svg version="1.1" id="Capa_1" xmlns="http://www.w3.org/2000/svg" xmlns:xlink="http://www.w3.org/1999/xlink" x="0px" y="0px"
	 viewBox="0 0 511.999 511.999" style="enable-background:new 0 0 511.999 511.999;" xml:space="preserve">
<g>
	<g>
		<path d="M503.915,153.88c4.465,0,8.084-3.619,8.084-8.084v-31.459c0-20.619-16.774-37.394-37.393-37.394H37.393
			C16.775,76.942,0,93.716,0,114.336v283.325c0,20.62,16.775,37.395,37.393,37.395h437.214c20.619,0,37.393-16.775,37.392-37.395
			V172.023c0-4.466-3.62-8.084-8.084-8.084c-4.466,0-8.084,3.618-8.084,8.084v225.636c0,11.705-9.522,21.227-21.225,21.227H37.393
			c-11.704,0-21.225-9.522-21.225-21.227V114.336c0-11.704,9.521-21.226,21.225-21.225h437.212c11.703,0,21.225,9.522,21.225,21.226
			v31.459C495.831,150.261,499.449,153.88,503.915,153.88z"/>
	</g>
</g>
<g>
	<g>
		<path d="M283.694,237.352c-0.047,0-0.095,0-0.141,0c-0.855,0.01-1.688,0.037-2.487,0.081c-0.323,0.018-0.645,0.034-0.967,0.059
			c-0.65,5.19,0,11.026,0,16.217c0.37,0.057,0.738,0.101,1.106,0.149c1.282,0.153,2.675,0.251,4.121,0.281c0.043,0,0.085,0,0.127,0
			c6.311,0,11.511-2.105,11.511-8.214C296.965,239.257,290.772,237.352,283.694,237.352z"/>
	</g>
</g>
<g>
	<g>
		<polygon points="351.45,242.034 343.665,268.625 359.882,268.625 		"/>
	</g>
</g>
<g>
	<g>
		<path d="M205.166,238.81c-3.33,0.116-6.461,1.123-8.739,3.225c-2.598,2.593-3.891,6.486-4.541,11.676h25.943
			C218.277,245.197,211.919,239.164,205.166,238.81z"/>
	</g>
</g>
<g>
	<g>
		<path d="M459.143,207.057L459.143,207.057c-0.004,0-0.009,0-0.013,0h-0.005h-23.999c-5.657,0-10.902,2.957-13.832,7.795
			l-1.089,1.797l-1.087-1.796c-2.934-4.847-8.185-7.796-13.832-7.796c-0.141,0-0.282,0.002-0.424,0.005l-24.648,0.645
			c-2.538,0.067-4.971,0.729-7.139,1.876c-2.534-1.608-5.515-2.526-8.656-2.526h-24.647c-6.74,0-12.773,4.181-15.139,10.491
			l-0.072,0.195c-1.863-1.935-3.802-3.493-5.652-4.728c-0.178-0.119-0.359-0.234-0.541-0.346
			c-5.086-3.107-13.984-6.673-37.847-6.673c-13.077,0-24.789,1.084-25.282,1.131c-6.373,0.598-11.582,4.847-13.668,10.558
			c-8.445-6.682-19.635-10.559-33.293-11.256c-0.275-0.014-0.551-0.022-0.826-0.022h-6.489c-0.306,0-0.612,0.009-0.918,0.026
			c-7.207,0.41-13.713,1.896-19.344,4.418c-2.836,1.151-5.516,2.522-8.032,4.082c-2.825-4.713-7.966-7.877-13.86-7.877h-0.005
			h-21.406c-3.478,0-6.737,1.107-9.405,3.016c-2.675-1.913-5.939-3.016-9.404-3.016H97.832c-3.607,0-6.993,1.193-9.729,3.255
			c-2.726-2.055-6.108-3.255-9.729-3.255c-0.299,0-0.6-0.005-0.903-0.01l-0.415-0.005c-1.222-0.023-2.088-0.075-3.003-0.131
			c-1.089-0.066-2.323-0.141-3.838-0.141c-0.736,0-1.484,0.018-2.268,0.054c-1.596-0.037-2.934-0.054-4.168-0.054
			c-3.246,0-5.923,0.116-8.426,0.369c-4.654,0.468-8.879,2.928-11.582,6.745c-2.702,3.818-3.62,8.62-2.514,13.165
			c6.37,26.178,11.161,49.918,14.646,72.576c1.213,7.888,8,13.711,15.981,13.711H93.94c5.391,0,10.325-2.673,13.296-6.968
			c2.956,4.27,7.874,6.968,13.297,6.968h22.055c7.646,0,14.245-5.355,15.821-12.836l0.117-0.559c0.431-2.045,0.865-4.105,1.299-6.16
			c9.025,11.457,23.206,18.357,40.633,18.903c0.168,0.004,0.337,0.008,0.507,0.008h7.138c13.212,0,24.613-3.648,33.918-10.823
			c2.536,5.612,8.17,9.524,14.729,9.524h6.486h16.216c8.929,0,16.168-7.239,16.168-16.168V284.83
			c1.364-0.126,2.68-0.297,3.972-0.495l-2.198,5.861c-1.862,4.963-1.17,10.526,1.85,14.885c3.021,4.359,7.986,6.959,13.289,6.959
			h5.84h16.216h0.646c6.959,0,13.137-4.454,15.338-11.056l0.206-0.619h2.005c1.997,6.908,8.327,11.675,15.531,11.675h5.839h17.51
			c3.151,0,6.172-0.936,8.747-2.596c2.528,1.636,5.533,2.596,8.768,2.596h22.706c8.929,0,16.168-7.239,16.168-16.168v-25.719
			l24.48-37.885c1.744-2.58,2.765-5.693,2.765-9.044C475.296,214.299,468.066,207.064,459.143,207.057z M157.171,230.216
			c-2.748,11.836-5.361,23.673-7.91,35.508c-2.256,10.48-4.466,20.961-6.673,31.443h-22.055
			c-3.891-14.917-9.078-29.836-12.969-44.106c-4.542,14.27-8.432,29.838-13.623,44.106H71.884
			c-3.89-25.294-9.077-49.942-14.917-73.941c0.994-0.1,2.025-0.162,3.073-0.207c0.34-0.015,0.686-0.022,1.028-0.031
			c0.736-0.022,1.478-0.037,2.231-0.04c0.162,0,0.316-0.009,0.479-0.009c0.195,0,0.398,0.008,0.594,0.009
			c1.253,0.006,2.516,0.023,3.795,0.055c0.357-0.022,0.683-0.033,0.996-0.044c0.047-0.002,0.096-0.004,0.141-0.005
			c0.29-0.009,0.562-0.012,0.824-0.013c0.027,0,0.059-0.001,0.086-0.001c0.028,0,0.053,0.001,0.081,0.001
			c0.218,0.001,0.43,0.003,0.636,0.008c0.046,0.002,0.092,0.003,0.137,0.004c0.175,0.005,0.348,0.012,0.518,0.018
			c0.053,0.002,0.108,0.004,0.162,0.006c0.197,0.009,0.396,0.019,0.594,0.03c0.067,0.004,0.136,0.008,0.203,0.012
			c0.182,0.011,0.366,0.022,0.556,0.033c0.218,0.013,0.446,0.026,0.679,0.04c0.066,0.004,0.135,0.008,0.203,0.012
			c0.205,0.012,0.42,0.023,0.645,0.033c0.045,0.002,0.089,0.004,0.136,0.006c0.258,0.012,0.534,0.023,0.82,0.032
			c0.074,0.003,0.151,0.005,0.226,0.008c0.308,0.01,0.631,0.019,0.98,0.025c0.529,0.006,1.061,0.017,1.584,0.017l7.784,40.864
			c4.54-12.974,7.783-27.245,11.675-40.864h20.758c3.891,13.619,7.784,27.239,11.026,40.864c3.242-12.974,5.19-27.245,7.783-40.864
			h21.406C158.252,225.555,157.711,227.885,157.171,230.216z M243.777,266.034h-3.195h-48.695c0,0.632,0.038,1.244,0.096,1.844
			c0.018,0.189,0.046,0.37,0.07,0.554c0.053,0.413,0.115,0.819,0.195,1.215c0.04,0.198,0.083,0.393,0.128,0.589
			c0.092,0.386,0.198,0.763,0.315,1.133c0.053,0.166,0.1,0.335,0.157,0.497c0.177,0.502,0.372,0.992,0.593,1.458
			c0.006,0.014,0.012,0.028,0.018,0.043c0.23,0.48,0.488,0.936,0.762,1.375c0.084,0.135,0.176,0.261,0.264,0.391
			c0.202,0.301,0.412,0.594,0.634,0.873c0.11,0.138,0.222,0.273,0.335,0.404c0.23,0.266,0.47,0.52,0.717,0.764
			c0.112,0.11,0.22,0.223,0.334,0.329c0.346,0.318,0.706,0.619,1.083,0.894c0.02,0.015,0.039,0.032,0.059,0.047
			c0.4,0.288,0.818,0.544,1.247,0.783c0.13,0.071,0.265,0.133,0.397,0.199c0.31,0.157,0.625,0.303,0.949,0.433
			c0.158,0.065,0.319,0.124,0.481,0.182c0.323,0.115,0.654,0.216,0.988,0.305c0.153,0.04,0.305,0.085,0.46,0.12
			c0.451,0.102,0.909,0.182,1.375,0.235c0.04,0.005,0.078,0.015,0.119,0.019c0.509,0.053,1.027,0.069,1.552,0.064
			c0.152-0.002,0.308-0.017,0.461-0.023c0.378-0.018,0.759-0.049,1.144-0.098c0.184-0.023,0.371-0.052,0.557-0.083
			c0.378-0.064,0.759-0.144,1.141-0.239c0.172-0.043,0.345-0.08,0.517-0.128c0.55-0.156,1.101-0.334,1.657-0.557
			c4.541-1.948,6.486-5.189,6.486-5.189l23.401,2.462l0.72,0.076c-0.453,1.072-0.955,2.061-1.479,3.001
			c-0.039,0.069-0.075,0.142-0.115,0.21c-0.245,0.432-0.496,0.847-0.752,1.251c-0.06,0.095-0.12,0.192-0.179,0.285
			c-0.245,0.378-0.49,0.742-0.741,1.094c-0.08,0.111-0.158,0.222-0.238,0.332c-0.237,0.326-0.473,0.641-0.714,0.944
			c-0.101,0.128-0.202,0.25-0.302,0.376c-0.222,0.272-0.443,0.539-0.665,0.793c-0.13,0.15-0.259,0.29-0.388,0.432
			c-0.194,0.213-0.388,0.43-0.581,0.631c-0.178,0.188-0.355,0.359-0.53,0.535c-0.142,0.141-0.286,0.291-0.427,0.424
			c-0.319,0.305-0.633,0.594-0.937,0.86c-0.133,0.112-0.26,0.23-0.395,0.338c-0.033,0.028-0.068,0.058-0.101,0.085
			c-6.025,4.863-13.964,7.926-24.658,7.926h-7.138c-0.631-0.019-1.256-0.052-1.873-0.093c-0.214-0.014-0.425-0.037-0.637-0.054
			c-0.4-0.031-0.801-0.063-1.194-0.104c-0.25-0.025-0.496-0.059-0.743-0.088c-0.35-0.042-0.703-0.082-1.049-0.132
			c-0.263-0.037-0.52-0.081-0.78-0.122c-0.323-0.052-0.647-0.102-0.966-0.16c-0.268-0.049-0.534-0.105-0.799-0.157
			c-0.303-0.061-0.606-0.121-0.904-0.188c-0.271-0.06-0.537-0.126-0.804-0.191c-0.286-0.07-0.571-0.139-0.853-0.213
			c-0.271-0.072-0.539-0.15-0.807-0.226c-0.269-0.078-0.538-0.156-0.804-0.239c-0.272-0.084-0.54-0.172-0.807-0.262
			c-0.253-0.085-0.504-0.17-0.755-0.26c-0.273-0.098-0.541-0.199-0.808-0.302c-0.236-0.091-0.471-0.183-0.704-0.279
			c-0.273-0.111-0.542-0.224-0.81-0.341c-0.219-0.097-0.437-0.195-0.652-0.294c-0.273-0.125-0.543-0.253-0.811-0.385
			c-0.203-0.099-0.401-0.203-0.6-0.305c-0.273-0.141-0.543-0.285-0.811-0.431c-0.183-0.101-0.364-0.206-0.544-0.31
			c-0.275-0.158-0.549-0.319-0.817-0.484c-0.161-0.1-0.319-0.203-0.479-0.305c-0.279-0.179-0.558-0.359-0.83-0.545
			c-0.135-0.093-0.267-0.19-0.4-0.285c-0.289-0.205-0.578-0.411-0.858-0.624c-0.097-0.073-0.191-0.152-0.287-0.226
			c-0.31-0.241-0.618-0.484-0.917-0.736c-0.038-0.031-0.073-0.066-0.111-0.097c-2.606-2.217-4.813-4.84-6.579-7.837
			c-0.008-0.014-0.016-0.027-0.025-0.041c-0.24-0.409-0.47-0.826-0.693-1.247c-0.018-0.034-0.038-0.068-0.055-0.104
			c-0.216-0.412-0.423-0.831-0.623-1.256c-0.022-0.046-0.044-0.093-0.066-0.139c-0.195-0.42-0.382-0.847-0.562-1.279
			c-0.023-0.054-0.045-0.108-0.068-0.162c-0.177-0.431-0.345-0.87-0.507-1.313c-0.021-0.056-0.041-0.112-0.061-0.168
			c-0.159-0.445-0.31-0.898-0.454-1.356c-0.018-0.056-0.034-0.112-0.052-0.167c-0.142-0.462-0.277-0.93-0.403-1.404
			c-0.014-0.053-0.027-0.106-0.041-0.157c-0.127-0.483-0.245-0.97-0.354-1.466c-0.009-0.041-0.017-0.083-0.026-0.124
			c-0.111-0.51-0.213-1.024-0.306-1.547c-0.003-0.022-0.008-0.045-0.011-0.068c-0.272-1.55-0.471-3.151-0.578-4.808
			c-0.578-10.992,1.956-19.909,6.941-26.599l0.001-0.002c1.273-1.708,2.712-3.263,4.294-4.677c0.176-0.156,0.347-0.32,0.526-0.473
			c0.386-0.329,0.787-0.643,1.189-0.956c0.277-0.217,0.557-0.431,0.843-0.64c0.365-0.265,0.738-0.524,1.118-0.777
			c0.359-0.24,0.725-0.472,1.096-0.698c0.343-0.21,0.685-0.422,1.037-0.621c0.465-0.264,0.943-0.513,1.424-0.759
			c0.288-0.147,0.569-0.301,0.863-0.441c0.792-0.38,1.602-0.741,2.436-1.071c3.855-1.773,8.467-2.838,13.907-3.147h6.489
			c0.951,0.048,1.878,0.122,2.792,0.207c0.267,0.024,0.529,0.055,0.792,0.082c0.68,0.072,1.349,0.156,2.009,0.248
			c0.245,0.034,0.493,0.068,0.736,0.106c1.75,0.272,3.426,0.618,5.026,1.041c0.194,0.051,0.384,0.107,0.576,0.158
			c0.642,0.18,1.273,0.372,1.89,0.575c0.163,0.054,0.328,0.107,0.489,0.161c1.545,0.532,3.007,1.146,4.391,1.838
			c0.112,0.057,0.221,0.114,0.332,0.171c0.612,0.316,1.209,0.647,1.789,0.993c0.079,0.049,0.159,0.094,0.238,0.141
			c1.33,0.813,2.574,1.711,3.732,2.695c0.046,0.039,0.092,0.079,0.137,0.117c0.557,0.479,1.094,0.977,1.61,1.496
			c0.019,0.018,0.038,0.037,0.056,0.055c1.094,1.105,2.095,2.301,3.007,3.587c0.01,0.014,0.019,0.028,0.029,0.043
			c1.373,1.943,2.538,4.094,3.496,6.452l0.001,0.002C243.129,249.028,244.207,256.776,243.777,266.034z M306.607,265.628
			c-0.052,0.024-0.109,0.044-0.161,0.068c-1.148,0.531-2.367,0.994-3.654,1.391c-0.153,0.046-0.307,0.093-0.462,0.137
			c-0.563,0.165-1.137,0.319-1.725,0.459c-0.096,0.023-0.189,0.048-0.286,0.072c-0.676,0.152-1.37,0.292-2.077,0.418
			c-0.16,0.028-0.323,0.054-0.484,0.08c-0.577,0.097-1.162,0.183-1.758,0.26c-0.18,0.023-0.359,0.049-0.541,0.07
			c-0.737,0.086-1.485,0.163-2.25,0.222c-0.104,0.009-0.212,0.014-0.318,0.022c-0.669,0.049-1.351,0.086-2.04,0.115
			c-0.223,0.009-0.447,0.017-0.673,0.024c-0.697,0.022-1.403,0.034-2.12,0.038c-0.086,0-0.168,0.004-0.254,0.004
			c-0.018,0-0.037-0.001-0.055-0.001c-1.294-0.001-2.62-0.033-3.971-0.095c-0.03-0.001-0.059-0.002-0.089-0.003
			c-1.385-0.065-2.798-0.159-4.238-0.282v26.598h-16.216h-6.486v-13.48V239.98v-16.753c0,0,0.153-0.014,0.43-0.039
			c0.02-0.001,0.032-0.002,0.055-0.004c0.144-0.013,0.322-0.028,0.527-0.045c0.013-0.001,0.023-0.002,0.033-0.003
			c0.209-0.017,0.448-0.037,0.714-0.058c0.026-0.002,0.05-0.004,0.074-0.006c0.274-0.022,0.577-0.045,0.904-0.07
			c0.018-0.001,0.033-0.002,0.051-0.003c0.334-0.025,0.694-0.052,1.078-0.08c0.027-0.001,0.052-0.003,0.078-0.005
			c0.38-0.027,0.784-0.055,1.209-0.084c0.041-0.002,0.083-0.005,0.126-0.009c0.424-0.027,0.866-0.057,1.327-0.085
			c0.047-0.003,0.094-0.006,0.14-0.01c0.47-0.028,0.956-0.058,1.463-0.086c0.044-0.003,0.088-0.005,0.133-0.008
			c0.523-0.03,1.063-0.06,1.622-0.088c0.018-0.001,0.037-0.001,0.055-0.003c0.579-0.029,1.176-0.058,1.789-0.086
			c0.008,0,0.018,0,0.026-0.001c1.242-0.056,2.548-0.109,3.903-0.152c0.015,0,0.027-0.001,0.042-0.001
			c0.661-0.021,1.333-0.04,2.016-0.057c0.031,0,0.064-0.001,0.095-0.002c0.665-0.016,1.34-0.029,2.021-0.041
			c0.053-0.001,0.107-0.001,0.16-0.002c0.664-0.011,1.336-0.018,2.011-0.023c0.073-0.001,0.147-0.001,0.22-0.002
			c0.487-0.003,0.977-0.005,1.468-0.005c0.119,0,0.239,0.002,0.358,0.002c0.319,0,0.639,0.002,0.959,0.004
			c0.414,0.003,0.827,0.006,1.241,0.011c0.33,0.004,0.659,0.011,0.99,0.016c0.409,0.008,0.816,0.015,1.224,0.025
			c0.334,0.008,0.667,0.018,1.001,0.027c0.405,0.012,0.81,0.025,1.215,0.04c0.334,0.013,0.665,0.026,0.998,0.041
			c0.401,0.017,0.8,0.036,1.198,0.057c0.335,0.017,0.669,0.036,1.002,0.056c0.389,0.023,0.777,0.047,1.163,0.073
			c0.335,0.023,0.667,0.047,0.999,0.072c0.38,0.029,0.759,0.061,1.136,0.094c0.328,0.028,0.653,0.057,0.978,0.088
			c0.37,0.036,0.735,0.074,1.099,0.113c0.322,0.034,0.643,0.07,0.959,0.109c0.358,0.042,0.708,0.088,1.059,0.135
			c0.31,0.042,0.622,0.083,0.926,0.127c0.346,0.051,0.683,0.106,1.021,0.16c0.294,0.049,0.592,0.096,0.881,0.147
			c0.334,0.059,0.658,0.124,0.983,0.188c0.276,0.055,0.555,0.108,0.825,0.166c0.322,0.069,0.63,0.143,0.941,0.218
			c0.254,0.061,0.515,0.119,0.761,0.183c0.31,0.081,0.604,0.168,0.901,0.254c0.227,0.067,0.462,0.129,0.682,0.199
			c0.302,0.096,0.584,0.199,0.871,0.301c0.194,0.069,0.397,0.135,0.582,0.206c0.305,0.119,0.586,0.247,0.871,0.373
			c0.144,0.066,0.301,0.125,0.44,0.192c0.412,0.199,0.799,0.406,1.156,0.624c0.427,0.285,0.831,0.587,1.223,0.899
			c0.115,0.092,0.224,0.188,0.336,0.281c0.282,0.236,0.557,0.48,0.821,0.732c0.106,0.099,0.209,0.199,0.312,0.3
			c0.3,0.301,0.589,0.612,0.866,0.932c0.041,0.049,0.086,0.095,0.128,0.144c0.333,0.396,0.647,0.806,0.942,1.231
			c0.014,0.019,0.026,0.04,0.039,0.059c0.277,0.4,0.534,0.814,0.778,1.237c0.038,0.066,0.074,0.132,0.111,0.198
			c0.234,0.417,0.453,0.844,0.656,1.283c0.015,0.032,0.03,0.064,0.045,0.096c0.453,0.992,0.832,2.043,1.141,3.146
			c0.695,2.49,1.034,5.251,1.034,8.27c0,10.44-4.38,16.852-11.761,20.338L306.607,265.628z M374.154,295.873L374.154,295.873
			l-5.839-0.001l-2.918-10.506l-0.974-1.168h-25.298l-3.891,11.675h-0.646h-16.216h-5.84l7.251-19.339l19.991-53.308h24.648
			l0.064,0.168l4.586,12.23l0.001,0.002l22.592,60.247H374.154z M431.884,265.385v30.488h-22.706v-29.838l-28.539-42.164
			l1.281-0.034l23.369-0.61l14.918,24.648l14.921-24.648h23.999L431.884,265.385z"/>
	</g>
</g>
<g>
</g>
<g>
</g>
<g>
</g>
<g>
</g>
<g>
</g>
<g>
</g>
<g>
</g>
<g>
</g>
<g>
</g>
<g>
</g>
<g>
</g>
<g>
</g>
<g>
</g>
<g>
</g>
<g>
</g>
</svg>
