<?xml version="1.0" encoding="iso-8859-1"?>
<!-- Generator: Adobe Illustrator 17.1.0, SVG Export Plug-In . SVG Version: 6.00 Build 0)  -->
<!DOCTYPE svg PUBLIC "-//W3C//DTD SVG 1.1//EN" "http://www.w3.org/Graphics/SVG/1.1/DTD/svg11.dtd">
<svg version="1.1" id="Capa_1" xmlns="http://www.w3.org/2000/svg" xmlns:xlink="http://www.w3.org/1999/xlink" x="0px" y="0px"
	 viewBox="0 0 465 465" style="enable-background:new 0 0 465 465;" xml:space="preserve">
<g>
	<path d="M442.492,187.815c-9.777,0-18.114,6.271-21.21,15h-94.917c-4.143,0-7.5,3.358-7.5,7.5s3.357,7.5,7.5,7.5h94.917
		c3.096,8.729,11.433,15,21.21,15c12.406,0,22.5-10.093,22.5-22.5S454.898,187.815,442.492,187.815z M442.492,217.815
		c-4.136,0-7.5-3.364-7.5-7.5s3.364-7.5,7.5-7.5s7.5,3.364,7.5,7.5S446.628,217.815,442.492,217.815z"/>
	<path d="M239.166,391.142c-9.777,0-18.114,6.271-21.21,15h-94.918c-4.143,0-7.5,3.358-7.5,7.5s3.357,7.5,7.5,7.5h94.918
		c3.096,8.729,11.433,15,21.21,15c12.406,0,22.5-10.093,22.5-22.5S251.572,391.142,239.166,391.142z M239.166,421.142
		c-4.136,0-7.5-3.364-7.5-7.5s3.364-7.5,7.5-7.5s7.5,3.364,7.5,7.5S243.302,421.142,239.166,421.142z"/>
	<path d="M222.464,231.921l-11.008,11.008c-2.929,2.929-2.929,7.678,0,10.606c1.465,1.464,3.385,2.197,5.304,2.197
		s3.839-0.732,5.304-2.197l11.008-11.008c2.929-2.929,2.929-7.678,0-10.606C230.141,228.992,225.393,228.992,222.464,231.921z"/>
	<path d="M256.441,197.943l-11.008,11.008c-2.929,2.929-2.929,7.678,0,10.606c1.465,1.464,3.385,2.197,5.304,2.197
		s3.839-0.732,5.304-2.197l11.008-11.008c2.929-2.929,2.929-7.678,0-10.606C264.119,195.015,259.371,195.015,256.441,197.943z"/>
	<path d="M290.42,163.965l-11.008,11.008c-2.929,2.929-2.929,7.678,0,10.606c1.465,1.464,3.385,2.197,5.304,2.197
		s3.839-0.732,5.304-2.197l11.008-11.008c2.929-2.929,2.929-7.678,0-10.606C298.097,161.037,293.349,161.037,290.42,163.965z"/>
	<path d="M392.856,144.271c19.269,0,37.383-7.503,51.008-21.128c13.624-13.625,21.128-31.739,21.128-51.007
		s-7.504-37.383-21.128-51.007C430.239,7.503,412.125,0,392.856,0c-19.268,0-37.383,7.503-51.008,21.128
		c-28.125,28.125-28.125,73.889,0,102.015C355.473,136.767,373.589,144.271,392.856,144.271z M352.456,31.734
		C363.247,20.943,377.596,15,392.856,15c15.262,0,29.609,5.943,40.4,16.734c10.792,10.792,16.735,25.14,16.735,40.401
		s-5.943,29.609-16.735,40.401c-10.791,10.792-25.139,16.734-40.4,16.734c-15.261,0-29.609-5.943-40.4-16.734
		C330.179,90.259,330.179,54.012,352.456,31.734z"/>
	<path d="M352.391,232.815c-4.143,0-7.5,3.358-7.5,7.5v115.061c0,10.63-8.648,19.278-19.278,19.278
		c-10.629,0-19.277-8.648-19.278-19.278l0.001-76.555l9.719-9.719c2.929-2.929,2.929-7.678-0.001-10.606
		c-2.928-2.93-7.677-2.929-10.606,0l-11.915,11.916L185.604,378.338c-2.929,2.929-2.929,7.678,0,10.606
		c1.465,1.464,3.384,2.197,5.304,2.197c1.919,0,3.839-0.732,5.304-2.197l95.124-95.124l-0.001,61.555
		c0.001,18.901,15.379,34.278,34.278,34.278c18.901,0,34.278-15.377,34.278-34.278V240.315
		C359.891,236.173,356.534,232.815,352.391,232.815z"/>
	<path d="M125.604,438.338l-6.014,6.015c-3.642,3.641-8.483,5.646-13.633,5.646s-9.99-2.005-13.632-5.646
		c-3.641-3.641-5.646-8.482-5.646-13.632s2.006-9.991,5.647-13.632l115.34-115.34c1.696-1.697,2.479-4.104,2.104-6.475
		s-1.862-4.418-4-5.509c-4.303-2.195-8.345-4.828-12.091-7.847l5.413-5.414c2.929-2.929,2.929-7.678,0-10.606
		c-2.93-2.929-7.678-2.929-10.607,0l-5.413,5.413c-3.019-3.746-5.652-7.789-7.848-12.092c-1.091-2.138-3.139-3.625-5.51-4
		c-2.375-0.373-4.777,0.408-6.475,2.105l-115.34,115.34c-7.516,7.518-19.747,7.516-27.263,0c-7.517-7.517-7.517-19.747,0-27.263
		l173.942-173.942c0.002-0.002,0.004-0.005,0.006-0.007l11.909-11.909c2.93-2.929,2.93-7.677,0.001-10.606s-7.678-2.929-10.606,0
		l-9.719,9.719h-76.555c-10.63,0-19.278-8.648-19.278-19.278c0-5.149,2.005-9.991,5.646-13.632
		c3.641-3.641,8.481-5.646,13.631-5.646h165.307c16.166,0,31.488,5.455,43.886,15.477l-5.418,5.418
		c-2.929,2.929-2.929,7.678,0,10.606c1.465,1.464,3.385,2.197,5.304,2.197s3.839-0.732,5.304-2.197l5.417-5.417
		c8.137,10.061,13.259,22.043,14.903,35.069c0.52,4.11,4.263,7.017,8.381,6.501c4.109-0.519,7.021-4.271,6.502-8.38
		c-2.382-18.864-10.748-35.942-24.194-49.388c-16.049-16.048-37.387-24.887-60.083-24.887H109.615c0,0,0,0-0.001,0
		c-9.155,0-17.763,3.565-24.237,10.04c-6.474,6.474-10.039,15.083-10.039,24.238c0,18.901,15.377,34.278,34.278,34.278h61.555
		L10.031,334.795c-13.364,13.365-13.364,35.111,0.001,48.476c13.364,13.365,35.11,13.366,48.477,0l108.493-108.494
		c3.061,4.562,6.562,8.819,10.468,12.726c0.003,0.003,0.006,0.006,0.009,0.009c0.003,0.003,0.007,0.006,0.01,0.009
		c3.906,3.906,8.164,7.406,12.725,10.467L81.721,406.483c-6.475,6.474-10.041,15.082-10.041,24.238s3.566,17.764,10.04,24.238
		c6.475,6.474,15.082,10.04,24.238,10.04s17.765-3.565,24.239-10.04l6.015-6.015c2.929-2.929,2.929-7.678-0.001-10.607
		C133.283,435.409,128.534,435.41,125.604,438.338z"/>
</g>
<g>
</g>
<g>
</g>
<g>
</g>
<g>
</g>
<g>
</g>
<g>
</g>
<g>
</g>
<g>
</g>
<g>
</g>
<g>
</g>
<g>
</g>
<g>
</g>
<g>
</g>
<g>
</g>
<g>
</g>
</svg>
