<?xml version="1.0" encoding="iso-8859-1"?>
<!-- Generator: Adobe Illustrator 17.1.0, SVG Export Plug-In . SVG Version: 6.00 Build 0)  -->
<!DOCTYPE svg PUBLIC "-//W3C//DTD SVG 1.1//EN" "http://www.w3.org/Graphics/SVG/1.1/DTD/svg11.dtd">
<svg version="1.1" id="Capa_1" xmlns="http://www.w3.org/2000/svg" xmlns:xlink="http://www.w3.org/1999/xlink" x="0px" y="0px"
	 viewBox="0 0 465 465" style="enable-background:new 0 0 465 465;" xml:space="preserve">
<g>
	<path d="M320.05,59.661v-9.596c0-4.142-3.357-7.5-7.5-7.5s-7.5,3.358-7.5,7.5v9.596c0,4.142,3.357,7.5,7.5,7.5
		S320.05,63.803,320.05,59.661z"/>
	<path d="M286.923,42.565c-4.143,0-7.5,3.358-7.5,7.5v9.596c0,4.142,3.357,7.5,7.5,7.5s7.5-3.358,7.5-7.5v-9.596
		C294.423,45.923,291.065,42.565,286.923,42.565z"/>
	<path d="M427.368,191.739l-77.566-60.619V50.065C349.802,22.459,327.343,0,299.736,0s-50.065,22.459-50.065,50.065v2.799
		l-12.553-9.81c-2.713-2.121-6.523-2.121-9.236,0L37.632,191.739c-3.264,2.55-3.842,7.264-1.291,10.527
		c1.479,1.893,3.685,2.882,5.915,2.882c1.615,0,3.242-0.52,4.613-1.591l28.497-22.271V457.5c0,4.142,3.358,7.5,7.5,7.5h107.108
		c2.086,0,4.077-0.869,5.497-2.397c1.419-1.529,2.137-3.579,1.983-5.659l-4.396-59.123h61.515c5.974,0,11.819-0.559,17.491-1.616
		l-4.517,60.739c-0.154,2.08,0.563,4.13,1.983,5.659c1.419,1.528,3.41,2.397,5.496,2.397h107.108c4.143,0,7.5-3.358,7.5-7.5V181.287
		l28.497,22.271c1.371,1.072,2.998,1.591,4.613,1.591c2.229,0,4.436-0.99,5.914-2.882
		C431.21,199.003,430.632,194.29,427.368,191.739z M90.365,450V169.564L232.5,58.482l17.171,13.42v218.543h-71.562
		c-2.086,0-4.077,0.869-5.497,2.397c-1.419,1.529-2.138,3.579-1.983,5.659L181.895,450H90.365z M191.941,382.821l-5.754-77.376
		h63.483v30.77c0,9.157-7.45,16.606-16.607,16.606h-18.126c-4.142,0-7.5,3.358-7.5,7.5s3.358,7.5,7.5,7.5h18.126
		c17.428,0,31.607-14.179,31.607-31.606V50.065c0-19.335,15.73-35.065,35.065-35.065s35.065,15.73,35.065,35.065v252.527
		c0,44.238-35.991,80.229-80.229,80.229H191.941z M374.635,450h-91.53l4.315-58.019c36.374-13.408,62.382-48.418,62.382-89.389
		V150.156l24.833,19.407V450z"/>
</g>
<g>
</g>
<g>
</g>
<g>
</g>
<g>
</g>
<g>
</g>
<g>
</g>
<g>
</g>
<g>
</g>
<g>
</g>
<g>
</g>
<g>
</g>
<g>
</g>
<g>
</g>
<g>
</g>
<g>
</g>
</svg>
