<?xml version="1.0" encoding="iso-8859-1"?>
<!-- Generator: Adobe Illustrator 17.1.0, SVG Export Plug-In . SVG Version: 6.00 Build 0)  -->
<!DOCTYPE svg PUBLIC "-//W3C//DTD SVG 1.1//EN" "http://www.w3.org/Graphics/SVG/1.1/DTD/svg11.dtd">
<svg version="1.1" id="Capa_1" xmlns="http://www.w3.org/2000/svg" xmlns:xlink="http://www.w3.org/1999/xlink" x="0px" y="0px"
	 viewBox="0 0 465.008 465.008" style="enable-background:new 0 0 465.008 465.008;" xml:space="preserve">
<g>
	<path d="M110.139,71.922c1.919,0,3.839-0.732,5.303-2.196l38.884-38.883c2.929-2.929,2.929-7.678,0-10.606
		c-2.929-2.929-7.678-2.93-10.606-0.001l-38.884,38.883c-2.929,2.929-2.929,7.678,0,10.606
		C106.301,71.189,108.22,71.922,110.139,71.922z"/>
	<path d="M454.061,319.961L296.354,162.258l1.766-1.766c1.407-1.407,2.197-3.314,2.197-5.304s-0.79-3.896-2.197-5.304
		L182.609,34.377c-2.929-2.928-7.678-2.928-10.606,0l-53.035,53.032C82.541,123.836,43.482,158.431,2.875,190.236
		c-1.618,1.267-2.645,3.142-2.841,5.187c-0.197,2.045,0.454,4.081,1.801,5.633c34.791,40.097,72.459,78.454,112.004,114.056v109.357
		c0,12.406,10.093,22.5,22.5,22.5s22.5-10.094,22.5-22.5V308.899c27.088-33.146,56.092-65.222,86.238-95.367
		c0.003-0.003,0.006-0.005,0.009-0.008c0.003-0.003,0.006-0.007,0.009-0.01l40.651-40.65l157.709,157.704
		c4.225,4.225,6.552,9.873,6.552,15.904c0,6.032-2.327,11.681-6.552,15.905l-17.676,17.674c-8.769,8.771-23.039,8.773-31.812,0
		l-9.363-9.362c4.038-6.082,6.206-13.215,6.206-20.682c0-10.015-3.9-19.43-10.982-26.512L273.38,217.051
		c-2.928-2.928-7.677-2.929-10.606,0.001c-2.929,2.929-2.929,7.678,0.001,10.606l106.449,106.445
		c4.248,4.248,6.588,9.896,6.588,15.904s-2.34,11.657-6.589,15.905c-1.406,1.407-2.196,3.314-2.196,5.304s0.79,3.897,2.197,5.304
		l14.14,14.139c7.31,7.309,16.911,10.964,26.512,10.964c9.602,0,19.203-3.655,26.512-10.964l17.676-17.674
		c7.058-7.059,10.945-16.475,10.945-26.513S461.12,327.018,454.061,319.961z M145.522,301.496c-1.088,1.337-1.683,3.009-1.683,4.733
		v118.239c0,4.136-3.364,7.5-7.5,7.5s-7.5-3.364-7.5-7.5V311.765c0-2.133-0.908-4.164-2.497-5.587
		c-38.034-34.062-74.338-70.712-108.006-109.03c36.893-29.265,72.462-60.785,105.915-93.848l15.929,15.929
		c1.464,1.464,3.384,2.196,5.303,2.196s3.839-0.732,5.303-2.196c2.929-2.93,2.929-7.678,0-10.607l-15.909-15.909l42.427-42.426
		l104.905,104.901l-1.748,1.748c-0.006,0.006-0.013,0.012-0.02,0.018c-0.006,0.006-0.011,0.013-0.018,0.02l-40.642,40.641
		l-67.782-67.78c-2.929-2.928-7.678-2.928-10.606,0c-2.929,2.93-2.929,7.678,0,10.607l67.815,67.814
		C199.972,237.839,171.834,269.16,145.522,301.496z"/>
	<path d="M155.954,252.043c-2.696-1.567-5.368-3.692-8.169-6.493c-6.434-6.435-8.056-10.876-9.935-16.019
		c-2.174-5.953-4.639-12.699-13.416-21.479c-8.777-8.778-15.523-11.244-21.475-13.419c-5.143-1.879-9.583-3.502-16.015-9.935
		c-2.801-2.802-4.924-5.473-6.488-8.166c-2.081-3.582-6.67-4.797-10.252-2.718c-3.582,2.081-4.798,6.671-2.717,10.253
		c2.224,3.829,5.119,7.505,8.85,11.236c8.777,8.778,15.523,11.243,21.475,13.418c5.142,1.879,9.583,3.502,16.016,9.936
		c6.433,6.435,8.055,10.876,9.934,16.019c2.174,5.953,4.638,12.7,13.417,21.479c3.729,3.729,7.404,6.626,11.234,8.854
		c1.187,0.689,2.483,1.018,3.764,1.018c2.583,0,5.097-1.336,6.49-3.729C160.749,258.717,159.535,254.126,155.954,252.043z"/>
</g>
<g>
</g>
<g>
</g>
<g>
</g>
<g>
</g>
<g>
</g>
<g>
</g>
<g>
</g>
<g>
</g>
<g>
</g>
<g>
</g>
<g>
</g>
<g>
</g>
<g>
</g>
<g>
</g>
<g>
</g>
</svg>
