<?xml version="1.0" encoding="iso-8859-1"?>
<!-- Generator: Adobe Illustrator 17.1.0, SVG Export Plug-In . SVG Version: 6.00 Build 0)  -->
<!DOCTYPE svg PUBLIC "-//W3C//DTD SVG 1.1//EN" "http://www.w3.org/Graphics/SVG/1.1/DTD/svg11.dtd">
<svg version="1.1" id="Capa_1" xmlns="http://www.w3.org/2000/svg" xmlns:xlink="http://www.w3.org/1999/xlink" x="0px" y="0px"
	 viewBox="0 0 238 238" style="enable-background:new 0 0 238 238;" xml:space="preserve">
<path d="M238,7.5V53v177.5c0,4.142-3.357,7.5-7.5,7.5H7.5c-4.143,0-7.5-3.358-7.5-7.5V53V7.5c0-0.259,0.013-0.515,0.039-0.767
	C0.422,2.951,3.614,0,7.495,0H7.5h223h0.005c3.881,0,7.072,2.951,7.456,6.733C237.987,6.985,238,7.241,238,7.5z M104.471,30.25
	c0,6.755,5.495,12.25,12.25,12.25s12.25-5.495,12.25-12.25S123.476,18,116.721,18S104.471,23.495,104.471,30.25z M59.985,30.25
	c0,6.755,5.495,12.25,12.25,12.25s12.25-5.495,12.25-12.25S78.99,18,72.235,18S59.985,23.495,59.985,30.25z M15.499,30.25
	c0,6.755,5.495,12.25,12.25,12.25s12.25-5.495,12.25-12.25S34.504,18,27.749,18S15.499,23.495,15.499,30.25z M223,60.5H15V223h208
	V60.5z M200.957,145.245l-4.778,12.741c-1.098,2.927-3.896,4.866-7.022,4.866h-7.053c-1.989,0-3.897-0.791-5.304-2.197l-4.706-4.707
	l-4.707,4.707c-1.407,1.407-3.314,2.197-5.304,2.197h-5.461c-1.989,0-3.897-0.791-5.304-2.197l-4.706-4.707l-4.707,4.707
	c-1.407,1.407-3.314,2.197-5.304,2.197h-9.308c-7.761,16.531-24.423,27.301-43.021,27.301c-26.215,0-47.542-21.327-47.542-47.542
	s21.327-47.542,47.542-47.542c18.598,0,35.26,10.771,43.021,27.302h61.862c3.126,0,5.925,1.939,7.022,4.866l4.778,12.741
	C201.594,141.675,201.594,143.546,200.957,145.245z M67.438,133.729c-4.896,0-8.881,3.984-8.881,8.881s3.984,8.881,8.881,8.881
	s8.881-3.984,8.881-8.881S72.334,133.729,67.438,133.729z"/>
<g>
</g>
<g>
</g>
<g>
</g>
<g>
</g>
<g>
</g>
<g>
</g>
<g>
</g>
<g>
</g>
<g>
</g>
<g>
</g>
<g>
</g>
<g>
</g>
<g>
</g>
<g>
</g>
<g>
</g>
</svg>
