<?xml version="1.0" encoding="iso-8859-1"?>
<!-- Generator: Adobe Illustrator 19.0.0, SVG Export Plug-In . SVG Version: 6.00 Build 0)  -->
<svg version="1.1" id="Layer_1" xmlns="http://www.w3.org/2000/svg" xmlns:xlink="http://www.w3.org/1999/xlink" x="0px" y="0px"
	 viewBox="0 0 512 512" style="enable-background:new 0 0 512 512;" xml:space="preserve">
<g>
	<g>
		<g>
			<path d="M490.667,383.701H21.333C9.536,383.701,0,393.259,0,405.035v85.333c0,11.776,9.536,21.333,21.333,21.333h469.333
				c11.797,0,21.333-9.557,21.333-21.333v-85.333C512,393.259,502.464,383.701,490.667,383.701z"/>
			<path d="M42.667,170.368H64v149.333c0,11.776,9.536,21.333,21.333,21.333h85.333c11.797,0,21.333-9.557,21.333-21.333V170.368
				h21.333c7.872,0,15.104-4.331,18.816-11.264c3.712-6.955,3.285-15.36-1.067-21.909l-85.333-128
				c-7.915-11.861-27.584-11.861-35.499,0l-85.333,128c-4.352,6.549-4.779,14.955-1.067,21.909
				C27.563,166.037,34.795,170.368,42.667,170.368z"/>
			<path d="M298.667,170.368H320v149.333c0,11.776,9.536,21.333,21.333,21.333h85.333c11.797,0,21.333-9.557,21.333-21.333V170.368
				h21.333c7.872,0,15.104-4.331,18.816-11.264c3.712-6.955,3.285-15.36-1.067-21.909l-85.333-128
				c-7.915-11.861-27.584-11.861-35.499,0l-85.333,128c-4.352,6.549-4.779,14.955-1.067,21.909
				C283.563,166.037,290.795,170.368,298.667,170.368z"/>
		</g>
	</g>
</g>
<g>
</g>
<g>
</g>
<g>
</g>
<g>
</g>
<g>
</g>
<g>
</g>
<g>
</g>
<g>
</g>
<g>
</g>
<g>
</g>
<g>
</g>
<g>
</g>
<g>
</g>
<g>
</g>
<g>
</g>
</svg>
