<?xml version="1.0" encoding="iso-8859-1"?>
<!-- Generator: Adobe Illustrator 19.0.0, SVG Export Plug-In . SVG Version: 6.00 Build 0)  -->
<svg version="1.1" id="Layer_1" xmlns="http://www.w3.org/2000/svg" xmlns:xlink="http://www.w3.org/1999/xlink" x="0px" y="0px"
	 viewBox="0 0 512 512" style="enable-background:new 0 0 512 512;" xml:space="preserve">
<g>
	<path style="fill:#EAC36E;" d="M62.346,417.714v48.693H23.82l6.782-10.807c4.35-6.92,3.172-16.173-3.159-21.35
		c-4.777-3.924-7.836-9.867-7.836-16.536"/>
	<path style="fill:#EAC36E;" d="M492.386,417.714c0,6.67-3.059,12.612-7.836,16.536c-6.331,5.178-7.51,14.43-3.159,21.35
		l6.783,10.807h-38.526v-48.693"/>
</g>
<rect x="32.822" y="77.216" style="fill:#FCD577;" width="446.34" height="310.139"/>
<g>
	<rect x="32.822" y="86.756" style="fill:#EAC36E;" width="446.34" height="20.498"/>
	<rect x="32.822" y="356.827" style="fill:#EAC36E;" width="446.34" height="20.498"/>
	<path style="fill:#EAC36E;" d="M450.96,344.586H61.035V119.974H450.96V344.586z M79.84,325.781h352.314V138.78H79.84V325.781z"/>
</g>
<g>
	<path style="fill:#FCD577;" d="M0,393.993v24.974h511.995v-24.974c-11.707,0-21.197-9.49-21.197-21.197h-469.6
		C21.197,384.502,11.707,393.993,0,393.993z"/>
	<path style="fill:#FCD577;" d="M512,45.592v24.974c-11.71,0-21.2,9.49-21.2,21.2H21.204c0-11.71-9.49-21.2-21.2-21.2V45.592
		C0.004,45.592,512,45.592,512,45.592z"/>
</g>
<g>
	<path style="fill:#EAC36E;" d="M512,70.566c-11.71,0-21.2,9.49-21.2,21.2H21.204c0-11.71-9.49-21.2-21.2-21.2H512z"/>
	<path style="fill:#EAC36E;" d="M441.557,241.683H70.438c-5.194,0-9.403-4.21-9.403-9.403c0-5.193,4.209-9.403,9.403-9.403h371.12
		c5.194,0,9.403,4.21,9.403,9.403C450.96,237.473,446.751,241.683,441.557,241.683z"/>
</g>
<g>
	<path style="fill:#BA6B24;" d="M255.992,195.22c-3.757,0-7.236-2.343-8.677-5.805c-1.57-3.77-0.445-8.286,2.718-10.871
		c2.969-2.427,7.206-2.793,10.556-0.933c3.579,1.988,5.495,6.27,4.577,10.26C264.192,192.109,260.357,195.22,255.992,195.22z"/>
	<path style="fill:#BA6B24;" d="M255.992,293.835c-3.933,0-7.512-2.534-8.844-6.232c-1.383-3.843-0.034-8.287,3.25-10.717
		c6.831-5.057,16.683,1.294,14.769,9.613C264.19,290.741,260.356,293.835,255.992,293.835z"/>
</g>
<g>
</g>
<g>
</g>
<g>
</g>
<g>
</g>
<g>
</g>
<g>
</g>
<g>
</g>
<g>
</g>
<g>
</g>
<g>
</g>
<g>
</g>
<g>
</g>
<g>
</g>
<g>
</g>
<g>
</g>
</svg>
