<?xml version="1.0" encoding="iso-8859-1"?>
<!-- Generator: Adobe Illustrator 19.0.0, SVG Export Plug-In . SVG Version: 6.00 Build 0)  -->
<svg version="1.1" id="Layer_1" xmlns="http://www.w3.org/2000/svg" xmlns:xlink="http://www.w3.org/1999/xlink" x="0px" y="0px"
	 viewBox="0 0 512 512" style="enable-background:new 0 0 512 512;" xml:space="preserve">
<path style="fill:#CFDCE5;" d="M351.873,94.594h28.288c0,92.733,21.089,167.913,47.105,167.913v30.225H84.722v-30.225
	c26.004,0,47.094-75.18,47.094-167.913h28.299"/>
<rect x="84.724" y="277.624" style="fill:#BAC6CC;" width="342.542" height="15.112"/>
<ellipse style="fill:#E7F1F7;" cx="255.994" cy="133.358" rx="100.191" ry="133.358"/>
<path style="fill:#ADE6F7;" d="M255.99,233.141c-36.104,0-66.605-45.693-66.605-99.779s30.503-99.78,66.605-99.78
	s66.605,45.694,66.605,99.78S292.094,233.141,255.99,233.141z"/>
<g>
	<path style="fill:#FFFFFF;" d="M190.003,152.284c-1.13,0-2.272-0.338-3.266-1.04c-2.554-1.806-3.16-5.34-1.355-7.894l49.192-69.573
		c1.808-2.553,5.341-3.16,7.895-1.355c2.554,1.806,3.16,5.34,1.355,7.894l-49.192,69.573
		C193.529,151.451,191.78,152.284,190.003,152.284z"/>
	<path style="fill:#FFFFFF;" d="M254.941,60.442c-1.13,0-2.272-0.338-3.266-1.04c-2.554-1.806-3.16-5.34-1.355-7.894l13.646-19.301
		c1.807-2.554,5.341-3.161,7.895-1.355c2.554,1.806,3.16,5.34,1.355,7.894L259.57,58.047
		C258.466,59.608,256.717,60.442,254.941,60.442z"/>
	<path style="fill:#FFFFFF;" d="M200.097,192.463c-1.13,0-2.272-0.338-3.266-1.04c-2.554-1.806-3.16-5.34-1.355-7.894l26.605-37.63
		c1.807-2.554,5.34-3.161,7.895-1.355c2.554,1.806,3.16,5.34,1.355,7.894l-26.605,37.63
		C203.622,191.63,201.873,192.463,200.097,192.463z"/>
	<path style="fill:#FFFFFF;" d="M244.498,129.661c-1.13,0-2.272-0.338-3.266-1.04c-2.554-1.806-3.16-5.34-1.355-7.894l50.287-71.125
		c1.807-2.554,5.34-3.16,7.895-1.355c2.554,1.806,3.16,5.34,1.355,7.894l-50.287,71.125
		C248.023,128.827,246.274,129.661,244.498,129.661z"/>
	<path style="fill:#FFFFFF;" d="M238.606,235.201c-1.13,0-2.272-0.338-3.266-1.04c-2.554-1.806-3.16-5.34-1.355-7.894l64.406-91.088
		c1.808-2.554,5.343-3.159,7.895-1.355c2.554,1.806,3.16,5.34,1.355,7.894l-64.406,91.088
		C242.131,234.367,240.381,235.201,238.606,235.201z"/>
</g>
<g>
	<path style="fill:#CFDCE5;" d="M255.989,239.371c-19.61,0-38.085-11.498-52.023-32.378c-13.421-20.106-20.812-46.254-20.812-73.631
		s7.391-53.526,20.812-73.631c13.938-20.88,32.413-32.378,52.023-32.378c19.611,0,38.086,11.498,52.024,32.378
		c13.422,20.106,20.813,46.254,20.813,73.631s-7.391,53.526-20.813,73.631C294.075,227.873,275.6,239.371,255.989,239.371z
		 M255.989,39.813c-15.312,0-30.107,9.531-41.659,26.836c-11.894,17.818-18.715,42.135-18.715,66.714s6.821,48.896,18.715,66.713
		c11.552,17.306,26.346,26.836,41.659,26.836s30.108-9.531,41.66-26.836c11.894-17.817,18.715-42.134,18.715-66.713
		s-6.821-48.896-18.715-66.714C286.097,49.342,271.302,39.813,255.989,39.813z"/>
	<rect x="150.083" y="327.601" style="fill:#CFDCE5;" width="211.823" height="54.128"/>
</g>
<rect x="150.083" y="316.273" style="fill:#BAC6CC;" width="211.823" height="27.064"/>
<g>
	<path style="fill:#CFDCE5;" d="M107.076,344.817c0,6.321-2.56,12.041-6.706,16.176c-1.495,1.495-3.194,2.787-5.052,3.817
		c-3.296,1.846-7.091,2.888-11.124,2.888c-3.693,0-7.182-0.872-10.274-2.435c-7.476-3.761-12.607-11.497-12.607-20.446
		c0-1.767,0.204-3.489,0.589-5.131c0.963-4.259,3.126-8.054,6.105-11.044c4.146-4.134,9.866-6.695,16.187-6.695
		c6.309,0,12.041,2.56,16.176,6.695c2.99,2.99,5.154,6.785,6.117,11.044C106.872,341.328,107.076,343.05,107.076,344.817z"/>
	<path style="fill:#CFDCE5;" d="M105.605,512H74.11l-9.654-127.811C63.553,372.233,73.01,362.034,85,362.034l0,0
		c11.38,0,20.603,9.224,20.603,20.603V512H105.605z"/>
</g>
<path style="fill:#BAC6CC;" d="M83.764,365.276c-0.009-0.005-0.018-0.008-0.026-0.012c-7.476-3.761-12.607-11.497-12.607-20.446
	c0-1.767,0.204-3.489,0.589-5.131c0.963-4.259,3.126-8.054,6.105-11.044c3.039-3.03,6.928-5.203,11.275-6.153
	c-1.582-0.347-3.222-0.541-4.906-0.541c-6.321,0-12.041,2.56-16.187,6.695c-2.979,2.99-5.143,6.785-6.105,11.044
	c-0.385,1.642-0.589,3.364-0.589,5.131c0,8.949,5.131,16.685,12.607,20.446c0.009,0.005,0.018,0.008,0.026,0.012
	c-6.166,3.936-10.086,11.033-9.491,18.913L74.11,512h9.817l-9.654-127.811C73.678,376.308,77.599,369.212,83.764,365.276z"/>
<g>
	<path style="fill:#CFDCE5;" d="M450.671,344.817c0,8.949-5.131,16.685-12.607,20.446c-3.092,1.563-6.581,2.435-10.274,2.435
		c-4.033,0-7.827-1.042-11.112-2.888c-1.858-1.031-3.568-2.322-5.063-3.817c-4.135-4.134-6.695-9.855-6.695-16.176
		c0-1.767,0.204-3.489,0.589-5.131c0.963-4.259,3.126-8.054,6.105-11.044c4.146-4.134,9.855-6.695,16.176-6.695
		c6.321,0,12.041,2.56,16.176,6.695c2.99,2.99,5.154,6.785,6.117,11.044C450.467,341.328,450.671,343.05,450.671,344.817z"/>
	<path style="fill:#CFDCE5;" d="M406.384,512h31.495l9.654-127.811c0.903-11.956-8.554-22.155-20.545-22.155l0,0
		c-11.38,0-20.603,9.224-20.603,20.603V512H406.384z"/>
</g>
<g>
	<path style="fill:#BAC6CC;" d="M428.012,364.814c-0.002-0.001-0.005-0.002-0.006-0.003c-1.858-1.031-3.568-2.322-5.063-3.817
		c-4.135-4.135-6.695-9.855-6.695-16.176c0-1.767,0.204-3.489,0.589-5.131c0.963-4.259,3.126-8.054,6.105-11.044
		c2.861-2.853,6.477-4.93,10.513-5.959c-1.815-0.462-3.705-0.735-5.665-0.735c-6.321,0-12.03,2.56-16.176,6.695
		c-2.979,2.99-5.143,6.785-6.105,11.044c-0.385,1.642-0.589,3.364-0.589,5.131c0,6.321,2.56,12.041,6.695,16.176
		c1.495,1.495,3.206,2.787,5.063,3.817c0.002,0.001,0.005,0.002,0.006,0.003c-6.151,3.564-10.3,10.203-10.3,17.824V512h11.327
		V382.637C417.712,375.016,421.86,368.377,428.012,364.814z"/>
	<path style="fill:#BAC6CC;" d="M100.37,328.642c2.99,2.99,5.154,6.785,6.117,11.044H61.902c0.963-4.259,3.126-8.054,6.105-11.044
		c4.146-4.134,9.866-6.695,16.187-6.695C90.504,321.947,96.236,324.507,100.37,328.642z"/>
	<path style="fill:#BAC6CC;" d="M450.082,339.686h-44.573c0.963-4.259,3.126-8.054,6.105-11.044
		c4.146-4.134,9.855-6.695,16.176-6.695c6.321,0,12.041,2.56,16.176,6.695C446.956,331.632,449.119,335.427,450.082,339.686z"/>
</g>
<rect x="50.379" y="288.396" style="fill:#CFDCE5;" width="411.242" height="39.208"/>
<path style="fill:#BAC6CC;" d="M255.998,363.168c-3.549,0-6.809-2.301-8.002-5.638c-1.244-3.481-0.033-7.481,2.936-9.682
	c2.835-2.102,6.842-2.214,9.778-0.244c3.006,2.017,4.437,5.836,3.464,9.328C263.162,360.561,259.782,363.168,255.998,363.168z"/>
<g>
</g>
<g>
</g>
<g>
</g>
<g>
</g>
<g>
</g>
<g>
</g>
<g>
</g>
<g>
</g>
<g>
</g>
<g>
</g>
<g>
</g>
<g>
</g>
<g>
</g>
<g>
</g>
<g>
</g>
</svg>
