<?xml version="1.0" encoding="iso-8859-1"?>
<!-- Generator: Adobe Illustrator 19.0.0, SVG Export Plug-In . SVG Version: 6.00 Build 0)  -->
<svg version="1.1" id="Layer_1" xmlns="http://www.w3.org/2000/svg" xmlns:xlink="http://www.w3.org/1999/xlink" x="0px" y="0px"
	 viewBox="0 0 464.037 464.037" style="enable-background:new 0 0 464.037 464.037;" xml:space="preserve">
<g transform="translate(0 -1020.36)" shape-rendering="auto" image-rendering="auto" color-rendering="auto" color-interpolation="sRGB">
	<g>
		<path style="fill:#464C63;" d="M231.893,1388.313c-4.418,0-7.944,3.424-7.875,7.506c0,29.955,0,53.182,0,81.082
			c-0.154,9.994,16.153,9.994,16,0c0.004-27.643,0-57.055,0-81.082C240.089,1391.647,236.41,1388.249,231.893,1388.313
			L231.893,1388.313z"/>
		<path style="fill:#464C63;" d="M232.178,1020.36c-0.537-0.001-1.073,0.053-1.6,0.16c-2.473,0.47-4.58,2.079-5.688,4.343
			l-7.906,15.938l-17.594,2.501c-4.374,0.604-7.432,4.644-6.829,9.024c0.244,1.774,1.075,3.415,2.36,4.661l12.718,12.438l-3,17.531
			c-0.733,4.361,2.203,8.49,6.557,9.225c1.71,0.289,3.467,0.012,5.006-0.787l15.749-8.217l15.75,8.279
			c3.911,2.053,8.743,0.543,10.793-3.373c0.814-1.555,1.095-3.334,0.8-5.064l-2.968-17.5l12.749-12.438
			c3.163-3.085,3.23-8.154,0.15-11.322c-1.222-1.257-2.822-2.076-4.555-2.334l-17.626-2.594l-7.813-16
			c-1.328-2.701-4.057-4.428-7.062-4.469L232.178,1020.36z"/>
	</g>
	<path style="fill:#FFB900;" d="M232.018,1046.485l2.531,5.188c1.16,2.376,3.417,4.025,6.03,4.406l5.688,0.848l-4.125,4
		c-1.891,1.838-2.756,4.492-2.312,7.094l0.944,5.688l-5.062-2.688c-2.337-1.236-5.132-1.236-7.469,0l-5.126,2.719l0.992-5.719
		c0.452-2.596-0.401-5.25-2.28-7.094l-4.157-4.031l5.718-0.848c2.619-0.365,4.889-2.003,6.062-4.376L232.018,1046.485z"/>
	<path style="fill:#464C63;" d="M232.303,1108.391c-0.272-0.014-0.544-0.014-0.816,0c-2.346,0.152-4.506,1.33-5.906,3.219
		l-73.845,99.748c-2.623,3.557-1.866,8.564,1.69,11.188c1.375,1.016,3.04,1.563,4.749,1.563h20.374l-54.344,68.625
		c-2.744,3.463-2.16,8.496,1.304,11.24c1.416,1.121,3.171,1.73,4.978,1.729h38.563l-63.251,77.625
		c-2.796,3.422-2.288,8.463,1.134,11.258c1.435,1.172,3.232,1.811,5.085,1.805h240c4.419,0.014,8.011-3.559,8.024-7.979
		c0.005-1.852-0.632-3.648-1.805-5.084l-63.25-77.625h38.562c4.419,0.006,8.005-3.572,8.011-7.99
		c0.002-1.807-0.607-3.563-1.729-4.979l-54.344-68.625h20.376c4.419-0.002,8-3.584,7.999-8.002c0-1.709-0.548-3.373-1.562-4.748
		l-73.843-99.748c-1.448-1.967-3.716-3.164-6.157-3.252L232.303,1108.391z M232.015,1129.86l57.97,78.281h-21.032
		c-4.419-0.006-8.005,3.572-8.011,7.99c-0.002,1.807,0.607,3.563,1.729,4.979l54.344,68.623h-38.843
		c-4.419-0.014-8.011,3.559-8.024,7.979c-0.005,1.852,0.632,3.648,1.805,5.084l63.25,77.625H128.828l63.25-77.625
		c2.796-3.422,2.288-8.463-1.134-11.258c-1.435-1.172-3.232-1.811-5.085-1.805h-38.843l54.344-68.623
		c2.744-3.463,2.16-8.496-1.304-11.24c-1.416-1.121-3.171-1.73-4.978-1.729h-21.03L232.015,1129.86z"/>
</g>
<g>
</g>
<g>
</g>
<g>
</g>
<g>
</g>
<g>
</g>
<g>
</g>
<g>
</g>
<g>
</g>
<g>
</g>
<g>
</g>
<g>
</g>
<g>
</g>
<g>
</g>
<g>
</g>
<g>
</g>
</svg>
