<?xml version="1.0" encoding="iso-8859-1"?>
<!-- Generator: Adobe Illustrator 19.0.0, SVG Export Plug-In . SVG Version: 6.00 Build 0)  -->
<svg version="1.1" id="Layer_1" xmlns="http://www.w3.org/2000/svg" xmlns:xlink="http://www.w3.org/1999/xlink" x="0px" y="0px"
	 viewBox="0 0 512 512" style="enable-background:new 0 0 512 512;" xml:space="preserve">
<g>
	<g>
		<path d="M453.213,157.975C421.167,63.5,332.567,0,232.727,0C104.401,0,0,104.401,0,232.727
			c0,115.153,82.42,211.817,195.991,229.83c0.605,0.105,1.21,0.151,1.827,0.151c2.746,0,5.434-0.977,7.552-2.781
			c2.595-2.211,4.084-5.446,4.084-8.844v-7.366c0-4.108-2.153-7.913-5.679-9.996c-23.331-13.929-43.904-44.393-57.67-84.62h74.985
			v34.909c0,6.435,5.213,11.636,11.636,11.636s11.636-5.213,11.636-11.648v-34.909c6.423,0,11.636-5.201,11.636-11.636
			c0-6.435-5.213-11.636-11.636-11.636v-81.455H256c6.423,0,11.636-5.201,11.636-11.636c0-6.435-5.213-11.636-11.636-11.636h-11.636
			v-81.455h81.955c1.164,4.573,2.246,9.239,3.235,13.999c1.292,6.284,7.447,10.321,13.766,9.007
			c6.295-1.303,10.333-7.482,9.007-13.766c-0.663-3.154-1.431-6.179-2.153-9.251h70.121c4.119,8.308,7.831,16.873,10.868,25.833
			c2.071,6.074,8.681,9.367,14.767,7.284C452.003,170.671,455.273,164.073,453.213,157.975z M164.713,34.828
			c-17.955,20.143-32.815,48.081-43.241,81.536H93.091c-6.423,0-11.636,5.201-11.636,11.636s5.213,11.636,11.636,11.636h21.981
			c-5.853,25.03-9.274,52.492-10.031,81.455H23.866C28.649,134.54,86.063,61.952,164.713,34.828z M164.98,431.057
			c-44.497-15.011-81.548-44.241-106.636-81.966h63.279C132.236,382.999,147.072,411.043,164.98,431.057z M221.091,325.818H44.881
			c-12.218-24.82-19.572-52.375-21.143-81.455h81.396c0.442,16.326,1.536,32.524,3.782,48.198c0.826,5.807,5.807,9.984,11.497,9.984
			c0.547,0,1.105-0.035,1.664-0.116c6.365-0.908,10.787-6.807,9.868-13.172c-2.083-14.592-3.119-29.684-3.549-44.893h92.695V325.818
			z M221.091,221.091h-92.788c0.838-28.963,4.748-56.541,11.136-81.455h81.652V221.091z M244.364,116.364V58.182
			c0-6.435-5.213-11.636-11.636-11.636s-11.636,5.201-11.636,11.636v58.182h-74.845c19.049-55.703,51.049-93.091,86.481-93.091
			c34.572,0,67.223,36.201,86.644,93.103L244.364,116.364z M343.924,116.375c-10.612-34.013-25.647-61.836-43.485-81.792
			c43.357,14.801,80.803,43.52,106.38,81.792H343.924z"/>
	</g>
</g>
<g>
	<g>
		<circle cx="395.625" cy="267.636" r="11.636"/>
	</g>
</g>
<g>
	<g>
		<circle cx="349.079" cy="267.636" r="11.636"/>
	</g>
</g>
<g>
	<g>
		<path d="M453.807,247.494v-3.13c0-32.081-26.1-58.182-58.182-58.182h-46.545c-32.081,0-58.182,26.1-58.182,58.228l0.012,3.072
			c-6.959,4.038-11.648,11.555-11.648,20.154v11.636c0,10.263,6.679,19.002,15.919,22.074c0.209,1.315,0.431,2.63,0.698,3.933
			l2.141,10.671c3.654,18.385,14.278,34.234,29.871,44.625c11.567,7.703,25.018,11.788,38.9,11.788h11.113
			c13.882,0,27.345-4.084,38.9-11.788c15.604-10.38,26.205-26.228,29.882-44.614l2.141-10.671c0.256-1.303,0.489-2.63,0.698-3.945
			c9.239-3.084,15.919-11.823,15.919-22.074v-11.636C465.443,259.037,460.765,251.508,453.807,247.494z M439.226,279.273
			c-5.76,0-10.659,4.212-11.508,9.926l-0.582,4.212c-0.314,2.444-0.64,4.876-1.129,7.308l-2.141,10.682
			c-2.455,12.3-9.542,22.889-19.968,29.812c-7.715,5.155-16.71,7.878-25.984,7.878h-11.113c-9.286,0-18.269-2.723-26.007-7.878
			c-10.426-6.947-17.501-17.524-19.956-29.812l-2.141-10.694c-0.5-2.502-0.826-5.015-1.164-7.517l-0.547-3.956
			c-0.826-5.725-5.737-9.961-11.508-9.961h-2.944l0.047-11.636c6.435,0,11.636-5.201,11.636-11.636l-0.047-11.636
			c0-19.247,15.663-34.909,34.909-34.909h46.545c19.247,0,34.909,15.663,34.909,34.909l0.012,10.321
			c-0.023,0.279-0.058,1.036-0.058,1.315c0,6.435,5.201,11.636,11.636,11.636l0.047,11.636H439.226z"/>
	</g>
</g>
<g>
	<g>
		<path d="M383.988,302.545h-23.273c-6.435,0-11.636,5.201-11.636,11.636c0,6.435,5.201,11.636,11.636,11.636h23.273
			c6.435,0,11.636-5.201,11.636-11.636C395.625,307.747,390.423,302.545,383.988,302.545z"/>
	</g>
</g>
<g>
	<g>
		<path d="M467.922,410.438l-57.844-14.452c-0.919-0.233-1.862-0.349-2.816-0.349h-69.818c-0.954,0-1.897,0.116-2.816,0.349
			l-57.833,14.452c-25.949,6.493-44.067,29.696-44.067,56.448v33.478c0,6.435,5.213,11.636,11.636,11.636S256,506.799,256,500.364
			v-33.478c0-16.047,10.868-29.975,26.426-33.873l56.448-14.103h66.956l56.46,14.103c15.558,3.898,26.438,17.827,26.438,33.873
			v21.841H383.988L384,453.818c0-6.423-5.201-11.636-11.636-11.636c-6.423,0-11.636,5.201-11.636,11.636l-0.012,34.909h-69.807
			c-6.435,0-11.636,5.201-11.636,11.636S284.474,512,290.909,512h209.455c6.435,0,11.636-5.201,11.636-11.636v-33.478
			C512,440.134,493.871,416.931,467.922,410.438z"/>
	</g>
</g>
<g>
</g>
<g>
</g>
<g>
</g>
<g>
</g>
<g>
</g>
<g>
</g>
<g>
</g>
<g>
</g>
<g>
</g>
<g>
</g>
<g>
</g>
<g>
</g>
<g>
</g>
<g>
</g>
<g>
</g>
</svg>
