<?xml version="1.0" encoding="iso-8859-1"?>
<!-- Generator: Adobe Illustrator 19.0.0, SVG Export Plug-In . SVG Version: 6.00 Build 0)  -->
<svg version="1.1" id="Layer_1" xmlns="http://www.w3.org/2000/svg" xmlns:xlink="http://www.w3.org/1999/xlink" x="0px" y="0px"
	 viewBox="0 0 512.002 512.002" style="enable-background:new 0 0 512.002 512.002;" xml:space="preserve">
<g>
	<g>
		<path d="M502.708,238.041l-75.084-53.129l15.525-90.662c1.203-7.025-1.088-14.228-6.128-19.27c-5.04-5.04-12.248-7.33-19.27-6.128
			L327.09,84.376L273.96,9.293C269.843,3.474,263.129,0,256.002,0c-7.128,0-13.842,3.474-17.958,9.293l-53.13,75.084L94.251,68.853
			c-7.022-1.201-14.23,1.087-19.271,6.128c-5.039,5.04-7.331,12.244-6.128,19.27l15.524,90.662L9.294,238.041
			C3.475,242.158,0.001,248.872,0.001,256s3.474,13.842,9.294,17.959l75.083,53.129L68.853,417.75
			c-1.203,7.025,1.088,14.229,6.128,19.27c4.156,4.156,9.783,6.443,15.569,6.443c1.231,0,2.47-0.103,3.702-0.314l90.661-15.524
			l53.13,75.084c4.116,5.818,10.831,9.293,17.958,9.293c7.128,0,13.842-3.474,17.958-9.293l53.13-75.084l90.661,15.524
			c1.233,0.211,2.47,0.314,3.702,0.314c5.785,0,11.413-2.286,15.569-6.443c5.039-5.04,7.331-12.244,6.128-19.27l-15.525-90.662
			l75.084-53.129c5.819-4.117,9.293-10.831,9.293-17.959C512,248.872,508.527,242.159,502.708,238.041z M76.88,302.224
			l-58.364-41.299c-1.62-1.146-2.549-2.941-2.549-4.925s0.929-3.779,2.549-4.925l58.364-41.298
			c-3.816,14.78-5.847,30.269-5.847,46.224S73.064,287.445,76.88,302.224z M251.076,18.515c1.146-1.619,2.941-2.548,4.925-2.548
			s3.779,0.929,4.925,2.548l41.298,58.365c-14.78-3.816-30.269-5.848-46.224-5.848s-31.445,2.031-46.225,5.848L251.076,18.515z
			 M86.272,86.27c1.402-1.403,3.324-2.018,5.285-1.681l70.584,12.086c-26.951,15.938-49.526,38.513-65.464,65.464L84.591,91.555
			C84.257,89.6,84.869,87.674,86.272,86.27z M91.557,427.409c-1.955,0.336-3.882-0.277-5.285-1.681
			c-1.403-1.403-2.016-3.329-1.681-5.285l12.086-70.585c15.938,26.951,38.513,49.526,65.464,65.464L91.557,427.409z
			 M260.927,493.485c-1.146,1.619-2.941,2.548-4.925,2.548s-3.779-0.929-4.925-2.548l-41.3-58.365
			c14.78,3.816,30.269,5.848,46.225,5.848c15.955,0,31.445-2.031,46.224-5.848L260.927,493.485z M256.002,425.002
			C162.814,425.002,87,349.188,87,256S162.814,86.998,256.002,86.998s169,75.814,169,169.002S349.188,425.002,256.002,425.002z
			 M425.73,425.73c-1.402,1.403-3.326,2.017-5.285,1.681l-70.584-12.086c26.951-15.938,49.526-38.513,65.464-65.464l12.086,70.585
			C427.745,422.4,427.133,424.326,425.73,425.73z M427.411,91.555l-12.086,70.585c-15.938-26.951-38.513-49.526-65.464-65.464
			l70.584-12.086c1.961-0.335,3.883,0.278,5.285,1.681C427.133,87.674,427.745,89.6,427.411,91.555z M493.486,260.925
			l-58.364,41.298c3.816-14.78,5.847-30.269,5.847-46.224s-2.031-31.445-5.847-46.224l58.364,41.298
			c1.62,1.146,2.548,2.942,2.548,4.925C496.034,257.983,495.106,259.78,493.486,260.925z"/>
	</g>
</g>
<g>
</g>
<g>
</g>
<g>
</g>
<g>
</g>
<g>
</g>
<g>
</g>
<g>
</g>
<g>
</g>
<g>
</g>
<g>
</g>
<g>
</g>
<g>
</g>
<g>
</g>
<g>
</g>
<g>
</g>
</svg>
