<?xml version="1.0" encoding="iso-8859-1"?>
<!-- Generator: Adobe Illustrator 18.1.1, SVG Export Plug-In . SVG Version: 6.00 Build 0)  -->
<svg version="1.1" id="Capa_1" xmlns="http://www.w3.org/2000/svg" xmlns:xlink="http://www.w3.org/1999/xlink" x="0px" y="0px"
	 viewBox="0 0 41.85 41.85" style="enable-background:new 0 0 41.85 41.85;" xml:space="preserve">
<g>
	<path style="fill:#010002;" d="M30.914,30.913c0,0-1.326-9.307-6-13.979c-4.672-4.672-13.979-6-13.979-6s1.326,9.308,5.996,13.981
		C21.605,29.587,30.914,30.913,30.914,30.913z M19.301,19.301c0.896-0.896,2.35-0.896,3.246,0c0.896,0.897,0.896,2.349,0,3.246
		c-0.895,0.897-2.35,0.898-3.246,0C18.404,21.65,18.406,20.197,19.301,19.301z"/>
	<path style="fill:#010002;" d="M20.926,41.848c11.555,0,20.924-9.368,20.924-20.924c0-11.555-9.369-20.923-20.924-20.923
		C9.369,0.002,0,9.37,0,20.924C0,32.48,9.369,41.848,20.926,41.848z M20.926,3.967c9.363,0,16.955,7.591,16.955,16.958
		c0,9.365-7.592,16.958-16.955,16.958c-9.365,0-16.959-7.594-16.959-16.958C3.967,11.558,11.56,3.967,20.926,3.967z"/>
</g>
<g>
</g>
<g>
</g>
<g>
</g>
<g>
</g>
<g>
</g>
<g>
</g>
<g>
</g>
<g>
</g>
<g>
</g>
<g>
</g>
<g>
</g>
<g>
</g>
<g>
</g>
<g>
</g>
<g>
</g>
</svg>
