<?xml version="1.0" encoding="iso-8859-1"?>
<!-- Generator: Adobe Illustrator 19.0.0, SVG Export Plug-In . SVG Version: 6.00 Build 0)  -->
<svg version="1.1" id="Layer_1" xmlns="http://www.w3.org/2000/svg" xmlns:xlink="http://www.w3.org/1999/xlink" x="0px" y="0px"
	 viewBox="0 0 496 496" style="enable-background:new 0 0 496 496;" xml:space="preserve">
<g>
	<g>
		<g>
			<path d="M232,80c0-13.232-10.768-24-24-24s-24,10.768-24,24s10.768,24,24,24S232,93.232,232,80z M200,80c0-4.416,3.584-8,8-8
				s8,3.584,8,8s-3.584,8-8,8S200,84.416,200,80z"/>
			<path d="M288,104c13.232,0,24-10.768,24-24s-10.768-24-24-24s-24,10.768-24,24S274.768,104,288,104z M288,72c4.416,0,8,3.584,8,8
				s-3.584,8-8,8c-4.416,0-8-3.584-8-8S283.584,72,288,72z"/>
			<path d="M272,120c0,13.232-10.768,24-24,24c-13.232,0-24-10.768-24-24h-16c0,22.056,17.944,40,40,40c22.056,0,40-17.944,40-40
				H272z"/>
			<path d="M439.768,211.312C437.464,187.024,415.72,168,390.28,168h-78.896C331.904,150.04,344,124.048,344,96
				c0-52.936-43.064-96-96-96s-96,43.064-96,96c0,28.048,12.096,54.04,32.616,72H105.72c-25.44,0-47.176,19.024-49.488,43.312
				c-1.288,13.512,3.168,26.992,12.248,36.968C77.56,258.272,90.512,264,104,264h64v29.824L95.328,417.352
				c-2.896,4.936-4.912,9.888-5.992,14.712c-3.544,15.824,0.128,32.008,10.056,44.416c9.936,12.4,24.744,19.52,40.624,19.52h1.48
				c19.32,0,36.928-10.608,45.968-27.68l55.856-105.504c1.84-3.472,7.504-3.472,9.344,0l55.952,105.688
				c8.992,16.96,26.496,27.496,45.68,27.496c22.056,0,41.52-12.456,49.592-31.72c6.36-15.144,5.208-32.584-3.072-46.664L328,293.824
				V264h64c13.496,0,26.44-5.728,35.52-15.72C436.6,238.304,441.056,224.824,439.768,211.312z M129.584,224l-24,16l12,8H104
				c-9,0-17.624-3.824-23.688-10.48c-6.136-6.76-9.032-15.52-8.16-24.696C73.696,196.664,88.44,184,105.72,184h11.864l12,8l-24,16
				L129.584,224z M173.328,460.832C167.072,472.656,154.872,480,141.504,480h-1.48c-10.992,0-21.248-4.928-28.136-13.52
				c-6.88-8.6-9.416-19.864-6.936-30.92c0.72-3.2,2.128-6.6,4.176-10.096l15.664-26.624L136,395.104v33.84l32-16v30.16l17.872-5.96
				L173.328,460.832z M360,395.104l11.208,3.728l15.816,26.896c5.824,9.896,6.592,21.696,2.12,32.368
				C383.648,471.192,369.648,480,354.296,480c-13.248,0-25.328-7.272-31.528-18.984l-12.64-23.872l17.872,5.96v-30.16l32,16V395.104
				z M361.576,240l-12,8H312v50.176l46.864,79.68L344,372.896v30.16l-32-16v33.84l-12.712-4.232l-32.472-61.336
				C263.112,348.344,255.904,344,248,344s-15.112,4.344-18.816,11.328l-32.472,61.336L184,420.896v-33.84l-32,16v-30.16
				l-14.872,4.96L184,298.176V248h-37.576l-12-8l24-16l-24-16l24-16l-12-8H216v-14.64l-4.352-2.232
				C184.728,153.344,168,126.096,168,96c0-44.112,35.888-80,80-80s80,35.888,80,80c0,30.096-16.728,57.344-43.648,71.128L280,169.36
				V184h69.576l-12,8l24,16l-24,16L361.576,240z M415.68,237.528C409.624,244.176,401,248,392,248h-13.576l12-8l-24-16l24-16l-24-16
				l12-8h11.856c17.28,0,32.024,12.664,33.568,28.832C424.712,222,421.816,230.768,415.68,237.528z"/>
			<path d="M248,184c-13.232,0-24,10.768-24,24s10.768,24,24,24c13.232,0,24-10.768,24-24S261.232,184,248,184z M248,216
				c-4.416,0-8-3.584-8-8s3.584-8,8-8s8,3.584,8,8S252.416,216,248,216z"/>
			<path d="M248,248c-13.232,0-24,10.768-24,24s10.768,24,24,24c13.232,0,24-10.768,24-24S261.232,248,248,248z M248,280
				c-4.416,0-8-3.584-8-8c0-4.416,3.584-8,8-8s8,3.584,8,8C256,276.416,252.416,280,248,280z"/>
		</g>
	</g>
</g>
<g>
</g>
<g>
</g>
<g>
</g>
<g>
</g>
<g>
</g>
<g>
</g>
<g>
</g>
<g>
</g>
<g>
</g>
<g>
</g>
<g>
</g>
<g>
</g>
<g>
</g>
<g>
</g>
<g>
</g>
</svg>
