<?xml version="1.0" encoding="iso-8859-1"?>
<!-- Generator: Adobe Illustrator 19.0.0, SVG Export Plug-In . SVG Version: 6.00 Build 0)  -->
<svg version="1.1" id="Layer_1" xmlns="http://www.w3.org/2000/svg" xmlns:xlink="http://www.w3.org/1999/xlink" x="0px" y="0px"
	 viewBox="0 0 470.17 470.17" style="enable-background:new 0 0 470.17 470.17;" xml:space="preserve">
<g transform="translate(0 1)">
	<polygon style="fill:#FFE100;" points="214.095,259.273 214.095,360.024 214.095,385.211 214.095,410.399 54.573,410.399 
		54.573,460.774 457.576,460.774 457.576,259.273 	"/>
	<g>
		<polygon style="fill:#FFA800;" points="121.74,410.399 214.095,410.399 214.095,7.396 121.74,7.396 		"/>
		<polygon style="fill:#FFA800;" points="432.389,460.774 457.576,460.774 457.576,259.273 432.389,259.273 		"/>
	</g>
	<polygon style="fill:#FFFFFF;" points="12.594,410.399 104.949,410.399 104.949,7.396 12.594,7.396 	"/>
	<polygon style="fill:#FFE100;" points="37.782,410.399 188.908,410.399 188.908,7.396 37.782,7.396 	"/>
	<path d="M214.095,418.795H12.594c-4.637,0-8.396-3.755-8.396-8.396V133.334c0-4.637,3.759-8.396,8.396-8.396
		s8.396,3.759,8.396,8.396v268.669H205.7V15.792H20.99v50.375c0,4.637-3.759,8.396-8.396,8.396s-8.396-3.759-8.396-8.396V7.396
		C4.198,2.759,7.957-1,12.594-1h201.501c4.637,0,8.396,3.759,8.396,8.396v403.003C222.491,415.04,218.732,418.795,214.095,418.795z"
		/>
	<path d="M20.99,99.751c0,4.635-3.761,8.396-8.396,8.396s-8.396-3.761-8.396-8.396s3.761-8.396,8.396-8.396
		S20.99,95.116,20.99,99.751"/>
	<path d="M214.095,217.293H12.594c-4.637,0-8.396-3.759-8.396-8.396s3.759-8.396,8.396-8.396h201.501
		c4.637,0,8.396,3.759,8.396,8.396S218.732,217.293,214.095,217.293z"/>
	<path d="M54.573,66.167c0,9.277,7.514,16.792,16.792,16.792s16.792-7.514,16.792-16.792s-7.514-16.792-16.792-16.792
		S54.573,56.89,54.573,66.167"/>
	<path d="M138.532,150.126c0,9.277,7.514,16.792,16.792,16.792c9.277,0,16.792-7.514,16.792-16.792
		c0-9.277-7.514-16.792-16.792-16.792C146.047,133.334,138.532,140.849,138.532,150.126"/>
	<path d="M54.573,267.669c0,9.277,7.514,16.792,16.792,16.792s16.792-7.514,16.792-16.792s-7.514-16.792-16.792-16.792
		S54.573,258.391,54.573,267.669"/>
	<path d="M96.553,309.648c0,9.277,7.514,16.792,16.792,16.792s16.792-7.514,16.792-16.792c0-9.277-7.514-16.792-16.792-16.792
		S96.553,300.371,96.553,309.648"/>
	<path d="M54.573,351.628c0,9.277,7.514,16.792,16.792,16.792s16.792-7.514,16.792-16.792s-7.514-16.792-16.792-16.792
		S54.573,342.35,54.573,351.628"/>
	<path d="M138.532,351.628c0,9.277,7.514,16.792,16.792,16.792c9.277,0,16.792-7.514,16.792-16.792s-7.514-16.792-16.792-16.792
		C146.047,334.836,138.532,342.35,138.532,351.628"/>
	<path d="M138.532,267.669c0,9.277,7.514,16.792,16.792,16.792c9.277,0,16.792-7.514,16.792-16.792s-7.514-16.792-16.792-16.792
		C146.047,250.877,138.532,258.391,138.532,267.669"/>
	<path d="M256.075,469.17c-4.641,0-8.396-3.755-8.396-8.396V259.273c0-4.641,3.755-8.396,8.396-8.396
		c4.641,0,8.396,3.755,8.396,8.396v201.501C264.471,465.415,260.716,469.17,256.075,469.17z"/>
	<path d="M398.805,301.252c-9.277,0-16.792,7.514-16.792,16.792s7.514,16.792,16.792,16.792s16.792-7.514,16.792-16.792
		S408.083,301.252,398.805,301.252"/>
	<path d="M314.846,385.211c-9.277,0-16.792,7.514-16.792,16.792s7.514,16.792,16.792,16.792s16.792-7.514,16.792-16.792
		S324.124,385.211,314.846,385.211"/>
	<path d="M356.826,343.232c-9.277,0-16.792,7.514-16.792,16.792c0,9.277,7.514,16.792,16.792,16.792s16.792-7.514,16.792-16.792
		C373.617,350.746,366.103,343.232,356.826,343.232"/>
	<path d="M457.576,469.17H54.569c-4.637,0-8.396-3.755-8.396-8.396v-50.375c0-4.641,3.759-8.396,8.396-8.396h151.126v-142.73
		c0-4.641,3.759-8.396,8.396-8.396h109.151c4.641,0,8.396,3.755,8.396,8.396s-3.755,8.396-8.396,8.396H222.487v142.73
		c0,4.641-3.759,8.396-8.396,8.396H62.965v33.584H449.18v-184.71h-58.763c-4.641,0-8.396-3.755-8.396-8.396
		c0-4.641,3.755-8.396,8.396-8.396h67.159c4.641,0,8.396,3.755,8.396,8.396v201.501C465.972,465.415,462.217,469.17,457.576,469.17z
		"/>
	<path d="M365.221,259.273c0,4.635-3.761,8.396-8.396,8.396s-8.396-3.761-8.396-8.396c0-4.635,3.761-8.396,8.396-8.396
		S365.221,254.638,365.221,259.273"/>
</g>
<g>
</g>
<g>
</g>
<g>
</g>
<g>
</g>
<g>
</g>
<g>
</g>
<g>
</g>
<g>
</g>
<g>
</g>
<g>
</g>
<g>
</g>
<g>
</g>
<g>
</g>
<g>
</g>
<g>
</g>
</svg>
