<?xml version="1.0" encoding="iso-8859-1"?>
<!-- Generator: Adobe Illustrator 19.0.0, SVG Export Plug-In . SVG Version: 6.00 Build 0)  -->
<svg version="1.1" id="Layer_1" xmlns="http://www.w3.org/2000/svg" xmlns:xlink="http://www.w3.org/1999/xlink" x="0px" y="0px"
	 viewBox="0 0 512 512" style="enable-background:new 0 0 512 512;" xml:space="preserve">
<g>
	<g>
		<path d="M239.21,470.94L16.994,292.395c-3.134-2.516-7.436-3.015-11.061-1.277S0,296.52,0,300.541v178.545
			c0,5.77,4.678,10.449,10.449,10.449h222.215c4.433,0,8.384-2.798,9.857-6.98C243.993,478.372,242.666,473.717,239.21,470.94z
			 M20.898,468.637V322.34l182.079,146.297H20.898z"/>
	</g>
</g>
<g>
	<g>
		<path d="M506.067,291.118c-3.625-1.738-7.927-1.24-11.061,1.277L272.79,470.94c-3.457,2.777-4.784,7.432-3.311,11.615
			c1.472,4.182,5.423,6.98,9.857,6.98h222.215c5.771,0,10.449-4.679,10.449-10.449V300.541
			C512,296.52,509.693,292.856,506.067,291.118z M491.102,468.637H309.023L491.102,322.34V468.637z"/>
	</g>
</g>
<g>
	<g>
		<path d="M501.551,22.465H279.336c-4.435,0-8.384,2.798-9.857,6.98c-1.472,4.183-0.145,8.838,3.311,11.615l222.215,178.545
			c1.892,1.519,4.209,2.303,6.546,2.303c1.535,0,3.078-0.338,4.515-1.026c3.626-1.739,5.933-5.402,5.933-9.423V32.914
			C512,27.144,507.322,22.465,501.551,22.465z M491.102,189.66L309.023,43.363h182.079V189.66z"/>
	</g>
</g>
<g>
	<g>
		<path d="M242.521,29.445c-1.472-4.182-5.423-6.98-9.857-6.98H10.449C4.678,22.465,0,27.144,0,32.914v178.545
			c0,4.021,2.307,7.684,5.932,9.423c1.437,0.689,2.98,1.026,4.515,1.026c2.337,0,4.655-0.784,6.547-2.303L239.21,41.06
			C242.666,38.283,243.993,33.628,242.521,29.445z M20.898,189.66V43.363h182.079L20.898,189.66z"/>
	</g>
</g>
<g>
	<g>
		<path d="M318.82,368.85h-4.679c-5.771,0-10.449,4.678-10.449,10.449c0,5.77,4.678,10.449,10.449,10.449h4.679
			c5.771,0,10.449-4.679,10.449-10.449C329.269,373.528,324.591,368.85,318.82,368.85z"/>
	</g>
</g>
<g>
	<g>
		<path d="M280.337,368.85H193.18c-5.771,0-10.449,4.678-10.449,10.449c0,5.77,4.678,10.449,10.449,10.449h87.157
			c5.771,0,10.449-4.679,10.449-10.449C290.786,373.528,286.108,368.85,280.337,368.85z"/>
	</g>
</g>
<g>
	<g>
		<path d="M364.669,155.69H147.331c-5.771,0-10.449,4.678-10.449,10.449v179.722c0,5.77,4.678,10.449,10.449,10.449h217.339
			c5.771,0,10.449-4.679,10.449-10.449V166.139C375.118,160.368,370.44,155.69,364.669,155.69z M354.22,335.412H157.78V176.588
			H354.22V335.412z"/>
	</g>
</g>
<g>
</g>
<g>
</g>
<g>
</g>
<g>
</g>
<g>
</g>
<g>
</g>
<g>
</g>
<g>
</g>
<g>
</g>
<g>
</g>
<g>
</g>
<g>
</g>
<g>
</g>
<g>
</g>
<g>
</g>
</svg>
