<?xml version="1.0" encoding="iso-8859-1"?>
<!-- Generator: Adobe Illustrator 19.0.0, SVG Export Plug-In . SVG Version: 6.00 Build 0)  -->
<svg version="1.1" id="Layer_1" xmlns="http://www.w3.org/2000/svg" xmlns:xlink="http://www.w3.org/1999/xlink" x="0px" y="0px"
	 viewBox="0 0 512 512" style="enable-background:new 0 0 512 512;" xml:space="preserve">
<g>
	<g>
		<path d="M300.903,330.117H179.035c9.521-16.666,14.625-35.626,14.625-55.025c0-17.283-14.061-31.343-31.343-31.343
			c-17.283,0-31.343,14.061-31.343,31.343c0,23.104-16.274,42.467-37.959,47.258v-4.59c0-5.77-4.677-10.448-10.448-10.448H10.478
			c-5.769,0-10.448,4.677-10.448,10.448v183.792c0,5.77,4.677,10.448,10.448,10.448h72.089c5.77,0,10.448-4.677,10.448-10.448
			v-0.066h90.199h46.659h0.009c15.905,0,28.843-12.94,28.843-28.844c0-6.986-2.496-13.4-6.644-18.396
			c4.149-4.997,6.644-11.411,6.644-18.397s-2.496-13.399-6.644-18.396c4.149-4.997,6.644-11.41,6.644-18.397
			c0-2.756-0.389-5.422-1.113-7.949h43.289c16.815,0,30.495-13.679,30.495-30.495C331.397,343.796,317.717,330.117,300.903,330.117z
			 M72.12,491.105H20.926V328.208H72.12V491.105z M229.883,480.591h-0.009h-46.659c-4.383,0-7.949-3.566-7.949-7.949
			s3.566-7.949,7.949-7.949h46.659c0.002,0,0.003,0,0.004,0c0.002,0,0.004,0,0.005,0c4.382,0,7.948,3.566,7.948,7.949
			S234.265,480.591,229.883,480.591z M175.266,435.849c0-4.383,3.566-7.949,7.949-7.949h46.66c0.002,0,0.003,0,0.004,0
			c0.002,0,0.004,0,0.005,0c4.382,0,7.948,3.566,7.948,7.948c0.001,4.384-3.565,7.95-7.948,7.95c-0.001,0-0.003,0-0.005,0
			c-0.001,0-0.002,0-0.004,0h-46.66C178.832,443.797,175.266,440.231,175.266,435.849z M229.884,407.004c-0.001,0-0.003,0-0.005,0
			c-0.001,0-0.002,0-0.004,0h-46.66c-4.384,0.001-7.95-3.566-7.95-7.949s3.566-7.949,7.949-7.949h46.659
			c0.005,0,0.01-0.001,0.015-0.001c4.38,0.003,7.943,3.568,7.943,7.949C237.832,403.438,234.266,407.004,229.884,407.004z
			 M300.903,370.21h-71.019c-0.007,0-0.014,0.001-0.021,0.001h-46.648c-15.906,0-28.844,12.94-28.844,28.844
			c0,6.986,2.499,13.4,6.646,18.396c-4.148,4.997-6.646,11.41-6.646,18.396c0,6.986,2.499,13.4,6.646,18.396
			c-4.148,4.997-6.646,11.41-6.646,18.396c0,2.757,0.397,5.422,1.123,7.949H93.015V343.605
			c33.274-5.052,58.854-33.851,58.854-68.514c0-5.761,4.687-10.448,10.448-10.448c5.761,0,10.448,4.687,10.448,10.448
			c0,21.494-7.724,42.329-21.751,58.667c-2.658,3.097-3.27,7.459-1.566,11.168c1.704,3.709,5.413,6.086,9.494,6.086h141.962
			c5.293,0,9.599,4.307,9.599,9.599C310.501,365.903,306.196,370.21,300.903,370.21z"/>
	</g>
</g>
<g>
	<g>
		<path d="M43.213,338.568c-7.681,0-13.93,6.249-13.93,13.93c0,7.681,6.25,13.93,13.93,13.93c7.681,0,13.93-6.249,13.93-13.93
			S50.894,338.568,43.213,338.568z"/>
	</g>
</g>
<g>
	<g>
		<path d="M501.521,0h-72.089c-5.769,0-10.448,4.677-10.448,10.448v0.066H282.116c-15.905,0-28.843,12.94-28.843,28.844
			c0,6.986,2.496,13.4,6.644,18.396c-4.149,4.997-6.644,11.411-6.644,18.397s2.496,13.399,6.644,18.396
			c-4.149,4.997-6.644,11.41-6.644,18.397c0,2.756,0.389,5.422,1.114,7.949h-43.289c-16.815,0-30.495,13.679-30.495,30.495
			c0,16.815,13.68,30.495,30.495,30.495h121.867c-9.521,16.666-14.625,35.626-14.625,55.025c0,17.283,14.061,31.343,31.343,31.343
			s31.343-14.061,31.343-31.343c0-23.104,16.274-42.468,37.959-47.258v4.59c0,5.77,4.678,10.448,10.448,10.448h72.089
			c5.769,0,10.448-4.677,10.448-10.448V10.448C511.969,4.677,507.291,0,501.521,0z M418.985,168.396
			c-33.274,5.052-58.855,33.85-58.855,68.512c0,5.761-4.687,10.448-10.448,10.448c-5.761,0-10.448-4.687-10.448-10.448
			c0-21.494,7.724-42.329,21.751-58.667c2.658-3.097,3.27-7.459,1.566-11.168c-1.704-3.709-5.413-6.086-9.494-6.086h-141.96
			c-5.293,0-9.599-4.307-9.599-9.599s4.305-9.599,9.599-9.599h71.019c5.769,0,10.448-4.677,10.448-10.448
			c0-5.77-4.678-10.448-10.448-10.448c-4.382,0-7.948-3.566-7.948-7.949c0-4.384,3.566-7.95,7.948-7.95
			c5.769,0,10.448-4.677,10.448-10.448c0-5.77-4.678-10.448-10.448-10.448c-4.382,0-7.948-3.566-7.948-7.948
			c0-4.384,3.566-7.95,7.948-7.95c5.769,0,10.448-4.677,10.448-10.448s-4.678-10.448-10.448-10.448
			c-4.382,0-7.948-3.566-7.948-7.949s3.566-7.949,7.948-7.949h136.868V168.396z M491.073,183.792h-51.194V20.895h51.194V183.792z"/>
	</g>
</g>
<g>
	<g>
		<path d="M468.786,145.572c-7.681,0-13.93,6.249-13.93,13.93c0,7.681,6.25,13.93,13.93,13.93c7.681,0,13.93-6.249,13.93-13.93
			C482.716,151.821,476.466,145.572,468.786,145.572z"/>
	</g>
</g>
<g>
	<g>
		<path d="M318.929,44.987h-4.677c-5.769,0-10.448,4.677-10.448,10.448s4.679,10.448,10.448,10.448h4.677
			c5.77,0,10.448-4.677,10.448-10.448S324.698,44.987,318.929,44.987z"/>
	</g>
</g>
<g>
	<g>
		<path d="M396.248,44.987H352.73c-5.77,0-10.448,4.677-10.448,10.448s4.677,10.448,10.448,10.448h43.518
			c5.769,0,10.448-4.677,10.448-10.448S402.017,44.987,396.248,44.987z"/>
	</g>
</g>
<g>
</g>
<g>
</g>
<g>
</g>
<g>
</g>
<g>
</g>
<g>
</g>
<g>
</g>
<g>
</g>
<g>
</g>
<g>
</g>
<g>
</g>
<g>
</g>
<g>
</g>
<g>
</g>
<g>
</g>
</svg>
