<?xml version="1.0" encoding="iso-8859-1"?>
<!-- Generator: Adobe Illustrator 19.0.0, SVG Export Plug-In . SVG Version: 6.00 Build 0)  -->
<svg version="1.1" id="Layer_1" xmlns="http://www.w3.org/2000/svg" xmlns:xlink="http://www.w3.org/1999/xlink" x="0px" y="0px"
	 viewBox="0 0 512 512" style="enable-background:new 0 0 512 512;" xml:space="preserve">
<circle style="fill:#C2D5D8;" cx="256" cy="256" r="256"/>
<path style="fill:#B7C9CC;" d="M414.96,128H309.7v-4h-112v4h-104v120v8v4v8v4v8v4v8v4v8v4v8v4v8v4v8v4v8v4v8v4v8v4v8l37.088,91.632
	C167.664,500.22,210.448,512,255.684,512c112.696,0,208.476-72.86,242.668-174.016L414.96,128z"/>
<polygon style="fill:#45998B;" points="413.7,248 93.7,248 93.7,128 413.7,128 413.7,168 "/>
<polygon style="fill:#3F8C7F;" points="413.7,388 93.7,388 93.7,248 413.7,248 413.7,294.664 "/>
<path style="fill:#B8E6DF;" d="M405.7,212v-48c-16,0-26.74-12.532-26.74-28h-248c0,15.468-13.264,28-29.264,28v48
	c16,0,29.264,12.532,29.264,28h248C378.96,224.532,389.7,212,405.7,212z"/>
<g>
	<rect x="93.7" y="256" style="fill:#398074;" width="320" height="4"/>
	<rect x="93.7" y="268" style="fill:#398074;" width="320" height="4"/>
	<rect x="93.7" y="280" style="fill:#398074;" width="320" height="4"/>
	<rect x="93.7" y="292" style="fill:#398074;" width="320" height="4"/>
	<rect x="93.7" y="304" style="fill:#398074;" width="320" height="4"/>
	<rect x="93.7" y="316" style="fill:#398074;" width="320" height="4"/>
	<rect x="93.7" y="328" style="fill:#398074;" width="320" height="4"/>
	<rect x="93.7" y="340" style="fill:#398074;" width="320" height="4"/>
	<rect x="93.7" y="352" style="fill:#398074;" width="320" height="4"/>
	<rect x="93.7" y="364" style="fill:#398074;" width="320" height="4"/>
	<rect x="93.7" y="376" style="fill:#398074;" width="320" height="4"/>
</g>
<g>
	<circle style="fill:#3F8C7F;" cx="134.964" cy="188" r="12"/>
	<circle style="fill:#3F8C7F;" cx="374.96" cy="188" r="12"/>
</g>
<rect x="197.68" y="124" style="fill:#16594F;" width="112" height="124"/>
<rect x="197.68" y="248" style="fill:#134D44;" width="112" height="144"/>
<g>
	<rect x="310.96" y="128" style="fill:#3F8C7F;" width="8" height="8"/>
	<rect x="310.96" y="240" style="fill:#3F8C7F;" width="8" height="8"/>
</g>
<rect x="310.96" y="248" style="fill:#398074;" width="8" height="8"/>
<rect x="310.96" y="256" style="fill:#337368;" width="8" height="4"/>
<rect x="310.96" y="260" style="fill:#398074;" width="8" height="8"/>
<rect x="310.96" y="268" style="fill:#337368;" width="8" height="4"/>
<rect x="310.96" y="272" style="fill:#398074;" width="8" height="8"/>
<rect x="310.96" y="280" style="fill:#337368;" width="8" height="4"/>
<rect x="310.96" y="284" style="fill:#398074;" width="8" height="8"/>
<rect x="310.96" y="292" style="fill:#337368;" width="8" height="4"/>
<rect x="310.96" y="296" style="fill:#398074;" width="8" height="8"/>
<rect x="310.96" y="304" style="fill:#337368;" width="8" height="4"/>
<rect x="310.96" y="308" style="fill:#398074;" width="8" height="8"/>
<rect x="310.96" y="316" style="fill:#337368;" width="8" height="4"/>
<rect x="310.96" y="320" style="fill:#398074;" width="8" height="8"/>
<rect x="310.96" y="328" style="fill:#337368;" width="8" height="4"/>
<rect x="310.96" y="332" style="fill:#398074;" width="8" height="8"/>
<rect x="310.96" y="340" style="fill:#337368;" width="8" height="4"/>
<rect x="310.96" y="344" style="fill:#398074;" width="8" height="8"/>
<rect x="310.96" y="352" style="fill:#337368;" width="8" height="4"/>
<rect x="310.96" y="356" style="fill:#398074;" width="8" height="8"/>
<rect x="310.96" y="364" style="fill:#337368;" width="8" height="4"/>
<rect x="310.96" y="368" style="fill:#398074;" width="8" height="8"/>
<rect x="310.96" y="376" style="fill:#337368;" width="8" height="4"/>
<rect x="310.96" y="380" style="fill:#398074;" width="8" height="8"/>
<rect x="309.68" y="136" style="fill:#ADD9D2;" width="8" height="104"/>
<g>
</g>
<g>
</g>
<g>
</g>
<g>
</g>
<g>
</g>
<g>
</g>
<g>
</g>
<g>
</g>
<g>
</g>
<g>
</g>
<g>
</g>
<g>
</g>
<g>
</g>
<g>
</g>
<g>
</g>
</svg>
