<?xml version="1.0" encoding="iso-8859-1"?>
<!-- Generator: Adobe Illustrator 19.0.0, SVG Export Plug-In . SVG Version: 6.00 Build 0)  -->
<svg version="1.1" id="Layer_1" xmlns="http://www.w3.org/2000/svg" xmlns:xlink="http://www.w3.org/1999/xlink" x="0px" y="0px"
	 viewBox="0 0 512 512" style="enable-background:new 0 0 512 512;" xml:space="preserve">
<path style="fill:#51D2E1;" d="M466.235,21.453C466.235,9.605,456.63,0,444.782,0H98.682C90.783,0,84.38,6.403,84.38,14.302v483.397
	c0,7.899,6.403,14.302,14.302,14.302h346.101c11.848,0,21.453-9.605,21.453-21.453V21.453z"/>
<g>
	<path style="fill:#E6E6E6;" d="M213.095,147.307h165.899c11.848,0,21.453-9.605,21.453-21.453s-9.605-21.453-21.453-21.453H213.095
		c-11.848,0-21.453,9.605-21.453,21.453S201.247,147.307,213.095,147.307z"/>
	<path style="fill:#E6E6E6;" d="M378.994,191.642H213.095c-11.848,0-21.453,9.605-21.453,21.453s9.605,21.453,21.453,21.453h165.899
		c11.848,0,21.453-9.605,21.453-21.453S390.842,191.642,378.994,191.642z"/>
	<path style="fill:#E6E6E6;" d="M378.994,278.883H213.095c-11.848,0-21.453,9.605-21.453,21.453s9.605,21.453,21.453,21.453h165.899
		c11.848,0,21.453-9.605,21.453-21.453S390.842,278.883,378.994,278.883z"/>
	<path style="fill:#E6E6E6;" d="M378.994,366.123H213.095c-11.848,0-21.453,9.605-21.453,21.453s9.605,21.453,21.453,21.453h165.899
		c11.848,0,21.453-9.605,21.453-21.453S390.842,366.123,378.994,366.123z"/>
</g>
<path style="fill:#263B74;" d="M234.547,512H98.682c-7.899,0-14.302-6.403-14.302-14.302V14.302C84.38,6.403,90.783,0,98.682,0
	h135.866V512z"/>
<g>
	<path style="fill:#F66131;" d="M67.218,135.866h48.626c11.848,0,21.453-9.605,21.453-21.453s-9.605-21.453-21.453-21.453H67.218
		c-11.848,0-21.453,9.605-21.453,21.453S55.37,135.866,67.218,135.866z"/>
	<path style="fill:#F66131;" d="M115.844,187.352H67.218c-11.848,0-21.453,9.605-21.453,21.453s9.605,21.453,21.453,21.453h48.626
		c11.848,0,21.453-9.605,21.453-21.453S127.691,187.352,115.844,187.352z"/>
	<path style="fill:#F66131;" d="M115.844,281.743H67.218c-11.848,0-21.453,9.605-21.453,21.453s9.605,21.453,21.453,21.453h48.626
		c11.848,0,21.453-9.605,21.453-21.453S127.691,281.743,115.844,281.743z"/>
	<path style="fill:#F66131;" d="M115.844,376.134H67.218c-11.848,0-21.453,9.605-21.453,21.453s9.605,21.453,21.453,21.453h48.626
		c11.848,0,21.453-9.605,21.453-21.453S127.691,376.134,115.844,376.134z"/>
</g>
<g>
</g>
<g>
</g>
<g>
</g>
<g>
</g>
<g>
</g>
<g>
</g>
<g>
</g>
<g>
</g>
<g>
</g>
<g>
</g>
<g>
</g>
<g>
</g>
<g>
</g>
<g>
</g>
<g>
</g>
</svg>
