<?xml version="1.0" encoding="iso-8859-1"?>
<!-- Generator: Adobe Illustrator 19.0.0, SVG Export Plug-In . SVG Version: 6.00 Build 0)  -->
<svg version="1.1" id="Layer_1" xmlns="http://www.w3.org/2000/svg" xmlns:xlink="http://www.w3.org/1999/xlink" x="0px" y="0px"
	 viewBox="0 0 512.8 512.8" style="enable-background:new 0 0 512.8 512.8;" xml:space="preserve">
<path style="fill:#9F633C;" d="M245.2,174.8c-42.8-4.8-76-41.2-76-85.2l14-0.8c0,36.4,27.2,66.4,62,71.2"/>
<path style="fill:#140500;" d="M245.2,178.8h-0.4c-45.6-5.2-79.6-43.6-79.6-89.2c0-2,1.6-4,3.6-4l14-0.8c1.2,0,2,0.4,2.8,1.2
	c0.8,0.8,1.2,2,1.2,2.8c0,34,25.2,62.8,58.8,67.2c2,0.4,3.6,2.4,3.6,4.4c-0.4,2-2.4,3.6-4.4,3.6c-36-4.8-63.6-34.8-65.6-70.8l-6,0.4
	c2,40,32.4,73.2,72.4,77.6c2,0.4,3.6,2.4,3.6,4.4C248.8,177.2,247.2,178.8,245.2,178.8z"/>
<path style="fill:#9F633C;" d="M264.4,174.8c42.8-4.8,76-41.2,76-85.2l-14-0.8c0,36.4-27.2,66.4-62,71.2"/>
<path style="fill:#140500;" d="M264.4,178.8c-2,0-3.6-1.6-4-3.6s1.2-4,3.6-4.4c40-4.4,70.8-37.6,72.4-77.6l-6-0.4
	c-2,36-29.6,66-65.6,70.8c-2.4,0.4-4.4-1.2-4.4-3.6c-0.4-2,1.2-4.4,3.6-4.4c33.6-4.4,58.8-33.2,58.8-67.2c0-1.2,0.4-2,1.2-2.8
	s2-1.2,2.8-1.2l14,0.8c2,0,3.6,2,3.6,4c0,45.6-34.4,84-79.6,89.2C264.8,178.8,264.8,178.8,264.4,178.8z"/>
<path style="fill:#9F633C;" d="M245.2,304.4c-42.8-4.8-76-41.2-76-85.2l14-0.8c0,36.4,27.2,66.4,62,71.2"/>
<path style="fill:#140500;" d="M245.2,308.4h-0.4c-45.6-5.2-79.6-43.6-79.6-89.2c0-2,1.6-4,3.6-4l14-0.8c1.2,0,2,0.4,2.8,1.2
	c0.8,0.8,1.2,2,1.2,2.8c0,34,25.2,62.8,58.8,67.2c2,0.4,3.6,2.4,3.6,4.4c-0.4,2-2.4,3.6-4.4,3.6c-36-4.8-63.6-34.8-65.6-70.8l-6,0.4
	c2,40,32.4,73.2,72.4,77.6c2,0.4,3.6,2.4,3.6,4.4C248.8,306.8,247.2,308.4,245.2,308.4z"/>
<path style="fill:#9F633C;" d="M264.4,304.4c42.8-4.8,76-41.2,76-85.2l-14-0.8c0,36.4-27.2,66.4-62,71.2"/>
<path style="fill:#140500;" d="M264.4,308.4c-2,0-3.6-1.6-4-3.6s1.2-4,3.6-4.4c40-4.4,70.8-37.6,72.4-77.6l-6-0.4
	c-2,36-29.6,66-65.6,70.8c-2,0.4-4.4-1.2-4.4-3.6c-0.4-2,1.2-4.4,3.6-4.4c33.6-4.4,58.8-33.2,58.8-67.2c0-1.2,0.4-2,1.2-2.8
	s2-1.2,2.8-1.2l14,0.8c2,0,3.6,2,3.6,4c0,45.6-34.4,84-79.6,89.2C264.8,308.4,264.8,308.4,264.4,308.4z"/>
<path style="fill:#895129;" d="M348.4,508.8c0-12-10-24-22.8-24H187.2c-12.4,0-22.8,12-22.8,24H348.4z"/>
<path style="fill:#140500;" d="M348.4,512.8h-184c-2.4,0-4-1.6-4-4c0-14.8,12.4-28,26.8-28h138.4c14.4,0,26.8,13.2,26.8,28
	C352.4,511.2,350.4,512.8,348.4,512.8z M168.8,504.8h174.8c-2-8-9.2-16-18.4-16H186.8C178,488.8,170.8,496.8,168.8,504.8z"/>
<polyline style="fill:#9F633C;" points="264.4,36.8 264.4,484.8 244.4,484.8 244.4,36.8 "/>
<path style="fill:#140500;" d="M264.4,488.8h-20c-2.4,0-4-1.6-4-4v-448c0-2.4,1.6-4,4-4s4,1.6,4,4v444h12v-444c0-2.4,1.6-4,4-4
	s4,1.6,4,4v448C268.4,487.2,266.8,488.8,264.4,488.8z"/>
<circle style="fill:#895129;" cx="254.8" cy="21.2" r="17.6"/>
<path style="fill:#140500;" d="M254.8,43.2c-12,0-21.6-9.6-21.6-21.6S242.8,0,254.8,0s21.6,9.6,21.6,21.6S266.8,43.2,254.8,43.2z
	 M254.8,7.6c-7.6,0-13.6,6-13.6,13.6s6,13.6,13.6,13.6s13.6-6,13.6-13.6S262.4,7.6,254.8,7.6z"/>
<circle style="fill:#895129;" cx="333.6" cy="80.4" r="10.8"/>
<path style="fill:#140500;" d="M333.6,95.2c-8,0-14.8-6.4-14.8-14.8s6.4-14.8,14.8-14.8c8,0,14.8,6.4,14.8,14.8
	S341.6,95.2,333.6,95.2z M333.6,73.6c-3.6,0-6.8,3.2-6.8,6.8c0,3.6,3.2,6.8,6.8,6.8s6.8-3.2,6.8-6.8S337.2,73.6,333.6,73.6z"/>
<circle style="fill:#895129;" cx="175.6" cy="80.4" r="10.8"/>
<path style="fill:#140500;" d="M175.6,95.2c-8,0-14.8-6.4-14.8-14.8s6.4-14.8,14.8-14.8s14.8,6.4,14.8,14.8S183.6,95.2,175.6,95.2z
	 M175.6,73.6c-3.6,0-6.8,3.2-6.8,6.8s3.2,6.8,6.8,6.8s6.8-3.2,6.8-6.8S179.2,73.6,175.6,73.6z"/>
<circle style="fill:#895129;" cx="333.6" cy="210.4" r="10.8"/>
<path style="fill:#140500;" d="M333.6,224.8c-8,0-14.8-6.4-14.8-14.8s6.4-14.8,14.8-14.8c8,0,14.8,6.4,14.8,14.8
	S341.6,224.8,333.6,224.8z M333.6,203.6c-3.6,0-6.8,3.2-6.8,6.8c0,3.6,3.2,6.8,6.8,6.8s6.8-3.2,6.8-6.8
	C340.4,206.4,337.2,203.6,333.6,203.6z"/>
<circle style="fill:#895129;" cx="175.6" cy="210.4" r="10.8"/>
<path style="fill:#140500;" d="M175.6,224.8c-8,0-14.8-6.4-14.8-14.8s6.4-14.8,14.8-14.8s14.8,6.4,14.8,14.8
	S183.6,224.8,175.6,224.8z M175.6,203.6c-3.6,0-6.8,3.2-6.8,6.8c0,3.6,3.2,6.8,6.8,6.8s6.8-3.2,6.8-6.8
	C182.4,206.4,179.2,203.6,175.6,203.6z"/>
<g>
</g>
<g>
</g>
<g>
</g>
<g>
</g>
<g>
</g>
<g>
</g>
<g>
</g>
<g>
</g>
<g>
</g>
<g>
</g>
<g>
</g>
<g>
</g>
<g>
</g>
<g>
</g>
<g>
</g>
</svg>
