<?xml version="1.0" encoding="iso-8859-1"?>
<!-- Generator: Adobe Illustrator 19.0.0, SVG Export Plug-In . SVG Version: 6.00 Build 0)  -->
<svg version="1.1" id="Layer_1" xmlns="http://www.w3.org/2000/svg" xmlns:xlink="http://www.w3.org/1999/xlink" x="0px" y="0px"
	 viewBox="0 0 376 376" style="enable-background:new 0 0 376 376;" xml:space="preserve">
<rect x="20" y="294" style="fill:#554542;" width="28" height="20"/>
<path style="fill:#140500;" d="M48,318H20c-2.4,0-4-1.6-4-4v-20c0-2.4,1.6-4,4-4h28c2.4,0,4,1.6,4,4v20C52,316.4,50.4,318,48,318z
	 M24,310h20v-12H24V310z"/>
<rect x="328" y="294" style="fill:#554542;" width="28" height="20"/>
<path style="fill:#140500;" d="M356,318h-28c-2.4,0-4-1.6-4-4v-20c0-2.4,1.6-4,4-4h28c2.4,0,4,1.6,4,4v20
	C360,316.4,358.4,318,356,318z M332,310h20v-12h-20V310z"/>
<path style="fill:#9F633C;" d="M4,154v140h368V154v-24.4v-48c0-12.4-11.6-19.6-24.4-19.6H28C15.6,62,3.6,69.2,3.6,81.6v48V154H4z"/>
<path style="fill:#140500;" d="M372,298H4c-2.4,0-4-1.6-4-4V81.6C0,66,14.4,58,28.4,58h319.2c14,0,28.4,8,28.4,23.6V294
	C376,296.4,374.4,298,372,298z M8,290h360V81.6c0-10.4-10.4-15.6-20.4-15.6H28.4C18.4,66,8,71.2,8,81.6L8,290L8,290z"/>
<path style="fill:#895129;" d="M212.4,62.8c0,12.4-10,23.2-22.8,23.2h-2.8C174.4,86,164,75.6,164,63.2"/>
<path style="fill:#140500;" d="M190,90h-2.8c-14.8,0-26.8-12-26.8-26.8c0-2.4,1.6-4,4-4s4,1.6,4,4c0,10.4,8.4,18.8,18.8,18.8h2.8
	c10,0,18.8-8.8,18.8-19.2c0-2.4,1.6-4,4-4s4,1.6,4,4C216.4,78,204.8,90,190,90z"/>
<path style="fill:#895129;" d="M121.2,62.8c0,12.4-10,23.2-22.8,23.2h-2.8c-12.4,0-22.8-10.4-22.8-22.8"/>
<path style="fill:#140500;" d="M98.8,90H96c-14.8,0-26.8-12-26.8-26.8c0-2.4,1.6-4,4-4s4,1.6,4,4C77.2,73.6,85.6,82,96,82h2.8
	c10,0,18.8-8.8,18.8-19.2c0-2.4,1.6-4,4-4s4,1.6,4,4C125.2,78,113.6,90,98.8,90z"/>
<path style="fill:#895129;" d="M301.6,62.8c0,12.4-10,23.2-22.8,23.2H276c-12.4,0-22.8-10.4-22.8-22.8"/>
<path style="fill:#140500;" d="M278.8,90H276c-14.8,0-26.8-12-26.8-26.8c0-2.4,1.6-4,4-4s4,1.6,4,4c0,10.4,8.4,18.8,18.8,18.8h2.8
	c10,0,18.8-8.8,18.8-19.2c0-2.4,1.6-4,4-4s4,1.6,4,4C305.6,78,293.6,90,278.8,90z"/>
<rect x="4" y="134" style="fill:#D89F6C;" width="368" height="160"/>
<g>
	<path style="fill:#140500;" d="M272,138H4c-2.4,0-4-1.6-4-4s1.6-4,4-4h268c2.4,0,4,1.6,4,4S274.4,138,272,138z"/>
	<path style="fill:#140500;" d="M340,138h-40c-2.4,0-4-1.6-4-4s1.6-4,4-4h40c2.4,0,4,1.6,4,4S342.4,138,340,138z"/>
	<path style="fill:#140500;" d="M372,298H4c-2.4,0-4-1.6-4-4V81.6C0,66,14.4,58,28.4,58h319.2c14,0,28.4,8,28.4,23.6V294
		C376,296.4,374.4,298,372,298z M8,290h360V81.6c0-10.4-10.4-15.6-20.4-15.6H28.4C18.4,66,8,71.2,8,81.6L8,290L8,290z"/>
</g>
<g>
</g>
<g>
</g>
<g>
</g>
<g>
</g>
<g>
</g>
<g>
</g>
<g>
</g>
<g>
</g>
<g>
</g>
<g>
</g>
<g>
</g>
<g>
</g>
<g>
</g>
<g>
</g>
<g>
</g>
</svg>
