<?xml version="1.0" encoding="iso-8859-1"?>
<!-- Generator: Adobe Illustrator 19.0.0, SVG Export Plug-In . SVG Version: 6.00 Build 0)  -->
<svg version="1.1" id="Layer_1" xmlns="http://www.w3.org/2000/svg" xmlns:xlink="http://www.w3.org/1999/xlink" x="0px" y="0px"
	 viewBox="0 0 511.999 511.999" style="enable-background:new 0 0 511.999 511.999;" xml:space="preserve">
<path style="fill:#58595B;" d="M418.672,33.144v106.103c0,23.23-18.831,42.061-42.061,42.061h-1.113
	c-23.23,0-42.061-18.831-42.061-42.061l0,0c0-15.701-12.729-28.43-28.43-28.43h-86.353c-15.701,0-28.43,12.729-28.43,28.43l0,0
	c0,25.393-20.585,45.977-45.977,45.977h-3.758c-25.393,0-45.977-20.585-45.977-45.977V33.144c0-13.337-10.812-24.15-24.15-24.15l0,0
	c-13.337,0-24.15,10.812-24.15,24.15v113.219h0.036v236.168c0,66.649,54.03,120.679,120.679,120.679h179.37
	c66.649,0,120.679-54.03,120.679-120.679V146.363V33.144c0-13.337-10.812-24.15-24.15-24.15l0,0
	C429.485,8.994,418.672,19.806,418.672,33.144z"/>
<path style="fill:#F2C6A0;" d="M309.692,196.126c5.355,0,10.723,1.941,14.961,5.864c8.927,8.266,9.464,22.203,1.198,31.131
	c-19.913,21.507-44.058,32.874-69.823,32.874c-24.478,0-48.162-11.293-68.49-32.656c-8.387-8.813-8.041-22.756,0.772-31.143
	c8.813-8.388,22.757-8.041,31.144,0.773c11.977,12.587,24.283,18.968,36.574,18.968c13.36,0,25.975-6.309,37.494-18.751
	C297.864,198.501,303.77,196.126,309.692,196.126z"/>
<path d="M99.753,247.21c-4.911,0-8.892,3.98-8.892,8.892v147.837c0,4.912,3.981,8.892,8.892,8.892c4.911,0,8.892-3.98,8.892-8.892
	V256.102C108.645,251.19,104.663,247.21,99.753,247.21z"/>
<path d="M153.222,300.804c-4.911,0-8.892,3.98-8.892,8.892v147.837c0,4.912,3.981,8.892,8.892,8.892c4.911,0,8.892-3.98,8.892-8.892
	V309.696C162.114,304.784,158.133,300.804,153.222,300.804z"/>
<path d="M206.692,315.112c-4.911,0-8.892,3.98-8.892,8.892v133.529c0,4.912,3.981,8.892,8.892,8.892s8.892-3.98,8.892-8.892V324.004
	C215.584,319.093,211.603,315.112,206.692,315.112z"/>
<path d="M256.592,300.804c-4.911,0-8.892,3.98-8.892,8.892v147.837c0,4.912,3.981,8.892,8.892,8.892c4.911,0,8.892-3.98,8.892-8.892
	V309.696C265.484,304.784,261.503,300.804,256.592,300.804z"/>
<path d="M313.632,315.112c-4.911,0-8.892,3.98-8.892,8.892v133.529c0,4.912,3.981,8.892,8.892,8.892s8.892-3.98,8.892-8.892V324.004
	C322.524,319.093,318.543,315.112,313.632,315.112z"/>
<path d="M367.101,300.804c-4.911,0-8.892,3.98-8.892,8.892v147.837c0,4.912,3.981,8.892,8.892,8.892s8.892-3.98,8.892-8.892V309.696
	C375.993,304.784,372.012,300.804,367.101,300.804z"/>
<path d="M420.571,247.21c-4.911,0-8.892,3.98-8.892,8.892v147.837c0,4.912,3.981,8.892,8.892,8.892s8.892-3.98,8.892-8.892V256.102
	C429.463,251.19,425.482,247.21,420.571,247.21z"/>
<path d="M172.007,217.287c-0.204,8.257,2.818,16.098,8.513,22.081c22.048,23.171,47.959,35.418,74.931,35.418
	c28.308,0,54.708-12.353,76.347-35.724c11.582-12.512,10.828-32.114-1.681-43.699c-5.734-5.308-13.192-8.231-21.002-8.231
	c-8.586,0-16.857,3.613-22.694,9.912c-9.768,10.551-20.188,15.9-30.97,15.9c-9.761,0-19.9-5.453-30.133-16.206
	c-5.693-5.984-13.376-9.393-21.634-9.598c-0.263-0.007-0.524-0.009-0.787-0.009c-7.967,0-15.504,3.009-21.295,8.522
	C175.621,201.346,172.212,209.03,172.007,217.287z M193.864,208.537c2.541-2.42,5.862-3.706,9.381-3.617
	c3.507,0.088,6.771,1.535,9.191,4.077c13.721,14.42,28.194,21.731,43.016,21.731c15.937,0,30.748-7.268,44.018-21.601
	c2.517-2.716,5.942-4.213,9.645-4.213c3.316,0,6.484,1.243,8.919,3.496c5.315,4.922,5.635,13.252,0.715,18.566
	C300.564,246.618,278.675,257,255.451,257c-21.984,0-43.44-10.337-62.048-29.893c-2.42-2.543-3.704-5.874-3.616-9.382
	C189.873,214.22,191.321,210.957,193.864,208.537z"/>
<path d="M442.23,0c-18.219,0-33.042,14.823-33.042,33.042c0,4.912,3.981,8.892,8.892,8.892s8.892-3.98,8.892-8.892
	c0-8.413,6.845-15.258,15.258-15.258c8.413,0,15.258,6.845,15.258,15.258v349.387c0,61.639-50.147,111.787-111.787,111.787h-179.37
	c-61.639,0-111.787-50.147-111.787-111.787V146.261c0-0.266-0.012-0.528-0.034-0.788V33.042c0-8.413,6.845-15.258,15.257-15.258
	s15.258,6.845,15.258,15.258v106.102c0,30.256,24.615,54.87,54.87,54.87h3.758c30.256,0,54.87-24.615,54.87-54.87
	c0-10.774,8.765-19.538,19.538-19.538h86.353c10.774,0,19.538,8.765,19.538,19.538c0,28.096,22.858,50.955,50.953,50.955h1.113
	c28.096,0,50.953-22.858,50.953-50.955V74.994c0-4.912-3.981-8.892-8.892-8.892s-8.892,3.98-8.892,8.892v64.149
	c0,18.291-14.88,33.17-33.169,33.17h-1.113c-18.289,0-33.169-14.88-33.169-33.17c0-20.579-16.743-37.322-37.322-37.322H218.06
	c-20.579,0-37.322,16.743-37.322,37.322c0,20.448-16.637,37.085-37.085,37.085h-3.758c-20.45,0-37.085-16.637-37.085-37.085V33.042
	C102.809,14.823,87.986,0,69.767,0S36.726,14.823,36.726,33.042v113.219c0,0.266,0.012,0.528,0.034,0.787v235.38
	c0,71.446,58.125,129.571,129.571,129.571h179.371c71.446,0,129.571-58.125,129.571-129.571V33.042
	C475.272,14.823,460.449,0,442.23,0z"/>
<g>
</g>
<g>
</g>
<g>
</g>
<g>
</g>
<g>
</g>
<g>
</g>
<g>
</g>
<g>
</g>
<g>
</g>
<g>
</g>
<g>
</g>
<g>
</g>
<g>
</g>
<g>
</g>
<g>
</g>
</svg>
