<?xml version="1.0" encoding="iso-8859-1"?>
<!-- Generator: Adobe Illustrator 19.0.0, SVG Export Plug-In . SVG Version: 6.00 Build 0)  -->
<svg version="1.1" id="Layer_1" xmlns="http://www.w3.org/2000/svg" xmlns:xlink="http://www.w3.org/1999/xlink" x="0px" y="0px"
	 viewBox="0 0 512 512" style="enable-background:new 0 0 512 512;" xml:space="preserve">
<g>
	<ellipse style="fill:#58595B;" cx="186.36" cy="366.888" rx="177.319" ry="90.643"/>
	<ellipse style="fill:#58595B;" cx="186.36" cy="211.504" rx="126.658" ry="64.742"/>
	<ellipse style="fill:#58595B;" cx="186.36" cy="100.712" rx="90.089" ry="46.051"/>
</g>
<circle cx="95.705" cy="334.297" r="10.075"/>
<circle cx="131.054" cy="192.247" r="10.075"/>
<circle cx="157.159" cy="91.694" r="10.075"/>
<g>
	<path style="fill:#414042;" d="M186.361,244.045c-59.074,0-108.702-20.675-122.706-48.64c-2.578,5.149-3.951,10.544-3.951,16.103
		c0,35.757,56.707,64.744,126.657,64.744c69.951,0,126.658-28.986,126.658-64.744c0-5.56-1.373-10.955-3.951-16.103
		C295.063,223.37,245.436,244.045,186.361,244.045z"/>
	<path style="fill:#414042;" d="M186.361,114.557c-38.671,0-71.641-12.458-84.416-29.948c-3.661,5.013-5.674,10.437-5.674,16.103
		c0,25.433,40.336,46.051,90.09,46.051c49.756,0,90.091-20.618,90.091-46.051c0-5.666-2.013-11.09-5.674-16.103
		C258.001,102.101,225.033,114.557,186.361,114.557z"/>
	<path style="fill:#414042;" d="M344.081,398.703c11.294-9.494,19.6-18.778,19.6-31.81c0-5.497-0.958-10.877-2.791-16.103
		c-7.365,20.994-28.877,39.479-59.307,52.79c-1.461-4.778-0.312-10.19,3.46-13.962l3.838-3.838
		c5.957-5.957,8.356-14.771,5.717-22.77c-3.014-9.137-11.424-15.151-20.909-15.151h-5.534c-7.257,0-13.611-5.376-14.291-12.601
		c-0.781-8.291,5.749-15.291,13.883-15.291h5.943c8.93,0,16.908-5.332,20.325-13.581c0.277-0.668,0.506-1.345,0.713-2.025
		c-12.716-6.819-27.489-12.625-43.81-17.159c0.237,0.553,0.47,1.106,0.728,1.65c-18.488,6.626-31.748,24.324-31.748,45.061
		c0,20.746,13.269,38.449,31.768,45.068c-0.797,1.684-1.488,3.405-2.077,5.153c-7.205,21.4-25.674,37.111-48.136,39.418
		c-11.342,1.164-23.077,1.775-35.091,1.775c-87.18,0-159.664-32.159-174.529-74.537c-1.834,5.225-2.792,10.607-2.792,16.102
		c0,50.06,79.388,90.641,177.32,90.641c38.739,0,74.575-6.35,103.746-17.125c0.107-0.04,0.207-0.087,0.314-0.128
		c27.273-10.122,48.691-24.113,61.148-40.403c-2.317-0.787-4.699-1.194-7.067-1.194C344.36,398.682,344.221,398.7,344.081,398.703z"
		/>
</g>
<path style="fill:#EA9000;" d="M473.193,303.015h-5.943c-4.499,0-6.751-5.439-3.571-8.62l4.203-4.203
	c12.066-12.066,12.066-31.628,0-43.694l0,0c-12.066-12.066-31.628-12.066-43.694,0l-4.202,4.202c-3.181,3.181-8.62,0.928-8.62-3.571
	v-5.245c0-16.106-12.045-30.054-28.089-31.47c-18.327-1.617-33.704,12.782-33.704,30.773v5.943c0,4.499-5.439,6.751-8.62,3.571
	l-4.202-4.202c-12.066-12.066-31.628-12.066-43.694,0l0,0c-12.066,12.066-12.066,31.628,0,43.694l4.203,4.203
	c3.181,3.181,0.928,8.62-3.571,8.62h-5.943c-17.064,0-30.897,13.833-30.897,30.897l0,0c0,17.064,13.833,30.897,30.897,30.897h5.943
	c4.499,0,6.751,5.439,3.571,8.62l-4.202,4.202c-12.066,12.066-12.066,31.628,0,43.694l0,0c12.066,12.066,31.628,12.066,43.694,0
	l4.202-4.202c3.181-3.181,8.62-0.928,8.62,3.571v5.245c0,16.106,12.045,30.054,28.089,31.47
	c18.327,1.617,33.704-12.782,33.704-30.773v-5.943c0-4.499,5.439-6.751,8.62-3.571l4.202,4.202
	c12.066,12.066,31.628,12.066,43.694,0l0,0c12.066-12.066,12.066-31.628,0-43.694l-4.202-4.202c-3.181-3.181-0.928-8.62,3.571-8.62
	h5.943c17.064,0,30.897-13.833,30.897-30.897l0,0C504.091,316.849,490.257,303.015,473.193,303.015z"/>
<path style="fill:#F2BA43;" d="M439.652,314.192h-3.794c-2.871,0-4.309-3.472-2.279-5.502l2.682-2.683
	c7.701-7.701,7.701-20.188,0-27.889l0,0c-7.701-7.701-20.188-7.701-27.889,0l-2.682,2.682c-2.031,2.031-5.502,0.592-5.502-2.279
	v-3.347c0-10.28-7.689-19.183-17.929-20.087c-11.698-1.032-21.512,8.158-21.512,19.642v3.793c0,2.871-3.472,4.309-5.502,2.279
	l-2.682-2.682c-7.701-7.701-20.188-7.701-27.889,0l0,0c-7.701,7.701-7.701,20.188,0,27.889l2.682,2.683
	c2.031,2.031,0.592,5.502-2.279,5.502h-3.794c-10.892,0-19.721,8.829-19.721,19.721l0,0c0,10.892,8.829,19.721,19.721,19.721h3.794
	c2.871,0,4.309,3.472,2.279,5.502l-2.682,2.682c-7.701,7.701-7.701,20.188,0,27.889l0,0c7.701,7.701,20.188,7.701,27.889,0
	l2.682-2.682c2.031-2.031,5.502-0.592,5.502,2.279v3.347c0,10.28,7.689,19.183,17.929,20.087
	c11.698,1.032,21.512-8.158,21.512-19.641v-3.792c0-2.871,3.472-4.309,5.502-2.279l2.682,2.682c7.701,7.701,20.188,7.701,27.889,0
	l0,0c7.701-7.701,7.701-20.188,0-27.889l-2.682-2.682c-2.031-2.031-0.592-5.502,2.279-5.502h3.794
	c10.892,0,19.721-8.829,19.721-19.721l0,0C459.373,323.021,450.544,314.192,439.652,314.192z"/>
<circle style="fill:#F474FB;" cx="380.471" cy="333.913" r="32.306"/>
<path d="M512,333.815c0-20.977-16.491-38.175-37.188-39.313c13.831-15.439,13.331-39.26-1.501-54.094
	c-7.437-7.437-17.324-11.532-27.841-11.532c-9.803,0-19.06,3.559-26.294,10.066c-1.368-19.355-16.565-35.377-35.719-37.067
	c-11.027-0.968-22.013,2.735-30.135,10.172c-7.59,6.949-12.156,16.638-12.729,26.859c-6.531-5.857-14.704-9.307-23.438-9.921
	c2.464-5.613,3.774-11.495,3.774-17.574c0-29.767-31.206-54.854-77.241-66.403c24.789-9.81,40.676-25.882,40.676-44.392
	c0-30.576-43.296-54.527-98.567-54.527S87.229,70.04,87.229,100.616c0,18.512,15.886,34.583,40.676,44.392
	c-46.037,11.548-77.241,36.636-77.241,66.403c0,27.269,26.189,50.609,65.977,63.214c-22.17,4.656-42.564,11.574-60.086,20.531
	C20.084,313.798,0,339.241,0,366.795s20.084,52.997,56.554,71.64c34.663,17.719,80.561,27.476,129.241,27.476
	c4.682,0,8.476-3.794,8.476-8.476c0-4.682-3.794-8.475-8.476-8.475c-46.048,0-89.206-9.098-121.526-25.62
	c-30.514-15.596-47.318-35.679-47.318-56.545s16.804-40.948,47.318-56.546c32.32-16.52,75.478-25.62,121.526-25.62
	c31.016,0,61.379,4.303,87.74,12.258c-15.004,5.562-25.728,20.014-25.728,36.927c0,20.977,16.49,38.175,37.188,39.313
	c-13.832,15.44-13.331,39.261,1.502,54.094c1.313,1.313,2.7,2.508,4.142,3.596c-3.591,1.41-17.389,6.148-30.59,9.383
	c-11.409,2.796-22.381,4.15-25.82,5.125c-4.502,1.278-7.116,5.965-5.838,10.469c1.059,3.729,4.455,6.162,8.149,6.162
	c0.766,0,1.546-0.105,2.32-0.324c6.592-0.808,17.976-3.431,30.512-6.93c18.196-5.079,37.917-12.363,45.058-15.98
	c9.387-0.021,18.769-3.36,26.202-10.036c1.368,19.355,16.565,35.377,35.719,37.067c1.159,0.103,2.317,0.154,3.47,0.154
	c9.834-0.001,19.396-3.669,26.665-10.325c7.59-6.949,12.156-16.64,12.729-26.862c15.44,13.835,39.262,13.335,54.095-1.501
	c14.832-14.833,15.333-38.653,1.502-54.093C495.511,371.99,512,354.792,512,333.815z M104.18,100.616
	c0-20.017,38.138-37.576,81.616-37.576s81.616,17.559,81.616,37.576s-38.138,37.576-81.616,37.576S104.18,120.634,104.18,100.616z
	 M67.614,211.411c0-27.174,47.488-56.268,118.181-56.268s118.181,29.095,118.181,56.268s-47.488,56.267-118.181,56.267
	S67.614,238.584,67.614,211.411z M275,266.837c-0.016,0.47-0.034,0.939-0.034,1.411c0,4.108,0.633,8.117,1.837,11.924
	c-7.088-2.086-14.423-3.933-21.966-5.512C262.024,272.389,268.772,269.77,275,266.837z M472.628,356.237h-5.943
	c-5.489,0-10.394,3.276-12.496,8.348c-2.101,5.072-0.95,10.858,2.933,14.742l4.202,4.2c8.741,8.742,8.741,22.968,0,31.71
	c-8.741,8.743-22.967,8.741-31.707,0l-4.204-4.203c-3.883-3.882-9.665-5.032-14.741-2.931c-5.071,2.101-8.348,7.005-8.348,12.495
	v5.943c0,6.273-2.656,12.303-7.286,16.543c-4.692,4.297-10.794,6.348-17.198,5.788c-11.417-1.008-20.359-11.123-20.359-23.029
	v-5.246c0-5.489-3.276-10.393-8.348-12.495c-1.684-0.697-3.446-1.036-5.19-1.036c-3.512,0-6.957,1.375-9.551,3.969l-4.201,4.202
	c-8.743,8.742-22.966,8.741-31.709,0s-8.742-22.966,0-31.709l4.202-4.202c3.882-3.883,5.032-9.669,2.933-14.741
	c-2.101-5.071-7.005-8.349-12.496-8.349h-5.943c-12.363,0-22.422-10.058-22.422-22.422c0-12.364,10.058-22.422,22.422-22.422h5.943
	c5.49,0,10.394-3.277,12.496-8.349c1.08-2.609,1.294-5.407,0.724-8.038c-0.024-0.125-0.059-0.247-0.088-0.372
	c-0.036-0.146-0.069-0.293-0.11-0.438c-0.008-0.028-0.018-0.056-0.026-0.084c-0.622-2.146-1.775-4.151-3.432-5.807l-4.203-4.204
	c-4.234-4.234-6.568-9.864-6.568-15.853c0-5.989,2.332-11.619,6.569-15.855c0.21-0.21,0.438-0.394,0.655-0.594
	c0.506-0.422,1.004-0.845,1.494-1.274c3.909-3.035,8.674-4.699,13.703-4.699c5.989,0,11.619,2.331,15.854,6.567l4.203,4.204
	c3.884,3.882,9.667,5.033,14.741,2.931c5.071-2.101,8.348-7.006,8.348-12.496v-5.942c0-6.273,2.656-12.302,7.286-16.542
	c4.692-4.297,10.8-6.351,17.198-5.788c11.417,1.007,20.359,11.122,20.359,23.027v5.245c0,5.489,3.276,10.394,8.348,12.496
	c5.069,2.1,10.857,0.95,14.742-2.931l4.203-4.204c4.234-4.234,9.864-6.567,15.853-6.567c5.989,0,11.619,2.331,15.854,6.567
	c8.741,8.742,8.741,22.966,0,31.709l-4.203,4.204c-3.882,3.884-5.032,9.669-2.931,14.741c2.101,5.071,7.005,8.348,12.495,8.348
	h5.944c12.362,0,22.421,10.058,22.421,22.422C495.048,346.181,484.991,356.237,472.628,356.237z"/>
<path d="M379.904,293.032c-22.486,0-40.782,18.295-40.782,40.783c0,22.486,18.295,40.782,40.782,40.782
	c22.487,0,40.783-18.295,40.783-40.782C420.687,311.327,402.391,293.032,379.904,293.032z M379.904,357.646
	c-13.14,0-23.831-10.69-23.831-23.831c0-13.142,10.69-23.832,23.831-23.832c13.142,0,23.832,10.69,23.832,23.832
	C403.736,346.956,393.046,357.646,379.904,357.646z"/>
<g>
</g>
<g>
</g>
<g>
</g>
<g>
</g>
<g>
</g>
<g>
</g>
<g>
</g>
<g>
</g>
<g>
</g>
<g>
</g>
<g>
</g>
<g>
</g>
<g>
</g>
<g>
</g>
<g>
</g>
</svg>
