<?xml version="1.0" encoding="iso-8859-1"?>
<!-- Generator: Adobe Illustrator 19.0.0, SVG Export Plug-In . SVG Version: 6.00 Build 0)  -->
<svg version="1.1" id="Layer_1" xmlns="http://www.w3.org/2000/svg" xmlns:xlink="http://www.w3.org/1999/xlink" x="0px" y="0px"
	 viewBox="0 0 496 496" style="enable-background:new 0 0 496 496;" xml:space="preserve">
<g>
	<g>
		<g>
			<path d="M384,248c3.696,0,7.152-0.904,10.28-2.408l24.064,24.064l11.312-11.312l-24.064-24.064
				c1.504-3.128,2.408-6.584,2.408-10.28c0-13.232-10.768-24-24-24s-24,10.768-24,24S370.768,248,384,248z M384,216
				c4.408,0,8,3.592,8,8s-3.592,8-8,8c-4.408,0-8-3.592-8-8S379.592,216,384,216z"/>
			<rect x="80" y="224" width="16" height="16"/>
			<rect x="128" y="224" width="16" height="16"/>
			<rect x="176" y="224" width="16" height="16"/>
			<rect x="224" y="224" width="16" height="16"/>
			<rect x="272" y="224" width="16" height="16"/>
			<rect x="320" y="224" width="16" height="16"/>
			<path d="M456,64h-72.336C351.352,24.936,302.536,0,248,0S144.648,24.936,112.336,64H40C17.944,64,0,81.944,0,104v288
				c0,22.056,17.944,40,40,40h112v48h-32v16h256v-16h-32v-48h112c22.056,0,40-17.944,40-40V104C496,81.944,478.056,64,456,64z
				 M377.12,81.912c17.84,24.416,28.872,53.992,30.472,86.088h-63.776c-0.76-23.16-4.712-43.696-10.656-61.68
				C356.168,97.928,370.344,87.72,377.12,81.912z M367.008,69.44c-5.328,4.568-18.016,13.904-39.536,21.768
				c-14.52-34.464-35.792-58.24-52.096-72.688C311.536,24.792,343.496,43.2,367.008,69.44z M256,23.368
				c14.664,11.512,39.568,35.144,55.92,72.736c-15.248,4.104-33.808,7.08-55.92,7.68V23.368z M256,119.784
				c24.448-0.624,44.936-3.952,61.72-8.576c5.576,16.584,9.328,35.496,10.096,56.792H256V119.784z M448,184v96H48v-96H448z
				 M168.176,168c0.752-21.36,4.448-40.272,9.936-56.832c16.824,4.648,37.36,7.992,61.888,8.616V168H168.176z M240,23.192v80.592
				c-22.216-0.608-40.864-3.608-56.144-7.736C200.176,58.12,225.224,34.592,240,23.192z M220.624,18.52
				c-16.304,14.456-37.576,38.232-52.096,72.688c-21.52-7.864-34.216-17.2-39.536-21.768C152.504,43.2,184.464,24.792,220.624,18.52
				z M118.88,81.912c6.776,5.808,20.952,16.008,43.96,24.408c-5.952,17.984-9.904,38.52-10.656,61.68H88.408
				C90.008,135.904,101.04,106.328,118.88,81.912z M328,480H168v-48h160V480z M480,392c0,13.232-10.768,24-24,24H40
				c-13.232,0-24-10.768-24-24v-8h464V392z M480,368H16V104c0-13.232,10.768-24,24-24h60.6c-16.688,25.536-26.944,55.632-28.4,88H32
				v128h432V168h-40.2c-1.456-32.368-11.712-62.464-28.4-88H456c13.232,0,24,10.768,24,24V368z"/>
		</g>
	</g>
</g>
<g>
</g>
<g>
</g>
<g>
</g>
<g>
</g>
<g>
</g>
<g>
</g>
<g>
</g>
<g>
</g>
<g>
</g>
<g>
</g>
<g>
</g>
<g>
</g>
<g>
</g>
<g>
</g>
<g>
</g>
</svg>
