<?xml version="1.0" encoding="iso-8859-1"?>
<!-- Generator: Adobe Illustrator 19.0.0, SVG Export Plug-In . SVG Version: 6.00 Build 0)  -->
<svg version="1.1" id="Capa_1" xmlns="http://www.w3.org/2000/svg" xmlns:xlink="http://www.w3.org/1999/xlink" x="0px" y="0px"
	 viewBox="0 0 15.894 15.894" style="enable-background:new 0 0 15.894 15.894;" xml:space="preserve">
<g>
	<g>
		<path d="M8.894,0.947c-2.812,0-5.235,1.67-6.347,4.068L1.789,3.5L0,4.394l2,4C2.133,8.659,2.376,8.852,2.664,8.92
			c0.077,0.018,0.154,0.027,0.23,0.027c0.214,0,0.425-0.069,0.6-0.2l4-3l-1.2-1.6L4.61,5.41c0.872-1.467,2.457-2.463,4.284-2.463
			c2.757,0,5,2.243,5,5s-2.243,5-5,5v2c3.86,0,7-3.14,7-7S12.754,0.947,8.894,0.947z"/>
		<path d="M12.449,9.115L9.894,7.412V4.947h-2v3c0,0.334,0.167,0.646,0.445,0.832l3,2L12.449,9.115z"/>
	</g>
</g>
<g>
</g>
<g>
</g>
<g>
</g>
<g>
</g>
<g>
</g>
<g>
</g>
<g>
</g>
<g>
</g>
<g>
</g>
<g>
</g>
<g>
</g>
<g>
</g>
<g>
</g>
<g>
</g>
<g>
</g>
</svg>
