<?xml version="1.0" encoding="iso-8859-1"?>
<!-- Generator: Adobe Illustrator 19.0.0, SVG Export Plug-In . SVG Version: 6.00 Build 0)  -->
<svg version="1.1" id="Layer_1" xmlns="http://www.w3.org/2000/svg" xmlns:xlink="http://www.w3.org/1999/xlink" x="0px" y="0px"
	 viewBox="0 0 495 495" style="enable-background:new 0 0 495 495;" xml:space="preserve">
<g>
	<path style="fill:#FFDAAA;" d="M247.5,301.692H115.49c5.951,39.448,29.228,73.288,61.803,93.51H247.5V301.692z"/>
	<path style="fill:#FFC477;" d="M247.5,395.202h70.207c32.575-20.222,55.852-54.062,61.803-93.51H247.5V395.202z"/>
	<path style="fill:#B3D8F4;" d="M202.5,81.354c0-33.085-26.916-60.001-60-60.001s-60,26.916-60,60.001v30h40v-30
		c0-11.028,8.972-20.001,20-20.001s20,8.973,20,20.001v180.339h40V81.354z"/>
	<path style="fill:#96C8EF;" d="M332.5,81.354c0-11.028,8.972-20.001,20-20.001s20,8.973,20,20.001v30h40v-30
		c0-33.085-26.916-60.001-60-60.001s-60,26.916-60,60.001v180.339h40V81.354z"/>
	<rect x="227.5" style="fill:#B3D8F4;" width="40" height="111.354"/>
	<rect x="227.5" y="141.354" style="fill:#B3D8F4;" width="40" height="120.339"/>
	<rect x="82.5" y="141.354" style="fill:#B3D8F4;" width="40" height="50.339"/>
	<rect x="372.5" y="141.354" style="fill:#96C8EF;" width="40" height="50.339"/>
	<rect y="395.202" style="fill:#C0AB91;" width="247.5" height="99.798"/>
	<rect x="247.5" y="395.202" style="fill:#B39A7C;" width="247.5" height="99.798"/>
	<rect x="72.5" y="261.692" style="fill:#B39A7C;" width="350" height="40"/>
</g>
<g>
</g>
<g>
</g>
<g>
</g>
<g>
</g>
<g>
</g>
<g>
</g>
<g>
</g>
<g>
</g>
<g>
</g>
<g>
</g>
<g>
</g>
<g>
</g>
<g>
</g>
<g>
</g>
<g>
</g>
</svg>
