<?xml version="1.0" encoding="iso-8859-1"?>
<!-- Generator: Adobe Illustrator 19.0.0, SVG Export Plug-In . SVG Version: 6.00 Build 0)  -->
<svg version="1.1" id="Layer_1" xmlns="http://www.w3.org/2000/svg" xmlns:xlink="http://www.w3.org/1999/xlink" x="0px" y="0px"
	 viewBox="0 0 480 480" style="enable-background:new 0 0 480 480;" xml:space="preserve">
<g transform="translate(0 -540.36)">
	<g shape-rendering="auto" image-rendering="auto" color-rendering="auto" color-interpolation="sRGB">
		<path style="fill:#3B3C3D;" d="M66.663,723.72v26.965l0,0l0,0l0,0v59.342h47.613h251.451h0.006h47.606v-59.338l0,0l0,0l0,0V723.72
			H66.666H66.663z M0.005,750.698l28.562,43.15l0,0l0,0l0,0l0,0l0,0l0,0l0,0l0,0l0,0L0.005,836.997h114.232l-47.588-26.96l0,0l0,0
			l0,0l0,0l0,0l0,0l0,0l0,0l0,0l0,0l0,0v-59.339H0.01L0.005,750.698z M413.357,750.698v59.338l0,0l0,0l0,0l0,0l0,0l0,0l0,0l0,0l0,0
			l0,0l0,0l0,0h-0.006l-47.584,26.959h114.232l-28.562-43.149l0,0l0,0l0,0l0,0l0,0l0,0l0,0l0,0l0,0l28.562-43.15h-66.639
			L413.357,750.698z M66.69,810.049l47.573,26.951v-26.951C114.263,810.049,66.69,810.049,66.69,810.049z M365.737,810.049v26.951
			l47.572-26.951H365.737z"/>
		<path style="fill:#E74C3C;" d="M66.69,810.049h47.573V837L66.69,810.049z"/>
		<path style="fill:#B93D30;" d="M67.023,810.049l47.24,2.57v-2.57H67.023z"/>
		<path style="fill:#E74C3C;" d="M413.31,810.049h-47.573V837L413.31,810.049z"/>
		<path style="fill:#B93D30;" d="M365.736,810.049v2.57l47.242-2.57H365.736z"/>
		<path style="fill:#E74C3C;" d="M479.995,750.697h-66.639v59.339l0,0l0,0l0,0l0,0l0,0l0,0l0,0l0,0l0,0l0,0l0,0l-47.588,26.96H480
			l-28.562-43.149l0,0l0,0l0,0l0,0l0,0l0,0l0,0l0,0l0,0L480,750.697H479.995z"/>
		<path style="fill:#B93D30;" d="M413.355,750.697v59.34c-15.853,8.984-31.722,17.972-47.586,26.959h0.33l50.852-24.029l0.002-0.002
			v-62.268L413.355,750.697z"/>
		<g>
			<path style="fill:#E74C3C;" d="M66.663,723.719h346.673v26.968l0,0l0,0l0,0v59.338h-47.606h-0.006H114.274H66.661v-59.342l0,0
				l0,0l0,0v-26.965H66.663z"/>
			<path style="fill:#E74C3C;" d="M0.005,750.697h66.639v59.339l0,0l0,0l0,0l0,0l0,0l0,0l0,0l0,0l0,0l0,0l0,0l47.588,26.96H0
				l28.562-43.149l0,0l0,0l0,0l0,0l0,0l0,0l0,0l0,0l0,0L0,750.697L0.005,750.697z"/>
		</g>
		<path style="fill:#B93D30;" d="M63.047,750.697v62.27h8.77l-5.172-2.93v-59.34H63.047z M63.076,812.988l50.463,23.615
			l-41.686-23.615C71.853,812.988,63.076,812.988,63.076,812.988z"/>
	</g>
	<g>
		<path style="fill:#B93D30;" d="M143.415,773.389h-10.411v16.772h-9.545v-44.803h23.09v10.667h-13.545v7.287h10.41L143.415,773.389
			L143.415,773.389z"/>
		<path style="fill:#B93D30;" d="M176.841,779.166v10.996h-22.388v-44.803h9.802v33.807L176.841,779.166L176.841,779.166z"/>
		<path style="fill:#B93D30;" d="M202.687,790.162l-1.801-8.829h-8.562l-1.918,8.829h-7.954l9.872-44.803h10.364l9.989,44.803
			H202.687L202.687,790.162z M193.984,771.551h5.194l-2.597-12.998L193.984,771.551z"/>
		<path style="fill:#B93D30;" d="M231.855,756.092v34.07h-9.288v-34.07h-6.621v-10.733h22.529v10.733H231.855L231.855,756.092z"/>
		<path style="fill:#B93D30;" d="M284.67,756.42h-13.382l-0.374,6.335c1.731-1.685,3.65-2.527,5.755-2.527
			c2.776,0,5.201,1.335,7.276,4.004c2.074,2.67,3.111,6.236,3.111,10.7c0,4.705-1.209,8.534-3.626,11.488
			c-2.417,2.954-5.505,4.431-9.264,4.431c-3.275,0-6.114-1.203-8.516-3.611c-2.386-2.429-3.852-5.81-4.398-10.142l8.235-1.411
			c0.546,3.26,2.035,4.891,4.468,4.891c1.232,0,2.191-0.525,2.878-1.576c0.702-1.05,1.053-2.33,1.053-3.84
			c0-1.707-0.398-3.042-1.193-4.004c-0.795-0.963-1.739-1.444-2.831-1.444c-1.622,0-2.87,0.941-3.743,2.823l-7.322-1.444
			l1.404-25.733h21.312L284.67,756.42z"/>
		<path style="fill:#B93D30;" d="M306.937,790.851c-3.852,0-6.901-2.122-9.147-6.368c-2.246-4.267-3.369-9.869-3.369-16.805
			c0-7.112,1.146-12.724,3.439-16.838c2.308-4.114,5.389-6.171,9.241-6.171c4.039,0,7.135,2.199,9.288,6.597
			c2.152,4.376,3.228,9.978,3.228,16.805c0,6.958-1.162,12.494-3.486,16.608C313.823,788.794,310.758,790.851,306.937,790.851
			L306.937,790.851z M307.031,781.332c1.341,0,2.238-1.193,2.69-3.578c0.452-2.407,0.678-5.689,0.678-9.847
			c0-5.711-0.304-9.442-0.912-11.193c-0.593-1.751-1.404-2.626-2.433-2.626c-1.248,0-2.113,1.16-2.597,3.479
			c-0.468,2.298-0.702,5.47-0.702,9.519c0,5.492,0.234,9.245,0.702,11.258C304.941,780.337,305.798,781.332,307.031,781.332z"/>
		<path style="fill:#B93D30;" d="M333.719,768.072c-1.981,0-3.556-1.05-4.726-3.151c-1.154-2.122-1.731-4.934-1.731-8.435
			c0-3.567,0.593-6.368,1.778-8.403c1.201-2.057,2.792-3.085,4.772-3.085c2.059,0,3.65,1.094,4.772,3.282
			c1.123,2.166,1.684,4.967,1.684,8.403c0,3.501-0.6,6.28-1.801,8.337C337.267,767.055,335.684,768.072,333.719,768.072
			L333.719,768.072z M333.743,763.182c1.107,0,1.661-2.188,1.661-6.565c0-1.991-0.109-3.611-0.328-4.858
			c-0.203-1.247-0.639-1.871-1.31-1.871c-1.076,0-1.614,2.112-1.614,6.335c0,2.604,0.109,4.42,0.328,5.449
			C332.713,762.678,333.134,763.182,333.743,763.182z M354.704,745.359l-19.394,44.803h-4.422l19.534-44.803H354.704
			L354.704,745.359z M351.897,790.49c-1.965,0-3.533-1.05-4.702-3.151c-1.154-2.123-1.731-4.934-1.731-8.435
			c0-3.567,0.593-6.379,1.778-8.435c1.185-2.057,2.768-3.085,4.749-3.085c1.918,0,3.47,1.028,4.655,3.085
			c1.201,2.035,1.801,4.912,1.801,8.632c0,3.479-0.6,6.247-1.801,8.304C355.445,789.461,353.862,790.49,351.897,790.49z
			 M351.943,785.599c1.107,0,1.661-2.188,1.661-6.565c0-1.991-0.101-3.61-0.304-4.858c-0.203-1.269-0.639-1.904-1.31-1.904
			c-1.092,0-1.638,2.101-1.638,6.302c0,2.67,0.109,4.508,0.328,5.514C350.914,785.096,351.335,785.599,351.943,785.599
			L351.943,785.599z"/>
		<g shape-rendering="auto" image-rendering="auto" color-rendering="auto" color-interpolation="sRGB">
			<path style="fill:#B93D30;" d="M90.242,762.791v9.934h18.66v-9.934C108.902,762.791,90.242,762.791,90.242,762.791z"/>
			<path style="fill:#B93D30;" d="M373.002,762.791v9.934h18.66v-9.934H373.002z"/>
		</g>
	</g>
	<g>
		<path style="fill:#FFFFFF;" d="M142.462,772.504h-10.411v16.772h-9.545v-44.803h23.09v10.667h-13.545v7.287h10.41L142.462,772.504
			L142.462,772.504z"/>
		<path style="fill:#FFFFFF;" d="M175.888,778.28v10.996h-22.388v-44.803h9.802v33.807H175.888z"/>
		<path style="fill:#FFFFFF;" d="M201.734,789.276l-1.801-8.829h-8.562l-1.918,8.829h-7.954l9.872-44.803h10.364l9.989,44.803
			H201.734L201.734,789.276z M193.031,770.665h5.194l-2.597-12.998L193.031,770.665z"/>
		<path style="fill:#FFFFFF;" d="M230.902,755.206v34.07h-9.288v-34.07h-6.621v-10.733h22.529v10.733H230.902L230.902,755.206z"/>
		<path style="fill:#FFFFFF;" d="M283.717,755.534h-13.382l-0.374,6.335c1.731-1.685,3.65-2.527,5.755-2.527
			c2.776,0,5.201,1.335,7.276,4.004c2.074,2.67,3.111,6.236,3.111,10.7c0,4.705-1.209,8.534-3.626,11.488
			c-2.417,2.954-5.505,4.431-9.264,4.431c-3.275,0-6.114-1.203-8.516-3.611c-2.386-2.429-3.852-5.81-4.398-10.142l8.235-1.411
			c0.546,3.26,2.035,4.891,4.468,4.891c1.232,0,2.191-0.525,2.878-1.576c0.702-1.05,1.053-2.33,1.053-3.84
			c0-1.707-0.398-3.042-1.193-4.004c-0.795-0.963-1.739-1.444-2.831-1.444c-1.622,0-2.87,0.941-3.743,2.823l-7.322-1.444
			l1.404-25.733h21.312L283.717,755.534z"/>
		<path style="fill:#FFFFFF;" d="M305.984,789.965c-3.852,0-6.901-2.122-9.147-6.368c-2.246-4.267-3.369-9.869-3.369-16.805
			c0-7.112,1.146-12.724,3.439-16.838c2.308-4.114,5.389-6.171,9.241-6.171c4.039,0,7.135,2.199,9.288,6.597
			c2.152,4.376,3.228,9.978,3.228,16.805c0,6.958-1.162,12.494-3.486,16.608C312.87,787.908,309.805,789.965,305.984,789.965
			L305.984,789.965z M306.078,780.447c1.341,0,2.238-1.193,2.69-3.578c0.452-2.407,0.678-5.689,0.678-9.847
			c0-5.711-0.304-9.442-0.912-11.193c-0.593-1.751-1.404-2.626-2.433-2.626c-1.248,0-2.113,1.16-2.597,3.479
			c-0.468,2.298-0.702,5.47-0.702,9.519c0,5.492,0.234,9.245,0.702,11.258C303.988,779.451,304.845,780.447,306.078,780.447z"/>
		<path style="fill:#FFFFFF;" d="M332.766,767.186c-1.981,0-3.556-1.05-4.726-3.151c-1.154-2.122-1.731-4.934-1.731-8.435
			c0-3.567,0.593-6.368,1.778-8.403c1.201-2.057,2.792-3.085,4.772-3.085c2.059,0,3.65,1.094,4.772,3.282
			c1.123,2.166,1.684,4.967,1.684,8.403c0,3.501-0.6,6.28-1.801,8.337C336.314,766.169,334.731,767.186,332.766,767.186
			L332.766,767.186z M332.789,762.296c1.107,0,1.661-2.188,1.661-6.565c0-1.991-0.109-3.611-0.328-4.858
			c-0.203-1.247-0.639-1.871-1.31-1.871c-1.076,0-1.614,2.112-1.614,6.335c0,2.604,0.109,4.42,0.328,5.449
			C331.76,761.792,332.181,762.296,332.789,762.296z M353.751,744.473l-19.394,44.803h-4.422l19.534-44.803H353.751L353.751,744.473
			z M350.944,789.604c-1.965,0-3.533-1.05-4.702-3.151c-1.154-2.122-1.731-4.934-1.731-8.435c0-3.567,0.593-6.379,1.778-8.435
			c1.185-2.057,2.768-3.085,4.749-3.085c1.918,0,3.47,1.028,4.655,3.085c1.201,2.035,1.801,4.912,1.801,8.632
			c0,3.479-0.6,6.247-1.801,8.304C354.492,788.576,352.909,789.604,350.944,789.604z M350.99,784.714
			c1.107,0,1.661-2.188,1.661-6.565c0-1.991-0.101-3.61-0.304-4.858c-0.203-1.269-0.639-1.904-1.31-1.904
			c-1.092,0-1.638,2.101-1.638,6.302c0,2.67,0.109,4.508,0.328,5.514C349.961,784.21,350.382,784.714,350.99,784.714L350.99,784.714
			z"/>
		<g shape-rendering="auto" image-rendering="auto" color-rendering="auto" color-interpolation="sRGB">
			<path style="fill:#FFFFFF;" d="M89.289,761.906v9.934h18.66v-9.934H89.289z"/>
			<path style="fill:#FFFFFF;" d="M372.049,761.906v9.934h18.66v-9.934H372.049z"/>
		</g>
	</g>
</g>
<g>
</g>
<g>
</g>
<g>
</g>
<g>
</g>
<g>
</g>
<g>
</g>
<g>
</g>
<g>
</g>
<g>
</g>
<g>
</g>
<g>
</g>
<g>
</g>
<g>
</g>
<g>
</g>
<g>
</g>
</svg>
