<?xml version="1.0" encoding="iso-8859-1"?>
<!-- Generator: Adobe Illustrator 19.0.0, SVG Export Plug-In . SVG Version: 6.00 Build 0)  -->
<svg version="1.1" id="Layer_1" xmlns="http://www.w3.org/2000/svg" xmlns:xlink="http://www.w3.org/1999/xlink" x="0px" y="0px"
	 viewBox="0 0 480 480" style="enable-background:new 0 0 480 480;" xml:space="preserve">
<g transform="translate(0 -540.36)">
	<g>
		<g shape-rendering="auto" image-rendering="auto" color-rendering="auto" color-interpolation="sRGB">
			<path style="fill:#DADFE1;" d="M333.742,711.268l99.585,58.219L480,995.599l-125.642-76.611L333.742,711.268z"/>
			<path style="fill:#ECF0F1;" d="M333.589,711.28l20.616,207.732l-121.06,96.54l29.068-230.729L333.589,711.28z"/>
			<path style="fill:#DADFE1;" d="M165.924,715.107l96.135,69.706l-29.068,230.735l-132.535-95.764L165.924,715.107z"/>
			<path style="fill:#ECF0F1;" d="M165.741,715.206l-65.431,204.54L0,1000.145l69.264-183.871L165.741,715.206z"/>
		</g>
		<path style="fill:#E74C3C;" d="M184.347,654.662l0.475,190.807l63.602-152.646L184.347,654.662z"/>
	</g>
	<path style="fill:#B93D30;" d="M184.347,654.663l0.039,16.002c4.896,28.026,21.024,52.838,44.65,68.689l19.389-46.531
		L184.347,654.663L184.347,654.663z"/>
	<path style="fill:#E74C3C;" d="M392.864,649.507c0,57.625-46.714,104.339-104.339,104.339s-104.339-46.714-104.339-104.339
		c0-57.625,46.714-104.339,104.339-104.339S392.864,591.882,392.864,649.507z"/>
	<path style="fill:#ECECEC;" d="M375.505,649.507c0,48.037-38.942,86.979-86.979,86.979l0,0c-48.037,0-86.979-38.942-86.979-86.979
		l0,0c0-48.037,38.942-86.979,86.979-86.979l0,0C336.563,562.527,375.505,601.469,375.505,649.507L375.505,649.507z"/>
	<path style="fill:#E74C3C;" d="M336.934,595.914l2.019,1.995c2.237,2.211,2.257,5.791,0.046,8.028
		c-2.211,2.236-5.792,2.257-8.028,0.046l-2.019-1.995c-2.237-2.211-2.257-5.791-0.046-8.028
		C331.117,593.724,334.698,593.703,336.934,595.914L336.934,595.914z"/>
	<path style="fill:#C0392B;" d="M341.327,600.632c-1.487-1.463-3.688-2.214-6.264-1.882l-34.715,4.49
		c-0.75,0.097-1.492,0.275-2.209,0.532c-1.739,0.362-3.392,1.228-4.739,2.591l-52.66,53.305c-3.647,3.691-3.604,9.61,0.097,13.271
		l29.39,29.076c3.7,3.661,9.615,3.636,13.262-0.055l52.66-53.305c1.347-1.363,2.184-3.035,2.526-4.78
		c0.248-0.721,0.426-1.457,0.514-2.209l4.081-34.797C343.574,604.289,342.81,602.099,341.327,600.632L341.327,600.632z"/>
	<path style="fill:#E74C3C;" d="M337.009,596.36c-1.487-1.463-3.688-2.214-6.264-1.882l-34.715,4.49
		c-0.75,0.097-1.492,0.275-2.209,0.532c-1.739,0.362-3.392,1.228-4.739,2.591l-52.66,53.305c-3.647,3.691-3.604,9.61,0.097,13.271
		l29.39,29.076c3.7,3.661,9.615,3.636,13.262-0.055l52.66-53.305c1.347-1.363,2.184-3.035,2.526-4.78
		c0.248-0.721,0.426-1.457,0.514-2.209l4.081-34.797C339.255,600.017,338.492,597.827,337.009,596.36L337.009,596.36z"/>
	<path style="fill:#FFFFFF;" d="M330.322,616.004c-3.38,3.418-8.891,3.449-12.31,0.07c-3.419-3.38-3.45-8.891-0.07-12.309
		c3.38-3.419,8.891-3.451,12.31-0.072c0,0,0.001,0.001,0.001,0.002C333.67,607.074,333.702,612.585,330.322,616.004
		C330.322,616.004,330.322,616.004,330.322,616.004L330.322,616.004z"/>
	<path style="fill:#D9D9D9;" d="M328.596,614.297c-2.437,2.466-6.411,2.489-8.877,0.052c0,0-0.001-0.001,0-0.001
		c-2.465-2.437-2.488-6.412-0.051-8.877c2.437-2.466,6.411-2.489,8.877-0.052c0,0,0.001,0.001,0,0.001
		C331.01,607.858,331.033,611.832,328.596,614.297z"/>
	<g shape-rendering="auto" image-rendering="auto" color-rendering="auto" color-interpolation="sRGB">
		<path style="fill:#ECECEC;" d="M303.087,623.526l-6.34,6.34c-4.698-1.812-10.276-0.837-14.032,2.924
			c-5.06,5.067-5.061,13.432,0,18.498l2.471-2.466l-2.464,2.473c0.762,0.759,0.981,1.863,0.571,2.857
			c-0.411,0.994-1.347,1.626-2.423,1.627s-2.011-0.634-2.423-1.627c-0.41-0.995-0.196-2.089,0.564-2.849l-7.405-7.405
			c-3.672,3.672-4.802,9.202-2.917,14.024l-6.333,6.333l7.405,7.405l6.349-6.349c1.497,0.587,3.101,0.934,4.766,0.933
			c5.283-0.004,10.075-3.217,12.091-8.099c2.013-4.876,0.887-10.524-2.842-14.254c-1.065-1.066-1.072-2.629-0.007-3.695
			c1.064-1.066,2.635-1.078,3.703-0.015c1.065,1.065,1.069,2.641,0.007,3.71l7.441,7.369c3.73-3.755,4.682-9.306,2.881-13.988
			l6.34-6.34L303.087,623.526L303.087,623.526z"/>
		<path style="fill:#C9C9C9;" d="M303.087,623.526l-6.34,6.34c-4.698-1.812-10.276-0.837-14.032,2.924
			c-5.06,5.067-5.061,13.432,0,18.499l0.123-0.123c-4.893-4.898-4.891-12.983,0-17.881c3.63-3.636,9.023-4.58,13.564-2.828
			l6.128-6.128l7.159,7.159l-6.128,6.128c1.711,4.448,0.837,9.698-2.615,13.323l0.325,0.321c3.73-3.755,4.682-9.306,2.881-13.988
			l6.34-6.34L303.087,623.526L303.087,623.526z M289.501,641.142c-0.473,0.941-0.311,2.055,0.504,2.871
			c3.605,3.606,4.694,9.065,2.748,13.779c-1.949,4.72-6.585,7.826-11.691,7.829c-1.609,0.001-3.157-0.335-4.604-0.902l-6.137,6.137
			l-7.159-7.159l6.12-6.12c-1.791-4.579-0.753-9.808,2.649-13.357l-0.323-0.323c-3.672,3.672-4.802,9.202-2.917,14.025l-6.333,6.333
			l7.405,7.405l6.349-6.349c1.497,0.587,3.101,0.934,4.766,0.933c5.283-0.004,10.075-3.217,12.091-8.099
			c2.013-4.876,0.887-10.524-2.842-14.254C289.348,643.111,289.142,642.066,289.501,641.142L289.501,641.142z M282.845,651.173
			l-0.123,0.123c0.742,0.74,0.959,1.806,0.591,2.779c0.025-0.05,0.063-0.09,0.084-0.142
			C283.794,652.972,283.582,651.907,282.845,651.173L282.845,651.173z"/>
	</g>
	<path style="fill:#C9C9C9;" d="M288.524,562.527c-48.037,0.001-86.978,38.943-86.977,86.98c0,48.037,38.94,86.979,86.977,86.98
		c48.037,0,86.98-38.941,86.98-86.979c0,0,0-0.001,0-0.001c0-48.037-38.941-86.98-86.979-86.98
		C288.525,562.527,288.525,562.527,288.524,562.527L288.524,562.527z M288.524,565.595c46.343,0,83.911,37.567,83.911,83.91
		c0,0,0,0.001,0,0.001c0,46.343-37.567,83.911-83.91,83.911c0,0-0.001,0-0.001,0c-46.342-0.001-83.909-37.569-83.908-83.911
		C204.615,603.165,242.182,565.597,288.524,565.595L288.524,565.595z"/>
</g>
<g>
</g>
<g>
</g>
<g>
</g>
<g>
</g>
<g>
</g>
<g>
</g>
<g>
</g>
<g>
</g>
<g>
</g>
<g>
</g>
<g>
</g>
<g>
</g>
<g>
</g>
<g>
</g>
<g>
</g>
</svg>
