<?xml version="1.0" encoding="iso-8859-1"?>
<!-- Generator: Adobe Illustrator 19.0.0, SVG Export Plug-In . SVG Version: 6.00 Build 0)  -->
<svg version="1.1" id="Layer_1" xmlns="http://www.w3.org/2000/svg" xmlns:xlink="http://www.w3.org/1999/xlink" x="0px" y="0px"
	 viewBox="0 0 512.002 512.002" style="enable-background:new 0 0 512.002 512.002;" xml:space="preserve">
<g>
	<g>
		<path d="M500.626,323.585c-18.978-17.894-55.671-16.478-56.619-16.375c-97.151-3.137-144.085-38.148-154.202-46.757
			c-1.961-12.181-12.546-21.518-25.271-21.518v-25.6c0-4.719-3.814-8.533-8.533-8.533c-9.412,0-17.067-7.654-17.067-17.067
			c0-9.412,7.654-17.067,17.067-17.067c9.412,0,17.067,7.654,17.067,17.067c0,4.719,3.814,8.533,8.533,8.533
			s8.533-3.814,8.533-8.533c0-18.825-15.309-34.133-34.133-34.133s-34.133,15.309-34.133,34.133c0,15.872,10.888,29.261,25.6,33.05
			v18.15c-12.737,0-23.33,9.355-25.277,21.552c-6.528,5.625-28.534,22.444-70.014,34.341c-0.662,0.111-1.301,0.289-1.902,0.543
			c-21.785,6.08-48.807,10.773-81.623,11.839c-1.596-0.06-38.298-1.502-57.276,16.375c-7.398,6.963-11.221,15.77-11.375,26.155
			c-0.068,4.719,3.703,8.593,8.405,8.661h0.128c4.659,0,8.465-3.738,8.533-8.405c0.085-5.666,2.039-10.24,5.99-13.969
			c11.366-10.743,36.215-12.058,45.483-11.767c29.859-0.962,55.235-4.763,76.528-9.929v9.904c0,4.727-3.84,8.567-8.567,8.567h-8.499
			c-4.719,0-8.533,3.814-8.533,8.533s3.814,8.533,8.533,8.533h8.499c14.131,0,25.634-11.503,25.634-25.634V309.66
			c32.223-9.869,53.002-22.477,64.2-30.698c4.616,6.739,12.366,11.172,21.132,11.172h17.067c8.768,0,16.52-4.435,21.136-11.177
			c11.191,8.204,31.954,20.781,64.198,30.643v14.633c0,14.131,11.503,25.634,25.634,25.634h8.499c4.719,0,8.533-3.814,8.533-8.533
			s-3.814-8.533-8.533-8.533h-8.499c-4.727,0-8.568-3.84-8.568-8.567v-9.969c21.439,5.2,47.025,9.029,77.175,9.995
			c8.585-0.393,33.476,1.033,44.834,11.767c3.951,3.729,5.905,8.303,5.99,13.969c0.068,4.668,3.874,8.405,8.533,8.405h0.128
			c4.702-0.068,8.474-3.942,8.405-8.661C511.847,339.354,508.024,330.548,500.626,323.585z M264.534,273.068h-17.067
			c-4.71,0-8.533-3.823-8.533-8.533s3.823-8.533,8.533-8.533h17.067c4.71,0,8.533,3.823,8.533,8.533
			S269.245,273.068,264.534,273.068z"/>
	</g>
</g>
<g>
</g>
<g>
</g>
<g>
</g>
<g>
</g>
<g>
</g>
<g>
</g>
<g>
</g>
<g>
</g>
<g>
</g>
<g>
</g>
<g>
</g>
<g>
</g>
<g>
</g>
<g>
</g>
<g>
</g>
</svg>
