<?xml version="1.0" encoding="iso-8859-1"?>
<!-- Generator: Adobe Illustrator 18.0.0, SVG Export Plug-In . SVG Version: 6.00 Build 0)  -->
<!DOCTYPE svg PUBLIC "-//W3C//DTD SVG 1.1//EN" "http://www.w3.org/Graphics/SVG/1.1/DTD/svg11.dtd">
<svg version="1.1" id="Capa_1" xmlns="http://www.w3.org/2000/svg" xmlns:xlink="http://www.w3.org/1999/xlink" x="0px" y="0px"
	 viewBox="0 0 300.635 300.635" style="enable-background:new 0 0 300.635 300.635;" xml:space="preserve">
<g>
	<path d="M90.025,53.023h3.37c14.057,0,26.104,9.561,29.298,23.249l1.612,6.916h126.07l18.058-11.056
		c3.393-2.078,5.821-5.418,6.752-9.286c0.93-3.868,0.285-7.947-1.792-11.34L251.469,15.7c-4.326-7.065-13.561-9.285-20.625-4.96
		L173.75,45.697L154.292,8.108c-3.809-7.357-12.859-10.234-20.217-6.426L91.695,23.621c-7.356,3.809-10.233,12.859-6.425,20.217
		L90.025,53.023z"/>
	<path d="M272.161,104.211c-3.059-3.809-7.681-6.023-12.564-6.023H112.402l-4.317-18.509c-1.593-6.827-7.681-11.656-14.689-11.656
		H40.004c-8.33,0-15.083,6.752-15.083,15.082c0,8.33,6.753,15.083,15.083,15.083h23.798l25.905,117.438
		c2.488,11.281,12.486,19.314,24.041,19.314H229.71c11.553,0,21.552-8.033,24.04-19.314l21.586-97.849
		C276.387,113.007,275.221,108.018,272.161,104.211z"/>
	<circle cx="134.022" cy="275.81" r="24.825"/>
	<circle cx="209.438" cy="275.81" r="24.825"/>
</g>
<g>
</g>
<g>
</g>
<g>
</g>
<g>
</g>
<g>
</g>
<g>
</g>
<g>
</g>
<g>
</g>
<g>
</g>
<g>
</g>
<g>
</g>
<g>
</g>
<g>
</g>
<g>
</g>
<g>
</g>
</svg>
