<?xml version="1.0" encoding="iso-8859-1"?>
<!-- Generator: Adobe Illustrator 19.0.0, SVG Export Plug-In . SVG Version: 6.00 Build 0)  -->
<svg version="1.1" id="Layer_1" xmlns="http://www.w3.org/2000/svg" xmlns:xlink="http://www.w3.org/1999/xlink" x="0px" y="0px"
	 viewBox="0 0 512 512" style="enable-background:new 0 0 512 512;" xml:space="preserve">
<rect y="57.332" width="512" height="397.336"/>
<circle style="fill:#E21B1B;" cx="44.192" cy="89.38" r="8.928"/>
<g style="opacity:0.7;">
	<circle style="fill:#FFFFFF;" cx="70.968" cy="89.38" r="8.928"/>
</g>
<g>
	<circle style="fill:#666666;" cx="97.736" cy="89.38" r="8.928"/>
	<polygon style="fill:#666666;" points="443.52,105.06 155.96,105.06 175.08,73.716 462.656,73.716 	"/>
</g>
<g>
	<path style="fill:#FFFFFF;" d="M195.2,82.396l1.856,7.128c0.408,1.56,0.8,3.008,1.048,4.456h0.096c0.312-1.416,0.8-2.92,1.24-4.424
		l2.296-7.16h2.144l2.168,7.008c0.52,1.672,0.928,3.16,1.248,4.576h0.088c0.28-1.536,0.64-3.048,1.08-4.544l2.008-7.04h2.52
		l-4.52,14.016h-2.312l-2.144-6.688c-0.488-1.6-0.896-2.952-1.248-4.616h-0.056c-0.336,1.568-0.76,3.12-1.28,4.64l-2.264,6.664
		h-2.312l-4.224-14.016H195.2z"/>
	<path style="fill:#FFFFFF;" d="M216.856,82.396l1.856,7.128c0.408,1.56,0.8,3.008,1.048,4.456h0.088
		c0.32-1.416,0.8-2.92,1.248-4.424l2.28-7.16h2.144l2.176,7.008c0.52,1.672,0.928,3.16,1.24,4.576h0.096
		c0.272-1.536,0.632-3.056,1.08-4.544l2.008-7.04h2.52l-4.52,14.016h-2.328l-2.144-6.688c-0.496-1.512-0.912-3.056-1.24-4.616
		h-0.064c-0.328,1.568-0.752,3.12-1.272,4.64l-2.264,6.664h-2.328l-4.232-14.016H216.856z"/>
	<path style="fill:#FFFFFF;" d="M238.488,82.396l1.856,7.128c0.408,1.56,0.8,3.008,1.048,4.456h0.088
		c0.32-1.416,0.8-2.92,1.248-4.424l2.28-7.16h2.144l2.176,7.008c0.52,1.672,0.928,3.16,1.24,4.576h0.096
		c0.272-1.536,0.632-3.056,1.08-4.544l2.008-7.04h2.52l-4.52,14.016h-2.328l-2.152-6.688c-0.496-1.512-0.912-3.056-1.24-4.616
		h-0.064c-0.328,1.568-0.752,3.12-1.272,4.64l-2.264,6.664h-2.328l-4.232-14.016H238.488z"/>
</g>
<g>
	<polygon style="fill:#666666;" points="0,423.58 82.856,423.58 113.944,454.66 0,454.66 	"/>
	<polygon style="fill:#666666;" points="512,423.58 429.144,423.58 398.056,454.66 512,454.66 	"/>
</g>
<rect x="404.816" y="340.844" style="fill:#6B6B6B;" width="34.568" height="8"/>
<rect x="212.776" y="340.844" style="fill:#FFFFFF;" width="51.856" height="8"/>
<g>
	<rect x="91.768" y="340.844" style="fill:#E21B1B;" width="69.152" height="8"/>
	<rect x="91.768" y="271.708" style="fill:#E21B1B;" width="69.152" height="8"/>
</g>
<rect x="195.496" y="271.708" style="fill:#6B6B6B;" width="69.144" height="8"/>
<rect x="281.92" y="271.708" style="fill:#E21B1B;" width="69.152" height="8"/>
<rect x="385.68" y="271.708" style="fill:#FFFFFF;" width="69.152" height="8"/>
<g>
	<rect x="333.792" y="306.236" style="fill:#E21B1B;" width="34.576" height="8"/>
	<rect x="247.36" y="306.236" style="fill:#E21B1B;" width="34.568" height="8"/>
</g>
<rect x="111.36" y="306.236" style="fill:#FFFFFF;" width="65" height="8"/>
<rect x="91.768" y="375.42" style="fill:#6B6B6B;" width="172.864" height="8"/>
<rect x="316.496" y="375.42" style="fill:#E21B1B;" width="69.152" height="8"/>
<rect x="333.792" y="237.132" style="fill:#FFFFFF;" width="34.576" height="8"/>
<rect x="247.36" y="237.132" style="fill:#E21B1B;" width="34.568" height="8"/>
<rect x="91.768" y="237.132" style="fill:#FFFFFF;" width="103.72" height="8"/>
<rect x="281.92" y="167.988" style="fill:#6B6B6B;" width="86.44" height="8"/>
<g>
	<rect x="212.776" y="167.988" style="fill:#FFFFFF;" width="34.584" height="8"/>
	<rect x="420.24" y="167.988" style="fill:#FFFFFF;" width="34.568" height="8"/>
</g>
<g>
	<rect x="74.48" y="167.988" style="fill:#E21B1B;" width="103.72" height="8"/>
	<rect x="299.2" y="202.548" style="fill:#E21B1B;" width="69.152" height="8"/>
	<rect x="230.056" y="202.548" style="fill:#E21B1B;" width="34.576" height="8"/>
</g>
<rect x="57.2" y="202.548" style="fill:#6B6B6B;" width="103.712" height="8"/>
<g>
</g>
<g>
</g>
<g>
</g>
<g>
</g>
<g>
</g>
<g>
</g>
<g>
</g>
<g>
</g>
<g>
</g>
<g>
</g>
<g>
</g>
<g>
</g>
<g>
</g>
<g>
</g>
<g>
</g>
</svg>
