<?xml version="1.0" encoding="iso-8859-1"?>
<!-- Generator: Adobe Illustrator 18.0.0, SVG Export Plug-In . SVG Version: 6.00 Build 0)  -->
<!DOCTYPE svg PUBLIC "-//W3C//DTD SVG 1.1//EN" "http://www.w3.org/Graphics/SVG/1.1/DTD/svg11.dtd">
<svg version="1.1" id="Capa_1" xmlns="http://www.w3.org/2000/svg" xmlns:xlink="http://www.w3.org/1999/xlink" x="0px" y="0px"
	 viewBox="0 0 297 297" style="enable-background:new 0 0 297 297;" xml:space="preserve">
<path d="M269.397,93.011C255.201,39.53,206.386,0,148.5,0C80.605,0,25.171,54.377,23.462,121.867
	c-10.386,14.917-16.486,33.031-16.486,52.545c0,5.504,4.463,9.966,9.966,9.966h65.155c5.266,10.531,15.571,24.434,34.752,30.89
	l-5.692,70.968c-0.223,2.773,0.724,5.513,2.61,7.557c1.887,2.045,4.542,3.207,7.324,3.207h54.815c2.78,0,5.434-1.161,7.32-3.203
	c1.887-2.042,2.835-4.779,2.615-7.551l-6.892-86.98c31.413-9.127,46.326-32.683,52.851-47.776h48.256
	c5.504,0,9.966-4.463,9.966-9.966C290.023,122.497,282.101,105.296,269.397,93.011z M148.5,19.933
	c40.599,0,75.877,23.143,93.39,56.919c-6.145-1.846-12.651-2.851-19.389-2.851c-25.265,0-47.316,13.957-58.89,34.558
	c-16.634-16.281-39.385-26.336-64.444-26.336c-19.465,0-37.537,6.069-52.433,16.407C58.493,53.416,99.656,19.933,148.5,19.933z
	 M99.166,102.156c36.462,0,66.703,27.146,71.572,62.29H27.595C32.463,129.302,62.704,102.156,99.166,102.156z M105.723,184.379
	h13.605l-0.806,10.056C113.058,191.755,108.881,188.128,105.723,184.379z M131.89,277.067l7.435-92.688h18.451l7.344,92.688H131.89z
	 M191.308,171.564c-0.211-6.907-1.181-13.626-2.837-20.074h21.063C205.62,158.172,199.795,165.596,191.308,171.564z
	 M180.768,131.557c-1.011-1.917-2.087-3.795-3.226-5.63c6.472-18.603,24.179-31.993,44.959-31.993
	c22.824,0,41.946,16.152,46.54,37.623H180.768z"/>
<g>
</g>
<g>
</g>
<g>
</g>
<g>
</g>
<g>
</g>
<g>
</g>
<g>
</g>
<g>
</g>
<g>
</g>
<g>
</g>
<g>
</g>
<g>
</g>
<g>
</g>
<g>
</g>
<g>
</g>
</svg>
