<?xml version="1.0" encoding="iso-8859-1"?>
<!-- Generator: Adobe Illustrator 18.0.0, SVG Export Plug-In . SVG Version: 6.00 Build 0)  -->
<!DOCTYPE svg PUBLIC "-//W3C//DTD SVG 1.1//EN" "http://www.w3.org/Graphics/SVG/1.1/DTD/svg11.dtd">
<svg version="1.1" id="Capa_1" xmlns="http://www.w3.org/2000/svg" xmlns:xlink="http://www.w3.org/1999/xlink" x="0px" y="0px"
	 viewBox="0 0 297 297" style="enable-background:new 0 0 297 297;" xml:space="preserve">
<path d="M265.435,244.414l-54.382-65.843h31.175c3.767,0,7.195-2.174,8.8-5.582c1.604-3.408,1.098-7.436-1.3-10.34l-54.383-65.843
	h17.042c3.767,0,7.195-2.174,8.8-5.582c1.604-3.408,1.098-7.436-1.3-10.34L156,3.533C154.152,1.296,151.402,0,148.5,0
	s-5.652,1.296-7.5,3.533L77.112,80.884c-2.399,2.904-2.905,6.932-1.3,10.34c1.605,3.408,5.034,5.582,8.8,5.582h17.042
	l-54.383,65.843c-2.399,2.904-2.905,6.932-1.3,10.34c1.605,3.408,5.034,5.582,8.8,5.582h31.175l-54.382,65.843
	c-2.399,2.904-2.905,6.932-1.3,10.34c1.605,3.408,5.034,5.582,8.8,5.582h68.483v26.936c0,5.372,4.356,9.728,9.728,9.728h62.45
	c5.372,0,9.728-4.356,9.728-9.728v-26.936h68.483c3.767,0,7.195-2.174,8.8-5.582C268.34,251.346,267.834,247.318,265.435,244.414z
	 M148.5,25.003l43.237,52.349h-86.473L148.5,25.003z M126.888,96.807h43.224l51.464,62.31H75.423L126.888,96.807z M169.998,277.545
	h-42.995v-17.208h42.995V277.545z M59.716,240.882l51.464-62.31h74.64l51.464,62.31H59.716z"/>
<g>
</g>
<g>
</g>
<g>
</g>
<g>
</g>
<g>
</g>
<g>
</g>
<g>
</g>
<g>
</g>
<g>
</g>
<g>
</g>
<g>
</g>
<g>
</g>
<g>
</g>
<g>
</g>
<g>
</g>
</svg>
