<?xml version="1.0" encoding="iso-8859-1"?>
<!-- Generator: Adobe Illustrator 18.0.0, SVG Export Plug-In . SVG Version: 6.00 Build 0)  -->
<!DOCTYPE svg PUBLIC "-//W3C//DTD SVG 1.1//EN" "http://www.w3.org/Graphics/SVG/1.1/DTD/svg11.dtd">
<svg version="1.1" id="Capa_1" xmlns="http://www.w3.org/2000/svg" xmlns:xlink="http://www.w3.org/1999/xlink" x="0px" y="0px"
	 viewBox="0 0 436.092 436.092" style="enable-background:new 0 0 436.092 436.092;" xml:space="preserve">
<g>
	<path d="M158.645,288.402c0,0-46.002-2.949-59.521,10.566c-13.516,13.52-13.516,35.438,0,48.955
		c13.519,13.517,35.437,13.517,48.955,0C161.596,334.406,158.645,288.402,158.645,288.402z"/>
	<path d="M246.059,285.248c-6.611,1.631-12.404,4.043-15.955,7.594c-13.518,13.52-13.518,35.438,0,48.955
		c13.518,13.516,35.436,13.516,48.953,0c11.442-11.441,11.086-46.158,10.707-56.549
		C275.196,285.248,260.627,285.248,246.059,285.248z"/>
	<path d="M155.274,377.002c-13.518,13.518-13.518,35.435,0,48.951c13.52,13.52,35.436,13.52,48.953,0
		c13.518-13.516,10.566-59.518,10.566-59.518S168.793,363.484,155.274,377.002z"/>
	<path d="M409.758,85c0-6.1-15.223-10.402-16.522-16.111c-1.34-5.893,10.48-16.367,7.914-21.682
		c-2.607-5.404-18.189-2.674-21.896-7.318c-3.723-4.662,2.387-19.244-2.277-22.969c-4.639-3.707-17.498,5.48-22.898,2.873
		c-5.318-2.566-6.131-18.367-12.022-19.707c-5.705-1.297-13.275,12.559-19.377,12.559c-6.1,0-13.67-13.856-19.375-12.559
		c-5.891,1.34-6.703,17.141-12.021,19.707c-5.4,2.606-18.26-6.58-22.898-2.873c-2.135,1.705-2.012,5.688-1.608,9.949
		c6.25,5.66,11.91,11.998,16.848,18.932c10.098-10.063,23.954-16.353,39.056-16.353c30.275,0,55.555,25.277,55.555,55.553
		c0,6.07-1.031,11.934-2.9,17.439c4.476,2.891,8.729,6.133,12.693,9.715c4.228,3.818,8.06,7.965,11.494,12.371
		c0.726-0.463,1.289-1.025,1.629-1.73c2.566-5.314-9.254-15.789-7.914-21.682C394.536,95.404,409.758,91.101,409.758,85z"/>
	<path d="M312.368,99.593c-13.111,0-25.471,3.201-36.368,8.832c0.011-0.598,0.023-1.199,0.023-1.799
		c0-53.826-43.637-97.463-97.463-97.463c-52.773,0-95.744,41.945-97.404,94.318c-31.815,10.34-54.821,40.211-54.821,75.475
		c0,43.83,35.532,79.363,79.362,79.363h206.672c43.831,0,79.363-35.533,79.363-79.363C391.732,135.127,356.2,99.593,312.368,99.593z
		"/>
</g>
<g>
</g>
<g>
</g>
<g>
</g>
<g>
</g>
<g>
</g>
<g>
</g>
<g>
</g>
<g>
</g>
<g>
</g>
<g>
</g>
<g>
</g>
<g>
</g>
<g>
</g>
<g>
</g>
<g>
</g>
</svg>
