<?xml version='1.0' encoding='iso-8859-1'?>
<!DOCTYPE svg PUBLIC '-//W3C//DTD SVG 1.1//EN' 'http://www.w3.org/Graphics/SVG/1.1/DTD/svg11.dtd'>
<svg version="1.1" xmlns="http://www.w3.org/2000/svg" viewBox="0 0 474.368 474.368" xmlns:xlink="http://www.w3.org/1999/xlink" enable-background="new 0 0 474.368 474.368">
  <g>
    <path d="m279.373,288.655c-8.718,21.519-2.527,46.967 16.493,69.525l-48.683,48.683v-163.247c39.416-2.535 69.434-20.128 81.305-48.168 9.269-21.893 7.469-48.427-5.349-78.865-13.787-32.74-40.291-69.472-78.775-109.175l-7.18-7.408-7.181,7.408c-38.484,39.703-64.988,76.435-78.775,109.175-12.817,30.438-14.617,56.973-5.349,78.865 11.871,28.04 41.889,45.633 81.305,48.168v163.247l-48.683-48.683c19.021-22.558 25.211-48.006 16.493-69.525-10.122-24.985-43.792-55.104-146.714-56.708l-10.315-.161 .16,10.315c0.775,49.767 8.363,88.054 22.554,113.798 16.779,30.441 38.858,36.834 54.426,36.836 0.004,0 0.006,0 0.009,0 16.367,0 33.57-7.196 49.24-20.417l62.83,62.83v39.221h20v-39.221l62.83-62.83c15.67,13.221 32.875,20.417 49.247,20.417 15.567,0 37.647-6.39 54.428-36.834 14.19-25.745 21.778-64.033 22.554-113.8l.16-10.315-10.316,.161c-102.922,1.603-136.592,31.723-146.714,56.708zm-164.26,84.079c-0.001,0-0.004,0-0.004,0-32.922-0.005-53.846-44.819-56.71-120.513 64.88,2.465 107.667,18.294 118.059,43.943 5.694,14.056 1.139,31.453-12.158,47.814l-32.23-32.23-14.143,14.143 32.232,32.232c-11.631,9.475-23.827,14.612-35.046,14.611zm49.184-185.084c-7.084-16.733-5.279-38.032 5.363-63.306 11.967-28.418 34.664-60.51 67.523-95.493 32.859,34.983 55.557,67.075 67.523,95.493 10.643,25.274 12.447,46.574 5.363,63.306-8.709,20.572-31.861,33.638-62.887,35.931v-64.364h-20v64.364c-31.024-2.293-54.176-15.359-62.885-35.931zm194.964,185.084c-11.222,0-23.421-5.136-35.053-14.612l32.232-32.232-14.143-14.143-32.231,32.23c-13.297-16.362-17.852-33.758-12.158-47.814 10.392-25.649 53.179-41.478 118.059-43.943-2.863,75.7-23.787,120.514-56.706,120.514z"/>
  </g>
</svg>
