<?xml version="1.0" encoding="iso-8859-1"?>
<!-- Generator: Adobe Illustrator 19.0.0, SVG Export Plug-In . SVG Version: 6.00 Build 0)  -->
<svg version="1.1" id="Layer_1" xmlns="http://www.w3.org/2000/svg" xmlns:xlink="http://www.w3.org/1999/xlink" x="0px" y="0px"
	 viewBox="0 0 512.001 512.001" style="enable-background:new 0 0 512.001 512.001;" xml:space="preserve">
<g>
	<g>
		<path d="M305.998,74.298c-2.992-1.567-6.688-1.219-9.322,0.904c-6.094,4.912-2.396,15.017,5.343,15.017
			c3.958,0,7.451-2.86,8.276-6.719C311.064,79.893,309.273,76.013,305.998,74.298z"/>
	</g>
</g>
<g>
	<g>
		<path d="M119.946,204.402c-5.212,5.207-1.389,14.451,5.979,14.451c4.453,0,8.229-3.614,8.45-8.051
			C134.751,203.251,125.29,199.063,119.946,204.402z"/>
	</g>
</g>
<g>
	<g>
		<path d="M173.908,202.93c-3.26-1.728-7.343-1.128-9.967,1.472c-5.249,5.199-1.377,14.439,5.979,14.439
			c4.059,0,7.649-3.003,8.336-7.008C178.867,208.278,177.102,204.623,173.908,202.93z"/>
	</g>
</g>
<g>
	<g>
		<path d="M449.531,335.261c-9.636-9.636-29.675-80.021-41.744-130.228c20.563-44.945,11.454-120.443,10.531-127.598
			c-0.175-20.611-8.27-39.964-22.864-54.557c-3.304-3.305-8.661-3.304-11.964,0c-3.304,3.304-3.304,8.661,0,11.964
			c9.686,9.686,15.707,22.051,17.411,35.419c-26.729,1.154-51.615-5.744-74.074-20.608c-11.044-7.309-19.028-15.023-23.732-20.138
			c10.304-7.89,23.173-12.594,37.126-12.594c8.263,0,16.277,1.617,23.816,4.806c4.306,1.821,9.268-0.193,11.088-4.497
			c1.82-4.304-0.193-9.268-4.497-11.088C360.99,2.067,350.759,0,340.219,0c-43.072,0-78.115,35.041-78.115,78.115
			c0,30.465,17.542,56.895,43.044,69.767c-17.996,10.617-30.181,30.055-30.574,52.328c-11.906,50.395-32.942,125.099-42.894,135.051
			c-0.635,0.636-0.878,0.606-1.365,0.538c-7.347-0.984-22.393-19.308-31.991-35.972c-4.174-9.882-11.175-18.289-19.98-24.207
			c20.205-10.876,33.972-32.226,33.972-56.734c0-35.505-28.885-64.391-64.391-64.391c-12.936,0-25.413,3.823-36.085,11.055
			c-3.868,2.622-4.879,7.882-2.257,11.75c2.622,3.868,7.882,4.879,11.75,2.257c7.859-5.326,17.054-8.141,26.592-8.141
			c26.175,0,47.469,21.295,47.469,47.469s-21.295,47.468-47.469,47.468s-47.468-21.294-47.468-47.468
			c0-7.894,1.974-15.705,5.707-22.589c2.228-4.107,0.704-9.243-3.403-11.47s-9.243-0.704-11.47,3.403
			c-5.073,9.354-7.754,19.953-7.754,30.657c0,24.509,13.767,45.859,33.972,56.734c-13.785,9.263-23.135,24.629-24.16,42.197
			c-7.728,9.573-33.356,45.837-33.356,105.776c0,4.672,3.788,8.461,8.461,8.461s8.461-3.788,8.461-8.461
			c0-32.308,8.313-57.098,16.333-73.513v36.523v40.65c0,4.672,3.788,8.461,8.461,8.461h12.541
			c5.115,25.959,11.389,45.82,18.742,59.366h-5.744c-4.672,0-8.461,3.788-8.461,8.461s3.788,8.461,8.461,8.461h41.363
			c4.672,0,8.461-3.788,8.461-8.461s-3.788-8.461-8.461-8.461h-5.737c7.349-13.547,13.622-33.408,18.736-59.366h12.54
			c4.672,0,8.461-3.788,8.461-8.461v-40.65V335.08c7.662,8.701,16.68,16.312,25.456,17.49c0.892,0.12,1.772,0.179,2.637,0.179
			c4.87,0,9.304-1.882,12.946-5.523c5.018-5.018,13.68-18.738,30.901-79.693v19.143l-9.451,100.016
			c-0.224,2.372,0.563,4.728,2.165,6.49c1.603,1.762,3.876,2.766,6.257,2.766h25.883c2.703,23.121,12.316,90.374,34.719,112.775
			c1.403,1.403,3.278,2.148,5.187,2.148c0.944,0,1.897-0.183,2.804-0.558c0.908-0.376,1.699-0.933,2.367-1.602l0.012,0.012
			c22.401-22.401,32.015-89.653,34.718-112.775h28.486c2.383,0,4.654-1.005,6.257-2.766c1.603-1.762,2.389-4.119,2.165-6.49
			l-3.386-35.832c-0.44-4.652-4.566-8.058-9.219-7.627c-4.652,0.44-8.067,4.568-7.627,9.219l2.512,26.575h-115.58l7.89-83.491
			h99.799l2.754,29.142c0.44,4.652,4.579,8.065,9.219,7.627c4.652-0.44,8.067-4.566,7.627-9.219l-3.441-36.41v-19.143
			c17.221,60.954,25.884,74.676,30.901,79.693c1.651,1.653,3.817,2.478,5.982,2.478s4.331-0.826,5.982-2.478
			C452.836,343.921,452.836,338.564,449.531,335.261z M110.166,321.034c0-20.821,16.939-37.759,37.759-37.759
			c20.82,0,37.759,16.939,37.759,37.759v57.108h-75.518V321.034z M140.599,476.534c-4.2-10.752-8.052-24.529-11.389-40.822h11.389
			V476.534z M155.264,476.512v-40.799h11.378C163.309,451.994,159.459,465.765,155.264,476.512z M155.264,418.792v-7.314
			c0-4.05-3.283-7.333-7.333-7.333c-4.05,0-7.332,3.283-7.332,7.333v7.314h-30.433v-23.729h75.518v23.729H155.264z M346.637,395.948
			h17.821c-2.528,21.138-8.357,56.314-17.821,80.626V395.948z M331.972,395.949v80.617c-9.458-24.313-15.288-59.483-17.819-80.617
			H331.972z M279.026,78.115c0-13.69,4.52-26.345,12.145-36.551c5.402,5.806,13.995,13.962,25.696,21.79
			c7.942,5.313,18.002,10.892,30.026,15.327c-0.798,2.059-0.81,4.41,0.116,6.503c1.335,3.02,4.419,5.033,7.724,5.033
			c3.952,0,7.421-2.844,8.254-6.678c11.302,2.681,23.915,4.166,37.745,3.673c-4.409,29.442-29.862,52.095-60.513,52.095
			C306.477,139.307,279.026,111.857,279.026,78.115z M389.743,278.615h-98.275v-77.299c0-24.861,20.225-45.087,45.086-45.087h8.103
			c24.861,0,45.086,20.226,45.086,45.087V278.615z M399.998,173.399c-5.443-10.746-13.918-19.697-24.301-25.728
			c11.378-5.827,21.141-14.356,28.446-24.744C404.228,138.829,403.296,156.928,399.998,173.399z"/>
	</g>
</g>
<g>
</g>
<g>
</g>
<g>
</g>
<g>
</g>
<g>
</g>
<g>
</g>
<g>
</g>
<g>
</g>
<g>
</g>
<g>
</g>
<g>
</g>
<g>
</g>
<g>
</g>
<g>
</g>
<g>
</g>
</svg>
