<?xml version="1.0" encoding="iso-8859-1"?>
<!-- Generator: Adobe Illustrator 19.0.0, SVG Export Plug-In . SVG Version: 6.00 Build 0)  -->
<svg version="1.1" id="Layer_1" xmlns="http://www.w3.org/2000/svg" xmlns:xlink="http://www.w3.org/1999/xlink" x="0px" y="0px"
	 viewBox="0 0 511.999 511.999" style="enable-background:new 0 0 511.999 511.999;" xml:space="preserve">
<g>
	<g>
		<path d="M115.93,430.063c-1.944-4.621-7.266-6.794-11.887-4.85c-4.621,1.943-6.794,7.265-4.851,11.886
			c2.107,5.013,3.176,10.342,3.176,15.836c0,22.557-18.352,40.908-40.909,40.908s-40.908-18.352-40.908-40.908
			s18.351-40.908,40.908-40.908c8.352,0,16.383,2.498,23.223,7.224c4.127,2.851,9.78,1.816,12.629-2.308
			c2.851-4.125,1.817-9.779-2.307-12.629c-9.888-6.832-21.487-10.442-33.544-10.442c-32.567,0-59.064,26.497-59.064,59.064
			c0,32.567,26.497,59.064,59.064,59.064c32.568,0,59.065-26.497,59.065-59.064C120.525,445.01,118.979,437.316,115.93,430.063z"/>
	</g>
</g>
<g>
	<g>
		<path d="M61.458,424.972c-15.418,0-27.963,12.545-27.963,27.963s12.543,27.963,27.963,27.963s27.963-12.543,27.963-27.963
			S76.878,424.972,61.458,424.972z M61.458,462.742c-5.407,0-9.807-4.399-9.807-9.807c0-5.408,4.4-9.807,9.807-9.807
			s9.807,4.4,9.807,9.807C71.265,458.342,66.865,462.742,61.458,462.742z"/>
	</g>
</g>
<g>
	<g>
		<path d="M259.405,424.972c-15.418,0-27.963,12.545-27.963,27.963s12.543,27.963,27.963,27.963s27.963-12.543,27.963-27.963
			S274.824,424.972,259.405,424.972z M259.405,462.742c-5.407,0-9.807-4.399-9.807-9.807c0-5.408,4.4-9.807,9.807-9.807
			c5.407,0,9.807,4.4,9.807,9.807C269.211,458.342,264.812,462.742,259.405,462.742z"/>
	</g>
</g>
<g>
	<g>
		<path d="M259.405,393.871c-32.568,0-59.065,26.497-59.065,59.064s26.497,59.064,59.065,59.064
			c32.567,0,59.064-26.497,59.064-59.064S291.973,393.871,259.405,393.871z M259.405,493.844c-22.557,0-40.909-18.352-40.909-40.908
			s18.352-40.908,40.909-40.908s40.908,18.352,40.908,40.908S281.962,493.844,259.405,493.844z"/>
	</g>
</g>
<g>
	<g>
		<path d="M501.236,350.564c-0.472-4.992-4.906-8.65-9.891-8.184c-4.992,0.472-8.656,4.9-8.185,9.891l2.439,25.811H371.712
			l7.749-82.006h98.388l2.693,28.492c0.472,4.993,4.903,8.653,9.893,8.183c4.99-0.472,8.654-4.901,8.183-9.891l-3.43-36.29v-78.908
			c21.918-44.619,12.588-122.342,11.623-129.831c-0.188-20.711-8.328-40.156-22.994-54.823c-3.544-3.545-9.292-3.544-12.837,0
			c-3.545,3.545-3.545,9.293,0.001,12.839c9.394,9.393,15.303,21.338,17.1,34.27c-26.244,0.994-50.694-5.849-72.778-20.451
			c-10.631-7.029-18.404-14.436-23.128-19.509c10.075-7.535,22.573-12.001,36.094-12.001c8.157,0,16.067,1.595,23.51,4.742
			c4.615,1.952,9.943-0.207,11.896-4.826c1.954-4.618-0.207-9.945-4.825-11.897C449.159,2.078,438.871,0,428.27,0
			c-43.317,0-78.557,35.241-78.557,78.559c0,30.86,17.895,57.609,43.845,70.449c-18.854,11.758-31.434,32.676-31.434,56.486v35.962
			c-5.195-2.44-9.993-5.781-14.135-9.965l-9.407-9.505c2.288-1.649,3.782-4.328,3.782-7.363c0-5.013-4.063-9.078-9.078-9.078
			h-14.766c-14.603,0-26.486,11.881-26.486,26.487v11.515H170.23V112.66c0-5.013-4.063-9.078-9.078-9.078
			c-34.056,0-66.116,11.183-92.712,32.339c-3.923,3.122-4.574,8.832-1.452,12.756c3.12,3.924,8.832,4.574,12.755,1.454
			c20.973-16.684,45.818-26.302,72.331-28.089v121.503H30.59c0.04-0.588,0.07-1.178,0.119-1.766
			c1.906-23.263,10.047-45.633,23.541-64.695c1.597-2.255,3.292-4.495,5.038-6.657c3.151-3.9,2.542-9.615-1.358-12.766
			c-3.902-3.152-9.615-2.542-12.767,1.358c-1.986,2.458-3.913,5.007-5.73,7.573c-15.373,21.713-24.646,47.2-26.818,73.702
			c-0.327,3.985-0.481,7.98-0.487,11.974c-0.005,0.117-0.018,0.232-0.018,0.351c0,0.081,0.01,0.159,0.012,0.238
			c0.046,18.761,3.601,37.474,10.469,54.762c7.803,19.646,20.025,37.804,35.341,52.512c15.35,14.74,34.029,26.224,54.021,33.213
			c15.838,5.535,32.55,8.355,49.164,8.355c6.224,0,12.436-0.396,18.582-1.193c0.109-0.013,0.218-0.03,0.326-0.048
			c74.236-9.385,130.169-72.871,130.169-147.842c0-0.016-0.002-0.031-0.002-0.047v-20.545c0-3.474,2.138-6.454,5.165-7.703
			l19.732,19.934c7.663,7.742,16.952,13.395,27.038,16.693v25.616l-9.425,99.737c-0.24,2.545,0.603,5.073,2.324,6.963
			c1.72,1.891,4.158,2.968,6.714,2.968h24.095c2.794,24.311,12.301,90.296,35.106,113.102c1.738,1.737,4.06,2.659,6.422,2.659
			c1.169,0,2.348-0.226,3.471-0.691c1.058-0.438,1.984-1.078,2.78-1.841c0.056-0.031,0.11-0.073,0.165-0.127
			c22.806-22.806,32.314-88.791,35.108-113.102h26.692c2.556,0,4.994-1.077,6.714-2.968c1.721-1.891,2.564-4.419,2.324-6.963
			L501.236,350.564z M491.415,125.23c0,0.161,0.001,0.32,0.001,0.482c-0.038,18.321-1.486,34.522-4.247,48.138
			c-5.587-10.29-13.812-18.944-23.758-25.063C474.493,143.219,484.089,135.118,491.415,125.23z M367.869,78.559
			c0-13.225,4.284-25.462,11.521-35.421c9.416,10.062,27.768,26.462,54.695,36.514c-1.448,5.343,2.357,11.614,8.67,11.614
			c3.957,0,7.483-2.659,8.65-6.416c11.039,2.536,23.203,3.889,36.471,3.462c-4.677,28.684-29.618,50.65-59.605,50.65
			C394.963,138.96,367.869,111.864,367.869,78.559z M380.279,264.241c0.938,0.039,1.879,0.07,2.821,0.07
			c1.753,0,3.514-0.068,5.277-0.206c19.857-1.544,37.929-11.695,49.583-27.846l22.413-31.063c2.934-4.066,2.017-9.739-2.049-12.673
			c-4.065-2.933-9.74-2.015-12.674,2.05l-22.413,31.063c-8.524,11.815-21.744,19.238-36.267,20.369
			c-2.243,0.174-4.476,0.178-6.691,0.051v-40.562c0-26.675,21.702-48.377,48.377-48.377c26.675,0,48.376,21.702,48.376,48.377
			v72.427h-96.753V264.241z M177.39,382.497c-0.138,0.017-0.275,0.038-0.409,0.059c-19.647,2.486-40.047,0.293-59.037-6.345
			c-17.55-6.134-33.953-16.222-47.437-29.169c-13.456-12.922-24.19-28.87-31.043-46.12c-4.945-12.448-7.924-25.743-8.861-39.219
			h130.549c0.012,0,0.023-0.001,0.035-0.001h130.537C287.447,323.644,239.728,374.789,177.39,382.497z M418.279,465.684
			c-2.913-9.06-5.624-19.69-8.046-31.662c-3.014-14.9-4.977-28.863-6.077-37.784h14.123V465.684z M444.515,433.865
			c-2.43,12.039-5.151,22.72-8.079,31.823V396.24h14.125C449.466,405.118,447.514,419.003,444.515,433.865z"/>
	</g>
</g>
<g>
	<g>
		<path d="M384.821,74.847c-3.157,2.272-4.506,6.506-3.278,10.189c1.227,3.683,4.731,6.228,8.619,6.228
			c4.29,0,8.039-3.107,8.898-7.299C400.69,75.997,391.354,70.149,384.821,74.847z"/>
	</g>
</g>
<g>
</g>
<g>
</g>
<g>
</g>
<g>
</g>
<g>
</g>
<g>
</g>
<g>
</g>
<g>
</g>
<g>
</g>
<g>
</g>
<g>
</g>
<g>
</g>
<g>
</g>
<g>
</g>
<g>
</g>
</svg>
