<?xml version="1.0" encoding="iso-8859-1"?>
<!-- Generator: Adobe Illustrator 19.0.0, SVG Export Plug-In . SVG Version: 6.00 Build 0)  -->
<svg version="1.1" id="Layer_1" xmlns="http://www.w3.org/2000/svg" xmlns:xlink="http://www.w3.org/1999/xlink" x="0px" y="0px"
	 viewBox="0 0 512.001 512.001" style="enable-background:new 0 0 512.001 512.001;" xml:space="preserve">
<g>
	<g>
		<path d="M339.766,312.513c-4.537,0-8.213,3.677-8.213,8.213v174.847h-151.11v-233.23h151.106v34.292
			c0,4.537,3.677,8.214,8.213,8.214c4.537,0,8.213-3.677,8.213-8.213v-42.505c0-4.536-3.676-8.213-8.213-8.213h-11.706v-91.976
			c0-4.536-3.676-8.213-8.213-8.213h-9.582c0,0-0.015-59.835-0.039-60.09c1.048-16.049-9.25-37.614-28.588-56.953
			c-6.001-6-12.394-11.271-19.005-15.669c-3.776-2.512-8.874-1.487-11.386,2.29c-2.512,3.777-1.486,8.874,2.291,11.386
			c5.707,3.796,11.255,8.375,16.487,13.607c21.847,21.847,27.516,44.063,21.822,49.758c-5.699,5.694-27.912,0.025-49.758-21.821
			c-21.847-21.847-27.516-44.063-21.822-49.757c2.512-2.511,8.237-2.745,15.316-0.622c4.346,1.301,8.923-1.163,10.225-5.508
			c1.303-4.345-1.163-8.922-5.507-10.225c-13.347-4.001-24.586-2.318-31.649,4.742c-4.618,4.618-6.825,10.922-6.838,18.234
			c-0.096,0.504-0.151,120.629-0.151,120.629h-9.505c-4.537,0-8.213,3.677-8.213,8.213v29.905c0,4.536,3.676,8.213,8.213,8.213
			s8.213-3.677,8.213-8.213v-21.693h9.505h92.181h9.582v83.763H200.367v-34.696c0-4.536-3.676-8.213-8.213-8.213
			c-4.537,0-8.213,3.677-8.213,8.213v34.696h-11.707c-4.537,0-8.213,3.677-8.213,8.213v249.655c0,4.536,3.676,8.213,8.213,8.213
			h167.531c4.537,0,8.213-3.677,8.213-8.213V320.726C347.979,316.19,344.303,312.513,339.766,312.513z M293.836,145.73H218.08
			V65.558c3.584,4.823,7.714,9.624,12.386,14.294c18.444,18.443,38.911,28.668,54.688,28.668c3.096,0,5.997-0.419,8.681-1.222
			V145.73z"/>
	</g>
</g>
<g>
</g>
<g>
</g>
<g>
</g>
<g>
</g>
<g>
</g>
<g>
</g>
<g>
</g>
<g>
</g>
<g>
</g>
<g>
</g>
<g>
</g>
<g>
</g>
<g>
</g>
<g>
</g>
<g>
</g>
</svg>
