<?xml version="1.0" encoding="iso-8859-1"?>
<!-- Generator: Adobe Illustrator 19.0.0, SVG Export Plug-In . SVG Version: 6.00 Build 0)  -->
<svg version="1.1" id="Layer_1" xmlns="http://www.w3.org/2000/svg" xmlns:xlink="http://www.w3.org/1999/xlink" x="0px" y="0px"
	 viewBox="0 0 360 360" style="enable-background:new 0 0 360 360;" xml:space="preserve">
<g id="XMLID_351_">
	<path id="XMLID_352_" d="M305,345c0-45.271-24.202-84.979-60.335-106.915l-51.354,98.831c-0.023,0.045-0.051,0.086-0.074,0.131
		c-0.066,0.125-0.139,0.246-0.209,0.37c-0.148,0.261-0.303,0.516-0.465,0.765c-0.08,0.125-0.161,0.25-0.246,0.372
		c-0.229,0.331-0.467,0.652-0.718,0.958c-0.03,0.037-0.06,0.074-0.091,0.11c-0.266,0.318-0.545,0.62-0.834,0.912
		c-0.085,0.086-0.172,0.171-0.26,0.255c-0.273,0.264-0.555,0.517-0.846,0.757c-0.05,0.042-0.098,0.086-0.148,0.127
		c-0.352,0.284-0.717,0.547-1.091,0.796c-0.075,0.05-0.151,0.097-0.228,0.146c-0.354,0.227-0.716,0.44-1.086,0.636
		c-0.035,0.018-0.065,0.041-0.1,0.058c-0.011,0.006-0.022,0.009-0.033,0.015c-0.484,0.25-0.982,0.467-1.489,0.662
		c-0.093,0.036-0.185,0.074-0.278,0.108c-0.467,0.169-0.943,0.314-1.425,0.436c-0.126,0.032-0.253,0.062-0.38,0.091
		c-0.473,0.107-0.95,0.195-1.433,0.256c-0.107,0.014-0.214,0.022-0.321,0.033c-0.501,0.053-1.004,0.087-1.51,0.089
		c-0.012,0-0.023,0.002-0.034,0.002c-0.005,0-0.009,0-0.013,0s-0.008,0-0.013,0c-0.012,0-0.023-0.002-0.034-0.002
		c-0.506-0.002-1.008-0.036-1.508-0.089c-0.108-0.011-0.216-0.019-0.324-0.033c-0.481-0.061-0.958-0.149-1.431-0.256
		c-0.128-0.029-0.255-0.059-0.382-0.091c-0.482-0.122-0.958-0.267-1.426-0.437c-0.092-0.033-0.183-0.07-0.273-0.106
		c-0.51-0.196-1.01-0.415-1.496-0.665c-0.01-0.005-0.02-0.008-0.029-0.013c-0.031-0.016-0.059-0.036-0.089-0.052
		c-0.377-0.199-0.744-0.416-1.105-0.646c-0.071-0.046-0.145-0.091-0.215-0.138c-0.377-0.251-0.744-0.516-1.099-0.802
		c-0.047-0.038-0.091-0.078-0.137-0.117c-0.296-0.244-0.581-0.502-0.859-0.77c-0.085-0.082-0.169-0.164-0.252-0.247
		c-0.292-0.296-0.577-0.603-0.847-0.926c-0.024-0.029-0.048-0.059-0.072-0.088c-0.255-0.312-0.496-0.638-0.729-0.973
		c-0.084-0.121-0.162-0.244-0.242-0.367c-0.164-0.25-0.318-0.508-0.469-0.771c-0.068-0.122-0.141-0.243-0.207-0.367
		c-0.023-0.044-0.051-0.086-0.074-0.131l-51.354-98.831C79.201,260.02,55,299.729,55,345c0,8.284,6.716,15,15,15h220
		C298.284,360,305,353.284,305,345z"/>
	<path id="XMLID_439_" d="M142.707,225.694L180,297.467l37.295-71.773C205.511,222.002,192.986,220,180,220
		C167.015,220,154.49,222.002,142.707,225.694z"/>
	<path id="XMLID_440_" d="M180,190c35.841,0,65-29.159,65-65c0-12.32-3.445-23.852-9.424-33.68l9.308-74.46
		c0.534-4.269-0.791-8.562-3.639-11.788C238.398,1.848,234.303,0,230,0H130c-4.303,0-8.398,1.848-11.245,5.073
		c-2.848,3.225-4.173,7.518-3.64,11.788l9.309,74.461C118.445,101.149,115,112.68,115,125C115,160.841,144.158,190,180,190z
		 M213.008,30l-4.57,36.564C199.843,62.364,190.193,60,180,60s-19.843,2.364-28.438,6.564L146.992,30H213.008z"/>
</g>
<g>
</g>
<g>
</g>
<g>
</g>
<g>
</g>
<g>
</g>
<g>
</g>
<g>
</g>
<g>
</g>
<g>
</g>
<g>
</g>
<g>
</g>
<g>
</g>
<g>
</g>
<g>
</g>
<g>
</g>
</svg>
