<?xml version="1.0" encoding="iso-8859-1"?>
<!-- Generator: Adobe Illustrator 19.0.0, SVG Export Plug-In . SVG Version: 6.00 Build 0)  -->
<svg version="1.1" id="Layer_1" xmlns="http://www.w3.org/2000/svg" xmlns:xlink="http://www.w3.org/1999/xlink" x="0px" y="0px"
	 viewBox="0 0 512 512" style="enable-background:new 0 0 512 512;" xml:space="preserve">
<g>
	<rect x="77.657" y="227.432" style="fill:#BCC987;" width="63.48" height="190.776"/>
	<rect x="188.033" y="184.697" style="fill:#BCC987;" width="63.48" height="233.511"/>
	<rect x="298.418" y="265.24" style="fill:#BCC987;" width="63.48" height="152.968"/>
	<rect x="408.794" y="215.162" style="fill:#BCC987;" width="63.48" height="203.046"/>
</g>
<g>
	<rect x="77.657" y="181.433" style="fill:#D35B38;" width="63.48" height="45.988"/>
	<rect x="188.033" y="96.606" style="fill:#D35B38;" width="63.48" height="88.091"/>
	<rect x="298.418" y="146.684" style="fill:#D35B38;" width="63.48" height="118.556"/>
	<rect x="408.794" y="118.076" style="fill:#D35B38;" width="63.48" height="97.096"/>
</g>
<path style="fill:#4D3D36;" d="M482.474,118.071c0-5.632-4.566-10.199-10.199-10.199h-63.48c-5.633,0-10.199,4.567-10.199,10.199
	v289.938h-26.503V146.687c0-5.632-4.566-10.199-10.199-10.199h-63.48c-5.633,0-10.199,4.567-10.199,10.199v261.321h-26.503V96.607
	c0-5.632-4.566-10.199-10.199-10.199h-63.48c-5.633,0-10.199,4.567-10.199,10.199v311.401h-26.503V181.437
	c0-5.632-4.566-10.199-10.199-10.199h-63.48c-5.633,0-10.199,4.567-10.199,10.199v226.571H40.84V93.791
	c0-5.632-4.566-10.199-10.199-10.199s-10.199,4.567-10.199,10.199v13.057H10.199C4.566,106.848,0,111.416,0,117.048
	s4.566,10.199,10.199,10.199h10.242v24.572H10.199C4.566,151.819,0,156.386,0,162.018s4.566,10.199,10.199,10.199h10.242v24.572
	H10.199C4.566,196.789,0,201.356,0,206.988s4.566,10.199,10.199,10.199h10.242v24.571H10.199C4.566,241.758,0,246.326,0,251.958
	c0,5.632,4.566,10.199,10.199,10.199h10.242v24.572H10.199C4.566,286.729,0,291.296,0,296.928c0,5.632,4.566,10.199,10.199,10.199
	h10.242v24.572H10.199C4.566,331.699,0,336.266,0,341.898c0,5.632,4.566,10.199,10.199,10.199h10.242v24.571H10.199
	C4.566,376.668,0,381.236,0,386.868c0,5.632,4.566,10.199,10.199,10.199h10.242v21.142c0,5.632,4.566,10.199,10.199,10.199h471.16
	c5.633,0,10.199-4.567,10.199-10.199c0-5.632-4.566-10.199-10.199-10.199h-19.326V118.071z M418.995,128.27h43.081v76.695h-43.081
	V128.27z M308.614,156.887h43.081v98.158h-43.081V156.887z M198.234,106.807h43.081v67.692h-43.081V106.807z M87.853,191.636h43.081
	v25.593H87.853C87.853,217.229,87.853,191.636,87.853,191.636z M87.853,408.008V237.628h43.081v170.381H87.853z M198.234,408.008
	V194.897h43.081v213.111H198.234z M308.614,408.008V275.443h43.081v132.565H308.614z M418.995,408.008V225.363h43.081v182.645
	H418.995z"/>
<g>
</g>
<g>
</g>
<g>
</g>
<g>
</g>
<g>
</g>
<g>
</g>
<g>
</g>
<g>
</g>
<g>
</g>
<g>
</g>
<g>
</g>
<g>
</g>
<g>
</g>
<g>
</g>
<g>
</g>
</svg>
