<?xml version="1.0" encoding="iso-8859-1"?>
<!-- Generator: Adobe Illustrator 18.0.0, SVG Export Plug-In . SVG Version: 6.00 Build 0)  -->
<!DOCTYPE svg PUBLIC "-//W3C//DTD SVG 1.1//EN" "http://www.w3.org/Graphics/SVG/1.1/DTD/svg11.dtd">
<svg version="1.1" id="Capa_1" xmlns="http://www.w3.org/2000/svg" xmlns:xlink="http://www.w3.org/1999/xlink" x="0px" y="0px"
	 viewBox="0 0 164.118 164.118" style="enable-background:new 0 0 164.118 164.118;" xml:space="preserve">
<g>
	<path d="M30.344,122.144c-0.985,0-1.97,0.375-2.72,1.125L9.956,140.937c-1.5,1.5-1.5,3.94,0,5.44c1.5,1.5,3.94,1.5,5.44,0
		l17.668-17.668c1.5-1.5,1.5-3.94,0-5.44C32.314,122.519,31.328,122.144,30.344,122.144z"/>
	<path d="M26.209,121.855L8.542,139.523c-2.28,2.28-2.28,5.989,0,8.269c1.104,1.104,2.572,1.712,4.134,1.712
		c1.562,0,3.03-0.608,4.134-1.712l17.668-17.668c1.104-1.104,1.712-2.572,1.712-4.134c0-1.562-0.608-3.03-1.712-4.134
		C32.198,119.575,28.489,119.575,26.209,121.855z M33.064,128.709l-17.668,17.668c-1.5,1.5-3.939,1.5-5.44,0
		c-1.5-1.5-1.5-3.94,0-5.44l17.667-17.667c0.75-0.75,1.735-1.125,2.72-1.125s1.97,0.375,2.72,1.125
		C34.563,124.769,34.563,127.209,33.064,128.709z"/>
	<path d="M163.239,11.587c-9.166-9.164-33.508,0.015-42.063,8.57L85.388,55.946c-2.267,0.499-4.423,1.616-6.183,3.375L3.682,134.845
		c-4.909,4.909-4.909,12.896,0,17.805c2.378,2.378,5.54,3.688,8.903,3.688s6.525-1.31,8.903-3.688l75.523-75.523
		c1.759-1.759,2.877-3.916,3.375-6.183l15.654-15.653l7.322-0.594c0.709-0.058,1.375-0.366,1.878-0.869l37.999-37.999
		c0.563-0.563,0.879-1.326,0.879-2.121C164.118,12.913,163.802,12.15,163.239,11.587z M34.478,130.123L16.81,147.791
		c-1.104,1.104-2.572,1.712-4.134,1.712c-1.562,0-3.03-0.608-4.134-1.712c-2.28-2.28-2.28-5.989,0-8.269l17.667-17.667
		c2.279-2.28,5.989-2.28,8.269,0c1.104,1.104,1.712,2.572,1.712,4.134C36.19,127.551,35.582,129.019,34.478,130.123z
		 M121.778,48.806l-7.322,0.594c-0.709,0.058-1.375,0.366-1.878,0.869L99.642,63.204c-0.611-1.409-1.481-2.732-2.631-3.882
		c-1.15-1.15-2.473-2.02-3.882-2.631l32.29-32.29c6.826-6.825,23.211-12.376,30.853-10.087L121.778,48.806z"/>
</g>
<g>
</g>
<g>
</g>
<g>
</g>
<g>
</g>
<g>
</g>
<g>
</g>
<g>
</g>
<g>
</g>
<g>
</g>
<g>
</g>
<g>
</g>
<g>
</g>
<g>
</g>
<g>
</g>
<g>
</g>
</svg>
