<?xml version="1.0" encoding="iso-8859-1"?>
<!-- Generator: Adobe Illustrator 19.0.0, SVG Export Plug-In . SVG Version: 6.00 Build 0)  -->
<svg version="1.1" id="Layer_1" xmlns="http://www.w3.org/2000/svg" xmlns:xlink="http://www.w3.org/1999/xlink" x="0px" y="0px"
	 viewBox="0 0 512 512" style="enable-background:new 0 0 512 512;" xml:space="preserve">
<g>
	<g>
		<g>
			<path d="M444.628,315.386v-94.77c0-16.042-9.321-29.943-22.83-36.587c0.121-0.867,0.204-1.746,0.203-2.646l-0.124-148.672
				c0-0.601-0.029-1.199-0.087-1.798c-0.802-8.329-4.128-15.635-9.62-21.127c-9.752-9.752-24.775-12.365-41.221-7.17
				c-12.466,3.936-25.421,12.196-36.481,23.255c-16.479,16.48-26.105,36.256-25.892,53.096c0,0.078-0.001,0.154-0.001,0.232v102.2
				c0,0.894,0.083,1.767,0.203,2.628c-13.51,6.644-22.832,20.545-22.832,36.588v94.77c-21.512,1.083-38.68,18.924-38.68,40.699
				v115.163c0,22.471,18.281,40.752,40.752,40.752h154.537c22.47,0,40.75-18.281,40.75-40.752V356.085
				C483.308,334.31,466.14,316.468,444.628,315.386z M361.247,52.65c8.634-8.633,16.687-12.605,21.666-14.085
				c0.014,0.26,0.01,0.518,0.035,0.779c0.293,3.05-2.85,13.522-14.107,24.779c-8.786,8.786-16.992,12.53-21.565,13.7
				c-0.153-0.608-0.342-1.199-0.55-1.782C347.781,70.903,352.004,61.895,361.247,52.65z M346.445,116.044h0.001
				c4.375-0.196,8.96-1.026,13.662-2.511c8.003-2.528,16.209-6.892,23.956-12.649l0.067,80.515h-37.686V116.044z M323.817,220.616
				L323.817,220.616c0-1.588,1.293-2.879,2.882-2.879h77.176c1.589,0,2.882,1.291,2.882,2.879v94.717h-82.94V220.616z
				 M442.558,474.13H288.021c-1.589,0-2.882-1.293-2.882-2.882V356.085c0-1.589,1.293-2.882,2.882-2.882h16.861h120.811h16.864
				c1.588,0,2.879,1.293,2.879,2.882v115.163h0.001C445.437,472.837,444.146,474.13,442.558,474.13z"/>
			<path d="M191.162,121.866H69.445c-22.47,0-40.751,18.28-40.751,40.751v308.631c0,22.471,18.281,40.752,40.751,40.752h121.717
				c22.47,0,40.751-18.281,40.751-40.752V162.617C231.913,140.148,213.632,121.866,191.162,121.866z M194.043,471.248
				c0,1.589-1.293,2.882-2.881,2.882H69.445c-1.588,0-2.881-1.293-2.881-2.882V162.617c0-1.589,1.293-2.881,2.881-2.881h121.717
				c1.588,0,2.881,1.291,2.881,2.881V471.248z"/>
		</g>
	</g>
</g>
<g>
</g>
<g>
</g>
<g>
</g>
<g>
</g>
<g>
</g>
<g>
</g>
<g>
</g>
<g>
</g>
<g>
</g>
<g>
</g>
<g>
</g>
<g>
</g>
<g>
</g>
<g>
</g>
<g>
</g>
</svg>
