<?xml version="1.0" encoding="iso-8859-1"?>
<!-- Generator: Adobe Illustrator 19.0.0, SVG Export Plug-In . SVG Version: 6.00 Build 0)  -->
<svg version="1.1" id="Layer_1" xmlns="http://www.w3.org/2000/svg" xmlns:xlink="http://www.w3.org/1999/xlink" x="0px" y="0px"
	 viewBox="0 0 512 512" style="enable-background:new 0 0 512 512;" xml:space="preserve">
<g>
	<g>
		<g>
			<path d="M462.046,431.943c-36.195-31.662-100.943-35.055-142.255-10.225c-37.221-21.845-91.672-21.835-128,0
				c-42.483-24.933-107.41-21.395-142.22,10.568c-8.678,7.969-9.254,21.464-1.285,30.143s21.464,9.254,30.143,1.285
				c22.822-20.956,75.071-21.049,99.525,0.343c8.19,7.164,20.46,7.016,28.475-0.343c22.822-20.956,75.071-21.049,99.525,0.343
				c8.19,7.164,20.46,7.016,28.475-0.343c22.822-20.956,75.071-21.049,99.525,0.343c8.868,7.757,22.345,6.857,30.103-2.011
				C471.814,453.178,470.914,439.7,462.046,431.943z"/>
			<path d="M462.046,346.61c-36.201-31.667-100.95-35.068-142.258-10.228c-37.226-21.849-91.675-21.844-128,0
				c-42.489-24.939-107.419-21.405-142.222,10.576c-8.675,7.972-9.246,21.468-1.274,30.143c7.972,8.675,21.468,9.246,30.143,1.274
				c22.813-20.963,75.057-21.05,99.519,0.349c8.192,7.166,20.466,7.016,28.481-0.349c22.813-20.963,75.057-21.05,99.519,0.349
				c8.192,7.166,20.466,7.016,28.481-0.349c22.813-20.963,75.057-21.05,99.519,0.349c8.868,7.757,22.345,6.857,30.103-2.011
				S470.914,354.367,462.046,346.61z"/>
			<path d="M42.667,85.333H384c11.782,0,21.333-9.551,21.333-21.333c0-11.782-9.551-21.333-21.333-21.333H42.667
				c-11.782,0-21.333,9.551-21.333,21.333C21.333,75.782,30.885,85.333,42.667,85.333z"/>
			<path d="M426.667,128H128c-11.782,0-21.333,9.551-21.333,21.333c0,11.782,9.551,21.333,21.333,21.333h298.667
				c23.567,0,42.667,19.099,42.667,42.667S450.234,256,426.667,256c-11.782,0-21.333,9.551-21.333,21.333
				c0,11.782,9.551,21.333,21.333,21.333c47.131,0,85.333-38.202,85.333-85.333S473.798,128,426.667,128z"/>
			<path d="M277.333,234.667c11.782,0,21.333-9.551,21.333-21.333c0-11.782-9.551-21.333-21.333-21.333h-42.667
				c-11.782,0-21.333,9.551-21.333,21.333c0,11.782,9.551,21.333,21.333,21.333H277.333z"/>
			<path d="M64,149.333C64,137.551,54.449,128,42.667,128H21.333C9.551,128,0,137.551,0,149.333
				c0,11.782,9.551,21.333,21.333,21.333h21.333C54.449,170.667,64,161.115,64,149.333z"/>
		</g>
	</g>
</g>
<g>
</g>
<g>
</g>
<g>
</g>
<g>
</g>
<g>
</g>
<g>
</g>
<g>
</g>
<g>
</g>
<g>
</g>
<g>
</g>
<g>
</g>
<g>
</g>
<g>
</g>
<g>
</g>
<g>
</g>
</svg>
