<?xml version="1.0" encoding="iso-8859-1"?>
<!-- Generator: Adobe Illustrator 19.0.0, SVG Export Plug-In . SVG Version: 6.00 Build 0)  -->
<svg version="1.1" id="Layer_1" xmlns="http://www.w3.org/2000/svg" xmlns:xlink="http://www.w3.org/1999/xlink" x="0px" y="0px"
	 viewBox="0 0 512.013 512.013" style="enable-background:new 0 0 512.013 512.013;" xml:space="preserve">
<g>
	<g>
		<g>
			<path d="M22.172,99.869c32.043,4.949,57.323,30.229,62.272,62.272c0.171,1.131,1.6,1.131,1.771,0
				c4.971-32.043,30.251-57.323,62.293-62.272c1.109-0.171,1.109-1.6,0-1.771c-32.043-4.949-57.323-30.229-62.293-62.272
				c-0.171-1.109-1.6-1.109-1.771,0c-4.949,32.043-30.229,57.323-62.272,62.272C21.062,98.269,21.062,99.698,22.172,99.869z"/>
			<path d="M454.454,126.104c-6.661-54.556-51.131-97.076-105.505-97.076c-53.579,0-97.54,41.287-105.187,94.693
				c-1.526,0.283-3.052,0.599-4.58,0.98c-19.627,4.89-35.663,17.056-46.186,33.057c-24.941-1.863-49.823,8.838-66.199,29.866
				c-9.131,11.735-14.611,25.339-16.587,39.305c-37.824-1.411-74.643,18.443-94.993,53.91
				c-30.003,52.19-14.329,120.134,35.464,152.164c9.909,6.374,23.109,3.509,29.483-6.4c6.374-9.909,3.509-23.109-6.4-29.483
				c-30.478-19.606-40.338-62.346-21.548-95.031c13.608-23.716,38.685-35.658,63.172-31.887
				c4.664,11.674,12.001,22.387,21.95,31.054c8.884,7.739,22.359,6.811,30.099-2.073c7.739-8.884,6.811-22.359-2.073-30.099
				c-5.817-5.068-9.78-11.722-11.792-18.939c-0.167-1.505-0.492-2.98-0.967-4.402c-1.812-10.957,0.692-22.698,7.859-31.909
				c5.055-6.491,11.715-10.749,18.874-12.584c-0.204,6.885,0.42,13.9,1.977,20.909c2.556,11.502,13.952,18.753,25.453,16.197
				s18.753-13.952,16.198-25.453c-4.708-21.184,7.505-42.06,26.529-46.799c18.585-4.63,37.558,7.804,42.178,28.581
				c2.558,11.501,13.954,18.751,25.455,16.194c11.501-2.557,18.751-13.954,16.194-25.455c-5.969-26.843-24.139-47.575-47.078-57.152
				c5.312-32.322,31.572-56.575,62.704-56.575c30.637,0,56.569,23.484,62.447,55.036c-32.209,10.12-55.437,41.31-55.437,77.858
				c0,11.782,9.551,21.333,21.333,21.333c11.782,0,21.333-9.551,21.333-21.333c0-21.607,16.111-38.656,35.349-38.656
				c19.258,0,35.371,17.047,35.371,38.656c0,11.782,9.551,21.333,21.333,21.333c11.782,0,21.333-9.551,21.333-21.333
				C512.013,167.244,487.763,135.5,454.454,126.104z"/>
			<path d="M368.917,254.567L262.251,361.234c-0.004,0.004-0.006,0.008-0.01,0.011c-0.493,0.494-0.96,1.012-1.403,1.552
				c-0.203,0.247-0.379,0.507-0.569,0.761c-0.227,0.303-0.462,0.6-0.673,0.916c-0.203,0.304-0.379,0.619-0.565,0.931
				c-0.171,0.286-0.35,0.565-0.508,0.859c-0.17,0.318-0.314,0.644-0.467,0.969c-0.145,0.307-0.298,0.609-0.429,0.923
				c-0.13,0.315-0.236,0.637-0.35,0.957c-0.121,0.337-0.25,0.669-0.354,1.013c-0.097,0.32-0.168,0.646-0.249,0.969
				c-0.089,0.351-0.187,0.698-0.258,1.055c-0.074,0.375-0.119,0.753-0.173,1.13c-0.044,0.311-0.104,0.617-0.135,0.933
				c-0.138,1.4-0.138,2.811,0,4.211c0.031,0.315,0.09,0.621,0.135,0.933c0.054,0.377,0.098,0.756,0.173,1.13
				c0.071,0.358,0.169,0.704,0.258,1.055c0.081,0.324,0.152,0.649,0.249,0.969c0.104,0.344,0.233,0.677,0.354,1.013
				c0.115,0.32,0.22,0.642,0.35,0.957c0.13,0.315,0.284,0.616,0.429,0.923c0.153,0.324,0.297,0.651,0.467,0.969
				c0.158,0.294,0.337,0.573,0.508,0.859c0.186,0.311,0.362,0.627,0.565,0.931c0.211,0.316,0.446,0.612,0.673,0.916
				c0.19,0.254,0.366,0.514,0.569,0.761c0.443,0.54,0.91,1.059,1.403,1.552c0.004,0.004,0.006,0.008,0.01,0.011
				c0.004,0.004,0.008,0.007,0.012,0.011c0.493,0.492,1.012,0.959,1.551,1.402c0.247,0.203,0.507,0.379,0.76,0.568
				c0.304,0.227,0.601,0.463,0.917,0.674c0.303,0.203,0.618,0.379,0.93,0.565c0.286,0.171,0.565,0.35,0.86,0.508
				c0.318,0.17,0.645,0.314,0.969,0.467c0.307,0.145,0.609,0.298,0.923,0.428c0.315,0.13,0.636,0.235,0.956,0.35
				c0.337,0.121,0.67,0.25,1.015,0.355c0.32,0.097,0.645,0.168,0.968,0.249c0.351,0.089,0.698,0.187,1.056,0.258
				c0.375,0.074,0.753,0.118,1.13,0.172c0.311,0.044,0.618,0.104,0.933,0.135c0.7,0.069,1.402,0.106,2.104,0.106
				c0,0,0.001,0,0.001,0h33.83l-48.915,48.915c-8.331,8.331-8.331,21.839,0,30.17c8.331,8.331,21.839,8.331,30.17,0l85.333-85.333
				c0.008-0.008,0.014-0.016,0.021-0.023c0.488-0.49,0.952-1.004,1.392-1.54c0.204-0.248,0.38-0.509,0.571-0.764
				c0.226-0.302,0.461-0.598,0.671-0.913c0.204-0.304,0.38-0.62,0.566-0.932c0.17-0.285,0.349-0.564,0.506-0.857
				c0.17-0.318,0.315-0.646,0.468-0.971c0.145-0.306,0.297-0.607,0.428-0.921c0.13-0.315,0.236-0.637,0.35-0.957
				c0.121-0.337,0.25-0.669,0.354-1.013c0.097-0.32,0.168-0.646,0.249-0.969c0.089-0.351,0.187-0.698,0.258-1.055
				c0.074-0.375,0.118-0.753,0.173-1.13c0.044-0.311,0.104-0.617,0.135-0.933c0.138-1.4,0.138-2.811,0-4.211
				c-0.031-0.315-0.09-0.621-0.135-0.933c-0.054-0.377-0.098-0.756-0.173-1.13c-0.071-0.358-0.169-0.704-0.258-1.055
				c-0.081-0.324-0.152-0.649-0.249-0.969c-0.104-0.344-0.233-0.677-0.354-1.013c-0.115-0.32-0.22-0.642-0.35-0.957
				c-0.13-0.314-0.283-0.615-0.428-0.921c-0.153-0.325-0.297-0.653-0.468-0.971c-0.157-0.293-0.336-0.572-0.506-0.857
				c-0.186-0.312-0.363-0.628-0.566-0.932c-0.211-0.315-0.445-0.611-0.671-0.913c-0.191-0.255-0.368-0.516-0.571-0.764
				c-0.439-0.535-0.903-1.05-1.392-1.54c-0.007-0.008-0.014-0.016-0.021-0.023s-0.016-0.014-0.023-0.021
				c-0.49-0.488-1.004-0.952-1.54-1.392c-0.248-0.204-0.509-0.38-0.764-0.571c-0.302-0.226-0.598-0.461-0.913-0.671
				c-0.304-0.204-0.62-0.38-0.932-0.566c-0.285-0.17-0.564-0.349-0.857-0.506c-0.318-0.17-0.646-0.315-0.971-0.468
				c-0.306-0.145-0.607-0.297-0.921-0.428c-0.315-0.13-0.637-0.236-0.957-0.35c-0.337-0.121-0.669-0.25-1.013-0.354
				c-0.32-0.097-0.646-0.168-0.969-0.249c-0.351-0.089-0.698-0.187-1.055-0.258c-0.375-0.074-0.753-0.118-1.13-0.173
				c-0.311-0.044-0.617-0.104-0.933-0.135c-0.701-0.069-1.404-0.106-2.107-0.106h-33.829l70.248-70.248
				c8.331-8.331,8.331-21.839,0-30.17C390.756,246.236,377.248,246.236,368.917,254.567z"/>
		</g>
	</g>
</g>
<g>
</g>
<g>
</g>
<g>
</g>
<g>
</g>
<g>
</g>
<g>
</g>
<g>
</g>
<g>
</g>
<g>
</g>
<g>
</g>
<g>
</g>
<g>
</g>
<g>
</g>
<g>
</g>
<g>
</g>
</svg>
