<?xml version="1.0" encoding="iso-8859-1"?>
<!-- Generator: Adobe Illustrator 19.0.0, SVG Export Plug-In . SVG Version: 6.00 Build 0)  -->
<svg version="1.1" id="Capa_1" xmlns="http://www.w3.org/2000/svg" xmlns:xlink="http://www.w3.org/1999/xlink" x="0px" y="0px"
	 viewBox="0 0 490 490" style="enable-background:new 0 0 490 490;" xml:space="preserve">
<g>
	<path d="M490,474.23l-91.875-133.018H288.64c34.877-50.416,89.537-137.365,89.537-187.654C378.177,69.861,325.931,15.77,245,15.77
		S111.823,69.861,111.823,153.557c0,50.342,54.614,137.261,89.532,187.654H91.875L0,474.23H490z M431.628,443.605H279.155
		l98.124-71.768h4.778L431.628,443.605z M245,46.395c64.215,0,102.552,40.06,102.552,107.162c0,28.9-31.818,100.291-102.557,196.233
		c-75.054-100.52-102.548-172.052-102.548-196.233C142.448,86.455,180.785,46.395,245,46.395z M228.711,379.037L245,400.55
		l16.391-21.513c1.073-1.424,2.927-3.893,5.37-7.2h58.642l-78.606,57.489l-81.252-57.489h57.752
		C225.759,375.15,227.626,377.618,228.711,379.037z M107.942,371.837h4.861l-0.095,0.135l101.246,71.634H58.372L107.942,371.837z"/>
	<circle cx="245" cy="153.462" r="43.129"/>
</g>
<g>
</g>
<g>
</g>
<g>
</g>
<g>
</g>
<g>
</g>
<g>
</g>
<g>
</g>
<g>
</g>
<g>
</g>
<g>
</g>
<g>
</g>
<g>
</g>
<g>
</g>
<g>
</g>
<g>
</g>
</svg>
