<?xml version="1.0" encoding="iso-8859-1"?>
<!-- Generator: Adobe Illustrator 19.0.0, SVG Export Plug-In . SVG Version: 6.00 Build 0)  -->
<svg version="1.1" id="Layer_1" xmlns="http://www.w3.org/2000/svg" xmlns:xlink="http://www.w3.org/1999/xlink" x="0px" y="0px"
	 viewBox="0 0 512 512" style="enable-background:new 0 0 512 512;" xml:space="preserve">
<polygon style="fill:#FFE9B7;" points="512,123.78 512,512 478.242,512 455.736,93.859 "/>
<polygon style="fill:#FFF7E6;" points="478.242,123.78 478.242,512 0,512 0,123.78 239.121,67.516 "/>
<polygon style="fill:#F774C1;" points="512,33.758 512,123.78 478.242,123.78 444.484,78.769 478.242,33.758 "/>
<path style="fill:#F997D1;" d="M478.242,33.758v90.022H0V33.758H478.242z"/>
<path style="fill:#F99A25;" d="M399.563,371.403v61.89h33.758c9.284,0,18.961-7.303,21.515-16.226l6.617-23.158L399.563,371.403z"/>
<path style="fill:#FFBE26;" d="M427.694,393.908l-6.617,23.158c-2.554,8.923-12.232,16.226-21.515,16.226H78.645
	c-9.284,0-18.961-7.303-21.515-16.226l-6.617-23.158l188.59-22.505L427.694,393.908z"/>
<path style="fill:#F21897;" d="M422.417,315.488l-132.22-101.398c-9.25-7.1-20.761-11.399-33.286-11.59v191.409l187.572-33.758
	C444.484,341.943,435.83,325.773,422.417,315.488z"/>
<path style="fill:#F446AC;" d="M399.473,360.15l-142.561,33.758L67.516,360.15c0-18.207,8.653-34.377,22.067-44.662l132.22-101.398
	c9.475-7.269,21.324-11.602,34.197-11.602c0.304,0,0.608,0,0.911,0.011c9.441,0.259,18.128,4.546,25.116,11.59l100.645,101.398
	C392.89,325.773,399.473,341.943,399.473,360.15z"/>
<path style="fill:#FFBE26;" d="M461.363,360.15h-33.758l0.09,33.758h33.758c9.272-0.045,16.789-7.596,16.789-16.879
	C478.242,367.712,470.68,360.15,461.363,360.15z"/>
<path style="fill:#FFD46E;" d="M427.604,360.15c9.317,0,16.879,7.562,16.879,16.879c0,9.284-7.517,16.834-16.789,16.879
	c-0.034,0-16.935,0-16.969,0H67.516c-0.034,0-16.969,0-17.003,0c-9.272-0.045-16.789-7.596-16.789-16.879
	c0-9.317,7.562-16.879,16.879-16.879H427.604z"/>
<g>
	<circle style="fill:#F21897;" cx="202.111" cy="281.724" r="8.44"/>
	<circle style="fill:#F21897;" cx="168.352" cy="315.482" r="8.44"/>
	<circle style="fill:#F21897;" cx="343.648" cy="315.482" r="8.44"/>
</g>
<g>
	<path style="fill:#FFD46E;" d="M61.087,0c-9.322,0-16.879,7.557-16.879,16.879v33.758c0,9.322,7.557,16.879,16.879,16.879
		s16.879-7.557,16.879-16.879V16.879C77.966,7.557,70.408,0,61.087,0z"/>
	<path style="fill:#FFD46E;" d="M139.051,0c-9.322,0-16.879,7.557-16.879,16.879v33.758c0,9.322,7.557,16.879,16.879,16.879
		s16.879-7.557,16.879-16.879V16.879C155.93,7.557,148.374,0,139.051,0z"/>
	<path style="fill:#FFD46E;" d="M294.983,0c-9.322,0-16.879,7.557-16.879,16.879v33.758c0,9.322,7.557,16.879,16.879,16.879
		s16.879-7.557,16.879-16.879V16.879C311.862,7.557,304.305,0,294.983,0z"/>
	<path style="fill:#FFD46E;" d="M217.017,0c-9.322,0-16.879,7.557-16.879,16.879v33.758c0,9.322,7.557,16.879,16.879,16.879
		c9.322,0,16.879-7.557,16.879-16.879V16.879C233.896,7.557,226.339,0,217.017,0z"/>
	<path style="fill:#FFD46E;" d="M372.948,0c-9.322,0-16.879,7.557-16.879,16.879v33.758c0,9.322,7.557,16.879,16.879,16.879
		s16.879-7.557,16.879-16.879V16.879C389.828,7.557,382.27,0,372.948,0z"/>
	<path style="fill:#FFD46E;" d="M450.913,0c-9.322,0-16.879,7.557-16.879,16.879v33.758c0,9.322,7.557,16.879,16.879,16.879
		c9.322,0,16.879-7.557,16.879-16.879V16.879C467.792,7.557,460.236,0,450.913,0z"/>
</g>
<g>
</g>
<g>
</g>
<g>
</g>
<g>
</g>
<g>
</g>
<g>
</g>
<g>
</g>
<g>
</g>
<g>
</g>
<g>
</g>
<g>
</g>
<g>
</g>
<g>
</g>
<g>
</g>
<g>
</g>
</svg>
