<?xml version="1.0" encoding="iso-8859-1"?>
<!-- Generator: Adobe Illustrator 19.0.0, SVG Export Plug-In . SVG Version: 6.00 Build 0)  -->
<svg version="1.1" id="Layer_1" xmlns="http://www.w3.org/2000/svg" xmlns:xlink="http://www.w3.org/1999/xlink" x="0px" y="0px"
	 viewBox="0 0 512 512" style="enable-background:new 0 0 512 512;" xml:space="preserve">
<path style="fill:#F2F2F2;" d="M360.603,501.801H151.399c-12.397,0-22.447-10.05-22.447-22.447V32.647
	c0-12.397,10.05-22.447,22.447-22.447h209.204c12.397,0,22.447,10.05,22.447,22.447v446.708
	C383.05,491.752,373,501.801,360.603,501.801z"/>
<g>
	<polygon style="fill:#72BEDE;" points="348.813,60.634 163.188,60.634 178.487,271.758 333.514,271.758 	"/>
	<rect x="178.487" y="271.758" style="fill:#72BEDE;" width="155.028" height="179.608"/>
</g>
<g>
	<path style="fill:#534741;" d="M360.603,0H151.399c-18.002,0-32.647,14.645-32.647,32.647v446.707
		c0,18.001,14.645,32.647,32.647,32.647h209.203c18.002,0,32.647-14.645,32.647-32.647V32.647C393.248,14.645,378.603,0,360.603,0z
		 M372.85,479.353c0,6.754-5.494,12.248-12.248,12.248H151.399c-6.754,0-12.248-5.494-12.248-12.248V32.647
		c0-6.754,5.494-12.248,12.248-12.248h209.203c6.754,0,12.248,5.494,12.248,12.248V479.353z"/>
	<path style="fill:#534741;" d="M348.813,50.435H163.188c-2.833,0-5.538,1.178-7.468,3.253c-1.93,2.075-2.91,4.858-2.704,7.683
		l15.271,210.753v179.242c0,5.632,4.566,10.199,10.199,10.199h155.028c5.633,0,10.199-4.567,10.199-10.199V272.124l15.272-210.752
		c0.205-2.826-0.775-5.609-2.704-7.683C354.351,51.613,351.647,50.435,348.813,50.435z M337.848,70.833l-13.821,190.725H187.974
		L174.153,70.833L337.848,70.833L337.848,70.833z M323.315,441.167H188.686v-159.21h134.629V441.167z"/>
	<path style="fill:#534741;" d="M301.897,426.786c5.633,0,10.199-4.567,10.199-10.199v-70.375c0-5.632-4.566-10.199-10.199-10.199
		s-10.199,4.567-10.199,10.199v70.375C291.698,422.219,296.264,426.786,301.897,426.786z"/>
	<path style="fill:#534741;" d="M301.897,324.794c5.633,0,10.199-4.567,10.199-10.199v-5.1c0-5.632-4.566-10.199-10.199-10.199
		s-10.199,4.567-10.199,10.199v5.1C291.698,320.227,296.264,324.794,301.897,324.794z"/>
</g>
<g>
</g>
<g>
</g>
<g>
</g>
<g>
</g>
<g>
</g>
<g>
</g>
<g>
</g>
<g>
</g>
<g>
</g>
<g>
</g>
<g>
</g>
<g>
</g>
<g>
</g>
<g>
</g>
<g>
</g>
</svg>
