<?xml version="1.0" encoding="iso-8859-1"?>
<!-- Generator: Adobe Illustrator 19.0.0, SVG Export Plug-In . SVG Version: 6.00 Build 0)  -->
<svg version="1.1" id="Layer_1" xmlns="http://www.w3.org/2000/svg" xmlns:xlink="http://www.w3.org/1999/xlink" x="0px" y="0px"
	 viewBox="0 0 511.997 511.997" style="enable-background:new 0 0 511.997 511.997;" xml:space="preserve">
<g>
	<g>
		<path d="M480.658,413.633c-1.82-2.452-4.693-3.896-7.747-3.896H370.644V202.873c6.512-5.834,10.618-14.299,10.618-23.709
			c0-17.554-14.283-31.837-31.837-31.837h-34.73v-19.294c0-5.328-4.318-9.648-9.648-9.648c-5.33,0-9.648,4.32-9.648,9.648v19.294
			h-34.73c-17.554,0-31.837,14.283-31.837,31.837c0,9.407,4.105,17.872,10.613,23.704v206.867h-92.841l-29.587-51.105
			c-8.356-14.436-23.303-23.182-39.982-23.398c-16.648-0.175-31.846,8.142-40.575,22.356c-9.011,14.675-9.371,32.41-0.964,47.439
			c8.408,15.029,23.711,24.003,40.931,24.003h57.452l23.011,76.111c1.23,4.071,4.981,6.856,9.235,6.856H447.83
			c4.254,0,8.005-2.785,9.235-6.856l25.083-82.968C483.03,419.254,482.477,416.085,480.658,413.633z M76.428,409.736
			c-10.137,0-19.144-5.281-24.093-14.127c-4.95-8.846-4.738-19.284,0.567-27.924c5.072-8.261,13.84-13.16,23.51-13.16
			c0.123,0,0.247,0,0.37,0.001c9.818,0.127,18.615,5.275,23.534,13.772l23.989,41.437H76.428z M260.669,166.623h88.755
			c6.916,0,12.541,5.627,12.541,12.541s-5.625,12.541-12.541,12.541h-88.755c-6.916,0-12.541-5.627-12.541-12.541
			S253.753,166.623,260.669,166.623z M330.129,363.429c-5.33,0-9.648,4.32-9.648,9.648v36.659h-27.014v-57.885
			c0-5.328-4.318-9.648-9.648-9.648c-5.33,0-9.648,4.32-9.648,9.648v57.885H258.74V210.937c0.638,0.039,1.28,0.064,1.928,0.064
			h88.755c0.646,0,1.286-0.026,1.923-0.063v198.799h-11.57v-36.661C339.777,367.749,335.459,363.429,330.129,363.429z
			 M440.666,492.704H173.287l-19.249-63.672h305.878L440.666,492.704z"/>
	</g>
</g>
<g>
	<g>
		<path d="M338.888,54.145L313.619,5.22C311.962,2.014,308.656,0,305.046,0c-3.61,0-6.916,2.014-8.572,5.22l-25.268,48.925
			c-7.639,14.792-4.862,32.639,6.909,44.41c7.195,7.195,16.758,11.157,26.932,11.157s19.738-3.962,26.932-11.156
			C343.751,86.785,346.528,68.937,338.888,54.145z M318.333,84.912c-3.549,3.549-8.268,5.504-13.287,5.504
			s-9.738-1.955-13.288-5.504c-5.807-5.808-7.178-14.615-3.408-21.911l16.696-32.328l16.696,32.328
			C325.513,70.298,324.141,79.104,318.333,84.912z"/>
	</g>
</g>
<g>
</g>
<g>
</g>
<g>
</g>
<g>
</g>
<g>
</g>
<g>
</g>
<g>
</g>
<g>
</g>
<g>
</g>
<g>
</g>
<g>
</g>
<g>
</g>
<g>
</g>
<g>
</g>
<g>
</g>
</svg>
