<?xml version="1.0" encoding="iso-8859-1"?>
<!-- Generator: Adobe Illustrator 19.0.0, SVG Export Plug-In . SVG Version: 6.00 Build 0)  -->
<svg version="1.1" id="Layer_1" xmlns="http://www.w3.org/2000/svg" xmlns:xlink="http://www.w3.org/1999/xlink" x="0px" y="0px"
	 viewBox="0 0 512 512" style="enable-background:new 0 0 512 512;" xml:space="preserve">
<path style="fill:#693F9E;" d="M201.135,427.748l39.616-39.63H126.22l-63.909,63.909l15.623,0.229
	c6.331,0.093,12.317,0.214,17.935,0.328l1.183,0.023c9.727,0.198,18.128,0.369,25.975,0.369
	C158.856,452.977,179.682,449.201,201.135,427.748z"/>
<path style="fill:#E0F4B4;" d="M471.21,28.12C456.433,16.207,438.532,9.91,419.442,9.91c-22.084,0-42.837,8.598-58.436,24.209
	l-7.298,7.297v114.546L476.935,32.735L471.21,28.12z"/>
<g>
	<polygon style="fill:#089AC6;" points="467.278,161.594 352.732,161.594 242.781,271.558 357.325,271.558 	"/>
	<polygon style="fill:#089AC6;" points="127.184,382.475 237.137,272.522 237.137,157.977 127.184,267.929 	"/>
</g>
<polygon style="fill:#5EDAFF;" points="240.44,154.674 240.44,269.217 350.405,159.266 350.405,44.721 "/>
<path style="fill:#BBE095;" d="M477.876,150.996c15.613-15.601,24.212-36.355,24.212-58.44c0-19.09-6.297-36.992-18.211-51.768
	l-4.615-5.724L356.036,158.291h114.546L477.876,150.996z"/>
<g>
	<polygon style="fill:#4B58E3;" points="239.477,274.861 129.524,384.815 244.057,384.815 354.023,274.861 	"/>
	<path style="fill:#4B58E3;" d="M59.392,414.996l0.028,1.353c0.112,5.555,0.232,11.467,0.324,17.725l0.228,15.626l63.909-63.923
		V271.233l-39.631,39.632C57.812,337.314,58.339,363.26,59.392,414.996z"/>
</g>
<path d="M484.89,27.108c17.485,17.485,27.108,40.729,27.108,65.448s-9.623,47.963-27.108,65.448l-7.73,7.73
	c-0.033,0.033-0.077,0.066-0.11,0.11L250.636,392.247c-0.033,0.033-0.066,0.077-0.099,0.11l-42.402,42.391
	c-29.432,29.443-58.522,28.848-111.33,27.769c-10.46-0.22-22.209-0.462-35.146-0.495l-47.566,47.555
	C12.485,511.196,10.371,512,8.257,512s-4.228-0.804-5.836-2.422c-3.226-3.226-3.226-8.445,0-11.671l47.555-47.566
	c-0.033-12.938-0.275-24.686-0.495-35.146c-1.079-52.808-1.674-81.898,27.769-111.33l42.446-42.446v-0.011L353.994,27.108
	C371.479,9.623,394.723,0,419.442,0S467.405,9.623,484.89,27.108z M495.482,92.556c0-17.529-5.891-34.155-16.747-47.622
	L371.986,151.684h95.86l5.362-5.362C487.577,131.964,495.482,112.86,495.482,92.556z M360.315,140.013L467.064,33.263
	c-13.466-10.857-30.092-16.747-47.622-16.747c-20.304,0-39.407,7.906-53.766,22.275l-5.362,5.362V140.013z M354.589,264.952
	l96.74-96.751h-95.86l-96.74,96.751H354.589z M343.798,156.529v-95.86l-96.751,96.74v95.86L343.798,156.529z M241.321,378.208
	l96.751-96.74h-95.86l-96.74,96.74H241.321z M230.531,269.785v-95.86l-96.74,96.74v95.86L230.531,269.785z M196.463,423.077
	l28.342-28.353h-95.849l-50.925,50.925c6.772,0.099,13.147,0.231,19.104,0.352C148.545,447.048,172.009,447.532,196.463,423.077z
	 M117.274,383.042v-95.86l-28.353,28.353c-24.455,24.466-23.97,47.919-22.924,99.328c0.121,5.957,0.253,12.332,0.352,19.115
	L117.274,383.042z"/>
<g>
</g>
<g>
</g>
<g>
</g>
<g>
</g>
<g>
</g>
<g>
</g>
<g>
</g>
<g>
</g>
<g>
</g>
<g>
</g>
<g>
</g>
<g>
</g>
<g>
</g>
<g>
</g>
<g>
</g>
</svg>
