<?xml version="1.0" encoding="iso-8859-1"?>
<!-- Generator: Adobe Illustrator 19.0.0, SVG Export Plug-In . SVG Version: 6.00 Build 0)  -->
<svg version="1.1" id="Layer_1" xmlns="http://www.w3.org/2000/svg" xmlns:xlink="http://www.w3.org/1999/xlink" x="0px" y="0px"
	 viewBox="0 0 512 512" style="enable-background:new 0 0 512 512;" xml:space="preserve">
<path d="M512,128v256c0,8.448-6.912,15.36-15.36,15.36H15.36C6.912,399.36,0,392.448,0,384V128c0-8.448,6.912-15.36,15.36-15.36
	h481.28C505.088,112.64,512,119.552,512,128z"/>
<g>
	<path style="fill:#C9C9C9;" d="M481.28,225.28v61.44c0,2.816-2.304,5.12-5.12,5.12l0,0c-2.816,0-5.12-2.304-5.12-5.12v-61.44
		c0-2.816,2.304-5.12,5.12-5.12l0,0C478.976,220.16,481.28,222.464,481.28,225.28z"/>
	<path style="fill:#C9C9C9;" d="M25.76,259.12v45.44c0,2.816-2.304,5.12-5.12,5.12l0,0c-2.816,0-5.12-2.304-5.12-5.12v-45.44
		c0-2.816,2.304-5.12,5.12-5.12l0,0C23.456,254,25.76,256.304,25.76,259.12z"/>
	<circle style="fill:#C9C9C9;" cx="20.648" cy="225.04" r="5.128"/>
	<circle style="fill:#C9C9C9;" cx="20.648" cy="207.448" r="5.128"/>
</g>
<rect x="40.608" y="128" width="409.6" height="256"/>
<g>
	<g style="opacity:0.12;">
		<rect x="48.608" y="128" style="fill:#FFFFFF;" width="16" height="16"/>
		<rect x="83.48" y="128" style="fill:#FFFFFF;" width="16" height="16"/>
		<rect x="118.352" y="128" style="fill:#FFFFFF;" width="16" height="16"/>
		<rect x="153.2" y="128" style="fill:#FFFFFF;" width="16" height="16"/>
		<rect x="188.096" y="128" style="fill:#FFFFFF;" width="16" height="16"/>
		<rect x="222.976" y="128" style="fill:#FFFFFF;" width="16" height="16"/>
		<rect x="257.84" y="128" style="fill:#FFFFFF;" width="16" height="16"/>
		<rect x="292.72" y="128" style="fill:#FFFFFF;" width="16" height="16"/>
		<rect x="327.592" y="128" style="fill:#FFFFFF;" width="16" height="16"/>
		<rect x="362.48" y="128" style="fill:#FFFFFF;" width="16" height="16"/>
		<rect x="397.336" y="128" style="fill:#FFFFFF;" width="16" height="16"/>
		<rect x="432.24" y="128" style="fill:#FFFFFF;" width="16" height="16"/>
		<rect x="48.608" y="158" style="fill:#FFFFFF;" width="16" height="16"/>
		<rect x="83.48" y="158" style="fill:#FFFFFF;" width="16" height="16"/>
		<rect x="118.352" y="158" style="fill:#FFFFFF;" width="16" height="16"/>
		<rect x="153.2" y="158" style="fill:#FFFFFF;" width="16" height="16"/>
		<rect x="188.096" y="158" style="fill:#FFFFFF;" width="16" height="16"/>
		<rect x="222.976" y="158" style="fill:#FFFFFF;" width="16" height="16"/>
		<rect x="257.84" y="158" style="fill:#FFFFFF;" width="16" height="16"/>
		<rect x="292.72" y="158" style="fill:#FFFFFF;" width="16" height="16"/>
		<rect x="327.592" y="158" style="fill:#FFFFFF;" width="16" height="16"/>
		<rect x="362.48" y="158" style="fill:#FFFFFF;" width="16" height="16"/>
		<rect x="397.336" y="158" style="fill:#FFFFFF;" width="16" height="16"/>
		<rect x="432.24" y="158" style="fill:#FFFFFF;" width="16" height="16"/>
		<rect x="48.608" y="188" style="fill:#FFFFFF;" width="16" height="16"/>
		<rect x="83.48" y="188" style="fill:#FFFFFF;" width="16" height="16"/>
		<rect x="118.352" y="188" style="fill:#FFFFFF;" width="16" height="16"/>
		<rect x="153.2" y="188" style="fill:#FFFFFF;" width="16" height="16"/>
		<rect x="188.096" y="188" style="fill:#FFFFFF;" width="16" height="16"/>
		<rect x="222.976" y="188" style="fill:#FFFFFF;" width="16" height="16"/>
		<rect x="257.84" y="188" style="fill:#FFFFFF;" width="16" height="16"/>
		<rect x="292.72" y="188" style="fill:#FFFFFF;" width="16" height="16"/>
		<rect x="327.592" y="188" style="fill:#FFFFFF;" width="16" height="16"/>
		<rect x="362.48" y="188" style="fill:#FFFFFF;" width="16" height="16"/>
		<rect x="397.336" y="188" style="fill:#FFFFFF;" width="16" height="16"/>
		<rect x="432.24" y="188" style="fill:#FFFFFF;" width="16" height="16"/>
		<rect x="48.608" y="218" style="fill:#FFFFFF;" width="16" height="16"/>
		<rect x="83.48" y="218" style="fill:#FFFFFF;" width="16" height="16"/>
		<rect x="118.352" y="218" style="fill:#FFFFFF;" width="16" height="16"/>
		<rect x="153.2" y="218" style="fill:#FFFFFF;" width="16" height="16"/>
		<rect x="188.096" y="218" style="fill:#FFFFFF;" width="16" height="16"/>
		<rect x="222.976" y="218" style="fill:#FFFFFF;" width="16" height="16"/>
		<rect x="257.84" y="218" style="fill:#FFFFFF;" width="16" height="16"/>
		<rect x="292.72" y="218" style="fill:#FFFFFF;" width="16" height="16"/>
		<rect x="327.592" y="218" style="fill:#FFFFFF;" width="16" height="16"/>
		<rect x="362.48" y="218" style="fill:#FFFFFF;" width="16" height="16"/>
		<rect x="397.336" y="218" style="fill:#FFFFFF;" width="16" height="16"/>
		<rect x="432.24" y="218" style="fill:#FFFFFF;" width="16" height="16"/>
		<rect x="48.608" y="248" style="fill:#FFFFFF;" width="16" height="16"/>
		<rect x="83.48" y="248" style="fill:#FFFFFF;" width="16" height="16"/>
		<rect x="118.352" y="248" style="fill:#FFFFFF;" width="16" height="16"/>
		<rect x="153.2" y="248" style="fill:#FFFFFF;" width="16" height="16"/>
		<rect x="188.096" y="248" style="fill:#FFFFFF;" width="16" height="16"/>
		<rect x="222.976" y="248" style="fill:#FFFFFF;" width="16" height="16"/>
		<rect x="257.84" y="248" style="fill:#FFFFFF;" width="16" height="16"/>
		<rect x="292.72" y="248" style="fill:#FFFFFF;" width="16" height="16"/>
		<rect x="327.592" y="248" style="fill:#FFFFFF;" width="16" height="16"/>
		<rect x="362.48" y="248" style="fill:#FFFFFF;" width="16" height="16"/>
		<rect x="397.336" y="248" style="fill:#FFFFFF;" width="16" height="16"/>
		<rect x="432.24" y="248" style="fill:#FFFFFF;" width="16" height="16"/>
		<rect x="48.608" y="278" style="fill:#FFFFFF;" width="16" height="16"/>
		<rect x="83.48" y="278" style="fill:#FFFFFF;" width="16" height="16"/>
		<rect x="118.352" y="278" style="fill:#FFFFFF;" width="16" height="16"/>
		<rect x="153.2" y="278" style="fill:#FFFFFF;" width="16" height="16"/>
		<rect x="188.096" y="278" style="fill:#FFFFFF;" width="16" height="16"/>
		<rect x="222.976" y="278" style="fill:#FFFFFF;" width="16" height="16"/>
		<rect x="257.84" y="278" style="fill:#FFFFFF;" width="16" height="16"/>
		<rect x="292.72" y="278" style="fill:#FFFFFF;" width="16" height="16"/>
		<rect x="327.592" y="278" style="fill:#FFFFFF;" width="16" height="16"/>
		<rect x="362.48" y="278" style="fill:#FFFFFF;" width="16" height="16"/>
		<rect x="397.336" y="278" style="fill:#FFFFFF;" width="16" height="16"/>
		<rect x="432.24" y="278" style="fill:#FFFFFF;" width="16" height="16"/>
		<rect x="48.608" y="308" style="fill:#FFFFFF;" width="16" height="16"/>
		<rect x="83.48" y="308" style="fill:#FFFFFF;" width="16" height="16"/>
		<rect x="118.352" y="308" style="fill:#FFFFFF;" width="16" height="16"/>
		<rect x="153.2" y="308" style="fill:#FFFFFF;" width="16" height="16"/>
		<rect x="188.096" y="308" style="fill:#FFFFFF;" width="16" height="16"/>
		<rect x="222.976" y="308" style="fill:#FFFFFF;" width="16" height="16"/>
		<rect x="257.84" y="308" style="fill:#FFFFFF;" width="16" height="16"/>
		<rect x="292.72" y="308" style="fill:#FFFFFF;" width="16" height="16"/>
		<rect x="327.592" y="308" style="fill:#FFFFFF;" width="16" height="16"/>
		<rect x="362.48" y="308" style="fill:#FFFFFF;" width="16" height="16"/>
		<rect x="397.336" y="308" style="fill:#FFFFFF;" width="16" height="16"/>
		<rect x="432.24" y="308" style="fill:#FFFFFF;" width="16" height="16"/>
		<rect x="48.608" y="338" style="fill:#FFFFFF;" width="16" height="16"/>
		<rect x="83.48" y="338" style="fill:#FFFFFF;" width="16" height="16"/>
		<rect x="118.352" y="338" style="fill:#FFFFFF;" width="16" height="16"/>
		<rect x="153.2" y="338" style="fill:#FFFFFF;" width="16" height="16"/>
		<rect x="188.096" y="338" style="fill:#FFFFFF;" width="16" height="16"/>
		<rect x="222.976" y="338" style="fill:#FFFFFF;" width="16" height="16"/>
		<rect x="257.84" y="338" style="fill:#FFFFFF;" width="16" height="16"/>
		<rect x="292.72" y="338" style="fill:#FFFFFF;" width="16" height="16"/>
		<rect x="327.592" y="338" style="fill:#FFFFFF;" width="16" height="16"/>
		<rect x="362.48" y="338" style="fill:#FFFFFF;" width="16" height="16"/>
		<rect x="397.336" y="338" style="fill:#FFFFFF;" width="16" height="16"/>
		<rect x="432.24" y="338" style="fill:#FFFFFF;" width="16" height="16"/>
		<rect x="48.608" y="368" style="fill:#FFFFFF;" width="16" height="16"/>
		<rect x="83.48" y="368" style="fill:#FFFFFF;" width="16" height="16"/>
		<rect x="118.352" y="368" style="fill:#FFFFFF;" width="16" height="16"/>
		<rect x="153.2" y="368" style="fill:#FFFFFF;" width="16" height="16"/>
		<rect x="188.096" y="368" style="fill:#FFFFFF;" width="16" height="16"/>
		<rect x="222.976" y="368" style="fill:#FFFFFF;" width="16" height="16"/>
		<rect x="257.84" y="368" style="fill:#FFFFFF;" width="16" height="16"/>
		<rect x="292.72" y="368" style="fill:#FFFFFF;" width="16" height="16"/>
		<rect x="327.592" y="368" style="fill:#FFFFFF;" width="16" height="16"/>
		<rect x="362.48" y="368" style="fill:#FFFFFF;" width="16" height="16"/>
		<rect x="397.336" y="368" style="fill:#FFFFFF;" width="16" height="16"/>
		<rect x="432.24" y="368" style="fill:#FFFFFF;" width="16" height="16"/>
	</g>
	<path style="fill:#FFFFFF;" d="M358.024,263.056h-78.856c-5.904,0-10.736-4.832-10.736-10.736v-7.048
		c0-5.904,4.832-10.736,10.736-10.736h78.856c5.904,0,10.736,4.832,10.736,10.736v7.048
		C368.76,258.224,363.928,263.056,358.024,263.056z"/>
	<path style="fill:#FFFFFF;" d="M347.952,291.584h-78.856c-5.904,0-10.736-4.832-10.736-10.736V273.8
		c0-5.904,4.832-10.736,10.736-10.736h78.856c5.904,0,10.736,4.832,10.736,10.736v7.048
		C358.696,286.752,353.864,291.584,347.952,291.584z"/>
	<path style="fill:#FFFFFF;" d="M337.888,320.104h-78.856c-5.904,0-10.736-4.832-10.736-10.736v-7.048
		c0-5.904,4.832-10.736,10.736-10.736h78.856c5.904,0,10.736,4.832,10.736,10.736v7.048
		C348.624,315.272,343.792,320.104,337.888,320.104z"/>
	<path style="fill:#FFFFFF;" d="M327.824,348.624h-78.856c-5.904,0-10.736-4.832-10.736-10.736v-7.048
		c0-5.904,4.832-10.736,10.736-10.736h78.856c5.904,0,10.736,4.832,10.736,10.736v7.048
		C338.56,343.792,333.728,348.624,327.824,348.624z"/>
	<path style="fill:#FFFFFF;" d="M278.2,234.536c0,0,10.784-21.896,6.584-47.736c-4.192-25.84-27.096-40.184-28.776-23.072
		c-1.68,17.112-1.792,40.824-17.784,62.752c-9.296,12.744-37.248,24.608-37.248,24.608v90.824c0,0,6.712,0,15.768,0
		s11.072,6.712,35.232,6.712C251.984,348.624,284.576,286.888,278.2,234.536z"/>
</g>
<rect x="143.24" y="242.56" style="fill:#E21B1B;" width="57.736" height="109.616"/>
<g>
	<path style="fill:#E0E0E0;" d="M201.056,251.056v90.856h9.128v-95.184C205.072,249.336,201.36,250.928,201.056,251.056z"/>
	<path style="fill:#E0E0E0;" d="M347.952,263.056H276.88l81.12,7.056C356.48,266.016,352.56,263.056,347.952,263.056z"/>
	<path style="fill:#E0E0E0;" d="M337.888,291.584h-57.272l67.312,7.056C346.416,294.536,342.496,291.584,337.888,291.584z"/>
	<path style="fill:#E0E0E0;" d="M327.824,320.104h-57.28l67.328,7.056C336.352,323.064,332.432,320.104,327.824,320.104z"/>
</g>
<g>
</g>
<g>
</g>
<g>
</g>
<g>
</g>
<g>
</g>
<g>
</g>
<g>
</g>
<g>
</g>
<g>
</g>
<g>
</g>
<g>
</g>
<g>
</g>
<g>
</g>
<g>
</g>
<g>
</g>
</svg>
