<?xml version="1.0" encoding="iso-8859-1"?>
<!-- Generator: Adobe Illustrator 19.0.0, SVG Export Plug-In . SVG Version: 6.00 Build 0)  -->
<svg version="1.1" id="Layer_1" xmlns="http://www.w3.org/2000/svg" xmlns:xlink="http://www.w3.org/1999/xlink" x="0px" y="0px"
	 viewBox="0 0 512 512" style="enable-background:new 0 0 512 512;" xml:space="preserve">
<path d="M469.32,396.792V102.4c0-7.04-5.76-12.8-12.8-12.8H55.536c-7.04,0-12.8,5.76-12.8,12.8v294.392
	C42.736,396.792,470.384,396.792,469.32,396.792z"/>
<rect y="396.8" style="fill:#D8D8D8;" width="512" height="8.536"/>
<polygon style="fill:#BCBCBC;" points="486.4,422.4 25.6,422.4 0,405.328 512,405.328 "/>
<g style="opacity:0.7;">
	<path style="fill:#FFFFFF;" d="M299.04,396.8h-86.08c0.816,4.792,4.824,8.536,9.832,8.536H289.2
		C294.216,405.328,298.224,401.592,299.04,396.8z"/>
</g>
<g style="opacity:0.12;">
	<rect x="56.24" y="107.2" style="fill:#FFFFFF;" width="16" height="16"/>
	<rect x="91.072" y="107.2" style="fill:#FFFFFF;" width="16" height="16"/>
	<rect x="125.944" y="107.2" style="fill:#FFFFFF;" width="16" height="16"/>
	<rect x="160.8" y="107.2" style="fill:#FFFFFF;" width="16" height="16"/>
	<rect x="195.688" y="107.2" style="fill:#FFFFFF;" width="16" height="16"/>
	<rect x="230.56" y="107.2" style="fill:#FFFFFF;" width="16" height="16"/>
	<rect x="265.44" y="107.2" style="fill:#FFFFFF;" width="16" height="16"/>
	<rect x="300.312" y="107.2" style="fill:#FFFFFF;" width="16" height="16"/>
	<rect x="335.184" y="107.2" style="fill:#FFFFFF;" width="16" height="16"/>
	<rect x="370.08" y="107.2" style="fill:#FFFFFF;" width="16" height="16"/>
	<rect x="404.928" y="107.2" style="fill:#FFFFFF;" width="16" height="16"/>
	<rect x="439.8" y="107.2" style="fill:#FFFFFF;" width="16" height="16"/>
	<rect x="56.24" y="139.2" style="fill:#FFFFFF;" width="16" height="16"/>
	<rect x="91.072" y="139.2" style="fill:#FFFFFF;" width="16" height="16"/>
	<rect x="125.944" y="139.2" style="fill:#FFFFFF;" width="16" height="16"/>
	<rect x="160.8" y="139.2" style="fill:#FFFFFF;" width="16" height="16"/>
	<rect x="195.688" y="139.2" style="fill:#FFFFFF;" width="16" height="16"/>
	<rect x="230.56" y="139.2" style="fill:#FFFFFF;" width="16" height="16"/>
	<rect x="265.44" y="139.2" style="fill:#FFFFFF;" width="16" height="16"/>
	<rect x="300.312" y="139.2" style="fill:#FFFFFF;" width="16" height="16"/>
	<rect x="335.184" y="139.2" style="fill:#FFFFFF;" width="16" height="16"/>
	<rect x="370.08" y="139.2" style="fill:#FFFFFF;" width="16" height="16"/>
	<rect x="404.928" y="139.2" style="fill:#FFFFFF;" width="16" height="16"/>
	<rect x="439.8" y="139.2" style="fill:#FFFFFF;" width="16" height="16"/>
	<rect x="56.24" y="171.2" style="fill:#FFFFFF;" width="16" height="16"/>
	<rect x="91.072" y="171.2" style="fill:#FFFFFF;" width="16" height="16"/>
	<rect x="125.944" y="171.2" style="fill:#FFFFFF;" width="16" height="16"/>
	<rect x="160.8" y="171.2" style="fill:#FFFFFF;" width="16" height="16"/>
	<rect x="195.688" y="171.2" style="fill:#FFFFFF;" width="16" height="16"/>
	<rect x="230.56" y="171.2" style="fill:#FFFFFF;" width="16" height="16"/>
	<rect x="265.44" y="171.2" style="fill:#FFFFFF;" width="16" height="16"/>
	<rect x="300.312" y="171.2" style="fill:#FFFFFF;" width="16" height="16"/>
	<rect x="335.184" y="171.2" style="fill:#FFFFFF;" width="16" height="16"/>
	<rect x="370.08" y="171.2" style="fill:#FFFFFF;" width="16" height="16"/>
	<rect x="404.928" y="171.2" style="fill:#FFFFFF;" width="16" height="16"/>
	<rect x="439.8" y="171.2" style="fill:#FFFFFF;" width="16" height="16"/>
	<rect x="56.24" y="203.2" style="fill:#FFFFFF;" width="16" height="16"/>
	<rect x="91.072" y="203.2" style="fill:#FFFFFF;" width="16" height="16"/>
	<rect x="125.944" y="203.2" style="fill:#FFFFFF;" width="16" height="16"/>
	<rect x="160.8" y="203.2" style="fill:#FFFFFF;" width="16" height="16"/>
	<rect x="195.688" y="203.2" style="fill:#FFFFFF;" width="16" height="16"/>
	<rect x="230.56" y="203.2" style="fill:#FFFFFF;" width="16" height="16"/>
	<rect x="265.44" y="203.2" style="fill:#FFFFFF;" width="16" height="16"/>
	<rect x="300.312" y="203.2" style="fill:#FFFFFF;" width="16" height="16"/>
	<rect x="335.184" y="203.2" style="fill:#FFFFFF;" width="16" height="16"/>
	<rect x="370.08" y="203.2" style="fill:#FFFFFF;" width="16" height="16"/>
	<rect x="404.928" y="203.2" style="fill:#FFFFFF;" width="16" height="16"/>
	<rect x="439.8" y="203.2" style="fill:#FFFFFF;" width="16" height="16"/>
	<rect x="56.24" y="235.2" style="fill:#FFFFFF;" width="16" height="16"/>
	<rect x="91.072" y="235.2" style="fill:#FFFFFF;" width="16" height="16"/>
	<rect x="125.944" y="235.2" style="fill:#FFFFFF;" width="16" height="16"/>
	<rect x="160.8" y="235.2" style="fill:#FFFFFF;" width="16" height="16"/>
	<rect x="195.688" y="235.2" style="fill:#FFFFFF;" width="16" height="16"/>
	<rect x="230.56" y="235.2" style="fill:#FFFFFF;" width="16" height="16"/>
	<rect x="265.44" y="235.2" style="fill:#FFFFFF;" width="16" height="16"/>
	<rect x="300.312" y="235.2" style="fill:#FFFFFF;" width="16" height="16"/>
	<rect x="335.184" y="235.2" style="fill:#FFFFFF;" width="16" height="16"/>
	<rect x="370.08" y="235.2" style="fill:#FFFFFF;" width="16" height="16"/>
	<rect x="404.928" y="235.2" style="fill:#FFFFFF;" width="16" height="16"/>
	<rect x="439.8" y="235.2" style="fill:#FFFFFF;" width="16" height="16"/>
	<rect x="56.24" y="267.2" style="fill:#FFFFFF;" width="16" height="16"/>
	<rect x="91.072" y="267.2" style="fill:#FFFFFF;" width="16" height="16"/>
	<rect x="125.944" y="267.2" style="fill:#FFFFFF;" width="16" height="16"/>
	<rect x="160.8" y="267.2" style="fill:#FFFFFF;" width="16" height="16"/>
	<rect x="195.688" y="267.2" style="fill:#FFFFFF;" width="16" height="16"/>
	<rect x="230.56" y="267.2" style="fill:#FFFFFF;" width="16" height="16"/>
	<rect x="265.44" y="267.2" style="fill:#FFFFFF;" width="16" height="16"/>
	<rect x="300.312" y="267.2" style="fill:#FFFFFF;" width="16" height="16"/>
	<rect x="335.184" y="267.2" style="fill:#FFFFFF;" width="16" height="16"/>
	<rect x="370.08" y="267.2" style="fill:#FFFFFF;" width="16" height="16"/>
	<rect x="404.928" y="267.2" style="fill:#FFFFFF;" width="16" height="16"/>
	<rect x="439.8" y="267.2" style="fill:#FFFFFF;" width="16" height="16"/>
	<rect x="56.24" y="299.2" style="fill:#FFFFFF;" width="16" height="16"/>
	<rect x="91.072" y="299.2" style="fill:#FFFFFF;" width="16" height="16"/>
	<rect x="125.944" y="299.2" style="fill:#FFFFFF;" width="16" height="16"/>
	<rect x="160.8" y="299.2" style="fill:#FFFFFF;" width="16" height="16"/>
	<rect x="195.688" y="299.2" style="fill:#FFFFFF;" width="16" height="16"/>
	<rect x="230.56" y="299.2" style="fill:#FFFFFF;" width="16" height="16"/>
	<rect x="265.44" y="299.2" style="fill:#FFFFFF;" width="16" height="16"/>
	<rect x="300.312" y="299.2" style="fill:#FFFFFF;" width="16" height="16"/>
	<rect x="335.184" y="299.2" style="fill:#FFFFFF;" width="16" height="16"/>
	<rect x="370.08" y="299.2" style="fill:#FFFFFF;" width="16" height="16"/>
	<rect x="404.928" y="299.2" style="fill:#FFFFFF;" width="16" height="16"/>
	<rect x="439.8" y="299.2" style="fill:#FFFFFF;" width="16" height="16"/>
	<rect x="56.24" y="331.2" style="fill:#FFFFFF;" width="16" height="16"/>
	<rect x="91.072" y="331.2" style="fill:#FFFFFF;" width="16" height="16"/>
	<rect x="125.944" y="331.2" style="fill:#FFFFFF;" width="16" height="16"/>
	<rect x="160.8" y="331.2" style="fill:#FFFFFF;" width="16" height="16"/>
	<rect x="195.688" y="331.2" style="fill:#FFFFFF;" width="16" height="16"/>
	<rect x="230.56" y="331.2" style="fill:#FFFFFF;" width="16" height="16"/>
	<rect x="265.44" y="331.2" style="fill:#FFFFFF;" width="16" height="16"/>
	<rect x="300.312" y="331.2" style="fill:#FFFFFF;" width="16" height="16"/>
	<rect x="335.184" y="331.2" style="fill:#FFFFFF;" width="16" height="16"/>
	<rect x="370.08" y="331.2" style="fill:#FFFFFF;" width="16" height="16"/>
	<rect x="404.928" y="331.2" style="fill:#FFFFFF;" width="16" height="16"/>
	<rect x="439.8" y="331.2" style="fill:#FFFFFF;" width="16" height="16"/>
	<rect x="56.24" y="363.2" style="fill:#FFFFFF;" width="16" height="16"/>
	<rect x="91.072" y="363.2" style="fill:#FFFFFF;" width="16" height="16"/>
	<rect x="125.944" y="363.2" style="fill:#FFFFFF;" width="16" height="16"/>
	<rect x="160.8" y="363.2" style="fill:#FFFFFF;" width="16" height="16"/>
	<rect x="195.688" y="363.2" style="fill:#FFFFFF;" width="16" height="16"/>
	<rect x="230.56" y="363.2" style="fill:#FFFFFF;" width="16" height="16"/>
	<rect x="265.44" y="363.2" style="fill:#FFFFFF;" width="16" height="16"/>
	<rect x="300.312" y="363.2" style="fill:#FFFFFF;" width="16" height="16"/>
	<rect x="335.184" y="363.2" style="fill:#FFFFFF;" width="16" height="16"/>
	<rect x="370.08" y="363.2" style="fill:#FFFFFF;" width="16" height="16"/>
	<rect x="404.928" y="363.2" style="fill:#FFFFFF;" width="16" height="16"/>
	<rect x="439.8" y="363.2" style="fill:#FFFFFF;" width="16" height="16"/>
</g>
<polygon style="fill:#CCCCCC;" points="211.256,308.464 207.536,301.392 321.288,241.6 207.624,185.52 211.168,178.352 
	338.912,241.384 "/>
<circle style="fill:#FFFFFF;" cx="331.12" cy="243.4" r="39.568"/>
<circle style="fill:#E21B1B;" cx="331.12" cy="243.4" r="17.416"/>
<circle style="fill:#FFFFFF;" cx="194.616" cy="175.144" r="39.568"/>
<circle style="fill:#E21B1B;" cx="194.616" cy="175.144" r="17.416"/>
<circle style="fill:#FFFFFF;" cx="194.616" cy="311.656" r="39.568"/>
<circle style="fill:#E21B1B;" cx="194.616" cy="311.656" r="17.416"/>
<g>
</g>
<g>
</g>
<g>
</g>
<g>
</g>
<g>
</g>
<g>
</g>
<g>
</g>
<g>
</g>
<g>
</g>
<g>
</g>
<g>
</g>
<g>
</g>
<g>
</g>
<g>
</g>
<g>
</g>
</svg>
