<?xml version="1.0" encoding="iso-8859-1"?>
<!-- Generator: Adobe Illustrator 19.0.0, SVG Export Plug-In . SVG Version: 6.00 Build 0)  -->
<svg version="1.1" id="Layer_1" xmlns="http://www.w3.org/2000/svg" xmlns:xlink="http://www.w3.org/1999/xlink" x="0px" y="0px"
	 viewBox="0 0 512.002 512.002" style="enable-background:new 0 0 512.002 512.002;" xml:space="preserve">
<path style="fill:#ECB45C;" d="M442.167,263.758h-23.273H255.985H93.076H69.803c-1.607,0-3.176,0.163-4.69,0.473
	c-5.303,1.085-9.948,3.973-13.269,7.997c-3.32,4.023-5.314,9.18-5.314,14.803v201.697c0,3.213,0.652,6.274,1.829,9.059
	c2.945,6.962,9.179,12.192,16.753,13.742c1.514,0.31,3.083,0.473,4.69,0.473h186.182h186.182c12.853,0,23.273-10.42,23.273-23.273
	V287.03C465.44,274.178,455.02,263.758,442.167,263.758z"/>
<path style="fill:#E0E0E2;" d="M46.531,287.03c0-12.853,10.42-23.273,23.273-23.273h23.273h162.909h162.909h23.273
	c12.853,0,23.273,10.42,23.273,23.273V179.018c-0.321,12.573-10.591,22.672-23.242,22.672c-0.012,0-0.022,0-0.031,0h-23.273H287.016
	c-12.853,0-23.273-10.42-23.273-23.273V46.545V23.273c0-9.413,5.669-17.898,14.367-21.501c2.994-1.24,6.142-1.801,9.256-1.753
	C287.248,0.016,287.133,0,287.016,0H69.803C56.951,0,46.531,10.42,46.531,23.273C46.531,23.273,46.531,287.03,46.531,287.03z"/>
<path style="fill:#C6C5CA;" d="M263.743,23.273v23.273v131.873c0,12.853,10.42,23.273,23.273,23.273h131.879h23.273
	c0.009,0,0.019,0,0.031,0c12.651,0,22.921-10.1,23.242-22.672c0.005-0.202,0.031-0.397,0.031-0.6c0-4.822-1.486-9.286-3.998-13.002
	c-0.003-0.005-0.006-0.009-0.009-0.014c-0.397-0.586-0.824-1.153-1.271-1.699c-0.036-0.045-0.071-0.092-0.109-0.137
	c-0.424-0.512-0.875-1.001-1.339-1.474c-0.073-0.073-0.144-0.147-0.217-0.22c-0.205-0.2-0.394-0.419-0.605-0.613L303.472,6.816
	c-0.483-0.484-0.99-0.936-1.508-1.37c-0.155-0.13-0.315-0.253-0.475-0.379c-0.375-0.299-0.763-0.59-1.159-0.867
	c-0.189-0.132-0.379-0.264-0.571-0.389c-0.413-0.27-0.836-0.524-1.266-0.77c-0.166-0.095-0.33-0.199-0.498-0.289
	c-0.562-0.301-1.14-0.577-1.728-0.833c-0.236-0.102-0.476-0.189-0.714-0.284c-0.389-0.155-0.784-0.299-1.184-0.433
	c-0.27-0.09-0.541-0.177-0.813-0.256c-0.447-0.13-0.901-0.245-1.361-0.351c-0.202-0.047-0.403-0.102-0.607-0.144
	c-0.647-0.129-1.305-0.227-1.97-0.299c-0.205-0.023-0.411-0.036-0.614-0.054c-0.541-0.045-1.086-0.074-1.638-0.082
	c-3.114-0.048-6.262,0.515-9.256,1.753C269.414,5.374,263.743,13.86,263.743,23.273z"/>
<polygon style="fill:#FF9811;" points="210.49,392.288 215.171,392.288 212.841,384.526 "/>
<g>
	<path style="fill:#57565C;" d="M240.622,413.659l-18.348-59.89c-1.263-3.815-4.956-6.281-9.408-6.281
		c-4.47,0-8.141,2.503-9.363,6.405l-18.331,59.553c-0.425,1.185-0.425,2.216-0.425,2.645c0,5.356,4.957,8.671,9.55,8.671
		c3.977,0,7.274-2.411,8.262-6.02l2.698-9.028h15.129l2.728,9.121c0.019,0.065,0.039,0.13,0.061,0.195
		c1.168,3.482,4.341,5.731,8.085,5.731c4.698,0,9.728-3.519,9.728-8.758c0-0.635-0.093-1.168-0.169-1.514
		C240.771,414.213,240.707,413.933,240.622,413.659z M210.49,392.288l2.351-7.762l2.33,7.762H210.49z"/>
	<path style="fill:#57565C;" d="M290.804,348.02c-3.75,0-6.924,2.251-8.088,5.736c-0.02,0.061-0.039,0.121-0.057,0.182
		l-10.265,34.256L262.1,354.026c-0.112-0.411-0.264-0.801-0.433-1.179c-0.064-0.137-0.138-0.267-0.208-0.399
		c-0.116-0.225-0.24-0.445-0.379-0.656c-0.105-0.161-0.217-0.316-0.334-0.469c-0.116-0.154-0.24-0.298-0.366-0.442
		c-0.155-0.174-0.307-0.348-0.478-0.507c-0.073-0.068-0.152-0.129-0.227-0.195c-1.026-0.9-2.282-1.555-3.69-1.885
		c-0.323-0.076-0.65-0.137-0.984-0.185c-0.382-0.047-0.765-0.088-1.162-0.088c-4.594,0-9.551,3.316-9.551,8.671
		c0,0.667,0.051,1.617,0.434,2.67l11.262,36.537l7.036,22.827c1.173,3.989,4.858,6.566,9.387,6.566c4.509,0,8.217-2.537,9.457-6.498
		l18.306-59.668c0.093-0.301,0.161-0.608,0.208-0.918c0.079-0.38,0.15-0.855,0.15-1.432
		C300.528,351.538,295.499,348.02,290.804,348.02z"/>
	<path style="fill:#57565C;" d="M321.217,348.02c-5.277,0-9.107,3.497-9.107,8.316v59.934c0,4.763,4,8.496,9.107,8.496
		c5.109,0,9.112-3.731,9.112-8.496v-59.933C330.329,351.595,326.413,348.02,321.217,348.02z"/>
</g>
<g>
	<path style="fill:#FF9811;" d="M244.723,359.36c-0.383-1.053-0.434-2.003-0.434-2.67c0-5.356,4.957-8.671,9.551-8.671
		c0.397,0,0.784,0.034,1.162,0.088c0.337,0.042,0.661,0.109,0.984,0.185v-84.534H93.076H69.803
		c-12.853,0-23.273,10.42-23.273,23.273v201.697c0,12.853,10.42,23.273,23.273,23.273h186.182V395.899L244.723,359.36z
		 M231.257,424.764c-3.744,0-6.917-2.25-8.085-5.731c-0.022-0.065-0.042-0.13-0.061-0.195l-2.728-9.121h-15.129l-2.698,9.028
		c-0.99,3.609-4.285,6.02-8.262,6.02c-4.592,0-9.55-3.316-9.55-8.671c0-0.431,0-1.46,0.425-2.645l18.331-59.553
		c1.223-3.904,4.893-6.405,9.363-6.405c4.453,0,8.147,2.465,9.408,6.281l18.348,59.89c0.085,0.275,0.149,0.552,0.194,0.835
		c0.078,0.346,0.169,0.878,0.169,1.514C240.985,421.246,235.955,424.764,231.257,424.764z"/>
	<polygon style="fill:#FF9811;" points="244.723,359.36 255.985,395.899 255.985,395.899 	"/>
	<path style="fill:#FF9811;" d="M255.985,348.292L255.985,348.292c-0.323-0.076-0.647-0.143-0.984-0.185
		C255.335,348.154,255.663,348.216,255.985,348.292z"/>
</g>
<g>
	<path style="fill:#DD512A;" d="M259.675,350.177c-1.024-0.906-2.281-1.555-3.69-1.885l0,0
		C257.394,348.622,258.649,349.279,259.675,350.177z"/>
	<path style="fill:#DD512A;" d="M261.459,352.448c0.07,0.132,0.144,0.262,0.208,0.399
		C261.602,352.709,261.529,352.58,261.459,352.448z"/>
	<path style="fill:#DD512A;" d="M260.747,351.322c0.116,0.152,0.227,0.309,0.334,0.469
		C260.975,351.629,260.863,351.476,260.747,351.322z"/>
	<path style="fill:#DD512A;" d="M259.903,350.372c0.169,0.16,0.323,0.334,0.478,0.507
		C260.227,350.704,260.072,350.534,259.903,350.372z"/>
	<path style="fill:#DD512A;" d="M255.985,395.899l7.036,22.827L255.985,395.899z"/>
</g>
<g>
</g>
<g>
</g>
<g>
</g>
<g>
</g>
<g>
</g>
<g>
</g>
<g>
</g>
<g>
</g>
<g>
</g>
<g>
</g>
<g>
</g>
<g>
</g>
<g>
</g>
<g>
</g>
<g>
</g>
</svg>
