<?xml version="1.0" encoding="iso-8859-1"?>
<!-- Generator: Adobe Illustrator 19.0.0, SVG Export Plug-In . SVG Version: 6.00 Build 0)  -->
<svg version="1.1" id="Layer_1" xmlns="http://www.w3.org/2000/svg" xmlns:xlink="http://www.w3.org/1999/xlink" x="0px" y="0px"
	 viewBox="0 0 512 512" style="enable-background:new 0 0 512 512;" xml:space="preserve">
<path style="fill:#ECB45C;" d="M255.984,263.758H93.075H69.803c-7.23,0-13.689,3.297-17.959,8.468
	c-1.898,2.299-3.362,4.968-4.268,7.883c-0.68,2.186-1.046,4.51-1.046,6.92v201.697c0,12.853,10.42,23.273,23.273,23.273h186.182
	h186.182c12.853,0,23.273-10.42,23.273-23.273V287.03c0-12.853-10.42-23.273-23.273-23.273h-23.273H255.984"/>
<path style="fill:#E0E0E2;" d="M46.53,287.03c0-12.853,10.42-23.273,23.273-23.273h23.273h162.909h162.909h23.273
	c12.853,0,23.273,10.42,23.273,23.273V179.018c-0.321,12.573-10.591,22.672-23.242,22.672c-0.012,0-0.022,0-0.031,0h-23.273H287.015
	c-12.853,0-23.273-10.42-23.273-23.273V46.545V23.273c0-9.411,5.669-17.898,14.367-21.501c2.994-1.241,6.142-1.801,9.259-1.753
	C287.251,0.016,287.134,0,287.015,0H69.803C56.95,0,46.53,10.42,46.53,23.273C46.53,23.273,46.53,287.03,46.53,287.03z"/>
<path style="fill:#C6C5CA;" d="M263.742,23.273v23.273v131.873c0,12.853,10.42,23.273,23.273,23.273h131.879h23.273
	c0.009,0,0.019,0,0.031,0c12.651,0,22.921-10.1,23.242-22.672c0.005-0.202,0.031-0.397,0.031-0.6c0-4.821-1.486-9.286-3.998-13.003
	c-0.003-0.003-0.006-0.009-0.009-0.012c-0.397-0.588-0.824-1.153-1.271-1.7c-0.036-0.045-0.071-0.092-0.109-0.137
	c-0.424-0.512-0.875-1.001-1.339-1.472c-0.073-0.074-0.144-0.149-0.217-0.222c-0.205-0.2-0.394-0.419-0.605-0.613L303.475,6.822
	c-0.006-0.008-0.016-0.016-0.022-0.022c-0.475-0.473-0.973-0.918-1.483-1.348c-0.161-0.135-0.327-0.261-0.49-0.391
	c-0.371-0.296-0.751-0.582-1.14-0.855c-0.194-0.135-0.388-0.27-0.585-0.399c-0.406-0.265-0.821-0.515-1.246-0.756
	c-0.172-0.098-0.343-0.206-0.518-0.299c-0.56-0.299-1.134-0.574-1.719-0.827c-0.24-0.106-0.486-0.195-0.731-0.292
	c-0.383-0.152-0.771-0.295-1.165-0.427c-0.275-0.09-0.549-0.178-0.825-0.259c-0.441-0.129-0.889-0.242-1.341-0.346
	c-0.209-0.047-0.414-0.104-0.622-0.147c-0.645-0.129-1.302-0.227-1.966-0.299c-0.206-0.025-0.413-0.036-0.617-0.054
	c-0.54-0.045-1.085-0.074-1.634-0.082c-3.117-0.048-6.265,0.512-9.259,1.753C269.413,5.374,263.742,13.861,263.742,23.273z"/>
<polygon style="fill:#A9A8AE;" points="303.472,6.817 303.453,6.8 303.475,6.822 "/>
<g>
	<path style="fill:#57565C;" d="M255.984,365.354c0.414-0.028,0.85-0.043,1.33-0.043c3.787,0,5.79,1.032,7.401,1.862
		c1.351,0.695,2.883,1.485,4.917,1.485c5.238,0,8.758-4.893,8.758-9.464c0-9.135-13.189-11.573-20.981-11.573
		c-0.487,0-0.95,0.033-1.424,0.05L255.984,365.354L255.984,365.354z"/>
	<path style="fill:#57565C;" d="M255.984,374.218c-1.708-0.698-2.87-1.274-3.649-1.821c-0.02-0.016-0.04-0.028-0.059-0.042
		c-0.11-0.079-0.214-0.158-0.309-0.236c-0.023-0.019-0.045-0.037-0.067-0.057c-0.092-0.076-0.175-0.155-0.254-0.23
		c-0.014-0.016-0.026-0.031-0.042-0.045c-0.234-0.245-0.41-0.493-0.534-0.751c-0.011-0.025-0.025-0.048-0.036-0.073
		c-0.028-0.067-0.053-0.135-0.078-0.203c-0.016-0.045-0.033-0.09-0.043-0.135c-0.019-0.062-0.034-0.124-0.048-0.188
		c-0.012-0.056-0.025-0.113-0.034-0.171s-0.02-0.118-0.028-0.175c-0.009-0.074-0.016-0.151-0.022-0.227
		c-0.005-0.048-0.009-0.096-0.011-0.146c-0.006-0.127-0.011-0.261-0.011-0.399c0-0.088,0-0.178,0.002-0.273
		c0-0.05,0.003-0.101,0.005-0.155c0.002-0.047,0.003-0.092,0.005-0.14c0.005-0.062,0.011-0.126,0.017-0.189
		c0.003-0.039,0.006-0.076,0.011-0.115c0.009-0.07,0.022-0.14,0.033-0.213c0.006-0.033,0.011-0.065,0.019-0.099
		c0.016-0.073,0.034-0.149,0.056-0.223c0.009-0.031,0.017-0.061,0.026-0.092c0.026-0.078,0.056-0.157,0.09-0.233
		c0.011-0.026,0.023-0.053,0.034-0.079c0.036-0.081,0.079-0.16,0.126-0.237c0.014-0.025,0.029-0.045,0.043-0.07
		c0.051-0.082,0.109-0.161,0.172-0.239c0.017-0.019,0.033-0.036,0.048-0.054c0.07-0.082,0.149-0.163,0.233-0.239
		c0.016-0.014,0.033-0.028,0.047-0.039c0.093-0.082,0.195-0.163,0.307-0.239c0.008-0.006,0.017-0.009,0.026-0.016
		c0.765-0.512,1.983-0.898,3.924-1.018v-17.683c0,0-0.005,0-0.006,0c-1.808,0.065-3.531,0.253-5.16,0.557
		c-0.002,0-0.002,0-0.003,0.002c-0.811,0.151-1.597,0.33-2.36,0.54c-0.011,0.003-0.023,0.006-0.034,0.009
		c-0.749,0.206-1.477,0.439-2.181,0.7c-0.026,0.009-0.051,0.022-0.079,0.031c-0.684,0.256-1.347,0.537-1.986,0.842
		c-0.043,0.022-0.088,0.043-0.132,0.067c-0.616,0.298-1.21,0.619-1.781,0.964c-0.064,0.039-0.126,0.082-0.191,0.123
		c-0.543,0.335-1.066,0.689-1.567,1.067c-0.084,0.062-0.161,0.13-0.242,0.192c-0.47,0.366-0.926,0.746-1.356,1.148
		c-0.099,0.095-0.192,0.194-0.29,0.292c-0.397,0.386-0.784,0.784-1.143,1.201c-0.113,0.132-0.216,0.273-0.326,0.408
		c-0.326,0.4-0.645,0.807-0.939,1.233c-0.121,0.175-0.225,0.363-0.34,0.543c-0.261,0.406-0.518,0.815-0.748,1.244
		c-0.123,0.228-0.227,0.47-0.34,0.703c-0.197,0.405-0.397,0.805-0.568,1.227c-0.116,0.287-0.209,0.593-0.313,0.887
		c-0.14,0.391-0.287,0.776-0.403,1.181c-0.104,0.362-0.182,0.743-0.268,1.116c-0.087,0.363-0.185,0.718-0.254,1.092
		c-0.087,0.469-0.138,0.957-0.199,1.443c-0.037,0.299-0.092,0.59-0.119,0.895c-0.071,0.804-0.109,1.624-0.109,2.467
		c0,15.289,11.525,19.619,19.149,22.485c0.441,0.164,0.86,0.326,1.263,0.483c0.303,0.118,0.588,0.23,0.874,0.344
		c0.079,0.033,0.163,0.064,0.237,0.096c0.334,0.132,0.649,0.264,0.954,0.391c0.016,0.006,0.031,0.012,0.045,0.019
		c0.32,0.137,0.627,0.27,0.92,0.4v-19.85H255.984z"/>
</g>
<path style="fill:#FF9811;" d="M197.243,365.576h-6.467v15.484h6.467c4.081,0,6.291-1.157,6.291-7.26v-1.053
	C203.534,366.718,201.323,365.576,197.243,365.576z"/>
<g>
	<path style="fill:#57565C;" d="M197.421,347.795h-16.195c-0.119,0-0.237,0.003-0.355,0.011c-4.741,0.273-8.316,3.843-8.316,8.307
		v59.935c0,4.763,4.001,8.496,9.109,8.496c5.109,0,9.112-3.731,9.112-8.496v-17.557h6.467c15.351,0,24.516-9.326,24.516-24.948
		v-0.881C221.758,357.091,212.66,347.795,197.421,347.795z M203.534,373.802c0,6.102-2.211,7.26-6.291,7.26h-6.467v-15.484h6.467
		c4.08,0,6.291,1.142,6.291,7.173V373.802z"/>
	<path style="fill:#57565C;" d="M255.984,407.254L255.984,407.254c-0.357,0.025-0.734,0.034-1.133,0.034
		c-4.848,0-6.479-1.759-8.206-3.62c-1.362-1.468-3.418-3.686-6.842-3.686c-5.067,0-8.851,4.996-8.851,9.464
		c0,7.416,10.372,15.711,24.252,15.711c0.267,0,0.518-0.025,0.782-0.031v-17.872H255.984z"/>
	<path style="fill:#57565C;" d="M255.984,394.057c1.105,0.493,2.015,0.968,2.759,1.452c0.023,0.016,0.045,0.031,0.07,0.045
		c0.715,0.473,1.275,0.96,1.705,1.494c0.019,0.023,0.039,0.045,0.057,0.07c0.203,0.261,0.377,0.534,0.523,0.821
		c0.016,0.031,0.028,0.061,0.04,0.09c0.132,0.275,0.24,0.562,0.327,0.867c0.008,0.029,0.019,0.056,0.026,0.084
		c0.085,0.315,0.143,0.652,0.185,1.004c0.009,0.073,0.017,0.149,0.025,0.222c0.033,0.36,0.056,0.735,0.056,1.143
		c0,0.182-0.002,0.363-0.008,0.546c-0.002,0.053-0.006,0.105-0.008,0.16c-0.005,0.124-0.009,0.25-0.019,0.374
		c-0.005,0.071-0.014,0.141-0.02,0.211c-0.009,0.105-0.019,0.216-0.033,0.32c-0.009,0.074-0.022,0.147-0.034,0.22
		c-0.016,0.101-0.031,0.2-0.051,0.298c-0.016,0.074-0.033,0.146-0.051,0.217c-0.023,0.098-0.047,0.191-0.074,0.285
		c-0.023,0.073-0.047,0.143-0.071,0.213c-0.033,0.092-0.065,0.18-0.102,0.268c-0.028,0.07-0.062,0.138-0.095,0.206
		c-0.042,0.084-0.085,0.168-0.133,0.25c-0.037,0.067-0.079,0.13-0.123,0.195c-0.051,0.079-0.107,0.157-0.166,0.23
		c-0.048,0.062-0.099,0.126-0.154,0.185c-0.064,0.071-0.133,0.141-0.205,0.211c-0.061,0.057-0.121,0.115-0.186,0.169
		c-0.079,0.067-0.163,0.127-0.25,0.191c-0.071,0.051-0.143,0.102-0.22,0.152c-0.095,0.057-0.197,0.113-0.299,0.168
		c-0.085,0.043-0.166,0.09-0.256,0.132c-0.112,0.051-0.236,0.099-0.358,0.146c-0.096,0.036-0.188,0.076-0.29,0.109
		c-0.135,0.045-0.285,0.082-0.433,0.121c-0.104,0.028-0.205,0.059-0.315,0.085c-0.172,0.037-0.363,0.068-0.552,0.099
		c-0.101,0.016-0.194,0.036-0.299,0.051c-0.303,0.04-0.624,0.073-0.965,0.095v17.873l0,0c5.554-0.119,10.316-1.493,14.1-3.939
		c0.011-0.006,0.019-0.012,0.029-0.02c0.616-0.4,1.207-0.828,1.772-1.286c0.031-0.025,0.059-0.053,0.09-0.079
		c0.54-0.441,1.057-0.906,1.545-1.398c0.053-0.054,0.099-0.115,0.155-0.169c0.458-0.472,0.897-0.96,1.308-1.477
		c0.074-0.095,0.14-0.197,0.214-0.293c0.375-0.489,0.74-0.991,1.074-1.519c0.093-0.146,0.168-0.303,0.258-0.451
		c0.296-0.495,0.59-0.996,0.849-1.521c0.102-0.208,0.186-0.431,0.284-0.644c0.22-0.487,0.445-0.976,0.636-1.488
		c0.105-0.279,0.185-0.579,0.279-0.867c0.157-0.467,0.32-0.931,0.448-1.418c0.099-0.372,0.169-0.77,0.253-1.154
		c0.092-0.425,0.202-0.841,0.275-1.278c0.085-0.5,0.133-1.022,0.194-1.539c0.04-0.349,0.099-0.686,0.129-1.043
		c0.071-0.884,0.109-1.792,0.109-2.721c0-17.732-12.544-22.339-20.846-25.389c-0.593-0.217-1.129-0.419-1.641-0.616
		c-0.045-0.017-0.088-0.033-0.133-0.051c-0.493-0.191-0.953-0.371-1.378-0.546v19.836H255.984z"/>
	<path style="fill:#57565C;" d="M317.912,347.795h-15.579c-4.959,0-8.842,3.654-8.842,8.316v60.023c0,4.634,3.967,8.406,8.842,8.406
		h15.579c15.407,0,24.602-9.36,24.602-25.04v-26.754C342.516,357.125,333.318,347.795,317.912,347.795z M324.292,399.503
		c0,6.071-2.34,7.259-6.378,7.259h-6.206v-41.187h6.206c4.136,0,6.378,1.142,6.378,7.173L324.292,399.503L324.292,399.503z"/>
</g>
<g>
	<path style="fill:#3D6DEB;" d="M271.884,419.882c-0.563,0.458-1.154,0.886-1.772,1.286
		C270.729,420.766,271.321,420.34,271.884,419.882z"/>
	<path style="fill:#3D6DEB;" d="M276.271,414.947c-0.335,0.527-0.698,1.029-1.074,1.519
		C275.571,415.974,275.937,415.476,276.271,414.947z"/>
	<path style="fill:#3D6DEB;" d="M273.52,418.405c-0.489,0.492-1.005,0.957-1.545,1.398
		C272.514,419.361,273.033,418.897,273.52,418.405z"/>
	<path style="fill:#3D6DEB;" d="M274.981,416.757c-0.411,0.517-0.85,1.005-1.308,1.477
		C274.131,417.762,274.572,417.275,274.981,416.757z"/>
	<path style="fill:#3D6DEB;" d="M277.375,412.975c-0.259,0.526-0.551,1.026-0.849,1.521
		C276.823,414,277.116,413.501,277.375,412.975z"/>
	<path style="fill:#3D6DEB;" d="M257.362,374.764c0.045,0.019,0.088,0.034,0.133,0.051
		C257.451,374.798,257.407,374.782,257.362,374.764z"/>
	<path style="fill:#3D6DEB;" d="M278.295,410.843c-0.191,0.512-0.416,1.001-0.636,1.488
		C277.881,411.842,278.104,411.355,278.295,410.843z"/>
	<path style="fill:#3D6DEB;" d="M279.873,403.543c-0.029,0.355-0.088,0.694-0.129,1.043
		C279.785,404.236,279.844,403.898,279.873,403.543z"/>
	<path style="fill:#3D6DEB;" d="M279.023,408.557c-0.129,0.489-0.293,0.951-0.448,1.418
		C278.73,409.507,278.894,409.046,279.023,408.557z"/>
	<path style="fill:#3D6DEB;" d="M279.55,406.125c-0.073,0.438-0.182,0.853-0.275,1.278
		C279.369,406.978,279.478,406.562,279.55,406.125z"/>
	<path style="fill:#3D6DEB;" d="M270.085,421.188c-3.783,2.447-8.546,3.82-14.1,3.939
		C261.54,425.008,266.304,423.64,270.085,421.188z"/>
</g>
<g>
	<path style="fill:#FF9811;" d="M255.203,425.157c-13.88,0-24.252-8.294-24.252-15.711c0-4.468,3.784-9.464,8.851-9.464
		c3.424,0,5.48,2.219,6.842,3.686c1.727,1.86,3.357,3.62,8.206,3.62c0.402,0,0.776-0.012,1.133-0.034h0.002v-13.197
		c-0.292-0.13-0.6-0.264-0.92-0.4c-0.016-0.006-0.031-0.012-0.045-0.019c-0.304-0.127-0.622-0.259-0.954-0.391
		c-0.078-0.033-0.16-0.064-0.237-0.096c-0.284-0.113-0.571-0.225-0.874-0.344c-0.406-0.158-0.822-0.315-1.263-0.483
		c-7.624-2.866-19.149-7.198-19.149-22.485c0-0.842,0.037-1.663,0.109-2.467c0.028-0.306,0.082-0.596,0.119-0.895
		c0.061-0.486,0.112-0.974,0.199-1.443c0.07-0.374,0.168-0.729,0.254-1.092c0.088-0.372,0.161-0.752,0.268-1.116
		c0.116-0.405,0.264-0.79,0.403-1.181c0.104-0.295,0.197-0.6,0.313-0.887c0.171-0.424,0.371-0.822,0.568-1.227
		c0.115-0.233,0.217-0.475,0.34-0.703c0.23-0.428,0.487-0.836,0.748-1.244c0.115-0.178,0.219-0.366,0.34-0.543
		c0.293-0.427,0.614-0.833,0.939-1.233c0.11-0.135,0.213-0.276,0.326-0.408c0.36-0.42,0.748-0.813,1.143-1.201
		c0.098-0.098,0.189-0.197,0.29-0.292c0.43-0.403,0.886-0.782,1.356-1.148c0.082-0.062,0.16-0.13,0.242-0.192
		c0.5-0.377,1.024-0.731,1.567-1.067c0.065-0.04,0.127-0.084,0.191-0.123c0.571-0.346,1.167-0.664,1.781-0.964
		c0.043-0.023,0.088-0.045,0.132-0.067c0.638-0.306,1.302-0.586,1.986-0.842c0.028-0.009,0.053-0.022,0.079-0.031
		c0.704-0.261,1.432-0.492,2.181-0.7c0.012-0.003,0.025-0.006,0.034-0.009c0.763-0.209,1.55-0.388,2.36-0.54
		c0.002-0.002,0.002-0.002,0.003-0.002c1.631-0.304,3.351-0.492,5.16-0.557c0.002,0,0.005,0,0.005,0l0.005-83.908H93.075H69.803
		c-12.853,0-23.273,10.42-23.273,23.273v201.697C46.53,501.58,56.95,512,69.803,512h186.182v-86.872
		C255.721,425.134,255.469,425.157,255.203,425.157z M221.758,373.541c0,15.622-9.165,24.948-24.515,24.948h-6.467v17.557
		c0,4.763-4.003,8.496-9.112,8.496c-5.108,0-9.109-3.731-9.109-8.496v-59.935c0-4.462,3.576-8.034,8.316-8.307
		c0.118-0.008,0.236-0.011,0.355-0.011h16.195c15.239,0,24.337,9.295,24.337,24.863V373.541z"/>
	<path style="fill:#FF9811;" d="M232.651,367.376c0.028-0.306,0.082-0.596,0.119-0.895
		C232.733,366.78,232.679,367.07,232.651,367.376z"/>
	<path style="fill:#FF9811;" d="M236.204,357.046c0.293-0.427,0.614-0.833,0.939-1.233
		C236.819,356.212,236.499,356.619,236.204,357.046z"/>
	<path style="fill:#FF9811;" d="M244.173,350.352c0.639-0.306,1.302-0.586,1.986-0.842
		C245.475,349.766,244.81,350.045,244.173,350.352z"/>
	<path style="fill:#FF9811;" d="M238.904,353.911c0.43-0.402,0.886-0.782,1.356-1.148
		C239.79,353.131,239.334,353.51,238.904,353.911z"/>
	<path style="fill:#FF9811;" d="M254.065,393.249c-0.076-0.033-0.16-0.064-0.237-0.096
		C253.905,393.185,253.988,393.216,254.065,393.249z"/>
	<path style="fill:#FF9811;" d="M232.969,365.037c0.07-0.374,0.168-0.729,0.254-1.092
		C233.138,364.31,233.039,364.663,232.969,365.037z"/>
	<path style="fill:#FF9811;" d="M233.492,362.83c0.116-0.405,0.264-0.79,0.403-1.181
		C233.756,362.041,233.609,362.426,233.492,362.83z"/>
	<path style="fill:#FF9811;" d="M237.47,355.404c0.36-0.419,0.748-0.815,1.143-1.201
		C238.217,354.591,237.829,354.985,237.47,355.404z"/>
	<path style="fill:#FF9811;" d="M246.238,349.479c0.704-0.261,1.432-0.493,2.181-0.7
		C247.67,348.987,246.942,349.218,246.238,349.479z"/>
	<path style="fill:#FF9811;" d="M240.502,352.571c0.5-0.377,1.024-0.732,1.567-1.067
		C241.526,351.842,241.001,352.194,240.502,352.571z"/>
	<path style="fill:#FF9811;" d="M248.455,348.77c0.763-0.209,1.55-0.389,2.36-0.54C250.005,348.382,249.218,348.56,248.455,348.77z"
		/>
	<path style="fill:#FF9811;" d="M250.818,348.228c1.629-0.304,3.353-0.492,5.16-0.557
		C254.169,347.736,252.449,347.924,250.818,348.228z"/>
	<path style="fill:#FF9811;" d="M242.26,351.383c0.571-0.344,1.167-0.666,1.781-0.964
		C243.427,350.718,242.831,351.036,242.26,351.383z"/>
	<path style="fill:#FF9811;" d="M234.209,360.763c0.171-0.424,0.371-0.822,0.568-1.227
		C234.58,359.939,234.38,360.339,234.209,360.763z"/>
	<path style="fill:#FF9811;" d="M235.117,358.831c0.23-0.428,0.487-0.838,0.748-1.244
		C235.605,357.995,235.348,358.403,235.117,358.831z"/>
	<path style="fill:#FF9811;" d="M255.066,393.658c-0.016-0.006-0.031-0.012-0.045-0.019
		C255.035,393.646,255.05,393.652,255.066,393.658z"/>
	<path style="fill:#FF9811;" d="M255.984,407.254h-0.002H255.984z"/>
	<path style="fill:#FF9811;" d="M252.954,392.809c-0.405-0.157-0.822-0.316-1.263-0.483
		C252.132,392.495,252.548,392.651,252.954,392.809z"/>
	<path style="fill:#FF9811;" d="M257.251,407.11c0.189-0.033,0.38-0.062,0.552-0.099c0.112-0.026,0.211-0.057,0.315-0.085
		c0.147-0.039,0.298-0.076,0.433-0.121c0.102-0.033,0.194-0.073,0.29-0.109c0.123-0.047,0.245-0.095,0.358-0.146
		c0.09-0.042,0.171-0.088,0.256-0.132c0.102-0.056,0.206-0.11,0.299-0.168c0.078-0.048,0.149-0.099,0.22-0.152
		c0.087-0.064,0.171-0.124,0.25-0.191c0.065-0.054,0.126-0.112,0.186-0.169c0.071-0.07,0.141-0.138,0.205-0.211
		c0.054-0.059,0.104-0.123,0.154-0.185c0.059-0.074,0.115-0.152,0.166-0.23c0.043-0.065,0.085-0.129,0.123-0.196
		c0.048-0.082,0.092-0.168,0.133-0.25c0.033-0.068,0.065-0.137,0.095-0.206c0.037-0.088,0.071-0.177,0.102-0.268
		c0.025-0.07,0.048-0.14,0.071-0.213c0.028-0.095,0.051-0.188,0.074-0.285c0.019-0.071,0.036-0.143,0.051-0.217
		c0.02-0.099,0.036-0.199,0.051-0.298c0.012-0.073,0.025-0.146,0.034-0.22c0.014-0.104,0.025-0.213,0.033-0.32
		c0.006-0.07,0.016-0.14,0.02-0.211c0.009-0.123,0.014-0.25,0.019-0.374c0.002-0.054,0.006-0.107,0.008-0.16
		c0.006-0.182,0.008-0.363,0.008-0.546c0-0.41-0.023-0.784-0.056-1.143c-0.008-0.074-0.016-0.15-0.025-0.222
		c-0.042-0.352-0.099-0.687-0.185-1.004c-0.008-0.028-0.019-0.054-0.026-0.084c-0.087-0.304-0.195-0.593-0.327-0.867
		c-0.014-0.03-0.026-0.059-0.04-0.09c-0.146-0.289-0.318-0.56-0.523-0.821c-0.019-0.025-0.039-0.047-0.057-0.07
		c-0.43-0.534-0.988-1.021-1.705-1.494c-0.025-0.016-0.047-0.031-0.07-0.045c-0.745-0.486-1.654-0.956-2.759-1.452v13.197
		c0.341-0.022,0.662-0.053,0.965-0.095C257.057,407.145,257.148,407.124,257.251,407.11z"/>
	<path style="fill:#FF9811;" d="M261.742,402.055c-0.005,0.124-0.009,0.251-0.019,0.374
		C261.733,402.305,261.738,402.179,261.742,402.055z"/>
	<path style="fill:#FF9811;" d="M261.705,402.64c-0.009,0.107-0.02,0.216-0.033,0.32
		C261.686,402.854,261.696,402.745,261.705,402.64z"/>
	<path style="fill:#FF9811;" d="M261.534,403.693c-0.023,0.098-0.047,0.191-0.074,0.285
		C261.488,403.884,261.513,403.791,261.534,403.693z"/>
	<path style="fill:#FF9811;" d="M261.758,401.349c0,0.182-0.002,0.363-0.008,0.546C261.756,401.712,261.758,401.531,261.758,401.349
		z"/>
	<path style="fill:#FF9811;" d="M261.638,403.178c-0.016,0.101-0.031,0.2-0.051,0.298
		C261.606,403.378,261.623,403.279,261.638,403.178z"/>
	<path style="fill:#FF9811;" d="M261.677,399.982c0.009,0.073,0.017,0.149,0.025,0.222
		C261.694,400.131,261.686,400.055,261.677,399.982z"/>
	<path style="fill:#FF9811;" d="M261.098,397.939c0.016,0.031,0.028,0.061,0.04,0.09
		C261.126,397.999,261.114,397.97,261.098,397.939z"/>
	<path style="fill:#FF9811;" d="M260.518,397.048c0.019,0.023,0.039,0.045,0.057,0.07
		C260.558,397.093,260.537,397.072,260.518,397.048z"/>
	<path style="fill:#FF9811;" d="M258.745,395.509c0.023,0.016,0.045,0.031,0.07,0.045
		C258.79,395.54,258.766,395.525,258.745,395.509z"/>
	<path style="fill:#FF9811;" d="M261.466,398.896c0.008,0.029,0.019,0.056,0.026,0.084
		C261.485,398.952,261.474,398.924,261.466,398.896z"/>
	<path style="fill:#FF9811;" d="M257.803,407.009c-0.172,0.037-0.363,0.068-0.552,0.099
		C257.44,407.077,257.631,407.046,257.803,407.009z"/>
	<path style="fill:#FF9811;" d="M259.756,406.249c-0.095,0.057-0.197,0.112-0.299,0.168
		C259.559,406.362,259.662,406.306,259.756,406.249z"/>
	<path style="fill:#FF9811;" d="M258.552,406.803c-0.135,0.045-0.285,0.082-0.433,0.121
		C258.265,406.885,258.417,406.849,258.552,406.803z"/>
	<path style="fill:#FF9811;" d="M256.95,407.161c-0.303,0.04-0.624,0.073-0.965,0.095l0,0
		C256.326,407.234,256.647,407.201,256.95,407.161z"/>
	<path style="fill:#FF9811;" d="M260.617,405.526c-0.064,0.073-0.133,0.141-0.205,0.211
		C260.484,405.667,260.554,405.597,260.617,405.526z"/>
	<path style="fill:#FF9811;" d="M260.937,405.11c-0.051,0.079-0.107,0.157-0.166,0.23
		C260.828,405.267,260.884,405.189,260.937,405.11z"/>
	<path style="fill:#FF9811;" d="M261.193,404.665c-0.042,0.084-0.085,0.168-0.133,0.25
		C261.108,404.834,261.149,404.748,261.193,404.665z"/>
	<path style="fill:#FF9811;" d="M261.39,404.191c-0.033,0.092-0.065,0.18-0.102,0.268
		C261.325,404.371,261.357,404.281,261.39,404.191z"/>
	<path style="fill:#FF9811;" d="M260.226,405.906c-0.079,0.067-0.163,0.127-0.25,0.191
		C260.062,406.033,260.147,405.973,260.226,405.906z"/>
	<path style="fill:#FF9811;" d="M259.201,406.548c-0.113,0.051-0.236,0.099-0.358,0.146
		C258.963,406.647,259.088,406.599,259.201,406.548z"/>
	<path style="fill:#FF9811;" d="M252.034,366.387c-0.113,0.078-0.214,0.158-0.307,0.239c-0.016,0.012-0.031,0.026-0.047,0.039
		c-0.087,0.078-0.161,0.158-0.233,0.239c-0.016,0.019-0.033,0.036-0.048,0.054c-0.064,0.079-0.121,0.16-0.172,0.239
		c-0.016,0.025-0.031,0.045-0.043,0.07c-0.047,0.079-0.09,0.158-0.126,0.237c-0.012,0.026-0.025,0.053-0.034,0.079
		c-0.033,0.078-0.064,0.157-0.09,0.233c-0.009,0.031-0.017,0.061-0.026,0.092c-0.022,0.074-0.04,0.15-0.056,0.223
		c-0.008,0.033-0.012,0.067-0.019,0.099c-0.012,0.073-0.025,0.143-0.033,0.213c-0.005,0.039-0.008,0.076-0.011,0.115
		c-0.006,0.064-0.012,0.127-0.017,0.189c-0.002,0.047-0.003,0.093-0.005,0.14c-0.002,0.053-0.005,0.104-0.005,0.155
		c-0.002,0.095-0.002,0.186-0.002,0.273c0,0.138,0.005,0.272,0.011,0.399c0.003,0.051,0.006,0.098,0.011,0.146
		c0.006,0.078,0.012,0.154,0.022,0.227c0.008,0.059,0.019,0.116,0.028,0.175c0.011,0.057,0.023,0.115,0.034,0.171
		c0.014,0.064,0.031,0.126,0.048,0.188c0.012,0.045,0.029,0.09,0.043,0.135c0.025,0.068,0.047,0.137,0.078,0.203
		c0.012,0.025,0.026,0.048,0.036,0.073c0.126,0.258,0.298,0.506,0.534,0.751c0.016,0.016,0.028,0.031,0.042,0.045
		c0.079,0.076,0.163,0.155,0.254,0.23c0.022,0.02,0.043,0.039,0.067,0.057c0.098,0.079,0.199,0.158,0.309,0.236
		c0.019,0.016,0.039,0.028,0.059,0.042c0.782,0.549,1.938,1.122,3.649,1.821v-8.864c-1.941,0.119-3.157,0.507-3.924,1.018
		C252.051,366.379,252.042,366.383,252.034,366.387z"/>
	<path style="fill:#FF9811;" d="M250.771,368.75c-0.002,0.047-0.003,0.093-0.005,0.14
		C250.768,368.842,250.77,368.797,250.771,368.75z"/>
	<path style="fill:#FF9811;" d="M250.761,369.316c0,0.138,0.005,0.272,0.011,0.399C250.765,369.588,250.761,369.455,250.761,369.316
		z"/>
	<path style="fill:#FF9811;" d="M250.762,369.043c-0.002,0.095-0.002,0.185-0.002,0.273
		C250.761,369.23,250.761,369.138,250.762,369.043z"/>
	<path style="fill:#FF9811;" d="M250.782,369.861c0.006,0.078,0.012,0.154,0.022,0.227
		C250.795,370.013,250.788,369.937,250.782,369.861z"/>
	<path style="fill:#FF9811;" d="M250.914,370.623c0.012,0.045,0.029,0.09,0.043,0.135
		C250.942,370.713,250.927,370.668,250.914,370.623z"/>
	<path style="fill:#FF9811;" d="M251.901,372.061c0.022,0.02,0.043,0.039,0.067,0.057C251.946,372.1,251.923,372.08,251.901,372.061
		z"/>
	<path style="fill:#FF9811;" d="M251.035,370.961c0.012,0.025,0.026,0.048,0.036,0.073
		C251.06,371.009,251.048,370.984,251.035,370.961z"/>
	<path style="fill:#FF9811;" d="M251.226,367.2c-0.016,0.025-0.031,0.045-0.043,0.07C251.195,367.245,251.21,367.225,251.226,367.2z
		"/>
	<path style="fill:#FF9811;" d="M251.446,366.905c-0.016,0.019-0.033,0.036-0.048,0.054
		C251.414,366.943,251.432,366.924,251.446,366.905z"/>
	<path style="fill:#FF9811;" d="M252.278,372.354c0.019,0.016,0.039,0.028,0.059,0.042
		C252.317,372.382,252.295,372.37,252.278,372.354z"/>
	<path style="fill:#FF9811;" d="M250.799,368.446c-0.005,0.039-0.008,0.076-0.011,0.115
		C250.792,368.521,250.795,368.485,250.799,368.446z"/>
	<path style="fill:#FF9811;" d="M252.061,366.373c-0.009,0.006-0.019,0.009-0.026,0.016
		C252.042,366.383,252.051,366.379,252.061,366.373z"/>
	<path style="fill:#FF9811;" d="M250.851,368.133c-0.008,0.034-0.012,0.067-0.019,0.099
		C250.838,368.199,250.843,368.167,250.851,368.133z"/>
	<path style="fill:#FF9811;" d="M251.057,367.507c-0.012,0.026-0.025,0.053-0.034,0.079
		C251.032,367.56,251.044,367.534,251.057,367.507z"/>
	<path style="fill:#FF9811;" d="M250.931,367.819c-0.009,0.031-0.017,0.061-0.026,0.092
		C250.916,367.88,250.923,367.85,250.931,367.819z"/>
	<path style="fill:#FF9811;" d="M250.83,370.263c0.011,0.057,0.023,0.115,0.034,0.171
		C250.854,370.379,250.841,370.322,250.83,370.263z"/>
	<path style="fill:#FF9811;" d="M251.681,366.666c0.016-0.014,0.033-0.028,0.047-0.039
		C251.712,366.64,251.696,366.652,251.681,366.666z"/>
	<path style="fill:#FF9811;" d="M251.646,371.83c-0.014-0.016-0.026-0.031-0.042-0.045C251.62,371.8,251.634,371.814,251.646,371.83
		z"/>
</g>
<g>
</g>
<g>
</g>
<g>
</g>
<g>
</g>
<g>
</g>
<g>
</g>
<g>
</g>
<g>
</g>
<g>
</g>
<g>
</g>
<g>
</g>
<g>
</g>
<g>
</g>
<g>
</g>
<g>
</g>
</svg>
