<?xml version="1.0" encoding="iso-8859-1"?>
<!-- Generator: Adobe Illustrator 19.0.0, SVG Export Plug-In . SVG Version: 6.00 Build 0)  -->
<svg version="1.1" id="Layer_1" xmlns="http://www.w3.org/2000/svg" xmlns:xlink="http://www.w3.org/1999/xlink" x="0px" y="0px"
	 viewBox="0 0 512 512" style="enable-background:new 0 0 512 512;" xml:space="preserve">
<path style="fill:#57565C;" d="M218.491,422.935c10.47,0,18.669-7.545,18.669-17.177v-45.866h19.036
	c35.029,0,55.943-21.312,55.943-57.007v-2.133c0-35.559-20.755-56.789-55.516-56.789h-39.196c-0.223,0-0.444,0.006-0.667,0.019
	c-9.65,0.554-16.927,7.744-16.927,16.725v145.051C199.832,415.55,207.853,422.935,218.491,422.935z M237.16,280.225h19.036
	c11.171,0,18.612,3.528,18.612,20.744v2.549c0,18.412-8.946,20.95-18.612,20.95H237.16V280.225z"/>
<path style="fill:#D6D5D8;" d="M274.807,303.518v-2.549c0-17.216-7.441-20.744-18.612-20.744H237.16v44.245h19.036
	C265.861,324.468,274.807,321.932,274.807,303.518z"/>
<path style="fill:#E0E0E2;" d="M46.53,488.727C46.53,501.58,56.95,512,69.803,512h372.364c12.853,0,23.273-10.42,23.273-23.273
	V179.02c-0.321,12.573-10.589,22.672-23.242,22.672c-0.012,0-0.022,0-0.031,0h-23.273H287.015c-12.853,0-23.273-10.42-23.273-23.273
	V46.545V23.273c0-9.413,5.669-17.898,14.367-21.501c2.991-1.238,6.135-1.801,9.247-1.753C287.241,0.016,287.13,0,287.015,0H69.803
	C56.95,0,46.53,10.42,46.53,23.273C46.53,23.273,46.53,488.727,46.53,488.727z M199.832,260.707c0-8.982,7.277-16.171,16.927-16.725
	c0.223-0.012,0.444-0.019,0.667-0.019h39.194c34.762,0,55.516,21.229,55.516,56.789v2.133c0,35.696-20.914,57.007-55.943,57.007
	h-19.036v45.866c0,9.632-8.2,17.177-18.669,17.177c-10.637,0-18.659-7.385-18.659-17.177V260.707H199.832z"/>
<path style="fill:#C6C5CA;" d="M263.742,23.273v23.273V178.42c0,12.853,10.42,23.273,23.273,23.273h131.879h23.273
	c0.009,0,0.019,0,0.031,0c12.653,0,22.921-10.1,23.242-22.672c0.005-0.202,0.031-0.397,0.031-0.6c0-4.822-1.486-9.286-3.998-13.002
	c-0.003-0.005-0.006-0.009-0.009-0.014c-0.397-0.586-0.824-1.153-1.271-1.699c-0.036-0.045-0.071-0.092-0.109-0.137
	c-0.424-0.512-0.875-1.001-1.339-1.474c-0.073-0.073-0.144-0.147-0.217-0.22c-0.205-0.2-0.394-0.419-0.605-0.613L303.472,6.816
	c-0.483-0.484-0.991-0.936-1.508-1.37c-0.157-0.13-0.315-0.253-0.475-0.379c-0.377-0.299-0.763-0.59-1.159-0.867
	c-0.189-0.132-0.377-0.264-0.571-0.389c-0.414-0.272-0.839-0.526-1.269-0.773c-0.166-0.095-0.327-0.197-0.493-0.285
	c-0.563-0.303-1.142-0.579-1.733-0.835c-0.231-0.101-0.47-0.188-0.704-0.281c-0.393-0.155-0.79-0.303-1.193-0.436
	c-0.27-0.088-0.537-0.175-0.807-0.254c-0.453-0.132-0.912-0.248-1.376-0.354c-0.197-0.045-0.393-0.101-0.591-0.14
	c-0.65-0.13-1.311-0.228-1.978-0.301c-0.2-0.023-0.4-0.036-0.602-0.053c-0.546-0.047-1.098-0.076-1.655-0.084
	c-3.112-0.047-6.256,0.515-9.247,1.753C269.413,5.374,263.742,13.86,263.742,23.273z"/>
<g>
</g>
<g>
</g>
<g>
</g>
<g>
</g>
<g>
</g>
<g>
</g>
<g>
</g>
<g>
</g>
<g>
</g>
<g>
</g>
<g>
</g>
<g>
</g>
<g>
</g>
<g>
</g>
<g>
</g>
</svg>
