<?xml version="1.0" encoding="iso-8859-1"?>
<!-- Generator: Adobe Illustrator 19.0.0, SVG Export Plug-In . SVG Version: 6.00 Build 0)  -->
<svg version="1.1" id="Capa_1" xmlns="http://www.w3.org/2000/svg" xmlns:xlink="http://www.w3.org/1999/xlink" x="0px" y="0px"
	 viewBox="0 0 248.344 248.344" style="enable-background:new 0 0 248.344 248.344;" xml:space="preserve">
<g>
	<g>
		<path d="M199.56,145.076c1.852-6.663,2.862-13.673,2.862-20.918c0-29.956-16.928-56.021-41.713-69.167L227.946,0H20.398
			l67.237,54.992C62.85,68.137,45.922,94.203,45.922,124.158c0,7.245,1.011,14.254,2.862,20.918l-28.347,23.612H59.88
			c13.965,20.101,37.093,33.364,63.292,33.695v10.824h-9.125v3h9.125v3.251h-9.125v3h9.125v3.25h-9.125v3h9.125v19.636h2v-19.636
			h9.25v-3h-9.25v-3.25h9.25v-3h-9.25v-3.251h9.25v-3h-9.25v-10.824c26.199-0.331,49.326-13.594,63.292-33.695h39.442
			L199.56,145.076z M200.422,124.158c0,6.746-0.891,13.285-2.543,19.518l-50.315-41.911l30.987-30.988
			C192.066,84.543,200.422,103.39,200.422,124.158z M165.857,166.688H82.641l9.736-9.736l-1.414-1.414l-11.15,11.15H60.915
			c-4.287-6.355-7.625-13.394-9.852-20.908l50.683-42.218l8.514,8.515l1.414-1.414l-8.385-8.386l20.882-17.394L144.6,101.9
			l-8.763,8.763l1.414,1.414l8.892-8.892l51.137,42.595c-2.226,7.513-5.565,14.553-9.852,20.908h-18.85L158.3,155.566l-1.469,1.357
			L165.857,166.688z M124.172,82.281l-0.006,0.005L91.271,55.381c9.966-4.787,21.125-7.473,32.901-7.473
			c11.775,0,22.935,2.686,32.901,7.473l-32.896,26.904L124.172,82.281z M177.127,69.374l-31.106,31.106l-20.277-16.891
			l33.277-27.217C165.687,59.813,171.781,64.205,177.127,69.374z M26.003,2h196.339l-63.574,51.996
			c-10.439-5.168-22.181-8.087-34.596-8.087s-24.157,2.92-34.595,8.087L26.003,2z M122.601,83.589l-20.731,17.268L70.792,69.779
			c5.446-5.346,11.69-9.875,18.532-13.407L122.601,83.589z M47.922,124.158c0-20.558,8.192-39.228,21.465-52.955l30.94,30.939
			l-49.863,41.534C48.813,137.443,47.922,130.904,47.922,124.158z M25.964,166.688l23.419-19.508
			c2.149,6.969,5.261,13.515,9.158,19.508H25.964z M77.813,168.688l-8.425,8.425c-2.546-2.634-4.904-5.448-7.054-8.425H77.813z
			 M70.792,178.537l9.849-9.849h42.531v31.695C102.8,200.119,84.335,191.834,70.792,178.537z M125.172,168.688h42.533l9.451,10.226
			c-13.506,13.074-31.809,21.207-51.984,21.469C125.172,200.383,125.172,168.688,125.172,168.688z M178.58,177.508l-8.152-8.82
			h15.582C183.754,171.813,181.273,174.762,178.58,177.508z M198.961,147.18l23.42,19.508h-32.577
			C193.701,160.695,196.812,154.149,198.961,147.18z"/>
		<path d="M162.016,138.388l-0.67-0.694c-10.735-11.133-23.544-17.018-37.041-17.018c-13.62,0-26.521,5.982-37.311,17.299
			l-0.658,0.69l0.658,0.69c10.789,11.317,23.69,17.298,37.311,17.298c13.147,0,25.957-6.076,37.041-17.571L162.016,138.388z
			 M124.022,146.044c-4.068,0-7.378-3.31-7.378-7.378c0-4.069,3.31-7.379,7.378-7.379c4.068,0,7.379,3.31,7.379,7.379
			C131.401,142.733,128.09,146.044,124.022,146.044z M129.558,153.399l-5.365-5.364c0.568-0.01,1.125-0.066,1.664-0.174l4.987,4.986
			C130.424,153.05,129.996,153.233,129.558,153.399z M127.033,154.126l-6.973-6.973c0.817,0.383,1.697,0.649,2.621,0.783
			l5.827,5.827C128.025,153.907,127.534,154.029,127.033,154.126z M131.777,152.366l-4.805-4.805
			c0.447-0.149,0.879-0.332,1.294-0.544l4.646,4.645C132.546,151.915,132.164,152.145,131.777,152.366z M118.268,124.01l5.299,5.299
			c-0.554,0.027-1.097,0.097-1.622,0.216l-4.946-4.946C117.413,124.372,117.835,124.181,118.268,124.01z M125.012,129.34
			l-5.709-5.709c0.477-0.15,0.964-0.275,1.459-0.38l6.696,6.696C126.686,129.642,125.868,129.43,125.012,129.34z M116.082,125.076
			l4.772,4.772c-0.441,0.159-0.871,0.34-1.278,0.561l-4.615-4.615C115.324,125.538,115.699,125.301,116.082,125.076z
			 M114.153,126.399l4.55,4.55c-0.359,0.249-0.696,0.526-1.017,0.821l-4.509-4.509C113.492,126.963,113.814,126.672,114.153,126.399
			z M112.477,127.976l4.508,4.508c-0.289,0.328-0.558,0.673-0.798,1.039l-4.558-4.558
			C111.898,128.623,112.182,128.295,112.477,127.976z M111.024,129.774l4.646,4.646c-0.212,0.415-0.395,0.847-0.544,1.295
			l-4.805-4.805C110.541,130.523,110.772,130.141,111.024,129.774z M109.84,131.843l4.987,4.986
			c-0.108,0.54-0.164,1.097-0.174,1.665l-5.365-5.365C109.453,132.69,109.637,132.262,109.84,131.843z M108.924,134.179l5.827,5.827
			c0.133,0.924,0.399,1.804,0.783,2.621l-6.973-6.973C108.658,135.153,108.78,134.662,108.924,134.179z M108.373,136.881
			l17.433,17.433c-0.569,0.064-1.146,0.104-1.732,0.106l-15.807-15.807C108.269,138.027,108.308,137.45,108.373,136.881z
			 M122.589,154.35c-0.753-0.068-1.487-0.197-2.206-0.368l-11.678-11.678c-0.171-0.719-0.3-1.453-0.368-2.206L122.589,154.35z
			 M118.329,153.342c-4.112-1.601-7.384-4.872-8.984-8.984L118.329,153.342z M133.721,151.058l-4.558-4.558
			c0.366-0.241,0.711-0.51,1.039-0.799l4.508,4.508C134.392,150.505,134.064,150.789,133.721,151.058z M135.425,149.509
			l-4.509-4.508c0.295-0.32,0.572-0.657,0.821-1.017l4.55,4.55C136.015,148.873,135.724,149.195,135.425,149.509z M136.893,147.725
			l-4.615-4.615c0.22-0.408,0.402-0.837,0.561-1.278l4.772,4.772C137.385,146.988,137.149,147.363,136.893,147.725z
			 M138.108,145.688l-4.946-4.946c0.119-0.525,0.19-1.068,0.216-1.622l5.3,5.299C138.506,144.852,138.315,145.273,138.108,145.688z
			 M139.056,143.383l-5.709-5.709c-0.09-0.855-0.302-1.674-0.607-2.445l6.696,6.696C139.331,142.42,139.206,142.907,139.056,143.383
			z M139.632,140.707l-17.652-17.651c0.561-0.073,1.129-0.119,1.707-0.131L139.763,139
			C139.75,139.578,139.704,140.146,139.632,140.707z M125.141,122.964c0.72,0.051,1.43,0.137,2.12,0.282l12.181,12.18
			c0.144,0.69,0.23,1.4,0.281,2.12L125.141,122.964z M129.245,123.816c4.487,1.584,8.041,5.137,9.625,9.624L129.245,123.816z
			 M114.249,123.854c-4.805,3.181-7.985,8.629-7.985,14.812c0,6.182,3.179,11.629,7.984,14.811
			c-9.064-2.129-17.611-7.135-25.139-14.811C96.639,130.989,105.185,125.982,114.249,123.854z M133.647,153.566
			c4.887-3.167,8.133-8.657,8.133-14.901c0-6.327-3.336-11.876-8.331-15.022c9.291,1.978,18.063,6.972,25.779,14.745
			C151.372,146.323,142.673,151.461,133.647,153.566z"/>
		<path d="M60.381,101.982l9.089-9.089l9.089,9.089l-9.089,9.089L60.381,101.982z M178.868,111.076l-9.089-9.089l9.089-9.089
			l9.089,9.089L178.868,111.076z M114.931,61.983l9.089-9.089l9.089,9.089l-9.089,9.089L114.931,61.983z"/>
		<path d="M131.982,19.448c1.657-1.941,2.967-3.474,5.691-3.474c2.727,0,4.036,1.533,5.694,3.475
			c1.813,2.121,3.866,4.525,7.975,4.525s6.162-2.405,7.974-4.526c1.657-1.941,2.967-3.474,5.691-3.474
			c2.728,0,4.038,1.533,5.696,3.475c1.813,2.121,3.868,4.525,7.977,4.525c4.109,0,6.164-2.404,7.978-4.525
			c1.659-1.941,2.97-3.475,5.697-3.475v-3c-4.11,0-6.165,2.404-7.979,4.526c-1.659,1.941-2.969,3.474-5.696,3.474
			s-4.038-1.533-5.696-3.475c-1.814-2.121-3.868-4.525-7.978-4.525c-4.107,0-6.161,2.404-7.973,4.525
			c-1.658,1.941-2.967,3.475-5.692,3.475s-4.035-1.533-5.693-3.474c-1.813-2.122-3.866-4.526-7.976-4.526
			c-4.107,0-6.161,2.404-7.973,4.526c-1.657,1.941-2.967,3.474-5.691,3.474s-4.033-1.533-5.69-3.474
			c-1.811-2.122-3.864-4.526-7.971-4.526c-4.108,0-6.161,2.404-7.973,4.526c-1.658,1.941-2.967,3.474-5.692,3.474
			s-4.034-1.533-5.692-3.474c-1.812-2.122-3.865-4.526-7.973-4.526c-4.107,0-6.161,2.404-7.972,4.526
			c-1.658,1.941-2.967,3.474-5.691,3.474c-2.725,0-4.034-1.533-5.692-3.474c-1.812-2.122-3.866-4.526-7.974-4.526v3
			c2.725,0,4.035,1.533,5.692,3.474c1.812,2.122,3.865,4.526,7.973,4.526c4.107,0,6.161-2.404,7.973-4.526
			c1.658-1.941,2.967-3.474,5.691-3.474c2.725,0,4.034,1.533,5.692,3.474c1.812,2.122,3.865,4.526,7.973,4.526
			s6.161-2.404,7.973-4.526c1.658-1.941,2.967-3.474,5.692-3.474c2.724,0,4.033,1.533,5.69,3.474
			c1.811,2.122,3.864,4.526,7.971,4.526C128.117,23.974,130.17,21.57,131.982,19.448z"/>
		<rect x="55.689" y="7.701" width="136.667" height="2"/>
	</g>
	<g>
	</g>
	<g>
	</g>
	<g>
	</g>
	<g>
	</g>
	<g>
	</g>
	<g>
	</g>
	<g>
	</g>
	<g>
	</g>
	<g>
	</g>
	<g>
	</g>
	<g>
	</g>
	<g>
	</g>
	<g>
	</g>
	<g>
	</g>
	<g>
	</g>
</g>
<g>
</g>
<g>
</g>
<g>
</g>
<g>
</g>
<g>
</g>
<g>
</g>
<g>
</g>
<g>
</g>
<g>
</g>
<g>
</g>
<g>
</g>
<g>
</g>
<g>
</g>
<g>
</g>
<g>
</g>
</svg>
