<?xml version="1.0" encoding="iso-8859-1"?>
<!-- Generator: Adobe Illustrator 19.0.0, SVG Export Plug-In . SVG Version: 6.00 Build 0)  -->
<svg version="1.1" id="Capa_1" xmlns="http://www.w3.org/2000/svg" xmlns:xlink="http://www.w3.org/1999/xlink" x="0px" y="0px"
	 viewBox="0 0 297.667 297.667" style="enable-background:new 0 0 297.667 297.667;" xml:space="preserve">
<g>
	<path d="M264.083,69.177l8.198-16.726c1.929-3.976,0.311-8.762-3.663-10.689c-3.976-1.929-8.742-0.27-10.669,3.705l-24.49,50.5
		c-1.929,3.976-0.264,8.762,3.71,10.69c1.125,0.546,2.317,0.805,3.489,0.805c2.969,0,5.823-1.66,7.204-4.51l9.19-19.285
		c15.439,10.116,24.614,27.097,24.614,45.793v56c0,7.525-1.173,14.706-3.897,21.25H28.167c-2.824,0-5.44,1.489-6.881,3.919
		l-20.167,34c-1.467,2.473-1.493,5.542-0.07,8.04c1.423,2.498,4.076,4.041,6.951,4.041h219c39.149,0,70.667-31.963,70.667-71.25v-56
		C297.667,104.584,285.063,82.069,264.083,69.177z"/>
</g>
<g>
</g>
<g>
</g>
<g>
</g>
<g>
</g>
<g>
</g>
<g>
</g>
<g>
</g>
<g>
</g>
<g>
</g>
<g>
</g>
<g>
</g>
<g>
</g>
<g>
</g>
<g>
</g>
<g>
</g>
</svg>
