<?xml version="1.0" encoding="iso-8859-1"?>
<!-- Generator: Adobe Illustrator 19.0.0, SVG Export Plug-In . SVG Version: 6.00 Build 0)  -->
<svg version="1.1" id="Layer_1" xmlns="http://www.w3.org/2000/svg" xmlns:xlink="http://www.w3.org/1999/xlink" x="0px" y="0px"
	 viewBox="0 0 512 512" style="enable-background:new 0 0 512 512;" xml:space="preserve">
<g>
	<g>
		<path d="M414.256,304.012h-19.215V59.316h-67.862V29.572h-54.486V0h-33.387v29.572H184.82v29.744h-67.862v244.696H97.744v85.294
			h52.71l-28.437,114.657L154.423,512l30.43-122.694h54.455v104.751h33.387V389.306h54.455L357.579,512l32.404-8.037
			l-28.437-114.657h52.71V304.012z M218.207,62.958h75.585V89.06h-75.585V62.958z M150.345,92.703h34.475v29.744h142.359V92.703
			h34.475v211.309H150.345V92.703z M380.869,355.919H131.131v-18.521h249.738V355.919z"/>
	</g>
</g>
<g>
</g>
<g>
</g>
<g>
</g>
<g>
</g>
<g>
</g>
<g>
</g>
<g>
</g>
<g>
</g>
<g>
</g>
<g>
</g>
<g>
</g>
<g>
</g>
<g>
</g>
<g>
</g>
<g>
</g>
</svg>
