<?xml version="1.0" encoding="iso-8859-1"?>
<!-- Generator: Adobe Illustrator 16.0.0, SVG Export Plug-In . SVG Version: 6.00 Build 0)  -->
<!DOCTYPE svg PUBLIC "-//W3C//DTD SVG 1.1//EN" "http://www.w3.org/Graphics/SVG/1.1/DTD/svg11.dtd">
<svg version="1.1" id="Capa_1" xmlns="http://www.w3.org/2000/svg" xmlns:xlink="http://www.w3.org/1999/xlink" x="0px" y="0px"
	 width="318.52px" height="318.52px" viewBox="0 0 318.52 318.52" style="enable-background:new 0 0 318.52 318.52;"
	 xml:space="preserve">
<g>
	<g>
		<path d="M157.194,89.546c36.27,0,58.942-6.046,58.942-6.046s1.509-27.204-26.448-37.401C168.61,38.405,164.496,16.11,163.75,5.603
			C163.534,2.514,161.113,0,158.016,0h-14.293c-3.093,0-5.519,2.509-5.475,5.603c0.063,4.331,0.086,10.881-0.128,18.575
			c-0.375,13.98-16.855,25.483-16.855,25.483c-20.736,14.944-18.837,33.833-18.849,33.833
			C102.411,83.5,120.919,89.546,157.194,89.546z"/>
		<path d="M74.207,235.734c-0.558,2.275-0.895,4.442-0.895,6.458c0,8.572,0,23.473,0,34.762c0,8.35,4.979,19.783,12.142,24.055
			c12.859,7.678,36.259,17.511,71.739,17.511c35.477,0,58.877-9.833,71.736-17.511c7.166-4.271,12.146-15.705,12.146-24.055
			c0-11.284,0-26.184,0-34.762c0-1.534-0.225-3.153-0.557-4.837l0.529,1.06c0,0,49.496-37.4,48.739-88.789
			c-0.624-42.496-39.977-53.973-53.597-56.679c-2.656-4.774-8.303-7.309-13.802-5.765c-0.252,0.071-25.812,7.105-65.195,7.105
			c-38.731,0-60.113-6.548-60.61-6.698c-5.453-1.749-11.229,0.599-14.047,5.325c-13.415,2.626-53.177,14.002-53.805,56.717
			C28.087,193.091,63.304,226.458,74.207,235.734z M41.194,150.001c2.156-34.046,26.196-41.308,43.481-42.071
			c1.256,1.165,2.752,2.112,4.487,2.673c0.994,0.326,24.797,7.86,68.025,7.86c43.001,0,70.619-7.685,71.775-8.011
			c1.771-0.503,3.303-1.4,4.613-2.534c17.3,0.706,41.569,7.869,43.741,42.083c2.922,46.05-37.227,55.626-48.668,57.421
			c-3.365-7.913-6.184-15.94-6.466-23.421c-0.757-19.644,11.332-31.736,12.841-49.119c1.518-17.381-8.307-19.645-8.307-19.645
			s-32.75,7.56-69.523,7.56c-36.774,0-69.519-7.56-69.519-7.56s-9.829,2.263-8.318,19.645c1.508,17.383,13.605,29.47,12.852,49.119
			c-0.282,7.256-2.934,15.026-6.17,22.706C71.389,203.552,38.549,191.794,41.194,150.001z"/>
	</g>
</g>
<g>
</g>
<g>
</g>
<g>
</g>
<g>
</g>
<g>
</g>
<g>
</g>
<g>
</g>
<g>
</g>
<g>
</g>
<g>
</g>
<g>
</g>
<g>
</g>
<g>
</g>
<g>
</g>
<g>
</g>
</svg>
