<?xml version="1.0" encoding="iso-8859-1"?>
<!-- Generator: Adobe Illustrator 16.0.0, SVG Export Plug-In . SVG Version: 6.00 Build 0)  -->
<!DOCTYPE svg PUBLIC "-//W3C//DTD SVG 1.1//EN" "http://www.w3.org/Graphics/SVG/1.1/DTD/svg11.dtd">
<svg version="1.1" id="Capa_1" xmlns="http://www.w3.org/2000/svg" xmlns:xlink="http://www.w3.org/1999/xlink" x="0px" y="0px"
	 width="305.846px" height="305.846px" viewBox="0 0 305.846 305.846" style="enable-background:new 0 0 305.846 305.846;"
	 xml:space="preserve">
<g>
	<g>
		<path d="M249.119,250.428c15.303,0,27.706,12.404,27.706,27.712c0,15.302-12.403,27.706-27.706,27.706
			c-15.308,0-27.712-12.404-27.712-27.706C221.407,262.832,233.812,250.428,249.119,250.428z"/>
		<path d="M80.24,250.428c15.305,0,27.711,12.404,27.711,27.712c0,15.302-12.406,27.706-27.711,27.706
			c-15.302,0-27.708-12.404-27.708-27.706C52.531,262.832,64.938,250.428,80.24,250.428z"/>
		<ellipse cx="134.162" cy="154.129" rx="11.999" ry="11.994"/>
		<path d="M194.135,19.804l0.207-0.98c1.79-8.422-3.587-16.697-12.008-18.487c-8.367-1.766-16.697,3.581-18.487,12.008
			l-26.402,124.183c7.986,1.692,13.983,8.774,13.983,17.271c0,9.749-7.906,17.659-17.652,17.659c-9.751,0-17.658-7.91-17.658-17.659
			H20.094c-8.61,0-15.588,6.979-15.588,15.589s6.978,15.588,15.588,15.588h11.435c5.468,22.993,16.754,43.714,32.163,60.581
			c4.545-1.875,9.521-2.929,14.745-2.929c21.333,0,38.629,17.287,38.629,38.623c0,0.104-0.012,0.188-0.012,0.299
			c14.781,5.486,30.75,8.53,47.45,8.53c17.104,0,33.466-3.172,48.561-8.902c0.036-21.299,17.312-38.557,38.611-38.557
			c4.969,0,9.7,0.969,14.066,2.68c22.115-24.302,35.597-56.604,35.597-92.056C301.34,87.875,255.439,33.358,194.135,19.804z"/>
	</g>
</g>
<g>
</g>
<g>
</g>
<g>
</g>
<g>
</g>
<g>
</g>
<g>
</g>
<g>
</g>
<g>
</g>
<g>
</g>
<g>
</g>
<g>
</g>
<g>
</g>
<g>
</g>
<g>
</g>
<g>
</g>
</svg>
