<?xml version="1.0" encoding="iso-8859-1"?>
<!-- Generator: Adobe Illustrator 19.0.0, SVG Export Plug-In . SVG Version: 6.00 Build 0)  -->
<svg version="1.1" id="Layer_1" xmlns="http://www.w3.org/2000/svg" xmlns:xlink="http://www.w3.org/1999/xlink" x="0px" y="0px"
	 viewBox="0 0 512 512" style="enable-background:new 0 0 512 512;" xml:space="preserve">
<path style="fill:#A2001D;" d="M215.387,295.821l0.841,6.426c0.056,0.431,5.641,43.499,5.641,75.493v99.325
	c0,9.843,4.077,19.277,11.187,25.884c6.334,5.886,14.393,9.05,22.924,9.05c0.846,0,1.699-0.032,2.554-0.096
	c17.721-1.303,31.602-16.255,31.602-34.041V377.741c0-31.993,5.584-75.062,5.641-75.493l0.841-6.426H215.387z"/>
<path style="fill:#6C0014;" d="M254.863,295.821v216.153c0.371,0.011,0.742,0.026,1.115,0.026c0.847,0,1.699-0.032,2.554-0.096
	c17.721-1.303,31.602-16.255,31.602-34.041V377.741c0-31.993,5.584-75.062,5.641-75.493l0.841-6.426H254.863z"/>
<rect x="164.978" y="56.889" width="45.511" height="34.133"/>
<rect x="164.978" y="113.777" width="45.511" height="34.133"/>
<rect x="164.978" y="170.666" width="45.511" height="34.133"/>
<rect x="164.978" y="227.555" width="45.511" height="34.133"/>
<rect x="301.511" y="56.889" width="45.511" height="34.133"/>
<rect x="301.511" y="113.777" width="45.511" height="34.133"/>
<rect x="301.511" y="170.666" width="45.511" height="34.133"/>
<rect x="301.511" y="227.555" width="45.511" height="34.133"/>
<path style="fill:#00A1A7;" d="M267.379,0h-22.755c-28.232,0-51.2,22.968-51.2,51.2v216.177c0,28.232,22.968,51.2,51.2,51.2h22.755
	c28.232,0,51.2-22.968,51.2-51.2V51.2C318.579,22.968,295.61,0,267.379,0z"/>
<path style="fill:#006C70;" d="M267.379,0h-11.378v318.576h11.378c28.232,0,51.2-22.968,51.2-51.2V51.2
	C318.579,22.968,295.61,0,267.379,0z"/>
<circle cx="256" cy="73.955" r="17.067"/>
<circle cx="256" cy="130.844" r="17.067"/>
<circle cx="256" cy="187.732" r="17.067"/>
<circle cx="256" cy="244.621" r="17.067"/>
<g>
</g>
<g>
</g>
<g>
</g>
<g>
</g>
<g>
</g>
<g>
</g>
<g>
</g>
<g>
</g>
<g>
</g>
<g>
</g>
<g>
</g>
<g>
</g>
<g>
</g>
<g>
</g>
<g>
</g>
</svg>
