<?xml version="1.0" encoding="iso-8859-1"?>
<!-- Generator: Adobe Illustrator 19.0.0, SVG Export Plug-In . SVG Version: 6.00 Build 0)  -->
<svg version="1.1" id="Layer_1" xmlns="http://www.w3.org/2000/svg" xmlns:xlink="http://www.w3.org/1999/xlink" x="0px" y="0px"
	 viewBox="0 0 512 512" style="enable-background:new 0 0 512 512;" xml:space="preserve">
<path style="fill:#A2001D;" d="M256,120.604c-47.053,0-85.333,38.281-85.333,85.333V512h170.667V205.938
	C341.333,158.885,303.053,120.604,256,120.604z"/>
<path style="fill:#6C0014;" d="M256,512h85.333V205.938c0-47.053-38.281-85.333-85.333-85.333"/>
<path style="fill:#CCF7F9;" d="M312.889,142.222H199.111V34.133C199.111,15.283,214.394,0,233.244,0h45.511
	c18.851,0,34.133,15.283,34.133,34.133V142.222z"/>
<g>
	
		<rect x="239.162" y="352.917" transform="matrix(-0.004 -1 1 -0.004 -118.4152 633.4019)" style="fill:#FFFFFF;" width="34.134" height="45.51"/>
	
		<rect x="233.462" y="244.453" transform="matrix(-1 -0.004 0.004 -1 511.3868 524.0633)" style="fill:#FFFFFF;" width="45.51" height="34.134"/>
</g>
<path style="fill:#99EFF2;" d="M278.756,0H256v142.222h56.889V34.133C312.889,15.283,297.606,0,278.756,0z"/>
<rect x="221.867" y="62.578" style="fill:#6C0014;" width="68.267" height="45.511"/>
<rect x="199.111" y="96.711" style="fill:#FFE98F;" width="113.778" height="45.511"/>
<rect x="256" y="96.711" style="fill:#FFC170;" width="56.889" height="45.511"/>
<rect x="221.867" y="301.511" style="fill:#FFE98F;" width="68.267" height="34.133"/>
<g>
</g>
<g>
</g>
<g>
</g>
<g>
</g>
<g>
</g>
<g>
</g>
<g>
</g>
<g>
</g>
<g>
</g>
<g>
</g>
<g>
</g>
<g>
</g>
<g>
</g>
<g>
</g>
<g>
</g>
</svg>
