<?xml version="1.0" encoding="iso-8859-1"?>
<!-- Generator: Adobe Illustrator 19.0.0, SVG Export Plug-In . SVG Version: 6.00 Build 0)  -->
<svg version="1.1" id="Layer_1" xmlns="http://www.w3.org/2000/svg" xmlns:xlink="http://www.w3.org/1999/xlink" x="0px" y="0px"
	 viewBox="0 0 512 512" style="enable-background:new 0 0 512 512;" xml:space="preserve">
<path style="fill:#0E4151;" d="M87.232,512c-4.188,0-8.377-1.597-11.571-4.794l-23.645-23.645
	c-20.335-20.335-20.335-53.423,0-73.759c6.391-6.39,16.752-6.391,23.143,0c6.391,6.391,6.391,16.752,0,23.143
	c-7.574,7.574-7.574,19.899,0,27.472l23.645,23.645c6.391,6.391,6.391,16.752,0,23.143C95.608,510.403,91.42,512,87.232,512z"/>
<path style="fill:#144F66;" d="M52.016,483.562c-20.335-20.335-20.335-53.423,0-73.759c6.391-6.39,16.752-6.391,23.143,0
	s6.391,16.752,0,23.143c-7.574,7.574-7.574,19.899,0,27.472L52.016,483.562z"/>
<path style="fill:#39B7B6;" d="M373.631,180.609l-70.851-70.851c-5.611-5.611-14.439-6.389-20.946-1.843l-42.009,29.356
	c-1.052,0.735-2.014,1.591-2.865,2.551L37.193,364.894c-1.599,1.801-2.781,3.934-3.461,6.247l-4.456,15.153
	c-1.689,5.745-0.106,11.954,4.128,16.188l47.502,47.502c3.114,3.114,7.294,4.794,11.573,4.794c1.54,0,3.093-0.218,4.614-0.664
	l15.153-4.455c2.312-0.68,4.445-1.862,6.247-3.462l225.072-199.767c0.96-0.852,1.817-1.813,2.551-2.865l29.356-42.009
	C380.02,195.049,379.243,186.22,373.631,180.609z"/>
<path style="fill:#66CBC4;" d="M338.988,145.966l-36.209-36.209c-5.611-5.611-14.439-6.389-20.946-1.843l-42.009,29.356
	c-1.052,0.735-2.014,1.591-2.865,2.551L37.193,364.894c-1.599,1.801-2.781,3.934-3.461,6.247l-4.456,15.153
	c-1.689,5.745-0.106,11.954,4.128,16.188l24.534,24.534L338.988,145.966z"/>
<path style="fill:#CFCDD6;" d="M409.989,89.764c-4.188,0-8.377-1.597-11.571-4.794c-6.391-6.391-6.391-16.752,0-23.143
	l28.229-28.229c6.39-6.391,16.752-6.391,23.143,0c6.391,6.391,6.391,16.752,0,23.143L421.561,84.97
	C418.366,88.166,414.177,89.764,409.989,89.764z"/>
<path style="fill:#DEE1E7;" d="M398.418,84.971c-6.391-6.391-6.391-16.752,0-23.143l28.229-28.229c6.39-6.391,16.752-6.391,23.143,0
	L398.418,84.971z"/>
<path style="fill:#0E4151;" d="M380.818,102.571c-13.008-13.008-30.302-20.171-48.697-20.171c-18.395,0-35.69,7.163-48.697,20.17
	l-14.748,14.747c-3.031,3.031-4.733,7.141-4.733,11.427c0,4.285,1.702,8.396,4.733,11.426l74.541,74.541
	c3.155,3.155,7.29,4.733,11.426,4.733c4.135,0,8.271-1.578,11.426-4.733l14.748-14.748c13.008-13.008,20.171-30.302,20.171-48.696
	S393.825,115.578,380.818,102.571z"/>
<path style="fill:#144F66;" d="M380.818,102.571c-13.008-13.008-30.302-20.171-48.697-20.171c-18.395,0-35.69,7.163-48.697,20.17
	l-14.748,14.747c-3.031,3.031-4.733,7.141-4.733,11.427c0,4.285,1.702,8.396,4.733,11.426l37.271,37.271L380.818,102.571z"/>
<path style="fill:#DEE1E7;" d="M368.681,72.654c-9.038,0-16.365-7.327-16.365-16.365V16.365C352.316,7.327,359.643,0,368.681,0
	c9.038,0,16.365,7.327,16.365,16.365v39.924C385.046,65.327,377.719,72.654,368.681,72.654z"/>
<path style="fill:#CFCDD6;" d="M467.023,131.073H427.1c-9.038,0-16.365-7.327-16.365-16.365s7.327-16.365,16.365-16.365h39.923
	c9.038,0,16.365,7.327,16.365,16.365S476.061,131.073,467.023,131.073z"/>
<path style="fill:#BC2A46;" d="M364.246,217.622l-98.479-98.479l-25.942,18.129c-1.052,0.735-2.014,1.591-2.865,2.551
	l-10.076,11.353l105.33,105.33l11.353-10.076c0.96-0.852,1.817-1.813,2.551-2.865L364.246,217.622z"/>
<path style="fill:#D62D46;" d="M314.677,168.052l-48.91-48.91l-25.942,18.129c-1.052,0.735-2.014,1.591-2.865,2.551l-10.076,11.353
	l52.335,52.335L314.677,168.052z"/>
<g>
</g>
<g>
</g>
<g>
</g>
<g>
</g>
<g>
</g>
<g>
</g>
<g>
</g>
<g>
</g>
<g>
</g>
<g>
</g>
<g>
</g>
<g>
</g>
<g>
</g>
<g>
</g>
<g>
</g>
</svg>
