<?xml version="1.0" encoding="iso-8859-1"?>
<!-- Generator: Adobe Illustrator 19.0.0, SVG Export Plug-In . SVG Version: 6.00 Build 0)  -->
<svg version="1.1" id="Layer_1" xmlns="http://www.w3.org/2000/svg" xmlns:xlink="http://www.w3.org/1999/xlink" x="0px" y="0px"
	 viewBox="0 0 511.998 511.998" style="enable-background:new 0 0 511.998 511.998;" xml:space="preserve">
<g>
	<g>
		<g>
			<path d="M154.175,268.18c-5.745,0-10.407,4.662-10.397,10.418c0,5.745,4.662,10.397,10.407,10.397
				c5.755,0,10.407-4.662,10.407-10.418C164.582,272.832,159.93,268.18,154.175,268.18z"/>
			<path d="M183.877,217.278c2.664,0,5.328-1.02,7.358-3.049c4.069-4.069,4.059-10.657-0.01-14.716
				c-4.069-4.069-10.657-4.059-14.716,0.01c-4.059,4.059-4.048,10.657,0.01,14.716C178.559,216.268,181.213,217.278,183.877,217.278
				z"/>
			<path d="M176.592,342.914c-4.059,4.059-4.059,10.647,0.01,14.716c2.029,2.029,4.694,3.049,7.358,3.049
				c2.664,0,5.328-1.02,7.358-3.06c4.059-4.059,4.059-10.647,0-14.716C187.249,338.844,180.661,338.844,176.592,342.914z"/>
			<path d="M327.268,217.121c2.675,0,5.339-1.02,7.368-3.06c4.059-4.069,4.048-10.657-0.021-14.716
				c-4.069-4.059-10.657-4.048-14.716,0.021s-4.048,10.657,0.021,14.716C321.95,216.112,324.614,217.121,327.268,217.121z"/>
			<path d="M320.139,342.758c-4.059,4.08-4.048,10.667,0.031,14.726c2.029,2.019,4.683,3.029,7.337,3.029
				c2.675,0,5.339-1.02,7.379-3.06c4.048-4.069,4.038-10.667-0.031-14.716C330.786,338.678,324.188,338.689,320.139,342.758z"/>
			<path d="M357.127,288.765h0.01c5.755-0.01,10.397-4.673,10.397-10.418c-0.01-5.755-4.683-10.407-10.428-10.397
				c-5.745,0.01-10.397,4.683-10.386,10.428C346.73,284.123,351.382,288.765,357.127,288.765z"/>
			<path d="M255.854,369.598c-0.052,0-0.114,0-0.177,0c-0.01,0-0.021,0-0.021,0c-5.755,0-10.407,4.652-10.407,10.407
				c0,5.745,4.652,10.407,10.407,10.407c0.031,0,0.073,0,0.104-0.01c0.042,0.01,0.083,0.01,0.114,0.01c0.01,0,0.021,0,0.031,0
				c5.745-0.021,10.397-4.683,10.386-10.438C266.271,374.228,261.609,369.577,255.854,369.598z"/>
			<path d="M266.06,246.351v-74.648c0-5.748-4.659-10.407-10.407-10.407c-5.748,0-10.407,4.659-10.407,10.407v74.648
				c-13.572,4.4-23.416,17.158-23.416,32.178c0,6.968,2.119,13.449,5.746,18.837l-19.213,19.213c-4.064,4.064-4.064,10.654,0,14.718
				c2.033,2.033,4.696,3.048,7.359,3.048s5.327-1.017,7.359-3.048l20.988-20.988c3.615,1.322,7.517,2.044,11.584,2.044
				c18.65,0,33.824-15.174,33.824-33.824C289.476,263.51,279.632,250.753,266.06,246.351z M255.653,291.539
				c-7.174,0-13.009-5.835-13.009-13.009c0-7.174,5.835-13.009,13.009-13.009c7.174,0,13.009,5.835,13.009,13.009
				C268.662,285.703,262.827,291.539,255.653,291.539z"/>
			<path d="M255.653,125.023c-84.644,0-153.507,68.863-153.507,153.507s68.863,153.507,153.507,153.507
				c84.643,0,153.507-68.863,153.507-153.507S340.297,125.023,255.653,125.023z M255.653,411.222
				c-73.167,0-132.692-59.525-132.692-132.692s59.525-132.692,132.692-132.692s132.692,59.525,132.692,132.692
				S328.82,411.222,255.653,411.222z"/>
			<path d="M484.763,50.975c-17.564-17.563-40.916-27.237-65.756-27.237c-24.839,0-48.192,9.672-65.755,27.237
				c-4.064,4.064-4.064,10.654,0,14.718l32.639,32.639l-19.571,19.571c-21.931-15.157-47.099-25.94-74.242-31.086V52.171
				c0-5.748-4.659-10.407-10.407-10.407h-52.036c-5.748,0-10.407,4.659-10.407,10.407v34.646
				c-26.974,5.114-51.998,15.794-73.832,30.802l-19.287-19.287l32.639-32.639c4.064-4.064,4.065-10.654,0-14.718
				c-17.563-17.564-40.916-27.237-65.755-27.237c-24.839,0-48.192,9.672-65.756,27.237C9.672,68.539,0,91.892,0,116.731
				c0,24.839,9.672,48.191,27.237,65.755c2.033,2.033,4.696,3.048,7.359,3.048s5.327-1.016,7.359-3.048l32.639-32.639l19.443,19.443
				c-21.151,31.192-33.52,68.798-33.52,109.241c0,64.582,31.544,121.926,80.026,157.464l-30.975,34.955
				c-3.812,4.302-3.415,10.88,0.887,14.692c1.982,1.756,4.445,2.618,6.898,2.618c2.875,0,5.736-1.184,7.793-3.505l33.003-37.243
				c28.705,16.628,62.01,26.157,97.502,26.157s68.798-9.529,97.502-26.157l33.003,37.243c2.057,2.321,4.919,3.505,7.793,3.505
				c2.453,0,4.917-0.863,6.898-2.618c4.301-3.812,4.699-10.39,0.887-14.692l-30.975-34.955
				c48.481-35.538,80.026-92.882,80.026-157.464c0-40.264-12.26-77.717-33.24-108.826l19.857-19.857l32.639,32.639
				c2.031,2.033,4.696,3.048,7.359,3.048c2.663,0,5.328-1.016,7.359-3.048c17.563-17.564,27.237-40.916,27.237-65.755
				C511.998,91.892,502.326,68.539,484.763,50.975z M240.042,62.579h31.222v20.814h-31.222V62.579z M35.119,159.885
				c-9.285-12.396-14.305-27.389-14.305-43.154c0-19.279,7.508-37.405,21.14-51.037s31.758-21.14,51.037-21.14
				c15.765,0,30.759,5.019,43.155,14.305L35.119,159.885z M89.313,135.128l22.077-22.077l17.365,17.365
				c-7.909,6.787-15.267,14.197-22.005,22.149L89.313,135.128z M429.974,278.53c0,96.121-78.2,174.321-174.321,174.321
				S81.332,374.651,81.332,278.53s78.2-174.321,174.321-174.321S429.974,182.408,429.974,278.53z M404.874,152.941
				c-6.718-7.97-14.055-15.401-21.947-22.207l17.683-17.683l22.077,22.077L404.874,152.941z M476.881,159.885L375.853,58.858
				c12.396-9.284,27.389-14.305,43.155-14.305c19.279,0,37.405,7.508,51.037,21.14s21.14,31.758,21.14,51.037
				C491.185,132.496,486.166,147.489,476.881,159.885z"/>
		</g>
	</g>
</g>
<g>
</g>
<g>
</g>
<g>
</g>
<g>
</g>
<g>
</g>
<g>
</g>
<g>
</g>
<g>
</g>
<g>
</g>
<g>
</g>
<g>
</g>
<g>
</g>
<g>
</g>
<g>
</g>
<g>
</g>
</svg>
