<?xml version="1.0" encoding="iso-8859-1"?>
<!-- Generator: Adobe Illustrator 19.0.0, SVG Export Plug-In . SVG Version: 6.00 Build 0)  -->
<svg version="1.1" id="Layer_1" xmlns="http://www.w3.org/2000/svg" xmlns:xlink="http://www.w3.org/1999/xlink" x="0px" y="0px"
	 viewBox="0 0 512 512" style="enable-background:new 0 0 512 512;" xml:space="preserve">
<path style="fill:#FF8700;" d="M493.268,157.394h-72.107c-10.345,0-18.732-8.387-18.732-18.732V66.554
	c0-10.345,8.387-18.732,18.732-18.732h72.107c10.345,0,18.732,8.387,18.732,18.732v72.107
	C512,149.008,503.613,157.394,493.268,157.394z"/>
<path style="fill:#797680;" d="M493.268,473.084H18.732C8.387,473.084,0,464.697,0,454.352V138.663
	c0-10.345,8.387-18.732,18.732-18.732h118.127V57.647c0-10.345,8.387-18.732,18.732-18.732h200.82
	c10.345,0,18.732,8.387,18.732,18.732v62.284h118.126c10.345,0,18.732,8.387,18.732,18.732v315.69
	C512,464.698,503.613,473.084,493.268,473.084z"/>
<path style="fill:#56565C;" d="M493.268,119.931H375.141V57.647c0-10.345-8.387-18.732-18.732-18.732H256v434.17h237.268
	c10.345,0,18.732-8.387,18.732-18.732v-315.69C512,128.317,503.613,119.931,493.268,119.931z"/>
<path style="fill:#9BFCFF;" d="M256,400.333c-62.344,0-113.065-50.72-113.065-113.066c0-62.344,50.72-113.065,113.065-113.065
	s113.065,50.72,113.065,113.065C369.065,349.613,318.344,400.333,256,400.333z"/>
<path style="fill:#FFB64C;" d="M105.387,431.491H60.326c-10.345,0-18.732-8.387-18.732-18.732c0-10.345,8.387-18.732,18.732-18.732
	h45.061c10.345,0,18.732,8.387,18.732,18.732C124.119,423.104,115.732,431.491,105.387,431.491z"/>
<path style="fill:#83C9FF;" d="M256,174.203v226.13c62.344,0,113.065-50.72,113.065-113.066
	C369.065,224.925,318.344,174.203,256,174.203z"/>
<g>
</g>
<g>
</g>
<g>
</g>
<g>
</g>
<g>
</g>
<g>
</g>
<g>
</g>
<g>
</g>
<g>
</g>
<g>
</g>
<g>
</g>
<g>
</g>
<g>
</g>
<g>
</g>
<g>
</g>
</svg>
