<?xml version="1.0" encoding="iso-8859-1"?>
<!-- Generator: Adobe Illustrator 19.0.0, SVG Export Plug-In . SVG Version: 6.00 Build 0)  -->
<svg version="1.1" id="Layer_1" xmlns="http://www.w3.org/2000/svg" xmlns:xlink="http://www.w3.org/1999/xlink" x="0px" y="0px"
	 viewBox="0 0 512 512" style="enable-background:new 0 0 512 512;" xml:space="preserve">
<circle style="fill:#E0E0E0;" cx="256" cy="256" r="256"/>
<rect x="64" y="164" style="fill:#3B3B3B;" width="384" height="232"/>
<rect x="64" y="116" width="384" height="48.08"/>
<circle style="fill:#00C454;" cx="97.144" cy="140.04" r="6.696"/>
<circle style="fill:#FFFFFF;" cx="117.224" cy="140.04" r="6.696"/>
<g>
	<circle style="fill:#666666;" cx="137.28" cy="140.04" r="6.696"/>
	<polygon style="fill:#666666;" points="400,151.8 192.328,151.8 206.672,128.288 414.352,128.288 	"/>
</g>
<g>
	<path style="fill:#FFFFFF;" d="M221.784,134.784l1.392,5.344c0.304,1.168,0.584,2.256,0.784,3.344h0.064
		c0.24-1.064,0.584-2.192,0.936-3.32l1.712-5.368h1.608l1.632,5.256c0.392,1.256,0.696,2.368,0.928,3.432h0.072
		c0.168-1.064,0.456-2.168,0.808-3.408l1.504-5.28h1.888l-3.392,10.512h-1.744l-1.608-5.016c-0.368-1.176-0.672-2.216-0.928-3.464
		h-0.048c-0.256,1.264-0.584,2.352-0.952,3.48l-1.696,5H223l-3.168-10.512L221.784,134.784L221.784,134.784z"/>
	<path style="fill:#FFFFFF;" d="M238,134.784l1.392,5.344c0.304,1.168,0.584,2.256,0.784,3.344h0.072
		c0.232-1.064,0.584-2.192,0.928-3.32l1.72-5.368h1.608l1.624,5.256c0.392,1.256,0.696,2.368,0.936,3.432h0.064
		c0.168-1.064,0.464-2.168,0.808-3.408l1.504-5.28h1.888l-3.392,10.512H246.2l-1.608-5.016c-0.368-1.176-0.672-2.216-0.936-3.464
		h-0.04c-0.264,1.264-0.584,2.352-0.96,3.48l-1.696,5h-1.736l-3.168-10.512L238,134.784L238,134.784z"/>
	<path style="fill:#FFFFFF;" d="M254.216,134.784l1.392,5.344c0.304,1.168,0.584,2.256,0.784,3.344h0.072
		c0.232-1.064,0.584-2.192,0.928-3.32l1.72-5.368h1.608l1.624,5.256c0.392,1.256,0.696,2.368,0.936,3.432h0.064
		c0.168-1.064,0.464-2.168,0.808-3.408l1.504-5.28h1.888l-3.392,10.512h-1.736l-1.608-5.016c-0.368-1.176-0.672-2.216-0.936-3.464
		h-0.04c-0.264,1.264-0.584,2.352-0.96,3.48l-1.696,5h-1.736l-3.168-10.512L254.216,134.784L254.216,134.784z"/>
</g>
<g>
	<polygon style="fill:#666666;" points="64,372.688 126.144,372.688 149.456,396 64,396 	"/>
	<polygon style="fill:#666666;" points="448,372.688 385.856,372.688 362.544,396 448,396 	"/>
</g>
<g>
	<rect x="133.792" y="248.72" style="fill:#00C454;" width="128.64" height="87.472"/>
	<polygon style="fill:#00C454;" points="147.944,336.2 147.944,358.072 191.68,336.2 	"/>
</g>
<g>
	<rect x="249.52" y="197.24" style="fill:#FFFFFF;" width="128.64" height="90.048"/>
	<polygon style="fill:#FFFFFF;" points="364.056,287.32 364.056,309.192 320.32,287.32 	"/>
	<path style="fill:#FFFFFF;" d="M196.568,320.344v-7.224c-4.144-0.072-8.44-1.36-10.936-3.144l1.712-4.792
		c2.576,1.712,6.288,3.072,10.296,3.072c5.072,0,8.512-2.936,8.512-7.008c0-3.936-2.792-6.368-8.08-8.512
		c-7.296-2.856-11.8-6.152-11.8-12.368c0-5.936,4.216-10.44,10.8-11.512v-7.224h4.432v6.936c4.288,0.144,7.224,1.288,9.296,2.504
		l-1.784,4.72c-1.504-0.856-4.432-2.432-9.008-2.432c-5.504,0-7.584,3.288-7.584,6.152c0,3.72,2.648,5.576,8.864,8.152
		c7.368,3,11.08,6.72,11.08,13.088c0,5.648-3.936,10.936-11.296,12.16v7.432L196.568,320.344L196.568,320.344z"/>
</g>
<rect x="274.16" y="248.08" style="fill:#3B3B3B;" width="10.744" height="21.44"/>
<rect x="291.584" y="235.856" style="fill:#00C454;" width="10.744" height="33.688"/>
<rect x="309.04" y="222.072" style="fill:#3B3B3B;" width="10.744" height="47.472"/>
<rect x="326.496" y="208.32" style="fill:#00C454;" width="10.744" height="61.256"/>
<rect x="343.944" y="235.856" style="fill:#3B3B3B;" width="10.744" height="33.688"/>
<g>
</g>
<g>
</g>
<g>
</g>
<g>
</g>
<g>
</g>
<g>
</g>
<g>
</g>
<g>
</g>
<g>
</g>
<g>
</g>
<g>
</g>
<g>
</g>
<g>
</g>
<g>
</g>
<g>
</g>
</svg>
