<?xml version="1.0" encoding="iso-8859-1"?>
<!-- Generator: Adobe Illustrator 19.0.0, SVG Export Plug-In . SVG Version: 6.00 Build 0)  -->
<svg version="1.1" id="Capa_1" xmlns="http://www.w3.org/2000/svg" xmlns:xlink="http://www.w3.org/1999/xlink" x="0px" y="0px"
	 viewBox="0 0 347.5 347.5" style="enable-background:new 0 0 347.5 347.5;" xml:space="preserve">
<path d="M251.25,67.5h-41.667V35.55c0-19.603-15.948-35.55-35.55-35.55h-0.566c-19.603,0-35.55,15.947-35.55,35.55V67.5H96.25v44.16
	h33.125v147.25c0,21.837,15.99,40.001,36.875,43.42v45.17h15v-45.17c20.885-3.419,36.875-21.583,36.875-43.42V111.66h33.125V67.5z
	 M152.917,35.55c0-11.331,9.219-20.55,20.55-20.55h0.566c11.332,0,20.55,9.219,20.55,20.55V67.5h-41.667V35.55z M203.125,133.333
	H173.75v15h29.375v23.334H173.75v15h29.375V210H173.75v15h29.375v23.333H173.75v15h29.038
	c-2.136,13.903-14.179,24.584-28.669,24.584h-0.737c-15.994,0-29.006-13.013-29.006-29.007V111.66h58.75V133.333z M236.25,96.66
	h-18.125h-88.75H111.25V82.5h26.667h71.667h26.667V96.66z"/>
<g>
</g>
<g>
</g>
<g>
</g>
<g>
</g>
<g>
</g>
<g>
</g>
<g>
</g>
<g>
</g>
<g>
</g>
<g>
</g>
<g>
</g>
<g>
</g>
<g>
</g>
<g>
</g>
<g>
</g>
</svg>
