<?xml version="1.0" encoding="iso-8859-1"?>
<!-- Generator: Adobe Illustrator 19.0.0, SVG Export Plug-In . SVG Version: 6.00 Build 0)  -->
<svg version="1.1" id="Layer_1" xmlns="http://www.w3.org/2000/svg" xmlns:xlink="http://www.w3.org/1999/xlink" x="0px" y="0px"
	 viewBox="0 0 512 512" style="enable-background:new 0 0 512 512;" xml:space="preserve">
<circle style="fill:#D2CFCE;" cx="256" cy="256" r="256"/>
<g>
	<path style="fill:#EBEAEA;" d="M428.752,300.726c-6.89-1.528-15.644-0.36-24.022,2.954c-3.167-7.304-8.12-14.768-14.864-19.061
		c-4.768-3.036-10.19-4.641-15.681-4.641c-0.385,0-0.762,0.024-1.142,0.039c1.59-7.761,2.426-15.794,2.426-24.019
		c0-8.225-0.836-16.258-2.426-24.019c0.38,0.016,0.758,0.039,1.142,0.039c5.489,0,10.912-1.605,15.681-4.641
		c6.744-4.293,11.697-11.757,14.864-19.061c8.38,3.315,17.133,4.484,24.022,2.954c8.424-1.87,15.422-7.107,19.201-14.37
		c3.421-6.573,3.745-13.957,0.915-20.792c-3.905-9.425-12.872-15.28-23.405-15.28c-5.49,0-10.913,1.605-15.681,4.641
		c-6.744,4.293-11.697,11.757-14.864,19.06c-8.379-3.314-17.136-4.483-24.021-2.954c-6.012,1.336-11.291,4.393-15.199,8.67
		c-8.925-13.486-20.507-25.063-33.999-33.981c4.223-3.862,7.38-9.11,8.724-15.163c1.735-7.812-0.047-16.603-2.977-24.012
		c7.311-3.167,14.787-8.123,19.084-14.874c4.634-7.278,5.878-15.931,3.416-23.737c-2.229-7.067-7.221-12.518-14.056-15.349
		c-3.044-1.261-6.216-1.899-9.429-1.899c-12.078,0-22.899,9.259-25.732,22.014c-1.735,7.813,0.047,16.603,2.977,24.012
		c-7.312,3.167-14.787,8.123-19.085,14.874c-3.296,5.177-4.868,11.05-4.619,16.819c-7.755-1.588-15.782-2.423-24-2.423
		c-8.218,0-16.244,0.835-24,2.423c0.249-5.769-1.323-11.642-4.619-16.819c-4.297-6.751-11.773-11.707-19.085-14.874
		c2.93-7.409,4.713-16.199,2.977-24.012c-2.832-12.756-13.654-22.014-25.732-22.014c-3.213,0-6.385,0.639-9.429,1.899
		c-6.835,2.831-11.827,8.282-14.056,15.349c-2.462,7.807-1.218,16.458,3.416,23.737c4.297,6.751,11.773,11.707,19.084,14.874
		c-2.93,7.409-4.713,16.199-2.977,24.011c1.344,6.053,4.501,11.301,8.724,15.164c-13.492,8.918-25.075,20.495-33.999,33.981
		c-3.908-4.277-9.187-7.336-15.199-8.67c-6.888-1.529-15.644-0.361-24.022,2.954c-3.168-7.304-8.12-14.768-14.864-19.06
		c-4.769-3.036-10.192-4.641-15.682-4.641c-10.533,0-19.5,5.855-23.405,15.28c-2.831,6.835-2.507,14.219,0.915,20.792
		c3.779,7.261,10.777,12.498,19.199,14.37c6.891,1.529,15.644,0.36,24.022-2.954c3.167,7.304,8.12,14.768,14.864,19.061
		c4.768,3.036,10.19,4.641,15.681,4.641c0.385,0,0.763-0.024,1.142-0.039c-1.59,7.761-2.426,15.794-2.426,24.019
		c0,8.225,0.836,16.258,2.426,24.019c-0.38-0.016-0.758-0.039-1.142-0.039c-5.489,0-10.912,1.605-15.681,4.641
		c-6.744,4.293-11.697,11.757-14.864,19.061c-8.379-3.314-17.131-4.482-24.022-2.954c-8.424,1.87-15.422,7.107-19.201,14.37
		c-3.421,6.573-3.745,13.957-0.915,20.792c3.905,9.425,12.872,15.28,23.405,15.28c5.49,0,10.913-1.605,15.681-4.641
		c6.744-4.293,11.697-11.757,14.864-19.06c8.379,3.315,17.135,4.482,24.021,2.954c6.012-1.336,11.291-4.393,15.199-8.67
		c8.925,13.486,20.507,25.063,33.999,33.981c-4.223,3.862-7.38,9.11-8.724,15.163c-1.735,7.812,0.047,16.603,2.977,24.012
		c-7.311,3.167-14.787,8.123-19.084,14.874c-4.634,7.278-5.878,15.931-3.416,23.737c2.229,7.067,7.221,12.518,14.056,15.349
		c3.044,1.261,6.216,1.899,9.429,1.899c12.078,0,22.899-9.259,25.732-22.014c1.735-7.813-0.047-16.603-2.977-24.012
		c7.312-3.167,14.787-8.123,19.085-14.874c3.296-5.177,4.868-11.05,4.619-16.819c7.755,1.588,15.782,2.423,24,2.423
		s16.244-0.835,24-2.423c-0.249,5.769,1.323,11.642,4.619,16.819c4.297,6.751,11.773,11.707,19.085,14.874
		c-2.93,7.409-4.713,16.199-2.977,24.012c2.832,12.756,13.654,22.014,25.732,22.014c3.213,0,6.385-0.639,9.429-1.899
		c6.835-2.831,11.827-8.282,14.056-15.349c2.462-7.807,1.218-16.458-3.416-23.737c-4.297-6.751-11.773-11.707-19.084-14.874
		c2.93-7.409,4.713-16.199,2.977-24.011c-1.344-6.053-4.501-11.301-8.724-15.164c13.492-8.918,25.074-20.495,33.999-33.981
		c3.908,4.277,9.187,7.336,15.199,8.67c6.889,1.528,15.644,0.36,24.022-2.954c3.168,7.304,8.12,14.768,14.864,19.06
		c4.769,3.036,10.192,4.641,15.682,4.641c10.533,0,19.5-5.855,23.405-15.28c2.831-6.835,2.507-14.219-0.915-20.792
		C444.173,307.834,437.175,302.596,428.752,300.726z M418.844,179.712c2.055-1.309,4.342-2,6.617-2c1.743,0,5.993,0.474,7.809,4.86
		c0.915,2.209,0.817,4.409-0.293,6.541c-1.448,2.784-4.396,4.908-7.886,5.683c-0.841,0.187-1.809,0.281-2.881,0.281
		c-3.599,0-8.018-1.061-12.244-2.857C412.219,186.63,415.558,181.803,418.844,179.712z M366.667,203.741
		c1.448-2.784,4.396-4.908,7.886-5.683c0.841-0.187,1.809-0.281,2.881-0.281c3.599,0,8.018,1.061,12.243,2.857
		c-2.251,5.589-5.59,10.417-8.876,12.509c-2.056,1.309-4.344,2-6.617,2c-1.743,0-5.993-0.474-7.811-4.86
		C365.459,208.073,365.558,205.872,366.667,203.741z M317.205,86.907c1.131-5.095,5.023-8.793,9.254-8.793
		c0.985,0,1.984,0.207,2.97,0.616c2.208,0.915,3.695,2.541,4.418,4.832c0.944,2.993,0.362,6.579-1.557,9.594
		c-2.093,3.287-6.922,6.628-12.514,8.878C317.412,96.489,316.36,90.711,317.205,86.907z M298.857,131.199
		c2.093-3.287,6.922-6.629,12.514-8.88c2.363,5.545,3.415,11.323,2.57,15.127c-1.131,5.095-5.022,8.794-9.252,8.794
		c-0.987,0-1.986-0.207-2.972-0.616c-2.208-0.915-3.695-2.541-4.418-4.832C296.357,137.8,296.939,134.214,298.857,131.199z
		 M200.628,122.321c5.593,2.251,10.421,5.591,12.514,8.878c1.92,3.015,2.501,6.602,1.557,9.594c-0.724,2.292-2.21,3.917-4.418,4.832
		c-0.985,0.408-1.985,0.616-2.97,0.616c-4.231,0-8.123-3.699-9.254-8.794C197.212,133.643,198.264,127.865,200.628,122.321z
		 M179.712,93.156c-1.92-3.015-2.501-6.601-1.557-9.594c0.722-2.292,2.209-3.917,4.418-4.832c0.986-0.408,1.985-0.616,2.97-0.616
		c4.231,0,8.122,3.699,9.254,8.794c0.844,3.803-0.207,9.582-2.57,15.126C186.632,99.784,181.804,96.443,179.712,93.156z
		 M89.788,195.077c-1.071,0-2.04-0.095-2.882-0.281c-3.489-0.774-6.437-2.899-7.885-5.683c-1.11-2.131-1.207-4.332-0.293-6.541
		c1.817-4.386,6.067-4.86,7.809-4.86c2.274,0,4.562,0.692,6.617,2c3.286,2.092,6.626,6.918,8.876,12.509
		C97.806,194.015,93.388,195.077,89.788,195.077z M131.199,213.143c-3.286-2.092-6.627-6.919-8.877-12.509
		c4.225-1.796,8.644-2.857,12.243-2.857c1.071,0,2.04,0.095,2.882,0.281c3.489,0.774,6.437,2.899,7.885,5.683
		c1.11,2.132,1.209,4.332,0.294,6.541c-1.817,4.386-6.067,4.86-7.809,4.86C135.543,215.141,133.254,214.45,131.199,213.143z
		 M93.156,332.288c-2.055,1.309-4.342,2-6.617,2c-1.743,0-5.993-0.474-7.809-4.86c-0.915-2.209-0.817-4.409,0.293-6.541
		c1.448-2.784,4.396-4.908,7.886-5.683c0.841-0.187,1.809-0.281,2.881-0.281c3.599,0,8.018,1.061,12.244,2.857
		C99.781,325.37,96.442,330.197,93.156,332.288z M145.333,308.259c-1.448,2.784-4.396,4.908-7.886,5.683
		c-0.841,0.187-1.809,0.281-2.881,0.281c-3.599,0-8.018-1.061-12.243-2.857c2.251-5.589,5.59-10.417,8.876-12.509
		c2.056-1.309,4.344-2,6.617-2c1.743,0,5.993,0.474,7.811,4.86C146.541,303.927,146.442,306.128,145.333,308.259z M194.795,425.093
		c-1.131,5.095-5.023,8.793-9.254,8.793c-0.985,0-1.984-0.207-2.97-0.616c-2.208-0.915-3.695-2.541-4.418-4.832
		c-0.944-2.993-0.362-6.579,1.557-9.594c2.093-3.287,6.922-6.628,12.514-8.878C194.588,415.511,195.64,421.289,194.795,425.093z
		 M213.143,380.801c-2.093,3.287-6.922,6.629-12.514,8.88c-2.363-5.545-3.415-11.323-2.57-15.127
		c1.131-5.095,5.023-8.794,9.254-8.794c0.985,0,1.984,0.207,2.97,0.616c2.208,0.915,3.695,2.541,4.418,4.832
		C215.643,374.2,215.061,377.786,213.143,380.801z M311.373,389.679c-5.593-2.251-10.421-5.591-12.514-8.878
		c-1.92-3.015-2.501-6.602-1.557-9.594c0.724-2.292,2.21-3.917,4.418-4.832c0.985-0.408,1.985-0.616,2.97-0.616
		c4.231,0,8.123,3.699,9.254,8.794C314.788,378.357,313.736,384.135,311.373,389.679z M332.288,418.844
		c1.92,3.015,2.501,6.601,1.557,9.594c-0.722,2.292-2.209,3.917-4.418,4.832c-0.986,0.408-1.985,0.616-2.97,0.616
		c-4.231,0-8.122-3.699-9.254-8.794c-0.844-3.803,0.207-9.582,2.57-15.126C325.368,412.216,330.196,415.557,332.288,418.844z
		 M256,358.589c-56.568,0-102.589-46.021-102.589-102.589S199.432,153.411,256,153.411S358.589,199.432,358.589,256
		S312.568,358.589,256,358.589z M377.434,314.224c-1.071,0-2.04-0.095-2.882-0.281c-3.49-0.774-6.437-2.899-7.885-5.683
		c-1.109-2.132-1.209-4.332-0.294-6.541c1.817-4.386,6.067-4.86,7.811-4.86c2.273,0,4.561,0.691,6.615,2
		c3.286,2.092,6.627,6.919,8.877,12.509C385.452,313.162,381.033,314.224,377.434,314.224z M433.271,329.428
		c-1.817,4.386-6.067,4.86-7.809,4.86c-2.274,0-4.562-0.692-6.617-2c-3.286-2.092-6.626-6.918-8.876-12.509
		c4.227-1.796,8.646-2.857,12.244-2.857c1.071,0,2.04,0.095,2.882,0.281c3.49,0.774,6.437,2.899,7.885,5.683
		C434.087,325.019,434.186,327.22,433.271,329.428z"/>
	<path style="fill:#EBEAEA;" d="M492.308,256c0-0.525-0.021-1.046-0.054-1.563c-0.266-6.396-2.067-12.403-3.691-17.746
		c-1.176-3.871-2.287-7.528-2.733-10.942c-0.466-3.557-0.338-7.455-0.203-11.582c0.206-6.267,0.419-12.747-1.346-19.327
		c-1.799-6.708-5.261-12.258-8.609-17.624c-2.152-3.448-4.183-6.704-5.517-9.915c-1.364-3.28-2.251-7.06-3.19-11.061
		c-1.436-6.119-2.921-12.447-6.356-18.372c-3.458-5.967-8.221-10.412-12.828-14.712c-2.989-2.79-5.813-5.425-7.952-8.208
		c-2.155-2.801-3.983-6.218-5.919-9.837c-2.351-4.393-4.78-8.896-8.096-12.996c-0.805-1.128-1.71-2.201-2.719-3.21
		c-0.874-0.874-1.817-1.649-2.791-2.372c-4.21-3.494-8.872-6.01-13.414-8.441c-3.618-1.937-7.036-3.765-9.837-5.919
		c-2.783-2.14-5.417-4.964-8.207-7.952c-4.299-4.607-8.745-9.371-14.712-12.828c-5.927-3.435-12.254-4.921-18.374-6.357
		c-4.001-0.938-7.781-1.826-11.061-3.189c-3.21-1.335-6.467-3.367-9.914-5.517c-5.366-3.349-10.916-6.81-17.624-8.609
		c-3.815-1.023-7.881-1.479-13.188-1.479c-2.081,0-4.144,0.069-6.139,0.134c-1.956,0.064-3.803,0.125-5.628,0.125
		c-2.36,0-4.251-0.104-5.956-0.327c-3.413-0.447-7.07-1.557-10.941-2.733c-5.329-1.618-11.319-3.416-17.696-3.689
		c-0.533-0.033-1.07-0.055-1.611-0.055s-1.078,0.023-1.611,0.055c-6.378,0.272-12.368,2.071-17.696,3.689
		c-3.871,1.176-7.528,2.287-10.942,2.733c-1.704,0.223-3.596,0.327-5.955,0.327c-1.824,0-3.672-0.061-5.628-0.125
		c-1.995-0.065-4.059-0.134-6.139-0.134c-5.306,0-9.374,0.457-13.187,1.479c-6.708,1.799-12.258,5.261-17.624,8.609
		c-3.448,2.152-6.704,4.183-9.915,5.517c-3.28,1.364-7.06,2.251-11.063,3.19c-6.119,1.436-12.446,2.921-18.372,6.356
		c-5.966,3.458-10.411,8.221-14.711,12.827c-2.79,2.99-5.425,5.813-8.208,7.953c-2.801,2.155-6.218,3.983-9.837,5.919
		c-4.545,2.432-9.208,4.948-13.419,8.445c-0.972,0.722-1.914,1.497-2.787,2.37c-1.009,1.009-1.915,2.084-2.72,3.212
		c-3.315,4.098-5.743,8.602-8.093,12.992c-1.937,3.618-3.765,7.036-5.919,9.837c-2.14,2.783-4.964,5.417-7.952,8.207
		c-4.607,4.299-9.371,8.745-12.828,14.712c-3.435,5.927-4.921,12.254-6.357,18.373c-0.938,4.001-1.826,7.781-3.189,11.061
		c-1.335,3.21-3.367,6.467-5.517,9.914c-3.349,5.366-6.81,10.916-8.609,17.624c-1.764,6.581-1.552,13.061-1.346,19.329
		c0.136,4.126,0.263,8.025-0.201,11.582c-0.447,3.413-1.557,7.07-2.733,10.941c-1.624,5.343-3.426,11.351-3.691,17.747
		c-0.033,0.516-0.054,1.038-0.054,1.563c0,0.536,0.021,1.066,0.054,1.593c0.27,6.385,2.069,12.381,3.69,17.715
		c1.176,3.871,2.287,7.528,2.733,10.942c0.466,3.557,0.338,7.455,0.203,11.582c-0.206,6.267-0.419,12.747,1.346,19.327
		c1.799,6.708,5.261,12.258,8.609,17.624c2.152,3.448,4.183,6.704,5.517,9.915c1.364,3.28,2.251,7.06,3.19,11.061
		c1.436,6.119,2.921,12.447,6.356,18.372c3.458,5.967,8.221,10.412,12.828,14.712c2.989,2.79,5.813,5.425,7.952,8.208
		c2.155,2.801,3.983,6.218,5.919,9.837c2.351,4.393,4.78,8.896,8.096,12.996c0.805,1.126,1.71,2.201,2.719,3.21
		c0.874,0.874,1.817,1.65,2.791,2.372c4.21,3.495,8.872,6.01,13.414,8.441c3.618,1.937,7.036,3.765,9.837,5.919
		c2.783,2.14,5.417,4.964,8.207,7.952c4.299,4.607,8.745,9.371,14.712,12.828c5.927,3.435,12.254,4.921,18.373,6.357
		c4.001,0.939,7.781,1.826,11.061,3.189c3.21,1.335,6.467,3.367,9.914,5.517c5.366,3.349,10.916,6.81,17.624,8.609
		c3.815,1.023,7.881,1.479,13.188,1.479c2.08,0,4.143-0.069,6.138-0.134c1.956-0.064,3.803-0.125,5.628-0.125
		c2.36,0,4.251,0.104,5.956,0.327c3.413,0.447,7.07,1.557,10.941,2.733c5.329,1.618,11.319,3.416,17.696,3.689
		c0.533,0.033,1.07,0.055,1.611,0.055s1.078-0.022,1.611-0.055c6.378-0.272,12.368-2.071,17.696-3.689
		c3.871-1.176,7.528-2.287,10.942-2.733c1.704-0.223,3.596-0.327,5.955-0.327c1.824,0,3.671,0.061,5.626,0.125
		c1.995,0.065,4.059,0.134,6.139,0.134c5.306,0,9.374-0.457,13.187-1.479c6.708-1.799,12.258-5.261,17.624-8.609
		c3.448-2.152,6.704-4.183,9.915-5.517c3.28-1.364,7.06-2.251,11.063-3.19c6.119-1.436,12.446-2.921,18.372-6.356
		c5.966-3.458,10.411-8.221,14.711-12.827c2.79-2.99,5.425-5.813,8.208-7.953c2.801-2.155,6.218-3.983,9.837-5.919
		c4.545-2.432,9.208-4.948,13.419-8.445c0.972-0.722,1.914-1.497,2.787-2.37c1.009-1.009,1.915-2.084,2.72-3.212
		c3.315-4.098,5.743-8.602,8.094-12.994c1.937-3.618,3.765-7.036,5.919-9.837c2.14-2.783,4.964-5.417,7.952-8.207
		c4.607-4.299,9.371-8.744,12.828-14.712c3.435-5.927,4.921-12.254,6.357-18.374c0.939-4.001,1.826-7.781,3.189-11.061
		c1.335-3.21,3.367-6.467,5.517-9.914c3.349-5.366,6.81-10.916,8.609-17.624c1.764-6.581,1.552-13.061,1.346-19.329
		c-0.136-4.126-0.263-8.025,0.201-11.582c0.447-3.413,1.557-7.07,2.733-10.941c1.624-5.343,3.426-11.351,3.691-17.747
		C492.286,257.047,492.308,256.526,492.308,256z M465.488,264.365c-0.76,0-1.531-0.068-2.293-0.203
		c-3.837-0.675-8.773-3.857-12.991-8.163c4.219-4.305,9.154-7.489,12.991-8.164c0.762-0.134,1.534-0.201,2.293-0.201
		c4.82,0,9.941,2.931,9.941,8.365S470.307,264.365,465.488,264.365z M413.392,106.996c-0.273,3.126-2.183,6.216-5.111,8.267
		c-3.105,2.175-8.75,3.447-14.958,3.403c-0.06-6.024,1.179-11.759,3.414-14.948c2.224-3.172,5.678-5.144,9.017-5.144
		c1.513,0,2.885,0.407,4.1,1.204c0.43,0.369,0.842,0.747,1.232,1.137c0.403,0.403,0.792,0.83,1.173,1.276
		C413.166,103.597,413.547,105.206,413.392,106.996z M261.931,39.345c2.018,2.404,2.853,5.939,2.233,9.46
		c-0.675,3.837-3.857,8.773-8.163,12.991c-4.305-4.219-7.489-9.154-8.164-12.991c-0.619-3.52,0.215-7.057,2.233-9.459
		c1.545-1.841,3.54-2.774,5.931-2.774C258.392,36.573,260.386,37.505,261.931,39.345z M261.931,106.206
		c-1.545,1.841-3.54,2.774-5.931,2.774c-2.391,0-4.386-0.934-5.931-2.774c-2.017-2.404-2.851-5.939-2.231-9.459
		c0.675-3.837,3.857-8.773,8.163-12.991c4.305,4.219,7.489,9.154,8.164,12.991C264.783,100.266,263.948,103.802,261.931,106.206z
		 M99.741,102.194c0.381-0.447,0.771-0.875,1.175-1.279c0.389-0.389,0.8-0.766,1.229-1.134c1.215-0.797,2.587-1.205,4.102-1.205
		c3.339,0,6.794,1.97,9.017,5.144c2.235,3.188,3.474,8.925,3.414,14.947c-6.206,0.069-11.854-1.227-14.958-3.403
		c-2.927-2.051-4.838-5.141-5.111-8.267C98.453,105.206,98.833,103.598,99.741,102.194z M39.197,261.805
		c-1.742-1.529-2.625-3.483-2.625-5.805c0-5.434,5.121-8.365,9.941-8.365c0.76,0,1.531,0.068,2.293,0.203
		c3.837,0.675,8.773,3.857,12.991,8.163c-4.219,4.305-9.154,7.489-12.991,8.164C45.247,264.788,41.556,263.876,39.197,261.805z
		 M98.608,405.004c0.273-3.126,2.183-6.216,5.111-8.267c3.042-2.132,8.494-3.404,14.582-3.404c0.125,0,0.251,0,0.376,0.001
		c0.06,6.024-1.179,11.759-3.414,14.948c-2.224,3.172-5.678,5.144-9.017,5.144c-1.513,0-2.885-0.407-4.1-1.204
		c-0.43-0.369-0.842-0.747-1.232-1.137c-0.403-0.403-0.792-0.83-1.173-1.276C98.833,408.403,98.453,406.794,98.608,405.004z
		 M250.069,472.655c-2.018-2.404-2.853-5.939-2.233-9.46c0.675-3.837,3.857-8.773,8.163-12.991
		c4.305,4.219,7.489,9.154,8.164,12.991c0.619,3.52-0.215,7.057-2.233,9.459c-1.545,1.841-3.54,2.774-5.931,2.774
		S251.614,474.495,250.069,472.655z M250.069,405.794c1.545-1.841,3.54-2.774,5.931-2.774c2.391,0,4.386,0.934,5.931,2.774
		c2.017,2.404,2.851,5.939,2.231,9.459c-0.675,3.837-3.857,8.773-8.163,12.991c-4.305-4.219-7.489-9.154-8.164-12.991
		C247.217,411.734,248.052,408.198,250.069,405.794z M412.259,409.806c-0.381,0.447-0.771,0.875-1.175,1.279
		c-0.389,0.389-0.8,0.766-1.229,1.134c-1.215,0.797-2.587,1.205-4.102,1.205c-3.339,0-6.794-1.97-9.017-5.144
		c-2.235-3.188-3.474-8.925-3.414-14.947c6.233-0.053,11.855,1.227,14.958,3.403c2.927,2.051,4.838,5.141,5.111,8.267
		C413.547,406.794,413.167,408.402,412.259,409.806z M468.758,298.387c0.173,5.267,0.336,10.243-0.779,14.402
		c-1.148,4.279-3.809,8.544-6.627,13.061c-2.417,3.873-4.916,7.879-6.783,12.37c-1.894,4.556-2.982,9.196-4.035,13.682
		c-1.209,5.147-2.35,10.008-4.528,13.768c-2.202,3.799-5.863,7.216-9.74,10.834c-3.358,3.134-6.829,6.374-9.817,10.258
		c-0.64,0.833-1.241,1.681-1.82,2.538c-1.834-2.409-4.07-4.572-6.661-6.387c-7.592-5.32-17.517-6.357-23.325-6.452
		c-0.129-7.962-1.849-16.76-6.438-23.31c-5.414-7.724-13.951-12.336-22.841-12.336c-6.534,0-12.692,2.56-17.342,7.21
		c-5.23,5.23-7.757,12.177-7.112,19.557c0.711,8.155,5.173,15.673,12.24,20.625c7.592,5.319,17.517,6.356,23.324,6.451
		c0.129,7.964,1.849,16.76,6.439,23.309c1.814,2.589,3.986,4.82,6.398,6.654c-0.86,0.581-1.713,1.184-2.55,1.829
		c-3.884,2.988-7.125,6.46-10.258,9.817c-3.618,3.877-7.035,7.538-10.833,9.74c-3.76,2.179-8.621,3.32-13.767,4.527
		c-4.486,1.053-9.127,2.143-13.683,4.036c-4.491,1.867-8.497,4.366-12.371,6.783c-4.516,2.818-8.782,5.479-13.06,6.627
		c-2.329,0.625-5.048,0.904-8.815,0.904c-1.804,0-3.64-0.061-5.585-0.124c-2.006-0.066-4.08-0.134-6.181-0.134
		c-3.11,0-5.698,0.148-8.147,0.469c-1.044,0.137-2.073,0.314-3.091,0.513c0.424-3.035,0.375-6.185-0.18-9.338
		c-1.387-7.881-6.397-15.322-11.939-21.045c5.543-5.723,10.553-13.163,11.939-21.045c1.497-8.497-0.664-16.967-5.927-23.237
		c-4.764-5.676-11.462-8.802-18.86-8.802c-7.398,0-14.095,3.126-18.86,8.802c-5.263,6.27-7.423,14.74-5.928,23.236
		c1.386,7.881,6.397,15.322,11.939,21.045c-5.543,5.723-10.552,13.163-11.939,21.045c-0.555,3.154-0.604,6.303-0.181,9.338
		c-1.018-0.199-2.047-0.376-3.091-0.513c-2.449-0.321-5.038-0.469-8.147-0.469c-2.102,0-4.176,0.069-6.182,0.134
		c-1.944,0.064-3.782,0.124-5.585,0.124c-3.769,0-6.487-0.279-8.815-0.904c-4.279-1.148-8.544-3.809-13.061-6.627
		c-3.873-2.417-7.879-4.916-12.37-6.783c-4.556-1.894-9.196-2.982-13.682-4.035c-5.147-1.209-10.008-2.35-13.768-4.528
		c-3.799-2.202-7.216-5.863-10.834-9.74c-3.134-3.358-6.374-6.829-10.258-9.817c-0.837-0.644-1.689-1.246-2.549-1.827
		c2.413-1.833,4.584-4.062,6.398-6.653c4.59-6.55,6.308-15.347,6.439-23.31c5.806-0.096,15.731-1.133,23.325-6.452
		c7.066-4.951,11.527-12.469,12.238-20.624c0.645-7.382-1.881-14.327-7.112-19.557c-4.648-4.649-10.807-7.21-17.342-7.21
		c-8.889,0-17.427,4.612-22.841,12.336c-4.589,6.55-6.307,15.346-6.438,23.309c-5.806,0.096-15.732,1.133-23.324,6.452
		c-2.59,1.815-4.827,3.978-6.66,6.387c-0.578-0.856-1.179-1.706-1.821-2.539c-2.988-3.884-6.459-7.125-9.817-10.258
		c-3.877-3.618-7.538-7.035-9.74-10.834c-2.179-3.76-3.32-8.621-4.528-13.768c-1.053-4.486-2.143-9.126-4.036-13.682
		c-1.867-4.491-4.366-8.497-6.783-12.371c-2.818-4.516-5.479-8.782-6.627-13.06c-1.115-4.159-0.952-9.134-0.779-14.401
		c0.152-4.624,0.309-9.404-0.335-14.328c-0.138-1.057-0.317-2.098-0.52-3.128c1.356,0.191,2.73,0.314,4.126,0.314
		c1.739,0,3.494-0.154,5.218-0.457c7.881-1.387,15.322-6.397,21.045-11.939c5.723,5.543,13.163,10.553,21.045,11.939
		c1.725,0.304,3.48,0.458,5.219,0.458c6.936,0,13.488-2.399,18.45-6.754c5.398-4.737,8.37-11.305,8.37-18.491
		c0-14.156-11.781-25.244-26.819-25.244c-1.737,0-3.494,0.154-5.219,0.457c-7.881,1.386-15.322,6.397-21.045,11.939
		c-5.723-5.543-13.163-10.552-21.045-11.939c-1.725-0.304-3.482-0.458-5.219-0.458c-1.404,0-2.779,0.097-4.12,0.284
		c0.199-1.021,0.377-2.051,0.514-3.098c0.645-4.924,0.487-9.706,0.335-14.328c-0.173-5.267-0.336-10.243,0.779-14.402
		c1.148-4.279,3.809-8.544,6.627-13.061c2.417-3.873,4.916-7.879,6.783-12.37c1.894-4.556,2.982-9.196,4.035-13.682
		c1.209-5.147,2.35-10.008,4.528-13.768c2.202-3.799,5.863-7.216,9.74-10.834c3.358-3.134,6.829-6.374,9.817-10.258
		c0.64-0.833,1.241-1.681,1.82-2.537c1.834,2.409,4.07,4.572,6.66,6.387c7.592,5.32,17.517,6.357,23.325,6.452
		c0.129,7.962,1.849,16.76,6.438,23.31c5.413,7.724,13.951,12.335,22.841,12.336c6.534,0,12.693-2.56,17.342-7.21
		c5.23-5.23,7.757-12.177,7.112-19.557c-0.711-8.155-5.173-15.673-12.24-20.625c-7.592-5.319-17.517-6.356-23.324-6.451
		c-0.129-7.964-1.849-16.76-6.439-23.309c-1.814-2.589-3.986-4.82-6.398-6.654c0.86-0.581,1.713-1.184,2.55-1.829
		c3.884-2.988,7.125-6.46,10.258-9.817c3.618-3.877,7.035-7.538,10.833-9.74c3.76-2.179,8.621-3.32,13.767-4.527
		c4.486-1.053,9.127-2.143,13.683-4.036c4.491-1.867,8.497-4.366,12.371-6.783c4.516-2.818,8.782-5.479,13.06-6.627
		c2.329-0.625,5.048-0.904,8.815-0.904c1.804,0,3.64,0.061,5.585,0.124c2.006,0.066,4.08,0.134,6.181,0.134
		c3.11,0,5.698-0.149,8.147-0.469c1.044-0.137,2.073-0.314,3.091-0.513c-0.424,3.035-0.375,6.185,0.18,9.338
		c1.387,7.881,6.397,15.322,11.939,21.045c-5.543,5.723-10.553,13.163-11.939,21.045c-1.497,8.497,0.664,16.967,5.927,23.237
		c4.764,5.676,11.462,8.802,18.86,8.802c7.398,0,14.095-3.126,18.86-8.802c5.263-6.27,7.423-14.74,5.928-23.236
		c-1.386-7.881-6.397-15.322-11.939-21.045c5.543-5.723,10.552-13.163,11.939-21.045c0.555-3.154,0.604-6.303,0.181-9.338
		c1.018,0.199,2.047,0.376,3.091,0.513c2.449,0.321,5.038,0.469,8.147,0.469c2.102,0,4.176-0.069,6.182-0.134
		c1.946-0.064,3.782-0.124,5.585-0.124c3.769,0,6.487,0.279,8.815,0.904c4.279,1.148,8.544,3.809,13.061,6.627
		c3.873,2.417,7.879,4.916,12.37,6.783c4.556,1.894,9.196,2.982,13.682,4.035c5.147,1.209,10.008,2.35,13.768,4.528
		c3.799,2.202,7.216,5.863,10.834,9.74c3.134,3.358,6.374,6.829,10.258,9.817c0.837,0.644,1.689,1.246,2.549,1.827
		c-2.413,1.833-4.584,4.062-6.398,6.653c-4.59,6.55-6.308,15.347-6.439,23.31c-5.806,0.096-15.731,1.133-23.325,6.452
		c-7.066,4.951-11.527,12.469-12.238,20.624c-0.645,7.382,1.881,14.327,7.112,19.557c4.649,4.649,10.807,7.21,17.342,7.21
		c8.889,0,17.427-4.613,22.841-12.336c4.589-6.55,6.307-15.346,6.438-23.309c5.806-0.096,15.732-1.133,23.324-6.452
		c2.59-1.815,4.827-3.978,6.661-6.387c0.578,0.856,1.179,1.706,1.821,2.539c2.988,3.884,6.459,7.125,9.817,10.258
		c3.877,3.618,7.538,7.035,9.74,10.834c2.179,3.76,3.32,8.621,4.528,13.768c1.053,4.486,2.143,9.126,4.036,13.682
		c1.867,4.491,4.366,8.497,6.783,12.371c2.818,4.516,5.479,8.782,6.627,13.06c1.115,4.159,0.952,9.134,0.779,14.401
		c-0.152,4.624-0.309,9.404,0.335,14.328c0.137,1.048,0.315,2.078,0.514,3.099c-1.34-0.187-2.716-0.284-4.12-0.284
		c-1.737,0-3.494,0.154-5.219,0.457c-7.881,1.387-15.322,6.397-21.045,11.939c-5.723-5.543-13.163-10.553-21.045-11.939
		c-1.725-0.304-3.482-0.458-5.219-0.458c-15.039,0-26.819,11.088-26.819,25.244c0,14.156,11.78,25.244,26.819,25.244
		c1.737,0,3.494-0.154,5.219-0.457c7.881-1.386,15.322-6.397,21.045-11.939c5.723,5.543,13.163,10.552,21.045,11.939
		c1.725,0.304,3.482,0.458,5.219,0.458c1.404,0,2.779-0.097,4.12-0.284c-0.199,1.021-0.377,2.051-0.514,3.098
		C468.449,288.983,468.606,293.764,468.758,298.387z M377.796,377.785c-6.245,0.072-11.855-1.227-14.958-3.402
		c-2.928-2.051-4.838-5.143-5.111-8.268c-0.209-2.393,0.542-4.465,2.233-6.155c1.503-1.503,3.322-2.265,5.406-2.265
		c3.339,0,6.794,1.971,9.017,5.144C376.616,366.026,377.856,371.762,377.796,377.785z M134.204,377.785
		c-0.06-6.024,1.179-11.759,3.414-14.947c2.224-3.172,5.678-5.144,9.018-5.144c2.084,0,3.902,0.762,5.406,2.265
		c1.69,1.69,2.441,3.761,2.233,6.155c-0.273,3.126-2.183,6.217-5.111,8.268C146.058,376.557,140.437,377.848,134.204,377.785z
		 M83.755,256c4.219-4.305,9.154-7.489,12.991-8.164c0.762-0.134,1.533-0.201,2.293-0.201c4.818,0,9.94,2.931,9.94,8.365
		c0,2.323-0.883,4.275-2.625,5.805c-1.854,1.627-4.519,2.56-7.313,2.56c-0.762,0-1.533-0.069-2.296-0.203
		C92.908,263.489,87.974,260.305,83.755,256z M134.204,134.215c6.241-0.057,11.855,1.228,14.958,3.402
		c2.928,2.051,4.838,5.143,5.111,8.269c0.209,2.393-0.542,4.465-2.233,6.155c-1.503,1.503-3.322,2.265-5.405,2.265
		c-3.34,0-6.796-1.971-9.018-5.144C135.384,145.974,134.144,140.238,134.204,134.215z M377.796,134.215
		c0.06,6.024-1.179,11.759-3.414,14.947c-2.224,3.172-5.678,5.144-9.018,5.144c-2.084,0-3.902-0.762-5.406-2.265
		c-1.69-1.69-2.441-3.761-2.233-6.155c0.273-3.126,2.183-6.217,5.111-8.269c3.043-2.132,8.495-3.404,14.585-3.404
		C377.547,134.214,377.67,134.214,377.796,134.215z M428.245,256c-4.219,4.305-9.154,7.489-12.991,8.164
		c-0.762,0.134-1.533,0.201-2.293,0.201c-4.818,0-9.94-2.931-9.94-8.365c0-5.434,5.121-8.365,9.94-8.365
		c0.76,0,1.531,0.068,2.293,0.203C419.092,248.511,424.026,251.695,428.245,256z"/>
</g>
<g>
	<path style="fill:#A8A2A2;" d="M183.982,288.07c-4.661,0-8.44-3.779-8.44-8.44v-47.262c0-4.661,3.779-8.44,8.44-8.44
		s8.44,3.779,8.44,8.44v47.262C192.422,284.292,188.643,288.07,183.982,288.07z"/>
	<path style="fill:#A8A2A2;" d="M233.495,288.07c-17.684,0-32.07-14.387-32.07-32.07c0-17.684,14.387-32.07,32.07-32.07
		s32.07,14.387,32.07,32.07C265.565,273.684,251.178,288.07,233.495,288.07z M233.495,240.809c-8.377,0-15.191,6.815-15.191,15.191
		c0,8.377,6.815,15.191,15.191,15.191c8.377,0,15.191-6.815,15.191-15.191C248.686,247.623,241.871,240.809,233.495,240.809z"/>
	<path style="fill:#A8A2A2;" d="M306.637,288.07c-17.684,0-32.07-14.387-32.07-32.07c0-17.684,14.387-32.07,32.07-32.07
		c17.684,0,32.07,14.387,32.07,32.07C338.708,273.684,324.321,288.07,306.637,288.07z M306.637,240.809
		c-8.377,0-15.191,6.815-15.191,15.191c0,8.377,6.815,15.191,15.191,15.191c8.377,0,15.191-6.815,15.191-15.191
		C321.829,247.623,315.014,240.809,306.637,240.809z"/>
</g>
<g>
</g>
<g>
</g>
<g>
</g>
<g>
</g>
<g>
</g>
<g>
</g>
<g>
</g>
<g>
</g>
<g>
</g>
<g>
</g>
<g>
</g>
<g>
</g>
<g>
</g>
<g>
</g>
<g>
</g>
</svg>
