<?xml version="1.0" encoding="iso-8859-1"?>
<!-- Generator: Adobe Illustrator 19.0.0, SVG Export Plug-In . SVG Version: 6.00 Build 0)  -->
<svg version="1.1" id="Layer_1" xmlns="http://www.w3.org/2000/svg" xmlns:xlink="http://www.w3.org/1999/xlink" x="0px" y="0px"
	 viewBox="0 0 480 480" style="enable-background:new 0 0 480 480;" xml:space="preserve">
<g>
	<g>
		<g>
			<path d="M373.164,72.631h-14.213V20h2.099c5.523,0,10-4.477,10-10s-4.477-10-10-10h-12.099H155.262h-12.099
				c-5.523,0-10,4.477-10,10s4.477,10,10,10h2.099v52.631h-14.213c-5.522,0-10,4.477-10,10v96.844c0,5.523,4.478,10,10,10h14.213
				v135.263c0,5.523,4.477,10,10,10h14.213v28.418h-52.639V240c0-5.523-4.478-10-10-10c-5.522,0-10,4.477-10,10v133.156
				c0,5.523,4.478,10,10,10h62.639v14.213c0,5.523,4.478,10,10,10h14.213V470c0,5.523,4.477,10,10,10h96.837c5.522,0,10-4.477,10-10
				v-62.631h14.213c5.522,0,10-4.477,10-10v-62.631h14.213c5.522,0,10-4.477,10-10V189.475h14.213c5.522,0,10-4.477,10-10V82.631
				C383.164,77.108,378.686,72.631,373.164,72.631z M165.262,20h173.689v52.631H165.262V20z M314.738,92.631v76.844h-28.426V92.631
				H314.738z M266.312,92.631v76.844h-28.411V92.631H266.312z M217.901,92.631v76.844h-28.426V92.631H217.901z M141.049,169.475
				V92.631h28.426v76.844H141.049z M290.525,460h-76.837v-52.631h76.837V460z M300.525,387.369h-96.837h-14.213v-52.631h125.263
				v52.631H300.525z M338.951,314.738h-14.213H179.475h-14.213V189.475h173.689V314.738z M363.164,169.475h-28.426V92.631h28.426
				V169.475z"/>
			<path d="M203.688,286.319h96.837c5.522,0,10-4.477,10-10v-48.426c0-5.523-4.478-10-10-10h-96.837c-5.523,0-10,4.477-10,10v48.426
				C193.688,281.842,198.165,286.319,203.688,286.319z M213.688,237.894h76.837v28.426h-76.837V237.894z"/>
		</g>
	</g>
</g>
<g>
</g>
<g>
</g>
<g>
</g>
<g>
</g>
<g>
</g>
<g>
</g>
<g>
</g>
<g>
</g>
<g>
</g>
<g>
</g>
<g>
</g>
<g>
</g>
<g>
</g>
<g>
</g>
<g>
</g>
</svg>
