<?xml version='1.0' encoding='iso-8859-1'?>
<svg version="1.1" xmlns="http://www.w3.org/2000/svg" viewBox="0 0 234.503 234.503" xmlns:xlink="http://www.w3.org/1999/xlink" enable-background="new 0 0 234.503 234.503">
  <g>
    <polygon points="112.355,71.391 133.329,56.151 154.305,71.39 146.293,46.733 167.268,31.494 141.341,31.494 133.329,6.836    125.317,31.494 99.392,31.494 120.366,46.733  "/>
    <path d="m234.503,160.006l-50.662-50.663c8.196-13.449 12.322-25.959 5.877-32.405-1.462-1.462-4.144-3.204-8.615-3.204-15.541,0-43.811,21.313-64.932,42.435-19.504,19.503-52.803,59.975-39.229,73.548 1.462,1.462 4.143,3.205 8.614,3.205 0.001,0 0.001,0 0.002,0 6.291,0 14.67-3.495 23.815-9.054l50.635,50.635 74.495-74.497z"/>
    <path d="M0,21.213L21.213,0l60.104,60.104L60.105,81.317L0,21.213z"/>
    <path d="M92.63,71.417l20.97,20.97L92.386,113.6l-20.97-20.97L92.63,71.417z"/>
  </g>
</svg>
