<?xml version="1.0" encoding="iso-8859-1"?>
<!-- Generator: Adobe Illustrator 18.0.0, SVG Export Plug-In . SVG Version: 6.00 Build 0)  -->
<!DOCTYPE svg PUBLIC "-//W3C//DTD SVG 1.1//EN" "http://www.w3.org/Graphics/SVG/1.1/DTD/svg11.dtd">
<svg version="1.1" id="Capa_1" xmlns="http://www.w3.org/2000/svg" xmlns:xlink="http://www.w3.org/1999/xlink" x="0px" y="0px"
	 viewBox="0 0 297 297" style="enable-background:new 0 0 297 297;" xml:space="preserve">
<g>
	<rect x="118.816" y="38.141" width="59.13" height="100.406"/>
	<path d="M103.816,49.474c0-3.798-1.972-7.27-5.37-8.966c-1.416-0.707-2.918-1.055-4.407-1.055c-2.085,0-4.146,0.681-5.917,2.013
		L4.071,104.67C1.555,106.563,0,109.529,0,112.677v72.516c0,3.745,2.338,7.177,5.663,8.899c1.451,0.751,3.055,1.122,4.656,1.122
		c2.07,0,4.136-0.619,5.86-1.838l34.839-24.587l38.006,24.795c1.66,1.083,3.464,1.63,5.282,1.63c1.556,0,3.121-0.401,4.613-1.208
		c3.235-1.751,4.897-5.133,4.897-8.812V49.474z"/>
	<path d="M192.946,207.218c0,2.603,1.206,5.104,3.018,6.973l40.434,41.621c1.964,2.027,4.626,3.047,7.245,3.047
		c2.484,0,4.997-0.918,6.935-2.766l43.496-41.622c1.984-1.891,2.927-4.513,2.927-7.254v-94.54c0-3.149-1.287-6.114-3.803-8.007
		l-83.918-63.203c-1.77-1.331-3.94-2.013-6.116-2.013c-1.554,0-3.111,0.348-4.527,1.055c-3.398,1.696-5.69,5.167-5.69,8.966V207.218
		z"/>
</g>
<g>
</g>
<g>
</g>
<g>
</g>
<g>
</g>
<g>
</g>
<g>
</g>
<g>
</g>
<g>
</g>
<g>
</g>
<g>
</g>
<g>
</g>
<g>
</g>
<g>
</g>
<g>
</g>
<g>
</g>
</svg>
