<?xml version="1.0" encoding="iso-8859-1"?>
<!-- Generator: Adobe Illustrator 19.0.0, SVG Export Plug-In . SVG Version: 6.00 Build 0)  -->
<svg version="1.1" id="Layer_1" xmlns="http://www.w3.org/2000/svg" xmlns:xlink="http://www.w3.org/1999/xlink" x="0px" y="0px"
	 viewBox="0 0 472.615 472.615" style="enable-background:new 0 0 472.615 472.615;" xml:space="preserve">
<g>
	<g>
		<path d="M0,393.811v33.575l45.194,45.194h382.228l45.194-45.194v-33.575H0z M206.769,443.012h-19.692V423.32h19.692V443.012z
			 M246.154,443.012h-19.692V423.32h19.692V443.012z M285.538,443.012h-19.692V423.32h19.692V443.012z"/>
	</g>
</g>
<g>
	<g>
		<path d="M236.308,167.349c-21.76,0-39.385,17.624-39.385,39.385c0,21.662,17.625,39.385,39.385,39.385
			s39.385-17.723,39.385-39.385C275.692,184.973,258.068,167.349,236.308,167.349z"/>
	</g>
</g>
<g>
	<g>
		<path d="M96.423,57.887l13.922,13.923c69.452-69.462,182.472-69.462,251.924,0l13.922-13.923
			C299.057-19.248,173.558-19.248,96.423,57.887z"/>
	</g>
</g>
<g>
	<g>
		<path d="M236.308,59.012c-37.053,0-71.895,14.432-98.115,40.644l13.922,13.922c22.5-22.49,52.399-34.874,84.193-34.874
			S298,91.089,320.5,113.578l13.922-13.922C308.202,73.444,273.361,59.012,236.308,59.012z"/>
	</g>
</g>
<g>
	<g>
		<path d="M383.163,78.734L362.24,99.608l-41.748,41.846l-34.068,34.068c5.612,9.058,8.96,19.791,8.96,31.212
			c0,32.59-26.486,59.077-59.077,59.077s-59.077-26.487-59.077-59.077c0-11.422,3.348-22.154,8.96-31.212l-34.068-34.068
			l-41.748-41.846L89.452,78.734h-69.76v295.385h433.231V78.734H383.163z"/>
	</g>
</g>
<g>
	<g>
		<path d="M236.308,118.089c-21.279,0-41.289,8.288-56.347,23.336l13.923,13.922c11.337-11.327,26.403-17.567,42.423-17.567
			s31.086,6.24,42.423,17.576l13.923-13.923C277.6,126.377,257.591,118.089,236.308,118.089z"/>
	</g>
</g>
<g>
</g>
<g>
</g>
<g>
</g>
<g>
</g>
<g>
</g>
<g>
</g>
<g>
</g>
<g>
</g>
<g>
</g>
<g>
</g>
<g>
</g>
<g>
</g>
<g>
</g>
<g>
</g>
<g>
</g>
</svg>
