<?xml version="1.0" encoding="iso-8859-1"?>
<!-- Generator: Adobe Illustrator 19.0.0, SVG Export Plug-In . SVG Version: 6.00 Build 0)  -->
<svg version="1.1" id="Layer_1" xmlns="http://www.w3.org/2000/svg" xmlns:xlink="http://www.w3.org/1999/xlink" x="0px" y="0px"
	 viewBox="0 0 503.607 503.607" style="enable-background:new 0 0 503.607 503.607;" xml:space="preserve">
<g>
	<g>
		<g>
			<path d="M503.607,377.705L503.607,377.705l-0.001-92.328c0-13.91-11.27-25.18-25.18-25.18h-1.302L439.313,36.848
				c-2.696-11.924-12.89-20.061-24.643-20.061H88.937c-11.753,0-21.947,8.137-24.552,19.602L26.482,260.197H25.18
				c-13.91,0-25.18,11.27-25.18,25.18v109.115h0.001v41.967H0v25.18c0,13.91,11.27,25.18,25.18,25.18h56.773
				c9.531,0,18.253-5.387,22.521-13.91l9.828-19.664h275.001l9.825,19.651c4.266,8.532,12.988,13.923,22.523,13.923h56.773
				c13.91,0,25.18-11.27,25.18-25.18v-8.393h0.001V377.705z M80.845,39.65c0.778-3.363,4.177-6.076,8.091-6.076H414.67
				c3.915,0,7.314,2.713,8.182,6.535l37.247,220.088h-15.743c-5.051-42.746-48.28-75.541-100.225-75.541
				c-41.095,0-76.73,20.528-92.328,50.268c-15.597-29.74-51.233-50.268-92.328-50.268c-51.945,0-95.174,32.795-100.225,75.541
				H43.508L80.845,39.65z M427.409,260.197H260.853c5.166-32.815,40.205-58.754,83.278-58.754S422.243,227.382,427.409,260.197z
				 M242.753,260.197H76.198c5.166-32.815,40.205-58.754,83.278-58.754S237.587,227.382,242.753,260.197z M25.18,276.984h33.574
				H243.41h16.787h184.656h33.574c4.639,0,8.393,3.754,8.393,8.393v16.787h-33.574c-4.636,0-8.393,3.758-8.393,8.393
				s3.758,8.393,8.393,8.393h33.574v16.787h-33.574c-4.636,0-8.393,3.758-8.393,8.393c0,4.636,3.758,8.393,8.393,8.393h33.574v25.18
				H16.787v-25.18h25.18c4.636,0,8.393-3.758,8.393-8.393c0-4.636-3.758-8.393-8.393-8.393h-25.18v-16.787h25.18
				c4.636,0,8.393-3.758,8.393-8.393s-3.758-8.393-8.393-8.393h-25.18v-16.787C16.787,280.738,20.541,276.984,25.18,276.984z
				 M89.462,465.399c-1.42,2.836-4.331,4.634-7.508,4.634H25.18c-4.639,0-8.393-3.754-8.393-8.393v-8.393h78.749L89.462,465.399z
				 M122.694,436.459H16.788v-41.967H486.82v41.967h-105.91H122.694z M486.82,461.64c0,4.639-3.754,8.393-8.393,8.393h-56.773
				c-3.177,0-6.086-1.798-7.509-4.643l-6.072-12.143h78.747V461.64z"/>
			<path d="M205.033,131.218l41.382,34.69c3.119,2.615,7.666,2.615,10.785-0.001l41.354-34.673
				c9.392-7.922,16.077-18.2,18.952-29.552c1.376-5.421,1.678-9.964,1.303-13.492c-0.036-0.335-0.075-0.636-0.117-0.903
				c-2.132-20.793-18.288-36.927-39.06-36.927c-10.986,0-21.087,3.915-28.301,10.783c-6.905-6.911-16.472-10.783-27.356-10.783
				c-20.773,0-36.929,16.133-39.06,36.927c-0.042,0.267-0.081,0.568-0.117,0.903c-0.375,3.528-0.073,8.069,1.304,13.49
				C188.974,113.032,195.657,123.311,205.033,131.218z M201.49,89.965c0.006-0.055,0.103-0.761,0.103-0.761
				c1.207-12.674,10.54-22.057,22.381-22.057c9.229,0,16.161,4.317,19.574,11.855c2.977,6.576,12.316,6.576,15.293,0
				c3.268-7.218,11.203-11.855,20.791-11.855c11.841,0,21.174,9.382,22.381,22.057l0.137,0.91c0.134,1.428-0.035,3.974-0.916,7.443
				c-1.987,7.849-6.718,15.123-13.484,20.829l-35.943,30.136l-35.97-30.153c-6.747-5.691-11.477-12.964-13.463-20.815
				C201.492,94.083,201.323,91.541,201.49,89.965z"/>
		</g>
	</g>
</g>
<g>
</g>
<g>
</g>
<g>
</g>
<g>
</g>
<g>
</g>
<g>
</g>
<g>
</g>
<g>
</g>
<g>
</g>
<g>
</g>
<g>
</g>
<g>
</g>
<g>
</g>
<g>
</g>
<g>
</g>
</svg>
