<?xml version="1.0" encoding="iso-8859-1"?>
<!-- Generator: Adobe Illustrator 19.0.0, SVG Export Plug-In . SVG Version: 6.00 Build 0)  -->
<svg version="1.1" id="Layer_1" xmlns="http://www.w3.org/2000/svg" xmlns:xlink="http://www.w3.org/1999/xlink" x="0px" y="0px"
	 viewBox="0 0 511.996 511.996" style="enable-background:new 0 0 511.996 511.996;" xml:space="preserve">
<g>
	<g>
		<path d="M290.131,444.781V319.282c36.351-10.833,65.99-38.565,78.736-75.244c0.796-2.29,1.501-4.617,2.133-6.972
			c2.24-8.332,3.468-17.049,3.717-26.03c0.193-6.912-0.189-13.976-1.123-21.132l-0.111-0.624l-0.436-2.515
			c-0.01-0.057-0.028-0.111-0.04-0.168L341.203,7.044C340.481,2.969,336.939,0,332.8,0H179.2c-4.138,0-7.68,2.969-8.402,7.044
			l-25.141,141.887c-0.007,0.037-0.02,0.071-0.027,0.108l-7.168,40.482c-1.702,12.991-1.62,25.5,0.332,37.326
			c0.974,5.909,2.406,11.651,4.331,17.19c5.316,15.29,13.578,29.016,24.024,40.625c13.967,15.522,31.852,27.248,51.919,33.768
			c0.925,0.301,1.863,0.571,2.797,0.849v125.501c-56.122,3.411-93.867,14.184-93.867,33.081c0,22.22,55.598,34.133,128,34.133
			s128-11.914,128-34.133C383.998,458.966,346.254,448.193,290.131,444.781z M189.286,282.478
			c-13.466-11.558-23.979-26.619-30.034-44.043c-1.688-4.849-2.927-9.916-3.749-15.154c-1.545-9.861-1.588-20.337-0.174-31.166
			l6.194-34.947c31.289-8.614,66.092-1.267,88.663,19.728c27.624,25.845,69.926,34.197,107.244,22.963
			c0.644,9.617,0.101,18.902-1.694,27.651c-0.036,0.174-0.074,0.346-0.111,0.519c-0.143,0.675-0.293,1.347-0.451,2.016
			c-0.064,0.269-0.129,0.537-0.195,0.805c-0.141,0.572-0.288,1.142-0.44,1.709c-0.083,0.309-0.165,0.619-0.251,0.927
			c-0.147,0.525-0.302,1.047-0.458,1.568c-0.098,0.326-0.192,0.653-0.294,0.977c-0.164,0.522-0.338,1.04-0.512,1.557
			c-0.094,0.28-0.183,0.563-0.28,0.842c-11.551,33.241-39.289,57.927-72.905,65.962c-0.069,0.015-0.138,0.02-0.208,0.037
			c-1.791,0.424-3.593,0.795-5.402,1.122c-0.236,0.043-0.473,0.086-0.709,0.127c-0.797,0.138-1.595,0.268-2.395,0.387
			c-0.352,0.052-0.705,0.099-1.058,0.147c-1.146,0.159-2.295,0.297-3.447,0.417c-0.624,0.065-1.248,0.133-1.875,0.186
			c-0.558,0.048-1.117,0.084-1.676,0.123c-0.679,0.047-1.36,0.088-2.042,0.122c-0.509,0.025-1.019,0.05-1.529,0.067
			c-0.945,0.032-1.892,0.05-2.842,0.056c-0.219,0.001-0.438,0.01-0.658,0.01c-0.22,0-0.438-0.008-0.658-0.01
			c-0.95-0.006-1.898-0.024-2.842-0.056c-0.51-0.017-1.02-0.042-1.529-0.067c-0.682-0.033-1.363-0.075-2.042-0.122
			c-0.559-0.039-1.118-0.075-1.676-0.123c-0.627-0.053-1.251-0.122-1.875-0.186c-1.151-0.12-2.3-0.258-3.446-0.417
			c-0.353-0.049-0.707-0.095-1.06-0.148c-0.8-0.12-1.597-0.249-2.394-0.387c-0.237-0.041-0.474-0.085-0.71-0.128
			c-1.809-0.328-3.611-0.698-5.402-1.122c-0.07-0.017-0.139-0.022-0.209-0.037c-3.933-0.94-7.786-2.104-11.541-3.487
			C209.097,296.665,198.503,290.389,189.286,282.478z M186.354,17.067h139.292L355,182.731
			c-32.257,10.682-69.515,3.821-93.172-18.314c-25.178-23.42-62.357-32.537-97.063-25.54L186.354,17.067z M362.22,480.216
			c-5.245,2.658-13.302,5.213-23.534,7.405c-21.624,4.634-51.136,7.308-82.688,7.308c-31.552,0-61.064-2.675-82.688-7.308
			c-10.232-2.193-18.289-4.748-23.534-7.405c-1.929-0.977-3.355-1.909-4.244-2.701c1.772-1.1,8.556-4.548,19.976-7.548
			c16.372-4.301,39.396-7.361,65.29-8.575c4.552-0.214,8.133-3.967,8.133-8.524V323.036c0.224,0.032,0.45,0.054,0.675,0.085
			c1.065,0.147,2.132,0.286,3.206,0.405c0.461,0.051,0.924,0.092,1.386,0.138c0.985,0.097,1.97,0.194,2.961,0.267
			c0.576,0.043,1.155,0.069,1.732,0.103c0.899,0.053,1.797,0.113,2.701,0.146c0.719,0.027,1.44,0.029,2.161,0.043
			c0.75,0.014,1.496,0.045,2.248,0.045c0.769,0,1.532-0.031,2.299-0.046c0.701-0.014,1.403-0.016,2.102-0.042
			c0.922-0.034,1.838-0.094,2.756-0.149c0.557-0.034,1.115-0.058,1.672-0.1c1.011-0.074,2.016-0.173,3.021-0.272
			c0.439-0.044,0.878-0.082,1.316-0.131c1.096-0.121,2.187-0.263,3.275-0.414c0.207-0.029,0.416-0.049,0.624-0.079v129.832
			c0,4.557,3.581,8.31,8.133,8.524c25.894,1.215,48.918,4.275,65.29,8.575c11.42,3,18.204,6.447,19.976,7.548
			C365.575,478.306,364.149,479.238,362.22,480.216z"/>
	</g>
</g>
<g>
</g>
<g>
</g>
<g>
</g>
<g>
</g>
<g>
</g>
<g>
</g>
<g>
</g>
<g>
</g>
<g>
</g>
<g>
</g>
<g>
</g>
<g>
</g>
<g>
</g>
<g>
</g>
<g>
</g>
</svg>
