<?xml version="1.0" encoding="iso-8859-1"?>
<!-- Generator: Adobe Illustrator 16.0.0, SVG Export Plug-In . SVG Version: 6.00 Build 0)  -->
<!DOCTYPE svg PUBLIC "-//W3C//DTD SVG 1.1//EN" "http://www.w3.org/Graphics/SVG/1.1/DTD/svg11.dtd">
<svg version="1.1" id="Capa_1" xmlns="http://www.w3.org/2000/svg" xmlns:xlink="http://www.w3.org/1999/xlink" x="0px" y="0px"
	 width="49.473px" height="49.473px" viewBox="0 0 49.473 49.473" style="enable-background:new 0 0 49.473 49.473;"
	 xml:space="preserve">
<g>
	<path d="M49.042,24.062c-0.006-0.712-0.043-1.417-0.109-2.112c-0.225-2.317-0.779-4.538-1.611-6.62
		c-0.061-0.154-0.119-0.312-0.184-0.465c-1.105-2.613-2.66-4.991-4.559-7.045c-0.125-0.135-0.252-0.266-0.379-0.396
		c-0.359-0.373-0.728-0.737-1.111-1.086C36.767,2.402,31.028,0,24.736,0C18.39,0,12.609,2.445,8.275,6.44
		c-1.01,0.931-1.939,1.947-2.779,3.035C2.32,13.583,0.424,18.73,0.424,24.312c0,6.709,2.74,12.783,7.15,17.186v7.914l0.967-0.299
		c0.045-0.012,4.604-1.401,8.402-1.401c3.166,0,6.328,0.969,7.283,1.287l0.621,0.222l0.682-0.203
		c1.111-0.314,4.854-1.306,8.066-1.306c3.769,0,7.543,1.376,7.582,1.392l1.004,0.369v-8.287c1.666-1.723,3.099-3.674,4.201-5.826
		c0.86-1.683,1.533-3.477,1.985-5.354c0.113-0.476,0.214-0.956,0.3-1.442c0.245-1.381,0.381-2.799,0.381-4.25
		C49.049,24.228,49.043,24.146,49.042,24.062z M44.466,14.344l0.142-0.158c0.184,0.359,0.358,0.724,0.522,1.094l-0.229-0.009
		l-0.435,0.059V14.344z M40.954,10.102l0.004-1.086c0.381,0.405,0.75,0.821,1.102,1.254l-0.438,0.651l-1.531-0.014l-0.096-0.319
		L40.954,10.102z M11.625,7.404V7.363h0.486l0.043-0.168h0.797v0.348L12.722,7.85h-1.098L11.625,7.404L11.625,7.404z M12.404,8.488
		c0,0,0.486-0.082,0.529-0.082c0.041,0,0,0.486,0,0.486l-1.1,0.068l-0.209-0.25L12.404,8.488z M7.97,24.358l-0.396,0.235v13.925
		c-3.205-3.863-5.15-8.806-5.15-14.206c0-3.097,0.635-6.049,1.781-8.731v-0.696l0.797-0.969c0.277-0.523,0.574-1.032,0.891-1.529
		l0.035,0.404l-0.926,1.125c-0.287,0.543-0.555,1.097-0.797,1.665v1.271l0.926,0.446v1.765l0.891,1.517l0.723,0.111l0.092-0.52
		l-0.852-1.316l-0.166-1.279h0.5l0.211,1.316l1.234,1.799l-0.32,0.581l0.783,1.198l1.947,0.482v-0.315l0.779,0.11l-0.047,0.349
		C9.158,23.667,8.05,24.31,7.97,24.358z M24.011,47.215c-1.438-0.436-4.217-1.146-7.068-1.146c-2.961,0-6.256,0.768-7.852,1.191
		V25.591c1.002-0.506,3.811-1.745,7.234-1.745c3.447,0,6.574,1.266,7.686,1.77V47.215z M40.665,47.215
		c-1.438-0.436-4.217-1.146-7.068-1.146c-2.963,0-6.256,0.768-7.852,1.191V25.591c1.002-0.506,3.811-1.745,7.235-1.745
		c3.446,0,6.573,1.266,7.686,1.77V47.215z M46.015,18.139h-1.78l-1.084-0.808l-1.142,0.111v0.696h-0.36l-0.39-0.278l-1.978-0.5
		v-1.28l-2.502,0.195l-0.776,0.417h-0.994l-0.487-0.049l-1.207,0.67v1.262l-2.468,1.779l0.205,0.76h0.5l-0.131,0.724l-0.353,0.13
		l-0.004,0.359c-3.104,0.366-5.462,1.498-6.201,1.895c-0.934-0.449-4.475-2.021-8.539-2.021c-1.092,0-2.119,0.116-3.059,0.291
		l-0.572-0.098l0.521-0.983l-0.15-0.566l-1.707,1.142l-1.072-0.131l-0.385-0.839l0.234-0.865l0.594-1.091l1.361-0.69l2.633-0.001
		l-0.008,0.803l0.945,0.44l-0.074-1.371l0.682-0.687l1.375-0.903l0.094-0.637l1.373-1.428l1.459-0.807l-0.129-0.106l0.988-0.93
		l0.361,0.096l0.166,0.208l0.375-0.416l0.092-0.041l-0.41-0.057l-0.418-0.139v-0.404l0.223-0.18h0.486l0.223,0.098l0.193,0.389
		l0.236-0.035v-0.035l0.068,0.023l0.684-0.105l0.098-0.334l0.389,0.098v0.361l-0.361,0.25h0.003l0.053,0.396l1.238,0.383
		c0,0,0.002,0.006,0.004,0.015l0.283-0.024l0.02-0.537l-0.982-0.447l-0.055-0.258l0.814-0.277l0.037-0.78l-0.852-0.519l-0.057-1.316
		l-1.168,0.574h-0.425l0.111-1.001l-1.59-0.376l-0.658,0.497v1.517l-1.184,0.374l-0.473,0.987l-0.514,0.084v-1.265l-1.113-0.153
		l-0.555-0.363l-0.225-0.818l1.99-1.164l0.973-0.297l0.098,0.654l0.543-0.029L20.19,8.05l0.568-0.082l0.01-0.114l-0.244-0.101
		l-0.057-0.348l0.697-0.059l0.422-0.438l0.023-0.032l0.004,0.002l0.129-0.132l1.465-0.186l0.648,0.551l-1.699,0.904l2.162,0.51
		l0.279-0.723h0.945l0.334-0.631l-0.668-0.166V6.208L23.114,5.28l-1.447,0.166l-0.816,0.428l0.057,1.037l-0.854-0.129l-0.131-0.574
		l0.816-0.742l-1.482-0.074l-0.426,0.129l-0.186,0.501L19.2,6.116l-0.111,0.556l-0.945,0.056l-0.148,0.37l-1.371,0.037
		c0,0-0.037-0.777-0.092-0.777c-0.057,0,1.074-0.02,1.074-0.02l0.816-0.797l-0.445-0.223l-0.594,0.575l-0.982-0.056l-0.594-0.816
		h-1.26l-1.316,0.982h1.205l0.111,0.354l-0.316,0.296l1.336,0.037l0.203,0.481L14.27,7.116l-0.074-0.371L13.25,6.541l-0.5-0.278
		l-1.125,0.01C15.311,3.59,19.84,2,24.736,2c5.641,0,10.797,2.109,14.73,5.574L39.2,8.049l-1.028,0.402l-0.435,0.472l0.101,0.549
		l0.53,0.073l0.32,0.801l0.916-0.369l0.152,1.07h-0.277l-0.754-0.111l-0.832,0.14l-0.807,1.14l-1.154,0.182l-0.168,0.987
		l0.488,0.115l-0.141,0.635l-1.146-0.229l-1.051,0.229l-0.223,0.585l0.182,1.228l0.617,0.288l1.035-0.006l0.696-0.063l0.216-0.556
		l1.092-1.42l0.719,0.146l0.707-0.639l0.133,0.5l1.742,1.176l-0.213,0.285l-0.785-0.042l0.303,0.429l0.482,0.105l0.565-0.236
		l-0.01-0.682l0.25-0.125l-0.201-0.215l-1.161-0.648l-0.306-0.86h0.965l0.31,0.306l0.832,0.717l0.035,0.867l0.86,0.918l0.321-1.258
		l0.597-0.326l0.112,1.029l0.582,0.64l1.164-0.02c0.226,0.579,0.427,1.168,0.604,1.769L46.015,18.139z M13.683,11.047l0.584-0.278
		l0.529,0.126l-0.182,0.709l-0.57,0.182L13.683,11.047z M16.783,12.716v0.459h-1.334l-0.5-0.14l0.125-0.319l0.641-0.266h0.875v0.266
		H16.783z M17.396,13.356V13.8l-0.334,0.215l-0.416,0.078c0,0,0-0.668,0-0.737H17.396z M17.02,13.175v-0.529l0.461,0.418
		L17.02,13.175z M17.229,14.244v0.434l-0.318,0.319h-0.709l0.109-0.486l0.336-0.028l0.068-0.167L17.229,14.244z M15.463,13.356
		h0.738l-0.945,1.321l-0.391-0.21l0.084-0.556L15.463,13.356z M18.48,14.093v0.432h-0.709l-0.193-0.281v-0.401h0.055L18.48,14.093z
		 M17.828,13.499l0.201-0.212l0.342,0.212l-0.273,0.226L17.828,13.499z M46.377,19.265l0.07-0.082
		c0.029,0.127,0.059,0.253,0.088,0.381L46.377,19.265z"/>
</g>
<g>
</g>
<g>
</g>
<g>
</g>
<g>
</g>
<g>
</g>
<g>
</g>
<g>
</g>
<g>
</g>
<g>
</g>
<g>
</g>
<g>
</g>
<g>
</g>
<g>
</g>
<g>
</g>
<g>
</g>
</svg>
