<?xml version="1.0" encoding="iso-8859-1"?>
<!-- Generator: Adobe Illustrator 19.0.0, SVG Export Plug-In . SVG Version: 6.00 Build 0)  -->
<svg version="1.1" id="Layer_1" xmlns="http://www.w3.org/2000/svg" xmlns:xlink="http://www.w3.org/1999/xlink" x="0px" y="0px"
	 viewBox="0 0 512 512" style="enable-background:new 0 0 512 512;" xml:space="preserve">
<path style="fill:#CAEEC5;" d="M443.184,184.033v68.432c0,112.914-94.055,205.299-209.005,205.299l0,0
	c-114.951,0-209.003-92.385-209.003-205.299v-68.432L443.184,184.033L443.184,184.033z"/>
<path style="fill:#DDC98B;" d="M443.184,249.436v3.028c0,112.913-94.055,205.299-209.005,205.299S25.175,365.378,25.175,252.464
	v-3.028H443.184z"/>
<path style="fill:#BC9A5E;" d="M433.169,315.077c-27.115,82.539-106.245,142.686-198.991,142.686S62.305,397.616,35.19,315.077
	H433.169z"/>
<path style="fill:#FF4328;" d="M408.394,58.603l10.104-13.64l18.078-24.389c9.487-12.808,27.919-15.659,40.958-6.335l0,0
	c13.038,9.324,15.94,27.428,6.45,40.234l-18.072,24.39l-10.11,13.64l-18.072,24.389c-9.496,12.808-27.922,15.659-40.961,6.338l0,0
	c-13.044-9.323-15.94-27.429-6.453-40.237L408.394,58.603L408.394,58.603z"/>
<path style="fill:#C13421;" d="M396.678,123.16c-12.965-9.343-15.826-27.391-6.362-40.168l18.078-24.389l10.104-13.64l18.078-24.389
	C445.372,8.7,461.853,5.391,474.6,12.401L396.678,123.16z"/>
<path style="fill:#9E9E9E;" d="M286.736,207.429l62.271,44.524l-30.552,98.579c-11.674,37.664-69.4,38.911-101.8,15.747
	l-0.003-0.004c-32.398-23.164-48.92-77.511-16.032-99.991L286.736,207.429L286.736,207.429z"/>
<path d="M454.689,503.248c0,4.833-3.936,8.752-8.794,8.752H22.465c-4.856,0-8.794-3.919-8.794-8.752s3.936-8.752,8.794-8.752
	h423.429C450.751,494.496,454.689,498.415,454.689,503.248z M491.017,59.683l-46.254,62.419c-7.134,9.621-18.648,15.364-30.8,15.364
	c-5.279,0-10.396-1.074-15.135-3.109l-29.811,40.924h74.167c4.833,0,8.752,3.918,8.752,8.752v68.431
	c0,56.977-22.735,110.687-64.016,151.236c-41.238,40.507-95.839,62.815-153.742,62.815S121.675,444.207,80.437,403.7
	c-41.279-40.549-64.014-94.258-64.014-151.236v-68.431c0-4.834,3.919-8.752,8.752-8.752h322.118l37.416-51.365
	c-4.333-5.151-7.199-11.39-8.273-18.208c-1.567-9.934,0.865-19.852,6.846-27.926l46.262-62.42C436.67,5.744,448.184,0,460.339,0
	c8.066,0,15.772,2.462,22.285,7.119c8.255,5.903,13.668,14.658,15.242,24.648C499.43,41.698,496.996,51.612,491.017,59.683z
	 M356.266,192.786l-25.672,35.243l23.504,16.805c3.069,2.194,4.386,6.108,3.269,9.711l-30.552,98.579
	c-7.238,23.353-29.704,37.295-60.094,37.295c-19.925,0-40.029-6.203-55.157-17.019c-0.051-0.036-0.102-0.073-0.152-0.111
	c-22.345-16.056-37.745-45.413-37.47-71.458c0.191-18.131,7.911-33.32,21.738-42.772l86.117-58.855
	c3.032-2.073,7.039-2.032,10.029,0.106l24.484,17.505l18.233-25.03H33.927v59.679c0,108.377,89.832,196.547,200.25,196.547
	c110.421,0,200.254-88.17,200.254-196.547v-59.679L356.266,192.786L356.266,192.786z M286.622,218.108l-81.064,55.402
	c-11.498,7.859-14.021,19.839-14.113,28.506c-0.214,20.405,12.526,44.436,30.297,57.141c0.045,0.033,0.09,0.066,0.133,0.098
	c12.037,8.555,28.787,13.659,44.845,13.659c8.359,0,36.192-1.801,43.373-24.973l28.681-92.543L286.622,218.108z M480.574,34.49
	c-0.838-5.317-3.725-9.982-8.132-13.133c-3.525-2.521-7.71-3.853-12.103-3.853c-6.635,0-12.89,3.095-16.73,8.28l-46.262,62.42
	c-3.163,4.27-4.448,9.52-3.62,14.779c0.838,5.316,3.725,9.977,8.131,13.126c3.527,2.522,7.712,3.853,12.103,3.853
	c6.634,0,12.892-3.096,16.737-8.283l46.253-62.417C480.116,44.993,481.402,39.747,480.574,34.49z M281.397,269.214l-16.862,54.415
	c-1.154,3.724,0.313,7.629,3.355,9.75c0.732,0.51,1.556,0.917,2.455,1.194c4.641,1.424,9.564-1.165,10.995-5.784l16.862-54.415
	c1.431-4.62-1.172-9.52-5.811-10.942C287.751,262.005,282.828,264.595,281.397,269.214z M237.188,288.9
	c-4.642-1.424-9.564,1.165-10.995,5.784l-3.795,12.25c-1.154,3.723,0.313,7.629,3.356,9.749c0.732,0.51,1.556,0.917,2.455,1.194
	c4.641,1.424,9.564-1.165,10.994-5.784l3.795-12.25C244.431,295.224,241.827,290.324,237.188,288.9z"/>
<g>
</g>
<g>
</g>
<g>
</g>
<g>
</g>
<g>
</g>
<g>
</g>
<g>
</g>
<g>
</g>
<g>
</g>
<g>
</g>
<g>
</g>
<g>
</g>
<g>
</g>
<g>
</g>
<g>
</g>
</svg>
