<?xml version="1.0" encoding="iso-8859-1"?>
<!-- Generator: Adobe Illustrator 18.0.0, SVG Export Plug-In . SVG Version: 6.00 Build 0)  -->
<!DOCTYPE svg PUBLIC "-//W3C//DTD SVG 1.1//EN" "http://www.w3.org/Graphics/SVG/1.1/DTD/svg11.dtd">
<svg version="1.1" id="Capa_1" xmlns="http://www.w3.org/2000/svg" xmlns:xlink="http://www.w3.org/1999/xlink" x="0px" y="0px"
	 viewBox="0 0 297 297" style="enable-background:new 0 0 297 297;" xml:space="preserve">
<g>
	<rect x="138.787" y="67.988" width="70.033" height="154.379"/>
	<path d="M236.978,67.988h-13.844v154.379h13.844c8.023,0,14.526-6.504,14.526-14.526V82.514
		C251.504,74.492,245.001,67.988,236.978,67.988z"/>
	<path d="M158.724,39.106c0-0.986,0.803-1.789,1.789-1.789h26.582c0.986,0,1.789,0.803,1.789,1.789v14.569h20.448V39.106
		c0-12.262-9.975-22.237-22.237-22.237h-26.582c-12.262,0-22.237,9.975-22.237,22.237v14.569h20.448V39.106z"/>
	<path d="M124.474,67.988H110.63c-8.023,0-14.526,6.504-14.526,14.526V207.84c0,8.023,6.504,14.526,14.526,14.526h13.844V67.988z"/>
	<path d="M283.454,236.169H100.363c-14.328,0-25.985-11.656-25.985-25.985V46.432C74.378,20.829,53.548,0,27.945,0H13.546
		C7.9,0,3.323,4.578,3.323,10.224S7.9,20.448,13.546,20.448h14.398c14.328,0,25.986,11.656,25.986,25.985v163.752
		c0,25.603,20.829,46.432,46.432,46.432h183.091c5.646,0,10.224-4.578,10.224-10.224S289.1,236.169,283.454,236.169z"/>
	<circle cx="97.892" cy="280.131" r="16.869"/>
	<circle cx="249.715" cy="280.131" r="16.869"/>
</g>
<g>
</g>
<g>
</g>
<g>
</g>
<g>
</g>
<g>
</g>
<g>
</g>
<g>
</g>
<g>
</g>
<g>
</g>
<g>
</g>
<g>
</g>
<g>
</g>
<g>
</g>
<g>
</g>
<g>
</g>
</svg>
