<?xml version="1.0" encoding="iso-8859-1"?>
<!-- Generator: Adobe Illustrator 19.0.0, SVG Export Plug-In . SVG Version: 6.00 Build 0)  -->
<svg xmlns="http://www.w3.org/2000/svg" xmlns:xlink="http://www.w3.org/1999/xlink" version="1.1" id="Layer_1" x="0px" y="0px" viewBox="0 0 264.879 264.879" style="enable-background:new 0 0 264.879 264.879;" xml:space="preserve" width="512" height="512">
<g>
	<path style="fill:#FD651B;" d="M15,264.879c-3.839,0-7.678-1.464-10.607-4.394c-5.857-5.858-5.857-15.355,0-21.213l12.498-12.497   c5.858-5.857,15.356-5.857,21.213,0s5.857,15.355,0,21.213l-12.498,12.497C22.678,263.414,18.838,264.879,15,264.879z"/>
	<path style="fill:#D35C23;" d="M4.393,260.485c-5.857-5.858-5.857-15.355,0-21.213l12.498-12.497   c5.858-5.857,15.356-5.857,21.213,0L4.393,260.485z"/>
	<path style="fill:#6C4361;" d="M239.79,60.268c-3.978,0-7.793-1.58-10.606-4.394l-20.178-20.178   c-5.858-5.857-5.858-15.355,0-21.213l10.089-10.089C221.907,1.581,225.722,0,229.701,0c3.978,0,7.793,1.58,10.606,4.394   l20.178,20.178c5.858,5.857,5.858,15.355,0,21.213l-10.089,10.089C247.584,58.687,243.769,60.268,239.79,60.268z"/>
	<path style="fill:#58364E;" d="M219.094,45.785l-10.089-10.089c-5.858-5.857-5.858-15.355,0-21.213l10.089-10.089   C221.907,1.581,225.722,0,229.701,0c3.978,0,7.793,1.58,10.606,4.394l10.09,10.09L219.094,45.785z"/>
	<path style="fill:#FD651B;" d="M74.424,257.205c-3.839,0-7.678-1.464-10.606-4.394l-51.75-51.75   c-2.813-2.813-4.394-6.628-4.394-10.606c0-3.978,1.581-7.793,4.394-10.606L181.584,10.333c5.857-5.858,15.355-5.858,21.213,0   l51.75,51.75c5.858,5.858,5.858,15.355,0,21.213L85.031,252.811C82.102,255.74,78.263,257.205,74.424,257.205z"/>
	<path style="fill:#D35C23;" d="M37.943,226.937l-25.875-25.875c-2.813-2.813-4.394-6.628-4.394-10.606   c0-3.978,1.581-7.793,4.394-10.606L181.584,10.333c5.857-5.858,15.355-5.858,21.213,0l25.875,25.875L37.943,226.937z"/>
	<path style="fill:#6C4361;" d="M42.294,263.878c-3.839,0-7.678-1.464-10.606-4.394l-27.001-27c-5.858-5.858-5.858-15.355,0-21.213   l0.892-0.893l2.172-21.437c0.584-5.763,4.434-10.674,9.89-12.618c5.457-1.943,11.545-0.572,15.64,3.524l51.75,51.75   c4.15,4.149,5.499,10.338,3.452,15.838s-7.114,9.301-12.967,9.729l-21.892,1.597l-0.723,0.723   C49.972,262.414,46.133,263.878,42.294,263.878z"/>
	<path style="fill:#58364E;" d="M18.541,246.338L4.687,232.485c-5.858-5.858-5.858-15.355,0-21.213l0.892-0.893l2.172-21.437   c0.584-5.763,4.434-10.674,9.89-12.618c5.457-1.943,11.545-0.572,15.64,3.524l25.875,25.875L18.541,246.338z"/>
</g>















</svg>
