<?xml version="1.0" encoding="iso-8859-1"?>
<!-- Generator: Adobe Illustrator 19.0.0, SVG Export Plug-In . SVG Version: 6.00 Build 0)  -->
<svg version="1.1" id="Capa_1" xmlns="http://www.w3.org/2000/svg" xmlns:xlink="http://www.w3.org/1999/xlink" x="0px" y="0px"
	 viewBox="0 0 490 490" style="enable-background:new 0 0 490 490;" xml:space="preserve">
<g>
	<path d="M245,80.429c-43.83,0-79.488,34.359-79.488,76.575s35.658,76.56,79.488,76.56s79.488-34.344,79.488-76.56
		S288.83,80.429,245,80.429z M245,187.673c-18.524,0-33.597-13.758-33.597-30.669c0-16.925,15.073-30.684,33.597-30.684
		s33.597,13.758,33.597,30.684C278.597,173.915,263.524,187.673,245,187.673z"/>
	<path d="M245,0C157.49,0,85.74,71.317,80.945,160.859l-0.254,22.946c0,86.225,131.056,262.157,146.01,281.936L245.015,490
		l18.315-24.275c14.939-19.823,145.98-196.143,145.98-281.921l-0.149-6.05c0.105-2.435,0.149-4.885,0.149-7.35
		C409.309,76.441,335.602,0,245,0z M362.925,181.862l-0.986,16.149c-10.651,56.303-76.127,157.527-116.954,214.996
		c-40.08-56.303-103.883-154.734-116.282-211.769l-1.628-19.375c-0.329-3.765-0.493-7.604-0.493-11.458
		c0-68.658,53.122-124.513,118.418-124.513s118.418,55.855,118.418,124.513C363.418,174.258,363.254,178.098,362.925,181.862z"/>
</g>
<g>
</g>
<g>
</g>
<g>
</g>
<g>
</g>
<g>
</g>
<g>
</g>
<g>
</g>
<g>
</g>
<g>
</g>
<g>
</g>
<g>
</g>
<g>
</g>
<g>
</g>
<g>
</g>
<g>
</g>
</svg>
