<?xml version="1.0" encoding="iso-8859-1"?>
<!-- Generator: Adobe Illustrator 19.0.0, SVG Export Plug-In . SVG Version: 6.00 Build 0)  -->
<svg version="1.1" id="Layer_1" xmlns="http://www.w3.org/2000/svg" xmlns:xlink="http://www.w3.org/1999/xlink" x="0px" y="0px"
	 viewBox="0 0 512.001 512.001" style="enable-background:new 0 0 512.001 512.001;" xml:space="preserve">
<path style="fill:#FEE187;" d="M407.113,384.068c2.286,2.782,4.281,5.877,5.903,9.272c10.784,22.587,1.218,49.638-21.369,60.424
	c-22.587,10.784-49.638,1.218-60.424-21.369c-1.621-3.396-2.774-6.893-3.5-10.419L407.113,384.068z"/>
<g>
	<path style="fill:#FFC61B;" d="M372.15,472.242c-22.76,0-43.799-13.266-53.602-33.794c-2.07-4.331-3.612-8.922-4.583-13.638
		c-1.302-6.324,1.876-12.724,7.703-15.506l79.392-37.908c5.827-2.782,12.801-1.233,16.902,3.757c3.057,3.72,5.657,7.804,7.726,12.14
		c6.832,14.308,7.683,30.421,2.396,45.37c-5.288,14.95-16.079,26.945-30.387,33.777C389.632,470.29,381.037,472.242,372.15,472.242z
		 M345.39,429.103c5.627,9.235,15.816,15.051,26.761,15.051c4.665,0,9.188-1.031,13.444-3.063
		c7.539-3.599,13.225-9.919,16.01-17.795c2.434-6.883,2.399-14.234-0.052-21.01L345.39,429.103z"/>
	<path style="fill:#FFC61B;" d="M236.891,479.4c-5.243,0-10.273-2.949-12.683-7.995c-3.342-7-0.378-15.384,6.622-18.725
		l261.072-124.659c6.998-3.342,15.382-0.378,18.725,6.622s0.378,15.384-6.622,18.725L242.933,478.025
		C240.981,478.958,238.919,479.4,236.891,479.4z"/>
	<path style="fill:#FFC61B;" d="M254.21,469.412c-2.071,0-4.14-0.458-6.052-1.371L28.904,363.351
		c-3.628-1.732-6.339-4.936-7.448-8.801c-1.109-3.863-0.508-8.018,1.65-11.411l116.234-182.711c0.045-0.07,0.091-0.142,0.138-0.212
		c20.485-30.957,54.889-49.439,92.032-49.439c16.527,0,32.499,3.625,47.473,10.775c24.007,11.463,43.06,31.216,53.652,55.618
		c10.592,24.404,12.005,51.812,3.981,77.177c-0.025,0.08-0.052,0.16-0.079,0.24l-69.015,205.256c-1.281,3.81-4.135,6.89-7.837,8.456
		C257.934,469.043,256.071,469.412,254.21,469.412z M55.317,344.836l190.636,91.026l63.92-190.102
		c12.223-38.832-6.245-81.315-42.993-98.861c-11.164-5.331-23.064-8.033-35.37-8.033c-27.65,0-53.263,13.736-68.542,36.752
		L55.317,344.836z"/>
	<path style="fill:#FFC61B;" d="M257.8,469.416c-5.243,0-10.273-2.949-12.683-7.995c-3.342-7-0.378-15.384,6.622-18.725
		l204.945-97.858l-59.99-94.3c-4.163-6.544-2.233-15.225,4.312-19.388c6.546-4.161,15.224-2.233,19.388,4.312l68.501,107.678
		c2.159,3.393,2.758,7.547,1.65,11.411c-1.109,3.865-3.82,7.068-7.448,8.801L263.84,468.043
		C261.888,468.974,259.828,469.416,257.8,469.416z"/>
</g>
<path style="fill:#FEE187;" d="M104.888,384.068c-2.286,2.782-4.281,5.877-5.903,9.272c-10.784,22.587-1.218,49.638,21.369,60.424
	s49.638,1.218,60.424-21.369c1.621-3.396,2.774-6.893,3.5-10.419L104.888,384.068z"/>
<g>
	<path style="fill:#FFC61B;" d="M139.853,472.242c-0.001,0-0.003,0-0.004,0c-8.887,0-17.482-1.954-25.546-5.804
		c-14.308-6.832-25.101-18.827-30.387-33.777s-4.436-31.063,2.397-45.372c2.069-4.333,4.668-8.418,7.724-12.138
		c4.101-4.988,11.076-6.54,16.902-3.757l79.392,37.908c5.827,2.782,9.006,9.181,7.703,15.506c-0.97,4.717-2.514,9.307-4.584,13.641
		C183.648,458.977,162.61,472.242,139.853,472.242z M110.448,402.286c-2.451,6.776-2.486,14.127-0.052,21.01
		c2.785,7.876,8.471,14.196,16.01,17.795c4.255,2.032,8.779,3.063,13.444,3.063c10.944,0,21.133-5.817,26.759-15.051
		L110.448,402.286z"/>
	<path style="fill:#FFC61B;" d="M275.109,479.4c-2.029,0-4.09-0.441-6.042-1.375L7.996,353.367
		c-6.998-3.341-9.964-11.725-6.622-18.725c3.341-7,11.725-9.964,18.725-6.622l261.072,124.659
		c6.998,3.341,9.964,11.725,6.622,18.725C285.383,476.45,280.352,479.4,275.109,479.4z"/>
	<path style="fill:#FFC61B;" d="M275.109,394.273c-2.029,0-4.09-0.441-6.042-1.375l-198.625-94.84
		c-6.998-3.341-9.964-11.725-6.622-18.725c3.341-7,11.724-9.964,18.725-6.622l198.625,94.84c6.998,3.341,9.964,11.725,6.622,18.725
		C285.383,391.323,280.352,394.273,275.109,394.273z"/>
</g>
<path style="fill:#FEE187;" d="M255.998,157.185l-89.233,26.773c-44.984,13.498-90.261-20.188-90.261-67.154l0,0
	c0-46.966,45.275-80.652,90.261-67.154l89.233,26.773V157.185z"/>
<path style="fill:#FFC61B;" d="M146.492,201.005c-46.335,0-84.031-37.773-84.031-84.202s37.695-84.202,84.031-84.202
	c8.178,0,16.357,1.209,24.31,3.597l89.234,26.773c5.939,1.782,10.008,7.25,10.008,13.451v80.763c0,6.202-4.067,11.669-10.008,13.451
	l-89.233,26.772C162.849,199.796,154.67,201.005,146.492,201.005z M146.492,60.689c-30.846,0-55.943,25.172-55.943,56.114
	s25.097,56.114,55.943,56.114c5.442,0,10.907-0.812,16.239-2.411l79.225-23.769V86.871L162.729,63.1
	C157.398,61.501,151.934,60.689,146.492,60.689z"/>
<path style="fill:#FEE187;" d="M256.003,76.422l89.233-26.773c44.984-13.498,90.261,20.188,90.261,67.154l0,0
	c0,46.966-45.275,80.652-90.261,67.154l-89.233-26.773V76.422L256.003,76.422z"/>
<path style="fill:#FFC61B;" d="M365.509,201.005c-8.178,0-16.357-1.209-24.31-3.597l-89.233-26.772
	c-5.941-1.782-10.008-7.25-10.008-13.451V76.422c0-6.202,4.067-11.669,10.008-13.451l89.233-26.773
	c7.953-2.386,16.132-3.597,24.31-3.597c46.335,0,84.031,37.773,84.031,84.202S411.844,201.005,365.509,201.005z M270.046,146.736
	l79.225,23.769c5.332,1.6,10.796,2.411,16.239,2.411c30.846,0,55.943-25.172,55.943-56.114s-25.097-56.114-55.943-56.114
	c-5.442,0-10.907,0.812-16.239,2.411l-79.225,23.771L270.046,146.736L270.046,146.736z"/>
<circle style="fill:#FEE187;" cx="256.008" cy="116.804" r="58.559"/>
<path style="fill:#FFC61B;" d="M256.003,189.407c-40.034,0-72.603-32.569-72.603-72.603s32.569-72.603,72.603-72.603
	s72.603,32.569,72.603,72.603S296.036,189.407,256.003,189.407z M256.003,72.288c-24.546,0-44.515,19.969-44.515,44.515
	s19.969,44.515,44.515,44.515s44.515-19.969,44.515-44.515S280.549,72.288,256.003,72.288z"/>
<g>
</g>
<g>
</g>
<g>
</g>
<g>
</g>
<g>
</g>
<g>
</g>
<g>
</g>
<g>
</g>
<g>
</g>
<g>
</g>
<g>
</g>
<g>
</g>
<g>
</g>
<g>
</g>
<g>
</g>
</svg>
