<?xml version="1.0" encoding="iso-8859-1"?>
<!-- Generator: Adobe Illustrator 17.1.0, SVG Export Plug-In . SVG Version: 6.00 Build 0)  -->
<!DOCTYPE svg PUBLIC "-//W3C//DTD SVG 1.1//EN" "http://www.w3.org/Graphics/SVG/1.1/DTD/svg11.dtd">
<svg version="1.1" id="Capa_1" xmlns="http://www.w3.org/2000/svg" xmlns:xlink="http://www.w3.org/1999/xlink" x="0px" y="0px"
	 viewBox="0 0 370.847 370.847" style="enable-background:new 0 0 370.847 370.847;" xml:space="preserve">
<path d="M249.271,0H121.575c-11.028,0-20,8.972-20,20v98.04c0,11.028,8.972,20,20,20h42.792v211.75
	c0,11.61,9.446,21.056,21.056,21.056s21.056-9.446,21.056-21.056v-16.714h35.429c8.271,0,15-6.213,15-13.85
	s-6.67-13.85-14.868-13.85c-2.684,0-4.868-2.243-4.868-5v-6.814c0-2.757,2.184-5,4.868-5c8.198,0,14.868-6.213,14.868-13.85
	s-6.729-13.85-15-13.85h-35.429V138.04h42.792c11.028,0,20-8.972,20-20V20C269.271,8.972,260.299,0,249.271,0z M243.316,68.672
	c0,4.95-4.05,9-9,9H136.53c-4.95,0-9-4.05-9-9V41.921c0-4.95,4.05-9,9-9h97.786c4.95,0,9,4.05,9,9V68.672z"/>
<g>
</g>
<g>
</g>
<g>
</g>
<g>
</g>
<g>
</g>
<g>
</g>
<g>
</g>
<g>
</g>
<g>
</g>
<g>
</g>
<g>
</g>
<g>
</g>
<g>
</g>
<g>
</g>
<g>
</g>
</svg>
