<?xml version="1.0" encoding="iso-8859-1"?>
<!-- Generator: Adobe Illustrator 19.0.0, SVG Export Plug-In . SVG Version: 6.00 Build 0)  -->
<svg version="1.1" id="Layer_1" xmlns="http://www.w3.org/2000/svg" xmlns:xlink="http://www.w3.org/1999/xlink" x="0px" y="0px"
	 viewBox="0 0 512 512" style="enable-background:new 0 0 512 512;" xml:space="preserve">
<g transform="translate(1 1)">
	<g>
		<g>
			<path d="M493.933,58.733h-25.6c-5.12,0-8.533,3.413-8.533,8.533v1.138l-36.019,6.003c-3.754-9.346-12.759-15.674-23.714-15.674
				H58.733c-11.491,0-20.833,6.963-24.224,17.067H16.067C6.68,75.8-1,83.48-1,92.867v119.467c0,9.387,7.68,17.067,17.067,17.067
				h17.067v196.267c0,14.507,11.093,25.6,25.6,25.6h341.333c14.507,0,25.6-11.093,25.6-25.6v-245.76l34.133,5.689v1.138
				c0,5.12,3.413,8.533,8.533,8.533h25.6c9.387,0,17.067-7.68,17.067-17.067V75.8C511,66.413,503.32,58.733,493.933,58.733z
				 M16.067,212.333V92.867h17.067v119.467H16.067z M408.6,425.667c0,5.12-3.413,8.533-8.533,8.533H58.733
				c-5.12,0-8.533-3.413-8.533-8.533v-204.8V84.333c0-5.12,3.413-8.533,8.533-8.533h341.333c5.12,0,8.533,3.413,8.533,8.533v85.333
				V425.667z M425.667,162.84V92.013L459.8,86.04v82.773L425.667,162.84z M493.933,178.2h-17.067V75.8h17.067V178.2z"/>
			<path d="M374.467,127h-256H84.333c-5.12,0-8.533,3.413-8.533,8.533V306.2c0,5.12,3.413,8.533,8.533,8.533h34.133h256
				c5.12,0,8.533-3.413,8.533-8.533V135.533C383,130.413,379.587,127,374.467,127z M92.867,144.067h17.067v153.6H92.867V144.067z
				 M365.933,297.667H127v-153.6h238.933V297.667z"/>
			<path d="M101.4,109.933h51.2c5.12,0,8.533-3.413,8.533-8.533c0-5.12-3.413-8.533-8.533-8.533h-51.2
				c-5.12,0-8.533,3.413-8.533,8.533C92.867,106.52,96.28,109.933,101.4,109.933z"/>
			<path d="M203.8,109.933H255c5.12,0,8.533-3.413,8.533-8.533c0-5.12-3.413-8.533-8.533-8.533h-51.2
				c-5.12,0-8.533,3.413-8.533,8.533C195.267,106.52,198.68,109.933,203.8,109.933z"/>
			<path d="M306.2,109.933h51.2c5.12,0,8.533-3.413,8.533-8.533c0-5.12-3.413-8.533-8.533-8.533h-51.2
				c-5.12,0-8.533,3.413-8.533,8.533C297.667,106.52,301.08,109.933,306.2,109.933z"/>
			<path d="M135.533,348.867h-17.067c-9.387,0-17.067,7.68-17.067,17.067V383c0,9.387,7.68,17.067,17.067,17.067h17.067
				c9.387,0,17.067-7.68,17.067-17.067v-17.067C152.6,356.547,144.92,348.867,135.533,348.867z M135.533,383h-17.067v-17.067h17.067
				V383z"/>
			<path d="M237.933,348.867h-17.067c-9.387,0-17.067,7.68-17.067,17.067V383c0,9.387,7.68,17.067,17.067,17.067h17.067
				c9.387,0,17.067-7.68,17.067-17.067v-17.067C255,356.547,247.32,348.867,237.933,348.867z M237.933,383h-17.067v-17.067h17.067
				V383z"/>
			<path d="M340.333,348.867h-17.067c-9.387,0-17.067,7.68-17.067,17.067V383c0,9.387,7.68,17.067,17.067,17.067h17.067
				c9.387,0,17.067-7.68,17.067-17.067v-17.067C357.4,356.547,349.72,348.867,340.333,348.867z M340.333,383h-17.067v-17.067h17.067
				V383z"/>
			<path d="M169.667,246.467h17.067c0,5.12,3.413,8.533,8.533,8.533h73.387l23.04,23.04c1.707,1.707,3.413,2.56,5.973,2.56
				s4.267-0.853,5.973-2.56c3.413-3.413,3.413-8.533,0-11.947L292.547,255h30.72c5.12,0,8.533-3.413,8.533-8.533v-51.2
				c0-5.12-3.413-8.533-8.533-8.533H224.28l-23.04-23.04c-3.413-3.413-8.533-3.413-11.947,0s-3.413,8.533,0,11.947l11.093,11.093
				h-5.12c-5.12,0-8.533,3.413-8.533,8.533h-17.067c-5.12,0-8.533,3.413-8.533,8.533v34.133
				C161.133,243.053,164.547,246.467,169.667,246.467z M314.733,203.8v34.133H275.48L241.347,203.8H314.733z M178.2,212.333h17.067
				c5.12,0,8.533-3.413,8.533-8.533h13.653l34.133,34.133H203.8c0-5.12-3.413-8.533-8.533-8.533H178.2V212.333z"/>
		</g>
	</g>
</g>
<g>
</g>
<g>
</g>
<g>
</g>
<g>
</g>
<g>
</g>
<g>
</g>
<g>
</g>
<g>
</g>
<g>
</g>
<g>
</g>
<g>
</g>
<g>
</g>
<g>
</g>
<g>
</g>
<g>
</g>
</svg>
