<?xml version="1.0" encoding="iso-8859-1"?>
<!-- Generator: Adobe Illustrator 19.0.0, SVG Export Plug-In . SVG Version: 6.00 Build 0)  -->
<svg version="1.1" id="Layer_1" xmlns="http://www.w3.org/2000/svg" xmlns:xlink="http://www.w3.org/1999/xlink" x="0px" y="0px"
	 viewBox="0 0 512.853 512.853" style="enable-background:new 0 0 512.853 512.853;" xml:space="preserve">
<g transform="translate(1 1)">
	<g>
		<g>
			<path d="M272.067,357.827c-5.12,0-8.533,3.413-8.533,8.533s3.413,8.533,8.533,8.533c5.12,0,8.533-3.413,8.533-8.533
				S277.187,357.827,272.067,357.827z"/>
			<path d="M306.2,246.893c-52.053,0-93.867,41.813-93.867,93.867c0,22.968,8.144,43.939,21.713,60.207l-6.353,6.353
				c-3.413,3.413-3.413,8.533,0,11.947c1.707,1.707,3.413,2.56,5.973,2.56s4.267-0.853,5.973-2.56l6.353-6.353
				c14.23,11.868,32.058,19.58,51.674,21.328v8.919c0,5.12,3.413,8.533,8.533,8.533s8.533-3.413,8.533-8.533v-8.919
				c19.615-1.747,37.444-9.459,51.674-21.328l6.353,6.353c1.707,1.707,3.413,2.56,5.973,2.56c1.707,0,4.267-0.853,5.973-2.56
				c3.413-3.413,3.413-8.533,0-11.947l-6.353-6.353c13.569-16.268,21.713-37.239,21.713-60.207
				C400.067,288.707,358.253,246.893,306.2,246.893z M306.2,263.96c42.667,0,76.8,34.133,76.8,76.8c0,42.667-34.133,76.8-76.8,76.8
				s-76.8-34.133-76.8-76.8C229.4,298.093,263.533,263.96,306.2,263.96z"/>
			<path d="M487.96,193.987l-3.154-1.297c0.385-1.764,0.594-3.612,0.594-5.53v-17.067c0-14.507-11.093-25.6-25.6-25.6h-17.067
				c-12.775,0-22.899,8.605-25.135,20.567l-6.439-2.647c-5.973-2.56-10.24-5.973-13.653-15.36
				c-0.648-0.648-1.298-3.772-2.321-11.219c3.292-1.706,5.734-4.242,5.734-8.408c0-4.267-2.56-7.68-5.973-8.533l-2.143-0.593
				c-0.686-10.409-1.271-19.914-1.271-24.153c0-19.627-15.36-34.987-34.987-34.987h-29.322l-12.491-45.227
				c-1.707-3.413-4.267-5.973-8.533-5.973s-6.827,2.56-8.533,5.973l-12.06,45.227h-32.313c-17.92,0-32.427,14.507-32.427,32.427
				v26.598l-2.56,0.709c-3.413,1.707-5.973,4.267-5.973,8.533s2.56,7.68,5.973,8.533l1.196,0.326
				c-1.008,4.151-2.475,7.886-4.609,11.621c-3.841,5.378-6.997,8.674-11.947,9.901v-9.048c0-7.68-3.413-14.507-9.387-19.627
				s-13.653-6.827-21.333-5.12l-76.8,17.92c-11.093,2.56-19.627,12.8-19.627,24.747v14.027l-2.56,0.48
				C29.72,190.573-1,229.827-1,273.347v183.467c0,16.213,12.8,29.013,29.013,29.013h107.52h98.133
				c0.144,0.07,0.29,0.133,0.434,0.203c17.643,8.766,37.111,14.411,57.689,16.221c0.121,0.011,0.242,0.022,0.363,0.032
				c1.285,0.11,2.575,0.205,3.869,0.285c0.336,0.021,0.67,0.045,1.007,0.064c1.148,0.064,2.301,0.112,3.456,0.152
				c0.393,0.014,0.784,0.034,1.178,0.045c1.508,0.041,3.02,0.066,4.538,0.066c1.524,0,3.042-0.025,4.556-0.067
				c0.337-0.01,0.673-0.027,1.01-0.038c1.262-0.042,2.52-0.097,3.775-0.168c0.155-0.009,0.31-0.02,0.466-0.029
				c23.749-1.415,46.112-7.93,66.015-18.47h104.233c6.827,0,25.6,0,25.6-145.067C511.853,205.08,495.64,194.84,487.96,193.987z
				 M434.2,170.093c0-5.12,3.413-8.533,8.533-8.533H459.8c5.12,0,8.533,3.413,8.533,8.533v15.825L434.2,171.885V170.093z
				 M306.641,485.821c-23.736-0.059-45.786-5.179-66.148-16.208c-1.054-0.527-1.783-0.728-2.588-0.805
				c-45.711-24.396-76.772-72.541-76.772-128.049c0-73.387,55.467-135.68,128-144.213l9.387,27.307
				c0.853,3.413,4.267,5.973,7.68,5.973s6.827-2.56,9.387-5.12l0.01-0.031c0.281-0.268,0.562-0.541,0.843-0.822l8.906-27.037
				c71.51,9.469,125.92,71.261,125.92,143.944C451.267,420.826,386.65,485.583,306.641,485.821z M356.547,76.227
				c10.24,0,17.92,7.68,17.92,17.92c0,4.207,0.002,11.731,0.819,19.302l-35.806-9.916l-7.542-27.307H356.547z M307.053,48.92
				l4.432,16.619c-0.565,1.571-0.689,3.143-0.165,4.714l11.947,42.667c0.853,2.56,3.413,5.12,5.973,5.973l30.246,8.781l-9.644,2.8
				l-19.748,5.486c-2.56,0-5.12,2.56-5.973,5.12l-17.493,51.647l-17.493-51.647c-0.853-2.56-3.413-4.267-5.973-5.12l-30.367-8.463
				l19.236-5.45l11.984-3.154c2.56-0.853,5.12-3.413,5.973-5.973L307.053,48.92z M237.933,91.587c0-8.533,6.827-15.36,15.36-15.36
				h27.762l-7.282,27.307l-35.84,9.925V91.587z M99.693,158.147l76.8-17.92c0,0,0.853,0,1.707,0c1.707,0,3.413,0.853,5.12,1.707
				c2.56,1.707,3.413,4.267,3.413,6.827v11.947l-28.161,5.12l-65.706,11.827V166.68C92.867,162.413,95.427,159,99.693,158.147z
				 M28.013,468.76c-6.827,0-11.947-5.12-11.947-11.947V417.56h25.6c5.12,0,8.533-3.413,8.533-8.533c0-5.12-3.413-8.533-8.533-8.533
				h-25.6v-17.067H50.2c5.12,0,8.533-3.413,8.533-8.533s-3.413-8.533-8.533-8.533H16.067v-17.067h42.667
				c5.12,0,8.533-3.413,8.533-8.533c0-5.12-3.413-8.533-8.533-8.533H16.067v-58.88c0-1.12,0.025-2.236,0.074-3.347
				c1.534-34.443,26.592-64.306,59.659-71.746l14.222-2.56h0.284h18.773l15.36,31.573c5.973,11.947,5.973,26.453,0,38.4
				c-3.413,8.533-5.973,17.92-5.973,27.307V468.76H28.013z M135.533,468.76V292.973c0-6.827,0.853-13.653,4.267-19.627
				c8.533-17.067,8.533-36.693,0-53.76l-15.07-30.141l79.07-14.233c11.093-2.56,18.773-8.533,24.747-18.773
				c3.344-5.016,5.049-10.036,6.722-15.854l39.358,10.734l9.616,29.192c-79.602,10.623-140.176,79.137-140.176,160.248
				c0,52.054,24.486,98.343,62.572,128H135.533z M484.547,468.76h-78.785c38.086-29.657,62.572-75.946,62.572-128
				c0-80.278-59.335-148.221-137.729-159.907l9.508-28.865l39.497-11.545c0.86,8.37,2.544,11.753,3.39,14.29
				c4.267,9.387,10.24,19.627,23.04,24.747l13.108,5.414c0.798,0.874,1.832,1.629,3.105,2.266l46.933,19.627
				c0.853,0.853,2.56,0.853,3.413,0.853c0.341,0,0.722-0.084,1.117-0.206l10.829,4.473C499.907,235.8,499.907,443.16,484.547,468.76
				z"/>
			<path d="M263.533,349.293c5.12,0,8.533-3.413,8.533-8.533c0-18.773,15.36-34.133,34.133-34.133c5.12,0,8.533-3.413,8.533-8.533
				s-3.413-8.533-8.533-8.533c-28.16,0-51.2,23.04-51.2,51.2C255,345.88,258.413,349.293,263.533,349.293z"/>
			<path d="M84.333,221.293H67.267c-14.507,0-25.6,11.093-25.6,25.6s11.093,25.6,25.6,25.6h17.067c14.507,0,25.6-11.093,25.6-25.6
				S98.84,221.293,84.333,221.293z M84.333,255.427H67.267c-5.12,0-8.533-3.413-8.533-8.533s3.413-8.533,8.533-8.533h17.067
				c5.12,0,8.533,3.413,8.533,8.533S89.453,255.427,84.333,255.427z"/>
		</g>
	</g>
</g>
<g>
</g>
<g>
</g>
<g>
</g>
<g>
</g>
<g>
</g>
<g>
</g>
<g>
</g>
<g>
</g>
<g>
</g>
<g>
</g>
<g>
</g>
<g>
</g>
<g>
</g>
<g>
</g>
<g>
</g>
</svg>
