<?xml version="1.0" encoding="iso-8859-1"?>
<!-- Generator: Adobe Illustrator 19.0.0, SVG Export Plug-In . SVG Version: 6.00 Build 0)  -->
<svg version="1.1" id="Layer_1" xmlns="http://www.w3.org/2000/svg" xmlns:xlink="http://www.w3.org/1999/xlink" x="0px" y="0px"
	 viewBox="0 0 512 512" style="enable-background:new 0 0 512 512;" xml:space="preserve">
<g transform="translate(1 1)">
	<g>
		<g>
			<path d="M229.4,195.267c-5.12,0-8.533,3.413-8.533,8.533s3.413,8.533,8.533,8.533s8.533-3.413,8.533-8.533
				S234.52,195.267,229.4,195.267z"/>
			<path d="M229.4,229.4c-5.12,0-8.533,3.413-8.533,8.533s3.413,8.533,8.533,8.533s8.533-3.413,8.533-8.533
				S234.52,229.4,229.4,229.4z"/>
			<path d="M229.4,263.533c-5.12,0-8.533,3.413-8.533,8.533s3.413,8.533,8.533,8.533s8.533-3.413,8.533-8.533
				S234.52,263.533,229.4,263.533z"/>
			<path d="M229.4,297.667c-5.12,0-8.533,3.413-8.533,8.533s3.413,8.533,8.533,8.533s8.533-3.413,8.533-8.533
				S234.52,297.667,229.4,297.667z"/>
			<path d="M496.493,291.693c8.533-1.707,14.507-8.533,14.507-17.067v-36.693c0-8.533-5.973-16.213-14.507-17.067l-45.227-6.827
				v-22.187l53.76-34.133c4.267-3.413,6.827-8.533,5.12-13.653c-0.853-5.12-5.973-8.533-11.093-8.533H383
				c-5.12,0-8.533,3.413-8.533,8.533h-34.133c0-5.12-3.413-8.533-8.533-8.533h-68.267c-5.12,0-8.533,3.413-8.533,8.533h-93.867
				c-22.925,0-43.376,9.863-57.403,25.6H7.533C2.413,169.667-1,173.08-1,178.2v153.6c0,5.12,3.413,8.533,8.533,8.533h96.198
				c14.027,15.737,34.478,25.6,57.403,25.6H255c0,5.12,3.413,8.533,8.533,8.533H331.8c5.12,0,8.533-3.413,8.533-8.533h34.133
				c0,5.12,3.413,8.533,8.533,8.533h116.053c5.12,0,10.24-3.413,11.093-7.68c1.707-5.12-0.853-11.093-5.12-13.653L451.267,319
				v-22.187L496.493,291.693z M272.067,229.4h51.2v17.067h-51.2V229.4z M272.067,263.533h51.2V280.6h-51.2V263.533z
				 M323.267,212.333h-51.2v-17.067h51.2V212.333z M272.067,297.667h51.2v17.067h-51.2V297.667z M323.267,152.6v25.6h-51.2v-25.6
				H323.267z M92.013,323.267H16.067V186.733h75.947c-4.55,9.099-7.073,19.546-7.58,30.143c-0.001,0.017-0.001,0.034-0.002,0.051
				c-0.062,1.311-0.098,2.625-0.098,3.938v68.267c0,1.314,0.036,2.627,0.098,3.938c0.001,0.017,0.001,0.034,0.002,0.051
				C84.941,303.72,87.464,314.167,92.013,323.267z M161.133,348.867c-31.17,0-56.349-23.206-59.417-53.491
				c-0.006-0.059-0.012-0.117-0.018-0.176c-0.085-0.86-0.146-1.727-0.194-2.598c-0.01-0.179-0.024-0.356-0.032-0.535
				c-0.046-0.972-0.073-1.95-0.073-2.934v-68.267c0-0.98,0.027-1.953,0.072-2.921c0.009-0.202,0.025-0.402,0.036-0.603
				c0.046-0.808,0.103-1.613,0.18-2.411c0.015-0.157,0.032-0.314,0.048-0.471c0.09-0.867,0.197-1.728,0.323-2.582
				c0.014-0.095,0.027-0.19,0.041-0.285c0.134-0.877,0.289-1.747,0.459-2.611c0.021-0.107,0.039-0.214,0.061-0.321
				c0.114-0.559,0.25-1.109,0.378-1.662c2.003-8.38,5.934-16.15,12.054-22.827c0.596-0.895,1.085-2,1.4-3.166
				c10.895-12.23,26.798-19.874,44.68-19.874H255v187.733H161.133z M272.067,357.4v-25.6h51.2v25.6H272.067z M340.333,348.867
				V161.133h34.133v187.733H340.333z M441.88,332.653l39.253,24.747h-89.6V152.6h89.6l-39.253,24.747
				c-4.267,3.413-7.68,8.533-7.68,14.507v19.627c0,8.533,5.973,16.213,14.507,17.067l45.227,6.827v36.693l-45.227,6.827
				c-8.533,1.707-14.507,8.533-14.507,17.067v22.187C434.2,324.12,436.76,329.24,441.88,332.653z"/>
			<path d="M161.133,263.533c-14.507,0-25.6,11.093-25.6,25.6V306.2c0,14.507,11.093,25.6,25.6,25.6c14.507,0,25.6-11.093,25.6-25.6
				v-17.067C186.733,274.627,175.64,263.533,161.133,263.533z M169.667,306.2c0,5.12-3.413,8.533-8.533,8.533
				s-8.533-3.413-8.533-8.533v-17.067c0-5.12,3.413-8.533,8.533-8.533s8.533,3.413,8.533,8.533V306.2z"/>
			<path d="M161.133,178.2c-14.507,0-25.6,11.093-25.6,25.6v17.067c0,14.507,11.093,25.6,25.6,25.6c14.507,0,25.6-11.093,25.6-25.6
				V203.8C186.733,189.293,175.64,178.2,161.133,178.2z M169.667,220.867c0,5.12-3.413,8.533-8.533,8.533s-8.533-3.413-8.533-8.533
				V203.8c0-5.12,3.413-8.533,8.533-8.533s8.533,3.413,8.533,8.533V220.867z"/>
		</g>
	</g>
</g>
<g>
</g>
<g>
</g>
<g>
</g>
<g>
</g>
<g>
</g>
<g>
</g>
<g>
</g>
<g>
</g>
<g>
</g>
<g>
</g>
<g>
</g>
<g>
</g>
<g>
</g>
<g>
</g>
<g>
</g>
</svg>
