<?xml version="1.0" encoding="iso-8859-1"?>
<!-- Generator: Adobe Illustrator 19.0.0, SVG Export Plug-In . SVG Version: 6.00 Build 0)  -->
<svg version="1.1" id="Layer_1" xmlns="http://www.w3.org/2000/svg" xmlns:xlink="http://www.w3.org/1999/xlink" x="0px" y="0px"
	 viewBox="0 0 503.467 503.467" style="enable-background:new 0 0 503.467 503.467;" xml:space="preserve">
<g transform="translate(1 15)">
	<path style="fill:#80D6FA;" d="M293.4,449.64h204.8V261.907H293.4V449.64z M3.267,449.64h204.8V261.907H3.267V449.64z"/>
	<path style="fill:#AAB1BA;" d="M156.867,108.307H344.6c-8.533,51.2-41.813,85.333-93.867,85.333S165.4,159.507,156.867,108.307
		L156.867,108.307z"/>
	<path style="fill:#ECF4F7;" d="M293.4,261.907V449.64c0,18.773-15.36,34.133-34.133,34.133H242.2
		c-18.773,0-34.133-15.36-34.133-34.133V261.907V244.84c0,0,0-42.667,42.667-42.667S293.4,244.84,293.4,244.84V261.907z"/>
</g>
<path style="fill:#51565F;" d="M260.267,503.04H243.2c-21.333,0-38.4-17.067-38.4-38.4v-204.8c0-10.24,4.267-19.627,11.093-27.307
	c1.707-1.707,4.267-1.707,5.973,0c1.707,1.707,1.707,4.267,0,5.973c-5.973,5.973-8.533,12.8-8.533,21.333v204.8
	c0,16.213,13.653,29.867,29.867,29.867h17.067c16.213,0,29.867-13.653,29.867-29.867v-204.8c0-7.68-3.413-15.36-8.533-21.333
	c-1.707-1.707-1.707-4.267,0-5.973s4.267-1.707,5.973,0c7.68,7.68,11.093,17.067,11.093,27.307v204.8
	C298.667,485.973,281.6,503.04,260.267,503.04z M499.2,468.907H328.533c-2.56,0-4.267-1.707-4.267-4.267
	c0-2.56,1.707-4.267,4.267-4.267h166.4v-179.2h-166.4c-2.56,0-4.267-1.707-4.267-4.267c0-2.56,1.707-4.267,4.267-4.267H499.2
	c2.56,0,4.267,1.707,4.267,4.267V464.64C503.467,467.2,501.76,468.907,499.2,468.907z M174.933,468.907H4.267
	C1.707,468.907,0,467.2,0,464.64V276.907c0-2.56,1.707-4.267,4.267-4.267h170.667c2.56,0,4.267,1.707,4.267,4.267
	c0,2.56-1.707,4.267-4.267,4.267H8.533v179.2h166.4c2.56,0,4.267,1.707,4.267,4.267C179.2,467.2,177.493,468.907,174.933,468.907z
	 M430.933,434.773c-2.56,0-4.267-1.707-4.267-4.267V400.64h-59.733v29.867c0,2.56-1.707,4.267-4.267,4.267s-4.267-1.707-4.267-4.267
	V400.64h-29.867c-2.56,0-4.267-1.707-4.267-4.267c0-2.56,1.707-4.267,4.267-4.267H358.4V349.44h-29.867
	c-2.56,0-4.267-1.707-4.267-4.267c0-2.56,1.707-4.267,4.267-4.267H358.4V311.04c0-2.56,1.707-4.267,4.267-4.267
	s4.267,1.707,4.267,4.267v29.867h59.733V311.04c0-2.56,1.707-4.267,4.267-4.267s4.267,1.707,4.267,4.267v29.867h29.867
	c2.56,0,4.267,1.707,4.267,4.267c0,2.56-1.707,4.267-4.267,4.267H435.2v42.667h29.867c2.56,0,4.267,1.707,4.267,4.267
	c0,2.56-1.707,4.267-4.267,4.267H435.2v29.867C435.2,433.067,433.493,434.773,430.933,434.773z M366.933,392.107h59.733V349.44
	h-59.733V392.107z M140.8,434.773c-2.56,0-4.267-1.707-4.267-4.267V400.64H76.8v29.867c0,2.56-1.707,4.267-4.267,4.267
	c-2.56,0-4.267-1.707-4.267-4.267V400.64H38.4c-2.56,0-4.267-1.707-4.267-4.267c0-2.56,1.707-4.267,4.267-4.267h29.867V349.44H38.4
	c-2.56,0-4.267-1.707-4.267-4.267c0-2.56,1.707-4.267,4.267-4.267h29.867V311.04c0-2.56,1.707-4.267,4.267-4.267
	c2.56,0,4.267,1.707,4.267,4.267v29.867h59.733V311.04c0-2.56,1.707-4.267,4.267-4.267c2.56,0,4.267,1.707,4.267,4.267v29.867
	h29.867c2.56,0,4.267,1.707,4.267,4.267c0,2.56-1.707,4.267-4.267,4.267h-29.867v42.667h29.867c2.56,0,4.267,1.707,4.267,4.267
	c0,2.56-1.707,4.267-4.267,4.267h-29.867v29.867C145.067,433.067,143.36,434.773,140.8,434.773z M76.8,392.107h59.733V349.44H76.8
	V392.107z M251.733,212.907c-52.053,0-88.747-33.28-98.133-88.747c0-0.853,0-2.56,0.853-3.413c0.853-0.853,1.707-1.707,3.413-1.707
	H345.6c0.853,0,2.56,0.853,3.413,1.707c0.853,0.853,0.853,2.56,0.853,3.413C340.48,179.627,303.787,212.907,251.733,212.907z
	 M162.987,127.573c10.24,47.787,42.667,76.8,88.747,76.8s78.507-29.013,88.747-76.8H162.987z M306.347,81.493
	c-0.853,0-2.56,0-3.413-0.853c-13.653-13.653-31.573-21.333-51.2-21.333s-37.547,7.68-51.2,21.333c-1.707,1.707-4.267,1.707-5.973,0
	c-1.707-1.707-1.707-4.267,0-5.973c15.36-15.36,35.84-23.893,57.173-23.893s41.813,8.533,57.173,23.893
	c1.707,1.707,1.707,4.267,0,5.973C308.053,81.493,307.2,81.493,306.347,81.493z M342.187,45.653c-0.853,0-2.56,0-3.413-0.853
	C315.733,21.76,284.16,8.96,250.88,8.96c-33.28,0-64,12.8-87.893,35.84c-1.707,1.707-4.267,1.707-5.973,0s-1.707-4.267,0-5.973
	c24.747-24.747,58.027-38.4,93.867-38.4c34.987,0,68.267,13.653,93.867,38.4c1.707,1.707,1.707,4.267,0,5.973
	C344.747,44.8,343.04,45.653,342.187,45.653z"/>
<g>
</g>
<g>
</g>
<g>
</g>
<g>
</g>
<g>
</g>
<g>
</g>
<g>
</g>
<g>
</g>
<g>
</g>
<g>
</g>
<g>
</g>
<g>
</g>
<g>
</g>
<g>
</g>
<g>
</g>
</svg>
