<?xml version="1.0" encoding="iso-8859-1"?>
<!-- Generator: Adobe Illustrator 19.0.0, SVG Export Plug-In . SVG Version: 6.00 Build 0)  -->
<svg version="1.1" id="Layer_1" xmlns="http://www.w3.org/2000/svg" xmlns:xlink="http://www.w3.org/1999/xlink" x="0px" y="0px"
	 viewBox="0 0 512 512" style="enable-background:new 0 0 512 512;" xml:space="preserve">
<g>
	<g>
		<path d="M490.667,362.667H416v-352C416,4.779,411.221,0,405.333,0H106.667C100.779,0,96,4.779,96,10.667v352H21.333
			c-5.888,0-10.667,4.779-10.667,10.667v128c0,5.888,4.779,10.667,10.667,10.667h32v-96c0-5.888,4.779-10.667,10.667-10.667h85.333
			c5.888,0,10.667,4.779,10.667,10.667v96h21.333V373.333c0-5.888,4.779-10.667,10.667-10.667h128
			c5.888,0,10.667,4.779,10.667,10.667V512H352v-96c0-5.888,4.779-10.667,10.667-10.667H448c5.888,0,10.667,4.779,10.667,10.667v96
			h32c5.888,0,10.667-4.779,10.667-10.667v-128C501.333,367.445,496.555,362.667,490.667,362.667z M202.667,330.667
			c0,5.888-4.779,10.667-10.667,10.667h-42.667c-5.888,0-10.667-4.779-10.667-10.667v-64c0-5.888,4.779-10.667,10.667-10.667H192
			c5.888,0,10.667,4.779,10.667,10.667V330.667z M202.667,224c0,5.888-4.779,10.667-10.667,10.667h-42.667
			c-5.888,0-10.667-4.779-10.667-10.667v-64c0-5.888,4.779-10.667,10.667-10.667H192c5.888,0,10.667,4.779,10.667,10.667V224z
			 M202.667,117.333c0,5.888-4.779,10.667-10.667,10.667h-42.667c-5.888,0-10.667-4.779-10.667-10.667v-64
			c0-5.888,4.779-10.667,10.667-10.667H192c5.888,0,10.667,4.779,10.667,10.667V117.333z M288,330.667
			c0,5.888-4.779,10.667-10.667,10.667h-42.667c-5.888,0-10.667-4.779-10.667-10.667v-64c0-5.888,4.779-10.667,10.667-10.667h42.667
			c5.888,0,10.667,4.779,10.667,10.667V330.667z M288,224c0,5.888-4.779,10.667-10.667,10.667h-42.667
			c-5.888,0-10.667-4.779-10.667-10.667v-64c0-5.888,4.779-10.667,10.667-10.667h42.667c5.888,0,10.667,4.779,10.667,10.667V224z
			 M288,117.333c0,5.888-4.779,10.667-10.667,10.667h-42.667c-5.888,0-10.667-4.779-10.667-10.667v-64
			c0-5.888,4.779-10.667,10.667-10.667h42.667c5.888,0,10.667,4.779,10.667,10.667V117.333z M373.333,330.667
			c0,5.888-4.779,10.667-10.667,10.667H320c-5.888,0-10.667-4.779-10.667-10.667v-64c0-5.888,4.779-10.667,10.667-10.667h42.667
			c5.888,0,10.667,4.779,10.667,10.667V330.667z M373.333,224c0,5.888-4.779,10.667-10.667,10.667H320
			c-5.888,0-10.667-4.779-10.667-10.667v-64c0-5.888,4.779-10.667,10.667-10.667h42.667c5.888,0,10.667,4.779,10.667,10.667V224z
			 M373.333,117.333c0,5.888-4.779,10.667-10.667,10.667H320c-5.888,0-10.667-4.779-10.667-10.667v-64
			c0-5.888,4.779-10.667,10.667-10.667h42.667c5.888,0,10.667,4.779,10.667,10.667V117.333z"/>
	</g>
</g>
<g>
</g>
<g>
</g>
<g>
</g>
<g>
</g>
<g>
</g>
<g>
</g>
<g>
</g>
<g>
</g>
<g>
</g>
<g>
</g>
<g>
</g>
<g>
</g>
<g>
</g>
<g>
</g>
<g>
</g>
</svg>
