<?xml version="1.0" encoding="iso-8859-1"?>
<!-- Generator: Adobe Illustrator 19.0.0, SVG Export Plug-In . SVG Version: 6.00 Build 0)  -->
<svg version="1.1" id="Layer_1" xmlns="http://www.w3.org/2000/svg" xmlns:xlink="http://www.w3.org/1999/xlink" x="0px" y="0px"
	 viewBox="0 0 490.287 490.287" style="enable-background:new 0 0 490.287 490.287;" xml:space="preserve">
<g>
	<g id="XMLID_163_">
		<rect x="0.099" y="380.537" style="fill:#706F6F;" width="490.09" height="109.603"/>
	</g>
	<g id="XMLID_162_">
		<polygon style="fill:#F9B233;" points="0.099,383.562 206.855,382.932 15.414,482.482 0.099,482.042 		"/>
	</g>
	<g id="XMLID_164_">
		<polygon style="fill:#F9B233;" points="490.189,383.562 291.09,382.932 482.531,482.482 489.969,489.919 		"/>
	</g>
	<g id="XMLID_54_">
		<rect x="0.099" y="0.049" style="fill:#36A9E1;" width="490.09" height="382.883"/>
	</g>
	<g id="XMLID_133_">
		<polygon style="fill:#EE8A3C;" points="141.765,256.581 268.117,382.932 23.071,382.932 		"/>
	</g>
	<g id="XMLID_53_">
		<polygon style="fill:#FFFFFF;" points="168.567,291.04 114.963,291.04 137.936,252.752 		"/>
	</g>
	<g id="XMLID_134_">
		<polygon style="fill:#F4B26F;" points="122.621,382.932 294.918,202.977 471.045,379.103 		"/>
	</g>
	<g id="XMLID_49_">
		<polyline style="fill:#FFFFFF;" points="329.378,245.094 294.918,202.977 260.459,245.094 		"/>
	</g>
	<g id="XMLID_48_">
		<g>
			<rect x="237.486" y="382.932" style="fill:#FFFFFF;" width="15.316" height="15.315"/>
		</g>
		<g>
			<rect x="237.486" y="417.392" style="fill:#FFFFFF;" width="15.316" height="38.289"/>
		</g>
		<g>
			<rect x="237.486" y="474.824" style="fill:#FFFFFF;" width="15.316" height="15.315"/>
		</g>
	</g>
	<g id="XMLID_47_">
		<g id="XMLID_261_">
			<path style="fill:#FAC15C;" d="M344.51,0.049c0,54.944-44.541,99.485-99.485,99.485S145.54,54.993,145.54,0.049"/>
		</g>
		<g id="XMLID_260_">
			<path style="fill:#F9B233;" d="M319.638,0.049c0,41.208-33.406,74.614-74.614,74.614S170.41,41.257,170.41,0.049"/>
		</g>
		<g id="XMLID_259_">
			<path style="fill:#F39200;" d="M303.057,0.049c0,32.051-25.982,58.033-58.033,58.033S186.991,32.1,186.991,0.049"/>
		</g>
		<g id="XMLID_107_">
			<path style="fill:#1D1D1B;" d="M245.263,107.192c-59.079,0-107.143-48.064-107.143-107.143h15.316
				c0,50.634,41.194,91.827,91.827,91.827c50.634,0,91.828-41.194,91.828-91.827h15.316
				C352.406,59.128,304.342,107.192,245.263,107.192z"/>
		</g>
	</g>
	<path style="fill:#1D1D1B;" d="M474.212,490.238h16.075V482.2l-168.824-91.61h168.725v-15.316h-12.143L294.918,192.148
		L191.54,295.526l-49.775-49.774L12.242,375.275H0.099v15.316h168.725L0,481.196v9.042h15.07l186.058-99.648h88.03L474.212,490.238z
		 M141.765,267.411l49.775,49.775l103.378-103.378l161.468,161.467H33.901L141.765,267.411z"/>
	<g id="XMLID_52_">
		<g>
			<path style="fill:#FFFFFF;" d="M388.725,336.986c-7.487,0-13.875-4.801-16.246-11.487H338.95c-9.5,0-17.23-7.729-17.23-17.23
				c0-9.5,7.729-17.23,17.23-17.23h72.748c7.488,0,13.875,4.801,16.246,11.487h33.529c9.5,0,17.23,7.729,17.23,17.23
				c0,9.5-7.729,17.23-17.23,17.23H388.725z"/>
		</g>
		<g>
			<path style="fill:#1D1D1B;" d="M411.698,298.698c5.287,0,9.572,4.285,9.572,9.572c0,0.656-0.067,1.296-0.193,1.914h40.396
				c5.287,0,9.572,4.285,9.572,9.572c0,5.286-4.285,9.572-9.572,9.572h-72.748c-5.286,0-9.572-4.286-9.572-9.572
				c0-0.656,0.067-1.296,0.193-1.914H338.95c-5.287,0-9.572-4.286-9.572-9.572c0-5.287,4.285-9.572,9.572-9.572H411.698
				 M411.698,283.383H338.95c-13.723,0-24.887,11.164-24.887,24.888c0,13.723,11.164,24.887,24.887,24.887h28.811
				c4.428,6.904,12.17,11.487,20.963,11.487h72.748c13.723,0,24.887-11.165,24.887-24.888s-11.164-24.887-24.887-24.887h-28.811
				C428.233,287.966,420.491,283.383,411.698,283.383L411.698,283.383z"/>
		</g>
	</g>
</g>
<g>
</g>
<g>
</g>
<g>
</g>
<g>
</g>
<g>
</g>
<g>
</g>
<g>
</g>
<g>
</g>
<g>
</g>
<g>
</g>
<g>
</g>
<g>
</g>
<g>
</g>
<g>
</g>
<g>
</g>
</svg>
