<?xml version="1.0" encoding="iso-8859-1"?>
<!-- Generator: Adobe Illustrator 19.0.0, SVG Export Plug-In . SVG Version: 6.00 Build 0)  -->
<svg version="1.1" id="Layer_1" xmlns="http://www.w3.org/2000/svg" xmlns:xlink="http://www.w3.org/1999/xlink" x="0px" y="0px"
	 viewBox="0 0 512 512" style="enable-background:new 0 0 512 512;" xml:space="preserve">
<circle style="fill:#FFAD38;" cx="256" cy="256" r="247.83"/>
<circle style="fill:#FCDE65;" cx="256" cy="256" r="220.596"/>
<path style="fill:#CA7B0A;" d="M281.902,144.381c-1.672-10.779-10.424-19.215-21.368-20.36c0-0.001-49.799-0.001-67.784-0.001
	l13.449,31.718l41.416,14.286c0.751,0.355,1.524,0.67,2.315,0.949l16.611-0.184c3.816-1.441,7.17-3.818,9.787-6.851
	C279.335,160.929,282.213,150.543,281.902,144.381z"/>
<g>
	<path style="fill:#FD9A0C;" d="M377.641,298.794c1.356-0.643,4.826-2.289,4.826-2.289c11.034-5.238,18.667-16.477,18.667-29.501
		v-87.763c0-0.003,0-0.008,0-0.012c0,0,1.143-23.493-23.494-23.493l-16.34,6.127c-8.378,5.521-29.274,19.3-29.274,19.3
		c-3.183,2.107-5.289,5.713-5.289,9.814c0,6.488,5.259,11.747,11.747,11.747h15.663v32.974l-89.769,9.394l26.619,94.78
		c0,0,0.093-0.044,0.268-0.126l21.519-10.2c14.687-6.963,33.962-16.101,48.518-23.003
		C361.301,306.542,373.619,300.701,377.641,298.794z"/>
	<polygon style="fill:#FD9A0C;" points="200.66,218.599 157.577,243.42 140.436,392.358 177.862,392.358 	"/>
</g>
<path style="fill:#CA7B0A;" d="M278.782,343.815c23.201-4.299,40.777-24.627,40.777-49.072c0-27.573-22.352-49.924-49.924-49.924
	c-27.573,0-49.924,22.352-49.924,49.924c0,24.67,17.898,45.146,41.415,49.187L278.782,343.815z"/>
<path d="M437.019,74.981C388.668,26.628,324.38,0,256,0S123.332,26.628,74.981,74.981C26.628,123.332,0,187.62,0,256
	s26.628,132.668,74.981,181.019C123.332,485.372,187.62,512,256,512s132.668-26.628,181.019-74.981
	C485.372,388.668,512,324.38,512,256S485.372,123.332,437.019,74.981z M256,495.66c-132.149,0-239.66-107.51-239.66-239.66
	S123.851,16.34,256,16.34S495.66,123.851,495.66,256S388.149,495.66,256,495.66z M385.812,315.504v-11.541l0.16-0.076
	c2.497-1.185,4.83-2.623,6.993-4.254v10.068c0,4.512,3.658,8.17,8.17,8.17c4.512,0,8.17-3.658,8.17-8.17v-42.695v-3.38v-84.396
	v-39.156c0-4.512-3.658-8.17-8.17-8.17c-4.512,0-8.17,3.658-8.17,8.17v11.46c-2.234-1.241-4.632-2.219-7.154-2.892v-8.567
	c0-4.512-3.658-8.17-8.17-8.17c-4.512,0-8.17,3.658-8.17,8.17v8.581c-3.264,0.871-6.385,2.247-9.243,4.133l0.016,0.024
	c-0.499,0.293-0.971,0.604-1.418,0.899l-27.086,17.857c-16.95-2.377-32.166-11.926-41.465-26.04
	c-1.217-15.466-13.225-27.991-28.89-29.632l-0.008,0.073c-1.122-0.118-2.361-0.118-3.755-0.118l-60.054-0.001
	c-5.722-13-10.337-23.484-10.337-23.484c-1.305-2.965-4.239-4.879-7.477-4.879h-19.553c-4.512,0-8.17,3.658-8.17,8.17
	c0,4.512,3.658,8.17,8.17,8.17h14.223l28.469,64.678c1.738,3.947,3.53,8.018,8.596,8.017c0.363,0,0.744-0.021,1.142-0.064
	l-0.886-8.122l-0.001-0.008l6.843-3.026l25.532,12.106c1.439,0.681,2.913,1.24,4.413,1.698l-3.753,21.873h-17.123
	c-4.512,0-8.17,3.658-8.17,8.17c0,4.512,3.658,8.17,8.17,8.17h24.011c3.979,0,7.379-2.866,8.053-6.789l5.282-30.789
	c8.537-1.894,15.815-7.164,20.359-14.335c9.278,9.547,21.022,16.553,33.946,20.21c-0.48,1.723-0.741,3.521-0.741,5.36
	c0,10.983,8.935,19.917,19.917,19.917h7.493v17.444l-82.451,8.628c-28.809,3.019-50.726,26.575-51.928,55.291
	c-4.705,7.446-10.082,14.329-16.086,20.607l11.94-93.228c0.395-3.089-1-6.135-3.598-7.853c-2.599-1.718-5.948-1.809-8.635-0.235
	l-51.768,30.316c-3.893,2.28-5.202,7.286-2.922,11.179c1.732,2.96,5.039,4.42,8.237,3.951l-11.676,91.161
	c-11.291,3.243-22.935,4.959-34.689,5.105c-4.512,0.056-8.124,3.759-8.069,8.27c0.056,4.477,3.703,8.069,8.168,8.069
	c0.035,0,0.069,0,0.103,0c10.886-0.135,21.686-1.487,32.251-3.991l-2.659,20.758h-1.999c-4.512,0-8.17,3.658-8.17,8.17
	c0,4.513,3.658,8.17,8.17,8.17h9.183c0.005,0,0.011,0.001,0.016,0.001c0.008,0,0.015-0.001,0.023-0.001h37.387
	c0.005,0,0.011,0.001,0.016,0.001c0.008,0,0.015-0.001,0.023-0.001h9.157c4.512,0,8.17-3.657,8.17-8.17
	c0-4.481-3.609-8.115-8.078-8.166l6.213-48.508c8.488-6.707,16.159-14.297,22.952-22.681c6.962,18.457,23.057,32.471,42.753,36.485
	l-26.434,65.781c-1.012,2.518-0.707,5.374,0.812,7.621s4.056,3.595,6.769,3.595h104.177c4.512,0,8.17-3.658,8.17-8.17
	c0-4.512-3.658-8.17-8.17-8.17h-92.089l24.017-59.766c0.16-0.015,0.321-0.029,0.482-0.046c0.588-0.061,1.171-0.145,1.755-0.223
	c0.406-0.056,0.814-0.105,1.217-0.168c0.63-0.099,1.254-0.217,1.88-0.337c0.353-0.068,0.706-0.133,1.057-0.207
	c0.635-0.134,1.266-0.283,1.895-0.438c0.34-0.084,0.679-0.168,1.015-0.258c0.621-0.165,1.24-0.341,1.855-0.527
	c0.266-0.081,0.532-0.16,0.795-0.245l-17.801,45.629c-1.641,4.204,0.438,8.941,4.642,10.581c0.976,0.381,1.979,0.561,2.967,0.561
	c3.268,0,6.354-1.975,7.614-5.203l23.813-61.039l61.015-28.927v7.178c0,2.167,0.861,4.245,2.393,5.777l27.962,27.961
	c1.595,1.595,3.686,2.393,5.777,2.393c2.091,0,4.182-0.797,5.777-2.393c3.191-3.191,3.191-8.363,0-11.554L385.812,315.504z
	 M257.983,164.176c-2.402,0-4.715-0.519-6.867-1.537l-41.643-19.745c-1.506-3.421-3.098-7.037-4.713-10.705
	c18.188,0,51.059,0,55.303,0.001c7.997,1.025,13.98,7.806,13.98,15.925C274.043,156.972,266.838,164.176,257.983,164.176z
	 M166.483,247.313l22.651-13.265l-19.509,152.318h-20.952L166.483,247.313z M324.006,315.183c2.4-6.363,3.723-13.25,3.723-20.441
	c0-10.317-2.742-20.454-7.928-29.315c-2.28-3.894-7.285-5.202-11.179-2.924c-3.895,2.28-5.203,7.285-2.924,11.179
	c3.722,6.359,5.69,13.64,5.69,21.06c0,17.113-10.352,31.845-25.12,38.287c-0.167,0.072-0.332,0.15-0.499,0.22
	c-0.456,0.192-0.921,0.371-1.386,0.547c-0.203,0.077-0.405,0.156-0.609,0.229c-0.464,0.168-0.932,0.325-1.405,0.476
	c-0.204,0.065-0.407,0.131-0.612,0.193c-0.477,0.145-0.958,0.282-1.442,0.41c-0.204,0.054-0.409,0.106-0.613,0.156
	c-0.484,0.12-0.97,0.234-1.46,0.338c-0.221,0.047-0.443,0.087-0.665,0.13c-0.475,0.093-0.951,0.181-1.431,0.256
	c-0.266,0.041-0.533,0.074-0.8,0.111c-0.441,0.06-0.881,0.122-1.326,0.169c-0.369,0.038-0.743,0.063-1.114,0.092
	c-0.351,0.027-0.699,0.062-1.052,0.081c-0.736,0.038-1.477,0.06-2.221,0.06c-23.023,0-41.754-18.73-41.754-41.754
	c0-21.443,16.056-39.294,37.348-41.525l89.769-9.394c4.16-0.436,7.319-3.943,7.319-8.126v-24.804h1.293
	c4.512,0,8.17-3.658,8.17-8.17s-3.658-8.17-8.17-8.17h-9.463h-15.663c-1.973,0-3.576-1.605-3.576-3.576
	c0-1.204,0.608-2.326,1.617-2.994c10.943-7.216,31.758-20.94,32.635-21.514c0.022-0.015,0.044-0.029,0.065-0.044
	c2.499-1.648,5.41-2.52,8.415-2.52c8.449,0,15.324,6.874,15.324,15.323v84.398v3.38c0,6.543-2.668,12.734-7.154,17.257v-4.917
	c0-4.512-3.658-8.17-8.17-8.17c-4.512,0-8.17,3.658-8.17,8.17v14.283C358.709,298.729,340.522,307.353,324.006,315.183z
	 M484.766,256c0,54.746-19.725,107.756-55.542,149.265c-2.948,3.417-8.106,3.798-11.523,0.849
	c-3.416-2.948-3.796-8.107-0.849-11.523c33.258-38.544,51.574-87.762,51.574-138.591c0-117.131-95.294-212.426-212.426-212.426
	S43.574,138.869,43.574,256S138.869,468.426,256,468.426c50.829,0,100.047-18.315,138.592-51.574
	c3.416-2.949,8.574-2.569,11.523,0.849c2.948,3.416,2.568,8.575-0.849,11.523c-41.51,35.817-94.521,55.542-149.267,55.542
	C129.858,484.766,27.234,382.142,27.234,256S129.858,27.234,256,27.234S484.766,129.858,484.766,256z"/>
<g>
</g>
<g>
</g>
<g>
</g>
<g>
</g>
<g>
</g>
<g>
</g>
<g>
</g>
<g>
</g>
<g>
</g>
<g>
</g>
<g>
</g>
<g>
</g>
<g>
</g>
<g>
</g>
<g>
</g>
</svg>
