<?xml version="1.0" encoding="iso-8859-1"?>
<!-- Generator: Adobe Illustrator 19.0.0, SVG Export Plug-In . SVG Version: 6.00 Build 0)  -->
<svg version="1.1" id="Layer_1" xmlns="http://www.w3.org/2000/svg" xmlns:xlink="http://www.w3.org/1999/xlink" x="0px" y="0px"
	 viewBox="0 0 512 512" style="enable-background:new 0 0 512 512;" xml:space="preserve">
<g>
	<g>
		<path d="M256,0c-27.618,0-50.087,22.469-50.087,50.087c0,27.618,22.469,50.087,50.087,50.087
			c27.618,0,50.087-22.469,50.087-50.087C306.087,22.469,283.618,0,256,0z M256,66.783c-9.206,0-16.696-7.49-16.696-16.696
			s7.49-16.696,16.696-16.696c9.206,0,16.696,7.49,16.696,16.696S265.206,66.783,256,66.783z"/>
	</g>
</g>
<g>
	<g>
		<path d="M456.348,200.348c-27.618,0-50.087,22.469-50.087,50.087c0,27.618,22.469,50.087,50.087,50.087
			c27.618,0,50.087-22.469,50.087-50.087C506.435,222.817,483.966,200.348,456.348,200.348z M456.348,267.13
			c-9.206,0-16.696-7.49-16.696-16.696c0-9.206,7.49-16.696,16.696-16.696c9.206,0,16.696,7.49,16.696,16.696
			C473.043,259.641,465.554,267.13,456.348,267.13z"/>
	</g>
</g>
<g>
	<g>
		<path d="M55.652,200.348c-27.618,0-50.087,22.469-50.087,50.087c0,27.618,22.469,50.087,50.087,50.087
			c27.618,0,50.087-22.469,50.087-50.087C105.739,222.817,83.27,200.348,55.652,200.348z M55.652,267.13
			c-9.206,0-16.696-7.49-16.696-16.696c0-9.206,7.49-16.696,16.696-16.696c9.206,0,16.696,7.49,16.696,16.696
			C72.348,259.641,64.858,267.13,55.652,267.13z"/>
	</g>
</g>
<g>
	<g>
		<path d="M433.083,73.352c-19.528-19.529-51.305-19.528-70.833,0c-19.574,19.575-19.578,51.257,0,70.834
			c9.765,9.763,22.591,14.645,35.417,14.645c12.826,0,25.652-4.882,35.416-14.647C452.658,124.611,452.66,92.929,433.083,73.352z
			 M397.667,125.463c-9.227,0-16.696-7.466-16.696-16.696c0-9.226,7.467-16.696,16.696-16.696c4.46,0,8.652,1.737,11.805,4.891
			s4.891,7.346,4.891,11.805C414.363,117.994,406.896,125.463,397.667,125.463z"/>
	</g>
</g>
<g>
	<g>
		<path d="M149.749,73.352c-19.528-19.529-51.305-19.528-70.833,0c-19.574,19.575-19.578,51.257,0,70.834
			c9.765,9.763,22.59,14.645,35.417,14.645c12.826,0,25.652-4.882,35.416-14.647C169.324,124.611,169.326,92.929,149.749,73.352z
			 M114.332,125.463c-9.227,0-16.696-7.466-16.696-16.696c0.001-4.46,1.737-8.652,4.891-11.805s7.346-4.891,11.805-4.891
			c9.225,0,16.696,7.466,16.696,16.696C131.027,117.994,123.561,125.463,114.332,125.463z"/>
	</g>
</g>
<g>
	<g>
		<path d="M456.348,378.435c-30.131,0-56.58,16.049-71.26,40.045c-15.196-25.438-37.77-46.207-65.152-59.135
			c31.853-20.897,52.934-56.921,52.934-97.78c0-64.442-52.428-116.87-116.87-116.87s-116.87,52.428-116.87,116.87
			c0,40.859,21.081,76.882,52.934,97.78c-27.541,13.004-50.044,33.844-65.152,59.135c-14.68-23.996-41.129-40.045-71.26-40.045
			c-9.22,0-16.696,7.475-16.696,16.696v100.174c0,9.22,7.475,16.696,16.696,16.696c21.155,0,387.229,0,400.696,0
			c9.22,0,16.696-7.475,16.696-16.696V395.13C473.043,385.91,465.568,378.435,456.348,378.435z M105.739,478.609H72.348v-63.922
			c19.435,6.891,33.391,25.46,33.391,47.226V478.609z M172.522,261.565c0-46.03,37.448-83.478,83.478-83.478
			s83.478,37.448,83.478,83.478c0,46.03-37.448,83.478-83.478,83.478S172.522,307.595,172.522,261.565z M206.938,389.241
			c14.926-6.933,31.55-10.807,49.062-10.807s34.136,3.873,49.062,10.805L256,438.302L206.938,389.241z M140.319,478.609
			c4.015-27.943,17.956-52.722,38.118-70.646l65.756,65.756c3.26,3.26,7.533,4.89,11.806,4.89H140.319z M256.024,478.608
			c4.265-0.006,8.528-1.635,11.781-4.89l65.756-65.756c20.163,17.924,34.104,42.703,38.118,70.646H256.024z M439.652,478.609
			h-33.391v-16.696c0-21.767,13.956-40.336,33.391-47.226V478.609z"/>
	</g>
</g>
<g>
	<g>
		<circle cx="222.609" cy="228.174" r="16.696"/>
	</g>
</g>
<g>
	<g>
		<circle cx="289.391" cy="228.174" r="16.696"/>
	</g>
</g>
<g>
	<g>
		<path d="M291.415,273.37c-6.518-6.519-17.09-6.518-23.61,0c-6.511,6.511-17.102,6.509-23.611,0c-6.519-6.52-17.091-6.519-23.611,0
			c-6.52,6.52-6.52,17.091,0,23.611c9.765,9.766,22.588,14.647,35.416,14.647c12.823,0,25.653-4.883,35.416-14.647
			C297.935,290.461,297.935,279.89,291.415,273.37z"/>
	</g>
</g>
<g>
</g>
<g>
</g>
<g>
</g>
<g>
</g>
<g>
</g>
<g>
</g>
<g>
</g>
<g>
</g>
<g>
</g>
<g>
</g>
<g>
</g>
<g>
</g>
<g>
</g>
<g>
</g>
<g>
</g>
</svg>
