<?xml version="1.0" encoding="iso-8859-1"?>
<!-- Generator: Adobe Illustrator 19.0.0, SVG Export Plug-In . SVG Version: 6.00 Build 0)  -->
<svg version="1.1" id="Layer_1" xmlns="http://www.w3.org/2000/svg" xmlns:xlink="http://www.w3.org/1999/xlink" x="0px" y="0px"
	 viewBox="0 0 512 512" style="enable-background:new 0 0 512 512;" xml:space="preserve">
<g>
	<g>
		<path d="M489.121,315.561c-151.909,59.68-326.162,39.72-462.423-60.915c-11.447-8.46-27.616,0.417-26.611,14.627l11.561,163.542
			c0.894,12.654,15.061,19.757,25.737,12.873c39.207-25.277,93.969-60.513,120.777-77.615l56.672,133.73
			c4.952,11.69,20.708,13.846,28.576,3.762l89.353-114.508c21.469,23.457,65.245,71.666,96.574,106.23
			c8.521,9.401,24.046,6.234,28.191-5.77l53.51-154.938C515.688,323.116,502.373,310.35,489.121,315.561z M43.012,402.283
			l-7.125-100.781c28.97,18.479,59.72,34.036,91.685,46.439C103.239,363.516,67.152,386.735,43.012,402.283z M234.533,462.587
			l-39.688-93.655c34.169,8.165,66.476,12.489,102.261,13.467L234.533,462.587z M435.139,453.912
			c-19.817-21.842-47.718-52.569-67.601-74.363c34.094-3.699,67.815-10.758,100.572-21.104L435.139,453.912z"/>
	</g>
</g>
<g>
	<g>
		<path d="M485.3,3.297C353.519,100.625,180.153,126.003,22.879,64.214C9.625,59.005-3.687,71.77,0.962,85.232l53.51,154.938
			c4.142,11.992,19.661,15.182,28.191,5.77c31.33-34.564,75.106-82.773,96.574-106.23l89.353,114.507
			c7.86,10.073,23.617,7.943,28.576-3.762l56.671-133.731c26.808,17.102,81.57,52.337,120.777,77.615
			c10.675,6.886,24.843-0.218,25.737-12.873l11.561-163.542C512.916,3.721,496.757-5.165,485.3,3.297z M76.861,202.564
			l-32.972-95.467c32.763,10.347,66.473,17.405,100.573,21.104C124.744,149.813,96.595,180.813,76.861,202.564z M277.466,211.238
			l-62.573-80.188c17.175-0.469,34.348-1.793,51.431-3.979c0.04-0.006,0.08-0.011,0.119-0.017c17.07-2.31,33.993-5.475,50.711-9.471
			L277.466,211.238z M468.988,150.936c-24.149-15.555-60.226-38.768-84.56-54.342c31.964-12.402,62.714-27.959,91.684-46.439
			L468.988,150.936z"/>
	</g>
</g>
<g>
</g>
<g>
</g>
<g>
</g>
<g>
</g>
<g>
</g>
<g>
</g>
<g>
</g>
<g>
</g>
<g>
</g>
<g>
</g>
<g>
</g>
<g>
</g>
<g>
</g>
<g>
</g>
<g>
</g>
</svg>
