<?xml version="1.0" encoding="iso-8859-1"?>
<!-- Generator: Adobe Illustrator 19.0.0, SVG Export Plug-In . SVG Version: 6.00 Build 0)  -->
<svg version="1.1" id="Layer_1" xmlns="http://www.w3.org/2000/svg" xmlns:xlink="http://www.w3.org/1999/xlink" x="0px" y="0px"
	 viewBox="0 0 490.667 490.667" style="enable-background:new 0 0 490.667 490.667;" xml:space="preserve">
<g>
	<g>
		<g>
			<path d="M405.333,0h-320C73.6,0,64,9.6,64,21.333v469.333h21.333v-64h320v64h21.333V21.333C426.667,9.6,417.067,0,405.333,0z
				 M85.333,213.333h149.333v149.333H85.333V213.333z M405.333,405.333h-320V384h320V405.333z M405.333,362.667H256V213.333h149.333
				V362.667z M405.333,192h-320V21.333h320V192z"/>
			
				<rect x="238.329" y="92.864" transform="matrix(0.9487 0.3163 -0.3163 0.9487 56.2065 -71.7063)" width="21.334" height="88.857"/>
			<rect x="288" y="96" width="21.333" height="85.333"/>
			<rect x="341.333" y="96" width="21.333" height="85.333"/>
		</g>
	</g>
</g>
<g>
</g>
<g>
</g>
<g>
</g>
<g>
</g>
<g>
</g>
<g>
</g>
<g>
</g>
<g>
</g>
<g>
</g>
<g>
</g>
<g>
</g>
<g>
</g>
<g>
</g>
<g>
</g>
<g>
</g>
</svg>
