<?xml version="1.0" encoding="iso-8859-1"?>
<!-- Generator: Adobe Illustrator 19.0.0, SVG Export Plug-In . SVG Version: 6.00 Build 0)  -->
<svg version="1.1" id="Layer_1" xmlns="http://www.w3.org/2000/svg" xmlns:xlink="http://www.w3.org/1999/xlink" x="0px" y="0px"
	 viewBox="0 0 426.676 426.676" style="enable-background:new 0 0 426.676 426.676;" xml:space="preserve">
<g>
	<g>
		<path d="M253.551,21.343h-29.653V10.996c0-5.333-3.84-10.133-9.067-10.88c-6.613-0.96-12.267,4.16-12.267,10.56v10.667h-29.653
			c-86.507,0-151.68,73.387-151.68,170.667v33.28c-0.107,9.6,5.44,18.24,14.187,22.187c8.533,3.947,18.56,2.453,25.6-3.84
			c0.64-0.64,1.28-1.28,1.813-2.027l5.653-8.427c0.533-0.427,0.96-0.747,1.28-0.96c0.747,0.533,1.493,1.067,2.133,1.707l8.64,7.573
			c11.84,10.453,29.76,9.707,40.747-1.6l3.413-3.52c3.307-3.307,8.64-3.307,11.84,0l2.453,2.453
			c11.307,11.627,31.253,11.627,42.453,0c0.427-0.427,0.747-0.747,1.067-1.28c0.853-1.173,2.133-2.027,3.627-2.133
			c1.387-0.107,2.773,0.427,3.84,1.493l12.587,12.8v155.627h-53.013c-5.333,0-10.133,3.84-10.88,9.067
			c-0.96,6.613,4.16,12.267,10.56,12.267h127.68c5.333,0,10.133-3.84,10.88-9.067c0.96-6.613-4.16-12.267-10.56-12.267h-53.333
			V249.716l14.72-14.933c2.773-2.88,7.147-3.307,10.453-1.173l9.067,5.973c5.44,5.227,12.8,8.107,20.373,8.107
			c8,0,15.68-3.307,21.227-9.067l2.133-2.24c1.6-1.6,3.733-2.56,5.973-2.56c2.24,0,4.373,0.96,5.973,2.56l1.92,2.027
			c5.547,5.973,13.333,9.28,21.44,9.067c7.893,0.107,15.36-2.987,20.907-8.64l6.187-5.653c0.427-0.533,0.853-0.853,1.493-1.173
			c0.427,0.107,2.773,0.747,6.507,4.693c5.333,5.76,13.653,7.68,21.013,4.8c7.36-2.88,12.267-10.027,12.16-18.027V192.01
			C405.231,94.729,340.058,21.343,253.551,21.343z M383.898,219.103c-5.867-5.227-12.053-7.787-18.24-7.893h-0.107
			c-6.187,0-12.16,2.667-16.32,7.253l-6.187,5.653c-1.6,1.707-3.733,2.56-5.973,2.56s-4.373-0.96-5.973-2.56l-1.92-2.027
			c-5.547-5.867-13.227-9.173-21.333-9.173c-8,0-15.787,3.2-21.333,9.067l-2.133,2.24c-1.6,1.6-3.733,2.56-5.973,2.56
			c-2.347,0-4.48-0.96-6.08-2.667c-0.533-0.533-1.067-0.96-1.707-1.387l-9.92-6.507c-11.84-7.68-27.413-5.973-37.333,4.053
			l-10.133,10.347l-8.107-8.213c-4.907-5.013-11.627-7.893-18.56-7.893c-0.64,0-1.387,0-2.027,0.107
			c-7.36,0.533-14.187,4.267-18.667,10.133c-3.307,2.88-8.32,2.773-11.52-0.427l-2.453-2.453c-11.307-11.627-31.147-11.627-42.453,0
			l-3.413,3.52c-3.093,3.2-8.107,3.413-11.413,0.427l-8.64-7.573c-11.2-9.92-21.333-9.92-32.533,0.107
			c-0.64,0.64-1.28,1.28-1.813,2.027l-5.44,8.107c-0.64,0.32-1.387,0.213-2.027-0.107c-1.067-0.427-1.707-1.493-1.707-2.667V192.33
			c0.107-86.72,54.933-149.653,130.453-149.653h80.64c75.52,0,130.347,62.933,130.347,149.653V219.103z"/>
	</g>
</g>
<g>
</g>
<g>
</g>
<g>
</g>
<g>
</g>
<g>
</g>
<g>
</g>
<g>
</g>
<g>
</g>
<g>
</g>
<g>
</g>
<g>
</g>
<g>
</g>
<g>
</g>
<g>
</g>
<g>
</g>
</svg>
