<?xml version="1.0" encoding="iso-8859-1"?>
<!-- Generator: Adobe Illustrator 19.0.0, SVG Export Plug-In . SVG Version: 6.00 Build 0)  -->
<svg version="1.1" id="Layer_1" xmlns="http://www.w3.org/2000/svg" xmlns:xlink="http://www.w3.org/1999/xlink" x="0px" y="0px"
	 viewBox="0 0 512 512" style="enable-background:new 0 0 512 512;" xml:space="preserve">
<g>
	<g>
		<g>
			<path d="M0,48v96h10.667v309.333c0,5.867,4.8,10.667,10.667,10.667C27.2,464,32,459.2,32,453.333V432h448v21.333
				C480,459.2,484.8,464,490.667,464c5.867,0,10.667-4.8,10.667-10.667V144H512V48H0z M480,410.667H32V144h448V410.667z
				 M490.667,122.667H21.333V69.333h469.333V122.667z"/>
			<path d="M64,400h384c5.867,0,10.667-4.8,10.667-10.667V282.667c0-5.867-4.8-10.667-10.667-10.667H64
				c-5.867,0-10.667,4.8-10.667,10.667v106.667C53.333,395.2,58.133,400,64,400z M74.667,293.333h362.667v85.333H74.667V293.333z"/>
			<path d="M277.333,261.333H448c5.867,0,10.667-4.8,10.667-10.667v-85.333c0-5.867-4.8-10.667-10.667-10.667H277.333
				c-5.867,0-10.667,4.8-10.667,10.667v85.333C266.667,256.533,271.467,261.333,277.333,261.333z M288,176h149.333v64H288V176z"/>
			<path d="M64,261.333h170.667c5.867,0,10.667-4.8,10.667-10.667v-85.333c0-5.867-4.8-10.667-10.667-10.667H64
				c-5.867,0-10.667,4.8-10.667,10.667v85.333C53.333,256.533,58.133,261.333,64,261.333z M74.667,176H224v64H74.667V176z"/>
			<path d="M144,186.667c-8.853,0-16,7.147-16,16s7.147,16,16,16s16-7.147,16-16S152.853,186.667,144,186.667z"/>
			<path d="M368,186.667c-8.853,0-16,7.147-16,16s7.147,16,16,16c8.853,0,16-7.147,16-16S376.853,186.667,368,186.667z"/>
			<path d="M250.667,314.667c-8.853,0-16,7.147-16,16s7.147,16,16,16s16-7.147,16-16S259.52,314.667,250.667,314.667z"/>
		</g>
	</g>
</g>
<g>
</g>
<g>
</g>
<g>
</g>
<g>
</g>
<g>
</g>
<g>
</g>
<g>
</g>
<g>
</g>
<g>
</g>
<g>
</g>
<g>
</g>
<g>
</g>
<g>
</g>
<g>
</g>
<g>
</g>
</svg>
