<?xml version="1.0" encoding="iso-8859-1"?>
<!-- Generator: Adobe Illustrator 19.0.0, SVG Export Plug-In . SVG Version: 6.00 Build 0)  -->
<svg version="1.1" id="Layer_1" xmlns="http://www.w3.org/2000/svg" xmlns:xlink="http://www.w3.org/1999/xlink" x="0px" y="0px"
	 viewBox="0 0 512 512" style="enable-background:new 0 0 512 512;" xml:space="preserve">
<path style="fill:#FF883E;" d="M386.723,62.638L305.021,503.83h32.681c18.05,0,32.681-14.631,32.681-32.681
	c15.15-199.728,49.021-207.523,49.021-408.511H386.723z"/>
<path style="fill:#FFB88B;" d="M337.702,471.149c15.15-199.728,49.021-207.523,49.021-408.511H92.596
	c0,200.987,33.872,208.783,49.021,408.511c0,18.05,14.631,32.681,32.681,32.681h130.723
	C323.071,503.83,337.702,489.199,337.702,471.149z"/>
<path style="fill:#FFE1AA;" d="M354.043,8.17l-21.787,98.043l54.468-43.574V40.851C386.723,22.801,372.091,8.17,354.043,8.17z"/>
<path style="fill:#FFF5E3;" d="M329.532,19.246c-5.988-6.788-14.747-11.076-24.511-11.076c-9.764,0-18.522,4.288-24.511,11.076
	C274.522,12.458,265.764,8.17,256,8.17c-9.764,0-18.522,4.288-24.511,11.076c-5.988-6.788-14.747-11.076-24.511-11.076
	s-18.522,4.288-24.511,11.076C176.48,12.458,167.721,8.17,157.957,8.17c-18.05,0-32.681,14.631-32.681,32.681v21.787l228.766,43.574
	V8.17C344.279,8.17,335.52,12.458,329.532,19.246z"/>
<path style="fill:#FFCD71;" d="M354.043,62.638l-33.655,76.255l65.362-21.787c0.631-16.442,0.974-34.454,0.974-54.468H354.043z"/>
<path style="fill:#FFE1AA;" d="M125.277,62.638c0,20.014,0.343,38.026,0.974,54.468l226.817,32.681l0.974-87.149H125.277z"/>
<path style="fill:#533672;" d="M353.069,117.106L256,279.286l51.675,159.182h32.681c6.779-72.209,16.115-118.123,24.469-159.182
	c9.593-47.149,18.117-89.054,20.923-162.18H353.069z"/>
<path style="fill:#8C3B5C;" d="M353.069,117.106H126.25c2.806,73.126,11.33,115.032,20.924,162.181
	c8.354,41.058,17.69,86.971,24.469,159.181h136.031c6.779-72.209,16.115-118.123,24.469-159.182
	C341.738,232.138,350.261,190.232,353.069,117.106z"/>
<path d="M419.404,54.468h-24.511V40.851C394.894,18.325,376.568,0,354.043,0c-8.904,0-17.495,2.916-24.511,8.181
	C322.516,2.916,313.926,0,305.021,0s-17.495,2.916-24.511,8.181C273.495,2.916,264.904,0,256,0s-17.495,2.916-24.511,8.181
	C224.474,2.916,215.883,0,206.979,0s-17.495,2.916-24.511,8.181C175.453,2.916,166.862,0,157.957,0
	c-22.526,0-40.851,18.325-40.851,40.851v13.617H92.596c-4.513,0-8.17,3.657-8.17,8.17c0,113.138,10.528,164.88,22.718,224.794
	c9.216,45.289,19.659,96.613,26.304,184.043C133.623,493.851,151.881,512,174.298,512h163.404c22.417,0,40.675-18.149,40.85-40.524
	c6.646-87.431,17.089-138.754,26.304-184.043c12.191-59.914,22.719-111.656,22.719-224.794
	C427.574,58.125,423.917,54.468,419.404,54.468z M133.447,40.851c0-13.515,10.996-24.511,24.511-24.511
	c7.024,0,13.725,3.028,18.383,8.311c1.551,1.758,3.783,2.766,6.128,2.766s4.576-1.008,6.128-2.766
	c4.658-5.282,11.359-8.311,18.383-8.311s13.725,3.028,18.383,8.311c1.551,1.758,3.783,2.766,6.128,2.766s4.576-1.008,6.128-2.766
	c4.658-5.282,11.359-8.311,18.383-8.311c7.024,0,13.725,3.028,18.383,8.311c1.551,1.758,3.783,2.766,6.128,2.766
	s4.576-1.008,6.128-2.766c4.658-5.282,11.359-8.311,18.383-8.311s13.725,3.028,18.383,8.311c1.551,1.758,3.783,2.766,6.128,2.766
	c2.344,0,4.576-1.008,6.128-2.766c4.658-5.282,11.359-8.311,18.383-8.311c13.515,0,24.511,10.996,24.511,24.511v13.617H133.447
	V40.851z M377.859,108.936H134.136c-0.375-11.839-0.604-24.503-0.669-38.128h245.064C378.466,84.421,378.236,97.087,377.859,108.936
	z M388.843,284.173c-9.322,45.81-19.885,97.732-26.608,186.357c-0.016,0.205-0.023,0.412-0.023,0.618
	c0,13.515-10.996,24.511-24.511,24.511H174.298c-13.515,0-24.511-10.996-24.511-24.511c0-0.206-0.008-0.413-0.023-0.618
	c-6.722-88.625-17.286-140.548-26.608-186.357c-11.717-57.584-21.875-107.518-22.371-213.365h16.342
	c0.448,94.417,8.669,143.315,18.546,192.818c0.883,4.425,5.185,7.293,9.611,6.414c4.425-0.883,7.295-5.186,6.414-9.611
	c-7.606-38.117-14.213-75.881-16.931-135.152h242.457c-3.104,67.337-11.265,107.461-20.406,152.381
	c-8.044,39.527-17.124,84.146-23.885,152.64H179.066c-6.046-61.246-13.922-103.159-20.877-137.791
	c-0.888-4.424-5.193-7.282-9.619-6.402c-4.425,0.888-7.29,5.195-6.402,9.619c7.149,35.605,15.285,78.992,21.343,143.508
	c0.393,4.198,3.918,7.407,8.134,7.407h168.711c4.216,0,7.74-3.208,8.134-7.407c6.745-71.844,16.094-117.785,24.343-158.317
	c11.541-56.718,21.544-105.907,22.041-210.106h16.343C410.719,176.655,400.56,226.589,388.843,284.173z"/>
<circle cx="212.491" cy="364.936" r="8.17"/>
<circle cx="245.172" cy="397.617" r="8.17"/>
<circle cx="312.222" cy="157.957" r="8.17"/>
<g>
</g>
<g>
</g>
<g>
</g>
<g>
</g>
<g>
</g>
<g>
</g>
<g>
</g>
<g>
</g>
<g>
</g>
<g>
</g>
<g>
</g>
<g>
</g>
<g>
</g>
<g>
</g>
<g>
</g>
</svg>
