<?xml version="1.0" encoding="iso-8859-1"?>
<!-- Generator: Adobe Illustrator 17.1.0, SVG Export Plug-In . SVG Version: 6.00 Build 0)  -->
<!DOCTYPE svg PUBLIC "-//W3C//DTD SVG 1.1//EN" "http://www.w3.org/Graphics/SVG/1.1/DTD/svg11.dtd">
<svg version="1.1" id="Capa_1" xmlns="http://www.w3.org/2000/svg" xmlns:xlink="http://www.w3.org/1999/xlink" x="0px" y="0px"
	 viewBox="0 0 405.061 405.061" style="enable-background:new 0 0 405.061 405.061;" xml:space="preserve">
<path id="XMLID_1_" d="M105.765,288.878h193.531c4.971,0,9-4.029,9-9s-4.029-9-9-9h-13.353V104.205c0-4.971-4.029-9-9-9h-3.858
	L273.087,9c0-4.971-4.029-9-9-9c-4.97,0-9,4.029-9,9l-0.002,95.205c0,2.387,0.948,4.676,2.636,6.364
	c1.688,1.688,3.977,2.636,6.364,2.636h3.858v157.673h-30.229V62.17c0-3.196-1.696-6.153-4.455-7.768
	c-2.759-1.614-6.167-1.644-8.954-0.078l-55.731,31.32c-2.836,1.594-4.591,4.593-4.591,7.846v11.352c0,4.971,4.029,9,9,9s9-4.029,9-9
	v-6.086l37.731-21.204v193.326h-28.776V138.021c0-4.971-4.029-9-9-9h-49.41c-4.971,0-9,4.029-9,9v132.857h-17.763
	c-4.971,0-9,4.029-9,9S100.794,288.878,105.765,288.878z M141.528,147.021h31.41v123.857h-31.41V147.021z M369.18,309.08
	c0,52.924-43.055,95.98-95.978,95.98H131.86c-52.923,0-95.979-43.057-95.979-95.98c0-33.65,18.101-65.297,47.24-82.589
	c4.273-2.539,9.796-1.13,12.333,3.146c2.537,4.274,1.128,9.796-3.146,12.332c-23.702,14.066-38.426,39.781-38.426,67.11
	c0,42.999,34.981,77.98,77.979,77.98h141.343c42.997,0,77.978-34.981,77.978-77.98c0-27.328-14.724-53.043-38.426-67.107
	c-4.275-2.537-5.684-8.059-3.147-12.333c2.537-4.274,8.058-5.683,12.333-3.147C351.079,243.784,369.18,275.43,369.18,309.08z
	 M306.108,308.059c4.845,1.112,7.87,5.941,6.757,10.786c-4.529,19.718-22.481,34.028-42.687,34.028H134.881
	c-20.203,0-38.154-14.311-42.684-34.027c-1.113-4.845,1.912-9.674,6.756-10.787c4.846-1.116,9.673,1.912,10.787,6.756
	c2.67,11.623,13.244,20.059,25.141,20.059h135.297c11.9,0,22.474-8.436,25.144-20.058
	C296.435,309.971,301.265,306.941,306.108,308.059z"/>
<g>
</g>
<g>
</g>
<g>
</g>
<g>
</g>
<g>
</g>
<g>
</g>
<g>
</g>
<g>
</g>
<g>
</g>
<g>
</g>
<g>
</g>
<g>
</g>
<g>
</g>
<g>
</g>
<g>
</g>
</svg>
