<?xml version="1.0" encoding="iso-8859-1"?>
<!-- Generator: Adobe Illustrator 19.0.0, SVG Export Plug-In . SVG Version: 6.00 Build 0)  -->
<svg version="1.1" id="Layer_1" xmlns="http://www.w3.org/2000/svg" xmlns:xlink="http://www.w3.org/1999/xlink" x="0px" y="0px"
	 viewBox="0 0 512 512" style="enable-background:new 0 0 512 512;" xml:space="preserve">
<path style="fill:#FFD155;" d="M472.178,477.38H39.822C17.864,477.38,0,459.515,0,437.557V136.772
	c0-9.425,7.641-17.067,17.067-17.067h477.867c9.425,0,17.067,7.641,17.067,17.067v300.785
	C512,459.515,494.136,477.38,472.178,477.38z"/>
<path style="fill:#FFBE00;" d="M494.933,119.706H256.008V477.38h216.17c21.958,0,39.822-17.864,39.822-39.822V136.772
	C512,127.347,504.359,119.706,494.933,119.706z"/>
<path style="fill:#8DC3E9;" d="M512,153.839H0V74.443C0,52.449,17.829,34.62,39.822,34.62h432.356
	C494.171,34.62,512,52.449,512,74.443V153.839z"/>
<g>
	<circle style="fill:#FFE49C;" cx="71.805" cy="94.231" r="12.836"/>
	<circle style="fill:#FFE49C;" cx="112.959" cy="94.231" r="12.836"/>
	<circle style="fill:#FFE49C;" cx="154.112" cy="94.231" r="12.836"/>
	<path style="fill:#FFE49C;" d="M403.574,212.505l-59.548,15.956c-12.685,3.4-16.921,19.283-7.652,28.554l9.728,9.728
		l-56.761,56.761l-53.305-53.304c-6.664-6.665-17.471-6.665-24.136,0L91.942,390.16c-6.665,6.665-6.665,17.471,0,24.136
		c6.663,6.665,17.469,6.665,24.136,0L223.97,306.402l53.305,53.304c6.664,6.665,17.472,6.665,24.136,0l68.83-68.83l9.728,9.728
		c9.243,9.244,25.139,5.085,28.554-7.65l15.955-59.548C427.91,220.573,416.066,209.153,403.574,212.505z"/>
</g>
<path style="fill:#48AEE2;" d="M512,74.443c0-21.993-17.829-39.822-39.822-39.822h-216.17v119.219H512V74.443z"/>
<path style="fill:#FFD155;" d="M403.574,212.505l-59.548,15.956c-12.685,3.399-16.921,19.283-7.652,28.554l9.728,9.728
	l-56.761,56.761l-33.335-33.335v48.271l21.266,21.266c6.664,6.665,17.472,6.665,24.136,0l68.83-68.83l9.728,9.728
	c9.255,9.256,25.144,5.065,28.554-7.65l15.955-59.548C427.924,220.525,416.031,209.162,403.574,212.505z"/>
<g>
</g>
<g>
</g>
<g>
</g>
<g>
</g>
<g>
</g>
<g>
</g>
<g>
</g>
<g>
</g>
<g>
</g>
<g>
</g>
<g>
</g>
<g>
</g>
<g>
</g>
<g>
</g>
<g>
</g>
</svg>
