<?xml version="1.0" encoding="iso-8859-1"?>
<!-- Generator: Adobe Illustrator 19.0.0, SVG Export Plug-In . SVG Version: 6.00 Build 0)  -->
<svg version="1.1" id="Layer_1" xmlns="http://www.w3.org/2000/svg" xmlns:xlink="http://www.w3.org/1999/xlink" x="0px" y="0px"
	 viewBox="0 0 511.999 511.999" style="enable-background:new 0 0 511.999 511.999;" xml:space="preserve">
<g>
	<g>
		<path d="M417.997,159.96c-13.891-23.55-32.802-43.847-55.207-59.385l-46.11,79.867c18.332,14.943,30.62,36.194,34.386,59.474
			h92.245C441.019,211.723,432.385,184.347,417.997,159.96z"/>
	</g>
</g>
<g>
	<g>
		<path d="M290.358,345.052c-10.931,4.187-22.588,6.363-34.358,6.363c-11.77,0-23.426-2.176-34.358-6.363l-46.114,79.873
			c25.038,11.894,52.572,18.129,80.472,18.129s55.433-6.234,80.472-18.129L290.358,345.052z"/>
	</g>
</g>
<g>
	<g>
		<path d="M149.21,100.576c-22.405,15.536-41.316,35.835-55.208,59.384c-14.387,24.388-23.023,51.764-25.313,79.956h92.245
			c3.766-23.278,16.054-44.53,34.387-59.473L149.21,100.576z"/>
	</g>
</g>
<g>
	<g>
		<path d="M437.018,74.981C388.667,26.629,324.38,0,255.999,0S123.333,26.629,74.981,74.981C26.628,123.332,0,187.62,0,255.999
			s26.629,132.668,74.981,181.019c48.351,48.351,112.639,74.98,181.019,74.98s132.668-26.629,181.019-74.98
			s74.98-112.639,74.98-181.019S485.371,123.333,437.018,74.981z M288.583,255.124c0,17.966-14.617,32.584-32.584,32.584
			s-32.584-14.617-32.584-32.584s14.617-32.584,32.584-32.584S288.583,237.158,288.583,255.124z M37.655,270.334v-15.209
			c0-38.935,10.425-77.188,30.148-110.621c19.129-32.426,46.455-59.542,79.025-78.419l13.18-7.64l76.234,132.04l-13.135,7.614
			c-20.342,11.791-32.978,33.643-32.978,57.025v15.209H37.655z M365.171,444.164c-33.078,19.172-70.828,29.305-109.172,29.305
			c-38.343,0-76.094-10.133-109.171-29.305l-13.136-7.613l76.234-132.04l13.181,7.64c9.985,5.787,21.358,8.847,32.893,8.847
			c11.535,0,22.909-3.06,32.893-8.847l13.181-7.64l76.234,132.04L365.171,444.164z M321.872,270.333v-15.209
			c0-23.384-12.636-45.234-32.978-57.025l-13.135-7.614l76.234-132.04l13.18,7.64c32.57,18.877,59.896,45.993,79.025,78.419
			c19.724,33.434,30.149,71.685,30.149,110.621v15.209H321.872z"/>
	</g>
</g>
<g>
</g>
<g>
</g>
<g>
</g>
<g>
</g>
<g>
</g>
<g>
</g>
<g>
</g>
<g>
</g>
<g>
</g>
<g>
</g>
<g>
</g>
<g>
</g>
<g>
</g>
<g>
</g>
<g>
</g>
</svg>
