<?xml version="1.0" encoding="iso-8859-1"?>
<!-- Generator: Adobe Illustrator 19.0.0, SVG Export Plug-In . SVG Version: 6.00 Build 0)  -->
<svg version="1.1" id="Layer_1" xmlns="http://www.w3.org/2000/svg" xmlns:xlink="http://www.w3.org/1999/xlink" x="0px" y="0px"
	 viewBox="0 0 512 512" style="enable-background:new 0 0 512 512;" xml:space="preserve">
<g>
	<rect x="10.199" y="68.049" style="fill:#73C1DD;" width="186.911" height="375.902"/>
	<rect x="197.11" y="203.096" style="fill:#73C1DD;" width="279.397" height="240.854"/>
</g>
<path style="fill:#D35B38;" d="M197.106,141.512h288.015c9.212,0,16.68,7.468,16.68,16.68v28.227c0,9.212-7.468,16.68-16.68,16.68
	H197.106L197.106,141.512L197.106,141.512z"/>
<rect x="269.188" y="327.374" style="fill:#666666;" width="135.231" height="116.577"/>
<g>
	<rect x="239.997" y="244.893" style="fill:#F2F2F2;" width="193.622" height="41.791"/>
	<rect x="51.99" y="307.577" style="fill:#F2F2F2;" width="101.176" height="41.791"/>
</g>
<polygon style="fill:#FFAD61;" points="103.68,110.01 117.417,152.289 161.872,152.289 125.908,178.418 139.644,220.697 
	103.68,194.568 67.717,220.697 81.453,178.418 45.489,152.289 89.944,152.289 "/>
<g>
	<path style="fill:#4D3D36;" d="M476.506,454.151c5.633,0,10.199-4.567,10.199-10.199V213.249
		C500.791,212.425,512,200.71,512,186.421v-28.228c0-14.821-12.057-26.879-26.879-26.879H207.305V68.048
		c0-5.632-4.566-10.199-10.199-10.199H10.199C4.566,57.848,0,62.416,0,68.048v375.905c0,5.632,4.566,10.199,10.199,10.199
		L476.506,454.151L476.506,454.151z M186.907,433.752H20.398V78.247h166.508V433.752z M347.033,433.752v-34.891
		c0-5.632-4.566-10.199-10.199-10.199s-10.199,4.567-10.199,10.199v34.891h-47.247v-96.178h114.837v96.178H347.033z
		 M466.307,433.752h-51.684V327.375c0-5.632-4.566-10.199-10.199-10.199H269.189c-5.633,0-10.199,4.567-10.199,10.199v106.378
		h-51.684V213.3h259.002L466.307,433.752L466.307,433.752z M491.602,186.421c0,3.573-2.908,6.481-6.481,6.481h-8.615H207.305
		v-41.189h277.816c3.573,0,6.481,2.908,6.481,6.481V186.421z"/>
	<path style="fill:#4D3D36;" d="M239.997,296.883h193.618c5.633,0,10.199-4.567,10.199-10.199v-41.792
		c0-5.632-4.566-10.199-10.199-10.199H239.997c-5.633,0-10.199,4.567-10.199,10.199v41.792
		C229.798,292.316,234.364,296.883,239.997,296.883z M250.197,255.091h173.219v21.394H250.197V255.091z"/>
	<path style="fill:#4D3D36;" d="M153.171,297.38H51.991c-5.633,0-10.199,4.567-10.199,10.199v41.792
		c0,5.632,4.566,10.199,10.199,10.199h101.18c5.633,0,10.199-4.567,10.199-10.199v-41.792
		C163.37,301.947,158.804,297.38,153.171,297.38z M142.971,339.172H62.191v-21.394h80.782v21.394H142.971z"/>
	<path style="fill:#4D3D36;" d="M161.872,142.089h-37.044l-11.448-35.23c-1.366-4.203-5.282-7.048-9.7-7.048s-8.335,2.846-9.7,7.048
		l-11.448,35.23H45.488c-4.418,0-8.335,2.846-9.7,7.048c-1.365,4.202,0.131,8.806,3.705,11.403l29.969,21.774l-11.448,35.232
		c-1.365,4.202,0.131,8.806,3.705,11.403c3.575,2.598,8.415,2.598,11.99,0l29.969-21.774l29.969,21.774
		c1.787,1.298,3.891,1.948,5.995,1.948s4.207-0.65,5.995-1.948c3.575-2.597,5.07-7.201,3.705-11.403l-11.448-35.232l29.969-21.774
		c3.575-2.597,5.07-7.201,3.705-11.403C170.206,144.934,166.29,142.089,161.872,142.089z M116.208,181.569l4.037,12.427
		l-10.569-7.679c-1.787-1.298-3.891-1.948-5.995-1.948c-2.104,0-4.207,0.65-5.995,1.948l-10.569,7.678l4.037-12.426
		c1.365-4.202-0.131-8.806-3.705-11.403l-10.569-7.679h13.064c4.418,0,8.335-2.846,9.7-7.048l4.037-12.426l4.037,12.426
		c1.366,4.203,5.282,7.048,9.7,7.048h13.064l-10.569,7.679C116.338,172.764,114.843,177.367,116.208,181.569z"/>
	<path style="fill:#4D3D36;" d="M336.834,353.468c-5.633,0-10.199,4.567-10.199,10.199v2.199c0,5.632,4.566,10.199,10.199,10.199
		s10.199-4.567,10.199-10.199v-2.199C347.033,358.035,342.467,353.468,336.834,353.468z"/>
</g>
<g>
</g>
<g>
</g>
<g>
</g>
<g>
</g>
<g>
</g>
<g>
</g>
<g>
</g>
<g>
</g>
<g>
</g>
<g>
</g>
<g>
</g>
<g>
</g>
<g>
</g>
<g>
</g>
<g>
</g>
</svg>
