<?xml version="1.0" encoding="iso-8859-1"?>
<!-- Generator: Adobe Illustrator 17.1.0, SVG Export Plug-In . SVG Version: 6.00 Build 0)  -->
<!DOCTYPE svg PUBLIC "-//W3C//DTD SVG 1.1//EN" "http://www.w3.org/Graphics/SVG/1.1/DTD/svg11.dtd">
<svg version="1.1" id="Capa_1" xmlns="http://www.w3.org/2000/svg" xmlns:xlink="http://www.w3.org/1999/xlink" x="0px" y="0px"
	 viewBox="0 0 242.667 242.667" style="enable-background:new 0 0 242.667 242.667;" xml:space="preserve">
<path d="M0,0v242.667h242.667V0H0z M165.505,188.298c-5.267,4.088-10.369,5.991-16.058,5.991c-4.593,0-9.62-1.264-15.821-3.977
	c-5.376-2.352-11.737-6.944-18.473-11.806c-8.317-6.004-16.917-12.213-24.106-14.443c-4.486-1.393-9.839-2.099-15.909-2.099
	c-7.299,0-13.065,1.052-13.123,1.062l-0.512,0.095l-0.074-0.516c-0.043-0.304-1.042-7.541,0.912-15.057
	c1.984-7.633,7.064-13.466,17.701-23.652c9.582-9.178,37.441-44.402,42.532-50.865c-2.893,0.467-10.248,1.519-17.798,1.519
	c-12.4,0-19.752-2.708-21.851-8.051c-5.021-12.779,8.248-25.194,8.383-25.318l0.297-0.273l0.331,0.233
	c0.057,0.04,5.876,4.034,23.514,7.121c3.149,0.551,6.993,0.83,11.424,0.83c17.563,0,39.209-4.386,39.426-4.431l0.622-0.127
	l-0.022,0.635c-0.003,0.088-0.345,8.896-3.945,16.998c-2.472,5.561-10.314,13.777-20.243,24.18
	c-4.726,4.95-10.081,10.562-15.568,16.631c-15.029,16.626-31.708,35.136-35.314,39.139c2.505,0.165,9.212,0.932,19.051,4.488
	c4.936,1.783,10.571,5.245,16.536,8.909c9.063,5.568,18.436,11.325,25.774,11.325c11.994,0,19.576-5.983,19.651-6.044l0.71-0.57
	l0.101,0.904C173.738,161.914,175.667,180.412,165.505,188.298z"/>
<g>
</g>
<g>
</g>
<g>
</g>
<g>
</g>
<g>
</g>
<g>
</g>
<g>
</g>
<g>
</g>
<g>
</g>
<g>
</g>
<g>
</g>
<g>
</g>
<g>
</g>
<g>
</g>
<g>
</g>
</svg>
