<?xml version="1.0" encoding="iso-8859-1"?>
<!-- Generator: Adobe Illustrator 19.0.0, SVG Export Plug-In . SVG Version: 6.00 Build 0)  -->
<svg version="1.1" id="Layer_1" xmlns="http://www.w3.org/2000/svg" xmlns:xlink="http://www.w3.org/1999/xlink" x="0px" y="0px"
	 viewBox="0 0 502.519 502.519" style="enable-background:new 0 0 502.519 502.519;" xml:space="preserve">
<g transform="translate(1 1)">
	<g>
		<g>
			<path d="M316.63,425.667H183.889c-5.689,0-9.482,3.793-9.482,9.482c0,5.689,3.793,9.481,9.482,9.481H316.63
				c5.689,0,9.482-3.793,9.482-9.481C326.111,429.459,322.319,425.667,316.63,425.667z"/>
			<path d="M316.63,387.741H183.889c-5.689,0-9.482,3.793-9.482,9.481c0,5.689,3.793,9.482,9.482,9.482H316.63
				c5.689,0,9.482-3.793,9.482-9.482C326.111,391.533,322.319,387.741,316.63,387.741z"/>
			<path d="M352.308,132.415c-4.202-40.565-14.967-83.024-41.368-128.674C309.044,0.896,306.2-1,302.407-1H199.059
				c-3.793,0-6.637,1.896-8.533,4.741c-25.821,43.572-36.989,86.838-41.649,128.242c-32.047,21.021-50.321,56.404-50.321,93.625
				v152.652c0,68.267,54.993,123.259,123.259,123.259h56.889c68.267,0,123.259-54.993,123.259-123.259V225.607
				C401.963,187.72,383.944,153.442,352.308,132.415z M203.8,17.963v0.948h91.97c30.962,53.479,38.421,102.78,39.822,150.229v48.882
				v26.548v8.533c0,37.926-30.341,68.267-68.267,68.267h-34.133c-37.926,0-68.267-30.341-68.267-68.267v-8.533v-21.807v-45.664
				C166.201,126.588,173.385,72.276,203.8,17.963z M383,378.259c0,57.837-46.459,104.296-104.296,104.296h-56.889
				c-57.837,0-104.296-46.459-104.296-104.296V225.607c0-25.6,10.43-50.252,28.444-67.319c0,0,0,12.853,0,18.867
				c-0.373,15.608-0.211,30.843,0,45.607c0,9.491,0,18.235,0,21.807c0,1.398,0,8.533,0,8.533c0,3.778,0.237,7.498,0.698,11.146
				c0.184,1.459,0.404,2.907,0.659,4.342c0.127,0.718,0.263,1.432,0.408,2.144c8.102,39.835,43.154,69.598,85.465,69.598h34.133
				c21.156,0,40.496-7.441,55.561-19.861c0.538-0.444,1.071-0.894,1.598-1.35c1.054-0.912,2.086-1.85,3.094-2.811
				c1.009-0.961,1.994-1.947,2.955-2.955c1.442-1.513,2.83-3.078,4.161-4.692c0.444-0.538,0.881-1.081,1.312-1.63
				c0.862-1.098,1.697-2.217,2.506-3.356c0.809-1.139,1.591-2.299,2.346-3.479s1.481-2.379,2.18-3.596
				c0.349-0.609,0.691-1.222,1.026-1.841c0.67-1.236,1.31-2.491,1.921-3.762c5.496-11.446,8.571-24.296,8.571-37.896v-8.533v-26.548
				c0.234-16.408,0.468-32.99,0-49.846v-9.887C372.57,176.304,383,200.007,383,225.607V378.259z"/>
		</g>
	</g>
</g>
<g>
</g>
<g>
</g>
<g>
</g>
<g>
</g>
<g>
</g>
<g>
</g>
<g>
</g>
<g>
</g>
<g>
</g>
<g>
</g>
<g>
</g>
<g>
</g>
<g>
</g>
<g>
</g>
<g>
</g>
</svg>
