<?xml version="1.0" encoding="iso-8859-1"?>
<!-- Generator: Adobe Illustrator 19.0.0, SVG Export Plug-In . SVG Version: 6.00 Build 0)  -->
<svg version="1.1" id="Layer_1" xmlns="http://www.w3.org/2000/svg" xmlns:xlink="http://www.w3.org/1999/xlink" x="0px" y="0px"
	 viewBox="0 0 502.613 502.613" style="enable-background:new 0 0 502.613 502.613;" xml:space="preserve">
<g transform="translate(1 1)">
	<g>
		<g>
			<path d="M250.307-1C127.427-1,2.84,22.04,2.84,67.267v307.2c0,45.227,124.587,68.267,247.467,68.267
				c8.572,0,17.65-0.005,26.453-0.398v47.332c0,3.413,1.707,6.827,4.267,9.387c1.707,1.707,4.267,2.56,6.827,2.56
				c0.853,0,1.707,0,3.413-0.853l26.453-7.68c58.88-16.213,114.347-46.933,159.573-87.893l13.653-12.8
				c4.267-3.413,6.827-8.533,6.827-14.507V71.533V70.68c0-1.187,0-2.018,0-3.413C497.773,22.04,373.187-1,250.307-1z
				 M250.307,16.067c136.533,0,221.867,27.307,229.547,47.787c-9.387,9.387-18.773,17.92-29.013,26.453
				c-41.813,17.067-118.613,28.16-200.533,28.16c-142.507,0-230.4-29.867-230.4-51.2C19.907,45.933,107.8,16.067,250.307,16.067z
				 M275.907,425.667c-8.533,0-17.067,0-25.6,0c-142.507,0-230.4-29.867-230.4-51.2V94.107c13.683,9.843,34.85,17.951,60.79,24.302
				c10.33,2.553,21.412,4.818,33.077,6.796v10.329c0,5.12,3.413,8.533,8.533,8.533s8.533-3.413,8.533-8.533v-7.698
				c33.296,4.659,70.325,7.184,107.599,7.626c0.284,0.003,0.568,0.006,0.852,0.01c1.472,0.016,2.944,0.029,4.417,0.039
				c0.434,0.003,0.867,0.006,1.301,0.009c1.766,0.009,3.533,0.016,5.299,0.016c2.423,0,4.838-0.012,7.249-0.029
				c0.553-0.004,1.106-0.009,1.659-0.014c5.042-0.044,10.055-0.127,15.034-0.246c0.04-0.001,0.079-0.002,0.119-0.003
				c49.838-1.2,96.268-6.119,133.806-14.215c-37.547,22.187-77.653,38.4-120.32,47.787l-11.947,2.56V425.667z M479,379.587
				l-13.653,12.8c-43.52,39.253-96.427,68.267-152.747,84.48l-19.627,5.973v-40.96V185.027c35.665-7.535,70.145-20.102,102.4-37.168
				v4.742c0,5.12,3.413,8.533,8.533,8.533c5.12,0,8.533-3.413,8.533-8.533v-14.317c16.041-9.524,31.452-20.197,46.096-31.95
				c0.561-0.223,1.139-0.441,1.691-0.666l1.707-0.853c5.973-5.376,11.947-10.752,17.92-16.128V377.88
				C479.853,378.733,479.853,378.733,479,379.587z"/>
			<path d="M135.107,80.067c17.067,5.12,54.613,12.8,114.347,12.8c13.653,0,27.307,0,40.96-1.707
				c23.893-1.707,54.613-8.533,70.827-11.947c5.973-1.707,10.24-6.827,10.24-12.8s-4.267-11.093-10.24-12.8
				c-17.067-4.267-54.613-11.947-111.787-11.947c-58.88,0-97.28,7.68-114.347,12.8c-5.973,1.707-10.24,6.827-10.24,12.8
				S129.133,78.36,135.107,80.067z M249.453,58.733c40.96,0,71.68,4.267,91.307,7.68c-15.36,2.56-35.84,6.827-52.053,7.68
				c-12.8,0.853-25.6,1.707-39.253,1.707c-43.52,0-75.093-4.267-94.72-8.533C174.36,63,205.933,58.733,249.453,58.733z"/>
			<path d="M403.907,383c-5.12,0-8.533,3.413-8.533,8.533V408.6c0,5.12,3.413,8.533,8.533,8.533c5.12,0,8.533-3.413,8.533-8.533
				v-17.067C412.44,386.413,409.027,383,403.907,383z"/>
			<path d="M403.907,280.6c-5.12,0-8.533,3.413-8.533,8.533V306.2c0,5.12,3.413,8.533,8.533,8.533c5.12,0,8.533-3.413,8.533-8.533
				v-17.067C412.44,284.013,409.027,280.6,403.907,280.6z"/>
			<path d="M403.907,178.2c-5.12,0-8.533,3.413-8.533,8.533V203.8c0,5.12,3.413,8.533,8.533,8.533c5.12,0,8.533-3.413,8.533-8.533
				v-17.067C412.44,181.613,409.027,178.2,403.907,178.2z"/>
			<path d="M403.907,229.4c-5.12,0-8.533,3.413-8.533,8.533V255c0,5.12,3.413,8.533,8.533,8.533c5.12,0,8.533-3.413,8.533-8.533
				v-17.067C412.44,232.813,409.027,229.4,403.907,229.4z"/>
			<path d="M403.907,331.8c-5.12,0-8.533,3.413-8.533,8.533V357.4c0,5.12,3.413,8.533,8.533,8.533c5.12,0,8.533-3.413,8.533-8.533
				v-17.067C412.44,335.213,409.027,331.8,403.907,331.8z"/>
			<path d="M122.307,161.133c-5.12,0-8.533,3.413-8.533,8.533v17.067c0,5.12,3.413,8.533,8.533,8.533s8.533-3.413,8.533-8.533
				v-17.067C130.84,164.547,127.427,161.133,122.307,161.133z"/>
			<path d="M122.307,263.533c-5.12,0-8.533,3.413-8.533,8.533v17.067c0,5.12,3.413,8.533,8.533,8.533s8.533-3.413,8.533-8.533
				v-17.067C130.84,266.947,127.427,263.533,122.307,263.533z"/>
			<path d="M122.307,212.333c-5.12,0-8.533,3.413-8.533,8.533v17.067c0,5.12,3.413,8.533,8.533,8.533s8.533-3.413,8.533-8.533
				v-17.067C130.84,215.747,127.427,212.333,122.307,212.333z"/>
			<path d="M122.307,314.733c-5.12,0-8.533,3.413-8.533,8.533v17.067c0,5.12,3.413,8.533,8.533,8.533s8.533-3.413,8.533-8.533
				v-17.067C130.84,318.147,127.427,314.733,122.307,314.733z"/>
			<path d="M122.307,365.933c-5.12,0-8.533,3.413-8.533,8.533v17.067c0,5.12,3.413,8.533,8.533,8.533s8.533-3.413,8.533-8.533
				v-17.067C130.84,369.347,127.427,365.933,122.307,365.933z"/>
		</g>
	</g>
</g>
<g>
</g>
<g>
</g>
<g>
</g>
<g>
</g>
<g>
</g>
<g>
</g>
<g>
</g>
<g>
</g>
<g>
</g>
<g>
</g>
<g>
</g>
<g>
</g>
<g>
</g>
<g>
</g>
<g>
</g>
</svg>
