<?xml version="1.0" encoding="iso-8859-1"?>
<!-- Generator: Adobe Illustrator 17.1.0, SVG Export Plug-In . SVG Version: 6.00 Build 0)  -->
<!DOCTYPE svg PUBLIC "-//W3C//DTD SVG 1.1//EN" "http://www.w3.org/Graphics/SVG/1.1/DTD/svg11.dtd">
<svg version="1.1" id="Capa_1" xmlns="http://www.w3.org/2000/svg" xmlns:xlink="http://www.w3.org/1999/xlink" x="0px" y="0px"
	 viewBox="0 0 470 470" style="enable-background:new 0 0 470 470;" xml:space="preserve">
<g>
	<path d="M262.365,448.595C262.277,448.947,262.47,448.277,262.365,448.595L262.365,448.595z"/>
	<path d="M207.635,448.595C207.53,448.277,207.723,448.947,207.635,448.595L207.635,448.595z"/>
	<path d="M317.636,142.5h-49.543v-23.724c9.061-8.748,14.483-20.959,14.483-34.219c0-23.681-17.394-43.372-40.076-46.979V7.5
		c0-4.143-3.358-7.5-7.5-7.5s-7.5,3.357-7.5,7.5v30.078c-22.682,3.608-40.076,23.298-40.076,46.979
		c0,13.26,5.422,25.47,14.483,34.219V142.5h-49.543c-39.094,0-70.899,31.805-70.899,70.898s31.805,70.898,70.899,70.898h49.543
		v22.091c-11.357,9.623-18.33,23.971-18.33,39.306c0,4.174,0.51,8.356,1.515,12.433l22.543,90.469
		C210.771,461.197,222.002,470,235,470s24.229-8.803,27.365-21.405l22.543-90.469c1.005-4.076,1.515-8.259,1.515-12.433
		c0-15.334-6.973-29.683-18.33-39.306v-22.091h49.543c39.094,0,70.899-31.805,70.899-70.898S356.729,142.5,317.636,142.5z
		 M301.517,213.398c0,31.993-12.776,55.898-24.199,55.898H242.5V157.5h34.818C288.741,157.5,301.517,181.405,301.517,213.398z
		 M216.907,128.565c1.163,0.476,2.352,0.911,3.565,1.3c3.942,1.26,8.167-0.908,9.431-4.854s-0.909-8.167-4.854-9.432
		c-4.023-1.289-7.641-3.31-10.756-5.868c-0.149-0.128-0.305-0.249-0.464-0.365c-7.098-6.047-11.405-15.003-11.405-24.789
		c0-17.963,14.613-32.576,32.576-32.576s32.576,14.613,32.576,32.576c0,9.786-4.308,18.742-11.405,24.789
		c-0.159,0.116-0.315,0.237-0.464,0.365c-3.116,2.558-6.734,4.579-10.756,5.868c-3.945,1.265-6.118,5.486-4.854,9.432
		c1.02,3.184,3.967,5.213,7.14,5.213c0.758,0,1.53-0.116,2.291-0.359c1.214-0.389,2.402-0.824,3.565-1.3V142.5h-36.186V128.565z
		 M96.465,213.398c0-30.822,25.076-55.898,55.899-55.898h15.729c-6.762,9.645-11.648,23.453-13.656,39.995
		c-0.499,4.111,2.43,7.85,6.542,8.349c0.307,0.037,0.611,0.056,0.913,0.056c3.739,0,6.974-2.792,7.436-6.598
		c3.175-26.166,14.368-41.802,23.354-41.802H227.5v111.797h-34.818c-8.986,0-20.178-15.636-23.354-41.802
		c-0.499-4.112-4.236-7.031-8.349-6.542c-4.112,0.499-7.041,4.237-6.542,8.349c2.007,16.542,6.894,30.35,13.656,39.995h-15.729
		C121.542,269.297,96.465,244.221,96.465,213.398z M253.093,297.569c-3.808-1.313-7.999,0.617-9.446,4.409
		c-1.477,3.87,0.462,8.205,4.333,9.682c14.022,5.353,23.443,19.029,23.443,34.034c0,2.964-0.363,5.938-1.075,8.826
		c-0.221,0.891-22.076,88.798-22.491,90.453C246.387,450.876,241.094,455,235,455s-11.387-4.124-12.856-10.027
		c-0.415-1.655-22.27-89.563-22.491-90.453c-0.712-2.888-1.075-5.862-1.075-8.826c0-15.005,9.421-28.682,23.443-34.034
		c3.87-1.477,5.81-5.812,4.333-9.682c-1.447-3.791-5.638-5.722-9.446-4.409v-13.272h36.186V297.569z M317.636,269.297h-15.752
		c1.621-2.323,3.146-4.894,4.557-7.715c6.498-12.996,10.076-30.107,10.076-48.184s-3.579-35.188-10.076-48.184
		c-1.411-2.821-2.936-5.392-4.557-7.715h15.752c30.823,0,55.899,25.076,55.899,55.898S348.458,269.297,317.636,269.297z"/>
</g>
<g>
</g>
<g>
</g>
<g>
</g>
<g>
</g>
<g>
</g>
<g>
</g>
<g>
</g>
<g>
</g>
<g>
</g>
<g>
</g>
<g>
</g>
<g>
</g>
<g>
</g>
<g>
</g>
<g>
</g>
</svg>
