<?xml version="1.0" encoding="iso-8859-1"?>
<!-- Generator: Adobe Illustrator 19.0.0, SVG Export Plug-In . SVG Version: 6.00 Build 0)  -->
<svg version="1.1" id="Capa_1" xmlns="http://www.w3.org/2000/svg" xmlns:xlink="http://www.w3.org/1999/xlink" x="0px" y="0px"
	 viewBox="0 0 297 297" style="enable-background:new 0 0 297 297;" xml:space="preserve">
<g>
	<path d="M247.5,20c0-11.046-8.954-20-20-20h-158c-11.046,0-20,8.954-20,20v257c0,11.046,8.954,20,20,20h158
		c11.046,0,20-8.954,20-20V20z M119.818,56.83l8.156-4.105l4.105-8.156l9.114,0.515l7.639-4.998l7.639,4.998l9.115-0.514
		l4.105,8.156l8.156,4.105l-0.514,9.115l4.997,7.638l-4.997,7.638l0.513,9.114l-8.156,4.106l-4.104,8.155l-9.115-0.514l-7.638,4.997
		l-7.638-4.998l-9.115,0.515l-4.105-8.156l-8.156-4.104l0.514-9.115l-4.997-7.638l4.997-7.639L119.818,56.83z M193.633,208.377
		c-5.277-0.046-10.06-2.086-13.681-5.377H159.5v17.787c9,5.933,15,16.343,15,28.218V255h-14.775H153.6h-5.825
		c-36.202,0-65.55-29.297-65.55-65.499c0-36.203,29.348-65.501,65.55-65.501H159.5v17h5.543c14.722,0,26.841,11.339,27.072,26h1.694
		l-0.011,0.114c0.063,0,0.124-0.009,0.187-0.008c11.395,0.099,20.556,9.413,20.458,20.81
		C214.347,199.313,205.029,208.47,193.633,208.377z"/>
</g>
<g>
</g>
<g>
</g>
<g>
</g>
<g>
</g>
<g>
</g>
<g>
</g>
<g>
</g>
<g>
</g>
<g>
</g>
<g>
</g>
<g>
</g>
<g>
</g>
<g>
</g>
<g>
</g>
<g>
</g>
</svg>
