<?xml version="1.0" encoding="iso-8859-1"?>
<!-- Generator: Adobe Illustrator 19.0.0, SVG Export Plug-In . SVG Version: 6.00 Build 0)  -->
<svg version="1.1" id="Layer_1" xmlns="http://www.w3.org/2000/svg" xmlns:xlink="http://www.w3.org/1999/xlink" x="0px" y="0px"
	 viewBox="0 0 512 512" style="enable-background:new 0 0 512 512;" xml:space="preserve">
<g>
	<g>
		<path d="M375.07,23.814H208.372C93.476,23.814,0,117.29,0,232.186v17.86l261.953,0.001v101.208
			c0,75.503,61.427,136.93,136.93,136.93H512V160.744C512,85.241,450.573,23.814,375.07,23.814z M297.674,60.603
			c49.223,5.907,83.349,36.179,83.349,76.327s-34.125,70.42-83.349,76.326V60.603z M36.627,214.326
			c1.862-18.232,6.574-35.847,13.909-52.324c21.502,9.989,37.196,29.351,42.627,52.324H36.627z M261.953,214.326H129.55
			c-5.744-36.098-28.621-67.145-61.088-83.352c5.337-7.345,11.283-14.326,17.827-20.869c32.608-32.61,75.965-50.569,122.082-50.569
			h53.581V214.326z M476.279,452.465h-77.395c-55.807,0-101.209-45.402-101.209-101.209V250.048v-0.886
			c30.98-2.995,58.872-13.76,79.849-31.113c25.292-20.924,39.22-49.732,39.22-81.119c0-29.434-12.25-56.601-34.633-77.123
			c52.531,3.63,94.167,47.499,94.167,100.937V452.465z"/>
	</g>
</g>
<g>
	<g>
		<path d="M339.349,113.116c-13.126,0-23.809,10.681-23.814,23.814c0,13.131,10.682,23.814,23.812,23.814h0.002
			c13.131,0,23.814-10.683,23.814-23.814C363.163,123.799,352.48,113.116,339.349,113.116z"/>
	</g>
</g>
<g>
</g>
<g>
</g>
<g>
</g>
<g>
</g>
<g>
</g>
<g>
</g>
<g>
</g>
<g>
</g>
<g>
</g>
<g>
</g>
<g>
</g>
<g>
</g>
<g>
</g>
<g>
</g>
<g>
</g>
</svg>
