<?xml version="1.0" encoding="iso-8859-1"?>
<!-- Generator: Adobe Illustrator 19.0.0, SVG Export Plug-In . SVG Version: 6.00 Build 0)  -->
<svg version="1.1" id="Layer_1" xmlns="http://www.w3.org/2000/svg" xmlns:xlink="http://www.w3.org/1999/xlink" x="0px" y="0px"
	 viewBox="0 0 507.6 507.6" style="enable-background:new 0 0 507.6 507.6;" xml:space="preserve">
<path style="fill:#EEEEEE;" d="M266.2,5.6H251c-102,0-186.8,71.6-186.8,162v98c0,29.6,20.8,56,49.2,64.8c0.4-0.8,0.4-1.2,1.2-1.2
	c1.2,0,1.6,0.8,1.6,2V394c0,56.4,112,107.2,130.8,107.2h23.2c18,0,122-50.8,122-107.2v-62.8c0-1.2,2-2,3.2-2s2.4,0.8,2.4,1.6h-0.4
	c28.4-8.4,47.2-34.8,47.2-65.2v-96V168C444.2,75.6,367,5.6,266.2,5.6z"/>
<g>
	<path style="fill:#616161;" d="M326.6,272l15.2,7.6c4.4,2.4,9.2,3.6,13.6,3.6c11.6,0,20.4-8.8,22-22.4l1.2-11.6
		c1.2-9.6-1.6-18.4-7.6-25.6s-14.4-11.6-24-12l-17.6-1.2c-1.2,0-2.4,0-3.6,0c-18,0-32,9.2-32,21.2C293.8,244.4,309,263.2,326.6,272z
		"/>
	<path style="fill:#616161;" d="M258.6,279.6c-11.2,0-21.2,34-21.6,54c0-0.4-0.8-1.2-0.8-1.6v2h0.8l0,0c0,4,0.8,5.6,2.4,7.2
		c1.6,1.2,3.6,1.6,7.6,1.6c1.6,0,3.2,0,4.8,0c2,0,4,0,6.4,0s4.4,0,6.4,0c1.6,0,3.2,0.4,4.8,0.4c6.8,0,10-0.8,10.4-8.8l0,0
		C279.8,313.6,269.8,279.6,258.6,279.6z"/>
	<path style="fill:#616161;" d="M144.6,261.2c1.6,13.6,10.4,22.4,22,22.4c4.4,0,8.8-1.2,13.6-3.6l15.2-7.6
		c17.6-8.8,32.8-27.6,32.8-40.8c0-12-14-21.2-32-21.2c-1.2,0-2.4,0-3.6,0l-17.6,1.2c-9.6,0.8-18,4.8-24,12s-8.8,16.4-7.6,25.6
		L144.6,261.2z"/>
</g>
<path d="M113.4,337.2c-0.4,0-0.8,0-1.2,0c-32-9.2-54.4-38.8-54.4-71.2v-98c0-92.8,86.4-168,192.8-168h15.2c103.2,0,184,74,184,168
	v98c0,33.6-20.4,62-51.2,71.2c-2,0.8-4.4-0.4-4.8-2.8c-0.8-2,0.4-4.4,2.8-4.8c27.2-8,45.2-33.6,45.2-63.6v-98c0-90-77.2-160-176-160
	h-15.2C148.6,8,65.8,80,65.8,168v98c0,28.8,20,55.2,48.4,63.6c2,0.8,3.2,2.8,2.8,4.8C117,336,115.4,337.2,113.4,337.2z"/>
<path d="M270.2,507.6H247c-20,0-136.8-52.8-136.8-113.2v-80.8c0-2.4,1.6-4,4-4s4,1.6,4,4v80.8c0,54.8,110.4,105.2,128.8,105.2h23.2
	c16.8,0,120-50.4,120-105.2v-80.8c0-2.4,1.6-4,4-4s4,1.6,4,4v80.8C398.2,456.4,289.4,507.6,270.2,507.6z"/>
<path d="M166.6,289.6c-4.4,0-8.8-1.2-12.8-3.2c-8.4-4.4-14-13.2-15.2-24.4l-1.6-11.6c-1.2-11.2,1.6-22,8.8-30.4s17.2-13.6,28-14.4
	l17.6-1.2c13.6-0.8,26.4,2.8,34.4,10.4c5.2,4.8,7.6,10.4,7.6,16.8c0,15.6-15.6,36-36,46.4l-15.2,7.6
	C177.4,288,171.8,289.6,166.6,289.6z M196.2,212c-1.2,0-2.4,0-3.6,0l-17.6,1.2c-8.8,0.8-16.8,4.8-22.4,11.6
	c-5.6,6.8-8,15.2-7.2,24.4l1.6,11.6c1.2,8.8,4.8,15.2,10.8,18.4s13.6,2.8,21.6-1.2l15.2-7.6c17.2-8.8,31.6-26.8,31.6-39.2
	c0-4.8-2.8-8.8-5.2-10.8C215.4,215.2,206.2,212,196.2,212z"/>
<path d="M355.4,289.6c-5.2,0-10.8-1.2-16-4l-15.2-7.6c-20-10.4-36-30.4-36-46.4c0-6.4,2.8-12,7.6-16.8c8-7.2,20.8-11.2,34.4-10.4
	l17.6,1.2c11.2,0.8,21.2,6,28,14.4s10,19.2,8.8,30.4L383,262c-1.2,11.2-6.8,20-15.2,24.4C364.2,288.4,359.8,289.6,355.4,289.6z
	 M325.8,212c-10,0-19.2,2.8-24.8,8.4c-2.4,2.4-5.2,6-5.2,10.8c0,12.4,14.4,30.4,31.6,39.2l15.2,7.6c7.6,4,15.2,4.4,21.6,1.2
	c6-3.2,10-9.6,10.8-18.4l1.6-11.6c1.2-8.8-1.6-17.6-7.2-24.4c-5.6-6.8-13.6-10.8-22.4-11.6l-17.6-1.2C328.2,212,327,212,325.8,212z"
	/>
<path d="M247.4,348c-4.8,0-9.2-0.8-12-3.6c-2.8-2.8-4-6.8-4-12.8c0-14.8,9.6-60.4,27.6-60.4c17.6,0,27.6,45.2,27.6,60.4
	c0,6-1.2,10-4,12.8c-4,4-10.4,3.6-17.2,3.6c-4,0-8.4,0-12,0C250.6,348,249,348,247.4,348z M258.6,279.6c-8.8,0-19.6,34.8-19.6,52.4
	c0,2.4,0.4,5.6,1.6,6.8c1.6,1.6,6.4,1.6,11.2,1.2c4,0,8.8,0,12.8,0c5.2,0.4,9.6,0.4,11.2-1.2c1.2-1.2,1.6-4.4,1.6-6.8
	C278.2,314.4,267.4,279.6,258.6,279.6z"/>
<path d="M254.2,413.6c-2.4,0-4-1.6-4-4v-12c0-2.4,1.6-4,4-4s4,1.6,4,4v12C258.2,412,256.6,413.6,254.2,413.6z"/>
<path d="M238.2,413.6c-2.4,0-4-1.6-4-4v-12c0-2.4,1.6-4,4-4s4,1.6,4,4v12C242.2,412,240.6,413.6,238.2,413.6z"/>
<path d="M270.2,413.6c-2.4,0-4-1.6-4-4v-12c0-2.4,1.6-4,4-4s4,1.6,4,4v12C274.2,412,272.6,413.6,270.2,413.6z"/>
<path d="M286.2,413.6c-2.4,0-4-1.6-4-4v-12c0-2.4,1.6-4,4-4s4,1.6,4,4v12C290.2,412,288.6,413.6,286.2,413.6z"/>
<path d="M222.2,413.6c-2.4,0-4-1.6-4-4v-12c0-2.4,1.6-4,4-4s4,1.6,4,4v12C226.2,412,224.6,413.6,222.2,413.6z"/>
<path d="M206.2,409.6c-2.4,0-4-1.6-4-4v-8c0-2.4,1.6-4,4-4s4,1.6,4,4v8C210.2,408,208.6,409.6,206.2,409.6z"/>
<path d="M302.2,409.6c-2.4,0-4-1.6-4-4v-8c0-2.4,1.6-4,4-4s4,1.6,4,4v8C306.2,408,304.6,409.6,302.2,409.6z"/>
<path d="M291.8,415.6h-67.6c-18.8,0-46-12.4-46-32v-25.2l-39.6-14c-2-0.8-3.2-3.2-2.4-5.2s3.2-3.2,5.2-2.4l42,14.8
	c1.6,0.4,2.8,2,2.8,3.6v28c0,13.6,23.2,24,38,24h67.6c10.4,0,34.8-2,34.8-21.2l0.4-31.2c0-1.6,1.2-3.2,2.8-3.6l42.8-14.4
	c2-0.8,4.4,0.4,5.2,2.4s-0.4,4.4-2.4,5.2l-40,13.2V386C334.2,404.8,318.2,415.6,291.8,415.6z"/>
<path d="M115,315.6c-0.4,0-0.8,0-1.2-0.4c-21.6-7.6-35.6-27.2-35.6-49.6v-98c0-81.6,77.6-148,172.8-148h15.2c2,0,46,1.2,68.4,14.4
	c2,1.2,2.4,3.6,1.6,5.6c-1.2,2-3.6,2.4-5.6,1.6c-20.8-12.4-64-13.6-64.4-13.6H251c-90.8,0-164.8,62.8-164.8,140v98
	c0,19.2,11.6,35.2,30.4,42c2,0.8,3.2,3.2,2.4,5.2C118.2,314.4,117,315.6,115,315.6z M394.6,315.6c-1.6,0-3.2-1.2-3.6-2.8
	c-0.8-2,0.4-4.4,2.4-5.2c18-6.4,28.8-22,28.8-42v-98c0-36.4-12.8-69.2-36.4-94c-1.6-1.6-1.6-4,0-5.6s4-1.6,5.6,0
	c25.2,26.4,38.8,60.8,38.8,99.6v98c0,23.2-13.2,42-34,49.6C395.4,315.6,395,315.6,394.6,315.6z"/>
<g>
</g>
<g>
</g>
<g>
</g>
<g>
</g>
<g>
</g>
<g>
</g>
<g>
</g>
<g>
</g>
<g>
</g>
<g>
</g>
<g>
</g>
<g>
</g>
<g>
</g>
<g>
</g>
<g>
</g>
</svg>
