<?xml version="1.0" encoding="iso-8859-1"?>
<!-- Generator: Adobe Illustrator 19.0.0, SVG Export Plug-In . SVG Version: 6.00 Build 0)  -->
<svg version="1.1" id="Layer_1" xmlns="http://www.w3.org/2000/svg" xmlns:xlink="http://www.w3.org/1999/xlink" x="0px" y="0px"
	 viewBox="0 0 508 508" style="enable-background:new 0 0 508 508;" xml:space="preserve">
<path style="fill:#EF5350;" d="M284.2,302.8l-9.6-8l0,0l0,0L25,45.2L16.2,54l417.6,417.2L284.2,302.8z"/>
<path style="fill:#BF360C;" d="M487.4,496.4c3.6-4,6-8.8,5.6-14.4c0-4.8-2-9.2-4.8-13.2l-28.4,28.4
	C468.2,503.6,479.8,503.6,487.4,496.4z"/>
<path style="fill:#EF5350;" d="M457,494.4l28.4-28.4l0,0L284.6,303.2L434.2,472L457,494.4z"/>
<polygon style="fill:#FFCDD2;" points="433.8,471.2 455.4,495.6 457,494.4 "/>
<rect x="31.58" y="37.614" transform="matrix(0.7071 0.7071 -0.7071 0.7071 70.1645 -42.1648)" style="fill:#B2DFDB;" width="108.799" height="52"/>
<path style="fill:#D32F2F;" d="M16.2,45.2c-1.2,1.2-1.6,2.8-1.6,4.4c0,0.8,0,1.6,0.4,2c0.4,0.8,225.2,226.4,225.6,226.8l8.8-8.8
	C249,269.2,24.6,44.4,23.8,44C21.4,42.8,18.2,43.2,16.2,45.2z"/>
<path d="M457,501.2c-1.2,0-2-0.4-2.8-1.2L12.2,58c-1.6-1.6-1.6-4,0-5.6s4-1.6,5.6,0l442,442c1.6,1.6,1.6,4,0,5.6
	C459,500.8,457.8,501.2,457,501.2z"/>
<path d="M473.4,508c-6.8,0-14-2.8-19.2-8c-1.6-1.6-1.6-4,0-5.6s4-1.6,5.6,0c7.2,7.2,19.2,7.6,26.4,0.4c3.6-3.6,5.2-8,5.2-12.8
	s-2-9.6-5.6-13.2c-0.4-0.4-0.8-0.8-1.6-1.2L273.8,296.8c-1.6-1.2-2-4-0.4-5.6c1.2-1.6,4-2,5.6-0.4l210.4,170.8c0.8,0.4,1.6,1.2,2,2
	c5.2,5.2,8,11.6,8,18.8c0,7.2-2.4,13.6-7.6,18.8C486.6,505.6,479.8,508,473.4,508z"/>
<path d="M37.8,58.8c-1.2,0-2-0.4-2.8-1.2c-1.6-1.6-1.6-4,0-5.6l28-28c1.6-1.6,4-1.6,5.6,0s1.6,4,0,5.6l-28,28
	C39.8,58.4,38.6,58.8,37.8,58.8z"/>
<path d="M60.6,81.6c-1.2,0-2-0.4-2.8-1.2c-1.6-1.6-1.6-4,0-5.6l28-28c1.6-1.6,4-1.6,5.6,0s1.6,4,0,5.6l-28,28
	C62.6,81.2,61.4,81.6,60.6,81.6z"/>
<path d="M83.4,104.4c-1.2,0-2-0.4-2.8-1.2c-1.6-1.6-1.6-4,0-5.6l28-28c1.6-1.6,4-1.6,5.6,0s1.6,4,0,5.6l-28,28
	C85.4,104,84.6,104.4,83.4,104.4z"/>
<path d="M71.8,93.2c-1.2,0-2-0.4-2.8-1.2c-1.6-1.6-1.6-4,0-5.6l28-28c1.6-1.6,4-1.6,5.6,0s1.6,4,0,5.6l-28,28
	C74.2,92.8,73,93.2,71.8,93.2z"/>
<path d="M49,70.4c-1.2,0-2-0.4-2.8-1.2c-1.6-1.6-1.6-4,0-5.6l28-28c1.6-1.6,4-1.6,5.6,0s1.6,4,0,5.6l-28,28C51,70,50.2,70.4,49,70.4
	z"/>
<path d="M95,116c-1.2,0-2-0.4-2.8-1.2c-1.6-1.6-1.6-4,0-5.6l28-28c1.6-1.6,4-1.6,5.6,0s1.6,4,0,5.6l-28,28C97,115.6,95.8,116,95,116
	z"/>
<path d="M106.2,127.2c-1.2,0-2-0.4-2.8-1.2L23.8,46.4c-1.6-1.6-1.6-4,0-5.6L63.4,1.2c1.6-1.6,4-1.6,5.6,0l79.6,79.6
	c0.8,0.8,1.2,1.6,1.2,2.8s-0.4,2-1.2,2.8L109,126C108.2,126.8,107,127.2,106.2,127.2z M32.2,43.6l74,74l34-34l-74-74L32.2,43.6z"/>
<path d="M457,501.2c-1.2,0-2-0.4-2.8-1.2c-1.6-1.6-1.6-4,0-5.6l27.6-27.6c1.6-1.6,4-1.6,5.6,0s1.6,4,0,5.6L459.8,500
	C459,500.8,457.8,501.2,457,501.2z"/>
<path d="M275.8,297.2c-1.2,0-2-0.4-2.8-1.2L23.4,46.4c-1.6-1.6-1.6-4,0-5.6s4-1.6,5.6,0l249.6,249.6c1.6,1.6,1.6,4,0,5.6
	C277.8,296.8,277,297.2,275.8,297.2z"/>
<path d="M15,59.2c-1.2,0-2-0.4-2.8-1.2c-2.4-2.4-3.6-5.2-3.6-8.4c0-3.2,1.2-6.4,3.6-8.4c4.4-4.4,12.4-4.4,17.2,0
	c1.6,1.6,1.6,4,0,5.6s-4,1.6-5.6,0s-4.4-1.6-6,0c-0.8,0.8-1.2,2-1.2,2.8c0,1.2,0.4,2,1.2,2.8c1.6,1.6,1.6,4,0,5.6
	C17,58.8,15.8,59.2,15,59.2z"/>
<g>
</g>
<g>
</g>
<g>
</g>
<g>
</g>
<g>
</g>
<g>
</g>
<g>
</g>
<g>
</g>
<g>
</g>
<g>
</g>
<g>
</g>
<g>
</g>
<g>
</g>
<g>
</g>
<g>
</g>
</svg>
