<?xml version="1.0" encoding="iso-8859-1"?>
<!-- Generator: Adobe Illustrator 19.0.0, SVG Export Plug-In . SVG Version: 6.00 Build 0)  -->
<svg version="1.1" id="Capa_1" xmlns="http://www.w3.org/2000/svg" xmlns:xlink="http://www.w3.org/1999/xlink" x="0px" y="0px"
	 viewBox="0 0 360 360" style="enable-background:new 0 0 360 360;" xml:space="preserve">
<g id="XMLID_221_">
	<path id="XMLID_222_" d="M346.175,123.925h-52.351V77.834L210.802,0H13.825v360h280v-53.347h52.351V123.925z M316.175,276.653h-210
		V153.925h210V276.653z"/>
	<path id="XMLID_225_" d="M154.401,233.807c-2.57,0-5.076-0.313-7.52-0.94c-2.444-0.625-4.669-1.393-6.674-2.303
		c-2.006-0.907-3.746-1.816-5.217-2.726c-1.473-0.908-2.491-1.646-3.055-2.209l-5.734,11.186c3.885,2.759,8.272,4.889,13.16,6.393
		c4.888,1.504,9.838,2.256,14.852,2.256c3.258,0,6.376-0.361,9.353-1.081c2.976-0.72,5.607-1.864,7.896-3.431
		c2.287-1.566,4.104-3.619,5.452-6.157c1.347-2.538,2.021-5.593,2.021-9.165c0-3.07-0.502-5.655-1.504-7.755
		c-1.003-2.1-2.429-3.901-4.277-5.405c-1.849-1.504-4.105-2.757-6.768-3.76c-2.664-1.002-5.625-1.942-8.883-2.82
		c-2.507-0.626-4.716-1.222-6.627-1.786c-1.913-0.563-3.494-1.189-4.747-1.88c-1.254-0.689-2.209-1.488-2.867-2.396
		c-0.658-0.908-0.987-2.053-0.987-3.432c0-2.381,0.877-4.23,2.632-5.546c1.754-1.316,4.418-1.974,7.99-1.974
		c2.005,0,3.978,0.251,5.922,0.752c1.942,0.502,3.744,1.113,5.405,1.833c1.66,0.721,3.07,1.457,4.23,2.209
		c1.159,0.752,1.958,1.348,2.397,1.786l5.734-10.528c-2.946-2.005-6.392-3.744-10.34-5.217c-3.948-1.472-8.272-2.209-12.972-2.209
		c-3.384,0-6.549,0.455-9.494,1.362c-2.946,0.909-5.531,2.242-7.755,3.995c-2.225,1.756-3.964,3.948-5.217,6.58
		c-1.254,2.632-1.88,5.641-1.88,9.024c0,2.57,0.391,4.779,1.175,6.627c0.783,1.849,1.958,3.478,3.525,4.888
		c1.565,1.41,3.525,2.632,5.875,3.666c2.35,1.034,5.123,1.99,8.319,2.867c2.632,0.752,5.013,1.442,7.144,2.068
		c2.13,0.627,3.948,1.315,5.452,2.067c1.504,0.752,2.663,1.631,3.478,2.632c0.813,1.004,1.222,2.226,1.222,3.666
		C165.117,231.52,161.545,233.807,154.401,233.807z"/>
	<polygon id="XMLID_226_" points="204.878,244.711 217.756,244.711 217.756,221.398 242.008,177.971 228.002,177.971 
		211.269,210.119 194.82,177.971 180.72,177.971 204.878,221.211 	"/>
	<path id="XMLID_227_" d="M270.865,233.807c-2.57,0-5.076-0.313-7.52-0.94c-2.444-0.625-4.669-1.393-6.674-2.303
		c-2.006-0.907-3.746-1.816-5.217-2.726c-1.473-0.908-2.491-1.646-3.055-2.209l-5.734,11.186c3.885,2.759,8.272,4.889,13.16,6.393
		c4.888,1.504,9.838,2.256,14.852,2.256c3.258,0,6.376-0.361,9.353-1.081c2.976-0.72,5.607-1.864,7.896-3.431
		c2.287-1.566,4.104-3.619,5.452-6.157c1.347-2.538,2.021-5.593,2.021-9.165c0-3.07-0.502-5.655-1.504-7.755
		c-1.003-2.1-2.429-3.901-4.277-5.405c-1.849-1.504-4.105-2.757-6.768-3.76c-2.664-1.002-5.625-1.942-8.883-2.82
		c-2.507-0.626-4.716-1.222-6.627-1.786c-1.913-0.563-3.494-1.189-4.747-1.88c-1.254-0.689-2.209-1.488-2.867-2.396
		c-0.658-0.908-0.987-2.053-0.987-3.432c0-2.381,0.877-4.23,2.632-5.546c1.754-1.316,4.418-1.974,7.99-1.974
		c2.005,0,3.978,0.251,5.922,0.752c1.942,0.502,3.744,1.113,5.405,1.833c1.66,0.721,3.07,1.457,4.23,2.209
		c1.159,0.752,1.958,1.348,2.397,1.786l5.734-10.528c-2.946-2.005-6.392-3.744-10.34-5.217c-3.948-1.472-8.272-2.209-12.972-2.209
		c-3.384,0-6.549,0.455-9.494,1.362c-2.946,0.909-5.531,2.242-7.755,3.995c-2.225,1.756-3.964,3.948-5.217,6.58
		c-1.254,2.632-1.88,5.641-1.88,9.024c0,2.57,0.391,4.779,1.175,6.627c0.783,1.849,1.957,3.478,3.525,4.888
		c1.565,1.41,3.525,2.632,5.875,3.666c2.35,1.034,5.123,1.99,8.319,2.867c2.632,0.752,5.013,1.442,7.144,2.068
		c2.13,0.627,3.948,1.315,5.452,2.067c1.504,0.752,2.663,1.631,3.478,2.632c0.814,1.004,1.222,2.226,1.222,3.666
		C281.581,231.52,278.009,233.807,270.865,233.807z"/>
</g>
<g>
</g>
<g>
</g>
<g>
</g>
<g>
</g>
<g>
</g>
<g>
</g>
<g>
</g>
<g>
</g>
<g>
</g>
<g>
</g>
<g>
</g>
<g>
</g>
<g>
</g>
<g>
</g>
<g>
</g>
</svg>
