<?xml version='1.0' encoding='iso-8859-1'?>
<svg version="1.1" xmlns="http://www.w3.org/2000/svg" viewBox="0 0 262.1 262.1" xmlns:xlink="http://www.w3.org/1999/xlink" enable-background="new 0 0 262.1 262.1">
  <path d="M192.646,57.343v-4.99c3.168-3.556,5.112-8.225,5.112-13.351c0-11.09-9.022-20.111-20.112-20.111  s-20.112,9.021-20.112,20.111c0,5.126,1.944,9.795,5.112,13.351v37.611l-16.596,21.145V33.463c3.168-3.556,5.112-8.225,5.112-13.351  C151.162,9.022,142.14,0,131.05,0s-20.111,9.022-20.111,20.112c0,5.126,1.943,9.795,5.111,13.351v77.646L99.455,89.965V52.353  c3.168-3.556,5.111-8.225,5.111-13.351c0-11.09-9.021-20.111-20.111-20.111s-20.112,9.021-20.112,20.111  c0,5.126,1.944,9.795,5.112,13.351v4.99H13.941v87.648c0,64.574,52.534,117.108,117.108,117.108s117.108-52.534,117.108-117.108  V57.343H192.646z M218.158,144.991c0,48.031-39.076,87.108-87.108,87.108s-87.108-39.077-87.108-87.108V87.343H59.26l71.79,91.469  l71.79-91.469h15.318V144.991z"/>
</svg>
