<?xml version="1.0" encoding="iso-8859-1"?>
<!-- Generator: Adobe Illustrator 19.0.0, SVG Export Plug-In . SVG Version: 6.00 Build 0)  -->
<svg version="1.1" id="Capa_1" xmlns="http://www.w3.org/2000/svg" xmlns:xlink="http://www.w3.org/1999/xlink" x="0px" y="0px"
	 viewBox="0 0 470 470" style="enable-background:new 0 0 470 470;" xml:space="preserve">
<g>
	<path d="M434.764,113.521L402.72,53.098c1.567-0.058,3.139-0.098,4.72-0.098c4.143,0,7.5-3.357,7.5-7.5s-3.357-7.5-7.5-7.5
		c-74.979,0-136.432,59.021-140.344,133.042h-9.602V7.5c0-4.143-3.357-7.5-7.5-7.5s-7.5,3.357-7.5,7.5v163.542H129.343H81.631
		c-27.463,0-49.806,22.343-49.806,49.806v54.457c0,4.143,3.357,7.5,7.5,7.5s7.5-3.357,7.5-7.5v-54.457
		c0-19.192,15.613-34.806,34.806-34.806h12.133c-8.792,8.986-14.227,21.271-14.227,34.806v94.668H55.23c-4.143,0-7.5,3.357-7.5,7.5
		v82.475l-13.707,13.706c-2.93,2.929-2.93,7.678-0.001,10.606c1.465,1.465,3.384,2.197,5.304,2.197c1.919,0,3.839-0.732,5.303-2.196
		L60.532,413.9c1.407-1.407,2.197-3.314,2.197-5.304v-78.081h32.711v74.975l-13.707,13.706c-2.929,2.93-2.929,7.678,0,10.607
		c1.465,1.464,3.385,2.196,5.304,2.196s3.839-0.732,5.304-2.196l15.903-15.903c1.406-1.407,2.196-3.314,2.196-5.304v-78.081h2.998
		h47.712c21.545,0,40.5-13.954,47.215-33.949h34.129V455h-15V319.067c0-4.143-3.357-7.5-7.5-7.5s-7.5,3.357-7.5,7.5V455h-12.5
		c-4.143,0-7.5,3.357-7.5,7.5s3.357,7.5,7.5,7.5h70c4.143,0,7.5-3.357,7.5-7.5s-3.357-7.5-7.5-7.5h-12.5V296.566h55.534
		c6.714,19.997,25.675,33.949,47.222,33.949h5.574v43.167l-13.707,13.706c-2.93,2.929-2.93,7.678-0.001,10.606
		c1.465,1.465,3.384,2.197,5.304,2.197c1.919,0,3.839-0.732,5.303-2.196l15.904-15.903c1.407-1.407,2.197-3.314,2.197-5.304v-46.273
		h30.136v43.167l-13.707,13.706c-2.929,2.93-2.929,7.678,0,10.607c1.465,1.464,3.385,2.196,5.304,2.196s3.839-0.732,5.304-2.196
		l15.903-15.903c1.406-1.407,2.196-3.314,2.196-5.304v-87.723c0-4.143-3.357-7.5-7.5-7.5h-37.636V159.834
		c0-6.189,1.033-12.261,3.025-18.007c5.37,9.228,15.133,14.484,25.219,14.483c4.6,0,9.265-1.091,13.604-3.392
		c6.877-3.647,11.922-9.754,14.205-17.195C439.162,128.281,438.411,120.396,434.764,113.521z M161.151,315.516h-12.134
		c5.177-5.278,9.216-11.715,11.645-18.949h31.471C186.295,307.934,174.428,315.516,161.151,315.516z M422.538,131.322
		c-1.108,3.611-3.556,6.574-6.893,8.344c-6.89,3.655-15.466,1.021-19.119-5.867l-14.078-26.547c-1.94-3.66-6.479-5.053-10.14-3.112
		c-3.659,1.94-5.053,6.48-3.112,10.14l5.799,10.935c-6.007,10.518-9.17,22.393-9.17,34.62v129.232c0,4.143,3.357,7.5,7.5,7.5h37.636
		v18.949h-50.71c-16.304,0-30.481-11.429-33.976-27.268v-18.477c0-4.143-3.357-7.5-7.5-7.5s-7.5,3.357-7.5,7.5v11.796H202.612
		c-0.042,0-40.197,0-40.197,0v-31.093c0-4.143-3.357-7.5-7.5-7.5s-7.5,3.357-7.5,7.5v37.774
		c-3.495,15.839-17.671,27.268-33.977,27.268h-10.498h-8.403v-94.668c0-19.192,15.613-34.806,34.806-34.806h14.48
		c1.887,16.373,14.354,29.572,30.374,32.551c3.236,17.408,18.538,30.631,36.869,30.631H244.4c20.678,0,37.5-16.822,37.5-37.5v-3.182
		c0-4.143-3.357-7.5-7.5-7.5s-7.5,3.357-7.5,7.5v3.182c0,12.406-10.094,22.5-22.5,22.5h-33.333c-12.406,0-22.5-10.094-22.5-22.5
		c0-4.143-3.357-7.5-7.5-7.5c-10.929,0-20.059-7.835-22.08-18.182H274.4c4.143,0,7.5-3.357,7.5-7.5
		c0-62.128,45.367-113.852,104.712-123.804l34.901,65.811C423.282,123.885,423.647,127.711,422.538,131.322z"/>
	<path d="M219.995,156.042c4.143,0,7.5-3.357,7.5-7.5V7.5c0-4.143-3.357-7.5-7.5-7.5s-7.5,3.357-7.5,7.5v141.042
		C212.495,152.685,215.853,156.042,219.995,156.042z"/>
</g>
<g>
</g>
<g>
</g>
<g>
</g>
<g>
</g>
<g>
</g>
<g>
</g>
<g>
</g>
<g>
</g>
<g>
</g>
<g>
</g>
<g>
</g>
<g>
</g>
<g>
</g>
<g>
</g>
<g>
</g>
</svg>
