<?xml version="1.0" encoding="iso-8859-1"?>
<!-- Generator: Adobe Illustrator 18.0.0, SVG Export Plug-In . SVG Version: 6.00 Build 0)  -->
<!DOCTYPE svg PUBLIC "-//W3C//DTD SVG 1.1//EN" "http://www.w3.org/Graphics/SVG/1.1/DTD/svg11.dtd">
<svg version="1.1" id="Capa_1" xmlns="http://www.w3.org/2000/svg" xmlns:xlink="http://www.w3.org/1999/xlink" x="0px" y="0px"
	 viewBox="0 0 224.039 224.039" style="enable-background:new 0 0 224.039 224.039;" xml:space="preserve">
<path d="M216.539,52.26h-64.434V27.599c0-4.142-3.357-7.5-7.5-7.5H75.631c-4.143,0-7.5,3.358-7.5,7.5V52.26H7.5
	c-4.143,0-7.5,3.358-7.5,7.5v136.68c0,4.142,3.357,7.5,7.5,7.5h209.039c4.143,0,7.5-3.358,7.5-7.5V59.76
	C224.039,55.618,220.682,52.26,216.539,52.26z M75.631,67.26h68.975h21.852v121.68H57.582V67.26H75.631z M83.131,35.099h53.975
	V52.26H83.131V35.099z M15,67.26h27.582v121.68H15V67.26z M209.039,188.94h-27.582V67.26h27.582V188.94z"/>
<g>
</g>
<g>
</g>
<g>
</g>
<g>
</g>
<g>
</g>
<g>
</g>
<g>
</g>
<g>
</g>
<g>
</g>
<g>
</g>
<g>
</g>
<g>
</g>
<g>
</g>
<g>
</g>
<g>
</g>
</svg>
