<?xml version="1.0" encoding="iso-8859-1"?>
<!-- Generator: Adobe Illustrator 19.0.0, SVG Export Plug-In . SVG Version: 6.00 Build 0)  -->
<svg version="1.1" id="Layer_1" xmlns="http://www.w3.org/2000/svg" xmlns:xlink="http://www.w3.org/1999/xlink" x="0px" y="0px"
	 viewBox="0 0 512 512" style="enable-background:new 0 0 512 512;" xml:space="preserve">
<path style="fill:#E6F6FF;" d="M87.183,128.014V67.696h320.709v60.318v120.636v47.021c0,51.208-41.526,92.734-92.734,92.734H179.917
	c-51.222,0-92.734-41.526-92.734-92.734L87.183,128.014L87.183,128.014z"/>
<g>
	<rect x="87.183" y="67.696" style="fill:#D2E3F7;" width="320.709" height="60.318"/>
	<path style="fill:#D2E3F7;" d="M481.452,388.405l-3.805,7.214c-15.765,29.948-46.803,48.685-80.638,48.685H98.066
		c-33.821,0-64.873-18.738-80.624-48.685l-3.805-7.214h166.28h135.241H481.452z"/>
</g>
<path d="M421.53,295.671v-33.383h20.92c38.351,0,69.55-31.201,69.55-69.55v-8.81c0-38.351-31.199-69.55-69.55-69.55h-20.92V67.696
	c0-7.532-6.105-13.637-13.637-13.637H87.183c-7.532,0-13.637,6.105-13.637,13.637v227.975c0,31.374,13.662,59.61,35.338,79.097
	H13.637c-4.779,0-9.209,2.502-11.678,6.595c-2.468,4.091-2.614,9.177-0.385,13.405l3.798,7.201
	c18.159,34.526,53.678,55.973,92.693,55.973H397.01c39.01,0,74.532-21.447,92.7-55.961l3.805-7.214
	c2.23-4.228,2.084-9.313-0.385-13.405c-2.468-4.093-6.899-6.595-11.678-6.595h-95.261
	C407.868,355.281,421.53,327.045,421.53,295.671z M484.725,183.927v8.81c0,23.31-18.965,42.276-42.276,42.276h-20.92v-93.361h20.92
	C465.761,141.651,484.725,160.616,484.725,183.927z M457.164,402.042c-14.539,17.943-36.478,28.625-60.154,28.625H98.066
	c-23.676,0-45.61-10.679-60.145-28.625H457.164z M179.917,374.768c-43.614,0-79.097-35.483-79.097-79.097v-154.02h158.493
	c7.532,0,13.637-6.105,13.637-13.637c0-7.532-6.105-13.637-13.637-13.637H100.821V81.333h293.434v46.681v120.636v47.02
	c0,43.614-35.483,79.097-79.097,79.097H179.917V374.768z"/>
<path d="M312.759,114.376h-5.878c-7.532,0-13.637,6.105-13.637,13.637c0,7.532,6.105,13.637,13.637,13.637h5.878
	c7.532,0,13.637-6.105,13.637-13.637C326.396,120.482,320.29,114.376,312.759,114.376z"/>
<g>
</g>
<g>
</g>
<g>
</g>
<g>
</g>
<g>
</g>
<g>
</g>
<g>
</g>
<g>
</g>
<g>
</g>
<g>
</g>
<g>
</g>
<g>
</g>
<g>
</g>
<g>
</g>
<g>
</g>
</svg>
