<?xml version="1.0" encoding="iso-8859-1"?>
<!-- Generator: Adobe Illustrator 19.0.0, SVG Export Plug-In . SVG Version: 6.00 Build 0)  -->
<svg version="1.1" id="Layer_1" xmlns="http://www.w3.org/2000/svg" xmlns:xlink="http://www.w3.org/1999/xlink" x="0px" y="0px"
	 viewBox="0 0 512 512" style="enable-background:new 0 0 512 512;" xml:space="preserve">
<path style="fill:#666666;" d="M258.945,11.043h-82.153c-34.663,0-62.766,28.092-62.766,62.755v91.83
	c0,12.003,9.729,21.721,21.721,21.721h240.507c11.992,0,21.721-9.717,21.721-21.721v-91.83c0-34.663-28.103-62.755-62.766-62.755"/>
<path style="fill:#666666;" d="M397.974,300.722H114.026c0-11.484,4.649-21.886,12.18-29.417c7.531-7.52,17.933-12.18,29.417-12.18
	h200.754C379.357,259.125,397.974,277.754,397.974,300.722z"/>
<g>
	<rect x="236.863" y="300.899" style="fill:#CCC2B8;" width="38.649" height="103.8"/>
	<rect x="236.863" y="187.348" style="fill:#CCC2B8;" width="38.649" height="71.777"/>
</g>
<g>
	<path style="fill:#666666;" d="M170.608,479.789c0,5.853-2.374,11.142-6.195,14.974c-3.832,3.821-9.121,6.195-14.974,6.195
		c-11.694,0-21.169-9.474-21.169-21.169c0-5.853,2.374-11.142,6.195-14.974c3.832-3.821,9.121-6.195,14.974-6.195
		s11.142,2.374,14.974,6.195C168.234,468.647,170.608,473.936,170.608,479.789z"/>
	<path style="fill:#666666;" d="M277.356,479.789c0,5.853-2.363,11.142-6.195,14.974c-3.832,3.821-9.132,6.195-14.974,6.195
		c-11.694,0-21.169-9.474-21.169-21.169c0-5.853,2.363-11.142,6.195-14.974c3.832-3.821,9.132-6.195,14.974-6.195
		c5.842,0,11.142,2.374,14.974,6.195C274.993,468.647,277.356,473.936,277.356,479.789z"/>
	<path style="fill:#666666;" d="M383.741,479.789c0,5.853-2.363,11.142-6.195,14.974c-3.832,3.821-9.132,6.195-14.974,6.195
		c-11.694,0-21.169-9.474-21.169-21.169c0-5.853,2.363-11.142,6.195-14.974c3.832-3.821,9.132-6.195,14.974-6.195
		c5.842,0,11.142,2.374,14.974,6.195C381.377,468.647,383.741,473.936,383.741,479.789z"/>
</g>
<path d="M376.254,198.391c18.066,0,32.763-14.698,32.763-32.763v-91.83C409.017,33.105,375.907,0,335.208,0
	c-6.098,0-11.043,4.945-11.043,11.043s4.945,11.043,11.043,11.043c28.52,0,51.723,23.198,51.723,51.712v91.83
	c0,5.888-4.79,10.678-10.678,10.678H275.512h-38.649H135.746c-5.888,0-10.678-4.79-10.678-10.678v-91.83
	c0-28.514,23.204-51.712,51.723-51.712h82.152c6.098,0,11.043-4.945,11.043-11.043S265.042,0,258.944,0h-82.152
	c-40.699,0-73.809,33.105-73.809,73.798v91.83c0,18.066,14.698,32.763,32.763,32.763h90.074v49.692h-70.198
	c-14.052,0-27.27,5.473-37.225,15.414c-9.941,9.938-15.414,23.16-15.414,37.226c0,6.098,4.944,11.043,11.043,11.043h111.794v81.892
	H203.36c-32.536,0-59.517,24.183-63.948,55.515c-4.751,1.551-9.112,4.203-12.766,7.846c-6.073,6.093-9.417,14.179-9.417,22.771
	c0,17.761,14.45,32.211,32.211,32.211c8.593,0,16.68-3.345,22.792-9.44c6.073-6.091,9.419-14.178,9.419-22.771
	c0-8.592-3.345-16.679-9.441-22.795c-3.071-3.062-6.651-5.428-10.547-7.023c3.866-19.489,21.09-34.229,41.697-34.229h33.503h8.279
	v33.776c-4.354,1.586-8.352,4.114-11.737,7.489c-6.08,6.081-9.428,14.171-9.428,22.782c0,17.761,14.449,32.211,32.211,32.211
	c8.593,0,16.68-3.345,22.782-9.429c6.08-6.08,9.428-14.171,9.428-22.782c0-8.61-3.348-16.701-9.44-22.795
	c-3.38-3.37-7.376-5.896-11.732-7.479v-33.773h8.285h33.504c20.561,0,37.757,14.673,41.674,34.098
	c-4.029,1.598-7.733,4.01-10.901,7.167c-6.079,6.081-9.427,14.172-9.427,22.782c0,17.761,14.45,32.211,32.211,32.211
	c8.592,0,16.679-3.345,22.782-9.429c6.081-6.081,9.429-14.172,9.429-22.782c0-8.609-3.348-16.7-9.441-22.795
	c-3.542-3.531-7.763-6.133-12.363-7.698c-4.377-31.393-31.385-55.639-63.964-55.639h-22.46v-81.892h111.42
	c6.098,0,11.043-4.945,11.043-11.043c0-29.025-23.615-52.64-52.64-52.64h-69.822v-49.692L376.254,198.391L376.254,198.391z
	 M156.616,486.943c-1.923,1.916-4.47,2.972-7.177,2.972c-5.584,0-10.126-4.542-10.126-10.126c0-2.705,1.056-5.255,2.948-7.154
	c1.923-1.916,4.471-2.972,7.178-2.972c2.705,0,5.254,1.056,7.153,2.948c1.917,1.923,2.973,4.472,2.973,7.178
	S158.511,485.043,156.616,486.943z M355.395,472.635c1.921-1.916,4.471-2.972,7.178-2.972c2.705,0,5.255,1.056,7.163,2.959
	c1.91,1.91,2.963,4.456,2.963,7.167s-1.051,5.256-2.951,7.155c-1.921,1.916-4.47,2.972-7.175,2.972
	c-5.584,0-10.126-4.542-10.126-10.126C352.447,477.077,353.498,474.531,355.395,472.635z M263.364,486.943
	c-1.921,1.916-4.47,2.972-7.177,2.972c-5.583,0-10.126-4.542-10.126-10.126c0-2.712,1.051-5.257,2.948-7.154
	c1.923-1.916,4.471-2.972,7.178-2.972c2.707,0,5.255,1.056,7.164,2.959c1.909,1.909,2.962,4.455,2.962,7.167
	C266.314,482.501,265.263,485.045,263.364,486.943z M247.906,393.657v-81.715h16.564v81.715H247.906z M384.868,289.68H127.113
	c1.514-3.916,3.842-7.507,6.896-10.56c5.78-5.773,13.456-8.951,21.614-8.951h81.24h38.649h80.865
	C369.333,270.168,380.431,278.274,384.868,289.68z M264.47,248.082h-16.564v-49.692h16.564V248.082z"/>
<path d="M292.808,22.085h4.234c6.098,0,11.043-4.945,11.043-11.043S303.14,0,297.042,0h-4.234c-6.098,0-11.043,4.945-11.043,11.043
	S286.709,22.085,292.808,22.085z"/>
<path d="M362.57,363.843h-87.056c-6.098,0-11.043-4.945-11.043-11.043s4.945-11.043,11.043-11.043h87.056
	c6.098,0,11.043,4.945,11.043,11.043S368.667,363.843,362.57,363.843z"/>
<g>
</g>
<g>
</g>
<g>
</g>
<g>
</g>
<g>
</g>
<g>
</g>
<g>
</g>
<g>
</g>
<g>
</g>
<g>
</g>
<g>
</g>
<g>
</g>
<g>
</g>
<g>
</g>
<g>
</g>
</svg>
