<?xml version="1.0" encoding="iso-8859-1"?>
<!-- Generator: Adobe Illustrator 19.0.0, SVG Export Plug-In . SVG Version: 6.00 Build 0)  -->
<svg version="1.1" id="Layer_1" xmlns="http://www.w3.org/2000/svg" xmlns:xlink="http://www.w3.org/1999/xlink" x="0px" y="0px"
	 viewBox="0 0 496 496" style="enable-background:new 0 0 496 496;" xml:space="preserve">
<g>
	<g>
		<g>
			<path d="M378.736,120c-5.392,0-10.288-3.456-12.624-9.136c-2.208-5.328-1.184-11.232,2.616-15.032
				c5.528-5.52,8.568-12.872,8.568-20.688c0-7.824-3.048-15.168-8.568-20.688l-15.192-15.192c-11.408-11.416-29.968-11.4-41.376,0
				c-3.784,3.808-9.696,4.84-15.36,2.488c-5.344-2.2-8.8-7.104-8.8-12.496C288,13.128,274.872,0,258.744,0h-21.488
				C221.128,0,208,13.128,208,29.264c0,5.392-3.456,10.288-9.136,12.624c-5.328,2.216-11.232,1.176-15.032-2.624
				c-11.408-11.408-29.968-11.408-41.384,0l-15.176,15.192c-5.536,5.52-8.576,12.864-8.576,20.688c0,7.816,3.04,15.168,8.568,20.688
				c3.8,3.8,4.824,9.704,2.48,15.368c-2.192,5.344-7.096,8.8-12.488,8.8C101.128,120,88,133.128,88,149.256v21.488
				C88,186.872,101.128,200,117.264,200c5.392,0,10.288,3.456,12.624,9.136c2.208,5.328,1.184,11.232-2.616,15.032
				c-5.528,5.52-8.568,12.872-8.568,20.688c0,7.824,3.048,15.168,8.568,20.688l0.728,0.728V496h26.664L184,474l29.336,22H240V320h16
				v176h26.664L312,474l29.336,22H368V266.273l0.728-0.729c5.536-5.52,8.576-12.864,8.576-20.688c0-7.816-3.04-15.168-8.568-20.688
				c-3.8-3.8-4.824-9.704-2.48-15.368c2.192-5.344,7.096-8.8,12.488-8.8C394.872,200,408,186.872,408,170.744v-21.488
				C408,133.128,394.872,120,378.736,120z M218.664,480L184,454l-34.664,26H144V282.156c9.008,7.819,21.684,9.201,32,4.169V408h16
				V277.047c2.322-0.181,4.784,0.201,7.208,1.201c5.336,2.2,8.792,7.104,8.792,12.496c0,11.358,6.515,21.221,16,26.066V480H218.664z
				 M346.664,480L312,454l-34.664,26H272V316.81c9.485-4.845,16-14.71,16-26.074c0-5.392,3.456-10.288,9.136-12.624
				c2.255-0.937,4.609-1.285,6.864-1.096V408h16V286.322c10.312,5.035,22.985,3.65,32-4.155V480H346.664z M392,170.744
				c0,7.312-5.952,13.256-13.264,13.256c-11.904,0-22.616,7.352-27.408,19.008c-4.696,11.336-2.304,24.08,6.088,32.472
				c2.504,2.512,3.88,5.84,3.88,9.376c0,3.544-1.376,6.872-3.888,9.376l-15.176,15.192c-5.176,5.16-13.584,5.168-18.752,0
				c-8.392-8.392-21.136-10.784-32.768-5.968C279.344,268.12,272,278.84,272,290.744c0,7.312-5.952,13.256-13.256,13.256h-21.488
				c-7.304,0-13.256-5.952-13.256-13.264c0-11.904-7.344-22.616-19.008-27.408c-3.856-1.592-7.872-2.376-11.824-2.376
				c-7.68,0-15.112,2.928-20.64,8.472c-5.168,5.152-13.584,5.176-18.752,0l-15.192-15.192c-2.504-2.512-3.88-5.832-3.88-9.376
				c0-3.544,1.376-6.872,3.88-9.376c8.392-8.392,10.784-21.136,5.968-32.76C139.88,191.352,129.168,184,117.256,184
				c-7.304,0-13.256-5.944-13.256-13.256v-21.488c0-7.312,5.952-13.256,13.264-13.256c11.904,0,22.616-7.352,27.408-19.008
				c4.696-11.336,2.304-24.08-6.088-32.472c-2.504-2.512-3.88-5.84-3.88-9.376c0-3.544,1.376-6.872,3.888-9.376l15.176-15.192
				c5.176-5.16,13.584-5.168,18.752,0c8.384,8.392,21.128,10.792,32.76,5.968C216.656,51.88,224,41.168,224,29.256
				C224,21.944,229.952,16,237.256,16h21.488C266.048,16,272,21.952,272,29.264c0,11.904,7.344,22.616,19.008,27.408
				c11.344,4.688,24.088,2.296,32.464-6.096c5.168-5.16,13.584-5.168,18.752,0l15.192,15.192c2.504,2.512,3.88,5.832,3.88,9.376
				s-1.376,6.872-3.88,9.376c-8.392,8.392-10.784,21.136-5.968,32.76c4.672,11.368,15.384,18.72,27.296,18.72
				c7.304,0,13.256,5.944,13.256,13.256V170.744z"/>
			<path d="M248,56c-57.344,0-104,46.656-104,104s46.656,104,104,104s104-46.656,104-104S305.344,56,248,56z M248,248
				c-48.52,0-88-39.48-88-88s39.48-88,88-88s88,39.48,88,88S296.52,248,248,248z"/>
			<rect x="176" y="424" width="16" height="16"/>
			<rect x="304" y="424" width="16" height="16"/>
		</g>
	</g>
</g>
<g>
</g>
<g>
</g>
<g>
</g>
<g>
</g>
<g>
</g>
<g>
</g>
<g>
</g>
<g>
</g>
<g>
</g>
<g>
</g>
<g>
</g>
<g>
</g>
<g>
</g>
<g>
</g>
<g>
</g>
</svg>
