<?xml version="1.0" encoding="iso-8859-1"?>
<!-- Generator: Adobe Illustrator 19.0.0, SVG Export Plug-In . SVG Version: 6.00 Build 0)  -->
<svg version="1.1" id="Layer_1" xmlns="http://www.w3.org/2000/svg" xmlns:xlink="http://www.w3.org/1999/xlink" x="0px" y="0px"
	 viewBox="0 0 496 496" style="enable-background:new 0 0 496 496;" xml:space="preserve">
<g>
	<g>
		<path d="M351.18,288.816c-3.272-14.2-16.008-24.816-31.184-24.816c-17.648,0-32,14.352-32,32h-16v-16c17.648,0,32-14.352,32-32
			c0-15.176-10.616-27.912-24.816-31.184c-0.72-3.16-1.984-6.096-3.568-8.816h12.384c13.232,0,24-10.768,24-24v-8h16v-16h-16.632
			l112-160h-67.528l-107.84,154.048L140.164,0H72.636l112,160h-16.64v16h16v8c0,13.232,10.768,24,24,24h12.384
			c-1.584,2.72-2.848,5.656-3.568,8.816c-14.2,3.272-24.816,16.008-24.816,31.184c0,17.648,14.352,32,32,32v16h-16
			c0-17.648-14.352-32-32-32c-15.176,0-27.912,10.616-31.184,24.816c-14.2,3.272-24.816,16.008-24.816,31.184
			c0,15.176,10.616,27.912,24.816,31.184c3.272,14.2,16.008,24.816,31.184,24.816c17.648,0,32-14.352,32-32h16v64
			c-17.648,0-32,14.352-32,32c0,15.176,10.616,27.912,24.816,31.184c3.272,14.2,16.008,24.816,31.184,24.816
			c15.176,0,27.912-10.616,31.184-24.816c14.2-3.272,24.816-16.008,24.816-31.184c0-17.648-14.352-32-32-32v-64h16
			c0,17.648,14.352,32,32,32c15.176,0,27.912-10.616,31.184-24.816c14.2-3.272,24.816-16.008,24.816-31.184
			C375.996,304.824,365.38,292.088,351.18,288.816z M364.164,16h28.472l-100.8,144h-28.472L364.164,16z M103.356,16h28.472
			l100.8,144h-28.472L103.356,16z M207.996,192c-4.408,0-8-3.592-8-8v-8h96v8c0,4.408-3.592,8-8,8H207.996z M343.996,336h-8v8
			c0,8.824-7.176,16-16,16c-8.824,0-16-7.176-16-16c0-1.664,0.336-3.408,1.008-5.336L308.788,328h-52.792v100.792l10.664-3.776
			c1.928-0.68,3.672-1.016,5.336-1.016c8.824,0,16,7.176,16,16c0,8.824-7.176,16-16,16h-8v8c0,8.824-7.176,16-16,16
			c-8.824,0-16-7.176-16-16v-8h-8c-8.824,0-16-7.176-16-16c0-8.824,7.176-16,16-16c1.664,0,3.408,0.336,5.336,1.008l10.664,3.784
			V328h-52.792l3.776,10.664c0.68,1.928,1.016,3.672,1.016,5.336c0,8.824-7.176,16-16,16c-8.824,0-16-7.176-16-16v-8h-8
			c-8.824,0-16-7.176-16-16c0-8.824,7.176-16,16-16h8v-8c0-8.824,7.176-16,16-16c8.824,0,16,7.176,16,16
			c0,1.664-0.336,3.408-1.008,5.336L187.204,312h52.792v-52.792l-10.664,3.776c-1.928,0.68-3.672,1.016-5.336,1.016
			c-8.824,0-16-7.176-16-16c0-8.824,7.176-16,16-16h8v-8c0-8.824,7.176-16,16-16c8.824,0,16,7.176,16,16v8h8c8.824,0,16,7.176,16,16
			c0,8.824-7.176,16-16,16c-1.664,0-3.408-0.336-5.336-1.008l-10.664-3.784V312h52.792l-3.776-10.664
			c-0.68-1.928-1.016-3.672-1.016-5.336c0-8.824,7.176-16,16-16c8.824,0,16,7.176,16,16v8h8c8.824,0,16,7.176,16,16
			C359.996,328.824,352.82,336,343.996,336z"/>
	</g>
</g>
<g>
</g>
<g>
</g>
<g>
</g>
<g>
</g>
<g>
</g>
<g>
</g>
<g>
</g>
<g>
</g>
<g>
</g>
<g>
</g>
<g>
</g>
<g>
</g>
<g>
</g>
<g>
</g>
<g>
</g>
</svg>
