<?xml version="1.0" encoding="iso-8859-1"?>
<!-- Generator: Adobe Illustrator 19.0.0, SVG Export Plug-In . SVG Version: 6.00 Build 0)  -->
<svg version="1.1" id="Capa_1" xmlns="http://www.w3.org/2000/svg" xmlns:xlink="http://www.w3.org/1999/xlink" x="0px" y="0px"
	 viewBox="0 0 490 490" style="enable-background:new 0 0 490 490;" xml:space="preserve">
<path d="M478.028,83.457l-67.331-70.512c-19.743-19.87-45.535-14.437-59.041,0L339.52,25.652
	c-11.585-7.153-27.583-5.645-37.307,4.538L110.832,230.62L77.09,347.326L0,428.055L102.999,490l55.647-58.281l110.957-34.82
	l191.949-201.027c10.016-10.481,11.325-26.672,3.941-38.652l12.535-13.128C493.991,127.374,493.991,100.176,478.028,83.457z
	 M99.499,463.748l-66.708-40.116l53.47-55.995l52.508,54.99L99.499,463.748z M155.905,410.658l-57.964-60.703l31.709-99.626
	l121.385,127.125L155.905,410.658z M446.705,181.512L269.602,366.984L139.39,230.618L317.06,44.55c3.58-3.745,9.658-3.745,13.228,0
	L446.71,166.473C450.602,170.552,450.602,177.434,446.705,181.512z M463.176,129.732l-11.493,12.038L354.446,39.936l12.062-12.63
	c7.873-8.258,21.443-8.269,29.337,0l67.331,70.512C471.583,106.618,471.583,120.933,463.176,129.732z"/>
<g>
</g>
<g>
</g>
<g>
</g>
<g>
</g>
<g>
</g>
<g>
</g>
<g>
</g>
<g>
</g>
<g>
</g>
<g>
</g>
<g>
</g>
<g>
</g>
<g>
</g>
<g>
</g>
<g>
</g>
</svg>
