<?xml version="1.0" encoding="iso-8859-1"?>
<!-- Generator: Adobe Illustrator 19.0.0, SVG Export Plug-In . SVG Version: 6.00 Build 0)  -->
<svg version="1.1" id="Capa_1" xmlns="http://www.w3.org/2000/svg" xmlns:xlink="http://www.w3.org/1999/xlink" x="0px" y="0px"
	 viewBox="0 0 490 490" style="enable-background:new 0 0 490 490;" xml:space="preserve">
<g>
	<rect x="83.404" y="78.191" width="20.851" height="20.851"/>
	<rect x="83.404" y="156.383" width="20.851" height="20.851"/>
	<rect x="83.404" y="234.574" width="20.851" height="20.851"/>
	<rect x="83.404" y="312.766" width="20.851" height="20.851"/>
	<rect x="83.404" y="390.957" width="20.851" height="20.851"/>
	<path d="M448.298,0H327.62c-0.001,0-0.001,0-0.002,0H41.702C35.94,0,31.277,4.668,31.277,10.425v469.149
		c0,5.757,4.663,10.426,10.426,10.426h406.596c5.763,0,10.426-4.668,10.426-10.426V131.103V10.425
		C458.723,4.668,454.061,0,448.298,0z M338.046,35.593l42.542,42.542l42.542,42.542h-85.085V35.593z M135.532,469.149H52.128V20.851
		h83.404V469.149z M437.872,469.149H156.383V20.851h160.812v110.252c0,5.757,4.663,10.426,10.426,10.426h110.252V469.149z
		 M437.872,105.934l-42.586-42.586L352.79,20.851h85.083V105.934z"/>
</g>
<g>
</g>
<g>
</g>
<g>
</g>
<g>
</g>
<g>
</g>
<g>
</g>
<g>
</g>
<g>
</g>
<g>
</g>
<g>
</g>
<g>
</g>
<g>
</g>
<g>
</g>
<g>
</g>
<g>
</g>
</svg>
