<?xml version="1.0" encoding="iso-8859-1"?>
<!-- Generator: Adobe Illustrator 19.0.0, SVG Export Plug-In . SVG Version: 6.00 Build 0)  -->
<svg version="1.1" id="Capa_1" xmlns="http://www.w3.org/2000/svg" xmlns:xlink="http://www.w3.org/1999/xlink" x="0px" y="0px"
	 viewBox="0 0 490.022 490.022" style="enable-background:new 0 0 490.022 490.022;" xml:space="preserve">
<path d="M387.616,476.978l-74.455-289.979l-2.016-20.67c30.124-7.184,55.721-40.978,54.469-78.883
	C363.094,11.156,285.075,0,245.024,0c-5.758,0-10.425,4.662-10.425,10.425v30.461h-22.134c-5.757,0-10.426,4.664-10.426,10.426
	v54.704h-7.794c-5.365,0-9.855,4.072-10.375,9.418l-6.98,71.565l-74.459,289.979c-2.146,7.736,5.067,13.441,10.1,13.022h264.985
	C384.807,490,389.333,482.733,387.616,476.978z M255.449,21.095c29.617,1.385,90.39,13.622,89.313,66.352
	c-0.546,26.772-16.04,51.486-35.668,57.858l-2.913-29.871c-0.519-5.345-5.009-9.418-10.375-9.418h-7.793V51.313
	c0-5.762-4.669-10.426-10.426-10.426h-22.139V21.095z M222.889,61.738h44.273v44.278h-44.273V61.738z M203.703,126.867h82.645
	l5.029,51.547l-92.704-0.009L203.703,126.867z M125.969,469.149l69.304-269.884h99.505l69.299,269.884H125.969z"/>
<g>
</g>
<g>
</g>
<g>
</g>
<g>
</g>
<g>
</g>
<g>
</g>
<g>
</g>
<g>
</g>
<g>
</g>
<g>
</g>
<g>
</g>
<g>
</g>
<g>
</g>
<g>
</g>
<g>
</g>
</svg>
