<?xml version="1.0" encoding="iso-8859-1"?>
<!-- Generator: Adobe Illustrator 19.0.0, SVG Export Plug-In . SVG Version: 6.00 Build 0)  -->
<svg version="1.1" id="Layer_1" xmlns="http://www.w3.org/2000/svg" xmlns:xlink="http://www.w3.org/1999/xlink" x="0px" y="0px"
	 viewBox="0 0 512 512" style="enable-background:new 0 0 512 512;" xml:space="preserve">
<circle style="fill:#2D4452;" cx="256" cy="256" r="256"/>
<path style="fill:#233540;" d="M481.92,376.42c-0.132-0.336-0.264-0.672-0.412-1.008c-0.276-0.696-0.552-1.396-0.84-2.084
	c-0.272-0.672-0.536-1.352-0.816-2.02c-0.276-0.692-0.552-1.392-0.84-2.08c-0.256-0.648-0.512-1.304-0.78-1.952
	c-0.288-0.712-0.572-1.432-0.872-2.144c-0.268-0.672-0.536-1.356-0.816-2.02c-0.28-0.696-0.552-1.392-0.84-2.08
	c-0.268-0.676-0.536-1.356-0.816-2.024c-0.272-0.684-0.544-1.372-0.828-2.052c-0.28-0.692-0.552-1.396-0.836-2.076
	c-0.272-0.68-0.54-1.36-0.82-2.028c-0.276-0.692-0.552-1.392-0.836-2.084c-0.272-0.672-0.54-1.352-0.82-2.016
	c-0.276-0.696-0.552-1.396-0.836-2.08c-0.272-0.676-0.54-1.356-0.82-2.024c-0.276-0.692-0.552-1.392-0.836-2.08
	c-0.272-0.672-0.54-1.352-0.82-2.024c-0.272-0.684-0.54-1.372-0.828-2.052c-0.264-0.668-0.524-1.344-0.804-2.008
	c-0.28-0.696-0.556-1.404-0.844-2.088c-0.28-0.688-0.556-1.392-0.844-2.076c-0.268-0.676-0.532-1.356-0.812-2.024
	c-0.28-0.692-0.556-1.396-0.84-2.084c-0.272-0.672-0.536-1.352-0.816-2.016c-0.28-0.696-0.556-1.396-0.84-2.08
	c-0.272-0.676-0.536-1.36-0.816-2.024c-0.272-0.688-0.548-1.376-0.828-2.056c-0.28-0.692-0.556-1.392-0.84-2.076
	c-0.268-0.676-0.536-1.356-0.816-2.024c-0.28-0.692-0.556-1.396-0.84-2.084c-0.268-0.672-0.536-1.352-0.816-2.02
	c-0.28-0.692-0.552-1.392-0.84-2.076c-0.268-0.68-0.536-1.36-0.816-2.024c-0.28-0.696-0.552-1.396-0.84-2.084
	c-0.26-0.648-0.512-1.3-0.784-1.948c-0.28-0.708-0.56-1.416-0.852-2.116c-0.28-0.696-0.556-1.392-0.844-2.084
	c-0.272-0.672-0.536-1.352-0.812-2.02c-0.28-0.692-0.556-1.392-0.844-2.08c-0.272-0.672-0.536-1.352-0.812-2.024
	c-0.28-0.688-0.556-1.392-0.844-2.08c-0.272-0.672-0.536-1.352-0.812-2.02c-0.28-0.692-0.552-1.388-0.844-2.076
	c-0.268-0.68-0.536-1.36-0.812-2.024c-0.28-0.696-0.556-1.396-0.844-2.08c-0.268-0.676-0.536-1.36-0.812-2.024
	c-0.276-0.688-0.548-1.376-0.828-2.056c-0.28-0.692-0.556-1.388-0.844-2.076c-0.268-0.676-0.532-1.356-0.812-2.024
	c-0.268-0.668-0.532-1.34-0.808-2.004c-0.28-0.704-0.552-1.408-0.844-2.092c-0.28-0.692-0.552-1.392-0.84-2.076
	c-0.272-0.676-0.54-1.356-0.816-2.028c-0.28-0.688-0.552-1.384-0.84-2.076c-0.272-0.676-0.54-1.356-0.816-2.024
	c-0.276-0.684-0.544-1.376-0.828-2.052c-0.28-0.696-0.552-1.392-0.84-2.08c-0.272-0.676-0.54-1.356-0.816-2.024
	c-0.276-0.692-0.552-1.388-0.84-2.076c-0.272-0.672-0.54-1.352-0.816-2.024c-0.276-0.692-0.548-1.388-0.84-2.076
	c-0.272-0.676-0.536-1.356-0.816-2.024c-0.276-0.692-0.548-1.392-0.84-2.076c-0.272-0.676-0.536-1.356-0.816-2.024
	c-0.268-0.66-0.524-1.328-0.792-1.984c-0.288-0.712-0.572-1.432-0.872-2.14c-0.268-0.676-0.536-1.356-0.816-2.024
	c-0.28-0.692-0.552-1.388-0.84-2.076c-0.268-0.672-0.536-1.352-0.816-2.024c-0.28-0.692-0.548-1.388-0.836-2.076
	c-0.272-0.676-0.54-1.356-0.82-2.024c-0.28-0.692-0.552-1.388-0.836-2.076c-0.272-0.676-0.54-1.356-0.82-2.024
	c-0.272-0.688-0.544-1.38-0.828-2.06c-0.276-0.684-0.548-1.38-0.836-2.06c-0.272-0.68-0.54-1.364-0.82-2.04
	c-0.276-0.688-0.548-1.38-0.836-2.06c-0.272-0.68-0.54-1.364-0.82-2.04c-0.276-0.684-0.548-1.372-0.828-2.052
	c-0.264-0.66-0.524-1.324-0.796-1.98c-0.288-0.708-0.564-1.42-0.86-2.124c-0.276-0.68-0.54-1.368-0.824-2.04
	c-0.276-0.688-0.544-1.38-0.832-2.06c-0.276-0.68-0.54-1.368-0.824-2.04c-0.276-0.684-0.544-1.372-0.828-2.052
	c-0.276-0.684-0.544-1.376-0.832-2.06c-20.728-51.2-70.496-87.288-128.628-87.288c-66.972,0-122.876,47.884-136.016,111.6
	c-0.416-0.004-0.832-0.008-1.248-0.008c-1.82,0-3.616,0.072-5.416,0.18c-0.444,0.028-0.9,0.068-1.348,0.1
	c-1.456,0.108-2.916,0.252-4.36,0.436c-0.316,0.04-0.632,0.076-0.948,0.116C89.236,230.188,56,267.004,56,311.744
	c0,12.344,2.536,24.084,7.1,34.74c0.268,0.676,0.536,1.356,0.82,2.02c0.268,0.688,0.54,1.376,0.828,2.056
	c0.272,0.696,0.548,1.392,0.836,2.08c0.268,0.676,0.532,1.356,0.82,2.02c0.272,0.696,0.548,1.396,0.836,2.084
	c0.256,0.648,0.508,1.304,0.784,1.948c0.284,0.724,0.568,1.436,0.872,2.144c0.264,0.676,0.532,1.356,0.812,2.02
	c0.276,0.696,0.548,1.396,0.844,2.084c0.264,0.672,0.532,1.352,0.812,2.016c0.276,0.7,0.548,1.4,0.844,2.084
	c0.264,0.676,0.532,1.356,0.812,2.02c0.272,0.688,0.54,1.376,0.828,2.056c0.276,0.696,0.548,1.396,0.84,2.08
	c0.268,0.676,0.536,1.356,0.816,2.02c0.272,0.7,0.548,1.396,0.84,2.084c0.268,0.676,0.536,1.356,0.816,2.02
	c0.272,0.696,0.548,1.396,0.84,2.08c0.268,0.676,0.532,1.356,0.816,2.02c0.272,0.696,0.544,1.4,0.84,2.084
	c0.252,0.652,0.508,1.308,0.784,1.948c0.28,0.712,0.556,1.416,0.856,2.116c0.276,0.696,0.548,1.4,0.84,2.084
	c0.264,0.676,0.532,1.356,0.816,2.02c0.276,0.696,0.548,1.396,0.84,2.08c0.264,0.68,0.532,1.36,0.812,2.024
	c0.28,0.696,0.552,1.396,0.844,2.08c0.264,0.676,0.532,1.356,0.812,2.02c0.28,0.696,0.552,1.396,0.844,2.084
	c0.264,0.672,0.532,1.352,0.812,2.016c0.272,0.692,0.544,1.38,0.828,2.056c0.276,0.696,0.552,1.4,0.844,2.08
	c0.264,0.68,0.532,1.36,0.812,2.024c0.276,0.696,0.552,1.396,0.844,2.08c0.264,0.676,0.532,1.356,0.812,2.02
	c0.264,0.672,0.524,1.348,0.812,2.012c0.272,0.704,0.548,1.4,0.844,2.084c0.272,0.696,0.54,1.396,0.836,2.08
	c0.268,0.68,0.532,1.36,0.82,2.024c0.268,0.688,0.532,1.376,0.824,2.048c0.276,0.7,0.544,1.4,0.84,2.084
	c0.268,0.676,0.532,1.356,0.816,2.02c0.276,0.696,0.544,1.4,0.84,2.084c0.268,0.676,0.532,1.356,0.816,2.02
	c0.276,0.696,0.544,1.396,0.84,2.08c0.268,0.68,0.532,1.36,0.816,2.024c0.276,0.696,0.544,1.396,0.84,2.08
	c0.264,0.676,0.532,1.356,0.816,2.02c0.276,0.696,0.544,1.396,0.84,2.084c0.264,0.672,0.532,1.352,0.816,2.016
	c0.26,0.664,0.516,1.336,0.792,1.984c0.288,0.724,0.568,1.436,0.872,2.148c0.268,0.672,0.532,1.352,0.816,2.016
	c0.272,0.7,0.548,1.4,0.84,2.084c0.268,0.676,0.532,1.356,0.816,2.02c0.272,0.696,0.548,1.4,0.84,2.08
	c0.268,0.68,0.532,1.36,0.816,2.024c0.272,0.696,0.548,1.396,0.836,2.08c0.272,0.68,0.536,1.36,0.82,2.024
	c0.052,0.124,0.1,0.252,0.156,0.388C153.1,495.656,202.64,512,256,512C353.844,512,438.832,457.084,481.92,376.42z"/>
<path style="fill:#F5F5F5;" d="M420.048,264.9c0.368-4.156,0.584-8.36,0.584-12.616c0-77.532-62.208-140.392-138.944-140.392
	c-66.988,0-122.904,47.908-136.028,111.648c-0.416,0-0.82-0.056-1.236-0.056c-48.84,0-88.424,39.424-88.424,88.26
	S95.584,400,144.42,400h238.312C423.204,400,456,367.556,456,327.332C456,300.672,441.548,277.584,420.048,264.9z"/>
<g>
	<path style="fill:#2D4452;" d="M288,328c-4.416,0-8-3.584-8-8v-88c0-4.416,3.584-8,8-8s8,3.584,8,8v88
		C296,324.416,292.416,328,288,328z"/>
	<path style="fill:#2D4452;" d="M316,268c-2.048,0-4.092-0.78-5.656-2.344L288,243.316l-22.344,22.34
		c-3.124,3.124-8.188,3.124-11.312,0s-3.124-8.188,0-11.312l28-28c3.124-3.124,8.188-3.124,11.312,0l28,28
		c3.124,3.124,3.124,8.188,0,11.312C320.092,267.22,318.048,268,316,268z"/>
</g>
<g>
</g>
<g>
</g>
<g>
</g>
<g>
</g>
<g>
</g>
<g>
</g>
<g>
</g>
<g>
</g>
<g>
</g>
<g>
</g>
<g>
</g>
<g>
</g>
<g>
</g>
<g>
</g>
<g>
</g>
</svg>
