<?xml version="1.0" encoding="iso-8859-1"?>
<!-- Generator: Adobe Illustrator 19.0.0, SVG Export Plug-In . SVG Version: 6.00 Build 0)  -->
<svg version="1.1" id="Layer_1" xmlns="http://www.w3.org/2000/svg" xmlns:xlink="http://www.w3.org/1999/xlink" x="0px" y="0px"
	 viewBox="0 0 512 512" style="enable-background:new 0 0 512 512;" xml:space="preserve">
<path style="fill:#FF877F;" d="M213.278,470.741l-51.55,12.834l-27.383-45.525l-52.531-7.876l-7.876-52.531l-45.508-27.383
	l12.826-51.55L9.681,256l31.573-42.709l-12.826-51.55l45.508-27.383l7.876-52.531l52.531-7.876l27.383-45.525l51.55,12.834
	l42.718-31.573l42.709,31.573l51.55-12.834l27.383,45.525l52.531,7.876l7.876,52.531l45.517,27.383l-12.826,51.55L502.31,256
	l-31.573,42.709l12.826,51.55l-45.517,27.383l-7.876,52.531l-52.531,7.876l-27.383,45.525l-51.55-12.834l-42.709,31.573
	L213.278,470.741z"/>
<rect x="115.196" y="140.8" style="fill:#919CB0;" width="281.6" height="51.2"/>
<path style="fill:#E9EBEF;" d="M115.196,371.2V192h281.6v179.2H115.196z"/>
<g>
	<path style="fill:#573A32;" d="M484.612,210.526l9.088-36.514c2.714-10.914-2.014-22.323-11.648-28.117l-32.247-19.396
		l-5.581-37.214c-1.664-11.119-10.402-19.857-21.521-21.521l-37.214-5.581l-19.396-32.247c-4.702-7.825-13.099-12.407-21.931-12.407
		c-2.057,0-4.13,0.247-6.187,0.759l-36.514,9.088L271.202,5.009C266.688,1.673,261.346,0,255.996,0
		c-5.35,0-10.692,1.673-15.215,5.009l-30.259,22.366l-36.514-9.088c-2.057-0.512-4.139-0.759-6.187-0.759
		c-8.832,0-17.229,4.591-21.931,12.407l-19.396,32.247L89.28,67.763c-11.119,1.664-19.849,10.402-21.513,21.521l-5.581,37.214
		l-32.247,19.396c-9.634,5.794-14.362,17.203-11.648,28.117l9.088,36.514L5.013,240.785c-6.682,9.045-6.682,21.393,0,30.438
		l22.366,30.259l-9.088,36.514c-2.714,10.914,2.005,22.323,11.648,28.117l32.247,19.396l5.581,37.214
		c1.664,11.119,10.394,19.857,21.521,21.521l37.214,5.581l19.396,32.247c4.702,7.825,13.107,12.407,21.931,12.407
		c2.057,0,4.122-0.247,6.187-0.759l36.514-9.088l30.259,22.366c4.514,3.328,9.856,5.001,15.206,5.001
		c5.35,0,10.692-1.672,15.215-5.009l30.259-22.366l36.514,9.088c2.057,0.512,4.13,0.759,6.187,0.759
		c8.832,0,17.229-4.591,21.931-12.407l19.396-32.247l37.214-5.581c11.119-1.664,19.857-10.394,21.521-21.521l5.581-37.214
		l32.247-19.396c9.634-5.794,14.362-17.203,11.648-28.117l-9.088-36.514l22.366-30.259c6.682-9.045,6.682-21.393,0-30.438
		L484.612,210.526z M456.862,295.953l11.998,48.213l-42.573,25.609l-7.373,49.135l-49.135,7.364l-25.609,42.581l-48.213-11.998
		L255.996,486.4l-39.953-29.534l-48.213,11.998l-25.609-42.581l-49.135-7.364l-7.364-49.135L43.14,344.175l11.998-48.213L25.596,256
		l29.534-39.953l-11.998-48.213l42.581-25.609l7.364-49.135l49.135-7.364l25.609-42.581l48.213,11.998L255.996,25.6l39.953,29.534
		l48.213-11.998l25.609,42.581l49.135,7.364l7.373,49.135l42.573,25.609l-11.998,48.213L486.396,256L456.862,295.953z"/>
	<path style="fill:#573A32;" d="M383.996,128h-256c-14.14,0-25.6,11.46-25.6,25.6v204.8c0,14.14,11.46,25.6,25.6,25.6h256
		c14.14,0,25.6-11.46,25.6-25.6V153.6C409.596,139.46,398.135,128,383.996,128z M383.996,358.4h-256V204.8h256V358.4z
		 M383.996,179.2h-38.4h-51.2h-51.2h-115.2v-25.6h115.2h51.2h51.2h38.4V179.2z"/>
	<circle style="fill:#573A32;" cx="345.596" cy="166.4" r="12.8"/>
	<circle style="fill:#573A32;" cx="294.396" cy="166.4" r="12.8"/>
	<circle style="fill:#573A32;" cx="243.196" cy="166.4" r="12.8"/>
	<path style="fill:#573A32;" d="M197.124,291.84l51.2,38.4c2.219,1.673,4.924,2.56,7.671,2.56c0.725,0,1.451-0.06,2.15-0.188
		c3.473-0.589,6.554-2.586,8.499-5.513l51.2-76.8c3.925-5.888,2.321-13.824-3.55-17.749c-5.828-3.874-13.798-2.338-17.749,3.55
		l-43.699,65.536l-40.38-30.276c-5.623-4.215-13.653-3.123-17.929,2.56C190.323,279.578,191.467,287.599,197.124,291.84z"/>
</g>
<g>
</g>
<g>
</g>
<g>
</g>
<g>
</g>
<g>
</g>
<g>
</g>
<g>
</g>
<g>
</g>
<g>
</g>
<g>
</g>
<g>
</g>
<g>
</g>
<g>
</g>
<g>
</g>
<g>
</g>
</svg>
