<?xml version="1.0" encoding="iso-8859-1"?>
<!-- Generator: Adobe Illustrator 19.0.0, SVG Export Plug-In . SVG Version: 6.00 Build 0)  -->
<svg version="1.1" id="Layer_1" xmlns="http://www.w3.org/2000/svg" xmlns:xlink="http://www.w3.org/1999/xlink" x="0px" y="0px"
	 viewBox="0 0 501.551 501.551" style="enable-background:new 0 0 501.551 501.551;" xml:space="preserve">
<path style="fill:#E2E2E2;" d="M177.119,92.996c0,0-54.335,57.469-43.886,104.49s225.698,63.739,225.698,63.739l10.449-38.661
	l-19.853-75.233L266.98,82.547L177.119,92.996z"/>
<path style="fill:#FFD15C;" d="M376.695,263.314l-15.673,37.616l-79.412,200.62H219.96l-79.412-200.62l-14.629-37.616
	c-4.18-13.584,6.269-27.167,20.898-27.167h210.024C370.425,236.147,380.874,249.731,376.695,263.314z"/>
<g>
	<path style="fill:#F2F2F2;" d="M367.291,239.282H131.144c0,0-19.853-47.02,21.943-50.155
		c35.527,14.629,87.771,20.898,114.939,21.943c63.739,8.359,94.041,24.033,95.086,24.033L367.291,239.282z"/>
	<path style="fill:#F2F2F2;" d="M131.144,152.555c0,0-7.314-51.2,42.841-42.841c0,0,185.992,33.437,199.576,79.412
		c0,0,8.359,21.943-4.18,33.437c0,0-31.347-16.718-99.265-26.122C269.07,196.441,138.458,187.037,131.144,152.555z"/>
	<path style="fill:#F2F2F2;" d="M349.527,147.331c-50.155-27.167-132.702-44.931-169.273-51.2
		c-9.404-7.314-9.404-11.494-9.404-11.494C152.042,29.257,250.262,0,250.262,0c-17.763,41.796,64.784,84.637,64.784,84.637
		C363.111,109.714,355.797,135.837,349.527,147.331z"/>
</g>
<path style="fill:#F8B64C;" d="M354.752,318.694l6.269-15.673l-39.706-39.706l27.167-27.167H326.54l-15.673,15.673l-15.673-15.673
	H273.25l27.167,27.167l-47.02,47.02l-49.11-47.02l27.167-27.167h-21.943l-15.673,15.673l-15.673-15.673h-21.943l27.167,27.167
	l-41.796,39.706l6.269,15.673l44.931-44.931l47.02,47.02l-47.02,47.02l-41.796-41.796l14.629,36.571l16.718,16.718l-7.314,7.314
	l6.269,15.673l11.494-11.494l47.02,47.02l-32.392,32.392l7.314,15.673l36.571-36.571l36.571,36.571l6.269-15.673l-32.392-32.392
	l47.02-47.02l11.494,11.494l6.269-15.673l-7.314-7.314l15.673-15.673l14.629-36.571l-41.796,41.796l-47.02-47.02l47.02-47.02
	L354.752,318.694z M298.327,380.343l-47.02,47.02l-47.02-47.02l47.02-47.02L298.327,380.343z"/>
<path style="fill:#F7AE46;" d="M376.695,263.314l-15.673,37.616H140.548l-14.629-37.616c-4.18-13.584,6.269-27.167,20.898-27.167
	h210.024C370.425,236.147,380.874,249.731,376.695,263.314z"/>
<path style="fill:#FF7058;" d="M384.009,252.865c-6.269-10.449-17.763-16.718-30.302-16.718H147.862
	c-12.539,0-22.988,6.269-30.302,16.718c-9.404,14.629,1.045,32.392,17.763,32.392h229.878
	C382.964,285.257,393.413,266.449,384.009,252.865z"/>
<g>
</g>
<g>
</g>
<g>
</g>
<g>
</g>
<g>
</g>
<g>
</g>
<g>
</g>
<g>
</g>
<g>
</g>
<g>
</g>
<g>
</g>
<g>
</g>
<g>
</g>
<g>
</g>
<g>
</g>
</svg>
