<?xml version="1.0" encoding="iso-8859-1"?>
<!-- Generator: Adobe Illustrator 19.0.0, SVG Export Plug-In . SVG Version: 6.00 Build 0)  -->
<svg version="1.1" id="Layer_1" xmlns="http://www.w3.org/2000/svg" xmlns:xlink="http://www.w3.org/1999/xlink" x="0px" y="0px"
	 viewBox="0 0 512 512" style="enable-background:new 0 0 512 512;" xml:space="preserve">
<g>
	<g>
		<path d="M382.368,57.616H268.286c10.51-4.701,17.836-15.241,17.836-27.499C286.122,13.484,272.639,0,256.005,0
			s-30.118,13.484-30.118,30.118c0,12.258,7.326,22.798,17.836,27.499h-119.32c-32.183,0-58.271,26.088-58.271,58.271v12.655
			h374.506v-12.655C440.639,83.705,414.55,57.616,382.368,57.616z"/>
	</g>
</g>
<g>
	<g>
		<rect x="66.129" y="167.821" width="374.506" height="95.376"/>
	</g>
</g>
<g>
	<g>
		<path d="M482.251,302.486c-3.255-2.394-7.261-3.825-11.611-3.825H41.36c-4.35,0-8.357,1.431-11.611,3.825
			c-4.862,3.575-8.031,9.319-8.031,15.817c0,10.848,8.794,19.642,19.642,19.642h45.047l9.357,13.795
			c10.769,15.877,28.707,25.385,47.892,25.385h56.042v95.591h-20.951c-10.848,0-19.642,8.794-19.642,19.642S167.9,512,178.748,512
			h142.731c10.848,0,19.642-8.794,19.642-19.642s-8.794-19.642-19.642-19.642h-20.951v-95.591h62.587
			c19.185,0,37.123-9.508,47.892-25.385l9.357-13.795h50.276c10.848,0,19.642-8.794,19.642-19.642
			C490.282,311.805,487.113,306.062,482.251,302.486z"/>
	</g>
</g>
<g>
</g>
<g>
</g>
<g>
</g>
<g>
</g>
<g>
</g>
<g>
</g>
<g>
</g>
<g>
</g>
<g>
</g>
<g>
</g>
<g>
</g>
<g>
</g>
<g>
</g>
<g>
</g>
<g>
</g>
</svg>
