<?xml version="1.0" encoding="iso-8859-1"?>
<!-- Generator: Adobe Illustrator 19.0.0, SVG Export Plug-In . SVG Version: 6.00 Build 0)  -->
<svg version="1.1" id="Layer_1" xmlns="http://www.w3.org/2000/svg" xmlns:xlink="http://www.w3.org/1999/xlink" x="0px" y="0px"
	 viewBox="0 0 512.001 512.001" style="enable-background:new 0 0 512.001 512.001;" xml:space="preserve">
<g>
	<g>
		<path d="M308.37,180.775h-9.504l5.446-60.606H104.96l22.061,245.474c1.818,21.131,19.106,37.473,40.131,38.278v63.982h-20.396
			c-18.266,0-33.074,14.808-33.074,33.074c0,6.089,4.936,11.025,11.025,11.025h159.858c6.089,0,11.025-4.936,11.025-11.025
			c0-18.266-14.807-33.074-33.074-33.074H242.12v-63.982c16.647-0.636,30.943-11.017,37.08-25.803h29.169
			c54.408,0,98.671-44.263,98.671-98.671S362.777,180.775,308.37,180.775z M308.37,345.042h-24.267l11.791-131.194h12.477
			c36.171,0,65.597,29.426,65.597,65.597S344.54,345.042,308.37,345.042z"/>
	</g>
</g>
<g>
	<g>
		<path d="M264.787,40.279C255.045,16.642,231.788,0,204.635,0s-50.408,16.642-60.152,40.279
			c-22.433,3.792-39.523,23.303-39.523,46.816h199.352C304.312,63.581,287.221,44.071,264.787,40.279z"/>
	</g>
</g>
<g>
</g>
<g>
</g>
<g>
</g>
<g>
</g>
<g>
</g>
<g>
</g>
<g>
</g>
<g>
</g>
<g>
</g>
<g>
</g>
<g>
</g>
<g>
</g>
<g>
</g>
<g>
</g>
<g>
</g>
</svg>
