<?xml version="1.0" encoding="iso-8859-1"?>
<!-- Generator: Adobe Illustrator 19.0.0, SVG Export Plug-In . SVG Version: 6.00 Build 0)  -->
<svg version="1.1" id="Layer_1" xmlns="http://www.w3.org/2000/svg" xmlns:xlink="http://www.w3.org/1999/xlink" x="0px" y="0px"
	 viewBox="0 0 512 512" style="enable-background:new 0 0 512 512;" xml:space="preserve">
<g transform="translate(1 1)">
	<g>
		<path d="M425.667,449.56V229.4V109.933c0-5.12-3.413-8.533-8.533-8.533h-93.867V67.267C323.267,29.72,292.547-1,255-1
			s-68.267,30.72-68.267,68.267V101.4H92.867c-5.12,0-8.533,3.413-8.533,8.533V229.4v220.16l-8.533,51.2c0,2.56,0,4.267,1.707,6.827
			c1.707,2.56,4.267,3.413,6.827,3.413h341.333c2.56,0,5.12-0.853,6.827-3.413c1.707-1.707,1.707-4.267,1.707-6.827L425.667,449.56z
			 M101.4,237.933h307.2v204.8H101.4V237.933z M203.8,67.267c0-28.16,23.04-51.2,51.2-51.2s51.2,23.04,51.2,51.2V101.4H203.8V67.267
			z M101.4,118.467h85.333v18.154c-14.679,3.814-25.6,17.216-25.6,33.046c0,18.773,15.36,34.133,34.133,34.133
			s34.133-15.36,34.133-34.133c0-15.83-10.921-29.232-25.6-33.046v-18.154h102.4v18.154c-14.679,3.814-25.6,17.216-25.6,33.046
			c0,18.773,15.36,34.133,34.133,34.133s34.133-15.36,34.133-34.133c0-15.83-10.921-29.232-25.6-33.046v-18.154H408.6v102.4H101.4
			V118.467z M195.267,169.667c5.12,0,8.533-3.413,8.533-8.533v-6.212c5.086,2.963,8.533,8.466,8.533,14.746
			c0,9.387-7.68,17.067-17.067,17.067s-17.067-7.68-17.067-17.067c0-6.28,3.447-11.782,8.533-14.746v6.212
			C186.733,166.253,190.147,169.667,195.267,169.667z M314.733,169.667c5.12,0,8.533-3.413,8.533-8.533v-6.212
			c5.086,2.963,8.533,8.466,8.533,14.746c0,9.387-7.68,17.067-17.067,17.067s-17.067-7.68-17.067-17.067
			c0-6.28,3.447-11.782,8.533-14.746v6.212C306.2,166.253,309.613,169.667,314.733,169.667z M94.573,493.933l5.12-34.133h309.76
			l5.973,34.133H94.573z"/>
	</g>
</g>
<g>
</g>
<g>
</g>
<g>
</g>
<g>
</g>
<g>
</g>
<g>
</g>
<g>
</g>
<g>
</g>
<g>
</g>
<g>
</g>
<g>
</g>
<g>
</g>
<g>
</g>
<g>
</g>
<g>
</g>
</svg>
