<?xml version="1.0" encoding="iso-8859-1"?>
<!-- Generator: Adobe Illustrator 19.0.0, SVG Export Plug-In . SVG Version: 6.00 Build 0)  -->
<svg version="1.1" id="Capa_1" xmlns="http://www.w3.org/2000/svg" xmlns:xlink="http://www.w3.org/1999/xlink" x="0px" y="0px"
	 viewBox="0 0 423.977 423.977" style="enable-background:new 0 0 423.977 423.977;" xml:space="preserve">
<g>
	<g>
		<path d="M304.929,233.125h-38.638V8.5c0-4.694-3.806-8.5-8.5-8.5h-91.604c-4.694,0-8.5,3.806-8.5,8.5v224.625h-38.638
			c-4.694,0-8.5,3.806-8.5,8.5v44.642v95.708h202.879v-95.708v-44.642C313.429,236.931,309.623,233.125,304.929,233.125z
			 M249.291,17v5.978h-74.604V17H249.291z M174.688,39.978h74.604v193.147h-74.604L174.688,39.978L174.688,39.978z M127.55,250.125
			h168.879v27.642H127.55V250.125z M127.55,364.975v-70.208h168.879v70.208H127.55z"/>
		<path d="M304.929,390.493H119.05c-4.694,0-8.5,3.806-8.5,8.5s3.806,8.5,8.5,8.5h10.439v7.984c0,4.694,3.806,8.5,8.5,8.5
			s8.5-3.806,8.5-8.5v-7.984h130v7.984c0,4.694,3.806,8.5,8.5,8.5s8.5-3.806,8.5-8.5v-7.984h11.439c4.694,0,8.5-3.806,8.5-8.5
			S309.623,390.493,304.929,390.493z"/>
	</g>
	<g>
	</g>
	<g>
	</g>
	<g>
	</g>
	<g>
	</g>
	<g>
	</g>
	<g>
	</g>
	<g>
	</g>
	<g>
	</g>
	<g>
	</g>
	<g>
	</g>
	<g>
	</g>
	<g>
	</g>
	<g>
	</g>
	<g>
	</g>
	<g>
	</g>
</g>
<g>
</g>
<g>
</g>
<g>
</g>
<g>
</g>
<g>
</g>
<g>
</g>
<g>
</g>
<g>
</g>
<g>
</g>
<g>
</g>
<g>
</g>
<g>
</g>
<g>
</g>
<g>
</g>
<g>
</g>
</svg>
