<?xml version="1.0" encoding="iso-8859-1"?>
<!-- Generator: Adobe Illustrator 19.0.0, SVG Export Plug-In . SVG Version: 6.00 Build 0)  -->
<svg version="1.1" id="Capa_1" xmlns="http://www.w3.org/2000/svg" xmlns:xlink="http://www.w3.org/1999/xlink" x="0px" y="0px"
	 viewBox="0 0 278.825 278.825" style="enable-background:new 0 0 278.825 278.825;" xml:space="preserve">
<g>
	<g>
		<path d="M105.209,45.087V8.5c0-4.694-3.806-8.5-8.5-8.5H53.73c-4.694,0-8.5,3.806-8.5,8.5v37.349
			C19.348,57.603,1.293,83.677,1.293,113.905l-0.004,156.42c0,2.254,0.896,4.416,2.489,6.01c1.595,1.594,3.757,2.49,6.011,2.49
			h132.434c4.694,0,8.5-3.805,8.5-8.5l0.005-156.396c0.063-19.896-7.655-38.628-21.729-52.747
			C122.06,54.223,113.99,48.808,105.209,45.087z M62.23,17h25.979v20.446H62.23V17z M76.011,56.188
			c15.479,0,30.021,6.037,40.947,16.997c8.037,8.062,13.379,18.073,15.599,28.961L18.292,152.138l0.001-38.234
			C18.293,82.08,44.184,56.188,76.011,56.188z M133.725,170.789L18.29,221.295l0.001-50.662c0.303-0.094,0.605-0.203,0.903-0.333
			l114.533-50.11L133.725,170.789z M18.289,261.825l0.001-22.037c0.304-0.094,0.606-0.203,0.905-0.333l114.531-50.109l-0.002,72.48
			H18.289V261.825z"/>
		<path d="M277.536,171.745v-4.117c0.045-14.262-5.486-27.689-15.574-37.809c-4.532-4.546-9.738-8.171-15.389-10.797V95.9
			c0-4.694-3.806-8.5-8.5-8.5h-29.236c-4.694,0-8.5,3.806-8.5,8.5v23.682c-17.69,8.75-29.889,26.983-29.889,48.019v4.128
			c0,0.006-0.001,0.011-0.001,0.017s0.001,0.011,0.001,0.017l-0.003,98.561c0,2.254,0.896,4.416,2.489,6.01
			c1.595,1.594,3.757,2.49,6.011,2.49h90.088c4.694,0,8.5-3.805,8.5-8.5l0.003-98.576c0-0.001,0-0.002,0-0.002
			S277.536,171.746,277.536,171.745z M217.337,104.4h12.236v8.473h-12.236V104.4z M223.992,131.058
			c9.802,0,19.011,3.823,25.93,10.764c5.839,5.858,9.428,13.34,10.361,21.426h-72.566
			C189.877,145.143,205.316,131.058,223.992,131.058z M187.445,261.825l0.002-81.578h73.088l-0.002,81.578H187.445z"/>
	</g>
	<g>
	</g>
	<g>
	</g>
	<g>
	</g>
	<g>
	</g>
	<g>
	</g>
	<g>
	</g>
	<g>
	</g>
	<g>
	</g>
	<g>
	</g>
	<g>
	</g>
	<g>
	</g>
	<g>
	</g>
	<g>
	</g>
	<g>
	</g>
	<g>
	</g>
</g>
<g>
</g>
<g>
</g>
<g>
</g>
<g>
</g>
<g>
</g>
<g>
</g>
<g>
</g>
<g>
</g>
<g>
</g>
<g>
</g>
<g>
</g>
<g>
</g>
<g>
</g>
<g>
</g>
<g>
</g>
</svg>
