<?xml version="1.0" encoding="iso-8859-1"?>
<!-- Generator: Adobe Illustrator 19.0.0, SVG Export Plug-In . SVG Version: 6.00 Build 0)  -->
<svg version="1.1" id="Capa_1" xmlns="http://www.w3.org/2000/svg" xmlns:xlink="http://www.w3.org/1999/xlink" x="0px" y="0px"
	 viewBox="0 0 348.78 348.78" style="enable-background:new 0 0 348.78 348.78;" xml:space="preserve">
<g>
	<g>
		<path d="M259.543,0H89.236c-12.407,0-22.5,11.487-22.5,25.606v297.568c0,14.119,10.093,25.606,22.5,25.606h170.307
			c12.407,0,22.5-11.487,22.5-25.606V25.606C282.043,11.487,271.95,0,259.543,0z M265.043,323.175c0,4.926-2.904,8.606-5.5,8.606
			H89.236c-2.596,0-5.5-3.681-5.5-8.606V25.606c0-4.926,2.904-8.606,5.5-8.606h170.307c2.596,0,5.5,3.681,5.5,8.606V323.175z"/>
		<rect x="234.89" y="159.153" width="17" height="43.724"/>
		<path d="M148.332,273.982h52.116V65.68h-52.116V273.982z M165.332,82.68h18.116v174.303h-18.116V82.68z"/>
	</g>
	<g>
	</g>
	<g>
	</g>
	<g>
	</g>
	<g>
	</g>
	<g>
	</g>
	<g>
	</g>
	<g>
	</g>
	<g>
	</g>
	<g>
	</g>
	<g>
	</g>
	<g>
	</g>
	<g>
	</g>
	<g>
	</g>
	<g>
	</g>
	<g>
	</g>
</g>
<g>
</g>
<g>
</g>
<g>
</g>
<g>
</g>
<g>
</g>
<g>
</g>
<g>
</g>
<g>
</g>
<g>
</g>
<g>
</g>
<g>
</g>
<g>
</g>
<g>
</g>
<g>
</g>
<g>
</g>
</svg>
