<?xml version="1.0" encoding="iso-8859-1"?>
<!-- Generator: Adobe Illustrator 16.0.0, SVG Export Plug-In . SVG Version: 6.00 Build 0)  -->
<!DOCTYPE svg PUBLIC "-//W3C//DTD SVG 1.1//EN" "http://www.w3.org/Graphics/SVG/1.1/DTD/svg11.dtd">
<svg version="1.1" id="Capa_1" xmlns="http://www.w3.org/2000/svg" xmlns:xlink="http://www.w3.org/1999/xlink" x="0px" y="0px"
	 width="321.08px" height="321.08px" viewBox="0 0 321.08 321.08" style="enable-background:new 0 0 321.08 321.08;"
	 xml:space="preserve">
<g>
	<g>
		<path d="M170.69,310.925V155.123c0-5.278,2.123-10.021,4.609-10.959c1.539-0.583,3.002-1.262,4.361-2.037l80.602-46.053
			c10.949-6.253,19.201-20.492,19.201-33.096V26.374C279.464,11.829,267.636,0,253.091,0H67.99
			C53.445,0,41.616,11.819,41.616,26.374v33.153c0,12.518,8.081,26.842,18.8,33.297l80.985,48.845
			c1.358,0.832,2.812,1.559,4.351,2.18c2.496,1.014,4.638,5.814,4.638,11.103v155.983c0,5.604,4.552,10.146,10.146,10.146
			C166.13,321.07,170.69,316.528,170.69,310.925z M180.253,20.282h72.838c3.357,0,6.092,2.744,6.092,6.091v36.605
			c0,5.326-4.361,12.833-8.979,15.482l-71.213,40.698c-4.58,2.62-8.301,0.469-8.301-4.819V29.845
			C170.69,24.557,174.966,20.282,180.253,20.282z M61.908,59.517V26.364c0-3.347,2.735-6.091,6.091-6.091h72.838
			c5.278,0,9.562,4.284,9.562,9.562v83.997c0,5.278-3.663,7.354-8.186,4.628L70.906,75.458
			C66.278,72.666,61.908,64.92,61.908,59.517z"/>
	</g>
</g>
<g>
</g>
<g>
</g>
<g>
</g>
<g>
</g>
<g>
</g>
<g>
</g>
<g>
</g>
<g>
</g>
<g>
</g>
<g>
</g>
<g>
</g>
<g>
</g>
<g>
</g>
<g>
</g>
<g>
</g>
</svg>
