<?xml version="1.0" encoding="iso-8859-1"?>
<!-- Generator: Adobe Illustrator 16.0.0, SVG Export Plug-In . SVG Version: 6.00 Build 0)  -->
<!DOCTYPE svg PUBLIC "-//W3C//DTD SVG 1.1//EN" "http://www.w3.org/Graphics/SVG/1.1/DTD/svg11.dtd">
<svg version="1.1" id="Capa_1" xmlns="http://www.w3.org/2000/svg" xmlns:xlink="http://www.w3.org/1999/xlink" x="0px" y="0px"
	 width="550.043px" height="550.044px" viewBox="0 0 550.043 550.044" style="enable-background:new 0 0 550.043 550.044;"
	 xml:space="preserve">
<g>
	<g>
		<path d="M275.032,550.044c17.844,0,47.793-8.558,47.793-65.876V45.058C322.825,7.812,304.408,0,288.963,0
			c-4.561,0-9.629,0.631-15.5,1.932c-27.253,6.053-46.244,53.76-46.244,92.794v375.912
			C227.219,508.82,245.502,550.044,275.032,550.044z M241.563,94.716c0-35.171,17.671-74.932,35.008-78.786
			c4.829-1.071,8.884-1.597,12.393-1.597c10.146,0,19.518,3.72,19.518,30.715v439.11c0,23.504-5.795,51.532-33.449,51.532
			c-17.519,0-33.469-31.021-33.469-65.073V94.716z"/>
		<path d="M283.485,252.583c8.291,0,12.068-13.56,12.068-26.153v-57.203c0-12.604-3.777-26.163-12.068-26.163
			c-8.271,0-12.049,13.56-12.049,26.163v57.193C271.446,239.024,275.213,252.583,283.485,252.583z M279.631,158.823
			c1.109-5.164,6.578-5.25,7.707-0.086c0.612,2.821,1.043,6.321,1.043,10.49v57.193c0,4.131-0.422,7.611-1.023,10.413
			c-1.119,5.164-6.599,5.145-7.717-0.019c-0.604-2.802-1.023-6.273-1.023-10.394v-57.193
			C278.618,165.106,279.029,161.625,279.631,158.823z"/>
	</g>
</g>
<g>
</g>
<g>
</g>
<g>
</g>
<g>
</g>
<g>
</g>
<g>
</g>
<g>
</g>
<g>
</g>
<g>
</g>
<g>
</g>
<g>
</g>
<g>
</g>
<g>
</g>
<g>
</g>
<g>
</g>
</svg>
