<?xml version="1.0" encoding="iso-8859-1"?>
<!-- Generator: Adobe Illustrator 16.0.0, SVG Export Plug-In . SVG Version: 6.00 Build 0)  -->
<!DOCTYPE svg PUBLIC "-//W3C//DTD SVG 1.1//EN" "http://www.w3.org/Graphics/SVG/1.1/DTD/svg11.dtd">
<svg version="1.1" id="Capa_1" xmlns="http://www.w3.org/2000/svg" xmlns:xlink="http://www.w3.org/1999/xlink" x="0px" y="0px"
	 width="535.213px" height="535.213px" viewBox="0 0 535.213 535.213" style="enable-background:new 0 0 535.213 535.213;"
	 xml:space="preserve">
<g>
	<g>
		<path d="M227.104,533.778c10.643,0.928,24.7,1.435,39.588,1.435c14.239,0,27.683-0.469,37.849-1.329l37.312-3.137
			c24.643-2.075,44.686-23.877,44.686-48.606V53.024c0-24.719-20.043-46.55-44.666-48.645l-35.727-3.05
			C296.271,0.487,282.204,0,267.535,0c-14.755,0-28.908,0.487-38.833,1.338L193.339,4.36c-24.633,2.113-44.667,23.935-44.667,48.664
			v429.117c0,24.72,20.033,46.569,44.657,48.712L227.104,533.778z M319.087,518.277l-15.74,1.32
			c-9.773,0.822-22.797,1.271-36.644,1.271c-14.487,0-28.114-0.487-38.346-1.377c0,0-4.054-0.354-9.056-0.784
			c-5.001-0.439-9.056-1.568-9.056-2.524s3.605-4.141,8.692-5.585c7.918-2.247,22.424-4.552,48.683-4.552
			c27.511,0,43.136,1.779,51.82,3.5c5.182,1.023,9.18,3.806,9.18,5.278S324.345,517.828,319.087,518.277z M163.026,53.024
			c0-17.461,14.153-32.876,31.547-34.377l35.362-3.021c10.012-0.861,23.361-1.329,37.6-1.329c14.143,0,27.425,0.468,37.39,1.319
			l35.725,3.051c17.395,1.491,31.547,16.896,31.547,34.358v429.117c0,17.452-14.152,32.857-31.547,34.32c0,0-1.09,0.096-2.438,0.2
			c-1.35,0.115-2.439-1.597-2.439-3.814c0-2.219-0.211-4.256-0.479-4.543l-0.479-0.516c-1.377-1.492-11.121-8.922-67.214-8.922
			c-33.306,0-49.429,3.624-57.231,7.2c-4.8,2.199-7.153,7.182-7.172,8.625c-0.019,1.444-1.96,2.448-4.332,2.238l-4.293-0.373
			c-17.404-1.521-31.556-16.954-31.556-34.425V53.024H163.026z"/>
		<path d="M194.64,262.356h149.557c1.98,0,3.586-1.606,3.586-3.586V71.824c0-1.979-1.605-3.586-3.586-3.586H194.64
			c-1.979,0-3.586,1.606-3.586,3.586v186.947C191.054,260.75,192.66,262.356,194.64,262.356z M207.788,75.4h123.26
			c5.279,0,9.562,4.284,9.562,9.562v160.65c0,5.279-4.283,9.562-9.562,9.562h-123.26c-5.278,0-9.562-4.284-9.562-9.562V84.962
			C198.226,79.684,202.51,75.4,207.788,75.4z"/>
		<path d="M269.429,336.064c9.648,0,17.489-7.851,17.489-17.5c0-9.648-7.841-17.499-17.489-17.499c-9.649,0-17.5,7.851-17.5,17.499
			C251.929,328.214,259.779,336.064,269.429,336.064z M269.429,308.247c5.689,0,10.317,4.628,10.317,10.327
			c0,5.69-4.628,10.328-10.317,10.328c-5.7,0-10.328-4.629-10.328-10.328S263.729,308.247,269.429,308.247z"/>
		<path d="M241.707,347.08c7.267,7.086,17.126,11.246,27.722,11.246c10.585,0,20.425-4.15,27.692-11.227
			c3.786-3.682,8.501-3.863,12.688-0.65c5.959,4.58,13.33,7.162,21.162,7.162c19.326,0,35.057-15.721,35.057-35.047
			c0-19.325-15.73-35.046-35.057-35.046c-7.832,0-15.193,2.582-21.162,7.162c-4.188,3.213-8.902,3.041-12.688-0.65
			c-7.268-7.076-17.107-11.227-27.692-11.227c-10.605,0-20.455,4.16-27.722,11.246c-3.777,3.69-8.482,3.854-12.67,0.631
			c-5.958-4.58-13.34-7.172-21.181-7.172c-19.326,0-35.046,15.721-35.046,35.047c0,19.325,15.721,35.046,35.046,35.046
			c7.851,0,15.224-2.591,21.19-7.181C233.224,343.217,237.919,343.389,241.707,347.08z M357.278,327.611
			c-1.711,4.8-8.262,5.651-10.891,1.07c-1.521-2.658-2.631-5.995-2.631-10.117c0-3.949,1.271-7.076,3.041-9.495
			c3.107-4.274,9.496-2.993,10.834,1.367c0.785,2.572,1.215,5.308,1.215,8.138C358.847,321.749,358.292,324.79,357.278,327.611z
			 M181.625,327.869c-1.062-2.907-1.654-6.034-1.654-9.305c0-2.944,0.469-5.775,1.329-8.434c1.463-4.504,8.042-5.977,11.408-1.913
			c2.113,2.554,3.729,5.938,3.729,10.347c0,4.228-1.463,7.804-3.442,10.72C190.031,333.654,183.442,332.804,181.625,327.869z
			 M197.7,303.073c-3.49-3.959-4.122-8.893,0.822-10.71c2.907-1.07,6.043-1.663,9.324-1.663c10.633,0,20.186,6.005,24.939,15.663
			c0.612,1.262,1.817,1.922,3.337,1.998c1.406-0.048,2.659-0.918,3.194-2.218c5.058-12.24,16.877-20.158,30.113-20.158
			c13.215,0,25.024,7.898,30.083,20.129c0.546,1.301,1.788,2.171,3.194,2.209c1.443-0.019,2.705-0.736,3.336-1.998
			c4.764-9.648,14.316-15.645,24.92-15.645c3.549,0,6.924,0.688,10.021,1.922c4.906,1.951,4.266,7.086,0.91,11.169
			c-3.07,3.729-5.309,8.626-5.309,14.774c0,6.436,1.99,11.456,4.533,15.252c2.945,4.38,3.348,9.524-1.348,11.141
			c-2.764,0.956-5.729,1.473-8.816,1.473c-10.605,0-20.158-5.996-24.92-15.645c-0.623-1.263-1.924-2.037-3.338-1.999
			c-1.406,0.048-2.658,0.919-3.194,2.209c-5.059,12.23-16.868,20.139-30.083,20.139c-13.235,0-25.054-7.917-30.113-20.157
			c-0.536-1.301-1.788-2.171-3.194-2.219c-1.482,0-2.735,0.774-3.337,1.999c-4.752,9.657-14.315,15.663-24.939,15.663
			c-2.983,0-5.843-0.488-8.53-1.367c-4.552-1.502-4.169-6.522-1.042-10.768c2.993-4.074,5.327-9.305,5.327-15.74
			C203.609,312.015,201.075,306.889,197.7,303.073z"/>
		<path d="M230.279,371.273h-31.298c-4.619,0-8.348,3.739-8.348,8.348v1.043c0,4.608,3.729,8.348,8.348,8.348h31.298
			c4.619,0,8.348-3.739,8.348-8.348v-1.043C238.627,375.013,234.898,371.273,230.279,371.273z"/>
		<path d="M230.279,399.971h-31.298c-4.619,0-8.348,3.738-8.348,8.348v1.042c0,4.609,3.729,8.349,8.348,8.349h31.298
			c4.619,0,8.348-3.739,8.348-8.349v-1.042C238.627,403.709,234.898,399.971,230.279,399.971z"/>
		<path d="M230.279,428.658h-31.298c-4.619,0-8.348,3.738-8.348,8.348v1.042c0,4.609,3.729,8.349,8.348,8.349h31.298
			c4.619,0,8.348-3.739,8.348-8.349v-1.042C238.627,432.396,234.898,428.658,230.279,428.658z"/>
		<path d="M230.279,475.094c4.619,0,8.348-3.739,8.348-8.349v-1.042c0-4.609-3.729-8.349-8.348-8.349h-31.298
			c-4.619,0-8.348,3.739-8.348,8.349v1.042c0,4.609,3.729,8.349,8.348,8.349H230.279z"/>
		<path d="M285.072,371.273h-31.298c-4.609,0-8.348,3.739-8.348,8.348v1.043c0,4.608,3.729,8.348,8.348,8.348h31.298
			c4.618,0,8.349-3.739,8.349-8.348v-1.043C293.421,375.013,289.69,371.273,285.072,371.273z"/>
		<path d="M285.072,399.971h-31.298c-4.609,0-8.348,3.738-8.348,8.348v1.042c0,4.609,3.729,8.349,8.348,8.349h31.298
			c4.618,0,8.349-3.739,8.349-8.349v-1.042C293.421,403.709,289.69,399.971,285.072,399.971z"/>
		<path d="M285.072,428.658h-31.298c-4.609,0-8.348,3.738-8.348,8.348v1.042c0,4.609,3.729,8.349,8.348,8.349h31.298
			c4.618,0,8.349-3.739,8.349-8.349v-1.042C293.421,432.396,289.69,428.658,285.072,428.658z"/>
		<path d="M285.072,457.354h-31.298c-4.609,0-8.348,3.739-8.348,8.349v1.042c0,4.609,3.729,8.349,8.348,8.349h31.298
			c4.618,0,8.349-3.739,8.349-8.349v-1.042C293.421,461.084,289.69,457.354,285.072,457.354z"/>
		<path d="M339.866,371.273h-31.299c-4.609,0-8.348,3.739-8.348,8.348v1.043c0,4.608,3.738,8.348,8.348,8.348h31.299
			c4.607,0,8.348-3.739,8.348-8.348v-1.043C348.214,375.013,344.474,371.273,339.866,371.273z"/>
		<path d="M339.866,399.971h-31.299c-4.609,0-8.348,3.738-8.348,8.348v1.042c0,4.609,3.738,8.349,8.348,8.349h31.299
			c4.607,0,8.348-3.739,8.348-8.349v-1.042C348.214,403.709,344.474,399.971,339.866,399.971z"/>
		<path d="M339.866,428.658h-31.299c-4.609,0-8.348,3.738-8.348,8.348v1.042c0,4.609,3.738,8.349,8.348,8.349h31.299
			c4.607,0,8.348-3.739,8.348-8.349v-1.042C348.214,432.396,344.474,428.658,339.866,428.658z"/>
		<path d="M339.866,457.354h-31.299c-4.609,0-8.348,3.739-8.348,8.349v1.042c0,4.609,3.738,8.349,8.348,8.349h31.299
			c4.607,0,8.348-3.739,8.348-8.349v-1.042C348.214,461.084,344.474,457.354,339.866,457.354z"/>
	</g>
</g>
<g>
</g>
<g>
</g>
<g>
</g>
<g>
</g>
<g>
</g>
<g>
</g>
<g>
</g>
<g>
</g>
<g>
</g>
<g>
</g>
<g>
</g>
<g>
</g>
<g>
</g>
<g>
</g>
<g>
</g>
</svg>
