<?xml version="1.0" encoding="iso-8859-1"?>
<!-- Generator: Adobe Illustrator 16.0.0, SVG Export Plug-In . SVG Version: 6.00 Build 0)  -->
<!DOCTYPE svg PUBLIC "-//W3C//DTD SVG 1.1//EN" "http://www.w3.org/Graphics/SVG/1.1/DTD/svg11.dtd">
<svg version="1.1" id="Capa_1" xmlns="http://www.w3.org/2000/svg" xmlns:xlink="http://www.w3.org/1999/xlink" x="0px" y="0px"
	 width="540.587px" height="540.587px" viewBox="0 0 540.587 540.587" style="enable-background:new 0 0 540.587 540.587;"
	 xml:space="preserve">
<g>
	<g>
		<path d="M156.681,540.587h227.225c20.225,0,36.682-16.467,36.682-36.691V36.682C420.587,16.457,404.13,0,383.906,0H156.681
			C136.457,0,120,16.457,120,36.682v467.214C120,524.12,136.457,540.587,156.681,540.587z M134.343,36.682
			c0-12.307,10.021-22.338,22.338-22.338h227.225c12.316,0,22.338,10.031,22.338,22.338v467.214
			c0,12.326-10.021,22.348-22.338,22.348H156.681c-12.316,0-22.338-10.021-22.338-22.348V36.682z"/>
		<path d="M152.129,476.996h236.337c1.98,0,3.586-1.606,3.586-3.586V63.236c0-1.979-1.605-3.586-3.586-3.586H152.129
			c-1.979,0-3.586,1.607-3.586,3.586V473.41C148.543,475.39,150.15,476.996,152.129,476.996z M165.278,66.822h210.03
			c5.279,0,9.562,4.284,9.562,9.562v383.877c0,5.278-4.283,9.562-9.562,9.562h-210.03c-5.278,0-9.562-4.284-9.562-9.562V76.385
			C155.715,71.106,159.99,66.822,165.278,66.822z"/>
		<path d="M250.126,37.81h40.344c1.979,0,3.586-1.607,3.586-3.586c0-1.979-1.607-3.586-3.586-3.586h-40.344
			c-1.979,0-3.586,1.606-3.586,3.586C246.54,36.203,248.146,37.81,250.126,37.81z"/>
		<path d="M290.949,485.191h-41.311c-8.482,0-15.386,6.904-15.386,15.377v2.467c0,8.481,6.914,15.386,15.386,15.386h41.311
			c8.482,0,15.385-6.913,15.385-15.386v-2.467C306.343,492.096,299.431,485.191,290.949,485.191z M299.171,503.035
			c0,4.532-3.689,8.214-8.213,8.214h-41.311c-4.533,0-8.214-3.69-8.214-8.214v-2.467c0-4.523,3.691-8.205,8.214-8.205h41.311
			c4.531,0,8.213,3.691,8.213,8.205V503.035z"/>
		<path d="M203.624,241.969c0.889-0.908,1.243-1.989,0.985-2.936c-0.268-0.957-1.1-1.654-2.314-1.97
			c-0.679-0.172-1.205-0.583-1.482-1.147c-0.277-0.564-0.296-1.205-0.028-1.826c11.791-28.076,39.082-46.216,69.519-46.216
			c37.533,0,68.927,26.938,74.626,64.06c0.105,0.65,0.439,1.224,0.908,1.625c0.793,0.679,2.896,0.593,3.748-0.335
			c0.525-0.574,0.756-1.329,0.631-2.104c-6.109-39.751-39.703-68.592-79.904-68.592c-32.828,0-62.127,19.622-74.664,49.993
			c-0.583,1.396-2.19,2.305-3.72,1.922c-1.368-0.344-2.563-0.019-3.213,0.852c-0.536,0.717-0.66,1.711-0.354,2.811l2.897,10.251
			c0.679,2.458,3.146,3.108,4.954,1.253L203.624,241.969z"/>
		<path d="M344.394,277.36l-7.432,7.631c-0.889,0.908-1.242,1.988-0.975,2.936c0.258,0.956,1.09,1.654,2.305,1.97
			c0.68,0.172,1.205,0.583,1.482,1.147s0.297,1.205,0.027,1.826c-11.789,28.076-39.08,46.216-69.518,46.216
			c-37.533,0-68.927-26.938-74.626-64.06c-0.105-0.649-0.44-1.214-0.909-1.625c-0.793-0.679-2.907-0.593-3.749,0.335
			c-0.526,0.573-0.755,1.329-0.631,2.104c6.101,39.751,39.703,68.592,79.904,68.592c32.829,0,62.127-19.622,74.665-49.993
			c0.582-1.396,2.189-2.313,3.719-1.922c0.354,0.096,0.707,0.144,1.043,0.144c0.918,0,1.684-0.354,2.17-0.994
			c0.535-0.718,0.66-1.712,0.354-2.812l-2.896-10.251C348.638,276.155,346.191,275.495,344.394,277.36z"/>
	</g>
</g>
<g>
</g>
<g>
</g>
<g>
</g>
<g>
</g>
<g>
</g>
<g>
</g>
<g>
</g>
<g>
</g>
<g>
</g>
<g>
</g>
<g>
</g>
<g>
</g>
<g>
</g>
<g>
</g>
<g>
</g>
</svg>
