<?xml version="1.0" encoding="iso-8859-1"?>
<!-- Generator: Adobe Illustrator 16.0.0, SVG Export Plug-In . SVG Version: 6.00 Build 0)  -->
<!DOCTYPE svg PUBLIC "-//W3C//DTD SVG 1.1//EN" "http://www.w3.org/Graphics/SVG/1.1/DTD/svg11.dtd">
<svg version="1.1" id="Capa_1" xmlns="http://www.w3.org/2000/svg" xmlns:xlink="http://www.w3.org/1999/xlink" x="0px" y="0px"
	 width="466.474px" height="466.474px" viewBox="0 0 466.474 466.474" style="enable-background:new 0 0 466.474 466.474;"
	 xml:space="preserve">
<g>
	<g>
		<path d="M327.686,303.225c1.607,3.538,3.021,7.172,4.199,10.806c1.49,4.609,5.756,7.698,10.586,7.698
			c1.156,0,2.295-0.182,3.422-0.536c5.824-1.894,9.037-8.186,7.162-14.028c-1.48-4.532-3.203-8.97-5.145-13.196
			c-20.482-44.79-65.502-73.727-114.721-73.727c-53.837,0-101.773,34.195-119.235,85.106c-0.966,2.802-0.784,5.823,0.526,8.491
			c1.3,2.668,3.557,4.667,6.368,5.643c5.68,1.95,12.192-1.234,14.143-6.914c14.401-41.922,53.856-70.074,98.207-70.074
			C273.744,242.493,310.828,266.333,327.686,303.225z"/>
		<path d="M398.439,251.808c-33.852-59.125-97.174-95.845-165.24-95.845c-76.663,0-145.513,45.623-175.376,116.232
			c-2.372,5.633,0.268,12.173,5.948,14.583c5.518,2.285,12.23-0.469,14.564-5.929c26.383-62.357,87.172-102.644,154.865-102.644
			c60.109,0,116.041,32.436,145.953,84.647c3.336,5.814,6.357,11.944,9.008,18.217c1.75,4.131,5.775,6.789,10.25,6.789
			c1.473,0,2.926-0.286,4.312-0.87c2.754-1.157,4.887-3.318,5.996-6.072c1.119-2.744,1.1-5.775-0.057-8.52
			C405.688,265.367,402.236,258.425,398.439,251.808z"/>
		<path d="M461.781,239.721C420.49,151.296,330.766,94.15,233.199,94.15c-101.563,0-192.751,60.444-232.331,153.994
			c-2.372,5.642,0.277,12.183,5.938,14.583c5.575,2.343,12.269-0.469,14.563-5.919c36.079-85.307,119.225-140.416,211.819-140.416
			c88.969,0,170.777,52.077,208.404,132.708c1.205,2.611,2.383,5.222,3.492,7.899c1.758,4.14,5.775,6.799,10.25,6.799
			c1.473,0,2.936-0.287,4.322-0.87c2.744-1.157,4.867-3.309,5.996-6.054c1.109-2.754,1.1-5.775-0.076-8.539
			C464.383,245.467,463.102,242.599,461.781,239.721z"/>
		<path d="M188.992,285.505c-0.679,0.919-1.587,1.272-2.247,0.689c-1.979-1.779-4.313-1.808-5.699-0.307
			c-0.87,0.938-1.253,2.314-1.119,4.103l1.396,18.522c0.249,3.347,2.256,4.542,3.901,4.542c0.899,0,2.276-0.335,3.72-1.97
			l12.297-13.923c2.199-2.496,1.855-4.342,1.463-5.222c-0.134-0.296-0.411-0.774-0.985-1.186c-0.698-0.507,1.272-4.016,5.47-7.229
			c7.411-5.689,16.505-8.826,26.02-8.826c21.305,0,39.12,15.301,42.362,36.366c0.449,2.897,2.898,4.992,5.824,4.992l0.908-0.067
			c3.213-0.507,5.422-3.528,4.924-6.731c-4.121-26.861-26.842-46.359-54.008-46.359C215.814,262.89,199.291,271.344,188.992,285.505
			z"/>
		<path d="M184.976,319.165l-0.87,0.067c-3.213,0.507-5.422,3.528-4.925,6.731c4.122,26.861,26.842,46.359,54.009,46.359
			c17.385,0,33.918-8.463,44.217-22.625c0.67-0.918,1.588-1.271,2.238-0.679c1.979,1.769,4.322,1.816,5.699,0.306
			c0.869-0.946,1.252-2.313,1.119-4.102l-1.396-18.523c-0.248-3.356-2.258-4.542-3.902-4.542c-0.898,0-2.275,0.335-3.719,1.97
			l-12.297,13.924c-2.201,2.495-1.855,4.341-1.465,5.221c0.135,0.297,0.412,0.774,0.986,1.186c0.697,0.507-1.281,4.017-5.471,7.229
			c-7.41,5.689-16.504,8.826-26.01,8.826c-21.305,0-39.12-15.3-42.362-36.366C190.397,321.308,187.882,319.165,184.976,319.165z"/>
	</g>
</g>
<g>
</g>
<g>
</g>
<g>
</g>
<g>
</g>
<g>
</g>
<g>
</g>
<g>
</g>
<g>
</g>
<g>
</g>
<g>
</g>
<g>
</g>
<g>
</g>
<g>
</g>
<g>
</g>
<g>
</g>
</svg>
