<?xml version="1.0" encoding="iso-8859-1"?>
<!-- Generator: Adobe Illustrator 19.0.0, SVG Export Plug-In . SVG Version: 6.00 Build 0)  -->
<svg version="1.1" id="Layer_1" xmlns="http://www.w3.org/2000/svg" xmlns:xlink="http://www.w3.org/1999/xlink" x="0px" y="0px"
	 viewBox="0 0 512 512" style="enable-background:new 0 0 512 512;" xml:space="preserve">
<circle style="fill:#00BEA5;" cx="256" cy="256" r="256"/>
<path style="fill:#00A59A;" d="M263.196,511.893c120.675-3.331,220.48-90.169,243.698-204.801L327.617,127.815
	c-0.582,0-12.72,7.885-22.813,14.507l-11.971-11.971c0,0-29.152,62.826-29.864,62.113l25.045,25.045
	c-47.549,49.382-156.363,162.436-156.363,162.84L263.196,511.893z"/>
<path style="fill:#A55530;" d="M131.651,380.349L131.651,380.349c-7.997-7.997-7.997-20.961,0-28.957l159.938-159.938l28.957,28.957
	L160.608,380.349C152.612,388.345,139.647,388.345,131.651,380.349z"/>
<path style="fill:#913E00;" d="M131.321,379.983c0.114,0.12,0.213,0.249,0.33,0.366c7.997,7.997,20.961,7.997,28.957,0
	l159.938-159.938l-14.827-14.827L131.321,379.983z"/>
<rect x="260.81" y="154.528" transform="matrix(-0.7071 -0.7071 0.7071 -0.7071 415.9108 551.809)" style="fill:#FFD153;" width="122.858" height="70.478"/>
<rect x="312.807" y="176.067" transform="matrix(-0.7071 -0.7071 0.7071 -0.7071 437.4308 603.8013)" style="fill:#F7CB09;" width="61.92" height="70.478"/>
<rect x="261.155" y="100.274" transform="matrix(-0.7071 -0.7071 0.7071 -0.7071 376.7309 448.0237)" style="fill:#FFB541;" width="39.998" height="91.428"/>
<rect x="345.993" y="185.131" transform="matrix(-0.7071 -0.7071 0.7071 -0.7071 461.5566 652.8722)" style="fill:#FFA200;" width="39.998" height="91.428"/>
<g>
</g>
<g>
</g>
<g>
</g>
<g>
</g>
<g>
</g>
<g>
</g>
<g>
</g>
<g>
</g>
<g>
</g>
<g>
</g>
<g>
</g>
<g>
</g>
<g>
</g>
<g>
</g>
<g>
</g>
</svg>
