<?xml version="1.0" encoding="iso-8859-1"?>
<!-- Generator: Adobe Illustrator 19.0.0, SVG Export Plug-In . SVG Version: 6.00 Build 0)  -->
<svg version="1.1" id="Layer_1" xmlns="http://www.w3.org/2000/svg" xmlns:xlink="http://www.w3.org/1999/xlink" x="0px" y="0px"
	 viewBox="0 0 487.646 487.646" style="enable-background:new 0 0 487.646 487.646;" xml:space="preserve">
<g>
	<g>
		<g>
			<path d="M457.233,79.983h-10.549v-40.96c0-11.311-9.169-20.48-20.48-20.48c-11.311,0-20.48,9.169-20.48,20.48v40.96h-81.928
				h-40.95H180.444c-11.32,0-20.48-9.16-20.48-20.48c0-11.311-9.169-20.48-20.48-20.48s-20.48,9.169-20.48,20.48
				c0,26.754,17.092,49.494,40.952,57.929v4.367C66.636,129.746,16.489,192.842,0.958,285.916
				c-7.08,42.335,26.007,80.785,68.984,80.785c37.422,0,67.895-29.643,69.69-67.116c1.435-29.99,6.439-35.239,40.406-35.282h57.147
				c39.085,0,72.109-25.884,82.891-61.44h137.157c16.799,0,30.413-13.613,30.413-30.413v-62.054
				C487.646,93.596,474.032,79.983,457.233,79.983z M98.719,297.626c-0.758,15.817-13.399,28.114-28.777,28.114
				c-17.813,0-31.463-15.863-28.584-33.076c12.509-74.963,48.764-122.171,118.598-129.702v61.557
				C118.052,229.803,100.854,253.002,98.719,297.626z M282.836,177.693c0,25.213-20.432,45.65-45.65,45.65h-36.254v-102.4h81.904
				V177.693z M446.686,161.903h-122.88v-40.96h122.88V161.903z"/>
			<path d="M426.204,305.263c-33.941,0-61.44,27.499-61.44,61.44v102.4h122.88v-102.4
				C487.644,332.762,460.145,305.263,426.204,305.263z M446.684,428.143h-40.96v-61.44c0-11.32,9.16-20.48,20.48-20.48
				c11.32,0,20.48,9.16,20.48,20.48V428.143z"/>
			<path d="M262.364,305.263c-33.941,0-61.44,27.499-61.44,61.44v102.4h122.88v-102.4
				C323.804,332.762,296.305,305.263,262.364,305.263z M282.844,428.143h-40.96v-61.44c0-11.32,9.16-20.48,20.48-20.48
				c11.32,0,20.48,9.16,20.48,20.48V428.143z"/>
		</g>
	</g>
</g>
<g>
</g>
<g>
</g>
<g>
</g>
<g>
</g>
<g>
</g>
<g>
</g>
<g>
</g>
<g>
</g>
<g>
</g>
<g>
</g>
<g>
</g>
<g>
</g>
<g>
</g>
<g>
</g>
<g>
</g>
</svg>
