<?xml version="1.0" encoding="iso-8859-1"?>
<!-- Generator: Adobe Illustrator 19.0.0, SVG Export Plug-In . SVG Version: 6.00 Build 0)  -->
<svg version="1.1" id="Layer_1" xmlns="http://www.w3.org/2000/svg" xmlns:xlink="http://www.w3.org/1999/xlink" x="0px" y="0px"
	 viewBox="0 0 512.004 512.004" style="enable-background:new 0 0 512.004 512.004;" xml:space="preserve">
<g>
	<g>
		<path d="M490.985,6.304c0.86-1.224,1.1-2.82,0.416-4.144c-0.688-1.328-1.92-2.16-3.412-2.16H24.317
			c-1.492,0-2.856,0.832-3.544,2.16c-0.688,1.324-0.832,2.92,0.028,4.14l218.756,310.964v98.908c0,0.18,0.212,0.36,0.204,0.544
			c-0.428,39.144-32.852,71.096-71.984,71.24c-2.204,0.008-4.22,1.796-4.22,4v16.008c0,2.212,2.504,4.04,4.716,4.04h175.844
			c2.212,0,3.44-1.828,3.44-4.04v-16c0-2.208-1.78-4-3.992-4c-39.272-0.004-72.008-31.964-72.008-71.208v-99.492L490.985,6.304z
			 M300.209,193.968c-0.952,3.472-4.116,5.904-7.72,5.904c-4.42,0-8.016-3.6-8.016-8.016c0-1.116,0.236-2.22,0.688-3.244
			c1.28-2.892,4.164-4.772,7.328-4.772c2.116,0,4.164,0.848,5.664,2.348C300.193,188.22,300.973,191.192,300.209,193.968z
			 M319.785,145.332c-0.536,3.964-3.936,6.944-7.936,6.944c-4.416,0-8.008-3.6-8.008-8.02c0-0.584,0.064-1.168,0.196-1.744
			c0.812-3.656,4.072-6.272,7.812-6.272c3.04,0,5.828,1.724,7.18,4.444C319.745,142.12,320.005,143.744,319.785,145.332z
			 M212.597,145.076c-0.536,3.96-3.936,6.94-7.936,6.94c-4.416,0-8.008-3.6-8.008-8.016c0-0.556,0.064-1.108,0.172-1.652
			c0.78-3.7,4.056-6.368,7.836-6.368c3.172,0,6.056,1.884,7.336,4.78C212.589,142.112,212.801,143.608,212.597,145.076z
			 M247.833,182.344c-0.952,3.468-4.116,5.904-7.72,5.904c-4.42,0-8.016-3.6-8.016-8.016c0-1.116,0.236-2.22,0.688-3.24
			c1.28-2.892,4.164-4.776,7.328-4.776c2.116,0,4.164,0.848,5.664,2.352C247.817,176.596,248.601,179.568,247.833,182.344z
			 M241.625,120.192c-7.544,0-11.08-1.676-15.18-3.616c-4.336-2.056-9.248-4.384-18.592-4.384s-14.26,2.328-18.596,4.384
			c-4.096,1.94-7.636,3.616-15.176,3.616c-7.548,0-11.084-1.676-15.18-3.616c-4.336-2.056-9.256-4.384-18.6-4.384
			c-6.108,0-10.316,1-13.716,2.264L62.869,24h386.556l-67.576,95.884c-1.484,0.196-3.156,0.312-5.092,0.312
			c-7.548,0-11.084-1.676-15.18-3.616c-4.344-2.056-9.256-4.384-18.608-4.384c-9.344,0-14.264,2.328-18.6,4.384
			c-4.1,1.94-7.64,3.616-15.188,3.616s-11.084-1.676-15.18-3.616c-4.344-2.056-9.256-4.384-18.6-4.384s-14.264,2.328-18.6,4.384
			C252.701,118.516,249.161,120.192,241.625,120.192z M263.973,160c0-1.064,0.212-2.116,0.624-3.1
			c1.248-2.968,4.164-4.92,7.392-4.92c2.288,0,4.476,0.992,6,2.7c1.788,2.028,2.436,4.824,1.72,7.432
			c-0.952,3.472-4.116,5.904-7.72,5.904C267.569,168.016,263.973,164.416,263.973,160z"/>
	</g>
</g>
<g>
</g>
<g>
</g>
<g>
</g>
<g>
</g>
<g>
</g>
<g>
</g>
<g>
</g>
<g>
</g>
<g>
</g>
<g>
</g>
<g>
</g>
<g>
</g>
<g>
</g>
<g>
</g>
<g>
</g>
</svg>
