<?xml version="1.0" encoding="iso-8859-1"?>
<!-- Generator: Adobe Illustrator 19.0.0, SVG Export Plug-In . SVG Version: 6.00 Build 0)  -->
<svg version="1.1" id="Layer_1" xmlns="http://www.w3.org/2000/svg" xmlns:xlink="http://www.w3.org/1999/xlink" x="0px" y="0px"
	 viewBox="0 0 512 512" style="enable-background:new 0 0 512 512;" xml:space="preserve">
<g>
	<g>
		<path d="M398.284,178H268v-12h10.384c6.616,0,12.004-5.408,12.004-12s-5.388-12-12.004-12H238.54c-6.62,0-12.004,5.408-12.004,12
			s5.384,12,12.004,12H244v12H118.636c-23.016,0-41.928,20-43.82,40h367.288C440.208,198,421.3,178,398.284,178z"/>
	</g>
</g>
<g>
	<g>
		<path d="M502.136,234h-59.78H74.276H14.78C8.164,234,0,238.072,0,244.688v7.664C0,258.968,8.164,266,14.78,266h44.012
			C67.524,266,72,271.456,72,280.188v44.332C72,348.78,94.372,370,118.636,370h279.648C422.552,370,440,348.78,440,324.52v-44.332
			c0-8.732,9.396-14.188,18.128-14.188h44.008c6.62,0,9.864-7.032,9.864-13.648v-7.664C512,238.072,508.756,234,502.136,234z"/>
	</g>
</g>
<g>
</g>
<g>
</g>
<g>
</g>
<g>
</g>
<g>
</g>
<g>
</g>
<g>
</g>
<g>
</g>
<g>
</g>
<g>
</g>
<g>
</g>
<g>
</g>
<g>
</g>
<g>
</g>
<g>
</g>
</svg>
