<?xml version="1.0" encoding="iso-8859-1"?>
<!-- Generator: Adobe Illustrator 19.0.0, SVG Export Plug-In . SVG Version: 6.00 Build 0)  -->
<svg version="1.1" id="Layer_1" xmlns="http://www.w3.org/2000/svg" xmlns:xlink="http://www.w3.org/1999/xlink" x="0px" y="0px"
	 viewBox="0 0 503.711 503.711" style="enable-background:new 0 0 503.711 503.711;" xml:space="preserve">
<g>
	<g>
		<g>
			<path d="M167.241,243.41h51.72c8.893,0,16.107-7.209,16.107-16.107v-18.147c0-8.898-7.214-16.107-16.107-16.107h-51.72
				c-8.893,0-16.107,7.209-16.107,16.107v18.147C151.134,236.201,158.349,243.41,167.241,243.41z M167.921,209.836h50.361v16.787
				h-50.361V209.836z"/>
			<path d="M495.265,201.664c-4.636,0-8.393,3.758-8.393,8.393c0,17.037-3.577,27.345-11.02,37.735
				c-0.997,1.392-6.163,8.12-7.522,10.089c-2.567,3.719-4.37,7.237-5.449,10.93h-1.944c-0.499-8.43,0.249-15.259,2.082-24.09
				c-0.032,0.156,0.862-4.094,1.099-5.279c0.414-2.068,0.717-3.792,0.949-5.489c1.261-9.208,0.224-17.315-4.065-27.23
				c-1.841-4.255-6.781-6.211-11.036-4.371c-4.255,1.841-6.211,6.782-4.371,11.036c3.051,7.053,3.693,12.067,2.841,18.286
				c-0.18,1.31-0.426,2.715-0.778,4.473c-0.218,1.088-1.092,5.243-1.075,5.162c-2.048,9.869-2.943,17.905-2.459,27.501h-3.315
				c-3.172-4.874-4.347-9.433-4.47-15.374c-0.039-1.917,0.003-3.469,0.166-7.291c0.734-17.223-0.901-26.818-9.705-40.606
				c-2.495-3.907-7.684-5.052-11.591-2.557s-5.052,7.684-2.557,11.591c6.584,10.311,7.682,16.759,7.082,30.858
				c-0.178,4.181-0.227,5.959-0.177,8.351c0.201,9.757,2.586,17.874,8.563,26.198v123.008c0,27.768-22.594,50.361-50.361,50.361
				H268.642c-27.766,0-50.361-22.592-50.361-50.361v-16.784c9.27,0,16.787-7.511,16.787-16.787v-33.68h134.295
				c9.27,0,16.787-7.511,16.787-16.787V117.508c0-9.276-7.516-16.787-16.787-16.787h-8.393V41.967c4.636,0,8.393-3.758,8.393-8.393
				s-3.758-8.393-8.393-8.393v-8.393C360.97,7.511,353.453,0,344.183,0H42.019c-9.27,0-16.787,7.511-16.787,16.787v8.393
				c-4.636,0-8.393,3.758-8.393,8.393s3.758,8.393,8.393,8.393v58.754h-8.393c-9.27,0-16.787,7.511-16.787,16.787v201.443
				c0,9.276,7.517,16.787,16.787,16.787h134.295v33.68c0,9.276,7.517,16.787,16.787,16.787v16.784
				c0,55.547,45.177,100.721,100.721,100.721h109.115c55.545,0,100.721-45.174,100.721-100.721V277.205
				c0-3.291,1.029-5.965,3.667-9.788c1.06-1.535,6.103-8.105,7.352-9.848c9.412-13.138,14.161-26.822,14.161-47.511
				C503.658,205.422,499.9,201.664,495.265,201.664z M42.019,16.787h33.574v41.967c0,4.636,3.758,8.393,8.393,8.393
				s8.393-3.758,8.393-8.393V16.787h16.787v41.967c0,4.636,3.758,8.393,8.393,8.393c4.636,0,8.393-3.758,8.393-8.393V16.787h134.295
				v41.967c0,4.636,3.758,8.393,8.393,8.393s8.393-3.758,8.393-8.393V16.787h16.787v41.967c0,4.636,3.758,8.393,8.393,8.393
				s8.393-3.758,8.393-8.393V16.787h33.574v83.934H42.019V16.787z M16.838,117.508h16.787h318.951h16.787v201.443H226.724
				c-0.017,0-0.033-0.003-0.05-0.003h-67.148c-0.017,0-0.033,0.002-0.05,0.003H16.838V117.508z M218.281,335.738v33.68h-8.344
				c-0.017,0-0.033-0.003-0.05-0.003h-33.574c-0.017,0-0.033,0.002-0.05,0.003h-8.344v-33.68H218.281z M461.691,402.989
				c0,46.276-37.661,83.934-83.934,83.934H268.642c-46.274,0-83.934-37.658-83.934-83.934v-16.784h16.787v16.784
				c0,37.04,30.111,67.148,67.148,67.148h109.115c37.037,0,67.148-30.108,67.148-67.148V285.599h16.787V402.989z"/>
			<path d="M419.724,184.877c4.636,0,8.393-3.758,8.393-8.393c0-17.037,3.577-27.345,11.02-37.735
				c0.997-1.392,6.163-8.12,7.522-10.089c2.567-3.72,4.371-7.237,5.45-10.931h1.943c0.499,8.43-0.249,15.26-2.081,24.09
				c0.032-0.156-0.862,4.094-1.099,5.279c-0.414,2.067-0.717,3.792-0.949,5.489c-1.261,9.208-0.224,17.315,4.065,27.23
				c1.841,4.255,6.782,6.211,11.036,4.371s6.211-6.782,4.371-11.036c-3.051-7.053-3.693-12.067-2.841-18.286
				c0.18-1.31,0.426-2.715,0.778-4.473c0.218-1.088,1.092-5.243,1.075-5.162c2.048-9.869,2.943-17.905,2.459-27.501h3.315
				c3.173,4.875,4.348,9.433,4.47,15.374c0.039,1.917-0.003,3.469-0.166,7.291c-0.734,17.223,0.901,26.818,9.705,40.606
				c2.495,3.907,7.684,5.052,11.591,2.557c3.907-2.495,5.052-7.684,2.557-11.591c-6.584-10.311-7.682-16.759-7.082-30.858
				c0.178-4.181,0.227-5.959,0.177-8.351c-0.201-9.757-2.586-17.874-8.563-26.198V8.614c0-4.636-3.758-8.393-8.393-8.393h-33.574
				c-4.636,0-8.393,3.758-8.393,8.393v100.721c0,0,0,0,0,0s0,0,0,0c0,3.291-1.029,5.965-3.667,9.788
				c-1.06,1.535-6.103,8.105-7.352,9.848c-9.412,13.138-14.16,26.822-14.16,47.511C411.33,181.119,415.088,184.877,419.724,184.877z
				 M453.297,17.008h16.787v83.934h-16.787V17.008z"/>
		</g>
	</g>
</g>
<g>
</g>
<g>
</g>
<g>
</g>
<g>
</g>
<g>
</g>
<g>
</g>
<g>
</g>
<g>
</g>
<g>
</g>
<g>
</g>
<g>
</g>
<g>
</g>
<g>
</g>
<g>
</g>
<g>
</g>
</svg>
