<?xml version="1.0" encoding="iso-8859-1"?>
<!-- Generator: Adobe Illustrator 19.0.0, SVG Export Plug-In . SVG Version: 6.00 Build 0)  -->
<svg version="1.1" id="Layer_1" xmlns="http://www.w3.org/2000/svg" xmlns:xlink="http://www.w3.org/1999/xlink" x="0px" y="0px"
	 viewBox="0 0 512 512" style="enable-background:new 0 0 512 512;" xml:space="preserve">
<g>
	<g>
		<g>
			<path d="M486.4,110.933H25.6c-14.134,0-25.6,11.466-25.6,25.6v238.933c0,14.134,11.466,25.6,25.6,25.6h460.8
				c14.134,0,25.6-11.466,25.6-25.6V136.533C512,122.4,500.534,110.933,486.4,110.933z M494.933,375.467
				c0,4.708-3.825,8.533-8.533,8.533H25.6c-4.708,0-8.533-3.825-8.533-8.533V136.533c0-4.708,3.825-8.533,8.533-8.533h460.8
				c4.708,0,8.533,3.825,8.533,8.533V375.467z"/>
			<path d="M452.267,179.2H59.733c-4.713,0-8.533,3.82-8.533,8.533v34.133c0,2.263,0.899,4.434,2.499,6.034l31.634,31.634v64.734
				c0,4.713,3.821,8.533,8.533,8.533h324.267c4.713,0,8.533-3.82,8.533-8.533v-64.734l31.634-31.634
				c1.6-1.6,2.499-3.771,2.499-6.034v-34.133C460.8,183.021,456.979,179.2,452.267,179.2z M366.933,230.402H384v17.067h-17.067
				V230.402z M307.2,230.402h17.067v17.067H307.2V230.402z M247.467,230.402h17.067v17.067h-17.067V230.402z M187.733,230.402H204.8
				v17.067h-17.067V230.402z M128,230.402h17.067v17.067H128V230.402z M409.6,315.735H102.4V256v-25.598h8.533v25.6
				c0,4.713,3.82,8.533,8.533,8.533H153.6c4.713,0,8.533-3.82,8.533-8.533v-25.6h8.533v25.6c0,4.713,3.82,8.533,8.533,8.533h34.133
				c4.713,0,8.533-3.82,8.533-8.533v-25.6h8.533v25.6c0,4.713,3.82,8.533,8.533,8.533h34.133c4.713,0,8.533-3.82,8.533-8.533v-25.6
				h8.533v25.6c0,4.713,3.82,8.533,8.533,8.533H332.8c4.713,0,8.533-3.82,8.533-8.533v-25.6h8.533v25.6
				c0,4.713,3.82,8.533,8.533,8.533h34.133c4.713,0,8.533-3.82,8.533-8.533v-25.6h8.533V256V315.735z M443.733,218.332
				l-17.067,17.067v-13.53v-0.002c0-4.713-3.82-8.533-8.533-8.533H93.867c-4.713,0-8.533,3.82-8.533,8.533v0.002v13.53
				l-17.067-17.067v-22.065h375.467V218.332z"/>
		</g>
	</g>
</g>
<g>
</g>
<g>
</g>
<g>
</g>
<g>
</g>
<g>
</g>
<g>
</g>
<g>
</g>
<g>
</g>
<g>
</g>
<g>
</g>
<g>
</g>
<g>
</g>
<g>
</g>
<g>
</g>
<g>
</g>
</svg>
