<?xml version="1.0" encoding="iso-8859-1"?>
<!-- Generator: Adobe Illustrator 19.0.0, SVG Export Plug-In . SVG Version: 6.00 Build 0)  -->
<svg version="1.1" id="Layer_1" xmlns="http://www.w3.org/2000/svg" xmlns:xlink="http://www.w3.org/1999/xlink" x="0px" y="0px"
	 viewBox="0 0 503.608 503.608" style="enable-background:new 0 0 503.608 503.608;" xml:space="preserve">
<g>
	<g>
		<g>
			<path d="M428.066,226.623c0-4.636-3.758-8.393-8.393-8.393v-16.787c4.636,0,8.393-3.758,8.393-8.393
				c0-4.636-3.758-8.393-8.393-8.393V142.69c0-4.636-3.758-8.393-8.393-8.393h-25.18v-16.789c0-9.277-7.51-16.787-16.787-16.787
				h-16.787c-9.277,0-16.787,7.51-16.787,16.787v16.789h-8.393v-25.182c0-9.277-7.51-16.787-16.787-16.787H193.05
				c-9.277,0-16.787,7.51-16.787,16.787v25.182h-8.393v-16.789c0-9.277-7.51-16.787-16.787-16.787h-16.787
				c-9.277,0-16.787,7.51-16.787,16.787v16.789h-25.18c-4.636,0-8.393,3.758-8.393,8.393v41.966c-4.636,0-8.393,3.758-8.393,8.393
				c0,4.636,3.758,8.393,8.393,8.393v16.787c-4.636,0-8.393,3.758-8.393,8.393s3.758,8.393,8.393,8.393v16.787
				c-4.636,0-8.393,3.758-8.393,8.393c0,4.636,3.758,8.393,8.393,8.393v16.787c-4.636,0-8.393,3.758-8.393,8.393
				s3.758,8.393,8.393,8.393v16.787c-4.636,0-8.393,3.758-8.393,8.393s3.758,8.393,8.393,8.393v41.969
				c0,4.636,3.758,8.393,8.393,8.393h25.18v41.966c0,9.277,7.51,16.787,16.787,16.787h16.787c9.277,0,16.787-7.51,16.787-16.787
				V386.1h41.967v16.785c-4.636,0-8.393,3.758-8.393,8.393c0,4.636,3.758,8.393,8.393,8.393v16.787
				c0,9.277,7.51,16.787,16.787,16.787v41.969c0,4.636,3.758,8.393,8.393,8.393h33.574c4.636,0,8.393-3.758,8.393-8.393v-41.969
				c9.277,0,16.787-7.51,16.787-16.787v-16.787c4.636,0,8.393-3.758,8.393-8.393c0-4.636-3.758-8.393-8.393-8.393V386.1h33.574
				v41.966c0,9.277,7.51,16.787,16.787,16.787h16.787c9.277,0,16.787-7.51,16.787-16.787V386.1h33.574
				c4.636,0,8.393-3.758,8.393-8.393v-41.969c4.636,0,8.393-3.758,8.393-8.393s-3.758-8.393-8.393-8.393v-16.787
				c4.636,0,8.393-3.758,8.393-8.393s-3.758-8.393-8.393-8.393V268.59c4.636,0,8.393-3.758,8.393-8.393
				c0-4.636-3.758-8.393-8.393-8.393v-16.787C424.309,235.016,428.066,231.258,428.066,226.623z M352.525,117.508h16.787v16.787
				h-16.787V117.508z M193.05,109.115h117.508v25.18H193.05V109.115z M134.296,117.508h16.787v16.787h-16.787V117.508z
				 M260.198,486.821h-16.787v-33.574h16.787V486.821z M100.722,151.084h302.164v33.572H100.722V151.084z M100.722,201.443h302.164
				v16.787H100.722V201.443z M151.083,428.066h-16.787V386.1h16.787V428.066z M276.984,436.459h-50.361v-16.787h50.361V436.459z
				 M276.984,402.885h-50.361V386.1h50.361V402.885z M360.919,428.066h-16.787V386.1h16.787V428.066z M402.886,369.313h-33.541
				c-0.011,0-0.022-0.002-0.033-0.002h-33.574c-0.011,0-0.022,0.002-0.033,0.002h-50.295c-0.011,0-0.022-0.002-0.033-0.002H218.23
				c-0.011,0-0.022,0.002-0.033,0.002h-58.689c-0.011,0-0.022-0.002-0.033-0.002h-33.574c-0.011,0-0.022,0.002-0.033,0.002h-25.148
				v-33.575h302.164V369.313z M402.886,318.951H100.722v-16.787h302.164V318.951z M402.886,285.377H100.722V268.59h302.164V285.377z
				 M402.886,251.803H100.722v-16.787h302.164V251.803z"/>
			<path d="M193.05,75.541h117.508c13.902,0,25.18-11.278,25.18-25.18V16.787C335.739,7.51,328.229,0,318.952,0H184.657
				c-9.277,0-16.787,7.51-16.787,16.787v33.574C167.87,64.263,179.148,75.541,193.05,75.541z M184.657,16.787h134.295v33.574
				c0,4.631-3.763,8.393-8.393,8.393h-16.787v-8.393c0-4.636-3.758-8.393-8.393-8.393s-8.393,3.758-8.393,8.393v8.393h-16.787
				v-8.393c0-4.636-3.758-8.393-8.393-8.393s-8.393,3.758-8.393,8.393v8.393h-16.787v-8.393c0-4.636-3.758-8.393-8.393-8.393
				c-4.636,0-8.393,3.758-8.393,8.393v8.393H193.05c-4.631,0-8.393-3.763-8.393-8.393V16.787z"/>
		</g>
	</g>
</g>
<g>
</g>
<g>
</g>
<g>
</g>
<g>
</g>
<g>
</g>
<g>
</g>
<g>
</g>
<g>
</g>
<g>
</g>
<g>
</g>
<g>
</g>
<g>
</g>
<g>
</g>
<g>
</g>
<g>
</g>
</svg>
