<?xml version="1.0" encoding="iso-8859-1"?>
<!-- Generator: Adobe Illustrator 19.0.0, SVG Export Plug-In . SVG Version: 6.00 Build 0)  -->
<svg version="1.1" id="Layer_1" xmlns="http://www.w3.org/2000/svg" xmlns:xlink="http://www.w3.org/1999/xlink" x="0px" y="0px"
	 viewBox="0 0 512.001 512.001" style="enable-background:new 0 0 512.001 512.001;" xml:space="preserve">
<g>
	<g>
		<path d="M495.636,12.739c-1.835-6.303-7.181-10.953-13.676-11.897c-35.731-5.189-84.984,14.591-120.009,32.102
			c-39.546,19.772-79.013,45.956-98.211,65.152c-41.706,41.706-45.366,107.261-10.998,153.162l-36.392,36.392l-23.694-23.694
			c-6.542-6.542-17.151-6.542-23.694,0L35.295,397.626c-26.131,26.13-26.131,68.647,0,94.777
			c13.065,13.065,30.227,19.598,47.389,19.598c17.161,0,34.323-6.533,47.388-19.598l133.669-133.67
			c6.543-6.542,6.543-17.151,0-23.694l-23.694-23.694l36.392-36.391c20.737,15.527,45.482,23.299,70.233,23.299
			c30.034,0,60.065-11.432,82.929-34.296c10.868-10.868,24.297-28.575,37.81-49.858c13.339-21.008,8.478-48.23-11.307-63.321
			c-19.484-14.866-47.629-12.299-64.076,5.841c-19.692,21.72-30.358,33.105-33.509,36.256c-6.53,6.531-17.16,6.534-23.694-0.001
			c-3.153-3.152-4.889-7.358-4.889-11.845s1.737-8.693,4.889-11.846c10.412-10.413,83.75-77.138,155.658-139.063
			C495.457,25.834,497.472,19.041,495.636,12.739z M201.786,373.3l-47.389-47.389l26.414-26.414l23.684,23.684
			c0.003,0.003,0.007,0.008,0.01,0.011s0.008,0.007,0.011,0.01l23.684,23.684L201.786,373.3z"/>
	</g>
</g>
<g>
</g>
<g>
</g>
<g>
</g>
<g>
</g>
<g>
</g>
<g>
</g>
<g>
</g>
<g>
</g>
<g>
</g>
<g>
</g>
<g>
</g>
<g>
</g>
<g>
</g>
<g>
</g>
<g>
</g>
</svg>
