<?xml version="1.0" encoding="iso-8859-1"?>
<!-- Generator: Adobe Illustrator 19.0.0, SVG Export Plug-In . SVG Version: 6.00 Build 0)  -->
<svg version="1.1" id="Layer_1" xmlns="http://www.w3.org/2000/svg" xmlns:xlink="http://www.w3.org/1999/xlink" x="0px" y="0px"
	 viewBox="0 0 512 512" style="enable-background:new 0 0 512 512;" xml:space="preserve">
<g>
	<g>
		<g>
			<path d="M362.667,192c0-16.853-47.787-42.667-106.667-42.667S149.333,175.147,149.333,192S197.12,234.667,256,234.667
				S362.667,208.853,362.667,192z"/>
			<path d="M256,42.667C112.448,42.667,0,108.267,0,192v149.333c0,1.877,0.619,3.563,1.067,5.291C0.448,350.059,0,353.557,0,357.163
				v53.675c0,32.256,26.24,58.496,58.496,58.496h90.837H256c143.552,0,256-65.6,256-149.333V192
				C512,108.267,399.552,42.667,256,42.667z M42.667,275.584c9.515,8.341,20.459,16.064,32.64,23.083H58.496
				c-5.525,0-10.752,1.024-15.829,2.453V275.584z M128,426.667H58.496c-8.725,0-15.829-7.104-15.829-15.829v-53.675
				c0-8.725,7.104-15.829,15.829-15.829H128V426.667z M106.667,192c0-52.715,77.525-85.333,149.333-85.333
				S405.333,139.285,405.333,192c0,52.715-77.525,85.333-149.333,85.333S106.667,244.715,106.667,192z M469.333,320
				c0,57.813-97.685,106.667-213.333,106.667h-85.333v-93.696c26.624,5.333,55.232,8.363,85.333,8.363
				c90.048,0,167.851-25.835,213.333-65.749V320z"/>
		</g>
	</g>
</g>
<g>
</g>
<g>
</g>
<g>
</g>
<g>
</g>
<g>
</g>
<g>
</g>
<g>
</g>
<g>
</g>
<g>
</g>
<g>
</g>
<g>
</g>
<g>
</g>
<g>
</g>
<g>
</g>
<g>
</g>
</svg>
