<?xml version="1.0" encoding="iso-8859-1"?>
<!-- Generator: Adobe Illustrator 19.0.0, SVG Export Plug-In . SVG Version: 6.00 Build 0)  -->
<svg version="1.1" id="Layer_1" xmlns="http://www.w3.org/2000/svg" xmlns:xlink="http://www.w3.org/1999/xlink" x="0px" y="0px"
	 viewBox="0 0 496.158 496.158" style="enable-background:new 0 0 496.158 496.158;" xml:space="preserve">
<path style="fill:#48A1AF;" d="M248.082,0.002C111.07,0.002,0,111.062,0,248.085c0,137,111.07,248.07,248.082,248.07
	c137.006,0,248.076-111.07,248.076-248.07C496.158,111.062,385.088,0.002,248.082,0.002z"/>
<path style="fill:#EA4949;" d="M119.433,138.606v321.627c37.512,22.794,81.547,35.921,128.648,35.921
	c46.768,0,90.508-12.95,127.846-35.448v-322.1L119.433,138.606L119.433,138.606z"/>
<rect x="144.489" y="163.008" style="fill:#367983;" width="206.39" height="155.2"/>
<path style="fill:#EA4949;" d="M345.059,100.827c-24.546,0-25.338-15.309-48.69-15.309c-33.846,0-38.758-19.146-48.19-19.279v-0.007
	c-0.013,0-0.032,0.002-0.046,0.002c-0.019,0-0.033-0.002-0.051-0.002v0.007c-9.432,0.133-14.34,19.279-48.191,19.279
	c-23.352,0-24.145,15.309-48.689,15.309c-16.623,0-30.869,10.005-30.869,10.005v27.774h255.596v-27.774
	C375.928,110.832,361.678,100.827,345.059,100.827z"/>
<path style="fill:#DFA17C;" d="M224.955,308.578l-6.525-29.811c-0.781-5.958-6.875-10.077-13.617-9.192
	c-6.742,0.888-11.571,6.438-10.779,12.403l-0.168,24.942c0.783,5.963,13.621,9.194,13.621,9.194
	C214.224,315.224,225.734,314.544,224.955,308.578z"/>
<g>
	<path style="fill:#C4A10E;" d="M213.658,229.107c-3.211,0.007-5.793,2.491-5.793,5.555c0.012,3.066,2.606,5.553,5.798,5.561
		c3.192,0.007,5.778-2.484,5.778-5.553C219.426,231.608,216.85,229.114,213.658,229.107z"/>
	<path style="fill:#C4A10E;" d="M216.726,222.096c-2.66,0.005-4.817,2.504-4.831,5.573c-0.011,3.071,2.142,5.545,4.806,5.535
		c2.656-0.01,4.818-2.511,4.834-5.573C221.539,224.562,219.398,222.078,216.726,222.096z"/>
	<path style="fill:#C4A10E;" d="M219.83,218.891c-0.602-3.002-2.837-5.067-4.998-4.607c-2.16,0.47-3.438,3.292-2.842,6.303
		c0.592,3.003,2.816,5.07,4.996,4.612C219.139,224.728,220.415,221.902,219.83,218.891z"/>
</g>
<path style="fill:#EA4949;" d="M204.132,222.098c-9.931,0-19.851,35.558-19.851,58.633c0,7.344,39.705,6.308,39.705,0
	C223.986,257.655,214.066,222.098,204.132,222.098z"/>
<path style="fill:#E5C2B7;" d="M206.891,210.738c-6.609,0-11.973,6.102-11.973,13.623c0,7.523,5.363,13.617,11.973,13.617
	s11.973-6.094,11.973-13.617C218.863,216.84,213.5,210.738,206.891,210.738z"/>
<g>
	<path style="fill:#DDB717;" d="M194.223,222.92c-3.293-0.703-6.494,1.156-7.134,4.157c-0.646,2.997,1.511,6.008,4.802,6.708
		c3.303,0.708,6.488-1.148,7.139-4.146C199.67,226.632,197.514,223.63,194.223,222.92z"/>
	<path style="fill:#DDB717;" d="M195.517,215.046c-3.256-0.695-6.434,1.171-7.068,4.17c-0.646,3.006,1.486,6.002,4.738,6.71
		c3.27,0.696,6.432-1.175,7.082-4.172C200.91,218.753,198.785,215.744,195.517,215.046z"/>
	<path style="fill:#DDB717;" d="M203.211,213.001c-0.695-2.096-3.625-3.019-6.533-2.051c-2.911,0.97-4.707,3.459-4.016,5.553
		c0.699,2.108,3.625,3.021,6.537,2.058C202.111,217.596,203.916,215.101,203.211,213.001z"/>
	<path style="fill:#DDB717;" d="M193.855,230.106c-3.164-0.68-6.178,0.938-6.762,3.597c-0.574,2.674,1.534,5.393,4.699,6.056
		c3.148,0.682,6.171-0.93,6.744-3.602C199.106,233.494,197.002,230.789,193.855,230.106z"/>
</g>
<circle style="fill:#514D46;" cx="214.399" cy="222.598" r="2.271"/>
<path style="fill:#FFFFFF;" d="M215.207,220.974c-0.451,0-0.811,0.365-0.811,0.81c0,0.446,0.359,0.813,0.811,0.813
	c0.445,0,0.805-0.367,0.805-0.813C216.012,221.339,215.652,220.974,215.207,220.974z"/>
<path style="fill:#514D46;" d="M204.962,220.6c-1.397,0-2.538,1.132-2.538,2.536c0,1.405,1.141,2.542,2.538,2.542
	c1.403,0,2.54-1.138,2.54-2.542C207.502,221.733,206.365,220.6,204.962,220.6z"/>
<path style="fill:#FFFFFF;" d="M205.867,221.236c-0.496,0-0.91,0.4-0.91,0.9c0,0.503,0.414,0.909,0.91,0.909
	c0.498,0,0.907-0.406,0.907-0.909C206.774,221.636,206.365,221.236,205.867,221.236z"/>
<path style="fill:#EA4949;" d="M204.207,180.756c-1.211,0-5.934,20.439-12.226,34.504l24.911-0.588
	C209.34,194.055,205.527,180.756,204.207,180.756z"/>
<path style="fill:#DFA17C;" d="M305.461,306.43l-4.9-45.539c-0.576-6.636-7.112-11.485-14.613-10.838
	c-7.502,0.651-13.104,6.558-12.531,13.192l-2.886,42.644c0.571,6.633,13.177,4.626,20.673,3.979
	C298.703,309.219,306.032,313.061,305.461,306.43z"/>
<path style="fill:#E8CA4B;" d="M310.553,264.763c-7.316-29.829-24.465-68.563-35.202-66.195c-10.731,2.368-13.2,44.809-7.718,75.664
	C269.138,281.051,312.303,272.702,310.553,264.763z"/>
<g>
	<path style="fill:#514D46;" d="M294.785,200.823c-0.555-2.383-2.953-3.868-5.334-3.301c-2.387,0.556-3.871,2.945-3.31,5.33
		c0.562,2.389,2.952,3.865,5.339,3.308C293.862,205.599,295.342,203.21,294.785,200.823z"/>
	<path style="fill:#514D46;" d="M293.71,193.894c-0.562-2.384-2.952-3.861-5.339-3.31c-2.383,0.562-3.866,2.95-3.295,5.34
		c0.551,2.385,2.938,3.866,5.33,3.308C292.787,198.668,294.272,196.279,293.71,193.894z"/>
	<path style="fill:#514D46;" d="M292.873,206.798c-0.568-2.381-2.945-3.869-5.336-3.308c-2.389,0.567-3.865,2.951-3.311,5.337
		c0.567,2.381,2.953,3.863,5.334,3.3C291.947,211.577,293.428,209.182,292.873,206.798z"/>
	<path style="fill:#514D46;" d="M267.651,206.932c-0.493-2.4-2.849-3.943-5.245-3.447c-2.398,0.493-3.947,2.844-3.447,5.243
		c0.493,2.397,2.844,3.942,5.24,3.448C266.602,211.676,268.144,209.334,267.651,206.932z"/>
	<path style="fill:#514D46;" d="M265.71,200.2c-0.499-2.411-2.848-3.951-5.251-3.455c-2.396,0.499-3.939,2.848-3.445,5.243
		c0.503,2.399,2.848,3.941,5.245,3.454C264.656,204.943,266.197,202.597,265.71,200.2z"/>
	<path style="fill:#514D46;" d="M271.894,211.545c-0.494-2.397-2.843-3.937-5.24-3.446c-2.402,0.495-3.94,2.843-3.45,5.24
		c0.497,2.405,2.847,3.949,5.243,3.446C270.851,216.295,272.392,213.945,271.894,211.545z"/>
</g>
<path style="fill:#EAC2B0;" d="M289.225,195.691c-1.944-8.797-9.786-14.551-17.523-12.844c-7.732,1.71-12.428,10.229-10.491,19.023
	c1.946,8.805,9.788,14.554,17.524,12.846C286.466,213.006,291.167,204.495,289.225,195.691z"/>
<path style="fill:#514D46;" d="M269.193,199.73c-0.3-1.359-1.643-2.215-3-1.91c-1.355,0.296-2.209,1.634-1.91,2.993
	c0.293,1.353,1.636,2.214,2.99,1.915C268.632,202.429,269.492,201.083,269.193,199.73z"/>
<path style="fill:#FFFFFF;" d="M266.55,199.399c-0.11-0.488-0.593-0.792-1.076-0.685c-0.482,0.105-0.786,0.585-0.677,1.073
	c0.106,0.477,0.582,0.789,1.064,0.681C266.344,200.362,266.648,199.877,266.55,199.399z"/>
<path style="fill:#514D46;" d="M283.205,197.19c-0.307-1.358-1.648-2.213-3.002-1.909c-1.358,0.299-2.208,1.634-1.909,2.992
	c0.3,1.358,1.637,2.214,2.995,1.912C282.642,199.892,283.502,198.546,283.205,197.19z"/>
<path style="fill:#FFFFFF;" d="M280.541,196.764c-0.112-0.483-0.594-0.79-1.077-0.682c-0.483,0.105-0.787,0.59-0.682,1.073
	c0.105,0.479,0.581,0.786,1.063,0.682C280.33,197.728,280.639,197.246,280.541,196.764z"/>
<path style="fill:#24BCB1;" d="M271.039,176.772c-2.947,1.542-6.93-4.574-10.181,19.516l26.526-5.849
	C277.23,176.733,274.191,175.123,271.039,176.772z"/>
<rect x="143.329" y="303.268" style="fill:#E8CA4B;" width="207.92" height="14.712"/>
<path style="fill:#77D28E;" d="M319.857,145.765c0,0,16.45,75.091,29,94.392c0.685,1.053,1.36,1.941,2.018,2.64l-0.744,4.324
	c-0.108,0.51-0.649,0.545-1.143,2.037c-5.326,16-12.824,66.009-10.835,77.943l40.562,2.386V142.584L319.857,145.765z"/>
<g>
	<path style="fill:#599E6B;" d="M361.225,326.656c-12.722-0.533-23.071-0.3-23.104,0.522c-0.032,0.823,10.257,1.922,22.979,2.461
		c12.728,0.533,23.078,0.3,23.11-0.522C384.241,328.294,373.953,327.194,361.225,326.656z"/>
	<path style="fill:#599E6B;" d="M363.271,245.268c-5.351-0.559-12.396-2.472-12.396-2.472l-0.744,4.324
		c0,0,6.262,1.689,12.824,2.684c6.561,0.995,14.217,0.396,14.217,0.396v-4.574C377.172,245.627,368.621,245.828,363.271,245.268z"/>
</g>
<path style="fill:#77D28E;" d="M146.55,247.12l-0.745-4.324c0.657-0.699,1.332-1.587,2.019-2.64
	c12.549-19.3,28.999-94.392,28.999-94.392l-58.857-3.181v186.903l40.563-2.386c1.989-11.935-5.509-61.943-10.835-77.943
	C147.198,247.666,146.657,247.631,146.55,247.12z"/>
<g>
	<path style="fill:#599E6B;" d="M135.454,326.656c-12.727,0.538-23.017,1.638-22.983,2.46c0.032,0.823,10.383,1.056,23.109,0.522
		c12.723-0.539,23.012-1.638,22.979-2.461C158.527,326.355,148.176,326.122,135.454,326.656z"/>
	<path style="fill:#599E6B;" d="M145.805,242.796c0,0-7.046,1.913-12.396,2.472c-5.349,0.559-13.9,0.359-13.9,0.359v4.574
		c0,0,7.656,0.599,14.218-0.396s12.824-2.684,12.824-2.684L145.805,242.796z"/>
</g>
<g>
	<path style="fill:#E8CA4B;" d="M375.928,110.832v349.875c5.023-3.027,9.93-6.229,14.713-9.594v-340.28h-14.713V110.832z"/>
	<path style="fill:#E8CA4B;" d="M105.517,110.832v340.279c4.783,3.365,9.689,6.567,14.713,9.594V110.832H105.517z"/>
</g>
<path style="fill:#599E6B;" d="M375.928,135.964H119.433c0,0-13.417,36.359-5.989,34.458c19.41-4.973,48.54,2.376,65.237,2.376
	c16.702,0,42.953-8.341,69.596-8.341c26.646,0,48.913,8.351,69.193,8.351c20.281,0,44.1-5.923,64.446-2.386
	C389.35,171.712,375.928,135.964,375.928,135.964z"/>
<g>
</g>
<g>
</g>
<g>
</g>
<g>
</g>
<g>
</g>
<g>
</g>
<g>
</g>
<g>
</g>
<g>
</g>
<g>
</g>
<g>
</g>
<g>
</g>
<g>
</g>
<g>
</g>
<g>
</g>
</svg>
