<?xml version="1.0" encoding="iso-8859-1"?>
<!-- Generator: Adobe Illustrator 19.0.0, SVG Export Plug-In . SVG Version: 6.00 Build 0)  -->
<svg version="1.1" id="Layer_1" xmlns="http://www.w3.org/2000/svg" xmlns:xlink="http://www.w3.org/1999/xlink" x="0px" y="0px"
	 viewBox="0 0 512 512" style="enable-background:new 0 0 512 512;" xml:space="preserve">
<path style="fill:#ED3929;" d="M256,0C114.615,0,0,114.615,0,256c0,111.18,70.874,205.806,169.907,241.163L511.231,236.01
	C501.032,103.967,390.658,0,256,0z"/>
<path style="fill:#D62109;" d="M511.228,236.01L375.392,100.174L122.435,449.67l47.478,47.478C196.817,506.753,225.794,512,256,512
	c141.385,0,256-114.616,256-256C512,249.273,511.737,242.607,511.228,236.01z"/>
<path style="fill:#22C28C;" d="M222.609,326.43h-82.522c-12.243,0-24.447-9.776-27.119-21.724L82.162,166.957l103.717-11.13
	L222.609,326.43z"/>
<rect x="82.162" y="144.696" style="fill:#FFFFFF;" width="74.897" height="22.261"/>
<g>
	<path style="fill:#22C28C;" d="M376.209,338.365H296.07v-22.261h80.139c18.412,0,33.391-14.979,33.391-33.391v-82.365
		c0-18.412-14.979-33.391-33.391-33.391H296.07v-22.261h80.139c30.687,0,55.652,24.966,55.652,55.652v82.365
		C431.861,313.4,406.895,338.365,376.209,338.365z"/>
	<polygon style="fill:#22C28C;" points="364.261,122.435 378.435,427.409 256,438.539 244.87,111.304 	"/>
</g>
<g>
	<rect x="284.939" y="371.757" style="fill:#3FEDB2;" width="22.261" height="22.261"/>
	<rect x="318.33" y="338.365" style="fill:#3FEDB2;" width="22.261" height="22.261"/>
	<polygon style="fill:#3FEDB2;" points="256,111.304 256,438.539 133.565,427.409 147.739,122.435 	"/>
	<path style="fill:#3FEDB2;" d="M304.529,111.304h-22.261V55.652c0-6.137-4.993-11.13-11.13-11.13h-30.275
		c-6.137,0-11.13,4.993-11.13,11.13v55.652h-22.261V55.652c0-18.412,14.979-33.391,33.391-33.391h30.275
		c18.412,0,33.391,14.979,33.391,33.391V111.304z"/>
</g>
<path style="fill:#22C28C;" d="M364.261,100.174l-119.392,11.13L256,66.783h63.74c12.243,0,27.27,7.513,33.391,16.696
	S364.261,100.174,364.261,100.174z"/>
<path style="fill:#3FEDB2;" d="M256,66.783v44.522l-108.261-11.13c0,0,5.009-7.513,11.13-16.696
	c6.122-9.183,21.148-16.696,33.391-16.696H256z"/>
<polygon style="fill:#98F0E7;" points="256,449.67 245.315,438.539 256,427.409 389.565,427.409 389.565,449.67 "/>
<rect x="122.435" y="427.409" style="fill:#FFFFFF;" width="133.565" height="22.261"/>
<polygon style="fill:#98F0E7;" points="256,122.435 247.986,111.304 256,100.174 375.392,100.174 375.392,122.435 "/>
<rect x="136.604" y="100.174" style="fill:#FFFFFF;" width="119.396" height="22.261"/>
<rect x="172.522" y="166.957" style="fill:#22C28C;" width="22.261" height="22.261"/>
<g>
</g>
<g>
</g>
<g>
</g>
<g>
</g>
<g>
</g>
<g>
</g>
<g>
</g>
<g>
</g>
<g>
</g>
<g>
</g>
<g>
</g>
<g>
</g>
<g>
</g>
<g>
</g>
<g>
</g>
</svg>
