<?xml version="1.0" encoding="iso-8859-1"?>
<!-- Generator: Adobe Illustrator 19.0.0, SVG Export Plug-In . SVG Version: 6.00 Build 0)  -->
<svg version="1.1" id="Capa_1" xmlns="http://www.w3.org/2000/svg" xmlns:xlink="http://www.w3.org/1999/xlink" x="0px" y="0px"
	 viewBox="0 0 489.875 489.875" style="enable-background:new 0 0 489.875 489.875;" xml:space="preserve">
<g>
	<path d="M479.594,0h-469.4c-5.8,0-10.1,4.3-10.1,9.7s4.3,9.7,10.1,9.7h225v55.2c0,0,0,0,0,0.4c-101.8,4.7-182.6,78.9-182.6,169.4
		c0,63.7,40,119.3,99.1,148.4l-82.8,80.3c-4,3.8-4,10.2,0,14l0,0c3.8,3.7,9.8,3.7,13.6,0c0,0,87.1-84.6,87.5-86.2
		c22.9,8.5,48.6,13.6,75,13.6c26.8,0,52.1-4.7,75-13.6c0.4,1.6,87.6,86.2,87.6,86.2c3.8,3.7,9.8,3.6,13.6,0l0,0
		c3.9-3.8,3.9-10.2,0-14l-82.9-80.8c59.1-29.1,99.1-84.7,99.1-148.4c0-90.9-80.8-165.1-182.6-169.4c0,0,0,0,0-0.4V19h224.9
		c4.4,0,8.4-2.7,9.7-6.8C491.194,6,486.494,0,479.594,0z M288.594,326.4h-25.8v24.3c0,9.6-7.7,17.3-17.3,17.3h-1.2
		c-9.6,0-17.3-7.7-17.3-17.3v-24.3h-25.8c-9.6,0-17.3-7.7-17.3-17.3l0,0c0-9.6,7.7-17.3,17.3-17.3h25.8v-24.3
		c0-9.6,7.7-17.3,17.3-17.3h1.2c9.6,0,17.3,7.7,17.3,17.3v24.3h25.8c9.6,0,17.3,7.7,17.3,17.3l0,0
		C305.894,318.7,298.194,326.4,288.594,326.4z M374.694,166.7c-8.2,22.9-16.3,46.2-24.5,69.2c-68.4-22.5-142.6-22.5-211,0
		c-8.2-22.9-16.3-46.2-24.5-69.2C198.994,138.7,290.394,138.7,374.694,166.7z"/>
</g>
<g>
</g>
<g>
</g>
<g>
</g>
<g>
</g>
<g>
</g>
<g>
</g>
<g>
</g>
<g>
</g>
<g>
</g>
<g>
</g>
<g>
</g>
<g>
</g>
<g>
</g>
<g>
</g>
<g>
</g>
</svg>
