<?xml version="1.0" encoding="iso-8859-1"?>
<!-- Generator: Adobe Illustrator 18.0.0, SVG Export Plug-In . SVG Version: 6.00 Build 0)  -->
<!DOCTYPE svg PUBLIC "-//W3C//DTD SVG 1.1//EN" "http://www.w3.org/Graphics/SVG/1.1/DTD/svg11.dtd">
<svg version="1.1" id="Capa_1" xmlns="http://www.w3.org/2000/svg" xmlns:xlink="http://www.w3.org/1999/xlink" x="0px" y="0px"
	 viewBox="0 0 252.666 252.666" style="enable-background:new 0 0 252.666 252.666;" xml:space="preserve">
<g>
	<path d="M226.347,54.925c-5.094-0.837-12.818,0.063-19.707,2.635c-0.189-0.253-0.378-0.506-0.568-0.76
		c0.569-0.565,0.971-1.351,1.156-2.341c0.107-0.571-0.615-3.251-0.459-3.569c1.214-2.47,6.705-1.461,8.799-1.447
		c1.058,0.007,2.059-1.125,1.673-2.196c1.783-4.076,4.447-5.93,7.992-5.563c1.628-0.026,2.104-1.812,1.221-2.947
		c-0.641-0.824-1.281-1.647-1.922-2.471c1.875,0.051,3.441,0.479,5.402,1.299c1.071,0.447,1.624-1.208,0.754-1.788
		c-3.047-2.029-5.718-2.778-9.381-2.631c-1.135,0.046-2.245,1.431-1.439,2.508c0.713,0.952,1.426,1.904,2.139,2.856
		c-4.411,0.673-8.867,2.794-8.589,7.326c-3.004-0.253-6.941-0.67-8.907,0.874c-1.215,0.954-2.07,7.512-1.137,7.596
		c-1.198-0.108-2.216,1.551-1.459,2.542c0.238,0.311,0.475,0.622,0.713,0.933c-0.411,0.184-0.816,0.316-1.256,0.642
		c-0.707,0.524-0.772,1.269-0.523,1.864c-4.456,2.606-7.932,6.089-9.033,10.459c-0.127-1.543-0.64-3.074-1.708-4.424
		c-2.416-3.056-6.93-4.512-10.53-2.684c-0.426,0.216-0.828,0.473-1.206,0.757c-6.28-13.494-0.729-28.424,10.888-37.516
		c7.904-6.186,17.995-9.601,27.691-5.068c5.543,2.592,9.038,8.776,12.972,13.169c1.035,1.156,2.835-0.323,2.105-1.624
		C221.99,15.48,203.829,11.09,187.27,23.934c-12.378,9.601-18.36,25.567-11.557,39.399c-8.275-8.859-26.779-8.195-35.08-0.165
		c-8.822,8.534-9.429,33.59,1.24,40.946c0.937,0.646,1.777,0.187,2.177-0.577c0.07,0.066,0.089,0.16,0.164,0.223
		c1.119,0.938,2.701-0.567,1.63-1.63c2.682-4.167,4.626-4.682,5.829-1.547c0.683,1.288,2.691,0.952,3.059-0.4
		c0.487-1.791,3.6-9.332,6.048-5.011c0.556,0.982,2.1,1.258,2.885,0.372c0.683-0.771,1.367-1.542,2.05-2.314
		c1.308,0.611,2.61,0.625,4.028,0.11c-2.536,5.707-3.6,12.1-2.859,18.301c1.482,12.402,11.223,24.76,24.751,20.864
		c0.997-0.287,1.325-1.332,1.136-2.212c1.398-0.228,2.822-1.145,3.681-2.344c2.636-3.683,0.578-7.503-2.163-10.304
		c2.464-1.741,1.478-4.631,0.845-7.928l-0.281-0.363c-2.393-5.056-1.813-8.66,1.741-10.812c0.373-0.782,1.231-1.535,1.294-2.422
		c0.111-1.561-3.335-5.985-3.007-6.431c0.652-0.885-0.611-2.052-1.485-1.485c-1.732,1.123-1.226,1.167-1.614,3.05
		c-0.146,0.71,0.758,1.338,0.854,1.973c0.473,3.139,0.185,3.008-0.76,4.888c-1.193,2.376-2.576,3.513-2.635,6.447
		c-0.036,1.803,3.559,10.271,1.28,10.784c-1.223,0.275-1.855,2.165-0.793,3.001c2.834,1.678,3.527,4.362,2.307,7.947
		c-0.3-0.233-0.702-0.333-1.139-0.236c-0.25,0.056-0.5,0.111-0.75,0.167c-1.035,0.23-1.306,1.401-0.911,2.24
		c0.122,0.259,0.284,0.444,0.437,0.645c-13.278,0.58-19.771-12.381-18.794-24.441c0.832-10.273,6.409-18.283,14.104-24.473
		c0.063-0.008,0.133,0.011,0.196,0.001c-0.004,0.662-0.009,1.327,0.173,1.976c0.019,0.068,0.054,0.121,0.074,0.187
		c0.268,1.737,1.058,3.361,2.62,4.401c2.63,1.75,5.648,1.403,8.043-0.014c12.313,15.435,19.29,33.44,21.625,52.122
		c-0.388,0.359-0.774,0.701-1.161,1.057c-26.017,10.876-52.718,18.145-81.411,19.814c-31.842,1.852-73.912,0.247-98.74-22.142
		c0.068-0.647-0.171-1.322-0.922-1.768c-0.412-0.245-0.777-0.539-1.177-0.796c2.373-8.167,5.099-16.215,7.976-23.916
		c0.098-0.042,0.206-0.06,0.302-0.107c0.436-0.212,0.444-0.797,0.19-1.197c2.606-6.91,5.284-13.573,7.852-19.773
		c0.856,1.964,2.394,3.674,4.639,4.603c0.16,0.066,0.319,0.073,0.479,0.128c0.126,0.319,0.243,0.596,0.368,0.852
		c-1.145,0.764-2.22,1.689-2.666,2.985c-1.02,2.961,1.922,8.492-1.275,10.348c-1.188,0.689-1.212,2.509,0,3.192
		c1.01,0.569,2.02,1.139,3.029,1.708c-1.123,2.033-2.548,3.575-4.748,4.937c-0.723,0.448-1.183,1.587-0.616,2.349
		c0.736,0.989,1.277,1.191,2.001,1.972c0.325,0.185,0.661,0.346,1.009,0.48c2.543,0.198,2.602,1.763,0.178,4.694
		c-1.276,0.426-0.764,2.304,0.556,2.016c2.635-0.576,6.273-1.801,6.22-5.077c-0.06-3.63-3.459-3.343-5.732-4.702
		c2.295-1.658,3.904-3.646,5.132-6.489c0.39-0.903,0.286-1.971-0.658-2.51c-0.712-0.407-1.425-0.813-2.137-1.22
		c0.816-0.87,1.43-1.899,1.765-3.235c0.719-2.868-2.006-7.231,1.386-9.224c0.837-0.492,1.209-1.691,0.665-2.537
		c-0.072-0.112-0.118-0.179-0.181-0.277c3.746-0.797,6.821-4.079,7.221-7.698c8.011,4.618,12.877,12.923,12.688,22.77
		c-0.09,4.698-1.306,11.228-4.217,15.163c-5.446,7.362-11.791,5.113-18.649,4.666c-1.793-0.117-1.969,2.476-0.406,3.001
		c22.896,7.689,31.402-17.342,24.065-34.985c2.045-0.664,4.023-0.741,5.814,1.932c0.461,0.687,1.443,1.086,2.202,0.577
		c2.105-1.414,8.114,7.593,11.14,8.286c1.042,0.239,2.029-0.479,2.055-1.565c-0.065-1.514,0.222-2.942,0.673-4.329
		c1.272,1.77,2.596,3.491,4.278,4.919c0.382,0.324,0.996,0.08,1.001-0.408c0.711,0.731,2.041,0.735,2.541-0.56
		c6.839-17.733-3.813-35.811-18.262-41.656c0.445-0.889,0.82-1.804,1.205-2.714c1.443,0.302,2.832,0.378,4.43,0.09
		c1.113-0.2,1.679-1.734,1.075-2.643c-1.053-1.585,6.224-0.053,6.514-0.031c1.273,0.099,2.045-0.049,3.203-0.533
		c1.097-0.458,1.707-1.807,0.73-2.765c-0.624-0.616-1.046-1.269-1.274-1.957c1.553,0.618,3.108,1.221,4.612,1.972
		c0.35,0.174,0.631,0.077,0.85-0.097c0.919,0.254,2.02-0.137,1.869-1.298c-1.989-15.222-10.924-28.527-27.903-26.445
		c-8.324,1.02-15.416,5.931-20.59,12.357c-2.092,2.598-4.973,6.159-6.188,9.785c-3.751-7.689-11.464-14.549-18.179-17.317
		C30.355,28.536,9.5,35.124,11.223,50.315c-1.375,1.042-1.622,3.012-0.792,4.664c0.449,0.894,2.027,0.259,1.641-0.692
		c0.748,1.353,1.497,2.706,2.245,4.059c-0.239,0.786,0.285,1.678,1.07,1.885c1.898,0.5,3.018,0.185,4.754-0.756
		c1.807-0.979,3.58-2.695,5.597-0.437c0.683,0.764,0.532,2.488,1.203,3.438c1.105,1.566,1.875,1.597,3.585,2.065
		c2.571,0.703,5.311-0.052,7.677,1.554c1.128,0.766,2.187,1.795,3.211,2.873c-9.81-2.967-20.862-1.316-29.422,4.907
		C1.982,81.154-5.481,98.97,5.259,108.824c0.612,0.562,1.374,0.493,1.918,0.12c0.343,0.069,0.721,0.084,1.15,0.009
		c0.343-0.06,0.592-0.385,0.693-0.693c0.078-0.239,0.157-0.478,0.236-0.718c0.33-1.005-1.046-1.414-1.592-0.671
		c3.102-4.222,2.661-0.446,5.984-0.801c1.79-0.192,2.615-1.311,3.111-2.974c0.4-1.342-0.325-2.18,0.795-2.809
		c0.193-0.109,1.546,0.731,1.94,0.729c1.47-0.006,7.699-4.541,7.487-4.738c1.141,1.062,2.839,0.267,2.947-1.221
		c1.15-0.773,2.287-1.214,3.411-1.325C3.323,131.118-9.876,193.018,19.175,231.01c0.035,0.081-0.003,0.15,0.056,0.234
		c6.584,9.309,20.425,4.267,21.298-6.563c0.081-0.998-0.61-1.646-1.442-1.905c-16.438-22.69-14.089-53.681-6.021-83.411
		c2.371,6.222,5.587,11.639,9.416,16.407c0.126,0.214,0.29,0.404,0.494,0.582c15.298,18.562,40.447,26.647,65.178,29.681
		c7.867,0.965,15.289,1.209,22.395,0.877c0.582,0.313,1.266,0.498,2.072,0.389c1.882-0.255,3.613-0.658,5.419-0.982
		c30.659-3.44,55.05-18.865,79.808-41.741c0.148-0.067,0.301-0.122,0.449-0.189c1.88,25.03-4.48,50.952-17.974,73.368
		c-0.425,0.706-0.339,1.369-0.02,1.898c-1.435,5.134,0.856,11.098,6.268,13.361c4.863,2.033,13.138-0.451,15.499-5.598
		c0.283-0.127,0.553-0.307,0.767-0.619c22.26-32.47,24.958-72.692,10.486-106.274c0.154-0.229,0.322-0.437,0.468-0.676
		c0.442-0.729-0.311-1.912-1.195-1.555c-0.054,0.022-0.095,0.065-0.148,0.088c-2.483-5.438-5.454-10.674-8.841-15.678
		c0.306-0.494,0.543-0.956,0.88-1.47c0.602-0.918-0.648-2.29-1.577-1.577c-0.312,0.24-0.563,0.543-0.848,0.812
		c-4.483-6.273-9.699-12.12-15.611-17.429c0.488,0.177,0.975,0.355,1.463,0.532c0.858,0.953,2.186,0.315,2.588-0.683
		c0.258-0.641,0.516-1.282,0.774-1.922c2.402,1.458,4.783,2.703,7.44,3.809c0.559,0.233,1.495-0.143,1.738-0.707
		c0.44-1.021,0.673-1.56,0.824-2.057c1.884,1.404,3.769,2.809,5.653,4.213c0.965,0.719,2.296-0.261,2.301-1.32
		c0.024-5.34,5.643,1.159,6.123,1.314c2.857,0.924,2.318,1.977,5.799,2.478c0.931,0.134,2.017-0.382,1.961-1.494
		c0.123-0.719,0.246-1.437,0.369-2.156c1.435,1.575,2.86,3.157,4.337,4.697c0.752,0.785,1.635,0.317,1.978-0.431
		c0.482,0.803,1.91,0.871,2.156-0.236C255.82,71.677,243.451,57.737,226.347,54.925z M171.015,90.864
		c-0.267-0.455-0.669-0.823-1.263-0.791c-1.238,0.226-2.395-0.056-3.471-0.845c-0.627-0.447-1.764-0.291-2.266,0.293
		c-0.579,0.674-1.159,1.347-1.738,2.02c-1.43-1.024-3.244-1.343-5.138-0.718c-2.61,0.862-3.927,3.072-4.771,5.488
		c-2.202-1.877-5.192-2.8-7.796-0.876c-1.267,0.936-1.923,2.327-2.083,3.755c-4.909-8.494-5.993-24.006-0.233-31.368
		c6.797-8.687,26.473-9.625,33.644-0.426c-0.941,1.858-1.191,4.036-0.407,6.08c0.398,1.037,1.061,1.927,1.865,2.666
		c0.693,1.361,1.812,2.533,3.21,3.243c0.147,0.075,0.284,0.08,0.429,0.144C176.791,82.414,173.448,86.378,171.015,90.864z
		 M95.988,70.354c12.615,7.983,13.531,22.318,11.455,35.625c-0.017,0.111,0.053,0.174,0.053,0.277
		c-0.981-2.623-2.417-4.969-3.911-7.368c-0.599-0.961-2.11-1.056-2.686,0c-1.056,1.935-1.567,3.843-1.869,5.863
		c-3.507-2.721-5.578-10.115-10.738-7.729c-2.358-2.382-5.992-3.479-8.88-1.847c-1.925-3.552-4.507-6.712-7.891-9.014
		c1.591-0.772,2.92-2.05,3.485-3.869c1.507-4.857-3.068-9.567-7.765-9.407c0.005-0.343-0.105-0.676-0.138-1.017
		C75.489,65.69,86.758,64.513,95.988,70.354z M62.112,54.474c0.903-9.357,16.681-20.035,23.626-21.628
		c16.037-3.676,22.06,8.79,26.243,21.336c-1.537-1.067-3.071-2.124-4.719-3.036c-0.729-0.403-1.976-0.096-2.118,0.862
		c-0.243,1.637-0.112,2.997,0.388,4.319c-2.981-0.29-6.04-2.457-8.824-0.252c-1.034,0.82-1.533,1.94-1.587,3.097
		c-0.789-0.038-1.559-0.187-2.293-0.542c-0.999-0.361-1.869,0.42-2.22,1.261c-0.577,1.382-1.136,2.726-1.603,4.147
		c-7.383-1.979-15.454-0.746-22.568,5.274c-0.234-0.541-0.425-1.098-0.787-1.592c-0.804-1.1-2.107-2.031-3.576-2.712
		C63.361,61.627,63.199,58.019,62.112,54.474z M41.052,103.909c-0.39-2.446-2.488-4.476-4.94-5.11
		c0.291-0.436,0.605-0.84,0.898-1.273c2.839-2.177,5.753-3.656,8.956-5.011C44.345,96.14,42.697,99.93,41.052,103.909z
		 M47.319,89.514c-2.119,0.316-4.208,1.108-6.179,2.159c3.292-4.573,6.653-9.029,10.136-13.171c0.252,0.306,0.556,0.563,0.838,0.841
		C50.598,82.443,48.979,85.879,47.319,89.514z M36.268,60.753c-1.106-0.265-2.135,0.181-3.245,0.075
		c-5.193-0.5-3.205-1.258-4.677-4.074c-3.373-6.453-6.741-0.087-10.738,0.542c0.363-2.939,0-6.801-2.84-7.571
		c7.111-32.128,50.43-4.714,44.528,14.386c-2.773-0.49-5.583,0.145-6.895,2.77c-0.047,0.093-0.025,0.176-0.054,0.268
		c-1.604,1.354-2.686,3.279-2.91,5.443c-0.704-0.453-1.462-0.784-2.194-1.176c0.122-0.472,0.047-0.991-0.411-1.44
		C43.98,67.179,40.376,61.737,36.268,60.753z M27.186,92.56c-0.567-0.088-1.185-0.042-1.997,0.224
		c-1.256,0.411-1.74,1.177-2.744,1.975c-0.425,0.615-0.99,1.089-1.694,1.421c-0.742,1.237-1.552,1.401-2.429,0.492
		c-1.611,0.003-2.291-0.865-3.746,0.44c-1.229,1.103-0.371,3.694-1.128,4.399c-0.995,0.927-3.756-1.404-5.019-1.272
		c-1.33,0.139-2.205,0.924-2.776,1.984c-3.38-10.869,1.394-21.82,12.249-27.588c10.058-5.344,21.831-4.523,31.711,0.598
		c0.151,0.551,0.341,1.085,0.591,1.591c-5.09,3.992-9.916,8.681-14.403,13.911C32.503,89.275,28.731,89.513,27.186,92.56z
		 M35.078,100.378c2.557,0.717,3.838,3.143,3.652,5.905c-0.046,0.68,0.427,0.984,0.944,0.988c-0.239,0.595-0.483,1.158-0.721,1.759
		c-4.405,0.413-9.226,3.881-11.728,6.691c-0.322-0.267-0.618-0.577-0.952-0.818C29.004,109.907,31.99,105.088,35.078,100.378z
		 M20.888,125.49c0.662,1.482,1.421,2.896,2.3,4.236c-0.593,0.413-1.165,0.83-1.674,1.232c-1.033,0.817-3.201,3.505-2.715,5.085
		c-0.629-0.452-1.265-0.895-1.945-1.275C18.093,131.639,19.449,128.547,20.888,125.49z M16.184,136.646
		c1.45,1.019,2.768,2.197,3.765,3.734c1.11,1.713,1.38,3.655,2.076,5.446c-1.092,0.593-2.115,1.26-2.915,1.936
		c-2.811,2.375-4.509,5.545-4.912,9.154c-1.201-0.635-2.487-1.096-3.869-1.345C11.784,149.187,13.809,142.869,16.184,136.646z
		 M22.085,186.476c-0.242-0.165-0.52-0.27-0.806-0.177c-0.502,0.163-1.01,0.423-1.512,0.729c0.133-0.234,0.209-0.497,0.116-0.785
		c-0.903-2.805-3.651-4.763-6.681-5.978c0.336-2.995,1.46-5.812,3.544-8.045c1.784-1.911,3.865-2.686,6.016-3.733
		C22.09,174.621,21.795,180.663,22.085,186.476z M19.936,166.765c0.105-0.111,0.209-0.228,0.257-0.401
		c0.704-2.557-1.34-5.533-3.06-7.297c-0.464-0.476-1.028-0.753-1.542-1.13c0.017-0.043,0.063-0.055,0.072-0.104
		c0.648-3.346,2.455-6.384,5.227-8.408c1.87-1.365,3.734-1.716,5.695-2.09c-1.494,6.255-2.781,12.53-3.566,18.72
		C21.978,166.029,20.945,166.338,19.936,166.765z M9.877,157.521c2.127,0.563,4.045,1.602,5.52,3.281
		c1.552,1.766,1.702,3.963,2.934,5.805c0.228,0.341,0.61,0.49,0.972,0.468c-1.924,0.97-3.678,2.467-4.86,3.948
		c-1.98,2.481-3.109,5.439-3.165,8.575c-1.331-0.39-2.655-0.652-3.847-0.774C7.512,171.715,8.386,164.59,9.877,157.521z
		 M7.404,181.178c2.196,0.368,4.34,1.082,6.204,2.313c1.742,1.15,2.909,2.913,4.641,4.008c0.225,0.143,0.47,0.16,0.708,0.119
		c-3.533,2.667-6.579,8.233-5.697,12.015c0.119,0.511,0.792,0.528,1.053,0.138c1.345-2.012,1.853-4.473,3.235-6.526
		c1.331-1.978,3.188-3.349,4.645-5.16c0.46,6.794,1.589,13.309,3.755,19.286c-0.203,0.252-0.326,0.552-0.51,0.817
		c0.048-0.168,0.089-0.343,0.019-0.55c-1.843-5.454-9.256-7.307-14.269-6.084c-1.192,0.291-0.67,2.005,0.499,1.809
		c2.492-0.419,4.987-0.031,7.244,1.116c2.038,1.037,3.166,2.674,4.779,4.175c0.448,0.417,1.11,0.289,1.493-0.09
		c-2.136,3.305-2.902,7.44-2.48,11.333c-1.853,0.048-3.705,0.239-5.517,0.704C10.484,207.894,7.578,194.581,7.404,181.178z
		 M36.023,224.312c0.091,0.099,0.168,0.207,0.26,0.305c-1.316,6.547-7.674,9.328-13.238,6.36c0.075-0.382,0.03-0.788-0.239-1.175
		c-1.682-2.422-3.169-4.88-4.556-7.354c5.62-0.827,10.828,0.357,15.87,3.214C35.219,226.286,36.156,225.268,36.023,224.312z
		 M26.88,209.733c2.029,4.891,4.703,9.432,8.204,13.476c-3.248-2.13-6.975-3.099-10.763-3.258
		C24.049,216.099,25.068,212.921,26.88,209.733z M27.311,144.238c-0.926-0.003-1.874,0.218-2.815,0.52
		c-0.27-2.252-1.717-4.623-2.979-6.219c-0.465-0.588-1.017-1.06-1.561-1.541c0.168,0.055,0.279,0.14,0.49,0.171
		c1.024,0.155,1.795-1.197,0.754-1.788c-0.56-0.318,1.691-1.938,3.702-3.24c1.335,1.639,2.832,3.132,4.518,4.431
		C28.674,139.113,27.965,141.669,27.311,144.238z M26.138,127.91c-1.363-1.619-2.636-3.326-3.698-5.227
		c-0.024-0.044-0.075-0.041-0.103-0.079c0.962-1.953,1.905-3.915,2.929-5.837c1.122,0.951,2.131,2.028,2.943,3.3
		c1.231,1.929,1.622,3.923,2.163,6.009C28.93,126.501,27.499,127.165,26.138,127.91z M32.954,125.304
		c-0.256-3.027-1.942-5.936-4.194-8.247c2.087-1.931,4.503-3.508,7.203-4.435c0.566-0.194,1.151-0.328,1.742-0.439
		C36.064,116.438,34.465,120.825,32.954,125.304z M220.894,175.408c1.888,0.595,3.632,1.44,5.136,2.799
		c1.536,1.389,2.316,3.38,3.846,4.684c0.145,0.124,0.33,0.184,0.516,0.23c-0.197,0.189-0.419,0.384-0.598,0.567
		c-2.445,2.505-4.275,5.626-5.087,9.036c-2.075-2.103-4.628-3.78-6.872-4.586C219.054,183.975,220.065,179.715,220.894,175.408z
		 M227.41,175.842c-1.936-1.252-4.184-2.137-6.131-2.551c0.948-5.382,1.548-10.837,1.832-16.292c2.005,0.31,3.895,0.997,5.464,2.37
		c1.25,1.094,1.898,2.656,3.133,3.669c-2.882,3.453-4.492,8.349-4.51,12.294C227.198,175.56,227.316,175.691,227.41,175.842z
		 M227.757,155.801c-1.446-0.58-2.953-0.976-4.525-1.063c0.144-4.169-0.022-8.31-0.318-12.431c1.881-0.904,3.712-1.92,5.57-2.878
		c0.297,0.31,0.576,0.611,0.785,0.844c0.677,0.757,1.341,1.486,2.093,2.056C228.797,146.297,227.603,151.524,227.757,155.801z
		 M225.446,134.41c-1.121-0.16-2.232-0.134-3.188,0.324c-0.688-5.092-1.757-10.079-3.174-14.923
		c1.459,0.043,2.907,0.253,4.307,0.781c1.619,0.611,2.914,1.601,4.21,2.619C225.746,126.54,224.979,130.767,225.446,134.41z
		 M214.968,228.395c-1.94,1.081-4.32,1.521-6.457,0.763c-3.496-1.24-5.289-5.186-5.209-8.897c0.168-0.136,0.335-0.278,0.47-0.489
		c2.592-4.049,4.914-8.433,7.049-12.985c1.84,2.682,3.467,5.513,4.622,8.559c1.246,3.287,1.449,6.741,2.432,10.044
		C217.164,226.536,216.391,227.602,214.968,228.395z M221.432,222.12c-0.301-0.037-0.616,0.025-0.916,0.116
		c-0.384-3.355-1.796-6.73-3.626-9.848c2.123-1.674,4.112-3.457,6.606-4.657c1.847-0.888,3.838-1.215,5.775-1.657
		C227.06,211.453,224.508,216.814,221.432,222.12z M230.644,202.748c-2.748-0.079-5.788,1.228-8.071,2.398
		c-2.507,1.285-5.098,3.154-6.796,5.524c-1.315-1.987-2.727-3.874-4.192-5.456c2.188-4.847,4.1-9.93,5.718-15.167
		c2.327,1.338,4.387,2.945,5.89,5.217c1.43,2.161,1.674,4.638,2.818,6.871c0.694,1.356,2.457,0.539,2.597-0.703
		c0.305-2.711-1.027-5.434-3.009-7.749c0.25-0.052,0.489-0.178,0.615-0.481c1.232-2.964,2.9-5.632,5.327-7.768
		c1.068-0.939,2.239-1.757,3.488-2.436c0.4-0.217,0.796-0.387,1.194-0.567C234.998,189.2,233.197,195.987,230.644,202.748z
		 M236.768,179.378c-1.736,0.222-3.436,1.27-4.908,2.456c-0.259-2.221-1.771-4.081-3.737-5.517c0.554,0.051,1.151-0.26,1.193-0.985
		c0.194-3.393,1.368-6.541,3.429-9.248c1.459-1.916,3.339-3.06,5.175-4.387C238.016,167.547,237.668,173.448,236.768,179.378z
		 M235.696,142.497c1.125,5.425,1.945,10.911,2.182,16.478c-1.538,0.354-2.911,1.112-4.144,2.095
		c-0.572-1.781-2.385-3.294-3.867-4.277c0.001-0.023,0.022-0.03,0.023-0.054c0.052-3.518,0.852-7.016,2.542-10.121
		C233.321,144.984,234.486,143.721,235.696,142.497z M230.34,124.644c1.05,2.604,1.976,5.242,2.824,7.899
		c-1.725,0.827-3.46,1.584-5.189,2.381c-0.178-2.403-0.097-4.768,0.705-7.134C229.084,126.596,229.687,125.598,230.34,124.644z
		 M221.251,107.244c2.722,4.345,5.236,8.764,7.299,13.326c-2.344-1.673-5.379-2.408-8.352-2.452
		C219.361,113.789,219.898,110.493,221.251,107.244z M219.275,104.236c-1.925,3.856-2.306,8.641-1.181,12.698
		c-1.708-5.202-3.95-10.155-6.576-14.883c1.967-0.881,4.143-0.69,6.268,0.092C218.275,102.844,218.801,103.53,219.275,104.236z
		 M215.647,99.138c-1.739-0.175-3.527,0.201-5.115,1.029c-3.317-5.604-7.317-10.799-12.146-15.391
		c0.746-0.908,1.246-1.973,1.533-3.094C205.917,87.146,211.097,93.013,215.647,99.138z M243.588,80.64
		c-0.84-0.976-2.16-0.281-2.562,0.677c-0.952,2.266-1.167,2.505-1.149,3.475c-4.115-2.296-11.492-7.717-13.279-2.614
		c-1.95-1.458-3.9-2.915-5.849-4.373c-0.961-0.719-2.317,0.26-2.311,1.326c-2.797,0.85-5.175,0.27-7.135-1.738
		c-0.919-0.602-1.92,0.057-2.271,0.924c-0.206,0.509-0.411,1.018-0.617,1.526c-2.217-1.729-4.539-2.15-7.718-1.595
		c0,0-0.002,0.002-0.004,0.003c-0.403-0.314-0.771-0.657-1.18-0.966c-0.082-0.183-0.096-0.365-0.197-0.549
		c-1.078-1.961-3.043-3.3-5.193-3.821c1.975-13.02,26.055-15.801,35.009-13.297c13.636,3.814,20.547,14.256,20.423,28.116
		C247.605,85.333,245.605,82.987,243.588,80.64z"/>
</g>
<g>
</g>
<g>
</g>
<g>
</g>
<g>
</g>
<g>
</g>
<g>
</g>
<g>
</g>
<g>
</g>
<g>
</g>
<g>
</g>
<g>
</g>
<g>
</g>
<g>
</g>
<g>
</g>
<g>
</g>
</svg>
