<?xml version="1.0" encoding="iso-8859-1"?>
<!-- Generator: Adobe Illustrator 16.0.0, SVG Export Plug-In . SVG Version: 6.00 Build 0)  -->
<!DOCTYPE svg PUBLIC "-//W3C//DTD SVG 1.1//EN" "http://www.w3.org/Graphics/SVG/1.1/DTD/svg11.dtd">
<svg version="1.1" id="Capa_1" xmlns="http://www.w3.org/2000/svg" xmlns:xlink="http://www.w3.org/1999/xlink" x="0px" y="0px"
	 width="573.75px" height="573.75px" viewBox="0 0 573.75 573.75" style="enable-background:new 0 0 573.75 573.75;"
	 xml:space="preserve">
<g>
	<g id="Layer_2_43_">
		<polygon points="86.062,370.547 86.062,313.172 133.875,313.172 133.875,265.359 191.25,265.359 191.25,207.984 86.062,207.984 
			28.688,207.984 28.688,255.797 28.688,255.797 28.688,313.172 28.688,313.172 28.688,370.547 		"/>
		<polygon points="267.75,370.547 267.75,313.172 315.562,313.172 315.562,265.359 372.938,265.359 372.938,207.984 267.75,207.984 
			210.375,207.984 210.375,255.797 210.375,255.797 210.375,313.172 210.375,313.172 210.375,370.547 		"/>
		<polygon points="449.438,370.547 449.438,313.172 497.25,313.172 497.25,265.359 554.625,265.359 554.625,207.984 
			449.438,207.984 392.062,207.984 392.062,255.797 392.062,255.797 392.062,313.172 392.062,313.172 392.062,370.547 		"/>
		<path d="M114.75,188.859h19.125h86.062h19.125h86.062h19.125h86.062h19.125H535.5h38.25v-28.688H535.5v-47.812
			c0-23.763-19.269-43.031-43.031-43.031s-43.031,19.269-43.031,43.031v47.812h-19.125v-47.812
			c0-23.763-19.269-43.031-43.031-43.031s-43.031,19.269-43.031,43.031v47.812h-19.125v-47.812
			c0-23.763-19.269-43.031-43.031-43.031s-43.031,19.269-43.031,43.031v47.812h-19.125v-47.812
			c0-23.763-19.269-43.031-43.031-43.031s-43.031,19.269-43.031,43.031v47.812H114.75v-47.812c0-23.763-19.269-43.031-43.031-43.031
			s-43.031,19.269-43.031,43.031v47.812H0v28.688h28.688H114.75z M478.125,112.359c0-7.908,6.436-14.344,14.344-14.344
			s14.344,6.436,14.344,14.344v47.812h-28.688V112.359z M372.938,112.359c0-7.908,6.436-14.344,14.344-14.344
			s14.344,6.436,14.344,14.344v47.812h-28.688V112.359z M267.75,112.359c0-7.908,6.436-14.344,14.344-14.344
			s14.344,6.436,14.344,14.344v47.812H267.75V112.359z M162.562,112.359c0-7.908,6.436-14.344,14.344-14.344
			s14.344,6.436,14.344,14.344v47.812h-28.688V112.359z M57.375,112.359c0-7.908,6.436-14.344,14.344-14.344
			s14.344,6.436,14.344,14.344v47.812H57.375V112.359z"/>
		<path d="M28.688,461.391c0,23.763,19.269,43.031,43.031,43.031s43.031-19.269,43.031-43.031v-43.031h19.125v43.031
			c0,23.763,19.269,43.031,43.031,43.031s43.031-19.269,43.031-43.031v-43.031h19.125v43.031c0,23.763,19.269,43.031,43.031,43.031
			s43.031-19.269,43.031-43.031v-43.031h19.125v43.031c0,23.763,19.269,43.031,43.031,43.031s43.031-19.269,43.031-43.031v-43.031
			h19.125v43.031c0,23.763,19.269,43.031,43.031,43.031s43.031-19.269,43.031-43.031v-43.031h38.25v-28.688H535.5h-86.062h-19.125
			H344.25h-19.125h-86.062h-19.125h-86.062H114.75H28.688H0v28.688h28.688V461.391z M478.125,418.359h28.688v43.031
			c0,7.908-6.436,14.344-14.344,14.344s-14.344-6.436-14.344-14.344V418.359z M372.938,418.359h28.688v43.031
			c0,7.908-6.436,14.344-14.344,14.344s-14.344-6.436-14.344-14.344V418.359z M267.75,418.359h28.688v43.031
			c0,7.908-6.436,14.344-14.344,14.344s-14.344-6.436-14.344-14.344V418.359z M162.562,418.359h28.688v43.031
			c0,7.908-6.436,14.344-14.344,14.344s-14.344-6.436-14.344-14.344V418.359z M57.375,418.359h28.688v43.031
			c0,7.908-6.436,14.344-14.344,14.344s-14.344-6.436-14.344-14.344V418.359z"/>
	</g>
</g>
<g>
</g>
<g>
</g>
<g>
</g>
<g>
</g>
<g>
</g>
<g>
</g>
<g>
</g>
<g>
</g>
<g>
</g>
<g>
</g>
<g>
</g>
<g>
</g>
<g>
</g>
<g>
</g>
<g>
</g>
</svg>
