<?xml version="1.0" encoding="iso-8859-1"?>
<!-- Generator: Adobe Illustrator 19.0.0, SVG Export Plug-In . SVG Version: 6.00 Build 0)  -->
<svg version="1.1" id="Layer_1" xmlns="http://www.w3.org/2000/svg" xmlns:xlink="http://www.w3.org/1999/xlink" x="0px" y="0px"
	 viewBox="0 0 480 480" style="enable-background:new 0 0 480 480;" xml:space="preserve">
<path style="fill:#F9DDDB;" d="M240.64,125.36c99.04,0,179.36,50.8,179.36,113.52c0,62.8-80.32,113.6-179.36,113.6
	s-179.28-50.8-179.28-113.6C61.36,176.16,141.6,125.36,240.64,125.36z"/>
<path d="M240.64,360.48c-103.264,0-187.28-54.544-187.28-121.592c0-67.008,84.016-121.52,187.28-121.52
	C343.952,117.36,428,171.872,428,238.88C428,305.928,343.952,360.48,240.64,360.48z M240.64,133.36
	c-94.448,0-171.28,47.336-171.28,105.52c0,58.224,76.832,105.592,171.28,105.592C335.128,344.48,412,297.112,412,238.88
	C412,180.696,335.128,133.36,240.64,133.36z"/>
<path d="M240,104c-4.416,0-8-3.576-8-8V48c0-4.424,3.584-8,8-8c4.416,0,8,3.576,8,8v48C248,100.424,244.416,104,240,104z"/>
<path d="M240,24c-4.416,0-8-3.576-8-8V8c0-4.424,3.584-8,8-8c4.416,0,8,3.576,8,8v8C248,20.424,244.416,24,240,24z"/>
<path d="M379.232,136.776c-2.048,0-4.096-0.784-5.656-2.344c-3.128-3.128-3.128-8.184,0-11.312l45.256-45.256
	c3.128-3.128,8.184-3.128,11.312,0s3.128,8.184,0,11.312l-45.256,45.256C383.328,135.992,381.28,136.776,379.232,136.776z"/>
<path d="M447.112,68.888c-2.048,0-4.088-0.784-5.656-2.336c-3.128-3.128-3.128-8.184-0.008-11.32l5.656-5.664
	c3.12-3.128,8.184-3.128,11.312-0.008c3.128,3.128,3.128,8.184,0.008,11.32l-5.656,5.664
	C451.208,68.112,449.168,68.888,447.112,68.888z"/>
<path d="M100.768,136.776c-2.048,0-4.096-0.784-5.656-2.344L49.856,89.176c-3.128-3.128-3.128-8.184,0-11.312
	c3.128-3.128,8.184-3.128,11.312,0l45.256,45.256c3.128,3.128,3.128,8.184,0,11.312
	C104.864,135.992,102.816,136.776,100.768,136.776z"/>
<path d="M32.888,68.888c-2.048,0-4.096-0.784-5.664-2.344l-5.656-5.664c-3.12-3.136-3.12-8.192,0.008-11.32
	c3.128-3.12,8.192-3.112,11.312,0.008l5.656,5.664c3.12,3.136,3.12,8.192-0.008,11.32C36.976,68.112,34.936,68.888,32.888,68.888z"
	/>
<path d="M240,440c-4.416,0-8-3.576-8-8v-48c0-4.424,3.584-8,8-8c4.416,0,8,3.576,8,8v48C248,436.424,244.416,440,240,440z"/>
<path d="M240,480c-4.416,0-8-3.576-8-8v-8c0-4.424,3.584-8,8-8c4.416,0,8,3.576,8,8v8C248,476.424,244.416,480,240,480z"/>
<path d="M424.488,405.256c-2.048,0-4.096-0.784-5.656-2.344l-45.256-45.256c-3.128-3.128-3.128-8.184,0-11.312s8.184-3.128,11.312,0
	l45.256,45.256c3.128,3.128,3.128,8.184,0,11.312C428.576,404.48,426.528,405.256,424.488,405.256z"/>
<path d="M452.768,433.536c-2.048,0-4.096-0.784-5.656-2.344l-5.656-5.656c-3.128-3.128-3.128-8.184,0-11.312s8.184-3.128,11.312,0
	l5.656,5.656c3.128,3.128,3.128,8.184,0,11.312C456.864,432.76,454.816,433.536,452.768,433.536z"/>
<path d="M55.512,405.256c-2.048,0-4.096-0.784-5.656-2.344c-3.128-3.128-3.128-8.184,0-11.312l45.256-45.256
	c3.128-3.128,8.184-3.128,11.312,0s3.128,8.184,0,11.312l-45.256,45.256C59.608,404.48,57.56,405.256,55.512,405.256z"/>
<path d="M27.232,433.536c-2.048,0-4.096-0.784-5.656-2.344c-3.128-3.128-3.128-8.184,0-11.312l5.656-5.656
	c3.128-3.128,8.184-3.128,11.312,0s3.128,8.184,0,11.312l-5.656,5.656C31.328,432.76,29.28,433.536,27.232,433.536z"/>
<path d="M32,248H8c-4.416,0-8-3.576-8-8s3.584-8,8-8h24c4.416,0,8,3.576,8,8C40,244.424,36.416,248,32,248z"/>
<path d="M472,248h-24c-4.416,0-8-3.576-8-8s3.584-8,8-8h24c4.416,0,8,3.576,8,8C480,244.424,476.416,248,472,248z"/>
<path style="fill:#DF5349;" d="M313.36,183.6c18.24,17.12,18.56,45.84,0.96,63.44l-53.2,53.84c-10.96,11.04-28.8,11.04-39.84,0.08
	L168.32,248c-17.52-17.52-17.2-46.24,1.04-63.44c17.6-16.56,45.68-14.8,62.8,2.32l8.64,8.64l9.76-9.68
	C267.6,168.72,295.76,166.96,313.36,183.6z"/>
<path d="M318.856,177.792c-20.328-19.216-53.504-18.144-73.928,2.376l-4.104,4.072l-3.008-3.008
	c-20.464-20.472-53.648-21.584-73.936-2.496c0,0,0,0.008-0.008,0.008c-10.392,9.8-16.232,23.04-16.44,37.296
	c-0.208,14.224,5.2,27.584,15.232,37.616l52.984,52.984c7.064,7.008,16.304,10.512,25.536,10.512
	c9.296,0,18.584-3.552,25.632-10.648l53.168-53.816c10.096-10.096,15.528-23.504,15.304-37.776
	C335.056,200.704,329.208,187.504,318.856,177.792z M308.632,241.416l-53.184,55.24c-3.792,3.824-8.84,7.344-14.232,7.344
	c-0.008,0-0.016,0-0.024,0c-5.376,0-10.448-3.504-14.256-7.28l-52.96-53.664c-6.944-6.944-10.688-16.568-10.544-26.424
	c0.144-9.888,4.2-19.264,11.416-26.064c14.072-13.224,37.24-12.344,51.656,2.064l1.488,1.448l-17.424,16.072
	c-3.24,3-3.448,8.04-0.448,11.296c1.576,1.704,3.72,2.568,5.88,2.568c1.936,0,3.888-0.704,5.424-2.128l19.2-17.744l17.744,17.552
	c3.136,3.096,8.2,3.096,11.312-0.064c3.104-3.144,3.08-8.2-0.064-11.312l-16.208-16.04l2.816-2.792
	c14.376-14.464,37.544-15.392,51.656-2.048c7.192,6.752,11.24,15.888,11.392,25.744C319.44,225.072,315.664,234.376,308.632,241.416
	z"/>
<path d="M285.68,226.32c-0.4-0.32-0.8-0.72-1.2-0.96c-0.48-0.32-0.96-0.56-1.44-0.72c-0.48-0.24-0.96-0.4-1.44-0.488
	c-1.6-0.32-3.2-0.16-4.64,0.488c-0.96,0.4-1.84,0.96-2.64,1.68c-0.72,0.8-1.28,1.6-1.68,2.64c-0.4,0.96-0.64,2-0.64,3.04
	c0,2.16,0.8,4.16,2.32,5.68c0.8,0.72,1.68,1.28,2.64,1.76c0.96,0.4,2,0.56,3.04,0.56s2.08-0.168,3.04-0.56
	c0.96-0.48,1.84-1.04,2.64-1.76c1.52-1.52,2.32-3.52,2.32-5.68c0-1.04-0.24-2.08-0.64-3.04
	C286.96,227.92,286.4,227.12,285.68,226.32z"/>
<g>
</g>
<g>
</g>
<g>
</g>
<g>
</g>
<g>
</g>
<g>
</g>
<g>
</g>
<g>
</g>
<g>
</g>
<g>
</g>
<g>
</g>
<g>
</g>
<g>
</g>
<g>
</g>
<g>
</g>
</svg>
