<?xml version="1.0" encoding="iso-8859-1"?>
<!-- Generator: Adobe Illustrator 19.0.0, SVG Export Plug-In . SVG Version: 6.00 Build 0)  -->
<svg version="1.1" id="Layer_1" xmlns="http://www.w3.org/2000/svg" xmlns:xlink="http://www.w3.org/1999/xlink" x="0px" y="0px"
	 viewBox="0 0 512.001 512.001" style="enable-background:new 0 0 512.001 512.001;" xml:space="preserve">
<g>
	<g>
		<path d="M493.472,400.476l5.255-5.254c17.699-17.7,17.699-46.499,0-64.2L203.351,35.647
			c-22.504-22.504-52.426-34.899-84.253-34.899s-61.75,12.396-84.255,34.9c-46.456,46.456-46.456,122.048,0,168.508
			c28.668,28.666,70.388,40.745,109.877,32.096l27.165,27.165c0.001,0.001,0.002,0.003,0.003,0.004
			c0.001,0.001,0.003,0.002,0.004,0.004l28.356,28.356c0.003,0.003,0.004,0.006,0.008,0.009c0.002,0.002,0.005,0.004,0.009,0.007
			l28.348,28.348l0.011,0.013c0.003,0.004,0.009,0.008,0.012,0.011l28.341,28.341c0.005,0.006,0.01,0.012,0.015,0.017
			c0.005,0.005,0.011,0.01,0.016,0.015l28.332,28.332c0.006,0.008,0.012,0.015,0.018,0.021c0.006,0.006,0.014,0.012,0.02,0.019
			l28.325,28.325c0.008,0.008,0.014,0.016,0.022,0.024c0.008,0.009,0.017,0.015,0.025,0.022l28.317,28.317
			c0.009,0.01,0.017,0.018,0.026,0.028s0.019,0.017,0.028,0.025l26.989,26.989c8.849,8.848,20.474,13.273,32.099,13.273
			c11.625,0,23.25-4.425,32.101-13.274l2.131-2.131l50.394,50.394c1.53,1.53,3.579,2.348,5.671,2.348
			c0.907,0,1.822-0.153,2.705-0.469c2.921-1.048,4.975-3.684,5.275-6.772l8.281-85.104c0.232-2.386-0.616-4.751-2.311-6.447
			L493.472,400.476z M46.182,192.816c-40.204-40.206-40.204-105.624,0-145.827c19.476-19.476,45.372-30.203,72.915-30.203
			c27.543,0,53.438,10.726,72.914,30.202l18.745,18.744L67.408,209.082C59.733,204.656,52.581,199.215,46.182,192.816z
			 M232.491,232.881l-35.912-35.914h0.001c-2.703-2.702-2.703-7.101,0-9.804l25.548-25.548c2.697-2.696,7.084-2.701,9.788-0.013
			l35.927,35.927L232.491,232.881z M279.184,208.87l35.932,35.932c1.285,1.295,1.994,3.027,1.994,4.881
			c0,1.864-0.715,3.605-2.012,4.903l-25.548,25.55c-2.696,2.696-7.082,2.702-9.788,0.015l-35.928-35.929L279.184,208.87z
			 M210.788,150.274l-25.548,25.548c-1.708,1.708-3.086,3.623-4.142,5.662l-31.706-31.705l35.35-35.351l31.705,31.705
			C214.409,147.191,212.495,148.568,210.788,150.274z M421.968,449.3c-11.447,11.445-30.074,11.447-41.52,0l-21.345-21.345
			l11.651-11.651c3.132-3.133,3.132-8.209,0-11.34c-3.131-3.13-8.209-3.13-11.339,0l-11.651,11.651l-17.027-17.027l11.651-11.651
			c3.131-3.133,3.131-8.209,0-11.34c-3.132-3.13-8.209-3.13-11.34,0l-11.653,11.651l-17.027-17.027l11.651-11.651
			c3.131-3.133,3.131-8.209,0-11.34c-3.131-3.13-8.209-3.13-11.34,0l-11.653,11.653L274,342.853l11.653-11.651
			c3.131-3.133,3.131-8.209,0-11.34c-3.132-3.13-8.209-3.13-11.339,0l-11.653,11.653l-17.027-17.027l11.653-11.652
			c3.131-3.133,3.131-8.209,0-11.34c-3.132-3.13-8.209-3.13-11.339,0l-11.653,11.653l-17.027-17.027l11.653-11.653
			c3.131-3.133,3.131-8.209,0-11.34c-3.132-3.13-8.209-3.13-11.339,0l-11.654,11.653l-17.027-17.027l11.653-11.653
			c3.132-3.133,3.132-8.209,0-11.34c-3.131-3.13-8.209-3.13-11.339,0l-11.654,11.654l-24.672-24.674
			c-2.011-2.011-4.939-2.808-7.691-2.089c-20.896,5.444-42.709,4.066-62.373-3.3l55.229-55.229l130.354,130.357l-0.001,0.001
			c0.006,0.006,0.013,0.012,0.019,0.018l155.674,155.674L421.968,449.3z M485.166,485.556l-189.939-189.94
			c2.039-1.056,3.954-2.433,5.661-4.142l25.549-25.55c1.687-1.687,3.068-3.6,4.139-5.663l160.86,160.859L485.166,485.556z
			 M487.386,383.882l-5.254,5.254L326.446,233.452c-0.003-0.004-0.006-0.009-0.01-0.012l-83.165-83.164
			c-0.001-0.001-0.003-0.003-0.004-0.004l-47.184-47.184l26.015-26.015l265.289,265.289
			C498.831,353.809,498.831,372.436,487.386,383.882z"/>
	</g>
</g>
<g>
</g>
<g>
</g>
<g>
</g>
<g>
</g>
<g>
</g>
<g>
</g>
<g>
</g>
<g>
</g>
<g>
</g>
<g>
</g>
<g>
</g>
<g>
</g>
<g>
</g>
<g>
</g>
<g>
</g>
</svg>
