<?xml version="1.0" encoding="iso-8859-1"?>
<!-- Generator: Adobe Illustrator 19.0.0, SVG Export Plug-In . SVG Version: 6.00 Build 0)  -->
<svg version="1.1" id="Layer_1" xmlns="http://www.w3.org/2000/svg" xmlns:xlink="http://www.w3.org/1999/xlink" x="0px" y="0px"
	 viewBox="0 0 512 512" style="enable-background:new 0 0 512 512;" xml:space="preserve">
<g>
	<g>
		<path d="M281.653,42.756c-23.281,0-42.221,18.941-42.221,42.221c0,23.28,18.941,42.221,42.221,42.221s42.221-18.941,42.221-42.221
			C323.875,61.697,304.934,42.756,281.653,42.756z M281.653,111.165c-14.441,0-26.188-11.748-26.188-26.188
			s11.747-26.188,26.188-26.188c14.441,0,26.188,11.748,26.188,26.188S296.094,111.165,281.653,111.165z"/>
	</g>
</g>
<g>
	<g>
		<path d="M350.063,136.818c-23.28,0-42.221,18.941-42.221,42.221s18.941,42.221,42.221,42.221
			c23.281,0,42.221-18.941,42.221-42.221S373.343,136.818,350.063,136.818z M350.063,205.228c-14.441,0-26.188-11.748-26.188-26.188
			s11.747-26.188,26.188-26.188c14.441,0,26.188,11.748,26.188,26.188S364.503,205.228,350.063,205.228z"/>
	</g>
</g>
<g>
	<g>
		<path d="M187.591,128.267c-23.281,0-42.221,18.941-42.221,42.221s18.941,42.221,42.221,42.221s42.221-18.941,42.221-42.221
			S210.871,128.267,187.591,128.267z M187.591,196.676c-14.441,0-26.188-11.748-26.188-26.188s11.747-26.188,26.188-26.188
			s26.188,11.748,26.188,26.188S202.032,196.676,187.591,196.676z"/>
	</g>
</g>
<g>
	<g>
		<path d="M273.102,350.597c-23.281,0-42.221,18.941-42.221,42.221c0,23.281,18.941,42.221,42.221,42.221
			s42.221-18.941,42.221-42.221C315.324,369.538,296.383,350.597,273.102,350.597z M273.102,419.006
			c-14.441,0-26.188-11.748-26.188-26.188c0-14.44,11.747-26.188,26.188-26.188c14.441,0,26.188,11.748,26.188,26.188
			C299.29,407.258,287.543,419.006,273.102,419.006z"/>
	</g>
</g>
<g>
	<g>
		<path d="M444.125,247.983h-6.776c-5.471-33.945-14.279-66.721-26.225-97.498c-1.602-4.128-6.248-6.176-10.375-4.573
			c-4.127,1.602-6.174,6.247-4.573,10.375c11.242,28.957,19.611,59.77,24.928,91.696h-11.718v-9.071
			c0-8.158-3.982-15.833-10.649-20.532c-6.668-4.7-15.237-5.867-22.918-3.122l-78.254,27.947
			c-1.992-6.915-8.364-11.992-15.911-11.992h-51.307c-7.547,0-13.919,5.077-15.91,11.993l-78.254-27.948
			c-7.683-2.745-16.249-1.577-22.918,3.122c-6.67,4.699-10.651,12.375-10.651,20.532v9.071H90.896
			c9.884-59.344,30.28-114.693,57.907-157.094c4.136,1.361,8.549,2.105,13.135,2.105c23.281,0,42.221-18.941,42.221-42.221
			c0-5.669-1.146-11.069-3.184-16.011C218.875,22.482,237.51,16.033,256,16.033c43.555,0,87.678,35.855,121.056,98.372
			c2.084,3.905,6.939,5.381,10.847,3.296c3.906-2.085,5.382-6.942,3.296-10.847c-17.324-32.446-37.313-58.212-59.414-76.582
			C307.617,10.185,282.12,0,256,0c-21.982,0-43.671,7.289-64.465,21.663c-19.154,13.241-37.127,32.194-53.422,56.332
			C107.487,123.36,85.035,183.57,74.65,247.983h-6.776c-4.428,0-8.017,3.589-8.017,8.017v51.307c0,4.427,3.588,8.017,8.017,8.017
			h0.637c-0.061,3.047-0.103,6.089-0.103,9.086C68.409,427.847,152.562,512,256,512s187.591-84.153,187.591-187.591
			c0-3.007-0.042-6.047-0.102-9.086h0.636c4.428,0,8.017-3.589,8.017-8.017V256C452.142,251.573,448.554,247.983,444.125,247.983z
			 M187.526,45.213c0.389,1.793,0.6,3.651,0.6,5.559c0,14.44-11.747,26.188-26.188,26.188c-1.106,0-2.195-0.075-3.267-0.208
			C167.865,64.454,177.537,53.903,187.526,45.213z M298.221,291.183l32.795,8.198c4.356,1.089,8.869-1.742,9.791-6.132
			c0.874-4.16-1.78-8.391-5.902-9.421l-20.198-5.049l20.198-5.049c4.296-1.073,6.906-5.427,5.833-9.722
			c-1.074-4.296-5.43-6.905-9.723-5.833l-32.794,8.198v-6.378l82.99-29.638c5.836-2.083,12.142,2.374,12.142,8.556v86.614
			c0,6.417-6.751,10.885-12.665,8.351l-82.466-35.344V291.183z M229.812,247.78c0-0.295,0.24-0.534,0.534-0.534h51.307
			c0.294,0,0.534,0.239,0.534,0.534v59.858c0,0.295-0.241,0.534-0.534,0.534h-51.307c-0.294,0-0.534-0.239-0.534-0.534V247.78z
			 M130.789,230.356l82.99,29.639v6.377l-32.795-8.198c-4.297-1.072-8.647,1.537-9.723,5.833c-1.073,4.295,1.537,8.647,5.833,9.722
			l20.198,5.049l-20.198,5.049c-4.123,1.03-6.776,5.262-5.901,9.421c0.922,4.389,5.436,7.224,9.791,6.132l32.795-8.198v7.352
			l-82.466,35.343c-5.913,2.533-12.665-1.934-12.665-8.351v-86.614h0C118.647,232.73,124.953,228.273,130.789,230.356z
			 M75.891,264.017h26.722v35.273H75.891V264.017z M92.442,376.211c-2.845-8.963-4.967-18.242-6.309-27.77
			c4.882,4.757,7.929,11.385,7.929,18.724C94.063,370.345,93.485,373.39,92.442,376.211z M181.298,478.829
			c-15.715-7.633-30.092-17.598-42.69-29.438c4.329-8.503,13.15-14.351,23.329-14.351c14.441,0,26.188,11.748,26.188,26.188
			C188.125,468.001,185.534,474.176,181.298,478.829z M362.967,458.431c-8.009-4.483-13.439-13.044-13.439-22.857
			c0-14.44,11.747-26.188,26.188-26.188c9.13,0,17.164,4.71,21.851,11.813C387.927,435.256,376.252,447.807,362.967,458.431z
			 M406.485,406.717c-7.708-8.213-18.644-13.364-30.769-13.364c-23.28,0-42.221,18.941-42.221,42.221
			c0,13.238,6.133,25.061,15.699,32.805c-26.852,17.441-58.859,27.587-93.194,27.587c-20.887,0-40.912-3.757-59.441-10.623
			c4.784-6.841,7.6-15.154,7.6-24.116c0-23.28-18.941-42.221-42.221-42.221c-14.471,0-27.255,7.323-34.865,18.451
			c-11.121-12.667-20.417-26.976-27.455-42.517c6.513-7.43,10.478-17.143,10.478-27.775c0-17.382-10.563-32.336-25.603-38.802
			c-0.03-1.315-0.05-2.632-0.05-3.954c0-2.995,0.044-6.037,0.106-9.086h18.065v10.203c0,12.857,10.109,23.907,22.935,25.032
			c4.109,0.36,8.288-0.321,12.078-1.945l77.991-33.424c2.751,5.346,8.315,9.016,14.729,9.016h51.307
			c6.414,0,11.977-3.672,14.729-9.016l77.99,33.424c12.566,5.387,27.585-0.609,32.976-13.158c1.344-3.129,2.036-6.526,2.036-9.929
			v-10.203h18.065c0.062,3.039,0.106,6.08,0.106,9.086C427.557,354.216,419.911,382.268,406.485,406.717z M436.109,299.29h-26.722
			v-35.273h26.722V299.29z"/>
	</g>
</g>
<g>
</g>
<g>
</g>
<g>
</g>
<g>
</g>
<g>
</g>
<g>
</g>
<g>
</g>
<g>
</g>
<g>
</g>
<g>
</g>
<g>
</g>
<g>
</g>
<g>
</g>
<g>
</g>
<g>
</g>
</svg>
